<svg id="Layer_1" data-name="Layer 1" xmlns="http://www.w3.org/2000/svg" viewBox="0 0 208.16 167.32"><defs><style>.cls-1{fill:#fff;stroke:#231f20;stroke-miterlimit:10;stroke-width:0.95px;}</style></defs><title>speechbubbles</title><path class="cls-1" d="M16.39,55.17C3.43,45,.3,33.7,6.83,21.61c5.1-9.43,12.56-11.68,25-7.56C43.57,0,63.39-.17,77.44,8.82c18.48-12.5,34.64-11.77,50.47,2.55C133,4.91,140.21,3,148,3s15,1.82,21.17,7.72c6.93-7.56,14.72-12,24.29-4.83,7.55,5.7,8.91,15.06,4.05,25.7,6.83,4.09,11.08,9.87,10.64,18.38s-5.77,13.25-11.46,16c.74,6.95,2.21,13.16,1.86,19.26-.66,11.26-8.49,18-19.83,18-3.08,0-5,.69-6.91,3.42-8.51,11.94-24.76,11.05-32.34-1.48-.55-.92-1.11-1.83-1.9-3.12a21.92,21.92,0,0,1-14.39,10.17c-6.31,1.41-11.83-.23-17.23-3.06-11.69,14.41-36.14,10-44.5-7C54.3,113.91,35.07,117.65,24.22,109c-2.68-2.14-3.81-6.19-5.72-9.33C17.7,98.35,17,96.42,15.78,96,6.6,92.81.42,87.17,0,77-.36,67.26,4.88,60.3,15.31,55.87A8.25,8.25,0,0,0,16.39,55.17Z"/><path class="cls-1" d="M40.78,142.7c6.59,0,11.75,3.29,11.57,7.35-.16,3.8-5.39,7-11.5,7.1s-11.8-3.33-11.81-7.27S34.24,142.68,40.78,142.7Z"/><path class="cls-1" d="M54.86,117.53c8.63,0,15.37,4.3,15.14,9.62-.21,5-7,9.19-15,9.3-8.2.1-15.44-4.36-15.46-9.52S46.29,117.51,54.86,117.53Z"/><path class="cls-1" d="M24.55,160.09c3.3,0,5.87,1.64,5.79,3.68s-2.7,3.51-5.75,3.55-5.9-1.67-5.91-3.64S21.28,160.08,24.55,160.09Z"/></svg>