<svg id="Layer_1" data-name="Layer 1" xmlns="http://www.w3.org/2000/svg" viewBox="0 0 246.81 167.32"><defs><style>.cls-1{fill:#fff;stroke:#231f20;stroke-miterlimit:10;stroke-width:0.98px;}</style></defs><title>speechbubbles</title><path class="cls-1" d="M218.71,166.12c-14.38-6.28-18.24-19.36-19.34-34.3-.54-7.43-.81-14.88-1.22-22.75a376,376,0,0,1-149.45,0c-.49,8.48-.81,16.55-1.44,24.58-1.15,14.52-5.61,26.68-19.47,32.63,1-3.74,1.93-6.94,2.79-10.17,3.89-14.56,1.27-28.83-1.1-43.26C28,104,26,96.85,17.81,92.57c-4.46-2.35-8.09-7.51-11.2-12.17C-3.23,65.64-2,49.18,9.67,36.18,20.13,24.5,33.25,17.92,46.92,12.79,78.57.89,111.19-1.61,144.25.87c23.2,1.74,45.9,6.4,67.25,17.1a107.33,107.33,0,0,1,21.08,13.84c17.93,15.16,18.95,37.35,2.84,54.94a70,70,0,0,1-11.51,9.5c-2.48,1.75-4.18,3.41-4.7,7-1.45,9.93-3.72,19.72-4.86,29.68-.62,5.41,0,11.12.77,16.59S217.39,160.16,218.71,166.12Z"/></svg>