<svg id="Layer_1" data-name="Layer 1" xmlns="http://www.w3.org/2000/svg" viewBox="0 0 206.5 167.32"><defs><style>.cls-1{fill:#fff;stroke:#231f20;stroke-miterlimit:10;stroke-width:0.86px;}</style></defs><title>speechbubbles</title><path class="cls-1" d="M182.19,86.26c-2.8-11.59-10.42-20.27-18.23-20a41.06,41.06,0,0,0,3.47,2.87c9.88,6.3,13.88,14.65,11.44,24-2.35,9-12.53,16.44-23.14,16.76a29.26,29.26,0,0,1-4.29-.16c-8.12-.93-8.52-1.29-10.32-9.19-3.7,14.4-12.57,23.25-27.22,24.79-14.37,1.52-25.54-4.24-32.76-17.33L80,108.8c.44,1.69.88,3.39,1.34,5.18-12,8.31-34.22,3.68-43.46-9.3l3.24-2.16-.21-1c-1.55.12-3.11.13-4.63.38A20.29,20.29,0,0,1,17.8,96.16a14.48,14.48,0,0,1-1.88-17.8c1.22-2,2.39-2.55,4.79-1.85,3.2.92,6.61,2.57,10.07-.59-2.12-.35-4.23-.73-6.35-1C14.64,73.45,8.36,65.56,9.62,56.26c.86-6.3,6.59-11.45,14.74-13.15.75,1.14,1.54,2.33,2.32,3.53l1.33.25c-3.27-15,1.53-26,15.14-32.18C56,8.89,68.09,11.93,79.54,19.76c.21-.51.41-1,.61-1.54l-5-4.53c6.4-10.57,21.72-12.86,34.31-5v4.87C114.24,5.41,120.21-.2,130.2.05a19,19,0,0,1,13.48,5.47L141,10.69l1.07.89c1-1,2.17-2,3.09-3.1,8.87-10.86,25.93-11.58,34.55-1,2.65,3.25,3.8,7.73,5.75,11.91l1.94-2.17c7.35,3,12.77,7.8,14.25,16.1,1.46,8.11-3.9,13.6-8.73,19.27l1.54,1,7-6.68c5.37,7.41,6.7,15.21,2.81,23.39C199.91,79.47,192.33,84.48,182.19,86.26Z"/><path class="cls-1" d="M22.59,145.44c6,0,10.63,3,10.47,6.64-.15,3.44-4.87,6.36-10.4,6.43S12,155.5,12,151.93,16.68,145.42,22.59,145.44Z"/><path class="cls-1" d="M35.33,122.67c7.8,0,13.9,3.89,13.69,8.7-.19,4.5-6.37,8.32-13.61,8.41-7.41.1-14-3.94-14-8.61S27.58,122.65,35.33,122.67Z"/><path class="cls-1" d="M7.92,161.17c3,0,5.31,1.48,5.23,3.32s-2.44,3.18-5.2,3.21-5.34-1.5-5.34-3.28S5,161.16,7.92,161.17Z"/></svg>