<svg id="Layer_1" data-name="Layer 1" xmlns="http://www.w3.org/2000/svg" viewBox="0 0 232.3 167.32"><defs><style>.cls-1{fill:#fff;stroke:#231f20;stroke-miterlimit:10;stroke-width:1.2px;}</style></defs><title>speechbubbles</title><path class="cls-1" d="M34.75,167.32c1.49-13.22,2.85-25.31,4.31-38.25-8.54,0-16.5,0-24.46,0C8.34,129,3.72,126,1.36,120.42A14,14,0,0,1,1,112C4.46,98.82,8.5,85.86,12,72.74c2.9-11-.6-21.46-3.44-31.85-2.06-7.51-4-15.25-7.45-22.14C-2.88,10.92,4.76.67,13.14.09c1.2-.08,2.41,0,3.61,0Q116.4,0,216,0c5.64,0,10.23,1.69,13.62,6.17,2.68,3.53,3.32,7.2,1.93,11.78-4.1,13.56-9.16,27.1-10.84,41-1.23,10.11,1.87,20.89,3.91,31.2,1.34,6.82,4.19,13.34,6.44,20,3.32,9.81-2.75,18.74-13.27,18.89-15.45.21-30.91.07-46.36.08-25.69,0-51.37-.11-77.06.14a18.64,18.64,0,0,0-9.83,3.11c-15.67,10.81-31.08,22-46.59,33C37.2,166,36.33,166.39,34.75,167.32Z"/></svg>