<svg id="Layer_1" data-name="Layer 1" xmlns="http://www.w3.org/2000/svg" viewBox="0 0 246.81 167.32"><defs><style>.cls-1{fill:#fff;stroke:#231f20;stroke-miterlimit:10;stroke-width:1.23px;}</style></defs><title>speechbubbles</title><path class="cls-1" d="M33.84,167.32c5.7-5.18,11-9.89,16.09-14.66a38.11,38.11,0,0,0,4.17-4.72c8.18-10.64,5.57-18.27-10.26-24.14-8.88-3.3-19.09-5.27-29.05-7-6.49-1.1-10.21-3.28-11.74-7.21C1.63,106-.08,102.22,0,98.52c.38-16.25-1-32.73,2.68-48.7C7.57,28.35,28.81,14,59.46,7.16c48.88-10.86,97.33-10,143.23,7,22.58,8.37,39.22,20.83,42.87,38.21,2.37,11.26.76,22.94.07,34.41-.35,5.83-2.11,11.68-4.06,17.4-3.62,10.63-13.94,17.4-29.4,20.78-26.27,5.76-53,5.76-79.76,2.07-6.49-.9-11.7-.55-16.37,2.4-10.28,6.51-20.4,13.12-30.69,19.62C70.9,158.19,53,163,33.84,167.32Z"/></svg>