<svg id="_ÎÓÈ_1" data-name="—ÎÓÈ_1" xmlns="http://www.w3.org/2000/svg" viewBox="0 0 433.65 450"><title>SpeechBubble</title><path d="M218.86 15.48 201 16.21c-6 .21-11.44 1.29-17.18 1.88s-11.35 2-17 3.09c-2.83.63-5.7 1.09-8.49 1.86L150 25.55 141.69 28c-2.72 1-5.37 2.13-8.06 3.18a129.9 129.9.0 00-15.83 7c-5.13 2.63-10.39 5-15.15 8.31s-9.92 5.9-14.34 9.61A179.56 179.56.0 0062.6 79.07a177.71 177.71.0 00-20.92 27.32 184.63 184.63.0 00-15.36 30.79c-1.78 5.47-4.1 10.76-5.46 16.36s-2.94 11.14-4 16.8l-2.49 16.89c-.29 5.89-1 12-1 17.71s-.18 11.37.34 17.21l.52 8.7c.23 2.9.65 5.78 1 8.67l1.05 8.67 1.51 8.61c.87 5.76 2.25 11.43 3.58 17.11a298.53 298.53.0 0010 33.5A312.78 312.78.0 0045.29 339.5c2.49 5.27 5.55 10.23 8.29 15.36s6.16 9.86 9.21 14.8 6.77 9.42 10.12 14.15c3.53 4.6 7.38 8.92 11 13.39 3.88 4.28 8 8.34 12 12.52l12.88 11.51-12.3 7.28v0c-2.31-16.69-4.23-33.5-3.86-50.69.34-8.59 1.06-17.3 3.49-26 2.39-8.53 7-17.94 16-23.43s19.48-5.32 28.15-3.44c8.43 1.89 16.17 3.87 24.29 5.81 15.95 3.4 31.47 6.39 47.77 6l6.06.14 5.93-.26 12.38-.59c4.19-.1 8-1 12-1.39s7.87-.95 11.8-1.69c15.72-3.3 31.42-7.12 46.13-13.53 7.56-2.7 14.54-6.64 21.71-10.17 3.61-1.71 6.83-4.1 10.28-6.11s6.9-4 10-6.53l9.53-7.17c3.2-2.35 5.93-5.25 8.92-7.84 6.13-5.07 11-11.32 16.42-17.06 9.63-12.42 18.16-25.7 23.86-40.23 1.58-3.56 2.42-7.39 3.67-11.06l1.75-5.56 1.05-5.71c.62-3.83 1.59-7.6 1.94-11.46l.66-11.6.17-2.9-.17-2.55-.42-6.18c-.29-4.1-.39-8.4-1.34-11.87l-2.12-11L409 133.32c-5.27-14.52-12.36-28.66-22.28-40.85l-3.52-4.7L379.2 83.4c-2.68-2.88-5.18-5.93-8-8.69-5.9-5.24-11.45-10.9-18-15.4-12.42-9.89-26.57-17.47-41-24.25-7.46-2.86-14.69-6.36-22.45-8.42l-11.51-3.51-11.77-2.52c-7.79-2-15.84-2.56-23.79-3.7-8-1-16-.91-24.08-1.43zm-.27-13.37c8.46.42 17 .29 25.4 1.19 8.41 1.1 16.91 1.64 25.19 3.64l12.49 2.53L293.93 13c8.29 2 16.1 5.52 24.13 8.4 15.59 6.85 31 14.64 44.7 25 7.19 4.75 13.42 10.75 20 16.36 3.15 2.95 6 6.23 9 9.34l4.45 4.73L400.14 82c11 13.43 19.17 29.19 25.21 45.57l4 12.53 2.47 13.35c1 4.6 1 8.59 1.29 12.72l.36 6.19.18 3.64-.21 3.28-.88 13.13c-.45 4.36-1.54 8.63-2.3 13L429 211.84l-2 6.26c-1.44 4.12-2.48 8.41-4.27 12.39-6.55 16.25-16.14 30.94-27.09 44.32-6 6.2-11.55 12.89-18.27 18.28-3.3 2.76-6.35 5.82-9.85 8.31l-10.43 7.52c-3.39 2.65-7.24 4.56-10.87 6.82-3.73 2.09-7.25 4.55-11.14 6.32-7.72 3.64-15.27 7.64-23.35 10.37-15.79 6.48-32.45 10.21-49.1 13.32-8.41 1.1-17.11 2.24-25.43 2.76l-12.38.43-6.45.21-6.34-.22c-16.85.2-34-3.19-50.25-6.89l-23.86-6c-7.26-1.62-14.6-1.52-19.9 1.89s-8.83 9.72-10.75 16.93a83.88 83.88.0 00-2.47 23c.22 15.88 2.83 32 6.63 47.72v0l4 22.08-16.28-14.8L85.44 420.48C81.23 416 76.89 411.62 72.8 407c-3.86-4.78-7.9-9.41-11.59-14.3-3.51-5-7.26-9.89-10.56-15S44 367.4 41.1 362s-6-10.65-8.56-16.19a325.11 325.11.0 01-14.2-33.7 321.11 321.11.0 01-10.41-35c-1.38-5.94-2.81-11.86-3.72-17.9l-1.56-9-1.11-9.09c-.33-3-.76-6.06-1-9.1L0 222.86c-.52-6.05-.3-12.34-.32-18.55s.68-12 1-18L3.39 167.8c1.12-6.06 2.87-12 4.28-18s3.95-11.69 5.88-17.55A198.59 198.59.0 0130.11 99.16 190.9 190.9.0 0152.64 69.81 193.58 193.58.0 0180.26 45.23C85 41.28 90.44 38.3 95.62 35s10.72-6.05 16.2-8.86a141.35 141.35.0 0116.87-7.43c2.87-1.12 5.71-2.32 8.59-3.37l8.83-2.64L154.93 10c3-.81 6-1.3 9-2 6-1.18 11.93-2.73 18.16-3.27S194.5 3 200.45 2.82l17.88-.71z"/></svg>