<svg id="Layer_1" data-name="Layer 1" xmlns="http://www.w3.org/2000/svg" viewBox="0 0 246.81 163.32"><defs><style>.cls-1{fill:#fff;stroke:#231f20;stroke-miterlimit:10;}</style></defs><title>speechbubbles</title><path class="cls-1" d="M17.42,162.67c7.76-15.18,14.52-28.82,21.67-42.24,2.65-5,2.45-7.33-3.34-9.88C11,99.66-2.56,76.26.4,50.92,3.34,25.8,22.3,5.92,48.45.71A49.44,49.44,0,0,1,58,.05Q123.57,0,189.18.05c28.49.06,53.54,21.74,57.11,49.16,3.86,29.64-14.34,57-43,64.26a56,56,0,0,1-13.2,1.71c-32.92.31-65.85.38-98.77.7a13.52,13.52,0,0,0-6.83,2.36c-20.69,13.69-41.29,27.53-61.93,41.32C21.37,160.36,20.1,161.06,17.42,162.67Z"/></svg>