<svg id="Layer_1" data-name="Layer 1" xmlns="http://www.w3.org/2000/svg" viewBox="0 0 164.53 167.32"><defs><style>.cls-1{fill:#fff;stroke:#231f20;stroke-miterlimit:10;}</style></defs><title>speechbubbles</title><path class="cls-1" d="M21.84,166.91c4.73-7.14,9.41-13,12.68-19.56,2.46-4.92,3.57-10.66,4.4-16.17.77-5.09-2.25-8.51-7.21-9.68a96.19,96.19,0,0,0-12.59-2.12c-7.74-.76-12.9-4.76-15.58-11.88A35.35,35.35,0,0,1,1,97.75c-1.24-18.48-2.27-37,3-55.11C9.53,23.77,22.36,11.94,40.86,6.72a148.6,148.6,0,0,1,81.63,0c25.67,7.2,38.54,25.87,41.17,51.4a145.89,145.89,0,0,1-.73,37.64c-3.34,20.81-15.06,29.69-36.29,30-13.18.16-26.39.38-39.53-.34-8-.44-13.45,2.29-18.12,8.56A86.89,86.89,0,0,1,36.6,160.28C32,162.49,27.35,164.45,21.84,166.91Z"/></svg>