<svg id="Layer_1" data-name="Layer 1" xmlns="http://www.w3.org/2000/svg" viewBox="0 0 246.81 167.32"><defs><style>.cls-1{fill:#fff;stroke:#231f20;stroke-miterlimit:10;stroke-width:1.01px;}</style></defs><title>speechbubbles</title><path class="cls-1" d="M17.73,167.27c4.16-6.09,8.5-11.65,11.93-17.72a109.79,109.79,0,0,0,9.26-19.89c2.39-7.34.43-9.16-7.22-9.18-4.54,0-9.09.07-13.62-.2-9.91-.58-16.84-7.64-16.88-17.47q-.13-40.15,0-80.31C1.22,7.89,4.56,3,22.37,1.7c14.12-1,28.33-1,42.5-1q79,.23,158,.8A34.5,34.5,0,0,1,230,2c14.4,3.15,16.52,6.65,16.61,18.42.2,26.75.44,53.51-.1,80.26-.27,13.81-6,18.91-20,19.44-12.34.47-24.7.4-37.05.43-25.8,0-51.6-.1-77.39.15a14.14,14.14,0,0,0-8.45,3.4c-24.07,21.42-51.52,36.35-83.28,43.19A14.78,14.78,0,0,1,17.73,167.27Z"/></svg>