<svg id="Layer_1" data-name="Layer 1" xmlns="http://www.w3.org/2000/svg" viewBox="0 0 246.81 167.32"><defs><style>.cls-1{fill:#fff;stroke:#231f20;stroke-miterlimit:10;stroke-width:1.01px;}</style></defs><title>speechbubbles</title><path class="cls-1" d="M244.64,167.84c-10.17-6.14-20.5-12-30.48-18.5-17-11-16.85-11-36.67-8.27-24.39,3.34-48.88,6.2-73.49,4.86-22.43-1.22-44.77-3.92-66.3-11.44-18-6.3-31.28-18.37-36.2-38.92C-.79,86.05-.06,76.17,5.56,68.09c16.71-24,36.62-44.32,60.89-59.23C76.76,2.53,88.21.39,99.8.21c15.56-.24,31.22-.6,46.67,1,14.18,1.48,27,8.33,38.57,17.57A258,258,0,0,1,227.94,63c9.44,12.25,10.44,25.71,4.24,39.94-2.81,6.45-5.61,12.91-8.85,19.11-1.68,3.23-.93,5,1,7.65,7.2,9.77,14.13,19.79,20.91,29.92,1.14,1.71,1.06,4.39,1.54,6.63Z"/></svg>