<svg id="Layer_1" data-name="Layer 1" xmlns="http://www.w3.org/2000/svg" viewBox="0 0 246.81 167.32"><defs><style>.cls-1{fill:#fff;stroke:#231f20;stroke-miterlimit:10;}</style></defs><title>speechbubbles</title><path class="cls-1" d="M189.66,13c8.48-8.52,14.57-10,21-5.28,7.44,5.45,9.11,14.48,4.15,23.92,6.25,3.62,10.28,8.91,9.91,16.45s-4.86,12.18-11.15,14.88c.93,5,2.49,9.72,2.61,14.52.31,12.31-7,19.22-19.35,19.33a5.67,5.67,0,0,0-4.08,1.88c-8.82,12.5-23.91,11.51-30.86-2.14-.19-.38-.44-.73-.81-1.34-6.94,10.45-16.44,11.2-27.24,7.43-1-.34-3.3.57-3.51,1.32-.53,1.91-1,4.51-.1,6,2.67,4.54,1.73,7.71-2.41,10.46-4.3,2.85-4.89,7.6-5.48,12s-3.17,6.39-7.3,6.85c-1.41.17-2.84.21-4.26.31-5.63.41-10,2.2-13.16,7.67-7.83,13.32-20.48,17.11-36.56,15.8,3.52-1.91,5.93-3.4,8.49-4.57a20.72,20.72,0,0,0,12.53-16.12c.37-2.1,1-4.14,1.49-6.22,1.09-4.71,3.34-8,8.41-9.62,6.43-2,7-6.57,1.93-11-.86-.75-1.72-1.49-2.61-2.2-2.26-1.81-2.44-3.7-.28-5.72.62-.58,1.21-1.2,1.81-1.81,4-4.08,3.8-6.27-1.3-10.25-3.37,6.77-9.3,10-16.48,10.1a46.68,46.68,0,0,1-14.15-2.17A10.44,10.44,0,0,1,53.42,94c-.21-2.75-1.39-3.67-3.88-4.52-7.26-2.49-12.29-7.38-13-15.35-.73-8.53,3.18-14.79,10.7-18.8,4-2.16,4.08-2.57.5-5.23C37,42,37.29,23.53,48.44,16c4.18-2.83,8.68-2.95,13.47-1.43,1.58.5,4.27.45,5.25-.54C76.29,4.81,87.23,3.46,98.57,7.75c5.67,2.14,9.32,2.68,14.85-1C123.56,0,139.9,2.68,149.26,11c1,.85,1.86,1.74,3,2.79,4.66-6.34,11.29-7.72,18.45-7.89A26.44,26.44,0,0,1,189.66,13Z"/></svg>