<svg id="Layer_1" data-name="Layer 1" xmlns="http://www.w3.org/2000/svg" viewBox="0 0 200.57 167.32"><defs><style>.cls-1{fill:#fff;stroke:#231f20;stroke-miterlimit:10;stroke-width:1.4px;}</style></defs><title>speechbubbles</title><path class="cls-1" d="M28.69,167.32c8.11-7.75,16-15.16,23.72-22.72,2.36-2.3,4.29-5,6.52-7.49,8.31-9.13,8.65-19.39,4.26-30.26-1.2-3-2.74-5.86-4.25-9-7.18,10.17-17.16,13.63-29,10.45-7.91-2.12-11.65-6.6-12.51-15.2C7.92,90.43.63,85.26,0,74.51c-.61-10.92,7-16.59,15.62-21.81C6.05,47.19,2.62,39,4,28.47a20.55,20.55,0,0,1,10-15.34c2.54-1.51,6.71-1.14,9.91-.49,4.45.91,7.63-.15,11.15-2.93C45.49,1.53,57,1.2,68.68,6.47,72.07,8,75.07,8.3,78,6.28,91.76-3.13,105-.28,118.15,7.6c1.65,1,3.36,1.9,5.14,2.91C131.8,2.74,141.5,1.65,152,5.08c1.69.56,3.63,1.14,4.8,2.34,3.38,3.49,6.48,2.74,9.33-.3,8.37-8.94,22.42-3.85,25.19,9.22.56,2.65.63,6-.56,8.3-2.29,4.4-.73,7.05,2.46,9.74,5.9,5,7,11.31,4.84,18.39-1.75,5.74-6,9.2-11.59,11.42,2.92,6.7,5.21,13.36,3.13,20.59s-6.06,12.64-14.26,13.75c-6,.83-11,2.93-15.25,8.27-5.81,7.36-20.28,4.46-25.83-4.37-.85-1.36-1.55-2.82-2.59-4.74-6.46,12.86-17.74,10.55-28.45,9.41-3.16-.34-5.1.33-6.81,2.84-3.82,5.59-8.33,10.78-11.55,16.68-10.94,20-28.59,31.17-49.26,38.6-1.69.61-3.39,1.21-5.09,1.78A15.76,15.76,0,0,1,28.69,167.32Z"/></svg>