<?xml version="1.0" ?><svg width="53.39px" height="53.39px" viewBox="-7.64 0 53.39 53.39" xmlns="http://www.w3.org/2000/svg"><defs><style>.cls-1{fill:#ff6368;}.cls-2{fill:#d34a5b;}.cls-3{fill:#354251;}.cls-4{fill:#ffe48d;}.cls-5{fill:#e5c97a;}</style></defs><g data-name="Layer 2" id="Layer_2"><g data-name="Layer 1" id="Layer_1-2"><g id="lebster"><rect class="cls-1" height="19.19" rx="4.74" width="10.57" x="13.77" y="16.22"/><path class="cls-2" d="M19,30.13V21.5a5.28,5.28,0,0,1,2.68-4.59,5.32,5.32,0,0,0-7.89,4.59v8.63a5.31,5.31,0,0,0,7.89,4.59A5.28,5.28,0,0,1,19,30.13Z"/><path class="cls-3" d="M19.05,36.77a6.65,6.65,0,0,1-6.64-6.64V21.5c.33-8.8,13-8.8,13.29,0v8.63A6.65,6.65,0,0,1,19.05,36.77Zm0-19.19a3.93,3.93,0,0,0-3.92,3.92v8.63a3.93,3.93,0,0,0,7.85,0V21.5A3.93,3.93,0,0,0,19.05,17.58Z"/><path class="cls-4" d="M8.67,1.37H8.39A11.79,11.79,0,0,1,6.1,6.48,11.71,11.71,0,0,1,3.82,1.37,2.22,2.22,0,0,0,1.36,3.55v6.71a2.19,2.19,0,0,0,2.18,2.18H8.67a2.18,2.18,0,0,0,2.17-2.18V3.55A2.18,2.18,0,0,0,8.67,1.37Z"/><path class="cls-4" d="M34.57,1.37h-.28A11.71,11.71,0,0,1,32,6.48a11.79,11.79,0,0,1-2.29-5.11,2.21,2.21,0,0,0-2.45,2.18v6.71a2.18,2.18,0,0,0,2.17,2.18h5.13a2.19,2.19,0,0,0,2.18-2.18V3.55A2.19,2.19,0,0,0,34.57,1.37Z"/><path class="cls-5" d="M10.84,4.9V3.55A2.18,2.18,0,0,0,9.27,1.46,16.77,16.77,0,0,0,10.84,4.9Z"/><path class="cls-5" d="M6.16,9.72V6.4l-.06.08A11.71,11.71,0,0,1,3.82,1.37,2.22,2.22,0,0,0,1.36,3.55v6.71a2.19,2.19,0,0,0,2.18,2.18h4.8A2.5,2.5,0,0,1,6.16,9.72Z"/><path class="cls-5" d="M36.75,4.9V3.55a2.18,2.18,0,0,0-1.58-2.09A16.58,16.58,0,0,0,36.75,4.9Z"/><path class="cls-5" d="M32.07,9.72V6.4L32,6.48a11.79,11.79,0,0,1-2.29-5.11,2.21,2.21,0,0,0-2.45,2.18v6.71a2.18,2.18,0,0,0,2.17,2.18h4.8A2.5,2.5,0,0,1,32.07,9.72Z"/><path class="cls-3" d="M8.67,13.8H3.54A3.54,3.54,0,0,1,0,10.26V3.55A3.56,3.56,0,0,1,3.82,0,1.36,1.36,0,0,1,5.16,1.16,9.52,9.52,0,0,0,6.1,4,9.24,9.24,0,0,0,7,1.16,1.37,1.37,0,0,1,8.39,0,3.56,3.56,0,0,1,12.2,3.55v6.71A3.53,3.53,0,0,1,8.67,13.8ZM2.84,3.14a.73.73,0,0,0-.12.41v6.71a.83.83,0,0,0,.82.82H8.67a.82.82,0,0,0,.81-.82V3.55a.81.81,0,0,0-.11-.41A13.3,13.3,0,0,1,7.15,7.35a1.36,1.36,0,0,1-2.09,0A13.08,13.08,0,0,1,2.84,3.14Z"/><path class="cls-3" d="M34.57,13.8H29.44a3.53,3.53,0,0,1-3.53-3.54V3.55A3.56,3.56,0,0,1,29.72,0a1.37,1.37,0,0,1,1.35,1.15A9.24,9.24,0,0,0,32,4,9.52,9.52,0,0,0,33,1.16,1.36,1.36,0,0,1,34.29,0a3.56,3.56,0,0,1,3.82,3.54v6.71A3.54,3.54,0,0,1,34.57,13.8ZM28.74,3.14a.81.81,0,0,0-.11.41v6.71a.82.82,0,0,0,.81.82h5.13a.83.83,0,0,0,.82-.82V3.55a.73.73,0,0,0-.12-.41,13.08,13.08,0,0,1-2.22,4.21,1.36,1.36,0,0,1-2.09,0A13.3,13.3,0,0,1,28.74,3.14Z"/><path class="cls-3" d="M8.18,20.44H5.05A1.37,1.37,0,0,1,3.7,19.26l-.9-6.63a1.37,1.37,0,0,1,1.34-1.55h4a1.36,1.36,0,0,1,1.36,1.36v6.64A1.36,1.36,0,0,1,8.18,20.44ZM6.24,17.72h.58V13.8H5.7Z"/><path class="cls-3" d="M13.77,20.44H5.05a1.36,1.36,0,0,1,0-2.72h8.72A1.36,1.36,0,0,1,13.77,20.44Z"/><path class="cls-3" d="M33,20.44H29.88a1.36,1.36,0,0,1-1.36-1.36V12.44a1.36,1.36,0,0,1,1.36-1.36h4a1.38,1.38,0,0,1,1.35,1.55l-.91,6.63A1.37,1.37,0,0,1,33,20.44Zm-1.77-2.72h.58l.54-3.92H31.24Z"/><path class="cls-3" d="M33,20.44H24.29a1.36,1.36,0,0,1,0-2.72H33A1.36,1.36,0,0,1,33,20.44Z"/><path class="cls-3" d="M22,53.38a3.55,3.55,0,0,1-1.48-.32,3.61,3.61,0,0,1-3,0,3.61,3.61,0,1,1,0-6.59,3.61,3.61,0,0,1,3,0A3.61,3.61,0,1,1,22,53.38ZM20.53,50.1c.62-.06.85.52,1.48.56a.9.9,0,1,0-.59-1.57,1.34,1.34,0,0,1-1.78,0,.89.89,0,0,0-1.17,0,1.34,1.34,0,0,1-1.78,0,.89.89,0,1,0,0,1.35,1.34,1.34,0,0,1,1.78,0,.92.92,0,0,0,1.17,0A1.36,1.36,0,0,1,20.53,50.1Z"/><path class="cls-4" d="M22,47.51a2.23,2.23,0,0,0-1.48.56,2.26,2.26,0,0,0-3,0,2.25,2.25,0,1,0,0,3.39,2.26,2.26,0,0,0,3,0,2.25,2.25,0,1,0,1.48-4Z"/><path class="cls-4" d="M16.1,47.51a2.23,2.23,0,0,1,1.48.56,2.26,2.26,0,0,1,3,0,2.26,2.26,0,0,1,1.52-.56l.44-13.38a4.52,4.52,0,0,1-6.87,0l.44,13.38Z"/><path class="cls-3" d="M22,53.38a3.55,3.55,0,0,1-1.48-.32,3.61,3.61,0,0,1-3,0,3.61,3.61,0,1,1,0-6.59,3.61,3.61,0,0,1,3,0A3.61,3.61,0,1,1,22,53.38ZM20.53,50.1c.62-.06.85.52,1.48.56a.9.9,0,1,0-.59-1.57,1.34,1.34,0,0,1-1.78,0,.89.89,0,0,0-1.17,0,1.34,1.34,0,0,1-1.78,0,.89.89,0,1,0,0,1.35,1.34,1.34,0,0,1,1.78,0,.92.92,0,0,0,1.17,0A1.36,1.36,0,0,1,20.53,50.1Z"/><path class="cls-3" d="M20.53,49.43c-.62.06-.85-.52-1.48-.56a.89.89,0,0,0-.58.22,1.34,1.34,0,0,1-1.78,0,1,1,0,0,0-.56-.22,1.36,1.36,0,0,1-1.43-1.31l-.44-13.38a1.36,1.36,0,0,1,2.35-1,3.35,3.35,0,0,0,2.44,1.17A3.36,3.36,0,0,0,21.5,33.2a1.36,1.36,0,0,1,2.35,1l-.44,13.38A1.37,1.37,0,0,1,22,48.87C21.37,48.93,21.13,49.49,20.53,49.43Zm-4.47-1.92Zm3-1.36a3.55,3.55,0,0,1,1.48.32l.19-.08.33-9.66a5.71,5.71,0,0,1-4,0l.33,9.66.19.08A3.54,3.54,0,0,1,19.05,46.15Z"/><path class="cls-3" d="M22.28,41.1H15.83a1.37,1.37,0,0,1,0-2.73h6.45A1.37,1.37,0,0,1,22.28,41.1Z"/><path class="cls-3" d="M21.83,45.05H16.28a1.36,1.36,0,0,1,0-2.72h5.55A1.36,1.36,0,0,1,21.83,45.05Z"/><path class="cls-3" d="M1.73,29.22a1.37,1.37,0,0,1-1-2.32l4.62-4.62a1.37,1.37,0,0,1,1-.4h7a1.36,1.36,0,0,1,0,2.72H6.91L2.69,28.82A1.36,1.36,0,0,1,1.73,29.22Z"/><path class="cls-3" d="M4.38,33.25a1.37,1.37,0,0,1-1-2.32L7,27.37a1.35,1.35,0,0,1,1-.4h5.41a1.36,1.36,0,0,1,0,2.72H8.51L5.35,32.85A1.36,1.36,0,0,1,4.38,33.25Z"/><path class="cls-3" d="M8.44,36.56a1.37,1.37,0,0,1-1-2.32l2.31-2.31a1.37,1.37,0,0,1,1-.4h3.5a1.37,1.37,0,0,1,0,2.73H11.32l-1.91,1.9A1.36,1.36,0,0,1,8.44,36.56Z"/><path class="cls-3" d="M36.38,29.22a1.36,1.36,0,0,1-1-.4L31.2,24.6H24.76a1.36,1.36,0,0,1,0-2.72h7a1.39,1.39,0,0,1,1,.4l4.62,4.62A1.37,1.37,0,0,1,36.38,29.22Z"/><path class="cls-3" d="M33.73,33.25a1.36,1.36,0,0,1-1-.4L29.6,29.69H24.76a1.36,1.36,0,0,1,0-2.72h5.41a1.35,1.35,0,0,1,1,.4l3.56,3.56A1.37,1.37,0,0,1,33.73,33.25Z"/><path class="cls-3" d="M29.67,36.56a1.36,1.36,0,0,1-1-.4l-1.91-1.9H23.85a1.37,1.37,0,0,1,0-2.73h3.51a1.39,1.39,0,0,1,1,.4l2.31,2.31A1.37,1.37,0,0,1,29.67,36.56Z"/><path class="cls-3" d="M21.13,21.25a1.37,1.37,0,0,1-1.31-1.72,16.33,16.33,0,0,1,3.91-6.44A1.36,1.36,0,1,1,25.67,15a13.53,13.53,0,0,0-3.22,5.25A1.38,1.38,0,0,1,21.13,21.25Z"/><path class="cls-3" d="M17.15,21.25a1.38,1.38,0,0,1-1.32-1A13.68,13.68,0,0,0,12.61,15a1.36,1.36,0,1,1,1.94-1.91,16.33,16.33,0,0,1,3.91,6.44A1.36,1.36,0,0,1,17.15,21.25Z"/></g></g></g></svg>