<svg id="svg3323" xmlns="http://www.w3.org/2000/svg" viewBox="0 0 254.1 332.7"><defs><style>.cls-1{fill:#beb393;}.cls-2{fill:#a39b82;}.cls-3{fill:#e3d69e;}.cls-4{fill:#4d4d4d;}.cls-5{fill:#675c3e;fill-opacity:0.3;}.cls-6{fill:#dbd2ad;}.cls-7{fill:#373328;}.cls-8{fill:none;stroke:#373328;stroke-linecap:round;stroke-linejoin:round;stroke-width:32.02px;}.cls-9{fill:#efede3;}.cls-10{fill:#fff;}</style></defs><title>bear 08</title><g id="layer1"><path id="rect2985-4-3" class="cls-1" d="M30.6,6.2C10.4,18.3,3.6,43.7,15.3,63.3l30.8,57.4c19.7-18.2,53-37.6,78.8-45.8L88.4,19.5C75.7-1.6,49.6-4.8,30.6,6.2Z"/><path id="rect2985-4-3-7" class="cls-2" d="M34.5,14.4C19.6,23.3,14.6,42.1,23.3,56.5L42.6,88.4A257.28,257.28,0,0,1,96.8,56.9L77,24.2A29.78,29.78,0,0,0,53.7,9.8,32.77,32.77,0,0,0,34.5,14.4Z"/><path id="path3862" class="cls-1" d="M220.6,6.5c-20.5-11.5-46-4.8-57.1,15.2L129.1,76.9c25.5,8,59,27.2,78.9,45.6l29.8-59.3C249.8,41.8,239.6,17.5,220.6,6.5Z"/><path id="path3864" class="cls-2" d="M215.3,14.9c-15.2-8.5-33.9-3.5-42.1,11.2L155.1,58.7a254,254,0,0,1,54.4,31.4L228,56.6a29.54,29.54,0,0,0,.8-27.4A32,32,0,0,0,215.3,14.9Z"/><path id="path3755" class="cls-1" d="M221.1,202.9c-35.7,33.4-150.9,33.2-186.5-.5C-.7,168.7,11.5,82.6,47.2,49.1s126.9-33.2,162.4.5S256.9,169.3,221.1,202.9Z"/><path id="path3011" class="cls-1" d="M189.7,317.4c-16.2,13.2-104.1,13.2-120.3,0s-31.1-68.9,0-98.2c39.7-38,86.1-40.8,120.3,0C214.9,251.4,205.9,304.2,189.7,317.4Z"/><path id="rect4242-2" class="cls-3" d="M193.7,272v8.3c0,18.2-28.9,33-64.6,33S65,298.5,65,280.3V272c0-18.3,28.3-33,64.1-33S193.7,253.7,193.7,272Z"/><g id="g4323"><g id="g4299"><path id="path4301" class="cls-1" d="M242,289.44c12.35-6.79,15.9-25,7.68-40.85l-40.34-71.81c-12.08,11.55-29.9,32.26-29.51,52.13l25,45C213.63,290.7,230.33,295.63,242,289.44Z"/><g id="g4303"><path id="path4305" class="cls-4" d="M228.32,283.18c.59,2.35,3.22,3.58,5.87,2.73s4.32-3.45,3.73-5.81v0l-4.79,1.58Z"/><path id="path4307" class="cls-4" d="M217.28,283.09a4.1,4.1,0,0,0,4.42,4.45,5.47,5.47,0,0,0,5.38-4.6v0l-4.9.11Z"/><path id="path4309" class="cls-4" d="M247.79,273.05a3.8,3.8,0,0,0,5-.76,3.12,3.12,0,0,0-.14-4.65l0,0-2.4,2.73Z"/><path id="path4311" class="cls-4" d="M247.07,273.55c1.39,2,.62,4.84-1.7,6.41s-5.33,1.24-6.71-.73l0,0,4.23-2.81Z"/></g></g><path id="path4313" class="cls-5" d="M228.81,160.69c-14,6.23-27.38,14.5-35.61,26.64-4.2,5-2.91,11.06-2.2,16.62,2.16,16.05,2.44,32.45,5.57,48.18,2.34,8.87,9.53,17.73,19.37,20.61-12-.38-23.68-11-25-28.36l-5.07-49.76C192.61,177.93,213.76,166.75,228.81,160.69Z"/></g><g id="use4333"><g id="g4337"><path id="path4339" class="cls-1" d="M12.36,289.68C-.06,283-3.82,264.88,4.22,248.91l39.51-72.28C55.94,188,74,208.54,73.83,228.41L49.34,273.68C40.74,290.61,24.1,295.73,12.36,289.68Z"/><g id="g4341"><path id="path4343" class="cls-4" d="M26,283.25c-.56,2.37-3.17,3.62-5.83,2.8s-4.37-3.39-3.8-5.76v0l4.81,1.52Z"/><path id="path4345" class="cls-4" d="M37,283a4.1,4.1,0,0,1-4.37,4.51A5.47,5.47,0,0,1,27.2,283v0l4.9.06Z"/><path id="path4347" class="cls-4" d="M6.38,273.36a3.82,3.82,0,0,1-5-.71A3.12,3.12,0,0,1,1.46,268l0,0,2.43,2.7Z"/><path id="path4349" class="cls-4" d="M7.1,273.85c-1.36,2-.56,4.85,1.78,6.39s5.34,1.18,6.7-.81l0,0-4.26-2.76Z"/></g></g><path id="path4351" class="cls-5" d="M49.68,181.86c10.55,11.14,19.71,23.9,22.64,38.27,2,6.21-1.56,11.33-4.35,16.19-8.16,14-14.72,29-23.65,42.34-5.57,7.29-15.61,12.71-25.8,11.58,11.26,4.29,26.09-1,34-16.57l23.78-44C76.48,211.68,61.25,193.24,49.68,181.86Z"/></g><path id="path3886" class="cls-6" d="M130.1,132.3c-47.7,0-88.4,18.1-103.6,60.3a54.86,54.86,0,0,0,8.1,9.8c35.6,33.7,150.9,33.9,186.5.5a59.8,59.8,0,0,0,11-14.4C215.7,148.5,176.3,132.3,130.1,132.3Z"/><path id="path3867" class="cls-7" d="M155.2,140.8c-5.9-10-43.9-9.7-49.6.3s13.5,32.2,25.1,32.1S161.1,150.7,155.2,140.8Z"/><path id="path3869" class="cls-8" d="M130.62,174.3c0,9.32-7.33,17.34-17.49,19.16"/><path id="use3871" class="cls-8" d="M130.58,174.3c0,9.32,7.33,17.34,17.49,19.16"/><g id="g4460"><path id="path3893" class="cls-9" d="M79.44,132.7a22.57,22.57,0,1,1-22.56-22.56A22.56,22.56,0,0,1,79.44,132.7Z"/><path id="path3893-0" class="cls-7" d="M76.73,133.61a19.15,19.15,0,1,1-19.15-19.14A19.14,19.14,0,0,1,76.73,133.61Z"/><path id="path3893-1" class="cls-10" d="M67.76,125.86a3.52,3.52,0,1,1-3.51-3.5A3.5,3.5,0,0,1,67.76,125.86Z"/></g><g id="g4455"><path id="path3893-8" class="cls-9" d="M225.94,132a22.57,22.57,0,1,1-22.56-22.56A22.56,22.56,0,0,1,225.94,132Z"/><path id="path3942" class="cls-7" d="M221.43,133.61a19.15,19.15,0,1,1-19.15-19.14A19.14,19.14,0,0,1,221.43,133.61Z"/><path id="path3944" class="cls-10" d="M212.36,125.86a3.52,3.52,0,1,1-3.51-3.5A3.5,3.5,0,0,1,212.36,125.86Z"/></g><g id="g4240"><path id="path3011-6" class="cls-1" d="M79.2,260.4a45.12,45.12,0,0,0-43.4,33.5c.5,14,2.8,27.1,7.2,31.5,9.7,9.7,62.4,9.7,72.1,0,4.4-4.5,6.8-18,7.2-32.4A45.09,45.09,0,0,0,79.2,260.4Z"/><path id="rect4242-7" class="cls-3" d="M73.6,292h6.1c13.5,0,24.4,7.6,24.4,16.9s-10.9,16.7-24.4,16.7H73.6c-13.4,0-24.3-7.4-24.3-16.7S60.2,292,73.6,292Z"/><path id="path3858" class="cls-1" d="M182.9,260.4a45.12,45.12,0,0,1,43.4,33.5c-.5,14-2.8,27.1-7.2,31.5-9.7,9.7-62.4,9.7-72.1,0-4.4-4.5-6.8-18-7.2-32.4A45.09,45.09,0,0,1,182.9,260.4Z"/><path id="path3860" class="cls-3" d="M188.3,292.6h-6.1c-13.5,0-24.4,7.6-24.4,16.9s10.9,16.7,24.4,16.7h6.1c13.4,0,24.3-7.4,24.3-16.7S201.7,292.6,188.3,292.6Z"/><g id="g4059"><path id="path3967-3-5" class="cls-4" d="M86,284.14a8.72,8.72,0,0,0-17.43,0v.08l8.71-.08Z"/><path id="path3967-3-5-2" class="cls-4" d="M104.55,290.85A8.72,8.72,0,0,0,88,285.31l0,.08,8.29,2.69Z"/><path id="path3967-3-5-1" class="cls-4" d="M49,291.35a6.33,6.33,0,0,0-10.45,7.15l0,0,5.18-3.62Z"/><path id="use4055" class="cls-4" d="M50.45,290.85A8.72,8.72,0,0,1,67,285.31l0,.08-8.29,2.69Z"/></g><g id="use4065"><path id="path4069" class="cls-4" d="M176.47,284.14a8.72,8.72,0,0,1,17.43,0v.08l-8.71-.08Z"/><path id="path4071" class="cls-4" d="M158,290.85a8.72,8.72,0,0,1,16.54-5.54l0,.08-8.29,2.69Z"/><path id="path4073" class="cls-4" d="M213.46,291.35a6.33,6.33,0,0,1,10.45,7.15l0,0-5.18-3.62Z"/><path id="path4075" class="cls-4" d="M212.05,290.85a8.72,8.72,0,0,0-16.54-5.54l0,.08,8.29,2.69Z"/></g></g></g></svg>