<svg id="Layer_1" data-name="Layer 1" xmlns="http://www.w3.org/2000/svg" viewBox="0 0 1444 1438.8"><defs><style>.cls-1{fill:#e1e3d1;}.cls-2{fill:#271f0d;}</style></defs><title>bear 02</title><path class="cls-1" d="M743.15,4.69c-2.38-.07-4.56,3.32-1.28,3.84,1.08.38,7,1,4.41,2.83-4.76,2-12.2,5.36-10.76,11.78,9.41,4.89,20.2,10.21,25.37,19.73-2.25,3-5.3-1.53-6.91-3.13-11.18-10.53-28.09-17.88-43.27-12.35-3.1,1.25-7.47,5.16-10.14,3.81C708.35,21,725.5,27.39,732.51,16c1.12-2,4.13-9,.22-5.41C710.84,25,682.73,23.35,660.47,37c-19,9.92-35.25,24.17-50.62,38.91-11.77,8.35-26.8,4.2-40.14,5.9-21.55,7.09-41.87,17.63-64,23.07-30.28,10.4-51.5,36.44-80.16,49.79,14.7,6,31.76,3.35,45.76,11.27-21.68.45-42.56-10.4-64.39-6.41-12.71.42-28.08-3.58-38.4,6.28,2.63,5.94,10.14,2.47,14.39.73,3.65-1.09,8.92-4.33,12.24-1.45-1,3.27-8.56.4-8,4.54,4.69,3.84,11.49.33,17,.42,13.63-1.85,27.63-4.55,41.23-1.85-7.28,3.3-18.88.26-23.06,8.89,3.9,1.71,10.87.79,16,.28,11.28-1.37,23-4.53,34.14-.75-18,4.18-36.78,2.45-54.74,6.55-5.8-.48-5.09-8.33-1.06-10.81-12.59-1.38-24.93,5.35-37.11,3.47.72-3.59,6.24-4.13,7.59-7.69-7.28,3.73-17.54.47-23.26,7.16-1.95,2.89,4.37,2.68,6.41,3.77a42.71,42.71,0,0,1,8.34,2.76c-4.51,2-10.76,6.7-8.38,12.31,9.84,9,25.61,7.68,35.82,14.12-5.62,1.52-12.95-5.48-17.63.06,14.15,8.26,31.2,8.64,46.05,14.51,3,1.24,1.23,3.59-1.12,2.8-6.72-.77-14-8.39-20.71-3.44-4.37,2.61,3.18,3,5.43,4.14,15,4.65,31.35,6.43,45.53,12.15-4.28,2.5-10.34-3.24-14.58-.12-1.57,1.59,2.47,4.69-1,3.81-18-.13-38.23-7.59-46.22-24.91-5.47-4.62-14-4.36-18.77,1.19-5.54,5.74-9.55,12.86-15.31,18.35C343,275.56,311.4,310.76,295.47,354.56c-7.77,20.85-15,41.9-24.52,62-7.71,20.52-13.48,41.9-24.07,61.18-15.39,47.07-50.59,83.63-74.39,126.27-23.52,31.78-38.1,71-37.21,110.77,9.72-6.55,8.65-20,15.74-28.44-3.68,22-11,43.19-16.16,64.88,4.91,1.59,5.74-5.76,7.65-8.54.75-1.54,2.36-5,4.44-3.12-6.54,20.09-15.07,40-16.37,61.34,7.4-3.19,10.44-13,16.11-16.55-2.91,13.8-11.15,26.21-11.2,40.68-2.82,21.5-10.83,42.24-11.47,64.12,7.62-6.91,7.35-18,12.69-26.26-17.71,68-30,138.08-27.36,208.54-6.57,31.11-17.91,61.6-18.18,93.81-2.27,40.21-4.9,80.46-7.51,120.63.51,6,.76,12.61,3.32,17.81,8.12,3.63,16.76-3.35,25-1.06-29.44,6.48-57.83,19.2-81.44,38-17.06,16.44-30.36,40.73-24.73,65,0,5.58,6.48,1.91,10.11,2.17,76.28-9.6,149.61-35.72,226.38-41.89,9-7.28,1-23.13,12.15-28.73,5.9-2.44,15.39-3.06,16.67-11,4.28-17.49-3.87-34.66-4.41-52,.32-10.7,1.79-22-1.41-32.34,5.49,1.87,6.51-1,5.63-6,.12-21.83-.61-45.78,11.64-64.72,2.44-.5,8,4.19,7.14-.48a154.33,154.33,0,0,1,16.42-81.6c5.46,2.6,5.12,12.41,12.2,12.61-1.16-29.76,1.17-59.86,7.88-88.73,6.32-.47,7,7.93,10.08,11.82,1.09,2.07,5.83,5.29,4.31.76-2.42-30.78,0-62.77,13.39-91-7.63-16.4-18-31.81-21.72-49.75-1.5-5.11-5.66-10.32-3.88-15.81,10.28,33.22,28.1,63.44,45.71,93.16a504.9,504.9,0,0,1,38.84,50.7c-2.69-2.13-5.33-5.66-9.24-4.81-.72,43.07-3.42,88.67,15.71,128.61-.71,2.88-4.82,4.53-4,8.24-6.48,45.19-12.77,90.82-10.17,136.6,31.2-.38,61.33-11,91.64-15.78-33.12,17.39-74.23,9.41-106.23,29.95-5,3-9.09,7.55-13.38,11.19-19.13,4.22-30.66,24.69-30.69,43.29,49.37-8.16,99.57-8.73,149.32-13.67,39.09-1.13,78.79-9.18,117.36.07,7.13-.46,7-9.7,10-14.39,8.39-15.24-.23-32.4-3-47.86-2-18.82-.81-38,.14-57,2.89-43,14.49-88,45.44-119.75,7.87-3.79,7.41-14,4.83-21a188.11,188.11,0,0,1-10-41.72,188.64,188.64,0,0,0-6.29-29.24c3.16-.19,6.79-.28,4.57-4.17-3-11.31-11.1-21.32-11.47-33,10-1.56,16,8.8,23.44,13.53,4.11,3.51,5,1.59,3.36-3.06-3.52-17.29-12.28-33.46-16.43-50.15,4.3-.41,7,4.22,11.28,4.57-2.72-13.91-12-25.47-15.53-38.92,8.2,17,15,37,32,47.38-5.76,5.21-12.53-1.88-17.27-5.09a22.87,22.87,0,0,0-8.82-4.18c8.59,18.74,13,39.17,22.44,57.56-13.11-.17-18.54-16.95-31.71-17.38-3.11-.26.87,4.49,1.55,6.54,4.85,8.82,12.07,17.75,11,28.39-6.94,3.6-4.21,12.72-2,18.43,1.74,3.62.94,8.73,6,9.59,31.1,16.77,60.77,36.38,92.56,51.78,3.88.23,1.07-4.58-.31-5.92-1.74-1.85-2.57-4.9.57-1.67,8.45,8.14,15.55,18.92,27.32,22.75,1.43.81,7.16,2.17,3.08,3.64-5.14,4.58-12-5.8-16.83-.08-16.59,26.18-35.28,53-39.22,84.52-1.37,9.81-7.85,18.2-7.44,28.34.1,7.55-2.5,15.17-8.83,19.71a150.77,150.77,0,0,0-32.54,51c9.1,7,23,9,28.25,20.14.65,1.62,1.27,6.76-1.19,3-7.1-7.24-15.6-18.06-27-15.91-2,2.59-8.11,5.29-8.15-.09,1.29-4.46-1.4-4.32-5-3.38-14.4,2.56-27.08,10.31-40.75,15.06-3,8.87-3.56,18.41-7.44,27,32.56,5.25,65.1,12.32,98.24,12.11-.07-6.66,10.6-10.78,13.47-3.95.76,2.94-.13,5.93,4.31,5A556.27,556.27,0,0,1,836.53,1367c12.71,1.82,25.24-2.71,37.54-5,9.63-4.78,9-17.15,8-26.2-1.69-9.14,3.22-17.67,3-26.86,1-16-.72-35.17,12-47.3,8.69-6.91,17.69-13.63,28.22-17.61-.62,5.44-6.49,11.5-1.89,16.73,1.78,2.11,5,5.77,5.31.67,7.21-19.5,13.15-41.14,28.92-55.59-1.08,4-4.33,6.94-5.69,10.83,11.29,4.16,9.93,20.87,21.36,24.81,3.74-28.78,1.29-60.54,19-85.23,4.12-3.46,1.42-4.81-2.89-5.72-25.36-8.51-53.15-14.56-75.59-28.3,24.12,3.82,44.77,19.12,69.17,21.9-12.32-9.76-25.2-19.15-35.22-31.39,16.3,10.33,28.46,28.14,48.14,32.59,4.45-1.17,8.34-6.94,4-10.57-.68-1.25-5.82-3.41-1.6-2.34,8.66,2.69,16.22,9.53,25.83,8.55,10.21,1.29,19.75,7.57,30.4,7.85-5.31-8.94-17.41-13.46-22.5-21,4,2,9.28,8.16,13.78,3.77,2.2-2.39,6.09,1.38,9,1.47,5.35,1.62,11,2.68,16.6,1.85-.35-5.63-6.39-10.2-4.87-15.81,13.52,26.33,26.52,53.82,41.6,79.67,6.65-3.16.14-11.17,1.87-16.17,1.66-1.49,2.43,3.76,3.65,5,9.17,18.2,16.29,37.55,27.78,54.5,4,.06,4.35-4.59,2.18-7-1.66-1.2-.86-4.94,1.2-2.81,10.72,11.38,16.83,26,25.31,39,1.64-4.18,1-10.08,2.36-13.51,4.81,14.13,16.44,24.22,24.62,36.3,3.25-9.3-2.27-19.71,2.44-28.56,1.43,12.79,3.54,28,15.33,35.59,8.52-7.09,22-.31,24.17,9.86,8.29,11.15,7.32,25.75,12.3,38.28,9.74,2,21-2.25,29.44,4.18-22.18-1.68-42.05,10.61-61.81,18.68-17.39,10.58-32,30-30,51.19.66,3.63,1.13,8.56,3.64,10.83,74.71-.73,145.68-27.73,218.45-40.45,9.25-.75,19.75,1.51,27.76-4.48-7-8.85,4.87-20-1.13-29.31-11.65-27.46-23.71-54.89-31.91-83.6-3.53-7.85-13.38-12.07-15.32-20.37,7.27,3.57,9.84,14.45,19.1,14.74.41-1.43-5.35-6.36-7.32-9.35a253,253,0,0,1-35.84-59.44c.48-1.25,3.55,2.71,4.68,3.46,1.26,1.32,5.64,6.21,6.22,2.07-3.62-9.09-10.82-16.44-15.6-25-14.42-22.31-28.47-48.43-27.34-75.09,4.66,6.24,5.29,14.84,11.39,20.2-.42-14.29-6.71-28.14-8.16-41.8,2.13.78,3.48,5.67,6.75,3.7.8-3.53-2.36-9-2.76-13.43-2.85-14.29-5.49-30-12.13-42.5,7.21.67,4.94,12.51,12.24,13.61,4.38,1,1-5.35,1.2-7.94-3.76-18.87-12.41-36.36-17.86-54.67-21.39-34.2-33.53-74.75-54.43-108.27,16.86,14.64,18.75,39,31.94,56.37,7,17.47,15.31,34.87,27.92,49.08,2.1-7.42-4-15.38.45-22.31-1.33-6.53-8.68-11-10.12-16.64,4.32,1.1,5.88,6.25,9.89,8.07,2.63-19-8.21-36.15-14.27-53.31-16.94-33-31.76-69.76-62.47-92.69-9-5.69-13.5-18.61-25.38-19.39,4.28,8.15,8,16.61,10.17,25.65-17-28.15-23.39-61.71-43.62-88.15-19.16-26.88-44-48.89-66.57-72.77-14.18-13.87-30.74-25-47.45-35.49-35.46-20.25-76.61-25.92-115.37-36.82-25.93-3.18-52-11.24-78.29-6.05-34.22,4.42-67.81,15.08-102.45,14.31-13.71-1-28.18-4-41.45,1.32,9.54,7,20.39,12.31,28.67,20.9-36.2-21.42-68.63-52-110.83-61.27a123.8,123.8,0,0,0-20-2.39c1.46-2.71-1.29-5.7-.93-8.17,5.35.3,7.46.69,2-3.32-8.14-7.3-15.56-15.34-23.59-22.75,5.58,1.65,10.88,4.13,16.45,6-9.08-15.06-24.5-24.53-35.89-37.56-2.32-2.52-5.94-.41-5.55,2.78-.84,5.79,2,14.27-2.65,18.21,1.45-15.19-1.88-32.18,7.47-45.38,4.44-4.48,2.69-11.86,4-17.68,1.08-10.57,1.42-22.07,5.3-31.72,3.64,2.15,2.55,7.72,6,10.3,7.71-15-2.39-34.48,9.75-47.67,3.45-4.56,3-12,9.17-14.15,7.66-5.71,5.56-18.85,14.94-22.52,5.3.26,5.36-6.64,8.67-9.82,8.31-11.77,20.07-21.46,28.15-33,1,2.36,1,8.86,5.2,7.28,5.11-3.8,6.42-11,9.35-16.44,5.82-13.71,9.66-28.47,16.36-41.66,12.31-5.41,15.19-20.33,21.37-30.91a45.25,45.25,0,0,1,4.38-6.77c.84,2.44,4.15,3.36,5.06.4,9-12.94,19-25.56,25.4-40,2.37-7.53,1.58-19.17-7.37-21.8-6.39-.92-12.82-3-19.39-1.31-9.25,1.72-19.82,4.84-28.26-.93-9.56.54-22.34.76-28.13-8.45-4.69-8.88,3.86-17.67,10.91-22.17,8-5.38,18.22-7.07,26.16-12,9.66-11.59,28.21-15.06,33-30.73,1.59-5.07.88-15.15,7.88-15.07,2.6,11.38,1.71,24.58,10.37,33.71,4.23,6.71,2.27,15.2-1.64,21.55,10.43-4.74,13.39-17.33,11.16-27.68-1.52-9.74-5.14-19.12-6.23-28.86-1.84-4.88-9.36-3-11.76-4.1,3.5-2.62,11.56-1.51,11.72-7.61a16.42,16.42,0,0,0-7.66-19.63C763.78,9.39,753,7.58,743.24,4.57ZM566.06,103.14c7.08,0,17.58,3,17.42,11.7-14.3,5.36-26,15.7-40,21.63,9.4-8.42,22.31-12.24,30.49-22.23-7.79-3.87-19.84-4.29-24,4.93-1.9,3.1-1.49,9.07-6,9.47-6.27-12.89,10.21-26.16,22.07-25.5Zm21.88,24.06c3.3,3.07-.67,7-3.64,8.42-8.09,6.36-16.25,12.9-25.74,17.08,9-9.2,17.88-19.56,29.38-25.5Zm-9.58,22.9c3.08.25,2.84,4.2-.15,4.51-13.25,7-21.65,20.73-35.68,26.45,10.34-11.61,21.85-23,35.35-31h.24l.24,0Zm-5.13,19.44c-4.68,13.12-18.34,19-28.36,27.21-2.71,2.73-4.87,6.52-8.83,7.56,8.06-15.36,24.38-23.42,36.71-34.74.09,0,.5-.21.48,0ZM433.85,247.43c-.64,2.37-2.73,4.56.47,5.74,4.1,1.79,10.41-2,13.15,1.67-7.43-.35-15.88,3.89-22.26-1.06,0-4.11,5.9-4.89,8.64-6.35Zm12.22,13.07c-1.95,3-9.8,3.85-5.91,7.64,3,3.39,9.6,2.18,11.66,5.91-1.39,3.88-8.5,5.05-7.86,9,1.64,2.42,6.33,1.41,7.42,3.5-2,2.31-7.11,4-5.16,8.05.3,1.69,4.19,4.74.86,3.39-2.58-.09-5-1.87-3.39-4.69s0-6.56-3.5-6.53c-4.92-2,.33-7,3-8.32,5.08-1.86-.55-6.39-3.81-6.29s-8.86-2.8-5.21-6.41c3.09-3,7.66-4.34,11.89-5.22Zm8.08,46.79c1.83.23,11-.33,6.89.89-5.17,1-11.49,3.24-16.21.41,1.39-2.2,6.7-.79,9.32-1.3ZM585.73,482.88c-.67,7.21-4.15,14.21-1.82,21.49,1.06,5.86,4.7,13.83-.91,18.51C582.91,509.63,580.32,495.22,585.73,482.88Zm-7.14,30c-.59,5.36-2.58,10.64-.77,16.07.36,5,4.66,12.41-.24,16.23-3.56-10-4.49-23.17,1-32.3ZM285.77,721.69c17.6,24.34,36.6,48.86,62.21,65.15,4.71,4.67-2.86-.69-4.6-1.76-25.17-16.58-47.48-39-60-66.62l2.36,3.23Zm5.39,32.15c15,15.66,18.59,39.35,35.32,53.95a340.92,340.92,0,0,0,32.38,28.62c-33.42-16.15-55.21-49-68-82.81l.26.24Zm342.45,19.34c11.94,18.37,23.14,37.8,33.48,56.73-6.1,4.2-12-3.25-17-5.92-3.13-2-6.87-3.77-10.69-3-2.74-4.38,4.43-5.38,6.6-2.69,4.2,2.54,8.1,6.76,13.42,6.43-10-16.58-17.45-34.36-25.92-51.76l.14.21ZM301.12,806c4.06.91,2.24,6.34,4.6,8.92,11.64,26.37,36.38,43,56.21,62.69-24.57-17.68-50.71-38.07-60.73-67.77.12-1-2.35-4.44-.08-3.84Zm343.46,29.56c6.3,14.86,15,28.54,22.8,42.56,1.85,5.45-5.8,4.6-8.81,3.23-3.82-1.38-7.72-3.49-9.89-7.06,4.08.93,9.15,5.55,13.25,2.63,2.65-5.61-4.06-10.42-5.79-15.31a201.05,201.05,0,0,1-12.84-29c.42,1,.85,2,1.28,2.95Zm320.26,81c27.67,26.51,56.28,52.62,89.38,72.27-14.61-.67-24.72-12.92-36.07-20.58-20.84-16.19-40.63-34.12-56.84-55.08l3.53,3.39Zm15.43,38.24c26.38,19.1,47.17,45.55,75.07,62.55-16.12-6.83-29-19.69-42.75-30.32-11.56-9.81-23.1-20.63-32.32-32.23Zm29.49,64.22c5.27,4.54,7.79,11.6,12,17.1,21.25,32.19,52.56,56.62,84.09,77.53-5.85,3.76-12.15-2.49-17-5.39-31.63-24.47-61-53.43-79.37-89.36l.26.12Zm-236.1,61.81c21.79,8.54,38,27.38,60.34,35-3.37-9.44-10.7-16.74-14.6-25.9,11.77,15.36,21.34,35.3,41,41.91,2.69,1.41-2.76,2.41-3.75,2.54-6.52.66-10.93-5.9-16.52-8.35-22.78-14.53-46.53-27.91-67.1-45.47l.65.25Zm67.72,22.94c22.71,6.58,40.13,24.26,62.18,32.44-1-10.09-12.9-14.62-14.9-24.32,12.56,16.22,25.93,35.24,47.2,40,2,1.81-3.28,3.13-4.38,4.13-31.63-15-62.22-32.3-90.86-52.51l.77.21ZM517,1265.12c1.55-.38,7,1.48,2.82,1.85-4.75.85-9.89,2.22-14.48.17,3.89-.72,7.66-2,11.66-2Z"/><path class="cls-2" d="M745.38,0a14.17,14.17,0,0,0-5.21,1.16C720.74,15,697,19.38,674.4,25.65c-23.59,9.13-44.73,23.9-62.32,42-5.51,5.6-12.7,9.64-20.73,9.85-24.5-4.66-46.47,10.09-68.63,17.81-24.46,6.79-48.79,17.25-67.49,34.88-12.09,10.47-26.42,17.92-41.09,24-14,1.76-28.44-1.08-42.13,3.24-10,4.65-20,24.75-3.05,26.29-13.71,14.57,11.56,17.82,15.09,26.1-22,24.49-39.09,52.59-58.28,79.26-29.87,37.55-40.28,85.14-60.21,127.77-17.1,51-37.86,101.5-71.54,144-26.94,43-61.3,85.57-62.88,138.76-.56,6.61-2.6,20.69,8,17.71-2.29,13.35-13.57,27.81-4.26,40.53-2.58,13.11-8,25.81-8.51,39.28-.65,5.11,3.2,7.75,7.78,6.55-3.43,24.24-8.79,48.08-13.71,72-4.46,9.52,6.87,16.32,2.16,25.44a668,668,0,0,0-17.71,169.12c-7.22,31.68-18.17,62.88-18.35,95.76-.75,46.88-10.2,95-5,140.88-20.16,8.72-41.12,17.36-57.16,32.88-18,18.88-32.21,48.08-19.57,73.12,80.72-7.44,158.48-36.88,239.82-43,9.66-5.6,5-18.64,10.14-27,7-6.4,20.63-3.68,21.22-16.4,3.1-28.4-11.94-58.64-.73-85.76.16-21-.44-43,8.41-62.48,2.7-2.56,10.31.08,10.08-5.44-2.57-25.6,5.18-50.64,12.21-75,4.58,3.12,7.8,14,16,6.24,1.34-26.72.27-54.24,7.13-80.56,4.24,3.36,8.11,14.16,16,6.16-2.48-29.2-.14-60.64,10.83-88.56,11.71,22.8,30.4,40.88,44.08,62.48-3.21,44-1.65,89.52,12.52,132-8.92,49.68-13.64,100.32-12.23,150.88-10.72,1.84-18.37,9.52-26.12,16.4-18,3.12-26,21.28-31.77,36.4-1.84,5.6-1.16,16.16,6.84,15.28,30.48-4.72,61.29-9.2,92.19-9.28,49.57-3.12,99.27-10.08,149.06-7.84,9.78.24,19.46,5.76,29.16,1.84,31.59,6,64.16,11.6,96.64,13.2,10.73,2.8,12.67-15.6,18.64.24a592.05,592.05,0,0,1,102,19.2c13.52-1.44,27.44-2.64,40.56-6.48,17.28-10.48,3.84-32,11.68-47.36-.4-24.16.72-55.12,28-64.4,2.24,6.4,6.24,19.84,15.12,12.08,6-14.48,9.36-30.4,18.16-43.68,8,1.92,8.24,13.68,13.92,19,2.4,7,14.64,5.52,14.48-2.16,1-30.4,3.52-61.6,21.12-87.52,3-15.52,16.72-4.64,26.8-5.28,9.68,1.68,19.68,10.16,29.6,5,4.72-5.92-3.2-12.56-7.92-15.36a47.45,47.45,0,0,0,23,3.84c10.88,20.88,21.28,42.24,33.84,62.24,3,1.36,6.24-.88,9.36-1.12,8.56,15,13.28,32.24,24.64,45.44,20.4-9.12,15.92,33.36,35.52,26.64,9.12,6.72,13,28.32,27.84,21.68,5,8.08,11.76,14.24,21.76,8.24,17.44,9.6,20.08,34.88,22.32,52.08-28.24,9.12-57,26.32-62.8,57.92,3.28,7.2-1.92,25.52,10.24,26,73.84-2.16,144.08-28,216.16-40.48,10-2.8,25.44,2.64,32.24-7.36-3.76-11.28,5.44-22.56-1-33.68-11-27.12-23.68-53.76-31.36-82,2-3.68,4.72-7.6.88-11.6-13.84-14.24-23.52-31.76-33.44-48.8,9.44-6.64-.08-18.4-5.36-24.88-10.56-19.2-26.4-37.52-30.24-59.28,21.44-3.84-7.84-31.6,6.72-39.84-1.28-12.72-6.56-25.52-7.52-38.64,9.52-.16,7.92-10.48,5.52-16.32-3.76-17.36-12.4-33.28-15.36-50.72,8-3,2.72-10.8,2.24-16.8,7.2-30.64-6.8-60.88-20.56-87.6-17.28-42.64-48-79.92-86.08-104.36-13.76-46-46.24-82.39-80.4-114.63a222.65,222.65,0,0,0-50.88-43.25c-36.32-27.17-82.4-32.27-124.8-44.74-21-2.86-41.68-7.86-62.88-8.52C861.6,568,816,586.76,769,579.89c-12-2.29-26.46,7.87-35.93-3-25.78-17.2-53.63-36.11-85.81-36.4,6.22-9.25-6.57-15.68-12.68-20.56.84-2.88,6.73-4.45,2.77-9-10.29-15.79-27.12-26.39-39.18-40.43a22.89,22.89,0,0,1,1.28-8.8c12.62-10.65,5-31.58,10.58-44.33,3.89.73,9.46.69,10.42-4.1,3.33-14.65-2.28-31.76,8.12-44.28A435.37,435.37,0,0,1,682,299.55c4.88-.36,11.23,1.18,14.75-3.51,8.54-16.32,13.33-34.33,20.89-51.09,11.78-8.67,15.52-23.66,24.16-34.93,14.8-11.63,23.6-29.59,33.74-45.4,10.82-4.61,6.59-19.25,5.27-28.22,1.4-11.53-19.17-6.89-18.33-16.86,13.72-4.87,24-16.42,29.89-29.43,1.65-20.44-11.57-39.57-6.74-59.77,1.25-9.35-3.84-19.08-13.77-20.67-9.12-1.4-17.3-9.91-26.47-9.65Zm-1.89,5.62c13.22,5,41.83,7.42,35.88,28.21.6,7.64-12.13,3.5-12.19,9.76,5.1.18,13.69-1.63,12.72,6.85,2.87,15.65,13.85,38.47-2.1,49.72,4-6.87,3.74-15.72-1.57-21.92-7.45-9.05-5.63-21.42-8.79-32-7.22-.8-8.14,8.37-8.9,13.65-3.59,17.78-24,20.56-33.94,33.36-14.37,6.39-32.8,9.77-38.3,27-.61,16.23,18.9,17.64,30.67,16.6,13.53,9.26,29-4,43.57,1.9,12.81-.9,13.44,16.06,9,24.31-7.09,13-15.78,25.13-24.44,37.11-1.76,3.19-3.41-5.3-4.92-.6-8.74,11-12.33,32.68-25.44,36.91-8.72,18.41-13.32,39-23.37,56.61-5.81,5.41-3.63-5.44-6.85-6.72-10.12,15.62-26,25.88-33.93,43.13-13.62.06-9.51,20.38-21.05,24.67-3.59,3.26-3.53,8.92-6.48,12.72-12,12.56-2.82,31.84-9.23,46.38-2.5-2.73-1.89-9.78-6.69-9.46-5.24,15.22-4.44,31.9-7.08,47.68-11.64,10.79-8.31,33.63-9.82,49.6,10.36-.58-1.18-30.81,10.21-20.4,9.89,12.1,23.9,20.24,32.48,33.55-5.82-2-11.4-4.78-17.49-5.9,9.78,8.64,18.5,18.47,28.31,27-9.93-1.49,1.23,6.76-4.53,10.24,53.17-.43,94,41.76,137.54,66.24-7.6-10.53-20.31-16.76-30.85-24.27,15.79-5.5,32.18.24,48.26-.48,37.51-1.88,73.67-13.65,111-16.33,20.72.24,41,5.56,61.6,8,44.4,12.81,92.8,18.29,130.4,47.62,17.52,10.8,32.48,25,46.16,40.25,25.68,25.43,52.24,51.57,67.68,84.82,9.52,21.24,17.2,45.58,29.6,64-.64-8-5.52-20.17-10.08-28.91,10.24,1.68,14.48,13.87,23,18.91,31.12,23.28,45.68,60.64,63,94.08,5.2,16.08,15.36,31.76,13.36,49.28-3.52-2.24-6.08-8.64-10.64-7,1.92,6.72,9.28,11,10.72,17.6-4.24,6.08,1,15.28-.08,19.84-11.6-13.52-19.68-30.56-26.4-47.36-14.08-18.4-16.4-47.76-36.64-59.68,23.52,35.28,35.12,77.52,57.92,113.52,5.28,20.16,16.08,39.36,18.16,60.24-8.24.48-5.36-16.32-15.28-13.28,10.32,16.8,10.16,37.2,16.32,55.68-3.6,2-4.08-6.56-7.68-3,2,13.12,7.28,25.92,8.24,39-5-5.52-5.76-15.92-11.2-19.52-1.84,37,22.08,69.68,42.08,99.76,5.52,12.4-13.84-14.56-9.36-.56,11,23.36,24.48,45.84,41.84,65.12-8.56-1.52-11.2-14.32-18.72-14.64,1.6,11,15.2,14.88,17,25.84,7.92,27.44,19.68,53.52,30.72,79.76,5.68,9.36-5.6,19.92.64,28.64-8.56,5.92-20.4,2.16-30.16,4.32-71.36,13.2-141.28,39.12-214.64,39.84-10-23.28,7.68-49.2,27.76-60.64,20.24-8,40-20.64,62.64-17.76-5.68-9-21.28-4.64-31-6.32-4.8-12.48-3.92-27-12.24-38-2.88-10.56-15.44-17.28-25-10.48-12-8.24-13-24-14.64-36.72-7,6.32-1.36,19.2-3.68,28.48-8.4-12-20.16-22.24-23.92-36.88-2.72,4-1.68,9.44-3,14-8.16-12.8-14.32-27.28-25.2-38.24-7.92.64,4,9.2-2.64,10.48-12.56-18.8-19.92-40.56-30.72-60.32-6.8,2.32,2.8,13.76-2.64,16.8-15-26-28.08-53-41.44-79.84-5.6,2.64,2.24,11.12,3.12,16.48-8.32,1-16.08-2.4-23.92-4.64-5,7.68-10.32-3-16.72-3.28,5.36,9.36,16.72,13,22.8,21.52-11.2-1-20.88-8.24-32.32-7.84-9.28-.24-19-11-27-8.16,7.44,3.12,11.68,8.4,2.72,12.64-20.64-4.72-33.52-25.44-51.92-34.88,9.6,13.12,22.72,23.2,35.52,33.2-24.4-3.92-45.2-19.76-70-21.92,24.88,16.48,57,22.72,84.16,32.32-19.84,24.4-17.52,57.84-21.12,87-8.8-3.44-9.2-19.6-19.2-23.84,1.68-4.24,5.92-7.84,5.52-12.72C941.2,1218.26,935,1242,927.12,1263c-10.08-7.92.32-12.64-.88-20.32-11.28,3.92-21.28,11.44-30.56,18.88-16.8,17.84-7.28,43.76-14.72,64.8-1,11.6,5.28,28.8-8,35.12-14,1.92-29,8.32-42.88,2.64A571.78,571.78,0,0,0,737,1347.3c.85-11.28-13.92-10.4-15.72-.72-32.31.08-64.32-6.72-96-11.92,3.46-8.08,4.1-17,6.84-25.36,14.67-5.2,28.26-13.76,44-15.44-1.18,9.2,4.85,8.56,9.71,3.76,12.73-1.28,20.6,12,28.6,18.64,3.87-14.72-19.18-20.32-28.14-27a149,149,0,0,1,35.62-53.52c8.2-8.16,3.34-21,8.38-30.4,3.86-8.24,5.1-17.36,6.75-26.24,6.17-26,21.75-48.48,35.81-70.72,4.11-8.8,11.9,4.64,18-1.76,5.67-2.32-3.49-4.56-5.32-5.92-11.87-4-17.92-15.68-27.07-23.12-8.36-2.64,7.51,11.6-.51,8.32-32.09-16.48-62.83-36.08-94.33-53.12-.92-7.44-9.48-20.08,0-24.64,1.69-13.2-8.74-23.2-13.51-34.56,13.37.56,19.66,19.36,33.35,17.28-9.57-18.08-14-38.24-22.24-56.88,8.48,2.24,17.71,17,25.91,7.52-19.39-11-25.74-35-35.69-53.52,1.22,15.6,12.81,28.56,16.25,43.84-3.62-.88-7.46-6.08-11.27-3.6,4.95,18.32,14.27,35.44,17.48,54.32-9-4.48-16.73-18.32-27.69-14.88.52,13.2,9.61,23.68,12.29,36.32-1.92.32-3.85.48-5.76.72,8,21.36,6.44,45,15.16,66.16,2.36,8.48,7.51,20.32-2.75,25.84-43,44.32-48,109.44-46.79,168-.54,18.8,13.88,38.8,4,56.88-3.06,4.56-3.08,16-11.23,13.52-39.1-9.12-78.91-.24-118.31.32-48.39,5.28-97.21,5.44-145.24,13.44.18-17.2,12.25-38.32,30.74-41.28,29.81-33.84,80-21.12,118.28-40.72,1.55-.56,1.71-1.36.48-2.48-30.24,5.12-60.14,15.36-90.91,16-2.51-46,4-92,10.5-137.44.11-3.12,5.49-4.32,3.23-7.52-18.55-39.76-15.91-84.16-15.24-126.56,4.26-.4,6.5,5.84,11.07,6.08-12.84-18.8-26.41-37.2-41.56-54.32-17.32-30.08-35.41-60.16-45.38-93.76-5.51,4.56,2.37,14.88,3.44,21.6,3.91,16.56,13.69,30.8,20.64,46-13.47,28.4-15.78,62.24-13.2,92.08-5.35-2.32-5.87-17.12-14.45-14.4a343.33,343.33,0,0,0-7.94,88.32c-5-.48-6.25-12.56-11.92-12.56-12.8,25.36-19.15,55.36-16.59,83.76-2.76-.16-6.85-3.92-8.21.56-12,20.72-10.43,45.84-10.68,69-2-.16-4-.32-6.07-.4,4.42,12.24,1.59,25.12,1.87,37.76,2.22,15.6,8.08,31.6,4.44,47.44-2,9.68-13.53,6.56-19.17,12.48-7.43,6.8-1.5,19.84-9.08,26.4-79.48,6.48-155.39,34.24-234.49,42.88-7.27-25.6,7.29-51,25.54-68.08a206.29,206.29,0,0,1,81.16-36.56c-3.94-6.16-20.79,3.76-26.93-.56a81.63,81.63,0,0,1-2.57-19.2c3.44-43.28,5.57-86.72,8.31-130.08,2-28.08,11.94-54.48,17.45-81.84-2.68-71.92,10.14-143.28,28.36-212.32-7.61,6.32-7.27,20.4-13.52,27.12,1.17-22.48,10-43.92,11.84-66.32,1.07-13.36,9.49-24.74,11-37.87-7.23,3.61-9.34,12.88-16.28,16.9,1.61-20.79,10.07-40.2,16.34-59.73-6-6.33-8.13,12.37-12,11.19,5.33-22.29,13-44.12,16.39-66.82-9,6.8-7.75,22.24-16.2,29-.41-39.19,14.37-77.75,37.67-108.91,23.66-42.7,59.17-79.29,74.21-126.64,11.44-20.14,16.68-42.89,25.32-64.2,12-23.79,18.5-49.91,29.75-74,16.91-37.19,44.34-67.93,65.86-102.33,10.06-8.06,15.86-29.63,32.14-18.4,8.6,18.71,30.88,25.62,50.46,25.07-8.86-11.27,14.65,2.21,12.82-5.73-16.86-6-35-8-51.9-13.9,7-6.58,15.86,5.12,23.59,2.84,2.79-2-1.37-4.88-3.4-5.53-14.16-4.34-29.72-5.75-42.69-12.76,3.38-3.63,15.24,4.85,17.68-.23-11.13-7-26.62-5.37-36.92-14.48-1.57-5.57,5.64-9.66,10-11.44-5-3.15-11-3.59-16.4-5.64,2.79-5.44,13.58-4,19.39-6.08-1.91,2.08-6.84,3.26-4.91,6.78,12.08,1.54,24.65-4.43,35.61-3.73-4.84,5.19-1.15,13.39,7.3,10.24,17.52-3.73,37.19-1.69,53.74-6.71-16.54-7.62-35.14,2.1-51.88-.09,4-7.54,17.86-3.76,24.36-8.93-19-4.76-39,1.8-57.58,2.66-8.8-3.49,8.75-.76,5.3-6.52-6.86-4.6-22.1,9.39-25.92,2.12,11.7-10.37,28.46-3.48,42.54-6.08,21-2.07,42.42,8.9,61.81,6.78-11.41-9.15-31.29-7-46-12.24,30-14.7,51.93-42.89,85.58-50.89,19.63-5.37,37.79-15.13,57.22-21.14,14.25-.76,30.88,2.82,42.23-8,18-18.19,38.77-33.85,62.59-43.51,19.06-6.82,40.35-8,57.49-19.49C729.12,28.28,706,18.65,699,31.84c3.42,3.18,10.36-3.78,14.9-4.53,15.37-3.37,30.83,4.3,41.41,15.17,1.55,3.6,8.4,3.1,6.07-1.34-6.16-8.58-15.68-14.07-25-18.67-1.25-5.27,6.87-8.85,11.09-10.53,3.81-5.09-12.31-3.42-4-6.3Zm-177.43,96.5a22,22,0,0,0-6.85,1c-10.53,2.53-22.31,15.69-15.8,26.51,5.9.73,5.44-7.86,8.09-11.06,4.11-7.55,13.93-6.77,20.76-4-9,10.32-24,14-32.6,24.36,16.12-5.48,28.8-17.61,44.76-23.44C585.48,106.52,575,102.16,566.06,102.14Zm21.84,24a2.57,2.57,0,0,0-1.58.5c-12.17,7.39-21.89,18.47-31.62,28.63,13.16-4.64,23.42-13.7,34.26-22.07,1.9-1.45,1.42-6.89-1.06-7.06ZM577.8,149.1a3.42,3.42,0,0,0-2,.87c-13.81,9.13-25.71,20.57-36.4,33.21,16.64-4.61,25.57-21.1,40.72-28.4,3.49-2.11.68-5.91-2.3-5.68Zm-4.52,19.38a3.67,3.67,0,0,0-2.06.8c-12.42,12-29.43,19.74-36.86,36.22,6.38.06,9-7,13.66-10.2,9.94-6.59,21.32-13.26,26-24.85.52-1.41,0-2-.74-2ZM434.17,235.19c2.18.18.1,4.21-2.24.62A4.41,4.41,0,0,1,434.17,235.19ZM434,246.4a3,3,0,0,0-1.54.59c-3,1-9.81,3.27-8,7.81,6.92,5,16.5.36,24.47,1.12-1.13-7.64-13-.34-15.68-4.89,1.45-1.18,2.35-4.58.75-4.63Zm12.74,12.81a20.31,20.31,0,0,0-5.33,1.49c-3.77,1.34-8.75,3-9.5,7.55.94,6.51,11.42,3.07,12.43,8.35-4.25,2.2-11.73,8.2-3.93,11.34,7.42.7-3,9.33,5.16,10.6,13.94,4.46-6.2-5.06,4.58-9.31,7-5.84-3.77-4-5.58-7.06,2.48-3.17,7.68-4.69,8.5-8.81-2.85-4-11.36-2.65-13.22-7.49,4.36-2,10.32-6.83,6.89-6.66Zm6,47.1a70.48,70.48,0,0,0-8.29.5c-4.74,7.3,20,3.15,21.62,0-3.72-.25-8.54-.52-13.33-.46ZM586.17,480.4a1.13,1.13,0,0,0-.47.12c-6.9,13.52-3.59,29.55-3.69,44.23,12-6.75-1.91-22.13,3.29-32.53-.5-2.13,2.85-11.74.87-11.82ZM579,511.76a2.7,2.7,0,0,0-1.59.63c-5.12,9.79-4.48,24.32-.36,34.13,9.45-2.74-2.21-20.34,2-28.52C578.8,516.28,580.44,512,579,511.76ZM279.37,711.23c12.33,33.33,39.19,59.89,69,78.22,7.07,3.7-.41-5.11-3-5.59-27.77-18.54-46.81-46.45-66-72.63Zm9.25,39c13.28,37.6,38.66,75.51,76.87,90.07-16-12.4-32-25.68-45.5-41-11.77-15.14-16.82-37.63-31.37-49.08Zm337.2,10c11.27,20.82,19.7,43,31.75,63.4-6.51-.24-14.65-13.36-20.06-5.12,5.76,18.48,12.75,36.72,23.35,53,4.1,11.2-9.84,1.68-13.8,1.36,2.14,10.08,30.7,17.52,18.68.08-10-16.24-19.06-33-25.61-51,10.12-1.52,20.12,16.72,28.41,8-13.6-23.36-27-48.22-42.72-69.72ZM300.65,805a4.72,4.72,0,0,0-1.75.4c8.44,34.24,42.23,59.12,70.7,78.8-21.78-24.32-53-42.08-64.75-74.08.22-3.2-1.75-5.2-4.2-5.12Zm653,99.44c18.48,26.64,43,48.8,68.72,68.32,10.08,7.36,21.92,19.12,35.12,16.8C1018.64,967.22,985,934.74,953.6,904.42Zm21.6,45.68c17.84,23.76,41.6,42.24,65,60.08,6.32,3.68,12.64,9,20.32,9-32.16-17.68-54.88-49.12-85.36-69.12Zm33,67.6h-.4c18.48,37,48.72,67,81.36,92,4.88,3.12,13.44,10,18.32,3.68-34.88-22.64-68.72-49.68-90.08-86.16C1014.56,1024.18,1012.72,1017.7,1008.16,1017.7ZM665.7,1042.1c20.72,5.76,37.31,23.52,57.84,31.52,15.28,9.6,34.86,15.6,44.77,31.6-17.77,26.48-35.9,54.56-39.61,87-7.21,11.36-5,24.64-9.15,36.72-16.32,17.92-31.48,37.68-39.28,61-18.29-3.28-32.85,9.44-49.69,13.12-12.68-48.08-7-99,5.4-146.64,7.29-24.32,23.67-44.72,40.26-63.36,2.15-17.6-8.23-33.76-10.54-50.88Zm102.93,36c25,22.4,55.37,38,83.13,56.8,3.6,2.16,15.76-1.44,7.84-4.48-20.72-7.44-29.28-29.76-42.24-44.4.64,8.24,11,18.56,14.8,28.08-22.8-8.56-40-29.36-63.53-36ZM836,1101.46c29.12,21.12,62.72,40.24,95.52,55.76,2.16-1.28,9.2-4.16,4.4-6.4-22-4.88-34.8-25-48-41.44-2.8,8.16,13.6,18.32,14.4,25.28-22.8-8.88-41.68-28.64-66.32-33.2ZM517,1264.1c-4.52,0-10,1.92-13.35,2.32,1.1,4.88,15.44,2.16,19.72.56-1.32-2.16-3.67-2.88-6.37-2.88Z"/></svg>