<svg id="svg10329" xmlns="http://www.w3.org/2000/svg" xmlns:xlink="http://www.w3.org/1999/xlink" viewBox="0 0 744.09 1052.4"><defs><style>.cls-1{fill:none;}.cls-2{fill:#381111;}.cls-3{fill:url(#radial-gradient);}.cls-4{clip-path:url(#clip-path);}.cls-5{fill:#f9d91d;}.cls-32,.cls-6{fill:#fff;}.cls-7{fill:url(#radial-gradient-2);}.cls-8{fill:#fc6e16;}.cls-9{fill:#f8ac52;}.cls-10{fill:#ffc59f;}.cls-11{fill:#fd802d;}.cls-12{fill:#fffb3c;}.cls-13{fill:#f9be55;}.cls-14{fill:#f7210d;}.cls-15{fill:#f75810;}.cls-16{fill:#511917;}.cls-17{fill:url(#radial-gradient-3);}.cls-18{fill:url(#radial-gradient-4);}.cls-19{fill:#f7c49f;}.cls-20{fill:url(#radial-gradient-5);}.cls-21{fill:url(#radial-gradient-6);}.cls-22{fill:#fcc439;}.cls-23{fill:url(#radial-gradient-7);}.cls-24{fill:url(#radial-gradient-8);}.cls-25{fill:url(#radial-gradient-9);}.cls-26{fill:url(#radial-gradient-10);}.cls-27{fill:url(#radial-gradient-11);}.cls-28{fill:url(#radial-gradient-12);}.cls-29{fill:url(#radial-gradient-14);}.cls-30{fill:#ffff43;}.cls-31{fill:#f46e5b;}.cls-32,.cls-33{stroke:#b3b3b3;stroke-width:2px;}</style><radialGradient id="radial-gradient" cx="73.46" cy="824.95" r="1" gradientTransform="matrix(136.3, 0, 0, -136.3, -9648.75, 113102.59)" gradientUnits="userSpaceOnUse"><stop offset="0" stop-color="#f85a54"/><stop offset="1" stop-color="#ffc59f"/></radialGradient><clipPath id="clip-path"><rect class="cls-1" x="-1433.2" y="-269.11" width="2382.43" height="3369.41"/></clipPath><radialGradient id="radial-gradient-2" cx="73.41" cy="825.09" gradientTransform="matrix(125.32, 0, 0, -125.32, -8819.77, 104067.62)" xlink:href="#radial-gradient"/><radialGradient id="radial-gradient-3" cx="73.15" cy="825.9" gradientTransform="matrix(86.89, 0, 0, -86.89, -6155.45, 72209.39)" xlink:href="#radial-gradient"/><radialGradient id="radial-gradient-4" cx="74.85" cy="825.9" gradientTransform="translate(7046.04 72209.39) rotate(180) scale(86.89)" xlink:href="#radial-gradient"/><radialGradient id="radial-gradient-5" cx="71.72" cy="830.3" gradientTransform="matrix(32.44, 0, 0, -32.44, -2091.72, 27411.26)" xlink:href="#radial-gradient"/><radialGradient id="radial-gradient-6" cx="71.72" cy="830.3" gradientTransform="matrix(32.44, 0, 0, -32.44, -1826.26, 27418.18)" xlink:href="#radial-gradient"/><radialGradient id="radial-gradient-7" cx="72.71" cy="827.26" r="1" gradientTransform="matrix(57.19, 0, 0, -57.19, -3571.4, 47614.86)" gradientUnits="userSpaceOnUse"><stop offset="0" stop-color="#f9490f"/><stop offset="0.99" stop-color="#fdfe01"/><stop offset="1" stop-color="#fdfe01"/></radialGradient><radialGradient id="radial-gradient-8" cx="72.73" cy="827.2" gradientTransform="matrix(58.12, 0, 0, -58.12, -3639.59, 48379.97)" xlink:href="#radial-gradient-7"/><radialGradient id="radial-gradient-9" cx="72.71" cy="827.26" gradientTransform="matrix(57.16, 0, 0, -57.16, -3569.62, 47595.1)" xlink:href="#radial-gradient-7"/><radialGradient id="radial-gradient-10" cx="72.73" cy="827.19" gradientTransform="matrix(58.22, 0, 0, -58.22, -3646.99, 48461.18)" xlink:href="#radial-gradient-7"/><radialGradient id="radial-gradient-11" cx="72.71" cy="827.26" gradientTransform="matrix(57.19, 0, 0, -57.19, -3571.7, 47618.16)" xlink:href="#radial-gradient-7"/><radialGradient id="radial-gradient-12" cx="72.73" cy="827.2" gradientTransform="matrix(58.16, 0, 0, -58.16, -3644.09, 48415.05)" xlink:href="#radial-gradient-7"/><radialGradient id="radial-gradient-14" cx="72.73" cy="827.2" gradientTransform="matrix(58.07, 0, 0, -58.07, -3637.24, 48340.47)" xlink:href="#radial-gradient-7"/></defs><title>girl-19</title><g id="layer1"><g id="g1248"><path id="path1250" class="cls-2" d="M130.23,418.05c-1.61,12.79,4.29,28.8,5.69,41.62A342.87,342.87,0,0,1,138.15,494c.21,21.11-.68,42.29,0,63.39.85,25.82,20.7,63,52.15,43.3,37.1-23.23-18.86-45.49-14.72-19C169.2,568,186.94,557.85,198.2,563c12.44,5.65,12.21,20.15,27.18,24.72s38.2-2.23,34.22-21.36c-3.24-15.56-31.07-21.33-29.72-1.66-6.35-14.52,15.25-19.49,25-14.44,11.7,6.1,10.25,21.32,22.64,26.38,11.95,4.87,32.49-1.06,32.9-16.19.53-20.28-27.9-29.66-36.38-11.34-9.1-15.11,11-24.82,23.92-22.32,12.63,2.45,12.4,17.79,24.45,20.23,13.22,2.68,48.09-17,50.34-27.08,2.69-12.15-11-32.12-15-42.87-5-13.5-7.94-27.63-16-39.82-20.53-31-48.65-34.78-83-35.91-28.52-.93-55-4.38-83.11-8.17"/></g><g id="g1252"><path id="path1254" class="cls-2" d="M610.89,418.05c1.61,12.79-4.29,28.8-5.7,41.62C604,471,603.08,482.42,603,494c-.2,21.11.69,42.29,0,63.39-.83,25.82-20.69,63-52.14,43.3-37.1-23.23,18.86-45.49,14.71-19,6.39-13.67-11.34-23.77-22.61-18.65-12.44,5.65-12.21,20.15-27.18,24.72s-38.2-2.23-34.22-21.36c3.24-15.56,31.07-21.33,29.72-1.66,6.34-14.52-15.26-19.49-24.95-14.44-11.7,6.1-10.25,21.32-22.64,26.38-11.94,4.87-32.49-1.06-32.9-16.19-.54-20.28,27.9-29.66,36.38-11.34,9.1-15.11-11-24.82-23.92-22.32-12.63,2.45-12.4,17.79-24.45,20.23-13.22,2.68-48.09-17-50.34-27.08-2.69-12.15,11-32.12,15-42.87,5.05-13.5,7.95-27.63,16-39.82,20.52-31,48.64-34.78,83-35.91,28.51-.93,55-4.38,83.11-8.17"/></g><g id="g1256"><g id="g1258"><g id="g1264"><g id="g1266"><path id="path1274" class="cls-3" d="M310.88,723.35V854.08h49.26V723.35a24.63,24.63,0,0,0-49.26,0"/></g></g></g></g><g id="g1276"><g class="cls-4"><g id="g1278"><path id="path1284" class="cls-5" d="M310.88,856.39h49.26v-11H310.88Z"/><path id="path1286" class="cls-5" d="M310.88,834.41h49.26v-9.6H310.88Z"/><g id="g1288"><path id="path1290" class="cls-5" d="M310.88,886.32a24.63,24.63,0,1,0,49.26,0V867.4H310.88Z"/></g><path id="path1292" class="cls-5" d="M310.88,813.84h49.26v-9.61H310.88Z"/><path id="path1294" class="cls-5" d="M360.15,782.27H310.88v11h49.27Z"/><path id="path1296" class="cls-6" d="M360.15,793.23H310.88v11h49.27Z"/><path id="path1298" class="cls-6" d="M310.88,824.81h49.26v-11H310.88Z"/><path id="path1300" class="cls-6" d="M310.88,845.42h49.26v-11H310.88Z"/><path id="path1302" class="cls-6" d="M310.88,867.39h49.26v-11H310.88Z"/></g></g></g><g id="g1304"><g id="g1306"><g id="g1312"><g id="g1314"><path id="path1322" class="cls-7" d="M372.55,723.35V854.08h49.26V723.35a24.63,24.63,0,1,0-49.26,0"/></g></g></g></g><g id="g1324"><g class="cls-4"><g id="g1326"><path id="path1332" class="cls-5" d="M372.67,856.39h49.27v-11H372.67Z"/><path id="path1334" class="cls-5" d="M372.67,834.41h49.27v-9.6H372.67Z"/><g id="g1336"><path id="path1338" class="cls-5" d="M372.67,886.32a24.64,24.64,0,1,0,49.27,0V867.4H372.67Z"/></g><path id="path1340" class="cls-5" d="M372.67,813.84h49.27v-9.61H372.67Z"/><path id="path1342" class="cls-5" d="M421.94,782.27H372.68v11h49.26Z"/><path id="path1344" class="cls-6" d="M421.94,793.23H372.68v11h49.26Z"/><path id="path1346" class="cls-6" d="M372.67,824.81h49.27v-11H372.67Z"/><path id="path1348" class="cls-6" d="M372.67,845.42h49.27v-11H372.67Z"/><path id="path1350" class="cls-6" d="M372.67,867.39h49.27v-11H372.67Z"/><g id="g1352"><path id="path1354" class="cls-8" d="M359.75,905.25c0-24.51-19.15-44.16-42.82-43.9S274,881.72,274,906.23c0,0,27.94,18.36,85.72-1"/></g><g id="g1356"><path id="path1358" class="cls-9" d="M273.9,912.66v2.4s39.75,26.2,85.83-1v-8.83c-57.77,19.34-85.71,1-85.71,1v4c0,.82-.12,1.62-.12,2.46"/></g><g id="g1360"><path id="path1362" class="cls-8" d="M369.27,905.25c0-24.51,19.15-44.16,42.82-43.9S455,881.72,455,906.23c0,0-27.94,18.36-85.72-1"/></g><g id="g1364"><path id="path1366" class="cls-9" d="M455.12,912.66v2.4s-39.76,26.2-85.84-1v-8.83c57.77,19.34,85.72,1,85.72,1v4c0,.82.12,1.62.12,2.46"/></g><g id="g1368"><path id="path1370" class="cls-10" d="M388.84,544.21c0,20.92-10.38,37.87-23.18,37.87s-23.17-17-23.17-37.87,10.38-37.86,23.17-37.86,23.18,16.95,23.18,37.86"/></g><g id="g1372"><path id="path1374" class="cls-10" d="M81.39,494.31a11,11,0,0,0-2.27,15.35c1,1.32,24.63,32.83,68.47,58,40.57,23.33,106.74,45.37,191.53,17.87a11,11,0,1,0-6.78-20.9c-61.61,20-119.83,14.74-173-15.58C119.16,526.22,97,496.85,96.76,496.56a11,11,0,0,0-15.37-2.25"/></g><g id="g1376"><path id="path1378" class="cls-11" d="M329.37,621.74s-16.34,97-67.16,105.47,109.19,53.37,208.73.42-50.5-8.47-59-103.78Z"/></g><g id="g1380"><path id="path1382" class="cls-10" d="M638.22,496.55c-.22.29-22.4,29.65-62.54,52.53-53.21,30.32-111.43,35.57-173,15.58a11,11,0,1,0-6.78,20.9c84.79,27.5,150.95,5.46,191.53-17.87,43.84-25.2,67.49-56.72,68.47-58.05a11,11,0,0,0-17.64-13.09"/></g><g id="g1384"><path id="path1386" class="cls-12" d="M395.85,545.5l-27.68-7.69-.7,33.08h-1.24l-.72-33.08-27.66,7.69s-25.42,21.17-72,14.82L274.31,609s29,3.85,61.17-12.44v43h52.69v-38.1l5.56-7.26c33.88,19,65.65,14.82,65.65,14.82l8.47-48.71c-46.59,6.35-72-14.82-72-14.82"/></g><g id="g1388"><path id="path1390" class="cls-13" d="M413.66,549.5a91.54,91.54,0,0,0-7.91-15.73q.21,3.24.21,6.59c0,34.63-17.07,62.72-38.13,62.72S329.71,575,329.71,540.36c0-2.94.14-5.81.37-8.63a83.16,83.16,0,0,0-9.32,17.77s6.35,144.16-48.71,166.62c0,0,37.95,18.29,95.16,13.6,57.2,4.69,95.16-13.6,95.16-13.6C407.3,693.66,413.66,549.5,413.66,549.5"/></g><g id="g1392"><path id="path1394" class="cls-6" d="M389.64,554.18c0,13.64-10.66,24.71-23.8,24.71S342,567.82,342,554.18s10.66-24.71,23.8-24.71,23.8,11.06,23.8,24.71"/></g><g id="g1396"><path id="path1398" class="cls-14" d="M326.45,547.22a3.65,3.65,0,0,0-3.38,3.91c.09,1.24,10.18,123.6,109,132.59a3.66,3.66,0,1,0,.66-7.29C340.12,668,330.46,551.78,330.37,550.6a3.66,3.66,0,0,0-3.92-3.38"/></g><g id="g1400"><path id="path1402" class="cls-14" d="M378.6,657.56s-26.43,45,6.85,56.77,33.28,10.76,36.21-34.26-35.23-14.68-43.06-22.51"/></g><g id="g1404"><path id="path1406" class="cls-15" d="M379.56,655.6s-27.41,39.15,14.68,42.09,34.26,15.66,29.36-23.5-30.34-6.85-44-18.59"/></g><g id="g1408"><path id="path1410" class="cls-6" d="M406,689.85a5.88,5.88,0,1,1-5.87-5.87,5.87,5.87,0,0,1,5.87,5.87"/></g><g id="g1412"><path id="path1414" class="cls-16" d="M611.56,379.72a217.36,217.36,0,0,0,2-28.57c0-127.16-109.6-230.23-244.79-230.23S123.94,224,123.94,351.15A217.58,217.58,0,0,0,126,380.54c109.45.87,369.5-.25,485.58-.82"/></g></g></g></g><g id="g1416"><g id="g1418"><g id="g1424"><g id="g1426"><path id="path1434" class="cls-17" d="M129.22,363.28c-22.08,12.74-28.5,42.93-14.36,67.43s43.51,34,65.58,21.29,28.5-42.94,14.36-67.44c-9.88-17.13-27.21-26.94-44.28-26.94a42.31,42.31,0,0,0-21.3,5.66"/></g></g></g></g><g id="g1436"><g id="g1438"><g id="g1444"><g id="g1446"><path id="path1454" class="cls-18" d="M547.81,384.57c-14.14,24.49-7.72,54.69,14.36,67.43s51.44,3.22,65.58-21.28,7.72-54.69-14.36-67.44a42.4,42.4,0,0,0-21.3-5.65c-17.07,0-34.39,9.81-44.28,26.94"/></g></g></g></g><g id="g1456"><g class="cls-4"><g id="g1458"><g id="g1464"><path id="path1466" class="cls-10" d="M585.31,373.44c2,112.69-92.62,180.4-211.42,182.55s-216.76-62.08-218.8-174.77S247.7,175.44,366.5,173.29s216.78,87.46,218.82,200.15"/></g><g id="g1468"><path id="path1470" class="cls-19" d="M222.27,509.6C181,478.43,158.64,434,157.68,381.17c-.93-51.79,18.87-101.38,55.76-139.63,39.82-41.28,94.2-64.61,153.13-65.67S480.68,196.14,522,236c38.25,36.88,59.83,85.72,60.77,137.51.82,45.46-14.57,85.89-44.52,116.94-38,39.38-96.35,61.74-164.37,63C315,554.46,261.12,538.9,222.27,509.6m144.2-338.9c-60.3,1.09-116,25-156.75,67.25-37.85,39.25-58.16,90.14-57.2,143.31,1,54.51,24,100.31,66.64,132.46,39.76,30,94.74,45.93,154.79,44.84,69.39-1.25,129.06-24.18,168-64.55,30.92-32.06,46.82-73.77,46-120.63-1-53.16-23.11-103.29-62.35-141.14-42.28-40.77-98.78-62.63-159.09-61.54"/></g></g></g></g><g id="g1472"><g id="g1474"><g id="g1480"><g id="g1482"><path id="path1490" class="cls-20" d="M202.46,479.62a32.44,32.44,0,1,0,32.45-32.43,32.44,32.44,0,0,0-32.45,32.43"/></g></g></g></g><g id="g1492"><g id="g1494"><g id="g1500"><g id="g1502"><path id="path1510" class="cls-21" d="M468.17,483.9a32.44,32.44,0,1,0,32.43-32.44,32.43,32.43,0,0,0-32.43,32.44"/></g></g></g></g><g id="g1544"><path id="path1546" class="cls-16" d="M591.14,364.49,576.6,267.55,470,157.69,356.88,141.53l-43.63,4.85-93.71,46.85-48.46,45.24-16.16,61.4-21,61.39s55.62-14.56,144.92-20.39l16.89-127.82-3.19,127c6.72-.36,13.63-.66,20.68-.9l.8-99.48L319.58,339c75.84-2.17,169.66,2.8,271.59,25.53"/></g><g id="g1556"><path id="path1558" class="cls-10" d="M383.51,554.47c0,9.24-8,16.73-17.93,16.73s-17.91-7.49-17.91-16.73,8-16.73,17.91-16.73,17.93,7.49,17.93,16.73"/></g><g id="g1560"><path id="path1562" d="M196.9,338.75A7.33,7.33,0,0,0,207,349.4c.11-.11,11.91-11,24.84-9.84,6.86.6,13.17,4.68,18.74,12.11a7.33,7.33,0,0,0,11.72-8.79c-8.2-10.94-18.07-17-29.3-17.92-19.51-1.65-35.4,13.16-36.06,13.79"/></g><g id="g1564"><path id="path1566" d="M491.1,338.75a7.32,7.32,0,0,0,10,10.65c.12-.11,11.92-11,24.84-9.84,6.88.6,13.18,4.68,18.75,12.11a7.33,7.33,0,0,0,11.72-8.79c-8.21-10.94-18.07-17-29.3-17.92-19.51-1.65-35.39,13.16-36.06,13.79"/></g><g id="g1568"><path id="path1570" class="cls-22" d="M368.29,129.91l-2.49-.21-2.48.21C332,132.79,162.15,155.64,139.6,313.47c0,0,39.45-151.49,226.2-156.52C552.56,162,592,313.47,592,313.47,569.46,155.64,399.64,132.79,368.29,129.91"/></g><g id="g1572"><g id="g1574"><g id="g1580"><g id="g1582"><path id="path1592" class="cls-23" d="M593.59,241c-5.33,0-14.29-.34-14.29,15.45s9,41.73,14.29,41.73,12.75-26.71,12.75-42.5c0-13.85-5.71-14.7-10.7-14.7l-2,0"/></g></g></g></g><g id="g1594"><g id="g1596"><g id="g1602"><g id="g1604"><path id="path1614" class="cls-24" d="M552.61,256.38c-3.77,3.76-10.34,9.87.82,21s35.84,23.17,39.61,19.4-9.87-27.91-21-39.07c-4.79-4.79-8.34-6.41-11.13-6.41-3.73,0-6.12,2.89-8.27,5"/></g></g></g></g><g id="g1616"><g id="g1618"><g id="g1624"><g id="g1626"><path id="path1636" class="cls-25" d="M534.52,296.24c0,5.33-.34,14.29,15.45,14.29s41.72-9,41.72-14.29-26.7-12.75-42.5-12.75-14.67,7.41-14.67,12.75"/></g></g></g></g><g id="g1638"><g id="g1640"><g id="g1646"><g id="g1648"><path id="path1658" class="cls-26" d="M551.25,317.85c-11.16,11.17-5.14,15.63-1.36,19.4s9.87,10.34,21-.83,23.16-35.84,19.38-39.6a2.79,2.79,0,0,0-2.08-.65c-7.11,0-27.11,11.81-37,21.68"/></g></g></g></g><g id="g1660"><g id="g1662"><g id="g1668"><g id="g1670"><path id="path1680" class="cls-27" d="M577,340.7c0,15.79,7.42,14.68,12.75,14.68s14.29.34,14.29-15.45-9-41.72-14.29-41.72S577,324.91,577,340.7"/></g></g></g></g><g id="g1682"><g id="g1684"><g id="g1690"><g id="g1692"><path id="path1702" class="cls-28" d="M590.31,299.56c-3.76,3.77,9.88,27.9,21,39.06S627,343.76,630.74,340s10.35-9.86-.81-21c-9.74-9.74-29.73-20.11-37.2-20.11a3.42,3.42,0,0,0-2.42.71"/></g></g></g></g><g id="g1704"><g id="g1706"><g id="g1712"><g id="g1714"><path id="path1724" class="cls-23" d="M591.67,300.12c0,5.34,26.71,12.75,42.5,12.75s14.67-7.41,14.67-12.75.35-14.29-15.44-14.29-41.73,9-41.73,14.29"/></g></g></g></g><g id="g1726"><g id="g1728"><g id="g1734"><g id="g1736"><path id="path1746" class="cls-29" d="M612.44,259.94c-11.17,11.16-23.16,35.83-19.39,39.6s27.9-9.86,39.06-21,5.14-15.63,1.37-19.41c-2.21-2.21-5.22-5.38-9.58-5.38-3.08,0-6.84,1.59-11.46,6.21"/></g></g></g></g><g id="g1756"><path id="path1758" class="cls-30" d="M611.68,298.13a19.95,19.95,0,1,1-19.94-19.94,19.94,19.94,0,0,1,19.94,19.94"/></g><g id="g1760"><path id="path1762" class="cls-10" d="M127.78,533.36c-.34-19,11.21-45.26,19-61.63-10.42-21.42-24.43,14.72-32.92,25.76-20.59-12.91-31.71-43.75-43-63.18-20.85,4.57.15,34.69,5.74,48.26-5.49-9.65-12.33-22.23-24.81-34.42-19.33,2.7,2,25.87,9,36.73-8.76-4.78-14.87-16.2-21.55-20.95-22.65,2.38,6.07,33.46,19.12,40.43-11.39-5-17.31-15.88-28.7-19.49C4.34,488.11,75.78,552,106.35,536.05"/></g><g id="g1764"><path id="path1766" class="cls-10" d="M607.31,533.36c.35-19-11.21-45.26-19-61.63,10.41-21.42,24.42,14.72,32.91,25.76,20.59-12.91,31.71-43.75,43-63.18,20.86,4.57-.15,34.69-5.74,48.26,5.49-9.65,12.34-22.23,24.81-34.42,19.33,2.7-2,25.87-9,36.73,8.77-4.78,14.87-16.2,21.56-20.95,22.64,2.38-6.08,33.46-19.12,40.43,11.38-5,17.3-15.88,28.7-19.49,25.32,3.24-46.12,67.11-76.68,51.18"/></g><g id="g1768"><path id="path1770" class="cls-31" d="M428.22,492.34c-14.92,19.11-31.6,29.15-49.54,29.86C348,523.4,323.27,496.79,323,496.52a3.66,3.66,0,0,0-5.41,4.93c1.1,1.21,27.2,29.37,61.3,28.07,20.21-.78,38.74-11.77,55.07-32.67a3.66,3.66,0,1,0-5.77-4.51"/></g><path id="path3850-2-2" class="cls-32" d="M271.43,406.3c0,31.44-20.33,56.93-45.41,56.93s-45.42-25.49-45.42-56.92,20.33-56.93,45.41-56.93c24.63,0,44.77,24.61,45.4,55.47"/><path id="path3871-5-5" class="cls-33" d="M245.88,407.72c0,15.95-8,28.88-17.91,28.88s-17.9-12.93-17.9-28.88,8-28.89,17.9-28.89c7.76,0,14.64,8.06,17,20l-17,8.92Z"/><path id="path3850-2-2-4" class="cls-32" d="M565.65,412.94c0,31.44-20.33,56.92-45.41,56.92s-45.42-25.48-45.42-56.92S495.15,356,520.23,356c24.63,0,44.77,24.61,45.4,55.47"/><path id="path3871-5-5-0" class="cls-33" d="M540.1,414.35c0,15.95-8,28.88-17.91,28.88s-17.9-12.93-17.9-28.88,8-28.89,17.9-28.89c7.76,0,14.64,8.06,17,20l-17,8.92Z"/></g></svg>