<svg id="Layer_1" data-name="Layer 1" xmlns="http://www.w3.org/2000/svg" viewBox="0 0 213.05 460.51"><defs><style>.cls-1{fill:#fff200;}.cls-2{fill:#a967aa;}.cls-3{fill:#f0d0b4;}.cls-4{fill:#602d91;}.cls-5{fill:#fff;}.cls-6{fill:#e9187e;}.cls-7{fill:#702c8d;}.cls-8{fill:#ec008c;}</style></defs><title>girl-13</title><path id="path24" class="cls-1" d="M201.86,144.32c1.78,1.3,3.51,2.66,5.54,4.2a20.25,20.25,0,0,1-3,5.21l-.39-.3c-.53-.6-.77-1.14-1.16-1.3-3.84-1.51-6.8-4.35-10.17-6.57a2.59,2.59,0,0,1-1-1c-.62-1.61-2.05-2-3.44-2.57a20,20,0,0,1-3.35-1.8c-4.42-2.9-8.56-6.07-11.5-10.6-2-3.14-4.45-6.05-6.36-9.26a64.71,64.71,0,0,1-3.56-7.8c-1.17-2.7-2.38-5.4-3.36-8.17a29.7,29.7,0,0,1-1.27-6,10.34,10.34,0,0,1,3.45,4.39A35.68,35.68,0,0,0,169,112.5c2.29,2.43,4.38,5.06,6.6,7.56,3.76,4.24,7.45,8.53,11.36,12.62,2.92,3,6.06,5.88,9.24,8.65a19.8,19.8,0,0,0,3.94,2.12,11.81,11.81,0,0,1,1.7.87Z"/><path id="path26" class="cls-2" d="M110.25,351.61c2.15,2.36,4.78,2.84,7.54,2.85,4.23,0,8.44-.41,12.3-2.45a2.7,2.7,0,0,1,.68-.22c4.27-.93,8.55-1.82,12.81-2.78,1.39-.31,2.72-.89,4.12-1.15,3.88-.74,7.62.22,11.25,1.4,4.64,1.5,8.9,1.48,13.25-1.18,3.21-2,6.52-4,10.42-4.48a19.21,19.21,0,0,1,4.73-.08c2.52.35,5,1,7.5,1.53,1.52.35,3.12.55,4.19,2,.3.42,1.23.4,2.25.69-.66.72-1.09,1.55-1.76,1.86-3,1.35-6,1.91-9.22.56a24.36,24.36,0,0,0-5.33-1.26,8.15,8.15,0,0,0-6.28,1.73c-2.25,1.65-4.49,3.32-6.85,4.81s-5.06,1.2-7.69.92a12.24,12.24,0,0,1-1.86-.44c-3.67-1-7.31-2.2-11-3-3.41-.76-6.84-.09-10.16.83a14.09,14.09,0,0,0-4.08,1.91,24.34,24.34,0,0,1-14.22,4.24,18.7,18.7,0,0,1-3.06-.39c-1.88-.34-3.75-.73-5.63-1.12a17.82,17.82,0,0,1-4.14-1.68,54.36,54.36,0,0,0-10-3.85c-2.58-.69-5.38-.53-8.09-.76a10.49,10.49,0,0,0-3.22.27l-.52-2.89c1.32-.23,2.64-.45,3.95-.75a25.15,25.15,0,0,1,12.75,0,11.84,11.84,0,0,1,5.37,2.86Z"/><path id="path28" class="cls-3" d="M190.18,243.46a11.87,11.87,0,0,1,.12,4.7,17.71,17.71,0,0,1-7.22,10.07,4.62,4.62,0,0,1-5,.28,10.25,10.25,0,0,1-5.71-6.37,38.44,38.44,0,0,1-1.41-4.55,9.58,9.58,0,0,1,.29-4c.15-.56,1.15-1,1.85-1.28,1.7-.6,3.45-1.09,5.2-1.54a4.93,4.93,0,0,0,2.68-1.86c1.65-2.1,3.39-4.13,5.31-6.45a13.62,13.62,0,0,1,2.79,5.86c.3,1.72.84,3.4,1.06,5.12Z"/><path id="path30" class="cls-4" d="M185.23,227.43l-2-1.43,1.89-3a4.76,4.76,0,0,1,.14,4.4Z"/><path id="path32" class="cls-4" d="M183,226.7c.73.92,1.68,1.65,2,2.58.44,1.45-.59,3.53-2.09,5.08-1.37-1.46-1.37-3.45-2.19-5.22L183,226.7Z"/><path id="path34" class="cls-4" d="M179.69,230.21c3.31,5.27,1.42,9-3.44,9.66-.27-1.75-.57-3.5-.8-5.27a1.44,1.44,0,0,1,.3-1.1C177,232.37,178.35,231.31,179.69,230.21Z"/><path id="path36" class="cls-4" d="M175.42,240.46l-2.26.58c-1.75.44-2.56,0-2.83-1.75-.19-1.17-.34-2.34-.5-3.45l4.61-1.64c.34,2.15.65,4.14,1,6.26Z"/><path id="path38" class="cls-4" d="M171.78,260.7c1.67,1.3,1.67,3.3,2.4,4.92.17.38-.32,1.2-.7,1.64a12.8,12.8,0,0,1-1.92,1.54c-2-1.52-2.27-4-3.88-6l4.1-2.14Z"/><path id="path40" class="cls-4" d="M168.93,236.14c.2,1.67.4,3.36.61,5.1-3-.35-3.5-1-4.54-6l3.93.85Z"/><path id="path42" class="cls-1" d="M211.55,139.72c.16,2.58-1.06,4.33-2,6.13a1.91,1.91,0,0,1-1.64.65,6.38,6.38,0,0,1-2.85-1.05,38,38,0,0,0-5.85-3.58,29.5,29.5,0,0,1-5.69-4.31c-2.53-2.29-5-4.71-7.33-7.18s-4.83-5.29-7.21-8c-3-3.38-5.95-6.82-9-10.19A35.6,35.6,0,0,1,163.11,102a34.84,34.84,0,0,0-2.24-3.66c-.71-1.28-1.31-2.63-2-4l.47-.33c1.34,1.38,2.65,2.78,4,4.13,3.13,3.06,6.05,6.41,9.53,9a46.71,46.71,0,0,1,6.68,6.41c2.9,3.26,5.28,7,7.89,10.5,2.8,3.77,5.51,7.59,9.52,10.29,1.78,1.19,3.33,2.66,5.32,3.6a14.25,14.25,0,0,0,6.66,1.57c.78,0,1.56.08,2.53.14Z"/><path id="path44" class="cls-1" d="M204.39,153.73a18.31,18.31,0,0,1-11,6.53l-.19-1c.46-.07.72-.45.62-1.32-.61-.18-1.33-.44-2.07-.59-1-.21-2-.31-3.05-.49-3.52-.63-5.57-3.16-7.61-6-1.38.44-2.32-.3-3.38-1.26-3.73-3.36-6-7.6-7.77-12.18a12.58,12.58,0,0,0-1.36-2.78,36.81,36.81,0,0,1-5.89-14.24c-.52-2.66-1.22-5.27-1.8-7.91-.15-.68-.16-1.39-.29-2.6a8.27,8.27,0,0,1,2.07,3.63c1.74,5.88,5.71,10.45,8.92,15.46a39.81,39.81,0,0,0,5.29,6.46,38.44,38.44,0,0,0,7.21,5.46,159.74,159.74,0,0,1,15,10.83,6,6,0,0,0,4.9,1.61l.39.3Z"/><path id="path46" class="cls-4" d="M161.51,270c-2.21-1.29-1.78-3.52-2.47-5.55l7.54-1.45c.6,1.11,1.18,2.13,1.72,3.17s1.07,2.12,1.78,3.52c-2.59.6-5,1.26-7.48,1.69-.68.12-1.36.23-2,.31l-.12-1A1.59,1.59,0,0,0,161.51,270Z"/><path id="path48" d="M161.42,80l-1.85.17c0-.14-.15-.34-.1-.41,1-1.2,1.77-1.42,2.56-.78a2.89,2.89,0,0,1,.1,3.52c-.55.66-1.25,1.21-2.17,2.09-.87-2.24,2.36-2.54,1.46-4.59Z"/><path id="path50" class="cls-3" d="M165.2,80.76c-.85,2.75-.51,6.23-3.09,8.74-.18.17-.3.38-.49.53-1,.74-1.84,2-3.32,1.37s-1.78-2.18-1.88-3.6a9.62,9.62,0,0,1,.44-2.56c.41-1.94,1-3.84.61-5.88a3.28,3.28,0,0,1,1.36-3.13c.56-.47.82-.78.64-1.56a2,2,0,0,1,1.38-2.25c1-.44,1.58.42,2.18,1.06,1.84,2,1.89,4.47,2.17,7.28Zm-5.73-1c-.05.07.06.27.1.41l1.85-.17c.9,2-2.33,2.35-1.46,4.59.92-.88,1.62-1.43,2.17-2.09A2.89,2.89,0,0,0,162,79c-.79-.64-1.52-.42-2.56.78Z"/><path id="path52" class="cls-4" d="M159.49,269.81c.24.55.55.87.94.87l.12,1c-1.57.22-3.15.35-4.73.45a32.3,32.3,0,0,1-3.94-.22c-1-2.58.37-4.73.3-7.28H156a2.18,2.18,0,0,1,2.5,2,14.27,14.27,0,0,0,1,3.19Z"/><path id="path54" class="cls-1" d="M157.2,114.78c-.15-2.7-.45-5.4-.61-8.1-.18-3-.28-6-.41-9.12.43.16.56.18.57.22.86,3.78,1.74,7.56,2.54,11.36.68,3.19,1.26,6.4,1.89,9.59a40.11,40.11,0,0,0,6.28,16.38,27.42,27.42,0,0,1,2.85,6c1.91,4.94,5.68,8.4,9.29,12a1.78,1.78,0,0,0,1,.58,3.9,3.9,0,0,1,2.78,1.67c2.52,2.72,5.9,3.32,9.29,3.91a1.8,1.8,0,0,0,.51,0l.19,1c-.27.07-.54.12-.82.17-5.95,1-11.88.21-16.78-3.72a21.84,21.84,0,0,1-6-6.67c-1.48-2.82-3.37-5.42-4.82-8.25-1.71-3.33-3.17-6.78-4.66-10.21-.54-1.24-.8-2.58-1.27-3.85-1.54-4.19-1.56-8.58-1.8-13Z"/><path id="path56" class="cls-5" d="M153.41,64.45c.71.9,1.41,1.81,2.11,2.72l-.45.34L153,64.81l.46-.36Z"/><path id="path58" class="cls-4" d="M150.49,264.54c.74,2.22-.4,4.48-.45,6.91a8.36,8.36,0,0,1-4.87-.91l-.42-.24c-4.41-2.33-4.41-2.33-3-7.33l8.7,1.57Z"/><path id="path60" class="cls-5" d="M137.2,45.23c2.27.62,2.78,2.14,3.4,3.56Z"/><path id="path62" d="M138,237.07v1h0v-1Z"/><path id="path64" d="M137.8,243.88l-.32,1-.12,0,.18-1Z"/><path id="path66" class="cls-6" d="M137.61,124.88c1.36,1.75,3,3.45,3.8,5.46,1.64,4,4.38,7.19,6.53,10.81.89,1.5,1.73,3,2.59,4.56q2.82,5,5.63,9.92c.82,1.46,1.59,3,2.42,4.4,1.53,2.7,3.18,5.34,4.62,8.08,2.44,4.65,4.79,9.34,7.1,14,1.82,3.72,3.65,7.44,5.24,11.26,1.46,3.51,2.71,7.13,3.88,10.76,1.58,4.91,3,9.89,4.51,14.82a4.69,4.69,0,0,1-.33,3.92c-2.68,4.56-6.13,8.38-11.07,10.54a27.77,27.77,0,0,1-4.43,1.18c-2.65-.09-3.74-1.06-4.32-3.26-.47-1.76-1.23-3.46-1.65-5.24-1.35-5.82-2.62-11.65-3.9-17.49-.76-3.5-1.7-7-2.15-10.52-.51-4.13-1.85-8.09-2.44-12.16-1-6.66-2.92-13.05-4.64-19.51-1.28-4.83-3.11-9.51-4.63-14.28s-3-9.88-4.59-14.8c-1.23-3.87-2.56-7.7-3.8-11.55a5.17,5.17,0,0,1,0-1.52c.55.18,1.32.2,1.62.58Z"/><path id="path68" class="cls-3" d="M131.88,381c1.83.41,3.5,1.79,5.08,3,.4.31.42,1.55.2,2.23-1.62,5-3.4,9.93-5,14.92a51.86,51.86,0,0,0-1.53,6.52c-.72,3.91-1.3,7.83-2,11.74a13.54,13.54,0,0,1-.56,1.88c-8.47-.64-16.64-1.77-24.42,3.06-.24-1.08-.54-2.1-.68-3.13a42.79,42.79,0,0,1-.63-10.37c.37-3.39.24-6.83.31-10.25.09-4.13.17-8.26.26-12.55a28.43,28.43,0,0,1,3.91-.94c4.1-.4,7.52-2.48,11.06-4.29,1.27-.66,2.53-1.35,3.82-2a3.54,3.54,0,0,1,1.59-.43,49.71,49.71,0,0,1,8.57.62Z"/><path id="path70" d="M136.4,220.06v-.91h.08v.95Z"/><path id="path72" d="M135.93,224.19v-1.76h.14v1.76Z"/><path id="path74" d="M136,229.23v1.71c-.06-.77-.1-1.23-.14-1.7Z"/><path id="path76" d="M135.62,235.46h-.18c0-.28,0-.57.07-1.14.05.57.08.86.11,1.15Z"/><path id="path78" d="M135.09,191.29v1.82h-.21l.09-1.82Z"/><path id="path80" d="M135.17,213.14a2,2,0,0,1-.18.4c0-.06-.05-.13-.16-.4.17-.65.38-1.47.59-2.3l.26.07c-.17.74-.33,1.49-.51,2.23Z"/><path id="path82" class="cls-5" d="M135,437.2c1.48,2.7,1.37,4.11-.67,6,1.37-3.9-1.34-5.76-3.42-7.92,2.3-.56,2.88-.29,4.09,1.89Z"/><path id="path84" d="M134.57,196.12v2.33c-.06-.78-.11-1.54-.17-2.32Z"/><path id="path86" d="M134.57,198.47v0l0,.06Z"/><path id="path88" d="M134.54,198.55c-.16.35-.31.7-.46,1,.14-.33.29-.66.43-1Z"/><path id="path90" d="M133.33,200.57c.39-.67.79-1.32,1.18-2-.14.34-.29.67-.43,1s-.32.75-.49,1.12l-.26-.14Z"/><path id="path92" d="M134.11,218.18v.93H134v-.92Z"/><path id="path94" d="M133.74,182.22l-.09,1.07h-.12c0-.33,0-.66-.05-1l.26-.08Z"/><path id="path96" d="M132.21,176.14c0,.27,0,.53,0,.8h-.16c0-.28,0-.56.08-.85,0,0,.08,0,.08.06Z"/><path id="path98" d="M130.8,169.63l-.32-.06c.07-.54.15-1.09.22-1.63l.49.1Z"/><path id="path100" d="M130.79,433.47c2.17-.1,4.18.38,5.15,2.62s2.42,4.3,1.7,7.09c-1.85.45-2.58,3-5.26,3a17.66,17.66,0,0,1,.53-3c1-2.68,0-4.6-2.14-6.18a4.31,4.31,0,0,1-1.1-.91c-.3-.5-.71-1.29-.52-1.64a2.33,2.33,0,0,1,1.64-1ZM135,437.2c-1.21-2.18-1.79-2.45-4.09-1.89,2.08,2.16,4.79,4,3.42,7.92,2-1.92,2.15-3.33.67-6Z"/><path id="path102" class="cls-7" d="M137.64,443.18c.72-2.79-.74-4.89-1.7-7.09s-3-2.72-5.15-2.62a2.33,2.33,0,0,0-1.64,1c-.19.35.22,1.14.52,1.64a4.31,4.31,0,0,0,1.1.91c2.09,1.58,3.1,3.5,2.14,6.18a17.66,17.66,0,0,0-.53,3c2.68,0,3.41-2.59,5.26-3ZM105.32,432.1c2.37.74,4.7,1.53,7.07,2.19,1.83.52,3.7,1,5.57,1.31a7.72,7.72,0,0,0,5.44-1.39c2.56-1.57,5.34-2.91,7.06-5.8,6.51,5.16,10.25,11.84,13.33,19-3.33,1.44-33.87,3.76-38.94,3a82.91,82.91,0,0,1,.47-18.3Z"/><path id="path104" d="M129.94,155.8l-1.05,9.12-.4,0,1.11-9.12Z"/><path id="path106" d="M128.82,153.19c-.13.72-.27,1.45-.41,2.17l-.37-.09c.17-.71.35-1.42.53-2.13Z"/><path id="path108" class="cls-5" d="M132.83,42.72c-2.3-.27-3-.66-5.36-3.29Z"/><path id="path110" d="M127.58,146.67l.47.11c-.53,1.78-1.07,3.56-1.6,5.34h0Z"/><path id="path112" d="M126.11,128.88c1.22,2.06,1.22,2.06.87,3.24l-1.34-.36,0-.2s0-.07,0-.11C125.82,130.66,126,129.84,126.11,128.88Z"/><path id="path114" d="M127.17,142c1,1.76-.68,3-.89,4.54C125.63,144.81,126.71,143.45,127.17,142Z"/><path id="path116" d="M126.45,152.12v2.54h0v-2.54Z"/><path id="path118" d="M125.58,131.75h0v0h0l0,0Z"/><path id="path120" d="M125.58,131.94v-.19l0,0h0l0,.14Z"/><path id="path122" d="M125.58,131.94c0,.62,0,1.24,0,1.86l-.64-.09C125.15,133.12,125.37,132.53,125.58,131.94Z"/><path id="path124" class="cls-6" d="M135.62,235.46c0-.29-.06-.58-.11-1.15,0,.57-.06.86-.07,1.14Zm.78-16.31v.91l.08,0v-.95Zm-1.83-20.69-.06.13c-.39.66-.79,1.31-1.18,2l.26.14c.17-.37.33-.74.49-1.12s.3-.69.46-1l0-.06v0Zm-7-51.79-1.14,5.45v2.54h0v-2.54c.53-1.78,1.07-3.56,1.6-5.34Zm8.35,77.52h.14v-1.76h-.14Zm-3.88-47.26h.16c0-.27,0-.53,0-.8,0,0-.05,0-.08-.06C132.1,176.37,132.08,176.65,132.05,176.93Zm2.52,21.52v-2.33h-.17c.06.78.11,1.54.17,2.32ZM134,219.1h.09v-.93H134v.92Zm-4.42-63.35-1.11,9.12.4,0,1.05-9.12Zm5.23,57.39c.11.27.13.34.16.4a2,2,0,0,0,.18-.4c.18-.74.34-1.49.51-2.23l-.26-.07c-.21.83-.42,1.65-.59,2.3Zm-8.72-84.26c-.16,1-.29,1.78-.42,2.57a.43.43,0,0,0,0,.11l0,.2h-.06v.19c-.21.59-.43,1.18-.65,1.77l.64.09c0-.62,0-1.24,0-1.86l0-.14h0a0,0,0,0,1,0,0l1.34.36c.35-1.18.35-1.18-.87-3.24Zm2.46,24.26c-.18.71-.36,1.42-.53,2.13l.37.09c.14-.72.28-1.45.41-2.17ZM127.17,142c-.46,1.49-1.54,2.85-.89,4.54C126.49,145,128.16,143.72,127.17,142Zm35.1,87.84c1,3.68,1.89,7.4,3,11.06.92,3.13,2,6.21,3,9.3,1,2.93,2,5.83,3.11,8.85-1.92,1.09-3.51,2.36-5.68,2.64s-4.2.86-6.3,1.3a20.29,20.29,0,0,1-7.61.15c-2.66-.45-5.39-.55-8-1.19a52.26,52.26,0,0,1-6.89-2.6,27.4,27.4,0,0,1-2.62-1.39l-.36.35c.11.38.1,1,.35,1.11,2,1.13,4,2.16,5.89,3.13-.06.8-.06,1.6-.18,2.39s-.34,1.55-.51,2.32a8,8,0,0,1-6-6.27c-.7-4.93-1.36-9.88-2-14.82-.12-.95-.15-1.91-.2-2.87-.18-3.26-.37-6.51-.52-9.77-.17-3.83-.27-7.66-.45-11.48-.28-5.88-.63-11.76-.92-17.64-.32-6.37-.49-12.75-.94-19.11-.3-4.2-1-8.38-1.48-12.57-.24-2-.39-4-.71-5.93a89.71,89.71,0,0,1-1.27-15c0-4.67-.33-9.36-.72-14-.1-1.21.62-2.29.07-3.6-.44-1-.13-2.36-.18-3.55,0-.76-.12-1.52-.19-2.32l9.28-3.66c2,1.87,2.55,4.6,3.42,7.12q2.78,8,5.33,16.09c1.47,4.63,2.85,9.28,4.22,13.94,1.93,6.57,4,13.09,5.64,19.74,1.49,6.26,2.3,12.68,3.57,19,1,5,2.27,9.95,3.38,14.92.7,3.11,1.29,6.24,2,9.35.39,1.7,1,3.35,1.45,5Zm-28.74-46.51h.12l.09-1.07-.26.08c0,.33,0,.66.05,1ZM138,238.1v-1h0v1Zm-.47,6.73.32-1-.26-.06-.18,1ZM136,230.94v-1.71h-.14c0,.47.08.93.14,1.7Zm-.9-37.83v-1.82H135l-.09,1.82Zm-4.29-23.48.39-1.59-.49-.1c-.07.54-.15,1.09-.22,1.63Z"/><path id="path126" class="cls-3" d="M129.31,427.57c-.8,1-1.34,1.72-2,2.38-4.22,4.23-9.08,5.56-14.78,3.25-1.83-.74-3.73-1.29-5.65-1.95,0-1.32,1.14-1.52,1.89-1.77a56.31,56.31,0,0,1,7.78-2.2,34.61,34.61,0,0,1,11.4-.2,9.29,9.29,0,0,1,1.36.49Z"/><path id="path128" class="cls-5" d="M120.17,424.75l2.25-.14c0,.16,0,.32,0,.47l-2.22.13C120.22,425.05,120.2,424.9,120.17,424.75Z"/><path id="path130" class="cls-5" d="M118,422.19l-5.65.66c0-.21,0-.42-.07-.63l5.68-.46c0,.14,0,.29,0,.43Z"/><path id="path132" d="M115.37,60.44c1.58-.1,3.47,2.4,3.43,4.52,0,1.5-2,2.8-4.15,2.82A3.26,3.26,0,0,1,111.34,65,4.83,4.83,0,0,1,115.37,60.44Z"/><path id="path134" class="cls-1" d="M154.83,58.11a53.21,53.21,0,0,1,3,11.52c0,.38,0,.76,0,1.14l-.65.09c-.42-1.9-.83-3.81-1.26-5.71a6.28,6.28,0,0,0-.36-1.37c-3.38-7.13-6.57-14.35-11-21A14,14,0,0,0,139.49,38c-2.94-1.56-5.63-3.6-8.48-5.34-1.77-1.08-3.61-2-5.46-2.95-1.57-.78-3.18-1.48-4.81-2.14a9.64,9.64,0,0,0-2.73-.78,20.29,20.29,0,0,1-8.3-2.79c-.69-.37-1.4-.7-2.11-1-.94-.42-1.26-1.25-.52-2,1.42-1.5,2.57-3.55,5.28-2.86.67.17,1.49-.42,2.26-.46a15.18,15.18,0,0,1,6.89,1.48c1.6.67,3.39.87,5,1.46a35.36,35.36,0,0,1,4.74,2.13A46.18,46.18,0,0,1,138,27.1,35.58,35.58,0,0,1,149,42.2C151.05,47.45,153,52.76,154.83,58.11Z"/><path id="path136" class="cls-1" d="M151.47,58.33c-1.92-2.26-3.76-4.31-5.47-6.47-2.63-3.32-5.13-6.7-9.26-8.4a42.16,42.16,0,0,1-5-2.7c-1.44-.84-2.82-1.77-4.21-2.69a7.74,7.74,0,0,0-4-1.24c-3.15-.17-6.38-.34-8.77-2.88-1.15-1.21-2.22-2.5-3.34-3.75-1.37-1.52-2-3.76-4.26-4.45-.31-.09-.45-.76-.69-1.22,1.1-.69,2-.1,2.77.32a22.37,22.37,0,0,0,9,2.78,3.75,3.75,0,0,1,1.36.35c4.24,2.17,8.84,3.57,12.69,6.56,2.25,1.75,5,2.86,7.39,4.41A11.26,11.26,0,0,1,143,41.9a98.07,98.07,0,0,1,8.24,14.53,8.68,8.68,0,0,1,.41,1.11c0,.12-.06.29-.19.79Z"/><path id="path138" class="cls-6" d="M147.31,454.08a113,113,0,0,1-20,3.79,70.31,70.31,0,0,1-20.25-.94v.21h-.57c0-1.64-1.48-3-.72-4.86,3.15-.18,6.32-.38,9.49-.54,2.74-.14,5.57.13,8.21-.45s5.51-.27,8.18-1.06a1.07,1.07,0,0,1,.47,0c2.79.5,5.54-.2,8.29-.34a9.35,9.35,0,0,1,4.39.36,6.31,6.31,0,0,0,.39,2.34c.37.61,1.24.91,2.17,1.53Z"/><path id="path140" class="cls-1" d="M110,33.54c.83,1.55,1.22,3.43,3.26,4.09.61.19,1.06.93,1.55,1.44a8.83,8.83,0,0,0,4.5,2.54A68,68,0,0,1,134,47c4,2,7,5.06,10.12,8.16,4.55,4.54,7.19,10.45,11.42,15.2,1.38,1.55.73,3.44.85,5.27-.34-.08-.55-.06-.61-.15-1.77-2.54-3.44-5.15-5.3-7.61a19,19,0,0,0-3.14-2.92,60.72,60.72,0,0,0-13.88-9.13c-3.33-1.46-6.39-3.53-9.59-5.29-2.52-1.39-5-2.82-6.65-5.29a13.92,13.92,0,0,0-2.14-1.88c-3.4-3.14-5.43-7.25-7.61-11.21a20.79,20.79,0,0,1-1.3-4.53l.22-.13a15.73,15.73,0,0,1,1.39,1.8c.77,1.39,1.43,2.85,2.17,4.26Z"/><path id="path142" class="cls-5" d="M106,428.86l-1.77.26c0-.19,0-.39,0-.58H106c0,.11,0,.21,0,.32Z"/><path id="path144" class="cls-3" d="M102.58,80.83c1,.48,2.89-.87,3.62-2.44.35-.76-.06-1.16-.82-1.27-2,3.64-2.22,3.33-5.09.35.13.78,0,1.39.32,1.71A6.78,6.78,0,0,0,102.58,80.83ZM93.27,67a2.2,2.2,0,0,0,3,.62,9.88,9.88,0,0,0,2.33-1.13,16.19,16.19,0,0,0,1.94-2.78A43.79,43.79,0,0,0,98,60.07c-1.37-1.63-2.88-1.46-4,.36-.55.86-1.07,1.74-1.55,2.64A3.68,3.68,0,0,0,93.27,67Zm8.17-28.78c1.37-2.75,2.34-5.7,3.53-8.7a34.24,34.24,0,0,0,1.81,4,60.14,60.14,0,0,0,8.87,12.06c3.54,3.52,7.68,5.92,11.73,8.58a26.66,26.66,0,0,0,4.7,2.32,53.58,53.58,0,0,1,15.1,9.91,29.48,29.48,0,0,1,7.17,9.13,17.36,17.36,0,0,1,1,4.1c.15.71-.3,1.52.82,2,.31.13.3,1.47.16,2.2-.36,1.87-1.11,3.69-1.28,5.57-.39,4.3-2.8,7.93-3.67,12a7.32,7.32,0,0,1-1.17,2.08c-1.66,2.62-3.24,5.31-5,7.84-1.47,2.07-3.21,3.95-4.84,5.91-.15.18-.34.34-.5.52-4.38,5.34-10.18,8.1-16.84,9.35-.84.15-1.62.64-2.46.85-3,.76-6,1.67-9,2.14a68.93,68.93,0,0,1-11.62,1.09A48.08,48.08,0,0,1,84,128.45c-1.51-.55-2.81-1.54-4.55-1.58-.69,0-1.41-.71-2-1.2-2.1-1.68-4.21-3.32-6.47-4.82a33.76,33.76,0,0,1-10.16-10.64c-1-1.68-2.49-3.09-3.65-4.69a33.4,33.4,0,0,1-2.5-4,25.83,25.83,0,0,1-1.38-3.55c-.15-.43-.35-1.08-.15-1.33,1.08-1.36,1-3,1.25-4.54,1.18-6.91,5-12.36,9.67-17.25,3-3.11,6.12-6.07,9.31-9,2.3-2.09,4.86-3.88,7.23-5.91,4.53-3.89,9.14-7.7,13.46-11.82a35.79,35.79,0,0,0,7.46-9.89Zm13.21,29.54c2.2,0,4.11-1.32,4.15-2.82,0-2.12-1.85-4.62-3.43-4.52a4.83,4.83,0,0,0-4,4.57A3.26,3.26,0,0,0,114.65,67.78Zm14.63,16.87a7.37,7.37,0,0,1-.62,5.95c-1.48,2.55-3,5.06-4.5,7.62a11.11,11.11,0,0,1-6.79,5.3c-4.28,1.19-8.66,2-13,2.87a13.45,13.45,0,0,1-4.29-.08c-2.14-.29-4.25-.73-6.36-1.19a9.31,9.31,0,0,1-3.13-1c-3-2-5.93-4.28-9-6.33s-4.78-5.23-7.17-7.8c1.51-2.16,1.51-2.16.7-3.56-2,3-4.82,3.88-8.27,2.9.78,1.89.78,1.89,6.37,1l2.36,2.88A35,35,0,0,0,78.8,97a53.61,53.61,0,0,0,5.79,4.6c2.22,1.53,4.44,3.51,6.94,4.1,5.11,1.21,10.28,3.37,15.71,1.26a4.05,4.05,0,0,1,.71-.09c3.31-.68,6.67-1.19,9.92-2.1a12.1,12.1,0,0,0,6.62-4.75,88.71,88.71,0,0,0,4.82-8.24c.72-1.29,1.26-2.69,1.86-4a15.57,15.57,0,0,1,2.44.52c.77.3,1.35.2,1.41-.6a1.15,1.15,0,0,0-1.31-1.31c-2.36,0-2.73-.32-3.38-2.6-.16-.58-.41-1.13-.62-1.7l-.67.11a14.81,14.81,0,0,0,.24,2.5Z"/><path id="path146" class="cls-3" d="M88.79,436.07a17.33,17.33,0,0,1-14.68-4.66,15,15,0,0,1-1.88-2.87c2.46-.9,4.55-1.87,6.74-2.44a45.73,45.73,0,0,1,16.61-.9,7.48,7.48,0,0,1,2.3,1,9.87,9.87,0,0,1,1.65.93c1,.74,2,1.54,3.1,2.46-1.68,2.21-3.79,2.9-5.69,3.8A28.93,28.93,0,0,1,88.79,436.07Z"/><path id="path148" class="cls-5" d="M102.18,425.87l.27.36-.79.7c-.1-.12-.29-.32-.28-.33.26-.25.53-.49.8-.73Z"/><path id="path150" class="cls-3" d="M101.41,390.75a2.82,2.82,0,0,1,.07.44,71,71,0,0,0,0,7.86c.45,4-.22,8-.33,11.94-.09,3.24,0,6.48,0,9.73V422a58,58,0,0,0-11.85-3.2c-2.76-.46-5.43-1.22-8.23-.49a23,23,0,0,0-3.14,1c-1.53.64-3,1.4-4.81,2.26-.79-1.91-1.65-3.59-2.2-5.37-.93-3-1.57-6.18-2.53-9.21-1.85-5.83-3.86-11.61-5.78-17.43-.42-1.28-.74-2.59-1.16-4.08,1-.29,1.94-.52,2.83-.81,2.19-.69,4.34-1.54,6.57-2.09a51.44,51.44,0,0,1,7.27-1.27,7.65,7.65,0,0,1,2.88.81,35.52,35.52,0,0,0,4.71,1.55,12.71,12.71,0,0,1,4.38,1.77c1.63,1,3.33,1.83,5,2.71a6.42,6.42,0,0,0,5.46.48c-.26.93-.41,1.44-.6,2.12Z"/><path id="path152" class="cls-1" d="M106.65,10.11a30.36,30.36,0,0,0,.15,3.57,17.65,17.65,0,0,0,.84,2.64,29.23,29.23,0,0,1,2.41-3.62,22.21,22.21,0,0,1,2.88-2.28l.14.39c-.68,1.74-1.35,3.48-2.07,5.33l-5.86,4.65a18.51,18.51,0,0,0-3.15-3.1c-1.21-.76-2.78-.94-4.52-1.48,1.76-.91,3-2,2.85-3.87,2.36.71.84,3.16,2.16,4.26a7.22,7.22,0,0,0,2.33-8.5,9.11,9.11,0,0,1-.56-2.79C105.45,6.71,106.66,8.08,106.65,10.11Z"/><path id="path154" d="M100.29,77.47c2.87,3,3.12,3.29,5.09-.35.76.11,1.17.51.82,1.27-.73,1.57-2.67,2.92-3.62,2.44a6.78,6.78,0,0,1-2-1.65C100.34,78.86,100.42,78.25,100.29,77.47Z"/><path id="path156" class="cls-5" d="M100.15,25.76c-.44.85-.77,1.47-1.81,1.14C98.52,25.64,99.32,25.89,100.15,25.76Z"/><path id="path158" class="cls-5" d="M96.25,63a4.64,4.64,0,0,1,.76.58l-.36.44-.86-.59c.16-.15.39-.46.46-.43Z"/><path id="path160" d="M96.65,64l.36-.44a4.64,4.64,0,0,0-.76-.58c-.07,0-.3.28-.46.43l.86.59ZM98,60.07a43.79,43.79,0,0,1,2.46,3.66,16.19,16.19,0,0,1-1.94,2.78,9.88,9.88,0,0,1-2.33,1.13,2.2,2.2,0,0,1-3-.62,3.68,3.68,0,0,1-.83-3.95c.48-.9,1-1.78,1.55-2.64,1.16-1.82,2.67-2,4-.36Z"/><path id="path162" class="cls-5" d="M94.91,30.22l.25.24c-.41.44-.83.87-1.24,1.3l-.37-.42Z"/><path id="path164" class="cls-3" d="M84.71,129.9c12.39,3.63,24.57,2.55,36.78-1.21-2.37,5.45-6.71,8.37-11.78,10.58a18.23,18.23,0,0,1-13,.68,19.88,19.88,0,0,1-7.39-4.69c-1.68-1.55-3.65-2.84-4.56-5.36Z"/><path id="path166" class="cls-4" d="M84,132.87c0-.12.15-.23.33-.48,1.51,1.39,3,2.8,4.51,4.16,3.09,2.74,6.47,4.89,10.7,5.43a21,21,0,0,0,10.26-1.18,31.86,31.86,0,0,0,9.25-5.78,15.84,15.84,0,0,0,2.13-2.87l1.46-2c.24,2,.53,3.58.6,5.14.14,3.5,0,7,.26,10.49.46,6.68.39,13.38,1.54,20,1,6.05,1.71,12.18,2.21,18.3.53,6.35.71,12.74,1,19.11.36,8.93.64,17.87,1,26.8.06,1.67.37,3.33.51,5,.17,2.15.26,4.3.43,6.45.21,2.62.51,5.23.7,7.85.22,2.85.36,5.72.56,8.86a24,24,0,0,1-3.76.91c-3.33.27-6.69.43-10,.5-4.15.08-8.31,0-12.46,0a6.64,6.64,0,0,1-1.89-.19c-2.89-.85-5.74-1.85-8.66-2.61a9.51,9.51,0,0,1-4.37-2.29,28.06,28.06,0,0,0-3.43-2.4c0-1.25,0-2.68,0-4.1L87,232.2c.07-4.94.17-9.88.2-14.83,0-4.78.08-9.57-.09-14.34s-.52-9.71-.91-14.56c-.22-2.78-.79-5.53-1-8.3-.42-5.65-.71-11.31-1-17-.24-4.22-.47-8.45-.63-12.67a27.12,27.12,0,0,1,.15-4.77,54.18,54.18,0,0,0,.32-11.94A6,6,0,0,1,84,132.87Z"/><path id="path168" d="M81,133.06l1.22.86-.37.39-1.12-.86.27-.39Z"/><path id="path170" class="cls-4" d="M85.47,255.6c.89,5.73-.31,9.2-6.29,11.6-.38-2.08-.8-4.14-1.14-6.22-.39-2.43-.33-2.46,2.33-2.34.61,1.69,1.23,3.43,1.85,5.17l.69-.19c-.44-2-.88-3.95-1.34-6.05l3.9-2Z"/><path id="path172" d="M80.3,194.34l-1-2C80.78,192.56,80.24,193.61,80.3,194.34Z"/><path id="path174" d="M80.09,137a4.28,4.28,0,0,1-.35-.87,2.55,2.55,0,0,1,0-.67l.3-.07.54,1.82a1.74,1.74,0,0,0-.26.15A2.18,2.18,0,0,1,80.09,137Z"/><path id="path176" d="M79.23,171.69a1.72,1.72,0,0,1,.46,2.33C79.54,173.24,79.38,172.46,79.23,171.69Z"/><path id="path178" d="M79.13,171.46a.76.76,0,0,1,.08.11l-.08-.1Z"/><path id="path180" d="M79.23,171.69l-.08-.06s.06-.06.06,0S79.22,171.65,79.23,171.69Z"/><path id="path182" d="M79.21,171.57h0s-.06,0-.06,0a.88.88,0,0,0,0-.16Z"/><path id="path184" class="cls-5" d="M79.14,267.22h0s0,0,0,.06l0,0Z"/><path id="path186" class="cls-5" d="M79.14,267.22l0,0-.09,0Z"/><path id="path188" d="M77.89,169.6c1,.3,1.19,1.05,1.24,1.86C78.72,170.85,78.31,170.22,77.89,169.6Z"/><path id="path190" d="M78.4,139.57l.47-.18c.46,1.25.91,2.51,1.37,3.76l-.52.2-1.32-3.78Z"/><path id="path192" d="M77.8,244.67l.42-.14c.21.7.41,1.39.61,2.09l-.43.15-.6-2.1Z"/><path id="path194" d="M78,211.81l.18.89-.2,0c-.06-.29-.12-.58-.17-.88Z"/><path id="path196" class="cls-4" d="M76.75,259.61c.21,1.83.45,3.68.61,5.55.14,1.59.25,1.78,1.74,2.09A14.85,14.85,0,0,1,71,270.6c-2.39-3.61-1.36-7.23-.51-11Z"/><path id="path198" d="M76.87,163.71l.44-.37,1.25,2.15-.26.17-1.43-1.95Z"/><path id="path200" d="M76.36,204.5c2.31,1.26,4.08,5.85,3.62,9.09C78.78,208.21,78.16,206.69,76.36,204.5Z"/><path id="path202" d="M76,213.69c.21,1,.42,2,.64,3.05l-.37.09c-.24-1-.49-2-.73-3l.46-.11Z"/><path id="path204" d="M76.47,222.61,77.54,225l-.33.17L76,222.85l.5-.24Z"/><path id="path206" class="cls-6" d="M80.75,133.45l1.12.86.37-.39L81,133.06l-.27.39ZM76,213.69l-.46.11c.24,1,.49,2,.73,3l.37-.09c-.22-1-.43-2-.64-3.05Zm4.58-76.45-.54-1.82-.3.07a2.55,2.55,0,0,0,0,.67,4.28,4.28,0,0,0,.35.87,2.18,2.18,0,0,0,.26.36A1.74,1.74,0,0,1,80.61,137.24Zm-.89,6.11.52-.2c-.46-1.25-.91-2.51-1.37-3.76l-.47.18,1.32,3.78ZM78.16,212.7l-.18-.89-.19,0c0,.3.11.59.17.88Zm1-41.24h0a.88.88,0,0,1,0,.16l.08.06c.15.77.31,1.55.46,2.33a1.72,1.72,0,0,0-.46-2.33s0-.07,0-.11h0a.76.76,0,0,0-.08-.11c0-.81-.23-1.56-1.24-1.86C78.31,170.22,78.72,170.85,79.13,171.46Zm1.55-41.35a1.08,1.08,0,0,0,.47.8c1.85.93,1.81,2.72,1.81,4.32,0,3.42-.26,6.84-.33,10.26-.06,2.64-.07,5.27,0,7.91.1,3.18.27,6.37.47,9.55.43,6.93.82,13.86,1.37,20.77.36,4.52,1.2,9,1.44,13.53.34,6.53.41,13.07.43,19.61,0,4.85-.25,9.7-.32,14.55-.09,6.21-.27,12.44-.06,18.64a5.43,5.43,0,0,1-3.38,5.49,23.94,23.94,0,0,1-14.38,2.27,62.15,62.15,0,0,0-6.66-.59,46.61,46.61,0,0,1-14-2.66c-.74-.25-1.56-.29-2.31-.54a14.4,14.4,0,0,1-7.72-6.45,62.25,62.25,0,0,1,2.06-7.52c1.61-3.88,2.64-8,3.93-11.92,1.61-4.95,3.68-9.78,4.41-15,.32-2.25,1.32-4.4,2-6.61,1.46-5.05,2.8-10.13,4.34-15.15s2.53-10,4.52-14.84c1.68-4.1,2.63-8.5,3.89-12.77.43-1.44.83-2.89,1.27-4.33,2-6.55,4.07-13.07,5.88-19.66,1.41-5.13,2.45-10.36,3.75-15.91.84.58,1.48,1,2.08,1.45a17.52,17.52,0,0,0,2.48,1.87c1.33.64,2.54,1.23,2.62,3ZM76.36,204.5c1.8,2.19,2.42,3.71,3.62,9.09C80.44,210.35,78.67,205.76,76.36,204.5Zm3.94-10.16c-.06-.73.48-1.78-1-2Zm-1.47,52.28c-.2-.7-.4-1.39-.61-2.09l-.42.14.6,2.1.43-.15Zm-.27-81.13-1.25-2.15-.44.37,1.43,1.95.26-.17Zm-1,59.49-1.07-2.37-.5.24,1.24,2.3.33-.17Z"/><path id="path208" class="cls-5" d="M75.47,43.6,73,46l-.16-.15a5.32,5.32,0,0,1,2.28-2.64Z"/><path id="path210" class="cls-5" d="M72.81,45.88,73,46c-.86,1-1.72,2.08-2.57,3.13l-.5-.45Z"/><path id="path212" class="cls-5" d="M71.94,26.2A4.73,4.73,0,0,1,75.06,24,3.79,3.79,0,0,1,71.94,26.2Z"/><path id="path214" class="cls-5" d="M71.94,26.2l0,.06s-.06-.05,0-.05Z"/><path id="path216" class="cls-5" d="M71.91,26.26a1.51,1.51,0,0,0-.18.09l.13-.14s0,.05,0,.05Z"/><path id="path218" class="cls-5" d="M71.86,26.21l-.13.14h0l.14-.15Z"/><path id="path220" d="M128.66,90.6a7.37,7.37,0,0,0,.62-5.95,14.81,14.81,0,0,1-.24-2.5l.67-.11c.21.57.46,1.12.62,1.7.65,2.28,1,2.62,3.38,2.6A1.15,1.15,0,0,1,135,87.65c-.06.8-.64.9-1.41.6a15.57,15.57,0,0,0-2.44-.52c-.6,1.33-1.14,2.73-1.86,4a88.71,88.71,0,0,1-4.82,8.24,12.1,12.1,0,0,1-6.62,4.75c-3.25.91-6.61,1.42-9.92,2.1a4.05,4.05,0,0,0-.71.09c-5.43,2.11-10.6-.05-15.71-1.26-2.5-.59-4.72-2.57-6.94-4.1A53.61,53.61,0,0,1,78.8,97a35,35,0,0,1-3.22-3.84l-2.36-2.88c-5.59.94-5.59.94-6.37-1,3.45,1,6.24.09,8.27-2.9.81,1.4.81,1.4-.7,3.56,2.39,2.57,4.13,5.74,7.17,7.8s5.92,4.3,9,6.33a9.31,9.31,0,0,0,3.13,1c2.11.46,4.22.9,6.36,1.19a13.45,13.45,0,0,0,4.29.08c4.38-.82,8.76-1.68,13-2.87a11.11,11.11,0,0,0,6.79-5.3c1.47-2.56,3-5.07,4.5-7.62Z"/><path id="path222" class="cls-4" d="M68.83,259.32v11.52c-2,.27-4.06.76-6.34,0-.84-.27-1.7-.49-2.54-.73l.3-1.06c.92-.4,1.26-.84,1-1.75-1-2.8-.25-5.63-.33-8.6l8,.58Z"/><path id="path224" class="cls-5" d="M70.33,436a22.41,22.41,0,0,0-5.2,7.69c-.89-2.78-.46-4.26,1.45-5.56.79-.54,1.55-1.12,2.36-1.62A7.2,7.2,0,0,1,70.33,436Z"/><path id="path226" d="M66.58,438.1c-1.91,1.3-2.34,2.78-1.45,5.56a22.41,22.41,0,0,1,5.2-7.69,7.2,7.2,0,0,0-1.39.51C68.13,437,67.37,437.56,66.58,438.1Zm-2.81,7.48c-2.05-7.48,4-11.44,8.93-10.79L72.31,437a9.1,9.1,0,0,0-5.48,9.12l-3.06-.54Z"/><path id="path228" class="cls-5" d="M64.54,60.32c-.1.23-.39.37-.6.56l-.36-.35c.24-.4.48-.81.71-1.22l.35.1A3,3,0,0,1,64.54,60.32Z"/><path id="path230" class="cls-7" d="M63.77,445.58l3.06.54A9.1,9.1,0,0,1,72.31,437l.39-2.21c-5-.65-11,3.31-8.93,10.79Zm26,7.5a15.41,15.41,0,0,0-2.15,0c-2.3-.16-4.6-.29-6.89-.52a69.83,69.83,0,0,1-7.36-.94,74.21,74.21,0,0,1-14-3.89,1.46,1.46,0,0,1-.77-2.18,58.56,58.56,0,0,1,2.94-6.26c2.35-4,5.22-7.63,9.63-9.66a30.82,30.82,0,0,0,3.56,3.81A18.54,18.54,0,0,0,89,437.37c3.79-.55,7.11-2.13,10.47-3.74l3.5-1.7c1.06,1.7.61,3.49.59,5.19,0,3.66-.25,7.32-.42,11a9,9,0,0,1-.33,2.08,2.59,2.59,0,0,1-2.2,1.9C97,452.73,93.49,453.89,89.76,453.08Z"/><path id="path232" class="cls-5" d="M71.71,26.36c-1.1,1.11-2.17,2.26-3.31,3.33-1.58,1.5-3.23,2.94-4.85,4.42a1.5,1.5,0,0,0,0-.29,1.89,1.89,0,0,1,0-.59.27.27,0,0,1,.07-.13C66.23,30.76,68.41,27.89,71.71,26.36Z"/><path id="path234" class="cls-5" d="M63.55,34.11v.09h0v-.06Z"/><path id="path236" class="cls-5" d="M63.54,34.19h0Z"/><path id="path238" class="cls-5" d="M63.53,34.12v.06l0,0Z"/><path id="path240" class="cls-5" d="M63.53,34.18h-.08l0,0Z"/><path id="path242" class="cls-5" d="M61.06,36.2a5.33,5.33,0,0,1,1-1.65,1.33,1.33,0,0,1,.39-.21l.16,0c.21,0,.46-.07.79-.1l-2.38,2Z"/><path id="path244" class="cls-6" d="M58.52,449.1a10.24,10.24,0,0,1,1.68.17c4,1.14,7.92,2.49,12,3.41,2.94.66,6,.64,9,1.17,4.44.78,8.91.62,13.36.58,2.35,0,4.69-.84,7-1.31a2.78,2.78,0,0,1,3.44,3.23c-.08.43-.81,1-1.32,1.07a49.11,49.11,0,0,1-7.28,1.28c-5.42.29-10.85.35-16.28.39a29.49,29.49,0,0,1-4-.66,14.23,14.23,0,0,0-2.61-.13,50.48,50.48,0,0,1-15-1.25V449.1Z"/><path id="path248" class="cls-1" d="M103.49,26c.65,2.39-.13,4.56-.85,6.69-2.58,7.55-7.5,13.45-13.44,18.55-5.26,4.51-10.74,8.77-16,13.27-2.78,2.37-5.29,5.06-8,7.53a45.45,45.45,0,0,0-7.41,8.67,7.16,7.16,0,0,1-.8.86l-.47-.31c.58-1.37,1.15-2.74,1.75-4.1Q60.52,72,62.8,66.93c.61-1.38,1.36-2.7,1.9-4.11a42.53,42.53,0,0,1,9.94-14.69A93.89,93.89,0,0,1,88.39,37c4.37-3,8.88-5.93,12.73-9.66a11.44,11.44,0,0,1,1.52-1.15,3.44,3.44,0,0,1,.85-.21Z"/><path id="path250" class="cls-4" d="M59.93,269.22l.32-.13-.3,1.06a14.55,14.55,0,0,1-4.53-1.93,15.58,15.58,0,0,0-3.7-1.32A23.73,23.73,0,0,1,54.35,258l5.42.85a52.46,52.46,0,0,0,.16,10.38Z"/><path id="path252" class="cls-5" d="M52.29,90.14c-.23.92-.37,1.5-.64,2.6-.37-1.07-.57-1.66-.81-2.34l1.45-.26Z"/><path id="path254" class="cls-1" d="M51.73,86.25c-.21.81-.53,1.6-.8,2.39l-.51-.15a59.8,59.8,0,0,1-.61-12.61A6,6,0,0,1,50,74.69c1.23-4.93,2.76-9.76,4.45-14.57C56.88,53.09,60.92,47,65.12,41a27.44,27.44,0,0,1,5.74-6C77.3,30.05,84.21,26,92.53,25.18a41.07,41.07,0,0,1,5.78-.54c-.6.36-1.23.69-1.81,1.08-3.5,2.36-7,4.69-10.47,7.1A90.33,90.33,0,0,0,77.59,39a96.6,96.6,0,0,0-7.94,8.24,53.79,53.79,0,0,0-8.83,13,92.06,92.06,0,0,0-6.2,15.72c-.46,1.77-1.14,3.48-1.63,5.24S52.18,84.56,51.73,86.25Z"/><path id="path256" class="cls-4" d="M52.92,257.5c-.92,3-1.75,5.68-2.63,8.51l-8.11-4c.52-2.21,1-4.4,1.63-6.89Z"/><path id="path258" class="cls-8" d="M150.5,330a41.39,41.39,0,0,0,4.06,2,1.58,1.58,0,0,0,.69.21c3.31,0,6.7.27,9.56-2a2.94,2.94,0,0,0,1-1.05c.94-2.15,2.84-3.45,4.46-4.93,2.24-2.06,5-1.83,7.66-.84,1.71.63,3.35,1.46,5,2.17a3.29,3.29,0,0,0,1.59.45c2.86-.57,4.73,1.2,6.48,2.87a90.83,90.83,0,0,1,6.27,6.88c1,1.15.89,1.31.27,2.84a2.73,2.73,0,0,1,1.6,2.8,17.88,17.88,0,0,0,.68,3.74c-5.38-2-10.92-3.55-16.79-2.93a44.87,44.87,0,0,0-6.24,1.57c-1.35,2.25-4.11,2.16-6,3.64-3.26,2.56-7,2-10.68.78-5.21-1.67-10.34-2.76-15.84-.67-3.3,1.26-7,1.54-10.46,2.32a33.2,33.2,0,0,0-5,1.42c-5,2-10,2.62-15.18,1.06-.53-.16-1.3-.3-1.48-.68-1.15-2.37-3.89-2.24-5.64-3.71-.86-.72-2.45-.53-3.68-.86-3.5-.93-6.9-.28-10.34.46-4,.86-8,1.35-12,2.33a42.4,42.4,0,0,1-10.13,1.38,29.46,29.46,0,0,1-12.13-2.9,12.88,12.88,0,0,1-2.83-2.16c-2.31-2-4.46-4.12-6.92-5.86-3.55-2.52-7.52-2.74-11.62-1.29a32.57,32.57,0,0,1-5.69,1.78A32.67,32.67,0,0,1,25,341c-.46,0-1-.52-1.34-.91-.75-.82-1.41-1.72-2.33-2.87,2.5-3,4.87-5.86,7.33-8.66a3.18,3.18,0,0,1,1.91-.8A17.87,17.87,0,0,0,38,325.36c2.2-1.28,4.58-2.25,6.78-3.5,3.12-1.78,9.17-.5,11.1,2.35,1.65,2.44,3.77,4.54,5.55,6.89,2.68,3.53,6.12,4.62,10.35,3.6.77-.19,1.53-.43,2.31-.58A38.9,38.9,0,0,0,88.45,328a30,30,0,0,1,9.28-4.29c2.88-.74,4.82.48,6.63,2.22,1.25,1.2,2.13,2.77,3.32,4,1.74,1.84,3.5,3.49,6.42,3.53a13.2,13.2,0,0,0,10.82-5c3.47-3.94,7.93-6.49,13.55-5.63a8.26,8.26,0,0,1,3,1.29c3,1.9,6,3.94,9,5.84Z"/><path id="path260" class="cls-1" d="M48.89,78.65c-.07.79,0,1.58,0,2.38l-.52,0a9,9,0,0,1-.66-4.47c.54-4.75,1.12-9.49,1.64-14.24a47.57,47.57,0,0,1,4.44-15.29,29.69,29.69,0,0,1,5.91-7.76A153.29,153.29,0,0,1,72.06,28.06,84.63,84.63,0,0,1,83.2,20.68a18.26,18.26,0,0,1,6.35-2,46.33,46.33,0,0,1,8.07-.36c2.68.08,4.94,1.1,6,4.07-1,.2-1.8.4-2.65.55-4.78.85-9.63,1.41-14.33,2.59-5,1.26-9.47,4-13.77,6.92a30.08,30.08,0,0,0-8.49,8c-3.32,5.05-7,9.89-9.27,15.57s-4.57,11.21-5.7,17.19A49.55,49.55,0,0,0,48.89,78.65Z"/><path id="path264" d="M44.56,89.57,47,89.25c-1,1.61-1.77,2-2.6,1.56s-1.85-3-1.57-3.76c.5-1.34,1.8-1.82,3.92-1.28l-3.06,1.7c.35.86.61,1.47.87,2.1Z"/><path id="path266" class="cls-3" d="M42.83,87.05c-.28.77.78,3.3,1.57,3.76s1.61,0,2.6-1.56l-2.44.32c-.26-.63-.52-1.24-.87-2.1l3.06-1.7c-2.12-.54-3.42-.06-3.92,1.28Zm1.78-4.92a1.74,1.74,0,0,1,2.82.87c1.19,3.94,2.37,7.89,3.6,12a7.89,7.89,0,0,1-1.7,1.82c-1.36.77-2.49.42-3.84-.65-4.17-3.3-4.07-6.23-2.84-11.09a7.53,7.53,0,0,1,2-2.94Z"/><path id="path268" class="cls-4" d="M42.74,254.79l-2,6.06c-4.48-2.55-5.78-6.07-3.78-11.1Z"/><path id="path270" class="cls-6" d="M64.72,135.62c1.62-3.09,3.49-6.06,5.29-9.06a8.3,8.3,0,0,1,1.23-1.29l.46.21c-.31,1.52-.57,3-.94,4.56-1.4,5.8-2.71,11.63-4.29,17.39-1.36,5-3.06,9.9-4.56,14.85-1.38,4.58-2.65,9.18-4,13.75-1.05,3.43-2.27,6.8-3.28,10.23-2.2,7.41-4.33,14.84-6.44,22.27-.83,2.92-1.43,5.9-2.3,8.79-1.34,4.41-2.83,8.78-4.25,13.16-.64,2-1.3,3.92-1.92,5.81-7.53,1.6-15.15-3-18.55-9a2.29,2.29,0,0,1,0-2.64,90.34,90.34,0,0,0,5-8.66c2.13-4.51,5-8.71,6.19-13.64a16.52,16.52,0,0,1,1.17-2.62c1.41-3.19,2.8-6.4,4.24-9.58.78-1.74,1.63-3.45,2.5-5.15,2.22-4.32,4.53-8.59,6.68-12.94,1.4-2.85,2.49-5.86,3.9-8.71,2-3.91,4.1-7.72,6.12-11.6,1.1-2.12,2.12-4.28,3.14-6.45,1.53-3.23,2.9-6.53,4.56-9.7Z"/><path id="path272" class="cls-4" d="M36.33,238h2.46a25.89,25.89,0,0,1-2.16,8.2A13.26,13.26,0,0,1,29,244.07c.59-1.51,1.09-2.84,1.62-4.16,1.05-2.58,1.43-2.73,4.45-1.71-.34,1-.67,2.07-1,3.1a4,4,0,0,0-.07,3.48c1.46-2.17.8-4.86,2.39-6.76Z"/><path id="path274" class="cls-8" d="M53.54,268.37A20.89,20.89,0,0,0,56.26,270c4.23,1.72,8.46,2.94,13.23,2.25,5.23-.77,9.69-3,14-5.82a9,9,0,0,0,4-7.26c.09-1.44-.64-3-.17-4.65a30,30,0,0,0,4.58,2.74c2.73,1.06,5.61,1.75,8.41,2.65,3.08,1,6.26,1,9.44,1h.48c6.71-.38,13.46.22,20.14-.84a5.26,5.26,0,0,1,.8,0c1.61,3.63,3.54,6.79,7.25,8.53,2.48,1.16,4.88,2.49,7.33,3.73a2.89,2.89,0,0,0,.93.23,68.79,68.79,0,0,0,7.81.85,62.57,62.57,0,0,0,8.52-.76,32.18,32.18,0,0,0,4.59-1.17c2.21-.64,3.15-.35,4.46,1.62,2.92,4.38,5.8,8.79,8.69,13.18a3.51,3.51,0,0,0,.27.4,34.41,34.41,0,0,1,6.16,11c.77,2,1.29,4.09,2.06,6.09,1.06,2.75,2.27,5.44,3.38,8.17a3.42,3.42,0,0,1-1.17,4.44,5,5,0,0,1-2.56,1.16,46.5,46.5,0,0,1-7.06-.69,23,23,0,0,1-4.26-1.44c-1.1-.42-2.14-1-3.23-1.4a3.71,3.71,0,0,0-1.76-.48,18,18,0,0,0-4.63,1.1c-2.53,1.12-5.07,2.3-7,4.45a8.33,8.33,0,0,1-11.63.49,32.44,32.44,0,0,0-5.7-4.35c-3.29-1.92-6.78-3-10.66-1.51a45.09,45.09,0,0,0-9,4.37c-.53.36-1,.8-1.54,1.13a29.38,29.38,0,0,1-2.65,1.43,13.81,13.81,0,0,0-2.65,1.05c-1.92,1.49-3.84.66-5.7.13-.67-.19-1.16-1-1.71-1.58-1.38-1.43-2.68-2.94-4.15-4.27a3.74,3.74,0,0,0-2.2-.7,27.11,27.11,0,0,0-9,1c-2.44.73-4.87,1.51-7.33,2.16A20.67,20.67,0,0,0,79.77,322c-3.3,2.48-7.15,3.48-11.08,4.19a3.07,3.07,0,0,1-2.31-.84c-1.38-1.42-2.55-3.05-3.82-4.59-1.42-1.72-2.75-3.53-4.32-5.11-.74-.74-2-1-2.91-1.55-5.26-3.22-10.59-2.88-16-.36-2.37,1.12-4.7,2.33-7.08,3.44a18.34,18.34,0,0,1-2.91,1.05,3.57,3.57,0,0,1-4.68-2.11,3.06,3.06,0,0,1,0-1.75,2.63,2.63,0,0,1,.67-1.25c2.78-2.95,4-6.77,5.93-10.22,2-3.69,4.09-7.37,6.15-11,1.47-2.65,2.89-5.33,4.47-7.91a94.3,94.3,0,0,1,9.52-12.81c.68-.77,1.25-1.63,2.11-2.76Z"/><path id="path276" class="cls-4" d="M28,243.18c-3.11.56-4.22-2.2-2.75-4.15a28.91,28.91,0,0,0,2.12-3.92c1,.55,2,1.17,3.34,1.93L28,243.18Z"/><path id="path278" class="cls-2" d="M171.16,314.8a3.12,3.12,0,0,1,2.25.33,10,10,0,0,0,4.2,1.61,4.25,4.25,0,0,1,1.82.55c2.28,1.47,4.85,1.4,7.4,1.52a7.76,7.76,0,0,0,6.78-3.11c1.84,2.49,1.52,4.5-1,6.17-.66.44-1.33.88-2,1.28-3.9,2.3-7.68,1.32-11.35-.57a10.27,10.27,0,0,0-4.07-1.16,6.57,6.57,0,0,0-5.29,1.61c-1.66,1.6-3.29,3.23-4.8,5a7.77,7.77,0,0,1-5,2.82,13.38,13.38,0,0,1-9.69-2.45c-2.65-1.77-5.49-3.27-8-5.18-2.8-2.1-5.72-1.94-8.86-1.37-4.28.78-7.39,3.45-10,6.58-3.1,3.75-7.09,4.14-11.27,3.45-1.4-.23-2.61-1.95-3.79-3.11-1.42-1.39-2.67-2.95-4.06-4.36a6.88,6.88,0,0,0-7.61-1.68,27.89,27.89,0,0,0-7.52,3.56,41.53,41.53,0,0,1-17.55,7.17c-2.89.44-5.75.59-8.12-1.63a10.84,10.84,0,0,1-.85-.81c-1.9-2.35-3.92-4.62-5.66-7.08a10.7,10.7,0,0,0-13.53-2.82c-2,1.08-4,2.07-5.94,3.1-.71.36-1.41.76-2.14,1.06-4.68,1.92-8.59,1.65-12.4-2.78-.46-.55-1-1.05-1.66-1.79L23.11,317c.47.09.68.07.75.16,2.47,2.92,3.18,3.22,6.78,1.95,2.24-.79,4.33-2,6.53-2.91,2.42-1,4.85-2,7.33-2.81,3.42-1.15,6.51-.06,9.66,1.39,3.66,1.69,5.92,4.64,8.11,7.8a39,39,0,0,0,3.42,4,3.36,3.36,0,0,0,3.27.95A27.67,27.67,0,0,0,81,322.66c3.77-2.79,8.17-3.85,12.52-5,2.22-.6,4.59-.63,6.83-1.18,3.22-.79,5.36.71,7.26,3,.3.37.53.8.81,1.19,2.47,3.52,5.35,4.17,9.22,2.08.21-.11.4-.32.62-.35,3.37-.41,5.46-3.18,8.29-4.53a41.09,41.09,0,0,1,8.65-3.39,10.19,10.19,0,0,1,8.1,2.1c2.05,1.5,4,3.1,6.07,4.62a8.5,8.5,0,0,0,11.13-.28,24.26,24.26,0,0,1,5.58-4.05,38.68,38.68,0,0,1,5.07-2Z"/><path id="path280" class="cls-2" d="M26.12,342.16c1.41-.06,2.88.35,4.25.11a34.31,34.31,0,0,0,6.19-1.74,12.46,12.46,0,0,1,13.18,2.2c1.83,1.52,3.64,3.09,5.32,4.77A16.63,16.63,0,0,0,61.23,351a21.33,21.33,0,0,0,10.65,1.55c3-.42,6-.17,8.88-1.41a29.51,29.51,0,0,1,5.76-1.37c.55-.12,1.11-.22,1.66-.32l.52,2.89c-1.36.29-2.68.74-4,1.06-3.56.84-7.06,2-10.65,2.66a41.08,41.08,0,0,1-9.71,1,9.71,9.71,0,0,1-6.75-2.57c-1.38-1.41-2.85-2.71-4.16-4.23a27.82,27.82,0,0,0-5-4.06,3.34,3.34,0,0,0-2.07-.35c-2.07.16-4.13.38-6.18.71a39.11,39.11,0,0,1-9.19.9c-4.07-.29-7.4-1.39-9.73-4.95-.53-.81-1.62-1.25-2.56-1.94l1.85-2.34,2.21,2.42a4.09,4.09,0,0,0,3.39,1.44Z"/><path id="path282" class="cls-4" d="M24.49,233.28c1.64,1.23,1.8,1.54.94,3.29-.72,1.49-1.66,2.87-2.52,4.32-1.89-.21-2.21-1.58-2.86-2.66.88-2,1.76-4,2.75-6.25C23.42,232.46,24,232.88,24.49,233.28Z"/><path id="path284" class="cls-4" d="M21.09,232.91a23.66,23.66,0,0,0-1.32,3.47l-.68-.06a8,8,0,0,1,.82-8.44C21.5,229.37,22.25,230.84,21.09,232.91Z"/><path id="path286" class="cls-1" d="M52.72,103.19a21.18,21.18,0,0,0-1.09-2.84l.5-1.36c.36.77.55,1.17.73,1.58a47.73,47.73,0,0,1,2.71,6.09A34.27,34.27,0,0,1,57,114.15c.27,4,.15,8.13.25,12.19s-1.32,7.52-2.35,11.2a78,78,0,0,1-5.74,13.62,24.25,24.25,0,0,1-6.73,7.94,59.39,59.39,0,0,1-5.88,4.42,41.52,41.52,0,0,1-8.27,4.2A13.29,13.29,0,0,1,18.5,167l-.29-.14.28-.58a4.15,4.15,0,0,0,1.54,0c3.39-1.54,6.81-3,9.72-5.42a22.82,22.82,0,0,0,6.45-7.53c.65-1.36,1.64-2.55,2.4-3.86q3.49-6,6.93-12a5.7,5.7,0,0,0,.38-.88c2.68-7.42,5.63-14.79,6.52-22.68.4-3.52,1-7.12.29-10.7Z"/><path id="path288" class="cls-3" d="M35.35,248.08c-3.37,5.27-6.83,10.24-12.89,12.52-3.68,1.38-7.52-.29-9.7-3.54s-2.14-7-1.41-10.59a47.3,47.3,0,0,1,3.24-8.67,12,12,0,0,1,2-2.52,5.44,5.44,0,0,1,1.24,5.48c1.45-.39,2.17.25,3.07.82a74.21,74.21,0,0,0,8.2,4.28c1.93.88,4,1.44,6.23,2.22Z"/><path id="path290" class="cls-8" d="M24.85,347.43c.68.22,1.32.58,2,.8a12.73,12.73,0,0,0,2.27.55c1.49.18,3,.31,4.49.39a8.53,8.53,0,0,0,1.87-.22l9.39-1.81c1.86-.36,3.22.34,4.79,1.42,3.13,2.16,5,5.55,8.14,7.65a11.87,11.87,0,0,0,7.39,2.1c2.15-.1,4.3-.28,6.44-.49a19.09,19.09,0,0,0,2.81-.54q3.7-.9,7.39-1.85c1.85-.48,3.66-1.15,5.54-1.45,5.73-.94,11.41-1,16.83,1.56,2.44,1.13,4.85,2.35,7.31,3.45a13.87,13.87,0,0,0,2.74.76c1.85.43,3.74.75,5.57,1.24,3,.79,5.88.09,8.78-.38,3.29-.53,6.08-2.18,8.85-4a16.24,16.24,0,0,1,5.25-2.18,18.2,18.2,0,0,1,9.68.2,49.44,49.44,0,0,0,6.1,1.19,7.14,7.14,0,0,1,2.27.69c2.09,1.28,4.38,1.25,6.7,1.36a8.32,8.32,0,0,0,5.35-1.67c2.4-1.7,4.85-3.34,7.27-5a7,7,0,0,1,6.17-.85c1.45.41,2.86,1,4.33,1.28a10.52,10.52,0,0,1,5.24,3.47c2.27,2.4,3.26,5.44,4.26,8.47.45,1.34.73,2.75,1.05,4-.55.72-1.3,1.28-1.44,2-.48,2.24-2.31,2.81-4,3.19a16.82,16.82,0,0,1-7.31.08,76.9,76.9,0,0,1-8.64-2.29,19.51,19.51,0,0,0-10.62-.65c-3,.7-6.1,1.2-9.1,2a8.34,8.34,0,0,0-2.61,1.58,29.09,29.09,0,0,1-8.22,4.76c-2.37.77-4.36.16-6.41-.86a10.38,10.38,0,0,0-3.08-1c-1.72-.26-3.26-.64-4.32-2.2a2.75,2.75,0,0,0-1.5-1.11c-6.08-1.31-12.15-1.92-18,.9a29.6,29.6,0,0,0-2.92,1.61,30.49,30.49,0,0,1-11.67,4,1.93,1.93,0,0,1-.71,0c-3.42-1-7.13-.84-10.31-2.85-2.28-1.44-4.75-2.58-7.13-3.85-2.17-1.16-4.52-.77-6.82-.76-3.31,0-6.06,1.74-9,3s-5.79,2.2-8.7,3.26a4.46,4.46,0,0,1-4.27-.73,30.87,30.87,0,0,1-5.46-4.62c-1.32-1.42-3.29-2.24-4.71-3.59-1.88-1.78-4-1.29-6.15-1.17-3.09.17-5.51,2-8.28,3a50.89,50.89,0,0,0-5,2.33,6,6,0,0,1-5.08.34,4.32,4.32,0,0,1-3-3.68c-.23-2.05-.86-4.06-.33-6.17a3.87,3.87,0,0,0-.17-1.4l-.34-.14c-.24.64-.49,1.29-1,2.49a7,7,0,0,1,0-2A94.66,94.66,0,0,1,23,348.06a1.42,1.42,0,0,1,1.85-.63Z"/><path id="path292" class="cls-2" d="M84.23,375a40,40,0,0,0,6,3c2.24,1,4.48,2.07,7,2.07a8.18,8.18,0,0,1,1.83.46,3.86,3.86,0,0,0,1.61.31c2.13-.56,4.48-.16,6.41-1.54a1.83,1.83,0,0,1,.64-.32c3.45-.79,6.23-3,9.44-4.34a36.62,36.62,0,0,1,5-1.29c4-1,7.72.31,11.53,1a1.64,1.64,0,0,1,.93.69c1.05,1.55,2.65,1.92,4.33,2.24a7.48,7.48,0,0,1,2.91,1c3.76,2.7,7.41,1.76,10.94-.31,2-1.16,3.66-2.82,5.59-4.06a11.94,11.94,0,0,1,4.09-1.84,69.55,69.55,0,0,1,9.95-1.24,17.21,17.21,0,0,1,10.23,2.54,4.82,4.82,0,0,0,2,.48,9.38,9.38,0,0,1,2.14.1c2.82,1.12,5.7.64,8.51.26,2.15-.28,4.24-1.14,5.23-3.47a6.57,6.57,0,0,1,1.2-1.38c.56,1.82,1,3.4,1.56,5.1-.51.73-1.1,1.48-1.59,2.29a11,11,0,0,0-1.52,2.95c-.54,2.42-1.34,2.41-3.35,2.65a31.63,31.63,0,0,1-14.37-1.66,12.66,12.66,0,0,1-3-1.47,8.68,8.68,0,0,0-6.74-1.68,22.92,22.92,0,0,1-2.63.19,12.93,12.93,0,0,0-6.52,2,52.1,52.1,0,0,1-8.69,5c-2.88,1.16-5.95,2.38-9.27,1.28a25.24,25.24,0,0,0-3.3-.54,7.78,7.78,0,0,1-3.12-1.56c-3.41-2.47-6.93-4.58-11.46-4.72a17.39,17.39,0,0,0-10.4,2.56,37.12,37.12,0,0,1-8.46,3.76c-2.94.95-6,1.36-9.08,2a9,9,0,0,1-6-1.12c-1.36-.66-2.64-1.49-4-2.13a24.13,24.13,0,0,0-4.21-1.6,11.56,11.56,0,0,1-4.34-1.86,5,5,0,0,0-2.67-.79,18.92,18.92,0,0,0-8,1.39A75.13,75.13,0,0,1,57.6,385c-4,.78-7.55.42-10.3-3.17-1.28-1.69-3.19-2.88-4.58-4.5-2.44-2.84-5.52-3.09-8.73-2.18-2.43.68-4.69,2-7.06,2.86a36.55,36.55,0,0,1-6.14,1.89c-1,.18-2.11-.48-3.12-.89a9.6,9.6,0,0,1-4.29-3.68,4.75,4.75,0,0,1-.68-4.54c.66-1.76,1.18-3.57,1.92-5.83a49.22,49.22,0,0,1,1,5.5c.29,4.44,6.12,6,9.07,4.48,2.33-1.22,4.79-2.17,7.1-3.42a22,22,0,0,1,8.72-2.29,3.33,3.33,0,0,1,1.73.48,36,36,0,0,1,8.39,6.61,24.82,24.82,0,0,0,4.64,3.33,3.15,3.15,0,0,0,2.07.22,22.63,22.63,0,0,0,4.41-1,48.81,48.81,0,0,0,7.38-3.27,14.19,14.19,0,0,1,6.31-2c3-.19,6-.45,8.77,1.42Z"/><path id="path294" class="cls-1" d="M45.33,104.38c1.24-1.51,2.7-2.84,4.06-4.25l.59.35c-.45,1.17-.93,2.31-1.33,3.49-1,3-2,6-3.09,9a84.19,84.19,0,0,1-8.51,16.53c-1.75,2.64-3.12,5.54-4.88,8.18-2.57,3.84-5.31,7.59-9.39,10.05a7.87,7.87,0,0,1-1.76.65c-1.81.57-3.9.17-5.48,1.58-3.65.28-7.33.72-10.69-1.29a1.91,1.91,0,0,1-.68-.93c-.47-1.17-.89-2.37-1.53-4.09a32.06,32.06,0,0,1,3,1.5c2.33,1.5,4.72,1.13,7.11.32,5.09-1.72,8.59-5.68,12.46-9.08a5.51,5.51,0,0,0,1.16-2,70.53,70.53,0,0,1,10.07-17.22c1.74-2.17,3-4.69,4.6-7,1.35-2,2.74-3.92,4.25-5.77Z"/><path id="path296" class="cls-1" d="M50.91,101.4a6.2,6.2,0,0,1,1,4.28c-.46,5.15-.48,10.38-2,15.37a144.68,144.68,0,0,1-4.85,14.48c-1.61,3.87-3.94,7.45-6,11.13A76.48,76.48,0,0,1,35,153.4c-2.7,3.77-5.69,7.27-10.2,9-1.1.43-2.07,1.17-3.13,1.69-.7.35-1.49.52-2.19.87a1.82,1.82,0,0,0-1,1.28l-.28.58a19.18,19.18,0,0,1-7.89-6.93c-1.59-2.37-3.1-4.79-4.59-7.22a5.86,5.86,0,0,1-.42-1.54c2.82.07,5.35,0,7.85.24,5.34.53,9.73-1.71,13.46-5A40,40,0,0,0,36,133.54,11.85,11.85,0,0,1,37,131.67,86.77,86.77,0,0,0,48,110.2c1-2.75,1.87-5.54,3-8.8Z"/><path id="path298" d="M112.32,422.22c0,.21.05.42.07.63l5.65-.66c0-.14,0-.29,0-.43l-5.68.46Zm7.93,3,2.22-.13c0-.15,0-.31,0-.47l-2.25.14C120.2,424.9,120.22,425.05,120.25,425.21ZM93.92,31.76c.41-.43.83-.86,1.24-1.3l-.25-.24-1.36,1.12Zm-24,17,.5.45c.85-1,1.71-2.09,2.57-3.13l2.5-2.43-.38-.36a5.32,5.32,0,0,0-2.28,2.64ZM101.38,426.6s.18.21.28.33l.79-.7-.27-.36c-.27.24-.54.48-.8.73ZM155.52,67.17c-.7-.91-1.4-1.82-2.11-2.72l-.46.36,2.12,2.7.45-.34Zm-92-33.94a1.89,1.89,0,0,0,0,.59,1.53,1.53,0,0,1,0,.3l0,0,0,0a5.72,5.72,0,0,0-.8.11l-.16,0a1,1,0,0,0-.39.21,5.33,5.33,0,0,0-1,1.65l2.38-2h.11v-.09c1.62-1.48,3.27-2.92,4.85-4.42,1.14-1.07,2.21-2.22,3.31-3.33h0a1.51,1.51,0,0,1,.18-.09l0-.06A3.79,3.79,0,0,0,75.06,24a4.73,4.73,0,0,0-3.12,2.22h-.09l-.14.15c-3.3,1.53-5.48,4.4-8.11,6.74A.19.19,0,0,0,63.53,33.23Zm69.3,9.49-5.36-3.29C129.82,42.06,130.53,42.45,132.83,42.72ZM64.54,60.32a3,3,0,0,0,.1-.91l-.35-.1c-.23.41-.47.82-.71,1.22l.36.35C64.15,60.69,64.44,60.55,64.54,60.32ZM175.45,234.6c.23,1.77.53,3.52.8,5.27,4.86-.64,6.75-4.39,3.44-9.66-1.34,1.1-2.67,2.16-3.94,3.29A1.44,1.44,0,0,0,175.45,234.6Zm-90,21-3.9,2c.46,2.1.9,4.08,1.34,6.05l-.69.19c-.62-1.74-1.24-3.48-1.85-5.17-2.66-.12-2.72-.09-2.33,2.34.34,2.08.76,4.14,1.14,6.22,6-2.4,7.18-5.87,6.29-11.6Zm-48.53-5.85c-2,5-.7,8.55,3.78,11.1l2-6.06ZM98.34,26.9c1,.33,1.37-.29,1.81-1.14C99.32,25.89,98.52,25.64,98.34,26.9ZM185,229.28c-.29-.93-1.24-1.66-2-2.58l-2.31,2.44c.82,1.77.82,3.76,2.19,5.22,1.5-1.55,2.53-3.63,2.09-5.08ZM21.09,232.91c1.16-2.07.41-3.54-1.18-5a8,8,0,0,0-.82,8.44l.68.06A23.66,23.66,0,0,1,21.09,232.91ZM42.18,262l8.11,4c.88-2.83,1.71-5.53,2.63-8.51l-9.11-2.4C43.22,257.59,42.7,259.78,42.18,262Zm-17-23c-1.47,1.95-.36,4.71,2.75,4.15L30.68,237c-1.31-.76-2.37-1.38-3.34-1.93A28.91,28.91,0,0,1,25.22,239Zm34.71,30.19a52.46,52.46,0,0,1-.16-10.38L54.35,258a23.73,23.73,0,0,0-2.63,8.91,15.58,15.58,0,0,1,3.7,1.32A14.55,14.55,0,0,0,60,270.15c.84.24,1.7.46,2.54.73,2.28.72,4.36.23,6.34,0V259.32l-8-.58c.08,3-.62,5.8.33,8.6.31.91,0,1.35-1,1.75l-.32.13ZM39.69,236.29c.62-1.89,1.28-3.85,1.92-5.81,1.42-4.38,2.91-8.75,4.25-13.16.87-2.89,1.47-5.87,2.3-8.79,2.11-7.43,4.24-14.86,6.44-22.27,1-3.43,2.23-6.8,3.28-10.23,1.38-4.57,2.65-9.17,4-13.75,1.5-4.95,3.2-9.86,4.56-14.85,1.58-5.76,2.89-11.59,4.29-17.39.37-1.51.63-3,.94-4.56l-.46-.21A8.3,8.3,0,0,0,70,126.56c-1.8,3-3.67,6-5.29,9.06s-3,6.47-4.56,9.7c-1,2.17-2,4.33-3.14,6.45-2,3.88-4.17,7.69-6.12,11.6-1.41,2.85-2.5,5.86-3.9,8.71-2.15,4.35-4.46,8.62-6.68,12.94-.87,1.7-1.72,3.41-2.5,5.15-1.44,3.18-2.83,6.39-4.24,9.58a16.52,16.52,0,0,0-1.17,2.62c-1.23,4.93-4.06,9.13-6.19,13.64a90.34,90.34,0,0,1-5,8.66,2.29,2.29,0,0,0,0,2.64c3.4,5.94,11,10.58,18.55,9Zm30.77,23.32c-.85,3.76-1.88,7.38.51,11a14.85,14.85,0,0,0,8.13-3.35l.09,0s0,0,0-.06h0l0,0c-1.49-.31-1.6-.5-1.74-2.09-.16-1.87-.4-3.72-.61-5.55Zm101.32,1.09-4.1,2.14c1.61,2,1.9,4.44,3.88,6a12.8,12.8,0,0,0,1.92-1.54c.38-.44.87-1.26.7-1.64-.73-1.62-.73-3.62-2.4-4.92Zm-12.29,9.11a14.27,14.27,0,0,1-1-3.19,2.18,2.18,0,0,0-2.5-2h-3.86c.07,2.55-1.35,4.7-.3,7.28a32.3,32.3,0,0,0,3.94.22c1.58-.1,3.16-.23,4.73-.45.69-.08,1.37-.19,2-.31,2.46-.43,4.89-1.09,7.48-1.69-.71-1.4-1.23-2.47-1.78-3.52s-1.12-2.06-1.72-3.17L159,264.44c.69,2,.26,4.26,2.47,5.55a1.59,1.59,0,0,1-1.08.69c-.39,0-.7-.32-.94-.87ZM104.23,428.54c0,.19,0,.39,0,.58l1.77-.26c0-.11,0-.21,0-.32ZM36.33,238c-1.59,1.9-.93,4.59-2.39,6.76A4,4,0,0,1,34,241.3c.35-1,.68-2.07,1-3.1-3-1-3.4-.87-4.45,1.71-.53,1.32-1,2.65-1.62,4.16a13.26,13.26,0,0,0,7.67,2.15,25.89,25.89,0,0,0,2.16-8.2Zm108.84,32.52a8.36,8.36,0,0,0,4.87.91c.05-2.43,1.19-4.69.45-6.91l-8.7-1.57c-1.45,5-1.45,5,3,7.33l.42.24Zm-39-242.93a20.79,20.79,0,0,0,1.3,4.53c2.18,4,4.21,8.07,7.61,11.21a13.92,13.92,0,0,1,2.14,1.88c1.69,2.47,4.13,3.9,6.65,5.29,3.2,1.76,6.26,3.83,9.59,5.29a60.72,60.72,0,0,1,13.88,9.13,19,19,0,0,1,3.14,2.92c1.86,2.46,3.53,5.07,5.3,7.61.06.09.27.07.61.15-.12-1.83.53-3.72-.85-5.27-4.23-4.75-6.87-10.66-11.42-15.2C141,52.05,138.05,49,134,47a68,68,0,0,0-14.74-5.38,8.83,8.83,0,0,1-4.5-2.54c-.49-.51-.94-1.25-1.55-1.44-2-.66-2.43-2.54-3.26-4.09s-1.4-2.87-2.17-4.26a15.73,15.73,0,0,0-1.39-1.8l-.22.13ZM185.09,223l-1.89,3,2,1.43a4.76,4.76,0,0,0-.14-4.4ZM118.21,27.63a22.37,22.37,0,0,1-9-2.78c-.76-.42-1.67-1-2.77-.32.24.46.38,1.13.69,1.22,2.29.69,2.89,2.93,4.26,4.45,1.12,1.25,2.19,2.54,3.34,3.75,2.39,2.54,5.62,2.71,8.77,2.88a7.74,7.74,0,0,1,4,1.24c1.39.92,2.77,1.85,4.21,2.69a42.16,42.16,0,0,0,5,2.7c4.13,1.7,6.63,5.08,9.26,8.4,1.71,2.16,3.55,4.21,5.47,6.47.13-.5.23-.67.19-.79a8.68,8.68,0,0,0-.41-1.11A98.07,98.07,0,0,0,143,41.9,11.26,11.26,0,0,0,139.65,39c-2.41-1.55-5.14-2.66-7.39-4.41-3.85-3-8.45-4.39-12.69-6.56a3.75,3.75,0,0,0-1.36-.35ZM131.88,381a49.71,49.71,0,0,0-8.57-.62,3.54,3.54,0,0,0-1.59.43c-1.29.62-2.55,1.31-3.82,2-3.54,1.81-7,3.89-11.06,4.29a28.43,28.43,0,0,0-3.91.94c-.09,4.29-.17,8.42-.26,12.55-.07,3.42.06,6.86-.31,10.25a42.79,42.79,0,0,0,.63,10.37c.14,1,.44,2,.68,3.13,7.78-4.83,16-3.7,24.42-3.06a13.54,13.54,0,0,0,.56-1.88c.68-3.91,1.26-7.83,2-11.74a51.86,51.86,0,0,1,1.53-6.52c1.6-5,3.38-9.93,5-14.92.22-.68.2-1.92-.2-2.23-1.58-1.17-3.25-2.55-5.08-3ZM72.15,452.68c-4-.92-8-2.27-12-3.41a10.24,10.24,0,0,0-1.68-.17v7.95a50.48,50.48,0,0,0,15,1.25,14.23,14.23,0,0,1,2.61.13,29.49,29.49,0,0,0,4,.66c5.43,0,10.86-.1,16.28-.39a49.11,49.11,0,0,0,7.28-1.28c.51-.11,1.24-.64,1.32-1.07a2.78,2.78,0,0,0-3.44-3.23c-2.34.47-4.68,1.28-7,1.31-4.45,0-8.92.2-13.36-.58-3-.53-6.06-.51-9-1.17ZM17.85,240.76a5.44,5.44,0,0,0-1.24-5.48,12,12,0,0,0-2,2.52,47.3,47.3,0,0,0-3.24,8.67c-.73,3.56-.85,7.21,1.41,10.59s6,4.92,9.7,3.54c6.06-2.28,9.52-7.25,12.89-12.52-2.22-.78-4.3-1.34-6.23-2.22a74.21,74.21,0,0,1-8.2-4.28c-.9-.57-1.62-1.21-3.07-.82ZM47.43,83a1.74,1.74,0,0,0-2.82-.87,7.53,7.53,0,0,0-2,2.94c-1.23,4.86-1.33,7.79,2.84,11.09,1.35,1.07,2.48,1.42,3.84.65A7.89,7.89,0,0,0,51,95c-1.23-4.1-2.41-8-3.6-12ZM140.6,48.79c-.62-1.42-1.13-2.94-3.4-3.56ZM51.65,92.74c.27-1.1.41-1.68.64-2.6l-1.45.26c.24.68.44,1.27.81,2.34Zm7.71,355a74.21,74.21,0,0,0,14,3.89,69.83,69.83,0,0,0,7.36.94c2.29.23,4.59.36,6.89.52a15.41,15.41,0,0,1,2.15,0c3.73.81,7.26-.35,10.85-1a2.59,2.59,0,0,0,2.2-1.9,9,9,0,0,0,.33-2.08c.17-3.65.38-7.31.42-11,0-1.7.47-3.49-.59-5.19l-3.5,1.7c-3.36,1.61-6.68,3.19-10.47,3.74a18.54,18.54,0,0,1-14.28-3.94,30.82,30.82,0,0,1-3.56-3.81c-4.41,2-7.28,5.62-9.63,9.66a58.56,58.56,0,0,0-2.94,6.26A1.46,1.46,0,0,0,59.36,447.72Zm42.15-48.67a71,71,0,0,1,0-7.86,2.82,2.82,0,0,0-.07-.44H100c.19-.68.34-1.19.6-2.12a6.42,6.42,0,0,1-5.46-.48c-1.68-.88-3.38-1.73-5-2.71a12.71,12.71,0,0,0-4.38-1.77A35.52,35.52,0,0,1,81,382.12a7.65,7.65,0,0,0-2.88-.81,51.44,51.44,0,0,0-7.27,1.27c-2.23.55-4.38,1.4-6.57,2.09-.89.29-1.79.52-2.83.81.42,1.49.74,2.8,1.16,4.08,1.92,5.82,3.93,11.6,5.78,17.43,1,3,1.6,6.17,2.53,9.21.55,1.78,1.41,3.46,2.2,5.37,1.8-.86,3.28-1.62,4.81-2.26a23,23,0,0,1,3.14-1c2.8-.73,5.47,0,8.23.49a58,58,0,0,1,11.85,3.2v-1.26c0-3.25-.1-6.49,0-9.73.11-4,.78-7.92.33-11.94Zm3.34,51.35c5.07.77,35.61-1.55,38.94-3-3.08-7.16-6.82-13.84-13.33-19-1.72,2.89-4.5,4.23-7.06,5.8A7.72,7.72,0,0,1,118,435.6c-1.87-.34-3.74-.79-5.57-1.31-2.37-.66-4.7-1.45-7.07-2.19a82.91,82.91,0,0,0-.47,18.3ZM80.68,130.11c-.08-1.72-1.29-2.31-2.62-3a17.52,17.52,0,0,1-2.48-1.87c-.6-.46-1.24-.87-2.08-1.45-1.3,5.55-2.34,10.78-3.75,15.91-1.81,6.59-3.91,13.11-5.88,19.66-.44,1.44-.84,2.89-1.27,4.33-1.26,4.27-2.21,8.67-3.89,12.77-2,4.83-3,9.9-4.52,14.84s-2.88,10.1-4.34,15.15c-.64,2.21-1.64,4.36-2,6.61-.73,5.24-2.8,10.07-4.41,15-1.29,4-2.32,8-3.93,11.92a62.25,62.25,0,0,0-2.06,7.52A14.4,14.4,0,0,0,45.21,254c.75.25,1.57.29,2.31.54a46.61,46.61,0,0,0,14,2.66,62.15,62.15,0,0,1,6.66.59,23.94,23.94,0,0,0,14.38-2.27A5.43,5.43,0,0,0,86,250.05c-.21-6.2,0-12.43.06-18.64.07-4.85.34-9.7.32-14.55,0-6.54-.09-13.08-.43-19.61-.24-4.52-1.08-9-1.44-13.53-.55-6.91-.94-13.84-1.37-20.77-.2-3.18-.37-6.37-.47-9.55-.08-2.64-.07-5.27,0-7.91.07-3.42.33-6.84.33-10.26,0-1.6,0-3.39-1.81-4.32a1.08,1.08,0,0,1-.47-.8ZM181,238.93a4.93,4.93,0,0,1-2.68,1.86c-1.75.45-3.5.94-5.2,1.54-.7.25-1.7.72-1.85,1.28a9.58,9.58,0,0,0-.29,4,38.44,38.44,0,0,0,1.41,4.55,10.25,10.25,0,0,0,5.71,6.37,4.62,4.62,0,0,0,5-.28,17.71,17.71,0,0,0,7.22-10.07,11.87,11.87,0,0,0-.12-4.7c-.22-1.72-.76-3.4-1.06-5.12a13.62,13.62,0,0,0-2.79-5.86c-1.92,2.32-3.66,4.35-5.31,6.45Zm-29.17-57.44c-1.59-6.65-3.71-13.17-5.64-19.74-1.37-4.66-2.75-9.31-4.22-13.94q-2.56-8.07-5.33-16.09c-.87-2.52-1.4-5.25-3.42-7.12L124,128.26c.07.8.16,1.56.19,2.32,0,1.19-.26,2.53.18,3.55.55,1.31-.17,2.39-.07,3.6.39,4.66.74,9.35.72,14a89.71,89.71,0,0,0,1.27,15c.32,2,.47,4,.71,5.93.5,4.19,1.18,8.37,1.48,12.57.45,6.36.62,12.74.94,19.11.29,5.88.64,11.76.92,17.64.18,3.82.28,7.65.45,11.48.15,3.26.34,6.51.52,9.77,0,1,.08,1.92.2,2.87.65,4.94,1.31,9.89,2,14.82a8,8,0,0,0,6,6.27c.17-.77.4-1.54.51-2.32s.12-1.59.18-2.39c-1.86-1-3.9-2-5.89-3.13-.25-.14-.24-.73-.35-1.11l.36-.35a27.4,27.4,0,0,0,2.62,1.39,52.26,52.26,0,0,0,6.89,2.6c2.6.64,5.33.74,8,1.19a20.29,20.29,0,0,0,7.61-.15c2.1-.44,4.18-1,6.3-1.3s3.76-1.55,5.68-2.64c-1.07-3-2.12-5.92-3.11-8.85-1.05-3.09-2.12-6.17-3-9.3-1.07-3.66-2-7.38-3-11.06-.46-1.69-1.06-3.34-1.45-5-.73-3.11-1.32-6.24-2-9.35-1.11-5-2.37-9.92-3.38-14.92-1.27-6.32-2.08-12.74-3.57-19ZM45.56,113c1.12-3,2-6,3.09-9,.4-1.18.88-2.32,1.33-3.49l-.59-.35c-1.36,1.41-2.82,2.74-4.06,4.25-1.51,1.85-2.9,3.8-4.25,5.77-1.57,2.3-2.86,4.82-4.6,7a70.53,70.53,0,0,0-10.07,17.22,5.51,5.51,0,0,1-1.16,2c-3.87,3.4-7.37,7.36-12.46,9.08-2.39.81-4.78,1.18-7.11-.32a32.06,32.06,0,0,0-3-1.5c.64,1.72,1.06,2.92,1.53,4.09a1.91,1.91,0,0,0,.68.93c3.36,2,7,1.57,10.69,1.29,1.58-1.41,3.67-1,5.48-1.58a7.87,7.87,0,0,0,1.76-.65c4.08-2.46,6.82-6.21,9.39-10.05,1.76-2.64,3.13-5.54,4.88-8.18A84.19,84.19,0,0,0,45.56,113ZM165,235.29c1,5,1.54,5.6,4.54,6-.21-1.74-.41-3.43-.61-5.1l-3.93-.85ZM94,48.13C89.66,52.25,85.05,56.06,80.52,60c-2.37,2-4.93,3.82-7.23,5.91-3.19,2.89-6.33,5.85-9.31,9-4.7,4.89-8.49,10.34-9.67,17.25-.26,1.53-.17,3.18-1.25,4.54-.2.25,0,.9.15,1.33a25.83,25.83,0,0,0,1.38,3.55,33.4,33.4,0,0,0,2.5,4c1.16,1.6,2.62,3,3.65,4.69A33.76,33.76,0,0,0,70.9,120.85c2.26,1.5,4.37,3.14,6.47,4.82.62.49,1.34,1.18,2,1.2,1.74,0,3,1,4.55,1.58a48.08,48.08,0,0,0,15.94,2.81,68.93,68.93,0,0,0,11.62-1.09c3.06-.47,6-1.38,9-2.14.84-.21,1.62-.7,2.46-.85,6.66-1.25,12.46-4,16.84-9.35.16-.18.35-.34.5-.52,1.63-2,3.37-3.84,4.84-5.91,1.8-2.53,3.38-5.22,5-7.84a7.32,7.32,0,0,0,1.17-2.08c.87-4.12,3.28-7.75,3.67-12,.17-1.88.92-3.7,1.28-5.57.14-.73.15-2.07-.16-2.2-1.12-.46-.67-1.27-.82-2a17.36,17.36,0,0,0-1-4.1,29.48,29.48,0,0,0-7.17-9.13,53.58,53.58,0,0,0-15.1-9.91,26.66,26.66,0,0,1-4.7-2.32c-4-2.66-8.19-5.06-11.73-8.58a60.14,60.14,0,0,1-8.87-12.06,34.24,34.24,0,0,1-1.81-4c-1.19,3-2.16,6-3.53,8.7A35.79,35.79,0,0,1,94,48.13Zm14.79,381.35c-.75.25-1.92.45-1.89,1.77,1.92.66,3.82,1.21,5.65,1.95,5.7,2.31,10.56,1,14.78-3.25.66-.66,1.2-1.42,2-2.38a9.29,9.29,0,0,0-1.36-.49,34.61,34.61,0,0,0-11.4.2A56.31,56.31,0,0,0,108.77,429.48Zm-12-106.77a6.88,6.88,0,0,1,7.61,1.68c1.39,1.41,2.64,3,4.06,4.36,1.18,1.16,2.39,2.88,3.79,3.11,4.18.69,8.17.3,11.27-3.45,2.6-3.13,5.71-5.8,10-6.58,3.14-.57,6.06-.73,8.86,1.37,2.54,1.91,5.38,3.41,8,5.18a13.38,13.38,0,0,0,9.69,2.45,7.77,7.77,0,0,0,5-2.82c1.51-1.75,3.14-3.38,4.8-5a6.57,6.57,0,0,1,5.29-1.61,10.27,10.27,0,0,1,4.07,1.16c3.67,1.89,7.45,2.87,11.35.57.69-.4,1.36-.84,2-1.28,2.51-1.67,2.83-3.68,1-6.17a7.76,7.76,0,0,1-6.78,3.11c-2.55-.12-5.12-.05-7.4-1.52a4.25,4.25,0,0,0-1.82-.55,10,10,0,0,1-4.2-1.61,3.12,3.12,0,0,0-2.25-.33,38.68,38.68,0,0,0-5.07,2,24.26,24.26,0,0,0-5.58,4.05,8.5,8.5,0,0,1-11.13.28c-2-1.52-4-3.12-6.07-4.62a10.19,10.19,0,0,0-8.1-2.1,41.09,41.09,0,0,0-8.65,3.39c-2.83,1.35-4.92,4.12-8.29,4.53-.22,0-.41.24-.62.35-3.87,2.09-6.75,1.44-9.22-2.08-.28-.39-.51-.82-.81-1.19-1.9-2.25-4-3.75-7.26-3-2.24.55-4.61.58-6.83,1.18-4.35,1.18-8.75,2.24-12.52,5A27.67,27.67,0,0,1,69,327.46a3.36,3.36,0,0,1-3.27-.95,39,39,0,0,1-3.42-4c-2.19-3.16-4.45-6.11-8.11-7.8-3.15-1.45-6.24-2.54-9.66-1.39-2.48.83-4.91,1.81-7.33,2.81-2.2.92-4.29,2.12-6.53,2.91-3.6,1.27-4.31,1-6.78-1.95-.07-.09-.28-.07-.75-.16l-1.68,3.74c.69.74,1.2,1.24,1.66,1.79,3.81,4.43,7.72,4.7,12.4,2.78.73-.3,1.43-.7,2.14-1.06,2-1,4-2,5.94-3.1a10.7,10.7,0,0,1,13.53,2.82c1.74,2.46,3.76,4.73,5.66,7.08a10.84,10.84,0,0,0,.85.81c2.37,2.22,5.23,2.07,8.12,1.63a41.53,41.53,0,0,0,17.55-7.17,27.89,27.89,0,0,1,7.52-3.56ZM74.64,48.13A42.53,42.53,0,0,0,64.7,62.82c-.54,1.41-1.29,2.73-1.9,4.11Q60.52,72,58.27,77.18c-.6,1.36-1.17,2.73-1.75,4.1l.47.31a7.16,7.16,0,0,0,.8-.86,45.45,45.45,0,0,1,7.41-8.67c2.7-2.47,5.21-5.16,8-7.53,5.27-4.5,10.75-8.76,16-13.27,5.94-5.1,10.86-11,13.44-18.55.72-2.13,1.5-4.3.85-6.69a3.44,3.44,0,0,0-.85.21,11.44,11.44,0,0,0-1.52,1.15C97.27,31.11,92.76,34,88.39,37A93.89,93.89,0,0,0,74.64,48.13ZM165.2,80.76c-.28-2.81-.33-5.31-2.17-7.28-.6-.64-1.16-1.5-2.18-1.06a2,2,0,0,0-1.38,2.25c.18.78-.08,1.09-.64,1.56a3.28,3.28,0,0,0-1.36,3.13c.38,2-.2,3.94-.61,5.88a9.62,9.62,0,0,0-.44,2.56c.1,1.42.32,3,1.88,3.6s2.33-.63,3.32-1.37c.19-.15.31-.36.49-.53,2.58-2.51,2.24-6,3.09-8.74ZM72.06,28.06A153.29,153.29,0,0,0,59.68,39.32a29.69,29.69,0,0,0-5.91,7.76,47.57,47.57,0,0,0-4.44,15.29c-.52,4.75-1.1,9.49-1.64,14.24a9,9,0,0,0,.66,4.47l.52,0c0-.8,0-1.59,0-2.38a49.55,49.55,0,0,1,.55-5.45c1.13-6,3.49-11.57,5.7-17.19s6-10.52,9.27-15.57a30.08,30.08,0,0,1,8.49-8c4.3-2.93,8.73-5.66,13.77-6.92C91.37,24.36,96.22,23.8,101,23c.85-.15,1.69-.35,2.65-.55-1.09-3-3.35-4-6-4.07a46.33,46.33,0,0,0-8.07.36,18.26,18.26,0,0,0-6.35,2A84.63,84.63,0,0,0,72.06,28.06Zm103.36,212.4c-.33-2.12-.64-4.11-1-6.26l-4.61,1.64c.16,1.11.31,2.28.5,3.45.27,1.7,1.08,2.19,2.83,1.75l2.26-.58ZM109.71,139.27c5.07-2.21,9.41-5.13,11.78-10.58-12.21,3.76-24.39,4.84-36.78,1.21.91,2.52,2.88,3.81,4.56,5.36A19.88,19.88,0,0,0,96.66,140a18.23,18.23,0,0,0,13-.68ZM107.6,22.93c.71.32,1.42.65,2.11,1a20.29,20.29,0,0,0,8.3,2.79,9.64,9.64,0,0,1,2.73.78c1.63.66,3.24,1.36,4.81,2.14,1.85.92,3.69,1.87,5.46,2.95,2.85,1.74,5.54,3.78,8.48,5.34a14,14,0,0,1,5.11,4.87c4.38,6.61,7.57,13.83,11,21a6.28,6.28,0,0,1,.36,1.37c.43,1.9.84,3.81,1.26,5.71l.65-.09c0-.38,0-.76,0-1.14a53.21,53.21,0,0,0-3-11.52C153,52.76,151.05,47.45,149,42.2A35.58,35.58,0,0,0,138,27.1a46.18,46.18,0,0,0-6.74-4.45,35.36,35.36,0,0,0-4.74-2.13c-1.64-.59-3.43-.79-5-1.46a15.18,15.18,0,0,0-6.89-1.48c-.77,0-1.59.63-2.26.46-2.71-.69-3.86,1.36-5.28,2.86C106.34,21.68,106.66,22.51,107.6,22.93ZM57.24,126.34c-.1-4.06,0-8.14-.25-12.19a34.27,34.27,0,0,0-1.42-7.49,47.73,47.73,0,0,0-2.71-6.09c-.18-.41-.37-.81-.73-1.58l-.5,1.36a21.18,21.18,0,0,1,1.09,2.84c.76,3.58.11,7.18-.29,10.7-.89,7.89-3.84,15.26-6.52,22.68a5.7,5.7,0,0,1-.38.88q-3.45,6-6.93,12c-.76,1.31-1.75,2.5-2.4,3.86a22.82,22.82,0,0,1-6.45,7.53c-2.91,2.41-6.33,3.88-9.72,5.42a4.15,4.15,0,0,1-1.54,0,1.82,1.82,0,0,1,1-1.28c.7-.35,1.49-.52,2.19-.87,1.06-.52,2-1.26,3.13-1.69,4.51-1.78,7.5-5.28,10.2-9a76.48,76.48,0,0,0,4.09-6.74c2.07-3.68,4.4-7.26,6-11.13a144.68,144.68,0,0,0,4.85-14.48c1.49-5,1.51-10.22,2-15.37a6.2,6.2,0,0,0-1-4.28c-1.09,3.26-2,6-3,8.8A86.77,86.77,0,0,1,37,131.67,11.85,11.85,0,0,0,36,133.54a40,40,0,0,1-9.34,12.89c-3.73,3.28-8.12,5.52-13.46,5-2.5-.25-5-.17-7.85-.24a5.86,5.86,0,0,0,.42,1.54c1.49,2.43,3,4.85,4.59,7.22a19.18,19.18,0,0,0,7.89,6.93l.29.14a13.29,13.29,0,0,0,9.77.71,41.52,41.52,0,0,0,8.27-4.2,59.39,59.39,0,0,0,5.88-4.42,24.25,24.25,0,0,0,6.73-7.94,78,78,0,0,0,5.74-13.62c1-3.68,2.43-7.28,2.35-11.2ZM25.43,236.57c.86-1.75.7-2.06-.94-3.29-.54-.4-1.07-.82-1.69-1.3-1,2.23-1.87,4.24-2.75,6.25.65,1.08,1,2.45,2.86,2.66C23.77,239.44,24.71,238.06,25.43,236.57Zm23.4,136.37a30.87,30.87,0,0,0,5.46,4.62,4.46,4.46,0,0,0,4.27.73c2.91-1.06,5.86-2,8.7-3.26s5.67-3,9-3c2.3,0,4.65-.4,6.82.76,2.38,1.27,4.85,2.41,7.13,3.85,3.18,2,6.89,1.86,10.31,2.85a1.93,1.93,0,0,0,.71,0,30.49,30.49,0,0,0,11.67-4,29.6,29.6,0,0,1,2.92-1.61c5.88-2.82,12-2.21,18-.9a2.75,2.75,0,0,1,1.5,1.11c1.06,1.56,2.6,1.94,4.32,2.2a10.38,10.38,0,0,1,3.08,1c2.05,1,4,1.63,6.41.86a29.09,29.09,0,0,0,8.22-4.76,8.34,8.34,0,0,1,2.61-1.58c3-.76,6.07-1.26,9.1-2a19.51,19.51,0,0,1,10.62.65,76.9,76.9,0,0,0,8.64,2.29,16.82,16.82,0,0,0,7.31-.08c1.73-.38,3.56-.95,4-3.19.14-.69.89-1.25,1.44-2-.32-1.25-.6-2.66-1.05-4-1-3-2-6.07-4.26-8.47a10.52,10.52,0,0,0-5.24-3.47c-1.47-.32-2.88-.87-4.33-1.28a7,7,0,0,0-6.17.85c-2.42,1.68-4.87,3.32-7.27,5a8.32,8.32,0,0,1-5.35,1.67c-2.32-.11-4.61-.08-6.7-1.36a7.14,7.14,0,0,0-2.27-.69,49.44,49.44,0,0,1-6.1-1.19,18.2,18.2,0,0,0-9.68-.2,16.24,16.24,0,0,0-5.25,2.18c-2.77,1.79-5.56,3.44-8.85,4-2.9.47-5.8,1.17-8.78.38-1.83-.49-3.72-.81-5.57-1.24a13.87,13.87,0,0,1-2.74-.76c-2.46-1.1-4.87-2.32-7.31-3.45C98.78,353,93.1,353,87.37,354c-1.88.3-3.69,1-5.54,1.45q-3.69.94-7.39,1.85a19.09,19.09,0,0,1-2.81.54c-2.14.21-4.29.39-6.44.49a11.87,11.87,0,0,1-7.39-2.1c-3.15-2.1-5-5.49-8.14-7.65-1.57-1.08-2.93-1.78-4.79-1.42L35.48,349a8.53,8.53,0,0,1-1.87.22c-1.5-.08-3-.21-4.49-.39a12.73,12.73,0,0,1-2.27-.55c-.68-.22-1.32-.58-2-.8a1.42,1.42,0,0,0-1.85.63,94.66,94.66,0,0,0-8.09,14.87,7,7,0,0,0,0,2c.47-1.2.72-1.85,1-2.49l.34.14a3.87,3.87,0,0,1,.17,1.4c-.53,2.11.1,4.12.33,6.17a4.32,4.32,0,0,0,3,3.68,6,6,0,0,0,5.08-.34,50.89,50.89,0,0,1,5-2.33c2.77-1,5.19-2.8,8.28-3,2.19-.12,4.27-.61,6.15,1.17,1.42,1.35,3.39,2.17,4.71,3.59Zm53-372c.37,0,.75-.05.81,0,1.47,2.66,4.08,4.6,5,7.56a18.83,18.83,0,0,1,.31,4.11c2.53-2.84,5.23-4.88,9.11-3.9.44,1.15-.53,1.34-1.07,1.88a18.37,18.37,0,0,0-2.75,3.24c-.81,1.32-.14,2.39,1.45,2.37a17.55,17.55,0,0,1,7.74,1.93c1.56.72,3.38.88,5,1.49s3.15,1.47,4.71,2.24c.21.1.36.33.58.41,5.06,1.92,8.3,6.1,11.85,9.81a23.82,23.82,0,0,1,3.69,6.13A137.28,137.28,0,0,1,156.23,59c.75,2.52,1.65,5,2.26,7.56a46,46,0,0,1,.65,5.44c.25-.17.54-.4.85-.58,1.42-.82,2-.75,3.18.35,2.55,2.38,3.16,5.5,3.07,8.75a26.66,26.66,0,0,1-.93,5.65,10.13,10.13,0,0,1-5.39,6.65c2.91,3,5.75,6,8.63,8.9a58.12,58.12,0,0,0,7.38,6.44,24.76,24.76,0,0,1,4.93,5.13c3.5,4.54,6.76,9.26,10.28,13.78a26.94,26.94,0,0,0,5.54,5.54c1.87,1.34,3.62,2.82,5.61,4,3.05,1.84,6.23,1.69,9.5,1.4l1.05-.11c.65,2.9-.33,5.44-1.6,7.78-1.47,2.72-2.92,5.63-5.06,7.78-3,3-5.7,6.38-10.33,7.34a51.82,51.82,0,0,1-8.21,1.23,13.65,13.65,0,0,1-5.86-.89c-1.18-.48-2.45-.77-3.57-1.36a18.48,18.48,0,0,1-3.77-2.45c-4.29-3.82-7-8.78-9.88-13.68a70.23,70.23,0,0,1-7.55-19c-.81-3.37-.73-7-1-10.43-.22-2.46-.43-4.92-.6-7.38s-.27-4.94-.43-7.4c-.07-1.06-.22-2.12-.33-3.17l-.51,0a22,22,0,0,0-1.35,3.73,14.09,14.09,0,0,1-2.71,5.51c-1.24,1.86-2.4,3.77-3.65,5.61-.94,1.38-2,2.72-3,4-1.2,1.57-2.42,3.12-3.64,4.67a6.13,6.13,0,0,1-.72.81c-.71.61-1.44,1.19-2.06,1.69,2.3,3.34,4.8,6.25,6.5,9.84s4.16,6.59,6.29,9.86c0,.07.13.11.16.18,1.36,3.65,4.33,6.44,5.42,10.23a3.93,3.93,0,0,0,.37.87c1.84,3.05,3.71,6.08,5.53,9.14,1.35,2.26,2.76,4.49,3.95,6.83,2.76,5.48,5.51,11,8.06,16.53s5.42,11.31,7.05,17.42c1.08,4.06,2.36,8.07,3.64,12.08.55,1.72,1.33,3.38,2,5.05,1.39,3.24,1.08,6.52.24,9.76a22.11,22.11,0,0,1,4.16,9.55c.21,1.4.84,2.72,1.11,4.12a10.92,10.92,0,0,1-.76,6.71,25.13,25.13,0,0,1-5.36,7.54c-3.68,3.63-7.41,2.91-11.11-.56-3-2.86-3.91-6.84-4.7-10.75a12,12,0,0,1,.38-3.31l-3.09-1.06c.72,2.34,1.15,4.17,1.82,5.9,1.78,4.58,3.64,9.14,5.52,13.68.36.87,1,1.63,1.42,2.48.75,1.47.63,2.29-.57,3.38-1,.95-2.18,1.81-3.47,2.86l4.91,7.19c1.16,1.71,2.31,3.43,3.5,5.13,1.56,2.21,3.22,4.34,4.68,6.61A30.1,30.1,0,0,1,187,294c2.63,6.06,4.18,12.55,7.3,18.42a10.24,10.24,0,0,1,1.2,2.82c.21,1.11,1,.56,1.53.81-.64,4.69-3,7.94-8,9.25l1.39,1.47c2.79,2.94,5.65,5.82,8.33,8.87a17.52,17.52,0,0,1,2,3.76c.13.28.31.71.19.89-1.11,1.72-.05,3.22.42,4.77.17.54.37,1.06.5,1.6.46,1.84.12,2.83-1.48,3.88a12.58,12.58,0,0,1-2.37,1.13c-.81.3-1.67.49-2.72.79a9.06,9.06,0,0,0,.75,1.12,16.58,16.58,0,0,1,4,6.45c1.07,3.5,2.31,6.94,3.48,10.41a2.11,2.11,0,0,0,.24.68c1.93,2.45,1.05,4.44-.81,6.5a12.56,12.56,0,0,0-2,3.73,2.75,2.75,0,0,1-2.35,2,31.11,31.11,0,0,1-14.62-1,27.07,27.07,0,0,1-6.31-2.71,7.69,7.69,0,0,0-3.84-1,19.31,19.31,0,0,0-10.95,2.81,73.27,73.27,0,0,1-7.39,4.28c-2.8,1.34-6,2.53-9.43,1.6-2.28-.61-4.65-.94-7.3-1.45-.8,2.28-1.68,4.73-2.53,7.18-1,2.94-2.06,5.87-3,8.85a50.24,50.24,0,0,0-1.3,5.81c-.7,4-1.31,8-2,12-.25,1.57-.43,3.16-.71,4.72a1.5,1.5,0,0,0,.76,1.79,30.67,30.67,0,0,1,9.15,9.62c2,3.06,3.56,6.4,5.25,9.65.74,1.4,1,3.18,2,4.25a10.29,10.29,0,0,1,2.06,4.16c.48,1.34,0,1.78-1.47,1.93a31.59,31.59,0,0,0-4,.58,75,75,0,0,1-12.74,1.94c-2.45.14-4.88.67-7.32.94a24.5,24.5,0,0,1-3.32.07,20.42,20.42,0,0,0-3.82-.1c-2.64.48-5.21-.27-7.82-.23-1.09,0-1.07-.78-1-1.85v-.21a70.31,70.31,0,0,0,20.25.94,113,113,0,0,0,20-3.79c-.93-.62-1.8-.92-2.17-1.53a6.31,6.31,0,0,1-.39-2.34,9.35,9.35,0,0,0-4.39-.36c-2.75.14-5.5.84-8.29.34a1.07,1.07,0,0,0-.47,0c-2.67.79-5.46.45-8.18,1.06s-5.47.31-8.21.45c-3.17.16-6.34.36-9.49.54-.76,1.82.72,3.22.72,4.86a2.53,2.53,0,0,1-.1.71c-1,1.13-2.56,1.05-3.91,1.23a136.07,136.07,0,0,1-13.78,1.44c-4.43.14-8.94.35-13.3-1a4.51,4.51,0,0,0-1.64,0,53,53,0,0,1-14.77-.76c-1.31-.26-1.75-.76-1.73-2,0-2.48,0-5-.06-7.44,0-.23.19-.53.1-.69-1.08-1.92.1-3.5.8-5.09a36.71,36.71,0,0,1,6.81-10.89,43.87,43.87,0,0,1,4.17-3.5c.12-.1.31-.14.4-.25a4.06,4.06,0,0,1,3.3-1.84,20.68,20.68,0,0,0-2-8.17,71.52,71.52,0,0,1-2.48-8.22c-.24-.84-.36-1.72-.62-2.54-2.41-7.42-4.84-14.82-7.21-22.08-2.59.18-4.95.38-7.32.49a7.42,7.42,0,0,1-3.78-1.29,12.17,12.17,0,0,1-4.82-4.3,22.66,22.66,0,0,0-3.43-3.65A4.48,4.48,0,0,0,38,376.06c-3.83-.27-7.12,1.26-10.46,2.86a66.67,66.67,0,0,1-6.92,2.45.48.48,0,0,1-.24,0c-3.6-.15-10.2-5.29-9.33-10.65A44,44,0,0,1,14.34,361c2.18-5.26,5.43-9.89,8.14-15l-4.71-5.1c-.16-.76.19-1.81,1.38-3a66.92,66.92,0,0,0,6.06-7.34,15.6,15.6,0,0,0,1.48-3.28c-2-1.79-3.72-3.27-5.34-4.89s-1.6-2.68-.3-4.79c2.09-3.36,4-6.83,6-10.24s4.29-7.07,6.33-10.67c1.33-2.35,2.36-4.87,3.69-7.21s3.12-4.78,4.56-7.25c2.46-4.21,5.48-8,8.33-11.94a11,11,0,0,0,.94-2.42c-1.62-.93-3.09-1.85-4.63-2.65a70.15,70.15,0,0,1-7.56-4c-2-1.38-3-3.42-4.15-5.33-.44-.75.15-2.14.34-3.22A3,3,0,0,0,35.1,251a12.47,12.47,0,0,0-1,1.24,24.7,24.7,0,0,1-8.51,8.55c-7.14,4.17-13.72.34-15.54-6.84-1.13-4.49-.13-8.88,1.6-13.08A24,24,0,0,1,16,233.76a3,3,0,0,0,.78-1.43c.64-4,2.62-7.44,4.83-10.8,1.65-2.52,3.07-5.21,4.52-7.87,1-1.88,2-3.8,2.9-5.76,1.1-2.46,2-5,3.08-7.49q2.41-5.7,4.94-11.36c.57-1.3,1.3-2.53,1.92-3.8,1.67-3.44,3.31-6.89,5-10.32,2.87-5.87,5.71-11.74,8.66-17.57,1.43-2.83,3.19-5.51,4.59-8.37,2.17-4.43,4.06-9,6.25-13.43,1.72-3.49,3.68-6.87,5.61-10.25a29.37,29.37,0,0,1,2.29-3c-5.74-3.77-9.67-8.94-13.15-14.52l-.58.25c.17,1.68.4,3.35.49,5,.33,6,1,12.14-.17,18.13a67.73,67.73,0,0,1-5,14.93Q52,148.19,51,150.24a29.2,29.2,0,0,1-7.92,10A48.27,48.27,0,0,1,30.54,168c-6,2.44-11.47,1.42-16.52-2.56-2.94-2.31-4.93-5.42-7.06-8.36-1.46-2-2.21-4.55-3.13-6.9-1.11-2.81-2.06-5.68-3.07-8.53C.49,141,.24,140.21,0,139.5c.91-.82,1.31-.21,1.76.41A12,12,0,0,0,7,144.25a5.65,5.65,0,0,0,4.87,0c3-1.51,6.22-2.55,8.43-5.29a8,8,0,0,1,1.49-1.19c1.76-1.3,3.29-2.74,3.72-5a6.39,6.39,0,0,1,.84-2c2.79-4.71,5.07-9.7,8.72-13.92,2.22-2.55,3.69-5.75,5.59-8.59a45.77,45.77,0,0,1,7.67-9.1,3.22,3.22,0,0,0,.42-.64,8.47,8.47,0,0,1-7.49-6c-1.36-4.22-.3-8.36,3-11.82h2.47a23.45,23.45,0,0,1-.61-4.28c.13-2.7.5-5.38.85-8.06.26-2.05.7-4.08,1-6.13a60.83,60.83,0,0,1,3.32-13,34.89,34.89,0,0,1,1.59-4.72,47.08,47.08,0,0,1,10.5-12.88c2.86-2.52,5.77-5,8.66-7.49.3-.26.57-.62.92-.73,2.66-.84,4.88-2.58,7.58-3.43,2.49-.78,5-1.47,7.46-2.39a14.26,14.26,0,0,0,2.19-1.37,11.09,11.09,0,0,0,2.36,0,18.41,18.41,0,0,0,4.1-1.19c2.84-1.3,3.12-2.58,1.35-5.25-.4-.6-.93-1.12-1.27-1.74-.17-.31-.06-.78.35-1.38l6,6.47c1.88-2.54.87-5-.24-7.39A12.63,12.63,0,0,1,101.86.91ZM50,74.69a6,6,0,0,0-.15,1.19,59.8,59.8,0,0,0,.61,12.61l.51.15c.27-.79.59-1.58.8-2.39.45-1.69.79-3.41,1.26-5.09s1.17-3.47,1.63-5.24a92.06,92.06,0,0,1,6.2-15.72,53.79,53.79,0,0,1,8.83-13A96.6,96.6,0,0,1,77.59,39,90.33,90.33,0,0,1,86,32.82c3.47-2.41,7-4.74,10.47-7.1.58-.39,1.21-.72,1.81-1.08a41.07,41.07,0,0,0-5.78.54C84.21,26,77.3,30.05,70.86,35a27.44,27.44,0,0,0-5.74,6c-4.2,6-8.24,12.08-10.71,19.11C52.72,64.93,51.19,69.76,50,74.69ZM87.15,203c.17,4.77.11,9.56.09,14.34,0,4.95-.13,9.89-.2,14.83L86.83,248c0,1.42,0,2.85,0,4.1a28.06,28.06,0,0,1,3.43,2.4,9.51,9.51,0,0,0,4.37,2.29c2.92.76,5.77,1.76,8.66,2.61a6.64,6.64,0,0,0,1.89.19c4.15,0,8.31.06,12.46,0,3.34-.07,6.7-.23,10-.5a24,24,0,0,0,3.76-.91c-.2-3.14-.34-6-.56-8.86-.19-2.62-.49-5.23-.7-7.85-.17-2.15-.26-4.3-.43-6.45-.14-1.66-.45-3.32-.51-5-.36-8.93-.64-17.87-1-26.8-.26-6.37-.44-12.76-1-19.11-.5-6.12-1.16-12.25-2.21-18.3-1.15-6.64-1.08-13.34-1.54-20-.24-3.48-.12-7-.26-10.49-.07-1.56-.36-3.11-.6-5.14l-1.46,2a15.84,15.84,0,0,1-2.13,2.87,31.86,31.86,0,0,1-9.25,5.78A21,21,0,0,1,99.55,142c-4.23-.54-7.61-2.69-10.7-5.43-1.52-1.36-3-2.77-4.51-4.16-.18.25-.33.36-.33.48a6,6,0,0,0,0,.95,54.18,54.18,0,0,1-.32,11.94,27.12,27.12,0,0,0-.15,4.77c.16,4.22.39,8.45.63,12.67.32,5.66.61,11.32,1,17,.21,2.77.78,5.52,1,8.3.39,4.85.75,9.7.91,14.56Zm77,153.37c2.63.28,5.32.56,7.69-.92s4.6-3.16,6.85-4.81a8.15,8.15,0,0,1,6.28-1.73,24.36,24.36,0,0,1,5.33,1.26c3.23,1.35,6.25.79,9.22-.56.67-.31,1.1-1.14,1.76-1.86-1-.29-1.95-.27-2.25-.69-1.07-1.49-2.67-1.69-4.19-2-2.49-.58-5-1.18-7.5-1.53a19.21,19.21,0,0,0-4.73.08c-3.9.46-7.21,2.51-10.42,4.48-4.35,2.66-8.61,2.68-13.25,1.18-3.63-1.18-7.37-2.14-11.25-1.4-1.4.26-2.73.84-4.12,1.15-4.26,1-8.54,1.85-12.81,2.78a2.7,2.7,0,0,0-.68.22c-3.86,2-8.07,2.45-12.3,2.45-2.76,0-5.39-.49-7.54-2.85a11.84,11.84,0,0,0-5.37-2.86,25.15,25.15,0,0,0-12.75,0c-1.31.3-2.63.52-3.95.75-.55.1-1.11.2-1.66.32a29.51,29.51,0,0,0-5.76,1.37c-2.88,1.24-5.93,1-8.88,1.41A21.33,21.33,0,0,1,61.23,351a16.63,16.63,0,0,1-6.17-3.53c-1.68-1.68-3.49-3.25-5.32-4.77a12.46,12.46,0,0,0-13.18-2.2,34.31,34.31,0,0,1-6.19,1.74c-1.37.24-2.84-.17-4.25-.11a4.09,4.09,0,0,1-3.39-1.44l-2.21-2.42-1.85,2.34c.94.69,2,1.13,2.56,1.94,2.33,3.56,5.66,4.66,9.73,4.95a39.11,39.11,0,0,0,9.19-.9c2.05-.33,4.11-.55,6.18-.71a3.34,3.34,0,0,1,2.07.35,27.82,27.82,0,0,1,5,4.06c1.31,1.52,2.78,2.82,4.16,4.23a9.71,9.71,0,0,0,6.75,2.57,41.08,41.08,0,0,0,9.71-1c3.59-.69,7.09-1.82,10.65-2.66,1.35-.32,2.67-.77,4-1.06a10.49,10.49,0,0,1,3.22-.27c2.71.23,5.51.07,8.09.76a54.36,54.36,0,0,1,10,3.85,17.82,17.82,0,0,0,4.14,1.68c1.88.39,3.75.78,5.63,1.12a18.7,18.7,0,0,0,3.06.39A24.34,24.34,0,0,0,137,355.66a14.09,14.09,0,0,1,4.08-1.91c3.32-.92,6.75-1.59,10.16-.83,3.72.84,7.36,2,11,3a12.24,12.24,0,0,0,1.86.44Zm6.14-174.25c-2.31-4.7-4.66-9.39-7.1-14-1.44-2.74-3.09-5.38-4.62-8.08-.83-1.45-1.6-2.94-2.42-4.4q-2.81-5-5.63-9.92c-.86-1.52-1.7-3.06-2.59-4.56-2.15-3.62-4.89-6.84-6.53-10.81-.83-2-2.44-3.71-3.8-5.46-.3-.38-1.07-.4-1.62-.58a5.17,5.17,0,0,0,0,1.52c1.24,3.85,2.57,7.68,3.8,11.55,1.56,4.92,3,9.88,4.59,14.8s3.35,9.45,4.63,14.28c1.72,6.46,3.66,12.85,4.64,19.51.59,4.07,1.93,8,2.44,12.16.45,3.54,1.39,7,2.15,10.52,1.28,5.84,2.55,11.67,3.9,17.49.42,1.78,1.18,3.48,1.65,5.24.58,2.2,1.67,3.17,4.32,3.26a27.77,27.77,0,0,0,4.43-1.18c4.94-2.16,8.39-6,11.07-10.54a4.69,4.69,0,0,0,.33-3.92c-1.54-4.93-2.93-9.91-4.51-14.82-1.17-3.63-2.42-7.25-3.88-10.76-1.59-3.82-3.42-7.54-5.24-11.26ZM173,107.21c-3.48-2.61-6.4-6-9.53-9-1.38-1.35-2.69-2.75-4-4.13l-.47.33c.64,1.32,1.24,2.67,2,4a34.84,34.84,0,0,1,2.24,3.66A35.6,35.6,0,0,0,170,112.21c3,3.37,6,6.81,9,10.19,2.38,2.69,4.73,5.39,7.21,8s4.8,4.89,7.33,7.18a29.5,29.5,0,0,0,5.69,4.31,38,38,0,0,1,5.85,3.58,6.38,6.38,0,0,0,2.85,1.05,1.91,1.91,0,0,0,1.64-.65c1-1.8,2.17-3.55,2-6.13-1-.06-1.75-.16-2.53-.14a14.25,14.25,0,0,1-6.66-1.57c-2-.94-3.54-2.41-5.32-3.6-4-2.7-6.72-6.52-9.52-10.29-2.61-3.52-5-7.24-7.89-10.5a46.71,46.71,0,0,0-6.68-6.41ZM113.6,352.36c5.19,1.56,10.21.92,15.18-1.06a33.2,33.2,0,0,1,5-1.42c3.49-.78,7.16-1.06,10.46-2.32,5.5-2.09,10.63-1,15.84.67,3.68,1.18,7.42,1.78,10.68-.78,1.89-1.48,4.65-1.39,6-3.64a44.87,44.87,0,0,1,6.24-1.57c5.87-.62,11.41.94,16.79,2.93a17.88,17.88,0,0,1-.68-3.74,2.73,2.73,0,0,0-1.6-2.8c.62-1.53.72-1.69-.27-2.84a90.83,90.83,0,0,0-6.27-6.88c-1.75-1.67-3.62-3.44-6.48-2.87a3.29,3.29,0,0,1-1.59-.45c-1.68-.71-3.32-1.54-5-2.17-2.67-1-5.42-1.22-7.66.84-1.62,1.48-3.52,2.78-4.46,4.93a2.94,2.94,0,0,1-1,1.05c-2.86,2.24-6.25,1.94-9.56,2a1.58,1.58,0,0,1-.69-.21,41.39,41.39,0,0,1-4.06-2c-3-1.9-6-3.94-9-5.84a8.26,8.26,0,0,0-3-1.29c-5.62-.86-10.08,1.69-13.55,5.63a13.2,13.2,0,0,1-10.82,5c-2.92,0-4.68-1.69-6.42-3.53-1.19-1.25-2.07-2.82-3.32-4-1.81-1.74-3.75-3-6.63-2.22A30,30,0,0,0,88.45,328a38.9,38.9,0,0,1-14.37,6.15c-.78.15-1.54.39-2.31.58-4.23,1-7.67-.07-10.35-3.6-1.78-2.35-3.9-4.45-5.55-6.89-1.93-2.85-8-4.13-11.1-2.35-2.2,1.25-4.58,2.22-6.78,3.5a17.87,17.87,0,0,1-7.44,2.37,3.18,3.18,0,0,0-1.91.8c-2.46,2.8-4.83,5.69-7.33,8.66.92,1.15,1.58,2.05,2.33,2.87.36.39.88.89,1.34.91a32.67,32.67,0,0,0,6.18-.12,32.57,32.57,0,0,0,5.69-1.78c4.1-1.45,8.07-1.23,11.62,1.29,2.46,1.74,4.61,3.91,6.92,5.86a12.88,12.88,0,0,0,2.83,2.16,29.46,29.46,0,0,0,12.13,2.9,42.4,42.4,0,0,0,10.13-1.38c3.94-1,8-1.47,12-2.33,3.44-.74,6.84-1.39,10.34-.46,1.23.33,2.82.14,3.68.86,1.75,1.47,4.49,1.34,5.64,3.71.18.38.95.52,1.48.68ZM55.33,314.1c.94.58,2.17.81,2.91,1.55,1.57,1.58,2.9,3.39,4.32,5.11,1.27,1.54,2.44,3.17,3.82,4.59a3.07,3.07,0,0,0,2.31.84c3.93-.71,7.78-1.71,11.08-4.19A20.67,20.67,0,0,1,87,318.38c2.46-.65,4.89-1.43,7.33-2.16a27.11,27.11,0,0,1,9-1,3.74,3.74,0,0,1,2.2.7c1.47,1.33,2.77,2.84,4.15,4.27.55.56,1,1.39,1.71,1.58,1.86.53,3.78,1.36,5.7-.13a13.81,13.81,0,0,1,2.65-1.05,29.38,29.38,0,0,0,2.65-1.43c.54-.33,1-.77,1.54-1.13a45.09,45.09,0,0,1,9-4.37c3.88-1.52,7.37-.41,10.66,1.51a32.44,32.44,0,0,1,5.7,4.35,8.33,8.33,0,0,0,11.63-.49c1.92-2.15,4.46-3.33,7-4.45a18,18,0,0,1,4.63-1.1,3.71,3.71,0,0,1,1.76.48c1.09.44,2.13,1,3.23,1.4a23,23,0,0,0,4.26,1.44,46.5,46.5,0,0,0,7.06.69,5,5,0,0,0,2.56-1.16,3.42,3.42,0,0,0,1.17-4.44c-1.11-2.73-2.32-5.42-3.38-8.17-.77-2-1.29-4.09-2.06-6.09a34.41,34.41,0,0,0-6.16-11,3.51,3.51,0,0,1-.27-.4c-2.89-4.39-5.77-8.8-8.69-13.18-1.31-2-2.25-2.26-4.46-1.62a32.18,32.18,0,0,1-4.59,1.17,62.57,62.57,0,0,1-8.52.76,68.79,68.79,0,0,1-7.81-.85,2.89,2.89,0,0,1-.93-.23c-2.45-1.24-4.85-2.57-7.33-3.73-3.71-1.74-5.64-4.9-7.25-8.53a5.26,5.26,0,0,0-.8,0c-6.68,1.06-13.43.46-20.14.84h-.48c-3.18-.06-6.36,0-9.44-1-2.8-.9-5.68-1.59-8.41-2.65a30,30,0,0,1-4.58-2.74c-.47,1.65.26,3.21.17,4.65a9,9,0,0,1-4,7.26c-4.3,2.79-8.76,5.05-14,5.82-4.77.69-9-.53-13.23-2.25a20.89,20.89,0,0,1-2.72-1.62c-.86,1.13-1.43,2-2.11,2.76a94.3,94.3,0,0,0-9.52,12.81c-1.58,2.58-3,5.26-4.47,7.91-2.06,3.68-4.12,7.36-6.15,11-1.9,3.45-3.15,7.27-5.93,10.22a2.63,2.63,0,0,0-.67,1.25,3.06,3.06,0,0,0,0,1.75,3.57,3.57,0,0,0,4.68,2.11,18.34,18.34,0,0,0,2.91-1.05c2.38-1.11,4.71-2.32,7.08-3.44,5.38-2.52,10.71-2.86,16,.36ZM96.94,433.43c1.9-.9,4-1.59,5.69-3.8-1.15-.92-2.1-1.72-3.1-2.46a9.87,9.87,0,0,0-1.65-.93,7.48,7.48,0,0,0-2.3-1,45.73,45.73,0,0,0-16.61.9c-2.19.57-4.28,1.54-6.74,2.44a15,15,0,0,0,1.88,2.87,17.33,17.33,0,0,0,14.68,4.66A28.93,28.93,0,0,0,96.94,433.43Zm78.68-313.37c-2.22-2.5-4.31-5.13-6.6-7.56a35.68,35.68,0,0,1-6.73-9.81,10.34,10.34,0,0,0-3.45-4.39,29.7,29.7,0,0,0,1.27,6c1,2.77,2.19,5.47,3.36,8.17a64.71,64.71,0,0,0,3.56,7.8c1.91,3.21,4.32,6.12,6.36,9.26,2.94,4.53,7.08,7.7,11.5,10.6a20,20,0,0,0,3.35,1.8c1.39.57,2.82,1,3.44,2.57a2.59,2.59,0,0,0,1,1c3.37,2.22,6.33,5.06,10.17,6.57.39.16.63.7,1.16,1.3a6,6,0,0,1-4.9-1.61,159.74,159.74,0,0,0-15-10.83,38.44,38.44,0,0,1-7.21-5.46,39.81,39.81,0,0,1-5.29-6.46c-3.21-5-7.18-9.58-8.92-15.46a8.27,8.27,0,0,0-2.07-3.63c.13,1.21.14,1.92.29,2.6.58,2.64,1.28,5.25,1.8,7.91a36.81,36.81,0,0,0,5.89,14.24,12.58,12.58,0,0,1,1.36,2.78c1.78,4.58,4,8.82,7.77,12.18,1.06,1,2,1.7,3.38,1.26,2,2.79,4.09,5.32,7.61,6,1,.18,2.05.28,3.05.49.74.15,1.46.41,2.07.59.1.87-.16,1.25-.62,1.32a1.8,1.8,0,0,1-.51,0c-3.39-.59-6.77-1.19-9.29-3.91a3.9,3.9,0,0,0-2.78-1.67,1.78,1.78,0,0,1-1-.58c-3.61-3.6-7.38-7.06-9.29-12a27.42,27.42,0,0,0-2.85-6,40.11,40.11,0,0,1-6.28-16.38c-.63-3.19-1.21-6.4-1.89-9.59-.8-3.8-1.68-7.58-2.54-11.36,0,0-.14-.06-.57-.22.13,3.14.23,6.13.41,9.12.16,2.7.46,5.4.61,8.1.24,4.37.26,8.76,1.8,13,.47,1.27.73,2.61,1.27,3.85,1.49,3.43,2.95,6.88,4.66,10.21,1.45,2.83,3.34,5.43,4.82,8.25a21.84,21.84,0,0,0,6,6.67c4.9,3.93,10.83,4.74,16.78,3.72.28-.05.55-.1.82-.17a18.31,18.31,0,0,0,11-6.53,20.25,20.25,0,0,0,3-5.21c-2-1.54-3.76-2.9-5.54-4.2a11.81,11.81,0,0,0-1.7-.87,19.8,19.8,0,0,1-3.94-2.12c-3.18-2.77-6.32-5.61-9.24-8.65-3.91-4.09-7.6-8.38-11.36-12.62ZM104.25,5.31a9.11,9.11,0,0,0,.56,2.79,7.22,7.22,0,0,1-2.33,8.5c-1.32-1.1.2-3.55-2.16-4.26.12,1.91-1.09,3-2.85,3.87,1.74.54,3.31.72,4.52,1.48a18.51,18.51,0,0,1,3.15,3.1L111,16.14c.72-1.85,1.39-3.59,2.07-5.33l-.14-.39a22.21,22.21,0,0,0-2.88,2.28,29.23,29.23,0,0,0-2.41,3.62,17.65,17.65,0,0,1-.84-2.64,30.36,30.36,0,0,1-.15-3.57C106.66,8.08,105.45,6.71,104.25,5.31ZM31.81,371.51c-2.31,1.25-4.77,2.2-7.1,3.42-2.95,1.54-8.78,0-9.07-4.48a49.22,49.22,0,0,0-1-5.5c-.74,2.26-1.26,4.07-1.92,5.83a4.75,4.75,0,0,0,.68,4.54A9.6,9.6,0,0,0,17.67,379c1,.41,2.16,1.07,3.12.89A36.55,36.55,0,0,0,26.93,378c2.37-.89,4.63-2.18,7.06-2.86,3.21-.91,6.29-.66,8.73,2.18,1.39,1.62,3.3,2.81,4.58,4.5,2.75,3.59,6.28,3.95,10.3,3.17a75.13,75.13,0,0,0,13.11-3.63,18.92,18.92,0,0,1,8-1.39,5,5,0,0,1,2.67.79,11.56,11.56,0,0,0,4.34,1.86,24.13,24.13,0,0,1,4.21,1.6c1.37.64,2.65,1.47,4,2.13a9,9,0,0,0,6,1.12c3-.67,6.14-1.08,9.08-2a37.12,37.12,0,0,0,8.46-3.76,17.39,17.39,0,0,1,10.4-2.56c4.53.14,8.05,2.25,11.46,4.72a7.78,7.78,0,0,0,3.12,1.56,25.24,25.24,0,0,1,3.3.54c3.32,1.1,6.39-.12,9.27-1.28a52.1,52.1,0,0,0,8.69-5,12.93,12.93,0,0,1,6.52-2,22.92,22.92,0,0,0,2.63-.19,8.68,8.68,0,0,1,6.74,1.68,12.66,12.66,0,0,0,3,1.47,31.63,31.63,0,0,0,14.37,1.66c2-.24,2.81-.23,3.35-2.65a11,11,0,0,1,1.52-2.95c.49-.81,1.08-1.56,1.59-2.29-.52-1.7-1-3.28-1.56-5.1a6.57,6.57,0,0,0-1.2,1.38c-1,2.33-3.08,3.19-5.23,3.47-2.81.38-5.69.86-8.51-.26a9.38,9.38,0,0,0-2.14-.1,4.82,4.82,0,0,1-2-.48,17.21,17.21,0,0,0-10.23-2.54,69.55,69.55,0,0,0-9.95,1.24,11.94,11.94,0,0,0-4.09,1.84c-1.93,1.24-3.62,2.9-5.59,4.06-3.53,2.07-7.18,3-10.94.31a7.48,7.48,0,0,0-2.91-1c-1.68-.32-3.28-.69-4.33-2.24a1.64,1.64,0,0,0-.93-.69c-3.81-.7-7.58-2-11.53-1a36.62,36.62,0,0,0-5,1.29c-3.21,1.3-6,3.55-9.44,4.34a1.83,1.83,0,0,0-.64.32c-1.93,1.38-4.28,1-6.41,1.54a3.86,3.86,0,0,1-1.61-.31,8.18,8.18,0,0,0-1.83-.46c-2.56,0-4.8-1-7-2.07a40,40,0,0,1-6-3c-2.76-1.87-5.78-1.61-8.77-1.42a14.32,14.32,0,0,0-6.31,2,47.88,47.88,0,0,1-7.38,3.28,22.63,22.63,0,0,1-4.41,1,3.22,3.22,0,0,1-2.07-.23,24.82,24.82,0,0,1-4.64-3.33,36,36,0,0,0-8.39-6.61,3.33,3.33,0,0,0-1.73-.48,22,22,0,0,0-8.72,2.29Z"/></svg>