<svg xmlns="http://www.w3.org/2000/svg" xmlns:xlink="http://www.w3.org/1999/xlink" viewBox="0 0 242.73 252.5"><defs><style>.cls-1{fill:#3b353a;}.cls-2{fill:url(#linear-gradient);}.cls-3{fill:url(#linear-gradient-2);}.cls-4{fill:#b7b5aa;}.cls-5{fill:#e2e0d2;}.cls-6{fill:url(#linear-gradient-3);}.cls-7{fill:url(#linear-gradient-4);}.cls-8{fill:#b5b2a7;}.cls-9{fill:#8e8981;}.cls-10{fill:url(#linear-gradient-5);}.cls-11{fill:url(#linear-gradient-6);}.cls-12{fill:url(#linear-gradient-7);}.cls-13{fill:url(#linear-gradient-8);}.cls-14{fill:url(#linear-gradient-9);}.cls-15{fill:url(#linear-gradient-10);}.cls-16{fill:url(#linear-gradient-11);}.cls-17{fill:#7a7670;}.cls-18{fill:url(#linear-gradient-12);}.cls-19{fill:url(#linear-gradient-13);}.cls-20{fill:url(#linear-gradient-14);}.cls-21{fill:url(#linear-gradient-15);}.cls-22{fill:url(#linear-gradient-16);}.cls-23{fill:url(#linear-gradient-17);}.cls-24{fill:url(#linear-gradient-18);}.cls-25{fill:#d3d1c4;}.cls-26{fill:url(#linear-gradient-19);}.cls-27{fill:#d8ad98;}.cls-28{fill:#fff;}.cls-29{fill:#655951;}.cls-30{fill:url(#linear-gradient-20);}.cls-31{fill:url(#linear-gradient-21);}.cls-32{fill:#ffffa7;}.cls-33{fill:url(#linear-gradient-22);}.cls-34{fill:url(#linear-gradient-23);}.cls-35{fill:url(#linear-gradient-24);}.cls-36{fill:url(#linear-gradient-25);}.cls-37{fill:#bc602e;}.cls-38{fill:url(#linear-gradient-26);}.cls-39{fill:url(#linear-gradient-27);}.cls-40{fill:url(#linear-gradient-28);}.cls-41{fill:url(#linear-gradient-29);}.cls-42{fill:#f7a4b3;}.cls-43{fill:#342c3d;}.cls-44{fill:#b5b4db;}.cls-45{fill:#9e9aa2;}.cls-46{fill:#f05d78;}</style><linearGradient id="linear-gradient" x1="-1208.4" y1="471.96" x2="-1207.92" y2="471.96" gradientTransform="translate(29292.68 103454.77) rotate(95.55) scale(82.72)" gradientUnits="userSpaceOnUse"><stop offset="0" stop-color="#8e8981"/><stop offset="1" stop-color="#52433a"/></linearGradient><linearGradient id="linear-gradient-2" x1="-1197.12" y1="463.84" x2="-1196.64" y2="463.84" gradientTransform="translate(52009.66 71687.89) rotate(75.21) scale(68.82)" xlink:href="#linear-gradient"/><linearGradient id="linear-gradient-3" x1="-1208.4" y1="472.26" x2="-1207.92" y2="472.26" gradientTransform="translate(29338.44 103459.24) rotate(95.55) scale(82.72)" gradientUnits="userSpaceOnUse"><stop offset="0" stop-color="#7a7670"/><stop offset="1" stop-color="#413128"/></linearGradient><linearGradient id="linear-gradient-4" x1="-1208.4" y1="472.14" x2="-1207.92" y2="472.14" gradientTransform="translate(29319.71 103457.42) rotate(95.55) scale(82.72)" xlink:href="#linear-gradient-3"/><linearGradient id="linear-gradient-5" x1="-1147.37" y1="482.48" x2="-1146.9" y2="482.48" gradientTransform="translate(57941.67 -13701.76) rotate(9.38) scale(47.73)" xlink:href="#linear-gradient"/><linearGradient id="linear-gradient-6" x1="-1242.67" y1="453.06" x2="-1242.2" y2="453.06" gradientTransform="translate(-8583.69 52081.53) rotate(119.52) scale(39.81)" xlink:href="#linear-gradient"/><linearGradient id="linear-gradient-7" x1="-1181.21" y1="458.67" x2="-1180.74" y2="458.67" gradientTransform="translate(59778.33 39801.4) rotate(54.8) scale(56.5)" xlink:href="#linear-gradient"/><linearGradient id="linear-gradient-8" x1="-1181.21" y1="460.16" x2="-1180.74" y2="460.16" gradientTransform="translate(59909.42 39708.93) rotate(54.8) scale(56.5)" xlink:href="#linear-gradient"/><linearGradient id="linear-gradient-9" x1="-1192.98" y1="479.27" x2="-1192.5" y2="479.27" gradientTransform="matrix(47.31, 100.02, -100.02, 47.31, 104525.42, 96816.23)" xlink:href="#linear-gradient"/><linearGradient id="linear-gradient-10" x1="-1176.7" y1="499.85" x2="-1176.23" y2="499.85" gradientTransform="matrix(123.01, -12.12, 12.12, 123.01, 138811.32, -75635.82)" xlink:href="#linear-gradient"/><linearGradient id="linear-gradient-11" x1="-1215.33" y1="487.34" x2="-1214.85" y2="487.34" gradientTransform="matrix(-68.77, 90.73, -90.73, -68.77, -39246.75, 143911.88)" xlink:href="#linear-gradient"/><linearGradient id="linear-gradient-12" x1="-1036.34" y1="431.22" x2="-1035.87" y2="431.22" gradientTransform="translate(16273.27 -3017.83) rotate(11.65) scale(14.62)" xlink:href="#linear-gradient-3"/><linearGradient id="linear-gradient-13" x1="-1128.25" y1="320.58" x2="-1127.77" y2="320.58" gradientTransform="translate(12330.7 10015.8) rotate(54.8) scale(13.33)" xlink:href="#linear-gradient-3"/><linearGradient id="linear-gradient-14" x1="-1247.96" y1="411.48" x2="-1247.48" y2="411.48" gradientTransform="translate(1333.77 33774.98) rotate(106.14) scale(25.61)" xlink:href="#linear-gradient-3"/><linearGradient id="linear-gradient-15" x1="-1174.07" y1="512.64" x2="-1173.6" y2="512.64" gradientTransform="matrix(83.76, -59.08, 59.08, 83.76, 68143.84, -112219.08)" gradientUnits="userSpaceOnUse"><stop offset="0" stop-color="#8e8981"/><stop offset="1" stop-color="#e2e0d2"/></linearGradient><linearGradient id="linear-gradient-16" x1="-1170.16" y1="509.24" x2="-1169.68" y2="509.24" gradientTransform="translate(78179.43 -89122.42) rotate(-25.28) scale(92.89)" xlink:href="#linear-gradient-15"/><linearGradient id="linear-gradient-17" x1="-1224.38" y1="529.13" x2="-1223.91" y2="529.13" gradientTransform="translate(-91419.64 -17298.06) rotate(-145.88) scale(69.83)" gradientUnits="userSpaceOnUse"><stop offset="0" stop-color="#786f68"/><stop offset="1" stop-color="#52433a"/></linearGradient><linearGradient id="linear-gradient-18" x1="-1138.75" y1="376.2" x2="-1138.27" y2="376.2" gradientTransform="translate(18677.47 13834.51) rotate(54.8) scale(19.33)" gradientUnits="userSpaceOnUse"><stop offset="0" stop-color="#38281f"/><stop offset="1" stop-color="#52433a"/></linearGradient><linearGradient id="linear-gradient-19" x1="-1141.51" y1="378.38" x2="-1141.04" y2="378.38" gradientTransform="matrix(10.95, 15.53, -15.53, 10.95, 18519.67, 13625.69)" gradientUnits="userSpaceOnUse"><stop offset="0" stop-color="#48230c"/><stop offset="1" stop-color="#291504"/></linearGradient><linearGradient id="linear-gradient-20" x1="-1583.81" y1="310.51" x2="-1583.33" y2="310.51" gradientTransform="matrix(-4.76, 3.66, -3.66, -4.76, -6256.89, 7341.18)" gradientUnits="userSpaceOnUse"><stop offset="0" stop-color="#2c0000"/><stop offset="1" stop-color="#7a7670"/></linearGradient><linearGradient id="linear-gradient-21" x1="-1197.35" y1="501.19" x2="-1196.87" y2="501.19" gradientTransform="translate(2407174.39 1370427.03) rotate(52.36) scale(2133.64)" xlink:href="#linear-gradient-18"/><linearGradient id="linear-gradient-22" x1="-1231.56" y1="633.24" x2="-1231.09" y2="633.24" gradientTransform="translate(-21580.71 -16282.87) rotate(-115.74) scale(19.61)" gradientUnits="userSpaceOnUse"><stop offset="0" stop-color="#b36a1c"/><stop offset="1" stop-color="#723b0e"/></linearGradient><linearGradient id="linear-gradient-23" x1="-1230.63" y1="629.77" x2="-1230.16" y2="629.77" gradientTransform="translate(-22098.79 -16740.93) rotate(-115.74) scale(20.14)" gradientUnits="userSpaceOnUse"><stop offset="0" stop-color="#c36d20"/><stop offset="1" stop-color="#9b4c15"/></linearGradient><linearGradient id="linear-gradient-24" x1="-1185.7" y1="192.3" x2="-1185.23" y2="192.3" gradientTransform="translate(4035.52 9554.23) rotate(76.6) scale(8.55)" gradientUnits="userSpaceOnUse"><stop offset="0" stop-color="#c36d20"/><stop offset="1" stop-color="#f2d244"/></linearGradient><linearGradient id="linear-gradient-25" x1="-1291.46" y1="804.16" x2="-1290.99" y2="804.16" gradientTransform="translate(-11005.66 -6221.53) rotate(-118.51) scale(8.39)" xlink:href="#linear-gradient-19"/><linearGradient id="linear-gradient-26" x1="-1232.57" y1="634.22" x2="-1232.09" y2="634.22" gradientTransform="translate(-21098.37 -15949.23) rotate(-115.74) scale(19.17)" xlink:href="#linear-gradient-22"/><linearGradient id="linear-gradient-27" x1="-1231.13" y1="628.8" x2="-1230.65" y2="628.8" gradientTransform="matrix(-8.68, -18.01, 18.01, -8.68, -21892.52, -16652.71)" xlink:href="#linear-gradient-23"/><linearGradient id="linear-gradient-28" x1="-1214.93" y1="98.4" x2="-1214.45" y2="98.4" gradientTransform="matrix(3.36, 7.94, -6.51, 0.89, 4844.01, 9612.42)" xlink:href="#linear-gradient-24"/><linearGradient id="linear-gradient-29" x1="-1290.99" y1="923.89" x2="-1290.51" y2="923.89" gradientTransform="matrix(-4.61, -6.96, 5.07, -2.72, -10521.7, -6421.18)" xlink:href="#linear-gradient-19"/></defs><title>5524608</title><g id="OBJECTS"><path d="M58.17,182.9a9.63,9.63,0,0,1,.92-.72c4.58-3.24,10.42-2,15-.57,2.58.81,5,1.84,7.42,2.85a64.73,64.73,0,0,0,9.14,3.3,31,31,0,0,0,4.56.76c12.09,1.08,23.41-4.83,29.08-8.45.78-.49,1.56-1,2.34-1.57l.68-.48c-.85-2-1.75-4.19-2.62-6.47-2.09-5.54-3.42-11.66-4.32-19.87-.28-2.58-.51-5.29-.69-7.48l0-.18c-.29-3.49-.59-7.09-1.07-10.64-4.24.19-9,2-14,5.27-.4.26-.81.54-1.21.82a33.89,33.89,0,0,0-4.11,3.39,19.53,19.53,0,0,0-4.73,6.74,12.12,12.12,0,0,1,4.94,3.81l.1.16a36.74,36.74,0,0,1,6.3,1.67c1.88.75,2.21,3.93,2.24,4.29,0,.14,0,.27,0,.41a4.12,4.12,0,0,1,1.66,2.22,2.64,2.64,0,0,1-.34,2.08,3,3,0,0,1-.79.83,3.76,3.76,0,0,1-3.3.33c-.23.19-.46.37-.74.57a9.41,9.41,0,0,1-8.48,1.19,5.66,5.66,0,0,1-2.24-1.62l-.37.47-.13.17a4.48,4.48,0,0,0-1,3.07c3.07,1.37,3.91,3.42,4.07,4.9a6.6,6.6,0,0,1-2,5.09,3,3,0,0,1-.95,2.95,1.71,1.71,0,0,1-.26.21,2.69,2.69,0,0,1-3.45-.34,6.37,6.37,0,0,1-6-1.18c-.65.23-2.2.49-3.48-1.56a9.55,9.55,0,0,1-6.93-5.21,12.42,12.42,0,0,1-.18-10.33,7.71,7.71,0,0,1,2.72-9.85,10.27,10.27,0,0,1,1.41-.84,12,12,0,0,1,3.54-4.85,21.11,21.11,0,0,1,4.78-12.58,37.79,37.79,0,0,1,6.9-6.81c.62-.48,1.24-.94,1.85-1.37a50,50,0,0,1,17.15-7.84,32.16,32.16,0,0,0-4.84-3.91l-.78-.5a104.86,104.86,0,0,1-17.56,6.83c-14.73,4.2-27.67,4.09-38.47-.34l-1-.44-.08,0a1.92,1.92,0,0,1-.31-3.3,1.9,1.9,0,0,1,1-.34c.44,0,.87,0,1.31,0-10-3.65-14.78-13.47-17-21.07a2,2,0,0,1,.76-2.15,3.3,3.3,0,0,1,.32-.18,1.85,1.85,0,0,1,2.06.34c4.08,3.79,10.75,6.35,15.75,3l.09-.07c2.42-1.7,1.7-5.46,1.28-7a26,26,0,0,0-4-8,58.33,58.33,0,0,0-5.62-6.74c-6.07-6.42-13.76-12.51-24.21-19.15C14.59,53,8.29,49.4,1.06,45.7A1.94,1.94,0,0,1,0,44.12a2,2,0,0,1,.83-1.73,1.94,1.94,0,0,1,.8-.33,157,157,0,0,1,22-2.06,106.67,106.67,0,0,1,18.27.9c4.5.65,9.78,1.37,15.1,1.85-1.73-1.28-3.6-2.6-5.68-4-6.3-4.3-13.06-8.67-20.39-10.86a2,2,0,0,1-1.34-1.54,1.79,1.79,0,0,1,1.39-2,106.39,106.39,0,0,1,18.5-2.35,85.23,85.23,0,0,1,16.45.63c6.33.89,12.32,3,18.94,5.45,1.48.55,3,1.12,4.42,1.69l.11,0,.12,0c4.21,1.62,8.55,3.29,12.94,4.56a41.2,41.2,0,0,0,7.06,1.44,21.33,21.33,0,0,0,3.5.08,13.23,13.23,0,0,0,1.53-.23l.1,0a3.52,3.52,0,0,1,.61-.1,6.62,6.62,0,0,1,.74-.11c1.47-.16,2.55,1.08,3.13,1.75l.1.12a25.31,25.31,0,0,1,3.18,4.92c.43.81.88,1.64,1.39,2.47.41.64,1,1.61,1.57,1.84a5.51,5.51,0,0,0,1.51-.75l.27-.16a13.06,13.06,0,0,0,1.24-.79A7.57,7.57,0,0,0,131.48,41a1.69,1.69,0,0,1,2-1.24,1.66,1.66,0,0,1,1.09.75,1.88,1.88,0,0,1,.22.52,19.1,19.1,0,0,1,.63,5.23c0,.8-.1,1.53-.17,2.21,2.25-1.55,4.35-2.91,6.4-4.14l.53-.32.28-.17.11-.08c2-1.23,4.3-2.64,6.85-3,5-.67,9,3.08,10.91,5.38A18.55,18.55,0,0,1,165,58.35c-.12,4.37-2.52,8.55-4.59,11.71-.29.43-.57.86-.86,1.27a86.46,86.46,0,0,1-10.72,12.4,188.53,188.53,0,0,1-23.76,20l-1.91,1.32c-2.12,1.45-4.29,2.87-6.46,4.2l.29.14a41.66,41.66,0,0,0,7.14,2.43l.13,0,.6.17a45.47,45.47,0,0,0,6.78-7.5c1.15-1.48,2.35-3,3.63-4.45a37,37,0,0,1,6.26-5.65,30.91,30.91,0,0,1,7.14-3.76,38.85,38.85,0,0,1,5.59-1.57c8.15-1.63,16.23-.46,22.23,3.2a18.14,18.14,0,0,1,2.25-1.87,16.38,16.38,0,0,1,6.82-2.86,9.7,9.7,0,0,1,10.59,5.88,7.73,7.73,0,0,1,.3,4.67,6.87,6.87,0,0,1,3,4.45,8,8,0,0,1-.37,4.25,4.57,4.57,0,0,1,1,2.94,2.63,2.63,0,0,1-1.11,2l-.06,0a3,3,0,0,1-2,.55,7,7,0,0,1-1.51,3.55,3,3,0,0,1-.92,3.51,2.51,2.51,0,0,1-.73.37,3.2,3.2,0,0,1-3.55-1.26,8.35,8.35,0,0,1-1,0,8.34,8.34,0,0,1-7.83-6.53l-.64-.11a5.56,5.56,0,0,0-2.23-.08,5.42,5.42,0,0,1-.74,2.82,5.09,5.09,0,0,1-1.45,1.52l-.14.09a3.52,3.52,0,0,1-1.37,2.44,3,3,0,0,1-1,.46c-.59.14-2.55.36-3.54-2.36A10.35,10.35,0,0,1,164.1,108a6.24,6.24,0,0,1,1.72-4.19,22.36,22.36,0,0,0-4.75-1,14,14,0,0,0-6.83,1.47l-.42.22-.21.11a21.29,21.29,0,0,0-2.69,1.64c-3.32,2.34-6.47,5.81-9.65,10.61,11.37,2.17,23,8.17,32.73,16.92a72.14,72.14,0,0,1,13,15.49,60.65,60.65,0,0,1,4.08,7.85c1.15,2.61,2.18,5.29,3.18,7.88l0,.12.18.47.2.5.78,2a51.45,51.45,0,0,0,5.11,10.3c.55-.46,1.12-.89,1.7-1.3a22.35,22.35,0,0,1,7.24-3.45,15.3,15.3,0,0,1,2.1-.4,10.48,10.48,0,0,1,.94-.71,18,18,0,0,1,9.56-3.25c.32-.26.63-.51.94-.73a13.31,13.31,0,0,1,15.52.17c2.08-.07,3.35.52,3.76,1.76a3.21,3.21,0,0,1-.15,2.22,5.1,5.1,0,0,1,.16,4.08,7,7,0,0,1-2.68,3.17,23.63,23.63,0,0,1-2.25,1.36l-.09,0-.4.22h0a6.89,6.89,0,0,1-1.42,2.28,13.08,13.08,0,0,1-2.06,1.78,31.57,31.57,0,0,1-3.61,2.1l-.15.08c-.6.32-1.22.65-1.83,1h0a12.38,12.38,0,0,1-1.44,1.75,17.39,17.39,0,0,1-2.23,1.85,39.88,39.88,0,0,1-7.31,3.78l-1.35.6-.3.13a49,49,0,0,0-6.52,3.27l-1.89,1.22-.06,0c-1.24.81-2.65,1.73-4.1,2.54-1.94,1.08-7.1,3.95-11.24,1-2.46-1.75-3.72-5.08-3.55-9.39a3.18,3.18,0,0,1-.17-.27,29.88,29.88,0,0,0-11.3-12.84,29.28,29.28,0,0,0-7.92-3.21,7.4,7.4,0,0,0-6.38.9l-.11.08-.07.05c-1.87,1.41-3,4-3.64,5.8a33.58,33.58,0,0,0-1.71,8.71c-.5,6,.49,12.31,1.65,18.19a1.46,1.46,0,0,1,0,.47l.19.21.3.34c2.53,2.8,5.4,6,6.5,9.94,1.41,5.05-1.49,8.86-4.59,12.33a44.09,44.09,0,0,1-6,5.8c-.28.22-.58.45-.89.66a10.75,10.75,0,0,1-6.55,2.36H147c-.29.22-.57.45-.86.69l-.19.15c-.63.51-1.36,1.1-2.1,1.62a9.6,9.6,0,0,1-6.44,2.1h-.05l-.33.24a12.56,12.56,0,0,1-7.5,2.57c-3.07-.14-5.46-2.11-6.55-5.4a14.82,14.82,0,0,1-.14-9.1,18,18,0,0,1,5.14-7.53,15.14,15.14,0,0,1,1.16-4.06,14.35,14.35,0,0,1,5-5.83,21.11,21.11,0,0,1,2.18-1.34c2.49-3.63,1.82-8.63.84-13.05-.34-1.56-.8-3.26-1.38-5.2-1.44,1.21-2.93,2.35-4.42,3.4l-.41.28A64.78,64.78,0,0,1,100.83,216c-.93.1-1.89.17-3,.23a62.71,62.71,0,0,1-30-5.89c-6.75-3.24-11.17-7.27-13.13-12A14.32,14.32,0,0,1,58.17,182.9Z"/><path class="cls-1" d="M153.21,242.07c.3-.21.59-.42.86-.64a43.55,43.55,0,0,0,5.91-5.69c2.94-3.29,5.7-6.88,4.41-11.51-1-3.75-3.85-6.85-6.31-9.58-.19-.21-.38-.41-.56-.62a.68.68,0,0,1-.16-.55.88.88,0,0,0,0-.28c-1.16-5.94-2.17-12.29-1.65-18.43a33.73,33.73,0,0,1,1.75-8.94c.71-1.92,1.88-4.65,3.94-6.2l.2-.14a8.25,8.25,0,0,1,7.11-1,30.08,30.08,0,0,1,8.16,3.31A30.81,30.81,0,0,1,188.5,195a.76.76,0,0,0,.11.16.74.74,0,0,1,.15.45c-.18,4,1,7.13,3.18,8.71,3.68,2.61,8.49-.06,10.3-1.07,1.44-.8,2.85-1.73,4.1-2.55.63-.41,1.26-.83,1.9-1.23a50.72,50.72,0,0,1,6.63-3.33l.3-.13,1.37-.6a40,40,0,0,0,7.15-3.69,16.15,16.15,0,0,0,2.1-1.76,11,11,0,0,0,1.37-1.65.58.58,0,0,1,.17-.18l.08-.05.06,0c.64-.37,1.32-.73,2-1.08a31.7,31.7,0,0,0,3.51-2,11.77,11.77,0,0,0,1.92-1.66,6,6,0,0,0,1.27-2.05.66.66,0,0,1,.25-.32l0,0,.49-.27.07,0c.69-.39,1.48-.82,2.19-1.32a6.17,6.17,0,0,0,2.36-2.77,4.31,4.31,0,0,0-.18-3.47.7.7,0,0,1,0-.55,2.36,2.36,0,0,0,.16-1.68c-.28-.84-1.27-1.23-2.95-1.16a.65.65,0,0,1-.41-.11,12.45,12.45,0,0,0-14.57-.22c-.31.22-.63.47-.94.73l0,0a.65.65,0,0,1-.36.12,17.21,17.21,0,0,0-9.16,3.09c-.31.22-.63.46-.93.71l0,0a.84.84,0,0,1-.31.12,14.45,14.45,0,0,0-2,.38,21.62,21.62,0,0,0-7,3.32c-.61.43-1.23.9-1.82,1.4l0,0a.68.68,0,0,1-1-.16,51.63,51.63,0,0,1-5.33-10.67c-.33-.84-.66-1.68-1-2.51l-.18-.48c-1-2.61-2.05-5.33-3.21-8a60,60,0,0,0-4-7.73,71.73,71.73,0,0,0-12.88-15.31c-9.72-8.71-21.3-14.67-32.61-16.76a.67.67,0,0,1-.49-.39.69.69,0,0,1,.05-.64c3.3-5,6.58-8.67,10-11.11a24.13,24.13,0,0,1,2.8-1.71l.2-.1.45-.23a14.83,14.83,0,0,1,7.27-1.56,23.74,23.74,0,0,1,5.25,1.1.67.67,0,0,1,.46.45.68.68,0,0,1-.14.63,5.69,5.69,0,0,0-1.72,3.84,9.44,9.44,0,0,0,5.63,8,.68.68,0,0,1,.38.4c.69,2,1.89,2,2.54,1.88a2.17,2.17,0,0,0,.73-.32,2.76,2.76,0,0,0,1-1.93.68.68,0,0,1,.28-.46l0,0,.19-.12a4.37,4.37,0,0,0,1.21-1.26,4.63,4.63,0,0,0,.61-2.52.66.66,0,0,1,.3-.54.76.76,0,0,1,.22-.11,6,6,0,0,1,2.73,0c.29,0,.56.09.81.14a.66.66,0,0,1,.52.51,7.44,7.44,0,0,0,7,6,8.18,8.18,0,0,0,1,0,.67.67,0,0,1,.59.25,2.43,2.43,0,0,0,2.66,1,1.8,1.8,0,0,0,.5-.25c1-.67.75-2,.55-2.64a.65.65,0,0,1,.13-.63A6.2,6.2,0,0,0,196,112a.66.66,0,0,1,.26-.47h0a.67.67,0,0,1,.5-.12,2.11,2.11,0,0,0,1.61-.37l0,0a1.8,1.8,0,0,0,.76-1.32,3.86,3.86,0,0,0-.92-2.43.67.67,0,0,1-.09-.64,7.16,7.16,0,0,0,.38-3.88,6,6,0,0,0-2.71-3.93.68.68,0,0,1-.33-.75,7,7,0,0,0-.23-4.29,8.83,8.83,0,0,0-9.63-5.33,15.58,15.58,0,0,0-6.45,2.71A18.55,18.55,0,0,0,177,93.05l-.08.07a.66.66,0,0,1-.75,0c-5.81-3.61-13.73-4.76-21.73-3.16A36.25,36.25,0,0,0,149,91.51,29.74,29.74,0,0,0,142,95.16a35.61,35.61,0,0,0-6.11,5.52c-1.27,1.43-2.46,2.95-3.61,4.42a45.63,45.63,0,0,1-7,7.69l0,0a.66.66,0,0,1-.56.1l-.71-.19-.13,0a41.47,41.47,0,0,1-7.29-2.49l-.65-.32a.68.68,0,0,1-.36-.57.65.65,0,0,1,.29-.57l0,0c2.27-1.38,4.54-2.85,6.75-4.36l1.89-1.32A187,187,0,0,0,148.19,83.1a87.23,87.23,0,0,0,10.62-12.26l.85-1.27c2-3.06,4.32-7.1,4.44-11.25a17.61,17.61,0,0,0-4.48-11.57c-1.82-2.16-5.57-5.69-10.12-5.08-2.36.32-4.56,1.67-6.5,2.87l-.09.06-.84.51c-2.14,1.28-4.35,2.72-6.74,4.37a.67.67,0,0,1-.73,0,.68.68,0,0,1-.32-.66c.11-.8.18-1.65.23-2.6a18.85,18.85,0,0,0-.61-5,.79.79,0,0,0-.11-.24.78.78,0,0,0-.5-.35.86.86,0,0,0-.64.14.8.8,0,0,0-.32.45,8.43,8.43,0,0,1-3.45,4.28c-.41.29-.85.57-1.31.84l-.3.17a4.42,4.42,0,0,1-1.92.86.69.69,0,0,1-.25,0c-.87-.3-1.53-1.37-2.07-2.23s-1-1.64-1.42-2.51a24.86,24.86,0,0,0-3.06-4.76l-.1-.12c-.51-.58-1.36-1.56-2.38-1.45-.23,0-.46.06-.68.1a3.18,3.18,0,0,0-.54.09h0l-.12,0a12.59,12.59,0,0,1-1.63.24,22.16,22.16,0,0,1-3.65-.08,42.26,42.26,0,0,1-7.21-1.48c-4.4-1.27-8.78-3-13-4.57l-.06,0-.07,0c-1.5-.58-3-1.16-4.51-1.72C78,26.4,72,24.31,65.78,23.43a84.28,84.28,0,0,0-16.28-.62,105.64,105.64,0,0,0-18.34,2.33,1,1,0,0,0-.35.15.91.91,0,0,0-.36.9,1,1,0,0,0,.71.83c7.46,2.23,14.28,6.65,20.63,11,2.32,1.58,4.38,3,6.32,4.49a.67.67,0,0,1,.23.77.64.64,0,0,1-.25.31.67.67,0,0,1-.44.13c-5.62-.49-11.19-1.25-15.9-1.92a103.9,103.9,0,0,0-18.12-.89,155.67,155.67,0,0,0-21.85,2,1.14,1.14,0,0,0-.44.18,1.05,1.05,0,0,0-.45.94,1,1,0,0,0,.57.86c7.24,3.71,13.57,7.3,19.33,11,10.52,6.69,18.26,12.82,24.38,19.29A61.3,61.3,0,0,1,50.88,82,26.88,26.88,0,0,1,55,90.24c.47,1.71,1.26,5.91-1.62,7.94l-.09.07c-5.42,3.61-12.54.93-16.86-3.09A1,1,0,0,0,35.29,95l-.18.1a1.07,1.07,0,0,0-.42,1.18c2.17,7.42,6.8,17,16.51,20.51l.95.32a.67.67,0,0,1,.46.72.64.64,0,0,1-.28.47.58.58,0,0,1-.34.12c-.78,0-1.57.08-2.43.1a1,1,0,0,0-.55.17,1.06,1.06,0,0,0-.42.94,1,1,0,0,0,.59.84c.35.16.7.32,1.07.47,10.6,4.35,23.35,4.45,37.89.31a103.93,103.93,0,0,0,17.51-6.84.68.68,0,0,1,.65,0l.91.59a32.07,32.07,0,0,1,5.25,4.29.67.67,0,0,1,.16.66.66.66,0,0,1-.49.46,49,49,0,0,0-17.21,7.79c-.59.42-1.21.87-1.82,1.35a37,37,0,0,0-6.74,6.65,20.19,20.19,0,0,0-4.6,12.15.67.67,0,0,1-.25.52,11,11,0,0,0-3.37,4.62.64.64,0,0,1-.24.3l-.09.06a8.78,8.78,0,0,0-1.37.8,6.83,6.83,0,0,0-2.39,8.83.68.68,0,0,1,0,.59,11.48,11.48,0,0,0,.13,9.64,8.61,8.61,0,0,0,6.34,4.75.64.64,0,0,1,.5.32c.9,1.48,1.86,1.5,2.5,1.26l.06,0a.64.64,0,0,1,.73.14,5.51,5.51,0,0,0,5.37,1,.69.69,0,0,1,.63.16,1.81,1.81,0,0,0,2.43.35.9.9,0,0,0,.19-.15,2.21,2.21,0,0,0,.65-2.21.69.69,0,0,1,.17-.6,5.87,5.87,0,0,0,1.81-4.48c-.19-1.82-1.46-3.29-3.67-4.23a.65.65,0,0,1-.4-.62,5.44,5.44,0,0,1,1.2-3.76l.13-.17.53-.67.14-.14a.72.72,0,0,1,.4-.12.66.66,0,0,1,.53.27,4.85,4.85,0,0,0,2,1.55,8.49,8.49,0,0,0,7.64-1.11l0,0a8,8,0,0,0,.71-.56l.06,0a.69.69,0,0,1,.59-.1,3,3,0,0,0,2.64-.17,2,2,0,0,0,.55-.58,1.69,1.69,0,0,0,.23-1.39,3.3,3.3,0,0,0-1.41-1.79.67.67,0,0,1-.28-.55c0-.15,0-.29,0-.44-.09-1-.55-3.09-1.68-3.53a36.12,36.12,0,0,0-6.25-1.66.68.68,0,0,1-.47-.35.75.75,0,0,0-.07-.12,11.15,11.15,0,0,0-4.75-3.6.68.68,0,0,1-.37-.86,20.09,20.09,0,0,1,5-7.25,34.61,34.61,0,0,1,4.22-3.48c.41-.29.82-.57,1.24-.84,5.27-3.44,10.21-5.27,14.67-5.42a.67.67,0,0,1,.69.58c.5,3.64.81,7.33,1.1,10.9l0,.16c.2,2.44.42,5,.69,7.45.89,8.13,2.2,14.19,4.27,19.66.87,2.3,1.79,4.53,2.66,6.59a.68.68,0,0,1-.22.81l-.82.58c-.79.56-1.59,1.09-2.37,1.59-5.77,3.69-17.29,9.69-29.64,8.59a31.22,31.22,0,0,1-4.69-.78,66.61,66.61,0,0,1-9.28-3.35c-2.36-1-4.81-2-7.34-2.82-4.38-1.37-10-2.56-14.22.45a8.69,8.69,0,0,0-.84.66A13.39,13.39,0,0,0,55.47,198c1.88,4.49,6.16,8.37,12.71,11.51a61.74,61.74,0,0,0,29.59,5.81c1.14-.06,2.08-.13,3-.22A64.09,64.09,0,0,0,130.42,204l.4-.28c1.56-1.1,3.11-2.3,4.61-3.56l0,0a.67.67,0,0,1,.58-.1.68.68,0,0,1,.45.45c.64,2.08,1.12,3.9,1.49,5.57,1,4.62,1.71,9.87-1,13.79a.81.81,0,0,1-.16.16l-.07.05a19.91,19.91,0,0,0-2.14,1.3,13.46,13.46,0,0,0-4.67,5.47,14.32,14.32,0,0,0-1.11,3.9.64.64,0,0,1-.2.39,17.29,17.29,0,0,0-5,7.2,14,14,0,0,0,.14,8.57c1,2.92,3.07,4.66,5.75,4.78a11.6,11.6,0,0,0,6.95-2.4l.38-.27h0a.63.63,0,0,1,.46-.12h.11a8.84,8.84,0,0,0,5.86-1.94c.71-.5,1.4-1,2.06-1.59l.18-.15c.32-.26.63-.51.94-.74l0,0a.66.66,0,0,1,.43-.12h.21a10,10,0,0,0,6-2.2Z"/><path class="cls-2" d="M152.18,178.77c-17.3,29.24-49.57,43.87-81.6,30.85-5.5-2.32-13.52-7.11-14.84-13.91-1.07-7,3.06-13.78,9.64-13.78,9.94,0,18.4,7.11,28.28,8.22,17.66,2,34.71-8.09,46.08-20.8Z"/><path class="cls-3" d="M113.76,205.83a16.62,16.62,0,0,1-2.63,4.34c4.23-1.22,10.29-4.92,13-8.49a12.32,12.32,0,0,1-1.92,4.83c3.76-2.75,7.92-5.43,10.26-9.53a10.36,10.36,0,0,1-1,3.78c1.85-2.14,4.49-4.31,5.16-7.37l5.72-1.31c-11.3,12.41-25.91,20.35-41.75,22C105.32,212.12,110.5,209.37,113.76,205.83Z"/><path class="cls-4" d="M70.58,209.62c-5.5-2.32-13.52-7.11-14.84-13.91-1.07-7,3.06-13.78,9.64-13.78,9.94,0,18.4,7.11,28.28,8.22l.57,0a2.54,2.54,0,0,1,.69,1.89c-.39,1.81-3.87,1.89-4.88,3.4-3.56,5.29,7,12.63,7.69,18.82A62.53,62.53,0,0,1,70.58,209.62Z"/><path class="cls-5" d="M70.58,209.62c-5.5-2.32-13.52-7.11-14.84-13.91-1.07-7,3.06-13.78,9.64-13.78,9.27,0,17.26,6.19,26.32,7.92a2.61,2.61,0,0,1,0,1.45c-.5,2-3.09,2.49-3.69,4.54-1.18,4,2.52,7.35,3.7,10.84a6.58,6.58,0,0,1-1.84,7.54A63.81,63.81,0,0,1,70.58,209.62Z"/><path class="cls-6" d="M121,207.8a79.18,79.18,0,0,0,31.14-29h0A76.44,76.44,0,0,1,130,203.39a63.35,63.35,0,0,1-29.37,11.07c-1,.1-2,.17-2.94.22l-.37-.73A62.14,62.14,0,0,0,121,207.8Z"/><path class="cls-7" d="M125.13,181.38a74.6,74.6,0,0,0,14.39-12.2c.24-.26.67.08.43.35-7.71,8.86-17.8,16-29.12,19.36a43.75,43.75,0,0,1-16,1.63l.29-.45C105.57,191,116.45,186.92,125.13,181.38Z"/><path class="cls-8" d="M68.47,208.93c-5-2.38-10.18-5.91-12.38-11.16a12.82,12.82,0,0,1,3.11-13.71c4.07-3.57,9.7-2.45,14.42-1,5.66,1.78,10.88,4.74,16.66,6.18a32.58,32.58,0,0,0,4.79.8l-.29.45-1.16-.1c-5.74-.63-11-3.3-16.3-5.41-5-2-12-4.61-16.91-1.27s-5.82,11.07-2.77,16c3.2,5.11,9.25,8.27,14.72,10.34a62,62,0,0,0,17,3.79,60.14,60.14,0,0,0,8,.12l.37.73A60.79,60.79,0,0,1,68.47,208.93Z"/><path class="cls-9" d="M124.76,246.5c-2-6.14.37-11,4.67-15.2l.29.68c0-.21,0-.42,0-.62.54-5.7,4.34-9.28,9.15-11.47l-1.28.4c5.15-7.11-.19-19.61-2.35-26.79-2.43-8.06-6.3-15.55-9.18-23.44-4.56-12.42-3.95-27.69-5.93-37.91l-.27-.39c-10-.52-24.85,8.82-27.42,18.76l-.52.08a11.23,11.23,0,0,1,6.15,3.79l.41.58a46.8,46.8,0,0,1,6.5,1.8c5.39,7.23-9.45,13.35-10.79,5.29-1.75,3.27-3.85,3.59-3.54,7.73l.08.53c11,4.11-4.46,15.91-7,7l-.15-.28a5.78,5.78,0,0,1-4.73-.05c-5.31-2.62-6-8.83-3.66-13.36-2-3.27-.77-7.43,3.56-9.19l0-.29a10.23,10.23,0,0,1,3.56-4.83l.25-.47c0-14.21,18.61-25.68,31.88-28.11,0-.25,0-.44,0-.44-3.47-4.52-9.16-8.05-15.21-10.46l9.56-4.14c4.28,4.83,10.52,7.1,16.48,8.12l.19-.13a22,22,0,0,0,4.24-3.87c5.56-6.53,9.59-13.15,18.06-16.8s20-4.21,28.12.78l.87.71c3.86-4,10.7-7.45,15.72-3.12a6.46,6.46,0,0,1,1.84,7.48l.54.42c4.54,2.51,3.11,8.17-.07,10.31l.42.47c1.66,8.12-11,9.51-12.16.45a9.42,9.42,0,0,0-3-.51,4.73,4.73,0,0,0-2.09.32l-1.08.4c-.15,1.4,0,2.45-1.16,3.5-3.75,3.41-8.65-1.16-9.51-4.91-.88-3.36,1.31-4.19,2.61-6.29l-.14-.09c-6.72-2.52-11.46-2.66-17.55,1a39.41,39.41,0,0,0-12.41,13.69h0l.05.46a58.6,58.6,0,0,1,12.22,3.42,73.07,73.07,0,0,1,37.17,33.25c4.23,8.05,6.35,18.46,11.93,25.56l.4.48a24.69,24.69,0,0,1,8.57-5.06,14.16,14.16,0,0,1,3.65-.73l-.25-.22a17.65,17.65,0,0,1,11.22-3.73l-.47-.37c4.13-3.2,8.13-3.7,13-1.33,1.73.81,4.62,3.1,4.87,5.27.35,2.95-3.88,4.77-5.44,5.87l-.05-.05c-.8,3.18-5.8,5.25-8.45,6.92l-.32-.27a13.08,13.08,0,0,1-5.22,4.76c-4.16,2.35-8.85,3.92-13.2,6.4-3.24,2-7,4.93-10.9,5.95-5.39,1.33-7.75-3.39-7.82-8.21l-.4-1.38c-3.7-8.13-10-14.15-18.74-16.68-9-2.93-13.4,3.64-15.07,12.37-1.65,7.55-.65,15.55,1.13,23l-.25.47c5.91,7.15,11.32,12.34,3.82,20.24-2.75,3.1-7.8,8.69-12.13,9.14a5.12,5.12,0,0,1-1.42-.06l0,.16-.78.55c-2.48,2.23-6.06,4.84-9.39,3.82l.16.37C132.32,251,126.63,252.44,124.76,246.5Z"/><path class="cls-10" d="M175.83,93.76l.87.71c3.86-4,10.7-7.45,15.72-3.12a6.46,6.46,0,0,1,1.84,7.48l.54.42c4.54,2.51,3.11,8.17-.07,10.31l.42.47c1.66,8.12-11,9.51-12.16.45a9.42,9.42,0,0,0-3-.51,4.73,4.73,0,0,0-2.09.32l-1.08.4c-.15,1.4,0,2.45-1.16,3.5-3.75,3.41-8.65-1.16-9.51-4.91-.88-3.36,1.31-4.19,2.61-6.29l-.14-.09c-5-1.89-8.94-2.44-13.14-1.05l1.88-11.45C163.77,89.62,170.51,90.51,175.83,93.76Z"/><path class="cls-11" d="M92.48,150.52l-.52.08a11.23,11.23,0,0,1,6.15,3.79l.41.58a46.8,46.8,0,0,1,6.5,1.8c5.39,7.23-9.45,13.35-10.79,5.29-1.75,3.27-3.85,3.59-3.54,7.73l.08.53c11,4.11-4.46,15.91-7,7l-.15-.28a5.78,5.78,0,0,1-4.73-.05c-5.31-2.62-6-8.83-3.66-13.36-2-3.27-.77-7.43,3.56-9.19l0-.29a10.23,10.23,0,0,1,3.56-4.83l.25-.47a19.94,19.94,0,0,1,4.57-12.15c3.36,1.14,8.25,2.86,11.76,4.12C95.75,143.69,93.37,147.07,92.48,150.52Z"/><path class="cls-12" d="M155.41,190.33c-1.65,7.55-.65,15.55,1.13,23l-.25.47c5.91,7.15,11.32,12.34,3.82,20.24-2.75,3.1-7.8,8.69-12.13,9.14a5.12,5.12,0,0,1-1.42-.06l0,.16-.78.55c-2.48,2.23-6.06,4.84-9.39,3.82l.16.37c-4.27,3-10,4.41-11.83-1.53-2-6.14.37-11,4.67-15.2l.29.68c0-.21,0-.42,0-.62.54-5.7,4.34-9.28,9.15-11.47l-1.28.4c3.87-5.35,1.81-13.75-.37-20.64l19.26-13.59A31.71,31.71,0,0,0,155.41,190.33Z"/><path class="cls-13" d="M200,180.34l.4.48a24.69,24.69,0,0,1,8.57-5.06,14.16,14.16,0,0,1,3.65-.73l-.25-.22a17.65,17.65,0,0,1,11.22-3.73l-.47-.37c4.13-3.2,8.13-3.7,13-1.33,1.73.81,4.62,3.1,4.87,5.27.35,2.95-3.88,4.77-5.44,5.87l-.05-.05c-.8,3.18-5.8,5.25-8.45,6.92l-.32-.27a13.08,13.08,0,0,1-5.22,4.76c-4.16,2.35-8.85,3.92-13.2,6.4-3.24,2-7,4.93-10.9,5.95-5.39,1.33-7.75-3.39-7.82-8.21l-.4-1.38c-3.7-8.13-10-14.15-18.74-16.68a13.32,13.32,0,0,0-1.8-.47l22.47-15.86C193.71,168.16,195.94,175.14,200,180.34Z"/><path class="cls-4" d="M147.84,233.2c4.47-1.93,9.48-3.29,13.47-6.1a13,13,0,0,0,2.3-2.08c.55,2.76-.29,5.64-3.5,9-2.75,3.1-7.8,8.69-12.13,9.14a5.12,5.12,0,0,1-1.42-.06l0,.16-.78.55c-2.48,2.23-6.06,4.84-9.39,3.82l.16.37c-3.35,2.36-7.57,3.73-10.14,1.34a31.19,31.19,0,0,1,7-7.88A65.07,65.07,0,0,1,147.84,233.2Z"/><path class="cls-4" d="M241,174.65c.35,2.95-3.88,4.77-5.44,5.87l-.05-.05c-.8,3.18-5.8,5.25-8.45,6.92l-.32-.27a13.08,13.08,0,0,1-5.22,4.76c-4.16,2.35-8.85,3.92-13.2,6.4-3.24,2-7,4.93-10.9,5.95a5.65,5.65,0,0,1-4.51-.53c7.68-3,14.47-9.52,20.62-14.89,4.11-3.59,7.86-7.95,12.57-10.91,3.44-2.15,8.46-5.24,13.13-6.29A5.57,5.57,0,0,1,241,174.65Z"/><path class="cls-14" d="M160.93,175.11c6-5.09,14.18-14.06,14.18-14.06-1.76,4.17-6.26,10.41-9,14,9.33-.89,20,13,20,13l-.58.22a28.24,28.24,0,0,0-15-10.4c-9-2.93-13.4,3.64-15.07,12.37-1.65,7.55-.65,15.55,1.13,23l-.25.47,1.37,1.64c-1.91-1.51-3.9-2.76-3.9-2.76C148.79,194.13,154.94,180.21,160.93,175.11Z"/><path class="cls-15" d="M135.32,117.4l.5-.93c.83-.88,7.9-12.26,16.89-16a18,18,0,0,1,16.15,1.09l-.58,1.19c-6.53-2.39-11.21-2.46-17.19,1.18a39.41,39.41,0,0,0-12.41,13.69h0l.05.46,1.49.26A25.38,25.38,0,0,1,135.32,117.4Z"/><path class="cls-16" d="M92.48,150.52l-.3,0a15.82,15.82,0,0,1-2-1.3c1.3-5.57,8.29-12.53,15.84-15.82a23.36,23.36,0,0,1,13.91-1.69C109.94,131.24,95.05,140.58,92.48,150.52Z"/><path class="cls-5" d="M107.77,111.28l4-1.68s6.36,6.54,25.48,10.19S178,139.25,171,154.38s-30.38,21.14-38,6.2S130.84,127.53,107.77,111.28Z"/><path class="cls-5" d="M171.86,108.17c1-6.89,9.42-13.71,15.61-8.54a14.83,14.83,0,0,1,4.75,9.67c.17,2.23-1.08,6.27-3.49,7.35a6.65,6.65,0,0,1-5.74-6.17,9.42,9.42,0,0,0-3-.51,4.73,4.73,0,0,0-2.09.32l-1.08.4c-.15,1.4,0,2.45-1.16,3.5a4.56,4.56,0,0,1-1.93,1.07c-.48-.74-.9-1.48-1.24-2.13A8.15,8.15,0,0,1,171.86,108.17Z"/><path class="cls-5" d="M86.13,176.78c-.56-.42-.81-.66-1.31-1A12.49,12.49,0,0,1,83.4,175c-2-1.57-3.11-4.84-1.91-7.22.54-1.07,1.72-1.7,2.12-3.05s.36-2.65,1-3.92c3.35-7.13,16.64-1.71,18.06,4.08-3.27,1.7-7.7,1.38-8.4-2.86-1.75,3.27-3.85,3.59-3.54,7.73l.08.53c5,1.86,4.55,5.3,2.34,7.67a9.29,9.29,0,0,1-3.51.41A6.48,6.48,0,0,1,86.13,176.78Z"/><path class="cls-4" d="M137.29,119.79c19.12,3.64,40.73,19.46,33.69,34.59s-30.38,21.14-38,6.2-2.13-33.05-25.2-49.3l.63-.26c4,2.12,10.34,7.9,16.78,18.76,7.64,12.9,8.38,28.35,14.8,34.56s30.75-4.56,30-14.74-16.15-25.77-32.87-28.49c-16.32-2.65-25.69-10.75-26.14-11.14l.89-.37S118.17,116.14,137.29,119.79Z"/><path class="cls-4" d="M89.6,178.4a6.48,6.48,0,0,1-3.47-1.62c-.56-.42-.81-.66-1.31-1A12.49,12.49,0,0,1,83.4,175c-2-1.57-3.11-4.84-1.91-7.22.54-1.07,1.72-1.7,2.12-3.05s.36-2.65,1-3.92c3.35-7.13,16.64-1.71,18.06,4.08a9.43,9.43,0,0,1-1.89.72c-1.11-2.91-2.8-5.28-6.23-6.39-4.58-1.47-7.62,1-9.63,4.76-1.68,3.14-2.92,6.4-.09,9.36a11.81,11.81,0,0,0,9.33,3.24,7.27,7.27,0,0,1-1,1.38A9.29,9.29,0,0,1,89.6,178.4Z"/><path class="cls-4" d="M172.51,113.13a8.15,8.15,0,0,1-.65-5c1-6.89,9.42-13.71,15.61-8.54a14.83,14.83,0,0,1,4.75,9.67c.17,2.23-1.08,6.27-3.49,7.35a6.79,6.79,0,0,1-2-.59c2.27-3,3.64-5.79,2.51-10.28-.78-3.1-2.36-7.59-6.22-7.59s-7.49,3.35-8.7,6.71c-1,2.61-1.27,7.3.22,10.06a3.72,3.72,0,0,1-.8.3C173.27,114.52,172.85,113.78,172.51,113.13Z"/><path class="cls-17" d="M134.43,191.89c.42,1.3.86,2.6,1.29,3.91l.59-.42c-.5-1.53-1-3.06-1.54-4.57-2.44-7.09-5.89-13.78-8.42-20.84-2.31-6.46-3.2-13.32-3.84-20.12-.57-5.92-.8-12-2.17-17.76,0-.2-.38-.12-.35.08.93,6.41,1.22,12.9,1.93,19.34A78.73,78.73,0,0,0,126.15,171C128.8,178,132.11,184.76,134.43,191.89Zm-9-78.2c4.38-2.89,7.28-7.36,10.67-11.27,3.51-4.07,7.56-7.58,12.61-9.6a37.07,37.07,0,0,1,5.77-1.76l.06-.42a35.89,35.89,0,0,0-5.36,1.5,31.6,31.6,0,0,0-12.78,9c-3.68,4.14-6.63,9-11,12.48A.05.05,0,1,0,125.44,113.69Zm27.46-10.48c0-.19,0-.37.07-.55-6.18,3-11.38,8.84-14.47,14.9-.1.2.21.4.34.21C142.39,112.08,146.81,106.35,152.9,103.21Zm-16.14,14.71a58.72,58.72,0,0,1,10.86,2.64,74.29,74.29,0,0,1,33.18,23.61A69.41,69.41,0,0,1,189.32,158l.37-.27a59.59,59.59,0,0,0-4-7.64A70.76,70.76,0,0,0,173,134.91c-10-9-22.67-15.72-36.17-17.18A.1.1,0,0,0,136.76,117.92Zm-22.26,2.26a27.26,27.26,0,0,0-6.92-6.37,29.79,29.79,0,0,0-8.37-4.21c-.24-.06-.31.28-.12.38,1.35.77,2.84,1.28,4.23,2a41,41,0,0,1,4.26,2.47,30.18,30.18,0,0,1,6.71,5.89C114.39,120.46,114.6,120.32,114.5,120.18Zm5.4,11.54c-5.93-.36-11.93,2.09-16.77,5.37a34,34,0,0,0-5.39,4.47l.41.19a36.77,36.77,0,0,1,5.56-4.4c4.71-3.07,10.45-5.71,16.19-5.54Zm-33,4.89.43.18a36.49,36.49,0,0,1,6.9-6.76,49.58,49.58,0,0,1,21-9.41c.06,0,.06-.12,0-.11a47.87,47.87,0,0,0-21.68,9.57A36.51,36.51,0,0,0,86.89,136.61Zm21.62-30.78c3.81,4.73,10.75,7.53,16.7,8v0a54,54,0,0,1-8.93-3,27.26,27.26,0,0,1-7.37-5.37C108.69,105.21,108.31,105.58,108.51,105.83Z"/><path class="cls-18" d="M192.86,110.64a5.93,5.93,0,0,0,4-2.79,6.85,6.85,0,0,0,1.06-5,4.9,4.9,0,0,0-3.08-3.75c-.14-.05-.2.15-.11.23,1.22,1.19,2.43,2.11,2.59,4a6.58,6.58,0,0,1-1.1,4.27c-2,2.85-5.39,3.41-7.94.92v0C189.43,109.82,191,110.94,192.86,110.64ZM168.55,103c-1.18,1.56-2.94,2.88-2.9,5a8.45,8.45,0,0,0,2.71,5.78c1.41,1.33,3.45,2.49,5.45,1.91a4.52,4.52,0,0,0,2.59-1.8c.73-1.17.41-2.39.55-3.68h-.06c-.21,1.15-.29,2.78-1.18,3.64a4.2,4.2,0,0,1-3,1.29,6.47,6.47,0,0,1-4.7-2.79c-1.15-1.51-2.4-4-1.5-5.85.79-1.66,2.31-2.75,2.85-4.56,0-.09-.12-.13-.15,0a6.4,6.4,0,0,1-.62,1,18.3,18.3,0,0,0-15.51-.24.8.8,0,0,0-.16.08c0,.18-.05.36-.07.55l.68-.35a15.48,15.48,0,0,1,7.59-1.62A35.3,35.3,0,0,1,168.55,103Zm7.29-9.2c-6.2-3.88-14.09-4.55-21.29-3.11l-.06.42c7.18-1.56,14.95-1,21.34,2.71Zm2.09,16.58a6.61,6.61,0,0,1,3,0,10.86,10.86,0,0,1,1.4.29c.46.14.38.4.46.78a7.2,7.2,0,0,0,1.39,3,6.91,6.91,0,0,0,5,2.53,5.62,5.62,0,0,0,6-6.93c0-.11-.2-.1-.18,0,.55,3.32-1.45,6.26-4.95,6.42-3.73.17-6.15-2.53-6.78-6a.35.35,0,0,0-.2-.28,7.7,7.7,0,0,0-5.23.07C177.84,110.26,177.87,110.35,177.93,110.33Zm14.59-8.59A7,7,0,0,0,194.68,94a8.23,8.23,0,0,0-8.89-4.91,16,16,0,0,0-9.52,5.71c-.06.07,0,.15.1.09,2.49-2.34,5.49-4.52,8.94-5.07s7.14.68,8.58,4a6.48,6.48,0,0,1-1.71,7.43,5.64,5.64,0,0,1-7.59,0h0C186.84,103.27,190.07,103.87,192.52,101.74Z"/><path class="cls-19" d="M129.59,251c2.56.11,5.16-1.21,7.13-2.73a.21.21,0,0,0,.09-.18c.23.05.46.08.7.11,3.67.32,6.35-2.64,9-4.62.22,0,.44.06.67.07,2.38.08,4.63-1.28,6.45-2.7a44.65,44.65,0,0,0,5.82-5.6c2.75-3.08,5.48-6.51,4.26-10.89-1.17-4.19-4.58-7.49-7.37-10.66-.08-.09-.24,0-.16.12,1.58,2,3.28,4,4.73,6.11a12.56,12.56,0,0,1,2.53,5.83,9.13,9.13,0,0,1-2.1,6.22,51,51,0,0,1-5.36,5.83c-2,1.9-4.36,4-7.09,4.75s-4.83-.76-6.28-3A22.63,22.63,0,0,1,139.47,224a10.82,10.82,0,0,1,3.89-7c2.67-1.92,5.9-2,9-1.36v0c-4.23-1-8.71-.26-11.34,3.2h0a31.49,31.49,0,0,0-3.15,1.28c3-4.42,2.39-10.19,1.23-15.11-.77-3.25-1.76-6.48-2.81-9.67l-.59.42a102,102,0,0,1,2.93,10c1,4.67,1.78,10.18-1.13,14.35a.14.14,0,0,0,0,.16,13.09,13.09,0,0,0-8.08,10.89l0,0a16.9,16.9,0,0,0-5.07,7.19,13.2,13.2,0,0,0,.13,8.15C125.25,249.05,126.93,250.82,129.59,251Zm1.18-12c-.91-3.95-1.31-8.53.72-12.22s5.51-5.93,9.24-7.42q-.25.38-.48.78c-2.36,4.34-2,9.51-.76,14.13.89,3.29,2.86,8.29,6.62,9.22-2.5,1.82-5.17,4.52-8.5,4.16C133.46,247.15,131.58,242.49,130.77,239Zm-6.06,6.12c-1.16-5.2,1.17-9.95,4.71-13.67a22.55,22.55,0,0,0,.9,8.46c.92,3.14,2.67,7,6,8-2,1.23-4.45,2.6-6.89,2.37C126.59,250,125.29,247.65,124.71,245.07Zm69.34-76.42c-1.44-3.68-2.78-7.35-4.36-10.93l-.37.27c.62,1.33,1.21,2.67,1.75,4,2.51,6.34,4.62,12.95,8.92,18.34,0,.06.14,0,.09-.07A48.79,48.79,0,0,1,194.05,168.65Zm-4.6,26.54c-.19,2.95.25,6.7,2.88,8.56,3,2.11,6.74.47,9.58-1.11,2.06-1.15,4-2.5,6-3.76a53.46,53.46,0,0,1,7-3.51c3.57-1.58,7.59-3.09,10.42-5.91,2.08-2.07,3.29-5,2-7.79s-4.11-4.7-6.93-5.78a18.34,18.34,0,0,0-7.48-1.22,19,19,0,0,1,10.41-3.27A14.71,14.71,0,0,1,233.58,176c1,1.1,2.1,2.59,1.79,4.19a5.59,5.59,0,0,1-2.15,3.14,70,70,0,0,1-6.19,4c-.08,0,0,.17.09.12,2.46-1.43,5.3-2.53,7.27-4.66a5.14,5.14,0,0,0,1.26-2.26c1.84-1.09,4.46-2.18,5.28-4.32.94-2.43-1-4.65-2.89-6-4.67-3.39-10.58-3.45-15,.34a.19.19,0,0,0,0,.26,16.37,16.37,0,0,0-10.69,3.88v0a15.62,15.62,0,0,0-2.35.41c-6.67,1.77-11.39,6.87-15.53,12.06v0c4.22-5,9.79-10.44,16.52-11.63a17.13,17.13,0,0,1,10.67,1.62c2.6,1.35,5.55,3.75,5.59,7,.06,4.67-5.31,7.37-8.87,9.06-3.25,1.54-6.62,2.86-9.75,4.63-3,1.66-5.58,3.86-8.7,5.22-2.59,1.14-5.9,1.84-7.93-.72a11.68,11.68,0,0,1-2.14-7.14C189.81,195,189.46,195,189.45,195.19Zm33.88-24.37a13,13,0,0,1,6.78-2.62,12.76,12.76,0,0,1,7.06,2.08c2,1.37,5.07,4.08,3,6.66-1.22,1.52-3,2.3-4.49,3.45a5.18,5.18,0,0,0-1.46-4.53A15,15,0,0,0,223.33,170.82Zm-66.64,42.51c-1.19-6.09-2.19-12.39-1.67-18.61a35.38,35.38,0,0,1,1.8-9.12c.87-2.36,2.1-5,4.17-6.51a8.91,8.91,0,0,1,7.88-1.29,31.08,31.08,0,0,1,8.34,3.4,31.46,31.46,0,0,1,11.9,13.48c.06.14.29.06.23-.08-.22-.48-.44-1-.67-1.44a29.56,29.56,0,0,0-12.21-13.09c-4.64-2.49-10.85-4.66-15.49-1-4.36,3.44-5.88,9.89-6.46,15.15a50.71,50.71,0,0,0,1.89,19.17A.15.15,0,0,0,156.69,213.33Z"/><path class="cls-20" d="M92.57,150.54a20,20,0,0,1,5.58-8.79l-.41-.19a20.44,20.44,0,0,0-5.34,8.95h0l-.41-.1c-.2,0-.31.28-.11.35,2.35.79,4.58,1.64,6.15,3.68.08.09.24,0,.16-.12a10.73,10.73,0,0,0-5.64-3.77Zm-5.25-13.75-.43-.18a19.41,19.41,0,0,0-4.45,12.21c0,.17.24.14.25,0A20.77,20.77,0,0,1,87.32,136.79Zm-5.37,41a8.39,8.39,0,0,0,1.73-.46c.71,4.65,6.09,4,8.86,1.63,1.31-1.12,2.54-2.81,2.35-4.64-.23-2.18-2.21-3.38-4.12-4v0c1.7.75,3.77,2,3.72,4.15a5.73,5.73,0,0,1-2.42,4.07,6.94,6.94,0,0,1-4.59,1.68c-1.83-.15-2.87-1.4-3.6-3a5.12,5.12,0,0,0,3.12-3,2.6,2.6,0,0,0-.24-2.3,4,4,0,0,0-1.07-1c-.18-.12-.64-.25-.59-.56a9.32,9.32,0,0,1,.41-1.46c0-.13-.15-.23-.21-.09a11.57,11.57,0,0,0-.5,1.81.13.13,0,0,0,.07.15c4.41,2.57-.58,6.66-4,6.34a7.78,7.78,0,0,1-6.1-5.13c-1-2.78-.5-5.24.41-7.88a8.16,8.16,0,0,0,2.68,2.44c2.9,1.65,6.9,2.34,9.44-.35a7.7,7.7,0,0,0,2.23-4.16,2.26,2.26,0,0,0-.41-1.64,2.3,2.3,0,0,1-.44-2.54l-.06,0c-.23.65-.25,1.32-.43,2l0,.11c2.41,2.18-1.11,6.39-3.4,7.12a8.63,8.63,0,0,1-7.93-2c-1.82-1.65-3-4.23-2-6.64s3.44-3.77,6-4.38c.25-.06.16-.49-.1-.45a11.49,11.49,0,0,0-1.94.55,10.6,10.6,0,0,1,3.5-4.72.14.14,0,0,0-.16-.23,10.41,10.41,0,0,0-3.59,4.9.12.12,0,0,0,0,.13,7.11,7.11,0,0,0-4.57,5,6.43,6.43,0,0,0,.87,4.56,10.84,10.84,0,0,0-.19,9.66C76.05,176,79,178.2,82,177.78Zm10.21-12.57a27.43,27.43,0,0,0,2-2.72c.81,4.47,6.43,4.38,9.56,2.2a5.86,5.86,0,0,0,2.83-5c-.07-.74-.46-2.65-1.26-3A39.13,39.13,0,0,0,98.53,155v0c1.08.32,2.17.59,3.25.89.36.1,3.06.63,3.09,1.11s.53,1,.69,1.39a4.72,4.72,0,0,1,.29,1.34,5.19,5.19,0,0,1-2.55,4.39c-3.12,2.08-7.82,2.17-8.92-2.1,0-.14-.21-.11-.27,0-.78,1.39-1.93,2.48-2.74,3.84a6.42,6.42,0,0,0-.81,4,.14.14,0,0,0,.27,0A6.39,6.39,0,0,1,92.16,165.21Z"/><path d="M227.06,178.45c.52,1.13-1.13,3.38-1.13,3.38a4.82,4.82,0,0,1-2.89-3.47S226.55,177.33,227.06,178.45Z"/><path d="M234.24,174.5c.39,1.17-1.49,3.23-1.49,3.23a4.8,4.8,0,0,1-2.5-3.75S233.85,173.32,234.24,174.5Z"/><path d="M174.57,114.27s.54,2.93-1.2,3.33-2.07-2.84-2.07-2.84S173.5,113.83,174.57,114.27Z"/><path d="M191.55,101.64c.26-1.15,2.31-2.5,2.31-2.5s2.53,2.08,1.18,3.33S191.55,101.64,191.55,101.64Z"/><path d="M240.9,171c.39,1.17-1.5,3.23-1.5,3.23a4.85,4.85,0,0,1-2.5-3.76S240.5,169.79,240.9,171Z"/><path d="M194.67,109.28c.38-1.12,2.56-2.23,2.56-2.23s2.29,2.34.82,3.43S194.67,109.28,194.67,109.28Z"/><path d="M193.23,118.27c-1.53.5-2.48-1.77-2.48-1.77.63-.79,2.76-1.14,2.76-1.14S194.76,117.77,193.23,118.27Z"/><path d="M80.92,176.84s1.81-1.1,2.85-.78c0,0,1,2.79-.48,3.35S80.92,176.84,80.92,176.84Z"/><path d="M83.89,166.22s.71,2.88-.83,3.28S81,166.7,81,166.7,82.89,165.79,83.89,166.22Z"/><path d="M106.09,160.53s3,1.39,2,2.88-3.52,0-3.52,0C104.52,162.27,106.09,160.53,106.09,160.53Z"/><path d="M126.69,244.25a.79.79,0,0,1,.9-.27c.77.2,2.57,2.18,2.5,3-.12,1.41-2.17.65-2.9,0A2.44,2.44,0,0,1,126.69,244.25Z"/><path d="M142.7,231.75a1.17,1.17,0,0,1,1.38-.13c1.09.51,3.15,3.92,2.82,5.09-.58,2-3.37.33-4.26-.8S141.82,232.56,142.7,231.75Z"/><path d="M133.37,238.31a.94.94,0,0,1,1.07-.25c.89.27,2.87,2.69,2.74,3.63-.21,1.64-2.56.63-3.38-.15A2.87,2.87,0,0,1,133.37,238.31Z"/><path d="M92.35,178.16s1.31,1.82.13,2.87S90,179.94,90,179.94,91.41,178.33,92.35,178.16Z"/><path class="cls-9" d="M35.68,95.94s9.39,8.77,18,3.28S52.77,70,1.93,44c0,0,21.76-3.73,39.2-1.23S63,45,63,45,44.21,29.82,31.41,26.08c0,0,23.75-5.43,41.73-.11s32.16,13.89,43,11.17c0,0,1-.16,3.18,3.27s4.17,8.39,6.33,7.74,6.75-3.6,7.46-6.72a21.39,21.39,0,0,1,.59,3.15,23.41,23.41,0,0,1-1.07,7.84l0,0a113.65,113.65,0,0,1,14.6-9.17c7.71-3.89,16.61,7.64,15.94,15.47-1.54,11.53-16.81,25-24.61,32.06-18.23,16-42.44,31.13-67.39,32.42-6.84.35-15.28-.84-21.55-3.74,0,0,8.42-.14,12.44-2.68C62,116.83,42.93,121,35.68,95.94Z"/><path class="cls-21" d="M92.86,77.38,94.05,62.6l9.27-.44,11.18,2.28.17-.07C118,63,133.05,52.32,133.05,52.32s11.18,8.57,11.59,9.15a21.14,21.14,0,0,1,.85,2.51l5.83,5.45s-11.16,20.38-21.77,17.26c-6.86,5-13.15,9.63-13.8,10-1.5.76-13,.14-13,.14C91.58,93.67,92.86,77.38,92.86,77.38Z"/><path class="cls-22" d="M95.23,67.58c-.52-.57-1-1.11-1.45-1.63l.27-3.35,9.27-.44,11.18,2.28.17-.07C118,63,133.05,52.32,133.05,52.32s1.38,1,3.18,2.45l-1.14,1.82S106.82,80.3,95.23,67.58Z"/><path class="cls-23" d="M113.88,40.92c-.8.71-5.27,5.9-5.27,5.9S110.09,57,112,59.5s7.46,2.14,7.46,2.14l-4.9,2.73c-9.8,5.46-21-.73-21-.73l-1.23.72L75.94,58.54l-2.23-4.38c-11.13,5.39-20.89,25.2-21.95,27.4C44.75,71.35,29.35,58,1.93,44c0,0,21.76-3.73,39.2-1.23S63,45,63,45,44.21,29.82,31.41,26.08c0,0,23.75-5.43,41.73-.11,17.22,5.09,31,13.17,41.63,11.45C114.62,39,114.28,40.57,113.88,40.92Z"/><path class="cls-5" d="M133,41.67s-1,10.56-3.67,12.9l3.73-2.25S134.53,45.08,133,41.67Z"/><path class="cls-24" d="M1.93,44s21.76-3.73,39.2-1.23S63,45,63,45,44.21,29.82,31.41,26.08c0,0,23.75-5.43,41.73-.11,4.51,1.33,8.79,2.87,12.84,4.39L36.15,65.51C27.81,58.77,16.59,51.46,1.93,44Z"/><path class="cls-5" d="M44.8,52.05s-4.4,1.17-5.7,2.09a2.15,2.15,0,0,0-1,2.09,99,99,0,0,1-11.62-6.32A66.23,66.23,0,0,1,44.8,52.05Z"/><path class="cls-5" d="M74.47,34.08S70,35,68.68,35.85a2.16,2.16,0,0,0-1.16,2A98.06,98.06,0,0,1,56.26,31,66.15,66.15,0,0,1,74.47,34.08Z"/><path class="cls-5" d="M69.33,60.49l2.39-2.65,3.48-1.1s8,2.29,11.08,4.18a23.79,23.79,0,0,0,7.27,2.62c6.74,6.27,1.1,12,1.1,12S79.81,78.65,78.23,80s-5.58,1.42-5.58,1.42C65.21,70.56,69.33,60.49,69.33,60.49Z"/><path class="cls-5" d="M121.7,49.68c.35,1.3-4,6.11-4,6.11l-1.87,5.58s-5.39.32-13.87-13.06l1.74-.84,3.56-4.83,6.29-4.25,3.22-.91.52.3a12.28,12.28,0,0,1,2,2.63c.84,1.35,1.66,2.93,2.48,4.31l.09.56A15.5,15.5,0,0,0,121.7,49.68Z"/><path class="cls-5" d="M71.15,123.25c-6.84.35-15.28-.84-21.55-3.74,0,0,8.42-.14,12.44-2.68C62,116.83,43,121,35.7,96l.12.15C47,110.32,60.71,98.9,73.56,94.48s17.3-.59,31.33,0,41.16-24.38,41.16-24.38l16.25-7.81c-3.66,10.67-16.73,22.23-23.76,28.58C120.31,106.87,96.1,122,71.15,123.25Z"/><path class="cls-25" d="M61.53,117.13l.12,0-.06,0Zm-10.32,3.06a50.35,50.35,0,0,0,19.94,3.06c24.95-1.29,49.16-16.38,67.39-32.42,5.43-4.9,14.46-12.91,20-21.22l-4.34,1.68s-20.37,26.27-47.92,39.9C79.73,124.31,59.72,122.62,51.21,120.19ZM61.06,117c-3.16-.73-18.47-5-24.75-19.74-.17-.4-.33-.76-.49-1.11L35.7,96C42,117.63,57.08,117.43,61.06,117Z"/><path class="cls-26" d="M148.29,72.83c-3.74-2-15.43-16.12-15.54-20.39l.08-.12a113.45,113.45,0,0,1,14.38-9c7.71-3.89,16.61,7.64,15.94,15.47a26.37,26.37,0,0,1-4.4,10.49C157.14,70.5,151.48,74.54,148.29,72.83Z"/><path class="cls-27" d="M145.89,45.74c.17.56,1.32.71,2.57.33s2.13-1.15,2-1.71-1.32-.7-2.58-.32S145.71,45.19,145.89,45.74Z"/><path class="cls-9" d="M100.13,106.17s-1.67,3.85-2.42,3.61-3.18-6.14-3.18-6.14Z"/><path class="cls-28" d="M99.47,106.1s-1.27,2.93-1.83,2.75-2.43-4.67-2.43-4.67Z"/><path class="cls-29" d="M88.81,96.72s.1.07,0,.1A7,7,0,0,0,86,99.76c2.27-.39,4.69.89,6.58,2,2.6,1.46,4.92,3.22,7.9,3.83,6.69,1.39,13.2-3,17.72-7.46l0,0c-4.15,4.46-9.42,8.79-15.9,8.47a16.45,16.45,0,0,1-8.09-2.94c-2.67-1.69-5.11-3.54-8.36-3.6a7.28,7.28,0,0,0-.51,3.26.06.06,0,0,1-.11,0C84.16,100.24,86.08,97.94,88.81,96.72Z"/><path class="cls-30" d="M114.48,64.4c6.27-3.44,12-7.74,17.78-11.92.11,0,.2-.11.29-.16l.32-.23.18-.18h0c3-2.18,6.14-4.29,9.35-6.22,2.18-1.31,4.59-3,7.17-3.34,3.78-.51,7.23,2.14,9.52,4.84a17.19,17.19,0,0,1,4.32,11.12c-.11,3.83-2.22,7.67-4.34,10.9l-.81.32c.3-.46.61-.92.89-1.39,2.39-3.86,4.45-8.37,3.44-13C161.26,49,154.49,40,147.29,43.51,141.4,46.37,136,50.3,130.7,54.05a148.43,148.43,0,0,1-16.18,10.41S114.44,64.43,114.48,64.4Z"/><path class="cls-17" d="M56.81,94.53c-.49,5-5.67,7.09-10.19,6.83a18.67,18.67,0,0,1-10.2-4.29c-.13-.42-.26-.84-.38-1.26l-.28.19c-.06-.13-.13-.27-.19-.41a.3.3,0,0,1,.35.06c4.58,4.26,12,6.93,17.68,3.17,2.89-1.93,2.82-5.77,2-8.76a27.83,27.83,0,0,0-4.17-8.44,5.5,5.5,0,0,1,.59-.36l.41.6C54.86,85.48,57.25,90,56.81,94.53Z"/><path class="cls-31" d="M1.9,43.59a156.91,156.91,0,0,1,21.75-2,105.24,105.24,0,0,1,18,.88c5.34.77,10.71,1.48,16.09,1.94,1.41.12,2.86.27,4.29.27-3.19-2.53-6.51-4.91-9.87-7.21-6.41-4.37-13.32-8.82-20.81-11.06-.25-.08-.39-.51-.06-.59a106.7,106.7,0,0,1,18.24-2.31,85.48,85.48,0,0,1,16.15.61c6.42.91,12.57,3.13,18.62,5.38C90.18,31.66,96,34.09,102,35.83a42.45,42.45,0,0,0,7.32,1.5,23.62,23.62,0,0,0,3.76.08c1-.06,2-.36,3-.46.74-.08,1.5.89,1.91,1.35,1.84,2.09,2.93,4.8,4.4,7.15.6,1,1.37,2.22,2.52,2.56.87.27,2.24-.67,2.94-1.07,2.09-1.21,4.43-3.08,5.07-5.53,0-.1.18-.15.24,0s-.12.44-.18.69a10.18,10.18,0,0,1-3.75,4.32c-1,.74-3.22,2.45-4.59,1.88-2-.83-3.11-3.55-4.1-5.3a38.5,38.5,0,0,0-2.3-3.73,5.17,5.17,0,0,0-2-1.85c-.45-.18-1.37.22-1.82.29a19.3,19.3,0,0,1-3.72.19,34.47,34.47,0,0,1-7.55-1.21c-6.13-1.58-12-4.07-18-6.26-6.2-2.31-12.49-4.62-19-5.65A82.12,82.12,0,0,0,49.9,24a105.2,105.2,0,0,0-17.32,2.11c6.92,2.26,13.29,6.29,19.29,10.31,3.9,2.6,7.74,5.34,11.39,8.28a.35.35,0,0,1-.19.62,29.19,29.19,0,0,1-3.37-.11c-4.37-.27-8.73-.8-13.07-1.37a148.79,148.79,0,0,0-19.32-1.61A162.75,162.75,0,0,0,11,43.17c-2.61.27-5.22.58-7.82,1a199.45,199.45,0,0,1,32,20.06c6.26,4.92,12.32,10.46,16.87,17a5.5,5.5,0,0,0-.59.36,62,62,0,0,0-5.77-6.92C38.5,67.12,29.93,60.88,21.15,55.31c-6.27-4-12.77-7.61-19.38-11A.39.39,0,0,1,1.9,43.59Z"/><path class="cls-8" d="M133.24,41.39a17.79,17.79,0,0,1,.59,4.82,21.66,21.66,0,0,1-1,5.82l.17-.12-.18.18-.32.23c-.09,0-.18.11-.29.16l.31-.22a19.19,19.19,0,0,0,.51-10.3l0,.09c.06-.25.12-.49.18-.69Z"/><path class="cls-8" d="M49.57,119.16A29.34,29.34,0,0,0,60,117.48a21.66,21.66,0,0,1-8.52-1.35c-8.69-3.15-13.62-11.62-16.1-20.07a.42.42,0,0,1,.24-.47c.06.14.13.28.19.41l.28-.19c.12.42.25.84.38,1.26s.27.82.42,1.23c2.62,7.43,7.23,14.3,14.89,17.16a19.09,19.09,0,0,0,10.28,1c.35-.07.53.48.24.66-3.17,1.92-7.29,2.52-11.06,2.68,11.93,4.87,25.64,3.68,37.75.12,12.49-3.67,24.1-10.07,34.7-17.54a185.59,185.59,0,0,0,25.27-21.66,77.9,77.9,0,0,0,9.37-11.21l.81-.32q-.42.64-.84,1.26a84.76,84.76,0,0,1-10.54,12.17,185.23,185.23,0,0,1-25.44,21.16c-10.54,7.22-22,13.27-34.31,16.78-12.12,3.45-25.56,4.6-37.46-.28l-1-.46A.35.35,0,0,1,49.57,119.16Z"/><path d="M118.82,39.9s-.74-2.09-3.95-1.28-7.61,5.67-8.54,8.06c0,0-.8,2.16-1.87,2.49s-2.4-.93-2.4-.93,1-1.6,3.2-4.72a16.64,16.64,0,0,1,9.15-6.17S117.17,35.7,118.82,39.9Z"/><path d="M93.61,63.64A24,24,0,0,1,83,61.12c-5.57-2.75-9.23-4.23-11.76-1.86a11.08,11.08,0,0,0-3,6,10.26,10.26,0,0,1,5.73-11,31.53,31.53,0,0,1,9,3.52C87.44,60.44,93.61,63.64,93.61,63.64Z"/><path d="M87.15,78.21s-3.9.92-6.42,1.73-4.63,1.81-5.84,1.6c0,0,2.93-1.87,3.19-2.06s2.22-1.37,3.09-1.79a22,22,0,0,1,4.06-.83C85.58,76.81,87.15,78.21,87.15,78.21Z"/><path d="M92.08,68.06s-5.5-7.54-13.43-1.76c0,0-6.4,4.91-3.39,14.4a4,4,0,0,1-2.48.59,6,6,0,0,0,4.63-.56C79.35,79.36,92.08,68.06,92.08,68.06Z"/><path class="cls-32" d="M77.28,80.82c-2.9-7.82.93-17.21,9.66-15.53,4.44.94,8.11,5.32,7.64,10,0,0-.87,2.06-4.87,2.56S83,78.56,79.3,80Z"/><path class="cls-33" d="M81.67,66a7.08,7.08,0,0,1,1.14-.64,9.32,9.32,0,0,1,4.13-.08,9.83,9.83,0,0,1,4.53,2.38,5.37,5.37,0,0,1,.35.45,7.47,7.47,0,0,1-.33,9.36,10.39,10.39,0,0,1-1.78.38c-2.47.31-4.47.51-6.5.94a7.88,7.88,0,0,1-2.9-2.51A7.34,7.34,0,0,1,81.67,66Z"/><path class="cls-34" d="M82.13,66.66A6.82,6.82,0,0,1,90,77.75l-.13.09-.16,0c-1.93.24-3.57.41-5.15.68a7,7,0,0,1-3.65-2.68A6.56,6.56,0,0,1,82.13,66.66Z"/><path class="cls-35" d="M83.14,71.13c1.72-.39,3.7.5,5.25,1.37,1.87,1,3.26,1.28,4.12-.53A6.25,6.25,0,0,1,90,77.75l-.13.09-.16,0c-1.93.24-3.56.41-5.15.68a7,7,0,0,1-3.64-2.66C80.5,73.78,80.85,71.65,83.14,71.13Z"/><path class="cls-36" d="M82.42,74.79a4.48,4.48,0,1,0,.86-6.51A4.64,4.64,0,0,0,82.42,74.79Z"/><path class="cls-28" d="M81.38,73.2a1,1,0,1,0,.19-1.42A1,1,0,0,0,81.38,73.2Z"/><path class="cls-37" d="M83.77,70.15a.7.7,0,0,0,1,.2.72.72,0,0,0,.13-1,.68.68,0,1,0-1.11.79Z"/><path d="M94.56,75.29c.34-6.54-6.83-11.93-13-9.24-5.52,2.43-5.76,9.83-4.2,14.72,0,.17-.19.26-.25.1C75,75.57,76.06,67.72,82,65.38c6.32-2.52,13.33,3.41,12.64,9.92Z"/><path d="M121.29,47.45s2.64,4.14.4,7.56-2.92-2.78-2.92-2.78Z"/><path d="M112.59,45.27c3.55-1.2,7,1.1,8,1.87a9.19,9.19,0,0,0-.06-1.64A8.49,8.49,0,0,1,121.6,49s-2.51,1.38-1.62.17a3.29,3.29,0,0,0,.51-1.34L111.87,58C106.87,52.79,108.37,46.69,112.59,45.27Z"/><path class="cls-32" d="M121.46,48.78c-3.29-2.61-9.66-4.22-11.5.57s2.89,9.86,5.91,12.09a14.62,14.62,0,0,0,5.38-5.54A8,8,0,0,0,121.46,48.78Z"/><path class="cls-38" d="M111.16,56.34a6.55,6.55,0,0,1-.39-.53,7.52,7.52,0,0,1-.81-6.46,4.43,4.43,0,0,1,2.44-2.63c2,0,4.47,1.34,6.31,3.69a9.48,9.48,0,0,1,2.24,6A14.55,14.55,0,0,1,117.87,60C115.79,60.22,113.13,58.85,111.16,56.34Z"/><path class="cls-39" d="M118.32,50.72c2.32,3,2.69,6.53.82,8s-5.26.27-7.59-2.68a8.9,8.9,0,0,1-2-4.86,6,6,0,0,1,.4-1.83,4.81,4.81,0,0,1,.65-1.21l.12-.11C112.6,46.56,116,47.76,118.32,50.72Z"/><path class="cls-40" d="M119.14,58.72c-1.86,1.47-5.25.27-7.57-2.67-.74-1.9-.88-3.75.84-3.95,1.28-.15,3,.85,4.43,1.79,1.69,1.14,2.84,1.5,3.17,0C120.62,55.89,120.37,57.76,119.14,58.72Z"/><path class="cls-41" d="M112.55,55.26c1.64,2.08,4,2.93,5.36,1.89s1.06-3.57-.58-5.66-4-2.93-5.37-1.89S110.9,53.17,112.55,55.26Z"/><path class="cls-28" d="M111.42,53.73c.35.46.88.64,1.16.42s.23-.78-.12-1.24-.88-.64-1.17-.41S111.06,53.28,111.42,53.73Z"/><path class="cls-37" d="M112.72,51.3c.25.32.61.45.81.29s.16-.55-.09-.86-.61-.45-.81-.29S112.47,51,112.72,51.3Z"/><path d="M121.45,48.8a11.81,11.81,0,0,0-6.9-2.32,4.85,4.85,0,0,0-4.78,5.07c-.09,3.9,3.28,7.58,6.14,9.84.07,0,0,.15-.08.1-3.51-2.48-7.33-6.7-6.36-11.35,1.26-6,8.6-4.16,12-1.37Z"/><path class="cls-42" d="M107.85,15c-4.53-.69-9.32,1.38-12.89,4a28.41,28.41,0,0,0-5.16,5.06c-.71.87-1.47,1.82-2.16,2.81-.27-.07-.52-.14-.78-.23h0a24.25,24.25,0,0,1-8.92-4.91A19.73,19.73,0,0,1,75,18.56c-3.17-4.43-4.27-10.23-8.17-14.18C59.67-2.9,47.32.27,39.2,4c-10,4.6-17.15,13-22,22.65-5.08,10.19-7.08,22.72-1.16,33A27.43,27.43,0,0,0,30,71.3a38.2,38.2,0,0,0,8.12,2.17l1,.14A15.55,15.55,0,0,1,41,73.9c0,.06,0,.11,0,.18.22,3.1-1.05,6.65-2.31,9.18-1.95,3.9-5.5,9-3.8,13.54C36.47,101,41.7,101.14,45,99c3.78-2.43,6.48-6.78,7.84-11a23.2,23.2,0,0,0,.56-12.49,5.71,5.71,0,0,0,3.41.74A8.05,8.05,0,0,0,63,71.83a15.8,15.8,0,0,0,.36-13,8.38,8.38,0,0,0,8.52-.92,8.13,8.13,0,0,0,2.61-8.74,18.4,18.4,0,0,0,3,.8c3.17.54,6.83,1,9.65-.88A6.6,6.6,0,0,0,89.7,46a5.65,5.65,0,0,0-.36-4.28,16.51,16.51,0,0,0-.76-1.59,32.37,32.37,0,0,0,4.62,0c3.17-.22,6.59-.59,9.31-2.38a8.17,8.17,0,0,0,3.87-6.45A6.51,6.51,0,0,0,104.86,27a8.93,8.93,0,0,0,8-3.82C115.25,19.42,111.47,15.54,107.85,15Z"/><path class="cls-43" d="M48.17,42.39c-1.13-.57-2.21-1.2-3.35-1.74s-2.28-1-3.44-1.53-2.32-.93-3.51-1.31a7.41,7.41,0,0,0-3.46-.59.44.44,0,0,0-.2.73,8.89,8.89,0,0,0,3.21,1.52l3.32,1.18c2.3.81,4.66,1.65,6.87,2.68.64.3,1.19-.62.56-.94Z"/><path class="cls-43" d="M50.8,35.77a26.34,26.34,0,0,1-3.28-3.87c-.48-.68-.92-1.39-1.35-2.1-.22-.36-.44-.73-.64-1.11s-.5-.75-.76-1.12a.5.5,0,0,0-.91.39,6.92,6.92,0,0,0,.37,1.33c.17.39.35.78.54,1.16a17,17,0,0,0,1.41,2.31,24.16,24.16,0,0,0,3.65,4c.66.58,1.62-.36,1-1Z"/><path class="cls-43" d="M70.48,25.23c-.1-.3-.21-.59-.32-.88a10,10,0,0,0-.4-1c-.13-.28-.27-.55-.42-.82a1.7,1.7,0,0,0-.29-.46,3.57,3.57,0,0,0-.37-.31.46.46,0,0,0-.52-.1.46.46,0,0,0-.29.43c0,.15,0,.3,0,.45a1.89,1.89,0,0,0,.23.64,8.86,8.86,0,0,0,.4.82c.15.27.3.54.47.79s.35.53.52.79a.53.53,0,0,0,.67.22.52.52,0,0,0,.3-.62Z"/><path class="cls-44" d="M86.84,26.65c-4,.28-25.74,3.3-41.48,34.11a47.63,47.63,0,0,0-4.27,13.32H41c0-.07,0-.12,0-.18a15.55,15.55,0,0,0-1.87-.29l-1-.14a52.43,52.43,0,0,1,7.52-32.3c8.2-13.5,25.53-18.11,32.28-19.43A24.25,24.25,0,0,0,86.84,26.65Z"/><path class="cls-43" d="M41.28,73.26c.8-1.72,1.23-3.63,1.88-5.41a61.64,61.64,0,0,1,2.59-6.1A77.33,77.33,0,0,1,52.17,51.2,69.28,69.28,0,0,1,70.31,33.37a40.43,40.43,0,0,1,6.59-3.59,48.1,48.1,0,0,1,7.63-2.08.5.5,0,0,0-.13-1c-4.3-.17-8.94,2.12-12.55,4.26A61.81,61.81,0,0,0,61.2,39.11,74.08,74.08,0,0,0,45.54,59.75c-1,2-2,4.15-2.88,6.27a29.44,29.44,0,0,0-2.32,7c-.06.49.74.69.94.25Z"/><path class="cls-45" d="M123.51,53.78a10,10,0,0,0-3.09-2,10.19,10.19,0,0,0-12.36,4.28,12.55,12.55,0,0,0-1.15,8.7c1.09,5.83,4.87,12.39,11.51,12.38s10.39-6.51,9.87-12.53C128,60.81,126.44,56.49,123.51,53.78ZM120,74a6.73,6.73,0,0,1-6.09-1.3,14.56,14.56,0,0,1-3.71-6.39c-1.73-5.3,0-12.26,6.64-12.26a7,7,0,0,1,3.68.92c2.38,1.46,3.74,4.8,4.45,7.39C126.12,66.61,124.87,72.61,120,74Z"/><path class="cls-45" d="M125.11,58.92a6.44,6.44,0,0,0,2.2-2.29c.6-.81,1.14-1.64,1.8-2.4a15.52,15.52,0,0,1,2.19-2.1c.83-.65,1.8-1.17,2.65-1.82a3.86,3.86,0,0,0,1.29-1.46,1.47,1.47,0,0,0,0-1.46c-.68-.88-2.37,0-3.09.34a15.84,15.84,0,0,0-5.11,4.2,17.24,17.24,0,0,0-2.06,3,5.39,5.39,0,0,0-.87,3.58.66.66,0,0,0,1,.4Z"/><path class="cls-45" d="M130.41,45c-1.73-5.3,0-12.26,6.64-12.26a7,7,0,0,1,3.68.92c2.38,1.46,3.75,4.8,4.45,7.39a9.93,9.93,0,0,1,.24,1.11c1,0,1.92,0,2.88,0h.07a16.59,16.59,0,0,0-4.63-9.66,9.92,9.92,0,0,0-3.09-2,10.17,10.17,0,0,0-12.35,4.28,12.5,12.5,0,0,0-1.16,8.7,19.56,19.56,0,0,0,3.39,8,18.73,18.73,0,0,1,2-2A17.93,17.93,0,0,1,130.41,45Z"/><path class="cls-46" d="M101.52,106.07c-1.31-.53-2.65-1-3.94-1.53a40.61,40.61,0,0,1-7.35-4c-2.21,3.52-2.7,8.17-2.34,12.42a12.5,12.5,0,0,0,1.31,5.15A5.35,5.35,0,0,0,93.43,121c2.12.07,4-1.54,5-3.43a28.55,28.55,0,0,0,1.86-6.08,28,28,0,0,1,1.93-5.15Z"/><path class="cls-43" d="M95.82,104.3A17.56,17.56,0,0,0,93,109.88c-.56,1.89-1,4.17-.36,6.1a.18.18,0,0,0,.35,0c.44-1.93.4-3.93.92-5.85a18.62,18.62,0,0,1,2.48-5.51c.23-.35-.31-.64-.54-.32Z"/></g></svg>