<svg xmlns="http://www.w3.org/2000/svg" xmlns:xlink="http://www.w3.org/1999/xlink" viewBox="0 0 367.92 800"><defs><style>.cls-1{fill:#3a3238;}.cls-2{fill:#f4a589;}.cls-3{fill:#f7ebb6;}.cls-4{fill:#edd99d;}.cls-5{fill:#88462d;}.cls-6{fill:#5e2c19;}.cls-7{fill:#a75b49;}.cls-8{fill:#bd0000;}.cls-9{fill:red;}.cls-10{fill:#baadf1;}.cls-11{fill:#ac9de3;}.cls-12{fill:#ebd7bd;}.cls-13{fill:#ffc2a7;}.cls-14{fill:#e17458;}.cls-15{fill:#c7bdff;}.cls-16{fill:#ffffde;}.cls-17{fill:#86c2c0;}.cls-18{fill:#b1ebe3;}.cls-19{fill:#d9fffa;}.cls-20{fill:url(#linear-gradient);}.cls-21{fill:url(#linear-gradient-2);}.cls-22{fill:url(#linear-gradient-3);}.cls-23{fill:url(#radial-gradient);}.cls-24{fill:url(#radial-gradient-2);}.cls-25{fill:#ec9b7d;}.cls-26{fill:#ff8c72;}.cls-27{fill:#ff7861;}.cls-28{fill:#ff4854;}.cls-29{fill:url(#linear-gradient-4);}.cls-30{fill:#a9563f;}.cls-31{fill:url(#linear-gradient-5);}.cls-32{fill:url(#linear-gradient-6);}.cls-33{fill:#fff;}.cls-34{fill:url(#linear-gradient-7);}.cls-35{fill:url(#linear-gradient-8);}.cls-36{fill:url(#linear-gradient-9);}.cls-37{fill:url(#linear-gradient-10);}.cls-38{fill:#d76026;}.cls-39{fill:url(#linear-gradient-11);}.cls-40{fill:url(#linear-gradient-12);}.cls-41{fill:url(#linear-gradient-13);}.cls-42{fill:url(#linear-gradient-14);}.cls-43{fill:url(#linear-gradient-15);}.cls-44{fill:url(#linear-gradient-16);}.cls-45{fill:#dfe7dc;}.cls-46{fill:#ebffff;}.cls-47{fill:#b89d83;}.cls-48{fill:#83705e;}.cls-49{fill:url(#linear-gradient-17);}.cls-50{fill:#bfc6bd;}.cls-51{fill:url(#linear-gradient-18);}.cls-52{fill:url(#linear-gradient-19);}.cls-53{fill:url(#linear-gradient-20);}.cls-54{fill:url(#linear-gradient-21);}.cls-55{fill:url(#linear-gradient-22);}.cls-56{fill:url(#linear-gradient-23);}.cls-57{fill:url(#linear-gradient-24);}.cls-58{fill:url(#linear-gradient-25);}.cls-59{fill:url(#linear-gradient-26);}.cls-60{fill:url(#linear-gradient-27);}.cls-61{fill:url(#linear-gradient-28);}.cls-62{fill:url(#linear-gradient-29);}.cls-63{fill:url(#linear-gradient-30);}.cls-64{fill:url(#linear-gradient-31);}.cls-65{fill:url(#linear-gradient-32);}.cls-66{fill:url(#linear-gradient-33);}.cls-67{fill:url(#linear-gradient-34);}.cls-68{fill:url(#linear-gradient-35);}.cls-69{fill:url(#linear-gradient-36);}.cls-70{fill:url(#linear-gradient-37);}.cls-71{fill:url(#linear-gradient-38);}</style><linearGradient id="linear-gradient" x1="70.61" y1="344.67" x2="57.39" y2="345.3" gradientUnits="userSpaceOnUse"><stop offset="0" stop-color="#e3866f"/><stop offset="1" stop-color="#ffc2a7"/></linearGradient><linearGradient id="linear-gradient-2" x1="71.87" y1="285.65" x2="69.98" y2="311.47" gradientUnits="userSpaceOnUse"><stop offset="0" stop-color="#b3c7d3"/><stop offset="1" stop-color="#b29467"/></linearGradient><linearGradient id="linear-gradient-3" x1="71.17" y1="285.6" x2="69.28" y2="311.42" gradientUnits="userSpaceOnUse"><stop offset="0" stop-color="#a6abae"/><stop offset="1" stop-color="#8d7b60"/></linearGradient><radialGradient id="radial-gradient" cx="657.65" cy="346.65" r="33.2" gradientTransform="translate(-263.07 94.13) scale(0.77)" gradientUnits="userSpaceOnUse"><stop offset="0" stop-color="#ff8782"/><stop offset="1" stop-color="#ffc2a7"/></radialGradient><radialGradient id="radial-gradient-2" cx="1042.38" cy="346.65" r="33.2" gradientTransform="translate(-490.98 94.13) scale(0.56 0.77)" xlink:href="#radial-gradient"/><linearGradient id="linear-gradient-4" x1="301.9" y1="328.83" x2="313.55" y2="342.37" xlink:href="#linear-gradient"/><linearGradient id="linear-gradient-5" x1="190.5" y1="196.49" x2="190.5" y2="421.3" xlink:href="#linear-gradient"/><linearGradient id="linear-gradient-6" x1="291.45" y1="280.56" x2="311.5" y2="280.56" gradientUnits="userSpaceOnUse"><stop offset="0" stop-color="#d47760"/><stop offset="1" stop-color="#f0b195"/></linearGradient><linearGradient id="linear-gradient-7" x1="-1673.18" y1="609.3" x2="-1671.63" y2="609.3" gradientTransform="matrix(-3.33, -20, -20, 3.33, 6821.78, -35155.65)" gradientUnits="userSpaceOnUse"><stop offset="0" stop-color="#6a2502"/><stop offset="1" stop-color="#541900"/></linearGradient><linearGradient id="linear-gradient-8" x1="-1673.18" y1="609.3" x2="-1671.63" y2="609.3" gradientTransform="matrix(-3.33, -20, -20, 3.33, 6821.78, -35155.65)" gradientUnits="userSpaceOnUse"><stop offset="0" stop-color="#953a08"/><stop offset="1" stop-color="#6f2100"/></linearGradient><linearGradient id="linear-gradient-9" x1="-1523.5" y1="884.18" x2="-1521.95" y2="884.18" gradientTransform="matrix(3.33, 8.33, 8.33, -3.33, -2078.75, 15972.52)" gradientUnits="userSpaceOnUse"><stop offset="0" stop-color="#953a08"/><stop offset="1" stop-color="#d76026"/></linearGradient><linearGradient id="linear-gradient-10" x1="-1709.98" y1="477.44" x2="-1708.43" y2="477.44" gradientTransform="matrix(-1, -8.33, -8.33, 1, 2480.95, -14388.6)" gradientUnits="userSpaceOnUse"><stop offset="0" stop-color="#511e02"/><stop offset="1" stop-color="#2b0d00"/></linearGradient><linearGradient id="linear-gradient-11" x1="-1673.09" y1="614.53" x2="-1671.65" y2="614.53" gradientTransform="matrix(-3.33, -20.46, -20, 3.41, 6823.71, -35982.74)" xlink:href="#linear-gradient-7"/><linearGradient id="linear-gradient-12" x1="-1673.09" y1="614.53" x2="-1671.64" y2="614.53" gradientTransform="matrix(-3.33, -20.46, -20, 3.41, 6823.71, -35982.74)" xlink:href="#linear-gradient-8"/><linearGradient id="linear-gradient-13" x1="-1526.2" y1="872.73" x2="-1524.75" y2="872.73" gradientTransform="matrix(3.33, 8.53, 8.33, -3.41, -2079.38, 16324.83)" xlink:href="#linear-gradient-9"/><linearGradient id="linear-gradient-14" x1="-1710.33" y1="490.1" x2="-1708.88" y2="490.1" gradientTransform="matrix(-1, -8.53, -8.33, 1.02, 2482.6, -14736.62)" xlink:href="#linear-gradient-10"/><linearGradient id="linear-gradient-15" x1="201.05" y1="334.94" x2="203.57" y2="324.87" xlink:href="#linear-gradient-3"/><linearGradient id="linear-gradient-16" x1="-2747.29" y1="418.37" x2="-2744.77" y2="408.3" gradientTransform="matrix(-0.66, 0.04, 0.07, 1, -1729.96, 45.66)" xlink:href="#linear-gradient-3"/><linearGradient id="linear-gradient-17" x1="169.74" y1="339.55" x2="169.74" y2="373.84" xlink:href="#linear-gradient-3"/><linearGradient id="linear-gradient-18" x1="149.03" y1="366.04" x2="126.99" y2="372.34" gradientUnits="userSpaceOnUse"><stop offset="0" stop-color="#ffc2a7"/><stop offset="1" stop-color="#ff9279"/></linearGradient><linearGradient id="linear-gradient-19" x1="162.44" y1="387.44" x2="135.16" y2="381.98" gradientUnits="userSpaceOnUse"><stop offset="0" stop-color="#eca687"/><stop offset="1" stop-color="#ec775c"/></linearGradient><linearGradient id="linear-gradient-20" x1="123.62" y1="353.54" x2="134.75" y2="366.98" gradientUnits="userSpaceOnUse"><stop offset="0" stop-color="#ffc2a7"/><stop offset="1" stop-color="#ec7357"/></linearGradient><linearGradient id="linear-gradient-21" x1="279.29" y1="15.12" x2="262.5" y2="151.13" gradientUnits="userSpaceOnUse"><stop offset="0" stop-color="#d7dde1"/><stop offset="1" stop-color="#c0a783"/></linearGradient><linearGradient id="linear-gradient-22" x1="270.28" y1="33.67" x2="256.85" y2="111.75" gradientUnits="userSpaceOnUse"><stop offset="0" stop-color="#f0f0f0"/><stop offset="1" stop-color="#cfb897"/></linearGradient><linearGradient id="linear-gradient-23" x1="268.75" y1="33.02" x2="262.45" y2="82.14" gradientUnits="userSpaceOnUse"><stop offset="0" stop-color="#fff"/><stop offset="1" stop-color="#e6dec2"/></linearGradient><linearGradient id="linear-gradient-24" x1="279.29" y1="15.11" x2="262.5" y2="151.13" gradientUnits="userSpaceOnUse"><stop offset="0" stop-color="#a4bdcd"/><stop offset="1" stop-color="#ac8b5b"/></linearGradient><linearGradient id="linear-gradient-25" x1="279.29" y1="15.12" x2="262.5" y2="151.13" xlink:href="#linear-gradient-2"/><linearGradient id="linear-gradient-26" x1="279.1" y1="15.09" x2="262.31" y2="151.11" xlink:href="#linear-gradient-3"/><linearGradient id="linear-gradient-27" x1="193.97" y1="95.74" x2="193.97" y2="316.56" xlink:href="#linear-gradient-21"/><linearGradient id="linear-gradient-28" x1="193.97" y1="96.58" x2="193.97" y2="317.4" xlink:href="#linear-gradient-2"/><linearGradient id="linear-gradient-29" x1="193.97" y1="109.18" x2="193.97" y2="317.39" xlink:href="#linear-gradient-24"/><linearGradient id="linear-gradient-30" x1="190.98" y1="145.28" x2="190.98" y2="274.58" xlink:href="#linear-gradient-22"/><linearGradient id="linear-gradient-31" x1="149.44" y1="120.09" x2="149.44" y2="242.25" gradientUnits="userSpaceOnUse"><stop offset="0" stop-color="#c6cccf"/><stop offset="1" stop-color="#ae9877"/></linearGradient><linearGradient id="linear-gradient-32" x1="190.16" y1="150.26" x2="190.16" y2="252.07" xlink:href="#linear-gradient-23"/><linearGradient id="linear-gradient-33" x1="153.25" y1="95.74" x2="153.25" y2="316.56" xlink:href="#linear-gradient-3"/><linearGradient id="linear-gradient-34" x1="193.95" y1="95.74" x2="193.95" y2="316.56" xlink:href="#linear-gradient-3"/><linearGradient id="linear-gradient-35" x1="168.05" y1="204.48" x2="168.05" y2="303.49" xlink:href="#linear-gradient-21"/><linearGradient id="linear-gradient-36" x1="169.94" y1="195.86" x2="169.94" y2="309.21" xlink:href="#linear-gradient-22"/><linearGradient id="linear-gradient-37" x1="168.1" y1="190.83" x2="168.1" y2="310.47" gradientUnits="userSpaceOnUse"><stop offset="0" stop-color="#c5cbce"/><stop offset="1" stop-color="#ad9776"/></linearGradient><linearGradient id="linear-gradient-38" x1="167.88" y1="203.73" x2="167.88" y2="304.1" xlink:href="#linear-gradient-3"/></defs><title>characters</title><g id="Grandmother"><path d="M352.36,106.58c6.93-7.2,12-14.42,15.13-21.46a4.65,4.65,0,0,0-1-5.3c-7.58-7.44-14.46-16.23-21.12-24.75-11.53-14.75-23.46-30-40.19-39.92-9.5-5.63-20.6-8.48-33-8.48a89.17,89.17,0,0,0-14.05,1.15c-15.77,2.48-32.62,8.88-47.43,18-17.93,11-31.2,27.92-35.5,45.24a39.33,39.33,0,0,0,2.05,26,32.46,32.46,0,0,0,2,3.71c-1.34.2-2.67.42-4,.64-4.14.69-7.84,1-11.9,1.34A184.53,184.53,0,0,0,115,113.61a173.65,173.65,0,0,0-65.23,42.14A165.88,165.88,0,0,0,35.1,173.3l-1,1.39c-1.73,2.27-3.69,4.83-4.5,8.2A153.63,153.63,0,0,0,26,206.21c-2.13,25.64,1.56,50.28,10.65,71.32-3.89-.89-8.15-2-13-3.53-3.27-1-6.53-2.14-8.69-2.9-.74-.26-1.57-.51-2.43-.76a15.77,15.77,0,0,1-4.74-1.87,4.81,4.81,0,0,0-3.06-1.09,4.79,4.79,0,0,0-4,2.1,4.64,4.64,0,0,0-.4,4.3L.88,275C3.9,282.37,7,290,12.12,296.55A81.19,81.19,0,0,0,25,309.71c10,8.16,21.19,13.55,32.45,15.59a47,47,0,0,0,6.44.72c-5.11,1.63-8.11,6.74-8.11,14.05,0,5.18,2,11.07,6.12,18-.2,1.23-.39,2.45-.57,3.67a42.94,42.94,0,0,1-3.86,13.61c-2,3.92-5.49,7.2-10.58,10A4.34,4.34,0,0,0,49,393.52l.38,0c9.08-.79,17.38-5.52,24-13.69l.13.2c.13.22.28.43.39.59l.19.29.1.15.15.22.33.48c.21.31.43.61.72,1l.12.15.44.6c.23.31.46.61.67.87l.58.73c.25.31.5.62.71.85s.33.4.5.58l.15.18.17.19.6.68.16.17.44.46a58.11,58.11,0,0,0,5.62,5.28c22.54,18.5,52,28.28,85.21,28.28,4.4,0,8.88-.17,13.31-.51a87.84,87.84,0,0,1-1,13,4,4,0,0,0-1.45,1.39l-2.55,4.26c-12.65,6.17-23.73,16.34-32.88,30.19a171.38,171.38,0,0,0-18.89,21.86l-.83-1.38-.38-.61c-8.9-14.79-22.34-37.13-40.63-37.13l-.92,0c-.11-.42-.23-.84-.36-1.28a4.21,4.21,0,0,0-3.67-3c-.35,0-.68,0-1,0a7.34,7.34,0,0,0-5.08,1.81c-3.91-8.3-7.16-9.38-9.57-9.38a5.29,5.29,0,0,0-.9.08A9.08,9.08,0,0,0,58,438.68a10.73,10.73,0,0,0-4.8,1.23,4.53,4.53,0,0,0-.78.51,9.54,9.54,0,0,0-2.8.56,4.21,4.21,0,0,0-2.76,4.63c.17,1,.31,2,.44,3.06a13.1,13.1,0,0,0-3.13,1.05c-2.37,1.13-2.61,3.63-2.86,6.26l0,.16,0,.26a53.54,53.54,0,0,0-.3,12.2,60,60,0,0,0,8,24.62c6.15,10.66,14.94,18.41,24.78,21.84a143.19,143.19,0,0,0,5,26.55l.29,1,.12.37.28.9.16.48.14.43.13.37.18.55.17.48.15.41.16.42.27.73.22.59.22.54.07.19.24.6.3.72.09.21L82,551l.19.43.1.23.29.64.3.64.29.6.32.65.38.74.25.47.35.66.32.55.29.52.09.15.34.56.14.24.21.32c.13.22.27.43.35.55l.44.66.36.53.39.53.3.42.12.15.44.57.39.48c.16.2.31.39.45.54s.27.32.39.45.23.27.35.41l.16.16.44.46.31.32.36.37.31.28.51.46.15.14.29.25c.19.17.38.33.55.46s.35.29.53.42l.67.5.42.29.66.43.41.26.37.22.15.08.29.17.17.09.29.16.43.2.27.14.14.06.3.14c.23.1.46.2.78.32l.34.14.19.07.18.07.21.07a2.78,2.78,0,0,0,.38.12l.2.07.38.12.73.19c.18.05.37.1.54.13l.47.1.22,0,.29.05.42.07.85.11h.16l.43.05c.48,0,1,.07,1.44.07h1.66c2.72,0,5.36-.11,7.82-.34-1.54,15-1.92,27.48-2,33.61v6.74c0,6.06-.61,60.11-22.85,91.54l-1.68,2.52a3.94,3.94,0,0,0,2.33,6,18.51,18.51,0,0,0,4.39.53,20.23,20.23,0,0,0,7.7-1.57,14,14,0,0,0,3.34,5.83,12.92,12.92,0,0,0,9.38,3.84,18.21,18.21,0,0,0,9.45-2.85,13.33,13.33,0,0,0,6.09,7.89c-.22,1.08-.45,2.14-.67,3.17-3.42,15.42-6.7,18.84-7.56,19.47l-.17.13-.13.08c-1.37.45-2.76.76-4.11,1.06a27.13,27.13,0,0,0-9.61,3.61c-.29.19-.58.4-.9.64l-.21.16c-.21.15-.42.32-.67.53l-.18.15c-.13.1-.25.2-.44.37l-.12.1-.18.17-.19.16c-.54.49-1.1,1-1.68,1.67l-.29.3-.6.67-.24.28-.45.53-.2.25-.08.1a2,2,0,0,0-.23.28q-.75,1-1.41,1.92l-.16.24c-.21.3-.4.6-.58.89a3.61,3.61,0,0,0-.23.36c-.19.3-.37.61-.54.92l-.1.17c-.45.8-.87,1.64-1.22,2.41l-.14.34c-.14.32-.28.66-.4,1,0,.12-.1.25-.12.32-.13.37-.26.74-.4,1.18a1,1,0,0,1-.05.16c-.13.46-.26.91-.35,1.37a17.31,17.31,0,0,0-.44,3.54,14.35,14.35,0,0,0,.11,1.91,12,12,0,0,0,.31,1.7,14,14,0,0,0,.69,1.94,11.24,11.24,0,0,0,.81,1.54,12.9,12.9,0,0,0,2.62,3c6.27,5.27,22.94,8,26,8.29a138.64,138.64,0,0,0,14.09.72,127.09,127.09,0,0,0,36.49-5.19l.6-.18.38-.12.15-.05c.65-.2,1.29-.41,1.94-.63.88-.3,1.76-.61,2.63-.93l1.17-.44.26-.1,2.33-.93,1-.41.15-.07c1.11-.47,2.21-1,3.3-1.49A3.66,3.66,0,0,0,194,779.7l.06-.3.06-.3,0-.2.05-.23c.1-.47.22-1.08.36-1.82,1.41-7.16,4.8-25.55,5.9-42.2A21.4,21.4,0,0,0,211.37,728a17.18,17.18,0,0,0,14.57,7.38,20.07,20.07,0,0,0,5.24-.68c.69,2.29,1.44,4.57,2.17,6.79l.05.16.11.33c1.08,3.27,2.3,7,3.26,10.57.1.36.19.72.33,1.3l0,.17.16.73.1.48.13.6.11.55.05.29.05.26,0,.27.05.32,0,.3.05.23,0,.22.06.41.08.5.06.33.07.49,0,.23.2,1.38,0,.22.13.81c.14.91.27,1.8.42,2.67l.05.21.15.89.07.35.15.76.09.39c.05.25.1.5.16.75l.1.39c.06.25.12.49.16.6s.1.39.13.51.13.43.19.63.09.32.15.52l.15.43.08.21.15.42c0,.15.11.3.2.53l.08.19.08.19.07.18c.13.3.27.61.4.86l.09.2c.18.37.37.73.59,1.12l.14.21c.15.26.31.53.44.72l.32.47.05.06.22.32.18.23.29.36.35.42.18.21.34.36a5.89,5.89,0,0,0,.5.52l.42.4.56.5.37.3c.18.15.38.29.72.55l.42.3.43.28.27.17.16.09.21.13a6.52,6.52,0,0,0,.58.33l.29.16.13.08.26.13c.32.16.66.32,1.15.54l-.24-.14a4,4,0,0,0,.5.26l.21.08c.55.23,1.13.44,1.92.71l.33.11c.67.2,1.36.42,2.11.6a135.27,135.27,0,0,0,31.1,3.83c14.84,0,26.54-2.9,34.79-8.6a15.42,15.42,0,0,0,1.48-1.19,11.32,11.32,0,0,0,.93-.9l.19-.22a13.08,13.08,0,0,0,1.27-1.69,12.46,12.46,0,0,0,1-1.92,13.53,13.53,0,0,0,.68-1.94,14.85,14.85,0,0,0,.29-6.19,17.78,17.78,0,0,0-.41-1.87l-.05-.18c-.17-.58-.39-1.18-.62-1.78l-.09-.21c-.25-.58-.54-1.16-.83-1.7l-.1-.18c-.34-.59-.7-1.15-1.1-1.72a19.77,19.77,0,0,0-1.4-1.74c-.42-.46-.9-.94-1.38-1.38l-.27-.25a19.44,19.44,0,0,0-1.54-1.24l-.31-.23a20,20,0,0,0-1.72-1.09l-.3-.18c-.66-.36-1.28-.68-1.94-1l-.24-.09c-.53-.23-1.05-.43-1.56-.61-5.59-10-9.18-22.29-11.2-30.86-.34-1.46-.65-2.87-.92-4.18a16.26,16.26,0,0,0,4.76.78A11.34,11.34,0,0,0,317.92,708a15.35,15.35,0,0,0,.58-2.68c4.86,1.75,11.16,2.64,18.74,2.64a3.94,3.94,0,0,0,2.92-6.58c-.34-.39-35-39.5-42.94-92.9a1.75,1.75,0,0,0,0-.51c-.16-2.24-.34-4.45-.52-6.63v-.15l-.1-1.12c-.2-2.29-.4-4.55-.62-6.76l-.06-.67-.07-.67c-.22-2.25-.46-4.46-.7-6.69l-.05-.32,0-.32c-.23-2.06-.48-4.08-.73-6.06l-.06-.45-.08-.69c-.27-2-.53-4-.81-6l-.2-1.43q-.42-2.92-.87-5.75l-.1-.63-.09-.54c-.26-1.7-.55-3.38-.83-5l0-.19-.15-.91c-.32-1.77-.63-3.5-.95-5.21L290,551l-.14-.7c-.32-1.65-.64-3.28-1-4.87l-.19-.88-.13-.62c-.29-1.4-.59-2.77-.9-4.13l-.11-.49-.25-1.11c-.31-1.33-.62-2.64-.93-3.92l-.4-1.67c-.35-1.37-.69-2.73-1-4.07l-.4-1.49-.06-.25-.93-3.32c-.2-.71-.39-1.4-.6-2.09-.27-.93-.54-1.84-.81-2.74L282,518l-.33-1.11c-.36-1.13-.72-2.25-1.07-3.31-.2-.64-.41-1.28-.62-1.9L279,509c-.27-.78-.54-1.56-.82-2.34l-.16-.43-.54-1.45c-.27-.75-.55-1.49-.83-2.21l-.17-.43-.32-.84-.43-1.08L275,498.4c-.3-.73-.6-1.43-.89-2.13-20.47-48.14-48.1-56.57-59.36-57.93a4,4,0,0,0-1.47-2.52,24.46,24.46,0,0,0-3.51-2.26,50.36,50.36,0,0,1,0-16.08c27.94-6.19,57.84-25.11,80.07-50.67,10,12.22,27.42,16.56,39.34,16.56a51.64,51.64,0,0,0,6-.34,4.47,4.47,0,0,0,3.89-4.29,4.28,4.28,0,0,0-3.57-4.35c-12.62-2.19-24.3-10.84-30.58-22.62,5.72-2.48,13.6-6.54,19.46-12,8.86-8.24,5.12-19.85,3.67-23.4a62.7,62.7,0,0,1,1.22-11.51,36.07,36.07,0,0,1,2.74-8.75,19.05,19.05,0,0,1,1.82-2.92l.11-.15c.44-.62.88-1.24,1.29-1.88,4.64-7.26,7.86-15.39,11-23.26l1.13-2.87a333.9,333.9,0,0,0,12-34.95l.35-1.23c1.54-5.56,3.3-11.86,2.58-18.11-1.05-9.27-4.51-18.28-7.75-25.87a147.15,147.15,0,0,0-23.1-37.35,135.78,135.78,0,0,0-18.35-17.92A84.65,84.65,0,0,0,352.36,106.58Z"/><path class="cls-1" d="M141.44,790.9a136.17,136.17,0,0,1-13.87-.71c-4.54-.46-19.46-3.29-24.8-7.79a10.43,10.43,0,0,1-2.18-2.48,9,9,0,0,1-.68-1.28s0-.07,0-.11a9.16,9.16,0,0,1-.52-1.49,9.79,9.79,0,0,1-.26-1.42A12.3,12.3,0,0,1,99,774a15.18,15.18,0,0,1,.39-3.07c.09-.44.21-.85.32-1.25a1,1,0,0,0,0-.16c.12-.36.23-.69.35-1a2.49,2.49,0,0,1,.11-.29c.12-.31.24-.62.37-.92l.14-.31a24.36,24.36,0,0,1,1.12-2.22l.09-.16c.16-.28.32-.56.49-.83a1.48,1.48,0,0,0,.16-.27l.07-.09q.25-.42.54-.84l.16-.24c.46-.66,1-1.33,1.47-2l-.08.09.19-.22.07-.09.59-.7.22-.26.6-.67.22-.23c.55-.58,1.07-1.1,1.57-1.55l.16-.14.22-.2c.09-.08.26-.23.43-.36l.24-.21.54-.42.27-.21c.25-.18.51-.37.77-.54a25.08,25.08,0,0,1,8.89-3.31A41.64,41.64,0,0,0,124,750.2l.23-.1.23-.12.17-.11.2-.14c1.74-1.27,5.1-5.64,8.45-20.78.25-1.13.5-2.29.74-3.49a1.78,1.78,0,0,0-.92-1.92,11.38,11.38,0,0,1-5.42-7.2,1.77,1.77,0,0,0-1.09-1.17,1.83,1.83,0,0,0-.61-.11,1.78,1.78,0,0,0-1,.29,16.25,16.25,0,0,1-8.7,2.77,10.82,10.82,0,0,1-7.84-3.19,12.1,12.1,0,0,1-2.92-5.31,1.79,1.79,0,0,0-1-1.14,1.71,1.71,0,0,0-.77-.18,1.68,1.68,0,0,0-.72.16A18,18,0,0,1,95.93,710a16.14,16.14,0,0,1-3.87-.47,1.83,1.83,0,0,1-1.24-1.1,1.78,1.78,0,0,1,.18-1.63l1.68-2.52c22.59-31.92,23.21-86.61,23.21-92.74v-6.71c.09-6.13.47-18.68,2-33.87a1.8,1.8,0,0,0-.51-1.45,1.78,1.78,0,0,0-1.27-.52H116c-2.53.25-5.25.38-8.07.38-.53,0-1.07,0-1.61,0s-.88,0-1.3-.06l-.3,0-.26,0h-.1l-.61-.08-.35-.06.1,0a1.34,1.34,0,0,0-.27-.07l-.13,0-.59-.12-.47-.11-.75-.2-.3-.1-.16,0-.13,0-.14,0-.46-.16-.4-.17c-.34-.12-.54-.21-.74-.3s-.25-.12-.38-.18l-.28-.13-.44-.22-.34-.19-.13-.07-.17-.09-.1-.06-.31-.18-.43-.27c-.22-.14-.41-.26-.59-.39l-.48-.33c-.18-.13-.35-.25-.51-.38l-.47-.37c-.18-.14-.34-.28-.5-.42l-.31-.26-.11-.1-.5-.46-.27-.26-.15-.15-.18-.17-.29-.3-.4-.42-.44-.49-.39-.45c-.15-.17-.28-.34-.42-.51l-.39-.48-.42-.54-.07-.1-.3-.41-.39-.53-.33-.49c-.15-.21-.27-.4-.39-.58s-.22-.34-.34-.53l-.23-.36-.11-.18-.34-.57L87,556l-.28-.49-.31-.55-.33-.61-.24-.45,0-.1-.32-.62-.31-.63-.28-.57-.3-.64-.26-.58-.1-.23-.2-.44-.16-.38-.08-.2c-.11-.25-.2-.48-.3-.72l-.23-.56-.06-.16-.21-.53-.21-.57-.28-.74-.15-.41,0-.12-.09-.28L82,545l-.17-.51-.14-.39-.13-.39-.15-.47-.28-.89-.12-.37-.29-.95a142.21,142.21,0,0,1-4.88-26.35,1.77,1.77,0,0,0-1.2-1.53c-9.42-3.22-17.89-10.66-23.84-21a58,58,0,0,1-7.72-23.73,49.68,49.68,0,0,1,.28-11.69l0-.35,0-.16c.27-2.8.5-4,1.65-4.54a11.15,11.15,0,0,1,2.89-.94,1.78,1.78,0,0,0,1.49-2c-.15-1.19-.3-2.34-.49-3.49A2,2,0,0,1,50.28,443a7.86,7.86,0,0,1,2.29-.44,1.73,1.73,0,0,0,1.12-.44,1.65,1.65,0,0,1,.44-.28,8.34,8.34,0,0,1,3.83-1,7,7,0,0,1,4.76,1.93,1.78,1.78,0,0,0,1.2.46l.32,0a3.3,3.3,0,0,1,.69-.07c1.06,0,3.88,0,7.83,8.6a1.8,1.8,0,0,0,1.34,1l.28,0a1.78,1.78,0,0,0,1.31-.57,5.1,5.1,0,0,1,3.88-1.5,7.51,7.51,0,0,1,.8,0,2,2,0,0,1,1.81,1.45c.14.48.28,1,.41,1.48A1.78,1.78,0,0,0,84.32,455h.11l1.09,0c17.06,0,30.14,21.71,38.79,36.08.51.85,1,1.68,1.5,2.48a1.8,1.8,0,0,0,1.46.86h.07a1.81,1.81,0,0,0,1.45-.74,167.1,167.1,0,0,1,19-22,2.25,2.25,0,0,0,.24-.3c9-13.62,19.83-23.55,32.17-29.54a1.71,1.71,0,0,0,.76-.7c.86-1.45,1.72-2.89,2.6-4.34a1.71,1.71,0,0,1,.7-.66,1.91,1.91,0,0,0,1-1.33,89.74,89.74,0,0,0,1-13.9,1.8,1.8,0,0,0-.57-1.31,1.76,1.76,0,0,0-1.21-.48h-.15c-4.55.35-9.1.54-13.53.54-32.71,0-61.7-9.61-83.85-27.8a57.28,57.28,0,0,1-5.42-5.08l-.6-.64-.55-.62-.19-.22c-.19-.22-.39-.44-.58-.67s-.47-.56-.7-.84l-.57-.72c-.24-.29-.46-.59-.68-.88l-.39-.53-.12-.15c-.27-.38-.48-.66-.68-1l-.32-.47-.14-.22-.11-.16-.16-.25a6.61,6.61,0,0,1-.37-.55l-.23-.36-.06-.11a2,2,0,0,0-1.48-.92h-.14a1.78,1.78,0,0,0-1.41.59C65.74,386,57.83,390.6,49.19,391.35H49a2.14,2.14,0,0,1-2.06-1.61,2.18,2.18,0,0,1,1-2.46c5.46-3.06,9.2-6.64,11.43-10.94,2.49-4.8,3.49-10.16,4.09-14.29.18-1.26.37-2.51.58-3.77a1.75,1.75,0,0,0-.23-1.2c-4-6.64-5.88-12.21-5.88-17,0-7,2.91-11.52,8-12.32a1.78,1.78,0,0,0,1.5-1.95l0-.25a1.79,1.79,0,0,0-1.77-1.65,44.89,44.89,0,0,1-7.79-.72C47,321.21,36.07,316,26.39,308a78.92,78.92,0,0,1-12.56-12.81c-4.9-6.36-8-13.81-11-21L2.35,273a2.43,2.43,0,0,1,.19-2.27,2.66,2.66,0,0,1,2.22-1.14,2.6,2.6,0,0,1,1.68.59c1.15,1,3.09,1.58,5.51,2.28.83.24,1.62.48,2.32.72,2.4.84,5.57,1.94,8.77,2.93,5.2,1.59,9.73,2.82,13.88,3.74a2.33,2.33,0,0,0,.38,0,1.8,1.8,0,0,0,1.64-2.51C29.77,256.48,26.05,232,28.16,206.39a151.52,151.52,0,0,1,3.5-23c.7-2.93,2.43-5.2,4.11-7.4l.09-.11c.33-.44.66-.87,1-1.31a164.65,164.65,0,0,1,14.45-17.34,171.68,171.68,0,0,1,64.42-41.6,181.82,181.82,0,0,1,47.85-10.75c4.13-.33,7.89-.66,12.09-1.37,1.5-.25,3-.49,4.52-.72a1.77,1.77,0,0,0,1.36-1,1.8,1.8,0,0,0-.12-1.7,30.37,30.37,0,0,1-2.13-3.91,37.2,37.2,0,0,1-1.93-24.59c4.17-16.78,17.08-33.2,34.54-43.93,14.57-9,31.13-15.25,46.63-17.7a88.34,88.34,0,0,1,13.72-1.11c12,0,22.72,2.75,31.88,8.18,16.38,9.7,28.19,24.8,39.6,39.4,6.72,8.59,13.62,17.42,21.3,25a2.51,2.51,0,0,1,.5,2.88c-3,6.82-8,13.83-14.71,20.84a82.49,82.49,0,0,1-38.95,22.66,1.78,1.78,0,0,0-.67,3.12A134.52,134.52,0,0,1,329.82,149a145.34,145.34,0,0,1,22.76,36.79c3.18,7.46,6.57,16.29,7.59,25.27.67,5.86-1,11.95-2.53,17.32l-.33,1.2a336.15,336.15,0,0,1-12,34.73l-1.14,2.88C341.12,275,337.94,283,333.42,290c-.39.61-.81,1.2-1.23,1.8l-.08.11a21,21,0,0,0-2.05,3.29,38.83,38.83,0,0,0-2.91,9.26,66.33,66.33,0,0,0-1.25,12,1.81,1.81,0,0,0,.14.69c1.27,3.07,4.81,13.68-3.12,21.05-5.75,5.33-13.62,9.32-19.21,11.72a1.8,1.8,0,0,0-.88,2.47c6.53,12.53,18.91,21.77,32.31,24.1a2.13,2.13,0,0,1,1.78,2.16,2.29,2.29,0,0,1-2,2.21,49.36,49.36,0,0,1-5.78.33c-11.56,0-28.43-4.22-37.93-16.11a1.79,1.79,0,0,0-1.36-.66h0a1.75,1.75,0,0,0-1.34.61l-.14.16c-22,25.38-51.68,44.15-79.31,50.2a1.8,1.8,0,0,0-1.39,1.5,52.59,52.59,0,0,0,.07,17.23,1.8,1.8,0,0,0,.94,1.24,22.29,22.29,0,0,1,3.32,2.13,1.8,1.8,0,0,1,.68,1.28,1.77,1.77,0,0,0,1.58,1.64c10.68,1.21,37.71,9.15,57.91,56.68.3.69.59,1.39.89,2.1l.74,1.84.42,1.07.33.84c.32.84.65,1.71,1,2.6l.69,1.88c.28.76.55,1.52.82,2.3l.89,2.59c.2.61.41,1.23.61,1.86.35,1.07.7,2.18,1.06,3.31l.33,1.09.2.64c.27.89.53,1.8.8,2.72l.6,2.06c.31,1.09.61,2.2.91,3.31l0,.2.42,1.53c.34,1.32.68,2.67,1,4l.4,1.64c.31,1.29.62,2.59.92,3.9l.25,1.1.11.5c.3,1.34.6,2.7.89,4.09l.14.64.18.86c.33,1.58.64,3.2,1,4.84l.13.69.16.85q.48,2.55.94,5.19l.16.89,0,.18c.28,1.63.56,3.3.83,5l.08.53.1.64c.3,1.87.58,3.78.86,5.72l.2,1.42c.28,2,.55,4,.81,6l.08.68.06.44q.38,3,.73,6l0,.33,0,.35c.24,2.17.47,4.39.69,6.62l.07.67.07.67q.31,3.32.62,6.74l.09,1.1v.16q.29,3.26.52,6.61a1.69,1.69,0,0,0,0,.55c8.1,54.49,43.12,93.75,43.47,94.14a1.78,1.78,0,0,1,.3,1.92,1.76,1.76,0,0,1-1.62,1.06c-7.56,0-13.75-.9-18.42-2.67a1.76,1.76,0,0,0-.64-.11,1.72,1.72,0,0,0-.93.26,1.78,1.78,0,0,0-.84,1.35,12.74,12.74,0,0,1-.55,2.72,9.17,9.17,0,0,1-9.16,7.07,14.18,14.18,0,0,1-4.68-.87,1.85,1.85,0,0,0-.58-.09,1.78,1.78,0,0,0-1.75,2.14c.31,1.52.67,3.16,1.08,4.88,2.06,8.75,5.72,21.32,11.49,31.54a1.76,1.76,0,0,0,1,.81c.51.18,1,.38,1.57.61l.22.09c.58.26,1.14.54,1.73.87l.3.16c.5.3,1,.64,1.53,1l.28.2a16.58,16.58,0,0,1,1.37,1.11l.24.22c.45.41.88.84,1.25,1.25.51.58.9,1.07,1.24,1.53s.67,1,1,1.54l.11.2c.24.44.49,1,.71,1.46l.1.24a16.14,16.14,0,0,1,.53,1.53l0,.15a14.39,14.39,0,0,1,.36,1.64,12.77,12.77,0,0,1-.24,5.28,12,12,0,0,1-1.43,3.24,12.72,12.72,0,0,1-1.08,1.43l-.16.17a9.37,9.37,0,0,1-.78.76,10.87,10.87,0,0,1-1.27,1c-7.89,5.46-19.18,8.22-33.58,8.22A133,133,0,0,1,256.67,783c-.71-.17-1.35-.36-2-.56l-.29-.1c-.72-.24-1.27-.44-1.78-.65l-.22-.09-.13-.06-.14-.07c-.38-.16-.67-.3-.95-.44l-.25-.13-.15-.08-.21-.12-.12-.06c-.12-.07-.25-.13-.36-.21l-.26-.15-.15-.1-.25-.16-.39-.25-.36-.26c-.24-.17-.42-.31-.6-.45l-.37-.31-.49-.43-.37-.36c-.15-.14-.28-.28-.42-.42l-.33-.36c-.14-.17-.28-.33-.41-.5l-.32-.39-.29-.41-.09-.12-.22-.32c-.16-.23-.29-.46-.43-.69l-.12-.2a10,10,0,0,1-.51-1l-.09-.19q-.19-.39-.36-.78l-.08-.19-.05-.11-.08-.2A.43.43,0,0,0,243,772c0-.12-.09-.23-.13-.35l-.16-.44c-.05-.15-.13-.36-.2-.57s-.08-.29-.13-.42-.12-.41-.18-.63-.08-.27-.11-.41-.11-.42-.17-.64l-.09-.39-.15-.67-.09-.43-.14-.7-.08-.37-.14-.82,0-.25c-.18-1.07-.35-2.23-.53-3.41l0-.17-.21-1.42,0-.25v-.11l-.06-.38-.06-.33-.08-.5,0-.39,0-.24-.06-.3,0-.25-.06-.34,0-.23-.07-.35,0-.24-.11-.58-.14-.63-.1-.49-.17-.75,0-.19,0-.14c-.12-.48-.21-.86-.32-1.24-1-3.63-2.2-7.37-3.29-10.67l-.11-.34c-.78-2.36-1.58-4.79-2.31-7.23a1.78,1.78,0,0,0-1.71-1.27,1.71,1.71,0,0,0-.49.07,18.74,18.74,0,0,1-5,.69,15,15,0,0,1-13-6.78,1.77,1.77,0,0,0-1.36-.84h-.16a1.8,1.8,0,0,0-1.33.6,19.33,19.33,0,0,1-10.37,6.4,1.79,1.79,0,0,0-1.42,1.64c-1.07,16.59-4.46,35-5.88,42.19-.14.74-.26,1.34-.35,1.81l0,.23-.05.22,0,.14,0,.17s0,.16-.06.29,0,.12,0,.15a1.45,1.45,0,0,1-1,1.14c-1.05.5-2.12,1-3.21,1.45-.35.16-.71.31-1.06.45-.77.33-1.54.63-2.31.93l-.25.1-1.15.43c-.85.31-1.71.62-2.57.91l-1.9.61-.13,0-.39.12-.58.17a124.63,124.63,0,0,1-35.87,5.1ZM110.1,518.66a1.81,1.81,0,0,0-1.1.38,1.78,1.78,0,0,0-.54,2.12l.08.17c.13.31.26.63.4.93s.29.64.44,1a1.79,1.79,0,0,0,1.61,1h.07a1.78,1.78,0,0,0,1.6-1.14l.23-.61.15-.4a1.78,1.78,0,0,0-.58-2.06c-.43-.32-.85-.64-1.26-1a1.81,1.81,0,0,0-1.1-.38Z"/><path class="cls-2" d="M186.23,438.84s3.2-11.8,1.12-30.84l20.15.51s-7.08,24.83,3.56,37.42Z"/><path class="cls-3" d="M138.46,709.07s-4.41,39.67-13.86,42.82c-4.44,1.49-8.62,1.48-12.8,4.24-6.33,4.17-16.1,18-7.88,24.9,4.52,3.81,18.14,6.8,23.83,7.39,20.4,2.09,43.37-.35,62.34-9.45,0,0,8.82-41.56,6.3-63S138.46,709.07,138.46,709.07Z"/><path class="cls-3" d="M312.26,754.41l-.83-.23C299.5,734,295.88,704,295.88,704s-64.23-6.93-64.23,10.7c0,12.87,5.66,24.58,8.93,36.78,3.6,13.43.47,25.81,16.52,29.75,17.71,4.35,46.65,6.93,62.71-4.19C328,771.41,324.22,758.19,312.26,754.41Z"/><path class="cls-4" d="M196.39,716c-2.52-21.41-57.93-6.93-57.93-6.93s-1.11,9.94-3.39,20.26c4.55,4.73,12.85,1.7,18.55-6.56,3.63,19.4,20.21,17.78,29.51,4l1.61.81a23.3,23.3,0,0,0,3,6.25,347.32,347.32,0,0,1-8.33,36.91l-10.15,15.31A97.89,97.89,0,0,0,190.09,779S198.91,737.41,196.39,716Z"/><path class="cls-4" d="M245.74,731.43c9,4.88,21.52,4.72,19.86-9.88,8.89,6.87,26.68,10.92,23.85-6.87a32.27,32.27,0,0,0,9.58,6.23c-2.28-9.69-3.15-16.87-3.15-16.87s-64.23-6.93-64.23,10.7c0,12.87,5.66,24.58,8.93,36.78s1,23.49,12.51,28.43C254.75,763,250.18,744.58,245.74,731.43Z"/><path class="cls-5" d="M111.8,756.13c-6.33,4.17-16.1,18-7.88,24.9,4.52,3.81,18.14,6.8,23.83,7.39,20.4,2.09,43.37-.35,62.34-9.45,0,0,.22-1.05.59-2.88-22.59-17.26-53.91-23.3-64.73-24.94a4.49,4.49,0,0,1-1.35.74C120.16,753.38,116,753.37,111.8,756.13Z"/><path class="cls-5" d="M257.1,781.27c17.71,4.35,46.65,6.93,62.71-4.19,8.19-5.67,4.41-18.89-7.55-22.67l-.83-.23-.06-.11a167.6,167.6,0,0,0-30.6.34c-30.23,3.15-34.64,19.52-34.64,19.52L246,774C248,777.3,251.28,779.84,257.1,781.27Z"/><path class="cls-6" d="M103.92,781c4.52,3.81,18.14,6.8,23.83,7.39,20.4,2.09,43.37-.35,62.34-9.45,0,0,.2-.94.52-2.57l-1.78.05c-74.3,18.89-87.53-5-87.53-5l-.18-.12C100.3,774.92,100.86,778.46,103.92,781Z"/><path class="cls-6" d="M257.1,781.27c17.71,4.35,46.65,6.93,62.71-4.19a9.8,9.8,0,0,0,4.32-7.82c-3.72,2.67-13.16,7.87-32,9.71a112.74,112.74,0,0,1-46-5L246,774C248,777.3,251.28,779.84,257.1,781.27Z"/><path class="cls-7" d="M134.68,760.71c0,2.26-4.23,4.09-9.45,4.09s-9.44-1.83-9.44-4.09,4.23-4.1,9.44-4.1S134.68,758.45,134.68,760.71Z"/><path class="cls-7" d="M297.13,759.55c.11,2-4,3.81-9.23,4.11s-9.52-1.07-9.64-3,4-3.81,9.23-4.11S297,757.57,297.13,759.55Z"/><path class="cls-8" d="M183.58,718.73c5.46,17.21,21,15.53,29,.84,1.68,16.79,26.45,15.11,29-.84,8.39,8.39,28.13,12.17,26-6.3,9.23,7.14,27.7,11.34,24.77-7.14,4.19,3.78,11.75,9.24,17.63,6.72,5-2.52,5.87-9.65,3.35-14.27,5.46,5.46,16.8,6.3,23.93,6.3,0,0-36.1-39.88-44.08-96.14l-175.47,2.94s.83,60-23.51,94.45l-1.68,2.52A16.09,16.09,0,0,0,106.76,704c-.42,14.27,13,16,21.84,5.87.41,17.21,14.27,16,22.66,3.78,3.78,20.15,21,18.47,30.64,4.2Z"/><path class="cls-9" d="M155.69,641.88c0-8.64-8.93-3.44-13.35-.42,1.89-4.72,4-13-2.83-13-8.64,0-3.45,8.94-.42,13.35-4.72-1.89-13-4-13,2.84,0,8.64,8.93,3.44,13.35.42-1.89,4.72-4,13,2.83,13,8.64,0,3.45-8.94.42-13.35C147.41,646.61,155.7,648.69,155.69,641.88Zm-15.08,2.57a1.5,1.5,0,1,1,1.49-1.5A1.5,1.5,0,0,1,140.61,644.45Zm26,40.25c4.38-2.59,11.08-7.88,5.68-12-6.84-5.26-8.17,5-8.47,10.32-2.59-4.37-7.88-11.08-12-5.68-5.26,6.85,5,8.18,10.32,8.48-4.38,2.58-11.08,7.88-5.69,12,6.86,5.26,8.18-5,8.48-10.33,2.59,4.38,7.89,11.09,12,5.69C182.23,686.33,172,685,166.65,684.7Zm-1.1,1a1.49,1.49,0,1,1-.27-2.1A1.5,1.5,0,0,1,165.55,685.74Zm70.79-29.85c.32-8.64-8.8-3.79-13.32-.94,2.06-4.64,4.46-12.84-2.34-13.09-8.63-.33-3.78,8.79-.93,13.32-4.65-2.07-12.85-4.47-13.1,2.33-.32,8.63,8.79,3.79,13.32.94-2.07,4.64-4.46,12.84,2.34,13.09,8.63.33,3.78-8.79.93-13.32C227.88,660.29,236.08,662.69,236.34,655.89Zm-15.17,2a1.5,1.5,0,1,1,1.55-1.43A1.5,1.5,0,0,1,221.17,657.87ZM282,688.33c2.07-4.65,4.47-12.85-2.33-13.1-8.63-.33-3.79,8.79-.94,13.32-4.64-2.07-12.84-4.46-13.09,2.34-.32,8.63,8.8,3.78,13.33.93-2.07,4.64-4.47,12.85,2.33,13.1,8.63.32,3.78-8.8.93-13.33,4.64,2.07,12.84,4.47,13.1-2.33C295.64,680.63,286.52,685.47,282,688.33Zm-1.85,2.92a1.5,1.5,0,1,1,1.56-1.44A1.5,1.5,0,0,1,280.14,691.25Zm-2.55-42.78c5.38-6.76-4.84-8.26-10.18-8.65,4.42-2.51,11.21-7.69,5.89-11.93-6.76-5.38-8.27,4.84-8.65,10.18-2.52-4.43-7.69-11.22-11.93-5.89-5.38,6.76,4.83,8.26,10.17,8.65-4.42,2.52-11.21,7.7-5.89,11.93,6.77,5.38,8.27-4.84,8.66-10.18C268.17,647,273.35,653.8,277.59,648.47Zm-13.4-7.39a1.5,1.5,0,1,1,2.1-.24A1.51,1.51,0,0,1,264.19,641.08ZM127.65,675.2c1.07-2.67,2.25-7.37-1.61-7.36-4.89,0-2,5-.23,7.56-2.68-1.08-7.37-2.25-7.37,1.6,0,4.89,5.06,2,7.57.24-1.08,2.67-2.25,7.37,1.6,7.36,4.9,0,2-5.06.24-7.56,2.67,1.07,7.36,2.25,7.36-1.6C135.2,670.54,130.15,673.48,127.65,675.2Zm-1,1.69a.85.85,0,0,1-.85-.85.84.84,0,0,1,.85-.84.83.83,0,0,1,.84.84A.84.84,0,0,1,126.67,676.89Zm65.43-20.5c2.3-4.31-3.54-4.1-6.55-3.77,2.2-1.86,5.45-5.44,2-7.25-4.31-2.31-4.1,3.54-3.77,6.55-1.86-2.2-5.44-5.45-7.25-2-2.31,4.31,3.54,4.1,6.55,3.77-2.2,1.85-5.46,5.44-2,7.25,4.31,2.3,4.1-3.54,3.77-6.55C186.71,656.54,190.29,659.79,192.1,656.39ZM185,653.3a.85.85,0,0,1-1.15.34.83.83,0,0,1-.34-1.14.84.84,0,0,1,1.14-.35A.86.86,0,0,1,185,653.3ZM200.45,699c2.2-1.85,5.46-5.43,2.06-7.24-4.32-2.31-4.11,3.54-3.78,6.55-1.85-2.2-5.44-5.46-7.25-2-2.3,4.31,3.54,4.1,6.56,3.77-2.21,1.85-5.46,5.44-2.06,7.25,4.32,2.3,4.1-3.54,3.77-6.56,1.86,2.21,5.44,5.46,7.25,2.06C209.31,698.46,203.46,698.68,200.45,699Zm-.52.69a.85.85,0,1,1-.35-1.15A.84.84,0,0,1,199.93,699.69ZM236.71,690c-.42-2.85-1.76-7.5-5.09-5.55-4.23,2.46.86,5.35,3.6,6.65-2.85.42-7.5,1.76-5.55,5.09,2.47,4.23,5.35-.86,6.65-3.6.42,2.85,1.77,7.5,5.1,5.55,4.22-2.46-.86-5.35-3.61-6.65,2.86-.42,7.5-1.77,5.56-5.09C240.9,682.13,238,687.22,236.71,690Zm.31,1.8a.84.84,0,1,1-.85-1.46.84.84,0,0,1,1.15.3A.85.85,0,0,1,237,691.76Zm49.68-27c.42,2.85,1.76,7.5,5.1,5.55,4.22-2.47-.87-5.35-3.61-6.65,2.85-.42,7.5-1.77,5.56-5.09-2.48-4.23-5.36.86-6.66,3.6-.42-2.85-1.77-7.5-5.1-5.55-4.22,2.46.87,5.35,3.61,6.65-2.85.42-7.5,1.76-5.56,5.09C282.51,672.56,285.4,667.47,286.7,664.73Zm-.16-2.25a.84.84,0,1,1-.31,1.16A.85.85,0,0,1,286.54,662.48Z"/><path class="cls-10" d="M77.38,511.35s2.94,55.83,29,56.25S137.83,558,137.83,558l19.31-92.36S123.56,492,111.8,531.08a58.37,58.37,0,0,1-9.24-24.35Z"/><path class="cls-11" d="M106.34,567.6c26,.42,31.49-9.65,31.49-9.65l15.6-74.61c-2.92-3.61-6.69-4.62-11.4.72-12.6,14.27-23.93,70.53-23.93,70.53l-.08.79c-4,3.13-9,5.53-14.2,4.67-10.64-1.78-21-20.16-21-20.16l-.41.56C86.48,554.07,93.68,567.4,106.34,567.6Z"/><path class="cls-12" d="M90.83,535.31c2.53-.78,2.22-8.76,2.16-10.91,1.45,1.72,7.41,9.15,10.33,7,2-1.41.2-8.41-.6-10,1.49.55,3.06,1.11,4.6,1.62a60.61,60.61,0,0,1-4.76-16.27l-25.18,4.62a145.57,145.57,0,0,0,3.53,23.4c1.15-2.54,1.53-5.68,2.24-8.15C84,528.77,87.54,536.33,90.83,535.31Z"/><path class="cls-13" d="M71,469.42l4.48-4.67c-.94-3.15-7.87-25.51-12.59-18.26l0,.19c-1.9-3.05-4.44-4.69-7.89-3a3.09,3.09,0,0,1,0,1.73,9.93,9.93,0,0,0-1-.78,10.88,10.88,0,0,0-3.15.31l.94,7.56-.45.72-.49-.4a6.69,6.69,0,0,0-5,.62c-6.3,26.45,15.11,63,44.71,59.19l5.35-.94c6.3-1.26,9.76-6,12-11.65Zm11.73-7.19c-1.26-2.84-1.58-6.3-2.52-9.44-4.73-.64-4.41,3.77-3.78,7.24Z"/><path class="cls-2" d="M96,511.66c6.3-1.26,9.76-6,12-11.65L71,469.42l4.48-4.67c-.24-.84-.93-3.06-1.88-5.72-6.17-.9-20.78,7.92-20.78,7.92a88.44,88.44,0,0,1-1.25-14l-.15.24-.49-.4a4.66,4.66,0,0,0-1.07-.23l-.51.23c-.63,5.66,2.84,21.4,4.41,23.61s15.11,16.06,15.11,16.06,7.24,2.2,12.28,6,7.24,14.16,7.24,14.16v.2c.73,0,1.47-.1,2.21-.2Z"/><path class="cls-14" d="M90.6,512.5c-14.6,1-27.85-7.22-35.91-19a58.32,58.32,0,0,1-8.55-20A51.44,51.44,0,0,1,44.93,463,38.93,38.93,0,0,1,45.3,457c.46-3.38,1.52-4.87,5.58-4.09.22.05.32-.29.1-.34a7.36,7.36,0,0,0-5.16.68c-.44.2-.62,3.18-.7,3.7a48.29,48.29,0,0,0-.26,11.27,55.83,55.83,0,0,0,7.49,23c7.93,13.73,21.82,24.13,38.27,21.46C90.74,512.69,90.71,512.49,90.6,512.5ZM51.22,454c.5,6.3.31,12.93,3.33,18.67.09.18.41.05.33-.14-2.52-6-2.44-12.21-3.61-18.53C51.26,454,51.22,454,51.22,454Zm.84-1.57q-.33-2.7-.67-5.4c-.3-2.28,1.82-2.91,3.45-1.47l0,0h0c2,1.86,3,4.77,3.8,7.32,1.51,5.06,1.59,10.34,2,15.56a.26.26,0,0,0,.51,0c0-4.46-.53-19.84-6-23.42.22-1.27.59-1.68,2.17-1.82A5.07,5.07,0,0,1,61,445c1.95,1.82,3,4.62,3.87,7.08,1.58,4.59,2.11,9.33,3.15,14,0,.23.45.19.42-.05-.47-3.74-1.64-14.11-5.14-19.7,3.12-3.73,6.82,5,7.8,7.23a115.32,115.32,0,0,1,4.31,11.22.06.06,0,1,0,.12,0c-.83-2.92-7.32-24.66-12.48-18.82-1.94-2.88-4.58-4.3-8.17-2.46a.24.24,0,0,0-.11.27c0,.37,0,.76,0,1.14a4.84,4.84,0,0,0-4-.16.22.22,0,0,0-.15.27c.4,2.48.65,5,1,7.5C51.72,452.7,52.09,452.71,52.06,452.47ZM76.45,460c-.4-2.55-.76-6.79,2.76-7,1.41-.1,1.57,3.34,1.8,4.39a19,19,0,0,0,1.53,5,.22.22,0,0,0,.4-.17c-1-3.12-1.55-6.32-2.47-9.46a.27.27,0,0,0-.26-.19c-4.85-.45-4.48,4.05-3.8,7.51C76.42,460.06,76.45,460,76.45,460Zm-8.52,28.54c.26.41.54.81.79,1.22a19.09,19.09,0,0,0,1.07,1.83,14.49,14.49,0,0,0,2.8.11,31,31,0,0,1,5.74.93,37.38,37.38,0,0,1,9,3.7.14.14,0,0,0,.14-.24,30.79,30.79,0,0,0-15.87-4.81C70.06,491.24,68.91,490,67.93,488.56Zm-9.12-9.67a0,0,0,0,0,0,.05,34,34,0,0,1,6.87,6.46c.62.75,1.19,1.54,1.73,2.34a29.19,29.19,0,0,0-1.62-2.46A30,30,0,0,0,58.81,478.89Zm48.89,21c-1.42,2.45-2.43,4.92-4.3,7.09a14.55,14.55,0,0,1-7.5,4.5c-.26.06-.15.43.11.38a15.86,15.86,0,0,0,12.15-11.77A.25.25,0,0,0,107.7,499.88Z"/><path class="cls-15" d="M117.68,611.47s-3.15-139.79,66.12-169.39h25.81s71.16-7.55,83.75,166.87c0,0-44.07,19.52-98.86,19.52S117.68,611.47,117.68,611.47Z"/><path class="cls-10" d="M270.31,497.37c.44,1.41,1,2.92,1.65,4.53,15.11,36.52,13.85,103.27,13.85,103.27-100.75,34.63-161.21,1.26-161.21,1.26-1.08-26,1.57-51.43,4.93-72a131,131,0,0,0,13.22,4.47.35.35,0,0,0,0,.11c-.31,1.19-.63,2.39-.95,3.59-2.73,10.17-5.9,20.68-6.46,31.05a5.56,5.56,0,0,0,.29,1.93h0a7.63,7.63,0,0,0,.94,1.87l0,.07h0A8.6,8.6,0,0,0,138,579.2l.06,0h0a7.47,7.47,0,0,0,.85.63l.09.06h0a7.23,7.23,0,0,0,.82.44h0l0,0a6.74,6.74,0,0,0,1,.36h0l.22,0h0a5.7,5.7,0,0,0,1,.14c2.9.09,8.66-6.74,9.25-6.57h0c-2,15.05,12.81,20.05,19.54,5.6,3.36,15.11,15.48,16.37,21.54,2.51,4.71,13.86,16.16,14.49,22.89,1.26,5.39,5.67,12.8,15.74,20.87,7.56,3.5-3.54,3.34-6.75,2.11-10.23-.54-1.54-1.3-3.13-2-4.83a138.09,138.09,0,0,1-6.67-19.44c-1.13-4.17-2.1-8.38-3-12.6,10.87-1.82,35.38-10.32,38.31-49.88,0,0-27.71,20.79-32.75,22a103.1,103.1,0,0,0-9.81,3.7l-.66-4.25q-.69-4.41-1.32-8.83-.51-3.6-1-7.21c-.07-.5-.15-1-.21-1.51l-.24-2q-.36-2.9-.69-5.8c-.13-1.17-.25-2.34-.37-3.51-.16-1.45-.3-2.9-.45-4.36l-.36-3.8q-.22-2.55-.42-5.1c-.16-2.05-.31-4.09-.44-6.14l-.21-3.34q-.13-2.31-.24-4.62c0-1-.08-2-.13-3-.15-3.76-.26-7.53-.3-11.29h0l0-1.37a21.61,21.61,0,0,0-3.15-1.9c-9.15-4.53-19.25-1.44-23,0-.95.37-1.48.63-1.48.63-17.3,26.79-31.34,53-40.48,80.65-4.81-1.58-10.08-3.27-14.93-4.66,2.44-12.08,4.82-21.23,6.17-26.1-22.43,51.15-20.91,118.87-20.91,118.87s22,17,76.82,17S293.36,609,293.36,609C289.66,557.58,280.87,522,270.31,497.37ZM225,573.74c2-.62,4.39,1,5.32,3.65s.09,5.28-1.92,5.91-4.38-1-5.31-3.66S223,574.36,225,573.74Zm-20.5,9.81c-2.11.09-3.92-2.1-4-4.88s1.47-5.1,3.58-5.19,3.91,2.1,4,4.88S206.55,583.46,204.45,583.55Zm-22.24-13c2.09-.17,4,1.94,4.26,4.71s-1.25,5.16-3.35,5.33-4-2-4.26-4.72S180.11,570.73,182.21,570.56ZM163,568c2.11.05,3.76,2.35,3.69,5.12s-1.84,5-3.95,5S159,575.75,159.1,573,160.94,568,163,568Zm-18.49-5.38c2.08.34,3.34,2.84,2.82,5.58s-2.62,4.69-4.7,4.34-3.33-2.84-2.81-5.58S142.48,562.3,144.55,562.64Z"/><path class="cls-16" d="M232.36,576.05c-.5-1.54-1.21-3.13-1.9-4.83a145.71,145.71,0,0,1-6.25-19.44c-3.4-13.47-5.36-27.26-7.37-41a523.94,523.94,0,0,1-6-71.86c-11.33-8.82-25.81-1.26-25.81-1.26-19.21,31.8-34.15,62.74-42.19,96.35-2.71,11.27-6.35,23-6.93,34.63-.15,3,2.76,7.14,6.41,7.26,2.72.09,8.1-6.73,8.66-6.57h0c-1.84,15.06,12,20.06,18.26,5.6,3.15,15.11,14.49,16.37,20.15,2.51,4.41,13.86,15.12,14.49,21.41,1.26,5,5.67,12,15.75,19.52,7.56C233.66,582.74,233.52,579.53,232.36,576.05Zm-85.14-12.86c-.49,2.73-2.45,4.68-4.4,4.33s-3.11-2.84-2.63-5.58,2.45-4.68,4.39-4.34S147.7,560.45,147.22,563.19Zm14.41,9.87c-2,0-3.51-2.35-3.44-5.13s1.72-5,3.69-4.95,3.51,2.35,3.44,5.13S163.61,573.11,161.63,573.06Zm19,2.5c-2,.17-3.75-1.94-4-4.72s1.17-5.15,3.13-5.32,3.75,2,4,4.71S182.62,575.39,180.66,575.56Zm19.94,3c-2,.09-3.67-2.1-3.79-4.87s1.38-5.11,3.35-5.19,3.66,2.09,3.78,4.87S202.57,578.43,200.6,578.51Zm22.36-.25c-1.87.62-4.1-1-5-3.66s-.08-5.28,1.79-5.9,4.1,1,5,3.65S224.83,577.63,223,578.26Z"/><path class="cls-3" d="M232.36,576.05c-.5-1.54-1.21-3.13-1.9-4.83a145.71,145.71,0,0,1-6.25-19.44c-3.4-13.47-5.36-27.26-7.37-41-.44-2.92-.84-5.85-1.23-8.78-.32-2.42-.62-4.83-.92-7.25-.06-.51-.13-1-.19-1.52a496.83,496.83,0,0,1-3.6-52.94h0c-3.17,16.58,2.25,58.44,5.33,83.64-8.24-.26-15.43-.31-15.43-.31L147,518.87c-1.53,5-2.93,10-4.15,15.15-.29,1.18-.58,2.38-.89,3.58,4,1.25,41.8,12,77.71,6.8,3.46,18.49,13.85,35,4.41,38.42-5.43,2-13.54-12.91-13.54-12.91s-1.89,11.33-9.76,13.22-11-12.59-11-12.59-1.58,10.07-10.08,11-8.81-12.91-8.81-12.91-1.89,10.7-10.71,11-8.18-14.8-8.18-14.8-5,6.93-9.45,7.87-4.41-3.78-4.41-3.78l-1.93,1.63h0a8.31,8.31,0,0,0,.86,1.88l0,.06a8,8,0,0,0,1.32,1.59l.1.1a7.73,7.73,0,0,0,.77.62l.11.07a6,6,0,0,0,.78.44l.12.06a5.44,5.44,0,0,0,.88.32l.19,0a5.27,5.27,0,0,0,1,.13c2.72.09,8.1-6.73,8.66-6.57h0c-1.84,15.06,12,20.06,18.26,5.6,3.15,15.11,14.49,16.37,20.15,2.51,4.41,13.86,15.12,14.49,21.41,1.26,5,5.67,12,15.75,19.52,7.56C233.66,582.74,233.52,579.53,232.36,576.05Zm-41.53-99.13c6.55.82,12.67-4.79,13.65-12.55S201,449.64,194.39,448.8s-12.66,4.79-13.65,12.55S184.27,476.08,190.83,476.92Z"/><path class="cls-17" d="M202.19,462.33c-1.29,7-7.18,11.81-13.17,10.71s-9.8-7.68-8.51-14.69,7.19-11.81,13.17-10.71S203.48,455.32,202.19,462.33Z"/><path class="cls-18" d="M197.85,459.66c-.93,5-5.15,8.45-9.43,7.66s-7-5.48-6.09-10.5,5.15-8.45,9.43-7.66S198.77,454.65,197.85,459.66Z"/><path class="cls-19" d="M197.27,466.63a3.79,3.79,0,0,1-4.13,3.36c-1.88-.34-3.07-2.41-2.67-4.61a3.5,3.5,0,1,1,6.8,1.25Z"/><path class="cls-15" d="M108.44,514.28c11.34,10.5,32.33,18.47,47,21.41,22.67,4.2,45.76,6.3,68.43,1.68,26.44-5.45,39.88-22.25,41.14-49.12A42.9,42.9,0,0,0,255,475.66a25.32,25.32,0,0,0-14.27-5c-3.36,15.54-10.5,25.61-24.35,34-10.07,5.88-21,6.3-32.32,6.3-18.48,0-39.89-2.52-56.68-11.34l-7.55-4.2-13.86,5.88-.84,10.08Z"/><path class="cls-10" d="M108.44,514.28c11.34,10.5,32.33,18.47,47,21.41,22.67,4.2,45.76,6.3,68.43,1.68,26.35-5.44,39.78-22.14,41.12-48.84-2.35,15.15-12.17,33.53-44.06,40.87-58.35,13.43-110.83-20.57-110.83-20.57l-4.72-1.34-.32,3.86Z"/><path class="cls-16" d="M119.78,495.39l-13.86,5.88-.52,6.22,4.72,1.34A146.67,146.67,0,0,0,131,519.38c-.53-2.78-4.33-6.28-6.45-8,1.81.31,12.73,2.31,13.34,0,.53-2.08-6.47-5.92-7.57-6.65,2.9-.24,5.85-.14,8.78-.18a80.49,80.49,0,0,1-11.75-5Z"/><path class="cls-12" d="M131.05,520.1a3.58,3.58,0,0,0-.07-.72,146.67,146.67,0,0,1-20.86-10.55l-4.72-1.34-.32,3.86,3.36,2.93a68.36,68.36,0,0,0,14.3,9.73c-1.44-1.82-3.28-3.56-4.49-5.14C122.52,519.47,126.59,520.32,131.05,520.1Z"/><path class="cls-11" d="M161.33,510.15a152.3,152.3,0,0,0,37.74.59c11.17-1.36,21-6.59,29-14.43,7.09-7,11-16,12.92-25.61.08-.37-.47-.53-.56-.15-2.34,9.37-6.29,18-13.12,25-8.52,8.68-19.36,13.36-31.39,14.46a159.82,159.82,0,0,1-33.51-1c-11.91-1.47-24.11-4.39-35-9.52a.07.07,0,0,0-.07.12C137.87,505.6,149.35,508.58,161.33,510.15Zm103.4-21.9c-1.15,13-4.73,25.79-14.21,35.26-11,11-27.27,14.07-42.2,15.39a183,183,0,0,1-56.83-4.51c-15-3.54-31.31-9.81-43-20.13a0,0,0,0,0,0,0c11,10.33,25.91,16.25,40.3,20.21,17.88,4.93,37.51,6.69,56,5.88,14.85-.65,30.7-3.31,42.82-12.5,9.59-7.27,15.17-18.36,17-30.11a70.86,70.86,0,0,0,.83-9.54C265.33,487.87,264.76,487.89,264.73,488.25Z"/><path class="cls-13" d="M73.6,461l.11.78c-5.71.46-11.11,2-14.6,5.52l1.17,1.5q-2.78-.45-5.58-.87c1.25,6.86,15.47,11.86,21.86,14.41l.19,1.33c5.66,11.34,14.48,27.71,29,27.71L107,512.6c3.78-7.55,9.45-13.85,18.26-13.85l1.26-.63C115.79,482.38,98.78,446.49,73.6,461Z"/><path class="cls-2" d="M78.32,479.55c-10.39-1.58-23-10.08-23-10.08l-.08.06c3,6,15.43,10.44,21.3,12.78l.19,1.33c5.66,11.34,14.48,27.71,29,27.71L107,512.6c.6-1.19,1.25-2.34,1.94-3.45h0C90.6,506.94,78.32,479.55,78.32,479.55Z"/><path class="cls-14" d="M125.23,498.47c-8.78-.71-15.17,6.75-18.31,14.11a.06.06,0,0,0,.1,0,40.25,40.25,0,0,1,6.89-8.9c3.25-3,7-4.13,11.32-4.7A.28.28,0,0,0,125.23,498.47ZM73.45,460.71a.3.3,0,0,0,.3.52c5.72-2.68,11.35-4,17.54-2.09,5.74,1.76,10.51,5.95,14.54,10.25,8.11,8.65,13.77,19.18,20.63,28.75a0,0,0,1,0,.07,0C116.31,482.05,98.09,444.56,73.45,460.71Zm-14.21,6.77c.34-.24.68-.46,1-.68a.19.19,0,0,0,.22,0c8.53-4.42,18-2.12,26.34,1.72,0,0,0,0,0,0-6-3.14-14.6-6.19-21.71-4.34A29.15,29.15,0,0,1,74,462.09,62,62,0,0,1,90,463c.11,0,.17-.16,0-.18a58.06,58.06,0,0,0-16.83-1.34c-4.8.39-11,1.69-14.22,5.66C58.78,467.29,59,467.65,59.24,467.48Zm17.57,14.65c-6.4-2.62-13.32-4.94-18.65-9.53a11.65,11.65,0,0,1-2.66-3.3c-1.08-2,1.59-.79,2.65-.63l4.66.73c5.29.85,10.58,1.78,15.81,3,.09,0,.13-.11,0-.14-7.88-2.06-15.92-2.92-23.86-4.64a.32.32,0,0,0-.39.39c.92,4.06,4.86,6.58,8.23,8.52,4.43,2.56,9.29,4.29,14.05,6.13C77,482.75,77.11,482.26,76.81,482.13Zm29,28.85c-3.41-.68-6.37-1-9.49-2.75a30.92,30.92,0,0,1-8.3-7.16c-4.54-5.23-7.87-11.46-11-17.58-.17-.34-.68,0-.51.3,3.31,6.8,6.86,13.53,11.88,19.25,4.07,4.63,10.87,9.69,17.44,8.67C106.18,511.65,106.16,511.06,105.81,511Z"/><path class="cls-20" d="M67.93,360.22c-3.78-5.67-8.19-13.23-8.19-20.15,0-13.23,10.71-13.23,18.89-5Z"/><path class="cls-21" d="M81.15,350.14c-1.89,16.37-13.85,37.78-32.11,39C60.42,383,64,374.57,65.63,362.41c1.89-13.68,6-28.71,2.93-42.49l16.37-4.41Z"/><path class="cls-22" d="M68.48,319.94c2.67,14.14-1.22,28.41-3.23,42.37A45.7,45.7,0,0,1,61,377.17c-2.67,5.15-7.16,8.88-12.15,11.67a.4.4,0,0,0,.2.74c18.68-1.64,30.82-22.33,32.35-39.44,0-.26-.42-.32-.46-.06C78.3,366.68,67.87,387.22,49,388.79c.07.25.13.49.2.73,10-5.54,14.68-14.14,16.49-25.21,2.36-14.46,6.23-29.82,2.91-44.41a.08.08,0,0,0-.16,0Z"/><path class="cls-13" d="M323.59,316.14s6.93,12.59-1.89,20.78-23.3,13.22-23.3,13.22l-8.18,10.08c-20,24.56-50.93,46.85-81.87,53.52-40.71,8.79-86.4,4.51-120.27-23.29-8.58-7.05-15.18-16.74-17.63-27.71,0,0-1.26-12.6,2.52-23.3s0-30.23,0-30.23l39-88.79,56-11.33,57.31,22.67Z"/><path class="cls-23" d="M245.51,334.4a27.08,27.08,0,1,0,27.07,27.08A27.07,27.07,0,0,0,245.51,334.4Z"/><path class="cls-24" d="M109.49,361.48c0-15-8.74-27.08-19.52-27.08s-19.52,12.12-19.52,27.08c0,.49,0,1,0,1.47a50.05,50.05,0,0,0,14.36,24.64,14.54,14.54,0,0,0,5.11,1C100.75,388.56,109.49,376.43,109.49,361.48Z"/><path class="cls-25" d="M260,338.49c-.1-.77-1.27-.79-1.25-.07a192.43,192.43,0,0,0-24.17-1.21h-.09l-3,0h-.21l-2.57.07h-.62c-.92,0-1.84.06-2.76.1h-.41l-2.71.13-.43,0c-.89,0-1.77.09-2.65.15l-.47,0-2.61.17-.46,0-.73,0-.76.06-1.11.08-.43,0c-.39,0-.77.06-1.15.09l-.71,0-.36,0h0l-.36,0-.35,0-1.69.16-.46,0-.49,0-.27,0c-.74.07-1.46.13-2.18.21l-.22,0h0l-.25,0-.2,0-2.05.21h0l-.56.07h-.15c-.9.1-1.79.19-2.67.3h0c-10.9,1.23-19.65,2.64-24.05,3.41l-2.85.15a3.45,3.45,0,0,0-1.05-.63c-9.76-4-21.71-3.36-31.5.43a.67.67,0,0,0-.44.78c.05.33.08.69.11,1a138.23,138.23,0,0,0-14.54-.9h0c-2.28,0-4.55,0-6.78,0l-.65,0c-1,0-2,.06-3.06.11H113c-1,0-1.9.1-2.84.15l-.38,0h-.11l-.63,0-2.32.16h-.18l-.78.06-.25,0-3,.26-.58.05-3,.31-.27,0-2.69.3-.39.05-2.72.34h0c-6.29.83-10.78,1.67-12.33,2a.63.63,0,0,0-1.24.12c-.42,12.78,5.44,26.84,17.77,32,9.67,4,23.26,2.73,31.6-3.76,6.7-5.21,9.9-13.16,11-21.38,0-.38.08-.77.12-1.16a5.05,5.05,0,0,1-1.58-.9,3.15,3.15,0,0,1-.06-4.45,2.92,2.92,0,0,1,1.9-.9c0-1.14-.1-2.27-.23-3.39a50.33,50.33,0,0,1,12.47-2.7,41.29,41.29,0,0,1,12.05.6c1.34.26,6,.95,6.46,2.22a50.73,50.73,0,0,0,8.4,13.88c14.89,18,42.34,23,63.26,12.88C254.19,365.12,261.68,351.61,260,338.49Z"/><path class="cls-25" d="M128,400.93a12.15,12.15,0,0,1,2.56-14c.07-.07,0-.16-.1-.11-2.22,1.77-3.92,3.45-4.48,6.31-.52,2.64.9,5.52,2,7.82,0,0,0,0,0,0Z"/><path class="cls-25" d="M197.82,385.9a10.65,10.65,0,0,1,4.23,14.58,0,0,0,0,0,.07.06c4.77-5,1-12-4.26-14.71,0,0-.08.05,0,.07Z"/><path class="cls-25" d="M133.22,254.88c12.31-3.66,25.22-3,37.73-1.16.18,0,.26-.22.08-.27-12.28-3.29-26-3.29-37.83,1.37,0,0,0,.07,0,.06Z"/><path class="cls-25" d="M141.22,247.11a52.76,52.76,0,0,1,20.07-.64.22.22,0,0,0,.11-.42c-6.4-2.48-13.94-1.09-20.21,1-.06,0,0,.11,0,.09Z"/><path class="cls-26" d="M139.3,399.47s12.17,10.7,23.93,10.7,21.41-8.39,21.41-8.39l-16.17,4.41-12.38-.84Z"/><path class="cls-27" d="M196.39,395.48c-22,14.48-46.6,14.48-63.6-.63,0,0,13.43,8,27.91,8.4C177.92,403.67,196.39,395.48,196.39,395.48Z"/><path class="cls-28" d="M132.77,394.87c8.39,7.62,18.07,11.81,29.45,12.14,11.88.34,24.75-4.44,34.23-11.43a.12.12,0,0,0-.12-.2c-10.51,5.91-20.93,10.05-33.15,10.13a47.72,47.72,0,0,1-30.37-10.68s-.07,0,0,0Z"/><path class="cls-29" d="M294,346.68c1.88-6.93,18.26-32.75,28.65-20.78,0,0,1.88,13.22-24.88,22Z"/><path class="cls-30" d="M322.73,325.81c-5.35-6.13-11.73-3.16-16.93,1.73s-10.55,12-12.25,19a.46.46,0,0,0,.89.24,53.58,53.58,0,0,1,8.16-13.95.46.46,0,0,0,.36.24c3.7.68,6.09,3.9,4.49,7.56-.05.11.1.2.16.09,2.52-3.91,0-8-4.27-8.8,5.83-7,13.32-12.11,19.22-5.95C322.67,326.1,322.84,325.93,322.73,325.81Z"/><path class="cls-31" d="M292.1,320.55l.38-3.87A54.57,54.57,0,0,0,308,302.77l-82.67-71-57.31-22.67-56,11.33L73,309.21s2.54,13.16,1.36,23.79c10.3-4,37.77-17,40.83-42.05,3.78-30.86,12.59-57.93,34-56.67s32.12,9.44,41.56,32.11c8.44,20.26,51.58,62.14,87.18,56-1.41,17.47,3.35,35.54,6.33,44.79q3.13-3.44,6-6.94l4.61-5.68c-1.23-4.29-2.44-8.63-2.73-10.06C291.48,341.33,292.1,320.55,292.1,320.55Z"/><path class="cls-32" d="M292.1,320.55l.38-3.87c1.11-.68,2.16-1.38,3.17-2.1l1.87-20.83-62.77-53.92-10.48-8.5-56.22-22.24-56,11.33L74.52,305.68l-.85,8a99.78,99.78,0,0,1,1,12c7.26-1.91,29.61-10.37,34.86-42.94,6.3-39,18.26-55.42,34.63-52.9l12.6-.63s20.15-1.26,39,32.74,51,64.23,86.27,51c0,0-1.89,32.75,5.67,39l4.14-12.44C291.75,332.44,292.1,320.55,292.1,320.55Z"/><path d="M186.94,324.64s3.47-31.8,26.45-32.12c0,0,26.13.63,33.38,32.75,0,0-1,2.83-2.21,3.46Z"/><path class="cls-33" d="M246.13,326.21c-6-12.91-17.94-30.85-34.31-29.91-13.86.95-24.25,17.63-24.88,30.54,0,0,7.25,22.36,28.66,22S246.13,326.21,246.13,326.21Z"/><path d="M187,326.84c1.55-13.87,12.52-30.94,28.15-29.72,15.39,1.19,23.93,17.58,30.76,29.23.15.27.61.09.51-.21A62.1,62.1,0,0,0,234,306.2c-5.16-5.67-11.84-10-19.63-10.64-16-1.29-27.22,17.18-27.42,31.28,0,.06.08.06.09,0Z"/><path d="M126.48,331.22s-5-29.29-21.86-28.15c0,0-19,2.21-21.8,32.46,0,0,.92,2.57,1.89,3.08Z"/><path class="cls-33" d="M83.36,336.37C86.71,324,94,306.62,106.07,306.48c10.2,0,19.1,14.85,20.58,26.79,0,0-3.52,21.19-19.19,22.23S83.36,336.37,83.36,336.37Z"/><path d="M126.62,333.27c-2.23-12.77-11.59-27.93-22.92-25.83-11.14,2.07-16.09,17.81-20.16,29-.09.26-.44.12-.38-.17A61.82,61.82,0,0,1,90.68,317c3.32-5.58,7.86-10,13.5-11.1,11.6-2.18,21.25,14.25,22.51,27.33,0,.05-.06.05-.07,0Z"/><path class="cls-34" d="M231.44,322.85c0,13.72-9.36,24.84-20.91,24.84s-20.91-11.12-20.91-24.84S199,298,210.53,298,231.44,309.14,231.44,322.85Z"/><path class="cls-35" d="M229.27,322.85c0,12.29-8.39,22.26-18.74,22.26s-18.73-10-18.73-22.26,8.39-22.25,18.73-22.25S229.27,310.57,229.27,322.85Z"/><path class="cls-36" d="M210.53,345.11c10.33,0,18.71-9.94,18.73-22.2-2.59-6.38-7.1-11.4-13.5-8.46-4.82,2.21-8.09,8.33-10.35,13.58-2.73,6.34-5.68,9.6-10.86,6.39C197.84,340.82,203.76,345.11,210.53,345.11Z"/><path class="cls-37" d="M223.78,322.85c0,8.69-5.93,15.74-13.25,15.74s-13.24-7-13.24-15.74,5.93-15.73,13.24-15.73S223.78,314.17,223.78,322.85Z"/><path class="cls-33" d="M223.55,316.65a2.93,2.93,0,1,1-2.89-3.43A3.19,3.19,0,0,1,223.55,316.65Z"/><path class="cls-38" d="M212.55,313a2,2,0,1,1-2-2.39A2.24,2.24,0,0,1,212.55,313Z"/><path class="cls-39" d="M122.53,331c0,13.11-7.2,23.75-16.09,23.75S90.35,344.12,90.35,331s7.2-23.76,16.09-23.76S122.53,317.89,122.53,331Z"/><path class="cls-40" d="M120.86,331c0,11.75-6.46,21.27-14.42,21.27S92,342.76,92,331s6.45-21.28,14.41-21.28S120.86,319.25,120.86,331Z"/><path class="cls-41" d="M106.44,352.28c8,0,14.4-9.5,14.41-21.22-2-6.11-5.46-10.9-10.39-8.09-3.71,2.11-6.22,8-8,13-2.1,6.07-4.37,9.18-8.36,6.12C96.68,348.19,101.23,352.28,106.44,352.28Z"/><path class="cls-42" d="M116.63,331c0,8.3-4.56,15-10.19,15s-10.19-6.74-10.19-15S100.81,316,106.44,316,116.63,322.7,116.63,331Z"/><path class="cls-33" d="M116.45,325.07c0,1.81-1,3.28-2.22,3.28s-2.22-1.47-2.22-3.28,1-3.28,2.23-3.28S116.45,323.26,116.45,325.07Z"/><path class="cls-38" d="M108,321.6c0,1.27-.69,2.29-1.55,2.29s-1.55-1-1.55-2.29.7-2.29,1.55-2.29S108,320.34,108,321.6Z"/><path class="cls-43" d="M184.42,267.65s32.12-4.41,63.61,20.15c0,0-18.9-29-63.61-27.08Z"/><path class="cls-44" d="M122.86,273.82s-21.55-3-40.75,22.91c0,0,10.57-29.73,40.29-29.83Z"/><path class="cls-45" d="M259.36,336.29c-31.93-4-73.47,2.47-85,4.48l-3.91.2c.26.12.53.23.79.36,0,0,12,34.63,52.27,31.48S259.36,336.29,259.36,336.29ZM79.9,345.74S78.63,381,111.38,379.11c29.06-1.68,28.36-30.11,27.84-36.5C111.64,339.17,79.9,345.74,79.9,345.74Z"/><path class="cls-46" d="M193.23,338c4.49,5.55,11.65,11.07,22.37,10.91,12.23-.18,20.45-7.55,25.25-13.84A343.47,343.47,0,0,0,193.23,338ZM88,344.33c4,5.52,10.58,11.76,19.47,11.17s14-7.81,16.59-13.87A229,229,0,0,0,88,344.33Z"/><path class="cls-47" d="M193.91,337.88c3.82,5.95,9.83,9.81,16.62,9.81,7.79,0,14.58-5.07,18.18-12.57C216.11,335.48,203.85,336.65,193.91,337.88Zm-87.47,16.88c6.3,0,11.74-5.36,14.38-13.14a227.41,227.41,0,0,0-28,2C95.68,350.31,100.7,354.76,106.44,354.76Z"/><path class="cls-48" d="M204.28,336.72a11.54,11.54,0,0,0,6.25,1.87,11.82,11.82,0,0,0,7.76-3C213.44,335.89,208.73,336.29,204.28,336.72Zm-97.84,9.33c2.76,0,5.25-1.62,7.09-4.25-4.76.21-9.3.57-13.41,1A8.39,8.39,0,0,0,106.44,346.05Z"/><path class="cls-49" d="M79.26,345.74c-.42,12.78,5.44,26.84,17.77,32,9.67,4,23.26,2.72,31.6-3.76,6.7-5.22,9.9-13.17,11-21.39a43.51,43.51,0,0,0,.09-11.4l-.45.77a49.85,49.85,0,0,1,13-2.86,40.94,40.94,0,0,1,12.05.59c1.34.27,6,1,6.46,2.23a50.88,50.88,0,0,0,8.4,13.88c14.89,18,42.34,23.05,63.26,12.88,11.79-5.73,19.28-19.24,17.59-32.36-.1-.8-1.36-.81-1.26,0,1.79,13.89-6.68,27-19.32,32.34s-28.87,5.13-41.59-.29a49.2,49.2,0,0,1-21.56-18.59,50.64,50.64,0,0,1-3.66-6.66c-.66-1.45-.59-2.15-2.18-2.8-9.76-4-21.71-3.37-31.5.43a.66.66,0,0,0-.44.77,47.15,47.15,0,0,1-.82,15c-2.21,10.08-8.72,17.93-18.8,20.8-11.33,3.23-24.66.84-31.87-9-4.21-5.77-6-13.19-6.42-20.23,0-.77-.07-1.55,0-2.31s-1.23-.82-1.26,0Z"/><path class="cls-50" d="M198.63,346c7.07,9.1,21.9,13.81,32.46,8a.13.13,0,0,0-.1-.23c-5.84,1.57-11.31,2.28-17.28.93a29.35,29.35,0,0,1-14.94-8.86c-.09-.1-.23,0-.14.15Z"/><path class="cls-50" d="M121.83,350.55c-3.49,9.36-11.77,11.61-21,12a.2.2,0,0,0,0,.39c8.35,1,19.8-2.85,21-12.37,0-.05-.07-.05-.09,0Z"/><path class="cls-51" d="M154.83,381.63c-9.44,5.66-28.34,4.4-30.23-9.45-1.89-11.34,13.86-10.7,15.11-21.41,0,0,8.19,5,11.34,13.85A73.49,73.49,0,0,1,154.83,381.63Z"/><path class="cls-52" d="M126.49,376.38c2.07,3.08,7.62,2.93,10.86,2.94,4.52,0,8.51-1.42,12.86-1.89,3.58-.39,8.13.16,8.83,4.66.84,5.5-5.85,11-10.93,10.66s-8.47-3.73-10.7-7.76c0,0-8.61-2.73-10.71-6.72Z"/><path class="cls-53" d="M139.63,350.75c-1.39,6.31-7.85,8.3-12.36,12s-4.52,9-2.36,13.93c4.5,10.3,21.94,11.36,30.06,5.16.23-.17.1-.65-.22-.51-9.55,4-25.61,4.66-28.92-8-1.66-6.31,2.8-9.31,7.35-12.48,3.47-2.41,6.28-5.75,6.63-10.1a.09.09,0,0,0-.18,0Z"/><path class="cls-54" d="M290.52,13.87c-23.77-7.18-52.33,2.3-73.35,13.86C183.58,46.2,158.4,93.22,202.9,114.21L302,127.65c44.5-5.88,61.29-44.5,61.29-44.5C338.91,59.64,321.73,23.29,290.52,13.87Z"/><path class="cls-55" d="M290.52,13.87c-15.07-4.55-32.06-2.4-47.84,2.72-19.46,25.65-24.67,59-24.67,59,25.2-40.31,70.76-54.08,83.24-57.19A56.17,56.17,0,0,0,290.52,13.87ZM217.17,27.73a82.12,82.12,0,0,0-12.86,8.81c-1.4,10.89-1.35,22.76,1.95,34,0,0,6.89-26.65,17.62-46.3C221.58,25.38,219.33,26.55,217.17,27.73Zm95.4-1.59c-34.4,6.34-66.86,35.18-66.86,35.18,39.41-16.15,73.81-14.91,87.6-13.47C326.77,39.85,320,32.28,312.57,26.14Z"/><path class="cls-56" d="M208.36,33.4c-1.31,7.46-2.32,17.17-.63,24.56l10.21-30.64-.77.41A81.28,81.28,0,0,0,208.36,33.4Zm42.83-19.23A100,100,0,0,0,232.28,50.4s32.77-27,54.12-37.58C275.13,10.35,263,11.28,251.19,14.17Zm64.75,14.89c-8.36,1.43-25.57,5.57-41.47,16.93,0,0,34.13-5.6,53.64-4.33A145.61,145.61,0,0,0,315.94,29.06Z"/><path class="cls-57" d="M202.9,114.21,302,127.65c44.5-5.88,61.29-44.5,61.29-44.5-3.49-3.37-6.83-7-10.08-10.78C338.39,69.88,322.11,62,300.29,61.32,273.42,60.48,260,86.51,219.69,89c-38.77,2.42-30.15-34.77-29.43-37.61C174.68,72.77,172.15,99.71,202.9,114.21Z"/><path class="cls-58" d="M202.9,114.21,302,127.65c44.5-5.88,61.29-44.5,61.29-44.5l-1-1C349,81.15,337.1,75,323.8,72.05c-12.95-2.91-28.71-4.25-41.16,0C268.32,76.88,257.94,87.3,243,90.68c-14.35,3.25-30.63,4.51-44.29-2.69S183.09,69.86,185.9,58.14C174.51,78.16,175.29,101.19,202.9,114.21Z"/><path class="cls-59" d="M363.78,82.63c-20.85-20.43-34.9-48.89-60.57-64.09-13.49-8-29.17-9.24-44.41-6.83-16,2.53-32.18,9-46,17.45C197.35,38.68,183.54,54.07,179.08,72a35.67,35.67,0,0,0,1.82,23.43c4.22,9.32,12.76,15.08,21.75,19.21.57.26,1.07-.57.5-.85-11.44-5.74-21.39-15.48-22.88-28.68C179,73.45,184.17,62,190.71,52.64c7.58-10.8,18-19.3,29.53-25.49,15.68-8.4,33.32-14.47,51.23-14.91,16.43-.39,30.82,5.93,43,16.6,11.31,9.89,20.32,22.16,29.65,33.84,4.74,5.92,9.58,11.74,14.83,17.22.41.42,3.28,3.74,3.65,2.89l-.12.27c-.29.62-.6,1.24-.92,1.85A81.79,81.79,0,0,1,348.67,103a78,78,0,0,1-46.76,24.43c-.31,0-.18.51.12.47a81.16,81.16,0,0,0,47.49-24C355.17,98,360.57,91,363.89,83.52A.75.75,0,0,0,363.78,82.63Zm-54.26,3.25c-4.3-9-15.5-12.5-24.54-9.15-8.69,3.21-15,11.69-16.87,20.56-2.21,10.31,3.11,19.5,12,24.52.06,0,.11,0,.05-.08-9.23-5.66-13.41-15.31-10.37-25.79,2.53-8.71,9.91-16.47,18.88-18.42,9.61-2.11,23,5.79,20.54,16.82-1.39,6.24-9.81,7.24-14.56,4.42a4.85,4.85,0,0,1-2.24-5.5c.88-3,4.23-1.8,6-.52.44.31.84-.4.42-.71-2.17-1.59-5.81-2.55-7.11.67s1,6.44,4,7.81c4.2,1.95,10.13,1,13.13-2.58C311.53,94.66,311.26,89.53,309.52,85.88Z"/><path class="cls-60" d="M295.83,319l.26.13c7.56-8.4,19.32-9.24,27.71-2.52,0,0,0-17.63,6.72-26s27.7-62.13,27.7-77.25-34.42-136-188.07-106.62c0,0-86.48,0-136,75.56,0,0-16.8,60.45,15.11,110l36.94-22.67s4.2-15.11,5-18.47,24.35-31.91,24.35-31.91l32.74,6.72L170.15,220s26,8.4,28.55,9.24,73.88,61.29,76.4,60.45c1.52-.5,8.22,2.34,13.3,4.68,2.93,20.64-7.77,41.84.14,60.81,6.71,17.63,28.54,24.35,46.18,23.51C304.66,372.09,291.89,345.66,295.83,319Zm-1.41-21.7-.27,3.2L291,295.58C293,296.55,294.42,297.25,294.42,297.25Z"/><path class="cls-61" d="M30,210.6c-1.26,22.09,1.21,53.59,19.25,81.61l36.94-22.67s.93-3.35,2-7.24C59.26,255.66,35,241.59,30,210.6ZM295.83,319l.26.13c7.56-8.4,19.32-9.24,27.71-2.52,0,0,0-17.63,6.72-26s27.7-62.13,27.7-77.25v-.07c-10.94,5.25-24.33,5.95-40.3,5.95-27.7,0-48.69,16-73,28.55-5.1,2.48-10,4.71-14.87,6.74,20.48,16.79,43.68,35.71,45.09,35.24s8.22,2.34,13.3,4.68c2.93,20.64-7.77,41.84.14,60.81,6.71,17.63,28.54,24.35,46.18,23.51C304.66,372.09,291.89,345.66,295.83,319Z"/><path class="cls-62" d="M358.22,213.21c-10.94,5.25-24.33,5.95-40.3,5.95-27.7,0-48.69,16-73,28.55-5.1,2.48-10,4.71-14.87,6.74l3.57,2.93,22.21-2.11S275.1,228.4,302,225.88c19.86-1.86,38.79,4.06,53.08,3.9,1.94-6.95,3.17-12.85,3.17-16.5ZM30,210.6a165.41,165.41,0,0,0,.32,23.58c6.11,9.26,22.2,28.24,50.83,27l2-.08C56.49,254,34.73,239.78,30,210.6Z"/><path class="cls-63" d="M240,103.64c17,4.87,33.25,12.44,46.8,23.19,4.89,3.89,14.6,10,5.05,14.29-5.37,2.45-17-3.24-20.2,4.14-4.65,10.73,22.21,28.46,5.09,37-6.71,3.36-18.16-1.86-24.53,2.27-5.93,3.85-2.89,10.45-5.84,16.86-5.5.46-11.41-1.2-16.65-2.37l-5,21.82a13.72,13.72,0,0,0,4.05,5c2.8-11.08,5.47-21.7,18-16.94,3.66,1.39,11.24,8,14.86,7.81,8-.4,6.33-10.2,8.46-16,5.5-14.95,22.86-7.23,35.24-4,6.87,1.8,13.24,4.74,18.68-1,5.19-5.48,2.19-16.69,8-21.24,3.23-2.55,7.65-2.27,12.43-.64C328.71,145.36,297.47,111.25,240,103.64Zm-167,105.74c-.65-6.49,1.22-12.95-.91-17-2.29-4.37-7.54.4-10-3.2-6.37-9.17,6.46-25.79,5.49-36.66-.35-3.93-2-4.35-3.79-4.24a160.65,160.65,0,0,0-26.25,28.93c.88.12,1.65.74,2.21,2.09,2,4.76-.28,15.8,1.39,21.45,1.75,5.93,4.68,3.25,7.71,1.72,5.47-2.76,13.42-9.79,14.36,5.31.36,5.86-1.24,15.55,2.08,16.26,1.49.31,5.26-6,6.92-7.21,5.66-4.26,5.8,6.41,6,17.55a18,18,0,0,0,2.15-4.8l-.12-21.93C77.94,208.62,75.32,210.05,73.07,209.38Z"/><path class="cls-64" d="M142,198.59l1.68-1.68s-8-5-3.36-8.81,16-5.88,14.69-11.76-6.72-8-8.82-12.59S139.09,136,166,109.6c0,0-23.5,11.75-28.12,36.1s3.78,23.92-1.26,33.16-5.88,15.54,4.2,23.09Z"/><path class="cls-65" d="M77.28,212.11c-1.75-1.43-2.71.37-4.08-.06-4-1.26-3.82-5.53-4.22-9.78-.45-4.81-.29-7.43-5-8.71-4.54-1.23-6.58-1.13-7.15-6.63-.58-5.75,4-23.29,1.85-34A160.71,160.71,0,0,0,40.21,173.6a10.84,10.84,0,0,1,1.49,3.59c1.1,4.61,1.12,13.44,3.77,17.22,3.05,4.35,8,.47,12.18.39,12.22-.2,6.86,15.34,10.56,22.19,2.3-.54,4-4.43,7.4-2.78,1.78.86,2.81,4.58,3.87,6.21l-.85-3.36C78.74,215.83,78.28,212.93,77.28,212.11Zm209.07-94.64a55.56,55.56,0,0,1,8.92,8.4,27.62,27.62,0,0,1,5.42,12.29c.42,2.9.54,7.25-2.51,9.11-3.95,2.4-10.22-1.29-14.29,2.11-10.69,8.93,13.63,24.62,2.55,35-8.73,8.15-27.24-3.23-32.22,10.15-1.76,4.73-.46,10.6-6.49,11.25-5.72.61-9.4-3.63-15-.43l-5.59,5.19L227,211c.48.53,1.74,1.79,2.32,2.37,5-4.19,7.28-8.36,14.71-7.29,4.75.68,10.41,7.59,14.71,7.24,4-.33,5.66-6.93,6.82-10,1.72-4.5,3.06-8.44,7-11.43,6-4.57,15.47-3.7,22.77-3.36,10.25.47,22.17,7.19,27.63-5.13,2.45-5.52,1.9-15.37,8.81-17.66,2.23-.74,5.56-.3,8.31.82A133.92,133.92,0,0,0,286.35,117.47Z"/><path class="cls-66" d="M141.72,199.08a6.27,6.27,0,0,1,2.66-2.15.51.51,0,0,0,0-.87c-2.26-1.28-5.18-2.74-4-5.72.81-2.08,1.51-3.4,3.62-4.28,3.52-1.48,7.37-2.14,10.3-4.77,2.61-2.36,2.52-6.35,1-9.25-2-3.69-6.44-5.22-8.47-8.87-2.15-3.88-2-9.12-1.6-13.38a53.58,53.58,0,0,1,4.74-16.21,68.16,68.16,0,0,1,17.91-24.19c.27-.23-.08-.64-.37-.48-8.86,5-15.17,15.67-19.37,24.6s-7.61,20.33-3.69,29.94c1.75,4.33,6.44,6,8.9,9.74,4.05,6.21-4.6,9-8.75,10.52-3.6,1.35-5.29,3.31-5.95,7.18a4,4,0,0,0,1.34,3.68,11.65,11.65,0,0,0,2.9,1.88c.44.22-1.28,2.34-1.37,2.49a.13.13,0,0,0,.23.14Z"/><path class="cls-67" d="M358.4,211.22c-1-8.51-4.13-16.94-7.47-24.76a143.51,143.51,0,0,0-22.47-36.35A133,133,0,0,0,286.1,117c-20.59-10.21-43.53-14.68-66.39-15.18a233.54,233.54,0,0,0-43.77,3.5c-4.22.71-8,1-12.24,1.38a181.15,181.15,0,0,0-47.37,10.64,169.08,169.08,0,0,0-63.76,41.17,162.56,162.56,0,0,0-14.29,17.15c-1.89,2.59-4.13,5-4.89,8.18a150.31,150.31,0,0,0-3.45,22.73c-2.46,29.69,2.83,60.47,19,85.83.22.35.78,0,.55-.32C32.91,265.91,28,234.36,30.85,203.88A139.27,139.27,0,0,1,34.28,183a10.33,10.33,0,0,1,1.78-3c2.49-3.67,5.15-7.23,7.93-10.68a160.39,160.39,0,0,1,15.32-16.49c28.71-27,68.68-43.68,108.08-45.69,7.66-.39,15.19-2.29,22.81-3.17a210.13,210.13,0,0,1,42.18-.79c22.44,1.92,44.48,8.41,63.78,20.13,26.59,16.16,46.89,42.15,57.29,71.38,2.65,7.44,5.25,15.39,4,23.34-1.67,10.71-5.44,21.22-9.06,31.39a325.24,325.24,0,0,1-13.32,32.49,69.23,69.23,0,0,1-5.7,9.7c-3.75,5.37-4.87,12.56-5.54,18.92q-.32,2.93-.36,5.87c0-1.81-6.37-3.74-8.28-4.17-7-1.58-14.11,1.34-19,6.36a77.61,77.61,0,0,1,2.48-11.18c0-.09-.11-.13-.14,0-5,14.28-5.17,30.08,1,44.05a47.59,47.59,0,0,0,13.22,17.4c5.52,4.58,11.8,7.25,18.48,9.33-16.67-1.11-35-6.25-41.92-23.11-8.54-20.78,3.73-43.15-1.39-64.49-.06-.25-.43-.14-.38.1,4.43,22.63-8.86,46.3,1.69,68.05,7.61,15.68,29.27,22.4,45.52,20.48.43-.05.62-.74.11-.83-15-2.61-27.91-13-34.37-26.62-4.75-10-5.8-21.32-4.37-32.26a.32.32,0,0,0,.23-.1c7.39-7.88,18.67-9.09,27.32-2.47.2.15.47-.05.48-.27a67.73,67.73,0,0,1,1.28-12.39,40.57,40.57,0,0,1,3-9.69,50.28,50.28,0,0,1,3.48-5.41c5-7.8,8.35-16.9,11.77-25.47a331.82,331.82,0,0,0,11.89-34.53C357.15,223.42,359.08,217.15,358.4,211.22Z"/><path class="cls-68" d="M290.76,272l1.13-.82c-26.06-2.37-35.44-26.65-46.73-45.77-12.1-20.47-37.75-34.76-61.93-31.71-12.76,1.61-28.28,11.87-34.07,23.74l-6.71,4.2c-20.15-21-44.5-24.35-63,0C67.72,236,67.72,277.1,50.09,283.82l.26.36c-16.12-1.47-33.12-7.44-45.6-12.12a169.66,169.66,0,0,0,8.39,17.63c20.16,30.23,69.69,49.54,87.32,6.72,9.24-21.83,5-87.32,44.51-65.49h7.55c19.31-11.76,31.06,2.52,42,18.47,12.6,20.15,23.51,42,46.18,53.73,33.58,17.64,73-10.91,90.68-39.46C321.05,268.08,306.05,271.37,290.76,272Z"/><path class="cls-69" d="M18.81,282.13c37.79,25.82,51,6.93,51,6.93C49.67,292.84,18.81,282.13,18.81,282.13Zm67.38-62.34a118.15,118.15,0,0,0-11.33,31.49c-3.78,18.26-10.08,25.19-10.08,25.19s12-5.67,19.52-20.78,14.48-57.31,49.75-39C134.05,216.65,105.71,194.6,86.19,219.79Zm160.58,15.75c-12-20.78-40.93-53.53-76.2-32.75,0,0,30.86-3.77,48.49,15.75s22,39.67,51.63,49.74C270.69,268.28,258.73,256.32,246.77,235.54ZM260,275.21c30.23,20.78,61.08-5.67,61.08-5.67C297.77,279,260,275.21,260,275.21Z"/><path class="cls-70" d="M265,296.62c-42.19-1.89-61.71-54.79-81.23-68.64-18.25-12.95-29.88,1.05-31.33,2.94h.05c19.31-11.76,31.06,2.52,42,18.47,12.6,20.15,23.51,42,46.18,53.73,33.21,17.44,72.16-10.28,90.07-38.5C325.71,271.07,302.23,298.28,265,296.62ZM67.93,310.47C37.29,316,11.09,281.7,5.45,273.7a157.45,157.45,0,0,0,7.69,16c20.16,30.23,69.69,49.54,87.32,6.72,9.11-21.51,5.16-85.4,42.8-66.4l-.39-.77C94.38,199,102.56,304.17,67.93,310.47Z"/><path class="cls-71" d="M122.08,228.09c-6.62,4.19-9.77,12.59-11.9,19.75-2.83,9.5-4.18,19.38-5.85,29.13-1.64,9.58-3.57,18.79-8.78,27.16a34.05,34.05,0,0,1-21.31,15.46c-8.7,2-17.89.24-26.1-2.87a73.37,73.37,0,0,1-23.72-15.18A71.92,71.92,0,0,1,15.13,291c-3.9-5.39-6.47-11.86-9.13-18,2.48.46,5.22,2,7.43,2.73,2.93,1,5.89,2,8.85,2.91a160.23,160.23,0,0,0,20,4.93C54,285.6,67,286.09,77.93,280.68c.3-.15,0-.58-.27-.45-8.55,3.72-17.84,4.35-27,3.53,7.9-3.35,11.88-12.26,14.58-19.85,3.82-10.79,5.78-22.16,10-32.81,4.66-11.82,15.31-22.3,27.84-25.2,15-3.47,29,6,39.16,16a.33.33,0,0,0,.47-.47c-9.08-9.73-21.34-17.73-35.11-17.34-12.86.37-24.52,9.64-31,20.28-5.66,9.33-7.55,21-10.49,31.34-2.71,9.53-5.87,23.62-16.06,27.91,0,0,0,0-.06.06-3.16-.3-6.3-.77-9.39-1.34a159.94,159.94,0,0,1-18.07-4.6c-3-.92-5.91-1.91-8.84-2.94-2.52-.89-6.31-1.59-8.38-3.31-.52-.44-1.64,0-1.31.76,3.14,7.57,6.22,15.34,11.25,21.88a77.65,77.65,0,0,0,12.27,12.51c8.82,7.22,19.39,12.73,30.66,14.76,10.26,1.86,21,.16,29.44-6.11,8.33-6.15,13.45-15.92,16-25.78,3.75-14.67,4.67-29.95,9.54-44.35,2-6,5-12.48,10.66-15.84,6.61-4,14.66-1.1,21,1.85a.31.31,0,0,0,.31-.54C138.29,226.32,129.48,223.4,122.08,228.09Zm209.15,35.12c-6.67,2.16-13.14,4.39-20.05,5.76a136.29,136.29,0,0,1-25.57,2.58c-15.66.13-33.41-2.34-45.5-13.19-.36-.32-.88.19-.54.53,11.38,11.17,29.1,13.68,44.34,13.89a135.27,135.27,0,0,0,26-2.3c6.66-1.21,13.9-2.72,20.12-5.67-16.21,24.88-47.56,49.14-78.7,41.64-16.39-3.95-29.3-16.88-38.83-30.12-9.1-12.63-15.73-26.93-25.89-38.8-4.14-4.85-9.15-9.18-15.41-10.93-6.59-1.85-13.26.64-18.81,4.14a.21.21,0,0,0,.21.36c7.46-4.12,15.31-5.33,23-1,6.71,3.75,11.64,10.48,16,16.61,9.07,12.76,15.91,26.85,26.14,38.82,9.89,11.58,23.23,21.22,38.6,23.36,14.54,2,29.11-3.09,41.39-10.56a104.6,104.6,0,0,0,34.06-34.38A.47.47,0,0,0,331.23,263.21Zm-141.54-69c16.24-.11,32.14,7.48,43.9,18.37,19.11,17.7,24,52.05,53,58a43.27,43.27,0,0,0,5.32.7c.08,0,.08-.11,0-.12-15.21-1.87-25.79-11.91-33.76-24.32-7.56-11.76-12.46-24.94-22.48-35a67.21,67.21,0,0,0-39.51-19.11c-15.1-1.74-29.23,3.68-40,14.29a34.18,34.18,0,0,0-7.31,10.25c-.2.44.41.83.66.39A47.6,47.6,0,0,1,189.69,194.24Z"/></g></svg>