<svg id="layer" xmlns="http://www.w3.org/2000/svg" viewBox="0 0 525 19.25"><defs><style>.cls-1{fill:#492b00;}</style></defs><title>41524 [Converted]</title><path class="cls-1" d="M524.75,19.25V1h-.17a27.4,27.4,0,0,0-12.11,2.83C506.56.93,496-.4,496.56,8.1c-.67-4.12-9.11-2.79-6.39,5.84-1.5-2.61-12-11.59-16.84-3.48-1.8-2.6-13.53-6.37-12,4.06-2.71-4.93-8-3.35-10.09.1,6.34-12.36-14.33-17.53-11.57-1-1.5-4.06-8.47-2.7-9.35,3.07.4-4.32-6.87-4.32-11.34.19-1.67-4.56-8.07-6.87-8.8-5-2.33-7.28-11.43-3.48-9.32.29-1.19-1.15-7.12-1.75-10,2a2.89,2.89,0,0,0-1.13,2.26,8.87,8.87,0,0,0-.33,1.57c0-4.05-4.81-9-9.32-4.05-.29-8.77-16.54-11.31-16.24-2.33-1.8-3.76-7.85-1.4-4.29,4.57a45.76,45.76,0,0,0-4.37-3.5c0-.2,0-.41,0-.61,0-2.71-1.84-4.91-4.11-4.91a3.79,3.79,0,0,0-2.95,1.5c-4.61-1.95-9.24-2.31-11.67,1.79-1.81-2.6-13.53-6.37-12,4.06-2.71-4.93-8-3.35-10.09.1,5.39-10.79-14.15-16.69-11.56-1-1.5-4.06-6.47-5.26-9.36-1.28.5-5.4-11-4-14,4.42,4.9-14.27-14.58-15.15-4.9-3.72-2.81-3.17-9-4-12.82-2.36-.45-4.61-4.29-7.62-7.79-3.81-1.5-4.05-20.44-10.08-19.66,1.2-.67-4.12-9.12-2.79-6.39,5.84-1.5-2.61-12-11.59-16.84-3.48-1.8-2.6-13.53-6.37-12,4.06-2.7-4.93-8-3.35-10.08.1,6.33-12.36-14.33-17.53-11.57-1-1.5-4.06-8.47-2.7-9.36,3.07.4-4.32-6.86-4.32-11.34.19-1.66-4.56-8.06-6.87-8.79-5-2.33-7.28-11.43-3.48-9.32.29-1.2-1.15-7.13-1.75-10,2a2.9,2.9,0,0,0-1.14,2.26,8.89,8.89,0,0,0-.32,1.57c0-4.05-4.81-9-9.32-4.05-.3-8.77-16.54-11.31-16.24-2.33-1.81-3.76-7.85-1.4-4.3,4.57a43.36,43.36,0,0,0-4.37-3.5c0-.2,0-.41,0-.61,0-2.71-1.84-4.91-4.11-4.91a3.81,3.81,0,0,0-3,1.5c-4.61-1.95-9.23-2.31-11.67,1.79-1.8-2.6-13.53-6.37-12,4.06-2.71-4.93-8-3.35-10.09.1,5.39-10.79-14.15-16.69-11.56-1C39,9.59,34.05,8.39,31.16,12.37c.36-3.88-5.47-4.26-9.91-1A28.31,28.31,0,0,0-.25,1V19.25Z"/></svg>