<svg xmlns="http://www.w3.org/2000/svg" viewBox="0 0 1000 500"><defs><style>.cls-1{isolation:isolate;}.cls-2{fill:#de731f;}.cls-3{fill:#6d9c7e;}.cls-4{fill:#5c493d;}.cls-5{fill:#665448;}.cls-6{fill:#bcd8e8;mix-blend-mode:multiply;}.cls-7{fill:none;}</style></defs><title>indoorbackground</title><g class="cls-1"><g id="layer_1" data-name="layer 1"><rect class="cls-2" x="-8.5" y="391.73" width="1021.02" height="125.62"/><polygon class="cls-3" points="1012.52 391.73 298.29 391.73 292.2 -2.48 1012.52 -2.48 1012.52 391.73"/><polygon class="cls-3" points="298.29 391.73 -8.5 391.73 -8.5 -2.48 292.2 -2.48 298.29 391.73"/><polygon class="cls-4" points="332.27 -6.02 338.18 389.47 337.63 389.48 331.27 -6.01 332.27 -6.02"/><polygon class="cls-4" points="376.99 -6.02 382.12 389.47 381.56 389.48 375.99 -6.01 376.99 -6.02"/><polygon class="cls-4" points="421.71 -6.02 426.06 389.47 425.5 389.48 420.71 -6.01 421.71 -6.02"/><polygon class="cls-4" points="466.44 -6.02 469.99 389.47 469.44 389.48 465.44 -6.01 466.44 -6.02"/><polygon class="cls-4" points="511.16 -6.02 513.93 389.47 513.37 389.48 510.16 -6.01 511.16 -6.02"/><polygon class="cls-4" points="555.88 -6.02 557.86 389.47 557.31 389.48 554.88 -6.01 555.88 -6.02"/><polygon class="cls-4" points="600.6 -6.02 601.8 389.47 601.24 389.48 599.6 -6.01 600.6 -6.02"/><polygon class="cls-4" points="645.32 -6.02 645.73 389.47 645.18 389.47 644.32 -6.01 645.32 -6.02"/><polygon class="cls-4" points="690.04 -6.02 689.67 389.47 689.11 389.47 689.04 -6.02 690.04 -6.02"/><polygon class="cls-4" points="734.76 -6.01 733.6 389.47 733.05 389.47 733.76 -6.02 734.76 -6.01"/><polygon class="cls-4" points="779.48 -6.01 777.54 389.48 776.98 389.47 778.48 -6.02 779.48 -6.01"/><polygon class="cls-4" points="824.21 -6.01 821.48 389.48 820.92 389.47 823.21 -6.02 824.21 -6.01"/><polygon class="cls-4" points="868.93 -6.01 865.41 389.48 864.86 389.47 867.93 -6.02 868.93 -6.01"/><polygon class="cls-4" points="913.65 -6.01 909.35 389.48 908.79 389.47 912.65 -6.02 913.65 -6.01"/><polygon class="cls-4" points="958.37 -6.01 953.28 389.48 952.73 389.47 957.37 -6.02 958.37 -6.01"/><polygon class="cls-5" points="27.77 -6.03 36.38 389.47 35.67 389.48 26.77 -6 27.77 -6.03"/><polygon class="cls-5" points="67.19 -6.03 75.11 389.47 74.4 389.48 66.19 -6.01 67.19 -6.03"/><polygon class="cls-5" points="106.61 -6.03 113.84 389.47 113.13 389.48 105.61 -6.01 106.61 -6.03"/><polygon class="cls-5" points="146.03 -6.02 152.57 389.47 151.86 389.48 145.03 -6.01 146.03 -6.02"/><polygon class="cls-5" points="185.46 -6.02 191.3 389.47 190.59 389.48 184.46 -6.01 185.46 -6.02"/><polygon class="cls-5" points="224.88 -6.02 230.03 389.47 229.32 389.48 223.88 -6.01 224.88 -6.02"/><polygon class="cls-5" points="264.3 -6.02 268.76 389.47 268.05 389.48 263.3 -6.01 264.3 -6.02"/><polygon class="cls-5" points="-8.5 391.73 298.29 391.73 298.19 384.79 -8.5 384.79 -8.5 391.73"/><polygon class="cls-4" points="298.29 391.73 1012.58 391.73 1012.47 384.79 298.29 384.79 298.29 391.73"/><path class="cls-4" d="M545.24,248.47s-10.53,11.24-24,24.67-24.68,24-24.68,24,10.54-11.24,24-24.67S545.24,248.47,545.24,248.47Z"/><path class="cls-4" d="M611.73,313.35s-6.52-5.47-14.13-12.66-13.43-13.4-13.43-13.4,6.51,5.47,14.12,12.67S611.73,313.35,611.73,313.35Z"/><path class="cls-4" d="M385.09,72.91s-3.71,15-8.87,33.41-9.84,33.14-9.84,33.14,3.71-15,8.87-33.41S385.09,72.91,385.09,72.91Z"/><path class="cls-4" d="M519.29,106.73s-2.95,6.44-7.14,14.07-8,13.59-8,13.59,3-6.43,7.14-14.07S519.29,106.73,519.29,106.73Z"/><path class="cls-4" d="M611.07,126.34s-7.19-6.16-15.64-14.21-14.95-14.94-14.95-14.94,7.19,6.16,15.64,14.21S611.07,126.34,611.07,126.34Z"/><path class="cls-4" d="M601.29,41.11a64.51,64.51,0,0,1-5.89,5.29,63.34,63.34,0,0,1-6.5,4.5,63.5,63.5,0,0,1,5.88-5.29A62.79,62.79,0,0,1,601.29,41.11Z"/><path class="cls-4" d="M803.91,102S791.7,91.82,777.05,78.77s-26.2-24-26.2-24S763.06,65,777.71,78,803.91,102,803.91,102Z"/><path class="cls-4" d="M512.88,350.15a59.1,59.1,0,0,1-5.82,5,59.89,59.89,0,0,1-6.43,4.2,58.57,58.57,0,0,1,5.83-5A59.25,59.25,0,0,1,512.88,350.15Z"/><path class="cls-4" d="M352.71,306.63S346.39,303,338.93,298s-13.23-9.45-13.23-9.45,6.32,3.63,13.78,8.62S352.71,306.63,352.71,306.63Z"/><path class="cls-4" d="M518.88,255.29s-3.5-3.43-7.35-8-6.58-8.69-6.58-8.69,3.51,3.43,7.35,8S518.88,255.29,518.88,255.29Z"/><path class="cls-4" d="M492.84,240.62s-.4-12.86-.29-28.73.71-28.72.71-28.72.4,12.87.29,28.73S492.84,240.62,492.84,240.62Z"/><path class="cls-4" d="M536.23,102.79s-1.48-9.71-2.7-21.75-1.69-21.85-1.69-21.85,1.48,9.71,2.69,21.75S536.23,102.79,536.23,102.79Z"/><path class="cls-4" d="M621.57,276.63s-1.18-9.22-2-20.65-1-20.71-1-20.71,1.18,9.22,2,20.64S621.57,276.63,621.57,276.63Z"/><path class="cls-4" d="M410.37,170.14s-3.34-28.42-6.84-63.54S397.7,43,397.7,43s3.33,28.42,6.83,63.54S410.37,170.14,410.37,170.14Z"/><path class="cls-4" d="M319.69,138s-1.23-11.46-2.13-25.63-1.12-25.68-1.12-25.68,1.23,11.45,2.12,25.62S319.69,138,319.69,138Z"/><path class="cls-5" d="M266.87,138s1.65-17,4.3-38,5.29-37.88,5.29-37.88-1.65,17-4.3,38S266.87,138,266.87,138Z"/><path class="cls-5" d="M189.33,81.4s-3.37-8.94-7-20.15-6-20.46-6-20.46,3.38,8.94,7,20.16S189.33,81.4,189.33,81.4Z"/><polygon class="cls-6" points="505.99 45.15 804.87 204.61 806.12 188.54 809.28 185.32 808.47 120.1 936.76 133.16 971.9 162.74 944.61 398.88 1016.37 431.86 1016.37 -6.02 -17.92 -6.02 -17.92 402.5 483.83 397.82 167.76 291.98 167.76 241.22 127.8 258.06 30.97 181.25 25.74 183.36 25.23 294.27 16.37 291.98 -8.5 303.78 -6.43 169.34 294.23 34.84 505.99 45.15"/><polygon class="cls-6" points="-17.92 425.15 100.17 489.3 661.38 488.28 1020.46 456.72 1016.37 530.15 -17.92 530.15 -17.92 425.15"/><polygon class="cls-6" points="631.01 316.47 662.37 392.71 566.01 392.71 559.33 316.78 631.01 316.47"/><path class="cls-6" d="M938.62,29.54l-.06,0,.53-32H806.45l.47,28.67a3.64,3.64,0,0,0-2.42,2.5,10.59,10.59,0,0,0-.34,3.64c.06,3.18-1.44,20.56,2.7,20.47a4,4,0,0,0,.5-.06l.29,18a2.76,2.76,0,0,0-1.34-.11c-2.25.37-3.12,3.09-3.48,5.34a81.11,81.11,0,0,0-1.1,16.69l138.13,23.62a71.64,71.64,0,0,0-.2-8.13c-.2-2.56-.41-7.26-2.27-7.3l.41-24.73a2.58,2.58,0,0,0,1.78-1.4,10.39,10.39,0,0,0,.95-3.36C941.63,64.68,947.7,28.15,938.62,29.54Z"/><rect class="cls-7" x="2.01" y="5.79" width="1000" height="500"/></g></g></svg>