<svg xmlns="http://www.w3.org/2000/svg" viewBox="0 0 1000 500"><defs><style>.cls-1{isolation:isolate;}.cls-2{fill:#c7995e;}.cls-3{fill:#665448;}.cls-4{fill:#7d6454;}.cls-5{fill:#5c493d;}.cls-6{fill:#bcd8e8;mix-blend-mode:multiply;}.cls-7{fill:none;}.cls-8{fill:#eab692;}.cls-9{fill:#4c8b8f;}</style></defs><title>indoorbackground</title><g class="cls-1"><g id="layer_1" data-name="layer 1"><rect class="cls-2" x="-10.51" y="385.94" width="1021.02" height="125.62"/><polygon class="cls-3" points="1010.51 385.94 296.28 385.94 290.19 -8.28 1010.51 -8.28 1010.51 385.94"/><polygon class="cls-4" points="296.28 385.94 -10.51 385.94 -10.51 -8.28 290.19 -8.28 296.28 385.94"/><polygon class="cls-5" points="330.26 -11.82 336.17 383.68 335.62 383.69 329.26 -11.8 330.26 -11.82"/><polygon class="cls-5" points="374.98 -11.81 380.11 383.68 379.55 383.69 373.98 -11.8 374.98 -11.81"/><polygon class="cls-5" points="419.7 -11.81 424.04 383.68 423.49 383.68 418.7 -11.8 419.7 -11.81"/><polygon class="cls-5" points="464.42 -11.81 467.98 383.68 467.42 383.68 463.42 -11.8 464.42 -11.81"/><polygon class="cls-5" points="509.14 -11.81 511.91 383.68 511.36 383.68 508.14 -11.8 509.14 -11.81"/><polygon class="cls-5" points="553.87 -11.81 555.85 383.68 555.29 383.68 552.87 -11.81 553.87 -11.81"/><polygon class="cls-5" points="598.59 -11.81 599.78 383.68 599.23 383.68 597.59 -11.81 598.59 -11.81"/><polygon class="cls-5" points="643.31 -11.81 643.72 383.68 643.16 383.68 642.31 -11.81 643.31 -11.81"/><polygon class="cls-5" points="688.03 -11.81 687.65 383.68 687.1 383.68 687.03 -11.81 688.03 -11.81"/><polygon class="cls-5" points="732.75 -11.81 731.59 383.68 731.04 383.68 731.75 -11.81 732.75 -11.81"/><polygon class="cls-5" points="777.47 -11.81 775.53 383.68 774.97 383.68 776.47 -11.81 777.47 -11.81"/><polygon class="cls-5" points="822.19 -11.8 819.46 383.68 818.91 383.68 821.19 -11.81 822.19 -11.8"/><polygon class="cls-5" points="866.91 -11.8 863.4 383.68 862.84 383.68 865.91 -11.81 866.91 -11.8"/><polygon class="cls-5" points="911.64 -11.8 907.33 383.68 906.78 383.68 910.64 -11.81 911.64 -11.8"/><polygon class="cls-5" points="956.36 -11.8 951.27 383.68 950.71 383.68 955.36 -11.81 956.36 -11.8"/><polygon class="cls-3" points="25.75 -11.82 34.37 383.67 33.66 383.69 24.75 -11.8 25.75 -11.82"/><polygon class="cls-3" points="65.18 -11.82 73.1 383.67 72.39 383.69 64.18 -11.8 65.18 -11.82"/><polygon class="cls-3" points="104.6 -11.82 111.83 383.67 111.12 383.69 103.6 -11.8 104.6 -11.82"/><polygon class="cls-3" points="144.02 -11.82 150.56 383.68 149.85 383.69 143.02 -11.8 144.02 -11.82"/><polygon class="cls-3" points="183.44 -11.82 189.29 383.68 188.58 383.69 182.44 -11.8 183.44 -11.82"/><polygon class="cls-3" points="222.87 -11.81 228.02 383.68 227.31 383.69 221.87 -11.8 222.87 -11.81"/><polygon class="cls-3" points="262.29 -11.81 266.75 383.68 266.04 383.69 261.29 -11.8 262.29 -11.81"/><polygon class="cls-3" points="-10.51 385.94 296.28 385.94 296.17 379 -10.51 379 -10.51 385.94"/><polygon class="cls-5" points="296.28 385.94 1010.56 385.94 1010.46 379 296.28 379 296.28 385.94"/><path class="cls-5" d="M543.23,242.68s-10.54,11.24-24,24.66-24.68,24-24.68,24,10.54-11.24,24-24.67S543.23,242.68,543.23,242.68Z"/><path class="cls-5" d="M609.72,307.56s-6.52-5.47-14.13-12.67-13.44-13.39-13.44-13.39,6.52,5.47,14.13,12.67S609.72,307.56,609.72,307.56Z"/><path class="cls-5" d="M383.07,67.12s-3.7,15-8.87,33.41-9.83,33.14-9.83,33.14,3.71-15,8.87-33.41S383.07,67.12,383.07,67.12Z"/><path class="cls-5" d="M517.28,100.94s-2.95,6.43-7.14,14.07-8,13.59-8,13.59,2.95-6.43,7.14-14.07S517.28,100.94,517.28,100.94Z"/><path class="cls-5" d="M609.06,120.55s-7.19-6.17-15.64-14.22S578.47,91.4,578.47,91.4s7.19,6.16,15.64,14.21S609.06,120.55,609.06,120.55Z"/><path class="cls-5" d="M599.27,35.31a61.85,61.85,0,0,1-5.88,5.29,62.57,62.57,0,0,1-6.5,4.51,61.85,61.85,0,0,1,5.88-5.29A62.57,62.57,0,0,1,599.27,35.31Z"/><path class="cls-5" d="M801.9,96.23S789.69,86,775,73s-26.2-24-26.2-24,12.21,10.2,26.86,23.25S801.9,96.23,801.9,96.23Z"/><path class="cls-5" d="M510.87,344.36a58.76,58.76,0,0,1-12.25,9.19,59,59,0,0,1,12.25-9.19Z"/><path class="cls-5" d="M350.7,300.83s-6.33-3.63-13.78-8.62-13.23-9.46-13.23-9.46,6.32,3.64,13.78,8.63S350.7,300.83,350.7,300.83Z"/><path class="cls-5" d="M516.87,249.49s-3.5-3.42-7.35-8-6.58-8.69-6.58-8.69,3.5,3.42,7.35,8.05S516.87,249.49,516.87,249.49Z"/><path class="cls-5" d="M490.83,234.83s-.41-12.87-.29-28.73.71-28.72.71-28.72.4,12.86.29,28.73S490.83,234.83,490.83,234.83Z"/><path class="cls-5" d="M534.21,97s-1.48-9.71-2.69-21.75-1.69-21.86-1.69-21.86,1.48,9.72,2.69,21.76S534.21,97,534.21,97Z"/><path class="cls-5" d="M619.56,270.84s-1.19-9.23-2-20.65-1-20.72-1-20.72,1.18,9.23,2,20.65S619.56,270.84,619.56,270.84Z"/><path class="cls-5" d="M408.35,164.35s-3.33-28.42-6.83-63.54-5.83-63.64-5.83-63.64,3.33,28.42,6.83,63.54S408.35,164.35,408.35,164.35Z"/><path class="cls-5" d="M317.67,132.2s-1.22-11.45-2.12-25.62-1.12-25.68-1.12-25.68,1.22,11.45,2.12,25.62S317.67,132.2,317.67,132.2Z"/><path class="cls-3" d="M264.86,132.17s1.65-17,4.3-38,5.29-37.87,5.29-37.87-1.65,17-4.3,38S264.86,132.17,264.86,132.17Z"/><path class="cls-3" d="M159.58,194.94s-7-33.14-14.92-74.15-13.94-74.34-13.94-74.34,6.95,33.15,14.92,74.15S159.58,194.94,159.58,194.94Z"/><path class="cls-3" d="M187.32,75.61s-3.38-8.94-7-20.15-6-20.46-6-20.46,3.38,8.94,7,20.15S187.32,75.61,187.32,75.61Z"/><path class="cls-3" d="M60.44,175.73s3.64-28,8.74-62.49,9.73-62.35,9.73-62.35-3.64,28-8.74,62.49S60.44,175.73,60.44,175.73Z"/><path class="cls-3" d="M36,257.05s-4.23-9.77-8.87-22-7.93-22.4-7.93-22.4,4.23,9.77,8.87,22S36,257.05,36,257.05Z"/><polygon class="cls-6" points="503.98 39.35 802.86 198.81 804.11 182.75 807.27 179.53 806.45 114.31 934.75 127.37 969.89 156.95 942.6 393.09 1014.36 426.06 1014.36 -11.81 -19.94 -11.81 -19.94 396.7 481.82 392.03 165.75 286.19 165.75 235.43 125.79 252.27 28.95 175.46 23.72 177.57 23.21 288.48 14.36 286.19 -10.51 297.98 -8.45 163.55 292.21 29.04 503.98 39.35"/><polygon class="cls-6" points="-19.94 419.36 98.16 483.51 659.37 482.49 1018.45 450.92 1014.36 524.36 -19.94 524.36 -19.94 419.36"/><polygon class="cls-6" points="629 310.68 660.36 386.92 564 386.92 557.32 310.99 629 310.68"/><polygon class="cls-6" points="31.34 145.75 49.6 156.36 125.72 153.3 136.92 142.06 41.3 141.3 31.34 145.75"/><path class="cls-6" d="M936.61,23.75l-.06,0,.52-32H804.44l.47,28.67a3.69,3.69,0,0,0-2.43,2.51,10.78,10.78,0,0,0-.33,3.63c.06,3.19-1.44,20.57,2.7,20.47a2.83,2.83,0,0,0,.5,0l.29,18a3,3,0,0,0-1.34-.11c-2.25.38-3.12,3.1-3.48,5.34a81.26,81.26,0,0,0-1.1,16.7l138.13,23.62a74.17,74.17,0,0,0-.2-8.14c-.21-2.56-.41-7.25-2.27-7.3l.4-24.73a2.54,2.54,0,0,0,1.78-1.39,10.22,10.22,0,0,0,1-3.36C939.62,58.89,945.69,22.35,936.61,23.75Z"/><rect class="cls-7" width="1000" height="500"/><rect class="cls-8" x="-10.51" y="385.94" width="1021.02" height="125.62"/><polygon class="cls-9" points="1010.51 385.94 296.28 385.94 290.19 -8.28 1010.51 -8.28 1010.51 385.94"/><polygon class="cls-9" points="296.28 385.94 -10.51 385.94 -10.51 -8.28 290.19 -8.28 296.28 385.94"/><polygon class="cls-5" points="330.26 -11.82 336.17 383.68 335.62 383.69 329.26 -11.8 330.26 -11.82"/><polygon class="cls-5" points="374.98 -11.81 380.11 383.68 379.55 383.69 373.98 -11.8 374.98 -11.81"/><polygon class="cls-5" points="419.7 -11.81 424.04 383.68 423.49 383.68 418.7 -11.8 419.7 -11.81"/><polygon class="cls-5" points="464.42 -11.81 467.98 383.68 467.42 383.68 463.42 -11.8 464.42 -11.81"/><polygon class="cls-5" points="509.14 -11.81 511.91 383.68 511.36 383.68 508.14 -11.8 509.14 -11.81"/><polygon class="cls-5" points="553.87 -11.81 555.85 383.68 555.29 383.68 552.87 -11.81 553.87 -11.81"/><polygon class="cls-5" points="598.59 -11.81 599.78 383.68 599.23 383.68 597.59 -11.81 598.59 -11.81"/><polygon class="cls-5" points="643.31 -11.81 643.72 383.68 643.16 383.68 642.31 -11.81 643.31 -11.81"/><polygon class="cls-5" points="688.03 -11.81 687.65 383.68 687.1 383.68 687.03 -11.81 688.03 -11.81"/><polygon class="cls-5" points="732.75 -11.81 731.59 383.68 731.04 383.68 731.75 -11.81 732.75 -11.81"/><polygon class="cls-5" points="777.47 -11.81 775.53 383.68 774.97 383.68 776.47 -11.81 777.47 -11.81"/><polygon class="cls-5" points="822.19 -11.8 819.46 383.68 818.91 383.68 821.19 -11.81 822.19 -11.8"/><polygon class="cls-5" points="866.91 -11.8 863.4 383.68 862.84 383.68 865.91 -11.81 866.91 -11.8"/><polygon class="cls-5" points="911.64 -11.8 907.33 383.68 906.78 383.68 910.64 -11.81 911.64 -11.8"/><polygon class="cls-5" points="956.36 -11.8 951.27 383.68 950.71 383.68 955.36 -11.81 956.36 -11.8"/><polygon class="cls-3" points="25.75 -11.82 34.37 383.67 33.66 383.69 24.75 -11.8 25.75 -11.82"/><polygon class="cls-3" points="65.18 -11.82 73.1 383.67 72.39 383.69 64.18 -11.8 65.18 -11.82"/><polygon class="cls-3" points="104.6 -11.82 111.83 383.67 111.12 383.69 103.6 -11.8 104.6 -11.82"/><polygon class="cls-3" points="144.02 -11.82 150.56 383.68 149.85 383.69 143.02 -11.8 144.02 -11.82"/><polygon class="cls-3" points="183.44 -11.82 189.29 383.68 188.58 383.69 182.44 -11.8 183.44 -11.82"/><polygon class="cls-3" points="222.87 -11.81 228.02 383.68 227.31 383.69 221.87 -11.8 222.87 -11.81"/><polygon class="cls-3" points="262.29 -11.81 266.75 383.68 266.04 383.69 261.29 -11.8 262.29 -11.81"/><polygon class="cls-3" points="-10.51 385.94 296.28 385.94 296.17 379 -10.51 379 -10.51 385.94"/><polygon class="cls-5" points="296.28 385.94 1010.56 385.94 1010.46 379 296.28 379 296.28 385.94"/><path class="cls-5" d="M543.23,242.68s-10.54,11.24-24,24.66-24.68,24-24.68,24,10.54-11.24,24-24.67S543.23,242.68,543.23,242.68Z"/><path class="cls-5" d="M609.72,307.56s-6.52-5.47-14.13-12.67-13.44-13.39-13.44-13.39,6.52,5.47,14.13,12.67S609.72,307.56,609.72,307.56Z"/><path class="cls-5" d="M383.07,67.12s-3.7,15-8.87,33.41-9.83,33.14-9.83,33.14,3.71-15,8.87-33.41S383.07,67.12,383.07,67.12Z"/><path class="cls-5" d="M517.28,100.94s-2.95,6.43-7.14,14.07-8,13.59-8,13.59,2.95-6.43,7.14-14.07S517.28,100.94,517.28,100.94Z"/><path class="cls-5" d="M609.06,120.55s-7.19-6.17-15.64-14.22S578.47,91.4,578.47,91.4s7.19,6.16,15.64,14.21S609.06,120.55,609.06,120.55Z"/><path class="cls-5" d="M599.27,35.31a61.85,61.85,0,0,1-5.88,5.29,62.57,62.57,0,0,1-6.5,4.51,61.85,61.85,0,0,1,5.88-5.29A62.57,62.57,0,0,1,599.27,35.31Z"/><path class="cls-5" d="M801.9,96.23S789.69,86,775,73s-26.2-24-26.2-24,12.21,10.2,26.86,23.25S801.9,96.23,801.9,96.23Z"/><path class="cls-5" d="M510.87,344.36a58.76,58.76,0,0,1-12.25,9.19,59,59,0,0,1,12.25-9.19Z"/><path class="cls-5" d="M350.7,300.83s-6.33-3.63-13.78-8.62-13.23-9.46-13.23-9.46,6.32,3.64,13.78,8.63S350.7,300.83,350.7,300.83Z"/><path class="cls-5" d="M516.87,249.49s-3.5-3.42-7.35-8-6.58-8.69-6.58-8.69,3.5,3.42,7.35,8.05S516.87,249.49,516.87,249.49Z"/><path class="cls-5" d="M490.83,234.83s-.41-12.87-.29-28.73.71-28.72.71-28.72.4,12.86.29,28.73S490.83,234.83,490.83,234.83Z"/><path class="cls-5" d="M534.21,97s-1.48-9.71-2.69-21.75-1.69-21.86-1.69-21.86,1.48,9.72,2.69,21.76S534.21,97,534.21,97Z"/><path class="cls-5" d="M619.56,270.84s-1.19-9.23-2-20.65-1-20.72-1-20.72,1.18,9.23,2,20.65S619.56,270.84,619.56,270.84Z"/><path class="cls-5" d="M408.35,164.35s-3.33-28.42-6.83-63.54-5.83-63.64-5.83-63.64,3.33,28.42,6.83,63.54S408.35,164.35,408.35,164.35Z"/><path class="cls-5" d="M317.67,132.2s-1.22-11.45-2.12-25.62-1.12-25.68-1.12-25.68,1.22,11.45,2.12,25.62S317.67,132.2,317.67,132.2Z"/><path class="cls-3" d="M264.86,132.17s1.65-17,4.3-38,5.29-37.87,5.29-37.87-1.65,17-4.3,38S264.86,132.17,264.86,132.17Z"/><path class="cls-3" d="M187.32,75.61s-3.38-8.94-7-20.15-6-20.46-6-20.46,3.38,8.94,7,20.15S187.32,75.61,187.32,75.61Z"/><polygon class="cls-6" points="503.98 39.35 802.86 198.81 804.11 182.75 807.27 179.53 806.45 114.31 934.75 127.37 969.89 156.95 942.6 393.09 1014.36 426.06 1014.36 -11.81 -19.94 -11.81 -19.94 396.7 481.82 392.03 165.75 286.19 165.75 235.43 125.79 252.27 28.95 175.46 23.72 177.57 23.21 288.48 14.36 286.19 -10.51 297.98 -8.45 163.55 292.21 29.04 503.98 39.35"/><polygon class="cls-6" points="-19.94 419.36 98.16 483.51 659.37 482.49 1018.45 450.92 1014.36 524.36 -19.94 524.36 -19.94 419.36"/><polygon class="cls-6" points="629 310.68 660.36 386.92 564 386.92 557.32 310.99 629 310.68"/><path class="cls-6" d="M936.61,23.75l-.06,0,.52-32H804.44l.47,28.67a3.69,3.69,0,0,0-2.43,2.51,10.78,10.78,0,0,0-.33,3.63c.06,3.19-1.44,20.57,2.7,20.47a2.83,2.83,0,0,0,.5,0l.29,18a3,3,0,0,0-1.34-.11c-2.25.38-3.12,3.1-3.48,5.34a81.26,81.26,0,0,0-1.1,16.7l138.13,23.62a74.17,74.17,0,0,0-.2-8.14c-.21-2.56-.41-7.25-2.27-7.3l.4-24.73a2.54,2.54,0,0,0,1.78-1.39,10.22,10.22,0,0,0,1-3.36C939.62,58.89,945.69,22.35,936.61,23.75Z"/><rect class="cls-7" width="1000" height="500"/></g></g></svg>