<svg id="Layer_1" data-name="Layer 1" xmlns="http://www.w3.org/2000/svg" xmlns:xlink="http://www.w3.org/1999/xlink" viewBox="0 0 841.9 595.3"><defs><style>.cls-1,.cls-10,.cls-19,.cls-24,.cls-6{fill:none;}.cls-2{fill:#89ae83;}.cls-3{fill:#c2e0af;}.cls-4{fill:#d8e8b2;}.cls-5{fill:#fff3dc;}.cls-6{stroke:#d8e8b2;stroke-width:0.6px;}.cls-7{clip-path:url(#clip-path);}.cls-8{fill:#d1d3d4;stroke:#23110f;stroke-width:0.4px;}.cls-9{clip-path:url(#clip-path-2);}.cls-10,.cls-11,.cls-12,.cls-13,.cls-14,.cls-19,.cls-20,.cls-21,.cls-24,.cls-25,.cls-26,.cls-27,.cls-28,.cls-29,.cls-31,.cls-32,.cls-33,.cls-34,.cls-35{stroke:#010101;}.cls-10,.cls-13{stroke-width:0.44px;}.cls-11{fill:#e4b523;}.cls-11,.cls-12,.cls-14{stroke-width:0.74px;}.cls-12{fill:#ffdd7d;}.cls-13{fill:#8b5e3c;}.cls-14{fill:#face54;}.cls-15{fill:#82562f;}.cls-16{fill:#6b4623;}.cls-17{opacity:0.59;filter:url(#AI_GaussianBlur_4);}.cls-18{fill:url(#SVGID_7_);}.cls-19{stroke-width:0.52px;}.cls-20,.cls-23{fill:#fff;}.cls-20{stroke-width:1.05px;}.cls-21,.cls-29,.cls-35{stroke-width:0.52px;}.cls-21{fill:url(#linear-gradient);}.cls-22,.cls-30{opacity:0.53;}.cls-22{fill:url(#Fading_Sky);}.cls-24{stroke-width:0.79px;}.cls-25,.cls-26,.cls-27,.cls-28,.cls-31,.cls-32,.cls-33,.cls-34{stroke-width:0.8px;}.cls-25{fill:url(#linear-gradient-2);}.cls-26{fill:url(#linear-gradient-3);}.cls-27{fill:url(#linear-gradient-4);}.cls-28{fill:url(#linear-gradient-5);}.cls-29{fill:url(#linear-gradient-6);}.cls-30{fill:url(#Fading_Sky-2);}.cls-31{fill:url(#linear-gradient-7);}.cls-32{fill:url(#linear-gradient-8);}.cls-33{fill:url(#linear-gradient-9);}.cls-34{fill:url(#linear-gradient-10);}.cls-35{fill:url(#linear-gradient-11);}.cls-36{fill:#543719;}</style><clipPath id="clip-path"><rect class="cls-1" x="-1.6" y="-1.6" width="843.9" height="596.54"/></clipPath><clipPath id="clip-path-2"><rect class="cls-1" x="134.5" y="2.2" width="541.2" height="601.99"/></clipPath><filter id="AI_GaussianBlur_4" name="AI_GaussianBlur_4"><feGaussianBlur stdDeviation="4"/></filter><pattern id="SVGID_7_" data-name="SVGID 7 " width="50.8" height="58.86" patternTransform="matrix(1.04, 0, 0, -1.06, 1266.08, -1633.42)" patternUnits="userSpaceOnUse" viewBox="0 0 50.8 58.9"><rect class="cls-1" width="50.8" height="58.86"/><polygon class="cls-1" points="0 0 0 58.9 50.8 58.9 50.8 0 0 0"/><polygon class="cls-2" points="50.8 0 50.8 58.9 0 58.9 0 0 50.8 0"/><path class="cls-3" d="M16.4,31a.9.9,0,0,0-1.8,0A.9.9,0,0,0,16.4,31Z"/><path class="cls-3" d="M37.6,30.7a.9.9,0,1,0-1.7,0A.9.9,0,0,0,37.6,30.7Z"/><path class="cls-3" d="M26.6,26.6a.9.9,0,0,0-1.8,0A.9.9,0,0,0,26.6,26.6Z"/><path class="cls-3" d="M26.8,29.4a.9.9,0,1,0-1.7,0A.9.9,0,0,0,26.8,29.4Z"/><path class="cls-3" d="M24.4,28.7a.9.9,0,0,0-1.8,0A.9.9,0,0,0,24.4,28.7Z"/><path class="cls-3" d="M29,28.4a.9.9,0,0,0-1.8,0A.9.9,0,1,0,29,28.4Z"/><path class="cls-4" d="M25.1-1.8V2.6l2,.4a38.2,38.2,0,0,1,0-4.8Z"/><path class="cls-4" d="M31.8,62.3l-4.2-4.8v2.9l2.1,2.3Z"/><path class="cls-4" d="M24.7,55.4c-1.7-2.1-3.2-3.7-4.3-5.2a9.1,9.1,0,0,1-2.2-.1c1.6,2.2,3.9,4.8,6.5,8Z"/><path class="cls-4" d="M27,9.1V7.8a3.9,3.9,0,0,0-1.9-1c-.1,4.6-.2,8.5-.7,9.1s-1,1.6.4,1.3,1.3-.4,2-.1,1.9.5,1.2-1.1-.9-.9-.9-2.6,0-.9-.1-2.5C24.9,10.3,25.5,9.8,27,9.1Z"/><path class="cls-4" d="M27.1,61.9c-.1-3.9,0-7.2,0-8.2,0-3.2-.1-5.4-3.1-8.9s-5.4-3.5-8.4-4.4v1.5c2.4.4,7.8,3.2,9,6.9-2.9-2-10.9,1.5-11.4-5.1.9,1.1,2.1,2,3.1,3.2a6,6,0,0,0,2.4.5c-1.5-1.9-3.1-3.2-4.6-5.1-.2-.4.8-.5,1.5-.4V40.4c-1.7-.6-3.7-1.1-4.7-2.2-2.1-2.6-4.6-5-6.9-7.9a13.3,13.3,0,0,1-.5,1.9c2.1,2.6,5.1,5.7,7.1,8.2s0,6.8,4.2,8.6c1.6.6,5.6.7,8.1.8s2.3,2.4,2.3,4.4-.1,3.4-.1,7.3Z"/><path class="cls-4" d="M18.4-1.6C18.3-.4,17,.7,14.6.5c-.7,0-.2-.1.2-.5s.7-2.1-2.7-1.6Z"/><path class="cls-4" d="M-.8,1C5.3,3.1,20.3,2.6,25.6,3.2s7.4,8.9,1.1,7.1c-.6-.2-.5-.4.2-.6s1.3-3.3-3.4-3.8c-6.8-.6-19-.2-24.7-1.4Z"/><path class="cls-4" d="M-1,7.8c5.9.8,12.8.3,16.7.3,8.9,0,8.3,7.3,2,6.1-.7-.2-.6-.4.2-.7s.6-3.1-4.1-2.4A56.5,56.5,0,0,1-1,11Z"/><path class="cls-4" d="M41.1-2.4c.9,2.8,3.3,4.9,6.4,6.3a15.2,15.2,0,0,0,4.8,1V1.6A12.1,12.1,0,0,1,48.5.4,13,13,0,0,1,45-2.4Z"/><path class="cls-4" d="M34.1-2.3c.1,4.7,2.9,9.2,8.2,11.5a34.1,34.1,0,0,0,9.9,2.1V8.1c-5-.4-9.8-1.5-12.2-4.3a14.5,14.5,0,0,1-3.2-5.9Z"/><path class="cls-4" d="M-.7,16.5C3.4,19.3,5.9,24,1.9,34.8-3.9,50.6-.2,56.7,15,54.7c4.6.1,4.5,5.1-.4,4.7-.7-.1-.2-.1.2-.5s.7-2.1-2.7-1.6S4.6,58.7-.7,55c-7.6-5.3,3.8-21.6,2.3-24.8a38.4,38.4,0,0,1-3.5,8.9V36.7a27.2,27.2,0,0,0,2-6.1,21.2,21.2,0,0,1-1.9,4V32.5c2.9-5.4,3.4-9.9.8-13Z"/><path class="cls-4" d="M52.9,53.1c-3.8-2.8-3.7-8.8-.3-18.3,8-21.6-9.7-19-14.9-24.9-2.6-3-7.5-8.2-10.1-11.3v3C35.3,9.9,44.8,21,50,27.8a15.7,15.7,0,0,0,.4-2.3,95.6,95.6,0,0,0-7.7-9.8c14.2,3.2,9.9,16-4.4,30.5-4.5,4.6-5.4,11-2.7,15.9l4.5.5c-9.8-11.6,4.3-16,10.8-32-1.1,5.6-4.7,11-8,16.6-4.6,8.1-1.2,12.9,4.6,15.6l1-3.5c-12.1-7.1,1.1-16.6,3.9-29.1,1.4,3.3-9.9,19.5-2.3,24.8l2.5,1.5.3-3.4Z"/><path class="cls-5" d="M26,23.6c-1.4,2.1-5.5,7.2-6.2,8.5s-.6,1.6-1.5,1-1-.3-1.2-.1-1.2.4-.8-1,.7-8.5.3-9.8c1.4-1.9,5.3-5.4,8.5-5.2.4,0,.5.3.6.5A27,27,0,0,1,26,23.6Z"/><path class="cls-6" d="M26,23.6c-1.4,2.1-5.5,7.2-6.2,8.5s-.6,1.6-1.5,1-1-.3-1.2-.1-1.2.4-.8-1,.7-8.5.3-9.8c1.4-1.9,5.3-5.4,8.5-5.2.4,0,.5.3.6.5A27,27,0,0,1,26,23.6Z"/><path class="cls-5" d="M26,23.6c1.5,2.1,5.5,7.2,6.2,8.5s.6,1.6,1.5,1,1-.3,1.2-.1,1.2.4.8-1-.7-8.5-.3-9.8c-1.4-1.9-5.2-5.4-8.5-5.2-.4,0-.5.3-.6.5A27,27,0,0,0,26,23.6Z"/><path class="cls-6" d="M26,23.6c1.5,2.1,5.5,7.2,6.2,8.5s.6,1.6,1.5,1,1-.3,1.2-.1,1.2.4.8-1-.7-8.5-.3-9.8c-1.4-1.9-5.2-5.4-8.5-5.2-.4,0-.5.3-.6.5A27,27,0,0,0,26,23.6Z"/><path class="cls-5" d="M26.8,17c1.8-.2,5.3,1.1,8.6,5.2a23.1,23.1,0,0,0-.2,5.1c5,9,8,6.8,8.6,4.2-.2.9.2-2-.9-.5s-2,.3-2.6-1.7S35.6,15.1,26.8,16.6c-.3.3-1.1.2-1.7,0C15.8,15.1,13,27.1,12,29.1S10.2,31.9,9.2,31s-.9,1.4-1,.5c.5,2.6,4.1,4.6,8.6-4.5a21.1,21.1,0,0,0-.2-4.9c2.6-3.1,6.2-5.4,8.6-5.1A4.3,4.3,0,0,0,26.8,17Z"/><path class="cls-6" d="M26.8,17c1.8-.2,5.3,1.1,8.6,5.2a23.1,23.1,0,0,0-.2,5.1c5,9,8,6.8,8.6,4.2-.2.9.2-2-.9-.5s-2,.3-2.6-1.7S35.6,15.1,26.8,16.6c-.3.3-1.1.2-1.7,0C15.8,15.1,13,27.1,12,29.1S10.2,31.9,9.2,31s-.9,1.4-1,.5c.5,2.6,4.1,4.6,8.6-4.5a21.1,21.1,0,0,0-.2-4.9c2.6-3.1,6.2-5.4,8.6-5.1A4.3,4.3,0,0,0,26.8,17Z"/><path class="cls-6" d="M17.5,30.8c1.2-1.2,2.2-11.7,6.8-13.6"/><path class="cls-6" d="M17.8,31.8c1.8.6,1.9-11.2,6.9-14.6"/><path class="cls-6" d="M25.1,17.4c-2.3,2.2-4.7,9.3-5.2,12.8"/><path class="cls-6" d="M34.5,30.8c-1.2-1.2-2.1-11.7-6.7-13.6"/><path class="cls-6" d="M34.2,31.8c-1.7.6-1.8-11.2-6.9-14.6"/><path class="cls-6" d="M26.9,17.4c2.3,2.2,4.7,9.3,5.2,12.8"/></pattern><linearGradient id="linear-gradient" x1="416.84" y1="-1359.78" x2="416.84" y2="-1367.74" gradientTransform="matrix(1, 0, 0, -1, 0, -1032.16)" gradientUnits="userSpaceOnUse"><stop offset="0" stop-color="#fff"/><stop offset="0.11" stop-color="#fafbfc"/><stop offset="0.23" stop-color="#ededee"/><stop offset="0.36" stop-color="#d7d6d6"/><stop offset="0.5" stop-color="#b6b7b7"/><stop offset="0.64" stop-color="#8e8d8d"/><stop offset="0.78" stop-color="#5c5c5c"/><stop offset="0.93" stop-color="#212121"/><stop offset="1" stop-color="#010101"/></linearGradient><linearGradient id="Fading_Sky" x1="418.95" y1="202.69" x2="523.34" y2="202.69" gradientUnits="userSpaceOnUse"><stop offset="0" stop-color="#2484c6"/><stop offset="1" stop-color="#2484c6" stop-opacity="0"/></linearGradient><linearGradient id="linear-gradient-2" x1="416.93" y1="194.01" x2="474.66" y2="94.02" xlink:href="#Fading_Sky"/><linearGradient id="linear-gradient-3" x1="466.55" y1="194.01" x2="524.28" y2="94.02" xlink:href="#Fading_Sky"/><linearGradient id="linear-gradient-4" x1="416.93" y1="305.45" x2="474.66" y2="205.46" xlink:href="#Fading_Sky"/><linearGradient id="linear-gradient-5" x1="466.55" y1="305.45" x2="524.28" y2="205.46" xlink:href="#Fading_Sky"/><linearGradient id="linear-gradient-6" x1="-1968.11" y1="-1227.48" x2="-1968.11" y2="-1232.63" gradientTransform="translate(-1539.9 -1032.2) rotate(180)" gradientUnits="userSpaceOnUse"><stop offset="0" stop-color="#fff"/><stop offset="0.14" stop-color="#faf8f5"/><stop offset="0.28" stop-color="#eee8e2"/><stop offset="0.42" stop-color="#e2d5cc"/><stop offset="0.56" stop-color="#d1bdae"/><stop offset="0.7" stop-color="#bda28a"/><stop offset="0.84" stop-color="#a78267"/><stop offset="0.97" stop-color="#906444"/><stop offset="1" stop-color="#8b5f3d"/></linearGradient><linearGradient id="Fading_Sky-2" x1="-1615.57" y1="202.69" x2="-1511.18" y2="202.69" gradientTransform="matrix(1, 0, 0, -1, 1923.78, 405.38)" xlink:href="#Fading_Sky"/><linearGradient id="linear-gradient-7" x1="-1617.58" y1="194.01" x2="-1559.86" y2="94.02" gradientTransform="matrix(-1, 0, 0, 1, -1202.97, 0)" xlink:href="#Fading_Sky"/><linearGradient id="linear-gradient-8" x1="-1567.97" y1="194.01" x2="-1510.24" y2="94.02" gradientTransform="matrix(-1, 0, 0, 1, -1202.97, 0)" xlink:href="#Fading_Sky"/><linearGradient id="linear-gradient-9" x1="-1617.58" y1="305.45" x2="-1559.86" y2="205.46" gradientTransform="matrix(-1, 0, 0, 1, -1202.97, 0)" xlink:href="#Fading_Sky"/><linearGradient id="linear-gradient-10" x1="-1567.97" y1="305.45" x2="-1510.24" y2="205.46" gradientTransform="matrix(-1, 0, 0, 1, -1202.97, 0)" xlink:href="#Fading_Sky"/><linearGradient id="linear-gradient-11" x1="66.4" y1="-1227.48" x2="66.4" y2="-1232.63" gradientTransform="matrix(1, 0, 0, -1, 336.9, -1032.16)" xlink:href="#linear-gradient-6"/></defs><title>indoorbackgrounds</title><g class="cls-7"><rect class="cls-8" x="0.6" y="-59.3" width="841.9" height="87"/><g class="cls-9"><polyline class="cls-10" points="154.9 2.4 215.7 2.4 253.1 21.4 572.3 21.4 609.8 2.4 670.5 2.4"/></g><rect class="cls-1" x="134.5" y="2.2" width="541.2" height="601.99"/><rect class="cls-11" x="610.9" y="2.3" width="231.6" height="447.04"/><rect class="cls-1" x="134.5" y="2.2" width="541.2" height="601.99"/><polygon class="cls-12" points="252.3 418.5 215.7 454.9 215.7 2.4 252.3 21.4 252.3 418.5"/><rect class="cls-1" x="134.5" y="2.2" width="541.2" height="601.99"/><polygon class="cls-12" points="574.2 418.5 610.9 454.9 610.9 2.4 574.2 21.4 574.2 418.5"/><rect class="cls-1" x="134.5" y="2.2" width="541.2" height="601.99"/><polygon class="cls-13" points="367.8 654.2 399.2 654.2 399.2 414.7 377.5 414.7 367.8 654.2"/><polygon class="cls-13" points="400 654.2 431.4 654.2 431.4 414.7 399.2 414.7 400 654.2"/><polygon class="cls-13" points="336.9 652.9 368.4 654.2 378.2 414.9 356.2 414 336.9 652.9"/><polygon class="cls-13" points="304.8 654.2 336.2 656.8 355.9 418.2 334.2 416.3 304.8 654.2"/><polygon class="cls-13" points="275.6 654.2 306.7 654.1 336.1 416.5 314.5 413.7 275.6 654.2"/><polygon class="cls-13" points="242.7 654.9 273.7 660.2 313.8 418.5 291.8 418.5 242.7 654.9"/><polygon class="cls-13" points="209.4 654.2 241.9 659.5 292.6 418 270.5 418.6 209.4 654.2"/><polygon class="cls-13" points="246.4 424.6 178.2 654.2 209.9 654.1 270.5 418.6 252.3 418.5 246.4 424.6"/><polygon class="cls-13" points="144.4 654.2 177.1 657.8 245.8 425.4 215.9 453.8 144.4 654.2"/><rect class="cls-1" x="134.5" y="2.2" width="541.2" height="601.99"/><polygon class="cls-13" points="458.4 654.2 427 654.2 427 414.7 448.7 414.7 458.4 654.2"/><polygon class="cls-13" points="489.3 652.9 457.8 654.2 447.9 414.9 469.6 414 489.3 652.9"/><polygon class="cls-13" points="521.4 654.2 490 656.8 470.3 418.2 491.9 416.3 521.4 654.2"/><polygon class="cls-13" points="550.6 654.2 519.5 654.1 490.1 416.5 511.6 413.7 550.6 654.2"/><polygon class="cls-13" points="583.5 654.9 552.4 660.2 512.4 418.8 534.7 418.5 583.5 654.9"/><polygon class="cls-13" points="616.8 654.2 584.3 659.5 533.6 418 555.7 418.6 616.8 654.2"/><polygon class="cls-13" points="579.8 424.6 648 654.2 616.3 654.1 555.7 418.6 573.8 418.5 579.8 424.6"/><polygon class="cls-13" points="681.7 654.2 650.2 658.5 579.9 424.1 610.3 453.8 681.7 654.2"/><rect class="cls-1" x="134.5" y="2.2" width="541.2" height="601.99"/><rect class="cls-14" x="252.3" y="21.4" width="321.9" height="397.11"/><rect class="cls-1" x="134.5" y="2.2" width="541.2" height="601.99"/><polygon class="cls-15" points="573.9 418.4 252.5 418.5 252.5 397.7 573.9 397.6 573.9 418.4"/><rect class="cls-1" x="134.5" y="2.2" width="541.2" height="601.99"/><polygon class="cls-16" points="252 418.5 215.9 453.8 216.1 428.7 252 398 252 418.5"/><rect class="cls-1" x="134.5" y="2.2" width="541.2" height="601.99"/><polygon class="cls-16" points="574.5 418.7 611.3 454.7 611.2 429.8 574.5 398.2 574.5 418.7"/><g class="cls-9"><g class="cls-17"><rect class="cls-18" x="427.6" y="90.4" width="44.8" height="107.46"/><rect class="cls-19" x="427.6" y="90.4" width="44.8" height="107.46"/></g></g><g class="cls-9"><g class="cls-17"><rect class="cls-18" x="477.2" y="90.4" width="44.8" height="107.46"/><rect class="cls-19" x="477.2" y="90.4" width="44.8" height="107.46"/></g></g><g class="cls-9"><g class="cls-17"><rect class="cls-18" x="427.6" y="201.8" width="44.8" height="107.46"/><rect class="cls-19" x="427.6" y="201.8" width="44.8" height="107.46"/></g></g><g class="cls-9"><g class="cls-17"><rect class="cls-18" x="477.2" y="201.8" width="44.8" height="107.46"/><rect class="cls-19" x="477.2" y="201.8" width="44.8" height="107.46"/></g></g><rect class="cls-1" x="134.5" y="2.2" width="541.2" height="601.99"/><rect class="cls-20" x="297.3" y="75.4" width="234.3" height="257.2"/><rect class="cls-1" x="134.5" y="2.2" width="541.2" height="601.99"/><rect class="cls-1" x="134.5" y="2.2" width="541.2" height="601.99"/><rect class="cls-1" x="134.5" y="2.2" width="541.2" height="601.99"/><rect class="cls-1" x="134.5" y="2.2" width="541.2" height="601.99"/><rect class="cls-1" x="134.5" y="2.2" width="541.2" height="601.99"/><rect class="cls-1" x="134.5" y="2.2" width="541.2" height="601.99"/><rect class="cls-1" x="134.5" y="2.2" width="541.2" height="601.99"/><rect class="cls-1" x="134.5" y="2.2" width="541.2" height="601.99"/><polyline class="cls-13" points="634.8 454.5 704.3 641.9 726.7 620.2 658.6 453.7"/><polyline class="cls-13" points="611.1 454.5 678.8 646 700.3 630.7 634.9 453.7"/><polyline class="cls-13" points="683 453.7 761.5 637.6 782.8 614.8 706.8 451.8"/><polyline class="cls-13" points="659.4 454.8 736.2 642.9 757 626.5 683.1 452.9"/><polyline class="cls-13" points="732.1 452.7 821.5 631.5 841.4 607.5 755.7 449.3"/><polyline class="cls-13" points="754.3 450.8 849.4 628 869.4 604 783.6 445.9"/><polyline class="cls-13" points="785.6 448.3 880.8 625.5 900.7 601.5 815 443.3"/><polyline class="cls-13" points="815.6 443.6 910.8 620.8 930.7 596.8 845 438.6"/><polyline class="cls-13" points="708.6 455.2 793.3 636.2 816.3 620.7 732.2 451.9"/><polyline class="cls-13" points="169.9 448.3 101.8 614.8 124.2 636.5 193.8 449.1"/><polyline class="cls-13" points="193.6 448.3 128.2 625.2 149.7 640.6 217.4 449.1"/><polyline class="cls-13" points="121.7 446.4 45.7 609.4 67 632.2 145.5 448.3"/><polyline class="cls-13" points="145.4 447.5 71.5 621.1 92.3 637.5 169.1 449.4"/><polyline class="cls-13" points="72.8 443.9 -12.9 602.1 7 626.1 96.4 447.3"/><polyline class="cls-13" points="40.3 444.8 -45.4 602.9 -25.5 627 69.7 449.8"/><polyline class="cls-13" points="12.6 435.8 -73.2 594 -53.2 618 41.9 440.8"/><polyline class="cls-13" points="10 380.2 -75.7 538.3 -55.8 562.3 39.3 385.1"/><polyline class="cls-13" points="96.4 446.5 12.2 615.3 35.2 630.8 119.9 449.8"/><rect class="cls-21" x="291.7" y="327.6" width="250.2" height="7.96"/><rect class="cls-22" x="418.9" y="85.6" width="104.4" height="234.15"/><rect class="cls-23" x="418.9" y="85.5" width="104.4" height="234.35"/><rect class="cls-24" x="418.9" y="85.5" width="104.4" height="234.35"/><rect class="cls-25" x="423.4" y="90.3" width="44.8" height="107.46"/><rect class="cls-26" x="473" y="90.3" width="44.8" height="107.46"/><rect class="cls-27" x="423.4" y="201.7" width="44.8" height="107.46"/><rect class="cls-28" x="473" y="201.7" width="44.8" height="107.46"/><path class="cls-29" d="M439.4,198.7c0,1.7-3.3,2.7-4.8.3H420.3c-1.9,2.4-3.3,1.1-3.3-.6a3.1,3.1,0,0,1,3.1-3.1h14.3a3.1,3.1,0,0,1,3.1,3.1l1.9.3Z"/><rect class="cls-30" x="308.2" y="85.6" width="104.4" height="234.15" transform="translate(720.8 405.4) rotate(-180)"/><rect class="cls-23" x="308.2" y="85.5" width="104.4" height="234.35"/><rect class="cls-24" x="308.2" y="85.5" width="104.4" height="234.35"/><rect class="cls-31" x="363.4" y="90.3" width="44.8" height="107.46"/><rect class="cls-32" x="313.7" y="90.3" width="44.8" height="107.46"/><rect class="cls-33" x="363.4" y="201.7" width="44.8" height="107.46"/><rect class="cls-34" x="313.7" y="201.7" width="44.8" height="107.46"/><path class="cls-35" d="M392.1,198.7l2-.3a3,3,0,0,1,3-3.1h14.3a3.1,3.1,0,0,1,3.1,3.1c0,1.7-1.4,3-3.2.6H397c-1.6,2.4-4.9,1.4-4.9-.3Z"/><path class="cls-36" d="M611.1,430.7H842.4v24.5H611.1Z"/><rect class="cls-11" x="0.6" y="2.3" width="215.1" height="447.04"/><rect class="cls-36" x="0.1" y="424.2" width="215.6" height="24.44"/></g></svg>