<svg id="Layer_1" data-name="Layer 1" xmlns="http://www.w3.org/2000/svg" xmlns:xlink="http://www.w3.org/1999/xlink" viewBox="0 0 841.9 595.3"><defs><style>.cls-1,.cls-10,.cls-19,.cls-25,.cls-6{fill:none;}.cls-2{fill:#89ae83;}.cls-3{fill:#c2e0af;}.cls-4{fill:#d8e8b2;}.cls-5{fill:#fff3dc;}.cls-6{stroke:#d8e8b2;stroke-width:0.6px;}.cls-7{clip-path:url(#clip-path);}.cls-8{fill:#d1d3d4;stroke-width:0.4px;}.cls-21,.cls-8{stroke:#23110f;}.cls-9{clip-path:url(#clip-path-2);}.cls-10,.cls-11,.cls-12,.cls-13,.cls-14,.cls-19,.cls-20,.cls-22,.cls-25,.cls-26,.cls-27,.cls-28,.cls-29,.cls-30,.cls-32,.cls-33,.cls-34,.cls-35,.cls-36,.cls-38{stroke:#010101;}.cls-10,.cls-13{stroke-width:0.44px;}.cls-11,.cls-38{fill:#75bbe7;}.cls-11{stroke-width:0.77px;}.cls-12{fill:#a4d8f5;}.cls-12,.cls-14,.cls-38{stroke-width:0.74px;}.cls-13,.cls-21{fill:#b37c57;}.cls-14{fill:#95d3f4;}.cls-15{fill:#82562f;}.cls-16{fill:#6b4623;}.cls-17{opacity:0.59;filter:url(#AI_GaussianBlur_4);}.cls-18{fill:url(#SVGID_7_);}.cls-19{stroke-width:0.52px;}.cls-20,.cls-24{fill:#fff;}.cls-20{stroke-width:1.05px;}.cls-21{stroke-width:0.44px;}.cls-22,.cls-30,.cls-36{stroke-width:0.52px;}.cls-22{fill:url(#linear-gradient);}.cls-23,.cls-31{opacity:0.53;}.cls-23{fill:url(#Fading_Sky);}.cls-25{stroke-width:0.79px;}.cls-26,.cls-27,.cls-28,.cls-29,.cls-32,.cls-33,.cls-34,.cls-35{stroke-width:0.8px;}.cls-26{fill:url(#linear-gradient-2);}.cls-27{fill:url(#linear-gradient-3);}.cls-28{fill:url(#linear-gradient-4);}.cls-29{fill:url(#linear-gradient-5);}.cls-30{fill:url(#linear-gradient-6);}.cls-31{fill:url(#Fading_Sky-2);}.cls-32{fill:url(#linear-gradient-7);}.cls-33{fill:url(#linear-gradient-8);}.cls-34{fill:url(#linear-gradient-9);}.cls-35{fill:url(#linear-gradient-10);}.cls-36{fill:url(#linear-gradient-11);}.cls-37{fill:#543719;}</style><clipPath id="clip-path"><rect class="cls-1" y="-1.3" width="843.9" height="596.54"/></clipPath><clipPath id="clip-path-2"><rect class="cls-1" x="133.9" y="-1.4" width="541.2" height="601.99"/></clipPath><filter id="AI_GaussianBlur_4" name="AI_GaussianBlur_4"><feGaussianBlur stdDeviation="4"/></filter><pattern id="SVGID_7_" data-name="SVGID 7 " width="50.8" height="58.86" patternTransform="matrix(1.04, 0, 0, -1.06, 1304.67, -1581.91)" patternUnits="userSpaceOnUse" viewBox="0 0 50.8 58.9"><rect class="cls-1" width="50.8" height="58.86"/><polygon class="cls-1" points="0 0 0 58.9 50.8 58.9 50.8 0 0 0"/><polygon class="cls-2" points="50.8 0 50.8 58.9 0 58.9 0 0 50.8 0"/><path class="cls-3" d="M16.4,31a.9.9,0,0,0-1.8,0A.9.9,0,0,0,16.4,31Z"/><path class="cls-3" d="M37.6,30.7a.9.9,0,1,0-1.7,0A.9.9,0,0,0,37.6,30.7Z"/><path class="cls-3" d="M26.6,26.6a.9.9,0,0,0-1.8,0A.9.9,0,0,0,26.6,26.6Z"/><path class="cls-3" d="M26.8,29.4a.9.9,0,1,0-1.7,0A.9.9,0,0,0,26.8,29.4Z"/><path class="cls-3" d="M24.4,28.7a.9.9,0,0,0-1.8,0A.9.9,0,0,0,24.4,28.7Z"/><path class="cls-3" d="M29,28.4a.9.9,0,0,0-1.8,0A.9.9,0,1,0,29,28.4Z"/><path class="cls-4" d="M25.1-1.8V2.6l2,.4a38.2,38.2,0,0,1,0-4.8Z"/><path class="cls-4" d="M31.8,62.3l-4.2-4.8v2.9l2.1,2.3Z"/><path class="cls-4" d="M24.7,55.4c-1.7-2.1-3.2-3.7-4.3-5.2a9.1,9.1,0,0,1-2.2-.1c1.6,2.2,3.9,4.8,6.5,8Z"/><path class="cls-4" d="M27,9.1V7.8a3.9,3.9,0,0,0-1.9-1c-.1,4.6-.2,8.5-.7,9.1s-1,1.6.4,1.3,1.3-.4,2-.1,1.9.5,1.2-1.1-.9-.9-.9-2.6,0-.9-.1-2.5C24.9,10.3,25.5,9.8,27,9.1Z"/><path class="cls-4" d="M27.1,61.9c-.1-3.9,0-7.2,0-8.2,0-3.2-.1-5.4-3.1-8.9s-5.4-3.5-8.4-4.4v1.5c2.4.4,7.8,3.2,9,6.9-2.9-2-10.9,1.5-11.4-5.1.9,1.1,2.1,2,3.1,3.2a6,6,0,0,0,2.4.5c-1.5-1.9-3.1-3.2-4.6-5.1-.2-.4.8-.5,1.5-.4V40.4c-1.7-.6-3.7-1.1-4.7-2.2-2.1-2.6-4.6-5-6.9-7.9a13.3,13.3,0,0,1-.5,1.9c2.1,2.6,5.1,5.7,7.1,8.2s0,6.8,4.2,8.6c1.6.6,5.6.7,8.1.8s2.3,2.4,2.3,4.4-.1,3.4-.1,7.3Z"/><path class="cls-4" d="M18.4-1.6C18.3-.4,17,.7,14.6.5c-.7,0-.2-.1.2-.5s.7-2.1-2.7-1.6Z"/><path class="cls-4" d="M-.8,1C5.3,3.1,20.3,2.6,25.6,3.2s7.4,8.9,1.1,7.1c-.6-.2-.5-.4.2-.6s1.3-3.3-3.4-3.8c-6.8-.6-19-.2-24.7-1.4Z"/><path class="cls-4" d="M-1,7.8c5.9.8,12.8.3,16.7.3,8.9,0,8.3,7.3,2,6.1-.7-.2-.6-.4.2-.7s.6-3.1-4.1-2.4A56.5,56.5,0,0,1-1,11Z"/><path class="cls-4" d="M41.1-2.4c.9,2.8,3.3,4.9,6.4,6.3a15.2,15.2,0,0,0,4.8,1V1.6A12.1,12.1,0,0,1,48.5.4,13,13,0,0,1,45-2.4Z"/><path class="cls-4" d="M34.1-2.3c.1,4.7,2.9,9.2,8.2,11.5a34.1,34.1,0,0,0,9.9,2.1V8.1c-5-.4-9.8-1.5-12.2-4.3a14.5,14.5,0,0,1-3.2-5.9Z"/><path class="cls-4" d="M-.7,16.5C3.4,19.3,5.9,24,1.9,34.8-3.9,50.6-.2,56.7,15,54.7c4.6.1,4.5,5.1-.4,4.7-.7-.1-.2-.1.2-.5s.7-2.1-2.7-1.6S4.6,58.7-.7,55c-7.6-5.3,3.8-21.6,2.3-24.8a38.4,38.4,0,0,1-3.5,8.9V36.7a27.2,27.2,0,0,0,2-6.1,21.2,21.2,0,0,1-1.9,4V32.5c2.9-5.4,3.4-9.9.8-13Z"/><path class="cls-4" d="M52.9,53.1c-3.8-2.8-3.7-8.8-.3-18.3,8-21.6-9.7-19-14.9-24.9-2.6-3-7.5-8.2-10.1-11.3v3C35.3,9.9,44.8,21,50,27.8a15.7,15.7,0,0,0,.4-2.3,95.6,95.6,0,0,0-7.7-9.8c14.2,3.2,9.9,16-4.4,30.5-4.5,4.6-5.4,11-2.7,15.9l4.5.5c-9.8-11.6,4.3-16,10.8-32-1.1,5.6-4.7,11-8,16.6-4.6,8.1-1.2,12.9,4.6,15.6l1-3.5c-12.1-7.1,1.1-16.6,3.9-29.1,1.4,3.3-9.9,19.5-2.3,24.8l2.5,1.5.3-3.4Z"/><path class="cls-5" d="M26,23.6c-1.4,2.1-5.5,7.2-6.2,8.5s-.6,1.6-1.5,1-1-.3-1.2-.1-1.2.4-.8-1,.7-8.5.3-9.8c1.4-1.9,5.3-5.4,8.5-5.2.4,0,.5.3.6.5A27,27,0,0,1,26,23.6Z"/><path class="cls-6" d="M26,23.6c-1.4,2.1-5.5,7.2-6.2,8.5s-.6,1.6-1.5,1-1-.3-1.2-.1-1.2.4-.8-1,.7-8.5.3-9.8c1.4-1.9,5.3-5.4,8.5-5.2.4,0,.5.3.6.5A27,27,0,0,1,26,23.6Z"/><path class="cls-5" d="M26,23.6c1.5,2.1,5.5,7.2,6.2,8.5s.6,1.6,1.5,1,1-.3,1.2-.1,1.2.4.8-1-.7-8.5-.3-9.8c-1.4-1.9-5.2-5.4-8.5-5.2-.4,0-.5.3-.6.5A27,27,0,0,0,26,23.6Z"/><path class="cls-6" d="M26,23.6c1.5,2.1,5.5,7.2,6.2,8.5s.6,1.6,1.5,1,1-.3,1.2-.1,1.2.4.8-1-.7-8.5-.3-9.8c-1.4-1.9-5.2-5.4-8.5-5.2-.4,0-.5.3-.6.5A27,27,0,0,0,26,23.6Z"/><path class="cls-5" d="M26.8,17c1.8-.2,5.3,1.1,8.6,5.2a23.1,23.1,0,0,0-.2,5.1c5,9,8,6.8,8.6,4.2-.2.9.2-2-.9-.5s-2,.3-2.6-1.7S35.6,15.1,26.8,16.6c-.3.3-1.1.2-1.7,0C15.8,15.1,13,27.1,12,29.1S10.2,31.9,9.2,31s-.9,1.4-1,.5c.5,2.6,4.1,4.6,8.6-4.5a21.1,21.1,0,0,0-.2-4.9c2.6-3.1,6.2-5.4,8.6-5.1A4.3,4.3,0,0,0,26.8,17Z"/><path class="cls-6" d="M26.8,17c1.8-.2,5.3,1.1,8.6,5.2a23.1,23.1,0,0,0-.2,5.1c5,9,8,6.8,8.6,4.2-.2.9.2-2-.9-.5s-2,.3-2.6-1.7S35.6,15.1,26.8,16.6c-.3.3-1.1.2-1.7,0C15.8,15.1,13,27.1,12,29.1S10.2,31.9,9.2,31s-.9,1.4-1,.5c.5,2.6,4.1,4.6,8.6-4.5a21.1,21.1,0,0,0-.2-4.9c2.6-3.1,6.2-5.4,8.6-5.1A4.3,4.3,0,0,0,26.8,17Z"/><path class="cls-6" d="M17.5,30.8c1.2-1.2,2.2-11.7,6.8-13.6"/><path class="cls-6" d="M17.8,31.8c1.8.6,1.9-11.2,6.9-14.6"/><path class="cls-6" d="M25.1,17.4c-2.3,2.2-4.7,9.3-5.2,12.8"/><path class="cls-6" d="M34.5,30.8c-1.2-1.2-2.1-11.7-6.7-13.6"/><path class="cls-6" d="M34.2,31.8c-1.7.6-1.8-11.2-6.9-14.6"/><path class="cls-6" d="M26.9,17.4c2.3,2.2,4.7,9.3,5.2,12.8"/></pattern><linearGradient id="linear-gradient" x1="416.23" y1="272.66" x2="416.23" y2="264.7" gradientTransform="matrix(1, 0, 0, -1, 0, 596.72)" gradientUnits="userSpaceOnUse"><stop offset="0" stop-color="#fff"/><stop offset="0.11" stop-color="#fafbfc"/><stop offset="0.23" stop-color="#ededee"/><stop offset="0.36" stop-color="#d7d6d6"/><stop offset="0.5" stop-color="#b6b7b7"/><stop offset="0.64" stop-color="#8e8d8d"/><stop offset="0.78" stop-color="#5c5c5c"/><stop offset="0.93" stop-color="#212121"/><stop offset="1" stop-color="#010101"/></linearGradient><linearGradient id="Fading_Sky" x1="418.34" y1="199.14" x2="522.73" y2="199.14" gradientUnits="userSpaceOnUse"><stop offset="0" stop-color="#2484c6"/><stop offset="1" stop-color="#2484c6" stop-opacity="0"/></linearGradient><linearGradient id="linear-gradient-2" x1="416.32" y1="190.45" x2="474.05" y2="90.47" xlink:href="#Fading_Sky"/><linearGradient id="linear-gradient-3" x1="465.94" y1="190.45" x2="523.67" y2="90.47" xlink:href="#Fading_Sky"/><linearGradient id="linear-gradient-4" x1="416.32" y1="301.9" x2="474.05" y2="201.91" xlink:href="#Fading_Sky"/><linearGradient id="linear-gradient-5" x1="465.94" y1="301.9" x2="523.67" y2="201.91" xlink:href="#Fading_Sky"/><linearGradient id="linear-gradient-6" x1="178.63" y1="404.96" x2="178.63" y2="399.81" gradientTransform="translate(606.3 596.7) rotate(180)" gradientUnits="userSpaceOnUse"><stop offset="0" stop-color="#fff"/><stop offset="0.14" stop-color="#faf8f5"/><stop offset="0.28" stop-color="#eee8e2"/><stop offset="0.42" stop-color="#e2d5cc"/><stop offset="0.56" stop-color="#d1bdae"/><stop offset="0.7" stop-color="#bda28a"/><stop offset="0.84" stop-color="#a78267"/><stop offset="0.97" stop-color="#906444"/><stop offset="1" stop-color="#8b5f3d"/></linearGradient><linearGradient id="Fading_Sky-2" x1="531.17" y1="199.14" x2="635.56" y2="199.14" gradientTransform="matrix(1, 0, 0, -1, -223.57, 398.27)" xlink:href="#Fading_Sky"/><linearGradient id="linear-gradient-7" x1="529.16" y1="190.45" x2="586.88" y2="90.47" gradientTransform="matrix(-1, 0, 0, 1, 943.16, 0)" xlink:href="#Fading_Sky"/><linearGradient id="linear-gradient-8" x1="578.77" y1="190.45" x2="636.5" y2="90.47" gradientTransform="matrix(-1, 0, 0, 1, 943.16, 0)" xlink:href="#Fading_Sky"/><linearGradient id="linear-gradient-9" x1="529.16" y1="301.9" x2="586.88" y2="201.91" gradientTransform="matrix(-1, 0, 0, 1, 943.16, 0)" xlink:href="#Fading_Sky"/><linearGradient id="linear-gradient-10" x1="578.77" y1="301.9" x2="636.5" y2="201.91" gradientTransform="matrix(-1, 0, 0, 1, 943.16, 0)" xlink:href="#Fading_Sky"/><linearGradient id="linear-gradient-11" x1="65.79" y1="404.96" x2="65.79" y2="399.81" gradientTransform="matrix(1, 0, 0, -1, 336.9, 596.72)" xlink:href="#linear-gradient-6"/></defs><title>indoorbackgrounds</title><g class="cls-7"><rect class="cls-8" y="-62.9" width="841.9" height="87"/><g class="cls-9"><polyline class="cls-10" points="154.3 -1.1 215.1 -1.1 252.5 17.8 571.7 17.8 609.1 -1.1 669.9 -1.1"/></g><rect class="cls-1" x="133.9" y="-1.4" width="541.2" height="601.99"/><rect class="cls-11" x="610.3" y="-1.3" width="231.6" height="447.04"/><rect class="cls-1" x="133.9" y="-1.4" width="541.2" height="601.99"/><polygon class="cls-12" points="251.7 414.9 215.1 451.3 215.1 -1.1 251.7 17.8 251.7 414.9"/><rect class="cls-1" x="133.9" y="-1.4" width="541.2" height="601.99"/><polygon class="cls-12" points="573.6 414.9 610.3 451.3 610.3 -1.1 573.6 17.8 573.6 414.9"/><rect class="cls-1" x="133.9" y="-1.4" width="541.2" height="601.99"/><polygon class="cls-13" points="367.1 650.6 398.6 650.6 398.6 411.1 376.9 411.1 367.1 650.6"/><polygon class="cls-13" points="399.4 650.6 430.8 650.6 430.8 411.1 398.6 411.1 399.4 650.6"/><polygon class="cls-13" points="336.3 649.3 367.8 650.6 377.6 411.4 355.6 410.5 336.3 649.3"/><polygon class="cls-13" points="304.2 650.6 335.6 653.3 355.3 414.6 333.6 412.8 304.2 650.6"/><polygon class="cls-13" points="275 650.6 306.1 650.5 335.5 412.9 313.9 410.2 275 650.6"/><polygon class="cls-13" points="242.1 651.4 273.1 656.6 313.2 415 291.2 415 242.1 651.4"/><polygon class="cls-13" points="208.8 650.6 241.2 655.9 292 414.5 269.9 415.1 208.8 650.6"/><polygon class="cls-13" points="245.8 421 177.5 650.6 209.3 650.5 269.9 415.1 251.7 414.9 245.8 421"/><polygon class="cls-13" points="143.8 650.6 176.5 654.2 245.2 421.8 215.3 450.3 143.8 650.6"/><rect class="cls-1" x="133.9" y="-1.4" width="541.2" height="601.99"/><polygon class="cls-13" points="457.8 650.6 426.3 650.6 426.3 411.1 448.1 411.1 457.8 650.6"/><polygon class="cls-13" points="488.6 649.3 457.2 650.6 447.3 411.4 469 410.5 488.6 649.3"/><polygon class="cls-13" points="520.8 650.6 489.4 653.3 469.7 414.6 491.3 412.8 520.8 650.6"/><polygon class="cls-13" points="550 650.6 518.9 650.5 489.5 412.9 511 410.2 550 650.6"/><polygon class="cls-13" points="582.9 651.4 551.8 656.6 511.8 415.2 534.1 414.9 582.9 651.4"/><polygon class="cls-13" points="616.2 650.6 583.7 655.9 533 414.5 555.1 415.1 616.2 650.6"/><polygon class="cls-13" points="579.2 421 647.4 650.6 615.7 650.5 555.1 415.1 573.2 414.9 579.2 421"/><polygon class="cls-13" points="681.1 650.6 649.6 655 579.3 420.5 609.7 450.3 681.1 650.6"/><rect class="cls-1" x="133.9" y="-1.4" width="541.2" height="601.99"/><rect class="cls-14" x="251.7" y="17.8" width="321.9" height="397.11"/><rect class="cls-1" x="133.9" y="-1.4" width="541.2" height="601.99"/><polygon class="cls-15" points="573.3 414.9 251.9 415 251.9 394.2 573.3 394.1 573.3 414.9"/><rect class="cls-1" x="133.9" y="-1.4" width="541.2" height="601.99"/><polygon class="cls-16" points="251.4 415 215.3 450.2 215.5 425.1 251.4 394.5 251.4 415"/><rect class="cls-1" x="133.9" y="-1.4" width="541.2" height="601.99"/><polygon class="cls-16" points="573.9 415.2 610.6 451.1 610.6 426.3 573.9 394.7 573.9 415.2"/><g class="cls-9"><g class="cls-17"><rect class="cls-18" x="427" y="86.8" width="44.8" height="107.46"/><rect class="cls-19" x="427" y="86.8" width="44.8" height="107.46"/></g></g><g class="cls-9"><g class="cls-17"><rect class="cls-18" x="476.6" y="86.8" width="44.8" height="107.46"/><rect class="cls-19" x="476.6" y="86.8" width="44.8" height="107.46"/></g></g><g class="cls-9"><g class="cls-17"><rect class="cls-18" x="427" y="198.3" width="44.8" height="107.46"/><rect class="cls-19" x="427" y="198.3" width="44.8" height="107.46"/></g></g><g class="cls-9"><g class="cls-17"><rect class="cls-18" x="476.6" y="198.3" width="44.8" height="107.46"/><rect class="cls-19" x="476.6" y="198.3" width="44.8" height="107.46"/></g></g><rect class="cls-1" x="133.9" y="-1.4" width="541.2" height="601.99"/><rect class="cls-20" x="296.7" y="71.8" width="234.3" height="257.2"/><rect class="cls-1" x="133.9" y="-1.4" width="541.2" height="601.99"/><rect class="cls-1" x="133.9" y="-1.4" width="541.2" height="601.99"/><rect class="cls-1" x="133.9" y="-1.4" width="541.2" height="601.99"/><rect class="cls-1" x="133.9" y="-1.4" width="541.2" height="601.99"/><rect class="cls-1" x="133.9" y="-1.4" width="541.2" height="601.99"/><rect class="cls-1" x="133.9" y="-1.4" width="541.2" height="601.99"/><rect class="cls-1" x="133.9" y="-1.4" width="541.2" height="601.99"/><rect class="cls-1" x="133.9" y="-1.4" width="541.2" height="601.99"/><polyline class="cls-21" points="634.1 450.9 703.7 638.4 726.1 616.6 657.9 450.2"/><polyline class="cls-21" points="610.5 450.9 678.2 642.5 699.7 627.1 634.3 450.2"/><polyline class="cls-21" points="682.4 450.1 760.9 634 782.2 611.2 706.2 448.2"/><polyline class="cls-21" points="658.8 451.3 735.6 639.3 756.4 623 682.5 449.4"/><polyline class="cls-21" points="731.5 449.1 820.9 628 840.8 603.9 755.1 445.8"/><polyline class="cls-21" points="753.7 447.3 848.8 624.5 868.8 600.5 783 442.3"/><polyline class="cls-21" points="785 444.7 880.1 622 900.1 597.9 814.4 439.8"/><polyline class="cls-21" points="815 440 910.1 617.2 930.1 593.2 844.4 435.1"/><polyline class="cls-21" points="708 451.7 792.7 632.7 815.7 617.2 731.5 448.4"/><polyline class="cls-21" points="169.3 444.7 101.2 611.2 123.6 633 193.1 445.5"/><polyline class="cls-21" points="193 444.7 127.6 621.7 149.1 637 216.8 445.5"/><polyline class="cls-21" points="121.1 442.8 45.1 605.8 66.4 628.6 144.9 444.7"/><polyline class="cls-21" points="144.8 443.9 70.9 617.5 91.7 633.9 168.5 445.8"/><polyline class="cls-21" points="72.2 440.4 -13.5 598.5 6.4 622.5 95.8 443.7"/><polyline class="cls-21" points="39.7 441.2 -46 599.4 -26.1 623.4 69 446.2"/><polyline class="cls-21" points="8.4 438.7 -77.4 596.8 -57.4 620.9 37.7 443.7"/><polyline class="cls-21" points="-21.6 434 -107.4 592.1 -87.4 616.1 7.7 438.9"/><polyline class="cls-21" points="95.7 442.9 11.6 611.8 34.6 627.2 119.3 446.3"/><rect class="cls-22" x="291.1" y="324.1" width="250.2" height="7.96"/><rect class="cls-23" x="418.3" y="82.1" width="104.4" height="234.15"/><rect class="cls-24" x="418.3" y="82" width="104.4" height="234.35"/><rect class="cls-25" x="418.3" y="82" width="104.4" height="234.35"/><rect class="cls-26" x="422.8" y="86.7" width="44.8" height="107.46"/><rect class="cls-27" x="472.4" y="86.7" width="44.8" height="107.46"/><rect class="cls-28" x="422.8" y="198.2" width="44.8" height="107.46"/><rect class="cls-29" x="472.4" y="198.2" width="44.8" height="107.46"/><path class="cls-30" d="M438.8,195.2c0,1.7-3.3,2.7-4.9.3H419.6c-1.8,2.4-3.2,1-3.2-.7a3,3,0,0,1,3.1-3h14.3a3,3,0,0,1,3.1,3l1.9.4Z"/><rect class="cls-31" x="307.6" y="82.1" width="104.4" height="234.15" transform="translate(719.6 398.3) rotate(-180)"/><rect class="cls-24" x="307.6" y="82" width="104.4" height="234.35"/><rect class="cls-25" x="307.6" y="82" width="104.4" height="234.35"/><rect class="cls-32" x="362.7" y="86.7" width="44.8" height="107.46"/><rect class="cls-33" x="313.1" y="86.7" width="44.8" height="107.46"/><rect class="cls-34" x="362.7" y="198.2" width="44.8" height="107.46"/><rect class="cls-35" x="313.1" y="198.2" width="44.8" height="107.46"/><path class="cls-36" d="M391.5,195.2l2-.4a2.9,2.9,0,0,1,3-3h14.3a3,3,0,0,1,3.1,3c0,1.7-1.4,3.1-3.2.7H396.4c-1.6,2.4-4.9,1.4-4.9-.3Z"/><path class="cls-37" d="M610.5,427.2H841.7v24.4H610.5Z"/><rect class="cls-38" y="-1.3" width="215.1" height="447.04"/><rect class="cls-37" x="-0.5" y="420.7" width="215.6" height="24.44"/></g></svg>