<?xml version="1.0" encoding="utf-8"?>
<!-- Generator: Adobe Illustrator 22.1.0, SVG Export Plug-In . SVG Version: 6.00 Build 0)  -->
<svg version="1.1" id="Layer_1" xmlns="http://www.w3.org/2000/svg" xmlns:xlink="http://www.w3.org/1999/xlink" x="0px" y="0px"
	 viewBox="0 0 686.3 1280" style="enable-background:new 0 0 686.3 1280;" xml:space="preserve">
<g transform="translate(0.000000,1280.000000) scale(0.100000,-0.100000)">
	<path d="M2937.1,12227c-95-36-199-102-248-157c-45-50-104-171-163-335c-27-74-35-87-125-176c-66-65-107-114-127-155
		c-34-68-43-77-93-93c-46-15-102-72-93-94c5-13,0-17-19-17c-14,0-29-5-33-12c-5-8,2-9,26-5l33,7l-26-24c-14-13-33-41-42-61
		c-14-35-14-39,2-51c10-7,22-14,27-14s3-6-3-13c-6-8-12-23-14-35s-7-25-12-29c-4-5-5-2-1,5c14,23-9,11-54-29c-33-30-36-35-12-19
		c38,26,42,13,6-21c-14-13-42-48-60-77c-23-35-46-58-69-68c-50-20-51-18-14,25c124,143,116,151-21,21c-46-44-88-80-92-80
		c-5,0-17-9-27-19c-23-23-146-69-216-81c-27-5-58-11-67-15c-15-6-18-1-18,33s4,41,23,45c20,4,20,4-4,6l-25,1l-24,198
		c-23,200-31,422-17,522c7,49,15,63,76,131c38,42,71,89,75,105c4,15,25,57,46,94c60,99,60,116,10,200c-37,62-80,106-80,83
		c0-4-13,7-29,25c-32,35-70,42-91,17c-10-12-16-13-26-4c-8,6-23,9-34,6s-23-1-26,4c-13,22-45,7-70-32c-22-35-24-46-15-66
		c10-21,5-40-33-126c-49-114-66-182-66-262c0-30-11-157-25-282c-38-352-48-563-36-744c6-85,16-180,22-209c24-112,71-185,140-221
		c22-11,39-25,39-32c0-9,2-9,8,0c5,8,33,8,112-3c58-7,169-16,247-20s146-10,152-14c6-3,14-28,17-54c7-62,37-139,74-189
		c29-39,29-40,13-76c-50-113-66-164-108-325c-53-208-76-257-184-387c-151-182-237-328-297-497c-24-69-53-125-112-210
		c-333-491-692-1408-836-2137c-75-376-159-1060-129-1042c6,4,16,43,23,87s16,80,21,80c12,0,87-113,115-174c27-59,86-348,104-506
		c31-284,53-257,38,48c-12,256-4,388,30,445c24,41,88,86,134,93c51,9,72-17,93-110c26-116,39-108,30,20c-12,161-8,525,5,574
		c14,51,50,90,84,90c30,0,61-37,70-85c4-19,11-35,16-35c6,0,10,63,10,153c0,85,3,190,7,233l7,79l17-85c30-143,58-318,75-464
		c21-187,51-283,139-452c171-325,191-394,210-729c8-132,21-330,30-440c8-110,15-250,15-312c0-72,4-114,11-119c8-5,10-40,5-118
		c-8-140,3-184,115-442c75-172,83-197,96-298c8-61,18-124,22-141c8-29,9-30,18-7c5,14,7-136,5-388c-4-345-2-409,9-405s13-10,11-76
		c-3-78-2-83,32-139c41-66,46-112,21-194c-31-100-14-222,47-352l33-69l11,135c12,130,21,187,67,425c18,97,21,146,21,410
		c0,297-17,558-58,854c-12,86-11,92,3,74c112-146,151-183,276-267c39-26,129-76,200-111l130-64l59-106c32-58,78-154,102-212l43-105
		l-40-72c-37-65-41-76-37-128c10-137,203-406,406-566c61-48,89-56,50-15c-56,60-73,126-40,156c28,25,60,21,99-13c28-25,43-30,91-31
		c90-2,104-9,214-102c138-119,227-176,458-297c578-303,649-343,818-465c50-36,93-65,97-65c16,0,1,73-27,120c-77,136-234,252-579,429
		c-178,92-222,119-261,161c-26,28-51,65-56,83c-8,31-7,32,24,35c21,2,54-8,94-28c34-17,64-29,66-27c3,2-19,20-47,38
		c-29,19-57,37-63,41c-12,8,30,58,50,58c6,0,18-8,25-17c8-9,32-29,53-45c56-40,102-38,204,11c109,54,134,57,225,32
		c159-43,242-94,282-169c19-38,24-42,25-23c0,20,4,22,23,16c12-4,49-9,83-12c51-4,78,1,175,32c101,33,123,37,190,33
		c94-6,120-20,263-146c58-50,108-92,112-92c3,0-1,11-10,25c-12,18-13,30-6,50c17,46,50,50,200,25c132-21,137-21,225-5
		c177,34,319-7,550-156c50-31,104-63,120-70c17-7,43-24,58-38l28-26l-10,28c-15,40-85,140-157,227c-260,312-573,480-1114,599
		c-121,26-1073,236-1372,301c-309,68-378,93-633,225c-388,200-365,187-365,216c0,39,41,71,98,77c39,3,59-1,103-23c30-15,66-39,81-53
		c37-35,43-24,12,22c-14,20-45,94-69,164c-36,103-46,150-56,252c-10,111-10,135,5,202c24,107,82,220,155,300c34,36,61,71,61,77
		c0,13,6,14,47,2c65-19,41,9-47,55c-168,86-409,272-595,459c-122,123-247,277-366,452c-105,155-106,134,15,277c54,63,74,95,70,108
		c-6,20,3,22,43,8c27-9,27-9-7,19c-19,16-81,65-136,109c-119,94-115,84-139,337c-9,88-21,201-29,252l-13,92l41,3l41,3l-56,26
		c-51,24-68,27-194,28c-77,1-141,4-143,6c-8,7,69,149,216,401c301,516,377,671,542,1094c46,118,87,219,90,223c10,12,30-153,40-333
		c18-299-21-729-106-1189c-13-74-23-136-20-138c2-2,13,12,24,32c23,37,104,95,134,95c48,0,122-64,138-121c22-77-5-514-39-638
		c-11-41-19-76-17-79c5-5,52,76,61,106c3,12,27,38,52,57c62,47,95,47,142-3c43-46,164-257,191-335c36-103,52-359,29-467
		c-6-28-9-54-6-56c6-6,170,317,252,496c116,254,135,288,191,349c94,102,149,110,240,35c23-19,47-34,52-34s13-30,17-67
		c15-144,38,14,51,347c8,219-8,536-37,735c-75,522-272,1007-622,1529c-85,126-306,419-428,565l-104,124v71c0,64-5,81-47,169
		c-49,100-53,119-41,177l6,33l18-24l19-24l-11,32c-6,18-9,38-6,45c3,8,6,6,6-5c1-10,9-34,20-55c10-20,22-57,26-81s25-71,46-104
		c44-68,45-75,24-120l-16-32l21,24c29,33,25,71-16,167c-35,81-36,87-37,216l-2,133l40,70c32,56,41,66,43,47c2-12-7-44-19-70
		c-13-26-24-51-24-57c-1-5-4-30-9-55c-4-27-3-61,2-80c10-34,10-34,11,18c1,38,7,59,21,74c19,21,20,21,20,2c0-18,1-18,13,2
		c6,11,22,36,35,55c12,19,32,66,44,104c11,39,36,96,55,129c18,32,39,79,45,105c6,25,26,78,45,116c28,59,35,88,44,185
		c6,63,14,118,18,122s84-144,178-330c128-252,179-363,203-442c71-235,83-268,141-365c33-55,89-140,125-190c213-293,329-522,379-746
		c18-84,21-71-50-242c-20-49-40-112-46-140c-9-47-28-122-50-191c-9-31,2-56,27-56c23,0,82,59,89,88c9,43,43,92,63,92
		c28,0,51-31,102-133c38-78,49-92,71-95c15-2,34,4,44,15c11,10,29,16,46,15c20-3,32,4,46,24c10,15,42,50,71,78c30,30,52,60,52,72
		c0,11,9,29,20,39c37,33,33,41-113,295c-45,77-67,126-67,147c0,18-12,63-26,100c-14,38-54,151-88,253c-110,323-162,442-273,624
		c-76,125-99,173-118,245c-8,34-34,103-56,154s-78,187-123,302c-46,116-118,287-159,380c-42,94-97,240-122,325c-26,85-58,190-71,233
		c-21,67-22,83-12,125c17,78-2,163-56,242c-25,36-54,89-66,119c-11,30-31,72-44,95s-29,59-36,81s-21,50-30,62c-24,32-46,173-30,202
		c6,12,8,30,5,40s-10,115-15,232c-12,272-27,469-41,539c-22,109-101,215-196,263c-57,30-101,39-192,42c-36,1-95,5-131,9
		C3008.1,12249,2987.1,12246,2937.1,12227z M2372.1,11507c0-2-18-28-40-57c-39-52-57-59-23-10
		C2336.1,11481,2372.1,11519,2372.1,11507z M2619.1,11133c-2-16-4-3-4,27s2,43,4,28C2621.1,11172,2621.1,11148,2619.1,11133z
		 M2127.1,11123c3-9-1-23-10-33c-8-9-12-19-9-22s1-8-3-11c-14-9-13,35,0,53c11,13,10,13-6,1c-21-16-41-3-32,21
		C2075.1,11151,2118.1,11144,2127.1,11123z M2280.1,11074c30-21,57-75,86-176c13-46,28-94,34-108c5-14,12-37,16-52c6-25,3-28-17-28
		c-13,0-28-5-35-12c-6-6-14-10-16-7c-13,13-107,293-114,342c-8,50-7,57,7,57C2250.1,11090,2268.1,11083,2280.1,11074z M2629.1,11048
		c-3-7-5-2-5,12s2,19,5,13C2631.1,11066,2631.1,11054,2629.1,11048z M2161.1,10979c-10-32-36-63-118-141c-58-55-101-99-94-97
		c26,8,201,179,213,208c7,17,15,31,19,31c12,0,100-259,101-296c0-6-25-13-57-16s-101-22-153-43c-197-76-228-85-400-109
		c-96-14-197-33-223-42s-50-14-53-11s-8,24-11,46c-6,41-5,41,39,61c25,11,81,27,124,35l79,15l-65-5l-65-4l80,28c44,15,99,37,123,50
		c24,12,71,31,105,42c49,15,67,27,87,55c64,91,104,136,140,159c21,13,43,31,47,40c5,8,24,26,43,39
		C2166.1,11054,2178.1,11039,2161.1,10979z M1479.1,10604c-3-3-12-4-19-1c-8,3-5,6,6,6C1477.1,10610,1483.1,10607,1479.1,10604z
		 M1412.1,10585c-14-7-27-11-30-9c-6,7,22,24,40,23C1431.1,10599,1427.1,10593,1412.1,10585z M3831.1,10542c20-32,31-61,30-83
		c0-33-1-33-18,17c-10,27-26,64-35,82C3784.1,10605,3796.1,10597,3831.1,10542z M3710.1,10515c-3-3-9,2-12,12c-6,14-5,15,5,6
		C3710.1,10526,3713.1,10518,3710.1,10515z M3839.1,10378c-3-7-5-2-5,12s2,19,5,13C3841.1,10396,3841.1,10384,3839.1,10378z
		 M3592.1,9696c0-3-4-8-10-11c-5-3-10-1-10,4c0,6,5,11,10,11C3588.1,9700,3592.1,9698,3592.1,9696z M3438.1,9623
		c-20-56-46-106-53-100c-3,3,10,38,27,77C3448.1,9676,3461.1,9688,3438.1,9623z M3541.1,9586c-6-21-12-36-14-34c-3,2,0,21,6,42
		s12,36,14,34C3550.1,9626,3547.1,9607,3541.1,9586z M3569.1,9501c-2-32-12-71-21-87l-17-29l5,60c4,60,20,115,32,115
		C3572.1,9560,3572.1,9534,3569.1,9501z M3462.1,9361c-11-23-22-41-25-41c-2,0,6,28,18,63c15,42,23,55,25,40
		C3482.1,9411,3474.1,9383,3462.1,9361z M3339.1,8908c-3-8-6-5-6,6c-1,11,2,17,5,13C3341.1,8924,3342.1,8915,3339.1,8908z
		 M3003.1,8812c-6-11-16-64-22-118c-13-121-19-140-29-96c-9,40,15,188,35,219c8,12,16,30,16,40c1,13,3,12,6-4
		C3011.1,8841,3009.1,8822,3003.1,8812z M3201.1,8695v-20l-9,20c-5,11-8,38-8,60v40l9-40C3197.1,8733,3201.1,8706,3201.1,8695z
		 M3109.1,8633c-3-10-5-2-5,17s2,27,5,18C3111.1,8658,3111.1,8642,3109.1,8633z M3059.1,8543c-3-10-5-2-5,17s2,27,5,18
		C3061.1,8568,3061.1,8552,3059.1,8543z M3009.1,8543c-3-10-5-4-5,12c0,17,2,24,5,18C3011.1,8566,3011.1,8552,3009.1,8543z
		 M3150.1,8503c22-43,42-91,46-108c6-30-75,121-88,163C3094.1,8603,3113.1,8578,3150.1,8503z M3012.1,8477c0-10-4-15-10-12
		c-5,3-10,18-10,33c0,21,2,24,10,12C3007.1,8502,3012.1,8487,3012.1,8477z M3081.1,8413c1-7-6-10-14-7c-10,4-15,19-14,48l1,41l13-35
		C3074.1,8441,3081.1,8420,3081.1,8413z M3163.1,8378c10-21,19-47,19-60c0-20-5-18-45,22c-41,41-45,49-39,78c6,32,7,32,26,15
		C3135.1,8423,3153.1,8398,3163.1,8378z M3199.1,8288c-3-7-5-2-5,12s2,19,5,13C3201.1,8306,3201.1,8294,3199.1,8288z"/>
	<path d="M1847.1,10696c-22-8-62-23-90-36c-27-12-68-25-90-30c-33-6-35-8-12-9c16-1,56,10,90,23s83,31,110,41c26,9,47,19,47,21
		C1902.1,10712,1891.1,10710,1847.1,10696z"/>
	<path d="M1470.1,10693c23-2,59-2,80,0c20,2,1,4-43,4S1446.1,10695,1470.1,10693z"/>
</g>
</svg>
