<?xml version="1.0" standalone="no"?>
<!DOCTYPE svg PUBLIC "-//W3C//DTD SVG 20010904//EN"
 "http://www.w3.org/TR/2001/REC-SVG-20010904/DTD/svg10.dtd">
<svg version="1.0" xmlns="http://www.w3.org/2000/svg"
 width="985.000000pt" height="1280.000000pt" viewBox="0 0 985.000000 1280.000000"
 preserveAspectRatio="xMidYMid meet">
<metadata>
Created by potrace 1.15, written by Peter Selinger 2001-2017
</metadata>
<g transform="translate(0.000000,1280.000000) scale(0.100000,-0.100000)"
fill="#000000" stroke="none">
<path d="M8666 12265 c-3 -8 -1 -15 4 -15 6 0 10 7 10 15 0 8 -2 15 -4 15 -2
0 -6 -7 -10 -15z"/>
<path d="M3570 12240 c0 -5 5 -10 10 -10 6 0 10 5 10 10 0 6 -4 10 -10 10 -5
0 -10 -4 -10 -10z"/>
<path d="M4399 12153 c-19 -50 -29 -55 -51 -28 -25 32 -41 32 -63 -1 l-17 -26
-22 21 c-32 30 -40 27 -67 -23 -12 -24 -35 -51 -50 -60 -22 -13 -29 -26 -34
-69 -12 -87 -22 -100 -30 -40 -8 58 -37 113 -59 113 -8 0 -25 20 -37 45 -12
25 -28 45 -34 45 -7 0 -17 -18 -24 -40 -14 -47 -24 -50 -47 -11 -14 24 -61 61
-77 61 -2 0 -12 -20 -21 -45 l-17 -45 -54 40 c-49 36 -55 38 -69 24 -9 -9 -16
-32 -16 -54 0 -49 -11 -56 -44 -25 -39 36 -70 22 -74 -33 l-3 -41 -31 19 c-26
16 -33 16 -44 5 -17 -17 -17 -36 -2 -86 6 -22 8 -42 5 -45 -3 -4 -23 3 -43 15
-40 24 -57 16 -49 -24 2 -11 7 -45 10 -75 10 -90 52 -193 117 -288 17 -24 27
-46 24 -50 -15 -14 -138 132 -141 167 -1 9 -20 55 -43 102 -53 110 -64 161
-46 236 7 31 11 60 8 65 -11 18 -54 7 -70 -18 l-17 -25 -21 25 c-19 23 -23 24
-41 11 -18 -15 -19 -17 -3 -60 10 -25 14 -45 10 -45 -4 0 -27 7 -51 16 -29 10
-47 12 -54 5 -5 -5 -8 -37 -5 -71 l4 -61 -55 3 c-53 3 -56 2 -54 -20 2 -18 17
-57 41 -106 2 -4 -10 -5 -27 -1 -24 5 -32 3 -37 -9 -6 -16 15 -43 85 -112 13
-13 19 -24 13 -24 -7 0 -14 -11 -18 -25 -3 -14 -7 -25 -8 -25 0 0 -26 7 -56
15 -30 8 -75 15 -100 15 -73 0 -190 -43 -190 -69 0 -5 21 -21 46 -36 l46 -27
-31 -32 c-36 -37 -41 -66 -11 -66 30 0 36 -28 11 -54 -30 -31 -26 -53 12 -72
30 -15 67 -47 67 -58 0 -2 -13 -9 -30 -15 -48 -16 -38 -38 24 -51 77 -16 86
-31 47 -75 -17 -20 -29 -40 -26 -46 9 -13 146 -10 260 6 122 18 195 19 246 3
38 -11 53 -28 25 -28 -7 0 -24 -9 -38 -20 -51 -39 -215 -47 -348 -15 -30 7
-79 16 -109 20 -57 8 -58 7 -37 -45 5 -12 -4 -15 -49 -16 -62 0 -86 -14 -65
-38 19 -23 6 -43 -45 -68 -43 -22 -44 -24 -30 -45 8 -12 31 -27 50 -33 l34
-11 -17 -33 c-15 -29 -23 -34 -64 -39 -25 -3 -70 -18 -98 -32 -52 -27 -54 -31
-36 -76 5 -11 -5 -24 -34 -43 -46 -30 -49 -42 -19 -80 l22 -28 -37 -30 c-40
-33 -45 -52 -19 -67 11 -7 14 -14 8 -18 -5 -5 -11 -23 -12 -41 -2 -27 2 -35
22 -42 29 -11 32 -31 9 -66 -22 -33 -7 -49 46 -49 42 0 47 -4 29 -22 -11 -11
-3 -83 10 -83 3 0 21 4 38 9 l33 10 -3 -47 -2 -47 77 0 c47 -1 83 -6 90 -13 7
-7 37 -12 68 -12 105 0 246 95 304 206 l25 49 1 -36 c0 -47 45 -139 67 -139
30 0 1 -17 -70 -40 -48 -15 -81 -20 -108 -16 -35 6 -42 3 -82 -37 -25 -25 -65
-52 -93 -62 -27 -10 -53 -22 -57 -26 -5 -4 8 -25 29 -48 l37 -42 -22 -22 c-28
-30 -27 -55 3 -67 29 -11 40 -26 26 -35 -16 -10 -41 -77 -35 -92 2 -8 18 -19
34 -24 l30 -11 -19 -36 c-13 -23 -16 -40 -10 -46 10 -10 99 -11 130 -1 25 8
25 -5 0 -55 l-20 -40 24 0 c13 0 26 3 28 8 4 9 69 44 74 39 2 -1 -3 -25 -11
-52 -8 -26 -15 -56 -15 -67 0 -22 28 -24 36 -3 4 8 12 15 19 15 7 0 24 9 39
21 l26 20 0 -61 0 -62 45 25 45 25 26 -31 c15 -17 31 -42 37 -54 20 -44 43
-28 72 50 18 48 35 62 35 28 0 -11 5 -23 10 -26 6 -3 10 -22 10 -41 0 -46 11
-43 39 10 17 30 29 42 39 38 8 -3 21 3 28 13 11 15 14 16 14 3 0 -8 9 -23 21
-34 21 -19 21 -18 59 26 35 41 38 43 54 27 27 -26 42 -21 75 29 69 104 76 129
76 254 -1 95 -5 125 -23 171 -29 72 -39 201 -29 357 4 59 11 82 38 127 18 30
34 53 36 51 2 -2 -2 -34 -8 -72 -7 -38 -12 -87 -11 -109 0 -43 18 -178 28
-207 4 -13 0 -18 -12 -18 -26 0 -12 -70 25 -122 24 -35 31 -55 34 -108 2 -38
-2 -81 -10 -105 -15 -42 -15 -152 -2 -161 18 -11 30 -84 20 -122 -44 -162 -95
-398 -121 -557 -17 -104 -35 -211 -41 -237 -6 -26 -17 -95 -24 -155 l-13 -108
-1 140 c-1 77 -4 174 -7 215 -7 101 -48 321 -85 455 -17 61 -35 130 -41 155
-5 25 -14 49 -18 54 -8 8 -15 -258 -12 -399 5 -155 4 -564 -1 -572 -9 -15 26
-299 43 -338 4 -11 13 -40 20 -65 7 -25 16 -48 22 -51 5 -3 9 -21 9 -40 0 -19
-1 -110 -1 -204 -1 -93 3 -200 9 -236 6 -36 11 -207 11 -380 0 -173 5 -352 10
-399 19 -153 29 -253 35 -355 3 -55 10 -145 16 -200 15 -163 22 -462 10 -445
-6 8 -11 21 -11 29 0 8 -6 22 -13 30 -8 9 -20 32 -27 51 -7 19 -26 61 -42 93
-26 53 -57 150 -78 247 -30 141 -208 517 -324 684 -87 125 -157 232 -172 266
-9 19 -46 79 -83 133 -36 53 -85 130 -109 170 -49 81 -216 420 -257 518 -14
35 -37 87 -50 115 -70 151 -103 311 -125 601 -6 73 -13 139 -16 148 -10 26
-21 7 -23 -42 -3 -60 -6 -81 -15 -113 -8 -28 8 -305 24 -425 6 -44 16 -116 21
-160 18 -139 85 -381 135 -490 12 -28 31 -73 42 -100 75 -186 240 -487 316
-577 17 -20 58 -80 91 -135 33 -54 84 -133 115 -177 107 -153 130 -193 195
-341 173 -392 192 -429 279 -550 24 -33 48 -59 55 -57 6 1 11 -5 11 -13 0 -8
7 -15 15 -15 8 0 15 -4 15 -10 0 -5 17 -18 39 -29 l38 -20 6 -78 c10 -119 25
-219 42 -271 8 -26 28 -101 45 -167 17 -66 35 -133 40 -150 18 -61 80 -312 90
-365 5 -30 16 -77 24 -105 8 -27 24 -111 35 -185 40 -257 44 -275 57 -310 7
-19 23 -89 35 -155 11 -66 30 -169 41 -230 28 -157 37 -220 44 -300 3 -38 11
-78 16 -88 5 -10 8 -21 5 -23 -3 -3 -1 -23 4 -45 7 -31 6 -43 -5 -55 -8 -7
-17 -14 -21 -14 -3 0 -22 35 -42 77 -61 134 -177 365 -193 387 -9 12 -29 46
-45 76 -31 60 -167 262 -250 375 -47 63 -133 191 -250 375 -22 36 -53 90 -69
120 -15 30 -43 82 -62 114 -19 32 -51 91 -72 130 -20 39 -60 105 -88 146 -62
90 -86 137 -121 233 -32 89 -68 170 -139 310 -30 59 -54 118 -54 130 0 12 -9
33 -20 47 -11 14 -20 30 -20 35 0 11 -89 190 -164 330 -64 118 -147 260 -213
362 -29 45 -53 84 -53 87 0 3 -19 36 -42 73 -58 95 -188 353 -188 374 0 6 -6
25 -14 42 -40 89 -118 334 -147 462 -6 28 -15 54 -20 60 -5 5 -9 16 -9 26 0
26 -59 205 -95 288 -67 156 -98 217 -135 267 -21 28 -56 84 -77 124 -21 41
-46 83 -57 93 -18 19 -19 19 -12 -29 4 -27 18 -80 31 -119 12 -38 32 -104 45
-145 12 -41 35 -111 50 -155 41 -114 104 -392 136 -590 39 -248 41 -256 69
-368 38 -150 101 -307 222 -554 8 -17 15 -34 15 -37 -2 -11 86 -174 124 -232
35 -52 113 -216 150 -317 8 -21 21 -48 29 -61 8 -12 17 -38 19 -56 2 -19 11
-39 20 -45 8 -7 14 -21 12 -32 -3 -11 6 -32 20 -48 17 -20 21 -31 13 -41 -7
-9 -5 -14 8 -17 17 -4 17 -5 0 -6 -10 0 -15 -6 -12 -11 4 -6 11 -8 16 -4 5 3
9 2 8 -3 -5 -30 2 -52 16 -47 18 7 19 0 3 -26 -7 -10 -9 -23 -5 -27 5 -4 12
-2 16 5 11 18 24 -1 40 -56 12 -42 41 -102 73 -152 17 -25 66 -153 88 -225 7
-22 28 -68 47 -103 19 -35 51 -96 70 -135 20 -40 43 -83 53 -97 9 -14 42 -73
73 -132 67 -127 196 -345 242 -408 42 -57 157 -233 215 -328 25 -40 52 -85 61
-100 9 -15 32 -56 51 -92 69 -131 209 -360 218 -355 5 3 12 0 16 -6 3 -6 1
-15 -6 -19 -8 -5 -5 -9 9 -13 13 -3 21 -13 21 -26 0 -12 6 -21 15 -21 8 0 15
-8 15 -18 0 -11 9 -27 20 -37 11 -10 22 -27 26 -38 4 -12 29 -47 55 -80 27
-32 49 -61 49 -66 0 -4 8 -16 18 -27 31 -33 147 -340 193 -511 39 -147 73
-244 129 -368 32 -72 52 -155 46 -191 -4 -19 -7 -107 -7 -196 0 -132 4 -175
20 -225 10 -35 17 -63 15 -63 -3 0 2 -13 11 -30 11 -22 15 -63 15 -170 l0
-140 180 0 c99 0 180 3 181 8 0 4 2 18 3 32 25 201 26 539 1 679 -16 95 -25
229 -19 306 8 115 10 126 19 148 4 10 5 20 2 23 -6 6 30 144 42 159 5 5 14 28
21 50 21 68 52 135 62 135 5 0 7 4 3 9 -3 5 -1 12 5 16 6 4 8 10 5 15 -3 4 1
25 9 46 27 76 156 347 195 409 13 22 42 74 64 115 22 41 45 82 52 90 6 8 31
53 55 100 23 47 49 92 56 101 8 8 14 20 14 25 0 6 13 30 28 55 15 24 45 87 66
139 22 52 45 102 52 111 8 8 14 21 14 27 0 14 30 84 66 154 13 27 24 52 24 57
0 5 18 48 41 96 32 69 38 90 27 96 -10 7 -9 9 5 9 9 0 17 5 17 10 0 11 31 85
56 133 8 16 14 37 14 47 0 9 9 37 19 61 11 24 27 73 36 109 10 36 25 88 35
115 10 28 26 79 36 115 10 36 25 74 35 85 23 26 46 89 54 152 4 26 17 82 30
123 13 41 31 102 40 135 9 33 29 89 44 125 15 36 36 101 46 145 9 44 23 105
31 135 7 30 16 71 19 90 3 19 10 55 15 80 6 25 12 59 14 75 1 17 10 64 19 105
9 41 21 138 27 215 18 234 20 247 30 325 5 41 19 183 30 315 11 132 22 260 25
285 16 137 25 247 29 340 4 105 29 289 46 345 5 17 25 94 44 172 51 209 86
276 206 394 83 83 174 201 219 287 15 28 10 28 -23 -3 -15 -14 -24 -25 -20
-25 11 0 -155 -161 -236 -229 -178 -148 -253 -266 -309 -481 -62 -237 -80
-318 -97 -415 -9 -55 -20 -110 -25 -124 -5 -13 -18 -83 -29 -155 -11 -72 -27
-174 -35 -226 -9 -52 -20 -120 -25 -150 -42 -279 -52 -333 -59 -353 -14 -36
-39 -144 -50 -217 -15 -93 -89 -374 -100 -378 -5 -2 -7 -11 -4 -22 5 -18 -34
-169 -62 -242 -8 -21 -12 -38 -9 -38 4 0 2 -6 -3 -12 -5 -7 -17 -40 -27 -73
-9 -33 -21 -73 -27 -90 -6 -16 -31 -86 -56 -155 -24 -69 -59 -170 -78 -225
-64 -190 -113 -321 -224 -600 -174 -439 -194 -482 -353 -795 -142 -280 -224
-466 -343 -785 -28 -77 -68 -178 -87 -225 -19 -47 -41 -103 -48 -125 -11 -33
-14 -36 -20 -20 -4 11 -11 47 -14 80 -4 33 -11 78 -16 100 -5 22 -16 101 -25
175 -9 74 -18 144 -20 155 -2 11 -20 105 -39 208 -20 104 -40 205 -46 225 -5
21 -19 89 -30 152 -11 63 -22 124 -25 135 -2 11 -9 40 -14 65 -5 25 -18 79
-29 120 -19 72 -36 155 -66 325 -20 113 -86 437 -91 444 -1 3 -6 38 -9 76 -3
39 -10 85 -15 102 -5 17 -7 34 -4 37 6 6 -15 125 -25 141 -4 6 -7 19 -8 30 -3
54 -15 150 -23 188 -6 23 -11 69 -12 102 0 33 -10 89 -21 125 -10 35 -26 97
-34 138 -8 40 -24 93 -35 119 -19 45 -19 46 0 67 33 36 99 188 121 276 11 47
30 116 41 154 12 38 25 92 29 120 5 28 13 71 18 96 6 25 16 79 22 120 20 127
81 360 117 450 34 84 117 232 134 238 5 2 9 8 9 14 0 14 47 74 115 148 111
120 210 224 251 265 22 22 53 58 69 80 16 22 34 45 40 50 19 17 165 215 181
247 8 16 61 99 117 184 157 236 187 287 234 388 23 52 59 121 78 153 19 32 35
63 35 69 0 6 7 17 15 24 8 7 15 17 15 23 0 17 -58 -43 -95 -98 -19 -27 -52
-70 -75 -95 -35 -38 -40 -41 -35 -20 l6 25 -25 -28 c-14 -15 -26 -36 -26 -47
0 -10 -4 -20 -9 -22 -5 -1 -22 -30 -39 -63 -72 -143 -204 -306 -339 -417 -40
-33 -73 -64 -73 -69 0 -10 -87 -92 -105 -99 -7 -3 -51 -41 -97 -85 -46 -44
-97 -92 -114 -107 -29 -27 -88 -89 -174 -183 -109 -118 -227 -319 -289 -490
-27 -75 -84 -353 -96 -465 -1 -14 -10 -70 -18 -125 -9 -55 -21 -158 -27 -230
-11 -138 -37 -295 -49 -308 -9 -9 -40 132 -71 318 -30 176 -30 179 -35 310 -5
136 -12 212 -21 226 -25 42 -24 748 2 949 3 19 6 96 8 170 3 112 1 136 -11
145 -13 10 -10 17 23 53 85 90 124 134 124 143 0 4 13 30 29 57 30 51 85 182
120 287 11 33 29 81 40 108 11 26 34 87 50 135 17 48 48 130 71 182 39 92 50
114 130 267 47 88 126 265 122 275 -1 4 3 20 9 35 22 59 -19 1 -59 -83 -11
-23 -28 -50 -38 -61 -84 -84 -343 -453 -431 -613 -33 -60 -128 -273 -136 -305
-3 -11 -3 12 0 50 5 72 21 181 48 320 50 270 64 350 60 354 -3 2 1 14 8 25 14
22 26 85 32 167 3 56 29 148 57 209 48 102 102 145 170 134 22 -4 46 0 64 9
40 21 114 93 114 112 0 13 -5 13 -37 -2 -21 -9 -65 -18 -98 -20 l-60 -3 54 27
c29 15 80 53 112 84 32 31 73 67 90 80 68 52 100 88 153 166 39 58 56 77 60
65 2 -9 10 -42 16 -72 25 -116 35 -148 83 -255 68 -156 94 -192 187 -260 78
-58 154 -144 224 -255 16 -25 38 -56 50 -68 36 -41 162 -95 141 -62 -9 14 16
12 45 -5 28 -16 70 -20 70 -6 0 5 -6 11 -12 14 -7 2 -10 8 -6 12 5 5 19 3 33
-3 36 -16 65 -15 65 3 0 12 10 14 58 9 31 -3 52 -2 46 3 -6 4 -14 23 -17 41
l-7 32 67 -2 c49 -2 67 1 71 11 2 8 1 11 -4 8 -5 -3 -10 7 -11 23 -2 25 1 28
35 28 63 0 63 0 56 27 -8 32 19 65 54 65 14 0 31 8 38 18 8 10 13 12 14 5 0
-26 39 -12 73 26 31 34 43 40 84 43 l48 3 -3 38 c-3 36 -2 37 33 37 19 0 35 5
35 10 0 6 6 10 14 10 10 0 12 11 8 45 -5 46 0 53 44 59 24 4 34 37 18 61 -20
28 -17 45 11 67 31 24 31 30 0 75 l-24 37 29 24 c38 31 38 44 0 73 -35 28 -38
39 -8 39 12 0 18 3 15 7 -4 3 -3 11 3 18 6 7 6 32 1 64 -5 29 -5 69 -1 88 7
29 5 36 -16 50 -13 8 -24 21 -23 27 3 27 -4 34 -46 50 -44 17 -49 24 -46 58 1
9 -3 19 -9 23 -5 3 -10 17 -10 31 0 14 -7 38 -15 53 -13 25 -13 31 0 41 11 9
23 9 52 -1 66 -23 108 -27 181 -15 32 5 53 18 87 51 25 25 48 58 51 73 4 15
14 36 23 46 15 18 15 19 -1 13 -21 -8 -31 3 -15 17 7 6 19 28 26 49 12 36 11
40 -10 63 -12 13 -17 24 -10 24 6 0 14 8 18 18 3 9 15 27 25 39 20 21 20 21
-1 42 -21 21 -27 57 -16 102 5 20 1 32 -14 46 -21 19 -21 22 -7 64 18 51 12
59 -49 59 l-40 0 28 24 c27 24 38 68 15 65 -7 -1 -38 -1 -69 0 -51 1 -57 3
-63 25 -5 21 -14 26 -54 31 -26 4 -51 8 -57 9 -5 2 -30 -3 -55 -10 -25 -8 -46
-14 -47 -14 -1 0 1 8 4 18 6 15 5 15 -10 3 -9 -7 -17 -9 -17 -3 0 5 7 15 15
22 22 18 18 30 -8 30 -13 0 -26 3 -29 6 -11 10 46 93 67 97 11 2 -6 5 -38 6
l-59 1 21 36 c25 42 27 74 5 74 -8 0 -13 4 -9 9 3 5 1 12 -4 16 -6 3 -3 18 7
35 11 19 13 32 7 37 -6 5 -9 7 -8 4 9 -15 -59 -101 -80 -101 -8 0 -8 3 -2 8
18 12 65 73 65 83 0 5 -9 9 -20 9 -18 0 -20 4 -15 34 7 32 5 34 -32 43 -33 7
-38 13 -41 40 -3 26 -6 30 -25 25 -12 -3 -35 -16 -52 -30 l-30 -25 -10 44 c-8
31 -19 48 -38 59 -26 14 -29 14 -46 -9 l-19 -25 -32 32 c-27 27 -35 30 -52 21
-23 -12 -23 -16 6 54 9 20 12 37 7 37 -5 0 -11 -8 -14 -19 -3 -14 -11 -17 -31
-14 -24 5 -25 8 -20 43 6 35 5 37 -25 43 -25 5 -33 13 -38 38 -6 30 -8 31 -44
25 l-39 -6 0 41 c0 26 -7 50 -20 66 -12 15 -20 20 -20 12 0 -8 -18 -24 -40
-37 -37 -21 -40 -21 -40 -4 0 56 -53 102 -87 77 -26 -21 -38 -18 -76 15 -42
37 -47 37 -81 3 l-27 -26 -29 28 -30 29 -38 -37 c-41 -40 -52 -45 -52 -22 0
22 -44 19 -65 -5 -27 -29 -35 -25 -35 19 0 22 -3 46 -6 55 -7 18 -39 22 -49 6
-5 -8 -11 -7 -21 1 -8 6 -14 8 -14 3 -1 -5 -10 8 -21 29 -11 20 -23 37 -27 37
-4 0 -24 -13 -43 -30 l-36 -29 -12 25 c-6 14 -11 31 -11 38 0 8 -6 19 -14 25
-15 13 -18 11 -52 -34 -11 -15 -17 -17 -21 -7 -3 7 -15 25 -27 39 l-22 26 -23
-39 c-22 -36 -24 -38 -35 -20 -35 61 -80 74 -97 29z m2001 -2363 c0 -5 -2 -10
-4 -10 -3 0 -8 5 -11 10 -3 6 -1 10 4 10 6 0 11 -4 11 -10z m-2112 -7250 c1
-32 -12 -40 -22 -14 -8 20 2 56 13 50 4 -3 8 -19 9 -36z m7 -50 c3 -5 1 -10
-4 -10 -6 0 -11 5 -11 10 0 6 2 10 4 10 3 0 8 -4 11 -10z"/>
<path d="M7606 12171 c-4 -5 -2 -12 3 -15 5 -4 12 -2 15 3 4 5 2 12 -3 15 -5
4 -12 2 -15 -3z"/>
<path d="M3135 12030 c3 -5 8 -10 11 -10 2 0 4 5 4 10 0 6 -5 10 -11 10 -5 0
-7 -4 -4 -10z"/>
<path d="M8555 11740 c3 -5 8 -10 11 -10 2 0 4 5 4 10 0 6 -5 10 -11 10 -5 0
-7 -4 -4 -10z"/>
<path d="M8667 11693 c-4 -3 -7 -13 -7 -22 1 -13 3 -13 11 2 11 19 8 33 -4 20z"/>
<path d="M6607 11209 c7 -7 15 -10 18 -7 3 3 -2 9 -12 12 -14 6 -15 5 -6 -5z"/>
<path d="M6755 10700 c-3 -5 3 -10 15 -10 12 0 18 5 15 10 -3 6 -10 10 -15 10
-5 0 -12 -4 -15 -10z"/>
<path d="M6800 10403 c4 -16 13 -39 18 -53 10 -23 11 -22 11 16 1 37 -12 64
-30 64 -4 0 -4 -12 1 -27z"/>
<path d="M2520 9560 c0 -5 7 -10 16 -10 8 0 12 5 9 10 -3 6 -10 10 -16 10 -5
0 -9 -4 -9 -10z"/>
<path d="M2970 9006 c0 -8 5 -18 10 -21 6 -3 10 1 10 9 0 8 -4 18 -10 21 -5 3
-10 -1 -10 -9z"/>
<path d="M6890 8220 c-9 -6 -10 -10 -3 -10 6 0 15 5 18 10 8 12 4 12 -15 0z"/>
<path d="M6895 8160 c3 -5 11 -10 16 -10 6 0 7 5 4 10 -3 6 -11 10 -16 10 -6
0 -7 -4 -4 -10z"/>
<path d="M7532 8110 c0 -14 2 -19 5 -12 2 6 2 18 0 25 -3 6 -5 1 -5 -13z"/>
<path d="M6990 8105 c-7 -9 -8 -15 -2 -15 5 0 12 7 16 15 3 8 4 15 2 15 -2 0
-9 -7 -16 -15z"/>
<path d="M6245 7781 c-6 -11 9 -23 19 -14 9 9 7 23 -3 23 -6 0 -12 -4 -16 -9z"/>
<path d="M6830 7412 c0 -12 19 -26 26 -19 2 2 -2 10 -11 17 -9 8 -15 8 -15 2z"/>
<path d="M8171 6894 c0 -11 3 -14 6 -6 3 7 2 16 -1 19 -3 4 -6 -2 -5 -13z"/>
<path d="M8575 6460 c-3 -5 -1 -10 4 -10 6 0 11 5 11 10 0 6 -2 10 -4 10 -3 0
-8 -4 -11 -10z"/>
<path d="M639 6024 c-21 -24 -22 -26 -3 -16 25 13 50 42 37 42 -5 0 -20 -12
-34 -26z"/>
<path d="M1820 6021 c-7 -15 -7 -21 0 -21 12 0 25 28 17 36 -3 3 -10 -4 -17
-15z"/>
<path d="M6905 5729 c-4 -6 -5 -12 -2 -15 2 -3 7 2 10 11 7 17 1 20 -8 4z"/>
<path d="M1755 5700 c-3 -5 -1 -10 4 -10 6 0 11 5 11 10 0 6 -2 10 -4 10 -3 0
-8 -4 -11 -10z"/>
<path d="M560 5683 c1 -18 18 -35 24 -24 4 6 4 16 1 21 -7 12 -25 13 -25 3z"/>
<path d="M8016 5523 c-8 -16 -28 -99 -45 -184 -44 -225 -51 -257 -74 -334 -11
-38 -27 -102 -37 -140 -9 -39 -25 -86 -35 -105 -17 -32 -66 -159 -127 -324
-15 -43 -41 -106 -57 -140 -15 -34 -32 -72 -36 -86 -8 -24 -106 -219 -235
-465 -35 -66 -87 -159 -117 -207 -29 -47 -53 -88 -53 -91 0 -6 -71 -123 -125
-207 -16 -25 -40 -65 -52 -90 -13 -25 -52 -85 -88 -135 -36 -49 -77 -110 -92
-135 -14 -25 -34 -54 -43 -65 -9 -11 -27 -38 -39 -60 -40 -70 -497 -721 -530
-755 -9 -8 -23 -28 -31 -44 -8 -15 -25 -39 -37 -52 -13 -14 -23 -27 -23 -30 0
-3 -42 -59 -92 -125 -51 -66 -117 -155 -146 -197 -235 -337 -310 -453 -383
-588 -24 -44 -62 -110 -86 -149 -23 -38 -68 -114 -100 -168 -32 -54 -73 -124
-92 -155 -19 -31 -47 -81 -62 -109 l-28 -53 119 0 119 0 73 98 c39 53 106 147
148 207 42 61 125 177 184 259 60 83 118 163 130 180 35 50 143 193 160 213
36 40 93 114 126 163 19 28 80 109 135 178 55 70 117 150 138 177 68 92 232
317 247 340 8 12 50 71 94 131 43 60 81 116 84 124 3 8 17 31 32 50 15 19 37
53 49 75 27 50 53 89 164 253 48 71 87 136 87 145 0 8 5 17 10 19 6 2 12 14
15 27 2 13 12 35 22 50 30 46 92 163 149 281 30 63 64 132 75 153 10 21 19 44
19 51 0 7 9 21 20 31 11 10 20 25 20 34 0 9 9 27 20 41 11 14 20 33 20 43 0
10 9 36 20 57 11 22 17 40 13 40 -5 0 -3 4 3 8 16 10 36 52 87 182 160 408
192 512 287 940 26 116 35 231 35 457 0 205 -8 244 -39 186z"/>
<path d="M8750 5500 c0 -5 5 -10 10 -10 6 0 10 5 10 10 0 6 -4 10 -10 10 -5 0
-10 -4 -10 -10z"/>
<path d="M2230 5415 c0 -10 7 -15 18 -13 21 4 19 22 -2 26 -10 2 -16 -3 -16
-13z"/>
<path d="M5365 5410 c4 -6 11 -8 16 -5 14 9 11 15 -7 15 -8 0 -12 -5 -9 -10z"/>
<path d="M584 5145 c-3 -8 -4 -20 -2 -27 3 -7 7 -1 10 15 6 29 1 36 -8 12z"/>
<path d="M570 5075 c-5 -13 -14 -59 -19 -102 -5 -43 -15 -103 -21 -133 -20
-92 1 -267 46 -390 13 -36 24 -73 24 -81 0 -16 48 -109 61 -119 9 -7 59 -107
59 -120 0 -26 81 -171 131 -236 22 -29 38 -58 34 -64 -3 -5 -1 -10 4 -10 6 0
11 6 11 13 0 6 39 -29 88 -78 48 -50 110 -107 137 -127 130 -95 344 -258 371
-282 46 -43 53 -49 158 -122 319 -223 344 -241 515 -389 203 -174 310 -276
410 -387 56 -62 134 -149 174 -193 126 -141 285 -337 347 -430 8 -13 51 -76
95 -141 44 -65 82 -123 84 -129 2 -5 48 -75 101 -155 54 -80 128 -194 165
-255 37 -60 75 -119 85 -130 9 -11 33 -49 52 -85 54 -99 79 -144 89 -156 26
-32 198 -372 213 -421 7 -23 11 -23 157 -23 82 0 149 4 149 9 0 10 -18 67 -30
96 -13 30 -50 145 -61 189 -5 21 -17 52 -25 69 -9 16 -25 57 -36 89 -20 63
-67 170 -77 178 -3 3 -12 23 -20 45 -8 22 -25 57 -38 77 -12 21 -23 42 -23 48
0 5 -4 10 -10 10 -5 0 -10 5 -10 10 0 6 -24 52 -53 103 -29 50 -61 109 -72
130 -11 20 -23 37 -26 37 -4 0 -10 12 -14 27 -4 16 -22 47 -41 70 -19 23 -34
49 -34 57 0 9 -7 19 -15 23 -15 5 -85 105 -85 121 -1 13 -38 52 -50 52 -8 0
-11 10 -7 26 3 17 1 24 -8 20 -19 -7 -55 48 -48 73 4 15 1 21 -11 21 -30 0
-58 38 -51 70 4 17 2 31 -6 36 -9 5 -11 1 -7 -14 7 -27 -6 -29 -24 -3 -7 10
-17 19 -23 20 -5 1 -10 8 -10 15 0 8 -4 18 -9 23 -5 4 -6 3 -2 -4 33 -58 -81
58 -289 292 -205 231 -368 393 -570 570 -45 39 -223 175 -229 175 -10 0 -79
50 -90 65 -6 8 -22 17 -35 20 -12 2 -42 20 -65 38 -22 19 -65 49 -93 66 -29
18 -53 37 -53 42 0 5 -6 9 -12 9 -7 0 -67 39 -133 86 -66 47 -135 94 -152 106
-18 11 -33 23 -33 27 0 4 -11 13 -24 19 -29 13 -119 80 -319 236 -140 110
-176 141 -311 266 -102 94 -256 316 -256 368 0 11 -5 22 -11 24 -6 2 -13 25
-16 50 -4 32 -9 45 -18 42 -14 -6 -23 18 -51 131 -12 51 -17 116 -18 242 0 95
-2 173 -3 173 -2 0 -8 -11 -13 -25z"/>
<path d="M5725 4720 c-3 -5 -2 -10 4 -10 5 0 13 5 16 10 3 6 2 10 -4 10 -5 0
-13 -4 -16 -10z"/>
<path d="M2400 4486 c0 -2 7 -7 16 -10 8 -3 12 -2 9 4 -6 10 -25 14 -25 6z"/>
<path d="M8705 4460 c-3 -5 -2 -10 4 -10 5 0 13 5 16 10 3 6 2 10 -4 10 -5 0
-13 -4 -16 -10z"/>
<path d="M3240 4440 c0 -5 4 -10 9 -10 6 0 13 5 16 10 3 6 -1 10 -9 10 -9 0
-16 -4 -16 -10z"/>
<path d="M2775 4060 c-3 -5 -1 -10 4 -10 6 0 11 5 11 10 0 6 -2 10 -4 10 -3 0
-8 -4 -11 -10z"/>
<path d="M8585 4060 c-3 -5 -1 -10 4 -10 6 0 11 5 11 10 0 6 -2 10 -4 10 -3 0
-8 -4 -11 -10z"/>
<path d="M7180 3700 c-8 -5 -11 -12 -7 -16 4 -4 15 0 24 9 18 18 8 23 -17 7z"/>
<path d="M2092 3234 c10 -10 20 -16 22 -13 3 3 -5 11 -17 18 -21 13 -21 12 -5
-5z"/>
<path d="M4207 2707 c-3 -8 -1 -20 4 -28 5 -8 9 -12 10 -9 0 3 2 15 5 28 4 24
-10 31 -19 9z"/>
<path d="M1760 2620 c0 -5 5 -10 10 -10 6 0 10 5 10 10 0 6 -4 10 -10 10 -5 0
-10 -4 -10 -10z"/>
<path d="M6220 2090 c0 -5 4 -10 9 -10 6 0 13 5 16 10 3 6 -1 10 -9 10 -9 0
-16 -4 -16 -10z"/>
<path d="M7180 1890 c6 -11 16 -20 22 -20 6 0 3 9 -7 20 -10 11 -20 20 -22 20
-2 0 1 -9 7 -20z"/>
<path d="M3520 1870 c0 -5 5 -10 11 -10 5 0 7 5 4 10 -3 6 -8 10 -11 10 -2 0
-4 -4 -4 -10z"/>
</g>
</svg>
