<?xml version="1.0" encoding="utf-8"?>
<!-- Generator: Adobe Illustrator 22.1.0, SVG Export Plug-In . SVG Version: 6.00 Build 0)  -->
<svg version="1.1" id="Layer_1" xmlns="http://www.w3.org/2000/svg" xmlns:xlink="http://www.w3.org/1999/xlink" x="0px" y="0px"
	 viewBox="0 0 1280 848" style="enable-background:new 0 0 1280 848;" xml:space="preserve">
<style type="text/css">
	.st0{fill:#0A6C38;}
</style>
<g transform="translate(0.000000,848.000000) scale(0.100000,-0.100000)">
	<path class="st0" d="M3288,8463c-25-29-46-75-79-179c-38-121-60-166-95-193c-30-23-70-28-77-8c-8,25,14,88,53,148
		c66,102,51,176-40,197c-28,7-63,12-76,12c-37,0-70-40-83-100c-15-69-25-82-57-69c-70,26-148-2-177-64c-54-112,24-248,144-251
		c36-1,40-3,46-36c5-19,8-102,8-185c-1-123-5-166-24-238c-73-283-241-516-489-679c-31-21-60-38-63-38c-4,0-10,15-14,33
		c-4,17-33,113-65,212s-64,208-71,243c-16,83-7,170,23,224l23,43l81,5c49,3,88,11,98,19c52,43,62,143,21,203c-27,40-96,78-141,78
		c-39,0-96-31-111-61c-8-14-13-67-13-129c-1-126-13-167-59-197c-40-27-51-21-83,40c-44,88-6,161,171,327c68,63,129,127,137,142
		c23,44,18,86-14,118c-54,53-135,57-202,10c-29-21-31-26-27-69c2-25,14-72,26-105c22-58,22-59,3-80c-11-11-35-47-55-78
		c-35-55-77-88-113-88c-27,0-12,132,32,270c21,66,38,146,41,187l6,72l-36,6c-40,8-106-10-113-30c-3-7,5-46,17-86
		c32-106,31-199-4-266c-15-28-31-54-36-57c-13-9-57,70-86,157c-30,90-33,184-9,289c16,68,16,72-2,85c-10,7-42,13-71,13
		c-44,0-58-5-88-31c-58-52-49-95,41-191c56-58,74-92,74-133c0-19-4-23-17-18c-43,15-81,56-126,136c-59,106-87,131-142,124
		c-61-9-85-43-85-122c0-61,1-65,30-80c19-10,53-15,94-14c78,2,94-9,232-154c249-260,418-598,558-1112c123-451,203-872,251-1310
		c32-284,29-870-3-1094l-7-45l-136,165c-271,327-386,497-469,692c-68,160-92,268-97,444c-3,84-2,168,1,188l7,35l31-16
		c41-21,116-14,157,15c27,19,31,28,31,67c0,91-46,144-124,144c-64,0-84-14-100-72c-8-29-17-78-21-108c-7-57-35-132-54-144
		c-15-9-28,28-36,101c-8,68,18,195,59,288c15,31,26,63,26,70s-16,27-35,44c-35,31-78,41-90,21c-3-5-14-10-25-10c-18,0-40-44-40-79
		c0-9,16-49,35-90c27-55,35-85,35-127c0-30-2-54-5-54c-2,0-26,23-52,51c-26,29-62,58-80,65c-44,19-104,18-132-2
		c-57-40-78-161-41-234c16-32,28-41,62-51c47-12,106-6,148,16c28,14,29,14,53-28c14-23,77-161,142-307c155-352,226-486,382-725
		c72-110,146-231,165-270c104-207,141-423,118-695c-21-249-59-415-219-955c-117-396-131-469-161-808c-11-122-31-337-44-477
		c-39-400-49-611-43-870c5-206,13-294,43-502l7-48h99h100l-7,98c-6,87-20,244-71,802c-45,490-23,913,62,1206c59,207,111,304,309,584
		c198,279,310,494,401,767c52,154,76,270,99,473c28,249,58,378,115,490c31,62,100,147,154,193c43,36,47,37,100,31
		c92-11,120-1,157,57c60,95,48,173-34,216c-45,23-143,23-182,0c-28-17-30-22-32-85c-3-116-59-230-145-292c-53-39-72-39-64-2
		c4,19,55,346,56,358c0,0,20,1,45,1c61,0,99,28,103,76c4,46-26,108-60,125c-73,34-169-74-154-172l7-41l-34,50c-57,84-122,98-185,41
		c-35-33-37-38-37-96c0-57,2-64,33-91c36-32,58-35,117-14c68,25,73,22,77-44c5-99-3-109-54-66c-54,46-148,52-218,15
		c-20-11-30-56-32-135c-2-95,9-105,145-129c43-7,82-17,86-22c5-5,2-67-5-139c-79-753-241-1214-536-1528c-40-42-76-77-79-77
		c-4,0,4,37,18,83c74,252,166,692,212,1012c55,385,65,529,66,905c0,442-10,556-120,1291c-30,202-64,442-75,534l-20,168l48,56
		c98,117,259,274,325,318c83,55,197,101,292,118l70,12l38-34c72-64,125-66,176-8c94,107,48,265-77,265c-57,0-121-19-131-39
		c-5-9-11-38-15-65c-8-61-20-76-60-76c-17,0-56-7-86-15c-62-17-140-20-140-6c0,5,27,49,59,98c65,97,156,190,216,221
		c58,29,145,46,197,38l45-7l5-72c3-47,11-83,23-101c17-26,22-28,72-24c74,6,95,29,101,105c5,76-7,91-82,103c-61,10-86,23-86,46
		c0,10,14,14,49,14c43,0,59-7,117-46c79-54,128-65,163-37c43,35,46,149,5,194c-22,24-80,25-115,1c-110-74-126-82-155-82
		c-42,0-49,12-29,50c26,49,81,78,191,99c54,11,107,22,116,26c28,11,48,64,48,125c0,49-4,61-27,85c-38,38-83,55-142,55
		c-75,0-96-12-116-65c-14-35-17-63-12-120l5-74l-40-36c-57-52-196-141-281-180c-76-35-185-70-193-62c-7,7,35,172,62,245
		c58,152,140,286,232,376c49,47,51,48,85,37c42-14,77-7,135,26c46,26,62,54,62,108c0,49-16,85-58,128c-33,34-40,37-92,37
		C3318,8480,3299,8475,3288,8463z M2955,8177c31-48,29-210-5-329c-19-67-30-53-65,85c-16,65-19,87-9,87c7,0,22,12,33,26
		c23,29,29,101,11,135C2904,8210,2935,8206,2955,8177z"/>
	<path class="st0" d="M7818,8463c-26-30-44-73-83-198c-31-100-44-126-75-157c-24-25-47-38-64-38c-23,0-26,4-26,38c0,27,13,59,45,112
		c48,81,55,121,31,169c-12,23-26,30-76,41c-101,22-123,6-155-113c-13-48-19-58-33-52c-9,4-37,10-61,13c-143,17-208-183-91-282
		c32-27,103-51,125-42c7,2,16-3,20-12c14-35,18-269,6-352c-34-227-148-447-321-620c-74-75-226-190-250-190c-5,0-11,15-15,33
		c-4,17-33,113-65,212c-89,280-98,365-48,462l24,48l81,5c93,6,113,18,138,85c29,75-10,160-89,196c-68,31-124,21-171-31
		c-17-19-21-40-25-150c-5-138-17-170-71-197c-30-15-52,2-74,62c-14,35-15,49-5,86c18,65,57,114,180,229c159,148,178,181,137,241
		c-43,63-134,81-201,40c-56-35-58-60-18-174c25-72,26-79,10-88c-9-5-33-37-54-70c-37-61-82-99-118-99c-17,0-18,6-13,74
		c4,40,23,127,43,192c21,68,39,150,42,191c5,71,4,72-22,79c-32,8-86-2-111-20c-18-13-18-16,3-87c43-147,36-242-22-314l-24-29l-36,72
		c-53,106-70,180-63,282c3,47,13,104,21,127c14,41,14,43-7,58c-12,9-43,15-74,15c-44,0-58-5-88-31c-56-50-46-98,39-187
		c63-67,76-90,76-132v-30l-39,20c-43,22-62,45-111,138c-45,86-82,116-133,109c-55-8-79-35-85-96c-9-99,14-122,123-120
		c77,2,92-8,237-160c194-202,378-531,482-860c145-461,268-1047,322-1541c31-286,28-961-4-1119l-7-34l-151,184
		c-83,101-178,221-213,267c-174,230-287,470-325,689c-16,88-21,293-10,351l6,31l31-15c40-21,115-14,156,15c28,20,31,28,31,72
		c0,88-46,139-124,139c-82,0-95-19-116-165c-13-89-29-133-53-154c-15-11-18-10-28,15c-6,16-11,67-11,114c0,88,20,170,67,277l23,52
		l-39,36c-38,34-81,46-94,25c-3-5-15-10-25-10c-14,0-22-11-30-40c-10-37-8-47,24-118c33-74,39-102,37-167l-1-29l-57,56
		c-71,68-89,78-148,78c-38,0-52-5-75-28c-50-51-64-146-31-219c16-34,27-44,58-52c60-17,89-13,173,23c19,8,23,0,187-369
		c155-350,205-444,356-675c234-358,287-493,303-775c15-279-37-555-222-1165c-49-159-110-398-128-500c-9-47-25-193-36-325
		s-29-328-40-435c-40-405-44-483-45-785c0-298,9-420,43-620l7-40l98-3l97-3v34c0,49-16,248-50,607c-44,476-54,653-47,865
		c7,217,33,405,77,571c60,224,113,328,318,617c157,221,185,267,272,449c125,263,186,460,215,698c60,497,101,610,281,772
		c40,37,41,37,110,32c39-4,81-1,96,5c40,15,88,104,88,162c0,41-4,51-35,78c-42,37-104,55-161,46c-54-8-94-38-87-65
		c9-32-16-149-43-202c-32-63-81-117-134-147l-43-24l6,29c4,16,18,103,32,193s27,166,29,169c3,2,26,5,51,7c86,5,119,71,77,155
		c-33,66-90,71-148,14c-40-41-61-106-46-146c15-41,0-34-26,13c-47,82-127,102-188,46c-62-57-56-159,12-203c22-15,32-15,72-5
		c106,28,98,30,105-39c4-37,3-69-4-81c-10-19-12-19-44,10c-47,41-100,54-164,40c-28-6-58-17-66-25c-17-18-27-82-23-153
		c4-69,25-85,136-104c46-8,87-18,92-23c4-5,0-88-10-184c-74-711-241-1174-540-1493c-34-37-64-66-66-64s23,109,55,238
		c158,621,228,1123,238,1684c7,435-8,604-118,1345c-27,184-61,422-74,529l-25,194l84,96c222,255,378,360,583,396l72,13l40-38
		c75-72,150-59,196,33c42,85,26,181-36,212c-52,27-167,13-196-23c-7-9-13-27-13-41s-5-43-11-63c-9-35-13-38-47-38c-20,0-62-7-92-15
		c-61-16-126-20-134-7s84,150,142,214c29,31,74,70,100,87c65,41,163,66,225,57l47-7v-57c0-35,8-74,20-101l20-43l57,4
		c78,7,103,36,103,117c0,70-8,78-85,91c-60,10-85,23-85,46c0,10,14,14,49,14c42,0,59-7,115-44c109-76,173-70,196,16
		c23,84-14,158-78,158c-38,0-61-12-126-64c-39-31-118-47-130-27c-11,17,30,77,69,101c18,11,69,27,112,35c132,25,163,35,163,56
		c0,11,5,19,10,19c6,0,10,30,10,70c0,62-3,74-25,96c-35,35-86,54-144,54c-75,0-96-12-116-65c-14-35-17-62-12-122c4-56,2-80-7-87
		c-76-63-185-137-261-176c-86-45-230-98-240-88c-7,7,31,157,61,238c54,150,140,293,233,384c48,47,50,48,84,37c54-18,148,14,181,61
		c36,52,6,176-54,218C7933,8487,7840,8488,7818,8463z M7487,8173c15-22,18-48,17-138c0-107-23-225-43-225c-12,0-27,42-46,123
		c-19,85-19,84,3,92c37,11,57,109,32,156C7433,8212,7466,8205,7487,8173z"/>
	<path class="st0" d="M12335,8443c-13-21-43-96-66-168c-35-108-48-136-79-167c-25-26-47-38-65-38c-27,0-27,1-23,45
		c4,30,20,66,47,108c31,47,41,73,41,103c0,62-18,86-75,101c-100,26-134,11-156-69c-22-83-31-99-48-92c-9,4-40,9-68,12
		c-51,4-54,3-92-35c-103-103-36-277,111-288l43-3l8-53c5-30,6-119,4-199c-4-117-10-162-31-235c-55-190-174-384-317-519
		c-64-61-209-166-229-166c-4,0-11,17-15,38c-4,20-33,119-65,218c-73,222-87,301-71,381c6,31,21,72,34,90c22,32,24,33,96,33
		c69,0,75,2,106,33c22,22,35,47,40,75c13,81-55,172-141,188c-46,9-78-1-116-35l-32-29l-6-129c-5-139-14-166-66-200
		c-26-17-27-16-50,12c-37,46-47,96-30,145c22,65,59,110,188,231c155,146,175,191,110,252c-57,53-148,53-204-1c-35-32-36-64-3-142
		c28-67,31-95,11-107c-7-4-30-34-50-66c-38-59-85-97-120-97c-17,0-18,6-12,72c3,39,24,132,46,206c27,90,40,155,40,193
		c0,54-2,59-25,65c-31,8-84-2-108-20c-17-14-17-17,5-88c31-99,32-216,1-274c-40-75-47-74-87,8c-46,92-66,166-66,243
		c0,53,18,151,35,196c8,22-34,39-95,39c-41,0-55-5-85-31c-24-21-35-40-35-58c0-32,44-104,90-146c39-36,60-75,60-110
		c0-29-10-31-49-11c-30,16-63,62-104,143c-46,90-103,121-166,89c-35-18-51-55-51-115c0-69,21-85,117-88c87-3,100-10,212-123
		c240-240,430-592,557-1035c131-454,230-946,280-1390c31-280,28-1018-4-1140c-7-24-17-14-137,132c-246,299-331,417-419,585
		c-60,113-109,245-132,353c-19,88-29,270-20,357l7,66l37-15c47-19,111-12,151,16c28,20,31,28,31,72c0,87-46,139-122,139
		c-80,0-98-26-117-163c-11-79-27-126-54-162c-14-19-16-17-27,25c-27,99-9,226,50,371l31,74l-33,28c-18,15-43,30-56,33
		c-26,7-87-19-96-42c-12-32-5-86,18-132c37-73,49-120,41-159l-6-36l-57,55c-70,68-88,78-147,78c-38,0-52-5-75-28
		c-52-53-63-164-23-233c30-51,129-62,205-23c16,9,31,14,33,12c10-11,93-186,148-313c179-414,210-473,397-760
		c245-378,285-493,284-825c0-258-30-439-133-795c-27-93-78-271-114-396c-84-289-112-439-137-729c-11-129-31-352-45-495
		c-56-591-59-890-10-1240c23-159,11-145,122-145h96l-7,118c-4,64-20,259-36,432s-35,376-42,450c-18,211-16,640,6,785
		c34,239,89,431,163,580c39,76,109,184,263,400c72,101,126,193,194,330c147,295,211,492,242,744c57,476,90,575,239,729l81,83l56-7
		c92-11,123,0,160,54c24,35,33,60,36,102c4,54,3,57-32,88c-43,38-106,56-161,47c-70-11-81-24-88-108c-4-41-16-100-27-131
		c-25-64-90-141-149-174c-45-25-48-22-31,38c5,19,19,100,30,179s23,148,26,153s13,7,21,3c25-9,79,5,102,26c42,39,15,157-41,178
		c-78,29-179-97-149-184l11-30l-23,29c-59,78-72,88-120,93c-43,5-49,3-81-29c-60-60-57-154,6-201c25-19,32-19,75-8
		c107,28,99,30,107-38c5-39,3-68-4-82c-12-21-12-21-43,9c-43,41-100,55-166,41c-28-6-58-17-66-25c-17-18-27-82-23-153
		c4-69,26-87,130-102c115-17,110-8,92-179c-64-618-184-1024-392-1335c-58-87-210-261-219-251c-3,2,7,44,20,93
		c90,310,182,772,226,1128c87,703,75,1106-58,1975c-46,301-71,481-91,645l-17,150l92,105c205,232,328,322,507,369
		c118,31,146,33,158,11c12-23,89-70,114-70c116,0,173,230,72,291c-36,22-112,24-166,5c-36-13-39-20-57-116c-7-41-11-45-38-48
		c-16-1-60-9-97-17c-74-16-134-19-142-7c-7,11,108,180,157,230c88,90,214,142,310,128l44-7l7-71c3-39,14-83,23-99c15-26,23-29,66-29
		c40,0,53,5,78,29c26,26,29,37,29,89c0,71-8,79-85,92c-60,10-85,23-85,46c0,10,14,14,45,14c46,0,88-18,154-65c39-28,97-42,120-28
		c53,32,65,152,20,200c-41,43-92,31-183-41c-37-29-118-47-129-29c-10,17,26,75,62,98c20,13,74,31,121,40c132,26,160,36,160,57
		c0,10,5,18,10,18c17,0,12,133-6,159c-35,49-159,78-227,52c-40-16-61-85-53-179l6-77l-58-46c-116-94-259-172-380-209
		c-40-12-75-20-77-18c-9,9,47,205,84,294c49,119,115,225,194,309l62,67l45-13c41-11,50-9,98,11c70,30,92,59,92,122
		c0,102-60,168-154,168C12363,8480,12359,8478,12335,8443z M12017,8173c25-39,25-235-1-310c-10-29-21-53-26-53c-18,0-67,203-50,208
		c6,2,20,13,31,25c21,23,27,104,9,138C11963,8212,11996,8205,12017,8173z"/>
	<path class="st0" d="M1498,4991c-18-16-53-66-77-112c-62-118-102-180-112-173c-18,11-8,50,30,126c44,86,44,106-1,143
		c-31,26-76,32-109,15c-23-13-49-61-49-93c0-23-4-24-56-24c-92,0-131-46-113-133c10-46,48-77,103-85c41-7,44-9,50-43
		c9-56,7-170-4-242c-35-219-164-421-350-547l-65-43l-46,142c-71,218-81,305-42,381c17,34,83,66,136,67h37v46c0,25-5,65-11,88
		c-10,42-12,44-57,49c-56,7-111-16-129-53c-7-14-13-58-13-98c0-109-32-159-73-114c-61,67-5,192,134,299c59,46,59,47,59,98
		c0,61-8,71-70,80c-67,10-78-7-93-142c-8-70-19-120-31-137c-18-29-61-50-83-42c-22,9-15,79,16,168c41,117,46,149,27,187
		c-20,37-39,39-71,6c-30-29-30-23-5-110c24-85,25-116,3-162l-17-36l-37,40c-21,22-42,58-48,79c-15,54-13,151,4,198
		c28,80-44,124-122,76c-47-28-45-67,6-123c45-49,61-78,61-106c0-50-52-11-100,76c-59,104-80,114-131,64c-22-23-29-39-29-68
		c0-63,17-77,83-70l56,5l60-61c293-306,499-782,596-1378c48-300,57-422,62-862c2-229,1-417-4-416c-12,0-205,224-278,320
		c-186,250-257,465-247,748c2,35,5,42,14,33c7-7,39-12,74-12c54,0,64,3,69,20c3,11,11,20,16,20c12,0,11,44-2,73c-12,27-58,57-87,57
		c-54,0-73-28-92-138c-15-83-34-109-50-67c-17,44-11,118,15,195c39,114,33,160-19,160c-44,0-76-25-76-59c0-15,9-63,20-106
		c31-121,24-180-12-95c-32,77-127,104-187,54c-28-23-31-31-31-84c0-76,10-84,124-90l91-5l22-41c13-23,45-104,71-180
		c80-230,98-264,280-519c184-260,231-377,239-607c8-207-16-329-141-715C545,480,530,411,523,172L517,0h36c35,0,35,0,42,52
		c30,247,113,462,309,808c236,416,301,589,341,910c26,219,57,303,141,387c45,45,58,53,91,53c65,1,117,18,142,46c20,24,22,35,17,73
		c-12,93-114,137-168,72c-23-27-30-45-59-161c-11-46-80-127-98-116c-16,11-30,99-22,139c13,53,53,117,105,165c46,42,46,42,32,76
		c-20,47-49,61-97,47c-46-14-62-53-50-118c5-24,6-43,3-43s-24,21-47,46c-39,45-42,46-82,39c-29-4-44-13-48-26c-4-10-13-26-22-34
		c-17-17-13-48,11-80c12-17,24-20,79-17c72,3,101-13,95-52c-3-20-8-21-87-18c-47,2-94,1-106-2c-27-7-45-45-45-97c0-56,38-93,114-110
		l58-13l-7-95c-25-367-89-619-218-864c-61-116-199-323-205-307c-2,4,17,115,42,246c110,587,156,994,156,1380c0,300-13,413-82,709
		c-56,244-78,382-78,500v102l70,81c140,162,271,242,409,250c51,3,97-1,140-12c70-18,81-14,107,35c34,66,2,141-67,159
		c-55,15-77,5-129-62c-60-76-81-90-141-90c-28,1-53,3-56,5c-7,7,46,107,79,149c44,56,110,94,182,107c75,13,94,8,102-28
		c18-81,27-102,44-111c41-22,93,10,109,68c12,41-9,70-58,78c-57,9-71,21-47,39s48,12,101-25c68-47,113-44,138,9c22,48,22,64-1,84
		c-25,23-66,21-132-4l-54-21l-18,22c-24,29-10,46,46,60c157,40,176,53,176,122c0,41-5,54-29,79c-25,24-37,29-81,29
		c-70,0-95-26-105-108c-4-33-4-66,0-71c11-19-65-78-170-132c-55-29-117-63-137-76c-21-13-41-23-44-23c-4,0-5,33-2,73
		c5,84,48,183,142,332l56,89l58,1c64,1,112,23,144,66l20,26l-25,40c-28,44-72,83-93,83C1537,5020,1516,5007,1498,4991z"/>
	<path class="st0" d="M6021,4982c-20-21-58-81-85-133c-59-114-85-151-97-144c-17,11-9,46,32,129c45,92,44,105-7,145
		c-64,50-154-2-154-89c0-14-10-17-56-17c-82,0-108-23-112-97c-3-51,0-59,26-85c20-20,43-31,75-36c46-7,46-8,53-53
		c10-65-3-246-21-317c-51-189-200-386-366-484l-35-21l-42,133c-58,186-63,210-64,286c-1,87,19,126,75,152c23,10,60,19,81,19h39
		l-6,73c-3,39-8,79-12,88c-8,22-90,31-130,15c-49-21-58-40-63-134c-6-123-34-169-75-124c-61,67-7,188,132,297l61,48v57
		c0,64-1,64-73,75c-41,6-47,5-63-19c-10-17-20-59-25-111c-4-46-10-98-14-114c-8-37-60-83-89-79c-35,5-32,64,8,182
		c40,116,43,134,20,177c-12,24-19,29-37,23c-51-15-59-49-32-138c19-64,19-110-1-152l-17-35l-25,23c-64,60-91,192-57,288
		c16,46,9,72-25,90c-29,15-62,12-97-10c-49-30-45-65,16-135c51-59,72-115,41-115c-21,0-62,44-85,90c-28,57-65,100-85,100
		c-10,0-31-10-45-23c-31-26-44-92-25-127c11-21,17-22,69-17c32,2,65,1,74-4c25-15,161-181,226-278c224-332,370-770,440-1313
		c36-281,48-534,42-943l-2-180l-66,70c-333,354-463,616-463,936c0,105,1,109,19,99c11-5,44-10,75-10c46,0,56,3,61,20
		c3,11,11,20,16,20c12,0,12,57-1,81s-61,49-95,49c-37,0-62-31-75-97c-27-137-40-160-60-107c-16,42-11,105,15,188
		c27,84,31,126,15,156c-8,15-16,17-45,10c-72-16-77-34-44-160c11-44,19-97,17-117l-3-38l-22,47c-39,85-130,115-192,62
		c-28-23-31-31-31-84c0-76,10-84,124-90l90-5l23-40c12-22,39-87,59-145c94-267,112-301,279-535c162-228,210-324,241-485
		c17-89,19-269,4-366c-17-109-65-285-125-464c-139-413-179-600-173-820l3-115l32-3c30-3,32-1,37,35c21,137,42,232,73,328
		c38,114,158,359,282,575c194,335,255,506,296,830c29,224,61,308,147,392c41,40,56,48,86,48c132,1,192,68,147,165
		c-18,37-51,55-99,55c-55,0-78-38-117-190c-7-29-25-58-51-84l-40-40l-14,24c-7,14-13,49-14,79c0,71,29,131,98,200c51,52,53,55,41,83
		c-17,40-51,61-88,53c-50-11-64-36-59-105c2-33,2-60-1-60s-24,21-46,47c-41,46-43,47-81,38c-23-6-43-19-49-31s-16-28-21-35
		c-17-22,3-78,30-89c13-5,49-6,80-3c52,5,56,4,67-20c23-51,9-60-85-52c-98,8-119,4-134-31c-40-86,10-159,122-179l39-6l-7-106
		c-25-385-109-686-261-938c-57-93-165-244-165-229c0,6,18,105,39,220c127,673,168,1061,158,1505c-6,278-13,337-78,616
		c-63,274-70,320-76,463l-5,135l71,80c185,212,361,290,548,241c35-8,69-13,76-10c19,7,47,69,47,102c0,47-34,90-82,103
		c-56,15-78,3-136-74c-24-31-53-62-64-68c-20-11-116-15-125-6c-6,7,32,81,69,135c41,59,119,108,194,122c91,16,92,15,118-103
		c15-64,95-54,129,16c18,35,18,39,3,62c-11,16-29,27-55,31c-57,9-71,21-47,39s48,12,101-25c68-47,115-45,138,8c21,48,21,66,1,86
		c-21,22-68,20-133-4c-57-22-81-16-81,21c0,22,19,33,90,49c74,17,138,48,145,70c10,32-13,104-40,128c-38,32-117,31-150-3
		c-22-21-25-33-25-99v-75l-52-40c-29-21-82-53-118-71s-90-47-121-66s-59-34-63-34c-12,0-6,98,10,151c21,69,41,110,123,242
		c65,106,67,108,98,102c51-9,117,13,154,51l33,34l-19,36c-22,42-79,94-102,94C6064,5020,6041,5003,6021,4982z"/>
	<path class="st0" d="M10562,4995c-16-14-49-62-72-107c-24-46-59-108-78-138c-33-52-36-54-45-33c-8,18-1,40,33,112
		c43,90,43,90,25,118c-26,39-45,52-78,53c-55,0-92-32-102-90c-6-36-6-36-61-36c-77-2-108-26-112-86c-6-84,29-126,106-131
		c41-2,42-3,48-45c10-67-2-260-20-327c-25-89-98-232-156-302c-71-88-227-210-244-192c-3,3-26,70-51,149c-56,174-69,292-40,353
		c20,42,82,77,138,77h37v53c0,28-5,68-10,88c-10,34-13,37-58,42c-56,6-105-11-122-44c-7-12-16-64-20-116c-5-68-11-98-25-113
		c-21-23-37-15-61,33c-35,66,25,177,149,276c64,50,67,55,67,95c0,57-15,73-77,81c-48,6-53,5-68-18c-10-16-20-64-26-129
		c-10-109-23-140-71-167c-35-20-58-8-58,30c0,17,16,82,36,145c27,83,35,122,30,147c-9,50-27,62-65,42c-36-18-40-50-16-129
		c19-63,19-119-1-158l-16-30l-25,23c-64,61-90,184-59,279c16,47,16,54,1,76c-27,42-95,44-135,4c-32-32-25-66,24-118
		c61-65,83-122,48-122c-24,0-64,44-92,100s-58,90-80,90c-53,0-93-84-70-144c10-28,12-29,73-23l62,6l45-47c349-362,572-949,649-1707
		c21-197,34-626,25-800l-9-169l-104,117c-208,234-318,405-375,582c-34,105-46,187-46,313c0,98,1,102,19,92c11-5,46-10,78-10
		c53,0,59,2,71,27c25,55,11,103-38,128c-68,35-113,7-130-84c-16-83-30-131-39-131c-14,0-31,50-31,90c0,21,12,76,26,121
		c43,135,33,184-32,169c-70-16-76-36-44-152c11-40,20-93,20-118l-1-45l-19,40c-46,93-134,124-199,69c-28-23-31-31-31-84
		c0-78,16-90,125-90c44,0,85-4,92-8c16-10,46-81,100-237c62-178,115-277,254-473c221-309,283-494,259-765c-15-174-42-279-165-652
		c-104-317-145-514-145-701c0-129,5-144,41-144c22,0,30,5,33,23c2,12,11,67,19,123c19,117,70,279,131,408c23,50,99,192,168,316
		c246,440,288,552,329,860c34,265,61,341,152,432c40,40,54,48,85,48c102,1,162,40,162,106c0,71-43,114-114,114c-49,0-84-49-105-148
		c-14-68-43-125-75-145c-33-22-32-22-45,14c-30,87-2,176,86,265c52,53,54,57,43,84c-19,46-44,63-83,56c-56-10-71-35-64-106
		c3-33,4-60,2-60s-24,21-48,47c-44,46-46,47-83,38c-24-6-43-19-50-33c-6-13-16-28-21-33c-16-16-3-58,24-79c21-16,35-18,82-14
		c63,7,85-6,79-48c-3-22-5-23-99-20c-95,4-97,3-118-23c-23-31-27-80-9-120c14-31,66-60,123-69l41-7l-8-102c-32-424-111-699-278-968
		c-46-74-150-217-150-207c0,3,11,64,25,136c140,746,169,999,170,1487c0,402,1,398-81,751c-54,235-74,363-74,479v90l65,73
		c194,223,363,298,558,247c68-18,79-14,100,31c38,80,5,153-77,168c-48,9-72-6-126-79c-22-30-50-59-61-66c-21-11-116-15-126-5
		c-9,9,59,124,98,165c48,50,102,79,174,92c75,14,92,3,101-63c12-87,61-113,114-59c59,58,45,115-30,127c-51,8-68,20-53,35
		c19,19,61,13,101-14c72-50,127-55,138-11c4,13,12,28,19,32c10,5,10,15,1,42c-10,31-15,35-49,38c-21,2-62-6-93-18
		c-60-22-84-16-84,21c0,22,19,33,90,49c81,19,129,40,141,62c16,30,0,104-28,133c-21,20-35,25-78,25c-83,0-99-19-103-119
		c-4-80-5-82-41-111c-20-17-79-53-131-80s-114-61-137-75l-42-26l-7,26c-18,71,19,176,122,345l77,126h62c69,0,121,25,144,67
		c11,20,10,29-3,53c-21,39-36,57-66,77C10607,5026,10597,5025,10562,4995z"/>
</g>
</svg>
