<?xml version="1.0" standalone="no"?>
<!DOCTYPE svg PUBLIC "-//W3C//DTD SVG 20010904//EN"
 "http://www.w3.org/TR/2001/REC-SVG-20010904/DTD/svg10.dtd">
<svg version="1.0" xmlns="http://www.w3.org/2000/svg"
 width="640.000000pt" height="1280.000000pt" viewBox="0 0 640.000000 1280.000000"
 preserveAspectRatio="xMidYMid meet">
<metadata>
Created by potrace 1.15, written by Peter Selinger 2001-2017
</metadata>
<g transform="translate(0.000000,1280.000000) scale(0.100000,-0.100000)"
fill="#000000" stroke="none">
<path d="M1753 12305 c-20 -97 -41 -272 -47 -380 l-6 -100 15 68 c19 91 57
410 53 445 -2 19 -7 10 -15 -33z"/>
<path d="M2698 12249 c-9 -5 -29 -37 -44 -70 -18 -39 -32 -58 -40 -55 -39 15
-134 -261 -149 -429 -13 -152 -14 -263 -4 -294 6 -18 9 -34 7 -36 -2 -3 -26
-6 -53 -7 -45 -3 -50 -1 -72 31 -26 38 -30 34 -8 -8 8 -16 12 -31 9 -34 -3 -2
-7 -16 -10 -31 -3 -19 0 -26 12 -26 22 0 43 -29 44 -59 0 -14 -19 -49 -44 -80
-155 -198 -307 -507 -340 -692 -19 -103 -30 -270 -19 -285 26 -36 148 -46 236
-19 67 20 189 96 270 167 l67 60 49 -18 c46 -16 51 -16 84 -1 19 10 42 17 51
17 9 0 54 18 101 40 70 33 87 45 98 72 8 20 29 41 50 52 31 17 39 30 63 103
15 46 32 83 38 83 7 0 12 28 12 76 1 67 -2 79 -23 100 -35 35 -29 45 19 28 37
-13 45 -13 75 1 18 9 31 20 29 24 -3 5 10 33 28 63 l33 56 -17 38 c-19 40 -16
61 9 81 14 10 14 13 -1 30 -21 24 -50 125 -42 147 4 11 -3 26 -22 45 -16 15
-44 46 -63 69 -19 23 -39 42 -43 42 -5 0 -38 17 -72 37 l-64 38 4 45 c9 92 3
171 -17 227 -11 32 -25 74 -30 93 -6 19 -17 49 -25 67 -8 17 -14 35 -14 41 0
5 -16 33 -35 61 -19 28 -35 54 -35 58 0 10 -66 63 -77 63 -4 0 -16 -5 -25 -11z"/>
<path d="M2271 11678 c0 -14 -4 -35 -7 -45 -5 -17 -5 -17 6 0 6 10 9 30 7 45
l-4 27 -2 -27z"/>
<path d="M2271 11584 c0 -11 3 -14 6 -6 3 7 2 16 -1 19 -3 4 -6 -2 -5 -13z"/>
<path d="M2281 11544 c0 -11 3 -14 6 -6 3 7 2 16 -1 19 -3 4 -6 -2 -5 -13z"/>
<path d="M1661 11545 c-1 -5 -10 -77 -20 -160 -44 -341 -62 -517 -86 -850 -14
-192 -30 -404 -35 -470 -12 -158 -27 -397 -40 -620 -25 -452 -21 -417 -46
-440 l-23 -21 25 -29 c14 -16 22 -35 19 -43 -3 -7 -5 -26 -5 -42 0 -26 -4 -29
-47 -38 -26 -6 -49 -9 -51 -8 -3 4 25 558 33 656 3 35 3 61 -1 58 -4 -4 -13
-72 -20 -150 -7 -79 -18 -188 -23 -243 -6 -55 -11 -151 -11 -213 0 -109 -1
-113 -23 -121 -13 -5 -30 -15 -38 -23 -8 -7 -40 -37 -71 -67 l-58 -54 0 204 0
205 29 17 c16 9 39 17 51 17 19 0 20 2 10 15 -17 20 -1 19 22 -2 10 -9 18 -11
18 -5 0 6 -12 20 -27 31 -16 12 -33 25 -39 30 -6 5 -14 44 -18 88 -4 43 -14
110 -23 148 -16 71 -16 327 2 1255 3 160 1 228 -5 195 -11 -66 -29 -516 -37
-942 -3 -189 -9 -343 -13 -343 -4 0 -5 13 -2 29 3 22 -1 32 -17 40 -19 11 -21
20 -21 119 1 74 6 119 17 147 18 46 20 100 3 120 -7 9 -9 53 -6 132 l5 118
-10 -109 c-5 -61 -11 -112 -14 -114 -13 -13 -25 17 -25 63 0 52 -42 209 -61
230 -5 5 -10 88 -10 185 -1 120 -4 163 -10 135 -4 -22 -8 -98 -9 -170 -1 -92
-4 -123 -11 -107 -5 13 -9 71 -10 128 0 57 -4 104 -9 104 -5 0 -10 -9 -12 -20
-4 -25 -22 -28 -26 -5 -2 10 7 29 20 43 36 40 61 83 45 76 -8 -3 -18 6 -25 20
-9 21 -8 26 14 40 13 9 24 23 24 31 0 19 -37 38 -60 32 -13 -3 -17 0 -13 9 8
20 -17 46 -36 38 -9 -4 -32 -7 -51 -8 -31 -1 -35 -4 -32 -26 4 -32 31 -52 58
-46 12 3 27 0 33 -8 8 -10 5 -16 -15 -25 -14 -6 -29 -9 -34 -6 -27 17 -126
-65 -165 -137 -14 -26 -14 -28 8 -43 l23 -15 -34 -69 c-19 -38 -37 -90 -40
-116 -4 -43 -7 -46 -29 -42 -37 7 -21 -19 25 -39 2 -1 -12 -26 -31 -56 -34
-52 -95 -114 -133 -136 -18 -10 -18 -11 3 -34 17 -18 19 -27 12 -41 -9 -15 -2
-27 36 -68 42 -44 46 -54 41 -82 -4 -18 -8 -41 -10 -52 -4 -26 -50 -53 -104
-61 l-43 -6 60 -57 c33 -31 72 -74 86 -95 28 -41 27 -58 -6 -112 -21 -35 -24
-48 -9 -39 15 9 12 -3 -7 -36 -9 -15 -29 -33 -44 -40 -34 -13 -29 -31 15 -57
37 -22 96 -103 96 -132 0 -11 -16 -38 -36 -60 -20 -22 -33 -40 -29 -40 4 0 15
10 26 23 l19 22 20 -24 c11 -13 20 -29 20 -37 0 -21 51 1 95 41 21 19 39 35
41 35 3 0 -2 -16 -10 -35 -8 -19 -11 -37 -6 -40 5 -3 14 14 21 37 10 41 48
124 52 116 1 -1 -1 -142 -4 -313 -4 -170 -7 -446 -8 -611 0 -166 -4 -316 -7
-333 l-7 -32 -13 27 c-8 14 -14 37 -14 51 0 13 -4 22 -9 18 -5 -3 -12 7 -14
22 -3 16 -2 -6 0 -47 3 -45 0 -87 -7 -105 l-11 -29 -25 32 c-27 34 -44 41 -44
18 0 -17 -32 -15 -38 2 -9 27 -22 9 -22 -29 l0 -41 -36 31 c-19 17 -39 29 -44
26 -9 -6 2 -61 19 -94 15 -27 12 -32 -17 -24 -12 3 -24 15 -26 27 -5 24 -3 -6
-56 691 -22 292 -44 584 -49 650 -6 66 -20 260 -33 430 -13 171 -25 288 -26
260 -2 -27 1 -124 7 -215 6 -91 22 -334 36 -540 29 -438 75 -1064 90 -1227 4
-43 2 -52 -12 -55 -16 -3 -16 -4 0 -20 18 -17 24 -43 8 -34 -5 4 -11 1 -13 -5
-2 -7 -12 -7 -30 0 -31 12 -31 12 -55 226 -9 88 -19 152 -21 142 -4 -18 23
-323 34 -401 4 -25 3 -36 -4 -32 -6 4 -8 -2 -5 -15 5 -17 2 -20 -13 -15 -10 3
-26 1 -33 -4 -12 -7 -9 -10 12 -15 15 -4 27 -11 27 -16 0 -5 -8 -6 -18 -2 -16
6 -16 5 1 -14 17 -20 17 -21 -5 -28 -22 -7 -22 -7 6 -14 28 -6 27 -6 -18 -20
-55 -16 -59 -28 -11 -37 47 -9 44 -24 -5 -24 -42 0 -55 -16 -17 -22 12 -2 21
-8 20 -14 -1 -8 15 -10 45 -8 32 2 39 1 22 -4 -33 -10 -100 -44 -100 -51 0
-10 60 -41 78 -41 12 0 8 -8 -13 -30 -16 -16 -38 -30 -49 -30 -13 0 -16 -4
-10 -9 7 -8 66 -18 122 -20 8 -1 -4 -21 -27 -47 -23 -26 -41 -51 -41 -56 0 -4
18 1 40 12 45 23 50 24 50 10 0 -5 -12 -16 -27 -24 l-28 -15 33 -1 c17 0 32
-4 32 -9 0 -71 201 -1742 300 -2491 47 -355 67 -525 105 -895 25 -240 34 -322
67 -610 l33 -280 1 -1018 c0 -559 4 -1020 7 -1024 17 -16 22 23 28 240 16 524
32 905 40 962 4 33 5 -68 1 -225 -9 -368 -8 -908 1 -941 8 -31 33 -44 52 -29
10 8 15 4 20 -20 10 -45 29 -31 35 26 l5 49 8 -58 c8 -64 42 -141 57 -132 6 4
10 50 10 103 1 92 1 95 15 65 9 -22 21 -33 34 -33 11 0 26 -10 32 -22 12 -23
13 -23 21 7 4 17 5 49 2 72 -4 27 -2 43 4 43 13 0 32 -55 32 -95 0 -32 31 -72
48 -61 5 3 17 24 28 48 32 74 54 83 54 24 0 -46 14 -60 58 -61 23 0 47 -8 57
-19 11 -11 26 -15 40 -12 15 4 31 -3 53 -25 51 -50 62 -37 63 83 1 86 3 96 10
59 10 -50 24 -71 50 -71 27 0 39 -31 39 -97 0 -32 5 -65 10 -73 20 -30 30 13
31 135 1 102 3 113 11 75 5 -25 13 -59 18 -76 6 -17 10 -50 10 -74 0 -32 6
-48 24 -65 24 -22 24 -22 33 -2 8 17 11 14 22 -23 16 -55 31 -37 31 38 0 28 5
52 10 52 6 0 10 -29 10 -68 0 -76 4 -86 30 -72 15 8 19 32 26 152 l8 143 7
-95 c6 -95 14 -130 29 -130 11 0 20 27 20 60 0 19 7 33 20 40 15 8 20 21 20
50 0 40 11 51 27 28 4 -7 10 -59 13 -115 5 -95 18 -138 37 -119 4 4 9 49 11
101 4 95 14 117 32 70 11 -28 25 -32 34 -9 10 26 26 5 26 -34 0 -66 8 -80 45
-80 32 0 33 1 40 55 6 49 8 53 20 36 11 -15 14 -16 18 -3 3 8 8 268 11 577 3
355 9 569 15 580 10 17 10 16 11 -2 0 -11 5 -189 10 -395 5 -206 12 -429 16
-494 7 -110 9 -122 32 -143 18 -17 26 -37 30 -73 5 -55 15 -68 37 -50 11 10
15 38 15 116 0 95 2 104 19 104 25 0 31 -19 31 -100 0 -74 14 -125 30 -115 6
4 18 1 27 -7 13 -10 17 -10 20 0 7 19 23 14 45 -14 26 -32 38 -18 38 43 0 63
17 61 22 -3 6 -66 15 -78 50 -65 25 10 26 12 32 138 4 70 11 155 15 188 7 50
9 34 10 -91 1 -139 3 -152 22 -170 20 -18 21 -18 35 1 8 10 14 29 14 41 0 13
7 27 17 32 15 9 15 32 3 301 -14 309 -9 494 16 589 35 135 39 103 55 -493 12
-459 17 -510 54 -510 18 0 21 9 26 75 4 41 8 154 9 250 3 197 13 175 25 -52 9
-170 20 -192 68 -147 l22 20 6 -41 c7 -55 24 -68 77 -63 36 4 42 8 42 28 0 43
9 56 31 42 16 -10 21 -9 29 3 5 8 9 161 9 347 1 576 51 1024 171 1518 91 378
225 764 375 1080 61 131 97 217 91 223 -8 7 -9 5 -40 -48 -153 -266 -338 -734
-432 -1100 -15 -58 -31 -109 -36 -114 -11 -14 -10 31 3 79 6 22 12 58 14 81 9
95 88 545 100 564 3 5 21 12 40 16 19 3 35 10 35 16 0 5 6 6 13 3 6 -4 2 2
-10 12 -15 12 -25 38 -33 83 -12 63 -10 73 45 310 57 248 77 325 166 640 62
222 80 269 129 335 22 30 40 62 40 72 -1 17 -1 17 -11 1 -12 -22 -29 -23 -29
-3 0 32 120 367 220 615 67 167 80 196 146 338 24 52 44 96 44 98 0 11 212
424 230 449 5 6 17 27 29 48 12 20 31 54 42 75 46 80 61 112 57 124 -7 20
-138 -181 -242 -372 -72 -130 -296 -590 -296 -606 0 -3 -27 -69 -60 -147 -61
-147 -190 -506 -254 -709 -20 -64 -43 -123 -51 -132 -8 -8 -15 -19 -15 -25 0
-6 -4 -10 -10 -9 -5 2 -27 -19 -49 -47 -44 -56 -193 -293 -230 -368 -33 -65
-53 -81 -45 -36 39 206 147 599 291 1049 22 69 43 135 47 148 5 15 3 22 -6 22
-7 1 -20 16 -29 35 l-17 35 33 -20 c45 -28 64 -26 37 3 -28 29 -31 73 -4 62 9
-4 33 -11 53 -15 19 -3 41 -10 48 -15 10 -6 11 -3 2 13 -8 15 -8 21 2 25 6 2
-2 11 -20 20 -35 19 -37 53 -2 42 29 -9 61 4 55 22 -5 11 -2 13 10 9 11 -4 14
-1 9 13 -5 15 -1 18 22 14 l28 -4 -29 26 c-32 30 -32 30 17 47 l36 13 -40 43
c-22 23 -44 42 -50 42 -5 0 6 16 26 36 40 39 41 56 5 64 -24 6 -23 6 8 19 46
19 40 34 -10 27 l-43 -6 39 18 39 18 -26 17 c-15 9 -44 17 -67 17 -22 0 -40 2
-40 5 0 3 16 19 35 36 52 46 46 53 -39 45 -70 -6 -74 -6 -69 13 3 10 15 22 26
26 17 6 19 8 6 12 -11 3 -15 12 -11 31 l5 27 -27 -24 c-14 -14 -26 -21 -26
-18 0 14 167 328 240 452 26 45 53 99 61 120 7 22 17 46 22 53 14 18 -1 14
-21 -6 -24 -24 -132 -190 -132 -202 0 -6 -4 -10 -10 -10 -5 0 -10 -5 -10 -11
0 -6 -8 -23 -19 -37 -10 -15 -42 -72 -71 -127 -55 -106 -68 -125 -80 -125 -11
0 1 41 104 373 47 153 86 286 86 295 0 43 -123 -284 -206 -548 -14 -47 -33
-92 -41 -100 -7 -8 -19 -23 -26 -32 -7 -9 -24 -20 -39 -23 -26 -7 -27 -6 -21
30 6 35 4 37 -15 31 -17 -6 -23 -2 -28 19 l-7 26 -27 -26 -28 -26 -7 47 c-8
54 -17 50 -45 -22 -30 -76 -23 -33 19 131 91 348 123 453 163 533 39 79 40 83
22 96 -17 13 -21 10 -49 -43 -17 -31 -40 -70 -51 -86 -20 -29 -54 -93 -54
-103 0 -2 7 -1 15 2 9 3 18 0 21 -7 2 -7 -18 -87 -45 -177 -27 -91 -54 -184
-60 -207 -33 -131 -31 -125 -48 -111 -14 11 -16 10 -11 -15 5 -24 3 -27 -16
-21 -11 3 -28 16 -38 27 -16 21 -16 20 -31 -28 -14 -48 -15 -49 -22 -22 -6 22
-10 25 -21 16 -11 -9 -15 -7 -20 6 -7 17 -2 29 60 140 137 245 162 302 116
260 -11 -10 -20 -24 -20 -32 0 -7 -4 -13 -10 -13 -5 0 -10 -5 -10 -10 0 -6 -5
-16 -11 -23 -9 -11 -60 -90 -107 -167 -35 -57 -38 -12 -8 106 30 118 32 137
11 110 -14 -19 -15 -18 -17 15 -2 59 2 80 48 233 25 83 43 157 41 165 -3 12
-7 9 -14 -9 -6 -14 -18 -43 -27 -64 -9 -22 -19 -36 -22 -33 -4 4 -6 52 -5 108
1 57 -1 101 -3 98 -2 -2 -9 -74 -15 -159 -9 -148 -12 -162 -65 -320 -30 -91
-84 -266 -121 -390 -37 -124 -71 -229 -75 -235 -4 -5 -8 -23 -8 -40 -1 -40
-19 -85 -34 -85 -9 0 -9 -3 -1 -11 12 -12 5 -43 -43 -191 -25 -76 -36 -91 -48
-65 -5 10 -7 10 -12 0 -8 -19 -31 -16 -39 5 -6 14 -12 11 -40 -23 -19 -22 -36
-37 -39 -34 -3 3 3 77 14 164 20 161 24 212 15 203 -7 -6 -19 -74 -50 -273
-14 -93 -39 -226 -55 -295 -16 -69 -32 -143 -36 -165 -5 -34 -7 -37 -16 -21
-21 37 -9 127 57 432 76 355 104 466 115 459 5 -3 13 28 19 67 27 180 47 269
131 568 45 160 106 393 114 435 6 28 5 29 -9 11 -10 -13 -15 -15 -15 -6 0 7 8
22 17 32 15 17 15 20 -6 49 l-22 30 30 61 c17 34 31 67 31 74 0 16 28 44 45
44 9 0 7 -15 -10 -57 -13 -32 -26 -76 -30 -98 -11 -68 18 -18 45 79 21 75 27
85 51 90 52 10 81 65 61 118 -9 24 -5 37 24 95 31 61 40 90 61 196 3 16 1 27
-6 27 -21 0 -11 42 31 118 23 42 47 82 54 87 14 12 26 45 16 45 -19 -1 -50
-41 -80 -103 l-32 -68 -24 18 c-38 28 -39 51 -3 84 18 16 44 32 60 35 18 4 29
15 33 30 4 15 13 24 26 24 26 0 101 42 88 50 -19 12 1 48 31 54 16 3 32 13 35
21 8 19 -22 55 -45 55 -15 1 -14 1 0 10 11 6 15 18 12 35 -3 13 -9 22 -14 19
-5 -3 -25 5 -45 17 -30 18 -38 19 -45 8 -17 -27 -9 -58 21 -79 17 -12 30 -26
30 -31 0 -14 -43 -10 -64 6 -22 17 -92 20 -101 5 -3 -5 -19 -10 -34 -10 l-28
0 18 55 c10 31 21 73 25 93 10 58 -10 27 -41 -63 -15 -44 -38 -91 -50 -105
-17 -18 -22 -33 -18 -52 4 -23 0 -29 -34 -46 -21 -11 -63 -43 -93 -71 -30 -28
-55 -51 -56 -51 -2 0 -10 8 -20 17 -16 16 -16 16 -9 -7 4 -14 10 -31 12 -38 8
-21 -119 -74 -193 -80 -63 -5 -73 -12 -55 -41 6 -10 3 -19 -11 -31 -19 -15
-20 -20 -9 -69 16 -74 15 -78 -24 -118 -29 -30 -43 -37 -71 -36 -20 1 -40 5
-44 10 -15 15 101 450 220 828 32 100 60 206 60 226 0 29 -22 -11 -51 -92 -62
-171 -139 -418 -169 -536 -8 -29 -17 -53 -21 -53 -10 0 -11 -8 67 469 36 217
63 401 62 410 -8 38 -83 -356 -164 -859 -31 -190 -58 -352 -61 -360 -3 -8 -7
-24 -8 -35 -2 -11 -21 -72 -44 -135 -22 -63 -40 -126 -40 -140 0 -24 0 -25 15
-5 15 19 15 19 8 -10 -9 -39 -21 -46 -66 -43 -42 4 -46 -4 -26 -58 10 -27 8
-44 -10 -105 -12 -41 -26 -77 -30 -81 -4 -4 -4 32 0 80 3 48 6 121 6 162 -1
59 -4 40 -17 -89 -11 -111 -20 -166 -28 -169 -7 -2 -13 -8 -13 -13 0 -6 5 -7
10 -4 18 11 11 -74 -17 -188 -14 -62 -28 -107 -30 -100 -4 10 15 196 32 316 2
17 13 111 25 207 24 204 34 271 55 360 9 36 17 106 18 155 3 78 7 95 30 129
31 44 35 100 13 162 -12 36 -10 64 25 306 64 449 87 580 112 659 21 65 22 80
11 100 l-12 24 -11 -28 c-6 -16 -11 -32 -11 -37 0 -5 -18 -65 -40 -132 -45
-140 -45 -139 -25 -132 17 7 19 -16 6 -84 -11 -54 -16 -59 -41 -37 -11 10 -52
25 -92 34 -85 20 -81 3 -41 181 26 114 39 260 24 260 -4 0 -16 -35 -27 -77
l-19 -78 -6 90 -5 90 -2 -115 c-1 -63 -9 -160 -17 -215 -8 -55 -15 -103 -15
-106 0 -3 -24 -9 -52 -12 -29 -4 -79 -20 -110 -36 -32 -16 -58 -28 -58 -26 0
1 14 94 31 206 39 259 69 492 65 497 -6 6 -33 -122 -56 -263 -26 -163 -24
-155 -41 -120 -28 55 -44 80 -59 91 -65 50 -62 39 -46 144 13 84 12 199 -2
186 -2 -3 -8 -56 -12 -118 -5 -62 -13 -126 -19 -142 l-12 -29 -19 21 c-19 20
-20 33 -16 219 l4 198 -11 -212 c-8 -141 -16 -216 -24 -224 -10 -10 -12 13 -7
112 21 443 28 649 22 649 -5 0 -8 -24 -8 -52 0 -29 -7 -170 -15 -313 -8 -143
-15 -291 -15 -329 0 -47 -6 -82 -19 -110 -48 -102 -61 -133 -61 -145 0 -7 -7
-33 -14 -59 -8 -26 -20 -81 -27 -122 l-12 -75 -34 73 -34 73 31 211 c16 116
30 222 29 237 -1 26 -1 26 -10 -4 -5 -16 -22 -111 -39 -209 -17 -99 -32 -181
-34 -183 -1 -2 -16 8 -32 22 -15 13 -41 29 -56 36 -23 9 -31 8 -61 -15 -19
-14 -39 -26 -45 -26 -7 0 -9 37 -5 118 3 64 3 115 0 112 -3 -3 -7 -58 -10
-123 -3 -65 -8 -121 -12 -125 -4 -4 -4 49 -1 118 4 69 11 235 17 370 16 343
15 336 33 630 14 224 52 706 97 1218 6 67 8 128 6 135 -3 6 -6 8 -6 2z m-757
-1006 c3 -17 6 -51 6 -76 0 -41 -2 -44 -22 -38 -13 4 -31 9 -41 12 -15 4 -17
11 -12 36 10 48 36 97 50 97 7 0 15 -14 19 -31z m1 -132 c11 -9 14 -16 8 -20
-6 -4 -22 2 -34 13 -18 14 -20 19 -8 20 8 0 23 -6 34 -13z m-33 -68 c-1 -13
-16 -37 -32 -54 -30 -31 -80 -128 -80 -156 0 -15 -39 -49 -55 -49 -3 0 2 15
11 33 10 17 29 73 44 122 20 70 30 89 43 87 9 -1 24 9 33 23 20 31 40 27 36
-6z m182 -561 c-5 -62 -10 -97 -11 -78 -2 19 -8 61 -14 92 -10 50 -9 61 5 84
10 14 20 23 23 21 2 -3 1 -56 -3 -119z m-175 -344 c2 -2 -10 -19 -28 -39 -39
-45 -41 -58 -2 -21 l28 27 -10 -51 c-7 -38 -14 -50 -24 -46 -8 4 -18 6 -22 6
-4 0 -8 32 -9 71 l-3 71 33 -7 c18 -4 35 -9 37 -11z m-102 -119 c-4 -8 -11
-15 -17 -15 -7 0 -7 6 0 21 13 23 26 19 17 -6z m63 -25 c17 -10 30 -122 17
-145 -15 -27 -24 -16 -31 38 -3 28 -9 67 -12 85 -6 33 0 39 26 22z m-70 -10
c0 -6 -9 -29 -21 -51 -17 -33 -23 -38 -35 -29 -19 17 -18 33 7 64 20 26 49 35
49 16z m54 -780 c6 -477 3 -558 -18 -504 -3 9 -6 255 -5 547 0 295 4 520 9
505 4 -15 11 -262 14 -548z m44 534 c12 -20 22 -39 22 -44 0 -5 9 -14 20 -20
20 -10 20 -21 20 -495 0 -267 -4 -485 -8 -485 -5 0 -16 118 -26 263 -9 144
-23 323 -31 397 -8 74 -16 173 -20 220 -3 47 -8 111 -11 143 -3 31 -2 57 3 57
4 -1 18 -17 31 -36z m239 -528 l0 -554 -30 -28 -29 -28 7 34 c4 19 9 47 10 63
1 15 5 30 9 34 3 3 5 40 4 82 l-2 76 -5 -80 c-5 -64 -9 -80 -23 -83 -13 -2
-18 7 -24 45 -7 48 0 525 13 811 6 151 6 153 32 167 14 8 29 14 32 15 4 0 7
-249 6 -554z m-95 308 l-7 -149 -6 125 c-5 84 -3 134 4 152 6 15 13 26 14 24
1 -1 -1 -69 -5 -152z m-34 -366 c-1 -431 -3 -463 -9 -253 -10 388 -10 745 1
745 7 0 9 -170 8 -492z m1188 407 c-4 -14 -11 -25 -16 -25 -5 0 -5 13 2 31 12
35 23 31 14 -6z m-659 -22 c-3 -10 -5 -4 -5 12 0 17 2 24 5 18 2 -7 2 -21 0
-30z m124 -44 c12 -23 6 -24 -57 -8 -39 10 -45 15 -40 33 3 12 6 29 6 39 0 16
6 14 40 -13 22 -18 45 -41 51 -51z m1005 -36 c-3 -10 -17 -99 -31 -198 -14
-99 -28 -191 -31 -205 l-6 -25 -17 25 c-9 13 -29 39 -45 57 l-28 33 43 144
c41 136 44 144 78 163 20 12 37 21 39 22 2 1 1 -7 -2 -16z m-121 -85 c-31 -99
-58 -174 -66 -182 -11 -12 -12 46 -3 131 6 55 9 62 38 76 44 22 45 22 31 -25z
m-91 -40 c-14 -126 -15 -131 -29 -117 -10 11 -11 27 -3 74 12 75 15 85 27 85
5 0 7 -19 5 -42z m-1565 -178 c11 -194 25 -355 37 -409 5 -21 3 -23 -10 -12
-14 12 -16 8 -17 -30 l-1 -44 -8 45 c-8 51 -24 667 -17 660 3 -3 10 -97 16
-210z m1498 183 c-3 -10 -8 -31 -12 -47 l-6 -29 -23 22 c-12 11 -34 21 -47 21
-45 0 -41 14 8 31 65 23 86 24 80 2z m-645 -185 c-7 -7 -12 -8 -12 -2 0 14 12
26 19 19 2 -3 -1 -11 -7 -17z m-468 1 l38 -11 -5 -56 c-4 -31 -9 -154 -13
-274 -7 -216 -7 -216 -31 -227 -34 -16 -35 -14 -18 20 22 41 11 49 -23 16 -36
-35 -50 -35 -23 -1 27 34 28 57 3 49 -17 -5 -19 4 -25 107 -4 62 -7 173 -7
246 0 127 1 133 19 127 11 -3 22 -1 26 5 8 12 11 12 59 -1z m436 -117 c-18
-83 -24 -53 -9 45 11 72 14 81 17 48 2 -22 -2 -64 -8 -93z m-40 97 c0 -11 -11
-89 -24 -172 -13 -84 -29 -190 -34 -237 -6 -47 -22 -146 -35 -220 -14 -74 -33
-204 -43 -288 -9 -84 -19 -150 -21 -148 -4 4 3 262 25 875 l7 184 40 13 c63
19 85 17 85 -7z m-210 -64 c0 -56 -20 -197 -30 -210 -5 -5 -16 -92 -26 -192
-16 -165 -19 -183 -36 -183 -18 0 -18 10 -12 223 4 142 10 227 18 236 8 11 8
13 -1 7 -10 -5 -12 6 -9 46 2 29 5 68 5 86 1 31 2 32 46 32 l45 0 0 -45z m610
-425 c-27 -206 -55 -410 -64 -452 -9 -43 -16 -108 -17 -145 0 -37 -4 -86 -9
-108 -10 -47 -5 209 11 555 11 231 12 236 45 320 18 47 39 118 46 158 9 56 15
69 24 60 9 -10 1 -98 -36 -388z m151 284 c56 -42 59 -48 59 -87 0 -23 -7 -85
-15 -137 -9 -52 -24 -162 -35 -245 -11 -82 -26 -181 -34 -220 -19 -89 -33
-185 -45 -304 -6 -51 -13 -96 -17 -100 -6 -6 0 93 12 184 4 30 3 36 -5 25 -16
-22 -14 119 3 238 8 53 17 126 20 162 l5 65 -19 -70 -19 -70 4 235 c5 235 12
370 22 370 2 0 31 -21 64 -46z m148 -116 c-1 -32 -27 -99 -28 -73 -1 36 11 95
20 95 5 0 9 -10 8 -22z m63 -134 c-2 -71 -8 -210 -14 -309 -6 -99 -12 -251
-12 -338 -1 -102 -6 -161 -13 -165 -6 -4 -16 -47 -22 -97 -13 -98 -79 -474
-86 -490 -3 -5 -3 85 0 200 12 456 38 764 76 903 15 54 18 77 9 86 -8 10 -5
48 10 142 31 201 32 205 44 201 7 -2 9 -47 8 -133z m1108 99 c0 -7 -4 -13 -8
-13 -12 0 -32 23 -32 37 0 11 4 11 20 1 11 -7 20 -18 20 -25z m-1869 -217 c-7
-110 -19 -349 -27 -531 -13 -313 -40 -601 -43 -465 0 30 10 226 24 435 25 373
29 472 21 464 -4 -4 -37 -393 -57 -674 -6 -88 -17 -236 -24 -330 l-14 -170 4
260 c3 143 9 310 15 370 5 61 17 191 26 290 8 99 26 267 40 374 13 107 24 199
24 205 0 6 5 3 11 -8 8 -13 8 -75 0 -220z m862 194 l30 0 -7 -47 c-4 -27 -16
-118 -27 -203 -10 -85 -33 -210 -49 -276 -31 -124 -39 -193 -20 -164 7 11 10
8 10 -16 0 -49 -48 -426 -56 -433 -4 -3 -4 26 0 64 3 39 11 230 16 425 5 195
12 430 16 522 l7 167 25 -19 c13 -11 38 -20 55 -20z m-1013 -2 c0 -25 -3 -29
-10 -18 -13 20 -13 50 0 50 6 0 10 -15 10 -32z m1964 14 c20 -4 -31 -39 -79
-54 -27 -9 -51 -15 -53 -13 -2 1 3 18 11 37 13 32 16 33 63 32 27 0 53 -2 58
-2z m-1700 -28 c37 -13 46 -20 40 -33 -4 -9 -9 -34 -11 -56 -10 -120 -28 -231
-40 -243 -11 -11 -13 15 -13 159 0 95 -2 170 -5 168 -4 -4 -12 -265 -14 -447
-1 -41 -5 -61 -11 -57 -7 4 -9 41 -6 98 2 51 5 167 5 260 1 92 2 167 4 167 2
0 25 -7 51 -16z m189 -81 c-15 -119 -21 -132 -22 -47 -1 44 2 84 6 87 16 17
22 3 16 -40z m123 -320 c-15 -169 -28 -342 -31 -383 -8 -105 -55 -509 -63
-545 -4 -16 -6 49 -4 145 3 157 56 701 104 1060 23 171 20 39 -6 -277z m1217
350 c-3 -10 -21 -33 -39 -51 -26 -25 -39 -31 -58 -26 -24 6 -23 8 32 49 64 49
74 53 65 28z m-1387 -205 c-4 -117 -12 -249 -17 -293 -5 -44 -23 -201 -39
-350 -34 -300 -41 -343 -34 -210 2 50 9 214 14 365 10 276 19 390 46 575 7 55
14 106 14 113 0 6 5 12 11 12 9 0 10 -56 5 -212z m-419 115 c-2 -16 -4 -3 -4
27 0 30 2 43 4 28 2 -16 2 -40 0 -55z m198 -511 c-13 -146 -17 -58 -9 190 l9
253 3 -185 c2 -102 0 -218 -3 -258z m-1300 310 c-6 -7 -35 18 -35 31 0 5 9 2
20 -8 11 -10 18 -20 15 -23z m2385 -67 c0 -39 -4 -53 -20 -63 -24 -15 -26 -3
-8 82 13 67 28 57 28 -19z m-679 -107 l-11 -33 5 40 c3 22 6 60 7 85 l2 45 3
-52 c2 -28 -1 -66 -6 -85z m180 42 c-7 -33 -10 -64 -7 -69 7 -10 -19 -201 -33
-246 -14 -45 -13 -8 4 133 18 153 36 255 43 248 2 -3 -1 -33 -7 -66z m-474
-17 c-3 -10 -5 -4 -5 12 0 17 2 24 5 18 2 -7 2 -21 0 -30z m-380 -30 c-3 -10
-5 -2 -5 17 0 19 2 27 5 18 2 -10 2 -26 0 -35z m520 -138 c-3 -101 -11 -182
-17 -192 -9 -14 -10 1 -6 61 3 43 6 130 6 193 0 79 3 113 12 113 8 0 10 -46 5
-175z m-156 33 c-7 -57 -18 -157 -25 -223 -10 -89 -14 -106 -15 -65 -2 60 39
403 47 395 3 -2 0 -51 -7 -107z m-364 10 c-3 -8 -6 -5 -6 6 -1 11 2 17 5 13 3
-3 4 -12 1 -19z m-1104 -19 c-8 -8 -16 -8 -30 0 -16 9 -14 10 12 11 21 0 26
-3 18 -11z m1104 -91 c-3 -8 -6 -5 -6 6 -1 11 2 17 5 13 3 -3 4 -12 1 -19z
m1543 -48 c-8 -6 -24 -9 -35 -8 -11 1 -26 -1 -32 -5 -22 -14 -15 19 10 47 l22
25 25 -25 c21 -21 23 -26 10 -34z m-885 -232 c-14 -111 -29 -205 -32 -208 -11
-10 28 397 45 465 18 77 12 -66 -13 -257z m520 233 c-3 -12 -11 -21 -17 -21
-5 0 -7 7 -4 16 3 9 6 23 6 32 0 12 3 13 11 5 6 -6 8 -20 4 -32z m-1178 -114
c-2 -23 -3 -1 -3 48 0 50 1 68 3 42 2 -26 2 -67 0 -90z m1453 98 c0 -16 -27
-32 -37 -21 -7 7 16 36 28 36 5 0 9 -7 9 -15z m59 -31 c-13 -14 -25 -20 -27
-14 -7 20 7 40 29 40 l22 0 -24 -26z m-134 -3 c18 -7 14 -12 -29 -39 -27 -18
-52 -30 -54 -27 -11 10 10 53 30 63 27 13 28 13 53 3z m70 -7 c-6 -2 -9 -19
-7 -38 2 -21 -4 -47 -17 -72 l-22 -39 7 70 c6 66 15 86 39 84 6 0 6 -2 0 -5z
m-1651 -10 c17 -6 23 -34 8 -34 -5 0 -17 9 -27 20 -18 20 -11 25 19 14z m1000
-82 c-4 -45 -11 -79 -16 -76 -9 6 -1 140 9 157 11 19 13 -5 7 -81z m-1754 61
c0 -5 -9 -19 -20 -33 l-20 -25 0 27 c0 23 10 35 33 37 4 1 7 -2 7 -6z m1336
-180 c-14 -409 -27 -622 -41 -698 l-14 -80 4 110 c11 269 13 349 6 295 l-8
-55 -1 60 c-2 64 48 555 56 555 3 0 2 -84 -2 -187z m1004 115 c-5 -72 -8 -76
-42 -63 -14 6 -18 2 -18 -14 0 -15 -5 -21 -16 -19 -10 2 -19 -2 -21 -9 -3 -7
3 -10 15 -6 27 7 32 -6 34 -74 1 -32 7 -67 15 -79 20 -32 1 -150 -56 -331 -59
-191 -122 -408 -152 -523 -12 -46 -24 -80 -26 -73 -6 17 45 467 71 638 13 83
24 171 24 197 0 97 34 322 51 342 15 17 110 84 121 86 3 0 3 -33 0 -72z m-100
28 c0 -2 -8 -10 -17 -17 -16 -13 -17 -12 -4 4 13 16 21 21 21 13z m-1496 -12
c11 -4 16 -20 17 -48 l1 -41 12 45 c11 41 13 43 19 20 4 -14 7 -40 7 -57 0
-26 -4 -33 -20 -33 -27 0 -25 -16 2 -31 l23 -12 -28 -10 c-16 -5 -30 -7 -33
-4 -5 4 -22 177 -18 177 1 0 9 -3 18 -6z m1340 -81 c-32 -104 -35 -108 -29
-37 5 73 19 114 39 114 11 0 9 -15 -10 -77z m-667 15 c-2 -13 -4 -5 -4 17 -1
22 1 32 4 23 2 -10 2 -28 0 -40z m748 10 c-3 -24 -19 -151 -37 -283 -17 -132
-34 -285 -39 -339 -9 -109 -36 -277 -46 -286 -9 -8 7 174 23 265 7 44 14 112
14 151 0 78 28 277 60 430 11 54 20 99 20 101 0 1 2 3 5 3 2 0 2 -19 0 -42z
m-2145 6 c0 -3 4 -35 10 -72 5 -37 17 -143 25 -237 8 -93 21 -235 29 -315 8
-80 22 -221 31 -315 8 -93 29 -316 46 -495 66 -712 52 -632 -80 460 -29 233
-111 945 -111 958 0 6 8 13 18 15 27 7 32 7 32 1z m95 -89 c8 -6 17 -58 24
-150 6 -77 16 -185 21 -240 43 -438 54 -579 46 -560 -3 6 -16 89 -31 185 -14
96 -34 231 -45 300 -11 69 -31 211 -44 315 -23 177 -23 191 -8 203 15 11 17
10 20 -14 2 -16 10 -33 17 -39z m442 13 c-2 -13 -4 -5 -4 17 -1 22 1 32 4 23
2 -10 2 -28 0 -40z m-359 -20 c4 -34 12 -35 42 -3 12 13 26 22 30 20 4 -2 10
-93 14 -202 4 -109 16 -382 27 -608 11 -225 24 -504 29 -620 6 -115 14 -259
20 -319 26 -304 24 -310 -19 -46 -41 252 -65 436 -101 795 -5 50 -29 292 -55
539 -25 247 -43 456 -40 463 3 8 15 13 27 11 17 -2 24 -11 26 -30z m249 -15
c-3 -10 -5 -2 -5 17 0 19 2 27 5 18 2 -10 2 -26 0 -35z m1004 -238 c-8 -59 -9
-46 -6 80 5 204 9 230 12 100 2 -60 -1 -141 -6 -180z m286 233 c-2 -13 -4 -5
-4 17 -1 22 1 32 4 23 2 -10 2 -28 0 -40z m-1240 -95 c-2 -27 -3 -5 -3 47 0
52 1 74 3 48 2 -27 2 -69 0 -95z m910 105 c-3 -7 -5 -2 -5 12 0 14 2 19 5 13
2 -7 2 -19 0 -25z m-999 -120 c7 -73 11 -151 11 -173 -1 -22 -7 15 -14 82 -7
67 -16 145 -20 172 -4 30 -3 51 2 51 5 0 15 -60 21 -132z m2277 73 c-9 -28
-21 -51 -26 -51 -14 0 -11 15 13 65 28 57 35 50 13 -14z m-2355 -108 c0 -82 2
-179 5 -218 4 -56 3 -63 -5 -35 -15 57 -25 400 -12 400 9 0 12 -43 12 -147z
m1580 -69 c-8 -159 -18 -242 -40 -349 -18 -89 -29 -125 -29 -100 -1 59 37 489
49 565 27 163 33 131 20 -116z m-123 139 c-3 -10 -5 -4 -5 12 0 17 2 24 5 18
2 -7 2 -21 0 -30z m-890 -5 c-3 -7 -5 -2 -5 12 0 14 2 19 5 13 2 -7 2 -19 0
-25z m-274 -95 c5 -100 -4 -145 -17 -82 -9 48 -7 204 3 194 5 -6 11 -56 14
-112z m1104 65 c-2 -13 -4 -5 -4 17 -1 22 1 32 4 23 2 -10 2 -28 0 -40z m278
-67 c-10 -36 -22 -70 -27 -76 -6 -6 -7 -5 -4 5 2 8 12 49 22 90 9 41 19 69 22
61 2 -7 -4 -43 -13 -80z m535 49 c12 -8 10 -32 -19 -182 -18 -95 -50 -274 -72
-398 -22 -124 -42 -232 -46 -240 -4 -9 -10 5 -13 35 l-7 50 -1 -53 c-2 -58
-22 -132 -36 -132 -4 0 -5 10 -2 23 4 12 11 121 16 242 15 340 27 484 51 579
l21 86 47 0 c25 0 53 -4 61 -10z m-1293 -47 c-3 -10 -5 -4 -5 12 0 17 2 24 5
18 2 -7 2 -21 0 -30z m470 -25 c-2 -13 -4 -3 -4 22 0 25 2 35 4 23 2 -13 2
-33 0 -45z m920 50 c7 -9 -2 -57 -28 -148 -20 -74 -51 -190 -69 -257 -18 -68
-36 -123 -41 -123 -10 0 -12 -12 46 293 25 131 45 240 45 243 0 10 38 3 47 -8z
m-1740 -50 c-3 -7 -5 -2 -5 12 0 14 2 19 5 13 2 -7 2 -19 0 -25z m877 -205
c-4 -109 -11 -184 -14 -168 -6 29 -6 28 -15 -15 -17 -88 -16 -3 1 147 9 81 19
170 21 196 3 27 7 46 10 44 2 -3 1 -95 -3 -204z m-149 29 c-11 -77 -18 -36 -9
55 8 77 9 82 12 38 2 -27 1 -70 -3 -93z m-135 -141 c-12 -141 -28 -214 -29
-131 0 67 17 306 26 359 l8 46 3 -70 c2 -38 -2 -130 -8 -204z m1507 192 c-7
-73 -80 -326 -95 -331 -6 -2 -8 -12 -5 -22 6 -23 -15 -27 -23 -5 -8 19 111
425 124 425 3 0 2 -30 -1 -67z m-2241 2 c-3 -8 -10 -15 -15 -15 -7 0 -6 10 1
26 12 26 25 16 14 -11z m465 -122 c-2 -65 -6 -138 -11 -163 -7 -40 -8 -35 -9
40 -1 97 10 253 17 245 3 -2 4 -58 3 -122z m186 60 c-2 -16 -4 -5 -4 22 0 28
2 40 4 28 2 -13 2 -35 0 -50z m-983 -120 c10 -87 22 -194 27 -238 10 -85 23
-547 14 -530 -2 6 -18 187 -35 403 -16 216 -31 396 -32 400 0 4 -4 -15 -8 -43
l-7 -50 -1 61 c-2 70 8 154 18 154 3 0 14 -71 24 -157z m1573 52 c-9 -129 -35
-256 -58 -285 l-21 -25 6 60 c5 62 66 335 74 335 3 0 2 -38 -1 -85z m-1375 8
c-10 -28 -10 -28 -11 12 -1 28 2 36 10 28 8 -8 8 -19 1 -40z m775 -65 c-2 -18
-4 -4 -4 32 0 36 2 50 4 33 2 -18 2 -48 0 -65z m949 -95 c-10 -183 -25 -369
-36 -433 -5 -30 -12 -80 -15 -110 -11 -100 -17 -67 -10 60 23 481 36 610 62
610 3 0 3 -57 -1 -127z m-520 30 c-3 -16 -10 -96 -16 -180 -6 -83 -15 -173
-20 -200 -6 -40 -8 -31 -9 59 -1 95 22 319 35 340 11 17 15 7 10 -19z m-1196
-14 c0 -11 -4 -17 -10 -14 -5 3 -10 15 -10 26 0 11 5 17 10 14 6 -3 10 -15 10
-26z m711 -161 c-10 -31 -11 -29 -6 16 3 27 6 65 7 85 1 26 3 21 5 -16 2 -28
-1 -66 -6 -85z m-84 -10 c-2 -24 -4 -7 -4 37 0 44 2 63 4 43 2 -21 2 -57 0
-80z m754 -43 l-9 -40 -1 40 c0 22 3 65 7 95 l7 55 3 -55 c1 -30 -1 -73 -7
-95z m861 55 c-6 -15 -11 -19 -16 -12 -10 17 4 56 15 45 6 -6 6 -19 1 -33z
m-2525 -102 c-2 -18 -4 -4 -4 32 0 36 2 50 4 33 2 -18 2 -48 0 -65z m-188 -3
c6 -44 18 -125 26 -180 9 -55 20 -127 25 -160 5 -33 22 -141 39 -240 16 -99
34 -214 40 -255 17 -116 101 -866 106 -945 5 -68 -75 465 -150 1000 -20 143
-43 305 -50 360 -38 269 -63 517 -51 504 2 -2 9 -40 15 -84z m2107 -42 c-3
-43 -11 -161 -17 -263 -13 -227 -20 -260 -55 -260 -25 0 -26 1 -19 53 27 213
83 547 92 547 3 0 2 -35 -1 -77z m-1724 -161 c2 -100 1 -177 -3 -170 -4 7 -9
99 -13 203 -3 111 -2 182 3 170 5 -11 10 -102 13 -203z m1385 143 c-4 -36 -11
-73 -17 -83 -9 -13 -10 -3 -5 43 3 32 8 69 11 82 11 44 17 22 11 -42z m-1494
-275 c4 -91 3 -114 -2 -70 -5 36 -11 128 -14 205 -3 94 -2 117 3 70 4 -38 10
-131 13 -205z m1527 37 c-9 -142 -20 -244 -50 -432 l-18 -110 -1 120 c-1 126
56 598 70 573 4 -7 3 -75 -1 -151z m-810 -17 l-7 -135 -1 150 c-1 87 2 144 7
135 5 -8 5 -76 1 -150z m1228 43 c-4 -38 -12 -88 -17 -113 -6 -25 -13 -70 -17
-100 -9 -79 -25 -99 -19 -25 2 33 7 94 9 135 5 73 31 170 45 170 4 0 4 -30 -1
-67z m-251 25 c-3 -8 -6 -5 -6 6 -1 11 2 17 5 13 3 -3 4 -12 1 -19z m648 -60
c-7 -49 -31 -147 -39 -155 -3 -3 -10 6 -15 20 -10 24 1 78 30 150 17 41 30 33
24 -15z m-758 -30 c-3 -8 -6 -5 -6 6 -1 11 2 17 5 13 3 -3 4 -12 1 -19z m83
-34 c-16 -67 -20 -78 -26 -72 -4 5 10 85 21 117 12 32 15 0 5 -45z m730 32 c0
-3 -4 -8 -10 -11 -5 -3 -10 -1 -10 4 0 6 5 11 10 11 6 0 10 -2 10 -4z m-1029
-138 l-9 -33 -1 35 c0 19 3 53 7 75 l7 40 3 -42 c2 -22 -1 -56 -7 -75z m-544
25 c-2 -16 -4 -5 -4 22 0 28 2 40 4 28 2 -13 2 -35 0 -50z m1587 51 c18 -7 22
-39 6 -49 -25 -15 -8 -27 30 -21 l40 6 -6 -30 c-4 -19 -2 -30 5 -30 18 0 13
-34 -9 -53 -11 -9 -20 -24 -20 -34 0 -9 -10 -52 -21 -96 -18 -67 -27 -82 -53
-98 -17 -10 -35 -19 -40 -19 -4 0 -5 46 -2 103 4 56 9 134 11 172 9 149 16
165 59 149z m-1127 -56 c-3 -7 -5 -2 -5 12 0 14 2 19 5 13 2 -7 2 -19 0 -25z
m578 -95 c-3 -23 -11 -46 -17 -49 -12 -7 -5 83 10 136 7 23 7 23 10 -10 2 -19
1 -54 -3 -77z m1351 70 c-7 -7 -26 7 -26 19 0 6 6 6 15 -2 9 -7 13 -15 11 -17z
m-3199 -25 c-3 -7 -5 -2 -5 12 0 14 2 19 5 13 2 -7 2 -19 0 -25z m888 -45 c-3
-19 -9 -33 -12 -30 -3 3 -2 25 2 49 5 24 10 37 12 30 3 -7 2 -29 -2 -49z
m1648 -85 c-8 -40 -21 -86 -28 -103 -12 -27 -13 -21 -8 60 3 50 9 107 15 129
l9 39 14 -26 c11 -22 11 -37 -2 -99z m188 58 c12 14 14 14 20 -4 10 -27 -53
-207 -72 -207 -19 0 -23 52 -9 137 13 84 19 97 35 74 11 -15 13 -15 26 0z
m-94 -19 c13 5 15 0 10 -38 -4 -24 -9 -68 -13 -96 -6 -51 -8 -53 -33 -46 -14
3 -29 7 -32 9 -3 2 4 46 15 99 13 65 22 91 28 81 5 -9 15 -13 25 -9z m322 -80
c8 -8 11 -6 11 7 0 12 5 16 15 12 8 -3 15 -1 15 4 0 19 17 10 30 -15 17 -32
23 -25 30 31 l5 46 31 -44 31 -44 -19 -44 c-33 -78 -134 -371 -177 -515 -61
-203 -70 -223 -106 -256 -37 -34 -73 -95 -62 -106 4 -4 20 7 35 25 16 18 31
30 34 27 3 -3 -5 -47 -17 -98 -31 -130 -35 -141 -48 -128 -13 13 -77 15 -77 3
0 -14 24 -32 43 -32 10 0 15 -4 12 -10 -3 -5 -18 -10 -32 -10 -15 0 -37 -10
-50 -22 -36 -33 -39 -14 -10 57 30 73 31 79 17 70 -6 -4 -10 8 -10 28 0 28 5
36 23 41 50 12 72 118 41 196 -14 35 -15 49 -4 108 17 94 66 294 90 372 11 36
20 82 20 102 0 44 30 189 41 202 5 5 15 4 25 -4 15 -13 15 -9 9 45 l-6 60 25
-49 c13 -26 29 -53 35 -59z m-1360 39 c-9 -8 -10 -7 -5 7 3 10 7 24 7 30 1 7
3 4 6 -7 3 -10 -1 -23 -8 -30z m1200 -111 c-12 -52 -25 -95 -29 -95 -4 0 -13
6 -19 14 -9 11 -3 37 26 117 45 121 55 105 22 -36z m-3010 -40 c6 -38 15 -108
21 -155 16 -124 123 -877 165 -1154 32 -221 35 -256 34 -455 l-1 -216 -18 110
c-18 112 -48 326 -75 535 -19 150 -48 422 -80 745 -14 143 -34 347 -45 453
-11 107 -19 208 -19 225 2 36 2 36 18 -88z m1338 43 c-3 -7 -5 -2 -5 12 0 14
2 19 5 13 2 -7 2 -19 0 -25z m1349 -14 c-12 -30 -25 -13 -13 19 8 23 12 27 15
14 2 -10 1 -25 -2 -33z m-187 -90 c-22 -27 -26 -14 -10 32 16 45 16 45 19 14
2 -17 -2 -38 -9 -46z m-645 28 c-1 -7 -2 -26 -2 -43 -3 -45 -22 -25 -22 22 0
28 4 39 13 37 6 -3 12 -10 11 -16z m-1627 -69 c-3 -10 -5 -4 -5 12 0 17 2 24
5 18 2 -7 2 -21 0 -30z m1710 -15 c-3 -8 -6 -5 -6 6 -1 11 2 17 5 13 3 -3 4
-12 1 -19z m1020 -75 c-9 -26 -19 -68 -22 -93 -13 -93 -59 -239 -71 -227 -8 8
27 189 42 219 8 15 14 49 14 76 0 40 4 52 23 65 12 8 24 13 26 12 1 -2 -4 -25
-12 -52z m-2980 0 c-3 -10 -5 -4 -5 12 0 17 2 24 5 18 2 -7 2 -21 0 -30z m338
-203 c8 -101 13 -186 11 -188 -14 -13 -51 393 -38 412 8 13 8 17 27 -224z
m2485 119 c-16 -90 -32 -139 -45 -139 -6 0 -21 11 -33 23 -21 23 -22 27 -10
88 13 62 14 64 53 75 22 6 41 10 43 9 1 -1 -2 -26 -8 -56z m-130 12 c0 -5 -3
-22 -6 -39 -6 -30 -6 -30 -35 -13 -36 20 -37 36 -1 49 35 13 42 14 42 3z m165
-181 c-4 -23 -9 -39 -12 -36 -3 2 -2 23 2 46 4 23 9 39 12 36 3 -2 2 -23 -2
-46z m-866 -105 c-5 -67 -14 -109 -29 -141 -35 -70 -42 -42 -25 92 19 143 20
144 42 144 17 0 18 -8 12 -95z m-76 38 c-7 -48 -11 -51 -19 -19 -7 29 0 56 15
56 6 0 7 -16 4 -37z m-104 -20 c-5 -21 -9 -42 -9 -47 0 -23 -19 12 -25 47 -7
35 -6 37 18 37 24 0 24 -2 16 -37z m-340 -152 c-8 -68 -15 -101 -17 -81 -4 42
20 243 26 216 2 -11 -2 -71 -9 -135z m-1275 -11 c20 -132 30 -226 21 -218 -4
3 -15 73 -26 155 -20 165 -21 168 -15 162 3 -2 11 -47 20 -99z m2228 15 c-5
-18 -11 -25 -15 -18 -4 7 -2 21 5 32 16 26 19 22 10 -14z m948 3 c-1 -17 -9
-50 -70 -273 -28 -104 -71 -273 -95 -375 -67 -287 -61 -271 -90 -258 -18 8
-25 19 -25 39 0 15 -3 34 -6 43 -3 9 5 24 20 37 31 27 33 54 6 71 -13 8 -20
24 -20 44 0 17 -11 52 -24 78 l-24 48 65 127 c36 69 68 131 73 136 4 6 17 27
29 48 12 20 31 54 42 75 12 20 34 56 50 80 16 24 29 47 29 53 0 5 5 9 10 9 6
0 10 7 10 15 0 8 5 15 10 15 6 0 10 -6 10 -12z m-843 -38 c-6 -16 -13 -27 -15
-25 -8 7 10 65 18 60 4 -3 3 -18 -3 -35z m-49 -77 c-3 -45 -13 -96 -24 -120
-20 -46 -34 -55 -34 -24 0 42 47 221 58 221 3 0 2 -35 0 -77z m-2144 -48 c20
-219 26 -328 19 -395 -6 -70 -7 -72 -14 -35 -4 22 -10 108 -13 190 -4 83 -8
195 -11 250 -5 110 8 103 19 -10z m2256 -17 c-10 -54 -27 -88 -44 -88 -12 0
-6 72 9 107 36 86 54 76 35 -19z m169 53 c19 -12 9 -82 -34 -233 -47 -161 -54
-171 -55 -76 0 83 10 143 42 251 21 69 23 73 47 58z m-659 -71 c0 -18 -39
-153 -46 -159 -8 -7 2 127 11 152 8 18 35 24 35 7z m-180 -168 c-22 -152 -49
-287 -56 -279 -7 7 16 299 27 339 15 57 41 114 46 100 3 -6 -5 -78 -17 -160z
m376 111 c-3 -16 -12 -77 -21 -138 -20 -148 -22 -155 -40 -149 -10 4 -15 0
-16 -12 0 -16 -2 -16 -9 3 -9 23 2 170 21 260 10 51 12 53 62 62 5 0 6 -11 3
-26z m248 -276 c-18 -143 -32 -223 -39 -221 -16 6 -16 137 -1 241 12 81 54
218 64 208 2 -2 -9 -105 -24 -228z m-86 49 c-3 -55 -12 -108 -23 -133 -19 -47
-35 -57 -28 -19 3 13 0 27 -6 30 -6 4 -11 2 -11 -4 0 -6 -4 -8 -10 -5 -5 3
-10 15 -10 25 0 10 -4 20 -10 22 -8 3 41 120 80 188 13 23 14 23 18 6 2 -11 2
-61 0 -110z m401 13 c-13 -26 -20 -21 -12 9 3 12 9 19 14 16 5 -3 4 -14 -2
-25z m-220 -167 c-5 -48 -14 -91 -19 -96 -14 -14 -13 79 2 167 10 61 13 68 19
43 4 -15 3 -67 -2 -114z m296 -6 c-10 -25 -23 -47 -30 -50 -10 -3 -8 7 4 37
10 23 22 51 26 62 5 13 9 15 12 8 3 -7 -3 -33 -12 -57z m-245 -108 c-1 -32
-29 -210 -34 -215 -3 -4 -6 23 -6 60 0 75 17 167 31 167 5 0 9 -6 9 -12z
m-949 -360 c-9 -153 -20 -281 -24 -285 -5 -4 -5 35 -2 87 18 278 26 390 31
433 13 107 12 27 -5 -235z m1049 152 c-15 -28 -24 -19 -16 16 5 19 10 24 17
17 8 -8 7 -18 -1 -33z m210 -56 c0 -4 -8 -13 -17 -20 -17 -13 -17 -14 1 -7 14
5 17 3 11 -7 -4 -7 -7 -35 -6 -62 1 -35 -2 -48 -13 -48 -7 0 -16 -9 -19 -19
-3 -13 0 -18 7 -15 7 3 24 -9 39 -26 15 -16 34 -30 41 -30 8 0 17 -4 20 -9 6
-8 -69 -460 -77 -467 -2 -2 -29 5 -60 16 -31 11 -68 20 -82 20 -26 0 -26 0
-19 58 24 200 62 445 70 450 5 4 17 25 27 47 10 24 12 33 4 23 -8 -10 -17 -18
-21 -18 -11 0 -6 27 8 39 8 7 22 27 31 46 10 22 23 35 35 35 11 0 20 -3 20 -6z
m-463 -106 c-3 -8 -6 -5 -6 6 -1 11 2 17 5 13 3 -3 4 -12 1 -19z m-2228 -363
c12 -240 13 -341 5 -333 -26 26 -58 449 -47 613 l7 100 13 -85 c6 -47 17 -179
22 -295z m1861 191 c-7 -78 -18 -175 -25 -216 -12 -74 -13 -73 -14 115 -1 159
2 197 16 232 30 71 38 27 23 -131z m357 102 c-3 -8 -6 -5 -6 6 -1 11 2 17 5
13 3 -3 4 -12 1 -19z m-143 -137 c-10 -138 -11 -142 -74 -173 -30 -15 -58 -27
-61 -27 -6 -1 43 259 57 302 6 18 6 18 20 0 14 -17 15 -17 9 4 -11 40 6 49 32
17 23 -28 23 -34 17 -123z m453 102 c-16 -99 -57 -416 -57 -437 0 -25 -23 -56
-42 -56 -13 0 -5 63 16 118 13 35 14 49 4 85 -6 23 -12 71 -12 107 -1 56 5 76
38 143 42 84 62 99 53 40z m-230 -118 c-3 -30 -13 -65 -22 -77 -16 -22 -17
-21 -10 36 6 52 22 96 34 96 2 0 1 -25 -2 -55z m-330 -297 c36 -34 44 -68 16
-68 -27 0 -63 41 -63 72 0 36 7 35 47 -4z m-497 -14 c0 -8 -4 -12 -10 -9 -5 3
-10 13 -10 21 0 8 5 12 10 9 6 -3 10 -13 10 -21z m-10 -51 c0 -20 -3 -24 -11
-16 -7 7 -9 19 -6 27 10 24 17 19 17 -11z m-1475 -185 c11 -83 14 -132 8 -143
-7 -12 -13 11 -21 84 -12 98 -16 199 -8 190 2 -2 11 -61 21 -131z m2675 45 c0
-24 -39 -255 -43 -260 -3 -2 -12 10 -21 29 -9 18 -36 56 -61 83 -38 42 -45 56
-43 85 3 34 4 34 65 45 35 7 66 15 70 18 9 9 33 9 33 0z m-213 -49 c-3 -3 -12
-4 -19 -1 -8 3 -5 6 6 6 11 1 17 -2 13 -5z m-820 -96 c-2 -13 -4 -5 -4 17 -1
22 1 32 4 23 2 -10 2 -28 0 -40z m313 23 c0 -28 -11 -52 -21 -45 -16 9 -11 64
6 64 8 0 15 -9 15 -19z m-67 -66 c-8 -61 -19 -42 -14 26 2 37 6 48 12 37 5 -9
6 -37 2 -63z m-244 -80 c0 -31 -2 -36 -9 -20 -5 11 -9 38 -9 60 0 31 2 36 9
20 5 -11 9 -38 9 -60z m630 -110 c0 -52 -4 -107 -9 -122 -10 -33 -13 158 -4
195 11 40 14 24 13 -73z m-2286 -14 c8 -75 -4 -335 -14 -301 -10 36 -11 372 0
366 4 -3 11 -32 14 -65z m1882 -223 c-14 -51 -15 -48 -10 111 3 90 9 169 13
175 4 6 8 -44 10 -111 2 -87 -2 -137 -13 -175z m-1826 154 c1 -7 -3 -10 -9 -7
-5 3 -10 21 -9 38 1 31 1 31 9 7 4 -14 8 -31 9 -38z m2117 -6 c7 -41 -13 -173
-28 -183 -8 -4 -9 6 -5 33 4 21 7 72 7 112 0 75 14 97 26 38z m400 18 c22 -9
40 -17 42 -19 1 -1 -9 -94 -22 -206 -36 -291 -93 -890 -107 -1124 -1 -11 -5
-2 -10 20 -13 54 -13 996 -1 1166 10 131 22 179 48 179 6 0 29 -7 50 -16z
m-179 -241 c-3 -10 -5 -2 -5 17 0 19 2 27 5 18 2 -10 2 -26 0 -35z m2 -192 c1
-100 -5 -87 -11 24 -3 50 -2 81 3 70 4 -11 8 -53 8 -94z m2 -178 c0 -43 2
-159 4 -258 2 -109 0 -164 -5 -140 -10 52 -17 475 -7 475 4 0 7 -35 8 -77z
m-506 -108 l-10 -60 -3 90 c-2 50 1 101 5 115 13 43 19 -77 8 -145z m-116 -37
l-2 -53 -7 45 c-7 42 -5 60 6 60 2 0 3 -24 3 -52z m278 -110 c-3 -7 -5 -2 -5
12 0 14 2 19 5 13 2 -7 2 -19 0 -25z m340 -235 c-3 -10 -5 -2 -5 17 0 19 2 27
5 18 2 -10 2 -26 0 -35z m10 -85 c-2 -13 -4 -3 -4 22 0 25 2 35 4 23 2 -13 2
-33 0 -45z"/>
<path d="M1073 8320 c0 -41 2 -58 4 -37 2 20 2 54 0 75 -2 20 -4 3 -4 -38z"/>
<path d="M1536 8157 c-5 -59 -6 -110 -3 -113 7 -7 20 177 15 202 -3 10 -8 -30
-12 -89z"/>
<path d="M1400 8294 c0 -26 2 -45 5 -43 9 9 12 80 4 85 -5 3 -9 -16 -9 -42z"/>
<path d="M1983 7900 c0 -36 2 -50 4 -32 2 17 2 47 0 65 -2 17 -4 3 -4 -33z"/>
<path d="M2167 8028 c-3 -13 -8 -50 -11 -83 -5 -47 -4 -55 4 -36 12 27 26 141
18 141 -3 0 -8 -10 -11 -22z"/>
<path d="M2145 7597 c-4 -25 -5 -52 -3 -59 3 -7 8 11 13 40 4 29 5 56 2 59 -3
2 -9 -16 -12 -40z"/>
<path d="M2291 7047 c-7 -20 -11 -43 -8 -50 2 -6 9 5 16 26 7 20 11 43 8 50
-2 6 -9 -5 -16 -26z"/>
<path d="M973 11090 c0 -36 2 -50 4 -32 2 17 2 47 0 65 -2 17 -4 3 -4 -33z"/>
<path d="M2066 11128 c-9 -12 -16 -29 -16 -38 0 -8 10 0 21 18 24 37 20 55 -5
20z"/>
<path d="M1422 10073 c-15 -128 -26 -303 -20 -303 7 0 28 168 36 298 4 56 5
102 1 102 -3 0 -11 -44 -17 -97z"/>
<path d="M273 9990 c0 -36 2 -50 4 -32 2 17 2 47 0 65 -2 17 -4 3 -4 -33z"/>
<path d="M2023 9900 c0 -36 2 -50 4 -32 2 17 2 47 0 65 -2 17 -4 3 -4 -33z"/>
<path d="M2345 9888 c-17 -76 -32 -207 -22 -198 7 7 48 262 43 267 -2 2 -11
-29 -21 -69z"/>
<path d="M1865 9775 c-4 -25 -5 -48 -2 -51 2 -3 8 16 12 41 3 26 4 49 2 52 -3
3 -9 -16 -12 -42z"/>
<path d="M2802 9685 c0 -16 2 -22 5 -12 2 9 2 23 0 30 -3 6 -5 -1 -5 -18z"/>
<path d="M2561 9643 c-14 -49 -33 -175 -27 -181 7 -6 24 63 35 143 11 79 8 95
-8 38z"/>
<path d="M2781 9590 c-11 -52 -15 -107 -6 -99 6 7 25 142 21 147 -2 2 -9 -20
-15 -48z"/>
<path d="M1543 9525 c0 -27 2 -38 4 -22 2 15 2 37 0 50 -2 12 -4 0 -4 -28z"/>
<path d="M3002 9378 c-15 -60 -26 -144 -18 -137 9 8 39 169 33 175 -2 3 -9
-15 -15 -38z"/>
<path d="M3197 9278 c-54 -117 -102 -263 -95 -294 7 -35 101 184 136 318 18
65 -5 51 -41 -24z"/>
<path d="M1596 9297 c-4 -27 -5 -51 -2 -54 7 -7 19 61 14 84 -2 10 -8 -4 -12
-30z"/>
<path d="M2511 9093 c-7 -40 -11 -78 -8 -85 2 -7 10 19 17 58 7 39 10 77 8 85
-3 8 -11 -19 -17 -58z"/>
<path d="M3643 9032 c-32 -66 -93 -239 -93 -262 0 -32 24 14 74 143 63 163 71
187 59 187 -4 0 -22 -30 -40 -68z"/>
<path d="M713 8365 c0 -22 2 -30 4 -17 2 12 2 30 0 40 -3 9 -5 -1 -4 -23z"/>
<path d="M2943 8325 c0 -22 2 -30 4 -17 2 12 2 30 0 40 -3 9 -5 -1 -4 -23z"/>
<path d="M661 8324 c0 -11 3 -14 6 -6 3 7 2 16 -1 19 -3 4 -6 -2 -5 -13z"/>
<path d="M672 8230 c0 -19 2 -27 5 -17 2 9 2 25 0 35 -3 9 -5 1 -5 -18z"/>
<path d="M283 8215 c0 -22 2 -30 4 -17 2 12 2 30 0 40 -3 9 -5 -1 -4 -23z"/>
<path d="M683 8150 c0 -25 2 -35 4 -22 2 12 2 32 0 45 -2 12 -4 2 -4 -23z"/>
<path d="M3830 8021 c-40 -77 30 -267 159 -431 14 -17 17 -29 10 -42 -13 -25
-11 -57 10 -118 33 -98 58 -146 83 -162 14 -9 30 -30 37 -46 8 -19 29 -39 57
-54 28 -14 44 -30 44 -42 0 -15 3 -16 14 -7 10 9 15 8 19 -2 3 -8 19 -14 35
-15 17 0 40 -5 50 -11 15 -8 23 -7 32 4 21 25 30 17 24 -22 -3 -25 -1 -44 9
-57 13 -17 12 -23 -4 -50 -11 -17 -19 -40 -19 -51 1 -17 6 -14 35 18 39 41 47
44 65 22 9 -11 23 -13 49 -9 26 4 41 2 49 -9 10 -12 18 -13 49 -2 20 7 50 11
65 8 41 -6 106 49 137 116 22 46 27 50 50 44 14 -3 31 -9 36 -13 36 -28 224
-5 315 38 86 41 93 75 26 122 -25 16 -47 38 -50 48 -8 23 -83 73 -186 121 -89
42 -275 94 -319 89 -22 -3 -26 2 -34 36 -8 33 -7 41 9 54 15 11 15 13 2 9 -9
-3 -19 -3 -23 1 -12 12 -29 8 -48 -11 -22 -22 -33 -17 -122 68 -188 179 -377
300 -551 350 -103 30 -101 30 -114 6z"/>
<path d="M4474 7861 c4 -6 16 -16 28 -22 15 -8 18 -8 14 0 -4 6 -16 16 -28 22
-15 8 -18 8 -14 0z"/>
<path d="M2533 7595 c0 -22 2 -30 4 -17 2 12 2 30 0 40 -3 9 -5 -1 -4 -23z"/>
<path d="M3976 7422 c-9 -14 -44 -116 -51 -147 -13 -60 13 -9 38 73 23 75 26
95 13 74z"/>
<path d="M3639 7368 c-27 -53 -50 -138 -38 -138 5 0 14 12 20 28 17 41 48 152
43 152 -2 0 -13 -19 -25 -42z"/>
<path d="M3502 7290 c0 -19 2 -27 5 -17 2 9 2 25 0 35 -3 9 -5 1 -5 -18z"/>
<path d="M5150 6989 c-82 -94 -175 -266 -101 -188 31 33 131 166 131 174 0 4
9 20 21 36 36 50 -2 34 -51 -22z"/>
<path d="M3573 6978 c-6 -14 -14 -43 -17 -65 l-6 -38 21 43 c11 24 19 53 17
65 -3 20 -4 20 -15 -5z"/>
<path d="M4255 4110 c-3 -5 -1 -10 4 -10 6 0 11 5 11 10 0 6 -2 10 -4 10 -3 0
-8 -4 -11 -10z"/>
</g>
</svg>
