<?xml version="1.0" standalone="no"?>
<!DOCTYPE svg PUBLIC "-//W3C//DTD SVG 20010904//EN"
 "http://www.w3.org/TR/2001/REC-SVG-20010904/DTD/svg10.dtd">
<svg version="1.0" xmlns="http://www.w3.org/2000/svg"
 width="559.000000pt" height="1280.000000pt" viewBox="0 0 559.000000 1280.000000"
 preserveAspectRatio="xMidYMid meet">
<metadata>
Created by potrace 1.15, written by Peter Selinger 2001-2017
</metadata>
<g transform="translate(0.000000,1280.000000) scale(0.100000,-0.100000)"
fill="#000000" stroke="none">
<path d="M3173 12785 c-11 -8 -24 -26 -27 -40 -8 -33 -18 -32 -39 5 -23 39
-41 38 -61 -3 -12 -27 -14 -45 -6 -92 8 -51 7 -61 -10 -83 -11 -14 -20 -40
-20 -61 -1 -34 -4 -30 -50 58 -27 52 -64 110 -83 129 l-35 35 -16 -31 c-9 -17
-16 -40 -16 -52 0 -32 115 -275 152 -322 18 -22 48 -57 66 -76 17 -19 30 -37
28 -39 -2 -2 -20 7 -40 21 -48 32 -90 41 -127 26 -23 -10 -29 -18 -29 -44 0
-18 5 -37 12 -44 25 -25 -23 -12 -104 29 -79 40 -87 42 -186 44 -86 2 -106 0
-125 -15 -21 -17 -21 -19 -5 -53 21 -44 110 -90 213 -112 89 -18 201 -68 208
-92 2 -10 8 -25 12 -35 5 -14 -4 -17 -68 -23 -64 -6 -110 -1 -313 35 -226 41
-239 42 -278 28 -31 -11 -40 -20 -38 -34 4 -28 79 -92 121 -104 93 -27 247
-51 364 -57 97 -5 127 -9 123 -19 -4 -10 12 -11 71 -7 56 5 74 3 69 -5 -4 -7
-22 -12 -40 -12 -18 0 -44 -9 -58 -20 -25 -19 -26 -19 -209 6 -101 13 -232 33
-290 44 -129 24 -139 24 -184 3 -46 -22 -48 -57 -5 -81 16 -9 30 -19 30 -22 0
-3 -19 -15 -41 -28 -36 -21 -40 -27 -34 -50 11 -46 38 -62 151 -93 107 -30
113 -30 294 -26 102 2 181 3 175 1 -5 -2 -86 -20 -180 -39 -196 -42 -234 -52
-257 -72 -16 -14 -161 -51 -288 -72 -36 -6 -75 -14 -87 -16 -23 -5 -83 -60
-83 -76 0 -5 18 -21 40 -35 39 -26 42 -26 152 -19 62 4 155 15 207 26 99 20
133 24 115 11 -6 -4 -13 -14 -16 -22 -5 -13 -172 -73 -316 -115 -12 -3 -34
-22 -49 -42 -31 -41 -25 -62 25 -78 18 -5 32 -12 32 -15 0 -3 -24 -15 -53 -28
-58 -25 -116 -95 -97 -117 7 -9 -10 -21 -63 -44 -82 -38 -110 -60 -128 -103
-15 -38 -5 -49 57 -58 106 -16 301 52 808 284 44 20 81 35 83 32 2 -2 -25 -32
-59 -68 -56 -57 -83 -75 -238 -153 -208 -105 -458 -248 -554 -318 -47 -35 -74
-63 -86 -91 -21 -46 -18 -62 15 -70 22 -6 22 -8 13 -47 -14 -51 2 -69 63 -76
34 -3 61 3 118 26 41 17 76 30 77 28 2 -2 -37 -37 -87 -78 -81 -66 -119 -110
-119 -137 0 -5 22 -19 49 -32 l50 -23 -65 -71 c-66 -73 -97 -137 -75 -159 6
-6 34 -14 63 -17 66 -9 102 8 208 95 113 93 290 227 290 220 0 -4 -26 -39 -58
-78 -67 -82 -261 -350 -368 -510 -73 -107 -73 -107 -60 -145 9 -25 20 -38 34
-40 16 -2 22 -10 22 -27 0 -34 18 -40 44 -16 31 29 36 27 36 -19 0 -29 5 -42
20 -50 11 -6 20 -16 20 -23 -1 -14 -114 -104 -160 -127 -16 -8 -30 -18 -30
-21 0 -14 58 -30 85 -23 23 6 27 4 23 -8 -4 -8 3 -20 14 -27 17 -11 18 -15 7
-22 -8 -5 -27 -9 -43 -9 -24 0 -27 -2 -16 -15 16 -19 69 -19 94 0 11 8 25 15
31 15 15 0 7 -58 -11 -85 -8 -11 -14 -35 -14 -55 0 -34 1 -34 13 -11 22 44 44
49 72 18 36 -39 62 -36 71 8 3 19 11 35 16 35 5 0 23 10 40 21 25 18 32 19 43
8 11 -12 5 -32 -36 -123 -57 -127 -71 -146 -112 -146 -26 0 -28 -2 -16 -17 8
-9 14 -19 14 -22 0 -3 22 -6 49 -6 45 0 50 -2 59 -29 8 -25 6 -31 -13 -46 -22
-16 -22 -19 -8 -34 9 -9 24 -16 32 -16 24 0 32 -47 11 -70 -10 -11 -15 -23
-12 -26 10 -11 37 17 37 37 0 11 7 19 15 19 13 0 15 -9 9 -50 -9 -65 8 -65 25
-1 11 44 25 61 51 61 12 0 19 -63 8 -82 -5 -10 -18 -18 -28 -18 -22 0 -27 -18
-8 -24 53 -16 52 -15 33 -36 -18 -20 -13 -40 11 -40 11 0 13 -6 9 -19 -3 -11
-2 -22 3 -25 5 -3 12 7 15 23 4 18 14 30 29 34 12 4 23 5 24 4 0 -1 -5 -40
-13 -87 -18 -106 -31 -128 -84 -136 -27 -5 -36 -10 -27 -15 7 -4 23 -6 35 -2
27 6 29 -2 8 -24 -36 -36 0 -58 61 -38 21 7 22 5 12 -42 -5 -26 -13 -57 -18
-68 -4 -11 -11 -28 -14 -38 -3 -9 -16 -21 -28 -26 -20 -8 -21 -10 -6 -16 10
-4 32 -2 49 4 18 6 33 11 35 11 1 0 4 -15 6 -32 3 -34 20 -41 61 -23 12 5 17
3 17 -9 0 -9 5 -16 11 -16 7 0 9 10 7 25 -5 23 16 55 27 43 9 -8 -14 -160 -26
-174 -6 -8 -20 -14 -30 -14 -24 0 -34 -19 -15 -26 14 -5 14 -9 -1 -35 -22 -36
-11 -47 30 -30 18 8 42 14 55 13 15 0 22 6 22 18 0 11 5 22 10 25 21 13 1 -68
-29 -113 -31 -48 -33 -65 -5 -41 13 11 15 11 13 -2 -8 -49 40 -64 82 -25 l26
24 12 -52 c6 -29 9 -61 5 -71 -5 -12 -4 -16 4 -11 13 8 29 -43 38 -119 5 -43
3 -53 -15 -69 -25 -22 -27 -36 -6 -36 8 0 15 -3 15 -7 0 -12 -91 -498 -97
-518 -4 -13 -26 39 -68 160 -67 195 -659 1665 -675 1675 -5 3 -69 156 -143
340 -171 423 -199 491 -203 487 -8 -7 88 -272 179 -497 61 -150 116 -307 152
-435 37 -130 110 -337 207 -590 121 -312 443 -1190 465 -1267 3 -10 0 -18 -6
-18 -18 0 -13 -17 7 -22 12 -4 43 -76 110 -259 l93 -254 -15 -475 -15 -475
-47 -120 c-25 -66 -49 -124 -54 -129 -4 -4 -11 3 -15 15 -4 13 -27 87 -51 165
-44 138 -46 151 -134 850 -88 702 -117 878 -161 970 -15 32 -21 70 -24 160 -9
228 -25 364 -44 364 -4 0 -14 -39 -21 -87 l-13 -87 -78 224 c-43 124 -78 221
-78 215 -1 -9 127 -617 164 -780 8 -39 15 -171 19 -380 3 -176 9 -392 12 -480
4 -109 3 -157 -4 -150 -5 6 -155 244 -333 530 -294 474 -364 579 -802 1195
-264 371 -492 686 -507 700 -15 14 -54 63 -86 110 -163 239 -269 381 -272 365
-2 -10 19 -50 47 -89 168 -237 250 -361 343 -526 59 -104 209 -335 341 -527
129 -189 331 -490 448 -670 118 -181 352 -536 521 -791 l308 -463 0 -127 c1
-188 -42 -1095 -52 -1106 -5 -6 -8 -2 -8 9 0 10 -23 103 -50 206 -40 147 -117
364 -350 986 -278 743 -367 960 -421 1023 -29 33 -44 69 -74 187 -40 148 -73
245 -101 288 l-25 40 6 -87 c4 -49 5 -88 2 -88 -3 0 -60 88 -127 195 -68 107
-124 195 -127 195 -2 0 0 -8 6 -17 5 -10 73 -155 151 -323 78 -168 155 -326
171 -353 16 -26 29 -52 29 -57 0 -6 4 -18 10 -28 10 -18 41 -137 231 -880 91
-358 128 -529 214 -985 183 -967 236 -1208 305 -1386 21 -54 42 -120 45 -147
4 -27 51 -166 105 -309 l97 -260 27 -215 c15 -118 31 -228 36 -245 5 -16 14
-136 20 -265 6 -129 16 -302 21 -385 6 -82 12 -341 14 -575 4 -368 6 -426 20
-436 8 -6 15 -17 15 -25 0 -20 182 -26 198 -7 5 7 25 99 43 203 l34 190 3
-194 c1 -115 7 -200 13 -207 10 -12 56 -23 122 -28 19 -2 40 -6 46 -11 7 -4
20 1 31 13 16 17 28 19 77 15 32 -2 62 -9 68 -14 24 -24 44 -8 61 49 21 67 21
80 -1 482 l-17 305 26 110 c14 61 30 126 35 145 24 90 61 267 61 288 0 13 6
35 14 50 7 15 19 59 25 97 7 39 21 88 31 110 34 70 329 1022 336 1082 4 32 20
96 35 142 58 170 109 488 244 1511 52 401 80 572 145 900 181 915 173 879 217
975 44 96 293 715 288 715 -2 0 -54 -93 -117 -207 l-113 -206 -5 88 -5 87 -22
-46 c-23 -48 -83 -263 -83 -299 0 -40 -40 -153 -65 -181 -14 -16 -25 -33 -25
-39 0 -5 -18 -50 -41 -101 -22 -50 -110 -311 -194 -581 l-154 -490 0 433 -1
433 124 212 c67 117 187 325 266 462 79 138 245 419 370 625 135 223 269 458
330 580 57 114 161 298 235 415 72 116 160 262 195 325 34 63 65 118 67 123 2
4 2 7 -1 7 -2 0 -18 -21 -34 -47 -16 -27 -71 -113 -122 -193 -52 -80 -145
-228 -207 -330 -63 -102 -123 -192 -133 -200 -31 -25 -887 -1394 -991 -1585
l-99 -180 0 165 c0 195 -95 1814 -111 1880 -6 25 -13 90 -15 145 -4 80 -3 98
7 88 7 -7 20 -13 29 -13 10 0 29 -29 53 -82 50 -113 58 -136 59 -174 1 -18 5
-31 10 -28 10 6 45 74 47 89 0 6 13 11 28 13 15 2 35 12 43 23 13 16 20 17 51
9 20 -6 42 -17 49 -25 7 -8 19 -15 27 -15 25 0 6 48 -33 82 -31 28 -64 75 -64
94 0 3 10 4 22 1 14 -4 26 0 34 11 18 25 29 7 29 -49 0 -53 6 -61 22 -27 10
23 10 22 27 -10 17 -33 39 -41 53 -19 4 8 16 17 27 20 16 6 16 10 5 24 -12 15
-11 16 8 11 13 -4 27 0 34 8 6 8 20 14 31 14 17 0 20 5 15 28 -7 33 1 48 28
53 16 3 11 10 -26 31 -50 29 -146 128 -184 189 -13 20 -29 40 -35 44 -16 10
-12 21 15 33 22 10 25 18 25 66 0 64 -36 141 -143 305 -37 56 -67 104 -67 106
0 2 32 -27 71 -65 51 -49 86 -74 120 -85 132 -44 146 22 38 186 -34 51 -88
124 -120 163 -33 39 -55 72 -49 74 6 2 46 -19 88 -46 83 -54 132 -72 201 -72
l44 0 -7 41 c-7 45 -25 74 -93 155 -52 62 -51 87 4 72 20 -5 51 -7 71 -3 l34
6 -5 47 c-5 43 -11 53 -79 114 -40 37 -70 68 -67 68 4 0 26 -7 49 -15 84 -30
130 -18 130 32 0 52 -22 84 -110 163 -44 40 -80 76 -80 80 0 4 16 11 35 14 19
4 35 12 35 18 0 22 -43 79 -91 119 -27 23 -48 43 -46 45 2 2 38 -8 80 -22 l76
-27 66 19 c37 11 65 24 65 32 0 17 -37 89 -50 97 -16 10 -11 25 9 25 16 0 89
26 99 35 2 2 -3 17 -12 33 -18 36 -109 86 -420 233 -224 107 -301 148 -292
156 2 3 67 -18 143 -45 286 -104 387 -126 464 -101 60 20 63 30 24 76 -30 35
-56 49 -192 104 -151 60 -284 118 -273 118 3 1 54 -8 113 -18 59 -10 118 -16
130 -12 35 10 87 44 87 57 0 19 -58 62 -100 75 -31 9 -40 17 -40 34 0 35 -34
70 -97 98 -60 26 -157 51 -453 113 -96 21 -177 39 -179 41 -3 2 5 13 17 25 20
21 30 22 189 21 92 -1 218 2 278 8 123 10 288 28 323 35 27 5 102 71 102 89 0
7 -16 22 -36 34 -27 16 -52 21 -110 21 -66 0 -74 2 -74 19 0 30 -48 81 -77 81
-19 0 -24 4 -19 16 17 45 18 93 1 122 -18 29 -17 30 9 64 34 45 33 52 -8 72
-45 21 -60 20 -199 -9 -145 -31 -151 -31 -137 -6 5 11 10 29 10 40 0 15 21 33
78 66 104 59 130 110 72 140 -28 14 -34 13 -105 -15 -42 -17 -101 -43 -133
-59 -31 -15 -88 -38 -126 -51 -37 -12 -80 -29 -95 -36 -31 -16 -38 -4 -22 38
7 19 22 28 58 38 62 17 163 72 206 113 18 18 61 56 96 86 69 59 91 99 84 149
-9 55 -48 41 -158 -57 -83 -73 -95 -81 -95 -57 0 8 -5 16 -12 18 -8 3 5 34 36
87 57 97 71 162 38 180 -15 8 -29 8 -48 1 -15 -6 -27 -9 -28 -8 -1 2 -7 16
-14 31 -15 36 -39 32 -68 -10 l-21 -32 -6 41 c-3 22 -14 49 -24 59 -17 17 -21
17 -40 4z m-83 -691 c0 -11 -5 -14 -16 -10 -9 3 -18 6 -20 6 -3 0 -2 5 1 10
10 16 35 12 35 -6z m110 -102 c0 -5 -13 -21 -30 -37 -28 -27 -30 -27 -30 -8 0
37 11 53 36 53 13 0 24 -4 24 -8z m77 -148 c-31 -17 -74 -11 -47 6 8 6 29 10
45 9 l30 0 -28 -15z m358 -33 c15 -6 1 -12 -55 -25 -46 -10 -77 -13 -83 -7 -9
9 12 16 88 34 28 6 28 6 50 -2z m-447 -83 c17 -17 -4 -38 -39 -38 -30 0 -38
17 -17 38 15 15 41 15 56 0z m-215 -358 c-6 -22 -8 -23 -40 -14 -40 11 -23 29
29 33 11 1 15 -5 11 -19z m-203 -300 c-24 -15 -37 -11 -16 5 11 8 22 12 25 9
3 -3 -1 -9 -9 -14z m146 -257 c-2 -3 -9 -2 -15 1 -7 5 -6 16 2 34 l12 27 3
-29 c2 -15 1 -30 -2 -33z m169 -1545 c19 -79 32 -144 30 -146 -2 -2 -16 11
-32 28 -18 21 -30 48 -35 78 -8 61 -10 197 -2 189 4 -3 21 -70 39 -149z m505
-817 c0 -5 3 -17 7 -27 4 -11 3 -15 -4 -11 -14 9 -24 47 -12 47 5 0 9 -4 9 -9z
m-32 -135 c1 -2 -3 -112 -9 -245 -6 -133 -9 -264 -7 -291 1 -28 1 -50 -2 -50
-11 0 -30 87 -50 220 -10 74 -28 179 -40 234 -25 121 -26 137 -5 110 8 -10 15
-28 15 -38 0 -26 28 -56 52 -56 25 0 23 27 -6 84 l-24 48 36 -7 c21 -4 38 -8
40 -9z m-16 -684 c12 -12 36 -605 49 -1184 l12 -538 -198 -362 c-189 -348
-224 -408 -212 -363 18 65 197 992 202 1050 4 39 9 120 10 180 2 92 8 126 34
205 39 117 71 257 71 307 -1 37 -1 37 -42 -40 -22 -43 -42 -76 -44 -74 -2 1
-4 106 -5 232 -2 126 -6 220 -10 209 -4 -10 -15 -86 -24 -169 -9 -82 -18 -152
-20 -154 -2 -2 -21 5 -42 16 -33 17 -39 26 -46 67 -5 29 -4 54 3 66 8 16 7 26
-5 42 -21 30 -19 48 5 48 11 0 20 5 20 10 0 6 -9 10 -19 10 -22 0 -31 19 -31
65 0 21 6 35 16 39 12 5 15 16 12 41 -3 30 -1 34 14 29 25 -8 23 -1 -12 36
-28 30 -29 34 -23 98 6 76 9 80 43 84 23 3 25 -1 37 -77 7 -44 11 -86 8 -92
-2 -7 0 -13 5 -13 16 0 22 44 11 90 -6 25 -10 63 -10 85 l1 40 14 -50 c7 -27
14 -60 14 -72 0 -13 5 -23 11 -23 9 0 7 53 -7 118 -5 25 -1 27 27 11 24 -13
69 12 69 37 0 13 6 15 28 9 15 -3 30 -10 34 -13z m-523 -165 c0 -21 -1 -21 -9
-2 -12 28 -12 37 0 30 6 -3 10 -16 9 -28z m15 -149 c-4 -24 -12 -54 -18 -68
-10 -23 -11 -20 -14 28 -2 31 2 60 9 68 21 25 29 15 23 -28z m56 -234 c0 -13
-4 -26 -10 -29 -6 -3 -10 4 -10 17 0 13 -3 34 -6 48 -5 24 -5 24 10 6 9 -11
16 -30 16 -42z m-62 14 c-2 -18 -7 -33 -13 -33 -5 0 -11 15 -13 33 -3 24 1 32
13 32 12 0 16 -8 13 -32z m29 -175 c-14 -31 -23 -29 -36 8 -27 77 1 129 30 55
11 -30 13 -47 6 -63z m281 -23 c27 0 27 -6 7 -160 -8 -63 -19 -165 -24 -227
-8 -92 -20 -144 -68 -293 -32 -102 -61 -176 -66 -171 -5 5 1 122 13 272 16
184 20 301 16 386 -5 118 -5 122 13 111 44 -27 68 26 36 82 -22 38 -18 42 18
20 17 -11 42 -20 55 -20z m-266 -132 c-2 -51 -19 -174 -37 -273 l-32 -180 -6
95 c-4 52 -9 155 -11 229 l-5 133 25 -5 c24 -4 25 -3 18 39 -5 38 -4 43 10 38
9 -3 16 -1 16 5 0 6 6 11 14 11 11 0 12 -18 8 -92z m-293 -807 c-1 -14 -4 -37
-8 -50 -6 -23 -8 -21 -20 18 -7 24 -15 49 -17 56 -4 9 2 11 20 8 21 -4 26 -11
25 -32z m480 -145 c-30 -217 -182 -906 -199 -906 -4 0 -12 37 -19 83 -7 45
-19 112 -28 149 l-16 67 53 148 c29 81 57 153 61 158 4 6 39 101 78 212 85
240 83 235 87 231 1 -2 -6 -66 -17 -142z m-209 43 c0 -16 4 -29 9 -29 6 0 7
16 4 35 -4 25 -1 41 11 54 16 18 18 18 46 -11 l29 -29 -92 -290 c-90 -284 -92
-290 -105 -258 -11 28 -10 76 8 317 11 157 23 289 26 293 10 16 64 -53 64 -82z
m-725 -62 c21 -110 74 -546 88 -722 l5 -60 -16 35 c-45 96 -81 169 -104 210
-26 44 -26 47 -18 155 5 61 9 202 9 314 1 112 3 202 6 199 3 -3 17 -62 30
-131z m-805 -137 c136 -304 430 -1201 519 -1583 113 -485 111 -476 111 -732 0
-126 5 -257 11 -290 5 -33 10 -111 9 -173 0 -61 7 -151 15 -198 8 -48 15 -89
15 -93 -1 -19 -29 58 -128 359 -97 296 -115 361 -151 555 -23 121 -48 236 -56
255 -8 19 -21 78 -30 130 -60 364 -87 505 -171 905 -53 248 -100 477 -106 510
-5 33 -30 151 -54 262 -24 112 -44 206 -44 209 0 15 11 -6 60 -116z m2474 -85
c-18 -110 -36 -224 -38 -255 -3 -30 -37 -260 -76 -510 -39 -250 -86 -590 -104
-756 -19 -165 -38 -309 -44 -320 -6 -10 -24 -125 -41 -254 -28 -214 -39 -265
-120 -565 -91 -339 -356 -1193 -367 -1182 -10 9 28 278 102 741 47 292 88 567
90 611 4 79 70 518 140 930 63 372 320 1342 432 1630 21 55 42 109 46 119 17
47 12 -3 -20 -189z m-375 -141 c9 -249 8 -287 -14 -524 l-24 -255 -96 -285
c-52 -156 -127 -404 -166 -550 -59 -218 -83 -291 -137 -410 -36 -80 -69 -149
-73 -154 -8 -9 -4 418 6 763 2 87 -2 237 -10 345 -14 185 -14 195 6 309 19
105 33 144 123 350 76 173 136 290 236 460 73 125 135 226 136 224 2 -2 8
-124 13 -273z m-1275 -461 c40 -82 69 -155 80 -203 23 -109 36 -312 36 -577
l0 -232 -44 -113 c-24 -62 -62 -173 -85 -245 -23 -73 -43 -133 -45 -133 -3 0
-19 61 -36 137 -26 109 -31 148 -26 196 3 33 2 65 -2 71 -5 6 -1 126 9 266 10
140 20 336 24 435 15 461 17 525 21 525 2 0 33 -57 68 -127z m629 -64 c37
-161 35 -219 -13 -402 -23 -83 -43 -154 -47 -157 -6 -6 4 452 13 598 4 52 10
90 14 85 3 -4 19 -60 33 -124z m-253 -633 c-3 -96 -8 -177 -11 -180 -3 -4 -16
43 -29 103 l-23 109 28 71 c16 39 31 71 34 71 3 0 4 -78 1 -174z m-75 -348
l57 -186 -69 -194 -68 -193 -3 357 c-1 229 1 366 8 383 6 15 12 26 14 24 2 -2
30 -88 61 -191z m371 -433 c-9 -83 -16 -187 -16 -230 0 -116 -35 -347 -59
-392 -16 -31 -20 -34 -21 -16 0 12 -9 109 -21 215 -17 155 -20 230 -16 378 6
180 7 191 57 395 28 116 54 217 57 225 4 8 13 -84 20 -205 13 -195 13 -237 -1
-370z m-567 -30 c-11 -325 -21 -458 -38 -499 -6 -16 -13 -27 -15 -25 -2 2 -21
86 -41 186 l-37 182 32 133 c18 73 45 165 60 203 15 39 30 79 34 89 3 10 8 17
10 15 3 -2 0 -130 -5 -284z m895 15 c-66 -377 -230 -1531 -275 -1933 -6 -60
-15 -105 -19 -100 -4 4 -12 116 -19 248 -7 132 -21 320 -31 419 l-20 178 40
299 39 298 59 118 c35 69 100 233 157 396 54 153 99 276 100 275 2 -2 -12 -91
-31 -198z m-669 -663 c-9 -293 -19 -541 -22 -552 -9 -31 -85 -167 -90 -161 -3
2 -13 48 -24 101 -13 71 -17 122 -13 189 3 50 9 207 13 349 l9 258 68 186 c38
102 70 180 72 174 2 -7 -3 -251 -13 -544z m-387 49 c32 -151 32 -156 16 -198
-10 -24 -20 -47 -24 -51 -7 -8 -25 144 -36 306 -4 55 -3 97 2 97 5 0 24 -69
42 -154z m119 -691 l-2 -140 -42 115 c-63 170 -64 205 -15 320 l15 35 24 -95
c19 -80 22 -118 20 -235z m471 57 c-4 -37 -14 -98 -23 -137 -14 -68 -14 -64
-10 143 2 117 8 218 12 225 13 21 30 -160 21 -231z m-233 -402 l-8 -135 -22
115 -23 115 27 53 26 54 3 -33 c2 -19 1 -95 -3 -169z m-255 1 c0 -45 -6 -37
-14 19 -4 31 -3 40 4 30 5 -8 10 -30 10 -49z m550 -405 c10 -181 17 -332 15
-336 -2 -4 -11 -63 -19 -131 -18 -150 -35 -234 -46 -222 -22 21 -72 253 -77
354 -5 98 -2 129 48 405 30 165 55 290 57 279 1 -11 11 -168 22 -349z m-426
91 c9 -23 16 -51 16 -61 0 -18 43 -171 77 -270 25 -75 13 -414 -22 -591 -14
-71 -25 -146 -25 -166 0 -19 -7 -44 -15 -55 -10 -13 -14 -45 -15 -101 0 -51
-4 -85 -12 -89 -8 -5 -9 15 -4 82 5 49 8 94 7 99 -1 6 -3 235 -5 510 -3 418
-7 509 -20 555 -17 60 -21 130 -7 130 4 0 16 -19 25 -43z m300 -1111 c11 -44
-9 -242 -26 -252 -7 -4 -7 5 -2 27 4 19 7 82 7 142 0 102 8 135 21 83z m191
-126 l5 -75 -14 60 c-18 72 -20 113 -6 99 5 -5 12 -43 15 -84z m-8 -142 c-3
-7 -5 -2 -5 12 0 14 2 19 5 13 2 -7 2 -19 0 -25z"/>
<path d="M2238 1370 c-7 -24 -3 -38 8 -28 3 4 4 17 2 30 l-3 23 -7 -25z"/>
</g>
</svg>
