<?xml version="1.0"?>
<svg xmlns:rdf="http://www.w3.org/1999/02/22-rdf-syntax-ns#" xmlns="http://www.w3.org/2000/svg" xmlns:cc="http://web.resource.org/cc/" xmlns:xlink="http://www.w3.org/1999/xlink" xmlns:dc="http://purl.org/dc/elements/1.1/" xmlns:svg="http://www.w3.org/2000/svg" id="Layer_1" xml:space="preserve" viewBox="0 0 221.135 289.427" version="1.1" x="0px" y="0px" enable-background="new 0 0 221.135 289.427">
<path fill-rule="evenodd" clip-rule="evenodd" d="m45.537 275.04l-5.223-1.187 10.208-19.941v-4.273l-4.985-5.46 2.374-3.086 5.46-2.611s-1.187-39.645-2.137-46.292-4.748-33.947-4.748-33.947l8.784-26.826s3.087-26.826 24.927-28.962 40.833 8.55 40.833 8.55l35.371 56.025 16.143 21.128 7.835 12.107-134.84 74.78z" fill="#B2B1D9"/>
<path fill-rule="evenodd" clip-rule="evenodd" d="m101.24 165.13s0.239-22.798-2.16-35.516-6.239-28.557-6.239-28.557l10.799 6.719 16.079 4.799 22.317 15.358 2.88-0.48-10.559-15.118-19.198-12.239-23.038-9.119-4.56 0.96-23.762-8.874-3.839 0.96 2.16 14.878 9.419 10.228s1.862 4.756 1.863 4.756l1.177 1.52s3.14 10.614 7.699 19.733 18.961 30 18.961 30z" fill="#406325"/>
<path fill-rule="evenodd" clip-rule="evenodd" d="m54.921 35.062l-4.319 2.16s-14.159-16.318-21.358-20.158-21.598-8.399-21.598-8.399l-3.6-2.16-2.88-3.84s9.599-1.919 14.159 0.24 18.238 8.159 18.238 8.159 11.759 8.639 12.959 10.799 8.399 13.199 8.399 13.199z" fill="#406325"/>
<path fill-rule="evenodd" clip-rule="evenodd" d="m54.222 37.461c2.639 2.325 4.114 5.81 6.376 8.507-2.492 1.728-5.939-4.65-6.376-8.507z" fill="#406325"/>
<path fill-rule="evenodd" clip-rule="evenodd" d="m63.791 53.409c2.141 1.399 3.595 3.491 4.252 6.379-1.908-0.134-2.245 1.302-4.252 1.064v-7.443z" fill="#406325"/>
<path fill-rule="evenodd" clip-rule="evenodd" d="m65.915 68.292c2.427-0.874 5.373 0.96 4.252-5.314 5.892 8.639 9.085 19.975 12.757 30.831-3.179 2.291-6.186 1.616-11.693 3.191-2.491-8.428-8.773-17.768-5.316-28.708z" fill="#406325"/>
<path fill-rule="evenodd" clip-rule="evenodd" d="m101 93.809c3.729 0.964 11.009 2.559 8.504 6.378-3.7-1.266-7.6-2.321-8.5-6.381z" fill="#406325"/>
<path fill-rule="evenodd" clip-rule="evenodd" d="m63.791 99.125c1.713-0.301 1.83 1.004 3.188 1.062 0.355 5.059-4.361 5.706-6.381 9.569-5.71 10.921-4.283 26.93-13.821 34.02 0.744-16.37 7.713-33.53 17.014-44.655z" fill="#406325"/>
<path clip-rule="evenodd" d="m119.07 132.08c0.899-1.581 3.422-1.54 5.316-2.126 0.45 2.222-0.727 2.814-1.064 4.252-2.9 0.78-2.15-2.1-4.26-2.12z" fill-rule="evenodd"/>
<path clip-rule="evenodd" d="m61.662 132.08c1.034 0.028 0.827 1.3 1.064 2.126 0.753 30.431 7.077 55.292 6.376 87.179-3.802-10.006-1.056-21.799-4.252-31.896-1.177-3.733-4.603-6.134-5.312-9.569-3.573-17.26 1.06-31.85 2.124-47.84zm2.129 51.03c-0.935-5.442 0.376-13.134-3.193-15.945 1.527 5.08-1.523 12.29 3.193 15.95z" fill-rule="evenodd"/>
<path fill-rule="evenodd" clip-rule="evenodd" d="m60.598 167.17c3.569 2.812 2.258 10.503 3.193 15.945-4.716-3.67-1.666-10.88-3.193-15.95z" fill="#B2B1D9"/>
<path fill-rule="evenodd" clip-rule="evenodd" d="m157.34 178.86c3.336 0.731 1.389 2.834 1.064 5.312-2.898 0.774-2.137-2.111-4.252-2.128 0.12-2 3.52-0.73 3.19-3.18z" fill="#B2B1D9"/>
<path clip-rule="evenodd" d="m121.2 179.92c3.928 1.034 6.934 2.985 6.376 8.505-3.548-0.653-3.63-3.118-7.44-1.06-0.86-3.68 1.58-4.08 1.06-7.44z" fill-rule="evenodd"/>
<path clip-rule="evenodd" d="m87.177 188.43h3.193c0.891 1.233 1.401 2.852 1.06 5.317h-5.312c-0.792 3.27 2.916 2.041 2.124 5.316-5.187-0.584-4.495 4.715-9.569 4.252v6.377c-2.34 0.848-4.244 2.137-4.252 5.316-2.522-2.938 1.449-8.427 0-13.821 1.821 0.048 2.755-0.787 3.188-2.124 1.155 0.264 0.722 2.115 2.128 2.124 2.396-0.792 0.415-5.961 1.064-8.505 1.869 0.26 2.423 1.83 2.124 4.252 2.349-0.134 0.455-4.508 1.064-6.381 2.132 0.35 3.326-0.23 3.188-2.14z" fill-rule="evenodd"/>
<path clip-rule="evenodd" d="m93.558 190.55c3.842-1.003 1.484 4.188 2.124 6.381-3.842 1.01-1.48-4.18-2.124-6.38z" fill-rule="evenodd"/>
<path fill-rule="evenodd" clip-rule="evenodd" d="m178.61 202.25c-4.512 3.992-9.988 7.025-19.138 6.376 1.89-11.06 8.6-6.57 19.14-6.38z" fill="#B2B1D9"/>
<path fill-rule="evenodd" clip-rule="evenodd" d="m157.34 203.31c-3.846 5.088-13.193 7.666-20.197 6.377 6.94-1.92 14.11-3.61 20.2-6.38z" fill="#B2B1D9"/>
<path fill-rule="evenodd" clip-rule="evenodd" d="m125.45 207.57c2.621 0.921 7.358-0.272 7.44 3.188-2.6-3.29-7.86 2.68-7.44-3.19z" fill="#B2B1D9"/>
<path fill-rule="evenodd" clip-rule="evenodd" d="m123.32 215.01c3.543-2.021 11.084 1.597 15.95-1.06-2.37 4.98-12.62 5.59-15.95 1.06z" fill="#B2B1D9"/>
<path fill-rule="evenodd" clip-rule="evenodd" d="m133.96 219.26c1.073 3.202-2.371 1.887-4.253 2.129 0.69-1.43 2.27-1.98 4.25-2.13z" fill="#FFED96"/>
<path fill-rule="evenodd" clip-rule="evenodd" d="m123.32 224.58c1.874 0.255 2.423 1.829 2.129 4.252-1.87-0.26-2.42-1.83-2.13-4.25z" fill="#FFED96"/>
<path clip-rule="evenodd" d="m102.06 230.96c1.895 0.778 0.151 1.929 0 3.188-1.89-0.79-0.15-1.94 0-3.19z" fill-rule="evenodd"/>
<path clip-rule="evenodd" d="m147.78 232.02c4.87 0.71-0.86 6.44 0 0z" fill-rule="evenodd"/>
<path clip-rule="evenodd" d="m126.51 243.71c4.746 11.913 10.604 22.715 14.886 35.088-6.89-9.77-12.51-20.8-14.89-35.09z" fill-rule="evenodd"/>
<path clip-rule="evenodd" d="m119.07 256.47c2.003 1.357 5.524 0.467 6.381 0 3.235 0.657 2.076 5.719 5.312 6.376-4.38 3.85-11.42 0.73-11.69-6.38z" fill-rule="evenodd"/>
<path fill-rule="evenodd" clip-rule="evenodd" d="m56.346 268.16c-1.025 3.937-5.507 4.417-7.44 7.445-2-2.76 4.55-6.03 7.44-7.44z" fill="#B2B1D9"/>
<path clip-rule="evenodd" d="m57.41 243.71c-2.293 1.254-4.884 2.206-7.441 3.192-0.074 3.616 5.459 1.626 5.317 5.316-6.684 3.95-7.809 13.454-11.698 20.198 6.896-2.327 12.878-14.756 15.95-24.45 4.084 3.218 8.003-0.394 11.693-3.192-1.821-2.432-8.116-0.39-11.693-1.064 7.878-4.391 16.305-0.995 23.386-3.185 11.304-3.499 15.232-16.179 21.262-24.454-18.424 5.316-34.279 22.417-57.41 26.578-0.498-3.335 2.673-2.997 4.252-4.252 2.202-28.465-3.768-54.939-6.377-79.736-5.165 4.88-7.107 18.242-15.945 15.945-2.539-3.071 3.768-4.101 5.312-6.376 2.405-6.813 6.956-11.478 8.505-19.139 1.051-4.239-3.175-3.201-2.124-7.44 7.934-13.328 7.925-34.601 20.198-43.59-0.325-12.126-8.617-26.406 0-35.083-2.518-6.221-5.278-12.833-8.505-18.074-7.129-11.583-15.695-22.3-28.703-28.705-6.523-3.21-14.665-3.545-20.202-9.569 25.393 0.124 34.53 16.506 48.905 27.643-9.29-19.251-31.297-28.997-52.096-30.84 1.484-4.426 7.237-3.4 10.633-3.19 10.534 0.651 24.9 9.547 32.955 17.012 11.399 10.56 18.091 26.273 24.455 37.21 7.978 4.616 14.449 6.021 19.134 13.819 3.898 6.486 2.877 16.99 10.633 21.264 3.829 2.109 9.344 2.844 13.822 5.314 1.791 0.991 3.413 3.158 5.316 4.254 6.723 3.865 14.423 8.591 20.198 14.884 2.98 3.246 4.576 7.676 7.44 10.631 5.559 5.732 13.735 8.567 15.95 15.948-6.861-0.028-13.723-8.845-21.263-11.695 4.019 12.502 11.793 23.064 18.069 34.021 6.108 10.655 12.165 21.734 22.326 28.703-0.173 3.365 2.83 3.557 2.129 7.445 6.527-0.947 10.62 5.459 17.01 6.381 7.666 1.099 15.703-2.79 22.326 0-5.758 23.533-33.4 39.756-61.662 27.639 3.396 23.035-11.879 34.292-12.758 56.346-6.342-0.684-8.361-6.861-13.821-9.569-4.196-2.076-9.426-1.444-13.821-3.188-9.465-3.75-15.275-11.26-20.198-19.134-10.711 10.53-23.65 24.035-45.717 26.579-11.053 1.271-25.631 1.099-30.831-2.129 0.965-3.642 6.667-2.548 10.633-3.188 8.284-6.242 11.745-17.312 17.01-26.579-1.683-5.057-9.608-3.863-9.569-10.633 4.771-1.63 8.483 4.23 16.992 2.12zm3.188-197.74c-2.262-2.697-3.738-6.182-6.376-8.507 0.437 3.857 3.884 10.235 6.376 8.507zm3.193 14.884c2.007 0.238 2.344-1.198 4.252-1.064-0.657-2.888-2.111-4.979-4.252-6.379v7.443zm9.564 53.158c-1.985-1.556-1.25-5.834-5.312-5.317-7.28 18.416-21.206 32.363-19.138 57.41 1.834 22.214 7.925 45.35 6.381 70.167 8.409 0.865 13.462-5.874 19.134-9.568 11.226-7.307 24.247-11.014 35.083-19.134 2.596-3.076 3.479-7.864 7.445-9.569 7.566 16.564 38.432 5.165 47.841-2.124 4.775 1.246 6.623 5.425 13.821 4.248-3.089-7.189-11.55-9.007-15.95-14.881 0.416 4.179-4.239 3.945 0 6.376-5.147-1.981-10.992-3.616-12.757-8.505-1.428-3.958-2.825-3.646-4.252-5.312-1.424-1.669-1.095-3.141-1.064-4.257-0.1 3.651 3.062-4.416 2.128-3.188 2.068 3.248 1.934 8.699 7.441 8.509 2.543-2.673-2.687-3.564-2.125-7.444 1.588-0.182 3.924 0.38 4.253-1.064-3.547-3.188-5.398-8.068-9.569-10.629-0.194 4.136 5.715 7.691 3.188 10.629-7.476-15.206-17.442-27.918-25.515-42.524-0.437-2.563 1.942-2.312 1.064-5.316-4.248-5.334-12.883-11.91-20.202-10.631 4.841 8.273 12.303 13.923 14.886 24.453 3.811-2.057 3.893 0.409 7.44 1.062 5.373 11.28 12.632 20.684 18.074 31.897-3.288-2.738-8.644-3.404-7.441-10.633-10.309-4.002-5.865-17.273-15.949-20.2 1.181 7.525 7.354 14.688 11.697 23.389 6.692 13.415 13.839 25.994 21.262 32.959-7.307 1.467-14.946-3.292-22.326-4.257-0.45-4.188-7.194-7.639-5.316-10.629 1.886 0.952 1.354 4.313 5.316 3.188 3.18-1.973-1.35-7.613 1.064-8.505 3.31 6.979 9.388 16.824 15.945 17.01-4.122-2.963-7.665-6.506-10.629-10.629v-4.252c-11.316-16.659-20.142-37.645-30.831-55.286-3.145-5.185-5.126-12.887-12.762-13.819 1.354 9.902 5.403 19.655 6.381 30.831 1.051 11.998 1.588 23.864 0 29.77-11.226-15.708-23.088-30.779-27.643-53.158 5.576 3.065 4.248 9.868 6.38 14.883 4.94 11.63 13.389 21.662 20.198 30.834-1.138-22.255-8.708-43.74-9.569-62.729 6.615 6.852 16.638 10.298 28.708 11.695 7.419 4.636 14.955 14.806 22.326 15.948-11.811-16.895-32.588-24.824-53.158-32.957-0.51 5.762-4.438 2.401-8.505 5.314-0.515 11.152 7.947 18.971 6.376 27.643-2.25-9.798-6.921-17.176-9.569-26.579-3.245-0.768-3.872 1.086-6.376 1.062-0.645-1.99-2.682-5.176-4.252-8.505-0.986-2.089-2.297-9.576-3.188-5.316-0.022 11.735 10.006 19.051 9.577 27.641zm36.145-13.82c2.505-3.82-4.775-5.414-8.504-6.378 0.9 4.057 4.8 5.112 8.5 6.378zm-38.269-3.19c5.507-1.575 8.514-0.9 11.693-3.19-3.672-10.856-6.865-22.192-12.757-30.831 1.121 6.274-1.825 4.44-4.252 5.314-3.457 10.939 2.825 20.279 5.316 28.707zm19.139-5.317c1.748-4.715-2.877-10.631-4.252-13.821-2.393-5.542-3.833-16.021-9.569-12.757 7.115 6.35 10.143 16.786 13.821 26.578zm-29.772-19.136c3.807-8.795-0.168-4.988-1.06 1.062 0.718 5.065 1.099-1.153 1.06-1.062zm-13.821 71.233c9.539-7.09 8.111-23.099 13.821-34.02 2.02-3.863 6.736-4.51 6.381-9.569-1.358-0.058-1.475-1.363-3.188-1.062-9.301 11.122-16.27 28.282-17.014 44.652zm96.753 3.18c-0.861-0.71-1.376-6.922-3.193-3.188 1.86-0.29 1.94 6.36 3.19 3.19zm10.63 35.09c2.115 0.017 1.354 2.902 4.252 2.128 0.324-2.479 2.271-4.581-1.064-5.312 0.32 2.44-3.08 1.17-3.19 3.18zm5.31 26.58c9.149 0.649 14.626-2.384 19.138-6.376-10.54-0.19-17.25-4.68-19.14 6.38zm-22.32 1.06c7.004 1.289 16.352-1.289 20.197-6.377-6.1 2.77-13.27 4.46-20.2 6.38zm-91.433 72.3c24.333-0.471 36.935-12.679 48.905-25.514 0.722-3.885 1.483-7.73 1.06-12.762 2.453 0.328 1.186-3.071 3.192-3.185-2.76 27.436 24.724 33.229 44.653 41.46 3.313-6.938 0.41-21.098-4.253-26.578 0.892-1.233 1.401-2.851 1.06-5.316 4.21 1.371 2.172-3.5 6.381-2.124-0.237-1.99-2.742-7.048 0-8.505 8.241 10.088-2.933 20.635 0 30.826 7.912-10.512 8.786-28.066 9.569-45.712 15.716 16.776 54.884 8.024 57.41-15.95-19.757 5.001-33.479-7.047-47.841 4.257 5.767-0.112 8.92 6.437 14.881 7.44 7.817 1.311 15.133-3.988 22.326-2.128-11.779 6.679-35.611 5.987-40.4-6.377-8.578-2.786-16.157-0.536-23.386 3.188 0.441 7.887-5.2 9.686-10.633 11.693 0.043 3.235 0.618 6.999-3.188 6.381-2.41-1.134-3.863-3.223-4.252-6.381-4.599 0.363-4.75 5.178-10.634 4.257-2.405 3.262-2.072 9.266-5.316 11.692-0.182-1.592 0.38-3.923-1.064-4.252-1.471 1.713-0.896 5.477-3.188 6.377 0.787-4.175 2.807-7.112 4.252-10.629 0.168 1.25-0.182 3.015 1.064 3.188-0.047-3.235 2.245-4.136 3.188-6.376-1.003-2.189-5.477-0.904-5.316-4.257 5.373-1.029 12.377-6.021 9.569-11.693-8.263 2.613-13.013 17.287-19.134 25.519-0.238-0.83-0.03-2.103-1.064-2.128-4.992 4.681-8.176 5.762-13.821 10.633 0.649-0.994 2.475-3.924-1.064-3.192-4.642 4.928-7.466 11.672-11.693 17.01 2.319 0.68 3.383-3.011 3.188 1.064 3.764 0.575 2.613-3.764 6.381-3.188-1.415 4.607-5.697 6.355-9.569 8.505-0.156-1.415 3.573-3.958 1.064-4.252-5.166 7.94-18.39 7.83-22.331 17zm93.553-68.04c-4.866 2.656-12.407-0.961-15.95 1.06 3.33 4.53 13.58 3.92 15.95-1.06zm-14.88 5.31c-0.299 1.848 6.355 2.752 3.188 1.064-6.766-1.029-4.387-11.204-10.629-12.757v14.886c-0.147 2.418-6.402 4.118-3.192 6.376 4.69-2.04 5.35-8.12 10.63-9.57zm8.5-8.5c-0.082-3.461-4.819-2.268-7.44-3.188-0.42 5.87 4.84-0.1 7.44 3.19zm-3.19 10.63c1.882-0.242 5.326 1.073 4.253-2.129-1.97 0.15-3.55 0.7-4.25 2.13zm-4.25 7.44c0.294-2.423-0.255-3.997-2.129-4.252-0.29 2.42 0.26 3.99 2.13 4.25zm-64.852 37.21c3.093-3.771 13.069-10.365 7.445-15.949-2.829 2.842-0.108 11.234-7.445 9.568 2.717 3.15-1.756 5.25 0 6.38zm-11.693 9.57c1.934-3.028 6.415-3.509 7.44-7.445-2.889 1.41-9.439 4.68-7.44 7.45z" fill-rule="evenodd"/>
<path fill-rule="evenodd" clip-rule="evenodd" d="m76.548 65.104c5.736-3.264 7.177 7.216 9.569 12.757 1.375 3.19 6 9.106 4.252 13.821-3.677-9.791-6.705-20.227-13.821-26.578z" fill="#406325"/>
<path fill-rule="evenodd" clip-rule="evenodd" d="m59.538 73.609c0.892-6.05 4.867-9.857 1.06-1.062 0.039-0.091-0.342 6.127-1.06 1.062z" fill="#406325"/>
<path fill-rule="evenodd" clip-rule="evenodd" d="m140.33 143.78c1.817-3.733 2.332 2.479 3.193 3.188-1.24 3.16-1.32-3.49-3.19-3.19z" fill="#B2B1D9"/>
<path fill-rule="evenodd" clip-rule="evenodd" d="m68.043 264.98c2.509 0.294-1.22 2.837-1.064 4.252 3.872-2.149 8.154-3.897 9.569-8.505-3.768-0.575-2.617 3.764-6.381 3.188 0.195-4.075-0.869-0.385-3.188-1.064 4.227-5.338 7.051-12.082 11.693-17.01 3.539-0.731 1.713 2.198 1.064 3.192 5.646-4.871 8.829-5.952 13.821-10.633 1.034 0.025 0.826 1.298 1.064 2.128 6.121-8.231 10.871-22.905 19.134-25.519 2.808 5.672-4.196 10.664-9.569 11.693-0.16 3.353 4.313 2.067 5.316 4.257-0.943 2.24-3.235 3.141-3.188 6.376-1.246-0.173-0.896-1.938-1.064-3.188-1.445 3.517-3.465 6.454-4.252 10.629 2.292-0.9 1.717-4.664 3.188-6.377 1.445 0.329 0.883 2.66 1.064 4.252 3.244-2.427 2.911-8.431 5.316-11.692 5.884 0.921 6.035-3.894 10.634-4.257 0.389 3.158 1.842 5.247 4.252 6.381 3.807 0.618 3.231-3.146 3.188-6.381 5.433-2.008 11.074-3.807 10.633-11.693 7.229-3.725 14.808-5.975 23.386-3.188 4.789 12.364 28.621 13.056 40.4 6.377-7.193-1.86-14.509 3.438-22.326 2.128-5.961-1.004-9.114-7.553-14.881-7.44 14.362-11.304 28.084 0.744 47.841-4.257-2.526 23.975-41.694 32.727-57.41 15.95-0.783 17.646-1.657 35.2-9.569 45.712-2.933-10.191 8.241-20.738 0-30.826-2.742 1.457-0.237 6.515 0 8.505-4.209-1.376-2.171 3.495-6.381 2.124 0.342 2.466-0.168 4.083-1.06 5.316 4.663 5.48 7.566 19.64 4.253 26.578-19.93-8.231-47.413-14.024-44.653-41.46-2.007 0.113-0.739 3.513-3.192 3.185 0.424 5.031-0.337 8.877-1.06 12.762-11.97 12.835-24.572 25.043-48.905 25.514 3.938-9.15 17.162-9.04 22.323-16.99zm1.06 7.44c0.537-4.109 9.807-5.027 7.445-8.505-1.133 3.5-10.032 4.8-7.445 8.5zm32.957-38.27c0.151-1.26 1.895-2.41 0-3.188-0.15 1.25-1.89 2.4 0 3.19zm45.72-2.13c-0.86 6.44 4.87 0.71 0 0zm-6.38 46.78c-4.282-12.373-10.14-23.175-14.886-35.088 2.38 14.29 8 25.32 14.89 35.09zm-29.77-18.08c1.042-7.194 4.654 2.479 6.376 0-2.902-2.769-2.712-8.63-6.376-10.633-0.294 1.864 2.993 5.308 0 6.381-1.969 1.003-0.653-6.087-2.129-2.129 0.98 1.87 0.37 5.31 2.13 6.38zm19.14 2.13c-3.236-0.657-2.077-5.719-5.312-6.376-0.856 0.467-4.378 1.357-6.381 0 0.26 7.11 7.3 10.23 11.69 6.38zm-53.162 5.31c2.029-1.592 9.621-7.505 7.445-6.381-3.288 1.33-5.706 3.52-7.445 6.38z" fill="#B2B1D9"/>
<path clip-rule="evenodd" d="m76.548 263.91c2.362 3.478-6.908 4.396-7.445 8.505-2.587-3.7 6.312-5 7.445-8.51z" fill-rule="evenodd"/>
<path fill-rule="evenodd" clip-rule="evenodd" d="m113.76 228.83c-3.21-2.258 3.045-3.958 3.192-6.376v-14.886c6.242 1.553 3.863 11.728 10.629 12.757 3.167 1.688-3.487 0.783-3.188-1.064-5.28 1.45-5.94 7.53-10.63 9.57z" fill="#FFED96"/>
<path fill-rule="evenodd" clip-rule="evenodd" d="m60.598 259.66c7.337 1.666 4.616-6.727 7.445-9.568 5.624 5.584-4.352 12.178-7.445 15.949-1.756-1.13 2.717-3.23 0-6.38z" fill="#B2B1D9"/>
<path clip-rule="evenodd" d="m109.5 254.34c1.476-3.958 0.16 3.132 2.129 2.129 2.993-1.073-0.294-4.517 0-6.381 3.664 2.003 3.474 7.864 6.376 10.633-1.722 2.479-5.334-7.194-6.376 0-1.76-1.07-1.15-4.51-2.13-6.38z" fill-rule="evenodd"/>
<path clip-rule="evenodd" d="m85.053 261.78c2.176-1.124-5.416 4.789-7.445 6.381 1.739-2.86 4.157-5.05 7.445-6.38z" fill-rule="evenodd"/>
<metadata><rdf:RDF><cc:Work><dc:format>image/svg+xml</dc:format><dc:type rdf:resource="http://purl.org/dc/dcmitype/StillImage"/><cc:license rdf:resource="http://creativecommons.org/licenses/publicdomain/"/><dc:publisher><cc:Agent rdf:about="http://openclipart.org/"><dc:title>Openclipart</dc:title></cc:Agent></dc:publisher><dc:title>harebell</dc:title><dc:date>2009-02-23T23:59:08</dc:date><dc:description>Harmsworth's&#xD;\nUNIVERSAL&#xD;\nENCYCLOPEDIA&#xD;\nWritten by the Leading Authorities&#xD;\nin Every Branch of Knowledge and&#xD;\nedited by J. A. Hammerton&#xD;\n&#xD;\n1900</dc:description><dc:source>http://openclipart.org/detail/21664/harebell-by-johnny_automatic-21664</dc:source><dc:creator><cc:Agent><dc:title>johnny_automatic</dc:title></cc:Agent></dc:creator><dc:subject><rdf:Bag><rdf:li>autumn</rdf:li><rdf:li>clip art</rdf:li><rdf:li>clipart</rdf:li><rdf:li>externalsource</rdf:li><rdf:li>flower</rdf:li><rdf:li>harebell</rdf:li><rdf:li>image</rdf:li><rdf:li>media</rdf:li><rdf:li>nature</rdf:li><rdf:li>plant</rdf:li><rdf:li>png</rdf:li><rdf:li>public domain</rdf:li><rdf:li>season</rdf:li><rdf:li>summer</rdf:li><rdf:li>svg</rdf:li></rdf:Bag></dc:subject></cc:Work><cc:License rdf:about="http://creativecommons.org/licenses/publicdomain/"><cc:permits rdf:resource="http://creativecommons.org/ns#Reproduction"/><cc:permits rdf:resource="http://creativecommons.org/ns#Distribution"/><cc:permits rdf:resource="http://creativecommons.org/ns#DerivativeWorks"/></cc:License></rdf:RDF></metadata></svg>
