<?xml version="1.0" standalone="no"?>
<!DOCTYPE svg PUBLIC "-//W3C//DTD SVG 20010904//EN"
 "http://www.w3.org/TR/2001/REC-SVG-20010904/DTD/svg10.dtd">
<svg version="1.0" xmlns="http://www.w3.org/2000/svg"
 width="848.000000pt" height="1280.000000pt" viewBox="0 0 848.000000 1280.000000"
 preserveAspectRatio="xMidYMid meet">
<metadata>
Created by potrace 1.15, written by Peter Selinger 2001-2017
</metadata>
<g transform="translate(0.000000,1280.000000) scale(0.100000,-0.100000)"
fill="#000000" stroke="none">
<path d="M5459 12781 c-205 -66 -351 -254 -443 -572 -25 -87 -121 -529 -151
-697 -13 -67 -20 -91 -28 -83 -35 35 -66 -1 -101 -121 -24 -81 -25 -82 -25
-37 -1 64 -28 139 -50 139 -15 0 -20 16 -29 93 -13 106 -38 205 -90 362 -82
250 -291 587 -432 696 -132 103 -322 165 -391 129 -31 -17 -52 -68 -46 -116
l4 -42 -50 -23 c-71 -34 -134 -98 -143 -146 -20 -105 40 -248 180 -429 50 -66
149 -196 218 -290 121 -163 129 -177 173 -299 61 -167 110 -273 174 -373 78
-121 146 -176 258 -208 33 -9 93 -201 93 -296 0 -18 -1 -18 -37 1 -61 30 -219
86 -343 121 -101 29 -121 38 -170 80 -149 128 -343 212 -606 259 -65 12 -162
35 -214 51 -232 70 -556 142 -717 160 -169 18 -317 -10 -466 -87 -90 -48 -111
-78 -116 -171 l-3 -72 38 -39 c37 -36 39 -41 36 -93 -3 -41 2 -66 17 -96 40
-79 172 -170 324 -224 159 -57 356 -35 827 91 63 16 174 37 245 46 72 8 145
17 162 19 18 3 35 0 39 -5 12 -20 -82 -91 -181 -139 -90 -43 -308 -120 -342
-120 -7 0 -13 -4 -13 -9 0 -15 153 -36 260 -35 117 1 216 21 289 58 27 14 109
70 182 126 74 55 154 110 179 121 65 31 138 28 235 -9 44 -17 115 -40 158 -51
130 -35 227 -94 227 -138 l0 -25 -32 28 c-41 34 -114 67 -199 88 -92 23 -109
21 -109 -8 0 -51 110 -123 265 -172 l70 -22 3 -83 3 -83 -23 21 c-52 48 -109
68 -193 68 -73 0 -88 -4 -156 -37 -85 -42 -113 -68 -133 -123 -9 -25 -15 -32
-15 -20 -2 39 -49 93 -103 118 -59 28 -140 47 -196 47 -89 0 -216 -102 -270
-217 -24 -51 -27 -70 -27 -158 1 -134 24 -192 112 -285 35 -38 86 -83 114
-100 l49 -32 0 -58 c0 -31 5 -72 12 -91 31 -91 173 -259 263 -310 89 -51 137
-35 228 78 136 169 207 290 207 353 0 32 13 24 73 -44 47 -53 57 -71 57 -101
l0 -36 -34 35 c-28 30 -40 36 -74 36 -40 0 -41 -1 -32 -25 28 -74 76 -139 117
-157 4 -1 7 -193 5 -426 l-4 -422 -26 21 c-46 35 -141 149 -228 274 -231 332
-402 487 -619 560 -147 50 -505 81 -637 56 -82 -16 -128 -30 -128 -41 0 -5 37
-10 83 -12 75 -3 80 -4 54 -15 -15 -7 -76 -44 -135 -82 -126 -81 -179 -108
-369 -190 -123 -53 -148 -61 -180 -55 -69 13 -118 35 -153 69 -44 43 -89 62
-179 76 -59 9 -80 8 -123 -5 -72 -22 -141 -75 -186 -144 -34 -53 -37 -62 -37
-132 0 -57 6 -85 21 -115 14 -26 20 -51 17 -72 -3 -17 0 -47 7 -67 14 -43 98
-122 171 -160 53 -28 54 -30 51 -68 -6 -63 7 -107 45 -149 61 -67 121 -91 239
-97 130 -6 224 10 300 52 50 27 80 58 190 191 120 146 159 186 152 155 -2 -7
2 -14 8 -17 16 -6 298 138 386 196 95 64 141 114 232 254 113 174 181 221 262
179 160 -82 389 -314 551 -557 65 -99 197 -325 189 -325 -2 0 -38 23 -80 50
-42 28 -108 66 -147 85 -70 34 -175 62 -186 51 -9 -9 46 -84 117 -160 80 -85
171 -147 267 -182 63 -23 74 -31 82 -58 28 -86 36 -352 61 -1946 10 -661 21
-1159 41 -1920 6 -228 14 -725 19 -1105 7 -575 12 -727 29 -910 12 -121 24
-308 27 -415 l5 -195 -103 200 c-221 425 -330 592 -573 875 -124 145 -384 424
-426 458 -37 30 -37 57 0 87 72 62 166 304 256 665 97 391 106 574 45 988 -30
204 -121 625 -139 645 -11 11 -132 -247 -186 -398 -118 -326 -185 -708 -185
-1055 0 -142 4 -185 29 -310 16 -80 34 -179 40 -220 16 -118 33 -291 30 -295
-9 -8 -281 218 -341 284 -58 64 -67 79 -70 120 -4 41 -1 50 30 85 66 75 129
237 207 541 71 275 79 328 79 530 0 237 -39 499 -123 835 l-29 115 -65 -135
c-155 -320 -227 -611 -258 -1037 -13 -175 -6 -269 31 -427 18 -79 64 -439 58
-456 -5 -14 -357 333 -367 361 -8 23 -5 31 24 59 64 62 132 236 209 532 71
271 79 325 79 538 0 194 -14 326 -58 550 -29 145 -89 390 -95 390 -4 0 -32
-53 -62 -117 -148 -315 -220 -593 -254 -988 -18 -206 -14 -287 22 -465 23
-115 54 -327 54 -374 0 -14 -8 -7 -31 24 -17 24 -97 122 -178 219 -80 97 -170
208 -199 247 -48 66 -52 76 -52 127 0 31 5 59 11 63 68 42 285 583 340 848 18
88 20 124 16 276 -8 256 -56 487 -170 815 l-32 90 -8 -60 c-25 -175 -100 -532
-134 -634 -8 -25 -46 -133 -84 -239 -123 -342 -131 -412 -75 -651 31 -131 74
-437 63 -447 -11 -11 -440 683 -431 695 2 2 11 -2 20 -10 16 -13 17 -10 11 33
-6 42 -4 51 17 72 52 51 106 189 160 403 105 421 114 609 45 988 -28 151 -93
416 -125 505 -10 26 -95 -159 -146 -315 -32 -98 -76 -275 -92 -371 -44 -256
-47 -622 -7 -764 12 -41 32 -142 45 -225 35 -220 39 -251 28 -240 -16 17 -133
249 -231 460 -52 110 -108 225 -125 255 -30 54 -31 58 -30 182 l0 128 40 34
c52 44 88 115 157 301 66 180 91 270 117 430 27 160 25 263 -5 431 -48 263
-69 325 -135 393 -51 53 -139 111 -168 111 -34 0 -37 -22 -14 -113 57 -227 68
-450 37 -782 -21 -236 -30 -295 -65 -446 -33 -140 -39 -249 -16 -304 11 -26
13 -58 9 -126 l-6 -92 -17 34 c-10 19 -42 110 -70 203 -50 159 -52 169 -37
195 26 45 37 138 37 325 0 207 -20 416 -50 530 -43 163 -136 366 -283 621 -93
160 -86 163 -112 -35 -29 -220 -15 -478 41 -741 36 -170 66 -255 144 -403 76
-145 119 -244 216 -493 59 -151 66 -176 68 -248 1 -44 6 -89 10 -100 5 -11
-10 5 -33 35 -22 30 -45 73 -51 95 -21 85 -65 150 -181 272 -132 137 -194 215
-369 458 -168 234 -231 354 -310 590 -21 60 -45 114 -54 120 -43 26 -121 -150
-121 -270 1 -80 17 -135 106 -361 108 -275 273 -468 623 -734 118 -89 193
-130 241 -130 25 0 36 -9 63 -49 18 -26 57 -76 88 -109 58 -65 89 -124 215
-419 38 -90 97 -222 129 -294 38 -84 53 -125 41 -117 -54 39 -101 88 -120 126
-45 88 -110 137 -476 357 -266 159 -307 188 -394 270 -80 76 -122 138 -201
295 -89 178 -124 230 -154 230 -37 0 -51 -52 -51 -195 1 -112 3 -127 38 -229
75 -218 142 -309 307 -418 167 -110 594 -326 747 -377 36 -12 88 -21 124 -21
59 0 64 -2 124 -51 76 -61 139 -137 235 -284 40 -60 109 -161 153 -225 86
-122 199 -301 193 -307 -8 -8 -197 91 -213 112 -27 36 -128 93 -216 120 -43
14 -221 61 -395 106 -485 123 -537 150 -776 396 -153 157 -202 198 -229 187
-47 -18 -18 -199 54 -332 77 -145 235 -324 325 -370 144 -73 416 -140 813
-198 227 -33 343 -35 398 -7 l41 21 77 -33 c117 -51 182 -94 233 -155 25 -30
83 -93 128 -140 93 -97 286 -321 281 -326 -2 -2 -61 17 -132 41 -87 30 -139
54 -159 74 -77 73 -160 95 -626 166 -431 66 -513 84 -619 135 -113 55 -172 95
-283 193 -185 163 -259 213 -290 196 -41 -22 -4 -196 67 -313 71 -118 232
-288 340 -359 45 -30 129 -61 225 -83 210 -50 644 -88 930 -83 168 4 177 5
233 32 l58 29 72 -22 c91 -27 225 -91 255 -122 12 -12 37 -40 54 -62 18 -21
77 -69 133 -106 105 -71 170 -135 244 -240 32 -46 38 -61 25 -56 -11 3 -75 16
-143 30 -84 17 -131 31 -145 45 -12 11 -42 29 -67 40 -91 40 -200 50 -662 61
-243 6 -478 15 -522 21 -193 25 -324 78 -540 221 -193 128 -289 180 -324 176
-39 -5 -39 -57 -2 -154 59 -153 156 -270 340 -412 174 -135 265 -171 482 -191
186 -18 418 -12 824 19 266 21 412 54 467 106 25 25 30 26 95 19 88 -9 203
-39 267 -68 42 -20 375 -285 364 -290 -5 -3 -319 11 -405 18 -102 9 -182 -4
-328 -52 -173 -56 -547 -208 -689 -280 -244 -125 -693 -450 -662 -480 13 -13
227 -15 339 -4 256 26 373 70 970 367 340 169 467 252 497 323 6 16 19 33 28
37 10 4 85 9 167 11 l150 4 86 -88 c105 -106 196 -223 356 -454 414 -597 715
-1119 712 -1234 -2 -96 -6 -96 -96 2 -87 96 -207 196 -262 219 l-33 14 36 -41
c74 -81 137 -197 213 -393 19 -48 33 -90 31 -91 -2 -2 -35 11 -73 30 -39 18
-88 35 -110 38 l-40 6 55 -47 c134 -114 252 -263 366 -464 l66 -117 63 -6 c40
-5 70 -3 84 4 38 21 26 53 -57 146 -134 152 -139 164 -46 126 30 -13 58 -21
61 -17 3 3 -6 29 -21 57 -16 28 -25 53 -22 56 3 4 38 -10 77 -30 l71 -36 -7
37 c-29 178 -37 287 -42 552 -7 415 19 577 126 793 l49 97 -27 0 c-28 0 -59
-17 -103 -58 -35 -32 -35 -24 2 84 20 60 42 102 71 137 30 35 36 46 20 37 -13
-6 -24 -10 -27 -8 -6 7 99 230 151 320 103 179 259 386 613 816 300 364 375
459 524 667 245 342 839 1249 1028 1570 177 301 375 742 569 1261 124 335 135
393 137 724 1 328 -6 294 201 925 41 127 80 239 85 249 15 28 -54 -28 -119
-97 -108 -114 -180 -253 -213 -410 -40 -190 -50 -564 -19 -718 9 -45 8 -74 -6
-153 -30 -179 -90 -374 -105 -345 -25 46 -32 135 -20 259 43 430 -51 896 -219
1082 -32 36 -46 46 -52 36 -11 -20 -36 -162 -45 -253 l-7 -80 -20 54 c-12 30
-22 50 -23 45 -5 -17 -33 -278 -40 -373 l-7 -94 -23 63 c-23 64 -54 115 -70
115 -13 0 -52 -123 -71 -226 -23 -127 -23 -432 0 -629 40 -335 83 -489 184
-663 17 -29 36 -180 31 -241 -3 -39 -12 -63 -35 -92 -17 -21 -72 -118 -124
-214 l-93 -175 -9 40 c-12 56 -1 259 24 428 19 125 21 171 16 387 -8 322 -35
524 -109 789 -22 81 -33 109 -38 95 -15 -40 -79 -454 -80 -522 -1 -9 -16 23
-35 71 -37 97 -95 201 -106 189 -10 -11 -46 -231 -58 -356 -23 -234 -8 -506
45 -810 14 -83 37 -186 51 -230 24 -76 63 -133 83 -121 11 7 15 -8 34 -120 13
-79 13 -79 -14 -125 -52 -88 -105 -166 -176 -262 -67 -90 -73 -95 -78 -71 -7
24 6 198 25 338 39 302 41 325 29 545 -16 322 -46 525 -111 770 -17 63 -33
125 -36 138 -3 12 -9 22 -13 22 -3 0 -20 -81 -35 -179 l-29 -180 -23 56 c-23
55 -57 103 -75 103 -26 0 -54 -135 -80 -390 -18 -170 -17 -786 0 -895 29 -175
66 -289 122 -371 25 -37 30 -57 36 -131 l6 -88 -64 -105 c-35 -58 -92 -142
-125 -188 -58 -79 -61 -81 -67 -55 -14 55 -5 205 24 403 40 265 42 295 36 505
-6 236 -17 364 -46 540 -20 116 -86 400 -98 420 -7 11 -71 -323 -72 -372 0
-53 -14 -38 -32 36 -9 38 -26 91 -38 118 l-21 48 -14 -25 c-37 -71 -84 -555
-104 -1087 -13 -335 12 -534 84 -678 32 -63 35 -76 35 -159 0 -108 1 -105
-158 -334 l-107 -155 -6 64 c-8 79 14 236 77 546 42 211 46 241 53 452 17 437
-17 835 -97 1171 l-18 75 -50 -204 -50 -204 -23 85 c-27 104 -42 128 -65 109
-9 -7 -23 -36 -31 -65 -40 -131 -100 -550 -122 -841 -8 -113 -4 -130 -38 145
-16 123 -63 381 -83 455 -7 26 -16 2 -56 -160 -25 -105 -59 -255 -75 -334 -27
-141 -41 -162 -41 -63 0 26 -9 118 -20 205 -27 212 -41 238 -79 144 -49 -123
-121 -465 -167 -795 -21 -153 -29 -487 -15 -682 29 -427 73 -665 151 -820 22
-44 29 -75 35 -158 l7 -102 -59 -78 c-75 -97 -170 -238 -215 -320 l-35 -62 -7
152 c-3 84 -13 407 -21 718 -30 1166 -43 1572 -70 2155 -49 1080 -65 1518 -65
1853 0 218 3 283 13 286 119 35 181 80 224 163 34 68 53 177 35 208 -8 15 -20
7 -89 -61 -44 -44 -90 -92 -102 -109 -40 -54 50 110 108 196 53 79 137 160
202 194 l25 14 -13 -62 c-16 -76 -16 -102 -2 -165 19 -89 105 -151 208 -152
l55 0 -26 -27 c-75 -81 -104 -255 -55 -335 29 -48 82 -87 129 -95 21 -3 38 -8
38 -12 -1 -3 -19 -19 -41 -34 -72 -50 -132 -212 -109 -296 22 -81 101 -144
200 -159 l50 -7 -53 -41 c-74 -57 -113 -119 -127 -205 -21 -121 2 -200 72
-252 72 -54 156 -59 308 -16 104 28 177 67 231 121 62 62 83 118 77 205 -8
111 -54 177 -152 218 l-39 16 30 18 c105 64 154 218 104 327 -23 51 -102 119
-163 141 l-46 17 31 19 c48 29 96 77 120 122 31 57 30 182 -1 242 -37 70 -136
129 -227 135 -25 2 -45 6 -45 9 0 3 13 15 30 27 16 12 42 43 57 69 24 42 28
58 28 128 0 102 -25 160 -86 205 -89 64 -195 74 -339 32 -36 -11 -105 -27
-155 -36 -142 -27 -203 -62 -320 -180 -55 -56 -120 -132 -145 -170 l-45 -68
-7 154 c-3 84 -8 243 -10 353 l-3 200 65 23 c117 42 228 100 254 135 13 17 43
75 67 127 23 52 62 121 86 153 25 33 43 61 41 63 -8 7 -135 -59 -214 -111 -44
-30 -109 -82 -143 -117 l-63 -63 7 35 c23 113 119 255 293 432 l115 117 36
-32 c120 -108 275 -149 566 -151 257 -1 637 11 705 23 138 24 260 113 260 189
0 48 -34 151 -65 196 l-24 35 20 50 c24 64 17 85 -26 78 l-32 -5 30 76 c57
144 46 318 -25 382 l-30 28 21 21 c11 11 23 32 27 46 9 35 -20 155 -56 230
-16 35 -30 72 -30 84 0 12 -8 25 -19 29 -18 7 -17 11 16 67 60 102 85 179 84
267 -1 88 -20 139 -64 172 -38 28 -135 29 -195 2 -41 -19 -45 -19 -72 -3 -44
26 -99 22 -153 -13 -25 -16 -109 -90 -186 -165 -88 -85 -156 -143 -183 -155
-24 -10 -102 -32 -174 -49 -72 -16 -159 -40 -193 -51 -34 -12 -64 -20 -66 -18
-2 2 11 36 30 76 19 40 35 77 35 82 0 25 -203 -98 -286 -173 -73 -66 -111
-129 -129 -217 -11 -52 -29 -98 -61 -150 -62 -104 -162 -241 -236 -328 l-63
-72 -3 372 c-1 205 0 383 3 396 3 12 12 22 19 22 28 0 172 80 210 117 21 20
51 65 67 100 54 112 116 130 313 88 117 -25 132 -26 194 -15 94 18 183 51 244
93 77 51 315 123 693 208 177 40 243 60 371 115 213 90 257 137 258 273 1 64
-3 83 -25 122 l-25 45 25 40 c67 106 90 256 52 341 -40 87 -177 127 -263 76
-33 -19 -37 -20 -52 -5 -11 11 -31 16 -62 14 -129 -5 -203 -53 -332 -216 -121
-152 -305 -341 -404 -416 -87 -66 -134 -85 -336 -141 -152 -42 -242 -73 -311
-109 -24 -12 -45 -19 -47 -17 -3 3 10 34 27 70 18 37 30 70 26 74 -11 10 -57
-18 -187 -116 -165 -124 -234 -196 -304 -321 -33 -58 -80 -133 -105 -167 -57
-76 -66 -67 -59 57 9 157 60 222 303 390 84 58 170 145 259 263 71 94 110 162
101 177 -3 5 44 76 105 159 157 215 335 487 380 583 42 90 65 197 57 260 -10
76 -76 116 -173 104 l-54 -6 -6 37 c-15 96 -82 174 -148 172 -17 0 -56 -8 -87
-18z m1527 -1436 c-14 -72 -67 -110 -167 -120 l-64 -6 49 43 c28 24 77 67 109
97 52 47 61 52 69 37 6 -10 7 -33 4 -51z m-2304 -519 c1 -23 -7 -61 -19 -86
l-20 -45 -12 55 c-10 49 -9 59 9 95 11 21 20 46 21 55 1 30 20 -34 21 -74z
m828 -951 c180 -58 242 -67 305 -41 18 8 35 13 37 11 5 -5 227 -34 320 -41
l87 -7 -47 -60 c-26 -33 -65 -73 -87 -89 -67 -49 -327 -168 -367 -168 -5 0 0
14 12 31 12 16 20 32 18 35 -12 12 -264 -79 -377 -135 -89 -45 -147 -124 -184
-248 -14 -46 -31 -67 -152 -185 -194 -188 -293 -324 -331 -455 -12 -43 -13
-17 -9 252 6 352 12 435 32 435 49 0 133 70 190 159 32 48 115 232 109 238
-12 12 -179 -91 -243 -150 l-47 -42 29 50 c63 111 208 305 277 372 121 117
172 121 428 38z m-922 -485 l-3 -49 -50 43 -50 44 50 53 50 54 3 -47 c2 -27 2
-70 0 -98z m3285 -2370 c25 -63 52 -148 60 -189 l15 -73 -48 -187 c-27 -102
-55 -204 -63 -226 l-15 -40 -7 39 c-4 22 -4 112 1 200 11 190 12 498 2 576 -4
31 -3 46 2 35 4 -11 28 -72 53 -135z m-158 -537 c9 -32 26 -74 37 -93 12 -19
27 -63 34 -98 l12 -63 -55 -112 c-62 -125 -65 -125 -77 -2 -5 45 -2 112 8 188
9 65 16 145 16 178 0 32 2 59 4 59 3 0 12 -26 21 -57z m-435 -876 c0 -7 9 -31
20 -52 11 -22 25 -77 30 -124 9 -81 8 -87 -14 -126 -14 -22 -34 -52 -45 -65
-18 -21 -22 -23 -31 -10 -13 20 -12 57 5 175 8 55 15 128 15 163 0 40 4 61 10
57 6 -3 10 -12 10 -18z m-390 -858 c0 -40 -5 -52 -42 -93 -31 -37 -43 -44 -49
-34 -5 8 2 76 13 152 l22 137 28 -58 c17 -37 27 -75 28 -104z m-445 -579 l7
-78 -43 -59 c-24 -32 -54 -73 -67 -91 -56 -77 -61 40 -9 203 20 61 41 130 47
155 l12 44 23 -48 c14 -30 26 -77 30 -126z m-765 -485 c13 -84 24 -136 57
-275 31 -128 28 -221 -7 -290 -12 -25 -68 -112 -124 -194 l-101 -150 -8 55
c-4 29 -5 81 -1 114 8 86 61 391 88 515 31 134 43 225 52 375 l7 120 13 -100
c7 -55 18 -131 24 -170z m240 -221 l0 -92 -56 -66 c-31 -36 -60 -66 -65 -66
-12 0 -2 41 26 110 13 30 33 97 46 148 21 80 26 90 36 75 8 -10 13 -51 13
-109z m-530 -418 c6 -29 20 -71 30 -92 14 -27 22 -69 26 -146 l7 -107 -38 -55
c-20 -30 -50 -67 -66 -82 -25 -24 -29 -25 -35 -10 -8 21 0 115 20 221 9 44 21
135 28 203 6 67 13 122 14 122 2 0 8 -24 14 -54z m-370 -1396 c-17 -32 -29
-32 -17 -1 6 17 15 28 19 25 4 -3 4 -14 -2 -24z"/>
<path d="M5365 2094 c5 -60 2 -103 -10 -164 -9 -45 -14 -84 -11 -87 9 -9 33
57 42 112 6 41 8 46 15 27 13 -34 36 -37 83 -13 22 12 30 18 16 14 -43 -12
-72 -9 -84 10 -9 14 -5 28 18 70 l29 52 -35 -33 -35 -33 -5 51 c-3 28 -11 57
-18 63 -9 10 -11 -5 -5 -69z"/>
<path d="M5565 2110 c-4 -6 -7 -38 -8 -71 -2 -50 2 -63 17 -75 28 -20 34 -18
74 22 32 32 36 34 45 18 13 -22 59 -66 64 -60 2 2 -7 15 -21 29 -16 16 -27 41
-31 73 -11 79 -16 83 -35 24 -36 -106 -109 -129 -97 -30 3 25 9 53 12 63 8 18
-9 24 -20 7z"/>
<path d="M5472 1918 c-33 -33 1 -98 43 -81 15 5 16 3 6 -15 -10 -19 -15 -20
-31 -10 -24 15 -37 4 -20 -17 16 -19 54 -19 70 0 6 8 12 35 12 60 0 25 -6 52
-12 60 -15 18 -52 19 -68 3z m48 -38 c0 -10 -5 -22 -10 -25 -13 -8 -24 20 -16
41 8 20 26 9 26 -16z"/>
<path d="M5590 1915 c-17 -20 -5 -32 15 -15 23 19 42 -2 21 -23 -20 -20 -20
-27 -1 -27 17 0 20 -35 4 -46 -6 -3 -16 -1 -22 5 -6 6 -18 11 -26 11 -12 0
-10 -5 7 -22 39 -39 98 0 76 50 -4 9 -6 28 -5 41 4 38 -44 56 -69 26z"/>
</g>
</svg>
