<?xml version="1.0" standalone="no"?>
<!DOCTYPE svg PUBLIC "-//W3C//DTD SVG 20010904//EN"
 "http://www.w3.org/TR/2001/REC-SVG-20010904/DTD/svg10.dtd">
<svg version="1.0" xmlns="http://www.w3.org/2000/svg"
 width="1280.000000pt" height="1096.000000pt" viewBox="0 0 1280.000000 1096.000000"
 preserveAspectRatio="xMidYMid meet">
<metadata>
Created by potrace 1.15, written by Peter Selinger 2001-2017
</metadata>
<g transform="translate(0.000000,1096.000000) scale(0.100000,-0.100000)"
fill="#000000" stroke="none">
<path d="M10610 10882 c0 -5 8 -33 18 -63 11 -30 25 -78 32 -107 12 -50 11
-55 -10 -77 -20 -21 -25 -22 -44 -10 -61 39 -140 6 -155 -65 -6 -30 -11 -36
-41 -40 -34 -5 -35 -7 -34 -47 0 -27 10 -56 27 -81 l26 -40 -64 -7 c-38 -4
-74 -14 -87 -24 -20 -17 -20 -21 -9 -49 12 -29 11 -34 -13 -63 -45 -53 -33
-124 25 -154 27 -14 30 -20 24 -46 -4 -18 -2 -36 5 -44 14 -17 79 -20 129 -5
33 9 33 9 27 -18 -27 -121 -17 -158 40 -149 28 5 34 2 44 -24 27 -64 104 -80
159 -33 41 35 61 20 61 -45 0 -65 -26 -326 -45 -456 -26 -178 -33 -202 -63
-221 -15 -10 -35 -28 -46 -42 -13 -17 -22 -20 -29 -13 -6 6 -25 11 -42 11 -41
0 -55 -29 -55 -115 0 -36 -2 -65 -4 -65 -2 0 -28 11 -58 25 -91 43 -138 30
-138 -38 0 -18 -7 -27 -26 -31 -33 -9 -35 -7 -70 74 -164 376 -496 658 -917
779 -56 16 -118 32 -136 36 l-35 7 17 -25 c138 -211 164 -370 134 -812 -10
-133 -15 -166 -23 -151 -17 29 -82 16 -145 -29 -28 -20 -52 -35 -53 -33 -2 2
-8 35 -15 73 -7 39 -19 80 -27 93 -17 26 -59 29 -85 6 -17 -15 -20 -15 -49 10
-76 64 -181 39 -210 -50 -10 -29 -14 -32 -38 -25 -61 18 -90 -22 -73 -99 5
-22 7 -40 6 -40 -10 0 -125 73 -125 80 0 8 97 123 223 264 233 261 330 495
329 796 -1 187 -38 342 -121 508 -39 78 -133 217 -177 262 l-24 25 0 -32 c0
-51 -27 -166 -54 -226 -36 -81 -88 -154 -234 -323 -71 -84 -144 -172 -161
-198 -81 -117 -130 -267 -131 -394 0 -165 86 -425 192 -579 16 -24 28 -43 26
-43 -2 0 -46 18 -98 39 -86 36 -95 42 -101 71 -4 17 -15 40 -24 50 -17 19 -17
21 -1 39 30 33 17 63 -34 83 -25 9 -57 20 -73 23 l-28 6 36 46 c20 26 38 57
41 70 8 29 -11 53 -42 53 -21 0 -24 4 -24 41 0 73 -85 124 -150 89 -14 -8 -21
-4 -35 16 -26 40 -63 29 -102 -28 -17 -26 -34 -53 -37 -60 -5 -10 -7 -10 -12
-1 -16 35 -68 95 -91 106 -23 10 -28 8 -47 -15 -19 -23 -27 -25 -71 -22 -38 4
-55 0 -71 -14 -29 -25 -44 -55 -44 -90 0 -24 -6 -32 -30 -41 -47 -16 -39 -63
23 -128 17 -18 29 -34 26 -36 -2 -1 -31 -11 -63 -22 -32 -11 -65 -29 -73 -41
-12 -18 -11 -24 7 -46 l20 -26 -23 -40 c-21 -39 -21 -43 -7 -84 13 -37 21 -45
57 -57 l42 -15 -2 -110 c-1 -80 4 -131 17 -181 19 -73 88 -241 105 -258 6 -6
-5 26 -24 70 -51 117 -75 222 -74 317 l2 81 7 -100 c7 -93 42 -230 71 -274 12
-18 14 -26 -21 85 -24 75 -36 201 -26 256 6 31 13 38 54 54 26 11 50 21 54 22
5 2 8 -25 8 -61 0 -49 5 -71 19 -88 17 -21 21 -22 47 -10 26 12 30 11 49 -12
49 -59 103 -62 154 -9 32 34 39 36 64 28 46 -16 62 10 60 95 -2 52 1 69 10 65
7 -2 36 -13 65 -22 65 -22 86 -13 90 39 3 31 7 36 38 41 42 8 157 -38 307
-122 l98 -56 -33 -11 c-32 -10 -33 -12 -32 -63 1 -37 -2 -52 -11 -52 -8 0 -30
-15 -49 -34 -32 -30 -36 -39 -36 -84 0 -46 4 -55 37 -88 31 -31 34 -39 25 -55
-7 -10 -12 -30 -12 -44 0 -37 40 -57 125 -63 l73 -5 -34 -66 c-19 -36 -34 -78
-34 -93 0 -32 32 -58 72 -58 22 0 28 -5 28 -21 0 -39 30 -85 66 -102 46 -22
82 -21 123 4 l34 20 26 -25 c15 -14 34 -26 43 -26 25 0 65 54 88 119 l22 59
41 -45 c67 -73 123 -92 151 -52 14 21 16 19 51 -51 42 -84 98 -246 119 -345
17 -83 40 -313 34 -341 -6 -23 -6 -23 -43 106 -41 144 -85 221 -186 322 -74
76 -99 94 -180 132 -52 24 -116 49 -142 55 -69 17 -196 25 -251 17 l-48 -7 52
-55 c62 -66 98 -140 145 -304 48 -165 74 -219 135 -284 89 -95 225 -148 410
-162 76 -6 90 -9 86 -23 -3 -9 -10 -43 -16 -76 -31 -155 -113 -363 -215 -541
-64 -111 -201 -307 -244 -348 -64 -61 -629 -371 -647 -354 -2 3 0 17 6 32 5
15 10 42 10 59 0 27 21 55 126 172 235 262 346 470 398 741 58 311 -2 650
-167 930 -53 90 -176 255 -194 262 -9 2 -13 -10 -13 -42 0 -85 -33 -203 -84
-304 -39 -77 -116 -178 -246 -327 -294 -336 -363 -475 -363 -735 0 -136 14
-214 63 -362 17 -49 30 -91 30 -92 0 -2 -10 -1 -22 1 -36 7 -76 -44 -107 -136
l-27 -81 -40 41 c-50 52 -121 99 -149 99 -26 0 -53 -28 -63 -65 -7 -25 -11
-27 -75 -28 -68 -2 -68 -2 -62 23 61 237 64 497 9 686 -61 211 -186 385 -444
618 -65 59 -74 72 -72 99 2 30 1 31 -12 13 -14 -17 -17 -17 -55 15 -22 19 -41
39 -41 46 0 6 -8 14 -19 18 -10 3 -59 47 -108 98 -90 93 -169 200 -216 292
-26 52 -71 192 -82 258 -3 20 -9 37 -13 37 -4 0 -34 -42 -66 -92 -291 -465
-362 -998 -200 -1487 78 -232 217 -462 393 -645 31 -32 126 -119 211 -194 202
-177 380 -351 380 -373 0 -18 -54 -33 -390 -108 -531 -119 -738 -166 -826
-187 -56 -13 -104 -24 -107 -24 -3 0 19 46 48 103 63 120 110 253 126 358 14
89 24 119 42 119 19 0 65 51 71 80 4 14 3 38 -2 55 -7 26 -5 32 22 50 49 33
45 51 -24 116 l-62 58 38 16 c96 40 130 95 81 131 -22 17 -23 19 -8 59 26 74
-12 142 -87 152 -30 4 -42 10 -42 22 0 27 -29 61 -52 61 -12 0 -46 -14 -76
-31 -61 -34 -67 -32 -78 33 -9 52 -39 98 -65 98 -14 0 -54 31 -105 80 -82 79
-234 186 -325 230 -25 13 -53 34 -61 49 -15 24 -14 33 12 116 15 50 52 160 83
245 81 229 92 285 91 475 0 130 -4 175 -21 241 -83 314 -256 546 -539 718 -52
32 -97 56 -100 54 -2 -3 5 -40 16 -84 38 -153 24 -258 -75 -548 -82 -241 -97
-308 -97 -426 1 -102 18 -181 57 -269 78 -169 262 -369 441 -476 32 -19 56
-35 53 -35 -2 0 -26 7 -54 16 -99 30 -212 46 -335 48 -77 1 -133 6 -147 14
-23 13 -44 70 -87 235 -70 269 -234 449 -481 527 -74 23 -259 39 -310 26 l-27
-7 56 -59 c67 -70 93 -124 140 -294 47 -165 78 -229 146 -297 97 -98 248 -151
434 -152 l111 -1 -67 -12 c-197 -38 -417 -150 -563 -289 l-50 -47 50 39 c73
57 133 97 195 128 68 34 65 30 -30 -34 -41 -28 -95 -69 -120 -92 -25 -23 -31
-31 -15 -19 176 126 290 184 453 228 87 23 114 26 272 25 156 0 185 -3 272
-26 174 -46 317 -125 453 -250 l60 -55 -22 -23 c-12 -13 -26 -36 -32 -51 -9
-24 -14 -27 -41 -22 -18 4 -36 1 -45 -6 -19 -16 -19 -85 0 -140 8 -23 15 -44
15 -46 0 -1 -15 2 -32 7 -41 11 -129 12 -147 0 -10 -6 -12 -21 -8 -50 3 -23 1
-41 -4 -41 -4 0 -24 -14 -44 -31 -31 -28 -35 -37 -35 -79 0 -41 5 -53 31 -79
29 -29 30 -32 18 -66 -11 -30 -11 -37 3 -51 18 -18 77 -33 131 -34 l37 0 -30
-60 c-46 -90 -38 -130 25 -130 28 0 32 -4 41 -42 16 -74 99 -110 164 -71 27
15 29 15 55 -5 15 -12 33 -22 40 -22 20 0 55 45 73 96 21 61 29 66 49 32 16
-24 15 -31 -1 -90 -55 -199 -165 -371 -327 -513 -73 -63 -179 -127 -239 -144
-159 -44 -532 -174 -629 -218 -162 -74 -333 -160 -420 -212 -57 -34 -105 -60
-105 -59 -1 2 -9 14 -18 28 -11 18 -17 66 -21 180 -9 226 -57 432 -157 667
-184 433 -458 668 -891 762 -52 11 -203 36 -335 55 -387 56 -506 86 -675 172
-91 45 -167 101 -255 186 -32 31 -54 46 -58 39 -10 -15 11 -305 29 -411 32
-186 88 -358 175 -535 235 -478 667 -823 1195 -953 144 -36 139 -35 390 -67
202 -25 471 -70 512 -86 30 -11 58 -66 43 -84 -6 -7 -39 -26 -73 -43 -44 -21
-86 -54 -147 -116 -47 -47 -87 -86 -91 -86 -3 0 -13 26 -23 58 -29 90 -77 181
-113 213 -50 43 -85 39 -140 -16 l-45 -44 -36 23 c-92 56 -147 61 -234 23 -83
-38 -128 -110 -128 -204 0 -32 -1 -33 -44 -33 -55 0 -104 -17 -116 -40 -28
-53 0 -158 74 -275 l45 -70 -87 -6 c-48 -3 -109 -9 -137 -12 l-50 -7 -45 61
c-95 129 -264 264 -423 339 -198 93 -343 117 -792 130 -364 11 -492 21 -623
51 -165 38 -290 96 -439 206 -86 63 -84 68 -53 -109 58 -333 158 -589 331
-848 310 -463 791 -757 1373 -841 39 -6 251 -14 471 -19 220 -4 426 -11 459
-16 l59 -7 -6 -91 c-3 -50 -11 -156 -18 -236 -14 -176 -6 -567 16 -800 29
-304 92 -696 166 -1030 37 -169 38 -170 54 -170 7 0 15 -5 17 -10 4 -14 194
22 319 60 82 26 99 34 95 48 -13 42 -67 280 -94 417 -26 127 -42 222 -88 502
-4 30 -2 33 33 42 97 25 387 71 643 101 650 77 1178 401 1500 918 179 289 300
694 300 1003 0 36 3 86 6 110 l6 44 44 -4 c41 -3 44 -5 44 -31 0 -41 10 -60
36 -70 33 -13 78 4 156 61 l66 47 7 -51 c16 -112 54 -187 95 -187 10 0 33 11
52 23 l34 24 39 -33 c49 -43 87 -50 150 -27 45 16 53 24 79 75 l28 57 42 -5
c34 -5 44 -2 61 16 27 30 24 97 -9 184 l-26 67 23 -6 c29 -9 56 -42 124 -150
75 -120 164 -308 202 -425 30 -94 65 -240 58 -246 -2 -2 -14 7 -27 21 -30 32
-53 32 -79 -1 -18 -22 -24 -24 -54 -16 -66 18 -127 -29 -127 -98 0 -30 -4 -37
-30 -47 -45 -17 -41 -58 10 -116 22 -25 40 -47 40 -50 0 -2 -16 -7 -34 -10
-52 -8 -104 -36 -112 -59 -4 -14 1 -27 14 -41 l21 -20 -21 -36 c-37 -64 -6
-141 62 -156 21 -5 27 -11 23 -25 -8 -30 15 -60 45 -60 26 -1 27 -1 7 -16 -40
-32 -182 -94 -259 -114 -130 -33 -247 -43 -436 -37 -103 3 -166 2 -153 -3 87
-35 434 -45 590 -17 112 20 239 65 315 112 31 19 59 35 62 35 3 0 6 -13 6 -29
0 -38 22 -55 61 -47 26 5 36 1 59 -24 23 -25 36 -30 74 -30 46 0 86 24 97 59
3 9 11 10 32 2 54 -21 71 6 65 104 -1 30 0 55 3 55 4 0 23 -7 44 -16 20 -8 56
-14 78 -12 40 3 42 5 45 39 3 31 8 38 42 53 59 26 79 100 39 150 -20 25 -20
28 -4 52 9 14 13 33 10 44 -6 18 -54 42 -112 55 -39 8 -41 15 -12 41 12 10 30
36 40 57 23 44 14 71 -26 81 -18 5 -25 13 -25 31 0 41 -17 72 -54 94 -31 19
-40 21 -76 11 -39 -10 -43 -10 -62 15 -11 14 -27 24 -35 23 -13 -2 -20 17 -34
87 -39 199 -105 371 -217 574 -40 73 -47 94 -47 141 0 30 -4 62 -8 71 -6 12 0
19 23 29 16 7 44 28 60 47 25 28 30 42 30 84 0 61 -11 84 -58 125 l-35 32 17
36 c36 77 -6 110 -140 111 -52 0 -94 3 -94 6 0 3 14 34 32 68 36 69 50 162 27
177 -8 5 -34 11 -58 14 -43 5 -44 6 -56 52 -6 26 -18 54 -25 63 -20 24 -89 55
-122 55 -30 0 -102 -32 -113 -50 -4 -6 -19 3 -37 20 -64 64 -119 24 -161 -118
l-21 -72 -56 53 c-30 30 -66 62 -80 71 -35 23 -84 21 -102 -6 l-14 -21 -85 35
c-46 20 -102 42 -124 49 -22 7 -35 14 -30 15 11 4 423 106 884 219 172 42 317
73 321 68 12 -12 74 -208 115 -361 47 -174 77 -257 133 -366 150 -293 420
-519 738 -619 144 -46 269 -60 455 -55 92 3 172 9 178 12 7 5 -1 17 -21 33
-114 91 -192 195 -246 325 -17 40 -58 166 -91 280 -69 234 -111 341 -168 427
l-40 59 48 6 c60 8 102 42 124 99 l16 42 47 -3 c35 -3 52 1 62 13 20 24 14
102 -13 179 l-25 68 51 -9 c29 -4 80 -8 114 -8 74 0 97 16 95 68 l-1 35 42 -5
c89 -10 276 -56 367 -90 327 -121 574 -365 696 -690 32 -85 31 -90 -16 -98
-40 -7 -73 -36 -85 -76 -5 -14 -16 -19 -46 -19 -57 0 -69 -30 -46 -118 10 -36
16 -66 14 -68 -1 -2 -32 2 -69 8 -58 10 -69 10 -93 -6 -24 -16 -26 -22 -20
-57 4 -24 3 -39 -3 -39 -27 0 -70 -51 -76 -90 -7 -46 4 -75 40 -106 23 -19 24
-22 10 -49 -29 -55 12 -85 114 -85 l59 0 -30 -56 c-46 -89 -35 -144 28 -144
13 0 23 -13 33 -42 25 -71 88 -101 153 -73 16 6 16 4 6 -21 -44 -118 -141
-276 -221 -361 -112 -117 -252 -181 -377 -170 -36 3 -87 14 -113 23 -70 26
-169 103 -232 180 -51 62 -86 87 -86 62 0 -6 46 -56 103 -112 85 -85 116 -109
187 -144 211 -103 396 -66 581 118 47 47 100 107 117 134 l32 49 0 -155 c0
-194 16 -286 69 -393 85 -172 245 -296 438 -341 36 -8 68 -13 70 -10 3 3 -4
18 -16 35 -45 63 -54 107 -61 321 -6 179 -10 213 -29 263 -48 123 -199 242
-367 289 l-81 23 43 90 c24 49 57 104 72 121 16 16 37 52 47 80 10 27 19 50
20 51 1 2 25 -20 53 -47 65 -63 105 -68 126 -18 13 30 17 32 57 30 24 -1 50 2
58 7 10 6 32 -4 75 -36 78 -57 152 -95 246 -125 65 -20 95 -23 230 -23 90 0
163 5 173 11 16 9 13 14 -27 42 -45 33 -99 99 -131 161 -10 19 -44 105 -76
190 -67 174 -98 228 -169 295 -45 42 -157 106 -186 106 -6 0 -23 18 -38 40
-25 38 -40 46 -96 52 -18 2 -26 10 -28 28 -9 61 -52 66 -135 16 -64 -39 -58
-43 -72 49 -8 50 -30 85 -54 85 -14 0 -25 21 -49 98 -119 373 -379 651 -763
815 -105 45 -190 73 -293 96 l-80 17 3 61 c2 60 1 64 -38 106 l-40 43 86 43
c205 102 541 305 666 403 30 24 40 28 51 18 21 -17 79 -161 157 -387 113 -331
214 -509 395 -689 268 -268 610 -406 1004 -406 140 0 345 23 363 41 4 4 -5 16
-20 26 -188 119 -292 275 -413 615 -122 343 -177 451 -293 576 -184 198 -486
305 -860 304 -84 -1 -183 -7 -220 -14 -37 -7 -64 -10 -60 -6 4 4 51 43 103 86
189 155 449 430 602 637 53 73 74 92 117 112 70 33 195 72 277 86 65 11 68 11
84 -12 17 -22 17 -23 -11 -52 -23 -23 -29 -37 -29 -72 0 -36 5 -48 31 -69 17
-14 35 -26 40 -26 6 0 7 -14 4 -32 -3 -18 -1 -40 4 -47 11 -17 64 -20 128 -9
l41 8 -14 -47 c-27 -89 -15 -123 43 -123 18 0 33 -4 33 -9 0 -5 11 -23 25 -39
35 -41 85 -50 130 -22 19 12 35 26 35 31 0 6 10 3 22 -5 51 -36 84 -6 96 88
l7 56 51 -34 c58 -39 72 -67 105 -200 55 -226 24 -437 -78 -539 -50 -51 -108
-71 -186 -64 -106 9 -194 51 -372 181 -34 25 -32 22 9 -15 137 -123 331 -219
441 -219 54 0 129 28 172 65 23 19 43 32 46 28 2 -5 0 -44 -4 -88 -21 -204
-21 -239 -5 -308 22 -94 69 -181 133 -249 79 -82 153 -126 271 -163 l23 -7
-23 44 c-24 46 -28 122 -18 358 5 127 -13 181 -87 260 -59 64 -138 116 -218
145 -27 10 -53 21 -58 25 -4 3 6 31 22 61 40 74 61 162 64 268 1 50 5 87 9 83
3 -4 25 -61 48 -127 50 -142 68 -180 125 -260 161 -227 438 -348 723 -314 56
6 102 16 102 20 0 5 -4 9 -8 9 -4 0 -33 22 -64 50 -65 58 -116 149 -173 310
-81 227 -145 314 -278 380 -45 22 -116 47 -157 56 -79 16 -229 21 -297 9 l-41
-6 -11 50 c-6 28 -22 83 -36 122 -14 40 -25 73 -25 74 0 2 13 5 29 8 19 4 36
18 50 42 25 43 26 56 5 98 -16 30 -16 32 5 45 46 31 7 95 -75 122 l-36 12 50
44 c28 25 54 54 57 65 7 22 -19 59 -41 59 -10 0 -12 13 -8 48 5 42 2 50 -26
80 -27 27 -38 32 -79 32 -43 0 -50 3 -55 24 -12 50 -52 41 -122 -26 l-42 -40
-16 48 c-17 51 -51 94 -73 94 -7 0 -22 -9 -33 -20 -19 -19 -22 -19 -50 -5 -39
20 -69 19 -107 -5 -25 -15 -34 -29 -39 -60 -6 -35 -10 -40 -33 -40 -34 0 -51
-17 -51 -50 l0 -25 -82 4 c-46 2 -120 -2 -166 -9 -46 -7 -85 -11 -86 -9 -2 2
30 65 70 139 73 134 183 371 232 503 14 38 31 71 39 74 17 7 195 -49 393 -124
268 -100 428 -129 660 -120 503 21 920 290 1190 770 18 32 31 60 28 62 -2 2
-33 -5 -68 -17 -92 -29 -278 -36 -391 -14 -46 9 -203 57 -349 106 -312 105
-406 125 -567 117 -92 -4 -129 -11 -211 -39 l-100 -34 -40 51 -40 52 60 11
c100 19 134 52 104 103 -16 27 -16 30 10 68 21 32 25 48 20 75 -9 45 -39 82
-79 95 -30 10 -33 15 -29 41 2 17 -1 37 -8 45 -17 20 -79 19 -138 -3 l-48 -19
4 82 c4 68 1 84 -13 99 -11 11 -26 15 -40 12 -22 -6 -23 -4 -18 37 17 129 12
121 78 134 33 6 115 19 181 28 163 21 258 46 368 98 250 120 425 335 496 613
23 88 39 284 23 284 -5 0 -20 -12 -34 -26 -40 -44 -139 -103 -208 -125 -36
-11 -147 -33 -246 -49 -211 -34 -288 -56 -370 -105 -96 -58 -161 -130 -221
-245 l-29 -55 -6 160 c-3 88 -5 161 -3 163 1 2 17 -6 35 -17 58 -35 109 -24
109 25 0 17 8 23 39 28 68 11 104 76 78 139 -14 33 -14 37 4 53 42 38 15 80
-75 118 l-38 16 40 32 c47 39 74 80 66 101 -3 8 -16 19 -29 25 -22 10 -24 16
-19 55 6 39 3 48 -24 78 -26 29 -36 33 -76 34 -40 0 -49 4 -59 25 -22 44 -58
38 -114 -19 l-49 -49 -21 61 c-12 34 -39 111 -59 170 -41 119 -55 140 -23 33
31 -104 15 -90 -21 18 -29 87 -40 112 -40 88z m-280 -2501 c0 -6 -4 -13 -10
-16 -5 -3 -10 1 -10 9 0 9 5 16 10 16 6 0 10 -4 10 -9z m-987 -231 l27 -51
-50 38 c-46 34 -49 39 -33 50 24 18 25 18 56 -37z m1035 -120 c34 -1 31 -20
-22 -178 -68 -201 -78 -218 -71 -132 2 36 7 115 10 175 3 61 8 127 12 147 l6
38 29 -25 c16 -14 33 -25 36 -25z m341 -1 l31 -50 -67 -79 c-37 -44 -68 -78
-69 -77 -2 1 10 47 25 102 16 55 31 112 35 128 3 15 8 27 10 27 2 0 17 -23 35
-51z m-1270 -35 c126 -167 464 -369 720 -431 39 -9 71 -20 71 -24 0 -15 -106
-243 -171 -367 -169 -325 -410 -655 -642 -881 l-55 -54 33 84 c85 211 125 419
126 644 0 83 -5 185 -11 226 -28 183 -90 373 -175 536 -42 79 -42 82 -25 98
25 23 33 66 21 109 -9 33 -7 37 17 48 15 7 31 23 37 36 5 12 12 22 15 22 3 0
20 -21 39 -46z m-2289 -2588 c0 -3 -4 -8 -10 -11 -5 -3 -10 -1 -10 4 0 6 5 11
10 11 6 0 10 -2 10 -4z m-39 -162 c13 -14 45 -40 72 -57 26 -16 47 -33 47 -37
0 -12 -92 -50 -172 -70 -46 -12 -91 -23 -102 -27 -14 -4 -9 9 21 53 22 33 53
83 69 111 16 29 32 53 35 53 3 0 16 -12 30 -26z m-16 -504 c4 -6 -12 -10 -42
-9 -39 1 -43 3 -23 9 36 11 58 11 65 0z m449 -118 c-1 -2 -13 -1 -25 3 -22 7
-22 8 -4 22 17 12 20 11 26 -4 4 -10 5 -20 3 -21z m-2134 -437 c47 -8 105 -21
130 -28 l45 -13 2 -49 c1 -28 6 -62 11 -76 10 -24 7 -27 -24 -42 -79 -38 -64
-98 47 -179 38 -28 69 -52 69 -54 0 -1 -32 -20 -70 -40 -75 -39 -120 -83 -120
-115 0 -21 36 -63 60 -71 12 -4 12 -11 -4 -45 -10 -22 -18 -56 -18 -75 0 -37
39 -110 68 -126 13 -7 4 -20 -53 -71 -224 -206 -425 -280 -968 -356 -99 -14
-220 -32 -269 -41 -85 -16 -90 -16 -103 2 -18 24 -16 32 6 39 32 10 81 73 81
103 0 48 -52 97 -158 150 -53 27 -108 52 -122 56 l-25 7 29 22 c138 104 216
193 216 247 0 34 -54 85 -100 95 -27 6 -31 10 -25 28 3 12 9 54 12 94 5 61 2
78 -16 114 -18 34 -20 44 -9 51 206 136 741 367 903 389 83 11 303 3 405 -16z
m-2116 -2170 c-58 -125 -117 -300 -147 -441 l-24 -109 -7 105 c-4 58 -6 179
-4 270 l3 165 40 6 c53 7 92 29 140 79 22 22 41 37 43 32 1 -4 -18 -53 -44
-107z"/>
<path d="M6185 4931 c-7 -13 17 -24 40 -19 9 1 16 8 16 13 0 14 -48 19 -56 6z"/>
<path d="M4437 4474 c-15 -15 -6 -24 24 -24 20 0 29 4 27 13 -5 14 -40 21 -51
11z"/>
<path d="M8306 2863 c56 -101 91 -150 108 -150 9 0 16 2 16 5 0 10 -43 57 -53
57 -5 0 -12 6 -15 14 -3 9 0 11 8 6 9 -6 9 -3 1 14 -14 25 -22 28 -15 4 5 -15
3 -15 -10 1 -18 23 -21 40 -5 30 8 -4 8 0 0 15 -13 24 -23 28 -15 6 12 -31 -6
-13 -26 25 -11 22 -23 40 -26 40 -3 0 11 -30 32 -67z m94 -118 c14 -19 14 -19
-2 -6 -10 7 -18 18 -18 24 0 6 1 8 3 6 1 -2 9 -13 17 -24z"/>
<path d="M5808 1703 c7 -3 16 -2 19 1 4 3 -2 6 -13 5 -11 0 -14 -3 -6 -6z"/>
</g>
</svg>
