<svg id="Layer_1" data-name="Layer 1" xmlns="http://www.w3.org/2000/svg" viewBox="0 0 1280 284.8"><defs><style>.cls-1{fill:#7fc892;}</style></defs><title>grass </title><path class="cls-1" d="M219,.4c0,.2-.4,2.5-.9,5.2s-1.7,18.9-2.6,36-2,35.2-2.4,40l-.7,8.9L211.2,84c-2.1-11.1-3.2-14.4-4.5-13.1-.9.9-1.1,7.1-.9,21.9.3,21.6-.6,26-1.9,9.5-1.2-15.7-3.1-31-4-32.4-2.3-3.8-3.6,4.1-4.4,26.6-.6,17.4-2.6,33-4.6,35-.5.5-.9.5-.9.1s-1.2-5.1-2.6-10.4-3.9-14.9-5.5-21.2C178,84.9,175,76,174,76c-1.7,0-2,3.8-1.1,13,1.4,13.1-.2,14.7-2.3,2.4-4.8-27.6-8.6-26.1-6.8,2.6.8,12.7.6,14.8-2.4,34.5-1.9,11.5-3.7,23-4.2,25.5l-.8,4.5-1.3-7.5c-1.5-9.2-1.8-10-3.1-10s-2.8,3.8-3.6,10c-1,7.2-2.4,7.2-2.4,0,0-3.4-.4-6.9-.9-7.8-1.7-3.2-1.6-53.3.2-70.7,2.5-25.5,3.1-35.2,1.9-35.9-1.6-1-3.8,5.8-7.6,23.5-2,9-6,27.4-9,40.9l-5.3,24.5-.4-16.2c-.7-26.2-3.5-23.9-8,6.6l-2.8,18.6.2-50.2c.1-27.6-.1-50.5-.5-50.9-2.3-2.3-3.8,5.5-8.9,45.5-2.4,18.8-4.7,34.1-5.1,34.1s-.8-1.3-.8-3c0-5.1-2.1-13.1-3.3-12.7-1.8.6-2.6,6.8-2.8,22.2-.1,7.7-.5,18.5-.9,24s-.5-3.5-.2-20.8c.3-17.8.1-30.7-.4-30.7-2.1.1-5.7,5.4-6.5,9.6-.5,2.5-1.6,10.7-2.4,18.2s-2,16.4-2.5,19.7c-1.9,10.9-3.2,16.7-3.5,16.3-.2-.2-2.9-11.8-6.1-25.8s-6-26.5-6.5-27.7c-1.2-3.2-2.9-2.9-2.9.4,0,2.2-.2,2.5-1,1.3-.7-.9-1-13.9-.8-35.2.1-18.6-.1-34.1-.6-34.5-2.2-2.2-3.5,3.8-9.1,43.1-2.5,17.1-5.1,34.7-5.8,39.1-1.3,7.7-1.3,7.8-2,4a70,70,0,0,1-.7-10c0-6.3-1.7-19.5-2.5-20.4-2.1-2.1-4,8.1-5.3,29.4-1,14.9-1.7,11.8-3.2-14.5-3-54.1-4.1-69-4.9-71.1s-.8-2.3-1.8-.4c-1.6,3-2.2,8.8-3.8,37-.8,14.3-1.8,30-2.2,35l-.6,9-2.1-8.4c-1.2-4.7-2.6-8.6-3.3-8.8-2.1-.7-2.5,7.7-1.3,30.1.6,12,.9,22,.7,22.3-.5.4-.7-1.4-2.7-22.2C4.9,94.6,3.4,88.9.9,99.7c-.5,2.1-.9,44.6-.9,94.5V285H45.9l.4-3.3.4-3.2.1,3.2L47,285H491v-4.6c0-2.7.4-4.3,1-3.9s1,2.4,1,4.6V285l123.3-.2,123.2-.3.5-7c.6-7.8,1.8-7,2.2,1.5l.3,5.5,182.7.3c173.3.2,182.7.1,183.1-1.5s.5-1.7.6-.1,4.9,1.8,85.6,1.8H1280V203.5c0-78.1-.5-93.4-3-97.6-2.4-3.7-3.9,4.7-4.1,22.6-.1,7.7-.5,17.1-.9,21-.6,6.2-.7,5.5-.9-6.5-.2-17.1-1.6-38.8-2.5-39.7-1.1-1.2-2.6,1.2-3.6,5.8l-.9,4.4.4-5c1.6-18.2,1.7-21.5.7-21.5-2,0-4.1,5.6-9.1,24.2-2.7,10.1-5.1,19.2-5.3,20.3-.6,2.6-1.1,1.5-3.8-10.5a97.33,97.33,0,0,0-3.1-11.3c-2.1-3.9-2.9-1.3-2.9,9.8,0,6.3-.4,11.5-.8,11.5-1.7,0-3.3-21.2-2.4-31,1.2-13.2-.4-16.6-3.6-7.5l-1,3-.1-3.5c-.2-4.5-1.1-8-2.2-8-1.3,0-3.6,9.1-5.8,23-1.1,6.9-3,18.9-4.2,26.7s-2.6,14-3,13.5a40.31,40.31,0,0,1-1.7-7.6,40.59,40.59,0,0,0-1.7-7.5c-1.3-1.2-3.2,3-4.5,10.1l-1.4,7.3-.7-7.9c-.4-4.3-1.2-8.2-1.9-8.6-1.7-1-.8-53.8,1.3-73.5,2.3-21.7,2.5-33.1.7-32-1.5.9-4.5,12.4-9.9,38-7.4,35.1-10.9,50.6-11.5,51.3-.3.3-.6-6.9-.6-15.9,0-16.5-.8-21.1-2.8-17.3-1.2,2.3-2.8,10.6-5.2,27.4l-1.8,12.5V74.6c-.1-31-.4-49.2-1.1-49.9s-1.5.9-2.5,4.4c-1.6,5.8-2,8.5-7.1,49.3-3.3,25.6-4.5,32.3-4.5,24.3,0-4.4-1.9-13.9-3-15.1-1.8-1.8-3,7.9-3.9,30.4l-.9,23.5.4-28c.3-17.2.1-28.6-.5-29.5-.9-1.2-1.1-1.2-1.7.3-.3.9-1,1.5-1.5,1.2-2.1-1.3-3.6,6.1-6.4,30.5-1.3,11.5-5.2,34.2-5.4,31.7-.1-.5-1.2-5.7-2.5-11.7l-2.5-10.8,1.9-16.3c3-26.5,3.3-31.6,2.1-32.3-1.5-1-4.4,5.8-6.8,15.6-1,4.3-2,7.8-2.3,7.8s-1.1-2-1.8-4.5c-1.4-5.1-2.9-5.8-3.8-1.8a36.8,36.8,0,0,1-.9,3.8c-.7,1.9-.8-12.3-.5-42.3.2-22.4,0-30.2-.9-30.2-2.5,0-2.9,2.2-11.2,58.5-2.2,15.4-4.3,28.2-4.5,28.5s-.2-5.9.2-13.6c.7-14.1,0-25.4-1.6-25.4-.5,0-1.4,1.7-2.1,3.7a33.27,33.27,0,0,1-2.5,5.8c-.7,1.1-1.7,7.8-2.4,15-2,23.1-2.2,23.6-3.5,6.5-.7-8.5-1.8-26.1-2.4-39-1.2-23.6-2.8-41-3.7-41.9s-2.2,2.1-2.8,6.3c-.6,3.9-2.8,37.9-4.3,64.6-.6,12.7-1,12.9-3.2,2-2.8-13.6-5.1-9.9-5.1,8.2,0,8.5-.4,13.8-1,13.8s-1-2.4-1-5.3c-.1-6.1-2.6-25.6-3.4-26.5-2.5-2.5-4,8.2-5.1,36.8-.4,9.7-1,19.1-1.4,21l-.8,3.5-1.2-5.7a59,59,0,0,0-3.6-10.5,57.8,57.8,0,0,1-4.1-11.8c-1-3.8-2.3-8.4-2.9-10s-2-5.5-3-8.5c-3.9-12.2-5.9-11.3-4.9,2.1.4,5.9.3,8.9-.5,9.3s-1.1-.1-1.1-1.3c0-3.8-4.2-20.6-5.5-22-2.4-2.5-2.9,5.2-1.6,25.4.6,10.4,1.1,23,1.1,27.9,0,8.6-1.7,21.3-3,22.9-.3.4-1.2-2.7-1.9-6.8-1.8-10.8-4.1-9.9-6.4,2.5l-1.3,7.5-.7-8c-.3-4.4-1.1-8.1-1.6-8.3-2-.7-1.3-44.4.9-64.2,2.4-21.6,2.6-32.8.6-31.1-1.7,1.4-4.7,12.4-12.6,46.1-9.3,39.5-8.8,38.3-8.9,20.5-.1-15.3-.8-18.8-2.9-16.2-1.4,1.6-2.9,8.6-5.2,23.7-2,12.8-2.6,10.5-.9-3.5,1.8-15.3,2.7-29.5,2.1-31.7-.5-2-.6-2-1.9-.3-1.1,1.6-1.3-1.3-1.3-19.1,0-21.2-.8-26.6-3-20.9-1.4,3.7-2.9,12.7-7.5,45.5-2,14-3.7,25.6-3.9,25.7a54.56,54.56,0,0,1-1.5-7.2c-1.1-7-2.4-9.6-3.9-8.1-.3.4-1.1,6.8-1.8,14.4l-1.2,13.7.4-15c.4-10.3.1-15.5-.6-16.5-.9-1.1-1.3-1.2-1.7-.3a2.07,2.07,0,0,1-1.8,1.3,2.3,2.3,0,0,0-1.8,1.2c-.9,3-1.5-17.8-.7-26.4,3.4-35.4,4.2-45.9,3.6-47.5s-.8-1.7-2.1.1c-1.6,2.1-4.4,13.9-13.5,56.1-3.5,15.9-6.6,29.3-6.9,29.7s-.7-6.5-.7-15.3c-.2-21.9-2.4-23.8-5.9-5-1.2,7-1.3,5.7-.8-18.5.6-26.5.3-30.5-2-28.6-.9.8-1.2-1.5-1.4-10.5-.1-6.4-.5-11.8-.8-12.1-1-1-2.4,1.9-3.5,7.3-.9,4.4-7.1,51-8.7,65.3-.8,7.6-2,7.3-2.8-.7-.4-3.9-1.3-7.8-2-8.8-1.2-1.6-1.4-1.4-2.3,2.2-.6,2.2-1.4,11.8-1.7,21.3s-1,17.1-1.3,16.8-.8-9.8-1.1-21c-.5-14.4-1.1-20.9-2-22s-1.6-6.9-2.2-16.3c-1-17.3-1.8-23.3-3-23.3-1.9,0-2.8,5.1-3.9,21.1-1.2,18.7-5.8,42.6-7.4,39-1.1-2.5-2.2-2.7-3.4-.6-.6,1.1-1.3-.6-2.6-6-2.7-11.5-5.5-11.3-5.6.5,0,3.6-.4,7.1-.9,7.8-1.4,2.2-2.2-11.7-1.4-25.9.5-11.1.4-13.1-.8-12.7-.8.2-1.9,1.9-2.4,3.6-1.8,5.3-2.5,4.8-2.5-1.6,0-9.8-2.7-7.2-4.9,4.8-.8,4.2-5.8,37.6-6.2,41,0,.3-.8-1.5-1.7-4-2.1-5.3-3.6-5.5-4-.5-.5,5.3-2.8,4.4-4.6-1.9-2.6-8.9-4-8.2-5,2.4-.2,2.5-.2-11,0-30s.8-37.7,1.3-41.5,1.3-13.8,1.7-22c.7-13.5.6-14.9-.8-13.7-2.1,1.7-3.6,7.8-11.8,49-10.2,50.6-9.7,49.2-10,28.7-.1-9.4-.5-17.9-1-19-.7-1.8-.9-1.7-2.3,1.5-1.4,3.4-3.9,18.5-5.3,32.3-.4,3.7-1,6.9-1.3,7.1s-.5-22.2-.3-49.7,0-51.3-.4-52.7l-.6-2.5L806.5,10c-1.7,3.3-2.8,10.8-7,46-2,16.2-3.9,31.7-4.4,34.5l-.8,5-.7-7a50.83,50.83,0,0,0-2.1-10l-1.3-3-1.2,3c-.7,1.8-1.5,13-2,28.5l-.8,25.5.3-29.5c.3-16.2.1-30-.3-30.7-1.2-1.9-5.8,2.9-6.6,6.9-.3,1.8-1.7,13-3.1,24.8-2.9,24.3-4.9,36.2-5.8,34-.3-.8-2.2-9.4-4.2-19-7.7-37.8-8.8-41.7-10.6-38.9a11.43,11.43,0,0,0-1,4.4c-.1,1.6-.6.1-1-3.5s-.6-20.5-.2-37.6c.4-21.3.2-31.7-.5-33-1-1.8-1.1-1.7-2.1.9-1.4,3.7-3.4,15.8-8.1,51.2-2.2,16.5-4.6,32.9-5.2,36.5l-1.2,6.5-1.2-16.1c-.6-8.8-1.5-17.1-1.8-18.2-2.2-6.8-4.1,1.8-5.6,24.8-.6,9.1-1.3,16.6-1.4,16.8s-.6-5.3-1-12-1.1-18.6-1.6-26.3-1.5-24.5-2.1-37.4C720.7,12.9,720.2,9,718.5,9c-1.9,0-2.5,5.5-4.5,41-1.1,19.5-2.3,37.5-2.7,40l-.6,4.5-.7-4a16.85,16.85,0,0,1-.4-5c.2-.5.8-6.8,1.4-13.8,1.7-21.1-1.4-20.4-6.5,1.3-3.6,15.3-3.7,15.4-4.7,8.5-.5-3.3-1.3-6.4-1.8-6.9-1.9-1.9-3,5-4.1,26.3-.7,14-1.7,24.5-2.8,28.8l-1.8,6.8-.6-14.3c-.3-7.8-.9-14.7-1.3-15.4-1-1.6-3.4,1.9-3.4,5.1,0,4.4-1.7.9-4-8.4-2-8.1-2.2-10.4-1.6-23.7,1.5-32.9-2.6-36-6.8-5.2-.9,6.5-1.9,13.5-2.3,15.4l-.6,3.5-.8-4c-3.5-16.4-5.4-16.4-5.4.1,0,6.5.3,17.7.7,24.9.6,13,.6,13-.7,5.6-1.4-7.7-2.7-10.2-4.1-8-.8,1.3-2.1,21.4-2.5,39.4-.3,11.9-.6,8.9-1.8-19.2-.5-11.7-1.3-21.8-1.7-22.4-1-1.7-3.4,1.8-3.4,5,0,1.3-.2,2.2-.5,1.9s-.1-5.2.4-10.8c1.1-10.2.5-14.5-1.6-11.8-1.4,1.7-4.4,11.3-8.8,27.8-2,7.4-3.9,14.4-4.2,15.5-.4,1.4-1.2-.3-2.3-5.5-4.8-21.8-8.8-24.3-7.4-4.8.9,12.5-.9,13.1-2.5.9a113.48,113.48,0,0,1-.5-21.5c.7-13.6-.2-16-3.4-8.9l-1.7,3.8-.3-5.3c-.3-5.5-1.4-6.6-3.2-3.2-.6,1.2-3.3,15.4-6,31.6s-5,29.8-5.2,30-.9-3.4-1.7-7.9-1.6-8.6-2.1-9.1c-1.3-1.3-2.9,2.7-4.3,11.1l-1.4,7.8-.6-7.9c-.4-4.3-1.2-8.5-1.8-9.2-1.3-1.6-.5-59.5,1-71.9.6-4.4,1.3-13.6,1.7-20.4.6-10.3.5-12.3-.7-11.9-1.9.6-4.2,8.7-9.4,33.7-2.5,11.9-6.3,29.2-8.4,38.6l-3.9,17-.1-15.5c-.1-15.4-.6-20-2.1-20s-3.1,6.6-5.6,23.9c-1.4,9.7-2.7,17.7-2.9,17.9s-.1-21.4.2-48c.6-48.3.2-55.3-2.5-50.1-1.4,2.5-3.2,14.5-7.2,46-1.7,13.4-3.4,26.2-3.9,28.5l-.7,4.3-.8-5C543.5,99.1,542,94,541,94c-1.6,0-2.3,6.5-3.1,29.5l-.7,23,.3-27c.3-25.7-.3-33.5-2-29.3a2.7,2.7,0,0,1-2,1.8c-2,0-3.2,5.1-5,20.5-.9,7.7-2.5,19.3-3.6,25.9s-1.9,12.2-1.9,12.7c0,2.1-1.8.6-2.3-1.9-2.4-13.4-10.5-48-11.8-50.4-1.6-3-2.9-1.1-3.1,4.5-.1,4.5-.2,4.1-.9-2.8-.4-4.4-.5-21.3-.2-37.6.4-22,.3-29.8-.6-30.3-2.2-1.4-3.9,5.9-8.3,35.9-2.6,18-4.4,28.3-4.6,25.7-.4-5.2-1.8-5.4-4-.5l-1.6,3.8-.6-4.7c-1.7-13.9-4.7-2.6-6.6,25.7l-.8,11-.7-8.5c-.4-4.7-1.4-21.1-2.3-36.5-2.9-50.8-4-59.3-6.4-51.3-1.4,4.3-1.9,10.7-3.7,42.8-.8,14.6-1.8,28.5-2.1,31l-.7,4.5-1.6-6.5c-1.8-7.6-1.9-28.6-.2-42,.6-4.7,1.4-14.6,1.8-22,.6-12.1.5-13.4-.9-12.2-2.1,1.7-3.7,8-10.7,41.2-3.3,15.7-7,33.2-8.3,39l-2.3,10.5-.5-17.2c-.3-9.4-.8-17.4-1.1-17.7-1.5-1.6-3.2,3.2-5,14.1-1,6.5-1.9,13.1-1.9,14.6s-.4,2.6-1,2.2-1-16.3-1-44.3c0-24-.4-44.3-.9-45.1-2.3-3.6-3.8,3.9-8.1,39.9-3.4,28.9-3.7,30.3-5,29.5-.6-.3-1-.1-1,.6,0,2.2-1.8-.4-2.2-3-.4-3-2.3-3.8-3.3-1.4-.4,1-1,12.7-1.3,26s-.8,24.1-1.2,23.8-1-11.6-1.3-25.2c-.5-25.2-1.2-30.8-3.5-28.1-.6.8-1.6,3.9-2.2,6.9l-.9,5.4.5-5.5c1.4-16.9,1.7-25,.6-25-2,0-3.3,3.9-9.2,27.4-3.9,15.8-5.9,22.3-6.3,20.6-5.5-24.1-6-25.6-7.8-24.4-.6.4-.9,5-.8,12,.2,10.8-.4,15.4-1.5,10.3a103.11,103.11,0,0,1-1.5-30.3c1.5-15-.2-20.4-3.3-10.3l-1.3,4.2-.5-5.9c-.6-7.2-2.5-8.4-4-2.6-1,3.5-7.8,47.8-9.7,62.3-.3,2.6-.7,4.6-.9,4.4a49,49,0,0,1-1.4-7.2c-1.4-9.6-1.9-11.5-2.9-11.5-1.2,0-2.9,4.7-3.7,10.5-1.1,8.1-2.3,8.8-2.4,1.3,0-3.7-.4-7.8-.9-9.1-1.7-4.4-1.6-59.6.2-78.7,2.7-29.5,3.1-38,1.8-38-2.6,0-2.9,1.2-15.7,66.5-3.1,15.9-5.9,29.3-6.3,29.7s-.4-3.9-.3-9.5c.5-13.5-.6-26.9-2.1-26.4-1.8.6-3.5,8.4-6.2,28.2l-2.5,18,.5-51c.4-49.6.1-59.5-1.6-59.5-2,0-3,7.2-10,67.5-1.2,10.4-2.5,19.4-2.9,19.8s-1-2.3-1.4-6.2a48,48,0,0,0-1.7-9.8c-2.2-5.9-3.2.7-4.1,27.7-.5,14.6-1,26.9-1.3,27.5s-.2-12.6.2-29.2.3-30.8,0-31.7c-.5-1.3-1-1.2-3.2.8-3,2.8-3.8,6.7-6,28.3-1.6,15.3-5.2,39.3-6.1,40.2-.2.2-.4.1-.4-.4s-1.8-9.9-4.1-20.9l-4.1-20.1,1.1-13c1.3-15.7,1.4-23.5.2-23.5s-3.7,6.4-4.6,11.4c-.4,2.1-1.4,4-2.1,4.3s-1.4,1.6-1.4,3-.4,2.1-1,1.8-1-14.3-1-38.6c0-22.5-.4-37.9-.9-37.9-2.1,0-3.5,8.1-10.2,58.5-1.7,13.2-3.7,27.8-4.3,32.5l-1.2,8.5-.7-4.9a91.17,91.17,0,0,1-.7-11c-.1-8.2-1.8-20.8-3-22-.5-.5-1-2.5-1-4.2s-.4-3.6-1-3.9c-1.4-.9-2.9,2.9-4.4,11.5-.9,5.4-1.5,6.8-1.9,5-.3-1.4-1.2-17.1-2.1-35-1.6-32.4-2-37-3.7-37C219.4,0,219,.2,219,.4ZM397.7,104.2c-.3.8-.6.5-.6-.6s.2-1.7.5-1.3A2,2,0,0,1,397.7,104.2Zm358,2c-.3.7-.5.2-.5-1.2s.2-1.9.5-1.3A5.28,5.28,0,0,1,755.7,106.2Zm-695,5.5c-.3,1-.5.2-.5-1.7s.2-2.7.5-1.8A10.28,10.28,0,0,1,60.7,111.7Zm696,5.5c-.2,1.3-.4.5-.4-1.7s.1-3.2.4-2.3A13.39,13.39,0,0,1,756.7,117.2Zm507-1c-.3.8-.6.5-.6-.6s.2-1.7.5-1.3A2,2,0,0,1,1263.7,116.2ZM177,118.4c0,1.3.2,4.5.5,7.2.4,4.3.4,4.5-.4,1.4-1.8-7.2-2.2-11-1.1-11C176.5,116,177,117.1,177,118.4Zm470.7,2.8c-.3.7-.5.2-.5-1.2s.2-1.9.5-1.3A5.28,5.28,0,0,1,647.7,121.2Zm-586,10.5c-.3,1-.5.4-.5-1.2s.2-2.4.5-1.8A7.56,7.56,0,0,1,61.7,131.7Zm696,1.5c-.3.7-.5.2-.5-1.2s.2-1.9.5-1.3A5.28,5.28,0,0,1,757.7,133.2Zm-250,3c-.2,1.3-.4.5-.4-1.7s.1-3.2.4-2.3A13.39,13.39,0,0,1,507.7,136.2Zm-445,5.5c-.3,1-.5.2-.5-1.7s.2-2.7.5-1.8A10.28,10.28,0,0,1,62.7,141.7Zm446,3.5c-.3.7-.5.2-.5-1.2s.2-1.9.5-1.3A5.28,5.28,0,0,1,508.7,145.2Zm-131,0c-.3.8-.6.5-.6-.6s.2-1.7.5-1.3A2,2,0,0,1,377.7,145.2Zm866,9c-.3.8-.6.5-.6-.6s.2-1.7.5-1.3A2,2,0,0,1,1243.7,154.2Z"/></svg>