<svg id="Layer_1" data-name="Layer 1" xmlns="http://www.w3.org/2000/svg" viewBox="0 0 454 640"><title>plants</title><path d="M213.2,14a7.62,7.62,0,0,0-2.2,4.6c0,1.4,2.4,8,5.4,14.7s6.3,14.4,7.5,17.1,1.9,5.1,1.7,5.3-4.4-2.4-9.3-6c-13.7-9.9-14.8-10.3-18.8-6.2-3.2,3.1-3.2,6.5,0,9.5,1.3,1.3,10.9,8.4,21.2,15.9l18.7,13.6,2.8,7.4c1.6,4.1,2.6,7.6,2.4,7.8s-4.9-1.4-10.3-3.8-11.1-4.2-12.7-4.2c-5.5-.1-8.7,7.2-4.8,11.1,1,1,9.6,5.1,19,9.2l17.2,7.3,2.4,7.6c2.8,9.1,3.8,13.1,3.2,13.1-.2,0-3.8-4.2-8-9.4-8.5-10.4-11.3-12-15.5-8.8-3.2,2.3-3.8,6.5-1.5,10,1,1.5,7.8,10,15.1,19s13.8,17.4,14.3,18.6,1.2,7.9,1.6,14.6c.6,10.4.5,12.2-.7,11.4-.8-.4-5.8-4.3-11.2-8.6-9.7-7.7-12.1-8.7-15.7-6.8-2.3,1.2-3.9,5.9-3,8.6.5,1.2,7.8,7.6,16.3,14.3,8.9,7,15.8,13.2,16.1,14.4s.6,10.2.6,20.1v17.8l-8.1-10.3C247.7,231,245.7,229,242.6,229s-6.6,4-6.6,7.3c0,2.7,2.6,6.3,19.7,27.9L265,276v18c0,9.9-.3,18-.6,18s-7.3-4-15.3-8.9-15.3-9.1-16.1-9.2a7.08,7.08,0,0,0-8,4.2c-1.1,2.7-1.1,3.3.7,5.7,1.1,1.5,9.7,7.4,19.1,13.2s17.6,11,18.2,11.6c1,1,.5,16.5-1.6,51-.6,9.5-.5,10.3,1.5,12.3a6.7,6.7,0,0,0,9.6,0c2.4-2.5,3-8.1,4.6-40.8l1.2-25.4,10-17.6c10.6-18.8,11.6-22.1,7.6-25.3-4.5-3.8-8.5-2-13.1,5.9l-3.3,5.8-.3-9.6-.3-9.7L290.5,252c6.3-12.7,11.5-24,11.5-25.1,0-2.7-4.4-6.9-7.3-6.9-3.3,0-5.7,3-11,13.5l-4.6,9V227.3L279,212l13.5-18.2c8.3-11.2,13.5-19.1,13.5-20.5,0-2.8-4.2-7.3-6.7-7.3-3.2,0-5.9,2.7-14,13.7l-7.8,10.8-.9-11.1-.9-11.2,3.8-7.8c7.2-15,16.4-35.2,16.6-36.5a7.18,7.18,0,0,0-3.9-7.8c-5.3-2.2-7.4-.2-14,13.7l-5.9,12.6-1.8-7.9a135.84,135.84,0,0,0-3.5-13.2l-1.8-5.4L273.6,94c4.6-12,8.4-23.2,8.4-24.8,0-3.6-2.8-6.2-6.7-6.2-4.2,0-5.8,2.2-10.8,15.1-2.3,6.3-4.8,12.7-5.5,14.4l-1.2,3-3.3-8.2L251.2,79l3.9-21.7c2.1-12,3.9-23.4,3.9-25.4,0-4.4-2.5-6.9-6.8-6.9-4.9,0-6.6,3.2-8.7,16.4-1,6.4-2.2,11.6-2.5,11.6s-4.2-8.2-8.5-18.3-8.9-19.2-10.2-20.5C219.5,11.5,216.1,11.4,213.2,14Z"/><path d="M100.5,102.1c-4.5,2.2-9.8,14-12.5,27.7l-1.2,6.1-5-9.9c-2.9-5.9-6.9-12-9.8-15-4.1-4.5-5.2-5.1-8.1-4.8s-3.7,1-5.4,4.3c-3.2,6.3-2.8,27.7.8,45.1,6.4,31,19.3,61.4,29.3,69.3,3.6,2.8,11.6,2.9,14.4.1,8.7-8.7,14.3-34.8,14.3-67.5,0-28.7-3.5-46.8-10.4-53.7C103.9,100.8,103.5,100.7,100.5,102.1Z"/><path d="M402.3,108.4c-1.4,1.7-2.9,8.2-5.3,22.1-3.2,19.1-3.5,19.9-6.9,24.1-2,2.3-3.9,4.3-4.3,4.3s-.8-5.5-.8-12.4c0-11.2-.2-12.7-2-14.5a6.79,6.79,0,0,0-10.3.2c-1.6,1.9-1.8,4.2-1.6,22.8l.1,20.7-5.3,7.7c-6,8.7-6.5,8.5-6.9-2.4-.3-7.6-1.1-10-4.2-12.3-2.3-1.7-3.1-1.8-5.6-.8-5,2.1-5.2,3.8-3.2,26.6l1.8,20.7-2.8,6.4c-1.6,3.5-3.1,6.4-3.4,6.4s-1.8-4.5-3.5-10c-2.4-7.5-3.8-10.4-5.6-11.6-3.2-2.1-7-1.2-9.2,2.3-1.9,2.9-1.5,4.9,6.1,29.9l3.3,11.1L329,259l-3.7,9.3-.6-3.9a43.89,43.89,0,0,1-.7-6.5c0-4.1-3.6-7.9-7.4-7.9-4.2,0-6.6,2.6-6.6,7.3,0,1.9.9,12,2,22.3,1.9,17.7,1.9,19.1.4,23.9-2.2,6.8-3,7.3-3.8,2.6-1-6.5-7.4-9.3-11.6-5.1-2.6,2.6-2.5,5.6.5,23.9l2.6,15-4.5,14.3c-7.2,23-10.6,35.4-10.6,38.6,0,5.5,7.7,8.4,11.4,4.4.9-1.1,2.8-5.9,4.2-10.8,4.8-16.9,11.5-37.9,12.2-38.5.4-.4,8.6-2.2,18.2-4,18.8-3.6,22-5.1,22-10.4,0-3.3-3.3-6.5-6.9-6.5a136.82,136.82,0,0,0-15.1,2.5c-6.8,1.4-12.5,2.3-12.8,2s1.6-6.2,4-13.2l4.5-12.8,16.4-10.2c16.8-10.6,19.9-13.1,19.9-16.5,0-2.6-4.4-6.8-7.3-6.8-1.2,0-6.3,2.5-11.1,5.5s-9,5.4-9.2,5.2,2-6.3,4.9-13.7l5.3-13.4,15.9-5.3c8.7-2.9,16.6-6,17.6-6.9,2.3-2.1,2.4-6.2.3-9.2s-6.1-2.8-16.9.8c-4.9,1.6-8.9,2.9-9.1,2.7a101.35,101.35,0,0,1,4.3-9.7l4.4-9.5L379.8,208c19.5-11.7,21.8-14,19.2-18.7a10.11,10.11,0,0,0-4.4-3.8c-2.9-1-2.5-1.1-12.8,4.9-2.7,1.5-4.8,2.4-4.8,1.9s1.7-2.8,3.8-5.2l3.9-4.5,11.9-.7c6.5-.4,13.8-.8,16.2-.8,5.3-.1,8.2-2.7,8.2-7.6,0-5.5-3-6.9-14-6.3-5,.3-9,.3-9,.1,0-.8,15.8-18.2,32.3-35.6,12.3-13,15-16.4,15-18.8a6.68,6.68,0,0,0-6.7-6.9c-2.7,0-4.7,1.7-14.7,12-6.4,6.6-11.8,12-12.1,12s.1-3,.8-6.8c1.9-9.5,1.7-12.9-.6-15.2A6.49,6.49,0,0,0,402.3,108.4Z"/><path d="M131.7,175.1c-4.3,2.5-5.2,6.6-5.1,22.4.1,17.5,2.8,32.6,9.6,53.4,7,21.7,17.7,41.3,24.2,44.3,8.8,4,13.1-8.7,10.7-31.7-3.9-36.1-20.4-79.6-33.4-87.5C134,173.7,134.1,173.7,131.7,175.1Z"/><path d="M4,206c-8.2,2-2.5,18,13.3,37.5,8.7,10.8,27.2,28.6,38.2,36.8,15.8,11.8,31.7,18.3,36,14.7,2.6-2.1,1.8-8.9-1.9-16.5-5-10.6-14.5-22.6-29-37C37.2,218.2,13.9,203.6,4,206Z"/><path d="M97.6,245.9c-9.9,11,14.3,72.3,39.2,99.2,14.6,15.9,22.2,16,22.2.4C159,310.4,110.5,231.7,97.6,245.9Z"/><path d="M189.8,267.7c-6.8,7.2-13.5,26.2-17.5,49.9-1.3,8.3-1.8,16.2-1.8,32.9,0,20.9.2,22.4,2.5,28.9,1.6,4.4,3.4,7.6,5.1,8.9,2.4,1.7,2.9,1.8,5.5.4,6.8-3.5,14.2-21.6,19.1-46.7,2.3-12,2.6-16,2.7-36,.1-18.6-.2-23.6-1.7-28.9C200.4,265.2,195.4,261.8,189.8,267.7Z"/><path d="M57.6,305.9c-3.9,4.3,1,16.8,12.6,32.2,3.8,4.9,6.8,9.1,6.8,9.3s-1.5,0-3.2-.5C67.7,345.1,52.5,343,46,343c-8.4,0-13.6,1.5-15.5,4.4-2.2,3.3-.8,6.1,5.6,12.1,19.4,18.2,72.2,36.4,102.1,35.2,9.7-.4,11.2-1.5,10.6-7.9-1.9-19.5-45-65.2-74.5-79C65.7,303.7,60.1,303.1,57.6,305.9Z"/><path d="M118,406.6c-7.7,3.3-12.9,11.1-13.7,20.3-.4,4.7,1.6,33.4,10.2,144.4,1.4,17.6,7.1,30.5,18.4,41.8,5.9,5.9,9.5,8.5,16.1,11.7,15.8,7.7,16.3,7.7,71,7.7,53.7,0,55.2-.2,68.9-6.7,9.3-4.4,19.6-14.9,24.4-24.8,5.1-10.4,6.7-17.3,7.7-33,.8-12.4,4.2-56.4,9-116,2-26.3,1.7-31.1-2.8-37.4a22.44,22.44,0,0,0-7.7-6.5l-4.9-2.6-96.6-.2C133.4,405.1,121.1,405.3,118,406.6Z"/></svg>