<?xml version="1.0" encoding="UTF-8" standalone="no"?>
<!-- Created with Inkscape (http://www.inkscape.org/) -->
<svg xmlns:inkscape="http://www.inkscape.org/namespaces/inkscape" xmlns:rdf="http://www.w3.org/1999/02/22-rdf-syntax-ns#" xmlns="http://www.w3.org/2000/svg" xmlns:xlink="http://www.w3.org/1999/xlink" xmlns:ns1="http://sozi.baierouge.fr" xmlns:cc="http://creativecommons.org/ns#" xmlns:sodipodi="http://sodipodi.sourceforge.net/DTD/sodipodi-0.dtd" xmlns:dc="http://purl.org/dc/elements/1.1/" id="svg2" xml:space="preserve" viewBox="0 0 61.15 54.618" version="1.1" inkscape:version="0.91 r13725">
  <defs id="defs6">
    <radialGradient id="radialGradient24" gradientUnits="userSpaceOnUse" cy="7.25" cx="8.8501" gradientTransform="matrix(.8 0 0 .69192 -.0000012939 32.863)" r="46.925">
      <stop id="stop26" style="stop-color:#de7500" offset="0"/>
      <stop id="stop28" style="stop-color:#1f1a00" offset="1"/>
    </radialGradient>
    <radialGradient id="radialGradient42" gradientUnits="userSpaceOnUse" cy="-48.5" cx="39.05" gradientTransform="matrix(.8 0 0 1.1323 -.0000012939 137.4)" r="62.65">
      <stop id="stop44" style="stop-color:#de7500" offset="0"/>
      <stop id="stop46" style="stop-color:#1f1a00" offset="1"/>
    </radialGradient>
    <radialGradient id="radialGradient60" gradientUnits="userSpaceOnUse" cy="8.7002" cx="32.9" gradientTransform="matrix(.8 0 0 1.2963 -.0000012939 25.442)" r="102.21">
      <stop id="stop62" style="stop-color:#eadfbf" offset="0"/>
      <stop id="stop64" style="stop-color:#cdb067" offset="1"/>
    </radialGradient>
    <radialGradient id="radialGradient80" gradientUnits="userSpaceOnUse" cy="-13.687" cx="22.647" gradientTransform="matrix(.8 -.00304 .00264 .68176 .077839 63.961)" r="68.601">
      <stop id="stop82" style="stop-color:#de7500" offset="0"/>
      <stop id="stop84" style="stop-color:#1f1a00" offset="1"/>
    </radialGradient>
  </defs>
  <g id="g10" transform="matrix(1.25 0 0 -1.25 0 54.618)">
    <g id="g12">
      <g id="g14">
        <g id="g16">
          <g id="g22">
            <path id="path30" style="fill-rule:evenodd;fill:url(#radialGradient24)" d="m4.641 11.479c0.398-2.027 0.519-4.546 0.359-7.558-0.078-1.52-0.199-2.828-0.359-3.922h-4.641c0.48 1.227 0.945 2.613 1.398 4.16 0.934 3.094 1.403 5.399 1.403 6.922 0 1.492-0.149 3.145-0.442 4.957l-0.48 2.281 1.043-1.64c0.773-1.465 1.344-3.2 1.719-5.2z" inkscape:connector-curvature="0"/>
          </g>
        </g>
      </g>
      <g id="g32">
        <g id="g34">
          <g id="g40">
            <path id="path48" style="fill-rule:evenodd;fill:url(#radialGradient42)" d="m23.199 39.839h1.922c0.133-0.481 0.211-1.266 0.238-2.36 0.082-2.187-0.121-4.824-0.597-7.918-0.485-3.148-1.524-5.976-3.121-8.48-0.934-1.469-2.453-3.535-4.563-6.199-1.277-1.817-2.144-4.84-2.598-9.082-0.242-2.106-0.347-4.039-0.32-5.801h-3.601c0.109 0.961 0.281 2.133 0.519 3.52 0.481 2.718 1.082 5.066 1.801 7.039 0.933 2.562 2.266 5.027 4 7.402 2.16 2.906 3.629 5.133 4.402 6.68 1.278 2.507 1.985 5.785 2.117 9.839 0.055 2.028-0.011 3.813-0.199 5.36z" inkscape:connector-curvature="0"/>
          </g>
        </g>
      </g>
      <g id="g50">
        <g id="g52">
          <g id="g58">
            <path id="path66" style="fill-rule:evenodd;fill:url(#radialGradient60)" d="m34.52 35.159c1.625-1.066 1.972-2.094 1.039-3.078-0.293-0.32-0.774-0.547-1.438-0.68-0.695-0.16-1.176-0.347-1.441-0.562-0.242-0.211-0.469-0.746-0.68-1.598-0.16-0.668-0.562-1.043-1.199-1.121-0.801-0.078-1.735 0.441-2.801 1.559-0.934 0.961-1.973 1.136-3.121 0.519-0.934-0.531-1.719-0.703-2.359-0.519-0.481 0.109-1.2 0.562-2.161 1.363-0.238 0.184-1.894 0.277-4.961 0.277-2.343 0.028-3.171 0.856-2.48 2.481 0.137 0.32 0.602 0.761 1.402 1.32 0.719 0.481 1.094 0.879 1.118 1.199 0.027 0.242-0.172 0.563-0.598 0.961-0.426 0.375-0.586 0.735-0.481 1.078 0.079 0.297 0.348 0.59 0.801 0.883 0.344 0.238 0.707 0.426 1.078 0.559 0.215 0.082 0.735 0.16 1.563 0.242 0.64 0.051 1.133 0.199 1.48 0.437 0.344 0.215 0.719 0.602 1.117 1.161 0.215 0.32 0.497 0.773 0.84 1.359 0.508 0.723 1.282 0.883 2.321 0.48 0.586-0.238 1.402-0.613 2.441-1.121l0.961-0.16c0.504-0.023 1.316-0.012 2.437 0.043 0.934-0.055 1.629-0.293 2.082-0.722 0.481-0.477 0.598-1.106 0.36-1.879-0.293-1.067-0.426-1.719-0.399-1.961 0.051-0.399 1.079-1.239 3.079-2.52z" inkscape:connector-curvature="0"/>
          </g>
        </g>
      </g>
      <path id="path68" style="fill-rule:evenodd;fill:#489eb3" d="m25.922 40.882c1.012-0.59 1.719-0.934 2.117-1.043 0.852-0.184 1.426-0.438 1.719-0.758 0.375-0.375 0.496-0.988 0.363-1.84-0.109-0.695-0.055-1.187 0.156-1.48 0.133-0.188 0.453-0.586 0.961-1.2 0.375-0.585 0.426-1.109 0.16-1.562-0.265-0.453-0.746-0.652-1.441-0.598-0.531 0.051-1.117 0.332-1.758 0.84-0.722 0.586-1.265 0.934-1.64 1.039-0.668 0.16-1.266-0.054-1.801-0.64-0.613-0.692-1.106-1.067-1.481-1.121-0.453-0.079-1.039 0.109-1.757 0.562-0.747 0.453-1.348 0.652-1.801 0.598-0.961-0.184-1.68-0.254-2.16-0.2-0.829 0.055-1.028 0.547-0.602 1.481 0.055 0.133 0.297 0.359 0.723 0.68 0.371 0.265 0.574 0.519 0.597 0.761 0 0.266-0.226 0.575-0.679 0.918-0.16 0.133-0.278 0.266-0.36 0.403-0.293 0.797-0.039 1.226 0.762 1.277 0.453 0 1.133-0.039 2.039-0.117 0.531 0.051 1.133 0.558 1.801 1.519 0.637 0.934 1.277 1.371 1.918 1.321 0.535-0.028 1.254-0.309 2.164-0.84z" inkscape:connector-curvature="0"/>
      <g id="g70">
        <g id="g72">
          <g id="g78">
            <path id="path86" style="fill-rule:evenodd;fill:url(#radialGradient80)" d="m12.238 8.64c0-2.801 0.43-5.68 1.282-8.641h-5.598c0 1.441 0.078 3.148 0.238 5.121 0.32 3.918 0.867 7.184 1.641 9.801 0.773 2.613 1.734 5.133 2.879 7.558l1.48 2.879 0.762 1c0.398 0.082 0.344-1.293-0.16-4.121-0.242-1.277-0.817-3.879-1.723-7.797-0.504-2.269-0.773-4.199-0.801-5.8z" inkscape:connector-curvature="0"/>
          </g>
        </g>
      </g>
      <path id="path88" style="fill-rule:evenodd;fill:#281c23" d="m37.238 9.319c0.16 3.309-0.316 7.028-1.437 11.16l-1.68 5.2c4.344-6.078 7.078-13.293 8.199-21.637 0.559 3.437 1.825 6.25 3.801 8.437 0.984 1.067 1.918 1.801 2.801 2.2-1.309-1.598-2.16-4.078-2.563-7.438-0.293-2.347-0.347-4.707-0.16-7.082h-13.121c0.563 1.922 0.574 3.961 0.043 6.121-0.453 1.785-1.242 3.531-2.359 5.239 2.293-1.52 3.89-3.504 4.8-5.961-0.214 1.281-0.374 2.242-0.484 2.882-0.183 1.172-0.449 2.149-0.797 2.918-1.336 3.016-2.707 5.149-4.121 6.403 1.735-0.907 3.199-2.11 4.402-3.602 0.879-1.144 1.731-2.652 2.559-4.519l0.117-0.321z" inkscape:connector-curvature="0"/>
    </g>
  </g>
<metadata><rdf:RDF><cc:Work><dc:format>image/svg+xml</dc:format><dc:type rdf:resource="http://purl.org/dc/dcmitype/StillImage"/><cc:license rdf:resource="http://creativecommons.org/licenses/publicdomain/"/><dc:publisher><cc:Agent rdf:about="http://openclipart.org/"><dc:title>Openclipart</dc:title></cc:Agent></dc:publisher></cc:Work><cc:License rdf:about="http://creativecommons.org/licenses/publicdomain/"><cc:permits rdf:resource="http://creativecommons.org/ns#Reproduction"/><cc:permits rdf:resource="http://creativecommons.org/ns#Distribution"/><cc:permits rdf:resource="http://creativecommons.org/ns#DerivativeWorks"/></cc:License></rdf:RDF></metadata></svg>
