<?xml version="1.0" encoding="utf-8"?>
<!-- Generator: Adobe Illustrator 22.1.0, SVG Export Plug-In . SVG Version: 6.00 Build 0)  -->
<svg version="1.1"
	 id="svg2985" inkscape:export-filename="/Users/GB/Desktop/AHIS Design/School Rules/rules-poster.png" inkscape:export-xdpi="300" inkscape:export-ydpi="300" inkscape:version="0.92.1 r15371" sodipodi:docname="naturecartoonscene.svg" xmlns:cc="http://creativecommons.org/ns#" xmlns:dc="http://purl.org/dc/elements/1.1/" xmlns:inkscape="http://www.inkscape.org/namespaces/inkscape" xmlns:rdf="http://www.w3.org/1999/02/22-rdf-syntax-ns#" xmlns:sodipodi="http://sodipodi.sourceforge.net/DTD/sodipodi-0.dtd" xmlns:svg="http://www.w3.org/2000/svg"
	 xmlns="http://www.w3.org/2000/svg" xmlns:xlink="http://www.w3.org/1999/xlink" x="0px" y="0px" viewBox="0 0 1129.9 1506.2"
	 style="enable-background:new 0 0 1129.9 1506.2;" xml:space="preserve">
<style type="text/css">
	.st0{fill:#A152A1;stroke:#A152A1;stroke-width:0.5;}
	.st1{fill:#A052A1;stroke:#A052A1;stroke-width:0.5;}
	.st2{fill:#06BAB9;stroke:#06BAB9;stroke-width:0.5;}
	.st3{fill:#FEFFFF;stroke:#FEFFFF;stroke-width:0.5;}
	.st4{fill:#FEFEFF;stroke:#FEFEFF;stroke-width:0.5;}
	.st5{fill:#548EAF;stroke:#548EAF;stroke-width:0.5;}
	.st6{fill:#FEFFFE;stroke:#FEFFFE;stroke-width:0.5;}
	.st7{fill:#33ABAC;stroke:#33ABAC;stroke-width:0.5;}
	.st8{fill:#38AFB0;stroke:#38AFB0;stroke-width:0.5;}
	.st9{fill:#2D7294;stroke:#2D7294;stroke-width:0.5;}
	.st10{fill:#2D7395;stroke:#2D7395;stroke-width:0.5;}
	.st11{fill:#E04086;stroke:#E04086;stroke-width:0.5;}
	.st12{fill:#FFFDFF;stroke:#FFFDFF;stroke-width:0.5;}
	.st13{fill:#FFFFFF;stroke:#FFFFFF;stroke-width:0.5;}
	.st14{fill:#54C4C6;stroke:#54C4C6;stroke-width:0.5;}
	.st15{fill:#379C56;}
	.st16{fill:#4FAF75;}
	.st17{fill:#A75FA8;stroke:#A75FA8;stroke-width:0.5;}
	.st18{fill:#EF8142;stroke:#EF8142;stroke-width:0.5;}
	.st19{fill:#175971;stroke:#175971;stroke-width:0.5;}
	.st20{fill:#49BE6E;}
	.st21{fill:#0C7771;}
	.st22{fill:#A862AA;stroke:#A862AA;stroke-width:0.5;}
	.st23{fill:#FFFEFE;stroke:#FFFEFE;stroke-width:0.5;}
	.st24{fill:#F44F22;stroke:#F44F22;stroke-width:0.5;}
	.st25{fill:#FFFEFD;stroke:#FFFEFD;stroke-width:0.5;}
	.st26{fill:#F9C811;stroke:#F9C811;stroke-width:0.5;}
	.st27{fill:#D47056;stroke:#D47056;stroke-width:0.5;}
	.st28{fill:#294772;stroke:#294772;stroke-width:0.5;}
	.st29{fill:#FBCD05;stroke:#FBCD05;stroke-width:0.5;}
	.st30{fill:#637B25;stroke:#637B25;stroke-width:0.5;}
	.st31{fill:#A659A9;stroke:#A659A9;stroke-width:0.5;}
	.st32{fill:#094C76;stroke:#094C76;stroke-width:0.5;}
	.st33{fill:#094B76;stroke:#094B76;stroke-width:0.5;}
	.st34{fill:#30475D;stroke:#30475D;stroke-width:0.5;}
	.st35{fill:#CA83BB;stroke:#CA83BB;stroke-width:0.5;}
	.st36{fill:#DCCD3B;stroke:#DCCD3B;stroke-width:0.5;}
	.st37{fill:#D4C642;stroke:#D4C642;stroke-width:0.5;}
	.st38{fill:#FAD105;stroke:#FAD105;stroke-width:0.5;}
	.st39{fill:#375A3D;stroke:#375A3D;stroke-width:0.5;}
	.st40{fill:#DAA168;stroke:#DAA168;stroke-width:0.5;}
	.st41{fill:#E7D353;stroke:#E7D353;stroke-width:0.5;}
	.st42{fill:#345836;stroke:#345836;stroke-width:0.5;}
	.st43{fill:#DAC744;stroke:#DAC744;stroke-width:0.5;}
	.st44{fill:#3C5D41;stroke:#3C5D41;stroke-width:0.5;}
	.st45{fill:#CEC43F;stroke:#CEC43F;stroke-width:0.5;}
	.st46{fill:#D9CD51;stroke:#D9CD51;stroke-width:0.5;}
	.st47{fill:#CCC33F;stroke:#CCC33F;stroke-width:0.5;}
	.st48{fill:#355A40;stroke:#355A40;stroke-width:0.5;}
	.st49{fill:#CCC346;stroke:#CCC346;stroke-width:0.5;}
	.st50{fill:#0A4B76;stroke:#0A4B76;stroke-width:0.5;}
	.st51{fill:#C6BF40;stroke:#C6BF40;stroke-width:0.5;}
	.st52{fill:#BD535B;stroke:#FAC811;stroke-width:3.75;}
	.st53{fill:#9B2C92;stroke:#9B2C92;stroke-width:0.5;}
	.st54{fill:#992D91;stroke:#992D91;stroke-width:0.5;}
	.st55{fill:#EE5476;stroke:#EE5476;stroke-width:0.5;}
	.st56{fill:#9A2C91;stroke:#9A2C91;stroke-width:0.5;}
	.st57{fill:#B93578;stroke:#B93578;stroke-width:0.5;}
	.st58{fill:#9B2C91;stroke:#9B2C91;stroke-width:0.5;}
	.st59{fill:#992D90;stroke:#992D90;stroke-width:0.5;}
	.st60{fill:#992E90;stroke:#992E90;stroke-width:0.5;}
	.st61{fill:#982E8F;stroke:#982E8F;stroke-width:0.5;}
	.st62{fill:#992E91;stroke:#992E91;stroke-width:0.5;}
</style>
<sodipodi:namedview  bordercolor="#666666" borderopacity="1" fit-margin-bottom="0" fit-margin-left="0" fit-margin-right="0" fit-margin-top="0" gridtolerance="10" guidetolerance="10" id="namedview2987" inkscape:current-layer="g2995" inkscape:cx="-119.21297" inkscape:cy="811.11287" inkscape:document-units="mm" inkscape:pageopacity="0" inkscape:pageshadow="2" inkscape:window-height="706" inkscape:window-maximized="1" inkscape:window-width="1366" inkscape:window-x="-8" inkscape:window-y="-8" inkscape:zoom="0.11367874" objecttolerance="10" pagecolor="#ffffff" showgrid="false">
	</sodipodi:namedview>
<g id="g2995" transform="scale(0.1)">
	<g id="g5591" transform="matrix(7.4999998,0,0,-7.4999998,2641.8301,14093.132)">
		<path id="path5531" inkscape:connector-curvature="0" class="st0" d="M811.8,829c3.7,1.9,7.1-1.7,9.4-4.2c8-9.5,13.2-20.9,18.5-32
			c9.2-20.3,17.2-41.1,24.3-62.2c-9.8-1.3-19.9-1.9-29.3-5.1c-6-1.9-11.8-4.3-17.5-6.8c-3.6,17.9-6.3,36-8.4,54.1
			c-1.5,14.7-3,29.5-1.5,44.3C807.8,821.3,808.2,826.2,811.8,829z"/>
		<path id="path5533" inkscape:connector-curvature="0" class="st0" d="M917.6,822.9c2.4,2.7,5.1,6,8.9,6.3c4.6-0.8,5.2-6.2,6.1-9.9
			c1.9-14.6,0.3-29.3-1.2-43.9c-2.4-19.2-5.2-38.5-9.3-57.4c-11.8,5.4-24.3,10.3-37.3,11.5c-3.1,0.4-6.2,0.9-9.3,1.2
			c7.3,21.6,15.7,42.9,25.4,63.5C905.8,804.1,910.7,814.2,917.6,822.9L917.6,822.9z"/>
		<path id="path5535" inkscape:connector-curvature="0" class="st1" d="M714.9,773.4c5.3,1.2,10.5-1.6,15.3-3.7
			c16.5-8.5,31.2-19.9,45.9-31.2c10.4-8.3,20.7-16.7,30.6-25.5c-13.7-8.7-25.6-20.1-35-33.2c-14.5,16.5-28.2,33.9-40.8,51.9
			c-6.7,10-13.8,20.1-17.7,31.7C712,766.6,710.9,771.7,714.9,773.4L714.9,773.4z"/>
		<path id="path5537" inkscape:connector-curvature="0" class="st0" d="M1018.1,772.1c3.1,0.7,8,1.6,9.3-2.3
			c1.1-6.5-2.6-12.4-5.3-18c-11.3-20.3-26-38.5-40.7-56.5c-4.7-6-10.2-11.4-14.5-17.7c-8.9,13.8-21.1,25.5-34.7,34.5
			c17.8,15.5,36.2,30.2,55.6,43.6C997.4,762,1007,768.6,1018.1,772.1L1018.1,772.1z"/>
		<path id="path5539" inkscape:connector-curvature="0" class="st2" d="M864,730.7c3.9,0.1,7.7,0.1,11.6-0.1
			c3.1-0.3,6.2-0.8,9.3-1.2c13.1-1.2,25.5-6.1,37.3-11.5c3.4-1.8,6.7-3.7,10-5.9c13.7-9,25.8-20.7,34.7-34.5
			c2.1-3.2,4.1-6.4,5.9-9.8c2.4-4.5,4.5-9.2,6.2-14c0.3-0.2,0.8-0.5,1-0.7c0.4-2.4,0.9-4.9,1.3-7.4c0.3-0.1,1-0.4,1.4-0.5
			c0.6-10,4-19.6,3.3-29.7c0.6-10.5-1.1-20.8-3.1-31c-0.2-0.2-0.7-0.5-0.9-0.7c-1-7.6-4.3-14.5-6.6-21.7c-0.3-0.3-1-0.8-1.3-1.1
			c-1.7-3.5-3.6-6.9-5.8-10.2c-8.6-13.9-20.3-25.8-33.8-35.1c-3.8-3-8.4-4.8-12.2-7.9c-12.9-5.2-25.9-10.7-40-11.6
			c-15.5-0.8-31.6-1.2-46.5,3.9c-7,1.9-13.6,4.8-20.3,7.6c-4.2,2.9-8.8,5-13,7.9c-13,9.3-24.5,20.9-33.2,34.4
			c-2.4,3.9-4.9,7.7-6.3,12c-5.8,16.7-11.4,34.1-10.7,52.1c-0.5,10.4,2.2,20.6,4.5,30.6c2,8.6,6.5,16.2,8.9,24.6
			c1.5,3.7,3.9,7,5.9,10.4c9.4,13.2,21.3,24.5,35,33.2c3.5,2,6.9,4.1,10.5,5.8c5.7,2.5,11.6,4.9,17.5,6.8
			C844.1,728.8,854.1,729.4,864,730.7 M846.1,701.6c-0.9-2.4-1.8-4.8-1.8-7.5c-0.5-13,2.3-25.8,4.1-38.5c-1.5-0.7-3-1.4-4.4-2.3
			l1.1,0.8c-9.9,8-19.5,16.7-30.8,22.9c-2.3,1.4-4.9,1.9-7.5,2.1c-0.1-2.8,0-5.7,1.6-8.1c5.4-10.1,12.8-18.9,20.1-27.6
			c0.2-2.1,0.6-4.3-0.5-6.2c-14.5,1.9-29.2,6.2-43.8,3c-0.9-4.3,3.6-6.3,6.6-8.3c9.9-5.5,20.4-9.6,31.1-13.3
			c-0.3-1.9-0.4-3.7-0.3-5.7c-10.7-3.7-21.3-7.7-31.2-13.2c-3-1.8-6.9-3.8-6.4-7.9c13.8-3.3,27.9,0.9,41.7,2.2
			c1-2.3,1.7-4.8,1.7-7.3c-3.7-3.5-6.6-7.7-9.7-11.6c-4.7-6.7-10.7-13.3-11.8-21.7c2.5,0,5.2-0.5,7.4,0.9
			c10.4,5.4,19.4,13.1,28.4,20.4c2.4-1.5,4.8-2.9,7.3-4.1l-1.6,0.7c-2-13.5-5.2-27.3-2.3-40.9c2,0.4,4.2,0.7,5.3,2.7
			c7,10,10.9,21.8,15.4,33.1c2.3-0.2,4.6-0.3,6.9,0c3.9-10.4,7.7-20.9,13.3-30.6c1.4-2.5,3.6-4.4,5.9-6.1c0.5,1,1.5,2.9,1.9,3.8
			c1.4,12.9-1,25.7-2.9,38.4l-1.7-0.7c1.7,0.9,3.2,2.2,4.8,3.3c0.5,0.3,1.5,0.8,2.1,1c7-6.1,14.3-11.9,22-17.1
			c3.8-2.3,7.6-5.3,12.1-5.7c3.3-0.1,2,4.1,1.1,5.8c-5.5,11.5-14.1,21.3-22.1,31.1c1.4,2.6,2.4,5.4,3.7,8c-0.2-0.8-0.6-2.3-0.8-3.1
			c11.3-2.4,22.7-4,34.2-4.3c3,0.4,7.1-0.2,8.7,3c-1.2,2.6-3.6,4.3-6,5.8c-10.4,6.1-21.9,10-33,14.5c0.2,1.5,0.1,3.1-0.2,4.5
			c11.7,4.6,23.8,8.4,34.5,15.1c1.8,1.5,4.9,2.9,4.5,5.7c-1.5,1.7-3.6,2-5.7,2c-13.3,0.6-26.5-1.7-39.6-4.1c0.2-0.6,0.5-1.7,0.7-2.3
			c-1.5,2-2.3,4.4-3.5,6.5l0.9-1.1c5.6,7.2,11.7,14.1,17,21.6c3.5,5.2,7.6,10.4,8.1,16.9c-2.9,0-5.9,0.1-8.4-1.5
			c-11.2-6.4-21.3-14.7-31.1-23.1c-0.9,0.6-1.9,1.2-2.9,1.6c1.7,15.1,7,30.6,3.2,45.7c-4.4,0.6-6.2-3.6-8.1-6.7
			c-6.1-10.7-10.2-22.3-14.4-33.8c-0.9,0-2.6,0.1-3.5,0.1c-3.7,11.1-7.9,22.1-13.3,32.6C852.5,696.3,850.3,700.4,846.1,701.6
			 M843,531.3c1.2,6.7,0.7,13.6,0.1,20.3C841.6,545,841.1,537.9,843,531.3 M895.1,551.6c-0.5-6.3-1.6-12.8,0.3-19
			C896.6,538.8,896.7,545.4,895.1,551.6z"/>
		<path id="path5541" inkscape:connector-curvature="0" class="st3" d="M846.1,701.6c4.2-1.1,6.4-5.3,8.3-8.8
			c5.4-10.5,9.6-21.5,13.3-32.6c-6.7-0.3-13.2-1.8-19.3-4.6c-1.9,12.8-4.6,25.6-4.1,38.5C844.3,696.7,845.2,699.2,846.1,701.6
			L846.1,701.6z"/>
		<path id="path5543" inkscape:connector-curvature="0" class="st4" d="M885.6,693.9c1.9,3.1,3.7,7.4,8.1,6.7
			c3.8-15.1-1.5-30.6-3.2-45.7c-6.1,2.9-12.6,4.7-19.3,5.2C875.4,671.6,879.5,683.2,885.6,693.9L885.6,693.9z"/>
		<path id="path5545" inkscape:connector-curvature="0" class="st1" d="M666.8,678.9c15,1.9,30-0.1,44.9-1.6
			c17.4-2.2,34.8-4.7,51.9-8.4c-5.7-10.4-9-21.9-11.6-33.5c-1-4.1-1.1-8.3-1-12.5c-22,7.4-43.6,16.2-64.6,26.2
			c-9.7,5-19.7,9.8-27.6,17.5c-2.1,2.1-4.5,5.6-2.3,8.3C659.1,677.8,663.2,678.3,666.8,678.9L666.8,678.9z"/>
		<path id="path5547" inkscape:connector-curvature="0" class="st3" d="M806.8,678.9c2.6-0.2,5.2-0.7,7.5-2.1
			c11.3-6.2,20.9-14.9,30.8-22.9l-1.1-0.8c-5.2-3.3-9.7-7.7-13.6-12.4c-0.5,0.6-1.5,1.8-1.9,2.4c-7.3,8.7-14.7,17.6-20.1,27.6
			C806.8,673.3,806.7,676.1,806.8,678.9L806.8,678.9z"/>
		<path id="path5549" inkscape:connector-curvature="0" class="st0" d="M1007.6,673.7c19,2.6,38.2,5.1,57.5,4.5
			c6-0.7,13.3-0.4,17.8-5.1c1.7-3.9-1.9-7.2-4.4-9.7c-6.9-5.9-15.1-10.1-23.1-14.2c-22.4-11.1-45.9-19.6-69.3-28.1
			c0.1-4.1,0.2-8.3,0.3-12.4c22.8-8.1,45.5-16.8,67.2-27.5c8.9-4.6,18.1-9.2,25.5-16c2.1-2.2,4.8-5.1,3.7-8.3
			c-2.2-3.4-6.6-4-10.2-4.7c-14.9-1.9-29.9-0.1-44.8,1.4c-17.5,2.2-35.1,4.7-52.3,8.5c2.3,7.2,5.7,14.1,6.6,21.7
			c0.2,0.2,0.7,0.5,0.9,0.7c2,10.2,3.7,20.6,3.1,31c0.8,10.1-2.7,19.7-3.3,29.7c-0.3,0.1-1,0.4-1.4,0.5c-0.5,2.5-0.9,4.9-1.3,7.4
			c-0.3,0.2-0.8,0.5-1,0.7c-1.7,4.8-3.8,9.5-6.2,14C984.3,670.4,996,671.8,1007.6,673.7L1007.6,673.7z"/>
		<path id="path5551" inkscape:connector-curvature="0" class="st4" d="M924.4,676.4c2.5,1.7,5.5,1.5,8.4,1.5
			c-0.5-6.5-4.6-11.7-8.1-16.9c-5.2-7.5-11.3-14.4-17-21.6l-0.9,1.1c-3.6,5.1-8.3,9.3-13.5,12.7C903.2,661.6,913.2,670,924.4,676.4
			L924.4,676.4z"/>
		<path id="path5553" inkscape:connector-curvature="0" class="st5" d="M763.7,668.9c0.5,0.1,1.5,0.3,2,0.4c-2.4-8.4-7-16-8.9-24.6
			c-2.3-10.1-5-20.2-4.5-30.6c-0.7-17.9,4.9-35.3,10.7-52.1l-1.8,0.4c-3.1,7.7-6.1,15.5-8.1,23.6c-2,7.3-2.1,14.9-3.2,22.3
			c1.8,4.7,1.1,9.7,1.1,14.6c-0.1,4.2,0,8.5,1,12.5C754.6,646.9,758,658.5,763.7,668.9L763.7,668.9z"/>
		<path id="path5555" inkscape:connector-curvature="0" class="st0" d="M848.4,655.5c6,2.8,12.6,4.3,19.3,4.6c0.9,0,2.6-0.1,3.5-0.1
			c6.7-0.5,13.2-2.3,19.3-5.2c1-0.5,1.9-1,2.9-1.6c5.2-3.4,9.9-7.6,13.5-12.7c1.2-2.1,2-4.5,3.5-6.5c3.2-4.9,4.4-10.8,5.6-16.4
			c0.3-1.5,0.3-3,0.2-4.5c-0.5-5.4-1.3-10.9-3.2-16c-1.3-2.6-2.3-5.4-3.7-8c-3.3-5.6-7.6-10.6-13.1-14.1c-0.5-0.3-1.5-0.8-2.1-1
			c-1.6-1.1-3.1-2.4-4.8-3.3c-5.3-2.5-10.9-3.9-16.6-4.8c-2.3-0.3-4.6-0.3-6.9,0c-5.8,0.7-11.5,2-16.8,4.5c-2.5,1.3-5,2.7-7.3,4.1
			c-5.2,3.5-9.3,8.4-12.9,13.5c-0.4-0.3-1.1-1-1.4-1.4c0,2.6-0.6,5-1.7,7.3c-2.5,6-3.9,12.4-4.1,18.9c0,1.9,0,3.8,0.3,5.7
			c0.8,6.5,3.1,12.7,6.1,18.6c1.1,1.9,0.7,4.1,0.5,6.2c0.5-0.6,1.5-1.8,1.9-2.4c3.9,4.7,8.4,9.1,13.6,12.4
			C845.4,654.1,846.9,654.9,848.4,655.5L848.4,655.5z"/>
		<path id="path5557" inkscape:connector-curvature="0" class="st3" d="M784.1,640c14.6,3.1,29.4-1.1,43.8-3c-3-5.8-5.3-12-6.1-18.6
			c-10.7,3.7-21.2,7.9-31.1,13.3C787.7,633.7,783.3,635.7,784.1,640L784.1,640z"/>
		<path id="path5559" inkscape:connector-curvature="0" class="st3" d="M909.7,636.3c13.1,2.4,26.3,4.7,39.6,4.1
			c2-0.1,4.2-0.4,5.7-2c0.5-2.8-2.7-4.2-4.5-5.7c-10.7-6.7-22.8-10.5-34.5-15.1c-1.2,5.7-2.4,11.5-5.6,16.4
			C910.2,634.6,909.8,635.7,909.7,636.3L909.7,636.3z"/>
		<path id="path5561" inkscape:connector-curvature="0" class="st4" d="M790.3,599.5c9.9,5.5,20.5,9.5,31.2,13.2
			c0.2-6.5,1.5-12.9,4.1-18.9c-13.8-1.3-27.9-5.5-41.7-2.2C783.5,595.7,787.4,597.7,790.3,599.5L790.3,599.5z"/>
		<path id="path5563" inkscape:connector-curvature="0" class="st3" d="M916.2,613c11.1-4.5,22.6-8.4,33-14.5c2.4-1.4,4.8-3.1,6-5.8
			c-1.6-3.2-5.7-2.6-8.7-3c-11.5,0.3-23,1.9-34.2,4.3c0.2,0.8,0.6,2.3,0.8,3.1C914.8,602.2,915.7,607.6,916.2,613L916.2,613z"/>
		<path id="path5565" inkscape:connector-curvature="0" class="st1" d="M720.1,597.7c9.9,3.6,19.5,8,29.8,10.6
			c1.1-7.4,1.1-15,3.2-22.3c2-8.1,5-15.9,8.1-23.6c-19.4-4-39.1-6.7-58.8-8.6c-13.6-0.9-27.6-2.5-41,0.7c-3.3,0.7-7.6,3.7-5.5,7.6
			c3.7,6.5,10.7,10.1,16.8,13.9C687.8,584.5,703.9,591.2,720.1,597.7L720.1,597.7z"/>
		<path id="path5567" inkscape:connector-curvature="0" class="st6" d="M909.2,589.1c8-9.8,16.5-19.6,22.1-31.1
			c0.9-1.7,2.2-6-1.1-5.8c-4.5,0.4-8.3,3.4-12.1,5.7c-7.7,5.2-15,11-22,17.1C901.6,578.4,906,583.5,909.2,589.1z"/>
		<path id="path5569" inkscape:connector-curvature="0" class="st3" d="M827.3,586.5c0.3,0.3,1.1,1,1.4,1.4
			c3.6-5.1,7.7-9.9,12.9-13.5c-9.1-7.3-18.1-14.9-28.4-20.4c-2.3-1.3-4.9-0.9-7.4-0.9c1.1,8.4,7.2,15,11.8,21.7
			C820.7,578.8,823.6,583,827.3,586.5z"/>
		<path id="path5571" inkscape:connector-curvature="0" class="st4" d="M847.4,570.9l1.6-0.7c5.3-2.5,11-3.7,16.8-4.5
			c-4.5-11.3-8.4-23.1-15.4-33.1c-1.1-1.9-3.3-2.2-5.3-2.7C842.2,543.6,845.4,557.5,847.4,570.9L847.4,570.9z"/>
		<path id="path5573" inkscape:connector-curvature="0" class="st6" d="M872.7,565.8c5.7,0.9,11.4,2.3,16.6,4.8l1.7,0.7
			c1.8-12.7,4.2-25.5,2.9-38.4c-0.5-0.9-1.5-2.8-1.9-3.8c-2.3,1.7-4.5,3.6-5.9,6.1C880.4,544.9,876.5,555.4,872.7,565.8z"/>
		<path id="path5575" inkscape:connector-curvature="0" class="st7" d="M843,531.3c-1.9,6.6-1.4,13.7,0.1,20.3
			C843.7,544.9,844.2,538,843,531.3z"/>
		<path id="path5577" inkscape:connector-curvature="0" class="st8" d="M895.1,551.6c1.5-6.2,1.5-12.7,0.3-19
			C893.6,538.7,894.6,545.3,895.1,551.6z"/>
		<path id="path5579" inkscape:connector-curvature="0" class="st0" d="M934.6,515.7c13.5,9.3,25.1,21.2,33.8,35.1
			c5-7.7,11.6-14.2,17.1-21.5c10.5-13.2,20.8-26.7,29.8-41c4.5-7.4,9.2-14.9,11.1-23.4c0.8-2.7,0.2-6.9-3.2-7.5
			c-6.3-0.7-12.1,2.7-17.6,5.4C979.9,477.4,957.2,496.7,934.6,515.7L934.6,515.7z"/>
		<path id="path5581" inkscape:connector-curvature="0" class="st0" d="M769.4,550c8.6-13.5,20.2-25.1,33.2-34.4
			c-15.2-13.5-31.4-25.9-47.9-37.7c-9.6-6.6-19.4-13.2-30.2-17.7c-3.6-1.3-7.8-2.7-11.5-1.1c-2.9,2.4-1.6,6.7-0.8,9.8
			c2.7,8.1,7.3,15.3,11.9,22.5C737.6,512,753.3,531.1,769.4,550z"/>
		<path id="path5583" inkscape:connector-curvature="0" class="st0" d="M805.4,431.5c1.3,25.6,5.1,51.1,10.2,76.3
			c6.7-2.7,13.3-5.7,20.3-7.6c14.9-5.1,31-4.7,46.5-3.9c14,0.8,27.1,6.4,40,11.6c2.7-11.9,4.2-24,6-36c2.3-18.2,4.7-36.6,3.5-55
			c-0.5-5-0.9-10.6-4.4-14.5c-3.4-2.3-7.1,0.9-9.4,3.3c-7.1,8.1-11.8,17.9-16.6,27.5c-9.6,20.2-17.7,41.1-24.9,62.2
			c-5,0.1-10.1,0.1-15.1,0.1c-8.5-23.7-17.6-47.3-29.2-69.7c-4.2-7.5-8.3-15.4-14.6-21.4c-2.4-2.4-7.1-3.7-9-0.1
			C804.4,412.6,805.4,422.4,805.4,431.5L805.4,431.5z"/>
		<path id="path5585" inkscape:connector-curvature="0" class="st9" d="M856.3,223.4c0.1,71.7-0.2,143.3,0.2,215
			c7.5-0.2,14.9-0.1,22.4-0.1c0.1-148.7,0-297.4,0-446c-7.5,0-15,0-22.5-0.1C856.2,69.3,856.4,146.4,856.3,223.4L856.3,223.4z"/>
		<path id="path5587" inkscape:connector-curvature="0" class="st10" d="M943.3,307.9c8.3,3.3,17.6,5.3,26.3,2.8
			c6.1-1.7,11.1-6.5,13-12.5c2.6-7.9,1.1-16.4-1.4-24.1c-4.5-12.9-12.5-24.4-22.1-34.1c-17.1-16.7-42.8-20.6-65.8-19.3
			c-1.1,21.9,1.8,45.9,16.4,63.2C919.2,294.2,930.5,302.6,943.3,307.9z"/>
		<path id="path5589" inkscape:connector-curvature="0" class="st10" d="M767.5,210.4c8.2,1.6,16.6,0,24.3-2.9
			c11.8-4.5,22.2-12,31-20.9c7.3-7.4,11.7-17.1,14.2-27c3.4-13.4,3.6-27.3,2.1-41c-10.3-1.6-20.9-1-31.2,0.6
			c-13.5,2.1-27.1,7.2-36.8,17.1c-9.9,10.3-17.9,22.7-21.6,36.6c-2.1,8.8-2.6,18.7,2.1,26.7C754.8,205.4,761,209.1,767.5,210.4
			L767.5,210.4z"/>
	</g>
	<g id="g5679" transform="matrix(7.4999998,0,0,-7.4999998,868.46004,14890.732)">
		<path id="path5655" inkscape:connector-curvature="0" class="st11" d="M278.3,1416.5c20.9,6.4,43.9,6.1,64.5-1.5
			c13.6-5.1,26.4-14.5,32.1-28.2c4.9-11.2,3.5-23.9,0.9-35.5c5.3,9.1,12,17.9,21.6,22.7c14,7.7,31.3,5.9,45.5-0.4
			c21.5-9.5,39.2-27.1,49.3-48.3c6.6-14.1,9-31.2,2-45.7c-4.5-9.9-13.2-16.8-22.1-22.6c8.3,0.9,16.6,3,24.9,1.1
			c13.9-2.1,25.3-12,32.2-23.9c9.8-17.2,12.6-37.8,10.4-57.3c-1.9-15.4-7-30.9-17.4-42.6c-7.4-8.5-18.1-13.9-29.3-14.8
			c-7.7-0.9-15.3,1-22.7,2.5c10.3-5.7,19.9-13.7,24.6-24.8c6.6-15,3.4-32.4-3.7-46.6c-9.5-18.7-25.1-34.4-43.8-44
			c-13.7-7-30.3-10.4-45-4.7c-12.5,4.6-21.4,15.4-27.5,26.8c5.3-15,5.1-33-4.8-46.1c-11.9-16-32.2-23.1-51.4-24.9
			c-6.6-0.3-13.3-0.3-19.9,0c-15.5,1.4-31.1,6.3-43.3,16.2c-10.5,8.4-17,21.6-16.6,35.1c-0.2,5.9,1.4,11.7,2.2,17.5
			c-6.3-11.1-15.7-21.3-28.2-25.2c-17-5.5-35.3,0.3-50,9.3c-18.9,12-34.6,30.1-41.5,51.7c-4.6,14.3-3.6,31.2,5.8,43.4
			c4.7,6.8,11.8,11.1,18.3,16c-10.3-2.5-21.3-3.7-31.5-0.1c-15.5,5-26.2,19.1-31.5,34c-8,22.7-7.7,48.3,1.4,70.6
			c5.7,13.6,16.2,26.2,30.7,30.6c10.8,3.6,22.4,2,33.1-1c-11.5,6.1-22.1,15.3-26.5,27.9c-5.3,15.2-1.5,32.1,5.9,45.9
			c10.5,19.3,27.4,35.3,47.6,44.1c14.1,6.1,31.1,7.7,45,0.2c9.4-4.7,15.9-13.3,21.4-22c-2.3,11.1-3.7,23.1,0.7,33.8
			C247.7,1401.5,262.8,1411.6,278.3,1416.5 M297.3,1351c-23.1-2-45.6-9.1-65.7-20.6c-34.4-19.5-61.2-52-73.6-89.5
			c-14.6-43.1-10-92.2,12.5-131.7c22.7-40.5,63.6-70.4,109.2-79.4c32.9-6.6,68-3,98.7,10.9c38.4,17,69.5,49.5,84.9,88.6
			c17,42.6,14.8,92.4-6.1,133.2c-18.6,37.1-51.9,66.4-91.1,80C344.2,1350.4,320.5,1352.7,297.3,1351z"/>
		<path id="path5657" inkscape:connector-curvature="0" class="st12" d="M297.3,1351c23.2,1.7,46.9-0.5,68.8-8.5
			c39.2-13.6,72.5-42.9,91.1-80c20.9-40.8,23.1-90.6,6.1-133.2c-15.3-39.1-46.5-71.6-84.9-88.6c-30.7-13.8-65.7-17.5-98.7-10.9
			c-45.6,8.9-86.5,38.8-109.2,79.4c-22.5,39.5-27.2,88.6-12.5,131.7c12.4,37.5,39.2,70,73.6,89.5
			C251.7,1341.8,274.3,1348.9,297.3,1351 M297.3,1341.7c-25.5-2.4-50.3-11.4-71.4-25.8c-34.3-23.2-58.5-60.7-65.1-101.7
			c-6.5-38.5,2.4-79.3,24.5-111.5c27.7-41.1,76.5-67.4,126.2-66.9c48.8-0.8,96.9,24.1,125.1,63.9c19.2,26.4,29.4,59.2,28.7,91.8
			c-0.3,41.1-18.4,81.5-48.5,109.4C385.4,1330.9,340.6,1346.2,297.3,1341.7L297.3,1341.7z"/>
		<path id="path5659" inkscape:connector-curvature="0" class="st11" d="M297.3,1341.7c43.3,4.5,88.1-10.8,119.6-40.8
			c30.1-27.9,48.1-68.3,48.5-109.4c0.7-32.6-9.6-65.4-28.7-91.8c-28.1-39.8-76.3-64.7-125.1-63.9c-49.7-0.5-98.5,25.7-126.2,66.9
			c-22.1,32.2-31.1,73-24.5,111.5c6.5,40.9,30.8,78.5,65.1,101.7C247.1,1330.3,271.9,1339.3,297.3,1341.7 M283.3,1270.9
			c-3.2-4.5-2.8-10.1-2.7-15.3c-3,5.1-8.2,9.1-14.3,9.5c-9.2,0.6-17.8-4.4-24-10.8c-6-6.4-10.9-14.9-9.7-24
			c0.7-6.3,5.4-11.2,10.8-14.1c-5.7,1.4-12.1,1.6-17-2c-8-5.6-10.8-15.9-10.6-25.2c-0.1-9.2,2.8-19.7,10.9-25
			c4.5-3.2,10.3-2.8,15.6-2.2c-4.9-3.3-9.2-8.1-9.8-14.1c-0.9-9.6,4.5-18.6,11.3-25c6.6-6.1,15.8-10.9,25.1-8.9
			c5.1,1,8.7,4.9,11.8,8.8c-0.6-5.7-0.3-12.1,3.7-16.7c6.6-7.6,17.4-9.9,27.1-9.2c8.8,0.7,18.7,4.1,23,12.4
			c2.5,4.5,1.9,9.8,1.4,14.6c2.8-5.4,8-9.8,14.3-10.3c8.9-0.9,17.2,3.8,23.4,9.7c6.5,6.4,11.7,15.2,10.8,24.5
			c-0.6,6.2-5.1,11.1-10.1,14.3c5.3-0.8,11.1-1.2,15.8,2c7.9,5.1,10.8,15,11.3,23.9c0.1,9.5-2.3,20-10.2,26
			c-5,4.1-11.9,3.3-17.8,2.5c6.8,3.1,11.8,10.3,11.2,18c-0.8,10-7.2,18.7-15,24.6c-6.4,4.8-15.1,8.1-23,5.4
			c-4.6-1.3-7.7-5.1-10.5-8.7c0.7,5.2,0.9,10.9-2.3,15.3c-5.3,8-15.5,11-24.6,11.1C299.5,1282,288.8,1279.2,283.3,1270.9
			L283.3,1270.9z"/>
		<path id="path5661" inkscape:connector-curvature="0" class="st13" d="M283.3,1270.9c5.5,8.3,16.3,11.1,25.7,11
			c9.2,0,19.3-3.1,24.6-11.1c3.2-4.5,3-10.2,2.3-15.3c2.8,3.6,6,7.4,10.5,8.7c7.9,2.7,16.5-0.6,23-5.4c7.8-5.9,14.2-14.6,15-24.6
			c0.6-7.7-4.3-14.9-11.2-18c5.9,0.9,12.8,1.7,17.8-2.5c7.9-6,10.3-16.6,10.2-26c-0.5-8.9-3.4-18.8-11.3-23.9
			c-4.6-3.2-10.5-2.8-15.8-2c5-3.3,9.5-8.1,10.1-14.3c0.9-9.4-4.3-18.2-10.8-24.5c-6.2-5.9-14.5-10.7-23.4-9.7
			c-6.2,0.5-11.5,4.9-14.3,10.3c0.5-4.9,1-10.1-1.4-14.6c-4.3-8.3-14.2-11.8-23-12.4c-9.6-0.6-20.5,1.7-27.1,9.2
			c-4,4.6-4.3,11-3.7,16.7c-3.1-3.9-6.7-7.8-11.8-8.8c-9.3-2-18.4,2.7-25.1,8.9c-6.8,6.4-12.2,15.4-11.3,25
			c0.6,6.1,4.9,10.9,9.8,14.1c-5.3-0.6-11-1-15.6,2.2c-8.1,5.3-11.1,15.7-10.9,25c-0.3,9.3,2.6,19.7,10.6,25.2
			c4.9,3.6,11.3,3.3,17,2c-5.4,2.9-10.1,7.9-10.8,14.1c-1.2,9,3.7,17.6,9.7,24c6.2,6.4,14.8,11.5,24,10.8c6.1-0.4,11.3-4.4,14.3-9.5
			C280.5,1260.7,280,1266.4,283.3,1270.9L283.3,1270.9z"/>
		<path id="path5663" inkscape:connector-curvature="0" class="st14" d="M298.6,957.7c6.6-0.3,13.3-0.3,19.9,0
			c0.3-126.6-0.1-253.1,0.2-379.7c15.4,19.6,34.3,36.1,54.3,50.8c14.7,10.6,29.8,20.9,46.2,28.6c30.1,14.1,63,22.7,96.2,24.4
			c-10.1-19.9-23.5-37.9-38.3-54.4c-14.6-16.2-31.4-30.5-50.1-41.9c-23.7-14.7-48.7-28-75.5-36.2c-10.6-2.9-21.7-5.9-32.8-3.7
			c-0.4-71.3-0.1-142.7-0.2-214.1c0-80.1,0-160.2,0-240.3c-6.7-0.1-13.4-0.2-20.1,0c-1,25,0.2,50-0.5,75c0.2,19.1,0.8,38.2,0,57.3
			c0.4,33.8-0.3,67.6,0.5,101.4c-1.1,42.7,0,85.3-0.5,128c0,7.1,0.8,14.2,0.1,21.3c-0.1,15.1,0.3,30.2-0.1,45.4c1,12-0.7,24,0.5,36
			c-0.8,18.2-0.3,36.4-0.2,54.7c-0.3,53.4,0.1,106.7-0.3,160c0.1,28,0.3,56,0,84c1,11.6-0.5,23.2,0,34.7c-0.4,9.8,0.9,19.5,0.1,29.3
			C297.5,931.4,298.6,944.6,298.6,957.7L298.6,957.7z"/>
		<path id="path5665" inkscape:connector-curvature="0" class="st14" d="M79.5,850.7c24.4-0.9,48.6-6.4,71.7-14.3
			c22.2-7.6,43.1-18.8,62.1-32.5c21.3-15.1,42-31.6,58.6-51.8c5.6-7.3,11.4-15.1,13-24.4c1.1-5-1.8-10.5-6.7-12.2
			c-8.2-3-17.1-1.4-25.4,0.3c-19.8,4.5-38.4,13-56.4,22.1c-22.1,11.8-43.8,24.7-62.2,41.8C112.3,800.1,93.3,824,79.5,850.7
			L79.5,850.7z"/>
		<path id="path5667" inkscape:connector-curvature="0" class="st14" d="M516.9,849.1c6.3,0.6,12.5,1.8,18.9,1.5
			c-10.3-20.4-24.2-38.9-39.5-55.8c-14.6-15.8-31.2-29.8-49.6-41c-24.1-14.9-49.6-28.2-76.9-36.3c-10.3-2.5-21.4-5.7-31.9-2.4
			c-4.8,1.3-8.3,6.2-7.7,11.1c1.1,9.5,6.9,17.5,12.5,24.8c12.5,15.5,27.5,28.7,43.2,40.9c18.3,13.8,37.2,27.1,58.2,36.4
			C467.2,838.8,491.9,845.6,516.9,849.1L516.9,849.1z"/>
		<path id="path5669" inkscape:connector-curvature="0" class="st14" d="M79.7,681.8c29.3-1.4,58.2-8.5,85.2-19.6
			c21.5-8.7,41-21.5,59.5-35.3c17.1-12.9,33.6-26.8,47.2-43.4c5.6-7.2,11.4-14.8,13.3-23.9c1.4-5.3-1.3-11.5-6.7-13.3
			c-8.3-2.9-17.3-1.2-25.7,0.5c-20.5,4.8-39.7,13.6-58.3,23.3c-21.2,11.4-42,23.9-59.7,40.3c-18.3,16.6-34.1,36-47.1,57
			C84.6,672.2,81.7,676.7,79.7,681.8L79.7,681.8z"/>
		<path id="path5671" inkscape:connector-curvature="0" class="st14" d="M448.7,479.7c27.5,11.7,57,18.5,86.9,20.5
			c-3-8.5-8.6-15.7-13.4-23.3c-16.3-24-36.2-45.8-59.6-63.1c-14.2-10.3-29.5-19.1-45-27.3c-15.6-8-31.8-15.2-48.7-20
			c-9.1-2.4-18.6-4.5-28-3.1c-4.8,0.7-10.3,3.9-10.4,9.3c-0.9,8.6,4.2,16.2,8.7,23c11.5,15.8,26.2,29,41.4,41.3
			C401.8,453.7,423.9,469.4,448.7,479.7L448.7,479.7z"/>
		<path id="path5673" inkscape:connector-curvature="0" class="st14" d="M83.3,492.7c-1.4,2.4-2.9,4.9-3.4,7.7
			c31-2.4,61.9-9.5,90.3-22.2c19.7-8.5,37.5-20.6,54.6-33.3c18-13.7,35.5-28.5,49.4-46.5c5-6.8,9.9-14.3,11-22.9
			c0.3-5-3-9.7-7.9-11.1c-9.3-2.7-19.2-0.6-28.4,1.6c-26.1,7.1-50.5,19.5-73.7,33.2C136.8,421.2,105.5,454.5,83.3,492.7z"/>
		<path id="path5675" inkscape:connector-curvature="0" class="st14" d="M86.4,292.9c-2.3,4.2-5.4,8-6.5,12.7
			c31.5-2.1,62.6-9.6,91.4-22.5c20.7-9.2,39.4-22.2,57.5-35.8c17.1-13.4,33.8-27.7,46.7-45.2c4.4-6.4,8.8-13.3,9.7-21.2
			c0.4-5.1-3.1-9.9-8-11.2c-9.8-2.9-20.1-0.3-29.7,2c-27.8,7.8-53.5,21.3-78,36.3C135.3,228.8,107.2,258.9,86.4,292.9L86.4,292.9z"
			/>
		<path id="path5677" inkscape:connector-curvature="0" class="st14" d="M404.4,260.3c38.1,27.4,84.3,42.2,130.9,45.4
			c-0.5-2.8-1.9-5.4-3.4-7.8c-13.6-23.3-30.5-44.7-50.4-62.9c-18.5-17.4-40.6-30.4-62.9-42.3c-18.8-9.6-38.2-18.4-59-22.7
			c-8.3-1.4-17.7-3-25.3,1.7c-4.9,3.1-4.4,9.8-3.1,14.7c2.9,8.7,8.6,16.2,14.4,23.2C362.6,229.2,383.1,245.5,404.4,260.3
			L404.4,260.3z"/>
	</g>
	<path id="path3009" inkscape:connector-curvature="0" class="st15" d="M5651.6,14442.6c-353.7-6.3-708.5,111.1-988.6,327.2
		c106.8-264.2,290.5-496.8,522.8-661.9c-406,29.1-796.1,235.4-1048.7,554.5c1.7-366.8,130.9-732,360.5-1018.2
		c-430.7,199.5-797.2,535.1-1033.6,946.8c-70.4-445.9-6.7-912.1,180.9-1322.6c-385,334.7-659.6,794.5-771.5,1292.4
		c-130.7-378.7-261.4-757.4-392.1-1136.1c-82,361.1-105,735.5-67.8,1103.9c-126.6-287.2-295.5-555.8-499.3-794.5
		c78.6,356.3,73.3,574.9,13.5,934.6c-202-386.3-475.8-574.2-823.6-836.8c272.2,377.5,449.2,823.1,511.1,1284.5h3211.5
		C5017.3,14852.5,5371.4,14584.3,5651.6,14442.6"/>
	<path id="path3013" inkscape:connector-curvature="0" class="st16" d="M6101.1,14607.2c-166.5,92.2-339.9,349.8-444.1,509.1
		c-7.1-313.7,143.3-786.6,392.7-977.3c-251.2,121.9-516.1,256.7-658.9,496.7c80.9-361.9,241.5-705.7,467.3-999.9
		c91.4-119,207.1-237.5,356.2-254.6c-275.9,29.9-542.3,142.9-755.5,320.7c-213.2,177.7-372.4,419.3-451.5,685.4
		c22.9-329-27-662.9-145-970.9c-19.6,333.7-39.2,667.5-58.8,1001.3c-107.4-344.6-334.8-650.6-633.7-852.8
		c211.1,326.1,329.5,711.4,338,1099.8c-175.7-249.7-420.3-450.4-699.7-573.8c277.1,250,434.3,651.4,425.1,1025.6h1529.2
		C5830.3,14921.9,5947.8,14745,6101.1,14607.2"/>
	<path id="path3017" inkscape:connector-curvature="0" class="st15" d="M7238.4,14404.7c373.6-6.7,748.3,117.3,1044.2,345.5
		c-112.8-279-306.8-524.7-552.2-699c428.8,30.7,840.8,248.6,1107.7,585.6c-1.8-387.5-138.3-773.1-380.7-1075.5
		c455,210.6,842.1,565.2,1091.7,1000c74.4-471,7.1-963.3-191.1-1396.9c406.8,353.5,696.7,839.1,815,1364.9
		c138.1-400,276.1-800,414.1-1199.9c86.6,381.4,110.9,776.9,71.6,1166c133.8-303.4,312.1-587,527.4-839.1
		c-83,376.2-77.5,607.1-14.2,987.2c213.3-408,502.4-606.5,869.8-883.9c-287.7,398.8-474.7,869.4-540,1356.7h-3392
		c-201.2-278.7-575.2-561.9-871.3-711.6"/>
	<g id="g5507" transform="matrix(-7.4999998,0,0,-7.4999998,13367.51,12217.747)">
		<path id="path5495" inkscape:connector-curvature="0" class="st17" d="M920.3,296.4c11,2.3,23.9,2.8,33.3-4.5
			c6.1-4.5,8.8-12,10.1-19.1c1.8,7.6,4.3,15.7,11.1,20.3c10.6,7.4,24.5,6.3,36.4,3.4c20.7-5.5,40.1-16.7,54.4-32.6
			c7.5-8.6,14-19.9,11.5-31.7c-1.3-6.8-6.1-11.8-10.7-16.6c6.1,1.9,12.7,3.6,19.1,1.7c9.7-2.6,16.4-11.1,20.5-19.8
			c7.8-17.1,9.4-36.5,7.5-55c-1.6-12.5-4.7-25.3-12.5-35.4c-4.5-6.1-11.6-10.8-19.3-11c-4.7-0.4-9.3,0.9-13.7,2.2
			c5.3-5.4,11-11.3,11.6-19.3c1.2-14.1-7.9-26.4-17.4-35.7c-15.6-14.6-35.2-25.5-56.3-29.1c-10.8-1.7-23.6-0.7-31.5,7.8
			c-4.3,4.2-5.4,10.2-7.7,15.5c-1.4-8.7-6-17.6-14.4-21.4c-13.4-6.2-28.8-2.9-42.2,1.7c-17.5,6.5-34,16.7-46.1,31
			c-7.1,8.5-12.9,19.8-10.1,31.1c1.3,6.6,6.3,11.3,10.8,16c-6.2-2.1-12.9-3.8-19.3-1.9c-10.4,2.8-17.2,12.2-21.3,21.5
			c-6.3,14.8-8,31.2-7.2,47.1c0.8,12.9,3.4,26,10,37.3c4.1,7.1,10.6,13.4,18.9,14.9c5.8,1.5,11.7-0.4,17.5-1.6
			c-5.7,4.8-11,10.9-11.8,18.6c-1.5,13.1,6.5,24.9,15.1,34C881,280.7,899.9,291.7,920.3,296.4 M977.4,268.1
			c-7.2-2.2-11.2-9.4-12.9-16.3c-3,5-4.7,11.3-10,14.5c-5.1,2.9-11.2,2.5-16.8,2.5c-9.5,0.4-18.3-3.6-26.7-7.4
			c-13.9-7.2-27.2-17.2-34.2-31.5c-3.1-5.8-3.3-13-1.1-19.2c1.7-2.8,4-5,5.9-7.7c-8.2,1.1-17.5,0-23.2-6.6
			c-10.4-12.7-12.6-30.1-12.1-46c1.1-7.8,1.5-15.9,4.9-23.2c3-9.1,9.1-17.7,18.4-21.1c4-0.6,8.1-0.2,12.1-0.1
			c-1.8-3.4-4.1-6.5-5.4-10.2c-1.9-6.2,0.1-12.8,2.9-18.4c5-8.8,13.1-15.2,20.7-21.8c10.3-5.8,21.5-10.2,32.9-13.6
			c7.9-0.6,16.7-1.7,23.6,3.1c5.4,3,7.5,9.1,10.2,14.3c2.2-1,2.1-4.8,3.6-6.8c4.5-9.7,16.7-11.7,26.2-10.5c10.9,2,21.8,5.4,30.9,12
			c10.3,6.3,20,14.3,26,24.9c3.7,5.8,3.1,13.1,2.4,19.6c-0.4,3.5-5.4,6.4-3.6,9.8c3.9,0.3,7.9-0.5,11.7,0.5
			c9.9,4,15.3,14.3,17.7,24.1c3.5,10,2.3,20.7,2.4,31c-0.1,13.7-4.3,28.6-15.4,37.5c-5.5,4.9-13.3,3.1-20,3.1
			c1.7,5.3,6.8,9.4,6.2,15.4c1,8.6-3.7,16.4-8.9,22.7c-10.6,11.3-24.2,19.5-38.7,24.5C997.3,270,986.9,271.7,977.4,268.1
			L977.4,268.1z"/>
		<path id="path5497" inkscape:connector-curvature="0" class="st18" d="M977.4,268.1c9.5,3.6,20,1.9,29.5-0.9
			c14.6-5.1,28.2-13.2,38.7-24.5c5.3-6.3,9.9-14.1,8.9-22.7c0.6-5.9-4.4-10.1-6.2-15.4c6.7,0,14.5,1.8,20-3.1
			c11-8.9,15.3-23.8,15.4-37.5c-0.1-10.3,1.1-21-2.4-31c-2.4-9.8-7.8-20.2-17.7-24.1c-3.8-1-7.8-0.2-11.7-0.5
			c-1.8-3.3,3.2-6.3,3.6-9.8c0.7-6.5,1.2-13.8-2.4-19.6c-6-10.6-15.7-18.6-26-24.9c-9-6.6-20-10-30.9-12C986.7,41,974.5,43,970,52.7
			c-1.5,2-1.4,5.8-3.6,6.8c-2.7-5.2-4.8-11.2-10.2-14.3c-6.9-4.8-15.7-3.7-23.6-3.1c-11.4,3.4-22.6,7.8-32.9,13.6
			c-7.5,6.5-15.7,13-20.7,21.8c-2.8,5.6-4.8,12.2-2.9,18.4c1.3,3.6,3.6,6.8,5.4,10.2c-4.1-0.1-8.1-0.5-12.1,0.1
			c-9.3,3.5-15.4,12-18.4,21.1c-3.4,7.3-3.8,15.4-4.9,23.2c-0.5,15.9,1.7,33.3,12.1,46c5.7,6.6,15,7.7,23.2,6.6
			c-1.9,2.6-4.3,4.9-5.9,7.7c-2.2,6.2-2,13.4,1.1,19.2c7,14.3,20.4,24.3,34.2,31.5c8.4,3.8,17.3,7.8,26.7,7.4
			c5.6,0,11.7,0.3,16.8-2.5c5.3-3.2,7-9.5,10-14.5C966.2,258.7,970.2,265.9,977.4,268.1 M940.9,246.5c-14.8-2-28.4-9.7-38.8-20.2
			c-5.7-5.8-10.7-13.6-9.5-22.2c0.3-5,4-8.6,7.4-11.8c-7.3,3.6-16.8,1.4-21.4-5.3c-7.7-10.7-9-24.8-8.3-37.6
			c1.2-10.7,3.6-22.5,12.1-29.9c4.9-4.3,11.9-4.2,17.8-2.3c-3.4-3.6-6.7-7.9-6.4-13.1c-0.5-7.1,3.7-13.3,8.2-18.3
			c7.5-8.1,17.1-14,27.4-17.9c8-3,17-4.5,25.5-2.2c6.8,2.1,10.9,8.9,11.7,15.7c0.7-3.7,1.6-7.6,4.3-10.5c3.9-4.7,10.4-6.2,16.3-5.8
			c12.6,0.8,24.5,6.5,34.5,14c6.7,5.3,13,11.7,16,19.8c2,6,1.2,13.7-4.1,17.8c-1.2,1.3-3.6,2-3.2,4.1c1.4-3.6,5.7-2.3,8.7-2.7
			c5.8-0.4,11.1,3.4,14.2,8.1c6.5,10,7.9,22.5,7.6,34.2c-1,11.4-3.4,24.1-12.4,32.1c-4.7,4.4-11.4,3.8-17.3,2.8
			c2.9,3.3,6,7,6.2,11.6c0.8,7.1-3.3,13.5-7.7,18.7c-7.3,8.2-16.8,14.1-26.9,18.2c-8.4,3.1-17.9,5.4-26.8,2.6
			c-6.4-2.2-10.7-8.5-11.2-15.1c-1.2,3.9-2.3,8-5.3,10.8C954.6,246.6,947.2,247.1,940.9,246.5L940.9,246.5z"/>
		<path id="path5499" inkscape:connector-curvature="0" class="st13" d="M940.9,246.5c6.3,0.6,13.7,0.1,18.4-4.8
			c3-2.9,4.1-7,5.3-10.8c0.5,6.6,4.8,12.9,11.2,15.1c8.8,2.9,18.3,0.6,26.8-2.6c10.1-4.1,19.6-10,26.9-18.2
			c4.4-5.2,8.5-11.6,7.7-18.7c-0.2-4.6-3.3-8.3-6.2-11.6c5.8,1.1,12.6,1.6,17.3-2.8c9.1-7.9,11.4-20.6,12.4-32.1
			c0.4-11.7-1-24.2-7.6-34.2c-3-4.8-8.3-8.5-14.2-8.1c-3,0.4-7.3-0.9-8.7,2.7c-0.4-2.1,2-2.8,3.2-4.1c5.3-4.1,6.1-11.7,4.1-17.8
			c-3-8.2-9.4-14.5-16-19.8c-10-7.5-21.9-13.2-34.5-14c-5.9-0.3-12.3,1.2-16.3,5.8c-2.7,2.9-3.5,6.8-4.3,10.5
			c-0.8-6.8-4.9-13.6-11.7-15.7c-8.4-2.3-17.4-0.7-25.5,2.2c-10.3,3.9-19.8,9.9-27.4,17.9c-4.6,5-8.8,11.3-8.2,18.3
			c-0.3,5.2,3.1,9.5,6.4,13.1c-5.9-1.9-12.9-2-17.8,2.3c-8.5,7.5-10.9,19.2-12.1,29.9c-0.7,12.8,0.5,26.9,8.3,37.6
			c4.6,6.7,14.2,8.9,21.4,5.3c-3.4,3.2-7.1,6.8-7.4,11.8c-1.3,8.5,3.7,16.3,9.5,22.2C912.4,236.7,926.1,244.5,940.9,246.5
			 M954.2,185.7c-15.3-4.2-25.3-21.2-21.6-36.7c3.1-16.3,20.7-27.8,36.9-23.9c16.7,2.9,28.4,21.1,24.2,37.5
			C990.4,179.8,970.8,191.3,954.2,185.7L954.2,185.7z"/>
		<path id="path5501" inkscape:connector-curvature="0" class="st19" d="M954.2,185.7c16.6,5.6,36.2-5.9,39.5-23.1
			c4.2-16.4-7.5-34.6-24.2-37.5c-16.2-3.8-33.8,7.7-36.9,23.9C928.9,164.5,938.9,181.6,954.2,185.7L954.2,185.7z"/>
		<path id="path5503" inkscape:connector-curvature="0" class="st19" d="M959.7,8.6c5.3,0,10.6,0,15.9,0.1c0.1-89.7,0.2-179.4,0-269
			c-5.3,0.1-10.6,0.1-15.9,0.1C959.7-170.7,959.7-81.1,959.7,8.6z"/>
		<path id="path5505" inkscape:connector-curvature="0" class="st19" d="M1026.1-25.8c6.1,2.9,13,5.1,19.8,3.5
			c5.9-1.5,8.6-8.2,7.9-13.7c-1.3-10.2-6.8-19.3-13-27.3c-4.6-5.5-9.6-10.9-15.9-14.5c-11-6.5-23.9-9.2-36.6-9.4
			c0.1,15.8,4.3,32.3,15,44.3C1009.8-36,1017.5-30,1026.1-25.8L1026.1-25.8z"/>
	</g>
	<path id="path3023" inkscape:connector-curvature="0" class="st20" d="M5994.5,13954.9c388.2,133.7,746.4,354.2,1040.6,640.7
		c-262.1-603-556.5-1243.9-1119.7-1583.2c617.9,109.7,1179.6,502.8,1494.1,1045.8c139.9-509.2,164.7-1049.9,71.9-1569.9
		c314.3,462.3,660.5,1412.9,496.3,1947.2c264.8-633.2,533.4-752.3,1020.8-936.3c-456,326.7-651.6,993.8-560.4,1617.1H6967.9
		C6692.1,14649.4,6450.8,14247.9,5994.5,13954.9"/>
	<path id="path3025" inkscape:connector-curvature="0" class="st21" d="M5737.1,15116.3c-8.8-353.9-186.9-694.8-471.5-905.3
		c254.1,49.6,542.3,123.7,659.3,354.7c-12-366.6-83.5-731.1-211-1074.9c328.4,187.3,553.6,544.4,581.1,921.5
		c117-407.7,286.7-800.2,503.6-1164.6c-75.4,402.2-71.7,819,10.9,1219.8c179-224,417.6-399.9,684.5-504.6
		c-313.5,263.7-514.3,742.8-554.9,1153.4L5737.1,15116.3"/>
	<path id="path3027" inkscape:connector-curvature="0" class="st21" d="M2904,15116.3c8.8-355.6,187.8-698.1,473.9-909.7
		c-255.4,49.8-545,124.3-662.6,356.5c12-368.4,83.9-734.8,212.1-1080.3c-330.1,188.2-556.4,547.1-584.1,926.1
		c-117.5-409.7-288.1-804.2-506.1-1170.4c75.9,404.2,72.1,823.2-10.9,1226c-179.9-225.2-419.7-402-688-507.2
		c315.2,264.8,517,746.4,557.9,1159L2904,15116.3"/>
	<path id="path3037" inkscape:connector-curvature="0" class="st15" d="M4848.5,14394.5c379-6.8,759.1,119,1059.2,350.5
		c-114.4-283.1-311.2-532.3-560.1-709.2c434.9,31.2,852.9,252.2,1123.5,594.1c-1.8-393.1-140.2-784.2-386.1-1090.8
		c461.5,213.6,854.1,573.3,1107.4,1014.3c75.4-477.7,7.1-977.1-193.8-1416.9c412.5,358.6,706.7,851.2,826.6,1384.5
		c140-405.7,280.1-811.4,420.1-1217.1c87.8,386.8,112.5,787.9,72.6,1182.7c135.7-307.7,316.5-595.4,535-851.2
		c-84.2,381.6-78.6,615.8-14.5,1001.3c216.4-413.8,509.7-615.2,882.3-896.6c-291.6,404.5-481.2,881.8-547.5,1376.1H5732.5
		C5528.2,14833.6,5148.9,14546.4,4848.5,14394.5"/>
	<path id="path3041" inkscape:connector-curvature="0" class="st16" d="M4366.9,14570.9c178.5,98.7,364.1,374.7,475.8,545.4
		c7.6-336.1-153.5-842.7-420.6-1047.1c269.1,130.6,553,274.9,705.8,532.1c-86.7-387.7-258.8-756.1-500.7-1071.3
		c-97.9-127.6-221.8-254.5-381.6-272.8c295.6,32,581,153.1,809.4,343.5c228.4,190.4,399,449.3,483.7,734.3
		c-24.5-352.5,28.9-710.3,155.4-1040.2c21,357.6,42,715.2,63,1072.8c115.2-369.2,358.7-697,679-913.7
		c-226.1,349.4-353.1,762.3-362.1,1178.3c188.1-267.6,450.3-482.6,749.6-614.8c-296.9,267.9-465.3,697.9-455.5,1098.8H4729.8
		C4656.9,14908.1,4531,14718.5,4366.9,14570.9"/>
	<path id="path3045" inkscape:connector-curvature="0" class="st15" d="M3148.4,14353.9c-400.3-7.2-801.7,125.6-1118.7,370.2
		c120.8-299,328.7-562.2,591.6-749c-459.3,33-900.8,266.4-1186.6,627.5c1.8-415.2,148.1-828.3,407.9-1152.2
		c-487.5,225.6-902.2,605.5-1169.7,1071.4c-79.7-504.5-7.5-1032,204.7-1496.5c-435.8,378.7-746.4,899-873.1,1462.3
		c-147.9-428.5-295.7-857.1-443.6-1285.5c-92.8,408.6-118.8,832.3-76.7,1249.2c-143.4-325-334.4-629-565.1-899
		c89,403.1,83.1,650.4,15.3,1057.6c-228.6-437.1-538.3-649.7-931.9-947c308,427.3,508.3,931.4,578.3,1453.5h3634
		C2430.6,14817.7,2831.2,14514.3,3148.4,14353.9"/>
	<path id="path3051" inkscape:connector-curvature="0" class="st20" d="M4079.1,14027.5c-364,125.4-699.7,332.1-975.5,600.7
		c245.7-565.3,521.6-1166.1,1049.6-1484.3c-579.2,102.8-1105.9,471.3-1400.7,980.4c-131.2-477.5-154.4-984.3-67.6-1471.7
		c-294.5,433.3-619.1,1324.6-465.2,1825.6c-248.1-593.7-500-705.3-956.9-877.9c427.6,306.3,610.9,931.7,525.3,1516h1378.4
		C3425,14678.5,3651.3,14302.2,4079.1,14027.5"/>
	<path id="path3053" inkscape:connector-curvature="0" class="st21" d="M4756.9,15116.3c9.4-379.1,200.3-744.3,505.2-969.9
		c-272.2,53.1-580.9,132.5-706.3,379.9c12.8-392.6,89.5-783.2,226.1-1151.6c-351.8,200.7-593.1,583.3-622.6,987.2
		c-125.3-436.7-307.1-857.2-539.5-1247.7c80.8,430.9,76.9,877.5-11.6,1306.9c-191.8-240-447.5-428.4-733.4-540.6
		c336.1,282.4,551.1,795.8,594.7,1235.7L4756.9,15116.3"/>
	<path id="path3055" inkscape:connector-curvature="0" class="st21" d="M7712.3,15216.3c-9.4-381-201.3-747.9-507.7-974.6
		c273.7,53.4,583.9,133.2,709.9,381.9c-12.9-394.6-90-787.1-227.2-1157.4c353.6,201.8,596.1,586.3,625.7,992.3
		c126-439,308.7-861.6,542.3-1253.9c-81.2,433.1-77.2,881.9,11.7,1313.5c192.7-241.2,449.6-430.6,737-543.4
		c-337.7,283.7-553.7,799.6-597.6,1241.7H7712.3"/>
	<g id="g3685" transform="matrix(10,0,0,10,-12838,7926)" inkscape:label="ink_ext_XXXXXX">
	</g>
	<g id="g5343" transform="matrix(7.4999998,0,0,-7.4999998,5412.7413,12263.965)">
		<path id="path5329" inkscape:connector-curvature="0" class="st22" d="M428.4,944.8c15.7,13,36.8,19.7,57.1,16.8
			c13.6-2,26.2-10.1,33.3-22c6.9-11.5,8.8-25.2,10.1-38.3c2.1-22.7,0.3-45.7,4.3-68.3c0.8-5,0.7-10.1,0.7-15.2
			c-18.7-12.1-37.2-24.7-56-36.6c-8.1,0.4-16.3-0.1-24.4,0.3c-15.5,0.7-30.8,2.5-46.2,4.1c-17.8,2.1-36.2,4.4-52.4,12.5
			c-9.9,4.9-18.7,13.2-21.7,24.1c-3.9,14.1-0.3,29,5,42.3c5.8,14.3,17.5,26.9,32.8,30.7c15.9,4.4,32.7-0.3,46.9-7.9
			c-3.7,6.8-7.8,13.8-7.8,21.7C409.4,923.3,417.9,936.1,428.4,944.8 M464.8,934.9c-10-2.8-18.4-10.8-21.5-20.7
			c-3.3-9.7-1.3-20.9,4.9-29.1c6.9-9.3,19.3-14.1,30.7-12c13.6,2.1,24.9,14.1,26.1,27.8c1.2,10.2-2.9,20.9-10.8,27.5
			C486.4,935.3,474.9,937.7,464.8,934.9 M379.4,871c-8.7-2.7-15.9-9.4-19.5-17.7c-4-9.3-3.3-20.4,2-29c5.6-9.5,16.5-15.6,27.6-15.2
			c15-0.3,28.9,11.8,30.9,26.7c2.1,12.1-3.7,25-14,31.6C398.6,872.5,388.4,873.9,379.4,871L379.4,871z"/>
		<path id="path5331" inkscape:connector-curvature="0" class="st23" d="M464.8,934.9c10.1,2.9,21.5,0.5,29.4-6.5
			c7.9-6.7,12-17.3,10.8-27.5c-1.2-13.7-12.5-25.7-26.1-27.8c-11.4-2.1-23.8,2.7-30.7,12c-6.3,8.1-8.2,19.3-4.9,29.1
			C446.4,924.1,454.8,932.1,464.8,934.9 M467.6,925.2c-9.4-2.5-16.3-11.9-15.9-21.6c0.2-10.8,9.5-20.8,20.5-21
			c9.4-0.9,18.8,5.5,21.8,14.4c3.8,9.6-1,21.5-10.1,26.3C479.1,926.3,473,926.4,467.6,925.2z"/>
		<path id="path5333" inkscape:connector-curvature="0" class="st24" d="M467.6,925.2c5.4,1.2,11.5,1,16.3-1.9
			c9.1-4.8,13.9-16.6,10.1-26.3c-3-8.9-12.4-15.3-21.8-14.4c-11,0.2-20.3,10.2-20.5,21C451.4,913.4,458.3,922.7,467.6,925.2z"/>
		<path id="path5335" inkscape:connector-curvature="0" class="st25" d="M379.4,871c9,2.9,19.2,1.5,27.1-3.7
			c10.3-6.6,16.1-19.5,14-31.6c-2-14.8-15.9-27-30.9-26.7c-11.1-0.5-22,5.7-27.6,15.2c-5.3,8.6-6,19.8-2,29
			C363.5,861.6,370.8,868.3,379.4,871 M372.1,854c-4.2-4.5-5.3-11.2-4.4-17.1c1.5-9.3,9.7-16.8,19-17.8c8.3-1,16.9,3.3,21.1,10.5
			c5.6,9.2,3.1,22.6-6,28.7C393.2,865.7,378.4,863.5,372.1,854L372.1,854z"/>
		<path id="path5337" inkscape:connector-curvature="0" class="st26" d="M608,866.6c3.8,2.7,8.5,4.1,13.2,2.9
			c3.7-2.6,5.8-9.2,1-11.8c-54.5-38.8-109-77.6-163.4-116.4c-5.5-3.5-11.7-7.1-18.5-6.1c-6.3,1-9.7,9.4-6.1,14.6
			c1.9,3.4,5.1,5.7,8.2,7.8c11.8,7.9,23.9,15.5,35.6,23.6c18.8,11.9,37.3,24.5,56,36.6C558.6,834.2,583.3,850.3,608,866.6z"/>
		<path id="path5339" inkscape:connector-curvature="0" class="st27" d="M372.1,854c6.3,9.5,21,11.6,29.7,4.3
			c-6.1,1.8-12.6,3-18.9,1.8C379,858.8,375.6,856.2,372.1,854z"/>
		<path id="path5341" inkscape:connector-curvature="0" class="st24" d="M372.1,854c3.5,2.1,6.8,4.8,10.8,6c6.3,1.2,12.8,0,18.9-1.8
			c9.1-6,11.6-19.5,6-28.7c-4.1-7.2-12.8-11.5-21.1-10.5c-9.3,1-17.5,8.5-19,17.8C366.9,842.8,368,849.5,372.1,854L372.1,854z"/>
	</g>
	<g id="g5407" transform="matrix(7.4999998,0,0,-7.4999998,-4493.7051,14126.079)">
		<path id="path5345" inkscape:connector-curvature="0" class="st28" d="M1241.3,1544.4c1.7,6.6,9.7,10.5,15.9,7.6
			c4.9-1.8,7-7.1,7.5-11.9c13-7.7,22.3-21,25.5-35.7c-2.2-0.1-4.4-0.2-6.6-0.3c-3.3,12-10.7,23.3-21.7,29.7c-2.8-2.5-6.1-4.7-10-4.3
			C1244.7,1529.6,1239.1,1537.5,1241.3,1544.4z"/>
		<path id="path5347" inkscape:connector-curvature="0" class="st28" d="M1200.9,1532.6c2.6,6.8,11.9,9.4,17.7,4.9
			c4.2-2.8,5.3-8.1,4.7-12.9c10.6-7.6,18.6-18.8,22.1-31.4c-2.1-1.7-4.3-3.3-6.8-4.3c0.2,0.3,0.6,1,0.9,1.3c1,0,4.7,1.6,2,2.4
			c-0.6-0.3-1.8-1-2.4-1.3c-3.2,11-10,20.8-19.2,27.5c-3.3-1.6-7-3.5-10.8-2.3C1202.1,1517.9,1197.9,1526.3,1200.9,1532.6
			L1200.9,1532.6z"/>
		<path id="path5349" inkscape:connector-curvature="0" class="st29" d="M1283.7,1504c2.2,0.1,4.4,0.2,6.6,0.3
			c22.9-0.5,45.4-10.5,61.1-27.2c15.9-16.3,24.9-39.2,24.2-62c0.2-21.8-9.2-43-23.6-59.1c-1.1-0.9-2.3-1.7-3.4-2.6
			c-2.2,0.1-3.2-0.9-3-3c-5.1-4.6-10.7-8.6-16.9-11.6c-7-0.8-13.1-4.8-20.1-6c-11.2-2.2-22.8-4.4-34.1-2c-4,0.8-8.1,1.4-12.2,1.9
			c-36.2,9.8-63.9,46.5-61.9,84.2c6-4.1,15-4,20.3,1.2c6.2,5.3,5.6,16.5-1.1,21c-4.3,3.4-10,3.8-15.2,2.7c1,8.7,5.9,16.4,10.4,23.6
			c6.3,9.2,14.3,17.5,23.7,23.5c2.6,1,4.8,2.5,6.8,4.3C1256.9,1500,1270.3,1503.8,1283.7,1504 M1288.3,1432.3
			c-2.5-6.7,1.8-14.2,8-17c3.6-2,7.8-1.1,11.7-0.9c5.3,2.6,10.5,7.3,9.9,13.8c0.5,6.9-5.4,11.8-11.3,14
			C1299.3,1443.4,1290.8,1439.8,1288.3,1432.3 M1241.1,1397.7c4-8.9,14.5-14.7,24.2-12.3c6.3,1.7,12.2,5.9,14.9,12
			c-1.4,0.8-2.8,1.6-4.1,2.4c-3.4-5-8.5-9.6-14.9-9.7c-5.9-0.3-10.9,3.5-14.5,7.8C1245.3,1399.7,1242.8,1398,1241.1,1397.7
			L1241.1,1397.7z"/>
		<path id="path5351" inkscape:connector-curvature="0" class="st30" d="M1239,1491.4c0.6,0.3,1.8,1,2.4,1.3c2.7-0.8-1-2.4-2-2.4
			L1239,1491.4z"/>
		<path id="path5353" inkscape:connector-curvature="0" class="st31" d="M1424.9,1450.2c7.6,2.8,16.1,4.2,24,1.7
			c7.3-2.5,11.4-9.9,13.4-16.9c4.7-17.2,0.3-35.9-9.3-50.6c-7.5-1.9-14.6-5.1-21.1-9.3c-15.4-9.5-30.4-20-43.1-33
			c-0.4,0.2-1.3,0.7-1.7,0.9c-3,2-5.9,4.1-9.4,5c0.4,19.6,3.3,39.2,8.4,58.1C1390.7,1426,1405.7,1443.1,1424.9,1450.2z"/>
		<path id="path5355" inkscape:connector-curvature="0" class="st32" d="M1204.5,1441.9c5.2,1,10.9,0.7,15.2-2.7
			c6.8-4.5,7.3-15.7,1.1-21c-5.4-5.3-14.3-5.3-20.3-1.2c-3.7,3.1-6.2,8-5.4,12.9C1195.4,1435.4,1199.9,1439.3,1204.5,1441.9z"/>
		<path id="path5357" inkscape:connector-curvature="0" class="st33" d="M1288.3,1432.3c2.4,7.5,11,11.1,18.4,9.9
			c5.8-2.3,11.7-7.1,11.3-14c0.6-6.5-4.6-11.2-9.9-13.8c-3.9-0.1-8.1-1-11.7,0.9C1290.1,1418.1,1285.8,1425.6,1288.3,1432.3z"/>
		<path id="path5359" inkscape:connector-curvature="0" class="st34" d="M1241.1,1397.7c1.7,0.3,4.1,2,5.6,0.2
			c3.5-4.3,8.6-8.1,14.5-7.8c6.4,0.1,11.5,4.7,14.9,9.7c1.3-0.8,2.7-1.6,4.1-2.4c-2.7-6.1-8.6-10.3-14.9-12
			C1255.6,1383.1,1245.1,1388.8,1241.1,1397.7L1241.1,1397.7z"/>
		<path id="path5361" inkscape:connector-curvature="0" class="st35" d="M1453,1384.4c15,3.7,31.5,1.7,45-5.9
			c6.3-3.6,12.3-8.7,14.7-15.8c2.3-7.7-1-15.7-5.1-22.1c-11.3-16.8-31.5-27-51.7-27.1c-16.1,0.2-32,3.3-47.7,6.9
			c-1.4,2-2.9,4.1-4.2,6.1c-0.3,0.4-0.9,1.3-1.1,1.7c-3.5,5.8-8.6,10.4-14.3,13.9c12.7,13,27.7,23.5,43.1,33
			C1438.4,1379.3,1445.5,1382.5,1453,1384.4z"/>
		<path id="path5363" inkscape:connector-curvature="0" class="st32" d="M1348.5,1353.4c1.1,0.9,2.2,1.7,3.4,2.6
			c8.1-1.2,15.9-3.7,23.3-7.2c-2.4-1.7-4.7-3.4-7.1-5.1c-0.5-0.2-1.5-0.7-2-0.9c-6.6-0.4-12.2-4.1-18.1-6.6
			c-3.1-1.3-5.8-3.1-8.3-5.2l-0.1-0.1c-3.7-0.2-7.6-1.1-9.5-4.6c-11.5-5.1-22.8-10.7-34.5-15.4c1.8,6.2,3.4,12.6,7,18
			c0.2,0.3,0.5,0.9,0.7,1.1c8.9,1.3,17.6,4.3,25.5,8.7c6.1,3.1,11.8,7.1,16.9,11.6C1347.1,1350.9,1348.1,1351.9,1348.5,1353.4
			L1348.5,1353.4z"/>
		<path id="path5365" inkscape:connector-curvature="0" class="st36" d="M1345.5,1350.4c-0.2,2.2,0.8,3.2,3,3
			C1348.1,1351.9,1347.1,1350.9,1345.5,1350.4z"/>
		<path id="path5367" inkscape:connector-curvature="0" class="st30" d="M1368,1343.7c2.4,1.6,4.7,3.4,7.1,5.1
			c0.6-0.2,1.9-0.6,2.5-0.7c3.5-0.9,6.5-3,9.4-5l-2.2,0.4l-0.1,0c-2.3,1.4-4.4,4.1-7.3,3.9C1374.2,1346.4,1371.1,1345,1368,1343.7
			L1368,1343.7z"/>
		<path id="path5369" inkscape:connector-curvature="0" class="st37" d="M1368,1343.7c3.1,1.2,6.2,2.7,9.4,3.6
			c2.9,0.2,5-2.4,7.3-3.9c-2.6,0.5-5.2,1.1-7.7,1.9c-21.3-8.7-41.9-18.9-62.9-28.2c-5.8-2.5-11.6-5.2-17.3-8.1
			c-2.9-8.8-5.1-18.8-0.4-27.4c26,11.5,51.8,23.5,77.8,35.3c5.5,2.4,10.9,5.7,17,6.4c-31.7-15.3-64-29.4-96-44.1
			c-2.1,3.6-1.5,7.8-1.7,11.7c0.1,6.7-0.5,13.6,1.8,20c11.7,4.8,23,10.3,34.5,15.4c3.3,1.3,6.5,2.8,9.5,4.6l0.1,0.1
			c9.1,3.2,17.7,7.5,26.4,11.8C1366.5,1343.1,1367.5,1343.5,1368,1343.7L1368,1343.7z"/>
		<path id="path5371" inkscape:connector-curvature="0" class="st38" d="M1314.1,1317.1c21,9.3,41.6,19.5,62.9,28.2
			c2.5-0.7,5.1-1.3,7.7-1.9l0.1,0c4-5.2,9.9-8.3,14.5-12.9c-1.5-2.9-4.3-4.7-6.7-6.8c-0.3-0.1-1-0.4-1.4-0.5
			c-6.2-0.6-11.5-3.9-17-6.4c-25.9-11.7-51.8-23.7-77.8-35.3c-4.7,8.6-2.5,18.6,0.4,27.4C1302.5,1311.9,1308.3,1314.6,1314.1,1317.1
			L1314.1,1317.1z"/>
		<path id="path5373" inkscape:connector-curvature="0" class="st39" d="M1347.9,1336.3c5.9,2.5,11.5,6.2,18.1,6.6
			c-8.6-4.3-17.3-8.6-26.4-11.8C1342.1,1333.2,1344.8,1335,1347.9,1336.3L1347.9,1336.3z"/>
		<path id="path5375" inkscape:connector-curvature="0" class="st40" d="M1384.8,1343.5l2.2-0.4c0.4-0.2,1.3-0.7,1.7-0.9
			c5.7-3.5,10.8-8.1,14.3-13.9l-0.7-0.3c-1,0.9-2,1.8-3,2.7C1394.7,1335.2,1388.8,1338.3,1384.8,1343.5L1384.8,1343.5z"/>
		<path id="path5377" inkscape:connector-curvature="0" class="st41" d="M1308.6,1332.8c6.9,1.2,13,5.2,20.1,6
			c-7.9-4.4-16.6-7.4-25.5-8.7c-0.2-0.3-0.5-0.8-0.7-1.1c-8.4-0.6-16.8-1.6-25.2-0.1c-5,0.9-10.6,1-14.9,3.9c4.1-0.5,8.1-1,12.2-1.9
			C1285.8,1328.4,1297.5,1330.7,1308.6,1332.8z"/>
		<path id="path5379" inkscape:connector-curvature="0" class="st42" d="M1330,1326.4c2,3.5,5.8,4.4,9.5,4.6
			C1336.4,1329.2,1333.3,1327.7,1330,1326.4z"/>
		<path id="path5381" inkscape:connector-curvature="0" class="st43" d="M1399.3,1330.6c1-0.9,1.9-1.8,3-2.7
			c-3.2-1.4-6.4-2.9-9.6-4.1C1395,1325.9,1397.8,1327.7,1399.3,1330.6L1399.3,1330.6z"/>
		<path id="path5383" inkscape:connector-curvature="0" class="st44" d="M1402.3,1327.9l0.7,0.3c0.3-0.4,0.9-1.3,1.1-1.7
			c-22.6-9.3-44.5-20.2-66.8-30c-14-6.6-28.4-12.6-42.3-19.4c0,0.8,0.1,1.5,0.3,2.2c32,14.7,64.3,28.7,96,44.1
			c0.3,0.1,1,0.4,1.4,0.5C1395.9,1325,1399.1,1326.5,1402.3,1327.9L1402.3,1327.9z"/>
		<path id="path5385" inkscape:connector-curvature="0" class="st32" d="M1337.3,1296.4c22.3,9.9,44.2,20.7,66.8,30
			c1.3-2,2.8-4.1,4.2-6.1c3-4.4,5.3-9.2,7.3-14.1c-5.5-2.8-11.2-5.2-16.8-7.8c-31.8-13.8-63.2-28.6-94.8-42.8
			c-4,6.7-6.7,13.9-9,21.3C1309,1283.9,1323.3,1289.8,1337.3,1296.4z"/>
		<path id="path5387" inkscape:connector-curvature="0" class="st38" d="M1415.7,1306.3l0.2,0.1c0.8-4.2,2.8-8.1,2.9-12.4
			c-0.9-4.9,0.2-9.7,0.6-14.5c-2.2-2.5-5.3-3.7-8.2-5c-9-3.8-17.8-8.1-26.8-12c-3.1-1.5-6.7-2.5-8.5-5.6c-0.4-0.2-1.2-0.6-1.6-0.8
			c-2.5,0-5-0.3-7.2-1.5c-11-5.1-22.1-10.1-33.2-15c-2.1-0.8-3.6-2.4-5.1-4c-1.5-0.8-3-1.7-4.5-2.5c-6.4,6.4-13.1,12.5-18.5,19.8
			c4.2,3.8,9.5,5.9,14.6,8.1c24.7,11.3,49.6,22.3,74.3,33.7c1.8,0.6,3,2.2,4.1,3.7C1404.5,1301.1,1410.1,1303.5,1415.7,1306.3
			L1415.7,1306.3z"/>
		<path id="path5389" inkscape:connector-curvature="0" class="st45" d="M1304,1255.7c31.6,14.2,63,28.9,94.8,42.8
			c-1.1-1.5-2.3-3-4.1-3.7c-24.7-11.4-49.5-22.4-74.3-33.7c-5.1-2.2-10.4-4.3-14.6-8.1C1305.2,1253.9,1304.6,1254.9,1304,1255.7
			L1304,1255.7z"/>
		<path id="path5391" inkscape:connector-curvature="0" class="st46" d="M1418.8,1294c2.8-5.2,1.6-11.4,2.1-17.1
			c-15.2-6.3-29.8-13.8-45-20c1.9,3.1,5.5,4.1,8.5,5.6c9,3.9,17.8,8.2,26.8,12c2.9,1.3,6,2.5,8.2,5
			C1419,1284.3,1418,1289.1,1418.8,1294L1418.8,1294z"/>
		<path id="path5393" inkscape:connector-curvature="0" class="st32" d="M1375.8,1256.9c15.2,6.2,29.9,13.7,45,20
			c0.1-9.8,0.1-19.7-0.5-29.5c-0.2,0.5-0.7,1.5-0.9,1.9c-25.5-11.1-51.6-20.8-77.2-31.7c-6,5.2-12.2,10.1-18,15.6
			c1.5,0.8,3,1.7,4.5,2.5c15.4,6.2,30.5,13.2,45.4,20.5C1374.6,1256.3,1375.4,1256.7,1375.8,1256.9L1375.8,1256.9z"/>
		<path id="path5395" inkscape:connector-curvature="0" class="st47" d="M1367,1254.7c2.2,1.1,4.7,1.5,7.2,1.5
			c-14.9-7.2-30-14.3-45.4-20.5c1.5,1.6,3,3.2,5.1,4C1344.9,1244.5,1356,1249.6,1367,1254.7L1367,1254.7z"/>
		<path id="path5397" inkscape:connector-curvature="0" class="st48" d="M1342.4,1217.6c25.6,10.9,51.7,20.6,77.2,31.7
			c0.2-0.5,0.6-1.4,0.9-1.9c-20.6-8.2-41.3-16.3-61.6-25.2c-4.6-1.6-9-3.7-13.5-5.4C1344.6,1217,1343.1,1217.4,1342.4,1217.6
			L1342.4,1217.6z"/>
		<path id="path5399" inkscape:connector-curvature="0" class="st49" d="M1358.8,1222.2c20.3,8.9,41,16.9,61.6,25.2
			c0.2-4.6-0.7-9.2-1.6-13.7c-0.1,3.6-0.4,7.2-0.6,10.8c-12.9-4.3-25.3-10-38-15C1373.1,1226.9,1366.5,1222.7,1358.8,1222.2
			L1358.8,1222.2z"/>
		<path id="path5401" inkscape:connector-curvature="0" class="st38" d="M1380.2,1229.5c12.7,4.9,25.1,10.6,38,15
			c0.2-3.6,0.5-7.2,0.6-10.8c-0.4-6.3-1.8-12.6-2.7-18.9c-2.5-0.9-5-1.8-7.5-2.7c-8-0.5-14.9-4.9-22.3-7.5
			c-4.1-1.9-9.2-2.4-11.8-6.5c-0.7-0.3-2-0.8-2.7-1.1c-6.7,4-13,8.6-19.3,13c-2.7,1.9-5.7,3.7-7.2,6.7c4.5,1.7,8.9,3.8,13.5,5.4
			C1366.5,1222.7,1373.1,1226.9,1380.2,1229.5z"/>
		<path id="path5403" inkscape:connector-curvature="0" class="st50" d="M1408.6,1212.1c2.5,0.9,5,1.8,7.5,2.7
			c-2.4-12.4-5.3-24.7-9.2-36.8c-12.1,5.4-23.7,12-35,19c0.7,0.3,2,0.8,2.7,1.1C1385.9,1202.5,1397.4,1206.9,1408.6,1212.1
			L1408.6,1212.1z"/>
		<path id="path5405" inkscape:connector-curvature="0" class="st51" d="M1386.3,1204.6c7.4,2.6,14.3,7,22.3,7.5
			c-11.1-5.2-22.6-9.6-34.1-14C1377.1,1202.2,1382.2,1202.7,1386.3,1204.6L1386.3,1204.6z"/>
	</g>
	<path id="path5409" inkscape:connector-curvature="0" class="st52" d="M4177.5,1066.2c16.9-45.9,63.1-79.5,112.8-75.7
		c85.6,4.6,152.5,68.8,204.6,131.1c38.2-50.8,87.5-94.9,146.8-119.3c40.6-16,91.1-18.5,127.8,8.6c41.2,31.2,55.6,85,58.8,134.3
		c3.1,113.9-43.3,224.2-110.6,314.3c-45.3,56.3-101.6,109.8-173.5,128.3c-55.8,8.6-115.7,4.6-164.1-26.9
		c-91.8-59.1-156.3-153.9-193.2-255.4C4160.4,1229.4,4147.6,1143.1,4177.5,1066.2L4177.5,1066.2z"/>
	<path id="path5411" inkscape:connector-curvature="0" class="st52" d="M5322.6,1654.6c9.4-58,63.6-108,124.2-101.1
		c79,6.1,142.1,63.1,191.5,120.6c4.4,0,13.3,0.1,17.7,0.1c41.6-47.9,90.1-94,151.9-113.6c43.9-14.3,97.8-9.7,129.7,27.1
		c42.4,48.6,48.2,118.4,42.3,180.2c-17.4,98.3-56.7,193.9-121.9,270.4c-43.5,49.1-94.9,95.8-160.2,112.1
		c-51.3,7.4-106.9,7-152.6-20.4c-102.9-58-169.5-162.8-210-271C5319.7,1792.3,5299.9,1722.1,5322.6,1654.6L5322.6,1654.6z"/>
	<g id="g5633" transform="matrix(7.4999998,0,0,-7.4999998,-10937.29,14683.132)">
		<path id="path5603" inkscape:connector-curvature="0" class="st53" d="M1841.2,631.1c1.4,6.1,10.9,6.9,13.5,1.2
			c2.4-4.1-0.5-8.7-4.3-10.7c0-9.1-0.3-18.1-0.2-27.2c17.9-1,34.2-13.5,39.7-30.6c-32.1,0.3-63.3-16.2-82.2-42
			c-11.5,15-11,36.8-0.4,52.1c-7.5,5.6-15.3,10.9-23,16.3c-3.5-2.3-8.9-2.6-11.4,1.3c-3.8,5,1.2,12.8,7.3,11.3
			c4.7-0.6,6.4-5.7,5.9-9.8c7.8-5.4,15.5-10.9,23.3-16.3c9.2,11,23.2,17.8,37.6,17.8c-0.3,9,0.3,17.9,0,26.9
			C1843.1,622.7,1839.7,626.7,1841.2,631.1L1841.2,631.1z"/>
		<path id="path5605" inkscape:connector-curvature="0" class="st54" d="M1967.1,566.3c2.5-1.3,5-2.6,7.5-4.1
			c-4.9-8.3-9.3-16.9-14.2-25.1c-2.1,1.9-4.3,3.7-6.5,5.4C1958.3,550.5,1962.8,558.3,1967.1,566.3L1967.1,566.3z"/>
		<path id="path5607" inkscape:connector-curvature="0" class="st55" d="M1889.9,563.8c23,0.5,45.7-7.7,64-21.3
			c2.2-1.7,4.4-3.5,6.5-5.4c8-7.4,15.1-15.8,20.6-25.3c1.4-2.4,2.4-5.2,4.8-6.9c0.4-2.7,1.1-5.4,2.3-7.9c6.3-14.7,8.5-31.1,7.5-47.1
			c-0.2-2.8-0.6-5.6-1-8.4c-3.2-20.6-12.5-40.2-26.9-55.4c-15-16-35.3-26.9-56.8-30.7c-20.2-3.4-41.4-0.7-60.1,7.6
			c-3,1.5-5.8,3.1-8.6,4.7c-15.5,8.1-28.4,20.9-37.7,35.7c-1.5,2.4-3,4.7-4.6,7c-5.5,12.5-10.4,25.5-11.4,39.3
			c-0.3,2.7-0.5,5.3-0.7,8c-0.5,0.1-1.7,0.3-2.2,0.5c0.5,0.2,1.5,0.6,2.1,0.8c0.2,22.3,6.8,44.7,19.9,62.9
			C1826.6,547.6,1857.8,564.1,1889.9,563.8 M1892.8,550.3c-5.6-1.5-10.5-6.8-10.6-12.7c-1.1-7.6,5.9-14.6,13.2-15.4
			c9.1-1.3,17.7,7.8,15.7,16.8C1909.7,547.3,1900.8,552.7,1892.8,550.3 M1852.5,543.7c-2.5-0.8-0.2-3.9,0.4-5.4
			c24.6-47.8,49.1-95.7,73.9-143.4c0.7-1,2.6-4.7,3.7-2.1c-0.2,3.2-2.5,5.8-3.8,8.6c-23.8,46.4-47.7,92.7-71.6,139.1
			C1854.2,541.4,1854,544.1,1852.5,543.7 M1943.2,519.9c-7.4-1.7-13.3-7.6-15.7-14.7c-2.8-9.3,1.1-20.3,9.6-25.3
			c8.1-5,19.1-3.5,26.4,2.2c4.9,5,7.6,12.3,6.5,19.4C1969.1,514.1,1955.3,523.6,1943.2,519.9 M1824.8,515.6
			c-10.1-2.4-13-17.4-5.4-24c6.9-7.4,20.5-3.7,23.9,5.4c1.2,4.9,0.8,10.6-2.9,14.4C1836.8,516,1830.3,516.9,1824.8,515.6
			 M1823.4,458.4c-4.1-1.3-8.1-3.3-10.3-7.1c-8.7-10.4-4.7-29.1,8.5-33.7c13.1-6.4,30.4,3.9,30.4,18.6
			C1854,451.1,1837.3,463.9,1823.4,458.4 M1945.9,446.7c-6.3-2.2-11.3-7.7-12.2-14.4c-2.3-10.5,6.4-21.7,17.3-21.9
			c10.5-1.1,20.8,8.5,19.7,19.2C1971.3,441.9,1957,451.3,1945.9,446.7 M1878,411.9c-7.3-2.7-12.5-10.3-11.9-18.1
			c-0.1-10.5,10.3-19.4,20.7-17.9c9.9,0.6,17.9,10.5,16.6,20.4C1902.9,408.2,1889,416.6,1878,411.9L1878,411.9z"/>
		<path id="path5609" inkscape:connector-curvature="0" class="st56" d="M1892.8,550.3c8,2.4,16.9-3,18.3-11.3
			c2-9-6.7-18.1-15.7-16.8c-7.3,0.9-14.3,7.8-13.2,15.4C1882.3,543.5,1887.2,548.9,1892.8,550.3L1892.8,550.3z"/>
		<path id="path5611" inkscape:connector-curvature="0" class="st57" d="M1852.5,543.7c1.4,0.4,1.7-2.3,2.6-3.3
			c23.9-46.4,47.8-92.7,71.6-139.1c1.3-2.8,3.6-5.4,3.8-8.6c-1.1-2.6-3,1.1-3.7,2.1c-24.7,47.7-49.3,95.6-73.9,143.4
			C1852.4,539.8,1850,543,1852.5,543.7L1852.5,543.7z"/>
		<path id="path5613" inkscape:connector-curvature="0" class="st53" d="M1943.2,519.9c12.1,3.7,25.9-5.7,26.9-18.3
			c1-7-1.6-14.3-6.5-19.4c-7.4-5.7-18.3-7.3-26.4-2.2c-8.5,4.9-12.4,16-9.6,25.3C1929.9,512.3,1935.8,518.2,1943.2,519.9
			L1943.2,519.9z"/>
		<path id="path5615" inkscape:connector-curvature="0" class="st58" d="M1824.8,515.6c5.5,1.3,12,0.4,15.7-4.2
			c3.7-3.8,4.1-9.5,2.9-14.4c-3.5-9.1-17-12.8-23.9-5.4C1811.8,498.2,1814.7,513.2,1824.8,515.6L1824.8,515.6z"/>
		<path id="path5617" inkscape:connector-curvature="0" class="st59" d="M1985.8,504.8c9.5,3.5,19.3,6.4,29,9.4
			c0.8-2.6,1.6-5.1,2.5-7.7c-9.6-3.4-19.5-6.2-29.1-9.5C1986.9,499.4,1986.2,502.1,1985.8,504.8z"/>
		<path id="path5619" inkscape:connector-curvature="0" class="st60" d="M1760.8,461.2c8.3-1,16.7-1.5,24.9-3.1
			c0.5-0.1,1.7-0.4,2.2-0.5c0.2-2.6,0.4-5.3,0.7-8c-9.3,1.1-18.7,1.9-27.9,3.3C1759.2,455.1,1760.9,458.6,1760.8,461.2L1760.8,461.2
			z"/>
		<path id="path5621" inkscape:connector-curvature="0" class="st53" d="M1823.4,458.4c13.9,5.5,30.6-7.3,28.5-22.2
			c0-14.7-17.3-24.9-30.4-18.6c-13.2,4.6-17.2,23.3-8.5,33.7C1815.3,455.1,1819.3,457.1,1823.4,458.4L1823.4,458.4z"/>
		<path id="path5623" inkscape:connector-curvature="0" class="st61" d="M1994.7,441.4c0.4,2.8,0.7,5.6,1,8.4
			c12.1-3.4,24.2-7,36.4-10.3c-0.7-2.7-1.4-5.4-2.1-8.1C2018.1,434.5,2006.4,438.1,1994.7,441.4L1994.7,441.4z"/>
		<path id="path5625" inkscape:connector-curvature="0" class="st58" d="M1945.9,446.7c11.1,4.5,25.4-4.8,24.7-17
			c1.1-10.7-9.1-20.3-19.7-19.2c-10.9,0.1-19.6,11.3-17.3,21.9C1934.7,439,1939.6,444.5,1945.9,446.7L1945.9,446.7z"/>
		<path id="path5627" inkscape:connector-curvature="0" class="st53" d="M1878,411.9c10.9,4.7,24.9-3.7,25.4-15.6
			c1.3-9.9-6.7-19.7-16.6-20.4c-10.4-1.5-20.7,7.4-20.7,17.9C1865.5,401.6,1870.8,409.2,1878,411.9L1878,411.9z"/>
		<path id="path5629" inkscape:connector-curvature="0" class="st62" d="M1775.6,392.4c8.1,6,16.1,12.2,24.4,18.1
			c1.5-2.3,3.1-4.6,4.6-7c-8.1-5.9-15.9-12-24-17.8C1778.9,387.9,1777.3,390.2,1775.6,392.4L1775.6,392.4z"/>
		<path id="path5631" inkscape:connector-curvature="0" class="st62" d="M1842.2,367.7c2.8-1.6,5.7-3.3,8.6-4.7
			c-4.1-11.1-7.8-22.3-11.9-33.4c-2.6,0.9-5.2,1.9-7.8,2.9c3.6,10.1,7.1,20.3,10.8,30.3C1842.5,364.4,1842.7,366.1,1842.2,367.7z"/>
	</g>
</g>
</svg>
