<?xml version="1.0" encoding="UTF-8" standalone="no"?>
<!-- Created with Inkscape (http://www.inkscape.org/) -->
<svg xmlns:inkscape="http://www.inkscape.org/namespaces/inkscape" xmlns:rdf="http://www.w3.org/1999/02/22-rdf-syntax-ns#" xmlns="http://www.w3.org/2000/svg" xmlns:xlink="http://www.w3.org/1999/xlink" xmlns:ns1="http://sozi.baierouge.fr" xmlns:cc="http://creativecommons.org/ns#" xmlns:sodipodi="http://sodipodi.sourceforge.net/DTD/sodipodi-0.dtd" xmlns:dc="http://purl.org/dc/elements/1.1/" id="svg2" xml:space="preserve" viewBox="0 0 39.354 84.827" version="1.1" inkscape:version="0.91 r13725">
  <defs id="defs6">
    <clipPath id="clipPath56">
      <path id="path58" d="m15.988 41.803c-1.707-0.028-3.187 0.187-4.441 0.64-1.281 0.481-1.961 1.055-2.039 1.719-0.11 0.668 0.414 1.254 1.558 1.762 1.149 0.508 2.575 0.785 4.282 0.84 1.707 0.027 3.183-0.188 4.437-0.641 1.281-0.453 1.961-1.012 2.043-1.68 0.106-0.695-0.414-1.293-1.562-1.8-1.145-0.532-2.571-0.813-4.278-0.84z" inkscape:connector-curvature="0"/>
    </clipPath>
    <clipPath id="clipPath64">
      <path id="path66" d="m26.632-19.18h7.9161v6.9203h-7.9161v-6.9203z" inkscape:connector-curvature="0"/>
    </clipPath>
    <radialGradient id="radialGradient68" gradientUnits="userSpaceOnUse" cy="-15.607" cx="30.065" r="3.0773">
      <stop id="stop70" style="stop-color:#ffffff;stop-opacity:.64710" offset="0"/>
      <stop id="stop72" style="stop-color:#ffffff;stop-opacity:0" offset=".9569"/>
      <stop id="stop74" style="stop-color:#ffffff;stop-opacity:0" offset="1"/>
    </radialGradient>
    <mask id="mask76">
      <g id="g78">
        <g id="g80" clip-path="url(#clipPath64)">
          <path id="path82" style="fill:url(#radialGradient68)" d="m26.632-19.18h7.9161v6.9203h-7.9161v-6.9203z" inkscape:connector-curvature="0"/>
        </g>
      </g>
    </mask>
    <radialGradient id="radialGradient86" gradientUnits="userSpaceOnUse" cy="-15.607" cx="30.065" r="3.0773">
      <stop id="stop88" style="stop-color:#000000" offset="0"/>
      <stop id="stop90" style="stop-color:#000000" offset="1"/>
    </radialGradient>
    <linearGradient id="linearGradient104" y2="18.02" gradientUnits="userSpaceOnUse" x2="-14.305" gradientTransform="matrix(-.05424 .79816 .79816 .05424 -.013094 67.844)" y1="18.02" x1="-31.645">
      <stop id="stop106" style="stop-color:#222a02" offset="0"/>
      <stop id="stop108" style="stop-color:#2c3701" offset=".1294"/>
      <stop id="stop110" style="stop-color:#495b00" offset=".36470"/>
      <stop id="stop112" style="stop-color:#607800" offset=".53330"/>
      <stop id="stop114" style="stop-color:#3f5000" offset=".94120"/>
      <stop id="stop116" style="stop-color:#3b4a00" offset="1"/>
    </linearGradient>
    <clipPath id="clipPath124">
      <path id="path126" d="m6 43.861h19v8h-19v-8z" inkscape:connector-curvature="0"/>
    </clipPath>
    <mask id="mask128">
      <g id="g130">
        <g id="g132" clip-path="url(#clipPath124)">
          <path id="path134" style="fill:#000000;fill-opacity:.5" d="m6 43.861h19v8h-19v-8z" inkscape:connector-curvature="0"/>
        </g>
      </g>
    </mask>
    <clipPath id="clipPath140">
      <path id="path142" d="m6 43.861h19v8h-19v-8z" inkscape:connector-curvature="0"/>
    </clipPath>
    <clipPath id="clipPath144">
      <path id="path146" d="m6 44h19v8h-19v-8z" inkscape:connector-curvature="0"/>
    </clipPath>
    <linearGradient id="linearGradient174" y2="17.992" gradientUnits="userSpaceOnUse" x2="-14.302" gradientTransform="matrix(-.05424 .79816 .79816 .05424 -.013094 67.844)" y1="17.992" x1="-31.642">
      <stop id="stop176" style="stop-color:#222a02" offset="0"/>
      <stop id="stop178" style="stop-color:#2c3701" offset=".17650"/>
      <stop id="stop180" style="stop-color:#475b00" offset=".50590"/>
      <stop id="stop182" style="stop-color:#4a5f00" offset=".53330"/>
      <stop id="stop184" style="stop-color:#3b4a00" offset="1"/>
    </linearGradient>
    <clipPath id="clipPath226">
      <path id="path228" d="m7 43.861h18v12h-18v-12z" inkscape:connector-curvature="0"/>
    </clipPath>
    <mask id="mask230">
      <g id="g232">
        <g id="g234" clip-path="url(#clipPath226)">
          <path id="path236" style="fill:#000000;fill-opacity:.30080" d="m7 43.861h18v12h-18v-12z" inkscape:connector-curvature="0"/>
        </g>
      </g>
    </mask>
    <clipPath id="clipPath242">
      <path id="path244" d="m7 43.861h18v12h-18v-12z" inkscape:connector-curvature="0"/>
    </clipPath>
    <clipPath id="clipPath246">
      <path id="path248" d="m7 44h18v12h-18v-12z" inkscape:connector-curvature="0"/>
    </clipPath>
    <linearGradient id="linearGradient254" y2="-558.01" gradientUnits="userSpaceOnUse" x2="16867" gradientTransform="matrix(-.05432 .79816 -.79816 -.05432 486.07 -13430)" y1="-558.01" x1="16842">
      <stop id="stop256" style="stop-color:#222a02" offset="0"/>
      <stop id="stop258" style="stop-color:#2c3701" offset=".17650"/>
      <stop id="stop260" style="stop-color:#475b00" offset=".50590"/>
      <stop id="stop262" style="stop-color:#4a5f00" offset=".53330"/>
      <stop id="stop264" style="stop-color:#3b4a00" offset="1"/>
    </linearGradient>
  </defs>
  <g id="g10" transform="matrix(1.25 0 0 -1.25 0 84.827)">
    <g id="g12">
      <path id="path14" style="fill-rule:evenodd;fill:#222700" d="m24.066 50.963c-0.371-0.188-0.668-0.106-0.878 0.242-0.083 0.16-0.094 0.317-0.04 0.477 0.051 0.187 0.161 0.32 0.317 0.402l4.723 2.641c0.398 0.183 0.691 0.093 0.878-0.282 0.106-0.132 0.122-0.293 0.039-0.48-0.05-0.16-0.16-0.281-0.32-0.359l-4.719-2.641z" inkscape:connector-curvature="0"/>
      <path id="path16" style="fill-rule:evenodd;fill:#887e53" d="m30.465 53.283c-0.426-0.238-0.891-0.281-1.399-0.121-0.507 0.137-0.867 0.414-1.078 0.84-0.242 0.453-0.293 0.906-0.16 1.363 0.16 0.477 0.465 0.84 0.918 1.078 0.453 0.215 0.934 0.239 1.442 0.079 0.48-0.133 0.839-0.411 1.078-0.84 0.242-0.45 0.281-0.907 0.121-1.36-0.16-0.48-0.465-0.824-0.922-1.039z" inkscape:connector-curvature="0"/>
      <path id="path18" style="fill-rule:evenodd;fill:#706844" d="m28.508 54.322c0.211-0.425 0.547-0.707 1-0.84 0.426-0.16 0.867-0.16 1.316 0-0.183-0.105-0.304-0.171-0.359-0.199-0.426-0.238-0.891-0.281-1.399-0.121-0.507 0.137-0.867 0.414-1.082 0.84-0.238 0.453-0.293 0.906-0.16 1.363 0.16 0.477 0.469 0.84 0.922 1.078l0.199 0.039c-0.32-0.265-0.531-0.597-0.64-1-0.078-0.398-0.012-0.785 0.203-1.16z" inkscape:connector-curvature="0"/>
      <path id="path20" style="fill-rule:evenodd;fill:#584e1d" d="m30.426 54.322c-0.266-0.133-0.531-0.16-0.801-0.078-0.293 0.078-0.504 0.254-0.637 0.52-0.136 0.238-0.148 0.492-0.043 0.758 0.082 0.296 0.254 0.496 0.52 0.601 0.269 0.133 0.535 0.16 0.801 0.082 0.293-0.082 0.507-0.254 0.64-0.523 0.133-0.239 0.149-0.493 0.039-0.758-0.078-0.266-0.25-0.469-0.519-0.602z" inkscape:connector-curvature="0"/>
      <path id="path22" style="fill-rule:evenodd;fill:#222700" d="m6.105 59.764 4.204-5.961c0.132-0.188 0.171-0.414 0.117-0.68-0.028-0.238-0.145-0.426-0.36-0.559-0.214-0.132-0.441-0.175-0.679-0.121-0.266 0.055-0.465 0.172-0.602 0.36l-4.199 6c-0.133 0.187-0.172 0.402-0.121 0.64 0.027 0.239 0.148 0.426 0.363 0.559 0.211 0.137 0.453 0.176 0.719 0.121 0.238-0.027 0.426-0.144 0.558-0.359z" inkscape:connector-curvature="0"/>
      <path id="path24" style="fill-rule:evenodd;fill:#887e53" d="m6.906 61.084c0.403-0.562 0.535-1.172 0.403-1.84-0.137-0.668-0.497-1.187-1.082-1.562-0.586-0.371-1.227-0.504-1.918-0.399-0.696 0.133-1.243 0.481-1.641 1.039-0.402 0.586-0.535 1.215-0.402 1.883 0.132 0.664 0.496 1.184 1.082 1.559s1.226 0.492 1.918 0.359c0.695-0.133 1.242-0.48 1.64-1.039z" inkscape:connector-curvature="0"/>
      <path id="path26" style="fill-rule:evenodd;fill:#706844" d="m6.906 61.084c0.403-0.562 0.535-1.172 0.403-1.84-0.137-0.668-0.497-1.187-1.082-1.562-0.586-0.371-1.227-0.504-1.918-0.399-0.696 0.133-1.243 0.481-1.641 1.039l-0.043 0.082c0.934-0.535 1.828-0.507 2.684 0.078 0.586 0.348 0.945 0.856 1.078 1.52 0.133 0.668 0.011 1.281-0.36 1.84 0.348-0.184 0.641-0.438 0.879-0.758z" inkscape:connector-curvature="0"/>
      <path id="path28" style="fill-rule:evenodd;fill:#584e1d" d="m5.227 61.244c0.214-0.32 0.293-0.668 0.238-1.039-0.078-0.402-0.293-0.707-0.637-0.922-0.348-0.215-0.723-0.293-1.121-0.238-0.398 0.078-0.707 0.277-0.922 0.598-0.211 0.32-0.277 0.668-0.199 1.039 0.055 0.402 0.254 0.707 0.602 0.922 0.343 0.214 0.707 0.293 1.078 0.238 0.402-0.078 0.722-0.278 0.961-0.598z" inkscape:connector-curvature="0"/>
      <path id="path30" style="fill-rule:evenodd;fill:#222700" d="m23.387 53.522c-0.16-0.157-0.348-0.25-0.559-0.278-0.242 0-0.441 0.078-0.601 0.238-0.188 0.133-0.282 0.321-0.282 0.563 0 0.211 0.067 0.398 0.203 0.559l1.758 1.839c0.375 0.375 0.758 0.387 1.16 0.039 0.399-0.343 0.426-0.718 0.082-1.117l-1.761-1.843z" inkscape:connector-curvature="0"/>
      <path id="path32" style="fill-rule:evenodd;fill:#887e53" d="m26.508 54.963c-0.43-0.453-0.961-0.707-1.602-0.758-0.64-0.027-1.199 0.172-1.679 0.598-0.481 0.426-0.735 0.945-0.762 1.562-0.024 0.614 0.176 1.145 0.601 1.598 0.426 0.453 0.961 0.695 1.598 0.719 0.645 0.054 1.203-0.133 1.684-0.559 0.48-0.426 0.73-0.945 0.757-1.559 0.028-0.613-0.171-1.148-0.597-1.601z" inkscape:connector-curvature="0"/>
      <path id="path34" style="fill-rule:evenodd;fill:#706844" d="m23.066 57.963c0.188 0.242 0.454 0.426 0.801 0.559l-0.281-0.239c-0.426-0.453-0.625-1-0.598-1.64 0.024-0.614 0.278-1.133 0.758-1.559 0.348-0.293 0.746-0.48 1.199-0.562 0.453-0.051 0.883 0 1.282 0.16-0.454-0.317-0.961-0.477-1.52-0.477-0.559 0.024-1.055 0.227-1.48 0.598-0.481 0.426-0.735 0.945-0.762 1.562-0.024 0.614 0.176 1.145 0.601 1.598z" inkscape:connector-curvature="0"/>
      <path id="path36" style="fill-rule:evenodd;fill:#584e1d" d="m26.148 55.764c-0.269-0.266-0.589-0.414-0.96-0.442-0.348-0.023-0.668 0.082-0.961 0.321-0.266 0.242-0.415 0.546-0.442 0.921-0.023 0.348 0.094 0.653 0.363 0.918 0.239 0.266 0.547 0.403 0.918 0.403 0.375 0.027 0.692-0.082 0.961-0.321 0.266-0.242 0.414-0.535 0.438-0.882 0.027-0.344-0.078-0.653-0.317-0.918z" inkscape:connector-curvature="0"/>
      <path id="path38" style="fill-rule:evenodd;fill:#222700" d="m16.988 51.045-0.281-49.922c-0.027-0.32-0.148-0.586-0.359-0.801-0.243-0.238-0.536-0.343-0.883-0.316-0.344 0-0.625 0.105-0.84 0.316-0.238 0.242-0.359 0.52-0.359 0.844l0.32 49.918c0.027 0.32 0.16 0.586 0.398 0.801 0.243 0.238 0.524 0.347 0.84 0.32 0.321 0 0.602-0.121 0.84-0.363 0.242-0.211 0.348-0.477 0.324-0.797z" inkscape:connector-curvature="0"/>
      <path id="path40" style="fill-rule:evenodd;fill:#4c552a" d="m14.547 45.283 2.238 0.281c1.789 0 3.496-0.414 5.121-1.242 1.84-0.957 2.36-2.117 1.559-3.48-0.824-1.36-1.957-1.637-3.399-0.84-1.679 0.906-3.105 2.055-4.281 3.441l-1.238 1.84z" inkscape:connector-curvature="0"/>
      <path id="path42" style="fill-rule:evenodd;fill:#77804f" d="m16.586 45.123 1.562 0.199c1.278 0 2.477-0.293 3.598-0.879 1.281-0.668 1.641-1.48 1.082-2.441-0.562-0.934-1.348-1.133-2.363-0.598-1.172 0.641-2.172 1.453-3 2.438l-0.879 1.281z" inkscape:connector-curvature="0"/>
      <path id="path44" style="fill-rule:evenodd;fill:#4c552a" d="m16.266 45.244c-0.266-0.508-0.692-1.105-1.278-1.801-1.203-1.359-2.656-2.464-4.363-3.32-1.465-0.719-2.586-0.387-3.359 1-0.774 1.359-0.227 2.492 1.64 3.399 1.625 0.777 3.348 1.136 5.16 1.082 0.907-0.055 1.641-0.172 2.2-0.36z" inkscape:connector-curvature="0"/>
      <path id="path46" style="fill-rule:evenodd;fill:#77804f" d="m14.148 45.084-0.921-1.281c-0.852-0.961-1.879-1.735-3.079-2.321-1.015-0.503-1.789-0.277-2.32 0.68-0.562 0.961-0.187 1.762 1.117 2.402 1.149 0.559 2.364 0.813 3.641 0.758 0.641-0.023 1.16-0.105 1.562-0.238z" inkscape:connector-curvature="0"/>
      <path id="path48" style="fill-rule:evenodd;fill:#4c552a" d="m16.105 47.682 1.083-1.918c0.691-1.68 1.039-3.442 1.039-5.282 0-1.57-0.813-2.371-2.442-2.398-1.625 0-2.426 1-2.398 3 0.027 1.758 0.492 3.387 1.398 4.879l1.32 1.719z" inkscape:connector-curvature="0"/>
      <path id="path50" style="fill-rule:evenodd;fill:#77804f" d="m15.906 46.123 0.758-1.359c0.508-1.149 0.762-2.375 0.762-3.68 0-1.121-0.574-1.68-1.719-1.68-1.148 0-1.707 0.707-1.68 2.118 0.028 1.226 0.348 2.363 0.957 3.402l0.922 1.199z" inkscape:connector-curvature="0"/>
      <g id="g52">
        <g id="g54" clip-path="url(#clipPath56)">
          <g id="g60" transform="matrix(.104 -.7932 1.9862 .04552 43.542 68.841)">
            <g id="g84" mask="url(#mask76)">
              <path id="path92" style="fill-rule:evenodd;fill:url(#radialGradient86)" d="m15.988 41.803c-1.707-0.028-3.187 0.187-4.441 0.64-1.281 0.481-1.961 1.055-2.039 1.719-0.11 0.668 0.414 1.254 1.558 1.762 1.149 0.508 2.575 0.785 4.282 0.84 1.707 0.027 3.183-0.188 4.437-0.641 1.281-0.453 1.961-1.012 2.043-1.68 0.106-0.695-0.414-1.293-1.562-1.8-1.145-0.532-2.571-0.813-4.278-0.84z" inkscape:connector-curvature="0"/>
            </g>
          </g>
        </g>
      </g>
      <g id="g94">
        <g id="g96">
          <g id="g102">
            <path id="path118" style="fill-rule:evenodd;fill:url(#linearGradient104)" d="m15.668 57.322c2.32-0.05 4.305-0.679 5.957-1.879 1.656-1.226 2.523-2.695 2.602-4.398-2.508-1.016-5.399-1.496-8.68-1.441-3.281 0.078-6.16 0.652-8.641 1.718 0.133 1.707 1.055 3.133 2.762 4.282 1.68 1.171 3.68 1.746 6 1.718z" inkscape:connector-curvature="0"/>
          </g>
        </g>
      </g>
      <g id="g120">
        <g id="g136" mask="url(#mask128)">
          <g id="g148">
            <g id="g150" clip-path="url(#clipPath140)">
              <g id="g152" transform="translate(0 -.13864)">
                <g id="g156">
                  <g id="g158" clip-path="url(#clipPath144)">
                    <g id="g160">
                      <path id="path162" style="fill-rule:evenodd;fill:#1a1a1a" d="m6.906 51.863c2.403-1.039 5.282-1.601 8.641-1.679 3.281-0.055 6.172 0.425 8.68 1.437v-0.32c-0.028-1.813-0.895-3.332-2.602-4.559-1.703-1.254-3.758-1.851-6.16-1.801-2.371 0.028-4.399 0.696-6.078 2-1.68 1.282-2.508 2.817-2.481 4.602v0.32z" inkscape:connector-curvature="0"/>
                    </g>
                  </g>
                </g>
              </g>
            </g>
          </g>
        </g>
      </g>
      <g id="g164">
        <g id="g166">
          <g id="g172">
            <path id="path186" style="fill-rule:evenodd;fill:url(#linearGradient174)" d="m6.906 51.322c2.481-1.066 5.36-1.64 8.641-1.718 3.281-0.055 6.172 0.425 8.68 1.441v-0.32c-0.028-1.817-0.895-3.336-2.602-4.563-1.703-1.25-3.758-1.851-6.16-1.797-2.399 0.024-4.438 0.692-6.117 2-1.653 1.278-2.465 2.813-2.442 4.598v0.359z" inkscape:connector-curvature="0"/>
          </g>
        </g>
      </g>
      <path id="path188" style="fill-rule:evenodd;fill:#222700" d="m21.227 59.365-1.282-3.402c-0.105-0.293-0.304-0.508-0.597-0.641s-0.602-0.144-0.922-0.039c-0.317 0.106-0.547 0.305-0.68 0.602-0.133 0.293-0.148 0.586-0.039 0.879l1.238 3.359c0.133 0.293 0.348 0.508 0.641 0.641 0.293 0.16 0.602 0.187 0.922 0.078 0.316-0.133 0.547-0.332 0.68-0.598 0.132-0.293 0.144-0.586 0.039-0.879z" inkscape:connector-curvature="0"/>
      <path id="path190" style="fill-rule:evenodd;fill:#887e53" d="m23.668 60.002c-0.32-0.852-0.895-1.465-1.719-1.84-0.855-0.371-1.722-0.414-2.601-0.117-0.883 0.293-1.52 0.852-1.922 1.68-0.399 0.797-0.449 1.625-0.16 2.48 0.32 0.824 0.91 1.438 1.761 1.84 0.852 0.371 1.719 0.41 2.602 0.117 0.879-0.293 1.519-0.851 1.918-1.68 0.398-0.824 0.441-1.652 0.121-2.48z" inkscape:connector-curvature="0"/>
      <path id="path192" style="fill-rule:evenodd;fill:#887e53" d="m23.668 60.002c-0.32-0.852-0.895-1.465-1.719-1.84-0.855-0.371-1.722-0.414-2.601-0.117-0.883 0.293-1.52 0.852-1.922 1.68-0.399 0.797-0.449 1.625-0.16 2.48 0.32 0.824 0.91 1.438 1.761 1.84 0.852 0.371 1.719 0.41 2.602 0.117 0.879-0.293 1.519-0.851 1.918-1.68 0.398-0.824 0.441-1.652 0.121-2.48z" inkscape:connector-curvature="0"/>
      <path id="path194" style="fill-rule:evenodd;fill:#706844" d="m23.625 62.283c0.32-0.828 0.336-1.586 0.043-2.281-0.32-0.852-0.895-1.465-1.719-1.84-0.855-0.371-1.722-0.414-2.601-0.117-0.696 0.238-1.239 0.637-1.641 1.199-0.398 0.559-0.598 1.172-0.598 1.84 0.344-0.906 1.012-1.52 2-1.84 0.879-0.293 1.746-0.254 2.598 0.121 0.828 0.371 1.402 0.985 1.719 1.84 0.133 0.293 0.199 0.652 0.199 1.078z" inkscape:connector-curvature="0"/>
      <path id="path196" style="fill-rule:evenodd;fill:#584e1d" d="m22.426 61.803c-0.184-0.481-0.52-0.828-1-1.039-0.481-0.242-0.973-0.266-1.481-0.082-0.504 0.187-0.879 0.507-1.117 0.961-0.242 0.453-0.269 0.921-0.082 1.402 0.188 0.504 0.52 0.863 1 1.078 0.481 0.215 0.973 0.227 1.481 0.039 0.507-0.16 0.882-0.48 1.121-0.957 0.238-0.457 0.265-0.922 0.078-1.402z" inkscape:connector-curvature="0"/>
      <path id="path198" style="fill-rule:evenodd;fill:#222700" d="m14.785 64.764 1.242-8.121c0.028-0.266-0.039-0.493-0.199-0.68-0.16-0.188-0.363-0.293-0.601-0.32-0.266-0.055-0.493 0-0.68 0.16-0.215 0.16-0.332 0.375-0.359 0.64l-1.282 8.121c-0.027 0.239 0.039 0.454 0.199 0.641 0.161 0.184 0.375 0.305 0.641 0.359 0.266 0.024 0.496-0.042 0.68-0.199 0.215-0.16 0.336-0.363 0.359-0.601z" inkscape:connector-curvature="0"/>
      <path id="path200" style="fill-rule:evenodd;fill:#887e53" d="m16.188 65.564c0.078-0.695-0.122-1.32-0.602-1.882-0.453-0.532-1.055-0.84-1.801-0.918-0.719-0.082-1.359 0.105-1.918 0.558-0.586 0.453-0.922 1.028-1 1.723-0.082 0.691 0.121 1.32 0.598 1.879 0.453 0.531 1.043 0.84 1.762 0.918 0.746 0.082 1.398-0.106 1.961-0.559 0.585-0.453 0.917-1.027 1-1.719z" inkscape:connector-curvature="0"/>
      <path id="path202" style="fill-rule:evenodd;fill:#706844" d="m15.586 66.443-0.199 0.641c0.453-0.402 0.718-0.906 0.801-1.52 0.078-0.695-0.122-1.32-0.602-1.882-0.453-0.532-1.055-0.84-1.801-0.918-0.586-0.055-1.144 0.078-1.68 0.398-0.503 0.293-0.863 0.707-1.078 1.242 0.641-0.586 1.36-0.84 2.161-0.761 0.746 0.082 1.343 0.386 1.8 0.921 0.453 0.559 0.653 1.184 0.598 1.879z" inkscape:connector-curvature="0"/>
      <path id="path204" style="fill-rule:evenodd;fill:#584e1d" d="m14.266 66.365c0.054-0.402-0.051-0.761-0.321-1.082-0.265-0.32-0.613-0.492-1.039-0.519-0.426-0.055-0.801 0.054-1.121 0.32-0.32 0.238-0.504 0.559-0.558 0.961-0.028 0.398 0.082 0.758 0.32 1.078 0.265 0.293 0.613 0.465 1.039 0.52 0.426 0.027 0.801-0.079 1.121-0.321 0.348-0.238 0.535-0.558 0.559-0.957z" inkscape:connector-curvature="0"/>
      <path id="path206" style="fill-rule:evenodd;fill:#222700" d="m11.668 58.522 0.797-1.879c0.055-0.161 0.055-0.321 0-0.481-0.078-0.183-0.211-0.305-0.399-0.359-0.187-0.078-0.359-0.078-0.519 0-0.188 0.054-0.305 0.172-0.359 0.359l-0.801 1.883c-0.133 0.426 0 0.703 0.398 0.84 0.16 0.078 0.336 0.078 0.524 0 0.156-0.055 0.277-0.176 0.359-0.363z" inkscape:connector-curvature="0"/>
      <path id="path208" style="fill-rule:evenodd;fill:#887e53" d="m12.465 59.365c0.215-0.453 0.215-0.922 0-1.402-0.211-0.481-0.57-0.813-1.078-1-0.508-0.188-1-0.172-1.481 0.039-0.508 0.187-0.851 0.52-1.039 1-0.187 0.48-0.176 0.961 0.039 1.441 0.215 0.454 0.559 0.774 1.039 0.961 0.508 0.184 1 0.172 1.481-0.039 0.508-0.187 0.855-0.523 1.039-1z" inkscape:connector-curvature="0"/>
      <path id="path210" style="fill-rule:evenodd;fill:#706844" d="m12.465 59.365c0.215-0.453 0.215-0.922 0-1.402-0.211-0.481-0.57-0.813-1.078-1-0.453-0.16-0.907-0.16-1.36 0s-0.8 0.441-1.039 0.84c0.614-0.481 1.266-0.574 1.957-0.281 0.481 0.187 0.828 0.507 1.043 0.96 0.211 0.481 0.211 0.961 0 1.442l-0.082 0.16c0.266-0.16 0.453-0.402 0.559-0.719z" inkscape:connector-curvature="0"/>
      <path id="path212" style="fill-rule:evenodd;fill:#584e1d" d="m11.227 59.604c0.105-0.266 0.105-0.536 0-0.801-0.106-0.239-0.305-0.426-0.602-0.559-0.293-0.105-0.57-0.105-0.84 0-0.293 0.133-0.492 0.332-0.597 0.598-0.106 0.269-0.106 0.535 0 0.801 0.132 0.265 0.332 0.453 0.597 0.562 0.297 0.106 0.574 0.106 0.84 0 0.297-0.137 0.496-0.336 0.602-0.601z" inkscape:connector-curvature="0"/>
      <path id="path214" style="fill-rule:evenodd;fill:#222700" d="m3.426 54.725 4.84-2.403c0.16-0.078 0.265-0.199 0.32-0.359 0.055-0.188 0.027-0.348-0.078-0.481-0.082-0.16-0.199-0.265-0.36-0.32-0.187-0.023-0.363 0-0.523 0.082l-4.879 2.399c-0.16 0.082-0.266 0.199-0.32 0.359-0.051 0.187-0.028 0.363 0.082 0.52 0.265 0.347 0.574 0.414 0.918 0.203z" inkscape:connector-curvature="0"/>
      <path id="path216" style="fill-rule:evenodd;fill:#887e53" d="m2.785 56.283c0.457-0.238 0.746-0.601 0.883-1.078 0.133-0.48 0.066-0.933-0.203-1.363-0.238-0.426-0.613-0.703-1.117-0.84-0.508-0.133-0.973-0.066-1.403 0.203-0.453 0.238-0.746 0.598-0.879 1.078-0.132 0.481-0.066 0.934 0.2 1.36 0.265 0.425 0.64 0.695 1.121 0.8 0.508 0.133 0.972 0.079 1.398-0.16z" inkscape:connector-curvature="0"/>
      <path id="path218" style="fill-rule:evenodd;fill:#706844" d="m2.785 56.283c0.457-0.238 0.746-0.601 0.883-1.078 0.133-0.48 0.066-0.933-0.203-1.363-0.293-0.531-0.774-0.824-1.438-0.879 0.348 0.16 0.586 0.387 0.719 0.68 0.266 0.425 0.336 0.867 0.199 1.32-0.133 0.48-0.425 0.855-0.879 1.121-0.347 0.188-0.707 0.254-1.078 0.199 0.614 0.348 1.211 0.348 1.797 0z" inkscape:connector-curvature="0"/>
      <path id="path220" style="fill-rule:evenodd;fill:#584e1d" d="m1.707 55.643c0.266-0.133 0.441-0.344 0.52-0.641 0.054-0.266 0.015-0.52-0.122-0.758-0.16-0.242-0.386-0.402-0.679-0.48-0.266-0.055-0.531-0.016-0.801 0.121-0.238 0.133-0.398 0.347-0.477 0.637-0.082 0.269-0.043 0.523 0.118 0.761 0.132 0.239 0.347 0.399 0.64 0.481 0.266 0.054 0.535 0.011 0.801-0.121z" inkscape:connector-curvature="0"/>
      <g id="g222">
        <g id="g238" mask="url(#mask230)">
          <g id="g266">
            <g id="g268" clip-path="url(#clipPath242)">
              <g id="g270" transform="translate(0 -.13864)">
                <g id="g274">
                  <g id="g276" clip-path="url(#clipPath246)">
                    <g id="g278">
                      <g id="g280">
                        <g id="g282">
                          <g id="g284">
                            <path id="path286" style="fill-rule:evenodd;fill:url(#linearGradient254)" d="m24.227 51.18v-0.317c-0.028-1.816-0.895-3.336-2.602-4.562-1.703-1.254-3.758-1.852-6.16-1.801-1.68 0.027-3.211 0.387-4.598 1.082-1.336 0.664-2.359 1.531-3.082 2.598 1.656-1.09 3.535-1.653 5.641-1.68 2.402-0.023 4.453 0.59 6.16 1.84 1.734 1.226 2.613 2.734 2.641 4.523l-0.039 0.317c-0.028 0.882-0.321 1.75-0.879 2.601 1.863-1.254 2.839-2.785 2.918-4.601z" inkscape:connector-curvature="0"/>
                          </g>
                        </g>
                      </g>
                    </g>
                  </g>
                </g>
              </g>
            </g>
          </g>
        </g>
      </g>
    </g>
  </g>
<metadata><rdf:RDF><cc:Work><dc:format>image/svg+xml</dc:format><dc:type rdf:resource="http://purl.org/dc/dcmitype/StillImage"/><cc:license rdf:resource="http://creativecommons.org/licenses/publicdomain/"/><dc:publisher><cc:Agent rdf:about="http://openclipart.org/"><dc:title>Openclipart</dc:title></cc:Agent></dc:publisher></cc:Work><cc:License rdf:about="http://creativecommons.org/licenses/publicdomain/"><cc:permits rdf:resource="http://creativecommons.org/ns#Reproduction"/><cc:permits rdf:resource="http://creativecommons.org/ns#Distribution"/><cc:permits rdf:resource="http://creativecommons.org/ns#DerivativeWorks"/></cc:License></rdf:RDF></metadata></svg>
