<?xml version="1.0" encoding="UTF-8" standalone="no"?>
<!-- Created with Inkscape (http://www.inkscape.org/) -->
<svg xmlns:inkscape="http://www.inkscape.org/namespaces/inkscape" xmlns:rdf="http://www.w3.org/1999/02/22-rdf-syntax-ns#" xmlns="http://www.w3.org/2000/svg" xmlns:xlink="http://www.w3.org/1999/xlink" xmlns:ns1="http://sozi.baierouge.fr" xmlns:cc="http://creativecommons.org/ns#" xmlns:sodipodi="http://sodipodi.sourceforge.net/DTD/sodipodi-0.dtd" xmlns:dc="http://purl.org/dc/elements/1.1/" id="svg2" xml:space="preserve" viewBox="0 0 39.574 53.511" version="1.1" inkscape:version="0.91 r13725">
  <defs id="defs6">
    <clipPath id="clipPath64">
      <path id="path66" d="m15.336 18.281c-1.707 0.133-3.16 0.492-4.359 1.078-1.227 0.59-1.856 1.215-1.879 1.883-0.028 0.691 0.558 1.227 1.757 1.598 1.2 0.402 2.641 0.535 4.321 0.402 1.679-0.137 3.148-0.496 4.398-1.082 1.203-0.559 1.817-1.187 1.84-1.879 0.027-0.695-0.559-1.226-1.758-1.601-1.176-0.399-2.613-0.532-4.32-0.399z" inkscape:connector-curvature="0"/>
    </clipPath>
    <clipPath id="clipPath72">
      <path id="path74" d="m21.639-21.361h8.8076v6.6832h-8.8076v-6.6832z" inkscape:connector-curvature="0"/>
    </clipPath>
    <radialGradient id="radialGradient76" gradientUnits="userSpaceOnUse" cy="-18.144" cx="26.13" r="3.0762">
      <stop id="stop78" style="stop-color:#ffffff;stop-opacity:.64710" offset="0"/>
      <stop id="stop80" style="stop-color:#ffffff;stop-opacity:0" offset=".9569"/>
      <stop id="stop82" style="stop-color:#ffffff;stop-opacity:0" offset="1"/>
    </radialGradient>
    <mask id="mask84">
      <g id="g86">
        <g id="g88" clip-path="url(#clipPath72)">
          <path id="path90" style="fill:url(#radialGradient76)" d="m21.639-21.361h8.8076v6.6832h-8.8076v-6.6832z" inkscape:connector-curvature="0"/>
        </g>
      </g>
    </mask>
    <radialGradient id="radialGradient94" gradientUnits="userSpaceOnUse" cy="-18.144" cx="26.13" r="3.0762">
      <stop id="stop96" style="stop-color:#000000" offset="0"/>
      <stop id="stop98" style="stop-color:#000000" offset="1"/>
    </radialGradient>
    <linearGradient id="linearGradient112" y2="18.784" gradientUnits="userSpaceOnUse" x2="-11.49" gradientTransform="matrix(-.03576 .7992 .7992 .03576 .015988 42.801)" y1="18.784" x1="-28.832">
      <stop id="stop114" style="stop-color:#1b1405" offset="0"/>
      <stop id="stop116" style="stop-color:#281f06" offset=".1294"/>
      <stop id="stop118" style="stop-color:#4c3909" offset=".36470"/>
      <stop id="stop120" style="stop-color:#69500b" offset=".53330"/>
      <stop id="stop122" style="stop-color:#413108" offset=".94120"/>
      <stop id="stop124" style="stop-color:#3b2c08" offset="1"/>
    </linearGradient>
    <clipPath id="clipPath132">
      <path id="path134" d="m7 20.808h18v9h-18v-9z" inkscape:connector-curvature="0"/>
    </clipPath>
    <mask id="mask136">
      <g id="g138">
        <g id="g140" clip-path="url(#clipPath132)">
          <path id="path142" style="fill:#000000;fill-opacity:.5" d="m7 20.808h18v9h-18v-9z" inkscape:connector-curvature="0"/>
        </g>
      </g>
    </mask>
    <clipPath id="clipPath148">
      <path id="path150" d="m7 20.808h18v9h-18v-9z" inkscape:connector-curvature="0"/>
    </clipPath>
    <clipPath id="clipPath152">
      <path id="path154" d="m7 21h18v9h-18v-9z" inkscape:connector-curvature="0"/>
    </clipPath>
    <linearGradient id="linearGradient182" y2="18.76" gradientUnits="userSpaceOnUse" x2="-11.488" gradientTransform="matrix(-.03576 .7992 .7992 .03576 .015988 42.801)" y1="18.76" x1="-28.83">
      <stop id="stop184" style="stop-color:#1b1405" offset="0"/>
      <stop id="stop186" style="stop-color:#281f06" offset=".17650"/>
      <stop id="stop188" style="stop-color:#4c3a09" offset=".50590"/>
      <stop id="stop190" style="stop-color:#4f3d0a" offset=".53330"/>
      <stop id="stop192" style="stop-color:#3b2c08" offset="1"/>
    </linearGradient>
  </defs>
  <g id="g10" transform="matrix(1.25 0 0 -1.25 0 53.511)">
    <g id="g12">
      <path id="path14" style="fill-rule:evenodd;fill:#181001" d="m15.016 36.121-0.641-5.402c-0.027-0.184-0.105-0.332-0.238-0.438-0.133-0.109-0.293-0.133-0.481-0.082-0.398 0.055-0.574 0.309-0.519 0.762l0.64 5.398c0.024 0.188 0.106 0.336 0.239 0.442 0.132 0.078 0.293 0.105 0.48 0.078 0.188-0.051 0.332-0.145 0.442-0.278 0.105-0.16 0.132-0.32 0.078-0.48z" inkscape:connector-curvature="0"/>
      <path id="path16" style="fill-rule:evenodd;fill:#7b6f68" d="m16.258 37.199c-0.082-0.504-0.32-0.906-0.723-1.199-0.398-0.293-0.84-0.387-1.32-0.281-0.504 0.109-0.891 0.375-1.16 0.8-0.293 0.426-0.399 0.895-0.321 1.403 0.082 0.504 0.321 0.89 0.723 1.16 0.398 0.293 0.852 0.383 1.359 0.277 0.481-0.105 0.868-0.371 1.161-0.801 0.265-0.398 0.359-0.851 0.281-1.359z" inkscape:connector-curvature="0"/>
      <path id="path18" style="fill-rule:evenodd;fill:#625953" d="m16.258 37.199c-0.082-0.504-0.32-0.906-0.723-1.199-0.398-0.293-0.84-0.387-1.32-0.281-0.613 0.136-1.051 0.496-1.32 1.082 0.242-0.243 0.519-0.403 0.839-0.481 0.508-0.105 0.961-0.015 1.364 0.281 0.398 0.293 0.636 0.692 0.718 1.2 0.079 0.347 0.028 0.718-0.16 1.121 0.535-0.481 0.735-1.055 0.602-1.723z" inkscape:connector-curvature="0"/>
      <path id="path20" style="fill-rule:evenodd;fill:#4c3527" d="m15.297 38c-0.027-0.266-0.16-0.492-0.402-0.68-0.239-0.16-0.504-0.215-0.797-0.16-0.27 0.055-0.481 0.199-0.641 0.441-0.16 0.266-0.215 0.547-0.16 0.84 0.051 0.266 0.183 0.481 0.398 0.641 0.243 0.156 0.496 0.211 0.762 0.156 0.266-0.051 0.492-0.199 0.68-0.437 0.16-0.243 0.211-0.508 0.16-0.801z" inkscape:connector-curvature="0"/>
      <path id="path22" style="fill-rule:evenodd;fill:#181001" d="m23.336 27.801c-0.398-0.055-0.652 0.121-0.762 0.519-0.078 0.399 0.094 0.653 0.52 0.762l5.281 1.117c0.426 0.055 0.695-0.117 0.801-0.519 0.054-0.426-0.121-0.68-0.52-0.758l-5.32-1.121z" inkscape:connector-curvature="0"/>
      <path id="path24" style="fill-rule:evenodd;fill:#7b6f68" d="m30.137 28.121c-0.508-0.082-0.961 0.012-1.36 0.277-0.429 0.297-0.695 0.684-0.8 1.16-0.11 0.508-0.016 0.961 0.281 1.364 0.293 0.398 0.691 0.636 1.199 0.719 0.508 0.078 0.973-0.028 1.398-0.321 0.403-0.265 0.653-0.652 0.762-1.16 0.106-0.48 0.012-0.922-0.281-1.32-0.293-0.399-0.695-0.641-1.199-0.719z" inkscape:connector-curvature="0"/>
      <path id="path26" style="fill-rule:evenodd;fill:#625953" d="m28.574 29.719c0.082-0.453 0.309-0.825 0.684-1.118 0.398-0.296 0.824-0.429 1.277-0.402l-0.398-0.078c-0.508-0.082-0.961 0.012-1.36 0.277-0.425 0.297-0.695 0.684-0.8 1.16-0.106 0.508-0.012 0.961 0.281 1.364 0.293 0.398 0.691 0.636 1.199 0.719h0.199c-0.398-0.133-0.707-0.387-0.918-0.762-0.215-0.344-0.269-0.731-0.164-1.16z" inkscape:connector-curvature="0"/>
      <path id="path28" style="fill-rule:evenodd;fill:#4c3527" d="m30.414 29.121c-0.289-0.055-0.559 0-0.797 0.16-0.242 0.184-0.387 0.414-0.441 0.68-0.051 0.265 0 0.519 0.16 0.758 0.16 0.242 0.387 0.386 0.68 0.441 0.293 0.027 0.558-0.039 0.8-0.199 0.239-0.16 0.387-0.375 0.442-0.641 0.051-0.293 0-0.547-0.16-0.762-0.16-0.238-0.391-0.386-0.684-0.437z" inkscape:connector-curvature="0"/>
      <path id="path30" style="fill-rule:evenodd;fill:#181001" d="m11.695 30.961c0.243-0.375 0.176-0.68-0.199-0.922-0.187-0.106-0.375-0.145-0.558-0.117-0.188 0.051-0.336 0.16-0.442 0.316l-3.238 4.844c-0.11 0.156-0.137 0.332-0.082 0.519 0.027 0.184 0.133 0.332 0.32 0.438 0.399 0.242 0.734 0.16 1-0.238l3.199-4.84z" inkscape:connector-curvature="0"/>
      <path id="path32" style="fill-rule:evenodd;fill:#7b6f68" d="m9.137 36.84c0.293-0.453 0.386-0.946 0.277-1.481-0.105-0.531-0.398-0.933-0.879-1.199-0.48-0.293-0.984-0.387-1.519-0.281-0.559 0.137-1 0.426-1.321 0.883-0.293 0.453-0.386 0.933-0.281 1.437 0.137 0.563 0.441 0.973 0.922 1.242 0.453 0.293 0.961 0.387 1.519 0.278 0.559-0.133 0.989-0.426 1.282-0.879z" inkscape:connector-curvature="0"/>
      <path id="path34" style="fill-rule:evenodd;fill:#625953" d="m9.137 36.84c0.293-0.453 0.386-0.946 0.277-1.481-0.105-0.531-0.398-0.933-0.879-1.199-0.48-0.293-0.984-0.387-1.519-0.281-0.559 0.137-1 0.426-1.321 0.883v0.039c0.321-0.215 0.68-0.321 1.082-0.321 0.371 0 0.719 0.106 1.039 0.321 0.481 0.265 0.786 0.664 0.918 1.199 0.11 0.535 0.016 1.027-0.277 1.48 0.32-0.187 0.547-0.398 0.68-0.64z" inkscape:connector-curvature="0"/>
      <path id="path36" style="fill-rule:evenodd;fill:#4c3527" d="m7.816 37c0.161-0.266 0.2-0.547 0.122-0.84-0.055-0.293-0.215-0.535-0.481-0.719-0.266-0.16-0.562-0.203-0.883-0.121-0.316 0.055-0.558 0.215-0.719 0.481-0.187 0.265-0.238 0.547-0.16 0.84 0.055 0.292 0.215 0.519 0.481 0.679 0.265 0.188 0.558 0.238 0.879 0.16 0.32-0.054 0.574-0.214 0.761-0.48z" inkscape:connector-curvature="0"/>
      <path id="path38" style="fill-rule:evenodd;fill:#181001" d="m24.016 29.801c-0.293-0.293-0.586-0.309-0.879-0.039-0.27 0.265-0.27 0.543 0 0.839l1.32 1.321c0.238 0.293 0.52 0.304 0.84 0.039 0.293-0.293 0.305-0.574 0.039-0.84l-1.32-1.32z" inkscape:connector-curvature="0"/>
      <path id="path40" style="fill-rule:evenodd;fill:#7b6f68" d="m26.336 30.801c-0.32-0.348-0.719-0.52-1.199-0.52-0.481 0-0.895 0.16-1.242 0.481-0.344 0.293-0.52 0.679-0.52 1.16-0.027 0.453 0.133 0.84 0.48 1.16 0.321 0.344 0.719 0.519 1.2 0.519 0.453 0 0.867-0.16 1.242-0.48 0.348-0.293 0.519-0.68 0.519-1.16 0.028-0.453-0.132-0.84-0.48-1.16z" inkscape:connector-curvature="0"/>
      <path id="path42" style="fill-rule:evenodd;fill:#625953" d="m23.895 30.762c-0.344 0.293-0.52 0.679-0.52 1.16-0.027 0.453 0.133 0.84 0.48 1.16 0.133 0.184 0.336 0.316 0.602 0.398l-0.242-0.199c-0.32-0.32-0.465-0.707-0.438-1.16 0-0.453 0.172-0.84 0.52-1.16 0.558-0.508 1.172-0.629 1.84-0.36-0.348-0.242-0.723-0.347-1.121-0.32-0.426 0.024-0.801 0.184-1.121 0.481z" inkscape:connector-curvature="0"/>
      <path id="path44" style="fill-rule:evenodd;fill:#4c3527" d="m26.055 31.398c-0.184-0.183-0.414-0.293-0.68-0.316-0.266 0-0.508 0.09-0.719 0.277-0.187 0.188-0.281 0.403-0.281 0.641 0 0.266 0.094 0.492 0.281 0.68 0.188 0.187 0.414 0.293 0.68 0.32 0.266 0 0.492-0.094 0.68-0.281 0.214-0.184 0.32-0.414 0.32-0.68 0-0.238-0.094-0.453-0.281-0.641z" inkscape:connector-curvature="0"/>
      <path id="path46" style="fill-rule:evenodd;fill:#181001" d="m17.176 27.879-1.52-26.758c-0.027-0.32-0.16-0.586-0.398-0.801-0.242-0.215-0.524-0.32-0.844-0.32-0.344 0.027-0.625 0.148-0.84 0.359-0.238 0.242-0.344 0.52-0.316 0.84l1.519 26.801c0 0.32 0.118 0.586 0.36 0.801 0.238 0.215 0.531 0.304 0.879 0.281 0.32 0 0.601-0.121 0.839-0.363 0.215-0.239 0.321-0.52 0.321-0.84z" inkscape:connector-curvature="0"/>
      <path id="path48" style="fill-rule:evenodd;fill:#464033" d="m14.574 22.199 2.242 0.199c1.813-0.05 3.508-0.504 5.079-1.359 1.816-0.984 2.308-2.145 1.48-3.481-0.824-1.332-1.957-1.597-3.398-0.796-1.653 0.957-3.051 2.144-4.2 3.558l-1.203 1.879z" inkscape:connector-curvature="0"/>
      <path id="path50" style="fill-rule:evenodd;fill:#706b61" d="m16.617 22 1.559 0.121c1.254-0.027 2.441-0.336 3.558-0.922 1.282-0.691 1.629-1.519 1.043-2.48-0.586-0.934-1.386-1.106-2.402-0.52-1.172 0.668-2.145 1.492-2.918 2.481l-0.84 1.32z" inkscape:connector-curvature="0"/>
      <path id="path52" style="fill-rule:evenodd;fill:#464033" d="m16.297 22.121c-0.266-0.508-0.707-1.094-1.32-1.762-1.254-1.332-2.747-2.398-4.481-3.199-1.465-0.719-2.558-0.375-3.277 1.039-0.75 1.387-0.176 2.508 1.719 3.359 1.652 0.747 3.371 1.067 5.16 0.961 0.906-0.054 1.636-0.187 2.199-0.398z" inkscape:connector-curvature="0"/>
      <path id="path54" style="fill-rule:evenodd;fill:#706b61" d="m14.137 22-0.922-1.238c-0.852-0.934-1.891-1.696-3.117-2.282-1.043-0.48-1.828-0.226-2.364 0.758-0.504 0.988-0.093 1.774 1.243 2.36 1.144 0.507 2.347 0.734 3.597 0.679 0.641-0.051 1.16-0.144 1.563-0.277z" inkscape:connector-curvature="0"/>
      <path id="path56" style="fill-rule:evenodd;fill:#464033" d="m16.176 24.558 1-1.957c0.668-1.679 0.988-3.441 0.961-5.281-0.055-1.574-0.895-2.347-2.52-2.32-1.629 0.027-2.402 1.039-2.32 3.039 0.078 1.734 0.586 3.336 1.519 4.801l1.36 1.718z" inkscape:connector-curvature="0"/>
      <path id="path58" style="fill-rule:evenodd;fill:#706b61" d="m15.977 23 0.718-1.359c0.453-1.176 0.668-2.415 0.641-3.719-0.027-1.121-0.613-1.668-1.762-1.641-1.117 0.027-1.664 0.746-1.636 2.16 0.05 1.227 0.41 2.348 1.078 3.36l0.961 1.199z" inkscape:connector-curvature="0"/>
      <g id="g60">
        <g id="g62" clip-path="url(#clipPath64)">
          <g id="g68" transform="matrix(.026 -.7996 1.9794 -.156 50.49 38.822)">
            <g id="g92" mask="url(#mask84)">
              <path id="path100" style="fill-rule:evenodd;fill:url(#radialGradient94)" d="m15.336 18.281c-1.707 0.133-3.16 0.492-4.359 1.078-1.227 0.59-1.856 1.215-1.879 1.883-0.028 0.691 0.558 1.227 1.757 1.598 1.2 0.402 2.641 0.535 4.321 0.402 1.679-0.137 3.148-0.496 4.398-1.082 1.203-0.559 1.817-1.187 1.84-1.879 0.027-0.695-0.559-1.226-1.758-1.601-1.176-0.399-2.613-0.532-4.32-0.399z" inkscape:connector-curvature="0"/>
            </g>
          </g>
        </g>
      </g>
      <g id="g102">
        <g id="g104">
          <g id="g110">
            <path id="path126" style="fill-rule:evenodd;fill:url(#linearGradient112)" d="m15.977 34.199c2.32-0.105 4.293-0.785 5.918-2.039 1.628-1.254 2.453-2.734 2.48-4.441-2.559-0.957-5.465-1.36-8.719-1.2-3.199 0.106-6.066 0.735-8.601 1.879 0.215 1.707 1.175 3.121 2.883 4.243 1.703 1.121 3.718 1.64 6.039 1.558z" inkscape:connector-curvature="0"/>
          </g>
        </g>
      </g>
      <g id="g128">
        <g id="g144" mask="url(#mask136)">
          <g id="g156">
            <g id="g158" clip-path="url(#clipPath148)">
              <g id="g160" transform="translate(0 -.19150)">
                <g id="g164">
                  <g id="g166" clip-path="url(#clipPath152)">
                    <g id="g168">
                      <path id="path170" style="fill-rule:evenodd;fill:#1a1a1a" d="m7.098 29.031c2.398-1.121 5.265-1.746 8.597-1.879 3.254-0.16 6.16 0.239 8.719 1.2v-0.321c-0.078-1.785-0.984-3.281-2.719-4.48-1.757-1.199-3.824-1.746-6.199-1.641-2.398 0.082-4.426 0.789-6.082 2.121-1.625 1.305-2.41 2.867-2.359 4.68l0.043 0.32z" inkscape:connector-curvature="0"/>
                    </g>
                  </g>
                </g>
              </g>
            </g>
          </g>
        </g>
      </g>
      <g id="g172">
        <g id="g174">
          <g id="g180">
            <path id="path194" style="fill-rule:evenodd;fill:url(#linearGradient182)" d="m7.055 28.398c2.535-1.144 5.402-1.773 8.601-1.879 3.254-0.16 6.16 0.243 8.719 1.2v-0.321c-0.051-1.785-0.961-3.277-2.719-4.476-1.734-1.203-3.801-1.75-6.199-1.641-2.375 0.078-4.387 0.785-6.043 2.117-1.652 1.336-2.437 2.895-2.359 4.684v0.316z" inkscape:connector-curvature="0"/>
          </g>
        </g>
      </g>
      <path id="path196" style="fill-rule:evenodd;fill:#181001" d="m21.574 36.121-1.359-3.359c-0.106-0.297-0.32-0.508-0.641-0.641-0.293-0.133-0.597-0.148-0.918-0.039-0.293 0.133-0.508 0.344-0.64 0.637-0.133 0.297-0.149 0.586-0.039 0.882l1.359 3.36c0.133 0.293 0.348 0.492 0.641 0.597 0.293 0.137 0.597 0.149 0.918 0.043 0.296-0.136 0.507-0.347 0.64-0.64 0.16-0.293 0.172-0.574 0.039-0.84z" inkscape:connector-curvature="0"/>
      <path id="path198" style="fill-rule:evenodd;fill:#7b6f68" d="m24.055 36.68c-0.348-0.825-0.946-1.426-1.797-1.801-0.856-0.348-1.723-0.36-2.602-0.039-0.879 0.32-1.508 0.894-1.879 1.718-0.402 0.801-0.429 1.629-0.082 2.481 0.348 0.855 0.946 1.453 1.801 1.801 0.852 0.375 1.719 0.386 2.598 0.039 0.883-0.321 1.508-0.891 1.883-1.719 0.398-0.828 0.425-1.652 0.078-2.48z" inkscape:connector-curvature="0"/>
      <path id="path200" style="fill-rule:evenodd;fill:#7b6f68" d="m24.055 36.68c-0.348-0.825-0.946-1.426-1.797-1.801-0.856-0.348-1.723-0.36-2.602-0.039-0.879 0.32-1.508 0.894-1.879 1.718-0.402 0.801-0.429 1.629-0.082 2.481 0.348 0.855 0.946 1.453 1.801 1.801 0.852 0.375 1.719 0.386 2.598 0.039 0.883-0.321 1.508-0.891 1.883-1.719 0.398-0.828 0.425-1.652 0.078-2.48z" inkscape:connector-curvature="0"/>
      <path id="path202" style="fill-rule:evenodd;fill:#625953" d="m23.816 37.879c0.161 0.347 0.239 0.722 0.239 1.121 0.32-0.801 0.32-1.574 0-2.32-0.348-0.825-0.946-1.426-1.797-1.801-0.856-0.348-1.723-0.36-2.602-0.039-0.668 0.265-1.199 0.679-1.601 1.242-0.399 0.559-0.586 1.184-0.559 1.879 0.348-0.906 1-1.547 1.961-1.922 0.879-0.32 1.746-0.305 2.598 0.043 0.855 0.371 1.441 0.973 1.761 1.797z" inkscape:connector-curvature="0"/>
      <path id="path204" style="fill-rule:evenodd;fill:#4c3527" d="m22.816 38.519c-0.187-0.48-0.519-0.824-1-1.039-0.507-0.214-1.015-0.214-1.519 0-0.508 0.188-0.867 0.508-1.082 0.961-0.184 0.481-0.184 0.957 0 1.438 0.187 0.48 0.519 0.816 1 1 0.48 0.215 0.976 0.226 1.48 0.043 0.508-0.188 0.867-0.508 1.082-0.961 0.211-0.481 0.227-0.961 0.039-1.442z" inkscape:connector-curvature="0"/>
      <path id="path206" style="fill-rule:evenodd;fill:#181001" d="m11.777 39.68 1.078-8.161c0.028-0.265-0.039-0.492-0.199-0.679-0.16-0.16-0.375-0.254-0.64-0.282-0.266-0.027-0.493 0.043-0.68 0.204-0.215 0.16-0.332 0.359-0.359 0.597l-1.082 8.16c-0.024 0.243 0.054 0.454 0.242 0.641 0.16 0.188 0.371 0.293 0.64 0.32 0.266 0.028 0.493-0.039 0.68-0.199 0.184-0.16 0.293-0.359 0.32-0.601z" inkscape:connector-curvature="0"/>
      <path id="path208" style="fill-rule:evenodd;fill:#7b6f68" d="m13.215 40.441c0.055-0.695-0.145-1.308-0.598-1.84-0.48-0.535-1.094-0.828-1.84-0.882-0.746-0.051-1.402 0.148-1.961 0.601-0.558 0.453-0.867 1.028-0.921 1.719-0.051 0.695 0.16 1.309 0.64 1.84 0.453 0.562 1.055 0.867 1.801 0.922 0.719 0.054 1.359-0.149 1.922-0.602 0.586-0.453 0.906-1.039 0.957-1.758z" inkscape:connector-curvature="0"/>
      <path id="path210" style="fill-rule:evenodd;fill:#625953" d="m13.215 40.441c0.055-0.695-0.145-1.308-0.598-1.84-0.48-0.535-1.094-0.828-1.84-0.882-0.613-0.051-1.175 0.082-1.679 0.402-0.481 0.32-0.828 0.746-1.043 1.277 0.586-0.586 1.293-0.851 2.121-0.797 0.746 0.051 1.359 0.344 1.84 0.879 0.453 0.559 0.652 1.188 0.601 1.879 0 0.16-0.055 0.375-0.16 0.641 0.426-0.426 0.68-0.945 0.758-1.559z" inkscape:connector-curvature="0"/>
      <path id="path212" style="fill-rule:evenodd;fill:#4c3527" d="m11.336 41.281c0.027-0.402-0.094-0.75-0.359-1.043-0.266-0.316-0.614-0.492-1.039-0.519-0.43-0.051-0.801 0.054-1.122 0.32-0.32 0.266-0.492 0.602-0.519 1-0.027 0.402 0.078 0.762 0.32 1.082 0.266 0.293 0.613 0.465 1.039 0.52 0.426 0.027 0.801-0.094 1.121-0.36 0.344-0.265 0.532-0.601 0.559-1z" inkscape:connector-curvature="0"/>
      <path id="path214" style="fill-rule:evenodd;fill:#181001" d="m11.695 28.961c0.133-0.43 0-0.707-0.398-0.84-0.188-0.055-0.359-0.055-0.52 0-0.187 0.078-0.308 0.211-0.363 0.398l-0.758 1.879c-0.133 0.43 0 0.707 0.399 0.84 0.453 0.137 0.75 0.016 0.883-0.359l0.757-1.918z" inkscape:connector-curvature="0"/>
      <path id="path216" style="fill-rule:evenodd;fill:#7b6f68" d="m11.777 31.68c0.184-0.481 0.172-0.946-0.043-1.399-0.211-0.453-0.57-0.773-1.078-0.961-0.508-0.187-1-0.172-1.48 0.039-0.481 0.215-0.813 0.563-1 1.039-0.188 0.481-0.172 0.95 0.039 1.403 0.215 0.48 0.574 0.8 1.082 0.961 0.504 0.183 1 0.171 1.48-0.043 0.481-0.211 0.813-0.559 1-1.039z" inkscape:connector-curvature="0"/>
      <path id="path218" style="fill-rule:evenodd;fill:#625953" d="m11.258 30.84c0.238 0.453 0.265 0.922 0.078 1.398l-0.121 0.203c0.265-0.215 0.453-0.468 0.562-0.761 0.184-0.481 0.172-0.946-0.043-1.399-0.211-0.453-0.57-0.773-1.078-0.961-0.453-0.16-0.906-0.16-1.359 0-0.481 0.188-0.828 0.481-1.039 0.879 0.586-0.453 1.226-0.558 1.918-0.32 0.508 0.187 0.867 0.508 1.082 0.961z" inkscape:connector-curvature="0"/>
      <path id="path220" style="fill-rule:evenodd;fill:#4c3527" d="m10.535 31.961c0.106-0.266 0.106-0.535 0-0.801-0.133-0.266-0.344-0.453-0.64-0.559-0.293-0.109-0.571-0.093-0.84 0.04-0.266 0.132-0.453 0.332-0.559 0.597-0.105 0.27-0.094 0.535 0.039 0.801 0.106 0.266 0.309 0.453 0.602 0.562 0.293 0.106 0.574 0.094 0.84-0.043 0.265-0.132 0.453-0.332 0.558-0.597z" inkscape:connector-curvature="0"/>
      <path id="path222" style="fill-rule:evenodd;fill:#181001" d="m16.617 28.121c-0.027-0.188-0.109-0.336-0.242-0.441-0.133-0.133-0.293-0.188-0.48-0.161-0.454 0.106-0.653 0.36-0.598 0.762l0.16 2.039c0.051 0.426 0.293 0.613 0.719 0.559 0.426-0.051 0.64-0.293 0.64-0.719l-0.199-2.039z" inkscape:connector-curvature="0"/>
      <path id="path224" style="fill-rule:evenodd;fill:#7b6f68" d="m17.895 30.519c-0.024-0.503-0.239-0.918-0.637-1.238-0.43-0.32-0.895-0.441-1.403-0.359-0.531 0.051-0.972 0.277-1.32 0.679-0.32 0.399-0.465 0.852-0.437 1.36 0.05 0.504 0.277 0.918 0.679 1.238 0.399 0.32 0.864 0.453 1.399 0.402 0.531-0.054 0.961-0.281 1.281-0.679 0.344-0.43 0.492-0.895 0.438-1.403z" inkscape:connector-curvature="0"/>
      <path id="path226" style="fill-rule:evenodd;fill:#625953" d="m17.734 31.238v0.203c0.133-0.32 0.188-0.629 0.161-0.922-0.028-0.503-0.239-0.918-0.641-1.238-0.426-0.32-0.891-0.441-1.399-0.359-0.48 0.023-0.894 0.226-1.242 0.597-0.316 0.348-0.492 0.762-0.519 1.243 0.32-0.696 0.855-1.082 1.601-1.161 0.535-0.054 1 0.079 1.399 0.399 0.402 0.32 0.613 0.734 0.64 1.238z" inkscape:connector-curvature="0"/>
      <path id="path228" style="fill-rule:evenodd;fill:#4c3527" d="m16.938 30.762c-0.028-0.297-0.149-0.536-0.364-0.723-0.238-0.184-0.504-0.25-0.797-0.199-0.297 0.027-0.547 0.16-0.761 0.398-0.188 0.242-0.266 0.496-0.239 0.762 0.024 0.293 0.145 0.535 0.36 0.719 0.238 0.187 0.504 0.269 0.801 0.242 0.292-0.055 0.542-0.188 0.757-0.403 0.188-0.238 0.27-0.503 0.243-0.796z" inkscape:connector-curvature="0"/>
      <path id="path230" style="fill-rule:evenodd;fill:#181001" d="m3.414 31.641 4.961-2.2c0.16-0.082 0.266-0.203 0.32-0.359 0.055-0.188 0.039-0.348-0.039-0.481-0.082-0.16-0.199-0.269-0.359-0.32-0.188-0.055-0.359-0.043-0.52 0.039l-5 2.199c-0.16 0.082-0.269 0.2-0.32 0.36-0.055 0.187-0.043 0.359 0.039 0.519 0.238 0.348 0.547 0.43 0.918 0.243z" inkscape:connector-curvature="0"/>
      <path id="path232" style="fill-rule:evenodd;fill:#7b6f68" d="m2.734 33.16c0.457-0.215 0.762-0.559 0.922-1.039s0.121-0.934-0.121-1.359c-0.238-0.43-0.613-0.723-1.121-0.883-0.476-0.133-0.945-0.094-1.398 0.121-0.454 0.215-0.758 0.558-0.918 1.039-0.16 0.453-0.121 0.906 0.117 1.359 0.242 0.43 0.601 0.723 1.082 0.883 0.504 0.133 0.984 0.094 1.437-0.121z" inkscape:connector-curvature="0"/>
      <path id="path234" style="fill-rule:evenodd;fill:#625953" d="m2.734 33.16c0.457-0.215 0.762-0.559 0.922-1.039s0.121-0.934-0.121-1.359c-0.344-0.563-0.824-0.883-1.437-0.961 0.343 0.215 0.586 0.453 0.718 0.718 0.239 0.426 0.282 0.879 0.122 1.36-0.161 0.453-0.469 0.801-0.922 1.043-0.399 0.183-0.774 0.238-1.121 0.16 0.613 0.344 1.226 0.371 1.839 0.078z" inkscape:connector-curvature="0"/>
      <path id="path236" style="fill-rule:evenodd;fill:#4c3527" d="m1.656 32.48c0.266-0.132 0.442-0.332 0.52-0.601 0.082-0.266 0.054-0.52-0.078-0.758-0.137-0.266-0.348-0.441-0.641-0.52-0.266-0.082-0.535-0.054-0.801 0.079-0.265 0.105-0.441 0.308-0.519 0.601-0.082 0.266-0.055 0.52 0.078 0.758 0.133 0.266 0.347 0.441 0.64 0.519 0.266 0.083 0.536 0.055 0.801-0.078z" inkscape:connector-curvature="0"/>
    </g>
  </g>
<metadata><rdf:RDF><cc:Work><dc:format>image/svg+xml</dc:format><dc:type rdf:resource="http://purl.org/dc/dcmitype/StillImage"/><cc:license rdf:resource="http://creativecommons.org/licenses/publicdomain/"/><dc:publisher><cc:Agent rdf:about="http://openclipart.org/"><dc:title>Openclipart</dc:title></cc:Agent></dc:publisher></cc:Work><cc:License rdf:about="http://creativecommons.org/licenses/publicdomain/"><cc:permits rdf:resource="http://creativecommons.org/ns#Reproduction"/><cc:permits rdf:resource="http://creativecommons.org/ns#Distribution"/><cc:permits rdf:resource="http://creativecommons.org/ns#DerivativeWorks"/></cc:License></rdf:RDF></metadata></svg>
