<?xml version="1.0" encoding="UTF-8" standalone="no"?>
<!-- Created with Inkscape (http://www.inkscape.org/) -->
<svg xmlns:inkscape="http://www.inkscape.org/namespaces/inkscape" xmlns:rdf="http://www.w3.org/1999/02/22-rdf-syntax-ns#" xmlns="http://www.w3.org/2000/svg" xmlns:xlink="http://www.w3.org/1999/xlink" xmlns:ns1="http://sozi.baierouge.fr" xmlns:cc="http://creativecommons.org/ns#" xmlns:sodipodi="http://sodipodi.sourceforge.net/DTD/sodipodi-0.dtd" xmlns:dc="http://purl.org/dc/elements/1.1/" id="svg2" xml:space="preserve" viewBox="0 0 11.849 32.345" version="1.1" inkscape:version="0.91 r13725">
  <defs id="defs6">
    <linearGradient id="linearGradient24" y2="7.0264" gradientUnits="userSpaceOnUse" x2="-9.9443" gradientTransform="matrix(.000030622 .8 .8 .0008 -.000077009 25.876)" y1="7.0264" x1="-36.069">
      <stop id="stop26" style="stop-color:#242224" offset="0"/>
      <stop id="stop28" style="stop-color:#323628" offset=".1529"/>
      <stop id="stop30" style="stop-color:#627d37" offset=".72550"/>
      <stop id="stop32" style="stop-color:#75993d" offset=".99220"/>
      <stop id="stop34" style="stop-color:#75993d" offset="1"/>
    </linearGradient>
    <linearGradient id="linearGradient48" y2="5.4502" gradientUnits="userSpaceOnUse" x2="-1.4556" gradientTransform="matrix(.000022222 .8 .8 .0008 -.000097668 25.876)" y1="5.4502" x1="-37.456">
      <stop id="stop50" style="stop-color:#242224" offset="0"/>
      <stop id="stop52" style="stop-color:#37323c" offset=".1804"/>
      <stop id="stop54" style="stop-color:#716283" offset=".74120"/>
      <stop id="stop56" style="stop-color:#87759f" offset="1"/>
    </linearGradient>
  </defs>
  <g id="g10" transform="matrix(1.25 0 0 -1.25 0 32.345)">
    <g id="g12">
      <g id="g14">
        <g id="g16">
          <g id="g22">
            <path id="path36" style="fill-rule:evenodd;fill:url(#linearGradient24)" d="m1.762 0.356c0.343 6.106 1.73 11 4.16 14.68 1.223 1.84 2.41 3.082 3.558 3.719-2.453-2.481-3.96-6.278-4.519-11.399-0.293-2.558-0.336-4.867-0.121-6.922-0.559-0.371-1.238-0.504-2.039-0.398-0.403 0.078-0.746 0.187-1.039 0.32z" inkscape:connector-curvature="0"/>
          </g>
        </g>
      </g>
      <g id="g38">
        <g id="g40">
          <g id="g46">
            <path id="path58" style="fill-rule:evenodd;fill:url(#linearGradient48)" d="m0 0.555c0.348 9.708 1.906 16.84 4.68 21.399 1.386 2.269 2.734 3.574 4.039 3.922-2.879-1.707-4.731-6.508-5.559-14.399-0.398-3.922-0.519-7.679-0.359-11.281-0.856-0.242-1.574-0.254-2.16-0.039-0.293 0.106-0.508 0.238-0.641 0.398z" inkscape:connector-curvature="0"/>
          </g>
        </g>
      </g>
    </g>
  </g>
<metadata><rdf:RDF><cc:Work><dc:format>image/svg+xml</dc:format><dc:type rdf:resource="http://purl.org/dc/dcmitype/StillImage"/><cc:license rdf:resource="http://creativecommons.org/licenses/publicdomain/"/><dc:publisher><cc:Agent rdf:about="http://openclipart.org/"><dc:title>Openclipart</dc:title></cc:Agent></dc:publisher></cc:Work><cc:License rdf:about="http://creativecommons.org/licenses/publicdomain/"><cc:permits rdf:resource="http://creativecommons.org/ns#Reproduction"/><cc:permits rdf:resource="http://creativecommons.org/ns#Distribution"/><cc:permits rdf:resource="http://creativecommons.org/ns#DerivativeWorks"/></cc:License></rdf:RDF></metadata></svg>
