<svg id="Layer_1" data-name="Layer 1" xmlns="http://www.w3.org/2000/svg" viewBox="0 0 350.43 640"><title>plants</title><path d="M167.83,48.2c-10.2,9.4-19.1,25.6-21.5,39-2.3,12.9,1.8,28.1,11.7,42.9,4.9,7.4,12.4,14.6,16.1,15.5,7.4,1.9,24.6-22.1,28.9-40.1,4.1-17.4-3.3-39.1-18.6-54.8C176.33,42.4,174.43,42.2,167.83,48.2Z"/><path d="M117.73,130.5c-13.3,4.2-29.3,16.1-29.3,21.9,0,2.4,7.3,9.9,13.6,14.1,11.7,7.8,24.8,10.8,35.5,8.1,16-4,33.9-17.1,32.2-23.5-.7-2.8-9.2-10.6-15.8-14.6C142.33,129.6,128.23,127.2,117.73,130.5Z"/><path d="M207.43,131.4a55.46,55.46,0,0,0-21.7,13.1c-5.9,5.7-6.5,8-3.2,12.6,3.1,4.4,14.2,11.8,22.7,15.2,13.9,5.5,28,3.7,42.4-5.6,7.6-4.9,13.8-11.4,13.8-14.5,0-3.3-8.3-11.5-16-15.9C232.33,128.8,219.53,127.2,207.43,131.4Z"/><path d="M172.73,159.1c-1.3.4-4.3,3-6.8,5.6a76.6,76.6,0,0,0-19.3,36.2c-1.4,6.8-1.5,9-.4,15.2,1.7,9.8,5.4,18.9,11.9,28.7,5,7.6,13.8,16.2,16.5,16.2,5,0,16.8-13.3,22.9-25.8,10.4-21.4,8.8-38.6-5.8-60.9-4.9-7.5-11.5-14.2-15.3-15.5A6.1,6.1,0,0,0,172.73,159.1Z"/><path d="M65.63,185c-6.9,4.2-15.7,18.3-18.7,30.1-3.8,14.3,2.1,32,14.8,45,6.4,6.5,8.4,6.4,15.1-.4,8.7-9,15.6-24.5,15.6-35.1,0-13.7-11.2-35-20.9-40.1C69,183.3,68.43,183.3,65.63,185Z"/><path d="M277.63,185c-6.8,4.2-15.9,18.7-18.8,30.3-3.7,14,2.3,32,14.9,44.8,6.4,6.5,8.4,6.4,15-.4,9-9.3,15.7-24.6,15.7-36,0-5.5-3.6-16.9-7.4-23.8-3.4-6-10.1-13.6-13.5-15.4C281,183.3,280.43,183.3,277.63,185Z"/><path d="M27,252.1c-8.9,1.4-23.6,10.2-26.7,16.1-2.8,5.3,12.6,17.2,25.9,19.9,11.1,2.3,24.2-2.2,34-11.6l5.4-5.3-1.7-3.1c-2-4-12-11.4-18.8-13.9A34.82,34.82,0,0,0,27,252.1Z"/><path d="M99.43,252.4c-11.5,2.4-26,12.4-26,17.9,0,6.8,20.6,18.7,32.3,18.7,5.4,0,13.8-2.7,20.1-6.4,5.7-3.3,12.6-10,12.6-12.1,0-2.8-8-10.2-14.8-13.8a57.18,57.18,0,0,0-12.6-4.6c-3.3-.6-6-1.1-6-1S102.43,251.7,99.43,252.4Z"/><path d="M238.63,252.1c-9.2,1.8-21.8,9.4-25.9,15.5-1.4,2.2-1.4,2.6.3,5.3,4.2,6.5,15.1,13.1,25.2,15.2,11.1,2.3,24.2-2.2,34-11.6l5.4-5.3-1.6-3.1c-2-3.7-10.4-10.2-16.8-13-3.6-1.5-15.9-4.6-16.2-4C242.93,251.2,241,251.6,238.63,252.1Z"/><path d="M311.43,252.4c-11.7,2.5-26,12.3-26,17.8s14.9,15.6,26.6,18.1c6.9,1.4,15.6-.2,23.8-4.6,6.5-3.4,14.6-10.8,14.6-13.2,0-2.8-7.9-10.2-14.8-13.8a57.18,57.18,0,0,0-12.6-4.6c-3.3-.6-6-1.1-6-1S314.43,251.7,311.43,252.4Z"/><path d="M61.33,280.9c-8.7,8.9-15.9,24.8-15.9,35.1,0,5.2,2.6,14.5,6.2,21.7,3.3,6.7,12.6,17.8,15.8,18.8,3,1,7.7-2.4,12.7-9,14-18.6,15.8-34.2,6.1-53.5-3.7-7.3-14.3-19-17.3-19C67.93,275,64.43,277.7,61.33,280.9Z"/><path d="M274.93,279.1c-6.3,5.8-11.4,14-14.7,23.3-4.3,12.6-3.4,22,3.4,35.6,3.5,6.8,12.6,17.5,15.9,18.5,6.1,2,19.5-15.5,23.3-30.1,2.9-11.1,1.6-20.1-4.6-32.3-3.6-7.2-14.3-19.1-17.1-19.1C280.13,275,277.43,276.8,274.93,279.1Z"/><path d="M167.63,284.9c-12.7,13.1-18.5,30.7-14.7,45.1,3.6,13.8,15.8,31,21.9,31,8.7,0,23.6-25.5,23.6-40.2,0-11-6.8-26.4-15.6-35.5C176,278.4,173.93,278.3,167.63,284.9Z"/><path d="M126.73,349.9c-9,3.3-21.3,12.8-21.3,16.6,0,1.9,5.3,7.5,10.2,10.7,13.6,9,25.8,10.1,38.9,3.5,7.5-3.7,12.5-7.6,15.3-11.9,1.4-2.1,1.3-2.6-.5-5.5-2.5-4-12.1-10.5-19.5-13.2A35.83,35.83,0,0,0,126.73,349.9Z"/><path d="M201.33,349.4c-10.8,4.2-21.9,12.8-21.9,17.1,0,3.2,8.8,11.1,16.6,14.7,9.2,4.3,18.1,4.9,26.6,1.8,10.7-3.8,21.8-12.4,21.8-16.8,0-2.6-9.8-11-16.9-14.4-5.4-2.6-8.1-3.2-14.6-3.5C207.83,348.1,203.63,348.5,201.33,349.4Z"/><path d="M79.23,406.4c-9.7,2.6-16.2,9.6-17.4,18.7-.3,2.4.1,13.4,1,24.4,5.5,69.6,7.8,99.9,8.6,113.5.9,17.7,2.7,26.4,7.6,36.6,8.8,18.6,23.1,28.7,45.4,32.1,14.4,2.2,94.7,1.4,104-1.1a67.56,67.56,0,0,0,31.1-17.5c13.4-13.4,17.1-23.8,19.3-54.6.8-11,3.3-45,5.7-75.5l4.3-55.5-1.9-5.9c-2.5-7.8-7.5-12.9-14.6-15-4.6-1.4-16.8-1.6-96.8-1.5C104.93,405.1,82.83,405.4,79.23,406.4Z"/></svg>