<svg id="svg2" xmlns="http://www.w3.org/2000/svg" viewBox="0 0 351.59 566.93"><defs><style>.cls-1{fill:#b3ff80;}.cls-2{fill:#cfa;}.cls-3{fill:#deaa87;}.cls-4{fill:#8dd35f;}.cls-5{fill:#d38d5f;}.cls-10,.cls-6{fill:aqua;}.cls-7{fill:#ff0;}.cls-8{fill:#520;}.cls-11,.cls-9{fill:none;stroke-width:0.27px;}.cls-9{stroke:#520;}.cls-10,.cls-11,.cls-9{stroke-linecap:round;stroke-linejoin:round;}.cls-10{stroke:#fff;stroke-width:0.29px;}.cls-11{stroke:#d38d5f;}</style></defs><title>trees</title><g id="g4915"><circle id="path4141" class="cls-1" cx="153.5" cy="213.84" r="140.86"/><circle id="circle4143" class="cls-2" cx="248.67" cy="156.59" r="99.73"/><circle id="circle4145" class="cls-1" cx="240.4" cy="277.19" r="77.85"/><circle id="circle4149" class="cls-2" cx="81.06" cy="201.95" r="77.85"/><circle id="circle4151" class="cls-2" cx="150.35" cy="66.78" r="64.52"/><path id="path4385" class="cls-3" d="M111.68,57.68c-5.34-1.9-13.49-2.26-16.14-.22s-9.15,4.65-9.15,4.65,4.77-5.58,9.64-7.45,11.18-.27,11.18-.27L97.43,47s-5.26-4.59-7.82-7.42-6.12-6.47-6.12-6.47,9.47,7.35,12,9.58,7.71,6.5,7.71,6.5S102,44.39,101,41.82a71.26,71.26,0,0,0-3.86-7.46s6,8.65,6.83,10.71,1,3.78,2.26,6,7.46,5.28,5.44,6.66Z"/><circle id="circle4170" class="cls-1" cx="152.24" cy="84.16" r="54.34"/><circle id="circle4153" class="cls-2" cx="212.38" cy="73.78" r="38.47"/><path id="path4155" class="cls-3" d="M105.57,313s23.77,30.75,31.12,70.94.86,89.44-.06,98.71-13.21,31.82-26.21,40.2-26.5,15.11-26.5,15.11,49.5-5.82,61.11-20.7,7.15,6.26,15.41,13.47c7.76,6.78,12.6,15.16,11.93,34.12,12.53-16.4,9.16-39.68,9.27-42.56,0,0,14.33,10,17.77,15.7s11.16,14.43,11.16,14.43l-4.63-27.08s15.54,7.24,22.1,8.69,13.59,2.22,13.59,2.22-22.11-16.17-30.32-24.08c-5.21-5-15.8-21.26-19.26-28.18s-10.07-44.9-9.94-51.24-2.81-43.23-2.15-48,56-54.53,73.08-63.85-6.67-7.47-11.77-2.77-21.38,20.62-40.45,31.77c-6.59,3.86-26.63,12.34-26.63,12.34l.34-25.11c.19-14.13-12.69-8.24-18.23-3.72-4.87,4-14.89-1.5-14.89-1.5.07,12.71,1.06,14.41.45,21.86S118.35,313.88,105.57,313Z"/><circle id="circle4147" class="cls-1" cx="77.47" cy="272.18" r="77.85"/><path id="circle4272" class="cls-4" d="M198,80.36c-.53.29-1.06.58-1.58.88-2.79,1.67-11.15,6-13.69,7.29l-7.62,3.86A110.1,110.1,0,0,1,260.21,199.5c0,1.83-.14,3.67-.28,5.5a60.8,60.8,0,0,1-71,97.45,108.73,108.73,0,0,1-77.79-.13,60.68,60.68,0,0,1-81.3-57.23c0-10-8.33-5.48-3.6-14.29-3.63,2.12,1.9-18.14-1.67-15.92-5.75,3.7-11.74,13.75-15.19,19.73a77.66,77.66,0,0,0,94.24,110.8,139.08,139.08,0,0,0,99.54.16A77.79,77.79,0,0,0,294,220.87c.17-2.34.29-4.69.35-7A140.86,140.86,0,0,0,198,80.36ZM36.63,168.91l-.68.47.41.27.27-.74Z"/><path id="path4166" class="cls-1" d="M18.46,220.54a68.68,68.68,0,0,0,15.92,28.28,71.9,71.9,0,0,1,98.18-96.17,68.73,68.73,0,0,0-114.1,67.89Z"/><circle id="circle4157" class="cls-1" cx="223.18" cy="173.85" r="104.41"/><path id="path4289" class="cls-4" d="M238,227.79a82.87,82.87,0,0,0-10.81-37.59A86.66,86.66,0,0,1,85.3,275.69,82.83,82.83,0,0,0,238,227.79Z"/><path id="circle4159" class="cls-2" d="M183.65,191.33a89.31,89.31,0,0,0-33.86,25,93.25,93.25,0,0,1,139.41,111,89.13,89.13,0,0,0-105.54-136Z"/><path id="path4164" class="cls-2" d="M10.8,288.43a68.92,68.92,0,0,0,15.93,28.29,71.9,71.9,0,0,1,98.17-96.18A68.73,68.73,0,0,0,10.8,288.43Z"/><path id="path4168" class="cls-2" d="M136.24,161.26a85.17,85.17,0,0,0,4.77,40,89.11,89.11,0,0,1,158.1-63.35,85.17,85.17,0,0,0-162.87,23.4Z"/><path id="path4172" class="cls-1" d="M65.7,297.54c2.23,5.72,5.52,8.06,2,15.48s-8.28,8.63-14.67,11.38c-1.21-7.85-2.79-11.51.7-18.92S60.39,298,65.7,297.54Z"/><path id="path4175" class="cls-1" d="M61.64,294.05C58,298,57.4,301.49,50.22,301.57s-10-3.22-14.58-7.21c5.73-3.95,8-6.6,15.18-6.68S59.28,290,61.64,294.05Z"/><path id="path4177" class="cls-2" d="M225.8,181.29c-1-6.28-3.75-9.39,1.46-16.09s10.31-6.84,17.39-8.17c-.56,8.21.21,12.25-5,18.95s-8.4,6.09-13.86,5.31Z"/><path id="path4179" class="cls-1" d="M42.93,301.57s-2.59,1.2-2.75,6.08c-.18,5.47-2.86,7.26-2.86,7.26s7.07-.21,10.27-2.82c3.55-2.88,5.21-9.08,5.21-9.08S46.09,304.75,42.93,301.57Z"/><path id="path4181" class="cls-2" d="M220.34,178.18c-5,1.4-7.17,4-13.08.45s-6.53-7.59-8.32-13.15c6.65-.38,9.82-1.4,15.73,2.1s5.74,6.13,5.67,10.6Z"/><path id="path4183" class="cls-1" d="M311.88,132.92c5.1-1.71,7.29-4.49,13.63-1.13s7.2,7.6,9.34,13.31c-6.92.73-10.18,2-16.53-1.4S312,137.58,311.88,132.92Z"/><path id="path4185" class="cls-1" d="M313.69,127.91c-1.9-3.92-4.35-5.4-2.29-10.83s5.38-6.56,9.75-8.85c1.29,5.48,2.61,8,.54,13.42s-4.27,5.67-8,6.26Z"/><path id="path4187" class="cls-1" d="M116.11,199.64c-5.68,2.35-8,5.69-15.44,2.35s-8.79-8.1-11.68-14.44c7.83-1.37,11.45-3,18.94.32s7.65,6.47,8.18,11.77Z"/><path id="path4189" class="cls-1" d="M119.51,195.52c-4-3.58-7.52-4.1-7.75-11.27s3-10,6.92-14.72c4.07,5.65,6.76,7.86,7,15S123.48,193.07,119.51,195.52Z"/><path id="path4191" class="cls-1" d="M111.62,177s-1.25-2.57-6.13-2.63c-5.48-.06-7.32-2.71-7.32-2.71s.35,7.06,3,10.21c3,3.49,9.19,5,9.19,5S108.51,180.19,111.62,177Z"/><path id="path4193" class="cls-4" d="M138,44.13c-5,1-7.35,3.31-12.87-.6s-5.8-8-7.1-13.57c6.55.16,9.75-.59,15.26,3.32S138.44,39.76,138,44.13Z"/><path id="path4195" class="cls-4" d="M141.43,41.35C138.76,37.8,136,36.82,137,31s4.07-7.61,8-10.78c2.38,5.23,4.2,7.46,3.22,13.3S145,40,141.43,41.35Z"/><path id="path4197" class="cls-4" d="M138.05,25.06s-.59-2.28-4.53-3.12C129.1,21,128,18.56,128,18.56s-.85,5.77.8,8.75c1.82,3.3,6.62,5.55,6.62,5.55s-.44-5.7,2.6-7.8Z"/><path id="path4215" class="cls-1" d="M66.46,108.63c-4.61.91-6.82,3.07-11.93-.56s-5.38-7.39-6.59-12.58c6.08.16,9-.54,14.16,3.08S66.86,104.58,66.46,108.63Z"/><path id="path4217" class="cls-1" d="M67.5,108.46c-2.48-3.28-5-4.19-4.12-9.61s3.77-7.06,7.39-10c2.21,4.85,3.89,6.92,3,12.33s-2.92,6-6.26,7.28Z"/><path id="path4221" class="cls-1" d="M63.67,112.26c-2.77,3-3.2,5.71-8.69,5.82s-7.63-2.4-11.19-5.42c4.36-3.06,6.08-5.1,11.57-5.21S61.84,109.2,63.67,112.26Z"/><path id="path4223" class="cls-2" d="M254.57,309.64c-4.16-4.51-8.08-5.49-7.54-13.67s4.56-11.05,9.5-16c4,6.87,6.8,9.69,6.26,17.87S259.36,307.31,254.57,309.64Z"/><path id="path4225" class="cls-2" d="M262.55,310.06c5-2,7-4.87,13.55-1.85s7.6,7.21,10,12.8c-6.88,1.09-10.07,2.5-16.58-.52s-6.61-5.78-7-10.43Z"/><path id="path4239" class="cls-5" d="M255.49,314.2c-4.45-.12-11.67,1.52-14.22,3.87-5.1,4.7-21.38,20.62-40.45,31.77,5,4-28.29,34.94,1,10.59.55-.46,1.42-.19,2.11-.26,17.35-15.73,39.37-34,49.09-39.33C261.6,316.18,259.93,314.31,255.49,314.2Zm-137.15,8.68c-1.43.72-3.14,1.39-4.81,2A190.83,190.83,0,0,1,132,365.12c8.85-7.21,11-1.2,16.06-.21,12.46,2.44,17.85-5.85,26.23-7l.28-20.8c.19-14.13-12.69-8.24-18.23-3.72-4.87,4-14.89-1.51-14.89-1.51.07,12.72,1.06,14.42.45,21.87C141.43,359,129.69,336.56,118.34,322.88Z"/><path id="path4244" class="cls-5" d="M220.49,345.64c-3.59,1.55-8.34,3.76-9.81,5.28-2.45,2.53-12.51,7.19-12.51,7.19-5.66,4.63-20.33,16.87-22.8,23.22s-5.47,26.21-3.67,35.14,12.82,81.66,18.23,89c3.55,4.81,13.51,27.88,20,43.36l-4-23.53s15.54,7.24,22.1,8.69,13.59,2.22,13.59,2.22-22.11-16.17-30.32-24.08c-5.21-5-15.8-21.26-19.26-28.18s-10.07-44.9-9.94-51.24-2.81-43.23-2.16-48C180.35,381.79,200.68,362.52,220.49,345.64Z"/><path id="path4249" class="cls-5" d="M173.72,563c1.25-12,3.33-24.24,1.8-33.29s-4-16.76-3.84-23.27-.87-17.27-.87-17.27,8.21,19.76,9.53,23.36a20.46,20.46,0,0,1,1.13,9.64c-.34,2.7,1.3,11.82-.31,18.58s-1.54,16.94-6.67,23.54-.77-1.29-.77-1.29Z"/><path id="path4251" class="cls-5" d="M131.53,526.35c13.19-6.67,14.82-11.64,17.11-13s4,1.91,4.76-1.75,3-16.49-.71-15.91-7.3,9.45-8.89,13.2-7,11.35-12.13,14.29-21.53,9.68-21.53,9.68,17.12-5.48,21.39-6.52Z"/><path id="path4383" class="cls-3" d="M282.87,154.94a77.52,77.52,0,0,1,23.88-20.18c15.4-8.4,25.85-10.14,25.85-10.14s-24.31,12-28.17,17.16,1.55.41,12.18,2.86,15.92,6.76,15.92,6.76-16-5.58-24.57-4.38-17.54,7.32-17.54,7.32l-4.59,5.5a10.64,10.64,0,0,1-3-4.9Z"/><g id="g4432"><path id="path4387" class="cls-6" d="M329.74,117.76c-1.87,5.13-7.54,9.28-12.66,9.28-2.27,0-12.26-2.21-10.64-2.88a9,9,0,0,0,5.57-5.89c1.87-5.12,6.72-9.78,11.84-9.78s7.76,4.15,5.89,9.27Z"/><path id="path4392" class="cls-7" d="M329,112.34l5.52-2.34L328,115.59Z"/><path id="path4394" class="cls-7" d="M328,115.58l5.19-1.13-3.68,2.62Z"/><path id="path4396" class="cls-8" d="M328,115.61c.54-.12,2.24-.77,2.24-.77l4.35-4.9Z"/><path id="path4398" class="cls-8" d="M328,115.6l2.3-.79,2.82-.32Z"/><path id="path4400" class="cls-9" d="M324.89,113.56s-.64-1.69,1.13-1.74"/><path id="path4402" class="cls-9" d="M327.78,111.28s-.15-1,.76-.61"/><path id="path4404" class="cls-9" d="M324.7,113.18a6.46,6.46,0,0,0-1.14.46"/><path id="path4406" class="cls-9" d="M324.77,112.39c-.4,0-.92-.17-1.26-.17"/><path id="path4408" class="cls-9" d="M325.13,111.83a2.07,2.07,0,0,1-.72-.89"/><path id="path4410" class="cls-9" d="M325.78,111.78c-.1-.3-.29-.68-.19-1"/><path id="path4412" class="cls-9" d="M327.65,111c-.3-.07-.49-.38-.66-.59"/><path id="path4414" class="cls-9" d="M327.87,110.51a1.42,1.42,0,0,1-.37-.87"/><path id="path4416" class="cls-9" d="M328.35,110.4c-.1-.38-.12-.84.35-.87"/><path id="path4418" class="cls-10" d="M318,117.84c-1.14-2.51-4.47-2-6.89.12s-4.15,1.91-4.15,1.91,3.81,2.77,6.9,2.37,3.44-1.87,3.44-1.87"/><path id="path4420" class="cls-9" d="M321,125.07c.63.74.79,1.94,1.43,2.65.83-.74,2.18,1.13,1.22,1.41"/><path id="path4422" class="cls-9" d="M322.38,127.63a1.4,1.4,0,0,1,.41,1.76"/><path id="path4424" class="cls-9" d="M322.76,127.49c.95-.94,2.32.76,1.06,1.22"/><path id="path4426" class="cls-9" d="M323.7,124.94c.29.34.69,1,.93,1.26.76-.14,1.48.89.84,1.24"/><path id="path4428" class="cls-9" d="M324.49,126.39c.56-.09.68.71.56,1"/><path id="path4430" class="cls-9" d="M324.8,126.26c.37-.41,1.19,0,1.33.42"/></g><path id="path4823" class="cls-11" d="M121.06,518.39c8.11-7.6,11.23-15.69,15.4-25.29,1-2.29,2.59-4.41,3.35-6.93,1-3.16,1.11-7.24,2.15-10"/><path id="path4825" class="cls-11" d="M143.75,485.63c-.81-3.14,1.69-5.67,2-8.71.27-2.73-.65-5.42-.56-8.13.23-7.2,2.14-18.36,1.28-25"/><path id="path4827" class="cls-11" d="M138.82,497.28a63,63,0,0,0,11-25.4"/><path id="path4829" class="cls-11" d="M147.66,492.81c-.58-1.94.06-3.29.87-5,1-2.25,2.61-4.35,3.33-6.73,1.45-4.78-.14-12.4-.84-17.28-.34-2.34-1.32-4.89-1.09-7.27.56-5.92,3-11.81,2.62-17.81"/><path id="path4831" class="cls-11" d="M135,509.21c.71-8.94,14.69-12.27,14.69-21.31"/><path id="path4833" class="cls-11" d="M125.83,520.43c1.4-1,2.64-2.1,4-3,5-3.37,8.45-6.51,11.58-11.73,1.05-1.74,1.33-3.9,3-5.2"/><path id="path4835" class="cls-11" d="M103.73,529.62c7.4-3.69,15.82-6.42,22.21-11.87,1.5-1.28,2.19-3.24,3.57-4.58"/><path id="path4837" class="cls-11" d="M120.24,525.14a28,28,0,0,0,12.29-7.26"/><path id="path4839" class="cls-11" d="M142.56,466.26a27.55,27.55,0,0,1,1.25-12.73"/><path id="path4841" class="cls-11" d="M148.89,449.32c1.13-13-6.35-25-5-38.3"/><path id="path4843" class="cls-11" d="M150.12,428.94c-4.23-6.18-2.39-13.79-2.84-20.67-.26-4-1.52-8-1.8-12"/><path id="path4845" class="cls-11" d="M156,491.63c-.15-2-.32-1.35,0-2.39,2.31-8,.33-15.92-.37-24.06-.23-2.62-1-4.81-.37-7.46"/><path id="path4847" class="cls-11" d="M158.79,495.26a22.61,22.61,0,0,1,.31-3.39c.72-3.52,2.05-6.19,2.05-9.95,0-2.9-1.25-5.37-.84-8.41"/><path id="path4849" class="cls-11" d="M160.33,503.6c-.16-5.14,4.38-8.69,5.13-13.71.32-2.12-.48-6-.28-7.33"/><path id="path4851" class="cls-11" d="M159,512.79c-1-1.31-.9-2.19-1.12-3.59s-1.1-2.36-1.21-3.71c-.27-3.25,1.62-7.41.29-10.33-.56-1.23-2-1.9-2.5-2.67"/><path id="path4853" class="cls-11" d="M161,519.64c2.16-3.47-2-10.95-.56-14.05"/><path id="path4855" class="cls-11" d="M163.74,509.58c.32-3.78-.2-9.59,1.28-13.2"/><path id="path4857" class="cls-11" d="M168.13,500.85c-1.19,3.14.29,6.69-.41,9.83-.49,2.16-2.08,3.19-2.89,5-1.47,3.28.25,13.65,2.2,16.54"/><path id="path4859" class="cls-11" d="M168.56,518.25c-2.74,3.55,1,6.74,1.1,10.4a28,28,0,0,1-.63,3.92"/><path id="path4861" class="cls-11" d="M172.11,533.09c-2.23,4.23-.88,7.56.62,11.69"/><path id="path4863" class="cls-11" d="M160.25,525.48a14.21,14.21,0,0,1-3.11-7c-.17-2.6,2.09-4.68,2.34-7.17.37-3.75-1.69-7.7.12-11.33"/><path id="path4865" class="cls-11" d="M151,464a26.6,26.6,0,0,1,.89-8c.85-3.72,4.15-6.7,4.8-10.45,1-5.85-1.46-11.67-.63-17.31"/><path id="path4867" class="cls-11" d="M147.09,411.93c2.68-7.24,1.86-16,1.22-23.67"/><path id="path4869" class="cls-11" d="M144.05,399.09c-1.4-3.59-3-7.17-3.88-11-.5-2.29.4-4.4.18-6.68-.26-2.78-2.81-8.14-1.68-10.62"/><path id="path4871" class="cls-11" d="M141.25,385.41a10.52,10.52,0,0,1-.38-3.61c.4-3.81,1.25-7.39,1.38-11.29.09-2.67-1.46-5.35-.81-7.89"/><path id="path4873" class="cls-11" d="M144.43,388.19c-.39-1.86-.52-1.47-.37-2.6.33-2.54,2.37-5.44,2.26-7.86-.18-4.15-3-10.24-.71-14"/><path id="path4875" class="cls-11" d="M149.6,382.66a29.19,29.19,0,0,1,1,5.5c.24,3.83-1.13,8.13-.57,11.8.61,4,3.51,7.81,3.51,12,0,2.94-2.84,5.66-2.28,8.5"/><path id="path4877" class="cls-11" d="M152.36,434c-.73-1.76-.22-2.89.51-4.51,1-2.26,2.87-3.87,4.29-5.85,2.8-3.93,1.55-8.12,1.73-12.54"/><path id="path4879" class="cls-11" d="M143.37,407.58c-1.71-2.94.93-5.23.93-8.05,0-2-1.11-3.73-.83-5.87"/><path id="path4881" class="cls-11" d="M154,399.82a7.3,7.3,0,0,1-.62-4.52c.55-3.24,2.75-6,3.26-9.21.63-3.91-1.08-8.53-.82-12.65"/><path id="path4883" class="cls-11" d="M152.29,368.17c-1.73,7.51.69,14.75,1.74,22.1"/><path id="path4885" class="cls-11" d="M157.79,370.61c2.5,6.05-.22,11.68-.48,17.58-.15,3.22.59,5.74-.13,9.07s-3,6.24-2.52,9.66"/><path id="path4887" class="cls-11" d="M161.18,409.44c-2.22-4.1.7-7.79.95-11.75.16-2.58-.36-5,0-7.58"/><path id="path4889" class="cls-11" d="M161.19,368.69a19,19,0,0,1-.88-12.65"/><path id="path4891" class="cls-11" d="M165.72,360.9c-.62,1.82-.59,1.27-.69,2.44-.2,2.57.12,5.3-.38,7.83-.61,3.14-2.15,5.45-2.22,8.76-.06,2.84.81,5.55.76,8.45"/><path id="path4893" class="cls-11" d="M165.11,397.94c-3,5.29.32,11.22-1.41,16.53"/><path id="path4895" class="cls-11" d="M156.56,412.32a16.23,16.23,0,0,0-.64,7.5"/><path id="path4897" class="cls-11" d="M161.45,420.92c-1,7.75-.37,15.23-3.18,22.73"/><path id="path4899" class="cls-11" d="M162.27,447.06a7.07,7.07,0,0,0-.72,3.51c.14,1.79,1.4,3.24,1.47,5.09.09,2.15-1.5,3.6-2,5.6-.53,2.2.42,4.69.46,6.92"/><path id="path4901" class="cls-11" d="M167.79,459.94a20.32,20.32,0,0,0-.68,1.94c-.53,2.2,1.48,4.49,1.61,6.6.14,2.32-.74,5.89-1.23,8.22"/><path id="path4903" class="cls-11" d="M160,454.27c-2.85,4.57-1.09,10.06-1,15.1"/><path id="path4905" class="cls-11" d="M163,435.82a8,8,0,0,0-.58,4.95c.62,3,3.26,5.58,3.89,8.65.73,3.6-1.21,8.48-1.69,12.09"/><path id="path4907" class="cls-11" d="M144.84,434.62c-.44,3.55-1.83,7.77-1.42,11.45.22,2.07,1.26,3.67.91,5.82"/><path id="path4909" class="cls-11" d="M141.5,468.39c.59,3.56,1.62,6.69,1.4,10.41"/><path id="path4911" class="cls-11" d="M136.76,498.43c-3,3.81-2,8.72-3.53,13"/><path id="path4913" class="cls-11" d="M149.39,363.53a32.83,32.83,0,0,0-.07,11.27"/></g></svg>