<svg id="svg2" xmlns="http://www.w3.org/2000/svg" viewBox="0 0 417.81 566.93"><defs><style>.cls-1{fill:#aef470;}.cls-2{fill:#89cc4e;}.cls-3{fill:#cdfdb5;}.cls-4{fill:#d4aa00;}.cls-5{fill:#504416;}.cls-6,.cls-7{fill:none;stroke-linecap:round;stroke-linejoin:round;stroke-width:0.45px;}.cls-6{stroke:#d38d5f;}.cls-7{stroke:#ff0;}.cls-8{fill:#917c6f;}.cls-9{fill:#6c5d53;}</style></defs><title>trees</title><g id="g7646"><circle id="path7241" class="cls-1" cx="98.29" cy="295.9" r="58.23"/><circle id="circle7243" class="cls-1" cx="182.52" cy="313.59" r="58.23"/><circle id="circle7245" class="cls-1" cx="166.58" cy="227.53" r="58.23"/><circle id="circle7247" class="cls-1" cx="90.22" cy="212.82" r="62.39"/><circle id="circle7249" class="cls-1" cx="132.97" cy="156" r="58.23"/><circle id="circle7251" class="cls-1" cx="164.25" cy="77.03" r="61.98"/><circle id="circle7253" class="cls-1" cx="222.52" cy="141.09" r="58.23"/><circle id="circle7255" class="cls-1" cx="262.34" cy="86.54" r="49.48"/><circle id="circle7257" class="cls-1" cx="309.18" cy="132.84" r="62.04"/><circle id="circle7259" class="cls-1" cx="265.5" cy="208.66" r="58.23"/><circle id="circle7261" class="cls-1" cx="257.28" cy="279.55" r="58.23"/><circle id="circle7263" class="cls-1" cx="317" cy="229.19" r="58.23"/><circle id="circle7265" class="cls-1" cx="330.85" cy="309.55" r="58.23"/><circle id="circle7267" class="cls-1" cx="121.53" cy="341.23" r="53.27"/><circle id="circle7269" class="cls-1" cx="257.77" cy="324.13" r="58.23"/><circle id="circle7271" class="cls-1" cx="70.23" cy="345.57" r="25.24" transform="translate(-13.21 2.95) rotate(-2.2)"/><circle id="circle7273" class="cls-1" cx="314.82" cy="374.08" r="31.61"/><circle id="circle7275" class="cls-1" cx="223.41" cy="52.16" r="24.26"/><circle id="circle7277" class="cls-1" cx="40.53" cy="221.01" r="24.26"/><circle id="circle7279" class="cls-1" cx="85.06" cy="373.34" r="24.26"/><path id="circle7281" class="cls-2" d="M253.75,336.75a51.81,51.81,0,0,0,14-54.93,59.47,59.47,0,0,1-98.7,31,51.68,51.68,0,0,0,84.72,23.9Z"/><path id="circle7286" class="cls-2" d="M20,208.11A24.18,24.18,0,0,0,36.82,245a61.85,61.85,0,0,0,6,8.17,60.73,60.73,0,0,1,8.89-17.66,65,65,0,0,1-15.15-17.3,25.32,25.32,0,0,1-16.5-10Zm21.33,76a56.15,56.15,0,0,0,3.93,35.61,26.31,26.31,0,0,1,5.82-13.48A60.49,60.49,0,0,1,41.35,284.13ZM386,328.21a60.69,60.69,0,0,1-27.88,16,32.34,32.34,0,0,1,.09,16.61A58.28,58.28,0,0,0,386,328.21ZM47.65,334.37a25.13,25.13,0,0,0,13.54,34.74A24.17,24.17,0,0,0,85.06,397.6,24.29,24.29,0,0,0,102,390.73a53,53,0,0,0,64.59-21.19,57.87,57.87,0,0,0,47.51-7,57.95,57.95,0,0,0,69.22,13.91A31.6,31.6,0,0,0,346,379.09a32.89,32.89,0,0,1-52.57-23.9,60.41,60.41,0,0,1-72.15-14.5A60.26,60.26,0,0,1,171.77,348a55.27,55.27,0,0,1-67.33,22.09A25.3,25.3,0,0,1,61.51,352a26,26,0,0,1,.41-4.41,26.34,26.34,0,0,1-14.27-13.21Z"/><path id="path7330" class="cls-2" d="M61.5,245.75a32.47,32.47,0,0,0,33-13.12,37.32,37.32,0,0,1-52.1-38.71A32.43,32.43,0,0,0,61.5,245.75Z"/><path id="path7332" class="cls-2" d="M373.18,352.57a42.44,42.44,0,0,0,11.46-45A48.72,48.72,0,0,1,303.77,333a42.34,42.34,0,0,0,69.41,19.58Z"/><path id="path7334" class="cls-2" d="M307.12,290.76a61.42,61.42,0,0,0,16.57-65.14,70.52,70.52,0,0,1-117,36.8,61.29,61.29,0,0,0,100.47,28.34Z"/><path id="path7336" class="cls-2" d="M90.21,325a39.78,39.78,0,0,0,31.2-30.36,45.68,45.68,0,0,1-77.09-19.29A39.7,39.7,0,0,0,90.21,325Z"/><path id="path7338" class="cls-2" d="M136.25,379.19a60.42,60.42,0,0,0,47.38-46.12A69.37,69.37,0,0,1,66.55,303.78a60.28,60.28,0,0,0,69.7,75.41Z"/><path id="path7340" class="cls-2" d="M229.3,271.17a59.41,59.41,0,0,0,6.41-64.69,68.2,68.2,0,0,1-106.59,52.15A59.29,59.29,0,0,0,229.3,271.17Z"/><path id="path7342" class="cls-2" d="M177.27,218.45a46.18,46.18,0,0,0,31.4-39.59,53,53,0,0,1-91.62-10.73,46.08,46.08,0,0,0,60.22,50.32Z"/><path id="path7344" class="cls-2" d="M358.51,170.46a46.17,46.17,0,0,0,3.9-50.38,53,53,0,0,1-82,42.31,46.07,46.07,0,0,0,78.06,8.07Z"/><path id="path7346" class="cls-2" d="M216.39,194.85a34.68,34.68,0,0,0,33.86-17.12,39.81,39.81,0,0,1-59.09-36.12,34.6,34.6,0,0,0,25.23,53.24Z"/><path id="path7352" class="cls-3" d="M127.64,31.85a53.79,53.79,0,0,0-15.88,56.67A61.76,61.76,0,0,1,215,58.77a53.68,53.68,0,0,0-87.35-26.92Z"/><path id="path7348" class="cls-2" d="M136.09,115.94a34.67,34.67,0,0,0,33.85-17.12A39.81,39.81,0,0,1,110.86,62.7a34.59,34.59,0,0,0,25.23,53.24Z"/><path id="path7350" class="cls-3" d="M239.19,52.58a39.65,39.65,0,0,0-11.71,41.8,45.53,45.53,0,0,1,76.13-21.94,39.57,39.57,0,0,0-64.42-19.86Z"/><path id="path7354" class="cls-3" d="M221.39,32.3a18.46,18.46,0,0,0-16.84,13.13,10.53,10.53,0,0,1,3.8,3.06,21.63,21.63,0,0,1,2.91-3.14,21.33,21.33,0,0,1,28.92.79A18.51,18.51,0,0,0,221.39,32.3Z"/><path id="path7365" class="cls-3" d="M279.75,90.59a49.48,49.48,0,0,0-14.61,52.15,56.82,56.82,0,0,1,95-27.38,49.38,49.38,0,0,0-80.38-24.77Z"/><path id="path7367" class="cls-3" d="M93.67,133.36a27.92,27.92,0,0,0-8.24,29.4A32,32,0,0,1,139,147.33a27.84,27.84,0,0,0-45.32-14Z"/><path id="path7369" class="cls-3" d="M75.54,158.87a29.39,29.39,0,0,0-23.13,22.36,33.75,33.75,0,0,1,56.91,14.45,29.33,29.33,0,0,0-33.78-36.81Z"/><path id="path7373" class="cls-2" d="M377.11,380.89a9.67,9.67,0,0,0,1-.27c7.18-2.3-1.41-5.45-.37-7.62.48-1,6.5.19,5.14-3.94-1.09-3.28-6.19.42-6.66-2.1-.17-.87,4.74-1.75,4.23-5.58-.09-.63-.17-1.06-.81-1.28-2.05-.71-4.48,2.16-6.43.55-1.56-1.29,3.06-2.25,2.25-5.5a2,2,0,0,0-1.11-1.54c-1.56-.54-3.3,1.06-4.38,1.9a8.26,8.26,0,0,1-1.84.69,11.49,11.49,0,0,1-1-2.17c-.3-.89-.63-1.77-1-2.65a26.51,26.51,0,0,0-.73-3.34c-2-.44,0,5.31,1.42,8.8-.19.68-.47,1.36-.82,1.47-2,.62-4.73-.94-5.53,2.22-1.28,5.11,7.38.67,5.7,3.4-1.36,2.22-3.87.36-3.78,4.88a2.6,2.6,0,0,0,.85,2.19c2.06,1.5,6.36-4.28,7.2-2,.53,1.4-2.51,2.73-3.09,3.65a6.92,6.92,0,0,0-.54,3.19c.12,6.45,5.35-.67,6.55-.29,1.83.57.63,5.53,3.42,5.42a1.12,1.12,0,0,0,.32,0Z"/><path id="path7375" class="cls-2" d="M396,359.78c.09-2.2-5.17-1.89-5.24-3.67,0-1.05,5.53-2.71,2.57-5.57-2.35-2.27-5,3.09-6.5,1.19-.52-.66,3.2-3.56,1.08-6.55-.35-.49-.61-.81-1.25-.72-2,.32-2.8,3.79-5.13,3.3-1.88-.39,1.57-3.23-.54-5.59a1.89,1.89,0,0,0-1.62-.81c-1.54.24-2.29,2.35-2.83,3.53-.4.46-1.15,1.76-1.95,1.58l-.41-.23h0a52.73,52.73,0,0,0-9.36-4.05c-.07.05.34.77.37.85a1.8,1.8,0,0,1,0,1.77,11.65,11.65,0,0,1,5.28,1.37c1.06.51,2.14,1,3.2,1.5.11.05.51.33,1,.66a1,1,0,0,1-.16.64c-1.37,1.38-4.37,1.29-3.65,4.29,1.18,4.85,6.48-2.69,6.28.34-.16,2.46-3.09,2-1,5.75a2.48,2.48,0,0,0,1.68,1.46c2.39.35,3.44-6.39,5.14-4.88,1.06.94-.9,3.39-1,4.42a6.42,6.42,0,0,0,.95,2.91c2.94,5.34,4.19-2.92,5.36-3.14,1.78-.32,3,4.36,5.26,3a5.22,5.22,0,0,0,.93-.83,4.43,4.43,0,0,0,1.56-2.55ZM374.2,346.23c-.08-.18-.15-.28-.17-.19S374.14,346.17,374.2,346.23Z"/><path id="path7383" class="cls-2" d="M351.12,208a5.94,5.94,0,0,0-.58-.81c-4.55-6-4.66,3.14-7.06,2.88-1.1-.12-2-6.2-5.42-3.54-2.73,2.11,2.45,5.69.23,7-.76.45-3.22-3.88-6.66-2.13-.57.29-1,.51-.95,1.19,0,2.16,3.53,3.51,2.66,5.88-.7,1.9-3.14-2.14-5.93-.3a2,2,0,0,0-1.09,1.56c0,1.66,2.1,2.77,3.25,3.51a8.33,8.33,0,0,1,1.26,1.5,12.2,12.2,0,0,1-1.72,1.65c-.74.58-1.45,1.19-2.18,1.79a26.25,26.25,0,0,0-2.91,1.8c.27,2.07,5-1.73,7.83-4.26.71,0,1.44,0,1.66.28,1.24,1.65.68,4.78,3.93,4.48,5.24-.49-1.82-7.18,1.31-6.51,2.55.55,1.63,3.54,5.86,2a2.65,2.65,0,0,0,1.79-1.53c.73-2.44-6.15-4.58-4.32-6.12,1.15-1,3.41,1.46,4.47,1.71a6.79,6.79,0,0,0,3.19-.56c6-2.25-2.41-4.82-2.45-6.07-.07-1.92,5-2.43,4-5a1.59,1.59,0,0,0-.15-.29Z"/><path id="path7385" class="cls-2" d="M329.37,195.66c-2.11.64-.06,5.5-1.72,6.16-1,.38-4.4-4.32-6.1-.58-1.36,3,4.56,3.69,3.27,5.74-.45.71-4.42-1.83-6.53,1.16-.35.49-.57.85-.26,1.41,1,1.81,4.5,1.38,4.81,3.75.26,1.9-3.56-.41-5.1,2.37a1.91,1.91,0,0,0-.22,1.79c.74,1.38,3,1.39,4.27,1.5.57.23,2,.5,2.14,1.32,0,.15-.06.3-.08.46h0a52.92,52.92,0,0,0-.72,10.18c.07,0,.61-.58.68-.63a1.79,1.79,0,0,1,1.67-.59,11.76,11.76,0,0,1-.47-5.43c.14-1.18.24-2.36.35-3.53,0-.11.14-.59.3-1.14a.93.93,0,0,1,.66-.06c1.76.83,2.67,3.7,5.26,2,4.18-2.72-4.69-5.21-1.77-6,2.38-.66,2.92,2.25,5.77-1a2.5,2.5,0,0,0,.82-2.07c-.47-2.37-7.17-1.12-6.32-3.22.54-1.31,3.5-.28,4.5-.54a6.41,6.41,0,0,0,2.42-1.87c4.07-4.55-4.14-3-4.73-4-.9-1.58,3.13-4.25,1.12-6a4.51,4.51,0,0,0-1.1-.6,4.39,4.39,0,0,0-2.92-.63Zm-5.53,25.09c-.14.14-.21.23-.12.22S323.81,220.83,323.84,220.75Z"/><path id="path7387" class="cls-3" d="M243.68,89a6.65,6.65,0,0,0-.79.61c-5.82,4.8,3.34,4.53,3.18,6.93-.08,1.11-6.11,2.24-3.32,5.57,2.23,2.64,5.59-2.69,7-.53.47.75-3.76,3.39-1.86,6.76.31.55.55.92,1.23.89,2.16-.11,3.36-3.67,5.76-2.9,1.93.62-2,3.22,0,5.94a2,2,0,0,0,1.61,1c1.65-.08,2.67-2.21,3.36-3.39a7.93,7.93,0,0,1,1.45-1.32,11.17,11.17,0,0,1,1.72,1.65c.62.71,1.25,1.4,1.88,2.1a26.21,26.21,0,0,0,1.92,2.83c2.05-.35-1.93-4.94-4.58-7.65-.08-.7-.07-1.43.21-1.67,1.59-1.3,4.74-.87,4.31-4.1-.71-5.23-7.1,2.11-6.56-1,.45-2.57,3.47-1.77,1.71-5.93a2.68,2.68,0,0,0-1.6-1.73c-2.48-.62-4.33,6.34-5.94,4.57-1-1.1,1.32-3.46,1.52-4.53a6.71,6.71,0,0,0-.69-3.16c-2.5-6-4.71,2.6-6,2.7-1.91.14-2.63-4.91-5.19-3.77a2,2,0,0,0-.28.16Z"/><path id="path7389" class="cls-3" d="M232.28,111.24c.74,2.08,5.5-.17,6.23,1.46.43,1-4.13,4.57-.32,6.13,3,1.23,3.49-4.72,5.6-3.51.73.41-1.65,4.49,1.42,6.47.51.33.88.53,1.43.21,1.76-1,1.19-4.56,3.55-5,1.88-.33-.26,3.58,2.57,5a1.87,1.87,0,0,0,1.8.15c1.35-.79,1.26-3,1.32-4.32.2-.58.42-2.07,1.23-2.19l.46.06h0a53.17,53.17,0,0,0,10.19.29c.05-.07-.6-.59-.66-.66a1.76,1.76,0,0,1-.65-1.64,11.58,11.58,0,0,1-5.41.69c-1.18-.08-2.36-.13-3.54-.2a10.21,10.21,0,0,1-1.15-.25.94.94,0,0,1-.09-.65c.76-1.79,3.59-2.83,1.8-5.34-2.9-4.06-5,4.9-6,2-.76-2.35,2.13-3-1.18-5.73a2.52,2.52,0,0,0-2.11-.73c-2.35.57-.82,7.21-2.95,6.44-1.34-.48-.43-3.48-.73-4.47a6.44,6.44,0,0,0-2-2.34c-4.72-3.88-2.81,4.26-3.81,4.89-1.54,1-4.37-2.94-6-.86a5,5,0,0,0-.56,1.11,4.51,4.51,0,0,0-.51,2.95Zm25.3,4.48c.15.14.25.2.23.11A.81.81,0,0,0,257.58,115.72Z"/><path id="path7391" class="cls-2" d="M91.08,251.57a10.46,10.46,0,0,0-.57,1.23c-4.09,9.46,6.87,3.43,8.18,6.46.6,1.39-6,6.53-.56,8.83,4.35,1.83,5.11-6.75,8.14-5,1,.61-2.46,6.46,2,9.37.72.48,1.25.78,2,.32,2.56-1.48,1.8-6.56,5.2-7.11,2.73-.45-.43,5.16,3.64,7.25a2.72,2.72,0,0,0,2.59.24c2-1.13,1.87-4.35,2-6.22a10.22,10.22,0,0,1,.94-2.51,15.74,15.74,0,0,1,3.12.93c1.18.48,2.39.93,3.58,1.38.38.15,3.89,2.42,4.11,2.26,2.27-1.72-5.43-4.82-10.34-6.45-.54-.8-1-1.7-.78-2.17,1.12-2.57,5.22-4,2.68-7.67-4.12-5.92-7.32,7-8.63,2.81-1.06-3.4,3.12-4.31-1.62-8.28a3.6,3.6,0,0,0-3-1.09c-3.4.78-1.31,10.39-4.37,9.25-1.92-.71-.56-5-1-6.46-.36-1.2-1.88-2.64-2.81-3.42-6.74-5.67-4.11,6.11-5.58,7-2.22,1.36-6.25-4.32-8.65-1.35a2.4,2.4,0,0,0-.25.37Z"/><path id="path7393" class="cls-2" d="M91.09,285.72c2.19,2.07,6.58-3.63,8.48-2.1,1.12.9-2.17,8.13,3.43,7.64,4.45-.38,1.31-7.91,4.62-7.76,1.14.06.79,6.49,5.77,7,.82.08,1.39.1,1.86-.64,1.49-2.36-1.39-6.28,1.21-8.25,2.09-1.58,1.92,4.52,6.25,4.47a2.59,2.59,0,0,0,2.28-.94c1.14-1.81-.35-4.48-1.09-6.09-.12-.83-.78-2.76.13-3.42l.6-.22h0c5.56-2,12.55-5.75,12.58-6s-1.1-.34-1.21-.39c-1-.42-1.3-.46-1.83-1.58a15.93,15.93,0,0,1-6.14,4.21c-1.49.63-3,1.3-4.43,1.95-.14.07-.79.23-1.56.42a1.31,1.31,0,0,1-.51-.74c-.2-2.65,2.6-5.67-1.15-7.61-6-3.14-3,9.09-6,6.16-2.38-2.38.71-5-5-6.22a3.41,3.41,0,0,0-3,.42c-2.51,2.16,3.49,9.28.42,9.68-1.92.25-2.69-4-3.68-5a8.7,8.7,0,0,0-3.85-1.62c-8.15-1.78-.75,6.93-1.58,8.33-1.27,2.12-7.15-.86-7.85,2.68a6.53,6.53,0,0,0,0,1.71c.17,2.13.61,3.32,1.22,3.9Zm33.55-10.32c.27.08.43.09.35,0S124.76,275.39,124.64,275.4Z"/><path id="path7395" class="cls-1" d="M76.17,91.21a9.94,9.94,0,0,0-.81.78c-6,6.1,4.29,4.7,4.4,7.43,0,1.26-6.61,3.25-3.06,6.66,2.81,2.72,6-3.69,7.77-1.42.63.79-3.82,4.26-1.28,7.83.42.59.73,1,1.49.86,2.42-.38,3.34-4.54,6.14-3.95,2.25.46-1.87,3.86.65,6.69a2.27,2.27,0,0,0,1.93,1c1.86-.29,2.75-2.81,3.39-4.22a8.38,8.38,0,0,1,1.48-1.66,12.92,12.92,0,0,1,2.13,1.65c.78.72,1.57,1.43,2.36,2.14.25.22,2.28,3,2.5,3,2.28-.64-2.76-5.34-6.07-8.06-.17-.79-.25-1.62,0-1.91,1.64-1.66,5.24-1.56,4.36-5.14-1.41-5.8-7.74,3.23-7.5-.4.19-2.94,3.69-2.4,1.21-6.88a3,3,0,0,0-2-1.75c-2.86-.41-4.11,7.65-6.14,5.85-1.27-1.12,1.07-4.06,1.17-5.29a7.84,7.84,0,0,0-1.15-3.48c-3.53-6.39-5,3.5-6.4,3.76-2.14.39-3.56-5.21-6.3-3.62a2.73,2.73,0,0,0-.3.21Z"/><path id="path7397" class="cls-1" d="M66,117.62c1.08,2.25,6.18-.85,7.19.9.6,1-4.1,5.64.37,6.94,3.56,1,3.37-5.73,5.89-4.63.87.39-1.32,5.26,2.38,7.13.61.3,1,.49,1.63.06,1.85-1.39.79-5.28,3.4-6,2.08-.6.13,4.06,3.49,5.32a2.14,2.14,0,0,0,2,0c1.43-1.06,1.07-3.57,1-5,.16-.68.22-2.37,1.12-2.61H95a59.31,59.31,0,0,0,11.51-.89c0-.08-.74-.58-.82-.66a2,2,0,0,1-.93-1.77,13.36,13.36,0,0,1-6,1.43c-1.34,0-2.68.12-4,.19-.13,0-.68-.06-1.33-.14a1.11,1.11,0,0,1-.18-.73c.64-2.11,3.7-3.61,1.39-6.22-3.75-4.23-5.06,6.11-6.46,3-1.14-2.55,2-3.65-2-6.31A2.85,2.85,0,0,0,83.7,107c-2.58.92-.07,8.22-2.56,7.61-1.56-.38-.9-3.88-1.36-5a7.25,7.25,0,0,0-2.49-2.4c-5.78-3.81-2.65,5.13-3.71,6-1.61,1.26-5.27-2.8-6.87-.26a5.11,5.11,0,0,0-.49,1.32c-.51,1.7-.53,2.75-.22,3.38Zm29,2c.18.14.3.2.27.1S95.11,119.67,95,119.64Z"/><path id="path7399" class="cls-1" d="M74.81,357.79a9.74,9.74,0,0,0,.23,1.1c2,8.32,6.27-1.12,8.64.25,1.09.63-.78,7.32,4,6.15,3.8-.94.07-7,3-7.34,1-.11,1.57,5.51,5.94,5.26.72,0,1.22-.1,1.52-.8,1-2.25-2-5.25-.07-7.3,1.6-1.65,2.27,3.65,6,3a2.26,2.26,0,0,0,1.84-1.12c.75-1.72-.9-3.82-1.76-5.12a9.21,9.21,0,0,1-.61-2.13,13,13,0,0,1,2.53-.93c1-.27,2-.56,3.07-.85.32-.09,3.78-.31,3.84-.53.67-2.27-6-.52-10.06.82-.75-.26-1.5-.64-1.59-1-.53-2.27,1.48-5.26-2-6.43-5.66-1.89-1.4,8.27-4.34,6.14-2.39-1.73-.06-4.41-5.17-4.7a3,3,0,0,0-2.56.77c-1.87,2.2,4.28,7.55,1.68,8.31-1.63.47-2.87-3.07-3.85-3.81a7.79,7.79,0,0,0-3.56-.89c-7.29-.43.29,6.1-.24,7.42-.81,2-6.3.23-6.42,3.39a2.29,2.29,0,0,0,0,.37Z"/><path id="path7401" class="cls-1" d="M91.72,380.49c2.48.29,2.58-5.67,4.6-5.59,1.19,0,2.58,6.48,6.06,3.39,2.77-2.47-3-5.91-.77-7.45.79-.53,3.74,3.92,7.29,1.79.59-.35,1-.62.93-1.35-.18-2.31-4-3.49-3.28-6.08.61-2.09,3.51,2.05,6.37-.12a2.15,2.15,0,0,0,1-1.76c-.13-1.76-2.44-2.8-3.73-3.5-.49-.5-1.89-1.46-1.61-2.34l.29-.45h0a60.23,60.23,0,0,0,5.39-10.21c0-.08-.89.31-1,.34a2,2,0,0,1-2-.16,13.18,13.18,0,0,1-2,5.85c-.68,1.15-1.32,2.32-2,3.49-.06.11-.41.54-.83,1.05a1.11,1.11,0,0,1-.71-.24c-1.44-1.67-1.07-5.06-4.52-4.5-5.58.91,2.47,7.55-.93,7.06-2.76-.4-2-3.67-6.41-1.66a2.85,2.85,0,0,0-1.8,1.77c-.6,2.67,6.92,4.45,5.07,6.23-1.15,1.11-3.75-1.31-4.9-1.49a7.23,7.23,0,0,0-3.37.82c-6.3,2.86,2.93,5,3.07,6.33.21,2-5.18,3-3.89,5.67A5.76,5.76,0,0,0,89,378.5c1.16,1.33,2,1.91,2.74,2ZM108.92,357c.22-.08.33-.15.23-.18S109,357,108.92,357Z"/><g id="g7419"><ellipse id="path7403" class="cls-4" cx="59.12" cy="222.27" rx="13.37" ry="8.14" transform="translate(-170.87 220.18) rotate(-74.58)"/><path id="path7405" class="cls-5" d="M51.29,217.92c3-1.48,15.11.26,16.59,3.31s2.22-11.75-4.87-13S51.46,213.79,51.29,217.92Z"/><path id="path7409" class="cls-5" d="M62.48,208.73s1.18-5.08,3-5.28-2-2.59-3.83,5.55"/><path id="path7413" class="cls-6" d="M53.94,218.93c-1.6,2.55-2.31,11.8.83,14.47"/><path id="path7415" class="cls-6" d="M55.94,219.22s-1.87,4.55-1.52,8.3"/><path id="path7417" class="cls-7" d="M65.4,221.93s-2.08,8.59-6,11"/></g><g id="g7427"><ellipse id="ellipse7429" class="cls-4" cx="338.36" cy="162.63" rx="8.14" ry="13.37" transform="translate(-36.71 178.73) rotate(-28.13)"/><path id="path7431" class="cls-5" d="M329.68,164.88c1.13-3.12,11.13-10.23,14.3-9s-6.48-10-12.48-6.08S327,161.76,329.68,164.88Z"/><path id="path7433" class="cls-5" d="M331.45,150.5s-2.64-4.48-1.48-5.86-3.23-.5,1,6.66"/><path id="path7435" class="cls-6" d="M332.3,163.78c.6,2.95,6.45,10.15,10.57,9.92"/><path id="path7437" class="cls-6" d="M334,162.61s1.78,4.59,4.61,7.06"/><path id="path7439" class="cls-7" d="M342.67,158.06s4.41,7.66,3.22,12.14"/></g><g id="g7441"><ellipse id="ellipse7443" class="cls-4" cx="297.73" cy="311.12" rx="8.14" ry="13.37" transform="translate(-111.52 177.11) rotate(-28.13)"/><path id="path7445" class="cls-5" d="M289.05,313.37c1.13-3.12,11.13-10.23,14.3-9s-6.48-10-12.48-6.08S286.33,310.25,289.05,313.37Z"/><path id="path7447" class="cls-5" d="M290.82,299s-2.64-4.49-1.48-5.86-3.23-.5,1.05,6.66"/><path id="path7449" class="cls-6" d="M291.67,312.27c.6,3,6.44,10.14,10.57,9.91"/><path id="path7451" class="cls-6" d="M293.31,311.1s1.79,4.58,4.62,7.06"/><path id="path7453" class="cls-7" d="M302,306.55s4.41,7.65,3.22,12.13"/></g><path id="path7455" class="cls-8" d="M130.19,363.14s23.33,51.12,33,76.55,9.92,60.54,3.61,75.64-19.36,3.66-40,20.45c16.84.7,12-3,33.49.29,12.37,1.92,19.35-.16,19.35-.16s8.34,12.39,12.8,19.53,4.62-5.23,10.74-13.26S212.78,526,224,528.77s32.07,14.55,42.88,17.72,26.83,1.44,26.83,1.44-20.15-13.38-29.34-21.62-20.68-9.16-27.28-24.54-6.82-35.54-5.82-48.18.88-19.38,3.5-33.18,3.47-15.9,9.34-26.33,12.4-30.41,12.4-30.41l-9.56-.47s-11.48,6.65-15.43,18.43S215.26,415,215.55,421.3s-8.63-24-7.9-31.62,3.73-32.13,3.73-32.13-7.93-8.4-14.76-1.85-13,5.81-13,5.81l-14-.3s1.44,20.29,3.95,32.75,1.22,30.91,1.22,30.91-7.24-16.7-12.22-23.78-12-21.22-12-21.22,5.05-16.06,4.61-20.45S151,359,151,359l-4.8,15.65Z"/><path id="path7457" class="cls-9" d="M202.44,353.2a8.22,8.22,0,0,0-5.82,2.5,24,24,0,0,1-4.92,3.68c-.76,7-1.38,15.74-.33,22.49,1.67,10.76,1.92,15.09,4.5,24.46s3,11,6.08,15.54,3.71,5.52,8.2,6.63,10.55.33,11.78,3.21-4.73,6-9.48,9-3.59,3.74-1.84,8.73,5.38,9.83,5.53,18.89-.22,13.31,2.2,20.68,5,16.17,8.71,20.6,41.56,26.39,50.88,32.13a69.14,69.14,0,0,0,14.31,6.29l1.44-.13s-20.15-13.38-29.34-21.62-20.68-9.16-27.28-24.54-6.82-35.54-5.82-48.18.88-19.38,3.5-33.18,3.47-15.9,9.34-26.33,12.4-30.42,12.4-30.42l-9.56-.46s-11.48,6.65-15.43,18.43S215.26,415,215.55,421.3s-8.63-24-7.9-31.62,3.73-32.14,3.73-32.14-4.1-4.33-8.94-4.34Zm-48.73,4.15c-1.22.09-2.7,1.64-2.7,1.64l-4.8,15.65-16-11.5s3.52,7.72,8.36,18.57c4.19.56,9.54,2.56,11.18,5.24S161.19,405,161.19,405s14.28,24.17,13.69,20.22c0-.13-.08-.4-.11-.57-.22-.5-7.23-16.63-12.14-23.6s-12-21.22-12-21.22,5.05-16.06,4.61-20.45c-.17-1.65-.8-2.13-1.54-2.07Z"/><path id="path7465" class="cls-8" d="M87.67,223.54s-8.21-1.7-16.64-14.76-7.8-14.22-11.11-16a31.54,31.54,0,0,1-6.14-4.56S61.36,198.52,65.43,207s5.7,9.22,8.37,12.2a50.86,50.86,0,0,0,8.06,6.47l2.72,3.62s3.69,3.1,5.67.92S87.67,223.54,87.67,223.54Z"/><path id="path7467" class="cls-8" d="M311,162.94c1.28-2.88,1.75-8.8,11.2-14.45s12.55-6.37,17.11-10.55,10.83-17.29,10.83-17.29-6.75,14.1-15.86,18-17.41,8.19-19.34,10.06a43.87,43.87,0,0,1,7.63-9.59,33.33,33.33,0,0,0,7.31-10.69,74.35,74.35,0,0,1-8.81,9.7c-4.57,4-7.7,5.24-9.38,7.66s-4.59,9.41-4.59,9.41L305.61,162s.66,3.85,5.36.91Z"/><path id="path7469" class="cls-9" d="M174,366.47c.6,2,1.56,16.6,3.94,17.59.46.19-.11-1-.17-1.46-.27-2,.29-4,.29-6C178.05,371.85,178,369.6,174,366.47Z"/><path id="path7471" class="cls-9" d="M181.4,378.54c-2.42,5.19-3.67,9.91-2.06,15.28a44.93,44.93,0,0,0,1.31,4.38,9.18,9.18,0,0,1,.28,1.28c-.76-5.71,2.37-16.65.47-20.94Z"/><path id="path7473" class="cls-9" d="M177.61,400.47c1.5,2,1.57,16.25,2.77,16,1.65-.31.88-11.2-.11-12.63-.45-.64-4.5-6.12-2-5,.53.24-.48,1.08-.71,1.61Z"/><path id="path7475" class="cls-9" d="M201.44,427a15.52,15.52,0,0,0,6.17,3.77c1.28.4,9.45.2,9.54,1.55.16,2.4-6.62,4.34-8.05,6.1-2,2.4-2.5,5.75-2.67,5.59-2.78-2.65,4.24-7.46,4-9.45-.18-1.5-2.8-.91-3.57-1.49C204.62,431.4,203.3,429.11,201.44,427Z"/><path id="path7477" class="cls-9" d="M147.64,390.15c2.65-.2,5.74,13.45,6.49,13.61.41.09-.6-.59-.85-.92-1.11-1.51-2.1-3.15-3.27-4.6C147.94,395.64,149.26,392.8,147.64,390.15Z"/><path id="path7479" class="cls-9" d="M153.37,407.2c-.19,2,6.91,14.5,8,14C162.73,420.68,154.55,408.19,153.37,407.2Z"/><path id="path7481" class="cls-9" d="M168.1,422.52c1.87,1.62,2.34,2.32,2.89,4.26.24.82,4.23,11,5.27,9.88,1.31-1.36,2.11-8.33,2.85-10.45.16-.44.61-5.54.12-5.42-2.26.53-2.88,11.53-3.7,10.75-1.29-1.23-2-3.17-3.35-4.44-.68-.66-1.18-1.51-1.91-2.12a13.77,13.77,0,0,1-2.17-2.46Z"/><path id="path7483" class="cls-9" d="M163,428.12c.13,1.31,1.06,2.35,1.34,3.62.34,1.52-.67,2.68-.07,4.35,1.53,4.3,3.93,1.57,2.57-1.52-1-2.32-2.88-4-3.84-6.45Z"/><path id="path7485" class="cls-9" d="M165.92,423.6c-.73-11.15-6.94-13.93-2.2-1.12.58,1.59,2.22,1.39,3.23,3.6"/><path id="path7487" class="cls-9" d="M171.25,436.49c-1.06,7.09-.7,12.54,2.28,18.94.08.16.26,1.68.31,1.68,3,0-2.26-19.34-2.59-20.62Z"/><path id="path7489" class="cls-9" d="M183.41,426.05c-.3,2.11-.74,4.18-1.21,6.25s-1.38,4.17-1.28,6.46c0,.61,2.31,6.12,3.39,4.62C184.83,442.66,184,427.19,183.41,426.05Z"/><path id="path7491" class="cls-9" d="M178.51,443.42c-.08,2.52.69,4.9.57,7.41-.07,1.6-3.87,13.07-3.7,13.21.51.43,2.49-3.41,2.67-3.77,2.62-5.13,5.13-12.38.46-16.85Z"/><path id="path7493" class="cls-9" d="M183.69,453.1c-.21,5.81-10.52,15.13-8.22,20.89.06.16,1.67-3.16,3.66-5.34C183,464.41,183.35,458.41,183.69,453.1Z"/><path id="path7495" class="cls-9" d="M187.71,445.39a42.31,42.31,0,0,0-1.49,8.28C184.22,472.79,191,451.52,187.71,445.39Z"/><path id="path7497" class="cls-9" d="M186.81,467.1a33.4,33.4,0,0,0-3.52,4.67c-1.39,2.33-8.47,15.72-1.39,8.4,3.86-4,8.14-7.09,4.91-13.07Z"/><path id="path7499" class="cls-9" d="M176.44,479.6a13.83,13.83,0,0,0-1.52,4.71c-.4,3.07,1,18.24,3,7.59.87-4.73-2.74-9.3-.75-13.92"/><path id="path7503" class="cls-9" d="M175.63,504.89c-.16-2.05.42-2.85,1.76-4.14a14.77,14.77,0,0,1,3.1-2.34c2-1.15,3.42-3.24,5-4.94.23-.25.31-1.31.31-1a10.26,10.26,0,0,1-.67,4.32c-1,2.17-3.47,3.18-5.06,4.86-1,1.08-1.26,3.55-2.75,3.52-.56,0-1.6-.87-1.65-.31-.4,4.37,1.76,1.23,2.14,1.49"/><path id="path7505" class="cls-9" d="M188.78,486.94c3.92-4.09,1.12-7.45,1.27-11.66.18-4.84,3.79-9,6.47-12.82,1.23-1.74.94-3.58,1.89-5.17.15-.25.68-.94.5-.71-1,1.31-1.08,4.47-1.47,6-.76,2.95-3.17,5.16-4,7.95C191.87,476,195.29,483.69,188.78,486.94Z"/><path id="path7507" class="cls-9" d="M190.23,459.85c1.39-2.16,2.51-4.48,4-6.58,1-1.43,2.38-2.6,3.1-4.22,4.45-10.15,4.92-5.18,2.11,2.14-1.47,3.84-5.65,6-6.88,10-.09.27-2.56,6.64-3.87,5-.08-.1.76-1.33.81-1.49.62-1.88,1.11-2.76.74-4.85Z"/><path id="path7511" class="cls-9" d="M192.62,444.9c-7.27,4,9.53-15.18,7.44-11.71-.82,1.38-.38,3.56-1.15,5C197.44,440.91,194.6,442.55,192.62,444.9Z"/><path id="path7513" class="cls-9" d="M189.54,435.53c0-4,2.58-6.39,4.78-9.26.41-.53.66-2.11,1.18-2.44.08-.05.33,4.52-.1,5.3-1.43,2.57-3.71,4.44-5.86,6.4Z"/><path id="path7515" class="cls-9" d="M185.17,420.06c-.27-.6,7.67-13.07,7.33-12.7s.17,2.49.2,3c.11,1.68.15,3.57-.86,5-2.14,3.08-6.24,3.12-7.23,6.79"/><path id="path7517" class="cls-9" d="M184.34,402.42a13.66,13.66,0,0,1,.65-4.53c.85-1.91,1.81-3.8,2.72-5.68.13-.29.68-1.06.44-.85,0,0,.44,4,.19,4.67-1,2.89-4.13,5.43-3.73,8.32"/><path id="path7519" class="cls-9" d="M191.53,494.11c-.85,2.52-.81,5.07-2.32,7.31-2.1,3.13-6,4.68-7.84,7.81-.9,1.51-1,6.81-1.4,5.1-.24-1,9.38-6.17,10.85-9.17,1.9-3.85-1.48-9.34,2.33-12.31"/><path id="path7521" class="cls-9" d="M174.27,516.37c-.45,1-.33,2.31-.8,3.36-.91,2.07-4,4.51-3.76,4.32,1.71-1.14,4.85,0,5.46-2.76C175.46,520,174.4,517.71,174.27,516.37Z"/><path id="path7523" class="cls-9" d="M194.57,557a21.79,21.79,0,0,0,.31-5.35c-.57-3.88-2.37-7.5-2.26-11.51.13-4.73,3.14-10,3.35-15.35.05-1.05-1.48-5.32-.44-6.05.16-.11,1.23,1.09,1.42,1.21a13.86,13.86,0,0,0,3.65,1c2.27.54,13.4-1.62,13.4,3C214,527.06,196.85,550.48,194.57,557Z"/><path id="path7525" class="cls-9" d="M128.5,535.13c6.73-.63,14.38-2.68,21.22-1.87,5,.6,25.55,8.53,28.95,3.8.84-1.16-1.34-7.13-.86-9,.66-2.52-6.7,0-9.07-.15-11.31-.89-21.83.78-32.69,4.15-2.63.81-4.92,2.48-7.55,3.06Z"/><path id="path7527" class="cls-9" d="M192.24,510.21c-.47,1.16-.7,2.22-1.62,3-2,1.69-8.75,4.17-7.45,7.68.17.44,2.36,7.16,2.6,7s-.76-4.38-.6-5.23c1.09-6,7.82-5.39,7.07-12.41Z"/><path id="path7529" class="cls-9" d="M186.86,367.93c-1.41,2.53-1.35,5.25-1.59,7.94-.19,2,0,3.86-.2,5.86,0,.07-.16,1.1-.13,1.1,3.72-.44,2-12.38,1.92-14.9Z"/><path id="path7531" class="cls-9" d="M181.07,365.47a8.45,8.45,0,0,1,.59,3.74c0,.42-1,4.74-.76,5,.71.59,4.58-8.53,3.61-9.74-.74-.94-2.24,1.08-3.44,1Z"/><path id="path7533" class="cls-9" d="M171.58,380.93a30.64,30.64,0,0,0,10.77,3.54c5.4.67,12.51,2.34,17.31-1.35,1.59-1.23,1.77-2.36,2.56-4.05,3.56-7.61-1.57-13.37-7.33-17.63-.67-.5-.59-2-1.31-2.28-.4-.17-9,2.25-10.35,2.42-3.5.43-10.82-2.35-13.65-1.17-.5.21.07,3.4.12,3.82.7,5.23-.16,11.78,1.88,16.7Z"/><path id="path7535" class="cls-9" d="M266.44,291.52c6.6,2.55,15.78,3.65,22.87,1.61,6.78-1.95,11.16-6.47,14.82-12.44a23.24,23.24,0,0,0,2.83-6.17c.16-.7.24-2.85.24-2.13,0,1.11-3,5.49-4,6.63-2.58,3.13-4.72,6.41-8.37,8.5-4.7,2.69-22.34,3.82-28.43,4Z"/><path id="path7537" class="cls-9" d="M299.74,285.46c2.17-1.32,4.23-2.44,6.77-2.53s5.47.37,8.06,0c.51-.08,3.4-1.29,3.68-1.05a29.23,29.23,0,0,1-4,2.05c-3.87,1.67-8.17,1.67-12.12,3.13-.64.24-7.17,2.53-7.22,2.38-.2-.76,4.53-3.66,4.86-3.94Z"/></g></svg>