<svg id="svg2" xmlns="http://www.w3.org/2000/svg" viewBox="0 0 303.53 566.93"><defs><style>.cls-1{fill:#8dd35f;}.cls-2{fill:#71c837;}.cls-3{fill:#aade87;}.cls-4{fill:#c8beb7;}.cls-5{fill:#8a916f;}.cls-6{fill:none;stroke:#8dd35f;stroke-linecap:round;stroke-linejoin:round;stroke-width:1.02px;}.cls-7{fill:#5d6c53;}.cls-8{fill:#9dac93;}</style></defs><title>trees</title><g id="g7103"><circle id="path5567" class="cls-1" cx="151.04" cy="283.87" r="109.76" transform="translate(-156.49 189.95) rotate(-45)"/><circle id="circle5569" class="cls-1" cx="112.2" cy="251.53" r="112.2"/><circle id="circle5571" class="cls-1" cx="202.48" cy="237.41" r="94.64"/><circle id="circle5573" class="cls-1" cx="174.49" cy="133.13" r="75.85"/><circle id="circle5575" class="cls-1" cx="130.45" cy="118.15" r="88.34"/><circle id="circle5577" class="cls-1" cx="143.46" cy="57.74" r="59.77" transform="translate(63.48 190.09) rotate(-80.78)"/><path id="path7019" class="cls-2" d="M229.37,162.6A58,58,0,0,0,231,92.92a66.27,66.27,0,0,1-84.86,77.77c.57.52,1.15,1,1.75,1.53a58,58,0,0,0,81.51-9.62Z"/><path id="path7021" class="cls-2" d="M59.76,152.52a58.05,58.05,0,0,0,67,19.29A66.27,66.27,0,0,1,73.13,69.94c-.65.42-1.3.85-1.93,1.3a58,58,0,0,0-11.44,81.28Z"/><path id="circle5579" class="cls-2" d="M48.22,86.26c-.23.53-.45,1.06-.67,1.6l1.05-.76C48.47,86.82,48.34,86.54,48.22,86.26ZM296.6,227.71a101.71,101.71,0,0,1-28,29A117.73,117.73,0,0,1,65.2,298.38,120.48,120.48,0,0,1,1.83,231.9,111.33,111.33,0,0,0,66.77,354,109.6,109.6,0,0,0,256.18,315.2a94,94,0,0,0,40.42-87.49Z"/><path id="path4312-2" class="cls-3" d="M35.39,183.35A91.9,91.9,0,0,0,20.18,292.68,105,105,0,0,1,167.86,185.77c-.81-.92-1.64-1.83-2.48-2.73a91.92,91.92,0,0,0-130,.31Z"/><path id="path7011" class="cls-3" d="M208.87,73.22a56.87,56.87,0,0,0-66.55,15.39,64.94,64.94,0,0,1,94.44,61.7c.36-.67.7-1.35,1-2a56.87,56.87,0,0,0-28.92-75.05Z"/><path id="path7013" class="cls-3" d="M74.59,56.78a67.58,67.58,0,0,0-17,79.37,77.16,77.16,0,0,1,114-70.55c-.54-.72-1.1-1.43-1.67-2.13a67.59,67.59,0,0,0-95.34-6.69Z"/><path id="path7015" class="cls-3" d="M120.18,8.72a41.93,41.93,0,0,0-22,45.33,47.89,47.89,0,0,1,79.13-25.66q-.33-.78-.69-1.53A41.94,41.94,0,0,0,120.18,8.72Z"/><path id="path7017" class="cls-2" d="M259.1,286.16a76.22,76.22,0,0,0,2.11-91.51A87,87,0,0,1,149.75,296.79c.76.68,1.52,1.35,2.31,2a76.21,76.21,0,0,0,107-12.64Z"/><path id="path7023" class="cls-4" d="M126,370.52s3.65,55.86,4.81,93-1.37,45.16-6.24,61.28a80.18,80.18,0,0,1-14,26.7l19.2-3.7,4.81,15,7.45-15.11,8.14,11.41,3-10.53L170.67,556s-7.57-2.73-12.64-23.48-5.92-155.22-5.92-155.22c-9,12-8.17.05-15.31-3.61-3-1.54-.14,10.88-10.81-3.13Z"/><path id="path7025" class="cls-5" d="M126,370.52s1.52,23.29,2.91,49.78c7.13,4.89,15.11,11.33,17.66,18.18,4.18,11.21,2.91,72.53,5.26,81.91s-2,19.7,7.06,30.6l11.79,5s-7.57-2.73-12.64-23.48-5.92-155.22-5.92-155.22c-9,12-8.17.05-15.31-3.61C133.81,372.11,136.66,384.53,126,370.52Z"/><path id="path4369-9" class="cls-1" d="M284,177.08c-7.37,1.71-10.51-3.86-12.22-11.24s-1.35-13.76,6-15.47,10.84,6.84,20.68,9.28C290.66,164.87,291.36,175.37,284,177.08Z"/><path id="path4371-3" class="cls-1" d="M278.89,157c-3.14,5.26-8.15,4-13.41.83s-8.77-6.94-5.63-12.19,10.07-2.49,17-6.86c-1.33,7.48,5.18,13,2,18.22Z"/><path id="path4375-8" class="cls-6" d="M266.88,153.6A24.2,24.2,0,0,0,262.33,169c5.07-3.09,6.62-5.27,14.83-5.13"/><path id="path4357-1" class="cls-2" d="M171.3,277.87c3.8,8.24-2,13.27-10.21,17.07s-15.82,4.92-19.62-3.32,5.39-14.38,5.86-26.51C155.36,273,167.51,269.63,171.3,277.87Z"/><path id="path4359-2" class="cls-2" d="M144.94,288c6.93,2.41,6.63,8.6,4.22,15.53s-6,12-12.93,9.58-5.36-11.21-12.17-18.29C133.16,294.61,138,285.64,144.94,288Z"/><path id="path7069" class="cls-1" d="M87.37,50.36c3.8,8.24-2,13.27-10.22,17.07s-15.81,4.93-19.61-3.31S62.93,49.73,63.4,37.6C71.42,45.49,83.57,42.12,87.37,50.36Z"/><path id="path7071" class="cls-1" d="M61,60.54c6.93,2.4,6.62,8.59,4.22,15.53s-6,12-12.93,9.57S46.93,74.43,40.12,67.36C49.22,67.1,54.08,58.13,61,60.54Z"/><path id="path7073" class="cls-1" d="M80.1,188.25c3.8,8.24-2,13.27-10.22,17.07S54.07,210.24,50.27,202s5.39-14.39,5.86-26.52C64.15,183.38,76.3,180,80.1,188.25Z"/><path id="path7075" class="cls-1" d="M53.74,198.43C60.67,200.83,60.36,207,58,214s-6,12-12.93,9.58-5.37-11.21-12.18-18.29C42,205,46.81,196,53.74,198.43Z"/><path id="path7077" class="cls-7" d="M129.07,384.23a12.13,12.13,0,0,1,1.05,4.58C129.79,408.87,135.63,390.19,129.07,384.23Z"/><path id="path7079" class="cls-7" d="M137.21,398.25c-5.4,7.48,2.3,19.95,2.5,9.78C139.77,405.25,137.76,401.1,137.21,398.25Z"/><path id="path7089" class="cls-8" d="M132.46,440c-.32,2.35.44,4.54.54,6.86C134.05,471.58,140.59,445.35,132.46,440Z"/><path id="path7093" class="cls-8" d="M141.21,453.3c-1.07,3-.32,6-.19,9.08,0,.55.21,5.82,1.93,4.78,5.38-3.28-1.77-13.73-1.29-16.39"/><path id="path7097" class="cls-8" d="M134.87,482.57c-.26,1.52-.19,3.06-.36,4.59-.06.58-.73,8,.34,7.78,5.15-1.35.08-10.5,0-12.37,0-1,.95-1.69,1.42-2.53"/></g></svg>