<svg id="svg2" xmlns="http://www.w3.org/2000/svg" viewBox="0 0 314.02 566.93"><defs><style>.cls-1{fill:#b3ff80;}.cls-2{fill:#cfa;}.cls-3{fill:#8dd35f;}.cls-4{fill:#deaa87;}.cls-5{fill:#d38d5f;}.cls-6{fill:#c9ffa4;}</style></defs><title>trees</title><g id="g7217"><circle id="circle7149" class="cls-1" cx="170.37" cy="88.39" r="67.3"/><path id="path7177" class="cls-2" d="M111.77,69.89a61.06,61.06,0,0,0-2.15,28.75A63.87,63.87,0,0,1,229.55,75.87a61,61,0,0,0-117.78-6Z"/><circle id="circle7160" class="cls-3" cx="157.51" cy="118.89" r="67.47"/><path id="path7143" class="cls-4" d="M118.28,555.12c6.39-23.63,9.63-54.89,11.76-102.34s3.49-178.33.41-197.12-19.7-97.21-19.7-97.21,10,25,16.86,43.85,16.34,81.08,15.86,97.4,4.8,57.9,4.8,57.9,6.63-82.41,8.58-103.62,6.1-59.13,7.93-67.86,10.59-36.69,10.59-36.69a414,414,0,0,1-4.91,50.7c-4.56,29.59-6.63,68.65-9,87.29s-3.08,46.85-4.62,57.21-4.56,54.82-4.56,54.82,14.92-7.18,23.79-21,22.67-37,22.67-37l16.57-28.11s-2.6,18.6-12,33-40.9,66.48-40.9,66.48-9.82,12.52-11.06,28.8-1.54,54.49-1.07,70.18,10,50,10,50l-11.7-3c-1.88-2.59-.66,7.75-2.88,6.83-3.69-.32-5.24-5.63-9.56-5.15-.93.91-5.92,11.89-8.52,3.49-.77-2.5-2.23-4.72-3.14-7-.51-1.28-7,6.33-10.4,6.61,2.11-4,3.56-5.6,4.17-8.4Z"/><circle id="path7145" class="cls-1" cx="124.2" cy="173.35" r="113.62"/><circle id="circle7147" class="cls-1" cx="230.84" cy="282.25" r="67.3"/><path id="circle7151" class="cls-3" d="M236.75,158.84a119.84,119.84,0,0,1-225.13.07,113.56,113.56,0,1,0,226.2,14.44A115.41,115.41,0,0,0,236.75,158.84Z"/><circle id="circle7156" class="cls-3" cx="230.84" cy="282.25" r="67.3"/><circle id="circle7158" class="cls-1" cx="243.63" cy="279.88" r="47.74"/><path id="path4168-9" class="cls-2" d="M26.4,137.37a98.71,98.71,0,0,0-3.48,46.51,103.31,103.31,0,0,1,194-36.84A98.75,98.75,0,0,0,26.4,137.36Z"/><path id="path7179" class="cls-5" d="M159.71,271.05s-2.86-2.93-3.73-2.82c-.38,3.89-.33,3.7-.63,7-1.95,21.21-7.08,82.41-7.08,82.41s-5.27-54.94-4.8-71.26c-4.62.28-11.05-.91-10.66.61,2.37,9.25-.39,15.77-.61,56.92,1.81,5.62,3.42,10.52,4.62,13.65,5.9,15.38,9.16,36.19,7.74,44.42s-2.64,38.71-1.8,50.74-1.46,56.5,1.59,69.19c2.61,10.82,3.7,26.24,6.71,37.48l9.25,2.37s-9.56-34.27-10-50-.18-53.91,1.07-70.18,11.06-28.8,11.06-28.8,31.49-52.08,40.9-66.48c3.9-6,4.08-6.54,5.94-12.33-1-1.13-4.12-1.29-5.15-2.4l-5.35,9.84s-13.79,23.23-22.67,37-23.79,21-23.79,21,3-44.46,4.56-54.82,2.25-38.57,4.62-57.21c1-8.15.45-1.29,1.6-14.74C161.05,267.56,159.71,271.05,159.71,271.05Z"/><path id="path4172-0" class="cls-3" d="M210.4,322c-4.3-7-9.18-9.28-6.36-19.86s8.82-13.31,16.57-18.45c3.46,10,6.41,14.45,3.59,25s-6.92,11.46-13.8,13.28Z"/><path id="path4175-4" class="cls-3" d="M216.56,325.65c3.87-6.06,3.81-10.78,13.22-12.6s13.86,1.86,20.87,6c-6.58,6.56-8.94,10.58-18.35,12.4S220.63,330.37,216.56,325.65Z"/><path id="path4179-8" class="cls-3" d="M239.36,311.32s3.12-2.2,2.16-8.65c-1.07-7.23,2-10.22,2-10.22s-9.23,2-12.82,6.15c-4,4.63-4.68,13.18-4.68,13.18s8.4-3.89,13.31-.46Z"/><path id="path7205" class="cls-1" d="M83.14,72.88C74.94,73,70.45,76,62.85,68.07S56,53.64,55.61,44.35c10.38,2.22,15.69,2,23.29,9.86S85.13,66.06,83.14,72.88Z"/><path id="path7207" class="cls-1" d="M89.41,69.47c-3.18-6.43-7.26-8.82-4-17.82s8.75-10.9,15.92-14.77c2.21,9,4.43,13.12,1.13,22.12S95.56,68.44,89.41,69.47Z"/><path id="path7209" class="cls-1" d="M88.93,42.55s-.27-3.8-6.29-6.32c-6.74-2.82-7.71-7-7.71-7s-3.09,8.92-1.36,14.16c1.92,5.8,8.87,10.81,8.87,10.81s1-9.19,6.49-11.63Z"/><path id="path7211" class="cls-6" d="M179.76,35.46c-6.11-3.39-10.7-3.05-13-12.09s1-13.58,4.57-20.64c6.77,6,10.82,8,13.15,17.09s-.34,11.4-4.69,15.64Z"/><path id="path7213" class="cls-6" d="M185.85,35.56c.34-6.12-1.68-9.6,4.54-14.9s11.08-4.41,18-4.28C206.26,24,206.19,28,200,33.28S190.85,37.36,185.85,35.56Z"/><path id="path7215" class="cls-6" d="M196.78,15.37s1.4-2.93-2-7.33C191,3.12,192-.4,192-.4s-6,5.33-7,9.94c-1,5.11,2.05,11.74,2.05,11.74s4.61-6.4,9.69-5.91Z"/></g></svg>