<svg id="Layer_1" data-name="Layer 1" xmlns="http://www.w3.org/2000/svg" viewBox="0 0 548.51 320.11"><defs><style>.cls-1{fill:#fff6ce;}.cls-2{fill:#d7a972;}.cls-3{fill:#ffe88a;}.cls-4{fill:#ed1c24;}.cls-5{fill:#fac9c8;}.cls-6{fill:#f7931d;}</style></defs><title>dog-04</title><path id="path13" class="cls-1" d="M503.17,2.8l-.79,0V31.61L484,62.77,448.85,96.34,409.69,106l-36.76-3.23c-16-5.59-58.32,20-60.72,19.18s2.38.81,2.38.81L289,137.89l-37.57,8.78L221.9,137.1l-1.72-2.51-10.74-2.65-16.34-2.16-.76,11.29-4,8.79-15.18,24-29.56,20.77H116.41l-4,11.17-1.63,18.4,4.82,12V241l-5.6,3.22-21.59,1.6-25.56,4.78L55.69,261l-5.6,12.79,1.59,7.2,8.79,5.57,7.2-11.17-2.41,7.2,4,4.78,8,.81,24-12,16,.81,8.79-.81,20,9.61,23.18,9.6,8.8-7.2,12.79,2.38-2.41-10.39,14.39,1.6-.78-8,22.37,5.61,25.55-3.23,11.2-8.79L276.23,261l7.2-7.19,24-10.39L326.6,226.6l20.77-4.82,16.77,14.39,9.6,16,36.77,6.38,34.34,1.63L475.23,253c5.59,15.17,37.54,29.56,37.54,29.56l12.79-2.42,7.2-4,10.39-5.56-8-20.77L520.77,241l-14.39-23.15-13.57-31.19L484,189.84l-20.78,5.61s-22.37-1.63-28-4.83-2.41-15.17-2.41-15.17l6.38-5.6.82-6.37,15.17-5.61,23.18-16.77-.78-4.81,19.18-16.77L504,98.75c16.08-16.08,11.39-31.58,10-35.2,10.54-19.94,3.64-32.75,3.64-32.75l-4,1.59s-.81-2.38,3.19-16.76C520.27,3,506.63,2.69,503.17,2.8Zm-282.87,60-16,13.58-20.77,4.82L170,78.76l-17.58-3.19-24.77,12-4.79-2.4-17.58-4.79L82.06,85.14,65.29,99.53l-38.38,15.2c.33,12.84-7.75,19.45-14.36,27.16l1.59,9.6,11.17,9.57,13.61,8,2.38,7.16-2.38,9.61,12,4.78,16.77-12,38.35-.78,12.8.78,20-4,21.55-11.16,13.61-24,15.17-12,24-12.77,3.19-4.81,4-7.2-5.6-3.19,11.2-19.18-15.17,8,9.57-12V62.77Z"/><path id="path15" class="cls-2" d="M153.72,76.93a106.13,106.13,0,0,0-16.28,1.34l-5.11,5.56L122,110.73l10.32,15.72,17.06,6.39s21.31,2.11,38.36-17.07-25.59-6.37-17.07-25.55c4.79-10.79-6.31-13.22-17-13.29Zm176.76,33a4.76,4.76,0,0,0-4.83,4.71,5.88,5.88,0,0,0,.1,1l-9.54,3.94-32,19.18L257,145.05l-24.55-2.28a4.72,4.72,0,0,0-4.13-2.51,35.57,35.57,0,0,0-6.45.58l1.27-.58a4.89,4.89,0,0,0-3.43,1.5v.16a18.19,18.19,0,0,0-6.8,18.88c1.1,4.09,4.33,6.95,8.44,8.6-3.35,5.23-2.47,12.77,2.37,16.67,14.44,11.58,37.47,17.62,52.26,3.93.5,3.66,5.32,3.91,8,4.86,4.9,1.69,8.82-2.56,13.31-4,1.85-.6,3.85.13,5.8.53,7.69,1.45,15.29,4.63,22.52.29,9.4-5.65,15.84-14.15,20.48-23.64,6.1-3.69,12.86-6.51,16.9-12.89,3.45-5.35,2.51-12.29-.58-17.58l.09-.17a4.67,4.67,0,0,0-2.08-2.7l-.65-.46a21.17,21.17,0,0,0-8.3-3.77,33,33,0,0,0-4.72-12.17C343.14,112.84,336.71,110.17,330.48,109.92Zm82.66,49.74a19.88,19.88,0,0,0-10,2.7c-2.9,1.7-6.74,1.78-9.94,3.33l-.78.36a4.51,4.51,0,0,0-2.24,1.85L389,169.83c-2.19,5.63-4.7,11.14-9.5,15-3.55,2.9-8.37,3.59-10,9.09-1.1,3.69-.3,7.48,2.79,9.93,4.11,3.24,8.08,5.91,13.22,7.16a3.52,3.52,0,0,1,2.51,2.74c1.65,8.63,11.35,12,18.85,10.94,4.39,4.18,11.25,7.38,16.8,4.59,4.39-2.25,9.23-2.55,13.67-4.59,1.4-.66,2.73-1.24,4.08-2l.71-.29a4.22,4.22,0,0,0,2-1.5l1.78-2.67c1.3-2.8.67-5.92,1.57-8.67s4.38-3.79,6.38-6a4.77,4.77,0,0,0-4.1-8.31c-6.88-2.26-20.4-1.2-15.31-12.66a11,11,0,0,0,1.08-4.4,4.6,4.6,0,0,0,2.58-2.64c.29-1.19.64-2.38.93-3.57l.14.22a4.35,4.35,0,0,0-.36-2.38l-.49-1.07c0-.1-.12-.2-.17-.29l-.48-1a4.77,4.77,0,0,0-1.92-2l-3-1.21a24.08,24.08,0,0,0-6.93.29l-.36.14-.71-.19a16.13,16.13,0,0,0-11.66-5ZM163.78,195.18a17.87,17.87,0,0,0-1.79,0,20.25,20.25,0,0,0-8.53,2.74c-2.9,1.69-6.73,1.75-9.93,3.29l-.82.36a4.33,4.33,0,0,0-2.21,1.79l-1.2,2c-2.2,5.64-4.74,11.11-9.54,15-3.55,2.9-8.34,3.58-9.93,9.08-1.1,3.69-.3,7.51,2.8,10,4.1,3.24,8.07,5.9,13.22,7.16a3.47,3.47,0,0,1,2.5,2.7c1.65,8.64,11.32,12.07,18.82,11,4.4,4.19,11.28,7.35,16.83,4.56,4.4-2.25,9.23-2.52,13.68-4.56,1.4-.65,2.72-1.27,4.07-2l.71-.29a4.33,4.33,0,0,0,1.95-1.56l1.8-2.57c1.29-2.81.66-5.92,1.56-8.66s4.38-3.83,6.38-6a4.77,4.77,0,0,0-4.1-8.31c-6.88-2.25-20.4-1.19-15.3-12.66a11,11,0,0,0,1.07-4.36,4.55,4.55,0,0,0,2.57-2.64c.3-1.19.65-2.45,1-3.65l.13.27a4.24,4.24,0,0,0-.36-2.35l-.49-1.08-.16-.29-.49-1a4.91,4.91,0,0,0-1.95-2L183.09,200a23.45,23.45,0,0,0-6.94.26l-.36.1-.71-.17a16.17,16.17,0,0,0-11.3-5Z"/><path id="path19" class="cls-3" d="M191.55,38.81l-8,13.58L170,57.17l-12.79,3.22L142.78,62,125.2,67.56,118,78.76h-5.56l15.17,9.6,9.6-7.19,19.18-5.6,23.15,4,12.8-2.41,11.19-17.58-1.6-2.41L197.12,54V40.4l-5.57-1.59ZM16.78,145.1a5,5,0,0,0-2.54,1.14,4.79,4.79,0,0,0-.55,6.75c4.3,6.54,10.62,11.52,18.56,13.21a34.63,34.63,0,0,0,13.64.17c11.09-2,22.12-4.91,31-11.76a4.8,4.8,0,0,0,.56-6.77,4.85,4.85,0,0,0-6.78-.52c-6.74,5.49-15.54,6.86-23.73,9.34-3.8,1.16-8,.76-12.08.21-6.1-.86-10.59-5.21-13.84-10.1A4.76,4.76,0,0,0,16.78,145.1Zm480,25.57-20,4-16.77,8-16-7.2-4,.78-10.39,6.42,8.79,9.57,14.39,2.41L471.23,197l15.17-4,11.2,2.42,4.78,7.16,7.19,21.58,16,20,11.2-.81L545.55,233l-6.41-12-14.36-6.38-8-16-8-23.18-12-4.78Zm-438,1c-4.3.18-6.4,6-11.43,5.41-1.92,1.28-6.4,5.14-3.84,8.33,7.67,1.93,14.71-1.91,21.75-5.11L60.8,172a5.37,5.37,0,0,0-2-.3Zm58.41,19.76L110,216.21v5.57l7.2-30.35ZM110,221.78,94.86,225l-15.21-3.23-12.76-4-24.78,6.38L41.3,237l12.8,11.16,8.79,2.41L84.47,245h17.58l12,1.6,1.59-10.39Z"/><path id="path41" class="cls-4" d="M116.42,180.51l29.83-9.59s29.84-21.29,32-34.09S177.15,123,177.15,123l14.92,2.12.42,20.67L176.09,172,156.7,189.24l-17.91,8.33-20.45-1.3-1.92-12.78"/><polyline id="polyline623" class="cls-5" points="61.01 162.39 77.42 149.59 101.08 171.97 99.8 183.49 85.09 186.67 75.93 187.98 60.8 171.97"/><path id="path729" d="M503.19,0c-7,2.56,0,9,0,12.79-5.11,23.66-15.34,46-33.89,63.3L471.87,78c10.87-5.75,17.27-18.54,24.29-28.13,5.12-15.34,17.27-33.9,7-49.88Zm13.42,7.68c-2.56,13.43-3.84,28.76-10.87,41.55-1.92,3.83-10.2,4.48-5.73,9,6.39.64,8.28-6.37,12.76-9.57C516,35.82,523.65,20.47,516.61,7.68Zm2.57,27.48c-3.2,18.55-12.79,34.53-24.93,49.23l1.29,1.3c9.59-3.2,11.5-13.43,18.53-19.83a66.16,66.16,0,0,0,9-28.78c-.65-1.28-1.94-1.92-3.85-1.92Zm-5.11,30.7,1.27,1.93c0,19.81-17.9,35.14-33.24,44.73,5.75,3.19,12.79-4.45,17.91-5.73-5.12,12.15-16,25.58-28.78,30.05,0,4.47,3.83.62,7,2.54-9.58,9.59-21.07,12.79-30.66,19.18-3.84,1.91-9-1.28-9.61,5.11,1.92,3.83.65,10.25-3.19,13.44l-1.27-1.3a2.41,2.41,0,0,0-3.84.66c-1.27,7,4.49,10.85,7.68,15.33,10.23,7,26.85,8.31,38.36,3.19,5.11-4.48,12.14-5.12,19.17-7,6.39,5.75,5.75,15.35,10.23,21.74-1.28,12.15,5.74,23,13.41,32.6,5.75,4.47,11.52,12.17,18.56,8.33.64-1.92-1.91-1.92-1.27-3.84.64-.65,1.26-1.95,2.54-1.3,5.11-2.56,10.88-7.66,8.95-14.68-5.75-4.48-5.74-15.36-15.34-14.72-9.58-3.84-10.23-14.72-16.63-19.83-3.19,4.47,3.19,8.33,3.19,13.44,3.83,14.07,26.22,8.3,23,25.56-2.56,5.75-9.57,4.48-12.76,9-10.87-7-16.66-18.53-19.22-29.41-9.59-4.47,2-13.43-3.81-19.82-3.83-4.48-7-12.78-14.06-12.15-4.47,1.28-9.59,2.57-12.79,7.69-11.51-.64-25.57,5.73-36.44-1.31-3.19-2.55-9-5.1-6.41-10.21,3.84,4.47,7.68-3.2,12.15,1.91,11.51,5.76,24.3.63,33.89-5.76,1.27-1.28,0-3.17-1.27-3.81-8.95,2.56-17.91,9.57-28.78,5.73-6.4-1.27-10.22-5.76-8.31-12.14l23.64-11.5c5.12-3.83,15.36-8.32,14.72-16.63,12.78-8.31,24.28-22.38,24.28-37.09,7-9.58,14.71-19.15,14.07-31.93-2.56-1.92-4.46-2.56-6.38-1.93ZM192.27,35.32a6.76,6.76,0,0,0-4.88,2.41c1.27,7-8.32,11.51-5.77,17.26,1.91-.64,3.84-1.29,5.11-2.57,5.12-3.2,2.58-15.34,10.25-10.22.65,4.47-3.84,10.24,1.28,12.79,5.11-1.92,4.46-8.3,4.46-13.41-2.2-3.52-6.51-6.44-10.45-6.26Zm-22.14,19c-15.35,8.31-38.36-1.27-50.5,14.71-1.27,17.26-21.12,9-31.35,12.8C83.16,86.32,73,83.76,71.67,92.08c3.84,4.47,7-1.29,10.23-2.58,14.7-1.27,36.44-14.7,47.3,3.2,12.15-17.27,35.16-12.77,52.42-8.93,14.07-.64,27.5-3.84,35.81-16-1.92-1.28-1.93-3.21-3.84-2.58C191.86,95.27,153.51,59.47,129.86,85A43.82,43.82,0,0,1,119,79.28c6.39-19.18,28.14-14.69,42.85-16.61,3.84-1.92,9.58-1.3,10.22-6.41Zm32.56,3.26c-4.15,0-5.48,8.75-8.28,12.11.65,1.27,1.93,1.88,3.85,1.88,3.83-3.83,7.65-7.66,6.38-13.41a4,4,0,0,0-1.95-.58Zm17,4.16a2.51,2.51,0,0,0-1,.26c3.84,10.23-5.1,19.17-11.49,26.21,4.48,3.84,7.66-3.83,11.49-5.11C221.9,78,227,72.9,223.81,65.86,223.26,64.75,221.74,61.66,219.65,61.76Zm247.11,15.6c-19.18,17.25-42.84,30.07-69.05,27.51-3.2,3.2,1.93,3.2,2.57,5.11,26.85,1.91,51.14-10.23,68.4-30ZM226.39,81.85C222.56,87,218.7,94.63,211.67,99.1c0,1.92,2.58,2.57,4.5,1.93,5.75-3.84,12.13-9.58,11.49-17.26l-1.27-1.92ZM69.1,93.34c-8.31,8.32-19.18,9-28.13,14.06-9.59,6.4-22.35,3.2-31.94,8.31-3.83,2.56-9,8.34-6.41,13.45-1.92,8.31,10.24,8.94,7.68,17.25,3.84,10.23,12.15,22.38,24.29,23,5.11,5.12,2.55,11.49,3.19,17.88,9.59,10.22,22.4,0,32.63-2.54,7.67,2.55,13.41,8.31,22.36,7,11.51,3.2,11.49-19.19,23.64-7.68l-2.54,3.19c-.64,10.86-8.3,20.47-6.38,32.61-8.31,5.12-16.64.64-25.59,1.28v1.92c10.23,7,23,4.49,33.24-.62-1.92-8.95-3.84-18.57,3.19-26.24,12.78,7,27.52.64,38.38-7l-1.92-2.53c-10.86,0-16.64,12.16-29.43,7.68-5.75-1.28-7.67-6.39-9-10.87,3,0,2.1-2.79,3-4.2-.13.12-.29.22-.42.35a5.57,5.57,0,0,0-3.84-1.92c-7,1.92-7.67-3.18-9-8.3-2.56-.64-5.12-5.11-7-1.27-.64,1.92,1.29,2.53,1.92,3.81,1.92,3.84.65,7.69-1.27,11.53-3.83,3.2-9,3.19-14.71,3.19-7.68-3.84-15.34-7.69-19.18-16.64,1.28-3.84-3.17-8.32,3.23-9,2.55-2.56,3.17,1.3,3.8,3.22,2.56,5.11,8.33,11.49,14.72,9.57,1.28-7-11.5-7-12.14-15.33,1.91,0,3.2-3.85,5.76-3.85,2.56,7.68,10.23,1.93,12.14,9,1.92,0,3.17-.65,3.81-1.92,0-5.12-4.46-1.91-6.38-4.46-6.39-4.48-7-12.8-10.87-18.56-4.48,1.91-1.9,7-2.54,10.87-12.79,9.6-26.86,16.64-44.12,14.72-7.67-1.92-12.78-7.67-17.25-14.06C11,140.67,23.73,140,26.29,133c1.28-4.48,4.47-10.26,0-14.09,14.71-8.31,33.88-8.29,45.38-23L69.1,93.34ZM369,100.64c-28.75,0-54.48,16.37-77.46,32.36-.64,1.28-2.54,3.19-.62,5.11,30.05-19.18,61.36-40.3,101-29.43,1.29-.64,1.92-1.9,1.92-3.81A75.52,75.52,0,0,0,369,100.64Zm-149.31,3.58a4,4,0,0,0-2.51.94c-10.88,8.45-28.54,12.64-31.48,13.42l1.91,2.57c3.84,2.1,34.26-10,34.91-13.75a2.86,2.86,0,0,0-2.83-3.18ZM149,106.76c-2.55,1.92-7,1.92-7,5.76,3.19.64,5.74-.63,8.3-1.27,6.39,0,11.51,6.38,16,4.46C163.73,108,155.42,108.68,149,106.76ZM18,121.48l4.46,1.26-.65,3.85a6.06,6.06,0,0,1-7-3.2H18Zm160.47,1.72c-.18,18.66-10.88,27.68-18.56,36.62l1.28,1.28c6.07-2.54,11.79-8.4,15.89-16.09.36,3.57,3.66,6.19,7.52,6.19a8.64,8.64,0,0,0,2.28-.3C181.61,162,173.21,172,163.71,180.3l-1.26,2.54c15.34-1.92,23.65-20.44,30-32.58a2.09,2.09,0,0,0-1.62-2,6.27,6.27,0,0,0,1.26-2.87c3.13-5,3.5-11,1.09-21.09a2,2,0,0,0-1.71-.79,4.32,4.32,0,0,0-3,1.83c2.13,7.52,2.43,8.34,2.28,14.88a8.18,8.18,0,0,0-11-1.21A52.36,52.36,0,0,0,183,125.12C182.32,123.2,180.38,123.2,178.46,123.2Zm54.93,14.54-.66,2.54c1.92,2.56,5.13,2.58,7.69,4.49,14.06,3.84,32.58,3.18,46-2.57,1.27-1.27,1.3-3.82-.62-4.46-16,3.2-37.08,7-52.42,0Zm-198.73.7A3.46,3.46,0,0,0,32,140.65a1.39,1.39,0,0,1,1.3,1.27c1.93,1.28,5.1,1.93,5.73-1.27a6.6,6.6,0,0,0-4-2.21A2,2,0,0,0,34.66,138.44Zm149.93,2.24c2.57,0,4.45,1.72,4.45,3.65s-1.88,3.67-4.45,3.67-4.43-1.75-4.43-3.67S182,140.68,184.59,140.68ZM27.2,147.1c-1.39,0-2.41.92-1.57,3.16.64,1.92,2.58,2.54,4.5,2.54.63-.65,1.9-1.27,1.27-2.54C31.4,148.46,29,147.06,27.2,147.1Zm14.35,2.5a2.65,2.65,0,0,0-2.5,3.2c1.28,1.27,2.57,3.2,4.49,1.91,1.28-.63,2.56-1.26,1.92-2.53a3.71,3.71,0,0,0-3.91-2.58Zm122.78,11.27c-4.09,0-7.59,3-7.59,6.87s3.5,6.87,7.59,6.87,7.64-3,7.64-6.87S168.41,160.87,164.33,160.87Zm0,3.22c2.57,0,4.45,1.72,4.45,3.65s-1.88,3.74-4.45,3.74-4.44-1.82-4.44-3.74S161.75,164.09,164.33,164.09Zm-11.4.85c-5.35.24-9.39,7.26-14.78,8.34-6.07,2.43-13.86,2-18.46,5.76,12.76,5.05,25.51-4.5,36.37-10.88v-2.57a6.68,6.68,0,0,0-3.13-.65ZM119.69,179a.15.15,0,0,0-.07,0,1.12,1.12,0,0,0-.22.26A2.09,2.09,0,0,1,119.69,179Zm375.69-11.95a16.43,16.43,0,0,0-9.45,3c-.64,1.92.64,2.55,1.27,3.19,1.28,0,3.2.66,3.85-.62,4.47-.63,10.84-1.29,14.68,3.19,5.76,4.48,3.2,15.34,10.87,17.26,2.56-5.12-1.89-12.8-5.73-17.91a17.94,17.94,0,0,0-15.49-8.07ZM58.81,171.68a5.4,5.4,0,0,1,2,.29l4.49,8.33c-7,3.2-14.08,7-21.75,5.11-2.56-3.19,1.92-7,3.84-8.33,5,.56,7.13-5.23,11.43-5.4ZM133.5,180c-4.09,0-7.65,3-7.65,6.87s3.56,6.87,7.65,6.87,7.59-3,7.59-6.87S137.58,180,133.5,180Zm0,3.23c2.57,0,4.43,1.72,4.43,3.64s-1.86,3.75-4.43,3.75-4.46-1.82-4.46-3.75S130.93,183.27,133.5,183.27Zm1.79,22.24a2,2,0,0,0-1,.35c-6.39,5.12-10.85,14.07-7.65,23,0,4.47-9,8.32-5.11,12.8,3.83,1.92,5.09-3.21,7.65-4.49,3.2-5.12,2.55-10.87,1.27-16,1.28-5.11,2.57-9.58,7.68-13.41-1-.52-1.64-2.32-2.86-2.28ZM66.62,216.05a48,48,0,0,1-6.44,0C51.86,218,42.9,223.77,39.7,232.72c-1.92,6.39,3.21,12.13,7.68,16.61,1.92,1.91,5.09,0,5.73-2.54C55.67,250,58.23,253.17,55,257c1.28,1.91,3.23,1.27,5.15,1.27,4.47-12.78,19.81-8.94,29.4-13.41,9.58-1.93,20.43,7.65,26.82-2.57-16.62-3.2-39.62,0-55.6,4.49-.64-1.92-.65-6.42,3.19-8.34-1.93-1.28-3.17-2.56-5.73-1.92-4.48,1.92-2.59,7.06-5.15,9.6-4.48-2.54-8.29-7-7.65-12.79,4.48-13.42,19.8-12.13,30.67-13.42-2-3.59-5.73-3.95-9.51-3.87Zm274.85,5.37c-14.65.31-27.6,9.13-37.12,20.88l1.93,1.92c9.59-4.48,16-15.34,26.86-17.26,5.11-1.92,12.79.64,16-1.92l-1.31-3.19A38.08,38.08,0,0,0,341.47,221.42ZM353,228.88l-.64,1.93c19.17,31.31,56.9,32.6,89.5,31.31,1.92-3.82,3.82,1.91,6.38,1.27s5.11-3.2,5.11-5.76c9.58,6.4,16.63-4.48,24.94-3.19,2.55,10.87,11.51,21.09,21.1,26.2,8.95,2.57,20.47,5.13,28.78,1.93,1.92-1.92-1.29-4.47-2.57-5.11,5.74.64,10.22-2.56,15.33-5.12.64-1.91-1.27-3.17-1.27-4.45-3.2-1.28-3.84,1.92-5.76,1.92-7.67,3.83-15.35-1.92-21.1-3.85,0,7.67,7.68,8.29,12.8,10.85-7,3.83-14.69,0-21.72,0-10.23-3.2-17.9-14.7-21.1-24.29-4.48-4.48-11.54-3.84-17.28,0-3.2,3.83-12.78-1.92-13.42,5.11-4.48-2.55-8.31,3.86-12.15-.62-23.65,3.84-46-1.91-65.21-10.22C367,241.68,359.36,234.63,353,228.88Zm-49.22,15.34L275,255.74c-2.56,1.28,0,3.18,1.27,4.47-3.84,1.91-8.93,1.9-12.77,3.18-7,1.28-14.7-3.19-21.09,0,3.19,3.84,9.56,4.48,14.68,5.12-8.31,5.11-17.25,8.95-27.48,8.95-7.67,1.91-15.34-6.4-21.09,1.27-9,.64-20.46,1.92-27.48-5.11l-1.3,2.57c1.27,3.19,5.13,5.11,8.33,7,8.31,2.56,18.52,2.56,25.56-3.19,7.67,3.84,19.82,3.18,28.78.61,7.67-3.19,17.9-5.08,21.09-12.75,7.67-.64,16-1.31,21.72-6.42l-1.92-3.84c7.67-3.2,17.27-5.1,23-11.5l-2.54-1.91Zm-87.58,6.38c-5.76,3.19-11.52,1.31-16.64,5.14l2.58,1.89c5.75,2.56,12.12,0,16.6-3.81C219.33,251.91,217.43,251.87,216.16,250.6Zm318.44,3a4.26,4.26,0,0,0-1.36.23c-1.92,2.56.63,5.11,1.27,7,1.92,1.92,4.47,0,5.76-1.3-.56-2.23-2.59-5.93-5.67-6ZM54.41,260.21c-3.84,1.27-4.48,5.74-5.76,8.3-3.2,7,.65,13.43,5.76,18.55,3.2,0,6.39,3.2,8.3,0,14.71,10.23,28.12-5.13,41.55-7.68,7-3.2,16,6.37,18.56-2.57-9.59-2.56-21.75-5.1-30.06,2.57-9-.65-16,11.51-24.93,3.84-3.84-4.48,3.19-9,0-12.14-7.67.64-4.48,9.58-9,12.14-10.87-3.2-3.18-16-4.46-23Zm138.73,4.45-1.31,3.23c2.57,1.27,4.49,3.82,7.69,4.45,6.39,1.92,14.08,1.29,17.9-5.11l-2.57-2.57c-5.75,5.76-15.32,2.57-21.71,0Zm-67.2,7.52c-1,.07-1.66,1-1.86,3.35,11.52,9.6,25.6,14.07,37.74,21.1,12.78,6.4,17.89-10.84,30.67-2.53,3.2-2.56,9-.66,9.61-5.77-7-1.91-17.27.64-24.95-1.92-5.75,0-6.39-11.49-12.14-6.38,1.91,4.48,6.39,8.29,10.22,10.84-16,5.76-28.13-9.59-42.19-14.06-1.76-.88-5-4.77-7.1-4.63Z"/><path id="path797" d="M100.75,114.6a19.76,19.76,0,0,0-13.09,6.88c-1.92,3.82.62,8.32,4.46,11.52,4.47,1.91,8.95,1.9,14.06.61,2.57-2.55,6.42-6.39,4.5-10.87C109.18,116.45,105.13,114.38,100.75,114.6Zm-.3,6.88c1.28,1.27,4.46,0,4.46,2.57.64,4.46-3.2,3.83-5.76,5.11l1.3-7.68Z"/><path id="path857" d="M188.77,305.59c21.94,0,44.64-4.47,65.06.64h74.91l3.78,3.83c33.29,0,64.31-.63,99.11-2.55,3.79,1.28,10.6.63,10.6,5.75-3.79,2.56-9.08-1.28-14.38-1.28-20.43-3.19-39.34,9.59-60.52,3.84l-3-1.92c-21.93,0-46.15,4.48-65.06-3.84l-69.6,1.28-2.27-1.91c-21.19-.64-43.13,3.83-62.8-1.29l-3.79-4.47c-20.42,2.56-41.6,7.67-62.79,7.67-.75-.63-2.27-1.28-1.51-3.2l.76-.63c-8.33-.64-22.7,2.55-28.75-3.2L70,303c15.89,0,32.53-.64,48.42-3.83,1.51,1.27,3.78,2.55,2.27,4.47,21.19,1.28,41.61-8.31,62.79-3.84l5.3,5.76"/><path id="path859" class="cls-6" d="M184.59,140.68c-2.57,0-4.43,1.72-4.43,3.65S182,148,184.59,148s4.45-1.75,4.45-3.67S187.16,140.68,184.59,140.68Zm-20.26,23.41c-2.57,0-4.43,1.72-4.43,3.65s1.86,3.74,4.43,3.74,4.46-1.82,4.46-3.74S166.91,164.09,164.33,164.09ZM133.5,183.27c-2.57,0-4.46,1.72-4.46,3.64s1.89,3.75,4.46,3.75,4.43-1.82,4.43-3.75S136.07,183.27,133.5,183.27Z"/><path id="path2445" d="M229.33,142.28l1.19-3.25c-9.64-9.45-25.21-11.65-36.17-11.46-1.13.6-1.67,3.15-.5,4,11.47,1.11,26.53,2.83,35.48,10.74Z"/></svg>