<svg id="svg2" xmlns="http://www.w3.org/2000/svg" viewBox="0 0 242 256"><defs><style>.cls-1{fill:#aea199;}.cls-2{fill:#e6c75b;}.cls-3{fill:#f7cc30;}.cls-4{fill:#e49985;}.cls-5{fill:#0d0805;}.cls-6{fill:#fff;}.cls-7{fill:#a98f2e;}.cls-8{fill:#423d34;}.cls-9{fill:#fbd29e;}</style></defs><title>Donkey-11</title><g id="g3505"><path id="path32" class="cls-1" d="M120.88,82l14.33.11L129.67,71.4l12.61,9.93,2.28-10.45,8.14,7.28c9.59-20.23,17.27-42.73,9.3-65-15,5.93-27.3,34.22-33.17,48.4C126.54,67.06,122,75.47,120.88,82Z"/><path id="path776" class="cls-2" d="M133.4,74.19,136,85.12l5.17-1.23Z"/><path id="path806" class="cls-3" d="M146.19,73.23c-2.12,3.11-4.11,11.49-7.93,10.7l-22-.49c6.8,4.65,7,10,15,9.68l5.39.51-15.67-.56c7,20.11,48.19-13.13,25.28-19.84Z"/><path id="path154" class="cls-1" d="M116.56,94.26l-6.79,5.79,9,7.25c3.37-1.37,9.08-4.6,11.32-1.31,3.43,5.05,2.53,22-4.48,22.14-7.28.11-10-6.84-25.46-7.34,1.87,5.31-5.35,14.18-9.12,17.17-9.75,7.76-21.67,16-34.56,16.11-3.12,15.21,6.65,30.28,16.63,41.4C80.7,184.4,95.88,168.2,109.56,165a45.88,45.88,0,0,0,23.81-3c8.64-3.48,11.46-11.11,19.33-15.09-4.53,12.21-22.47,18.16-33.44,19,4.93,17.31,14.49,32,15.65,48.93.4,5.81,2.53,11.15-1.84,15.82,8.89,6,21.72,6.9,31.93,6.53,18-.65,33.68,1.12,51.44-7.9-24.32-21.49-39-52.08-48.46-79.77-3.7-10.78-8.18-23.64-2.91-34.73,5.07-10.67,16.58-17.93,24.93-25.85,16.27-15.45,23.57-29.65,23.12-51.47-19.73,4.79-43.77,23.66-55.28,39.89-11.45,13-22.62,29.76-41.28,16.93Z"/><path id="path4687" class="cls-4" d="M151.07,97.67c2.68-3,10.05-19.17,22.51-29.39s20.65-16.5,33.68-22.14c-1.49,7.07-3.35,14.88-8,23.44-5.34,6.08-10.67,12.34-16,18.42-5.71,5.09-11,11.66-16.75,16.74-4.09-.37-5.21,2.42-15.07-1.86C150.08,100.71,148.22,100.9,151.07,97.67Z"/><path id="path1198" class="cls-5" d="M119,107c-4.18-9.4-14.79-8.31-18.39,1.75-2.4,6.72,2.35,24.92,13.5,16.38,3.6-2.76-1.64,1.78,6.1,4.45,5.32,1.84,7.11-1.38,9.15-3.69C137.93,116.22,134.24,96.94,119,107Z"/><path id="path1250" class="cls-6" d="M109,102.8c-8.83,2.71-8.46,24.69.68,22.37C114.72,123.89,120.16,99.38,109,102.8Z"/><path id="path1318" class="cls-2" d="M176.71,103.82,170,110.68l4.29.29,2.65-1.9,3.87-.34-4.13-4.91Z"/><path id="path1336" class="cls-6" d="M126,106.72c-8.26,1.13-14.45,21.62-3.22,20.82C131.28,126.93,136.24,105.32,126,106.72Z"/><path id="path1350" class="cls-7" d="M177,106l1,1Z"/><path id="path1426" class="cls-3" d="M171.18,108.16c-18.07,28.06,12,78.69,28.54,103.19l.57-4.81,12.1,0-8.1-9.73-2.4-8.15-9.6-7.16,6.21-1.74-13.26-12.05,9,1.58-13.58-13.53,9.24.92-12.16-7.55,9.68-4c-4.68-3.06-7.24-7.44-4.18-10.18l-8.5-6.69L183,129c-2.77-5.41-17-13.16-3-11.13l-8.82-9.68Z"/><path id="path1440" class="cls-5" d="M106.62,111.11c-4.35,2.94.15,9.78,4.5,6.83S111,108.16,106.62,111.11Z"/><path id="path1466" class="cls-8" d="M177,112l1,1Z"/><path id="path2146" class="cls-9" d="M52.88,190.86c-3.48,5.36-7.1,6-12.74,7.33,7.2,14.2,31.57,5.93,33.12-7.19.66-5.61-7.75-12.05-11-16-6.21-7.68-5.85-10.92-4.31-20-10.18-2.05-20.09-1.53-27.07,3.93-11.29,8.82-12.2,31.7,4.07,36.21,6.45,1.78,12.33-1.32,17.88-4.28Z"/><path id="path2404" class="cls-5" d="M37.32,172.42c1.59,6.16,2.94,7.68,8.42,8C44.14,174.2,42.79,172.69,37.32,172.42Z"/><path id="path3184" class="cls-2" d="M194.87,203.82c-4.56,1,8.43,12.09,8.43,12.09s12.6-1.43,10-4.62S199.57,202.79,194.87,203.82Z"/><path id="path3228" class="cls-2" d="M203,215.26s5.31,8.42,10,10.66,8.66-1.71,8.66-1.71l-14.13-10.13-4.5,1.18Z"/><path id="path1722" class="cls-5" d="M100,127c-9.36,9.17-22.92,21.3-36,24.48-10.17,2.46-21.28-2-31,2.76-11.88,5.86-17.52,25.9-9.36,36.72,3.56,4.71,8.91,5.06,13.27,8.47,5.13,4,8,8.11,15.09,8.47,23.65,1.18,33.35-32.74,54-40.93,9.86-3.91,13.47,5.64,16.58,13A129.54,129.54,0,0,1,133,231c5-3.25,3-11.81,2.28-17C133,196.56,124.54,182.58,120,166c12.91,0,29.46-6.68,34-20-8.35,2.54-13.36,12.4-22,15.79-13.17,5.16-24.24-.84-37,8.5-11.82,8.65-18.36,22.6-30,30.92-8.45,6-17.77,5.37-24-3.21,4.89-1.13,9.47-2.42,12-7-6.35,1.09-12.36,5.42-19,3.35-16.11-5-12.85-26-2.91-35.14,9.07-8.33,19.34-3.16,29.91-4.5,9.75-1.23,18.12-7.29,26-12.73C91.47,138.89,101.25,133.24,100,127Z"/><path id="path4681" class="cls-5" d="M121.84,114.72c-4.35,3,.16,9.78,4.5,6.84S126.19,111.78,121.84,114.72Z"/><path id="path12" class="cls-5" d="M122,78c5.06-5.79,6.26-16,9.76-23,7.69-15.38,17.72-30.22,30.24-42l2.79,19L151,75l-7-5-2,11c-3.7-5-6.4-9.26-13-10l6,11H113c1.58,5,6.4,6.22,11,8l-8,2c1.66,5.31,7,6.8,12,8l-7-7,17,1-13-3c-.23-4.59-3.94-5.82-8-7l19,1-2-10,6,9h2l4-9,3,6,1-5c13.52-5.82,17.06-35,17-48,0-4.41.14-14.39-4.42-16.91-5.3-2.93-12.25,9.59-14.7,12.91C136.63,39.26,123.7,58.53,122,78Z"/><path id="path120" class="cls-5" d="M143,96s2.22-1.64,12.46-15.64S180.31,57,194,47.69C208,38.17,213,38,213,38c0,21.76-7.11,35.69-23,51-10.62,10.2-27.38,18.3-27.87,35-.28,9.37,3.62,19.26,6.54,28,7,20.87,15.77,40.66,28,59,4.79,7.19,21.34,28.22,29.33,13l-14-8,6-1c-3.54-5.78-10.74-6.5-17-7l10,4-4,1c1.4,6.86,7.51,9.84,14,11-9.17,9.06-22.57-15.56-26.58-22-3.41-5.49-6.28-11.22-9.17-17-11-22-33.1-62-8.25-81l3,4-7,2,7,8-8-1,11,12-9-1,9,7-6,2,10,8-10,4,12,7-10-1,15,14-10-2,14,13-7,1,11,8h-5l6,7-6-1,15,11-13-3,16,6c-1.62-8.36-7.69-13-13-19h5l-13-9,7-1-11-9h7l-10-13,10,3-11-14,4-1-8-8h5l-9-7,7-1c-1.95-5.16-7.2-7.73-12-10l13,1-10-10,10-2v-2l-8-3c19.77-19.37,44-39.22,36-70-6.83,1.32-13,6.36-19,9.86C176.76,54.59,149.24,74.79,143,96Z"/><path id="path4683" class="cls-5" d="M28.85,163.64c1.15,5.76,2.12,7.17,6,7.42C33.76,165.31,32.79,163.89,28.85,163.64Z"/><path id="path222" class="cls-5" d="M151,98c6.65-5.51,10.37-14.5,16.17-21C178.3,64.54,192.32,54.82,207,47c-3.61,19.16-15.27,30.86-29,44-3.92,3.74-9.75,12.6-15,14.11-3.69,1.07-8.19-.7-12-3.07s10.61,11.15,15.3,6.07S209,74.51,209,44c-18.39,3.55-38.64,23.32-49,38-3.47,4.93-7.65,10.07-9,16Z"/></g></svg>