<svg id="svg2" xmlns="http://www.w3.org/2000/svg" viewBox="0 0 273.68 430.08"><defs><style>.cls-1{fill:#a79476;}.cls-1,.cls-10,.cls-11,.cls-12,.cls-2,.cls-3,.cls-4,.cls-5,.cls-6,.cls-7,.cls-8,.cls-9{stroke:#000;stroke-linecap:round;stroke-linejoin:round;stroke-width:2px;}.cls-2{fill:#e1a2c1;}.cls-4{fill:#a59981;}.cls-5{fill:#424146;}.cls-6{fill:none;}.cls-7{fill:#fff;}.cls-8{fill:#342f28;}.cls-9{fill:#e6c6af;}.cls-10{fill:#bbb0a3;}.cls-11{fill:#d5a3b1;}.cls-12{fill:#c98092;}.cls-13{fill:#d6baa1;}</style></defs><title>Donkey-06</title><g id="layer1"><g id="g3067"><path id="path3764" class="cls-1" d="M100.54,89.14c36-38.07,46.83,26,49.64,41.79,10.5,26.48,32.41,55.44,49.28,79.1,42.55-3.12,53.72-.61,67.15,19.83-16.72-2-30.19,1.37-39.29,11.78-7-4.42-14.68-3.75-22.67-4.28C215.46,278.71,212.88,318,177,357l-17.5,27.5c-.84,7,1,11,6.43,14.28-3.81,17.87-20,11.5-28.93,8.22l-2.5-10.36c5.08-9.76,6.12-19.52,3.58-29.28l-5.36.71c-6.07,17.79-1.05,22,3.93,38.57-9.64,12.83-20.86,6.12-31.43-.71,2.63-4.36,8.52-10,6.07-16.07-12.59-26.11-33-41.78-36.79-73.93-2.33-31.39,6.65-41.28,19.29-68.57C81.41,248.86,76.61,234.12,78,227c.58-4.74,11.44-14.16,17.85-23.22-8.92.24-7.41-5.71-5-12.14,10.5-5.23,16.65-10.95,18.57-17.14-4.63-16.16-7.7-30.8-50.46-53.47,4.93-.42,5-5.89,8.32-8,.81-11.47,5.93-14.34,9.29-20.71q.7-7.86,4.28-12.86c11.83-1.57,15.62-.49,19.65,9.64Z"/><path id="path3768" class="cls-1" d="M67.68,55.21c-1-11.45,1.17-16.52-2.86-40-1-21-36.23-18.15-17.5,4.65-17.78,64,5.32,67.24,23.22,78.21,6.83-2.81,8-11.25,10.35-18.57C76.93,68.68,69.1,72,67.68,55.21Z"/><path id="path3784" class="cls-2" d="M52,27.36c2.73,10.15,2.85,19.65,3.43,28s2.34,15.84,8.36,22.73C52.55,72.9,50.06,72,47.79,59.3,46.51,52.15,52,48.31,52,27.36Z"/><path id="path3766" class="cls-3" d="M73.75,95.93C68,93.07,64.3,89.61,65.18,84.86h5.71C74.16,81,75.55,76.11,77,71.28c4-1.29,6.39-3.11,7.5-5.35l-6.07-2.5c9.45-15.08,37.05-7.34,40.72-2.5a29.44,29.44,0,0,0-4.29-10.72C129.75,55,143.38,61.9,145.18,87.36l8.57,21.78a10.08,10.08,0,0,0,5,7.14h10.36c.09,5.64-4,9.17-7.15,13.22,1.73,2.63,4.67,5.1,13.93,6.78-.2,4.51-3.47,7-6.43,9.65,5.6,6,11.19,6.69,16.79,6.07-.85,5.22-2.73,9.41-6.43,11.78,0,4,11.55,1,14.64.72,2.19-.17-3.13,14.25-6.78,12.14,6.43,6.45,11.7,4.06,16.43,3.57-1.49,3.93.51,7.86-6.07,11.79,3.6,5.34,9.2,5.69,14.64,6.43-.43,6.53-1.86,8.07-3.22,10l-10.71,2.14c-17.46-25-36-49.21-48.93-77.86l-11.07-42.5c-16-23.71-26.76-10.39-38.21-2.14-3.13-10.3-11.36-10.18-20-8.57L76.25,92.71Z"/><path id="path3770" class="cls-1" d="M141.25,90.57l7.5-7.86c11.92-35.48,26.12-63,47.5-65.35,18.56,4,1.74,19.34-2.14,22.5-6.42,18.79-.47,18.72-5.36,37.85-9,28.45-26.59,28.29-43.93,28.93Z"/><path id="path3774" class="cls-3" d="M34.82,312.36c-25.13,5-40.27,38.91-31.07,52.5L6.61,362c2.47,6.78,1.92,13.57,11.43,20.36a71.77,71.77,0,0,0,4.28-8.22l3.57,4.29.36-5.72C42.61,356.82,40.32,349.17,41.61,327c7.15-5.5,3.32-9.86-6.79-14.64Z"/><path id="path3772" class="cls-4" d="M74.11,310.57c-.92,4.69,2.19,12.75,1.07,12.95-7.82-.45-17.76,3-28.57-.81-2.55,5-8,6.33-14.29,7.5l.72-8.93-5.36,1.79c.67-3.69.93-7,7.23-10.71,19-4.14,25,7.7,39.2-1.79Z"/><path id="path3776" class="cls-5" d="M105.18,405.93c-8.53,8.39-3.71,27.15,11.43,18.57,25.58,14.82,24.88-10.42,20.35-17.86-8.61,7.89-15.61,11.24-31.78-.71Z"/><path id="path3778" class="cls-5" d="M165.89,398.78c12,7.31,7.88,32.55-5.71,20.72.19,9.56-18.28,5-20.72,3.21,1.71-4.26,1.63-9.15-2.32-16.25,13.05,5.53,25.16,6.66,28.75-7.68Z"/><path id="path3780" class="cls-6" d="M115.18,386.64c1.67,2.38,5,2.22,8.57,1.79"/><path id="path3782" class="cls-6" d="M144.46,389.5c4.27.84,7.87.8,9.29-2.14"/><path id="path3786" class="cls-2" d="M153.75,92.36c6.29-3.57,12.5-8.06,17.86-22.86,2.6-13.46,6.24-25,13.57-30C171.62,61.82,187.2,91.88,153.75,92.36Z"/><path id="path3788" class="cls-7" d="M89.82,92.71c-1.91-.67-9.51-4-16.78,3.93-5.42,6.58-8.35,14.4-4.29,25.72,5.93.39,11,2.1,15,5.35,12.09-10.78,15.79-32.21,6.07-35Z"/><path id="path3790" class="cls-7" d="M108,132c7.33.49,8,1.31,12.14,2.86,18.44-12.57,18.82-38.29-4.29-40.36C99.85,99.23,101,123.48,108,132Z"/><path id="path3792" class="cls-6" d="M66.25,123.78c5.71-2.35,11.43.69,17.14,3.93"/><path id="path3794" class="cls-6" d="M102.68,132.36c8.31-.93,13.36-.23,20.27,4.55"/><path id="path3796" class="cls-6" d="M93.57,95.48c-1.84-2.4-6-6.49-10.71-8"/><path id="path3798" class="cls-6" d="M110,92.62c5.86.13,14.72,2.36,18,6.7"/><path id="path3813" class="cls-8" d="M76.61,94.5C71,108.77,75.79,119.41,93,112.71c3-11.65,2.8-10.2-2.86-19.91-4.64-1.2-8.93-1.84-13.57,1.7Z"/><path id="path3800" class="cls-7" d="M87,92.36c-11.07,5.36-5.88,15.87.36,15.71C97.68,108.64,96.29,92.59,87,92.36Z"/><path id="path3817" class="cls-8" d="M110.18,97.71c-8.07,21.3,6.82,34.15,22.5,17.86v-9.29C127.72,100,124,89.61,110.18,97.71Z"/><path id="path3815" class="cls-7" d="M126.25,98.43c-24.85,1.76-2.2,31.34,6.07,7.14C131,101.89,128.54,100.27,126.25,98.43Z"/><path id="path3819" class="cls-9" d="M109.11,175.21c-1.94,9-19,21.46-35.36,22.15C62.06,198,29,179.87,24.82,152.71c0-26.36,11.84-27,34.64-31.78C84.73,132.8,103.78,149.1,109.11,175.21Z"/><path id="path3821" class="cls-6" d="M38.39,140.57c4.26-1.39,6.06,1.33,7.5,4.64"/><path id="path3823" class="cls-6" d="M64.11,161.28c5.42-2.52,7.62.59,9.28,4.65"/><path id="path3825" class="cls-10" d="M40.89,147c1.06,1.68,3.16,1.81,2.5,6.07C35.15,164.53,26.43,148.47,40.89,147Z"/><path id="path3827" class="cls-10" d="M65.54,167c3.62-.21,6.81,1.28,7.14,5.36C68,186,49.88,177.38,65.54,167Z"/><path id="path3829" class="cls-6" d="M40.54,147.71c-2.47,2.74-3.61,5.48-3.22,8.22"/><path id="path3831" class="cls-6" d="M69.46,167.36c-3.34,3.53-5.79,7.3-5.35,11.78"/><path id="path3833" class="cls-11" d="M95.89,190.57c-1.76,11.15,6.66,7.77,9.65,5,13.93-2.15,18.55-3.71,15.17-16.52-9.43-.25-7.16,3-13,11.52-4.18-4.1-6.71-1.85-11.79,0Z"/><path id="path3835" class="cls-12" d="M109.46,176.64c1.43-2.5,6.7-11.07,6.7-11.07l4.64,13.93c-6,.8-3.22-1.48-12.41,10-1.53-1.68-7.43-.42-10.71-.36Z"/><path id="path3837" class="cls-6" d="M115.89,166.28l4.29-10.35"/><path id="path3839" class="cls-6" d="M113.39,157c2.74-1.34,5.38-5.13,10,0"/><path id="path3841" class="cls-6" d="M95.71,203.78c5.18,1.82,7.27.8,12-1.42,20.33,2.91,24.09-4,25-22.15,22.1-19.27,19.5-29.33,5.71-42.85v-5"/><path id="path3851" class="cls-13" d="M102.32,273.07c-32.89,37.8,5,87.25,29.64,94.2l6.7-.9c40.67-21.38,62.14-55.34,59-96.87-3.55-15.95-10.83-41.59-27.14-32.86L158,244.5c-4-5.72-7.87-12.82-15.36-13.93-7.2-1.22-9.28,3.15-11.43,5,2-3.2,30.67,38.93-12.32,27Z"/><path id="path3843" class="cls-6" d="M117.86,203.07c-2.69,8.21-7.26,17.86-7.32,26.07,32.53,6.21,30.57,18.46,32.14,28.93-8,6.49-18.93,8.34-36.43-.36l-1.79-5.35L94,247.45"/><path id="path3847" class="cls-6" d="M198.68,210.51c-5.19-2.63-12.75-6.31-14.22-11.73"/><path id="path3849" class="cls-6" d="M204.29,237.36c-5.12.92-10.78-1.59-15.9-5.36"/><path id="path3845" class="cls-5" d="M106.25,258.25c-14.65,13.1,3.78,18.15,12.5,22l7.5-4.28,4.64,4.28c13.59-7,12.2-16.62,11.79-22C134.82,263.89,124.5,265.81,106.25,258.25Z"/><path id="path3853" class="cls-6" d="M96.61,90.75c2.4.38,3.49-1,4.46-2.5"/><path id="path3857" class="cls-3" d="M228.93,258.78c17.79,13.84,41.86,6.78,43.75-12.85l-15-3.22Z"/><path id="path3855" class="cls-5" d="M227.5,241.55c-2.66,3-1.55,18.49,2.32,17.23,1.7-.54,23.93-11.07,23.93-11.07l3.21-3.93,3.58,2.86,12.14-.36c-.37-7.86-2.73-14.15-7.86-18.21C251.21,229.89,235.7,228.91,227.5,241.55Z"/></g></g></svg>