<svg id="svg164614" xmlns="http://www.w3.org/2000/svg" viewBox="0 0 1024 640"><defs><style>.cls-1{fill:#4c4451;stroke:#4c4451;}.cls-1,.cls-2,.cls-3,.cls-4,.cls-5{stroke-width:0.09px;}.cls-2{stroke:#000;}.cls-3{fill:#9795aa;stroke:#9795aa;}.cls-4{fill:#fff;stroke:#fff;}.cls-5{fill:#010101;stroke:#010101;}</style></defs><title>Donkey-14</title><path id="path164570" class="cls-1" d="M512.5,0h17c20.3.8,40.7,2.6,60.4,8.2,22.6,7.2,42.2,21.1,61.7,34.3,2.7,1.6,4.9,4.1,8,4.9l.6.2A50.07,50.07,0,0,0,665,52c59.9,43.5,111.4,97.1,165,148,26.7,25.3,53.4,50.7,77.5,78.5,3.2,3.6,6,7.5,9.4,10.7,2.7-2.7,6.3-5,7.6-8.8a27.44,27.44,0,0,0,8.5-6.6c1-.9,2-1.7,3-2.6-.5-.3-1.5-.8-2.1-1.1,1.8,0,3.8.3,5.2-1.1a146.58,146.58,0,0,1,11.7-9.1c3.5-2.3,5.4-6.1,7.7-9.3,7.9-11,16.3-21.9,27.5-29.7,8.5-6.1,19.1-10.8,29.8-9.5,5,.7,7.3,5.7,8.2,10.1v6c-1.1,9.8-6.2,18.6-12.4,26.1-6.9,8.1-13.9,16.1-20.9,24.1-2.3,4.2-2.9,9.3-5.6,13.4-6.4,10.5-15.5,19.3-25.3,26.6-5.4,3.1-11.4,4.9-16.7,8.1,1.1,1.9,2.3,3.8,3.5,5.7A178.74,178.74,0,0,1,966,373.9c4.7,16.2,8.2,33.1,7.5,50.1-.7,21.4-5.5,42.5-6,64a81.52,81.52,0,0,0,1.1,17.1c2.3,12.6,7.6,24.9,6.8,37.9-.5,11.1-7.3,20.8-15.4,28-10.4,9.1-23.4,15.8-37.4,16.7-11.6,1.1-23.2-1.5-34.1-5.4-5.8-2.1-11.8-5.7-14.2-11.6-1.9-6.4-.2-13,.6-19.4-7.7-7-16.6-13-22.1-22.1-5.9-10.4-5-23.3-11.6-33.4-6.3-9.4-17.1-14.2-24.4-22.6-3.1-3.6-5-7.9-6.8-12.2a96.43,96.43,0,0,1-6.2-51.2c1.7-9.6,8.2-17.3,13.1-25.5-16.5-9.2-30.5-22.1-44.5-34.7S744.6,323.8,729,313c-13.4-9.2-29.1-17.3-45.9-15.6-3.1-.1-5.8-1.6-8.5-2.9-3.3-1.6-7-2-10.5-2.6-13.3-2.2-26.6-5-40.1-5.3-16.7-.2-33.2,3.4-49.4,7.2-12.6,2.9-24.2,9.2-37,11.7-9.1,1.8-18.3,2.2-27.6,2.3-3.8,0-7.7.6-11.5-.3-5.8-7.8-11.9-16.4-11.9-26.5-.4-15.6,4.2-31.1,11.7-44.7,2.8-5.6,6.5-10.7,8.9-16.5-4.6,1.9-8.7,4.9-13,7.4-10.4,5.9-20.9,12.1-32.4,15.5C420.9,255.8,377.1,254,336,266c-14.8,4.1-29.4,8.8-44.6,11.4a272.76,272.76,0,0,1-42.4,2.5c-12.5-.5-25.4-2.3-36.4-8.5-10.6-6.8-17.5-17.8-25.3-27.5-.3,5.8-.5,11.6-2.2,17.1-2.8,9.6-5,19.8-11.2,27.9-5.1,6.8-13.6,10.3-21.9,10.5-12.7.7-25.7-2.1-36.4-9-10.2-6.6-19.1-14.9-27.8-23.3C79.1,244.8,67.3,224,56,202.9c-9.3-18-19.3-36.3-23.3-56.5-.4.1-1.2.4-1.6.5.4-9.8-.9-19.7,1.7-29.3C39,90,56.9,66.1,79.3,49.3c30-22.6,66.8-35.5,104.1-39.1,20.5-2.1,41.1-1.5,61.7-.6C284,11.9,323,16.2,362,13.9,412.4,11,462.1,1.4,512.5,0Z"/><path id="path164574" class="cls-2" d="M657,38c5.4,4.7,10.3,9.9,15.2,15,.2-3.1.3-6.3.8-9.4,3.8,4.4,6.2,9.7,9.7,14.3,1.4-3.1,2.7-6.2,4.3-9.2,5.7,7.9,10.5,16.5,16.1,24.5,1.4-4.4,2.2-8.9,3.5-13.4,5.2,8.5,8.3,18.2,13.6,26.7,3.1-5,2.8-11.5,5.4-16.9,1.8,10.7,3.3,21.5,6.6,31.9,4.8-8.1,7.2-17.5,12-25.5,2.1,10,3.9,20.1,6.1,30.1,3.6-7.7,5.9-16.2,10.3-23.5,2.1,13.1,3.6,26.4,5.7,39.6a14.42,14.42,0,0,0,2.2-2.7c4.8-7.8,9.3-15.7,14.3-23.4-2.6,11.8-5.7,23.6-7.9,35.5,11.2-5.8,21.9-12.6,33-18.7-6,10.3-13.3,19.7-19.2,30,11.3-3.2,22.3-7,33.5-10.4-5,6.7-10.7,12.9-15.5,19.8,8.6-.8,17-2.7,25.6-3.3-8.1,5.4-17.4,9-24.4,15.9,15,.2,30-.8,45.1-1.3-9.1,5-18.9,8.5-28.2,13.2,16.8-1,33.5-2.2,50.2-3.5-9.6,4.3-19.5,8-29.1,12.3,10.5,1.2,21,2.1,31.4,3.6-8.7,4.1-18.1,6.5-26.4,11.3,15.8,1.4,31.7,2.6,47.4,4.6-8.5,4.8-17.9,7.9-26.4,12.8,17.1,3.1,34.3,5.5,51.4,8.5-10.5,4.9-21.5,8.3-32.2,12.5,12.6,1.3,25.3,1.7,38,2.6-7.6,3.9-16.3,5.8-23.2,10.9,13.8,2,27.6,3.2,41.5,5-8.6,4.3-17.8,7.2-26.5,11.2,4.4.5,8.7.9,13,1.5.6.3,1.6.8,2.1,1.1-1,.9-2,1.7-3,2.6a64.12,64.12,0,0,0-11,5.8l2.5.8c-1.3,3.8-4.9,6.1-7.6,8.8-3.4-3.2-6.2-7.1-9.4-10.7-24.1-27.8-50.8-53.2-77.5-78.5C776.4,149.1,724.9,95.5,665,52a50.07,50.07,0,0,1-4.8-4.4C659.2,44.4,658,41.2,657,38Z"/><path id="path164576" class="cls-2" d="M31.1,146.9c.4-.1,1.2-.4,1.6-.5,4,20.2,14,38.5,23.3,56.5A743.44,743.44,0,0,1,60,325c-.7,16.5-2.5,33-3.9,49.4-5.3,5.4-12.9,10.2-13.3,18.6-.6,11.7,2.9,23.2,5.5,34.6q-8.1,44.85-19.5,89c-1.4,5.2-2.4,10.4-4.4,15.4,1.3-14.4,3.8-28.7,4.8-43.1.4-7.4.8-15.3-2.4-22.2-6.1,9.7-12.3,19.4-19.7,28.3,7.8-14.7,9.4-31.7,9.4-48.1C10.6,455,5.6,463.8,0,472.2v-2.4a30.88,30.88,0,0,0,1.8-5.9c5.6-26.9,11.1-53.8,16-80.9,7.5-42,14.1-84.3,15.5-127,1.1-30.7-2-61.3-2.2-92C31.1,158.3,31.2,152.6,31.1,146.9Z"/><path id="path164580" class="cls-3" d="M494.2,227.2c4.3-2.5,8.4-5.5,13-7.4-2.4,5.8-6.1,10.9-8.9,16.5-7.5,13.6-12.1,29.1-11.7,44.7,0,10.1,6.1,18.7,11.9,26.5,3.8.9,7.7.3,11.5.3,9.3-.1,18.5-.5,27.6-2.3,12.8-2.5,24.4-8.8,37-11.7,16.2-3.8,32.7-7.4,49.4-7.2,13.5.3,26.8,3.1,40.1,5.3,3.5.6,7.2,1,10.5,2.6,2.7,1.3,5.4,2.8,8.5,2.9-1.3.2-2.7.5-4,.7a51.8,51.8,0,0,0-1.8,11.8,214.89,214.89,0,0,0-.6,24.1c.5,11.3,4.7,21.9,8.3,32.5-1.5,3.4-2.8,6.8-4.5,10.1-4.2,7.2-12.3,11.4-15.9,19-4.4,9.8-4.7,20.8-4.1,31.3.7,9.9,4.6,19.1,8.4,28.1,3.1,7.5,8.8,13.8,10.3,21.9,2.1,11.7-.2,23.8,2.6,35.5,1.8,8.1,4.7,16.2,3.8,24.6-.7,9.1-2.4,18.5-7.3,26.3a76.62,76.62,0,0,1-7.4,9.6c-4.9-2.9-7.4-8.5-9-13.7-2.1-8.3-2.7-16.8-2.9-25.2-.1-7.1,2.6-13.8,2.7-20.9.5-18,1-36.4-3.9-53.9-4.3-14.1-13.6-26.4-15.9-41.1-1.3-9.4,0-19.4-3.7-28.4-6.8-16.7-21.1-28.8-29.3-44.7-3.9-6.7-6.9-14-10.9-20.7-6.6.8-13.2,1.7-19.7,3-5.6,10.9-9.6,22.6-15,33.7-6.2.6-12,3.8-18.3,3.4-8.2.7-16.2-1.8-24.3-2-2.6,12-2.9,25-9.7,35.6-9.8,17.5-20,34.9-25.7,54.2a50.16,50.16,0,0,0-2,20.7c.8,6.7,2.2,13.3,2.6,20,.9,12.4,2.9,24.9.3,37.2-2.8,10.7-8.1,20.4-12.9,30.2-2.4,5-3.4,10.7-7,15-2.8,3.5-6.8,5.6-10.6,7.8-3.2-3.6-5.3-8.3-4.6-13.1,1-9.2,5.4-17.4,9.3-25.6,6.5-13.9,14.3-27.4,17.4-42.6,3.6-19.9-7.3-39.1-3.9-59,3.7-19.9,18.1-35.9,22.3-55.7,1.9-9.9,1.2-20,.5-30-.5-5.6-.7-11.3-1.8-16.9-6.4.4-12.7,1.8-19,2.6-25.2,3.3-50.5,5.6-75.9,5.2-55.1.1-108.8-13.6-161.8-27.3-3-.6-6.7-2.5-9.3.1-3.5,3.6-4.6,8.7-7.2,12.9-17.2,30.1-31.9,61.6-49.3,91.6-2.2,3.7-2,8.1-3,12.1-2,8.1-6.2,15.4-10.7,22.3a6.05,6.05,0,0,0-1,5.5c6.3,33.7,12,67.6,20,101,.5,2.7,2.3,4.8,4.2,6.6a146.72,146.72,0,0,1-40.8.2c-.3-7,.2-14.1-.6-21.1-1.5-16.6-7.5-32.3-13.7-47.6-6.5-15.8-12.9-31.7-17.1-48.2-3,2.7-5.9,5.9-6.8,10-1.4,9.9,1,20,4.9,29,6.6,15.6,16.6,29.6,21,46,1.6,5.5,2.5,11.3,1.5,16.9-2.1-6.7-9.2-9.6-15.5-10.6-10.2-1.7-20.7-2.4-30.5-5.8a15.93,15.93,0,0,0-1.3,1.3c1.9-8.2,4-16.6,2.2-25-4.5-29.5-22.4-54.2-33-81.5,3.3-4.3,5.4-9.4,8.2-14,5.7-10.3,15.1-18,20.6-28.4a27.77,27.77,0,0,0,3.3-16c-.6-7.5-3.8-14.4-6.6-21.3a84.29,84.29,0,0,0,10.2-12.8c6.5-10.3,8.9-22.8,8.5-34.9.1-14.4-4.1-28.4-8.6-41.9,8.7,8.4,17.6,16.7,27.8,23.3,10.7,6.9,23.7,9.7,36.4,9,8.3-.2,16.8-3.7,21.9-10.5,6.2-8.1,8.4-18.3,11.2-27.9,1.7-5.5,1.9-11.3,2.2-17.1,7.8,9.7,14.7,20.7,25.3,27.5,11,6.2,23.9,8,36.4,8.5a272.76,272.76,0,0,0,42.4-2.5c15.2-2.6,29.8-7.3,44.6-11.4,41.1-12,84.9-10.2,125.8-23.3C473.3,239.3,483.8,233.1,494.2,227.2Z"/><path id="path164584" class="cls-2" d="M969.3,258.3c3.7-.7,8.2-1.5,11.5,1,4.5,4.3,4.5,11.3,3.6,17.1-1.7,10.9-9.3,19.6-16.8,27.2-4.4,4-8.6,8.4-14.1,10.9-9.5,4.9-20.7,7.6-28.1,15.9-4.6,5-3.5,12.5-6.9,18.2-3.3,2.1-7.6,2.7-11.5,2.8-2.4.1-3.5-2.5-3.6-4.5-.8-8.9,2-17.6,4.5-26s5.6-16.9,10.9-24.1c7.2-10.4,17.7-17.7,27-26C952.6,264.9,960.4,259.9,969.3,258.3Z"/><path id="path164586" class="cls-4" d="M922,279.6a64.12,64.12,0,0,1,11-5.8,27.44,27.44,0,0,1-8.5,6.6Z"/><path id="path164588" class="cls-5" d="M943.1,325.8c5.3-3.2,11.3-5,16.7-8.1,6.4,4.6,13.3,8.5,19.6,13.4-9.2.2-18.3-.5-27.4-.7-1.9.1-4.2-.7-5.4,1.1C945.4,329.6,944.2,327.7,943.1,325.8Z"/><path id="path164592" class="cls-1" d="M56.1,374.4a244.87,244.87,0,0,0,21.6-17.7c2.8,6.9,6,13.8,6.6,21.3A27.77,27.77,0,0,1,81,394c-5.5,10.4-14.9,18.1-20.6,28.4-2.8,4.6-4.9,9.7-8.2,14a69.22,69.22,0,0,0-3.9-8.8c-2.6-11.4-6.1-22.9-5.5-34.6C43.2,384.6,50.8,379.8,56.1,374.4Z"/><path id="path164594" class="cls-1" d="M545,364.4c6.3.4,12.1-2.8,18.3-3.4-8.8,22.4-19.3,44.5-23.7,68.4-3.5,16.7-5.7,33.9-12.6,49.6-1.8,4-3.3,8.4-6.9,11.1-2.5,2.1-5.9,3.9-6.3,7.5-4.8,25.9-9.8,52-9.4,78.5.8,7.9,1.7,16.1,4.6,23.6a73.67,73.67,0,0,1-19.9,0c-5.2-.5-10.4-1.9-15.7-1.4l-1.2,1.6a9.7,9.7,0,0,1-.1-1.7c-5.4-5.1-11.7-9.3-16.4-15.1,3.8-2.2,7.8-4.3,10.6-7.8,3.6-4.3,4.6-10,7-15,4.8-9.8,10.1-19.5,12.9-30.2,2.6-12.3.6-24.8-.3-37.2-.4-6.7-1.8-13.3-2.6-20a50.16,50.16,0,0,1,2-20.7c5.7-19.3,15.9-36.7,25.7-54.2,6.8-10.6,7.1-23.6,9.7-35.6C528.8,362.6,536.8,365.1,545,364.4Z"/><path id="path164596" class="cls-1" d="M680.5,376.6c1.7-3.3,3-6.7,4.5-10.1,3.3,8.9,7.1,17.6,9.8,26.7,3.3,10.6,4.5,21.7,5,32.8.5,11.9,1.3,23.9.8,35.9-.7,18-2.7,36.3.5,54.2.9,5.9,4.3,11,6.4,16.5,2.6,5.8-.4,12.6,2.6,18.4a107.57,107.57,0,0,0,16.1,24.6c-12.7,3.1-25.9,3.1-38.8,2.1-5.6-1.2-11.3-2.2-16.5-4.8a76.62,76.62,0,0,0,7.4-9.6c4.9-7.8,6.6-17.2,7.3-26.3.9-8.4-2-16.5-3.8-24.6-2.8-11.7-.5-23.8-2.6-35.5-1.5-8.1-7.2-14.4-10.3-21.9-3.8-9-7.7-18.2-8.4-28.1-.6-10.5-.3-21.5,4.1-31.3C668.2,388,676.3,383.8,680.5,376.6Z"/><path id="path164598" class="cls-5" d="M910.1,425.9c3.1.7,6.1,1.8,9.1,2.8,6.5,2.3,13.7.5,20.2,2.9,2.6.9,5.4,3.3,4.6,6.4a40.82,40.82,0,0,0-1.3,13c-2.2-3.9-3.2-8.9-7.1-11.6-5.2-3.2-11.9-1.8-17.2-4.8A32.71,32.71,0,0,1,910.1,425.9Z"/><path id="path164602" class="cls-1" d="M84.3,541.6c9.8,3.4,20.3,4.1,30.5,5.8,6.3,1,13.4,3.9,15.5,10.6a99.7,99.7,0,0,1-5.2,15.1c-1.5,3.1-.9,6.6-.9,9.9a69.24,69.24,0,0,1-3.7,22.1,24.2,24.2,0,0,0-8.4-15.3c-7.3-5.7-17.2-5-25.2-9-2.3-5.5-5-11-6-16.9-1-7.1.6-14.1,2.1-21A15.93,15.93,0,0,1,84.3,541.6Z"/><path id="path164604" class="cls-1" d="M141.1,573a146.72,146.72,0,0,0,40.8-.2,154.62,154.62,0,0,1,14.3,14.9c-12.1,12.6-29.8,16.9-46.3,20.3-1.3-3.3-3.2-6.3-4.4-9.6C142.5,590.3,141.5,581.6,141.1,573Z"/><path id="path164606" class="cls-2" d="M687.4,577.7c12.9,1,26.1,1,38.8-2.1,6.2,3,10.5,8.8,13.1,15.1,4.1,9.9,5.4,20.7,6.7,31.2-17.6.1-35.2.2-52.8,0-2.9-5.4-5.9-10.8-9.1-15.9-2.4-4-5.1-8.3-4.4-13C680.6,587.2,684.3,582.5,687.4,577.7Z"/><path id="path164608" class="cls-2" d="M70.3,590.9c2.8-6,9.4-11.5,16.6-10.1,8,4,17.9,3.3,25.2,9a24.2,24.2,0,0,1,8.4,15.3c-4.6,13.4-13.4,24.8-23.1,34.9h-.8C88.5,623.3,78.5,607.6,70.3,590.9Z"/><path id="path164610" class="cls-2" d="M149.9,608c16.5-3.4,34.2-7.7,46.3-20.3,8.3,9.9,14.5,21.6,17.1,34.2-21.2.2-42.3.1-63.5,0C149.6,617.3,149.7,612.7,149.9,608Z"/><path id="path164612" class="cls-2" d="M473.4,598.3c5.3-.5,10.5.9,15.7,1.4a73.67,73.67,0,0,0,19.9,0c15.6,8.2,23,25.3,30.5,40.3H467.6c-1.1-7.6-2.3-15.3-1.3-23a75.29,75.29,0,0,1,5.9-17.1Z"/></svg>