<svg id="Layer_1" data-name="Layer 1" xmlns="http://www.w3.org/2000/svg" viewBox="0 0 1005 900"><title>FallingPig</title><path d="M734.57,0C709.48,0,700.47,17.47,693,80.5c-2.46,20.84-3.11,24.61-5.62,32.6-6.48,20.56-7.23,21.47-12.61,15.33C659.66,111.19,629,115.94,619.58,137c-8.63,19.23,4.15,38.4,28.71,43.06,9.32,1.76,9.15,3.78-1.3,15.48-8.88,9.94-16.47,20.65-18.19,25.68-1.47,4.29-5.8,6.29-5.8,2.68,0-4.39-15.72-19.08-23.77-22.23-8.39-3.28-21.24.05-33.73,8.74a19.54,19.54,0,0,1-3.5,2.12,15,15,0,0,0-2.78,1.31c-2,1.13-2.52,1-4.5-1.44-6.07-7.37-13-14.24-16.44-16.18-6.36-3.66-12-6.08-15.86-6.8-2.36-.45-5.28-2.24-8.22-5-2.51-2.39-5-4.35-5.64-4.35s-2.88-1.73-5.07-3.84a58.78,58.78,0,0,0-6.74-5.62c-3.11-2-3.39-3.79-1.24-7.91a13.27,13.27,0,0,0,1.49-4c0-.63,1.24-2.94,2.75-5.13,8.46-12.28,3.69-37.06-11.7-60.83-8.08-12.47-8.35-17.32-1.65-30,13.6-25.79,7.85-43-14.4-43.1-15.46-.08-21.59,7.32-27.07,32.68-1.14,5.26-1.81,6.23-8.51,12.25-7.29,6.55-14.75,16.54-17.93,24-.93,2.2-2.72,6-4,8.5-3.19,6.27-6.22,19.75-7,31s-1.74,13.87-5.13,13.22c-5-1-35.24,12.27-33,14.46.39.39,14-5.61,19.89-8.75,2.33-1.25,4.12-1.18,5.53.24.77.77,5.93,1.22,15,1.31,30.89.32,51,7.31,46.26,16.05-2.32,4.25-3.62,20.15-1.8,22s2.82-1.29,2.82-9c0-12.54,3.43-18.4,8.74-14.92,2.07,1.36,2.35,2.11,1.77,4.78-1,4.63-1.79,24.4-1.08,27.23,1.18,4.73,2.57,2.35,2.57-4.43,0-7.78,1.25-12.22,4.78-16.89,1.35-1.79,2.07-3.28,1.59-3.32s.22-.5,1.55-1c2.54-1,1.65-1.51,18.41,10.21,2.84,2,5.18,4,5.18,4.5s1.27,2.13,2.81,3.64L506.1,190l-3.94,4.74c-6.31,7.6-11,21-8,22.88.49.3.61,2.42.27,4.7-.73,4.92,1.64,17.29,5,26.33,2.74,7.26,2.4,7.75-4.29,6.2-11.46-2.64-21,3.88-26.72,18.26-3.32,8.37-5.82,10.86-7.22,7.2-2.35-6.15-14.85-19.21-22.89-23.93-30-17.63-53.19-2-53.94,36.48l-.25,12.38-3.54,3.55c-3.53,3.53-3.58,3.54-7.86,2.25a52.91,52.91,0,0,0-10.31-1.58c-6.49-.31-10.64-1.13-23-4.52-4.4-1.21-9.34-2.43-11-2.72a9.51,9.51,0,0,1-4.2-1.76c-.68-.68-4.52-2-8.53-3-9.69-2.31-11.38-3.48-12.17-8.44-.36-2.25-1-4.08-1.44-4.08s-1.39-1.68-2.12-3.75-4-7.47-7.2-12c-7-9.91-6.81-8-2.47-21.73.86-2.75,1.74-5.9,1.93-7,.44-2.42.75-3.21,6.39-16.5,4.86-11.43,7.94-17.18,11.18-20.9,1.15-1.32,2.1-3,2.1-3.75s.35-1.35.78-1.35,1.64-1.46,2.68-3.25c2.74-4.7,26.7-35.75,27.6-35.75.41,0,2.63-1.57,4.94-3.5a38,38,0,0,1,4.56-3.5c1.38,0-1.47,3.23-6.58,7.44-3.29,2.72-6,5.35-6,5.86s-1.15,2.27-2.54,3.93-2.25,3.31-1.89,3.65,1.37-.5,2.25-1.88c1.89-2.95,11-12.06,16.86-16.95,2.3-1.9,3.92-3.89,3.59-4.41s-.09-.64.51-.27c1.27.78,7.53-2.72,6.57-3.68-.35-.35-.06-1.33.65-2.19,3-3.66-15.34,4-19.45,8.09-2.25,2.25-4.33,1.11-5.07-2.78s-2.77-6.53-7-9.23c-9.64-6.16-21.64-21.06-27.33-33.92-2.73-6.17-4.6-6-12.73,1.24-2.24,2-6.34,5.63-9.11,8.1l-5.05,4.5-11.89,0c-26.89.07-44.18,12.73-60.51,44.32l-4.31,8.35,0,12.65c0,8,.48,14.32,1.34,17.15,4.26,14,5.44,17.13,7.29,19.48,3.8,4.84-1.59,8-5.76,3.41-8.65-9.57-44.61-16-66.52-11.88-24.26,4.57-27.45,6.84-14.27,10.22,16.71,4.28,17.1,3-7.11,23.3-12,10-14.56,12.41-18.81,17.34s-2.64,6,2.37,1.52c7.23-6.54,30.52-19.4,35.1-19.4a4.09,4.09,0,0,0,2.39-.87c15.77-14.4,85.91-8.84,91,7.22,1,3-6.14,6-20.3,8.72l-6.19,1.17-5.92-4c-23.88-15.95-56.57.65-46.22,23.47,5.74,12.66,23.52,24.24,37.21,24.24A9.9,9.9,0,0,1,199,316c0,35.3,45.45,65.76,77.59,52l4.35-1.87,3.33,4.2A71.63,71.63,0,0,1,299,401.55c.6,3.26,1.34,7.12,1.64,8.57s-.17,6.81-1.05,11.93c-5.15,30,4.85,61.36,22.43,70.45,1.86,1,3,2.32,3,3.63,0,2.39,0,2.39-27.5-.52-8.25-.87-21.08-1.8-28.5-2.06-14.49-.51-21-1.31-21-2.57,0-.43-3.94-1.31-8.75-2s-12.91-2.07-18-3.18l-9.23-2-1-3.67c-3.42-12.76-2.92-17.63,2.7-26.05,15.39-23,17.3-41.42,6-57.91-16.6-24.28-58.46-11.15-66.29,20.79-2.24,9.18-4.91,10-9,2.89-.55-1-2.44-4.21-4.18-7.19-29.3-50-112.95-61.33-110-14.94,1.51,24.24,22.43,41.38,62,50.81,6.77,1.61,5.26,12.92-2.61,19.6-3.86,3.27-3.1,4.45,1.59,2.49s8.87-7.65,9.5-13.22c.5-4.4.6-4.52,3.38-3.91,10,2.2-3.16-6.43-17.14-11.23-5.89-2-18.86-8.26-19.57-9.42-.31-.5-2.45-1.85-4.75-3-23.26-11.61-33.83-46.34-16.45-54,23.91-10.48,63.45,10.63,103.42,55.2,6.85,7.64,9.31,7.64,9.35,0,.1-19.39,19.84-41.34,35.88-39.88,24.67,2.23,32.71,26.43,18.26,55-7.83,15.48-9.1,21.81-5.7,28.38a28.05,28.05,0,0,1,2.13,7.17c.87,5.86,18.51,13.7,29.4,13.07,1.37-.08,8.13.81,15,2s19.93,2.59,29,3.17c17.89,1.15,20.24,1.38,36,3.64,19.64,2.81,37.89,6.61,40.5,8.41,1.49,1,10.89,4,17.86,5.63C397,522.25,411.8,523,425.39,520c16.74-3.68,25.15.15,32,14.57,4.74,10,5.45,12.94,6.17,26q1.26,22.72,3.85-.14c2-17.64-1.47-31.37-10.17-40.35-6-6.21-6.06-7.44-.36-9.15,5.13-1.53,6.2-.68,8.55,6.83A95.37,95.37,0,0,0,476.52,542a63.48,63.48,0,0,1,7,15.5c1.48,4.95,3.32,10.57,4.1,12.5,4.12,10.23,5.81,23,5.61,42.5-.17,17.83-.55,21.63-3.51,35.5a30.21,30.21,0,0,0-.9,6.71C490,660,477.62,674,471.8,674c-5.24,0-15.81-12.09-15.81-18.08,0-1.45,7.66-1.07,13.69.68,7.51,2.19,8.86.75,3.92-4.18-2-2-3.55-3.75-3.4-3.82.89-.43,7.95-3.06,12-4.46,8.73-3,6.26-3.61-18.68-4.28-20.22-.55-60.73-3.67-69.5-5.36-1.38-.26-7-.92-12.5-1.46-16.08-1.57-31.86-3.91-40.74-6a84.51,84.51,0,0,0-10.76-2c-9.44-.2-11.3-5.17-2.43-6.46,7.38-1.06,9.22-2.82,3.43-3.26-1.93-.14-7.68-.94-12.78-1.78s-11.85-1.73-15-2a68.72,68.72,0,0,1-14.72-2.51c-8.92-2.64-23.26-7.2-25-7.95-1.1-.47-3.8-1.4-6-2.06-6.1-1.83-26.41-10.95-45.16-20.28-9.26-4.61-19.43-9.43-22.59-10.7-6.41-2.59-6.87-3.56-3.29-6.93s2.17-4.2-3.23-1.79c-5.55,2.47-18,4.63-23.73,4.11-2.2-.2-7.64-.87-12.07-1.49l-8.08-1.12-6.42,6.39c-6.43,6.38-8.49,8.11-16.93,14.18-4.68,3.36-6.22,4.18-14.42,7.65C60.13,606.48,23.73,579.09,49,549.37c6.1-7.18,25.13-16.41,37.08-18,6.08-.8,6.73-2,4.45-8-1.38-3.61-1.47-4.79-.48-6,2.08-2.51.37-2.78-9.21-1.48-19.84,2.72-44.36-2.83-55.66-12.59-8.7-7.5-10.15-9.09-13.65-14.9-11.32-18.79-.12-27.83,27.14-21.9,21.2,4.6,41.56,4,49.3-1.55,3.67-2.61,4.18-5.6.78-4.59-7.18,2.14-23.35,1.76-35.75-.85C25.6,453.8,15.24,454.78,5.86,464L0,469.81l0,7.83c0,17.27,10.54,32.7,27.48,40.37,5.45,2.46,26.06,7.36,27.43,6.52,3.51-2.15,27.47-2.52,29.67-.46,4.21,4,3.22,4.57-8.46,5.19a52.91,52.91,0,0,0-42.86,25.1c-7.16,11.29.27,34.53,13.22,41.38,12.7,6.71,41.58,6.92,54.35.4,2-1,5.68-2.78,8.15-3.89,4.5-2,19.45-13.5,25.92-19.89,4-4,3.66-3.94,12.59-1.35,8,2.31,15.61,1.92,21.65-1.13,4.81-2.42,11-.73,20.44,5.63a81.56,81.56,0,0,0,7.09,4.47c.23,0,3.89,2.18,8.12,4.84l15.69,9.87c21.7,13.65,39.13,19.26,68,21.87,7.15.64,11.75,2.26,28.5,10,5.23,2.43,10.63,4.41,12,4.41s4.88,1.12,7.78,2.47A123.93,123.93,0,0,0,358,640.28l15,3.05c6.88,1.4,17.21,3.06,23,3.67a104,104,0,0,1,11.13,1.54c.36.23,7.8.47,16.53.55,21.63.2,22.91.91,20,11.12-.83,2.9-2.69,9.77-4.13,15.27-3.77,14.38-7.39,27.17-9.5,33.5-5.4,16.19-9,26.11-10.38,28.84-5.44,10.52,8.09,23,28.41,26.28,14.61,2.33,18.73,2.77,21.5,2.29,5.76-1,6.37.5,6.64,16.32.13,7.82.05,14.41-.2,14.63-5.33,4.89-17.58,8.14-16.54,4.39,4.53-16.34-1.94-26.38-16.8-26-11.61.27-15.23,4.16-19.58,21-1.79,7-15.28,3.87-20.72-4.75-4.8-7.59-5.46-8-4.93-3.13,1.84,16.9,17.44,31.11,32.75,29.83,6.94-.59,8.43,0,13.68,5,6,5.81,18.91,8.1,29.7,5.3,9.89-2.56,9.35-2.85,12.81,6.69,11.44,31.55,42.67,57.68,74.84,62.64,18.59,2.86,37.66,1.22,63.35-5.47,25.36-6.6,53.43-25.85,64.68-44.36a58.49,58.49,0,0,1,5.36-7.5c2.75-3,11.49-19.39,11.49-21.58a9.65,9.65,0,0,1,1.61-4,6.7,6.7,0,0,0,1.09-4.49c-1.11-4.24,9.66-7,17.33-4.47,5.88,2,8.75,5.13,13.36,14.8,19.74,41.36,51.16,34.78,72.6-15.2,19.7-45.94,29.16-54.26,49-43.12,15.9,8.94,23,6.91,21.64-6.21-.75-7.33,1.94-9.55,8.7-7.16s14.1,1.8,21-1.84c6.32-3.31,16.63-10.53,16.64-11.65a15.06,15.06,0,0,1,2.8-3.63c17.62-18.93,30.17-52.2,18.36-48.66-6.52,2-10.48.82-7.52-2.15,5.82-5.82,3.88-13.24-2.72-10.4a99.59,99.59,0,0,1-9.42,3.51l-10.86,3.18c-11,3.23-21.9,2.49-18.83-1.27,1.57-1.9,15.19-37.28,15.19-39.43,0-8.68,7.28-14.75,19.29-16.07,12.79-1.4,15.32-4.73,9.61-12.68s.48-12.32,14.37-10.49c20.52,2.71,36-8.51,43.25-31.32,3.69-11.62,1.63-34.85-3-34-.55.1-1.37-.48-1.82-1.28-.64-1.14-2.2-.18-7.24,4.44-6.38,5.84-14.15,9.87-17,8.79-2.55-1-1.64-2.24,4.28-5.9C987,533,989.35,530,988.52,525.08c-.93-5.53-1.69-5.71-6.95-1.7-11.32,8.65-15.77,9.94-36.43,10.56-20,.61-25.74,2-31.88,8-1.24,1.19-2.25,1.9-2.25,1.57,0-6.51-11.26,11-15.52,24.13-3.57,11-3.72,11.89-5.52,31.88-2.86,31.86-8.83,48.79-20.15,57.14-5.46,4-13.23,2.45-8.25-1.69,1.78-1.48,3.59-5.5,6.94-15.45,1.3-3.85,3.23-9.47,4.29-12.5,11.45-32.73-5.06-93.8-32.47-120.13-41.91-40.26-122.64-21.3-136.6,32.09-.76,2.9-3.56,2.54-4.34-.56-1.09-4.33.31-23.56,2.07-28.38.89-2.47,1.51-5.41,1.36-6.52C702.18,498.64,722.61,478,728,478c3.84,0-4.75-4.87-14.89-8.45a43.61,43.61,0,0,1-5.76-2.47c-2-1.17-14.34-5.39-28.38-9.72-4.68-1.44-9-3-9.68-3.55a23.75,23.75,0,0,0-6-2.12c-4.24-1.05-4.86-1.54-5.15-4.08-.41-3.59,3.4-32,5.38-40.11,1.89-7.73,5.56-28.92,5.84-33.66.16-2.79,1.4-5,5.16-9.36,27.15-31.23,41.9-64.88,45.36-103.48.62-6.87,1.31-13.62,1.53-15,1.22-7.41,2.34-17.08,2.5-21.43.22-6.51-.22-6.18,9.38-6.86,18.83-1.33,39.45-15.17,50.49-33.9,3.37-5.71,3.21-5.65,12.55-5.07,39.09,2.42,67.52-27.11,53.67-55.74-5.38-11.12-25.81-10.4-42.39,1.51-5.54,4-9.64,4.62-9.64,1.51,0-2.25,10.38-14.12,15.9-18.18,10.78-7.93,23.76-29.44,24.94-41.34,3.16-31.72-3.8-42-28.43-42-19.1,0-26.13,8.13-37.57,43.42-10.56,32.58-14.33,36.57-28,29.53-3.41-1.77-4.17.1-1.14,2.81,3.29,2.94,20,6.59,24.15,5.27,2.64-.84,2.76-3.53.15-3.53-3.25,0-3.34-1.85-.26-5.77,2.86-3.64,14.63-26.78,18.68-36.73,9.9-24.29,20.14-31.95,34.77-26,12,4.89,13.32,29.09,2.65,49.62-5.54,10.67-7.15,12.82-16.35,21.88-14.82,14.59-17.43,19.45-14,26.05,2.18,4.22,7.77,4.06,16.48-.48,3.57-1.86,9.2-4.77,12.5-6.47,22.44-11.57,33.52,16.25,14.08,35.4-13.89,13.69-47.67,23.16-46.76,13.11.41-4.51-1.19-4.67-3.55-.36l-1.77,3.25-.31-4.25c-.39-5.38-1.56-5.38-4.12,0C769,194.45,743.37,213,722.28,213c-7.85,0-9.07,1-4.22,3.53,2.05,1.06,2.9,2.13,2.58,3.27-.26.94-.76,2.83-1.12,4.2a41,41,0,0,1-1.47,4.5,53.55,53.55,0,0,0-1.88,7.5c-7.54,39.67-9.82,50-13.4,60.5-4.17,12.24-12.41,30.6-16.18,36a64.09,64.09,0,0,0-4.2,7.5c-1.17,2.48-3.95,7.43-6.19,11-8.1,13-18.7,30.37-19.08,31.33-.21.54.56.73,1.75.42,2.86-.75,2.77.56-.77,11.65-2.64,8.25-7,31.17-8.7,45.88-.93,7.91-4.72,8.63-30.89,5.79L599,443.93c-4.68-.51-10.35-.94-12.6-.94-6.13,0-22.89-16.36-18.61-18.17.84-.35,7.21-9.58,7.21-10.45a19.44,19.44,0,0,1,2.5-3.79c1.37-1.8,2.5-3.69,2.5-4.2a17.36,17.36,0,0,1,2.49-4.59c2.83-4.17,17.93-34.09,19-37.64a76.13,76.13,0,0,1,3.61-8.21c3.48-7,11.89-33.43,11.89-37.34a34.19,34.19,0,0,1,1.4-6.42c.77-2.57,1.86-7.38,2.43-10.68s2.24-11.4,3.71-18c2.12-9.59,2.76-15.57,3.17-29.74.29-10,.9-17.5,1.4-17.2s.89.17.89-.3,2.25-4.41,5-8.76,5-8.52,5-9.26c0-1.63,7.37-11.64,11.59-15.74a40.4,40.4,0,0,0,4.86-5.75c2.39-3.69,2.58-3.62,8.93,3,7.81,8.19,26.19,12.63,34.39,8.3,1-.5,3.3-1.5,5.22-2.22,3.58-1.34,11-7.39,11-9s-3.18-.85-6.73,1.86c-5.2,4-23.28,4.7-29.68,1.2-10.19-5.58-18.8-18.8-12.34-18.93,2,0,.43-2-1.64-2-31.4,0-51-29.43-31.14-46.83,16.32-14.33,38.58-8.79,45.4,11.31,1.3,3.84,3,7.44,3.67,8a6.81,6.81,0,0,1,1.85,3c.3,1.1.35-1.07.11-4.83s-1.13-8.22-2-9.91c-2-4-2-4.31,1.08-8.31,4.71-6.17,10.7-26.69,14.28-48.95,1.32-8.17,3.46-16.83,10.14-41C723.3-10.12,767.73.05,756,52.25c-2.4,10.7-8.37,29.42-11.14,35-3.28,6.54-3.69,8.7-1.28,6.7,2.83-2.35,7.14-9.33,9.84-16,1.46-3.56,3.25-7.6,4-9C776.24,34,765,0,734.58,0ZM473,24.63a9.74,9.74,0,0,1,4.12.66c10.27,4.29,8.53,30.35-3.12,46.83l-4.71,6.66c-3.12,4.44,2.8,3,7.06-1.66,4.07-4.5,4.35.65.52,9.59-1.91,4.46-.68,6.13,2.08,2.8,4.93-5.94,12.91,26.61,10.06,41-1.72,8.71-5,18.43-7.72,22.72-2.85,4.53-2.85,4.53-12.72-.22-6.43-3.09-8.15-4.42-9.31-7.15a22.3,22.3,0,0,0-3.56-5.65,7,7,0,0,1-1.92-5.6,8.78,8.78,0,0,0-1.8-5.88c-3-3.88,1.06-18.25,6.51-22.78,1.56-1.29,2-4,.68-4-4.52,0-17,21.92-19.29,33.85l-1.22,6.36-7.6-.71a55.47,55.47,0,0,1-8.35-1.16c-2.57-1.56.08-31.95,3.82-43.8,4.23-13.44,7.9-19.35,19.19-30.94C456.08,55,457.67,52.25,454,51.29c-2.52-.66-2.5-1.09.33-7.51a67.72,67.72,0,0,0,3-7.9c1.47-5.87,9.3-11,15.72-11.25ZM301,111.21c.88-.1,1.46.92,2.54,3.2a54.83,54.83,0,0,0,7.05,9.41c3,3.3,5.43,6.42,5.43,6.94,0,1.17,10.8,8.83,14.34,10.18,3.23,1.23,6.51,7.48,6.28,12s-2.62,5.37-2.62.8c0-8-8.44-14-16.51-11.87-3.86,1-18.49,13.07-18.49,15.2,0,.5-1.71,3.72-3.8,7.17s-4.62,8.07-5.62,10.27-3.28,7.15-5.06,11a161.41,161.41,0,0,0-6,16c-1.54,4.95-3.12,9.9-3.51,11-1.54,4.32-2.91,11.55-4.56,24-.95,7.15-2.22,13.33-2.83,13.73a3.42,3.42,0,0,1-2.09.58c-.55-.08-2.72-.33-4.82-.54a23.93,23.93,0,0,1-8.38-3.3,27.51,27.51,0,0,0-8.73-3.51l-4.17-.63.11-9.67c.17-13.1,2.25-29.53,4.58-35.95a32.2,32.2,0,0,0,1.91-7.56,8.2,8.2,0,0,1,1.47-4.21,8,8,0,0,0,1.5-3.94,12.11,12.11,0,0,1,2.08-5,75.26,75.26,0,0,0,4.54-8.5c1.38-3,3.14-6.85,3.91-8.5s2.09-4.73,2.93-6.83,3.79-5.87,6.55-8.35,5-5,5-5.59c0-1.15,11.91-13.71,24-25.32,1.42-1.37,2.29-2.12,3-2.2ZM266.45,125.4A5.14,5.14,0,0,1,269,126c1.24.77.45,5-.94,5-1.92,0-10.63,13.12-16.81,25.31C241.54,175.55,241,176.79,241,179.84a6.9,6.9,0,0,1-.87,3.71c-1,1.08-4.23,11-6.49,19.95-1.53,6.06-3.12,19.43-3.53,29.75-.26,6.54-5.42,1.82-14.5-13.28-9.28-15.41-9.55-49.16-.48-60.89,1.09-1.42,3.26-4.42,4.82-6.66,7.88-11.39,36.19-27.28,46.5-27ZM394.7,137.3c-1.44.09-5.28,1.22-11.46,3.41-11.7,4.14-36.75,21.77-40.27,28.35-.62,1.17-.66,1.94-.09,1.94a1.48,1.48,0,0,0,1.29-.79c.3-.72,12.75-9.85,20.18-14.81,3.11-2.07,10.7-6.3,23.9-13.31,6.19-3.3,8.3-4.9,6.45-4.79Zm53,1c.51,0,1.08.29,1.81,1a36.59,36.59,0,0,0,3.31,2.89,20,20,0,0,1,3.08,3c1.18,1.51,1.15,1.75-.2,1.75a2.8,2.8,0,0,1-2.18-1,3.29,3.29,0,0,0-2.53-1c-2.52,0-5.69-4.68-4.18-6.19a1.47,1.47,0,0,1,.89-.48Zm-125.25,9.76a5,5,0,0,1,3.74,1.66c5.87,6.92,6.72,10.94,3.08,14.48-1.51,1.46-3.93,3.93-5.37,5.47s-5.11,5.84-8.15,9.55c-6.15,7.52-7.15,7.26-6.13-1.58.56-4.83.36-5.48-3.05-9.93-2.16-2.81-3.36-5.27-2.92-6,4.78-8.1,13.31-13.86,18.8-13.65Zm50.89,37.81a21.42,21.42,0,0,0-14.5,5.48c-6.85,6.58-13,19.08-12.68,25.89.11,2.69.2,2.81.56.73,3-17.41,21.32-32.37,34.2-27.88,4.46,1.55,5,.4,1-2.06a16.51,16.51,0,0,0-8.54-2.16Zm145.39,16c4.17,0,10.29,3.9,10.29,7.39,0,1.14-2.21.68-6.5-1.34a19.75,19.75,0,0,0-6.25-1.92c-2.86,0-2.87-1.48,0-3.47a4.25,4.25,0,0,1,2.48-.66Zm-144.07,1.28a14.89,14.89,0,0,0-5.32.89c-13.2,5-20.34,31.8-15.15,56.93,1.16,5.61,3.8,8.21,3,2.9-5.84-36.79,17.42-60.53,41.38-42.24,2.55,1.94,4.93,3.24,5.29,2.88s.16-1-.44-1.34a6.56,6.56,0,0,1-1.81-3c-2.79-9-16.55-17-26.91-17Zm160,1.43a5.85,5.85,0,0,1,2.1.78c13.25,6.94,24.8,28.68,28.73,54.11,1.26,8.18,2.61,11.09,4.15,9,2.57-3.51,1.31-17.31-2.56-28-6-16.66-6.87-21.11-4.09-22,1.09-.35,1.87-1.13,1.75-1.73-1.18-5.65,34.17-6.26,40.85-.71,11.58,9.61,17.16,40.31,12.39,68.18-.59,3.44-1.71,10.08-2.49,14.75a139.24,139.24,0,0,1-4.92,21.25c-2.23,7.52-2.54,7.38-7.5-3.5C591.23,290.82,563.62,265,547.69,265c-2.55,0-2.9-1.71-1.05-5.22,1.27-2.4,1.75-5.78,1.79-12.57l.06-9.29,2.26,2.79a49.19,49.19,0,0,1,4.32,6.79l2.07,4-.68-3.5c-1.44-7.39-12.89-29.9-19.14-37.6-3.12-3.85-4-5.86-2.68-5.79Zm-16.08,3.49c6.07,0,13.83,5.87,20.45,17.44,3.4,5.94,3.85,12.92.48,7.46-6.76-10.93-20.15,12.25-16.49,28.56.76,3.41.74,5-.11,6.05-1.72,2.08-3.44,1.7-6.62-1.48-2.79-2.79-3.91-5.3-7-15.63-1.55-5.29-3.3-21.6-2.24-20.95.35.22.92-3.05,1.27-7.26.81-9.5,4.86-14.16,10.22-14.19ZM533,234.68c2.81.09,5.15,5,2.47,7.72-2,2-2.91,2-4.89,0-2.15-2.15-2-4.76.46-7a2.71,2.71,0,0,1,2-.79ZM418.31,255.77c18,.59,40.74,30.07,45.25,66.18,1.86,14.91-1.59,21.68-13.29,26.05-7.2,2.7-8.83,2.59-19.59-1.29-8.52-3.07-30.47-34.58-28.2-40.49a3,3,0,0,0-.33-2.6C396,296,396.93,274.15,403.78,264c4-5.87,9-8.4,14.53-8.23ZM179,256.84c8.24,0,17.36,3.59,24.84,10.6,2.69,2.51,5.4,4.56,6,4.56,1.64,0,1.42-2.53-.35-4a4.11,4.11,0,0,1-1.5-2.62c0-1.38.73-1.54,8.75-1.95,2.33-.12,8.63-.72,14-1.34,38.2-4.38,73,19.13,75.07,50.71.49,7.42,3.42,8.84,4,1.94.36-4.34,1.42-4.58,9.94-2.32,2.88.77,5.25,1,5.25.52s.56-.72,1.25-.53l6.75,1.95c3,.88,8.87,2.57,13,3.75s8.13,2.66,8.9,3.27,6.84,2.31,13.5,3.77c20.73,4.54,23,6,38.38,23.64,14.71,17,44.22,20.58,57.28,7,6.88-7.17,10.4-26.5,8.4-46.28-2-19.33,13.07-41.74,27.75-41.43,2.94.06,8.55,1.69,6.43,1.86-.48,0,.18.92,1.47,2l2.33,1.89L508,279.1a37.8,37.8,0,0,1-4.83,7.86,35.22,35.22,0,0,0-4.38,6.54,23.2,23.2,0,0,1-2.72,4.5c-.87.63-4.05,13.74-4.05,16.69,0,5.18,2,2.62,5-6.45,4.81-14.42,6-15.59,6-6,0,10.31,2.6,25.17,5.38,30.72a65.07,65.07,0,0,1,3.55,9c2.37,8.18,3.34,10.43,7.95,18.3,6.33,10.83,20.32,24.59,17.48,17.2-.32-.82-.92-1.5-1.35-1.5-3.1,0-20-30.05-20-35.56a9.17,9.17,0,0,0-1.39-3.72c-3.25-5.14-5.25-25.38-4.09-33.39l.55-12.7.09,0a23.15,23.15,0,0,1,1.45-4.58c2.06-5.14,3.87-5.3,3-.27a47,47,0,0,0-.63,5.5,1.94,1.94,0,0,1-.2.82l.87,12.86c.47,1.83.91,4.2,1.39,7.39A48.87,48.87,0,0,0,519,321a25,25,0,0,1,1.48,5c2.84,14.48,12.37,31.77,23.82,43.22,5.37,5.36,9.75,10.11,9.75,10.55,0,3.17-31.21,9.2-47,9.09-26.79-.19-48.68,16.85-58.39,45.45-10,29.55,23.4,51.53,49.9,32.81,8.2-5.8,21.83-15.89,23.75-17.61,1-.86,4.23-2.35,7.24-3.3,5.79-1.84,7.12-3.24,3.07-3.24-3.84,0-4.22-14.17-.57-21a10.15,10.15,0,0,0,1-4c0-1.46-1-.37-2.89,3.33a40.77,40.77,0,0,0-4.23,19.8c.2,3.95-.73,5.06-5.68,6.72a24.42,24.42,0,0,0-6,3.22c-39.68,30.94-67.87,19.28-57.07-23.61,4.82-19.15,29.75-6.19,32.44,16.86.9,7.75,2.84,6.95,3.24-1.33a25.35,25.35,0,0,0-14.45-24.46c-10.68-5.07,10.49-13.08,21.64-8.19,3.91,1.71,12,8.32,12,9.8a10.33,10.33,0,0,0,1.64,3.46c1.25,1.91,1.59,4.59,1.44,11.47-.17,7.49.07,9.08,1.43,9.6,2.5,1,3.31-.59,3.91-7.47.5-5.81,3.45-17.85,5.55-22.67.48-1.1,2.11-5.37,3.62-9.5,3.48-9.46,4.85-10.94,10.53-11.39a21.89,21.89,0,0,0,6.8-1.56,70,70,0,0,1,8.06-3.12c10.16-3.33,14.34-5.55,22-11.66,14.59-11.56,15.82-11.07,8.62,3.45-9.61,19.37-13.51,25.54-32.34,51.2-.7,1-1.52-1-1.83-4.45a13.73,13.73,0,0,0-.78-4.1c-.69-.69-1.8,7.65-1.16,8.69.55.89-2.85,11.83-5.73,18.44-8.2,18.85-34.61,37.77-51.31,36.76-2.2-.13-9.85-.41-17-.6-11-.31-13.66-.7-17.35-2.58-5.65-2.88-6.27-2.13-1.17,1.41,3.94,2.72,4,2.92,4.2,9.15.1,3.5.21,7.33.25,8.52.09,2.61-9.63,8.84-13.78,8.84a41.09,41.09,0,0,0-6.68,1.9,60,60,0,0,1-13.31,2.34c-4.82.27-8.15.93-8.63,1.71s-1,.94-1.46.16c-.38-.61-3.25-1.11-6.38-1.12a43.41,43.41,0,0,1-9.19-1,63.79,63.79,0,0,0-7-1.41A135.36,135.36,0,0,1,366.93,508c-7.6-2.86-10.44-4.06-20.42-8.65a105.84,105.84,0,0,1-14.32-9.44,2.4,2.4,0,0,1-.8-2.44c.28-.73.13-1.47-.34-1.64-2.1-.78-12.89-15-16.26-21.41-8.28-15.79-11.3-50.2-5.63-64.14.63-1.52,1.75-4.19,2.49-5.92,3.73-8.63.53-8.22-5.22.67l-2.92,4.48-.59-8.5c-.6-8.4-4.65-20-7-20-3.08,0-.49-3.71,3.32-4.77,5.86-1.63,7.55-2.83,6.07-4.31-.88-.87-2-.89-4.39,0-9.07,3.16-15.2,1-9.11-3.25,10.88-7.54,10-12-1.58-7.77-14,5.11-38.59,6.28-47.11,2.24-13.47-6.39-16.1-8.13-23.6-15.6-9.56-9.51-17.18-23.11-11.79-21.05,4,1.54,14.55,1.92,14.08.5-.25-.74-2-1.72-3.89-2.16-17.36-4.06-22.42-8.65-11.2-10.17,11.59-1.58,9-4.84-5-6.4-5.4-.6-10.35-1.49-11-2a36.55,36.55,0,0,0-6-2.66c-15.28-5.65-28.38-23.34-22.21-30,4.18-4.52,10.07-6.73,16.48-6.74ZM494.78,259a9.35,9.35,0,0,1,6.19,2,14.85,14.85,0,0,0,4.16,2.57c3.66,1.16,1.79,2-4.87,2.08-7.81.14-12.27,2.17-19.08,8.72a41.17,41.17,0,0,0-6.69,8.66l-2.34,4.5.25-3.5a25.79,25.79,0,0,1,1.76-7,46.12,46.12,0,0,0,2.14-6c1.66-6.66,11.18-12,18.48-12Zm34.27,10.66c.59,0,1,.06,1,.23,0,.34,3.13.47,7,.29C561.47,269,589.91,299,598.1,334.55c1.95,8.47-11.7,25.38-30.7,38-4.46,3-8.57,5.41-9.14,5.41-4.82,0-20.85-24.2-27.49-41.5-.85-2.2-2.26-5.8-3.14-8-7.29-18.16-9.71-47.49-4.46-54.14a3.29,3.29,0,0,0,.62-2.42c-.16-.73,1.11-1.57,3-2a13.92,13.92,0,0,1,2.29-.32Zm-38.63,20.69c-3.35,0-14.46,9.28-12.71,11,.88.88.67,1,5.31-2.88,2.3-1.92,5.27-3.77,6.59-4.11,2.46-.61,3.21-2.76,1.37-3.9a1.08,1.08,0,0,0-.56-.14Zm2.11,4.66c-2.32,0-8.37,6.66-10.72,11.81-1.18,2.58-2.32,5-2.54,5.44-1.64,3.13,2.84-.22,5.12-3.83a64.23,64.23,0,0,1,6.25-8.14c3.66-3.88,4.16-5.28,1.89-5.28Zm-245.06.91a38.68,38.68,0,0,0-11.36,1.74c-5.94,1.92-6.87,3.78-1.37,2.73,14.77-2.83,24.21-.47,24.29,6.06.05,4.4,7,14.56,10,14.56,1.43,0,1.3-.33-2.52-6.13-4.92-7.47-6-14-2-12.52,1.57.6,2.09,1.61,4.93,9.65a29.4,29.4,0,0,0,5.1,8.31c3.87,4.2,4.27,5.81,1.94,7.75-4.15,3.44-5.05,8.59-2.82,16.19.57,1.92,3.38,2.44,3.38.62a28,28,0,0,0-1.11-4.85c-1.32-4.41-.35-6.74,5.4-12.94,4.18-4.49,6.62-5.16,7.43-2,.68,2.58,2.68,2,3.11-.88,2.09-14.26-22.9-28.53-44.35-28.25Zm318.18.82c-1.08,0-.68,1.63,1.76,4.18,2.87,3,3.61,5.13,4.31,12.34.77,7.87-1.85,6.56-3.22-1.61-.51-3.06-1.24-4.09-3.53-4.95s-3-1.84-3.18-4.06c-.47-4.71-3-4.7-2.7,0s3.17,10.85,6.7,14.61c3.09,3.3,9.13,3.95,9.31,1,.51-8.41-1.77-15.74-6.06-19.51-1.57-1.38-2.75-2-3.39-2ZM451.24,299.5l-5.09,0c-14.1.12-22.59,34.11-10.66,42.68,2.52,1.81,13.05-1.13,18.4-5.14,7.82-5.85,7.9-10,.6-29.08l-3.25-8.5Zm-8,2.52c4.21-.09,6.67,11.91,2.86,14s-6.32.85-7.54-4c-1-3.95,1.8-9.88,4.68-9.94Zm101.44,9.26c-.66.13-.2,1.63,1.72,4.15,7.34,9.62,8.8,22.49,2.27,20-1.41-.54-3.62-6-3.64-9,0-.59-1.34-2.58-3-4.43-2.08-2.33-3-4.4-3-6.74s-.37-3.14-1.12-2.68c-4.14,2.56,3.12,21.69,9.41,24.79,10.78,5.32,11.41-13.13.81-23.73-1.73-1.73-2.93-2.46-3.44-2.36Zm-160.18,3.8c.9-.12,2,1.81,3.36,5.91,2.23,6.6,1.46,8.48-1.78,4.36-2.43-3.09-3.52-6.69-2.7-8.85C383.69,315.61,384.05,315.13,384.46,315.08ZM466.13,390c-1.7.24-9.1,8.6-11.17,12.8a35.68,35.68,0,0,1-2.91,5.18c-4.06,3.46-14.74,32.56-15.59,42.5l-.43,5,1-4a39.73,39.73,0,0,1,1.94-6,65,65,0,0,0,2.55-8.5c.87-3.57,2.38-7.62,3.35-9,1.61-2.28,9.14-17.45,10.43-21a84.64,84.64,0,0,1,6.06-9c3-4.12,5.31-7.69,5.06-7.94a.29.29,0,0,0-.27-.06Zm95,45.83,4.45,4.77C568,443.24,570,445.67,570,446s2.47,3.29,5.49,6.56,5.76,6.76,6.09,7.78c.58,1.72,4.17,7.55,8.54,13.86a10.4,10.4,0,0,1,1.88,4.62c0,1,1,3.19,2.25,4.76s2.17,3.1,2.08,3.39c-.39,1.15,1,6,1.68,6s2.3,3.84,2.11,5.23a29,29,0,0,0,1.48,5.41c1.86,5.46.39,14.92-2.85,18.4-2.31,2.48-11.21,2.73-14.51.41a26,26,0,0,0-5.47-2.64C566.13,515.54,552,503.58,552,497.15v-4.22l6.3.17c7.05.19,16.23-3.85,9.45-4.16a53.54,53.54,0,0,1-14-2.53l-5-1.66.57-6.88.58-6.87H547c-3.67,0-4.88-3.51-2.65-7.69.82-1.55,2.73-5.38,4.23-8.51s3.3-5.91,4-6.18,1.55-1.76,1.91-3.31a17.33,17.33,0,0,1,3.65-6.14l3-3.33Zm42.52,40.47c2.59.08,16.88,7.47,21.87,11.45.55.44,2.8,1.86,5,3.16,16,9.48,39.11,29.61,51,44.54,2.18,2.73,6.89,7.93,10.46,11.54a116.12,116.12,0,0,1,10,11.53c1.93,2.73,4.08,5.57,4.79,6.31a28.87,28.87,0,0,1,3.14,5,35.21,35.21,0,0,0,4.53,6.52,87.51,87.51,0,0,1,9.27,13c3.23,5.62,12.19,26,11.74,26.68-.28.45.67,3.43,2.1,6.63s3,6.9,3.55,8.22l.94,2.39,2.47-2.32c2.84-2.66,3.31-7.72,1.06-11.25A33.29,33.29,0,0,1,743,611.5c-1.19-5.88-5.3-16.41-6.82-17.47-1-.72-8.13-14.91-8.13-16.28,0-1-3.66-6.59-12.54-19.09-4.07-5.73-4-6.6,1.7-18.15,9.55-19.39,23.31-33,39.34-38.93a38.7,38.7,0,0,0,6-2.65c4.52-3.5,29.76-5.7,40.1-3.49,15.06,3.21,33.68,13.41,37.24,20.39a35.77,35.77,0,0,0,4.61,6.18,33.24,33.24,0,0,1,4.7,6.5c.8,1.65,2,3.9,2.58,5,18.94,33.79,19.64,88.32,1.61,125.5-2.54,5.24-1.73,7,2.36,5a24.76,24.76,0,0,1,7.77-1.58c7-.33,12-3.15,16.58-9.43,2.42-3.28,3.47-5.14,8-14.09,2.94-5.82,5.87-15.06,6.38-20.17a26.29,26.29,0,0,1,1.35-6.5c1.54-3.08,6.2-28.52,6.2-33.79,0-2.79,8.37-19.38,12.58-25,1.25-1.65,2.19-3.42,2.1-4s2.42-2.49,5.6-4.38l5.78-3.43,6.19,1.32c23.54,5,28.89,45,7.25,54.12C934.84,600,922,608.77,922,610.5a20.78,20.78,0,0,1-2.44,4.21,52.87,52.87,0,0,0-4.67,9.91c-1.23,3.47-2.54,6.11-2.92,5.88-.66-.41-7.35,18.52-8.3,23.52-3.24,17-5.8,20.76-12.25,17.86-17.08-7.67-38.44,4.51-51.92,29.62-12.21,22.73-14.27,26.14-18.79,31.11a41.45,41.45,0,0,1-9.94,7.83c-9.17,4.57-12.74,3-12.79-5.74a85.13,85.13,0,0,0-1.38-10.7c-6.62-36.08-33.16-73.67-66.09-93.57-23.26-14.06-65.33-17.65-91.76-7.83-17.67,6.56-31.21,15.28-40.49,26.07-2.62,3-6.23,7.16-8,9.17a19.88,19.88,0,0,0-3.9,6.16,19.13,19.13,0,0,1-2.92,5.51c-2,2.65-7,12.69-10.24,20.74-.61,1.51-1.78,2.75-2.59,2.75-1.55,0-1.91-1-5.48-15.5-1.22-5-3.53-13.27-5.13-18.5s-4.07-13.32-5.49-18a159.46,159.46,0,0,0-5.44-15c-1.58-3.57-3.89-9.2-5.12-12.5-2.44-6.53-4.91-11.32-9.76-18.94-4.45-7-4.24-7.7,2.1-7,26.63,3.1,30-26.94,7.23-64.1-3-5-3.09-6.32-.23-7.41a12.92,12.92,0,0,0,4.15-3c2.52-2.8,4.79-2.67,8.55.5,27.08,22.78,54.74,21.43,53.87-2.64-.18-4.83,0-8.59.39-8.35.67.42.39-.61-2.72-10.13-2.93-8.93-4.69-15.64-4.22-16.1a.46.46,0,0,1,.35-.08Zm-69,1.29c7.4.18,15,22.67,8.58,31.28-3.42,4.61-6.62,3.85-16.74-4-5-3.83-10.91-7.89-13.25-9-5.58-2.73-5.48-2.95,3-6.86,7-3.22,11-5.86,15.29-10a4.29,4.29,0,0,1,3.12-1.4Zm-50.46,13.57c3.26,0,6,.52,6.66,1.56.35.56,3.12,2,6.14,3.26,15.2,6.2,26.93,15,33.88,25.36s8.94,13.71,15.79,26.64a11.8,11.8,0,0,1,1.33,4,4.21,4.21,0,0,0,.9,2.5c3.09,3.26,3.21,20.79.17,23.17a4.16,4.16,0,0,1-4.57.78c-.55-.18-4.31-1.33-8.36-2.54-9-2.68-11.56-4-15.73-7.91-1.75-1.69-3.49-3.06-3.84-3.06a10.08,10.08,0,0,1-3-2.25c-1.28-1.24-4.56-4.32-7.27-6.86a85.24,85.24,0,0,1-8.84-10c-4.9-6.74-4.54-6.26-10-13.14A59,59,0,0,1,481,522.68a22.3,22.3,0,0,0-3.95-6.15,6.12,6.12,0,0,1-2-3.65,17.41,17.41,0,0,0-1.4-5.1c-2.92-6.84-4-11.9-2.93-13.61,1.19-1.89,8.09-3.06,13.53-3ZM211.79,506c-1,.1-2.82,1.37-5.35,3.8-12.94,12.48-41.36,12.26-51.08-.38-2.17-2.82-2.47.46-.41,4.5,3,5.82,10.6,10.69,19,12.1,16.33,2.76,35.81-5.71,38.58-16.78.57-2.25.32-3.33-.7-3.24ZM979,530.85c1.67.18-.4,2.93-6.36,7.29a12.73,12.73,0,0,1-7.69,2.85c-4.73,0-5.79-1.44-2.16-2.94,1.51-.62,5.64-2.67,9.18-4.54s6-2.77,7-2.66ZM935.13,609.2c2.75-.33,8.55,4.91,7.43,6.71-.82,1.33-10.48,1.41-12.53.12s1.75-6.42,5.1-6.83ZM682.78,624.92c51.08.24,91.93,38.06,107.78,102.48,4.43,18,6.09,20.66,13.44,21.37,10.35,1,19-5.86,28.09-22.27,10.53-19,25-37.27,32.75-41.41,12.22-6.52,26.55-6.37,32.1.32.72.86,1.62,1.37,2,1.13s.68.55.64,1.76c-.05,1.36.45,2.09,1.3,1.91s1.15.27.78,1.23-.09,1.43.57,1.3c1.6-.33,4,12.63,3.41,18.27-2,19-19,35.72-36.64,36-15.42.28-17.47,4.1-3.46,6.44,8.25,1.37,9.46,2.29,9.46,7.13s-1.66,5.7-5.52,3c-2.28-1.59-7.68-4.71-15.31-8.85-13.73-7.43-27,.81-44.57,27.73-4.63,7-11.61,20.13-11.61,21.72,0,.31-1.87,4.53-4.16,9.36-13.23,28-33.2,28.68-50.6,1.82-8.67-13.38-19.35-17.7-31.9-12.91-8,3.07-13.83,9.84-10.3,12,3.84,2.37-26.73,40.27-39.54,49-2.75,1.88-6.94,4.78-9.3,6.45-8.7,6.12-23.81,12.07-39.7,15.61-10,2.22-39,2.76-47.5.89-9-2-14-3.66-14-4.65,0-.46-.81-.84-1.8-.84a4.59,4.59,0,0,1-2.75-.91,49.57,49.57,0,0,0-6-3.64c-14-7.64-30.36-23.24-37.73-36-2.23-3.85-4.62-7.68-5.32-8.5-5.9-7-12.73-26.65-14.92-43-2.54-19-1.85-23,4-23,3.36,0,13.74-2.81,14.41-3.9.31-.51,3.72-2.06,7.57-3.45,21.14-7.66,21.42-7.8,36-17.22A116.35,116.35,0,0,0,555.36,733c7.35-6.46,6.81-7.6,7.22,15.15.35,19.53,1.86,30.22,4.52,31.86,2.44,1.51,2.81-.12,2.24-9.85C565.45,704,605,639.73,656.93,627.85a113.48,113.48,0,0,1,25.83-3ZM451.14,658.14c.84.06,1.71,1.67,2.53,4.86a22.83,22.83,0,0,0,3.59,6.27l3,3.78-2.73,13.22c-1.51,7.28-3.29,16.6-4,20.73s-2,10.42-3,14-3,12.35-4.45,19.5c-3,14.57-2.89,14.46-11.08,11.85-10.68-3.41-12.19-5.27-9.3-11.48a59.11,59.11,0,0,0,2.73-6.87,42.81,42.81,0,0,1,1.55-4.5c.47-1.1,2-5.83,3.46-10.5s4.35-13.45,6.48-19.5c3.61-10.22,5.76-19.1,8.25-34,.83-5,1.87-7.44,3-7.36Zm488.46,16.5c4.06-.07.21,7-8.59,13.29-3.14,2.24-10.41,3.19-15,2-15.28-4.06-15.07-6.85.61-8.26,6.92-.63,10.66-1.76,18.86-5.71a10.85,10.85,0,0,1,4.12-1.29Zm.43,18.12c2.9-.06,4.3.47,2.91,1.52-5.8,4.37-11.11,6.53-17.23,7-4,.29-7.5,1.13-8.5,2C913,707,907,703.3,907,697V693.8l9.25.66a60,60,0,0,0,17.21-.9,41.13,41.13,0,0,1,6.56-.79Zm-26.51,13.7a1.19,1.19,0,0,1,.76.39c1.26,1.27-2.32,11.87-6.6,19.57-5.38,9.67-7.38,9.14-2.77-.73a122.2,122.2,0,0,0,4.65-11.7c1.68-5.29,2.86-7.58,4-7.53Zm-470,70.61c2.28,0,7.75,2.84,5.58,2.89-1,0-.83.67.72,2.33,8.09,8.61,1.92,26.32-10.3,29.57-5.18,1.38-14.58,2.25-16.5,1.52-6.88-2.6-13-6.51-13-8.32,0-.32,4.61-.6,10.25-.61,14.75,0,24.41-6.15,23.55-14.92-.46-4.62-4.23-4.79-5.73-.26-1.25,3.8-6.39,9.26-7.86,8.36-2.21-1.37.54-8.8,4.88-13.23,2.57-2.61,3.73-4.42,2.87-4.44-2.21-.05,3.23-2.89,5.54-2.89Zm27.72,30.37c.48.09.78,1.59.78,4.06,0,4.57,0,4.61,3,4.14,2.48-.39,3-.13,3,1.51a9.82,9.82,0,0,0,1,3.88c.81,1.52.57,2.18-1.25,3.33-3,1.9-7.19,3.13-6.42,1.89.35-.57-2.49-1.2-6.94-1.54-4.14-.31-8.07-1-8.72-1.5a27.3,27.3,0,0,0-6-2.31c-7.71-2.22-7.68-3.25.25-7.29,8.34-4.25,15.08-5.72,15.08-3.29,0,2.62,2.23,6.68,3.66,6.68.92,0,1.34-1.4,1.34-4.44,0-2.45.45-4.72,1-5.06a.32.32,0,0,1,.22-.06Z"/></svg>