<svg id="svg2" xmlns="http://www.w3.org/2000/svg" viewBox="0 0 600 500"><defs><style>.cls-1{fill:#170000;}.cls-2{fill:#ffcaca;}.cls-3{fill:#fff;}.cls-4{fill:#210000;}.cls-5{fill:#320000;}.cls-6{fill:#2b0000;}.cls-7{fill:#2f0000;}</style></defs><title>pig-remix</title><g id="layer1"><g id="g3012"><g id="g3822"><g id="g3853"><g id="g3840"><g id="g3869"><g id="g3882"><path id="path3052" class="cls-1" d="M270.79,6.63c-2.16,0-2.66.29-3.21,1.28-.45.81-1.22,7.11-1.67,14-.84,12.75-1.7,20.5-3.06,26.21-1.15,4.81-1,20.81.36,31.33.66,5.15,2.38,14.5,3.86,20.79s2.7,13.1,2.7,15.06c0,4.42-2.68,9.81-7.58,15.22-4.05,4.47-3.6,4.42-13.4.37l-6.63-2.71-18.57.45c-15.64.41-19.71.79-26,2.26a172.83,172.83,0,0,0-28.48,9.57c-12,5.24-14.49,4.47-30-9.64-20.31-18.47-27.51-23.95-37.36-28.47A51.5,51.5,0,0,0,76.62,97.6c-8.36.35-9,.6-18.79,6.33-9.1,5.31-29.06,14.86-34.52,16.57a61.87,61.87,0,0,1-13.62,2.11c-4.69.26-9.78.28-11.14.83l-2,.83-1,.67C-6.06,128.8-2.56,140-2,141.36A101.29,101.29,0,0,0,5,152.06c3.19,4.47,8.28,12.65,11.36,18.22,7.65,13.86,11.44,19.24,18.06,25.31,6.07,5.56,14.95,11.46,19.23,12.88a33.91,33.91,0,0,0,8.15.9c7,0,11.42-1.93,23.6-10.32,9-6.19,12.76-8.1,17.84-8.89,2.28-.35,3.25-.16,4.23.91,1.17,1.28,1.08,2.2-1.75,13-1.67,6.4-3.61,13-4.22,14.68S99.13,229.54,97.6,239c-3,18.79-4.5,24.81-6.49,27-.71.77-5,3.2-9.61,5.42-10,4.83-12.69,7-17.77,14.31-6.89,9.91-9.89,22.75-7.79,33.44C59.29,336.29,67.57,349.36,78,354c6.54,2.89,17.29,4.14,36.85,4.14a254.91,254.91,0,0,0,31.1-1.58c15-1.68,19.57-1.54,24.61.91,7.07,3.43,7.19,4.24,2.77,16.87-4.25,12.12-6.13,20.05-6.12,25.45,0,6.34,1.95,18.7,4.44,28.47,1.17,4.57,2,8.87,1.9,9.49-2.47,15.4-3.86,25.17-3.64,25.38s4.86-.75,10.48-2,10.84-2.34,11.58-2.34,5.15,3.38,9.76,7.54c5.35,4.81,8.71,7.31,9.18,6.85s2.44-5.42,4.59-11.15,4.38-11.58,5-13a19.63,19.63,0,0,0,1.09-5.87c.11-10.11,8.31-35.93,19.52-61.53l4-9.27,10.56-4.89c13.62-6.33,13.94-6.32,18.42-3,2,1.45,7.12,4.77,11.44,7.38s8,5.1,8.15,5.57-1.81,6.41-4.44,13.18c-5.69,14.67-19.39,41.75-24.83,49.1-8.21,11.08-9.4,13-12,19.28-1.49,3.58-3.94,8.83-5.46,11.75a34.68,34.68,0,0,0-2.77,6.25c0,.65,2.87.73,10.85.46a124.24,124.24,0,0,1,12.89,0c1.38.25,3.67,2.47,7.5,7.38,5.48,7,5.05,8.66,8.45,8.66,1.9,0,3.86-2,3.86-2.41,0-1.12,9.89-13.94,13.26-17.17,1.53-1.47,7-5.09,12.09-8.06,10.44-6.08,19.39-13.16,24.69-19.43,2.12-2.53,7.17-11.14,12.52-21.47,9.95-19.2,13.72-25.22,16.24-25.83s11.55.9,12.31,2a18.45,18.45,0,0,1,1.39,3.62c.41,1.44,1.76,6,3,10.09,2,6.78,2.14,7.86,1.31,11.3-1.17,4.88-3.09,21.31-2.55,21.84.23.22,4.9-.63,10.35-1.88s10.32-2.26,10.92-2.26,4.82,3.32,9.39,7.45,8.58,7.32,8.89,7,2.71-6.32,5.32-13.33c3.71-10,5.1-14.95,6.33-22.75a141.85,141.85,0,0,1,4.3-18.15l2.69-8.28,6-1.81c8.71-2.62,10.84-2.86,12.16-1.58,3.4,3.28,7.61,24.65,8.88,45,.59,9.39,1.14,12.76,2.41,15.59a74.23,74.23,0,0,1,3.2,11.3,66.83,66.83,0,0,0,2,7.91c.4.39,4.31-2.48,13.33-9.79l7.13-5.8,6.49,1.81c3.56,1,8.62,2.33,11.28,2.93l4.88,1.06v-14c0-13.19.15-14.33,2-19.28,6.34-16.6,9.37-31.2,8.52-40.9-.27-3.09-1.57-11.52-2.91-18.67l-2.4-13,8.88-8.74c14.09-13.88,19.74-21.34,27.39-36.07a118.35,118.35,0,0,0,11.14-30.88c1.93-8.67,2.13-10.82,2.11-25.61,0-15.17-.18-16.66-2.26-24.78-1.21-4.75-3.08-11-4.15-13.86-3.22-8.71-11.35-23.52-17.62-32.15-3.25-4.48-5.9-8.53-5.9-9s2.57-3.75,5.68-7.3,6.85-8,8.3-10c2-2.74,3.41-3.73,5.83-4.37,8.25-2.16,11.07-3.31,16.31-6.7,6.85-4.08,26.77-25.9,19.74-29.83C582.4,115.89,587,130,572,131c-1.1-.35-.43-5.15-.51-11.59,0-3.82-.6-5.71-2.77-9.87a27.55,27.55,0,0,0-23.81-15c-13.35-.59-23.51,4.6-28.33,14.54-5.06,10.4-2,20.77,9.32,31A68.5,68.5,0,0,0,536,147.39c2.85,1.61,5.17,3.23,5.17,3.54a37.63,37.63,0,0,1-4.3,5.42c-4.35,5-6.69,6.36-8.37,5.12-.52-.38-3.94-3-7.58-5.8-22.53-17.53-52-30.89-80.4-36.38-15.75-3-26.64-4-47.49-4.14L372.82,115l-.58-6.32c-1.33-14.24-6.31-24.89-17.26-37.06-3.89-4.32-14.42-16.08-23.45-26.13S313.89,26.2,312.44,24.93c-3.09-2.73-21.39-12.8-28.62-15.74a36.6,36.6,0,0,0-10.27-2.41c-1.14-.09-2.05-.14-2.76-.16Z"/><path id="path3050" class="cls-2" d="M272.31,8.67c2.11-.25,8,1.68,12.75,4.3,3.38,1.86,9.64,5.16,13.91,7.3,8.75,4.4,14.51,9.45,24.69,21.54,3.3,3.93,9.1,10.48,12.89,14.61S347,67.87,351.33,72.62c8.52,9.3,10.62,12.63,13.84,22.51,1.9,5.81,2.07,7.49,2.11,18.76.05,10.8-.17,13.18-1.74,18.53-3.39,11.49-9,15.05-35.84,22.82C312.13,160.32,308,162,304.07,166l-2.7,2.71,1.61,1.73c1.78,1.89,4.43,10.07,10.41,19.73,3.77,6.1,10.42,24.17,13,34,1.49,5.79,2,26.55,1.32,39.54-.85,17.08-4.66,30.8-11.15,40.07-1.63,2.34-4.45,6.77-6.26,9.87a115.56,115.56,0,0,1-6.48,9.79c-4.74,6.14-18.85,19.12-25.06,23-3,1.89-6.81,4.54-8.52,5.88-6.71,5.22-26.35,13.23-36.92,15.06-6.49,1.12-7.54,1.15-17.48.23-12.88-1.2-23.53-5-35-12.51-5.8-3.8-6.84-5.17-4.59-5.95,6-2.08,28.91-11.9,30.15-12.95.86-.73,5.36-3.83,10-6.85,9.79-6.41,14.18-11.14,17.77-19.43,2.31-5.35,2.37-6,2-13.56-.37-8.44-2.48-15.06-4.81-15.06-2,0-2,1.24-.36,8.05,2.16,8.75,1.73,14.18-1.6,20.72a48.53,48.53,0,0,1-4.81,7.6c-6,7.07-32.07,21.33-49.38,27-9.1,3-11.46,3.4-21.41,4.14-47.22,3.53-67.48,2.74-76.62-3.16-4.8-3.1-9.48-10-13.54-20-5.7-14.08-5-23.23,2.84-36.46,4-6.73,8.53-11.57,12.74-13.63a27,27,0,0,0,4.74-3,26.43,26.43,0,0,1,6.48-3.31c4-1.44,4.76-2,6-4.82a50.68,50.68,0,0,0,2.55-8.36A66.63,66.63,0,0,1,101,249a83.85,83.85,0,0,0,2-10.47,246.57,246.57,0,0,1,6.7-32.46c3.65-13.69,3.92-18.57,1.16-21.24-1.55-1.5-2.7-1.8-6.12-1.8-5.45,0-8.33,1-14.49,5.12-26.54,17.71-29.46,18.14-46.68,6.47-7.63-5.16-11-9.37-20.69-25.53-3.7-6.2-9.13-15-12.09-19.65-6.61-10.36-10-17.4-10-20.87,0-3.12.08-3.12,11.28-3.69a65.41,65.41,0,0,0,11.73-1.58c5.53-1.6,25.56-10.41,28.55-12.58,4.32-3.12,14.09-8.58,17.26-9.64,1.85-.61,6.17-1,10.85-1,16.27.13,26.15,5.63,50,27.71,12.74,11.79,19.94,17.05,25,18.38,3.72,1,6.75.3,16.31-3.77,20.82-8.85,32-10.88,58-10.39l14.63.3,7,2.79a54.85,54.85,0,0,0,8.23,2.86c2,0,10.2-10.39,13.18-16.72,2.16-4.6,2-12.77-.37-21.16-1-3.66-2.69-10.9-3.64-16.12-2.22-12.26-2.41-32.33-.44-42.55.72-3.72,1.69-12.46,2.12-19.43s.88-12.84,1.09-13a1.13,1.13,0,0,1,.65-.31Z"/><path id="path3048" class="cls-2" d="M542.66,98.58c8.89,0,12.34,1,17,5.12,5.16,4.6,7.37,9.38,7.79,16.8.69,12.13-.91,15.9-7.06,16.57-4.2.46-4.26.32-2.48-5.35,3-9.71.53-19-5.9-22-7.88-3.71-15.87-2.71-21.78,2.71-3.49,3.21-4,6.17-1.89,11,1.88,4.35,9.58,11.08,16.82,14.61,6.36,3.09,6.63,3.09,13.11,2.78,5.31-.25,7.44-.71,10.86-2.41,13.27-2.5,17.66-16.47,28.32-18.88-5.13,17.56-26.29,29-31,29.65-9,1.87-12.52,1.72-20.39-.75-8.67-2.71-22.59-14.12-26-21.31-1.92-4.06-1.87-11.77.07-15.89a23.14,23.14,0,0,1,11.14-10.85c3.31-1.42,5.44-1.78,11.44-1.81Z"/><path id="path3046" class="cls-3" d="M541.86,110.26a12.14,12.14,0,0,1,6.19,1c3.28,1.64,6.91,6.07,7.5,9.11.65,3.34-1.59,12-3.64,13.94a5.58,5.58,0,0,1-2,1.43c-1.76,0-7.62-3.65-11.8-7.31-7.24-6.32-8.53-9.67-5.39-13.93,1.87-2.53,5.52-4,9.18-4.29Z"/><path id="path3044" class="cls-2" d="M381.41,118.47c12.59,0,37.37,1.44,45,2.63,13.2,2.07,24.36,4.54,29.5,6.63,2.56,1,9,3.66,13.84,5.27,17.33,5.78,39.88,17.3,54,29.83,4.39,3.89,7.69,5.21,8.74,4.89.8-.24,2.73-2.21,4.3-4.37s4.19-5.41,5.83-7.23c2.87-3.2,3-3.27,6.33-2.78,4.45.65,6.06,1.56,5,2.93-2.07,2.75-8.83,10.89-11.22,13.48-2.24,2.44-3.05,2.84-4.88,2.49-1.2-.23-2.18-.25-2.18-.08a15.15,15.15,0,0,0,2.84,5.13c1.78,2,3.6,5.93,5.1,8.21s3.42,5.21,5.31,7.6c4.39,5.55,11.24,19,13.84,27.64,3.65,12.11,4.77,22.37,4.81,35.93,0,19.1-3.51,36.09-11,50.91-4.21,8.32-15.87,25.33-21.05,30.58-5.6,5.67-11.68,13.32-12.45,12.57-.42-.4-1.23-3.21-1.82-6.25-1.61-8.28-1.81-9-5.1-5.57-.42,3.38-.67,2.59,3.71,24.4,3.31,16.45,3.74,19.48,3.72,28.55,0,8.35-.37,11.57-2,18.07-4.89,19.06-7.21,21.74-28.77,33.36-11.21,6-17.15,7.78-19,5.58-.47-.57-1.27-6.68-1.75-13.56s-1.24-14.3-1.67-16.49-1.1-6.95-1.53-10.62a95.48,95.48,0,0,0-4.22-16.95c-7.89-23.36-9-27.42-8-31.18-8.71-.11-8.44-.88-4.88,10.4,1.7,5.37,3.67,11,4.37,12.57s1.11,3.2.88,3.77c-1.28,3.22-27.17,9.13-45.23,10.32-19.4,1.28-42.37.52-43-1.43-.49-1.41-7-4.23-14.64-6.33-6.2-1.7-7.7-1.83-11.65-1.21-2.5.4-4.74.74-5,.76s4.51,1.93,10.49,4.22,11.14,4.39,11.44,4.67-1,2.73-2.77,5.49S351,413.13,348.06,419s-6.17,12.47-7.21,14.54c-2.66,5.25-12.13,16.41-16.9,19.88-2.19,1.6-7.46,5-11.72,7.46l-7.8,4.59-9.32-.15c-19.23-.2-34.33-3.77-35.25-8.36-.14-.71,2.93-5.88,6.85-11.52a143.5,143.5,0,0,0,8.88-14.16,57.19,57.19,0,0,1,4.44-7.68c2.31-3.24,5.8-11.13,15.88-36.23a38.76,38.76,0,0,1,3.42-6.78c1.34-1.7,1.63-1.71,4.37-.9,1.63.48,3.1.71,3.28.53.6-.58-1.51-4.77-3.13-6.18-1.15-1-2.86-1.39-6.41-1.43-4.56,0-4.35-1.32-11.94-5.8-9.36-5.52-10.94-6.5-10.64-7.76.19-.77,8-7,23-18.45,2.43-1.85,6-6.23,10.49-12.8,3.74-5.48,8.11-11.81,9.68-14.09,10.93-15.77,15-31.86,15.08-59.34,0-9.3-.38-18.06-1-22.14-1.56-10-9.53-32.45-13.91-39.39C311.3,182,307,174,307.42,172.92c.81-2,14.46-7.82,26.65-11.3,20.17-5.75,28.56-10,32.85-16.57,2.38-3.63,3.32-7,5.1-18.45.58-3.76,1.49-7.23,2-7.68s3.23-.46,7.42-.45Z"/><path id="path3042" class="cls-4" d="M205.33,192.44c-9.23.42-14.59,6.55-5.08,18.91,30.59,3.05,4.7-23.74,29.34-4.71l6.17,5.79C231.23,198.85,215.78,192,205.33,192.44Z"/><path id="path3040" class="cls-5" d="M157.51,195.14c-8.61.33-20.23,6.47-23.79,18l5.13-5.2c20.53-17.09-1,7,24.43,4.28,8.45-11.84,2.85-17.36-5.77-17Z"/><path id="path3034" class="cls-6" d="M116.75,289.51c-5.71,0-10.32,7.49-10.32,16.7s4.61,16.62,10.32,16.62,10.33-7.41,10.33-16.62S122.47,289.51,116.75,289.51Z"/><path id="path3032" class="cls-2" d="M183.54,365.57a26.77,26.77,0,0,1,4.87,2c13.24,6.49,36.29,10.09,47.34,7.38,2.76-.67,2.86.79.3,6.11-5.34,11.06-17.18,46.17-18.36,54.37-1.27,8.88-2.39,13.07-3.71,14.09a6.13,6.13,0,0,1-3.21.9c-5.25-.05-22.21-9.47-29.71-16.49-4-3.76-5-6.07-7.79-19.13-2.48-11.53-1.71-20.33,2.84-33.9,3.49-10.42,5.87-15.36,7.43-15.36Z"/><path id="path3941" class="cls-2" d="M432.18,397.88c1.69-.09,1.72.21,1.31,1.21-1.21,2.93-4.33,17.52-5.47,25.38-.64,4.47-1.55,8.67-2,9.41-1.95,3.53-10,1.62-18.65-4.44-2.78-1.95-7.19-4.88-9.76-6.56-7.57-4.94-9.38-7.26-11.21-14.23-.89-3.37-1.6-6.45-1.6-6.85s5.42-.92,13-1.21c11.62-.44,16.33-.82,32.05-2.48C430.9,398,431.61,397.91,432.18,397.88Z"/><path id="path3867" class="cls-7" d="M149.39,289.51c-5.71,0-10.33,7.49-10.33,16.7s4.62,16.62,10.33,16.62,10.32-7.41,10.32-16.62S155.1,289.51,149.39,289.51Z"/></g></g></g></g></g></g></g></svg>