<svg id="svg32705" xmlns="http://www.w3.org/2000/svg" viewBox="0 0 479 184.77"><defs><style>.cls-1{fill:#bdbdbd;}.cls-2{fill:#fff;}.cls-3{fill:#42ff42;}.cls-4{fill:#84ff84;}.cls-5{fill:#848484;}.cls-6{fill:lime;}</style></defs><title>rat-15</title><g id="g37243"><path id="path32714" d="M30.84,0c-.19.06-.38.18-.56.25a2.53,2.53,0,0,0-.78.43l0,0s0,0,0,0l0,.06v0l0,0v0s0,0,0,0V1l0,0V1a.17.17,0,0,0,0,.06.17.17,0,0,0,0,.06,8.16,8.16,0,0,0,2.28,1.35,15.37,15.37,0,0,1,5.31,4.93c2.58,4.17,2.31,11.46-1,27.91-2.56,12.74-2.26,22,1,29.34,1.83,4.14,1.92,5.24.88,11.72-1.76,10.9-.18,20,5.53,32.09,2.56,5.41,6.31,11.55,8.34,13.66,9.28,9.6,23,17,33.06,17.94,3.4.3,6.58.91,7.19,1.37l0,0,0,0v0l0,0v0l0,.06c.41,1.86-2.34,14.42-3.53,15.84l0,0,0,0-.06,0,0,0-.06,0h-.19l0,0h0l-.07,0,0,0,0,0c-.51-.53-1-2.41-1.25-5.22-.2-2.08-.74-2.91-1.78-2.66-.82.2-2,.43-2.66.53-2.37.39-4.33,2.94-5,6.47-.79,4.38-2,6.16-4.35,6.16-3,0-4.9-3.31-8.28-14.57-1.55-5.16-3.19-9.47-4-10.53l-.12-.15,0,0-.07,0h-.09c-1.79.35-2.19,4.73-.84,9.32.7,2.39,1.3,4.46,1.34,4.72v.06h0a3.53,3.53,0,0,1-1.44.22,2.24,2.24,0,0,0-.78.12l-.13.06-.12.1-.13.12a.53.53,0,0,1-.06.1c-.45.74-.05,2.28,1.22,4.5a11.77,11.77,0,0,1,1.44,4.72,4.09,4.09,0,0,1-.1,1.21.38.38,0,0,1,0,.1.32.32,0,0,1,0,.09s-.05.07-.06.1l0,0-.1.09,0,0,0,0-.06,0-.06,0-.1,0-.12,0a7.52,7.52,0,0,1-2.44-.22A16.45,16.45,0,0,1,52,160.6l-2.47-1.91-2.28,2.81L45,164.35v-2.91c0-3.4-1.85-9.83-2.94-10.56l-.06,0h-.25l-.12.06a7.55,7.55,0,0,0-2.1,2.16,6.39,6.39,0,0,1-.75.93l0,0-.09.07-.07,0,0,0H38.5l-.06,0h0l0,0,0,0a.15.15,0,0,0,0-.07c-.28-.57-.31-2.59-.31-6.87,0-4.75-.45-7.95-1.12-8.94l-.13-.16,0,0-.09-.06-.07,0h-.25l0,0h0l-.06,0,0,0-.07,0a2,2,0,0,0-.43.54c-.3.6-1.9,7.17-3.6,14.71-1.65,7.37-3.2,13.63-3.53,14.32l0,0v0h0l0,0h-.1l-.06,0-.06,0A13,13,0,0,1,25.44,165c-3.27-3.88-8.12-4.41-8.63-.94a4.78,4.78,0,0,1-.25,1.16.11.11,0,0,1,0,.06.53.53,0,0,1-.06.1l0,0,0,0,0,0,0,0h-.06l0,0h-.09a.68.68,0,0,1-.19,0l-.06,0A16.94,16.94,0,0,1,12.84,163c-4.9-4.31-6.51-4.12-7.34.82a9,9,0,0,1-1.16,3.59l0,0-.12.13,0,0-.1.06-.09,0-.06,0H3.78l-.06,0h0l0,0-.07,0a3.66,3.66,0,0,1-.93-1.94,3,3,0,0,0-.57-1.19l0,0,0,0-.12-.09-.19-.1-.06,0-.13,0H1.44a1,1,0,0,0-.25.06l-.13.07-.09.06a3.8,3.8,0,0,0-1,2.94c0,2.62,3,4.8,5.31,3.9.81-.31,2.06-2.17,2.82-4.15l1.37-3.6,3.13,3.13a16,16,0,0,0,5.71,3.75,6.26,6.26,0,0,0,1.75.28h.07l.06,0h0l.09,0,.1,0,0,0,.06,0,0,0,.07-.06.06-.1a1.34,1.34,0,0,0,.12-.24,8.55,8.55,0,0,0,.19-2.38v-3.34l3.91,4.5c2,2.32,3.36,3.52,4.34,3.53h.09l.13,0h.09l.22-.13.06,0c.79-.51,1.35-2.09,1.91-4.81.68-3.29,1.33-4.07,4-4.75,1.8-.47,3.42-1.68,3.78-2.82a3.45,3.45,0,0,1,1.13-1.87.45.45,0,0,1,.12-.06l.09,0h0l.06,0H41l.13,0h0l.09.06.1.06,0,0,0,0,0,0a.17.17,0,0,0,0,.06.67.67,0,0,1,.06.12,3.88,3.88,0,0,1,0,2.35c-1.17,5.16-1.65,7.46-1.37,8.47l.06.18s0,.05,0,.06a.73.73,0,0,0,.1.13l0,0,.09.1a2.74,2.74,0,0,0,1.53.28c1.28,0,3.57-1.23,5.1-2.69,2.59-2.49,3.06-2.59,6.68-1.5,7.35,2.2,10.11.86,10.19-5l0-2.31,1.94,2.5c3.45,4.41,5.29,6,6.91,5.93,1.92,0,6.09-3.37,6.09-4.87v0c.07-.58,1.11-1,2.41-1,1.78,0,3,1,4.62,3.81,2.54,4.51,6.53,7.19,10.85,7.19,2.4,0,3.12-.47,3.12-2a3.86,3.86,0,0,0-.75-2.31l-.09-.1,0,0-.13-.09-.09-.07,0,0,0,0A5.25,5.25,0,0,1,98,164a8.43,8.43,0,0,1,.13-1.81l0-.09v0l0,0,0,0h0l0,0h.06l0,0h0s.07,0,.09.07a0,0,0,0,1,0,0,7.15,7.15,0,0,1,.82,1c2.17,2.86,4.62,2.2,4.62-1.25a7.11,7.11,0,0,1,.28-2.44,1.14,1.14,0,0,1,.1-.19l0,0,.06-.06.06,0,0,0,.13,0h.09c.61.09,1.61,1.34,3.1,3.75,2.47,4,8.81,7.78,11.4,6.79,3-1.14,4.94-7.67,4.54-14.88-.19-3.33-.09-5.53.24-6.28l0-.06a.21.21,0,0,1,0-.07l0-.06.06,0,0,0,.07,0h.09l0,0,.06,0,.13.06c2.14,1.24,6.75,10.37,7.28,14.6.28,2.19.59,3.37,1.12,4l.07.07.06.06a1.77,1.77,0,0,0,.22.16,2.35,2.35,0,0,0,1.12.25c1.23,0,2.67,1.25,3.75,3.25,1.27,2.31,2.49,3.25,4.25,3.25,2.75,0,6.5-3.17,6.5-5.5a1.5,1.5,0,0,1,1.5-1.5,1.66,1.66,0,0,1,1.35.56l.06.09,0,.07v0a.32.32,0,0,1,0,.09v0a.32.32,0,0,1,0,.09v.13l0,.06a.15.15,0,0,1,0,.07s0,0,0,.06l0,0,0,0c1,.89,5.27.79,6.44-.38l0,0c.7-.64,2.31-.31,4.93,1,9.29,4.66,18.32,8.37,23.44,9.63,7.43,1.83,19.3,1.74,26-.19a68.09,68.09,0,0,1,9-1.94,9,9,0,0,0,5.63-2.84c1.52-1.75,2.77-2.32,4.34-1.91a2.73,2.73,0,0,0,3.06-.75c.09-.14.18-.25.25-.34l.07-.06,0,0,.06,0,0,0h0l0,0h.16l.06,0a3.39,3.39,0,0,1,.75,1.75c.74,2.94,2.82,3.76,9.63,3.78,4.08,0,5-.41,7.78-3.53,1.43-1.63,2.26-2.49,2.91-2.75l.24-.09h.32l.06,0a1.86,1.86,0,0,1,.25.1l.06,0a4.16,4.16,0,0,1,.81.68,6.24,6.24,0,0,0,2.35,1.53l.12,0h.13c.53.12,1.35,1.21,1.84,2.5,1.38,3.62,3.91,3.08,8.19-1.75,2-2.29,3-3.31,3.72-3.41h.22l.09,0h0l.07,0a0,0,0,0,0,0,0l.09.07a2.92,2.92,0,0,1,.59.75c1.37,2.26,2.57,2.2,5.69-.25,3.37-2.65,3.61-2.59,5.56,1.5a14.73,14.73,0,0,0,4.75,5.34l3,1.88-2.78.59c-4.59,1-5.88,2.23-4.34,4.09,3.11,3.75,13.33.22,20-6.9,2.86-3,5.35-3.18,8-.5,2.47,2.46,4.55,2.56,5.44.25a7.54,7.54,0,0,1,.47-1.07,1,1,0,0,1,.12-.15l0,0h.19l0,0,.07,0,0,0a0,0,0,0,0,0,0l0,0a10.3,10.3,0,0,1,.66,1.1c1.4,2.49,2.64,2.2,7.46-1.75a33.4,33.4,0,0,1,4.79-3.5h.12l0,0a.17.17,0,0,1,.06.06l0,.06a8,8,0,0,1,.4,2.88c0,1.66.6,3.24,1.35,3.53l.06,0c1.46.37,8-3,8.56-4.31v-.06l0,0v-.12a17,17,0,0,1,2.35-3.53l2.37-3,1.78,3.47c2.38,4.61,6.21,7,8.19,5.72a2.63,2.63,0,0,0,.94-1.25,2.27,2.27,0,0,1,1.84-1.5,4.08,4.08,0,0,1,2.53,1.5c2,2.36,5.57,1.73,8.6-1.47,2.69-2.86,2.87-2.89,5.53-1.31,2.3,1.35,3.33,1.42,6.53.43,6.68-2.06,8.47-4.14,9.22-10.75l.68-5.9,1.6,3.5c.89,1.92,1.85,4.17,2.12,5v.06l0,.06c.41.85,2.36,2.06,4.46,2.75,3.46,1.14,4.67,1.12,8.78-.28a30.67,30.67,0,0,1,6.91-1.62,5.25,5.25,0,0,0,3.25-1.16c.87-.86,1.79-.74,3.69.5a15.16,15.16,0,0,0,7.09,1.66c3.87,0,5-.5,7.44-3.13l2.88-3.12,1.53,3c4.24,8.21,18.39,11.82,28.4,7.28,2.18-1,4-2.22,4.22-2.85v-.09l0,0a2.54,2.54,0,0,0-.06-.69l0,0v0s0,0,0-.06l0,0a0,0,0,0,1,0,0l0,0h0l-.06,0h-.25a21.13,21.13,0,0,0-3.81,1.41c-2,.83-6.6,1.5-10.38,1.5-7.41,0-8.23-.5-15.4-9.25-1.6-1.95-3.62-3.58-4.63-3.75h-.16c-6.55,0-10.31-28.86-4.74-36.47a3,3,0,0,1,.68-.72l.16-.09a1.07,1.07,0,0,1,.19-.07c.81-.19,2,.6,4.9,2.81,3.89,3,5.83,3.7,11.07,4.19,5.72.54,6.7.32,10.34-2.09,2.22-1.47,4.56-3.78,5.19-5.16,2.72-6,0-14.08-6.22-18.5l-3.57-2.53,4.5-5.71c5.27-6.71,6.44-9.37,6.44-14.79,0-10.5-10.27-18.11-20.09-14.87-5.46,1.8-10.62,7.27-11.44,12.09-.63,3.74-.83,3.91-4.44,3.91a73.37,73.37,0,0,0-8.25.59c-2.63.37-3.75.47-4.34-.12l0,0a4.86,4.86,0,0,1-.72-2.1c-1.15-5.46-6.85-12.58-11.37-14.22-3.82-1.37-4.72-1.34-10.19.32-5.73,1.73-10.47,5.1-12.66,9a3.56,3.56,0,0,1-.5.71l-.06.07a35541582989.61,35541582989.61,0,0,0-.06.06l-.07,0a0,0,0,0,1,0,0l-.09,0h-.06l0,0a.06.06,0,0,1-.06,0l-.06,0h-.06l-.06,0h0l-.06,0A10.81,10.81,0,0,1,386,69.26c-3.69-5.62-6.65-7.28-15.22-8.54-9-1.31-12-.52-17.84,4.79-5.62,5.07-7.48,10.21-6.31,17.28l1,5.81-6-.13c-8.28-.15-13.31,2.44-16.34,8.38-3.65,7.16-1.51,14.43,5.72,19.43,4.2,2.91,7.17,3.07,17.81,1l3.25-.65L350.82,120c-1.56,4.5-8.32,14.26-10.54,15.28l-.06,0c-1.16.45-2.45-.15-3.94-1.87-2.8-3.26-5.78-3.3-7.9-.06-1.31,2-1.54,3.86-1,8.81l.65,6.28-4.06,1.78c-4.68,2.07-7.5,1.78-18.94-2-9.19-3.07-20-8.67-23.06-11.94l-2.31-2.4,5.93,0c14.33,0,26.76-9.31,31.91-23.9,3-8.53-2.07-16.81-10.91-17.81L302,91.57V86.82a21.28,21.28,0,0,0-2.84-10.19c-2.69-5.11-2.77-5.55-1.34-8.56,3-6.28-2.05-14.24-9-14.22a12.06,12.06,0,0,0-5.35,2c-2.69,1.81-4,1.95-12.56,1.38-9.3-.63-9.62-.59-12.69,2l-3.12,2.65-1.94-4.28c-2.49-5.55-4.65-7.41-11.66-9.87-10.28-3.62-18.76-.58-23.34,8.31-3.33,6.48-3.81,12.24-1.69,21.25.9,3.83,1.43,7.24,1.25,8v.06a0,0,0,0,1,0,0v0a0,0,0,0,1,0,0h0c-.45.26-2.29,0-4.22-.65-2.27-.75-7.27-1.07-13.06-.81s-8,.29-8.88-.22l-.06,0s0,0,0,0a1.09,1.09,0,0,1-.19-.18,1.15,1.15,0,0,1-.12-.25,2.59,2.59,0,0,1-.1-.78c0-3.1-4.62-6.66-8.62-6.66a14.28,14.28,0,0,1-5.5-1.09C174,73.19,169,74.65,165.82,78c-2.4,2.56-3,2.79-5,1.75-1.61-.86-6.07-1-16-.47-7.83.39-12.49.35-13.6-.1a.45.45,0,0,1-.12-.06l0,0,0,0,0,0V79c0-1.38,5.2-5,9.19-6.34,5.26-1.8,7.42-3.58,9.84-8.16,3.44-6.48.94-12.63-5.78-14.28a11.74,11.74,0,0,1-4.9-3c-1.93-2-3.06-2.29-10.5-2.25-11.15.07-12.23.74-11.63,7a13.69,13.69,0,0,1-.09,4.75.21.21,0,0,0,0,.07l0,0,0,0H117v0h-.19l-.06,0h0l-.06,0h0c-1.63.79-2.8,6.59-2.22,11.69.49,4.4.27,6.27-.94,8-1.94,2.77-2.94,2.81-6.19.25-3.4-2.68-12.41-2.75-17.56-.13-1.84.94-3,1.31-3.44,1.13l-.06,0,0,0-.07,0v0l0,0,0,0v0a.17.17,0,0,0,0-.06v-.16c0-2-5.9-10.25-7.87-11l-.07,0h0l-.06,0h0a2,2,0,0,1-.31-.19,1.46,1.46,0,0,1-.19-.16c-1-.91-2-3.19-3-6.87-2.15-7.92-4.85-10.81-10.94-11.72-5.93-.89-10.32,1.13-15.12,6.88-1.89,2.25-2.95,3.35-3.6,3.59h0l-.12,0h-.22l-.06,0h0l-.06,0,0,0,0,0-.09-.1,0,0L44,57.54a4.5,4.5,0,0,1-.22-.44c-1.25-3.16-.87-14.7.78-24.34,2.2-12.8,1.5-20.87-2.28-26.25C39.63,2.69,34.79-.14,31.56,0h-.72Zm29,54.28H61a6.39,6.39,0,0,1,4.16,1.47,9.63,9.63,0,0,1,3.09,4A2.37,2.37,0,0,1,68.31,61s0,.07,0,.09a1388376136521.09,1388376136521.09,0,0,0-.06.12l0,.07-.1.12a0,0,0,0,1,0,0,4.51,4.51,0,0,1-2.28.94c-3.22.71-11,5.63-11.75,7.31a.36.36,0,0,1,0,.07V70a1.29,1.29,0,0,1-.06.21l-.06.13-.07.09a.74.74,0,0,1-.12.13l-.1.06c-.78.46-2.55,0-3.56-1.25s-.78-2.35.75-5.75c2.38-5.3,5.71-8.68,9.06-9.34ZM46.59,79.41h.16a7.2,7.2,0,0,1,1.66.16c1.75.33,2.84,1.5,3.65,4,1.6,4.84,6.36,9.95,10.57,11.34L66.16,96l-2.85,1.75a39.12,39.12,0,0,0-6.56,5.88L53,107.78,51.59,105c-2.59-5-6.9-22.73-6.15-25.09v0l0,0,0-.06a.53.53,0,0,1,.13-.13,2.21,2.21,0,0,1,.87-.25h.06l0,0Zm339.78,6.47,1.18,2.72c1.5,3.44,8.19,9.78,11.29,10.71l2.34.72-3.06,2.16c-3.52,2.49-8.16,12.39-8.16,17.44,0,7.21,5,12.21,12.22,12.18,8.43,0,15.3-3.93,17.91-10.21a8.56,8.56,0,0,1,1.06-2.16l0,0,.06,0,0,0h.07l0,0h0l0,0h0l.06,0,0,0,.1.12a5.57,5.57,0,0,1,.44.91c2.19,5.59-.27,22.22-4.6,30.87-2.42,4.85-8.2,11.83-10.22,12.47l-.06,0h-.34c-1.74-.37-5.73-6.51-9.91-15.34-2.21-4.67-3.74-7.28-4.62-7.84l-.13-.06-.06,0h-.22l-.06,0-.06,0,0,0c-1.25,1.26-1.24,4.44,0,10.22a26,26,0,0,1,0,10c-1.52,8.48-5.65,10.35-11,5-3.6-3.6-4.51-3.72-5.41-.75-1,3.16-4.45,6.75-6.59,6.75-1.76,0-2.48-1.58-3.1-6.94a4.5,4.5,0,0,0-.78-2.28,1.14,1.14,0,0,0-.19-.19l0,0a0,0,0,0,0,0,0l0,0-.06,0-.07,0-.06,0-.06,0h-.09l-.07,0h-.12l-.06,0H364l-.06,0a2.14,2.14,0,0,0-.22.1,1.74,1.74,0,0,0-.22.18,4.48,4.48,0,0,0-.94,2,48.14,48.14,0,0,1-1.71,5.57,6.36,6.36,0,0,1-1.72,2.65.64.64,0,0,1-.16.06h-.15c-1.5-.22-3.94-6-4.5-10.78-.63-5.28,1.12-9.17,7.68-17.18s8.72-14.14,5.41-15.41c-2.8-1.07-6.25.5-9,4.06L355.77,137l-1.93-2.06a6.49,6.49,0,0,0-3-2.06.67.67,0,0,1-.22,0l-.13,0-.06,0,0,0,0,0,0,0,0,0v-.16l0-.12a2.9,2.9,0,0,1,.56-.88,43.43,43.43,0,0,0,3.44-7.06l2.31-5.66,4.93,3.91c10.23,8.09,21.06,5.86,26.82-5.53,3.48-6.9.54-16.93-5.85-20l-3.37-1.63,3.62-4.81,3.6-4.84Zm-258.22,12h.56c.24,0,.48,0,.69,0,4.72,0,13.71,3.46,17.09,6.59l2.78,2.56-6,2.85c-8.05,3.83-12,7.39-13.25,11.81-1.43,5.16-1.36,5.63,1.5,9,1.94,2.31,3.66,3.17,7.25,3.62,10.12,1.29,11.59,1.75,14.35,4.5a14.52,14.52,0,0,1,2.81,3.57l0,.06v.16l0,0a.17.17,0,0,0,0,.06l0,0,0,0-.16.1c-1.14.58-5.1.76-8.69.28-5.57-.75-24-5.68-25.47-6.78l0,0c-2.7-2.91-4.53-3.73-5.87-2.62l-.22.16c-1.13.66-3.67.6-9.28-.19-7.6-1.08-8.23-1.34-8.72-3.75-.29-1.43-1.79-6-3.34-10.31l-2.85-7.75h5.44c7.15,0,11.67-2,13.25-5.78,1-2.33,2.09-3.2,4.87-3.72a33.11,33.11,0,0,0,7.38-2.6,20.7,20.7,0,0,1,6-1.9Zm-43.5,14h.28l.07,0,.06,0,0,0c1.63,1.18,6.15,10.8,6.91,14.94a8.27,8.27,0,0,1,.15,3.43l0,.1-.06.12,0,0,0,0,0,0,0,0h0l0,0h0l0,0h-.22a114.29,114.29,0,0,1-15.44-3.91l-3.31-1.21,3-1.82c3.54-2.15,8.19-8,8.19-10.31a2.54,2.54,0,0,1,.28-1.25.47.47,0,0,1,.06-.09,1.21,1.21,0,0,1,.16-.16l0,0a0,0,0,0,1,0,0l.06,0,0,0Zm340.12,2.28h5.66c2.71,0,4.13.06,4.75.37l.09.07.13.09,0,0a.17.17,0,0,1,0,.06l0,0a.15.15,0,0,1,0,.07.53.53,0,0,1,0,.12.06.06,0,0,1,0,.06.17.17,0,0,1,0,.1v0a.06.06,0,0,1,0,.06,1.86,1.86,0,0,1-.15.5C434,118.85,432,129.4,432,133.35c0,6.13,2.42,15.94,5.32,21.75,1.76,3.54,2.28,4.77,1.81,5.62a3.17,3.17,0,0,1-.88.88,6.16,6.16,0,0,1-9.62-3.69c-.76-3.78-3-4-5.28-.53a6.7,6.7,0,0,1-1.66,1.9l-.09.07-.07,0-.06,0h-.09l0,0h-.06l-.07,0h0l-.06,0,0,0h0l0-.07,0,0a92196852796.29,92196852796.29,0,0,0-.06-.12s0-.07,0-.1c-.27-1,.24-3.58,1.66-7.09,4.35-10.79,5.22-21.12,2.84-34.22Zm-61.62,20.72h.16l0,0h0l0,0v0l0,0V135c0,.58-1.3,2.57-3,4.72a11.64,11.64,0,0,1-3.19,3.16s0,0,0,0h-.12l0,0,0,0,0,0v-.16C357.08,141.12,361.89,135.11,363.15,134.85ZM98.21,143h.1a4.08,4.08,0,0,1,1,.13l10.15,2.18c4.4.95,8.52,1.88,9.16,2.07h0l.06,0,.07,0,.12.09,0,0,.06.06c1.54,1.72,2.24,10.77,1,14.62s-2.29,4.23-5.47,2.28a15.78,15.78,0,0,1-6.65-8.68c-1.09-3.27-2.08-5.19-3-5.72l-.19-.1-.06,0h-.13l-.06,0h-.16l-.06,0h-.09l-.07,0-.09,0-.06,0c-.72.38-1.44,1.67-2.09,3.87l-1.22,4.16-.94-2.91c-.91-2.83-2-4.53-3-4.87h0l-.13,0h0l-.06,0h-.12a1.24,1.24,0,0,0-.57.19l-.22.1h-.15l-.06,0,0,0a.17.17,0,0,0,0-.06l0-.09s0-.07,0-.1a3.51,3.51,0,0,1,.19-1.28c.33-1.17.89-3.07,1.22-4.22s.74-1.61,1.53-1.72h0l.06,0Zm159.28,3.57h.44a24.5,24.5,0,0,1,5.38.74c3.5.7,11.59,3.88,18.65,7.35,10.91,5.35,15,7,25.81,10.06l2.32.66-2.35,3.47c-1.29,1.91-3,3.59-3.84,3.75l-.06,0h-.16l-.13,0c-1-.23-2.87-1.8-4.46-3.79-1.78-2.21-2.79-3.19-3.6-3.31h-.25l-.15,0h0l-.09,0h0a1.88,1.88,0,0,0-.53.34,5.32,5.32,0,0,0-1.41,3.66,5.09,5.09,0,0,1-.18,1.68l0,.06,0,0,0,0,0,0h0l0,0h-.19l-.06,0-.16-.06a5.07,5.07,0,0,1-.72-.5,4.17,4.17,0,0,1-1.5-2.54,8.52,8.52,0,0,0-1.94-3.62l-1.9-2.34-3,2.22-3,2.21.56-3.47a7.28,7.28,0,0,0,0-3.31l-.06-.09,0,0,0,0h-.15c-.65.21-3.78,2.61-7.16,5.5l-6.43,5.5-3-2.75a24.93,24.93,0,0,1-4.88-7c-1.07-2.42-2.05-3.85-2.84-4.25l-.07,0-.25-.06h0l-.06,0h-.09l-.07,0h-.09l-.06,0-.06,0-.07,0-.06,0a0,0,0,0,0,0,0c-.73.58-1.16,2.54-1.16,5.84,0,7.48-1.42,9.1-8,9.1-5.19,0-5.75-.45-7.69-6-1.18-3.37-1.08-3.61,3.5-8.66,2.47-2.72,4.93-5,5.63-5.28h.09a27.48,27.48,0,0,0,5.32-3c2.19-1.46,3.28-2.22,4.68-2.4Zm-125.87,3.24h.19a21.38,21.38,0,0,1,2.68.35c2.2.36,5.63,1.12,7.66,1.69,3.52,1,3.71,1.27,4.34,6.37.5,4,.28,6.12-.94,8.47-2.35,4.55-4.07,3.93-5.68-2.09-.67-2.49-1.23-3.93-1.91-4.66l-.15-.16a2,2,0,0,0-1.29-.47c-1.36,0-2.17-1-2.81-3.5a16.28,16.28,0,0,0-2.06-4.9,3.05,3.05,0,0,1-.44-.63l0-.06v-.15l0,0v0l0,0,0,0h0l0,0h0l.18-.06h0l0,0Zm18.53,5h2.66c3.43,0,4.87,1,6,4,.72,2,.47,2.86-1.13,4.25-3.14,2.72-4.18,2.13-5.91-3.25Zm198.87,1h.16l0,0a.17.17,0,0,1,0,.06v0a11.49,11.49,0,0,1-.25,3.75c-.82,4.51-4.42,10.71-7,12.09a3.13,3.13,0,0,1-1,.38h-.31l-.09,0,0,0h0l-.06,0a0,0,0,0,0,0,0l0,0,0,0,0,0,0,0a5.15,5.15,0,0,1-.72-2.13c-.85-4.22-4.88-3.89-10.88.91a3.71,3.71,0,0,1-1.19.72l-.12,0h0l-.06,0h-.19l-.06,0a1.14,1.14,0,0,1-.25-.06,5.86,5.86,0,0,1-1.82-1.69l-2-2.37-2.31,2.81a13.37,13.37,0,0,1-1.81,2,1,1,0,0,1-.19.12l-.12.07-.07,0h-.37l-.06,0-.13-.07-.12-.06a7.46,7.46,0,0,1-1.19-1.15,6.65,6.65,0,0,1-1.16-1.54,1.31,1.31,0,0,1-.09-.34v-.25s0-.09,0-.13v0a.67.67,0,0,0,.06-.12,7.48,7.48,0,0,1,1.19-1.59c1.47-1.7,3.8-2.25,13.28-3.19,11.11-1.11,11.61-1.27,15-4.6a28.78,28.78,0,0,1,4-3.4l0,0ZM93.37,157.69h.13s0,0,0,0l0,0,0,0a17,17,0,0,1,.53,4.32c.23,3.58.3,5.11-.25,5.43h0l-.06,0h-.31a7.88,7.88,0,0,1-2-.94c-3.81-2.16-4.48-4.33-1.53-5.1a5,5,0,0,0,2.9-2.84,4.56,4.56,0,0,1,.41-.91l0,0,0,0,0,0Zm203.31,16.16h.25l.16,0a3.8,3.8,0,0,1,2.37,2.75,2.09,2.09,0,0,1,0,.25v0s0,0,0,.06a1.14,1.14,0,0,1-.09.16l0,0a2,2,0,0,1-2.35.5,2.75,2.75,0,0,1-.28-.19,2,2,0,0,1-.69-1.62,3.1,3.1,0,0,1,.47-1.82l.09-.09,0,0,.06,0Z"/><path id="path32784" class="cls-1" d="M218.38,171.48c7-3.23,7.8-3.92,9.61-8.16,1.56-3.63,2.38-4.5,3.8-4s4-1.52,9.76-7c10-9.56,12.28-10.77,19-10.21,4,.33,9.05,2.32,21.59,8.55,14.81,7.36,17,8.18,24.06,8.81,5.62.5,8.15.35,9.25-.57,2-1.65,1.93-3-.16-3-2.49,0-7.56-1.75-19.82-6.86-11.56-4.81-19.06-10.41-22.23-16.61-2.15-4.2-3-4.53-9.47-3.85-5.46.57-5.77.48-6.92-2-.66-1.45-1.82-2.64-2.58-2.64-2.07,0-8.35-3.58-12.28-7-2.88-2.51-3.48-3.71-3.48-7,0-2.19-.47-4-1.06-4a20.5,20.5,0,0,1-4.95-2,17.51,17.51,0,0,0-4-1.75c-.07.13-.8,2-1.61,4.23l-1.46,4-7,.77c-5.86.65-7.14.52-8.14-.85-.65-.89-1.69-1.31-2.3-.93-2,1.25-5.9-2.31-6.6-6.06-.37-2-1.27-3.82-2-4.1s-3.85.23-6.92,1.13c-7.07,2-14.79,9.11-16.39,15-.59,2.17-.88,4.14-.65,4.37s1.87-.08,3.63-.69c4.58-1.6,14.19-1.38,20.55.47,7.18,2.08,17.09,9.6,20.27,15.37,2.94,5.33,3.22,12,.72,16.81-2.09,4-9.08,9.23-12.29,9.23-3.65,0-2.83-2.72,1.5-4.92,13.24-6.76,9.43-22.33-7.56-30.95-5.51-2.79-17.79-3.2-24.29-.81s-14.47,2.22-17-.32-2.46-3.23-.41-7.54c1.68-3.55,9.25-9.81,16.07-13.29,3.82-2,9.34-7.33,9.34-9.11,0-.44-1.84-1.09-4.08-1.45-5.08-.81-4.76-2.91.55-3.61,5-.65,6.47-2.92,4.19-6.39-3.08-4.7-8.54-2.72-10.05,3.64-.37,1.59-1.33,2.75-2.26,2.75-1.33,0-1.49-.72-.94-4.2a15.62,15.62,0,0,1,1.75-5.5c.85-1,.4-1.3-2.06-1.3-4.36,0-5.93,3.41-3.76,8.13,2.85,6.22,2.6,7.82-2,12.92-2.07,2.29-9.83,7.74-17.86,12.55-20.27,12.13-21.48,15.64-6.34,18.49C156,132.34,157.77,134,160.06,146c3.37,17.57,12.75,26.33,30.93,28.91,10.59,1.5,19,.46,27.39-3.4Zm121.89-13.13c3.87-1.64,5-9.15,2.19-14.57-2.06-4-3.29-3.71-3.66.79-.24,2.82-.81,3.84-2.31,4.11a4.6,4.6,0,0,0-2.8,1.76,2.66,2.66,0,0,1-1.87,1.39c-.89,0-8.83,7.44-8.83,8.27,0,.55,15.57-1,17.28-1.75ZM352,146c0-5.44-2-10.56-3.46-9.06-1.15,1.14-1.79,7.71-1.12,11.31.5,2.64,1.18,3.56,2.62,3.56C351.75,151.83,352,151.12,352,146Zm-17.28-4.71c.22-3.91-1.22-6.91-2.84-5.91-1,.63-1.19,6.48-.26,8.89C332.68,147.08,334.48,145.35,334.71,141.31Zm-65.22-18.14c3.06-.35,5.91-1.4,7.35-2.71,2.83-2.57,6.15-8.8,6.15-11.53,0-3.39,3.7-8.39,10.06-13.6,5.82-4.76,6.08-5.16,5.53-8.59-.72-4.56-4.9-14.09-6.91-15.76-1-.83-2.78-1-5.22-.57-4.14.77-5.42-.33-5.45-4.7,0-3.22-3.34-4.84-10.54-5.14-7-.29-10.57,1.5-13.27,6.59-1.25,2.35-5.33,7.77-9.08,12-8.22,9.36-9.74,13.86-7.52,22.35a43.36,43.36,0,0,1,1.4,7.83c0,1.35.46,2.45,1,2.45s2.63,1.59,4.57,3.54,4.9,3.81,6.56,4.14a5.74,5.74,0,0,1,4.12,3c.89,2,1.61,2.32,3.66,1.82,1.41-.34,4.81-.88,7.56-1.2Z"/><path id="path32748" d="M259.65,105.84a19.36,19.36,0,0,1-3.09-4.79c-.69-2.18,1.31-9.55,4.89-18,2.84-6.71,2.78-11-.17-14.37-2-2.33-1-3.57,2.66-3,2.3.34,3.05,1,3.07,2.59A9.62,9.62,0,0,0,269,72.83c1.64,2.14,2.67,2.48,7,2.35,4.63-.14,5.06,0,5.06,2.12,0,4.32,6.34,8.88,11.5,8.27,1.53-.18,2,.35,2,2.26s-.49,2.46-1.95,2.33c-3.13-.27-6.86,2.16-13.63,8.88C268,109.94,264.21,111.26,259.65,105.84Z"/><path id="path32746" class="cls-2" d="M279,83.91c0-1.26-.35-1.17-1.58.42a34.83,34.83,0,0,0-2.6,4c-.89,1.68-.64,1.61,1.57-.42C277.8,86.58,279,84.78,279,83.91Z"/><path id="path32744" class="cls-2" d="M272.54,84.37c2.51-4.66,1.25-5.56-1.43-1-2.36,4-2.5,4.48-1.28,4.48C270.29,87.83,271.51,86.28,272.54,84.37Z"/><path id="path32742" class="cls-3" d="M378.8,122.43c3.41-1.77,7.19-8.37,7.19-12.59,0-2.32-.95-4.15-3.4-6.61-3.22-3.22-3.77-3.4-10.42-3.4-4.64,0-7.15-.41-7.42-1.22s-.67-.23-1,1c-.49,1.86.09,2.52,3.57,4.09,4.92,2.21,9.66,6.42,9.66,8.59,0,2.34-2.15,1.87-6-1.3-8.45-6.91-12.68-6.87-13.46.13-.2,1.85,6.64,9.13,10.68,11.37a11.61,11.61,0,0,0,10.61,0ZM351,111.84c3.35-1.62,4.53-2.78,4.5-4.36-.12-4.86-3.91-6.16-11.85-4.07-2.81.74-5.29,1.16-5.52.93-1.26-1.27,1.28-3.5,5.63-4.94s5.36-1.5,9.32-.12a41.58,41.58,0,0,0,5.06,1.54c1.56,0,6.82-16.11,6.82-20.95,0-5.9,2.14-7,3.89-1.91.85,2.43.74,4.51-.48,9.23a55.05,55.05,0,0,1-2.53,7.87c-.53,1-.77,1.77-.54,1.77.75,0,7.1-3,10.16-4.84,3.48-2.07,8.44-10.45,8.47-14.32.06-6.28-6.63-12-15.81-13.43-5-.8-13.72,2.81-15.58,6.49-3.37,6.66-2.65,13.42,2.08,19.7,4.44,5.88,2.9,6.62-6.92,3.32-6.07-2-6.33-2-12.07-.32-7.8,2.36-9.31,4.59-7.67,11.39,1.76,7.37,5.67,10.28,13,9.68A33.47,33.47,0,0,0,351,111.84Z"/><path id="path32752" class="cls-4" d="M411.14,125.11A18.92,18.92,0,0,0,419,110.62c0-2.84-.2-3-3-2.45-3.18.64-5.46,2.55-8.31,6.93-3.45,5.32-5,2.52-2.06-3.68,1.28-2.69,2.88-4,7-5.65,2.94-1.2,5.34-2.36,5.34-2.6,0-2.12-4.92-8.91-9.9-13.66-6.38-6.09-7.09-7.36-4.59-8.32,1.36-.52,7.7,3.9,12.65,8.82,1.59,1.57,1.76,1.48,2.77-1.4a34.06,34.06,0,0,0,1.07-8.8c0-5.5-.18-5.88-4.48-9.85-3.82-3.52-5.12-4.13-8.85-4.13-5.63,0-10.29,3.11-13.35,8.91-3.2,6.07-3,10.43.62,15,2.72,3.44,5.15,4.86,13.81,8.1,1.79.67,3.25,1.74,3.25,2.38s-2.48,2.39-5.51,3.88c-5.71,2.79-8.72,6.4-10.42,12.46-1.14,4.08.36,10,2.71,10.57a16.1,16.1,0,0,0,13.37-2Zm27.09-18.22c5.33-3.38,7.27-6,8.19-11.28,1.26-7.22-4.89-13.76-13-13.77-5.32,0-8.15,2.14-9.61,7.28-.65,2.32-1.82,4.74-2.59,5.37-1.15,1-1.18,1.52-.13,3.2l1.28,2,3.27-2a11.32,11.32,0,0,1,6-1.7c3.37.4,4.42,2.82,1.23,2.82-4.29,0-10.61,7.94-8.22,10.33C426.43,110.94,433.79,109.71,438.23,106.89Z"/><path id="path32738" class="cls-5" d="M171,118.41a18.32,18.32,0,0,1,.65-5.11c.54-1.42.34-1.53-1.25-.67-3.41,1.86-6.4,5.24-6.4,7.24,0,1.57.69,2,3.5,2C170.81,121.83,171,121.65,171,118.41ZM216,101c0-3.58.32-4.27,1.77-4s1.87,1.63,2.25,5.82c.45,5,.61,5.29,1.75,3.31,1.51-2.65,1.63-8.74.21-11.38-2.69-5-19.62-8.7-28.9-6.25l-3.44.91,6.21,2.26c3.41,1.25,7.21,2.12,8.44,2,2.09-.29,2.21,0,1.91,4.94-.2,3.27.08,5.25.75,5.25S208,103,208,101.9a16.68,16.68,0,0,1,1.07-4.75c1.05-2.76,1.11-2.77,2.58-.82a7.9,7.9,0,0,1,1,5.66c-.26,2,0,4.14.62,4.74,1.62,1.62,2.66-.62,2.68-5.72Zm78,27.14c8.95-3.32,14.44-8.3,19-17.25,2.58-5.06,2.21-9.19-1.15-12.77-1.76-1.88-3.21-2.3-7.84-2.3s-6.15.44-8.44,2.56c-3.47,3.21-2.72,4.11,1.57,1.89,3.1-1.61,3.46-1.6,6.59.08,1.82,1,3.31,2.56,3.31,3.5a31.18,31.18,0,0,0,.6,4.72c.56,2.79.09,3.37-6.89,8.62-9.37,7-11.21,7.43-8.23,1.66a8.9,8.9,0,0,1,5-4c4.1-1.36,6.52-4.37,6.52-8.12s-3.32-4.37-8.5-1.34c-2.3,1.35-4.86,2.45-5.7,2.45s-2.24,1.92-3.28,4.75c-2.38,6.44-6.06,11.72-9.16,13.13-2.11,1-2.35,1.43-1.34,2.65,1.7,2,12.19,1.92,17.94-.21Zm-138.18-25C161.54,99.51,167,94,167,91.84c0-2.65-2.87-7.74-4.78-8.47-1-.37-8.72-.35-17.27,0-14.06.63-15.72.53-17.3-1.06-3.72-3.71-1.87-6.32,8.85-12.5,7.22-4.17,10.27-6.51,11-8.44,1-2.88.14-5.15-2.75-7-2.6-1.64-4.74,1.88-3.36,5.54,1.19,3.16.67,4.21-1.65,3.31s-3.53-5.39-2.36-9.2.26-5.22-3.93-5.53c-2.64-.19-2.9.08-2.81,2.79.06,1.65.29,4.13.5,5.5.73,4.61-2.48,2.88-4.1-2.2-1.94-6.07-3.07-7.2-5.45-5.45-1.8,1.31-1.8,1.43,0,4.5,1,1.73,2.16,3.15,2.54,3.15s1,.74,1.3,1.63c.51,1.34.12,1.53-2.25,1.06-4.19-.84-5.16.82-5.16,8.87s-2,12.19-8,16.22c-4,2.67-6.27,7.19-5.38,10.75.56,2.23,1.12,2.47,5.77,2.45A24.45,24.45,0,0,0,120,95.65c9-4.29,22.11-1.82,29.14,5.53a48.17,48.17,0,0,0,3.64,3.58,15.63,15.63,0,0,0,3-1.63Zm79.58-5.66c-.53-3.89,0-5.44,4.52-14.2,4.86-9.35,6-13.92,4.51-17.85A2.7,2.7,0,0,0,242,63.83a7.9,7.9,0,0,1-4-2c-5.12-4.44-7.85-3.63-10,3-1.38,4.18-4,5.49-4,2,0-1.1,1-4,2.25-6.45,2.37-4.68,7.14-7.14,8.76-4.51a1.38,1.38,0,0,0,1.85.56c1.23-.76,6.18,1.56,8,3.75a31,31,0,0,1,3,6.61l1.81,5.15,1.56-3.21c1.62-3.35,1.23-5.31-2.12-10.68-1.93-3.1-8.76-7-13.64-7.73-3.42-.53-4.71-.15-8.88,2.63-8.24,5.49-9.4,11.76-5.11,27.74,2.65,9.9,6.91,17.22,11.47,19.7,1.39.75,2.62,1.39,2.75,1.41a20.48,20.48,0,0,0-.37-4.32Zm-42.93-2.74c-.87-1.41-2.43-1-2.43.57,0,.89.58,1.24,1.49.89s1.25-1,.94-1.46Z"/><path id="path32736" class="cls-6" d="M465.85,119.47c5.15-5.47,3.42-13.37-3.56-16.29a58.79,58.79,0,0,1-7.3-3.85L451.24,97l-1,2.17c-.84,1.87-.24,2.86,4.37,7.22,2.94,2.78,5.35,5.83,5.35,6.77,0,2.65-3.48,2-5.05-.87-1.37-2.58-5.67-5.42-8.15-5.41-.72,0-2,1.26-2.89,2.8-1.4,2.46-1.42,3-.13,5,.8,1.21,2.06,2.2,2.78,2.2a4.21,4.21,0,0,1,2.63,1.84c1.74,2.46,3.36,3,9.38,3.08,4.1.07,5.5-.37,7.29-2.28Zm-5.18-27.89C465.78,86.29,468,82,468,77.32c0-7.13-4.08-11.43-10.87-11.46-3.77,0-4.82.48-7.75,3.67-1.86,2-3.45,4.51-3.53,5.5s-.2,2.35-.25,3c-.19,2.33,6.12,1.71,8.51-.84,1.23-1.3,2.61-2.38,3.06-2.38,1.51,0,.86,2.34-1.28,4.62A11,11,0,0,0,453.47,86c-.17,2.37-.41,4.76-.55,5.31-.4,1.62,1.18,4.5,2.47,4.5.65,0,3-1.91,5.28-4.25Z"/><path id="path32740" class="cls-3" d="M74.5,120.06a38.46,38.46,0,0,0,3.75-3.8c2-2.43,4.14-12.42,2.9-13.67-1.61-1.6-5.73,1.35-8.09,5.8-2.18,4.11-5.07,6-5.07,3.28,0-2.51,5.23-9.91,8-11.36l3-1.54-2-3.72a49.49,49.49,0,0,0-6-8.14c-2.22-2.43-4-4.52-4-4.64a4.14,4.14,0,0,1,1.52-.81c.91-.35,3,.8,5.35,2.88,3.19,2.89,4.91,5,9.81,12.38.15.22,1.06-.52,2-1.63,2.18-2.49,8.29-4.64,9.56-3.37.86.86-2.32,3.15-6.5,4.69-2,.75-3.15,3.7-2.35,6.2,1.37,4.32,12.72,7.54,17.57,5,3.38-1.78,3.9-5.5.84-5.94a6.31,6.31,0,0,1-3.78-3c-1.27-2.27-1.31-3.43-.27-7.3a27,27,0,0,1,3.47-7.64c2.22-3,2.23-3,.24-4.52-2.27-1.69-6.18-1.34-11.88,1-2.87,1.19-4.15,2.55-5.36,5.63-2.29,5.81-4.32,4.89-4.75-2.14-.33-5.56-4.23-13.88-6.5-13.88-.53,0-1.62,1.27-2.42,2.83-1.92,3.71-8.93,8.28-13.7,8.92l-3.81.51,2,3.85c2.12,4.15,6.28,6.89,10.46,6.89,2.9,0,6.49,1.61,6.49,2.91,0,.47-2.37,1.85-5.25,3.07C64,101.25,57.1,108.07,57,111.41c0,1.15,1.69,4,3.8,6.25,3.26,3.54,4.44,4.17,7.75,4.15a10.42,10.42,0,0,0,5.92-1.75ZM65,69.93c1.91-1.59,3.19-3.18,2.85-3.53-.81-.82-5.92,1.16-8.13,3.16C55.18,73.69,60.13,74,65,69.93Z"/></g></svg>