<svg id="svg2" xmlns="http://www.w3.org/2000/svg" xmlns:xlink="http://www.w3.org/1999/xlink" viewBox="0 0 579.8 585.37"><defs><style>.cls-1,.cls-4{fill:none;}.cls-1,.cls-2,.cls-4,.cls-5{stroke:#000;}.cls-1{stroke-width:0.64px;}.cls-2{fill:#cbcbcb;}.cls-2,.cls-4{stroke-width:0.71px;}.cls-3{fill:#f6f6f6;}.cls-6{fill:url(#linear-gradient);}.cls-7{fill:url(#linear-gradient-2);}</style><linearGradient id="linear-gradient" x1="85.31" y1="409.97" x2="76.18" y2="418.25" gradientTransform="matrix(4.5, 0, 0, -4.5, 13.31, 2136.53)" gradientUnits="userSpaceOnUse"><stop offset="0"/><stop offset="1" stop-color="#cbcbcb"/></linearGradient><linearGradient id="linear-gradient-2" x1="50.96" y1="458.63" x2="58.01" y2="474.69" gradientTransform="matrix(4.5, 0, 0, -4.5, 13.31, 2136.53)" gradientUnits="userSpaceOnUse"><stop offset="0" stop-color="#848484"/><stop offset="1" stop-color="#cbcbcb"/></linearGradient></defs><title>rat-17</title><g id="g3189"><path id="path2986" class="cls-1" d="M34,191.29c-11.12,5.81-32.52-3.15-32.52-3.15" transform="translate(-1.33 -1.25)"/><path id="path2984" class="cls-1" d="M39.37,184.18c-28.9-7-36-36.46-36-36.46" transform="translate(-1.33 -1.25)"/><path id="path2988" class="cls-1" d="M45.49,200.52c-23.85-2-31.86,18.19-31.86,18.19" transform="translate(-1.33 -1.25)"/><path id="path2963" class="cls-2" d="M405.84,273.84C382,283.65,349,291.58,328.2,279.6c0,0-25.21,55.1-39.88,68.6A282.09,282.09,0,0,1,257.26,373l-55-1.75s1.89,10.85-16.75,16c-15.12-13.14-11.7-27.9,4.5-48.2,11.62-14.54,71.35-8.6,71.35-8.6l15.34-32.09c-10.35-10.62-17.64-10.4-34-22l-11.25,36.19S181,328.66,159.68,350s-42.49,0-42.49,0l42.49-42.53,42.54-21.24L215.41,248s-20.75-27.37-55.95-39.07-84.8-7.83-84.8-7.83-31.87,5.35-42.54,0,4.06-24.67,4.06-24.67,40.64-20.66,61.88-41.9,61.62-60.95,61.62-60.95-26.64-23.9-5.4-45.14,30.92-17.24,43.08-6.21c16.74,15.21-6.4,41.05-.18,45.64C205.77,61,205.73,82,216.35,45.64s48.7-56.26,70.89-35.83c21.25,19.54-5.67,60.27-5.67,60.27s89.3-45.19,154.47-39S515.8,52.3,542.36,94.84s-2.66,114.59-2.66,114.59,49.74,26.83,39.75,72.69-51,81.7-83,97.05-128.95,46.54-151,50.59C322.66,434,255.6,456.18,229,488.09s2.83,58.56,21,73.82,14.81,24.35,14.81,24.35-42.49-.32-58.43-14.81c-22.28-20.17-38.53-59.77-18.36-96.55s69.13-68.64,122-73.45c53.7-4.91,185.94-64,211.46-88.36s-10.71-64.5-10.71-64.5l-36.42,9.72s7.2,38.94,3.15,43.89S443,335.78,443,335.78L372.26,350l-29.16,7.21s3.42-25.61,24.39-40,60.18-7.78,60.18-7.78L407.06,273c-31.87-50.82-34-94.48,26.87-124.54" transform="translate(-1.33 -1.25)"/><path id="path2965" d="M199.7,124.76c0,7-6.08,12.61-13.59,12.61s-13.59-5.65-13.59-12.61,6.07-12.61,13.59-12.61S199.7,117.8,199.7,124.76Z" transform="translate(-1.33 -1.25)"/><path id="path2967" class="cls-3" d="M182.85,116.71c1.22,1.21.75,4.07-1.06,6.39s-4.26,3.23-5.48,2-.74-4.07,1.06-6.39S181.63,115.5,182.85,116.71Z" transform="translate(-1.33 -1.25)"/><path id="path2974" class="cls-4" d="M150.91,208.17c38.16-6.88,43.93-31.91,43.93-31.91" transform="translate(-1.33 -1.25)"/><path id="path2978" class="cls-1" d="M39.28,192.24c31.91-47.85,31.91-63.82,31.91-63.82" transform="translate(-1.33 -1.25)"/><path id="path2980" class="cls-1" d="M48.19,196.25a77,77,0,0,1,56.67-6.4" transform="translate(-1.33 -1.25)"/><path id="path2982" class="cls-1" d="M51.16,187.69C65,181.89,86,164,102.43,159.16" transform="translate(-1.33 -1.25)"/><path id="path2990" class="cls-5" d="M35.37,177.84c-14.9,11.47-4.37,28,11.61,24.62Z" transform="translate(-1.33 -1.25)"/><path id="path3012" class="cls-6" d="M353.18,256.83,387,232.75s13.28,32.14,17.82,39.88c-14.63,5.53-22.32,7.92-36.55,10.08s-29.61,2.16-40.73-5.54c-11.7-8.1,25.61-20.34,25.61-20.34Z" transform="translate(-1.33 -1.25)"/><path id="path3065" class="cls-7" d="M215.54,66.66a93.29,93.29,0,0,1,13.19-31.91C239.17,19.18,245.47,9.9,260.1,6.84S281.39,11.25,286.79,21s2,15-2.29,27.86-14.5,25-14.5,25" transform="translate(-1.33 -1.25)"/></g></svg>