<svg id="svg3825" xmlns="http://www.w3.org/2000/svg" viewBox="0 0 918.69 910.47"><defs><style>.cls-1{fill:#8c8c8c;}.cls-1,.cls-2,.cls-4,.cls-5{stroke:#1a1a1a;stroke-width:8px;}.cls-1,.cls-2,.cls-5{stroke-linecap:square;}.cls-2{fill:#1a1a1a;}.cls-3{fill:#535353;}.cls-4,.cls-5{fill:none;}</style></defs><title>rat-02</title><g id="layer1"><g id="g3790"><path id="path3768" class="cls-1" d="M227.75,810.3S78.82,670,150.76,577.37,1.48,408.66,1.48,408.66,195.94,486.57,118.62,581,224.93,858.38,224.93,858.38Z"/><path id="path3766" class="cls-1" d="M609.59,906.46V567.05H909.4L671.81,315.32,855.57,134.56C802.67,75.9,760,9,640.53,4.08L519.07,189.45,275.83,15.5C184.58,72.91,138.15,155.23,114.61,250.26l282.84,42.47C240.09,488.64,228.27,703.22,210.78,906.49Z"/><path id="path3770" class="cls-2" d="M752.42,567.05h157l-85.11-90.18Z"/><path id="path3772" class="cls-3" d="M852.39,560.57l17.83-.72,12.25-12.18-9-11.28Z"/><path id="path3774" class="cls-3" d="M861.26,535.44l-18.51,23.89-16.36.94,26-34.21Z"/><path id="path3776" d="M551.6,357.75c0,20.22-10.13,36.61-22.62,36.61S506.35,378,506.35,357.75s10.13-36.61,22.63-36.61,22.62,16.39,22.62,36.61Z"/><path id="path3778" d="M629.39,360.58c0,20.22-10.14,36.61-22.63,36.61s-22.63-16.39-22.63-36.61S594.26,324,606.76,324s22.63,16.39,22.63,36.61Z"/><path id="path3780" class="cls-3" d="M278.66,72.07c-45.2,31.12-83.73,80.94-103.24,143.32L400.28,255l56.57-65.54Z"/><path id="path3782" class="cls-3" d="M554.43,196.57,654.89,50.62c68.76,19.14,110.25,57.63,141.12,98.3L644.94,277.18Z"/><path id="path3784" class="cls-4" d="M611,567.76c-40.53-10.69-80.57-17.79-126.57-68.59"/><path id="path3788" class="cls-5" d="M500.64,478.62c-7.52,16.28-16.13,31.27-36.77,31.82"/></g></g></svg>