<svg id="svg2" xmlns="http://www.w3.org/2000/svg" xmlns:xlink="http://www.w3.org/1999/xlink" viewBox="0 0 391.81 599.28"><defs><style>.cls-1{fill:#d38d5f;}.cls-2,.cls-8{fill:#c87137;}.cls-3{fill:#a05a2c;}.cls-4{fill:url(#linear-gradient);}.cls-5,.cls-6{fill:#fff;}.cls-5{stroke:#000;}.cls-10,.cls-5,.cls-8{stroke-linejoin:round;}.cls-10,.cls-5{stroke-width:3px;}.cls-7{fill:#917c6f;}.cls-8{stroke:#28170b;stroke-width:2px;}.cls-10,.cls-8{stroke-linecap:round;}.cls-9{fill:#6c5d53;}.cls-10{fill:none;stroke:#483e37;}</style><linearGradient id="linear-gradient" x1="361.66" y1="212.67" x2="454.12" y2="-160.93" gradientTransform="matrix(1, 0, 0, -1, -156.75, 329.41)" gradientUnits="userSpaceOnUse"><stop offset="0" stop-color="#d38d5f"/><stop offset="1" stop-color="#a05a2c"/></linearGradient></defs><title>rat-25</title><g id="layer2"><path id="path3887" d="M330.19,0c-17.42.32-31,11.91-41.56,24.47-9.12,10.83-16.21,23-21.31,32.78a124.42,124.42,0,0,0-20,0,10.25,10.25,0,0,0-4.69-6.06,65.93,65.93,0,0,0,4.94-5.56,10.24,10.24,0,0,0-13-15.29c-17.57,9.54-33.86,20.15-46.38,33.56-1.88-2.95-4-6.08-6.53-9.38-9.09-12.05-22.09-26-40.19-31.06a75,75,0,0,0-60.94,10c-19.93,13.47-34.26,39.74-31.4,79.34,3,41,29.8,65.31,55.9,75.29,13.06,5,26,6.8,36.91,5.93a48.22,48.22,0,0,0,9.38-1.72,68.15,68.15,0,0,0,2.59,7.47c2.21,5.1,4,8,6.47,15a16.19,16.19,0,0,1,1.09,4.6,10.25,10.25,0,0,0-3.28,14.11,10.12,10.12,0,0,0,3.25,3.26l-1.12,3.56a10.25,10.25,0,0,0,14.25,12.32,99.94,99.94,0,0,1,4,15.47c-1.88,13.75-3.69,17.36-9.35,26.37S154.15,317,139.69,344.81c-17.06,32.86-11.06,72.13-11.06,72.13a10.21,10.21,0,0,0,2.47,5.4l-.88,3.32a10.24,10.24,0,0,0,6.56,12.28l.44,6.94a10.25,10.25,0,0,0,10.86,9.59,10.41,10.41,0,0,0,2.86-.59l1.22,1.9v0c.54.85,1.2,1.59,1.81,2.38a255,255,0,0,1-13.66,25.4c-6.7,10.93-14.47,21.12-17,23.38-.93.82-3.51,1.47-7.62.9s-8.14-2-11.44-3c2.71.82.28.06-1.41-1s-4-2.55-6.75-4.34c-5.42-3.58-12.37-8.36-19.21-13.22s-13.64-9.84-18.72-13.78c-2.54-2-4.67-3.69-6.07-4.91-.56-.49-.86-.8-1.12-1.06-1.41-2.75-3.29-6.12-5.09-9.94a50.81,50.81,0,0,1-3.75-10.21c-.69-5.52-2.6-13-3.47-20.94a47.8,47.8,0,0,1,.87-15.31c1.82-2.3,3.64-4.41,5.35-6.38,1.91,8.45,3.23,14.24,6,19.16,2.56,4.6,5.1,8,11,11.25A13.72,13.72,0,0,0,68,436.06a13.21,13.21,0,0,0,9.69-3.84c4.94-5.44,3.75-9.87,3.12-14.28-.65-4.58-.38-15.77-.62-26.28a99.26,99.26,0,0,0-1.31-15.41c-.92-4.94-2-10.12-7.13-14.59A25.54,25.54,0,0,0,52,355.75c-6,.82-10.59,3.11-14.28,4.72-8,3.49-12.85,9.46-18.87,16.56A126.18,126.18,0,0,0,3.5,399.09c-4,7.68-3.64,15.12-3.31,22a113.44,113.44,0,0,0,1.9,15.82s.49,3.44,1.1,7.46,1.47,9.15,2.72,14.75c2.5,11.22,6.25,24.26,14,34.72a30.14,30.14,0,0,0,6,5.88c2.39,2,5.33,4.27,8.72,6.81,6.77,5.09,15.31,11.15,24.09,17.13s17.79,11.88,25.53,16.62,13.33,8.15,19,10a48.88,48.88,0,0,0,50.72-13c1.69-1.76,6.81-7.29,9.84-10.53.17,7.21.29,12.24.57,17.59a28,28,0,0,0-4.85.57,16.67,16.67,0,0,0-10.62,6.4c-3.46,4.76-3.33,8.36-3.47,12.1a57.78,57.78,0,0,0,.75,11.28,50.94,50.94,0,0,0,2.72,10.56,21.52,21.52,0,0,0,2.62,5,11.89,11.89,0,0,0,7.69,5.35,12.88,12.88,0,0,0,9.56-1.63,15,15,0,0,0,10.6,4.72A15.38,15.38,0,0,0,190,594.09a25,25,0,0,0,4-5.19,18.94,18.94,0,0,0,2.69,4.69,15,15,0,0,0,10.19,5.63c9.23.68,16.22-4.87,20.56-10.72a33.81,33.81,0,0,0,7-20.25,73.72,73.72,0,0,0-1.85-18.5c-1.74-6.83-6.05-15.43-15.4-18.19-5.53-1.63-10.79.3-14.06,2.37a35,35,0,0,0-7.5,6.66c-.61.68-.9,1.06-1.44,1.69-1.84-17,.84-34.68,4.58-53.15,2.33-2.53,4.19-4.52,5.81-6.28,17.9,3.41,39.22,4.54,63.56,2.34a170.77,170.77,0,0,1-2,29.91c-2.45,15.81-7.11,31.9-11.22,39.15s-1.85,14.9,2.22,20,12.22,8.9,20.13,6a179.35,179.35,0,0,1,22.94-2.62c10.72-.49,22.55-.1,26.78.72,7.05,1.35,9.55-1.34,11.84-2.66a35.33,35.33,0,0,0,4-2.69c0,.06-.07.13-.09.13s-.13-1.16,2.59,2.59c3.23,4.45,8.56,5.83,12.44,5.66a20.05,20.05,0,0,0,10.19-3.44A24.2,24.2,0,0,0,378.71,557c-.39-13.33-2.65-25.54-12.75-33.15-5-3.81-13.07-4.82-19.28-2.19s-11,7.48-15.81,14.25a31.25,31.25,0,0,1-7.22,3.6A79,79,0,0,1,307,542.69a72,72,0,0,1-15.1-.12,28.84,28.84,0,0,1,.41-3.5c.79-4.78,2-11.08,3.28-18.28a298.8,298.8,0,0,0,4.94-45.1,88.44,88.44,0,0,0,28.06-24.81c.21-.07.46-.12.66-.19a93.69,93.69,0,0,0,9.69-3.75c1.9-.87,3.65-1.73,5.21-2.62.74-.42,1.46-.9,2.16-1.38v0c.69-.47,1.32-1,1.94-1.43s1.28-1,1.87-1.5l.44-.38c1.06-.91,2.06-1.86,3-2.78h0c.47-.46,1-1,1.53-1.53v0c.1-.1.19-.22.28-.32l.22-.21c.78-.82,1.56-1.64,2.35-2.54,3.08-3.5,4.76-5.82,5.25-6.5l.4-.4,0,0c.44-.44.24-.24.29-.28l0,0s0,0,0,0l.18-.15.13-.13c.42-.37.92-.78,1.59-1.28.1-.07.12-.08.1-.06a16,16,0,0,1,2.81-1.72c6.63-3,9.11-8.27,10.75-12.22a45.58,45.58,0,0,0,2.56-8.78c1.18-5.9-1.16-8.05-2.28-9.66a25.3,25.3,0,0,0-3.28-3.78,43.44,43.44,0,0,0-3.63-3.12c-.45-2.38-1-5.7-1.5-9.75-.88-7.51-4.32-13.29-9.06-20.72s-10.89-15.22-18.37-21.22c-.55-.44-1.11-.85-1.69-1.28a43.83,43.83,0,0,0-7.34-4.47l-.35-.16c-11.23-27.55-22.26-49.86-28.53-62.22a109.35,109.35,0,0,0,14.38-4.59,10.23,10.23,0,0,0,9.28,4.84l8.47-.46a10.65,10.65,0,0,0,2.62-.5l6.28-.5a10.26,10.26,0,0,0,9.44-10.38l-.31-21.12c2.25-3.15,4.43-6.44,6.47-9.91.37,0,.74.06,1.12,0,13-1.08,23-10.63,24.63-22.84a30.89,30.89,0,0,0-3.85-19.25c-3.31-6-9.84-12.38-19-12.38a36.26,36.26,0,0,0-7.5.75c-2.77-2.15-5.65-4.33-8-6.41a40.23,40.23,0,0,1-3.4-3.5,37.43,37.43,0,0,0,1-4.68,27.19,27.19,0,0,0,0-5.19c9.12-4.7,17.31-11.86,24.28-20.06,9-10.64,16-23,18.4-35.53a92.25,92.25,0,0,0-7-55c-8.25-17.64-23.68-33-45.94-37A36.71,36.71,0,0,0,330.18,0Zm18.22,218.84a5.88,5.88,0,0,1,.62.22S348.44,218.86,348.41,218.85Zm9.37,211.34c-.25.73-.95,2.92-.71,2.19,0,0-.77,1.18-1.25,1.94l1.31-2.79C357.4,431,357.78,430.21,357.78,430.19Z"/><path id="path3802" class="cls-1" d="M168.73,445.8c1.89,8.49-26.42,58-38.68,68.87-8.54,7.55-24.06,1.42-28.77,0s-56.61-37.74-59-42.45-9.43-17-10.38-24.53-8.2-34.1-.47-43.87c9-11.32,18.4-23.59,21.7-9.44s4.25,19.34,6.61,23.59,12.73,14.62,10.84,1.41S72.5,376,65,369.38s-15.56-2.83-23.11.48-23.11,22.17-29.25,34c-4.22,8.12-1.41,26.41-.47,31.13s3.78,36.32,16,52.83c5.19,7,65.57,48.59,78.3,52.84s28.31,1.88,40.1-10.38,66-71.23,66-71.23Z"/><path id="path3800" class="cls-2" d="M289.25,451.75c-3.77,3.77-18.87,12.72-18.87,12.72,15.11-.69,7.33,70.18-6.6,94.81-2.94,5.19,3.13,13.8,9.91,11.31,8.41-3.08,42.52-4.78,55.19-2.34,2.69.52,7.53-3.31,7.53-3.31s8.63-7,17.15,4.72c3.1,4.26,15.24-1,14.91-12.35-.67-23.28-12.69-38.9-29.22-15.47-8.76,12.41-55.62,14.87-58,6.59-1.5-10.31,13.5-55,8-96.69Zm-108,12.72c-11.57,38.75-6,73.73-6.12,91.5,0,0-14.17-3.75-17.94,1.44s0,27.33,4.25,28.28,9.9-8.47,9.9-8.47,2.85,11.31,8,11.31,8-10.84,10.38-11.31,9.43-2.83,10.84-.47,2.36,11.9,7.07,12.25c8.81.66,16.53-11.32,16.53-20.75s-.75-24.17-9.91-26.88c-7.54-2.22-15.57,13.66-18.87,14.13s-9.91-2.34-9.91-2.34c-6-28.93,1.55-57.88,7.53-86.82l-11.78-1.87Z"/><path id="path2999" class="cls-1" d="M268.19,79.37s30-75.38,67.38-68.71,50.33,50,44.69,80.05c-4.89,26.08-39.36,61.37-61.37,50.7s-50.7-62-50.7-62Z"/><path id="path3890" class="cls-3" d="M271.56,64.66l27.83-8L289,68.91a69.94,69.94,0,0,1,20.29.47c11.32,1.88,35.37,18.87,35.37,18.87a251.83,251.83,0,0,0-27.35-2.36c16,1.88,28.77,18.39,28.77,18.39l-20.28.48c7.45-.68,13,29.61,12.73,31.6-.74,6.25,11.32-.94,11.32-.94l-46.7,23.11Z"/><path id="path2997" class="cls-4" d="M186.81,82c11.44-17.29,30.64-30.71,52.7-42.69-7.65,9.86-23.43,18.57-20,30,4-8.2,10.85-9.19,18-9.34l-4.67,8.67c15.58-1.51,25.57-2.77,39.36-.67,2.38-3.33,15.26-6.67,24-10-5.07,4.23-14,8.45-12.68,12.68,20.12-1.65,37.45,5.07,54,14-12.94-1.24-28.52-3.81-31.36,0,16.62,1.22,25.35,7.71,31.36,16l-20,.67s6,7.33,12,20.68,2,28.68,5.34,37.35,33.35,28.69,33.35,28.69c-19.24,40.72-29.76,61.45-77.38,68.71,0,0,44.69,85.39,50,123.41,3.46,24.66-16,89.39-72.71,94.73s-96.73-8-107.4-24.68l-10.68-16.68-2.67,10.67-1.33-21.35-6,5.34,4-15.34-5.34,2.67s-5-37.22,10-66.05c28.49-54.88,36-50.7,40-80,1.39-10.26-10.68-34.69-10.68-34.69l-8,8.67,5.33-16.67-8.67,1.33s8.67-1.33,3.34-16.68-8.68-14.67-12-36C152.79,194.1,64.73,186.09,59.4,112s50.7-86.72,79.38-78.71,48,48.69,48,48.69Z"/><path id="path3827" class="cls-3" d="M335,32.07a27.21,27.21,0,0,0-14.75,4.59c-12,7.82-14.5,31.12-17.17,33.79L309.56,66l27.35-2-24-6.69c13.54-25.92,29.39-18.85,39.37-20A31.2,31.2,0,0,0,335,32.07ZM130.56,56.7a19.16,19.16,0,0,0-3.81.4c-6.61,1.42-22.66,10.41-22.66,10.41s22.81-8.06,33-3.78c12.71,5.32,25.37,23.77,25.47,32.53l-19.81-2.82,24.06,9-8,33.47s12.73-23.1,14.63-35.37c2.59-16.78-23.28-44-42.88-43.81ZM320.9,158.42c-14.08.24-38.71,3.41-45.38,7.34-3.78,2.22-7.34,10.34-7.34,10.34,20.95-5.6,56.12-14.08,68.38-10l-5.66-6c.64-1.3-3.6-1.8-10-1.68Zm-99.81,77.47s21.12,40.36,34.91,50c14.57,10.18,35.86,3.56,48.48-2.07-7.64-15.88-13.44-27-13.44-27-24.92.43-48.66-7.85-70-20.94Z"/><path id="path3769" d="M302.88,158.08c1.53-8.45-1.33-24-9.34-24s-13.34,15.35-12.67,20.68,6,15.35,10.67,16,10.33-7.09,11.34-12.67Z"/><path id="path3771" d="M317.5,155.42c-2.29-8.28,1.33-24,9.34-24s11.34,15.35,10.67,20.68-3.33,12-8,12.68-10.66-4.45-12-9.34Z"/><path id="path3773" d="M365.59,177.43c-16,0-17.34,11.34-16.68,20s6,14.68,14,14,14.43-7.14,15.34-14c1.05-7.82-4-20-12.67-20Z"/><path id="path3775" class="cls-5" d="M320.37,231.71c10.23-1.57,24.07-3.56,25.55-2.91l.33,24-6.75.54-1.89-5.19v5.66l-8.49.47-3.51-21.55Z"/><path id="path3777" class="cls-6" d="M364.66,181.93c-5.58,2.16-4.51,6.29-3.11,9.22s4.08,4.3,6.77,3a6.41,6.41,0,0,0,3.46-6.95c-.7-2.87-4.1-6.43-7.12-5.26Z"/><path id="path3806" class="cls-7" d="M248.92,371.27s19.81-28.3,32.55-34,34.27-8.41,49.06-1.42c15.09,7.14,29.71,31.61,30.66,39.63s2.36,14.15,2.36,14.15,9,6.6,8.49,9-2.36,11.32-7.55,13.68a30.38,30.38,0,0,0-9,6.6s-8.6,12-16.51,16.51c-9.91,5.66-34.91,14.15-50.95,6.61s-35.85-25.95-38.68-41-9-12.74-9-12.74V373.16Z"/><path id="path3804" class="cls-8" d="M174.8,346.54s6,23.35,9,26.68,36.35,12.35,42.69,11,18-6.34,21-9.34,5-10.14,8.34-11.34c5-1.77,10.34-4.34,14-4.67s8.67.33-.67,3-16.67,6.34-18,9.34a39.1,39.1,0,0,1-4.67,7s10-5.67,12.34-6,9.68-1.33,14-1,6.67,2.34.67,4-11.75-1.12-17.35.33a32.44,32.44,0,0,0-10.67,5.67c-1.33,1.33-4.34,4.67-.67,4.67a144,144,0,0,1,16,.67c5.56.69,13,8,4.67,6s-11.64-3.8-17.67-4c-5.74-.2-11.68.33-17,2.67s-42.69,3.66-49.69,2.66-15.68-9.34-15.68-9.34l.33,4.67-.33-11-4.34,2.33.67-20"/><path id="path3808" class="cls-9" d="M361.66,379.13c-6.15,8.49-19.88,16.14-34,23.75,13-1.76,22.38-.07,37-12.37l-1.09-.85s-1-4.36-1.91-10.53Zm-121.09,7.44-.13,1.69s6.14-2.35,9,12.75,22.62,33.48,38.66,41,41.06-1,51-6.63c7.91-4.52,16.5-16.5,16.5-16.5a32.24,32.24,0,0,1,4.31-3.81l.4-.91s-17,2.35-25.94,2.84c-25.47,1.42-44.2-4.29-64.62-12.28-10.66-4.17-29.13-18.19-29.13-18.19Z"/><path id="path3823" class="cls-6" d="M298.47,147.68c.37-2.06-.33-5.86-2.28-5.86s-3.26,3.74-3.1,5.05,1.47,3.74,2.61,3.9,2.52-1.73,2.77-3.09Z"/><path id="path3825" class="cls-6" d="M329.2,144.27c-1.07-1.8-1.73-5.61.1-6.29s4.36,2.38,4.66,3.66-.07,4-1.09,4.57-3-.75-3.67-1.94Z"/><path id="path3850" class="cls-10" d="M248.92,371.27s19.81-28.3,32.55-34,34.27-8.41,49.06-1.42c15.09,7.14,29.71,31.61,30.66,39.63s2.36,14.15,2.36,14.15,9,6.6,8.49,9-2.36,11.32-7.55,13.68a30.38,30.38,0,0,0-9,6.6s-8.6,12-16.51,16.51c-9.91,5.66-34.91,14.15-50.95,6.61s-35.85-25.95-38.68-41-9-12.74-9-12.74V373.16Z"/></g></svg>