<svg id="svg2" xmlns="http://www.w3.org/2000/svg" xmlns:xlink="http://www.w3.org/1999/xlink" viewBox="0 0 90.71 87.87"><defs><style>.cls-1{fill:none;}.cls-2{fill:#9c862b;stroke:#6f0;}.cls-10,.cls-16,.cls-2,.cls-4,.cls-5,.cls-6,.cls-7,.cls-8,.cls-9{stroke-width:0.29px;}.cls-3{fill:#2c2a1c;}.cls-4{fill:#ba9509;stroke:#a40;}.cls-5,.cls-8{fill:#fff;}.cls-5,.cls-6,.cls-7{stroke:#fc0;}.cls-6{fill:#a0381e;}.cls-7{opacity:0.3;fill:url(#pattern6397);}.cls-10,.cls-7{isolation:isolate;}.cls-10,.cls-8,.cls-9{stroke:red;}.cls-9{fill:url(#radial-gradient);}.cls-10{opacity:0.31;fill:url(#pattern6566);}.cls-11{fill:#372c00;}.cls-12{fill:#2e0303;}.cls-13{fill:#280000;}.cls-14{fill:#401818;}.cls-15{fill:maroon;}.cls-16{fill:#ffd723;stroke:#f60;}.cls-17{fill:#b98b00;}.cls-18{fill:#422020;stroke:#9e0000;stroke-width:0.35px;}.cls-18,.cls-19{stroke-linecap:round;stroke-linejoin:round;}.cls-19{stroke:#eee;stroke-width:0.35px;}</style><pattern id="pattern6397" data-name="pattern6397" width="90.71" height="87.87" patternTransform="matrix(0.84, 0, 0, -0.8, 72.84, 635.68)" patternUnits="userSpaceOnUse" viewBox="0 0 90.71 87.87"><rect class="cls-1" width="90.71" height="87.87"/></pattern><radialGradient id="radial-gradient" cx="212.1" cy="53.7" r="7.68" gradientTransform="matrix(0.8, 0.06, 0.07, -0.82, -94.54, 45.96)" gradientUnits="userSpaceOnUse"><stop offset="0" stop-color="#ff4e56"/><stop offset="0.62" stop-color="#ff5d5b"/><stop offset="1" stop-color="#cf0502"/></radialGradient><pattern id="pattern6566" data-name="pattern6566" width="90.71" height="87.87" patternTransform="matrix(1.28, 0, 0, -0.94, 30.55, 598.76)" patternUnits="userSpaceOnUse" viewBox="0 0 90.71 87.87"><rect class="cls-1" width="90.71" height="87.87"/></pattern></defs><title>rooster-04</title><g id="layer2"><path id="path4901" class="cls-2" d="M47.31,65l4.81.71a91.21,91.21,0,0,1,6.68,8.66,3.63,3.63,0,0,1,2.47-1.91c1.2-.25,2.43.25,3.72,1.88l-2.27-.07-1.8,1.13,6.86,1.31c1.6,1.36,1.63,2.73,1.87,4.1l-3.43-2.37c-1.9.39-4.11-1.26-6-.92.63,1.13,1.41,2.26,1.14,3.39l-.46,1c-1-2-2.24-2.5-3.4-3.5l-2.58-2.76-2.86.92a2.57,2.57,0,0,0-.78,2c-.54,0-.8-.7-1.06-1.48-.43-.73.48-1.13,1.13-1.59a4.2,4.2,0,0,1,3.39-1.7l-2.68-2.65Z"/><path id="path4889" class="cls-3" d="M48.42,65.52l-1.59-.13c1.22,1.6,1.41,2.09,3.67,4.79A45.62,45.62,0,0,1,54,73.61c-1.58.34-2.65.72-3.13,2a1.58,1.58,0,0,0-1.06,1.88,1.76,1.76,0,0,0,.79,1.28l1,.61-.07-.8c-.15-1.7,1-1.86,1.78-1.75.4.06,1.06-.36,1.57-.44.86.87,1.55,2.41,2.71,3.07a5.39,5.39,0,0,1,2.71,2.84l.31.79.72-.45c1.13-.7,0-3.8-.53-4.68a9.37,9.37,0,0,1,1.57.43,30.84,30.84,0,0,0,3.2.75,5.48,5.48,0,0,1,3,1.54s1,1.06,1.28,1,0-1.59,0-1.59A5,5,0,0,0,69,77.58a3.29,3.29,0,0,0-1.69-1.41l-5.35-.91a1.91,1.91,0,0,1,1.37-.64c.78-.07,2.13.41,2.5.33a9.91,9.91,0,0,0-1.93-2.16,3.32,3.32,0,0,0-2.8-.71,4.54,4.54,0,0,0-2.36,1.76s-2-3.06-3.1-4.52-3.33-4.08-3.33-4.08l-1.09.9a51.27,51.27,0,0,1,3.67,3.69c1.46,1.76,4.06,5.64,4.06,5.64a2.15,2.15,0,0,1,.52-1c.64-.7,1-1.24,1.62-1.35A6.6,6.6,0,0,1,62.6,73a3.31,3.31,0,0,1,1.63,1,2.78,2.78,0,0,0-2.11.12,4.8,4.8,0,0,0-1.83,1.27c.3.46,2.49.66,2.87.74l3.89.85a3.15,3.15,0,0,1,1.53,2.31,12.58,12.58,0,0,0-2.88-1.34,18.2,18.2,0,0,1-2.78-.4c-1.05-.27-1.58-.72-2.65-.52L58.81,76l-.21.18a14.92,14.92,0,0,1,2,2.82A2.7,2.7,0,0,1,61,80.74a8.17,8.17,0,0,0-2.73-2.66,21.25,21.25,0,0,1-3.08-2.82c-.8.21-1.66.22-2.28.42-.46.15-2.1,1.15-1.82,2.38a1.2,1.2,0,0,1,.45-2.14,3.43,3.43,0,0,1,2-1.46c1.1-.29,1.47-.17,1.54-.54s-1.06-1.21-1.45-1.54-2.13-2.53-2.18-2.6c-1.51-2-2-2.84-3.06-4.26Z"/><path id="path4899" class="cls-4" d="M32.42,68.12l2.06,8.27-2.9,1.52a5.32,5.32,0,0,0-1.1,4.14c1.43-1.16,3-3,4.24-3.29l4.1,2.83a8.83,8.83,0,0,1,2,2.62,4.64,4.64,0,0,0,.85-1.77l-1.52-2.23L39,79.15l1.41.46,2.86,1.45,3.75.53,1.91,1c.19-.88-.55-2-1.06-3a36.8,36.8,0,0,0-5.13-.91c-1-.15-2.08.36-3-.71l2.72-.82,2.44.71c-.49-.81-.73-1.72-2.3-2.08l-3.89.63a3,3,0,0,0-1.59-2s-1.06-6.22-1.38-6.18S32.42,68.12,32.42,68.12Z"/><path id="path4893" class="cls-5" d="M79.19,11.89c-2.43-1-4.86-.83-7.3-.54A41,41,0,0,0,64,15.67l-5,6.76L46.31,24.86A21.5,21.5,0,0,1,34.6,26.21c-3.19-.16-5.46-1.77-7.93-3.06-1.87-2.37-3.38-5.21-6.12-6.49-1.13-2.08-2.4-4.05-4.78-5.13a26.46,26.46,0,0,0-6.3-4.41c-1.18,0-2.29.11-1.81,1.89L9,11.89c-1.15-.14-2.29-.58-3.52,1-1.09.29-2,.69-1.8,2,.58.93,1.57,1.86,1.62,2.8-.45,1.44.1,2.58.45,3.78-.22.94-.16,1.47,1,3l.83,2.67c-2,1.31-1.34,2.46-.54,3.61-1,1.14-1.83,2.29-.9,3.6l2.17,2c-.21,4.15,1.27,4.39,2.34,5.59a5.75,5.75,0,0,0,2.43,4.41,3.83,3.83,0,0,0-.37,2.39c1.13.44,2.29,1,3.25.77-.17,1.56-.81,3.18.45,4.59l2.16.36c.67,1.5.85,3.28,2.44,4.23l3.15-.36a10.46,10.46,0,0,0,3.24,2.89,8.71,8.71,0,0,0,4.24,5.31l1.62,1.35,3.15.27,1.89-2.88,5.32-3.87a9,9,0,0,0,4.14,3.78l4.24.54a5.74,5.74,0,0,0,1.44-4.41l.18-4.33,4.77-1.35c2.81-1.18,5.59-2.42,7.48-5.67l6.48-10.27L76.4,27.92c.49-2.32,1.23-5.2.43-6.89l-1.59.51c-1.12-.11-.53-.94-.61-1.85a3.42,3.42,0,0,1-1.53-2.86,6.29,6.29,0,0,1,1.75-2.93C75.88,12.74,77.6,12.4,79.19,11.89Z"/><path id="path4893-5-5" class="cls-6" d="M79.36,11.75c-2.44-1-4.87-.83-7.3-.54a40.91,40.91,0,0,0-7.93,4.33l-5,6.75L46.48,24.72a21.64,21.64,0,0,1-11.72,1.36c-3.19-.17-5.45-1.78-7.92-3.07-1.88-2.37-3.39-5.21-6.13-6.48-1.13-2.09-2.39-4.06-4.77-5.14A26.3,26.3,0,0,0,9.63,7c-1.17,0-2.29.12-1.8,1.89l1.35,2.88c-1.15-.14-2.28-.57-3.51,1-1.1.29-2,.69-1.8,2,.57.93,1.57,1.86,1.62,2.79C5,19,5.59,20.1,5.94,21.3c-.22.94-.16,1.47,1,3L7.74,27c-2,1.31-1.34,2.46-.54,3.6-1,1.14-1.83,2.3-.9,3.6l2.16,2c-.21,4.14,1.27,4.39,2.34,5.58a5.78,5.78,0,0,0,2.43,4.41,3.92,3.92,0,0,0-.36,2.4c1.13.43,2.28,1,3.25.76-.18,1.56-.81,3.18.45,4.59l2.16.36c.66,1.5.84,3.28,2.43,4.24l3.15-.36A10.58,10.58,0,0,0,27.56,61a8.66,8.66,0,0,0,4.23,5.31l1.62,1.35,3.16.28,1.89-2.89,5.31-3.87A9,9,0,0,0,47.92,65l4.23.54a5.7,5.7,0,0,0,1.44-4.41l.18-4.33,4.78-1.35c2.8-1.17,5.58-2.42,7.47-5.67L72.51,39.5l4-11.71c.5-2.33,1.24-5.21.44-6.89l-1.6.5c-1.11-.11-.52-.94-.6-1.85a3.39,3.39,0,0,1-1.53-2.86A6.18,6.18,0,0,1,75,13.76C76,12.61,77.77,12.26,79.36,11.75Z"/><path id="path4893-5" class="cls-7" d="M79.28,12c-2.44-1-4.87-.83-7.3-.54a41.43,41.43,0,0,0-7.93,4.32l-5,6.76L46.4,25a21.54,21.54,0,0,1-11.72,1.35c-3.19-.17-5.45-1.77-7.92-3.06-1.88-2.37-3.39-5.21-6.13-6.49-1.13-2.08-2.39-4-4.77-5.13A26.37,26.37,0,0,0,9.55,7.24c-1.17,0-2.29.12-1.8,1.89L9.1,12c-1.15-.14-2.28-.58-3.51,1-1.1.29-2,.69-1.8,2,.57.93,1.57,1.86,1.62,2.79-.46,1.45.1,2.59.45,3.79-.22.94-.16,1.47,1,3l.84,2.67c-2,1.31-1.34,2.46-.54,3.61-1,1.14-1.83,2.29-.9,3.6l2.16,2c-.21,4.14,1.27,4.39,2.34,5.59a5.78,5.78,0,0,0,2.43,4.41,3.9,3.9,0,0,0-.36,2.39c1.13.44,2.28,1,3.25.76-.18,1.57-.81,3.19.45,4.6l2.16.36c.66,1.5.84,3.27,2.43,4.23l3.15-.36a10.45,10.45,0,0,0,3.25,2.88,8.68,8.68,0,0,0,4.23,5.32L33.33,68l3.16.27,1.89-2.88,5.31-3.88a9,9,0,0,0,4.15,3.79l4.23.54a5.71,5.71,0,0,0,1.44-4.42l.18-4.32,4.78-1.35c2.8-1.18,5.58-2.42,7.47-5.68l6.49-10.27,4-11.71c.5-2.33,1.24-5.21.44-6.89l-1.6.51c-1.11-.11-.52-.94-.6-1.85A3.4,3.4,0,0,1,73.19,17,6.23,6.23,0,0,1,74.94,14C76,12.87,77.69,12.52,79.28,12Z"/><path id="path4895" class="cls-8" d="M76.3,11.27,74,9.08a3.39,3.39,0,0,1,.6-2.62c.92-1,1.92-.3,2.93,1L78.35,4c.57.57,1.27,1,1.2,2.22s-.63,2.59-.28,3.11a7,7,0,0,0,1.56-2.44l.74-1.8c.22.61.79,1,.42,2-.33,1.67-.88,3.77-.32,3.74,1.85-1,1.37-2.75,1.77-4.2A3.5,3.5,0,0,1,85.1,9.57L83.58,12.4c.63.95,1,1.92.46,3l-1-.18-.6,1.1L80,16.61l.6,1.16,1.84.71a4,4,0,0,1-.14,2.79c-.66.94-1.27,2.06-2.2,2.09a3.06,3.06,0,0,1-2.79-1L76.62,21a1.63,1.63,0,0,1-1.77.6l-.56-2.44c-.45-.56-1.05-.63-1.24-1.95l1.16-2.72,1.67-1.56a10,10,0,0,1,3.74-.77Z"/><path id="path4895-1-4" class="cls-9" d="M76.32,11.31,74,9.12a3.45,3.45,0,0,1,.6-2.62c.93-1,1.92-.29,2.94,1L78.38,4c.56.58,1.26,1,1.2,2.23S79,8.85,79.29,9.37a7,7,0,0,0,1.56-2.44l.74-1.8c.23.61.8,1,.43,2-.33,1.67-.89,3.77-.32,3.75,1.84-1,1.37-2.75,1.77-4.21a3.55,3.55,0,0,1,1.66,2.94l-1.52,2.82c.62,1,1,1.93.46,3l-1-.17-.6,1.09L80,16.65l.6,1.17,1.84.71a3.94,3.94,0,0,1-.14,2.79c-.66.93-1.26,2.05-2.19,2.08a3.08,3.08,0,0,1-2.8-1L76.64,21a1.62,1.62,0,0,1-1.76.6l-.57-2.44c-.44-.55-1-.63-1.24-1.94l1.17-2.73,1.66-1.55a10.13,10.13,0,0,1,3.75-.78Z"/><path id="path4895-1" class="cls-10" d="M76.24,11.38,73.91,9.19a3.43,3.43,0,0,1,.6-2.62c.93-1,1.92-.3,2.94,1l.85-3.5c.56.58,1.26,1,1.2,2.23s-.63,2.59-.29,3.11A7,7,0,0,0,80.77,7l.74-1.8c.23.61.8,1,.43,2-.33,1.67-.89,3.77-.32,3.74,1.84-1,1.37-2.75,1.77-4.2a3.54,3.54,0,0,1,1.66,2.93l-1.52,2.83c.62,1,1,1.92.46,3l-1-.18-.6,1.1-2.44.32.6,1.16,1.84.71a3.93,3.93,0,0,1-.14,2.79c-.66.94-1.26,2.05-2.19,2.09a3.07,3.07,0,0,1-2.8-1l-.67-1.42a1.61,1.61,0,0,1-1.76.61l-.57-2.44c-.44-.56-1-.63-1.24-1.95l1.17-2.72L75.82,13a10.12,10.12,0,0,1,3.75-.77Z"/><path id="path4885" class="cls-11" d="M36.3,68.1l-1,.34a22.43,22.43,0,0,1,1.43,4.94c.32,1.94.71,2.16.88,2.32.42.61.78.34.91,1.12,1.24-.15,2.51-.44,3.73-.66a1.84,1.84,0,0,1,2.09,1.17,6.41,6.41,0,0,0-2.49-.61c-.89.17-1.14.68-1.76.75a5.1,5.1,0,0,1-1.84-.31l1.68,1.26c1.5,1.12,4.36.14,7.17,1.2.41.15,1.15,1.7,1.31,1.91a7.7,7.7,0,0,0-2.44-.89,11.26,11.26,0,0,1-3.46-.34c-1.26-.38-1.63-.93-2.46-1.15l-2-.39a6.87,6.87,0,0,1,2.24,2,4.76,4.76,0,0,1,.61,2.51c-.32-.2-2-2.65-2.66-2.86s-.79-.46-1.09-1.15a4.14,4.14,0,0,1-1.12-.4c-.1-.1-.21-.29-.46-.64l-.42-.6a4.38,4.38,0,0,1-1.1.71,10,10,0,0,0-1.42.65c-.48.2-1.38,1.86-1.61,2.23a14.73,14.73,0,0,1,.46-2.27,3.73,3.73,0,0,1,1.76-1.53c.67-.2,1.4-.22,1.62-.75s.54-.91-.11-2.51a32.9,32.9,0,0,1-1.56-5.92L32,67.75a36.23,36.23,0,0,0,1.8,7.67c.2.59.15.84-.62,1.11a4.11,4.11,0,0,0-2.66,2.3,5.85,5.85,0,0,0-.43,3.36c.12.58.21.71.38.81s.22-.35.78-.87,1-.58,1.29-1.06a2.87,2.87,0,0,1,1.06-1c.4-.2.79-.37,1.18-.54a2.59,2.59,0,0,0,.27.36,3.24,3.24,0,0,0,1.15.54A3.1,3.1,0,0,0,38.35,82c1,.19,1.32,1.06,1.94,2l.48.77.63-.66A2.24,2.24,0,0,0,42,81.88a17.74,17.74,0,0,0-1.9-2.11c.29.1,1.79,1.35,2.09,1.44a12.62,12.62,0,0,0,3.64.68,4.12,4.12,0,0,1,2.52.87l1.26.77-.19-1.47a5.29,5.29,0,0,0-.47-1.79A2.58,2.58,0,0,0,46.59,79c-1.21-.32-5.06-.72-5.72-.93-.44-.39,2.22-.46,2.3-.46a5.54,5.54,0,0,1,2.17.94A3,3,0,0,0,44,75.74a2.88,2.88,0,0,0-2-.51l-2.94.56a2.86,2.86,0,0,0-.54-1c-.32-.31-.7-.43-.84-.64a19.65,19.65,0,0,0-1.39-6.1Z"/><path id="path4169" class="cls-12" d="M9.37,6.54a3.23,3.23,0,0,0-.44,0,3.78,3.78,0,0,0-1.16.28C6,8.22,7.4,9.52,8,11c-1.51-.21-2.47.17-3,1.5a2.34,2.34,0,0,0-1.8,1.82c-.27,1.3.75,2.12,1.58,2.93a7.35,7.35,0,0,0-.23,1.86,4.76,4.76,0,0,0,.82,2.25A4.54,4.54,0,0,0,5.18,23a3.51,3.51,0,0,0,1,1.85c-.8.92-1.14,1.28.28,2.1-.57.57-1.31,1-1.38,1.67a1.86,1.86,0,0,0,1.29,2.08,2.77,2.77,0,0,0-1.48,2.54C4.82,34.31,6,35.87,7.74,36.45c-.82,2.16.34,5.46,2.24,5.93-.66,2,.88,3.28,2,4.39a1.93,1.93,0,0,0,.36,2.28c.64.7,2,.91,3.13,1.09a4.89,4.89,0,0,0,.69,4.69c.55.55,1.73.32,2.41.53a5.45,5.45,0,0,0,1.54,3.36c1.13,1.17,2.53.73,4,.5-.09,1.73,1,2,2.31,2.1,1,2,2.1,4.45,4.9,5.85.75,1.4,1.95,1.3,3.13,1.38s2.34.4,3-.57a6.92,6.92,0,0,0,1.32-2.3,5.11,5.11,0,0,0,2.17-.26,13.09,13.09,0,0,0,2.32-2.78c1.19,1.19,2.24,2.78,3.77,3h0s-1.07-.35,0,0a8.48,8.48,0,0,0,3.35.67c.54,0,2.06,0,2.53-.45s.94-.53,1.18-1.35a6.26,6.26,0,0,0,0-3,9.25,9.25,0,0,0,.72-4.1c.59-.12,1.25-.55,1.76-.52a7,7,0,0,0,3.84-1.09A15.22,15.22,0,0,0,64,53.71c2.69-2.47,3.7-4.9,6.6-9.1,3.31-4.81,4.09-9.8,5.48-13.9a37.06,37.06,0,0,0,1.53-7.12c.08-.61-.19-.91.07-1.52a4.32,4.32,0,0,1-.78-1.92l.27-1.22c.17-.72-1.67.17-.56.94a.9.9,0,0,1-1.45.88c-.36-.28,0-.77-.43-1.81a4.68,4.68,0,0,0-.69-1,.9.9,0,0,1,.4-1.27c.65-.31,1.54-.15,1.75-.54s-1.23-2-.68-2.32a7.54,7.54,0,0,1,2.6-1,2.1,2.1,0,0,1,1.75.58l1.15,1c1.09.94,1,0,.81-.45-1.13-2.11-3.31-2.89-5.39-3.1a12.61,12.61,0,0,0-5.26.28,28.18,28.18,0,0,0-6.07,2.8,14.21,14.21,0,0,0-3.68,4,10.84,10.84,0,0,1-3.08,3.27c-2.75,1.56-6.56,1.29-10.34,2.18-3.26.76-6.1,2.31-8.83,2.26-3.91-.07-7.92-.31-11-2.57-1.15-.84-2-2.81-3-3.68s-1.73-1.51-2.28-2A12.29,12.29,0,0,1,19.69,14a6.39,6.39,0,0,0-3-3,25.39,25.39,0,0,1-4.32-3.27,5.25,5.25,0,0,0-3-1.25Zm.41,1.88a3.38,3.38,0,0,1,1.52.75,16.4,16.4,0,0,1,1.75,1.51,11.65,11.65,0,0,0,3.21,2.08,5.7,5.7,0,0,1,2.33,2.31,9.41,9.41,0,0,0,3.6,3.78,9.48,9.48,0,0,1,2.88,3.43,9.91,9.91,0,0,0,2.82,2.3A22.41,22.41,0,0,0,39.16,27.4c3.54.07,6.56-1.17,9.39-1.83,3.29-.76,7.38-.39,10.94-2.41a12.27,12.27,0,0,0,3.81-3.93,27,27,0,0,1,2.82-3.79,16.69,16.69,0,0,1,5.15-2.91,13.66,13.66,0,0,1,6.3-.49,5.5,5.5,0,0,0-3.73,2.19A5.93,5.93,0,0,0,72.63,17a5.23,5.23,0,0,0,.44,1.81c.14.42.57.65,1.06,1,.12.49-.07,1.3.17,1.65a1.43,1.43,0,0,0,2.29.12C77,23.65,76,27,74.88,30.17c-1.54,4.4-3.14,8.83-6.12,13.15S64.84,49.89,62.49,52a18.74,18.74,0,0,1-3.15,1.76,5.29,5.29,0,0,1-2.4.82c-1.62-.12-2.88.76-4.18,1.62.52,1.81-.46,3.66-1,5.06A5.18,5.18,0,0,1,52,63.66,3.25,3.25,0,0,1,51.7,65a17.8,17.8,0,0,1-2.7-.21c-.77-.36-1-1.13-2.18-1.47s-2.08-1.17-1.69-2a6.17,6.17,0,0,1,2.2-2.56c.45-.26,1.73,1.07,2.43,1,.89-.11,2.27-2.26,2.07-2.58-.43-.69-1.61,1.44-2.2,1.49-.87.08-1.84-1.63-2.55-1.19-1.93,1.2-2.13,2.19-2.88,2.13a7.19,7.19,0,0,0-1.74,1.52c-.46.71-1.28.5-1.79,1a2.8,2.8,0,0,1-.87,1.31c-.8.32-1,1.19-1.82,1.16-1,1.56-1.9,3.09-3.14,3A3,3,0,0,1,32.18,66c-2.51-1.27-3.3-3.73-4.42-5.83C25.35,59.79,25.54,58.65,25,57a7.49,7.49,0,0,1-3.7.69c-1.55-.47-1.59-2.35-1.7-3.75-.6-.28-2.06-.18-2.47-.62-1.53-1.66-.94-2.55-.12-4.26a6.41,6.41,0,0,1-3.29-.86A.74.74,0,0,1,13.86,47a7.66,7.66,0,0,0,2-1.29c.64-.68,2.93-3,2.58-3.23s-2.9,2-3.37,2.5a2.46,2.46,0,0,1-1.18.6c-1.25-1.19-2.16-2.41-2.13-3.3a1.85,1.85,0,0,1,.72-1.58c.9-.49,2.84-1,2.7-1.37s-2.42.22-3.08.58a4.86,4.86,0,0,0-1.13,1c-1.21-1-2.17-2.19-1.37-4a7.8,7.8,0,0,0,1.32-.18c.79-.16,2.68-1.72,2.53-2s-2.25,1-2.88,1.08a5.25,5.25,0,0,1-2.25-.51,2.66,2.66,0,0,1-1.51-2A1.81,1.81,0,0,1,8,31.56a4.6,4.6,0,0,0,1.93.16c.92-.13,3-1.1,2.93-1.4s-2.46.49-3.14.58a3.31,3.31,0,0,1-2.15-.7,1.57,1.57,0,0,1-.66-1.29c.09-.64,1.36-1,1.89-1.05.87-.09,1.68.48,2.33.47a2.72,2.72,0,0,0,2.09-1.45c0-.21-1.15.34-2.29.37a5.13,5.13,0,0,1-2.32-.73c-.74-.43-1.29-1.19-1.13-1.33a4.94,4.94,0,0,0,3.35.36c.66-.12,2.34-1.09,2.2-1.3s-2,.43-2.54.4a6.52,6.52,0,0,1-3.62-1.27,2.22,2.22,0,0,1-.72-1.63,3.72,3.72,0,0,0,2.5,1c.85.11,3.43-.23,3.35-.59s-2.63-.08-3.34-.33A4.35,4.35,0,0,1,6,18.35a10.62,10.62,0,0,0,1.69,1.23c.67.44,2.69.78,2.76.53s-1.79-1-2.3-1.36a7.46,7.46,0,0,1-1.77-1.4L4.82,15.16c-.27-.39-.61-1.48.6-1.49a10.66,10.66,0,0,1,3.15,1.56,7.64,7.64,0,0,1,2.77,4.42,8.59,8.59,0,0,0,2.93.59c.61,0,2.35-.59,2.33-.94s-1.82,0-2.24,0a9.3,9.3,0,0,1-2.26-.46A7.29,7.29,0,0,0,9.23,14.5,11.49,11.49,0,0,0,6.37,13a4.78,4.78,0,0,1,2.49-.51c1.13.1,1.89,1.23,3.19,1.33A4.14,4.14,0,0,0,14,15.69c.86.5,3.6.72,3.71.39S15,15.56,14.37,15s-1.13-1.52-1.82-2.25a3.71,3.71,0,0,1-2.77-1C9,10.78,8.29,9.58,9,8.73A.88.88,0,0,1,9.78,8.42Z"/><path id="path4171" class="cls-13" d="M36.77,27.89a15.36,15.36,0,0,0-5.18,1.23c-3.36,1.29-7.18,2.37-9.12,5a3.57,3.57,0,0,0-.89,2.69c.07.55.41,1.3,1,1.1.87-.29,1.21-.42,1.34-.37,0,.2-1,1-1.35,1.82-.18.45-.43,1,.15,1.27.18.06,1.74-.35,1.93-.33a2.3,2.3,0,0,0,.85,1.16A4.12,4.12,0,0,0,28,42a26,26,0,0,0,5.24-.14c1.15-.23,2.34.46,3.82,1.52s3.12,2.44,5.29,2.63c.82.08,4.48-2.35,4.29-2.87s-4.26,1.57-4.36,1.56c-1.24-.11-2.86-1.44-4.4-2.54S35,39.62,32.79,40.05a21.66,21.66,0,0,1-4.55.65c-1.4,0-1.53-.65-1.13-1a17.32,17.32,0,0,1,1.85-1c.79-.53,1.44-1.15,2.42-2,2-1.65.75-1.33-.67-.61a26.65,26.65,0,0,0-2.42,1.61,6.66,6.66,0,0,1-1.34.64,8.29,8.29,0,0,0-1.14.5c-.78.38-2.38,1.29-2.37.67s1.17-1.56,2.08-2.28a14.32,14.32,0,0,1,1.95-1.49,5.86,5.86,0,0,1,2-.77c2.63-.46,1.39-.78.46-.76-2.71,0-2.62,1.07-4.44,1.85a6,6,0,0,1-2.23.31c-.19-.92.84-1.82,1.13-2.21,1.32-1.79,4.42-3.13,7.63-4.36s5.28-1.62,5.2-1.91C37.2,28,37,27.9,36.77,27.89Z"/><path id="path4242" class="cls-14" d="M48.26,25.8c-.22.19.53,1.34,1,1.71a3.55,3.55,0,0,0,3.18,1c-.71.41-2.06,1.84-1.45,2.62,1.07,1.38,3.36.1,4.74.25-.67.88-1.87,2.89-1.14,3.13,0,1,2,.68,2.42.53-.36.89-.74,1.62-.21,2.29s1.64.27,2.9-.06c-.6,1.11-.33,2.07.19,2.38s2.83-1,3.39-1.19c.35,1,.62,2.48,1.4,2.75.93.33,2.16-1,2.75-2.26.59,1.52-.18,3,.92,3.19s1.16-.87,2.11-1.93c.78-.87.66-1.55,1.21-2.91-1.24.77-2.45,2.92-2.85,3.16s-1-2.94-1.2-3.39c-.7.55-1.85,2.53-2.59,2.4s-.77-2-.87-3c-.81.27-2.46,2-3.3,1.68-.68-.22.21-2.32,1.22-3.18-1.71.6-2.44,1.42-3.76.94-.62-.23.12-2,.75-3.1a5.87,5.87,0,0,1-3.1.91c-1-.06.34-1.83.72-2.24l1.66-1.6c-1.87.09-4.33,1.43-5.61,0-.81-.89,1.68-1.81,1.39-2.19s-1.81-.21-3.58-1.06C50.12,26.46,48.48,25.61,48.26,25.8Z"/><path id="path4247" class="cls-15" d="M74.89,9.19A1.82,1.82,0,0,1,75,7.33c.16-.34.88-.64,1-.54a4.17,4.17,0,0,1,.89.85A7.19,7.19,0,0,1,77.1,9.2c.48,0,1.48-3.09,1.65-4.28a3.89,3.89,0,0,1,.14,2.76c0,.21-.25,1.66.14,2.15a2.87,2.87,0,0,0,1.49-1.3c.12-.23.92-2.41,1-2.63.42.31-.08,2.24-.18,2.56a4,4,0,0,0,0,2.85,2.48,2.48,0,0,0,1.68-1.13,5.32,5.32,0,0,0,.73-2.67c.66.75.54,1.39.2,2.47a17.91,17.91,0,0,1-1.09,2.36c.54.91,1,1.34.23,2.48-.49,0-.62.34-.83.69-.43-.12-.89.16-1.56.4s-1.55.41-1.45.93a2.09,2.09,0,0,0,1.3,1.44c0,.33-.1.44-.57.68-.9.45-2.62,1-2.54,1a15.17,15.17,0,0,0,2.8-.7,1.88,1.88,0,0,0,1-.72l.52.14a2.27,2.27,0,0,1,0,2.12c-.31.34-.93,1.43-1.28,1.59a2.45,2.45,0,0,1-2.59-.17,7.26,7.26,0,0,1-1-1.58L76.5,21a1.94,1.94,0,0,0,.5,1.32c.54.62,1.56,1.82,2.6,1.82a3.19,3.19,0,0,0,1.86-1,6.2,6.2,0,0,0,1.22-1.64,5.38,5.38,0,0,0,.13-2.61c-.06-.25-.22-.33-.68-.53a3.17,3.17,0,0,1-1.59-1c-.31-.36.19-.76.31-.78.73-.12,2.51.93,3.15.38.28-.23-1-.92-.82-1.24s.75-.09,1.09,0a3,3,0,0,0,.45-1c.32-1.6-.32-1.79-.61-2.35a5.53,5.53,0,0,0,1.26-2.26A3.65,3.65,0,0,0,84.16,6.8l-1-.87a9.43,9.43,0,0,1-.32,2.48,4.47,4.47,0,0,1-1.09,1.94,20.57,20.57,0,0,0,.79-3.91,4.75,4.75,0,0,0-1-2c-.33.22-.36,1.19-.65,1.78-.53,1.05-1.1,2-1.33,2.43a14.66,14.66,0,0,0,.41-2.34A3.89,3.89,0,0,0,79,4.07c-.32-.3-.83-1-1.26-1a8.87,8.87,0,0,1,0,1.78,5.88,5.88,0,0,1-.53,1.88A1.71,1.71,0,0,0,76,5.6a2.26,2.26,0,0,0-2.09,1,3.44,3.44,0,0,0-.46,1.95,3.18,3.18,0,0,0,.71,1.54,9.29,9.29,0,0,0,1.22.95,2.6,2.6,0,0,0,1.26.64l.83-.44s-.6-.42-1.08-.79A12.88,12.88,0,0,1,74.89,9.19Z"/><path id="path4897" class="cls-16" d="M79.62,17a3.62,3.62,0,0,0,2.51,1.24l4.6,3.14a3.3,3.3,0,0,0,.5-2.4,19.34,19.34,0,0,0-2.76-3.53,1.71,1.71,0,0,0-1.66-.08l-.15,1.1A2.55,2.55,0,0,0,79.62,17Z"/><path id="path4251" class="cls-17" d="M83.51,14.18c.07.34-.31.42-.32.64-.18,0-.55-.08-.83.73-.2-.13-.51-.05-.94.13-1,.43-.92.31-1.65.58-.35.13-.71.27-.34,1.06.57,1.2,2.2.91,3,1.58l2.23,1.85a3.82,3.82,0,0,0,2.41.89l.2-.74a4.5,4.5,0,0,0,.28-2,3.55,3.55,0,0,0-1-1.76l-2-2.24C84.22,14.54,83.9,14.12,83.51,14.18Zm2.34,3.47a4.28,4.28,0,0,1,.79,1.1,1.61,1.61,0,0,1,0,1.66,16.6,16.6,0,0,0-1.31-1.36,8,8,0,0,0-2.08-1.2,4,4,0,0,0-1.54-.46c-.5.05-.93,0-1-.41A2,2,0,0,1,82,16.84l.92.23a1.47,1.47,0,0,0,1.11,0c.46-.13-.44-.78-.7-.95-.27-.54.52-.7,1-.27a8.38,8.38,0,0,1,1.6,1.82Z"/><path id="path4220" class="cls-18" d="M79.48,15.86a1.24,1.24,0,0,1-1.73-1.77,1.26,1.26,0,0,1,1.77,0,1.24,1.24,0,0,1,0,1.77Z"/><path id="path4220-6" class="cls-19" d="M79.22,15.52a.73.73,0,0,1-1-1,.74.74,0,0,1,1,0,.73.73,0,0,1,0,1Z"/></g></svg>