<svg id="svg2" xmlns="http://www.w3.org/2000/svg" xmlns:xlink="http://www.w3.org/1999/xlink" viewBox="0 0 93.54 96.38"><defs><style>.cls-1{fill:none;}.cls-10,.cls-2,.cls-3,.cls-4,.cls-6,.cls-8{fill:#fff;}.cls-2{stroke:red;}.cls-2,.cls-3,.cls-4,.cls-7,.cls-8{stroke-width:0.3px;}.cls-3{stroke:#cf0;}.cls-4,.cls-7{stroke:#f60;}.cls-5{fill:url(#pattern5955-5);}.cls-7{fill:url(#pattern5767-3);}.cls-8{stroke:#fc0;}.cls-10,.cls-9{stroke:#000;stroke-linecap:round;stroke-linejoin:round;}.cls-9{stroke-width:0.37px;}.cls-10{stroke-width:0.37px;}</style><pattern id="pattern5955-5" data-name="pattern5955-5" width="93.54" height="96.38" patternTransform="matrix(0.57, 0, 0, -0.59, 31.26, 651.28)" patternUnits="userSpaceOnUse" viewBox="0 0 93.54 96.38"><rect class="cls-1" width="93.54" height="96.38"/></pattern><pattern id="pattern5767-3" data-name="pattern5767-3" width="93.54" height="96.38" patternTransform="matrix(0.81, 0, 0, -0.85, 31.87, 584.59)" patternUnits="userSpaceOnUse" viewBox="0 0 93.54 96.38"><rect class="cls-1" width="93.54" height="96.38"/></pattern></defs><title>Rooster-10</title><g id="layer2-6"><path id="path4241-9" class="cls-2" d="M62.22,74.71l1.59,5.5a3.07,3.07,0,0,0-2.09,1.56A5.12,5.12,0,0,0,61.9,84a3.26,3.26,0,0,1,2.63-1.53l.14,1.1c-2.62,1.49-2.62,3.25-3.3,4.94l2.17-.91,1.74-1.56c2.59,1.6,4.08,4.1,6,6.28.48.21.84.13.83-.94l-1-2.74L75,90.22l.7,2.15,1-1.29a3.65,3.65,0,0,0-1-3.36,42.84,42.84,0,0,0-6.22-2.79c-1.62-2.81-2.19-6.33-3.24-9.53Z"/><path id="path4239-266" class="cls-3" d="M53.88,75.05l-.79,4.67A7.18,7.18,0,0,0,48.8,78.5a3.15,3.15,0,0,0-3-.11,5.78,5.78,0,0,1,2.81,2.39,22.38,22.38,0,0,1,3.49,1.36,9.13,9.13,0,0,1-2.62,2.36,9.31,9.31,0,0,0-3,1.48c-.86,1.3-1.53,2.58-1,3.68,1.45-1.06.4-1.94,5.65-3.26a9.75,9.75,0,0,0,4.55,3.53l2.51.72a5.6,5.6,0,0,1,2.65,1.78c.37-.43,0-1.49-.49-2.73a4.51,4.51,0,0,0-1.9-1.22c-.91,0-1.27-.74-1.7-1.36.55-.75,1.11-.6,1.67-.57l2.84,1.29c.22-.34-.13-1.42-.61-2.66-1.64-.88-3.21-1.55-4.36-.83a4.29,4.29,0,0,0,.19-3.88l.72-3.83C56.41,75.58,55.59,74.53,53.88,75.05Z"/><path id="path4227-0" d="M61.71,74.44c.37,2.08.36,3.63,1.54,5.5a3.47,3.47,0,0,0-1.73,1.2c-.56,1.33-.12,2.18.4,3.39a2.43,2.43,0,0,1,2.22-1.3c-.75.77-1.94,1.31-2.48,2.18a7.3,7.3,0,0,0-.83,2.8l-.22,1.56a15,15,0,0,0,2.28-1.51l.51.22.36-.42c.55-.62.91-1,1.56-1a3.21,3.21,0,0,1,1.49,1.09c.79.9,1.42,1.76,2.08,2.58a2.66,2.66,0,0,1,1.38,2l.13.76.76-.14A1.88,1.88,0,0,0,72.64,92a3.2,3.2,0,0,0-.55-2.23,13.28,13.28,0,0,0,2.1.58c.56.15.83.4,1,1.32l.2,1.44,1.43-.77c.55-.3.68-1.42.69-2.36a3.63,3.63,0,0,0-1.6-3c-1.58-1.06-2.79-1-4.17-1.75a6.25,6.25,0,0,1-2.28-1.8,8.73,8.73,0,0,0-.8-2,41.21,41.21,0,0,0-1.49-6.6C65.89,75.43,63.73,75.17,61.71,74.44Zm4,1.92c.52,1.46,1,2.84,1.43,4.34a22.74,22.74,0,0,0,.94,3,8.27,8.27,0,0,0,2.1,2.57,24.08,24.08,0,0,1,4.56,2,2.82,2.82,0,0,1,1.2,3.06,2.61,2.61,0,0,0-1.28-2.06c-1.47-.49-3.4-.86-4.56-1.64-.77-.45-.54-.14-.23.25l1.66,3.45c-.31-.33-1.29-1.25-1.89-1.85a24.17,24.17,0,0,0-1.69-2.27,4.17,4.17,0,0,0-2.46-1.59h-.06c-1.16,0-1.57,1-2.16,1.64,0,0-.59.21-.46-.41a3.17,3.17,0,0,1,.18-.62c.36-.62.59-1.62,1.71-2a11.77,11.77,0,0,1,3.5,1.06c0-.29-2.33-2.07-3-1.87a3,3,0,0,1,0-1.62A4.78,4.78,0,0,0,62,83.34c-.15-.8.59-1.84,1.63-2.64a1.88,1.88,0,0,1,.79-.18l-1-4.58A2.64,2.64,0,0,0,65.7,76.36Z"/><path id="path4233-1" class="cls-4" d="M9.15,72c-2.5-.16-4.32-2.15-6.54-5.6C1.47,61.72.33,57.31,2.33,51.48c1.09-4.42,3.45-7.7,7-11.4a38,38,0,0,1,10.78-3.79,27.91,27.91,0,0,1,13.8,5.16,11.57,11.57,0,0,0,9.86,2.74c4.31-1.25,8.61-2.52,13-7,2-2.6,4.14-5,5.31-8.8s1.22-7.67,4.55-11.85l8-3.94c2.84-.22,5.76-.6,8.2,0l-4,2.27A4.93,4.93,0,0,0,80,19.29l2.73,2L82.58,24l2.73,9.57.46,13.82a35.25,35.25,0,0,1-6.68,11.08l-8.8,8.2-1.06,6.22c-1,1.13-1.81,2.37-3.6,2.66L62.44,74,57,76.72c-.89-2.4-2.5-1.88-3.92-2.15L49,70,47.47,73l-3.7-5.47q-1.6,2-4.29.05a2.19,2.19,0,0,1-2.95-1c-1.25.52-2.37-.28-3.48-1.18-1.18,2.29-.27,3.27-.38,4.89-1.75-1-2.36-1.87-3.92-6-1.4,0-1.88,2.06-2.36,3-.36-5.14-1.48-5.83-.69-15.83-.76-.18-2.05,5.15-2.42,7.89-1.19,4.21.51,7.7,1.45,11.38-1.63-.46-3-2.2-4.18-4.51-.66-1.25-1-3.44-1-7l1.88-6.12-.38-1.72c-.44-.64-.89,1.57-1.34,2.58-.81,2.27-1.27,5.59-2.46,6.71-.64-1-.26-4.84-.38-7.3a14,14,0,0,0-1.61,3.43L12.93,68.67C11,67.11,11.09,63.19,11.43,59l-1.88-.16c.09,1.74.27,3.55-.75,4.46-1.25-.81-2.6-3.5-3.7-5.16-.44,2.18.17,6.6,1.23,9.34Z"/><path id="path5769-2" class="cls-5" d="M85,33.57c2,6.79.59,10.15.61,15-4.71,7.71-9.7,13.79-15,18.06l-1.36,6.3-3,2.81-3.94-1.52c-1.65.94-3.24,2.11-5.08,2.28a4.71,4.71,0,0,0-3.42-1.67L49,70l-1.59,2.88-3.8-5.77c-.83,1-1.57,2.21-4.17.08-2.07,2.26-2.28,0-3-.91-1.36.63-2.47-.51-3.64-1.22-1.2,1.73-.4,3.45.38,5.17-2.66-.17-3.77-2.91-4.63-6.08-1.68,1-1.71,2.25-2.28,3.42C25.58,62.75,24.49,58.2,26,52c-.23-1-.7-.44-1.14-.08-1.16,2.43-2.28,4.89-2,8.5A54.06,54.06,0,0,0,25,70.84a9,9,0,0,1-4.63-4.78,33,33,0,0,1-.45-8l1.51-6.68-.76-.15-2.73,9H16.92s-.05-6.11-.15-6.68a16.61,16.61,0,0,0-1.52,4.17L13,68.72,11.46,67.5l-.15-8.35-1.44-.68A10,10,0,0,1,9,63.56c-1.59-1-2.78-2.86-3.87-5-.39,2.9.37,5.06.68,7.51a16.21,16.21,0,0,0,3.5,6.2S5.4,71.13,4.16,69.53C1.49,66.08.41,61.73,1,56.72c.61-5.19,2.55-11.48,5.16-14.19s6.61-4.47,12.06-5.7c4.87-1.09,9.84,1.23,14.41,4,2.67,1.63,5.61,3.44,8.73,3.41,4.73,0,13.12-5.39,13.12-5.39l.84,4.33c.51,1.26,1.31,2.2,4,1.06-1.78,3-2.11,5.47-2.74,8,2.75,1.67,7.11,4.21,14.49,1.06,3.49-3.46,2.63-7,2.51-8.65a7.37,7.37,0,0,0,3.87-1.21c1.94-.84,3.43-3.82,5-5.77Z"/><path id="path5771-6" class="cls-6" d="M47.45,43.29s-3,2.58-3.75,2.27S38.36,47,38.24,47.23a22,22,0,0,0-5.77,6.38,10.19,10.19,0,0,0-2,7.44l4.1-5.54A13.09,13.09,0,0,0,33,60.94L34.63,59c-.83,4.8-.38,5.29-.19,5.81a15.74,15.74,0,0,0,2.66-7l.38,7.1c.83-2.76,1-5.6,3.26-8.17a14.31,14.31,0,0,0-.64,5.77,5.38,5.38,0,0,0,2.31,3.84l-.72-4.67.45-3c.75,2.27,1.21,4.58,2.51,6.76l2.16,3.22A22.38,22.38,0,0,1,46.05,63l1.71,3.56a7.55,7.55,0,0,0,2.58,2.2l-2.51-4.74.23-1.9a10.28,10.28,0,0,0,1.86,3.38l1.93,1.1a18.15,18.15,0,0,1-1.59-5.58,29.7,29.7,0,0,0,2.28-4.44,32.12,32.12,0,0,1,.26,6.19l2.13-4.75,3.18-11.5.72-2.2c-1.14.81-2.13.39-3.07-.3-.49-1.64-1.1-4.42-1.48-4.9Z"/><path id="path4169-0" d="M78.6,11.89c-.75,0-1.61.11-3.23.24-2.88.23-6.28.78-8.47,2.79s-3.29,4.78-4.11,7.24c-1,3.08-1.65,7.06-3,9.34a21.29,21.29,0,0,1-7.1,7.28c-3.85,2.48-5.66,4-10.09,4.58-1.79.24-3.86-.43-5.71-1a15.82,15.82,0,0,1-3.63-2.26c-2.89-2.16-6.64-4.33-10.94-4.6S11.54,36.92,8.15,39.62c-4.57,3.64-7,9.75-7.49,15.05A34.2,34.2,0,0,0,.61,64a17.25,17.25,0,0,0,1.85,4.65,9.52,9.52,0,0,0,4,3.51c1.42.75,3.85.73,5.08.92-.67-1-1.8-1.86-3.08-3.52A12.1,12.1,0,0,1,6,64.06c-.13-.54-.35-3.26-.38-3.77a28.47,28.47,0,0,0,1.76,3.35c.38.53,1.14,1.17,1.78.86s.76-1.34.91-1.77c.31-.83.19-2.6.57-3.5.08.81,0,5.25.18,6.74.18,2,.94,4,1.71,4.13,1.36.17,1.6-2.77,1.86-4.22l.76-4.38c.37-2.06.71-4.14,1.09-6.2.59-1.26.18,1.14.19,1.17a16.9,16.9,0,0,1,0,2.66c-.13,1.07.05,2.54.38,2.56a2.11,2.11,0,0,0,1.62-1c.22-.2,2.1-8.34,2.58-8.92.32.93-1.56,5.08-1.81,8a16.35,16.35,0,0,0,1.15,7.73c.76,1.52,3.93,4.9,5.59,4.13-.58-2.41-1.81-4.63-2.05-6.91a32.22,32.22,0,0,1-.08-6.45A21.93,21.93,0,0,1,25,52.94c.43-1.35.79-1.86.37.07-1.1,5-.63,14.5,1.07,16.76.41-1.55.94-4.8,2-5,.17.43.1,3.29,1,4.25a7,7,0,0,0,4.72,2.26c-.27-1.42-1.13-3.7-.68-5,.66,1.32,1.72.88,2.76.94.27.29.68,1.56,1,1.71,1,.45,1.43-.46,2.39-.78.34.17.94,1,2,1.07a2.74,2.74,0,0,0,2.12-.61c.68,2,2.76,4.57,4.26,5.12l1.21-2.89c.57.61,1.09,2.08,1.59,2.5,1.3,1.27,2,1.26,3.11,2.57.64-.22,1.11-.43,1.54-.13a2.92,2.92,0,0,1,1.25,1.54,15.55,15.55,0,0,0,5.88-2.53,9.06,9.06,0,0,0,3.62,1.46c4-2.08,4.68-5.77,4.79-9.3a101.36,101.36,0,0,0,8.09-7.5c2.34-2.61,6.33-6.77,7.37-10.92A31.24,31.24,0,0,0,86.59,36,80.1,80.1,0,0,0,84,25.86c-.24-.63-.89-1.91-1-2.24a3.14,3.14,0,0,1,0-2.55l-2.52-2.46A7.68,7.68,0,0,1,79.31,16c-.16-2.17,2.24-2.38,4.81-3.13a26.5,26.5,0,0,0-3.7-.9c-.42,0-.77-.07-1.09-.08Zm2.21.92a3.35,3.35,0,0,1,1,.11c-1.75.35-4,1.59-3.48,4A7.88,7.88,0,0,0,79.72,20a8.13,8.13,0,0,0,2.7,1.5c-.44,1.26-.93,2.05-.48,2.68a4.45,4.45,0,0,1,.59,1.86c.09.3,1.51,7,1.88,9.93.53,4.28.62,8.45-.32,12-.79,2.93-4.15,7.11-6.48,10.12a87,87,0,0,1-7.91,8.16c-.19,3.72-1.45,8.93-4.6,8.68l-1.36-1a17.86,17.86,0,0,0,1.81-2.19c.68-1,1.14-2.24.79-2.34s-1.13.74-1.72,1.55a9.25,9.25,0,0,1-2,1.94,19.59,19.59,0,0,1-5.24,3,7.24,7.24,0,0,0-1-1.08,2.27,2.27,0,0,0-1.83-.57,11.55,11.55,0,0,0-2.25-2.53,10.36,10.36,0,0,1-3-2.77l-1.77,2a12.54,12.54,0,0,1-1.75-2A9.16,9.16,0,0,1,44,65c-.72,1.1-1.38,2.18-2.26,2.33s-1.08-1-1.83-1.23c-.61,0-1.47.91-1.89.8s-.45-1-.76-1.4a5.69,5.69,0,0,1-3.68-1.42,2.4,2.4,0,0,0-1.8,1.4,5.22,5.22,0,0,0,.28,3.31A6.84,6.84,0,0,1,30,66c-.39-.87-.47-1.28-1.13-2.65a3.26,3.26,0,0,0-2,1.87c-.53-4.37-1.21-7.76-.62-12.69.21-1.71-.93-1.88-1.69-.75a13.91,13.91,0,0,0-2.22,7c-.23,2.89,0,7.44,1.59,10.65-2.93-1.22-4.07-8.13-3.29-11.51.44-2.51,1.33-4.39,1.06-7-1.45-.39-1.27.17-1.85,1.29a28.59,28.59,0,0,0-1.34,4.88l-1.06,2.4-.06-4.09.18-3.39c-1,.15-1.18,1-1.63,2.08a29.94,29.94,0,0,0-1.57,5c-.57,2.34-.75,4.08-1.21,6-.21.87-.55,1.57-1,.76s-.38-.15-.37-3.7c0-1.82.79-6.21,1.55-7.48a8.58,8.58,0,0,1,1.3-1.88A17.56,17.56,0,0,1,18.19,50,12.43,12.43,0,0,1,25,48.67a16.15,16.15,0,0,1,3.32.76c1.08.36,2.22.44,2.3.25s-.83-.65-2-1a16.72,16.72,0,0,0-4-.95,11.57,11.57,0,0,0-6.93,1.35,13.29,13.29,0,0,0-3.42,2.25,10,10,0,0,0-2.48,3.94c-.28,1.16-.5,3.45-1.12,3.19-1.05-.44-.6-2.26-.27-3.51a8.4,8.4,0,0,1,1.35-3A12.34,12.34,0,0,1,15.41,48a12.84,12.84,0,0,1,9.37-1.63,34.25,34.25,0,0,1,4.83,1.26c1.12.43,4.35,1.79,4.51,1.48s-2.77-2-4-2.48a25.75,25.75,0,0,0-4.39-1.25,18.86,18.86,0,0,0-5.4-.32A12.34,12.34,0,0,0,15,46.84a14.91,14.91,0,0,0-4.42,4.21,7.94,7.94,0,0,0-1.46,3.6L9,59c0,.42.51,2.22-.45,2.6-1.77.7-2.5-3.24-2.62-3.89a11.42,11.42,0,0,1,.76-4.43,20.41,20.41,0,0,1,5.68-7.37c2.95-2.41,6.5-2.94,9.82-2.88,4.18.07,13,4.86,13.23,4.5S27,42,22.25,41.91c-3.45,0-7.28.36-10.61,3.08-3.48,2.84-6.21,6.55-6.86,10.23a26.23,26.23,0,0,0,0,9.45c.07.43,1.6,4.91,2.44,6-2-.06-3.65-3.49-4.32-6.19a25.41,25.41,0,0,1,0-9.41C4.06,49,6.74,44,9.52,41.69s4.69-4,12.62-4.17c3.29-.08,6.84,2.34,10,4.39a14,14,0,0,0,3.72,2.31,15.57,15.57,0,0,0,6.64.7c4.74-.65,7.54-2,11.48-4.56a22.61,22.61,0,0,0,7.88-7.62c1.77-3,2.32-7.09,3.22-9.82.76-2.3,1.88-4.78,3.44-6.21,1.34-1.23,5.4-3,8-3.44A29.29,29.29,0,0,1,80.81,12.81Z"/><path id="path4195-0" d="M81.89,38A15,15,0,0,1,79,41.19C77,42.9,74.9,44,72.61,43.88c-1.06,0-2.19-1.12-3-2.33a16.31,16.31,0,0,1-1.71-3.45,40,40,0,0,1-5,3.81,14.47,14.47,0,0,1-3.55,1.65,3.18,3.18,0,0,1-2.71-.07c-1.7-1.3-1.4-3.73-1.77-3.45s-.53,3.57,1,4.77c1.06.83,2.55.6,3.9.22A15.9,15.9,0,0,0,63.32,43c2-1.25,3.88-3.7,4.4-4.14.22.49.45,2.79,1.1,3.75.93,1.38,1.82,2.78,3.74,2.85,3,.1,4.8-1,6.85-2.72a18.47,18.47,0,0,0,3.14-4,7.8,7.8,0,0,0,1.31-3.56C83.72,35,82.8,36.55,81.89,38Z"/><path id="path4197-0" d="M41,45.63a14.4,14.4,0,0,0-4.9,2.56c-3.21,2.69-5.27,7.31-5.57,8a9.53,9.53,0,0,0-.79,3.09c0,.71-.07,2,.45,2.3.68.33,1-1,1.45-1.4.24-.24,1.62-2.79,1.92-3.22-.05.43-.83,2.77-.93,3.18A2.28,2.28,0,0,0,32.89,62L34,60.14c.06,2.12-1,3.84.62,5.16A11.27,11.27,0,0,0,36.87,61l.25,4c0,.31.33.82.61-.11a35,35,0,0,1,2.41-7,9.5,9.5,0,0,0,.22,6.69,3.71,3.71,0,0,0,2.35,2.09c-.08-1-.23-2.1-.51-3.79a9.16,9.16,0,0,1,0-3.22,24.07,24.07,0,0,0,1.15,4.47,12.54,12.54,0,0,0,2.3,4c.61.63,2.18,1.88,2.18,1.88a13,13,0,0,1-1.26-5.36c.41,1.92,1.79,3,3.32,4.26s1.29.33.55-.67a16,16,0,0,1-2.23-5,8.08,8.08,0,0,0,2.73,3.46c1.85,1.13,1.43,0,1.23-.43A10.59,10.59,0,0,1,51.09,61c.49-.21,1.35-3.48,1.33-3.66a45.38,45.38,0,0,1-.17,6.59c1.66-1.08,2.25-2.91,2.84-4.54a41.84,41.84,0,0,0,1.29-4.92c.46-2,2.26-8.3,1.89-8.37s-2.34,6-2.82,8.11A29,29,0,0,1,53.11,61a21.68,21.68,0,0,0-.41-5.67L51.5,58a6.61,6.61,0,0,1-2.09,2.5l1.38,5c-.93-.18-2.09-2.35-2.47-4-.27-1.18-.51-.76-.56.13a7.75,7.75,0,0,0-.07,2.42A16.94,16.94,0,0,0,49.44,68c-2.08-2.13-3.22-5.52-3.72-7.18a22,22,0,0,0,.3,6c-.34-.71-1.82-3.4-2.14-4.14a20.18,20.18,0,0,1-1.48-5.18c-.78.74-1.12,2.86-1,4.49a14.55,14.55,0,0,0,.67,3.77,11.78,11.78,0,0,1-1.43-3,13.05,13.05,0,0,1,.53-6c.53-2.17-.2-.89-.62-.46-1.17,1.19-2.3,4.53-2.79,6.05-.14-1.89-.25-3.28-.37-5.72-.08-1.82-.31-.82-.44,0-.38,2.43-1.22,6.24-2.36,7.29.25-2,0-3.78.78-6.17-1,.46-1.33,1.43-1.9,2.21-.2-1.1.92-3.76,1.59-4.81.92-1.42.24-.75-.37-.29a10.16,10.16,0,0,0-2,2.18c-.09.12-1.79,2.92-1.86,3-.42-.6.66-3.07.76-3.32.2-.48,3.05-5.87,5.61-8a17.17,17.17,0,0,1,4.09-2.21c1.64-.66,3.32-.9,3.18-1.16s-1.69-.22-3.4.27Z"/><path id="path4199-0" d="M73.79,45.56c-.32,0-.15,1.45-.57,3.36s-1.75,4-5.6,5.14a14.47,14.47,0,0,1-6.54-.23c-2.36-.59-3.52-1.38-3.74-1.06s.94,1.41,3.39,2,5.17,1.14,7.31.53c4.28-1.22,5.55-3.6,6-5.93S74.11,45.54,73.79,45.56Z"/><path id="path4201-3" d="M63.54,62.15a14.3,14.3,0,0,1-2.92,2,3.56,3.56,0,0,1-2.41,0c-1,.66-1.87.78-2.56-.1-.21-.26-.47-.44-.66-.7a1.75,1.75,0,0,1-.45,1c-.3.29-1.7,1.23-1.58,1.6s1.89-.57,2.37-1c.84.47,1.7,1,2.86.22a4.54,4.54,0,0,0,3,.09,17.49,17.49,0,0,0,2.29-1.78,9.06,9.06,0,0,0,1.62,2c1,.8,3.88,1,3.9.59s-2.4-.77-3.16-1.41A11.78,11.78,0,0,1,63.54,62.15Z"/><path id="path4235-8" class="cls-4" d="M82.5,12.79a21.12,21.12,0,0,0-5.63-.92c-.9-.09-1.43-.88-1.72-2.09-.38-.71,2.39-2.9,3.81-2.68a6.78,6.78,0,0,1,1.93,1c.76,0,1.38-1.19,2-2,.39-.3.79-.74,1.18.32L84.27,9c1.16-.49,2.68-1.29,3-1l-.53,2.41,3.38.16a3.77,3.77,0,0,1,.64,3.12,1.59,1.59,0,0,1-1.34,1.87l-2.74-.64c-1.53.79-2.19,1.7-1.5,2.79l1.56,1.67-.81,6.38c-.51.67-.61,2.1-1.66,1.78-.93-.71-1.26-2.6-1.82-4l.37-2.15c-1-.66-2-.86-3.06-2.15a5,5,0,0,1-.85-3,3.77,3.77,0,0,1,1.07-2Z"/><path id="path4235-2-89" class="cls-7" d="M82.48,12.93A20.35,20.35,0,0,0,76.85,12c-.9-.1-1.42-.89-1.71-2.1C74.76,9.2,77.53,7,79,7.23a6.93,6.93,0,0,1,1.93,1c.75-.05,1.37-1.19,2-2,.39-.3.78-.74,1.18.33l.16,2.52c1.16-.48,2.68-1.29,3-1l-.54,2.42,3.38.16a3.76,3.76,0,0,1,.65,3.11,1.59,1.59,0,0,1-1.34,1.88L86.67,15c-1.53.79-2.19,1.7-1.5,2.8l1.55,1.66-.8,6.39c-.51.67-.61,2.09-1.66,1.77-.93-.71-1.26-2.59-1.83-4l.38-2.14c-1-.66-2-.86-3.06-2.15a5,5,0,0,1-.86-2.95,3.86,3.86,0,0,1,1.08-2Z"/><path id="path4211-0" d="M83.56,5.28c-1.09-.19-1.94,2.18-2.34,2.25-.66.12-1.89-1.77-3-1.47a5.36,5.36,0,0,0-3.48,2.46c-.81,1.31.42,3.79,1.9,4.17,1.21.35,3.93,0,5.17.17-.75.36-2.88,1.1-3.13,2a3.54,3.54,0,0,0-.32,2.7c.31,2,1.82,3.14,4.1,3.95-.09.61-.61,1.57-.64,2.18a21.73,21.73,0,0,1,.92,2.73c.31,1.44.43,3,1.13,3,1.73,0,2.32-2.65,2.9-4.23s-.08-2.77.3-4.3c.22-.9.24-1.55.54-2.43-.64-.22-1.23-.35-2.07-.69s1.06-2.14,1.61-2.18a13.27,13.27,0,0,1,3,1.3,5.24,5.24,0,0,0,1.43-2.55c.12-1.72.1-3.14-1.32-4.43-.71-.64-2.63.25-2.82,0s1.14-1.77.23-2.51-2.78,1.26-3,1.06.75-2.9-1-3.2Zm-.23,1.59c1,.12-.26,2.74,1,2.65.67,0,1.84-1.09,2.19-.75s-.39,1.57-.1,1.92c.52.65,2.71-.07,3.35,1A2.47,2.47,0,0,1,89,14.77a2.58,2.58,0,0,0-3.21-.22,3.81,3.81,0,0,0-1.55,2.2,1.76,1.76,0,0,0,1.62,2.06c-.59,1.64,0,4.36-.77,5.93-.18.36-1.09,1-1.36,0-.16-.57-.64-1.09-.61-1.67l.1-2c-1.48-1.18-2.79-2-3.32-3.69-.19-.8-.41-.81-.22-1.66.26-1,1.28-1.5,2.16-1.86.7-.28,1.09-.53,1.71-.75.5-.06.55-.36.21-.65-2.22-.34-4.15-1-6.38-1.28-1.25-.17-1-1.5,0-2.28.69-.58,2.22-1.34,2.94-.84s.83,1,1.49.17C82,8,82.92,6.83,83.33,6.87Z"/><path id="path4237-0" class="cls-8" d="M85.84,15.38a2.63,2.63,0,0,1,2.89-.19c1.75,1.3,3.79,2.41,4.4,4.48l-.27.34-1.1-.61c-3.23.77-4.7-.73-6.6-1.67A2.48,2.48,0,0,1,85.84,15.38Z"/><path id="path4216-8" d="M86.13,14.47a4.44,4.44,0,0,0-1.66,1.27,2.16,2.16,0,0,0-.08,2A3,3,0,0,0,86,19.55a23.85,23.85,0,0,0,3.42.7,3,3,0,0,0,2.35-.45l1.49,1a1.82,1.82,0,0,0,0-1.93A8.66,8.66,0,0,0,89,14.63a3.82,3.82,0,0,0-1.84-.45A2.83,2.83,0,0,0,86.13,14.47ZM88.32,16a12.9,12.9,0,0,1,4.26,3.41,24.86,24.86,0,0,0-3.14-.76,23.88,23.88,0,0,1-2.69-1c-.23-.08-1.15-.34-1-.81a2.4,2.4,0,0,1,1-1A2.7,2.7,0,0,1,88.32,16Z"/><path id="path4220-4" class="cls-9" d="M84.55,15.7a1.33,1.33,0,1,1,0-1.9,1.33,1.33,0,0,1,0,1.9Z"/><path id="path4225-9" d="M53,74.52l-.6,4.14a9.21,9.21,0,0,0-3.58-.55c-1.45-.69-3.1-1-4.34.59a2.57,2.57,0,0,1,1.86.36c.8.49.86,1.45,1.44,2,.32.3,1.45.17,2.06.42s1.48.58,1.84.7l-1.08.77a13.72,13.72,0,0,0-4.1,2.21,4.07,4.07,0,0,0-1.75,4.47,2.38,2.38,0,0,0,.81,1.17c.43-.82.69-1.86,1.73-2.07A8.64,8.64,0,0,0,50.74,87a13.06,13.06,0,0,0,1.56,2.09,4.67,4.67,0,0,0,2.76,1.5,3.52,3.52,0,0,0,.9.65,2.52,2.52,0,0,0,1,0C58.62,91,59.85,92,61,93.2l.09-1.29a4.11,4.11,0,0,0-1.7-3.57c-.33-.25-.65,0-1-.24s-.92-.24-1.1-.84c.5-.42,1.56.33,2.06.45s.78,0,1.18.28l.94.7.07-1A3.66,3.66,0,0,0,60.65,85c-1-1-2.52-2.07-3.79-1.89.29-.82.75-1.59,0-2.69.52-1.16.37-1.89.71-3.78-.74-1.18-1.49-2.08-2.27-2.21a10.13,10.13,0,0,0-2.34.08Zm3.23,2.24a16.1,16.1,0,0,1-.82,3.88c1.39,1.21-.82,3.07-1,4.79a5.79,5.79,0,0,1,2.75-.62c.85,0,3.1.74,3.16,2.32-.91-.51-1.58-1.06-2.48-1s-2.93-.41-3.53.09c1,.92,1.71,2.73,4.1,2.91.69,0,2.2,2.28,2.09,2.43-1-.86-1.92-1.85-3.09-1.89-.26.23-.59.11-.8.12a3.69,3.69,0,0,1-.89-.73c-1,.09-1.71-.81-2.42-1.21-.93-.87-.2-2.26-1-3.14-.8.47-1.85,1.71-3.33,1.87a4.8,4.8,0,0,0-3.21,1.55c.19-.3.66-1.81,1.11-2A11.79,11.79,0,0,0,51,84l2.2-2.41A2.81,2.81,0,0,0,51,81.15c-1.15-.34-1.39,0-2.31-.85a18.31,18.31,0,0,0-1.51-1.6,12.73,12.73,0,0,1,5.38,1.6l.68,1,1.06-5.41a2.83,2.83,0,0,1,.84-.08c.23,0,.58.26,1.06.93Z"/><path id="path4220-6-0" class="cls-10" d="M84.27,15.33a.78.78,0,1,1,0-1.12.79.79,0,0,1,0,1.12Z"/></g></svg>