<svg id="svg9259" xmlns="http://www.w3.org/2000/svg" viewBox="0 0 398 417"><defs><style>.cls-1{fill:#fc0;}.cls-1,.cls-2,.cls-3,.cls-5{stroke:#000;}.cls-1,.cls-2,.cls-3,.cls-4,.cls-5,.cls-6{stroke-width:2.88px;}.cls-2{fill:#f60;}.cls-3{fill:#e9c6af;}.cls-4{fill:#deaa87;}.cls-4,.cls-6{stroke:#090907;}.cls-4,.cls-6,.cls-7{opacity:0.99;isolation:isolate;}.cls-5{fill:none;}.cls-6{fill:#fff;}</style></defs><title>Rooster-05</title><g id="g8779"><path id="path8006" class="cls-1" d="M173.54,320.33c-.15,22.93,5.4,27.67,6.79,40.76,0,0-27.74-10.8-36.64-6.91s-37.29,16.34-4.94,10.22a92.2,92.2,0,0,1,21.34-1s-39.15,13.31-34.1,21.34,34.2-12.57,34.2-12.57-15.66,25.12-9.7,27,9-18.44,23.12-22.58S207,401,201,387.72c-6.11-13.46-2.13-16.21-11.17-39a104.92,104.92,0,0,1-6.92-26.26"/><path id="path7994" class="cls-1" d="M233.6,322.49l.72,3.46c-1.29,28.45,5.12,32.83,6.63,47,0,0-27.74-10.8-36.64-6.91s-37.29,16.34-4.95,10.22a92.2,92.2,0,0,1,21.34-1s-39.14,13.31-34.09,21.34,34.19-12.57,34.19-12.57-15.66,25.12-9.7,27.05,9-18.45,23.13-22.59,33.39,24.35,27.37,11.09c-6.12-13.45-2.13-16.21-11.18-39-6.62-16.7-8-30.26-7.34-40.52"/><path id="path7990" class="cls-1" d="M40.88,109.9,3.82,138.73,57.36,148Z"/><path id="path7983" class="cls-2" d="M114.67,5.17C105.43,4.71,86.3,40.52,82.11,43,77,46.12,80,20.37,59.45,17.28s-6.17,27.79-6.17,27.79S36.81,28.6,19.31,42C4.81,53.08,30.39,73.94,43.17,86.08c.6-1,1.19-1.94,1.85-2.87a49.05,49.05,0,0,1,3.11-3.95c1.1-1.27,2.25-2.49,3.47-3.65s2.51-2.28,3.85-3.33,2.71-2,4.15-3,2.92-1.8,4.45-2.59,3.13-1.52,4.74-2.17,3.26-1.22,5-1.72,3.43-.94,5.19-1.28,3.55-.59,5.37-.76,3.65-.28,5.52-.28,3.7.1,5.52.28,3.61.42,5.37.76,3.48.78,5.17,1.28,3.36,1.07,5,1.72,3.19,1.38,4.72,2.17,3,1.66,4.45,2.59,2.84,1.9,4.18,3,2.6,2.16,3.82,3.33c1,1,2,2,2.91,3,12-14.17,25.6-34.06,23.23-50.05C150.39,3,117.38,41.38,111.93,47.9c3.57-4.68,10.32-16.47,7.24-35.77-.78-4.83-2.37-6.85-4.5-7Z"/><path id="path7988" class="cls-3" d="M102.43,241.68c0,11.33-3.09,18.54,11.32,41.19,14.94,23.46,65.41,45.2,98.84,42.21,30.37-2.72,45.3-6.18,71-28.83,23-20.22,42.21-67.95,46.33-66.92s38.09,23.68,50.44,2.06-22.65-24.71-27.79-24.71,45.66,4.58,38.09-26.77c-12.05-48.28-65.25,44-55.6,16.47,4.12-15.95,47.56-83.89,26.77-85.45-20.56-1.53-39.12,62.8-39.12,62.8s7.18-73.78-22.65-67.94C260.37,113.55,296,183,296,183s-45.3,5.15-68-8.23-51.47-36-75.15-26.77-43.36,12.69-46.33,25.74c-5.15,22.65-4.12,67.95-4.12,67.95Z"/><path id="path7963" class="cls-4" d="M91.86,59.49c-29.85,0-54,23-54,51.46,0,23.46,16.47,43.25,39,49.46-4.11,16.22-15.5,70.79.11,69,17.5-2.06,18.54-35,18.54-35s25.72,60.73,31.9,23.67,0-46.31,0-46.31,54.57,44.27,37.07,16.47-25.73-36.05-25.73-36.05,80.3,50.46,60.74,12.36c-13.45-26.2-40.55-34.87-56.15-37.72A49.5,49.5,0,0,0,145.9,111c0-28.43-24.19-51.46-54-51.46Z"/><path id="path7992" class="cls-2" d="M41.93,145s-20.59,18.53-17.5,29.86S44,166.57,44,166.57s-7.21,30.89,4.11,22.65S54.28,147,54.28,147Z"/><path id="path8000" class="cls-5" d="M207.87,197.18s90.59-9.27,76.18,7.2S228.45,225,228.45,225s50.45,4.12,28.83,17.51-54,1-54,1,56.11,8.23,34.49,27.79-65.89-15.44-65.89-15.44,12.35,26.77-4.12,21.62-28.83-43.24-28.83-43.24"/><path id="path8002" class="cls-6" d="M104.72,108.89c0,10.23-9.45,18.53-21.1,18.53s-21.11-8.3-21.11-18.53S72,90.36,83.62,90.36,104.72,98.65,104.72,108.89Z"/><path id="path8004" class="cls-7" d="M81.09,111.47c0,4.83-3.45,8.75-7.72,8.75s-7.72-3.92-7.72-8.75,3.46-8.75,7.72-8.75S81.09,106.63,81.09,111.47Z"/><path id="path8441" class="cls-6" d="M104.72,108.89c0,10.23-9.45,18.53-21.1,18.53s-21.11-8.3-21.11-18.53S72,90.36,83.62,90.36,104.72,98.65,104.72,108.89Z"/><path id="path8443" class="cls-7" d="M81.09,111.47c0,4.83-3.45,8.75-7.72,8.75s-7.72-3.92-7.72-8.75,3.46-8.75,7.72-8.75S81.09,106.63,81.09,111.47Z"/></g></svg>