<svg id="publicdomainvectors.org" xmlns="http://www.w3.org/2000/svg" viewBox="0 0 660 660"><defs><style>.cls-1{fill:#ffead4;}.cls-2{fill:#422a14;}.cls-10,.cls-11,.cls-12,.cls-2,.cls-3,.cls-4,.cls-5,.cls-6,.cls-7,.cls-8{fill-rule:evenodd;}.cls-3{fill:#e37a10;}.cls-4{fill:#f93;}.cls-5{fill:#e67b10;}.cls-6{fill:#a35910;}.cls-7{fill:#8a4907;}.cls-8{fill:#333;}.cls-9{fill:#85684c;}.cls-10{fill:#d62f83;}.cls-11{fill:#bd1b6c;}.cls-12{fill:#961254;}</style></defs><title>Boy 17</title><circle class="cls-1" cx="323.2" cy="293.4" r="232.9" transform="translate(-112.8 314.5) rotate(-45)"/><path class="cls-2" d="M280.2,321.2l-10.1,38.4a117,117,0,0,0-1.8,50l-6.5,146.6,7.6,5.2c16.7,11.5,35.4,15.2,52.6,5.7l6.3-137.7L334,567.1c17.3,9.5,36.5,5.8,53.2-5.7l7.5-5.2-6.4-146.6a118.6,118.6,0,0,0-1.8-50l-10.1-38.4-48.1,31.7Z"/><path class="cls-3" d="M236,192.9l.9,39.7,31.4-11.3c7.2,7.9,18.3,33.2,15.3,44.6-26.9,14.5-74.4,15.4-93.4,3.1l3.4-17.2c3.7-19.6,12.2-39.1,24.9-57.5Z"/><path class="cls-3" d="M235.7,204l2.4-20.2a12.6,12.6,0,0,0-3.1-10,12.9,12.9,0,0,0-9.6-4.3l-18.8.3a11.2,11.2,0,0,0-10.5,8.3l6.2,3.8,3.3,3.9V198a14.9,14.9,0,0,0,10,14.3Z"/><path class="cls-4" d="M315.1,187.8l1.7,13a8.9,8.9,0,0,1-3.4,8.2l-6.8,3.3v13.2L328.3,237,350,225.5V212.3l-6.7-3.3a8.9,8.9,0,0,1-3.4-8.2l1.7-13-13.2,9.3Z"/><path class="cls-3" d="M315.1,187.8l1.1,8.8c9.7,7.2,19.8,11.6,24.3,11.6h1.7a9.2,9.2,0,0,1-2.4-7.3l1.7-13-13.2,9.3Z"/><path class="cls-5" d="M380.9,128.2c5.2,1.2,7.4,9.7,4.8,19.1s-9,16.2-14.2,15.1-7.4-9.7-4.8-19.1,9-16.2,14.2-15.1Zm-105.2,0c-5.2,1.2-7.4,9.7-4.8,19.1s9,16.2,14.2,15.1,7.4-9.7,4.8-19.1S280.9,127.1,275.7,128.2Z"/><path class="cls-6" d="M369.1,88.8c1.3-2.2,1.5-2.2,2.7-7.3a12.9,12.9,0,0,0-2-10.3,12.8,12.8,0,0,0-9-5.4c-18.4-2.2-29.8-2.7-48-6.2a42.3,42.3,0,0,0-26.4,3.6,33.3,33.3,0,0,0-12.1,9.9c-5.9,7.8-7.9,7.3-11,16.6a18,18,0,0,0,1.5,15c7.1,12.3,9.2,21.2,19.6,31l43.9,37.7,46.1-36.3,11.2-21.4a10.8,10.8,0,0,0-.7-11,64.5,64.5,0,0,0-15.8-15.9Z"/><path class="cls-7" d="M282.2,133.6l2.2,2.1,43.9,37.7,46.1-36.3,3-10.9a41.6,41.6,0,0,0,1.3-12.7,10.3,10.3,0,0,0-5.8-8.8A23.2,23.2,0,0,1,365,98a5.2,5.2,0,0,1,.8-7.1l-5.5,1.2a129,129,0,0,1-27,2.9,213.5,213.5,0,0,1-43.6-4.3h-.4a12.5,12.5,0,0,0-10.9,6.6,51.3,51.3,0,0,0-4.2,11.3,17,17,0,0,0,1,10.9Z"/><path class="cls-4" d="M374.4,137.1v18.8c0,25.4-36.4,46.1-46.1,46.1s-46.1-20.7-46.1-46.1V133.6c1.6-6.7,4.1-12.3,7.8-16.8,1.7,7.7.4,13.2-3,17.2,12.2,1,21.6-4.6,30.2-13.3l3.1-4.7a33.1,33.1,0,0,1-11,17.5l-2.8,2.2A62.8,62.8,0,0,0,363.4,115l3.2-3.7a32.8,32.8,0,0,1,6.2,14.8C373.3,129.8,373.9,133.5,374.4,137.1Z"/><path class="cls-7" d="M339.4,145.7v-10l11.9,1.3a13.8,13.8,0,0,1,9,5.2l-2.6,5.8a5.4,5.4,0,0,0-4.1-2.1Z"/><path class="cls-8" d="M354,150.2c-.2,6.9-3,12.3-6.3,12.3s-6-5.4-6.2-12.3Z"/><path class="cls-7" d="M317.2,145.7v-10L305.3,137a13.8,13.8,0,0,0-9,5.2l2.6,5.8a5.4,5.4,0,0,1,4.1-2.1Z"/><path class="cls-8" d="M302.6,150.2c.2,6.9,2.9,12.3,6.3,12.3s6-5.4,6.2-12.3Z"/><rect class="cls-9" x="158.2" y="178.1" width="173.4" height="7.68" rx="3.8" ry="3.8"/><path class="cls-10" d="M328.3,227.5c11.7-1,16.4-5.6,21.6-15.2l25.3,14,12,45.1,1.5,23.9a86.6,86.6,0,0,0,9.9,35.5c-26.4,41.5-114.3,41.5-140.6,0a86.6,86.6,0,0,0,9.9-35.5l1.5-23.9,9.3-52.3,27.9-6.8C311.8,221.9,316.6,226.5,328.3,227.5Z"/><path class="cls-11" d="M382.8,254.9l4.4,16.5,1.5,23.9a86.6,86.6,0,0,0,9.9,35.5c-5.9,9.2-14.7,16.4-25.3,21.5a248.2,248.2,0,0,1-9.9-46.8l-1.2-10.3-24.6,2.9,28-45.3Z"/><path class="cls-10" d="M375.2,226.3l-62.5,9.1v5.5c0,19,9.3,38,24.9,50.8l49.6-20.3C392,252.8,386.2,242.8,375.2,226.3Z"/><path class="cls-12" d="M312.7,235.4v5.5c0,19,9.3,38,24.9,50.8,1.8-17.9-5.2-36.6-18.9-50.3Z"/><path class="cls-4" d="M272,192.9l13.4,52.4,28-9.2,5.3,5.3a65.5,65.5,0,0,1,17.9,32.7h0l-11.3,5.1a106.9,106.9,0,0,1-79.2,3.3l-1.2-20.3a169,169,0,0,1,10-67.6Z"/><path class="cls-3" d="M313.4,236.1l5.3,5.3a65.5,65.5,0,0,1,17.9,32.7h0l-11.3,5.1-5.1,2.1A78.8,78.8,0,0,0,313.4,236.1Z"/><path class="cls-4" d="M273.7,204l2.5-20.2a12.7,12.7,0,0,0-3.2-10,12.9,12.9,0,0,0-9.6-4.3l-18.8.3a11.2,11.2,0,0,0-10.5,8.3l6.2,3.8,3.3,3.9V198a15,15,0,0,0,10,14.3Z"/><path class="cls-10" d="M325.6,577.5H248.4l-2.6-9.7a22.2,22.2,0,0,1,3.8-19,21.9,21.9,0,0,1,17.4-8.6l4-5a21.8,21.8,0,0,1,38.5,10.3A34.5,34.5,0,0,0,322,567.1Z"/><path class="cls-10" d="M330.4,577.5h77.2l2.6-9.7a22,22,0,0,0-21.1-27.6l-4-5a21.8,21.8,0,0,0-38.6,10.3A34.5,34.5,0,0,1,334,567.1Z"/></svg>