<?xml version="1.0" encoding="UTF-8" standalone="no"?>
<!-- Created with Inkscape (http://www.inkscape.org/) -->
<svg xmlns:svg="http://www.w3.org/2000/svg" xmlns="http://www.w3.org/2000/svg" xmlns:dc="http://purl.org/dc/elements/1.1/" xmlns:cc="http://web.resource.org/cc/" xmlns:rdf="http://www.w3.org/1999/02/22-rdf-syntax-ns#" version="1.0" width="464.16699" height="533.92102" viewBox="0 0 464.167 533.921" id="Layer_1" xml:space="preserve"><defs id="defs66"/>



<g id="g5">
	<path d="M 33.263,291.048 C 33.263,425.148 121.894,533.903 231.226,533.903 C 340.523,533.903 429.155,425.147 429.155,291.048 C 429.155,156.947 340.523,48.192 231.226,48.192 C 121.895,48.191 33.263,156.947 33.263,291.048 L 33.263,291.048 z " style="fill-rule:evenodd;stroke:black;stroke-width:0.036;stroke-miterlimit:10" id="path7"/>
	<path d="M 37.475,291.479 C 37.475,423.347 124.595,530.303 232.055,530.303 C 339.515,530.303 426.635,423.347 426.635,291.479 C 426.635,159.575 339.515,52.619 232.055,52.619 C 124.595,52.619 37.475,159.575 37.475,291.479 L 37.475,291.479 z " style="fill:#897f7e;fill-rule:evenodd;stroke:black;stroke-width:0.036;stroke-miterlimit:10" id="path9"/>
	<path d="M 195.946,241.223 C 195.946,247.847 201.886,253.247 209.266,253.247 C 216.61,253.247 222.586,247.847 222.586,241.223 C 222.586,234.599 216.609,229.199 209.266,229.199 C 201.887,229.199 195.946,234.599 195.946,241.223 L 195.946,241.223 z " style="fill-rule:evenodd;stroke:black;stroke-width:0.036;stroke-miterlimit:10" id="path11"/>
	<path d="M 202.643,239.027 C 202.643,241.043 204.263,242.663 206.279,242.663 C 208.296,242.663 209.916,241.043 209.916,239.027 C 209.916,237.047 208.296,235.427 206.279,235.427 C 204.263,235.427 202.643,237.047 202.643,239.027 L 202.643,239.027 z " style="fill:white;fill-rule:evenodd;stroke:black;stroke-width:0.036;stroke-miterlimit:10" id="path13"/>
	<path d="M 185.11,212.387 C 187.127,210.515 191.339,207.671 194.831,206.231 C 198.179,204.719 202.391,203.459 205.234,203.423 C 207.97,203.279 210.671,204.323 211.247,205.439 C 211.643,206.519 210.31,208.931 208.079,209.903 C 205.81,210.695 201.095,209.687 197.963,210.767 C 194.723,211.883 191.446,214.403 189.251,216.095 C 186.911,217.571 185.867,219.875 184.751,220.091 C 183.635,220.163 182.663,218.579 182.807,217.283 C 182.734,215.843 183.131,214.259 185.11,212.387 L 185.11,212.387 z " style="fill-rule:evenodd;stroke:black;stroke-width:0.036;stroke-miterlimit:10" id="path15"/>
	<path d="M 279.719,246.155 C 279.719,252.671 273.743,257.927 266.4,257.927 C 259.019,257.927 253.08,252.671 253.08,246.155 C 253.08,239.675 259.019,234.419 266.4,234.419 C 273.743,234.419 279.719,239.675 279.719,246.155 L 279.719,246.155 z " style="fill-rule:evenodd;stroke:black;stroke-width:0.036;stroke-miterlimit:10" id="path17"/>
	<path d="M 269.099,243.995 C 269.099,245.975 267.479,247.595 265.499,247.595 C 263.483,247.595 261.863,245.975 261.863,243.995 C 261.863,241.979 263.483,240.359 265.499,240.359 C 267.479,240.359 269.099,241.979 269.099,243.995 L 269.099,243.995 z " style="fill:white;fill-rule:evenodd;stroke:black;stroke-width:0.036;stroke-miterlimit:10" id="path19"/>
	<path d="M 295.559,222.575 C 292.536,220.127 286.488,216.239 281.736,213.971 C 276.876,211.559 271.152,209.507 267.336,208.787 C 263.52,208.031 259.74,208.499 259.2,209.615 C 258.588,210.695 260.748,213.467 263.88,215.015 C 266.976,216.347 273.276,216.347 277.776,218.075 C 282.095,219.803 286.956,223.367 290.124,225.563 C 293.22,227.543 295.056,230.387 296.603,230.783 C 298.116,231.143 299.124,229.595 299.051,228.227 C 298.835,226.823 298.367,224.987 295.559,222.575 L 295.559,222.575 z " style="fill-rule:evenodd;stroke:black;stroke-width:0.036;stroke-miterlimit:10" id="path21"/>
	<path d="M 45.143,237.587 C 39.491,236.147 33.803,236.399 27.935,238.343 C 21.959,240.215 14.507,242.771 9.863,249.215 C 5.039,255.623 0.323,266.495 0.035,276.971 C -0.289,287.519 4.103,302.603 8.351,311.387 C 12.527,319.883 17.351,325.175 25.343,328.235 C 33.335,331.223 43.415,331.439 55.979,329.172 L 55.979,329.172 L 45.143,237.587 L 45.143,237.587 z " style="fill-rule:evenodd;stroke:black;stroke-width:0.036;stroke-miterlimit:10" id="path23"/>
	<path d="M 41.651,335.976 C 50.687,338.748 57.059,337.92 61.055,333.493 C 64.943,328.885 66.275,323.016 65.195,309.228 C 63.971,295.188 57.708,263.868 54.179,250.836 C 50.507,237.948 47.267,231.756 43.919,232.116 L 43.919,232.116 C 43.595,235.824 42.839,238.524 41.363,240.36 C 39.851,242.052 38.051,242.016 35.279,242.88 C 32.327,243.744 27.863,243.888 24.371,245.652 C 20.771,247.416 17.315,248.424 14.291,253.248 C 11.195,258 7.271,266.101 6.407,274.093 C 5.471,282.013 7.163,293.532 8.855,300.301 C 10.511,306.997 13.679,310.309 16.271,313.981 C 18.791,317.401 21.203,319.741 24.083,321.433 C 26.927,323.017 30.311,323.269 32.975,323.989 C 35.459,324.674 37.727,323.557 39.239,325.645 C 40.607,327.66 41.543,331.008 41.651,335.976 L 41.651,335.976 z " style="fill:#897f7e;fill-rule:evenodd" id="path25"/>
	<path d="M 419.003,239.171 C 424.619,237.731 430.307,237.983 436.211,239.927 C 442.115,241.799 449.531,244.355 454.283,250.799 C 458.963,257.207 463.823,268.08 464.146,278.555 C 464.254,289.031 460.079,304.259 455.794,313.007 C 451.51,321.503 446.722,326.831 438.802,329.819 C 430.775,332.807 420.695,333.023 408.166,330.756 L 408.166,330.756 L 419.003,239.171 L 419.003,239.171 z " style="fill-rule:evenodd;stroke:black;stroke-width:0.036;stroke-miterlimit:10" id="path27"/>
	<path d="M 422.531,337.56 C 413.459,340.404 407.087,339.54 403.127,335.112 C 399.131,330.468 397.835,324.745 398.951,310.848 C 400.067,296.808 406.331,265.488 409.967,252.455 C 413.568,239.531 416.843,233.411 420.227,233.699 L 420.227,233.699 C 420.515,237.407 421.271,240.107 422.784,241.943 C 424.187,243.599 426.023,243.671 428.868,244.499 C 431.748,245.291 436.139,245.507 439.811,247.235 C 443.303,248.891 446.795,250.079 449.891,254.831 C 452.915,259.583 456.731,267.684 457.74,275.676 C 458.568,283.596 456.912,295.08 455.292,301.92 C 453.563,308.651 450.396,311.856 447.876,315.564 C 445.248,318.948 442.872,321.396 440.063,323.052 C 437.147,324.672 433.727,324.816 431.171,325.572 C 428.579,326.22 426.311,325.213 424.907,327.264 C 423.431,329.279 422.639,332.664 422.531,337.56 L 422.531,337.56 z " style="fill:#897f7e;fill-rule:evenodd" id="path29"/>
	<path d="M 226.438,449.124 C 217.51,448.151 213.982,448.439 203.831,445.344 C 193.606,442.176 177.19,436.884 165.887,430.512 C 154.619,424.14 145.691,417.12 136.727,407.4 C 127.763,397.608 118.403,384.253 112.607,372.444 C 106.847,360.673 105.876,344.581 102.311,337.272 C 98.711,330.001 96.155,332.988 98.279,343.32 C 100.403,353.616 110.843,378.493 110.843,378.493 L 110.843,378.493 C 116.855,392.245 124.919,403.944 135.467,414.169 C 146.015,424.32 161.891,433.068 173.663,439.045 C 185.291,444.841 196.379,447.037 204.839,449.377 C 213.083,451.717 217.114,452.185 223.451,452.868 C 229.751,453.444 236.159,453.444 242.531,452.868 C 248.759,452.184 252.827,451.717 261.142,449.377 C 269.458,447.037 280.582,444.841 292.283,439.045 C 303.983,433.068 319.823,424.32 330.478,414.169 C 340.918,403.944 348.802,390.301 355.102,378.493 C 361.331,366.541 365.47,355.093 367.666,343.32 L 367.666,343.32 C 368.818,335.833 369.07,331.837 368.422,330.757 C 367.738,329.784 366.154,331.908 363.67,337.273 L 363.67,337.273 C 362.482,349.153 359.134,360.673 353.374,372.445 C 347.542,384.254 338.182,397.609 329.218,407.401 C 320.254,417.122 311.363,424.141 300.094,430.513 C 288.79,436.885 272.338,442.177 262.115,445.345 C 251.963,448.441 248.434,448.153 239.507,449.125 C 230.579,450.06 235.367,450.06 226.438,449.124 L 226.438,449.124 z " style="fill-rule:evenodd;stroke:black;stroke-width:0.036;stroke-miterlimit:10" id="path31"/>
	<path d="M 357.155,224.591 C 358.379,225.635 359.386,229.451 361.583,232.295 C 363.707,235.103 367.307,238.991 370.439,241.475 C 373.571,243.815 378.97,245.399 380.375,246.803 C 381.635,248.171 380.087,249.971 378.251,249.827 C 376.307,249.467 372.419,247.703 369.359,245.363 C 366.226,243.059 362.699,239.459 360.035,236.219 C 357.263,232.943 353.951,227.723 353.447,225.851 C 352.943,223.835 355.751,223.547 357.155,224.591 L 357.155,224.591 z " style="fill-rule:evenodd;stroke:black;stroke-width:0.036;stroke-miterlimit:10" id="path33"/>
	<path d="M 390.671,251.087 C 389.447,251.303 385.235,251.447 384.263,250.943 C 383.291,250.367 383.94,248.279 385.091,248.027 C 386.207,247.631 389.736,248.675 390.815,249.215 C 391.715,249.719 391.715,250.763 390.671,251.087 L 390.671,251.087 z " style="fill-rule:evenodd;stroke:black;stroke-width:0.036;stroke-miterlimit:10" id="path35"/>
	<path d="M 351.899,222.035 C 350.747,222.071 346.462,221.027 345.707,220.415 C 344.951,219.623 345.923,217.823 347.219,217.787 C 348.371,217.787 351.612,219.443 352.475,220.235 C 353.195,220.919 353.051,221.891 351.899,222.035 L 351.899,222.035 z " style="fill-rule:evenodd;stroke:black;stroke-width:0.036;stroke-miterlimit:10" id="path37"/>
	<path d="M 99.287,181.031 C 101.627,188.159 101.159,194.999 97.486,201.947 C 93.778,208.823 86.146,218.723 77.507,222.359 C 68.723,225.923 54.143,226.175 45.719,223.259 C 37.331,220.271 31.931,212.819 27.575,204.647 C 23.111,196.295 18.395,182.543 19.403,173.795 C 20.411,165.047 25.055,158.027 33.479,152.447 L 33.479,152.447 C 29.915,142.331 29.555,134.483 32.543,128.363 C 35.495,122.279 41.651,118.247 51.155,116.123 L 51.155,116.123 C 51.875,102.768 54.503,92.22 58.895,84.336 C 63.288,76.344 69.443,71.375 77.507,68.892 L 77.507,68.892 C 75.959,62.196 76.282,56.472 78.875,51.18 C 81.322,45.852 85.535,41.64 92.482,37.572 C 99.358,33.36 108.539,29.904 120.167,26.664 L 120.167,26.664 C 121.499,20.904 123.946,16.872 127.906,14.425 C 131.722,12.013 136.726,12.229 143.35,12.156 C 150.046,11.94 157.787,12.192 167.398,13.056 L 167.398,13.056 C 169.234,7.512 173.518,3.732 180.106,1.716 C 186.694,-0.337 197.71,-0.372 206.89,0.779 C 215.998,1.931 225.142,4.415 234.611,8.519 L 234.611,8.519 C 247.354,6.035 257.363,5.171 265.463,5.783 C 273.419,6.359 278.927,8.483 282.276,12.155 L 282.276,12.155 C 296.927,14.172 308.988,16.763 319.032,20.327 C 329.004,23.855 336.708,28.14 341.748,33.035 C 346.644,37.752 348.912,43.044 348.552,48.911 L 348.552,48.911 C 361.405,50.999 371.88,54.636 380.808,59.819 C 389.701,65.004 396.972,73.283 401.22,79.799 C 405.288,86.206 406.368,92.074 404.857,97.943 L 404.857,97.943 C 415.945,103.271 423.72,110.903 428.472,121.128 C 433.153,131.388 434.664,143.663 433.008,158.783 L 433.008,158.783 C 436.788,162.311 438.912,167.819 439.38,175.595 C 439.776,183.371 440.928,194.459 435.744,205.115 C 430.38,215.735 418.32,233.087 408.024,238.703 C 397.656,243.995 381.923,240.251 374.435,237.335 C 366.948,234.239 367.343,225.275 363.528,220.991 C 359.639,216.707 352.548,216.599 351.288,211.919 C 349.956,207.059 351.468,200.687 355.824,192.407 L 355.824,192.407 C 348.912,187.763 344.16,182.615 341.28,176.963 C 338.364,171.239 337.464,165.083 338.58,158.351 L 338.58,158.351 C 331.488,151.259 326.664,145.283 323.568,139.739 C 320.507,134.159 319.5,129.695 320.4,125.663 L 320.4,125.663 C 308.879,122.676 300.708,119.472 295.452,115.655 C 290.124,111.767 288.143,107.663 289.08,102.947 L 289.08,102.947 C 278.1,99.275 269.496,95.819 262.727,92.039 C 255.959,88.224 251.28,84.623 248.687,80.699 L 248.687,80.699 C 244.692,82.247 241.452,83.111 238.679,83.435 C 235.944,83.723 233.783,83.471 232.343,82.535 L 232.343,82.535 C 229.103,90.168 223.451,95.712 215.53,99.311 C 207.467,102.839 197.35,104.351 184.642,103.847 L 184.642,103.847 C 180.827,108.311 176.47,111.515 171.035,113.855 C 165.562,116.015 156.671,114.863 152.423,117.491 C 148.067,120.155 149.867,125.483 145.619,129.731 C 141.335,133.835 135.179,138.119 127.007,142.439 L 127.007,142.439 C 123.119,153.635 118.871,162.239 114.263,168.791 C 109.583,175.235 104.687,179.267 99.287,181.031 L 99.287,181.031 z " style="fill-rule:evenodd;stroke:black;stroke-width:0.036;stroke-miterlimit:10" id="path39"/>
	<path d="M 94.751,179.231 C 95.867,188.663 95.11,196.403 92.482,202.847 C 89.747,209.183 85.535,214.439 78.875,217.355 C 72.106,220.307 60.083,221.963 52.523,220.091 C 44.855,218.003 38.231,212.459 33.479,205.115 C 28.547,197.663 23.147,184.739 23.939,176.063 C 24.767,167.279 29.555,159.683 38.447,152.879 L 38.447,152.879 C 33.947,144.131 33.047,137.255 35.747,131.567 C 38.483,125.879 44.459,121.92 54.359,119.291 L 54.359,119.291 C 54.899,106.296 57.419,95.928 62.063,87.504 C 66.635,79.151 73.295,73.104 82.043,69.359 L 82.043,69.359 C 79.738,64.067 79.738,59.207 82.043,54.383 C 84.167,49.487 88.703,44.987 95.65,40.738 C 102.634,36.454 111.922,32.566 123.802,28.93 L 123.802,28.93 C 124.846,23.602 127.222,19.822 131.074,17.59 C 134.853,15.358 139.821,15.394 146.517,15.321 C 153.213,15.105 160.954,15.357 170.565,16.221 L 170.565,16.221 C 172.401,10.677 176.685,6.897 183.273,4.881 C 189.861,2.828 200.877,2.757 210.057,3.981 C 219.165,5.133 228.309,7.653 237.778,11.685 L 237.778,11.685 C 246.958,9.201 254.878,8.337 261.826,8.949 C 268.702,9.525 274.462,11.649 279.106,15.321 L 279.106,15.321 C 294.874,17.05 307.366,19.569 317.698,23.025 C 327.958,26.445 335.374,31.017 339.946,35.769 C 344.374,40.521 345.597,45.525 344.013,51.177 L 344.013,51.177 C 358.593,53.733 370.366,57.62 379.869,62.985 C 389.193,68.277 396.789,76.881 400.317,82.965 C 403.808,88.941 403.917,94.196 400.785,98.877 L 400.785,98.877 C 414.357,108.633 423.285,118.389 428.001,128.828 C 432.609,139.196 432.717,149.564 428.469,160.616 L 428.469,160.616 C 433.221,167.06 435.741,174.08 436.173,181.964 C 436.569,189.812 435.921,198.416 430.737,207.38 C 425.228,216.272 413.348,230.78 404.384,235.064 C 395.312,239.096 383.972,235.136 377.6,232.364 C 371.193,229.52 370.617,222.428 366.728,218.72 C 362.768,215.084 355.245,214.58 354.453,210.116 C 353.625,205.4 356.001,199.172 361.724,191.036 L 361.724,191.036 C 352.544,182.648 346.388,175.916 343.113,170.156 C 339.837,164.432 339.585,160.04 342.213,156.98 L 342.213,156.98 C 335.985,150.284 331.485,144.272 328.569,138.368 C 325.617,132.429 324.501,127.173 324.932,122.024 L 324.932,122.024 C 314.672,120.836 307.149,118.461 301.785,114.753 C 296.421,110.973 293.649,106.112 293.181,99.776 L 293.181,99.776 C 281.121,96.716 271.761,93.224 264.561,88.868 C 257.326,84.513 252.826,79.616 250.486,73.892 L 250.486,73.892 C 246.813,76.7 243.358,78.464 239.578,79.328 C 235.762,80.12 232.162,79.976 228.237,78.896 L 228.237,78.896 C 226.509,86.06 221.758,91.352 213.693,94.772 C 205.557,98.156 194.505,99.668 180.105,99.308 L 180.105,99.308 C 176.649,104.312 172.257,108.056 166.929,110.684 C 161.421,113.204 152.205,111.692 147.885,114.752 C 143.601,117.812 145.041,124.544 141.081,128.827 C 136.869,132.968 131.144,136.603 123.369,139.735 L 123.369,139.735 C 121.1,148.951 117.753,156.691 112.929,163.351 C 108.035,169.907 102.203,175.199 94.751,179.231 L 94.751,179.231 z " style="fill:#212121;fill-rule:evenodd" id="path41"/>
	<path d="M 85.211,189.671 C 85.715,188.807 86.075,187.043 86.147,184.235 C 86.183,181.391 86.076,177.647 85.679,172.859 L 85.679,172.859 C 89.423,172.247 93.203,170.591 97.019,167.891 C 100.763,165.119 105.515,161.843 108.359,156.515 C 111.095,151.115 112.715,144.203 113.363,135.636 L 113.363,135.636 C 118.511,133.764 122.256,131.604 125.172,129.3 C 127.907,126.852 128.556,122.783 130.176,121.56 C 131.832,120.336 134.64,120.444 134.712,122.028 C 134.531,123.576 132.768,127.788 129.708,130.632 C 126.647,133.296 122.256,135.924 116.531,138.371 L 116.531,138.371 C 116.784,142.943 116.135,147.336 114.731,151.547 C 113.147,155.687 110.376,160.367 107.927,163.355 C 105.479,166.271 103.031,167.207 100.187,169.223 C 97.199,171.239 94.211,173.075 90.683,175.127 L 90.683,175.127 C 91.511,179.447 91.655,183.191 91.115,186.503 C 90.54,189.815 88.452,194.027 87.479,194.675 C 86.471,195.143 85.715,193.523 85.211,189.671 L 85.211,189.671 z " style="fill-rule:evenodd;stroke:black;stroke-width:0.036;stroke-miterlimit:10" id="path43"/>
	<path d="M 183.274,86.604 C 190.546,87.252 196.522,86.856 201.886,85.704 C 207.07,84.48 211.318,82.177 214.63,79.332 C 217.834,76.272 220.102,72.673 221.434,67.992 L 221.434,67.992 C 226.079,69.757 230.218,70.404 234.142,69.792 C 238.102,69.108 242.279,64.896 244.582,64.356 C 246.598,63.744 247.353,65.472 246.85,66.624 C 246.203,67.776 244.115,69.792 241.414,71.16 C 238.57,72.421 233.458,73.465 230.506,73.896 C 227.518,74.184 225.25,73.932 223.702,72.996 L 223.702,72.996 C 223.017,76.129 221.145,78.864 217.798,81.6 C 214.45,84.228 207.682,87.252 203.722,88.871 C 199.654,90.42 197.422,90.851 193.714,91.14 C 189.934,91.247 183.166,90.995 181.474,90.24 C 179.675,89.483 180.322,88.224 183.274,86.604 L 183.274,86.604 z " style="fill-rule:evenodd;stroke:black;stroke-width:0.036;stroke-miterlimit:10" id="path45"/>
	<path d="M 263.195,66.623 C 269.098,71.88 275.255,76.163 281.806,79.331 C 288.323,82.571 295.09,84.516 302.254,85.703 L 302.254,85.703 C 301.607,89.447 303.478,93.083 308.158,97.044 C 312.802,100.968 326.265,106.151 329.938,108.852 C 333.393,111.408 331.809,112.812 329.469,112.488 C 327.022,112.02 320.217,108.852 315.862,106.584 C 311.29,104.208 306.177,101.688 303.154,98.881 C 300.166,96.036 298.546,93.049 298.15,89.773 L 298.15,89.773 C 291.778,88.009 285.622,85.741 279.538,82.969 C 273.382,80.053 265.21,75.805 261.826,72.996 C 258.406,70.045 258.802,67.308 259.126,66.192 C 259.379,65.111 260.639,65.256 263.195,66.623 L 263.195,66.623 z " style="fill-rule:evenodd;stroke:black;stroke-width:0.036;stroke-miterlimit:10" id="path47"/>
	<path d="M 252.683,89.52 C 257.255,93.588 262.007,96.864 267.083,99.348 C 272.123,101.831 277.343,103.38 282.887,104.28 L 282.887,104.28 C 282.276,107.124 283.931,110.04 287.459,113.028 C 290.987,116.016 301.463,120.084 304.307,122.173 C 306.971,124.225 305.784,125.16 303.948,124.981 C 302.04,124.513 296.855,122.245 293.4,120.409 C 289.944,118.573 285.839,116.63 283.572,114.433 C 281.303,112.237 279.971,109.897 279.719,107.412 L 279.719,107.412 C 274.751,106.08 269.999,104.28 265.32,102.156 C 260.532,99.852 254.303,96.684 251.639,94.452 C 248.975,92.112 249.299,90.024 249.551,89.16 C 249.695,88.331 250.739,88.403 252.683,89.52 L 252.683,89.52 z " style="fill-rule:evenodd;stroke:black;stroke-width:0.036;stroke-miterlimit:10" id="path49"/>
	<path d="M 343.115,142.439 C 345.743,145.355 347.831,147.587 349.919,149.279 C 351.899,150.971 353.519,151.979 354.923,152.447 L 354.923,152.447 C 353.591,154.679 353.591,157.703 354.923,161.519 C 356.219,165.335 358.415,170.195 362.627,175.127 C 366.767,179.951 372.239,184.775 379.44,190.139 L 379.44,190.139 C 378.036,195.863 377.784,200.759 378.54,205.115 C 379.26,209.435 381.024,213.215 383.976,216.023 C 386.964,218.723 395.029,220.163 396.216,221.459 C 397.188,222.683 393.228,223.979 390.312,223.259 C 387.289,222.251 381.241,219.659 378.541,216.455 C 375.805,213.107 374.509,208.427 373.969,204.215 C 373.393,199.931 373.61,195.863 374.906,191.471 L 374.906,191.471 C 369.685,187.547 365.546,183.875 362.198,180.599 C 358.849,177.179 356.473,175.451 354.926,171.527 C 353.306,167.459 354.962,160.799 353.09,156.983 C 351.074,153.167 345.206,151.187 343.55,148.811 C 341.854,146.291 341.711,144.312 343.115,142.439 L 343.115,142.439 z " style="fill-rule:evenodd;stroke:black;stroke-width:0.036;stroke-miterlimit:10" id="path51"/>
	<path d="M 168.299,120.659 C 166.067,120.227 160.847,120.731 158.759,122.027 C 156.671,123.323 157.427,125.807 155.591,128.363 C 153.575,130.775 147.419,135.599 146.987,137.004 C 146.483,138.407 150.84,138.119 152.855,136.535 C 154.799,134.807 155.519,129.048 158.759,127.031 C 161.927,124.979 170.207,125.231 171.935,124.296 C 173.411,123.107 170.53,121.056 168.299,120.659 L 168.299,120.659 z " style="fill-rule:evenodd;stroke:black;stroke-width:0.036;stroke-miterlimit:10" id="path53"/>
	<path d="M 315.395,141.539 C 315.719,144.096 317.879,149.712 319.499,151.979 C 321.011,154.103 324.575,155.039 324.935,154.247 C 325.152,153.239 322.595,149.424 321.299,146.544 C 319.931,143.556 318.203,137.831 317.231,137.004 C 316.223,136.176 314.963,138.983 315.395,141.539 L 315.395,141.539 z " style="fill-rule:evenodd;stroke:black;stroke-width:0.036;stroke-miterlimit:10" id="path55"/>
	<path d="M 335.483,180.851 C 336.382,183.227 339.73,188.303 341.783,190.103 C 343.799,191.831 347.363,191.939 347.615,191.111 C 347.615,190.103 344.195,186.899 342.359,184.415 C 340.379,181.787 337.426,176.567 336.275,175.991 C 335.087,175.415 334.547,178.331 335.483,180.851 L 335.483,180.851 z " style="fill-rule:evenodd;stroke:black;stroke-width:0.036;stroke-miterlimit:10" id="path57"/>
	<path d="M 61.163,232.367 C 64.619,231.215 72.934,231.323 77.938,229.631 C 82.834,227.903 88.09,222.035 90.214,221.891 C 92.086,221.675 92.482,225.887 89.746,228.263 C 86.866,230.567 79.306,234.059 73.87,235.535 C 68.361,236.831 59.722,236.939 57.525,236.435 C 55.438,235.859 57.671,233.483 61.163,232.367 L 61.163,232.367 z " style="fill-rule:evenodd;stroke:black;stroke-width:0.036;stroke-miterlimit:10" id="path59"/>
	<path d="M 32.975,260.123 C 30.779,261.959 26.207,269.664 24.695,274.775 C 23.111,279.851 21.959,286.296 23.759,290.363 C 25.451,294.288 30.887,298.139 35.207,298.319 C 39.527,298.283 45.323,290.939 49.535,291.011 C 53.603,291.155 57.923,299.219 59.723,298.967 C 61.379,298.571 61.199,291.515 59.723,288.779 C 57.995,285.935 54.359,282.011 50.183,282.407 C 45.863,282.84 38.447,290.76 34.883,291.011 C 31.283,290.975 28.727,287.627 29.159,283.055 C 29.591,278.339 36.755,267.467 37.439,263.615 C 37.979,259.691 35.099,258.251 32.975,260.123 L 32.975,260.123 z " style="fill-rule:evenodd;stroke:black;stroke-width:0.036;stroke-miterlimit:10" id="path61"/>
	<path d="M 431.999,260.123 C 434.087,261.959 438.695,269.664 440.279,274.775 C 441.863,279.851 442.835,286.296 441.251,290.363 C 439.343,294.288 434.123,298.139 429.767,298.319 C 425.339,298.283 419.543,290.939 415.44,291.011 C 411.263,291.155 406.944,299.219 405.252,298.967 C 403.488,298.571 403.668,291.515 405.252,288.779 C 406.908,285.935 410.508,282.011 414.792,282.407 C 419.004,282.84 426.42,290.76 430.092,291.011 C 433.584,290.975 436.14,287.627 435.816,283.055 C 435.312,278.339 428.113,267.467 427.537,263.615 C 426.887,259.691 429.803,258.251 431.999,260.123 L 431.999,260.123 z " style="fill-rule:evenodd;stroke:black;stroke-width:0.036;stroke-miterlimit:10" id="path63"/>
</g>
<metadata><rdf:RDF><cc:Work><dc:format>image/svg+xml</dc:format><dc:type rdf:resource="http://purl.org/dc/dcmitype/StillImage"/><cc:license rdf:resource="http://creativecommons.org/licenses/publicdomain/"/><dc:publisher><cc:Agent rdf:about="http://openclipart.org/"><dc:title>Open Clip Art Library</dc:title></cc:Agent></dc:publisher><dc:title>Boy Face Cartoon</dc:title><dc:date>2006-10-23T10:20:05</dc:date><dc:description>Uploaded by "World Label" for conversion to SVG and publication on OCAL.</dc:description><dc:source>http://openclipart.org/detail/858/boy-face-cartoon-by-gerald_g-858</dc:source><dc:creator><cc:Agent><dc:title>Gerald_G</dc:title></cc:Agent></dc:creator><dc:subject><rdf:Bag><rdf:li>boy</rdf:li><rdf:li>cartoon</rdf:li><rdf:li>clip art</rdf:li><rdf:li>clipart</rdf:li><rdf:li>externalsource</rdf:li><rdf:li>face</rdf:li><rdf:li>people</rdf:li><rdf:li>remix</rdf:li><rdf:li>worldlabel</rdf:li></rdf:Bag></dc:subject></cc:Work><cc:License rdf:about="http://creativecommons.org/licenses/publicdomain/"><cc:permits rdf:resource="http://creativecommons.org/ns#Reproduction"/><cc:permits rdf:resource="http://creativecommons.org/ns#Distribution"/><cc:permits rdf:resource="http://creativecommons.org/ns#DerivativeWorks"/></cc:License></rdf:RDF></metadata></svg>
