<?xml version="1.0" encoding="UTF-8"?>
<!DOCTYPE svg PUBLIC "-//W3C//DTD SVG 1.1//EN" "http://www.w3.org/Graphics/SVG/1.1/DTD/svg11.dtd">
<svg version="1.1" xmlns="http://www.w3.org/2000/svg" xmlns:xlink="http://www.w3.org/1999/xlink" x="0" y="0" width="536" height="648" viewBox="0, 0, 536, 648">
  <g id="Layer_1">
    <path d="M71.136,170.056 L58.116,143.44 C58.116,143.44 46.732,144.096 34.7,137.804 C24.184,132.304 3.748,112.308 2.872,97.4 C2.252,87.06 5.712,79.656 11.772,75.388 C15.3,65.896 22.748,57.208 28.768,57.152 C30.996,49.064 43.04,43.068 49.732,44.02 C56.904,35.544 67.504,37.36 72.684,42.564 C81.2,51.124 85.524,59.36 85.524,59.36 C94.372,64.916 100.24,76.632 99.592,88.44 C98.68,104.856 89.432,121.824 89.432,121.824 L100.076,144.864" fill="#F8D2B5"/>
    <path d="M71.136,170.056 L58.116,143.44 C58.116,143.44 46.732,144.096 34.7,137.804 C24.184,132.304 3.748,112.308 2.872,97.4 C2.252,87.06 5.712,79.656 11.772,75.388 C15.3,65.896 22.748,57.208 28.768,57.152 C30.996,49.064 43.04,43.068 49.732,44.02 C56.904,35.544 67.504,37.36 72.684,42.564 C81.2,51.124 85.524,59.36 85.524,59.36 C94.372,64.916 100.24,76.632 99.592,88.44 C98.68,104.856 89.432,121.824 89.432,121.824 L100.076,144.864" fill-opacity="0" stroke="#1A1919" stroke-width="5.6" stroke-linecap="round" stroke-linejoin="round"/>
    <path d="M38.528,117.572 L57.672,106.028 L60.416,98.924 L67.06,96.66 L70.248,113.328 L38.528,117.572" fill="#CF957E"/>
    <g>
      <path d="M85.088,58.896 C76.428,55.612 55.004,54.112 51.424,56.788 C41.904,63.912 58.988,75.08 72.76,76.668 C72.76,76.668 64.392,90.588 70.844,116.376 M13.152,77.356 L41.084,111.004 M29.084,58.192 L58.84,98.348 M49.924,44.808 L55.848,54.788 M15.46,112.012 C18.184,114.004 22.584,117.636 29.02,119.364 C36.432,121.38 42.348,116.628 42.988,111.144 C51.968,112.504 61.12,104.416 59.056,98.596 C64.684,99.916 68.956,95.012 68.612,90.896" fill-opacity="0" stroke="#1A1919" stroke-width="5.6" stroke-linecap="round" stroke-linejoin="round"/>
      <path d="M395.512,645.2 L399.276,580.696 L421.444,469.18 L392.632,440.364 C386,437 357.644,421.028 333.872,414.46 L266.74,404.588 C257.516,401.82 234.052,386.284 224.552,373.784 C211.3,356.352 181.052,304.284 171.052,282.284 C154.144,245.096 104.716,121.452 104.716,121.452 C104.716,121.452 90.66,130.416 75.904,147.02 C61.144,163.624 57.384,181.452 57.384,181.452 C57.384,181.452 160.304,395.66 173.512,440.784 C184.892,479.676 190.784,642.116 190.784,642.116" fill="#6AC7E5"/>
      <path d="M395.512,645.2 L399.276,580.696 L421.444,469.18 L392.632,440.364 C386,437 357.644,421.028 333.872,414.46 L266.74,404.588 C257.516,401.82 234.052,386.284 224.552,373.784 C211.3,356.352 181.052,304.284 171.052,282.284 C154.144,245.096 104.716,121.452 104.716,121.452 C104.716,121.452 90.66,130.416 75.904,147.02 C61.144,163.624 57.384,181.452 57.384,181.452 C57.384,181.452 160.304,395.66 173.512,440.784 C184.892,479.676 190.784,642.116 190.784,642.116" fill-opacity="0" stroke="#1A1919" stroke-width="5.6" stroke-linecap="round" stroke-linejoin="round"/>
    </g>
    <path d="M116.216,149.452 C116.216,149.452 79.384,179.452 71.384,210.12" fill-opacity="0" stroke="#1A1919" stroke-width="4" stroke-linecap="round" stroke-linejoin="round"/>
    <path d="M285.136,391.552 L282.964,402.248 L277.832,402.856 C277.832,402.856 273.16,410.82 273.728,417.876 C276.772,421.504 293.324,425.412 297.516,425.9 C303.284,426.564 323.316,420.456 323.316,420.456 L321.972,409.68 L316.964,404.904 L317.352,394.652" fill="#F8D2B5"/>
    <path d="M285.604,383.528 L318.676,387.34 L317.096,403.456 C317.096,403.456 306.448,421.488 273.82,414.436 L276.5,404.428 L282.356,402.428 L285.604,383.528" fill="#CF957E"/>
    <path d="M272.548,416.6 C272.548,416.6 297.824,435.192 323.3,420.456 L319.044,435.124 L292.688,463.844 L273.564,429.888 L272.548,416.6" fill="#FFF691"/>
    <path d="M317.084,403.896 C317.084,403.896 324.832,407.284 323.2,421.472 C322.376,428.58 319.044,435.124 319.044,435.124 L341.636,472.704 C341.636,472.704 341.612,434.564 341.096,428.736 C340.208,418.672 332.896,409.176 330.76,406.864 C324.44,400.048 317.692,398.188 317.692,398.188" fill="#6AC7E5"/>
    <path d="M317.084,403.896 C317.084,403.896 324.832,407.284 323.2,421.472 C322.376,428.58 319.044,435.124 319.044,435.124 L341.636,472.704 C341.636,472.704 341.612,434.564 341.096,428.736 C340.208,418.672 332.896,409.176 330.76,406.864 C324.44,400.048 317.692,398.188 317.692,398.188 M319.044,435.124 L292.688,463.844 L273.564,429.888 M272.548,416.6 C272.548,416.6 297.824,435.192 323.3,420.456" fill-opacity="0" stroke="#1A1919" stroke-width="5.6" stroke-linecap="round" stroke-linejoin="round"/>
    <path d="M274.856,430.212 C274.856,430.212 296.304,445.988 317.92,433.488" fill-opacity="0" stroke="#1A1919" stroke-width="4" stroke-linecap="round" stroke-linejoin="round"/>
    <path d="M282.584,399.92 C282.584,399.92 274.26,401.444 272.624,415.648 C271.808,422.748 273.564,429.888 273.564,429.888 L243.012,461.336 C243.012,461.336 251.716,424.188 253.536,418.64 C256.7,409.044 265.98,401.452 268.584,399.696 C276.284,394.492 283.28,394.228 283.28,394.228" fill="#6AC7E5"/>
    <path d="M282.584,399.92 C282.584,399.92 274.26,401.444 272.624,415.648 C271.808,422.748 273.564,429.888 273.564,429.888 L243.012,461.336 C243.012,461.336 251.716,424.188 253.536,418.64 C256.7,409.044 265.98,401.452 268.584,399.696 C276.284,394.492 283.28,394.228 283.28,394.228 M282.464,394.212 L279.384,410.38 M319.74,399.312 L317.88,415.512" fill-opacity="0" stroke="#1A1919" stroke-width="5.6" stroke-linecap="round" stroke-linejoin="round"/>
    <path d="M444.128,486.76 C444.128,486.76 456.452,491.452 456.372,495.72 C456.284,499.988 448.356,581.944 442.784,591.5 C431.932,610.132 415.896,614.212 406.332,610.492 C393.716,605.6 389.084,590.256 390.232,579.248 C391.38,568.256 399.248,505.12 400.316,500.016 C401.388,494.912 408.512,492.016 408.512,492.016 L444.128,486.76" fill="#6AC7E5"/>
    <path d="M444.128,486.76 C444.128,486.76 456.452,491.452 456.372,495.72 C456.284,499.988 448.356,581.944 442.784,591.5 C431.932,610.132 415.896,614.212 406.332,610.492 C393.716,605.6 389.084,590.256 390.232,579.248 C391.38,568.256 399.248,505.12 400.316,500.016 C401.388,494.912 408.512,492.016 408.512,492.016 L444.128,486.76 z" fill-opacity="0" stroke="#1A1919" stroke-width="5.6" stroke-linecap="round" stroke-linejoin="round"/>
    <path d="M454.368,517.312 C454.368,517.312 431.444,543.556 397.028,522.928" fill-opacity="0" stroke="#1A1919" stroke-width="4" stroke-linecap="round" stroke-linejoin="round"/>
    <path d="M448.336,493.904 L451.404,478.556 C451.404,478.556 460.904,457.572 463.94,431.368 C466.152,412.376 440.52,393.812 419.888,401.584 C413.836,403.868 383.644,423.988 383.372,441.5 C383.056,461.676 392.596,462.328 402.02,463.288 C402.02,463.288 396.028,477.972 410.7,488.62 L407.824,503.108 C407.824,503.108 428.044,510.74 448.336,493.904" fill="#F8D2B5"/>
    <path d="M448.336,493.904 L451.404,478.556 C451.404,478.556 460.904,457.572 463.94,431.368 C466.152,412.376 440.52,393.812 419.888,401.584 C413.836,403.868 383.644,423.988 383.372,441.5 C383.056,461.676 392.596,462.328 402.02,463.288 C402.02,463.288 396.028,477.972 410.7,488.62 L407.824,503.108 C407.824,503.108 428.044,510.74 448.336,493.904 z" fill-opacity="0" stroke="#1A1919" stroke-width="5.6" stroke-linecap="round" stroke-linejoin="round"/>
    <path d="M388.744,428.492 C388.744,428.492 404.812,425.976 417.716,431.72 M397.48,418.788 C397.48,418.788 413.284,416 425.652,423.056 M407.892,409.572 C407.892,409.572 423.364,407.716 437.036,415.312 M401.972,463.992 C401.808,463.868 404.616,452.204 408.08,445.264 C408.08,445.264 401.34,446.236 393.904,444.944" fill-opacity="0" stroke="#1A1919" stroke-width="4.8" stroke-linecap="round" stroke-linejoin="round"/>
    <path d="M176.096,210.932 C173.644,90.06 258.116,49.82 258.116,49.82 C239.972,48.388 226.932,31.044 226.932,31.044 C291.656,3.06 356.856,33.82 356.856,33.82 C351.4,24.916 351.372,3.788 351.372,3.788 C444.128,21.604 465.348,89.632 465.348,89.632 C465.348,89.632 533.736,103.8 532.532,192.588 L515.736,186.808 C515.736,186.808 517.992,223.776 493.568,271.416 L486.332,283.988 L180.472,230.836 L176.096,210.932" fill="#40332C"/>
    <path d="M181.584,216.656 C181.848,114.196 236.392,81.472 260.688,71.972 C267.656,69.244 267.592,66.72 265.384,65.648 C258.584,62.372 252.52,58.028 250.028,54.54 C228.972,68.18 174.112,113.172 176.096,210.932 L181.584,216.656" fill="#8B7165"/>
    <path d="M373.236,44.212 C371.3,34.872 364.544,17.544 364.544,17.544 C402.152,24.768 427.988,40.248 445.432,56.096 C428.872,36.208 399.936,13.12 351.372,3.788 C351.372,3.788 351.4,24.916 356.856,33.82 C356.856,33.82 291.656,3.06 226.932,31.044 C226.932,31.044 240.864,42.496 249.944,48.052 C299.964,21.844 349.772,42.2 368.924,50.588 C373.952,52.792 374.044,48.084 373.236,44.212" fill="#8B7165"/>
    <path d="M197.092,225.64 C197.092,225.64 191.96,209.336 176.096,210.932 C143.028,214.268 140.596,281.032 191.22,296.548" fill="#F8D2B5"/>
    <path d="M463.744,277.128 C463.744,277.128 474.56,263.868 488.696,271.248 C518.18,286.592 497.412,349.832 443.832,345.344" fill="#F8D2B5"/>
    <path d="M191.36,275.372 L193.64,251.072 C193.64,251.072 189.996,235.04 180.472,230.836 C168.216,225.42 164.152,245.136 170.816,257.992 C181.028,277.66 191.36,275.372 191.36,275.372" fill="#CF957E"/>
    <path d="M452.536,325.548 L459.416,302.132 C459.416,302.132 468.748,288.58 479.144,288.212 C492.544,287.732 489.004,307.54 478.052,317.012 C461.276,331.504 452.536,325.548 452.536,325.548" fill="#CF957E"/>
    <path d="M217.848,95.284 C268.916,117.648 299.772,120.036 319.696,119.472 C333.084,119.096 326.584,113.872 320.672,112.244 C259.856,95.52 243.716,70.908 243.716,70.908 L217.848,95.284" fill="#8B7165"/>
    <path d="M197.092,225.64 C197.092,225.64 191.96,209.336 176.096,210.932 C143.028,214.268 140.596,281.032 191.22,296.548 M174.084,228.412 C174.084,228.412 185.696,223.672 193.268,252.548 M463.744,277.128 C463.744,277.128 474.56,263.868 488.696,271.248 C518.18,286.592 497.412,349.832 443.832,345.344 M484.48,288.564 C484.48,288.564 475.46,279.856 457.716,303.868 M176.096,210.932 C173.644,90.06 258.116,49.82 258.116,49.82 C239.972,48.388 226.932,31.044 226.932,31.044 C291.656,3.06 356.856,33.82 356.856,33.82 C351.4,24.916 351.372,3.788 351.372,3.788 C444.128,21.604 465.348,89.632 465.348,89.632 C465.348,89.632 533.736,103.8 532.532,192.588 L515.736,186.808 C515.736,186.808 517.992,223.776 493.568,271.416" fill-opacity="0" stroke="#1A1919" stroke-width="5.6" stroke-linecap="round" stroke-linejoin="round"/>
    <path d="M305.784,499.252 C305.644,503.304 302.252,506.484 298.208,506.352 C294.16,506.22 290.98,502.824 291.112,498.772 C291.252,494.736 294.644,491.556 298.692,491.692 C302.74,491.82 305.912,495.204 305.784,499.252 z M303.768,545.688 C303.628,549.736 300.248,552.912 296.192,552.78 C292.144,552.648 288.972,549.248 289.104,545.212 C289.24,541.164 292.628,537.992 296.676,538.124 C300.724,538.248 303.904,541.64 303.768,545.688 z M304.848,592.116 C304.716,596.172 301.332,599.34 297.284,599.216 C293.232,599.084 290.06,595.692 290.192,591.64 C290.324,587.596 293.716,584.424 297.76,584.556 C301.808,584.688 304.98,588.08 304.848,592.116 z" fill-opacity="0" stroke="#1A1919" stroke-width="4"/>
    <path d="M330.692,151.184 C318.9,160.704 305.392,176.468 305.392,176.468 C378.316,190.984 422.828,148.38 422.828,148.38 C422.828,148.38 422.54,184.476 447.496,214.344 L454.48,199.316 C454.48,199.316 469.628,221.668 465.184,262.68 C461.62,287.964 452.952,327.788 435.372,358.06 C402.496,414.7 332.148,415.464 300.012,409.284 C267.88,403.112 202.824,376.344 193.28,311.552 C187.88,274.94 195.68,232.116 201.952,207.832 C220.852,147.776 277.24,141.896 277.24,141.896 L255.628,163.844 C282.064,167.388 329.136,151.356 329.136,151.356 L330.692,151.184" fill="#F8D2B5"/>
    <path d="M298.88,256.324 C294.924,276.904 278.924,291.124 263.152,288.108 C247.38,285.076 237.784,265.924 241.74,245.344 C245.696,224.76 261.7,210.544 277.472,213.572 C293.248,216.604 302.84,235.74 298.88,256.324" fill="#FFFFFE"/>
    <path d="M417.356,279.164 C413.404,299.748 397.412,313.984 381.636,310.944 C365.852,307.904 356.264,288.768 360.228,268.192 C364.176,247.596 380.176,233.388 395.956,236.404 C411.732,239.436 421.308,258.58 417.356,279.164" fill="#FFFFFE"/>
    <path d="M245.76,287.24 C244.64,293.104 233.376,295.88 220.612,293.42 C207.856,290.968 198.416,284.228 199.544,278.368 C200.672,272.5 211.936,269.728 224.7,272.176 C237.456,274.636 246.888,281.38 245.76,287.24" fill="#EC9896"/>
    <path d="M442.068,324.956 C440.94,330.812 429.676,333.58 416.916,331.14 C404.152,328.688 394.716,321.94 395.844,316.076 C396.972,310.208 408.232,307.44 420.996,309.892 C433.76,312.34 443.192,319.088 442.068,324.956" fill="#EC9896"/>
    <path d="M278.236,223.192 C284.852,224.448 290.928,226.868 296.344,230.092 C292.584,221.472 285.932,215.196 277.472,213.572 C267.924,211.74 258.316,216.256 251.32,224.632 C259.676,222.052 268.88,221.396 278.236,223.192" fill="#D2E0EB"/>
    <path d="M391.86,245.096 C385.248,243.828 378.708,243.816 372.48,244.8 C379.18,238.192 387.684,234.82 396.132,236.432 C405.684,238.276 412.932,246.04 416.324,256.42 C409.524,250.916 401.224,246.896 391.86,245.096" fill="#D2E0EB"/>
    <path d="M374.792,341.82 C374.792,341.82 344.32,400.184 304.216,392.484 C263.496,384.66 257.432,319.28 257.432,319.28 C257.432,319.28 316.908,320.8 374.792,341.82" fill="#DF5158"/>
    <path d="M357.928,338.932 C357.428,341.528 337.964,339.972 314.456,335.46 C290.936,330.944 272.284,325.172 272.784,322.584 C273.284,319.988 292.748,321.528 316.268,326.044 C339.772,330.56 358.428,336.336 357.928,338.932" fill="#FFFFFE"/>
    <path d="M299.768,190.396 C291.932,174.564 262.152,171.46 251.144,185.488 M381.844,206.156 C394.996,194.368 423.8,202.512 428.832,219.624" fill-opacity="0" stroke="#1A1919" stroke-width="5.6" stroke-linecap="round" stroke-linejoin="round"/>
    <path d="M299.912,234.12 C292.776,206.556 242.564,196.776 238.284,257.768 M365.856,249.416 C380.96,223.628 435.02,231.9 415.808,291.968" fill-opacity="0" stroke="#1A1919" stroke-width="6.4" stroke-linecap="round" stroke-linejoin="round"/>
    <path d="M319.672,306.952 L321.12,299.404 M374.792,341.82 C374.792,341.82 344.32,400.184 304.216,392.484 C263.496,384.66 257.432,319.28 257.432,319.28 C257.432,319.28 316.908,320.8 374.792,341.82 z" fill-opacity="0" stroke="#1A1919" stroke-width="5.6" stroke-linecap="round" stroke-linejoin="round"/>
    <path d="M293.392,260.852 C290.7,274.868 280.632,284.716 270.904,282.852 C261.176,280.976 255.472,268.096 258.168,254.084 C260.864,240.06 270.924,230.208 280.652,232.076 C290.388,233.952 296.088,246.82 293.392,260.852" fill="#1A1919"/>
    <path d="M363.144,274.332 C360.456,288.344 366.16,301.228 375.888,303.096 C385.616,304.96 395.684,295.116 398.372,281.108 C401.076,267.076 395.38,254.196 385.64,252.324 C375.912,250.456 365.84,260.304 363.144,274.332" fill="#1A1919"/>
    <path d="M294.716,252.296 C294.164,255.164 291.388,257.044 288.512,256.484 C285.644,255.936 283.76,253.164 284.316,250.284 C284.864,247.412 287.636,245.54 290.512,246.088 C293.388,246.64 295.264,249.416 294.716,252.296" fill="#FFFFFE"/>
    <path d="M398.652,272.328 C398.096,275.216 395.324,277.088 392.448,276.536 C389.576,275.988 387.696,273.212 388.248,270.332 C388.8,267.464 391.576,265.576 394.448,266.132 C397.32,266.688 399.208,269.46 398.652,272.328" fill="#FFFFFE"/>
    <path d="M338.944,145.564 C326.488,151.872 305.392,176.468 305.392,176.468 C378.316,190.984 422.828,148.38 422.828,148.38 C422.828,148.38 422.54,184.476 447.496,214.344 L454.48,199.316 C454.48,199.316 469.628,221.668 465.184,262.68 C461.62,287.964 452.952,327.788 435.372,358.06 C402.496,414.7 332.148,415.464 300.012,409.284 C267.88,403.112 202.824,376.344 193.28,311.552 C187.88,274.94 195.68,232.116 201.952,207.832 C220.852,147.776 277.24,141.896 277.24,141.896 L255.628,163.844 C282.064,167.388 329.136,151.356 329.136,151.356" fill-opacity="0" stroke="#1A1919" stroke-width="5.6" stroke-linecap="round" stroke-linejoin="round"/>
  </g>
</svg>
