<?xml version="1.0"?>
<svg xmlns:rdf="http://www.w3.org/1999/02/22-rdf-syntax-ns#" xmlns="http://www.w3.org/2000/svg" xmlns:cc="http://creativecommons.org/ns#" xmlns:dc="http://purl.org/dc/elements/1.1/" xmlns:svg="http://www.w3.org/2000/svg" id="svg14755" viewBox="0 0 220.67 272.81" version="1.1">
  <defs id="defs14757">
    <clipPath id="clipPath8289" clipPathUnits="userSpaceOnUse">
      <path id="path8291" d="m433.81 307.92h27.085v-34.965h-27.085v34.965z"/>
    </clipPath>
    <clipPath id="clipPath8265" clipPathUnits="userSpaceOnUse">
      <path id="path8267" d="m464.82 375.09h29.033v-4.868h-29.033v4.868z"/>
    </clipPath>
    <clipPath id="clipPath8237" clipPathUnits="userSpaceOnUse">
      <path id="path8239" d="m466.07 378.66h9.131v-4.521h-9.131v4.521z"/>
    </clipPath>
    <clipPath id="clipPath8221" clipPathUnits="userSpaceOnUse">
      <path id="path8223" d="m469.09 380.38h9.131v-4.521h-9.131v4.521z"/>
    </clipPath>
    <clipPath id="clipPath8201" clipPathUnits="userSpaceOnUse">
      <path id="path8203" d="m474.85 360.88h8.681v-8.43h-8.681v8.43z"/>
    </clipPath>
  </defs>
  <g id="layer1" transform="translate(-577.77 -569.26)">
    <g id="g8179" transform="matrix(1.25 0 0 -1.25 711.75 783.99)">
      <path id="path8181" d="m0 0s48.6 44.601 57.267 69.268 7.166 10.665 5-5.001-1.666-8.166-4.666-11.166c0 0 28.333-12.167-3-27.167 0 0-12.666-1.333-9.166 9.167 0 0-14.701-30.704-36.434-44.102 0 0-9.001 3.734-9.001 9.001" fill="#f7dec4"/>
    </g>
    <path id="path8183" d="m663.17 805.24h-20.106v-26.132h20.106v26.132z" fill="#f7dec4"/>
    <g id="g8185" transform="matrix(1.25 0 0 -1.25 706.3 729.62)">
      <path id="path8187" d="m0 0c0-24.242-18.478-43.894-41.273-43.894-22.794 0-41.274 19.652-41.274 43.894s18.48 43.895 41.274 43.895c22.795 0 41.273-19.653 41.273-43.895" fill="#f7dec4"/>
    </g>
    <g id="g8189" transform="matrix(1.25 0 0 -1.25 676.99 735.91)">
      <path id="path8191" d="m0 0c0-4.491-3.64-8.135-8.134-8.135-4.492 0-8.135 3.644-8.135 8.135 0 4.492 3.643 8.133 8.135 8.133 4.494 0 8.134-3.641 8.134-8.133"/>
    </g>
    <g id="g8193" transform="matrix(1.25 0 0 -1.25 670.45 732.82)">
      <path id="path8195" d="m0 0c0-1.809-1.469-3.275-3.28-3.275-1.813 0-3.281 1.466-3.281 3.275 0 1.813 1.468 3.279 3.281 3.279 1.811 0 3.28-1.466 3.28-3.279" fill="#fff"/>
    </g>
    <g id="g8197" transform="matrix(1.25 0 0 -1.25 67.293 1182.8)">
      <g id="g8205">
        <g id="g8207" opacity=".2" clip-path="url(#clipPath8201)">
          <g id="g8209" transform="translate(483.53 356.67)">
            <path id="path8211" d="m0 0c0-2.326-1.943-4.215-4.34-4.215-2.398 0-4.342 1.889-4.342 4.215 0 2.329 1.944 4.215 4.342 4.215 2.397 0 4.34-1.886 4.34-4.215" fill="#fff"/>
          </g>
        </g>
      </g>
    </g>
    <g id="g8213" transform="matrix(1.25 0 0 -1.25 684.6 720.06)">
      <path id="path8215" d="m0 0s-14.362 9.474-29.032 4.278 11.919 17.113 29.032-4.278"/>
    </g>
    <g id="g8217" transform="matrix(1.25 0 0 -1.25 67.293 1182.8)">
      <g id="g8225">
        <g id="g8227" opacity=".2" clip-path="url(#clipPath8221)">
          <g id="g8229" transform="translate(469.09 375.86)">
            <path id="path8231" d="m0 0s3.73 4.755 9.131 4.512-4.027-1.129-6.982-4.083-1.774-0.054-2.149-0.429" fill="#fff"/>
          </g>
        </g>
      </g>
    </g>
    <g id="g8233" transform="matrix(1.25 0 0 -1.25 67.293 1182.8)">
      <g id="g8241">
        <g id="g8243" opacity=".2" clip-path="url(#clipPath8237)">
          <g id="g8245" transform="translate(466.07 374.14)">
            <path id="path8247" d="m0 0s3.73 4.756 9.131 4.512-4.029-1.128-6.984-4.082-1.772-0.054-2.147-0.43" fill="#fff"/>
          </g>
        </g>
      </g>
    </g>
    <g id="g8249" transform="matrix(1.25 0 0 -1.25 592.92 703.66)">
      <path id="path8251" d="m0 0s-12.667-19.668-10-40.001 5 12.333 19.333 8-1.667 16 2 23c0 0-3 14.334-11.333 9.001"/>
    </g>
    <g id="g8253" transform="matrix(1.25 0 0 -1.25 662.1 756.57)">
      <path id="path8255" d="m0 0c0-4.166-4.317-7.542-9.642-7.542-5.326 0-9.643 3.376-9.643 7.542s4.317 7.542 9.643 7.542c5.325 0 9.642-3.376 9.642-7.542" fill="#f4c283"/>
    </g>
    <g id="g8257" transform="matrix(1.25 0 0 -1.25 710 689.07)">
      <path id="path8259" d="m0 0s6 29.334-7.333 49.334-5.596-6.408-9.093-16.205-27.787 36.131-10.293 62.721c0 0-43.383-24.492-43.383-61.578 0 0-9.096-10.496-17.494 4.199 0 0-5.233-21.356 0-26.59 0 0-14.692 3.498-18.191 18.193 0 0 1.398-30.677 14.497-43.776 0 0 8.227-4.42 8.761-8.76 0 0 7.664 17.411 15.349 20.224v-11.772s20.856 16.01 41.847 16.01 15.762-19.708 6.666-40 16.264 11.075 10.667 30.667c0 0 9.392-12.916 9.132-25.377 0 0 12.533 15.058-1.132 32.71"/>
    </g>
    <g id="g8261" transform="matrix(1.25 0 0 -1.25 67.293 1182.8)">
      <g id="g8269">
        <g id="g8271" opacity=".5" clip-path="url(#clipPath8265)">
          <g id="g8273" transform="translate(464.82 373.93)">
            <path id="path8275" d="m0 0s16.762 4.328 29.032-3.704-14.531 5.594-29.032 3.704" fill="#f69220"/>
          </g>
        </g>
      </g>
    </g>
    <g id="g8277" transform="matrix(1.25 0 0 -1.25 639.28 676.09)">
      <path id="path8279" d="m0 0s-19.981 57.933 29.854 85.46-41.592-54.447 7.934-85.46-31.645 19.265-37.788 0" fill="#333"/>
    </g>
    <g id="g8281" transform="matrix(1.25 0 0 -1.25 667.39 793.89)">
      <path id="path8283" d="m0 0c-2.883-3.516-7.089-5.746-11.791-5.746-4.439 0-8.443 1.987-11.303 5.168-11.393-5.92-20.636-19.922-25.295-37.968h74.944c-4.828 18.701-14.588 33.024-26.555 38.546" fill="#faaf40"/>
    </g>
    <g id="g8285" transform="matrix(1.25 0 0 -1.25 67.293 1182.8)">
      <g id="g8293">
        <g id="g8295" opacity=".2" clip-path="url(#clipPath8289)">
          <g id="g8297" transform="translate(460.89 307.1)">
            <path id="path8299" d="m0 0c-0.524 0.242-1.036 0.513-1.529 0.813-15.904-7.584-25.556-34.964-25.556-34.964h9.393c6.998 20.218 14.239 30.189 17.692 34.151" fill="#fff"/>
          </g>
        </g>
      </g>
    </g>
    <g id="g8301" transform="matrix(1.25 0 0 -1.25 698.57 758.51)">
      <path id="path8303" d="m0 0s-9.095 0.106-20.854 3.714 1.427-11.897 7.471-17.941 9.695 6.186 13.383 14.227" fill="#f05b26"/>
    </g>
    <g id="g8305" transform="matrix(1.25 0 0 -1.25 676.45 768.02)">
      <path id="path8307" d="m0 0c1.073-2.413 2.479-4.783 4.311-6.615 0 0 1.849 1.179 4.239 3.178-2.791 2.332-6.071 3.169-8.55 3.437" fill="#c1272d"/>
    </g>
    <g id="g8309" transform="matrix(1.25 0 0 -1.25 626.02 691.87)">
      <path id="path8311" d="m0 0s-20.487-30.763-3.987-53.929-24.167 4.167-21.333 24 5.056 30.396 25.32 29.929"/>
    </g>
    <g id="g8313" transform="matrix(1.25 0 0 -1.25 621.9 730.68)">
      <path id="path8315" d="m0 0c0-7.235-4.161-13.101-9.293-13.101s-9.292 5.866-9.292 13.101c0 7.234 4.16 13.1 9.292 13.1s9.293-5.866 9.293-13.1" fill="#f7dec4"/>
    </g>
    <g id="g8317" transform="matrix(1.25 0 0 -1.25 605.26 721.37)">
      <path id="path8319" d="m0 0s11.758 0.629 6.718-10.496" stroke="#f4c283" stroke-width=".5" fill="none"/>
    </g>
    <g id="g8321" transform="matrix(1.25 0 0 -1.25 606.04 732.28)">
      <path id="path8323" d="m0 0c0-1.976 1.6-3.574 3.573-3.574 1.975 0 3.573 1.598 3.573 3.574 0 1.973-1.598 3.572-3.573 3.572-1.973 0-3.573-1.599-3.573-3.572" fill="#f4c283"/>
    </g>
    <g id="g8325" transform="matrix(1.25 0 0 -1.25 667.39 793.89)">
      <path id="path8327" d="m0 0s18.969-0.097 31.237 12.172l16.899-16.899s-16.686-12.668-30.218-12.668-17.918 8.536-17.918 17.395" fill="#faaf40"/>
    </g>
  </g>
  <metadata>
    <rdf:RDF>
      <cc:Work>
        <dc:format>image/svg+xml</dc:format>
        <dc:type rdf:resource="http://purl.org/dc/dcmitype/StillImage"/>
        <cc:license rdf:resource="http://creativecommons.org/licenses/publicdomain/"/>
        <dc:publisher>
          <cc:Agent rdf:about="http://openclipart.org/">
            <dc:title>Openclipart</dc:title>
          </cc:Agent>
        </dc:publisher>
        <dc:title>Boy5 side</dc:title>
        <dc:date>2010-12-05T03:07:36</dc:date>
        <dc:description>Boy5 side</dc:description>
        <dc:source>http://openclipart.org/detail/99337/boy5-side-by-dcatcherex</dc:source>
        <dc:creator>
          <cc:Agent>
            <dc:title>dcatcherex</dc:title>
          </cc:Agent>
        </dc:creator>
        <dc:subject>
          <rdf:Bag>
            <rdf:li>anime</rdf:li>
            <rdf:li>boy</rdf:li>
            <rdf:li>cartoon</rdf:li>
            <rdf:li>character</rdf:li>
            <rdf:li>clip art</rdf:li>
            <rdf:li>clipart</rdf:li>
            <rdf:li>comic</rdf:li>
            <rdf:li>man</rdf:li>
            <rdf:li>people</rdf:li>
          </rdf:Bag>
        </dc:subject>
      </cc:Work>
      <cc:License rdf:about="http://creativecommons.org/licenses/publicdomain/">
        <cc:permits rdf:resource="http://creativecommons.org/ns#Reproduction"/>
        <cc:permits rdf:resource="http://creativecommons.org/ns#Distribution"/>
        <cc:permits rdf:resource="http://creativecommons.org/ns#DerivativeWorks"/>
      </cc:License>
    </rdf:RDF>
  </metadata>
</svg>
