<svg id="svg4688" xmlns="http://www.w3.org/2000/svg" xmlns:xlink="http://www.w3.org/1999/xlink" viewBox="0 0 293 416.89"><defs><style>.cls-1{fill:url(#linear-gradient);}.cls-2{fill:#924b00;}.cls-2,.cls-26,.cls-3,.cls-4,.cls-8,.cls-9{stroke:#000;}.cls-2,.cls-3,.cls-4{stroke-linejoin:bevel;stroke-opacity:0.34;stroke-width:1.9px;}.cls-3,.cls-9{fill:#c15300;}.cls-26,.cls-4{fill:none;}.cls-5{fill:url(#linear-gradient-2);}.cls-6{fill:url(#linear-gradient-3);}.cls-7{filter:url(#filter6454);}.cls-8{fill:#994200;}.cls-8,.cls-9{stroke-opacity:0.2;stroke-width:1.43px;}.cls-10{fill:url(#linear-gradient-4);}.cls-11{fill:url(#linear-gradient-5);}.cls-12{fill:url(#linear-gradient-6);}.cls-13{fill:url(#linear-gradient-7);}.cls-14{fill:url(#linear-gradient-8);}.cls-15{fill:url(#linear-gradient-9);}.cls-16{fill:url(#linear-gradient-10);}.cls-17{fill:url(#linear-gradient-11);}.cls-18{fill:url(#linear-gradient-12);}.cls-19{fill:url(#linear-gradient-13);}.cls-20{fill:url(#linear-gradient-14);}.cls-21{fill:url(#linear-gradient-15);}.cls-22,.cls-24,.cls-25,.cls-34,.cls-37{stroke:#ff0;stroke-opacity:0.5;stroke-width:2.16px;}.cls-22{fill:url(#linear-gradient-16);}.cls-23{fill:url(#linear-gradient-17);}.cls-24{fill:url(#linear-gradient-18);}.cls-25{fill:gold;}.cls-26{stroke-opacity:0.18;stroke-width:1.09px;}.cls-27{fill:url(#linear-gradient-19);}.cls-28{fill:url(#linear-gradient-20);}.cls-29{fill:url(#linear-gradient-21);}.cls-30{fill:url(#linear-gradient-22);}.cls-31{filter:url(#filter8363);}.cls-32{fill:url(#linear-gradient-23);}.cls-33{fill:url(#linear-gradient-24);}.cls-34{fill:url(#linear-gradient-25);}.cls-35{fill:url(#linear-gradient-26);}.cls-36{fill:url(#linear-gradient-27);}.cls-37{fill:url(#linear-gradient-28);}.cls-38{fill:url(#linear-gradient-29);}.cls-39{fill:url(#linear-gradient-30);}.cls-40{fill:url(#linear-gradient-31);}</style><linearGradient id="linear-gradient" x1="457.93" y1="109.25" x2="471.32" y2="380.06" gradientTransform="matrix(1, 0, 0, -1, -313.09, 459.52)" gradientUnits="userSpaceOnUse"><stop offset="0"/><stop offset="1" stop-opacity="0"/></linearGradient><linearGradient id="linear-gradient-2" x1="-231.04" y1="-525.96" x2="-218.98" y2="-501.76" gradientTransform="matrix(-1.29, -1.05, 0.38, -0.47, 137.17, -134.23)" gradientUnits="userSpaceOnUse"><stop offset="0" stop-color="#fff"/><stop offset="1" stop-color="#fff" stop-opacity="0"/></linearGradient><linearGradient id="linear-gradient-3" x1="-1443.45" y1="-127.65" x2="-1411.4" y2="-127.65" gradientTransform="matrix(-0.52, -0.41, -0.36, 0.75, -504.85, -144.49)" gradientUnits="userSpaceOnUse"><stop offset="0" stop-color="#fff" stop-opacity="0.45"/><stop offset="1" stop-color="#fff" stop-opacity="0"/></linearGradient><filter id="filter6454" x="-0.07" y="-0.19" width="1.14" height="1.38" name="filter6454"><feGaussianBlur result="feGaussianBlur6456" stdDeviation="7.28"/></filter><linearGradient id="linear-gradient-4" x1="-57.53" y1="-701.37" x2="-45.46" y2="-677.17" gradientTransform="matrix(1.67, 0, 0, -0.6, 181.84, -61.06)" xlink:href="#linear-gradient-2"/><linearGradient id="linear-gradient-5" x1="2.32" y1="-344.73" x2="48.43" y2="-289.43" gradientTransform="matrix(1.16, 0, 0, -0.87, 59.1, 72.82)" xlink:href="#linear-gradient-2"/><linearGradient id="linear-gradient-6" x1="-53.3" y1="-602.36" x2="-41.24" y2="-578.16" gradientTransform="matrix(1.55, 0.61, 0.22, -0.56, 261.24, 17.49)" xlink:href="#linear-gradient-2"/><linearGradient id="linear-gradient-7" x1="-99.73" y1="-863.23" x2="-87.67" y2="-839.03" gradientTransform="matrix(1.17, -1.19, -0.43, -0.42, -200.38, -119.76)" xlink:href="#linear-gradient-2"/><linearGradient id="linear-gradient-8" x1="-134.26" y1="-889.82" x2="-122.2" y2="-865.62" gradientTransform="matrix(0.69, -1.52, -0.55, -0.25, -291.43, -36.17)" xlink:href="#linear-gradient-2"/><linearGradient id="linear-gradient-9" x1="-209.99" y1="-823.08" x2="-197.93" y2="-798.88" gradientTransform="matrix(-0.7, -1.51, -0.54, 0.25, -415.33, 257.85)" xlink:href="#linear-gradient-2"/><linearGradient id="linear-gradient-10" x1="-158" y1="-359.03" x2="-145.94" y2="-334.83" gradientTransform="matrix(0.26, -1.65, 0.59, 0.09, 376.36, 145.48)" xlink:href="#linear-gradient-2"/><linearGradient id="linear-gradient-11" x1="-210.71" y1="-431.29" x2="-198.65" y2="-407.09" gradientTransform="matrix(-0.75, -1.49, 0.54, -0.27, 262.66, -47.57)" xlink:href="#linear-gradient-2"/><linearGradient id="linear-gradient-12" x1="-977.02" y1="-160.88" x2="-945.16" y2="-160.88" gradientTransform="matrix(0.58, -0.26, -0.26, -1, 523.12, -63.75)" xlink:href="#linear-gradient-3"/><linearGradient id="linear-gradient-13" x1="-1065.3" y1="-227.21" x2="-1033.34" y2="-227.21" gradientTransform="matrix(0.43, -0.53, -0.58, -0.69, 375.73, -327.5)" xlink:href="#linear-gradient-3"/><linearGradient id="linear-gradient-14" x1="-1255.43" y1="-185.83" x2="-1223.61" y2="-185.83" gradientTransform="matrix(-0.02, -0.86, -1.18, 0.03, -88.2, -664.99)" xlink:href="#linear-gradient-3"/><linearGradient id="linear-gradient-15" x1="-1419.12" y1="-116.56" x2="-1387.11" y2="-116.56" gradientTransform="matrix(-0.58, -0.42, -0.41, 0.77, -631.84, -118.56)" xlink:href="#linear-gradient-3"/><linearGradient id="linear-gradient-16" x1="-1032.92" y1="8.66" x2="-980.2" y2="157.45" gradientTransform="matrix(0.94, 0, 0, -1.45, 1111.26, 327.7)" gradientUnits="userSpaceOnUse"><stop offset="0" stop-color="#dc0000"/><stop offset="1" stop-color="#ffb200"/></linearGradient><linearGradient id="linear-gradient-17" x1="-2.03" y1="252.86" x2="311.42" y2="8.84" gradientTransform="matrix(0.81, 0, 0, -1.24, -27.6, 275.18)" xlink:href="#linear-gradient-2"/><linearGradient id="linear-gradient-18" x1="-1322.86" y1="152" x2="-1349.66" y2="209.38" gradientTransform="matrix(0.7, 0, 0, -1.94, 1055.37, 575.87)" xlink:href="#linear-gradient-16"/><linearGradient id="linear-gradient-19" x1="-21.55" y1="-294.67" x2="22.22" y2="-265.08" gradientTransform="matrix(1.16, 0, 0, -0.87, 59.4, 72.82)" xlink:href="#linear-gradient-2"/><linearGradient id="linear-gradient-20" x1="486.72" y1="245.8" x2="520.76" y2="245.8" gradientTransform="matrix(0.61, 0, 0, -1.65, -91.98, 494.72)" xlink:href="#linear-gradient-3"/><linearGradient id="linear-gradient-21" x1="114.52" y1="-482.8" x2="47.24" y2="-387.67" gradientTransform="matrix(1.32, 0, 0, -0.76, 97.89, 17.62)" xlink:href="#linear-gradient-2"/><linearGradient id="linear-gradient-22" x1="13.13" y1="-491.69" x2="41.9" y2="-413.33" gradientTransform="matrix(1.33, 0, 0, -0.75, 100.69, 15.02)" gradientUnits="userSpaceOnUse"><stop offset="0" stop-color="#fdffff"/><stop offset="1" stop-color="#fdffff" stop-opacity="0"/></linearGradient><filter id="filter8363" x="-0.13" y="-0.34" width="1.25" height="1.68" name="filter8363"><feGaussianBlur result="feGaussianBlur8365" stdDeviation="5.46"/></filter><linearGradient id="linear-gradient-23" x1="-104.71" y1="-869.89" x2="-92.65" y2="-845.69" gradientTransform="matrix(1.1, -1.25, -0.45, -0.4, -25.09, -152.23)" xlink:href="#linear-gradient-2"/><linearGradient id="linear-gradient-24" x1="-238.8" y1="-385.08" x2="-195.02" y2="-355.49" gradientTransform="matrix(-0.35, -1.1, -0.83, 0.26, -129.06, 171.17)" xlink:href="#linear-gradient-2"/><linearGradient id="linear-gradient-25" x1="-987.86" y1="36.7" x2="-928.92" y2="113.01" gradientTransform="matrix(0.93, 0, 0, -1.47, 1108.29, 337.67)" xlink:href="#linear-gradient-16"/><linearGradient id="linear-gradient-26" x1="445.84" y1="109.26" x2="261.58" y2="7.88" gradientTransform="matrix(0.8, 0, 0, -1.26, -24.06, 268.88)" xlink:href="#linear-gradient-2"/><linearGradient id="linear-gradient-27" x1="553.95" y1="183.29" x2="592.58" y2="183.29" gradientTransform="matrix(0.6, 0, 0, -1.66, -93.01, 498.82)" xlink:href="#linear-gradient-3"/><linearGradient id="linear-gradient-28" x1="-1170.27" y1="72.98" x2="-1141.97" y2="170.8" gradientTransform="matrix(0.8, 0, 0, -1.71, 1077.61, 459.38)" xlink:href="#linear-gradient-16"/><linearGradient id="linear-gradient-29" x1="396.99" y1="300.94" x2="437.88" y2="300.94" gradientTransform="matrix(0.54, 0, 0, -1.84, -106.74, 591.01)" xlink:href="#linear-gradient-3"/><linearGradient id="linear-gradient-30" x1="203.01" y1="240.36" x2="346.67" y2="83.48" gradientTransform="matrix(0.68, 0, 0, -1.46, -51.73, 368.54)" xlink:href="#linear-gradient-2"/><linearGradient id="linear-gradient-31" x1="194.27" y1="295.07" x2="323.28" y2="162.22" gradientTransform="matrix(0.6, 0, 0, -1.66, -67.25, 482.68)" xlink:href="#linear-gradient-2"/></defs><title>fire1</title><g id="layer1"><g id="g9278"><path id="path2412" class="cls-1" d="M134.64-4.24,130,.89c-9.31,12.17-23.43,23.4-22.69,40.28-.1,14,5.43,27.11,9.57,40.27.82-.94,1.64-1.91,2.46-2.9l.54,1.44c7.16-8.25,10.27-14.33,11.31-19.66A154.42,154.42,0,0,1,135,79.13q.15,4.07.5,8.41c-7.8,32.63-26.87,44.46-23.4,79.69-2.89-19.64-4.89-36.69-.85-51.13-2.31-17.9-4.63-33.2-22.53-45.91,5.49,22.24,11.83,55.76-6.94,64.13-3,6.15-12.85,20.9-15.25,43.28a115.46,115.46,0,0,0-3.25,13,71.55,71.55,0,0,0-.78,15.72,71.67,71.67,0,0,0,2.81,23.31c.43,1.18.87,2.33,1.32,3.47A43.64,43.64,0,0,1,54,224.41c8.26,24.4,18.57,43.89,31.94,58.5L54.36,300.82l-.32-.19L49,310.48l4.94,3.37L14.82,324.63a12.75,12.75,0,0,0-3.59.69c-8.83,3.07-12.75,15.26-8.72,27.22S17,371.73,25.83,368.66a12.67,12.67,0,0,0,3-1.53l.09.22L79,331.1l3.6,2.47,8.59-5L85.29,338l.32.09-.82,6.81-27,23.1A12.39,12.39,0,0,0,53,371c-2.95,3-4,7.3-3.5,11.84v0c0,.19,0,.38.07.56A19,19,0,0,0,54,393.88c.34.41.7.8,1.06,1.16a27.16,27.16,0,0,0,2.07,2.25c8.39,8.21,20.18,9.77,26.34,3.47A12.77,12.77,0,0,0,86.83,394l29.09-42.88,9.44.94,1.47.53.15-.34,1.35.12-.29-2.53,4.63-10.28.91,50.13a15.84,15.84,0,0,0-.82,5.37c.2,10.24,10.21,18.3,22.35,18,.8,0,1.59-.1,2.37-.19.61-.05,1.2-.15,1.78-.25l.66-.12a21.79,21.79,0,0,0,5.62-1.94l.1,0c.47-.25.93-.51,1.37-.78,6-3.46,9.85-9.27,9.72-15.78a16.09,16.09,0,0,0-2.12-7.66L160.2,334.44l9,5.85,39.94,53a14.9,14.9,0,0,0,4.37,4.47c5.77,3.77,13.19,2.74,18.81-2a13.53,13.53,0,0,0,6.1-6.13,17.11,17.11,0,0,0,1.81-10.28,18.68,18.68,0,0,0-2.94-10.87l.44-.31L236.11,367a14.26,14.26,0,0,0-3.07-2.72,13.1,13.1,0,0,0-1.5-.85L204,341.82l7.72-2.19V328.35l-.06,0v-.19l-1.16.38L195,320.13c1.05-.06,2.09-.15,3.13-.25l62.44,35.78a13.56,13.56,0,0,0,6.87,3.94l1.41.81.19-.53c6.39.76,13.32-2.77,17.34-9.53a19.66,19.66,0,0,0,1.12-2.19c.12-.2.24-.4.35-.62A17.3,17.3,0,0,0,289,335.38a15.5,15.5,0,0,0-6.59-10l-.59-.34.06-.19-.81-.19a14,14,0,0,0-5.82-1.43l-30.93-7.66,18.84-20.84-7.28-8-.69.81-2.09-.12c8.71-14.52,11.69-33.14,6.25-54.41-7,12.84-11.55,20-23.07,23.84,3.52-14,1-28.63.5-42.87a64.38,64.38,0,0,1,2-14c-.44,11.08,3.47,21.67,5.93,32.34.81-.77,1.63-1.56,2.44-2.37.29,1,.58,2,.91,3.09,12.15-11.71,13.13-18.36,12.28-25.75a20.94,20.94,0,0,0-.53-6.53c0-2.86-1.11-5.53-1.75-8.19,1.17-5,4.67-12,8.18-23.66-.9,1.05-1.8,2.06-2.71,3,1.57-4.51,3-9.09,4.15-13.75l-5.12,4.66c-3.24,3.43-7,6.81-10.5,10.34a94.48,94.48,0,0,1,15.78-16.31,1.19,1.19,0,0,0,.09-.15c.31-.25.6-.51.91-.75-.16,0-.31,0-.47.06,1.83-3.69-2.79-5-6.13-5.06a81.86,81.86,0,0,0-31.59,11.37c5.43-18.59,5.5-38.65-8.59-55.78-4.49,14.94-9.55,27-16.66,38.22-2.39-7-6.44-13.55-11-19.63,3.26-14.35,5-28.49-.09-43.72,1.44-20.21-31.78-19.6-32.06-81.4C147.7,18.48,138.9,34,136,55.26c-2.49-3.45-4.48-5.83-3.22,1.88.07,1.41.16,2.8.28,4.21-.53-.83-1.07-1.67-1.62-2.5a25.59,25.59,0,0,0,0-6.37,24,24,0,0,0-.88-6.47c0-4.58-2.72-8.29-3.59-12.44.57-5.83,4-14.36,6.9-28.75-.41.59-.82,1.17-1.25,1.72.84-3.56,1.59-7.15,2.1-10.78ZM216.89,57.6l-1.44,6.75c-1.87,8-1,16.78-4.5,24.22a24.81,24.81,0,0,0-8.12,27.59c.84,6.26,2.54,8.57,5.31,6,.13.42.25.82.4,1.25C224.75,106.8,227.47,96.93,226,87.94a24.68,24.68,0,0,0-1.65-8.34C221.86,72.28,219.67,64.82,216.89,57.6Z"/><path id="path15367" class="cls-2" d="M268.9,359.73l-77.1-44.18,13-10.39,77.1,19.06Z"/><path id="path15362" class="cls-3" d="M259.17,332.18c5.31-8.93,15.73-12.26,23.25-7.43s9.33,16,4,24.93-15.73,12.26-23.26,7.43-9.32-16-4-24.93Z"/><path id="path18511" class="cls-4" d="M273.64,342.13c.58-.49.89.63.74,1.07a1.67,1.67,0,0,1-2.67.55c-1.46-1.12-1.37-3.46-.3-4.83a4,4,0,0,1,6.1,0,6.48,6.48,0,0,1-.16,8.59c-2.64,2.87-7,2.42-9.51-.49a9.38,9.38,0,0,1,.6-12.34c3.71-3.75,9.62-3.07,12.94,1a12.3,12.3,0,0,1-1.05,16.1c-4.77,4.62-12.23,3.71-16.36-1.51a15.2,15.2,0,0,1,1.5-19.87c5.83-5.5,14.83-4.35,19.78,2"/><path id="path24798" class="cls-5" d="M225.14,313.54c-7.11,6.16-11.78,4.67-24,7,17,8.63,38.85,23,56.7,31.91-3.76-7.6-3.23-17.34.09-25.41-10.66-.66-24.27-3.26-32.77-13.55Z"/><path id="path21020" class="cls-6" d="M272.22,334.55c3-6.29,9-8.64,13.36-5.24s5.36,11.26,2.3,17.55-9,8.63-13.36,5.24S269.17,340.84,272.22,334.55Z"/><path id="path15363" class="cls-2" d="M10.74,325.08,61,311.22l39.85,3.47-71.91,52L22,351.07l-11.26-26Z"/><path id="path15364" class="cls-2" d="M66.18,379.66,84.38,397l32.92-48.52-9.53-9.53L93,337.21,51.46,372.73l14.72,6.93Z"/><path id="path15365" class="cls-2" d="M161.48,393.52l13.86-5.2-26.85-97L132,302.56l1.74,96.16,27.72-5.2Z"/><path id="path15366" class="cls-2" d="M219.52,396.12l-10.39-3.47L158.88,326l14.73-8.67,64.11,50.25-15.6,11.26-2.6,17.33Z"/><g class="cls-7"><polygon points="99.56 275.3 54.8 300.62 54.48 300.43 49.4 310.27 83.08 333.37 91.7 328.37 85.77 337.84 86.06 337.93 84.73 348.93 113.02 350.65 125.92 351.93 127.27 352.4 127.42 352.09 128.76 352.21 128.49 349.65 141.15 321.46 181.84 348.09 212.18 339.43 212.18 328.15 212.12 328.18 212.12 327.99 210.96 328.37 149.81 294.99 149.81 282.24 133.62 286.27 132.93 285.9 120.33 289.43 99.56 275.3 99.56 275.3"/></g><path id="path15358" class="cls-3" d="M34.53,340.75c4,12,.13,24.15-8.7,27.22s-19.28-4.15-23.3-16.11-.13-24.15,8.7-27.21S30.5,328.79,34.53,340.75Z"/><path id="path15359" class="cls-3" d="M79.39,373.8c8.4,8.21,10.21,20,4,26.29s-18,4.74-26.37-3.47-10.21-20-4-26.28S71,365.59,79.39,373.8Z"/><path id="path15360" class="cls-3" d="M154.39,375.32c12.13-.3,22.14,7.77,22.34,18s-9.49,18.8-21.62,19.1-22.14-7.77-22.34-18,9.48-18.8,21.62-19.1Z"/><path id="path15361" class="cls-3" d="M209.4,371.28c5.4-9.26,16-12.71,23.64-7.71s9.48,16.58,4.08,25.84-16,12.72-23.64,7.71S204,380.54,209.4,371.28Z"/><path id="path16000" class="cls-8" d="M54.13,300.28l45-25.45,24.26,16.46-22.45,31L82.64,332.88l-28.51-32.6Z"/><path id="path16001" class="cls-8" d="M85.32,337.36l29.38-46.93,34.65-8.66v19.92l-22.52,50.25L85.32,337.36Z"/><path id="path15996" class="cls-9" d="M54.06,300,49,309.79l33.68,23.09,3.76-14L54.06,300Z"/><path id="path15997" class="cls-9" d="M126.36,340.23,126.8,351l-42.5-2.56,1.34-11.24Z"/><path id="path17886" class="cls-4" d="M16.11,345.12c.13.93-.88.42-1.16-.05a2.18,2.18,0,0,1,.73-3.07c1.52-.61,3.31,1.2,3.92,3.27.89,3-.54,5.7-2.64,6.07-2.81.49-5.79-2.71-6.66-6.47-1.09-4.74,1.17-8.75,4.54-9.09,4.08-.41,8.29,4.23,9.4,9.69,1.31,6.44-1.8,11.8-6.44,12.1-5.34.34-10.8-5.75-12.15-12.91C4.12,336.53,8.09,329.8,14,329.55c6.62-.28,13.32,7.27,14.9,16.12,1.76,9.83-3.08,17.92-10.24,18.12"/><path id="path18508" class="cls-4" d="M66,384.86c.62.71-.5.83-1,.59a2.17,2.17,0,0,1-1.06-3c.94-1.34,3.42-.81,5.06.6,2.41,2.05,2.68,5.06,1.12,6.52-2.08,1.95-6.33.9-9.12-1.77-3.51-3.38-3.8-8-1.17-10.09,3.19-2.58,9.25-1,13.17,3,4.62,4.67,5,10.87,1.23,13.65C69.94,397.56,62,395.45,57,390.2c-5.73-6-6.09-13.77-1.29-17.21,5.38-3.85,15.12-1.21,21.29,5.34,6.85,7.26,7.23,16.68,1.35,20.77"/><path id="path18509" class="cls-4" d="M153.44,395c.81.24.07,1.1-.4,1.21a2,2,0,0,1-2.28-2c0-1.85,2-3,3.88-2.83a4.66,4.66,0,0,1,4.15,5.22c-.46,3.17-4,5.05-7.35,4.46a7.3,7.3,0,0,1-6-8.44c.92-4.49,6-7.09,10.83-6.08,5.67,1.19,9.09,6.63,7.91,11.65-1.37,5.8-8,9.14-14.31,7.71-7.13-1.63-11.4-8.54-9.78-14.88,1.81-7.11,10.05-11.19,17.78-9.32,8.59,2.07,13.71,10.43,11.66,18.09"/><path id="path18510" class="cls-4" d="M223.74,380.62c.57-.25.49.78.25,1.11a1.26,1.26,0,0,1-2.17-.26A3.47,3.47,0,0,1,223,377.3c1.75-1.28,3.83-.32,4.59,1.63a6.35,6.35,0,0,1-2.57,7.24c-2.81,1.71-6,.14-7-3a9.17,9.17,0,0,1,4-10.31c3.85-2.17,8.1,0,9.43,4.37A12,12,0,0,1,226,390.6c-4.9,2.63-10.24-.18-11.85-5.73-1.8-6.24,1.45-13.67,6.8-16.45,5.94-3.08,12.38.35,14.27,7.11"/><path id="path21024" class="cls-10" d="M127,339.17l1.33,12.58-43.39-4.36,1.34-11.24Z"/><path id="path21022" class="cls-11" d="M87.15,336.3l18.91-31.66,7.71.92L135,318.3,126,340.1Z"/><path id="path24782" class="cls-12" d="M84,320l-1.85,11.59L50,309.58l5.34-10L84,320Z"/><path id="path24788" class="cls-13" d="M58.79,318.61q9.76,6.12,19.52,12.25C63.87,340.77,50.71,349.72,35,360.6c2.89-8,3.2-17.23-1-24.88,10.52-1.84,17.5-5.94,24.8-17.11Z"/><path id="path24790" class="cls-14" d="M90.3,349.67c9.12.64,15,.31,24.46,1.26-9.52,13.95-15.27,23-27.27,38.95,0-8.48-4.84-17-11.4-22.71,9.25-5.34,11.18-4.5,14.21-17.5Z"/><path id="path24792" class="cls-15" d="M142.86,323.92c7.71,5.63,12.21,7.41,16.71,9.83,4.21,17,8,28.6,12.64,47.15-6.45-5.5-15-9-23.64-7.8C150.54,362.6,150.76,334.68,142.86,323.92Z"/><path id="path24794" class="cls-16" d="M142.38,322.58c-4.26,5.9-6.59,10.83-9.56,15.45.66,17.51.68,28.58,1.33,47.69,5.32-8.36,11.92-12.85,20.56-14C149.91,362.13,137.77,335.1,142.38,322.58Z"/><path id="path24796" class="cls-17" d="M181.69,347.17c-3.73-2.08-.45,1.27-9.85-5.07,10,13.57,21.5,29.29,34.11,44.76-3-10,4.18-17.14,10.52-23.13C207,358.75,199.38,344.73,181.69,347.17Z"/><path id="path21016" class="cls-18" d="M19.44,341.47c2.2,8.41.07,17-4.76,19.16S4.16,357.71,2,349.29s-.07-17,4.75-19.16S17.23,333.05,19.44,341.47Z"/><path id="path21017" class="cls-19" d="M66.84,377.15c4.84,5.78,5.89,14.07,2.33,18.51S58.81,399,54,393.22s-5.89-14.07-2.34-18.51S62,371.37,66.84,377.15Z"/><path id="path21018" class="cls-20" d="M155.05,386.21c9.93-.22,18.12,5.46,18.28,12.67s-7.76,13.24-17.69,13.45-18.12-5.47-18.29-12.68,7.77-13.23,17.7-13.44Z"/><path id="path21019" class="cls-21" d="M220.84,376.27c3.42-6.52,10.13-8.95,15-5.43s6,11.67,2.59,18.19-10.14,9-15,5.43-6-11.67-2.58-18.19Z"/><path id="path15991" class="cls-22" d="M54.06,223.72c19.34,57.18,50,87.5,104.82,91,60.35,19.34,116.38-20.22,100.49-82.3-7.22,13.28-11.84,20.5-24.25,24.25,4.91-34.36-26.57-40.14-11.27-77.1,10.69-22.81,17-50.82-1.73-73.64-7.79,26-17.32,43.32-36.38,62.38,2-31.77,18.77-57.47,8.66-87.5,1.44-20.21-31.77-19.64-32.05-81.43-21.08,26.57-30,47.07-26.86,87.49-7.8,32.64-26.86,44.47-23.39,79.71-2.89-19.64-4.91-36.68-.87-51.12-2.31-17.9-4.62-33.21-22.52-45.91,5.49,22.23,11.84,55.73-6.93,64.1-5.2,10.69-31.19,47.36-2.6,104.83C70.81,233.54,62.43,232.1,54.06,223.72Z"/><path id="path29198" class="cls-23" d="M156.06,11.79c-15,19.69-21.35,44.82-19.44,69.33,1.43,12-4.94,23.15-9.48,33.86-8.34,16-15.89,33.39-13.61,51.83-.65,10.63-5.37-.08-4.88-5.43-2.26-15-3.23-30.63-.14-45.52-1.56-14.49-5.23-30.2-17.2-39.73,3.56,17.2,8.18,36.59-.4,53-3.08,5.51-10,7-11.4,13.63-14.45,25.3-15.53,56.84-4.57,83.63,2.28,6.1,5.26,11.92,7.84,17.9-8-4.6-16.88-7.72-24.65-12.75,10.77,31.54,31.26,62.58,63.6,74.86,12.71,5.41,26.58,6.42,40,8.55,29.45,9.2,66,3.16,85.43-22.47,11.41-14.83,14.58-34.84,10.7-52.91-5.15,10.4-14.06,18.83-25.57,21.5C235,247.75,230.93,234.38,224,223c-7.44-12.18-9.2-27.59-3.25-40.76,9-19.76,15.83-43.68,5.33-64.25-3.25-9.5-5.54-3.67-7.19,3.06-6.86,21.12-20.73,39.09-36.42,54.5,1.09-21.55,8.61-41.94,11.8-63.12,1.83-10.79-.27-21.62-2.53-32.07C190.23,68.58,178,62.55,172.83,52.5c-9.2-13.37-12.26-30-12.8-46l-4,5.25Z"/><path id="path15990" class="cls-24" d="M152.82,306c-45.92-48.51-53.72-82.3-23.39-114.35,34.07-60.64,25.7-98.76.86-135.15,23.39,80.57-27.72,132.55-44.18,155.94-9.82-30.32-1.44-43.32,12.13-80.57-26.57,28.88-42.74,63.82-32.92,97,17.9,50,60.06,60.93,87.5,77.1Z"/><path id="path15994" class="cls-25" d="M208.54,122.72c-6.16-17.9-1.13-21.73,4.26-29.55,5.56-2.17,3.85-9.72,6.89-26.54,4.59,18.77,16.93,27.31-11.15,56.09Z"/><path id="path20387" class="cls-26" d="M86.92,319.1,100,313.16"/><path id="path24159" class="cls-27" d="M56.17,300.38l27-14.9,22.08,17.69-5.39,9.14L86,318.25,56.17,300.38Z"/><path id="path28563" class="cls-28" d="M215.46,63.69c-1.88,8-1,16.77-4.5,24.22a24.78,24.78,0,0,0-8.13,27.58c1.11,8.22,3.68,9.64,8.24,2.13,9.73-10,18.84-24.36,13.3-38.71-2.5-7.32-4.69-14.75-7.48-22q-.72,3.38-1.43,6.75Z"/><path id="path16002" class="cls-8" d="M117.3,300l64.11,43.31,30.32-14.72L135.49,287,113.83,293,117.3,300Z"/><path id="path20388" class="cls-26" d="M126.12,339.69l10.29-21"/><path id="path21027" class="cls-29" d="M114.28,298.42l64.11,43.31L208.71,327l-76.24-41.59-21.66,6.07,3.47,6.93Z"/><path id="path15998" class="cls-9" d="M113.83,293v10.39l67.58,44.19,30.32-8.67V327.68L184,336.34Z"/><path id="path21028" class="cls-30" d="M113.77,292.88v10.39l67.57,44.18,30.32-8.66V327.53l-27.72,8.66Z"/><g class="cls-31"><polygon points="200.12 282.47 179.47 304.97 246.03 313.6 246.9 314.5 266.31 293.03 259.02 285.07 258.33 285.88 200.12 282.47"/></g><g id="g30446"><path id="path16003" class="cls-8" d="M260.14,284.89l-59-3.5-20.66,22.5,67.89,8.8Z"/><path id="path15999" class="cls-9" d="M241.13,306.29l6.81,7.2,19.4-21.5-7.28-8Z"/><path id="path20389" class="cls-26" d="M241.92,306.29,195.6,300"/><path id="path24784" class="cls-32" d="M260.55,285.09l5.84,7L248,312.79l-6.37-7.2Z"/><path id="path24786" class="cls-33" d="M240.85,305.69l-39-5.8,24-16.2,15.8.7L258,285l-17.12,20.7Z"/></g><path id="path15993" class="cls-25" d="M248.11,232.39c15.88-15.31,12.71-21.95,11.26-32.92-4.62-5.2,1.16-12.13,6.93-31.19C251.58,185.32,234.25,187.63,248.11,232.39Z"/><path id="path15992" class="cls-34" d="M173.61,306c17.9-10.1,22.81-41.87,25.12-77.1,4.33-34.08,13-68.15,70.17-73.64-23.39,18.77-42.45,41.87-33.78,84.9-2.31,62.67-48.81,60.36-61.51,65.84Z"/><path id="path26056" class="cls-35" d="M262.31,150.3c-24.38,3.46-49.51,18.11-56.66,43-11.49,31.1-5.14,66.49-20.8,96.36-5.95,2.58-4.5,13.67,2.85,11.5,21.51-3.9,41.94-18.85,47.39-40.78,5.25-15.24,2.27-31.35,1.71-47,.72-22.69,13.86-43.16,31.11-57.16,3-4.35-2-5.81-5.6-5.91Z"/><path id="path28562" class="cls-36" d="M262.61,162.19c-9.82,10.4-24.08,20.13-23.73,36.12-.73,11.46,3.35,22.38,5.89,33.38,8.53-8.14,18.22-18.74,15.1-31.58,0-5.65-4.29-10.6-.94-16.11,3.21-8.73,6.57-17.41,8.81-26.47l-5.13,4.66Z"/><path id="path15989" class="cls-37" d="M142.42,282.63c-2.31-27.72-5.49-47.65,29.46-72.77,59.19-41.29,30-65.26-6.93-108.29,11,42.74-6.65,76.81-21.66,99.63-9.82,14.15-43.9,43-.87,81.43Z"/><path id="path15995" class="cls-25" d="M119.84,79.28c16-18.41,11.88-26,9.27-38.66-5.55-5.84.13-14.12,4.68-36.48C119.23,24.52,100.44,27.91,119.84,79.28Z"/><path id="path28564" class="cls-38" d="M130,.22c-9.31,12.18-23.43,23.41-22.69,40.28-.1,14,5.43,27.12,9.56,40.28,8.44-9.63,17.42-21.87,13.66-35.44,0-5.37-3.73-9.54-3.84-14.62,2.06-12,6.31-23.54,8-35.62L130,.22Z"/><path id="path26055" class="cls-39" d="M164.05,94.41c6.41,29.13-.19,59.83-14.93,85.42-9.15,17.6-27.2,31.08-28.92,52-2.76,18.25,10.39,33.46,22.57,45.24,5,6.24.71-8.51,1.38-12-2-18,1.1-38.09,15.58-50.4,16.13-15.69,39.13-26.56,46.85-49.11,5.23-19.91-8.7-37.76-20.84-51.9-7.32-8.88-15-17.41-22.72-26q.53,3.34,1,6.69Z"/><path id="path26054" class="cls-40" d="M135,68.56c.63,13.78,4.55,27.42,2.75,41.33-1.58,32.46-15.84,63-35.54,88.41-3.65,5.19-7.54,10.21-11.31,15.32-5-16.77-2.76-34.86,4-50.77a107.82,107.82,0,0,0,7.39-26.48A119.49,119.49,0,0,0,65.49,202c-3.79,23.17,4.36,47,19.73,64.4,19.32,22.8,47.11,35.61,74.05,47.06-15.26-21.46-36.51-40.83-41-68-3.1-15.75,3.1-31.55,13.45-43.33,11.84-16.27,19.21-35.61,23.59-55.15a100.76,100.76,0,0,0-12.77-75C139.09,69.52,133,56.35,135,68.56Z"/></g></g></svg>