<svg id="svg11683" xmlns="http://www.w3.org/2000/svg" viewBox="0 0 224.73 346.6"><defs><style>.cls-1,.cls-2,.cls-3,.cls-4{fill:none;}.cls-1,.cls-10,.cls-14,.cls-15,.cls-17,.cls-2,.cls-3,.cls-4,.cls-5,.cls-6,.cls-7,.cls-8,.cls-9{stroke:#000;}.cls-1{stroke-width:2.42px;}.cls-2{stroke-width:1.91px;}.cls-10,.cls-11,.cls-14,.cls-17,.cls-3,.cls-5,.cls-6,.cls-7,.cls-8{stroke-linecap:round;}.cls-3{stroke-width:1.16px;}.cls-4{stroke-width:3.18px;}.cls-5,.cls-6,.cls-7,.cls-8{stroke-linejoin:round;}.cls-5{stroke-width:5.4px;}.cls-6{stroke-width:3.65px;}.cls-7{stroke-width:2.9px;}.cls-8{stroke-width:2.04px;}.cls-10,.cls-9{fill:#464646;}.cls-9{stroke-width:0.77px;}.cls-10{stroke-width:0.43px;}.cls-11{stroke:#fff;stroke-width:0.6px;}.cls-12,.cls-16{fill-opacity:0.32;}.cls-12{opacity:0.34;}.cls-12,.cls-16,.cls-17{isolation:isolate;}.cls-13{opacity:0.22;}.cls-14,.cls-15{fill:#fff;}.cls-14,.cls-17{stroke-width:0.2px;}.cls-15{stroke-width:0.15px;}.cls-16{opacity:0.15;}.cls-17{fill:#192522;opacity:0.07;}</style></defs><title>spider 10</title><g id="layer1"><g id="g11516"><g id="g11202"><path id="path10147" class="cls-1" d="M44.4,173.67,10.2,128.18"/><path id="path10149" class="cls-2" d="M9.8,128.37l13.5-55.3"/><path id="path10151" class="cls-3" d="M46.9,62.07l-24,11.08"/><path id="path10155" class="cls-4" d="M101.5,176.06,44.6,173.6"/><path id="path10157" class="cls-5" d="M43.58,173.15a4.38,4.38,0,0,1,1.3.33,5.89,5.89,0,0,1,1.25.49,4.87,4.87,0,0,1-1.3-.32A3.87,3.87,0,0,1,43.58,173.15Z"/><path id="path10161" class="cls-5" d="M9.89,127.17a3.07,3.07,0,0,1,.53.87,3.71,3.71,0,0,1,.39.92,3.72,3.72,0,0,1-.53-.86C10,127.5,9.85,127.19,9.89,127.17Z"/><path id="path10165" class="cls-5" d="M23,73.68s.14-.21.49-.56a3.3,3.3,0,0,1,.57-.49,3,3,0,0,1-.49.56C23.16,73.54,23,73.7,23,73.68Z"/><path id="path12751" class="cls-1" d="M50.1,142.88,47.4,86"/><path id="path12753" class="cls-2" d="M47.4,88.33,61,33"/><path id="path12755" class="cls-3" d="M79.9,14.6,61,33"/><path id="path12757" class="cls-4" d="M104.2,168.65l-51.6-24"/><path id="path12759" class="cls-5" d="M50.52,142.51s.32.32.81,1.06a5.19,5.19,0,0,1,.67,1.17,5.53,5.53,0,0,1-.82-1.06Q50.44,142.56,50.52,142.51Z"/><path id="path12761" class="cls-5" d="M48,84.89a2.8,2.8,0,0,1-.21,1,3.77,3.77,0,0,1-.35.94,3.74,3.74,0,0,1,.21-1C47.87,85.18,48,84.87,48,84.89Z"/><path id="path12763" class="cls-5" d="M60.55,33.72s.14-.21.49-.56a3.3,3.3,0,0,1,.57-.49,3,3,0,0,1-.49.56C60.76,33.58,60.57,33.74,60.55,33.72Z"/><path id="path12957" class="cls-1" d="M36,183,1.8,228.52"/><path id="path12959" class="cls-2" d="M1.3,228.33l13.6,55.29"/><path id="path12961" class="cls-3" d="M38.4,294.62,14.5,283.54"/><path id="path12963" class="cls-4" d="M93.1,180.63,36.2,183.1"/><path id="path12965" class="cls-5" d="M35.18,183.54a4,4,0,0,0,1.3-.33,5.35,5.35,0,0,0,1.25-.49,5.36,5.36,0,0,0-1.3.32A3.87,3.87,0,0,0,35.18,183.54Z"/><path id="path12967" class="cls-5" d="M1.49,229.5a3.07,3.07,0,0,0,.53-.87,3.71,3.71,0,0,0,.39-.92,3.66,3.66,0,0,0-.53.87C1.57,229.17,1.45,229.49,1.49,229.5Z"/><path id="path12969" class="cls-5" d="M14.55,283.05s.14.21.49.56a2.85,2.85,0,0,0,.57.49,3,3,0,0,0-.49-.56C14.76,283.19,14.57,283,14.55,283.05Z"/><path id="path12971" class="cls-1" d="M46.6,217.75l-2.7,56.87"/><path id="path12973" class="cls-2" d="M43.9,272.3l13.6,55.29"/><path id="path12975" class="cls-3" d="M76.4,346,57.5,327.62"/><path id="path12977" class="cls-4" d="M100.7,192,49.1,216"/><path id="path12979" class="cls-5" d="M47,218.06s.32-.32.81-1.06a5.19,5.19,0,0,0,.67-1.17,5.41,5.41,0,0,0-.82,1.07C47.19,217.64,47,218,47,218.06Z"/><path id="path12981" class="cls-5" d="M44.3,275.28a2.84,2.84,0,0,0-.21-1,3.43,3.43,0,0,0-.35-.93,3.89,3.89,0,0,0,.21,1C44.13,275,44.26,275.3,44.3,275.28Z"/><path id="path12983" class="cls-5" d="M57.05,326.85s.14.21.49.56a2.85,2.85,0,0,0,.57.49,3,3,0,0,0-.49-.56C57.26,327,57.07,326.83,57.05,326.85Z"/></g><g id="g11483"><g id="g11410"><path id="path12765" class="cls-1" d="M183.3,171.51,217.6,126"/><path id="path12767" class="cls-2" d="M218,126.21l-13.5-55.3"/><path id="path12769" class="cls-3" d="M180.9,59.91,204.9,71"/><path id="path12771" class="cls-4" d="M126.3,173.9l56.9-2.46"/><path id="path12773" class="cls-6" d="M184.2,171a5.94,5.94,0,0,0-1.3.34,6.31,6.31,0,0,0-1.3.51,6,6,0,0,0,1.4-.34c.7-.23,1.3-.46,1.2-.51Z"/><path id="path12775" class="cls-7" d="M217.9,125a3.83,3.83,0,0,0-.5.9c-.3.5-.5.93-.4.94s.2-.38.5-.89A3.42,3.42,0,0,0,217.9,125Z"/><path id="path12777" class="cls-8" d="M204.9,71.55a4.7,4.7,0,0,0-1.1-1.08,3.71,3.71,0,0,0,.5.58A3.13,3.13,0,0,0,204.9,71.55Z"/></g><g id="g11401"><path id="path12785" class="cls-4" d="M131,167.32l43.3-37"/><path id="path12779" class="cls-1" d="M175.94,128.87,178.64,72"/><path id="path12781" class="cls-2" d="M178.54,74.32,165,19"/><path id="path12783" class="cls-3" d="M146,.59,164.94,19"/><path id="path12787" class="cls-6" d="M175.44,128.53a7.35,7.35,0,0,0-.8,1.09c-.4.64-.7,1.17-.7,1.2s.4-.46.9-1.1S175.54,128.56,175.44,128.53Z"/><path id="path12789" class="cls-7" d="M178.14,70.94c-.1,0,0,.47.2,1a3.89,3.89,0,0,0,.3,1c.1,0,0-.48-.2-1A3.71,3.71,0,0,0,178.14,70.94Z"/><path id="path12791" class="cls-8" d="M165.44,19.76a3.71,3.71,0,0,0-.5-.58c-.3-.3-.5-.52-.6-.5a3.41,3.41,0,0,0,.5.57A3.47,3.47,0,0,0,165.44,19.76Z"/></g><g id="g11385"><path id="path12987" class="cls-1" d="M188.71,181.4l34.2,45.49"/><path id="path12989" class="cls-2" d="M223.41,226.7,209.81,282"/><path id="path12991" class="cls-3" d="M186.31,293l23.9-11.07"/><path id="path12993" class="cls-4" d="M131.71,179l56.8,2.47"/><path id="path12995" class="cls-6" d="M189.61,181.93a5,5,0,0,1-1.3-.33,4.26,4.26,0,0,1-1.3-.51,4.82,4.82,0,0,1,1.3.34A7.44,7.44,0,0,1,189.61,181.93Z"/><path id="path12997" class="cls-7" d="M223.31,227.91c-.1,0-.3-.38-.6-.89s-.4-.93-.4-1,.3.39.6.9S223.31,227.9,223.31,227.91Z"/><path id="path12999" class="cls-8" d="M210.21,281.35c.1,0-.2.28-.5.58s-.5.53-.5.51.2-.28.5-.58S210.21,281.33,210.21,281.35Z"/><path id="path13001" class="cls-1" d="M178.21,216.12l2.7,56.87"/><path id="path13003" class="cls-2" d="M180.81,270.67,167.31,326"/><path id="path13005" class="cls-3" d="M148.41,344.4,167.21,326"/><path id="path13007" class="cls-4" d="M124,190.35l51.6,24"/><path id="path13009" class="cls-6" d="M177.81,216.46c-.1,0-.5-.46-.9-1.09s-.7-1.17-.7-1.2.4.46.9,1.09S177.81,216.43,177.81,216.46Z"/><path id="path13011" class="cls-7" d="M180.41,273.89c-.1,0,0-.47.2-1a4.08,4.08,0,0,1,.3-1c.1,0,0,.48-.2,1A3.71,3.71,0,0,1,180.41,273.89Z"/><path id="path13013" class="cls-8" d="M167.71,325.23c.1,0-.2.28-.5.58s-.5.52-.6.5a2.35,2.35,0,0,1,.6-.57c.3-.3.5-.53.5-.51Z"/></g></g><path id="path10273" class="cls-9" d="M89.15,168.12c3.8,3.85.6,24.25,3.9,27.21,5.8,8.23,9.8,13.8,20.3,15.31,11.4-2.29,12.9-8.15,18.7-16.33,3.1-3.1-1-23.33,2.7-27.36-2.9-15.39-13.2-21.45-24.2-20.71s-22.8,8.28-21.4,21.88Z"/><g id="g11270"><path id="path11268" class="cls-10" d="M124.25,204c1.4,2,.7,3.81,1.4,7.62s4.2,4.49,1.3,7.61-12.1,6.14-13,4.9,8.7-4.68,9.2-9.86-6.4-8.22-7.1-10.86"/><g id="g10275"><path id="path10277" class="cls-11" d="M114.75,208.17a1.86,1.86,0,0,1,3.52-1h0a1.86,1.86,0,0,1-3.53,1Z"/><path id="path10279" class="cls-11" d="M116.44,206.17a1.86,1.86,0,0,1,3.52-1h0a1.86,1.86,0,0,1-3.53,1Z"/><path id="path10281" class="cls-11" d="M114.2,206a1.86,1.86,0,0,1,3.53-1h0a1.86,1.86,0,0,1-3.53,1Z"/><path id="path10283" class="cls-11" d="M117.69,204.19a1.86,1.86,0,0,1,3.52-1v0a1.86,1.86,0,0,1-3.53,1Z"/><path id="path10285" class="cls-11" d="M116.1,204a1.86,1.86,0,0,1,3.53-1h0a1.86,1.86,0,0,1-3.52,1Z"/><path id="path10287" class="cls-11" d="M114,203.65a1.86,1.86,0,0,1,3.53-1v0a1.86,1.86,0,0,1-3.52,1Z"/><path id="path10289" class="cls-11" d="M118.58,201.55a1.72,1.72,0,0,1,1.32-2,1.74,1.74,0,0,1,2.21,1h0a1.86,1.86,0,0,1-3.53,1Z"/><path id="path10291" class="cls-11" d="M116.36,201.39a1.86,1.86,0,0,1,3.52-1h0a1.86,1.86,0,0,1-3.53,1Z"/><path id="path10293" class="cls-11" d="M113.91,201.36a1.86,1.86,0,0,1,3.53-1v0a1.86,1.86,0,0,1-3.52,1Z"/><path id="path10295" class="cls-11" d="M119.16,199a1.86,1.86,0,0,1,3.53-1h0a1.86,1.86,0,0,1-3.52,1Z"/><path id="path10297" class="cls-11" d="M116.08,199a1.86,1.86,0,0,1,3.53-1h0a1.86,1.86,0,0,1-3.53,1Z"/><path id="path10299" class="cls-11" d="M113.42,199.18a1.86,1.86,0,0,1,3.52-1v0a1.86,1.86,0,0,1-3.53,1Z"/><path id="path10301" class="cls-11" d="M119.6,196.84a1.86,1.86,0,0,1,3.52-1h0a1.86,1.86,0,0,1-3.53,1Z"/><path id="path10303" class="cls-11" d="M116.66,196.89a1.86,1.86,0,0,1,3.52-1v0a1.86,1.86,0,0,1-3.53,1Z"/><path id="path10305" class="cls-11" d="M113.6,196.89a1.86,1.86,0,0,1,3.53-1v0a1.86,1.86,0,0,1-3.52,1Z"/><path id="path10307" class="cls-11" d="M119.92,194.54a1.86,1.86,0,0,1,3.53-1v0a1.86,1.86,0,0,1-3.52,1Z"/><path id="path10309" class="cls-11" d="M116.91,194.45a1.86,1.86,0,0,1,3.53-1v0a1.86,1.86,0,0,1-3.52,1Z"/><path id="path10311" class="cls-11" d="M113.81,194.83a1.86,1.86,0,0,1,3.52-1h0a1.86,1.86,0,0,1-3.53,1Z"/></g><path id="path11266" class="cls-10" d="M101.15,204.15c-1.3,2-.6,3.81-1.3,7.62s-4.3,4.49-1.3,7.62,12,6.14,13,4.9-8.7-4.69-9.2-9.87,6.3-8.21,7.1-10.85"/><g id="g10313"><path id="path10315" class="cls-11" d="M112,208.15a1.71,1.71,0,0,0-1.4-2,1.73,1.73,0,0,0-2.17,1.08h0a1.86,1.86,0,0,0,3.57.88Z"/><path id="path10317" class="cls-11" d="M110.27,206.23a1.86,1.86,0,0,0-3.57-.88h0a1.86,1.86,0,0,0,3.57.88Z"/><path id="path10319" class="cls-11" d="M112.49,205.93a1.86,1.86,0,0,0-3.57-.88v0a1.86,1.86,0,0,0,3.57.87Z"/><path id="path10321" class="cls-11" d="M108.93,204.3a1.86,1.86,0,0,0-3.57-.88v0a1.7,1.7,0,0,0,1.4,1.95,1.72,1.72,0,0,0,2.17-1.08Z"/><path id="path10323" class="cls-11" d="M110.5,204.08a1.86,1.86,0,0,0-3.57-.87h0a1.86,1.86,0,0,0,3.57.88Z"/><path id="path10325" class="cls-11" d="M112.63,203.59a1.7,1.7,0,0,0-1.4-2,1.72,1.72,0,0,0-2.17,1.08h0a1.86,1.86,0,0,0,3.57.88Z"/><path id="path10327" class="cls-11" d="M107.92,201.7a1.86,1.86,0,0,0-3.57-.87h0a1.86,1.86,0,0,0,3.57.88Z"/><path id="path10329" class="cls-11" d="M110.13,201.45a1.86,1.86,0,0,0-3.57-.88v0a1.86,1.86,0,0,0,3.57.87Z"/><path id="path10331" class="cls-11" d="M112.57,201.3a1.86,1.86,0,0,0-3.57-.88v0a1.86,1.86,0,0,0,3.57.87Z"/><path id="path10333" class="cls-11" d="M107.22,199.14a1.86,1.86,0,0,0-3.57-.87h0a1.71,1.71,0,0,0,1.4,2,1.73,1.73,0,0,0,2.17-1.08Z"/><path id="path10335" class="cls-11" d="M110.3,199a1.86,1.86,0,0,0-3.57-.88h0a1.86,1.86,0,0,0,3.57.88Z"/><path id="path10337" class="cls-11" d="M113,199.1a1.86,1.86,0,0,0-3.57-.88v0a1.86,1.86,0,0,0,3.57.88Z"/><path id="path10339" class="cls-11" d="M106.69,197a1.86,1.86,0,0,0-3.57-.88v0a1.86,1.86,0,0,0,3.57.87Z"/><path id="path10341" class="cls-11" d="M109.63,197a1.86,1.86,0,0,0-3.57-.88v0a1.72,1.72,0,0,0,1.4,2,1.74,1.74,0,0,0,2.17-1.09Z"/><path id="path10343" class="cls-11" d="M112.68,196.82a1.86,1.86,0,0,0-3.57-.88v0a1.71,1.71,0,0,0,1.41,2,1.73,1.73,0,0,0,2.16-1.08Z"/><path id="path10345" class="cls-11" d="M106.26,194.76a1.86,1.86,0,0,0-3.57-.88v0a1.86,1.86,0,0,0,3.57.87Z"/><path id="path10347" class="cls-11" d="M109.27,194.53a1.86,1.86,0,0,0-3.57-.87h0a1.86,1.86,0,0,0,3.57.88Z"/><path id="path10349" class="cls-11" d="M112.39,194.78a1.86,1.86,0,0,0-3.57-.88v0a1.86,1.86,0,0,0,3.57.87Z"/></g><path id="path10427" class="cls-12" d="M100,186.19c.1.77-.1,3.05.2,3.34,1,1.21,3,.43,4.4,1.88s.2,3.37,1.4,4.48,1.5.65,3.7,1.26a8.56,8.56,0,0,0,3.4,1.29c1.1,0,2.6-1.25,3.3-1.49,2.2-.7,2.6-.29,3.7-1.43s-.2-3,1.1-4.54,3.4-.82,4.4-2.08a14.55,14.55,0,0,0,0-3c1.1-.14,1.9-.44,1.6-2.22-.4-2.68-1.6-3.86-2.4-8.23-1-5.26-4-10.59-12.4-10.45-7.7.13-12.9,5.08-12.6,10.85.2,3.47-1.5,5.71-1.9,8.57s1.8,1.18,3.5,1.82m21.8.16a8.19,8.19,0,0,1,2.3-.47"/><g id="g10351" class="cls-13"><path id="path10353" class="cls-14" d="M130.77,180.66c-15.77-2.3-17.88-3.42-36.8.17.94-6.53,1.17-6.53.45-11.73,17.77,1.36,16.09,3,37.06-.13-.83,5.33-1.51,6.22-.71,11.69Z"/><path id="path10355" class="cls-15" d="M112.48,178.11c.43.49,1.63.57,1.77,0a7.44,7.44,0,0,0-.55-3.51c-.42-.5-.24.82-1.17,1.52A1.64,1.64,0,0,0,112.48,178.11Z"/><path id="path10357" class="cls-15" d="M111.94,178.09c-.4.52-1.6.65-1.76.09a7.73,7.73,0,0,1,.38-3.53c.41-.52.28.81,1.24,1.47A1.61,1.61,0,0,1,111.94,178.09Z"/><path id="path10359" class="cls-15" d="M113.23,171.23c.4-.52,1.6-.65,1.76-.09a7.51,7.51,0,0,1-.38,3.54c-.4.51-.28-.81-1.24-1.47A1.63,1.63,0,0,1,113.23,171.23Z"/><path id="path10361" class="cls-15" d="M112.76,171.13c-.43-.49-1.63-.57-1.77,0a7.62,7.62,0,0,0,.54,3.52c.43.49.25-.83,1.18-1.53A1.64,1.64,0,0,0,112.76,171.13Z"/><path id="path10363" class="cls-15" d="M108.34,178.23c.42.5,1.63.57,1.76,0a7.58,7.58,0,0,0-.54-3.51c-.43-.5-.24.82-1.17,1.52A1.64,1.64,0,0,0,108.34,178.23Z"/><path id="path10365" class="cls-15" d="M107.83,178.39c-.41.51-1.61.64-1.77.09a7.74,7.74,0,0,1,.38-3.54c.41-.52.29.81,1.25,1.47A1.65,1.65,0,0,1,107.83,178.39Z"/><path id="path10367" class="cls-15" d="M116.58,178.42c.42.5,1.63.57,1.76,0a7.61,7.61,0,0,0-.53-3.52c-.44-.49-.25.82-1.18,1.53A1.63,1.63,0,0,0,116.58,178.42Z"/><path id="path10369" class="cls-15" d="M116.08,178.21c-.41.52-1.6.65-1.76.09a7.51,7.51,0,0,1,.38-3.54c.4-.52.28.81,1.24,1.47A1.62,1.62,0,0,1,116.08,178.21Z"/><path id="path10371" class="cls-15" d="M120.62,178.89c.43.5,1.63.57,1.76,0a7.6,7.6,0,0,0-.54-3.52c-.42-.5-.24.82-1.17,1.52A1.64,1.64,0,0,0,120.62,178.89Z"/><path id="path10373" class="cls-15" d="M120.21,178.54c-.4.52-1.6.64-1.76.09a7.51,7.51,0,0,1,.38-3.54c.4-.52.28.81,1.24,1.47A1.62,1.62,0,0,1,120.21,178.54Z"/><path id="path10375" class="cls-15" d="M104.21,178.57c.43.5,1.63.57,1.77,0a7.62,7.62,0,0,0-.54-3.52c-.43-.49-.25.82-1.18,1.53A1.63,1.63,0,0,0,104.21,178.57Z"/><path id="path10377" class="cls-15" d="M103.91,178.89c-.41.52-1.61.65-1.76.09a7.45,7.45,0,0,1,.38-3.53c.4-.52.28.81,1.24,1.46A1.64,1.64,0,0,1,103.91,178.89Z"/><path id="path10379" class="cls-15" d="M124.62,179.47c.42.5,1.63.57,1.76,0a7.6,7.6,0,0,0-.54-3.52c-.43-.5-.24.82-1.17,1.53A1.63,1.63,0,0,0,124.62,179.47Z"/><path id="path10381" class="cls-15" d="M124.21,179.06c-.41.52-1.61.65-1.76.09a7.51,7.51,0,0,1,.38-3.54c.4-.52.28.81,1.24,1.47A1.65,1.65,0,0,1,124.21,179.06Z"/><path id="path10383" class="cls-15" d="M100.32,179.07c.43.5,1.63.57,1.76,0a7.61,7.61,0,0,0-.53-3.52c-.43-.5-.25.82-1.18,1.53A1.63,1.63,0,0,0,100.32,179.07Z"/><path id="path10385" class="cls-15" d="M99.87,179.48c-.41.52-1.61.65-1.76.08a7.47,7.47,0,0,1,.38-3.53c.4-.52.28.81,1.24,1.47A1.65,1.65,0,0,1,99.87,179.48Z"/><path id="path10387" class="cls-15" d="M96.26,179.78c.43.5,1.63.57,1.76,0a7.74,7.74,0,0,0-.53-3.52c-.43-.49-.25.82-1.18,1.53A1.63,1.63,0,0,0,96.26,179.78Z"/><path id="path10389" class="cls-15" d="M96,180.2c-.41.52-1.6.64-1.76.09a7.51,7.51,0,0,1,.38-3.54c.4-.52.28.81,1.24,1.47A1.62,1.62,0,0,1,96,180.2Z"/><path id="path10391" class="cls-15" d="M128.63,180.09c.43.5,1.64.58,1.77,0a7.6,7.6,0,0,0-.54-3.52c-.43-.5-.25.82-1.18,1.53A1.63,1.63,0,0,0,128.63,180.09Z"/><path id="path10393" class="cls-15" d="M128.23,179.62c-.41.52-1.61.65-1.77.09a7.71,7.71,0,0,1,.38-3.53c.41-.52.29.8,1.25,1.47A1.64,1.64,0,0,1,128.23,179.62Z"/><path id="path10395" class="cls-15" d="M121.3,170.63c.41-.52,1.61-.65,1.77-.09a7.64,7.64,0,0,1-.38,3.54c-.41.52-.29-.81-1.24-1.47A1.64,1.64,0,0,1,121.3,170.63Z"/><path id="path10397" class="cls-15" d="M120.84,170.79c-.42-.5-1.63-.57-1.76,0a7.6,7.6,0,0,0,.54,3.52c.43.5.25-.82,1.18-1.52A1.64,1.64,0,0,0,120.84,170.79Z"/><path id="path10399" class="cls-15" d="M117.23,171c.4-.52,1.6-.65,1.76-.09a7.51,7.51,0,0,1-.38,3.54c-.4.51-.28-.81-1.24-1.47A1.63,1.63,0,0,1,117.23,171Z"/><path id="path10401" class="cls-15" d="M116.86,171.08c-.43-.49-1.63-.57-1.77,0a7.73,7.73,0,0,0,.54,3.52c.43.5.25-.82,1.17-1.52A1.63,1.63,0,0,0,116.86,171.08Z"/><path id="path10403" class="cls-15" d="M109.2,171.13c.41-.51,1.61-.64,1.77-.08a7.78,7.78,0,0,1-.38,3.54c-.41.51-.29-.81-1.25-1.48A1.65,1.65,0,0,1,109.2,171.13Z"/><path id="path10405" class="cls-15" d="M108.65,170.84c-.43-.5-1.64-.57-1.77,0a7.6,7.6,0,0,0,.54,3.52c.43.5.25-.82,1.18-1.53A1.63,1.63,0,0,0,108.65,170.84Z"/><path id="path10407" class="cls-15" d="M105,170.73c.41-.51,1.61-.64,1.76-.08a7.45,7.45,0,0,1-.38,3.53c-.4.52-.28-.81-1.24-1.47A1.62,1.62,0,0,1,105,170.73Z"/><path id="path10409" class="cls-15" d="M104.52,170.41c-.42-.5-1.63-.58-1.76,0a7.58,7.58,0,0,0,.54,3.52c.43.5.25-.82,1.18-1.52A1.63,1.63,0,0,0,104.52,170.41Z"/><path id="path10411" class="cls-15" d="M100.9,170.26c.41-.51,1.61-.64,1.76-.08a7.47,7.47,0,0,1-.38,3.53c-.4.52-.28-.8-1.24-1.47A1.64,1.64,0,0,1,100.9,170.26Z"/><path id="path10413" class="cls-15" d="M100.41,170c-.43-.5-1.63-.58-1.77,0a7.56,7.56,0,0,0,.54,3.51c.43.5.25-.82,1.18-1.52A1.63,1.63,0,0,0,100.41,170Z"/><path id="path10415" class="cls-15" d="M96.76,169.9c.41-.51,1.61-.65,1.77-.09a7.51,7.51,0,0,1-.38,3.54c-.41.52-.29-.81-1.24-1.47A1.64,1.64,0,0,1,96.76,169.9Z"/><path id="path10417" class="cls-15" d="M96.47,169.63c-.43-.5-1.63-.58-1.77,0a7.56,7.56,0,0,0,.54,3.51c.43.5.25-.82,1.18-1.52A1.63,1.63,0,0,0,96.47,169.63Z"/><path id="path10419" class="cls-15" d="M125.29,170.11c.4-.52,1.6-.65,1.76-.09a7.51,7.51,0,0,1-.38,3.54c-.4.52-.28-.81-1.24-1.47A1.62,1.62,0,0,1,125.29,170.11Z"/><path id="path10421" class="cls-15" d="M125,170.44c-.43-.5-1.64-.57-1.77,0a7.62,7.62,0,0,0,.54,3.52c.43.49.25-.82,1.18-1.53A1.63,1.63,0,0,0,125,170.44Z"/><path id="path10423" class="cls-15" d="M129.32,169.6c.4-.51,1.61-.64,1.76-.08a7.52,7.52,0,0,1-.38,3.54c-.41.51-.28-.81-1.24-1.48A1.62,1.62,0,0,1,129.32,169.6Z"/><path id="path10425" class="cls-15" d="M128.91,169.89c-.43-.5-1.64-.57-1.77,0a7.6,7.6,0,0,0,.54,3.52c.43.5.25-.82,1.17-1.53A1.61,1.61,0,0,0,128.91,169.89Z"/></g></g><g id="g11351"><path id="path10431" class="cls-9" d="M77,135.54c5.5,21.38,20.5,32.23,35.4,32.88s29.7-8.9,34.7-28.31c3-.17,5.8-.83,5.5-5.63-.5-7.19-3.5-10.57-4.9-22.33-1.7-14.17-8.9-29-32-30.3-21.2-1.24-36.3,10.82-36.6,26.21-.2,9.24-5.3,14.86-6.9,22.37s4.5,3.49,9.1,5.54m59.9,4.91a21.14,21.14,0,0,1,6.1-.79"/><path id="path10443" class="cls-16" d="M85.15,131.6c0,1.69-.7,6.63-.2,7.3,2,2.8,6.6,1.44,9.4,4.83s-.3,7.36,2.1,10,3.3,1.68,8,3.36c0,0,4.4,3.23,7.2,3.38,2.4.13,5.8-2.31,7.4-2.7,4.9-1.17,5.7-.2,8.3-2.51s0-6.63,3.2-9.7,7.6-1.22,9.9-3.8c.5-.58.4-4.67.5-6.49,2.4-.14,4.1-.65,3.8-4.59-.4-5.89-2.8-8.66-3.9-18.31-1.3-11.62-7-23.75-25.3-24.82-16.8-1-28.9,8.93-29.2,21.56-.1,7.58-4.2,12.2-5.4,18.36s3.5,2.86,7.2,4.53m47.5,4a16.74,16.74,0,0,1,4.9-.66"/><path id="path10433" class="cls-17" d="M115.17,117.22a9.16,9.16,0,1,1,18.29,1h0a9.16,9.16,0,1,1-18.29-1Z"/><path id="path10435" class="cls-17" d="M91.77,117.22a9.16,9.16,0,1,1,18.29,1h0a9.16,9.16,0,1,1-18.29-1Z"/></g></g></g></svg>