<svg id="Layer_1" data-name="Layer 1" xmlns="http://www.w3.org/2000/svg" viewBox="0 0 417.47 392.77"><defs><style>.cls-1{fill:#fdbf57;}.cls-2{fill:#fff;}</style></defs><title>spider 07</title><path class="cls-1" d="M79.76,6c3.78,8.79-2.87,14.8-8.29,19.19C56.59,37.19,30,49.26,7,49.84c1.35-11.63.93-28.51.79-43.33.69-1.4,1.72-.58,1.69-.57C34.15,5.09,52.74,7,79.76,6Z"/><path class="cls-1" d="M207.46,5.53c-29.44,15-80.57,18-116.95,9.34-1.15-2.11-1.29-6-2.32-9.54,40.07.31,66.33-.6,119.27.2Z"/><path class="cls-1" d="M322.79,5.21c-.64,10.43-15.53,10.28-25.22,12-14,2.49-30.15,4.7-42.17,3.14S221.05,15,218.73,7.13c-.11-.34.07-.77,0-1.12-.1-.65.11-1,.55-1.13,35.81,1,74.77-.41,103.52.33Z"/><path class="cls-1" d="M413.93,4.5c-.92,5.82-.55,15.16-1.54,19.14-27.92,6-61.16-.4-81.1-11.19.27-2.89.28-6,1.63-7.89,28.14.88,51.66.62,81-.06Z"/><path d="M103.35,73.85c-4-17.67-7.39-36-13.34-51.66,16.06,3.36,32.76,6.19,51.24,5.23,24.49-1.26,48.57-7.77,68.53-12.9,3.29,12.7.36,28-.23,42.19-1.49,2.36-5.9,4.47-8.41,4-1,.66,1.51.68-.55,1.69C172.35,71.68,136.05,83.06,103.35,73.85Zm-7.68-47.2c4,14.66,8.21,29.08,11,44.92,23.72,4.75,49.47.88,69.72-5,13.21-3.86,24-7.71,32-13.75,0-11.24,1.16-24.92.3-34.88h-1.13c-32.11,10.3-75.07,18.8-111.88,8.74Z"/><path d="M216,15c.65-.1,1,.12,1.13.55,16,9.87,42.1,12.37,68.72,10.16,13.07-1.08,25.06-5.06,34.82-7,2.58,2.84.85,7.31.09,11.25-2.09,10.84-4.55,25.41-5.92,35.49-28.19,14.82-78.65,14.17-100.19-6C217.07,48.36,214.45,26.9,216,15Zm2,45c24.63,16.55,67.29,17.23,95.1,2.64,1.62-13.66,5.09-28.46,6.44-40.55C288.9,32.5,245.1,34.05,218.83,19.51,217.7,29,219.31,45.84,218,60Z"/><path class="cls-1" d="M207.56,17.91h1.13c.86,10-.32,23.64-.3,34.88-8,6-18.75,9.89-32,13.75-20.25,5.92-46,9.79-69.72,5-2.83-15.84-7-30.26-11-44.92,36.8,10.06,79.76,1.56,111.88-8.74Z"/><path class="cls-1" d="M218.82,19.51c26.28,14.54,70.08,13,100.72,2.6C318.2,34.2,314.73,49,313.1,62.66,285.3,77.25,242.63,76.57,218,60c1.31-14.18-.3-31.06.82-40.51Z"/><path class="cls-1" d="M23.19,111.6c-4-10.28-7-21.83-12-30.85-1-1.75-1.75-3.74-4-4.47.42-4.22.92-10.09-.12-15.19,33.2-3.41,56.37-16.69,75.69-33.77.91-.17,1,.52,1.69.55C87.11,38.72,89.18,48.75,92,60.44c.81,3.39,3.16,7.52,2.89,10.1-.52,4.92-10.4,11.59-14,14.74C66.39,98.17,45.86,110.2,23.19,111.6Z"/><path d="M208.4,126.48c-24.25,11.11-65.8,18.29-91.67,4.08-2.15-18.42-7.83-33.25-11.08-50.54a181,181,0,0,0,59-2.71c15.36-3.35,30-9.29,43.76-15.53.48-.1.53.22.57.56.51,20.31,1,42-.63,64.14ZM109.61,83.36c3.94,15.66,8.12,31.07,11.62,47.17,29.22,11.21,58.52,3.72,85.46-6.29.75-19.36.84-36.71.67-58.51C181.59,78.47,142.56,86,109.61,83.37Z"/><path class="cls-1" d="M207.37,65.73c.16,21.8.07,39.15-.68,58.51-26.94,10-56.23,17.5-85.46,6.29-3.5-16.1-7.68-31.51-11.62-47.17,32.94,2.66,72-4.88,97.75-17.62Z"/><path d="M312.05,71.67c-1.05,20.38-6.05,41.68-9.65,61.4-25.54,13.8-70.93,9-88.39-7.76,2.27-18.6-.26-42.77,1.81-57.39.06-.45,1.85-1.72,1.68-.58,19.75,9.15,40.73,15.31,67.6,10.73,9.34-1.59,17.31-6.62,27-6.39ZM269.39,83.82C250.08,85,233.27,78,219.23,72.39c-1.64,17.64,1,36.26-2.41,52.34,21.47,14.79,58.09,18.09,83.31,6.11,4.38-17.65,6.62-37.41,10.26-55.78a144.57,144.57,0,0,1-41,8.75Z"/><path class="cls-1" d="M320.53,76.67C344,88.45,377,98.07,411.77,90c-1.46,5.41.53,10.06-.44,15.2-.7,3.69-3.85,7.55-5.54,11.29-5.24,11.6-10.32,23-14.92,35.56-30.56,8.53-65.37,0-80.6-19.63,3.79-18.22,6.35-37.66,10.26-55.77Z"/><path d="M99.48,82.32c4.17,16,8.94,31.36,11.63,48.85-13.28,19-32,28-57.69,33.64-3.1.68-6.73,3.59-10.12,1.2-6.1-13.54-13.68-32-18.93-46.55,31.42-4.86,52.91-18.92,71.16-37.12.23-.22,2.8.15,3.94,0ZM28.89,121.68c5.29,14.66,11.54,28.35,17.77,42.06,28.76-3.88,49.64-15.51,62.17-35.36-3.43-14.66-6.16-30-11-43.24-18.37,16.71-37.22,32.94-68.91,36.54Z"/><path class="cls-1" d="M97.81,85.14c4.86,13.21,7.59,28.58,11,43.24-12.53,19.85-33.41,31.48-62.17,35.36C40.44,150,34.19,136.34,28.9,121.68c31.69-3.6,50.54-19.83,68.92-36.54Z"/><path class="cls-1" d="M8.5,102.71c4.17,3.51,4.25,11.17,7.43,15.69a12.57,12.57,0,0,1-7.84,5.13c.32-6.53.48-12.77.41-20.81Z"/><path class="cls-1" d="M36.58,169.44C29.81,182,18.51,190,4.71,195.57c2.4-17.93,2.14-41.44,1.79-60.21,3.95-2.44,9.58-3.22,12.89-6.29h1.12c5.08,13.75,10.6,27,16.07,40.39Z"/><path d="M206.18,131c3.16,1.84,1.77,6.78,1.76,9.55-.05,17.07-.73,38-.69,56.26-18.58,11.95-51.51,12.36-73.11,2.82-4.9-18.23-7.42-38.38-12.81-55.6a26.74,26.74,0,0,0-2.86-6.16c15.38,1,26.88,5.86,45,4.71A92,92,0,0,0,195,135c3-1.31,7.55-4.63,11.22-4Zm-82.05,10.76c4.62,18.74,10.06,36.65,12.82,57.29,22.1,6.66,48.74,6.37,68-3.9.4-20.32,1.59-42.3.1-60.77-20.69,13.26-55.73,14-80.95,7.38Z"/><path d="M300.2,139.28c-1.57,22.1-7,45.18-11.3,66.47-23.6,9.78-61.67,6.07-75.47-11.23.94-22,.87-38.78.64-62.45,10.93,4.31,22.86,10.12,38.35,12.08a80,80,0,0,0,10.13.48c8.17,0,16.85.2,24.74-1.88,4.36-1.15,8.24-4,12.91-3.47Zm-83.4,55.77c15.13,14.12,48.84,16.85,70.39,7.9,1.7-1.32.9-10.78,2.76-6.78.1-16.38,6.73-35.37,7.47-52.38-21.62,8.77-62.74,5.79-79.38-7.26-1,17.93-.24,38.76-1.23,58.52Z"/><path class="cls-1" d="M205.08,134.38c1.49,18.47.3,40.44-.09,60.76-19.31,10.28-45.94,10.57-68.05,3.9-2.75-20.63-8.2-38.54-12.82-57.28,25.22,6.65,60.26,5.88,80.95-7.38Z"/><path class="cls-1" d="M410.42,133.36c1.67,11.25-1.19,19.73-.32,31.51a28.64,28.64,0,0,1-9.06-7.25c2.69-8.53,6.51-15.93,9.38-24.27Z"/><path class="cls-1" d="M218,136.53c16.65,13.05,57.77,16,79.38,7.26-.73,17-7.36,36-7.47,52.38-1.85-4-1.05,5.45-2.76,6.77-21.55,8.95-55.26,6.23-70.39-7.89,1-19.75.27-40.58,1.24-58.51Z"/><path d="M66.83,226c-6.19-18.66-14.2-35.47-20.67-53.85,26.23-3.17,45.35-17.41,62.21-31.42,5.35-4.45,6.7,5.13,8.53,11.75,3.48,12.63,4.59,19.86,7.55,31.45,1.12,4.37,4,11.58,2.94,16.29-1.2,5.43-18.1,15.87-23.48,18.74-10.89,5.8-22.55,7-37.09,7Zm44.93-83.61h-1.69c-6.74,8.07-15.83,13.82-24.6,19.88-1.53.42-1.14-1.11-2.26-1.1-.8,1.12.6,2-1.1,2.82-9.44,5.71-18.35,8.63-31.42,10.37,5.54,17.62,14.14,32.13,20.07,49.35,25.2-.37,41.51-11.17,54.94-24.62-4.65-18.9-8.78-38.33-13.94-56.7Z"/><path class="cls-1" d="M125.7,199.13C112.27,212.57,96,223.37,70.76,223.75,64.82,206.52,56.22,192,50.68,174.39c13.08-1.73,22-4.65,31.43-10.37,1.7-.85.3-1.69,1.1-2.82,1.12,0,.73,1.53,2.26,1.11,8.77-6.07,17.86-11.81,24.6-19.88h1.69c5.16,18.36,9.29,37.79,13.94,56.7Z"/><path d="M305.86,143.73c10.81,5.81,23.54,13.07,37.26,16.59,14.49,3.71,29.17,1.82,46.13-.36-1,10.33-6.15,19.26-9.91,28.77-3.65,9.25-8,18.52-11,28.22-13.87,6.39-37,4.06-53.46-1.28-8.26-2.68-16-6.48-19.78-12.79,2.94-20,6.19-42.6,10.79-59.15Zm2.3,6.17c-3.87,17.22-6.64,35.52-9.71,53.52,14.31,13,44,18.77,67.6,12.42,3.27-9,7.06-18,10.48-27.09s8.31-17.35,10.49-26c-28.49,8.73-57.63-1.71-78.87-12.89Z"/><path class="cls-1" d="M387,162.8c-2.18,8.6-7.08,16.93-10.49,26s-7.21,18.11-10.48,27.09c-23.58,6.35-53.29.53-67.6-12.42,3.07-18,5.84-36.3,9.71-53.52,21.25,11.17,50.39,21.61,78.87,12.89Z"/><path class="cls-1" d="M396.07,168.92c5.35,1.75,7.62,6.63,14.12,7.21-3.66,14.13.88,34.44-1.87,49-.73,3.86-4.3,6.95-5,10.16a47.09,47.09,0,0,1-28.78-12.15c7.29-17.93,14.91-35.55,21.51-54.17Z"/><path d="M213.48,201.83h1.69c17.33,13.66,48.1,14.26,72.07,7.88.56,14.36-4.85,27.58-5.86,42.24-20.8,11-51.29,6.19-68.12-5.66.4-12.43.87-32.72.22-44.45Zm3.15,43.86c13.6,10,45,14.94,62.48,4.58q3.39-18.17,6.47-36.62c-20.35,6.37-51.23,5.95-68.12-6.22-.48,14.74.19,24-.83,38.27Z"/><path d="M206.17,202.45c4.19,10.47.44,30.41,1.47,45-8.91,3.66-19.37,7.87-32,9.24-9.15,1-25.55-.62-29.32-7.65-1.43-2.66-1.44-7.61-2.34-11.23-2.57-10.39-5.48-21.59-8.11-31.44,25.07,3.91,47.18,3.84,70.3-3.93Zm-1.1,3.38c-10.67,4.94-31.06,8.35-46.64,7.11-7.06-.56-13.16-3-18.58-2.1,3.91,12.09,7.82,24.18,9.86,38.17,15.16,9.63,42.73,4.07,56.23-3.8-.74-12.48,1.05-29.67-.87-39.37Z"/><path d="M128.56,206.42c4,2.3,3.4,8,4.6,12.34,2.45,8.91,6.08,20.2,8.11,31.44-11.45,13.35-35.85,20.12-56.67,19C81,255.3,74.4,244.41,70.24,231.06c28.5-2.17,42.65-12.92,58.31-24.63ZM74.77,233.84c4.8,10.81,9.91,21.31,13.2,33.65,20.5-.7,39.46-6.61,51.05-17.83-3.71-13-5.72-27.83-10.43-39.86-13.7,12-31.58,23.88-53.82,24Z"/><path class="cls-1" d="M205.94,245.21c-13.5,7.88-41.06,13.43-56.23,3.81-2-14-6-26.09-9.86-38.18,5.42-.94,11.52,1.54,18.58,2.11,15.58,1.23,36-2.18,46.64-7.12,1.92,9.69.13,26.88.87,39.37Z"/><path class="cls-1" d="M217.46,207.42c16.89,12.18,47.77,12.6,68.12,6.23q-3.07,18.47-6.47,36.61c-17.44,10.36-48.88,5.43-62.48-4.58,1-14.26.35-23.52.83-38.26Z"/><path class="cls-1" d="M128.59,209.8c4.71,12,6.72,26.82,10.43,39.86C127.43,260.88,108.47,266.79,88,267.5c-3.29-12.35-8.4-22.85-13.2-33.66,22.24-.16,40.12-12,53.82-24Z"/><path class="cls-1" d="M295.16,215.26c7.7,4,16.38,9,26.52,10.48,2,.3,4.42-.35,6.19,0,2.13.36,3.54,1.87,5.64,2.2,9.06,1.42,19,.32,28.12-1.9-3.67,11.83-10.73,25.16-14.9,38.37-13.71,4.1-7.45-12.09-13.06-16.22-3.49,2.9-2.86,9.85-3.82,15.22-16-2.28-30.25-6.32-40.06-14.88.77-12.07,4.26-21.48,5.37-33.23Z"/><path d="M63.51,233.37c3.59,4.64,5.86,10.88,8.57,17.37,2.39,5.71,7,13.61,6.34,19.08-.71,6.32-12,12.72-16.76,15.32C54,289.31,46,291.83,36.38,290.4c-6.11-10.8-13-23.81-17.7-34.18,3.18-3.29,7.81-2.57,11.78-4,10.17-3.74,22.8-11.51,29.67-19.36,1.72-.42,2.06.56,3.38.54Zm.59,2.8c-11.91,9.12-24.36,17.7-41.47,21.7,5.75,10,11.5,20.07,16.55,30.81,18.44-.82,29.35-9.06,37.54-20-3.82-11.23-9-21.11-12.62-32.53Z"/><path class="cls-1" d="M370.67,231c6.38,7.88,15.43,13.06,29.36,13.28-3.6,11.54-11,24.18-15.47,36.68-14.91.41-22.11-7-28.25-15.53,5.2-11.08,9.5-23,14.36-34.44Z"/><path class="cls-1" d="M76.72,268.71c-8.19,10.91-19.1,19.15-37.54,20-5-10.74-10.8-20.78-16.55-30.81,17.11-4,29.56-12.58,41.47-21.7,3.65,11.41,8.8,21.29,12.62,32.53Z"/><path class="cls-1" d="M5.15,252.38c1.5.36,2.07,1.68,2.83,2.79-.06,1.8-1.25,2.49-3.36,2.28,0-1.84.93-2.8.53-5.06Z"/><path class="cls-1" d="M408,250.4c.65-.1,1,.12,1.13.55-1,14.93-.36,30.13-.24,42.2A46.08,46.08,0,0,1,394.69,282c4.21-10.75,9.37-20.56,13.26-31.61Z"/><path d="M140.76,256.4c6.91,6.6,6.5,21.68,9.81,32.55-10.18,12.84-28.85,21.75-49.92,18.95-2.5-13.83-8.8-20.35-11.51-33.66,23.58-.72,37.12-8,51.61-17.83ZM93.11,278.14c3.73,9.64,8.34,18.36,11.47,28.6,19.8-1.53,35.93-6.68,43.73-20-2.93-8.74-3.77-19.61-7.52-27.51-11.37,10.77-29.25,15.12-47.67,18.94Z"/><path class="cls-1" d="M204.9,257c.2,6.38,0,17.11.2,25.31-13,9.54-31.27,10.54-46.11,3.17-.81-8.63-3.42-15.43-5.24-23,11.69,1.21,24,2.39,34.87-.27,5.73-1.39,10.33-5.87,16.28-5.18Z"/><path class="cls-1" d="M140.79,259.21c3.75,7.91,4.59,18.77,7.52,27.51-7.8,13.34-23.92,18.49-43.72,20-3.13-10.24-7.75-19-11.48-28.61,18.42-3.83,36.3-8.18,47.68-18.94Z"/><path class="cls-1" d="M287.08,261.46c2.75.77,5.35,2.2,7.33,2.19a17.87,17.87,0,0,1-9.5,8.52c.3-4,1.46-7.12,2.17-10.7Z"/><path class="cls-1" d="M28.54,294.4c-5.58,9-12.7,16.52-24,19.88.9-15,1.58-28.33.21-46.14,2.45-1.12,5.52-1.64,7.29-3.43,7.28,8.41,10.81,18.85,16.54,29.68Z"/><path class="cls-2" d="M311.28,262.4c6.12,1,11.67,1.5,18,3.23.07,1.75-.67,2.7-1.1,3.95-6.72-.16-12.11-1.68-18-2.67.21-2.13,2.3-2.41,1.08-4.52Z"/><path class="cls-1" d="M327.67,272.4c-1.51,11.54-7.63,18.54-14.44,24.87.85-3.89.77-13.09-4.05-14.6-6.61,2.16,1.7,13.74-7.76,14.12-.77-5.71,2.22-12.34-1.25-15.74-4.74.17-4.85,4.9-6.12,8.48-2.13-2.94-2.57-7.6-5.7-9.52,3.71-3.6,8.2-6.44,10.6-11.33,10.16.69,18.46,3.42,28.73,3.73Z"/><path class="cls-1" d="M344.55,272.83a60.58,60.58,0,0,1-14.44,23.74l-5.07,0c4.71-7.09,10.09-13.52,11.63-23.72l7.87-.06Z"/><path d="M80.16,277.12c4.49,3.23,6.15,9.35,8.56,15.69,1.38,3.62,7.1,13.29,6.89,17.38-.4,7.94-20.38,16.48-31.94,17.13-2,.11-6.93-1.17-9.56-.49-4.76-11-9.62-21.66-14.86-29.7,2.24-3.12,5.94-1.75,9-2.32,12.05-2.29,25.14-9.27,30.81-17.68ZM44.89,298.77c3,9.77,9.11,16.45,12,26.35,11.74,1,35.74-7,36.44-15.47.29-3.45-3.91-9.32-5.73-14-2.29-5.92-4.28-12.54-6.3-15.14-8.14,10.06-21.23,16.87-36.43,18.28Z"/><path class="cls-1" d="M353,275c6.21,7.49,13.16,14.23,26.55,14.42-2.64,7.84-8.47,17.33-12.17,26-13.66,1-18.88-6.53-26-12.17.23-3.69,2.15-5.71,2.75-9,6-3.38,4.72-14,8.85-19.19Z"/><path class="cls-1" d="M81.32,280.49c2,2.6,4,9.22,6.3,15.14,1.82,4.7,6,10.57,5.74,14-.71,8.46-24.71,16.43-36.45,15.47-2.91-9.9-9-16.58-12-26.35,15.2-1.41,28.29-8.22,36.43-18.28Z"/><path d="M206.85,290.77c0,8.78-1,23.74-.32,31.51-7.56,9.49-26,12.28-38.76,7.61-1.36-1.11.92-2.69-.59-3.93-1.22-.09-.24,2-.54,2.81-2.9-11.2-6.46-22.7-8.72-35.94,12.57,6.87,36.29,3.57,46.11-3.73,1.33.16,1.07,1.94,2.83,1.66ZM162.47,299c2.63,9.81,5,19.89,7.54,29.76,12.43,3.62,27.09.49,34.27-7,.18-9.86.11-20,.9-29.26-12.72,6.86-26.65,8.63-42.7,6.52Z"/><path class="cls-1" d="M389.69,290.48c5.91,5,10.17,11.6,19.79,12.79-1.5,6.37.39,11.92-1,16.88-2.06,7.38-8.29,12.71-9.4,20.33A46.08,46.08,0,0,1,383.81,331c-1.75-1.71-7.19-7.89-7.39-10.63-.22-3,4.12-10.17,6.07-14.67,2.58-5.93,5.53-10.52,7.2-15.26Z"/><path class="cls-1" d="M205.18,292.47c-.78,9.28-.72,19.4-.9,29.26-7.17,7.51-21.84,10.64-34.26,7-2.56-9.87-4.92-19.95-7.54-29.76,16,2.11,30,.34,42.7-6.52Z"/><path d="M160.45,328.82c-11.21,7.28-27.71,13.75-44.35,12.16-2.22-5.77-6.69-12-6.89-18-1.41.55-5.2-8.47-4.58-10.09,19.69.55,34.25-8.68,46-17.8.91-.17,1,.53,1.7.55a327.38,327.38,0,0,1,8.14,33.13Zm-6.91-21.32c1.65,0-.36-3.34,0-.56,0,.34-.08.66-.56.56a27.52,27.52,0,0,0-1.76-8.42c-9.9,7.56-23.24,16.56-42.06,17.2,2,8.7,7,14.46,9.18,23,17.64.06,30.34-4.74,40.41-12.13-2.08-6.21-3.5-13.08-5.22-19.64Z"/><path class="cls-1" d="M280.6,296.39c2.94,0,3.29,2.71,6.21,2.77-1.41,3.46-6.28.38-6.21-2.77Z"/><path class="cls-2" d="M327.3,297.72c-.93,3.19-6,5.29-7.83,5.69-.9-1,2.74-6.89,7.83-5.69Z"/><path d="M49.08,331.37c-6.91,8.83-16.68,14.85-30.25,17.11-5.07-8.27-8.95-17.74-14.82-25.2,2.41-4.75,8.28-4.57,12.32-6.85,5.55-3.12,10.18-8.43,14.53-13.05C31,302.77,32,303,32,302.25H33.1c7.15,7.87,11.34,18.73,16,29.14Zm-40-7.57c4.11,7.17,8.68,13.86,12,21.85,10.93-3.19,20.86-7.37,25.75-16.51-4.18-7.66-8.56-15.13-12-23.54H33.12c-5.13,8.9-13.55,14.56-24,18.19Z"/><path class="cls-1" d="M33.13,305.61h1.68c3.44,8.41,7.82,15.87,12,23.53-4.89,9.15-14.82,13.32-25.75,16.52-3.3-8-7.87-14.69-12-21.85,10.49-3.64,18.91-9.3,24.05-18.2Z"/><path class="cls-2" d="M270.53,304.34c1.47-.17,2.42.19,2.26,1.67-1.46.17-2.81.21-2.26-1.67Z"/><path class="cls-1" d="M330.18,306.13c-.45,3.09-2,5.07-2.75,7.9-3.1-.26-7.37.67-9.57-.49,3.2-3.36,8.1-5.05,12.32-7.41Z"/><path class="cls-1" d="M279,313.28a3.65,3.65,0,0,1,2.82.54c-1,3.71-2.05,7.29-5.57,8.48,1.1-2.82.84-7,2.74-9Z"/><path class="cls-1" d="M337,312.83a42.42,42.42,0,0,0,26.53,11.61c-4.59,8.32-8.27,17.54-12.17,26.53-10.49-2.19-18.84-6.56-23.74-14.44,1.23-2.51,2.11-5.36,3.31-7.9,6.35,2.94,3.39,12.06,9.12,15.12,2.81-8.42-.55-20.17-5.81-24.15.19-3,1.95-4.42,2.76-6.78Z"/><path class="cls-2" d="M274.54,314.44c.18,2-1.81,6.28-1,10.7-1.33,1.11-3.78,1.12-5.05,2.29-1.7-2.16.79-9.07,1.59-12.39,2.1.38,2.42-1,4.5-.6Z"/><path d="M96.79,317.5c3.43,1.81,5.25,7.09,7.41,11.76s5.92,11.07,5.17,14.59c-2,9.17-24.32,17.54-40.38,16.06.17-1.32.87-2.12.53-3.94-5.34-6.86-7.46-17-13.68-23,3.21-4.38,8.82-1.92,12.92-2.35,10.53-1.1,20.87-7.34,26.91-13.15h1.12Zm5.31,32c7.74-5.33,4.38-9.52,1-17.45-1.77-4.13-3.23-7.38-4.59-11.21H96.81c-7.72,8.77-20.84,14.94-35.9,13.22,3.33,8.33,9.06,14.23,11.43,23.54,11.42.32,23.28-3.63,29.76-8.1Z"/><path class="cls-1" d="M72.35,357.63c-2.37-9.31-8.1-15.21-11.44-23.54,15.07,1.72,28.18-4.45,35.91-13.22h1.69c1.35,3.83,2.81,7.08,4.58,11.22,3.39,7.92,6.75,12.11-1,17.44-6.48,4.46-18.34,8.41-29.75,8.1Z"/><path class="cls-1" d="M323.55,321.94c-.23,2.56-1.41,4.19-2.2,6.21-2.28-2-4.54-4.09-6.8-6.14,1.77-2.86,5.5,2.68,9-.06Z"/><path class="cls-1" d="M325.24,322.49c3-.39,2.69,2.56,4.53,3.34-1,2.52-2.6,4.51-3.32,7.34-2.3.07-1.74-2.77-3.4-3.35.27-2.9,1.82-4.53,2.19-7.33Z"/><path d="M399.12,346.67c-3.85,9.24-7.9,18.27-11.6,27.66-8.53-1.35-16.58-4.42-22.58-9.4-2.92-2.42-6.19-4.24-6.81-7.82-.72-4.16,3.12-10,5.51-15.23,2.91-6.33,5.16-11.43,7.75-15.81,4.68.65,6.54,8.15,10.22,11.73,5.25,5.1,10.51,5.71,17.5,8.85Zm-38.73,11c6.74,6.76,13.87,13.13,26.55,13.86.08-4.09,4.7-7.5,2.17-10.71,3.82-.21,4.19-8.47,7.22-11.3-9.87-4.15-19.22-8.84-23.21-18.95h-1.69c-2.68,10-7.9,17.54-11.05,27.1Z"/><path class="cls-1" d="M280.29,330.15c.65,1.25.44,5.2,1.19,7.87-3.13-.79-7-.86-6.79-5a12,12,0,0,1,5.6-2.86Z"/><path d="M205.48,331.29c2.68,9.2.62,22.78.25,32.63-7.5,6.06-20.72,4.33-30.37,1.36-.39-11.56-5.73-21-6.42-30.33,7.05,2.37,20.1,2.23,28.12-.78,2.69-1,3.95-3.49,8.42-2.88Zm-32.57,8.12c1.72,8.84,4.94,16.15,6.38,25.27,9.11,1.58,18.93,2.28,25.3-2.45-.55-9,.73-21.89-.78-28.12-6.55,5.47-20.78,6.74-30.9,5.3Z"/><path class="cls-1" d="M371.44,330.57h1.69c4,10.11,13.34,14.8,23.21,18.94-3,2.84-3.4,11.1-7.23,11.31,2.54,3.21-2.08,6.61-2.16,10.71-12.68-.73-19.81-7.1-26.55-13.86,3.15-9.57,8.37-17.08,11.05-27.1Z"/><path d="M169.68,358.57c-9.19,9.56-23.17,14.41-39.82,16.62-4-10.12-7.83-20.39-12.6-29.72,12.43-.12,26.47-2.52,36-7.59,2.2-1.18,5.11-5.09,8.41-3.44,5.16,2.57,4.46,19.21,8.07,24.13Zm-8.61-22.44c-9.51,7.2-22.09,11.37-38.16,12.11,3.3,8.36,6.91,16.42,9.75,25.24a128.25,128.25,0,0,0,34.78-13.77c-1.64-8.35-4.26-15.71-6.37-23.58Z"/><path class="cls-1" d="M203.81,334.11c1.51,6.23.23,19.14.78,28.12-6.37,4.73-16.2,4-25.3,2.45-1.44-9.12-4.66-16.43-6.38-25.27,10.12,1.44,24.35.17,30.9-5.3Z"/><path class="cls-1" d="M313.51,333.27a5.91,5.91,0,0,1,5.1,5c-2.58.07-3.81,1.46-6.74,1.18C312,337,313.66,336,313.51,333.27Z"/><path class="cls-1" d="M5.24,336.77c2.21,4.53,9.6,10.68,9.69,16.24.09,5.35-5.77,8.25-10,11.33.78-6.33.38-18.58.35-27.57Z"/><path d="M67.33,363.3c-6.65,8.71-15.22,15.54-31.39,14.87-4.66-8.12-8.82-16.75-13.69-24.65,8.88-5.95,22.23-7.51,28-16.53h1.12c7.05,7,10.84,17.34,16,26.32Zm-40.58-8.69c4,7.1,8.33,13.85,12,21.29,13.26.39,18.51-7.09,25.79-12.58-3.6-8.25-7.24-16.46-12.56-23-5,8.06-15.47,10.8-25.21,14.25Z"/><path class="cls-1" d="M167.44,359.71a128.31,128.31,0,0,1-34.77,13.77c-2.85-8.83-6.46-16.88-9.76-25.24,16.07-.74,28.65-4.91,38.16-12.11,2.11,7.87,4.73,15.23,6.37,23.58Z"/><path class="cls-1" d="M216.22,338c12.12,3.78,22.93,5.49,37.16,4.22-1,6.84-5.44,13.2-4.91,19.72,8.86-1.51,8.21-12.38,14.5-16.42-.89,8.24-2.92,15.36-4.32,23.1-12.58,5.73-33.49,3.66-43.34-3a96.28,96.28,0,0,0,.91-27.57Z"/><path class="cls-1" d="M52,340.35c5.32,6.51,9,14.72,12.55,23-7.27,5.49-12.52,13-25.78,12.58-3.65-7.44-8-14.19-12-21.29,9.74-3.44,20.18-6.18,25.21-14.25Z"/><path class="cls-1" d="M408.1,342.66c1.09.75,1.28,5.31-1.66,3.95-.27-2.12,1.09-2.65,1.66-3.95Z"/><path class="cls-1" d="M273.65,344.26c3.59,1.27,6.49,3.23,11.83,2.72,8.43,8.21,17.92,3.4,29.27.9-2.78,7.69-6.87,14.08-8.83,22.57-13.43,4.67-27.59-1.36-36.06-7a119,119,0,0,1,3.8-19.16Z"/><path class="cls-1" d="M86.62,384.52c-3.87-5.33-6.06-12.37-9.7-17.93,17,1.41,25.35-6.79,35.89-14.34,1.52,4,2.75,7.75,4.6,12.34,1.36,3.39,5.32,9,4.59,12.34-.66,3.05-7.38,5-10.63,6.84-5.45,3.11-19.3.54-24.75.76Z"/><path class="cls-1" d="M348,359.44c-2.87,6.48-5.62,13.08-8.29,19.75-10.92,1.71-18-5-24.26-9.93.07-1.79,1.25-2.49,1.09-4.51,1.06-1.06,1.41-.08,2.81,0,1.47-5.81,4.71-9.88,8.33-13.57,5.76,3.71,12.67,8.29,20.33,8.28Z"/><path class="cls-1" d="M403.13,355.08c2.15.65,4.14,1.46,6.21,2.2-1.29,8.53-1.2,15.23-2.07,23.65a52.26,52.26,0,0,0-14.07-.46c3.29-8.48,6.72-16.82,9.93-25.4Z"/><path class="cls-1" d="M20.07,363.1h1.69c2.94,7.64,8.52,14.85,12,23.53-10.39.63-18.06.45-28.69.23-.15-4.82.62-6,.48-11.26,6.24-2.78,11.89-6.15,14.53-12.48Z"/><path class="cls-1" d="M356.5,363.31c5.58,8.51,14.34,13.79,24.89,17.25-2.25,1.91-7,1.6-10.68,1.77a204.77,204.77,0,0,1-22.51-.39c2.63-6.34,5.58-12.37,8.3-18.63Z"/><path class="cls-1" d="M169.2,369.26c2.91,4.33,3.1,8.28,4.05,14-11.85.62-25.44,1.69-37.7.29,9.51-4.43,26.53-5.72,33.64-14.32Z"/><path class="cls-1" d="M68.52,372.29c3.65,3.7,5.72,9.95,7.42,14-10,.22-22.59.24-32.06.25,9.68-3.31,20.16-5.84,24.64-14.26Z"/><path class="cls-1" d="M204.66,371.24c-.44,5.32-.09,6.23.1,12.38-6.5-.26-13.66-.61-19.7-.42.25-3.78-2.41-7.19-1.76-9.55,6.56,1.7,15.72.08,21.35-2.42Z"/><path class="cls-1" d="M268.25,373.56c9.34,3,19.9,10.13,32.68,5.94,0,2.05-1.58,2.54-2.23,3.95-9.27-2.1-22.7,0-32.63-1.43,1.2-2.36,1-6,2.17-8.46Z"/><path class="cls-1" d="M215.38,374.53c8.5,5.74,30.16,8,41.09,2.5a17.35,17.35,0,0,1-1.08,6.19c-15.59.36-27.74-.05-40.51-.25,0-3.67-.18-6.71.5-8.45Z"/><path class="cls-1" d="M312.16,377.72c3.18,1.5,5.12,4.25,8.48,5.56-1.44,1.74-6.85,0-10.68.65.24-2.57,1.43-4.2,2.21-6.21Z"/><path class="cls-2" d="M333.07,316.8c-2.38.15-2.87-1.62-4.52-2.22,2.66-6.68,5.71-13,11.12-17-.71,12.27,16.62,22.09,30,19.46,2.92-9.31,9-20.09,13.84-29.36-14.41-1.43-22.86-8.92-31.07-16.64a25.21,25.21,0,0,1-9.49,10.2c1.11-3.75,3.18-6.54,4.42-10.16-3.55-1.11-6.42.37-10.12.08,0-2.78.08-3.82.52-5.07,2.38.11,8,1.07,11.25-.65,4-15.2,13.05-28.44,16-42.88-24.43,3.53-55.62.53-69.29-12.4-4.46,2.78-5,11.44-6.06,17.48-1.17,6.6-1.81,13.8-3.22,19.72,2.75,5.71,8.28,8.6,14.71,10.58-2.79,6.62-9.52.33-14.63-.45-2.42,3.37-3.05,9.34-4.38,15.78-1.07,5.19-4.59,13.32-3.25,16.9,1.49,4,8,1.65,7.37,7.26-2.1-.88-4.38-1.6-5.09-3.9-1.23.1-1.2,1.43-1.1,2.82a16.74,16.74,0,0,1-6.81-6.69c2.58-4.65,1.62-10,3.27-14.66,1.4-4,5.32-7.07,5.54-11.29-1-2.54-2.33-3.21-2.3-5.61-22.07,7.77-47.44,3.85-65.86-4.55-.9,5.57.15,19.86-.9,29.26,10,10.18,35.74,11.86,51.82,7.47-.41,2.13.71,2.69.6,4.5-18.1,6.1-37.73,2.13-52.35-4.1.74,10.79,1.27,24.91-.3,34.89,9.82,10,28.85,11.8,46.21,9.77-.53,2.08-2.44,2.8-3.34,4.52-13.89,1.39-30.56-1.47-43.37-7,.65,6.1,2.84,21.89-.89,30.95,10.36,11.2,36.08,13,50.11,4.68C261,362.3,264,355.77,264.69,350c.19-1.67-.53-3.54,0-5.06,1.39-4.36,6.37-5.64,7.24-9.62,3,5.17,10.77,2.22,11.88,8.91-4.94.22-8.32-3.92-13-2.15-2.51,5.71-3.57,12.85-3.77,20.84,7,10.57,23.93,13.9,39.46,9.83q5.83-13.51,11-27.66c-3.15.44-5.84,1.33-9,1.76.49-2.49,2.28-3.71,2.76-6.21,3.74.33,5.94-.85,9-1.19,1.49,12.69-4.3,19.9-7.65,29.31a31.93,31.93,0,0,0,26,12.74c-10.25,5.09-21.64-1.8-26.5-7.67-4.67,2.32-3.56,13.18-10,11.89-.12-4,2.07-5.78,2.74-9-13.8,3.82-27.65-3-38.87-7-2,3.22-3.46,9.38-2.15,14.08-1.87.17-3.85,2.07-5.62.61-1.08-3,3.15-8.13.48-11.26-12.57,7.2-35.42,4.53-45.59-3-1.7,6.19.19,9.88-2.13,15.77-7.52,1.29-2.09-11.95-5.2-17.4-9.18,1.49-20.17,5.2-28.13.22-1.67,4.43,4.15,9.81,3.51,16.85-2.62-.31-3.39.79-5.07,0-2.11-6.36-2.42-14.55-5.77-19.65-9.56,6-24.12,11.48-39.28,13.81-1.08,3.2,3.87,3.22,2.29,5-.36,1.88-1.42,3.07-3.91,2.84-2.56-.61-2.14-4.25-4-5.59-4.47,1.75-7.14,5.26-13.47,5.17,2.76-3.8,8.87-4.3,11.76-8q-2.76-19-12.62-30.85a54,54,0,0,1-38.7,15.49c1.16,8.34,8.93,14.7,10.32,24.68-5.21.33-6.18-5.48-7.95-8.94-1.91-3.77-3.09-7.75-6.82-9.51-7.46,4.64-16,13.21-29.16,12.6-.46,3.47,3.83,4.57,2.31,7.29-4.67,2.66-5.23-3.23-6.23-5.57-3.74-8.71-9.58-17.43-13.7-25.22-6.09,1.69-9.81,13.37-17.9,13.08-.66-9.26,13.16-8.37,13.93-17,.39-4.29-5.75-14.12-8.58-18.5-3-4.58-7.58-10.28-5.21-19.65,13.35-3.05,21.44-11.27,27.4-21.59C25.43,283,19.53,271,12,260.77c-3.12,1.58-5.26,4.13-9,5.14-1.4-1.45.53-2.77,0-5.07,3.17-.23,5.5-1.28,6.73-3.42-.73-9.07-7-14.07-4.68-23,4.51,4.29,6.21,11.45,9.69,16.8,20-4,35.82-12,45.94-25.67-5-16.85-12-31.66-18.37-47.12-12.57,8.28-21.58,20.07-38.63,23.93-1.45-4.92,5-6,7.82-7.37,10.87-5.15,22.57-12.91,27.37-24.41-6.37-15.26-11-32.24-19.47-45.41C15,127,12.83,131,6.46,130.86c-1.36-6.05,7.07-7.13,11.18-9.65-2-15.43-11.59-25.28-11.57-41,6.61,9.54,9.52,22.84,14.89,33.64,25.78-1.12,46.86-12.28,62.24-26.36,4.57-4.18,12.47-10,13.39-14.73.69-3.56-1.51-9.77-2.36-13.48-.89-3.93-1.77-8.12-2.9-12.36-1.39-5.17-4.13-22.37-8.06-23C80.62,23.45,69.35,34.3,67,35.81c-17.45,11.46-37.13,19-61.71,22.42-1-1.06-.44-3.71-.6-5.62,35-1.67,60.46-17.49,78.47-37.74-.76-3.66-2.89-8.66-2.34-11.79,6.5.2,3.07,10.48,7.41,12.88,39,11.1,81.19,6.78,120.34-6.56,2.28-1.47.92-6.53,4.45-6.78,3.08.87,2.8,3.25,1.73,6.17,23.94,19.42,79.7,16,109.17,3.66a40,40,0,0,0,1.06-9l3.94,0c-4.41,11.35,8.85,14.84,19.83,18.41a123.27,123.27,0,0,0,52.36,5.23c5.22-.57,10.81-2.7,14.06-.11-6.44,5.2-19.16,6.65-26.95,6.39-13.79-.44-26.79-4.41-40.56-6.43-5.17-4-13.56-4.75-19.19-8.29-5.72,14.37-6.67,29.27-9.2,47.32,12.24,7.47,26.17,15,43.46,17.67,16.25,2.49,34.06.33,51.2.73-1.4,2.6-5.08,1.45-7.3,1.75-16.85,2.25-34.94,3.59-52.32-.16-3.37-.73-6.78-2.51-10.16-3.86-3.81-1.52-7.7-2.1-10.72-3.3-3.65-1.44-9.67-6.34-13.54-5.52-5.88,1.26-6.64,22.32-7.66,28.19-2,11.52-6,20.85-5.39,29.86a14.33,14.33,0,0,0,4.57,9c17.92,15,58.64,23.88,81.11,13.43,6.28-15.4,12.05-31.31,19.91-45.16,2.26,12.92-4.09,20.83-8.21,30.45-4.88,11.38-9.83,20.8,1.34,27,3.08,2.35,9.37,1.44,9,7.24-8.31,1.42-13.06-5.6-18.63-8.85-6.19,10.53-13,28.17-18.8,42.34-2,4.81-5.45,11.93-5,15.22,1.47,9.66,21.19,14.15,32.2,16.63,1.88-3.54,2-8.8,5.54-10.73,2,12.12-5.18,21.36-9.32,32.14-3,7.73-7.13,14.84-8.82,23.14,4.25,7,12.59,9.89,19.24,14.48-7,5.57-15.54-7.81-22-10-5.33,4.55-7,11.1-10.54,19.21-1.81,4.16-5.24,9-5,12.41.27,3.2,5.64,9.69,8.54,12.88,4.84,5.31,11,8.35,17,10.56,4.93-4.46,4.82-13.87,9.42-18.64,6.6,2.17-1.06,9.91.11,14.06-1.89,2.79-4.5,4.87-5,9,1.46,4,9.46,1.35,8.5,7.81-3.48-.44-6.63-1.21-8.47-3.31-8.26,6.19-9.78,19-13.27,29.92-2,1.65-5.07,3.31-7.87,1.19-.81-3,1.5-3,1.65-5.08-11.77-3.73-21.5-9.53-28.83-17.78-5.72,6.84-8.6,16.46-11.61,26-2.25-.54-1.68,1.69-3.93,1.15.68-10.41,7.84-20,11.58-29.9-7.46-5.08-22.35-2.62-22.62-15,6,6.25,13,10.32,23.16,11.08,5.52-10.2,9.41-22,15.5-31.63-13.6-.73-21.14-7.64-31-12.14-1.47,3.55-2.73,5.35-3.3,7.36ZM200.59,62.41c2.06-1-.48-1,.55-1.69,2.52.47,6.92-1.64,8.41-4,.59-14.18,3.52-29.5.23-42.2-20,5.14-44,11.64-68.53,12.91-18.48.95-35.18-1.88-51.24-5.23,5.95,15.69,9.33,34,13.34,51.65C136.05,83.06,172.35,71.68,200.59,62.41Zm14-2.92c21.53,20.14,72,20.8,100.19,6,1.37-10.08,3.83-24.65,5.91-35.49.76-3.94,2.5-8.41-.08-11.25-9.77,2-21.76,5.94-34.83,7-26.61,2.21-52.7-.29-68.71-10.16-.13-.44-.48-.65-1.13-.55-1.52,11.86,1.1,33.32-1.34,44.45ZM209,62.35c0-.35-.09-.67-.57-.56C194.66,68,180.06,74,164.7,77.32a181,181,0,0,1-59,2.7c3.26,17.29,8.94,32.13,11.08,50.55,25.88,14.21,67.42,7,91.67-4.08,1.65-22.16,1.14-43.84.63-64.14ZM285.1,78.07c-26.86,4.59-47.85-1.58-67.59-10.73.16-1.14-1.63.13-1.69.58-2.07,14.63.47,38.79-1.81,57.4,17.46,16.76,62.85,21.55,88.39,7.75,3.6-19.72,8.61-41,9.65-61.39-9.66-.23-17.63,4.8-27,6.39ZM95.54,82.35c-18.25,18.2-39.75,32.25-71.16,37.12C29.62,134,37.21,152.47,43.3,166c3.39,2.38,7-.53,10.12-1.21,25.73-5.63,44.42-14.63,57.69-33.64-2.69-17.49-7.46-32.87-11.63-48.85-1.15.17-3.71-.2-3.94,0ZM195,135a92.25,92.25,0,0,1-31.45,7.56c-18.16,1.15-29.66-3.71-45-4.71a26.74,26.74,0,0,1,2.86,6.16c5.4,17.22,7.91,37.37,12.81,55.6,21.6,9.54,54.53,9.13,73.11-2.82,0-18.28.65-39.19.69-56.26,0-2.77,1.4-7.71-1.76-9.55-3.68-.63-8.22,2.69-11.23,4Zm92.33,7.73c-7.89,2.08-16.57,1.88-24.74,1.88a80,80,0,0,1-10.13-.48c-15.48-2-27.42-7.77-38.35-12.08.23,23.67.3,40.5-.64,62.45,13.8,17.3,51.88,21,75.47,11.23,4.28-21.29,9.73-44.37,11.3-66.47-4.67-.5-8.55,2.32-12.91,3.47ZM103.91,219c5.38-2.87,22.28-13.31,23.49-18.74,1-4.71-1.82-11.92-2.94-16.29-3-11.59-4.08-18.82-7.56-31.45-1.82-6.62-3.17-16.2-8.53-11.75-16.85,14-36,28.25-62.2,31.42,6.47,18.38,14.47,35.19,20.66,53.85,14.56-.05,26.21-1.22,37.09-7Zm191.15-16.1c3.78,6.31,11.52,10.11,19.79,12.79,16.48,5.34,39.59,7.67,53.46,1.28,3-9.7,7.37-19,11-28.22,3.76-9.51,9-18.44,9.9-28.77-16.95,2.18-31.64,4.07-46.12.36-13.72-3.52-26.45-10.78-37.26-16.59-4.59,16.54-7.84,39.12-10.79,59.15Zm-81.8,43.39c16.83,11.86,47.31,16.69,68.12,5.67,1-14.66,6.42-27.88,5.86-42.24-24,6.38-54.74,5.78-72.07-7.89l-1.69,0c.65,11.73.18,32-.22,44.45Zm-77.38-39.91c2.63,9.85,5.55,21.06,8.12,31.45.9,3.62.91,8.56,2.34,11.23,3.76,7,20.17,8.64,29.31,7.65,12.62-1.38,23.08-5.59,32-9.25-1-14.59,2.71-34.53-1.48-45-23.13,7.78-45.24,7.85-70.3,3.93ZM70.25,231.06C74.4,244.42,81,255.3,84.61,269.21c20.81,1.12,45.22-5.66,56.67-19-2-11.25-5.66-22.54-8.12-31.45-1.19-4.32-.61-10-4.59-12.34-15.66,11.7-29.82,22.45-58.32,24.63Zm300.4-4c-5.15,4.37-6.83,11.83-10.54,20.34-2.85,6.53-6.57,13.38-6.05,17.49.49,3.84,7.38,11,11.92,14,6.06,3.93,12.49,4.32,20.85,4.34,4-15.26,11.19-27.32,17.13-40.64-14-2.2-26.54-5.95-33.32-15.5ZM60.14,232.83c-6.88,7.85-19.5,15.62-29.67,19.36-4,1.46-8.6.74-11.79,4,4.69,10.37,11.59,23.38,17.71,34.18,9.62,1.43,17.6-1.09,25.27-5.26,4.79-2.6,16-9,16.76-15.32.62-5.47-3.94-13.37-6.33-19.08-2.72-6.49-5-12.73-8.57-17.37-1.33,0-1.67-1-3.38-.54Zm144.17,18.58c-9.9,9-38.83,12.69-55.1,5.49,2,10.47,4.57,20.31,7,30.33,13.92,8,39.18,7.53,50.6-3.77-.83-9.74,3.4-25-2.5-32ZM89.15,274.24c2.7,13.32,9,19.84,11.51,33.67,21.07,2.8,39.73-6.11,49.92-19-3.32-10.87-2.9-26-9.81-32.55-14.49,9.81-28,17.1-51.62,17.83ZM79,277.13c-5.67,8.41-18.76,15.4-30.81,17.68-3,.58-6.74-.8-9,2.32,5.25,8.05,10.1,18.74,14.86,29.7,2.63-.68,7.54.61,9.57.49,11.55-.65,31.53-9.19,31.93-17.12.21-4.1-5.51-13.77-6.88-17.39-2.42-6.33-4.07-12.46-8.56-15.68H79Zm125,12c-9.81,7.3-33.53,10.6-46.1,3.74,2.25,13.24,5.82,24.73,8.71,35.93.3-.82-.68-2.9.54-2.81,1.51,1.24-.77,2.82.6,3.93,12.77,4.67,31.2,1.88,38.76-7.61-.72-7.77.29-22.73.32-31.51-1.77.29-1.51-1.49-2.83-1.66Zm-51.71,6.59c-.72,0-.78-.71-1.69-.55-11.75,9.12-26.31,18.35-46,17.8-.62,1.63,3.17,10.64,4.58,10.09.2,6,4.67,12.18,6.89,18,16.64,1.6,33.14-4.87,44.35-12.16a332.83,332.83,0,0,0-8.14-33.13ZM33.1,302.24H32c0,.75-1,.52-1.12,1.14-4.35,4.61-9,9.92-14.53,13.05-4,2.28-9.91,2.09-12.32,6.84,5.87,7.46,9.75,16.94,14.82,25.21,13.57-2.27,23.34-8.28,30.25-17.11-4.64-10.41-8.83-21.27-16-29.13Zm62.57,15.27c-6,5.81-16.38,12.05-26.91,13.15-4.1.43-9.71-2-12.92,2.35,6.22,6,8.34,16.11,13.68,23,.34,1.82-.36,2.62-.53,3.94,16.06,1.48,38.43-6.89,40.38-16.06.75-3.51-3-9.86-5.17-14.59s-4-9.95-7.41-11.76c-.37,0-.74,0-1.12,0Zm286,20.29c-3.68-3.58-5.54-11.08-10.22-11.73-2.59,4.39-4.84,9.48-7.76,15.81-2.39,5.2-6.22,11.07-5.5,15.23.62,3.59,3.89,5.41,6.81,7.83,6,5,14,8,22.57,9.39,3.7-9.39,7.76-18.42,11.6-27.66-7-3.12-12.24-3.73-17.5-8.85Zm-184.56-3.64c-8,3-21.07,3.16-28.13.78.69,9.38,6,18.78,6.43,30.33,9.64,3,22.86,4.7,30.37-1.36.37-9.85,2.42-23.43-.26-32.62-4.47-.6-5.73,1.87-8.42,2.88Zm-35.44.28c-3.3-1.64-6.21,2.26-8.41,3.44-9.48,5.07-23.52,7.47-35.95,7.59,4.77,9.33,8.61,19.61,12.6,29.73,16.65-2.22,30.63-7.07,39.82-16.63-3.61-4.92-2.91-21.56-8.06-24.13ZM51.37,337H50.24c-5.77,9-19.12,10.58-28,16.53,4.88,7.9,9,16.54,13.69,24.65,16.18.67,24.75-6.15,31.39-14.87-5.11-9-8.91-19.3-15.95-26.32Z"/><path d="M6.6,3.14c14.57.34,30.51.15,52.89.72C65.43,4,72,4.62,75.81,3.74c4.17-1,7.31-6.51,11.8-1.22,11.7.62,36.25.28,59.07.11,23-.18,36.84.25,60.2.09,3.26-2.31,8.7-3.22,11.82-.09,30.71.9,54.66.17,87.2-.11,5.32,0,10.47,1.36,14.63.45s8.38-6.14,12.93-.1c33.37.42,59.23-1.77,81.58-.06,1.81,7.27-2.27,17.54,2.43,23.61-4.57,14-1.82,38.31-3.52,53.47,5.26,3,1.17,7.09.08,11.25a38.19,38.19,0,0,0-.47,11.82c.4,2.23,2.47,4.4,2.87,6.73,1.09,6.47-2.54,12.2-3.25,16.9-.83,5.55-.15,12.92-.41,19.7-.24,6.51.53,13-.41,19.13,5.05,1.85,8,13-.46,13.5,1.63,15-3.6,31.83-1.34,45.58.59,3.56,3.45,5,2.9,10.67-.36,3.63-2.59,7.45-2.73,11.83-.28,9-.07,20.4-.32,30.39-.14,5.24-.3,11.62.68,15.18.46,1.69,2.83,4.69,2.86,6.17.05,2.24-2.13,2.88-2.77,5.65-1.54,6.62-.69,17.84,1.85,20.8.37,8.37-3.39,12.67-2.09,21.95a11.47,11.47,0,0,1,3.45,8.42c.34,2-1.66,1.72-3.37,1.71-1,8.34.58,19.17-1.48,26.45-8,1.3-15.81-3.37-21.36,3-4.23-1.33-6.93-1.61-12.95-1.59-8.72,0-21.36-1.78-26.44-.35-3.33.93-5.15,5.19-8.4,5.12-2.11-.31-2.64-2.23-3.41-3.91-11.07.95-27.39-3.23-34.29,3.64-2.89-.09-2.45-3.55-5.09-3.9-15.7.75-26.85-1.78-39.36,2-3.2-2.64-14.08-1.53-24.77-1.5-12,0-17.07-1.78-24.16,3.56-2.68-.11-3-2.65-4.53-3.9-22.57,2.51-45.49.32-68.63,1.09-2.43.4-3,2.6-5.61,2.86-3-1.12-6.68-2.36-10.14-2.18-2.85.16-4.86,2-7.3,1.75-1.54-.14-3.11-1.48-5.08-1.65-6.26-.55-13,1.23-20.81.16-2.44.2-2.73,2.52-5,2.85-10.34-3.22-22.43-.27-37.14-.84-2.28.35-2.77,3-6.17,2.86-2.2-.07-1.73-2-4-2.78-7.61-2.55-20.4,2.1-29.81.23-4.74-2.17-.89-7-1.78-12.36C2.89,375.4.63,373.3.44,371.69c-.52-4.53,2.42-9.58,2.7-14.65.42-7.4-1.18-14.4.4-21.94-4.81-6.69-2.72-14.93-1.3-22.49,2.48-13.2-1.19-29.85.8-42.2,0-3.19-3.89-2.48-2.87-6.73.57-1.31.14-3.05,2.25-1.15.14-1.47-.23-2.41-1.71-2.23,6.38-6.53-.07-15.26.39-22.51.18-2.82,2.38-5.57,2.75-8.46.84-6.58-.78-13.05-.17-21.38-3.75-4.14-3.19-9.28-.1-13.5C2.12,176.57,6,154.88,4.81,135.37c-.16-2.54-1.34-4.25-1.18-6.74.15-2.26,1.85-4.47,2.2-6.77,1.35-8.94-.43-25.37-.24-30.94C3.82,91,2.2,85.22,2.7,81.38c.24-1.81,2.39-3.3,2.77-5.65.72-4.36-1.1-8.62.47-12.94-3-1.61-5.66-7-2.9-11.23.33-.51,1.94-1.18,2.23-2.27C6,46.55,5.09,43,5.2,39.73c.4-12-.15-26.81,1.41-36.57ZM336.39,309.46c9.9,4.51,17.43,11.41,31,12.14-6.09,9.64-10,21.43-15.51,31.63-10.16-.76-17.18-4.83-23.15-11.08.26,12.4,15.15,9.94,22.62,15-3.74,9.88-10.9,19.49-11.59,29.91,2.25.53,1.69-1.7,3.93-1.16,3-9.51,5.9-19.13,11.62-26,7.32,8.25,17,14.05,28.83,17.78-.16,2.08-2.46,2-1.65,5.08,2.79,2.12,5.89.47,7.86-1.19,3.5-10.89,5-23.72,13.28-29.92,1.83,2.1,5,2.87,8.46,3.31,1-6.46-7-3.81-8.5-7.81.49-4.17,3.1-6.25,5-9-1.17-4.15,6.49-11.89-.1-14.06-4.6,4.77-4.49,14.18-9.42,18.64-6-2.21-12.13-5.25-17-10.56-2.9-3.19-8.28-9.68-8.54-12.88-.28-3.38,3.16-8.25,5-12.41,3.52-8.11,5.21-14.66,10.54-19.21,6.47,2.15,15,15.53,22,10-6.65-4.59-15-7.46-19.24-14.48,1.68-8.3,5.85-15.41,8.82-23.14,4.14-10.78,11.33-20,9.32-32.14-3.52,1.93-3.66,7.19-5.55,10.73-11-2.47-30.73-7-32.19-16.63-.5-3.29,3-10.41,4.94-15.22C383,192.59,389.84,175,396,164.42c5.57,3.25,10.32,10.27,18.64,8.85.31-5.8-6-4.89-9.06-7.24-11.17-6.19-6.22-15.61-1.33-27,4.12-9.62,10.46-17.53,8.2-30.45-7.86,13.85-13.62,29.76-19.9,45.16-22.47,10.45-63.19,1.56-81.12-13.43a14.38,14.38,0,0,1-4.57-9c-.65-9,3.39-18.34,5.4-29.86,1-5.87,1.77-26.93,7.65-28.19,3.87-.82,9.9,4.08,13.55,5.52,3,1.2,6.91,1.78,10.71,3.3,3.38,1.35,6.79,3.13,10.16,3.86,17.39,3.75,35.48,2.41,52.32.16,2.22-.3,5.9.85,7.3-1.75-17.14-.4-35,1.76-51.2-.73C345.5,81,331.56,73.46,319.33,66c2.52-18,3.47-32.95,9.19-47.32,5.63,3.54,14,4.27,19.2,8.29,13.76,2,26.76,6,40.55,6.43,7.79.26,20.51-1.19,27-6.39-3.25-2.59-8.85-.46-14.07.11a123.27,123.27,0,0,1-52.36-5.23c-11-3.57-24.24-7.06-19.83-18.41L325,3.5a40.59,40.59,0,0,1-1,9C294.5,24.86,238.74,28.27,214.81,8.85c1.07-2.92,1.34-5.3-1.74-6.17-3.53.25-2.16,5.31-4.45,6.78C169.47,22.8,127.25,27.12,88.28,16,84,13.62,87.37,3.34,80.87,3.14c-.55,3.13,1.58,8.13,2.34,11.79C65.23,35.16,39.76,51,4.77,52.65c.16,1.91-.4,4.56.6,5.62,24.59-3.45,44.26-11,61.71-22.42,2.31-1.51,13.58-12.36,16.23-11.94,3.92.63,6.67,17.83,8,23,1.13,4.24,2,8.43,2.91,12.36.84,3.72,3,9.92,2.35,13.48-.92,4.74-8.81,10.55-13.38,14.73C67.85,101.56,46.77,112.73,21,113.84,15.62,103,12.72,89.74,6.1,80.2c0,15.7,9.56,25.55,11.57,41-4.1,2.52-12.53,3.61-11.18,9.65,6.38.14,8.59-3.83,12.9-5.72,8.43,13.17,13.11,30.15,19.48,45.42-4.81,11.49-16.5,19.25-27.38,24.4-2.85,1.35-9.27,2.46-7.82,7.37,17.06-3.86,26.06-15.65,38.64-23.93,6.36,15.46,13.36,30.28,18.36,47.12-10.11,13.68-26,21.69-45.93,25.67-3.48-5.34-5.18-12.5-9.7-16.8-2.29,9,4,14,4.68,23-1.22,2.14-3.56,3.19-6.72,3.43.56,2.3-1.37,3.61,0,5.06,3.7-1,5.83-3.56,9-5.13C19.57,271,25.46,283,30.83,295.48c-6,10.33-14,18.55-27.4,21.59-2.36,9.37,2.26,15.08,5.22,19.65,2.83,4.38,9,14.22,8.58,18.5-.78,8.61-14.59,7.72-13.94,17,8.09.29,11.82-11.39,17.91-13.07,4.11,7.78,10,16.5,13.69,25.21,1,2.34,1.56,8.23,6.23,5.58,1.52-2.73-2.76-3.82-2.3-7.3,13.17.61,21.7-8,29.15-12.6,3.74,1.76,4.91,5.75,6.83,9.51,1.76,3.46,2.73,9.27,7.94,8.94-1.38-10-9.16-16.34-10.31-24.68a54,54,0,0,0,38.7-15.48q9.83,11.83,12.61,30.84c-2.89,3.67-9,4.17-11.75,8,6.33.09,9-3.42,13.46-5.17,1.84,1.34,1.42,5,4,5.6,2.5.22,3.56-1,3.92-2.85,1.58-1.82-3.37-1.84-2.29-5,15.16-2.33,29.72-7.78,39.27-13.81,3.35,5.1,3.67,13.29,5.78,19.65,1.67.75,2.45-.35,5.06,0,.65-7-5.17-12.42-3.5-16.85,8,5,19,1.27,28.12-.22,3.12,5.46-2.32,18.69,5.2,17.4,2.32-5.89.43-9.57,2.13-15.77,10.17,7.55,33,10.23,45.59,3,2.67,3.13-1.55,8.22-.47,11.25,1.77,1.47,3.75-.44,5.62-.61-1.32-4.7.13-10.85,2.14-14.08,11.22,4,25.07,10.83,38.87,7-.67,3.24-2.85,5-2.74,9,6.47,1.29,5.36-9.57,10-11.89,4.86,5.88,16.25,12.76,26.5,7.67a31.9,31.9,0,0,1-26-12.74c3.35-9.41,9.14-16.62,7.65-29.31-3.06.34-5.26,1.52-9,1.19-.49,2.51-2.28,3.72-2.77,6.21,3.15-.43,5.84-1.32,9-1.76q-5.19,14.16-11,27.66c-15.53,4.07-32.46.74-39.46-9.83.21-8,1.27-15.13,3.78-20.84,4.64-1.77,8,2.37,13,2.15-1.11-6.69-8.85-3.74-11.89-8.91-.86,4-5.84,5.27-7.24,9.62-.49,1.53.23,3.39,0,5.06-.65,5.81-3.73,12.35-3.23,18.59-14,8.32-39.74,6.52-50.1-4.68,3.72-9.06,1.53-24.85.88-30.94,12.82,5.5,29.49,8.37,43.38,7,.89-1.73,2.8-2.45,3.34-4.53-17.37,2-36.39.2-46.21-9.77,1.56-10,1-24.1.29-34.88,14.62,6.22,34.25,10.19,52.35,4.09.11-1.81-1-2.37-.59-4.49-16.09,4.39-41.8,2.7-51.82-7.48,1-9.39,0-23.69.9-29.26,18.41,8.41,43.79,12.32,65.86,4.55,0,2.4,1.32,3.07,2.29,5.61-.22,4.22-4.13,7.29-5.54,11.3-1.64,4.68-.68,10-3.26,14.65a16.8,16.8,0,0,0,6.8,6.7c-.09-1.4-.12-2.73,1.11-2.82.71,2.29,3,3,5.09,3.89.58-5.6-5.89-3.29-7.37-7.25-1.34-3.59,2.17-11.72,3.24-16.91,1.34-6.43,2-12.41,4.38-15.78,5.11.78,11.85,7.07,14.63.45-6.43-2-11.95-4.87-14.7-10.58,1.41-5.92,2-13.11,3.22-19.71,1.08-6,1.59-14.71,6-17.49,13.67,12.94,44.86,15.93,69.3,12.4-2.93,14.45-11.94,27.68-16,42.89-3.28,1.72-8.86.75-11.24.64-.44,1.25-.52,2.29-.53,5.07,3.7.29,6.57-1.18,10.13-.08-1.24,3.62-3.32,6.41-4.42,10.16a25.18,25.18,0,0,0,9.48-10.2c8.22,7.72,16.66,15.21,31.07,16.64-4.81,9.28-10.92,20.06-13.84,29.36-13.35,2.63-30.67-7.19-30-19.46-5.41,4-8.47,10.28-11.12,17,1.64.59,2.13,2.36,4.52,2.21.6-2,1.86-3.77,3.35-7.3ZM9.44,5.94s-1-.82-1.68.58c.14,14.81.56,31.7-.79,43.32C30,49.27,56.6,37.2,71.47,25.16c5.42-4.39,12.08-10.4,8.29-19.2C52.75,7,34.15,5.09,9.44,5.94Zm78.76-.6c1,3.58,1.17,7.43,2.32,9.54,36.38,8.63,87.51,5.61,117-9.34-52.95-.81-79.21.11-119.28-.2Zm131.08-.45c-.44.12-.65.47-.56,1.13.08.35-.09.78,0,1.12,2.33,7.88,24.76,11.68,36.67,13.22s28.2-.65,42.17-3.14c9.7-1.72,24.59-1.57,25.23-12-28.75-.73-67.71.64-103.52-.32Zm113.65-.32c-1.35,1.84-1.36,5-1.63,7.89,19.94,10.79,53.18,17.18,81.1,11.19,1-4,.62-13.32,1.54-19.14-29.35.68-52.87.94-81,.06ZM322.7,64.85C343.47,81,377.15,86,412.83,79.91c-2-9.72-.42-32.43.76-46.7-27.58,6.92-62.15.46-82.78-10.62-3.52,13.28-5.72,27.87-8.11,42.26ZM80.94,85.28c3.55-3.15,13.43-9.82,14-14.73C95.16,68,92.82,63.83,92,60.44c-2.82-11.68-4.89-21.72-7.57-32.57-.72,0-.78-.71-1.69-.55C63.43,44.4,40.25,57.69,7.05,61.1c1,5.1.54,11,.12,15.19,2.22.72,3,2.71,4,4.47,5.05,9,8.1,20.56,12.05,30.85,22.68-1.4,43.21-13.43,57.75-26.33Zm229.34,47.18c15.23,19.6,50,28.16,80.6,19.63,4.59-12.55,9.68-24,14.92-35.56,1.68-3.74,4.84-7.59,5.54-11.29,1-5.14-1-9.79.44-15.2-34.74,8-67.75-1.58-91.24-13.36-3.91,18.11-6.47,37.55-10.26,55.78ZM8.1,123.54a12.62,12.62,0,0,0,7.84-5.12c-3.18-4.53-3.26-12.19-7.44-15.7.08,8-.08,14.27-.4,20.81Zm12.42,5.53H19.39c-3.3,3.07-8.93,3.86-12.89,6.29.36,18.77.61,42.28-1.78,60.21C18.51,190,29.82,182,36.58,169.45c-5.46-13.35-11-26.64-16.06-40.38Zm380.53,28.56a28.5,28.5,0,0,0,9.06,7.24c-.88-11.78,2-20.25.32-31.5-2.87,8.35-6.69,15.75-9.38,24.27Zm-26.5,65.47a47.05,47.05,0,0,0,28.78,12.15c.69-3.2,4.26-6.3,5-10.16,2.75-14.52-1.79-34.83,1.87-49-6.5-.58-8.77-5.46-14.12-7.21-6.58,18.62-14.2,36.24-21.51,54.17ZM41.19,182.91A80.54,80.54,0,0,1,5.92,205.69c-.06,8.52.34,16.43.18,23.62a39.84,39.84,0,0,1,10.28,19.05c18-4.41,33.64-11.16,42-25.08-5.65-13.54-10.2-28.2-17.19-40.38Zm248.61,65.6c9.81,8.56,24.07,12.6,40.06,14.88,1-5.38.33-12.33,3.82-15.22,5.61,4.13-.65,20.32,13.06,16.22,4.16-13.22,11.22-26.55,14.9-38.38-9.1,2.23-19.06,3.33-28.12,1.91-2.1-.33-3.51-1.84-5.64-2.21-1.77-.31-4.23.34-6.19,0-10.15-1.51-18.82-6.53-26.52-10.48-1.11,11.73-4.6,21.14-5.37,33.22ZM4.64,257.46c2.1.21,3.3-.48,3.36-2.28-.76-1.11-1.33-2.43-2.84-2.79.41,2.25-.51,3.21-.52,5.06ZM394.7,282a46,46,0,0,0,14.15,11.14c-.12-12.06-.72-27.27.24-42.19-.13-.44-.48-.65-1.13-.56-3.89,11-9,20.86-13.26,31.61ZM216.37,284c12,6.87,34.12,9.68,49,4.12,1.81-5.1,1.19-12.6,3.81-16.9,3.93-2.09,7.36-4.66,8.36-9.63-18.68,7.2-42,4.94-60.22-2.91-.79,7.29.1,17.52-.94,25.33Zm68.55-11.78a17.89,17.89,0,0,0,9.5-8.51c-2,0-4.59-1.43-7.33-2.2-.71,3.58-1.87,6.72-2.17,10.7ZM12,264.72c-1.77,1.79-4.84,2.31-7.29,3.43,1.38,17.81.69,31.17-.21,46.13,11.34-3.35,18.46-10.86,24-19.87-5.73-10.82-9.26-21.26-16.54-29.68Zm298.18,2.2c5.91,1,11.3,2.51,18,2.67.43-1.25,1.17-2.2,1.1-3.94-6.36-1.74-11.91-2.27-18-3.24,1.23,2.11-.86,2.39-1.09,4.51ZM299,268.69c-2.4,4.89-6.89,7.73-10.6,11.33,3.13,1.92,3.57,6.58,5.7,9.52,1.27-3.58,1.38-8.31,6.12-8.48,3.47,3.39.48,10,1.25,15.74,9.46-.38,1.15-12,7.76-14.13,4.82,1.52,4.9,10.72,4.05,14.6,6.81-6.33,12.93-13.33,14.44-24.86-10.28-.31-18.58-3-28.73-3.72Zm37.72,4.21c-1.55,10.2-6.93,16.63-11.63,23.72l5.06,0a60.47,60.47,0,0,0,14.44-23.74l-7.87.06Zm7.48,21.32c-.6,3.32-2.52,5.33-2.75,9,7.11,5.64,12.32,13.2,26,12.18,3.7-8.65,9.53-18.14,12.18-26-13.4-.18-20.35-6.93-26.56-14.42-4.13,5.22-2.83,15.81-8.85,19.19Zm38.35,11.52c-2,4.5-6.29,11.67-6.08,14.67.2,2.74,5.65,8.93,7.4,10.64a45.91,45.91,0,0,0,15.26,9.44c1.12-7.62,7.35-12.94,9.41-20.32,1.39-5-.51-10.51,1-16.89-9.61-1.19-13.87-7.83-19.78-12.79-1.68,4.75-4.63,9.34-7.2,15.26ZM216.7,327.27c11.41,6.37,28.3,8.37,43.93,6.41,4.65-3.42,6.32-9.78,7.18-16.93-8.5,2-5.17,15.74-16.19,15.31-2-10.24,7.22-18.36,12.18-25.41a23,23,0,0,0,5.62-.6c.29-4.65-1.17-7.51-3.45-9.54-16,7.18-31.19,4.2-48.94-.19,0,10.46.46,21.3-.31,31Zm70.1-28.11c-2.92-.06-3.27-2.73-6.21-2.77-.06,3.16,4.81,6.24,6.21,2.77Zm32.67,4.25c1.87-.4,6.9-2.5,7.83-5.69-5.09-1.19-8.73,4.69-7.83,5.69ZM272.79,306c.16-1.48-.79-1.84-2.26-1.67-.55,1.88.8,1.84,2.26,1.67Zm45.07,7.53c2.2,1.16,6.47.23,9.57.49.71-2.83,2.3-4.81,2.75-7.9-4.22,2.36-9.12,4.05-12.32,7.41Zm-41.57,8.76c3.51-1.19,4.6-4.78,5.56-8.48a3.64,3.64,0,0,0-2.82-.54c-1.89,2-1.63,6.2-2.74,9Zm57.93-2.7c5.26,4,8.62,15.73,5.81,24.14-5.73-3.06-2.77-12.18-9.12-15.12-1.2,2.55-2.08,5.4-3.31,7.91,4.9,7.87,13.25,12.24,23.74,14.44,3.9-9,7.58-18.22,12.17-26.53A42.53,42.53,0,0,1,337,312.84c-.81,2.36-2.57,3.8-2.76,6.77Zm-64.17-4.56c-.81,3.32-3.3,10.24-1.59,12.39,1.27-1.17,3.71-1.18,5-2.29-.77-4.42,1.23-8.68,1-10.7-2.09-.38-2.41,1-4.5.6Zm44.5,7c2.27,2,4.52,4.1,6.8,6.13.79-2,2-3.64,2.2-6.2-3.5,2.74-7.23-2.8-9,.07Zm8.5,7.81c1.67.58,1.1,3.42,3.4,3.35.72-2.83,2.29-4.82,3.32-7.34-1.84-.78-1.54-3.73-4.53-3.34-.37,2.8-1.92,4.43-2.19,7.33ZM274.69,333c-.18,4.15,3.66,4.22,6.79,5-.75-2.67-.53-6.62-1.19-7.87a12.18,12.18,0,0,0-5.6,2.86Zm37.18,6.47c2.93.28,4.16-1.11,6.74-1.18a5.91,5.91,0,0,0-5.1-5C313.66,336,312,337,311.87,339.48Zm-307,24.87c4.28-3.08,10.13-6,10-11.33-.09-5.56-7.48-11.71-9.69-16.24,0,9,.44,21.24-.35,27.57Zm210.41,1.19c9.85,6.7,30.76,8.78,43.34,3,1.41-7.74,3.44-14.86,4.32-23.1-6.28,4-5.64,14.92-14.5,16.43-.53-6.53,3.9-12.88,4.92-19.73-14.24,1.27-25-.44-37.17-4.22a95.58,95.58,0,0,1-.91,27.57Zm191.14-18.92c2.93,1.36,2.74-3.2,1.66-3.95-.57,1.3-1.93,1.83-1.66,3.95ZM269.86,363.43c8.47,5.67,22.63,11.7,36.06,7,2-8.48,6.05-14.88,8.83-22.57-11.35,2.5-20.84,7.31-29.26-.9-5.35.51-8.25-1.45-11.84-2.72a116.54,116.54,0,0,0-3.8,19.15ZM111.37,383.78c3.25-1.85,10-3.78,10.64-6.83.72-3.36-3.24-8.95-4.6-12.35-1.85-4.59-3.08-8.3-4.6-12.34C102.28,359.81,94,368,76.92,366.6c3.65,5.56,5.83,12.6,9.7,17.93,5.45-.23,19.3,2.34,24.75-.76Zm216.34-32.61c-3.62,3.69-6.86,7.76-8.33,13.56-1.4-.05-1.75-1-2.82,0,.17,2-1,2.72-1.09,4.5,6.25,4.9,13.35,11.65,24.27,9.94,2.67-6.67,5.42-13.27,8.29-19.75-7.67,0-14.58-4.57-20.33-8.28Zm65.49,29.31a52.24,52.24,0,0,1,14.07.45c.87-8.41.78-15.11,2.06-23.64-2.06-.74-4.05-1.55-6.2-2.21-3.21,8.58-6.64,16.92-9.93,25.4ZM5.54,375.6c.14,5.28-.63,6.44-.48,11.25,10.63.23,18.3.41,28.69-.22-3.47-8.68-9-15.89-12-23.53H20.07c-2.64,6.32-8.29,9.69-14.53,12.48ZM348.2,382a207.1,207.1,0,0,0,22.5.39c3.68-.17,8.44.14,10.68-1.77-10.55-3.47-19.31-8.74-24.89-17.25-2.72,6.26-5.67,12.29-8.3,18.63Zm-212.64,1.64c12.26,1.39,25.84.33,37.69-.29-.95-5.75-1.13-9.71-4.05-14-7.11,8.6-24.13,9.89-33.64,14.32Zm-91.68,3c9.47,0,22.07,0,32.06-.25-1.7-4.06-3.77-10.31-7.42-14-4.48,8.43-15,11-24.64,14.26ZM183.3,373.66c-.66,2.36,2,5.76,1.76,9.55,6-.19,13.2.15,19.69.41-.18-6.14-.54-7.05-.1-12.38-5.62,2.51-14.78,4.13-21.35,2.42ZM266.07,382c9.93,1.43,23.36-.67,32.64,1.43.64-1.41,2.22-1.9,2.22-3.95-12.77,4.19-23.34-2.94-32.68-5.94-1.13,2.42-1,6.1-2.18,8.46Zm-51.19,1c12.77.2,24.91.61,40.5.25a17.19,17.19,0,0,0,1.08-6.2c-10.93,5.52-32.59,3.25-41.09-2.49-.68,1.75-.47,4.79-.5,8.45Zm95.08,1c3.83-.66,9.24,1.09,10.68-.65-3.36-1.31-5.3-4.06-8.48-5.56-.79,2-2,3.64-2.21,6.21Z"/><path class="cls-1" d="M158.75,327.15c-10.07,7.39-22.77,12.19-40.41,12.13-2.21-8.54-7.14-14.3-9.18-23,18.81-.64,32.16-9.64,42.06-17.2A27.53,27.53,0,0,1,153,307.5c.48.1.53-.22.56-.56-.36-2.78,1.65.57,0,.56,1.72,6.55,3.14,13.42,5.22,19.64Z"/><path class="cls-1" d="M330.8,22.58C351.43,33.66,386,40.12,413.58,33.2c-1.18,14.27-2.74,37-.76,46.7C377.14,86,343.46,81,322.69,64.84c2.39-14.39,4.59-29,8.11-42.26Z"/><path class="cls-1" d="M310.39,75.06c-3.65,18.37-5.88,38.13-10.26,55.78-25.22,12-61.84,8.68-83.31-6.11,3.42-16.08.77-34.7,2.41-52.34,14,5.6,30.85,12.64,50.16,11.43a144.23,144.23,0,0,0,41-8.76Z"/><path class="cls-1" d="M58.37,223.28c-8.35,13.92-24,20.67-42,25.08A39.78,39.78,0,0,0,6.1,229.31c.16-7.2-.24-15.1-.19-23.63a80.44,80.44,0,0,0,35.27-22.77c7,12.18,11.54,26.84,17.19,40.38Z"/><path d="M206.8,283.46c-11.42,11.29-36.68,11.8-50.6,3.77-2.42-10-5-19.86-7-30.33,16.26,7.2,45.2,3.55,55.09-5.49,5.89,7,1.66,22.31,2.49,32Zm-18.17-21.24c-10.91,2.66-23.18,1.48-34.88.27,1.83,7.6,4.44,14.39,5.24,23,14.84,7.37,33.09,6.36,46.11-3.17-.17-8.2,0-18.94-.2-25.32-5.94-.7-10.53,3.78-16.27,5.18Z"/><path d="M404,242.55c-5.94,13.32-13.15,25.38-17.13,40.64-8.36,0-14.79-.4-20.85-4.34-4.54-3-11.43-10.12-11.92-14-.52-4.11,3.21-11,6.05-17.49,3.71-8.5,5.39-16,10.54-20.33,6.79,9.55,19.29,13.3,33.32,15.49Zm-47.64,22.87c6.14,8.51,13.34,15.94,28.25,15.53,4.5-12.5,11.87-25.14,15.47-36.68-13.93-.22-23-5.4-29.36-13.28-4.86,11.42-9.16,23.38-14.36,34.44Z"/><path class="cls-1" d="M217.29,258.62c18.21,7.85,41.54,10.11,60.22,2.91-1,5-4.43,7.55-8.36,9.63-2.62,4.31-2,11.81-3.81,16.91-14.86,5.56-37,2.74-49-4.13,1-7.82.16-18.05.94-25.33Z"/><path class="cls-1" d="M217,296.32c17.76,4.39,33,7.37,49,.19,2.27,2,3.74,4.89,3.44,9.53a22.88,22.88,0,0,1-5.62.61c-5,7-14.16,15.17-12.18,25.41,11,.43,7.69-13.27,16.2-15.31-.87,7.14-2.53,13.51-7.18,16.93-15.63,2-32.53,0-43.94-6.41.76-9.68.34-20.52.31-31Z"/></svg>