<svg id="publicdomainvectors.org" xmlns="http://www.w3.org/2000/svg" viewBox="0 0 800 800"><defs><style>.cls-1{fill:#630;}.cls-1,.cls-10,.cls-11,.cls-12,.cls-13,.cls-2,.cls-3,.cls-4,.cls-5,.cls-6,.cls-7,.cls-8,.cls-9{fill-rule:evenodd;}.cls-2{fill:#af7c45;}.cls-3{fill:#8a4b0c;}.cls-4{fill:#cc9b66;}.cls-5{fill:#f5df3b;}.cls-6{fill:#fcea60;}.cls-7{fill:#e67241;}.cls-8{fill:#f28e64;}.cls-9{fill:#80450a;}.cls-10{fill:#945312;}.cls-11{fill:#a3601d;}.cls-12{fill:#b06b25;}.cls-13{fill:#82470c;}</style></defs><title>spider 18</title><path class="cls-1" d="M449.18,370.83A13,13,0,0,0,442,394.91l71.63,43.95a57,57,0,0,1,23.3,26.77l46.29,106a82.4,82.4,0,0,0,22.73,30.69l24.14,20.63a18.85,18.85,0,0,1,3.08,3.3,18.35,18.35,0,0,1,2.08,3.94l2,5.08a13,13,0,0,0,24.22-9.36l-2-5.08a42.75,42.75,0,0,0-12.48-17.62L622.8,582.54a58.79,58.79,0,0,1-9.19-9.73,58.21,58.21,0,0,1-6.62-11.6l-46.29-106a81.76,81.76,0,0,0-33.58-38.57l-60-36.82,69.33-23.1a57.11,57.11,0,0,1,45.66,3.43l76.14,38.74a82,82,0,0,0,37,9.22l17.89.35a13,13,0,1,0,.51-25.94l-17.89-.36a58.23,58.23,0,0,1-13.23-1.71,58.83,58.83,0,0,1-12.46-4.76L593.93,337a82.68,82.68,0,0,0-65.62-4.86l-70.55,23.52a13,13,0,0,0-8.58,15.18Zm21-50.84,44.7-24.07a50,50,0,0,0,26.37-35.67l4.13-20.64a76.11,76.11,0,0,1,37-52l41.28-24.31a114.18,114.18,0,0,1,46.08-15.57l27.91-3.32a22.54,22.54,0,0,0,4.87-1.06v0a21.88,21.88,0,0,0,4.44-2.21h0l10.44-6.68a13,13,0,1,1,13.94,21.88L721,162.94l0,0a48.51,48.51,0,0,1-9.73,4.85l0,0a47.23,47.23,0,0,1-10.54,2.48l-27.91,3.32a87.42,87.42,0,0,0-36,12.12L595.5,210a50,50,0,0,0-24.61,34.7l-4.13,20.65a76.35,76.35,0,0,1-39.6,53.47l-44.7,24.07A13,13,0,0,1,470.15,320ZM458.9,289.86a13,13,0,0,0,19.64,17l45-51.87a63.64,63.64,0,0,0,16-45.31L539,194a38.31,38.31,0,0,1,11.53-29.45l72-72.48A66.78,66.78,0,0,0,634,76.72a66.5,66.5,0,0,0,6.52-17.93l.81-3.79a13,13,0,0,0-25.44-5.39l-.81,3.79a41.08,41.08,0,0,1-4,11,40.66,40.66,0,0,1-7,9.29l-72,72.48a63.79,63.79,0,0,0-19.06,48.58l.55,15.72A38.23,38.23,0,0,1,503.89,238l-45,51.87Zm-13.14-26.23a13,13,0,1,0,22.49,12.93l19.44-33.71a39.52,39.52,0,0,0-9.84-51l-2.51-2a13.44,13.44,0,0,1-4.13-16.18L483.09,146a13,13,0,1,0-23.91-10.28L447.3,163.38a39.38,39.38,0,0,0,12,46.91l2.51,2a13.64,13.64,0,0,1,3.44,17.67l-19.45,33.7ZM402.89,226.7l14.82-23.78a13,13,0,0,1,22.08,13.74L425,240.43a13,13,0,1,1-22.08-13.73Z"/><path class="cls-2" d="M563.07,525.56l20.11,46a82.4,82.4,0,0,0,22.73,30.69l24.14,20.63a18.85,18.85,0,0,1,3.08,3.3,18.35,18.35,0,0,1,2.08,3.94l2,5.08a13,13,0,0,0,1.92,3.37l23-6.12a12.91,12.91,0,0,0-.73-6.61l-2-5.08a42.75,42.75,0,0,0-12.48-17.62L622.8,582.54a58.79,58.79,0,0,1-9.19-9.73,58.21,58.21,0,0,1-6.62-11.6L584.6,510l-21.53,15.61Zm52.3-148.45,42.89,21.82a82,82,0,0,0,37,9.22l17.89.35c.39,0,.77,0,1.15,0l-.21-25.91h-.43l-17.89-.36a58.23,58.23,0,0,1-13.23-1.71,58.83,58.83,0,0,1-12.46-4.76l-52.3-26.61-2.39,28ZM619,43.54l22.33,11.39V55l-.81,3.79A66.5,66.5,0,0,1,634,76.72,66.78,66.78,0,0,1,622.51,92l-34,34.2-18-18.76L604.1,73.7a40.66,40.66,0,0,0,7-9.29,41.08,41.08,0,0,0,4-11l.81-3.79A12.88,12.88,0,0,1,619,43.54Zm100.46,89.81,14.11,21.17a12.73,12.73,0,0,1-2.2,1.77L721,162.94l0,0a48.51,48.51,0,0,1-9.73,4.85l0,0a47.23,47.23,0,0,1-10.54,2.48l-27.91,3.32a87.42,87.42,0,0,0-36,12.12l-12.12,7.13-10.25-24.07,9.25-5.45a114.18,114.18,0,0,1,46.08-15.57l27.91-3.32a22.54,22.54,0,0,0,4.87-1.06v0a21.88,21.88,0,0,0,4.44-2.21h0l10.44-6.68A12.66,12.66,0,0,1,719.48,133.35Z"/><path class="cls-3" d="M457.28,371.32l-1.54-6.72a6.27,6.27,0,0,1,4.15-7.3l70.55-23.52a75.9,75.9,0,0,1,60.44,4.47L667,377a63.22,63.22,0,0,0,28.61,7.2l17.89.36a6.25,6.25,0,0,1-.24,12.49l-17.89-.36a74.88,74.88,0,0,1-34.07-8.49l-76.13-38.73a63.86,63.86,0,0,0-50.85-3.83l-77.05,25.69Zm-4.86,1.61-3.46-.11a6.26,6.26,0,0,0-3.48,11.61l71.63,43.95a63.72,63.72,0,0,1,25.95,29.82l46.29,106a75.46,75.46,0,0,0,20.94,28.26l24.13,20.63a25.41,25.41,0,0,1,4.2,4.53,24.93,24.93,0,0,1,2.86,5.4l2,5.07a6.25,6.25,0,0,0,11.67-4.48l-2-5.08a36.07,36.07,0,0,0-10.59-14.94l-24.13-20.63a62.72,62.72,0,0,1-17.61-23.75l-46.29-106a75.21,75.21,0,0,0-30.92-35.53L451.3,373.31l1.12-.38Zm256.83-230v.44l-4.46,1.59a28.21,28.21,0,0,1-6.34,1.41l-27.91,3.33a107.26,107.26,0,0,0-43.47,14.69l-41.28,24.3A69.44,69.44,0,0,0,552,236.19l-4.13,20.64A56.66,56.66,0,0,1,518,297.11l-44.7,24.07a6.27,6.27,0,1,0,5.93,11L524,308.15a69.63,69.63,0,0,0,36.19-48.87l4.13-20.64a56.7,56.7,0,0,1,27.8-39.19l41.28-24.3a94.19,94.19,0,0,1,38.63-13l27.91-3.32A41.55,41.55,0,0,0,709,156.7l1.76-.63a41.19,41.19,0,0,0,5.22-2.64l11.8-7.55a6.24,6.24,0,0,0-6.69-10.54l-11.82,7.57ZM464,289.53l45-51.87a44.81,44.81,0,0,0,11.36-32.15l-.54-15.72a57,57,0,0,1,17.1-43.6l72-72.48A47.94,47.94,0,0,0,617,62.88a47.93,47.93,0,0,0,4.63-12.81l.81-3.79a6.27,6.27,0,0,1,12.28,2.57l-.82,3.79a59.92,59.92,0,0,1-5.85,16.14,60.42,60.42,0,0,1-10.35,13.76l-72,72.48a46.14,46.14,0,0,0-10.43,15.72,46.61,46.61,0,0,0-3.05,18.7l.55,15.73a56.91,56.91,0,0,1-14.38,40.66l-45,51.87a6.25,6.25,0,0,1-9.47-8.17Zm-12.4-27.27L471,228.55a20.36,20.36,0,0,0-5.11-26.32l-2.51-2a32.65,32.65,0,0,1-9.94-39l11.88-27.65a6.28,6.28,0,1,1,11.54,5L465,166.26a20.17,20.17,0,0,0,6.16,24.14l2.51,2a32.78,32.78,0,0,1,8.17,42.38l-19.44,33.7a6.24,6.24,0,0,1-10.83-6.19Zm-43-36.74,14.82-23.78a6.27,6.27,0,1,1,10.65,6.62l-14.81,23.78a6.27,6.27,0,0,1-10.66-6.62Z"/><path class="cls-4" d="M617.53,351.82,667,377a63.22,63.22,0,0,0,28.61,7.2l17.89.36a5.46,5.46,0,0,1,.58,0l.1,12.4a7,7,0,0,1-.92.05l-17.89-.36a74.88,74.88,0,0,1-34.07-8.49l-44.93-22.86,1.15-13.51Zm5.19-306.39,11.51,5.87-.29,1.34a59.92,59.92,0,0,1-5.85,16.14,60.42,60.42,0,0,1-10.35,13.76l-36.16,36.4-8.66-9,36-36.2A47.94,47.94,0,0,0,617,62.88a47.93,47.93,0,0,0,4.63-12.81l.81-3.79a6.32,6.32,0,0,1,.24-.85Zm98.16,90,6.93,10.39,0,0L716,153.43a41.19,41.19,0,0,1-5.22,2.64l-1.76.63a41.55,41.55,0,0,1-9.07,2.13L672,162.15a94.19,94.19,0,0,0-38.63,13l-13,7.64-4.93-11.59,11.61-6.83a107.26,107.26,0,0,1,43.47-14.69l27.91-3.33a28.21,28.21,0,0,0,6.34-1.41l4.46-1.59v-.44l11.63-7.45ZM570.22,520.37l10.37-7.52,20.23,46.32a62.72,62.72,0,0,0,17.61,23.75l24.13,20.63a36.07,36.07,0,0,1,10.59,14.94l2,5.08a6.25,6.25,0,0,1-11.67,4.48l-2-5.07a24.93,24.93,0,0,0-2.86-5.4,25.41,25.41,0,0,0-4.2-4.53l-24.13-20.63a75.46,75.46,0,0,1-20.94-28.26Z"/><path class="cls-5" d="M530.88,454.87a60.71,60.71,0,0,1,6,10.76l13.56,31.05,20.93-17L560.7,455.25a86.34,86.34,0,0,0-10.76-18.38l-19.06,18Zm30-101.07a59.35,59.35,0,0,1,21.28,6.39l16.74,8.52,6-26.17L593.93,337a85.69,85.69,0,0,0-27.78-8.77l-5.31,25.58ZM547.91,130.28l19.7,17-17.08,17.2a44.93,44.93,0,0,0-3.09,3.45l-20.26-16.27a72.32,72.32,0,0,1,4.94-5.5l15.79-15.9ZM596,179.59l14.42,21.63L595.5,210a52,52,0,0,0-16.19,14.61c-.69,1-1.34,2-2,3L565,201.27a79.83,79.83,0,0,1,17.4-13.66Z"/><path class="cls-6" d="M565.73,330.21a79.63,79.63,0,0,1,25.15,8l13.37,6.81-2.88,12.64-16.19-8.24a67,67,0,0,0-22-6.92l2.56-12.33ZM550.48,132.5l9.49,8.2L545.76,155A48.93,48.93,0,0,0,540,162l-9.79-7.86a62,62,0,0,1,6.69-7.92l13.59-13.69Zm47,49.3,6.94,10.41-12.31,7.24A58.66,58.66,0,0,0,573.83,216c-.4.55-.78,1.12-1.15,1.68l-6-12.85a72.33,72.33,0,0,1,19.15-16.12l11.67-6.87Zm-30,301.05L557.4,491,543.06,458.2a70,70,0,0,0-5.27-9.86l9.26-8.74a82.4,82.4,0,0,1,7.48,13.61Z"/><path class="cls-7" d="M580.48,565.4l2.7,6.19a84.73,84.73,0,0,0,9.57,16.69,82.17,82.17,0,0,0,8.89,10.12l30.29-8.06-9.13-7.8a58.79,58.79,0,0,1-9.19-9.73,58.21,58.21,0,0,1-6.62-11.6l-1.21-2.78-25.3,7Zm49.8-180.71,28,14.24c2.2,1.12,4.38,2.13,6.58,3l2.66-27.53-35.26-17.94-2,28.2Zm-27.19-310,19.7,17-.28.29-20.76,20.91L581.38,96.57l21.71-21.86Zm72.11,72.37,16.19,24.28-18.59,2.21a92.37,92.37,0,0,0-18.68,4.08c-2,.66-3.87,1.39-5.78,2.19l-11.05-23.51c2.83-1.23,5.68-2.32,8.58-3.3a117.34,117.34,0,0,1,23.87-5.3Z"/><path class="cls-8" d="M632.05,359.2,667,377l.23.12L666,390.39q-2.36-1-4.65-2.2L631.1,372.82l.95-13.62ZM605.66,76.94l9.5,8.2-21.31,21.45L584,98.71l21.62-21.77Zm70.8,72,7.82,11.72L672,162.15a98.92,98.92,0,0,0-20,4.39c-2.84,1-5.61,2.05-8.33,3.28l-5.31-11.31a102.91,102.91,0,0,1,9.7-3.84,110.71,110.71,0,0,1,22.52-5l5.92-.71Zm-48.2,442.35-14.7,3.91-3.27-2.81a75.46,75.46,0,0,1-20.94-28.26l-.47-1.08,12.19-3.35a62.55,62.55,0,0,0,17.36,23.19Z"/><path class="cls-7" d="M618.08,612.68l12,10.23a18.85,18.85,0,0,1,3.08,3.3,17.08,17.08,0,0,1,1.7,3l25.27-6.72-.68-1.74a44.11,44.11,0,0,0-5.13-9.64,42.61,42.61,0,0,0-6-6.78l-30.21,8.31ZM616,49.15l23.93,12.2A64.9,64.9,0,0,1,634,76.72l-.57,1L609.37,67.31c.63-1,1.21-1.91,1.75-2.9a41.08,41.08,0,0,0,4-11l.81-3.79c0-.15.06-.31.1-.46Zm94.58,89.66L725,160.39l-4,2.55,0,0a48.51,48.51,0,0,1-9.73,4.85l0,0c-.86.31-1.73.59-2.59.85L697.3,144.45l.35,0a22.54,22.54,0,0,0,4.87-1.06v0a21.88,21.88,0,0,0,4.44-2.21h0l3.57-2.28Zm-8.29,243.52.21,26-7.26-.14a88.46,88.46,0,0,1-14.9-1.51l1.11-26.43,1.07.28a58.23,58.23,0,0,0,13.23,1.71Z"/><path class="cls-8" d="M681.36,382.4a66.36,66.36,0,0,0,14.26,1.79l6.69.14.1,12.49-7-.14a80.67,80.67,0,0,1-14.56-1.55l.54-12.73ZM621.26,51.83l11.41,5.82a57.84,57.84,0,0,1-4.58,11.13A55.92,55.92,0,0,1,624.86,74l-11.78-5.11a45.19,45.19,0,0,0,4-6,47.12,47.12,0,0,0,4.22-11.05Zm90.84,89.26L719,151.47l-3.06,2a41.19,41.19,0,0,1-5.22,2.64l-1.76.63a42,42,0,0,1-5.23,1.49l-5.54-11.81.24,0a28.21,28.21,0,0,0,6.34-1.41l4.46-1.59v-.44l2.85-1.82ZM655.22,623.83l-12.15,3.23L641.48,623a24.93,24.93,0,0,0-2.86-5.4,25.41,25.41,0,0,0-4.2-4.53l-4.31-3.68,14.47-4a36.14,36.14,0,0,1,4.22,4.92,37.33,37.33,0,0,1,4.35,8.18l2,5.08Z"/><path class="cls-1" d="M348.78,370.83A13,13,0,0,1,356,394.91l-71.62,43.95a56.88,56.88,0,0,0-23.3,26.77l-46.3,106a82.12,82.12,0,0,1-22.73,30.69l-24.13,20.63a17,17,0,0,0-5.16,7.24l-2,5.08a13,13,0,1,1-24.21-9.36l2-5.08a44.14,44.14,0,0,1,5.14-9.64,43.46,43.46,0,0,1,7.35-8l24.13-20.63a58.87,58.87,0,0,0,9.2-9.73,58.18,58.18,0,0,0,6.61-11.6l46.3-106a81.81,81.81,0,0,1,33.57-38.57l60-36.82-69.32-23.1a57.13,57.13,0,0,0-45.67,3.43l-76.13,38.74a82,82,0,0,1-37,9.22l-17.9.35a13,13,0,1,1-.51-25.94l17.9-.36a58.3,58.3,0,0,0,13.23-1.71,59,59,0,0,0,12.45-4.76L204,337a82.66,82.66,0,0,1,65.61-4.86l70.56,23.52a13,13,0,0,1,8.57,15.18Zm-21-50.84-44.7-24.07a50,50,0,0,1-26.37-35.67l-4.13-20.64a76.11,76.11,0,0,0-37-52L174.31,163.3a114.3,114.3,0,0,0-46.09-15.57l-27.9-3.32a22.27,22.27,0,0,1-4.87-1.06v0A21.88,21.88,0,0,1,91,141.09H91l-10.44-6.68a13,13,0,1,0-13.94,21.88L77,162.94v0a48,48,0,0,0,9.73,4.85v0a47.44,47.44,0,0,0,10.55,2.48l27.91,3.32a87.31,87.31,0,0,1,36,12.12L202.46,210a50,50,0,0,1,24.62,34.7l4.13,20.65a76.35,76.35,0,0,0,39.6,53.47l44.7,24.07A13,13,0,1,0,327.82,320Zm11.24-30.13a13,13,0,0,1-19.63,17l-45-51.87a63.59,63.59,0,0,1-16-45.31L259,194a38.22,38.22,0,0,0-11.53-29.45L175.45,92A67.07,67.07,0,0,1,164,76.72a66.49,66.49,0,0,1-6.51-17.93L156.63,55a13,13,0,0,1,25.44-5.39l.81,3.79a38.93,38.93,0,0,0,11,20.3l72,72.48a63.79,63.79,0,0,1,19.06,48.58l-.55,15.72A38.28,38.28,0,0,0,294.07,238l45,51.87Zm13.15-26.23a13,13,0,0,1-22.49,12.93l-19.45-33.71a39.53,39.53,0,0,1,9.85-51l2.51-2a13.44,13.44,0,0,0,4.13-16.18L314.88,146a13,13,0,1,1,23.91-10.28l11.88,27.65a39.38,39.38,0,0,1-12,46.91l-2.51,2a13.64,13.64,0,0,0-3.44,17.67l19.45,33.7Zm42.87-36.93-14.82-23.78a13,13,0,1,0-22.08,13.74L373,240.43a13,13,0,1,0,22.08-13.73Z"/><path class="cls-2" d="M234.9,525.56l-20.12,46a82.12,82.12,0,0,1-22.73,30.69l-24.13,20.63a17,17,0,0,0-5.16,7.24l-2,5.08a12.67,12.67,0,0,1-1.92,3.37l-23-6.12a12.81,12.81,0,0,1,.73-6.61l2-5.08a44.14,44.14,0,0,1,5.14-9.64,43.46,43.46,0,0,1,7.35-8l24.13-20.63a58.87,58.87,0,0,0,9.2-9.73,58.18,58.18,0,0,0,6.61-11.6L213.37,510l21.53,15.61ZM182.6,377.11l-42.89,21.82a82,82,0,0,1-37,9.22l-17.9.35c-.38,0-.77,0-1.15,0l.22-25.91h.42l17.9-.36a58.3,58.3,0,0,0,13.23-1.71,59,59,0,0,0,12.45-4.76l52.31-26.61,2.39,28ZM179,43.54,156.62,54.93V55l.81,3.79A66.49,66.49,0,0,0,164,76.72,67.07,67.07,0,0,0,175.45,92l34,34.2,18-18.76L193.87,73.7a38.93,38.93,0,0,1-11-20.3l-.81-3.79A13,13,0,0,0,179,43.54ZM78.49,133.35,64.38,154.52a12.73,12.73,0,0,0,2.2,1.77L77,162.94v0a48,48,0,0,0,9.73,4.85v0a47.44,47.44,0,0,0,10.55,2.48l27.91,3.32a87.31,87.31,0,0,1,36,12.12l12.12,7.13,10.25-24.07-9.24-5.45a114.3,114.3,0,0,0-46.09-15.57l-27.9-3.32a22.27,22.27,0,0,1-4.87-1.06v0A21.88,21.88,0,0,1,91,141.09H91l-10.44-6.68A13.56,13.56,0,0,0,78.49,133.35Z"/><path class="cls-3" d="M340.69,371.32l1.53-6.72a6.27,6.27,0,0,0-4.14-7.3l-70.56-23.52a75.88,75.88,0,0,0-60.43,4.47L131,377a63.3,63.3,0,0,1-28.61,7.2l-17.89.36A6.25,6.25,0,1,0,84.7,397l17.89-.36a75,75,0,0,0,34.07-8.49l76.13-38.73a63.85,63.85,0,0,1,50.85-3.83l77.05,25.69Zm4.86,1.61,3.46-.11a6.26,6.26,0,0,1,3.47,11.61l-71.63,43.95a63.77,63.77,0,0,0-25.94,29.82l-46.29,106a75.46,75.46,0,0,1-20.94,28.26l-24.13,20.63a25.41,25.41,0,0,0-4.2,4.53,24.5,24.5,0,0,0-2.86,5.4l-2,5.07a6.25,6.25,0,1,1-11.67-4.48l2-5.08a37.29,37.29,0,0,1,4.34-8.18,37.75,37.75,0,0,1,6.24-6.76l24.14-20.63a66.81,66.81,0,0,0,10.23-10.83,65.84,65.84,0,0,0,7.37-12.92l46.3-106a75.07,75.07,0,0,1,30.92-35.53l72.3-44.37-1.11-.38Zm-256.83-230v.44l4.46,1.59a28.09,28.09,0,0,0,6.34,1.41l27.9,3.33a110.41,110.41,0,0,1,22.52,5,111.91,111.91,0,0,1,21,9.7l41.27,24.3A69.41,69.41,0,0,1,246,236.19l4.13,20.64a56.66,56.66,0,0,0,29.78,40.28l44.7,24.07a6.27,6.27,0,0,1-5.93,11L274,308.15a69.63,69.63,0,0,1-36.19-48.87l-4.13-20.64a56.7,56.7,0,0,0-27.8-39.19l-41.28-24.3a94.3,94.3,0,0,0-38.64-13l-27.9-3.32A41.5,41.5,0,0,1,89,156.7l-1.75-.63A41.32,41.32,0,0,1,82,153.43l-11.79-7.55a6.24,6.24,0,0,1,6.68-10.54l11.83,7.57ZM334,289.53l-45-51.87a44.92,44.92,0,0,1-11.36-32.15l.55-15.72a57.09,57.09,0,0,0-17.1-43.6l-72-72.48a47.9,47.9,0,0,1-8.16-10.83,47.93,47.93,0,0,1-4.63-12.81l-.81-3.79a6.27,6.27,0,0,0-12.28,2.57l.81,3.79a60.26,60.26,0,0,0,5.85,16.14,60.46,60.46,0,0,0,10.36,13.76l72,72.48a44.91,44.91,0,0,1,13.48,34.42l-.55,15.73a56.91,56.91,0,0,0,14.38,40.66l45,51.87a6.25,6.25,0,0,0,9.47-8.17Zm12.4-27.27-19.45-33.71A20.36,20.36,0,0,1,332,202.23l2.51-2a32.66,32.66,0,0,0,9.93-39L332.6,133.65a6.28,6.28,0,1,0-11.54,5l11.88,27.65a20.19,20.19,0,0,1-6.15,24.14l-2.51,2a32.8,32.8,0,0,0-8.18,42.38l19.45,33.7a6.24,6.24,0,0,0,10.83-6.19Zm43-36.74-14.81-23.78a6.27,6.27,0,1,0-10.66,6.62l14.82,23.78a6.27,6.27,0,0,0,10.65-6.62Z"/><path class="cls-4" d="M180.44,351.82,131,377a63.3,63.3,0,0,1-28.61,7.2l-17.89.36a5.46,5.46,0,0,0-.58,0l-.1,12.4a7,7,0,0,0,.92.05l17.89-.36a75,75,0,0,0,34.07-8.49l44.93-22.86-1.15-13.51Zm-5.2-306.39-11.5,5.87.28,1.34a60.26,60.26,0,0,0,5.85,16.14,60.46,60.46,0,0,0,10.36,13.76l36.16,36.4,8.66-9-36-36.2a47.9,47.9,0,0,1-8.16-10.83,47.93,47.93,0,0,1-4.63-12.81l-.81-3.79a8.29,8.29,0,0,0-.25-.85Zm-98.16,90-6.92,10.39,0,0L82,153.43a41.32,41.32,0,0,0,5.23,2.64l1.75.63a41.5,41.5,0,0,0,9.08,2.13l27.9,3.32a94.3,94.3,0,0,1,38.64,13l13,7.64,4.94-11.59-11.61-6.83a111.91,111.91,0,0,0-21-9.7,110.41,110.41,0,0,0-22.52-5l-27.9-3.33a28.09,28.09,0,0,1-6.34-1.41l-4.46-1.59v-.44l-11.64-7.45ZM227.75,520.37l-10.37-7.52-20.24,46.32a65.84,65.84,0,0,1-7.37,12.92,66.81,66.81,0,0,1-10.23,10.83L155.4,603.55a37.75,37.75,0,0,0-6.24,6.76,37.29,37.29,0,0,0-4.34,8.18l-2,5.08a6.25,6.25,0,1,0,11.67,4.48l2-5.07a24.5,24.5,0,0,1,2.86-5.4,25.41,25.41,0,0,1,4.2-4.53l24.13-20.63a75.46,75.46,0,0,0,20.94-28.26Z"/><path class="cls-5" d="M267.08,454.87a61.31,61.31,0,0,0-6,10.76l-13.57,31.05-20.92-17,10.68-24.44A86.31,86.31,0,0,1,248,436.87l19.06,18ZM237.13,353.8a59.46,59.46,0,0,0-21.29,6.39l-16.73,8.52-6-26.17L204,337a85.61,85.61,0,0,1,27.78-8.77l5.31,25.58Zm12.93-223.52-19.71,17,17.08,17.2a43.08,43.08,0,0,1,3.1,3.45l20.26-16.27a72.32,72.32,0,0,0-4.94-5.5l-15.79-15.9ZM202,179.59l-14.42,21.63,14.9,8.77a51.75,51.75,0,0,1,16.19,14.61c.69,1,1.35,2,2,3L233,201.27a80,80,0,0,0-17.39-13.66Z"/><path class="cls-6" d="M232.24,330.21a79.63,79.63,0,0,0-25.15,8l-13.38,6.81,2.89,12.64,16.19-8.24a67,67,0,0,1,22-6.92l-2.56-12.33ZM247.48,132.5,238,140.7,252.21,155A48.93,48.93,0,0,1,258,162l9.79-7.86a63.72,63.72,0,0,0-6.69-7.92l-13.6-13.69Zm-47,49.3-6.94,10.41,12.31,7.24A58.88,58.88,0,0,1,224.14,216c.39.55.78,1.12,1.15,1.68l6-12.85a72.38,72.38,0,0,0-19.16-16.12l-11.66-6.87Zm30,301.05L240.56,491l14.35-32.84a70,70,0,0,1,5.26-9.86l-9.26-8.74a82.35,82.35,0,0,0-7.47,13.61Z"/><path class="cls-7" d="M217.49,565.4l-2.71,6.19a84.2,84.2,0,0,1-9.56,16.69,82.17,82.17,0,0,1-8.89,10.12L166,590.34l9.12-7.8a58.87,58.87,0,0,0,9.2-9.73,58.18,58.18,0,0,0,6.61-11.6l1.22-2.78,25.3,7Zm-49.8-180.71-28,14.24q-3.3,1.68-6.58,3l-2.67-27.53,35.26-17.94,2,28.2Zm27.19-310-19.71,17,.28.29,20.77,20.91,20.36-16.36-21.7-21.86Zm-72.12,72.37-16.19,24.28,18.6,2.21a92.37,92.37,0,0,1,18.68,4.08q2.91,1,5.77,2.19l11-23.51c-2.83-1.23-5.68-2.32-8.58-3.3a117.19,117.19,0,0,0-23.87-5.3Z"/><path class="cls-8" d="M165.91,359.2,131,377l-.24.12L132,390.39q2.34-1,4.65-2.2l30.2-15.37-1-13.62ZM192.3,76.94l-9.49,8.2,21.3,21.45,9.81-7.88L192.3,76.94Zm-70.8,72-7.81,11.72L126,162.15a98.78,98.78,0,0,1,20,4.39,89.45,89.45,0,0,1,8.33,3.28l5.32-11.31a102,102,0,0,0-9.71-3.84,110.41,110.41,0,0,0-22.52-5L121.5,149Zm48.21,442.35,14.69,3.91,3.28-2.81a75.46,75.46,0,0,0,20.94-28.26l.47-1.08-12.19-3.35a65.8,65.8,0,0,1-7.13,12.36,66.81,66.81,0,0,1-10.23,10.83Z"/><path class="cls-7" d="M179.89,612.68l-12,10.23a18.48,18.48,0,0,0-3.08,3.3,17.76,17.76,0,0,0-1.71,3l-25.26-6.72.67-1.74a44.14,44.14,0,0,1,5.14-9.64,42.61,42.61,0,0,1,6-6.78l30.21,8.31ZM182,49.15,158,61.35A65.31,65.31,0,0,0,164,76.72l.58,1L188.6,67.31c-.63-1-1.22-1.91-1.75-2.9a40.74,40.74,0,0,1-4-11l-.81-3.79c0-.15-.07-.31-.11-.46ZM87.39,138.81,73,160.39l4,2.55v0a48,48,0,0,0,9.73,4.85v0c.87.31,1.73.59,2.6.85l11.36-24.17-.35,0a22.27,22.27,0,0,1-4.87-1.06v0A21.88,21.88,0,0,1,91,141.09H91l-3.57-2.28Zm8.28,243.52-.21,26,7.27-.14a88.46,88.46,0,0,0,14.9-1.51l-1.11-26.43-1.07.28a58.3,58.3,0,0,1-13.23,1.71Z"/><path class="cls-8" d="M116.61,382.4a66.43,66.43,0,0,1-14.26,1.79l-6.69.14-.1,12.49,7-.14a80.76,80.76,0,0,0,14.56-1.55l-.54-12.73Zm60.1-330.57L165.3,57.65a57.8,57.8,0,0,0,4.57,11.13A56,56,0,0,0,173.11,74l11.77-5.11a45.13,45.13,0,0,1-3.95-6,46.69,46.69,0,0,1-4.22-11.05ZM85.87,141.09l-6.93,10.38,3.06,2a41.32,41.32,0,0,0,5.23,2.64l1.75.63a42,42,0,0,0,5.23,1.49l5.55-11.81-.24,0a28.09,28.09,0,0,1-6.34-1.41l-4.46-1.59v-.44l-2.85-1.82Zm56.88,482.74,12.15,3.23,1.59-4.08a24.5,24.5,0,0,1,2.86-5.4,25.41,25.41,0,0,1,4.2-4.53l4.31-3.68-14.47-4a36.21,36.21,0,0,0-4.23,4.92,37.29,37.29,0,0,0-4.34,8.18l-2,5.08Z"/><path class="cls-1" d="M392.41,384.76c59.1,0,107,70.65,107,129.76s-82.37,107-107,107-107-47.91-107-107S333.31,384.76,392.41,384.76Z"/><path class="cls-9" d="M397.25,411.79c50,0,90.46,59.73,90.46,109.69s-69.63,90.45-90.46,90.45-90.46-40.5-90.46-90.45S347.29,411.79,397.25,411.79Z"/><path class="cls-10" d="M409.42,440.22c40.64,0,73.59,48.59,73.59,89.24s-56.65,73.59-73.59,73.59-73.6-32.95-73.6-73.59S368.77,440.22,409.42,440.22Z"/><path class="cls-11" d="M428.69,498c23,0,41.59,27.45,41.59,50.41S438.27,590,428.69,590s-41.58-18.61-41.58-41.58S405.73,498,428.69,498Z"/><path class="cls-12" d="M392.41,407.94c48,0,87.19-41.95,87.19-93.39s-39.17-93.39-87.19-93.39-87.18,42-87.18,93.39S344.39,407.94,392.41,407.94Z"/><path class="cls-10" d="M392.41,401.48c39.21,0,71.19-34.26,71.19-76.26S431.62,249,392.41,249s-71.19,34.25-71.19,76.25S353.2,401.48,392.41,401.48Z"/><path class="cls-13" d="M392.41,393.82c27.75,0,50.37-24.23,50.37-53.95s-22.62-54-50.37-54S342,310.15,342,339.87,364.67,393.82,392.41,393.82Z"/></svg>