<svg id="svg7749" xmlns="http://www.w3.org/2000/svg" xmlns:xlink="http://www.w3.org/1999/xlink" viewBox="0 0 220.4 332.82"><defs><style>.cls-1,.cls-2,.cls-3,.cls-4{fill:none;}.cls-1,.cls-10,.cls-12,.cls-13,.cls-2,.cls-3,.cls-4,.cls-5,.cls-6,.cls-7,.cls-9{stroke:#000;}.cls-1{stroke-width:2.42px;}.cls-2{stroke-width:1.91px;}.cls-13,.cls-15,.cls-3,.cls-5,.cls-8,.cls-9{stroke-linecap:round;}.cls-3{stroke-width:1.16px;}.cls-4{stroke-width:3.18px;}.cls-5{stroke-linejoin:round;stroke-width:5.4px;}.cls-6,.cls-7{fill:#444645;}.cls-12,.cls-6{stroke-width:0.77px;}.cls-7{stroke-width:0.42px;}.cls-8{stroke:#fff;stroke-width:0.6px;}.cls-10,.cls-9{fill:#fff;}.cls-13,.cls-9{stroke-width:0.2px;}.cls-10{stroke-width:0.15px;}.cls-11{opacity:0.52;fill:url(#radial-gradient);}.cls-11,.cls-14,.cls-16{isolation:isolate;}.cls-12,.cls-14{fill:#3d454a;}.cls-13,.cls-15{fill:#192522;}.cls-14{opacity:0.8;}.cls-15{stroke:#adacac;stroke-width:0.08px;}.cls-16{opacity:0.47;fill:url(#radial-gradient-2);}</style><radialGradient id="radial-gradient" cx="802.32" cy="-806.5" r="93.06" gradientTransform="matrix(0.16, 0, 0, -0.18, -15.76, 25.65)" gradientUnits="userSpaceOnUse"><stop offset="0" stop-color="#fff"/><stop offset="1" stop-color="#fff" stop-opacity="0"/></radialGradient><radialGradient id="radial-gradient-2" cx="244.13" cy="-387.25" r="93.13" gradientTransform="matrix(0.32, 0.02, 0.02, -0.36, 42.74, -31.91)" xlink:href="#radial-gradient"/></defs><title>spider 09</title><g id="layer1"><g id="g7591"><g id="g7523"><g id="g7487"><g id="g13089"><path id="path10147" class="cls-1" d="M44.42,159.72l-34.2-45.5"/><path id="path10149" class="cls-2" d="M9.72,114.41l13.6-55.29"/><path id="path10151" class="cls-3" d="M46.82,48.12,22.92,59.19"/><path id="path10155" class="cls-4" d="M101.52,162.11l-56.9-2.46"/><path id="path10157" class="cls-5" d="M43.6,159.2c-.15-.1.3,0,1,.21a10.83,10.83,0,0,1,1.56.57s0,.05,0,0c.15.1-.3,0-1-.2a10.94,10.94,0,0,1-1.56-.58S43.55,159.2,43.6,159.2Z"/><path id="path10161" class="cls-5" d="M9.91,113.28c0-.13.17.16.44.65a8.87,8.87,0,0,1,.52,1.13s0,0,0,0c0,.14-.17-.16-.44-.65a6.75,6.75,0,0,1-.52-1.13S9.88,113.25,9.91,113.28Z"/><path id="path10165" class="cls-5" d="M23,59.73c-.08.05.08-.15.37-.44a5.48,5.48,0,0,1,.69-.63s0,0,0,0-.07.15-.36.44a5.48,5.48,0,0,1-.69.63S23,59.76,23,59.73Z"/></g><g id="g13098"><path id="path12751" class="cls-1" d="M50.1,128.92,47.4,72.06"/><path id="path12753" class="cls-2" d="M47.4,74.38,61,19.08"/><path id="path12755" class="cls-3" d="M79.9.64,61,19.06"/><path id="path12757" class="cls-4" d="M104.2,154.69l-51.6-24"/><path id="path12759" class="cls-5" d="M50.52,128.55c-.06-.17.23.19.65.79a11.23,11.23,0,0,1,.87,1.42c0,.05,0,.06,0,0,.06.18-.24-.18-.66-.79a10.22,10.22,0,0,1-.86-1.41C50.46,128.53,50.48,128.52,50.52,128.55Z"/><path id="path12761" class="cls-5" d="M48,70.93c.08-.11,0,.24-.13.78a6,6,0,0,1-.4,1.18s0,0,0,0,0-.24.13-.77a6,6,0,0,1,.4-1.18S48,70.89,48,70.93Z"/><path id="path12763" class="cls-5" d="M60.55,19.77c-.09.05.07-.15.36-.45a6,6,0,0,1,.69-.62s0,0,0,0-.07.15-.36.45a6,6,0,0,1-.69.62S60.53,19.79,60.55,19.77Z"/></g></g><g id="g12955"><path id="path12957" class="cls-1" d="M36.07,169.06l-34.3,45.5"/><path id="path12959" class="cls-2" d="M1.37,214.37l13.5,55.29"/><path id="path12961" class="cls-3" d="M38.47,280.66l-24-11.08"/><path id="path12963" class="cls-4" d="M93.07,166.67l-56.9,2.46"/><path id="path12965" class="cls-5" d="M35.15,169.57c-.15.1.3,0,1-.2a10.46,10.46,0,0,0,1.56-.58s0,0,0,0c.16-.1-.3,0-1,.21a10.83,10.83,0,0,0-1.56.57S35.1,169.58,35.15,169.57Z"/><path id="path12967" class="cls-5" d="M1.46,215.56c0,.13.18-.16.44-.66a6.31,6.31,0,0,0,.52-1.12s0-.05,0,0c0-.13-.18.16-.44.65a6.63,6.63,0,0,0-.52,1.13S1.43,215.58,1.46,215.56Z"/><path id="path12969" class="cls-5" d="M14.52,269.05c-.09-.05.07.15.36.44a5.48,5.48,0,0,0,.69.63s0,0,0,0-.08-.15-.37-.45a6.21,6.21,0,0,0-.68-.62S14.51,269,14.52,269.05Z"/><path id="path12971" class="cls-1" d="M46.57,203.79l-2.7,56.87"/><path id="path12973" class="cls-2" d="M43.87,258.34l13.6,55.29"/><path id="path12975" class="cls-3" d="M76.37,332.07l-18.9-18.41"/><path id="path12977" class="cls-4" d="M100.77,178l-51.7,24"/><path id="path12979" class="cls-5" d="M47,204.12c-.06.17.24-.18.66-.79a9.71,9.71,0,0,0,.86-1.42s0-.06,0,0c.05-.18-.24.18-.66.79a9.8,9.8,0,0,0-.86,1.41S47,204.15,47,204.12Z"/><path id="path12981" class="cls-5" d="M44.3,261.34c.08.11,0-.24-.12-.78a7.5,7.5,0,0,0-.4-1.17s0,0,0,0,0,.24.13.78a7.5,7.5,0,0,0,.4,1.17S44.3,261.38,44.3,261.34Z"/><path id="path12983" class="cls-5" d="M57,312.91c-.09-.05.07.15.36.44a5.48,5.48,0,0,0,.69.63s0,0,0,0-.08-.15-.37-.45a6.21,6.21,0,0,0-.68-.62S57,312.88,57,312.91Z"/></g></g><g id="g7557"><g id="g7505"><g id="g13181"><path id="path12765" class="cls-1" d="M175.24,160.64l34.2-45.49"/><path id="path12767" class="cls-2" d="M209.94,115.34,196.34,60"/><path id="path12769" class="cls-3" d="M172.84,49l23.9,11.08"/><path id="path12771" class="cls-4" d="M118.14,163l56.9-2.46"/><path id="path12773" class="cls-5" d="M176.06,160.13c.15-.1-.3,0-1,.21a9.7,9.7,0,0,0-1.56.57s0,0,0,0c-.15.1.3,0,1-.21a11.34,11.34,0,0,0,1.56-.57S176.11,160.12,176.06,160.13Z"/><path id="path12775" class="cls-5" d="M209.76,114.17c0-.14-.17.16-.44.65a6.75,6.75,0,0,0-.52,1.13s0,0,0,0c0,.13.17-.16.44-.65a7.59,7.59,0,0,0,.52-1.13S209.79,114.14,209.76,114.17Z"/><path id="path12777" class="cls-5" d="M196.74,60.66c.08,0-.08-.15-.37-.45a4.49,4.49,0,0,0-.69-.62s0,0,0,0,.07.15.36.45a6,6,0,0,0,.69.62S196.75,60.68,196.74,60.66Z"/></g><path id="path12785" class="cls-4" d="M122.3,167.31l43.3-37"/><g id="g13121"><path id="path12779" class="cls-1" d="M167.1,128.87,169.8,72"/><path id="path12781" class="cls-2" d="M169.8,74.32,156.2,19"/><path id="path12783" class="cls-3" d="M137.3.58,156.2,19"/><path id="path12787" class="cls-5" d="M166.73,128.55c.06-.17-.24.19-.66.79a10.76,10.76,0,0,0-.86,1.42c0,.05,0,.06,0,0-.06.18.24-.18.66-.79a10.22,10.22,0,0,0,.86-1.41C166.78,128.53,166.77,128.52,166.73,128.55Z"/><path id="path12789" class="cls-5" d="M169.39,70.93c-.07-.11,0,.24.13.78a6,6,0,0,0,.4,1.18s0,0,0,0,0-.24-.13-.77a6,6,0,0,0-.4-1.18S169.39,70.89,169.39,70.93Z"/><path id="path12791" class="cls-5" d="M156.68,19.77c.09.05-.07-.15-.36-.45a6,6,0,0,0-.69-.62s0,0,0,0,.07.15.36.45a6,6,0,0,0,.69.62S156.7,19.79,156.68,19.77Z"/></g></g><g id="g12985"><path id="path12987" class="cls-1" d="M184.43,169.24l34.2,45.49"/><path id="path12989" class="cls-2" d="M219,214.54l-13.5,55.3"/><path id="path12991" class="cls-3" d="M181.93,280.84l24-11.08"/><path id="path12993" class="cls-4" d="M127.33,166.85l56.9,2.46"/><path id="path12995" class="cls-5" d="M185.25,169.75c.15.1-.3,0-1-.2a10.19,10.19,0,0,1-1.55-.58c-.05,0,0,0,0,0-.15-.1.3,0,1,.21a11,11,0,0,1,1.55.57C185.31,169.74,185.3,169.76,185.25,169.75Z"/><path id="path12997" class="cls-5" d="M218.93,215.72c0,.13-.17-.16-.44-.66a6.31,6.31,0,0,1-.52-1.12s0-.05,0,0c0-.13.18.16.45.65a7.18,7.18,0,0,1,.51,1.13S219,215.74,218.93,215.72Z"/><path id="path12999" class="cls-5" d="M205.9,269.23c.09-.05-.07.15-.36.44a5.48,5.48,0,0,1-.69.63s0,0,0,0,.08-.15.37-.45a6,6,0,0,1,.69-.62S205.92,269.2,205.9,269.23Z"/><path id="path13001" class="cls-1" d="M173.83,204l2.7,56.87"/><path id="path13003" class="cls-2" d="M176.53,258.52l-13.6,55.29"/><path id="path13005" class="cls-3" d="M144,332.25l18.9-18.41"/><path id="path13007" class="cls-4" d="M119.63,178.2l51.7,24"/><path id="path13009" class="cls-5" d="M173.44,204.28c.06.17-.24-.18-.66-.79a10.76,10.76,0,0,1-.86-1.42s0-.06,0,0c0-.18.24.18.66.79a11.37,11.37,0,0,1,.87,1.41C173.49,204.3,173.48,204.31,173.44,204.28Z"/><path id="path13011" class="cls-5" d="M176,261.7c-.08.11,0-.24.13-.78a5.79,5.79,0,0,1,.4-1.17s0,0,0,0,0,.24-.13.78a6.53,6.53,0,0,1-.4,1.17S176,261.74,176,261.7Z"/><path id="path13013" class="cls-5" d="M163.39,313.07c.09-.05-.07.15-.36.44a5.48,5.48,0,0,1-.69.63s0,0,0,0,.08-.15.37-.45a6,6,0,0,1,.69-.62S163.41,313,163.39,313.07Z"/></g></g><g id="g7404"><path id="path10273" class="cls-6" d="M89.4,155.45c3.8,3.85.6,24.25,3.9,27.21,5.8,8.23,9.8,13.8,20.3,15.31,11.4-2.29,12.9-8.15,18.7-16.33,3.1-3.1-1-23.33,2.7-27.36-2.9-15.39-13.2-21.45-24.2-20.71S88,141.85,89.4,155.45Z"/><g id="g7323"><path id="path10267" class="cls-7" d="M116.2,210.85c-1.2-1.08,7.9-5.92,7.6-11.12s-7.5-7.18-8.6-9.68,2.1-.16,4.1-.32,2.5-2.07,4.1-.32,1.3,3.67,2.5,7.33,4.9,3.81,2.4,7.34S117.3,211.94,116.2,210.85Z"/><path id="path10269" class="cls-7" d="M110.9,211.5c.9-1.24-8.7-4.68-9.3-9.86s6.4-8.22,7.2-10.86-2.1.15-4.2.3-2.7-1.69-4.1.29-.7,3.81-1.3,7.62-4.3,4.49-1.4,7.62,12.1,6.14,13.1,4.89Z"/><g id="g10275"><path id="path10277" class="cls-8" d="M115.2,195.62a1.86,1.86,0,0,1,3.52-1h0a1.86,1.86,0,0,1-3.53,1Z"/><path id="path10279" class="cls-8" d="M116.89,193.62a1.86,1.86,0,0,1,3.52-1h0a1.86,1.86,0,0,1-3.53,1Z"/><path id="path10281" class="cls-8" d="M114.65,193.43a1.86,1.86,0,0,1,3.53-1v0a1.72,1.72,0,0,1-1.32,2,1.74,1.74,0,0,1-2.21-1Z"/><path id="path10283" class="cls-8" d="M118.14,191.64a1.86,1.86,0,0,1,3.52-1v0a1.86,1.86,0,0,1-3.53,1Z"/><path id="path10285" class="cls-8" d="M116.55,191.5a1.86,1.86,0,0,1,3.53-1h0a1.86,1.86,0,0,1-3.52,1Z"/><path id="path10287" class="cls-8" d="M114.4,191.1a1.86,1.86,0,0,1,3.53-1h0a1.86,1.86,0,0,1-3.52,1Z"/><path id="path10289" class="cls-8" d="M119,189a1.72,1.72,0,0,1,1.32-2,1.74,1.74,0,0,1,2.21,1h0a1.86,1.86,0,0,1-3.53,1Z"/><path id="path10291" class="cls-8" d="M116.81,188.85a1.86,1.86,0,0,1,3.52-1h0a1.86,1.86,0,0,1-3.53,1Z"/><path id="path10293" class="cls-8" d="M114.36,188.81a1.86,1.86,0,0,1,3.53-1v0a1.86,1.86,0,0,1-3.52,1Z"/><path id="path10295" class="cls-8" d="M119.61,186.41a1.86,1.86,0,0,1,3.53-1h0a1.86,1.86,0,0,1-3.52,1Z"/><path id="path10297" class="cls-8" d="M116.54,186.44a1.86,1.86,0,0,1,3.52-1h0a1.86,1.86,0,0,1-3.53,1Z"/><path id="path10299" class="cls-8" d="M113.87,186.63a1.86,1.86,0,0,1,3.53-1v0a1.86,1.86,0,0,1-3.53,1Z"/><path id="path10301" class="cls-8" d="M120.05,184.29a1.86,1.86,0,0,1,3.52-1v0a1.86,1.86,0,0,1-3.53,1Z"/><path id="path10303" class="cls-8" d="M117.11,184.34a1.86,1.86,0,0,1,3.52-1v0a1.86,1.86,0,0,1-3.53,1Z"/><path id="path10305" class="cls-8" d="M114.05,184.34a1.86,1.86,0,0,1,3.53-1v0a1.86,1.86,0,0,1-3.52,1Z"/><path id="path10307" class="cls-8" d="M120.37,182a1.86,1.86,0,0,1,3.53-1v0a1.86,1.86,0,0,1-3.52,1Z"/><path id="path10309" class="cls-8" d="M117.36,181.9a1.86,1.86,0,0,1,3.53-1h0a1.86,1.86,0,0,1-3.52,1Z"/><path id="path10311" class="cls-8" d="M114.26,182.28a1.86,1.86,0,0,1,3.52-1h0a1.86,1.86,0,0,1-3.53,1Z"/></g><g id="g10313"><path id="path10315" class="cls-8" d="M112.89,195.51a1.71,1.71,0,0,0-1.4-2,1.73,1.73,0,0,0-2.17,1.08v0a1.86,1.86,0,0,0,3.57.87Z"/><path id="path10317" class="cls-8" d="M111.12,193.59a1.86,1.86,0,0,0-3.57-.88v0a1.86,1.86,0,0,0,3.57.87Z"/><path id="path10319" class="cls-8" d="M113.34,193.29a1.86,1.86,0,0,0-3.57-.88v0a1.86,1.86,0,0,0,3.57.87Z"/><path id="path10321" class="cls-8" d="M109.78,191.66a1.86,1.86,0,0,0-3.57-.88v0a1.7,1.7,0,0,0,1.4,1.95,1.72,1.72,0,0,0,2.17-1.08Z"/><path id="path10323" class="cls-8" d="M111.35,191.44a1.86,1.86,0,0,0-3.57-.87h0a1.86,1.86,0,0,0,3.57.88Z"/><path id="path10325" class="cls-8" d="M113.48,191a1.7,1.7,0,0,0-1.4-1.95,1.72,1.72,0,0,0-2.17,1.08h0a1.86,1.86,0,0,0,3.57.88Z"/><path id="path10327" class="cls-8" d="M108.77,189.07a1.86,1.86,0,0,0-3.57-.88h0a1.86,1.86,0,0,0,3.57.88Z"/><path id="path10329" class="cls-8" d="M111,188.81a1.86,1.86,0,0,0-3.57-.88v0a1.86,1.86,0,0,0,3.57.87Z"/><path id="path10331" class="cls-8" d="M113.42,188.66a1.86,1.86,0,0,0-3.57-.88v0a1.71,1.71,0,0,0,1.41,2,1.73,1.73,0,0,0,2.16-1.08Z"/><path id="path10333" class="cls-8" d="M108.07,186.51a1.86,1.86,0,0,0-3.57-.88h0a1.71,1.71,0,0,0,1.4,2,1.73,1.73,0,0,0,2.17-1.08Z"/><path id="path10335" class="cls-8" d="M111.15,186.4a1.86,1.86,0,0,0-3.57-.88v0a1.86,1.86,0,0,0,3.57.87Z"/><path id="path10337" class="cls-8" d="M113.82,186.46a1.86,1.86,0,0,0-3.57-.87h0a1.86,1.86,0,0,0,3.57.88Z"/><path id="path10339" class="cls-8" d="M107.54,184.4a1.86,1.86,0,0,0-3.57-.88v0a1.86,1.86,0,0,0,3.57.87Z"/><path id="path10341" class="cls-8" d="M110.48,184.32a1.86,1.86,0,0,0-3.57-.88v0a1.72,1.72,0,0,0,1.4,2,1.74,1.74,0,0,0,2.17-1.09Z"/><path id="path10343" class="cls-8" d="M113.53,184.18a1.86,1.86,0,0,0-3.57-.87h0a1.86,1.86,0,0,0,3.57.88Z"/><path id="path10345" class="cls-8" d="M107.11,182.12a1.86,1.86,0,0,0-3.57-.88v0a1.86,1.86,0,0,0,3.57.87Z"/><path id="path10347" class="cls-8" d="M110.12,181.9a1.86,1.86,0,0,0-3.57-.88h0a1.86,1.86,0,0,0,3.57.88Z"/><path id="path10349" class="cls-8" d="M113.24,182.14a1.86,1.86,0,0,0-3.57-.88v0a1.86,1.86,0,0,0,3.57.87Z"/></g><g id="g10351"><path id="path10353" class="cls-9" d="M130.82,169c-15.77-2.3-18.19-2.14-37.11,1.45.55-4.56,1.54-8.62.33-11.3,17.78,1.36,17,1.19,38-2C130.5,162.07,130,165.52,130.82,169Z"/><path id="path10355" class="cls-10" d="M112.3,167.1c.42.49,1.63.57,1.76,0a7.47,7.47,0,0,0-.54-3.52c-.43-.5-.24.82-1.17,1.52A1.64,1.64,0,0,0,112.3,167.1Z"/><path id="path10357" class="cls-10" d="M111.92,167.2c-.4.51-1.6.64-1.76.09a7.74,7.74,0,0,1,.38-3.54c.41-.52.29.81,1.24,1.47A1.62,1.62,0,0,1,111.92,167.2Z"/><path id="path10359" class="cls-10" d="M113.2,160.07c.4-.51,1.6-.64,1.76-.08a7.52,7.52,0,0,1-.38,3.54c-.41.51-.28-.81-1.24-1.48A1.62,1.62,0,0,1,113.2,160.07Z"/><path id="path10361" class="cls-10" d="M112.83,160.27c-.43-.5-1.63-.58-1.77,0a7.56,7.56,0,0,0,.54,3.51c.43.51.25-.82,1.18-1.52A1.63,1.63,0,0,0,112.83,160.27Z"/><path id="path10363" class="cls-10" d="M108.26,167.4c.43.49,1.63.57,1.77,0a7.58,7.58,0,0,0-.54-3.51c-.43-.5-.25.82-1.17,1.52A1.64,1.64,0,0,0,108.26,167.4Z"/><path id="path10365" class="cls-10" d="M107.85,167.68c-.41.52-1.6.65-1.76.09a7.51,7.51,0,0,1,.38-3.54c.4-.51.28.81,1.24,1.47A1.64,1.64,0,0,1,107.85,167.68Z"/><path id="path10367" class="cls-10" d="M116.44,167.17c.42.49,1.63.57,1.76,0a7.58,7.58,0,0,0-.54-3.51c-.43-.5-.24.82-1.17,1.52A1.64,1.64,0,0,0,116.44,167.17Z"/><path id="path10369" class="cls-10" d="M116.06,167.18c-.4.51-1.6.64-1.76.08a7.64,7.64,0,0,1,.38-3.54c.41-.51.28.81,1.24,1.47A1.64,1.64,0,0,1,116.06,167.18Z"/><path id="path10371" class="cls-10" d="M120.53,167.44c.43.5,1.63.58,1.77,0a7.62,7.62,0,0,0-.54-3.52c-.43-.5-.25.82-1.18,1.53A1.63,1.63,0,0,0,120.53,167.44Z"/><path id="path10373" class="cls-10" d="M120.15,167.18c-.4.51-1.6.64-1.76.08a7.52,7.52,0,0,1,.38-3.54c.41-.51.28.81,1.24,1.48A1.62,1.62,0,0,1,120.15,167.18Z"/><path id="path10375" class="cls-10" d="M104.37,168c.43.5,1.63.57,1.77,0a7.6,7.6,0,0,0-.54-3.52c-.43-.5-.25.82-1.18,1.52A1.64,1.64,0,0,0,104.37,168Z"/><path id="path10377" class="cls-10" d="M104.09,168.27c-.4.52-1.6.65-1.76.09a7.77,7.77,0,0,1,.38-3.54c.41-.52.29.81,1.25,1.47A1.64,1.64,0,0,1,104.09,168.27Z"/><path id="path10379" class="cls-10" d="M124.58,167.85c.43.5,1.64.58,1.77,0a7.58,7.58,0,0,0-.54-3.52c-.43-.5-.25.82-1.18,1.52A1.63,1.63,0,0,0,124.58,167.85Z"/><path id="path10381" class="cls-10" d="M124.2,167.54c-.4.52-1.6.65-1.76.09a7.51,7.51,0,0,1,.38-3.54c.4-.51.28.81,1.24,1.47A1.63,1.63,0,0,1,124.2,167.54Z"/><path id="path10383" class="cls-10" d="M100.62,168.63c.43.49,1.63.57,1.76,0a7.56,7.56,0,0,0-.54-3.51c-.42-.51-.24.82-1.17,1.52A1.64,1.64,0,0,0,100.62,168.63Z"/><path id="path10385" class="cls-10" d="M100.07,169c-.41.52-1.61.65-1.76.09a7.51,7.51,0,0,1,.38-3.54c.4-.51.28.81,1.24,1.47A1.64,1.64,0,0,1,100.07,169Z"/><path id="path10387" class="cls-10" d="M96.37,169.5c.42.5,1.63.57,1.76,0a7.6,7.6,0,0,0-.54-3.52c-.43-.5-.25.82-1.18,1.53A1.63,1.63,0,0,0,96.37,169.5Z"/><path id="path10389" class="cls-10" d="M95.77,169.83c-.4.52-1.61.65-1.76.09a7.45,7.45,0,0,1,.38-3.53c.4-.52.28.81,1.24,1.46A1.64,1.64,0,0,1,95.77,169.83Z"/><path id="path10391" class="cls-10" d="M128.64,168.55c.43.5,1.64.57,1.77,0a7.58,7.58,0,0,0-.54-3.52c-.43-.5-.25.82-1.18,1.52A1.64,1.64,0,0,0,128.64,168.55Z"/><path id="path10393" class="cls-10" d="M128.3,168.09c-.4.52-1.6.65-1.76.09a7.71,7.71,0,0,1,.38-3.53c.41-.52.29.81,1.24,1.46A1.63,1.63,0,0,1,128.3,168.09Z"/><path id="path10395" class="cls-10" d="M121.36,159.11c.4-.52,1.6-.64,1.76-.09a7.77,7.77,0,0,1-.38,3.54c-.41.52-.29-.81-1.25-1.47A1.64,1.64,0,0,1,121.36,159.11Z"/><path id="path10397" class="cls-10" d="M120.9,159.4c-.43-.5-1.64-.58-1.77,0a7.62,7.62,0,0,0,.54,3.52c.43.49.25-.83,1.17-1.53A1.63,1.63,0,0,0,120.9,159.4Z"/><path id="path10399" class="cls-10" d="M117.28,159.66c.4-.52,1.6-.64,1.76-.09a7.62,7.62,0,0,1-.38,3.54c-.41.52-.28-.81-1.24-1.47A1.62,1.62,0,0,1,117.28,159.66Z"/><path id="path10401" class="cls-10" d="M116.91,159.81c-.43-.5-1.63-.58-1.77,0a7.62,7.62,0,0,0,.54,3.52c.43.49.25-.82,1.17-1.53A1.61,1.61,0,0,0,116.91,159.81Z"/><path id="path10403" class="cls-10" d="M109.25,160.35c.41-.52,1.61-.65,1.77-.09a7.64,7.64,0,0,1-.39,3.54c-.4.52-.28-.81-1.24-1.48A1.64,1.64,0,0,1,109.25,160.35Z"/><path id="path10405" class="cls-10" d="M108.88,160.36c-.43-.5-1.63-.58-1.76,0a7.55,7.55,0,0,0,.53,3.51c.43.5.25-.82,1.18-1.52A1.63,1.63,0,0,0,108.88,160.36Z"/><path id="path10407" class="cls-10" d="M105.21,160.39c.41-.52,1.61-.65,1.76-.09a7.62,7.62,0,0,1-.37,3.54c-.41.52-.29-.81-1.25-1.47A1.62,1.62,0,0,1,105.21,160.39Z"/><path id="path10409" class="cls-10" d="M104.7,160.26c-.43-.49-1.63-.57-1.77,0a7.58,7.58,0,0,0,.54,3.51c.43.5.25-.82,1.17-1.52A1.64,1.64,0,0,0,104.7,160.26Z"/><path id="path10411" class="cls-10" d="M101.25,160.21c.41-.52,1.61-.65,1.77-.1a7.48,7.48,0,0,1-.38,3.54c-.41.52-.29-.81-1.24-1.46A1.64,1.64,0,0,1,101.25,160.21Z"/><path id="path10413" class="cls-10" d="M100.92,160c-.42-.5-1.63-.58-1.76,0a7.6,7.6,0,0,0,.54,3.52c.43.5.25-.82,1.17-1.53A1.63,1.63,0,0,0,100.92,160Z"/><path id="path10415" class="cls-10" d="M97.16,159.88c.41-.51,1.61-.64,1.76-.09a7.49,7.49,0,0,1-.38,3.54c-.4.52-.28-.81-1.24-1.47A1.62,1.62,0,0,1,97.16,159.88Z"/><path id="path10417" class="cls-10" d="M96.78,159.71c-.42-.5-1.63-.57-1.76,0a7.61,7.61,0,0,0,.53,3.52c.44.49.25-.82,1.18-1.53A1.63,1.63,0,0,0,96.78,159.71Z"/><path id="path10419" class="cls-10" d="M125.34,158.47c.4-.52,1.6-.65,1.76-.09a7.51,7.51,0,0,1-.38,3.54c-.4.52-.29-.81-1.24-1.47A1.62,1.62,0,0,1,125.34,158.47Z"/><path id="path10421" class="cls-10" d="M125,158.8c-.43-.5-1.64-.57-1.77,0a7.62,7.62,0,0,0,.54,3.52c.43.49.25-.82,1.18-1.53A1.63,1.63,0,0,0,125,158.8Z"/><path id="path10423" class="cls-10" d="M129.37,158c.4-.51,1.61-.64,1.76-.08a7.51,7.51,0,0,1-.38,3.54c-.41.51-.28-.81-1.24-1.47A1.64,1.64,0,0,1,129.37,158Z"/><path id="path10425" class="cls-10" d="M129,158.25c-.43-.5-1.64-.57-1.77,0a7.6,7.6,0,0,0,.54,3.52c.43.5.25-.82,1.17-1.53A1.61,1.61,0,0,0,129,158.25Z"/></g><path id="path10427" class="cls-11" d="M101.5,172a17.21,17.21,0,0,0,.1,3.34c1,1.21,3.1.43,4.5,1.88s.1,3.37,1.3,4.48,1.5.65,3.7,1.26a9.3,9.3,0,0,0,3.4,1.29c1.1,0,2.6-1.25,3.4-1.49,2.1-.7,2.5-.28,3.7-1.43s-.3-3,1.1-4.54,3.4-.82,4.4-2.07a10.37,10.37,0,0,0-.1-3c1.1-.15,1.9-.44,1.6-2.23-.3-2.68-1.5-3.86-2.4-8.23-1-5.25-4-10.59-12.4-10.45-7.7.14-12.9,5.08-12.6,10.85.2,3.47-1.5,5.72-1.8,8.57s1.7,1.18,3.4,1.82m21.9.16a6.94,6.94,0,0,1,2.2-.47"/></g></g><g id="g7314"><path id="path10431" class="cls-12" d="M77.2,122.87c5.5,21.38,20.5,32.23,35.4,32.88s29.7-8.9,34.7-28.31c3-.17,5.8-.83,5.5-5.63-.5-7.19-3.5-10.56-4.9-22.33-1.7-14.17-8.9-29-32-30.3C94.7,67.94,79.6,80,79.3,95.39c-.2,9.25-5.3,14.86-6.9,22.37s4.5,3.49,9.1,5.54m59.9,4.91a21.14,21.14,0,0,1,6.1-.79"/><path id="path10433" class="cls-13" d="M115.35,111.27a14.75,14.75,0,1,1,29.46,1.57h0a14.75,14.75,0,1,1-29.46-1.57Z"/><path id="path10435" class="cls-13" d="M80.85,109.39A14.75,14.75,0,1,1,110.31,111h0a14.75,14.75,0,1,1-29.46-1.57Z"/><path id="path10437" class="cls-14" d="M90.4,151.13c21.2,9.67,46.8,7.37,39.8-6.33-1.2-5.18-4.2-19.05-18.4-19.84-13-.74-21,13.27-21,18.87"/><path id="path10439" class="cls-15" d="M115.6,113.73A14.78,14.78,0,0,1,130.9,101a15,15,0,0,1,13.9,13c0-.48.1-1,.1-1.45A14.77,14.77,0,1,0,115.4,111,12.79,12.79,0,0,0,115.6,113.73Z"/><path id="path10441" class="cls-15" d="M81.1,111.85A14.76,14.76,0,0,1,96.4,99.17a15,15,0,0,1,13.9,12.93c0-.48.1-1,.1-1.45A14.72,14.72,0,1,0,81,109.08,12.76,12.76,0,0,0,81.1,111.85Z"/><path id="path10443" class="cls-16" d="M87.1,119.31c-.1,1.56-.8,6.13-.3,6.74,1.9,2.59,6.1,1.33,8.7,4.46s-.3,6.8,2,9.22,3,1.55,7.3,3.1c0,0,4.1,3,6.7,3.12,2.2.12,5.4-2.13,6.9-2.49,4.5-1.08,5.2-.18,7.6-2.32s0-6.12,3-8.95,7-1.14,9.1-3.51c.5-.55.3-4.32.4-6,2.2-.13,3.8-.6,3.6-4.24-.4-5.44-2.6-8-3.6-16.91C137.3,90.8,132,79.6,115.1,78.61c-15.6-.91-26.7,8.25-26.9,19.91-.2,7-3.9,11.27-5.1,17s3.3,2.63,6.7,4.18m43.9,3.65a15.72,15.72,0,0,1,4.5-.61"/></g></g></g></svg>