<svg id="svg2" xmlns="http://www.w3.org/2000/svg" viewBox="0 0 567.52 461.56"><defs><style>.cls-1{fill:none;}.cls-1,.cls-3{stroke:#000;}.cls-2{fill:#1a1a1a;}</style></defs><title>spider 12</title><g id="layer1"><path id="path3747" class="cls-1" d="M176.69,144.25c61.08-18.06,122.49-33,181.36-68.75,41.08,35,78.09,72.62,133.78,99.31-28.86,58.84-35.27,112.07-47,166.62C379.55,351.28,320.54,373.69,262,397c-37.51-45.53-93.86-79.72-145-109.33,30.08-40.85,55.44-93.42,63-141,58.26-12.8,123.07-18.83,172.7-48.89,37.74,29.77,66.65,63.89,112.79,85.25-26,51.44-27.89,97.24-34.27,146.49-58.69,9.66-113,28-164.91,51.27-32.65-37.07-63.57-77.28-109.37-103.39C182.33,242.06,192,203.2,197,161.13c49-9.71,104.89-13.95,149.53-41,30.54,26.67,53.85,59.23,93,72.92-17.36,43.29-21.44,82-25.54,125.32-52.59,7.76-98.8,24.38-144.59,43.48-26.16-31.35-51.18-64.79-90.38-89.62,20.45-30.4,30.43-64,37.59-96.56,40.73-8.23,84-11.6,124.75-35,25.41,21.52,41.63,51.35,77.76,60-14.4,35-23.67,65.6-22.21,100.63-45.73,7.78-79.21,22.74-122.66,41.87-19.5-27-40.15-55.55-70.46-76.05,20.81-20.08,24.75-50.72,28.2-79.47,33.9-5.59,68.65-3.93,102.54-26.49,22.05,16,36.56,41.65,64.85,47.2-11.22,26.61-18.54,52.09-16.14,81-40.08,5.28-66.45,16.68-104.25,33.33L223.53,259.4c11.32-19,15.35-41.31,20.5-62.38,28.64-4.62,59.79-5.28,86.31-20.51,18.25,13.4,31.08,35.71,52.88,39.69-11.15,20.26-16.48,40.34-11.87,62.85-34.75,2.73-53.26,13.35-88,27.34l-44.43-53.83c8-15.95,10.66-32.75,14.52-48.7,25.09-2.46,49.72-2,72.63-15.38,13.77,10.8,19.74,30.27,43.67,32.94-9.61,16.52-12.57,33.42-8.63,49.94-30.24,2.1-48.93,10.22-76.91,21.36l-30.77-44.44c11.73-10.82,11.39-23.36,12.82-34.18,20-.44,36.9,1.94,54.69-9.4,10,10.91,19.64,21.67,34.17,21.36a45.4,45.4,0,0,0-4.27,37.6c-26-.26-40.87,7.76-62.37,18.8l-21.37-37.6,11.11-23.07c15.77-.64,24.79,6,38.45-5.13l28.2,18c-7.28,6.55-6.35,14.81-2.56,21.36-19.66-2.49-29.91,4.78-49.56,13.67L279.06,242.3l6.83-13.67,31.62-3.42L334.6,238l-4.28,10.25L297,258.54,289.31,244l4.27-8.55,21.36-2.56,8.55,6.84v5.12l-24.78,2.57L297,243.15l6-4.27H315.8L313.23,244"/><path id="path3749" class="cls-1" d="M313.24,238,379,.5"/><path id="path3751" class="cls-1" d="M313.24,243.17,567,144.05"/><path id="path3753" class="cls-1" d="M323.49,242.31,492.68,380.74"/><path id="path3755" class="cls-1" d="M246.59,461.06l52.12-216.19L.5,313.23"/><path id="path3757" class="cls-1" d="M305.55,242.31,97.91,85.94"/><g id="g4618"><path id="path4586" class="cls-2" d="M330.16,246.53c4.06,16.35-3.57,32.32-17.05,35.67s-27.7-7.19-31.77-23.54,3.58-32.32,17.06-35.67S326.1,230.18,330.16,246.53Z"/><path id="path4588" class="cls-2" d="M311.06,212.17c1.43,5.74-4.09,12.05-12.33,14.1s-16.07-1-17.5-6.69,4.09-12.05,12.33-14.1S309.63,206.43,311.06,212.17Z"/><g id="g4596"><path id="path4592" class="cls-3" d="M318.6,227.09l25.9-21.32-4.25-24.85,6.17,26.78-26.8,23.45Z"/><path id="path4594" class="cls-3" d="M318.27,232.82l30.53-13.88,2.33-25.11-1,27.46L318.2,237Z"/></g><g id="g4600"><path id="path4602" class="cls-3" d="M283.37,235.84l-32.86-6.71-7.88-24,7.08,26.56,34.67,8.18Z"/><path id="path4604" class="cls-3" d="M286.34,240.75l-33.47,2-13.81-21.11,13.71,23.82,35.6-1.07Z"/></g><g id="g4606"><path id="path4608" class="cls-3" d="M330.62,262.58l33.48-2,13.8,21.11-13.71-23.82-35.6,1.07Z"/><path id="path4610" class="cls-3" d="M326.47,258.61,358.29,248l18.79,16.81-19.4-19.46-34.12,10.25Z"/></g><g id="g4612"><path id="path4614" class="cls-3" d="M287.6,271.87l-30.53,13.89-2.32,25.11,1-27.47,32-15.72Z"/><path id="path4616" class="cls-3" d="M289.4,266.42l-33.08,5.51-8.74,23.65,8-26.28,34.94-6.91Z"/></g></g></g></svg>