<svg id="layer" xmlns="http://www.w3.org/2000/svg" viewBox="0 0 525 37.96"><defs><style>.cls-1{fill:#5d801c;}</style></defs><title>41524 [Converted]</title><path class="cls-1" d="M518.88,9.16A8.45,8.45,0,0,1,514.34,8c-6.82.33-14.86.88-16.29,1a121.36,121.36,0,0,1-19.42-.52c-10.7-1-25.09.42-26.74.39-2,0-34.07-3.67-52.38-1-1.14.17-1.05.9-2.34,1-2.92.31-2.95-1.1-17.61-.17-1.12.07,1-.7-.5-.87a30.34,30.34,0,0,0-5.49,0c-1.17.17-6.25.87-7.67.64-10.2-1.61-27.18-1.37-57.83,1-4.23.32.63-1.14-2.83-1.62-22.05-3-19.95,0-36.75-.84a13.5,13.5,0,0,0-6,.91c-6.54,2.78-19.62-.26-34.25.26-2.36.08-1.86-1.17-10.73-1.1-6.73,0-12.15,0-18.36.84-5.5.77-5.4-.26-12.52.13-4.45.24-10.73.77-12.78-.2-.92-.43-7.44-.51-10.22,0-.81.15-7.19.87-9.43,1-6.91.33-21.77.76-24.75-.19-2-.65-16.94-3.48-25.31-1.49-2.42.58,1.14,1-1.52,1.55-3.61.7-9.23.86-16.2.8,5-.43,8.47-1.34,8.47-2.39,0-1.47-6.79-2.66-15.17-2.66-6.49,0-12,.72-14.17,1.72A30.68,30.68,0,0,0,59,5.52a29.54,29.54,0,0,0-6.95.74A25.61,25.61,0,0,0,44,5.19c-5.42,0-9.81,1.12-9.81,2.51,0,.62.88,1.19,2.33,1.62l-1.64.07c-8.36.39-9.38-1.52-15.1-1.26-1.21.06-2.36.1-3.48.12a8.82,8.82,0,0,1-4.06.91H0V32.33c16.16,0,18.54,3,26.21.38.78-.27,1.52-1.59,2.38-1.9,3.7-1.35,6.23-.37,10.9-.19-.61.33-1,.69-1,1.08,0,1.39,4.39,2.51,9.82,2.51,4.77,0,8.75-.87,9.63-2a69.17,69.17,0,0,1,13.33.15c1.84.21-2.87-2.12-1.22-2.74s7.7-.88,17.34,1.08c-3.82.34-6.57,1.27-6.57,2.36,0,1.39,4.4,2.51,9.82,2.51s9.82-1.12,9.82-2.51c0-.52-.63-1-1.71-1.41,6.36-.29,11-1.77,12-1.72,1.85.09-6.1,2.8-3.78,3.49,3.48,1,17.88,3,13.18.45C115,31,148,38.63,158.81,32.33c.68-.39-.86-2.13,0-2.45,1.95-.74,4.76,2.6,15.78.4.84-.17.54,1.67,2.16,2,1.14.28,3.87.53,4.81,0,.7-.38,3.76-2.06,5.46-1.52,7.33,2.32,15.49,3,25.67,2-2,.45-3.18,1-3.18,1.63,0,1.47,6.79,2.66,15.17,2.66s15.17-1.19,15.17-2.66-6.79-2.67-15.17-2.67c-1.9,0-3.71.07-5.39.18,5-.79,10.47-1.93,16.52-3.45,3.06-.76,1.71,2.71,5.69,3.84,25.37,7.22,17.5,0,33.91,2,3.47.42,3.48-1.77,3.5-2.15.17-5.37,11.79-1.6,22.48-.66-2,.46-3.19,1.11-3.19,1.85,0,1.38,4.39,2.51,9.81,2.51,4.43,0,8.17-.75,9.39-1.78a24.31,24.31,0,0,0,2.63.08c5.81-.12,10.73.08,14.44-2,3.28-1.84,5.25.62,10.72-.31,3.42-.57,7.87-1.84,11.59.46a11,11,0,0,0,4.84.85c.54.91,3.61,1.61,7.33,1.61,4.1,0,7.43-.85,7.43-1.89S373.05,31,369,31h-.14a18.66,18.66,0,0,1,3.28-1c5.42-.79,17.6-1.79,22.1.46,3.06,1.54-5.45,3-5,3.38,3.31,2.86,26.8,4.89,30.18.15,1-1.36-3-2.46-1.75-3.68,3-2.84,14.3-1.9,27.66-1.21-.73,0-1.47,0-2.24,0-8.37,0-15.16,1.2-15.16,2.67s6.79,2.67,15.16,2.67,15.17-1.2,15.17-2.67c0-1.1-3.82-2.05-9.27-2.46,8.79.4,18.22.53,26.65-.65,6.57-.92-13.9,3.4-11.73,4.32,14.44,6.15,43.89-.64,61.17-.64V9.16ZM67.8,9.15a3.18,3.18,0,0,0,.49-.3c.64.13,1.35.25,2.12.35Z"/><ellipse class="cls-1" cx="137.68" cy="6.09" rx="15.17" ry="2.67"/><path class="cls-1" d="M183.68,33.19c-5.42,0-9.82,1.12-9.82,2.51s4.4,2.51,9.82,2.51,9.82-1.12,9.82-2.51S189.1,33.19,183.68,33.19Z"/><path class="cls-1" d="M287.29,34c-4.1,0-7.43.85-7.43,1.9s3.33,1.89,7.43,1.89,7.42-.85,7.42-1.89S291.39,34,287.29,34Z"/></svg>