<svg id="layer" xmlns="http://www.w3.org/2000/svg" viewBox="0 0 525 52.5"><defs><style>.cls-1{fill:#af9f52;}</style></defs><title>41524 [Converted]</title><path class="cls-1" d="M523.69,38.43c0-17.58-5.78-13.51-7.87-11-1.5-4.5-20.44-11.19-19.66,1.33-.67-4.57-9.12-3.1-6.39,6.48-1.5-2.89-12-12.86-16.84-3.86-1.8-2.89-13.53-7.07-12,4.5-2.7-5.46-8-3.72-10.08.11,6.33-13.71-14.33-19.45-11.57-1.07-1.5-4.5-8.47-3-9.36,3.41.4-4.8-6.86-4.79-11.34.21-1.66-5.06-8.06-7.63-8.79-5.54-2.33-8.08-11.43-3.86-9.32.32-1.2-1.28-7.13-1.94-10,2.18A3.31,3.31,0,0,0,389.33,38a10.79,10.79,0,0,0-.32,1.74c0-4.5-4.81-10-9.32-4.5-.3-9.73-16.54-12.54-16.24-2.58-1.81-4.18-7.85-1.56-4.3,5.07a45.12,45.12,0,0,0-4.37-3.89c0-.22,0-.45,0-.68,0-3-1.84-5.44-4.11-5.44a3.7,3.7,0,0,0-3,1.66c-4.6-2.16-9.23-2.56-11.67,2-1.8-2.89-13.53-7.07-12,4.5-2.71-5.46-8-3.72-10.09.11,5.39-12-14.15-18.52-11.56-1.07-1.51-4.5-6.47-5.84-9.36-1.42.5-6-11-4.5-14,4.91,4.91-15.84-14.58-16.81-4.89-4.14-2.82-3.51-9-4.4-12.83-2.61-.44-5.11-4.29-8.46-7.78-4.23-1.5-4.5-20.45-11.19-19.67,1.33-.67-4.57-9.11-3.1-6.38,6.48-1.51-2.89-12-12.86-16.84-3.86-1.81-2.89-13.54-7.07-12,4.5-2.71-5.46-8-3.72-10.09.11,6.34-13.71-14.33-19.45-11.56-1.07-1.51-4.5-8.48-3-9.36,3.41.4-4.8-6.87-4.79-11.34.21-1.66-5.06-8.06-7.63-8.8-5.54-2.33-8.08-11.42-3.86-9.32.32-1.19-1.28-7.12-1.94-10,2.18A3.31,3.31,0,0,0,127,38a10.76,10.76,0,0,0-.33,1.74c0-4.5-4.81-10-9.32-4.5-.29-9.73-16.54-12.54-16.24-2.58-1.8-4.18-7.85-1.56-4.29,5.07a47.65,47.65,0,0,0-4.37-3.89c0-.22,0-.45,0-.68,0-3-1.84-5.44-4.11-5.44a3.68,3.68,0,0,0-3,1.66c-4.61-2.16-9.23-2.56-11.67,2-1.8-2.89-13.53-7.07-12,4.5-2.7-5.46-8-3.72-10.08.11,5.39-12-14.16-18.52-11.57-1.07-1.5-4.5-6.47-5.84-9.36-1.42.5-6-11-4.5-14,4.91,4.9-15.84-14.58-16.81-4.89-4.14C8.24,29.8-.65,32.83-.65,40.34V52.42H520.86c.07-.67.13-1.34.19-2Z"/></svg>