<svg id="layer" xmlns="http://www.w3.org/2000/svg" viewBox="0 0 525 44.27"><defs><style>.cls-1{fill:#87841d;}</style></defs><title>41524 [Converted]</title><path class="cls-1" d="M503.65,10.44c-4.64-.08-10.91,2.42-14.42,5.55,17.08-15.95-17.29-14.73-8.64,5.2C475.27,9.35,455,7.47,455.86,15c-5.1-5.55-13.86-3.87-16.51,1.79,4.57-22-29.92-13.71-20.41,1.35-3.66-4.82-13-7-17.8-.14,2.66-14.55-18-9.3-21.22-5.66-4.3-5.73-12.46-5.22-20.59-2.51a7.44,7.44,0,0,0-5.21-2.09,7.07,7.07,0,0,0-7.26,6.85,7.91,7.91,0,0,0,.06.85,80.12,80.12,0,0,0-7.7,4.89c6.27-8.33-4.4-11.63-7.59-6.37.54-12.53-28.13-9-28.65,3.24-8-6.87-16.45,0-16.45,5.66a9.76,9.76,0,0,0-.57-2.19,3.84,3.84,0,0,0-2-3.15c-5-5.18-15.48-4.35-17.59-2.74,3.71-5.26-12.34-10.58-16.45-.41-1.29-2.63-12.59.6-15.52,7-7.89-6.29-20.72-6.29-20-.27-1.56-8-13.86-9.94-16.51-4.28,4.87-23.12-31.59-15.9-20.41,1.35-3.66-4.82-13-7-17.8-.14,2.66-14.55-18-9.3-21.22-5.66C130,1,111.39,13.56,108.74,17.2c4.8-12-10.1-13.89-11.27-8.15,1.37-15.74-32-7.33-34.71-1.67C54.8.51,45.82,9.51,50,18.67c-5.78-12.5-22.47-12-25.12-10,2.66-3.76-5-4.62-11-3.17A34.48,34.48,0,0,0,.17,2.73H0V44.27H525V2.73A32.47,32.47,0,0,0,503.65,10.44Z"/></svg>