<svg id="Layer_1" data-name="Layer 1" xmlns="http://www.w3.org/2000/svg" viewBox="0 0 1005 900"><defs><style>.cls-1{fill:#f6b79d;}.cls-2{fill:#f29771;}.cls-3{fill:green;}.cls-4{fill:gray;}.cls-5{fill:#fff;}.cls-6{fill:red;}</style></defs><title>FallingPigColour</title><path class="cls-1" d="M737.71,7c-13.2,1.51-21.41,14.32-26.18,25.52-10.25,27.89-13.26,57.81-21.82,86.11-1.7,6.09-5.05,11.61-8.21,16.88a57.89,57.89,0,0,1,3.51,17c-5.36-9.1-8-20.9-18.31-26-11.9-5.64-27-2-35.31,8.2-9.29,9.49-5.41,25.66,4.25,33.4,8.25,7.73,19.51,11.48,30.66,11.62,1.32.52-2.63,2.54-1.5,4.49,2.78,7.82,9.9,13.89,17.33,17.26a59.66,59.66,0,0,0,24.1-.77c2.9-.82,6.33-4.26,8.9-3.82-7.71,9.56-21.47,14.34-33.34,10.67-8.95-1.86-16.18-7.63-22.24-14.17-3.17.23-4.43,5.3-7.07,7.21a85.16,85.16,0,0,0-16,23c-3.4,7-10,13-8.92,21.36-.56,18-2.48,35.81-6.81,53.27-4.76,25.3-11.73,50.32-23.61,73.22-9.19,18.53-18,37.52-30.56,54.07,2.1,6.7,8.69,11.35,14.09,15.68,10.45,3.65,21.91,3.35,32.81,4.92,10.82.57,22,2.78,32.69.48,4.94-2.2,3.31-9.19,4.8-13.41a386.1,386.1,0,0,1,10.64-49.67c-.73-2-4.7-1-2.22-3.72,19.75-33.7,42.79-67,49.8-106.27,3.93-18.14,6.85-36.51,12.2-54.29.26-2.15-7.3-4.78-3.31-5.33,13.09-.68,26.39-4.42,36.9-12.68,12.27-8.3,20.7-20.78,28-33.4,1.5,1.86-.76,7.63,2.53,6.41.57-.77,2.92-6,3.82-2.75-.53,4.95,3.46,5.66,7.57,5.19,15.16-.7,29.92-7.73,41-17.94,8-8.44,13-23.1,5.19-33.21-4.75-6.12-13.48-5.65-19.7-2.23-9,3.13-17.44,11.23-27.54,9-5.27-4.34-1.82-12.25,2.24-16.13,9.68-11.77,22.39-21.58,27.71-36.38,5.53-12.79,8.75-28.65,1.69-41.47-6.32-9.44-21.24-9.41-28.41-.92-11.17,11.79-14.9,28.3-22.77,42.15C773.06,86.94,768,93.53,765,100.88c.7,1.84,6.6,1.7,2.86,4a44.78,44.78,0,0,1-24-5.59c-2.94-4.31,1.12-9.76,2.47-14,5.23-15.23,11.21-30.68,12.05-46.92.46-11.34-2.37-25.74-14.2-30.34a16.83,16.83,0,0,0-6.44-1ZM473.9,23.86c-.27,0-.54,0-.82,0a19.8,19.8,0,0,0-16,10.36c-1.73,5.22-4.49,10.18-5.54,15.58,0,2,2.83,1.89,3.31,3.32-2.34,4.87-6.73,8.44-10.21,12.51-6.82,7-13.18,14.75-16.52,24.07-5.53,14.6-6.92,30.42-7.14,45.91-.06,2.22.15,5.82,3.16,5.82,4.79.58,9.59,1.26,14.4,1.5,1.87-1.25,1.2-4.2,2-6.12a83.12,83.12,0,0,1,14.55-30.47c1-1.11,2.46-3.22,3.79-3.28-.39,2.87-3.45,4.31-4.51,7-2.89,5.23-4.74,11.43-3.82,17.41,1.17,2.5,2.58,4.89,2.3,7.79.47,4.65,4.47,7.75,6.25,11.86,2.45,4.29,7.67,5.5,11.66,7.83,2.45.85,4.95,2.93,7.64,2.39,4.4-2.94,5.73-8.57,7.67-13.2,2.45-7.11,4.71-14.49,4.1-22.12-.39-10.31-1.7-20.92-6.19-30.31-.88-2-3.28-4.78-5.53-2.88-.56.56-2.17,2.3-1.49.29,1.13-4.39,4-8.8,3-13.45-1.3-2.2-3.56.48-4.76,1.44-1.68,1.42-3.52,3.4-5.83,3.36,4.78-7.52,10.21-14.83,12.72-23.51,2.49-8.45,3.58-17.86.66-26.34A9.81,9.81,0,0,0,473.9,23.86ZM447.56,137.68c-2.76.56-2,4.27-.35,5.67,1.25,1.91,3.47,2.22,5.34,3.05,1.2,1,4.3,2.57,4.81.16-1-2.91-4-4.64-6.16-6.71-1.13-.79-2.17-2.09-3.64-2.17Zm-54.93,7.67c-5.57.9-10.25,4.47-15.49,6.42-2.12.83-5,2.41-6.83,2.63.5-1.22,3.18-2.29,1.11-3.52-3.35.64-6.05,3.29-9,4.94-6.46,4.41-12.93,8.87-18.94,13.9.87-1,2.46-3.72-.1-3.49a38.13,38.13,0,0,0-5.8,4.16c2.22-2.56,3.26-5.91,6.14-7.89,3.27-3.15,7.11-5.93,9.72-9.66.06-2.29-2.62-.9-3.47.06-4.45,3.49-9.14,6.84-12.53,11.49-8.71,10.66-16.85,21.78-24.94,32.9-1.68,1.32-1.65,3.75-3.23,5.26-7.34,9.83-11.36,21.6-16,32.82-2.48,6.85-4.3,13.9-6.26,20.91-1,3.2.12,6.49,2.2,9a163.1,163.1,0,0,1,11.71,19.32c2.55,3.13,1.35,8.38,5.44,10.44,6.07,3.15,13.17,3.63,19.21,6.91,7.32,2.55,15,4,22.46,6,8.65,2.44,17.76,2,26.43,4.32,4.55,1,7.15-3.87,10.12-6.3,1-7.38.55-15.05,1.48-22.45,1.28-11.55,5.93-24.15,16.54-30.23,9.51-5.4,21.38-3.33,30.77,1.33,9.67,4.55,17.15,12.49,23.85,20.63,2.08,2.11,2.71,5.39,5,7.24,2.92.51,4-3.24,5.22-5.19,3.46-7.81,7.19-16.66,15.42-20.5,5.18-2.74,11.07-1.31,16.51-.48,2.43.13,3-2.77,2-4.51-3.4-10.13-6.6-20.48-6.14-31.25.22-2-.76-3.73-1.22-5.53,1.12-9.41,6.49-17.36,12.55-24.41.37-2.2-2.51-3.5-3.6-5.26-5.89-6.86-13.75-11.57-21.27-16.41-2.35-1.68-6.58-1.44-7.39,1.82-2.09,3.45-4.63,6.8-5.19,10.93-1,4.53-.62,9.34-1.55,13.8-.93-6.46-.3-13.14-.09-19.6,0-4,1.24-7.94.85-11.88-1.74-3.09-6.92-4.52-9.13-1.11-3.41,5.4-2.45,12.19-3.19,18.26-.33,1.45.18,3.88-1.11,4.75-1.44-3.68-.52-7.93-.26-11.79.36-4.09,1.67-8,2.76-11.89-.12-5-5.56-7.33-9.48-9.07-13.33-5.06-27.87-4.87-41.9-5.68-3.72-.42-7.79.1-11.28-1.3a2.34,2.34,0,0,0-2.1-.86Zm-19.5,41.52c3.37,0,7,.53,9.62,2.86-8.54-3-18,.55-24.26,6.59a40,40,0,0,0-10.41,14.34c2.95-7.93,7.11-16,14.3-20.84a19.65,19.65,0,0,1,10.75-2.95Zm.74,17.21c.3,0,.61,0,.91,0,9.82.37,19.7,5.6,24.91,14a52.63,52.63,0,0,0,2.68,5c-6.19-4.07-12.73-8.73-20.51-8.52-9.69,0-17.85,7.18-21.67,15.68-5.28,10.69-5.43,23-3.85,34.63-2.8-6.69-2.72-14.29-2.94-21.45.05-11.53,2.17-23.76,9.26-33.23a14.6,14.6,0,0,1,11.21-6.19Zm211.55,8h-4.16c-5.21.52-11.53-.93-15.89,2.65a9.7,9.7,0,0,1-3.92,3.93c-1.86,4.32,1.1,9.06,2,13.32,3.57,11.4,8.59,23.34,6,35.45-2.24,3.75-.25,8.84,3.39,10.94,14.11,11.8,24.4,27.35,32.29,43.83.78,1.41,2.29,5.27,4.23,3,4.11-8.68,5.13-18.5,7.18-27.82,4.49-23.62,6.68-49.27-3.39-71.82-2.73-6.3-7.75-12.62-15.17-13a106.23,106.23,0,0,0-12.49-.53ZM178.29,256.35c-7.1-.13-14.72,3.45-18,9.92-.29,8.89,6.68,16,13,21.37,9.07,7.51,20.77,10.47,32.21,12,2.3.82,5.87.42,7.47,2.4-3.69,2.65-9.26.94-12.46,4.35-1,3.21,3.51,4.47,5.7,5.55,4.54,2,10,2.66,14.16,5-4.66.65-9.5-.43-14-1.36-2.71,1.59.21,5.12,1,7.12a69.12,69.12,0,0,0,32.37,29.54c11.35,5.63,24.65,4.42,36.77,2.54,7.18-.94,14-3.82,21.16-4.57,2.65.23-.53,2.73-1.25,3.57-2.21,2.84-6.28,4.34-7.66,7.67,1.52,4,6.81,2.56,9.95,1.73,1.68,0,5.05-2.38,5.95-.25-3,2.93-9.11,2.52-10.61,6.92,1.11,2.35,3.86,3.76,4.52,6.52,3.23,7.24,3.36,15.26,4.42,22.91,2.56.81,3.36-3.82,5.11-5.41a19.2,19.2,0,0,1,4.29-4.67c-1.64,7-5.81,13.38-6.2,20.78a118.12,118.12,0,0,0,5.28,48.53c4.22,10.67,11.65,19.94,19.1,28.34-.06,4.61,5.38,6.25,8.34,8.76a148.81,148.81,0,0,0,42.24,17.25c11.2,2.18,22.55,4.82,33.91,5.26,1.73.55,3.52,1.32,5.17,0,9.19-1.5,18.6-2.43,27.51-5.33,5.6-1.45,11.23-4.52,14.63-9.21-.69-5.1,0-10.62-1.55-15.5a26.34,26.34,0,0,0-4.49-4c8.35,4.3,18.09,2.81,27.13,3.64,9.13.37,18.71.34,26.92-4.23,14.14-7.15,27.11-18.11,34-32.63,3.49-7.76,5.93-16.37,6.16-24.74.19,1.92.36,7.3,3.57,5.34a264.53,264.53,0,0,0,30.11-46.38c2.16-5,5.4-9.76,6.44-15.1-1.33-2.89-4.79.23-6.49,1.16-8.47,6-16.53,13.13-26.65,16.17-6.5,2.17-12.74,5.38-19.59,6-6.63,1.34-7.66,9.3-10.12,14.42A130.64,130.64,0,0,0,519,441.42c-.28,1.39-1.21,4.15-2.56,1.88-2.17-7,1.21-15.28-3.16-21.83-4.57-7.59-12.9-13.83-22.15-13.06-5.54.2-12.31.79-16,5.47-1.41,4.2,4.37,5.49,6.75,7.58,8.28,5.81,11.76,16.89,9.39,26.56-1.9-8.37-3.83-17.39-10.41-23.51-4.7-5-12.93-9.6-19.45-5.19-5.93,4.69-5.94,13.19-6.89,20.05-1,9.44.36,20.87,8.95,26.55,10.41,6.2,23.31,2.16,33.32-2.9,9.57-4.66,17.51-12.06,27.3-16.31,3.75-2.88,1.9-8.46,2.93-12.47a35.55,35.55,0,0,1,4.88-14.45c-2.33,6.88-4.81,14.82-1.77,21.84.32,1.39,3,1.8,2.93,2.31a56,56,0,0,0-16.77,9.27c-9.82,6.87-19,15.54-30.62,19.13-12.53,3-27.25-1.56-34-13-6.45-10.23-4.06-23.41,1.18-33.51,8.69-18.79,26.41-34.18,47.59-35.75,10.11-.95,20.35-.73,30.39-2.84,7.61-1.62,15.76-2.32,22.72-6,1.84-2.37-1.91-4.67-3.07-6.49-8.88-9.32-17.69-19-22.86-30.94-5.27-10.79-8.21-22.56-10.37-34.36-1.54-8.68-1.42-17.43-1.16-26.22-.64-2.48-3.31-.24-3.48,1.35-4.05,8-2.16,17.31-2.7,25.92,0,9.56.51,19.55,4.75,28.22,3.39,12.12,10,23.12,17,33.44,1.38,2.11,4.55,4.59,5,6.39-13-10.25-20.83-25.44-25.72-40.95-5.25-11.89-6.86-24.92-7.32-37.8.32-1.58-.65-5.61-2.76-3.42-3.17,6.17-4.59,13.87-7.92,19.46.3-11.12,5.09-21.66,11.95-30.19,2.26-3.76,4.79-7.65,6-11.81a13.23,13.23,0,0,0-16.31-5.51c-9.47,3.71-15.85,12.77-19.74,21.82-4.35,10.38-2.22,21.94-2.9,32.85,0,11-1.16,22.87-8.19,31.8-9.59,10.12-25.46,10-37.82,5.71-12.5-3.71-20.23-14.91-29.4-23.31-5.64-6.29-13.52-9.77-21.69-11.31-11.35-2.1-22-6.28-32.95-9.71-6.85-1.94-13.73-4.28-20.89-4.31-3.27-.14-7.66-2.8-10.62-.29-1.56,1.72-1.13,5.05-2.46,6.48-2.12-6.43-1.87-13.55-4.88-19.77-8.68-21.21-30.88-34-52.9-36.74-13.26-1.86-26.58.75-39.79,1.81-3.33.1-3.1,4.29-.88,5.76.93,1,.66,2.37-.61,1.22-7.55-5.75-15.2-12.48-25-13.65a34.88,34.88,0,0,0-5.5-.34Zm312.17,34.73h.07c1.89,1.6-1.63,2.72-2.69,3.4-3.26,1.53-6.49,5.11-9.34,6A23.64,23.64,0,0,1,490.46,291.08Zm1.94,4.74c1.53.28-1.16,2.28-1.46,3.05-3.82,4.17-6.64,9.18-10.69,13.13,2.71-6.11,6.16-12.72,12.1-16.17h0ZM248.53,297c14.18-.08,29,5.4,38.62,16.07,3,3.3,5.32,8.86,2.91,12.84-.73-2-2.76-4.48-5.07-2.78-4.37,2.87-7.65,7.32-10.29,11.67.09,3.4,1.49,7.37.59,10.53-3.15-5.09-2.84-12.67,1.69-17,3.14-2.83-.17-6.57-2.22-8.84-4.49-5-5.31-12.15-9.42-17.3-2.31-1.9-4.58.9-3.65,3.28,1.05,5.39,4.57,9.78,7,14.58-5.49-3.42-8.17-9.77-9.6-15.82-2.81-6-10.73-5.7-16.32-5.46-3.15.16-6.28.5-9.42.82,4.85-2.27,9.94-2.51,15.18-2.62ZM61.23,373.07c-.82,0-1.65,0-2.48.08-7-.32-15,1.37-19.06,7.75-5.58,9.33-1.76,21,3,29.85a50.49,50.49,0,0,0,21.51,20.9c12.74,9.17,28.75,12,41.72,20.66,1.23,1.91-6.18-1.11-5.34,2.64-.56,6.9-4.81,14.07-11.9,15.71.21-1.2,2.8-3.08,3.84-4.6,1.26-2.05,4.16-4.29,3.32-6.92-2.34-1.27-5.34.89-6.09,3.2-5.92,6.32-15.41,6-23.34,6.41-12.88.47-25.4-3-38.15-4.37-6.93-.51-15.61-.48-20.15,5.66-3.58,8,1,16.87,5.91,23.21C23.88,506,39,513.84,54.91,515.9c11.29,2,22.76,1,34.1.19,2.16,0-.85,2.4-.19,3.69.24,3.19,3.12,6.76,1.37,9.82-9.13,2-18.24,4.49-26.56,8.9-8.32,4-16.29,9.61-20.38,18.15-4,7.66-4.65,17.79,1,24.83,9.1,12.29,26.1,15.1,40.38,12.92,18.76-2.89,35.58-13.29,48.61-26.81,3-2.05,4.94-7.4,9.19-5.71,11.11,1.65,22.58,3.32,33.61.19,3.88-.74,7.49-2.37,11.27-3.46-1.1,2.27-5.2,5.07-2.32,7.62,10.45,5.55,21.44,10.2,32,15.49,19.1,9.3,38.51,18.12,59,24.08a137.88,137.88,0,0,0,33.32,7.2c7.84,1.06,15.75,2.12,23.51,3.37-3.58,1.78-8.72.9-11.33,4.28-.82,3.54,4,4.43,6.55,4.87,14.36,2.2,28.82,5.62,43.46,7.11,23,2.72,46,5.65,69.15,6.75,14.93,1.12,30,1.1,44.84,2.51-4.75,2.75-10.83,3.19-15.14,6.63,0,3.32,4.52,5,5.29,8.08-6.49.4-13.14-3.92-19.52-1.45-2.16,2.59,1,6,2.26,8.32,3.43,4.44,7.16,10.17,13.16,11,6.44-.73,10.92-6.53,14.65-11.3,4.57-6,3.44-14.13,5.47-21.08,3-13.57,1.45-27.58,1.77-41.36.35-11.93-2.4-23.64-6.46-34.79a145,145,0,0,0-14.41-32.48c-4-7.06-5.31-15.26-9.44-22.19-2.82-3.06-8.16-1.15-10.6,1.49-.9,3,2.77,5.35,4.17,7.72a40.42,40.42,0,0,1,10.19,28c.09,7.08.09,14.46-1.65,21.21-1.41-12.19-1.13-25.18-7.59-36.09-3.5-7.81-10.31-15.08-19.4-15.33-10.31-.58-20.3,3.32-30.64,2.72-17.77-.36-35.32-4.72-51.86-10.91-28-7.61-57.13-9.53-85.85-12.06-12.72-1.44-25.45-3.33-38.2-4.66-7.06-1.48-14.52-4-19.76-9.11-2.79-4.37-3.51-9.74-5.26-14.55-1-8.77,4.54-16.5,7.61-24.32,6-12.58,10-28.27,2.95-41.27-5.16-9.36-16.58-14.59-27-13.28-13.91,3.12-24.42,15.14-29.38,28-2.24,5.41-1.94,11.45-3.41,17-3.18-.06-4.93-3.77-7.28-5.49C129.3,408.63,106.85,386.52,78,376.09a39.66,39.66,0,0,0-16.74-3ZM464.36,392.3l-.23.36a165.68,165.68,0,0,0-16.21,28.11c-4.56,7.66-7.1,16.2-9.76,24.64,3.36-12.38,7.31-24.84,13.72-36,3.65-6,7.35-12.12,12.48-17.08Zm139.27,83.29c-2.47,1.18,0,4.69.06,6.68,1.74,7.93,6.24,15.41,5.34,23.66,0,6.81.34,15.25-5.82,19.83-7,5-16.54,3.29-24.2.76-10.22-3.3-18.17-10.61-27.2-16-3.65-.36-5.91,3.81-9.07,5.11-2.46.91-2.69,3.73-1.15,5.59,8.08,14.75,16.6,30.46,16.2,47.7.06,8.07-5.19,16.55-13.58,17.8-4.28.74-9.11-.8-13.12,1-1.19,2.75,2.06,5.36,2.89,7.87,12.93,22.26,20.36,47.13,27.55,71.68,2.61,8.49,4.11,17.4,7.42,25.62,2.68,2.25,4.6-2.21,5.52-4.1a280.08,280.08,0,0,1,14.35-27.5c9.39-12.95,21.31-24.71,36-31.68,13.53-7,28.44-11.59,43.8-11.39,25.26-1.28,52,4.14,72.15,20.1C767.7,658.94,788,688.75,795.36,722c1.84,6.39.94,13.29,3.59,19.46,2.47,3.63,7.6,1.39,10.8.08,12.21-5.92,18.81-18.36,24.92-29.77,7.16-13.64,15.26-27.69,28.67-36a30.68,30.68,0,0,1,28.82-3c4,1.61,7.83-1.47,8.77-5.28,3.05-9.92,5-20.28,8.83-29.91,2.16-6.21,5.7-11.79,8.06-17.93,2.59-4.49,4.17-10,9-12.66,7.3-6.16,17.16-8.76,23.52-16.06,5.87-7.15,5.86-17.22,4.52-25.91-2.24-11.2-11-21.17-22.49-23.11-3.22-1.46-6.2-.57-8.78,1.67-3.2,2.17-7.44,3.85-8.57,7.89-6.45,10.26-13.39,21-14.46,33.39a273.08,273.08,0,0,1-6.38,31.64c-2.47,13.75-7.84,27.25-16.58,38.27-3.61,4.71-9.43,6.58-15.12,7.19-3.17.6-6.41,1.35-9.52,1.9.87-6.2,4.78-11.56,6.33-17.61,7.66-22.59,9.32-47,6.45-70.55-2.21-15.85-6.84-31.43-14.93-45.32-3.58-6.64-8.42-12.51-13.22-18.28-9.65-9.2-22.6-14.14-35.18-17.71-12.49.47-25.52-1.26-37.6,2.74-10.26,4.51-21,8.7-29.17,16.72-10.43,9.87-18,22.59-23.13,35.89-1.93,6.32,4.35,10.94,7,15.92C723,571,727,576,729,582c3.72,8.42,9.63,15.78,11.8,24.87,1.67,6,4.08,11.92,5.47,18a10.4,10.4,0,0,1-3.68,7.05c-3.33-6.28-5.58-13-7.7-19.76C729.61,599,723.68,585.85,714.32,575a199.16,199.16,0,0,0-24.56-31.43c-11-12.67-22.31-25.24-35.32-36-14.34-12.19-30.44-22.22-47.1-30.9-1.18-.47-2.39-1.23-3.71-1.16ZM212,506.91c.15,5.85-5.44,9.88-9.82,12.83-10.07,6-23.16,8-34.25,3.68-5.95-2.41-12.34-7-13.57-13.51,5.38,5.16,12.29,8.77,19.83,9.25,11.79,1.14,24.7-1,33.48-9.56,1.32-1,2.64-2.35,4.33-2.69Zm766.35,23.3a94.48,94.48,0,0,0-17.51,8.46c-2.17,2.16,1.84,3.49,3.57,3,6.35-.11,11.47-4.85,15.35-9.39A1.42,1.42,0,0,0,978.33,530.21Zm-43.57,78.58c-3.14.49-7.08,4.38-5.19,7.6,3.27,1.78,7.45.65,11,.75a2.22,2.22,0,0,0,2-3.82c-1.87-2.36-4.76-4.54-7.89-4.53Zm-247.9,15.76c-1.42,0-2.83,0-4.25.09h-2.3c-23.62-.65-47,8.63-64.37,24.52-27.61,24.93-43.58,61.27-46.9,98-.92,10.77.13,22-.87,32.53-3.33-2-2.74-6.88-3.5-10.27-1.55-13.3-.68-26.91-2.52-40.21-1.48-2.71-4.12,1.12-5.65,2-12.27,10.47-26.12,19.2-41.46,24.29-9.89,3.21-18.61,9.27-29.2,9.87-3.86,0-5.33,4-5,7.3-.14,19.88,4.59,40,14.37,57.37,8.23,13.43,17.41,26.57,29.8,36.52,7.24,5.81,15.08,11.18,23.58,14.92,2.36,1,4.33,3.08,7.11,3.32,6.45,2,13,3.63,19.85,3.06,16.13-.29,32.79,1.1,48.25-4.53a113.55,113.55,0,0,0,52.29-32.55c9.21-10.14,18.44-20.58,25-32.7,1.72-2.09-.16-4.1,0-6.23,2.7-5.2,8.55-8.24,14-9.71,6.15-.46,13.08-.88,18.2,3.48,9.44,7.52,14.09,19.9,24.65,26.33,7.73,5.79,19.14,4.29,25.77-2.47C795,818.78,797.83,802.73,806,790c7.85-13.11,16.65-26.95,30.08-34.88a19.67,19.67,0,0,1,16.09-.53c7.06,3.07,13.13,8.16,20.35,10.81,3.87.42,3.49-4.76,3-7.29-1.78-5.14-8.52-4.67-12.81-6-1.62-.61-4.67-.76-5.37-2.4,7.11-3.08,15.49-1.13,22.65-4.33a42.7,42.7,0,0,0,23.38-23.72c4.1-8.33,3.56-18.29.76-26.91a25,25,0,0,1-2.12-4.65c-1.69-.35-1.6-1.81-2.25-3-5.2-6.83-14.49-8.46-22.52-7-10.08,1.29-18.54,7.75-24.73,15.51-10.61,11.94-18,26.2-26.79,39.4-4.61,6.81-11.67,13.56-20.61,12.91-5.11.61-9.29-3.6-10.29-8.29-5-17.48-9.38-35.39-17.85-51.65-12.84-25.49-33.74-48.15-61.15-57.81a84,84,0,0,0-28.93-5.66Zm252.5,49.72c-7.24,1.51-13.61,6.14-21.19,6.45-4.46,1-9.86.36-13.58,3.32-1.15,3.23,3.77,4,5.87,5,8.16,3.23,18.55,2.94,24.9-3.81,2.54-2.71,6.57-5.59,6.29-9.67A2.1,2.1,0,0,0,939.36,674.27Zm1.28,18c-.38,0-.75,0-1.13,0-9.06.77-18.09,2.42-27.17,1.14-2.81-.35-7.53-1.28-6.17,3.17.13,4.21,3.94,10.38,8.81,8.47,7.83-4.07,17.51-2.63,24.91-8,2.31-1,7.17-4.87,1.87-4.76A8.42,8.42,0,0,0,940.64,692.31ZM913.39,706c-3.33,1.19-3.33,5.87-4.82,8.58-2,6.12-5.28,11.85-6.88,18,1.46,2.69,3.56-1.11,4.43-2.47,4.07-7,8.23-14.45,8.91-22.6a1.57,1.57,0,0,0-1.64-1.56Zm-469.6,70.38a2.9,2.9,0,0,0-.51,0c-2.63.48-5.94,1.52-6.42,4.53-3.36,4.77-8.52,9.66-8,16,1,3,4.34.52,5.45-1.07,3-2.48,3.86-6.71,6.71-9.14,3,1.3,2.15,6.11.82,8.47-5.3,7.72-15.49,8.29-24,8.57-2.64.5-6-.36-8.21,1.35.06,3,4.11,4,6.12,5.59a22.29,22.29,0,0,0,17.28,3.06c8.84-.54,17.6-6.12,19.9-15a17.89,17.89,0,0,0-2.77-17.33c-.58-1.65-.9-3.54-3-4a11.37,11.37,0,0,0-3.44-1Zm27.38,31a1.26,1.26,0,0,0-.41.09c-2.27,2-.93,6.13-2.34,8.47-3-1.59-1.47-7.34-5.57-7.25a40.63,40.63,0,0,0-18.72,7.74c-2.12,1.54.09,3.67,2,3.92,7.18,3.31,15,4.77,22.72,5.84,2.26.71,4.6,1.68,6.8,0,2.26-.87,5.31-2.62,4-5.53-.78-2.58-.71-7-4.67-5.71-3.35.78-1.48-3.7-2.36-5.74-.1-.8-.54-1.89-1.44-1.87Z"/><path class="cls-2" d="M529.12,269.23c-2.52-.08-6.51.33-6.32,3.71-1.63,3.41-3,7-2.95,10.88a114.5,114.5,0,0,0,9.46,51.11,144.8,144.8,0,0,0,23.25,39.8c1.7,1.58,3.66,4.2,6.23,3.84,9.58-4.93,18.18-11.7,26-19.12,6-6.08,12.07-12.87,14.12-21.36.27-5.77-2.24-11.25-4-16.63-7.14-18.37-19.2-35.57-36.28-45.87-6-3.63-12.8-6.09-19.89-6.09-3.2-.16-6.41-.31-9.61-.27Zm37.2,28.59c6.7,3.67,7.89,12.19,7.88,19.1.56,1.65-.92,2.73-2.47,2.41-5.66-.76-8.55-6.53-10.47-11.29-.84-2.38-1.64-5.57-.88-7.71.68,2.77,1.49,6.53,4.72,7.26,3.82,2.43,2.28,8,5.1,11.12,2.18,1.23,2.68-2,2.4-3.51-.22-5.46-1-11.32-5.05-15.4a10.44,10.44,0,0,1-1.23-2ZM546,313c6.21,5.33,10.42,14.14,8,22.31-1.44,3.24-5.92,2.36-7.89.13-4.94-5-7.66-11.92-8.57-18.79-.07-.85-.1-2.69.46-3-.2,4.14,2.22,7.62,4.73,10.67,2.6,3.7,1.83,9.71,6.29,12,3.17.91,5-2.82,4.55-5.49-.56-6.75-4.42-12.53-7.9-18.12l.29.24Z"/><path class="cls-3" d="M300.9,110.43c-2.14.5-3.34,2.76-5,4-7.1,7.07-14.45,13.94-20.95,21.58a64.88,64.88,0,0,1-8.22,9.54,26.78,26.78,0,0,0-6.39,9.89,242.5,242.5,0,0,1-11.22,23c-1.12,2-1,4.43-2.32,6.38-2.05,3.7-1.91,8.09-3.45,12-4.2,14.31-4.43,29.35-4.81,44.13-.71,2.11.93,3.22,2.88,3,5.46.44,10,3.72,14.88,5.82,3.44,1.29,7.31,2.15,11,1.46,2.09-.92,1.85-3.75,2.48-5.6,2.34-11.87,2.86-24.09,6.93-35.56A210.37,210.37,0,0,1,289.38,177c3.32-7.11,7.5-13.72,11.07-20.7,3.23-4.07,7.58-7.1,11.66-10.25,2.65-1.93,5.53-4.06,9-3.71,6.18-.09,12,5.19,12.05,11.47.13,1.42.41,4.36,2.53,3.68,2.21-1.91,1.79-5.36,1.31-8-.95-4.37-3.67-8.65-8-10.26a56.85,56.85,0,0,1-12.12-8.85c-4.14-6.36-10.19-11.34-13.54-18.24-.52-.87-1.28-1.88-2.42-1.79ZM266,124.57c-8,.75-15.24,4.54-22.21,8.21-8.19,4.68-16.36,9.83-22.63,17-4.55,5.77-9.51,11.65-11.27,19-3.14,12.41-2.76,25.56-.07,38A50.68,50.68,0,0,0,218.41,226c2.78,3.76,5.12,8.21,9.2,10.74,1.78,1,3.34-1,3.19-2.73,1-12.36,1.74-24.88,5.45-36.71a106.35,106.35,0,0,1,5.16-14.71c.66-3.12.77-6.46,2.46-9.25,6.56-13.17,12.65-26.68,21.57-38.45,1.06-1.31,2.06-2.82,3.68-3.4,1.44-1.6,2-4.81.1-6.26A5.87,5.87,0,0,0,266,124.57Zm56,22.73c-6.26.48-11.52,4.75-15.56,9.26-1.32,1.84-3.3,3.52-3.73,5.81,1.07,4,4.76,6.78,6.08,10.7.75,3.76-1,7.67.07,11.36.86,2,3.18.39,4.09-.71,5.51-6.17,10.72-12.61,16.45-18.57,1.72-1.74,3.47-4,2.77-6.58a20,20,0,0,0-6.36-10.23A6.18,6.18,0,0,0,321.93,147.3ZM561,435.58a1.55,1.55,0,0,0-.68.2c-3.57,3.24-5.86,7.42-7.85,11.71-4.16,6-8.11,12.45-9.81,19.58-.8,3.77,3.65,5,6.54,4.47-.47,4.6-1.38,9.37-1,13.91,6.5,2.5,14,3.5,20.54,4.59-5.36,2.87-11.91,1.5-17.54,2.87-1.59,7.81,5.48,13.63,10.72,18.19,7.5,6.16,16.73,9.59,25.57,13.29,4.51.55,11,.7,13.09-4.32,3.85-8.55,2-18.64-1.65-26.92-2.1-3.74-2.5-8.22-5.17-11.71-2.92-8.28-8.42-15.28-12.69-22.87-5.25-6.65-10.67-13.19-16.26-19.55C563.68,438.27,562.56,435.54,561,435.58ZM534.75,477c-4.61.82-7.24,5.56-11.43,7.43-4.61,3.08-10.26,4.65-14.43,8.34-.1,2.62,3.82,3.15,5.49,4.65,7.82,4.42,14.22,11.34,22.66,14.71,5.26,1.37,8.33-4.67,9.06-9,1.26-7.73-1.74-15.63-5.59-22.23-1.36-1.81-3.32-3.88-5.76-3.93Zm-51.7,13.64c-4.31.46-10.12-.16-13,3.73-.94,6.37,2.79,12.26,4.28,18.29,2.33,5.22,6,9.75,8.65,14.81,9.16,13.26,19.32,26,31.38,36.78,5.63,4.19,10.74,9.45,17.81,11.15,4.93,1.35,9.79,3.77,14.9,4.07,5.19-2,4.75-9,4.76-13.5a35.38,35.38,0,0,0-3.29-14.67c-4.21-10.33-10.23-19.9-16.4-29.18A71.9,71.9,0,0,0,503.08,498c-5.2-2.16-9.9-5.71-15.32-7.19A32.23,32.23,0,0,0,483.05,490.63ZM451,657.44c-2.31.52-2.61,3.48-3.16,5.39-2,10.4-3.79,20.93-7.08,31q-6.45,19.86-13.09,39.66c-1.15,4-3.7,7.71-4.08,12,.2,3.69,4.28,5.17,7.2,6.3,3.37,1,6.71,2.81,10.31,2.69,3.23-.73,3.61-4.66,4.37-7.3,2.46-11.78,5.35-23.45,7.89-35.22,2.45-12.82,5-25.6,7.51-38.4-.26-2.31-2.61-3.7-3.63-5.69-2.24-2.73-2.85-6.29-4.52-9.31a2.09,2.09,0,0,0-1.72-1.06Z"/><path class="cls-4" d="M495.32,258.28a8.83,8.83,0,0,0-1.26,0c-8.67.46-17.53,6.35-19.45,15.16-1.39,4.34-3.49,8.86-2.91,13.47,2.29.88,2.61-2.8,3.87-4.19,3.73-5.74,8.61-11,14.7-14.19,5.54-2.66,12-1.37,17.65-3.25.25-2.35-3.31-2.31-4.71-3.73a14.17,14.17,0,0,0-7.89-3.27Zm-110.8,56c-2.62.85-2.26,4.59-1.59,6.71,1,2.77,2.63,6.13,5.6,7.1,2.38-.57,1.07-3.77.68-5.37-1.13-2.83-1.71-6.39-4.16-8.38A1.19,1.19,0,0,0,384.52,314.32Z"/><path class="cls-5" d="M518.5,201.05c-2,.27-5.19,1.78-4.67,4.23,1.07,1.49,2.87,1.76,4.64,2.12h-.07c-6.32.06-9.74,6.66-10.42,12.17a76.35,76.35,0,0,1-2,10.9,89.11,89.11,0,0,0,5.14,28.18c1.59,4.48,4.25,9.68,9.25,10.84,2.94.14,4.77-3.36,3.79-5.94a35.83,35.83,0,0,1,6.24-29.39c1.64-2.3,5.29-4.46,7.57-1.74,1.15,1.14,2.34,4.18,4.31,2.73,1.09-2.56-.79-5.39-1.6-7.82-3.19-6.38-7.51-12.75-13.5-16.78a3.77,3.77,0,0,0,2.3-.4c1-2.23-1.32-4.53-2.89-5.92a15.06,15.06,0,0,0-8.1-3.18ZM534.76,204c-2.27.35-.89,3.09,0,4.17a153.13,153.13,0,0,1,20.12,37.5c-1.73-2.53-3-5.67-5.61-7.44-2.36.05-1.23,3.39-1.66,4.91-.49,6.08.5,12.49-2.36,18.12-1,1.7-.44,4.43,1.9,4.38A41.74,41.74,0,0,1,566.91,274a1.51,1.51,0,0,0,2.67-1.36c0-3.6-2.31-6.55-2.67-10.1-2.08-11.25-4.71-22.6-9.63-33.05-4.33-9.66-10.67-19-19.9-24.53a6,6,0,0,0-2.62-.95Zm-2,29.87c-3.39.71-5.89,5.36-3.33,8.26,1.14,2.1,4.21,3.45,6,1.3C539.1,240.67,537.29,234.17,532.74,233.84ZM417.4,255c-8.78.07-15.33,7.86-17.57,15.77-2.92,9.49-3.76,20.14-.29,29.6a14.33,14.33,0,0,1,2.25,7.83c1.22,6.77,5.59,12.43,9.11,18.17,5,7,10.13,14.39,17.14,19.62,4.92,2.7,10.59,4.88,16.29,4.37,6.66-1.17,13.58-4.14,17.58-9.83,4-6.44,2.79-14.55,1.95-21.7C460.45,298.53,452,278.26,436.7,264,431.45,259.14,424.79,255,417.4,255Zm31.37,45.31c.47,0,1,0,1.41.06,1.75,1.2,2,4.67,3.12,6.73l.1.25c2.24,6.49,5.21,13,5.64,19.89,0,6.15-5.9,9.65-10.8,12-3.7,1.5-7.77,3.32-11.83,2.36-4.63-2.78-5.56-8.93-5.71-13.89.11-8.78,2.54-18,8.91-24.38,2.39-2.57,5.83-3.05,9.16-3Zm-5.71.86c-3.65,1-5.24,5.34-5.44,8.77,0,3.14,1.53,7.87,5.41,7.54,8-.23,6.58-12,2-15.68A3.37,3.37,0,0,0,443.06,301.21Z"/><path class="cls-6" d="M490.9,408.14c-5.46.13-11.57,1.18-15.46,5.32-1.72,1.89-.19,4.44,1.85,5.27,7.86,4,14.7,11.94,14.36,21.19,0,2.83.18,5.7-.38,8.4-1.4-6.38-2.19-13.15-6.06-18.65C481,423.26,474.15,417,466,417.54c-5.6.41-8.86,5.86-9.87,10.85-2.21,7.6-2,15.66-1.46,23.48,1.56,8.32,8,16.59,17,17.05,8,.79,15.92-1.27,23.05-4.79A93.55,93.55,0,0,0,516,450.44c1.43-2.35,1.07-5.32.34-7.81-.63-5.69-.07-11.56-.89-17.17-1.94-4.69-4.71-9.12-9-12-3.7-3-8.06-5.42-12.94-5.31-.85,0-1.69-.06-2.54-.05Z"/><path d="M734.57,0C709.48,0,700.47,17.47,693,80.5c-2.46,20.84-3.11,24.61-5.62,32.6-6.48,20.56-7.23,21.47-12.61,15.33C659.66,111.19,629,115.94,619.58,137c-8.63,19.23,4.15,38.4,28.71,43.06,9.32,1.76,9.15,3.78-1.3,15.48-8.88,9.94-16.48,20.65-18.19,25.67-1.47,4.3-5.8,6.3-5.8,2.68,0-4.38-15.72-19.07-23.77-22.22-8.39-3.28-21.24.05-33.73,8.74a19.54,19.54,0,0,1-3.5,2.12,14.39,14.39,0,0,0-2.78,1.31c-2,1.13-2.52,1-4.5-1.44-6.07-7.37-13-14.24-16.44-16.19-6.36-3.65-12-6.07-15.86-6.79-2.37-.45-5.28-2.24-8.22-5-2.51-2.41-5-4.37-5.64-4.37s-2.88-1.73-5.07-3.84a57.52,57.52,0,0,0-6.74-5.61c-3.11-2-3.39-3.79-1.24-7.92a13.34,13.34,0,0,0,1.49-4c0-.64,1.24-3,2.75-5.14,8.46-12.28,3.69-37.06-11.7-60.82-8.08-12.48-8.35-17.32-1.65-30,13.6-25.79,7.85-43-14.4-43.1-15.46-.07-21.59,7.33-27.07,32.68-1.14,5.26-1.81,6.24-8.51,12.25C429.13,71,421.67,81,418.49,88.5c-.93,2.2-2.72,6-4,8.5-3.19,6.28-6.22,19.75-7,31s-1.73,13.87-5.13,13.23c-5-1-35.24,12.26-33,14.45.39.39,14-5.61,19.89-8.75,2.33-1.25,4.12-1.17,5.53.24.77.77,5.93,1.22,15,1.32,30.89.31,51,7.3,46.26,16-2.32,4.25-3.62,20.15-1.8,22s2.82-1.29,2.82-9c0-12.53,3.43-18.39,8.74-14.91,2.07,1.35,2.35,2.11,1.78,4.77-1,4.64-1.8,24.41-1.09,27.23,1.19,4.74,2.57,2.36,2.57-4.42,0-7.79,1.26-12.22,4.79-16.9,1.34-1.79,2.06-3.28,1.58-3.31s.22-.5,1.55-1c2.54-1,1.65-1.51,18.41,10.21,2.84,2,5.18,4,5.19,4.5s1.26,2.12,2.8,3.64l2.79,2.76-3.94,4.74c-6.32,7.59-11,21-8,22.87.49.3.61,2.42.27,4.71-.73,4.91,1.64,17.28,5,26.32,2.73,7.27,2.39,7.75-4.3,6.21-11.46-2.65-21,3.88-26.72,18.26-3.32,8.36-5.82,10.85-7.22,7.19-2.35-6.14-14.85-19.21-22.89-23.93-30-17.62-53.19-2-53.94,36.49l-.25,12.37-3.54,3.55c-3.53,3.53-3.58,3.54-7.86,2.26a52.12,52.12,0,0,0-10.31-1.59c-6.49-.31-10.64-1.13-23-4.52-4.4-1.21-9.34-2.43-11-2.72a9.51,9.51,0,0,1-4.2-1.76c-.68-.67-4.52-2-8.53-3-9.69-2.31-11.38-3.47-12.17-8.43-.36-2.24-1-4.07-1.44-4.07s-1.38-1.69-2.11-3.75-4-7.47-7.2-12c-7-9.92-6.82-8-2.48-21.73.87-2.75,1.74-5.9,1.94-7,.44-2.42.74-3.21,6.39-16.5,4.86-11.44,7.93-17.18,11.17-20.9a8.3,8.3,0,0,0,2.1-3.75c0-.74.35-1.35.79-1.35s1.63-1.46,2.67-3.25c2.74-4.7,26.71-35.75,27.6-35.75.41,0,2.64-1.58,4.94-3.5a39,39,0,0,1,4.56-3.5c1.38,0-1.47,3.23-6.58,7.44-3.29,2.71-6,5.35-6,5.85s-1.14,2.28-2.54,3.94-2.25,3.3-1.89,3.65,1.37-.5,2.25-1.88c1.89-2.95,11-12.07,16.87-17,2.29-1.9,3.91-3.88,3.59-4.4s-.1-.64.51-.27c1.26.78,7.52-2.73,6.56-3.68-.35-.35-.06-1.34.65-2.19,3-3.67-15.33,4-19.44,8.09-2.25,2.25-4.34,1.1-5.08-2.79s-2.77-6.52-7-9.22c-9.64-6.17-21.64-21.07-27.33-33.93-2.73-6.16-4.6-6-12.73,1.24-2.24,2-6.34,5.63-9.11,8.11l-5.05,4.5-11.89,0c-26.89.07-44.18,12.73-60.5,44.32l-4.32,8.35,0,12.65c0,8,.47,14.32,1.33,17.15,4.26,14,5.45,17.13,7.29,19.47,3.81,4.84-1.58,8-5.76,3.42-8.64-9.57-44.6-16-66.51-11.88-24.27,4.56-27.45,6.84-14.27,10.22,16.71,4.28,17.09,3-7.12,23.29-12,10-14.56,12.42-18.81,17.35s-2.63,6,2.37,1.52c7.24-6.53,30.53-19.39,35.11-19.39a4.06,4.06,0,0,0,2.38-.87c15.77-14.4,85.91-8.84,91.06,7.22.95,3-6.15,6-20.31,8.72l-6.19,1.17-5.92-3.95c-23.88-16-56.57.65-46.21,23.47C157.72,294.42,175.5,306,189.19,306A9.9,9.9,0,0,1,199,316c0,35.31,45.46,65.76,77.6,52l4.34-1.86,3.33,4.2A71.68,71.68,0,0,1,299,401.56c.6,3.27,1.33,7.12,1.63,8.57s-.17,6.82-1,11.93c-5.15,30,4.84,61.36,22.43,70.45,1.86,1,3,2.33,3,3.63,0,2.39,0,2.39-27.5-.52-8.25-.87-21.08-1.8-28.5-2.06-14.48-.51-21-1.31-21-2.57,0-.43-3.94-1.31-8.75-1.95s-12.9-2.07-18-3.18l-9.23-2-1-3.67c-3.42-12.76-2.92-17.62,2.71-26.05,15.38-23,17.29-41.42,6-57.91-16.6-24.28-58.45-11.15-66.28,20.8-2.25,9.17-4.92,10-9,2.88-.56-1-2.44-4.2-4.19-7.18-29.3-50-112.95-61.34-110-14.95,1.51,24.24,22.43,41.39,62,50.81,6.77,1.61,5.26,12.92-2.62,19.6-3.85,3.27-3.09,4.45,1.6,2.49s8.87-7.65,9.5-13.22c.5-4.4.6-4.52,3.37-3.91,10,2.2-3.15-6.43-17.13-11.23-5.89-2-18.86-8.26-19.57-9.42-.31-.5-2.45-1.85-4.75-3-23.23-11.59-33.8-46.32-16.42-53.94,23.9-10.48,63.45,10.63,103.42,55.2,6.85,7.64,9.31,7.64,9.35,0,.1-19.39,19.84-41.34,35.88-39.88,24.67,2.23,32.71,26.43,18.26,55-7.83,15.48-9.1,21.81-5.7,28.38a27.67,27.67,0,0,1,2.12,7.17c.88,5.86,18.52,13.69,29.41,13.07,1.37-.08,8.12.81,15,2s19.92,2.59,29,3.17c17.88,1.15,20.24,1.39,36,3.64,19.64,2.82,37.89,6.61,40.5,8.41,1.49,1,10.89,4,17.86,5.63C397,522.28,411.82,523,425.42,520c16.74-3.68,25.14.15,32,14.57,4.74,10,5.45,12.94,6.17,25.95q1.26,22.73,3.85-.14c2-17.64-1.48-31.37-10.17-40.35-6-6.21-6.06-7.44-.36-9.14,5.13-1.54,6.19-.69,8.55,6.82A95.7,95.7,0,0,0,476.54,542a63.65,63.65,0,0,1,7,15.5c1.49,5,3.33,10.58,4.11,12.5,4.12,10.23,5.81,23,5.61,42.5-.17,17.83-.55,21.63-3.51,35.5a31.18,31.18,0,0,0-.91,6.71C490,660,477.63,674,471.81,674c-5.24,0-15.81-12.09-15.81-18.08,0-1.45,7.67-1.07,13.7.68,7.5,2.18,8.85.75,3.92-4.18-2-2-3.56-3.75-3.4-3.82.89-.43,7.94-3.06,12-4.47,8.72-3,6.25-3.61-18.69-4.28-20.21-.54-60.73-3.66-69.5-5.35-1.38-.26-7-.92-12.5-1.46-16.07-1.57-31.85-3.92-40.74-6A83.3,83.3,0,0,0,330,625c-9.43-.21-11.3-5.18-2.42-6.46,7.37-1.06,9.22-2.83,3.42-3.26-1.92-.15-7.67-1-12.77-1.78s-11.85-1.74-15-2A69.42,69.42,0,0,1,288.5,609c-8.92-2.65-23.26-7.21-25-8-1.1-.48-3.8-1.4-6-2.06-6.1-1.84-26.4-11-45.15-20.29-9.27-4.6-19.44-9.42-22.6-10.7-6.41-2.58-6.87-3.55-3.28-6.92s2.17-4.2-3.24-1.8-18,4.63-23.73,4.12c-2.2-.2-7.63-.87-12.07-1.49l-8.07-1.13-6.43,6.39c-6.43,6.39-8.49,8.11-16.93,14.18-4.68,3.36-6.22,4.18-14.41,7.65C60.15,606.5,23.74,579.11,49,549.39c6.09-7.17,25.13-16.41,37.07-18,6.09-.81,6.74-2,4.45-8-1.37-3.61-1.47-4.79-.47-6,2.08-2.51.36-2.78-9.21-1.47-19.84,2.71-44.36-2.84-55.67-12.59-8.69-7.51-10.14-9.09-13.64-14.9-11.32-18.8-.13-27.83,27.14-21.91,21.2,4.6,41.55,4,49.3-1.55,3.66-2.61,4.17-5.6.78-4.58-7.18,2.14-23.35,1.75-35.75-.86C25.61,453.82,15.26,454.8,5.87,464L0,469.83v7.83C0,494.93,10.55,510.36,27.5,518c5.44,2.46,26.05,7.36,27.43,6.52,3.51-2.15,27.47-2.52,29.66-.46,4.22,4,3.22,4.57-8.46,5.18a53,53,0,0,0-42.86,25.1c-7.15,11.3.27,34.53,13.23,41.38,12.69,6.71,41.57,6.93,54.35.4,2-1,5.67-2.77,8.15-3.89,4.49-2,19.45-13.5,25.92-19.88,4-4,3.65-3.94,12.58-1.36,8,2.32,15.61,1.93,21.66-1.12,4.81-2.43,10.94-.74,20.44,5.63a78.28,78.28,0,0,0,7.09,4.47c.23,0,3.88,2.18,8.11,4.84l15.7,9.87c21.7,13.65,39.13,19.25,68,21.86,7.15.65,11.75,2.27,28.5,10,5.22,2.42,10.62,4.41,12,4.41s4.87,1.11,7.77,2.46A123.18,123.18,0,0,0,358,640.3c1.38.27,8.12,1.65,15,3.05s17.21,3,23,3.67a103.56,103.56,0,0,1,11.13,1.54c.37.22,7.81.47,16.54.55,21.63.19,22.91.91,20,11.11-.84,2.91-2.7,9.78-4.14,15.28-3.76,14.38-7.39,27.17-9.5,33.5-5.39,16.19-9,26.11-10.38,28.84-5.43,10.51,8.09,23,28.42,26.28,14.61,2.33,18.73,2.77,21.5,2.29,5.76-1,6.36.49,6.63,16.32.14,7.82.05,14.41-.19,14.63-5.33,4.89-17.59,8.14-16.55,4.39,4.54-16.34-1.94-26.38-16.79-26-11.62.28-15.24,4.16-19.58,21-1.8,7-15.28,3.87-20.73-4.75-4.79-7.59-5.46-8-4.92-3.13,1.84,16.9,17.44,31.11,32.74,29.82,6.95-.58,8.44,0,13.68,5,6,5.8,18.92,8.1,29.71,5.3,9.89-2.57,9.35-2.85,12.81,6.69,11.44,31.54,42.66,57.68,74.83,62.64,18.6,2.86,37.67,1.22,63.36-5.47,25.36-6.6,53.43-25.85,64.67-44.36a60.53,60.53,0,0,1,5.36-7.5c2.73-2.94,11.47-19.37,11.47-21.56a9.77,9.77,0,0,1,1.62-4,6.72,6.72,0,0,0,1.09-4.48c-1.11-4.24,9.65-7,17.33-4.47,5.88,2,8.74,5.13,13.35,14.79,19.75,41.36,51.17,34.79,72.6-15.19,19.7-45.94,29.16-54.27,49-43.12,15.91,8.94,23,6.9,21.64-6.22-.75-7.32,2-9.54,8.71-7.15a25.75,25.75,0,0,0,21-1.84c6.33-3.32,16.64-10.54,16.64-11.65a15.44,15.44,0,0,1,2.8-3.63c17.62-18.94,30.18-52.21,18.37-48.67-6.52,2-10.49.82-7.52-2.14,5.81-5.82,3.87-13.24-2.72-10.4a100.36,100.36,0,0,1-9.43,3.5L919.64,678c-11,3.23-21.9,2.49-18.83-1.27,1.57-1.92,15.19-37.3,15.19-39.45,0-8.69,7.28-14.75,19.29-16.07,12.79-1.41,15.32-4.73,9.61-12.68s.48-12.33,14.38-10.49c20.51,2.71,36-8.52,43.22-31.32,3.7-11.62,1.6-34.85-3-34-.55.1-1.37-.48-1.82-1.28-.64-1.14-2.2-.18-7.24,4.43-6.38,5.85-14.15,9.88-17,8.8-2.55-1-1.63-2.24,4.28-5.91,9.22-5.7,11.6-8.71,10.77-13.63-.94-5.52-1.7-5.71-7-1.69-11.32,8.64-15.77,9.93-36.43,10.56-20,.61-25.74,2-31.88,7.95-1.24,1.19-2.25,1.9-2.25,1.58,0-6.51-11.26,11-15.51,24.12-3.58,11-3.73,11.9-5.52,31.89-2.86,31.86-8.83,48.78-20.15,57.13-5.47,4-13.24,2.45-8.26-1.68,1.78-1.48,3.59-5.5,7-15.45,1.29-3.85,3.22-9.48,4.28-12.5,11.45-32.73-5.06-93.8-32.47-120.13C798.41,466.6,717.69,485.56,703.72,539c-.76,2.91-3.56,2.54-4.34-.56-1.08-4.33.32-23.55,2.07-28.38a19.22,19.22,0,0,0,1.36-6.52C702.18,498.65,722.61,478,728,478c3.83,0-4.75-4.87-14.89-8.45a42.53,42.53,0,0,1-5.77-2.47c-2-1.17-14.34-5.39-28.38-9.72-4.68-1.44-9-3-9.67-3.55a24.49,24.49,0,0,0-6-2.12c-4.25-1.05-4.87-1.54-5.16-4.08-.41-3.59,3.4-32,5.39-40.11,1.88-7.73,5.56-28.92,5.83-33.66.17-2.79,1.4-5,5.16-9.36,27.15-31.22,41.9-64.87,45.37-103.48.61-6.88,1.3-13.62,1.53-15,1.21-7.41,2.34-17.09,2.49-21.44.23-6.5-.22-6.17,9.38-6.85,18.83-1.33,39.46-15.18,50.49-33.9,3.37-5.71,3.21-5.65,12.56-5.07,39.08,2.41,67.52-27.11,53.66-55.74-5.38-11.13-25.81-10.4-42.39,1.51-5.53,4-9.64,4.62-9.64,1.51,0-2.25,10.38-14.12,15.9-18.18,10.78-7.93,23.76-29.44,25-41.34,3.15-31.72-3.81-42-28.44-42-19.09,0-26.12,8.12-37.56,43.41-10.57,32.59-14.34,36.58-28,29.54-3.41-1.77-4.17.1-1.14,2.81,3.29,2.94,20,6.59,24.15,5.27,2.64-.84,2.76-3.53.16-3.53-3.26,0-3.34-1.85-.27-5.77,2.87-3.64,14.64-26.78,18.69-36.73,9.89-24.29,20.13-31.95,34.76-26,12,4.89,13.33,29.09,2.66,49.62-5.55,10.67-7.16,12.82-16.36,21.88-14.81,14.59-17.43,19.45-14,26.05,2.18,4.21,7.76,4,16.47-.48,3.58-1.86,9.2-4.78,12.5-6.48C845,112.52,856,140.35,836.59,159.5c-13.9,13.69-47.68,23.16-46.76,13.11.41-4.51-1.2-4.67-3.55-.36l-1.78,3.25-.31-4.25c-.39-5.38-1.56-5.38-4.12,0C769,194.46,743.36,213,722.27,213c-7.84,0-9.07,1-4.22,3.53,2.06,1.06,2.9,2.13,2.58,3.27-.26.94-.76,2.82-1.11,4.2a41,41,0,0,1-1.48,4.5,53.55,53.55,0,0,0-1.88,7.5c-7.53,39.67-9.81,50-13.4,60.5-4.17,12.24-12.41,30.59-16.17,36a63.23,63.23,0,0,0-4.21,7.5c-1.17,2.48-4,7.42-6.18,11-8.1,13-18.71,30.37-19.08,31.33-.22.54.55.73,1.75.42,2.85-.75,2.76.56-.78,11.65-2.64,8.25-7,31.17-8.7,45.88-.92,7.91-4.72,8.62-30.89,5.78L599,443.94c-4.68-.52-10.34-.94-12.6-.94-6.13,0-22.89-16.36-18.61-18.17.85-.35,7.21-9.58,7.21-10.45a19.44,19.44,0,0,1,2.5-3.79c1.38-1.8,2.5-3.69,2.5-4.2a17.36,17.36,0,0,1,2.49-4.59c2.84-4.17,17.94-34.09,19-37.64a76.72,76.72,0,0,1,3.62-8.21c3.48-7,11.89-33.44,11.89-37.35a34.13,34.13,0,0,1,1.4-6.41c.76-2.58,1.86-7.39,2.43-10.69s2.24-11.4,3.71-18c2.12-9.59,2.76-15.56,3.17-29.74.29-9.95.9-17.5,1.4-17.19s.89.17.89-.3,2.25-4.42,5-8.77,5-8.52,5-9.25c0-1.64,7.37-11.65,11.59-15.75a40.4,40.4,0,0,0,4.86-5.75c2.38-3.68,2.58-3.62,8.93,3,7.81,8.2,26.19,12.63,34.38,8.3,1-.5,3.31-1.5,5.23-2.22,3.58-1.34,11-7.39,11-9s-3.18-.84-6.73,1.87c-5.2,4-23.29,4.7-29.68,1.2-10.19-5.58-18.81-18.8-12.34-18.93,2-.05.42-2-1.64-2-31.4,0-51-29.43-31.14-46.84,16.32-14.33,38.58-8.78,45.4,11.32,1.3,3.83,3,7.43,3.66,8a6.63,6.63,0,0,1,1.85,3c.31,1.1.36-1.08.12-4.84s-1.13-8.22-2-9.9c-2-4-2-4.31,1.08-8.32,4.71-6.17,10.69-26.68,14.28-48.94,1.32-8.17,3.46-16.84,10.14-41C723.3-10.12,767.72.06,756,52.25c-2.41,10.7-8.37,29.43-11.15,35-3.27,6.54-3.68,8.71-1.28,6.71,2.84-2.35,7.15-9.34,9.84-16,1.46-3.57,3.25-7.6,4-9C776.23,34,765,0,734.57,0ZM473,24.63a9.9,9.9,0,0,1,4.12.66c10.27,4.29,8.53,30.35-3.12,46.83l-4.71,6.66c-3.12,4.44,2.8,3,7.06-1.65,4.07-4.51,4.35.64.52,9.58-1.91,4.46-.68,6.13,2.08,2.8,4.93-5.93,12.91,26.61,10.06,41-1.72,8.71-5,18.43-7.72,22.72-2.85,4.53-2.85,4.53-12.72-.22-6.43-3.09-8.15-4.42-9.31-7.15a22.12,22.12,0,0,0-3.56-5.65,7,7,0,0,1-1.92-5.6,8.78,8.78,0,0,0-1.8-5.88c-3-3.88,1.06-18.25,6.51-22.78,1.56-1.29,2-4,.68-4-4.52,0-17,21.92-19.29,33.85l-1.22,6.36-7.6-.71a55.47,55.47,0,0,1-8.35-1.16c-2.57-1.56.08-31.95,3.82-43.8,4.23-13.44,7.9-19.35,19.19-30.94C456.08,55,457.67,52.25,454,51.29c-2.52-.66-2.5-1.09.33-7.51a67.72,67.72,0,0,0,3-7.9c1.47-5.87,9.3-11,15.72-11.25ZM301,111.21c.88-.1,1.46.91,2.54,3.2a54.83,54.83,0,0,0,7.05,9.4c3,3.3,5.43,6.43,5.43,6.95,0,1.17,10.8,8.83,14.34,10.18,3.23,1.23,6.51,7.48,6.28,12s-2.62,5.37-2.62.8c0-8-8.44-14-16.51-11.87-3.86,1-18.49,13.07-18.49,15.2,0,.5-1.71,3.73-3.8,7.17s-4.62,8.07-5.62,10.27-3.28,7.15-5.06,11a161.41,161.41,0,0,0-6,16c-1.54,4.95-3.12,9.9-3.51,11-1.54,4.32-2.91,11.55-4.56,24-.95,7.15-2.22,13.33-2.82,13.73a3.55,3.55,0,0,1-2.1.59c-.55-.09-2.72-.33-4.82-.55A24.09,24.09,0,0,1,252.3,247a27.31,27.31,0,0,0-8.73-3.52l-4.17-.63.12-9.66c.16-13.11,2.25-29.53,4.57-36a32.2,32.2,0,0,0,1.91-7.56,8.23,8.23,0,0,1,1.47-4.21,8,8,0,0,0,1.5-3.94,12.25,12.25,0,0,1,2.08-5,73.67,73.67,0,0,0,4.54-8.5c1.39-3,3.14-6.85,3.91-8.5s2.09-4.72,2.93-6.83,3.79-5.87,6.55-8.35,5-5,5-5.58c0-1.16,11.91-13.72,24-25.33,1.42-1.36,2.29-2.12,3-2.2ZM266.45,125.4A5.14,5.14,0,0,1,269,126c1.24.77.45,5-.94,5-1.92,0-10.63,13.11-16.81,25.31C241.54,175.55,241,176.79,241,179.84a6.79,6.79,0,0,1-.88,3.71c-1,1.08-4.22,11-6.48,19.95-1.53,6.06-3.12,19.43-3.53,29.75-.26,6.54-5.42,1.82-14.51-13.28-9.27-15.41-9.54-49.16-.47-60.9,1.09-1.41,3.26-4.41,4.82-6.66C227.83,141,256.14,125.14,266.45,125.4ZM394.7,137.3c-1.44.09-5.28,1.22-11.46,3.41-11.7,4.13-36.75,21.77-40.27,28.35-.63,1.16-.66,1.94-.09,1.94a1.49,1.49,0,0,0,1.29-.79c.3-.72,12.75-9.86,20.18-14.81,3.11-2.07,10.69-6.3,23.89-13.32,6.2-3.29,8.31-4.89,6.46-4.78Zm53,1c.51,0,1.08.29,1.8,1a36.69,36.69,0,0,0,3.32,2.89,19.9,19.9,0,0,1,3.07,3c1.18,1.51,1.16,1.75-.19,1.75a2.8,2.8,0,0,1-2.18-1,3.3,3.3,0,0,0-2.54-1c-2.52,0-5.68-4.68-4.17-6.19A1.47,1.47,0,0,1,447.68,138.33Zm-125.25,9.76a5,5,0,0,1,3.74,1.66c5.87,6.92,6.72,10.94,3.08,14.47-1.51,1.47-3.93,3.94-5.37,5.48s-5.11,5.84-8.15,9.55c-6.15,7.52-7.15,7.26-6.13-1.58.56-4.83.36-5.48-3.06-9.93-2.15-2.81-3.35-5.27-2.91-6,4.78-8.1,13.31-13.86,18.8-13.65Zm50.89,37.8a21.45,21.45,0,0,0-14.5,5.49c-6.85,6.58-13,19.07-12.68,25.89.11,2.69.2,2.81.56.73,3-17.41,21.32-32.38,34.2-27.88,4.46,1.55,5,.4,1-2.06A16.51,16.51,0,0,0,373.32,185.89Zm145.38,16c4.18,0,10.3,3.9,10.3,7.39,0,1.14-2.22.68-6.5-1.34a19.75,19.75,0,0,0-6.25-1.92c-2.86,0-2.88-1.48,0-3.47a4.22,4.22,0,0,1,2.48-.66Zm-144.07,1.28a15.15,15.15,0,0,0-5.32.88c-13.2,5-20.34,31.81-15.15,56.93,1.16,5.62,3.8,8.22,3,2.91-5.84-36.79,17.42-60.54,41.38-42.24,2.55,1.94,4.93,3.24,5.29,2.88s.16-1-.43-1.34a6.56,6.56,0,0,1-1.82-3C398.75,211.22,385,203.16,374.63,203.18Zm160,1.43a5.85,5.85,0,0,1,2.1.78c13.26,6.94,24.8,28.68,28.73,54.11,1.27,8.18,2.61,11.09,4.15,9,2.57-3.51,1.31-17.31-2.56-28-6-16.66-6.86-21.11-4.09-22,1.09-.35,1.88-1.13,1.75-1.73-1.18-5.65,34.17-6.26,40.86-.71,11.58,9.61,17.15,40.31,12.38,68.18L615.48,299a139.24,139.24,0,0,1-4.92,21.25c-2.23,7.52-2.53,7.38-7.49-3.5C591.24,290.81,563.63,265,547.7,265c-2.56,0-2.9-1.72-1.05-5.22,1.27-2.4,1.75-5.78,1.79-12.57l.06-9.29,2.26,2.79a48.59,48.59,0,0,1,4.32,6.79l2.06,4-.68-3.5c-1.44-7.4-12.89-29.9-19.13-37.6-3.13-3.85-4-5.87-2.68-5.79Zm-16.08,3.49c6.08,0,13.83,5.87,20.45,17.44,3.4,5.94,3.85,12.91.48,7.46-6.76-10.93-20.14,12.25-16.49,28.55.77,3.42.74,5.05-.1,6.06-1.73,2.08-3.45,1.7-6.62-1.48-2.8-2.79-3.92-5.3-7-15.63-1.56-5.29-3.31-21.6-2.24-20.95.34.22.91-3.05,1.27-7.26.8-9.5,4.85-14.16,10.21-14.19ZM533,234.68c2.81.09,5.14,5,2.46,7.71-2,2-2.91,2-4.89,0-2.14-2.15-2-4.76.46-7A2.73,2.73,0,0,1,533,234.68ZM418.31,255.77c18,.59,40.73,30.07,45.24,66.18,1.86,14.91-1.59,21.67-13.29,26.05-7.2,2.7-8.82,2.59-19.59-1.29-8.52-3.07-30.47-34.59-28.2-40.49a3,3,0,0,0-.33-2.6C396,296,396.93,274.15,403.77,264c4-5.88,9-8.41,14.54-8.23ZM179,256.84c8.24,0,17.35,3.59,24.84,10.6,2.68,2.51,5.39,4.56,6,4.56,1.64,0,1.42-2.53-.35-4a4.18,4.18,0,0,1-1.5-2.62c0-1.38.74-1.54,8.75-1.95,2.34-.12,8.64-.72,14-1.34,38.2-4.38,73,19.13,75.08,50.71.48,7.42,3.41,8.84,4,1.94.36-4.34,1.42-4.59,9.94-2.32,2.89.77,5.25,1,5.25.52s.56-.72,1.25-.53l6.75,1.95,13,3.75c4.12,1.18,8.13,2.66,8.9,3.27s6.85,2.31,13.5,3.77c20.74,4.54,23.05,6,38.38,23.64,14.72,17,44.22,20.58,57.28,7,6.89-7.17,10.4-26.5,8.4-46.28-1.94-19.33,13.07-41.74,27.76-41.43,2.94.06,8.54,1.69,6.42,1.86-.47,0,.19.92,1.47,2l2.34,1.89L508,279.09a38.36,38.36,0,0,1-4.82,7.87,34.75,34.75,0,0,0-4.39,6.54A23,23,0,0,1,496,298c-.87.63-4.05,13.74-4,16.69,0,5.18,2,2.61,5-6.45,4.81-14.41,6-15.58,6-6,0,10.3,2.6,25.16,5.38,30.72a64.58,64.58,0,0,1,3.55,9c2.37,8.18,3.34,10.43,7.95,18.3,6.33,10.82,20.31,24.58,17.48,17.2-.32-.82-.92-1.5-1.35-1.5-3.1,0-20-30.05-20-35.56a9,9,0,0,0-1.4-3.73c-3.25-5.14-5.24-25.38-4.09-33.39l.56-12.7.09,0a22.49,22.49,0,0,1,1.45-4.58c2-5.13,3.86-5.3,3-.27a49.26,49.26,0,0,0-.63,5.5,1.8,1.8,0,0,1-.19.82l.86,12.86a73.69,73.69,0,0,1,1.39,7.39A47.67,47.67,0,0,0,519,321a25,25,0,0,1,1.48,5c2.84,14.48,12.37,31.77,23.82,43.22,5.36,5.36,9.75,10.11,9.75,10.55,0,3.17-31.21,9.2-47,9.09-26.79-.19-48.68,16.85-58.39,45.45-10,29.55,23.4,51.53,49.89,32.81,8.21-5.8,21.84-15.89,23.76-17.61,1-.86,4.23-2.35,7.24-3.3,5.79-1.84,7.12-3.24,3.07-3.24-3.84,0-4.22-14.17-.57-21a10.15,10.15,0,0,0,1-4c0-1.45-1-.36-2.89,3.33a40.83,40.83,0,0,0-4.23,19.81c.2,3.95-.73,5-5.68,6.72a24.07,24.07,0,0,0-6,3.22c-39.68,30.94-67.88,19.28-57.08-23.61,4.82-19.15,29.76-6.19,32.45,16.86.9,7.75,2.84,6.95,3.23-1.33a25.35,25.35,0,0,0-14.44-24.46c-10.68-5.07,10.49-13.08,21.64-8.19,3.91,1.71,12,8.32,12,9.8a10.42,10.42,0,0,0,1.64,3.46c1.25,1.91,1.59,4.59,1.44,11.47-.17,7.49.07,9.08,1.43,9.6,2.5,1,3.31-.59,3.9-7.47.51-5.81,3.45-17.85,5.55-22.67.48-1.1,2.12-5.38,3.63-9.5,3.47-9.46,4.84-10.94,10.53-11.39a21.58,21.58,0,0,0,6.8-1.57,71.52,71.52,0,0,1,8.06-3.11c10.16-3.34,14.34-5.55,22-11.66,14.59-11.56,15.81-11.07,8.61,3.44-9.6,19.38-13.5,25.55-32.33,51.21-.71.95-1.52-1-1.84-4.45a13.86,13.86,0,0,0-.77-4.1c-.69-.69-1.8,7.65-1.16,8.69.55.89-2.86,11.83-5.73,18.44-8.2,18.85-34.62,37.77-51.31,36.76-2.2-.14-9.85-.41-17-.6-11-.31-13.67-.7-17.35-2.58-5.65-2.89-6.28-2.13-1.17,1.41,3.93,2.72,4,2.92,4.2,9.15.1,3.5.21,7.33.25,8.52.08,2.6-9.63,8.84-13.78,8.84a40.31,40.31,0,0,0-6.69,1.9,60.43,60.43,0,0,1-13.3,2.34c-4.82.27-8.15.93-8.63,1.71s-1,.94-1.46.16c-.38-.61-3.25-1.11-6.38-1.12a43.34,43.34,0,0,1-9.19-1,62,62,0,0,0-7-1.41A134.81,134.81,0,0,1,366.91,508c-7.59-2.85-10.43-4.05-20.41-8.64a105.55,105.55,0,0,1-14.32-9.44,2.4,2.4,0,0,1-.8-2.44c.28-.73.12-1.47-.34-1.65-2.1-.77-12.89-15-16.26-21.4-8.29-15.79-11.31-50.2-5.63-64.14.62-1.52,1.74-4.19,2.49-5.92,3.72-8.63.53-8.22-5.23.67l-2.9,4.48-.59-8.5c-.6-8.4-4.65-20-7-20-3.08,0-.49-3.71,3.32-4.77,5.86-1.63,7.55-2.83,6.07-4.31-.88-.88-2-.89-4.39,0-9.07,3.16-15.2,1-9.11-3.26,10.88-7.53,10-12-1.58-7.76-14,5.11-38.59,6.27-47.11,2.24-13.47-6.39-16.1-8.13-23.6-15.6-9.56-9.52-17.18-23.11-11.79-21.05,4,1.54,14.55,1.91,14.08.5-.25-.75-2-1.72-3.89-2.16-17.36-4.06-22.42-8.65-11.2-10.17,11.59-1.58,9-4.84-5-6.41-5.4-.59-10.35-1.49-11-2a36.78,36.78,0,0,0-6-2.65c-15.28-5.65-28.38-23.34-22.21-30,4.18-4.52,10.07-6.73,16.48-6.75ZM494.78,259a9.32,9.32,0,0,1,6.18,2,15.09,15.09,0,0,0,4.16,2.57c3.66,1.16,1.79,2-4.87,2.08-7.81.14-12.27,2.17-19.08,8.72a40.53,40.53,0,0,0-6.68,8.66l-2.35,4.5.25-3.5a26.07,26.07,0,0,1,1.76-7,48.42,48.42,0,0,0,2.15-6c1.65-6.66,11.17-12,18.48-12ZM529,269.64c.59,0,1,.07,1,.24,0,.34,3.14.47,7,.29,24.5-1.16,52.93,28.79,61.12,64.38,1.95,8.47-11.7,25.38-30.7,38-4.46,3-8.57,5.41-9.14,5.41-4.82,0-20.85-24.2-27.49-41.5-.84-2.2-2.26-5.8-3.14-8-7.29-18.16-9.7-47.49-4.45-54.14a3.38,3.38,0,0,0,.62-2.42c-.17-.73,1.1-1.57,3-2a14.07,14.07,0,0,1,2.29-.32Zm-38.63,20.7c-3.35,0-14.46,9.28-12.71,11,.88.88.67,1,5.31-2.88,2.31-1.92,5.27-3.77,6.59-4.11,2.46-.61,3.21-2.76,1.37-3.9A1.08,1.08,0,0,0,490.41,290.34Zm2.12,4.66c-2.32,0-8.37,6.66-10.72,11.8-1.18,2.59-2.32,5-2.53,5.45-1.65,3.13,2.83-.23,5.11-3.83a65.17,65.17,0,0,1,6.25-8.14C494.3,296.4,494.8,295,492.53,295Zm-245.06.91a38.62,38.62,0,0,0-11.35,1.74c-5.94,1.92-6.87,3.78-1.37,2.72,14.76-2.82,24.21-.46,24.29,6.07,0,4.4,7,14.56,10,14.56,1.44,0,1.3-.33-2.52-6.13-4.92-7.48-6-14-2-12.52,1.58.6,2.09,1.61,4.94,9.65a29,29,0,0,0,5.1,8.3c3.87,4.21,4.27,5.82,1.93,7.75-4.15,3.45-5,8.6-2.81,16.2.57,1.92,3.38,2.43,3.38.62a28,28,0,0,0-1.11-4.85c-1.33-4.42-.36-6.74,5.4-12.94,4.17-4.49,6.61-5.16,7.43-2,.68,2.58,2.68,2,3.1-.89,2.1-14.25-22.89-28.52-44.35-28.24Zm318.19.82c-1.08,0-.69,1.63,1.75,4.18,2.88,3,3.62,5.13,4.32,12.34.77,7.87-1.86,6.56-3.22-1.61-.51-3.06-1.24-4.09-3.53-4.95s-3-1.84-3.18-4.06c-.47-4.71-3-4.7-2.7,0s3.17,10.85,6.7,14.61c3.09,3.3,9.13,3.95,9.31,1,.51-8.42-1.77-15.74-6.06-19.51-1.58-1.38-2.75-2-3.39-2ZM451.25,299.5l-5.09,0c-14.1.11-22.59,34.11-10.66,42.68,2.52,1.81,13.05-1.14,18.4-5.15,7.82-5.84,7.9-10,.6-29.07Zm-8,2.52c4.21-.1,6.67,11.9,2.86,13.94s-6.32.86-7.54-4c-1-3.95,1.8-9.88,4.68-9.94Zm101.44,9.26c-.66.12-.2,1.62,1.73,4.15,7.33,9.61,8.79,22.49,2.27,20-1.42-.54-3.63-6-3.64-9,0-.59-1.36-2.58-3-4.43-2.08-2.33-3-4.4-3-6.74s-.38-3.15-1.13-2.68c-4.13,2.56,3.13,21.69,9.42,24.79,10.78,5.32,11.41-13.13.81-23.74-1.73-1.72-2.93-2.45-3.45-2.35Zm-160.17,3.8c.89-.13,2,1.8,3.36,5.9,2.23,6.61,1.46,8.49-1.78,4.37-2.43-3.09-3.53-6.69-2.7-8.85.34-.89.71-1.37,1.12-1.42ZM466.15,390c-1.7.24-9.1,8.6-11.18,12.8a35.63,35.63,0,0,1-2.9,5.18c-4.06,3.46-14.74,32.56-15.59,42.5l-.43,5,1-4a39.73,39.73,0,0,1,1.94-6,65,65,0,0,0,2.55-8.5c.87-3.58,2.38-7.62,3.35-9,1.61-2.29,9.14-17.45,10.43-21a83,83,0,0,1,6.06-9c3-4.12,5.3-7.69,5.05-7.94a.27.27,0,0,0-.26-.06Zm95,45.82,4.45,4.78C568,443.24,570,445.67,570,446s2.47,3.29,5.48,6.56,5.76,6.76,6.1,7.77c.57,1.72,4.17,7.56,8.54,13.87a10.54,10.54,0,0,1,1.88,4.61,10.27,10.27,0,0,0,2.25,4.77c1.24,1.57,2.17,3.1,2.07,3.38-.38,1.16,1,6,1.69,6s2.3,3.84,2.1,5.23a30.08,30.08,0,0,0,1.49,5.4c1.85,5.47.39,14.93-2.85,18.41-2.31,2.48-11.21,2.73-14.51.41a26.38,26.38,0,0,0-5.48-2.65C566.13,515.54,552,503.58,552,497.15v-4.22l6.3.18c7.06.19,16.23-3.86,9.45-4.17a52.81,52.81,0,0,1-14-2.53l-5-1.66.58-6.87.57-6.88H547c-3.66,0-4.87-3.51-2.65-7.69.83-1.54,2.73-5.37,4.23-8.51s3.3-5.91,4-6.18,1.56-1.75,1.91-3.3a17.51,17.51,0,0,1,3.65-6.15l3-3.33Zm42.51,40.47c2.6.09,16.89,7.48,21.88,11.46.55.44,2.8,1.86,5,3.16,16,9.48,39.11,29.61,51,44.54,2.19,2.73,6.89,7.92,10.47,11.54a116.12,116.12,0,0,1,10,11.53c1.92,2.73,4.08,5.57,4.78,6.31a28.79,28.79,0,0,1,3.15,5,34.74,34.74,0,0,0,4.53,6.52,86.26,86.26,0,0,1,9.26,13c3.24,5.62,12.19,26,11.75,26.68-.28.45.67,3.43,2.1,6.63s3,6.9,3.55,8.22l.94,2.39,2.47-2.32c2.83-2.66,3.31-7.72,1.06-11.26A33,33,0,0,1,743,611.5c-1.19-5.88-5.3-16.41-6.82-17.47-1-.73-8.15-14.92-8.15-16.29,0-1-3.67-6.59-12.54-19.09-4.07-5.73-4-6.6,1.7-18.15,9.55-19.39,23.31-33,39.34-38.93a39.17,39.17,0,0,0,6-2.65c4.51-3.5,29.76-5.7,40.1-3.49,15.06,3.21,33.67,13.41,37.24,20.39a34.89,34.89,0,0,0,4.61,6.18,33.24,33.24,0,0,1,4.7,6.5c.8,1.65,2,3.9,2.57,5,19,33.79,19.65,88.32,1.62,125.5-2.55,5.24-1.73,7,2.35,5a24.9,24.9,0,0,1,7.78-1.58c7-.33,12-3.15,16.58-9.43,2.42-3.28,3.47-5.13,8-14.09,2.94-5.82,5.86-15.06,6.38-20.17a26.49,26.49,0,0,1,1.34-6.5c1.54-3.08,6.2-28.52,6.2-33.79,0-2.79,8.37-19.39,12.58-25,1.25-1.65,2.2-3.43,2.1-4s2.42-2.49,5.6-4.38l5.78-3.43,6.19,1.31c23.54,5,28.89,45,7.25,54.13C934.83,600,922,608.76,922,610.49a21.07,21.07,0,0,1-2.44,4.21,53.39,53.39,0,0,0-4.67,9.9c-1.23,3.47-2.54,6.12-2.91,5.88-.67-.41-7.36,18.52-8.31,23.52-3.24,17-5.8,20.76-12.24,17.87-17.09-7.67-38.45,4.51-51.93,29.61-12.21,22.74-14.27,26.15-18.78,31.11a41.55,41.55,0,0,1-10,7.84c-9.17,4.57-12.74,3-12.79-5.74A87.68,87.68,0,0,0,796.59,724c-6.62-36.08-33.16-73.67-66.09-93.57-23.26-14.06-65.32-17.65-91.75-7.83-17.68,6.56-31.22,15.28-40.5,26.06-2.61,3-6.22,7.17-8,9.18a19.82,19.82,0,0,0-3.91,6.16,19.46,19.46,0,0,1-2.91,5.51c-2,2.65-7,12.68-10.25,20.74-.61,1.51-1.78,2.75-2.59,2.75-1.55,0-1.91-1-5.48-15.5-1.22-5-3.52-13.28-5.13-18.5s-4.07-13.32-5.49-18A158.44,158.44,0,0,0,549,626c-1.58-3.58-3.89-9.2-5.12-12.5-2.44-6.54-4.91-11.32-9.76-19-4.45-7-4.24-7.69,2.1-7,26.64,3.11,30-26.93,7.24-64.09-3-5-3.09-6.32-.24-7.41a12.92,12.92,0,0,0,4.15-3c2.53-2.8,4.79-2.67,8.55.49C583,536.4,610.69,535.05,609.82,511c-.18-4.84,0-8.6.39-8.35.67.42.4-.62-2.72-10.13-2.92-8.93-4.68-15.64-4.22-16.1a.51.51,0,0,1,.35-.09Zm-69,1.29c7.4.19,15,22.68,8.58,31.29-3.42,4.6-6.63,3.84-16.74-4-5-3.82-10.91-7.88-13.25-9-5.58-2.73-5.48-2.95,3-6.86,7-3.22,11-5.86,15.29-10.05a4.3,4.3,0,0,1,3.12-1.39ZM484.2,491.18c3.26,0,6,.52,6.66,1.56.35.55,3.12,2,6.14,3.26,15.2,6.2,26.92,15,33.88,25.36s8.94,13.71,15.78,26.64a11.38,11.38,0,0,1,1.33,4,4.22,4.22,0,0,0,.91,2.5c3.09,3.26,3.21,20.79.16,23.17a4.14,4.14,0,0,1-4.56.78c-.55-.19-4.31-1.33-8.37-2.54-9-2.68-11.55-4-15.72-7.91-1.78-1.68-3.52-3-3.87-3a10,10,0,0,1-3-2.25c-1.29-1.24-4.56-4.33-7.27-6.86a86.25,86.25,0,0,1-8.85-10c-4.9-6.74-4.54-6.26-10-13.14A59.65,59.65,0,0,1,481,522.68a22.45,22.45,0,0,0-3.94-6.15,6.12,6.12,0,0,1-2-3.65,17.41,17.41,0,0,0-1.4-5.1c-2.93-6.83-4-11.9-2.94-13.61,1.2-1.89,8.1-3.05,13.54-3ZM211.78,506c-1,.09-2.82,1.36-5.35,3.8-12.94,12.47-41.36,12.26-51.08-.39-2.17-2.82-2.47.47-.41,4.5,3,5.82,10.6,10.69,19,12.11,16.33,2.76,35.81-5.71,38.58-16.78C213.05,507,212.8,505.87,211.78,506ZM979,530.86c1.67.18-.4,2.92-6.36,7.29a12.73,12.73,0,0,1-7.69,2.85c-4.73,0-5.79-1.44-2.16-2.94,1.51-.63,5.64-2.67,9.18-4.55s6-2.76,7-2.65Zm-43.84,78.35c2.75-.34,8.55,4.9,7.43,6.71-.82,1.32-10.48,1.41-12.53.11s1.75-6.42,5.1-6.82ZM682.77,624.92c51.08.24,91.93,38.07,107.77,102.48,4.44,18,6.1,20.67,13.44,21.37,10.35,1,19-5.86,28.1-22.27,10.53-19,25-37.27,32.75-41.41,12.22-6.52,26.54-6.37,32.1.33.71.86,1.62,1.36,2,1.12s.67.55.63,1.76c0,1.36.45,2.09,1.3,1.91s1.16.27.79,1.24-.09,1.42.57,1.29c1.59-.33,4,12.64,3.4,18.27-2,19-19,35.73-36.63,36-15.42.28-17.48,4.1-3.46,6.44,8.24,1.38,9.46,2.29,9.46,7.13s-1.66,5.7-5.53,3c-2.27-1.59-7.67-4.71-15.31-8.84-13.73-7.44-27,.8-44.57,27.72-4.61,7-11.59,20.14-11.59,21.73,0,.32-1.87,4.53-4.16,9.37-13.22,28-33.2,28.67-50.6,1.81-8.66-13.38-19.34-17.7-31.9-12.9-8,3.06-13.83,9.84-10.29,12,3.84,2.37-26.73,40.27-39.54,49-2.76,1.88-7,4.78-9.31,6.44-8.7,6.13-23.81,12.07-39.7,15.62-10,2.22-39,2.76-47.5.88-9-2-14-3.65-14-4.65,0-.46-.81-.84-1.8-.84a4.59,4.59,0,0,1-2.75-.91,50.07,50.07,0,0,0-6-3.64c-14-7.64-30.36-23.24-37.72-36a100.27,100.27,0,0,0-5.33-8.5c-5.9-7-12.73-26.65-14.92-43-2.54-19-1.85-23,4-23,3.37,0,13.74-2.81,14.42-3.9.31-.5,3.71-2.06,7.56-3.45,21.14-7.66,21.42-7.79,36-17.22a116.35,116.35,0,0,0,10.87-8.38c7.35-6.45,6.8-7.6,7.21,15.15.35,19.53,1.87,30.22,4.52,31.86,2.44,1.51,2.81-.12,2.24-9.84C565.45,704,605,639.75,656.94,627.87a113.41,113.41,0,0,1,25.83-3ZM451.13,658.14c.84.06,1.71,1.67,2.53,4.86a22.86,22.86,0,0,0,3.59,6.28l3,3.77-2.73,13.23c-1.51,7.27-3.29,16.6-4,20.72s-2,10.42-3,14-3,12.35-4.45,19.5c-3,14.57-2.89,14.46-11.08,11.85-10.68-3.4-12.19-5.27-9.3-11.48a57.73,57.73,0,0,0,2.73-6.87,42.81,42.81,0,0,1,1.55-4.5c.47-1.1,2-5.82,3.46-10.5s4.35-13.45,6.48-19.5c3.6-10.22,5.76-19.1,8.25-34C449,660.55,450,658.07,451.13,658.14Zm488.46,16.51c4.07-.07.21,7-8.59,13.3-3.13,2.23-10.4,3.18-15,2-15.28-4.06-15.07-6.85.62-8.26,6.92-.62,10.65-1.75,18.86-5.71a11,11,0,0,1,4.11-1.29Zm.43,18.13c2.9-.07,4.3.47,2.91,1.51-5.79,4.38-11.11,6.53-17.23,7-4,.3-7.5,1.13-8.5,2C913,707,907,703.31,907,697v-3.16l9.25.66a60.38,60.38,0,0,0,17.21-.9A41.13,41.13,0,0,1,940,692.78Zm-26.51,13.69a1.17,1.17,0,0,1,.76.4c1.26,1.26-2.31,11.87-6.6,19.57-5.37,9.66-7.38,9.14-2.77-.73A118.26,118.26,0,0,0,909.55,714c1.69-5.29,2.86-7.58,4-7.53Zm-470,70.6c2.28,0,7.75,2.84,5.58,2.89-1,0-.83.67.72,2.33,8.09,8.61,1.92,26.33-10.3,29.58-5.18,1.38-14.58,2.24-16.5,1.52-6.88-2.6-13-6.52-13-8.33,0-.32,4.61-.59,10.25-.6,14.75,0,24.41-6.15,23.55-14.93-.46-4.61-4.23-4.78-5.73-.25-1.25,3.79-6.39,9.26-7.86,8.35-2.21-1.36.54-8.8,4.88-13.22,2.57-2.61,3.73-4.42,2.87-4.45-2.21-.05,3.23-2.89,5.54-2.89Zm27.72,30.38c.48.08.78,1.58.78,4,0,4.57,0,4.61,3,4.15,2.48-.39,3-.13,3,1.5a9.78,9.78,0,0,0,1,3.88c.81,1.53.57,2.18-1.25,3.33-3,1.91-7.19,3.13-6.42,1.89.35-.57-2.49-1.2-6.94-1.54-4.14-.31-8.07-1-8.72-1.49a27.48,27.48,0,0,0-6-2.32c-7.71-2.21-7.68-3.25.25-7.29,8.34-4.25,15.08-5.72,15.08-3.29,0,2.62,2.23,6.68,3.66,6.68.92,0,1.34-1.4,1.34-4.44,0-2.44.45-4.72,1-5.06a.31.31,0,0,1,.22,0Z"/></svg>