<svg id="svg2907" xmlns="http://www.w3.org/2000/svg" xmlns:xlink="http://www.w3.org/1999/xlink" viewBox="0 0 995.42 1044.2"><defs><style>.cls-1,.cls-6{fill:#fca;}.cls-1,.cls-2,.cls-3,.cls-4,.cls-5,.cls-6{stroke:#000;}.cls-1{stroke-width:6px;}.cls-2,.cls-3,.cls-6{stroke-width:10px;}.cls-2{fill:url(#radial-gradient);}.cls-3{fill:url(#radial-gradient-2);}.cls-4{fill:none;stroke-width:30.8px;}.cls-7{fill:url(#radial-gradient-3);}.cls-8{fill:url(#radial-gradient-4);}</style><radialGradient id="radial-gradient" cx="-141.57" cy="-184.03" r="467.86" gradientTransform="matrix(-0.78, -0.48, -0.65, 1.06, 378.41, 674.38)" gradientUnits="userSpaceOnUse"><stop offset="0" stop-color="#ffb380"/><stop offset="1" stop-color="#fca"/></radialGradient><radialGradient id="radial-gradient-2" cx="-836.62" cy="499.09" r="325" gradientTransform="matrix(0.03, 1.84, 1.57, 0.02, -508.21, 1622.09)" xlink:href="#radial-gradient"/><radialGradient id="radial-gradient-3" cx="-356.31" cy="1044.21" r="115.36" gradientTransform="matrix(0.16, -0.46, -1.06, -0.37, 1433.84, 388.11)" gradientUnits="userSpaceOnUse"><stop offset="0" stop-color="#e9c6af"/><stop offset="1" stop-color="#ffb380" stop-opacity="0"/></radialGradient><radialGradient id="radial-gradient-4" cx="-446.45" cy="1486.88" r="100.03" gradientTransform="matrix(0.52, -0.04, -0.04, -0.45, 918.31, 781.31)" gradientUnits="userSpaceOnUse"><stop offset="0" stop-color="#e9c6af"/><stop offset="1" stop-color="#e9c6af" stop-opacity="0"/></radialGradient></defs><title>kattekrab-Pig</title><g id="layer1"><path id="path2980" class="cls-1" d="M938.2,220.25a53.07,53.07,0,0,0-26.63,6.37,8,8,0,1,0,7.56,14.12l.1-.06c18.72-10.16,43.46-2.75,53.19,18.16,8.67,18.63,2.34,43.15-14.94,57.53a65.75,65.75,0,0,0-2.69-18.13c-9.15-29.45-37.77-44.17-60.53-35-23.61,9.54-29.82,40.5-12.87,61.37.92,1.14,1.92,2.23,2.94,3.28-8.19-3.55-17.09-4.28-25.29-1.22a29.28,29.28,0,0,0-18.59,22.91c-1.55,9.84,1.77,20.63,9.88,29-7.88-3.39-16.61-3.86-24.5-.41-18.16,7.95-22.27,32.74-7.91,48.44,7.44,8.14,18,12.66,29.56,13.41a30.15,30.15,0,0,1-5.81,4.56c-12.17,7.06-27,3.84-33.25-4.63a8,8,0,0,0-13,9.35l.11.15c11.82,16,35.44,19.8,54.16,8.94a48.21,48.21,0,0,0,19.44-21.5,60.19,60.19,0,0,0,14.4-7,66.56,66.56,0,0,0,27.85-42.62,72,72,0,0,0,14.25-7.72,76.86,76.86,0,0,0,29.25-42.38,68.23,68.23,0,0,0,6.06-3.37c27.84-17.67,39.18-53.32,26-81.72a55.07,55.07,0,0,0-48.72-31.85Zm-27.44,56.53C922,277.9,934.39,286.5,939.51,303a51.46,51.46,0,0,1,1.35,22.53c-18.15,5.88-37.45.9-47.07-10.94-11.15-13.74-7.07-31,6.47-36.47a22.15,22.15,0,0,1,10.5-1.34Zm-12.12,61.44c11,5.4,23.88,7.12,36.81,5.06a60,60,0,0,1-19.1,23.25c-1.32.94-2.7,1.64-4.06,2.44a57.49,57.49,0,0,0-1.81-9.57,50.83,50.83,0,0,0-11.84-21.19Zm-30.25,2.65c9.28-.8,22.09,6.23,26.68,22.78a41.45,41.45,0,0,1,1.32,11.53c-14,2.9-27.36-.4-34.44-7.5-5-5.05-6.47-10.76-5.72-15.56a12.74,12.74,0,0,1,8.44-10.44,14.22,14.22,0,0,1,3.72-.81Zm-5.85,46.35a55.12,55.12,0,0,0,30.78,4.9,50.4,50.4,0,0,1-18.75,24.5c-.26.18-.54.3-.81.47a45.19,45.19,0,0,0-2-14.41,40.27,40.27,0,0,0-9.22-15.46Zm-24,4.62c6.86.48,14.67,5.48,17.94,15.72a30.09,30.09,0,0,1,.35,15.87c-11.18,1.59-21.61-1.58-27.13-7.62-8.11-8.87-5.45-19.47,2.53-23a13.36,13.36,0,0,1,6.31-1Z"/><path id="path2917" class="cls-2" d="M327.86,1033.51c-2.91-149.16,243.3-225.78,280,5.71l322.86-2.85c0-407.11-26.78-713.91-462.86-737.14C34.6,276.16,8.2,635.54,5,1036.38l322.86-2.86Z"/><path id="path2921" class="cls-3" d="M746.05,380.17c4.48,177.76-122.33,321.29-283.22,320.59s-295-145.38-299.43-323.14S285.73,56.33,446.62,57s295,145.38,299.43,323.14Z"/><path id="path2954" class="cls-4" d="M573.15,516.36c0,45.37-49.7,85.36-111,89.32s-111-29.63-111-75,49.7-85.36,111-89.32S573.15,471,573.15,516.36Z"/><path id="path2925" class="cls-5" d="M445.87,552.13a14.72,14.72,0,1,1-14.72-14.72A14.72,14.72,0,0,1,445.87,552.13Z"/><path id="path2946" class="cls-5" d="M510,546.33a14.72,14.72,0,1,1-14.72-14.72A14.72,14.72,0,0,1,510,546.33Z"/><path id="path3755" d="M357.86,325.87a43.18,43.18,0,1,1-43.18-43.17A43.18,43.18,0,0,1,357.86,325.87Z"/><path id="path2948" d="M611.46,307.92a43.18,43.18,0,1,1-43.17-43.18A43.17,43.17,0,0,1,611.46,307.92Z"/><g id="g3831"><path id="path2939" class="cls-6" d="M334.06,84.15c69.18,5.3-82.41,164-149.17,145.15S71.38-2.82,133.77,27.53c53.48,26,111.19,49.78,200.29,56.61Z"/><path id="path3775" class="cls-7" d="M191.73,224.88c-13.81-1.73-29.17-14.36-42.92-35.28C142,179.17,129,150.69,123.56,133.93c-13.67-41.82-17.32-86.29-8.1-98.86,4.73-6.46,9.5-5.56,37.07,7,57.26,26.11,108.39,40.24,166.65,46.08,8.38.84,17.22,2,19.64,2.66,12.65,3.28,8.5,19.93-11.62,46.57-38,50.28-102.08,91.68-135.47,87.49Z"/></g><g id="g3837"><path id="path2937" class="cls-6" d="M711.07,236c-20.81,66.19-161.56-87.14-140.75-153.32s224-111.42,203.17-45.23L711.08,236Z"/><path id="path3785" class="cls-8" d="M677.05,242.59c-33.07-13.53-81.32-70.77-96.76-114.8-8.44-24-8.42-38.69.05-52.76C592.42,55,628.1,33.55,671.28,20.41c21.28-6.47,60.11-10.92,75-8.59,14.49,2.27,21.63,7.24,22.33,15.53.36,4.19-8.23,33.57-30.71,105.11-17.17,54.61-32.11,101.45-33.2,104.09-2.5,6-7.08,9.92-12.23,10.36-2.19.18-9.11-1.76-15.38-4.33Z"/></g></g></svg>