<svg id="svg9456" xmlns="http://www.w3.org/2000/svg" viewBox="0 0 429.88 178.35"><defs><style>.cls-1{fill:#75c045;stroke:#006;}.cls-2{fill:#242321;stroke:#000;}.cls-3{fill:#07f;}</style></defs><title>sofa</title><path id="path9515" class="cls-1" d="M44.3,6.39,51.49.5l323.63.66,9.15,5.23,1.14,113.72L13.83,122.36,38.42,37.77,44.3,6.39Z"/><path id="path9494" class="cls-2" d="M18.54,141.26l3.93,36.59h5.79l4.34-36.54c-5.18,1.35-9.75,1.63-14.06-.05Zm378.87-1.37,2.95,35.24c1.34,1.19,3.53.91,6.22-.26L410.39,140C406.2,140.84,401.6,142,397.41,139.89Z"/><path id="path9509" class="cls-1" d="M25.34,112.3,24,116.88l-1.3,17.65,2,9.81L408.46,143V116.88l-6.54-5.23-370,.65Z"/><path id="path9539" class="cls-1" d="M371.48,44.91V64.33l27.73,48.08L409.38,118l-.92-55.48-1.85-9.25-35.13-8.32Z"/><path id="path9517" class="cls-1" d="M372.15,45.46,407.81,58.1l.07,2.41L428.15,60V55.42l-40-13.73-10.86.18Z"/><path id="path9519" class="cls-1" d="M41.69,43,.5,56.08l7.19-2h7.84L22.73,60l-.25-1.71L54.6,46.76,41.69,43Z"/><path id="path9521" class="cls-1" d="M1.15,56.08v87l23.54,2L24,59.35,17.5,53.46,4.42,52.81,1.15,56.08Z"/><path id="path9523" class="cls-1" d="M407.37,58.41l2.4,85.93,15.69-.66,3.92-5.88-1-82.58C420.74,54,417.6,52.14,407.37,58.41Z"/><path id="path9525" class="cls-1" d="M378.88,69.81l18.46,6.53,7.2,7.2-124.31,1.3L267.74,72l11.07-4.67,84.89-.16,15.18,2.61Z"/><path id="path9527" class="cls-1" d="M278.85,85.77l.65,19.69,11.38,6.73L397.34,111l7.85-7.84-.35-19.76Z"/><path id="path9529" class="cls-1" d="M160.67,70.46,149.56,84.84l129.21-.27L268.28,72.29l-8.82-5.54L167.17,67l-6.5,3.44Z"/><path id="path9533" class="cls-1" d="M24,84.19,24.69,109l7.84,3.35,106.22-.15,9.46-4-.85-23.08L24,84.19Z"/><path id="path9535" class="cls-1" d="M147.25,85.85l.85,18.27,8.93,7,113.11-.46,10.25-7.55-1.66-18-131.48.73Z"/><path id="path9531" class="cls-1" d="M51,70.46,35.8,73.73,24,84.19H147.3l12.64-15.27-8.42-2.38-85.17-.41L51,70.46Z"/><path id="path9537" class="cls-1" d="M58.31,67.75,55.26,45.86,23.62,58.68l-.4,23.93L58.31,67.75Z"/><path id="path9545" class="cls-3" d="M75.1,34.53c0,1.58-.73,2.86-1.64,2.86s-1.63-1.28-1.63-2.86.73-2.87,1.63-2.87,1.63,1.26,1.64,2.83m35.61.85c0,1.59-.74,2.87-1.64,2.87s-1.64-1.28-1.64-2.87.74-2.86,1.64-2.86,1.63,1.26,1.64,2.83m33.56,1.26c0,1.58-.74,2.87-1.64,2.87S141,38.15,141,36.57s.74-2.86,1.64-2.86,1.63,1.26,1.64,2.82m32.33-.37c0,1.58-.73,2.87-1.64,2.87s-1.63-1.29-1.63-2.87.73-2.86,1.63-2.86,1.63,1.26,1.64,2.82m38.47-.78c0,1.59-.73,2.87-1.64,2.87s-1.63-1.28-1.63-2.87.73-2.86,1.63-2.86,1.63,1.26,1.64,2.83m36.43.85c0,1.58-.74,2.87-1.64,2.87s-1.64-1.29-1.64-2.87.73-2.86,1.64-2.86,1.62,1.26,1.63,2.82m29.88.45c0,1.58-.73,2.87-1.64,2.87s-1.63-1.29-1.63-2.87.73-2.86,1.63-2.86,1.63,1.26,1.64,2.82m34,.45c0,1.58-.73,2.87-1.64,2.87s-1.63-1.29-1.63-2.87.73-2.86,1.63-2.86,1.63,1.25,1.64,2.82m34.79-1.19c0,1.58-.74,2.87-1.64,2.87s-1.64-1.29-1.64-2.87.74-2.86,1.64-2.86,1.63,1.26,1.64,2.82"/></svg>