<svg xmlns="http://www.w3.org/2000/svg" xmlns:xlink="http://www.w3.org/1999/xlink" viewBox="0 0 69.11 74.12"><defs><style>.cls-1{isolation:isolate;}.cls-2{fill:url(#_ÂÁ_Ï_ÌÌ_È_ËÂÌÚ_20);}.cls-3{fill:url(#_ÂÁ_Ï_ÌÌ_È_ËÂÌÚ_20-2);}.cls-4{fill:#691e0f;}.cls-5,.cls-6{mix-blend-mode:screen;}.cls-5{fill:url(#_ÂÁ_Ï_ÌÌ_È_ËÂÌÚ_25);}.cls-6{fill:url(#_ÂÁ_Ï_ÌÌ_È_ËÂÌÚ_25-2);}.cls-7{fill:#7c2d18;}.cls-8{fill:url(#_ÂÁ_Ï_ÌÌ_È_ËÂÌÚ_20-3);}.cls-9{fill:url(#_ÂÁ_Ï_ÌÌ_È_ËÂÌÚ_20-4);}.cls-10{fill:url(#_ÂÁ_Ï_ÌÌ_È_ËÂÌÚ_20-5);}.cls-11{fill:#fff0cc;}</style><linearGradient id="_ÂÁ_Ï_ÌÌ_È_ËÂÌÚ_20" x1="71.93" y1="9.23" x2="6.94" y2="9.05" gradientUnits="userSpaceOnUse"><stop offset="0" stop-color="#7d2e18"/><stop offset="1" stop-color="#a14d24"/></linearGradient><linearGradient id="_ÂÁ_Ï_ÌÌ_È_ËÂÌÚ_20-2" x1="61.95" y1="21.59" x2="13.75" y2="21.46" xlink:href="#_ÂÁ_Ï_ÌÌ_È_ËÂÌÚ_20"/><linearGradient id="_ÂÁ_Ï_ÌÌ_È_ËÂÌÚ_25" x1="11.97" y1="-6.28" x2="12.51" y2="15.02" gradientUnits="userSpaceOnUse"><stop offset="0" stop-color="#3b2518"/><stop offset="0.24" stop-color="#362216"/><stop offset="0.53" stop-color="#271910"/><stop offset="0.85" stop-color="#0f0a07"/><stop offset="1" stop-color="#010101"/></linearGradient><linearGradient id="_ÂÁ_Ï_ÌÌ_È_ËÂÌÚ_25-2" x1="15.99" y1="12.56" x2="17.67" y2="25.32" xlink:href="#_ÂÁ_Ï_ÌÌ_È_ËÂÌÚ_25"/><linearGradient id="_ÂÁ_Ï_ÌÌ_È_ËÂÌÚ_20-3" x1="16.63" y1="20.6" x2="7.94" y2="65.03" xlink:href="#_ÂÁ_Ï_ÌÌ_È_ËÂÌÚ_20"/><linearGradient id="_ÂÁ_Ï_ÌÌ_È_ËÂÌÚ_20-4" x1="-2669.81" y1="20.6" x2="-2678.49" y2="65.03" gradientTransform="matrix(-1, 0, 0, 1, -2618.85, 0)" xlink:href="#_ÂÁ_Ï_ÌÌ_È_ËÂÌÚ_20"/><linearGradient id="_ÂÁ_Ï_ÌÌ_È_ËÂÌÚ_20-5" x1="57.31" y1="58.81" x2="14.02" y2="58.54" xlink:href="#_ÂÁ_Ï_ÌÌ_È_ËÂÌÚ_20"/></defs><title>furniture</title><g class="cls-1"><g id="Layer_1" data-name="Layer 1"><polygon class="cls-2" points="67.18 18.44 2.51 17.37 0 0 69.11 0 67.18 18.44"/><polygon class="cls-3" points="9.4 25.42 8.59 17.47 59.84 18.32 58.14 25.42 9.4 25.42"/><polygon class="cls-4" points="8.59 17.47 42.87 18.04 42.87 0 61.01 0 58.32 18.29 59.84 18.32 59.31 20.52 54.78 20.52 53.35 25.42 40.95 25.42 40.19 20.59 8.76 19.16 8.59 17.47"/><polygon class="cls-5" points="4.3 0 7.43 17.45 19.96 17.72 19.96 0 4.3 0"/><polygon class="cls-6" points="12.13 19.31 13.09 25.42 21.68 25.42 21.68 19.75 12.13 19.31"/><polygon class="cls-7" points="26.99 0 28.47 11.59 28.11 0 26.99 0"/><polygon class="cls-7" points="5.24 17.41 5.24 13.14 6.22 17.41 5.24 17.41"/><polygon class="cls-7" points="11.01 0 12.13 7.43 12.19 0 11.01 0"/><polygon class="cls-7" points="19.96 11.01 19.96 17.72 20.99 17.67 19.96 11.01"/><polygon class="cls-4" points="62.3 18.36 63.91 12.13 63.78 18.36 62.3 18.36"/><polygon class="cls-8" points="10.64 25.42 0 74.12 6.76 74.12 21.85 25.42 10.64 25.42"/><polygon class="cls-4" points="10.33 26.85 17.04 29.18 5.28 74.12 6.76 74.12 21.85 25.42 10.64 25.42 10.33 26.85"/><polygon class="cls-9" points="56.94 25.42 67.58 74.12 60.82 74.12 45.73 25.42 56.94 25.42"/><polygon class="cls-4" points="57.25 26.85 50.55 29.18 62.31 74.12 60.82 74.12 45.73 25.42 56.94 25.42 57.25 26.85"/><polygon class="cls-4" points="40.5 25.42 43.93 74.12 37.16 74.12 29.29 25.42 40.5 25.42"/><polygon class="cls-4" points="40.6 26.85 33.55 29.18 38.65 74.12 37.16 74.12 29.29 25.42 40.5 25.42 40.6 26.85"/><polygon class="cls-10" points="9.92 61.41 57.82 61.95 56.02 55.68 11.69 55.68 9.92 61.41"/><polygon class="cls-11" points="29.52 26.83 34.18 55.68 14.06 55.68 13.63 57.08 35.33 57.08 30.44 26.83 29.52 26.83"/><polygon class="cls-11" points="3.46 17.38 1.15 1.4 5.45 1.4 12.16 1.4 13.33 1.4 21.11 1.4 28.14 1.4 29.26 1.4 44.02 1.4 62.15 1.4 68.96 1.4 69.11 0 61.01 0 42.87 0 28.11 0 26.99 0 19.96 0 12.19 0 11.01 0 4.3 0 0 0 2.51 17.37 3.46 17.38"/><polygon class="cls-11" points="46.17 26.83 55.11 55.68 43.68 55.68 43.78 57.08 56.26 57.08 46.88 26.83 46.17 26.83"/><polygon class="cls-11" points="11.48 28.25 11.79 26.83 10.55 26.83 10.48 26.17 10.33 26.85 0 74.12 1.46 74.12 11.48 28.25"/><polygon class="cls-11" points="58.19 63.34 57.48 63.33 60.82 74.12 61.53 74.12 58.19 63.34"/><polygon class="cls-11" points="8.73 18.86 8.76 19.16 9.4 25.42 10.41 25.42 9.91 20.56 9.74 18.88 8.73 18.86"/><polygon class="cls-11" points="36.3 63.09 35.38 63.09 37.16 74.12 38.09 74.12 36.3 63.09"/></g></g></svg>