<svg id="Layer_1" data-name="Layer 1" xmlns="http://www.w3.org/2000/svg" viewBox="0 0 154.72 170.61"><defs><style>.cls-1{fill:#a15124;}.cls-2{fill:#7c2d18;}.cls-3{fill:#fee0bf;}.cls-4{fill:#d17e43;}</style></defs><title>furniture</title><polygon class="cls-1" points="137.04 154.16 13.32 154.16 9.49 19.68 140.88 19.68 137.04 154.16"/><polygon class="cls-1" points="149.32 19.68 1.05 19.68 0 -0.51 150.37 -0.51 149.32 19.68"/><polygon class="cls-1" points="140.71 172.35 9.65 172.35 8.73 154.04 141.64 154.04 140.71 172.35"/><polygon class="cls-2" points="9.49 19.68 149.32 19.68 150.37 -0.51 155.24 -0.51 152.81 20.77 145.01 20.77 141.64 154.04 146.71 154.04 144.62 172.35 140.71 172.35 141.59 155.13 137.09 154.89 140.77 23.53 9.55 21.75 9.49 19.68"/><polygon class="cls-3" points="122.12 154.16 28.25 154.16 25.34 19.68 125.02 19.68 122.12 154.16"/><polygon class="cls-4" points="25.34 19.68 28.25 154.16 31.21 154.16 31.21 19.68 25.34 19.68"/><polygon class="cls-4" points="71.49 19.68 74.17 154.16 80.59 154.16 83.19 19.68 71.49 19.68"/><polygon class="cls-1" points="31.17 89.69 123.51 89.69 123.51 96.32 31.21 99.41 31.17 89.69"/><polygon class="cls-1" points="68.24 19.68 70.92 154.16 77.34 154.16 79.94 19.68 68.24 19.68"/><polygon class="cls-2" points="68.24 19.68 79.94 19.68 79.94 22.7 68.3 22.55 68.24 19.68"/><path class="cls-2" d="M129.93,113.49s0-11.53.62-25.73,1.61-25.68,1.61-25.68,0,11.53-.62,25.73S129.93,113.49,129.93,113.49Z"/><path class="cls-2" d="M23.07,117.58s.23,5.51-.11,12.28-1.1,12.23-1.1,12.23-.23-5.51.11-12.28S23.07,117.58,23.07,117.58Z"/><path class="cls-2" d="M14.51,39.64s1,7.27,1.72,16.28S17,72.29,17,72.29,15.91,65,15.23,56,14.51,39.64,14.51,39.64Z"/><path class="cls-2" d="M20.93,20.57c.11,5.27.91,19,.91,19s.2-13.81.09-19.07Z"/><path class="cls-2" d="M18.28,153.31c-.07-2.63-.76-9.52-.76-9.52s-.31,6.92-.24,9.55Z"/><path class="cls-2" d="M131.39,153.34c.17-6.11.1-22.14.1-22.14s-.93,16-1.1,22.12Z"/><path class="cls-2" d="M129.08,22c.38,4,1.86,14.59,1.86,14.59s-.48-10.64-.86-14.68Z"/><path class="cls-2" d="M136.91,22.59c-.07,5.46.23,19.76.23,19.76s.7-14.29.77-19.74Z"/><path class="cls-2" d="M.7,8.85C4.93,8.76,16,8,16,8S4.91,7.76.68,7.85Z"/><path class="cls-2" d="M151.13,12c-4.32.42-15.6,2-15.6,2s11.38-.6,15.7-1Z"/><path class="cls-2" d="M150.07,4.76c-2.53.38-9.12,1.85-9.12,1.85s6.73-.49,9.27-.86Z"/><path class="cls-2" d="M62,14.21s-9.77.07-21.8-.46S18.42,12.3,18.42,12.3s9.77-.07,21.8.45S62,14.21,62,14.21Z"/><path class="cls-2" d="M125,9.9s-5.49.4-12.26.28-12.24-.72-12.24-.72,5.49-.4,12.26-.28S125,9.9,125,9.9Z"/><path class="cls-2" d="M51.76,160.41s-8.36.9-18.71,1.38-18.75.39-18.75.39,8.36-.9,18.71-1.38S51.76,160.41,51.76,160.41Z"/><path class="cls-2" d="M109.63,163.76s-6.47.63-14.46.79-14.48-.2-14.48-.2,6.47-.63,14.46-.8S109.63,163.76,109.63,163.76Z"/><path class="cls-2" d="M143,160.93c-4.6-.38-16.72-.86-16.72-.86s12,1.48,16.64,1.85Z"/></svg>