<svg id="svg4515" xmlns="http://www.w3.org/2000/svg" viewBox="0 0 799.99 811.93"><defs><style>.cls-1{fill:#8c7e57;}.cls-2{fill:#a39469;}.cls-3{fill:#7d6f4a;}.cls-4{fill:#695d3d;}.cls-5{fill:#fefefe;}.cls-6{fill:#bfad7c;}.cls-7{fill:#80724a;}.cls-8{fill:#f0e4c8;}.cls-9{fill:#ded1b4;}.cls-10{fill:#d4c6a7;}.cls-11{fill:#4a422c;}</style></defs><title>elephant 04</title><g id="layer1"><g id="g4255"><path id="path38" class="cls-1" d="M56.79,491.61c15.13,20,44.63,35.35,54.19,40a415.51,415.51,0,0,1-22.2-90.26A368.65,368.65,0,0,1,86.69,371C76.09,386.13,63,407.1,55.07,428.49c-8.52,22.84-11.1,46.17,1.72,63.12Z"/><path id="path46" class="cls-2" d="M761.84,539.41c28.78-64.79,46.85-166,26.06-263.67-15.59-73.13-53-144.27-124-196.79-4.71-3.08-9.56-6.11-14.41-9.06A464.3,464.3,0,0,0,354.22,6.45c-85.55,10.34-150.66,43-170.38,72.28,1.86,7.93,3.9,16.58,6.75,25.19a215.43,215.43,0,0,1,63.62-20.75A243.64,243.64,0,0,1,293.81,80c29.91-24.61,66.25-26.69,87.09,9.92a143.86,143.86,0,0,1,35.75,14.14,146.71,146.71,0,0,1,26.15,18.62C459,93.45,494,30.65,496.58,29.34c30.09-15,113,65.15,128.51,93.12,18.66,33.71,28.27,68.64,26.73,75.76s-16.77,17.44-28.55,24.46c13.87-4.3,32.58-9.65,35.53-7.88,2.72,1.63,16,24.79,22.93,65.39,3.94,22.7,6,51,3.35,84.09C681,415.94,654,523.5,618.15,571.58c-4.21,5.71-8.42,10-11,10-4.13,0-21.71-19.8-30.5-30l17.58,55.87-.59.18c-.58,2.22-5.75,8.29-29.9,24.88a371.22,371.22,0,0,1-37.93,22.83c-16.22,8.43-28,12.74-30.81,12.74-3.31,0-4.39-2.18-8.11-9.38-3-5.85-7.84-15.36-17.22-30.45-18.53-29.91-75.12-73.91-82.1-79.25a47.56,47.56,0,0,1-10.06,0c-7.07-.77-10.92-2.86-13-4.81-8.2,52-21.66,104.86-43.54,145.31,2.31-.86,6.25-1.63,12.77-1.49a70.08,70.08,0,0,1,19.49,3c.9-22.84,1.22-48.71,1.77-53.74,0,.18,5.75,52.51-1.23,87.54-.22,1-.36,1.9-.54,2.76-2.63,16.18-.14,32.94,9.06,46.86a62,62,0,0,0,9.11,10.64c2.67-4.39,10.15-16.22,22.16-32.26a41.92,41.92,0,0,1,9.92-10,18.13,18.13,0,0,1,11.06-3.53,15.14,15.14,0,0,1,8.33,3.17,18.39,18.39,0,0,1,4.26,4.44c2.49,3.67,4.53,7.21,5.71,9.38a46.27,46.27,0,0,1,9.29-10.56c6.62-5.39,13.41-6.93,18.26-5.48,4.26,1.27,9.2,7.07,13.64,14.86,1.09,1.86,2.08,3.81,3.08,5.8,2.63-5.39,8.47-16.13,15-19.39,4.89-2.45,11.46-2.77,18.94.5,6,2.67,12.73,7.74,19.67,16,12.41,14.91,19.89,32.44,22.06,38,15.86-5.34,28.91-12.55,37-21.79,15.9-18.22,22.38-41.51,21.88-65.39-.22-11.05-11.46-55.55-22.29-78.61A149.54,149.54,0,0,1,608.28,670c5.84-2.81,21.07-12.15,45.08-40.7a536.1,536.1,0,0,0,41.06-55.55s-6.76,19.71-38.66,57.59c-24.69,29.28-40.55,38.84-46.58,41.65a139,139,0,0,1,5.58,35.93,116.67,116.67,0,0,1-.46,13.23c3.09-2.18,8.11-5.3,11.88-5.3,3.17,0,6.7,1.63,9.69,5.34,2.45,3,4.58,7.39,5.94,13.55a86.27,86.27,0,0,1,1.45,24.79c1.77-.32,3.49-.64,5.21-1,13.1-2.67,25.24-7,32-13.46,12.6-12,14.41-28.45,16.41-45.94.54-5.21,1.18-10.52,2-15.86,2.35-14,6.25-22.3,19.62-50.52,9.1-19.26,22.7-47.94,43.27-94.34Z"/><path id="path48" class="cls-3" d="M761.84,539.41c28.78-64.79,46.85-166,26.06-263.67-15.59-73.13-53-144.27-124-196.79-4.71-3.08-9.56-6.11-14.41-9.06A463.59,463.59,0,0,0,397,3.33c-29.82,20.25-33.17,49.48-31.72,67.92a62.22,62.22,0,0,1,15.68,18.67,144,144,0,0,1,35.75,14.14,146.89,146.89,0,0,1,26.14,18.62C459,93.45,494,30.65,496.59,29.34c30.08-15,113,65.15,128.5,93.12,18.67,33.71,28.27,68.64,26.73,75.76s-16.76,17.44-28.54,24.47c13.86-4.31,32.58-9.66,35.52-7.89,2.72,1.63,16,24.79,22.93,65.39,3.94,22.7,6,51,3.35,84.09C681,415.94,654,523.5,618.16,571.58c-4.22,5.71-8.43,10-11.06,10-4.12,0-21.7-19.8-30.49-30l17.58,55.87-.59.18c-.59,2.22-5.76,8.29-29.91,24.88a372.27,372.27,0,0,1-37.92,22.83c-16.22,8.43-28,12.74-30.81,12.74-3.31,0-4.4-2.18-8.12-9.38-3-5.85-7.83-15.36-17.21-30.45-18.54-29.91-75.13-73.91-82.11-79.25a46.9,46.9,0,0,1-10.06,0c-7.07-.77-10.92-2.86-13-4.81-8.2,52-21.65,104.86-43.54,145.32,2.31-.87,6.25-1.64,12.78-1.5a70.06,70.06,0,0,1,19.48,3c.91-22.84,1.23-48.71,1.77-53.74,0,.18,5.75,52.51-1.22,87.54-.23,1-.37,1.9-.55,2.76-2.63,16.18-.13,32.94,9.06,46.86a62.4,62.4,0,0,0,9.11,10.64c2.68-4.39,10.15-16.22,22.16-32.26a42.11,42.11,0,0,1,9.92-10,18.15,18.15,0,0,1,11.06-3.53,15.14,15.14,0,0,1,8.34,3.17,18.78,18.78,0,0,1,4.26,4.44c2.49,3.67,4.53,7.21,5.7,9.38a46.48,46.48,0,0,1,9.29-10.56c6.62-5.39,13.42-6.93,18.26-5.48,4.26,1.27,9.2,7.07,13.64,14.86,1.09,1.86,2.09,3.81,3.08,5.8,2.63-5.39,8.48-16.13,15-19.39,4.9-2.45,11.47-2.77,18.94.5,6,2.67,12.74,7.75,19.67,16,12.41,14.91,19.89,32.44,22.07,38,15.85-5.34,28.9-12.55,37-21.79,15.9-18.22,22.38-41.51,21.89-65.39-.23-11.05-11.47-55.55-22.3-78.61A149.24,149.24,0,0,1,608.28,670c5.85-2.81,21.07-12.15,45.09-40.69a539.68,539.68,0,0,0,41-55.56s-6.75,19.71-38.65,57.59c-24.7,29.28-40.56,38.84-46.58,41.65a139.1,139.1,0,0,1,5.57,35.93,116.67,116.67,0,0,1-.45,13.23c3.08-2.18,8.11-5.3,11.87-5.3,3.17,0,6.71,1.63,9.7,5.34,2.44,3,4.57,7.39,5.93,13.55a85.91,85.91,0,0,1,1.45,24.79c1.77-.32,3.49-.64,5.21-1,13.1-2.67,25.24-7,32-13.46,12.6-12,14.41-28.45,16.4-45.94.55-5.21,1.18-10.51,2-15.86,2.36-14,6.25-22.29,19.62-50.52,9.11-19.26,22.7-47.94,43.27-94.34Z"/><path id="path50" class="cls-4" d="M465.5,622.2C443.84,592.7,394,554,387.52,549a46.26,46.26,0,0,1-10.06,0c-7.07-.77-10.92-2.86-13-4.8-8.2,52-21.66,104.85-43.54,145.31,2.31-.87,6.25-1.64,12.77-1.5a70.08,70.08,0,0,1,19.49,3c.9-22.84,1.22-48.71,1.77-53.74,0,.09,1.94,17.76,2.22,39.37,4.21-6.93,19.75-29.31,53.55-45.49,29.68-14.23,47.4-11.51,54.74-9Z"/><path id="path52" class="cls-2" d="M488.43,289.2c18,19,27.5,42.86,28.14,70.64s-7.66,59.22-25.29,93.57a210.53,210.53,0,0,1,18.63,39.37c9.65,27.46,13,56.37.54,73.23a22.74,22.74,0,0,1-1.54,1.9A32.51,32.51,0,0,1,498.49,576c-13.73,6.66-32.35,4.44-50.34-1.91-17.77-6.3-35-16.63-46-26.14-.82-.68-1.59-1.41-2.31-2.09a43.45,43.45,0,0,1-7.88,2.45c4.57,3.53,61.12,47.26,80.38,78.3,9.42,15.13,14.32,24.78,17.35,30.67s3.9,7.71,5.3,7.71c2.45,0,13.6-4.22,29.37-12.42a357,357,0,0,0,37.61-22.65c29.13-20,30.58-20.44,30.63-20.44l-1-.09-.31-1-19.9-63.25-2.4-7.52,5.08,6.07c.09.09,29,34.75,33.12,34.75,1.5,0,4.85-3.76,8.52-8.7,35.43-47.58,62.26-154.51,66.34-205.67,2.62-32.85.58-60.85-3.31-83.33-6.84-39.6-19-61.76-21.48-63.25-3.4-2-48,13.09-48.17,13.14l-20.16,6.8,18.94-9.7c.14-.05,38.7-19.71,41-30.18,1.47-6.65-8-40.45-26.4-73.53C607.57,97.27,525.78,18.25,498,32.15c-6.25,4.76-47.12,88.64-63.25,105.17,0,0,2.53-4.58,6.52-11.78-2.31-2.22-11.06-10.1-26.19-18.76a140.22,140.22,0,0,0-35.52-14l-.68-.14-.37-.63C359.3,56.71,326.72,57.48,298.67,80c8.39.14,16.91.68,25.61,1.63-16.82.46-45.18,1.82-53.29,2.54-5.53.55-10.92,1.22-16.27,2.13-49.21,8.07-90.57,31.36-121,66S83.53,233,77.78,286.59c-3,27.59-2.31,57.18,2.45,88.26,2.44-3.63,4.75-7,6.93-10a378,378,0,0,1,14.77-77.12,7.06,7.06,0,0,1-3.13.77c-5,0-9-5.62-9-12.56a18.29,18.29,0,0,1,.36-3.62c.63,2.13,2,3.62,3.63,3.62,2.22,0,4-2.8,4-6.29a7.52,7.52,0,0,0-2.09-5.53,6.63,6.63,0,0,1,3.08-.77c3.81,0,7.07,3.35,8.39,8,.59-1.63,1.13-3.26,1.72-4.85-.36-3.35-.82-5.8-3.85-11.51a8.33,8.33,0,0,0-3.58-3.62,7.26,7.26,0,0,0-4.71-.59,9.75,9.75,0,0,0-4.85,2.76,18.58,18.58,0,0,0-4.76,9.74,37.25,37.25,0,0,0,2.72,24c.41.14.81.23,1.13.37,2.49.9,7.7,5.8,7.79,8.74a16.27,16.27,0,0,0-8.42-7,23.34,23.34,0,0,0-11-.77,11.44,11.44,0,0,1,8-1.81,40.64,40.64,0,0,1-2.27-23.92,21.06,21.06,0,0,1,5.4-10.83,11.89,11.89,0,0,1,5.84-3.31,9.59,9.59,0,0,1,6.07.72,10.29,10.29,0,0,1,4.49,4.53,27.13,27.13,0,0,1,3,9.84c3.72-10.06,7.84-20.21,12.46-30.41-3.26,13.37-12.32,39-14.68,46.17C89.7,334.75,85.26,388.44,91.92,441c8.29,66.11,34.25,130.36,73.31,193.26l.73,1.09a49.45,49.45,0,0,1,13.59,5.48,185.52,185.52,0,0,1,60.08-9.56,163.25,163.25,0,0,1,57.82,11.46c-32.49-7.07-37.43-8-57.95-8.34a179.74,179.74,0,0,0-56.28,8.75,63,63,0,0,1,9.06,7.57,77.33,77.33,0,0,1,25.65,3.85c12.14,4,23.2,11.28,32.94,22.16-18.31-13-21.11-15-33.89-19.22a72.23,72.23,0,0,0-16.27-3.35,80.58,80.58,0,0,1,26.14,18c8.84,9.29,15.18,20.89,18.67,35-10-20.12-11.64-23.11-20.93-32.86-7.43-7.83-16.77-13.91-27.73-18.39,15.86,21.25,18.39,59.9,18.39,60-7-23.66-6.07-43.55-24.42-62.26,0,0,0,0-.09,0l0,0a0,0,0,0,1,0-.05c-9.29-9.42-19.8-14.86-30.67-16-10.7-1.14-21.8,1.94-32.58,9.42-5,3.49-9.11,9.52-12.24,16.95A91,91,0,0,0,109,691.58c-1.58,21.57,4.58,39.92,16.32,53.65,12.18,14.28,30.31,23.56,52,26.37,11.69,1.5,25.11.73,40.6-3.58s33.13-12.23,53-25c82.29-53.15,99.28-234.49,102.36-332,.22-7.11,1.67-40.92,3.4-63.48,0,.5,3.44,94.43-11.6,192.62h.13s.77,4.58,12.51,5.89a43.32,43.32,0,0,0,19.53-2.44c-1-1.14-2-2.18-2.9-3.22-13.82-10.7,2.63-61.17,5.07-67.52,6.57-16.85,17.67-31.13,31.77-39.64,8.38-5.08,31.08-11.6,45.58-1.82-1-.27-2-.5-3-.72a84.24,84.24,0,0,1,8.93,10.24,92.14,92.14,0,0,0-19.66-43.09c-10.16-12.51-36.34-32.67-46.68-37.7,20.94,9,37.39,21.25,49.12,35.75a94.72,94.72,0,0,1,21.12,50.43c.9,1.36,1.81,2.72,2.72,4.12,16.81-33.26,24.69-63.7,24.1-90.44.27-11.82-7.25-51.52-25-70.68Zm-66-51.11a24.13,24.13,0,0,1,7.71,7.16,29,29,0,0,1,4.62,17.4,41.93,41.93,0,0,1-6,19.39c2.94.5,5.57,1.45,6.89,2.85-6.94-2-13-1.63-18.4.5s-10.33,6.12-14.82,11.29c1.72-7.71,9.38-12.51,13.64-14.19,2.18-.86,6.39-1.17,10.42-.77,3.72-6.3,5.94-13.36,6.17-19.16a26.29,26.29,0,0,0-4.31-16.14,22.1,22.1,0,0,0-7-6.57,27.47,27.47,0,0,0-14.36-3.71c-17,.32-21.89,11.19-26.42,25.15a32,32,0,0,1,1.13-8c3.27-11.87,12.78-19,25.24-19.26a29.11,29.11,0,0,1,15.45,4ZM222,267c8.79.86,16.9,2,23.47,3.31s11.92,2.94,14.77,4.71c2.59,1.54,3.63,3.31,2.9,5.35-.63-6.75-22.61-9.38-41.5-11.24-9.2-.91-18.9-.5-28.68-.77-10-.32-46.86-1.77-59.32,6.84,3.13-10.46,51.8-11.73,88.36-8.2Zm175.13-3.85a9.56,9.56,0,0,0,9.57,9.56,9.79,9.79,0,0,0,5.84-2c.05.63.09,1.31.09,2a15.5,15.5,0,1,1-15.5-15.54,14.49,14.49,0,0,1,2,.14,9.74,9.74,0,0,0-2,5.84Zm-287.59,96a291.65,291.65,0,0,1,87.08-11.19c29.23.63,58.64,5.39,88.13,13.59-62.85-10.78-77.07-10.19-88.17-10.42-10.92-.27-56,.36-87.05,8Zm377.54-71.18c.45.41.9.86,1.31,1.31C488,288.75,487.57,288.3,487.12,287.89ZM219.05,502c29.13-1.72,58.81.68,88.9,6.48-63.48-5.71-77.62-4-88.72-3.35-10.92.68-55.82,4.89-86.09,15A289.68,289.68,0,0,1,219.05,502Zm-49.66,99.09c3.12-10.64,51.83-14.54,88.4-13a223.91,223.91,0,0,1,23.42,2c6.71,1,11.92,2.27,14.82,3.86,2.54,1.4,3.58,3.12,2.85,5.21-.59-6.75-22.61-8.16-41.5-9-9.2-.41-18.9.49-28.68.77s-46.86.81-59.32,10ZM114.7,446.93a410.23,410.23,0,0,1,103-18.17c34.94-1.72,70.51.68,106.58,6.48-76.13-5.71-93.08-4-106.35-3.35-13.09.68-66.88,4.89-103.22,15Zm7-227.91c4,3.58,2.36,12.09-7.75,14.36s-21.25-1.63-21.25-1.63a36.55,36.55,0,0,1,7.93-10.38c5.62-5.21,17.08-5.93,21.07-2.35Zm104-26.06c15.5,1.5,30.9,7.07,46.17,16.13-32.85-12.59-40.47-12.41-46.4-13s-29.82-1.22-46.76,5.58c15.81-7.48,31.44-10.16,47-8.71Zm185,13.1s-14.55,5-27.64,2.12-15.23-14-10.06-18.66,20.07-3.67,27.37,3a47.64,47.64,0,0,1,10.33,13.51ZM178.36,697.15a41.51,41.51,0,0,1-.9,16.63,24.35,24.35,0,0,1-8.34,12.68,25.24,25.24,0,0,1-12.55,5,29.78,29.78,0,0,1-11.74-.9c4.35.09,9.11.59,15.18-2.18a25.47,25.47,0,0,1-12.46-3.12,11,11,0,0,1-4.8-5.49c-1.27-3.3-.64-7.2,1.22-11.14a43,43,0,0,1,8.11-11.33c6.21-6.44,14-11.65,19.89-13-8-20-25.69-23-26.32-24.38,0,0,28.95,7.07,32.71,37.16Z"/><path id="path54" class="cls-1" d="M488.43,289.2c18,19,27.5,42.86,28.14,70.64s-7.66,59.22-25.29,93.57a210.53,210.53,0,0,1,18.63,39.37c9.65,27.46,13,56.37.54,73.23a22.74,22.74,0,0,1-1.54,1.9A32.51,32.51,0,0,1,498.49,576c-13.73,6.66-32.36,4.44-50.34-1.91-17.77-6.3-35-16.63-46-26.14-.82-.68-1.59-1.41-2.31-2.09a43.35,43.35,0,0,1-7.89,2.45c4.58,3.53,61.13,47.26,80.39,78.3,9.42,15.13,14.32,24.78,17.35,30.67s3.9,7.71,5.3,7.71c2.45,0,13.6-4.22,29.37-12.42a355.89,355.89,0,0,0,37.6-22.65c29.14-20,30.59-20.44,30.64-20.44l-1-.09-.31-1-19.9-63.25-2.4-7.52,5.08,6.07c.09.09,29,34.75,33.12,34.75,1.5,0,4.85-3.76,8.52-8.7,35.43-47.58,62.26-154.51,66.33-205.67,2.63-32.85.59-60.85-3.3-83.33-6.85-39.6-19-61.76-21.48-63.25-3.4-2-48,13.09-48.17,13.14l-20.16,6.8,18.94-9.7c.14-.05,38.7-19.71,41-30.18,1.47-6.65-8-40.45-26.41-73.53C607.57,97.27,525.78,18.25,498,32.15c-6.25,4.76-47.12,88.64-63.26,105.17.05,0,2.54-4.58,6.53-11.78-2.31-2.22-11.06-10.1-26.19-18.76a140.06,140.06,0,0,0-35.53-14l-.68-.14-.36-.63A62,62,0,0,0,365.6,75.15a74.08,74.08,0,0,0,2.76,13.46s-8-16.76-21.11-23.38a42,42,0,0,0-16.13-.59c-4.63,6.93,18,29.36,18,29.36S308,80,250.87,122.37c-22.07,16.36-39,40.29-50.93,72.1a85.63,85.63,0,0,1,25.83-1.5c15.49,1.5,30.9,7.07,46.17,16.13-32.85-12.6-40.46-12.42-46.4-13a143.1,143.1,0,0,0-26.46.72q-10.8,29.7-15.9,68.37c12.87,0,26.55.59,38.87,1.77,8.79.86,16.91,2,23.48,3.31s11.91,2.94,14.77,4.71c2.58,1.54,3.62,3.31,2.9,5.35-.64-6.76-22.61-9.38-41.51-11.24-9.2-.91-18.89-.5-28.68-.77-2.22-.09-5.84-.23-10.19-.27q-4.56,36.09-4.31,80c6.07-.23,12.14-.27,18.17-.18,29.23.63,58.63,5.39,88.13,13.59-62.85-10.78-77.08-10.19-88.18-10.42-3.3-.09-9.78-.09-18.08.18.19,17.45.86,35.84,2.18,55.15.54,8.65,1.13,17.17,1.68,25.6,11.69-1.54,23.42-2.63,35.29-3.22,34.94-1.72,70.51.68,106.58,6.48-76.12-5.71-93.07-4-106.34-3.35-5.71.31-19.08,1.26-35.35,3.08,1.63,24.87,3.17,48.57,4.58,70.68a289.36,289.36,0,0,1,31.9-3.62c29.13-1.72,58.81.68,88.9,6.48-63.48-5.71-77.62-4-88.72-3.35-5,.31-17.22,1.35-31.9,3.39,2,31.31,3.76,59.32,5.21,82.74,18.13-3.13,43.77-4.08,65.25-3.13a223.89,223.89,0,0,1,23.43,2c6.71.95,11.92,2.27,14.82,3.85,2.53,1.41,3.58,3.13,2.85,5.21-.59-6.75-22.61-8.15-41.5-9-9.2-.41-18.9.5-28.69.77-6,.14-21.7.41-36,2.63,1,16.77,1.9,31.13,2.63,42.64a180.42,180.42,0,0,1,44.31-5.12,163.47,163.47,0,0,1,57.82,11.46c-32.49-7.07-37.43-8-57.95-8.34a172.75,172.75,0,0,0-44,5.31l.68,11.05a75.43,75.43,0,0,1,21.75,3.81c12.14,4,23.2,11.28,32.94,22.16-18.31-13-21.12-15-33.89-19.22a72.23,72.23,0,0,0-16.27-3.35,80.58,80.58,0,0,1,26.14,18c8.84,9.29,15.18,20.89,18.67,35-10-20.12-11.64-23.11-20.93-32.86-7.43-7.83-16.77-13.91-27.73-18.39,15.86,21.25,18.39,59.9,18.39,60-6.16-20.76-6.2-38.65-18.48-55.33.27,4.89.45,7.52.45,7.52s-27.82-30.58-40.33-17.49c-3.62,3.76-3.62,8.43-1.86,13.19,8.84,4.75,21,14.54,23.34,33.35a41.31,41.31,0,0,1-.91,16.63,24.32,24.32,0,0,1-8.33,12.68,25.24,25.24,0,0,1-12.55,5,29.76,29.76,0,0,1-11.74-.9c4.35.09,9.11.59,15.18-2.18a25.38,25.38,0,0,1-12.46-3.13,11,11,0,0,1-4.81-5.48c-1.26-3.31-.63-7.2,1.23-11.14a42.87,42.87,0,0,1,8.11-11.33,57,57,0,0,1,6.57-5.89c-13.32,3.31-32.44,9.38-48.85,19.57a68.41,68.41,0,0,0,15.55,34.21c12.18,14.28,30.31,23.56,52,26.37,11.69,1.5,25.11.73,40.6-3.58s33.13-12.23,53-25c82.29-53.15,99.28-234.49,102.36-332,.22-7.11,1.67-40.91,3.4-63.48,0,.5,3.44,94.43-11.6,192.62h.13s.77,4.58,12.51,5.89a43.32,43.32,0,0,0,19.53-2.44c-1-1.14-2-2.18-2.9-3.22-13.82-10.69,2.63-61.17,5.07-67.52,6.57-16.85,17.67-31.12,31.77-39.64,8.38-5.08,31.08-11.6,45.58-1.82-1-.27-2-.49-3-.72a84.24,84.24,0,0,1,8.93,10.24,92.06,92.06,0,0,0-19.67-43.09c-10.14-12.51-36.33-32.67-46.67-37.7,20.94,9,37.39,21.25,49.12,35.75a94.72,94.72,0,0,1,21.12,50.43c.9,1.36,1.81,2.72,2.72,4.12,16.81-33.25,24.69-63.7,24.1-90.43.27-11.83-7.25-51.52-25-70.69ZM171.16,684.55c-4.76-4.31-12.46-12.06-15.72-19.76A39.47,39.47,0,0,1,172,684.36c-.27,0-.54.14-.81.18ZM422.45,238.09a24.13,24.13,0,0,1,7.71,7.16,29,29,0,0,1,4.62,17.4,41.93,41.93,0,0,1-6,19.39c2.94.5,5.57,1.45,6.88,2.85-6.93-2-13-1.63-18.39.5s-10.33,6.12-14.82,11.29c1.72-7.71,9.38-12.51,13.64-14.19,2.17-.86,6.39-1.17,10.42-.77,3.72-6.3,5.94-13.36,6.16-19.16a26.28,26.28,0,0,0-4.3-16.14,22.1,22.1,0,0,0-7-6.57,27.47,27.47,0,0,0-14.36-3.71c-17,.32-21.89,11.19-26.42,25.15a32,32,0,0,1,1.13-8c3.27-11.87,12.78-19,25.24-19.26a29.14,29.14,0,0,1,15.45,4Zm-25.28,25a9.56,9.56,0,0,0,9.56,9.56,9.79,9.79,0,0,0,5.84-2c.05.63.1,1.31.1,2a15.5,15.5,0,1,1-15.5-15.54,14.26,14.26,0,0,1,2,.13,9.82,9.82,0,0,0-2,5.85Zm89.94,24.78a18.26,18.26,0,0,1,1.32,1.32A18.26,18.26,0,0,0,487.11,287.88Zm-76.4-81.82s-14.54,5-27.64,2.13S367.85,194.14,373,189.52s20.08-3.67,27.37,3a47.84,47.84,0,0,1,10.33,13.5Z"/><path id="path56" class="cls-2" d="M481.54,642.18c3.76,6.62,6.3,11.55,8.11,15.09,3,5.93,3.9,7.7,5.3,7.7,2.45,0,13.6-4.21,29.36-12.41a356.18,356.18,0,0,0,37.61-22.66c29.14-20,30.59-20.43,30.63-20.43l-1-.1-.31-1-19.9-63.26-2.4-7.52,5.08,6.07c.09.09,29,34.76,33.12,34.76,1.5,0,4.85-3.76,8.52-8.7,35.43-47.58,62.26-154.51,66.33-205.67,2.63-32.85.59-60.86-3.3-83.33-6.85-39.6-19-61.76-21.48-63.26-3.4-2-48,13.1-48.17,13.14l-20.16,6.8,18.94-9.7c.14,0,38.7-19.71,41-30.17,1.46-6.67-8.06-40.47-26.41-73.55C607.56,97.26,525.77,18.24,498,32.14c-4,3-22.11,38.34-38.88,67.74,18.17-17.49,47.58-43.86,57.5-41.27,14.73,3.85,98.2,90.67,95,128s-75,71.41-75,71.41l107-9.51s6.43,0,6.43,98.87-48.07,188.63-48.07,188.63l-52.16-38.42s9.11,93.43,0,106.88c-6.16,9.11-42.64,27-68.24,37.66Z"/><path id="path58" class="cls-5" d="M407,236.14c-17,.32-21.88,11.2-26.41,25.15V261a43.07,43.07,0,0,0,1.22,14.05,14.58,14.58,0,0,1-.18-2.4,15.53,15.53,0,0,1,15.5-15.55,14.23,14.23,0,0,1,2,.14,9.8,9.8,0,0,0-2,5.85,9.57,9.57,0,0,0,9.56,9.56,9.74,9.74,0,0,0,5.84-2c.05.64.1,1.32.1,2a15.49,15.49,0,0,1-29.32,7c1.54,3.9,3.58,6.89,5.93,8.25,5.85,3.31,12.92,3.22,15.86,3a25.74,25.74,0,0,1,11-8.38c2.17-.86,6.39-1.18,10.42-.77,3.71-6.3,5.94-13.37,6.16-19.17a26.3,26.3,0,0,0-4.3-16.13,21.87,21.87,0,0,0-7-6.57A27.42,27.42,0,0,0,407,236.14ZM98,250.64a7.24,7.24,0,0,0-1.22.14,9.82,9.82,0,0,0-4.85,2.76,18.58,18.58,0,0,0-4.76,9.75,37.25,37.25,0,0,0,2.72,24,11.72,11.72,0,0,1,1.13.36c2,.73,5.62,3.9,7.12,6.66a4.34,4.34,0,0,0,2-.41c.59-2,1.18-4.12,1.81-6.16a6.88,6.88,0,0,1-3.12.77c-5,0-9-5.62-9-12.55a19.17,19.17,0,0,1,.36-3.63c.64,2.13,2,3.63,3.63,3.63,2.22,0,4-2.81,4-6.3a7.56,7.56,0,0,0-2.08-5.53,6.69,6.69,0,0,1,3.08-.77c3.8,0,7.06,3.36,8.38,8,.59-1.63,1.13-3.26,1.72-4.84-.36-3.36-.81-5.81-3.85-11.52a8.33,8.33,0,0,0-3.58-3.62,7.15,7.15,0,0,0-3.49-.73Z"/><path id="path62" class="cls-6" d="M163.93,46.89c-3.33,0-7.52,1.57-12.94,5.2V74.2l-2.81-3.94-8.56-11.87c-8,4.12-56.91,32.94-104.54,144C-13.72,316.21,7.13,406.56,10,417.61c5.94.05,32.08.23,34.66,0h.46c2.44-.18,2.44-.13,4.48-.27C42.83,426,19,447.75,16,450.6c-.05,2.18.18,10.65,5.12,29.72,4.48,17.13,12.64,43.78,16.36,55.74,3.89-23.65,10.92-50.16,11.37-51.93-7.16-16.63-4.12-36.88,3.26-56.73,6.3-16.95,16.31-34.43,25.56-48.66-5.3-32.58-6.17-63.62-3-92.48,5.84-54.25,25.73-100.91,56.68-136a201,201,0,0,1,57-45.09l-.5.18c-3.17-9.42-5.3-18.62-7.25-27-2.72-11.6-5-21.43-8.84-27-2-2.85-4.44-4.5-7.77-4.52ZM121,556.81c-4.26,3.08-19.58,13.82-34.44,21.16a56.25,56.25,0,0,1-9.88,3.81c4.4,6.43,8.84,12.28,13.32,17.63s9.16,10.42,13.78,15c3.85-5.07,12.5-16.35,17.17-22.11,4.49-5.57,8.43-11.1,10.06-13.46-3.53-7.29-6.89-14.63-10-22Z"/><path id="path164" class="cls-7" d="M161.78,634.57c-10.74-17.4-20.53-34.89-29.19-52.52-2,2.81-5.39,7.48-9.24,12.24-5.93,7.34-19,24.56-19,24.6l-1.36-1-.09.09c-.18-.23-.41-.45-.63-.68l-.41-.27s0,0,0,0c-3-2.94-5.93-6-8.88-9.29C87.83,621.16,59,699.91,79.9,738a63.3,63.3,0,0,0,4.75,7.3c.95-3.22,3.27-8,8.66-14.59,7.38-9.06,12.73-9.7,15.81-8.75a83.29,83.29,0,0,1-3.22-30.63,93.39,93.39,0,0,1,6.44-28.68c3.31-7.93,7.84-14.41,13.37-18.26,11.37-8,23.24-11.19,34.66-10a13.4,13.4,0,0,1,1.4.18Z"/><path id="path166" class="cls-7" d="M272.65,745.58c-15.22,9.83-29.18,16.81-41.91,21.52A35,35,0,0,1,238.31,778a28.84,28.84,0,0,1,2.17,11.42c55.28-6.8,61.22-29.32,63.35-37.52l.09-.27c1.68-6.44,1.36-28.14,1.13-37.07-9.51,12.64-20.25,23.2-32.4,31Z"/><ellipse id="ellipse168" class="cls-1" cx="196.53" cy="614.72" rx="15.81" ry="20.21"/><ellipse id="ellipse170" class="cls-1" cx="190.73" cy="550.69" rx="15.81" ry="39.83"/><ellipse id="ellipse172" class="cls-1" cx="183.83" cy="469.86" rx="15.83" ry="34.37" transform="translate(-10.89 4.41) rotate(-1.33)"/><ellipse id="ellipse174" class="cls-1" cx="180.7" cy="391.65" rx="15.83" ry="39.84" transform="translate(-7.33 3.47) rotate(-1.08)"/><ellipse id="ellipse176" class="cls-1" cx="181.55" cy="307.61" rx="15.83" ry="39.84" transform="translate(-5.75 3.47) rotate(-1.08)"/><ellipse id="ellipse178" class="cls-1" cx="191.38" cy="231.12" rx="35.23" ry="16.05" transform="translate(-84.99 348.03) rotate(-73.3)"/><path id="path180" class="cls-8" d="M458.36,429a50.72,50.72,0,0,0-25.53,6.76c-13.46,8.16-24.1,21.89-30.4,38.11-10.7,27.46-10.15,48.94-9,59.4v.05c1.72,3.49,5.48,7.75,10.69,12.23,10.83,9.29,27.64,19.4,45,25.52s35,8.33,47.94,2a29,29,0,0,0,9.42-7.25,15.79,15.79,0,0,0,1.36-1.72c11.78-15.86,8.39-43.77-1-70.32-9.42-26.74-24.87-52.07-37.15-62.67a25.44,25.44,0,0,0-2-1.58,67.14,67.14,0,0,0-9.44-.56ZM51,488.43c-3.58,13.87-15.86,63.85-12.37,79.21a18.4,18.4,0,0,0,1.27,3.62c2.4,4.81,7.11,7.66,12.87,8.93,6,1.32,13.05.95,19.85-.59a56.53,56.53,0,0,0,12.59-4.44c15.45-7.61,31.4-19,34.53-21.3q-3.81-9-7.2-18.07c-3.36-1.5-40.38-18.67-58.23-42.28A43.69,43.69,0,0,1,51,488.43Zm67.74,253.35c-1.9,3.12-5.89,10.05-7.34,15a42.7,42.7,0,0,0-1.86,10A149.54,149.54,0,0,0,139.21,780a219.27,219.27,0,0,0,38.43,8.7,20,20,0,0,0-.36-9.7c-.73-2.4-1.18-3.76-1.5-4.48-22-3.08-40.37-12.69-52.79-27.28-1.49-1.77-2.94-3.58-4.26-5.48Zm337.49,1.15c-3.53.12-7.8,1.79-12.15,5.33-4.85,4-9.74,10.28-13.64,19.34a132.64,132.64,0,0,0-9.7,38.34c19.71,2.81,43.37,3.62,66.93,2.08-.64-3.35-2.13-11.1-5.44-24.1a113.42,113.42,0,0,0-10.92-27.19c-4.08-7.11-8.38-12.37-11.82-13.41a10,10,0,0,0-3.26-.39Z"/><path id="path182" class="cls-9" d="M447.24,430.26a46.75,46.75,0,0,0-14.41,5.53c-13.45,8.15-24.1,21.88-30.4,38.11-10.69,27.46-10.15,48.93-9,59.4v.05c1.72,3.49,5.48,7.74,10.69,12.23,10.83,9.29,27.64,19.39,45,25.51s35,8.34,47.94,2a28,28,0,0,0,5.17-3.22,4.41,4.41,0,0,1-.41-1.81s-34.35-17.81-62.44-57.23c-26.06-36.52-9.92-73.18,7.79-80.61ZM76.69,514.73v5.48s-.73,23-17.54,39.1c-9.33,8.93-15.77,11-19.66,11.06.13.32.27.59.41.9,2.4,4.81,7.11,7.66,12.86,8.93,6,1.31,13.05.95,19.85-.59a56.79,56.79,0,0,0,12.6-4.44c15.45-7.61,31.4-19,34.53-21.3q-3.81-9-7.21-18.07a217.64,217.64,0,0,1-35.84-21.08ZM106.23,726c-2.75.11-6.33,1.68-10.51,6.77-7.43,9.11-8.61,13.73-8.65,15.64a86.79,86.79,0,0,0,19.48,16.58,50.28,50.28,0,0,1,1.86-9.06c1.81-6.12,7.16-15,8.43-17A70.53,70.53,0,0,1,111,727.38a7.74,7.74,0,0,0-4.8-1.43ZM413.34,742.5a15.69,15.69,0,0,0-8.1,3,38.74,38.74,0,0,0-9.2,9.29c-12.41,16.54-19.89,28.55-22.25,32.49,9.34,7.84,22,13.91,38.48,17.22,1.54.31,3,.59,4.48.81l.91.14a134.37,134.37,0,0,1,9.92-39.06,58.16,58.16,0,0,1,3.4-6.89,124.26,124.26,0,0,0-6.43-10.74,15.87,15.87,0,0,0-3.54-3.71,12.08,12.08,0,0,0-6.66-2.54c-.33,0-.66,0-1,0Zm87.4.34a15.31,15.31,0,0,0-7.23,1.57c-6.89,3.45-13.27,17.13-14.68,20.3a119.59,119.59,0,0,1,6.48,18.49c3.35,13.41,4.89,21.34,5.48,24.6a310.39,310.39,0,0,0,31.59-4,214.26,214.26,0,0,0,27.41-6.66c-2.18-5.58-9.47-22.57-21.48-37-6.57-7.89-12.87-12.65-18.53-15.14a23.16,23.16,0,0,0-9-2.16ZM228.3,768q-4.91,1.69-9.52,3c-14.86,4.17-28,5.12-39.46,3.94.22.77.54,1.81,1,3.17a23.45,23.45,0,0,1,.5,11,247,247,0,0,0,56.59.64,24.85,24.85,0,0,0-2-10.61A46.82,46.82,0,0,0,228.3,768Z"/><path id="path200" class="cls-10" d="M614.08,724.6a97.34,97.34,0,0,1-12.15,38.07c8.79,1,24.15.63,39.47-1.82A83.89,83.89,0,0,0,640,736.16c-1.32-5.85-3.31-10-5.57-12.82-2.63-3.22-5.62-4.63-8.34-4.63-3.85,0-9.56,3.95-12,5.89Z"/><path id="path40" class="cls-2" d="M171.29,698.55c-2.49,1.27-4.08,4.44-4.89,7.8a19.89,19.89,0,0,0-.14,9.38,5.41,5.41,0,0,0,.36,1,5.32,5.32,0,0,0,4.49,3.18,22.25,22.25,0,0,0,3.31-7,33.54,33.54,0,0,0,1.22-9.06l-.36-.1s.18-.45.36-1.08c0-1.32-.13-2.72-.32-4.22-.49-.54-1.45-.72-3-.27a7.36,7.36,0,0,0-1,.36Z"/><path id="path42" class="cls-2" d="M165.58,706.16c.86-3.58,2.59-6.93,5.35-8.34a9.27,9.27,0,0,1,1.09-.45,5.56,5.56,0,0,1,3.17-.18,58.89,58.89,0,0,0-1.09-6.08,3,3,0,0,0-1.4-.18,8.45,8.45,0,0,0-4,2.18,27.7,27.7,0,0,0-4.49,4.89c-4.48,6.07-8,14.55-5.93,19.44,2.44,5.76,6.66,6.62,8.74,6.66l.14-.13a19.78,19.78,0,0,0,3.35-3.31,6.12,6.12,0,0,1-4.62-3.54,6.64,6.64,0,0,1-.45-1.17,21.77,21.77,0,0,1,.13-9.79Z"/><path id="path44" class="cls-2" d="M157.52,717.76c-2.18-5.21,1.4-14,6-20.25a29.72,29.72,0,0,1,4.63-5,9,9,0,0,1,4.44-2.36,2.77,2.77,0,0,1,1.22,0c-.32-1.36-.73-2.63-1.13-3.81-5.4,1-13,6.12-19.08,12.42a40.35,40.35,0,0,0-7.75,10.74c-1.63,3.49-2.22,6.84-1.18,9.56a8.87,8.87,0,0,0,3.95,4.39c5.8,3.45,12.73,3,15.58,2.63.59-.41,1.18-.81,1.82-1.27-2.45-.31-6.26-1.72-8.52-7.07Z"/><path id="path102" class="cls-11" d="M168.39,724.88s-7.29,1.26-10.87-7.12c-2.18-5.21,1.4-14,6-20.25a29.72,29.72,0,0,1,4.62-5,9,9,0,0,1,4.45-2.36,3,3,0,0,1,3.08,1.32l-.68.45a2.31,2.31,0,0,0-2.31-.95,8.33,8.33,0,0,0-4,2.17,28.15,28.15,0,0,0-4.49,4.9c-4.48,6.07-8,14.54-5.93,19.44,3.3,7.79,9.92,6.57,9.92,6.57l.18.86Z"/><path id="path104" class="cls-11" d="M172.24,720.66a6,6,0,0,1-6.34-3.53,7.07,7.07,0,0,1-.45-1.18,21.77,21.77,0,0,1,.13-9.79c.86-3.58,2.59-6.93,5.35-8.34a11.37,11.37,0,0,1,1.09-.45c7.43-2.18,4.07,6.66,4.07,6.66l-.81-.27s2.81-7.25-3-5.57a6.22,6.22,0,0,0-1,.36c-2.49,1.27-4.08,4.44-4.89,7.79a19.89,19.89,0,0,0-.14,9.38,5.53,5.53,0,0,0,.36,1,5.13,5.13,0,0,0,5.44,3.12l.18.82Z"/><path id="path66" class="cls-11" d="M413.55,0a466.17,466.17,0,0,0-59.74,3.31c-84.23,10.17-149,42-170.94,71.36-2.48-10.59-4.82-19.59-8.59-25.06-5.16-7.47-12.59-8.74-25.73.32l-.69.5v14l-6.48-9-.76-1-1.14.54c-.18.09-54.78,23.83-107.29,146.22S7.17,419.3,7.26,419.62l.32,1.13H8.76c.08,0,22.08.16,31.77.07-9.69,9.45-27.07,27.89-27.15,27.93l-.45.41,0,.64s-.77,8.29,5.26,31.31c5.92,22.74,18.18,61.74,18.29,62C35,553.63,34.35,563,35.58,568.38a21.41,21.41,0,0,0,1.5,4.26c2.85,5.8,8.38,9.15,15,10.6,6.39,1.45,14,1,21.16-.59l.18,0A225.87,225.87,0,0,0,87.6,601.41q1.55,1.86,3.11,3.64c-1.25,3.05-36.86,92.14-13.53,134.47a64.83,64.83,0,0,0,6.94,10.17h0a3.57,3.57,0,0,0,.27,1.11l.48-.22c12.34,14.44,31.4,25.2,53.39,32.39,31.08,10.25,68.1,13.42,100,9.88,59.81-6.71,66.25-31.31,68.6-40.19l.05-.27c2.09-7.93,1.23-37.33,1.09-41.87,3.69-5.23,7.2-10.78,10.51-16.6,1.84-1.07,6.27-2.91,15.18-2.75a66,66,0,0,1,19.4,3.18c-.55,12.8-1.29,24.27-2.41,29.9-.18.91-.37,1.86-.55,2.9-2.76,16.9-.13,34.44,9.57,49.07s26.41,26.24,52,31.36c1.4.27,2.94.54,4.57.81,30.32,4.94,71.14,4.94,106.67-1.49,29.77-5.35,55.91-15.23,69.19-30.45a86.46,86.46,0,0,0,8.06-10.84c10,1.4,30.34.84,48.94-3,13.6-2.81,26.33-7.39,33.58-14.27C696.09,735.62,698,718.59,700,700.51c.59-5.21,1.17-10.47,2-15.68,2.31-13.64,6.16-21.84,19.39-49.75,9.15-19.31,22.75-48,43.27-94.39,29-65.29,47.22-167.19,26.24-265.57-15.7-73.82-53.41-145.68-125.14-198.69l-.09-.05c-4.89-3.22-9.74-6.25-14.59-9.15A466.26,466.26,0,0,0,413.56,0Zm0,3.14a463.65,463.65,0,0,1,236,66.73c4.85,2.94,9.7,6,14.41,9.06,71,52.52,108.38,123.66,124,196.79,20.8,97.7,2.72,198.87-26,263.67-20.57,46.4-34.16,75.08-43.27,94.34C705.2,662,701.3,670.24,699,684.29c-.86,5.34-1.5,10.64-2,15.86-2,17.49-3.81,34-16.4,45.94-6.8,6.43-19,10.79-32,13.46-1.72.35-3.46.67-5.2,1a84,84,0,0,0-1.46-24.76c-1.36-6.16-3.49-10.56-5.94-13.55-3-3.71-6.52-5.3-9.69-5.35-3.78,0-8.82,3.12-11.88,5.32a121.7,121.7,0,0,0,.46-13.25A140.82,140.82,0,0,0,609.19,673c6-2.83,21.85-12.35,46.57-41.66,31.9-37.88,38.61-57.55,38.66-57.59a537.26,537.26,0,0,1-41.06,55.55c-24.12,28.65-39.3,37.91-45.08,40.7a150.2,150.2,0,0,0-18.94-39.66c10.83,23.07,22.06,67.56,22.29,78.62.5,23.88-6,47.17-21.88,65.38-8,9.22-21.14,16.42-37,21.8-2.11-5.39-9.54-22.95-22.06-38-6.93-8.29-13.64-13.36-19.66-16-7.48-3.26-14.05-2.94-18.94-.5-6.56,3.26-12.39,14-15,19.44-1-2-2-4-3.08-5.84-4.44-7.8-9.38-13.59-13.64-14.86-4.85-1.45-11.65.09-18.26,5.48a44.9,44.9,0,0,0-9.27,10.57,107.8,107.8,0,0,0-5.73-9.39,18.41,18.41,0,0,0-4.26-4.44,15.22,15.22,0,0,0-8.34-3.18,18.14,18.14,0,0,0-11,3.54,41.55,41.55,0,0,0-9.92,10c-12.4,16.52-19.68,28.17-22.14,32.27a59.42,59.42,0,0,1-9.13-10.66c-9.2-13.91-11.69-30.67-9.06-46.85.18-.86.31-1.77.54-2.76,7-35,1.27-87.36,1.22-87.55-.56,5-.86,30.92-1.76,53.76A70.31,70.31,0,0,0,333.73,688c-6.55-.13-10.47.65-12.79,1.51,21.9-40.48,35.35-93.32,43.57-145.32,2.05,1.91,5.86,4,12.95,4.8a44.39,44.39,0,0,0,10,0c3.72,2.85,63,48.38,82.16,79.28,9.38,15.09,14.23,24.61,17.22,30.45,3.72,7.21,4.8,9.38,8.11,9.38,2.81,0,14.59-4.3,30.81-12.73a371.48,371.48,0,0,0,37.93-22.84C587.84,616,593,609.89,593.6,607.67l.59-.19L576.6,551.62c8.79,10.19,26.37,30,30.5,30,2.63,0,6.84-4.3,11-10C654,523.52,681,416,685.08,364.29c2.67-33.12.59-61.39-3.35-84.09-7-40.6-20.21-63.76-22.93-65.39-2.95-1.76-21.66,3.58-35.53,7.89,11.78-7,27-17.27,28.55-24.47s-8.05-42.06-26.71-75.77c-15.5-28-98.42-108.16-128.5-93.12-2.7,1.35-38,64.88-53.77,93.35-2.81-2.61-11.38-10.17-26.17-18.63a143.86,143.86,0,0,0-35.75-14.14C360.08,53.29,323.74,55.39,293.83,80a247,247,0,0,0-39.6,3.18A215,215,0,0,0,190.63,104c-2.84-8.62-4.91-17.25-6.77-25.17,19.73-29.35,84.8-62,170.38-72.33a461.46,461.46,0,0,1,59.32-3.28Zm91.9,27.36c32.71-.26,103.28,68.82,116.9,93.47,18.35,33.07,27.86,66.88,26.41,73.54-2.26,10.47-40.82,30.13-41,30.18l-18.94,9.69,20.16-6.8c.14,0,44.77-15.17,48.17-13.13,2.45,1.49,14.64,23.65,21.48,63.25,3.89,22.48,5.93,50.48,3.31,83.33-4.08,51.15-30.91,158.09-66.34,205.67-3.67,4.94-7,8.7-8.52,8.7-4.08,0-33-34.67-33.12-34.76l-5.08-6.07,2.4,7.52,19.9,63.26.31,1,1,.09s-1.49.45-30.63,20.43a356.14,356.14,0,0,1-37.6,22.66C508.55,660.76,497.4,665,495,665c-1.4,0-2.31-1.76-5.3-7.7s-7.93-15.54-17.35-30.68c-19.81-31.93-78.72-77-80.42-78.3a42.41,42.41,0,0,0,7.9-2.44c.75.69,1.51,1.38,2.33,2.08,11.05,9.52,28.27,19.85,46,26.15,18,6.34,36.61,8.56,50.34,1.9a32.62,32.62,0,0,0,10.42-8.06,22.91,22.91,0,0,0,1.54-1.91c12.46-16.85,9.11-45.76-.54-73.22a212.5,212.5,0,0,0-18.65-39.37c17.66-34.37,25.94-65.91,25.31-93.58-.61-27.36-9.91-51-27.43-69.8,17.25,19.44,24.56,58.2,24.3,69.85.58,26.72-7.31,57.19-24.12,90.41q-1.33-2.08-2.68-4.05a95.09,95.09,0,0,0-21.14-50.48C453.76,381.27,437.32,369,416.38,360c10.33,5,36.52,25.2,46.67,37.7a92.37,92.37,0,0,1,19.69,43.11,87.88,87.88,0,0,0-9-10.24c1,.21,2,.45,3.05.71-14.5-9.79-37.2-3.27-45.59,1.81-14.09,8.52-25.19,22.79-31.76,39.65-2.49,6.38-18.88,56.87-5.05,67.5q1.31,1.56,2.91,3.2a42.89,42.89,0,0,1-19.56,2.48c-11.74-1.32-12.51-5.9-12.51-5.9l-.13,0c15-98.19,11.62-192.13,11.6-192.64-1.73,22.56-3.18,56.37-3.4,63.48C370.25,508.47,353.26,689.8,271,743c-19.89,12.83-37.48,20.71-53,25.06s-28.91,5.08-40.6,3.58c-21.7-2.81-39.83-12.1-52-26.37-11.73-13.73-17.89-32.08-16.31-53.65a91,91,0,0,1,6.21-27.68c3.13-7.44,7.25-13.46,12.23-16.95,10.79-7.48,21.89-10.56,32.58-9.43,10.88,1.14,21.39,6.57,30.68,16l0,0,0,.07.13,0c18.3,18.72,17.38,38.62,24.38,62.26,0-.12-2.55-38.79-18.44-60,11,4.49,20.32,10.56,27.78,18.4,9.29,9.74,10.92,12.74,20.93,32.85-3.49-14.13-9.83-25.74-18.67-35a80.83,80.83,0,0,0-26.14-18A72.66,72.66,0,0,1,217,657.45c12.77,4.26,15.58,6.16,33.89,19.21-9.74-10.87-20.8-18.12-32.94-22.15a78.83,78.83,0,0,0-25.68-3.87,65.23,65.23,0,0,0-9-7.56,179.79,179.79,0,0,1,56.27-8.74c20.53.32,25.47,1.27,58,8.34a163.08,163.08,0,0,0-57.82-11.46,185.3,185.3,0,0,0-60,9.57,49,49,0,0,0-13.66-5.47c-.27-.44-.58-.93-.7-1.11-39.06-62.9-65-127.15-73.32-193.26-6.66-52.52-2.22-106.21,15.73-161.36,2.35-7.16,11.42-32.8,14.68-46.17q-6.93,15.32-12.46,30.48a27.65,27.65,0,0,0-3-9.91,10.39,10.39,0,0,0-4.49-4.53,9.53,9.53,0,0,0-6.07-.72,12,12,0,0,0-5.85,3.3,21.13,21.13,0,0,0-5.39,10.83,40.25,40.25,0,0,0,2.29,23.94,11.51,11.51,0,0,0-8,1.8,23.33,23.33,0,0,1,11,.77,16.16,16.16,0,0,1,8.43,7c-.09-2.95-5.3-7.84-7.79-8.74-.34-.13-.73-.25-1.16-.37-.59-1.13-5.42-10.59-2.69-24a18.58,18.58,0,0,1,4.75-9.74,9.83,9.83,0,0,1,4.85-2.76,7.29,7.29,0,0,1,4.72.59A8.37,8.37,0,0,1,105,255c3,5.72,3.48,8.18,3.84,11.54-.58,1.62-1.13,3.23-1.69,4.85-1.31-4.7-4.57-8.05-8.4-8.05a6.57,6.57,0,0,0-3.08.77,7.56,7.56,0,0,1,2.08,5.53c0,3.48-1.81,6.29-4,6.29-1.58,0-3-1.49-3.62-3.62a18.27,18.27,0,0,0-.37,3.62c0,6.94,4,12.56,9,12.56a6.75,6.75,0,0,0,3.14-.8,379.66,379.66,0,0,0-14.78,77.19c-2.16,3-4.48,6.38-6.89,10-4.77-31.09-5.49-60.66-2.49-88.28,5.75-53.56,25.42-99.64,55.91-134.3s71.82-57.91,121-66c5.35-.91,10.74-1.59,16.27-2.14,8.11-.72,36.48-2.08,53.29-2.53q-13.06-1.41-25.62-1.6c28.05-22.51,60.66-23.36,79.85,12l.37.63.67.14a140.32,140.32,0,0,1,35.53,14C431.21,116,439.7,124,441.25,125.52l-6.51,11.8c16.13-16.54,57-100.41,63.25-105.17a16.68,16.68,0,0,1,7.44-1.63ZM489.14,290c-.66-.74-1.34-1.47-2-2.15C487.81,288.6,488.47,289.32,489.14,290ZM163.93,46.89c3.33,0,5.8,1.66,7.77,4.51,3.81,5.53,6.12,15.37,8.84,27,2,8.33,4.08,17.53,7.25,27l.56-.19a201.19,201.19,0,0,0-57,45.09c-31,35.12-50.84,81.78-56.69,136-3.1,28.84-2.27,59.87,3.07,92.47-9.28,14.22-19.3,31.7-25.59,48.68-7.37,19.82-10.38,40.07-3.27,56.69-.08.31-7.35,27.61-11.35,51.95-3.68-11.84-11.84-38.47-16.37-55.72C16.19,461.25,16,452.77,16,450.6c3-2.86,26.83-24.65,33.58-33.26-1.83.14-2.73.17-4.49.28a1.65,1.65,0,0,0-.45,0c-2.58.23-28.73.05-34.66,0-2.86-11.06-23.7-101.41,25.1-215.19,47.62-111.1,96.56-139.93,104.53-144l8.56,11.87,2.81,4V52.07c5.41-3.62,9.6-5.22,12.93-5.19ZM384,186.66c-4.54-.13-8.66.83-10.92,2.85-5.17,4.62-3,15.72,10.05,18.67s27.64-2.13,27.64-2.13a47.84,47.84,0,0,0-10.33-13.5c-4.1-3.78-10.61-5.73-16.44-5.89ZM217,192.58a90.1,90.1,0,0,0-38.23,9.08c16.94-6.8,41-6.12,46.76-5.58s13.55.41,46.4,13C256.67,200,241.26,194.45,225.76,193a85.24,85.24,0,0,0-8.75-.38ZM113.32,216.79c-4.49.13-9.5,1.64-12.66,4.57a36.55,36.55,0,0,0-7.93,10.38s11.19,3.85,21.25,1.63,11.73-10.78,7.75-14.36c-1.75-1.57-4.92-2.31-8.41-2.22ZM407,234.05c-12.46.23-22,7.39-25.24,19.26a31.36,31.36,0,0,0-1.13,8c4.53-13.95,9.42-24.83,26.41-25.15a27.45,27.45,0,0,1,14.37,3.72,22,22,0,0,1,7,6.57,26.3,26.3,0,0,1,4.3,16.13c-.22,5.83-2.48,12.87-6.13,19.19-4.05-.41-8.28-.12-10.45.75-4.26,1.67-11.92,6.48-13.64,14.18,4.48-5.16,9.33-9.11,14.81-11.28s11.47-2.49,18.4-.5c-1.32-1.41-3.95-2.34-6.91-2.85a41.37,41.37,0,0,0,6-19.4,28.86,28.86,0,0,0-4.62-17.4,24.11,24.11,0,0,0-7.7-7.16,29.24,29.24,0,0,0-15.45-4Zm-9.83,23.07a15.52,15.52,0,1,0,15.49,15.54c0-.68,0-1.36-.09-2a9.74,9.74,0,0,1-5.84,2,9.56,9.56,0,0,1-9.56-9.56,9.8,9.8,0,0,1,2-5.85,14.36,14.36,0,0,0-2-.13ZM186,265.18c-26.47-.07-50.14,2.78-52.29,10C146.15,266.54,183,268,193,268.31c9.79.27,19.48-.13,28.68.77,18.9,1.86,40.87,4.49,41.51,11.24.73-2-.32-3.81-2.9-5.35-2.85-1.76-8.07-3.35-14.77-4.71s-14.68-2.45-23.47-3.31c-11.43-1.1-24-1.74-36.07-1.77Zm5.21,82.64a291,291,0,0,0-81.61,11.25c31-7.66,76.12-8.29,87.05-8,11.1.23,25.33-.36,88.17,10.42-29.5-8.2-58.9-13-88.13-13.59-1.83,0-3.66-.06-5.48-.06ZM86.7,371a367.11,367.11,0,0,0,2.08,70.38A413.59,413.59,0,0,0,111,531.61c-9.27-4.47-38.91-19.77-54.2-40C44,474.66,46.55,451.33,55.07,428.49,63,407.06,76.09,386.13,86.7,371Zm150.71,57.24q-9.89.06-19.72.54a410.23,410.23,0,0,0-103,18.17c36.33-10.15,90.12-14.36,103.22-15,13.27-.64,30.22-2.36,106.34,3.35a528.6,528.6,0,0,0-86.85-7Zm221.78.8a69.71,69.71,0,0,1,8.6.55c.68.48,1.33,1,2,1.59,12.28,10.61,27.73,35.94,37.15,62.67,9.34,26.55,12.73,54.46,1,70.32a15.79,15.79,0,0,1-1.36,1.72,29.16,29.16,0,0,1-9.42,7.26c-12.91,6.29-30.68,4.07-47.94-2s-34.21-16.23-45-25.52c-5.18-4.45-8.92-8.69-10.66-12.21-1.18-10.44-1.77-31.92,8.94-59.47,6.3-16.22,16.94-29.95,30.4-38.11,7.62-4.56,16.74-6.74,26.36-6.76ZM51,488.43a43.87,43.87,0,0,0,3.33,5.08c18.37,24.29,56.7,41.62,58.23,42.29q3.39,9,7.19,18.05C118.19,555,101.65,567,85.2,575.17a57.12,57.12,0,0,1-12.6,4.44c-6.8,1.54-13.87,1.9-19.85.58-5.75-1.26-10.46-4.12-12.86-8.92a17.29,17.29,0,0,1-1.27-3.63C35.13,552.22,47.5,502,51,488.43ZM235.5,501.49q-8.25.06-16.45.54a289.75,289.75,0,0,0-85.91,18.17c30.27-10.15,75.17-14.36,86.1-15,11.1-.64,25.24-2.36,88.72,3.35a369.85,369.85,0,0,0-72.46-7ZM121,556.82q4.73,11,10,22c-1.08,1.54-4.91,7.07-10.08,13.46s-14.38,18.48-17.14,22.1c-4.64-4.58-9.24-9.51-13.81-15s-8.9-11.23-13.29-17.64a58.69,58.69,0,0,0,9.85-3.8c15.89-7.82,31.53-19,34.43-21.15ZM132.59,582q13,26.44,29.22,52.53c-.48-.07-1-.14-1.44-.18-11.42-1.18-23.29,2-34.66,10-5.53,3.85-10.06,10.33-13.37,18.26a93.09,93.09,0,0,0-6.43,28.68A83.12,83.12,0,0,0,109.13,722c-3.06-1-8.37-.38-15.82,8.73-5.41,6.62-7.72,11.38-8.65,14.6A60.17,60.17,0,0,1,79.9,738C58.38,698.89,89,617.83,93,607.65c2.93,3.26,5.89,6.35,8.84,9.28l0,.05.39.3.65.66.09-.09,1.36,1c.05,0,13.09-17.27,19-24.61,4.36-5.36,7.43-9.67,9.24-12.25Zm111,5.79c-33.87-.17-71.5,4-74.24,13.3,12.46-9.25,49.39-9.84,59.31-10.06s19.49-1.18,28.69-.77c18.89.81,40.91,2.22,41.5,9,.73-2.08-.31-3.81-2.85-5.21-2.9-1.59-8.11-2.9-14.82-3.85a221,221,0,0,0-23.42-2c-4.57-.2-9.33-.31-14.17-.34Zm-98,72.14c.65,1.33,18.35,4.37,26.31,24.37-5.81,1.29-13.69,6.53-19.88,13A43.22,43.22,0,0,0,144,708.63c-1.85,4-2.49,7.84-1.22,11.15a11.06,11.06,0,0,0,4.8,5.48A25,25,0,0,0,160,728.39c-6.05,2.73-10.78,2.24-15.16,2.17a29.61,29.61,0,0,0,11.74.91,25.24,25.24,0,0,0,12.55-5,24.26,24.26,0,0,0,8.34-12.69,41.45,41.45,0,0,0,.9-16.62C174.6,667,145.7,660,145.65,660Zm27,26.35c.42,1.21.8,2.49,1.14,3.82a3.3,3.3,0,0,0-1.22,0,8.89,8.89,0,0,0-4.44,2.36,29.31,29.31,0,0,0-4.62,5c-4.62,6.25-8.2,15-6,20.25s6,6.75,8.47,7.08c-.61.45-1.21.86-1.79,1.25-2.79.38-9.69.87-15.56-2.62a8.8,8.8,0,0,1-3.94-4.39c-1-2.72-.45-6.08,1.18-9.56a40.14,40.14,0,0,1,7.74-10.74c6-6.29,13.66-11.38,19.07-12.44Zm.69,4.58a2.35,2.35,0,0,1,.7.2,60.33,60.33,0,0,1,1.11,6.07,5.47,5.47,0,0,0-3.17.18c-.36.14-.72.27-1.09.45-2.76,1.41-4.48,4.76-5.34,8.34a21.65,21.65,0,0,0-.14,9.79,8.07,8.07,0,0,0,.45,1.18,6,6,0,0,0,4.63,3.52,19.52,19.52,0,0,1-3.36,3.32l-.14.11c-2.05,0-6.29-.88-8.74-6.64-2.08-4.89,1.45-13.36,5.94-19.43a28.52,28.52,0,0,1,4.48-4.9,8.33,8.33,0,0,1,4-2.17,2.62,2.62,0,0,1,.68,0Zm.71,7a1.92,1.92,0,0,1,1.25.55c.16,1.46.25,2.85.28,4.19-.17.61-.34,1.07-.34,1.08l.36.12a32.39,32.39,0,0,1-1.22,9,22,22,0,0,1-3.33,7,5.19,5.19,0,0,1-4.46-3.16,4.65,4.65,0,0,1-.36-1,20,20,0,0,1,.13-9.38c.82-3.35,2.4-6.52,4.9-7.79a5.78,5.78,0,0,1,1-.36,5.38,5.38,0,0,1,1.8-.25Zm131,16.58c.21,8.33.59,30.44-1.14,37.08l-.09.27c-2.15,8.22-8.11,30.7-63.36,37.52A28.67,28.67,0,0,0,238.32,778a34.29,34.29,0,0,0-7.56-10.87c12.74-4.72,26.66-11.7,41.9-21.53,12.16-7.83,22.9-18.41,32.41-31Zm321.07,4.18c2.72,0,5.71,1.41,8.34,4.63,2.26,2.8,4.26,7,5.57,12.82a80.55,80.55,0,0,1,1.34,24.68c-15.3,2.45-30.66,2.79-39.44,1.8a97.68,97.68,0,0,0,12.09-38c2.47-1.88,8.18-5.93,12.1-5.9Zm-519.59,7.21a7.86,7.86,0,0,1,4.52,1.48,70.23,70.23,0,0,0,5.77,11.46c-.77,1.21-6.52,10.51-8.43,17a49.33,49.33,0,0,0-1.84,9,86.75,86.75,0,0,1-19.46-16.55c0-1.88,1.07-6.42,8.61-15.65,4.35-5.32,8-6.81,10.83-6.8Zm12.19,15.83a69.1,69.1,0,0,0,4.26,5.51c12.41,14.59,30.81,24.19,52.79,27.23.29.73.74,2,1.49,4.54a20.15,20.15,0,0,1,.37,9.67A221.65,221.65,0,0,1,139.22,780a148.58,148.58,0,0,1-29.7-13.28,46.49,46.49,0,0,1,1.88-10c1.47-4.91,5.48-11.87,7.34-15Zm294.61.75c.34,0,.68,0,1,0A12.11,12.11,0,0,1,421,745a15.65,15.65,0,0,1,3.53,3.72A104.26,104.26,0,0,1,431,759.46a67,67,0,0,0-3.38,6.89,133.78,133.78,0,0,0-9.94,39.06l-.89-.13c-1.45-.23-2.95-.5-4.49-.82-16.47-3.31-29.11-9.39-38.47-17.23a389.4,389.4,0,0,1,22.25-32.48,38.75,38.75,0,0,1,9.2-9.29,15.55,15.55,0,0,1,8.1-3Zm87.4.33a23.41,23.41,0,0,1,9,2.17c5.66,2.49,12,7.25,18.53,15.13,12.12,14.57,19.35,31.56,21.47,37a219,219,0,0,1-27.41,6.68,311.82,311.82,0,0,1-31.59,4c-.58-3.22-2.09-11.08-5.47-24.57a119.67,119.67,0,0,0-6.47-18.44c.76-1.79,7.32-16.67,14.67-20.34a15.29,15.29,0,0,1,7.23-1.58Zm-44.52.1a10,10,0,0,1,3.26.39c3.44,1,7.75,6.3,11.82,13.41a113.75,113.75,0,0,1,10.92,27.19c3.32,13.18,4.82,20.8,5.42,24.07-23.57,1.58-47.2.76-66.89-2.09a130.81,130.81,0,0,1,9.69-38.29c3.89-9.07,8.79-15.36,13.63-19.35,4.35-3.54,8.63-5.21,12.15-5.33ZM228.29,768a44.28,44.28,0,0,1,7.13,11.15,25.07,25.07,0,0,1,2,10.61,247.72,247.72,0,0,1-56.61-.66,23.34,23.34,0,0,0-.49-11c-.65-2.16-.7-2.37-.94-3.18,11.5,1.16,24.57.22,39.46-3.94q4.62-1.28,9.49-3Z"/></g></g></svg>