<svg id="publicdomainvectors.org" xmlns="http://www.w3.org/2000/svg" viewBox="0 0 461.08 547.44"><defs><style>.cls-1{fill:#8ec641;}.cls-2{fill:#010101;}</style></defs><title>elephant 10</title><path class="cls-1" d="M252,548.91c.05.25.09.5.12.74q-10.67,1-21.61,1a229.46,229.46,0,0,1-102.21-23.86,11,11,0,0,0-.83-1.18c-2.47-3-6-18.12-4.12-22.79S145.07,443,151.11,442.7c4.93-.22,8.64-4.16,9.84-5.61,1.6.09,3.16.09,4.7,0,27.65,2.55,47.43-18.16,55.46-20.67,1.61,10,1.82,17.76,2.5,25.43,1.47,16.47-1.1,37.71-3.29,47.6s-17.35,51.3-8.06,56.75c2.76,1.62,12.75,2.45,23.22,2.58,2.12.1,4.33.16,6.57.19l.09.28c0-.1,0-.19,0-.28,3.34,0,6.71,0,9.93-.09m.34,0c0,.24,0,.48,0,.72,3.12-.29,6.23-.65,9.32-1.06,0-.07,0-.14,0-.21-2.74.26-5.92.44-9.31.55m-173-183.19c.66-14.44,5.62-27.44,10.8-37.61a30.85,30.85,0,0,0-4.56,1.51,17.94,17.94,0,0,0-4.89,3.09,15.81,15.81,0,0,0-3.48,4.71,46.26,46.26,0,0,0-2.48,5.92C71.87,351.65,70,360.52,67,369.08c-1.5,4.26-3.19,8.56-6,12.26a12.15,12.15,0,0,1-5.39,4.22,9.65,9.65,0,0,1-6.68-.25,9.39,9.39,0,0,0,6.49-.23,11.42,11.42,0,0,0,4.74-4.35c2.36-3.69,3.69-8,4.83-12.25,2.25-8.62,3.45-17.48,5.76-26.35A53.26,53.26,0,0,1,73,335.45a21.93,21.93,0,0,1,4-6.39,23.13,23.13,0,0,1,6-4.65,39.44,39.44,0,0,1,6.73-2.79c1.61-.52,3.21-1,4.77-1.43,3.22-5.45,6.06-9.57,7.44-12,3.49-6,1.05-12.44,7.41-21.07.14-.29.28-.57.43-.85l.15.08a38,38,0,0,1,3.82-4.15c25-23.71,54.19-21.6,80.18-31.49,2.31-.35,6.24-6.85,10.92-15.78l.09-.38.1,0c10.19-19.49,23.86-50.17,32.1-54.16,12.08-5.86,22.33-9.64,24.9-12.88,0,0,17.2-13.39,18.67-13.07s30.39-.05,35.88-1.51c3.67-1,18-11.38,31.24-27.39a24.7,24.7,0,0,0-.47-2.73c-.15-.63-.27-1.19-.38-1.72A229.42,229.42,0,0,0,230.54,89.6C103.22,89.6,0,192.81,0,320.13A229.64,229.64,0,0,0,55.58,470.25c5.76-12.59,12.17-28.28,13.15-33.87,0-1.64,9.6-48.47,10.62-70.66m381.73-45.59a229.87,229.87,0,0,0-74.21-169.41c-12.77,22.54-32.95,52-36.66,59.39,1.64,12.9,15.65,51.35,14,73.59s-28.56,7.87-28.56,36.8c-1.06,1.3-1.65,4-1.89,7.54a78.26,78.26,0,0,0,1.79,9.63,32.49,32.49,0,0,0,4.63,10.66l-3.57,2.55a27.68,27.68,0,0,1-2.14-4c1.85,19.53,6.16,42.47,5.94,43.15-.37,1.09-3.66,52-4,58.58s-.36,46.87,0,61.15c.11,4.33,2.42,8.42,5.56,12.2A230.47,230.47,0,0,0,461.08,320.13M102.15,447.41c-10.2,15-22.65,37.41-24.08,43.16-.16.61-.31,1.31-.46,2.05q4.56,4.06,9.35,7.88c1-3.55,3.39-7.52,4.29-11.3,1-4.13,6.76-26.6,10.9-41.79m195.76,64.4c-3-5.49.39-22.33,0-36.25s-7.29-44.67-9.49-53.82-8-41.06-8.05-45.33a6.82,6.82,0,0,1-2.09-.49l1-1.94,0,0c-4.7-.46-3.61,34.07-5.07,38.81s-3.81,35.32-5.49,47.41-1.83,32.41-7.69,42.29-2.93,22.34,2.93,29.3,9.15,11.35,6.59,14.64c-.64.82-3.75,1.45-8.16,1.89l0,.18a228.68,228.68,0,0,0,29.08-5.94c-3.3-6.43,9.22-25.72,6.53-30.73"/><path class="cls-2" d="M395,46.26c-1.76-7.54-9.47-26.4-14.42-36.76C379.41-2.17,374.22-.36,374.37,1A7.8,7.8,0,0,1,373.46,6c-2.15,3.63-7,3.89-5.68,6.62.53,1.05,2,1.34,2.62,3.39,1.67,5.11,2.6,8.93,4.43,13.36,2.56,6.23,11,37.72-2.93,68.84A122.66,122.66,0,0,1,354.29,126a56.08,56.08,0,0,0-1.53-6.65,20.06,20.06,0,0,0-1.57-3.94,2.74,2.74,0,0,0-2.38-1.59,2.32,2.32,0,0,0-1.83.89c-.61.77-1,1.75,0,6.47.11.53.23,1.09.38,1.72a24.7,24.7,0,0,1,.47,2.73,29.22,29.22,0,0,1-.11,7.75c-11,11.67-21.49,19-24.54,19.82-5.49,1.47-34.42,1.83-35.88,1.51s-18.67,13.08-18.67,13.08c-2.57,3.23-12.82,7-24.9,12.87-9.46,4.59-26.1,44.4-36.39,62a74.17,74.17,0,0,1-2.93,7.82,132.54,132.54,0,0,1-7.3,13.73,37.79,37.79,0,0,0-3.2,6.57,10.25,10.25,0,0,0-.2,6.49,16.77,16.77,0,0,0,3.57,5.89,24.86,24.86,0,0,0,5.75,4.33A53.53,53.53,0,0,0,217,292.72a73.42,73.42,0,0,0,14.92,2,60.32,60.32,0,0,0,14.94-1.36,33.24,33.24,0,0,0,13.42-6.1,25.74,25.74,0,0,0,2.7-2.54l2.67-2.78q2.69-2.75,5.45-5.43c3.69-3.58,7.5-7,11.47-10.3,7.94-6.5,16.56-12.38,26.2-16.12a49.93,49.93,0,0,1,15-3.44c1.3-.08,2.55-.1,3.81-.23a23.21,23.21,0,0,0,3.72-.68,15.15,15.15,0,0,0,6.59-3.5,13,13,0,0,0,3.7-6.46,19.37,19.37,0,0,0,.25-7.55,25.55,25.55,0,0,0-2.26-7.28,19.05,19.05,0,0,0-4.5-6.14,19.25,19.25,0,0,1,4.62,6.08,25.74,25.74,0,0,1,2.39,7.3,19.47,19.47,0,0,1-.13,7.68,13.54,13.54,0,0,1-3.72,6.74,15.87,15.87,0,0,1-6.77,3.74,24.94,24.94,0,0,1-3.81.76c-1.28.16-2.59.2-3.84.3A49,49,0,0,0,309.12,251c-9.42,3.84-17.84,9.78-25.59,16.35-3.88,3.3-7.61,6.78-11.21,10.39q-2.7,2.7-5.32,5.49l-2.61,2.8a27.52,27.52,0,0,1-2.84,2.76,35.43,35.43,0,0,1-14.18,6.75,62.06,62.06,0,0,1-15.52,1.68,75.64,75.64,0,0,1-15.5-1.78,64.21,64.21,0,0,1-9.6-2.9,20.16,20.16,0,0,1-.12,2.06,33.27,33.27,0,0,1-.92,4.71c-.4,1.51-.86,3-1.35,4.43L202.9,308A62.25,62.25,0,0,0,200,325.3a37.31,37.31,0,0,0,.17,4.37,13,13,0,0,0,1,4l.22.43.31.48.61,1,1.19,1.93c.78,1.3,1.52,2.62,2.24,3.95a61.3,61.3,0,0,1,3.72,8.27,25.66,25.66,0,0,1,1.7,8.85,25.61,25.61,0,0,0-2.21-8.65,61.07,61.07,0,0,0-4.16-7.93c-.79-1.26-1.6-2.52-2.45-3.75l-1.28-1.83-.66-.91-.33-.45-.33-.54c-1.59-3-1.77-6.12-2-9.18a64.88,64.88,0,0,1,1.95-18.28L201,302.7c.38-1.43.73-2.85,1-4.27a28.12,28.12,0,0,0,.56-4.17,21.89,21.89,0,0,0-.18-3.75c-.26-.13-.52-.26-.77-.4a27.86,27.86,0,0,1-6.54-4.78,17.64,17.64,0,0,1-1.39-1.58c-.42-.56-.8-1.11-1.19-1.68a19.4,19.4,0,0,1-1.88-3.79,13.24,13.24,0,0,1-.69-4.34,14.9,14.9,0,0,1,.71-4.25,41.65,41.65,0,0,1,3.32-7.3c2.06-3.74,4.06-7.38,5.76-11.14-25.78,9.52-54.6,7.73-79.31,31.17-11.84,11.23-7.69,18.86-11.81,26-.12.2-.25.41-.38.64,0,1.12,0,2.25.07,3.39.09,1.69.26,3.37.5,5.05s.57,3.26,1,4.87a47.2,47.2,0,0,0,3.41,9.64,22.4,22.4,0,0,0,4.15,6.08l.71.64a5.9,5.9,0,0,1,.8.88,11.14,11.14,0,0,1,1.11,1.88,24.35,24.35,0,0,1,1.36,3.86A84.65,84.65,0,0,1,123.52,361c.36,5.23.45,10.47.35,15.7s-.4,10.46-1,15.66c-.3,2.6-.68,5.19-1.21,7.75a27.63,27.63,0,0,1-2.41,7.43,27.79,27.79,0,0,0,2.16-7.48c.44-2.57.74-5.16,1-7.75.42-5.19.54-10.41.47-15.61s-.33-10.41-.85-15.57a83.36,83.36,0,0,0-2.72-15.21,21.21,21.21,0,0,0-1.36-3.47A7.64,7.64,0,0,0,117,341a3,3,0,0,0-.52-.54l-.77-.65a24.63,24.63,0,0,1-4.91-6.59,49.59,49.59,0,0,1-3.82-9.39c-.56-1.9-1-3.84-1.39-5.79-.14-.74-.26-1.5-.37-2.25-.09-.57-.16-1.13-.23-1.69l-1.9,3c-.3.16-.61.32-.93.47a55.3,55.3,0,0,1-7.63,2.62c-1.56.45-3.16.91-4.77,1.43A39.44,39.44,0,0,0,83,324.41a23.34,23.34,0,0,0-6,4.65,22.32,22.32,0,0,0-4,6.39,52.72,52.72,0,0,0-2.21,6.68C68.46,351,67.27,359.86,65,368.48c-1.14,4.27-2.47,8.56-4.83,12.25a11.42,11.42,0,0,1-4.74,4.35,9.39,9.39,0,0,1-6.49.23,9.65,9.65,0,0,0,6.68.25A12.15,12.15,0,0,0,61,381.34c2.78-3.7,4.47-8,6-12.26,3-8.56,4.86-17.43,7.74-25.73a47.23,47.23,0,0,1,2.47-5.93,16,16,0,0,1,3.49-4.71,17.94,17.94,0,0,1,4.89-3.09,30.85,30.85,0,0,1,4.56-1.51l1.32-.33c2-.46,4-.82,6.19-1.25-5.51,10.41-11,24.08-11.72,39.37-1,22.19-10.62,69-10.62,70.67-1.63,9.24-18.12,46.22-22,50.89s-3,19.23-7.14,25S34.4,525.08,36.6,531.4c.74,2.13,5.84,3.11,12.26,3.48,3.47.2,7.32.22,11.08.15-.11-.72-.26-1.44-.44-2.15-.27-1.19-.59-2.37-.94-3.54s-.7-2.35-1.14-3.47a7.39,7.39,0,0,0-.32-.78C57,524.92,57,525,57,525a1,1,0,0,0-.27-.07,7,7,0,0,0-1.66.12,23.89,23.89,0,0,0-3.49.91c-.57.19-1.15.38-1.69.62l-.39.18a1.75,1.75,0,0,0-.2.16,1.5,1.5,0,0,0-.26.65,11.27,11.27,0,0,0,.24,3.53c.17,1.21.52,2.4.65,3.64-.73-2.35-1.82-4.6-1.72-7.29a2.49,2.49,0,0,1,.35-1.08,2.08,2.08,0,0,1,.5-.44l.43-.22c.58-.28,1.16-.51,1.75-.73a23.3,23.3,0,0,1,3.64-1,7.33,7.33,0,0,1,2-.1,1.87,1.87,0,0,1,.61.18,1.23,1.23,0,0,1,.52.56,6.19,6.19,0,0,1,.37.93,33.26,33.26,0,0,1,1,3.61,30.8,30.8,0,0,1,.8,5.89c3.3-.07,6.52-.21,9.35-.37a2.26,2.26,0,0,0,0-.26c0-.76-.12-1.52-.2-2.29-.19-1.54-.4-3.07-.51-4.66,0-.4,0-.8,0-1.21a4,4,0,0,1,.07-.67,1.81,1.81,0,0,1,.14-.41.9.9,0,0,1,.47-.45,1.48,1.48,0,0,1,.89,0,5.16,5.16,0,0,1,.63.24,9.2,9.2,0,0,1,1.06.62,20.73,20.73,0,0,1,3.55,3.12c-1.33-.83-2.66-1.66-4-2.39-.34-.17-.68-.33-1-.47a1.92,1.92,0,0,0-.67-.17l0,.12c0,.14,0,.31,0,.49a10.67,10.67,0,0,0,0,1.12c.08,1.53.25,3.09.26,4.66a15.81,15.81,0,0,1-.11,2.38,1.18,1.18,0,0,1,0,.2c5.34-.31,9.15-.66,9.15-.66.54-3.66-3.3-8.6-4.4-11.35-1-2.54.94-20.86,2.84-30,.15-.74.3-1.44.46-2.05,1.43-5.75,13.88-28.19,24.08-43.16,4-5.88,7.66-10.6,10.17-12.71.33-.39.67-.78,1-1.16a64.56,64.56,0,0,1,11.87-10.33,41.27,41.27,0,0,1,14.42-6.3,35.87,35.87,0,0,1,7.84-.81c2.61,0,5.21,0,7.81.16,10.37.48,20.69,1.49,31,1.48a72.38,72.38,0,0,0,15.41-1.37,22.76,22.76,0,0,0,7.18-2.78,10.1,10.1,0,0,0,4.54-6A10.17,10.17,0,0,1,209,413.7a22.73,22.73,0,0,1-7.19,2.94,73.05,73.05,0,0,1-15.47,1.65c-10.39.19-20.75-.64-31.09-.93-2.59-.07-5.17-.1-7.74,0a34.85,34.85,0,0,0-7.58.91,39.92,39.92,0,0,0-13.79,6.32,63.06,63.06,0,0,0-11.35,10.24c-1.35,1.58-2.65,3.19-3.83,4.88-3.89,13.59-11.92,44.75-13.1,49.69-1.37,5.77-6.2,12-4.35,16.48,2.7,6.59-6.09,19.22-2,28.1,0,0,4.55.49,10.5,1a12.15,12.15,0,0,1-.68-4.21,2.49,2.49,0,0,1,.35-1.08,2.25,2.25,0,0,1,.49-.44l.44-.22c.58-.28,1.16-.51,1.75-.73a23.3,23.3,0,0,1,3.64-1,7.29,7.29,0,0,1,2-.1,1.87,1.87,0,0,1,.61.18,1.23,1.23,0,0,1,.52.56,6.55,6.55,0,0,1,.37.92,34.47,34.47,0,0,1,1,3.61c.23,1.11.46,2.23.61,3.36l3.74.21c2,.1,4,.16,5.68.18,0-.26-.06-.51-.08-.77-.19-1.54-.4-3.07-.51-4.66,0-.4,0-.79,0-1.22a4,4,0,0,1,.07-.66,2.35,2.35,0,0,1,.13-.41.92.92,0,0,1,.48-.45,1.48,1.48,0,0,1,.89,0,4.45,4.45,0,0,1,.62.24,7.76,7.76,0,0,1,1.06.62,20,20,0,0,1,3.56,3.12c-1.34-.82-2.66-1.66-4-2.39-.34-.17-.68-.34-1-.47a2,2,0,0,0-.67-.17l0,.11a2.6,2.6,0,0,0,0,.5,10.67,10.67,0,0,0,0,1.12c.08,1.53.25,3.09.26,4.66,0,.28,0,.56,0,.83,3.72,0,6.27-.26,6.41-1a12,12,0,0,0-1.36-8.43,11,11,0,0,0-.83-1.18c-2.47-3-6-18.12-4.12-22.79S145.07,443,151.11,442.7c4.93-.22,8.64-4.16,9.84-5.61.27-.32.42-.52.42-.52,1.45.25,2.87.42,4.28.55,27.65,2.55,47.43-18.15,55.46-20.68,1.48-.46,2.58-.32,3.23.72,0,0-5.26-31.55-9.25-43.5,14.33,35.91,13.69,52.41,15.11,68.4,1.46,16.48-1.1,37.71-3.3,47.6s-17.34,51.3-8.05,56.75c2.17,1.28,8.81,2.06,16.63,2.4,2.12.1,4.33.16,6.57.19-.73-2.25-1.72-4.43-1.63-7a2.35,2.35,0,0,1,.36-1.07,1.71,1.71,0,0,1,.49-.44l.43-.23c.58-.27,1.16-.51,1.75-.72a23.61,23.61,0,0,1,3.64-1,7.33,7.33,0,0,1,2-.1,1.87,1.87,0,0,1,.61.18,1.26,1.26,0,0,1,.52.55,6.64,6.64,0,0,1,.37.93,33.89,33.89,0,0,1,1,3.61,35.5,35.5,0,0,1,.79,5.23c3.39-.11,6.58-.29,9.31-.55,0-.57-.1-1.13-.16-1.7-.19-1.54-.4-3.08-.51-4.66,0-.4,0-.8,0-1.22a5.88,5.88,0,0,1,.07-.67,1.6,1.6,0,0,1,.14-.4.9.9,0,0,1,.47-.45,1.39,1.39,0,0,1,.89,0,3.59,3.59,0,0,1,.63.24,8,8,0,0,1,1.06.62,20.74,20.74,0,0,1,3.56,3.11c-1.34-.82-2.67-1.65-4-2.38-.34-.17-.68-.34-1-.47a1.92,1.92,0,0,0-.67-.17.53.53,0,0,0,0,.11c0,.14,0,.32,0,.5,0,.36,0,.74,0,1.12.09,1.52.25,3.08.26,4.66,0,.57,0,1.13-.05,1.7,4.41-.44,7.52-1.07,8.16-1.89,2.56-3.29-.74-7.69-6.59-14.64s-8.79-19.41-2.93-29.3,6-30.21,7.69-42.29,4-42.65,5.49-47.41.37-39.27,5.07-38.81h.05l1-2a2.9,2.9,0,0,0,1.12.17,10.9,10.9,0,0,0,1.81-.17,24,24,0,0,0,3.88-1.14,31.66,31.66,0,0,0,7.33-4,22.35,22.35,0,0,0,5.77-5.87,35.26,35.26,0,0,0,3.1-7.88c1.64-5.6,2.9-11.37,4.39-17.09.74-2.86,1.53-5.71,2.51-8.51a30.69,30.69,0,0,1,1.73-4.1,6.78,6.78,0,0,1,2.89-3.27,6.73,6.73,0,0,0-2.65,3.4,31.21,31.21,0,0,0-1.45,4.14c-.79,2.82-1.4,5.7-2,8.59-1.12,5.77-2,11.59-3.33,17.4a37.77,37.77,0,0,1-2.86,8.71,25.44,25.44,0,0,1-6.11,7.08,35.62,35.62,0,0,1-7.86,4.94c-.59.27-1.19.51-1.8.74a4.3,4.3,0,0,1,.19,1.39c0,4,5.86,36.25,8.06,45.4s9.09,39.91,9.49,53.83-3,30.75,0,36.24-12.42,28.2-5.1,32.23c2.4,1.31,9.76,2.2,18.57,2.58a232.39,232.39,0,0,0,23.91-.22c-.11-.63-.25-1.26-.41-1.88-.27-1.19-.59-2.38-.94-3.55s-.7-2.35-1.13-3.46c-.11-.28-.22-.58-.33-.79s-.06-.06-.08-.11a1.09,1.09,0,0,0-.28-.06,6,6,0,0,0-1.66.12,24.23,24.23,0,0,0-3.49.91,17.1,17.1,0,0,0-1.69.62l-.39.18a1.75,1.75,0,0,0-.2.16,1.65,1.65,0,0,0-.26.64,11.23,11.23,0,0,0,.24,3.53c.18,1.22.53,2.41.65,3.64-.73-2.35-1.82-4.59-1.72-7.29a2.47,2.47,0,0,1,.36-1.07,1.71,1.71,0,0,1,.49-.44l.43-.23c.58-.28,1.16-.51,1.75-.73a24.76,24.76,0,0,1,3.64-1,7.33,7.33,0,0,1,2-.1,1.74,1.74,0,0,1,.61.18,1.3,1.3,0,0,1,.53.55,9.44,9.44,0,0,1,.37.93,33.2,33.2,0,0,1,1,3.61,31.45,31.45,0,0,1,.8,5.62c3.42-.22,6.59-.54,9.31-.95,0-.56-.1-1.13-.17-1.69-.18-1.54-.39-3.08-.5-4.66,0-.4,0-.8,0-1.22a4,4,0,0,1,.08-.66A1.21,1.21,0,0,1,351,537a.9.9,0,0,1,.47-.45,1.36,1.36,0,0,1,.9,0,3.48,3.48,0,0,1,.62.24,7.36,7.36,0,0,1,1.06.62,20.37,20.37,0,0,1,3.56,3.11c-1.34-.82-2.66-1.65-4-2.38-.33-.17-.67-.34-1-.47a2,2,0,0,0-.68-.17.27.27,0,0,0,0,.11,3.52,3.52,0,0,0-.05.5c0,.36,0,.74,0,1.11.09,1.53.25,3.09.27,4.67,0,.55,0,1.1,0,1.66,5-.81,8.36-2,8.45-3.5.25-4.34-11.39-11.34-18.61-20-3.14-3.78-5.45-7.87-5.56-12.2-.36-14.28-.36-54.56,0-61.15s3.66-57.48,4-58.58c.22-.68-4.09-23.62-5.94-43.14a43,43,0,0,1-2.66-8.37,85.65,85.65,0,0,1-1.62-12.66,186.92,186.92,0,0,1,.42-25.17c.64-8.35,1.65-16.64,2.93-24.89s2.76-16.47,4.86-24.54c-1.74,8.15-2.84,16.42-3.78,24.68s-1.55,16.57-1.81,24.87a184.36,184.36,0,0,0,.67,24.78c.08.8.18,1.61.28,2.41.24-3.56.83-6.24,1.89-7.54,0-28.93,26.91-14.56,28.56-36.8s-12.36-60.69-14-73.59c3.71-7.43,23.89-36.85,36.66-59.39,5.17-9.12,9.13-17.12,10.29-22.08,4-17.21.37-71.4-2.19-82.38M67.38,526.07a7.11,7.11,0,0,0-.51-3,2.43,2.43,0,0,0-2.19-1.3,8.12,8.12,0,0,0-3,.37A6.89,6.89,0,0,0,59,523.6a4.73,4.73,0,0,1,2.41-2.27,6.63,6.63,0,0,1,3.36-.67,3.87,3.87,0,0,1,1.76.56,2.9,2.9,0,0,1,1.13,1.51,4.76,4.76,0,0,1-.28,3.34m53.11,3.33a6.82,6.82,0,0,0-.51-3,2.4,2.4,0,0,0-2.18-1.3,8.12,8.12,0,0,0-3,.37,6.89,6.89,0,0,0-2.73,1.48,4.69,4.69,0,0,1,2.41-2.27,6.61,6.61,0,0,1,3.36-.67,3.87,3.87,0,0,1,1.76.56,2.9,2.9,0,0,1,1.13,1.51,4.71,4.71,0,0,1-.29,3.34m138.24,6.38a2.92,2.92,0,0,1,1.13,1.5,4.79,4.79,0,0,1-.28,3.35,7,7,0,0,0-.51-3,2.41,2.41,0,0,0-2.19-1.3,7.93,7.93,0,0,0-2.95.37,6.87,6.87,0,0,0-2.73,1.47,4.69,4.69,0,0,1,2.42-2.26,6.58,6.58,0,0,1,3.35-.68,3.85,3.85,0,0,1,1.76.57m84.66-2.63a6.62,6.62,0,0,1,3.36-.68,3.89,3.89,0,0,1,1.76.57,2.9,2.9,0,0,1,1.12,1.5,4.65,4.65,0,0,1-.28,3.34,6.8,6.8,0,0,0-.51-3,2.41,2.41,0,0,0-2.19-1.3,7.93,7.93,0,0,0-2.95.37,6.93,6.93,0,0,0-2.73,1.47,4.73,4.73,0,0,1,2.42-2.26m6.13-410.78c-1-4.48-1.11-6.38-.71-6.38,1.48,0,9.33,25.55-.81,44-14.9,27-23.33,28-28.83,33.67a9.62,9.62,0,0,1-2.42.31c-8.19,0-15.33-10.38-15.33-16.05,25.81-2.75,53.82-30.94,48.1-55.52M251.7,547.44c.12.49.23,1,.33,1.48-3.22.09-6.59.12-9.93.08-.15-1.14-.45-2.24-.61-3.36a11.31,11.31,0,0,1-.24-3.54,1.65,1.65,0,0,1,.26-.64,1.75,1.75,0,0,1,.2-.16l.39-.18a16.22,16.22,0,0,1,1.69-.62,24.23,24.23,0,0,1,3.49-.91,6.47,6.47,0,0,1,1.66-.12,1.62,1.62,0,0,1,.27.06c0,.05,0,0,.09.11s.22.51.33.79c.43,1.11.76,2.3,1.13,3.46s.67,2.36.94,3.55m-140-14.78c.31,1,.59,2.07.84,3.11-3.4-.21-6.87-.49-10-.76,0-.2-.07-.4-.1-.6a11.27,11.27,0,0,1-.24-3.53,1.64,1.64,0,0,1,.25-.65l.2-.16.4-.18a17.8,17.8,0,0,1,1.69-.62,23.77,23.77,0,0,1,3.48-.91,7,7,0,0,1,1.67-.12,1,1,0,0,1,.27.07s0-.06.08.11a7.33,7.33,0,0,1,.33.78c.44,1.11.77,2.3,1.13,3.46"/></svg>