<svg id="publicdomainvectors.org" xmlns="http://www.w3.org/2000/svg" viewBox="0 0 475 408.93"><defs><style>.cls-1{fill:#dceefa;}.cls-2{fill:#7a7982;}.cls-2,.cls-3,.cls-4,.cls-5,.cls-6,.cls-7,.cls-8{fill-rule:evenodd;}.cls-3{fill:#bcbac2;}.cls-4{fill:#69676c;}.cls-5{fill:#908d96;}.cls-6{fill:#a09ea5;}.cls-7{fill:#e1dfe6;}.cls-8{fill:#4d4c50;}</style></defs><title>elephant 02</title><circle class="cls-1" cx="272.16" cy="188.64" r="188.64" transform="translate(-53.68 247.7) rotate(-45)"/><path class="cls-2" d="M410.54,154.44,421.92,173a107.86,107.86,0,0,0,52.19,43.84A1.39,1.39,0,0,1,475,218a1.41,1.41,0,0,1-2.07,1.4l-7-1.2A79.93,79.93,0,0,1,416.69,189l-13.88-28.79Z"/><path class="cls-3" d="M127.21,139.73l-11.49,3.86a82.08,82.08,0,0,1-62.15-4,5.17,5.17,0,0,0-5,9,103.87,103.87,0,0,0,49.7,15.72,81.76,81.76,0,0,0,33.84-5.41,10,10,0,0,0,6.06-11.75C136.9,142.26,131.89,138.15,127.21,139.73Z"/><path class="cls-4" d="M288.58,408.93c101.09,0,183.53-15,183.53-33.43s-82.44-33.43-183.53-33.43-183.52,15-183.52,33.43S187.5,408.93,288.58,408.93Z"/><path class="cls-4" d="M224.44,368.44c-12.82,7.42-27.12,7.42-37.66,0a5.89,5.89,0,0,1-2.14-5.83,8.25,8.25,0,0,1,1-2.89,21.49,21.49,0,0,0,3.06-10.65l1.73-85.21c.64-31.77-5.21-62.08-17.14-88.72l70.21,8.22-2.64,17.27A990.72,990.72,0,0,0,229.35,349.7a36.34,36.34,0,0,0,.65,6.89A11.67,11.67,0,0,1,224.44,368.44Z"/><path class="cls-4" d="M328.65,167.91l-9.08,6.64a75.56,75.56,0,0,0-16.86,105,96.25,96.25,0,0,1,13.71,84.33,7.4,7.4,0,0,0,3.71,8.77,39.57,39.57,0,0,0,31.4,2,10.43,10.43,0,0,0,6.12-13.75l.25-2.3a338.08,338.08,0,0,0,1.77-46.76,98.76,98.76,0,0,1,15.31-56,93.53,93.53,0,0,0,6.27-88.58Z"/><path class="cls-5" d="M171.47,86.44l44.47,6A150.14,150.14,0,0,0,269,90.22c44.33-10,91.57,5.76,127.07,42.33,17.31,17.83,24.63,45.19,18.64,69.74-11.58,47.49-47.14,80.17-90.08,82.79-57.22,3.48-113.14-33.1-142.43-93.16-7.62-15.62-22-25.3-36.94-24.84Z"/><path class="cls-2" d="M374.8,266.11a91,91,0,0,1-50.14,19c-39.32,2.39-78-14.13-107.89-44.19a153.57,153.57,0,0,0,38.78,21.83l10.87-29.94.29,12.92c.2,9,1.73,17.48,9.75,21.51,5.92,3,14.31,2.94,20.19,2.32,14.56-1.54,23.85-4.09,24.13-24.62.44-33.12,8.81-44.88,31.09-64.65Z"/><path class="cls-6" d="M196.84,72.26,177.43,58.85a61.2,61.2,0,0,0-92,28.66,143.61,143.61,0,0,0-4.62,87.36,26.43,26.43,0,1,1-49-5.55,9.88,9.88,0,0,0-16.18-11.09A51.58,51.58,0,0,1,2.72,168.86,5.45,5.45,0,0,0,5.49,179a6.89,6.89,0,0,1,6.94,7.39A52.31,52.31,0,0,0,103,225.71a77.44,77.44,0,0,0,19.87-62.86l7.4,2.77a30.3,30.3,0,0,0,30-5.08A59.22,59.22,0,0,0,171,149a7.88,7.88,0,0,1,13.87,1.85,54.06,54.06,0,0,0,46.68,35.59A29.57,29.57,0,0,0,262,148.06a113.46,113.46,0,0,1-3.69-52.69A27.36,27.36,0,0,0,214.87,69C209.72,72.9,201.89,75.74,196.84,72.26Z"/><path class="cls-7" d="M133.41,137.05l-12,2a82,82,0,0,1-60.74-13.75,5.17,5.17,0,0,0-6.38,8.13A103.76,103.76,0,0,0,101,156.77a81.79,81.79,0,0,0,34.27,0,10,10,0,0,0,7.83-10.65C142.59,141.07,138.29,136.22,133.41,137.05Z"/><path class="cls-5" d="M357.75,174.24l-7.49,8.81c-27.58,32.43-25.11,82.12,5.54,111.37,22.23,21.2,33.73,52.07,31.11,83.46a7.74,7.74,0,0,0,5.46,8.17,38,38,0,0,0,31.12-4.88,10.94,10.94,0,0,0,4.69-7,11.42,11.42,0,0,0-1.59-8.42l-.24-2.41A370.21,370.21,0,0,0,418.27,315a108.4,108.4,0,0,1,3.22-60.79A102,102,0,0,0,409,162Z"/><path class="cls-5" d="M255.11,382.49c-12.59,6.62-26.89,6.62-37.66,0a5.16,5.16,0,0,1-2.32-5.21,6.55,6.55,0,0,1,.94-2.57,17.27,17.27,0,0,0,2.73-9.5l-.88-76c-.32-28.34-7.11-55.38-19.85-79.14l70.46,7.33-2.11,15.4a785.83,785.83,0,0,0-7,133,29,29,0,0,0,.86,6.14C261.32,375.88,259.1,380.39,255.11,382.49Z"/><path class="cls-8" d="M111.94,102.65c2.43,1.44,3,4.88,1.4,7.67s-5,3.9-7.4,2.45-3.06-4.87-1.41-7.67S109.5,101.21,111.94,102.65Z"/></svg>