<svg id="svg5909" xmlns="http://www.w3.org/2000/svg" xmlns:xlink="http://www.w3.org/1999/xlink" viewBox="0 0 313.81 368.06"><defs><style>.cls-1{fill:#a1795f;}.cls-1,.cls-2,.cls-3,.cls-4,.cls-5,.cls-6,.cls-7,.cls-8{stroke:#000;stroke-width:10px;}.cls-2{fill:#896555;}.cls-3{fill:#5e4332;}.cls-4{stroke-linecap:square;fill:url(#linear-gradient);}.cls-5{fill:none;}.cls-6{fill:#b8a27d;}.cls-8{fill:url(#linear-gradient-2);}</style><linearGradient id="linear-gradient" x1="1102.43" y1="-1786.68" x2="1290.7" y2="-1786.68" gradientTransform="matrix(1, 0, 0, -1, -1051.46, -1693.79)" gradientUnits="userSpaceOnUse"><stop offset="0" stop-color="#a1795f"/><stop offset="0.5" stop-color="#a1795f"/><stop offset="1" stop-color="#7e5f4a"/></linearGradient><linearGradient id="linear-gradient-2" x1="1102.43" y1="-1790.35" x2="1290.7" y2="-1790.35" gradientTransform="matrix(1, 0, 0, -1, -1051.46, -1693.79)" gradientUnits="userSpaceOnUse"><stop offset="0" stop-color="#b59581"/><stop offset="0.5" stop-color="#a1795f"/><stop offset="1" stop-color="#523d30"/></linearGradient></defs><title>Donkey-05</title><path id="path5527" class="cls-1" d="M133.15,165.71c-11.54,0-20.87,6.54-38.22,48.41a167.31,167.31,0,0,0-12.28,48.09c-1.92.63-40.79,11.06-51.44,15.41-10.34,4.23-23.57,14.76-24,22.06S13.94,314.25,19.12,326s15,30,38.09,21.25L76.28,340c7.53-2.87,13.13-6.44,22.72-5.72,5.6,4.5,16,6.25,52.21,6.25s46.62-1.75,52.22-6.25c9.57-.7,15.2,2.85,22.72,5.72l19,7.25c23.1,8.8,32.92-9.48,38.1-21.25s12.33-19,11.9-26.35-1.57-16.86-24.64-23.09c-22.27-6-48.87-13.75-50.79-14.38a167.5,167.5,0,0,0-12.25-48.09c-25.24-60.9-33.56-47-56.29-47C144.11,167.09,138.4,165.72,133.15,165.71Z"/><g id="g5529"><g id="g5533"><path id="path5535" class="cls-2" d="M18.6,281.74l19.57-6.63C50.29,271.39,65,284.29,71,303.92s1.07,38.54-11,42.26l-18.73,6.41"/><path id="path5537" class="cls-3" d="M7.56,324.08c-6-19.62-1.07-38.55,11.05-42.26s26.82,9.18,32.84,28.8,1.07,38.55-11.05,42.27S13.58,343.71,7.56,324.08Z"/></g><g id="g5541"><path id="path5543" class="cls-2" d="M283.8,281.74l-19.57-6.63c-12.11-3.72-26.82,9.18-32.84,28.81s-1.07,38.54,11.05,42.26l18.72,6.41"/><path id="path5545" class="cls-3" d="M294.84,324.08c6-19.62,1.07-38.55-11-42.26S257,291,251,310.62s-1.08,38.55,11,42.27S288.82,343.71,294.84,324.08Z"/></g></g><g id="g5547"><path id="path5549" class="cls-1" d="M98.48,109.12c2.21,3.33,3.27,14.65,1.78,21-4.49,19-4.44,39-.94,58.13,2.38,12.21,7,23.83,10.59,35.71,7.22,16.29,25.45,23.56,43.17,23.13s34.91-8.57,40-23.13c3.56-11.88,8.22-23.5,10.6-35.71A144.24,144.24,0,0,0,202.16,128c-1.57-6.41,0-15.93,2-18.91,10.93-16.44,17.55-28.88,19.75-37.22,1.43-5.39,5.15-28.18,7-42.69,1.2-9.57,2-14.13,3.28-18.46.94-3.17-4.31-6.51-6.19-5.6-8.24,4-30.06,24.14-36.5,33.66a75,75,0,0,0-10.93,27.12c-.82,4.22-3.55,27.71-3.94,33.69a116.31,116.31,0,0,0-25.28-1.87A116,116,0,0,0,126,99.62c-.39-6-3.12-29.47-3.94-33.69C120.17,56,87.55,92.68,98.48,109.12Z"/><path id="path5551" class="cls-4" d="M123.59,77c-.06-.26-1.48-11.31-1.53-11.56-2.74-12-8.49-13.53-18.68-13.58-5.63,0-12.69,2.74-21.47,10.35S67.82,72.12,64,79.5c-5.13,10-4,24.48-4.84,33.4-.72,7.8-1.1,11.38-2.13,14.82-.75,2.51-1.23,4.93-1.06,5.37.4,1.06,3.76,1.08,7.28,0C70.71,130.92,89.4,118,96,110.69"/></g><g id="g5553"><g id="g5555"><path id="path5557" class="cls-1" d="M100.07,249.36s-7.15,33.14-9.47,65.13-6.55,48.57,25.45,48.57,35.07-1.52,35.07-38.16-.09-45.5-.09-45.5"/><path id="path5559" class="cls-2" d="M89.47,334.41c-.86,18.93,2.1,28.65,26.6,28.65,29,0,35.19-1.26,35.25-28.68-21.75,6-43.72,3.92-61.85,0Z"/></g><g id="g5561"><path id="path5563" class="cls-1" d="M202.33,249.36s7.15,33.14,9.46,65.13,6.55,48.57-25.44,48.57-35.08-1.52-35.08-38.16.1-45.5.1-45.5"/><path id="path5565" class="cls-2" d="M212.89,334.41c.86,18.93-2.06,28.65-26.57,28.65-29,0-35-1.26-35.08-28.68,18.92,7.18,61.65,0,61.65,0Z"/></g><path id="path5567" class="cls-5" d="M162,275.89c-4.41,3.93-7.06,4.14-11,4.35h-.27c-3.94-.21-6.59-.42-11-4.35"/></g><path id="path5569" class="cls-6" d="M107.09,215.09c1,2.95,1.94,5.9,2.82,8.87,7.22,16.29,25.45,23.56,43.17,23.13s34.91-8.57,40-23.13c.89-3,1.85-5.92,2.82-8.87.49-1.48-22-9.33-44.43-9.33s-44.91,7.85-44.43,9.33Z"/><path id="path5579" class="cls-7" d="M163.23,90.24c0,.15,0,26.15,0,26.15s-3.82-1.5-11.73-1c-7.91-.53-11.73,1-11.73,1s0-26,0-26.15l1.29-7.32,4.57,7.32,2.38-7.32,3.47,7.32L155,82.92l2.38,7.32,4.57-7.32Z"/><path id="path5581" class="cls-8" d="M107.78,82.21c-4.62,16.23-6.65,22-10.46,26.91-.16.21-.77.86-1.51,1.77"/><path id="rect5583" d="M175.11,145.57h0a6.9,6.9,0,0,0-6.89,6.89v9.86a6.9,6.9,0,0,0,6.89,6.89h0a6.89,6.89,0,0,0,6.89-6.89v-9.86A6.89,6.89,0,0,0,175.11,145.57Z"/><path id="rect5585" d="M128.11,145.57h0a6.9,6.9,0,0,0-6.89,6.89v9.86a6.9,6.9,0,0,0,6.89,6.89h0a6.89,6.89,0,0,0,6.89-6.89v-9.86A6.89,6.89,0,0,0,128.11,145.57Z"/><path id="path5601" class="cls-5" d="M162,275.89c-4.41,3.93-7.06,4.14-11,4.35h-.27c-3.94-.21-6.59-.42-11-4.35"/></svg>