<svg id="svg2" xmlns="http://www.w3.org/2000/svg" xmlns:xlink="http://www.w3.org/1999/xlink" viewBox="0 0 88.35 87.47"><defs><style>.cls-1{fill:none;}.cls-12,.cls-2{fill:#d3c0ae;}.cls-2{stroke:#aa9688;}.cls-10,.cls-11,.cls-12,.cls-13,.cls-14,.cls-2,.cls-3,.cls-4,.cls-5,.cls-7,.cls-8,.cls-9{stroke-width:0.35px;}.cls-10,.cls-3{fill:#806641;}.cls-3{stroke:red;}.cls-4{fill:#333;}.cls-11,.cls-12,.cls-13,.cls-14,.cls-4{stroke:#f0f;}.cls-5{stroke:#f60;opacity:0.34;fill:url(#pattern6705);}.cls-13,.cls-14,.cls-5,.cls-8,.cls-9{isolation:isolate;}.cls-11,.cls-6{fill:#fff;}.cls-7{fill:#93755a;}.cls-7,.cls-8,.cls-9{stroke:lime;}.cls-8,.cls-9{opacity:0.36;}.cls-8{fill:url(#pattern6906);}.cls-9{fill:url(#pattern6900);}.cls-10{stroke:#da3f00;}.cls-13,.cls-14{opacity:0.39;}.cls-13{fill:url(#pattern7278);}.cls-14{fill:url(#pattern7523);}.cls-15{fill:#564c48;}.cls-16{stroke:#533d3d;stroke-width:0.71px;fill:url(#radial-gradient);}.cls-17{fill:#2dba52;}</style><pattern id="pattern6705" data-name="pattern6705" width="88.35" height="87.47" patternTransform="matrix(0.31, 0, 0, -0.45, 143.36, 527.02)" patternUnits="userSpaceOnUse" viewBox="0 0 88.35 87.47"><rect class="cls-1" width="88.35" height="87.47"/></pattern><pattern id="pattern6906" data-name="pattern6906" width="88.35" height="87.47" patternTransform="matrix(0.21, 0.38, 0.93, -0.52, 120.42, 518.74)" patternUnits="userSpaceOnUse" viewBox="0 0 88.35 87.47"><rect class="cls-1" width="88.35" height="87.47"/></pattern><pattern id="pattern6900" data-name="pattern6900" width="88.35" height="87.47" patternTransform="matrix(0.18, 0.36, 1.43, -0.72, 170.11, 477.02)" patternUnits="userSpaceOnUse" viewBox="0 0 88.35 87.47"><rect class="cls-1" width="88.35" height="87.47"/></pattern><pattern id="pattern7278" data-name="pattern7278" width="88.35" height="87.47" patternTransform="matrix(1.01, 0.16, 0.12, -0.75, 95.04, 653.15)" patternUnits="userSpaceOnUse" viewBox="0 0 88.35 87.47"><rect class="cls-1" width="88.35" height="87.47"/></pattern><pattern id="pattern7523" data-name="pattern7523" width="88.35" height="87.47" patternTransform="matrix(0.62, 0, 0, -0.9, 109.27, 602.79)" patternUnits="userSpaceOnUse" viewBox="0 0 88.35 87.47"><rect class="cls-1" width="88.35" height="87.47"/></pattern><radialGradient id="radial-gradient" cx="-107.07" cy="-1107.17" r="8.43" gradientTransform="matrix(0.54, -0.37, -0.49, -0.72, -471.53, -817.92)" gradientUnits="userSpaceOnUse"><stop offset="0" stop-color="#ffcbcb"/><stop offset="1" stop-color="#a36868"/></radialGradient></defs><title>Donkey-07</title><g id="layer1"><path id="path4157-7-7-8" class="cls-2" d="M12.25,3.46c-.19,0-.31.06-.29.16A5.4,5.4,0,0,0,13.9,7.83l.83,1.93c-.35-.31-.87-.77-1.15-1A34.62,34.62,0,0,0,8.43,5.83c-1.42-.35-3.57-.63-4,0-.24.29.5.94.84,1.64A3.82,3.82,0,0,0,7.42,9.76,5.77,5.77,0,0,1,9.32,11l.78.85c-1,.46-1.95.9-2.75,1.25-.21.19,1,.38.82.56l-1,1c-.82.73-1.86.5-2.25,1a2.37,2.37,0,0,0,.65.69C3,19,3.66,21.48,4.1,23.84a9.47,9.47,0,0,1,2.68-4l1.78-.91.29-.24A5.58,5.58,0,0,0,8,21c-.16,2.66,1.31,5.5-1.21,8.9-2,1.38-4.18,4.46-3.38,6.26.28.82.4,1.72,1.57,2.15.3,3.81,2.41,3.9,3.42,3.94a6.66,6.66,0,0,0,1.15-.94c1.32.64,3.18-.11,4.07-2.23.86-1.45.77-1.54,2.29-2.25,2-.6,4-1.77,6.21-2.3,2.56.73,3,3.61,3.3,7.13s.28,7.39,2.3,9.77c.83,1,1.17,3.34,1.22,5.61l-2.33,5.09c1,3.4.07,5.92-.3,8.7l-1.06,1.37-.15,0c-.13-.3-.39-.37-1.3-.15-1.46.5-2.25,1.44-2.2,2.65.13,1.52,1.65,1.53,2.65,2,2.81.7,2.74.62,4,.45a3.93,3.93,0,0,0,1.58-1.74A8.79,8.79,0,0,1,29.27,77a1.82,1.82,0,0,0-.49.94,1.23,1.23,0,0,1-.4-.19C27,77.87,25,80,25,81.17c.13,1.52,1,1.83,2,2.35a15.91,15.91,0,0,0,7.65.15c1.18-1.17,1.73-2,1-3.87h.13c.27-1.49-1.65-2.77,0-3.72,2.79.33-.49-2.73-.8-3.95-.79-1.59-.65-3.34.45-5.33s0-3.75-1-6.15l.41-2.57a3.45,3.45,0,0,1,3.08-3c16.35,4.83,18.46-.58,24.78-.65-.3,2.44-.29,5.11-1.48,7.59-.53.89-.24,1.36-.3,2,.53.79.79,1.89.25,4a11.2,11.2,0,0,1-1.9,2.55,22.68,22.68,0,0,1-1.6,3.2,1.51,1.51,0,0,0-.11.47c-.13-.29-.26-.58-1.14-.37-1.41.15-1.8,1-1.75,2.25.13,1.52,1.45,1.68,2.45,2.2a9,9,0,0,0,4.9,0c2.19-1.59,1.17-2.7.9-3.15l0-.09h.33a11.22,11.22,0,0,0,2.05-5,4.41,4.41,0,0,1,1.3-2.8c-.34-2.28.42-4.56.94-6.84A22.06,22.06,0,0,0,69.75,62c.87,1.38-1.32,5.33-2,7.8-.18,1.23-.07,1.47.89,2.87A20.3,20.3,0,0,1,66.34,77L65,78.72c-.13-.19-.37-.31-1-.15-1.41.15-2.15,1.93-2.1,3.15.13,1.52,2.25,1.72,3.25,2.25,2.81.7,5.84.22,6.9-.45a3.12,3.12,0,0,0,.75-3.9c0-.06-.09-.1-.13-.16l.07,0c-.19-1.29.53-2.25,1.3-3.36-.31-1.16-1.38-3.56-1.12-5.09,1-2.86,1.52-2.39,2.48-4.46.72-2.27.71-3.45-.08-5.09-.6-2.91-.84-6.62,2.63-11.7,1.93-3.38,1.61-7.55,1.42-11.54C81,40.91,81.12,51,81.06,52.91H81l-.42,3L80,59.41a13.89,13.89,0,0,0,1.49,9.47c.71.08,1.41-.61,2.12-1.27,1-1.67,1.3-4.35,1.63-6.93-.26-2.09-.13-4.35-.89-6.61,0-1.8-.73-4.86-.91-7.89-.23-4-.23-7.9-.9-9.38-.77-1.7-4.73-6.66-7.76-7.24-.88-.17-3.37-.59-4.35-.63-4-.17-10.43,2.12-17.45,2.38-4.63.17-10.54-1.18-14.23-3.51l.81.3a28.39,28.39,0,0,0-3.1-5A60,60,0,0,0,29.91,16c-2.69-2.43-4.54-5.3-9.55-6.21l.26-.22C19.78,7.53,17.41,5.8,15.31,4a22.18,22.18,0,0,0-3.06-.54ZM29.66,74.23h.42a5.39,5.39,0,0,1-.11,1,1.35,1.35,0,0,0-.24-.87.31.31,0,0,0-.07-.09Z"/><path id="path4161-8-7" class="cls-3" d="M6.62,19.71c-1.72,1.2-2.68,4-2.68,4-.44-2.35-1.06-4.86,1.42-7.56a2.34,2.34,0,0,1-.65-.7c.39-.5,1.43-.28,2.25-1l1-1c.21-.19-1-.38-.81-.57,1.27-.55,3-1.35,4.49-2.09a14.35,14.35,0,0,1,6.23-1.41c6.8.36,8.77,3.71,11.83,6.47A59.2,59.2,0,0,1,36.32,23a45.59,45.59,0,0,1,3.23,4.76,21.78,21.78,0,0,1-4.92-2.86c-3.22-2.49-6-5.75-8.82-8.65-1.65-1.72-2.87-3.25-6.11-3.59-5.4-.58-7.39,1.71-10.15,3.74L8,18.65Z"/><path id="path4414" class="cls-4" d="M57.48,74.14c-.13-.3-.24-.62-1.15-.4-1.41.15-1.8,1-1.75,2.25.13,1.52,1.45,1.67,2.45,2.2a9,9,0,0,0,4.9,0c2.19-1.59,1.18-2.7.9-3.15a19.49,19.49,0,0,1-4.7-.15C57.67,74.92,57.55,74.56,57.48,74.14Z"/><path id="path4157-7-7" class="cls-5" d="M15.78,36.74c-1.52.71-1.43.79-2.29,2.25-.89,2.11-2.74,2.86-4.06,2.23a7.53,7.53,0,0,1-1.15.94c-1,0-3.13-.13-3.43-3.94-1.17-.44-1.29-1.33-1.57-2.16-.79-1.79,1.42-4.87,3.38-6.26,2.53-3.39,1-6.24,1.22-8.89.1-1.59,1.31-3.36,3-5.22.4.72.65,2.56,1.66,3.23.61.4,2.85.38,4.21-.17a5.46,5.46,0,0,0,2.4-2.27c.68-.93-.16-1.68-.74-3.48,5.48-.19,7.16,3.93,9.94,6.41,4,3.57,5.94,5.53,10.17,8.24,3.68,2.36,9.65,3.73,14.33,3.56,7-.26,13.46-2.54,17.44-2.38,1,0,3.47.46,4.35.63,3,.59,7,5.54,7.76,7.24.67,1.48.67,5.42.9,9.38.18,3,.95,6.11.91,7.91-2.47,1.13-1.69-.72-3.29-1.07.06-1.77-.06-12.08-1.77-14.82.19,4,.51,8.16-1.42,11.54-3.47,5.08-3.23,8.79-2.63,11.7.79,1.64.8,2.81.08,5.09-1,2.07-1.45,1.6-2.48,4.46-.26,1.53.81,3.93,1.12,5.09-.76,1.11-1.49,2.07-1.3,3.36-4,1.3-7.31.81-7.88-.5l1.55-2a19.85,19.85,0,0,0,2.28-4.33c-1-1.4-1.07-1.64-.89-2.87.7-2.47,2.89-6.42,2-7.8C65,59,64.18,56.49,62.74,54.29c-6.42,0-8.45,5.51-24.91.65a3.46,3.46,0,0,0-3.08,3l-.4,2.57c1,2.4,2.19,4.06,1,6.14S34.1,70.43,34.89,72c.31,1.23,3.59,4.29.8,4-1.61,1,.31,2.23,0,3.71a21.81,21.81,0,0,1-4.39.12c-1.92-.27-3.62-1.36-2.23-2.94.89-1.79.88-2.13.76-4.73a13.86,13.86,0,0,0-.33-5.33c-1.18-.87-.8-2.46-1.08-5.43.57-2.13.6-8.31-.87-10-2-2.39-2-6.37-2.3-9.77s-.74-6.4-3.3-7.13c-2.19.53-4.16,1.69-6.21,2.3Z"/><path id="path4449" class="cls-6" d="M42.8,48.56c6.28,1.59,12,4.28,19.52-.14l.42,5.8c-4.15,1-6.27,2.19-12.3,2.82-3.91-.49-8.25-.19-12.16-1.9A9.92,9.92,0,0,0,42.8,48.56Z"/><path id="path4447" class="cls-6" d="M6.6,29.82c2.3-.28,5.26,2.48,6.36,4.81,3.85-1.3,8.54-2.41,11.88-7.21-.51,2,.24,3.17-2.68,6.93L14.8,37.18l-2.26,3.11a3.05,3.05,0,0,1-3.39,1.13L8,42.27c-2.61-.4-3.23-3.48-4.8-6.58.17-2.33,1-2.74,1.48-3.89Z"/><path id="path4414-9" class="cls-4" d="M64.92,78.87c-.13-.31-.24-.62-1.15-.4-1.41.15-2.15,1.93-2.1,3.15.13,1.52,2.25,1.72,3.25,2.25,2.81.7,5.84.21,6.9-.45a3.11,3.11,0,0,0,.75-3.9,25.65,25.65,0,0,1-7,.15C65.11,79.64,65,79.28,64.92,78.87Z"/><path id="path4443-3" class="cls-7" d="M29,57l-2.35,5.15c1,3.4.07,5.92-.3,8.7l-1.2,1.55a2,2,0,0,0,1.55,1.75l3.6.1c-.07-1.86-.31-4.8-.5-7.4C27.63,65.72,29.26,60.36,29,57Z"/><path id="path4443" class="cls-8" d="M28.83,56.89,26.48,62c1,3.39.07,5.92-.3,8.7L25,72.29A2,2,0,0,0,26.53,74l3.6.1c-.06-1.87-.31-4.8-.5-7.4C27.45,65.64,29.09,60.27,28.83,56.89Z"/><path id="path4414-1" class="cls-4" d="M29.12,79.22a2.29,2.29,0,0,0-.9-1.6c-1.41.15-3.4,2.23-3.35,3.45.13,1.52,1.05,1.82,2.05,2.35a16,16,0,0,0,7.65.15c1.19-1.19,1.76-2.06,1-3.95a12.74,12.74,0,0,1-3.8.1C31.31,79.69,29.19,79.63,29.12,79.22Z"/><path id="path4412-2" class="cls-7" d="M62.59,54.16c-.46,2.67-.07,5.21-1.4,8-.53.88-.24,1.35-.3,2,.52.78.79,1.89.25,4a11.76,11.76,0,0,1-1.9,2.55,25.22,25.22,0,0,1-1.6,3.2,1,1,0,0,0,0,1.1c.57.42,1.13.24,1.7.3l3.8,0a11.34,11.34,0,0,0,2-5.05,4.35,4.35,0,0,1,1.3-2.8c-.35-2.37.48-4.73,1-7.1Z"/><path id="path4412" class="cls-9" d="M62.33,53.89c-.46,2.66-.06,5.21-1.4,8-.53.88-.24,1.35-.3,2,.53.78.79,1.89.25,4A11.14,11.14,0,0,1,59,70.44a22.68,22.68,0,0,1-1.6,3.2,1.09,1.09,0,0,0,0,1.1c.57.41,1.14.24,1.7.3l3.8-.05a11.22,11.22,0,0,0,2.05-5,4.41,4.41,0,0,1,1.3-2.8c-.35-2.37.48-4.73,1-7.1Z"/><path id="path4451" class="cls-6" d="M22.58,33.85c2-.33,3.26,2.48,3.75,3.75,1.39,3.58.31,7.87,1.77,11.31L28,52.24c-.87-2-2.41-4.1-2.75-8.06-.16-2.83.3-6.1-1.06-8.07Z"/><path id="path5163" class="cls-10" d="M80.85,52.8l-.43,3-.56,3.54a13.87,13.87,0,0,0,1.48,9.47c.71.08,1.42-.61,2.12-1.27,1.05-1.67,1.31-4.35,1.63-6.93-.26-2.12,0-4.06-.78-6.36-.56.14-1.13.39-1.7,0a5.3,5.3,0,0,0-1.76-1.42Z"/><path id="path4159-4-9-8" class="cls-11" d="M18.68,14.11a28.21,28.21,0,0,0-3.95-4c-.28-.23-1.06-.94-1.41-1.2A34.76,34.76,0,0,0,8.18,5.91c-1.43-.34-3.58-.63-4,0-.23.29.5.94.84,1.64A3.88,3.88,0,0,0,7.16,9.84a5.54,5.54,0,0,1,1.9,1.21,6.35,6.35,0,0,1,1.65,2.24c.69,2.15.2,5.94,2.17,6a9.4,9.4,0,0,0,4.18-.38A3.75,3.75,0,0,0,18.68,14.11Z"/><path id="path4159-4-9-5" class="cls-12" d="M18.68,13.71a28.21,28.21,0,0,0-3.95-4.05c-.28-.23-1.06-.94-1.41-1.2a34.76,34.76,0,0,0-5.14-3c-1.43-.34-3.58-.63-4,0-.23.29.5.94.84,1.64A3.88,3.88,0,0,0,7.16,9.44a5.54,5.54,0,0,1,1.9,1.21,6.35,6.35,0,0,1,1.65,2.24c.69,2.15.2,5.94,2.17,6a9.4,9.4,0,0,0,4.18-.38A3.75,3.75,0,0,0,18.68,13.71Z"/><path id="path4159-4-9" class="cls-13" d="M18.78,13.93a27.49,27.49,0,0,0-4-4.06c-.28-.23-1.07-.94-1.41-1.19a34.13,34.13,0,0,0-5.15-3c-1.42-.34-3.57-.63-4,0-.24.3.5.94.84,1.64A3.85,3.85,0,0,0,7.26,9.65a5.54,5.54,0,0,1,1.9,1.21,6.35,6.35,0,0,1,1.65,2.24c.69,2.15.19,5.94,2.16,6a9.29,9.29,0,0,0,4.19-.38A3.74,3.74,0,0,0,18.78,13.93Z"/><path id="path4410" class="cls-14" d="M14.63,9.77l-.89-2a5.45,5.45,0,0,1-1.94-4.2c-.06-.42,1.91.1,3.36.39,2.09,1.79,4.46,3.52,5.3,5.58a11,11,0,0,0-5.83.29Z"/><path id="path4414-8" class="cls-4" d="M25,72.07c-.13-.31-.39-.37-1.3-.15-1.46.5-2.25,1.43-2.2,2.65.13,1.52,1.65,1.52,2.65,2.05,2.81.7,2.74.61,4.05.45,2.19-1.59,1.68-2.4,1.4-2.85a4.87,4.87,0,0,1-4.05-1C25.06,73.19,25,72.48,25,72.07Z"/><path id="path4159-9" class="cls-15" d="M11.21,2.83c-.7.43.21,1.14.23,1.68A6.54,6.54,0,0,0,13.28,8,45.43,45.43,0,0,0,8.51,5a12.93,12.93,0,0,0-1.65-.29,5.16,5.16,0,0,0-3.29.56c.22,1.9,2.41,5,4.6,5.33a3.91,3.91,0,0,1,1,1.13c-.38.32-2.75,1.14-3.11,1.48,1.1.06,1.33.2,1,.56S3.55,15.65,3.6,16.34c.68-.19,1.52-.24,1.23.13-2.66,2.21-1.58,5.35-1,8.29.58-1.67,2-4.48,3.68-5.11-.29,4.09,1,9-3,11.4-3.4,3.19-1.09,7,.69,10A4,4,0,0,0,8.4,42.85c.41,0,.63-.83,1-1,.55-.21,1.23.16,1.81,0A2.75,2.75,0,0,0,13,40.69c1.51-2.38,2.63-3.89,6-4.3,4.09-3.85,6.12,2,5.51,5.55,0,4.19,1.58,8.05,3.39,11.65a14.09,14.09,0,0,1,.23,3.55,49.2,49.2,0,0,1-2.19,4.91c1.23,3.21.44,6.45-.84,9.24-3.25-.74-6.25,4.15-2.3,5.48a10.22,10.22,0,0,0,3.68.89c-3.47,1.38-3,6.76,1.68,6.63,2.84.47,7.5,1,8.67-2.27-.36-.66-.38-1.86-.68-2.61a4.82,4.82,0,0,0-.39-2.57c.38-1.2,1.12.5,1.28-.32.57-1-.39-2.6-1-3.38a5.8,5.8,0,0,1-1.35-3.72c.26-1.69,1.81-2.78,1.72-4.72-.11-2.3-2.18-4.09-1-6.38.85-5,6.37-.92,9.52-.93,5.18.94,10.4-.18,15.27-1.94a3.57,3.57,0,0,1,1.26-.37,21,21,0,0,1-.6,6.18c-1.43,2.31,1.65,6.38-1.8,8.28a19.17,19.17,0,0,0-1.45,3.29c-3.69-.31-5.29,4.75-1.07,5.64a7.54,7.54,0,0,0,5.29.42c-1.7,1.88-.28,5.65,3.29,5.4,2.83.46,7.5,1,8.66-2.27-.35-.67-.38-1.88-.68-2.63A4.93,4.93,0,0,0,74,76.83c.16-.62.33,0,.83-.26.3-.5-.47-1.66-.83-2.48-.69-1.58-1.33-3.35.74-5.13a9.08,9.08,0,0,0,.56-9.65C74.8,55,77.64,51.64,79.3,48c.59-1.81.81-4.38.89-1,.69,2.06-.68,5.22.25,7-1,1.52-.47,4.36-1.56,6,.3,3.35.71,7.95,2.33,9.23,3.92-.67,4-5.59,4.3-8.73-.26-1.41.44-5.45-.66-6.62.3-1.73-.74-4.65-.76-6.27-.65-3.92.63-8.24-1.25-11.88-2.47-4-6.35-7.21-11.18-7.51-6.12-.9-12,2-18.11,2.11a23.5,23.5,0,0,1-13.41-2.86,5.61,5.61,0,0,0-1.78-2.86c-.89-1,.28-.36.55-1-.5-.7-3.78-3.12-4.36-3.74s-1.34-.75-.24-1.36c-.58-.53-2.76-1.47-3.34-2s-1.95-1.83-.32-1.84c-1-.93-3.54-1.52-4.33-2.63-.76-.86-.73-1.13,0-1.53a34.82,34.82,0,0,0-5.54-1.7,27.71,27.71,0,0,0-5.17-5.15A13.58,13.58,0,0,0,11.21,2.83ZM12.58,4a7.12,7.12,0,0,1,2.43.5,20.48,20.48,0,0,1,4.45,4.17,10.67,10.67,0,0,0-4.4.35c-.4-.54-.44-1.09-1-1.61C13,6.41,12,5.12,12.58,4Zm9.14,8.72a6.57,6.57,0,0,0-3.42-.42c-.68-.59-1.61-1.5-2.32-2.16a14.26,14.26,0,0,1,1.79-.21,9.86,9.86,0,0,1,2.11.15l2.23.67c2.44,1,4.93,2.45,6.4,4.75,2.79,1.95,9.78,10.28,9.59,11.21a14.08,14.08,0,0,1-2.6-1.56A89.59,89.59,0,0,1,28,18.22c-1.39-1.4-2.32-3.19-3.78-4.12A11.78,11.78,0,0,0,21.72,12.68ZM14.13,10c.38.36.91.72,1.27,1.07a11.47,11.47,0,0,0,1.13.93l1.37,1.59c.93,1.38.77,3.46-.36,4.3l-1.38.53a6.27,6.27,0,0,1-.81.07c-2.5.81-3.38-.51-3.63-2.26l-.29-2a4.35,4.35,0,0,0-.54-2l-1-1.31a5.72,5.72,0,0,0-2.39-1.8C6,8.28,5.89,7.85,4.82,5.91a13.38,13.38,0,0,1,8,3.05ZM9.84,12.25a2.51,2.51,0,0,1,.69,2.68,12.75,12.75,0,0,0-2.88,3.25,13.68,13.68,0,0,0-3.6,4.19c-.59-2.12.8-4.94,1.89-6.41.28-.38-.47-.11-.89-.44a8.51,8.51,0,0,0,2-.52c.34-.41.83-.92,1.33-1.41.25-.24.08-.35-.24-.57C8.41,12.79,9.63,12.43,9.84,12.25Zm5.41,10.59c-.29.17-.45.8-.68,1.15a1.45,1.45,0,0,0-1.27-.61c-1,.21-1.4.6-1.48,1a1.67,1.67,0,0,0,1,1.49,2,2,0,0,1-1.12.37c.21.78,1.1.58,2,0a2.56,2.56,0,0,0,.9-.92A2.83,2.83,0,0,0,15.25,22.84ZM13.85,24a.79.79,0,0,1,.3.61,1.73,1.73,0,0,1-.76.8c-.46.12-.85-.37-.88-.81,0-.27.27-.48.46-.58A.89.89,0,0,1,13.85,24ZM81.28,53.6c.09,0,.85,1,1,1.06a5.87,5.87,0,0,0,1.62,0c1,1.56.37,5.76.42,8.12A10.28,10.28,0,0,1,83,67.1a7.44,7.44,0,0,1-1.47,1.05,5,5,0,0,1-.55-2.37s2.22-3.76,2.32-4.62c0-.51.55-3.64.25-3.72s-.86,3.42-.94,3.92-1.94,4-2,3.45A20.61,20.61,0,0,1,80,60.26c0-.39.29-.61.58-1,0-.05.66-.88,1.16-1S82.84,56,82.54,56s-.83,1.71-1.17,1.87-.8.62-.79.55A29.93,29.93,0,0,1,81.28,53.6Zm-18.35,2c1.28,1.15,1.8,3.91,3.61,5.14A33,33,0,0,0,65.7,67c-1.91,1.85-.94,6.36-3.22,7.56-.24.06-1,0-1.29,0-1,.06-2.73.24-3-.14-.2-.22.37-1.8,1-2.62.65-1.4,1.62-2.31,2.16-3.66a6.83,6.83,0,0,0,0-4.88A25.28,25.28,0,0,0,62.93,55.61ZM30.79,73.43A47.09,47.09,0,0,0,30,66.37c-2.22-2.35.12-6-.5-9l.06-1.82a7.64,7.64,0,0,0-.83-3.39,57.41,57.41,0,0,1,.26-6.7,6.36,6.36,0,0,1,.65-2.81c.33-.57.83-1.5.48-1.87a11.16,11.16,0,0,0-2,3.67,20.19,20.19,0,0,0-.73,5.81,27.28,27.28,0,0,1-1.1-4.62c-1.13-3.71.85-8.26-2.46-11.05-.19-.13-.59-.59-.78-.68a11.49,11.49,0,0,0,1.74-3.46,13.16,13.16,0,0,0,.08-6.05,23.45,23.45,0,0,0-.41,3.2,16.69,16.69,0,0,1-1.09,4.06,24,24,0,0,1-1.36,2c-2.29.19-5.07,2.57-7.55,2.8-1.52,1.33-2.81,5.31-4.74,4.3,0-.65,1.22-1.26,1.46-1.93a4.33,4.33,0,0,0-.17-3c-.54.33-.15,1.46-.49,2.36-.21.58-1.15,1-1.39,1.26-.87.86,0,2.1-1.64,2-1-.3-1.62-1.07-2.11-2.52a1.12,1.12,0,0,0,1-.89,1.83,1.83,0,0,0-1.24-2.17c-.28.16-.72.89-.87,1-.44-.27-.57-.84-.57-1.67.08-3.69,4.61-4.36,4.69-8.25.06-2.8-.47-5.88.53-8.35a19.51,19.51,0,0,1,1.72-1.91c.57,2.11,1.51,3.65,4.72,2.68a4,4,0,0,0,2-.34L19,17.84a3.9,3.9,0,0,0,.21-4.32,7.05,7.05,0,0,1,3.53,1,8,8,0,0,1,1.8,1.4c.24.21.46.45.69.68s.29.39.42.6c.65.69,1.32,1.36,2,2a16.86,16.86,0,0,0,2,1.94c.42.39.84.78,1.27,1.16a50.45,50.45,0,0,0,7.11,5.55A25.64,25.64,0,0,0,50.23,31.8c6.88.53,13.45-2.3,20.25-2.31A13.31,13.31,0,0,1,81,35.61c2.56,3.47.94,8.13,1.67,12.11.23,1.82,1.64,8.52-1,5.08-.14-5,.34-10.38-1.79-15-.87-1.55-1.64-2.79-1.22-.23.36,4.61.39,9.75-2.58,13.42-1.77,3.16-3.06,7.34-1.72,10.76,2.46,2.85-1.7,6.39-2.15,9.39-.7,3.19,3,4.35-.35,6.83-.12.61-1.13,1.1-2.27,1.33a8.8,8.8,0,0,1-2.71.18c-.6-.08-1.46-.46-1.36-.86a4.29,4.29,0,0,1,1.24-1.31c.6-1.73,1.85-2.89,2.19-4.33.19-.8.1-1.26-.72-2.3-.81-3.09,4.08-6.9,1.63-9.46a8.19,8.19,0,0,1-1.72-1.08L67,58.94a26.19,26.19,0,0,1-3.48-5.14,10.28,10.28,0,0,0-.05-3.08c-.3-2.55-1.17-4.84,0-7.07.35-.65,1-2.36.65-2.46s-1.25,1.31-1.49,2a16.7,16.7,0,0,0-.5,7.65A15.38,15.38,0,0,1,62,53.68c-4.14.6-8.55,3-12.88,2.64a39,39,0,0,1-9.23-1.38c1.25-.86,2.24-3.15,2.6-4,.82-2,1.68-6.47.82-7.38-.62,4.1-1.23,9.08-5.29,11h0c-3.41.38-3.41,2.6-4.22,5.19-.05,1.92.68,2.53,1.13,3.77.19.53.56,2.29-.11,3a5.51,5.51,0,0,0-1,3.9C34,72.08,35,72.16,35.32,74c0,.25,1.09,1,1,1.39s-.74.28-1.23.14a2.16,2.16,0,0,0-.54,1.72c0,.72.54,1.75.37,2a37,37,0,0,1-3.79,0,5.64,5.64,0,0,1-1.43-.55,1.43,1.43,0,0,1,0-1.7,2,2,0,0,0,.89-2ZM28,60.13a21.78,21.78,0,0,0,.63,6.56c1.39,1.33.34,3.56.8,5.4a3.1,3.1,0,0,1,.11,1.37c-.51,0-1.1.14-1.68.2-1.85-.22-3.41-1-1.13-2.59a13.35,13.35,0,0,0,.78-4,22.71,22.71,0,0,0-.51-5C27.13,61.83,27.83,60.36,28,60.13ZM67.84,61.4c3.37,2.77-3,7.55,0,11.31a18.62,18.62,0,0,1-3,5.29,2.13,2.13,0,0,0-.7-.14,5,5,0,0,0-.82.13,2.19,2.19,0,0,0,.44-2.55.86.86,0,0,0,0-.16,1.84,1.84,0,0,0,.32-1.07c1.58-2.15,1.67-4.93,3-6.84A27.8,27.8,0,0,1,67.84,61.4ZM24.57,72.24a2.34,2.34,0,0,0,1.76,2.16,9.11,9.11,0,0,0,2.75.3c0,.14-.09.88-.13,1-.27.13-.57.71-1.14.91-1.16.28-4.59-.46-5.61-1.52C21.47,74.37,22.41,73,24.57,72.24ZM57,74.47c.21,1.06,1.46,1,2.85,1,2.1-.06,4-.06,1.52,2.08C59.39,78.88,51.94,76.35,57,74.47ZM28.13,78.19c.48,1.76,1.68,2.15,3.27,2.09a14.49,14.49,0,0,0,2.9-.18c.25,0,.48.6.67.71.69,3.82-6.61,2.36-8.75,1.35C23.83,81.11,26.8,78.6,28.13,78.19Zm35.8.59a1.7,1.7,0,0,0,1,1.15c.47.24,1,.71,1.62.63.46-.07.94-.1,1.43-.13a23.81,23.81,0,0,0,2.9-.27c1.47-.27,1.6.34,1.64.74.2,2.1-2.43,3.18-5.06,2.92a13.19,13.19,0,0,1-4.84-1.4C61.35,81.54,63,79.29,63.93,78.78Z"/><path id="path5161" class="cls-16" d="M4.9,6.92c1-1.2,6,.75,9.2,4.46,1.55,1.83,3.62,3.33,3.67,6.57-.28.44-2.41,1.07-4.38,1.14-.91.16-1.59-1.09-2.12-3.19-.32-1.4.18-2.4-1.13-4.31A5.45,5.45,0,0,0,7.31,9.33,4.29,4.29,0,0,1,4.9,6.92Z"/><path id="path7525" class="cls-17" d="M14.4,24.34c.13.41-.22.88-.77,1.06A1,1,0,0,1,12.38,25c-.13-.41.21-.88.77-1.06a1,1,0,0,1,1.25.42"/><path id="path7880" d="M13.81,24.62c0,.41-.2.75-.46.75s-.46-.34-.46-.75.21-.74.46-.74.46.33.46.74"/></g></svg>