<svg id="svg6481" xmlns="http://www.w3.org/2000/svg" viewBox="0 0 750 474.46"><defs><style>.cls-1{fill:#5f5366;}.cls-2{fill:red;}</style></defs><title>Donkey-12</title><g id="layer1"><g id="g3739"><path id="path3272" class="cls-1" d="M382.36,5.88c-43.74-.12-88.52,10.21-132.47,10.69-42.08.44-84.57-8.42-126-1.9C83.66,21,33.67,46.46,23.88,93.24l-.83-.45c-4.38,87,15.62,78.69-23.12,258.81l12.08-19c.21,17.69-2.71,30-8.33,37.89,5.2-7.31,10.41-13.25,15.83-23.1,5,8.35-.63,31.81-1.67,48.89C25.13,369.14,31.17,343.2,35.55,318c7.7,23.47,24.37,44.78,27.28,69.4,1.25,10.29-4.79,20.54-3.75,30.85.63,4.44,4.59,12.63,4.59,12.63-6.46,0-8.34,2-12.29,7.5C57.83,451,64.29,461.81,71,474.43c11.66-11.12,21.66-26.95,19.78-46.87,0,0,4.8-10.45,4.8-16,0-22.52-23.54-42-20.42-64.33.42-3.08,5.21-7.79,5.21-7.79,8.12,32,24.16,51.93,22.91,80.64-.21,7.24.84,22.28,6.46,30.14v11h46.45c-3.54-16.5-13.12-27.08-25.62-38.46-6.25-25.14-10.62-52.07-15.62-78.51,5.41-8.14,9.37-14.83,10-24.93q23.43-39.71,46.24-79.61c75,18.2,112.06,27.45,191.43,14.91,0,0,3.12,22.44,1.25,33.46-2.71,15.2-14.58,27.89-16.88,43.16-1.87,13.16,5,26.55,3.34,39.76-2.29,20-23.75,45.45-19.17,57.28,2.5,6.81,15.21,15.63,15.21,15.63s-4.17,9.18-4.79,14.12c-.83,6,1,16.41,1,16.41h52.49c-5.62-11.35-11.25-23.87-22.7-29.74,0,0-3.13-12.36-3.13-18.62.21-18.46,3.13-34.62,7.08-56.58.63-3.19,5.21-4.21,6.88-7,10-17.7,9.58-39.53,16.25-58.78,6.87-19.89,23.74-58.39,23.74-58.39l15-2.23s5.83,12.06,9.16,17.85c6.46,10.73,16.25,19.56,20.63,31.25,2.7,7.27,1,15.54,2.91,23,2.71,10.45,9.58,19.58,11.87,30.14,2.71,12.12,2.3,24.77,1.88,37.16-.21,5.12-2.29,10.19-1.88,15.31.63,8.94.63,19.45,6.67,26,3.33,3.64,14.16,4.81,14.16,4.81-11,15.56-4.79,14.33,4.17,32.54H546.3c-1.46-11.36-3.34-29-14.79-34,0,0-10-12.54-12.29-20-.84-2.85.21-6.08-.42-9-1-4.68-4.17-8.64-5.21-13.33-3.33-17.54.42-35.74-.41-53.57-.63-10.06-.63-20.25-2.5-30.14-3.13-16.52-12.92-31.5-15-48.18-1.25-9.54,1.25-28.83,1.25-28.83,35-7.17,68.95,45.78,101.44,63.28,0,0-8.33,11.16-9.58,17.83-2.5,14.33.21,30.18,6.67,43.16,4.58,8.75,15.62,12.52,20.83,20.83,4.79,7.56,4.16,17.75,9,25.24,4,6.05,15.62,14.92,15.62,14.92s-2.49,10.85-.41,14.83c3.33,6.56,11.25,8.54,18.33,10.41,9.58,2.57,20.62,2.46,29.79-1.41,10.2-4.4,20.62-12.58,24.37-23.12,5-13.11-4-27.71-4.38-41.66-.62-22.35,6.88-44.77,3.75-66.91a136.5,136.5,0,0,0-17.08-49.87c-.83-1.35-1.67-2.64-2.5-4l25,.85-16.87-11.33a29.83,29.83,0,0,0,4.79-3.38c6.45-5.91,13.54-12.74,16.24-21a134.84,134.84,0,0,0,9.79-10.54c6.67-8.15,15.42-16,17.71-26.29,1-4.52,1.25-10.52-2.29-13.69-2.71-2.64-7.71-1.85-11.46-1-7.08,1.54-13.54,5.94-18.95,10.75-7.71,6.85-17.08,20.5-21.46,27.54-5.42,4.1-10.62,9.12-12.5,10.35a27.81,27.81,0,0,0-2.5,2l-5.2-1.36L687.52,204l-13.12-1.58,20-8.13s-29-3.19-30.83-3.71,17.08-7.87,17.08-7.87l-28.33-1.83,24.37-9.25L638,165.36l20.62-9.44s-31.87-3.19-35-3.19S643,144.34,643,144.34l-23.54-2.6,21.45-9-37.28,2.66L625,125.65s-28.12,1-32.49,1c-4.58,0,17.91-12,17.91-12l-20,2.85,11.87-14.71-25,7.88,14.58-22.33-24.58,14.2,6-26.55L561.29,96l-4.16-30.26s-7.71,16.83-7.5,18.68C550,86.22,544.84,61,544.84,61s-7.5,17.62-8.34,19.2-5-20.74-5-23.37-3.13,11.56-3.75,12.62c-.42,1.07-10.21-20.31-10.21-20.31l-2.71,10.54L503.18,41.23l-3.13,7.08-7.29-11s-.62,5.71-.21,7.69c-2.08-2.6-11.45-11.64-11.45-11.64l2.7,8.27q-6.24-4.47-12.49-8.73c-14.17-9.37-29-19.12-45.41-22.73a207.37,207.37,0,0,0-43.54-4.29ZM41,154.23c15,28.12,33.12,58.06,29.37,87-2.91,20.95-18.12,29.74-29.58,39.18A532.4,532.4,0,0,0,41,154.23Z"/><path id="path4268" class="cls-2" d="M384.24,0c-87.07,14-181.64,11.58-262.46,4.2,12.29,89.64,11,198.87,150.6,190C374.45,187.6,393,56.89,384.24,0Z"/><path id="path4270" class="cls-2" d="M711.48,389.24l-2.08-11.58c-46.46,4.81-42.71,4.62-75.83,33.66l7.5,6.31c28.33-28.68,31.25-23.79,70.41-28.39Z"/><path id="path3274" d="M665.86,317.14s5.42,2.09,8.12,2.9c5.63,1.67,13.75-.67,17.09,4.08,1.45,2.13-.84,5.17-.84,7.75a53.54,53.54,0,0,0,.84,6.85s-2.09-8.1-5.21-10.66c-3.54-3-9.38-1.62-13.33-4.06C669.82,322.33,665.86,317.14,665.86,317.14Z"/></g></g></svg>