<svg id="svg6240" xmlns="http://www.w3.org/2000/svg" viewBox="0 0 750 468.6"><defs><style>.cls-1{fill:#4d4451;}.cls-2{fill:#9795aa;}.cls-3{stroke:#4d4451;stroke-linecap:round;stroke-linejoin:round;stroke-width:2px;}</style></defs><title>Donkey-01</title><g id="layer1"><g id="g6269"><path id="path3263" class="cls-1" d="M681.15,233.18c.83-1.85,10.62-32.35,11.87-35.51s13.75-22.87,23.75-31.56c5.41-4.81,11.87-9.25,19-10.79,3.75-.81,8.75-1.6,11.46,1.06,3.33,3.15,3.12,9.17,2.08,13.67-2.29,10.31-10.83,18.16-17.5,26.31-9.16,11.14-20.41,20.41-30.82,30.51-7.09,6.88-21.25,20.52-21.25,20.52"/><path id="path3259" d="M23.52,89.14C19,176.15,38.62,165.63,0,345.75l12.1-18.94c.08,17.69-2.9,30-8.42,37.87,5.25-7.31,10.52-13.27,15.77-23.14,5.17,8.35-.5,31.85-1.56,48.93C47.29,281.63,53.39,192.42,31.56,93.25"/><path id="path3267" d="M488.26,48,481,27.49s12.92,12.37,11.87,12.37,0-8.42,0-8.42l7.09,11,3.33-7.1L514.92,53.8l2.71-10.52s9.79,21.31,10.21,20.24c.62-1,3.75-15.24,3.75-12.62s4.16,25,5,23.41,8.33-19.2,8.33-19.2,5,25.24,4.79,23.41S557,59.86,557,59.86l4.37,30.24,12.09-20-6,26.55L592,82.46l-14.59,22.37,25-7.9-11.87,14.73,20-2.89s-22.49,12.1-17.91,12.1c4.37,0,32.49-1.06,32.49-1.06l-21.45,9.74L641,126.91l-21.46,9L643,138.49s-22.5,8.42-19.37,8.42,35,3.16,35,3.16L638,159.53l38.74,6.31-24.58,9.21,28.54,1.85s-19,7.35-17.08,7.87,30.62,3.69,30.62,3.69l-19.79,8.17,13.12,1.56-12.7,6.46,32.28,8-22.7,7.56,33.33,22.37-37.7-1.29Z"/><path id="path3257" class="cls-1" d="M51.33,432.48c4.08-5.47,5.88-7.43,12.29-7.43,0,0-4-8.21-4.48-12.65-1.12-10.31,4.94-20.58,3.73-30.89C59.41,351.87,35.81,327.06,32,297.46c-.67-5.18-1.75-11.51,1.48-15.62,10.35-13.14,33.29-20.35,36.83-46.49,6.85-50.72-54.58-104.73-46.87-146.19,8.92-47.93,59.68-74,100.42-80.34,41.54-6.52,84,2.29,126.11,1.86,58.74-.63,118.52-18.79,176-6.34C442.44,8,457.22,17.68,471.39,27.05c42.7,28.43,80,64.59,116.65,100.42,38.12,37.12,80.19,72.47,107.27,118.29a140.43,140.43,0,0,1,17.08,49.83c2.92,22.14-4.37,44.62-3.75,67,.42,13.95,9.38,28.56,4.38,41.66-4,10.52-14.17,18.66-24.58,23.06-9.17,3.87-20,4-29.58,1.48-7.29-1.88-15-3.86-18.33-10.42-2.08-4,.41-14.87.41-14.87s-11.66-8.83-15.62-14.87c-5-7.52-4.16-17.73-9-25.31-5.21-8.29-16.46-12.06-20.83-20.83a70.25,70.25,0,0,1-6.67-43.14c1-6.67,9.58-17.85,9.58-17.85C566,264,531.8,211.06,497,218.23c0,0-2.5,19.29-1.46,28.83,2.29,16.68,11.87,31.66,15.21,48.18,1.87,9.87,1.87,20.06,2.29,30.12.83,17.83-2.71,36,.62,53.55.84,4.71,4.17,8.71,5.21,13.39.63,2.92-.42,6.09.42,8.94,2.29,7.5,12.29,20.08,12.29,20.08,11.45,5.08,13.33,22.66,14.79,34H507.84c-9.16-18.21-15.2-17-4.16-32.54,0,0-10.84-1.19-14.17-4.85-6-6.57-6-17.08-6.66-26-.42-5.1,1.66-10.12,1.87-15.25.42-12.39.63-25.06-1.87-37.18-2.3-10.56-9.17-19.68-11.88-30.14-2.08-7.5-.41-15.79-3.12-23.06-4.17-11.69-14.17-20.5-20.42-31.25-3.33-5.79-9.16-17.85-9.16-17.85l-15,2.23S406.4,278,399.53,297.84c-6.67,19.23-6.46,41.06-16.46,58.76-1.46,2.83-6,3.88-6.67,7.06-4.16,22-6.87,38.1-7.08,56.56,0,6.27,3.13,18.58,3.13,18.58,11.24,5.89,17.08,18.41,22.49,29.76H342.66s-2.08-10.33-1.25-16.37c.62-4.94,5-14.12,5-14.12S333.7,429.26,331,422.44c-4.37-11.85,16.88-37.28,19.38-57.28,1.66-13.22-5.21-26.62-3.34-39.8,2.3-15.27,14.17-27.94,16.67-43.14,1.87-11-1-33.5-1-33.5C283.29,261.28,245.8,253.14,171,233.85c-4.58-1.21-6.25,6-7.91,9.12-13.54,23.46-24.48,47.16-38.12,70.49-.67,10.1-4.71,16.77-10,24.91,4.91,26.46,9.39,53.35,15.62,78.49,12.54,11.4,21.91,22,25.66,38.5H109.74v-11c-5.69-7.85-6.73-22.94-6.4-30.18,1.25-28.71-14.87-48.64-23-80.66,0,0-4.77,4.71-5.21,7.81C72,363.64,95.45,383.2,95.6,405.7c0,5.58-4.84,16-4.84,16,1.94,19.92-8.16,35.77-19.7,46.87-6.65-12.6-13.17-23.43-19.73-36.08Z"/><path id="path3261" d="M665.94,311.3s5.42,2.06,8.12,2.89c5.63,1.65,13.75-.67,17.09,4.06,1.45,2.13-.84,5.17-.84,7.77a53.06,53.06,0,0,0,.84,6.83s-2.3-8.08-5.21-10.64c-3.54-3-9.38-1.64-13.33-4.08C669.9,316.48,665.94,311.3,665.94,311.3Z"/><path id="path6194" class="cls-2" d="M372.45,159.86s-19.58,12.79-30.62,16.67c-26.67,9.35-55.62,9.37-83.32,15.1-17.92,3.71-35.41,11.29-53.75,12.5-15.83,1-33.53,2.43-47.9-4.69-8.54-4.31-19.69-21.35-19.69-21.35s-.06,7.39-1,10.93c-2.69,9.48-4.87,21-13,26.56-7.5,5.08-18.31,4.31-27.08,2.08-10.23-2.6-18.72-10.14-26.56-17.18a68.66,68.66,0,0,1-5.54-5.73c5.19,13.56,8.19,27.21,6.38,40.62-1.56,11.62-7,19.52-13.42,25.83,2.92,6.79,5.81,13.48,4.77,20.52-1.6,10.56-11.85,17.81-17.18,27.08-1.77,3.06-3.88,7.06-6.06,11.18,8.43,20.46,21.93,39.66,24.47,61.51.56,4.9-.54,9.77-1.69,14.65,13,5.68,30.67,1.54,34.1,12.31a15,15,0,0,0,.34-2.73c-.17-22.52-23.65-42.1-20.52-64.39.44-3.1,5.21-7.81,5.21-7.81,8.14,32,24.24,52,23,80.66-.08,1.47,0,3.35.07,5.33,10.37,1.27,19.74,1.64,29.68-.31-.84-.8-1.63-1.57-2.48-2.36-6.23-25.14-10.71-52-15.62-78.42,5.33-8.15,9.35-14.83,10-24.94,13.64-23.33,24.58-47.05,38.11-70.51,1.67-3.16,3.34-10.31,8.13-9.1,74.57,19.27,112.06,27.39,191.43,14.83,0,0,3.12,22.52,1.25,33.54-2.71,15.2-14.58,27.87-16.88,43.16-1.87,13.16,5,26.53,3.34,39.76-2.29,20-23.75,45.45-19.38,57.28a17.34,17.34,0,0,0,2.71,4.17s.21-.1.21-.12c10-3.65,10.83-12.4,12.08-15.11,0,0,8.75-15.76,10.42-24.47s0-17.73-.63-26.56c-.41-7-2.5-13.89-2.08-20.83.62-5.92,2.71-11.66,4.79-17.18,4.79-12.38,14.79-28.79,18.12-35.42,1.88-3.37,4.79-21.87,4.79-21.87,10.83,1.59,19.38,3.84,29.58-1l1.67.38c5.62-13.56,10.62-24.92,10.62-24.92l14.79-2.29s6,12.13,9.37,17.92c6.25,10.72,16.25,19.56,20.63,31.24,2.5,7.27.83,15.52,2.91,23,2.71,10.46,9.58,19.58,11.88,30.14,2.49,12.12,2.29,24.75,1.87,37.16-.21,5.13-2.29,10.12-1.87,15.23.62,8.95.62,19.45,6.66,26a5.56,5.56,0,0,0,1.88,1.49,57.17,57.17,0,0,0,3.95-4.93c4.79-6.19,6.46-14.62,6.88-22.39.41-7.21-2.71-14.19-3.75-21.35-.84-7.8.62-15.9-1.46-23.44-1.25-4.87-4.79-8.87-6.87-13.54-2.5-6.25-5.42-12.56-6.25-19.27-.84-8.16-.42-16.91,2.7-24.47,2.5-5.81,9-9,11.88-14.58a33.92,33.92,0,0,0,3.12-7.63,91.61,91.61,0,0,1-6-20.76c-1.25-9.54,1.46-28.83,1.46-28.83.62-.15,1.25-.23,1.87-.34-3.33-1.68-6.66-3.24-7.7-3.37-6.67-.87-23.75-4.81-35.83-4.69-11.66.11-23.12,2.59-34.37,5.21-9.58,2.21-18.54,7.08-28.12,8.85-9.17,1.65-27.7,1.57-27.7,1.57s-7.09-9.48-8.34-15.11c-1.66-8.22.42-17,2.71-25C362.24,176.21,372.45,159.86,372.45,159.86Z"/><path id="path3265" class="cls-3" d="M659.69,248.16c.63-5.27,4.38-20.14,9.38-28.93,3.54-5.92,10.83-13.42,13.74-15.25s12.92-12.44,21-15.25c5-1.71,11.67-3.81,15.83-.54s4.17,10.73,3.13,16.06c-2.09,9.5-10,17.14-17.08,23.66-7.5,6.81-19.38,7.84-26.25,15.25-3.75,4-2.08,13.25-7.29,14.75C665.32,260,658,262.39,659.69,248.16Z"/><path id="path6199" d="M503.47,423.22c-10.63,15.14-4.59,14.12,4.37,32.16h38.54c-1.46-11.36-3.34-29-14.79-34C522.21,424.11,511.8,423.26,503.47,423.22ZM63,425.05c-5.9.12-7.71,2.12-11.65,7.41C57.93,445.13,64.37,456,71,468.6c7.2-7,13.87-15.76,17.37-26.24-4.1-13.4-10.42-13-23.19-16.15Zm80.71,5.21c-9.47,10.12-23.26,12.26-34,15.16v10h46.47a59.74,59.74,0,0,0-12.5-25.12Zm202.68,7.81s-4.17,9.18-5,14.12c-.83,6,1.25,16.41,1.25,16.41h52.49c-5.62-11.35-11.46-23.93-22.7-29.82-6.67,2.91-22.71-1.84-26-.71Z"/></g></g></svg>