<svg id="svg2" xmlns="http://www.w3.org/2000/svg" viewBox="0 0 400 300"><defs><style>.cls-1{fill:#3a3442;}.cls-1,.cls-2,.cls-5,.cls-6{stroke:#000;}.cls-2,.cls-3{fill:#fff;}.cls-4{fill:#999;}.cls-5{fill:#501616;}.cls-6{fill:#faa;}</style></defs><title>Donkey-13</title><g id="g4069"><path id="path3896" class="cls-1" d="M289.49,61c-1,0-1.54.13-1.62.32-.28.63,0,1.34.79,2-5.06-.44-9-.62-9.27-.11-.48,1.1.84,2.32,3,3.51-7.58-.81-14.61-1.32-14.92-.63-.37.84,4.17,3.88,5.5,4.79-8.44-.6-19.27-3-19.63-2.41-.58,1,.8,2.06,3.2,3.12-8.12-.56-14.74-.85-15.08-.28-.82,1.36,2.17,2.94,6.52,4.39-9.57-.73-18-1.18-18.41-.53-2.46,4.08,29.07,9.92,30,9.22C277.82,74,308.64,78.12,322,64.5c-.77-.33-25.83-3.7-32.54-3.51Z"/><g id="g3001"><path id="path2991" class="cls-1" d="M253,199.19c-.41,10.5,8.13,21.51,4.17,31.25-5.66,13.89-23.31,18.92-35.42,27.78-5.65,4.12-10.73,14-17.36,11.8-5.55-1.87-7.59-11.17-5.56-16.67a7.16,7.16,0,0,1,6.95-4.16c2.27.28,4.33,2.41,6.56,1.88,2.85-.67-.86-3.16,1.08-5.35,4.58-5.21,13.34-4.69,18.75-9,3.21-2.58,6.79-5.69,7.64-9.72,1.52-7.26-3.39-14.45-5.56-21.53-3.24-10.57-7.67-20.75-11.11-31.25-.75-2.3-3.36-4.89-2.08-6.95,7.91-12.78,35-19.38,44.44-7.64,4.54,5.68-6.18,13.21-8.33,20.14-2,6.33-3.91,12.82-4.17,19.45Z"/><path id="path2989" class="cls-1" d="M92.9,186.69c-3,10.16-10.54,18.75-8.67,29.16,1.19,6.61,9.41,9.58,13.89,14.59,10.08,11.26,26.88,19.78,29.17,34.72.45,3-4.61,5.55-3.48,8.33,2.48,6.05,12.61,11.25,18.06,7.64,5.21-3.45,2-12.84,0-18.75-6.07-18-30.07-29.58-34-43-1.68-6.7,2.89-13.52,4.86-20.14,3.16-10.6,8.87-20.43,11.11-31.25.71-3.41,3.43-8.27.7-10.42-6.68-5.25-18.75,1.21-24.31,7.64-4.75,5.5-5.27,14.55-7.3,21.53Z"/><path id="path2987" class="cls-1" d="M55.75,99.19c-30.42,17.36-28.81,41.95-28.47,62.5-6.74,10.46-22,37.51-6.77,35.17,13.82-2.13,13.32-26.49,14.69-43.14,1.12-16.64.92-33.52,20.55-42.73-12.52,29.19,22,50.64,12.5,73.61-4.32,10-14,16.6-20.83,25-7.3,8-3.7,21.68-3.48,30.56.21,11.36.8,22.74,2.09,34,.32,2.8-.76,6.51,1.39,8.33,4.86,3.69,25.15,1.54,25.69-4.17.26-5.89-10.68-6.46-13.19-11.8-4.85-10.27-4.76-23.19-1.39-34,4.69-15.11,18.17-19.43,26.39-27.78,4.5-4.76,6.64-11.31,10.41-16.67,4.09-5.79,7.14-13,13.2-16.66,4.23-2.57,9.87-4.28,14.58-2.78,37.09,40.5,89,14.36,103.47,12.5,6,3.39,3.78,13.32,4.86,20.14,1.39,8.71,1.37,17.59,2.09,26.39,1.11,13.66-1.68,36.28.91,43.52,7.11,6.2,26.1,5.35,29.06.23,3.92-7.53-6-6.2-9.84-9-6.69-4.92-6.67-18.34-5.55-25,.51-2.86,3.53-4.81,4.16-7.64,1.84-8.14-2.2-16.69-1.38-25,.91-9.27,1.62-19.43,6.94-27.08,17.85-10.51,19.18-16.16,29.17-34,5.39-8.69,15.83-13,24.3-18.75,3.79-2.56,7.32-7.78,11.81-6.94,7,1.3,9.89,14.24,15.32,18.79,9.53,14.43,13.59,19.49,26.8,12.13,12.46-6.94,8-11.63,2.86-27.1-4.37-17.61,2-46.87-16-53.67C349.06,53.6,373,45.92,372.21,36c-7.84-9.17-26.63,22-24.8,16.67,10.95-20.2-6.08-6.69-18.75,9-1.64.88-3.74.25-5.55.69C309.22,65.72,296.49,72.8,282.83,77c-10,3.07-20.26,5.58-30.56,7.64-10.56,2.12-21.29,3.25-31.94,4.86-15.28,2.32-30.46,5.36-45.83,7-4.15.43-8.35,1.12-12.5.69-7.15-.73-13.87-3.8-20.84-5.55-8.76-2.21-17.59-4.17-26.38-6.25-14.48-3.43-34.33,1.19-41.67,3.47S61.33,95.39,55.75,99.19Z"/></g><path id="path3803" class="cls-2" d="M368.52,124.59c-8.21,3.79-21.83,9-26.85,16.39C348.29,172,389.06,143.25,368.52,124.59Z"/><path id="path3007" class="cls-3" d="M360.76,101.28c-2,1.63-6.53,0-10.06-3.56S346,89.91,348,88.28s6.53,0,10.06,3.56S362.78,99.66,360.76,101.28Z"/><path id="path3805" class="cls-4" d="M355.57,146.13c0,2.82-.95,5.11-2.13,5.11s-2.13-2.29-2.13-5.11,1-5.1,2.13-5.1S355.57,143.31,355.57,146.13Z"/><path id="path3825" class="cls-5" d="M153.87,89.53c-4.38-1.88-10-4.54-14.41-1.35-3.72,3.8.13,9.34,4,11.2,12.12,5.83,25.3,9.06,37.83,13.89,9.2,3.15,17.53,8.26,26.64,11.62,8.49,3.39,16.93,8.7,20.71,17.4,2.95,7.1,10.11,31.15,16.21,20.77,2.38-6.35-2.85-12.44-1.54-18.9,1.06-12,7.91-23.73,4.59-36-7.61-16.65-19-27.18-36.5-21.94-15.95.19-45.42,8.82-57.58,3.29Z"/><g id="g3883"><path id="path3827" class="cls-6" d="M319.26,110.35c2-6.07-2.24-56.69,9-49.42,3.1,26,9.76,32.41,25.71,51.31,4.27-.31,17.17-6.36,13.67,2.57-12.66,10.57-39.3-3-44.93,4-1.74,5.13,3.23,20-4.36,21.91-8.22-1.62-1.33-16.5-2.9-21.21-26.68-5.49-103.52-24.39-82.59-33.33,14.6,5.42,50.87,24.36,86.39,24.14Z"/><path id="path3829" class="cls-1" d="M327.06,91.23l-2.55,17.45,21.27,2.55Z"/></g><path id="path3859" d="M360.68,96.2c0,1.8-2.18-1.49-5.23-1.49s-5.83,3.29-5.83,1.49,2.47-3.26,5.53-3.26,5.53,1.46,5.53,3.26Z"/><path id="path3805-1" class="cls-4" d="M369.61,142.93c0,2.23-1,4-2.34,4s-2.34-1.81-2.34-4,1.05-4,2.34-4S369.61,140.7,369.61,142.93Z"/></g></svg>