<svg id="publicdomainvectors.org" xmlns="http://www.w3.org/2000/svg" viewBox="0 0 600 266.42"><title>ant 02</title><path d="M548.38,232c-27.88-10.84-52.72-27.22-50.31-36.69-11.57-14-58.66-98.87-58.66-98.87C428.74,87.69,405.49,116,393,122.8c-4.45-3.2-10.7-22.1-11.59-30.79-.77-7.54-11.27-4.42-17,2.27-.21-.14-.42-.28-.64-.41,4.45-8.79,18.31-14.3,19.2-5.6a58.77,58.77,0,0,0,1.65,8.38,23.82,23.82,0,0,0,2.87-8.18A21,21,0,0,0,401,93.21c9,0,16.58-5.35,18.87-12.61a20.6,20.6,0,0,0,15.52,6.73,21.73,21.73,0,0,0,9.13-2C458,141,499.16,172,562.18,164.79c12-4.8,11.28-11.4,11.28-11.4S589,12.43,453,52.68l-1.91,7.18a20.54,20.54,0,0,0-15.69-6.92c-9,0-16.58,5.34-18.87,12.6A20.6,20.6,0,0,0,401,58.81c-8.46,0-15.65,4.72-18.39,11.31a29.55,29.55,0,0,0-46.56,1.32c-5.17-10.73-15-21.69-26.38-26-20.13-7.64-36.37-4.11-45,7.61-2.16-18.37-15-34.67-42.32-29.85a71.87,71.87,0,0,0-49.23,33.68c-3.07.69-6.1,1.62-9.13,2.48-6.12,1.81-12.27,3.85-18.45,5a30.84,30.84,0,0,1-9,.49,11.68,11.68,0,0,1-3.89-1.14,20.14,20.14,0,0,1-1.9-1.11l-1.92-1.27C123.65,57.78,118.42,54.06,113,51a87.17,87.17,0,0,0-16.49-7.51,67.39,67.39,0,0,0-40.89-.59c-2.88.86-5.11,1.63-6.59,2.23l-2.3.9-.25.1a4.8,4.8,0,0,0,4,8.74l.21-.09,2-.9c1.3-.62,3.23-1.41,5.73-2.31a60.81,60.81,0,0,1,21.54-3.6c9.11.13,19.76,2.8,30.27,8.22,5.3,2.64,10.5,5.92,16,9.27l2.16,1.25a24.58,24.58,0,0,0,2.31,1.17,16,16,0,0,0,5.4,1.29,34,34,0,0,0,10.22-1.06c6.5-1.55,12.56-3.94,18.54-6.07,2.21-.76,4.41-1.55,6.61-2.24a69.32,69.32,0,0,0-8.16,24.86c-.69-.18-1.37-.36-2.08-.53a42.37,42.37,0,0,0-4.59-.9,16.66,16.66,0,0,0-4.94.39c-6.37,1.53-12.14,4.77-18,7.72s-11.8,6.15-17.94,7.94a18.68,18.68,0,0,1-8.85.72,42.49,42.49,0,0,1-4.35-1.58l-4.61-1.86a171,171,0,0,0-18.6-6.46C66.93,86.56,54.56,85.43,44,86.6a73.79,73.79,0,0,0-24.65,7.07A70,70,0,0,0,13,97.14l-2.18,1.34-.21.13A4.8,4.8,0,0,0,16,106.53l.21-.14,1.86-1.28a62.69,62.69,0,0,1,5.43-3.34A65.18,65.18,0,0,1,45,94.39c9.4-1.55,20.84-1.16,32.81,1.55a163.59,163.59,0,0,1,18.31,5.32l4.7,1.62a44.37,44.37,0,0,0,5.14,1.53,22.87,22.87,0,0,0,10.93-1.35c6.65-2.35,12.43-5.9,18.15-9.18s11.26-6.73,17.09-8.44a14.84,14.84,0,0,1,4.32-.59,34.18,34.18,0,0,1,4.42.72c.75.16,1.49.34,2.23.51A51.25,51.25,0,0,0,165.49,108s-8,24.53-.53,39.46c9.52-12.56,52.44-30.74,77.37-48.54,3-5.56,5-9.09,5-9.09.93-1.69,3.7-2.14,7.59-1.73.42-.48.83-.95,1.21-1.43a40.78,40.78,0,0,0,7.34-15.35c5.73,12.46,21,28.19,43.86,29.5-3.72-7.58-8.65-17-8.41-22.08.38-8.35,21.37-3.71,24.84,4.45-7-5.41-21.19-7.3-21.51-.45-.4,8.69,14.26,30,12.26,33.22-5.59-6.8-59-30.84-63.84-22.13,0,0-34.79,62.79-40,76.78,1.15,10.08-9.52,26.37-20.2,36.95-4.16,4.11-8.32,7.36-11.8,9,26.8-1.6,37.48-36.31,37.48-43.5,25.11-25.64,34.37-65.27,40.9-70.54,19.6,8.87,60.16,26.18,68.38,22.06,6.16-3.08,2.84-16.24,1.46-26.08,2.22-.62,4.48-1.37,6.79-2.27.31-.12.58-.27.86-.41a25.63,25.63,0,0,0,4.81,6.42,66.48,66.48,0,0,1-1.25-11.55c.34-7.25,11.15-.53,15.92,7-5.25-6.38-13.82-11-14.11-4.52-.4,8.69,7.12,37.16,5.12,40.36-5.6-6.8-21.2-9.49-26-.78,0,0-9.6,53.59-14.8,67.58,1.41,12.32-4.31,52.49-14.15,66.05a12.08,12.08,0,0,1-4.25,3.93c26.8-1.59,22.8-57.18,22.8-64.38,16.79-14.79,12.39-56.06,15.19-65.58,21,.8,19.18,11.18,27.4,7.07,7.39-3.7,4.19-26.13,5.14-37.26a30.35,30.35,0,0,0,13.72-1.58c4,8.62,8.24,19.13,21.19,22,18.29,4.11,9.73-19.19,44.12-24.26,23.87,30.13,31.06,70.65,51.86,91.44,0,7.2,40.85,42.92,100.5,44.52-12.07-1.29-26.08-5.21-39.39-10.39M476.5,53.48A83.84,83.84,0,0,1,484.81,52a94,94,0,0,1,11-.84l6.34.14c2.19.13,4.45.51,6.78.77s4.66,1,7.09,1.44,4.79,1.51,7.25,2.32c4.74,2,9.68,4.29,14,7.62a72,72,0,0,1,6.41,5.19,77.26,77.26,0,0,1,5.71,6,79.35,79.35,0,0,1,9.15,13.62,93.77,93.77,0,0,1,6.17,14.49,115.12,115.12,0,0,1,5.36,27.09,102.29,102.29,0,0,1-.17,19.41,35.13,35.13,0,0,1-1.35,7.21,43.83,43.83,0,0,0,.08-7.26,151.64,151.64,0,0,0-9.23-44.55,107.17,107.17,0,0,0-6.29-13.43,73.67,73.67,0,0,0-8.6-12.46,71.1,71.1,0,0,0-5.13-5.56,69.33,69.33,0,0,0-18.29-12.2c-2.22-.84-4.39-1.74-6.57-2.47s-4.35-1.38-6.52-1.81-4.27-.88-6.33-1.2l-6-.73c-1.94-.18-3.82-.16-5.6-.28a43.82,43.82,0,0,0-5.07-.11c-3.18.15-6,0-8.31.28l-7.29.51,7.1-1.77M420.11,65.92a9,9,0,0,1,1.15-1.84,12.29,12.29,0,0,1,2-2,19.43,19.43,0,0,1,2.81-1.81,19.06,19.06,0,0,1,3.46-1.38,23.15,23.15,0,0,1,8-1,21.21,21.21,0,0,1,4.12.67,16.81,16.81,0,0,1,3.8,1.5,12.71,12.71,0,0,1,3,2.42,11.24,11.24,0,0,1,1.16,1.37l.78,1.48a8.46,8.46,0,0,1,.85,2.73,6.19,6.19,0,0,1,.12,2.14c-.06,1.18-.13,1.82-.13,1.82l-.5-1.74a6.75,6.75,0,0,0-.67-1.87,9,9,0,0,0-1.25-2.15,8.88,8.88,0,0,0-2-2,14.8,14.8,0,0,0-2.68-1.66,20.57,20.57,0,0,0-3.28-1,18.07,18.07,0,0,0-3.55-.48,23.27,23.27,0,0,0-3.64,0,26.26,26.26,0,0,0-3.51.49,23.67,23.67,0,0,0-6,2,17.49,17.49,0,0,0-2.12,1.33,10.4,10.4,0,0,0-1.48,1.31l-1.15,1.42s.22-.63.59-1.72m-34.38,6.37a10.5,10.5,0,0,1,.91-1.89,14.38,14.38,0,0,1,1.63-2.25,17,17,0,0,1,2.44-2.2l1.49-1c.54-.3,1.12-.56,1.7-.84a11,11,0,0,1,1.84-.71,9.14,9.14,0,0,1,2-.53c.67-.1,1.35-.24,2-.3l2.1,0a16.6,16.6,0,0,1,2.09.27,8.3,8.3,0,0,1,2,.5A14.45,14.45,0,0,1,409.61,65a18.11,18.11,0,0,1,2.88,2.37,23.86,23.86,0,0,1,2,2.59c.5.88.93,1.69,1.29,2.4a8.41,8.41,0,0,1,.36.93c.12.38.23.73.34,1,.28.9.44,1.46.48,1.63a.45.45,0,0,0,0,.08l-1.08-1.43c-.34-.45-.7-1-1.17-1.61s-1.1-1.2-1.7-1.9-1.44-1.25-2.18-2a29.46,29.46,0,0,0-2.69-1.71,16.11,16.11,0,0,0-3.11-1.18,6.39,6.39,0,0,0-1.67-.36,14.31,14.31,0,0,0-1.72-.17l-1.73,0c-.58,0-1.15.14-1.72.21a17.78,17.78,0,0,0-3.29.81A18.44,18.44,0,0,0,392,68a25.12,25.12,0,0,0-2.48,1.54,24.05,24.05,0,0,0-1.89,1.62,15.21,15.21,0,0,0-1.33,1.46L385.23,74l.5-1.72M256.3,50.9c-.4-.71-.82-1.81-1.63-3.06-.39-.62-.82-1.3-1.3-2s-1.14-1.42-1.76-2.2a24.11,24.11,0,0,0-5-4.16,23.72,23.72,0,0,0-7.06-2.54,32.06,32.06,0,0,0-8.48-.28A50,50,0,0,0,222,38.37a63.67,63.67,0,0,0-9.17,3.29A83.11,83.11,0,0,0,204,46c-2.81,1.64-5.59,3.25-8.13,5.05s-5,3.6-7.14,5.42-4.16,3.69-5.89,5.49a42.54,42.54,0,0,0-7.13,9.68,18.28,18.28,0,0,0-1.33,3.18l-.4,1.18s0-.43.06-1.24a14.68,14.68,0,0,1,.47-3.53A26.59,26.59,0,0,1,176.33,66a38.85,38.85,0,0,1,3.64-6.3c.75-1.1,1.62-2.17,2.49-3.33s1.9-2.21,3-3.3a65,65,0,0,1,7.05-6.47,76.19,76.19,0,0,1,8.38-5.88,87.16,87.16,0,0,1,9.41-4.89,69.4,69.4,0,0,1,10.14-3.4A44.25,44.25,0,0,1,230.8,31a30.76,30.76,0,0,1,9.91,1.28,23.62,23.62,0,0,1,8,4.17,29,29,0,0,1,2.83,2.82,25.32,25.32,0,0,1,2,2.91c.5,1,1.05,1.85,1.4,2.73s.59,1.7.84,2.43a23.57,23.57,0,0,1,.79,3.47c.14.79.22,1.22.22,1.22l-.55-1.12m72,22.66a33.75,33.75,0,0,0-2.9-3.21c-1.08-1.13-2.49-2.16-3.79-3.36-1.51-1-2.93-2.24-4.63-3.25l-2.52-1.6c-.9-.46-1.8-.94-2.69-1.45-1.79-1-3.73-1.84-5.61-2.74s-3.86-1.64-5.83-2.24-3.88-1.27-5.78-1.77-3.76-.84-5.54-1.17c-1.77-.12-3.49-.57-5.06-.52a32.63,32.63,0,0,0-4.3,0,19.49,19.49,0,0,0-3.4.33c-1.93.38-3.06.54-3.06.54s.92-.66,2.58-1.72a15,15,0,0,1,3.29-1.52,21.74,21.74,0,0,1,4.64-1.26,30.51,30.51,0,0,1,5.62-.58,44.15,44.15,0,0,1,6.28.4,45.73,45.73,0,0,1,6.57,1.37,54,54,0,0,1,6.54,2.3,55.84,55.84,0,0,1,6.14,3.21,41.53,41.53,0,0,1,5.48,3.9,40.34,40.34,0,0,1,4.57,4.33,36.41,36.41,0,0,1,3.39,4.55,22.4,22.4,0,0,1,2.14,4.27,16,16,0,0,1,1,3.5c.29,2,.37,3.11.37,3.11s-.62-1-1.55-2.65a24.15,24.15,0,0,0-2-2.75m28.47-6.82a39,39,0,0,0-4.16.57,30.88,30.88,0,0,0-3.8,1,24.88,24.88,0,0,0-3.28,1.34c-1,.48-1.79,1.07-2.59,1.52-.64.56-1.26,1.05-1.73,1.51-.8,1.09-1.29,1.69-1.29,1.69s.25-.73.74-2c.36-.58.88-1.26,1.48-2.09a18,18,0,0,1,5.75-4.19,23.9,23.9,0,0,1,4-1.57,28.29,28.29,0,0,1,4.54-.91,27.38,27.38,0,0,1,4.8-.13,28.31,28.31,0,0,1,4.78.74,20.39,20.39,0,0,1,4.38,1.77,16.94,16.94,0,0,1,1.95,1.15l1.67,1.4a16.88,16.88,0,0,1,2.56,3,18.75,18.75,0,0,1,1.48,2.93,10.33,10.33,0,0,1,.72,2.37c.3,1.34.42,2.09.42,2.09s-.4-.69-1-1.87a9.67,9.67,0,0,0-1.18-2c-.59-.69-1.12-1.56-1.87-2.34a20.54,20.54,0,0,0-2.64-2.26,16.3,16.3,0,0,0-3.34-1.87,24.54,24.54,0,0,0-3.88-1.3,26,26,0,0,0-4.24-.55,23.75,23.75,0,0,0-4.3,0m17.73-9.85C378,51.75,388.89,12.56,391,1.9s33.05,27.19,48,24.53v2.39c-3.6,3.8-31.19-12.73-40-17s-14.13,49.25-17.59,51.43-6.13-3.78-6.93-6.37M309.71,39.22c4-1.07,5.34-21.86,9.34-23.46s24.71,37.12,27.19,43.05l-9.86,5.81S325.18,28.29,321.85,27s-7.6,15.73-7.6,15.73-5.07.8-4.54-3.47"/></svg>