<svg width="522" height="918" xmlns="http://www.w3.org/2000/svg">

 <g id="imagebot_1">
  <path id="imagebot_44" stroke="#000" stroke-width="9.9771" fill="#3f432a" d="M544.58002,872.46002S534.33704,823.99902 470.57602,829.68402C384.80502,837.33142 382.35001,886.17004 382.35001,886.17004C377.32263,901.29901 548.86005,892.26434 544.58002,872.46002z" transform="translate(-3.66211e-06, -1.34609e-05) matrix(1, 0, 0, 1, -76.905, -4.11372)"/>
  <path id="imagebot_43" stroke="#000" stroke-width="8.1474" fill="#5e6a56" d="M281.64999,555.15002L276.3735,804.67004C297.50848,895.39905 512.85352,862.59406 519.09351,808.41284L519.09351,550.16284L290.44351,552.65802" transform="translate(-3.66211e-06, -1.34609e-05) matrix(1, 0, 0, 1, -76.905, -4.11372)"/>
  <path id="imagebot_42" stroke="#000" stroke-width="7.9484" fill="#5e6a56" d="M186.82001,560.06L177.92091,819.38C203.54192,894.59601 416.81091,881.04401 418.29089,847.03198L424.27551,564.85199L149.5555,569.77924" transform="translate(-3.66211e-06, -1.34609e-05) matrix(1, 0, 0, 1, -76.905, -4.11372)"/>
  <path id="imagebot_41" stroke-linejoin="round" d="M-1064,429.35999C-1064,495.082 -1124.88904,548.35999 -1200,548.35999S-1336,495.082 -1336,429.35999S-1275.11096,310.35999 -1200,310.35999S-1064,363.638 -1064,429.35999z" fill-rule="evenodd" transform="translate(-3.66211e-06, -1.34609e-05) matrix(0.28142, 0.070198, -0.14662, 0.30714, 852.365, 587.776)" stroke="#000" stroke-linecap="round" stroke-width="30.071" fill="#ab926c"/>
  <path id="imagebot_40" stroke="#000" stroke-width="10.571" fill="#c66366" d="M441.84,645.72998C448.198,662.58197 569.76001,618.15399 563.67999,598.78601C506.31201,351.716 450.29001,373.38599 428.87,378.186C396.83499,402.90601 406.27802,488.186 441.83801,645.73602L441.84,645.72998z" transform="translate(-3.66211e-06, -1.34609e-05) matrix(1, 0, 0, 1, -76.905, -4.11372)"/>
  <path id="imagebot_39" stroke-linejoin="round" d="M275.355,335.196 C274.697,335.186 274.036,335.206 273.379,335.211 C273.006,335.192 272.633,335.168 272.26,335.153 C271.685,335.13 271.098,335.125 270.521,335.112 L270.511,335.268 C226.383,336.813 184.765,364.294 156.401,399.56 C95.613,474.644 70.404,574.841 65.694,671.441 C66.533,696.267 61.19,725.92 70.29,747.646 C104.908,771.772 167.003,777.152 209.25,783.602 C220.488,784.412 238.359,784.988 257.762,785.566 L257.762,785.628 C259.799,785.665 261.737,785.704 263.745,785.74 C263.943,785.74 264.137,785.75 264.335,785.754 C283.745,786.099 301.624,786.374 312.893,786.1 C355.452,781.667 417.773,779.251 453.702,756.803 C464.019,735.538 460.362,705.672 462.603,680.918 C463.366,584.216 443.859,482.958 387.401,405.088 C361.068,368.519 321.061,339.096 277.081,335.453 L277.091,335.236 C276.515,335.222 275.929,335.199 275.353,335.195 L275.355,335.196 z" fill-rule="evenodd" stroke="#000" stroke-linecap="round" stroke-width="12.723" fill="#c66366"/>
  <path id="imagebot_38" stroke-linejoin="round" d="M-1064,429.35999C-1064,495.082 -1124.88904,548.35999 -1200,548.35999S-1336,495.082 -1336,429.35999S-1275.11096,310.35999 -1200,310.35999S-1064,363.638 -1064,429.35999z" fill-rule="evenodd" transform="translate(-3.66211e-06, -1.34609e-05) matrix(-0.2656, 0.11655, 0.19621, 0.27809, -307.145, 701.376)" stroke="#000" stroke-linecap="round" stroke-width="30.071" fill="#ab926c"/>
  <path id="imagebot_37" stroke="#000" stroke-width="11" fill="#3f432a" d="M186.72,888.39001S193.916,827.63397 285.42801,831.742C408.52802,837.26898 419.448,897.90503 419.448,897.90503C428.89499,916.48999 183.64799,913.22302 186.728,888.39001L186.72,888.39001z" transform="translate(-3.66211e-06, -1.34609e-05) matrix(1, 0, 0, 1, -76.905, -4.11372)"/>
  <rect id="imagebot_36" stroke-linejoin="round" fill-rule="evenodd" rx="268.07" ry="186.29" height="372.59" width="426.7" stroke="#000" stroke-linecap="round" y="55.657" x="137.05" stroke-width="12.101" fill="#ab926c" transform="translate(-3.66211e-06, -1.34609e-05) matrix(1, 0, 0, 1, -76.905, -4.11372)"/>
  <path id="imagebot_35" stroke="#000" stroke-width="11.57" fill="#c66366" d="M230.14999,672.84003C224.88998,691.30005 82.68999,659.47003 87.37,638.40002C124.12999,372.11002 189.78999,388.04004 214.49998,390.47003C254.43399,399.11304 252.44199,503.17004 230.14999,672.84003z" transform="translate(-3.66211e-06, -1.34609e-05) matrix(1, 0, 0, 1, -76.905, -4.11372)"/>
  <path id="imagebot_34" stroke-linejoin="round" d="M-213.36,635.21002C-229.37199,625.66504 -233.54401,604.18903 -224.157,588.53705C-213.15401,570.19104 -188.50101,565.42804 -170.55499,576.25299C-149.618,588.883 -144.19901,617.07001 -156.629,637.565C-171.06799,661.37305 -203.175,667.51501 -226.495,653.30005C-253.47301,636.85504 -260.41199,600.41302 -244.217,573.97302C-225.554,543.50403 -184.33099,535.68903 -154.453,554.07404C-120.148,575.18304 -111.373,621.66504 -132.173,655.32404C-136.16,661.77563 -141.0941,667.633 -146.758,672.67603" transform="translate(-3.66211e-06, -1.34609e-05) matrix(1, 0, 0, -1, 535.825, 755.886)" stroke="#000" stroke-linecap="round" stroke-width="9" fill="#7f7f00"/>
  <path id="imagebot_33" stroke-linejoin="round" d="M-213.36,635.21002C-229.37199,625.66504 -233.54401,604.18903 -224.157,588.53705C-213.15401,570.19104 -188.50101,565.42804 -170.55499,576.25299C-149.618,588.883 -144.19901,617.07001 -156.629,637.565C-171.06799,661.37305 -203.175,667.51501 -226.495,653.30005C-253.47301,636.85504 -260.41199,600.41302 -244.217,573.97302C-225.554,543.50403 -184.33099,535.68903 -154.453,554.07404C-120.148,575.18304 -111.373,621.66504 -132.173,655.32404C-136.16,661.77563 -141.0941,667.633 -146.758,672.67603" transform="translate(-3.66211e-06, -1.34609e-05) matrix(0.66768, 0, 0, 0.67209, 294.895, -328.374)" stroke="#000" stroke-linecap="round" stroke-width="13.435" fill="#7f7f00"/>
  <path id="imagebot_32" stroke-linejoin="round" d="M-213.36,635.21002C-229.37199,625.66504 -233.54401,604.18903 -224.157,588.53705C-213.15401,570.19104 -188.50101,565.42804 -170.55499,576.25299C-149.618,588.883 -144.19901,617.07001 -156.629,637.565C-171.06799,661.37305 -203.175,667.51501 -226.495,653.30005C-253.47301,636.85504 -260.41199,600.41302 -244.217,573.97302C-225.554,543.50403 -184.33099,535.68903 -154.453,554.07404C-120.148,575.18304 -111.373,621.66504 -132.173,655.32404C-136.16,661.77563 -141.0941,667.633 -146.758,672.67603" transform="translate(-3.66211e-06, -1.34609e-05) matrix(0.66768, 0, 0, 0.67209, 543.385, -331.924)" stroke="#000" stroke-linecap="round" stroke-width="13.435" fill="#7f7f00"/>
  <path id="imagebot_31" stroke-linejoin="round" d="M-213.36,635.21002C-229.37199,625.66504 -233.54401,604.18903 -224.157,588.53705C-213.15401,570.19104 -188.50101,565.42804 -170.55499,576.25299C-149.618,588.883 -144.19901,617.07001 -156.629,637.565C-171.06799,661.37305 -203.175,667.51501 -226.495,653.30005C-253.47301,636.85504 -260.41199,600.41302 -244.217,573.97302C-225.554,543.50403 -184.33099,535.68903 -154.453,554.07404C-120.148,575.18304 -111.373,621.66504 -132.173,655.32404C-136.16,661.77563 -141.0941,667.633 -146.758,672.67603" transform="translate(-3.66211e-06, -1.34609e-05) matrix(-0.66768, 0, 0, 0.67209, 208.355, -351.174)" stroke="#000" stroke-linecap="round" stroke-width="13.435" fill="#7f7f00"/>
  <path id="imagebot_30" stroke-linejoin="round" d="M-213.36,635.21002C-229.37199,625.66504 -233.54401,604.18903 -224.157,588.53705C-213.15401,570.19104 -188.50101,565.42804 -170.55499,576.25299C-149.618,588.883 -144.19901,617.07001 -156.629,637.565C-171.06799,661.37305 -203.175,667.51501 -226.495,653.30005C-253.47301,636.85504 -260.41199,600.41302 -244.217,573.97302C-225.554,543.50403 -184.33099,535.68903 -154.453,554.07404C-120.148,575.18304 -111.373,621.66504 -132.173,655.32404C-136.16,661.77563 -141.0941,667.633 -146.758,672.67603" transform="translate(-3.66211e-06, -1.34609e-05) matrix(0.66768, 0, 0, 0.67209, 365.165, -353.314)" stroke="#000" stroke-linecap="round" stroke-width="13.435" fill="#7f7f00"/>
  <path id="imagebot_29" fill-rule="evenodd" transform="translate(-3.66211e-06, -1.34609e-05) matrix(1.3779, 0, 0, 1.6723, 753.587, -203.854)" d="M-232.94,259.59C-232.94,265.16479 -237.6331,269.68399 -243.422,269.68399C-249.2112,269.68399 -253.90401,265.16479 -253.90401,259.59S-249.21091,249.496 -243.422,249.496C-237.6328,249.496 -232.94,254.0152 -232.94,259.59z"/>
  <path id="imagebot_28" fill-rule="evenodd" transform="translate(-3.66211e-06, -1.34609e-05) matrix(1.3779, 0, 0, 1.6723, 609.588, -199.354)" d="M-232.94,259.59C-232.94,265.16479 -237.6331,269.68399 -243.422,269.68399C-249.2112,269.68399 -253.90401,265.16479 -253.90401,259.59S-249.21091,249.496 -243.422,249.496C-237.6328,249.496 -232.94,254.0152 -232.94,259.59z"/>
  <path id="imagebot_27" stroke-linejoin="round" d="M-423.59,741.67999L-352.16,741.03961" stroke="#000" stroke-linecap="round" stroke-width="12.649" fill="none" transform="translate(-3.66211e-06, -1.34609e-05) matrix(1, 0, 0, 1, 669.625, -517.614)"/>
  <path id="imagebot_26" stroke-linejoin="round" d="M-280.72,737.67999L-209.28999,737.03961" stroke="#000" stroke-linecap="round" stroke-width="12.649" fill="none" transform="translate(-3.66211e-06, -1.34609e-05) matrix(1, 0, 0, 1, 669.625, -517.614)"/>
  <path id="imagebot_11" stroke-linejoin="round" d="M-5164.5,-923.97998C-5173.64893,-1051.28003 -5063.68994,-1152.68994 -4941.68018,-1160.81995C-4773.58984,-1172.02197 -4640.0498,-1026.64001 -4630.08984,-865.34998C-4624.29004,-771.35901 -4657.60986,-677.84998 -4717.86377,-605.97998" transform="translate(-3.66211e-06, -1.34609e-05) matrix(-0.05015, -0.057293, 0.05113, -0.038897, -90.351, -56.5057)" stroke="#000" stroke-linecap="round" stroke-width="139.79" fill="none"/>
  <title/>
  <path fill="#000000" stroke="#000" stroke-width="11" stroke-dasharray="null" stroke-linejoin="round" stroke-linecap="round" stroke-opacity="null" d="M350.719,338 L236.715,304.219 C241.952,335.401 252.863,358.583 267.747,364.766 C296.539,378.844 326.466,355.922 350.719,338 z" id="imagebot_5"/>
  <path fill="#ffffff" stroke="#000000" stroke-width="3" stroke-dasharray="null" stroke-linejoin="round" stroke-linecap="round" stroke-opacity="null" id="imagebot_2" d="M345.264,687.811 C321.498,687.132 302.77,667.282 303.449,643.516 C304.129,619.751 323.96,601.022 347.726,601.702 C371.492,602.381 391.323,583.634 392.003,559.868 C392.683,536.103 373.954,516.271 350.188,515.592 C302.657,514.233 262.975,551.708 261.616,599.239 C260.257,646.77 297.732,686.452 345.264,687.811 z M346.11,658.205 C353.541,658.417 359.74,652.563 359.953,645.132 C360.165,637.701 354.31,631.502 346.88,631.29 C339.449,631.077 333.25,636.932 333.037,644.362 C332.825,651.793 338.68,657.992 346.11,658.205 z M348.573,572.095 C341.146,571.883 335.288,565.679 335.5,558.253 C335.712,550.826 341.915,544.967 349.342,545.18 C356.769,545.392 362.627,551.596 362.415,559.022 C362.203,566.449 355.999,572.307 348.573,572.095 z M263.549,599.24 C264.907,551.744 304.511,514.342 352.007,515.7 C399.503,517.058 417.905,557.662 419.547,606.158 C410.189,652.654 396.585,681.056 347.089,687.698 C299.593,686.339 262.191,646.735 263.549,599.24 z"/>
  <path id="imagebot_45" fill="#ffffff" stroke="#000000" stroke-width="3" stroke-dasharray="null" stroke-linejoin="round" stroke-linecap="round" stroke-opacity="null" d="M345.264,687.811 C321.498,687.132 302.77,667.282 303.449,643.516 C304.129,619.751 323.96,601.022 347.726,601.702 C371.492,602.381 391.323,583.634 392.003,559.868 C392.683,536.103 373.954,516.271 350.188,515.592 C302.657,514.233 262.975,551.708 261.616,599.239 C260.257,646.77 297.732,686.452 345.264,687.811 z M346.11,658.205 C353.541,658.417 359.74,652.563 359.953,645.132 C360.165,637.701 354.31,631.502 346.88,631.29 C339.449,631.077 333.25,636.932 333.037,644.362 C332.825,651.793 338.68,657.992 346.11,658.205 z M348.573,572.095 C341.146,571.883 335.288,565.679 335.5,558.253 C335.712,550.826 341.915,544.967 349.342,545.18 C356.769,545.392 362.627,551.596 362.415,559.022 C362.203,566.449 355.999,572.307 348.573,572.095 z M263.549,599.24 C264.907,551.744 304.511,514.342 352.007,515.7 C399.503,517.058 425.905,560.662 427.547,609.158 C418.189,655.654 400.585,681.056 351.089,687.698 C303.593,686.339 262.191,646.735 263.549,599.24 z"/>
  <path id="imagebot_46" fill="#000000" stroke="#000000" stroke-width="3" stroke-dasharray="null" stroke-linejoin="round" stroke-linecap="round" stroke-opacity="null" d="M350.501,513.115 C375.98,513.794 396.058,533.644 395.33,557.41 C394.601,581.175 373.341,599.904 347.862,599.224 C322.383,598.545 301.123,617.292 300.394,641.058 C299.665,664.823 319.744,684.655 345.223,685.334 C396.179,686.693 422.721,649.218 424.178,601.687 C425.635,554.156 401.459,514.474 350.501,513.115 z M349.594,542.721 C341.628,542.509 334.982,548.363 334.754,555.794 C334.527,563.225 340.803,569.424 348.769,569.636 C356.735,569.849 363.381,563.994 363.61,556.564 C363.837,549.133 357.56,542.934 349.594,542.721 z M346.954,628.831 C354.916,629.043 361.196,635.247 360.969,642.673 C360.742,650.1 354.092,655.959 346.129,655.746 C338.167,655.534 331.887,649.33 332.114,641.904 C332.342,634.477 338.993,628.619 346.954,628.831 z M424.105,608.686 C422.649,656.182 394.191,686.584 343.272,685.226 C292.354,683.868 246.689,649.264 247.433,598.768 C255.808,534.272 295.482,515.87 348.545,513.228 C399.464,514.587 425.561,561.191 424.105,608.686 z"/>
 </g>
 <metadata>image/svg+xmlOpenclipartA cartoon person2013-09-30T09:50:04A cartoon person standing in three-quarters view.https://openclipart.org/detail/184026/a-cartoon-person-by-anarres-184026anarrescharactercomicperson</metadata>
</svg>