<?xml version="1.0" encoding="UTF-8"?>
<!DOCTYPE svg PUBLIC "-//W3C//DTD SVG 1.1//EN" "http://www.w3.org/Graphics/SVG/1.1/DTD/svg11.dtd">
<svg version="1.1" xmlns="http://www.w3.org/2000/svg" xmlns:xlink="http://www.w3.org/1999/xlink" x="0" y="0" width="564" height="660" viewBox="0, 0, 564, 660">
  <g id="Layer_1">
    <path d="M391.328,442.616 C391.328,442.616 349.164,430.896 323.94,423.068 C323.94,423.068 312.516,410.844 307.564,408.976 L259.736,406.144 C256.084,407.52 240.888,421.436 240.888,421.436 C215.416,429.58 171.76,442.616 171.76,442.616 L115.644,548.784 L172.892,522.284 L178.144,657.536 L384.812,657.536 L388.48,519.868 L443.144,547.868 L391.328,442.616" fill="#6AC7E5"/>
    <path d="M263.732,404.048 L262.72,415.832 L257.272,417.128 C257.272,417.128 253.228,426.284 254.712,433.808 C258.444,437.336 276.752,439.496 281.332,439.496 C287.624,439.496 308.44,430.436 308.44,430.436 L305.66,418.992 L299.664,414.476 L298.812,403.38" fill="#F8D2B5"/>
    <path d="M263.24,395.344 L299.328,395.344 L299.636,412.904 C299.636,412.904 290.4,433.64 254.384,430.096 L256.028,418.984 L262.088,416.108 L263.24,395.344" fill="#CF957E"/>
    <path d="M253.284,432.584 C253.284,432.584 282.82,449.476 308.424,430.436 L305.66,446.764 L280.844,480.968 L256.028,446.764 L253.284,432.584" fill="#FFF691"/>
    <path d="M61.3,380.132 C55.24,384.992 46.384,384.016 41.532,377.956 C36.676,371.9 37.66,363.044 43.72,358.188 C49.78,353.336 88.624,340.24 88.624,340.24 C88.624,340.24 67.36,375.28 61.3,380.132" fill="#FFFFFE"/>
    <path d="M61.3,380.132 C55.24,384.992 46.384,384.016 41.532,377.956 C36.676,371.9 37.66,363.044 43.72,358.188 C49.78,353.336 88.624,340.24 88.624,340.24 C88.624,340.24 67.36,375.28 61.3,380.132 z" fill-opacity="0" stroke="#1A1919" stroke-width="4.8" stroke-linecap="round" stroke-linejoin="round"/>
    <path d="M12.712,240.592 C5.224,238.52 0.836,230.768 2.916,223.288 C4.992,215.808 12.748,211.424 20.232,213.504 C27.708,215.576 61.052,239.424 61.052,239.424 C61.052,239.424 20.192,242.676 12.712,240.592" fill="#FFFFFE"/>
    <path d="M12.712,240.592 C5.224,238.52 0.836,230.768 2.916,223.288 C4.992,215.808 12.748,211.424 20.232,213.504 C27.708,215.576 61.052,239.424 61.052,239.424 C61.052,239.424 20.192,242.676 12.712,240.592 z" fill-opacity="0" stroke="#1A1919" stroke-width="4.8" stroke-linecap="round" stroke-linejoin="round"/>
    <path d="M501.432,380.132 C507.496,384.992 516.348,384.016 521.2,377.956 C526.056,371.9 525.076,363.044 519.012,358.188 C512.956,353.336 474.112,340.24 474.112,340.24 C474.112,340.24 495.376,375.28 501.432,380.132" fill="#FFFFFE"/>
    <path d="M501.432,380.132 C507.496,384.992 516.348,384.016 521.2,377.956 C526.056,371.9 525.076,363.044 519.012,358.188 C512.956,353.336 474.112,340.24 474.112,340.24 C474.112,340.24 495.376,375.28 501.432,380.132 z" fill-opacity="0" stroke="#1A1919" stroke-width="4.8" stroke-linecap="round" stroke-linejoin="round"/>
    <path d="M550.02,240.592 C557.508,238.52 561.896,230.768 559.824,223.288 C557.744,215.808 549.988,211.424 542.5,213.504 C535.024,215.576 501.68,239.424 501.68,239.424 C501.68,239.424 542.54,242.676 550.02,240.592" fill="#FFFFFE"/>
    <path d="M550.02,240.592 C557.508,238.52 561.896,230.768 559.824,223.288 C557.744,215.808 549.988,211.424 542.5,213.504 C535.024,215.576 501.68,239.424 501.68,239.424 C501.68,239.424 542.54,242.676 550.02,240.592 z" fill-opacity="0" stroke="#1A1919" stroke-width="4.8" stroke-linecap="round" stroke-linejoin="round"/>
    <path d="M321.524,421.64 C347.3,428.76 384.784,439.16 392.064,442.616 M240.16,421.64 C214.388,428.76 176.812,438.964 169.62,442.616 C159.4,447.808 146.404,461.144 139.068,478.808 M263.732,404.048 L262.02,421.64 M262.02,413.372 C262.02,413.372 253.248,416.064 253.248,431.548 C253.248,439.3 256.028,446.764 256.028,446.764 L227.028,484.428 C227.028,484.428 231.788,443.348 233.068,437.144 C235.276,426.416 244.328,417.088 246.916,414.872 C254.568,408.308 262.068,407.144 262.068,407.144 M297.956,404.048 L299.664,421.64 M299.664,413.372 C299.664,413.372 308.44,416.064 308.44,431.548 C308.44,439.3 305.66,446.764 305.66,446.764 L334.66,484.428 C334.66,484.428 329.9,443.348 328.62,437.144 C326.408,426.416 317.356,417.088 314.772,414.872 C307.12,408.308 299.62,407.144 299.62,407.144 M305.66,446.764 L280.844,480.968 L256.028,446.764 M253.284,432.584 C253.284,432.584 282.82,449.476 308.424,430.436" fill-opacity="0" stroke="#1A1919" stroke-width="5.6" stroke-linecap="round" stroke-linejoin="round"/>
    <path d="M257.464,446.96 C257.464,446.96 282.52,461.288 304.244,445.136" fill-opacity="0" stroke="#1A1919" stroke-width="4" stroke-linecap="round" stroke-linejoin="round"/>
    <path d="M121.732,242.628 C96.512,124.384 171.876,68.932 171.876,68.932 C153.788,70.944 137.712,56.376 137.712,56.376 C195.992,16.684 265.824,34.588 265.824,34.588 C258.792,26.88 254.772,6.132 254.772,6.132 C349.228,6.132 382.896,68.932 382.896,68.932 C382.896,68.932 452.728,69.94 468.304,157.368 L450.72,154.852 C450.72,154.852 459.908,190.736 444.908,242.116 L440.168,255.836 L129.784,261.344 L121.732,242.628" fill="#40332C"/>
    <path d="M128.196,247.216 C109.128,146.544 156.516,104.112 178.584,90.2 C184.908,86.208 184.372,83.74 182.004,83.104 C174.708,81.168 167.928,78.044 164.824,75.088 C146.72,92.456 101.336,146.992 121.732,242.628 L128.196,247.216" fill="#8B7165"/>
    <path d="M283.872,41.7 C280.208,32.904 270.308,17.152 270.308,17.152 C308.6,17.152 336.896,27.48 357.016,39.752 C337.004,23.348 304.228,6.132 254.772,6.132 C254.772,6.132 258.792,26.88 265.824,34.588 C265.824,34.588 195.992,16.684 137.712,56.376 C137.712,56.376 153.556,64.996 163.524,68.74 C207.7,33.56 260.456,44.152 280.844,48.776 C286.196,49.996 285.392,45.356 283.872,41.7" fill="#8B7165"/>
    <path d="M145.124,253.116 C145.124,253.116 137.004,238.064 121.732,242.628 C89.88,252.14 100.092,318.164 152.732,323.852" fill="#F8D2B5"/>
    <path d="M416.7,253.372 C416.7,253.372 424.824,238.312 440.092,242.876 C471.948,252.396 463.48,318.412 410.016,324.104" fill="#F8D2B5"/>
    <path d="M262.272,154.784 C252.492,166.356 242.196,184.384 242.196,184.384 C316.552,184.888 352.228,134.644 352.228,134.644 C352.228,134.644 358.76,170.152 388.9,194.772 L392.92,178.692 C392.92,178.692 412.012,197.788 415.392,238.908 C416.66,264.408 415.66,305.148 404.104,338.196 C382.504,400.024 313.564,414.036 280.844,414.036 C248.124,414.036 179.184,400.024 157.584,338.196 C145.376,303.26 144.96,259.74 146.536,234.7 C153.764,172.164 208.028,155.748 208.028,155.748 L190.948,181.376 C217.576,179.868 260.78,155.248 260.78,155.248 L262.272,154.784" fill="#F8D2B5"/>
    <path d="M379.076,299.752 C379.076,305.724 333.684,310.568 277.68,310.568 C221.692,310.568 176.288,305.724 176.288,299.752 C176.288,293.78 221.692,288.932 277.68,288.932 C333.684,288.932 379.076,293.78 379.076,299.752" fill="#EC9896"/>
    <path d="M148.876,303.028 L146.528,278.736 C146.528,278.736 139.924,263.672 129.784,261.344 C116.724,258.344 116.452,278.468 125.424,289.832 C139.156,307.228 148.876,303.028 148.876,303.028" fill="#CF957E"/>
    <path d="M414.824,303.028 L417.168,278.736 C417.168,278.736 423.776,263.672 433.916,261.344 C446.98,258.344 447.244,278.468 438.272,289.832 C424.54,307.228 414.824,303.028 414.824,303.028" fill="#CF957E"/>
    <path d="M140.908,121.172 C195.284,133.504 226.036,130.036 245.492,125.716 C258.568,122.824 251.2,118.908 245.088,118.428 C182.212,113.484 161.716,92.352 161.716,92.352 L140.908,121.172" fill="#8B7165"/>
    <path d="M239.308,202.296 C228.62,216.356 198.792,213.788 190.628,197.928 M322.88,202.296 C333.572,216.356 363.396,213.788 371.564,197.928 M145.124,253.116 C145.124,253.116 137.004,238.064 121.732,242.628 C89.88,252.14 100.092,318.164 152.732,323.852 M123.056,260.172 C123.056,260.172 133.56,253.324 146.444,280.248 M416.7,253.372 C416.7,253.372 424.824,238.312 440.092,242.876 C471.948,252.396 463.48,318.412 410.016,324.104 M439.22,260.68 C439.22,260.68 428.72,253.828 415.828,280.756 M280.844,309.828 L280.844,302.14 M269.324,147.708 C258.272,156.252 242.196,184.384 242.196,184.384 C316.552,184.888 352.228,134.644 352.228,134.644 C352.228,134.644 358.76,170.152 388.9,194.772 L392.92,178.692 C392.92,178.692 412.012,197.788 415.392,238.908 C416.66,264.408 415.66,305.148 404.104,338.196 C382.504,400.024 313.564,414.036 280.844,414.036 C248.124,414.036 179.184,400.024 157.584,338.196 C145.376,303.26 144.96,259.74 146.536,234.7 C153.764,172.164 208.028,155.748 208.028,155.748 L190.948,181.376 C217.576,179.868 260.78,155.248 260.78,155.248 M121.732,242.628 C96.512,124.384 171.876,68.932 171.876,68.932 C153.788,70.944 137.712,56.376 137.712,56.376 C195.992,16.684 265.824,34.588 265.824,34.588 C258.792,26.88 254.772,6.132 254.772,6.132 C349.228,6.132 382.896,68.932 382.896,68.932 C382.896,68.932 452.728,69.94 468.304,157.368 L450.72,154.852 C450.72,154.852 459.908,190.736 444.908,242.116" fill-opacity="0" stroke="#1A1919" stroke-width="5.6" stroke-linecap="round" stroke-linejoin="round"/>
    <path d="M201.164,248.652 L260.568,277.988 L195.296,284.584 M359.548,248.652 L300.152,277.988 L365.416,284.584" fill-opacity="0" stroke="#1A1919" stroke-width="6.4" stroke-linecap="round" stroke-linejoin="round"/>
    <path d="M210.324,353.808 C226.244,342.248 251.46,353.504 276.864,353.024 C302.968,352.528 332.776,344.528 347.988,355.612 C373.436,374.168 346.824,399.904 326.068,392.152 C301.064,382.824 268.696,378.916 237.452,391.768 C210.816,402.724 189.164,369.168 210.324,353.808" fill="#E46E84"/>
    <path d="M210.324,353.808 C226.244,342.248 251.46,353.504 276.864,353.024 C302.968,352.528 332.776,344.528 347.988,355.612 C373.436,374.168 346.824,399.904 326.068,392.152 C301.064,382.824 268.696,378.916 237.452,391.768 C210.816,402.724 189.164,369.168 210.324,353.808 z" fill-opacity="0" stroke="#1A1919" stroke-width="4.8"/>
    <path d="M171.892,521.284 C171.892,521.284 123.904,546.1 115.24,547.432" fill-opacity="0" stroke="#1A1919" stroke-width="5.6" stroke-linecap="round" stroke-linejoin="round"/>
    <g>
      <path d="M287.76,512.524 C287.672,516.576 284.32,519.788 280.272,519.708 C276.22,519.62 273,516.268 273.084,512.22 C273.176,508.176 276.528,504.956 280.58,505.044 C284.624,505.124 287.836,508.468 287.76,512.524 z M286.304,558.976 C286.208,563.024 282.868,566.248 278.812,566.16 C274.764,566.076 271.548,562.716 271.636,558.676 C271.72,554.624 275.072,551.416 279.12,551.5 C283.172,551.576 286.388,554.924 286.304,558.976 z M287.94,605.388 C287.852,609.444 284.508,612.652 280.464,612.58 C276.408,612.496 273.192,609.14 273.28,605.084 C273.36,601.044 276.716,597.832 280.764,597.912 C284.812,597.996 288.02,601.352 287.94,605.388 z" fill-opacity="0" stroke="#1A1919" stroke-width="4"/>
      <path d="M171.812,509.208 C171.676,509.264 178.476,657.2 178.476,657.2 M388.476,509.208 C388.608,509.264 383.812,657.2 383.812,657.2" fill-opacity="0" stroke="#1A1919" stroke-width="5.6" stroke-linecap="round" stroke-linejoin="round"/>
    </g>
    <path d="M142.34,399.092 C142.34,399.092 128.008,396.808 125.752,400.92 C123.484,405.044 85.244,497.26 85.312,509.424 C85.432,533.14 98.488,545.824 109.644,547.536 C124.348,549.796 137.188,537.716 142.144,526.58 C147.068,515.472 175.056,441.228 176.836,435.78 C178.612,430.324 173.408,423.652 173.408,423.652 L142.34,399.092" fill="#6AC7E5"/>
    <path d="M142.34,399.092 C142.34,399.092 128.008,396.808 125.752,400.92 C123.484,405.044 85.244,497.26 85.312,509.424 C85.432,533.14 98.488,545.824 109.644,547.536 C124.348,549.796 137.188,537.716 142.144,526.58 C147.068,515.472 175.056,441.228 176.836,435.78 C178.612,430.324 173.408,423.652 173.408,423.652 L142.34,399.092 z" fill-opacity="0" stroke="#1A1919" stroke-width="5.6" stroke-linecap="round" stroke-linejoin="round"/>
    <path d="M115.816,422.604 C115.816,422.604 123.264,460.196 167.4,459.424" fill-opacity="0" stroke="#1A1919" stroke-width="4" stroke-linecap="round" stroke-linejoin="round"/>
    <path d="M134.412,403.6 L139.904,387.276 C139.904,387.276 142.364,362.072 153.852,335.416 C162.156,316.088 196.78,312.464 212.184,331.192 C216.704,336.688 234.444,372.432 225.1,389.276 C214.332,408.692 204.872,404.08 195.364,399.82 C195.364,399.82 193.016,417.116 173.192,419.216 L167.976,434.604 C167.976,434.604 144.516,430.784 134.412,403.6" fill="#F8D2B5"/>
    <path d="M134.412,403.6 L139.904,387.276 C139.904,387.276 142.364,362.072 153.852,335.416 C162.156,316.088 196.78,312.464 212.184,331.192 C216.704,336.688 234.444,372.432 225.1,389.276 C214.332,408.692 204.872,404.08 195.364,399.82 C195.364,399.82 193.016,417.116 173.192,419.216 L167.976,434.604 C167.976,434.604 144.516,430.784 134.412,403.6 z" fill-opacity="0" stroke="#1A1919" stroke-width="5.6" stroke-linecap="round" stroke-linejoin="round"/>
    <path d="M227.112,373.94 C227.112,373.94 213.172,362.732 197.724,361.112 M224.104,359.888 C224.104,359.888 210.568,348.56 194.912,348.508 M219.24,345.388 C219.24,345.388 205.508,335.128 188.304,334.872 M195.024,400.524 C195.244,400.488 198.964,387.844 199.48,379.32 C199.48,379.32 205.368,383.944 213.168,386.796" fill-opacity="0" stroke="#1A1919" stroke-width="4.8" stroke-linecap="round" stroke-linejoin="round"/>
    <path d="M388.144,521.284 C388.144,521.284 436.132,546.1 444.796,547.432" fill-opacity="0" stroke="#1A1919" stroke-width="5.6" stroke-linecap="round" stroke-linejoin="round"/>
    <path d="M417.692,399.092 C417.692,399.092 432.028,396.808 434.28,400.92 C436.552,405.044 474.792,497.26 474.724,509.424 C474.604,533.14 461.548,545.824 450.392,547.536 C435.684,549.796 422.844,537.716 417.892,526.58 C412.968,515.472 384.98,441.228 383.196,435.78 C381.424,430.324 386.628,423.652 386.628,423.652 L417.692,399.092" fill="#6AC7E5"/>
    <path d="M417.692,399.092 C417.692,399.092 432.028,396.808 434.28,400.92 C436.552,405.044 474.792,497.26 474.724,509.424 C474.604,533.14 461.548,545.824 450.392,547.536 C435.684,549.796 422.844,537.716 417.892,526.58 C412.968,515.472 384.98,441.228 383.196,435.78 C381.424,430.324 386.628,423.652 386.628,423.652 L417.692,399.092 z" fill-opacity="0" stroke="#1A1919" stroke-width="5.6" stroke-linecap="round" stroke-linejoin="round"/>
    <path d="M444.216,422.604 C444.216,422.604 436.772,460.196 392.64,459.424" fill-opacity="0" stroke="#1A1919" stroke-width="4" stroke-linecap="round" stroke-linejoin="round"/>
    <path d="M425.624,403.6 L420.132,387.276 C420.132,387.276 417.668,362.072 406.184,335.416 C397.88,316.088 363.252,312.464 347.852,331.192 C343.328,336.688 325.588,372.432 334.932,389.276 C345.704,408.692 355.164,404.08 364.676,399.82 C364.676,399.82 367.016,417.116 386.844,419.216 L392.06,434.604 C392.06,434.604 415.52,430.784 425.624,403.6" fill="#F8D2B5"/>
    <path d="M425.624,403.6 L420.132,387.276 C420.132,387.276 417.668,362.072 406.184,335.416 C397.88,316.088 363.252,312.464 347.852,331.192 C343.328,336.688 325.588,372.432 334.932,389.276 C345.704,408.692 355.164,404.08 364.676,399.82 C364.676,399.82 367.016,417.116 386.844,419.216 L392.06,434.604 C392.06,434.604 415.52,430.784 425.624,403.6 z" fill-opacity="0" stroke="#1A1919" stroke-width="5.6" stroke-linecap="round" stroke-linejoin="round"/>
    <path d="M332.924,373.94 C332.924,373.94 346.86,362.732 362.316,361.112 M335.932,359.888 C335.932,359.888 349.472,348.56 365.128,348.508 M340.792,345.388 C340.792,345.388 354.524,335.128 371.728,334.872 M365.008,400.524 C364.792,400.488 361.072,387.844 360.556,379.32 C360.556,379.32 354.664,383.944 346.868,386.796" fill-opacity="0" stroke="#1A1919" stroke-width="4.8" stroke-linecap="round" stroke-linejoin="round"/>
  </g>
</svg>
