<?xml version="1.0" encoding="UTF-8" standalone="no"?>
<!-- Created with Inkscape (http://www.inkscape.org/) -->

<svg
   xmlns:dc="http://purl.org/dc/elements/1.1/"
   xmlns:cc="http://creativecommons.org/ns#"
   xmlns:rdf="http://www.w3.org/1999/02/22-rdf-syntax-ns#"
   xmlns:svg="http://www.w3.org/2000/svg"
   xmlns="http://www.w3.org/2000/svg"
   xmlns:sodipodi="http://sodipodi.sourceforge.net/DTD/sodipodi-0.dtd"
   xmlns:inkscape="http://www.inkscape.org/namespaces/inkscape"
   width="23.756508mm"
   height="33.843426mm"
   viewBox="0 0 84.176602 119.91764"
   id="svg5223"
   version="1.1"
   inkscape:version="0.91 r13725"
   sodipodi:docname="mix-and-match-characters11.svg">
  <defs
     id="defs5225" />
  <sodipodi:namedview
     id="base"
     pagecolor="#ffffff"
     bordercolor="#666666"
     borderopacity="1.0"
     inkscape:pageopacity="0.0"
     inkscape:pageshadow="2"
     inkscape:zoom="0.98994949"
     inkscape:cx="51.162333"
     inkscape:cy="68.920794"
     inkscape:document-units="px"
     inkscape:current-layer="layer1"
     showgrid="false"
     fit-margin-top="0"
     fit-margin-left="0"
     fit-margin-right="0"
     fit-margin-bottom="0"
     inkscape:window-width="1615"
     inkscape:window-height="1026"
     inkscape:window-x="1985"
     inkscape:window-y="24"
     inkscape:window-maximized="1" />
  <metadata
     id="metadata5228">
    <rdf:RDF>
      <cc:Work
         rdf:about="">
        <dc:format>image/svg+xml</dc:format>
        <dc:type
           rdf:resource="http://purl.org/dc/dcmitype/StillImage" />
        <dc:title></dc:title>
      </cc:Work>
    </rdf:RDF>
  </metadata>
  <g
     inkscape:label="Layer 1"
     inkscape:groupmode="layer"
     id="layer1"
     transform="translate(-219.16694,-419.1424)">
    <g
       transform="translate(-1.8666025,111.52404)"
       id="g5704">
      <rect
         id="rect3449-5-5"
         rx="5.6687002"
         ry="4.6244998"
         transform="matrix(0.90081952,0.43419372,-0.43419372,0.90081952,0,0)"
         width="12.829"
         y="253.3174"
         x="371.65244"
         height="9.5473003"
         style="fill:#e4d3b1;fill-rule:evenodd;stroke:#060000;stroke-width:1.34259999;stroke-linecap:round;stroke-linejoin:round" />
      <rect
         id="rect3449-0-4-2"
         rx="5.6687183"
         ry="4.6245146"
         transform="matrix(-0.90081716,0.43419863,0.43419863,0.90081716,0,0)"
         width="12.829041"
         y="481.65955"
         x="-103.10474"
         height="9.5473309"
         style="fill:#e4d3b1;fill-rule:evenodd;stroke:#060000;stroke-width:1.34259999;stroke-linecap:round;stroke-linejoin:round" />
      <rect
         id="rect3252-4-6-2-2-1-2-9"
         rx="5.9832945"
         ry="17.522984"
         transform="matrix(-0.89930089,-0.43733043,-0.43733043,0.89930089,0,0)"
         width="24.502975"
         y="217.30296"
         x="-391.87204"
         height="39.318962"
         style="fill:#4297ba;fill-rule:evenodd;stroke:#000000;stroke-width:1.56710005;stroke-linecap:round;stroke-linejoin:round" />
      <rect
         id="rect3252-6-7-2-7-1-6-3-1-9"
         rx="26.469999"
         ry="9.1274109"
         transform="matrix(1,-7.4216e-5,0.0014835,0.9999989,0,0)"
         width="53.866001"
         y="391.02036"
         x="236.87354"
         height="33.167038"
         style="fill:#8c8a93;fill-rule:evenodd;stroke:#000000;stroke-width:1.79009998;stroke-linecap:round;stroke-linejoin:round" />
      <path
         id="path3928-9-81-8-0-49-3-2-3"
         d="m 264.3117,422.8 -0.25902,-10.194"
         inkscape:connector-curvature="0"
         style="fill:#ffffff;stroke:#000000;stroke-width:1.13510001;stroke-linecap:round;stroke-linejoin:round" />
      <path
         id="path4010-7-1-8-9-8-8-6-6"
         d="m 266.8917,425.1 c 0,0 0.20132,-8.0788 9.1546,-8.5177 12.044,-0.59046 13.607,7.2787 13.607,7.2787 1.0737,2.3465 -22.857,4.5427 -22.761,1.239 z"
         inkscape:connector-curvature="0"
         style="fill:#404040;stroke:#000000;stroke-width:1.51139998" />
      <path
         id="path4010-1-9-1-1-1-9-9-3-9"
         d="m 261.7017,425.11 c 0,0 -0.20295,-7.7114 -9.2297,-8.1304 -12.143,-0.56362 -13.718,6.9476 -13.718,6.9476 -1.0826,2.2398 23.044,4.336 22.948,1.1827 z"
         inkscape:connector-curvature="0"
         style="fill:#404040;stroke:#000000;stroke-width:1.51139998" />
      <rect
         id="rect3252-71-0-6-4-3-2"
         rx="5.9833002"
         ry="17.523001"
         transform="matrix(0.89929842,-0.43733552,0.43733552,0.89929842,0,0)"
         width="24.503"
         y="446.26483"
         x="79.603828"
         height="39.319"
         style="fill:#4297ba;fill-rule:evenodd;stroke:#000000;stroke-width:1.56710005;stroke-linecap:round;stroke-linejoin:round" />
      <path
         id="path3932-5-3-8-0-8-51-1-3-5"
         d="m 263.5917,348.65 c -0.0995,0 -0.19907,0.009 -0.29828,0.009 -0.0564,0 -0.1128,0 -0.16918,-0.009 -0.0869,0 -0.17556,-9e-5 -0.26265,0 l 0,0.0224 c -6.6554,0.37736 -12.821,4.515 -16.953,9.7383 -8.8562,11.122 -12.234,25.77 -12.532,39.826 0.23268,3.6052 -0.44717,7.9329 1.0195,11.059 5.3293,3.3864 14.727,3.9533 21.133,4.7447 1.7001,0.0788 4.4004,0.10066 7.3322,0.1176 l 0,0.009 0.90373,0 c 0.0299,-9e-5 0.0592,1.9e-4 0.0891,0 2.9318,-0.0169 5.6321,-0.0385 7.3322,-0.1176 6.4062,-0.7914 15.804,-1.3582 21.133,-4.7447 1.4667,-3.1262 0.78681,-7.4539 1.0195,-11.059 -0.29815,-14.056 -3.6757,-28.704 -12.532,-39.826 -4.1318,-5.2235 -10.297,-9.361 -16.953,-9.7382 l 0,-0.0313 c -0.0871,-10e-5 -0.17571,0 -0.26265,0 z"
         inkscape:connector-curvature="0"
         style="fill:#82bbd3;fill-rule:evenodd;stroke:#000000;stroke-width:1.88510001;stroke-linecap:round;stroke-linejoin:round" />
      <rect
         id="rect4240-8-9-5-1"
         rx="29.983999"
         ry="25.957001"
         height="53.703999"
         width="62.653999"
         y="312.05997"
         x="231.5717"
         style="fill:#e4d3b1;fill-rule:evenodd;stroke:#000000;stroke-width:1.79009998;stroke-linecap:round;stroke-linejoin:bevel" />
      <path
         id="path3831-2-0-3-22-6-5-9"
         d="m 259.6717,352.8 5.8232,0"
         inkscape:connector-curvature="0"
         style="fill:#ffffff;stroke:#000000;stroke-width:1.54719996;stroke-linecap:round;stroke-linejoin:round" />
      <g
         id="g456-8-2-1-4-8-5"
         transform="matrix(0.58495,0,0,-0.58495,253.4817,341.92)">
        <path
           id="path458-3-6-8-8-1-7"
           d="m 0,0 c 0,-2.958 -2.396,-5.355 -5.355,-5.355 -2.958,0 -5.356,2.397 -5.356,5.355 0,2.957 2.398,5.356 5.356,5.356 C -2.396,5.356 0,2.957 0,0"
           inkscape:connector-curvature="0" />
      </g>
      <g
         id="g456-1-7-8-0-9-5"
         transform="matrix(0.58495,0,0,-0.58495,278.5417,341.47)">
        <path
           id="path458-9-9-9-1-08-5"
           d="m 0,0 c 0,-2.958 -2.396,-5.355 -5.355,-5.355 -2.958,0 -5.356,2.397 -5.356,5.355 0,2.957 2.398,5.356 5.356,5.356 C -2.396,5.356 0,2.957 0,0"
           inkscape:connector-curvature="0" />
      </g>
      <path
         id="rect4240-2-5-0"
         d="m 260.8417,308.5 c -17.555,0 -31.712,12.046 -32.177,27.142 1.5765,-0.20371 3.1925,-0.34137 4.8366,-0.34137 l 62.42,0 c -0.6644,-14.937 -14.754,-26.8 -32.177,-26.8 l -2.9019,0 z"
         inkscape:connector-curvature="0"
         style="fill:#d2c87c;fill-rule:evenodd;stroke:#000002;stroke-width:1.76329994;stroke-linecap:round;stroke-linejoin:bevel" />
      <path
         id="path3930-6-5-5-8"
         d="m 271.4685,389.48334 c -1.25429,1.61576 -4.18167,-1.59304 -6.21829,-0.97096 -2.03664,0.62205 -2.34476,4.81903 -4.38596,4.20977 -2.0412,-0.60922 0.33814,-4.18801 -0.92787,-5.79589 -1.26599,-1.60775 -5.65648,-0.58323 -5.66382,-2.57549 -0.007,-1.99228 4.39063,-0.99531 5.64492,-2.61106 1.25429,-1.61575 -1.15111,-5.17947 0.88555,-5.80155 2.03663,-0.62205 2.37541,3.57295 4.41655,4.18208 2.0412,0.60922 4.9451,-2.6179 6.21114,-1.01011 1.26599,1.60775 -2.92247,3.20351 -2.9153,5.19568 0.007,1.99228 4.20734,3.5615 2.95308,5.17726 z"
         inkscape:connector-curvature="0"
         style="fill:#e5c964;fill-rule:evenodd;stroke:#66665b;stroke-width:0.41081569;stroke-linecap:round;stroke-linejoin:round;stroke-dasharray:0.41081568, 0.82163137" />
    </g>
  </g>
</svg>
