<svg id="Publicdomainvectors.org" xmlns="http://www.w3.org/2000/svg" viewBox="0 0 600 600"><defs><style>.cls-1,.cls-9{fill:#a9dcd7;}.cls-2,.cls-8{fill:#ceeae0;}.cls-10,.cls-11,.cls-12,.cls-13,.cls-14,.cls-15,.cls-16,.cls-2,.cls-4,.cls-5,.cls-6,.cls-7,.cls-9{fill-rule:evenodd;}.cls-14,.cls-3{fill:#82983b;}.cls-4{fill:#cfdf61;}.cls-5{fill:#a7bf39;}.cls-6{fill:#58672e;}.cls-7{fill:#687c35;}.cls-10{fill:#679096;}.cls-11{fill:#4c7379;}.cls-12{fill:#90babf;}.cls-13{fill:#fff;}.cls-15{fill:#9bb43b;}.cls-16{fill:#b7cc3b;}</style></defs><title>mountain-landscape</title><rect class="cls-1" y="0.01" width="599.99" height="599.99"/><path class="cls-2" d="M600,135V236.76a35.11,35.11,0,0,1-26.48-1.18,29.13,29.13,0,0,1-23.22,14.88A37.69,37.69,0,0,1,484,249.31a31.08,31.08,0,1,1,1.08-36.66,37.76,37.76,0,0,1,41.17-17.35,29.39,29.39,0,0,1,15.48-40A34.5,34.5,0,0,1,600,135ZM0,269.77v-114a39.18,39.18,0,0,1,59.77,41.74A33.52,33.52,0,0,1,112.49,221,28.9,28.9,0,0,1,143,217.75a38.17,38.17,0,1,1,14.36,36.07A28.88,28.88,0,0,1,102,249.4a33.52,33.52,0,0,1-47.36-1.69A37,37,0,0,1,0,269.77ZM293.07,209a21.71,21.71,0,0,1,6.17.89c0-.63-.05-1.26-.05-1.9a32.27,32.27,0,0,1,64.54-.64,19.33,19.33,0,1,1-6.6,20.2,32.27,32.27,0,0,1-42.77,7.82A21.78,21.78,0,1,1,293.07,209Z"/><rect class="cls-3" y="354.79" width="599.99" height="245.21"/><polygon class="cls-4" points="599.99 402.76 0 371.44 0 354.8 599.99 354.8 599.99 402.76"/><polygon class="cls-5" points="599.99 477.4 1.48 371.51 599.99 402.76 599.99 477.4"/><polygon class="cls-6" points="0 497.23 599.99 454.64 599.99 600 0 600 0 497.23"/><path class="cls-7" d="M600,489.75V600H421.35L356,497.46,550.75,474,600,489.75ZM282.64,600H81.45L78,535.64l172.28-23.5Z"/><rect class="cls-8" y="227.55" width="599.99" height="127.25"/><polygon class="cls-9" points="477.59 273.83 238.79 268.85 0 263.88 0 273.83 0 283.79 238.79 278.81 477.59 273.83"/><polygon class="cls-10" points="0 307.81 38.57 271.6 92.41 279.43 159.94 320.54 216.72 292.15 290.13 314.66 357.67 297.04 424.23 320.54 521.13 256.91 599.99 273.55 599.99 354.8 0 354.8 0 307.81"/><polygon class="cls-11" points="0 343.28 38.57 334.41 92.41 336.33 159.94 346.4 216.72 339.45 290.13 344.96 357.67 340.64 424.23 346.4 521.13 330.81 599.99 334.89 599.99 354.8 0 354.8 0 343.28"/><polygon class="cls-12" points="0 307.81 31.97 287.75 52.52 318.58 52.52 280.4 87.27 285.3 159.94 320.54 92.41 279.43 38.57 271.6 0 307.81"/><polygon class="cls-12" points="159.94 320.54 218.19 303.16 288.18 331.55 359.39 307.32 424.23 320.54 357.67 297.04 290.13 314.66 216.72 292.15 159.94 320.54"/><polygon class="cls-12" points="424.23 320.54 520.4 276.98 561.02 321.76 545.85 275.51 599.99 286.52 599.99 273.55 521.13 256.91 424.23 320.54"/><path class="cls-13" d="M334.67,81a22.27,22.27,0,0,1,22.27,22.26,22.64,22.64,0,0,1-.5,4.7l36.41,8.15H192.79l43.46-9.73a18.84,18.84,0,0,1,18.64-16.08,18.63,18.63,0,0,1,2.91.22A31.33,31.33,0,0,1,319.41,87,22.18,22.18,0,0,1,334.67,81Z"/><path class="cls-13" d="M437.6,219.15a13.49,13.49,0,0,1,13.49,13.5,13.35,13.35,0,0,1-.3,2.84l22.07,4.94H351.62L378,234.54A11.47,11.47,0,0,1,391,224.92a19,19,0,0,1,37.33-2.1A13.46,13.46,0,0,1,437.6,219.15Z"/><path class="cls-13" d="M144.29,201.15a13.5,13.5,0,0,1,13.5,13.5,14,14,0,0,1-.3,2.84l22.06,4.94H58.32l26.33-5.89A11.42,11.42,0,0,1,96,206.79a12.68,12.68,0,0,1,1.76.13,19,19,0,0,1,37.34-2.1A13.44,13.44,0,0,1,144.29,201.15Z"/><polygon class="cls-2" points="126.91 158.65 363.45 153.67 599.99 148.69 599.99 158.65 599.99 168.61 363.45 163.63 126.91 158.65"/><polygon class="cls-2" points="519.73 84.26 259.86 79.28 0 74.3 0 84.26 0 94.22 259.86 89.24 519.73 84.26"/><polygon class="cls-4" points="599.99 426.25 362.57 406.67 599.99 440.08 599.99 426.25"/><path class="cls-5" d="M559.07,403.74l27.41-8.32-21.05,1.95,6.61-8.8-17.62,7.58,1-13-8.32,12.24-7.83-6.61L545.37,405h1l12.73-1.22ZM265.42,387.59l4.4-7.1-5.62,2-13.46-9.79,6.36,9L240.46,379l18.6,9.3,6.36-.73Zm154.66,10.27,9.29-14.19-9.79,4.9-5.87-14.93-1.47,14.93-16.88-5.88L412,397.37l8.08.49Zm66.8,2.94-14.19-14.93L483,390l6.61-9.54Z"/><path class="cls-14" d="M76.5,389.79l-5.62-22.51,9.05,14.43,11.26-15.66-1,15.42,25.69-.73L89.47,391.5l-13-1.71Zm339.9,60.93-24.71-32.79,24,14.68,17.13-32.05-8.32,36.7,16.88-8.81-25,22.27ZM293.32,427l-22-24.48,19.58,10,14.92-35.24-1,40.38L317.3,400.8v20.07l20.31-30.1-10,32.55,11.74-1-32.54,12.24L293.32,427Zm-99.85-15.67-6.85-24,8.57,12-.25-27.65,9.79,27.16,6.36-9-1.22,12.48,11.26-13-10,25.94Z"/><polygon class="cls-15" points="0 391.75 202.77 429.44 138.66 439.22 0 421.6 0 391.75"/><polygon class="cls-6" points="39.06 500.64 30.25 458.06 43.47 476.17 51.79 433.11 60.11 474.21 71.37 455.13 77.73 483.02 87.52 465.9 80.67 508.47 39.06 500.64"/><polygon class="cls-6" points="252.94 486.94 215.74 458.55 250.25 467.61 239.24 423.56 253.92 442.89 253.92 441.91 251.47 406.19 266.64 457.33 284.75 440.45 273.01 484.25 252.94 486.94"/><polygon class="cls-6" points="539.49 464.92 551 425.52 537.78 439.71 534.11 409.61 528.73 425.52 517.47 406.43 520.41 441.67 504.01 427.48 524.08 470.54 539.49 464.92"/><polygon class="cls-14" points="599.99 512.88 194.7 579.44 599.99 544.88 599.99 512.88"/><polygon class="cls-16" points="599.99 365.81 202.28 365.81 599.99 373.15 599.99 365.81"/></svg>