<?xml version="1.0" encoding="UTF-8" standalone="no"?>
<!-- Created with Inkscape (http://www.inkscape.org/) -->

<svg
   xmlns:dc="http://purl.org/dc/elements/1.1/"
   xmlns:cc="http://creativecommons.org/ns#"
   xmlns:rdf="http://www.w3.org/1999/02/22-rdf-syntax-ns#"
   xmlns:svg="http://www.w3.org/2000/svg"
   xmlns="http://www.w3.org/2000/svg"
   xmlns:sodipodi="http://sodipodi.sourceforge.net/DTD/sodipodi-0.dtd"
   xmlns:inkscape="http://www.inkscape.org/namespaces/inkscape"
   version="1.1"
   id="svg4518"
   xml:space="preserve"
   width="800"
   height="800"
   viewBox="0 0 800 800"
   sodipodi:docname="coconut-clip-art.svg"
   inkscape:version="0.92.4 (5da689c313, 2019-01-14)"><metadata
     id="metadata4524"><rdf:RDF><cc:Work
         rdf:about=""><dc:format>image/svg+xml</dc:format><dc:type
           rdf:resource="http://purl.org/dc/dcmitype/StillImage" /><dc:title></dc:title></cc:Work></rdf:RDF></metadata><defs
     id="defs4522"><clipPath
       clipPathUnits="userSpaceOnUse"
       id="clipPath4534"><path
         d="M 0,600 H 600 V 0 H 0 Z"
         id="path4532"
         inkscape:connector-curvature="0" /></clipPath><clipPath
       clipPathUnits="userSpaceOnUse"
       id="clipPath4542"><path
         d="m 282.903,208.628 c 0,-11.529 49.631,-20.876 110.854,-20.876 61.224,0 110.854,9.347 110.854,20.876 0,11.527 -49.63,20.874 -110.854,20.874 -61.223,0 -110.854,-9.347 -110.854,-20.874"
         id="path4540"
         inkscape:connector-curvature="0" /></clipPath><linearGradient
       x1="0"
       y1="0"
       x2="1"
       y2="0"
       gradientUnits="userSpaceOnUse"
       gradientTransform="matrix(221.71069,0,0,221.71069,282.58398,208.12012)"
       spreadMethod="pad"
       id="linearGradient4562"><stop
         style="stop-opacity:1;stop-color:#231f20"
         offset="0"
         id="stop4556" /><stop
         style="stop-opacity:1;stop-color:#231f20"
         offset="0.26299343"
         id="stop4558" /><stop
         style="stop-opacity:1;stop-color:#ffffff"
         offset="1"
         id="stop4560" /></linearGradient><clipPath
       clipPathUnits="userSpaceOnUse"
       id="clipPath4608"><path
         d="m 301.352,424.359 c -8.28,-1.615 -25.745,-6.004 -27.615,-17.104 -1.871,-11.101 -11.03,-25.598 4.911,-38.331 15.942,-12.733 25.303,-25.716 32.659,-43.456 7.356,-17.745 35.74,-13.776 57.987,-22.937 22.248,-9.159 74.326,-35.316 89.472,-7.88 15.146,27.437 -2.37,21.622 -6.621,35.792 -4.252,14.172 -16.126,49.167 -28.935,53.444 -12.806,4.276 -52.83,21.967 -69.926,35.217 -8.49,6.581 -18.156,8.545 -27.323,8.545 -9.29,10e-4 -18.07,-2.016 -24.609,-3.29"
         id="path4606"
         inkscape:connector-curvature="0" /></clipPath><clipPath
       clipPathUnits="userSpaceOnUse"
       id="clipPath4626"><path
         d="M 262.42382,427.25825 H 473.59004 V 266.90846 H 262.42382 Z"
         id="path4624"
         inkscape:connector-curvature="0" /></clipPath><linearGradient
       x1="0"
       y1="0"
       x2="1"
       y2="0"
       gradientUnits="userSpaceOnUse"
       gradientTransform="matrix(195.39769,0,0,-195.39769,269.10245,354.74734)"
       spreadMethod="pad"
       id="linearGradient4632"><stop
         style="stop-opacity:1;stop-color:#cccccc"
         offset="0"
         id="stop4628" /><stop
         style="stop-opacity:1;stop-color:#ffffff"
         offset="1"
         id="stop4630" /></linearGradient><clipPath
       clipPathUnits="userSpaceOnUse"
       id="clipPath4642"><path
         d="m 348.036,397.139 c 5.517,1.623 13.632,16.877 12.992,17.362 -0.638,0.489 -9.583,6.655 -12.992,6.655 -3.408,0 -3.649,-25.09 0,-24.017"
         id="path4640"
         inkscape:connector-curvature="0" /></clipPath><clipPath
       clipPathUnits="userSpaceOnUse"
       id="clipPath4660"><path
         d="m 344.61018,421.37924 h 17.28064 v -25.09062 h -17.28064 z"
         id="path4658"
         inkscape:connector-curvature="0" /></clipPath><linearGradient
       x1="0"
       y1="0"
       x2="1"
       y2="0"
       gradientUnits="userSpaceOnUse"
       gradientTransform="matrix(15.675003,0,0,-15.675003,345.61139,409.35391)"
       spreadMethod="pad"
       id="linearGradient4666"><stop
         style="stop-opacity:1;stop-color:#999999"
         offset="0"
         id="stop4662" /><stop
         style="stop-opacity:1;stop-color:#cccccc"
         offset="1"
         id="stop4664" /></linearGradient><clipPath
       clipPathUnits="userSpaceOnUse"
       id="clipPath4678"><path
         d="m 278.648,410.12 c 0,0 19.568,-7.083 24.626,-8.599 1.705,-0.51 -9.522,16.882 -15.768,17.2 -0.11,0.007 -0.219,0.009 -0.327,0.009 -6.013,0 -8.531,-8.61 -8.531,-8.61"
         id="path4676"
         inkscape:connector-curvature="0" /></clipPath><clipPath
       clipPathUnits="userSpaceOnUse"
       id="clipPath4696"><path
         d="m 278.62793,418.67645 h 26.3303 V 400.9571 h -26.3303 z"
         id="path4694"
         inkscape:connector-curvature="0" /></clipPath><linearGradient
       x1="0"
       y1="0"
       x2="1"
       y2="0"
       gradientUnits="userSpaceOnUse"
       gradientTransform="matrix(24.799896,0,0,-24.799896,278.62793,410.06635)"
       spreadMethod="pad"
       id="linearGradient4702"><stop
         style="stop-opacity:1;stop-color:#999999"
         offset="0"
         id="stop4698" /><stop
         style="stop-opacity:1;stop-color:#cccccc"
         offset="1"
         id="stop4700" /></linearGradient><clipPath
       clipPathUnits="userSpaceOnUse"
       id="clipPath4716"><path
         d="m 390.551,373.934 c -2.593,-3.788 35.215,7.154 35.215,7.154 0,0 -11.035,1.933 -15.578,3.556 -0.518,0.184 -1.114,0.272 -1.772,0.272 -5.126,0 -13.966,-5.285 -17.865,-10.982"
         id="path4714"
         inkscape:connector-curvature="0" /></clipPath><clipPath
       clipPathUnits="userSpaceOnUse"
       id="clipPath4734"><path
         d="m 390.89893,396.1246 38.52419,-12.54408 -7.96878,-24.47296 -38.52419,12.54407 z"
         id="path4732"
         inkscape:connector-curvature="0" /></clipPath><linearGradient
       x1="0"
       y1="0"
       x2="1"
       y2="0"
       gradientUnits="userSpaceOnUse"
       gradientTransform="matrix(33.605606,-10.942505,-10.942505,-33.605591,396.11771,380.99521)"
       spreadMethod="pad"
       id="linearGradient4740"><stop
         style="stop-opacity:1;stop-color:#ffffff"
         offset="0"
         id="stop4736" /><stop
         style="stop-opacity:1;stop-color:#cccccc"
         offset="1"
         id="stop4738" /></linearGradient><clipPath
       clipPathUnits="userSpaceOnUse"
       id="clipPath4752"><path
         d="m 425.766,352.231 c 2.808,-1.795 25.724,-16.673 25.724,-16.673 0,0 3.488,6.785 -5.619,14.229 -4.514,3.691 -10.412,4.909 -14.757,4.909 -4.42,-0.001 -7.232,-1.261 -5.348,-2.465"
         id="path4750"
         inkscape:connector-curvature="0" /></clipPath><clipPath
       clipPathUnits="userSpaceOnUse"
       id="clipPath4770"><path
         d="m 424.14759,354.84992 h 31.09644 v -19.13221 h -31.09644 z"
         id="path4768"
         inkscape:connector-curvature="0" /></clipPath><linearGradient
       x1="0"
       y1="0"
       x2="1"
       y2="0"
       gradientUnits="userSpaceOnUse"
       gradientTransform="matrix(26.976105,0,0,-26.976105,425.43597,345.28711)"
       spreadMethod="pad"
       id="linearGradient4776"><stop
         style="stop-opacity:1;stop-color:#ffffff"
         offset="0"
         id="stop4772" /><stop
         style="stop-opacity:1;stop-color:#cccccc"
         offset="1"
         id="stop4774" /></linearGradient><clipPath
       clipPathUnits="userSpaceOnUse"
       id="clipPath4786"><path
         d="m 431.177,316.811 c 0.866,-3.027 26.395,-20.772 26.395,-20.772 0,0 3.895,8.223 3.462,12.983 -0.325,3.595 -18.329,10.203 -26.263,10.201 -2.571,0 -4.085,-0.695 -3.594,-2.412"
         id="path4784"
         inkscape:connector-curvature="0" /></clipPath><clipPath
       clipPathUnits="userSpaceOnUse"
       id="clipPath4804"><path
         d="m 430.40022,318.89153 h 30.77786 v -23.18474 h -30.77786 z"
         id="path4802"
         inkscape:connector-curvature="0" /></clipPath><linearGradient
       x1="0"
       y1="0"
       x2="1"
       y2="0"
       gradientUnits="userSpaceOnUse"
       gradientTransform="matrix(29.984497,0,0,-29.984497,446.37341,307.29916)"
       spreadMethod="pad"
       id="linearGradient4810"><stop
         style="stop-opacity:1;stop-color:#ffffff"
         offset="0"
         id="stop4806" /><stop
         style="stop-opacity:1;stop-color:#cccccc"
         offset="1"
         id="stop4808" /></linearGradient><clipPath
       clipPathUnits="userSpaceOnUse"
       id="clipPath4820"><path
         d="m 277.985,210.358 c 110.783,-36.784 167.067,30.508 185.892,85.681 0,0 -16.689,-17.308 -35.73,-19.472 -19.04,-2.165 -30.724,14.713 -50.199,24.234 -19.473,9.521 -64.044,9.088 -66.208,21.204 -2.164,12.116 -10.819,35.486 -35.918,48.468 -25.1,12.983 12.117,47.168 4.761,52.792 C 248.558,404.227 179.32,309.022 277.985,210.358"
         id="path4818"
         inkscape:connector-curvature="0" /></clipPath><linearGradient
       x1="0"
       y1="0"
       x2="1"
       y2="0"
       gradientUnits="userSpaceOnUse"
       gradientTransform="matrix(88.860702,-219.59689,219.59689,88.860702,273.9707,415.93262)"
       spreadMethod="pad"
       id="linearGradient4840"><stop
         style="stop-opacity:1;stop-color:#692a09"
         offset="0"
         id="stop4834" /><stop
         style="stop-opacity:1;stop-color:#692a09"
         offset="0.00347786"
         id="stop4836" /><stop
         style="stop-opacity:1;stop-color:#000000"
         offset="1"
         id="stop4838" /></linearGradient><clipPath
       clipPathUnits="userSpaceOnUse"
       id="clipPath4980"><path
         d="m 278.717,421.992 c -8.665,-7.46 -16.419,-38.348 -8.185,-50.27 2.8,-4.058 7.317,-6.663 12.096,-9.421 8.506,-4.906 17.299,-9.98 19.685,-23.946 4.906,-28.734 25.541,-31.132 42.12,-33.058 l 1.219,-0.143 c 16.15,-1.892 44.148,-12.631 57.438,-24.171 4.744,-4.12 11.101,-6.207 18.894,-6.207 14.736,0 31.31,7.618 37.544,14.733 8.941,10.203 11.664,17.523 2.977,31.52 -3.288,5.297 -7.774,16.785 -12.115,27.894 -8.117,20.78 -11.816,29.483 -15.777,31.904 -6.228,3.805 -26.727,12.838 -42.389,19.418 -6.444,2.703 -12.113,6.609 -18.115,10.745 -8.753,6.026 -17.799,12.26 -30.617,16.014 -6.08,1.781 -13.596,2.683 -22.339,2.683 -17.218,0 -37.842,-3.739 -42.436,-7.695 M 408.198,286.865 c -14.758,12.81 -44.328,23.998 -61.64,26.026 l -1.224,0.144 c -16.158,1.875 -31.418,3.649 -35.344,26.629 -3,17.574 -14.831,24.401 -23.471,29.385 -4.171,2.407 -7.773,4.485 -9.578,7.098 -5.221,7.561 0.405,34.386 6.827,39.916 2.329,1.732 19.309,5.834 37.385,5.834 8.002,0 14.781,-0.797 20.151,-2.369 11.615,-3.402 20.141,-9.276 28.385,-14.954 6.345,-4.369 12.333,-8.496 19.517,-11.512 16.629,-6.984 35.863,-15.53 41.244,-18.812 2.494,-2.075 8.626,-17.772 12.685,-28.161 4.674,-11.963 9.089,-23.262 12.753,-29.166 6.587,-10.614 4.738,-14.339 -2.219,-22.28 -4.314,-4.926 -18.802,-12.078 -31.685,-12.078 -5.864,0 -10.501,1.447 -13.786,4.3"
         id="path4978"
         inkscape:connector-curvature="0" /></clipPath><clipPath
       clipPathUnits="userSpaceOnUse"
       id="clipPath4998"><path
         d="M 262.53489,430.00854 H 471.40087 V 275.10885 H 262.53489 Z"
         id="path4996"
         inkscape:connector-curvature="0" /></clipPath><linearGradient
       x1="0"
       y1="0"
       x2="1"
       y2="0"
       gradientUnits="userSpaceOnUse"
       gradientTransform="matrix(200.76559,0,0,-200.76559,267.24033,352.56482)"
       spreadMethod="pad"
       id="linearGradient5004"><stop
         style="stop-opacity:1;stop-color:#c69c6d"
         offset="0"
         id="stop5000" /><stop
         style="stop-opacity:1;stop-color:#42210b"
         offset="1"
         id="stop5002" /></linearGradient></defs><sodipodi:namedview
     pagecolor="#ffffff"
     bordercolor="#666666"
     borderopacity="1"
     objecttolerance="10"
     gridtolerance="10"
     guidetolerance="10"
     inkscape:pageopacity="0"
     inkscape:pageshadow="2"
     inkscape:window-width="1920"
     inkscape:window-height="1018"
     id="namedview4520"
     showgrid="false"
     inkscape:zoom="1.06125"
     inkscape:cx="400"
     inkscape:cy="400"
     inkscape:window-x="-8"
     inkscape:window-y="-8"
     inkscape:window-maximized="1"
     inkscape:current-layer="g4526" /><g
     id="g4526"
     inkscape:groupmode="layer"
     inkscape:label="coconut-publicdomainvectors.org"
     transform="matrix(1.3333333,0,0,-1.3333333,0,800)"><g
       id="g4528"><g
         id="g4530"
         clip-path="url(#clipPath4534)"><g
           id="g4536"><g
             id="g4538"
             clip-path="url(#clipPath4542)"><g
               id="g4544"><g
                 id="g4546"><g
                   id="g4552"><g
                     id="g4554"><path
                       d="M 282.584,229.096 H 504.295 V 187.438 H 282.584 Z"
                       style="fill:url(#linearGradient4562);stroke:none"
                       id="path4564"
                       inkscape:connector-curvature="0" /></g></g></g></g></g></g><path
           d="m 362.037,244.823 c -22.891,10.363 -132.145,-45.406 -195.052,-84.418 45.03,2.376 217.413,46.963 240.55,73.036"
           style="fill:#006837;fill-opacity:1;fill-rule:nonzero;stroke:none"
           id="path4566"
           inkscape:connector-curvature="0" /><path
           d="m 347.93,250.319 c -22.892,10.361 -146.1,-53.195 -209.006,-92.209 45.03,2.378 231.366,54.754 254.507,80.826"
           style="fill:#39b54a;fill-opacity:1;fill-rule:nonzero;stroke:none"
           id="path4568"
           inkscape:connector-curvature="0" /><path
           d="m 350.805,240.599 c -20.825,14.063 -224.782,-19.953 -293.35,-47.831 76.616,-3.56 243.715,16.466 270.907,38.276"
           style="fill:#009245;fill-opacity:1;fill-rule:nonzero;stroke:none"
           id="path4570"
           inkscape:connector-curvature="0" /><path
           d="m 335.227,243.195 c -20.826,14.064 -224.782,-19.953 -293.352,-47.832 76.617,-3.559 243.716,16.468 270.908,38.278"
           style="fill:#39b54a;fill-opacity:1;fill-rule:nonzero;stroke:none"
           id="path4572"
           inkscape:connector-curvature="0" /><path
           d="M 375.379,227.377 C 354.555,241.44 221.997,274.518 145.083,251.631 185.977,226.693 371.9,199.715 399.093,221.525"
           style="fill:#009245;fill-opacity:1;fill-rule:nonzero;stroke:none"
           id="path4574"
           inkscape:connector-curvature="0" /><path
           d="M 371.484,232.569 C 350.66,246.633 206.966,278.376 129.505,261.337 170.399,236.4 368.007,204.907 395.197,226.718"
           style="fill:#39b54a;fill-opacity:1;fill-rule:nonzero;stroke:none"
           id="path4576"
           inkscape:connector-curvature="0" /><path
           d="M 253.366,224.148 80.604,202.05 252.63,229.287 Z"
           style="fill:#009245;fill-opacity:1;fill-rule:nonzero;stroke:none"
           id="path4578"
           inkscape:connector-curvature="0" /><path
           d="M 271.869,235.843 138.924,261.337 272.75,240.96 Z"
           style="fill:#009245;fill-opacity:1;fill-rule:nonzero;stroke:none"
           id="path4580"
           inkscape:connector-curvature="0" /><path
           d="m 279.923,213.971 -100.437,-43.077 98.279,47.798 z"
           style="fill:#009245;fill-opacity:1;fill-rule:nonzero;stroke:none"
           id="path4582"
           inkscape:connector-curvature="0" /><path
           d="m 320.984,211.92 c 13.52,3.988 68.136,-39.595 100.072,-66.125 -24.833,4.796 -115.387,47.042 -126.229,63.312"
           style="fill:#39b54a;fill-opacity:1;fill-rule:nonzero;stroke:none"
           id="path4584"
           inkscape:connector-curvature="0" /><path
           d="m 329.247,213.884 c 13.518,3.988 77.062,-40.835 108.997,-67.368 -24.833,4.798 -124.313,48.287 -135.155,64.555"
           style="fill:#8cc63f;fill-opacity:1;fill-rule:nonzero;stroke:none"
           id="path4586"
           inkscape:connector-curvature="0" /><path
           d="m 326.9,208.705 c 12.655,6.205 123.34,-28.442 159.285,-49.226 -42.842,3.938 -134.132,27.968 -147.556,42.184"
           style="fill:#39b54a;fill-opacity:1;fill-rule:nonzero;stroke:none"
           id="path4588"
           inkscape:connector-curvature="0" /><path
           d="m 335.753,208.944 c 12.658,6.206 123.342,-28.441 159.286,-49.224 -42.842,3.937 -134.131,27.968 -147.554,42.183"
           style="fill:#8cc63f;fill-opacity:1;fill-rule:nonzero;stroke:none"
           id="path4590"
           inkscape:connector-curvature="0" /><path
           d="m 312.226,203.257 c 12.656,6.206 88.854,14.348 129.819,-4.308 -24.646,-10.698 -130.024,-11.329 -143.446,2.887"
           style="fill:#39b54a;fill-opacity:1;fill-rule:nonzero;stroke:none"
           id="path4592"
           inkscape:connector-curvature="0" /><path
           d="m 314.789,205.841 c 12.658,6.206 94.94,12.745 136.661,-2.702 -24.645,-10.696 -136.865,-12.935 -150.288,1.282"
           style="fill:#8cc63f;fill-opacity:1;fill-rule:nonzero;stroke:none"
           id="path4594"
           inkscape:connector-curvature="0" /><path
           d="m 379.764,192.042 94.275,-25.616 -93.472,28.414 z"
           style="fill:#39b54a;fill-opacity:1;fill-rule:nonzero;stroke:none"
           id="path4596"
           inkscape:connector-curvature="0" /><path
           d="m 370.384,199.968 75.832,3.899 -75.923,-0.989 z"
           style="fill:#39b54a;fill-opacity:1;fill-rule:nonzero;stroke:none"
           id="path4598"
           inkscape:connector-curvature="0" /><path
           d="m 364.223,188.438 52.474,-31.687 -50.909,34.145 z"
           style="fill:#39b54a;fill-opacity:1;fill-rule:nonzero;stroke:none"
           id="path4600"
           inkscape:connector-curvature="0" /><g
           id="g4602"><g
             id="g4604"
             clip-path="url(#clipPath4608)"><g
               id="g4610"><g
                 id="g4612"><g
                   id="g4618"><g
                     id="g4620"><g
                       id="g4622"
                       clip-path="url(#clipPath4626)"><path
                         d="M 262.424,427.258 H 473.59 V 266.908 H 262.424 Z"
                         style="fill:url(#linearGradient4632);stroke:none"
                         id="path4634"
                         inkscape:connector-curvature="0" /></g></g></g></g></g></g></g><g
           id="g4636"><g
             id="g4638"
             clip-path="url(#clipPath4642)"><g
               id="g4644"><g
                 id="g4646"><g
                   id="g4652"><g
                     id="g4654"><g
                       id="g4656"
                       clip-path="url(#clipPath4660)"><path
                         d="m 344.61,421.379 h 17.281 V 396.288 H 344.61 Z"
                         style="fill:url(#linearGradient4666);stroke:none"
                         id="path4668"
                         inkscape:connector-curvature="0" /></g></g></g></g></g></g></g><path
           d="m 351.931,394.542 c -3.649,-1.072 -3.409,24.018 0,24.018 3.408,0 12.352,-6.167 12.992,-6.653 0.639,-0.488 -7.475,-15.741 -12.992,-17.365"
           style="fill:#cccccc;fill-opacity:1;fill-rule:nonzero;stroke:none"
           id="path4670"
           inkscape:connector-curvature="0" /><g
           id="g4672"><g
             id="g4674"
             clip-path="url(#clipPath4678)"><g
               id="g4680"><g
                 id="g4682"><g
                   id="g4688"><g
                     id="g4690"><g
                       id="g4692"
                       clip-path="url(#clipPath4696)"><path
                         d="m 278.628,418.676 h 26.33 v -17.719 h -26.33 z"
                         style="fill:url(#linearGradient4702);stroke:none"
                         id="path4704"
                         inkscape:connector-curvature="0" /></g></g></g></g></g></g></g><path
           d="m 305.87,404.117 c 1.704,-0.511 -9.52,16.882 -15.767,17.201 -6.248,0.32 -8.858,-8.6 -8.858,-8.6 0,0 19.568,-7.086 24.625,-8.601"
           style="fill:#e6e6e6;fill-opacity:1;fill-rule:nonzero;stroke:none"
           id="path4706"
           inkscape:connector-curvature="0" /><path
           d="m 389.252,376.53 c 4.401,6.43 15.095,12.333 19.639,10.71 4.543,-1.622 15.575,-3.555 15.575,-3.555 0,0 -37.809,-10.943 -35.214,-7.155"
           style="fill:#808080;fill-opacity:1;fill-rule:nonzero;stroke:none"
           id="path4708"
           inkscape:connector-curvature="0" /><g
           id="g4710"><g
             id="g4712"
             clip-path="url(#clipPath4716)"><g
               id="g4718"><g
                 id="g4720"><g
                   id="g4726"><g
                     id="g4728"><g
                       id="g4730"
                       clip-path="url(#clipPath4734)"><path
                         d="m 390.899,396.125 38.524,-12.544 -7.969,-24.473 -38.524,12.544 z"
                         style="fill:url(#linearGradient4740);stroke:none"
                         id="path4742"
                         inkscape:connector-curvature="0" /></g></g></g></g></g></g></g><path
           d="m 428.979,341.478 c -3.795,-2.293 -1.751,14.28 16.892,5.712 10.686,-4.911 5.619,-14.23 5.619,-14.23 0,0 -16.473,12.167 -22.511,8.518"
           style="fill:#808080;fill-opacity:1;fill-rule:nonzero;stroke:none"
           id="path4744"
           inkscape:connector-curvature="0" /><g
           id="g4746"><g
             id="g4748"
             clip-path="url(#clipPath4752)"><g
               id="g4754"><g
                 id="g4756"><g
                   id="g4762"><g
                     id="g4764"><g
                       id="g4766"
                       clip-path="url(#clipPath4770)"><path
                         d="m 424.148,354.85 h 31.096 v -19.132 h -31.096 z"
                         style="fill:url(#linearGradient4776);stroke:none"
                         id="path4778"
                         inkscape:connector-curvature="0" /></g></g></g></g></g></g></g><g
           id="g4780"><g
             id="g4782"
             clip-path="url(#clipPath4786)"><g
               id="g4788"><g
                 id="g4790"><g
                   id="g4796"><g
                     id="g4798"><g
                       id="g4800"
                       clip-path="url(#clipPath4804)"><path
                         d="m 430.4,318.892 h 30.778 V 295.707 H 430.4 Z"
                         style="fill:url(#linearGradient4810);stroke:none"
                         id="path4812"
                         inkscape:connector-curvature="0" /></g></g></g></g></g></g></g><g
           id="g4814"><g
             id="g4816"
             clip-path="url(#clipPath4820)"><g
               id="g4822"><g
                 id="g4824"><g
                   id="g4830"><g
                     id="g4832"><path
                       d="M 423.58,522.484 550.439,208.981 219.101,74.904 92.241,388.407 Z"
                       style="fill:url(#linearGradient4840);stroke:none"
                       id="path4842"
                       inkscape:connector-curvature="0" /></g></g></g></g></g></g><path
           d="m 273.226,372.635 c -0.027,-0.021 0.26,-0.291 0.515,-1.014 0.249,-0.71 0.458,-1.852 0.283,-3.27 -0.292,-2.849 -1.745,-6.653 -3.915,-10.847 -1.079,-2.108 -2.308,-4.348 -3.692,-6.65 -1.369,-2.312 -2.812,-4.742 -4.376,-7.192 -1.531,-2.463 -3.115,-5.007 -4.722,-7.594 -1.596,-2.581 -3.221,-5.191 -4.768,-7.837 -1.572,-2.63 -3.072,-5.293 -4.49,-7.935 -1.388,-2.656 -2.766,-5.26 -3.911,-7.86 -1.135,-2.601 -2.193,-5.131 -3.037,-7.584 -0.829,-2.457 -1.519,-4.811 -2.016,-7.024 -0.974,-4.425 -1.234,-8.245 -1.178,-10.939 0.029,-1.346 0.075,-2.419 0.157,-3.142 0.064,-0.73 0.097,-1.121 0.097,-1.121 0,0 -0.135,0.368 -0.389,1.058 -0.13,0.346 -0.272,0.778 -0.419,1.294 -0.162,0.512 -0.33,1.106 -0.471,1.785 -0.642,2.686 -1.159,6.705 -0.746,11.506 0.191,2.397 0.583,4.985 1.24,7.655 0.636,2.678 1.458,5.465 2.533,8.253 1.069,2.789 2.259,5.634 3.66,8.421 1.368,2.802 2.913,5.559 4.503,8.277 1.614,2.703 3.289,5.361 5.006,7.92 1.695,2.573 3.478,5.017 5.16,7.402 1.673,2.39 3.376,4.631 4.941,6.78 1.554,2.157 3.05,4.167 4.372,6.054 2.631,3.775 4.641,7.028 5.456,9.53 0.406,1.244 0.509,2.284 0.433,2.989 -0.058,0.705 -0.255,1.087 -0.226,1.085"
           style="fill:#9c5f33;fill-opacity:1;fill-rule:nonzero;stroke:none"
           id="path4844"
           inkscape:connector-curvature="0" /><path
           d="m 265.436,373.934 c -0.026,-0.022 0.261,-0.291 0.515,-1.015 0.249,-0.71 0.459,-1.852 0.284,-3.269 -0.292,-2.849 -1.746,-6.653 -3.916,-10.848 -1.079,-2.108 -2.307,-4.348 -3.691,-6.65 -1.369,-2.312 -2.812,-4.741 -4.377,-7.192 -1.531,-2.462 -3.115,-5.007 -4.722,-7.593 -1.595,-2.582 -3.221,-5.192 -4.767,-7.838 -1.573,-2.63 -3.073,-5.293 -4.491,-7.934 -1.387,-2.656 -2.765,-5.261 -3.91,-7.862 -1.135,-2.6 -2.194,-5.13 -3.037,-7.584 -0.829,-2.456 -1.52,-4.81 -2.017,-7.023 -0.974,-4.424 -1.234,-8.245 -1.177,-10.939 0.029,-1.345 0.075,-2.418 0.157,-3.142 0.064,-0.731 0.097,-1.121 0.097,-1.121 0,0 -0.134,0.368 -0.389,1.058 -0.13,0.347 -0.272,0.778 -0.42,1.294 -0.162,0.512 -0.329,1.106 -0.471,1.785 -0.641,2.687 -1.158,6.705 -0.745,11.506 0.191,2.397 0.583,4.986 1.24,7.656 0.635,2.677 1.458,5.464 2.533,8.253 1.07,2.788 2.258,5.633 3.66,8.42 1.367,2.803 2.913,5.559 4.502,8.277 1.614,2.703 3.289,5.361 5.006,7.92 1.696,2.573 3.479,5.017 5.161,7.402 1.674,2.39 3.375,4.631 4.941,6.779 1.554,2.158 3.05,4.167 4.371,6.056 2.632,3.774 4.641,7.027 5.456,9.529 0.407,1.244 0.509,2.284 0.434,2.989 -0.059,0.705 -0.256,1.087 -0.227,1.086"
           style="fill:#9c5f33;fill-opacity:1;fill-rule:nonzero;stroke:none"
           id="path4846"
           inkscape:connector-curvature="0" /><path
           d="m 265.436,390.81 c -0.026,-0.014 0.234,-0.315 0.439,-1.033 0.206,-0.706 0.347,-1.824 0.104,-3.198 -0.455,-2.748 -2.003,-6.431 -4.297,-10.517 -2.272,-4.111 -5.221,-8.703 -8.378,-13.592 -1.568,-2.447 -3.19,-4.973 -4.837,-7.543 -1.638,-2.568 -3.266,-5.197 -4.822,-7.859 -1.581,-2.65 -3.106,-5.33 -4.498,-8.019 -1.381,-2.694 -2.72,-5.355 -3.844,-8.003 -2.274,-5.282 -3.898,-10.414 -4.732,-14.932 -0.827,-4.518 -0.94,-8.391 -0.703,-11.082 0.106,-1.346 0.219,-2.411 0.342,-3.126 0.114,-0.72 0.174,-1.105 0.174,-1.105 0,0 -0.108,0.374 -0.313,1.075 -0.109,0.351 -0.224,0.785 -0.34,1.303 -0.131,0.516 -0.264,1.113 -0.366,1.791 -0.461,2.69 -0.829,6.654 -0.269,11.364 0.521,4.708 1.93,10.096 4.093,15.583 1.091,2.739 2.319,5.53 3.728,8.278 1.393,2.755 2.913,5.496 4.494,8.193 1.604,2.687 3.276,5.324 4.952,7.896 1.665,2.58 3.397,5.05 5.046,7.453 3.317,4.795 6.477,9.204 9,13.088 1.253,1.947 2.359,3.753 3.239,5.405 0.878,1.652 1.496,3.163 1.839,4.452 0.337,1.289 0.374,2.355 0.251,3.062 -0.106,0.712 -0.331,1.061 -0.302,1.066"
           style="fill:#9c5f33;fill-opacity:1;fill-rule:nonzero;stroke:none"
           id="path4848"
           inkscape:connector-curvature="0" /><path
           d="m 266.734,408.985 c -0.026,-0.014 0.234,-0.315 0.439,-1.033 0.205,-0.706 0.347,-1.824 0.104,-3.198 -0.455,-2.748 -2.003,-6.431 -4.298,-10.518 -2.271,-4.11 -5.219,-8.702 -8.376,-13.591 -1.569,-2.447 -3.19,-4.973 -4.837,-7.542 -1.639,-2.568 -3.267,-5.197 -4.824,-7.86 -1.579,-2.649 -3.105,-5.33 -4.497,-8.019 -1.381,-2.694 -2.72,-5.355 -3.843,-8.002 -2.275,-5.283 -3.899,-10.415 -4.732,-14.932 -0.828,-4.519 -0.941,-8.392 -0.704,-11.083 0.106,-1.346 0.219,-2.411 0.342,-3.126 0.114,-0.721 0.175,-1.104 0.175,-1.104 0,0 -0.108,0.373 -0.313,1.074 -0.11,0.35 -0.225,0.787 -0.34,1.303 -0.132,0.515 -0.264,1.113 -0.367,1.79 -0.46,2.69 -0.829,6.657 -0.268,11.365 0.521,4.707 1.929,10.096 4.093,15.583 1.091,2.739 2.318,5.531 3.727,8.278 1.393,2.755 2.913,5.496 4.495,8.193 1.603,2.687 3.275,5.324 4.951,7.896 1.666,2.58 3.397,5.05 5.046,7.454 3.317,4.795 6.477,9.203 9.001,13.087 1.252,1.947 2.358,3.753 3.238,5.405 0.878,1.652 1.496,3.163 1.839,4.452 0.337,1.289 0.374,2.354 0.252,3.062 -0.107,0.712 -0.331,1.061 -0.303,1.066"
           style="fill:#9c5f33;fill-opacity:1;fill-rule:nonzero;stroke:none"
           id="path4850"
           inkscape:connector-curvature="0" /><path
           d="m 278.18,359.004 c -0.026,-0.021 0.271,-0.306 0.518,-1.079 0.236,-0.756 0.383,-1.969 0.114,-3.438 -0.245,-1.468 -0.75,-3.213 -1.561,-5.085 -0.79,-1.884 -1.795,-3.948 -3.021,-6.105 -1.208,-2.171 -2.571,-4.48 -4.099,-6.851 -1.513,-2.382 -3.105,-4.888 -4.825,-7.414 -1.689,-2.539 -3.435,-5.163 -5.209,-7.829 -1.759,-2.664 -3.554,-5.356 -5.276,-8.085 -1.741,-2.712 -3.412,-5.462 -5.01,-8.184 -1.566,-2.743 -3.105,-5.435 -4.422,-8.121 -1.311,-2.687 -2.529,-5.305 -3.515,-7.851 -0.972,-2.549 -1.795,-4.995 -2.401,-7.298 -1.191,-4.608 -1.596,-8.614 -1.554,-11.44 0.009,-1.414 0.069,-2.538 0.148,-3.298 0.068,-0.768 0.106,-1.177 0.106,-1.177 0,0 -0.138,0.388 -0.399,1.114 -0.136,0.366 -0.271,0.823 -0.421,1.366 -0.17,0.54 -0.321,1.17 -0.461,1.884 -0.3,1.425 -0.583,3.191 -0.648,5.236 -0.093,2.044 -0.035,4.368 0.3,6.872 0.31,2.508 0.844,5.202 1.654,7.973 0.79,2.779 1.781,5.66 3.038,8.529 1.245,2.872 2.601,5.809 4.181,8.674 1.552,2.879 3.265,5.716 5.027,8.513 1.787,2.776 3.63,5.51 5.51,8.144 1.859,2.648 3.801,5.164 5.633,7.62 1.828,2.462 3.675,4.771 5.38,6.987 1.694,2.222 3.321,4.297 4.767,6.243 2.875,3.895 5.114,7.245 6.082,9.842 0.494,1.289 0.652,2.377 0.59,3.12 -0.048,0.736 -0.255,1.14 -0.226,1.138"
           style="fill:#9c5f33;fill-opacity:1;fill-rule:nonzero;stroke:none"
           id="path4852"
           inkscape:connector-curvature="0" /><path
           d="m 273.226,372.635 c -0.027,-0.014 0.233,-0.315 0.438,-1.033 0.205,-0.706 0.347,-1.824 0.104,-3.198 -0.455,-2.748 -2.003,-6.431 -4.297,-10.518 -2.272,-4.11 -5.221,-8.701 -8.378,-13.591 -1.568,-2.447 -3.189,-4.974 -4.836,-7.543 -1.639,-2.568 -3.267,-5.196 -4.824,-7.858 -1.579,-2.65 -3.105,-5.331 -4.496,-8.02 -1.382,-2.694 -2.72,-5.356 -3.845,-8.003 -2.274,-5.282 -3.898,-10.413 -4.732,-14.933 -0.827,-4.517 -0.939,-8.39 -0.703,-11.082 0.106,-1.346 0.219,-2.41 0.343,-3.127 0.112,-0.719 0.173,-1.103 0.173,-1.103 0,0 -0.108,0.374 -0.313,1.075 -0.109,0.35 -0.224,0.785 -0.339,1.304 -0.132,0.514 -0.264,1.111 -0.367,1.79 -0.461,2.689 -0.829,6.653 -0.269,11.364 0.521,4.707 1.93,10.096 4.094,15.582 1.09,2.74 2.318,5.531 3.727,8.279 1.393,2.755 2.913,5.496 4.495,8.193 1.603,2.686 3.275,5.324 4.951,7.896 1.665,2.58 3.397,5.05 5.046,7.453 3.317,4.796 6.477,9.204 9.001,13.087 1.252,1.948 2.358,3.754 3.239,5.407 0.877,1.651 1.495,3.162 1.838,4.451 0.337,1.289 0.374,2.354 0.252,3.062 -0.107,0.712 -0.331,1.061 -0.302,1.066"
           style="fill:#9c5f33;fill-opacity:1;fill-rule:nonzero;stroke:none"
           id="path4854"
           inkscape:connector-curvature="0" /><path
           d="m 265.436,373.934 c -0.026,-0.016 0.234,-0.316 0.439,-1.034 0.206,-0.706 0.347,-1.824 0.104,-3.198 -0.455,-2.748 -2.003,-6.431 -4.297,-10.517 -2.272,-4.11 -5.221,-8.703 -8.378,-13.592 -1.568,-2.447 -3.19,-4.973 -4.837,-7.543 -1.638,-2.567 -3.266,-5.196 -4.822,-7.859 -1.581,-2.649 -3.106,-5.33 -4.498,-8.019 -1.381,-2.694 -2.72,-5.355 -3.844,-8.002 -2.274,-5.282 -3.898,-10.414 -4.732,-14.934 -0.827,-4.517 -0.94,-8.39 -0.703,-11.082 0.106,-1.345 0.219,-2.409 0.342,-3.126 0.114,-0.72 0.174,-1.104 0.174,-1.104 0,0 -0.108,0.375 -0.313,1.075 -0.109,0.351 -0.224,0.785 -0.34,1.304 -0.131,0.515 -0.264,1.112 -0.366,1.79 -0.461,2.69 -0.829,6.654 -0.269,11.364 0.521,4.708 1.93,10.096 4.093,15.582 1.091,2.741 2.319,5.531 3.728,8.279 1.393,2.755 2.913,5.496 4.494,8.193 1.604,2.686 3.276,5.324 4.952,7.896 1.665,2.58 3.397,5.051 5.046,7.454 3.317,4.795 6.477,9.203 9,13.087 1.253,1.947 2.359,3.753 3.239,5.406 0.878,1.651 1.496,3.163 1.839,4.451 0.337,1.289 0.374,2.355 0.251,3.063 -0.106,0.711 -0.331,1.06 -0.302,1.066"
           style="fill:#9c5f33;fill-opacity:1;fill-rule:nonzero;stroke:none"
           id="path4856"
           inkscape:connector-curvature="0" /><path
           d="m 278.18,359.004 c -0.026,-0.015 0.242,-0.334 0.44,-1.096 0.192,-0.748 0.273,-1.932 -0.061,-3.356 -0.623,-2.856 -2.41,-6.64 -4.953,-10.853 -2.528,-4.237 -5.762,-8.967 -9.229,-14.006 -1.726,-2.523 -3.507,-5.127 -5.319,-7.774 -1.802,-2.648 -3.599,-5.356 -5.33,-8.102 -1.753,-2.732 -3.448,-5.496 -5.021,-8.266 -1.559,-2.777 -3.06,-5.528 -4.356,-8.26 -1.298,-2.734 -2.46,-5.417 -3.396,-8.02 -0.932,-2.605 -1.683,-5.114 -2.214,-7.467 -0.521,-2.357 -0.856,-4.55 -1.021,-6.509 -0.172,-1.961 -0.156,-3.685 -0.063,-5.101 0.087,-1.415 0.211,-2.531 0.332,-3.285 0.12,-0.757 0.184,-1.16 0.184,-1.16 0,0 -0.111,0.394 -0.321,1.131 -0.115,0.367 -0.222,0.829 -0.343,1.375 -0.139,0.541 -0.254,1.173 -0.355,1.887 -0.449,2.836 -0.671,7.022 0.123,11.94 0.76,4.915 2.471,10.511 4.996,16.162 1.266,2.827 2.662,5.706 4.248,8.534 1.576,2.833 3.265,5.657 5.019,8.434 1.777,2.762 3.617,5.476 5.455,8.125 1.83,2.654 3.722,5.199 5.523,7.676 3.623,4.94 7.065,9.487 9.84,13.488 2.756,4.003 4.901,7.477 5.713,10.178 0.427,1.338 0.519,2.454 0.414,3.201 -0.099,0.749 -0.334,1.12 -0.305,1.124"
           style="fill:#9c5f33;fill-opacity:1;fill-rule:nonzero;stroke:none"
           id="path4858"
           inkscape:connector-curvature="0" /><path
           d="m 282.312,357.381 c 0,0 0.037,-0.105 0.107,-0.309 0.066,-0.206 0.192,-0.503 0.271,-0.92 0.199,-0.818 0.378,-2.072 0.213,-3.655 -0.288,-3.166 -1.701,-7.539 -4.11,-12.366 -2.375,-4.851 -5.609,-10.237 -9.18,-15.904 -1.796,-2.821 -3.653,-5.737 -5.541,-8.699 -1.898,-2.949 -3.805,-5.954 -5.666,-8.983 -3.765,-6.028 -7.316,-12.174 -10.252,-18.116 -2.938,-5.943 -5.171,-11.72 -6.472,-16.844 -0.64,-2.564 -1.07,-4.951 -1.294,-7.091 -0.223,-2.14 -0.232,-4.023 -0.168,-5.571 0.092,-1.547 0.211,-2.767 0.343,-3.591 0.135,-0.827 0.207,-1.267 0.207,-1.267 0,0 -0.12,0.431 -0.344,1.239 -0.213,0.809 -0.505,2.011 -0.71,3.573 -0.398,3.109 -0.55,7.693 0.51,13.028 1.002,5.335 3.034,11.374 5.863,17.504 1.419,3.062 2.961,6.19 4.695,9.271 1.719,3.09 3.538,6.182 5.416,9.233 1.901,3.033 3.844,6.038 5.774,8.979 1.92,2.946 3.88,5.795 5.728,8.577 3.715,5.552 7.151,10.738 9.778,15.356 1.294,2.316 2.43,4.468 3.264,6.449 0.838,1.977 1.395,3.773 1.661,5.289 0.266,1.515 0.265,2.744 0.148,3.56 -0.03,0.417 -0.125,0.727 -0.167,0.939 -0.048,0.21 -0.074,0.319 -0.074,0.319"
           style="fill:#9c5f33;fill-opacity:1;fill-rule:nonzero;stroke:none"
           id="path4860"
           inkscape:connector-curvature="0" /><path
           d="m 292.049,353.811 c 0,0 0.038,-0.11 0.11,-0.325 0.071,-0.215 0.195,-0.526 0.272,-0.963 0.191,-0.859 0.34,-2.174 0.125,-3.822 -0.386,-3.3 -1.964,-7.821 -4.532,-12.834 -2.539,-5.036 -5.95,-10.642 -9.709,-16.546 -1.893,-2.94 -3.848,-5.978 -5.836,-9.065 -2,-3.073 -4.011,-6.204 -5.977,-9.358 -1.989,-3.139 -3.93,-6.304 -5.759,-9.462 -1.819,-3.164 -3.589,-6.286 -5.148,-9.383 -1.554,-3.098 -2.995,-6.123 -4.181,-9.064 -1.182,-2.941 -2.17,-5.772 -2.906,-8.436 -0.725,-2.664 -1.231,-5.151 -1.512,-7.381 -0.28,-2.231 -0.328,-4.199 -0.287,-5.819 0.086,-1.617 0.199,-2.892 0.335,-3.753 0.142,-0.865 0.217,-1.325 0.217,-1.325 0,0 -0.123,0.451 -0.354,1.296 -0.218,0.849 -0.504,2.111 -0.701,3.744 -0.358,3.258 -0.386,8.051 0.856,13.593 1.173,5.548 3.438,11.799 6.482,18.155 1.523,3.179 3.185,6.418 5.024,9.621 1.826,3.21 3.755,6.421 5.738,9.595 2.004,3.159 4.049,6.287 6.08,9.351 2.05,3.044 4.069,6.042 6.021,8.941 3.907,5.788 7.519,11.198 10.312,16.003 1.377,2.41 2.583,4.653 3.497,6.707 0.908,2.055 1.529,3.921 1.843,5.5 0.315,1.575 0.342,2.86 0.233,3.715 -0.029,0.434 -0.12,0.76 -0.167,0.98 -0.049,0.221 -0.076,0.335 -0.076,0.335"
           style="fill:#9c5f33;fill-opacity:1;fill-rule:nonzero;stroke:none"
           id="path4862"
           inkscape:connector-curvature="0" /><path
           d="m 290.102,333.688 c -0.026,-0.014 0.234,-0.315 0.44,-1.032 0.204,-0.707 0.346,-1.825 0.104,-3.198 -0.456,-2.749 -2.005,-6.432 -4.298,-10.518 -2.272,-4.111 -5.22,-8.702 -8.378,-13.591 -1.568,-2.448 -3.19,-4.976 -4.837,-7.544 -1.638,-2.568 -3.266,-5.196 -4.822,-7.86 -1.581,-2.649 -3.106,-5.329 -4.498,-8.018 -1.381,-2.695 -2.72,-5.355 -3.844,-8.003 -2.274,-5.282 -3.898,-10.413 -4.732,-14.933 -0.827,-4.516 -0.94,-8.389 -0.703,-11.082 0.106,-1.346 0.219,-2.409 0.342,-3.126 0.114,-0.72 0.174,-1.104 0.174,-1.104 0,0 -0.108,0.375 -0.313,1.075 -0.109,0.35 -0.224,0.785 -0.34,1.304 -0.131,0.514 -0.264,1.111 -0.366,1.79 -0.461,2.69 -0.829,6.655 -0.269,11.364 0.521,4.708 1.93,10.098 4.094,15.582 1.09,2.74 2.318,5.53 3.727,8.278 1.393,2.756 2.913,5.496 4.495,8.194 1.603,2.687 3.275,5.325 4.951,7.897 1.665,2.578 3.397,5.049 5.046,7.453 3.317,4.793 6.477,9.204 9.001,13.087 1.253,1.947 2.359,3.754 3.238,5.406 0.879,1.651 1.496,3.162 1.838,4.451 0.339,1.29 0.374,2.355 0.253,3.063 -0.107,0.711 -0.331,1.061 -0.303,1.065"
           style="fill:#9c5f33;fill-opacity:1;fill-rule:nonzero;stroke:none"
           id="path4864"
           inkscape:connector-curvature="0" /><path
           d="m 299.189,335.312 c 0,0 0.037,-0.106 0.107,-0.31 0.065,-0.206 0.192,-0.502 0.27,-0.919 0.2,-0.819 0.379,-2.073 0.214,-3.656 -0.288,-3.166 -1.701,-7.539 -4.11,-12.365 -2.375,-4.851 -5.609,-10.238 -9.179,-15.905 -1.798,-2.821 -3.654,-5.737 -5.542,-8.699 -1.899,-2.949 -3.805,-5.954 -5.667,-8.982 -3.763,-6.029 -7.314,-12.174 -10.251,-18.117 -2.938,-5.943 -5.171,-11.719 -6.473,-16.844 -0.639,-2.563 -1.07,-4.951 -1.293,-7.09 -0.223,-2.14 -0.232,-4.024 -0.168,-5.571 0.091,-1.547 0.211,-2.768 0.343,-3.592 0.135,-0.826 0.206,-1.266 0.206,-1.266 0,0 -0.118,0.431 -0.343,1.238 -0.213,0.81 -0.505,2.012 -0.71,3.574 -0.398,3.109 -0.551,7.692 0.51,13.028 1.002,5.335 3.034,11.374 5.863,17.503 1.418,3.061 2.961,6.19 4.695,9.27 1.719,3.091 3.538,6.183 5.416,9.233 1.901,3.035 3.845,6.04 5.773,8.98 1.921,2.947 3.881,5.793 5.728,8.576 3.715,5.553 7.151,10.74 9.78,15.357 1.292,2.316 2.428,4.469 3.263,6.45 0.838,1.977 1.395,3.773 1.66,5.289 0.267,1.515 0.266,2.743 0.149,3.559 -0.031,0.417 -0.125,0.727 -0.167,0.939 -0.049,0.21 -0.074,0.32 -0.074,0.32"
           style="fill:#9c5f33;fill-opacity:1;fill-rule:nonzero;stroke:none"
           id="path4866"
           inkscape:connector-curvature="0" /><path
           d="m 305.68,327.522 c 0,0 0.037,-0.105 0.107,-0.309 0.066,-0.206 0.192,-0.502 0.272,-0.919 0.198,-0.819 0.377,-2.073 0.212,-3.656 -0.288,-3.167 -1.702,-7.54 -4.11,-12.366 -2.375,-4.851 -5.608,-10.237 -9.179,-15.904 -1.796,-2.822 -3.654,-5.737 -5.541,-8.7 -1.899,-2.948 -3.806,-5.953 -5.668,-8.981 -3.763,-6.03 -7.314,-12.175 -10.251,-18.118 -2.938,-5.941 -5.17,-11.718 -6.473,-16.843 -0.638,-2.564 -1.07,-4.952 -1.293,-7.091 -0.223,-2.139 -0.233,-4.023 -0.169,-5.571 0.093,-1.546 0.212,-2.767 0.344,-3.591 0.135,-0.827 0.207,-1.267 0.207,-1.267 0,0 -0.119,0.431 -0.345,1.238 -0.212,0.811 -0.504,2.013 -0.71,3.575 -0.397,3.108 -0.549,7.693 0.511,13.027 1.002,5.336 3.033,11.375 5.863,17.503 1.418,3.062 2.96,6.191 4.695,9.272 1.719,3.089 3.538,6.181 5.417,9.232 1.9,3.035 3.844,6.04 5.772,8.98 1.921,2.946 3.881,5.792 5.728,8.576 3.716,5.553 7.152,10.739 9.78,15.357 1.293,2.315 2.428,4.468 3.263,6.45 0.838,1.977 1.395,3.772 1.66,5.289 0.267,1.515 0.266,2.742 0.149,3.559 -0.03,0.417 -0.125,0.727 -0.167,0.939 -0.048,0.211 -0.074,0.319 -0.074,0.319"
           style="fill:#9c5f33;fill-opacity:1;fill-rule:nonzero;stroke:none"
           id="path4868"
           inkscape:connector-curvature="0" /><path
           d="m 268.032,388.214 c -0.027,-0.012 0.225,-0.326 0.406,-1.042 0.184,-0.707 0.281,-1.811 0.014,-3.162 -0.507,-2.712 -2.139,-6.322 -4.497,-10.35 -2.361,-4.038 -5.321,-8.612 -8.535,-13.466 -3.214,-4.854 -6.611,-10.047 -9.737,-15.393 -3.183,-5.31 -6.088,-10.786 -8.319,-16.13 -2.225,-5.34 -3.846,-10.524 -4.572,-15.097 -0.746,-4.569 -0.749,-8.464 -0.454,-11.156 0.135,-1.346 0.29,-2.404 0.433,-3.116 0.137,-0.716 0.209,-1.097 0.209,-1.097 0,0 -0.096,0.376 -0.277,1.082 -0.183,0.704 -0.425,1.752 -0.616,3.102 -0.401,2.69 -0.661,6.633 -0.019,11.292 0.629,4.652 2.039,9.991 4.254,15.418 2.21,5.431 5.087,10.99 8.244,16.361 3.199,5.353 6.657,10.533 9.919,15.359 3.259,4.831 6.409,9.259 8.846,13.214 2.442,3.94 4.274,7.387 4.875,10.028 0.315,1.31 0.306,2.389 0.164,3.096 -0.133,0.711 -0.365,1.051 -0.338,1.057"
           style="fill:#511c00;fill-opacity:1;fill-rule:nonzero;stroke:none"
           id="path4870"
           inkscape:connector-curvature="0" /><path
           d="m 269.331,406.389 c -0.028,-0.012 0.224,-0.326 0.405,-1.041 0.184,-0.708 0.282,-1.812 0.014,-3.163 -0.506,-2.712 -2.138,-6.322 -4.498,-10.35 -2.359,-4.038 -5.319,-8.612 -8.533,-13.465 -3.215,-4.855 -6.612,-10.048 -9.738,-15.393 -3.182,-5.31 -6.088,-10.787 -8.319,-16.131 -2.225,-5.341 -3.846,-10.524 -4.573,-15.097 -0.745,-4.569 -0.748,-8.463 -0.453,-11.154 0.135,-1.347 0.291,-2.405 0.434,-3.117 0.136,-0.717 0.209,-1.099 0.209,-1.099 0,0 -0.097,0.376 -0.278,1.083 -0.183,0.705 -0.425,1.751 -0.616,3.101 -0.401,2.691 -0.66,6.634 -0.019,11.293 0.63,4.652 2.04,9.991 4.254,15.418 2.21,5.431 5.087,10.99 8.244,16.362 3.199,5.352 6.657,10.531 9.92,15.358 3.258,4.831 6.408,9.258 8.844,13.214 2.443,3.94 4.275,7.387 4.876,10.027 0.314,1.311 0.306,2.39 0.164,3.097 -0.133,0.711 -0.365,1.051 -0.337,1.057"
           style="fill:#511c00;fill-opacity:1;fill-rule:nonzero;stroke:none"
           id="path4872"
           inkscape:connector-curvature="0" /><path
           d="m 275.821,370.039 c -0.026,-0.012 0.226,-0.326 0.406,-1.041 0.184,-0.708 0.281,-1.811 0.014,-3.163 -0.506,-2.712 -2.138,-6.322 -4.497,-10.35 -2.36,-4.038 -5.32,-8.612 -8.534,-13.465 -3.214,-4.855 -6.612,-10.048 -9.738,-15.394 -3.182,-5.309 -6.088,-10.787 -8.32,-16.131 -2.224,-5.34 -3.844,-10.522 -4.572,-15.097 -0.745,-4.567 -0.747,-8.462 -0.453,-11.154 0.135,-1.348 0.291,-2.405 0.434,-3.118 0.136,-0.715 0.209,-1.097 0.209,-1.097 0,0 -0.097,0.377 -0.278,1.083 -0.183,0.705 -0.424,1.75 -0.615,3.101 -0.401,2.69 -0.662,6.635 -0.02,11.293 0.629,4.652 2.04,9.99 4.254,15.418 2.21,5.43 5.087,10.99 8.244,16.362 3.199,5.353 6.657,10.531 9.92,15.358 3.258,4.831 6.408,9.258 8.845,13.214 2.443,3.94 4.275,7.388 4.876,10.027 0.314,1.311 0.304,2.39 0.164,3.097 -0.133,0.711 -0.365,1.05 -0.339,1.057"
           style="fill:#511c00;fill-opacity:1;fill-rule:nonzero;stroke:none"
           id="path4874"
           inkscape:connector-curvature="0" /><path
           d="m 268.032,371.337 c -0.027,-0.012 0.225,-0.326 0.406,-1.041 0.184,-0.708 0.281,-1.812 0.014,-3.163 -0.507,-2.712 -2.139,-6.322 -4.497,-10.35 -2.361,-4.038 -5.321,-8.612 -8.535,-13.466 -3.214,-4.854 -6.611,-10.046 -9.737,-15.392 -3.183,-5.31 -6.088,-10.788 -8.319,-16.131 -2.225,-5.34 -3.846,-10.523 -4.572,-15.098 -0.746,-4.567 -0.749,-8.463 -0.454,-11.154 0.135,-1.347 0.29,-2.405 0.433,-3.118 0.137,-0.714 0.209,-1.096 0.209,-1.096 0,0 -0.096,0.376 -0.277,1.082 -0.183,0.705 -0.425,1.751 -0.616,3.102 -0.401,2.689 -0.661,6.634 -0.019,11.294 0.629,4.65 2.039,9.988 4.254,15.416 2.21,5.431 5.087,10.99 8.244,16.362 3.199,5.353 6.657,10.531 9.919,15.358 3.259,4.83 6.409,9.259 8.846,13.215 2.442,3.94 4.274,7.386 4.875,10.027 0.315,1.31 0.306,2.389 0.164,3.096 -0.133,0.712 -0.365,1.051 -0.338,1.057"
           style="fill:#511c00;fill-opacity:1;fill-rule:nonzero;stroke:none"
           id="path4876"
           inkscape:connector-curvature="0" /><path
           d="m 280.777,356.407 c -0.028,-0.011 0.233,-0.344 0.406,-1.102 0.171,-0.749 0.208,-1.916 -0.15,-3.317 -0.673,-2.816 -2.539,-6.529 -5.148,-10.681 -2.614,-4.16 -5.86,-8.873 -9.383,-13.875 -3.523,-5.004 -7.251,-10.357 -10.726,-15.863 -3.52,-5.474 -6.791,-11.111 -9.355,-16.633 -2.583,-5.51 -4.499,-10.886 -5.456,-15.659 -0.484,-2.381 -0.77,-4.597 -0.89,-6.57 -0.128,-1.975 -0.073,-3.705 0.052,-5.122 0.114,-1.419 0.283,-2.529 0.425,-3.28 0.142,-0.751 0.218,-1.153 0.218,-1.153 0,0 -0.1,0.396 -0.289,1.139 -0.18,0.743 -0.434,1.843 -0.604,3.267 -0.39,2.835 -0.502,6.993 0.37,11.856 0.864,4.855 2.577,10.399 5.151,15.993 2.544,5.609 5.789,11.323 9.285,16.859 3.545,5.506 7.332,10.843 10.902,15.817 3.566,4.976 6.998,9.539 9.686,13.618 2.693,4.064 4.755,7.608 5.519,10.351 0.403,1.358 0.452,2.491 0.324,3.24 -0.123,0.75 -0.365,1.109 -0.337,1.115"
           style="fill:#511c00;fill-opacity:1;fill-rule:nonzero;stroke:none"
           id="path4878"
           inkscape:connector-curvature="0" /><path
           d="m 284.909,354.785 c 0,0 0.034,-0.107 0.098,-0.312 0.059,-0.207 0.18,-0.507 0.245,-0.923 0.179,-0.819 0.313,-2.067 0.123,-3.632 -0.343,-3.137 -1.844,-7.44 -4.32,-12.206 -2.462,-4.777 -5.704,-10.139 -9.329,-15.767 -3.623,-5.628 -7.55,-11.584 -11.275,-17.656 -3.771,-6.037 -7.349,-12.199 -10.225,-18.208 -2.888,-5.997 -5.122,-11.824 -6.319,-17.011 -0.601,-2.591 -0.985,-5.003 -1.162,-7.157 -0.181,-2.156 -0.151,-4.046 -0.055,-5.598 0.119,-1.549 0.283,-2.766 0.435,-3.587 0.158,-0.821 0.241,-1.259 0.241,-1.259 0,0 -0.107,0.433 -0.31,1.245 -0.193,0.813 -0.442,2.02 -0.618,3.579 -0.338,3.104 -0.383,7.655 0.756,12.935 1.105,5.271 3.138,11.26 6.014,17.336 2.854,6.086 6.4,12.318 10.141,18.409 3.79,6.063 7.769,11.994 11.433,17.584 3.661,5.592 7.091,10.803 9.629,15.493 1.262,2.347 2.358,4.535 3.155,6.542 0.8,2.007 1.324,3.827 1.559,5.358 0.243,1.532 0.196,2.766 0.059,3.585 -0.042,0.415 -0.146,0.722 -0.194,0.933 -0.053,0.209 -0.081,0.317 -0.081,0.317"
           style="fill:#511c00;fill-opacity:1;fill-rule:nonzero;stroke:none"
           id="path4880"
           inkscape:connector-curvature="0" /><path
           d="m 294.645,351.215 c 0,0 0.035,-0.112 0.102,-0.328 0.065,-0.216 0.181,-0.531 0.246,-0.967 0.169,-0.859 0.276,-2.165 0.035,-3.795 -0.441,-3.268 -2.106,-7.723 -4.738,-12.675 -2.63,-4.962 -6.048,-10.546 -9.863,-16.408 -3.812,-5.866 -7.941,-12.074 -11.878,-18.396 -3.981,-6.288 -7.785,-12.693 -10.877,-18.933 -3.106,-6.23 -5.57,-12.27 -6.936,-17.664 -0.689,-2.694 -1.149,-5.206 -1.385,-7.452 -0.238,-2.25 -0.246,-4.227 -0.17,-5.849 0.113,-1.621 0.269,-2.893 0.426,-3.753 0.164,-0.858 0.251,-1.316 0.251,-1.316 0,0 -0.112,0.453 -0.321,1.302 -0.196,0.854 -0.439,2.118 -0.609,3.748 -0.299,3.252 -0.219,8.007 1.098,13.492 1.276,5.483 3.542,11.686 6.635,17.989 3.069,6.316 6.839,12.787 10.79,19.127 4,6.31 8.182,12.493 12.035,18.321 3.852,5.829 7.458,11.261 10.162,16.138 1.346,2.441 2.509,4.715 3.388,6.799 0.872,2.084 1.459,3.974 1.744,5.568 0.288,1.596 0.274,2.886 0.144,3.743 -0.042,0.435 -0.142,0.758 -0.195,0.976 -0.055,0.22 -0.084,0.333 -0.084,0.333"
           style="fill:#511c00;fill-opacity:1;fill-rule:nonzero;stroke:none"
           id="path4882"
           inkscape:connector-curvature="0" /><path
           d="m 292.698,331.092 c -0.027,-0.012 0.225,-0.325 0.406,-1.041 0.184,-0.707 0.281,-1.812 0.014,-3.163 -0.506,-2.712 -2.138,-6.321 -4.497,-10.35 -2.361,-4.038 -5.32,-8.611 -8.535,-13.465 -3.214,-4.854 -6.611,-10.048 -9.737,-15.393 -3.182,-5.311 -6.087,-10.788 -8.319,-16.13 -2.225,-5.343 -3.846,-10.524 -4.572,-15.097 -0.746,-4.569 -0.749,-8.464 -0.454,-11.156 0.135,-1.346 0.291,-2.405 0.434,-3.117 0.136,-0.715 0.208,-1.097 0.208,-1.097 0,0 -0.095,0.376 -0.277,1.082 -0.183,0.705 -0.425,1.751 -0.615,3.102 -0.402,2.689 -0.662,6.634 -0.02,11.294 0.629,4.65 2.039,9.988 4.254,15.417 2.21,5.431 5.087,10.987 8.244,16.361 3.199,5.352 6.658,10.531 9.919,15.358 3.259,4.831 6.408,9.259 8.846,13.215 2.443,3.94 4.275,7.387 4.876,10.027 0.313,1.31 0.304,2.389 0.164,3.097 -0.134,0.711 -0.366,1.05 -0.339,1.056"
           style="fill:#511c00;fill-opacity:1;fill-rule:nonzero;stroke:none"
           id="path4884"
           inkscape:connector-curvature="0" /><path
           d="m 301.785,332.715 c 0,0 0.034,-0.107 0.098,-0.312 0.06,-0.207 0.18,-0.507 0.246,-0.923 0.179,-0.818 0.313,-2.066 0.123,-3.632 -0.343,-3.137 -1.845,-7.44 -4.32,-12.206 -2.462,-4.778 -5.704,-10.139 -9.329,-15.767 -3.623,-5.629 -7.55,-11.584 -11.275,-17.656 -3.772,-6.037 -7.349,-12.199 -10.224,-18.208 -2.889,-5.996 -5.123,-11.824 -6.321,-17.01 -0.601,-2.591 -0.983,-5.003 -1.161,-7.157 -0.181,-2.156 -0.151,-4.046 -0.055,-5.599 0.119,-1.55 0.283,-2.766 0.435,-3.587 0.158,-0.82 0.242,-1.259 0.242,-1.259 0,0 -0.109,0.433 -0.311,1.246 -0.192,0.813 -0.441,2.019 -0.618,3.578 -0.337,3.105 -0.383,7.656 0.756,12.934 1.105,5.272 3.137,11.262 6.014,17.337 2.853,6.087 6.399,12.318 10.141,18.409 3.789,6.063 7.77,11.994 11.432,17.584 3.662,5.592 7.091,10.804 9.629,15.494 1.264,2.347 2.359,4.535 3.156,6.542 0.8,2.007 1.324,3.827 1.56,5.357 0.242,1.532 0.195,2.766 0.058,3.585 -0.042,0.415 -0.146,0.723 -0.195,0.933 -0.053,0.209 -0.081,0.317 -0.081,0.317"
           style="fill:#511c00;fill-opacity:1;fill-rule:nonzero;stroke:none"
           id="path4886"
           inkscape:connector-curvature="0" /><path
           d="m 308.277,324.926 c 0,0 0.034,-0.107 0.097,-0.312 0.06,-0.208 0.181,-0.508 0.246,-0.923 0.179,-0.819 0.314,-2.067 0.123,-3.632 -0.344,-3.137 -1.845,-7.442 -4.32,-12.206 -2.462,-4.778 -5.704,-10.139 -9.329,-15.767 -3.623,-5.629 -7.55,-11.584 -11.276,-17.656 -3.77,-6.038 -7.349,-12.2 -10.224,-18.209 -2.888,-5.995 -5.121,-11.823 -6.32,-17.009 -0.601,-2.592 -0.983,-5.003 -1.162,-7.158 -0.18,-2.156 -0.151,-4.045 -0.054,-5.598 0.119,-1.551 0.283,-2.766 0.435,-3.588 0.158,-0.82 0.241,-1.259 0.241,-1.259 0,0 -0.108,0.435 -0.31,1.245 -0.192,0.814 -0.442,2.022 -0.618,3.58 -0.337,3.104 -0.383,7.656 0.756,12.934 1.105,5.273 3.138,11.262 6.015,17.336 2.852,6.087 6.399,12.318 10.14,18.41 3.789,6.063 7.77,11.993 11.433,17.584 3.662,5.592 7.09,10.803 9.628,15.493 1.263,2.348 2.359,4.535 3.156,6.542 0.8,2.008 1.324,3.828 1.559,5.358 0.242,1.532 0.195,2.766 0.059,3.584 -0.042,0.416 -0.146,0.723 -0.195,0.933 -0.052,0.21 -0.08,0.318 -0.08,0.318"
           style="fill:#511c00;fill-opacity:1;fill-rule:nonzero;stroke:none"
           id="path4888"
           inkscape:connector-curvature="0" /><path
           d="m 321.259,311.62 c -0.025,-0.022 0.27,-0.314 0.525,-1.096 0.24,-0.764 0.403,-1.986 0.17,-3.478 -0.209,-1.492 -0.662,-3.273 -1.413,-5.197 -0.728,-1.938 -1.667,-4.067 -2.822,-6.302 -1.136,-2.247 -2.423,-4.644 -3.871,-7.109 -1.435,-2.478 -2.946,-5.084 -4.584,-7.716 -1.609,-2.643 -3.272,-5.376 -4.961,-8.151 -1.678,-2.773 -3.391,-5.574 -5.032,-8.408 -1.666,-2.822 -3.256,-5.673 -4.782,-8.494 -1.493,-2.838 -2.962,-5.624 -4.216,-8.394 -1.248,-2.77 -2.413,-5.463 -3.351,-8.075 -0.924,-2.614 -1.708,-5.118 -2.284,-7.47 -1.136,-4.703 -1.511,-8.771 -1.461,-11.642 0.018,-1.434 0.079,-2.572 0.16,-3.344 0.073,-0.778 0.111,-1.193 0.111,-1.193 0,0 -0.139,0.393 -0.403,1.131 -0.246,0.744 -0.609,1.847 -0.895,3.295 -0.3,1.443 -0.598,3.231 -0.677,5.301 -0.108,2.072 -0.072,4.424 0.227,6.964 0.275,2.542 0.763,5.279 1.518,8.103 0.734,2.83 1.66,5.771 2.845,8.715 1.172,2.946 2.45,5.963 3.95,8.919 1.47,2.97 3.1,5.908 4.777,8.805 1.705,2.884 3.461,5.725 5.259,8.47 1.774,2.759 3.637,5.388 5.39,7.955 1.749,2.571 3.521,4.991 5.155,7.31 1.622,2.326 3.181,4.497 4.567,6.531 2.751,4.071 4.883,7.561 5.794,10.226 0.461,1.327 0.606,2.433 0.54,3.187 -0.057,0.75 -0.263,1.159 -0.236,1.157"
           style="fill:#9c5f33;fill-opacity:1;fill-rule:nonzero;stroke:none"
           id="path4890"
           inkscape:connector-curvature="0" /><path
           d="m 331.646,309.022 c -0.025,-0.02 0.27,-0.313 0.525,-1.094 0.239,-0.765 0.401,-1.987 0.17,-3.478 -0.209,-1.493 -0.662,-3.273 -1.412,-5.198 -0.732,-1.937 -1.669,-4.065 -2.825,-6.302 -1.134,-2.246 -2.42,-4.643 -3.872,-7.11 -1.434,-2.476 -2.944,-5.082 -4.584,-7.714 -1.608,-2.644 -3.27,-5.377 -4.96,-8.151 -1.677,-2.774 -3.39,-5.575 -5.032,-8.409 -1.664,-2.821 -3.256,-5.672 -4.781,-8.494 -1.493,-2.837 -2.963,-5.623 -4.218,-8.393 -1.248,-2.771 -2.412,-5.464 -3.349,-8.075 -0.926,-2.615 -1.708,-5.119 -2.285,-7.47 -1.135,-4.703 -1.51,-8.772 -1.459,-11.642 0.015,-1.433 0.078,-2.573 0.16,-3.346 0.072,-0.777 0.111,-1.192 0.111,-1.192 0,0 -0.142,0.393 -0.405,1.131 -0.244,0.744 -0.609,1.848 -0.893,3.295 -0.303,1.443 -0.599,3.232 -0.678,5.303 -0.109,2.07 -0.074,4.421 0.226,6.963 0.277,2.542 0.764,5.279 1.519,8.102 0.732,2.83 1.66,5.772 2.844,8.715 1.174,2.946 2.452,5.964 3.95,8.92 1.47,2.97 3.101,5.907 4.778,8.805 1.704,2.883 3.461,5.724 5.259,8.468 1.776,2.76 3.635,5.39 5.391,7.957 1.747,2.571 3.522,4.991 5.153,7.308 1.624,2.326 3.181,4.498 4.566,6.532 2.753,4.071 4.887,7.562 5.794,10.227 0.464,1.326 0.608,2.433 0.54,3.187 -0.056,0.749 -0.262,1.158 -0.233,1.155"
           style="fill:#9c5f33;fill-opacity:1;fill-rule:nonzero;stroke:none"
           id="path4892"
           inkscape:connector-curvature="0" /><path
           d="m 348.522,302.531 c -0.024,-0.021 0.269,-0.312 0.525,-1.094 0.241,-0.765 0.401,-1.986 0.171,-3.477 -0.208,-1.494 -0.662,-3.275 -1.414,-5.198 -0.729,-1.937 -1.666,-4.068 -2.825,-6.302 -1.134,-2.248 -2.42,-4.645 -3.869,-7.111 -1.433,-2.477 -2.946,-5.081 -4.585,-7.715 -1.608,-2.644 -3.27,-5.375 -4.962,-8.151 -1.675,-2.772 -3.389,-5.575 -5.031,-8.408 -1.662,-2.822 -3.255,-5.673 -4.78,-8.493 -1.493,-2.838 -2.962,-5.625 -4.218,-8.395 -1.248,-2.77 -2.413,-5.462 -3.349,-8.074 -0.925,-2.614 -1.708,-5.118 -2.286,-7.47 -1.133,-4.705 -1.509,-8.773 -1.459,-11.642 0.016,-1.435 0.078,-2.572 0.161,-3.345 0.072,-0.779 0.111,-1.192 0.111,-1.192 0,0 -0.142,0.392 -0.405,1.13 -0.244,0.745 -0.61,1.847 -0.893,3.296 -0.303,1.441 -0.599,3.23 -0.679,5.3 -0.108,2.071 -0.073,4.424 0.228,6.965 0.276,2.542 0.763,5.279 1.518,8.103 0.732,2.83 1.66,5.77 2.844,8.715 1.174,2.946 2.451,5.964 3.95,8.918 1.47,2.97 3.101,5.908 4.778,8.806 1.703,2.884 3.461,5.724 5.259,8.469 1.774,2.759 3.636,5.388 5.391,7.955 1.747,2.572 3.52,4.992 5.153,7.309 1.622,2.327 3.181,4.499 4.566,6.533 2.752,4.071 4.884,7.562 5.794,10.225 0.465,1.328 0.608,2.434 0.54,3.188 -0.056,0.749 -0.262,1.157 -0.234,1.155"
           style="fill:#9c5f33;fill-opacity:1;fill-rule:nonzero;stroke:none"
           id="path4894"
           inkscape:connector-curvature="0" /><path
           d="m 375.786,296.041 c -0.026,-0.021 0.269,-0.314 0.525,-1.095 0.24,-0.764 0.4,-1.986 0.169,-3.478 -0.208,-1.492 -0.663,-3.274 -1.412,-5.198 -0.731,-1.935 -1.669,-4.067 -2.826,-6.301 -1.133,-2.248 -2.42,-4.645 -3.871,-7.112 -1.433,-2.475 -2.945,-5.081 -4.581,-7.714 -1.611,-2.643 -3.273,-5.375 -4.964,-8.151 -1.677,-2.772 -3.388,-5.574 -5.029,-8.407 -1.666,-2.822 -3.259,-5.674 -4.783,-8.495 -1.493,-2.838 -2.962,-5.624 -4.216,-8.394 -1.247,-2.77 -2.414,-5.463 -3.351,-8.075 -0.924,-2.613 -1.708,-5.118 -2.285,-7.469 -1.134,-4.704 -1.51,-8.772 -1.459,-11.642 0.016,-1.434 0.078,-2.572 0.16,-3.345 0.073,-0.778 0.112,-1.193 0.112,-1.193 0,0 -0.142,0.393 -0.407,1.132 -0.243,0.743 -0.607,1.846 -0.891,3.294 -0.302,1.443 -0.599,3.232 -0.679,5.302 -0.107,2.071 -0.072,4.423 0.228,6.964 0.276,2.542 0.762,5.279 1.517,8.103 0.734,2.829 1.66,5.77 2.844,8.714 1.175,2.947 2.451,5.963 3.951,8.919 1.469,2.971 3.1,5.908 4.775,8.806 1.708,2.883 3.462,5.725 5.259,8.469 1.778,2.759 3.639,5.388 5.394,7.956 1.747,2.57 3.518,4.99 5.152,7.308 1.623,2.327 3.182,4.499 4.567,6.533 2.751,4.071 4.885,7.561 5.794,10.225 0.463,1.327 0.608,2.433 0.54,3.187 -0.056,0.75 -0.262,1.159 -0.233,1.157"
           style="fill:#9c5f33;fill-opacity:1;fill-rule:nonzero;stroke:none"
           id="path4896"
           inkscape:connector-curvature="0" /><path
           d="m 390.065,292.146 c -0.025,-0.021 0.273,-0.314 0.525,-1.095 0.241,-0.764 0.401,-1.986 0.171,-3.478 -0.208,-1.492 -0.662,-3.273 -1.412,-5.198 -0.731,-1.935 -1.669,-4.066 -2.828,-6.301 -1.13,-2.248 -2.419,-4.644 -3.869,-7.111 -1.432,-2.476 -2.945,-5.082 -4.583,-7.715 -1.609,-2.643 -3.272,-5.376 -4.963,-8.15 -1.675,-2.774 -3.388,-5.575 -5.029,-8.409 -1.665,-2.821 -3.258,-5.672 -4.782,-8.494 -1.493,-2.838 -2.965,-5.624 -4.217,-8.393 -1.247,-2.771 -2.412,-5.463 -3.351,-8.075 -0.924,-2.615 -1.706,-5.119 -2.283,-7.47 -1.136,-4.703 -1.511,-8.772 -1.461,-11.642 0.016,-1.433 0.08,-2.572 0.161,-3.344 0.07,-0.779 0.111,-1.194 0.111,-1.194 0,0 -0.142,0.394 -0.403,1.131 -0.246,0.744 -0.611,1.848 -0.896,3.295 -0.302,1.443 -0.598,3.232 -0.676,5.303 -0.11,2.07 -0.073,4.423 0.225,6.964 0.276,2.542 0.765,5.279 1.519,8.101 0.733,2.83 1.662,5.773 2.843,8.715 1.173,2.947 2.451,5.964 3.95,8.92 1.471,2.97 3.101,5.907 4.778,8.806 1.705,2.882 3.46,5.724 5.259,8.468 1.777,2.759 3.638,5.389 5.392,7.956 1.746,2.571 3.52,4.991 5.152,7.309 1.623,2.326 3.182,4.498 4.567,6.532 2.751,4.071 4.887,7.562 5.795,10.226 0.464,1.327 0.607,2.432 0.539,3.187 -0.056,0.749 -0.261,1.158 -0.234,1.156"
           style="fill:#9c5f33;fill-opacity:1;fill-rule:nonzero;stroke:none"
           id="path4898"
           inkscape:connector-curvature="0" /><path
           d="m 272.596,222.751 c -5.151,20.618 12.015,46.633 27.16,69.587 10.824,16.404 20.173,30.572 17.643,37.893 l 1.23,0.424 c 2.736,-7.925 -6.775,-22.341 -17.791,-39.033 -14.253,-21.604 -31.997,-48.491 -26.983,-68.557 z"
           style="fill:#511c00;fill-opacity:1;fill-rule:nonzero;stroke:none"
           id="path4900"
           inkscape:connector-curvature="0" /><path
           d="m 282.981,208.47 c -5.149,20.615 11.667,46.338 25.178,67.009 10.148,15.521 18.911,28.929 16.381,36.252 l 1.229,0.424 c 2.737,-7.925 -6.189,-21.579 -16.523,-37.388 -13.375,-20.457 -30.017,-45.918 -25.005,-65.983 z"
           style="fill:#511c00;fill-opacity:1;fill-rule:nonzero;stroke:none"
           id="path4902"
           inkscape:connector-curvature="0" /><path
           d="m 289.473,200.681 c -5.145,20.595 11.89,47.743 26.922,71.695 10.781,17.182 20.093,32.019 17.558,39.355 l 1.228,0.424 c 2.736,-7.925 -6.727,-23.006 -17.688,-40.469 -14.155,-22.558 -31.772,-50.631 -26.762,-70.69 z"
           style="fill:#511c00;fill-opacity:1;fill-rule:nonzero;stroke:none"
           id="path4904"
           inkscape:connector-curvature="0" /><path
           d="m 277.627,214.096 c -5.434,21.744 12.131,48.718 24.956,68.414 8.118,12.464 15.127,23.231 12.907,27.512 l 1.153,0.599 c 2.568,-4.956 -3.951,-14.966 -12.971,-28.82 -12.696,-19.495 -30.082,-46.195 -24.787,-67.392 z"
           style="fill:#511c00;fill-opacity:1;fill-rule:nonzero;stroke:none"
           id="path4906"
           inkscape:connector-curvature="0" /><path
           d="m 282.981,208.47 c -5.151,20.623 12.342,46.853 27.779,69.995 11.029,16.536 20.554,30.816 18.026,38.135 l 1.23,0.423 c 2.735,-7.925 -6.954,-22.456 -18.175,-39.278 -14.53,-21.783 -32.613,-48.893 -27.6,-68.961 z"
           style="fill:#511c00;fill-opacity:1;fill-rule:nonzero;stroke:none"
           id="path4908"
           inkscape:connector-curvature="0" /><path
           d="m 289.473,200.681 c -5.16,20.652 13.919,47.566 30.753,71.311 12.006,16.934 22.371,31.558 19.85,38.855 l 1.228,0.424 c 2.738,-7.927 -7.807,-22.803 -20.02,-40.03 -15.846,-22.352 -35.566,-50.172 -30.553,-70.245 z"
           style="fill:#511c00;fill-opacity:1;fill-rule:nonzero;stroke:none"
           id="path4910"
           inkscape:connector-curvature="0" /><path
           d="m 303.517,203.709 c -5.148,20.598 12.703,48.867 28.453,73.811 11.304,17.904 21.069,33.368 18.535,40.703 l 1.228,0.424 c 2.736,-7.925 -7.182,-23.633 -18.667,-41.823 -14.837,-23.497 -33.302,-52.741 -28.291,-72.8 z"
           style="fill:#511c00;fill-opacity:1;fill-rule:nonzero;stroke:none"
           id="path4912"
           inkscape:connector-curvature="0" /><path
           d="m 310.007,200.681 c -5.155,20.631 15.041,50.436 32.858,76.734 12.77,18.843 23.797,35.118 21.272,42.431 l 1.227,0.423 c 2.739,-7.926 -8.459,-24.45 -21.423,-43.582 -16.792,-24.783 -37.689,-55.624 -32.674,-75.691 z"
           style="fill:#511c00;fill-opacity:1;fill-rule:nonzero;stroke:none"
           id="path4914"
           inkscape:connector-curvature="0" /><path
           d="m 319.13,200.681 c -5.445,21.795 14.651,50.947 29.327,72.233 9.27,13.446 17.274,25.06 15.066,29.318 l 1.155,0.599 c 2.564,-4.952 -4.866,-15.733 -15.154,-30.654 -14.534,-21.082 -34.438,-49.955 -29.134,-71.181 z"
           style="fill:#511c00;fill-opacity:1;fill-rule:nonzero;stroke:none"
           id="path4916"
           inkscape:connector-curvature="0" /><path
           d="m 329.718,198.085 c -5.151,20.613 11.665,46.338 25.177,67.008 10.147,15.522 18.912,28.928 16.382,36.254 l 1.228,0.423 c 2.738,-7.924 -6.188,-21.58 -16.523,-37.389 -13.375,-20.456 -30.017,-45.918 -25.005,-65.983 z"
           style="fill:#511c00;fill-opacity:1;fill-rule:nonzero;stroke:none"
           id="path4918"
           inkscape:connector-curvature="0" /><path
           d="m 336.209,190.295 c -5.163,20.662 13.84,46.923 30.608,70.095 11.937,16.496 22.246,30.744 19.73,38.035 l 1.226,0.423 c 2.74,-7.929 -7.753,-22.429 -19.904,-39.22 -15.778,-21.805 -35.416,-48.942 -30.402,-69.019 z"
           style="fill:#511c00;fill-opacity:1;fill-rule:nonzero;stroke:none"
           id="path4920"
           inkscape:connector-curvature="0" /><path
           d="m 384.906,209.384 -0.715,1.083 c 16.451,10.862 58.397,57.228 56.267,75.547 l 1.29,0.149 c 2.225,-19.121 -39.734,-65.483 -56.842,-76.779"
           style="fill:#511c00;fill-opacity:1;fill-rule:nonzero;stroke:none"
           id="path4922"
           inkscape:connector-curvature="0" /><path
           d="m 395.291,209.384 -0.715,1.083 c 16.362,10.804 58.323,64.437 56.187,82.833 l 1.29,0.148 c 2.234,-19.223 -39.771,-72.846 -56.762,-84.064"
           style="fill:#511c00;fill-opacity:1;fill-rule:nonzero;stroke:none"
           id="path4924"
           inkscape:connector-curvature="0" /><path
           d="m 356.252,193.513 -0.249,1.276 c 20.31,3.945 36.819,32.577 50.083,55.585 10.228,17.735 19.06,33.053 27.402,33.926 l 0.133,-1.29 c -7.682,-0.806 -16.361,-15.857 -26.41,-33.286 -14.095,-24.444 -30.069,-52.15 -50.959,-56.211"
           style="fill:#511c00;fill-opacity:1;fill-rule:nonzero;stroke:none"
           id="path4926"
           inkscape:connector-curvature="0" /><path
           d="m 350.59,199.503 -0.249,1.275 c 21.475,4.175 39.218,34.425 52.172,56.512 9.077,15.478 15.66,26.702 21.198,26.702 0.058,0 0.114,-0.001 0.17,-0.002 l -0.054,-1.298 c -0.041,0.002 -0.079,0.002 -0.116,0.002 -4.793,0 -11.882,-12.086 -20.077,-26.06 -13.081,-22.301 -30.992,-52.844 -53.044,-57.131"
           style="fill:#511c00;fill-opacity:1;fill-rule:nonzero;stroke:none"
           id="path4928"
           inkscape:connector-curvature="0" /><path
           d="m 340.368,203.784 -0.248,1.276 c 20.3,3.946 36.329,29.796 49.21,50.569 9.952,16.052 18.548,29.917 26.888,30.788 l 0.134,-1.291 c -7.706,-0.807 -16.147,-14.418 -25.918,-30.182 -13.013,-20.987 -29.208,-47.105 -50.066,-51.16"
           style="fill:#511c00;fill-opacity:1;fill-rule:nonzero;stroke:none"
           id="path4930"
           inkscape:connector-curvature="0" /><path
           d="m 327.966,202.477 -0.246,1.274 c 20.303,3.946 37.434,32.376 51.2,55.219 10.632,17.639 19.81,32.874 28.151,33.747 l 0.135,-1.291 c -7.698,-0.806 -16.723,-15.783 -27.174,-33.125 -14.622,-24.266 -31.195,-51.768 -52.066,-55.824"
           style="fill:#511c00;fill-opacity:1;fill-rule:nonzero;stroke:none"
           id="path4932"
           inkscape:connector-curvature="0" /><path
           d="m 266.773,222.593 c -5.22,20.895 12.029,47.037 27.248,70.101 10.285,15.586 19.998,30.308 17.573,37.326 l 2.455,0.847 c 2.843,-8.229 -6.293,-22.074 -17.861,-39.603 -14.185,-21.497 -31.84,-48.251 -26.896,-68.041 z"
           style="fill:#9c5f33;fill-opacity:1;fill-rule:nonzero;stroke:none"
           id="path4934"
           inkscape:connector-curvature="0" /><path
           d="m 277.159,208.313 c -5.22,20.889 11.684,46.745 25.263,67.52 10.056,15.38 18.738,28.663 16.313,35.688 l 2.454,0.845 c 2.84,-8.225 -5.734,-21.344 -16.592,-37.955 -13.306,-20.35 -29.864,-45.68 -24.919,-65.47 z"
           style="fill:#9c5f33;fill-opacity:1;fill-rule:nonzero;stroke:none"
           id="path4936"
           inkscape:connector-curvature="0" /><path
           d="m 283.65,200.523 c -5.212,20.864 11.902,48.136 27.001,72.198 10.249,16.33 19.929,31.755 17.495,38.8 l 2.455,0.845 c 2.838,-8.217 -6.247,-22.695 -17.75,-41.025 -14.09,-22.453 -31.626,-50.398 -26.682,-70.189 z"
           style="fill:#9c5f33;fill-opacity:1;fill-rule:nonzero;stroke:none"
           id="path4938"
           inkscape:connector-curvature="0" /><path
           d="m 271.804,213.938 c -5.501,22.019 12.153,49.131 25.044,68.925 7.672,11.784 14.921,22.914 12.875,26.861 l 2.303,1.193 c 2.744,-5.288 -3.862,-15.433 -13.005,-29.47 -12.628,-19.393 -29.926,-45.958 -24.699,-66.88 z"
           style="fill:#9c5f33;fill-opacity:1;fill-rule:nonzero;stroke:none"
           id="path4940"
           inkscape:connector-curvature="0" /><path
           d="m 277.159,208.313 c -5.221,20.902 12.357,47.258 27.867,70.512 10.48,15.71 20.377,30.55 17.954,37.564 l 2.455,0.846 c 2.844,-8.228 -6.464,-22.184 -18.248,-39.849 -14.458,-21.678 -32.454,-48.657 -27.509,-68.445 z"
           style="fill:#9c5f33;fill-opacity:1;fill-rule:nonzero;stroke:none"
           id="path4942"
           inkscape:connector-curvature="0" /><path
           d="m 283.65,200.523 c -5.233,20.943 13.939,47.985 30.853,71.844 11.405,16.088 22.178,31.285 19.768,38.269 l 2.454,0.848 c 2.847,-8.244 -7.281,-22.531 -20.105,-40.619 -15.768,-22.244 -35.394,-49.928 -30.451,-69.713 z"
           style="fill:#9c5f33;fill-opacity:1;fill-rule:nonzero;stroke:none"
           id="path4944"
           inkscape:connector-curvature="0" /><path
           d="m 297.692,203.553 c -5.213,20.866 12.717,49.26 28.535,74.311 10.75,17.025 20.903,33.106 18.471,40.147 l 2.455,0.848 c 2.84,-8.221 -6.68,-23.296 -18.731,-42.38 -14.773,-23.394 -33.153,-52.505 -28.211,-72.298 z"
           style="fill:#9c5f33;fill-opacity:1;fill-rule:nonzero;stroke:none"
           id="path4946"
           inkscape:connector-curvature="0" /><path
           d="m 304.183,200.523 c -5.223,20.913 15.059,50.847 32.954,77.256 12.144,17.921 23.613,34.849 21.192,41.854 l 2.456,0.848 c 2.843,-8.232 -7.899,-24.086 -21.499,-44.158 -16.721,-24.675 -37.525,-55.383 -32.584,-75.171 z"
           style="fill:#9c5f33;fill-opacity:1;fill-rule:nonzero;stroke:none"
           id="path4948"
           inkscape:connector-curvature="0" /><path
           d="m 313.308,200.523 c -5.517,22.081 14.676,51.372 29.421,72.758 8.77,12.723 17.054,24.74 15.026,28.653 l 2.305,1.195 c 2.746,-5.298 -4.777,-16.213 -15.193,-31.32 -14.464,-20.981 -34.274,-49.714 -29.042,-70.657 z"
           style="fill:#9c5f33;fill-opacity:1;fill-rule:nonzero;stroke:none"
           id="path4950"
           inkscape:connector-curvature="0" /><path
           d="m 323.895,197.927 c -5.218,20.889 11.683,46.745 25.264,67.52 10.054,15.381 18.738,28.664 16.312,35.687 l 2.455,0.846 c 2.839,-8.225 -5.737,-21.343 -16.594,-37.954 -13.304,-20.352 -29.863,-45.679 -24.919,-65.469 z"
           style="fill:#9c5f33;fill-opacity:1;fill-rule:nonzero;stroke:none"
           id="path4952"
           inkscape:connector-curvature="0" /><path
           d="m 330.386,190.138 c -5.236,20.955 13.862,47.346 30.714,70.633 11.338,15.67 22.049,30.47 19.639,37.442 l 2.455,0.847 c 2.848,-8.247 -7.231,-22.176 -19.993,-39.813 -15.701,-21.695 -35.239,-48.698 -30.296,-68.479 z"
           style="fill:#9c5f33;fill-opacity:1;fill-rule:nonzero;stroke:none"
           id="path4954"
           inkscape:connector-curvature="0" /><path
           d="m 430.525,282.356 c 0,0 0.044,-0.364 0.121,-1.045 0.11,-0.674 0.11,-1.691 0.035,-2.994 -0.087,-0.637 -0.15,-1.354 -0.279,-2.125 -0.168,-0.756 -0.301,-1.599 -0.538,-2.467 -0.462,-1.742 -1.059,-3.698 -1.926,-5.735 -0.817,-2.065 -1.865,-4.224 -3.039,-6.471 -1.207,-2.227 -2.509,-4.562 -4.008,-6.878 -2.932,-4.68 -6.404,-9.432 -10.062,-14.027 -3.691,-4.567 -7.553,-8.993 -11.384,-12.94 -1.891,-1.999 -3.8,-3.853 -5.624,-5.593 -1.818,-1.748 -3.597,-3.336 -5.261,-4.776 -3.325,-2.887 -6.294,-5.059 -8.39,-6.534 -1.06,-0.727 -1.915,-1.259 -2.508,-1.604 -0.589,-0.353 -0.903,-0.539 -0.903,-0.539 0,0 0.287,0.228 0.822,0.655 0.547,0.41 1.298,1.081 2.281,1.889 0.964,0.834 2.125,1.857 3.416,3.074 1.29,1.217 2.712,2.624 4.267,4.15 3.084,3.087 6.58,6.784 10.225,10.833 1.834,2.013 3.65,4.167 5.527,6.322 1.849,2.178 3.712,4.406 5.507,6.687 1.836,2.247 3.603,4.549 5.312,6.835 1.676,2.31 3.364,4.556 4.865,6.818 1.53,2.245 2.944,4.452 4.237,6.576 1.243,2.147 2.425,4.182 3.365,6.131 0.971,1.937 1.739,3.764 2.363,5.409 0.315,0.823 0.52,1.617 0.761,2.342 0.197,0.732 0.329,1.421 0.477,2.036 0.177,1.236 0.355,2.228 0.322,2.92 0.013,0.685 0.019,1.051 0.019,1.051"
           style="fill:#9c5f33;fill-opacity:1;fill-rule:nonzero;stroke:none"
           id="path4956"
           inkscape:connector-curvature="0" /><path
           d="m 448.485,286.33 c 0,0 0.039,-0.383 0.112,-1.102 0.042,-0.36 0.096,-0.8 0.058,-1.331 -0.03,-0.524 0.003,-1.154 -0.116,-1.823 -0.175,-1.351 -0.499,-2.984 -1.06,-4.801 -0.553,-1.817 -1.291,-3.839 -2.292,-5.949 -0.961,-2.129 -2.148,-4.361 -3.485,-6.674 -1.364,-2.293 -2.826,-4.7 -4.492,-7.081 -3.261,-4.818 -7.076,-9.701 -11.063,-14.433 -2.001,-2.361 -4.073,-4.658 -6.121,-6.908 -2.05,-2.249 -4.151,-4.385 -6.194,-6.442 -2.036,-2.06 -4.07,-3.986 -6.024,-5.786 -1.941,-1.813 -3.839,-3.462 -5.605,-4.965 -1.764,-1.503 -3.432,-2.824 -4.932,-3.965 -1.5,-1.14 -2.834,-2.099 -3.939,-2.878 -1.118,-0.762 -2.017,-1.331 -2.641,-1.697 -0.621,-0.371 -0.95,-0.569 -0.95,-0.569 0,0 0.302,0.238 0.869,0.687 0.578,0.43 1.37,1.137 2.414,1.981 1.022,0.876 2.25,1.948 3.626,3.217 1.355,1.29 2.883,2.744 4.551,4.33 1.628,1.624 3.394,3.385 5.257,5.249 1.849,1.881 3.757,3.899 5.73,5.988 1.981,2.084 3.952,4.307 5.985,6.536 2.009,2.248 4.034,4.548 5.993,6.901 2.004,2.318 3.934,4.693 5.814,7.045 1.844,2.38 3.698,4.695 5.367,7.025 1.693,2.311 3.265,4.589 4.713,6.776 1.402,2.213 2.717,4.318 3.798,6.328 0.558,0.999 1.052,1.976 1.496,2.915 0.484,0.925 0.858,1.836 1.217,2.692 0.712,1.711 1.176,3.262 1.473,4.561 0.239,1.297 0.444,2.334 0.414,3.066 0.017,0.722 0.027,1.107 0.027,1.107"
           style="fill:#9c5f33;fill-opacity:1;fill-rule:nonzero;stroke:none"
           id="path4958"
           inkscape:connector-curvature="0" /><path
           d="m 436.068,293.618 c 0.011,-0.033 -0.537,-0.043 -1.442,-0.403 -0.908,-0.333 -2.157,-1.052 -3.548,-2.204 -1.391,-1.153 -2.926,-2.742 -4.501,-4.719 -1.584,-1.973 -3.234,-4.305 -4.973,-6.895 -3.444,-5.206 -7.162,-11.489 -11.114,-18.251 -1.982,-3.382 -4.032,-6.879 -6.114,-10.43 -2.105,-3.54 -4.257,-7.133 -6.46,-10.701 -2.224,-3.553 -4.496,-7.082 -6.803,-10.512 -2.3,-3.437 -4.701,-6.731 -7.088,-9.871 -4.789,-6.267 -9.771,-11.771 -14.586,-15.904 -4.798,-4.161 -9.481,-6.792 -12.929,-8.091 -1.72,-0.677 -3.134,-1.006 -4.092,-1.216 -0.967,-0.176 -1.483,-0.271 -1.483,-0.271 0,0 0.503,0.143 1.447,0.408 0.935,0.287 2.284,0.778 3.931,1.544 3.318,1.488 7.628,4.453 12.126,8.732 4.492,4.293 9.169,9.87 13.756,16.169 2.306,3.14 4.554,6.485 6.833,9.892 2.265,3.417 4.492,6.941 6.685,10.49 2.216,3.533 4.389,7.099 6.516,10.62 2.147,3.514 4.262,6.971 6.306,10.315 4.12,6.68 8.096,12.861 11.855,17.93 3.741,5.073 7.354,9.001 10.382,11.16 1.499,1.098 2.862,1.677 3.814,1.941 0.953,0.277 1.487,0.233 1.482,0.267"
           style="fill:#9c5f33;fill-opacity:1;fill-rule:nonzero;stroke:none"
           id="path4960"
           inkscape:connector-curvature="0" /><path
           d="m 418.659,283.341 c 0.011,-0.024 -0.464,0.021 -1.242,-0.237 -0.783,-0.264 -1.8,-0.944 -2.908,-2.002 -2.247,-2.107 -4.699,-5.819 -7.446,-10.354 -2.737,-4.555 -5.742,-9.995 -9.042,-15.795 -1.657,-2.895 -3.348,-5.906 -5.156,-8.914 -1.801,-3.014 -3.667,-6.059 -5.589,-9.071 -1.941,-2.999 -3.956,-5.958 -6.016,-8.818 -2.051,-2.868 -4.209,-5.595 -6.38,-8.169 -4.351,-5.132 -8.912,-9.546 -13.305,-12.714 -4.355,-3.225 -8.536,-5.072 -11.513,-6.033 -1.494,-0.484 -2.705,-0.728 -3.526,-0.88 -0.824,-0.14 -1.264,-0.212 -1.264,-0.212 0,0 0.429,0.121 1.231,0.349 0.8,0.23 1.951,0.639 3.384,1.218 1.423,0.605 3.113,1.418 4.945,2.536 1.825,1.123 3.793,2.534 5.831,4.201 4.072,3.347 8.319,7.837 12.453,12.99 2.08,2.567 4.082,5.342 6.103,8.17 2.01,2.837 3.972,5.782 5.876,8.767 1.93,2.97 3.81,5.976 5.626,8.961 1.817,2.987 3.605,5.927 5.336,8.77 3.454,5.705 6.712,11.03 9.757,15.448 3.025,4.424 5.901,7.928 8.365,9.927 1.217,1.011 2.374,1.569 3.198,1.759 0.842,0.179 1.28,0.075 1.282,0.103"
           style="fill:#9c5f33;fill-opacity:1;fill-rule:nonzero;stroke:none"
           id="path4962"
           inkscape:connector-curvature="0" /><path
           d="m 411.093,285.771 c 0,0 -0.109,-0.024 -0.322,-0.07 -0.208,-0.051 -0.529,-0.096 -0.919,-0.244 -0.789,-0.24 -1.906,-0.759 -3.164,-1.641 -1.261,-0.881 -2.651,-2.146 -4.089,-3.743 -1.442,-1.594 -2.913,-3.533 -4.465,-5.684 -3.071,-4.335 -6.316,-9.643 -9.778,-15.358 -1.739,-2.851 -3.491,-5.832 -5.346,-8.818 -1.849,-2.992 -3.748,-6.024 -5.696,-9.03 -1.97,-2.992 -4.001,-5.949 -6.073,-8.813 -2.058,-2.875 -4.242,-5.596 -6.415,-8.179 -4.355,-5.152 -8.971,-9.549 -13.38,-12.715 -4.383,-3.217 -8.602,-5.018 -11.588,-5.972 -1.503,-0.477 -2.715,-0.72 -3.539,-0.87 -0.826,-0.139 -1.268,-0.212 -1.268,-0.212 0,0 0.43,0.122 1.235,0.349 0.804,0.228 1.96,0.636 3.4,1.208 1.43,0.597 3.131,1.402 4.976,2.509 1.846,1.107 3.826,2.509 5.88,4.172 4.092,3.346 8.382,7.814 12.522,12.99 4.143,5.175 8.21,10.993 12.08,16.954 1.957,2.966 3.872,5.964 5.741,8.934 1.886,2.963 3.741,5.879 5.54,8.701 3.624,5.631 7.135,10.841 10.527,15.045 3.353,4.224 6.717,7.356 9.466,8.956 1.364,0.819 2.576,1.188 3.402,1.354 0.411,0.105 0.731,0.114 0.947,0.143 0.215,0.023 0.326,0.034 0.326,0.034"
           style="fill:#9c5f33;fill-opacity:1;fill-rule:nonzero;stroke:none"
           id="path4964"
           inkscape:connector-curvature="0" /><path
           d="m 322.898,201.84 -0.496,2.548 c 20.02,3.892 37.07,32.184 50.769,54.918 11.162,18.521 19.978,33.15 28.642,34.055 l 0.269,-2.581 c -7.377,-0.771 -16.756,-16.337 -26.686,-32.814 -14.692,-24.381 -31.346,-52.015 -52.498,-56.126"
           style="fill:#9c5f33;fill-opacity:1;fill-rule:nonzero;stroke:none"
           id="path4966"
           inkscape:connector-curvature="0" /><path
           d="m 287.216,376.854 c -7.528,13.956 -6.848,34.998 20.574,33.266 27.423,-1.73 46.646,-12.819 60.999,-19.31 14.352,-6.491 38.232,-22.501 48.796,-24.232 10.561,-1.732 15.321,-21.854 17.485,-31.266 2.162,-9.413 7.967,-42.416 -4.759,-46.627 -12.726,-4.211 -18.609,-3.029 -25.964,5.625 -7.359,8.653 -23.079,10.999 -35.558,15.451 -12.476,4.455 -28.272,4.13 -36.062,10.73 -7.789,6.599 -11.786,30.724 -21.581,36.89 -9.792,6.167 -17.091,6.796 -23.93,19.473"
           style="fill:#999999;fill-opacity:1;fill-rule:nonzero;stroke:none"
           id="path4968"
           inkscape:connector-curvature="0" /><path
           d="m 291.049,379.026 c -1.775,13.542 0.465,26.498 27.886,24.766 27.425,-1.73 37.791,-11.086 52.141,-17.578 14.355,-6.49 30.821,-19.204 41.382,-20.934 10.563,-1.732 16.463,-19.583 18.626,-28.995 2.163,-9.412 12.257,-38.456 -0.47,-42.667 -12.725,-4.212 -23.942,-3.798 -31.3,4.857 -7.356,8.654 -10.257,5.535 -22.735,9.988 -12.478,4.454 -28.272,4.129 -36.063,10.73 -7.79,6.599 -11.786,30.724 -21.581,36.89 -9.792,6.167 -26.015,8.662 -27.886,22.943"
           style="fill:#cccccc;fill-opacity:1;fill-rule:nonzero;stroke:none"
           id="path4970"
           inkscape:connector-curvature="0" /><path
           d="m 306.044,373.136 c -1.586,12.152 -5.562,27.181 18.948,25.626 24.51,-1.554 39.759,-14.477 52.586,-20.301 12.827,-5.826 27.547,-17.233 36.986,-18.788 9.44,-1.552 14.715,-17.569 16.647,-26.016 1.932,-8.446 10.956,-34.51 -0.418,-38.286 -11.376,-3.779 -21.401,-3.408 -27.979,4.356 -6.575,7.768 -9.168,4.966 -20.32,8.962 -11.151,3.998 -25.269,3.707 -32.229,9.629 -6.963,5.923 -10.536,27.571 -19.29,33.104 -8.752,5.533 -23.258,8.899 -24.931,21.714"
           style="fill:#f2f2f2;fill-opacity:1;fill-rule:nonzero;stroke:none"
           id="path4972"
           inkscape:connector-curvature="0" /><g
           id="g4974"><g
             id="g4976"
             clip-path="url(#clipPath4980)"><g
               id="g4982"><g
                 id="g4984"><g
                   id="g4990"><g
                     id="g4992"><g
                       id="g4994"
                       clip-path="url(#clipPath4998)"><path
                         d="m 262.535,430.009 h 208.866 v -154.9 H 262.535 Z"
                         style="fill:url(#linearGradient5004);stroke:none"
                         id="path5006"
                         inkscape:connector-curvature="0" /></g></g></g></g></g></g></g><path
           d="m 235.69,278.313 -0.875,0.958 c 1.836,1.673 -2.58,9.295 -5.803,14.86 -3.595,6.207 -5.589,9.798 -4.772,11.439 0.157,0.316 0.493,0.712 1.198,0.797 0.462,0.058 0.925,0.432 1.377,1.118 3.039,4.607 3.788,21.106 1.888,27.646 -4.498,15.478 5.031,32.482 16.439,39.359 6.167,3.717 5.469,7.323 4.502,12.311 -0.702,3.617 -1.496,7.714 -0.036,12.842 2.438,8.557 10.414,9.763 15.693,10.561 2.339,0.352 4.55,0.687 5.131,1.529 l 1.069,-0.734 c -0.899,-1.308 -3.153,-1.648 -6.007,-2.08 -5.244,-0.792 -12.428,-1.877 -14.637,-9.632 -1.376,-4.829 -0.612,-8.766 0.06,-12.239 0.988,-5.089 1.839,-9.485 -5.105,-13.669 -10.997,-6.63 -20.188,-22.998 -15.863,-37.886 1.808,-6.219 1.457,-23.405 -2.05,-28.724 -0.671,-1.015 -1.445,-1.584 -2.304,-1.689 -0.158,-0.019 -0.182,-0.065 -0.193,-0.089 -0.545,-1.095 2.382,-6.149 4.734,-10.208 4.197,-7.247 8.163,-14.092 5.554,-16.47"
           style="fill:#9c5f33;fill-opacity:1;fill-rule:nonzero;stroke:none"
           id="path5008"
           inkscape:connector-curvature="0" /><path
           d="m 244.201,266.922 -0.875,0.958 c 1.835,1.675 -2.58,9.298 -5.804,14.863 -3.594,6.205 -5.588,9.797 -4.771,11.438 0.156,0.315 0.493,0.711 1.198,0.796 0.462,0.057 0.925,0.433 1.377,1.119 3.039,4.607 3.787,21.106 1.888,27.645 -4.499,15.478 5.03,32.481 16.437,39.358 6.168,3.717 5.471,7.323 4.503,12.312 -0.701,3.616 -1.496,7.713 -0.035,12.842 2.438,8.559 10.414,9.762 15.693,10.56 2.339,0.354 4.55,0.687 5.13,1.529 l 1.07,-0.735 c -0.899,-1.307 -3.154,-1.646 -6.007,-2.078 -5.245,-0.792 -12.429,-1.877 -14.637,-9.632 -1.376,-4.831 -0.613,-8.765 0.06,-12.238 0.987,-5.09 1.839,-9.486 -5.105,-13.671 -10.997,-6.629 -20.189,-22.998 -15.863,-37.885 1.807,-6.22 1.457,-23.406 -2.05,-28.723 -0.671,-1.017 -1.447,-1.585 -2.304,-1.691 -0.158,-0.019 -0.182,-0.065 -0.193,-0.088 -0.546,-1.095 2.382,-6.148 4.733,-10.207 4.198,-7.248 8.163,-14.094 5.555,-16.472"
           style="fill:#9c5f33;fill-opacity:1;fill-rule:nonzero;stroke:none"
           id="path5010"
           inkscape:connector-curvature="0" /><path
           d="m 265.102,231.438 -0.875,0.958 c 1.836,1.675 -2.58,9.298 -5.803,14.864 -3.595,6.205 -5.589,9.798 -4.772,11.438 0.157,0.315 0.494,0.71 1.198,0.797 0.462,0.058 0.926,0.432 1.378,1.116 3.039,4.608 3.786,21.106 1.887,27.646 -4.498,15.478 5.031,32.483 16.439,39.359 6.167,3.717 5.468,7.323 4.502,12.311 -0.702,3.617 -1.496,7.714 -0.036,12.842 2.438,8.558 10.415,9.763 15.692,10.561 2.341,0.352 4.552,0.687 5.131,1.529 l 1.07,-0.734 c -0.899,-1.307 -3.152,-1.648 -6.007,-2.08 -5.244,-0.792 -12.429,-1.878 -14.637,-9.632 -1.376,-4.829 -0.613,-8.765 0.059,-12.238 0.989,-5.091 1.839,-9.486 -5.104,-13.671 -10.997,-6.629 -20.188,-22.997 -15.863,-37.886 1.808,-6.219 1.457,-23.406 -2.049,-28.721 -0.672,-1.016 -1.447,-1.585 -2.305,-1.69 -0.158,-0.019 -0.182,-0.064 -0.193,-0.089 -0.546,-1.096 2.382,-6.147 4.733,-10.209 4.199,-7.248 8.163,-14.092 5.555,-16.471"
           style="fill:#9c5f33;fill-opacity:1;fill-rule:nonzero;stroke:none"
           id="path5012"
           inkscape:connector-curvature="0" /><path
           d="m 256.668,244.691 -0.875,0.958 c 0.225,0.205 0.255,0.384 0.256,0.518 0.011,1.151 -2.168,3.222 -4.475,5.414 -3.98,3.781 -8.932,8.485 -8.971,13.758 -0.02,2.546 1.137,4.976 3.437,7.227 12.083,11.823 14.629,21.194 14.638,26.972 0.007,4.471 -1.532,8.558 -4.226,11.21 -2.912,2.867 -6.175,6.769 -5.56,11.519 0.596,4.601 4.645,8.99 12.376,13.416 6.141,3.516 5.219,7.365 3.944,12.693 -0.931,3.892 -1.986,8.304 -0.498,13.535 2.436,8.55 9.818,9.371 14.703,9.916 2.273,0.253 4.237,0.471 4.814,1.307 l 1.07,-0.735 c -0.912,-1.325 -3.043,-1.563 -5.739,-1.863 -5.081,-0.566 -11.401,-1.269 -13.598,-8.981 -1.397,-4.905 -0.383,-9.139 0.512,-12.875 1.299,-5.433 2.421,-10.126 -4.561,-14.123 -7.254,-4.155 -11.202,-8.345 -11.735,-12.456 -0.542,-4.184 2.485,-7.77 5.183,-10.427 2.939,-2.897 4.621,-7.32 4.614,-12.138 -0.01,-6.026 -2.626,-15.759 -15.029,-27.898 -2.066,-2.023 -3.064,-4.08 -3.047,-6.288 0.034,-4.721 4.765,-9.217 8.567,-12.827 2.736,-2.598 4.896,-4.651 4.879,-6.369 -0.005,-0.565 -0.235,-1.058 -0.679,-1.463"
           style="fill:#9c5f33;fill-opacity:1;fill-rule:nonzero;stroke:none"
           id="path5014"
           inkscape:connector-curvature="0" /><path
           d="m 285.022,204.314 -0.875,0.959 c 1.835,1.673 -2.579,9.295 -5.803,14.86 -3.594,6.207 -5.588,9.799 -4.772,11.439 0.157,0.316 0.493,0.71 1.198,0.797 1.41,0.173 4.531,5.124 7.537,13.96 3.357,9.864 5.293,21.29 2.499,24.043 -6.13,6.035 2.949,20.916 6.67,24.817 4.922,5.165 4.262,8.861 3.423,13.544 -0.628,3.513 -1.341,7.495 0.169,12.801 2.437,8.55 9.819,9.373 14.703,9.916 2.273,0.254 4.237,0.471 4.814,1.307 l 1.07,-0.734 c -0.913,-1.326 -3.043,-1.563 -5.739,-1.863 -5.08,-0.566 -11.401,-1.27 -13.599,-8.981 -1.428,-5.019 -0.744,-8.844 -0.139,-12.219 0.866,-4.844 1.616,-9.028 -3.763,-14.664 -3.741,-3.924 -11.853,-17.923 -6.699,-22.999 3.571,-3.518 1.057,-15.872 -2.179,-25.387 -0.816,-2.399 -5.071,-14.396 -8.609,-14.828 -0.159,-0.02 -0.182,-0.065 -0.195,-0.089 -0.544,-1.096 2.383,-6.149 4.736,-10.207 4.196,-7.248 8.162,-14.093 5.553,-16.472"
           style="fill:#9c5f33;fill-opacity:1;fill-rule:nonzero;stroke:none"
           id="path5016"
           inkscape:connector-curvature="0" /><path
           d="m 272.04,214.7 -0.875,0.958 c 1.836,1.674 -2.58,9.296 -5.803,14.861 -3.595,6.207 -5.589,9.798 -4.772,11.438 0.157,0.316 0.493,0.712 1.198,0.798 0.874,0.108 2.288,1.627 3.629,5.568 2.732,8.032 3.23,19.538 -0.196,22.913 -6.241,6.146 10.145,31.062 13.273,34.34 4.923,5.162 4.262,8.86 3.423,13.542 -0.628,3.514 -1.341,7.495 0.169,12.802 2.436,8.55 9.818,9.372 14.703,9.916 2.274,0.253 4.237,0.471 4.815,1.307 l 1.069,-0.734 c -0.912,-1.326 -3.043,-1.563 -5.739,-1.864 -5.08,-0.566 -11.402,-1.269 -13.599,-8.981 -1.428,-5.017 -0.744,-8.842 -0.139,-12.218 0.866,-4.845 1.616,-9.029 -3.763,-14.665 -4.261,-4.469 -18.221,-27.675 -13.301,-32.519 4.228,-4.166 2.987,-16.986 0.514,-24.257 -0.95,-2.79 -2.537,-6.173 -4.701,-6.438 -0.158,-0.021 -0.181,-0.065 -0.193,-0.089 -0.545,-1.095 2.382,-6.149 4.734,-10.207 4.198,-7.248 8.162,-14.093 5.554,-16.471"
           style="fill:#9c5f33;fill-opacity:1;fill-rule:nonzero;stroke:none"
           id="path5018"
           inkscape:connector-curvature="0" /><path
           d="m 355.633,199.386 -1.294,0.125 c 0.335,3.512 8.19,4.453 16.505,5.45 4.66,0.558 10.457,1.253 11.004,2.346 0.012,0.024 0.035,0.067 -0.046,0.206 -1.778,3.09 5.257,13.692 6.683,15.785 5.665,8.306 14.015,17.753 18.995,16.997 7.17,-1.075 13.477,13.819 14.364,19.166 1.278,7.686 5.074,9.601 9.469,11.816 3.059,1.545 6.531,3.294 9.682,7.45 4.849,6.388 1.613,11.866 -0.983,16.267 -1.382,2.335 -2.471,4.182 -1.957,5.708 l 1.228,-0.413 c -0.324,-0.964 0.683,-2.666 1.845,-4.636 2.499,-4.23 6.275,-10.627 0.902,-17.711 -3.335,-4.395 -6.945,-6.216 -10.133,-7.823 -4.246,-2.143 -7.6,-3.834 -8.773,-10.872 -0.882,-5.318 -7.317,-21.525 -15.837,-20.235 -3.821,0.572 -11.853,-7.832 -17.728,-16.445 -5.257,-7.708 -7.338,-13.174 -6.63,-14.407 0.354,-0.613 0.24,-1.118 0.081,-1.434 -0.822,-1.639 -4.889,-2.202 -12.012,-3.054 -6.385,-0.765 -15.13,-1.813 -15.365,-4.286"
           style="fill:#9c5f33;fill-opacity:1;fill-rule:nonzero;stroke:none"
           id="path5020"
           inkscape:connector-curvature="0" /><path
           d="m 321.361,193.131 -1.291,0.125 c 0.335,3.513 8.19,4.453 16.505,5.448 4.657,0.559 10.457,1.253 11.005,2.347 0.012,0.023 0.034,0.068 -0.046,0.207 -1.088,1.89 0.664,5.189 2.325,7.626 4.329,6.343 13.831,15.042 19.704,14.156 6.831,-1.026 16.999,24.077 18.013,30.166 1.278,7.687 5.073,9.599 9.468,11.816 3.06,1.545 6.531,3.294 9.684,7.45 4.847,6.388 1.612,11.864 -0.985,16.265 -1.382,2.337 -2.472,4.184 -1.957,5.71 l 1.229,-0.413 c -0.325,-0.967 0.682,-2.667 1.846,-4.638 2.497,-4.23 6.274,-10.627 0.901,-17.708 -3.334,-4.396 -6.948,-6.217 -10.133,-7.825 -4.247,-2.142 -7.601,-3.835 -8.774,-10.871 -0.745,-4.471 -10.841,-32.529 -19.484,-31.235 -4.763,0.7 -13.657,-6.595 -18.439,-13.605 -2.346,-3.44 -2.711,-5.482 -2.272,-6.247 0.354,-0.613 0.241,-1.121 0.081,-1.436 -0.821,-1.638 -4.889,-2.2 -12.011,-3.053 -6.387,-0.764 -15.132,-1.812 -15.369,-4.285"
           style="fill:#9c5f33;fill-opacity:1;fill-rule:nonzero;stroke:none"
           id="path5022"
           inkscape:connector-curvature="0" /><path
           d="m 329.473,188.317 -1.291,0.124 c 0.335,3.513 8.187,4.455 16.505,5.45 4.658,0.557 10.457,1.252 11.003,2.346 0.013,0.025 0.037,0.069 -0.044,0.207 -1.088,1.89 0.664,5.191 2.324,7.626 4.329,6.342 13.832,15.042 19.704,14.156 6.823,-1.029 16.999,24.078 18.013,30.166 1.278,7.686 5.074,9.6 9.467,11.816 3.061,1.545 6.533,3.294 9.684,7.45 4.849,6.389 1.613,11.863 -0.984,16.265 -1.381,2.337 -2.472,4.183 -1.957,5.71 l 1.23,-0.413 c -0.325,-0.964 0.682,-2.666 1.846,-4.637 2.498,-4.231 6.273,-10.627 0.9,-17.71 -3.335,-4.394 -6.947,-6.217 -10.133,-7.824 -4.246,-2.142 -7.6,-3.834 -8.772,-10.87 -0.743,-4.472 -10.824,-32.526 -19.487,-31.237 -4.753,0.704 -13.656,-6.592 -18.438,-13.604 -2.346,-3.439 -2.71,-5.482 -2.272,-6.246 0.355,-0.613 0.241,-1.121 0.082,-1.437 -0.823,-1.637 -4.892,-2.201 -12.012,-3.051 -6.386,-0.766 -15.131,-1.813 -15.368,-4.287"
           style="fill:#9c5f33;fill-opacity:1;fill-rule:nonzero;stroke:none"
           id="path5024"
           inkscape:connector-curvature="0" /><path
           d="m 300.59,203.518 -1.29,0.123 c 0.334,3.512 8.188,4.454 16.504,5.449 4.659,0.557 10.457,1.253 11.005,2.347 0.011,0.024 0.034,0.069 -0.045,0.207 -1.089,1.889 0.664,5.19 2.323,7.626 4.329,6.341 13.82,15.034 19.704,14.155 6.806,-1.012 16.999,24.078 18.014,30.166 1.277,7.686 5.074,9.6 9.467,11.818 3.06,1.543 6.532,3.292 9.683,7.448 4.849,6.389 1.613,11.865 -0.983,16.266 -1.382,2.336 -2.473,4.183 -1.957,5.709 l 1.229,-0.413 c -0.325,-0.965 0.682,-2.666 1.846,-4.637 2.497,-4.23 6.273,-10.627 0.9,-17.709 -3.334,-4.395 -6.947,-6.218 -10.133,-7.825 -4.246,-2.141 -7.6,-3.834 -8.773,-10.869 -0.743,-4.471 -10.821,-32.512 -19.484,-31.236 -4.75,0.703 -13.658,-6.595 -18.44,-13.606 -2.346,-3.438 -2.712,-5.481 -2.271,-6.246 0.354,-0.613 0.238,-1.12 0.081,-1.436 -0.822,-1.638 -4.89,-2.201 -12.012,-3.053 -6.387,-0.765 -15.131,-1.812 -15.368,-4.284"
           style="fill:#9c5f33;fill-opacity:1;fill-rule:nonzero;stroke:none"
           id="path5026"
           inkscape:connector-curvature="0" /><path
           d="m 336.95,177.052 -0.875,0.958 c 1.836,1.674 -2.578,9.296 -5.801,14.86 -3.596,6.207 -5.591,9.798 -4.773,11.439 0.157,0.316 0.493,0.712 1.198,0.797 0.875,0.109 2.287,1.627 3.629,5.569 2.733,8.033 3.23,19.538 -0.197,22.912 -6.24,6.146 10.147,31.062 13.273,34.34 4.923,5.163 4.262,8.861 3.424,13.543 -0.628,3.512 -1.341,7.495 0.171,12.801 2.437,8.55 9.817,9.373 14.701,9.916 2.275,0.252 4.239,0.47 4.816,1.308 l 1.069,-0.734 c -0.913,-1.327 -3.045,-1.565 -5.741,-1.864 -5.078,-0.566 -11.4,-1.269 -13.598,-8.981 -1.429,-5.02 -0.743,-8.843 -0.139,-12.218 0.867,-4.844 1.616,-9.028 -3.763,-14.666 -4.26,-4.468 -18.221,-27.676 -13.301,-32.519 4.228,-4.164 2.987,-16.986 0.514,-24.256 -0.951,-2.791 -2.536,-6.173 -4.703,-6.439 -0.157,-0.02 -0.179,-0.064 -0.19,-0.089 -0.545,-1.095 2.381,-6.148 4.733,-10.207 4.197,-7.247 8.162,-14.091 5.553,-16.47"
           style="fill:#9c5f33;fill-opacity:1;fill-rule:nonzero;stroke:none"
           id="path5028"
           inkscape:connector-curvature="0" /><path
           d="m 314.882,187.438 -0.876,0.958 c 1.836,1.673 -2.578,9.295 -5.803,14.86 -3.594,6.207 -5.588,9.799 -4.771,11.439 0.156,0.316 0.492,0.711 1.197,0.797 0.874,0.109 2.287,1.626 3.629,5.57 2.733,8.031 3.23,19.537 -0.195,22.912 -6.242,6.146 10.144,31.06 13.272,34.339 4.923,5.162 4.263,8.86 3.423,13.542 -0.627,3.513 -1.341,7.496 0.171,12.801 2.435,8.552 9.817,9.374 14.702,9.917 2.273,0.252 4.237,0.471 4.814,1.308 l 1.071,-0.735 c -0.913,-1.326 -3.045,-1.563 -5.743,-1.864 -5.078,-0.565 -11.398,-1.269 -13.596,-8.98 -1.429,-5.02 -0.744,-8.844 -0.139,-12.219 0.864,-4.844 1.614,-9.027 -3.764,-14.666 -4.26,-4.467 -18.221,-27.674 -13.301,-32.518 4.229,-4.165 2.988,-16.986 0.514,-24.257 -0.951,-2.79 -2.537,-6.173 -4.7,-6.438 -0.159,-0.019 -0.182,-0.064 -0.194,-0.088 -0.545,-1.095 2.382,-6.149 4.734,-10.207 4.196,-7.248 8.163,-14.094 5.555,-16.471"
           style="fill:#511c00;fill-opacity:1;fill-rule:nonzero;stroke:none"
           id="path5030"
           inkscape:connector-curvature="0" /><path
           d="m 378.896,360.249 c 0,-5.617 -4.873,-10.17 -10.887,-10.17 -6.015,0 -10.888,4.553 -10.888,10.17 0,5.616 4.873,10.169 10.888,10.169 6.014,0 10.887,-4.553 10.887,-10.169"
           style="fill:#ffffff;fill-opacity:1;fill-rule:nonzero;stroke:none"
           id="path5032"
           inkscape:connector-curvature="0" /><path
           d="m 341.704,375.732 c 0,-5.616 -4.874,-10.169 -10.889,-10.169 -6.012,0 -10.887,4.553 -10.887,10.169 0,5.617 4.875,10.171 10.887,10.171 6.015,0 10.889,-4.554 10.889,-10.171"
           style="fill:#ffffff;fill-opacity:1;fill-rule:nonzero;stroke:none"
           id="path5034"
           inkscape:connector-curvature="0" /><path
           d="m 392.324,328.93 c 0,-5.617 -4.875,-10.171 -10.889,-10.171 -6.012,0 -10.888,4.554 -10.888,10.171 0,5.616 4.876,10.168 10.888,10.168 6.014,0 10.889,-4.552 10.889,-10.168"
           style="fill:#ffffff;fill-opacity:1;fill-rule:nonzero;stroke:none"
           id="path5036"
           inkscape:connector-curvature="0" /><path
           d="m 398.869,347.462 c 0,-2.473 -1.803,-4.48 -4.029,-4.48 -2.223,0 -4.027,2.007 -4.027,4.48 0,2.473 1.804,4.479 4.027,4.479 2.226,0 4.029,-2.006 4.029,-4.479"
           style="fill:#ffffff;fill-opacity:1;fill-rule:nonzero;stroke:none"
           id="path5038"
           inkscape:connector-curvature="0" /><path
           d="m 363.546,401.509 c 0,-1.524 -1.113,-2.761 -2.484,-2.761 -1.371,0 -2.483,1.237 -2.483,2.761 0,1.525 1.112,2.762 2.483,2.762 1.371,0 2.484,-1.237 2.484,-2.762"
           style="fill:#ffffff;fill-opacity:1;fill-rule:nonzero;stroke:none"
           id="path5040"
           inkscape:connector-curvature="0" /><path
           d="m 329.652,412.717 c 0,-2.473 -1.802,-4.48 -4.027,-4.48 -2.226,0 -4.029,2.007 -4.029,4.48 0,2.473 1.803,4.479 4.029,4.479 2.225,0 4.027,-2.006 4.027,-4.479"
           style="fill:#ffffff;fill-opacity:1;fill-rule:nonzero;stroke:none"
           id="path5042"
           inkscape:connector-curvature="0" /><path
           d="m 416.895,375.732 c 0,-2.473 -1.803,-4.479 -4.03,-4.479 -2.223,0 -4.026,2.006 -4.026,4.479 0,2.475 1.803,4.481 4.026,4.481 2.227,0 4.03,-2.006 4.03,-4.481"
           style="fill:#ffffff;fill-opacity:1;fill-rule:nonzero;stroke:none"
           id="path5044"
           inkscape:connector-curvature="0" /><path
           d="m 420.573,333.688 c 0,-4.061 -4.244,-7.355 -9.48,-7.355 -5.236,0 -9.481,3.294 -9.481,7.355 0,4.064 4.245,7.357 9.481,7.357 5.236,0 9.48,-3.293 9.48,-7.357"
           style="fill:#ffffff;fill-opacity:1;fill-rule:nonzero;stroke:none"
           id="path5046"
           inkscape:connector-curvature="0" /></g></g></g></svg>