<svg id="publicdomainvectors.org" xmlns="http://www.w3.org/2000/svg" viewBox="0 0 4660 500"><defs><style>.cls-1{fill:#abd066;}.cls-12,.cls-2{fill:#84a644;}.cls-3{fill:#c6de7e;}.cls-10,.cls-11,.cls-12,.cls-13,.cls-14,.cls-15,.cls-16,.cls-19,.cls-22,.cls-24,.cls-25,.cls-26,.cls-28,.cls-3,.cls-30,.cls-32,.cls-34,.cls-35,.cls-36,.cls-37,.cls-38,.cls-40,.cls-41,.cls-42,.cls-44,.cls-6,.cls-7,.cls-8,.cls-9{fill-rule:evenodd;}.cls-4,.cls-7{fill:#c45616;}.cls-5{fill:#def2ff;}.cls-6{fill:#f0f9ff;}.cls-8{fill:#a6450d;}.cls-9{fill:#823103;}.cls-10{fill:#5f992c;}.cls-11{fill:#7dbd44;}.cls-13{fill:#c25719;}.cls-14{fill:#e37636;}.cls-15,.cls-17{fill:#fff;}.cls-16,.cls-18{fill:#fc0;}.cls-19{fill:#2da3ca;}.cls-20{fill:#a8440a;}.cls-21{fill:#dff0aa;}.cls-22{fill:#f5793b;}.cls-23{fill:#a5f2e3;}.cls-24{fill:#c4f2e9;}.cls-25{fill:#2e5a99;}.cls-26{fill:#507096;}.cls-27{fill:#96998f;}.cls-28{fill:#d1d1d1;}.cls-29{fill:#f9cdf9;}.cls-30{fill:#f3dcf4;}.cls-31{fill:#ffd41e;}.cls-32{fill:#f7e286;}.cls-33{fill:#f9f9a5;}.cls-34{fill:#f4f2b8;}.cls-35{fill:#d81507;}.cls-36{fill:#ff1c00;}.cls-37{fill:#ff5ce9;}.cls-38{fill:#f982ee;}.cls-39{fill:#92e5ff;}.cls-40{fill:#b6effc;}.cls-41{fill:#8c44ea;}.cls-42{fill:#a045ff;}.cls-43{fill:#f9ff64;}.cls-44{fill:#f0ffaa;}</style></defs><title>bedroom</title><rect class="cls-1" width="500" height="500"/><ellipse class="cls-2" cx="250" cy="420.64" rx="250" ry="6.34"/><polygon class="cls-3" points="500 246.32 500 421.64 0 421.64 0 327.79 69.84 91.85 500 246.32"/><rect class="cls-4" y="77.38" width="101.77" height="249.01"/><rect class="cls-5" y="91.85" width="87.3" height="220.07"/><path class="cls-6" d="M87.31,138.7v48.14L0,155.49V107.35L87.31,138.7Zm0,77.35L0,184.7v73.39l87.31,31.35Z"/><path class="cls-7" d="M107.74,51.09h44.19a5.48,5.48,0,0,1,5.46,5.46h0A5.47,5.47,0,0,1,151.93,62H107.74Z"/><path class="cls-8" d="M148.09,65.16,125.81,87.45h-10.3l10.3-41.18h14.46a11.06,11.06,0,0,1,7.82,18.89Z"/><path class="cls-9" d="M137.8,65.16,115.51,87.45V46.27H130a11.06,11.06,0,0,1,7.82,18.89Z"/><path class="cls-7" d="M0,51.09H127.11a5.47,5.47,0,0,1,5.45,5.46h0A5.46,5.46,0,0,1,127.11,62H0Z"/><path class="cls-10" d="M69.84,62v94.45a271.62,271.62,0,0,0,36.39,135.82V400h26.33V55.76h-.05a5.49,5.49,0,0,0-5.4-4.67H64.44a5.48,5.48,0,0,1,5.46,5.46h0Z"/><path class="cls-11" d="M69.84,91.85v64.6a271.62,271.62,0,0,0,36.39,135.82V400h26.33V114.37Z"/><path class="cls-12" d="M351.89,258.59h98.89c21.07,0,38.3,15.94,38.3,35.41V423.22H313.59V294C313.59,274.53,330.83,258.59,351.89,258.59Z"/><path class="cls-13" d="M331.54,243.58h98.9a38.42,38.42,0,0,1,38.3,38.3V421.64H293.25V281.88A38.41,38.41,0,0,1,331.54,243.58Z"/><path class="cls-14" d="M320.06,243.58H419a38.41,38.41,0,0,1,38.3,38.3V421.64H281.76V281.88A38.42,38.42,0,0,1,320.06,243.58Z"/><path class="cls-15" d="M311.33,305h64.32a35,35,0,0,1,25.6,10.6l4,4-4,4a35,35,0,0,1-25.6,10.6H311.33a34.94,34.94,0,0,1-25.59-10.6l-4-4,4-4A34.94,34.94,0,0,1,311.33,305Z"/><path class="cls-16" d="M368.21,305H383.1a35,35,0,0,1,25.59,10.6l4,4-4,4a35,35,0,0,1-25.59,10.6H368.21a34.94,34.94,0,0,1-25.59-10.6l-4-4,4-4A34.94,34.94,0,0,1,368.21,305Z"/><path class="cls-15" d="M119.06,312.61h48.38a76.33,76.33,0,0,0,38.89-10.69,85,85,0,0,1,86.92,0l16.47,9.76a49.24,49.24,0,0,1,23.86,42.41H153.64Z"/><rect class="cls-17" x="167.44" y="332.61" width="277.81" height="13.3" rx="5.87" ry="5.87"/><rect class="cls-18" x="167.44" y="338.48" width="277.81" height="22.29"/><path class="cls-19" d="M119.06,313.69h48.38a77.78,77.78,0,0,0,38.89-10.43,87,87,0,0,1,86.92,0l16.47,9.52a47.71,47.71,0,0,1,23.86,41.31H153.64Z"/><rect class="cls-20" x="191.47" y="360.76" width="258.97" height="35.94"/><path class="cls-13" d="M64.36,300.18h98.89a38.41,38.41,0,0,1,38.3,38.3v83.16H26.06V338.48A38.41,38.41,0,0,1,64.36,300.18Z"/><path class="cls-14" d="M52.88,300.18h98.89a38.41,38.41,0,0,1,38.3,38.3v83.16H14.58V338.48A38.41,38.41,0,0,1,52.88,300.18Z"/><path class="cls-12" d="M376.32,120.81a44,44,0,1,0-44-44A44.11,44.11,0,0,0,376.32,120.81Z"/><path class="cls-3" d="M370.34,120.81a44,44,0,1,0-44-44A44.11,44.11,0,0,0,370.34,120.81Z"/><circle class="cls-21" cx="365.5" cy="76.78" r="44.02" transform="translate(261.68 435.54) rotate(-85.72)"/><path class="cls-3" d="M365.5,110.35a33.57,33.57,0,1,0-33.56-33.57A33.63,33.63,0,0,0,365.5,110.35Z"/><path class="cls-15" d="M362,48a3.52,3.52,0,0,1,7,0V76.78a3.52,3.52,0,0,1-5.93,2.56L349.34,67.8a3.51,3.51,0,1,1,4.5-5.38L362,69.25Z"/><polygon class="cls-22" points="362.18 74.8 381.15 100.84 365.5 72.44 362.18 74.8"/><rect class="cls-23" x="520" width="500" height="500"/><ellipse class="cls-2" cx="770" cy="420.64" rx="250" ry="6.34"/><polygon class="cls-24" points="1020 246.32 1020 421.64 520 421.64 520 327.79 589.84 91.85 1020 246.32"/><rect class="cls-4" x="520" y="77.38" width="101.77" height="249.01"/><rect class="cls-5" x="520" y="91.85" width="87.3" height="220.07"/><path class="cls-6" d="M607.31,138.7v48.14L520,155.49V107.35l87.31,31.35Zm0,77.35L520,184.7v73.39l87.31,31.35Z"/><path class="cls-7" d="M627.74,51.09h44.19a5.48,5.48,0,0,1,5.46,5.46h0A5.47,5.47,0,0,1,671.93,62H627.74Z"/><path class="cls-8" d="M668.09,65.16,645.81,87.45h-10.3l10.3-41.18h14.46a11.06,11.06,0,0,1,7.82,18.89Z"/><path class="cls-9" d="M657.8,65.16,635.51,87.45V46.27H650a11.06,11.06,0,0,1,7.82,18.89Z"/><path class="cls-7" d="M520,51.09H647.11a5.47,5.47,0,0,1,5.45,5.46h0A5.46,5.46,0,0,1,647.11,62H520Z"/><path class="cls-25" d="M589.84,62v94.45a271.62,271.62,0,0,0,36.39,135.82V400h26.33V55.76h0a5.49,5.49,0,0,0-5.4-4.67H584.44a5.48,5.48,0,0,1,5.46,5.46h0Z"/><path class="cls-26" d="M589.84,91.85v64.6a271.62,271.62,0,0,0,36.39,135.82V400h26.33V114.37Z"/><path class="cls-12" d="M871.89,258.59h98.89c21.07,0,38.3,15.94,38.3,35.41V423.22H833.59V294C833.59,274.53,850.83,258.59,871.89,258.59Z"/><path class="cls-13" d="M851.54,243.58h98.9a38.42,38.42,0,0,1,38.3,38.3V421.64H813.25V281.88A38.41,38.41,0,0,1,851.54,243.58Z"/><path class="cls-14" d="M840.06,243.58H939a38.41,38.41,0,0,1,38.3,38.3V421.64H801.76V281.88A38.42,38.42,0,0,1,840.06,243.58Z"/><path class="cls-15" d="M831.33,305h64.32a35,35,0,0,1,25.6,10.6l4,4-4,4a35,35,0,0,1-25.6,10.6H831.33a34.94,34.94,0,0,1-25.59-10.6l-4-4,4-4A34.94,34.94,0,0,1,831.33,305Z"/><path class="cls-16" d="M888.21,305H903.1a35,35,0,0,1,25.59,10.6l4,4-4,4a35,35,0,0,1-25.59,10.6H888.21a34.94,34.94,0,0,1-25.59-10.6l-4-4,4-4A34.94,34.94,0,0,1,888.21,305Z"/><path class="cls-15" d="M639.06,312.61h48.38a76.33,76.33,0,0,0,38.89-10.69,85,85,0,0,1,86.92,0l16.47,9.76a49.24,49.24,0,0,1,23.86,42.41H673.64Z"/><rect class="cls-17" x="687.44" y="332.61" width="277.81" height="13.3" rx="5.87" ry="5.87"/><rect class="cls-18" x="687.44" y="338.48" width="277.81" height="22.29"/><path class="cls-19" d="M639.06,313.69h48.38a77.78,77.78,0,0,0,38.89-10.43,87,87,0,0,1,86.92,0l16.47,9.52a47.71,47.71,0,0,1,23.86,41.31H673.64Z"/><rect class="cls-20" x="711.47" y="360.76" width="258.97" height="35.94"/><path class="cls-13" d="M584.36,300.18h98.89a38.41,38.41,0,0,1,38.3,38.3v83.16H546.06V338.48A38.41,38.41,0,0,1,584.36,300.18Z"/><path class="cls-14" d="M572.88,300.18h98.89a38.41,38.41,0,0,1,38.3,38.3v83.16H534.58V338.48A38.41,38.41,0,0,1,572.88,300.18Z"/><path class="cls-12" d="M896.32,120.81a44,44,0,1,0-44-44A44.11,44.11,0,0,0,896.32,120.81Z"/><path class="cls-3" d="M890.34,120.81a44,44,0,1,0-44-44A44.11,44.11,0,0,0,890.34,120.81Z"/><circle class="cls-21" cx="885.5" cy="76.78" r="44.02" transform="translate(742.91 954.09) rotate(-85.72)"/><path class="cls-3" d="M885.5,110.35a33.57,33.57,0,1,0-33.56-33.57A33.63,33.63,0,0,0,885.5,110.35Z"/><path class="cls-15" d="M882,48a3.52,3.52,0,0,1,7,0V76.78a3.52,3.52,0,0,1-5.93,2.56L869.34,67.8a3.51,3.51,0,0,1,4.5-5.38L882,69.25Z"/><polygon class="cls-22" points="882.18 74.8 901.15 100.84 885.5 72.44 882.18 74.8"/><rect class="cls-27" x="1040" width="500" height="500"/><ellipse class="cls-2" cx="1290" cy="420.64" rx="250" ry="6.34"/><polygon class="cls-28" points="1540 246.32 1540 421.64 1040 421.64 1040 327.79 1109.84 91.85 1540 246.32"/><rect class="cls-4" x="1040" y="77.38" width="101.77" height="249.01"/><rect class="cls-5" x="1040" y="91.85" width="87.3" height="220.07"/><path class="cls-6" d="M1127.31,138.7v48.14L1040,155.49V107.35l87.31,31.35Zm0,77.35L1040,184.7v73.39l87.31,31.35Z"/><path class="cls-7" d="M1147.74,51.09h44.19a5.48,5.48,0,0,1,5.46,5.46h0a5.47,5.47,0,0,1-5.46,5.45h-44.19Z"/><path class="cls-8" d="M1188.09,65.16l-22.28,22.29h-10.3l10.3-41.18h14.46a11.06,11.06,0,0,1,7.82,18.89Z"/><path class="cls-9" d="M1177.8,65.16l-22.29,22.29V46.27H1170a11.06,11.06,0,0,1,7.82,18.89Z"/><path class="cls-7" d="M1040,51.09h127.11a5.47,5.47,0,0,1,5.45,5.46h0a5.46,5.46,0,0,1-5.45,5.45H1040Z"/><path class="cls-10" d="M1109.84,62v94.45a271.62,271.62,0,0,0,36.39,135.82V400h26.33V55.76h0a5.49,5.49,0,0,0-5.4-4.67h-62.67a5.48,5.48,0,0,1,5.46,5.46h0Z"/><path class="cls-11" d="M1109.84,91.85v64.6a271.62,271.62,0,0,0,36.39,135.82V400h26.33V114.37Z"/><path class="cls-12" d="M1391.89,258.59h98.89c21.07,0,38.3,15.94,38.3,35.41V423.22H1353.59V294C1353.59,274.53,1370.83,258.59,1391.89,258.59Z"/><path class="cls-13" d="M1371.54,243.58h98.9a38.42,38.42,0,0,1,38.3,38.3V421.64H1333.25V281.88A38.41,38.41,0,0,1,1371.54,243.58Z"/><path class="cls-14" d="M1360.06,243.58H1459a38.41,38.41,0,0,1,38.3,38.3V421.64H1321.76V281.88A38.42,38.42,0,0,1,1360.06,243.58Z"/><path class="cls-15" d="M1351.33,305h64.32a35,35,0,0,1,25.6,10.6l4,4-4,4a35,35,0,0,1-25.6,10.6h-64.32a34.94,34.94,0,0,1-25.59-10.6l-4-4,4-4A34.94,34.94,0,0,1,1351.33,305Z"/><path class="cls-16" d="M1408.21,305h14.89a35,35,0,0,1,25.59,10.6l4,4-4,4a35,35,0,0,1-25.59,10.6h-14.89a34.94,34.94,0,0,1-25.59-10.6l-4-4,4-4A34.94,34.94,0,0,1,1408.21,305Z"/><path class="cls-15" d="M1159.06,312.61h48.38a76.33,76.33,0,0,0,38.89-10.69,85,85,0,0,1,86.92,0l16.47,9.76a49.24,49.24,0,0,1,23.86,42.41H1193.64Z"/><rect class="cls-17" x="1207.44" y="332.61" width="277.81" height="13.3" rx="5.87" ry="5.87"/><rect class="cls-18" x="1207.44" y="338.48" width="277.81" height="22.29"/><path class="cls-19" d="M1159.06,313.69h48.38a77.78,77.78,0,0,0,38.89-10.43,87,87,0,0,1,86.92,0l16.47,9.52a47.71,47.71,0,0,1,23.86,41.31H1193.64Z"/><rect class="cls-20" x="1231.47" y="360.76" width="258.97" height="35.94"/><path class="cls-13" d="M1104.36,300.18h98.89a38.41,38.41,0,0,1,38.3,38.3v83.16H1066.06V338.48A38.41,38.41,0,0,1,1104.36,300.18Z"/><path class="cls-14" d="M1092.88,300.18h98.89a38.41,38.41,0,0,1,38.3,38.3v83.16H1054.58V338.48A38.41,38.41,0,0,1,1092.88,300.18Z"/><path class="cls-12" d="M1416.32,120.81a44,44,0,1,0-44-44A44.11,44.11,0,0,0,1416.32,120.81Z"/><path class="cls-3" d="M1410.34,120.81a44,44,0,1,0-44-44A44.11,44.11,0,0,0,1410.34,120.81Z"/><circle class="cls-21" cx="1405.5" cy="76.78" r="44.02" transform="translate(1224.14 1472.65) rotate(-85.72)"/><path class="cls-3" d="M1405.5,110.35a33.57,33.57,0,1,0-33.56-33.57A33.63,33.63,0,0,0,1405.5,110.35Z"/><path class="cls-15" d="M1402,48a3.52,3.52,0,0,1,7,0V76.78a3.52,3.52,0,0,1-5.93,2.56L1389.34,67.8a3.51,3.51,0,0,1,4.5-5.38l8.15,6.83Z"/><polygon class="cls-22" points="1402.18 74.8 1421.15 100.84 1405.5 72.44 1402.18 74.8"/><rect class="cls-29" x="1560" width="500" height="500"/><ellipse class="cls-2" cx="1810" cy="420.64" rx="250" ry="6.34"/><polygon class="cls-30" points="2060 246.32 2060 421.64 1560 421.64 1560 327.79 1629.84 91.85 2060 246.32"/><rect class="cls-4" x="1560" y="77.38" width="101.77" height="249.01"/><rect class="cls-5" x="1560" y="91.85" width="87.3" height="220.07"/><path class="cls-6" d="M1647.31,138.7v48.14L1560,155.49V107.35l87.31,31.35Zm0,77.35L1560,184.7v73.39l87.31,31.35Z"/><path class="cls-7" d="M1667.74,51.09h44.19a5.48,5.48,0,0,1,5.46,5.46h0a5.47,5.47,0,0,1-5.46,5.45h-44.19Z"/><path class="cls-8" d="M1708.09,65.16l-22.28,22.29h-10.3l10.3-41.18h14.46a11.06,11.06,0,0,1,7.82,18.89Z"/><path class="cls-9" d="M1697.8,65.16l-22.29,22.29V46.27H1690a11.06,11.06,0,0,1,7.82,18.89Z"/><path class="cls-7" d="M1560,51.09h127.11a5.47,5.47,0,0,1,5.45,5.46h0a5.46,5.46,0,0,1-5.45,5.45H1560Z"/><path class="cls-10" d="M1629.84,62v94.45a271.62,271.62,0,0,0,36.39,135.82V400h26.33V55.76h0a5.49,5.49,0,0,0-5.4-4.67h-62.67a5.48,5.48,0,0,1,5.46,5.46h0Z"/><path class="cls-11" d="M1629.84,91.85v64.6a271.62,271.62,0,0,0,36.39,135.82V400h26.33V114.37Z"/><path class="cls-12" d="M1911.89,258.59h98.89c21.07,0,38.3,15.94,38.3,35.41V423.22H1873.59V294C1873.59,274.53,1890.83,258.59,1911.89,258.59Z"/><path class="cls-13" d="M1891.54,243.58h98.9a38.42,38.42,0,0,1,38.3,38.3V421.64H1853.25V281.88A38.41,38.41,0,0,1,1891.54,243.58Z"/><path class="cls-14" d="M1880.06,243.58H1979a38.41,38.41,0,0,1,38.3,38.3V421.64H1841.76V281.88A38.42,38.42,0,0,1,1880.06,243.58Z"/><path class="cls-15" d="M1871.33,305h64.32a35,35,0,0,1,25.6,10.6l4,4-4,4a35,35,0,0,1-25.6,10.6h-64.32a34.94,34.94,0,0,1-25.59-10.6l-4-4,4-4A34.94,34.94,0,0,1,1871.33,305Z"/><path class="cls-16" d="M1928.21,305h14.89a35,35,0,0,1,25.59,10.6l4,4-4,4a35,35,0,0,1-25.59,10.6h-14.89a34.94,34.94,0,0,1-25.59-10.6l-4-4,4-4A34.94,34.94,0,0,1,1928.21,305Z"/><path class="cls-15" d="M1679.06,312.61h48.38a76.33,76.33,0,0,0,38.89-10.69,85,85,0,0,1,86.92,0l16.47,9.76a49.24,49.24,0,0,1,23.86,42.41H1713.64Z"/><rect class="cls-17" x="1727.44" y="332.61" width="277.81" height="13.3" rx="5.87" ry="5.87"/><rect class="cls-18" x="1727.44" y="338.48" width="277.81" height="22.29"/><path class="cls-19" d="M1679.06,313.69h48.38a77.78,77.78,0,0,0,38.89-10.43,87,87,0,0,1,86.92,0l16.47,9.52a47.71,47.71,0,0,1,23.86,41.31H1713.64Z"/><rect class="cls-20" x="1751.47" y="360.76" width="258.97" height="35.94"/><path class="cls-13" d="M1624.36,300.18h98.89a38.41,38.41,0,0,1,38.3,38.3v83.16H1586.06V338.48A38.41,38.41,0,0,1,1624.36,300.18Z"/><path class="cls-14" d="M1612.88,300.18h98.89a38.41,38.41,0,0,1,38.3,38.3v83.16H1574.58V338.48A38.41,38.41,0,0,1,1612.88,300.18Z"/><path class="cls-12" d="M1936.32,120.81a44,44,0,1,0-44-44A44.11,44.11,0,0,0,1936.32,120.81Z"/><path class="cls-3" d="M1930.34,120.81a44,44,0,1,0-44-44A44.11,44.11,0,0,0,1930.34,120.81Z"/><circle class="cls-21" cx="1925.5" cy="76.78" r="44.02" transform="translate(1705.38 1991.2) rotate(-85.72)"/><path class="cls-3" d="M1925.5,110.35a33.57,33.57,0,1,0-33.56-33.57A33.63,33.63,0,0,0,1925.5,110.35Z"/><path class="cls-15" d="M1922,48a3.52,3.52,0,0,1,7,0V76.78a3.52,3.52,0,0,1-5.93,2.56L1909.34,67.8a3.51,3.51,0,0,1,4.5-5.38l8.15,6.83Z"/><polygon class="cls-22" points="1922.18 74.8 1941.15 100.84 1925.5 72.44 1922.18 74.8"/><rect class="cls-31" x="2080" width="500" height="500"/><ellipse class="cls-2" cx="2330" cy="420.64" rx="250" ry="6.34"/><polygon class="cls-32" points="2580 246.32 2580 421.64 2080 421.64 2080 327.79 2149.84 91.85 2580 246.32"/><rect class="cls-4" x="2080" y="77.38" width="101.77" height="249.01"/><rect class="cls-5" x="2080" y="91.85" width="87.3" height="220.07"/><path class="cls-6" d="M2167.31,138.7v48.14L2080,155.49V107.35l87.31,31.35Zm0,77.35L2080,184.7v73.39l87.31,31.35Z"/><path class="cls-7" d="M2187.74,51.09h44.19a5.48,5.48,0,0,1,5.46,5.46h0a5.47,5.47,0,0,1-5.46,5.45h-44.19Z"/><path class="cls-8" d="M2228.09,65.16l-22.28,22.29h-10.3l10.3-41.18h14.46a11.06,11.06,0,0,1,7.82,18.89Z"/><path class="cls-9" d="M2217.8,65.16l-22.29,22.29V46.27H2210a11.06,11.06,0,0,1,7.82,18.89Z"/><path class="cls-7" d="M2080,51.09h127.11a5.47,5.47,0,0,1,5.45,5.46h0a5.46,5.46,0,0,1-5.45,5.45H2080Z"/><path class="cls-10" d="M2149.84,62v94.45a271.62,271.62,0,0,0,36.39,135.82V400h26.33V55.76h0a5.49,5.49,0,0,0-5.4-4.67h-62.67a5.48,5.48,0,0,1,5.46,5.46h0Z"/><path class="cls-11" d="M2149.84,91.85v64.6a271.62,271.62,0,0,0,36.39,135.82V400h26.33V114.37Z"/><path class="cls-12" d="M2431.89,258.59h98.89c21.07,0,38.3,15.94,38.3,35.41V423.22H2393.59V294C2393.59,274.53,2410.83,258.59,2431.89,258.59Z"/><path class="cls-13" d="M2411.54,243.58h98.9a38.42,38.42,0,0,1,38.3,38.3V421.64H2373.25V281.88A38.41,38.41,0,0,1,2411.54,243.58Z"/><path class="cls-14" d="M2400.06,243.58H2499a38.41,38.41,0,0,1,38.3,38.3V421.64H2361.76V281.88A38.42,38.42,0,0,1,2400.06,243.58Z"/><path class="cls-15" d="M2391.33,305h64.32a35,35,0,0,1,25.6,10.6l4,4-4,4a35,35,0,0,1-25.6,10.6h-64.32a34.94,34.94,0,0,1-25.59-10.6l-4-4,4-4A34.94,34.94,0,0,1,2391.33,305Z"/><path class="cls-16" d="M2448.21,305h14.89a35,35,0,0,1,25.59,10.6l4,4-4,4a35,35,0,0,1-25.59,10.6h-14.89a34.94,34.94,0,0,1-25.59-10.6l-4-4,4-4A34.94,34.94,0,0,1,2448.21,305Z"/><path class="cls-15" d="M2199.06,312.61h48.38a76.33,76.33,0,0,0,38.89-10.69,85,85,0,0,1,86.92,0l16.47,9.76a49.24,49.24,0,0,1,23.86,42.41H2233.64Z"/><rect class="cls-17" x="2247.44" y="332.61" width="277.81" height="13.3" rx="5.87" ry="5.87"/><rect class="cls-18" x="2247.44" y="338.48" width="277.81" height="22.29"/><path class="cls-19" d="M2199.06,313.69h48.38a77.78,77.78,0,0,0,38.89-10.43,87,87,0,0,1,86.92,0l16.47,9.52a47.71,47.71,0,0,1,23.86,41.31H2233.64Z"/><rect class="cls-20" x="2271.47" y="360.76" width="258.97" height="35.94"/><path class="cls-13" d="M2144.36,300.18h98.89a38.41,38.41,0,0,1,38.3,38.3v83.16H2106.06V338.48A38.41,38.41,0,0,1,2144.36,300.18Z"/><path class="cls-14" d="M2132.88,300.18h98.89a38.41,38.41,0,0,1,38.3,38.3v83.16H2094.58V338.48A38.41,38.41,0,0,1,2132.88,300.18Z"/><path class="cls-12" d="M2456.32,120.81a44,44,0,1,0-44-44A44.11,44.11,0,0,0,2456.32,120.81Z"/><path class="cls-3" d="M2450.34,120.81a44,44,0,1,0-44-44A44.11,44.11,0,0,0,2450.34,120.81Z"/><circle class="cls-21" cx="2445.5" cy="76.78" r="44.02" transform="translate(2186.61 2509.75) rotate(-85.72)"/><path class="cls-3" d="M2445.5,110.35a33.57,33.57,0,1,0-33.56-33.57A33.63,33.63,0,0,0,2445.5,110.35Z"/><path class="cls-15" d="M2442,48a3.52,3.52,0,0,1,7,0V76.78a3.52,3.52,0,0,1-5.93,2.56L2429.34,67.8a3.51,3.51,0,0,1,4.5-5.38l8.15,6.83Z"/><polygon class="cls-22" points="2442.18 74.8 2461.15 100.84 2445.5 72.44 2442.18 74.8"/><rect class="cls-33" x="2600" width="500" height="500"/><ellipse class="cls-2" cx="2850" cy="420.64" rx="250" ry="6.34"/><polygon class="cls-34" points="3100 246.32 3100 421.64 2600 421.64 2600 327.79 2669.84 91.85 3100 246.32"/><rect class="cls-4" x="2600" y="77.38" width="101.77" height="249.01"/><rect class="cls-5" x="2600" y="91.85" width="87.3" height="220.07"/><path class="cls-6" d="M2687.31,138.7v48.14L2600,155.49V107.35l87.31,31.35Zm0,77.35L2600,184.7v73.39l87.31,31.35Z"/><path class="cls-7" d="M2707.74,51.09h44.19a5.48,5.48,0,0,1,5.46,5.46h0a5.47,5.47,0,0,1-5.46,5.45h-44.19Z"/><path class="cls-8" d="M2748.09,65.16l-22.28,22.29h-10.3l10.3-41.18h14.46a11.06,11.06,0,0,1,7.82,18.89Z"/><path class="cls-9" d="M2737.8,65.16l-22.29,22.29V46.27H2730a11.06,11.06,0,0,1,7.82,18.89Z"/><path class="cls-7" d="M2600,51.09h127.11a5.47,5.47,0,0,1,5.45,5.46h0a5.46,5.46,0,0,1-5.45,5.45H2600Z"/><path class="cls-35" d="M2669.84,62v94.45a271.62,271.62,0,0,0,36.39,135.82V400h26.33V55.76h0a5.49,5.49,0,0,0-5.4-4.67h-62.67a5.48,5.48,0,0,1,5.46,5.46h0Z"/><path class="cls-36" d="M2669.84,91.85v64.6a271.62,271.62,0,0,0,36.39,135.82V400h26.33V114.37Z"/><path class="cls-12" d="M2951.89,258.59h98.89c21.07,0,38.3,15.94,38.3,35.41V423.22H2913.59V294C2913.59,274.53,2930.83,258.59,2951.89,258.59Z"/><path class="cls-13" d="M2931.54,243.58h98.9a38.42,38.42,0,0,1,38.3,38.3V421.64H2893.25V281.88A38.41,38.41,0,0,1,2931.54,243.58Z"/><path class="cls-14" d="M2920.06,243.58H3019a38.41,38.41,0,0,1,38.3,38.3V421.64H2881.76V281.88A38.42,38.42,0,0,1,2920.06,243.58Z"/><path class="cls-15" d="M2911.33,305h64.32a35,35,0,0,1,25.6,10.6l4,4-4,4a35,35,0,0,1-25.6,10.6h-64.32a34.94,34.94,0,0,1-25.59-10.6l-4-4,4-4A34.94,34.94,0,0,1,2911.33,305Z"/><path class="cls-16" d="M2968.21,305h14.89a35,35,0,0,1,25.59,10.6l4,4-4,4a35,35,0,0,1-25.59,10.6h-14.89a34.94,34.94,0,0,1-25.59-10.6l-4-4,4-4A34.94,34.94,0,0,1,2968.21,305Z"/><path class="cls-15" d="M2719.06,312.61h48.38a76.33,76.33,0,0,0,38.89-10.69,85,85,0,0,1,86.92,0l16.47,9.76a49.24,49.24,0,0,1,23.86,42.41H2753.64Z"/><rect class="cls-17" x="2767.44" y="332.61" width="277.81" height="13.3" rx="5.87" ry="5.87"/><rect class="cls-18" x="2767.44" y="338.48" width="277.81" height="22.29"/><path class="cls-19" d="M2719.06,313.69h48.38a77.78,77.78,0,0,0,38.89-10.43,87,87,0,0,1,86.92,0l16.47,9.52a47.71,47.71,0,0,1,23.86,41.31H2753.64Z"/><rect class="cls-20" x="2791.47" y="360.76" width="258.97" height="35.94"/><path class="cls-13" d="M2664.36,300.18h98.89a38.41,38.41,0,0,1,38.3,38.3v83.16H2626.06V338.48A38.41,38.41,0,0,1,2664.36,300.18Z"/><path class="cls-14" d="M2652.88,300.18h98.89a38.41,38.41,0,0,1,38.3,38.3v83.16H2614.58V338.48A38.41,38.41,0,0,1,2652.88,300.18Z"/><path class="cls-12" d="M2976.32,120.81a44,44,0,1,0-44-44A44.11,44.11,0,0,0,2976.32,120.81Z"/><path class="cls-3" d="M2970.34,120.81a44,44,0,1,0-44-44A44.11,44.11,0,0,0,2970.34,120.81Z"/><circle class="cls-21" cx="2965.5" cy="76.78" r="44.02" transform="translate(2667.84 3028.31) rotate(-85.72)"/><path class="cls-3" d="M2965.5,110.35a33.57,33.57,0,1,0-33.56-33.57A33.63,33.63,0,0,0,2965.5,110.35Z"/><path class="cls-15" d="M2962,48a3.52,3.52,0,0,1,7,0V76.78a3.52,3.52,0,0,1-5.93,2.56L2949.34,67.8a3.51,3.51,0,0,1,4.5-5.38l8.15,6.83Z"/><polygon class="cls-22" points="2962.18 74.8 2981.15 100.84 2965.5 72.44 2962.18 74.8"/><rect class="cls-1" x="3120" width="500" height="500"/><ellipse class="cls-2" cx="3370" cy="420.64" rx="250" ry="6.34"/><polygon class="cls-3" points="3620 246.32 3620 421.64 3120 421.64 3120 327.79 3189.84 91.85 3620 246.32"/><rect class="cls-4" x="3120" y="77.38" width="101.77" height="249.01"/><rect class="cls-5" x="3120" y="91.85" width="87.3" height="220.07"/><path class="cls-6" d="M3207.31,138.7v48.14L3120,155.49V107.35l87.31,31.35Zm0,77.35L3120,184.7v73.39l87.31,31.35Z"/><path class="cls-7" d="M3227.74,51.09h44.19a5.48,5.48,0,0,1,5.46,5.46h0a5.47,5.47,0,0,1-5.46,5.45h-44.19Z"/><path class="cls-8" d="M3268.09,65.16l-22.28,22.29h-10.3l10.3-41.18h14.46a11.06,11.06,0,0,1,7.82,18.89Z"/><path class="cls-9" d="M3257.8,65.16l-22.29,22.29V46.27H3250a11.06,11.06,0,0,1,7.82,18.89Z"/><path class="cls-7" d="M3120,51.09h127.11a5.47,5.47,0,0,1,5.45,5.46h0a5.46,5.46,0,0,1-5.45,5.45H3120Z"/><path class="cls-37" d="M3189.84,62v94.45a271.62,271.62,0,0,0,36.39,135.82V400h26.33V55.76h0a5.49,5.49,0,0,0-5.4-4.67h-62.67a5.48,5.48,0,0,1,5.46,5.46h0Z"/><path class="cls-38" d="M3189.84,91.85v64.6a271.62,271.62,0,0,0,36.39,135.82V400h26.33V114.37Z"/><path class="cls-12" d="M3471.89,258.59h98.89c21.07,0,38.3,15.94,38.3,35.41V423.22H3433.59V294C3433.59,274.53,3450.83,258.59,3471.89,258.59Z"/><path class="cls-13" d="M3451.54,243.58h98.9a38.42,38.42,0,0,1,38.3,38.3V421.64H3413.25V281.88A38.41,38.41,0,0,1,3451.54,243.58Z"/><path class="cls-14" d="M3440.06,243.58H3539a38.41,38.41,0,0,1,38.3,38.3V421.64H3401.76V281.88A38.42,38.42,0,0,1,3440.06,243.58Z"/><path class="cls-15" d="M3431.33,305h64.32a35,35,0,0,1,25.6,10.6l4,4-4,4a35,35,0,0,1-25.6,10.6h-64.32a34.94,34.94,0,0,1-25.59-10.6l-4-4,4-4A34.94,34.94,0,0,1,3431.33,305Z"/><path class="cls-16" d="M3488.21,305h14.89a35,35,0,0,1,25.59,10.6l4,4-4,4a35,35,0,0,1-25.59,10.6h-14.89a34.94,34.94,0,0,1-25.59-10.6l-4-4,4-4A34.94,34.94,0,0,1,3488.21,305Z"/><path class="cls-15" d="M3239.06,312.61h48.38a76.33,76.33,0,0,0,38.89-10.69,85,85,0,0,1,86.92,0l16.47,9.76a49.24,49.24,0,0,1,23.86,42.41H3273.64Z"/><rect class="cls-17" x="3287.44" y="332.61" width="277.81" height="13.3" rx="5.87" ry="5.87"/><rect class="cls-18" x="3287.44" y="338.48" width="277.81" height="22.29"/><path class="cls-19" d="M3239.06,313.69h48.38a77.78,77.78,0,0,0,38.89-10.43,87,87,0,0,1,86.92,0l16.47,9.52a47.71,47.71,0,0,1,23.86,41.31H3273.64Z"/><rect class="cls-20" x="3311.47" y="360.76" width="258.97" height="35.94"/><path class="cls-13" d="M3184.36,300.18h98.89a38.41,38.41,0,0,1,38.3,38.3v83.16H3146.06V338.48A38.41,38.41,0,0,1,3184.36,300.18Z"/><path class="cls-14" d="M3172.88,300.18h98.89a38.41,38.41,0,0,1,38.3,38.3v83.16H3134.58V338.48A38.41,38.41,0,0,1,3172.88,300.18Z"/><path class="cls-12" d="M3496.32,120.81a44,44,0,1,0-44-44A44.11,44.11,0,0,0,3496.32,120.81Z"/><path class="cls-3" d="M3490.34,120.81a44,44,0,1,0-44-44A44.11,44.11,0,0,0,3490.34,120.81Z"/><circle class="cls-21" cx="3485.5" cy="76.78" r="44.02" transform="translate(3149.07 3546.86) rotate(-85.72)"/><path class="cls-3" d="M3485.5,110.35a33.57,33.57,0,1,0-33.56-33.57A33.63,33.63,0,0,0,3485.5,110.35Z"/><path class="cls-15" d="M3482,48a3.52,3.52,0,0,1,7,0V76.78a3.52,3.52,0,0,1-5.93,2.56L3469.34,67.8a3.51,3.51,0,0,1,4.5-5.38l8.15,6.83Z"/><polygon class="cls-22" points="3482.18 74.8 3501.15 100.84 3485.5 72.44 3482.18 74.8"/><rect class="cls-39" x="3640" width="500" height="500"/><ellipse class="cls-2" cx="3890" cy="420.64" rx="250" ry="6.34"/><polygon class="cls-40" points="4140 246.32 4140 421.64 3640 421.64 3640 327.79 3709.84 91.85 4140 246.32"/><rect class="cls-4" x="3640" y="77.38" width="101.77" height="249.01"/><rect class="cls-5" x="3640" y="91.85" width="87.3" height="220.07"/><path class="cls-6" d="M3727.31,138.7v48.14L3640,155.49V107.35l87.31,31.35Zm0,77.35L3640,184.7v73.39l87.31,31.35Z"/><path class="cls-7" d="M3747.74,51.09h44.19a5.48,5.48,0,0,1,5.46,5.46h0a5.47,5.47,0,0,1-5.46,5.45h-44.19Z"/><path class="cls-8" d="M3788.09,65.16l-22.28,22.29h-10.3l10.3-41.18h14.46a11.06,11.06,0,0,1,7.82,18.89Z"/><path class="cls-9" d="M3777.8,65.16l-22.29,22.29V46.27H3770a11.06,11.06,0,0,1,7.82,18.89Z"/><path class="cls-7" d="M3640,51.09h127.11a5.47,5.47,0,0,1,5.45,5.46h0a5.46,5.46,0,0,1-5.45,5.45H3640Z"/><path class="cls-41" d="M3709.84,62v94.45a271.62,271.62,0,0,0,36.39,135.82V400h26.33V55.76h0a5.49,5.49,0,0,0-5.4-4.67h-62.67a5.48,5.48,0,0,1,5.46,5.46h0Z"/><path class="cls-42" d="M3709.84,91.85v64.6a271.62,271.62,0,0,0,36.39,135.82V400h26.33V114.37Z"/><path class="cls-12" d="M3991.89,258.59h98.89c21.07,0,38.3,15.94,38.3,35.41V423.22H3953.59V294C3953.59,274.53,3970.83,258.59,3991.89,258.59Z"/><path class="cls-13" d="M3971.54,243.58h98.9a38.42,38.42,0,0,1,38.3,38.3V421.64H3933.25V281.88A38.41,38.41,0,0,1,3971.54,243.58Z"/><path class="cls-14" d="M3960.06,243.58H4059a38.41,38.41,0,0,1,38.3,38.3V421.64H3921.76V281.88A38.42,38.42,0,0,1,3960.06,243.58Z"/><path class="cls-15" d="M3951.33,305h64.32a35,35,0,0,1,25.6,10.6l4,4-4,4a35,35,0,0,1-25.6,10.6h-64.32a34.94,34.94,0,0,1-25.59-10.6l-4-4,4-4A34.94,34.94,0,0,1,3951.33,305Z"/><path class="cls-16" d="M4008.21,305h14.89a35,35,0,0,1,25.59,10.6l4,4-4,4a35,35,0,0,1-25.59,10.6h-14.89a34.94,34.94,0,0,1-25.59-10.6l-4-4,4-4A34.94,34.94,0,0,1,4008.21,305Z"/><path class="cls-15" d="M3759.06,312.61h48.38a76.33,76.33,0,0,0,38.89-10.69,85,85,0,0,1,86.92,0l16.47,9.76a49.24,49.24,0,0,1,23.86,42.41H3793.64Z"/><rect class="cls-17" x="3807.44" y="332.61" width="277.81" height="13.3" rx="5.87" ry="5.87"/><rect class="cls-18" x="3807.44" y="338.48" width="277.81" height="22.29"/><path class="cls-19" d="M3759.06,313.69h48.38a77.78,77.78,0,0,0,38.89-10.43,87,87,0,0,1,86.92,0l16.47,9.52a47.71,47.71,0,0,1,23.86,41.31H3793.64Z"/><rect class="cls-20" x="3831.47" y="360.76" width="258.97" height="35.94"/><path class="cls-13" d="M3704.36,300.18h98.89a38.41,38.41,0,0,1,38.3,38.3v83.16H3666.06V338.48A38.41,38.41,0,0,1,3704.36,300.18Z"/><path class="cls-14" d="M3692.88,300.18h98.89a38.41,38.41,0,0,1,38.3,38.3v83.16H3654.58V338.48A38.41,38.41,0,0,1,3692.88,300.18Z"/><path class="cls-12" d="M4016.32,120.81a44,44,0,1,0-44-44A44.11,44.11,0,0,0,4016.32,120.81Z"/><path class="cls-3" d="M4010.34,120.81a44,44,0,1,0-44-44A44.11,44.11,0,0,0,4010.34,120.81Z"/><circle class="cls-21" cx="4005.5" cy="76.78" r="44.02" transform="translate(3630.31 4065.41) rotate(-85.72)"/><path class="cls-3" d="M4005.5,110.35a33.57,33.57,0,1,0-33.56-33.57A33.63,33.63,0,0,0,4005.5,110.35Z"/><path class="cls-15" d="M4002,48a3.52,3.52,0,0,1,7,0V76.78a3.52,3.52,0,0,1-5.93,2.56L3989.34,67.8a3.51,3.51,0,0,1,4.5-5.38l8.15,6.83Z"/><polygon class="cls-22" points="4002.18 74.8 4021.15 100.84 4005.5 72.44 4002.18 74.8"/><rect class="cls-43" x="4160" width="500" height="500"/><ellipse class="cls-2" cx="4410" cy="420.64" rx="250" ry="6.34"/><polygon class="cls-44" points="4660 246.32 4660 421.64 4160 421.64 4160 327.79 4229.84 91.85 4660 246.32"/><rect class="cls-4" x="4160" y="77.38" width="101.77" height="249.01"/><rect class="cls-5" x="4160" y="91.85" width="87.3" height="220.07"/><path class="cls-6" d="M4247.31,138.7v48.14L4160,155.49V107.35l87.31,31.35Zm0,77.35L4160,184.7v73.39l87.31,31.35Z"/><path class="cls-7" d="M4267.74,51.09h44.19a5.48,5.48,0,0,1,5.46,5.46h0a5.47,5.47,0,0,1-5.46,5.45h-44.19Z"/><path class="cls-8" d="M4308.09,65.16l-22.28,22.29h-10.3l10.3-41.18h14.46a11.06,11.06,0,0,1,7.82,18.89Z"/><path class="cls-9" d="M4297.8,65.16l-22.29,22.29V46.27H4290a11.06,11.06,0,0,1,7.82,18.89Z"/><path class="cls-7" d="M4160,51.09h127.11a5.47,5.47,0,0,1,5.45,5.46h0a5.46,5.46,0,0,1-5.45,5.45H4160Z"/><path class="cls-10" d="M4229.84,62v94.45a271.62,271.62,0,0,0,36.39,135.82V400h26.33V55.76h-.05a5.49,5.49,0,0,0-5.4-4.67h-62.67a5.48,5.48,0,0,1,5.46,5.46h0Z"/><path class="cls-11" d="M4229.84,91.85v64.6a271.62,271.62,0,0,0,36.39,135.82V400h26.33V114.37Z"/><path class="cls-12" d="M4511.89,258.59h98.89c21.07,0,38.3,15.94,38.3,35.41V423.22H4473.59V294C4473.59,274.53,4490.83,258.59,4511.89,258.59Z"/><path class="cls-13" d="M4491.54,243.58h98.9a38.42,38.42,0,0,1,38.3,38.3V421.64H4453.25V281.88A38.41,38.41,0,0,1,4491.54,243.58Z"/><path class="cls-14" d="M4480.06,243.58H4579a38.41,38.41,0,0,1,38.3,38.3V421.64H4441.76V281.88A38.42,38.42,0,0,1,4480.06,243.58Z"/><path class="cls-15" d="M4471.33,305h64.32a35,35,0,0,1,25.6,10.6l4,4-4,4a35,35,0,0,1-25.6,10.6h-64.32a34.94,34.94,0,0,1-25.59-10.6l-4-4,4-4A34.94,34.94,0,0,1,4471.33,305Z"/><path class="cls-16" d="M4528.21,305h14.89a35,35,0,0,1,25.59,10.6l4,4-4,4a35,35,0,0,1-25.59,10.6h-14.89a34.94,34.94,0,0,1-25.59-10.6l-4-4,4-4A34.94,34.94,0,0,1,4528.21,305Z"/><path class="cls-15" d="M4279.06,312.61h48.38a76.33,76.33,0,0,0,38.89-10.69,85,85,0,0,1,86.92,0l16.47,9.76a49.24,49.24,0,0,1,23.86,42.41H4313.64Z"/><rect class="cls-17" x="4327.44" y="332.61" width="277.81" height="13.3" rx="5.87" ry="5.87"/><rect class="cls-18" x="4327.44" y="338.48" width="277.81" height="22.29"/><path class="cls-19" d="M4279.06,313.69h48.38a77.78,77.78,0,0,0,38.89-10.43,87,87,0,0,1,86.92,0l16.47,9.52a47.71,47.71,0,0,1,23.86,41.31H4313.64Z"/><rect class="cls-20" x="4351.47" y="360.76" width="258.97" height="35.94"/><path class="cls-13" d="M4224.36,300.18h98.89a38.41,38.41,0,0,1,38.3,38.3v83.16H4186.06V338.48A38.41,38.41,0,0,1,4224.36,300.18Z"/><path class="cls-14" d="M4212.88,300.18h98.89a38.41,38.41,0,0,1,38.3,38.3v83.16H4174.58V338.48A38.41,38.41,0,0,1,4212.88,300.18Z"/><path class="cls-12" d="M4536.32,120.81a44,44,0,1,0-44-44A44.11,44.11,0,0,0,4536.32,120.81Z"/><path class="cls-3" d="M4530.34,120.81a44,44,0,1,0-44-44A44.11,44.11,0,0,0,4530.34,120.81Z"/><circle class="cls-21" cx="4525.5" cy="76.78" r="44.02" transform="translate(4111.54 4583.96) rotate(-85.72)"/><path class="cls-3" d="M4525.5,110.35a33.57,33.57,0,1,0-33.56-33.57A33.63,33.63,0,0,0,4525.5,110.35Z"/><path class="cls-15" d="M4522,48a3.52,3.52,0,0,1,7,0V76.78a3.52,3.52,0,0,1-5.93,2.56L4509.34,67.8a3.51,3.51,0,0,1,4.5-5.38l8.15,6.83Z"/><polygon class="cls-22" points="4522.18 74.8 4541.15 100.84 4525.5 72.44 4522.18 74.8"/></svg>