<svg id="publicdomainvectors.org" xmlns="http://www.w3.org/2000/svg" viewBox="0 0 600 600"><defs><style>.cls-1{fill:#1a1a1a;}.cls-2{fill:#333;}.cls-3{fill:#be8e5e;}.cls-4{fill:#cf9b67;}.cls-11,.cls-4,.cls-5,.cls-7,.cls-8,.cls-9{fill-rule:evenodd;}.cls-5{fill:#ad8154;}.cls-6{fill:#991b1e;}.cls-7{fill:#ca3927;}.cls-8{fill:#ef4623;}.cls-9{fill:#dc3d26;}.cls-10,.cls-11{fill:#febb12;}.cls-12{fill:#663e17;}</style></defs><title>curtains</title><rect class="cls-1" x="1.32" y="1" width="598.76" height="598.76"/><ellipse class="cls-2" cx="300.7" cy="315.29" rx="194.3" ry="254.15"/><rect class="cls-3" x="1.32" y="475.93" width="598.76" height="123.83"/><polygon class="cls-4" points="72.33 475.93 77.69 475.93 1.32 569.19 1.32 562.65 72.33 475.93"/><path class="cls-4" d="M114.22,475.93h5.36L36.24,599.76H30.88Z"/><path class="cls-4" d="M156.11,475.93h5.36L96.2,599.76H90.84Q123.48,537.84,156.11,475.93Z"/><path class="cls-4" d="M198,475.93h5.36q-23.6,61.92-47.2,123.83H150.8Q174.4,537.84,198,475.93Z"/><path class="cls-4" d="M239.9,475.93h5.35q-14.56,61.92-29.14,123.83h-5.35Q225.33,537.84,239.9,475.93Z"/><path class="cls-4" d="M281.79,475.93h5.35L276.07,599.76h-5.35Z"/><path class="cls-4" d="M323.68,475.93H329q3.51,61.92,7,123.83h-5.36Z"/><path class="cls-4" d="M365.57,475.93h5.35Q383.46,537.85,396,599.76h-5.36Q378.1,537.84,365.57,475.93Z"/><path class="cls-4" d="M407.46,475.93h5.36Q434.38,537.85,456,599.76h-5.36Z"/><path class="cls-4" d="M449.35,475.93h5.36l61.2,123.83h-5.36Z"/><path class="cls-4" d="M491.24,475.93h5.36l79.26,123.83h-5.35Z"/><path class="cls-5" d="M527.78,475.93h5.35l67,85.16v6.82l-72.3-92Zm-460.8,0h5.35l-71,86.72v-6.54L67,475.93Zm41.89,0L25.53,599.76h5.35l83.34-123.83Zm41.89,0h5.35q-32.62,61.92-65.27,123.83H85.49q32.63-61.92,65.27-123.83Zm41.89,0L145.44,599.76h5.36Q174.4,537.84,198,475.93Zm41.89,0h5.36q-14.58,61.92-29.14,123.83H205.4Q220,537.84,234.54,475.93Zm41.89,0h5.36L270.72,599.76h-5.36l11.07-123.83Zm41.89,0h5.36l7,123.83h-5.35q-3.49-61.92-7-123.83Zm41.89,0h5.36q12.53,61.92,25.06,123.83h-5.35q-12.54-61.92-25.07-123.83Zm41.89,0h5.36l43.13,123.83h-5.35L402.1,475.93Zm41.9,0q30.58,61.92,61.19,123.83h5.36l-61.2-123.83Zm41.89,0,79.26,123.83h5.36L491.24,475.93Z"/><polygon class="cls-4" points="533.13 475.93 538.49 475.93 600.08 554.28 600.08 561.1 533.13 475.93"/><rect class="cls-6" x="1.32" y="1" width="163.64" height="495.46"/><path class="cls-7" d="M90.12,1h18.3V496.46H90.12V1Zm36,0h18.31V496.46H126.12V1Zm-108,0H36.42V496.46H18.11V1Zm36,0h18.3V496.46H54.12Z"/><path class="cls-8" d="M1.32,1H231.47c-2.7,64.62-21.12,129.28-70.73,193.87s-68,129.21-70.63,193.8H1.32V1Z"/><path class="cls-9" d="M126.2,1H152c-1.77,64.62-13.84,129.28-46.31,193.87S61.15,324.08,59.43,388.67H49.49c1.45-64.59,11.4-129.21,38.32-193.8S124.72,65.62,126.2,1Zm50.63,0c-2.07,64.62-16.12,129.28-54,193.87S71.05,324.08,69,388.67H79c2.34-64.59,18.39-129.22,61.77-193.8S200.21,65.62,202.58,1ZM24.93,1c-.3,64.62-2.19,129.29-7.27,193.87s-7,129.21-7.25,193.8h9.94c.57-64.59,4.51-129.21,15.14-193.8S50.06,65.62,50.66,1ZM75.56,1c-.87,64.62-6.82,129.29-22.83,193.87S30.82,324.08,30,388.67h9.94C41,324.08,49,259.46,70.57,194.87S100.14,65.62,101.32,1Z"/><path class="cls-8" d="M1.32,536.63H125.38c-.67-24.65-5.26-49.31-17.64-74s-16.95-49.34-17.63-74H1.32v148Z"/><path class="cls-9" d="M68.63,536.63H82.52c-.45-24.65-3.45-49.31-11.56-74s-11.09-49.34-11.53-74H49.49c.37,24.66,2.85,49.35,9.57,74s9.2,49.31,9.57,74Zm27.3,0c-.52-24.65-4-49.31-13.46-74s-12.93-49.34-13.45-74H79c.6,24.66,4.6,49.35,15.43,74s14.83,49.31,15.43,74Zm-81.89,0H27.91a726.72,726.72,0,0,0-3.78-74,733.46,733.46,0,0,1-3.78-74H10.42c.06,24.66.54,49.34,1.81,74S14,512,14,536.63Zm27.3,0c-.22-24.65-1.7-49.32-5.7-74s-5.47-49.34-5.69-74h9.94c.3,24.66,2.29,49.35,7.66,74s7.37,49.31,7.67,74Z"/><rect class="cls-10" x="1.32" y="380.41" width="92.9" height="17.85"/><path class="cls-11" d="M36.42,388.67H48.34V460.4a6,6,0,0,1-6,6h0a6,6,0,0,1-6-6Z"/><path class="cls-11" d="M53.26,388.67H65.18v47.27a6,6,0,0,1-6,6h0a6,6,0,0,1-6-6Z"/><rect class="cls-6" x="436.43" y="1" width="163.64" height="495.46"/><path class="cls-7" d="M511.27,1H493V496.46h18.3V1Zm-36,0H457V496.46h18.3V1Zm108,0H565V496.46h18.3V1Zm-36,0H529V496.46h18.31Z"/><path class="cls-8" d="M600.08,1H369.93c2.69,64.62,21.12,129.28,70.72,193.87s68,129.21,70.63,193.8h88.8V1Z"/><path class="cls-9" d="M475.2,1H449.44c1.78,64.62,13.85,129.28,46.31,193.87S540.24,324.08,542,388.67h9.95c-1.45-64.59-11.41-129.21-38.33-193.8S476.67,65.62,475.2,1ZM424.56,1c2.07,64.62,16.12,129.28,53.95,193.87s51.83,129.21,53.86,193.8h-9.92c-2.35-64.59-18.4-129.22-61.78-193.8S401.18,65.62,398.81,1Zm151.9,0c.3,64.62,2.19,129.29,7.27,193.87s7,129.21,7.25,193.8H581c-.57-64.59-4.51-129.21-15.14-193.8S551.33,65.62,550.73,1ZM525.83,1c.87,64.62,6.82,129.29,22.83,193.87s21.91,129.21,22.79,193.8h-10c-1.15-64.59-9.12-129.21-30.68-193.8S501.25,65.62,500.08,1Z"/><path class="cls-8" d="M600.08,536.63H476c.67-24.65,5.26-49.31,17.64-74s17-49.34,17.63-74h88.8v148Z"/><path class="cls-9" d="M532.76,536.63H518.88c.44-24.65,3.44-49.31,11.55-74s11.09-49.34,11.53-74h9.94c-.37,24.66-2.85,49.35-9.56,74s-9.21,49.31-9.58,74Zm-27.3,0c.53-24.65,4-49.31,13.47-74s12.92-49.34,13.44-74h-9.93c-.6,24.66-4.6,49.35-15.42,74s-14.84,49.31-15.44,74Zm81.89,0H573.48a729.61,729.61,0,0,1,3.78-74,730.54,730.54,0,0,0,3.78-74H591c-.06,24.66-.54,49.34-1.81,74s-1.74,49.31-1.81,74Zm-27.3,0c.23-24.65,1.7-49.32,5.7-74s5.47-49.34,5.69-74H561.5c-.29,24.66-2.29,49.35-7.66,74s-7.37,49.31-7.67,74Z"/><rect class="cls-10" x="507.17" y="380.41" width="92.9" height="17.85"/><path class="cls-11" d="M565,388.67H553.06V460.4a6,6,0,0,0,6,6h0a6,6,0,0,0,6-6Z"/><path class="cls-11" d="M548.13,388.67H536.21v47.27a6,6,0,0,0,6,6h0a6,6,0,0,0,6-6Z"/><rect class="cls-12" x="1.32" y="589.97" width="598.76" height="9.79"/></svg>