<svg id="ladder_Image" data-name="ladder Image" xmlns="http://www.w3.org/2000/svg" viewBox="0 0 109.83 448.67"><defs><style>.cls-1{fill:#f2e18c;}.cls-2{fill:#f8edb5;}</style></defs><title>stairs 02</title><path class="cls-1" d="M82.79,1.75c1,12.75,1,23.59,1.27,35.9-.86-1.39-3.48-1-5.07-1.68-.32-5.84-.22-13.23-.84-19.86,3.33.18,4.69-3.19,3.38-6.33-.62-.66-2.17-.38-3.38-.43.23-2.55-.39-5.31,0-6.75A13.06,13.06,0,0,1,82.79,1.75Z"/><path class="cls-1" d="M50.69,2.17c.34.08.42.43.84.43C51.76,82,52.8,143.93,52.8,227.74c0,10.46.17,19.8.42,29.14,1.05,38.06.26,90.79,1.27,133.48.43,18.24-.8,36.87.85,55.76-2.76.83-4.35-2.91-7.61-3,.92-2,0-4.26,0-6.33.14-119.17-.47-223.79,0-324.83.15-31,.42-59.92.42-96.73,0-4.25-1-8.66.85-12.68.88.18,1.12-.29,1.69-.42Z"/><path class="cls-2" d="M53.65,2.17c3.17.2,2,4,2.11,5.49,1,20.09-.74,39.21,0,58.72.12,3.26.5,6.56.42,11.4-.72,46.4,1.65,95.52.85,148.26-.13,8,.35,16.93.42,25.77.17,21.91.84,51.59.84,79,0,18.5.85,37.67.85,57,0,17.66.52,34.76.42,52.38,0,2,.73,5.13-.84,6.34-3.46.17-2.07-4.11-2.12-5.49-.63-17.5-.17-34.94-.42-51.11-.53-34.71-1.06-71.08-1.27-109,0-9.49.43-19.12,0-28.73-1.94-44.18-.57-93-1.26-139.82-.53-35.25,0-72.62-.85-109-.14-.85.09-1.32.85-1.26Z"/><path class="cls-2" d="M85.33,3c2.61.8,1.57,4.18,1.69,5.91,1.65,23.68,1.5,50.58,3,76.88s2.31,54.64,3.81,82.37c3,54.79,5,113.08,7.6,167.27,1.5,31.52,3.85,63.86,5.07,95,.09,2.28.37,4.81.42,7.18,0,1.7.93,4.73-1.27,5.92-3.33.09-2-4-2.11-5.5C102,402.32,99.67,367.56,98,332.49c-.44-9.27-.23-18.54-.85-27.87-2.21-33.65-3.57-74.47-5.06-107.29-.83-18.15-1.27-37-2.12-56.18-2-46.28-4.44-93.64-5.49-136.86-.14-.85.09-1.32.85-1.27Z"/><path class="cls-2" d="M81.1,11.89c-.9,2.17-4.67,1.42-7.18,1.69A124.18,124.18,0,0,1,57.87,14V12.31c.85-1.23,3.19-1.15,4.65-1.27,3.19-.25,7.58.11,9.71,0C75,10.91,79.68,9.33,81.1,11.89Z"/><path class="cls-2" d="M82,39.77c-3.43.88-7.89.64-12.25.84-4.2.19-8.88,1.25-11.83,0-.91-3.86,3.61-2.07,5.91-2.11,2.88,0,7.33-.27,11-.42C77.63,38,81.77,36.45,82,39.77Z"/><path class="cls-1" d="M83.64,38.92c.46.11.28.84.84.85.23,10,.4,20.08,1.27,27.88-1.58-1.69-3.54-2.16-5.91-2.12,0-6.65-.68-14.7-.43-22.81h3C83.06,41.72,83.19,40.17,83.64,38.92Z"/><path class="cls-2" d="M83.21,68.07c.42,3.32-3.15,2-5.49,2.11-4,.21-9.4.27-13.94.42-2.17.08-5.27,1.69-5.91-.84-.24-2.25,2.92-2,4.22-2.11,3.45-.44,8.06.17,11.83,0C77.44,67.48,81,66.26,83.21,68.07Z"/><path class="cls-1" d="M84.9,69.34c.49-.07.76.09.85.42-.18,10.06.62,15.89.85,25.76-1.36-1.32-2.61-2.75-5.92-2.11-.34-5.14-.31-12.63-.84-20.27C82.32,72.66,85.21,72.6,84.9,69.34Z"/><path class="cls-2" d="M84.9,97.21c-1.56,2-4.74,1.23-7.18,1.27-5.06.1-14.18.54-19.43.85-.41-1.73.05-1.71,0-3.81,5.89-.94,17.57.09,23.23-.84C82.69,94.49,85.12,95.38,84.9,97.21Z"/><path class="cls-1" d="M86.17,97.21c.38.19.76.38.85.85,0,9,.82,17.49,1.26,27-1-.15-4.51-1-6.75-1.26,0-7.5.12-17.28-.43-22.81h4.23c.48-1.28-.19-2.43.84-3.8Z"/><path class="cls-2" d="M85.75,126.36c-.6,4.51-8.09,2.14-12.67,2.54a134.1,134.1,0,0,1-14.79.42c.58-1.34.1-1.41,0-3,6.54-.47,15.31-.72,22-.84,2,0,4.34-1.22,5.49.84Z"/><path class="cls-1" d="M88.28,130.16c-.41,8.68.5,15.79.85,23.66-1.78-.42-3.65.21-6.34,0-.28-6.69-1-14.14-.84-22.39,2.46.09,4.84-1.75,6.33-1.27Z"/><path class="cls-2" d="M87,156.77c-1.55,3.06-7.18,1.5-11.41,1.69-5.9.27-12.42.78-16.89.42-.73-5.59,8.94-3.19,13.51-3.38,5.58-.22,12.58-1.9,14.79,1.27Z"/><path class="cls-1" d="M88.71,158.46c.37.19.75.37.84.85-.31,10.36.68,14.48.85,24.5-1.43-.13-1.23-1.88-2.54-2.12-2.06-.28-2.8.75-4.22,0,.14-7.17-.75-13.33-.42-20.69,2-.64,5.38,0,5.49-2.53Z"/><path class="cls-2" d="M88.71,184.65c-.13,3.25-4.38,2.09-6.76,2.11-6.06.07-11.47.16-16.48.42-2.51.14-5.51.85-6.75-.84-.49-3.59,4-2.49,6.33-2.54,2.8-.05,6,.12,8.45,0,5.65-.25,12-1.62,15.21.85Z"/><path class="cls-1" d="M89.55,187.19c.49-.07.75.09.85.42,1.4,25.29,2.56,54.52,3.8,82.79.9,20.41,1.61,37.93,2.53,58.3.46,10,1.14,20.06,1.27,29.14-1.69-1.27-4-1.95-7.18-1.69-.48-6.55-.08-13.95-.85-21.12,1.48-.92,4.91.12,5.92-1.27.28-2.07.58-4.28-.42-5.91-1.27-.85-4-.24-5.92-.42-.48-6.36-.24-15.63-.84-21.54,1.83,0,2.35-1.31,4.64-.85.68-2.12,2.07-5.67.43-7.6-1.14-.83-3.7-.25-5.5-.43.15-6.91-1.22-15.82-.84-20.27.8-.75,2.79-.31,4.22-.42,2.94-4.48,1-9.48-4.64-8.45-.14-8.1-.2-14.81-.85-22,2.16.34,3.07-.59,5.07-.42.07-1.41.93-4.66,0-6.76-1.39-1.08-2.95.5-5.07,0-1.25-5.54-.4-14.36-1.27-19,.15-1.4,2.44-.66,3.81-.84,1.32-1.49,1.8-3.83,2.53-5.91-.53-2.29-4.32-1.31-6.34-2.12.19-6.55-.66-13.75-.84-21.12,1.7-1,5.8.45,5.49-2.53Z"/><path class="cls-2" d="M89.13,215.06c-4.68,1.68-10.77.59-16.48.85-4.88.21-9.72,1.05-13.93,0-.22-3.63,3.19-2.88,6.33-3,6-.15,11.8-.37,17.74-.42,2.91,0,6.29-.58,6.34,2.54Z"/><path class="cls-2" d="M90.82,241.25c-.58,3.22-4.74,2.09-7.18,2.11-2.86,0-6.11-.09-8.87,0-5.09.17-11.58,1.4-15.63-.42.19-4.08,5.48-2.4,8.87-2.53,6.25-.25,15.76-1.52,20.27-.85C89.31,239.72,90.43,239.83,90.82,241.25Z"/><path class="cls-2" d="M91.66,273.36c-7.15,1.43-22.48,1.23-32.1,1.27-.74-1.42.28-2.17,0-4.23,5.19-.5,13.07-.53,19.85-.84,3-.14,6.42-.72,8.45-.42,2.33.33,4.67,1.19,3.8,4.22Z"/><path class="cls-2" d="M60,303.35v-3.8c6.46-.11,17.06-1,25.77-1.27,3-.09,7.56-.13,7.18,2.54-.43,3-15.5,2.31-20.27,2.53-4.19.19-8.5-.14-12.68,0Z"/><path class="cls-2" d="M94.62,330c-.24,3.54-4.29,2-6.76,2.11-8,.24-19.81,1.05-27.46,0v-1.69C61.65,329,65,329.19,68,329.12c6.12-.16,11.28,0,16.47-.43,3.66-.28,7.91-.76,10.14,1.27Z"/><path class="cls-2" d="M96.31,360.8c-9.48-.94-22.75,2.89-32.95.85-1.21-.25-3.53.31-3-2.12,1.31-2.26,5.3-1.26,8-1.26,5.57,0,13.27-.34,17.32-.43,4.2-.09,10.65-2.35,10.56,3Z"/><path class="cls-1" d="M97.58,361.64c.36-.08.4.17.42.42,2,15.78,1.59,35.14,3,54.92-1.39,1-2-1.76-3.38-2.12-2-.27-3,.56-4.23,0a173.87,173.87,0,0,0-1.26-21.54c4.29-.07,7.51-1.22,6.33-6.76-.64-2-3.63-1.71-6.33-1.69.28-5.95-.6-15.22-.85-20.69,2.29-.66,5.64-.27,6.33-2.53Z"/><path class="cls-2" d="M96.73,389.52c-.78,1.67-3,.73-4.22.85-9.4.88-21.52.87-31.68.84a8.07,8.07,0,0,0,.42-3.38c7.12-.58,16.86-.4,24.08-1.27,3.08-.36,13.19-1.39,11.4,3Z"/><path class="cls-2" d="M98.84,419.93c-3.49,1.61-7.34.72-11,.85-7,.24-18,2-26.61.42.14-1,.67-1.59.42-3,7.26-.92,21.89-1.26,30.84-1.27,3.08,0,6-.77,6.33,3Z"/><path class="cls-1" d="M100.11,418.66c.49-.07.75.09.85.42.33,8.47.61,15.59,1.26,24.5-3.37-.43-5.59-2-8-3.38.89-3.41.63-11.89-.42-16.05,4,0,6.22-1.64,6.32-5.49Z"/><path d="M0,424.58c6.2-1,14.22-.14,21.12-.42-.87,2.66-4,.86-5.91.84-4.3,0-9.64.69-15.21-.42Z"/><path d="M0,425.84c9.24.56,18.19.8,26.19.85-1.18,1.52-4.66.88-7.18.84-5.11-.08-13.38.62-17.74-.42C.79,427,0,427.38,0,425.83Z"/><path d="M1.69,428.38c12.24.24,23.75-.45,34.64.42-.73,2.22-3.39,1.26-5.07,1.27-3.44,0-9.39-.24-15.21-.42-4.78-.15-9.89.4-13.09,0-.82-.11-1.13.25-1.27-1.27Z"/><path d="M22,431.34c-1,1.88-3.53.47-5.5.42-4.31-.11-9.29.19-12.25,0-.71.16-.79-.33-.84-.84,4.78-.1,13.23-.3,18.59.42Z"/><path d="M28.73,430.92c3.64,1.07,12.38-1.74,15.2,1.27-4.08-.6-10.37.79-13.94,0-.64-.15-1.49-.15-1.26-1.27Z"/><path d="M25.35,433.45c-1,2.94-3.9.45-5.92.42-4.7-.06-10.57,2.18-14.78,0,6.92-1,13.31-.39,20.7-.42Z"/><path d="M29.57,436.83c-6.37-.08-13.84-.63-22.39-.42.45-1.63,2.48-.81,3.38-.85,4.49-.17,10.07.23,14.36.42,1.64.08,4.29-1.67,4.65.85Z"/><path d="M89.13,2.17c2.08,46.05,3.39,91.6,6.33,139,2.37,38.09,2.11,76.22,5.07,113.2.36,4.51-.19,9.16,0,13.52.46,10.32,1.25,20.43,1.69,30.41.88,19.84,1.48,39.17,2.54,58.3,1.62,29.49,4.3,57.7,5.06,88.28-7.87,1.75-16,.67-23.65.42s-15.67-.9-24.08-.84c-1.13,1,.74,2.89-.42,4.22-10.28.15-20.77-.69-31.26-1.27.64-1.53,2.19,0,3.8-.84-2.57-2-7,.74-9.29-1.69,8.76.29,14.14-.35,22,0-1.27-1.63-3.65-.67-5.49-.85-1.66-.15-3.34-.89-5.07-.84-3.21.09-6.27.72-10.56.42-1.71-.12-4.54,1-5.07-1.27,9.17,0,18.64.72,25.76.43-3.89-1.72-8.88-.9-13.93-1.27-4.06-.3-10.82-.31-15.63-.85,1.23-1.23,3.78-.93,5.91-.84,7,.28,16.07,1.42,23.23.84.13-1.61-1.71-.63-2.53-.84-1.68-.44-5.73-1.5-8.87-1.27-1.23.09-2.18.83-3.38.84-6.71.08-13.5-.24-19.85-.42-.1-2.07,6.28.11,5.49-1.27,3.84-.05,13.25,1.85,16.89-.42a55.5,55.5,0,0,0,12.67.85c-.62-2.48-7.16,1-7.18-2.12,2.79-.54,5.19,1.12,7.18,0-1.66-3.4-11,.91-12.67-2.53a76.22,76.22,0,0,1,11.41.42c1.46-4.61.58-9.4.42-14.36-.19-5.89.24-13,.42-19,.56-19.14,0-39.68,0-59.56,0-25.08.2-46.91-.42-68.43-.11-3.89.39-7.82.42-11.82.2-22.39-.13-45-.42-65.48-.17-11.6-.08-27.38,0-41.81.23-42.72,1-84.95.42-125.88-.1-8.11-.42-16.6.85-25.77,3-1.09,7.62-2.54,11-.85.3,2.15-.19,5.61,0,8.88,5.56.88,12.14-.8,18.58-.43.93-2.35-1-5.55,0-8C80.76-.13,86.19-1,89.13,2.2Zm-11,.43c-.39,1.44.23,4.2,0,6.75,1.21.05,2.76-.23,3.37.43,1.32,3.14,0,6.51-3.37,6.33.62,6.63.52,14,.84,19.86,1.59.66,4.21.29,5.07,1.68-.23-12.31-.27-23.15-1.27-35.9A13.06,13.06,0,0,0,78.15,2.6ZM49,2.6c-1.85,4-.85,8.42-.85,12.67,0,36.81-.27,65.72-.42,96.73-.47,101,.14,205.66,0,324.83,0,2.08.92,4.3,0,6.33,3.26,0,4.85,3.79,7.61,3-1.65-18.89-.42-37.52-.85-55.76-1-42.68-.22-95.42-1.27-133.48-.25-9.34-.42-18.68-.42-29.14,0-83.81-1-145.71-1.26-225.14-.43,0-.51-.34-.85-.42-.57.12-.81.59-1.69.41Zm3.8.84c.83,36.36.32,73.73.85,109,.69,46.84-.68,95.64,1.26,139.82.43,9.61,0,19.23,0,28.72.21,37.91.74,74.28,1.27,109,.25,16.18-.21,33.62.42,51.12,0,1.38-1.34,5.65,2.12,5.49,1.57-1.21.83-4.34.84-6.34.1-17.62-.42-34.73-.42-52.38,0-19.36-.85-38.52-.85-57,0-27.4-.67-57.08-.84-79C57.38,243,56.9,234,57,226.05c.8-52.74-1.57-101.87-.85-148.26.08-4.84-.3-8.14-.42-11.4-.74-19.51,1-38.63,0-58.72-.08-1.47,1.06-5.29-2.11-5.49-.76-.05-1,.42-.85,1.27Zm31.68.85c1,43.21,3.46,90.58,5.49,136.86.85,19.18,1.29,38,2.11,56.18,1.49,32.82,2.86,73.64,5.07,107.29.62,9.33.41,18.6.85,27.87,1.67,35.07,4,69.83,5.49,105.6.06,1.45-1.22,5.59,2.11,5.49,2.2-1.18,1.3-4.21,1.27-5.91-.05-2.37-.34-4.9-.42-7.18-1.23-31.19-3.57-63.52-5.07-95C98.8,281.26,96.73,223,93.77,168.18c-1.49-27.73-2.34-56-3.8-82.37s-1.3-53.2-3-76.88c-.12-1.73.93-5.11-1.68-5.91-.76-.06-1,.42-.85,1.26ZM72.23,11c-2.14.11-6.52-.25-9.71,0-1.46.12-3.81,0-4.65,1.27V14a124.18,124.18,0,0,0,16.05-.42c2.51-.27,6.28.48,7.18-1.69C79.68,9.33,75,10.91,72.23,11Zm-14.36,5.5c.63,7.75-.08,14.06.42,20.69,6.29-.33,12.59-.64,19-.84-.07-6.2.44-15.28-.84-20.7C70.81,16.53,63.4,15.58,57.87,16.54Zm16.9,21.54c-3.66.15-8.11.37-11,.42-2.3,0-6.82-1.75-5.91,2.11,3,1.25,7.63.19,11.83,0,4.36-.2,8.82,0,12.25-.84C81.77,36.45,77.63,38,74.77,38.08Zm7.6,4.64h-3c-.25,8.11.46,16.16.43,22.81,2.37,0,4.33.43,5.91,2.12-.88-7.8-1-17.88-1.27-27.88-.56,0-.39-.74-.84-.85C83.19,40.17,83.06,41.72,82.37,42.72Zm-24.08.85C57.24,51,59.3,58,57.87,66c7.25,1.29,15-.21,20.28-.43-.22-7.24-.24-16.42-.85-22.81C70.32,43,65.17,42.89,58.29,43.57ZM73.92,67.65c-3.77.17-8.38-.44-11.83,0-1.3.16-4.46-.13-4.22,2.11.64,2.53,3.74.92,5.91.84,4.54-.15,10-.21,13.94-.42,2.35-.12,5.92,1.21,5.49-2.11C81,66.26,77.44,67.48,73.92,67.65Zm5.92,5.49c.53,7.64.5,15.13.84,20.27,3.31-.64,4.56.79,5.92,2.11-.23-9.87-1-15.7-.85-25.76-.09-.33-.35-.49-.85-.42C85.21,72.6,82.32,72.66,79.84,73.14Zm-21.55.42c-.09,7.75.46,13.17,0,20.28,8.19.23,12.89-.41,20.7-.43-.6-7.36.43-13.21-.84-20.69C70.61,72.74,63.86,72.42,58.29,73.56ZM81.53,94.68c-5.67.93-17.35-.1-23.24.85.05,2.09-.41,2.07,0,3.8,5.25-.31,14.37-.75,19.43-.85,2.44,0,5.62.74,7.18-1.26C85.12,95.38,82.69,94.49,81.53,94.68Zm3.8,6.34H81.1c.55,5.53.45,15.31.43,22.81,2.24.26,5.77,1.12,6.75,1.27-.44-9.54-1.22-18-1.26-27-.09-.47-.47-.65-.85-.84-1,1.36-.36,2.51-.84,3.8Zm-27,1.26c.68,5.7.36,14.81.43,22.39,6.57-.45,14-.08,21.12-.85-.22-8.06-1-15.91-.43-22.38-6-.35-15.18-.27-21.12.85Zm22,23.24c-6.66.13-15.43.37-22,.85.1,1.54.58,1.62,0,2.95a131.68,131.68,0,0,0,14.79-.42c4.58-.39,12.07,2,12.67-2.53-1.15-2.06-3.51-.88-5.49-.84ZM82,131.43c-.17,8.25.56,15.7.84,22.39,2.69.22,4.56-.41,6.34,0-.35-7.87-1.26-15-.85-23.66-1.49-.48-3.87,1.36-6.33,1.27Zm-23.23.84c.19,9.65-.16,13.85.42,22,7.63.17,14.17-.75,22-.43-.07-6.4-.47-12.39-.84-17.31-.12-1.6,1-4.73-1.27-5.5-6.76,1.11-14.76-.27-20.27,1.26Zm13.51,23.24c-4.57.18-14.24-2.22-13.51,3.38,4.47.35,11-.15,16.89-.42,4.23-.19,9.86,1.36,11.41-1.69-2.21-3.18-9.21-1.5-14.79-1.27Zm11,5.49c-.33,7.37.56,13.52.42,20.7,1.42.74,2.16-.29,4.22,0,1.31.24,1.11,2,2.54,2.11-.18-10-1.16-14.13-.85-24.5-.09-.47-.47-.66-.84-.84-.11,2.57-3.47,1.89-5.5,2.54Zm-1.69,0h-.85c-5.72.33-16-.22-22,1.27.75,7.29-.18,14.18.42,20.27,7.59-.43,17,.94,23.23-.84-.46-6.73-.78-13.58-.84-20.7Zm-8,22.81c-2.46.11-5.65-.06-8.45,0-2.29.05-6.82-1.05-6.33,2.54,1.24,1.69,4.24,1,6.75.84,5-.26,10.42-.36,16.48-.42,2.38,0,6.63,1.14,6.76-2.11-3.19-2.47-9.56-1.1-15.21-.84Zm10.56,5.91c.18,7.36,1,14.56.84,21.12,2,.81,5.81-.18,6.34,2.11-.73,2.09-1.21,4.42-2.53,5.92-1.37.18-3.66-.56-3.81.84.87,4.65,0,13.47,1.27,19,2.12.49,3.69-1.08,5.07,0,.94,2.09.07,5.34,0,6.76-2-.17-2.91.75-5.07.42.65,7.15.71,13.87.85,22,5.62-1,7.58,4,4.64,8.44-1.43.12-3.42-.32-4.22.43-.38,4.44,1,13.36.85,20.27,1.8.17,4.35-.41,5.49.42,1.64,1.94.25,5.49-.43,7.61-2.29-.46-2.81.85-4.64.84.6,5.92.36,15.19.84,21.55,1.93.18,4.65-.43,5.92.42,1,1.63.7,3.84.42,5.91-1,1.39-4.44.35-5.92,1.27.77,7.16.38,14.57.85,21.12,3.22-.26,5.49.42,7.18,1.69-.13-9.09-.81-19.13-1.27-29.15-.92-20.37-1.63-37.88-2.53-58.29-1.24-28.27-2.4-57.5-3.8-82.79-.1-.33-.36-.49-.85-.42.31,3-3.79,1.58-5.49,2.56Zm-24.92.85c0,6.19.12,13.57,0,21.54,7.77-.39,15.49-.83,23.65-.84.67-5-.81-15.92-.42-22-7.55.7-17.52,0-23.23,1.27Zm23.65,22c-5.94.06-11.76.27-17.74.42-3.14.08-6.55-.66-6.33,3,4.21,1.06,9,.21,13.94,0,5.7-.25,11.79.84,16.47-.85,0-3.12-3.43-2.56-6.34-2.53Zm-23.65,7.18c-.22,8.39.49,13.53.42,19.43,6.88.45,15.78-.44,24.5-.42-.16-6.61.39-13.9-.42-19.86-9.1,0-17.17-.07-24.5.84Zm29.14,19.85c-4.51-.67-14,.6-20.27.85-3.39.13-8.68-1.55-8.87,2.53,4,1.82,10.54.59,15.63.42,2.76-.09,6,0,8.87,0,2.44,0,6.6,1.11,7.18-2.11-.39-1.41-1.51-1.52-2.54-1.68Zm-28.72,7.61c.13,6.08.37,15.24.42,21.54,9.48.18,15.47-.55,24.92-.42,0-6.23.34-14.82-.42-22.39-8.75.56-16.9-.37-24.92,1.27Zm28.3,22c-2-.29-5.49.29-8.45.42-6.78.31-14.66.34-19.85.85.28,2.06-.74,2.8,0,4.22,9.62,0,25,.17,32.1-1.27.86-3-1.47-3.88-3.8-4.22ZM60,277.58c-.15,6.52.42,13,0,19.85,9,1.09,17.26-.1,26.61-.42-.68-6.88-.19-14.43-.84-20.27-8.89,0-17.36.37-25.77.84Zm12.67,25.77c4.78-.22,19.85.5,20.28-2.53.38-2.67-4.13-2.63-7.18-2.54-8.71.26-19.31,1.16-25.77,1.27v3.8c4.18-.14,8.49.19,12.67,0ZM60,307.15c1,6.33-.22,14.87.85,21.12,9.54-.67,17-.84,27-.84-.08-6.6-1.19-14.61-.84-21.55-9.18.26-19.19-.31-27,1.27Zm24.5,21.54c-5.19.4-10.35.27-16.47.42-3.05.08-6.36-.17-7.61,1.27v1.69c7.64,1,19.47.23,27.46,0,2.47-.07,6.52,1.43,6.76-2.11-2.23-2-6.48-1.55-10.14-1.27ZM60.4,335.87c.43,8.91-.29,14,.43,21.12,9.72,0,17.29-.71,27.88-.42.47-6.25-1.09-14.94-.43-21.54-8.11-.19-19,.39-27.88.84Zm25.35,22c-4,.08-11.75.42-17.32.42-2.72,0-6.71-1-8,1.27-.58,2.43,1.74,1.87,3,2.11,10.2,2.05,23.47-1.78,33-.84.08-5.31-6.36-3.05-10.56-3Zm5.49,6.33c.25,5.48,1.13,14.74.85,20.7,2.7,0,5.69-.35,6.33,1.69,1.18,5.54-2,6.68-6.33,6.76a173.75,173.75,0,0,1,1.26,21.54c1.24.56,2.18-.27,4.23,0,1.38.36,2,3.08,3.38,2.11-1.37-19.77-.92-39.14-3-54.91,0-.26-.06-.5-.42-.43-.7,2.27-4,1.87-6.34,2.53Zm-30,.85c-1.18,5.93-.07,15.77,0,21.12,10.58-.08,18.7-.41,28.72-.85.42-5.93-.65-14-.42-21.11-7.29-.31-19.26.26-28.3.84Zm24.08,21.54c-7.22.87-17,.69-24.08,1.27a8.07,8.07,0,0,1-.42,3.38c10.16,0,22.28,0,31.68-.85,1.22-.11,3.44.83,4.22-.84,1.79-4.36-8.32-3.33-11.4-3Zm-24.08,8c-.1,7.55.59,15.65.42,22,10.12-.75,19.52-.41,29.57-1.69.4-7.64-.33-14.47-.42-21.55-10.47-.2-19.79.75-29.57,1.26ZM92.51,417c-9,0-23.58.34-30.84,1.27.25,1.37-.29,2-.42,2.95,8.56,1.54,19.58-.18,26.61-.42,3.63-.12,7.49.76,11-.84-.34-3.74-3.25-3-6.33-3Zm1.26,7.18c1.06,4.16,1.32,12.64.43,16,2.43,1.37,4.65,3,8,3.38-.65-8.91-.94-16-1.27-24.5-.09-.33-.35-.49-.84-.42-.09,3.84-2.35,5.52-6.33,5.49Zm-32.1.84c-.22,4.72.67,6.84,0,11,1.13.71,3.78-.11,3.8,1.69-1,.26-3.06-.53-3.38.42,7.29,1.41,16.25-.23,23.24.43,1.66.15,4.06.1,5.06,1.69-9.19.08-19.13-1-28.3-.43,9.58,1.13,20.18,1.23,30.84,1.27-.31-5.74-1.44-10.67-1.27-16.9-8.52-.6-19.14.55-30,.85Zm5.07,18.59c1.68,0,3.63-.87,5.49-.42a99,99,0,0,0,24.92.84c-10.76-1.48-23.53-1-35.06-1.69.9,1.17,3.19,1.22,4.65,1.26Zm-27,3c-1.57.3-1.82-.72-3.38-.42-3.09.09.05.67,2.53.84a33,33,0,0,0,6.76-.42c1.87-.3,4.05,1.28,5.49,0C47.48,446.15,42.66,445.17,39.71,446.54Z"/></svg>