<svg id="Layer_1" data-name="Layer 1" xmlns="http://www.w3.org/2000/svg" viewBox="0 0 175.1 278.91"><defs><style>.cls-1,.cls-10,.cls-100,.cls-101,.cls-102,.cls-103,.cls-104,.cls-105,.cls-106,.cls-107,.cls-108,.cls-109,.cls-11,.cls-110,.cls-111,.cls-112,.cls-113,.cls-114,.cls-115,.cls-116,.cls-117,.cls-118,.cls-119,.cls-12,.cls-120,.cls-121,.cls-122,.cls-123,.cls-124,.cls-125,.cls-126,.cls-127,.cls-128,.cls-129,.cls-13,.cls-130,.cls-131,.cls-132,.cls-133,.cls-134,.cls-135,.cls-136,.cls-137,.cls-138,.cls-139,.cls-14,.cls-140,.cls-141,.cls-142,.cls-143,.cls-144,.cls-145,.cls-146,.cls-147,.cls-148,.cls-149,.cls-15,.cls-150,.cls-151,.cls-152,.cls-153,.cls-154,.cls-155,.cls-156,.cls-157,.cls-158,.cls-159,.cls-16,.cls-160,.cls-161,.cls-162,.cls-163,.cls-164,.cls-165,.cls-166,.cls-167,.cls-17,.cls-18,.cls-19,.cls-2,.cls-20,.cls-21,.cls-22,.cls-23,.cls-24,.cls-25,.cls-26,.cls-27,.cls-28,.cls-29,.cls-3,.cls-30,.cls-31,.cls-32,.cls-33,.cls-34,.cls-35,.cls-36,.cls-37,.cls-38,.cls-39,.cls-4,.cls-40,.cls-41,.cls-42,.cls-43,.cls-44,.cls-45,.cls-46,.cls-47,.cls-48,.cls-49,.cls-5,.cls-50,.cls-51,.cls-52,.cls-53,.cls-54,.cls-55,.cls-56,.cls-57,.cls-58,.cls-59,.cls-6,.cls-60,.cls-61,.cls-62,.cls-63,.cls-64,.cls-65,.cls-66,.cls-67,.cls-68,.cls-69,.cls-7,.cls-70,.cls-71,.cls-72,.cls-73,.cls-74,.cls-75,.cls-76,.cls-77,.cls-78,.cls-79,.cls-8,.cls-80,.cls-81,.cls-82,.cls-83,.cls-84,.cls-85,.cls-86,.cls-87,.cls-88,.cls-89,.cls-9,.cls-90,.cls-91,.cls-92,.cls-93,.cls-94,.cls-95,.cls-96,.cls-97,.cls-98,.cls-99{fill:none;stroke:#000;stroke-linecap:round;}.cls-1{stroke-width:0.95px;}.cls-2{stroke-width:0.92px;}.cls-3{stroke-width:0.92px;}.cls-4{stroke-width:1.25px;}.cls-5{stroke-width:1.58px;}.cls-6{stroke-width:1.65px;}.cls-7{stroke-width:1.28px;}.cls-8{stroke-width:1.56px;}.cls-9{stroke-width:1.52px;}.cls-10{stroke-width:1.28px;}.cls-11{stroke-width:1.52px;}.cls-12{stroke-width:1.48px;}.cls-13{stroke-width:1.02px;}.cls-14{stroke-width:1.17px;}.cls-15{stroke-width:0.99px;}.cls-16{stroke-width:1.09px;}.cls-17{stroke-width:1.2px;}.cls-18{stroke-width:0.83px;}.cls-19{stroke-width:1.26px;}.cls-20{stroke-width:1.22px;}.cls-21{stroke-width:1.11px;}.cls-22{stroke-width:1.16px;}.cls-23{stroke-width:1.09px;}.cls-24{stroke-width:1px;}.cls-25{stroke-width:1.1px;}.cls-26{stroke-width:1.24px;}.cls-27{stroke-width:0.98px;}.cls-28{stroke-width:1.1px;}.cls-29{stroke-width:0.94px;}.cls-30{stroke-width:1.1px;}.cls-31{stroke-width:0.93px;}.cls-32{stroke-width:1.32px;}.cls-33{stroke-width:1.04px;}.cls-34{stroke-width:1.23px;}.cls-35{stroke-width:1.74px;}.cls-36{stroke-width:1.07px;}.cls-37{stroke-width:1.07px;}.cls-38{stroke-width:0.96px;}.cls-39{stroke-width:1.09px;}.cls-40{stroke-width:1.07px;}.cls-41{stroke-width:1.44px;}.cls-42{stroke-width:1.49px;}.cls-43{stroke-width:1.18px;}.cls-44{stroke-width:1.65px;}.cls-45{stroke-width:1.11px;}.cls-46{stroke-width:1.11px;}.cls-47{stroke-width:1.19px;}.cls-48{stroke-width:1.2px;}.cls-49{stroke-width:1.12px;}.cls-50{stroke-width:1.48px;}.cls-51{stroke-width:1.17px;}.cls-52{stroke-width:1.42px;}.cls-53{stroke-width:1.12px;}.cls-54{stroke-width:1.3px;}.cls-55{stroke-width:1.4px;}.cls-56{stroke-width:1.31px;}.cls-57{stroke-width:1.1px;}.cls-58{stroke-width:1.49px;}.cls-59{stroke-width:1.02px;}.cls-60{stroke-width:1.31px;}.cls-61{stroke-width:1.22px;}.cls-62{stroke-width:1.33px;}.cls-63{stroke-width:1.18px;}.cls-64{stroke-width:1.05px;}.cls-65{stroke-width:1.22px;}.cls-66{stroke-width:1.1px;}.cls-67{stroke-width:1.15px;}.cls-68{stroke-width:1.52px;}.cls-69{stroke-width:1.26px;}.cls-70{stroke-width:1.1px;}.cls-71{stroke-width:1.38px;}.cls-72{stroke-width:1.06px;}.cls-73{stroke-width:1.06px;}.cls-74{stroke-width:1.02px;}.cls-75{stroke-width:0.97px;}.cls-76{stroke-width:1.02px;}.cls-77{stroke-width:1.03px;}.cls-78{stroke-width:1.2px;}.cls-79{stroke-width:1.01px;}.cls-80{stroke-width:1.04px;}.cls-81{stroke-width:1.73px;}.cls-82{stroke-width:1.07px;}.cls-83{stroke-width:1.25px;}.cls-84{stroke-width:1.25px;}.cls-85{stroke-width:1.42px;}.cls-86{stroke-width:1.24px;}.cls-87{stroke-width:1.07px;}.cls-88{stroke-width:1.03px;}.cls-89{stroke-width:1.36px;}.cls-90{stroke-width:0.95px;}.cls-91{stroke-width:1.2px;}.cls-92{stroke-width:1.49px;}.cls-93{stroke-width:1.12px;}.cls-94{stroke-width:1.08px;}.cls-95{stroke-width:1.45px;}.cls-96{stroke-width:1.14px;}.cls-97{stroke-width:0.97px;}.cls-98{stroke-width:2.9px;}.cls-99{stroke-width:1.35px;}.cls-100{stroke-width:1.45px;}.cls-101{stroke-width:1.97px;}.cls-102{stroke-width:1.92px;}.cls-103{stroke-width:1.95px;}.cls-104{stroke-width:1.95px;}.cls-105{stroke-width:2.15px;}.cls-106{stroke-width:1.22px;}.cls-107{stroke-width:1.26px;}.cls-108{stroke-width:2.01px;}.cls-109{stroke-width:1.02px;}.cls-110{stroke-width:1.02px;}.cls-111{stroke-width:1.23px;}.cls-112{stroke-width:1.26px;}.cls-113{stroke-width:1.12px;}.cls-114{stroke-width:1.31px;}.cls-115{stroke-width:1.17px;}.cls-116{stroke-width:1.36px;}.cls-117{stroke-width:1.37px;}.cls-118{stroke-width:1.27px;}.cls-119{stroke-width:1.11px;}.cls-120{stroke-width:1.35px;}.cls-121{stroke-width:1.16px;}.cls-122{stroke-width:0.9px;}.cls-123{stroke-width:1.13px;}.cls-124{stroke-width:0.95px;}.cls-125{stroke-width:1.07px;}.cls-126{stroke-width:1.16px;}.cls-127{stroke-width:1.07px;}.cls-128{stroke-width:1.09px;}.cls-129{stroke-width:1.39px;}.cls-130{stroke-width:1.12px;}.cls-131{stroke-width:1.19px;}.cls-132{stroke-width:1.08px;}.cls-133{stroke-width:1.15px;}.cls-134{stroke-width:1.23px;}.cls-135{stroke-width:1.14px;}.cls-136{stroke-width:1.56px;}.cls-137{stroke-width:0.96px;}.cls-138{stroke-width:1.59px;}.cls-139{stroke-width:0.92px;}.cls-140{stroke-width:1.13px;}.cls-141{stroke-width:1.95px;}.cls-142{stroke-width:1.75px;}.cls-143{stroke-width:1.66px;}.cls-144{stroke-width:1.65px;}.cls-145{stroke-width:1.3px;}.cls-146{stroke-width:1.63px;}.cls-147{stroke-width:1.05px;}.cls-148{stroke-width:1.07px;}.cls-149{stroke-width:0.99px;}.cls-150{stroke-width:1.11px;}.cls-151{stroke-width:1.89px;}.cls-152{stroke-width:1.79px;}.cls-153{stroke-width:1.12px;}.cls-154{stroke-width:0.97px;}.cls-155{stroke-width:1.26px;}.cls-156{stroke-width:1.01px;}.cls-157{stroke-width:1.48px;}.cls-158{stroke-width:1.03px;}.cls-159{stroke-width:1.62px;}.cls-160{stroke-width:1.15px;}.cls-161{stroke-width:1.21px;}.cls-162{stroke-width:1.81px;}.cls-163{stroke-width:1.64px;}.cls-164{stroke-width:1.65px;}.cls-165{stroke-width:1.43px;}.cls-166{stroke-width:1.96px;}.cls-167{stroke-width:1.09px;}</style></defs><title>stairs 03</title><path d="M140.46,4.83c-.8,1.28-4.43-.26-5.28,1-.08,2.48.3,5.42-.48,7.2l-.88-.24-.56.72c-.76,0-1.83-.23-1.92.48l-.48-.24-.48.24c-.43.21-.86.42-1,1H127.5a3.16,3.16,0,0,1,.48-2.4c-2.2-.2-2.63-2.17-4.32-2.88l.24-.72-.72-.24c-.34-2.09.82-2.7.48-4.8l.72-.56-.24-.88c1.66-.25,4.55.71,4.8-1l.48.24.48.24A62.39,62.39,0,0,0,140,3.39l-.24.88.72.56Z"/><path d="M146.14,90l.56-.72c1.06.06.2,2,.48,2.88L146.3,92l-.56.72c-2.41.72-1.49-2.81-.48-2.88l.88.24Z"/><path d="M174,261.87l.56-.72c2.56,3.17-4.44,4.55-7.2,2.88-.15-1.13-.76-1.8-.48-3.36l.72.24.72-.24c1.15-.19-.26,2.19,1.44,1.44.47,0,.37-.59.48-1l.72.24.24-.72c.42.29,1.06,2.69,1.92,1l.88.24Z"/><path d="M86.46,7l-.72-.24C81.6,8.43,77.11,2.29,82.38,2l-.24.88.72.56c-1,2,5.8.58,8.16.48,9.72-.42,21-.17,30.72-1l-.24.88.72.56c0,.76.24,1.83-.47,1.92L121,6l-.23.72c-.39-.09-.48-.48-1-.48-6.59,1.16-13.47,1.13-18.73,1.44a46.37,46.37,0,0,1-1.43,8.64l-.49-.24-.47.24c-.92.23-2.07-1.48-1.92.48l-.72-.24-.72.24h-.48l-.72-.24-.72.24c.07-.56-.11-.85-.48-1l-.24-.72-.72.24a9.23,9.23,0,0,1-3.84-3.84l-.24-.72-.72.24c-.52-1.87,2.83-4.19.48-4.8-.1.39-.49.48-.48,1L86.47,7Z"/><path d="M113.58,91.23v-2.4l.88.24.56-.72c6.14-.34,12.93,1.1,17.76.48l.24.72.72-.24c.33.38,2.68,1.07,2.88,0l.72.24.72.24-.72,1.36.24,1.52-.72-1.36-.72,1.36c-1.59-.15-2.95-.07-3.36,1l-.24-.72-.72-.24c-6.6-.55-10.68-.72-16.8-1.44L114.3,91Z"/><path d="M118.62,49.71l-.72-.24c-.19-2.17-1.1-4.44,1-5.28l.72.24.72-.24c.93,1.79.89,6.17-1.44,6.24l-.24-.72Z"/><path d="M111.42,88.11l.72-.24c.37,1.92,1.41,5.81-1.44,5.76l-.72-.24-.72.24c0-2.39-.47-5.27,1.44-5.76Z"/><path d="M102.78,134.19l.72-.24c.67,1.77,1.07,5.75-1.44,5.76l-.48-.24-.48.24c-1.5-1.55-1.12-5.15,1-5.76l.72.24Z"/><path d="M92.46,184.83h1c2.36.52.48,2.22-.48,3.36l-.24-.72-.72.24c.35-1.47-.83-1.41-.48-2.88Z"/><path d="M86.94,217.23l.72-.24c-.15,2.88.69,6.77-1.44,7.68l-.48-.24-.48-.24c-1.5.23-2-.6-2.4-1.44,1.87-1.5,2.48-4.24,3.84-6.24l.24.72Z"/><path d="M113.34,46.35l.72.24c-.14,1.62-.24,3.28-1,4.32l-.24-.72-.72.24h-7.68l.24-.72-.72-.24v-1c-.91.21-2.89-.65-2.4,1l-.72.24-.72-.24v-1c-1.1-.13-1.81.12-1.92,1l-.72.24.24.72h-2.4l.24-.72-.72-.24a28,28,0,0,0-11.52,0l-.72.24.24.72H80.94l-.24-.72L80,50c0-.47-.59-.37-1-.48l.24-1.2-1.2.24c-.41.09-.46-.19-.48-.48l.72-.56-.24-.88c11.45-.52,21.62-.31,32.64-1l.72-.24.24-.72c.75.21.41,1.51,1.92,1l-.24.72Z"/><path d="M139.74,51.15l-.24.72c-2,.49-2.56-2.24-.48-1.92l.56.72.88-.24v1l-.72-.24Z"/><path d="M140.46,90l.48-.24c.55.57.54,1.7.48,2.88l-.72-.24-.72.24-.12-1.44.12-1.44.48.24Z"/><path d="M77.58,46.11c.41-.09.46.19.48.48l-.72.56.24.88h-1l.16-1.12Z"/><path d="M64.62,83.07c.63.17.76.85,1.44,1l.72.24L67.5,84c.08,1.19,1.63.14,1.92,0l.56.72.88-.24c5.55,1.11,10.2.2,15.36,1.44l-.72.56,1.71.75c-8.19.14-15.8.13-23.42.18.08.56-.23,1.77-.61,1.87l-.56-.72-.88.24c-.28-2.52,1-3.51,1.44-5.28l.88.24Z"/><path class="cls-1" d="M95.34,154.35c.53-2.07.67-4.4,1.44-6.48"/><path class="cls-2" d="M93.42,165.39A34.58,34.58,0,0,1,94.86,158"/><path class="cls-3" d="M81.18,225.87c4.06-19.24,7.8-38.29,11.28-57.6"/><path class="cls-4" d="M72.54,269.07c2.78-13.18,5.26-27,7.92-40.08"/><path class="cls-5" d="M139.86,49.35a37.9,37.9,0,0,1,13.42,1,5.56,5.56,0,0,1-.66,3.82c-3.88.82-8-1-11.92-.17"/><path class="cls-6" d="M140.7,54c2,11.59,3.19,24.07,5.44,36"/><path class="cls-7" d="M1.14,267.75l-.25-.08a3.89,3.89,0,0,1-.54-.27c-1.26-4.55,1.2-9.12,2.59-13.2,11.16-32.89,21.72-61.4,32.28-93,5.1-15.26,9.66-30.67,15.24-45.77"/><path class="cls-8" d="M50.46,115.47c7-21.64,14-43.48,22.39-64.54"/><path class="cls-9" d="M72.85,50.93C76.61,36.07,82.16,21.77,86.46,7"/><path class="cls-10" d="M82.14,2.83c15.79-1,31.67-2.3,47.28-2.32"/><path class="cls-11" d="M129.42.51c3.66-1.14,7.87-.15,11.37.91a5.33,5.33,0,0,1,.06,2.11,5.08,5.08,0,0,1-1.11.74"/><path class="cls-12" d="M121.5,3.79a3.16,3.16,0,0,1,2.88-.48"/><path class="cls-13" d="M129.42.51v1.2"/><path class="cls-14" d="M114.46,89.07c1.75-11.67,3.78-23.24,6.56-34.56"/><path class="cls-15" d="M121,54.51a1.88,1.88,0,0,1,.48-2.4"/><path class="cls-16" d="M121.5,52.11a7.66,7.66,0,0,1,1-4.8"/><path class="cls-17" d="M122.46,47.31c1.57-10.68,3.3-21.92,6-32.4"/><path class="cls-18" d="M109.5,84.75a6.14,6.14,0,0,0,2.16.48"/><path class="cls-19" d="M111.66,85.23c2.64-11.75,4.46-23.71,7-35.52"/><path class="cls-20" d="M119.58,44.43c.14-1.3.76-2.52.72-3.84"/><path class="cls-21" d="M111.66,85.23a11.11,11.11,0,0,1-.24,2.88"/><path class="cls-22" d="M83.29,231.34c1.45-2.05,1.78-4.56,2.45-6.91"/><path class="cls-23" d="M86.94,217.23Q90,202.32,92.7,187.47"/><path class="cls-24" d="M92.46,184.83a1.77,1.77,0,0,1,1.36-3"/><path class="cls-25" d="M93.82,181.87c2.48-14.24,5.14-28,7.76-42.4"/><path class="cls-26" d="M102.78,134.19c2.14-13.6,5.33-27.1,7.2-40.8"/><path class="cls-27" d="M97.5,143.79c2.46-13.86,5.88-30.47,8.76-44.95.91-4.61,1-10.27,3.24-14.09"/><path class="cls-28" d="M109.5,84.75c3.5-25.29,9.22-50.48,14.4-75.84"/><path class="cls-29" d="M114.06,42.75c0,1.22.25,2.64-.72,3.6"/><path class="cls-30" d="M96.42,133.35a6.08,6.08,0,0,1-1,3.84"/><path class="cls-31" d="M95.46,137.19a21.5,21.5,0,0,1-.84,6.12"/><path class="cls-32" d="M39.66,176.55c14.93,1.39,30,1.7,44.88,3.24"/><path class="cls-33" d="M87.42,179.79c1-2.78,6.65-33.5,7.2-36.48"/><path class="cls-34" d="M76.58,232.4C75.27,245.24,71.48,258,69.5,271l-1.27,6.64,9.49.64,4.18-20.72C88.77,227,93.1,196.12,100,166.42"/><path class="cls-35" d="M106.33,254.6a6.22,6.22,0,0,0,1.2.52,9.61,9.61,0,0,0,1.81-.36c1-7.44-.83-15.27,0-22.84"/><path class="cls-36" d="M109.31,231.92c-1.55-4.76-1-10.14-.77-15.17"/><path class="cls-37" d="M108.54,216.75c-2.19-24.25-1.65-49.65-4-73.56"/><path class="cls-38" d="M104.25,143a15.87,15.87,0,0,0-.69,2.57c-.12.69-2.86,15.43-3.59,20.6"/><path class="cls-39" d="M104.58,143.19c1.77-15,5.29-29.75,8.16-44.16"/><path class="cls-40" d="M112.74,99c0-2.53.12-5.58,1.56-7.56"/><path class="cls-41" d="M114.3,91.47V91"/><path class="cls-42" d="M72.85,50.93c.61.15,1,.22,1.49.34"/><path class="cls-43" d="M74.34,51.27c1.33-1.14.93-3.29,2.44-4.36"/><path class="cls-44" d="M76.78,46.91c-.27-1,.51-1.8.64-2.72"/><path class="cls-45" d="M77.42,44.19c3.22-11.25,6.65-22.14,10.48-33.36"/><path class="cls-46" d="M100.14,43.11c3.58.34,7.25,0,10.8,0"/><path class="cls-47" d="M110.94,43.15a6.72,6.72,0,0,1,3.12-.4"/><path class="cls-48" d="M114.06,42.75c2.76-12,5.06-24.62,7-36.72"/><path class="cls-47" d="M77.42,44.19a7.15,7.15,0,0,0,3.28-.4"/><path class="cls-49" d="M80.7,43.79c.12-1.88,1-3.49,1.28-5.28"/><path class="cls-50" d="M80.7,43.79a9.09,9.09,0,0,0,3.12.08"/><path class="cls-51" d="M83.82,43.87c2.54-9.46,5.7-19.54,8.88-28.72"/><path class="cls-52" d="M174,261.87C164.55,205.11,155.72,148.39,146.3,92"/><path class="cls-53" d="M140.7,54a11.09,11.09,0,0,1-1-2.88"/><path class="cls-54" d="M139.86,49.35c-2.6-12.08-3.42-24.63-6-36.6"/><path class="cls-55" d="M134.86,53.31c.88,5.62,2.31,11.37,2.08,17.12"/><path class="cls-56" d="M136.94,70.43c1.92,4,2.05,8.95,1.92,13.44"/><path class="cls-57" d="M138.86,83.87c1.6,1.59,1.14,4.11,1.6,6.16"/><path class="cls-58" d="M161.34,223.47c3.07,12.26,4.61,24.87,6.24,37.44"/><path class="cls-59" d="M170.94,261.39c-13.47-82.48-27.32-165.22-40.08-247.68"/><path class="cls-60" d="M83.82,43.87c3.71-.24,7.44-.35,11.16-.52"/><path class="cls-61" d="M95,43.35c0-8.91-1.22-17.84-.84-26.76"/><path class="cls-13" d="M97.26,43.23a14.53,14.53,0,0,0,2.88-.12"/><path class="cls-62" d="M100.14,43.11c.5-9-.79-18-1-27"/><path class="cls-63" d="M122.46,47.31c3.82.29,7.89.83,11.52,1"/><path class="cls-64" d="M134,48.27c-1.84-11.23-2.37-22.75-5.52-33.36"/><path class="cls-65" d="M95,43.35a1.81,1.81,0,0,0,2.28-.12"/><path class="cls-66" d="M97.26,43.23c-.33-8.87-.78-17.79-1.2-26.64"/><path class="cls-67" d="M110.94,43.15a20.31,20.31,0,0,0,.48,2.24"/><path class="cls-68" d="M77.34,47.15l1,.32"/><path class="cls-69" d="M66.78,84.27C71,72.35,74.53,60,79.26,48.27"/><path class="cls-70" d="M74.34,51.27c-2.63,11.07-7.69,21.51-10.28,32.52"/><path class="cls-71" d="M123.42,52.59c3.82-.48,7.57.77,11.44.72"/><path class="cls-72" d="M134.86,53.31a15.23,15.23,0,0,0-.88-5"/><path class="cls-73" d="M100.86,49.71a6.37,6.37,0,0,0,3.84,0"/><path class="cls-74" d="M82.62,49.71a71,71,0,0,0,13,0"/><path class="cls-75" d="M80.34,54.39c-.31-1.52-.61-3.27.36-4.68"/><path class="cls-42" d="M139.86,49.35c-.07.4-.16.87-.28,1.32"/><path class="cls-76" d="M100.86,49.71a5.43,5.43,0,0,1-3.36,0"/><path class="cls-77" d="M98,54.51a3.28,3.28,0,0,1,3.12.36"/><path class="cls-78" d="M101.1,54.87c3.41-.63,7-.19,10.56,0"/><path class="cls-79" d="M111.66,54.87l.31-.19c.23-1.52.64-3,.89-4.49"/><path class="cls-80" d="M52.7,116.27l.25-.16c2.74-9,5.28-17.77,9.27-26.32"/><path class="cls-81" d="M62.22,89.79c.06-.21.26-.76.4-1.2"/><path class="cls-82" d="M121,54.51a2.13,2.13,0,0,0,2.5-.31,2.7,2.7,0,0,0-.1-1.61"/><path class="cls-83" d="M123.42,52.59c-.64-.18-1.28-.25-1.92-.48"/><path class="cls-84" d="M97.26,86.79c-1-10.66-.73-21.57-1.68-32.28"/><path class="cls-85" d="M95.58,54.51c-5-.28-10.29.36-15.24-.12"/><path class="cls-86" d="M80.34,54.39c-3.61,9.86-7,20.35-10.36,30.36"/><path class="cls-87" d="M99.18,86.79C99,76,98.32,65.36,98,54.51"/><path class="cls-88" d="M98,54.51a3.72,3.72,0,0,0-2.4,0"/><line class="cls-89" x1="102.54" y1="86.91" x2="102.54" y2="86.91"/><path class="cls-90" d="M102.54,86.91c.13-5-1.37-10.48-.12-15.24"/><path class="cls-91" d="M102.42,71.67A35,35,0,0,1,101.63,59"/><path class="cls-92" d="M101.1,54.87c-.17,1.43.51,2.75.53,4.15"/><path class="cls-49" d="M107.94,72.87c2-5.47,2.82-12,3.72-18"/><path class="cls-93" d="M106.5,80.07c1.37-2,1.42-4.77,1.44-7.2"/><path class="cls-94" d="M107.94,72.87c-3.13-4.05-3.07-10-6.31-13.85"/><path class="cls-95" d="M136.94,70.43l-.1,0c-2,6-2.26,12.82-3.82,19.08"/><path class="cls-96" d="M105.42,87l.3-.19c.38-2.21,1.1-4.45.78-6.77"/><path class="cls-97" d="M106.5,80.07c-2.07-2.35-1.85-6.18-4.08-8.4"/><path class="cls-98" d="M137.34,91.15a21.15,21.15,0,0,0,2.52.08"/><path class="cls-99" d="M138.86,83.87l-.1,0c-1.37,1.46-.65,3.86-1.42,5.64"/><path class="cls-100" d="M62.22,89.79c.67.61,1.62.61,2.38,1"/><path class="cls-101" d="M64.6,90.82a6.45,6.45,0,0,1,2.9.17"/><path class="cls-102" d="M67.5,91c9.78-.43,19.87-.22,29.76-.18"/><path class="cls-103" d="M97.26,90.81a10.7,10.7,0,0,1,2.4,0"/><path class="cls-104" d="M99.66,90.81c1-.15,2.1.07,3.12-.18"/><path class="cls-105" d="M102.78,90.63l.24-.12"/><path class="cls-106" d="M103,90.51a8.8,8.8,0,0,1-.48-3.6"/><path class="cls-13" d="M102.54,86.91a19.81,19.81,0,0,1-3.36-.12"/><path class="cls-88" d="M99.18,86.79a4.77,4.77,0,0,1-1.92,0"/><path class="cls-107" d="M97.26,86.79c-3.91.35-7.85-.13-11.76-.28"/><path class="cls-108" d="M103,90.51a8.66,8.66,0,0,0,1.39.29"/><path class="cls-109" d="M104.42,90.8a6.17,6.17,0,0,0,1-3.77"/><path class="cls-13" d="M105.42,87a16.3,16.3,0,0,0-2.88-.12"/><path class="cls-110" d="M52.7,116.27c-1.48,5.11-3.92,10.32-4.64,15.52"/><path class="cls-111" d="M48.06,131.79a5.14,5.14,0,0,0,3.24-.12"/><path class="cls-112" d="M51.3,131.67c3.66-13.56,8.88-27.35,13.3-40.85"/><path class="cls-113" d="M114.3,91.47c4.87,10,7.3,21.4,12.36,30.84"/><path class="cls-114" d="M126.66,122.31c3.11-9,3.35-19.75,5.88-29.4"/><path class="cls-96" d="M51.3,131.67a3.61,3.61,0,0,0,3,.12"/><path class="cls-115" d="M54.3,131.79c4.2-13.48,9.19-26.94,13.2-40.8"/><path class="cls-116" d="M54.3,131.79c12.75,1.1,26.63.14,38.88,1.92"/><path class="cls-117" d="M93.18,133.71a5.33,5.33,0,0,1,3.24-.36"/><path class="cls-118" d="M96.42,133.35c1.62-4.73,1.94-10.13,2.76-15.24"/><path class="cls-119" d="M99.18,118.11c1.58-2.25,1.34-5.23,1.68-7.92"/><path class="cls-120" d="M97.26,90.81c1.1,9-.09,18.62,1.92,27.3"/><path class="cls-121" d="M100.86,110.19l.47-.27c.84-4.87,2.12-9.37,2.17-14.37"/><path class="cls-122" d="M99.66,90.81c.21,6.47.12,13.08,1.2,19.38"/><path class="cls-123" d="M103.5,95.55c1.19-1.2,1.25-3.22.91-4.75"/><path class="cls-124" d="M102.78,90.63c.26,1.62-.1,3.46.72,4.92"/><path class="cls-125" d="M128.14,140.51c12.34,26.94,21.12,55.9,33.2,83"/><path class="cls-126" d="M161.34,223.47c.3-6.33-1.36-12.5-3-18.58"/><path class="cls-127" d="M158.4,204.89c-10.41-24.73-20.1-49-28.73-74.86"/><path class="cls-128" d="M129.66,130c-1.88-2-2.57-5-3-7.72"/><path class="cls-129" d="M129.66,130c3.16-12.65,5.06-25.76,7.2-38.72"/><path class="cls-130" d="M158.4,204.89c-4.63-37-11.74-74.72-17.69-112.46"/><path class="cls-131" d="M108.54,216.75c6.49-26.62,10.32-56,17-83"/><path class="cls-132" d="M125.58,133.71A242.29,242.29,0,0,0,112.74,99"/><path class="cls-133" d="M33.18,176.43a4.19,4.19,0,0,0,2.88,0"/><path class="cls-134" d="M36.06,176.43c4.34-13.77,9.08-27.33,13.68-41"/><path class="cls-135" d="M1.14,267.75c5.06-14.57,9.64-28.93,15-43.08"/><path class="cls-136" d="M16.14,224.67c.39-.95.74-1.91,1.08-2.88"/><path class="cls-137" d="M17.22,221.79C21.7,207.9,25.73,192.84,32,179.55"/><path class="cls-138" d="M32,179.55a6.83,6.83,0,0,1,1.2-3.12"/><path class="cls-139" d="M33.18,176.43a341.18,341.18,0,0,1,14.16-42"/><path class="cls-140" d="M47.34,134.43c.65.68,1.76.25,2.4,1"/><path class="cls-141" d="M49.74,135.39a18,18,0,0,1,3.12.12"/><path class="cls-142" d="M52.86,135.51c13.58.16,27.41,1.59,40.8,1.2"/><path class="cls-143" d="M48.06,131.79a5.44,5.44,0,0,0-.72,2.64"/><path class="cls-144" d="M93.66,136.71a11.44,11.44,0,0,0,1.8.48"/><path class="cls-83" d="M93.18,133.71c.16,1,.37,2,.48,3"/><path class="cls-145" d="M109.31,231.92l.28-.14c6.55-29.93,12-61.12,18.55-91.27"/><path class="cls-146" d="M128.14,140.51c-.65-2.31-.95-4.95-2.56-6.8"/><path class="cls-109" d="M36.06,176.43a8,8,0,0,0,3.6.12"/><path class="cls-147" d="M39.66,176.55c4-13.82,9.22-27.12,13.2-41"/><path class="cls-148" d="M100.38,166.35l.34.48c1.94,16,.46,34.35,2.68,53.94,1.18,10.4-1.44,27.58,2.36,33.64.08.13.46.07.56.19"/><path class="cls-149" d="M106.33,254.6c-1.09-32.51-2.13-67.31-4.34-99.69"/><path class="cls-150" d="M32,179.55c.78.81,2.1.12,2.88,1"/><path class="cls-151" d="M34.86,180.51a6.51,6.51,0,0,1,2.88.32"/><path class="cls-152" d="M37.74,180.83c15.68.77,31.34,2.4,47,3"/><path class="cls-15" d="M84.78,183.81c.12-1.37-1-2.65-.24-4"/><path class="cls-40" d="M86.46,184.11c.79-1.33.69-2.85,1-4.32"/><path class="cls-153" d="M87.42,179.79a4.19,4.19,0,0,0-2.88,0"/><path class="cls-154" d="M17.22,221.79c1.15-.07,2.27.8,3.36.12"/><path class="cls-19" d="M20.58,221.91c4.28-14,9-27.93,14.28-41.4"/><path class="cls-155" d="M20.58,221.91a11.25,11.25,0,0,0,3.48.6"/><path class="cls-156" d="M24.06,222.51C27.51,208.24,34,195,37.74,180.83"/><path class="cls-157" d="M75.42,228.27a11,11,0,0,1,2.28.12"/><path class="cls-158" d="M77.7,228.39c3.61-14.81,6.59-29.39,8.76-44.28"/><path class="cls-159" d="M86.46,184.11a4.48,4.48,0,0,1-1.68-.3"/><path class="cls-160" d="M92.46,184.83a5.74,5.74,0,0,0,1.84-1.63,3,3,0,0,0-.48-1.33"/><path class="cls-161" d="M16.14,224.67c.58,1.05,2.08.73,2.48,1.92"/><path class="cls-162" d="M22.26,226.59c17.65,2,35.31,3.59,52.92,5.7"/><path class="cls-13" d="M75.18,232.29c.11-1.33-.24-2.74.24-4"/><path class="cls-69" d="M75.42,228.27c-17-2.28-34.27-3.89-51.36-5.76"/><path class="cls-163" d="M1.14,267.75a14.88,14.88,0,0,0,7,0c5.12-13.36,9.52-27.42,14.13-41.19"/><path class="cls-164" d="M22.26,226.59c-1.17-.59-2.42.08-3.64,0"/><path class="cls-165" d="M18.62,226.59a8.78,8.78,0,0,0-.8,2.16"/><path class="cls-166" d="M75.18,232.29c.47.05,1,.06,1.4.11"/><path class="cls-88" d="M76.58,232.4c1.22-1,1-2.64,1.12-4"/><path class="cls-167" d="M83.29,231.34c-1.32.49-1.11,2.42-.41,3.32a1.74,1.74,0,0,0,1.19,0c.17-.77,1.15-1.27,1-2.13a20.82,20.82,0,0,1-1.75-1.18"/></svg>