<svg id="svg3084" xmlns="http://www.w3.org/2000/svg" viewBox="0 0 983.79 2371.2"><defs><style>.cls-1{fill:#194a70;}</style></defs><title>stairs 01</title><g id="layer1"><path id="path2505" class="cls-1" d="M463.24,62.18c25.87-25.44,51.74-17.27,77.6-11.94l22.91,1.19-.22-13.13C561.62,34.23,740.1-2.14,748.59.1c6.92,1.82,88.35,40.59,88.35,40.59C757,62.58,683,96.52,622,156.5c-25.91,19.42-55.58,32-63.28,84.77l2.39,688.89,11.94,16.71-.7,66.86L671,1129.54l175.51,83.58.07,11.94,94.25,8.35v11.94l43,7.17V1280C795.51,1349.4,686,1494,564.74,1627.41l3.58,495.47,9.55,9.55v66.86c-40.73,34.7-69.73,18.53-101.48,14.32l-327.13,157.6L64.5,2325.84l-2.39-93.12-33.43-117-2.39-50.15-13.13.6V2040.5l11.94-96.7,1.19-43-11.94-2.39s-3.58-28.06,2.39-29.25,53.72-77,53.72-77l-3.58-46.56L62.11,1742v-17.9l89.54-57.31,2.39-31-8.36-7.17v-19.1L278.2,1594l1.2-40.59s-9.5,4.44-7.76,0c1.86-4.78-1.09-20.9,1.79-23.29,5.8-4.82,136.11-16.11,136.11-16.11l3.58-59.7,63.28-10.74L472.81,1200C154.28,1048.1,33.13,879.42,13.15,702.13L0,703.32,2.41,615V587.51H.52L0,566l51.34-60.89V489.61l-9.55-2.39V461l89.61-61.67-.07-26.68-7.16-2.39.59-26.27L266.26,295V259.18l-10.74-6V228.14l145.59-31.81.07-35.05-6-8.35,1-22.09,67.1-1.79V62.19Z"/></g></svg>