<svg id="Layer_1" data-name="Layer 1" xmlns="http://www.w3.org/2000/svg" viewBox="0 0 550.92 551.09"><defs><style>.cls-1{fill:none;stroke:#000;stroke-width:0.89px;}</style></defs><title>web 02</title><g id="webstrip"><path class="cls-1" d="M540.64,275.91H274.89L540.64,205"/><path class="cls-1" d="M361,252.89c-6.36,5.55-5.48,18.17,2.66,23"/><path class="cls-1" d="M392.81,244.4c-9,5.55-8.85,26.66,3.19,31.5"/><path class="cls-1" d="M323.53,262.73c-4.66,6.15-3.3,9.57,2.87,13.18"/><path class="cls-1" d="M424,236c-13.38,6.66-9.95,35.92,3.79,39.87"/><path class="cls-1" d="M455.18,227.77c-13.58,7.77-10.95,46.21,6.73,48.12"/><path class="cls-1" d="M491.33,218.19c-16.88,11.06-14.24,48.64,6.31,57.71"/><path class="cls-1" d="M527,208.65c-18.26,13.13-12.78,60.66,9.42,67.25"/></g><g id="webstrip-2" data-name="webstrip"><path class="cls-1" d="M532.14,344.39,275.45,275.61l275,.33"/><path class="cls-1" d="M364.58,275.66c-7.58,3.72-10,16.14-3.39,22.92"/><path class="cls-1" d="M397.52,275.7c-10.14,3-15.46,23.46-5.08,31.25"/><path class="cls-1" d="M325.85,275.47c-6.1,4.73-5.67,8.39-.64,13.48"/><path class="cls-1" d="M429.85,275.64c-14.65,3-18.91,32.12-6.66,39.5"/><path class="cls-1" d="M462.07,275.78c-15.13,4-22.54,41.8-6,48.22"/><path class="cls-1" d="M499.45,275.88c-19.16,6.31-26.33,43.3-8.84,57.38"/><path class="cls-1" d="M536.34,275.88c-21,8-28,55.29-8.3,67.4"/></g><g id="webstrip-3" data-name="webstrip"><path class="cls-1" d="M505.59,408.35,275.45,275.48,541,347"/><path class="cls-1" d="M361.53,298.6c-8.29,1.62-13.83,13-9.21,21.26"/><path class="cls-1" d="M393.33,307.15c-10.57.31-21,18.66-13,28.88"/><path class="cls-1" d="M324.17,288.39c-7.12,3-7.65,6.64-4.11,12.85"/><path class="cls-1" d="M424.58,315.47c-14.93-.92-26.58,26.13-16.66,36.43"/><path class="cls-1" d="M455.66,323.94c-15.65-.07-32.59,34.54-18.24,45"/><path class="cls-1" d="M491.75,333.71c-20.15,1.14-36.65,35-23.39,53.14"/><path class="cls-1" d="M527.37,343.26c-22.37,2.25-41.39,46.15-25.46,63"/></g><g id="webstrip-4" data-name="webstrip"><path class="cls-1" d="M463.36,463.39,275.45,275.48l238,137.8"/><path class="cls-1" d="M352.61,320.09c-8.42-.57-16.72,9-14.4,18.15"/><path class="cls-1" d="M381.12,336.59c-10.29-2.44-25.12,12.58-20,24.52"/><path class="cls-1" d="M319.17,300.56c-7.65,1.05-9.11,4.43-7.29,11.35"/><path class="cls-1" d="M409.15,352.71C395,348,376.71,371.07,383.63,383.58"/><path class="cls-1" d="M437,368.93c-15.1-4.11-40.42,24.93-29.27,38.78"/><path class="cls-1" d="M469.31,387.71C449.55,383.6,424.85,412,433,433"/><path class="cls-1" d="M501.25,406.16c-22.2-3.62-51.93,33.86-40.89,54.22"/></g><g id="webstrip-5" data-name="webstrip"><path class="cls-1" d="M408.32,505.62,275.45,275.47,469.69,470.19"/><path class="cls-1" d="M338.44,338.54c-8-2.74-18.48,4.34-18.61,13.8"/><path class="cls-1" d="M361.7,361.85c-9.31-5-27.52,5.66-25.69,18.51"/><path class="cls-1" d="M311.19,311c-7.67-1-9.95,1.92-10,9.07"/><path class="cls-1" d="M384.6,384.68c-12.46-8.27-36.08,9.33-32.64,23.21"/><path class="cls-1" d="M407.29,407.55c-13.52-7.88-45.5,13.62-38.32,29.88"/><path class="cls-1" d="M433.65,434.05c-18-9.08-49.24,12-46.82,34.33"/><path class="cls-1" d="M459.73,460.14c-20.5-9.24-58.92,19.27-53.52,41.79"/></g><g id="webstrip-6" data-name="webstrip"><path class="cls-1" d="M344.23,532.18l-68.78-256.7L412.68,513.84"/><path class="cls-1" d="M320,352.7c-7-4.71-19-.59-21.55,8.52"/><path class="cls-1" d="M336.41,381.24c-7.69-7.26-28.05-1.66-29.61,11.23"/><path class="cls-1" d="M300.77,319.06c-7.15-2.92-10.1-.72-12,6.19"/><path class="cls-1" d="M352.62,409.21c-9.9-11.2-37.27-.31-37.53,14"/><path class="cls-1" d="M368.62,437.18c-11-11.11-47.48,1.38-44.75,18.95"/><path class="cls-1" d="M387.22,469.61c-15.05-13.44-50.67-1.16-54.11,21"/><path class="cls-1" d="M405.66,501.55c-17.41-14.23-61.9,3.37-62.52,26.52"/></g><g id="webstrip-7" data-name="webstrip"><path class="cls-1" d="M275.45,541.23V275.48l70.87,265.75"/><path class="cls-1" d="M298.47,361.59c-5.55-6.37-18.17-5.48-23,2.65"/><path class="cls-1" d="M307,393.41c-5.55-9-26.66-8.86-31.5,3.18"/><path class="cls-1" d="M288.63,324.13c-6.15-4.67-9.57-3.31-13.18,2.87"/><path class="cls-1" d="M315.38,424.63c-6.66-13.39-35.91-9.95-39.87,3.79"/><path class="cls-1" d="M323.59,455.78c-7.77-13.58-46.21-10.95-48.12,6.72"/><path class="cls-1" d="M333.17,491.92c-11.06-16.88-48.64-14.23-57.71,6.31"/><path class="cls-1" d="M342.71,527.55c-13.13-18.26-60.66-12.78-67.25,9.43"/></g><g id="webstrip-8" data-name="webstrip"><path class="cls-1" d="M206.66,532.31l68.78-256.7-.33,275"/><path class="cls-1" d="M275.39,364.75c-3.71-7.59-16.14-10-22.92-3.4"/><path class="cls-1" d="M275.36,397.68c-3-10.13-23.46-15.46-31.26-5.08"/><path class="cls-1" d="M275.58,326c-4.73-6.1-8.39-5.67-13.47-.64"/><path class="cls-1" d="M275.41,430c-3-14.65-32.12-18.91-39.5-6.66"/><path class="cls-1" d="M275.28,462.23c-4-15.13-41.8-22.54-48.23-6"/><path class="cls-1" d="M275.18,499.62c-6.32-19.17-43.3-26.34-57.38-8.85"/><path class="cls-1" d="M275.17,536.5c-8-21-55.29-28-67.4-8.3"/></g><g id="webstrip-9" data-name="webstrip"><path class="cls-1" d="M142.7,505.75,275.57,275.6l-71.5,265.58"/><path class="cls-1" d="M252.45,361.69c-1.62-8.29-13-13.84-21.26-9.22"/><path class="cls-1" d="M243.9,393.49c-.31-10.57-18.66-21-28.88-13"/><path class="cls-1" d="M262.66,324.33c-3-7.12-6.64-7.66-12.85-4.11"/><path class="cls-1" d="M235.58,424.74c.92-14.93-26.13-26.58-36.43-16.66"/><path class="cls-1" d="M227.11,455.82c.07-15.65-34.54-32.59-45-18.24"/><path class="cls-1" d="M217.34,491.9c-1.14-20.14-35-36.64-53.14-23.39"/><path class="cls-1" d="M207.79,527.53c-2.25-22.38-46.15-41.39-63-25.46"/></g><g id="webstrip-10" data-name="webstrip"><path class="cls-1" d="M87.66,463.52,275.57,275.6l-137.8,238"/><path class="cls-1" d="M231,352.77c.58-8.42-9-16.73-18.15-14.4"/><path class="cls-1" d="M214.46,381.28c2.44-10.3-12.58-25.12-24.52-20"/><path class="cls-1" d="M250.49,319.33c-1.05-7.66-4.43-9.11-11.35-7.3"/><path class="cls-1" d="M198.34,409.31c4.76-14.18-18.36-32.44-30.87-25.52"/><path class="cls-1" d="M182.12,437.14c4.11-15.1-24.93-40.42-38.78-29.28"/><path class="cls-1" d="M163.34,469.47c4.11-19.76-24.33-44.46-45.27-36.35"/><path class="cls-1" d="M144.89,501.41c3.63-22.2-33.86-51.93-54.22-40.89"/></g><g id="webstrip-11" data-name="webstrip"><path class="cls-1" d="M45.43,408.49,275.58,275.61,80.87,469.86"/><path class="cls-1" d="M212.51,338.6c2.74-8-4.34-18.48-13.8-18.61"/><path class="cls-1" d="M189.2,361.87c5-9.31-5.66-27.52-18.51-25.7"/><path class="cls-1" d="M240,311.35c1-7.66-1.93-9.94-9.08-10"/><path class="cls-1" d="M166.38,384.77c8.26-12.46-9.34-36.08-23.22-32.64"/><path class="cls-1" d="M143.5,407.45c7.88-13.51-13.62-45.49-29.88-38.31"/><path class="cls-1" d="M117,433.82c9.08-18-12-49.24-34.33-46.83"/><path class="cls-1" d="M90.91,459.9c9.25-20.51-19.27-58.93-41.79-53.53"/></g><g id="webstrip-12" data-name="webstrip"><path class="cls-1" d="M18.88,344.39l256.7-68.78L37.22,412.84"/><path class="cls-1" d="M198.36,320.13c4.71-7,.59-19-8.52-21.55"/><path class="cls-1" d="M169.82,336.57c7.26-7.7,1.66-28.05-11.23-29.61"/><path class="cls-1" d="M232,300.93c2.91-7.15.71-10.11-6.19-12"/><path class="cls-1" d="M141.84,352.78c11.21-9.9.32-37.27-14-37.54"/><path class="cls-1" d="M113.88,368.77c11.11-11-1.38-47.47-18.95-44.74"/><path class="cls-1" d="M81.45,387.38c13.44-15.05,1.16-50.67-21-54.11"/><path class="cls-1" d="M49.5,405.82C63.74,388.41,46.14,343.91,23,343.3"/></g><g id="webstrip-13" data-name="webstrip"><path class="cls-1" d="M9.73,275.48H275.48L9.73,346.35"/><path class="cls-1" d="M189.37,298.5c6.36-5.55,5.48-18.18-2.65-23"/><path class="cls-1" d="M157.55,307c9-5.55,8.86-26.66-3.18-31.51"/><path class="cls-1" d="M226.83,288.66c4.67-6.15,3.31-9.58-2.87-13.18"/><path class="cls-1" d="M126.33,315.41c13.39-6.66,10-35.92-3.79-39.88"/><path class="cls-1" d="M95.18,323.62c13.58-7.77,10.95-46.21-6.73-48.13"/><path class="cls-1" d="M59,333.2c16.88-11.06,14.23-48.64-6.31-57.71"/><path class="cls-1" d="M23.41,342.74c18.26-13.13,12.77-60.66-9.43-67.25"/></g><g id="webstrip-14" data-name="webstrip"><path class="cls-1" d="M18.78,206.7l256.69,68.78-275-.33"/><path class="cls-1" d="M186.34,275.43c7.58-3.72,10-16.14,3.4-22.92"/><path class="cls-1" d="M153.41,275.39c10.13-3,15.45-23.46,5.08-31.25"/><path class="cls-1" d="M225.07,275.62c6.1-4.73,5.67-8.39.64-13.48"/><path class="cls-1" d="M121.07,275.45c14.66-3,18.91-32.12,6.66-39.5"/><path class="cls-1" d="M88.86,275.31c15.13-4,22.54-41.8,6-48.22"/><path class="cls-1" d="M51.47,275.21c19.17-6.31,26.34-43.3,8.84-57.38"/><path class="cls-1" d="M14.58,275.21c21-8,28.05-55.29,8.3-67.4"/></g><g id="webstrip-15" data-name="webstrip"><path class="cls-1" d="M45.33,142.74,275.48,275.61,9.9,204.11"/><path class="cls-1" d="M189.39,252.49c8.29-1.63,13.84-13,9.22-21.26"/><path class="cls-1" d="M157.59,243.93c10.58-.3,21-18.66,13-28.87"/><path class="cls-1" d="M226.76,262.7c7.11-3,7.65-6.64,4.1-12.85"/><path class="cls-1" d="M126.35,235.62c14.92.92,26.57-26.13,16.65-36.43"/><path class="cls-1" d="M95.26,227.15c15.65.06,32.59-34.54,18.24-45"/><path class="cls-1" d="M59.18,217.38c20.14-1.14,36.64-35,23.39-53.14"/><path class="cls-1" d="M23.55,207.82C45.93,205.58,65,161.67,49,144.87"/></g><g id="webstrip-16" data-name="webstrip"><path class="cls-1" d="M87.56,87.7,275.48,275.61l-238-137.8"/><path class="cls-1" d="M198.31,231c8.43.57,16.73-9,14.4-18.15"/><path class="cls-1" d="M169.81,214.5c10.29,2.44,25.11-12.59,20-24.53"/><path class="cls-1" d="M231.76,250.53c7.65-1.05,9.11-4.43,7.29-11.35"/><path class="cls-1" d="M141.78,198.38c14.17,4.76,32.43-18.36,25.51-30.87"/><path class="cls-1" d="M113.94,182.16c15.1,4.11,40.42-24.93,29.28-38.79"/><path class="cls-1" d="M81.61,163.38c19.76,4.11,44.46-24.33,36.35-45.28"/><path class="cls-1" d="M49.67,144.93c22.2,3.62,51.93-33.86,40.89-54.22"/></g><g id="webstrip-17" data-name="webstrip"><path class="cls-1" d="M142.6,45.46,275.48,275.6,81.23,80.89"/><path class="cls-1" d="M212.49,212.54c8,2.74,18.48-4.34,18.61-13.8"/><path class="cls-1" d="M189.22,189.23c9.31,5,27.52-5.66,25.7-18.51"/><path class="cls-1" d="M239.74,240.06c7.66,1,9.95-1.92,10-9.07"/><path class="cls-1" d="M166.32,166.4c12.47,8.27,36.08-9.34,32.64-23.21"/><path class="cls-1" d="M143.64,143.53c13.52,7.88,45.49-13.62,38.31-29.89"/><path class="cls-1" d="M117.27,117c18,9.09,49.24-12,46.83-34.32"/><path class="cls-1" d="M91.19,90.94c20.51,9.24,58.93-19.27,53.53-41.79"/></g><g id="webstrip-18" data-name="webstrip"><path class="cls-1" d="M206.69,18.91,275.47,275.6,138.24,37.25"/><path class="cls-1" d="M231,198.39c7,4.71,19,.59,21.55-8.52"/><path class="cls-1" d="M214.51,169.85c7.7,7.26,28.05,1.65,29.61-11.23"/><path class="cls-1" d="M250.15,232c7.15,2.92,10.11.72,12-6.18"/><path class="cls-1" d="M198.3,141.87c9.9,11.21,37.27.32,37.54-14"/><path class="cls-1" d="M182.31,113.91c11,11.11,47.47-1.38,44.74-19"/><path class="cls-1" d="M163.7,81.48c15.06,13.44,50.67,1.16,54.12-21"/><path class="cls-1" d="M145.26,49.53c17.42,14.24,61.91-3.36,62.52-26.51"/></g><g id="webstrip-19" data-name="webstrip"><path class="cls-1" d="M275.47,9.86V275.61L204.6,9.86"/><path class="cls-1" d="M252.45,189.5c5.55,6.36,18.17,5.48,23-2.66"/><path class="cls-1" d="M244,157.68c5.55,9,26.66,8.85,31.5-3.19"/><path class="cls-1" d="M262.29,227c6.15,4.67,9.57,3.3,13.18-2.87"/><path class="cls-1" d="M235.54,126.46c6.66,13.38,35.91,10,39.87-3.79"/><path class="cls-1" d="M227.33,95.31c7.76,13.58,46.21,11,48.12-6.73"/><path class="cls-1" d="M217.75,59.17C228.81,76,266.39,73.4,275.46,52.85"/><path class="cls-1" d="M208.21,23.54c13.13,18.25,60.66,12.77,67.24-9.43"/></g><g id="webstrip-20" data-name="webstrip"><path class="cls-1" d="M344.24,18.78,275.46,275.47l.33-275"/><path class="cls-1" d="M275.51,186.34c3.72,7.58,16.14,10,22.92,3.39"/><path class="cls-1" d="M275.55,153.4c3,10.14,23.45,15.46,31.25,5.08"/><path class="cls-1" d="M275.32,225.07c4.73,6.1,8.39,5.67,13.48.64"/><path class="cls-1" d="M275.49,121.07c3,14.65,32.12,18.91,39.5,6.66"/><path class="cls-1" d="M275.62,88.86c4,15.12,41.81,22.54,48.23,6"/><path class="cls-1" d="M275.72,51.47C282,70.63,319,77.8,333.11,60.31"/><path class="cls-1" d="M275.73,14.58c8,21,55.29,28,67.4,8.3"/></g><g id="webstrip-21" data-name="webstrip"><path class="cls-1" d="M408.2,45.33,275.32,275.47,346.82,9.9"/><path class="cls-1" d="M298.44,189.39c1.63,8.29,13,13.83,21.26,9.22"/><path class="cls-1" d="M307,157.59c.3,10.57,18.66,21,28.87,13"/><path class="cls-1" d="M288.23,226.75c3,7.12,6.64,7.66,12.85,4.11"/><path class="cls-1" d="M315.32,126.34c-.93,14.93,26.12,26.58,36.42,16.66"/><path class="cls-1" d="M323.78,95.26c-.06,15.65,34.54,32.59,45,18.24"/><path class="cls-1" d="M333.55,59.17c1.15,20.15,35,36.65,53.14,23.39"/><path class="cls-1" d="M343.11,23.55c2.24,22.38,46.15,41.39,62.95,25.46"/></g><g id="webstrip-22" data-name="webstrip"><path class="cls-1" d="M463.25,87.56,275.33,275.47l137.81-238"/><path class="cls-1" d="M319.94,198.31c-.57,8.42,9,16.72,18.16,14.4"/><path class="cls-1" d="M336.44,169.8C334,180.09,349,194.92,361,189.83"/><path class="cls-1" d="M300.41,231.75c1,7.65,4.43,9.11,11.35,7.3"/><path class="cls-1" d="M352.56,141.77c-4.76,14.18,18.36,32.44,30.88,25.52"/><path class="cls-1" d="M368.78,113.94c-4.11,15.1,24.93,40.42,38.79,29.28"/><path class="cls-1" d="M387.56,81.61c-4.11,19.76,24.33,44.46,45.28,36.35"/><path class="cls-1" d="M406,49.67c-3.62,22.2,33.86,51.93,54.22,40.89"/></g><g id="webstrip-23" data-name="webstrip"><path class="cls-1" d="M505.47,142.6,275.33,275.47,470,81.23"/><path class="cls-1" d="M338.39,212.48c-2.74,8,4.34,18.48,13.81,18.61"/><path class="cls-1" d="M361.7,189.22c-5,9.31,5.66,27.52,18.51,25.69"/><path class="cls-1" d="M310.87,239.74c-1,7.66,1.92,9.94,9.07,10"/><path class="cls-1" d="M384.53,166.32c-8.27,12.46,9.34,36.08,23.22,32.64"/><path class="cls-1" d="M407.4,143.63c-7.88,13.52,13.62,45.5,29.89,38.32"/><path class="cls-1" d="M433.91,117.27c-9.09,18,12,49.24,34.32,46.82"/><path class="cls-1" d="M460,91.19c-9.24,20.5,19.27,58.93,41.79,53.53"/></g><g id="webstrip-24" data-name="webstrip"><path class="cls-1" d="M532,206.7l-256.7,68.78L513.68,138.25"/><path class="cls-1" d="M352.55,231c-4.71,7-.59,19,8.52,21.55"/><path class="cls-1" d="M381.09,214.52c-7.26,7.69-1.66,28,11.22,29.61"/><path class="cls-1" d="M318.91,250.16c-2.92,7.15-.72,10.1,6.18,12"/><path class="cls-1" d="M409.06,198.31c-11.2,9.9-.31,37.27,14,37.53"/><path class="cls-1" d="M437,182.32c-11.11,11,1.38,47.47,19,44.74"/><path class="cls-1" d="M469.46,163.71c-13.44,15-1.16,50.67,21,54.11"/><path class="cls-1" d="M501.4,145.27c-14.23,17.41,3.36,61.91,26.52,62.52"/></g></svg>