<?xml version="1.0" ?><svg width="50.57px" height="50.57px" viewBox="0 -3.99 50.57 50.57" xmlns="http://www.w3.org/2000/svg"><defs><style>.cls-1{fill:#ffe48d;}.cls-2{fill:#e5c97a;}.cls-3{fill:#354251;}</style></defs><g data-name="Layer 2" id="Layer_2"><g data-name="Layer 1" id="Layer_1-2"><g id="chees"><path class="cls-1" d="M1.36,14.7V20c6.6.17,6.6,7.81,0,8V41.23H4.92c.26-6.73,12.44-6.72,12.7,0H49.21V14.7Z"/><path class="cls-2" d="M11.14,29.34c6.6-.19,6.59-8.63,0-8.82V14.7H1.36V20c6.6.17,6.6,7.81,0,8V41.23H4.92c0-2.78,2.77-5,6.22-5.09Z"/><path class="cls-3" d="M37.46,39c-6.49-.21-6.48-9.6,0-9.81C43.94,29.37,43.94,38.77,37.46,39Zm0-7.09a2.19,2.19,0,0,0,0,4.37A2.19,2.19,0,0,0,37.46,31.88Z"/><path class="cls-2" d="M43.82,9.86c-2,2.49-7.37,1.5-7.39-1.83A3.23,3.23,0,0,1,38.6,5.16l-4.22-3.8L1.36,14.7H49.21Z"/><path class="cls-3" d="M49.21,16.06H1.36a1.36,1.36,0,0,1-.51-2.62L33.87.1a1.35,1.35,0,0,1,1.42.25l4.22,3.8a1.36,1.36,0,0,1-.38,2.26C36.65,7.47,38,10,40.48,9.92A3.07,3.07,0,0,0,42.79,9a1.36,1.36,0,0,1,1.94-.13l5.39,4.84A1.37,1.37,0,0,1,49.21,16.06ZM8.36,13.34h37.3L43.8,11.67c-4.67,3.18-11.74-2-7.41-6.67L34.1,2.94Z"/><path class="cls-3" d="M22,32.16a4.19,4.19,0,0,1,0-8.38A4.19,4.19,0,0,1,22,32.16Zm0-5.66a1.47,1.47,0,0,0,0,2.93A1.47,1.47,0,0,0,22,26.5Z"/><path class="cls-3" d="M49.21,42.59H17.62a1.36,1.36,0,0,1-1.36-1.36c0-2-2.24-3.73-5-3.73s-5,1.68-5,3.73a1.36,1.36,0,0,1-1.36,1.36H1.36A1.36,1.36,0,0,1,0,41.23V28a1.36,1.36,0,0,1,1.36-1.36C3.33,26.61,5,25.4,5,24s-1.66-2.63-3.63-2.63A1.36,1.36,0,0,1,0,20V14.7a1.36,1.36,0,0,1,1.36-1.36H49.21a1.36,1.36,0,0,1,1.36,1.36V41.23A1.36,1.36,0,0,1,49.21,42.59Zm-30.4-2.72h29V16.06H2.72v2.68c6.61,1.28,6.6,9.18,0,10.46V39.87h1C5.55,33.13,17,33.14,18.81,39.87Z"/><path class="cls-3" d="M26.75,13.13a3.16,3.16,0,0,1,0-6.31A3.16,3.16,0,0,1,26.75,13.13Zm0-3.59a.43.43,0,0,0,0,.86A.43.43,0,0,0,26.75,9.54Z"/></g></g></g></svg>