<?xml version="1.0" ?><svg width="49.81px" height="49.81px" viewBox="-6.11 0 49.81 49.81" xmlns="http://www.w3.org/2000/svg"><defs><style>.cls-1{fill:#ffe48d;}.cls-2{fill:#e5c97a;}.cls-3{fill:#354251;}.cls-4{fill:#c6c5c4;}.cls-5{fill:#fff;}</style></defs><g data-name="Layer 2" id="Layer_2"><g data-name="Layer 1" id="Layer_1-2"><g id="cup"><polygon class="cls-1" points="28.99 48.45 8.6 48.45 5.47 13 32.12 13 28.99 48.45"/><polygon class="cls-2" points="5.47 13 8.6 48.45 17.28 48.45 14.15 13 5.47 13"/><path class="cls-3" d="M29,49.81H8.6a1.37,1.37,0,0,1-1.36-1.24L4.11,13.12a1.37,1.37,0,0,1,1.36-1.48H32.12a1.36,1.36,0,0,1,1.35,1.48L30.34,48.57A1.36,1.36,0,0,1,29,49.81ZM9.85,47.09H27.74l2.89-32.73H7Z"/><polygon class="cls-4" points="16.81 6.59 16.81 1.36 6.79 1.36 6.79 6.59 1.36 6.59 1.36 13 11.38 13 11.38 6.59 16.81 6.59"/><path class="cls-3" d="M36.22,14.36H1.36A1.36,1.36,0,0,1,0,13V6.59A1.36,1.36,0,0,1,1.36,5.23H5.43V1.36A1.36,1.36,0,0,1,6.8,0h24a1.36,1.36,0,0,1,1.36,1.36V5.23h4.07a1.36,1.36,0,0,1,1.37,1.36V13A1.36,1.36,0,0,1,36.22,14.36ZM2.72,11.64H34.86V8H30.79a1.36,1.36,0,0,1-1.36-1.36V2.72H8.16V6.59A1.36,1.36,0,0,1,6.8,8H2.72Z"/><path class="cls-3" d="M25.78,8H7A1.36,1.36,0,0,1,7,5.23H25.78A1.36,1.36,0,0,1,25.78,8Z"/><path class="cls-3" d="M30.59,31.63H7a1.36,1.36,0,0,1-1.35-1.24L5.16,24.9a1.36,1.36,0,0,1,1.35-1.48H31.08a1.36,1.36,0,0,1,1,.44,1.38,1.38,0,0,1,.35,1L32,30.39A1.37,1.37,0,0,1,30.59,31.63ZM8.24,28.91h21.1l.25-2.77H8Z"/><path class="cls-5" d="M12.18,27.67a6.6,6.6,0,0,0,6.61,6.6c8.76-.32,8.76-12.89,0-13.21A6.61,6.61,0,0,0,12.18,27.67Z"/><path class="cls-4" d="M17.86,27.67a6.6,6.6,0,0,1,3.77-6,6.61,6.61,0,1,0,0,11.94A6.62,6.62,0,0,1,17.86,27.67Z"/><path class="cls-3" d="M18.79,35.64a8,8,0,0,1-8-8c.44-10.58,15.51-10.57,15.94,0A8,8,0,0,1,18.79,35.64Zm0-13.22a5.26,5.26,0,0,0-5.25,5.25c.25,6.94,10.26,6.94,10.5,0A5.25,5.25,0,0,0,18.79,22.42Z"/></g></g></g></svg>