<?xml version="1.0" ?><svg width="51.76px" height="51.76px" viewBox="0 -4.13 51.76 51.76" xmlns="http://www.w3.org/2000/svg"><defs><style>.cls-1{fill:#9ad7d2;}.cls-2{fill:#74c1b9;}.cls-3{fill:#354251;}.cls-4{fill:#fff;}.cls-5{fill:#c6c5c4;}</style></defs><g data-name="Layer 2" id="Layer_2"><g data-name="Layer 1" id="Layer_1-2"><g id="fish"><path class="cls-1" d="M39.59,10.59c-12.14,12.22-26.19,12.12-38.23,0C13.5-1.63,27.55-1.53,39.59,10.59Z"/><path class="cls-2" d="M4.83,13.68c10.26-8.12,21-8.11,31.29,0a30.89,30.89,0,0,0,3.47-3.09C27.45-1.63,13.4-1.53,1.36,10.59A32.07,32.07,0,0,0,4.83,13.68Z"/><path class="cls-3" d="M20.48,21.19c-11,0-19.75-9.28-20.12-9.67a1.37,1.37,0,0,1,0-1.85C.73,9.27,9.45,0,20.48,0S40.22,9.27,40.59,9.67a1.37,1.37,0,0,1,0,1.85C40.22,11.91,31.5,21.19,20.48,21.19ZM3.3,10.59C14.54,21,26.46,21,37.65,10.59,26.41.2,14.49.23,3.3,10.59Z"/><path class="cls-3" d="M50.4,18.12c-6.7-.71-12.18-6.4-12.33-6.6a1.37,1.37,0,0,1,0-1.85c.22-.23,5.35-5.7,12.16-6.59A1.36,1.36,0,0,1,51,5.66a8.82,8.82,0,0,0-4.44,4.93A8.77,8.77,0,0,0,51,15.53,1.36,1.36,0,0,1,50.4,18.12ZM41,10.59a23.59,23.59,0,0,0,3.79,2.75,10.68,10.68,0,0,1-1-2.41,1.52,1.52,0,0,1,0-.67,10.64,10.64,0,0,1,1-2.42A23.59,23.59,0,0,0,41,10.59Zm4.07,0Z"/><path class="cls-4" d="M1.36,10.59a34.79,34.79,0,0,0,10.52,7.32,12.93,12.93,0,0,0,0-14.64A35,35,0,0,0,1.36,10.59Z"/><path class="cls-5" d="M4.83,13.68a33.39,33.39,0,0,1,7.05-4.24,12.75,12.75,0,0,1,1.92,4.24A12.89,12.89,0,0,0,11.88,3.27,35,35,0,0,0,1.36,10.59,32.07,32.07,0,0,0,4.83,13.68Z"/><path class="cls-3" d="M11.88,19.27C5.68,17.17.39,11.53.36,11.52a1.37,1.37,0,0,1,0-1.85A36.09,36.09,0,0,1,11.34,2,1.37,1.37,0,0,1,13,2.5a14.08,14.08,0,0,1,2.54,8.09A14.13,14.13,0,0,1,13,18.69,1.35,1.35,0,0,1,11.88,19.27ZM3.3,10.59a34.61,34.61,0,0,0,8.06,5.59A11.45,11.45,0,0,0,11.36,5,34.72,34.72,0,0,0,3.3,10.59Zm-1.94,0Z"/><path class="cls-3" d="M9.82,11a1.74,1.74,0,0,1,0-3.47A1.74,1.74,0,0,1,9.82,11Zm0-2.72a1,1,0,0,0,0,2A1,1,0,0,0,9.82,8.31Z"/><path class="cls-1" d="M12.17,32.9C24.31,45.12,38.36,45,50.4,32.9,38.26,20.68,24.21,20.78,12.17,32.9Z"/><path class="cls-4" d="M50.4,32.9a34.79,34.79,0,0,1-10.52,7.32,13,13,0,0,1,0-14.64A34.79,34.79,0,0,1,50.4,32.9Z"/><path class="cls-2" d="M15.64,36c10.26-8.12,21-8.1,31.29,0A30.33,30.33,0,0,0,50.4,32.9c-12.14-12.22-26.19-12.12-38.23,0A31.46,31.46,0,0,0,15.64,36Z"/><path class="cls-5" d="M39.88,31.75a33.39,33.39,0,0,1,7,4.23A30.33,30.33,0,0,0,50.4,32.9a34.79,34.79,0,0,0-10.52-7.32A12.86,12.86,0,0,0,38,36,12.7,12.7,0,0,1,39.88,31.75Z"/><path class="cls-3" d="M31.29,43.49c-11,0-19.75-9.27-20.12-9.67a1.37,1.37,0,0,1,0-1.85c.37-.39,9.09-9.66,20.12-9.66S51,31.58,51.4,32a1.37,1.37,0,0,1,0,1.85C51,34.22,42.31,43.49,31.29,43.49ZM14.12,32.9c11.23,10.39,23.16,10.36,34.34,0C37.22,22.51,25.3,22.54,14.12,32.9Zm-1.95,0Z"/><path class="cls-3" d="M1.36,40.43a1.37,1.37,0,0,1-.58-2.59A8.9,8.9,0,0,0,5.23,32.9,8.87,8.87,0,0,0,.78,28a1.37,1.37,0,0,1,.76-2.58c6.8.89,11.94,6.36,12.15,6.59a1.35,1.35,0,0,1,0,1.85C13.55,34,8.06,39.72,1.36,40.43ZM6.93,30.15a10.16,10.16,0,0,1,1,2.41,1.31,1.31,0,0,1,0,.68,10.16,10.16,0,0,1-1,2.41,23.59,23.59,0,0,0,3.79-2.75A23.59,23.59,0,0,0,6.93,30.15Z"/><path class="cls-3" d="M39.88,41.58A1.36,1.36,0,0,1,38.77,41a14.14,14.14,0,0,1,0-16.2,1.35,1.35,0,0,1,1.65-.47A36.19,36.19,0,0,1,51.4,32a1.38,1.38,0,0,1,0,1.86,36.19,36.19,0,0,1-11,7.64A1.45,1.45,0,0,1,39.88,41.58Zm.52-14.27a11.5,11.5,0,0,0,0,11.17,34.33,34.33,0,0,0,8.06-5.58A34.61,34.61,0,0,0,40.4,27.31Z"/><path class="cls-3" d="M41.94,33.33a1.74,1.74,0,0,1,0-3.47A1.74,1.74,0,0,1,41.94,33.33Zm0-2.72a1,1,0,0,0,0,2A1,1,0,0,0,41.94,30.61Z"/></g></g></g></svg>