<?xml version="1.0" ?><svg width="50.61px" height="50.61px" viewBox="-13.63 0 50.61 50.61" xmlns="http://www.w3.org/2000/svg"><defs><style>.cls-1{fill:#ff6368;}.cls-2{fill:#9ad7d2;}.cls-3{fill:#d34a5b;}.cls-4{fill:#354251;}.cls-5{fill:#74c1b9;}</style></defs><g data-name="Layer 2" id="Layer_2"><g data-name="Layer 1" id="Layer_1-2"><g data-name="ice cream" id="ice_cream"><path class="cls-1" d="M20.11,15.88C23.84,9.64,19,1.22,11.68,1.36,4.36,1.22-.48,9.64,3.25,15.88A3.93,3.93,0,1,0,8.5,21.53a4,4,0,0,0,6.37,0,3.93,3.93,0,1,0,5.24-5.65Z"/><path class="cls-2" d="M18.06,23.16a3.93,3.93,0,0,1-3.19-1.63,4,4,0,0,1-6.37,0,4,4,0,0,1-4.65,1.34l7.83,26.38,7.83-26.38A3.91,3.91,0,0,1,18.06,23.16Z"/><path class="cls-3" d="M15.43,21.53a3,3,0,0,1-.28.34,3.9,3.9,0,0,0,3.19,1.27A3.93,3.93,0,0,1,15.43,21.53Z"/><path class="cls-3" d="M8.32,19.22a3.92,3.92,0,0,1,1.87-3.34A9.78,9.78,0,0,1,15.15,2C6.72-1.27-1.26,8.07,3.25,15.88A3.93,3.93,0,1,0,8.5,21.53,3.93,3.93,0,0,0,12,23.14,3.92,3.92,0,0,1,8.32,19.22Z"/><path class="cls-4" d="M18.06,24.52a5.35,5.35,0,0,1-3.19-1.07,5.33,5.33,0,0,1-6.37,0c-5.3,3.81-11.43-3.22-6.95-7.94C-1.71,8.43,3.87-.16,11.68,0c7.82-.16,13.4,8.43,10.14,15.51A5.31,5.31,0,0,1,18.06,24.52Zm-3.19-4.36a1.33,1.33,0,0,1,1.1.57,2.58,2.58,0,0,0,4.66-1.51A2.55,2.55,0,0,0,19.4,17a1.38,1.38,0,0,1-.47-1.84A8.38,8.38,0,0,0,11.68,2.72,8.38,8.38,0,0,0,4.44,15.2,1.38,1.38,0,0,1,4,17a2.55,2.55,0,0,0-1.23,2.18A2.58,2.58,0,0,0,7.4,20.73a1.35,1.35,0,0,1,2.2,0,2.6,2.6,0,0,0,4.17,0A1.33,1.33,0,0,1,14.87,20.16Z"/><path class="cls-4" d="M17.39,12.92A1.36,1.36,0,0,1,16,11.56a4.35,4.35,0,0,0-4.35-4.35,1.36,1.36,0,1,1,0-2.72,7.08,7.08,0,0,1,7.07,7.07A1.36,1.36,0,0,1,17.39,12.92Z"/><path class="cls-5" d="M12.25,23.16a3.91,3.91,0,0,0,2.9-1.29c-.1-.11-.19-.22-.28-.34A3.92,3.92,0,0,1,12,23.14Z"/><path class="cls-5" d="M18.62,23.16a3.86,3.86,0,0,0,.84-.1l.05-.19a3.9,3.9,0,0,1-1.19.27Z"/><path class="cls-5" d="M10.85,23.06A3.94,3.94,0,0,1,8.5,21.53a4,4,0,0,1-4.65,1.34l7.83,26.38,3.47-11.68Z"/><path class="cls-4" d="M11.68,50.61a1.35,1.35,0,0,1-1.3-1L2.55,23.26a1.37,1.37,0,0,1,1.81-1.65,2.59,2.59,0,0,0,3-.88,1.37,1.37,0,0,1,2.2,0,2.6,2.6,0,0,0,4.17,0,1.37,1.37,0,0,1,2.2,0,2.59,2.59,0,0,0,3,.88,1.37,1.37,0,0,1,1.81,1.65L13,49.64A1.35,1.35,0,0,1,11.68,50.61ZM5.76,24.5l5.92,20,5.93-20a5.4,5.4,0,0,1-2.74-1.05,5.33,5.33,0,0,1-6.37,0A5.43,5.43,0,0,1,5.76,24.5Z"/><path class="cls-4" d="M10.39,29.29h-5a1.37,1.37,0,0,1,0-2.73h5A1.37,1.37,0,0,1,10.39,29.29Z"/><path class="cls-4" d="M10.39,33.88H6.87a1.37,1.37,0,0,1,0-2.73h3.52A1.37,1.37,0,0,1,10.39,33.88Z"/><path class="cls-4" d="M10.39,38.47H8.08a1.37,1.37,0,0,1,0-2.73h2.31A1.37,1.37,0,0,1,10.39,38.47Z"/></g></g></g></svg>