<?xml version="1.0" ?><svg width="46.99px" height="46.99px" viewBox="0 -4.08 46.99 46.99" xmlns="http://www.w3.org/2000/svg"><defs><style>.cls-1{fill:#ff6368;}.cls-2{fill:#354251;}.cls-3{fill:#fff;}.cls-4{fill:#c6c5c4;}.cls-5{fill:#d34a5b;}</style></defs><g data-name="Layer 2" id="Layer_2"><g data-name="Layer 1" id="Layer_1-2"><g id="meat"><path class="cls-1" d="M6.25,2.55a10.24,10.24,0,0,0-4,10.66c1.5,6.43,5.57,15.2,16.58,17.38,17.89,3.54,28.94-7.1,26.46-15.93-1.7-6-6.8-7.3-14.74-5.39A11.9,11.9,0,0,1,20.29,7C15.72,3.33,9.78-.65,6.25,2.55Z"/><path class="cls-2" d="M25.69,32.65c-7.28.09-15.38-2.32-19.79-8.31a27.17,27.17,0,0,1-5-10.82A11.72,11.72,0,0,1,6.07,1C9.24-1.29,14.31.36,21.15,5.9A10.61,10.61,0,0,0,30.22,8c7.69-1.8,14-1.3,16.37,6.34,1.1,3.92-.1,8.16-3.3,11.62C39.19,30.45,32.09,32.73,25.69,32.65ZM9.35,2.73a3.29,3.29,0,0,0-2.3.92h0A8.89,8.89,0,0,0,3.56,12.9C5.05,19.26,9,27.25,19.08,29.25c8.09,1.61,16.77.5,22.21-5.18C43.83,21.31,44.81,18,44,15c-.93-3.31-3.27-6.8-13.11-4.44A13.29,13.29,0,0,1,19.44,8C15.17,4.56,11.64,2.73,9.35,2.73Zm-3.1-.18Z"/><path class="cls-3" d="M18,14.51c-.18,5.94-8.8,5.93-9,0A4.49,4.49,0,0,1,18,14.51Z"/><path class="cls-4" d="M13,14.51a4.48,4.48,0,0,1,2.52-4,4.49,4.49,0,1,0,0,8.07A4.47,4.47,0,0,1,13,14.51Z"/><path class="cls-2" d="M13.52,20.36a5.86,5.86,0,0,1-5.85-5.85c.27-7.75,11.43-7.75,11.7,0A5.86,5.86,0,0,1,13.52,20.36Zm0-9a3.13,3.13,0,0,0,0,6.26A3.13,3.13,0,0,0,13.52,11.38Z"/><path class="cls-2" d="M17.47,31a1.36,1.36,0,0,1-.5-2.62A16.22,16.22,0,0,0,24.08,23a12.36,12.36,0,0,0,1.81-3.3,1.36,1.36,0,0,1,2.61.79A17.91,17.91,0,0,1,17.47,31Z"/><path class="cls-2" d="M29.38,32a1.36,1.36,0,0,1-.72-2.51c5.68-3.54,6.27-8.2,6.27-8.24a1.36,1.36,0,0,1,2.71.3c0,.25-.75,6-7.54,10.25A1.33,1.33,0,0,1,29.38,32Z"/><path class="cls-5" d="M18.82,30.59C7.28,28.5,1.37,16.92,2.12,9.15.76,12,1.49,16.34,2.24,19.52,3.74,26,7.81,34.72,18.82,36.9c16.69,3.3,27.23-8.74,26.56-17.55C43.7,26.77,33.59,33.51,18.82,30.59Z"/><path class="cls-2" d="M24.42,38.83c-6.86.1-14.4-2.61-18.52-8.18a27.17,27.17,0,0,1-5-10.82C.15,16.58-.68,11.89.89,8.57a1.36,1.36,0,0,1,2.57.81,8.7,8.7,0,0,0,.1,3.52C5.05,19.26,9,27.25,19.08,29.25c11.54,2.27,22.47-1.39,25-10.2a1.36,1.36,0,0,1,2.68.2C47.09,29.49,37.3,38.76,24.42,38.83Zm-20-16.54C9.68,39.39,33.22,40,41.5,27.6c-5,4.07-13.1,6.27-22.95,4.32h0A20.85,20.85,0,0,1,4.45,22.29Z"/></g></g></g></svg>