<?xml version="1.0" ?><svg width="44.16px" height="44.16px" viewBox="0 -0.47 44.16 44.16" xmlns="http://www.w3.org/2000/svg"><defs><style>.cls-1{fill:#ff6368;}.cls-2{fill:#d34a5b;}.cls-3{fill:#354251;}</style></defs><g data-name="Layer 2" id="Layer_2"><g data-name="Layer 1" id="Layer_1-2"><g id="noodle"><path class="cls-1" d="M41.85,19.93H3A19.45,19.45,0,0,0,14.38,37.66v2.5a1.69,1.69,0,0,0,1.69,1.69H28.72a1.69,1.69,0,0,0,1.69-1.69v-2.5A19.46,19.46,0,0,0,41.85,19.93Z"/><path class="cls-2" d="M24.2,40.16v-2.5A19.46,19.46,0,0,1,12.76,19.93H3A19.45,19.45,0,0,0,14.38,37.66v2.5a1.69,1.69,0,0,0,1.69,1.69h9.81A1.69,1.69,0,0,1,24.2,40.16Z"/><path class="cls-3" d="M28.72,43.21H16.07A3.06,3.06,0,0,1,13,40.16V38.52A20.89,20.89,0,0,1,1.58,19.93,1.36,1.36,0,0,1,3,18.57h38.9a1.36,1.36,0,0,1,1.36,1.36A20.88,20.88,0,0,1,31.77,38.52v1.64A3.06,3.06,0,0,1,28.72,43.21ZM4.36,21.29A18.13,18.13,0,0,0,15,36.42a1.37,1.37,0,0,1,.79,1.24v2.5a.32.32,0,0,0,.33.32H28.72a.32.32,0,0,0,.33-.32v-2.5a1.36,1.36,0,0,1,.8-1.24A18.14,18.14,0,0,0,40.43,21.29Z"/><path class="cls-3" d="M13.87,34.28a1.39,1.39,0,0,1-.93-.37,13.79,13.79,0,0,1-4.12-7.7,1.36,1.36,0,1,1,2.68-.46,11.12,11.12,0,0,0,3.31,6.18A1.37,1.37,0,0,1,13.87,34.28Z"/><path class="cls-3" d="M7,20c-2.33-.19-1.12-3.29-.32-4,.33-.39.41-.5.41-.85s-.08-.47-.41-.85a3.78,3.78,0,0,1,0-5.21,1.06,1.06,0,0,0,0-1.7,3.82,3.82,0,0,1,0-5.21c.33-.38.41-.5.41-.85A1.36,1.36,0,0,1,8.42,0c2.33.19,1.12,3.29.32,4-.33.39-.41.5-.41.86s.08.46.41.85a3.77,3.77,0,0,1,0,5.2,1.06,1.06,0,0,0,0,1.7,3.82,3.82,0,0,1,0,5.21c-.33.38-.41.5-.41.85A1.36,1.36,0,0,1,7,20Z"/><path class="cls-3" d="M12,20c-2.34-.19-1.12-3.29-.32-4,.32-.39.41-.5.41-.85s-.09-.47-.41-.85a3.78,3.78,0,0,1,0-5.21,1.07,1.07,0,0,0,0-1.7,3.81,3.81,0,0,1,0-5.21c.32-.38.41-.5.41-.85A1.36,1.36,0,0,1,13.49,0c2.33.19,1.11,3.29.31,4-.32.39-.4.5-.4.86s.08.46.4.85a3.74,3.74,0,0,1,0,5.2,1.07,1.07,0,0,0,0,1.7,3.8,3.8,0,0,1,0,5.21c-.32.38-.4.5-.4.85A1.36,1.36,0,0,1,12,20Z"/><path class="cls-3" d="M17.1,20c-2.33-.19-1.11-3.29-.31-4,.32-.39.4-.5.4-.85s-.08-.47-.4-.85a3.76,3.76,0,0,1,0-5.21,1.07,1.07,0,0,0,0-1.7,3.8,3.8,0,0,1,0-5.21c.32-.38.4-.5.4-.85A1.36,1.36,0,0,1,18.55,0c2.34.19,1.12,3.29.32,4-.32.39-.41.5-.41.86s.09.46.41.85a3.74,3.74,0,0,1,0,5.2,1.07,1.07,0,0,0,0,1.7,3.81,3.81,0,0,1,0,5.21c-.32.38-.41.5-.41.85A1.36,1.36,0,0,1,17.1,20Z"/><path class="cls-3" d="M42.82,2.72H1.36A1.36,1.36,0,0,1,1.36,0H42.82A1.36,1.36,0,0,1,42.82,2.72Z"/><path class="cls-3" d="M42.72,10.63S1.39,6.45,1.33,6.46A1.36,1.36,0,0,1,1.6,3.75L42.85,7.92A1.36,1.36,0,0,1,42.72,10.63Z"/></g></g></g></svg>