<?xml version="1.0" ?><svg width="54.67px" height="54.67px" viewBox="0 -11.66 54.67 54.67" xmlns="http://www.w3.org/2000/svg"><defs><style>.cls-1{fill:#9ad7d2;}.cls-2{fill:#74c1b9;}.cls-3{fill:#354251;}.cls-4{fill:#c6c5c4;}</style></defs><g data-name="Layer 2" id="Layer_2"><g data-name="Layer 1" id="Layer_1-2"><g id="plate"><path class="cls-1" d="M1.36,18h0A12.08,12.08,0,0,0,13.41,30H41.26A12.08,12.08,0,0,0,53.31,18Z"/><path class="cls-2" d="M11,18H1.36A12.08,12.08,0,0,0,13.41,30H23A12.08,12.08,0,0,1,11,18Z"/><path class="cls-3" d="M41.26,31.36H13.41A13.42,13.42,0,0,1,0,18,1.36,1.36,0,0,1,1.36,16.6h52A1.36,1.36,0,0,1,54.67,18,13.42,13.42,0,0,1,41.26,31.36Zm-38.45-12a10.7,10.7,0,0,0,10.6,9.32H41.26a10.7,10.7,0,0,0,10.6-9.32Z"/><path class="cls-4" d="M17.31,8.12A10.52,10.52,0,0,0,3.27,18h7.15A10.46,10.46,0,0,1,17.31,8.12Z"/><path class="cls-4" d="M16,13.35A5.15,5.15,0,0,0,8.62,18h4.45A5.12,5.12,0,0,1,16,13.35Z"/><path class="cls-4" d="M38.23,7.82a11,11,0,0,0-14.57,6.81A10.47,10.47,0,0,1,24.21,18h8.26a10.47,10.47,0,0,0-.54-3.33A11,11,0,0,1,38.23,7.82Z"/><path class="cls-4" d="M29.58,9.57a16.67,16.67,0,0,1,9.54-7.51A16.72,16.72,0,0,0,20,9.57,10.46,10.46,0,0,1,24.21,18h9.57A10.46,10.46,0,0,0,29.58,9.57Z"/><path class="cls-4" d="M21.61,11.07l.16.18Z"/><path class="cls-4" d="M21.21,7.8a10.12,10.12,0,0,0-2.76-.3A5.44,5.44,0,0,1,21.33,2,5.44,5.44,0,0,0,13.49,7.5a10.33,10.33,0,0,1,6.6,2.14L20,9.57A15.28,15.28,0,0,1,21.21,7.8Z"/><path class="cls-4" d="M21.39,10.81l-.18-.18Z"/><path class="cls-4" d="M20.79,10.23l.19.17Z"/><path class="cls-4" d="M20.35,9.85l.2.16Z"/><path class="cls-3" d="M24.21,19.32H3.27A1.36,1.36,0,0,1,1.91,18a11.83,11.83,0,0,1,23.66,0A1.36,1.36,0,0,1,24.21,19.32ZM4.73,16.6h18C21,6.32,6.51,6.33,4.73,16.6Z"/><path class="cls-3" d="M18.85,19.32H8.62A1.36,1.36,0,0,1,7.26,18a6.48,6.48,0,1,1,13,0A1.36,1.36,0,0,1,18.85,19.32ZM10.24,16.6h7A3.77,3.77,0,0,0,10.24,16.6Z"/><path class="cls-4" d="M36.59,13.23A5.37,5.37,0,0,0,28.75,18h5A5.35,5.35,0,0,1,36.59,13.23Z"/><path class="cls-3" d="M39.44,19.32H28.75A1.36,1.36,0,0,1,27.38,18,6.71,6.71,0,1,1,40.8,18,1.36,1.36,0,0,1,39.44,19.32ZM30.35,16.6h7.49A4,4,0,0,0,30.35,16.6Z"/><path class="cls-3" d="M45,19.32H24.21A1.36,1.36,0,0,1,22.84,18c.15-1.33-.66-2.67-.47-3.74C26.83.94,46.15,4,46.4,18A1.36,1.36,0,0,1,45,19.32ZM25.49,16.6h18.1c-1.49-9.77-15-11.26-18.5-2A11.84,11.84,0,0,1,25.49,16.6Z"/><path class="cls-3" d="M50.93,19.32H24.21A1.36,1.36,0,0,1,22.84,18a9,9,0,0,0-3.65-7.3,1.37,1.37,0,0,1-.36-1.78A18,18,0,0,1,52.29,18,1.36,1.36,0,0,1,50.93,19.32ZM25.49,16.6h24C48.2,2.49,29.94-2.37,21.8,9.3A11.68,11.68,0,0,1,25.49,16.6Z"/><path class="cls-3" d="M21.77,12.61A1.52,1.52,0,0,1,20.71,10a1.52,1.52,0,0,1,2.42,1.21A1.37,1.37,0,0,1,21.77,12.61Z"/><path class="cls-3" d="M20.09,11a1.33,1.33,0,0,1-.82-.28,9.07,9.07,0,0,0-5.53-1.87,1.4,1.4,0,0,1-1.6-1.17A6.77,6.77,0,0,1,25.25,4.55a1.36,1.36,0,0,1-.43,1.51,15.07,15.07,0,0,0-3.37,3.76A1.37,1.37,0,0,1,20.09,11ZM14.84,6.18a11.55,11.55,0,0,1,4.76,1.5,18.54,18.54,0,0,1,2.69-3A4.07,4.07,0,0,0,14.84,6.18Z"/><path class="cls-3" d="M21.39,12.18a1.36,1.36,0,0,1-1-.44h0a1.37,1.37,0,1,1,1.79-2.06A1.39,1.39,0,0,1,21.39,12.18Z"/><path class="cls-3" d="M21,11.76a1.52,1.52,0,0,1-1.19-2.45c.86-1,2.56-.12,2.55,1.09A1.37,1.37,0,0,1,21,11.76Z"/><path class="cls-3" d="M20.55,11.37a1.36,1.36,0,0,1-.89-.33h0l-.17-.14h0a1.36,1.36,0,0,1,1.72-2.11A1.38,1.38,0,0,1,20.55,11.37Z"/></g></g></g></svg>