<?xml version="1.0" ?><svg width="512px" height="512px" viewBox="0 0 512 512" xmlns="http://www.w3.org/2000/svg" xmlns:xlink="http://www.w3.org/1999/xlink"><defs><clipPath id="clip-Chr_1"><rect height="512" width="512"/></clipPath></defs><g clip-path="url(#clip-Chr_1)" data-name="Chr 1" id="Chr_1"><rect fill="#fff" height="512" width="512"/><g data-name="Character 1" id="Character_1"><g data-name="Group 16" id="Group_16"><g data-name="8. Arms L" id="_8._Arms_L"><circle cx="60" cy="60" data-name="Ellipse 59" fill="#3b1616" id="Ellipse_59" r="60" transform="translate(80 341)"/><rect data-name="Rectangle 67" fill="#3b1616" height="111" id="Rectangle_67" transform="translate(80 401)" width="68"/></g><g data-name="7. Arms R" id="_7._Arms_R"><circle cx="60" cy="60" data-name="Ellipse 60" fill="#3b1616" id="Ellipse_60" r="60" transform="translate(313 341)"/><rect data-name="Rectangle 68" fill="#3b1616" height="111" id="Rectangle_68" transform="translate(363 401)" width="70"/></g><g data-name="6. Main Body" id="_6._Main_Body"><rect data-name="Rectangle 66" fill="#3b1616" height="171" id="Rectangle_66" transform="translate(140 341)" width="233"/><rect data-name="Rectangle 71" fill="#ba7014" height="28" id="Rectangle_71" transform="translate(140 417)" width="233"/><rect data-name="Rectangle 72" fill="#ffc8b4" height="12" id="Rectangle_72" transform="translate(140 451)" width="233"/><rect data-name="Rectangle 73" fill="#ba7014" height="4" id="Rectangle_73" transform="translate(140 469)" width="233"/></g><circle cx="127" cy="127" data-name="5. Hair Back" fill="#ba7014" id="_5._Hair_Back" r="127" transform="translate(129 24)"/><g data-name="4. Face Body" id="_4._Face_Body"><rect data-name="Rectangle 65" fill="#f4ab90" height="147" id="Rectangle_65" rx="27" transform="translate(229 245)" width="54"/><rect data-name="Rectangle 63" fill="#f4ab90" height="76" id="Rectangle_63" rx="16.5" transform="translate(140 164)" width="33"/><rect data-name="Rectangle 62" fill="#f4ab90" height="76" id="Rectangle_62" rx="16.5" transform="translate(340 166)" width="33"/><rect data-name="Rectangle 61" fill="#ffc8b4" height="258" id="Rectangle_61" rx="100" transform="translate(156 61)" width="200"/><rect data-name="Rectangle 64" fill="#f4ab90" height="91" id="Rectangle_64" rx="16.5" transform="translate(240 151)" width="33"/><path d="M16.754,10.93C26.124,12.336,34,7.8,34,15.186S26.142,33.8,16.754,33.8-3.483,16.946-3.483,9.559,7.383,9.523,16.754,10.93Z" data-name="Path 3100" fill="#fff" id="Path_3100" transform="translate(222 246.441)"/></g><g data-name="3. Eye L" id="_3._Eye_L"><ellipse cx="18.861" cy="18.861" data-name="Ellipse 57" fill="#a7a160" id="Ellipse_57" rx="18.861" ry="18.861" transform="translate(185 151)"/><path d="M12.825,0c3.372,0,1.6,5.93,4.232,8.385,2.18,2.014,8.593.728,8.593,4.44A12.825,12.825,0,1,1,12.825,0Z" data-name="Path 3098" fill="#393612" id="Path_3098" transform="translate(191.036 157.035)"/></g><g data-name="2. Eye R" id="_2._Eye_R" transform="translate(-2)"><ellipse cx="18.861" cy="18.861" data-name="Ellipse 58" fill="#a7a160" id="Ellipse_58" rx="18.861" ry="18.861" transform="translate(291.79 151)"/><path d="M12.825,0c3.372,0,1.6,5.93,4.232,8.385,2.18,2.014,8.593.728,8.593,4.44A12.825,12.825,0,1,1,12.825,0Z" data-name="Path 3099" fill="#393612" id="Path_3099" transform="translate(297.826 157.035)"/></g><path d="M127,0c70.14,0,144.163,40.216,144.163,111.655a52.067,52.067,0,0,1-3.173,17.28c-7.193,20.483-25.8,37.806-37.7,37-13.553-.921-32.69-11.679-55.179-27.744-15.545-5.358-23.4.35-48.116,0S63.875,97.647,63.875,97.647s-2.449,48.777-18.4,52.865S0,177.537,0,129.352A130.812,130.812,0,0,1,15.065,68.191c1.579-3,3.272-5.929,5.227-9.024A126.223,126.223,0,0,1,127,0Z" data-name="1. Hair 1" fill="#ba7014" id="_1._Hair_1" transform="translate(129)"/></g></g></g></svg>