<?xml version="1.0" encoding="UTF-8" standalone="no"?>
<!-- Created with Inkscape (http://www.inkscape.org/) -->

<svg
   xmlns:dc="http://purl.org/dc/elements/1.1/"
   xmlns:cc="http://creativecommons.org/ns#"
   xmlns:rdf="http://www.w3.org/1999/02/22-rdf-syntax-ns#"
   xmlns:svg="http://www.w3.org/2000/svg"
   xmlns="http://www.w3.org/2000/svg"
   xmlns:sodipodi="http://sodipodi.sourceforge.net/DTD/sodipodi-0.dtd"
   xmlns:inkscape="http://www.inkscape.org/namespaces/inkscape"
   width="20.1485mm"
   height="34.578915mm"
   viewBox="0 0 71.392324 122.5237"
   id="svg5223"
   version="1.1"
   inkscape:version="0.91 r13725"
   sodipodi:docname="mix-and-match-characters10.svg">
  <defs
     id="defs5225" />
  <sodipodi:namedview
     id="base"
     pagecolor="#ffffff"
     bordercolor="#666666"
     borderopacity="1.0"
     inkscape:pageopacity="0.0"
     inkscape:pageshadow="2"
     inkscape:zoom="0.98994949"
     inkscape:cx="58.571505"
     inkscape:cy="48.357919"
     inkscape:document-units="px"
     inkscape:current-layer="layer1"
     showgrid="false"
     fit-margin-top="0"
     fit-margin-left="0"
     fit-margin-right="0"
     fit-margin-bottom="0"
     inkscape:window-width="1615"
     inkscape:window-height="1026"
     inkscape:window-x="1985"
     inkscape:window-y="24"
     inkscape:window-maximized="1" />
  <metadata
     id="metadata5228">
    <rdf:RDF>
      <cc:Work
         rdf:about="">
        <dc:format>image/svg+xml</dc:format>
        <dc:type
           rdf:resource="http://purl.org/dc/dcmitype/StillImage" />
        <dc:title></dc:title>
      </cc:Work>
    </rdf:RDF>
  </metadata>
  <g
     inkscape:label="Layer 1"
     inkscape:groupmode="layer"
     id="layer1"
     transform="translate(-211.75777,-395.97346)">
    <g
       transform="translate(103.98437,89.814256)"
       id="g5645">
      <path
         id="path3954-8-5-3-0-1-4-1-0-3-30"
         d="m 175.08607,396.69837 c -1.30071,2.7247 -4.66812,4.35654 -7.52136,3.64482 -2.85324,-0.71172 -4.11181,-3.49748 -2.81111,-6.22218 1.30071,-2.72471 4.66812,-4.35655 7.52137,-3.64483 2.85324,0.71173 4.1118,3.49749 2.8111,6.22219 z"
         inkscape:connector-curvature="0"
         style="fill:#ab926c;fill-rule:evenodd;stroke:#000000;stroke-width:1.79010785;stroke-linecap:round;stroke-linejoin:round" />
      <path
         id="path4553-8-2-8-8-9-0-6-22"
         d="m 158.2117,396.25 c 0.85824,2.2748 17.268,-3.7223 16.446,-6.3368 -7.7437,-33.351 -15.305,-30.425 -18.197,-29.778 -4.3242,3.3368 -3.0496,14.849 1.7504,36.114 z"
         inkscape:connector-curvature="0"
         style="fill:#db2944;stroke:#000000;stroke-width:1.42690003" />
      <rect
         id="rect3252-6-7-2-7-1-6-3-5-6-5"
         rx="24.969999"
         ry="8.8413095"
         transform="matrix(1,-7.6208e-5,0.0014447,0.99999896,0,0)"
         width="50.813"
         y="393.17035"
         x="117.7325"
         height="32.128033"
         style="fill:#241d4a;fill-rule:evenodd;stroke:#000000;stroke-width:1.7112;stroke-linecap:round;stroke-linejoin:round" />
      <path
         id="path3928-9-81-8-0-49-3-5-5-9"
         d="m 154.6017,423.64 -0.25902,-10.194"
         inkscape:connector-curvature="0"
         style="fill:#ffffff;stroke:#000000;stroke-width:1.13510001;stroke-linecap:round;stroke-linejoin:round" />
      <path
         id="path3932-5-3-3-6-1-5-5-0-2-3"
         d="m 146.1117,354.89 c -0.0888,0 -0.17801,8.1e-4 -0.26669,0 -0.0503,0 -0.1007,-0.009 -0.15102,-0.009 -0.0776,0 -0.15691,-0.009 -0.23474,-0.009 l 0,0.0206 c -5.9566,0.20863 -11.574,3.9179 -15.403,8.6785 -8.2054,10.135 -11.608,23.659 -12.244,36.7 0.11317,3.3512 -0.60802,7.3537 0.62032,10.287 4.6728,3.2567 13.055,3.9826 18.758,4.8535 1.517,0.10929 3.9292,0.18698 6.5483,0.26512 l 0,0.009 c 0.27499,0.009 0.53655,0.01 0.80764,0.0152 0.0269,0 0.0526,8.9e-4 0.0795,0 2.62,0.0465 5.0334,0.0832 6.5546,0.0465 5.7448,-0.59835 14.156,-0.9246 19.007,-3.9546 1.3926,-2.8704 0.89891,-6.9019 1.2015,-10.243 0.10293,-13.053 -2.5301,-26.721 -10.151,-37.233 -3.5546,-4.9362 -8.9548,-8.9077 -14.892,-9.3996 l 0,-0.0295 c -0.0778,0 -0.15696,-0.009 -0.23467,-0.009 z"
         inkscape:connector-curvature="0"
         style="fill:#db2944;fill-rule:evenodd;stroke:#000000;stroke-width:1.71730006;stroke-linecap:round;stroke-linejoin:round" />
      <path
         id="path4010-7-3-7-4-8-5-4-5-9-1"
         d="m 178.0617,422.75 c 0,0 -1.3827,-6.5414 -9.9894,-5.774 -11.578,1.0323 -11.909,7.6247 -11.909,7.6247 -0.67865,2.0422 22.476,0.82256 21.898,-1.8507 z"
         inkscape:connector-curvature="0"
         style="fill:#3f432a;stroke:#000000;stroke-width:1.79009998" />
      <path
         id="path3954-8-5-7-3-4-8-9-1-8"
         d="m 115.2154,403.69804 c 1.74058,2.46701 5.33459,3.509 8.02747,2.32735 2.69288,-1.18165 3.46485,-4.13945 1.72427,-6.60646 -1.74058,-2.467 -5.33459,-3.50899 -8.02747,-2.32735 -2.69288,1.18165 -3.46485,4.13945 -1.72427,6.60646 z"
         inkscape:connector-curvature="0"
         style="fill:#ab926c;fill-rule:evenodd;stroke:#000000;stroke-width:1.7901212;stroke-linecap:round;stroke-linejoin:round" />
      <path
         id="path4553-7-9-8-3-7-1-79"
         d="m 127.8417,399.91 c -0.71096,2.4918 -19.905,-1.8053 -19.274,-4.6493 4.9625,-35.944 13.826,-33.793 17.161,-33.466 5.3904,1.1667 5.1215,15.213 2.1125,38.116 z"
         inkscape:connector-curvature="0"
         style="fill:#db2944;stroke:#000000;stroke-width:1.5618" />
      <rect
         id="rect4240-8-4-1-9-4"
         rx="29.983999"
         ry="25.957001"
         height="53.703999"
         width="62.653999"
         y="313.00998"
         x="110.1717"
         style="fill:#ab926c;fill-rule:evenodd;stroke:#000000;stroke-width:1.79009998;stroke-linecap:round;stroke-linejoin:bevel" />
      <path
         id="path4010-1-9-2-6-6-6-8-1-7-3-2"
         d="m 122.5917,424.9 c 0,0 0.97136,-8.2011 13.324,-7.6465 16.617,0.74594 18.09,8.9309 18.09,8.9309 1.2752,2.5087 -31.829,2.0677 -31.414,-1.2844 z"
         inkscape:connector-curvature="0"
         style="fill:#3f432a;stroke:#000000;stroke-width:1.79009998" />
      <path
         id="path3920-8-1-6-7-4-1-7-9"
         d="m 148.57237,321.07935 c -2.1613,1.28839 -2.72444,4.18722 -1.45738,6.29993 1.48518,2.47634 4.81285,3.11925 7.2352,1.65809 2.82607,-1.7048 3.55753,-5.50948 1.87973,-8.27589 -1.94898,-3.21361 -6.28278,-4.04265 -9.43052,-2.12391 -3.64149,2.21974 -4.57811,7.13868 -2.39211,10.70755 2.51913,4.11271 8.08341,5.16758 12.11634,2.68597 4.63049,-2.84929 5.81494,-9.12343 3.00736,-13.66672 -0.53817,-0.87084 -1.20417,-1.66147 -1.96868,-2.34218"
         inkscape:connector-curvature="0"
         style="fill:#a79151;stroke:#000000;stroke-width:1.21482003;stroke-linecap:round;stroke-linejoin:round" />
      <path
         id="path3920-6-93-3-4-1-7-2-9-2"
         d="m 123.83263,318.09689 c -1.44308,-0.86594 -1.81908,-2.81426 -0.97308,-4.23422 0.99165,-1.66437 3.2135,-2.09648 4.83088,-1.11442 1.88695,1.1458 2.37534,3.70296 1.25508,5.56228 -1.30131,2.15989 -4.19496,2.7171 -6.29667,1.4275 -2.43139,-1.49191 -3.05677,-4.79796 -1.5972,-7.19663 1.68201,-2.76417 5.39723,-3.47316 8.08998,-1.80525 3.09174,1.91503 3.88259,6.13192 2.00799,9.1855 -0.35933,0.58529 -0.80402,1.11668 -1.31447,1.57419"
         inkscape:connector-curvature="0"
         style="fill:#a79151;stroke:#000000;stroke-width:1.21482646;stroke-linecap:round;stroke-linejoin:round" />
      <path
         id="path3920-7-7-5-27-8-9-3-5-7-9-7"
         d="m 159.16263,319.40689 c -1.44308,-0.86594 -1.81908,-2.81426 -0.97308,-4.23422 0.99165,-1.66437 3.2135,-2.09648 4.83088,-1.11442 1.88695,1.1458 2.37534,3.70296 1.25508,5.56228 -1.30131,2.15989 -4.19496,2.7171 -6.29667,1.4275 -2.43139,-1.49191 -3.05677,-4.79796 -1.5972,-7.19663 1.68201,-2.76417 5.39723,-3.47316 8.08998,-1.80525 3.09174,1.91503 3.88259,6.13192 2.00799,9.1855 -0.35933,0.58529 -0.80402,1.11668 -1.31447,1.57419"
         inkscape:connector-curvature="0"
         style="fill:#a79151;stroke:#000000;stroke-width:1.21482646;stroke-linecap:round;stroke-linejoin:round" />
      <path
         id="path3920-7-7-473-9-4-9-2-5-4-2"
         d="m 153.64524,316.2526 c 1.64379,-0.98638 2.07209,-3.20571 1.10842,-4.82319 -1.12957,-1.89587 -3.66045,-2.38808 -5.50278,-1.26942 -2.1494,1.30518 -2.70571,4.21802 -1.42965,6.33598 1.48231,2.46032 4.77842,3.09503 7.17245,1.62605 2.76956,-1.69942 3.48192,-5.46534 1.81934,-8.19765 -1.91595,-3.14867 -6.1479,-3.95627 -9.21518,-2.05636 -3.52175,2.1814 -4.42259,6.98485 -2.28726,10.46317 0.40931,0.66671 0.91584,1.27201 1.4973,1.79316"
         inkscape:connector-curvature="0"
         style="fill:#a79151;stroke:#000000;stroke-width:1.38379753;stroke-linecap:round;stroke-linejoin:round" />
      <path
         id="path3920-7-6-47-3-3-9-9-4-5-3-3"
         d="m 114.9252,322.2499 c -1.21325,-0.63036 -1.52936,-2.04865 -0.8181,-3.08233 0.83371,-1.21159 2.70169,-1.52614 4.06148,-0.81125 1.58641,0.8341 1.99702,2.6956 1.05518,4.04911 -1.09405,1.5723 -3.52683,1.97793 -5.29381,1.03916 -2.04415,-1.08605 -2.56993,-3.49272 -1.34282,-5.23884 1.41412,-2.0122 4.53763,-2.52831 6.80151,-1.31415 2.59933,1.39406 3.26422,4.46378 1.68818,6.68665 -0.3021,0.42607 -0.67596,0.8129 -1.10512,1.14595"
         inkscape:connector-curvature="0"
         style="fill:#a79151;stroke:#000000;stroke-width:1.21486998;stroke-linecap:round;stroke-linejoin:round" />
      <path
         id="path3920-7-7-50-9-4-5-7-3-1-5-7"
         d="m 135.58249,316.05797 c -1.60745,-0.96452 -2.02627,-3.13467 -1.08391,-4.71631 1.10459,-1.85386 3.5795,-2.33516 5.3811,-1.24129 2.10187,1.27626 2.64588,4.12455 1.39803,6.19557 -1.44953,2.4058 -4.67275,3.02645 -7.01384,1.59002 -2.70832,-1.66176 -3.40493,-5.34423 -1.77911,-8.01599 1.87357,-3.07889 6.01195,-3.8686 9.0114,-2.01079 3.44388,2.13306 4.3248,6.83007 2.23669,10.23131 -0.40025,0.65193 -0.89559,1.24382 -1.46419,1.75342"
         inkscape:connector-curvature="0"
         style="fill:#a79151;stroke:#000000;stroke-width:1.35316598;stroke-linecap:round;stroke-linejoin:round" />
      <g
         id="g5029-0-4-9"
         transform="matrix(0.13498,0,0,0.13498,195.4317,236.71)">
        <path
           id="path3781-5-5-2-9-8-5-1-1-7"
           transform="matrix(1.3779,0,0,1.6723,107.4,313.76)"
           d="m -232.94,259.59 c 0,5.5748 -4.6931,10.094 -10.482,10.094 -5.7892,0 -10.482,-4.5192 -10.482,-10.094 0,-5.5748 4.6931,-10.094 10.482,-10.094 5.7892,0 10.482,4.5192 10.482,10.094 z"
           inkscape:connector-curvature="0"
           style="fill-rule:evenodd" />
        <path
           id="path3781-5-5-9-9-0-9-4-1-2-2"
           transform="matrix(1.3779,0,0,1.6723,-36.599,318.26)"
           d="m -232.94,259.59 c 0,5.5748 -4.6931,10.094 -10.482,10.094 -5.7892,0 -10.482,-4.5192 -10.482,-10.094 0,-5.5748 4.6931,-10.094 10.482,-10.094 5.7892,0 10.482,4.5192 10.482,10.094 z"
           inkscape:connector-curvature="0"
           style="fill-rule:evenodd" />
        <path
           id="path4438-6-3-3-0-4-0"
           d="m -423.59,741.68 71.43,-0.6404"
           inkscape:connector-curvature="0"
           style="fill:none;stroke:#000000;stroke-width:12.64900017;stroke-linecap:round;stroke-linejoin:round" />
        <path
           id="path4438-6-6-0-4-6-2-7"
           d="m -280.72,737.68 71.43,-0.6404"
           inkscape:connector-curvature="0"
           style="fill:none;stroke:#000000;stroke-width:12.64900017;stroke-linecap:round;stroke-linejoin:round" />
        <path
           id="path4909-9-2-5-6"
           d="m -377,833.36 42,6"
           inkscape:connector-curvature="0"
           style="fill:none;stroke:#000000;stroke-width:11;stroke-linecap:round;stroke-linejoin:round" />
      </g>
      <path
         id="path4494-6-5"
         d="m 117.85223,345.54144 c -0.81665,0.73913 -2.26091,0.4212 -3.14295,-0.47969 -1.21518,-1.24113 -1.11579,-3.03719 -0.07,-3.96105 0.60943,-0.53835 1.48036,-0.77162 2.38427,-0.68299"
         inkscape:connector-curvature="0"
         style="fill:none;stroke:#000000;stroke-width:1.31816137;stroke-linecap:round;stroke-linejoin:round" />
      <path
         id="path3920-7-6-47-3-3-9-9-4-5-3-3-0"
         d="m 112.0796,327.83643 c -0.92248,-0.47929 -1.16284,-1.55768 -0.62203,-2.34363 0.6339,-0.92123 2.05421,-1.1604 3.08812,-0.61683 1.20622,0.6342 1.51842,2.04958 0.8023,3.07872 -0.83186,1.19549 -2.68161,1.50391 -4.02512,0.79012 -1.55426,-0.82577 -1.95403,-2.65567 -1.021,-3.98333 1.07521,-1.52997 3.45015,-1.92239 5.17148,-0.99921 1.97638,1.05997 2.48193,3.39402 1.2836,5.08417 -0.2297,0.32396 -0.51396,0.61808 -0.84027,0.87131"
         inkscape:connector-curvature="0"
         style="fill:#a79151;stroke:#000000;stroke-width:0.92372;stroke-linecap:round;stroke-linejoin:round" />
    </g>
  </g>
</svg>
