<?xml version="1.0"?>
<svg xmlns:rdf="http://www.w3.org/1999/02/22-rdf-syntax-ns#" xmlns="http://www.w3.org/2000/svg" xmlns:cc="http://creativecommons.org/ns#" xmlns:dc="http://purl.org/dc/elements/1.1/" xmlns:svg="http://www.w3.org/2000/svg" id="svg14755" viewBox="0 0 228.65 241.14" version="1.1">
  <defs id="defs14757">
    <clipPath id="clipPath8531" clipPathUnits="userSpaceOnUse">
      <path id="path8533" d="m712.07 274.92h10.911v-40.443h-10.911v40.443z"/>
    </clipPath>
    <clipPath id="clipPath8491" clipPathUnits="userSpaceOnUse">
      <path id="path8493" d="m753.27 357.94h29.032v-4.868h-29.032v4.868z"/>
    </clipPath>
    <clipPath id="clipPath8475" clipPathUnits="userSpaceOnUse">
      <path id="path8477" d="m696.59 357.94h29.033v-4.868h-29.033v4.868z"/>
    </clipPath>
    <clipPath id="clipPath8427" clipPathUnits="userSpaceOnUse">
      <path id="path8429" d="m757.84 361.51h9.131v-4.524h-9.131v4.524z"/>
    </clipPath>
    <clipPath id="clipPath8411" clipPathUnits="userSpaceOnUse">
      <path id="path8413" d="m700.87 363.23h9.131v-4.523h-9.131v4.523z"/>
    </clipPath>
    <clipPath id="clipPath8387" clipPathUnits="userSpaceOnUse">
      <path id="path8389" d="m706.62 343.74h8.683v-8.43h-8.683v8.43z"/>
    </clipPath>
    <clipPath id="clipPath8363" clipPathUnits="userSpaceOnUse">
      <path id="path8365" d="m756.49 343.74h8.686v-8.43h-8.686v8.43z"/>
    </clipPath>
  </defs>
  <g id="layer1" transform="translate(-650.45 -609.33)">
    <g id="g8329" transform="matrix(1.25 0 0 -1.25 731.01 783.07)">
      <path id="path8331" d="m0 0 15.485-12.215 18.279 1.143 9.9 7.615-0.537 1.727" fill="#f9dec5"/>
    </g>
    <g id="g8333" transform="matrix(1.25 0 0 -1.25 739.53 776.31)">
      <path id="path8335" d="m0 0s3.453-0.604 5.285 1.229h23.52s1.691-1.717 4.969-0.858l2.751-8.146-42.771 2.363 6.246 5.412z" fill="#f9dec5"/>
    </g>
    <path id="path8337" d="m775.53 774.77h-29.4v-26.134h29.4v26.134z" fill="#f9dec5"/>
    <g id="g8339" transform="matrix(1.25 0 0 -1.25 844.55 721.34)">
      <path id="path8341" d="m0 0c0-15.912-12.704-28.813-28.375-28.813-15.674 0-28.378 12.901-28.378 28.813 0 15.91 12.704 28.811 28.378 28.811 15.671 0 28.375-12.901 28.375-28.811" fill="#f9dec5"/>
    </g>
    <g id="g8343" transform="matrix(1.25 0 0 -1.25 752.71 721.34)">
      <path id="path8345" d="m0 0c0-15.912-12.703-28.813-28.376-28.813s-28.376 12.901-28.376 28.813c0 15.91 12.703 28.811 28.376 28.811s28.376-12.901 28.376-28.811" fill="#f9dec5"/>
    </g>
    <g id="g8347" transform="matrix(1.25 0 0 -1.25 841.93 692.44)">
      <path id="path8349" d="m0 0c0-35.176-28.514-63.69-63.69-63.69-35.175 0-63.691 28.514-63.691 63.69 0 35.175 28.516 63.69 63.691 63.69s63.689-28.515 63.689-63.69" fill="#f9dec5"/>
    </g>
    <g id="g8351" transform="matrix(1.25 0 0 -1.25 802.58 708.56)">
      <path id="path8353" d="m0 0c0-4.491-3.644-8.135-8.134-8.135-4.492 0-8.133 3.644-8.133 8.135 0 4.492 3.641 8.133 8.133 8.133 4.49 0 8.134-3.641 8.134-8.133"/>
    </g>
    <g id="g8355" transform="matrix(1.25 0 0 -1.25 793.41 705.47)">
      <path id="path8357" d="m0 0c0-1.809-1.467-3.277-3.275-3.277-1.813 0-3.281 1.468-3.281 3.277 0 1.813 1.468 3.279 3.281 3.279 1.808 0 3.275-1.466 3.275-3.279" fill="#fff"/>
    </g>
    <g id="g8359" transform="matrix(1.25 0 0 -1.25 -161.79 1134.1)">
      <g id="g8367">
        <g id="g8369" opacity=".2" clip-path="url(#clipPath8363)">
          <g id="g8371" transform="translate(765.18 339.52)">
            <path id="path8373" d="m0 0c0-2.327-1.943-4.215-4.342-4.215-2.4 0-4.344 1.888-4.344 4.215 0 2.328 1.944 4.215 4.344 4.215 2.399 0 4.342-1.887 4.342-4.215" fill="#fff"/>
          </g>
        </g>
      </g>
    </g>
    <g id="g8375" transform="matrix(1.25 0 0 -1.25 737.62 708.56)">
      <path id="path8377" d="m0 0c0-4.491-3.641-8.135-8.135-8.135-4.49 0-8.135 3.644-8.135 8.135 0 4.492 3.645 8.133 8.135 8.133 4.494 0 8.135-3.641 8.135-8.133"/>
    </g>
    <g id="g8379" transform="matrix(1.25 0 0 -1.25 731.08 705.47)">
      <path id="path8381" d="m0 0c0-1.809-1.468-3.277-3.28-3.277-1.813 0-3.28 1.468-3.28 3.277 0 1.813 1.467 3.279 3.28 3.279 1.812 0 3.28-1.466 3.28-3.279" fill="#fff"/>
    </g>
    <g id="g8383" transform="matrix(1.25 0 0 -1.25 -161.79 1134.1)">
      <g id="g8391">
        <g id="g8393" opacity=".2" clip-path="url(#clipPath8387)">
          <g id="g8395" transform="translate(715.31 339.52)">
            <path id="path8397" d="m0 0c0-2.327-1.943-4.215-4.341-4.215-2.397 0-4.342 1.888-4.342 4.215 0 2.328 1.945 4.215 4.342 4.215 2.398 0 4.341-1.887 4.341-4.215" fill="#fff"/>
          </g>
        </g>
      </g>
    </g>
    <g id="g8399" transform="matrix(1.25 0 0 -1.25 745.24 692.71)">
      <path id="path8401" d="m0 0s-14.363 9.471-29.033 4.277 11.919 17.114 29.033-4.277"/>
    </g>
    <g id="g8403" transform="matrix(1.25 0 0 -1.25 779.79 692.71)">
      <path id="path8405" d="m0 0s14.362 9.471 29.032 4.277-11.918 17.114-29.032-4.277"/>
    </g>
    <g id="g8407" transform="matrix(1.25 0 0 -1.25 -161.79 1134.1)">
      <g id="g8415">
        <g id="g8417" opacity=".2" clip-path="url(#clipPath8411)">
          <g id="g8419" transform="translate(700.87 358.71)">
            <path id="path8421" d="m0 0s3.73 4.758 9.129 4.516-4.027-1.131-6.982-4.084-1.773-0.054-2.147-0.432" fill="#fff"/>
          </g>
        </g>
      </g>
    </g>
    <g id="g8423" transform="matrix(1.25 0 0 -1.25 -161.79 1134.1)">
      <g id="g8431">
        <g id="g8433" opacity=".2" clip-path="url(#clipPath8427)">
          <g id="g8435" transform="translate(757.84 356.99)">
            <path id="path8437" d="m0 0s3.732 4.756 9.131 4.514-4.027-1.129-6.983-4.084-1.772-0.053-2.148-0.43" fill="#fff"/>
          </g>
        </g>
      </g>
    </g>
    <g id="g8439" transform="matrix(1.25 0 0 -1.25 850.45 691.48)">
      <path id="path8441" d="m0 0c0-7.234-4.16-13.1-9.291-13.1-5.133 0-9.293 5.866-9.293 13.1s4.16 13.1 9.293 13.1c5.131 0 9.291-5.866 9.291-13.1" fill="#f9dec5"/>
    </g>
    <g id="g8443" transform="matrix(1.25 0 0 -1.25 696.28 690.83)">
      <path id="path8445" d="m0 0c0-7.235-4.162-13.101-9.293-13.101s-9.293 5.866-9.293 13.101c0 7.234 4.162 13.1 9.293 13.1s9.293-5.866 9.293-13.1" fill="#f9dec5"/>
    </g>
    <g id="g8447" transform="matrix(1.25 0 0 -1.25 722.73 729.23)">
      <path id="path8449" d="m0 0c0-4.166-4.317-7.543-9.642-7.543s-9.643 3.377-9.643 7.543c0 4.165 4.318 7.541 9.643 7.541s9.642-3.376 9.642-7.541" fill="#f5c384"/>
    </g>
    <g id="g8451" transform="matrix(1.25 0 0 -1.25 825.07 729.23)">
      <path id="path8453" d="m0 0c0-4.166-4.316-7.543-9.641-7.543-5.326 0-9.643 3.377-9.643 7.543 0 4.165 4.317 7.541 9.643 7.541 5.325 0 9.641-3.376 9.641-7.541" fill="#f5c384"/>
    </g>
    <g id="g8455" transform="matrix(1.25 0 0 -1.25 844.42 681.52)">
      <path id="path8457" d="m0 0s-11.758 0.627-6.719-10.499" stroke="#f5c384" stroke-width=".5" fill="none"/>
    </g>
    <g id="g8459" transform="matrix(1.25 0 0 -1.25 843.63 692.44)">
      <path id="path8461" d="m0 0c0-1.978-1.599-3.576-3.573-3.576-1.975 0-3.573 1.598-3.573 3.576 0 1.971 1.598 3.57 3.573 3.57 1.974 0 3.573-1.599 3.573-3.57" fill="#f5c384"/>
    </g>
    <g id="g8463" transform="matrix(1.25 0 0 -1.25 679.64 681.52)">
      <path id="path8465" d="m0 0s11.756 0.627 6.717-10.499" stroke="#f5c384" stroke-width=".5" fill="none"/>
    </g>
    <g id="g8467" transform="matrix(1.25 0 0 -1.25 680.43 692.44)">
      <path id="path8469" d="m0 0c0-1.978 1.599-3.576 3.572-3.576 1.975 0 3.574 1.598 3.574 3.576 0 1.971-1.599 3.57-3.574 3.57-1.973 0-3.572-1.599-3.572-3.57" fill="#f5c384"/>
    </g>
    <g id="g8471" transform="matrix(1.25 0 0 -1.25 -161.79 1134.1)">
      <g id="g8479">
        <g id="g8481" opacity=".5" clip-path="url(#clipPath8475)">
          <g id="g8483" transform="translate(696.59 356.78)">
            <path id="path8485" d="m0 0s16.76 4.33 29.033-3.703-14.533 5.594-29.033 3.703" fill="#f7931e"/>
          </g>
        </g>
      </g>
    </g>
    <g id="g8487" transform="matrix(1.25 0 0 -1.25 -161.79 1134.1)">
      <g id="g8495">
        <g id="g8497" opacity=".5" clip-path="url(#clipPath8491)">
          <g id="g8499" transform="translate(782.3 356.78)">
            <path id="path8501" d="m0 0s-16.762 4.33-29.032-3.703 14.533 5.594 29.032 3.703" fill="#f7931e"/>
          </g>
        </g>
      </g>
    </g>
    <g id="g8503" transform="matrix(1.25 0 0 -1.25 792.19 750.8)">
      <path id="path8505" d="m0 0c0-10.69-11.43-19.36-25.533-19.36s-25.535 8.67-25.535 19.36c0 10.691 11.432 19.356 25.535 19.356s25.533-8.665 25.533-19.356" fill="#f15a24"/>
    </g>
    <g id="g8507" transform="matrix(1.25 0 0 -1.25 782.67 765.14)">
      <path id="path8509" d="m0 0c0-4.252-8.147-7.697-18.194-7.697s-18.194 3.445-18.194 7.697c0 4.25 8.147 7.695 18.194 7.695s18.194-3.445 18.194-7.695" fill="#c1272d"/>
    </g>
    <g id="g8511" transform="matrix(1.25 0 0 -1.25 684.67 674.46)">
      <path id="path8513" d="m0 0s7.941-3.33 8.617-8.215 15.377 16.31 36.369 16.31 16.452-6.298 16.793-16.794c0 0 7.624 21.504 32.538 14.17 24.913-7.335 10.814-10.178 12.913-12.278 0 0 10.106-2.472 16.106 6.287 0 0 2.809 15.098 9.816 15.962 0 0-9.866 6.97-16.74 3.486 0 0 8.606 13.046-8.45 30.101 0 0-2.503-7.885-8.135-8.134 0 0-20.676 16.494-33.395 8.247 0 0-13.909 10.276-34.542-7.458 0 0-4.747 2.097-4.747 9.445 0 0-24.114-9.5-19.805-33.022 0 0-10.109 1.534-10.109 6.257 0 0-5.846-16.15 2.771-24.364"/>
    </g>
    <g id="g8515" transform="matrix(1.25 0 0 -1.25 769.11 636.13)">
      <path id="path8517" d="m0 0s7.819 13.834 28.34 1.049c20.519-12.783 16.267 7.872 12.069 17.318 0 0 23.093-36.211-18.893-27.289 0 0-20.541 5.699-24.14-11.021-3.601-16.72 2.624 19.943 2.624 19.943" fill="#333"/>
    </g>
    <g id="g8519" transform="matrix(1.25 0 0 -1.25 759.88 636.13)">
      <path id="path8521" d="m0 0s-7.82 13.834-28.34 1.049c-20.519-12.783-9.934 8.926-5.736 18.372 0 0-29.426-37.265 12.558-28.343 0 0 20.543 5.699 24.142-11.021 3.601-16.72-2.624 19.943-2.624 19.943" fill="#333"/>
    </g>
    <g id="g8523" transform="matrix(1.25 0 0 -1.25 781.74 775.84)">
      <path id="path8525" d="m0 0s29.79 1.107 42.04 13.358l14-23.501s-20-12.5-34-12.5l6-31.5s-44-12.5-77.5 0l4.5 29s-27.875 4.875-37.625 14.625l12.125 23.876s29.583-16.993 36.791-13.747 17.918-26.195 33.669 0.389" fill="#fbb03b"/>
    </g>
    <g id="g8527" transform="matrix(1.25 0 0 -1.25 -161.79 1134.1)">
      <g id="g8535">
        <g id="g8537" opacity=".2" clip-path="url(#clipPath8531)">
          <g id="g8539" transform="translate(722.98 274.92)">
            <path id="path8541" d="m0 0c-0.616-0.275-1.234-0.523-1.848-0.742-11.875-16.74-8.669-39.701-8.669-39.701l9.06 7.367c-2.491 16.855-0.064 28.14 1.457 33.076" fill="#fff"/>
          </g>
        </g>
      </g>
    </g>
    <g id="g8543" transform="matrix(1.25 0 0 -1.25 837.95 765.28)">
      <path id="path8545" d="m0 0s22.593 16.887 20.278 46.054l12.037 5.555s6.57-41.042-23.458-66.476" fill="#f9dec5"/>
    </g>
    <g id="g8547" transform="matrix(1.25 0 0 -1.25 878.69 693.63)">
      <path id="path8549" d="m0 0c0-8.332-6.754-15.086-15.086-15.086-8.331 0-15.085 6.754-15.085 15.086s6.754 15.086 15.085 15.086c8.332 0 15.086-6.754 15.086-15.086" fill="#f9dec5"/>
    </g>
    <g id="g8551" transform="matrix(1.25 0 0 -1.25 691.6 765.28)">
      <path id="path8553" d="m0 0s-22.593 16.887-20.278 46.054l-12.037 5.555s-6.57-41.042 23.458-66.476" fill="#f9dec5"/>
    </g>
    <g id="g8555" transform="matrix(1.25 0 0 -1.25 650.86 693.63)">
      <path id="path8557" d="m0 0c0-8.332 6.754-15.086 15.086-15.086 8.331 0 15.085 6.754 15.085 15.086s-6.754 15.086-15.085 15.086c-8.332 0-15.086-6.754-15.086-15.086" fill="#f9dec5"/>
    </g>
  </g>
  <metadata>
    <rdf:RDF>
      <cc:Work>
        <dc:format>image/svg+xml</dc:format>
        <dc:type rdf:resource="http://purl.org/dc/dcmitype/StillImage"/>
        <cc:license rdf:resource="http://creativecommons.org/licenses/publicdomain/"/>
        <dc:publisher>
          <cc:Agent rdf:about="http://openclipart.org/">
            <dc:title>Openclipart</dc:title>
          </cc:Agent>
        </dc:publisher>
        <dc:title>Boy4</dc:title>
        <dc:date>2010-12-02T00:46:18</dc:date>
        <dc:description>Boy4</dc:description>
        <dc:source>http://openclipart.org/detail/99097/boy4-by-dcatcherex</dc:source>
        <dc:creator>
          <cc:Agent>
            <dc:title>dcatcherex</dc:title>
          </cc:Agent>
        </dc:creator>
        <dc:subject>
          <rdf:Bag>
            <rdf:li>anime</rdf:li>
            <rdf:li>boy</rdf:li>
            <rdf:li>cartoon</rdf:li>
            <rdf:li>character</rdf:li>
            <rdf:li>clip art</rdf:li>
            <rdf:li>clipart</rdf:li>
            <rdf:li>comic</rdf:li>
            <rdf:li>man</rdf:li>
            <rdf:li>people</rdf:li>
            <rdf:li>sd</rdf:li>
          </rdf:Bag>
        </dc:subject>
      </cc:Work>
      <cc:License rdf:about="http://creativecommons.org/licenses/publicdomain/">
        <cc:permits rdf:resource="http://creativecommons.org/ns#Reproduction"/>
        <cc:permits rdf:resource="http://creativecommons.org/ns#Distribution"/>
        <cc:permits rdf:resource="http://creativecommons.org/ns#DerivativeWorks"/>
      </cc:License>
    </rdf:RDF>
  </metadata>
</svg>
