<?xml version="1.0" encoding="utf-8"?>
<!-- Generator: Adobe Illustrator 22.1.0, SVG Export Plug-In . SVG Version: 6.00 Build 0)  -->
<svg version="1.1" id="Layer_1" xmlns="http://www.w3.org/2000/svg" xmlns:xlink="http://www.w3.org/1999/xlink" x="0px" y="0px"
	 viewBox="0 0 968.7 704.9" style="enable-background:new 0 0 968.7 704.9;" xml:space="preserve">
<g transform="translate(0.000000,989.000000) scale(0.100000,-0.100000)">
	<path d="M7075,9881.9c-121-37-224-141-268-272c-37-106-36-152,2-327c51-230-117-448-399-518c-38-10-72-20-75-24s-45-15-95-24
		c-300-59-617-222-846-433c-31-29-59-53-62-53c-2,0,0,21,5,48c19,96-13,248-79,373c-69,133-194,249-348,324c-102,50-166,70-189,62
		c-27-11-18-24,37-55c28-16,73-50,98-76c100-98,104-165,17-292c-81-118-108-213-88-307c15-73,58-135,135-197c74-59,122-116,135-159
		c8-27,2-40-54-123c-111-164-278-471-335-615l-13-32l-177-3c-175-3-176-3-204,22c-16,14-41,52-57,85c-42,87-180,219-280,268
		c-80,39-174,67-226,67c-28,0-50,17-148,110c-189,179-346,255-526,255c-84,0-102-3-153-28c-43-21-63-39-82-71c-38-66-32-151,16-202
		l20-21l-52-7c-102-14-149-61-149-150c0-43,4-53,38-86c28-28,51-41,95-50l57-13l-28-17c-46-28-82-78-82-114c0-65,75-140,152-152
		c21-4,38-9,38-13c-1-3-24-21-53-39c-72-45-101-90-94-143c10-73,77-121,191-137l49-7l-51-32c-29-18-61-47-72-65
		c-41-67-13-188,52-228c24-14,50-20,96-20c63,0,74-7,46-31c-54-45-58-150-8-221c42-59,93-83,177-82c37,0,67-1,67-2s-9-21-20-45
		c-45-100-16-208,70-261c171-105,421-7,533,211c49,94,73,175,102,346c14,83,28,163,31,178c4,21,17,33,52,49c26,12,79,54,118,92
		c83,83,113,148,121,266c3,41,12,90,20,109c9,20,13,49,10,72l-5,37l104,7c102,7,174,1,174-14c0-4-11-34-24-67
		c-41-103-113-312-182-533c-108-347-236-683-363-955c-58-123-187-363-200-371c-5-2-12,12-16,33c-13,73-74,181-138,246
		c-117,115-268,173-482,182c-168,7-196-17-65-56c149-44,183-116,144-300c-51-240,41-379,278-423l66-12l-59-75
		c-414-521-918-789-1480-790c-223,0-462,41-707,122l-157,52l44,8c24,4,74,3,110-2c125-18,245,35,372,162c68,68,108,133,153,248
		c84,215,205,386,307,432c50,24,62,43,32,52c-109,31-241,50-353,51c-249,0-318-41-579-350c-223-263-345-351-498-357c-29-1-53-5-53-8
		s54-33,121-65c66-33,123-64,126-68c8-14-230,109-350,180c-141,83-369,236-510,343c-116,86-152,98-152,50c0-20,21-41,110-108
		c61-45,175-126,254-180c344-232,460-408,545-832c31-152,83-313,128-389c18-31,78-101,133-156c86-87,114-108,200-152
		c103-52,186-83,337-128c48-14,90-30,93-36c9-13,45-11,45,4c0,6-27,48-60,92c-119,158-191,339-205,516c-9,115-29,189-72,271
		c-48,91-126,171-249,251c-56,37-112,83-127,104c-15,20-25,38-23,40s52-23,111-56c498-277,1078-421,1694-421c300,0,554,26,822,84
		c216,46,392,43,577-10c100-29,160-59,263-129c178-122,372-146,552-69c155,66,229,87,332,91l100,5l35-53c75-114,180-207,297-261
		c131-62,284-46,333,34c24,39,26,101,5,142c-20,38-20,37,23,31c79-10,152,48,152,121c0,41-47,98-96,116c-40,14-43,24-11,32
		c13,3,36,18,51,33c24,24,27,34,23,69c-6,56-31,89-86,116l-47,23l61,30c45,23,64,39,78,67c16,33,16,40,4,70c-18,43-67,84-117,99
		c-46,14-51,24-15,33c13,3,40,20,60,37c87,77,40,227-76,244l-46,7l28,27c54,54,54,157,0,215l-20,21h102c132,0,173,19,277,127
		c93,98,163,136,268,145c44,4,71,10,69,17c-2,5-43,33-91,61c-48,27-126,85-173,129c-96,87-155,119-265,142c-128,27-251-7-402-110
		c-61-43-68-45-62-24c43,152,49,197,50,358s-7,237-41,375c-28,113-75,250-118,340c-56,119-68,158-60,198c10,42,41,103,76,148
		c55,70,79,131,79,203c0,84-17,128-99,249c-92,136-141,219-135,229c3,4,14,8,25,8c30,0,136,38,212,76c98,49,179,106,265,188
		c142,135,180,218,59,132c-26-19-77-42-113-52c-57-15-74-16-132-5c-81,15-189,65-270,126c-68,52-128,80-189,90
		c-85,14-226-43-340-137c-29-24-72-59-95-78l-42-35l31,45c173,252,422,490,660,631c220,130,485,210,727,221l59,3l31-43
		c30-43,31-46,30-155c0-89-6-137-29-232c-24-95-30-143-30-231c0-106,1-113,33-175c108-206,274-328,567-414c44-13,84-20,88-16
		c5,5-7,27-27,48c-52,58-104,149-126,222c-28,89-26,208,6,378c33,175,29,236-17,323c-40,76-129,168-230,240l-74,52l60-7
		c202-22,485-103,673-191c143-66,143-66,129-109c-20-65,29-152,120-215l48-33l-3-129c-6-201,37-350,140-479l43-54l6-185
		c8-217,25-294,96-439c115-233,327-338,453-225c43,39,75,110,68,148l-5,26l34-30c93-82,183-87,253-15c32,34,35,41,35,99
		c0,53-5,71-31,113l-31,50l72-5c88-5,110,5,137,66c27,60,19,129-22,195c-16,26-30,50-30,51c0,2,17-2,38-10c20-7,69-13,109-14
		c62,0,75,3,102,25c67,57,62,148-14,261c-24,35-42,64-42,64c1,0,20-7,42-15c131-47,252,26,263,161c6,68-9,103-63,153l-43,40l46,7
		c77,11,122,43,154,109c50,100,20,206-79,281l-43,33l49,16c176,58,226,230,112,381c-81,108-195,159-356,159c-176,0-275-42-543-227
		l-172-120l-48,17c-65,23-206,31-273,15c-107-25-212-97-295-202l-29-38l-55,28c-41,20-71,27-116,28c-52,1-76,9-175,56
		c-141,69-212,97-361,142c-141,43-287,73-388,82c-41,3-82,8-90,11c-8,2,48,27,125,54c203,70,297,120,376,199c92,91,103,127,94,308
		c-5,96-4,156,5,197c26,127,99,218,185,231l46,6l-26,28c-36,38-128,86-200,105C7269,9891.9,7119,9894.9,7075,9881.9z M9400,8924.9
		c106-27,195-96,240-184c63-125,27-232-97-294c-66-33-98-34-98-3c0,61-83,132-198,167c-150,47-312,36-517-35c-13-4-12-1,5,9
		c16,10,20,16,10,16c-24,1,27,25,118,55c46,15,81,30,78,32c-3,3-42-7-88-22c-88-29-264-113-255-121c3-3,15-1,26,6c40,21,21,3-31-29
		c-28-18-46-25-39-17c11,13,11,16,0,16c-23,1,65,74,128,107c32,17,83,38,113,46c129,37,130,37,70,31c-62-6-167-47-231-91
		c-61-40-79-49-49-23c14,13,49,36,79,53s49,33,43,35c-18,6,172,138,264,183C9121,8936.9,9271,8958.9,9400,8924.9z M8320,8613.9
		c24-4,27-2,15,7c-22,17,102,5,163-16c59-20,59-31,7-122c-63-109-63-109-153-63c-42,22-94,45-116,52c-23,7-43,20-46,30
		c-6,19-81,36-110,25c-8-3-15-1-15,4c0,16,43,22,88,12c27-6,42-6,42,0c0,5,10,6,21,3c14-5,19-3,15,4c-4,6-25,15-47,21
		c-23,6-38,14-35,17s26,0,52-6c25-7,49-9,52-7c3,3-9,9-27,12c-56,12-49,27,10,21c30-3,46-3,37,0c-10,2-18,9-18,15s8,7,18,3
		C8282,8622.9,8304,8616.9,8320,8613.9z M9196,8606.9c139-30,229-100,229-180c0-79-57-121-152-114c-29,3-111,17-183,33
		c-118,26-148,29-327,30c-120,0-188,3-175,9c12,4,72,9,134,9c61,1,106,5,100,9c-32,21-264-4-319-33c-10-5-18-7-18-4
		c0,21,133,55,255,65l90,8l-105-2c-74-2-123-9-165-24c-74-25-85-20-19,10c33,15,75,24,126,26c48,3,76,8,72,14c-8,13-123,1-176-18
		c-21-7-36-9-33-4c10,16,109,44,180,50l70,7l-60,2c-33,0-75-3-93-8c-49-15-39-5,36,32C8836,8610.9,9032,8640.9,9196,8606.9z
		 M8704,8586.9c-2-2-15-9-29-15c-24-11-24-11-6,3C8685,8587.9,8718,8598.9,8704,8586.9z M8170,8560.9c25-11-1-11-35,0
		c-20,6-21,8-5,8C8141,8568.9,8159,8565.9,8170,8560.9z M8062,8504.9c-3-3-12-4-19-1c-8,3-5,6,6,6
		C8060,8510.9,8066,8507.9,8062,8504.9z M8215,8458.9c49-15,164-74,184-93c25-26,20-53-32-155c-91-180-105-191-166-132
		c-22,22-79,68-126,102c-49,36-74,60-60,57c14-4,36-10,49-13c16-5,22-4,18,4c-4,5-24,13-45,17c-58,9-76,26-22,20l45-5l-50,15
		c-37,10-42,13-17,11c17-1,32,1,32,6s10,7,23,3c49-14-13,22-70,40c-32,10-52,20-45,23c15,5,108-16,135-30c10-5,21-7,24-4
		c9,9-56,33-109,41c-27,4-48,11-48,17c0,10,50,3,118-17c23-7,42-9,42-4s-3,9-7,10c-5,0-39,8-78,18c-54,14-66,20-51,27
		c12,4,42,1,75-8c97-28,107-29,63-7c-24,11-62,24-85,29l-42,8l36,1c20,1,56-6,79-14c24-8,45-13,48-11c7,8-68,36-97,36
		c-23,1-24,2-8,11s64,0,137-28c11-4,12-2,5,5c-6,7-28,18-50,27l-40,15l50-5C8158,8471.9,8196,8464.9,8215,8458.9z M8463,8358.9
		c-17-53-33-63-34-23c0,30,10,43,43,54C8473,8390.9,8469,8375.9,8463,8358.9z M9523,8333.9c6-3,12-9,12-14c0-4-22,1-50,13
		c-27,11-50,25-50,29c0,5,17,2,38-7C9493,8345.9,9516,8336.9,9523,8333.9z M8886,8350.9c261-27,369-60,414-128c34-52,40-100,21-164
		c-24-84-81-125-191-135c-61-6-66-4-127,34c-156,97-310,169-438,204c-36,9-56,18-45,18c11,1,54-8,94-19c82-23,111-20,35,4
		c-64,19-25,20,46,1c61-16,82-19,60-6c-27,15-120,33-243,47l-122,13l110-4c94-4,178-17,260-41c15-5,17-3,9,5c-16,17-205,51-284,51
		c-45,0-70,4-70,11c0,14,197,4,310-16c69-11,90-12,79-1c-9,9-234,36-307,37c-52,0-71,3-57,9c41,18,291,0,380-26c14-5,17-3,10,5
		c-14,14-190,41-285,42l-75,1l60,10c33,5,116,7,185,5c93-3,115-2,85,5c-22,5-107,8-188,5c-105-3-146-2-138,6
		C8507,8356.9,8701,8368.9,8886,8350.9z M7980,8320.9c29-11,41-19,29-19c-24-1-84,18-98,30C7895,8345.9,7925,8340.9,7980,8320.9z
		 M9497,8313.9c66-25,96-51,41-33c-16,5-52,16-81,25c-28,9-50,21-46,26C9418,8344.9,9422,8343.9,9497,8313.9z M7935,8305.9
		c14-8,21-14,15-14c-5,0-21,6-35,14s-20,14-15,14C7906,8319.9,7921,8313.9,7935,8305.9z M9492,8279.9c51-17,93-35,93-40s-4-9-9-9
		c-12,0-182,60-201,71C9341,8320.9,9403,8309.9,9492,8279.9z M9595,8199.9c0-4-63,14-140,39c-76,25-135,49-129,52
		C9337,8298.9,9595,8210.9,9595,8199.9z M9595,8169.9c0-15-20-11-161,36c-75,25-145,55-154,65c-14,15,19,7,149-36
		C9520,8203.9,9595,8174.9,9595,8169.9z M7905,8270.9c8-5,11-10,5-10c-5,0-17,5-25,10s-10,10-5,10
		C7886,8280.9,7897,8275.9,7905,8270.9z M7942,8214.9c26-15,51-23,62-19c14,4,41-16,107-77c120-115,139-167,88-254
		c-50-85-106-104-189-64c-45,22-125,97-90,84c11-4,3,8-20,28c-40,36-98,118-62,89c20-16,23-2,5,19c-7,8,4,0,25-18c56-47,68-39,13,9
		c-26,23-54,55-63,73c-15,29-13,28,26-11c22-24,47-43,53-43c7,0,1,9-13,20c-15,11-35,32-44,47c-18,26-17,26,21-5c37-31,61-42,50-23
		c-4,5-1,11,5,13s-9,19-34,38c-26,19-47,38-47,43c0,11,52-18,88-48c16-14,34-25,38-25c5,1-7,14-26,30c-19,17-30,30-24,30
		c12,0,52-26,86-58c15-14,30-23,34-20c8,8-81,77-139,108c-26,14-47,28-47,33c0,10,67-18,115-50l40-26l-23,26c-13,14-46,35-73,46
		c-27,12-49,24-49,26C7855,8249.9,7903,8237.9,7942,8214.9z M9579,8139.9c5-5,7-11,3-15c-7-7-257,87-257,97
		C9325,8230.9,9565,8152.9,9579,8139.9z M7876,8174.9c17-8,29-18,26-20c-3-3-20,4-38,15C7824,8194.9,7833,8197.9,7876,8174.9z
		 M9462,8148.9c119-45,119-45,110-54c-10-10-226,68-231,83C9333,8196.9,9343,8194.9,9462,8148.9z M8496,8136.9c52-13,121-36,154-50
		c37-17,54-21,45-12s-51,29-95,46s-66,28-50,25c100-21,491-230,539-289c41-50,47-118,14-165c-44-65-69-76-172-76c-87,0-96,2-162,37
		c-142,74-248,138-220,132c21-5,27-4,22,5c-4,6-14,11-22,11c-23,0-161,66-226,108c-86,55-72,69,21,22c104-52,250-112,263-108
		c5,2-28,19-74,37c-104,42-262,121-255,127c2,3,40-12,83-32c87-40,218-84,249-83c11,0-5,8-37,18c-31,10-100,42-153,70
		c-54,29-99,50-102,47c-3-2,8-11,24-20c38-21,22-20-22,1c-35,17-50,38-17,26c15-6,16-5,2,12c-18,22-13,20,70-27
		c74-42,216-101,232-96c5,2-28,18-74,36c-96,38-238,114-222,119c6,2,38-12,70-31c64-38,190-89,207-83c6,2-24,15-65,31
		c-80,29-198,94-198,109c0,4,33-10,73-31c84-47,244-115,259-110c5,2-28,19-74,37c-80,32-248,118-248,126c0,2,51-20,113-50
		c103-51,207-83,207-65c0,4-17,10-38,14c-74,11-292,114-264,124c7,2,10,8,6,13c-6,10,213-64,259-88c15-7,27-9,27-4c0,9-99,50-207,85
		c-49,16-66,26-44,26C8399,8160.9,8445,8149.9,8496,8136.9z M8508,8153.9c-7-2-19-2-25,0c-7,3-2,5,12,5S8514,8156.9,8508,8153.9z
		 M7900,8082.9c-3-3-20,9-38,27l-32,34l38-28C7889,8100.9,7903,8085.9,7900,8082.9z M9465,8109.9c50-17,90-34,90-38c0-3-4-12-9-19
		c-6-10-30-3-104,32C9301,8149.9,9314,8162.9,9465,8109.9z M9443,8070.9c39-18,72-37,72-41c0-5-2-9-5-9c-11,0-165,80-165,86
		C9345,8113.9,9349,8112.9,9443,8070.9z M9418,8049.9c71-36,72-37,64-45c-6-6-137,62-137,71S9355,8080.9,9418,8049.9z M9404,8023.9
		c25-14,40-28,33-31c-11-3-102,44-102,53C9335,8057.9,9362,8048.9,9404,8023.9z M8263,8003.9c-17-40-28-50-28-26c0,12-3,28-6,37
		c-5,12,0,16,20,16C8273,8030.9,8274,8028.9,8263,8003.9z M9371,8005.9c20-15,13-18-23-9c-13,4-23,10-23,15
		C9325,8025.9,9349,8022.9,9371,8005.9z M9355,7965.9c14-8,21-14,15-14c-5,0-21,6-35,14s-20,14-15,14
		C9326,7979.9,9341,7973.9,9355,7965.9z M3214,7937.9c125-44,335-187,317-215c-3-5,15-27,41-48c84-70,81-66,56-54c-12,5-25,15-28,20
		c-9,15-27,12-19-2c4-8,3-10-2-5s-7,10-4,11c8,4-21,36-32,36c-6,0-4-7,3-16s-18,4-56,28c-82,53-149,88-167,88c-7,0,21-19,63-43
		c43-23,88-50,100-60c24-17,24-17-6-3c-61,28-175,65-175,57c0-5,12-12,28-16c34-8,174-66,170-70c-2-2-37,6-78,17
		c-105,27-268,26-385-1c-83-20-92-20-135-6c-78,26-110,68-110,146c0,72,41,121,127,154C2982,7978.9,3123,7969.9,3214,7937.9z
		 M9446,7888.9c7-14-11-8-75,24c-47,23-83,45-80,49C9298,7973.9,9435,7908.9,9446,7888.9z M7915,7849.9c32-30,83-68,114-85
		c31-16,59-37,62-47c15-48-73-237-110-237c-19,0-74,65-109,129c-26,48-25,69,3,36c7-8,17-15,22-15s-7,15-26,34c-32,33-75,130-62,143
		c3,4,6,1,6-6c0-15,99-121,114-121c6,0-11,21-38,47c-49,49-81,93-55,78c9-6,10-3,5,11c-6,15-5,17,5,7c7-7,18-13,24-13
		c5,1-1,10-15,21c-28,23-60,68-60,84c0,6,9-4,19-21c19-31,67-74,82-74c5,0-11,19-34,42c-23,22-33,34-21,25c35-28,37-19,5,20
		c-17,21-31,42-31,48c0,5,10-3,22-20C7849,7919.9,7884,7880.9,7915,7849.9z M9378,7894.9c101-51,103-52,95-59c-5-6-218,92-218,100
		C9255,7949.9,9294,7936.9,9378,7894.9z M9365,7864.9c105-50,141-74,111-74c-9,0-273,119-280,126c-2,2,8,4,22,4
		C9233,7920.9,9299,7895.9,9365,7864.9z M8483,7782.9c119-71,246-144,281-162c72-39,155-109,176-151c35-67,5-138-76-179
		c-106-55-286,8-479,165c-55,45-176,155-146,133c5-5,14-8,19-8s-22,30-59,66l-69,65l77-62c44-36,73-66,67-70c-7-4-2-13,12-23
		c26-18,43-21,34-6c-8,13,1,13,27-1c11-6,22-9,24-6c2,2-22,20-53,40c-69,42-181,142-171,152c4,4,35-18,70-49s67-56,73-56
		c5,0-23,30-63,66c-40,37-70,69-67,72c8,8,145-130,139-139c-7-12,77-65,114-72c17-4,32-5,32-3c0,4-108,76-115,76c-4,0-3-5,1-12
		s3-8-5-4c-6,4-9,11-6,16c3,4-25,33-60,65c-36,31-71,67-77,79c-13,24-18,27,84-55c69-56,207-143,215-136c2,3-23,21-56,41
		c-77,47-184,126-178,132c2,2,31-13,63-35c62-41,183-96,191-87c3,3-7,10-23,17c-16,6-40,15-54,21c-44,17-164,95-194,127
		c-42,44-24,38,42-12c87-67,262-160,262-139c0,4-31,20-68,37c-108,48-257,154-240,171c3,3,43-19,89-49c91-59,201-117,221-117
		c7,0-32,24-87,53c-105,56-215,125-215,136c0,7,21,31,27,31C8264,7910.9,8363,7852.9,8483,7782.9z M9316,7844.9
		c143-65,168-79,157-89c-4-5-325,139-337,151c-2,2,5,4,16,4S9237,7881.9,9316,7844.9z M9286,7819.9c185-86,185-86,177-95
		c-7-6-28,2-233,100c-88,42-150,76-138,76C9103,7900.9,9191,7864.9,9286,7819.9z M9287,7784.9c177-83,174-82,166-90
		c-7-6-308,133-328,152c-8,8-11,14-7,14C9121,7860.9,9198,7826.9,9287,7784.9z M9363,7714.9c40-19,70-39,67-44c-3-6-10-10-15-10
		c-22,0-280,135-280,146c0,9,26,2,78-22C9255,7764.9,9323,7732.9,9363,7714.9z M8225,7785.9c13-14,19-25,13-25c-5,0-20,11-33,25
		s-19,25-13,25C8197,7810.9,8212,7799.9,8225,7785.9z M8121,7733.9c-8-15-15-23-16-16c0,6-3,18-6,26c-3,10,1,17,13,19
		C8138,7768.9,8138,7765.9,8121,7733.9z M9284,7706.9c92-46,119-64,106-70c-19-7-236,102-243,122
		C9141,7777.9,9153,7772.9,9284,7706.9z M9253,7678.9c55-30,90-54,80-56c-20-4-198,84-198,98C9135,7738.9,9155,7731.9,9253,7678.9z
		 M9209,7661.9c37-18,66-35,63-37c-8-8-124,46-139,64c-7,8-8,13-3,11C9136,7696.9,9171,7679.9,9209,7661.9z M3345,7660.9
		c68-11,205-49,199-55c-2-2-40,5-84,16c-44,10-86,19-94,19c-28,0-1-13,46-21c58-11,217-59,211-64c-2-2-35,5-73,16
		c-90,25-225,36-251,20c-16-9-11-10,26-6c25,4,77,1,115-5c83-13,215-50,215-60c0-5-27,1-60,11c-76,24-214,36-224,20
		c-5-8,14-11,65-11c71,0,229-34,229-49c0-4-37,0-82,10c-52,12-119,18-178,17l-95-1l110-7c102-7,262-36,252-46c-2-3-24,0-48,5
		c-24,6-80,10-124,9c-69-2-72-2-20-5c84-4,194-23,201-34c3-6-12-7-38-2c-57,10-253,10-300,0c-21-4-38-12-38-17s13-5,29,0
		c87,25,329,17,355-11c8-9,6-10-9-4c-32,12-261,19-268,8c-4-7,18-9,62-5c38,2,95,1,128-4c54-8,49-9-77-15c-74-4-173-15-220-25
		s-128-18-180-19c-84,0-101,3-152,28c-70,34-98,71-98,126c0,51,42,103,104,126C3079,7663.9,3230,7678.9,3345,7660.9z M9141,7649.9
		c19-21,19-21-9-8c-15,7-27,16-27,21C9105,7676.9,9121,7671.9,9141,7649.9z M8145,7608.9c27-45,163-188,179-188c5,0-28,37-72,83
		c-45,46-91,99-102,118c-14,25-1,15,45-35c76-80,173-161,285-236c152-102,245-226,245-325c0-75-59-135-133-135
		c-143,0-388,211-495,425c-45,91-48,120-5,40c48-87,93-155,104-155c4,0-8,24-28,53c-19,28-57,97-84,152c-55,111-52,109,22-17
		c52-88,128-176,170-198c13-7-1,12-33,42c-55,53-124,150-167,235c-37,75-22,70,23-7c47-79,130-180,148-180c6,0-9,21-34,48
		c-51,54-96,118-127,180c-39,76-16,56,52-45c60-90,171-212,183-200c3,3-20,28-50,57c-49,46-151,183-185,248c-22,41-2,22,38-36
		c43-64,124-152,140-152c6,0-11,21-37,48c-55,54-135,168-130,183c2,6,18-9,35-33c78-108,249-265,269-245c3,3-8,13-24,21
		c-64,33-272,253-272,287C8105,7661.9,8121,7647.9,8145,7608.9z M2910,7631.9c61-13,3-23-93-16c-65,5-90,10-77,16
		C2764,7640.9,2867,7640.9,2910,7631.9z M9138,7624.9c18-9,40-23,50-32c34-30,16-29-43,2c-56,29-74,46-50,46
		C9101,7640.9,9120,7633.9,9138,7624.9z M9138,7584.9c39-20,80-43,90-52c40-35,11-29-83,18c-56,28-98,55-95,60
		C9059,7624.9,9057,7624.9,9138,7584.9z M2859,7600.9c37,0,39-1,24-16c-13-14-31-15-112-9c-84,6-95,9-84,22c10,12,26,14,72,9
		C2791,7603.9,2836,7600.9,2859,7600.9z M3830,7579.9c30-9,35-14,20-17c-38-8-37-20,1-16c28,4,53-2,89-20l50-25l-60,6
		c-33,2-71,0-85-5c-21-9-12-11,50-13c50-2,61-4,33-6c-61-6-53-18,9-16c29,1,43-1,32-3c-12-3-24-13-27-23c-4-16,2-17,47-15
		c28,1,39,0,24-2c-16-3-28-10-28-15s-21-9-47-9s-75-7-110-16c-75-19-82-15-118,55c-31,62-49,126-41,147c5,14,15,16,64,11
		C3764,7594.9,3808,7586.9,3830,7579.9z M9058,7494.9c213-112,224-119,210-127c-7-4-415,211-431,228
		C8815,7617.9,8886,7584.9,9058,7494.9z M9134,7540.9c113-56,140-74,128-86c-7-7-267,128-267,139
		C8995,7607.9,9017,7599.9,9134,7540.9z M9118,7508.9c86-46,157-89,157-95c0-7-3-13-7-13c-3,0-56,26-117,59c-61,32-139,73-173,91
		c-35,18-63,34-63,36C8915,7605.9,8987,7577.9,9118,7508.9z M8310,7570.9c3-5,2-10-4-10c-5,0-13,5-16,10c-3,6-2,10,4,10
		C8299,7580.9,8307,7576.9,8310,7570.9z M2864,7554.9c1-1,0-7-4-13c-10-17-205-15-205,2c0,8,3,17,7,20
		C2668,7570.9,2855,7561.9,2864,7554.9z M5222,7514.9c110-43,183-57,295-58c60-1,108-5,108-9c0-15-40-87-89-160
		c-70-103-94-180-89-287c3-47,8-93,13-104s-16-1-56,29c-77,57-255,145-363,180c-82,26-258,65-295,65c-12,0-21,2-21,4
		c0,3,31,69,68,148l69,144l66,32C5043,7555.9,5108,7559.9,5222,7514.9z M9135,7415.9c121-66,128-71,114-85s-286,141-308,176l-17,25
		l53-30C9006,7485.9,9077,7447.9,9135,7415.9z M2855,7505.9c0-12-15-15-77-15c-43,0-88-3-100-6c-19-5-23-2-23,15c0,20,5,21,100,21
		C2837,7520.9,2855,7517.9,2855,7505.9z M2853,7475.9c-3-3-42-13-87-21c-68-13-85-13-98-2c-14,11-11,14,23,19
		C2741,7479.9,2860,7482.9,2853,7475.9z M2859,7451.9c9-14-144-45-156-33c-7,7,2,13,28,17c40,7,117,22,121,24
		C2853,7460.9,2856,7456.9,2859,7451.9z M7992,7438.9c-3-8-6-5-6,6c-1,11,2,17,5,13C7994,7454.9,7995,7445.9,7992,7438.9z
		 M9133,7365.9c78-45,99-65,68-65c-9,0-202,99-222,114c-1,1-5,12-9,25l-7,24l43-25C9030,7424.9,9087,7391.9,9133,7365.9z
		 M4028,7443.9c-13-2-35-2-50,0c-16,2-5,4,22,4C4028,7447.9,4040,7445.9,4028,7443.9z M2875,7423.9c0-13-108-41-122-32s-10,11,57,27
		C2862,7431.9,2875,7432.9,2875,7423.9z M8026,7240.9c23-140,46-238,66-289c23-54,25-29,3,35c-21,61-71,309-69,347c0,12,12-27,26-88
		c13-60,33-128,44-150c21-44,20-38-22,119c-16,60-27,111-25,113c3,3,10-15,16-38c14-52,89-213,96-206c3,3-6,28-20,55
		c-28,56-66,152-66,167c0,6,14-15,32-45c87-153,210-270,383-366c26-15,75-111,75-149c0-45-34-109-71-136c-48-34-145-34-211,0
		c-165,85-300,361-297,608l1,78l14-105c19-143,42-243,60-266c15-18,15-18,8,1c-31,86-60,262-68,410c-2,50-2,77,0,60
		C8004,7379.9,8015,7309.9,8026,7240.9z M2895,7401.9c0-8-52-31-71-31c-24,0-5,18,29,27c20,6,38,11,40,12
		C2894,7409.9,2895,7406.9,2895,7401.9z M4070,7401.9c3-6-10-7-32-4c-50,8-55,13-10,13C4048,7410.9,4066,7406.9,4070,7401.9z
		 M8022,7373.9c-3-10-5-4-5,12c0,17,2,24,5,18C8024,7396.9,8024,7382.9,8022,7373.9z M9160,7298.9c5-5,1-8-11-8c-30,0-174,79-174,96
		c0,11,24,2,88-32C9111,7328.9,9154,7303.9,9160,7298.9z M3970,7378.9c-4-10,9-12,49-10c30,2,63-1,72-6c13-7,5-9-28-5
		c-25,3-54,0-64-6c-15-8-5-11,51-12c57-2,61-3,23-6c-70-6-59-19,11-15c33,2,68-1,78-7c15-9,11-10-17-6c-19,4-46,2-60-4
		c-21-8-16-10,35-12c48-2,52-3,20-6c-52-6-69-22-19-18c22,1,28,0,14-2c-14-3-29-9-34-13c-8-8,34-6,88,5c45,9-4-15-59-29l-60-15l50,4
		c62,6,48-1-41-20l-69-15l63,6c34,3,81,12,104,20s43,12,45,10c8-8-40-29-92-42c-47-11-48-12-15-13c19,0,54,8,78,19
		c23,10,42,15,42,10c0-14-55-40-84-40c-14,0-28-5-31-10c-3-6-18-8-33-4l-27,5l24-14c23-14,22-15-33-21c-80-10-185,2-219,26
		c-47,34-77,121-58,171c14,35,63,67,119,77C3964,7392.9,3975,7391.9,3970,7378.9z M2925,7361.9c-8-5-31-11-50-15l-35-6l35,14
		C2916,7371.9,2950,7375.9,2925,7361.9z M3565,7360.9c-8-5-27-10-42-10c-16,0-28-5-28-11c0-7,7-8,18-4c9,4,58,8,107,10
		c50,1,68,1,40-1c-81-6-184-25-191-36c-4-6,1-8,12-4c49,15,133,26,193,25l66-2l-50-8c-27-4-87-12-133-18c-56-7-91-17-109-31
		c-14-11-24-20-22-20s36,7,74,15c39,8,111,14,160,14l90-1l-92-13c-112-15-233-44-233-56c0-5,12-4,27,2c29,11,242,49,274,49
		c10,0,19-4,19-9c0-4-31-11-69-13c-65-5-231-54-231-68c0-3,39,7,86,23c51,17,115,30,158,32l71,4l-80-14c-99-18-242-61-251-77
		c-5-8-1-9,12-4c99,40,298,86,312,72c8-9,4-11-115-40c-62-15-132-35-155-46c-58-25-36-25,37,1c91,32,237,61,248,50c8-8-83-32-252-67
		c-13-3-21-7-18-10s40,1,83,10c139,29,89,10-103-39c-103-27-222-57-264-68c-163-42-262,21-229,144c30,112,166,180,425,213
		C3550,7372.9,3585,7373.9,3565,7360.9z M3762,7352.9c7-5,9-13,4-21c-7-11-11-9-20,8C3734,7360.9,3740,7366.9,3762,7352.9z
		 M9071,7303.9c-7-8-116,39-111,47c3,5,30-3,60-17C9050,7318.9,9073,7305.9,9071,7303.9z M2952,7344.9c-3-3-12-4-19-1c-8,3-5,6,6,6
		C2950,7350.9,2956,7347.9,2952,7344.9z M2912,7334.9c-3-3-12-4-19-1c-8,3-5,6,6,6C2910,7340.9,2916,7337.9,2912,7334.9z
		 M2860,7321.9c-31-13-91-24-83-16s63,23,88,23C2874,7329.9,2872,7325.9,2860,7321.9z M3034,7326.9c-2-2-69-23-148-47
		s-139-45-133-47c5-1,83,20,173,47c90,28,165,48,167,46c3-2-225-77-333-109c-16-5-21-1-22,14c-1,16,11,23,65,39c37,11,96,28,132,39
		C2994,7326.9,3045,7336.9,3034,7326.9z M2900,7310.9c-11-5-27-9-35-9c-9,0-8,4,5,9c11,5,27,9,35,9
		C2914,7319.9,2913,7315.9,2900,7310.9z M3135,7311.9c-29-16-380-123-391-119c-6,2,76,31,182,65
		C3112,7316.9,3171,7331.9,3135,7311.9z M8970,7300.9c21-23,16-25-19-9c-14,7-23,16-20,20C8939,7325.9,8950,7322.9,8970,7300.9z
		 M2830,7291.9c-11-5-36-11-55-14c-35-6-34-6,5,8C2823,7299.9,2864,7304.9,2830,7291.9z M3703,7293.9c-21-2-57-2-80,0
		c-24,2-7,4,37,4S3723,7295.9,3703,7293.9z M8741,7249.9c34,1,64-10,165-65c134-71,146-80,136-91c-4-4-75,28-158,71s-153,76-156,73
		s37-27,88-53c133-66,221-116,215-121c-2-3-101,45-218,107c-213,112-286,156-173,104C8679,7256.9,8714,7247.9,8741,7249.9z
		 M8964,7271.9c34-18,72-51,57-51c-3,0-28,14-56,31s-53,29-56,26s24-23,60-44c57-33,84-58,74-69c-2-1-43,20-92,48
		c-86,50-88,51-65,64C8917,7293.9,8919,7293.9,8964,7271.9z M3055,7266.9c0-22-281-119-297-103c-10,10-9,10,142,59
		C3048,7270.9,3055,7272.9,3055,7266.9z M8939,7203.9c116-64,111-61,104-69c-7-6-227,108-228,119
		C8815,7269.9,8843,7258.9,8939,7203.9z M8844,7140.9c99-52,176-96,172-98c-9-3-371,187-371,195
		C8645,7244.9,8650,7242.9,8844,7140.9z M2987,7198.9c-13-13-204-69-211-62s1,11,104,42C2997,7213.9,3003,7214.9,2987,7198.9z
		 M8850,7108.9c85-45,152-85,149-90s-24,2-47,15c-115,66-179,99-183,94c-3-3,38-28,90-57c53-28,98-55,101-61c9-14-7-10-29,6
		c-11,8-25,15-30,15c-6,0-2-7,8-15c26-19,13-19-25,0c-16,9-34,13-39,10c-11-7-110,44-110,56c0,5,8,6,18,3c11-4,9,1-8,16
		c-24,21-24,21-2,10c40-20,36-3-5,19c-21,11-34,20-30,21c5,0,17-5,29-11c11-6,22-8,25-6c3,3-13,15-36,27c-37,18-51,30-35,30
		C8694,7190.9,8766,7153.9,8850,7108.9z M2973,7158.9c-5-13-57-31-126-43c-71-12-47,10,36,32C2977,7173.9,2978,7173.9,2973,7158.9z
		 M2960,7121.9c-14-12-74-31-98-31c-31,0-14,10,40,25C2962,7131.9,2972,7133.9,2960,7121.9z M3795,7111.9c0-5-21-17-47-27
		c-155-56-253-97-253-104c0-5,24,2,53,15c30,13,91,37,138,53c46,17,93,34,104,38c14,5,17,4,10-4c-5-5-46-24-91-41
		c-88-34-190-86-200-103c-8-12-5-11,62,24c49,26,213,78,244,78c8-1-30-16-85-34c-115-38-200-74-193-81c3-3,30,6,61,19
		c65,29,205,76,226,76c27,0,3-11-56-26c-86-23-195-75-189-91c3-7-1-13-8-13s-19-6-25-13c-6-8,38,5,97,29s121,45,137,49
		c17,3,1-5-35-18c-79-29-166-73-176-88c-8-14-6-13,66,25c55,29,184,76,204,76c6-1-23-14-64-29c-94-35-172-75-190-96c-8-9,15-1,51,19
		c66,36,199,90,205,83c3-2-47-28-111-58c-63-30-115-57-115-61c0-7,78,25,160,67c59,30,71,32,39,6c-36-28-149-87-194-101
		c-32-11-36-14-20-20c19-7,19-7-1-12c-10-3-90-26-176-52c-171-50-228-56-271-27c-82,53-85,153-7,231c52,52,97,74,227,110
		c59,17,117,33,128,36l20,6l-20-16c-27-21-12-20,33,3c46,23,154,59,213,70c24,5,45,9,47,10C3794,7120.9,3795,7116.9,3795,7111.9z
		 M3864,7094.9c2-2-3-10-11-18c-14-13-17-12-27,10c-6,14-11,27-11,30C3815,7120.9,3853,7103.9,3864,7094.9z M4250,7110.9
		c-3-5-12-10-18-10c-7,0-6,4,3,10C4254,7122.9,4258,7122.9,4250,7110.9z M4859,7079.9c211-43,410-134,563-256c22-18,21-18-70-15
		c-75,3-102,0-148-17c-79-30-166-88-241-163c-68-67-188-213-188-229s31-10,63,15c80,59,158,61,293,6c133-52,204-70,289-70
		c96,0,132,12,194,65c29,25,56,45,61,45s16,3,24,6c34,13,135-252,178-466c17-89,22-148,22-265c0-159-14-254-59-383
		c-37-108-42-115-111-148l-64-32v30c0,49-31,170-57,223c-14,28-40,68-58,91c-67,82-284,209-430,253c-40,12-86,34-108,52
		c-34,28-77,94-77,118c0,5-5,22-10,37l-11,27l-29-28c-65-62-131-238-131-349c0-107,57-225,149-307c45-39,191-119,219-119
		c7,0,13-4,13-9c0-16-115-23-179-10c-39,7-123,42-223,90c-237,117-317,131-463,84c-114-38-201-88-314-183l-54-46l32,55
		c60,102,204,394,268,543c86,201,198,510,272,746c97,314,197,596,222,626C4706,7109.9,4719,7107.9,4859,7079.9z M2965,7090.9
		c0-5-12-10-27-10c-22,0-25,2-13,10C2945,7103.9,2965,7103.9,2965,7090.9z M4110,7074.9l-30-26l38,21c48,26,56,27,26,1
		c-13-10-19-19-12-20c6,0,15,5,19,11c4,8,9,7,15-2c5-9,1-18-14-26c-42-24,4-13,54,13c28,14,53,23,55,21c6-5-70-55-103-68
		c-14-5-23-12-20-15c3-4,36,10,73,31c77,42,69,22-10-25c-28-17-40-28-26-24s44,20,68,36c23,16,42,25,42,19c0-15-57-59-95-72
		c-19-7-35-17-35-21c0-11,68,17,105,44l30,21l-20-22c-11-13-40-34-65-47s-38-23-30-23c8-1,35,11,60,25c41,23,43,24,25,4
		c-11-12-37-31-58-42c-22-11-37-22-34-24c3-3,19,2,36,11c17,8,31,13,31,11c0-15-103-72-176-97c-118-41-121-39-175,121
		c-16,50-29,106-27,123l3,32l81,7c45,4,99,12,120,17s48,9,59,10C4137,7100.9,4136,7096.9,4110,7074.9z M4265,7096.9c0-7-66-46-78-46
		s-10,26,3,37c4,4,5,2,1-4c-9-16-6-16,35,2C4265,7101.9,4265,7101.9,4265,7096.9z M3815,7060.9c0-5-8-10-17-10c-15,0-16,2-3,10
		C3814,7072.9,3815,7072.9,3815,7060.9z M2965,7051.9c0-5-14-14-31-20c-50-17-58-11-14,10C2967,7063.9,2965,7062.9,2965,7051.9z
		 M2985,7021.9c0-5-33-19-72-31c-119-35-115-34-100-19c7,8,43,24,80,35C2970,7031.9,2985,7034.9,2985,7021.9z M8825,6980.9
		c0-6-18-1-40,10s-40,25-40,30c0,6,18,1,40-10S8825,6985.9,8825,6980.9z M3015,6990.9c13-8,13-10,0-14c-44-16-235-64-239-60
		c-11,11,24,28,110,54C2995,7003.9,2995,7003.9,3015,6990.9z M3835,6992.9c0-5-28-16-62-27c-35-10-90-28-122-41c-33-13-61-22-63-20
		c-9,9,172,80,245,95C3834,7000.9,3835,6996.9,3835,6992.9z M8805,6965.9c27-14,54-34,60-45s8-20,5-20c-8,0-135,81-135,86
		C8735,6996.9,8759,6988.9,8805,6965.9z M3090,6962.9c-9-8-294-92-310-92c-3,0-5,6-5,13c0,9,45,27,128,50
		C3024,6966.9,3110,6980.9,3090,6962.9z M3194,6965.9c-10-10-401-126-407-121c-9,9-4,11,148,55c80,24,163,49,185,56
		C3159,6969.9,3203,6975.9,3194,6965.9z M3842,6964.9c-3-3-12-4-19-1c-8,3-5,6,6,6C3840,6970.9,3846,6967.9,3842,6964.9z
		 M8816,6915.9c38-24,69-52,69-60c0-12-22-1-75,36c-42,29-78,56-81,60C8717,6971.9,8751,6957.9,8816,6915.9z M3134,6915.9
		c-16-17-318-110-327-101c-10,11,4,16,159,65C3139,6934.9,3157,6938.9,3134,6915.9z M8807,6878.9c57-40,77-59,78-75c0-13-3-23-7-23
		c-12,0-169,149-158,150C8725,6930.9,8764,6906.9,8807,6878.9z M8789,6837.9c50-46,77-78,72-85c-4-7-11-12-15-12
		c-10,0-154,146-159,161C8677,6928.9,8719,6902.9,8789,6837.9z M8749,6811.9c71-72,87-102,53-100c-16,1-157,160-151,171
		C8661,6897.9,8670,6890.9,8749,6811.9z M3095,6871.9c0-15-233-90-250-81c-18,10-26,7,125,54C3097,6883.9,3095,6883.9,3095,6871.9z
		 M8601,6869.9c27,1,41-9,102-78c40-44,72-82,72-85s-9-6-19-6c-11,0-49,34-91,80c-40,44-75,78-78,75s14-27,39-53s54-58,64-71l20-24
		l-30,16c-34,17-115,100-135,137c-11,21-11,22,6,15C8562,6871.9,8584,6868.9,8601,6869.9z M4280,6843.9c-5-10-8-21-7-25
		c1-3-6-12-16-20c-15-12-16-11-3,5c7,9,10,17,5,17c-15-1-44-26-44-39c0-6-4-11-10-11c-5,0-10-5-10-10c0-6,19-1,42,11
		c30,15,39,17,30,7c-7-9-26-21-42-28c-17-7-30-16-30-21s14-3,30,6c41,21,38,5-5-24c-20-13-33-26-30-29c2-3,11,1,20,8s18,10,21,8
		c3-3-11-16-31-28c-20-13-32-25-27-29c11-7-53-58-112-90c-50-26-59-19-80,64c-29,117-30,117,77,154c50,18,108,35,129,38
		c22,3,47,16,64,34C4280,6872.9,4293,6872.9,4280,6843.9z M3835,6814.9c-25-25-85-73-135-106c-98-66-110-75-81-64
		c33,11,148,92,211,147l60,53l-60-63c-46-48-156-139-214-178c-2-2-2-5,1-8c8-9,126,82,201,153c37,36,67,61,67,55
		c0-16-151-155-215-198c-31-20-54-39-51-42c8-9,126,77,197,144c55,53,70,62,75,49c11-29-28-87-116-176c-92-93-226-201-316-255
		c-121-73-221-51-278,62c-32,63-11,138,57,205c26,26,52,38,127,57c125,32,272,85,338,122c30,17,51,25,47,19c-3-6-32-24-63-40
		s-51-29-44-30c7,0,26,7,42,15c53,27,32,6-25-26c-31-17-54-34-51-36c10-10,106,52,182,117c43,38,81,69,84,69
		C3877,6860.9,3859,6839.9,3835,6814.9z M3073,6828.9c-5-14-132-58-167-57c-16,0,9,13,64,34C3072,6843.9,3078,6845.9,3073,6828.9z
		 M3075,6794.9c0-12-92-45-108-38c-12,5-2,12,38,25C3066,6801.9,3075,6803.9,3075,6794.9z M3947,6727.9c-4-15-8-13-23,13
		c-25,40-24,45,4,23C3943,6752.9,3950,6739.9,3947,6727.9z M3075,6760.9c0-5-10-10-22-10c-19,0-20,2-8,10
		C3064,6773.9,3075,6773.9,3075,6760.9z M3075,6726.9c0-6-123-46-127-42c-3,2,20,13,49,25C3048,6728.9,3075,6734.9,3075,6726.9z
		 M3089,6701.9c3-5-32-21-79-35c-47-15-93-29-103-33c-14-5-15-4-4,8c7,8,48,26,90,41C3083,6713.9,3082,6713.9,3089,6701.9z
		 M3911,6627.9c-9-23-37-67-63-97c-27-30-37-47-24-38c30,21,101,115,102,137c0,9,3,11,5,4c7-16-26-78-76-144l-41-54l52,55
		c56,59,57,56,14-53c-82-206-273-382-431-395c-51-4-55-3-89,31c-70,70-39,141,97,224c133,81,236,162,323,254c45,46,77,80,73,75
		c-4-6-8-14-8-19c0-19,27,14,45,54c15,33,20,37,28,24C3924,6674.9,3922,6654.9,3911,6627.9z M3115,6673.9c0-5-54-26-120-49
		c-83-28-120-36-120-27c0,7,45,27,108,47C3096,6681.9,3115,6685.9,3115,6673.9z M3153,6644.9c-14-13-280-99-284-92c-3,5-4,11-3,12
		c15,12,266,93,277,89C3150,6650.9,3154,6646.9,3153,6644.9z M3190,6630.9c3-5,1-10-5-10c-7,0-77-23-157-51c-79-28-146-49-149-46
		s14,12,38,21s90,33,148,55C3187,6644.9,3182,6643.9,3190,6630.9z M3240,6621.9c-14-14-346-134-352-127c-7,7,15,16,192,80
		C3238,6631.9,3255,6636.9,3240,6621.9z M3189,6572.9c-26-22-282-117-291-109c-3,4-4,9-2,10c5,4,302,115,309,116
		C3208,6589.9,3201,6582.9,3189,6572.9z M3974,6487.9c-12-73-47-161-88-221c-18-25-28-46-23-46c14,0,62,76,88,140c28,67,31,54,5-21
		c-24-72-65-153-108-214l-36-50l31,29c30,28,89,130,118,203l14,38l-6-50c-19-170-86-340-174-437c-62-69-166-125-251-134
		c-162-18-293,98-258,229c9,34,33,92,43,104c2,2,20-7,42-18c71-37,181-6,299,84c71,54,123,114,176,205c46,78,53,72,9-7
		c-17-30-28-56-26-59c3-2,12,10,21,28s19,29,22,26s-7-26-21-51c-15-25-23-45-18-45c15,0,102,196,120,270
		C3973,6572.9,3987,6570.9,3974,6487.9z M3165,6525.9c-20-20-238-97-244-86c-5,7,223,99,249,100
		C3175,6540.9,3173,6533.9,3165,6525.9z M3996,6488.9c-3-21-6-26-9-15c-3,17,3,47,11,47C4000,6520.9,3999,6505.9,3996,6488.9z
		 M3149,6481.9c-14-13-192-70-199-63c-6,6,197,81,204,75C3157,6491.9,3154,6486.9,3149,6481.9z M3145,6452.9c0-8-117-52-139-52
		c-26,0-1,15,62,37C3139,6462.9,3145,6463.9,3145,6452.9z M3982,6428.9c-3-8-6-5-6,6c-1,11,2,17,5,13
		C3984,6444.9,3985,6435.9,3982,6428.9z M3141,6385.9c-11-8-25-15-30-15c-6,0-2,7,8,15c11,8,25,15,30,15
		C3155,6400.9,3151,6393.9,3141,6385.9z M3173,6364.9c-12-11-98-33-98-24c0,5,15,14,33,19C3145,6370.9,3181,6373.9,3173,6364.9z
		 M3180,6341.9c-15-13-115-44-122-37c-9,9-4,11,57,28C3183,6351.9,3192,6353.9,3180,6341.9z M3190,6321.9c-7-12-134-55-141-48
		c-4,4,107,47,144,56C3195,6330.9,3194,6326.9,3190,6321.9z M3138,6255.9c-72-34-90-39-96-28c-5,8-7,16-4,19c10,10,173,61,180,57
		C3223,6300.9,3187,6279.9,3138,6255.9z M3246,6276.9c0-11-191-96-191-85c0,10,171,99,183,96C3243,6285.9,3246,6281.9,3246,6276.9z
		 M3292,6264.9c-16-17-228-112-224-101c2,6,51,33,108,59C3273,6267.9,3307,6279.9,3292,6264.9z M3365,6265.9c0-6-257-135-270-135
		c-5,0-10,4-10,8c0,9,224,119,255,126c11,2,21,4,23,5C3364,6269.9,3365,6268.9,3365,6265.9z M3329,6219.9c-7-12-206-109-221-108
		c-6,0,214,117,225,118C3335,6230.9,3333,6225.9,3329,6219.9z M3315,6180.9c0-14-159-92-178-87c-10,2,23,23,78,50c52,25,96,46,98,46
		C3314,6190.9,3315,6186.9,3315,6180.9z M3305,6137.9c0-11-103-58-125-57c-8,1,110,67,123,70C3304,6150.9,3305,6144.9,3305,6137.9z
		 M3285,6090.9c-19-11-44-19-55-19c-13,0-6,7,20,19C3303,6114.9,3330,6114.9,3285,6090.9z M5946,5214.9c30-9,66-25,82-36
		c31-23,67-86,67-120c0-25-29-91-53-123c-15-19-16-19-35-2c-73,67-249,20-383-101c-55-50-99-77-83-51c3,5,9,7,13,5c4-3,30,17,56,44
		c60,61,48,67-14,8c-25-24-38-34-30-23c9,11,20,27,24,35c8,13,7,13-9,0c-27-22-93-123-127-193c-16-34-29-53-29-42
		c0,35,57,142,101,190c23,25,40,48,37,51c-3,2-27-19-53-48c-27-29-43-43-37-31c17,30,14,42-3,19c-20-26-19-22,10,57
		c73,202,182,322,327,361C5876,5233.9,5881,5233.9,5946,5214.9z M5241,5156.9c147-51,210-91,241-155l20-41l-34-92
		c-88-238-69-208-161-254c-93-46-140-87-174-151c-18-35-46-59-138-122c-181-123-394-240-573-315l-39-16l22,33c71,105,105,226,98,347
		c-6,104-45,225-84,258c-39,34-47,17-33-63c26-149-3-316-76-441c-53-91-116-148-275-250c-36-23-242-79-418-113
		c-420-83-955-84-1367-5c-189,36-627,165-612,180c2,2,37-3,78-11s142-20,226-26c174-14,364-3,525,31c380,79,740,298,1040,633
		c45,50,116,118,157,151c42,32,128,112,191,176c125,128,174,160,245,160c65,0,99-20,195-119c101-104,175-145,298-166
		c144-25,279,12,384,104c57,51,141,173,165,241c10,28,20,50,24,50C5169,5180.9,5203,5169.9,5241,5156.9z M5969,4936.9
		c44-18,61-64,42-110c-16-39-39-55-141-95c-44-18-108-48-143-67c-34-19-70-34-80-34c-21,0-118-73-115-87c1-5-5-10-13-10
		c-7,0-14,4-14,7c0,9,77,73,108,89c13,7,21,15,19,18c-3,2-16-1-29-8c-12-7-30-12-39-11c-9,2-22-4-29-13c-15-18,0-20,20-2
		c11,9-86-100-109-123c-3-3,3,7,12,22c20,32,22,42,6,32c-27-17,14,37,62,80c61,54,52,63-10,9l-43-36l20,39c69,135,202,254,329,294
		C5893,4953.9,5926,4954.9,5969,4936.9z M6104,4913.9c2-2-10-3-29-3c-28,0-31,2-20,15c10,12,16,13,29,3
		C6093,4921.9,6102,4914.9,6104,4913.9z M3665,4886.9c0-2-8-10-17-17c-16-13-17-12-4,4S3665,4894.9,3665,4886.9z M6085,4880.9
		c-34-11-60-11-35,0c11,5,29,8,40,8C6106,4888.9,6105,4886.9,6085,4880.9z M6110,4860.9c-53-20-83-25-71-12c8,8,84,30,106,30
		C6153,4878.9,6138,4870.9,6110,4860.9z M6115,4834.9c-78-25-98-29-86-17c11,12,109,41,136,41C6179,4858.9,6156,4847.9,6115,4834.9z
		 M6110,4809.9c-49-16-94-27-100-26c-5,2,17,12,50,21s71,21,85,26s32,8,40,8S6160,4825.9,6110,4809.9z M6140,4788.9
		c-50-16-108-31-130-33c-22-3,14,12,80,33s124,36,130,33C6225,4818.9,6189,4803.9,6140,4788.9z M6230,4791.9c-11-10-164-51-187-50
		c-15,0,159,56,182,58C6234,4800.9,6235,4797.9,6230,4791.9z M6233,4765.9c-8-8-162-53-167-49c-9,8,10,16,76,34
		C6213,4769.9,6242,4774.9,6233,4765.9z M6245,4735.9c0-9-14-17-37-21c-21-3-56-10-78-14c-35-8-56-6-44,3c4,4,138,44,152,46
		C6242,4750.9,6245,4743.9,6245,4735.9z M6042,4710.9c54-33,82-109,60-162c-8-18-32-49-54-70c-38-33-47-37-119-43
		c-44-3-117-13-164-20c-48-8-86-10-88-5s-11,7-20,4c-9-2,1,5,23,16c37,19,38,20,10,16l-30-5l30,14c17,8,23,14,13,15
		c-21,0-153-59-145-66c3-3,23,4,46,15c65,34,62,24-4-12c-33-18-76-42-97-55c-35-22-44-16-25,16c5,7,3,12-5,12c-7,0-2,7,10,16
		c12,8,20,19,17,24c-7,12,81,85,142,117c29,16,53,31,53,36c0,18-126-62-192-121c-52-47-48-24,5,30c55,57,145,116,290,188
		C5931,4737.9,5984,4746.9,6042,4710.9z M6223,4693.9c-10-2-26-2-35,0c-10,3-2,5,17,5S6232,4696.9,6223,4693.9z M6158,4683.9
		c-7-2-21-2-30,0c-10,3-4,5,12,5C6157,4688.9,6164,4686.9,6158,4683.9z M6220,4671.9c-12-11-105-19-105-9c0,6,25,10,95,16
		C6221,4679.9,6225,4676.9,6220,4671.9z M6180,4640.9c-11-5-31-9-45-9c-20-1-22,1-10,9c8,5,29,9,45,9
		C6196,4649.9,6197,4647.9,6180,4640.9z M5408,4550.9c11-90,5-110-36-110c-17,0-58-6-90-14s-67-12-77-9c-11,3-33-5-50-17
		c-16-12-30-17-30-11s14,18,32,27s39,24,47,32c14,14,12,15-19,9l-35-6l33,15c39,17,42,26,5,19c-26-6-26-5,6,13c23,13,30,21,20,24
		c-9,4-4,8,13,13c16,4,26,11,23,15c-7,11,14,26,70,49C5393,4628.9,5399,4625.9,5408,4550.9z M6152,4614.9c-3-3-12-4-19-1
		c-8,3-5,6,6,6C6150,4620.9,6156,4617.9,6152,4614.9z M6245,4580.9c0-5-10-10-22-10c-13,0-41-3-63-7c-53-8-40,5,16,16
		C6238,4591.9,6245,4591.9,6245,4580.9z M6293,4565.9c-7-8-171-36-176-30c-5,4,17,10,93,24C6270,4570.9,6300,4572.9,6293,4565.9z
		 M6310,4541.9c-10-9-166-41-199-41c-43,0,1,16,87,31C6311,4551.9,6322,4552.9,6310,4541.9z M6323,4515.9c-8-8-252-55-257-50
		c-6,7,17,13,139,38C6313,4525.9,6336,4527.9,6323,4515.9z M6335,4492.9c0-5-62-19-137-31c-76-12-147-25-158-28s-17-2-13,2
		c5,5,72,21,150,36C6348,4504.9,6335,4502.9,6335,4492.9z M6334,4466.9c-8-8-240-47-257-44c-9,2,37,13,103,25
		C6304,4468.9,6341,4473.9,6334,4466.9z M5444,4416.9c1-5-5-3-13,4c-8,6-12,19-9,27c6,14,8,14,14-3
		C5440,4434.9,5444,4421.9,5444,4416.9z M6335,4440.9c0-5-15-12-32-15c-150-27-194-32-201-26c-6,6,140,38,226,50
		C6332,4450.9,6335,4446.9,6335,4440.9z M5432,4371.9c19-65,28-197,15-205c-6-4-59-4-118,0c-95,6-104,8-83,20c13,7,18,13,11,14
		c-7,0-23-5-35-12c-20-10-21-10-8,5c12,15,11,17-5,17c-17,0-17,1,2,15c18,14,17,15-11,9c-16-4-41-11-54-16c-39-14-34-2,6,15
		c21,8,47,18,57,21c10,4,17,9,14,12s-29-4-59-15c-29-11-54-19-56-17c-3,3,55,29,91,40c10,4,17,9,14,12s-29-4-57-15
		c-38-14-49-16-40-5c6,8,30,19,53,26c22,6,46,16,51,21c14,13-52-2-90-20c-28-13-28-13-10,2c11,8,37,20,58,26c22,6,37,13,34,15
		c-3,3-22,1-44-5c-34-9-36-9-19,4c11,8,27,15,35,15c9,0,23,5,31,11c12,8,9,9-12,5c-16-4-28-4-28-1c0,18,142,54,200,52
		C5418,4415.9,5419,4414.9,5432,4371.9z M6321,4402.9c-3-5-31-12-63-16s-76-9-98-13c-23-3-36-2-32,3c8,8,187,42,196,37
		C6325,4412.9,6324,4407.9,6321,4402.9z M6091,4376.9c47-47,48-100,2-152c-44-50-100-73-205-84c-48-6-101-13-118-15c-22-4-26-2-15,5
		c13,9,13,10,0,10c-8,0-31-5-50-10c-42-13-210-28-210-19c0,3,33,11,73,18c92,16,199,42,194,48c-3,2-62-8-132-22s-132-24-137-23
		c-6,2,34,13,88,25c54,11,116,28,137,37c32,13,36,18,25,29c-11,12-19,12-48,2c-19-7-55-15-80-19c-53-7-46-3,34,19c32,9,55,19,52,22
		c-4,4,6,13,21,20c26,12,27,13,3,8c-71-15-84-15-42,1c58,22,46,31-14,10c-26-9-55-16-63-15c-9,0,12,9,47,20c34,11,62,24,62,28
		c0,5-21,1-47-9c-53-20-171-45-178-38c-3,2,37,15,88,28c50,12,97,27,102,32c12,11-20,5-112-22c-35-10-61-14-58-9c6,9,158,59,181,59
		c9,0,22,6,30,14s46,17,91,21c43,4,83,8,88,10c6,2,43,4,84,4C6054,4410.9,6058,4409.9,6091,4376.9z M6301,4371.9c-3-4-27-11-53-14
		s-63-9-80-13c-20-4-33-2-33,3c0,6,28,15,63,20C6281,4381.9,6307,4382.9,6301,4371.9z M6210,4330.9c-16-4-39-8-50-8c-16,0-15,2,5,8
		c14,4,36,8,50,8C6237,4338.9,6237,4337.9,6210,4330.9z M5085,4243.9v-68l-109-1h-108l86,54c47,29,93,60,101,68
		C5080,4321.9,5085,4312.9,5085,4243.9z M6225,4280.9c-8-5-31-9-50-9c-29,0-31,2-15,9c11,5,34,9,50,9
		C6233,4290.9,6236,4287.9,6225,4280.9z M5578,4263.9c-7-2-19-2-25,0c-7,3-2,5,12,5S5584,4266.9,5578,4263.9z M6275,4261.9
		c-20-12-147-26-137-15c8,9,75,21,122,22C6281,4269.9,6286,4267.9,6275,4261.9z M5632,4254.9c-3-3-12-4-19-1c-8,3-5,6,6,6
		C5630,4260.9,5636,4257.9,5632,4254.9z M5637,4234.9c-50-15-170-30-161-20c6,7,154,33,189,34C5673,4248.9,5661,4242.9,5637,4234.9z
		 M6319,4241.9c3-5-33-14-82-21c-48-6-95-14-104-16c-10-3-18-1-18,4c0,6,33,15,73,22c39,6,79,13,87,14
		C6304,4251.9,6314,4250.9,6319,4241.9z M5171,4205.9c-11-8-29-15-40-14c-15,0-11,4,14,14C5190,4222.9,5194,4222.9,5171,4205.9z
		 M5733,4214.9c-11-10-112-34-143-33c-19,0-6,6,34,14c35,8,69,16,75,19C5715,4221.9,5739,4221.9,5733,4214.9z M6355,4212.9
		c0-8-227-42-275-42s6,15,108,31C6322,4220.9,6355,4223.9,6355,4212.9z M5538,4193.9c-13-2-33-2-45,0c-13,2-3,4,22,4
		S5550,4195.9,5538,4193.9z M6362,4184.9c-7-8-326-46-341-41c-6,2,52,11,129,21s145,19,150,21C6318,4191.9,6369,4190.9,6362,4184.9z
		 M5543,4173.9c-10-2-28-2-40,0c-13,2-5,4,17,4C5542,4178.9,5552,4176.9,5543,4173.9z M6375,4160.9c0-15-13-18-139-29
		c-159-15-163,1-6,20c72,9,133,17,138,18C6372,4169.9,6375,4165.9,6375,4160.9z M5359,4136.9c59-11,75-19,103-50
		c53-58,42-145-22-171c-46-20-114-20-121,0c-4,8-10,13-14,10s-23-2-41,2l-34,8l40,6l40,6l-40,2c-38,2-39,3-15,13c23,11,21,12-27,18
		c-28,3-55,8-58,12c-4,3,12,4,34,1c24-3,41-2,41,4s-12,9-27,7c-16-2-20-1-10,2c25,8,21,34-5,34c-13,0-30,5-38,11c-11,7-3,9,33,7
		c53-4,65,8,15,15c-18,3-7,4,25,3c31,0,57,3,57,8s-39,6-86,4c-54-3-79-1-69,5c9,5,36,9,60,9c26,1,42,5,38,11c-6,9-72,4-108-9
		c-15-5-17-4-9,5c15,16,108,30,128,19c10-6,16-5,16,1c0,5-6,12-12,14C5228,4153.9,5292,4149.9,5359,4136.9z M5475,4116.9
		c0-5-7-3-15,4s-12,17-9,22C5458,4152.9,5475,4133.9,5475,4116.9z M6360,4121.9c-15-15-186-34-198-22c-9,9,19,15,113,24
		C6349,4131.9,6369,4130.9,6360,4121.9z M6114,4107.9c42-21,64-61,57-101c-21-112-168-167-395-150c-58,4-95,10-81,13c18,4,9,7-30,12
		l-55,6l62,1c104,3,78,17-33,17c-57,1-108,5-114,11s27,8,95,6c103-4,155,1,155,16c0,4-42,8-93,8c-50,1-110,6-132,12c-31,7-16,8,65,5
		c61-3,120-1,140,5c28,9,17,10-55,5c-105-7-109,1-10,17c47,8,76,18,89,32l20,21l-30-7c-51-12-254-19-254-9c0,6,50,13,113,16
		c61,3,123,10,137,16c24,11,23,11-8,6c-18-2-83-7-145-11c-144-7-126,11,22,22c58,4,93,10,76,13c-37,6,178,27,295,29
		C6056,4119.9,6100,4115.9,6114,4107.9z M6315,4081.9c-22-12-130-21-130-11s36,16,100,18C6314,4089.9,6325,4086.9,6315,4081.9z
		 M5089,4070.9c15-5,26-17,26-28c0-18-3-19-57-6c-32,8-94,17-138,21c-57,5-73,9-55,14C4903,4082.9,5060,4081.9,5089,4070.9z
		 M6228,4043.9c-7-2-21-2-30,0c-10,3-4,5,12,5C6227,4048.9,6234,4046.9,6228,4043.9z M5733,4010.9c-32-9-127-14-183-10
		c-33,3,15,8,190,17C5753,4018.9,5750,4015.9,5733,4010.9z M6218,4003.9c-7-2-19-2-25,0c-7,3-2,5,12,5S6224,4006.9,6218,4003.9z
		 M6270,3990.9c4-6-12-9-42-9c-47,2-47,2-13,9c19,4,38,8,42,9C6261,3999.9,6267,3996.9,6270,3990.9z M5542,3984.9c-3-3-12-4-19-1
		c-8,3-5,6,6,6C5540,3990.9,5546,3987.9,5542,3984.9z M6290,3960.9c-45-11-115-11-115,0c0,6,30,10,73,9
		C6302,3968.9,6313,3966.9,6290,3960.9z M5548,3943.9c-7-2-19-2-25,0c-7,3-2,5,12,5S5554,3946.9,5548,3943.9z M6330,3941.9
		c-12-11-183-26-173-16c4,5,36,11,70,15C6322,3951.9,6340,3951.9,6330,3941.9z M5505,3915.9c0-8-4-15-10-15c-5,0-10,7-10,15
		s5,15,10,15C5501,3930.9,5505,3923.9,5505,3915.9z M6353,3914.9c-5-4-212-34-237-34c-9,0-11,3-5,9c5,5,59,16,119,23
		C6329,3925.9,6364,3925.9,6353,3914.9z M5509,3846.9c11-22,19-62,20-94c1-68-7-72-88-41c-52,19-56,22-39,35c17,12,16,13-12,14
		c-16,0-48,12-70,26s-31,23-20,19s43-8,70-10l50-4l-50,13c-42,11-46,14-25,18s19,5-9,7c-33,1-34,1-16,21s17,20-14,20
		c-18,0-30,4-27,8c2,4,51,7,108,7h103L5509,3846.9z M6285,3879.9c-25-4-58-7-75-7c-25,1-24,2,10,8c22,4,56,7,75,7
		C6326,3887.9,6325,3887.9,6285,3879.9z M6163,3863.9c-10-2-28-2-40,0c-13,2-5,4,17,4C6162,3868.9,6172,3866.9,6163,3863.9z
		 M6308,3863.9c-7-2-21-2-30,0c-10,3-4,5,12,5C6307,3868.9,6314,3866.9,6308,3863.9z M6083,3853.9c-10-2-26-2-35,0c-10,3-2,5,17,5
		S6092,3856.9,6083,3853.9z M6228,3853.9c-7-2-19-2-25,0c-7,3-2,5,12,5S6234,3856.9,6228,3853.9z M6350,3851.9c-6-5-48-11-95-14
		l-85-6l85,13c47,7,89,14,95,15S6356,3857.9,6350,3851.9z M5575,3840.9c13-9,13-10,0-10c-8,0-22,5-30,10c-13,9-13,10,0,10
		C5553,3850.9,5567,3845.9,5575,3840.9z M6022,3844.9c-3-3-12-4-19-1c-8,3-5,6,6,6C6020,3850.9,6026,3847.9,6022,3844.9z
		 M6148,3843.9c-7-2-19-2-25,0c-7,3-2,5,12,5S6154,3846.9,6148,3843.9z M6015,3819.9c79-12,137-43,167-88c28-42,29-66,3-108
		c-51-84-289-83-480,3c-34,15-58,30-51,32c6,2,9,8,5,13c-7,12-10,12,64-11c35-11,78-19,95-19c20,1,25,3,12,6c-95,21-150,38-208,65
		c-37,17-65,33-63,35c2,3,22-5,45-16c22-12,69-28,103-36c74-17,81-18,74-6c-3,4-27,11-54,15c-26,3-79,22-117,41c-75,38-74,38,51-6
		c96-34,174-48,174-30c0,7-4,10-10,6c-18-11-260,58-248,71c2,2,32-6,67-16c34-11,75-20,89-19c19,1,11,5-24,14c-83,20-164,47-164,55
		c0,4,37-4,81-17c58-16,103-23,158-21l76,1l-87,6c-97,7-128,20-52,22l49,2l-64,8c-35,4-65,10-67,12
		C5631,3841.9,5953,3829.9,6015,3819.9z M6082,3834.9c-3-3-12-4-19-1c-8,3-5,6,6,6C6080,3840.9,6086,3837.9,6082,3834.9z
		 M5645,3820.9c20-6,21-8,5-8c-11,0-29,3-40,8C5585,3831.9,5611,3831.9,5645,3820.9z M6153,3823.9c-10-2-28-2-40,0c-13,2-5,4,17,4
		C6152,3828.9,6162,3826.9,6153,3823.9z M6332,3824.9c-3-3-12-4-19-1c-8,3-5,6,6,6C6330,3830.9,6336,3827.9,6332,3824.9z
		 M6293,3803.9c-10-2-26-2-35,0c-10,3-2,5,17,5S6302,3806.9,6293,3803.9z M6208,3773.9c-7-2-19-2-25,0c-7,3-2,5,12,5
		S6214,3776.9,6208,3773.9z M6253,3743.9c-10-2-28-2-40,0c-13,2-5,4,17,4C6252,3748.9,6262,3746.9,6253,3743.9z M6315,3723.9
		c-46-7-100-8-100-1c0,8,79,15,100,8C6328,3726.9,6328,3725.9,6315,3723.9z M6355,3700.9c0-6-29-10-67-9c-47,0-62,3-48,9
		C6268,3712.9,6355,3712.9,6355,3700.9z M5640,3682.9c-3-3-11,0-18,7c-9,10-8,11,6,5C5638,3691.9,5643,3685.9,5640,3682.9z
		 M6382,3663.9c3-9-10-11-49-7c-100,11-119,23-34,21C6351,3676.9,6380,3671.9,6382,3663.9z M6339,3644.9c29-4,46-12,46-20
		s-4-14-9-14c-17,0-155,30-160,35C6210,3652.9,6284,3651.9,6339,3644.9z M5813,3421.9c52-36,47-19-6,22c-26,19-74,64-107,98
		c-46,49-50,54-14,22c52-46,98-78,104-72c2,2-22,24-52,49c-31,25-57,52-59,61c-2,15,2,15,40-2c85-37,159-51,286-53
		c157-2,200-21,220-97c20-74-29-139-120-158c-110-24-255,36-382,157c-44,42-84,84-89,94c-6,10,31-22,80-72c50-49,97-90,106-90
		s-8,19-36,43c-29,23-86,80-128,127l-75,85l99-96C5735,3487.9,5795,3433.9,5813,3421.9z M6308,3609.9c61-10,76-17,62-31
		c-9-9-159,28-163,41c-3,9,2,11,14,7C6232,3623.9,6270,3616.9,6308,3609.9z M6345,3564.9c12-4,12-7,1-13c-7-5-43-2-80,6
		c-93,20-98,22-82,32C6195,3596.9,6294,3581.9,6345,3564.9z M6264,3545.9c43-13,44-13,13-14c-41-1-120,18-128,31
		C6142,3572.9,6189,3565.9,6264,3545.9z"/>
	<path d="M8973,8780.9c-60-10-138-36-206-68c-71-33-60-40,13-7c84,37,182,65,225,65c22,0,42,5,45,10
		C9057,8791.9,9041,8791.9,8973,8780.9z"/>
	<path d="M8948,8660.9c-62-9-197-49-190-56c3-3,36,4,74,16c37,12,96,24,131,27c34,3,62,10,62,14
		C9025,8671.9,9023,8671.9,8948,8660.9z"/>
	<path d="M8570,8530.9c-3-5-2-10,4-10c5,0,13,5,16,10c3,6,2,10-4,10C8581,8540.9,8573,8536.9,8570,8530.9z"/>
	<path d="M8005,8182.9c0-5,7-15,15-22s15-8,15-2c0,5-7,15-15,22S8005,8188.9,8005,8182.9z"/>
	<path d="M7856,7981.9c6-17,69-68,68-55c0,5-17,22-36,39C7868,7981.9,7854,7989.9,7856,7981.9z"/>
	<path d="M8365,8125.9c0-8,92-51,165-77c86-31,150-44,140-29c-3,6-16,11-29,11c-30,0-149,41-213,74
		C8375,8130.9,8365,8134.9,8365,8125.9z"/>
	<path d="M3305,7869.9c30-18,90-58,134-91c43-32,80-57,83-55c11,12-228,177-256,177C3257,7900.9,3275,7886.9,3305,7869.9z"/>
	<path d="M3240,7860.9c3-5,12-10,19-10s71-38,142-85c70-46,130-83,132-81c6,7-148,113-219,151C3244,7872.9,3230,7877.9,3240,7860.9z
		"/>
	<path d="M7845,7791.9c0-12,59-55,66-48c2,2-11,16-31,31C7861,7789.9,7845,7797.9,7845,7791.9z"/>
	<path d="M8255,7897.9c0-3,28-22,63-43c34-20,91-57,126-81s66-42,68-39c3,3-47,39-111,81C8287,7890.9,8255,7907.9,8255,7897.9z"/>
	<path d="M8775,7095.9c0-2,14-12,31-20c17-9,29-19,26-22c-3-2-17,3-31,13c-15,9-29,14-32,12c-3-3,11-15,31-27c40-23,49-26,40-11
		c-8,13,1,13,27-1c11-6,22-9,24-6c3,3-20,19-50,36C8785,7100.9,8775,7104.9,8775,7095.9z"/>
	<path d="M3819,6690.9c-32-38-60-70-64-70c-12-1-104-90-93-90c26,0,234,213,221,226C3880,6758.9,3852,6729.9,3819,6690.9z"/>
	<path d="M3882,6628.9c-16-28-32-46-35-41c-4,6-33-16-70-53c-35-35-60-64-55-64c4,0,33,26,65,57c32,32,58,52,58,45c0-6-25-36-55-67
		c-31-30-52-55-47-55c28,0,179,194,170,219C3912,6675.9,3897,6656.9,3882,6628.9z"/>
	<path d="M3787,6220.9c-34-41-43-61-17-40c20,17,58,70,53,75C3821,6257.9,3805,6241.9,3787,6220.9z"/>
	<path d="M5563,4922.9c-52-55-83-100-75-108c3-3,11,5,18,17c7,13,35,47,62,76c28,29,48,55,45,58S5588,4949.9,5563,4922.9z"/>
	<path d="M5490,4580.9c-27-30-12-34,15-5c13,14,19,25,13,25C5513,4600.9,5500,4591.9,5490,4580.9z"/>
	<path d="M5658,4521.9c-68-32-159-94-144-99c10-3,8-9-10-23c-13-10-19-19-12-19c6,0,15,5,18,10c3,6,12,10,18,10c7,0-3-10-21-21
		c-18-12-31-24-28-26c2-3,22,7,43,21c20,14,31,26,23,26c-23,0-2,15,90,64c89,48,96,65,9,20c-28-14-53-23-56-20c-4,3,24,20,61,37
		c61,29,77,39,59,39C5703,4540.9,5681,4531.9,5658,4521.9z M5565,4440.9c-14-11-29-20-35-20c-5,0,1,9,15,20s30,20,35,20
		C5586,4460.9,5579,4451.9,5565,4440.9z"/>
	<path d="M5710,3635.9c28-13,57-24,65-24s-9,11-39,25c-29,13-59,24-65,23C5665,3659.9,5683,3648.9,5710,3635.9z"/>
	<path d="M5700,3585.9c29-24,115-67,115-57c0,4-26,21-57,37C5686,3602.9,5675,3606.9,5700,3585.9z"/>
</g>
</svg>
