<?xml version="1.0" encoding="utf-8"?>
<!-- Generator: Adobe Illustrator 22.1.0, SVG Export Plug-In . SVG Version: 6.00 Build 0)  -->
<svg version="1.1" id="Layer_1" xmlns="http://www.w3.org/2000/svg" xmlns:xlink="http://www.w3.org/1999/xlink" x="0px" y="0px"
	 viewBox="0 0 726.2 1065.9" style="enable-background:new 0 0 726.2 1065.9;" xml:space="preserve">
<g transform="translate(0.000000,1280.000000) scale(0.100000,-0.100000)">
	<path d="M2887,12768.6c-28-38-57-109-58-141c0-21-1-21-12-3c-65,102-163,141-252,99c-30-14-35-22-35-51c0-68,65-152,118-152
		c26,0,52-25,52-51c0-18-2-19-28-5c-34,18-132,32-132,20c0-5,9-22,20-39c23-35,25-46,6-39c-10,4-15-8-21-42c-5-38-3-52,12-72
		c33-44,72-66,126-72c40-4,51-9,48-20c-3-8-6-65-9-126c-4-111,13-235,52-382c14-53,14-53-7-50c-20,3-23,11-28,73
		c-4,54-19,100-61,200c-30,72-58,138-61,148c-10,26-27,20-28-10c0-18-7-5-16,34c-9,34-20,60-24,57c-5-3-9,25-9,62
		c0,186-110,304-282,304c-42,0-56-3-53-12c3-7-9-21-26-31c-42-23-32-31,24-17c65,17,91,1,83-49c-7-45,8-104,40-150c29-43,30-51,4-51
		c-23,0-24-4-10-31c15-26-2-25-84,6c-80,30-96,31-128,6c-20-16-32-18-61-12c-44,10-113-2-165-28c-42-21-152-117-152-132
		c0-19,41-31,71-20l30,10l-21-26c-26-33-25-57,2-101c40-65,150-92,214-53c23,14,37,34,49,70l17,51l36-30c28-23,47-30,78-30
		c48,0,81-26,42-32c-21-4-20-5,12-21c31-15,32-16,8-12c-57,11-24-12,125-87c123-63,163-79,212-84c64-6,115-21,115-35
		c0-4-16-20-35-35c-27-20-39-24-47-16c-7,7-15,12-20,12c-13,0-3-127,12-145c21-26,66-45,105-45h35v-177c1-106,8-238,19-325
		c17-141,17-148,0-148c-12,0-19-9-21-27l-4-28l-12,28c-7,16-12,52-12,81c0,86-49,205-123,298l-29,37l16,47c20,58,21,114,2,139
		c-13,19-15,19-54,1c-22-10-45-16-50-12c-5,3-15,27-21,52c-24,94-86,175-147,190c-34,9-46-6-52-65c-4-44,4-83,33-153
		c6-15,2-18-22-18c-34,0-51-17-82-77c-30-60-28-92,7-104c15-5,36-23,46-39c18-31,31-36,55-21c11,7,19,2,30-19
		c56-101,134-220,163-247c18-18,74-55,123-83c57-33,79-50,60-46c-16,3-54,9-82,12c-33,4-53,12-53,20c0,30-57,75-155,124
		c-58,28-111,60-118,71c-6,10-18,19-25,19s-18,11-24,25c-16,35-31,31-23-5c8-35,7-35-31-15c-39,20-63,19-101-4c-47-29-85-101-87-164
		l-1-52l40-12c22-7,58-15,80-19c39-6,40-6,18-21c-35-24-28-28,36-25c33,2,95-4,138-13c43-10,92-20,108-22c17-3,45-19,63-36
		c29-28,39-32,90-31c31,0,69,3,85,7c21,6,27,4,27-8c0-11-6-14-24-9c-33,8-76-44-76-94c0-30-7-43-41-74c-23-21-56-40-75-44
		c-34-6-64-27-64-44c0-12,80-80,106-90c15-6,23-20,26-48c3-22,16-54,29-71c21-28,24-45,27-139l3-107l-41,90c-51,109-65,127-56,68
		c4-25,2-43-3-43c-6,0-11,19-13,42c-4,52-24,61-36,16l-10-33v40c0,45-34,159-64,220c-45,89-128,148-201,143c-29-2-42-8-42-18
		c-1-30-15-38-54-33c-23,3-41,1-45-6c-4-6-2-11,5-11s0-14-17-31l-29-31l39,16c21,9,49,16,62,16c23,0,27-6,40-70c11-56,43-108,90-147
		c25-20,42-38,39-41s-15,4-28,16c-21,20-34,22-134,22c-165,0-264-36-312-113c-16-27-19-42-13-82l7-50l65-22c107-37,114-34,168,72
		l31,60l1-47v-48h78c70,0,81-3,101-24c25-27,26-27-46-41c-50-10-39-25,17-25c28,0,67-7,88-17l37-16l-52-7c-71-10-139-45-171-89
		c-76-101-190-181-260-181c-34,0-35,1-28,35c3,19,9,51,13,71l6,37l-39-7c-96-17-211-93-236-155c-19-48-21-1-3,54c29,83,4,134-40,84
		c-14-15-19-35-18-77c0-31-2-50-6-41c-3,9-31,44-63,77l-56,61l-7-27c-8-28-9-26-19,21c-8,32-26,36-26,5c0-48-18,1-34,92
		c-22,125-55,194-106,220c-41,21-124,27-149,11c-7-5-25-4-43,3c-23,9-34,8-56-5c-15-8-36-21-47-27s-36-13-56-17c-54-8-71-26-75-75
		c-3-33,4-60,27-111c28-61,37-70,88-98c81-43,123-77,148-119c26-43,30-60,8-42c-8,6-19,10-24,8c-14-4,155-204,207-246
		c51-40,125-78,172-86c64-11,69-21,32-59c-22-23-32-42-32-65c0-48,44-63,111-37c13,5,17-12,28-122c6-70,14-147,17-169l6-41l-89,86
		c-90,89-208,175-224,165c-5-3-27,9-49,26c-44,35-55,22-19-23c20-26,20-27,2-52c-10-13-23-25-30-25c-6,0-13-5-15-12c-3-7-13-5-31,7
		c-55,36-38,3,42-79c46-46,104-98,129-116c27-18,69-63,98-103c58-84,89-101,136-74c56,32,61,27,123-109c56-126,145-354,145-374
		c0-5-22,2-49,17c-36,20-55,40-75,78c-14,27-67,95-117,149c-50,55-104,125-119,155l-29,56l-1-35c-1-33-1-34-16-15c-8,11-13,29-10,39
		c9,34-14,113-45,155c-33,46-93,81-139,81c-34,0-202-81-182-87c10-4,10-8,1-19c-19-23-4-27,31-9c18,9,33,15,35,13c7-7,9-88,2-94
		c-16-16-5-35,31-53c38-19,89-67,81-75c-6-6-62,8-131,33s-118,27-159,5c-30-15-31-15-62,20c-35,38-64,50-86,37c-24-15-2-69,53-129
		c28-31,59-69,69-84c16-26,19-27,80-21c72,6,103-5,168-64c42-38,49-53,22-53c-23,0-10-11,62-55c126-75,353-117,439-81
		c21,9,46,16,55,16c21,0,85-39,77-47c-3-3-14,1-24,10c-25,23-83,21-136-4c-114-53-185-161-194-294l-5-75l-52,48
		c-65,60-305,222-502,340c-162,98-388,218-600,320c-157,75-183,78-195,18c-7-32-2-56,26-136c46-130,82-215,110-259
		c13-20,27-51,31-69c3-18,25-55,47-83s65-95,96-148c110-193,170-271,315-414c77-75,165-153,197-172c31-19,85-66,120-105
		c71-80,169-153,280-210c87-44,241-100,275-100c13,0,37-11,52-24c46-39,163-75,308-95c53-8,108-30,273-112c114-57,270-129,347-160
		l140-58l6-63c4-35,7-112,8-173c2-165,34-533,57-647c4-18,1-28-6-28c-23,0-71-42-90-80c-25-49-25-86-1-142c27-63,62-92,104-85l33,5
		l13-96c15-117,72-432,100-561c12-52,19-96,17-98c-2-3-18,32-35,77c-21,54-34,107-38,161c-3,43-8,79-10,79s-15-7-28-16
		c-17-11-29-13-41-6c-11,6-27,7-41,1c-13-5-25-4-28,1c-3,4-45,101-94,214l-88,205l14,53c21,77,28,235,14,326c-19,116-51,240-72,276
		c-10,17-36,75-59,129c-108,260-224,438-404,621c-107,108-184,157-321,204c-33,11-85,34-115,51c-70,39-186,65-245,57
		c-41-7-45-10-51-41c-8-45,21-179,51-230c13-22,66-86,119-143c72-78,98-113,106-145c47-180,71-233,217-477c61-102,135-234,164-295
		c44-90,66-122,120-176c76-76,167-132,289-178c47-18,90-38,96-44c6-7,44-88,84-182c143-333,224-475,354-613c59-62,65-74,90-161
		c15-52,36-117,46-144c11-28,18-52,16-54s-24,25-49,60c-62,86-144,160-198,177c-24,8-60,28-80,46c-61,53-115,68-222,61
		c-130-9-343-60-395-96c-15-10-54-35-87-56c-119-76-250-221-321-355c-16-30-39-70-51-89c-37-55-31-78,25-102c39-17,60-20,122-15
		c41,3,100,10,130,16s118,15,195,19c132,8,146,11,243,50c143,57,227,101,299,155c63,48,139,146,149,195c3,14,10,37,16,51l10,25
		l52-56c30-34,81-113,125-194c42-78,89-151,109-169c34-31,68-84,59-93c-3-2-15,0-26,7c-12,6-59,14-104,17c-87,6-171-11-212-43
		c-20-15-20-15,3-34c60-49,231-66,322-31l51,19l9-24c5-13,21-58,35-100c37-109,113-299,146-366c16-32,29-68,29-82c0-13,17-48,37-77
		c20-30,59-101,86-159c56-119,113-210,131-210c7,0,25,14,39,30c29,32,47,37,76,18c15-9,23-9,35,1c9,8,16,18,16,23s-24,62-54,126
		c-66,145-86,212-86,295c0,95,8,121,41,141c15,9,79,67,141,129c136,135,153,145,207,127c77-25,188,13,281,97c51,46,110,122,110,143
		c0,51-200,15-300-54c-70-49-279-234-371-328c-36-38-71-68-77-68c-16,0-25,37-17,77c4,22,25,55,60,93c67,73,80,96,59,104
		c-9,4-24-5-39-22c-34-37-31-21,16,109c87,243,211,510,316,681c67,109,288,426,372,536c39,50,108,130,154,178l82,86l100-49
		c94-47,163-75,246-102c19-6,68-11,109-11h73l-5,68c-4,46-15,89-37,137c-17,38-30,74-27,80c2,6,23,17,47,24c29,9,65,34,109,76
		c36,34,78,65,93,69c16,4,49,26,74,49c70,64,283,351,328,442c22,44,75,146,118,226c78,148,121,254,132,332c7,43,6,44-25,51
		c-106,21-209-4-355-86c-49-28-109-62-132-75c-44-24-115-87-247-218c-45-44-111-101-148-127c-36-25-84-69-105-96s-50-58-66-68
		c-66-45-188-257-190-330c-1-28-4-33-16-28c-9,4-38,9-66,12c-27,2-54,7-58,12c-5,4,14,70,42,146c71,194,76,203,114,219
		c57,24,110,94,201,269c49,93,125,233,170,310c46,78,99,170,119,206s81,126,136,200s112,158,127,185c35,64,316,469,448,645
		c181,242,348,432,500,568c80,72,317,240,446,315c36,21,81,54,101,73c41,40,195,338,205,397l6,37h-36c-48,0-167-18-241-37
		c-70-17-113-41-175-99c-32-30-64-48-114-63c-37-12-75-21-83-21s-45-18-82-40s-76-40-87-40c-74,0-388-281-452-406
		c-24-47-44-70-80-93c-26-16-59-43-74-58c-37-39-131-201-168-290c-22-54-46-90-83-127c-88-87-152-233-222-503c-19-74-35-151-35-170
		c0-36,35-149,53-171c8-10,0-27-31-70c-23-31-54-77-69-102c-14-25-50-81-79-125c-28-44-80-136-114-205c-88-176-162-312-167-307
		c-2,3,10,36,27,73c75,163,99,251,64,237c-9-3-20,0-24,7c-12,20-39-29-46-86c-4-27-19-74-34-104s-42-101-60-158
		c-17-56-37-105-43-109c-7-4-8,0-3,13c23,58,176,583,231,789c87,334,127,503,180,775c25,129,61,298,80,375c42,175,57,270,90,560
		c45,398,69,517,155,770c85,251,102,278,266,440c78,77,167,172,197,212c30,39,90,107,133,150c78,78,312,393,343,463
		c12,28,16,73,16,220c1,135,6,206,18,263c9,43,17,97,17,119c0,40,0,40-31,34c-27-5-189-73-305-127c-22-11-76-49-120-85
		c-43-36-96-75-116-85c-93-48-384-531-456-759c-52-163-89-325-116-505l-14-90l-1,107c0,59,4,142,10,185c12,89,99,462,201,863
		c67,262,70,280,70,390c0,117-16,232-53,370c-21,77-30,95-60,110c-26,14-82-101-119-246c-23-87-42-137-75-192c-25-41-45-78-45-83
		c0-28-23,7-95,142c-96,181-182,319-200,319c-23,0-45-48-65-138c-10-48-28-127-39-177c-35-163-44-278-40-527l4-236l-30,56
		c-31,58-140,202-153,202c-4,0-52,43-107,96c-104,99-139,123-215,145c-25,7-67,25-95,40c-39,22-78,32-181,45c-72,9-139,14-149,10
		c-16-6-17-17-12-114c12-198,24-262,86-452c63-194,85-238,170-334l53-59l-32-13c-17-8-44-22-58-33c-24-17-34-18-80-9
		c-91,16-140-25-240-203c-33-58-62-91-62-70c0,6-4,11-8,11c-11,0-137-167-153-202c-19-43-27-24-17,44c14,102-13,245-55,294
		c-14,15-50,34-97,49l-75,23l108,1c60,1,106,5,103,10c-3,4-34,14-68,21l-63,12l50,17l50,16l44-27c55-34,105-37,122-7
		c11,22,13,22,119,4c47-8,193,43,198,69c2,11-4,19-17,23c-27,7-26,11,4,35c65,51-2,148-102,148c-50,0-79-21-93-68
		c-15-46-22-53-39-43c-11,7-10,14,8,37l22,28l-21,20c-15,16-36,21-90,24c-76,5-84,16-18,27c47,8,71,21,136,73c24,19,45,33,46,31
		c2-2,11-19,21-38c17-33,18-34,31-16c19,26,17,48-6,78c-11,14-20,38-20,54s-7,38-15,50c-20,28-118,65-176,66c-55,1-82-17-136-91
		c-21-30-67-83-103-118c-62-61-100-80-100-50c0,8-41-27-92-77c-55-53-94-85-96-77c-3,7,13,48,34,91s35,81,32,85c-3,3-20-2-37-11
		c-17-8-31-14-31-13c0,2,4,18,10,37c9,32,8,33-17,26c-34-8-126-67-192-123l-54-46l6,44c17,124,29,502,20,615c-5,66-9,121-7,123
		c1,2,13-4,27-13c13-8,51-20,82-25c81-13,87-23,42-66c-43-42-44-50-14-95c16-24,37-39,70-50c26-9,61-25,77-37c41-31,67-27,107,13
		l35,35l25-31c19-22,33-29,52-27c23,3,27,9,39,73c17,86,5,135-44,178c-39,35-44,52-13,44c18-5,20-2,16,16c-2,12-8,30-12,39
		c-5,13,0,19,22,23c128,27,210,64,262,119c36,37,27,47-19,21c-38-22-50-18-13,4c17,11,46,39,64,63s56,59,83,78c38,26,59,51,83,98
		c55,106,41,222-26,222c-10,0-30,9-45,21c-31,24-89,34-141,25c-57-11-112-68-131-135c-17-60-59-125-75-116c-5,4-9,24-9,46
		c0,57-14,48-34-23c-20-73-63-168-77-168c-5,0-9,27-9,60c0,71-15,108-47,117c-37,9-71-12-101-63c-15-25-37-58-49-72
		c-18-22-22-24-23-9c0,9-7,17-16,17c-11,0-14,5-9,18c42,108,48,142,34,199c-7,32-14,93-14,136c0,42-2,77-5,77s-23-27-43-59
		c-71-110-100-115-72-13c9,32,15,72,13,88c-4,26-8,22-41-48c-20-42-41-79-46-82s-19-32-31-63c-13-32-27-62-32-67c-4-6-8,78-8,186
		v195l24-4c33-7,45,17,18,35c-12,8-22,18-22,23c0,15,54,10,77-6c12-9,59-25,105-37c69-18,112-21,260-22c123,0,181,3,189,11
		c9,9,2,14-30,19l-42,7l31,18c41,25,38,33-11,25c-40-6-41-6-34,16c24,75,10,131-40,164c-23,15-24,17-10,44c21,40,19,57-3,37
		c-28-25-42-21-42,14v30l-27-19c-59-41-279-140-289-129c-2,1,8,36,21,76c14,40,28,99,31,130c5,52,4,55-10,37c-15-19-16-19-16,7
		c0,24-8,18-82-58c-44-46-85-90-89-97c-21-32-6,30,41,172c28,83,50,165,50,181s1,29,3,29c1,0,24-7,51-15c63-19,109-19,175,1
		c42,12,65,28,112,77c59,62,72,87,44,87c-19,0-19,4,1,41c18,36,11,51-12,23c-9-10-6-2,6,18c24,42,20,64-10,48c-28-15-43-12-36,6
		c5,14,1,15-31,9c-106-19-240-116-298-214c-23-39-36-51-55-51c-23,0-22,3,18,36c56,47,66,68,67,134c1,30,8,82,15,114
		c16,70,3,150-36,228C2945,12810.6,2921,12814.6,2887,12768.6z M3295,10811.6c-4-17-11-31-16-31c-12,0-11,14,3,45
		C3297,10857.6,3304,10850.6,3295,10811.6z M2812,10325.6l-4-54l-24,15c-13,9-26,24-29,35c-9,27,12,59,38,59
		C2813,10380.6,2815,10376.6,2812,10325.6z M2809,10078.6c-1-46-4-96-8-113l-6-30l-18,45c-10,27-17,73-17,113c0,65,1,67,25,67
		C2810,10160.6,2810,10159.6,2809,10078.6z M998,9808.6c7-7,12-25,12-41v-29l-30,25c-16,14-40,29-52,33c-22,8-22,8,7,15
		C980,9821.6,985,9821.6,998,9808.6z M1054,9612.6c-10-2-23-8-28-13c-6-5-18-9-27-9c-15,0-14,4,4,41l21,42l24-29
		C1072,9617.6,1072,9615.6,1054,9612.6z M4341,9530.6c15,0,49-78,49-111c0-31,109-234,142-265c18-17,69-58,113-91
		c118-89,197-187,278-350c20-39,41-74,47-78c41-25,105-313,135-610c24-231,14-648-20-870c-35-227-58-348-104-540
		c-16-66-41-172-56-235c-32-136-151-554-165-578c-16-29,0,57,26,134c14,39,22,79,18,88c-6,17-34,23-34,7c0-5-9-7-20-4
		c-24,6-35-29-26-90c4-28-1-67-14-117l-20-75l5,80c5,62,17,642,15,714c0,7,16,28,35,47c39,37,133,185,141,224c3,14,17,61,30,104
		c14,44,24,95,23,115c0,20,9,72,22,116c33,116,34,412,2,600c-12,72-26,162-32,200c-9,63-43,162-119,345c-30,73-234,384-290,443
		c-20,21-85,73-144,114c-76,53-108,82-108,96c0,18,5,19,65,15c71-6,85,3,85,53c0,28-54,116-90,149c-28,25-28,27-33,170
		c-4,89-12,164-21,195c-22,70-20,73,17,37C4311,9544.6,4333,9530.6,4341,9530.6z M2279,9421.6c104-100,239-115,320-34l34,34l40-17
		l40-18l-7-105c-3-57-6-145-6-195l-1-91l-39,45c-39,43-41,44-55,26c-8-11-15-23-15-28c0-4-28,15-62,43c-106,85-272,154-292,121
		c-4-6,7-27,24-46l31-35l-37-18c-21-10-45-29-52-43c-13-23-12-32,18-103c19-46,41-82,54-89c11-7,46-11,76-9c44,2,63-3,90-21
		c38-26,42-37,18-49c-59-29-56-19-43-128c8-64,52-244,70-288c9-20,42-64,74-97c78-83,99-115,80-127c-33-21-65-9-113,41
		c-26,28-54,50-62,50c-29,0-111,49-142,85c-48,54-73,112-83,188c-5,39-11,72-13,75c-13,13-38-14-76-80c-24-40-58-90-78-110
		c-26-28-33-40-25-50c6-7,23-50,38-95c22-70,35-92,89-150c34-37,72-85,84-105c70-115,212-169,312-118c32,16,41,28,52,67
		c7,25,19,48,27,51c9,3,11,0,6-8s-11-417-14-911l-6-898l-60,86c-164,235-257,406-431,793c-169,376-266,639-268,726
		c-1,43,19,78,110,192c40,52,44,93,13,153c-35,69-49,162-38,243c29,213,25,241-21,148c-31-61-60-96-60-73c0,7-4,9-10,6
		c-5-3-10-17-10-31c0-28-7-30-31-8c-16,14-19,14-34-10c-24-35-32-33-46,14c-7,22-16,37-20,33s-9-63-11-130c-2-68-6-123-10-123
		c-5,0-8,2-8,5s-16,59-36,125l-37,121l22,20c11,11,21,28,21,39c0,18,42,68,90,105c55,43,90,95,90,131c0,44-28,94-53,94
		c-11,0-15,5-11,11c18,29-93-28-144-74c-28-26-38-17-59,54c-34,118-27,147,26,110c16-12,44-21,63-21c39,0,138,54,138,75
		c0,15-67,65-87,65c-8,0,6,19,30,43c38,36,46,51,56,107c23,120,17,112,117,143c49,16,130,46,179,67c50,21,100,39,112,39
		C2229,9460.6,2256,9443.6,2279,9421.6z M5116,9350.6c13-24,36-57,52-74c46-49,55-140,58-566c2-207,7-385,13-411c11-51,9-105-16-339
		c-19-174-15-182-48,90c-16,138-73,451-100,549c-13,50-13,59,5,109c44,126,49,369,12,590c-10,56-14,101-9,99
		C5088,9396.6,5103,9375.6,5116,9350.6z M2928,9341.6c31-31,64-53,88-60c75-21,110-11,155,41l26,31l49-50c28-28,67-56,87-62
		c27-9,38-20,47-45c6-18,24-46,41-60c29-26,30-31,24-75c-4-33-1-66,10-106c21-71,16-139-16-220l-24-60l-7,120c-7,113-32,338-44,398
		c-3,15-12,27-19,27c-36,0-49-74-100-544c-13-121-22-224-19-228c11-18-14-6-36,17c-22,24-23,27-11,80c8,34,10,76,6,107
		c-7,52-10,53-57,33c-13-5-17,0-20,26l-3,32l-33-34c-19-19-51-63-72-99s-55-78-74-93c-45-35-61-66-76-147c-14-73-37-130-52-130
		c-16,0-4,258,13,293c11,24,11,30-2,38c-15,11,5,31,101,102c63,46,103,115,108,186c5,63-17,131-42,131c-8,0-18,9-21,20
		c-4,12-32,37-62,58l-56,37l8,130c6,110,15,155,31,155C2878,9390.6,2901,9368.6,2928,9341.6z M1492,9152.6c2-86,0-122-8-122
		c-23,0-36,29-30,67c5,27,0,57-18,107c-13,38-22,75-19,82c7,20,36,22,55,5C1485,9278.6,1489,9251.6,1492,9152.6z M1613,9295.6
		c-1-6-9-30-18-53c-9-24-18-70-22-103c-3-32-10-59-14-59c-15,0-10,138,6,176c8,20,12,41,9,46c-4,6,4,8,17,6S1614,9300.6,1613,9295.6
		z M2881,9013.6c16-10,29-20,29-23c-1-8-72-51-77-46c-6,6,7,86,14,86C2850,9030.6,2865,9022.6,2881,9013.6z M3519,8892.6
		c1-13-3-20-9-17c-5,3-10,23-9,43c0,30,2,33,9,17C3515,8924.6,3519,8905.6,3519,8892.6z M5405,8774.6l25-56l-19-77
		c-25-98-67-321-81-436c-6-49-13-92-16-94c-10-11-2,84,20,218c25,155,50,458,40,485c-3,9-3,16,0,16S5391,8805.6,5405,8774.6z
		 M1453,8483.6c8-8-22-43-36-43c-13,0-47,30-47,42C1370,8492.6,1444,8493.6,1453,8483.6z M3130,8297.6c0-23-22-38-37-25
		c-11,9-10,13,4,24C3120,8313.6,3130,8313.6,3130,8297.6z M2903,8254.6c3-4-5-21-18-38s-27-44-30-59c-9-36-29-29-33,11
		C2818,8212.6,2880,8277.6,2903,8254.6z M2896,8071.6c-3-5-19-14-36-19c-23-9-30-8-30,2c0,7,3,16,7,19
		C2847,8083.6,2902,8081.6,2896,8071.6z M4065,7792.6c25-79,83-198,220-452c37-69,80-159,97-200c16-41,48-104,71-140
		c42-64,42-65,42-160c1-85,4-102,31-160c17-36,45-82,61-101c27-29,32-47,42-124c15-121,13-237-5-440c-8-93-18-253-21-355
		c-4-154-3-191,10-223c16-37,15-40-41-215l-58-177l-54-12c-30-7-75-19-100-27s-65-18-90-21c-58-9-105-22-157-46c-77-34-94-21-69,52
		c37,109,45,314,17,419c-10,36-9,69,5,180c10,79,17,215,18,330c1,174-2,200-19,245c-20,48-22,50-63,53c-53,4-106-25-172-92
		c-24-25-50-46-57-46s-25,17-40,37c-54,71-259,270-321,312c-261,176-318,101-227-304c30-134,82-244,194-413l81-123l-33-33
		c-19-18-47-64-63-102s-60-131-97-207c-50-100-67-145-63-162c5-18,1-25-13-30c-23-7-51-73-51-121c0-19-8-51-17-72l-17-37l-4,43
		c-4,48,15,109,72,237c20,44,36,88,36,97s12,28,26,42c18,16,25,30,20,41c-5,15-15,17-68,11c-34-4-78-14-96-22c-33-13-37-13-79,15
		c-32,21-62,31-108,36c-35,4-71,12-79,19c-12,9-16,69-21,346l-7,335l42,65c24,36,59,85,80,110c115,139,242,335,362,559
		c31,59,37,65,80,76c84,21,165,92,208,180c11,22,27,45,37,51s31,36,46,65c15,30,63,102,106,161c91,124,107,155,160,315
		c35,106,53,179,93,378l12,60l8-86C4036,7912.6,4051,7837.6,4065,7792.6z M1815,7976.6c10-15,15-40,13-68l-3-43l-19,55
		c-10,30-21,61-24,68C1774,8010.6,1799,8001.6,1815,7976.6z M3156,7928.6c-25-123-37-422-21-511c13-67-70-389-188-732
		c-91-265-172-485-179-485c-15,0-12,1658,2,1674c5,5,25-2,47-15c30-19,51-24,99-23c69,1,126,27,185,87
		C3146,7969.6,3165,7970.6,3156,7928.6z M1808,7678.6c12-29,46-120,76-203c85-234,144-384,180-460c19-38,68-141,109-227
		c108-225,236-438,359-596c27-35,48-67,46-72s-23,2-48,16c-25,13-69,36-98,50c-86,42-234,124-283,157c-46,30-47,32-53,96
		c-16,157-86,331-188,466c-57,76-200,224-288,299l-55,46l-3,113c-4,107-3,114,25,167c24,45,38,59,80,80c29,14,56,36,63,50
		c18,39,40,70,48,70C1783,7730.6,1796,7706.6,1808,7678.6z M3170,7003.6c16-82,28-114,50-138c19-20,19-21-15-98
		c-18-43-51-108-73-145c-61-103-206-306-209-295c-2,6,35,129,83,274c98,301,133,416,134,442C3140,7082.6,3159,7056.6,3170,7003.6z
		 M2903,5202.6c8-15,24-58,37-95c12-37,33-81,47-97c32-38,53-109,52-174v-51l-23,65c-36,104-72,164-124,211c-49,44-49,45-57,123
		l-7,77l31-15C2876,5237.6,2896,5217.6,2903,5202.6z M3928,5036.6c18-29,34-66,35-82c2-24-2-29-23-32c-14-2-53-12-87-24
		c-35-12-65-19-68-16s6,25,19,49c14,24,32,64,42,89c18,47,32,70,43,70C3893,5090.6,3910,5066.6,3928,5036.6z M2931,4954.6
		c5-6,23-44,39-85c27-64,32-93,42-232c8-118,8-191-1-285c-18-200-24-208-49-72c-65,351-102,594-102,672v49l31-18
		C2908,4973.6,2926,4960.6,2931,4954.6z M2744,4878.6c9-35,8-38-14-38c-20,0-25,15-14,44C2725,4907.6,2737,4904.6,2744,4878.6z
		 M3180,4525.6c14-62,41-125,73-167c22-30,23-37,13-75c-10-36-25-52-121-127c-60-47-113-86-117-86s-3,12,2,28c15,44,57,265,84,437
		c44,290,39,275,47,150C3165,4625.6,3173,4553.6,3180,4525.6z M4390,4770.6c17-9,13-23-62-187c-77-173-208-436-214-431
		c-1,2-8,106-14,233c-9,169-9,230-1,233c6,2,39,24,74,50c79,59,167,112,185,112C4365,4780.6,4380,4776.6,4390,4770.6z M4588,4719.6
		c23-6,42-13,42-16s-44-53-97-111c-54-59-110-123-126-142l-27-35l23,55c69,161,123,270,132,266C4540,4733.6,4564,4726.6,4588,4719.6
		z M4034,4509.6c10-97,7-360-5-446c-9-69-23-103-124-303c-125-248-219-460-275-618c-20-57-41-102-46-100c-20,7-5,115,31,213
		c65,179,86,245,110,357c14,60,41,145,60,189c50,111,71,175,86,263c22,142-11,361-56,361c-24,0-45-39-45-86c0-20-9-62-21-95
		c-32-94-59-215-59-269c0-27,7-90,15-139c13-78,13-98,0-160c-23-112-48-191-108-341c-31-78-62-172-68-210c-11-65-11-73,9-112
		c24-46,27-69,13-78c-5-3-20,18-34,47c-44,96-147,200-167,169c-9-16-22,5-63,104l-24,60l7,350c8,360,21,496,49,529
		c9,10,61,48,116,84s128,87,161,114c48,37,70,48,98,48c44,0,117,27,226,85c47,24,90,45,96,45S4030,4543.6,4034,4509.6z M2751,4230.6
		c31-57,59-123,55-127c-6-6-59,74-91,137c-26,52-27,54-5,39C2722,4271.6,2741,4249.6,2751,4230.6z M3211,3931.6c-6-80-14-218-17-305
		l-7-159l-17,34c-10,19-34,86-55,149c-20,63-45,139-56,168c-37,103-24,138,83,236C3229,4133.6,3226,4138.6,3211,3931.6z
		 M3396,3086.6c76-65,121-176,129-321l6-90l-45,86c-24,47-52,111-61,142s-32,86-51,123C3322,3126.6,3329,3144.6,3396,3086.6z"/>
</g>
</svg>
