<?xml version="1.0" encoding="UTF-8" standalone="no"?>
<!-- Created with Inkscape (http://www.inkscape.org/) -->
<svg xmlns:inkscape="http://www.inkscape.org/namespaces/inkscape" xmlns:rdf="http://www.w3.org/1999/02/22-rdf-syntax-ns#" xmlns="http://www.w3.org/2000/svg" xmlns:xlink="http://www.w3.org/1999/xlink" xmlns:ns1="http://sozi.baierouge.fr" xmlns:cc="http://creativecommons.org/ns#" xmlns:sodipodi="http://sodipodi.sourceforge.net/DTD/sodipodi-0.dtd" xmlns:dc="http://purl.org/dc/elements/1.1/" id="svg2" xml:space="preserve" viewBox="0 0 39.354 84.86" version="1.1" inkscape:version="0.91 r13725">
  <defs id="defs6">
    <clipPath id="clipPath56">
      <path id="path58" d="m15.266 41.399c-1.68 0.106-3.145 0.442-4.399 1-1.199 0.559-1.828 1.188-1.879 1.879-0.027 0.696 0.543 1.243 1.719 1.641 1.199 0.398 2.641 0.547 4.32 0.441 1.707-0.109 3.172-0.441 4.399-1 1.226-0.562 1.855-1.187 1.883-1.882 0.05-0.692-0.52-1.239-1.723-1.637-1.172-0.43-2.613-0.574-4.32-0.442z" inkscape:connector-curvature="0"/>
    </clipPath>
    <clipPath id="clipPath64">
      <path id="path66" d="m24.531-21.276h8.6814v7.2211h-8.6814v-7.2211z" inkscape:connector-curvature="0"/>
    </clipPath>
    <radialGradient id="radialGradient68" gradientUnits="userSpaceOnUse" cy="-17.591" cx="28.872" r="3.0779">
      <stop id="stop70" style="stop-color:#ffffff;stop-opacity:.64710" offset="0"/>
      <stop id="stop72" style="stop-color:#ffffff;stop-opacity:0" offset=".9569"/>
      <stop id="stop74" style="stop-color:#ffffff;stop-opacity:0" offset="1"/>
    </radialGradient>
    <mask id="mask76">
      <g id="g78">
        <g id="g80" clip-path="url(#clipPath64)">
          <path id="path82" style="fill:url(#radialGradient68)" d="m24.531-21.276h8.6814v7.2211h-8.6814v-7.2211z" inkscape:connector-curvature="0"/>
        </g>
      </g>
    </mask>
    <radialGradient id="radialGradient86" gradientUnits="userSpaceOnUse" cy="-17.591" cx="28.872" r="3.0779">
      <stop id="stop88" style="stop-color:#000000" offset="0"/>
      <stop id="stop90" style="stop-color:#000000" offset="1"/>
    </radialGradient>
    <linearGradient id="linearGradient104" y2="18.191" gradientUnits="userSpaceOnUse" x2="-14.161" gradientTransform="matrix(-.04608 .79864 .79864 .04608 -.013282 67.88)" y1="18.191" x1="-31.515">
      <stop id="stop106" style="stop-color:#1b1405" offset="0"/>
      <stop id="stop108" style="stop-color:#281f06" offset=".1294"/>
      <stop id="stop110" style="stop-color:#4c3909" offset=".36470"/>
      <stop id="stop112" style="stop-color:#69500b" offset=".53330"/>
      <stop id="stop114" style="stop-color:#413108" offset=".94120"/>
      <stop id="stop116" style="stop-color:#3b2c08" offset="1"/>
    </linearGradient>
    <clipPath id="clipPath124">
      <path id="path126" d="m6 43.888h19v8h-19v-8z" inkscape:connector-curvature="0"/>
    </clipPath>
    <mask id="mask128">
      <g id="g130">
        <g id="g132" clip-path="url(#clipPath124)">
          <path id="path134" style="fill:#000000;fill-opacity:.5" d="m6 43.888h19v8h-19v-8z" inkscape:connector-curvature="0"/>
        </g>
      </g>
    </mask>
    <clipPath id="clipPath140">
      <path id="path142" d="m6 43.888h19v8h-19v-8z" inkscape:connector-curvature="0"/>
    </clipPath>
    <clipPath id="clipPath144">
      <path id="path146" d="m6 44h19v8h-19v-8z" inkscape:connector-curvature="0"/>
    </clipPath>
    <linearGradient id="linearGradient174" y2="18.169" gradientUnits="userSpaceOnUse" x2="-14.158" gradientTransform="matrix(-.04608 .79864 .79864 .04608 -.013282 67.88)" y1="18.169" x1="-31.512">
      <stop id="stop176" style="stop-color:#1b1405" offset="0"/>
      <stop id="stop178" style="stop-color:#281f06" offset=".17650"/>
      <stop id="stop180" style="stop-color:#4c3a09" offset=".50590"/>
      <stop id="stop182" style="stop-color:#4f3d0a" offset=".53330"/>
      <stop id="stop184" style="stop-color:#3b2c08" offset="1"/>
    </linearGradient>
    <clipPath id="clipPath226">
      <path id="path228" d="m7 43.888h18v12h-18v-12z" inkscape:connector-curvature="0"/>
    </clipPath>
    <mask id="mask230">
      <g id="g232">
        <g id="g234" clip-path="url(#clipPath226)">
          <path id="path236" style="fill:#000000;fill-opacity:.30080" d="m7 43.888h18v12h-18v-12z" inkscape:connector-curvature="0"/>
        </g>
      </g>
    </mask>
    <clipPath id="clipPath242">
      <path id="path244" d="m7 43.888h18v12h-18v-12z" inkscape:connector-curvature="0"/>
    </clipPath>
    <clipPath id="clipPath246">
      <path id="path248" d="m7 44h18v12h-18v-12z" inkscape:connector-curvature="0"/>
    </clipPath>
    <linearGradient id="linearGradient254" y2="-463.33" gradientUnits="userSpaceOnUse" x2="16783" gradientTransform="matrix(-.0456 .79872 -.79872 -.0456 409.95 -13363)" y1="-463.33" x1="16758">
      <stop id="stop256" style="stop-color:#1b1405" offset="0"/>
      <stop id="stop258" style="stop-color:#281f06" offset=".17650"/>
      <stop id="stop260" style="stop-color:#4c3a09" offset=".50590"/>
      <stop id="stop262" style="stop-color:#4f3d0a" offset=".53330"/>
      <stop id="stop264" style="stop-color:#3b2c08" offset="1"/>
    </linearGradient>
  </defs>
  <g id="g10" transform="matrix(1.25 0 0 -1.25 0 84.86)">
    <g id="g12">
      <path id="path14" style="fill-rule:evenodd;fill:#181001" d="m24.027 50.88c-0.16-0.082-0.32-0.094-0.48-0.039-0.188 0.051-0.32 0.16-0.399 0.32-0.082 0.133-0.093 0.293-0.043 0.477 0.055 0.16 0.161 0.281 0.321 0.363l4.762 2.598c0.398 0.187 0.691 0.093 0.878-0.282 0.215-0.343 0.122-0.625-0.281-0.839l-4.758-2.598z" inkscape:connector-curvature="0"/>
      <path id="path16" style="fill-rule:evenodd;fill:#7b6f68" d="m30.465 53.118c-0.449-0.211-0.918-0.25-1.399-0.117-0.507 0.16-0.867 0.453-1.078 0.879-0.242 0.426-0.281 0.879-0.121 1.359 0.16 0.481 0.465 0.828 0.918 1.039 0.453 0.215 0.934 0.254 1.442 0.121 0.48-0.16 0.828-0.453 1.039-0.878 0.242-0.454 0.281-0.907 0.121-1.36-0.16-0.48-0.465-0.828-0.922-1.043z" inkscape:connector-curvature="0"/>
      <path id="path18" style="fill-rule:evenodd;fill:#625953" d="m28.508 54.2c0.211-0.426 0.547-0.722 1-0.883 0.426-0.156 0.867-0.156 1.316 0l-0.359-0.199c-0.453-0.211-0.918-0.25-1.399-0.117-0.507 0.16-0.867 0.453-1.082 0.879-0.238 0.426-0.277 0.879-0.117 1.359 0.16 0.481 0.465 0.828 0.918 1.039l0.16 0.082c-0.32-0.265-0.519-0.601-0.597-1-0.082-0.425-0.028-0.816 0.16-1.16z" inkscape:connector-curvature="0"/>
      <path id="path20" style="fill-rule:evenodd;fill:#4c3527" d="m30.426 54.161c-0.266-0.137-0.531-0.148-0.801-0.043-0.266 0.082-0.465 0.242-0.598 0.481-0.132 0.265-0.16 0.535-0.082 0.8 0.082 0.266 0.254 0.465 0.52 0.602 0.269 0.133 0.535 0.145 0.801 0.039 0.293-0.082 0.507-0.254 0.64-0.519 0.133-0.243 0.16-0.497 0.082-0.762-0.109-0.266-0.293-0.465-0.562-0.598z" inkscape:connector-curvature="0"/>
      <path id="path22" style="fill-rule:evenodd;fill:#181001" d="m6.188 59.88 4.121-6.039c0.132-0.215 0.171-0.43 0.117-0.641-0.051-0.242-0.184-0.426-0.399-0.562-0.215-0.133-0.441-0.172-0.679-0.117-0.243 0.05-0.43 0.171-0.563 0.359l-4.117 6.039c-0.137 0.187-0.176 0.398-0.121 0.641 0.027 0.238 0.144 0.425 0.359 0.558s0.453 0.176 0.719 0.121c0.242-0.027 0.43-0.144 0.563-0.359z" inkscape:connector-curvature="0"/>
      <path id="path24" style="fill-rule:evenodd;fill:#7b6f68" d="m6.988 61.2c0.399-0.586 0.52-1.215 0.36-1.883-0.133-0.636-0.496-1.144-1.082-1.519-0.586-0.371-1.239-0.492-1.957-0.36-0.696 0.133-1.227 0.481-1.602 1.04-0.398 0.589-0.519 1.214-0.359 1.882 0.132 0.641 0.492 1.145 1.078 1.52 0.586 0.371 1.242 0.492 1.961 0.359 0.695-0.133 1.226-0.48 1.601-1.039z" inkscape:connector-curvature="0"/>
      <path id="path26" style="fill-rule:evenodd;fill:#625953" d="m6.988 61.2c0.399-0.586 0.52-1.215 0.36-1.883-0.133-0.636-0.496-1.144-1.082-1.519-0.586-0.371-1.239-0.492-1.957-0.36-0.696 0.133-1.227 0.481-1.602 1.04l-0.039 0.043c0.934-0.481 1.84-0.454 2.719 0.078 0.586 0.347 0.945 0.855 1.078 1.519 0.16 0.668 0.055 1.281-0.317 1.84 0.344-0.211 0.625-0.465 0.84-0.758z" inkscape:connector-curvature="0"/>
      <path id="path28" style="fill-rule:evenodd;fill:#4c3527" d="m5.309 61.36c0.211-0.32 0.277-0.668 0.199-1.043-0.082-0.398-0.293-0.703-0.641-0.918-0.347-0.214-0.707-0.281-1.082-0.199-0.398 0.078-0.719 0.278-0.957 0.598-0.215 0.348-0.281 0.707-0.203 1.082 0.082 0.371 0.297 0.664 0.641 0.879 0.347 0.215 0.722 0.281 1.121 0.199 0.398-0.078 0.707-0.277 0.922-0.598z" inkscape:connector-curvature="0"/>
      <path id="path30" style="fill-rule:evenodd;fill:#181001" d="m23.945 56.36c0.133 0.161 0.321 0.239 0.563 0.239 0.238 0 0.437-0.067 0.597-0.2 0.375-0.375 0.387-0.761 0.043-1.16l-1.761-1.801c-0.16-0.16-0.348-0.238-0.559-0.238-0.242 0-0.441 0.067-0.601 0.199-0.188 0.161-0.282 0.348-0.282 0.559 0 0.215 0.082 0.402 0.243 0.563l1.757 1.839z" inkscape:connector-curvature="0"/>
      <path id="path32" style="fill-rule:evenodd;fill:#7b6f68" d="m26.547 54.841c-0.426-0.457-0.973-0.695-1.641-0.723-0.64-0.023-1.199 0.176-1.679 0.602-0.481 0.426-0.735 0.945-0.762 1.558-0.024 0.641 0.187 1.188 0.64 1.641 0.454 0.453 1 0.68 1.641 0.68 0.641 0.027 1.199-0.172 1.68-0.598 0.453-0.43 0.695-0.949 0.722-1.563 0.024-0.613-0.175-1.144-0.601-1.597z" inkscape:connector-curvature="0"/>
      <path id="path34" style="fill-rule:evenodd;fill:#625953" d="m23.906 58.438-0.281-0.238c-0.453-0.453-0.664-0.988-0.641-1.601 0.028-0.614 0.282-1.133 0.762-1.559 0.32-0.32 0.719-0.519 1.199-0.602 0.453-0.054 0.879 0 1.282 0.161-0.454-0.321-0.961-0.481-1.52-0.481-0.559 0.028-1.055 0.227-1.48 0.602-0.481 0.426-0.735 0.945-0.762 1.558-0.024 0.641 0.187 1.188 0.64 1.641 0.215 0.215 0.481 0.387 0.801 0.519z" inkscape:connector-curvature="0"/>
      <path id="path36" style="fill-rule:evenodd;fill:#4c3527" d="m26.148 55.638c-0.269-0.266-0.574-0.399-0.921-0.399-0.375-0.027-0.692 0.078-0.961 0.321-0.266 0.238-0.414 0.546-0.438 0.918-0.027 0.347 0.094 0.656 0.36 0.921 0.238 0.266 0.546 0.399 0.917 0.399 0.375 0 0.696-0.117 0.961-0.36 0.293-0.238 0.442-0.531 0.442-0.878 0.027-0.348-0.094-0.653-0.36-0.922z" inkscape:connector-curvature="0"/>
      <path id="path38" style="fill-rule:evenodd;fill:#181001" d="m16.988 51.04-0.883-49.922c-0.027-0.316-0.144-0.586-0.359-0.801-0.238-0.211-0.531-0.316-0.879-0.316-0.347 0.027-0.625 0.145-0.84 0.359-0.242 0.239-0.347 0.52-0.32 0.84l0.879 49.918c0 0.293 0.121 0.563 0.359 0.801 0.243 0.215 0.52 0.32 0.84 0.32 0.348-0.027 0.629-0.148 0.84-0.359 0.242-0.242 0.363-0.52 0.363-0.84z" inkscape:connector-curvature="0"/>
      <path id="path40" style="fill-rule:evenodd;fill:#464033" d="m14.465 45.278 2.242 0.243c1.785 0 3.481-0.426 5.078-1.282 1.84-0.961 2.348-2.121 1.524-3.48-0.829-1.332-1.961-1.598-3.403-0.801-1.652 0.906-3.054 2.066-4.199 3.48l-1.242 1.84z" inkscape:connector-curvature="0"/>
      <path id="path42" style="fill-rule:evenodd;fill:#706b61" d="m16.508 45.118 1.558 0.16c1.254 0 2.442-0.293 3.559-0.879 1.309-0.695 1.668-1.507 1.082-2.441-0.586-0.957-1.387-1.16-2.398-0.598-1.176 0.641-2.161 1.465-2.961 2.481l-0.84 1.277z" inkscape:connector-curvature="0"/>
      <path id="path44" style="fill-rule:evenodd;fill:#464033" d="m16.188 45.239c-0.266-0.508-0.708-1.093-1.321-1.761-1.226-1.36-2.695-2.454-4.402-3.278-1.465-0.722-2.57-0.387-3.317 1-0.773 1.387-0.214 2.52 1.68 3.399 1.625 0.773 3.348 1.105 5.16 1 0.907-0.055 1.637-0.172 2.2-0.36z" inkscape:connector-curvature="0"/>
      <path id="path46" style="fill-rule:evenodd;fill:#706b61" d="m14.027 45.079-0.922-1.238c-0.851-0.934-1.878-1.695-3.078-2.281-1.039-0.508-1.828-0.282-2.359 0.679-0.508 0.989-0.109 1.785 1.199 2.399 1.145 0.535 2.348 0.761 3.598 0.679 0.64-0.023 1.16-0.105 1.562-0.238z" inkscape:connector-curvature="0"/>
      <path id="path48" style="fill-rule:evenodd;fill:#464033" d="m16.027 47.681 1.039-1.922c0.696-1.68 1.028-3.442 1-5.281-0.027-1.571-0.839-2.36-2.441-2.36-1.625 0-2.41 1-2.359 3 0.027 1.762 0.496 3.375 1.402 4.84l1.359 1.723z" inkscape:connector-curvature="0"/>
      <path id="path50" style="fill-rule:evenodd;fill:#706b61" d="m15.828 46.118 0.719-1.359c0.508-1.149 0.746-2.375 0.719-3.68 0-1.121-0.575-1.668-1.719-1.641-1.121 0-1.668 0.696-1.641 2.083 0.028 1.226 0.348 2.359 0.961 3.398l0.961 1.199z" inkscape:connector-curvature="0"/>
      <g id="g52">
        <g id="g54" clip-path="url(#clipPath56)">
          <g id="g60" transform="matrix(.03576 -.7992 1.9818 -.12992 48.976 64.667)">
            <g id="g84" mask="url(#mask76)">
              <path id="path92" style="fill-rule:evenodd;fill:url(#radialGradient86)" d="m15.266 41.399c-1.68 0.106-3.145 0.442-4.399 1-1.199 0.559-1.828 1.188-1.879 1.879-0.027 0.696 0.543 1.243 1.719 1.641 1.199 0.398 2.641 0.547 4.32 0.441 1.707-0.109 3.172-0.441 4.399-1 1.226-0.562 1.855-1.187 1.883-1.882 0.05-0.692-0.52-1.239-1.723-1.637-1.172-0.43-2.613-0.574-4.32-0.442z" inkscape:connector-curvature="0"/>
            </g>
          </g>
        </g>
      </g>
      <g id="g94">
        <g id="g96">
          <g id="g102">
            <path id="path118" style="fill-rule:evenodd;fill:url(#linearGradient104)" d="m15.707 57.317c2.32-0.05 4.293-0.691 5.918-1.918 1.652-1.226 2.508-2.707 2.563-4.441-2.454-0.957-5.348-1.398-8.68-1.32-3.231 0.082-6.11 0.668-8.641 1.761 0.16 1.707 1.094 3.133 2.797 4.282 1.707 1.144 3.723 1.691 6.043 1.636z" inkscape:connector-curvature="0"/>
          </g>
        </g>
      </g>
      <g id="g120">
        <g id="g136" mask="url(#mask128)">
          <g id="g148">
            <g id="g150" clip-path="url(#clipPath140)">
              <g id="g152" transform="translate(0 -.11230)">
                <g id="g156">
                  <g id="g158" clip-path="url(#clipPath144)">
                    <g id="g160">
                      <path id="path162" style="fill-rule:evenodd;fill:#1a1a1a" d="m6.906 51.953c2.403-1.094 5.266-1.68 8.602-1.762 3.254-0.105 6.16 0.336 8.719 1.321v-0.36c-0.055-1.785-0.946-3.281-2.68-4.48-1.735-1.227-3.785-1.801-6.16-1.719-2.399 0.051-4.426 0.735-6.078 2.039-1.657 1.305-2.469 2.852-2.442 4.641l0.039 0.32z" inkscape:connector-curvature="0"/>
                    </g>
                  </g>
                </g>
              </g>
            </g>
          </g>
        </g>
      </g>
      <g id="g164">
        <g id="g166">
          <g id="g172">
            <path id="path186" style="fill-rule:evenodd;fill:url(#linearGradient174)" d="m6.867 51.399c2.531-1.093 5.414-1.679 8.641-1.761 3.332-0.078 6.226 0.363 8.68 1.32v-0.32c-0.028-1.785-0.907-3.293-2.641-4.52-1.735-1.199-3.801-1.773-6.199-1.719-2.375 0.055-4.387 0.735-6.039 2.039-1.657 1.309-2.469 2.856-2.442 4.641v0.32z" inkscape:connector-curvature="0"/>
          </g>
        </g>
      </g>
      <path id="path188" style="fill-rule:evenodd;fill:#181001" d="m21.266 59.317-1.278-3.398c-0.136-0.293-0.347-0.508-0.64-0.641-0.293-0.105-0.602-0.105-0.922 0-0.293 0.106-0.504 0.309-0.641 0.602-0.16 0.293-0.183 0.586-0.078 0.879l1.32 3.359c0.106 0.293 0.321 0.508 0.641 0.641 0.293 0.133 0.598 0.148 0.918 0.039 0.293-0.133 0.508-0.344 0.641-0.637 0.16-0.297 0.171-0.574 0.039-0.844z" inkscape:connector-curvature="0"/>
      <path id="path190" style="fill-rule:evenodd;fill:#7b6f68" d="m23.746 59.919c-0.32-0.852-0.906-1.465-1.758-1.84-0.855-0.375-1.722-0.398-2.601-0.078-0.879 0.316-1.52 0.891-1.922 1.719-0.399 0.828-0.426 1.652-0.078 2.48 0.32 0.824 0.906 1.426 1.761 1.801 0.852 0.371 1.719 0.398 2.598 0.078 0.879-0.293 1.52-0.851 1.918-1.68 0.375-0.8 0.402-1.625 0.082-2.48z" inkscape:connector-curvature="0"/>
      <path id="path192" style="fill-rule:evenodd;fill:#7b6f68" d="m23.746 59.919c-0.32-0.852-0.906-1.465-1.758-1.84-0.855-0.375-1.722-0.398-2.601-0.078-0.879 0.316-1.52 0.891-1.922 1.719-0.399 0.828-0.426 1.652-0.078 2.48 0.32 0.824 0.906 1.426 1.761 1.801 0.852 0.371 1.719 0.398 2.598 0.078 0.879-0.293 1.52-0.851 1.918-1.68 0.375-0.8 0.402-1.625 0.082-2.48z" inkscape:connector-curvature="0"/>
      <path id="path194" style="fill-rule:evenodd;fill:#625953" d="m23.707 62.2c0.293-0.773 0.305-1.535 0.039-2.281-0.32-0.852-0.906-1.465-1.758-1.84-0.855-0.375-1.722-0.398-2.601-0.078-0.692 0.238-1.239 0.652-1.641 1.238-0.398 0.559-0.586 1.172-0.558 1.84 0.347-0.879 1-1.508 1.96-1.879 0.879-0.32 1.747-0.293 2.598 0.078 0.852 0.375 1.442 0.989 1.762 1.84 0.133 0.293 0.199 0.656 0.199 1.082z" inkscape:connector-curvature="0"/>
      <path id="path196" style="fill-rule:evenodd;fill:#4c3527" d="m22.508 61.72c-0.215-0.481-0.547-0.828-1-1.039-0.508-0.215-1.016-0.227-1.52-0.043-0.508 0.187-0.867 0.508-1.082 0.961-0.215 0.48-0.226 0.961-0.039 1.441 0.184 0.481 0.52 0.824 1 1.039 0.481 0.215 0.973 0.227 1.481 0.039 0.504-0.183 0.867-0.504 1.078-0.957 0.242-0.48 0.269-0.961 0.082-1.441z" inkscape:connector-curvature="0"/>
      <path id="path198" style="fill-rule:evenodd;fill:#181001" d="m14.906 64.759 1.16-8.121c0.028-0.266-0.039-0.492-0.199-0.68-0.16-0.184-0.375-0.293-0.64-0.32-0.266-0.028-0.493 0.043-0.68 0.203-0.215 0.16-0.332 0.359-0.359 0.597l-1.161 8.161c-0.027 0.242 0.039 0.453 0.2 0.64 0.16 0.188 0.375 0.305 0.64 0.36 0.266 0.027 0.492-0.051 0.68-0.239 0.187-0.16 0.305-0.359 0.359-0.601z" inkscape:connector-curvature="0"/>
      <path id="path200" style="fill-rule:evenodd;fill:#7b6f68" d="m16.309 65.56c0.05-0.696-0.149-1.321-0.602-1.879-0.453-0.535-1.055-0.828-1.801-0.883-0.746-0.051-1.398 0.137-1.961 0.562-0.558 0.453-0.879 1.024-0.957 1.719-0.054 0.719 0.145 1.348 0.598 1.879 0.453 0.563 1.055 0.867 1.801 0.922s1.398-0.149 1.961-0.602c0.558-0.453 0.879-1.027 0.961-1.718z" inkscape:connector-curvature="0"/>
      <path id="path202" style="fill-rule:evenodd;fill:#625953" d="m15.105 64.599c0.481 0.562 0.68 1.187 0.602 1.879l-0.16 0.64c0.426-0.426 0.68-0.945 0.762-1.558 0.05-0.696-0.149-1.321-0.602-1.879-0.453-0.535-1.055-0.828-1.801-0.883-0.613-0.051-1.172 0.082-1.679 0.402-0.508 0.293-0.868 0.719-1.079 1.278 0.614-0.614 1.332-0.879 2.161-0.797 0.746 0.078 1.343 0.386 1.796 0.918z" inkscape:connector-curvature="0"/>
      <path id="path204" style="fill-rule:evenodd;fill:#4c3527" d="m14.387 66.399c0.054-0.425-0.055-0.785-0.321-1.082-0.265-0.316-0.613-0.492-1.039-0.519-0.425-0.051-0.8 0.055-1.121 0.32-0.293 0.266-0.465 0.602-0.519 1-0.028 0.403 0.078 0.762 0.32 1.082 0.266 0.293 0.613 0.453 1.039 0.481 0.426 0.023 0.801-0.082 1.121-0.321 0.321-0.242 0.492-0.562 0.52-0.961z" inkscape:connector-curvature="0"/>
      <path id="path206" style="fill-rule:evenodd;fill:#181001" d="m12.465 56.681c0.082-0.16 0.082-0.321 0-0.481-0.078-0.187-0.199-0.308-0.36-0.359-0.453-0.16-0.746-0.043-0.878 0.359l-0.801 1.918c-0.051 0.16-0.039 0.32 0.039 0.481 0.055 0.187 0.176 0.308 0.363 0.359 0.453 0.137 0.746 0.016 0.879-0.359l0.758-1.918z" inkscape:connector-curvature="0"/>
      <path id="path208" style="fill-rule:evenodd;fill:#7b6f68" d="m12.508 59.399c0.211-0.453 0.211-0.921 0-1.398-0.215-0.453-0.574-0.773-1.082-0.961-0.504-0.187-1-0.176-1.481 0.039-0.48 0.215-0.812 0.547-1 1-0.183 0.481-0.183 0.961 0 1.442 0.215 0.453 0.575 0.773 1.082 0.957 0.508 0.187 1 0.175 1.481-0.04 0.48-0.21 0.812-0.558 1-1.039z" inkscape:connector-curvature="0"/>
      <path id="path210" style="fill-rule:evenodd;fill:#625953" d="m12.508 59.399c0.211-0.453 0.211-0.921 0-1.398-0.215-0.453-0.574-0.773-1.082-0.961-0.453-0.187-0.906-0.187-1.36 0-0.48 0.16-0.824 0.438-1.039 0.84 0.614-0.453 1.266-0.563 1.961-0.32 0.477 0.214 0.824 0.546 1.039 1 0.215 0.453 0.227 0.918 0.039 1.398l-0.121 0.203c0.27-0.215 0.453-0.469 0.563-0.762z" inkscape:connector-curvature="0"/>
      <path id="path212" style="fill-rule:evenodd;fill:#4c3527" d="m11.309 59.681c0.105-0.297 0.089-0.563-0.043-0.801-0.106-0.266-0.305-0.453-0.598-0.563-0.293-0.105-0.574-0.105-0.84 0-0.297 0.137-0.496 0.336-0.601 0.602-0.106 0.266-0.094 0.535 0.039 0.801 0.132 0.265 0.336 0.453 0.601 0.558 0.293 0.106 0.574 0.106 0.84 0 0.293-0.132 0.492-0.332 0.602-0.597z" inkscape:connector-curvature="0"/>
      <path id="path214" style="fill-rule:evenodd;fill:#181001" d="m8.266 52.438c0.375-0.238 0.453-0.531 0.242-0.878-0.215-0.348-0.52-0.426-0.922-0.243l-4.84 2.481c-0.16 0.082-0.266 0.203-0.32 0.363-0.051 0.184-0.028 0.36 0.082 0.52 0.265 0.343 0.574 0.414 0.918 0.199l4.84-2.442z" inkscape:connector-curvature="0"/>
      <path id="path216" style="fill-rule:evenodd;fill:#7b6f68" d="m2.828 56.438c0.453-0.265 0.746-0.64 0.879-1.121 0.105-0.449 0.027-0.89-0.242-1.316-0.266-0.43-0.637-0.695-1.117-0.801-0.481-0.133-0.95-0.082-1.403 0.16-0.453 0.266-0.746 0.625-0.879 1.078-0.132 0.481-0.066 0.934 0.2 1.36 0.265 0.43 0.652 0.695 1.16 0.801 0.48 0.132 0.949 0.082 1.402-0.161z" inkscape:connector-curvature="0"/>
      <path id="path218" style="fill-rule:evenodd;fill:#625953" d="m2.828 56.438c0.453-0.265 0.746-0.64 0.879-1.121 0.105-0.449 0.027-0.89-0.242-1.316-0.344-0.535-0.824-0.828-1.438-0.883 0.348 0.215 0.586 0.442 0.719 0.68 0.266 0.43 0.336 0.867 0.199 1.32-0.105 0.481-0.386 0.856-0.84 1.121-0.293 0.16-0.664 0.239-1.117 0.239 0.637 0.32 1.254 0.308 1.84-0.04z" inkscape:connector-curvature="0"/>
      <path id="path220" style="fill-rule:evenodd;fill:#4c3527" d="m1.707 55.798c0.266-0.133 0.441-0.344 0.52-0.637 0.054-0.269 0.015-0.523-0.122-0.762-0.16-0.238-0.386-0.398-0.679-0.48-0.266-0.051-0.531-0.012-0.801 0.121-0.238 0.16-0.398 0.371-0.477 0.641-0.082 0.265-0.043 0.519 0.118 0.757 0.132 0.243 0.347 0.403 0.64 0.481 0.293 0.055 0.559 0.016 0.801-0.121z" inkscape:connector-curvature="0"/>
      <g id="g222">
        <g id="g238" mask="url(#mask230)">
          <g id="g266">
            <g id="g268" clip-path="url(#clipPath242)">
              <g id="g270" transform="translate(0 -.11230)">
                <g id="g274">
                  <g id="g276" clip-path="url(#clipPath246)">
                    <g id="g278">
                      <g id="g280">
                        <g id="g282">
                          <g id="g284">
                            <path id="path286" style="fill-rule:evenodd;fill:url(#linearGradient254)" d="m24.188 51.07v-0.32c-0.028-1.785-0.907-3.293-2.641-4.52-1.735-1.199-3.801-1.773-6.199-1.718-1.653 0.027-3.172 0.386-4.563 1.078-1.332 0.695-2.359 1.586-3.078 2.68 1.602-1.094 3.481-1.68 5.641-1.758 2.398-0.055 4.464 0.519 6.199 1.718 1.734 1.227 2.613 2.735 2.641 4.52v0.359c-0.055 0.961-0.336 1.817-0.84 2.563 1.812-1.254 2.757-2.785 2.84-4.602z" inkscape:connector-curvature="0"/>
                          </g>
                        </g>
                      </g>
                    </g>
                  </g>
                </g>
              </g>
            </g>
          </g>
        </g>
      </g>
    </g>
  </g>
<metadata><rdf:RDF><cc:Work><dc:format>image/svg+xml</dc:format><dc:type rdf:resource="http://purl.org/dc/dcmitype/StillImage"/><cc:license rdf:resource="http://creativecommons.org/licenses/publicdomain/"/><dc:publisher><cc:Agent rdf:about="http://openclipart.org/"><dc:title>Openclipart</dc:title></cc:Agent></dc:publisher></cc:Work><cc:License rdf:about="http://creativecommons.org/licenses/publicdomain/"><cc:permits rdf:resource="http://creativecommons.org/ns#Reproduction"/><cc:permits rdf:resource="http://creativecommons.org/ns#Distribution"/><cc:permits rdf:resource="http://creativecommons.org/ns#DerivativeWorks"/></cc:License></rdf:RDF></metadata></svg>
