<?xml version="1.0" standalone="no"?>
<!DOCTYPE svg PUBLIC "-//W3C//DTD SVG 20010904//EN"
 "http://www.w3.org/TR/2001/REC-SVG-20010904/DTD/svg10.dtd">
<svg version="1.0" xmlns="http://www.w3.org/2000/svg"
 width="666.000000pt" height="1280.000000pt" viewBox="0 0 666.000000 1280.000000"
 preserveAspectRatio="xMidYMid meet">
<metadata>
Created by potrace 1.15, written by Peter Selinger 2001-2017
</metadata>
<g transform="translate(0.000000,1280.000000) scale(0.100000,-0.100000)"
fill="#000000" stroke="none">
<path d="M4297 12786 c-49 -18 -67 -34 -84 -75 -23 -53 0 -61 32 -12 47 71
133 80 178 20 27 -37 15 -63 -39 -89 -38 -19 -49 -20 -74 -10 -37 15 -61 7
-107 -36 -20 -19 -47 -37 -60 -40 -59 -15 -143 27 -143 72 0 37 71 84 127 84
51 0 56 13 11 29 -30 11 -40 8 -98 -22 -50 -26 -69 -42 -84 -72 -17 -34 -18
-41 -5 -64 13 -24 64 -64 92 -74 16 -6 -39 -119 -86 -174 -19 -24 -37 -48 -40
-55 -2 -7 -8 -10 -12 -6 -4 4 0 25 9 48 30 76 16 108 -61 136 -82 29 -169 6
-194 -50 -8 -18 -22 -26 -53 -30 -23 -4 -56 -15 -74 -26 -35 -22 -92 -103 -92
-132 0 -10 16 -36 36 -57 l35 -40 -15 -44 c-29 -87 23 -164 117 -174 58 -7 98
15 131 72 15 25 29 45 33 45 10 0 73 -41 73 -48 0 -4 -16 -20 -36 -36 -88 -70
-98 -164 -25 -230 17 -16 31 -18 83 -13 l63 6 17 -39 c18 -44 61 -75 116 -84
l37 -5 0 -86 c0 -70 -3 -84 -15 -81 -8 3 -31 7 -50 11 -69 13 -67 11 -74 86
-5 48 -13 76 -26 89 -22 22 -81 40 -132 40 -28 0 -38 4 -38 16 0 33 -63 81
-123 94 -68 14 -111 3 -150 -38 -30 -31 -52 -109 -44 -151 5 -25 1 -33 -29
-56 -50 -39 -74 -82 -74 -135 0 -48 17 -76 61 -104 24 -15 35 -15 94 -5 66 11
67 11 94 -15 38 -36 113 -59 149 -45 53 20 91 58 102 102 14 51 33 67 79 66
34 0 123 -30 166 -56 18 -11 19 -14 7 -45 -36 -89 -37 -106 -6 -151 38 -53 84
-84 139 -92 55 -9 78 -1 112 36 27 29 30 30 89 24 110 -11 162 26 173 125 9
75 21 89 55 66 31 -20 31 -25 7 -95 -23 -66 -17 -89 41 -148 23 -23 38 -48 35
-55 -3 -8 -40 -29 -82 -47 l-77 -32 -58 55 c-68 65 -95 74 -141 50 -23 -12
-51 -17 -85 -15 -45 2 -57 -2 -95 -31 -24 -19 -55 -50 -68 -71 -18 -27 -31
-37 -51 -37 -36 0 -40 7 -26 41 8 19 10 48 6 81 -6 44 -13 57 -52 94 -56 53
-88 62 -136 40 -35 -17 -35 -17 -66 12 -57 54 -70 56 -127 25 -28 -15 -59 -38
-70 -51 -25 -32 -42 -97 -34 -132 5 -22 -1 -38 -24 -71 -43 -59 -41 -89 14
-145 l44 -47 60 6 c46 5 62 3 72 -9 35 -42 156 -73 212 -55 45 15 48 20 56 90
l6 56 48 3 c57 4 66 -10 43 -68 -20 -50 -20 -73 -1 -114 32 -66 136 -95 218
-61 21 8 67 15 106 15 84 0 109 10 139 55 26 41 31 41 103 16 30 -10 92 -22
137 -26 45 -4 84 -10 86 -14 10 -15 46 -211 46 -245 0 -33 -4 -38 -49 -60 -26
-14 -97 -62 -157 -107 -138 -104 -181 -124 -232 -110 -20 6 -53 11 -72 11 -29
0 -45 10 -90 55 -74 74 -98 78 -187 29 -37 -21 -79 -46 -92 -56 -24 -19 -25
-19 -44 12 -13 21 -19 50 -20 97 l-2 68 70 36 c147 75 170 189 39 189 -41 0
-63 -8 -117 -40 -57 -35 -70 -39 -89 -29 -64 34 -179 -13 -234 -96 -12 -18
-14 -37 -10 -72 l7 -48 -57 -45 c-66 -53 -104 -104 -104 -142 0 -32 32 -58 73
-58 39 0 138 54 197 107 26 24 53 43 59 43 6 0 38 -13 69 -29 54 -27 132 -99
132 -120 0 -5 -18 -23 -39 -40 -30 -24 -42 -42 -51 -80 -13 -57 -9 -79 27
-121 l25 -30 -21 -34 c-27 -43 -28 -118 -2 -167 l19 -35 -42 -51 c-105 -126
-111 -221 -18 -260 50 -21 111 -12 169 25 42 26 57 30 123 30 47 0 91 6 117
17 l42 17 99 -51 c112 -58 196 -129 271 -229 28 -37 60 -79 72 -94 24 -30 28
-92 8 -157 -15 -51 -36 -54 -194 -31 -66 10 -207 21 -313 24 l-193 7 -137 75
c-122 67 -142 75 -179 71 -24 -3 -55 -12 -69 -22 -23 -15 -26 -22 -21 -56 17
-125 142 -165 427 -134 157 16 239 15 468 -10 61 -7 162 -61 162 -87 0 -4 -33
-8 -74 -8 -73 0 -74 0 -110 -40 -49 -55 -50 -99 -1 -162 35 -44 35 -45 20 -81
-22 -54 -19 -140 7 -186 l21 -37 -27 -110 c-15 -60 -31 -116 -36 -124 -13 -21
-30 -2 -107 114 -92 138 -120 223 -139 406 -21 214 -38 260 -97 260 -27 0 -72
-35 -96 -74 -43 -68 -19 -144 77 -250 47 -52 68 -85 92 -149 17 -45 53 -116
80 -157 26 -41 73 -121 104 -178 l57 -104 -30 -106 c-17 -59 -44 -160 -60
-226 -28 -110 -41 -148 -41 -116 0 8 -5 77 -11 154 -8 109 -18 168 -45 260
-42 141 -40 139 -117 240 -93 123 -182 211 -305 305 -182 137 -192 142 -192
75 0 -71 49 -265 94 -372 52 -122 106 -213 230 -387 158 -223 201 -333 227
-582 l11 -113 -27 -55 c-15 -31 -31 -55 -36 -53 -5 2 -32 68 -59 147 -27 79
-68 175 -90 215 -22 39 -60 112 -84 162 -24 51 -50 95 -56 99 -27 17 -50 -29
-60 -120 -6 -50 -15 -114 -21 -143 -8 -39 -8 -87 0 -170 6 -65 15 -202 21
-307 6 -104 17 -277 26 -383 l14 -194 -86 -196 c-47 -108 -106 -246 -129 -307
-109 -280 -359 -785 -509 -1027 -53 -86 -104 -162 -112 -169 -23 -19 -38 -6
-133 112 -46 57 -125 149 -175 204 -50 55 -101 113 -113 128 -17 21 -29 28
-50 25 -37 -4 -36 -18 22 -238 63 -243 116 -408 169 -524 27 -59 42 -105 37
-115 -3 -9 -23 -47 -42 -86 -20 -38 -51 -113 -69 -165 -18 -52 -36 -99 -40
-103 -29 -32 -259 384 -443 803 -96 216 -119 289 -106 334 11 39 88 126 190
213 139 120 173 155 226 233 72 107 181 309 269 500 64 138 89 181 154 260
130 160 184 251 248 421 22 57 49 122 61 145 20 39 20 74 0 74 -5 0 -46 -24
-92 -54 -100 -65 -277 -244 -332 -336 -54 -91 -89 -133 -260 -310 -100 -103
-175 -192 -224 -265 -76 -110 -279 -505 -321 -622 -13 -35 -25 -63 -27 -63 -2
0 -31 55 -63 123 -59 122 -238 644 -261 759 -10 52 -10 60 10 91 38 62 154
160 267 226 304 176 429 277 768 616 144 144 291 283 329 309 100 71 95 76
-70 51 -125 -19 -169 -34 -368 -128 -285 -135 -441 -229 -632 -382 -130 -104
-200 -188 -312 -377 -51 -85 -67 -105 -78 -97 -29 25 -64 176 -103 454 -12 82
-23 153 -26 156 -2 3 13 21 32 40 34 33 38 34 102 32 37 -2 137 -4 222 -5 141
-2 159 0 195 19 139 73 186 253 66 253 -47 0 -66 -13 -166 -109 -114 -111
-131 -118 -227 -97 -66 14 -79 14 -136 1 -35 -8 -72 -20 -83 -25 -16 -9 -21
-7 -28 12 -12 34 -31 182 -31 249 l0 59 89 97 c81 89 124 152 234 345 l27 47
63 -38 62 -38 -4 -67 c-3 -60 0 -70 20 -93 13 -14 35 -31 49 -38 38 -19 121
-25 160 -12 29 10 38 21 57 67 12 30 28 58 35 62 7 3 39 18 71 33 60 28 97 70
97 111 0 12 -13 41 -30 65 -16 24 -30 52 -30 61 0 54 -24 119 -57 157 l-36 42
27 28 c42 44 29 127 -26 165 -26 19 -95 21 -149 5 -36 -11 -40 -10 -67 19 -37
40 -69 52 -135 52 -58 0 -108 -24 -128 -61 -6 -13 -14 -45 -18 -73 -5 -43 -10
-52 -28 -54 -29 -4 -50 37 -62 122 -20 137 -85 198 -187 173 l-32 -8 -7 69
c-4 38 -10 106 -14 153 l-7 84 39 42 c22 24 47 43 56 43 28 0 92 -61 111 -106
23 -52 47 -69 122 -84 44 -9 62 -18 78 -40 41 -58 156 -77 238 -40 l43 20 -2
62 c-2 59 1 68 40 128 49 75 50 104 6 188 -13 26 -27 64 -30 85 -4 22 -19 52
-37 73 -30 34 -33 35 -94 33 -60 -2 -65 0 -110 36 -82 68 -166 57 -210 -27
-20 -39 -20 -102 -1 -132 19 -28 13 -35 -47 -60 -61 -26 -76 -20 -148 59 -84
91 -86 110 -25 186 41 52 42 55 43 129 1 61 6 84 27 124 20 36 27 64 27 103 0
48 2 53 25 59 14 3 42 3 63 0 77 -14 74 -11 66 -85 -6 -61 -4 -70 17 -95 14
-15 48 -35 79 -45 48 -16 58 -23 78 -64 25 -49 56 -67 147 -87 57 -13 129 4
150 33 8 12 15 44 15 71 0 44 4 54 44 96 63 67 69 106 27 185 -17 33 -32 71
-32 85 1 33 -31 100 -58 124 -11 11 -21 22 -21 25 0 4 16 37 36 75 40 75 47
75 82 5 14 -29 23 -34 57 -37 22 -2 63 2 91 8 44 11 54 10 76 -4 35 -23 150
-7 185 25 33 32 57 118 45 163 -9 31 -8 37 13 50 31 20 38 47 25 94 -15 58
-45 90 -98 105 l-47 14 -3 60 c-2 45 -8 65 -22 78 -14 13 -20 31 -20 63 0 92
-48 142 -136 142 -41 0 -51 -5 -87 -40 l-40 -40 -70 7 -70 8 -19 59 c-18 54
-18 61 -4 97 30 74 13 144 -37 151 -19 3 -22 10 -25 50 -4 63 -34 88 -105 88
-38 0 -58 -6 -84 -26 -26 -20 -40 -24 -64 -19 -42 9 -46 29 -15 75 39 59 37
127 -6 175 -32 37 -95 75 -123 75 -9 0 -29 -7 -45 -15 -24 -13 -33 -13 -61 -1
-39 16 -92 6 -123 -23 -13 -12 -33 -44 -47 -72 -22 -49 -23 -52 -6 -81 23 -40
22 -45 -13 -85 -17 -19 -33 -48 -37 -64 -3 -16 -9 -32 -14 -35 -17 -10 -111
47 -127 78 -34 63 -74 99 -119 105 -38 5 -45 2 -90 -39 -38 -36 -58 -47 -96
-52 -69 -10 -102 -44 -133 -136 -24 -73 -25 -75 -6 -100 10 -14 38 -31 60 -38
47 -16 53 -28 19 -41 -13 -5 -36 -24 -50 -41 -32 -37 -36 -94 -11 -141 8 -17
13 -33 11 -36 -3 -2 -29 11 -59 31 -69 47 -100 47 -174 -3 -33 -21 -84 -46
-114 -56 -61 -20 -85 -37 -106 -77 -22 -43 -17 -71 22 -117 35 -40 36 -44 29
-96 -11 -93 35 -142 152 -161 59 -9 91 2 113 39 17 28 28 33 87 44 37 7 75 20
85 30 9 10 24 45 33 78 24 94 49 103 141 54 40 -20 62 -40 71 -60 20 -48 61
-95 121 -140 97 -73 95 -66 61 -162 -20 -59 -29 -101 -29 -150 l0 -67 -50 -31
c-61 -38 -70 -53 -70 -120 0 -43 -6 -59 -34 -98 -18 -25 -42 -72 -52 -104 -17
-54 -17 -59 -1 -92 9 -20 17 -37 17 -39 0 -15 -299 100 -325 125 -6 6 -3 22 9
44 38 70 -8 167 -87 182 -42 9 -42 9 -48 59 -4 27 -13 60 -20 72 -16 26 -65
42 -126 42 -38 0 -46 -5 -80 -45 -36 -44 -39 -45 -95 -45 -96 0 -167 -40 -189
-107 -14 -44 5 -75 64 -101 l44 -20 5 -65 c4 -42 14 -80 27 -102 11 -20 21
-38 21 -39 0 -2 -18 -6 -39 -10 -74 -12 -140 -95 -141 -178 0 -31 6 -42 35
-63 34 -27 34 -27 18 -58 -22 -43 -20 -103 4 -135 28 -38 68 -55 139 -60 54
-4 65 -1 109 27 41 26 59 31 112 31 100 0 163 40 163 104 0 14 4 27 8 30 4 2
53 -16 107 -41 55 -25 129 -54 165 -65 96 -30 158 -58 165 -75 7 -20 10 -18
-58 -47 -60 -27 -60 -27 -71 17 -5 22 -19 34 -59 53 -95 44 -115 34 -191 -88
-9 -16 -25 -28 -35 -28 -43 0 -132 -44 -166 -81 -58 -64 -59 -106 -3 -135 46
-24 103 -21 141 6 18 13 44 32 58 43 44 32 94 11 175 -76 56 -59 78 -93 113
-172 25 -55 56 -117 69 -139 13 -21 30 -55 37 -75 7 -20 27 -66 45 -101 30
-59 32 -69 28 -151 -3 -79 -6 -91 -28 -114 -45 -44 -119 -62 -293 -70 -114 -5
-161 -4 -171 5 -8 6 -18 30 -21 53 -9 52 -56 101 -110 116 -53 14 -69 14 -112
-4 -33 -14 -38 -14 -54 1 -25 22 -110 30 -149 14 -39 -16 -61 -58 -67 -131 -5
-51 -3 -61 21 -92 27 -35 27 -36 11 -83 -20 -59 -8 -100 41 -144 39 -34 77
-38 142 -16 22 8 78 18 124 21 45 4 97 13 115 20 42 18 67 66 60 121 -2 24 0
47 6 53 7 7 87 11 228 11 174 0 220 -3 232 -14 9 -10 16 -51 20 -133 9 -161
20 -237 77 -523 60 -304 64 -330 52 -330 -5 0 -35 11 -67 25 -31 14 -103 33
-159 41 -292 45 -378 92 -462 255 -39 76 -51 91 -88 108 -23 12 -50 21 -60 21
-26 0 -73 -27 -90 -52 -37 -53 -7 -163 56 -211 39 -29 181 -82 256 -97 30 -5
95 -21 145 -35 51 -13 148 -34 216 -45 137 -22 194 -45 250 -99 37 -35 39 -40
70 -201 17 -91 43 -214 56 -275 39 -171 41 -201 19 -213 -30 -15 -255 -89
-291 -96 -28 -5 -44 4 -140 78 -168 129 -220 160 -340 205 -116 43 -215 55
-240 30 -24 -24 26 -84 132 -163 54 -40 178 -183 170 -197 -3 -4 -69 -28 -146
-53 -171 -56 -254 -94 -316 -147 -27 -23 -58 -50 -71 -60 -36 -31 -85 -114
-152 -262 -52 -115 -61 -144 -56 -172 4 -19 9 -35 12 -35 18 0 50 29 108 99
69 82 119 121 246 189 41 22 98 54 126 72 62 38 366 170 411 177 64 11 132
-56 336 -327 160 -214 315 -354 515 -467 211 -119 193 -97 292 -337 73 -177
140 -312 231 -468 38 -64 69 -119 69 -123 0 -10 -42 16 -105 64 -135 103 -315
308 -462 526 -112 165 -141 197 -236 254 -80 48 -105 68 -324 260 -114 100
-183 139 -323 182 -67 21 -95 23 -250 23 -179 -1 -359 -10 -368 -18 -11 -12
10 -54 33 -64 14 -7 71 -23 127 -37 117 -29 247 -93 365 -181 74 -55 359 -333
578 -564 90 -94 127 -123 362 -282 370 -251 445 -292 641 -349 40 -12 79 -27
86 -34 19 -20 40 -283 33 -418 -11 -215 -121 -778 -199 -1017 -33 -102 -242
-583 -318 -731 -81 -159 -230 -423 -251 -444 -19 -19 -19 -19 -19 15 0 43 24
273 41 395 12 89 11 93 -30 305 -56 288 -127 510 -225 706 -42 82 -96 176
-122 209 -117 153 -239 375 -282 515 -33 106 -117 304 -156 363 -48 75 -196
237 -292 319 -44 37 -124 98 -179 137 -270 189 -265 186 -283 174 -26 -16 -20
-71 22 -222 49 -174 121 -348 225 -546 96 -183 147 -262 256 -395 43 -52 105
-131 138 -175 34 -44 78 -100 99 -124 93 -107 146 -202 197 -351 56 -165 97
-262 210 -492 90 -185 159 -369 190 -508 32 -147 63 -389 59 -456 -4 -65 -8
-73 -156 -289 -40 -59 -71 -112 -69 -118 9 -29 31 -10 90 80 36 54 92 133 126
177 51 65 61 85 61 117 0 27 4 39 14 39 8 0 18 -5 21 -10 11 -18 41 -11 65 15
12 13 37 52 54 87 17 35 91 173 163 308 73 135 161 315 196 400 36 85 81 189
101 231 20 42 36 81 36 88 0 6 9 29 20 51 64 125 160 494 195 750 8 63 22 153
30 200 24 141 45 363 45 470 0 168 -35 244 -263 573 -36 50 -83 128 -105 172
-56 112 -182 399 -182 413 0 7 -8 29 -19 50 -10 20 -21 56 -24 79 -3 25 -24
73 -51 117 -61 101 -142 278 -231 505 -106 272 -103 261 -83 275 55 40 41 127
-32 197 -41 40 -53 60 -75 130 -28 90 -96 419 -115 559 -6 47 -20 123 -30 170
-62 276 -101 516 -115 720 -10 137 -21 223 -30 240 -13 25 -12 32 5 66 11 22
22 50 25 64 8 41 20 53 45 45 29 -9 46 -54 54 -145 4 -41 13 -133 21 -205 8
-71 26 -236 40 -365 14 -129 30 -255 36 -280 6 -25 21 -96 34 -158 13 -63 55
-211 94 -330 38 -120 89 -289 112 -377 68 -260 106 -379 191 -593 84 -213 113
-272 153 -316 41 -45 56 -32 74 62 7 34 23 92 36 127 39 104 234 485 279 546
22 31 61 84 85 118 24 33 83 98 130 143 190 183 238 236 292 329 56 96 163
216 248 277 57 41 65 41 56 -5 -13 -72 -71 -189 -164 -328 -114 -170 -136
-197 -280 -350 -182 -192 -239 -265 -412 -532 -326 -502 -299 -446 -279 -568
15 -95 67 -214 269 -625 228 -463 273 -530 354 -530 25 0 57 28 57 49 0 21 51
194 67 228 20 43 38 47 90 22 54 -26 54 -30 -6 -172 -22 -54 -50 -133 -60
-175 -45 -176 -93 -423 -107 -546 -27 -239 -60 -386 -139 -623 -30 -89 -55
-171 -55 -183 0 -33 37 -25 172 39 169 81 290 164 383 264 86 92 343 469 400
588 41 85 41 99 -6 216 -16 40 -29 80 -29 89 0 31 19 1 56 -86 20 -50 41 -93
45 -95 4 -3 21 6 37 20 36 30 38 31 45 3 5 -18 8 -19 22 -8 9 8 43 53 76 101
84 122 206 267 385 454 279 292 321 360 379 616 34 146 63 253 122 449 30 102
70 183 86 177 22 -7 119 -223 134 -298 6 -31 -8 -55 -83 -150 -55 -69 -129
-185 -145 -226 -20 -53 30 -83 67 -42 10 12 39 30 64 41 25 11 78 52 121 94
42 41 81 74 87 74 16 0 72 -50 72 -64 0 -15 -71 -82 -136 -129 -55 -39 -134
-120 -153 -156 -15 -28 -8 -51 16 -51 48 0 194 -132 277 -250 29 -41 74 -111
101 -155 27 -44 83 -128 124 -188 146 -208 98 -88 -62 155 -27 40 -74 115
-105 165 -31 51 -98 137 -149 192 -51 54 -90 101 -87 103 9 10 139 -22 164
-40 14 -10 32 -33 42 -51 22 -45 45 -68 90 -93 24 -14 41 -32 45 -48 9 -37 30
-76 69 -127 68 -89 108 -197 149 -403 14 -69 37 -171 51 -228 14 -56 24 -107
22 -113 -2 -5 -24 18 -50 53 -25 35 -95 115 -154 178 -183 195 -264 306 -356
485 -130 256 -220 378 -277 378 -37 0 -161 -80 -268 -175 -100 -88 -256 -259
-328 -359 -85 -119 -219 -291 -245 -314 -12 -11 -38 -42 -58 -70 -20 -27 -74
-93 -120 -144 -167 -189 -232 -359 -98 -254 115 89 766 399 1031 490 86 29
419 113 451 113 17 0 25 -7 30 -25 10 -41 -1 -53 -63 -65 -144 -28 -307 -75
-466 -134 -95 -36 -263 -96 -374 -135 -239 -82 -354 -136 -495 -229 -56 -38
-130 -86 -163 -107 -93 -59 -151 -111 -221 -201 -120 -153 -253 -260 -439
-352 -130 -63 -232 -128 -220 -140 2 -2 33 -6 68 -7 44 -1 76 -9 104 -24 37
-21 70 -58 60 -67 -2 -3 -42 9 -88 27 -66 24 -94 30 -131 25 -63 -7 -87 -21
-144 -87 -53 -62 -90 -131 -184 -344 -125 -285 -157 -345 -360 -690 -26 -44
-69 -123 -95 -175 -26 -52 -72 -139 -102 -192 -53 -94 -63 -136 -36 -145 24
-8 66 54 147 217 74 149 241 443 392 692 73 118 185 353 234 486 41 111 62
141 117 167 30 14 42 15 86 5 29 -7 75 -23 102 -35 28 -12 57 -25 67 -28 9 -3
23 -29 32 -61 26 -88 53 -146 111 -231 101 -152 177 -280 200 -340 13 -33 40
-96 59 -141 46 -104 70 -203 96 -393 25 -191 25 -229 -1 -381 -18 -109 -19
-124 -6 -138 9 -8 22 -12 31 -9 22 9 147 273 204 432 41 114 53 165 66 270 25
206 18 394 -20 507 -8 26 -38 82 -65 123 -27 41 -57 92 -68 114 -45 87 -171
240 -272 329 -112 99 -206 155 -288 173 -28 6 -49 14 -46 19 2 4 45 31 94 60
127 75 241 168 308 252 118 148 197 222 286 266 149 74 202 91 413 133 374 72
510 107 724 185 113 41 241 90 285 109 116 49 250 88 279 81 28 -7 96 -84 205
-232 78 -107 106 -133 124 -115 7 7 4 25 -10 58 -24 55 -73 277 -73 327 0 19
4 37 9 40 12 8 231 52 351 71 58 9 107 18 109 20 11 11 -18 27 -82 45 -40 12
-103 34 -142 50 -40 16 -118 36 -180 45 -60 9 -119 23 -131 30 -19 12 -44 73
-44 108 0 13 9 11 52 -11 39 -20 66 -27 111 -27 56 0 61 2 92 38 18 20 41 37
52 37 31 0 140 59 163 87 27 34 25 69 -5 118 -35 57 -32 77 19 119 44 36 46
36 113 30 66 -5 69 -5 106 26 30 26 37 38 37 68 0 21 -10 54 -24 77 l-24 39
24 31 c33 44 32 109 -3 187 l-26 60 29 24 c51 42 265 174 427 264 44 25 82 51
85 58 9 27 -158 10 -568 -59 -138 -23 -175 -36 -270 -98 -81 -53 -101 -51
-113 9 -10 52 -18 63 -71 102 -44 31 -88 36 -140 14 -34 -14 -34 -14 -57 22
-20 30 -33 39 -72 46 -39 8 -47 13 -47 31 0 52 -30 121 -66 151 l-36 31 60
119 c105 210 143 308 152 398 5 44 16 134 24 199 9 64 19 156 22 202 7 81 6
85 -13 85 -11 0 -25 -6 -30 -12 -6 -7 -33 -80 -62 -161 -74 -210 -156 -341
-344 -549 -61 -68 -130 -149 -151 -181 -22 -31 -44 -57 -50 -57 -5 0 -41 18
-79 41 -73 43 -132 58 -163 41 -16 -9 -8 -19 66 -90 l84 -79 -32 -40 c-40 -52
-63 -106 -91 -218 -12 -49 -38 -140 -56 -201 -19 -61 -46 -165 -60 -230 -51
-227 -120 -334 -409 -637 -204 -213 -244 -253 -250 -246 -2 2 -7 90 -10 194
-8 246 -14 295 -32 295 -7 0 -26 -24 -40 -52 -15 -29 -39 -71 -54 -93 -44 -65
-68 -118 -86 -191 -9 -38 -20 -73 -25 -78 -9 -11 -27 24 -79 153 -53 133 -99
225 -172 340 -51 79 -58 97 -50 115 5 12 55 103 109 202 55 98 118 220 142
271 40 87 175 335 246 454 19 30 58 116 88 190 79 197 113 267 150 313 53 66
155 238 194 327 23 54 42 121 54 193 15 88 25 118 48 152 69 95 255 575 302
776 12 51 30 107 40 124 26 43 108 118 155 142 108 55 113 55 524 62 384 7
385 7 463 34 284 98 442 210 510 362 16 36 17 45 5 67 l-13 26 -70 -45 c-99
-64 -155 -92 -270 -132 l-100 -35 -325 -8 c-179 -5 -351 -13 -383 -18 -94 -16
-273 -108 -351 -180 -36 -34 -70 -61 -75 -61 -6 0 -4 20 5 48 8 26 31 104 52
174 43 148 32 139 192 164 88 14 125 26 231 75 69 32 132 59 140 59 8 0 25 10
39 21 56 46 144 99 165 99 12 0 39 -13 61 -30 46 -35 84 -38 110 -9 14 16 20
40 23 100 3 78 4 80 35 96 86 45 242 57 329 26 47 -17 49 -17 63 2 20 27 17
94 -5 131 -22 37 -96 99 -134 113 -67 26 -379 -44 -473 -106 -31 -20 -45 -11
-134 82 -59 60 -182 156 -310 242 -26 17 -50 36 -53 40 -4 5 0 68 8 139 8 71
15 132 15 136 0 4 18 17 40 28 21 11 86 62 143 113 129 114 179 150 200 141
25 -9 20 -28 -14 -53 -95 -71 -89 -194 14 -244 37 -19 40 -24 52 -101 4 -23
18 -50 34 -67 32 -31 98 -53 135 -43 34 8 95 77 103 114 7 35 16 44 68 60 59
19 91 45 109 90 26 66 21 95 -24 144 l-41 44 29 20 c27 20 31 20 72 6 57 -20
101 -11 145 28 32 28 35 34 35 88 0 69 -13 109 -43 132 -20 15 -20 19 -9 66
11 42 11 55 -4 91 -10 27 -26 46 -41 52 -34 13 -127 11 -157 -2 -23 -11 -30
-7 -77 35 -59 53 -91 58 -146 25 -42 -26 -61 -62 -69 -134 -8 -68 3 -92 57
-125 21 -14 39 -28 39 -31 0 -8 -56 -29 -77 -29 -8 0 -57 -16 -109 -36 l-96
-36 -25 24 c-13 12 -45 54 -70 93 -65 100 -117 159 -175 201 l-50 37 5 51 c11
98 23 123 62 130 22 4 53 24 81 50 35 33 57 46 90 51 31 4 58 18 90 46 28 24
55 39 72 39 15 0 79 14 142 30 135 35 202 38 248 10 31 -19 32 -22 32 -88 0
-62 3 -71 28 -94 38 -36 59 -45 122 -52 75 -9 115 12 157 83 21 35 49 65 76
82 56 35 97 84 97 116 0 37 -37 91 -81 119 -22 13 -39 31 -39 38 0 23 -49 75
-91 96 -59 31 -86 26 -134 -23 -39 -38 -47 -42 -83 -39 -24 2 -52 -3 -71 -12
-35 -19 -91 -90 -91 -116 0 -29 -84 -52 -231 -66 l-77 -7 -20 46 c-23 51 -38
62 -103 71 l-47 7 -6 51 c-14 101 -43 131 -135 138 l-66 5 -22 100 c-13 55
-25 112 -29 127 -5 21 -1 29 18 42 56 37 278 74 278 46 0 -5 -9 -24 -20 -42
-20 -34 -26 -74 -12 -94 20 -32 87 -64 131 -64 45 0 47 -1 60 -37 45 -128 180
-136 276 -18 25 30 58 55 90 70 71 32 99 65 91 107 -13 67 -66 118 -121 118
-32 0 -35 8 -22 63 9 42 8 51 -9 74 -44 59 -135 79 -212 48 -59 -25 -82 -53
-82 -99 0 -65 -7 -70 -89 -62 -79 8 -248 -8 -330 -30 -29 -9 -60 -13 -67 -10
-19 7 -16 52 4 99 l17 39 67 1 c74 2 97 16 129 79 44 86 14 194 -63 230 -37
18 -37 18 -31 66 4 34 1 58 -11 80 -21 42 -21 42 20 42 l36 0 -7 -40 c-10 -60
25 -126 79 -151 77 -35 142 -16 185 55 17 27 33 38 64 46 80 19 91 25 114 59
29 44 29 76 -2 137 -29 57 -30 65 -10 104 11 22 23 30 43 30 38 1 108 34 121
58 27 51 0 129 -58 164 -20 12 -37 23 -39 24 -2 1 4 16 12 33 35 67 12 132
-60 166 -50 23 -100 8 -147 -44 -35 -39 -37 -40 -101 -38 -96 3 -121 -21 -182
-170 -15 -37 -21 -43 -60 -51 -54 -12 -167 -76 -271 -153 -43 -33 -84 -59 -91
-59 -12 0 -62 97 -62 120 0 6 21 8 54 4 63 -8 121 9 137 38 6 11 9 43 7 72 -3
45 1 57 28 91 69 88 71 122 14 194 -53 67 -91 87 -140 72 -21 -6 -42 -11 -48
-11 -21 0 -21 33 0 63 29 43 47 57 75 57 13 0 23 5 23 11 0 18 -63 100 -74 96
-6 -2 -13 -22 -17 -44 -6 -47 -52 -113 -77 -113 -25 0 -79 35 -92 60 -8 15 -8
29 1 55 7 19 10 37 8 40 -3 3 -27 9 -52 14 -50 9 -77 25 -77 46 0 23 58 63
102 70 68 11 71 19 32 83 -19 31 -34 69 -34 84 0 39 42 68 99 68 43 0 49 -3
84 -48 33 -40 38 -52 33 -82 -7 -44 -37 -84 -64 -88 -47 -7 -62 -74 -20 -87
25 -8 48 11 48 41 0 30 10 35 71 36 48 1 54 -1 90 -40 22 -23 39 -51 39 -64 0
-28 -35 -88 -51 -88 -7 0 -9 -12 -4 -36 11 -59 25 -81 66 -100 52 -23 97 -9
165 50 27 24 66 51 86 59 24 10 45 30 63 61 l27 46 -31 66 c-18 39 -31 83 -31
105 0 56 -21 98 -69 142 -48 43 -59 45 -117 15 -42 -21 -44 -21 -64 -3 -30 27
-105 25 -133 -4 l-22 -21 47 1 c58 3 73 -9 104 -79 20 -46 26 -53 39 -42 8 7
15 22 15 34 0 33 37 86 60 86 24 0 53 -27 75 -70 23 -45 16 -72 -22 -89 -44
-20 -41 -38 8 -53 67 -19 101 -95 61 -131 -27 -24 -51 -21 -62 8 -12 31 -17
31 -47 -2 -21 -21 -23 -30 -14 -49 12 -28 -13 -65 -58 -84 -36 -15 -54 -9 -75
22 -14 22 -14 28 9 83 34 83 32 104 -15 164 -33 41 -48 52 -80 57 l-40 7 0 55
c0 50 -4 61 -42 110 l-42 55 -75 -7 c-72 -6 -111 -21 -139 -55 -9 -12 -11 -38
-7 -92 l5 -76 -41 -28 c-91 -64 -104 -118 -39 -161 46 -30 44 -39 -17 -94 -21
-19 -46 -46 -56 -60 -11 -15 -20 -21 -26 -15 -17 17 -81 213 -75 229 6 16 -73
116 -92 116 -6 0 -21 -25 -33 -55 -20 -48 -28 -56 -61 -66 -63 -19 -120 7
-120 55 0 46 122 132 176 123 25 -4 37 0 54 18 18 19 29 23 54 18 58 -11 95
-31 111 -62 14 -28 14 -34 0 -61 -8 -16 -15 -38 -15 -50 0 -17 3 -19 19 -10
11 5 29 26 41 45 29 47 20 87 -33 135 l-41 38 27 32 c32 38 34 62 6 106 -39
64 -90 79 -172 50z m-449 -393 c42 -31 39 -50 -13 -99 -40 -37 -46 -46 -35
-59 7 -8 19 -15 27 -15 29 0 73 -31 79 -56 5 -20 0 -33 -27 -60 -35 -36 -49
-40 -80 -24 -14 8 -17 15 -11 28 11 22 -4 82 -21 82 -34 0 -50 -57 -23 -79 12
-10 9 -23 -17 -83 -36 -79 -63 -104 -103 -94 -43 11 -84 59 -84 99 0 40 17 57
80 80 42 16 79 52 65 65 -3 3 -28 -2 -55 -12 -49 -18 -50 -17 -83 3 -48 29
-60 61 -38 98 21 33 62 63 88 63 9 0 38 -21 64 -46 31 -31 53 -45 63 -41 22 9
20 18 -9 61 -48 71 -23 121 58 113 27 -2 61 -13 75 -24z m237 -102 c24 -26 27
-36 22 -67 -8 -46 -22 -56 -66 -49 -64 12 -81 23 -81 53 0 26 22 69 44 84 22
15 53 7 81 -21z m161 -16 c17 -27 64 -158 64 -182 0 -9 -13 -1 -33 21 -31 32
-48 40 -102 48 -16 3 -21 12 -23 50 -4 62 10 88 48 88 20 0 35 -8 46 -25z
m299 -151 c-24 -57 -20 -121 10 -156 27 -32 30 -43 15 -53 -16 -10 -77 59 -85
94 -6 29 11 83 41 129 23 35 36 26 19 -14z m-446 -27 c21 -20 22 -28 17 -79
-3 -32 -2 -58 2 -58 4 0 25 5 47 10 49 11 111 -3 125 -30 14 -26 13 -73 -2
-88 -26 -26 -151 -8 -201 29 -37 27 -62 16 -62 -27 0 -27 4 -30 63 -45 34 -9
71 -24 82 -34 43 -39 7 -140 -55 -157 -38 -10 -63 -2 -97 30 -24 22 -28 34
-28 79 0 29 -2 53 -5 53 -3 0 -33 -14 -66 -30 -61 -32 -68 -31 -106 3 -30 27
-32 96 -4 121 29 27 90 45 147 46 32 0 56 5 64 14 9 12 4 19 -30 36 -56 29
-76 73 -51 115 24 42 54 55 99 43 21 -5 48 -20 61 -31z m616 5 l70 -37 3 -56
c2 -41 -1 -59 -13 -69 -8 -7 -15 -20 -15 -29 0 -33 -49 -184 -62 -192 -49 -32
-138 17 -138 75 0 49 50 112 100 127 22 7 40 18 40 25 0 8 -19 23 -42 35 -63
31 -78 48 -78 86 0 34 28 73 53 73 6 0 44 -17 82 -38z m-487 -22 c56 -40 56
-65 2 -57 -49 6 -70 22 -70 52 0 43 14 45 68 5z m725 -42 c31 -24 67 -82 67
-109 0 -43 -33 -76 -85 -83 -24 -4 -47 -11 -50 -17 -4 -5 10 -29 30 -54 32
-38 36 -48 28 -72 -11 -33 -40 -40 -94 -24 -53 16 -63 32 -49 77 7 20 13 68
14 107 2 61 5 71 23 78 13 5 24 20 28 41 13 60 50 84 88 56z m740 -73 c66 -45
45 -105 -54 -155 l-43 -22 -18 22 c-31 38 -15 125 29 160 33 26 41 25 86 -5z
m-216 -92 c12 -8 25 -25 29 -36 4 -12 15 -28 26 -35 18 -13 18 -16 4 -38 -33
-49 -22 -66 49 -76 15 -2 24 -17 34 -55 12 -48 12 -54 -6 -85 -18 -31 -23 -33
-73 -33 -50 0 -56 2 -77 34 -27 39 -30 87 -8 119 14 19 14 24 0 46 -14 21 -20
23 -39 14 -30 -13 -86 14 -86 41 0 32 29 88 56 110 28 22 49 21 91 -6z m-1067
-62 c30 -6 52 -18 67 -38 26 -31 67 -149 58 -163 -4 -6 -21 -10 -38 -11 -18 0
-48 -6 -67 -13 -32 -11 -37 -10 -67 15 -17 15 -54 33 -82 40 -56 14 -58 20
-45 100 5 30 13 40 48 57 46 23 62 25 126 13z m1344 -55 c36 -15 62 -67 50
-99 -8 -22 -57 -37 -91 -28 -32 8 -73 63 -73 96 0 39 57 55 114 31z m-2073
-81 c39 -21 46 -56 20 -99 -30 -48 -12 -55 54 -21 47 23 57 25 93 16 49 -14
62 -29 69 -79 7 -50 -25 -86 -66 -74 -14 4 -48 7 -76 7 -62 0 -66 -17 -10 -49
41 -23 46 -39 30 -103 -8 -32 -59 -56 -101 -48 -43 8 -64 38 -64 92 0 52 -22
58 -48 14 -30 -53 -107 -68 -155 -31 -35 28 -40 51 -21 98 21 54 49 70 125 74
56 3 64 5 64 23 0 14 -13 26 -43 40 -47 22 -57 41 -48 90 13 68 96 91 177 50z
m1703 -22 c3 -4 -12 -26 -35 -49 -40 -41 -44 -42 -88 -37 -40 4 -51 1 -89 -26
-59 -44 -74 -94 -48 -161 5 -11 -7 -20 -45 -33 -28 -10 -71 -37 -95 -59 -47
-43 -45 -44 -64 29 -9 35 -7 50 11 100 12 32 35 73 52 91 31 32 140 102 194
123 49 20 194 35 207 22z m-1084 -66 c38 -19 54 -86 34 -144 -12 -35 -13 -48
-3 -59 10 -12 8 -19 -11 -39 -16 -17 -21 -31 -16 -49 7 -29 37 -49 59 -40 17
6 28 99 13 114 -6 6 -5 24 2 47 6 21 14 47 17 58 7 29 52 74 80 81 35 9 83
-14 100 -47 35 -67 5 -109 -75 -109 -48 0 -70 -13 -70 -41 0 -11 14 -20 44
-28 68 -17 89 -50 83 -129 -6 -77 -17 -92 -71 -92 -53 0 -85 31 -93 89 l-6 42
-23 -22 c-19 -18 -24 -33 -24 -69 0 -57 -29 -100 -66 -100 -61 0 -144 68 -144
119 0 44 42 104 98 140 44 28 52 39 50 60 -2 21 -11 28 -48 38 -46 13 -90 52
-90 79 0 18 27 73 48 97 18 20 75 23 112 4z m1123 -82 l38 -55 83 0 c73 0 85
-3 103 -22 32 -35 36 -71 13 -101 -39 -50 -136 -59 -163 -16 -13 21 -42 25
-53 8 -3 -6 2 -28 11 -50 45 -98 -62 -136 -129 -46 -19 25 -21 48 -14 117 3
23 -1 25 -52 32 -42 5 -60 13 -77 33 -31 36 -30 78 3 104 39 31 74 27 111 -13
58 -61 107 -51 78 16 -13 32 -12 49 4 48 3 -1 23 -25 44 -55z m-743 -77 c11
-24 20 -54 20 -67 0 -23 -2 -24 -51 -18 -29 4 -54 8 -56 11 -3 3 7 20 21 39
14 19 26 44 26 55 0 35 20 25 40 -20z m455 -139 c40 -35 42 -46 19 -113 -14
-42 -23 -51 -61 -68 -57 -25 -78 -21 -80 17 -1 17 -6 42 -12 58 -6 16 -7 36
-2 50 9 24 75 87 91 87 5 0 25 -14 45 -31z m-287 -7 c2 -7 -6 -12 -17 -12 -21
0 -27 11 -14 24 9 9 26 2 31 -12z m63 -113 c58 -46 61 -51 40 -86 -12 -19 -30
-32 -48 -36 -15 -2 -42 -11 -60 -18 -25 -10 -37 -10 -57 -1 -42 19 -90 112
-69 133 17 17 118 48 138 42 11 -3 36 -18 56 -34z m-3136 -62 c35 -34 45 -51
45 -75 0 -41 -28 -69 -77 -77 -21 -3 -46 -8 -55 -10 -23 -4 -30 8 -45 75 -16
76 -16 76 14 105 39 36 66 32 118 -18z m-185 -8 c0 -22 6 -50 13 -62 6 -12 12
-42 12 -66 l0 -45 60 -11 c74 -13 85 -20 85 -49 0 -39 -37 -76 -75 -76 -50 0
-65 9 -82 51 -21 54 -49 53 -56 -1 -7 -53 -22 -70 -61 -70 -45 0 -81 39 -72
76 11 44 59 84 100 84 20 0 36 4 36 9 0 6 -22 28 -49 51 -55 47 -56 57 -9 114
23 29 36 36 64 36 33 0 34 -1 34 -41z m2187 -21 c11 -13 33 -42 48 -66 32 -48
46 -49 57 -5 4 17 14 36 22 42 33 28 111 -43 122 -111 7 -41 -18 -68 -79 -83
-52 -13 -57 -35 -17 -59 36 -21 48 -46 42 -88 -6 -40 -36 -53 -91 -38 -55 15
-91 50 -91 90 0 38 -18 39 -52 0 -30 -34 -62 -38 -98 -13 -59 40 -65 79 -19
117 26 22 40 26 78 24 39 -3 46 0 46 16 0 14 -12 22 -46 32 -58 17 -73 34 -64
74 8 35 69 90 101 90 11 0 30 -10 41 -22z m1459 7 c51 -35 55 -125 9 -171 -35
-35 -93 -33 -130 4 -43 42 -57 69 -50 92 9 29 94 81 145 89 3 1 15 -6 26 -14z
m-227 -117 c7 -18 23 -50 36 -70 32 -48 31 -61 -2 -98 -25 -28 -34 -31 -87
-31 -50 -1 -62 3 -84 25 -21 21 -27 37 -30 89 -5 70 0 78 64 101 66 25 90 21
103 -16z m-3876 -19 c23 -10 38 -32 50 -69 3 -9 -6 -40 -18 -70 -13 -30 -21
-58 -19 -62 11 -17 41 -6 67 23 22 26 32 30 55 25 31 -8 72 -49 72 -74 0 -33
-38 -80 -74 -92 -30 -10 -42 -8 -86 11 -68 29 -81 18 -52 -47 23 -54 18 -83
-18 -101 -29 -14 -74 -7 -117 19 -52 31 -56 67 -17 134 23 39 24 45 9 50 -9 4
-33 -3 -55 -15 -41 -23 -73 -19 -99 13 -11 13 -10 24 4 65 24 72 49 101 90
101 29 0 37 -6 65 -50 50 -78 85 -59 51 28 -21 53 -16 81 21 106 27 19 39 20
71 5z m3357 -27 c45 -44 52 -80 20 -112 -11 -11 -33 -20 -49 -20 -16 0 -37 -8
-46 -17 -16 -16 -16 -17 1 -30 10 -7 37 -13 61 -13 49 0 63 -17 63 -74 0 -41
-28 -76 -60 -76 -20 0 -70 44 -70 61 0 5 -11 9 -24 9 -18 0 -27 -8 -34 -29
-24 -67 -107 -78 -163 -22 -62 62 -42 132 46 161 28 9 49 21 48 26 0 5 -18 15
-39 22 -73 25 -80 44 -33 92 24 24 39 30 63 28 28 -3 31 -7 34 -38 1 -19 7
-47 13 -62 9 -22 7 -31 -11 -56 -30 -40 -24 -76 13 -80 42 -5 70 24 62 63 -4
16 -9 60 -12 96 -4 63 -3 67 23 88 37 29 47 27 94 -17z m-2440 -71 c13 -24 5
-47 -33 -90 -24 -29 -27 -36 -15 -48 12 -12 20 -11 53 2 53 23 85 13 85 -26 0
-65 -100 -121 -154 -85 -19 12 -26 26 -28 58 -4 55 -25 57 -43 5 -7 -21 -16
-41 -19 -44 -3 -3 4 -24 16 -45 19 -34 20 -40 8 -48 -41 -26 -135 3 -146 45
-7 29 10 76 37 101 22 19 16 34 -12 34 -11 0 -29 5 -40 10 -18 10 -18 12 8 50
46 71 103 61 103 -18 0 -26 4 -33 17 -30 12 2 21 20 29 56 16 69 37 92 85 92
28 0 41 -5 49 -19z m3748 -11 c50 -30 40 -98 -19 -132 -49 -29 -35 -38 56 -38
l85 0 29 -40 c35 -48 31 -74 -12 -97 -30 -15 -34 -14 -75 7 -55 30 -71 18 -53
-38 17 -49 4 -76 -45 -97 -91 -38 -119 -29 -144 49 -11 35 -10 42 10 78 16 29
19 43 11 51 -8 8 -22 0 -54 -31 -46 -45 -71 -51 -115 -28 -67 34 -77 85 -25
126 21 16 41 20 112 20 113 0 123 7 88 57 -26 38 -37 109 -20 126 3 4 36 7 72
7 48 0 75 -5 99 -20z m-995 -50 c16 -30 36 -67 44 -82 8 -15 12 -32 8 -38 -9
-14 -88 -12 -170 5 -55 11 -76 21 -97 45 -36 39 -35 56 5 76 44 24 138 53 161
51 12 -1 30 -22 49 -57z m-3346 -57 c18 -3 37 -11 42 -17 5 -6 20 -61 32 -121
26 -126 30 -280 10 -338 -12 -34 -112 -168 -131 -175 -8 -3 -16 18 -45 123 -9
33 -29 80 -45 105 -24 39 -27 52 -23 97 5 49 4 54 -27 83 -18 16 -40 30 -50
30 -48 0 -30 44 23 54 72 14 147 95 147 157 0 16 4 20 18 14 9 -4 32 -9 49
-12z m233 -2 c0 -5 12 -23 26 -40 24 -28 25 -34 14 -67 -7 -20 -9 -53 -6 -76
6 -37 3 -45 -35 -95 -23 -29 -45 -50 -49 -46 -4 4 -11 67 -15 139 l-7 131 27
31 c26 32 45 41 45 23z m3335 -154 c30 -25 69 -160 81 -278 6 -66 6 -69 -17
-77 -55 -21 -66 1 -89 178 -5 41 -16 99 -24 129 -21 76 -3 93 49 48z m-2907
-50 c14 -14 14 -21 2 -57 -12 -35 -12 -43 0 -50 26 -16 -10 -90 -59 -124 -24
-16 -55 -46 -70 -68 -23 -34 -30 -38 -59 -34 -45 7 -92 42 -92 70 0 13 9 35
21 50 25 32 19 42 -31 51 -63 11 -104 82 -66 114 18 15 153 4 183 -15 37 -23
45 -18 38 25 -5 32 -3 41 12 50 24 15 101 7 121 -12z m-1192 -18 c16 -17 42
-37 57 -45 37 -20 131 -20 185 0 51 18 66 14 82 -25 18 -43 -5 -74 -61 -82
-54 -7 -66 -19 -51 -52 30 -65 -5 -135 -67 -135 -35 0 -51 22 -51 69 0 38 -11
39 -54 6 -46 -35 -81 -33 -101 6 -24 45 -16 70 25 84 47 16 52 48 11 69 -56
29 -78 87 -45 120 22 23 37 20 70 -15z m1592 -45 c12 -15 22 -38 22 -55 0 -25
-6 -33 -30 -42 -44 -17 -39 -43 10 -51 47 -7 60 -27 60 -89 0 -81 -56 -120
-115 -81 -35 23 -55 12 -55 -29 0 -27 -5 -36 -26 -46 -22 -10 -32 -8 -75 15
-27 15 -51 36 -55 46 -6 20 19 68 36 68 6 0 10 7 10 15 0 8 -7 15 -16 15 -9 0
-28 12 -44 28 -15 15 -37 34 -49 42 l-22 15 31 48 c40 60 71 69 109 33 37 -35
48 -33 61 12 10 37 40 74 70 85 24 8 53 -3 78 -29z m1632 -38 c-1 -24 -39 -55
-117 -96 -46 -23 -85 -50 -88 -60 -3 -11 -19 -33 -35 -49 -22 -25 -36 -31 -69
-31 -31 0 -41 4 -41 16 0 23 55 71 91 79 23 5 35 17 50 50 23 50 77 95 123
104 40 9 86 2 86 -13z m-3432 -46 c38 -23 65 -79 56 -114 -3 -13 -23 -38 -45
-56 -49 -39 -42 -54 21 -46 81 11 109 -15 90 -84 -13 -47 -33 -60 -94 -60 -38
0 -48 4 -62 25 -9 14 -25 25 -36 25 -18 0 -19 -5 -13 -55 11 -83 -18 -104 -98
-70 -87 36 -103 127 -27 153 52 19 34 52 -29 52 -17 0 -38 11 -55 29 -37 39
-33 77 13 108 44 30 75 29 95 -2 23 -34 33 -31 41 12 10 54 22 73 58 88 42 19
46 18 85 -5z m3153 0 c35 -19 21 -44 -48 -88 -76 -48 -88 -50 -104 -21 -14 28
11 65 67 96 44 26 57 27 85 13z m-2083 -107 c2 -35 9 -56 22 -68 11 -10 20
-21 20 -25 0 -4 -28 -13 -62 -20 -35 -6 -92 -25 -127 -41 -35 -16 -66 -29 -68
-29 -2 0 7 21 22 48 33 60 159 196 177 190 8 -3 14 -24 16 -55z m-522 -36 c51
-89 67 -138 62 -197 -5 -78 -46 -63 -139 53 l-38 48 24 35 c14 20 28 58 31 85
4 27 9 49 13 49 3 0 25 -33 47 -73z m4016 36 c6 -16 17 -42 24 -60 18 -41 18
-49 -8 -94 -17 -30 -19 -42 -10 -51 9 -9 24 -6 66 15 90 46 135 31 121 -40 -4
-20 -15 -54 -25 -74 -32 -63 -70 -65 -135 -9 -52 45 -57 47 -75 25 -11 -13
-10 -22 3 -51 21 -44 21 -63 0 -86 -41 -45 -143 -4 -158 64 -6 27 -3 35 30 65
35 32 37 36 21 51 -14 14 -20 15 -49 3 -67 -28 -84 -26 -123 13 -34 34 -35 38
-22 59 23 34 78 67 113 67 18 0 49 -7 68 -15 20 -8 38 -11 40 -7 3 4 8 30 12
57 9 68 28 95 65 95 24 0 33 -6 42 -27z m953 -38 c19 -20 35 -41 35 -48 0 -7
-11 -29 -25 -49 -47 -69 -20 -102 40 -49 42 37 45 37 79 10 34 -27 35 -71 2
-104 -38 -38 -69 -41 -109 -11 -19 14 -39 26 -45 26 -15 0 -32 33 -32 64 0 32
-27 35 -60 8 -26 -21 -21 -57 11 -67 10 -4 19 -12 19 -20 0 -7 18 -32 40 -55
22 -23 40 -48 40 -55 0 -7 -12 -27 -26 -44 -21 -25 -33 -31 -65 -31 -45 0 -98
19 -117 43 -7 8 -15 31 -19 50 -4 30 0 40 31 74 20 22 36 43 36 47 0 3 -22 6
-48 6 -60 0 -91 28 -95 84 -2 31 3 42 24 58 22 17 29 18 55 7 16 -7 44 -26 62
-41 18 -15 37 -28 42 -28 6 0 10 28 10 62 0 102 49 129 115 63z m-4072 14 c30
-13 47 -48 47 -92 0 -25 -10 -42 -40 -72 -22 -21 -40 -45 -40 -51 0 -24 40
-26 76 -5 47 28 68 26 93 -6 25 -31 20 -55 -18 -96 -24 -26 -30 -28 -96 -25
-65 3 -70 2 -73 -19 -2 -15 5 -25 25 -35 41 -20 43 -60 3 -99 -27 -27 -36 -31
-68 -26 -38 6 -92 54 -92 81 0 7 16 33 35 57 65 82 32 146 -36 70 -38 -42 -56
-49 -90 -31 -15 9 -19 22 -19 69 0 55 2 61 35 90 40 35 62 38 107 15 46 -24
59 -4 30 46 -26 46 -28 86 -5 112 22 24 33 23 33 -4 0 -30 15 -52 29 -44 6 4
11 11 11 16 0 13 19 60 24 60 3 0 16 -5 29 -11z m1584 -91 c13 -12 23 -27 23
-34 0 -20 -79 -82 -126 -100 -111 -42 -94 48 23 125 26 17 49 31 52 31 2 0 15
-10 28 -22z m1157 -15 c-25 -58 -11 -125 35 -167 30 -28 29 -105 -1 -134 -29
-26 -134 -74 -238 -107 -105 -32 -224 -36 -240 -6 -17 33 -12 49 31 88 46 43
79 100 79 138 0 14 9 33 19 42 24 20 298 163 313 163 6 0 7 -7 2 -17z m-2196
-40 c16 -20 22 -39 20 -63 -3 -37 -5 -38 -96 -61 -55 -13 -56 -42 -2 -47 47
-5 60 -18 60 -59 0 -55 -24 -91 -71 -103 -54 -15 -63 -10 -78 39 -15 51 -33
53 -82 5 -26 -25 -48 -37 -77 -41 -41 -5 -41 -5 -63 41 -23 46 -23 46 -3 72
31 42 70 61 94 46 29 -18 40 -15 40 13 0 27 -25 45 -64 45 -15 0 -26 6 -26 14
0 12 44 36 215 118 53 25 103 18 133 -19z m1595 -2 c46 -42 49 -54 27 -105
-17 -41 -23 -46 -50 -46 -43 0 -70 -17 -70 -43 0 -44 35 -58 85 -35 16 7 25
19 25 35 0 12 6 23 13 23 7 0 31 18 52 40 46 47 76 51 119 16 28 -22 29 -25
17 -53 -7 -17 -25 -43 -41 -58 -24 -23 -37 -27 -79 -26 -43 0 -51 -2 -51 -17
0 -10 11 -29 25 -42 17 -16 25 -34 25 -55 0 -36 -33 -85 -57 -85 -32 0 -95 24
-118 46 -22 20 -24 28 -18 73 8 66 -9 67 -60 6 -30 -35 -45 -45 -68 -45 -42 0
-79 39 -79 83 0 52 26 77 95 91 32 6 60 16 62 23 2 6 -12 20 -31 31 -43 26
-56 64 -31 92 10 11 24 20 31 20 7 0 28 13 46 29 53 46 83 47 131 2z m-2487
-49 c8 -5 8 -23 0 -64 l-10 -58 -67 0 c-54 0 -73 -5 -102 -25 -32 -21 -41 -23
-68 -13 -29 10 -30 13 -24 47 14 84 72 121 185 121 41 0 80 -4 86 -8z m-385
-105 c-6 -15 -15 -27 -21 -27 -16 0 -12 37 7 73 l18 32 3 -26 c2 -14 -2 -37
-7 -52z m357 -77 c37 -23 37 -24 15 -103 -13 -49 -23 -63 -50 -80 -44 -25 -38
-41 19 -47 61 -7 78 -23 78 -72 0 -61 -35 -90 -103 -86 -48 3 -53 6 -69 37
-24 49 -34 57 -53 41 -8 -7 -15 -21 -15 -31 0 -31 -26 -48 -62 -39 -81 19
-108 49 -94 104 4 18 19 29 53 42 53 20 64 30 56 51 -4 10 -20 14 -52 13 -25
-2 -52 -2 -58 -1 -15 1 -43 53 -43 79 0 26 50 70 88 78 30 6 37 2 82 -47 27
-29 52 -50 57 -46 4 5 6 24 4 43 -4 55 21 84 72 84 24 0 56 -8 75 -20z m3115
-185 c0 -22 -6 -179 -12 -350 -11 -314 -16 -365 -33 -365 -6 0 -62 45 -126
101 -65 56 -158 126 -208 157 l-92 56 6 61 c3 34 15 81 29 109 27 52 33 129
14 165 -6 11 -11 22 -11 25 0 3 39 6 88 6 75 0 102 6 197 39 140 49 150 49
148 -4z m155 -97 c10 -201 -20 -631 -65 -910 l-17 -108 -42 0 c-53 0 -59 15
-35 83 17 46 20 94 26 392 3 187 10 399 16 470 l9 130 36 34 c52 48 65 31 72
-91z m-3688 103 c0 -6 -4 -13 -10 -16 -5 -3 -10 1 -10 9 0 9 5 16 10 16 6 0
10 -4 10 -9z m2810 -37 c33 -30 38 -40 33 -65 -6 -34 10 -59 39 -59 17 0 20 5
16 30 -5 36 3 39 102 43 62 2 64 1 74 -26 7 -20 6 -39 -5 -70 -14 -42 -14 -42
-64 -42 -104 -1 -129 -38 -42 -63 57 -16 70 -46 43 -97 -22 -41 -64 -65 -113
-65 -50 0 -81 22 -89 65 -9 49 -29 44 -49 -12 -35 -98 -51 -113 -123 -113 -48
0 -62 14 -62 65 1 75 61 165 111 165 33 0 49 12 49 36 0 13 -4 24 -8 24 -4 0
-23 12 -41 28 -35 29 -57 102 -40 133 10 19 86 59 111 59 10 0 36 -16 58 -36z
m-2018 -23 c27 -24 32 -35 32 -77 1 -39 -3 -50 -20 -59 -37 -18 -54 -37 -54
-56 0 -14 7 -19 29 -19 17 0 33 5 36 10 10 16 62 12 69 -6 3 -9 6 -31 6 -51 0
-46 -50 -99 -83 -88 -37 13 -100 11 -104 -2 -3 -7 10 -21 28 -30 52 -29 69
-50 69 -88 0 -40 -20 -55 -76 -55 -53 0 -110 19 -136 47 -20 22 -21 26 -9 56
34 79 3 130 -43 72 -20 -25 -26 -27 -64 -20 -55 9 -77 39 -69 96 7 53 22 69
66 68 49 0 160 -31 192 -52 54 -36 93 23 47 70 -24 24 -28 24 -63 12 -36 -13
-38 -13 -61 15 -20 23 -23 34 -18 64 10 57 27 87 48 84 10 -2 25 3 34 12 10 8
35 16 57 19 22 2 43 4 47 5 4 1 22 -11 40 -27z m3660 -48 c39 -42 47 -65 41
-111 -3 -23 -2 -42 3 -42 5 0 32 25 59 55 l50 56 49 -10 c50 -9 76 -30 76 -61
0 -26 -43 -84 -65 -89 -29 -5 -45 -20 -39 -36 4 -9 26 -15 62 -17 55 -3 58 -4
76 -41 16 -33 17 -45 7 -78 -20 -66 -75 -78 -136 -29 -45 36 -59 37 -80 8 -16
-23 -16 -23 -27 -3 -7 11 -31 41 -56 67 -35 37 -42 51 -37 69 6 19 -3 32 -54
79 -67 63 -73 81 -45 149 25 63 75 77 116 34z m-5292 -38 c16 -8 31 -24 35
-35 9 -28 -10 -86 -40 -121 -20 -24 -23 -34 -14 -45 17 -21 34 -17 82 17 50
35 75 33 101 -5 31 -49 30 -70 -7 -103 -20 -17 -59 -39 -87 -48 l-52 -17 -30
36 c-21 25 -37 36 -52 34 -27 -4 -33 -40 -12 -70 22 -32 20 -55 -9 -83 -67
-67 -185 9 -185 119 0 28 6 40 30 58 48 35 39 48 -31 48 -95 0 -134 33 -105
89 27 51 115 67 173 31 31 -19 73 -84 73 -114 0 -35 68 -63 85 -35 9 14 -13
66 -31 73 -18 7 -53 83 -54 115 0 58 68 88 130 56z m793 -65 c21 -17 25 -27
21 -49 -9 -43 11 -46 42 -6 32 42 76 47 119 13 24 -19 27 -26 23 -68 -3 -27
-15 -61 -27 -79 -19 -26 -29 -31 -62 -31 -46 0 -79 -14 -79 -35 0 -14 10 -18
68 -30 49 -10 59 -41 34 -98 -26 -58 -55 -68 -121 -41 -42 18 -46 23 -51 59
-7 52 -30 57 -64 12 -25 -32 -29 -34 -63 -27 -20 5 -48 20 -62 34 l-25 25 18
56 c23 73 45 95 95 95 22 0 43 5 46 10 4 6 -9 29 -29 50 -41 45 -46 80 -16
110 27 27 98 27 133 0z m3899 -55 c21 -14 64 -61 98 -105 33 -43 65 -82 70
-85 19 -12 10 -36 -32 -81 -46 -50 -214 -167 -232 -161 -13 5 -9 397 5 433 11
32 44 31 91 -1z m579 -195 c26 -14 49 -62 49 -103 0 -28 -7 -39 -45 -66 -37
-27 -48 -30 -65 -21 -16 9 -25 8 -36 -1 -19 -16 -19 -88 1 -95 20 -8 45 13 45
37 0 15 7 19 31 19 18 0 47 9 65 21 38 23 58 17 94 -28 36 -46 10 -111 -57
-139 -45 -20 -55 -18 -98 16 -21 17 -42 30 -47 30 -20 0 -19 -34 2 -79 13 -29
20 -57 16 -69 -11 -33 -53 -72 -80 -72 -65 0 -106 47 -106 119 0 34 5 45 35
68 36 29 45 60 21 69 -8 3 -37 -7 -64 -21 -41 -21 -55 -24 -71 -16 -45 25 -65
87 -38 121 41 52 114 66 153 29 13 -12 30 -19 38 -16 13 5 12 14 -7 66 -27 74
-21 87 54 117 62 26 83 28 110 14z m-215 -32 c-10 -52 -25 -62 -53 -37 -12 13
-23 28 -23 34 0 14 36 33 64 34 16 1 18 -4 12 -31z m-4900 -65 c22 -9 59 -20
84 -24 25 -4 92 -23 150 -42 58 -19 125 -41 150 -48 56 -17 115 -75 129 -126
12 -40 15 -261 5 -287 -9 -23 -21 -20 -63 13 -20 15 -88 47 -151 71 -103 38
-271 123 -342 172 -20 14 -28 30 -33 67 -8 59 -34 103 -74 127 -36 21 -39 46
-11 74 25 25 101 27 156 3z m-405 -124 c15 -6 31 -20 37 -32 16 -33 22 -108
10 -130 -5 -10 -7 -30 -4 -43 5 -20 13 -24 42 -24 43 0 52 18 35 74 -21 72
-23 85 -17 111 22 89 152 86 176 -4 13 -51 8 -61 -45 -93 -30 -18 -45 -34 -45
-48 0 -18 6 -20 60 -20 48 0 61 -4 70 -19 31 -58 -4 -101 -90 -109 -47 -4 -51
-2 -82 32 -43 49 -58 47 -58 -7 0 -63 -29 -91 -88 -84 -51 6 -91 32 -111 72
-19 40 -1 71 54 95 65 28 61 38 -21 55 -17 3 -42 17 -54 30 -32 34 -24 109 15
143 28 24 55 24 116 1z m1578 -34 c34 -39 37 -48 19 -62 -26 -18 -128 -54
-138 -48 -5 3 -10 30 -10 60 0 63 16 85 65 85 25 0 40 -8 64 -35z m198 -57
c52 -57 37 -98 -37 -98 -51 0 -64 9 -75 52 -6 23 -2 30 27 48 42 26 60 25 85
-2z m-728 -42 c6 -7 16 -74 21 -147 5 -74 17 -182 26 -240 16 -104 14 -217 -5
-248 -7 -11 -91 -34 -98 -28 -5 6 -14 658 -8 667 9 15 51 12 64 -4z m583 -54
c23 -21 27 -32 23 -61 -2 -20 -7 -69 -10 -108 l-5 -73 69 -34 c69 -35 91 -63
91 -117 0 -29 -117 -27 -154 2 -23 18 -25 25 -20 60 8 49 -15 63 -51 29 -45
-43 -155 -10 -155 45 0 53 88 111 150 99 49 -10 39 23 -14 45 -24 11 -46 27
-50 36 -11 31 -6 72 12 87 38 34 71 31 114 -10z m-412 -109 c0 -26 -36 -67
-50 -58 -11 7 -13 78 -3 114 l6 24 24 -29 c12 -16 23 -39 23 -51z m2409 37
c102 -51 112 -65 40 -58 -66 7 -104 24 -124 55 -14 20 -13 43 1 43 2 0 40 -18
83 -40z m-1769 -7 c25 -32 25 -69 0 -110 -26 -43 -56 -58 -86 -44 -13 6 -24
17 -24 24 0 8 -13 31 -30 52 -45 57 -39 100 15 107 62 7 105 -3 125 -29z
m-406 -25 c8 -13 5 -23 -14 -43 -40 -43 -55 -47 -84 -24 -36 28 -34 57 7 74
40 18 77 15 91 -7z m-833 -154 c25 -13 30 -20 27 -47 -2 -27 -10 -36 -48 -54
-25 -12 -64 -25 -87 -29 -53 -8 -54 0 -12 84 27 55 34 62 60 62 17 0 44 -7 60
-16z m247 -56 c7 -7 12 -16 12 -21 0 -14 -67 -37 -111 -37 -50 0 -48 16 7 47
44 25 74 29 92 11z m3113 -10 c17 -31 25 -198 10 -198 -23 0 -71 92 -71 138 0
74 35 109 61 60z m732 -6 c20 -18 23 -85 4 -122 -7 -13 -26 -31 -42 -40 -33
-17 -45 -29 -45 -47 0 -9 20 -13 65 -13 63 0 66 -1 85 -32 15 -24 19 -42 15
-68 -10 -55 -36 -75 -101 -75 -57 0 -74 11 -110 71 -18 29 -48 6 -52 -40 -4
-40 -27 -56 -83 -56 -57 0 -89 102 -54 169 8 16 30 38 50 49 49 30 45 48 -12
55 -61 7 -98 45 -89 90 9 46 24 57 75 57 54 0 87 -23 96 -68 9 -41 20 -57 41
-57 16 0 20 10 25 62 8 81 20 96 73 88 23 -4 49 -14 59 -23z m204 -73 c92 -48
137 -89 201 -182 l47 -69 -180 -176 c-180 -177 -260 -237 -348 -264 -67 -20
-70 2 -19 182 30 106 41 122 92 135 70 18 106 41 121 77 21 52 15 102 -20 156
-31 49 -38 87 -25 151 9 43 34 41 131 -10z m-4492 -3 c21 -31 12 -50 -43 -86
-50 -33 -58 -35 -96 -20 -51 19 -22 92 45 116 52 19 77 16 94 -10z m251 -1
c14 -35 -59 -63 -121 -47 -45 13 -41 30 12 46 63 19 102 20 109 1z m250 -20
c8 -21 14 -68 14 -120 0 -72 -4 -94 -25 -135 -30 -59 -32 -120 -6 -169 14 -27
16 -41 9 -63 -6 -15 -14 -28 -19 -28 -12 0 -82 123 -123 217 -25 55 -39 106
-44 160 -13 114 -8 124 69 150 93 31 107 30 125 -12z m-262 -81 c4 -9 4 -19 2
-21 -8 -8 -26 8 -26 23 0 19 16 18 24 -2z m5072 -45 c16 -8 30 -22 32 -32 3
-15 -8 -17 -110 -17 -114 0 -188 -12 -188 -31 0 -7 17 -7 48 -2 72 12 242 1
242 -16 0 -4 -40 -15 -89 -24 -49 -10 -123 -31 -165 -48 -82 -33 -81 -33 -146
23 -27 24 -40 42 -37 52 10 26 118 73 217 95 101 22 150 22 196 0z m-4423 -49
c29 -23 60 -96 55 -131 -2 -18 -13 -27 -42 -37 -49 -16 -66 -29 -59 -47 7 -20
34 -26 70 -16 49 14 67 -4 64 -69 -1 -29 -6 -61 -12 -72 -23 -42 -129 -52
-186 -17 -45 28 -63 15 -45 -34 17 -48 16 -53 -22 -76 -40 -25 -86 -27 -133
-4 -47 22 -68 67 -59 127 9 56 23 71 74 80 41 6 68 28 57 46 -3 5 -26 10 -51
10 -93 0 -126 84 -59 153 62 63 109 63 118 -2 3 -22 15 -54 28 -72 19 -27 21
-36 11 -61 -9 -25 -8 -32 9 -49 11 -11 33 -19 54 -19 33 0 35 2 35 33 0 23 -8
41 -26 58 -82 76 -68 158 36 203 46 20 53 20 83 -4z m2297 -60 c115 -78 350
-323 397 -414 46 -88 118 -442 86 -423 -6 4 -27 49 -47 100 -32 84 -126 250
-162 286 -36 38 -21 -10 39 -128 100 -192 158 -384 174 -566 4 -53 3 -75 -5
-75 -13 0 -16 9 -37 137 -23 143 -78 261 -185 403 -132 174 -241 370 -291 522
-29 89 -48 198 -35 198 4 0 33 -18 66 -40z m-1933 -60 c10 -11 28 -20 40 -20
29 0 44 -35 36 -84 -7 -48 9 -47 55 2 45 47 81 72 108 72 30 0 70 -34 83 -71
9 -27 8 -33 -13 -54 -21 -21 -30 -23 -82 -18 -58 5 -60 4 -105 -36 -29 -25
-49 -52 -52 -70 -5 -23 -14 -32 -34 -37 -15 -4 -41 -13 -56 -21 -22 -11 -32
-12 -42 -3 -8 7 -27 9 -44 5 -74 -16 -156 99 -105 149 20 20 43 20 93 0 47
-18 85 -15 89 7 2 10 -9 21 -28 29 -67 28 -96 121 -48 154 32 23 85 20 105 -4z
m3642 -22 c88 -75 121 -139 86 -168 -14 -11 -23 -6 -71 44 -55 57 -66 75 -79
134 -9 43 2 41 64 -10z m-116 -21 c9 -18 19 -51 22 -73 l6 -39 -74 -53 c-109
-76 -363 -192 -398 -180 -7 2 26 35 72 73 46 39 124 112 174 163 89 91 149
141 171 142 7 0 19 -15 27 -33z m-669 -153 c-2 -55 -34 -188 -124 -504 -32
-113 -63 -230 -70 -260 -20 -92 -108 -363 -190 -585 -81 -221 -119 -308 -134
-309 -6 -1 -9 68 -8 167 2 159 3 171 26 210 14 23 30 65 36 92 7 28 34 116 61
196 27 80 61 201 74 270 14 68 32 144 40 169 8 25 39 142 70 260 87 332 84
325 148 340 64 16 72 11 71 -46z m-2627 -33 c10 -10 33 -22 50 -26 76 -16 113
-145 42 -145 -26 0 -74 -44 -64 -60 5 -9 25 -11 67 -7 63 6 81 -3 99 -50 11
-30 -1 -54 -40 -82 -38 -27 -62 -26 -107 4 -71 48 -110 24 -59 -37 25 -30 26
-46 4 -106 -12 -31 -51 -44 -102 -32 -47 10 -97 57 -97 91 0 31 27 75 60 99
34 24 38 41 14 61 -14 11 -22 10 -53 -8 -45 -26 -63 -18 -92 39 l-21 40 43 41
c50 48 88 53 136 18 58 -43 84 -5 38 55 -33 43 -32 77 1 103 33 26 58 27 81 2z
m-455 -104 c13 -13 38 -34 56 -47 29 -19 32 -25 20 -37 -12 -12 -23 -11 -74 2
-37 10 -90 15 -144 13 -70 -2 -85 0 -88 13 -4 24 18 37 99 58 97 25 104 25
131 -2z m-482 -93 c0 -17 -22 -14 -28 4 -2 7 3 12 12 12 9 0 16 -7 16 -16z
m504 -56 c14 -23 -6 -65 -99 -203 -98 -146 -161 -217 -189 -213 -19 3 -22 11
-27 78 -9 109 -10 293 -1 306 16 25 80 47 152 53 95 8 150 1 164 -21z m4486 4
c0 -53 -131 -154 -305 -235 -130 -60 -213 -77 -420 -84 -181 -6 -488 4 -480
16 5 8 83 26 158 37 47 6 61 19 31 31 -9 3 -53 1 -97 -6 -65 -9 -104 -22 -185
-62 -56 -29 -105 -50 -108 -47 -3 3 14 23 38 43 50 44 208 121 276 135 26 5
187 14 357 20 171 5 330 15 355 20 99 23 201 61 276 104 88 50 104 55 104 28z
m-5858 -69 c9 -10 23 -33 32 -51 14 -27 20 -31 32 -21 8 6 14 21 14 33 0 30
18 46 52 46 48 0 93 -25 107 -58 17 -40 2 -67 -45 -87 -49 -20 -43 -49 11 -53
53 -5 65 -17 65 -65 0 -55 -30 -87 -82 -87 -45 0 -78 15 -78 34 0 7 -10 25
-21 40 -20 26 -22 26 -40 10 -12 -11 -17 -25 -13 -39 14 -55 -56 -98 -106 -67
-37 23 -49 43 -50 83 0 40 11 53 74 85 61 31 54 48 -22 54 -40 3 -66 10 -72
20 -17 26 -11 86 11 114 17 22 29 26 68 26 33 0 53 -5 63 -17z m3613 -399 c11
-27 30 -63 41 -79 39 -54 63 -111 98 -231 44 -151 52 -199 68 -414 18 -236 16
-390 -4 -465 -22 -79 -58 -175 -66 -175 -4 0 -7 98 -8 218 -1 301 -14 568 -28
587 -8 12 -11 -60 -11 -297 0 -323 -16 -543 -39 -535 -6 2 -12 26 -14 53 -1
27 -9 99 -17 159 -28 212 -55 491 -65 670 -5 99 -14 217 -20 261 -8 65 -7 96
5 153 8 40 15 90 15 112 0 54 18 47 45 -17z m-1022 -198 c-11 -18 -329 -353
-418 -439 -156 -154 -220 -199 -588 -423 -87 -53 -160 -94 -163 -91 -9 9 151
180 257 274 125 110 158 136 317 242 113 77 140 101 110 101 -15 0 -223 -139
-297 -199 -117 -94 -221 -191 -346 -324 -70 -75 -130 -135 -133 -133 -10 11
41 140 90 225 136 240 440 474 878 676 208 97 316 130 293 91z m-813 -11 c19
-22 4 -64 -38 -106 -39 -38 -109 -66 -125 -50 -31 31 82 164 144 170 4 1 12
-6 19 -14z m-1642 -212 c28 -27 98 -170 88 -180 -10 -10 -74 8 -107 30 -37 25
-76 78 -86 116 -4 18 0 29 17 43 31 25 55 23 88 -9z m3433 -1069 c-16 -181
-60 -293 -301 -769 -289 -573 -385 -749 -422 -771 -18 -12 -89 76 -82 101 4
10 45 85 92 165 212 362 360 662 559 1135 58 137 117 272 131 300 l27 50 3
-50 c2 -27 -1 -100 -7 -161z m-3343 85 c31 -11 83 -29 115 -39 87 -28 327
-196 312 -219 -9 -15 -66 -21 -88 -9 -12 6 -52 35 -88 65 -91 73 -107 67 -30
-11 35 -36 60 -69 57 -75 -4 -6 -22 -11 -41 -11 -31 0 -42 9 -117 100 -46 55
-113 123 -150 150 -38 28 -68 55 -68 60 0 16 36 12 98 -11z m4795 -146 c-7
-71 -20 -153 -29 -183 -20 -68 -91 -234 -155 -362 -45 -89 -53 -100 -97 -122
-52 -27 -66 -44 -77 -96 -11 -51 -15 -54 -41 -29 -30 28 -30 36 -1 68 58 63
227 374 212 389 -10 10 -26 -14 -108 -160 -40 -70 -87 -148 -105 -173 l-33
-47 -42 38 c-67 60 -67 62 4 156 34 45 107 130 162 187 101 107 219 273 278
394 18 37 36 67 39 67 4 0 1 -57 -7 -127z m-2588 45 c-21 -71 -176 -344 -251
-443 -87 -115 -329 -374 -339 -363 -9 9 25 72 118 215 46 70 102 159 123 196
58 103 142 212 244 320 93 98 117 115 105 75z m1221 -24 c-4 -9 -9 -15 -11
-12 -3 3 -3 13 1 22 4 9 9 15 11 12 3 -3 3 -13 -1 -22z m-2511 -99 c42 -21 77
-54 72 -68 -2 -7 -19 -11 -40 -9 -97 9 -513 -80 -677 -145 -217 -86 -333 -139
-432 -196 -151 -86 -199 -110 -206 -102 -15 15 128 134 198 167 65 30 89 57
44 50 -52 -9 -135 -66 -241 -165 -63 -59 -118 -106 -120 -103 -3 3 9 35 25 71
37 77 122 172 204 225 73 48 301 124 433 145 55 9 138 22 185 30 47 8 123 20
169 26 46 6 114 22 150 36 142 54 185 61 236 38z m29 -220 c57 -114 206 -497
193 -492 -6 2 -41 47 -77 101 -75 110 -261 328 -332 390 -27 23 -48 46 -48 52
0 13 114 32 180 30 l45 -1 39 -80z m-289 -11 c44 -21 223 -210 321 -339 40
-54 194 -292 194 -302 0 -13 -117 106 -223 227 -56 63 -163 178 -239 256 -76
77 -138 145 -138 151 0 25 41 28 85 7z m16 -171 c74 -76 184 -194 244 -263 60
-69 169 -188 242 -264 73 -77 131 -141 129 -143 -7 -7 -166 77 -237 124 -133
87 -311 259 -353 340 -9 18 -61 89 -116 158 -55 69 -100 128 -100 132 0 9 41
53 50 53 3 0 67 -62 141 -137z m3620 -252 c27 -30 49 -63 49 -72 0 -16 -48
-59 -65 -59 -8 0 -95 187 -95 206 0 25 55 -13 111 -75z m331 40 c38 -30 52
-90 37 -157 -16 -70 -5 -82 43 -48 42 30 59 27 84 -12 17 -26 17 -28 -7 -73
-33 -63 -64 -79 -123 -63 -78 21 -104 -9 -40 -47 31 -19 35 -25 30 -49 -11
-43 -44 -65 -89 -59 -43 6 -87 40 -87 68 0 9 9 36 19 60 14 31 17 47 9 56 -15
18 -24 16 -59 -9 -30 -22 -30 -22 -65 -3 -41 22 -74 60 -74 86 0 9 12 31 26
48 22 27 32 31 73 31 56 0 105 -28 131 -75 11 -20 24 -30 41 -30 20 0 24 5 27
36 3 30 -1 39 -25 54 -58 37 -83 67 -83 103 0 45 16 71 53 87 43 19 50 18 79
-4z m-4357 -132 c144 -42 218 -87 405 -249 96 -83 200 -165 230 -183 75 -43
154 -125 235 -243 130 -188 179 -250 309 -381 71 -73 127 -135 124 -138 -8 -8
-116 51 -178 98 -97 72 -441 389 -578 533 -147 152 -325 310 -331 293 -2 -6
21 -32 50 -57 30 -25 130 -124 222 -219 158 -161 486 -474 609 -578 29 -26
107 -73 172 -106 136 -67 226 -119 226 -131 0 -12 -10 -10 -81 13 -89 29 -246
112 -337 177 -43 30 -151 104 -242 165 -209 139 -243 168 -398 340 -206 230
-270 293 -412 414 -138 117 -223 174 -342 227 -38 16 -68 33 -68 37 0 24 294
14 385 -12z m5635 -88 c0 -4 -47 -37 -105 -72 -57 -35 -153 -95 -212 -132 -59
-37 -128 -77 -153 -89 -58 -27 -138 -35 -164 -15 -19 14 -18 16 22 41 23 14
103 55 178 90 139 66 173 86 141 86 -24 0 -125 -40 -250 -99 -59 -28 -112 -51
-118 -51 -5 0 -14 12 -20 28 -10 25 -7 30 27 60 72 62 123 79 364 116 202 31
259 40 283 45 4 0 7 -3 7 -8z m-903 -38 c11 -10 28 -37 37 -59 17 -38 17 -44
2 -72 -19 -38 -12 -43 55 -41 43 2 55 -1 71 -20 24 -31 23 -82 -2 -109 -25
-26 -21 -26 -65 -5 -27 13 -38 14 -47 5 -9 -9 -7 -17 10 -35 46 -49 13 -135
-46 -121 -70 16 -108 64 -98 124 5 35 4 40 -13 40 -10 0 -24 -7 -31 -15 -39
-47 -154 19 -154 90 0 66 49 83 124 45 67 -34 77 -23 35 38 -34 49 -32 86 4
123 34 34 87 39 118 12z m-2791 -123 c198 -212 485 -603 579 -791 82 -161 169
-419 142 -419 -3 0 -20 33 -38 73 -103 225 -267 491 -364 587 -71 70 -90 62
-27 -11 66 -76 98 -121 167 -234 68 -110 195 -359 195 -382 0 -33 -36 -4 -118
95 -49 60 -137 156 -194 213 -120 119 -235 265 -272 343 -46 97 -136 367 -166
500 -17 70 -30 132 -30 138 0 15 40 -20 126 -112z m2138 -27 c-25 -113 -89
-211 -172 -264 -80 -51 -66 -9 46 137 38 50 78 105 88 123 23 40 47 42 38 4z
m332 -148 c7 -18 -40 -101 -64 -113 -9 -5 -42 -15 -72 -22 -30 -6 -63 -14 -72
-17 -29 -7 -21 15 23 62 77 84 170 129 185 90z m793 -15 c23 -12 51 -80 51
-123 0 -39 -33 -76 -83 -92 -44 -14 -40 -33 13 -58 25 -12 52 -35 60 -50 14
-27 14 -29 -13 -53 -32 -27 -87 -32 -125 -10 -13 7 -34 30 -46 52 -22 40 -59
57 -69 32 -2 -8 2 -33 10 -57 21 -61 15 -85 -22 -89 -38 -4 -108 41 -131 83
-14 26 -15 37 -5 67 18 54 53 82 94 75 32 -5 57 6 57 25 0 4 -25 19 -55 33
-55 27 -75 55 -61 90 8 22 98 76 121 73 16 -2 21 -13 25 -58 6 -68 27 -73 48
-12 21 64 83 98 131 72z m-679 -165 c0 -9 -9 -15 -22 -15 -22 1 -23 1 -4 15
25 19 26 19 26 0z m85 -5 c-3 -5 -10 -10 -16 -10 -5 0 -9 5 -9 10 0 6 7 10 16
10 8 0 12 -4 9 -10z m255 -5 c0 -3 -15 -25 -34 -50 -19 -24 -40 -61 -47 -80
-14 -38 -29 -44 -49 -20 -11 13 -7 22 26 57 25 26 34 42 27 45 -22 8 -14 23
20 38 33 15 57 19 57 10z m-175 -64 c-15 -31 -35 -34 -35 -6 0 14 40 48 48 41
2 -2 -4 -18 -13 -35z m-315 16 c14 -7 26 -23 28 -35 3 -18 -4 -26 -35 -38 -36
-15 -42 -15 -103 4 -36 12 -87 24 -113 28 -26 3 -46 9 -43 11 9 9 161 41 201
42 22 0 51 -5 65 -12z m220 -29 c0 -13 -8 -44 -17 -70 -9 -26 -14 -50 -10 -54
3 -4 22 7 42 25 20 17 41 31 47 31 16 0 84 -74 90 -97 11 -40 -18 -82 -73
-108 -49 -22 -54 -23 -82 -9 -51 27 -78 -4 -37 -41 26 -24 25 -59 -2 -85 -27
-24 -46 -25 -78 -3 -57 39 -67 89 -25 117 28 18 33 53 10 62 -8 4 -32 -1 -53
-9 -42 -16 -72 -9 -109 25 -30 28 -29 36 9 82 31 38 32 38 87 33 31 -3 68 -9
84 -13 22 -5 27 -3 27 13 0 11 -9 28 -20 38 -13 12 -20 29 -18 44 3 23 7 26
39 23 21 -2 40 1 44 7 12 21 45 12 45 -11z m-387 -73 c41 -17 55 -34 38 -45
-13 -7 -111 39 -111 53 0 12 35 8 73 -8z m664 -147 l65 -51 -26 -14 c-41 -22
-34 -50 17 -64 84 -22 98 -60 40 -108 -68 -56 -117 -59 -183 -9 -23 17 -33 19
-42 10 -9 -9 -5 -20 15 -49 25 -34 25 -38 10 -55 -43 -47 -173 6 -173 71 0 49
55 148 98 175 50 31 89 77 97 116 4 16 9 30 12 30 3 0 34 -23 70 -52z m-1026
19 c46 -31 102 -115 199 -297 45 -85 98 -181 117 -213 19 -32 34 -60 32 -61
-2 -2 -35 -11 -74 -19 -133 -29 -410 -105 -495 -135 -140 -50 -484 -203 -674
-301 -97 -50 -184 -91 -192 -91 -20 0 -11 12 107 148 92 106 247 295 410 502
195 247 340 390 473 466 51 29 55 29 97 1z m-4321 -233 c156 -99 235 -162 342
-271 163 -166 212 -245 283 -453 66 -192 165 -390 280 -555 140 -201 182 -282
261 -505 38 -104 97 -361 113 -485 17 -130 25 -301 14 -290 -6 6 -25 64 -42
130 -58 214 -102 347 -173 515 -73 174 -350 740 -403 825 -17 28 -64 109 -105
180 -121 213 -180 297 -180 255 0 -18 30 -70 100 -175 37 -55 76 -121 88 -148
12 -26 46 -90 77 -143 31 -52 87 -163 125 -247 37 -84 108 -237 157 -342 112
-237 194 -441 226 -565 40 -151 76 -319 87 -395 11 -82 12 -271 1 -300 -9 -23
-33 74 -57 230 -23 157 -71 331 -118 435 -24 52 -83 178 -131 280 -91 195
-182 417 -209 511 -23 77 -75 161 -178 282 -133 156 -373 460 -414 524 -46 71
-162 312 -197 408 -14 39 -34 90 -46 115 -22 49 -71 257 -63 265 12 12 34 1
162 -81z m3365 -27 c4 -35 5 -130 3 -213 -3 -115 -8 -159 -22 -191 -10 -24
-22 -43 -27 -43 -5 0 -9 28 -9 62 0 34 -3 58 -7 54 -5 -4 -15 -43 -23 -87 -8
-44 -19 -81 -25 -82 -24 -5 -35 69 -29 193 6 144 19 220 45 271 21 42 67 99
79 99 5 0 11 -28 15 -63z m-565 -74 c136 -143 222 -273 281 -428 34 -90 39
-127 17 -153 -8 -9 -29 -46 -47 -82 -44 -85 -291 -437 -361 -514 -80 -87 -190
-171 -291 -222 -143 -72 -154 -61 -94 96 55 145 75 232 180 792 45 242 49 260
92 403 33 112 61 182 85 212 14 18 46 -6 138 -104z m2424 -228 c89 -16 233
-72 219 -86 -4 -4 -75 -19 -157 -34 -174 -30 -174 -30 -183 59 -5 44 -3 60 8
67 18 11 12 11 113 -6z m-421 -191 c59 -20 60 -40 5 -54 -74 -19 -171 -51
-232 -77 -69 -29 -365 -137 -451 -165 -78 -25 -234 -59 -476 -102 -218 -40
-223 -40 -214 -26 17 28 247 123 541 224 71 25 208 72 304 106 176 62 361 108
436 109 22 1 61 -6 87 -15z m-2177 -1269 c144 -73 353 -273 432 -415 20 -36
55 -95 78 -131 81 -128 99 -218 91 -457 -4 -98 -13 -211 -21 -252 -21 -115
-142 -430 -178 -465 -7 -7 -7 16 -2 70 11 112 8 210 -10 355 -21 167 -47 267
-116 440 -55 138 -97 213 -241 435 -32 50 -63 104 -70 120 -15 41 -48 198 -42
208 10 18 37 2 113 -65 63 -56 90 -89 116 -140 19 -37 63 -110 98 -161 74
-109 109 -174 126 -235 25 -95 41 -281 41 -474 -1 -185 4 -226 27 -204 15 16
25 313 13 418 -29 273 -55 348 -181 538 -45 69 -91 143 -101 166 -20 44 -145
170 -222 222 -45 32 -62 62 -33 62 7 0 44 -16 82 -35z"/>
<path d="M3638 11473 c-42 -48 -23 -98 28 -74 21 9 25 17 22 48 -3 43 -25 54
-50 26z"/>
<path d="M5392 11428 c-28 -28 -9 -74 33 -78 38 -4 45 0 45 29 0 45 -51 76
-78 49z"/>
<path d="M3817 10909 c-16 -22 -12 -52 9 -70 22 -18 44 -3 44 30 0 61 -25 80
-53 40z"/>
<path d="M1050 10735 c-15 -18 -5 -64 16 -72 21 -8 31 5 39 50 7 35 6 37 -18
37 -13 0 -30 -7 -37 -15z"/>
<path d="M5680 10635 c-10 -12 -9 -20 4 -39 21 -33 54 -42 74 -22 15 14 14 18
-13 46 -32 34 -47 37 -65 15z"/>
<path d="M1982 10413 c-22 -9 -34 -41 -22 -63 23 -42 74 -14 68 37 -3 27 -20
37 -46 26z"/>
<path d="M1011 10396 c-20 -21 -22 -28 -11 -41 17 -20 64 -16 68 6 1 9 -5 26
-15 38 l-18 22 -24 -25z"/>
<path d="M2370 10279 c-9 -16 -8 -25 6 -40 22 -24 31 -24 39 1 15 48 -23 81
-45 39z"/>
<path d="M608 10200 c-19 -15 -21 -22 -12 -37 15 -24 38 -27 58 -8 21 22 20
42 -3 55 -15 7 -25 5 -43 -10z"/>
<path d="M5193 10118 c-6 -7 -15 -28 -22 -47 -13 -40 -1 -61 35 -61 19 0 25 8
34 41 6 22 10 48 8 57 -4 21 -41 28 -55 10z"/>
<path d="M2073 10004 c-3 -8 -1 -20 5 -26 16 -16 42 -2 42 22 0 24 -38 28 -47
4z"/>
<path d="M2490 10006 c-15 -20 -5 -65 17 -73 10 -4 23 2 35 17 16 20 17 25 5
44 -18 27 -40 31 -57 12z"/>
<path d="M1639 9691 c-23 -19 -23 -20 -6 -38 16 -16 20 -17 45 -3 32 19 36 54
6 58 -11 2 -32 -6 -45 -17z"/>
<path d="M4182 9484 c-22 -10 -34 -42 -22 -64 14 -26 56 -26 70 1 24 44 -4 81
-48 63z"/>
<path d="M5887 9373 c-14 -14 -6 -53 17 -80 20 -24 26 -25 40 -14 23 19 21 78
-3 91 -23 12 -45 13 -54 3z"/>
<path d="M1296 9297 c-22 -16 -18 -60 6 -65 9 -2 24 8 34 22 13 21 14 29 4 41
-15 18 -21 19 -44 2z"/>
<path d="M4817 8303 c-13 -12 -7 -61 9 -74 33 -27 72 33 44 67 -13 15 -42 19
-53 7z"/>
<path d="M1957 7903 c-4 -3 -7 -15 -7 -25 0 -13 8 -18 30 -18 33 0 35 3 20 31
-11 19 -31 25 -43 12z"/>
<path d="M2135 7646 c-21 -32 -10 -58 24 -54 29 3 41 39 21 64 -17 20 -27 18
-45 -10z"/>
<path d="M410 7435 c-11 -13 -10 -22 3 -50 18 -37 27 -41 58 -25 24 13 25 52
1 73 -23 21 -46 22 -62 2z"/>
<path d="M4033 6863 c2 -21 11 -54 20 -73 23 -54 32 -14 13 54 -19 64 -41 77
-33 19z"/>
<path d="M4065 6708 c-4 -9 -2 -25 3 -35 10 -17 11 -17 17 -1 4 9 2 25 -3 35
-10 17 -11 17 -17 1z"/>
<path d="M5556 4425 c-9 -9 -16 -20 -16 -24 0 -16 26 -31 53 -31 26 0 28 3 25
33 -4 37 -35 49 -62 22z"/>
<path d="M5932 4119 c4 -38 31 -60 50 -41 18 18 -2 66 -30 70 -21 3 -23 0 -20
-29z"/>
<path d="M5375 3890 c-11 -13 -15 -24 -9 -29 31 -30 82 1 55 33 -17 21 -24 20
-46 -4z"/>
<path d="M5617 3764 c-4 -4 -7 -18 -7 -31 0 -21 4 -24 33 -21 27 2 32 7 32 28
0 19 -6 26 -25 28 -14 2 -29 0 -33 -4z"/>
<path d="M5112 12428 c-20 -20 -14 -47 13 -54 33 -8 41 0 29 33 -11 31 -25 38
-42 21z"/>
<path d="M925 9977 c-31 -15 -53 -38 -131 -142 -90 -120 -116 -164 -121 -204
-5 -37 -2 -44 31 -77 36 -36 38 -36 99 -32 52 4 70 1 112 -20 42 -21 59 -24
112 -19 76 6 89 15 98 70 5 33 16 51 52 82 41 36 46 46 51 93 5 60 -11 93 -57
117 -16 8 -38 34 -50 57 -12 24 -33 52 -48 62 -33 24 -109 31 -148 13z m134
-58 c36 -36 38 -53 11 -94 -11 -16 -20 -33 -20 -37 0 -12 46 -9 74 3 35 16 56
-3 56 -51 0 -57 -24 -73 -98 -64 -39 4 -62 3 -66 -5 -7 -11 39 -61 55 -61 13
0 11 -64 -3 -78 -17 -17 -100 -15 -126 4 -15 10 -22 25 -22 48 0 41 -23 64
-45 46 -8 -7 -15 -19 -15 -26 0 -7 -11 -21 -24 -29 -30 -20 -66 -12 -96 20
-30 32 -21 82 25 131 32 34 38 36 77 30 24 -3 53 -9 65 -12 40 -11 39 21 -1
57 -41 36 -44 51 -17 96 19 31 23 33 133 52 3 0 20 -13 37 -30z"/>
<path d="M1002 9781 c-16 -10 -12 -63 5 -68 14 -5 29 55 16 68 -4 4 -14 4 -21
0z"/>
<path d="M4793 4656 c-64 -78 -223 -425 -223 -487 0 -40 24 -3 64 101 21 52
73 164 117 249 44 84 78 158 76 164 -1 5 -17 -7 -34 -27z"/>
</g>
</svg>
