<svg id="publicdomainvectors.org" xmlns="http://www.w3.org/2000/svg" viewBox="0 0 500 500"><defs><style>.cls-1{fill:#befaee;}.cls-2{fill:#cee358;}.cls-2,.cls-3,.cls-4,.cls-6,.cls-8{fill-rule:evenodd;}.cls-3{fill:#bdd439;}.cls-4{fill:#dff07f;}.cls-5{fill:#a7bd2a;}.cls-6{fill:#8ca118;}.cls-7{fill:#fbd08d;}.cls-8{fill:#fff;}</style></defs><title>background in progress 2</title><rect class="cls-1" x="0.31" width="499.69" height="499.69"/><path class="cls-2" d="M59.84,232c10.62,0,19.23,16.41,19.23,36.66s-8.61,36.67-19.23,36.67S40.61,289,40.61,268.7,49.22,232,59.84,232Zm400.91-29.3c16.29,0,29.5,28.67,29.5,64s-13.21,64-29.5,64-29.51-28.67-29.51-64,13.21-64,29.51-64ZM327.43,228c13,0,23.56,17.81,23.56,39.78s-10.55,39.77-23.56,39.77c-5.13,0-9.88-2.77-13.75-7.48-4.28,22.22-13.8,37.68-24.86,37.68-15.05,0-27.26-28.67-27.26-64s12.21-64,27.26-64c9.5,0,17.86,11.4,22.74,28.7,4.19-6.45,9.76-10.39,15.87-10.39ZM193.81,249.85c6.62,0,12,10.42,12,23.28s-5.37,23.27-12,23.27-12-10.42-12-23.27,5.37-23.28,12-23.28Zm-69.12-62.16c18.74,0,33.92,33.58,33.92,75s-15.18,75-33.92,75-33.92-33.59-33.92-75S106,187.69,124.69,187.69Z"/><path class="cls-3" d="M59.84,254.4c10.62,0,19.23,12.94,19.23,28.9s-8.61,28.91-19.23,28.91S40.61,299.27,40.61,283.3s8.61-28.9,19.23-28.9Zm400.91-23.1c16.29,0,29.5,22.6,29.5,50.48s-13.21,50.49-29.5,50.49-29.51-22.61-29.51-50.49,13.21-50.48,29.51-50.48ZM327.43,251.19c13,0,23.56,14,23.56,31.36s-10.55,31.36-23.56,31.36a19.83,19.83,0,0,1-13.75-5.9c-4.28,17.52-13.8,29.71-24.86,29.71-15.05,0-27.26-22.6-27.26-50.48s12.21-50.49,27.26-50.49c9.5,0,17.86,9,22.74,22.63,4.19-5.09,9.76-8.19,15.87-8.19ZM193.81,268.44c6.62,0,12,8.22,12,18.35s-5.37,18.35-12,18.35-12-8.21-12-18.35,5.37-18.35,12-18.35Zm-69.12-49c18.74,0,33.92,26.49,33.92,59.15s-15.18,59.15-33.92,59.15-33.92-26.48-33.92-59.15S106,219.42,124.69,219.42Z"/><path class="cls-4" d="M500,265.19v234.5H.31V281.21L12.74,276a145.3,145.3,0,0,1,112.19,0,135.6,135.6,0,0,0,104.71,0A166.27,166.27,0,0,1,358,276a126.73,126.73,0,0,0,97.85,0A146.05,146.05,0,0,1,500,265.19Z"/><path class="cls-2" d="M500,287.37V499.69H.31V284.63c17.63-7.33,39.8-10.19,61.32-7.78,11.4,1.28,20.53,6.2,23.54,12.68s-.65,13.38-9.42,17.78c-5.51,2.77-8.68,6.79-8.68,11s3.17,8.24,8.68,11c21,10.52,52.13,10.52,73.09,0a539.1,539.1,0,0,0,57-32.93c21.77-14.48,56.57-19.87,87.94-13.61,16.94,3.37,27,13.43,23.58,23.6-3.32,9.9,6.48,19.71,23,23,18.35,3.66,38.55,2.54,55.36-3.07s28.59-15.16,32.28-26.17C430.34,293,440,287.42,452.36,286A170.78,170.78,0,0,1,500,287.37Z"/><rect class="cls-5" x="0.31" y="420.14" width="499.69" height="79.55"/><path class="cls-6" d="M500,466.71v33H.31V437.1a276.19,276.19,0,0,1,30-1.6c38.07,0,73.05,7.57,91.05,19.7,17.69,11.93,48.22,20.68,84.35,24.18s74.67,1.45,106.47-5.68c32.73-7.34,70.72-11,109.21-10.59C447.91,463.41,474.24,464.62,500,466.71Z"/><rect class="cls-7" x="0.31" y="357.84" width="499.69" height="69.27"/><path class="cls-8" d="M435.92,66.92H206.42l26.45-2.85a36,36,0,0,0,25.22-14.56,25.21,25.21,0,0,1,40.7,0,22.42,22.42,0,0,0,36.22,0,23.95,23.95,0,0,1,38.66,0,27.54,27.54,0,0,0,33.39,9,40.69,40.69,0,0,1,32.93,0,144.29,144.29,0,0,0,25.11,8.46Z"/><path class="cls-8" d="M201.55,141.2h-146l16.83-1.81a22.92,22.92,0,0,0,16-9.27,16,16,0,0,1,25.9,0,14.25,14.25,0,0,0,23,0,15.24,15.24,0,0,1,24.6,0,17.54,17.54,0,0,0,21.25,5.7,25.9,25.9,0,0,1,20.95,0,92.41,92.41,0,0,0,16,5.38Z"/></svg>