<?xml version="1.0" encoding="utf-8"?>

<!DOCTYPE svg PUBLIC "-//W3C//DTD SVG 1.1//EN" "http://www.w3.org/Graphics/SVG/1.1/DTD/svg11.dtd">
<svg version="1.1" id="Layer_1" xmlns="http://www.w3.org/2000/svg" xmlns:xlink="http://www.w3.org/1999/xlink" x="0px" y="0px"
	 viewBox="0 0 1645.3358 1645.3359" enable-background="new 0 0 1645.3358 1645.3359" xml:space="preserve">
<g>
	<g>
		<polyline fill="#FFFFFF" stroke="#000000" stroke-width="1.4701" stroke-miterlimit="10" points="22.668,999.9042 
			215.9857,999.9042 215.9857,969.3236 22.668,969.3236 		"/>
		<polyline fill="#FFFFFF" stroke="#000000" stroke-width="1.4701" stroke-miterlimit="10" points="1421.5946,1622.668 
			1421.5946,1429.3502 1391.014,1429.3502 1391.014,1622.668 		"/>
		<polyline fill="#FFFFFF" stroke="#000000" stroke-width="1.4701" stroke-miterlimit="10" points="1389.4045,1622.668 
			1389.4045,1429.3502 1358.824,1429.3502 1358.824,1622.668 		"/>
		<polyline fill="#FFFFFF" stroke="#000000" stroke-width="1.4701" stroke-miterlimit="10" points="1357.2145,1622.668 
			1357.2145,1429.3502 1325.0243,1429.3502 1325.0243,1622.668 		"/>
		<polyline fill="#FFFFFF" stroke="#000000" stroke-width="1.4701" stroke-miterlimit="10" points="1323.4149,1622.668 
			1323.4149,1429.3502 1292.8342,1429.3502 1292.8342,1622.668 		"/>
		<polyline fill="#FFFFFF" stroke="#000000" stroke-width="1.4701" stroke-miterlimit="10" points="1291.2246,1622.668 
			1291.2246,1429.3502 1260.644,1429.3502 1260.644,1622.668 		"/>
		<polyline fill="#FFFFFF" stroke="#000000" stroke-width="1.4701" stroke-miterlimit="10" points="1259.0345,1622.668 
			1259.0345,1429.3502 1228.454,1429.3502 1228.454,1622.668 		"/>
		<polyline fill="#FFFFFF" stroke="#000000" stroke-width="1.4701" stroke-miterlimit="10" points="1226.8445,1622.668 
			1226.8445,1429.3502 1196.2639,1429.3502 1196.2639,1622.668 		"/>
		<polyline fill="#FFFFFF" stroke="#000000" stroke-width="1.4701" stroke-miterlimit="10" points="1128.6646,1622.668 
			1128.6646,1429.3502 1098.084,1429.3502 1098.084,1622.668 		"/>
		<polyline fill="#FFFFFF" stroke="#000000" stroke-width="1.4701" stroke-miterlimit="10" points="1096.4745,1622.668 
			1096.4745,1429.3502 1065.8939,1429.3502 1065.8939,1622.668 		"/>
		<polyline fill="#FFFFFF" stroke="#000000" stroke-width="1.4701" stroke-miterlimit="10" points="1064.2844,1622.668 
			1064.2844,1429.3502 1033.7039,1429.3502 1033.7039,1622.668 		"/>
		<polyline fill="#FFFFFF" stroke="#000000" stroke-width="1.4701" stroke-miterlimit="10" points="1032.0944,1622.668 
			1032.0944,1429.3502 1001.5137,1429.3502 1001.5137,1622.668 		"/>
		<polyline fill="#FFFFFF" stroke="#000000" stroke-width="1.4701" stroke-miterlimit="10" points="999.9042,1622.668 
			999.9042,1429.3502 969.3235,1429.3502 969.3235,1622.668 		"/>
		<polyline fill="#FFFFFF" stroke="#000000" stroke-width="1.4701" stroke-miterlimit="10" points="967.7141,1622.668 
			967.7141,1429.3502 935.5239,1429.3502 935.5239,1622.668 		"/>
		<polyline fill="#FFFFFF" stroke="#000000" stroke-width="1.4701" stroke-miterlimit="10" points="933.9144,1622.668 
			933.9144,1429.3502 903.3339,1429.3502 903.3339,1622.668 		"/>
		<polyline fill="#FFFFFF" stroke="#000000" stroke-width="1.4701" stroke-miterlimit="10" points="901.7244,1622.668 
			901.7244,1429.3502 871.1438,1429.3502 871.1438,1622.668 		"/>
		<polyline fill="#FFFFFF" stroke="#000000" stroke-width="1.4701" stroke-miterlimit="10" points="869.5342,1622.668 
			869.5342,1429.3502 838.9537,1429.3502 838.9537,1622.668 		"/>
		<polyline fill="#FFFFFF" stroke="#000000" stroke-width="1.4701" stroke-miterlimit="10" points="837.3442,1622.668 
			837.3442,1429.3502 806.7635,1429.3502 806.7635,1622.668 		"/>
		<polyline fill="#FFFFFF" stroke="#000000" stroke-width="1.4701" stroke-miterlimit="10" points="805.154,1622.668 
			805.154,1429.3502 774.5734,1429.3502 774.5734,1622.668 		"/>
		<polyline fill="#FFFFFF" stroke="#000000" stroke-width="1.4701" stroke-miterlimit="10" points="706.9742,1622.668 
			706.9742,1429.3502 676.3936,1429.3502 676.3936,1622.668 		"/>
		<polyline fill="#FFFFFF" stroke="#000000" stroke-width="1.4701" stroke-miterlimit="10" points="674.7841,1622.668 
			674.7841,1429.3502 644.2034,1429.3502 644.2034,1622.668 		"/>
		<polyline fill="#FFFFFF" stroke="#000000" stroke-width="1.4701" stroke-miterlimit="10" points="642.5939,1622.668 
			642.5939,1429.3502 612.0133,1429.3502 612.0133,1622.668 		"/>
		<polyline fill="#FFFFFF" stroke="#000000" stroke-width="1.4701" stroke-miterlimit="10" points="610.4038,1622.668 
			610.4038,1429.3502 579.8232,1429.3502 579.8232,1622.668 		"/>
		<polyline fill="#FFFFFF" stroke="#000000" stroke-width="1.4701" stroke-miterlimit="10" points="578.2137,1622.668 
			578.2137,1429.3502 547.6331,1429.3502 547.6331,1622.668 		"/>
		<polyline fill="#FFFFFF" stroke="#000000" stroke-width="1.4701" stroke-miterlimit="10" points="546.0236,1622.668 
			546.0236,1429.3502 515.443,1429.3502 515.443,1622.668 		"/>
		<polyline fill="#FFFFFF" stroke="#000000" stroke-width="1.4701" stroke-miterlimit="10" points="513.8335,1622.668 
			513.8335,1429.3502 483.2529,1429.3502 483.2529,1622.668 		"/>
		<polyline fill="#FFFFFF" stroke="#000000" stroke-width="1.4701" stroke-miterlimit="10" points="481.6434,1622.668 
			481.6434,1429.3502 451.0628,1429.3502 451.0628,1622.668 		"/>
		<polyline fill="#FFFFFF" stroke="#000000" stroke-width="1.4701" stroke-miterlimit="10" points="449.4533,1622.668 
			449.4533,1429.3502 418.8727,1429.3502 418.8727,1622.668 		"/>
		<polyline fill="#FFFFFF" stroke="#000000" stroke-width="1.4701" stroke-miterlimit="10" points="417.2632,1622.668 
			417.2632,1429.3502 386.6826,1429.3502 386.6826,1622.668 		"/>
		<polyline fill="#FFFFFF" stroke="#000000" stroke-width="1.4701" stroke-miterlimit="10" points="385.0731,1622.668 
			385.0731,1429.3502 354.4925,1429.3502 354.4925,1622.668 		"/>
		<polyline fill="#FFFFFF" stroke="#000000" stroke-width="1.4701" stroke-miterlimit="10" points="286.8932,1622.668 
			286.8932,1429.3502 256.3126,1429.3502 256.3126,1622.668 		"/>
		<polyline fill="#FFFFFF" stroke="#000000" stroke-width="1.4701" stroke-miterlimit="10" points="254.7031,1622.668 
			254.7031,1429.3502 224.1225,1429.3502 224.1225,1622.668 		"/>
		<path fill="#FFFFFF" stroke="#000000" stroke-width="1.4701" stroke-miterlimit="10" d="M222.1217,1622.6565l0.78-193.3163
			c0,0-0.1555-0.0592-0.3938-0.0032c-0.1069-0.032-0.2263-0.0615-0.3624-0.0345c-0.1268-0.0183-0.2448-0.0759-0.3827-0.0381
			c-0.1124-0.0691-0.2369-0.0623-0.3502-0.0702c-0.0983-0.0634-0.2021-0.0634-0.2926-0.0631
			c-0.1491-0.1057-0.2758-0.0784-0.2758-0.0784l-57.1253,184.6847"/>
		<path fill="#FFFFFF" stroke="#000000" stroke-width="1.4701" stroke-miterlimit="10" d="M160.7392,1612.7673l60.0197-183.7645
			c0.0065-0.0203-0.1137-0.0182-0.2715-0.092c-0.1584-0.0699-0.3814-0.1425-0.5932-0.2657
			c-0.0509-0.0348-0.1074-0.0582-0.169-0.0708c-0.0645-0.0073-0.0946-0.083-0.1498-0.1039
			c-0.0502-0.0314-0.1041-0.052-0.1602-0.0643c-0.0451-0.0325-0.0786-0.0796-0.1202-0.1045
			c-0.1815-0.0762-0.2732-0.1818-0.2732-0.1818l-111.2061,158.1295"/>
		<path fill="#FFFFFF" stroke="#000000" stroke-width="1.4701" stroke-miterlimit="10" d="M105.2767,1584.4392l113.6513-156.3815
			c0,0-0.0302-0.0179-0.0918-0.0385c-0.0395-0.0522-0.0973-0.1234-0.1918-0.1772c-0.1829-0.1185-0.3685-0.3484-0.61-0.521
			c-0.3951-0.4385-0.7692-0.8741-0.7444-0.8888L61.3283,1540.6586"/>
		<path fill="#FFFFFF" stroke="#000000" stroke-width="1.4701" stroke-miterlimit="10" d="M59.5137,1538.1229l157.7189-111.7878
			c-0.0207,0.0138-0.2998-0.4454-0.5284-0.8727c-0.2349-0.4297-0.3607-0.8647-0.3607-0.8647L32.8036,1485.301"/>
		<path fill="#FFFFFF" stroke="#000000" stroke-width="1.4701" stroke-miterlimit="10" d="M31.8204,1482.3252l184.4709-57.812
			c-0.0252,0.0072,0.0277-0.1274-0.0728-0.2771c-0.0315-0.0814,0.0005-0.1945-0.0647-0.2915
			c-0.0403-0.1046,0.0045-0.2388-0.0729-0.3479c0.005-0.1299,0.0035-0.2603-0.0533-0.3773
			c0.0306-0.1365,0.0148-0.2578-0.0235-0.3623c0.0387-0.2334-0.0008-0.3915-0.0008-0.3915l-193.3121,1.4823"/>
		<polyline fill="#FFFFFF" stroke="#000000" stroke-width="1.4701" stroke-miterlimit="10" points="22.668,1421.5946 
			215.9857,1421.5946 215.9857,1391.014 22.668,1391.014 		"/>
		<polyline fill="#FFFFFF" stroke="#000000" stroke-width="1.4701" stroke-miterlimit="10" points="22.668,1389.4045 
			215.9857,1389.4045 215.9857,1358.824 22.668,1358.824 		"/>
		<polyline fill="#FFFFFF" stroke="#000000" stroke-width="1.4701" stroke-miterlimit="10" points="22.668,1357.2145 
			215.9857,1357.2145 215.9857,1326.6338 22.668,1326.6338 		"/>
		<polyline fill="#FFFFFF" stroke="#000000" stroke-width="1.4701" stroke-miterlimit="10" points="22.668,1325.0243 
			215.9857,1325.0243 215.9857,1292.8342 22.668,1292.8342 		"/>
		<polyline fill="#FFFFFF" stroke="#000000" stroke-width="1.4701" stroke-miterlimit="10" points="22.668,1226.8445 
			215.9857,1226.8445 215.9857,1196.2639 22.668,1196.2639 		"/>
		<polyline fill="#FFFFFF" stroke="#000000" stroke-width="1.4701" stroke-miterlimit="10" points="22.668,1194.6544 
			215.9857,1194.6544 215.9857,1164.0737 22.668,1164.0737 		"/>
		<polyline fill="#FFFFFF" stroke="#000000" stroke-width="1.4701" stroke-miterlimit="10" points="22.668,1162.4644 
			215.9857,1162.4644 215.9857,1131.8837 22.668,1131.8837 		"/>
		<polyline fill="#FFFFFF" stroke="#000000" stroke-width="1.4701" stroke-miterlimit="10" points="22.668,1096.4745 
			215.9857,1096.4745 215.9857,1065.8939 22.668,1065.8939 		"/>
		<polyline fill="#FFFFFF" stroke="#000000" stroke-width="1.4701" stroke-miterlimit="10" points="22.668,1064.2844 
			215.9857,1064.2844 215.9857,1033.7039 22.668,1033.7039 		"/>
		<polyline fill="#FFFFFF" stroke="#000000" stroke-width="1.4701" stroke-miterlimit="10" points="22.668,1032.0944 
			215.9857,1032.0944 215.9857,1001.5137 22.668,1001.5137 		"/>
		<polyline fill="#FFFFFF" stroke="#000000" stroke-width="1.4701" stroke-miterlimit="10" points="22.668,1291.2246 
			215.9857,1291.2246 215.9857,1260.644 22.668,1260.644 		"/>
		<polyline fill="#FFFFFF" stroke="#000000" stroke-width="1.4701" stroke-miterlimit="10" points="22.668,1259.0345 
			215.9857,1259.0345 215.9857,1228.454 22.668,1228.454 		"/>
		<polyline fill="#FFFFFF" stroke="#000000" stroke-width="1.4701" stroke-miterlimit="10" points="352.8829,1622.668 
			352.8829,1429.3502 320.6928,1429.3502 320.6928,1622.668 		"/>
		<polyline fill="#FFFFFF" stroke="#000000" stroke-width="1.4701" stroke-miterlimit="10" points="319.0833,1622.668 
			319.0833,1429.3502 288.5027,1429.3502 288.5027,1622.668 		"/>
		<polyline fill="#FFFFFF" stroke="#000000" stroke-width="1.4701" stroke-miterlimit="10" points="772.9639,1622.668 
			772.9639,1429.3502 740.7738,1429.3502 740.7738,1622.668 		"/>
		<polyline fill="#FFFFFF" stroke="#000000" stroke-width="1.4701" stroke-miterlimit="10" points="739.1643,1622.668 
			739.1643,1429.3502 708.5837,1429.3502 708.5837,1622.668 		"/>
		<polyline fill="#FFFFFF" stroke="#000000" stroke-width="1.4701" stroke-miterlimit="10" points="1194.6544,1622.668 
			1194.6544,1429.3502 1164.0737,1429.3502 1164.0737,1622.668 		"/>
		<polyline fill="#FFFFFF" stroke="#000000" stroke-width="1.4701" stroke-miterlimit="10" points="1162.4644,1622.668 
			1162.4644,1429.3502 1130.2742,1429.3502 1130.2742,1622.668 		"/>
		<polyline fill="#FFFFFF" stroke="#000000" stroke-width="1.4701" stroke-miterlimit="10" points="22.668,1130.274 
			215.9857,1130.274 215.9857,1098.084 22.668,1098.084 		"/>
		<rect x="1377.3333" y="1499.1798" width="19.3141" height="123.4882"/>
		<rect x="1319.391" y="1499.1798" width="19.3141" height="123.4882"/>
		<rect x="1282.3723" y="1499.1798" width="19.3141" height="123.4882"/>
		<rect x="1246.9633" y="1499.1798" width="19.3141" height="123.4882"/>
		<rect x="1190.6305" y="1499.1798" width="19.3141" height="123.4882"/>
		<rect x="1150.3929" y="1499.1798" width="19.3141" height="123.4882"/>
		<rect x="1092.4508" y="1499.1798" width="19.3141" height="123.4882"/>
		<rect x="1055.4321" y="1499.1798" width="19.3141" height="123.4882"/>
		<rect x="1020.0229" y="1499.1798" width="19.3141" height="123.4882"/>
		<rect x="963.6903" y="1499.1798" width="19.3141" height="123.4882"/>
		<rect x="923.4526" y="1499.1798" width="19.3141" height="123.4882"/>
		<rect x="865.5106" y="1499.1798" width="19.314" height="123.4882"/>
		<rect x="828.4918" y="1499.1798" width="19.3141" height="123.4882"/>
		<rect x="793.0827" y="1499.1798" width="19.314" height="123.4882"/>
		<rect x="736.75" y="1499.1798" width="19.3141" height="123.4882"/>
		<rect x="696.5123" y="1499.1798" width="19.3141" height="123.4882"/>
		<rect x="638.5702" y="1499.1798" width="19.3141" height="123.4882"/>
		<rect x="601.5515" y="1499.1798" width="19.3141" height="123.4882"/>
		<rect x="566.1425" y="1499.1798" width="19.3141" height="123.4882"/>
		<rect x="509.8098" y="1499.1798" width="19.3141" height="123.4882"/>
		<rect x="469.5721" y="1499.1798" width="19.3141" height="123.4882"/>
		<rect x="411.6299" y="1499.1798" width="19.314" height="123.4882"/>
		<rect x="374.6113" y="1499.1798" width="19.3141" height="123.4882"/>
		<rect x="339.2022" y="1499.1798" width="19.3141" height="123.4882"/>
		<rect x="282.8695" y="1499.1798" width="19.3141" height="123.4882"/>
		<rect x="242.6318" y="1499.1798" width="19.3141" height="123.4882"/>
		<path d="M208.9077,1497.8745c0,0-0.2208-0.0386-0.6071-0.1063c-0.3867-0.0658-0.9411-0.1516-1.5915-0.3214
			c-1.3052-0.3175-3.0657-0.6625-4.7751-1.2007c-1.7371-0.4418-3.4171-1.0669-4.6931-1.4849
			c-0.6425-0.1971-1.1587-0.415-1.5222-0.5615c-0.3641-0.1448-0.572-0.2277-0.572-0.2277l-44.7322,115.1016
			c0,0,0.5474,0.213,1.5054,0.5859c0.9583,0.3722,2.3252,0.9075,3.9965,1.4701c3.333,1.1514,7.7788,2.6841,12.3175,3.9172
			c4.5107,1.3362,9.0965,2.3597,12.5349,3.1327c1.7171,0.3992,3.1591,0.6608,4.1686,0.8466
			c1.0096,0.1852,1.5865,0.2909,1.5865,0.2909L208.9077,1497.8745z"/>
		<path d="M183.3529,1488.1992c0,0-0.1994-0.1038-0.5252-0.324c-0.3301-0.213-0.8017-0.5173-1.3676-0.8824
			c-1.1588-0.6893-2.6055-1.7572-4.0748-2.7922c-0.7361-0.5159-1.4157-1.1083-2.0869-1.6174
			c-0.6637-0.5195-1.2939-0.9915-1.7888-1.4513c-1.0201-0.8831-1.7001-1.4716-1.7001-1.4716l-82.2885,92.0756
			c0,0,1.7646,1.5299,4.4114,3.8248c1.318,1.1536,2.9192,2.4247,4.6393,3.7816c1.7277,1.3473,3.5469,2.8138,5.4407,4.1847
			c3.7842,2.7491,7.6137,5.4333,10.5953,7.293c1.4818,0.9413,2.7166,1.7257,3.581,2.2748c0.8633,0.5502,1.3727,0.8398,1.3727,0.8398
			L183.3529,1488.1992z"/>
		<path d="M163.5144,1471.0151c0,0-0.5541-0.708-1.3852-1.77c-0.2098-0.2642-0.437-0.55-0.6774-0.8525
			c-0.2234-0.3149-0.459-0.6471-0.7027-0.9906c-0.4889-0.6862-1.0103-1.4178-1.5318-2.1497
			c-0.9405-1.5298-1.9806-2.9991-2.6058-4.1932c-0.674-1.165-1.1232-1.9418-1.1232-1.9418L47.1005,1518.29
			c0,0,1.1606,2.0354,2.9014,5.0885c1.7182,3.0695,4.2726,6.9921,6.8295,10.9133c1.3246,1.9266,2.6791,3.8335,3.9562,5.6154
			c0.6442,0.8867,1.2668,1.7438,1.8573,2.5565c0.6143,0.7941,1.1951,1.5448,1.7312,2.2377c2.1735,2.7498,3.6225,4.583,3.6225,4.583
			L163.5144,1471.0151z"/>
		<path d="M146.9268,1433.1683c0,0-0.1138-0.8907-0.2844-2.2267c-0.1119-0.6646-0.1346-1.4546-0.2047-2.2948
			c-0.0518-0.8424-0.159-1.7361-0.1875-2.6377c-0.0216-0.9025-0.0433-1.8049-0.0636-2.651
			c-0.0065-0.2115-0.013-0.4194-0.0193-0.6229l-0.0099-0.302c-0.0004-0.1293-0.0008-0.2568-0.0011-0.3827
			c0-0.5188,0-1.0092,0-1.4618c0-1.8107,0-3.0178,0-3.0178H22.668c0,0,0,1.2072,0,3.0178c0,0.4526,0,0.943,0,1.4618
			c0.0126,0.8954,0.0259,1.8398,0.0397,2.8168c0.0412,2.1777,0.1031,4.5009,0.1851,6.8223c0.0936,2.3226,0.293,4.6547,0.4524,6.8345
			c0.1776,2.1815,0.3226,4.2142,0.5536,5.9579c0.4394,3.4839,0.7324,5.8065,0.7324,5.8065L146.9268,1433.1683z"/>
		<rect x="22.668" y="1377.3333" width="123.4881" height="19.3141"/>
		<rect x="22.668" y="1319.391" width="123.4881" height="19.3141"/>
		<rect x="22.668" y="1282.3723" width="123.4881" height="19.3141"/>
		<rect x="22.668" y="1246.9633" width="123.4881" height="19.3141"/>
		<rect x="22.668" y="1190.6305" width="123.4881" height="19.3141"/>
		<rect x="22.668" y="1150.3929" width="123.4881" height="19.3141"/>
		<rect x="22.668" y="1092.4508" width="123.4881" height="19.3141"/>
		<rect x="22.668" y="1055.4321" width="123.4881" height="19.3141"/>
		<rect x="22.668" y="1020.023" width="123.4881" height="19.3141"/>
	</g>
	<g>
		<polyline fill="#FFFFFF" stroke="#000000" stroke-width="1.4701" stroke-miterlimit="10" points="1099.3124,22.668 
			1099.3124,215.9857 1129.8929,215.9857 1129.8929,22.668 		"/>
		<polyline fill="#FFFFFF" stroke="#000000" stroke-width="1.4701" stroke-miterlimit="10" points="22.668,967.7141 
			215.9857,967.7141 215.9857,937.1335 22.668,937.1335 		"/>
		<polyline fill="#FFFFFF" stroke="#000000" stroke-width="1.4701" stroke-miterlimit="10" points="22.668,935.5239 
			215.9857,935.5239 215.9857,904.9434 22.668,904.9434 		"/>
		<polyline fill="#FFFFFF" stroke="#000000" stroke-width="1.4701" stroke-miterlimit="10" points="22.668,903.3339 
			215.9857,903.3339 215.9857,871.1438 22.668,871.1438 		"/>
		<polyline fill="#FFFFFF" stroke="#000000" stroke-width="1.4701" stroke-miterlimit="10" points="22.668,869.5342 
			215.9857,869.5342 215.9857,838.9536 22.668,838.9536 		"/>
		<polyline fill="#FFFFFF" stroke="#000000" stroke-width="1.4701" stroke-miterlimit="10" points="22.668,837.3441 
			215.9857,837.3441 215.9857,806.7635 22.668,806.7635 		"/>
		<polyline fill="#FFFFFF" stroke="#000000" stroke-width="1.4701" stroke-miterlimit="10" points="22.668,805.1541 
			215.9857,805.1541 215.9857,774.5734 22.668,774.5734 		"/>
		<polyline fill="#FFFFFF" stroke="#000000" stroke-width="1.4701" stroke-miterlimit="10" points="22.668,772.9639 
			215.9857,772.9639 215.9857,742.3833 22.668,742.3833 		"/>
		<polyline fill="#FFFFFF" stroke="#000000" stroke-width="1.4701" stroke-miterlimit="10" points="22.668,674.7841 
			215.9857,674.7841 215.9857,644.2035 22.668,644.2035 		"/>
		<polyline fill="#FFFFFF" stroke="#000000" stroke-width="1.4701" stroke-miterlimit="10" points="22.668,642.5939 
			215.9857,642.5939 215.9857,612.0133 22.668,612.0133 		"/>
		<polyline fill="#FFFFFF" stroke="#000000" stroke-width="1.4701" stroke-miterlimit="10" points="22.668,610.4039 
			215.9857,610.4039 215.9857,579.8232 22.668,579.8232 		"/>
		<polyline fill="#FFFFFF" stroke="#000000" stroke-width="1.4701" stroke-miterlimit="10" points="22.668,578.2137 
			215.9857,578.2137 215.9857,547.6331 22.668,547.6331 		"/>
		<polyline fill="#FFFFFF" stroke="#000000" stroke-width="1.4701" stroke-miterlimit="10" points="22.668,546.0236 
			215.9857,546.0236 215.9857,515.443 22.668,515.443 		"/>
		<polyline fill="#FFFFFF" stroke="#000000" stroke-width="1.4701" stroke-miterlimit="10" points="22.668,513.8335 
			215.9857,513.8335 215.9857,481.6434 22.668,481.6434 		"/>
		<polyline fill="#FFFFFF" stroke="#000000" stroke-width="1.4701" stroke-miterlimit="10" points="22.668,480.0339 
			215.9857,480.0339 215.9857,449.4533 22.668,449.4533 		"/>
		<polyline fill="#FFFFFF" stroke="#000000" stroke-width="1.4701" stroke-miterlimit="10" points="22.668,447.8438 
			215.9857,447.8438 215.9857,417.2632 22.668,417.2632 		"/>
		<polyline fill="#FFFFFF" stroke="#000000" stroke-width="1.4701" stroke-miterlimit="10" points="22.668,415.6537 
			215.9857,415.6537 215.9857,385.0731 22.668,385.0731 		"/>
		<polyline fill="#FFFFFF" stroke="#000000" stroke-width="1.4701" stroke-miterlimit="10" points="22.668,383.4636 
			215.9857,383.4636 215.9857,352.8829 22.668,352.8829 		"/>
		<polyline fill="#FFFFFF" stroke="#000000" stroke-width="1.4701" stroke-miterlimit="10" points="22.668,351.2734 
			215.9857,351.2734 215.9857,320.6928 22.668,320.6928 		"/>
		<polyline fill="#FFFFFF" stroke="#000000" stroke-width="1.4701" stroke-miterlimit="10" points="22.668,253.0936 
			215.9857,253.0936 215.9956,222.9016 22.6795,222.1217 		"/>
		<path fill="#FFFFFF" stroke="#000000" stroke-width="1.4701" stroke-miterlimit="10" d="M22.7376,219.0246l193.2814,3.7449
			c0,0-0.0065-0.6373,0.0939-1.1042c0.0418-0.1153-0.0013-0.2497,0.0708-0.3442c0.0301-0.1048,0.0054-0.2171,0.0701-0.2879
			c0.0361-0.0787,0.0273-0.1557,0.0341-0.2062c0.0332-0.0421,0.0452-0.0681,0.0452-0.0681L32.5687,160.7392"/>
		<path fill="#FFFFFF" stroke="#000000" stroke-width="1.4701" stroke-miterlimit="10" d="M33.5693,157.7688l182.7986,62.9002
			c0,0,0.0011-0.1205,0.1006-0.2695c0.0154-0.0406,0.0212-0.0889,0.0261-0.1413c0.0381-0.0394,0.0696-0.0842,0.0916-0.1353
			c0.0294-0.0478,0.018-0.1158,0.0533-0.1655c0.0439-0.0457,0.0773-0.0971,0.0995-0.1544c0.0961-0.2264,0.2489-0.4353,0.3489-0.6038
			c0.0155-0.1059,0.1174-0.1402,0.1411-0.1937c0.035-0.0467,0.0492-0.0775,0.0492-0.0775L60.8968,105.2767"/>
		<path fill="#FFFFFF" stroke="#000000" stroke-width="1.4701" stroke-miterlimit="10" d="M62.7329,102.7578l154.5963,116.0677
			c0,0,0.129-0.0718,0.208-0.2709c0.0927-0.0584,0.1772-0.1435,0.2331-0.2679c0.1265-0.061,0.1925-0.1896,0.292-0.2877
			c0.4217-0.3671,0.8223-0.7389,0.8414-0.709L104.6774,61.3283"/>
		<path fill="#FFFFFF" stroke="#000000" stroke-width="1.4701" stroke-miterlimit="10" d="M107.213,59.5137l111.7878,157.7189
			c-0.0137-0.0207,0.4455-0.2998,0.8728-0.5284c0.4297-0.2349,0.8647-0.3608,0.8647-0.3608L160.0349,32.8036"/>
		<path fill="#FFFFFF" stroke="#000000" stroke-width="1.4701" stroke-miterlimit="10" d="M163.0107,31.8204l57.8121,184.4709
			c-0.0072-0.0252,0.1274,0.0277,0.2771-0.0728c0.0815-0.0315,0.1945,0.0005,0.2914-0.0647
			c0.1046-0.0403,0.2388,0.0044,0.348-0.0729c0.1299,0.0051,0.2602,0.0036,0.3772-0.0533c0.1365,0.0306,0.2579,0.0148,0.3624-0.0235
			c0.2334,0.0387,0.3914-0.0008,0.3914-0.0008l-1.4822-193.312"/>
		<polyline fill="#FFFFFF" stroke="#000000" stroke-width="1.4701" stroke-miterlimit="10" points="223.7413,22.668 
			223.7413,215.9857 254.3219,215.9857 254.3219,22.668 		"/>
		<polyline fill="#FFFFFF" stroke="#000000" stroke-width="1.4701" stroke-miterlimit="10" points="255.9314,22.668 
			255.9314,215.9857 286.512,215.9857 286.512,22.668 		"/>
		<polyline fill="#FFFFFF" stroke="#000000" stroke-width="1.4701" stroke-miterlimit="10" points="288.1215,22.668 
			288.1215,215.9857 318.7021,215.9857 318.7021,22.668 		"/>
		<polyline fill="#FFFFFF" stroke="#000000" stroke-width="1.4701" stroke-miterlimit="10" points="320.3116,22.668 
			320.3116,215.9857 350.8922,215.9857 350.8922,22.668 		"/>
		<polyline fill="#FFFFFF" stroke="#000000" stroke-width="1.4701" stroke-miterlimit="10" points="352.5017,22.668 
			352.5017,215.9857 383.0823,215.9857 383.0823,22.668 		"/>
		<polyline fill="#FFFFFF" stroke="#000000" stroke-width="1.4701" stroke-miterlimit="10" points="450.6815,22.668 
			450.6815,215.9857 481.2622,215.9857 481.2622,22.668 		"/>
		<polyline fill="#FFFFFF" stroke="#000000" stroke-width="1.4701" stroke-miterlimit="10" points="482.8716,22.668 
			482.8716,215.9857 513.4523,215.9857 513.4523,22.668 		"/>
		<polyline fill="#FFFFFF" stroke="#000000" stroke-width="1.4701" stroke-miterlimit="10" points="515.0618,22.668 
			515.0618,215.9857 545.6424,215.9857 545.6424,22.668 		"/>
		<polyline fill="#FFFFFF" stroke="#000000" stroke-width="1.4701" stroke-miterlimit="10" points="547.2519,22.668 
			547.2519,215.9857 577.8325,215.9857 577.8325,22.668 		"/>
		<polyline fill="#FFFFFF" stroke="#000000" stroke-width="1.4701" stroke-miterlimit="10" points="579.442,22.668 
			579.442,215.9857 611.6321,215.9857 611.6321,22.668 		"/>
		<polyline fill="#FFFFFF" stroke="#000000" stroke-width="1.4701" stroke-miterlimit="10" points="613.2416,22.668 
			613.2416,215.9857 643.8222,215.9857 643.8222,22.668 		"/>
		<polyline fill="#FFFFFF" stroke="#000000" stroke-width="1.4701" stroke-miterlimit="10" points="645.4317,22.668 
			645.4317,215.9857 676.0123,215.9857 676.0123,22.668 		"/>
		<polyline fill="#FFFFFF" stroke="#000000" stroke-width="1.4701" stroke-miterlimit="10" points="677.6218,22.668 
			677.6218,215.9857 708.2025,215.9857 708.2025,22.668 		"/>
		<polyline fill="#FFFFFF" stroke="#000000" stroke-width="1.4701" stroke-miterlimit="10" points="709.812,22.668 
			709.812,215.9857 740.3926,215.9857 740.3926,22.668 		"/>
		<polyline fill="#FFFFFF" stroke="#000000" stroke-width="1.4701" stroke-miterlimit="10" points="742.0021,22.668 
			742.0021,215.9857 772.5826,215.9857 772.5826,22.668 		"/>
		<polyline fill="#FFFFFF" stroke="#000000" stroke-width="1.4701" stroke-miterlimit="10" points="774.1922,22.668 
			774.1922,215.9857 806.3823,215.9857 806.3823,22.668 		"/>
		<polyline fill="#FFFFFF" stroke="#000000" stroke-width="1.4701" stroke-miterlimit="10" points="872.3719,22.668 
			872.3719,215.9857 902.9526,215.9857 902.9526,22.668 		"/>
		<polyline fill="#FFFFFF" stroke="#000000" stroke-width="1.4701" stroke-miterlimit="10" points="904.5621,22.668 
			904.5621,215.9857 935.1428,215.9857 935.1428,22.668 		"/>
		<polyline fill="#FFFFFF" stroke="#000000" stroke-width="1.4701" stroke-miterlimit="10" points="936.7523,22.668 
			936.7523,215.9857 967.3328,215.9857 967.3328,22.668 		"/>
		<polyline fill="#FFFFFF" stroke="#000000" stroke-width="1.4701" stroke-miterlimit="10" points="1002.7419,22.668 
			1002.7419,215.9857 1033.3226,215.9857 1033.3226,22.668 		"/>
		<polyline fill="#FFFFFF" stroke="#000000" stroke-width="1.4701" stroke-miterlimit="10" points="1034.932,22.668 
			1034.932,215.9857 1065.5127,215.9857 1065.5127,22.668 		"/>
		<polyline fill="#FFFFFF" stroke="#000000" stroke-width="1.4701" stroke-miterlimit="10" points="1067.1222,22.668 
			1067.1222,215.9857 1097.7028,215.9857 1097.7028,22.668 		"/>
		<polyline fill="#FFFFFF" stroke="#000000" stroke-width="1.4701" stroke-miterlimit="10" points="807.9918,22.668 
			807.9918,215.9857 838.5724,215.9857 838.5724,22.668 		"/>
		<polyline fill="#FFFFFF" stroke="#000000" stroke-width="1.4701" stroke-miterlimit="10" points="840.1819,22.668 
			840.1819,215.9857 870.7626,215.9857 870.7626,22.668 		"/>
		<polyline fill="#FFFFFF" stroke="#000000" stroke-width="1.4701" stroke-miterlimit="10" points="384.6918,22.668 
			384.6918,215.9857 416.882,215.9857 416.882,22.668 		"/>
		<polyline fill="#FFFFFF" stroke="#000000" stroke-width="1.4701" stroke-miterlimit="10" points="418.4915,22.668 
			418.4915,215.9857 449.0721,215.9857 449.0721,22.668 		"/>
		<polyline fill="#FFFFFF" stroke="#000000" stroke-width="1.4701" stroke-miterlimit="10" points="22.668,319.0833 
			215.9857,319.0833 215.9857,286.8932 22.668,286.8932 		"/>
		<polyline fill="#FFFFFF" stroke="#000000" stroke-width="1.4701" stroke-miterlimit="10" points="22.668,285.2837 
			215.9857,285.2837 215.9857,254.7031 22.668,254.7031 		"/>
		<polyline fill="#FFFFFF" stroke="#000000" stroke-width="1.4701" stroke-miterlimit="10" points="22.668,740.7738 
			215.9857,740.7738 215.9857,710.1932 22.668,710.1932 		"/>
		<polyline fill="#FFFFFF" stroke="#000000" stroke-width="1.4701" stroke-miterlimit="10" points="22.668,708.5837 
			215.9857,708.5837 215.9857,676.3936 22.668,676.3936 		"/>
		<polyline fill="#FFFFFF" stroke="#000000" stroke-width="1.4701" stroke-miterlimit="10" points="968.9423,22.668 
			968.9423,215.9857 1001.1324,215.9857 1001.1324,22.668 		"/>
		<rect x="22.668" y="923.4527" width="123.4881" height="19.3141"/>
		<rect x="22.668" y="865.5104" width="123.4881" height="19.3141"/>
		<rect x="22.668" y="828.4918" width="123.4881" height="19.3141"/>
		<rect x="22.668" y="793.0827" width="123.4881" height="19.3141"/>
		<rect x="22.668" y="736.75" width="123.4881" height="19.3141"/>
		<rect x="22.668" y="696.5124" width="123.4881" height="19.3141"/>
		<rect x="22.668" y="638.5701" width="123.4881" height="19.3141"/>
		<rect x="22.668" y="601.5516" width="123.4881" height="19.314"/>
		<rect x="22.668" y="566.1424" width="123.4881" height="19.314"/>
		<rect x="22.668" y="509.8097" width="123.4881" height="19.3141"/>
		<rect x="22.668" y="469.5721" width="123.4881" height="19.3141"/>
		<rect x="22.668" y="411.6299" width="123.4881" height="19.3141"/>
		<rect x="22.668" y="374.6113" width="123.4881" height="19.314"/>
		<rect x="22.668" y="339.2022" width="123.4881" height="19.3141"/>
		<rect x="22.668" y="282.8695" width="123.4881" height="19.3141"/>
		<rect x="22.668" y="242.6318" width="123.4881" height="19.3141"/>
		<path d="M147.4614,208.9077c0,0,0.0387-0.2208,0.1064-0.6071c0.0658-0.3867,0.1515-0.9411,0.3215-1.5915
			c0.3175-1.3052,0.6624-3.0657,1.2006-4.7751c0.4418-1.7371,1.0669-3.417,1.4848-4.6931c0.1972-0.6425,0.4151-1.1587,0.5615-1.5221
			c0.1449-0.364,0.2276-0.5721,0.2276-0.5721L36.2623,150.4145c0,0-0.2131,0.5474-0.586,1.5054
			c-0.3721,0.9583-0.9075,2.3252-1.4701,3.9965c-1.1514,3.333-2.6841,7.7788-3.9172,12.3175
			c-1.3362,4.5107-2.3598,9.0965-3.1327,12.5349c-0.3992,1.7172-0.6607,3.1591-0.8465,4.1686
			c-0.1852,1.0096-0.291,1.5865-0.291,1.5865L147.4614,208.9077z"/>
		<path d="M157.1367,183.3529c0,0,0.1037-0.1993,0.3239-0.5252c0.213-0.3301,0.5173-0.8017,0.8825-1.3676
			c0.6893-1.1588,1.7572-2.6055,2.7923-4.0748c0.5158-0.736,1.1082-1.4157,1.6174-2.0869c0.5195-0.6637,0.9915-1.2939,1.4513-1.7888
			c0.883-1.02,1.4716-1.7,1.4716-1.7L73.6001,89.5211c0,0-1.53,1.7646-3.8248,4.4114c-1.1536,1.318-2.4247,2.9192-3.7817,4.6393
			c-1.3473,1.7277-2.8139,3.5469-4.1847,5.4407c-2.7491,3.7842-5.4333,7.6137-7.293,10.5953
			c-0.9413,1.4818-1.7257,2.7166-2.2747,3.581c-0.5502,0.8633-0.8399,1.3728-0.8399,1.3728L157.1367,183.3529z"/>
		<path d="M174.3208,163.5144c0,0,0.7081-0.5541,1.7701-1.3853c0.264-0.2098,0.55-0.437,0.8525-0.6774
			c0.3149-0.2234,0.6471-0.459,0.9906-0.7027c0.686-0.4889,1.4178-1.0104,2.1495-1.5318c1.5298-0.9405,2.9991-1.9806,4.1932-2.6058
			c1.1651-0.6739,1.9419-1.1232,1.9419-1.1232L127.0459,47.1005c0,0-2.0354,1.1606-5.0886,2.9014
			c-3.0695,1.7182-6.9921,4.2726-10.9133,6.8295c-1.9266,1.3246-3.8334,2.679-5.6154,3.9562
			c-0.8866,0.6442-1.7437,1.2668-2.5564,1.8573c-0.7941,0.6143-1.5448,1.1951-2.2378,1.7312
			c-2.7497,2.1735-4.5829,3.6225-4.5829,3.6225L174.3208,163.5144z"/>
		<path d="M212.1676,146.9268c0,0,0.8907-0.1138,2.2267-0.2844c0.6645-0.1119,1.4546-0.1346,2.2948-0.2047
			c0.8424-0.0518,1.736-0.1591,2.6377-0.1875c0.9024-0.0217,1.8049-0.0433,2.6509-0.0636c0.2115-0.0066,0.4195-0.013,0.623-0.0193
			l0.302-0.01c0.1292-0.0004,0.2569-0.0008,0.3827-0.0011c0.5187,0,1.0091,0,1.4618,0c1.8107,0,3.0179,0,3.0179,0V22.668
			c0,0-1.2072,0-3.0179,0c-0.4527,0-0.9431,0-1.4618,0c-0.8955,0.0126-1.8399,0.0259-2.8168,0.0397
			c-2.1777,0.0412-4.5008,0.1031-6.8223,0.1851c-2.3226,0.0936-4.6546,0.293-6.8345,0.4525
			c-2.1814,0.1776-4.2143,0.3226-5.9579,0.5537c-3.4839,0.4394-5.8064,0.7323-5.8064,0.7323L212.1676,146.9268z"/>
		<rect x="248.6886" y="22.668" width="19.3141" height="123.4881"/>
		<rect x="306.6308" y="22.668" width="19.3141" height="123.4881"/>
		<rect x="343.6494" y="22.668" width="19.3141" height="123.4881"/>
		<rect x="379.0586" y="22.668" width="19.3141" height="123.4881"/>
		<rect x="435.3913" y="22.668" width="19.314" height="123.4881"/>
		<rect x="475.6289" y="22.668" width="19.3141" height="123.4881"/>
		<rect x="533.5711" y="22.668" width="19.3141" height="123.4881"/>
		<rect x="570.5898" y="22.668" width="19.314" height="123.4881"/>
		<rect x="605.9988" y="22.668" width="19.3141" height="123.4881"/>
		<rect x="662.3315" y="22.668" width="19.3141" height="123.4881"/>
		<rect x="702.5691" y="22.668" width="19.3141" height="123.4881"/>
		<rect x="760.5114" y="22.668" width="19.3141" height="123.4881"/>
		<rect x="797.5299" y="22.668" width="19.3141" height="123.4881"/>
		<rect x="832.9391" y="22.668" width="19.3141" height="123.4881"/>
		<rect x="889.2719" y="22.668" width="19.3141" height="123.4881"/>
		<rect x="929.5095" y="22.668" width="19.3141" height="123.4881"/>
		<rect x="987.4517" y="22.668" width="19.3141" height="123.4881"/>
		<rect x="1024.4703" y="22.668" width="19.314" height="123.4881"/>
		<rect x="1059.8795" y="22.668" width="19.314" height="123.4881"/>
	</g>
	<g>
		<path fill="#FFFFFF" stroke="#000000" stroke-width="1.4701" stroke-miterlimit="10" d="M1482.3252,1613.5155l-57.812-184.4709
			c0.0072,0.0251-0.1274-0.0277-0.2771,0.0728c-0.0814,0.0316-0.1945-0.0004-0.2915,0.0648
			c-0.1045,0.0404-0.2388-0.0045-0.3479,0.0729c-0.1299-0.005-0.2603-0.0035-0.3773,0.0533
			c-0.1364-0.0306-0.2579-0.0149-0.3623,0.0236c-0.2334-0.0387-0.3914,0.0007-0.3914,0.0007l1.4822,193.312"/>
		<polyline fill="#FFFFFF" stroke="#000000" stroke-width="1.4701" stroke-miterlimit="10" points="1131.5024,22.668 
			1131.5024,215.9857 1162.083,215.9857 1162.083,22.668 		"/>
		<polyline fill="#FFFFFF" stroke="#000000" stroke-width="1.4701" stroke-miterlimit="10" points="1163.6925,22.668 
			1163.6925,215.9857 1194.2732,215.9857 1194.2732,22.668 		"/>
		<polyline fill="#FFFFFF" stroke="#000000" stroke-width="1.4701" stroke-miterlimit="10" points="1195.8826,22.668 
			1195.8826,215.9857 1228.0728,215.9857 1228.0728,22.668 		"/>
		<polyline fill="#FFFFFF" stroke="#000000" stroke-width="1.4701" stroke-miterlimit="10" points="1229.6823,22.668 
			1229.6823,215.9857 1260.2628,215.9857 1260.2628,22.668 		"/>
		<polyline fill="#FFFFFF" stroke="#000000" stroke-width="1.4701" stroke-miterlimit="10" points="1261.8724,22.668 
			1261.8724,215.9857 1292.453,215.9857 1292.453,22.668 		"/>
		<polyline fill="#FFFFFF" stroke="#000000" stroke-width="1.4701" stroke-miterlimit="10" points="1294.0625,22.668 
			1294.0625,215.9857 1324.6431,215.9857 1324.6431,22.668 		"/>
		<polyline fill="#FFFFFF" stroke="#000000" stroke-width="1.4701" stroke-miterlimit="10" points="1326.2526,22.668 
			1326.2526,215.9857 1356.8333,215.9857 1356.8333,22.668 		"/>
		<path fill="#FFFFFF" stroke="#000000" stroke-width="1.4701" stroke-miterlimit="10" d="M1426.3114,22.7376l-3.7449,193.2815
			c0,0,0.6372-0.0065,1.104,0.0939c0.1154,0.0418,0.2498-0.0013,0.3442,0.0708c0.1047,0.0301,0.217,0.0053,0.2878,0.0701
			c0.0787,0.0362,0.1556,0.0273,0.2063,0.0341c0.0421,0.0333,0.0681,0.0452,0.0681,0.0452l60.0198-183.7645"/>
		<path fill="#FFFFFF" stroke="#000000" stroke-width="1.4701" stroke-miterlimit="10" d="M1487.567,33.5693l-62.9001,182.7986
			c0,0,0.1205,0.0011,0.2695,0.1006c0.0406,0.0154,0.0889,0.0212,0.1412,0.0261c0.0396,0.0381,0.0844,0.0695,0.1354,0.0915
			c0.0477,0.0295,0.1157,0.018,0.1654,0.0533c0.0458,0.0439,0.097,0.0773,0.1544,0.0995c0.2264,0.0961,0.4353,0.2489,0.6039,0.349
			c0.1058,0.0155,0.1401,0.1173,0.1937,0.1411c0.0466,0.035,0.0775,0.0492,0.0775,0.0492l113.6512-156.3814"/>
		<path fill="#FFFFFF" stroke="#000000" stroke-width="1.4701" stroke-miterlimit="10" d="M1542.578,62.7329l-116.0676,154.5963
			c0,0,0.0718,0.129,0.2709,0.208c0.0583,0.0927,0.1434,0.1772,0.2679,0.2331c0.061,0.1265,0.1897,0.1925,0.2877,0.292
			c0.3671,0.4216,0.7388,0.8223,0.7089,0.8414l155.9618-114.2264"/>
		<path fill="#FFFFFF" stroke="#000000" stroke-width="1.4701" stroke-miterlimit="10" d="M1585.8223,107.213l-157.7189,111.7878
			c0.0208-0.0137,0.2998,0.4454,0.5284,0.8728c0.2347,0.4297,0.3607,0.8647,0.3607,0.8647l183.5398-60.7033"/>
		<path fill="#FFFFFF" stroke="#000000" stroke-width="1.4701" stroke-miterlimit="10" d="M1613.5156,163.0107l-184.4711,57.812
			c0.0251-0.0072-0.0277,0.1274,0.0729,0.2771c0.0315,0.0815-0.0005,0.1944,0.0646,0.2914c0.0404,0.1047-0.0044,0.2388,0.073,0.348
			c-0.005,0.1299-0.0035,0.2602,0.0533,0.3772c-0.0306,0.1365-0.0149,0.2579,0.0236,0.3624
			c-0.0387,0.2334,0.0007,0.3914,0.0007,0.3914l193.312-1.4822"/>
		<polyline fill="#FFFFFF" stroke="#000000" stroke-width="1.4701" stroke-miterlimit="10" points="1622.6678,223.7413 
			1429.3502,223.7413 1429.3502,255.9314 1622.6678,255.9314 		"/>
		<polyline fill="#FFFFFF" stroke="#000000" stroke-width="1.4701" stroke-miterlimit="10" points="1622.6678,257.5409 
			1429.3502,257.5409 1429.3502,288.1215 1622.6678,288.1215 		"/>
		<polyline fill="#FFFFFF" stroke="#000000" stroke-width="1.4701" stroke-miterlimit="10" points="1622.6678,289.731 
			1429.3502,289.731 1429.3502,320.3116 1622.6678,320.3116 		"/>
		<polyline fill="#FFFFFF" stroke="#000000" stroke-width="1.4701" stroke-miterlimit="10" points="1622.6678,321.9211 
			1429.3502,321.9211 1429.3502,352.5017 1622.6678,352.5017 		"/>
		<polyline fill="#FFFFFF" stroke="#000000" stroke-width="1.4701" stroke-miterlimit="10" points="1622.6678,354.1112 
			1429.3502,354.1112 1429.3502,384.6918 1622.6678,384.6918 		"/>
		<polyline fill="#FFFFFF" stroke="#000000" stroke-width="1.4701" stroke-miterlimit="10" points="1622.6678,386.3013 
			1429.3502,386.3013 1429.3502,416.882 1622.6678,416.882 		"/>
		<polyline fill="#FFFFFF" stroke="#000000" stroke-width="1.4701" stroke-miterlimit="10" points="1622.6678,484.4812 
			1429.3502,484.4812 1429.3502,515.0618 1622.6678,515.0618 		"/>
		<polyline fill="#FFFFFF" stroke="#000000" stroke-width="1.4701" stroke-miterlimit="10" points="1622.6678,516.6713 
			1429.3502,516.6713 1429.3502,547.2519 1622.6678,547.2519 		"/>
		<polyline fill="#FFFFFF" stroke="#000000" stroke-width="1.4701" stroke-miterlimit="10" points="1622.6678,548.8614 
			1429.3502,548.8614 1429.3502,579.442 1622.6678,579.442 		"/>
		<polyline fill="#FFFFFF" stroke="#000000" stroke-width="1.4701" stroke-miterlimit="10" points="1622.6678,581.0515 
			1429.3502,581.0515 1429.3502,611.6321 1622.6678,611.6321 		"/>
		<polyline fill="#FFFFFF" stroke="#000000" stroke-width="1.4701" stroke-miterlimit="10" points="1622.6678,613.2416 
			1429.3502,613.2416 1429.3502,643.8223 1622.6678,643.8223 		"/>
		<polyline fill="#FFFFFF" stroke="#000000" stroke-width="1.4701" stroke-miterlimit="10" points="1622.6678,645.4317 
			1429.3502,645.4317 1429.3502,676.0123 1622.6678,676.0123 		"/>
		<polyline fill="#FFFFFF" stroke="#000000" stroke-width="1.4701" stroke-miterlimit="10" points="1622.6678,677.6218 
			1429.3502,677.6218 1429.3502,708.2025 1622.6678,708.2025 		"/>
		<polyline fill="#FFFFFF" stroke="#000000" stroke-width="1.4701" stroke-miterlimit="10" points="1622.6678,709.812 
			1429.3502,709.812 1429.3502,740.3926 1622.6678,740.3926 		"/>
		<polyline fill="#FFFFFF" stroke="#000000" stroke-width="1.4701" stroke-miterlimit="10" points="1622.6678,742.0021 
			1429.3502,742.0021 1429.3502,772.5826 1622.6678,772.5826 		"/>
		<polyline fill="#FFFFFF" stroke="#000000" stroke-width="1.4701" stroke-miterlimit="10" points="1622.6678,774.1922 
			1429.3502,774.1922 1429.3502,804.7728 1622.6678,804.7728 		"/>
		<polyline fill="#FFFFFF" stroke="#000000" stroke-width="1.4701" stroke-miterlimit="10" points="1622.6678,806.3823 
			1429.3502,806.3823 1429.3502,836.9629 1622.6678,836.9629 		"/>
		<polyline fill="#FFFFFF" stroke="#000000" stroke-width="1.4701" stroke-miterlimit="10" points="1622.6678,904.5621 
			1429.3502,904.5621 1429.3502,935.1427 1622.6678,935.1427 		"/>
		<polyline fill="#FFFFFF" stroke="#000000" stroke-width="1.4701" stroke-miterlimit="10" points="1622.6678,936.7523 
			1429.3502,936.7523 1429.3502,967.3329 1622.6678,967.3329 		"/>
		<polyline fill="#FFFFFF" stroke="#000000" stroke-width="1.4701" stroke-miterlimit="10" points="1622.6678,968.9423 
			1429.3502,968.9423 1429.3502,999.5229 1622.6678,999.5229 		"/>
		<polyline fill="#FFFFFF" stroke="#000000" stroke-width="1.4701" stroke-miterlimit="10" points="1622.6678,1001.1324 
			1429.3502,1001.1324 1429.3502,1031.7131 1622.6678,1031.7131 		"/>
		<polyline fill="#FFFFFF" stroke="#000000" stroke-width="1.4701" stroke-miterlimit="10" points="1622.6678,1033.3226 
			1429.3502,1033.3226 1429.3502,1065.5127 1622.6678,1065.5127 		"/>
		<polyline fill="#FFFFFF" stroke="#000000" stroke-width="1.4701" stroke-miterlimit="10" points="1622.6678,1067.1222 
			1429.3502,1067.1222 1429.3502,1097.7028 1622.6678,1097.7028 		"/>
		<polyline fill="#FFFFFF" stroke="#000000" stroke-width="1.4701" stroke-miterlimit="10" points="1622.6678,1099.3123 
			1429.3502,1099.3123 1429.3502,1129.8929 1622.6678,1129.8929 		"/>
		<polyline fill="#FFFFFF" stroke="#000000" stroke-width="1.4701" stroke-miterlimit="10" points="1622.6678,1131.5024 
			1429.3502,1131.5024 1429.3502,1162.083 1622.6678,1162.083 		"/>
		<polyline fill="#FFFFFF" stroke="#000000" stroke-width="1.4701" stroke-miterlimit="10" points="1622.6678,1163.6925 
			1429.3502,1163.6925 1429.3502,1194.2732 1622.6678,1194.2732 		"/>
		<polyline fill="#FFFFFF" stroke="#000000" stroke-width="1.4701" stroke-miterlimit="10" points="1622.6678,1195.8827 
			1429.3502,1195.8827 1429.3502,1226.4633 1622.6678,1226.4633 		"/>
		<polyline fill="#FFFFFF" stroke="#000000" stroke-width="1.4701" stroke-miterlimit="10" points="1622.6678,1228.0728 
			1429.3502,1228.0728 1429.3502,1260.2628 1622.6678,1260.2628 		"/>
		<polyline fill="#FFFFFF" stroke="#000000" stroke-width="1.4701" stroke-miterlimit="10" points="1622.6678,1326.2526 
			1429.3502,1326.2526 1429.3502,1356.8333 1622.6678,1356.8333 		"/>
		<polyline fill="#FFFFFF" stroke="#000000" stroke-width="1.4701" stroke-miterlimit="10" points="1622.6678,1358.4426 
			1429.3502,1358.4426 1429.3502,1389.0233 1622.6678,1389.0233 		"/>
		<polyline fill="#FFFFFF" stroke="#000000" stroke-width="1.4701" stroke-miterlimit="10" points="1622.6678,1390.6328 
			1429.3502,1390.6328 1429.3502,1421.2134 1622.6678,1421.2134 		"/>
		<path fill="#FFFFFF" stroke="#000000" stroke-width="1.4701" stroke-miterlimit="10" d="M1611.7665,1487.567l-182.7985-62.9001
			c0,0-0.001,0.1205-0.1006,0.2695c-0.0154,0.0406-0.0212,0.0889-0.0261,0.1412c-0.0381,0.0394-0.0696,0.0844-0.0916,0.1354
			c-0.0295,0.0477-0.0179,0.1157-0.0532,0.1655c-0.0438,0.0457-0.0773,0.0969-0.0995,0.1543
			c-0.0961,0.2263-0.2489,0.4353-0.349,0.6039c-0.0155,0.1058-0.1173,0.1401-0.1411,0.1937
			c-0.0349,0.0466-0.0491,0.0775-0.0491,0.0775l156.3813,113.6512"/>
		<path fill="#FFFFFF" stroke="#000000" stroke-width="1.4701" stroke-miterlimit="10" d="M1582.603,1542.5781l-154.5964-116.0677
			c0,0-0.1289,0.0718-0.2079,0.2709c-0.0928,0.0583-0.1772,0.1434-0.2332,0.2679c-0.1265,0.061-0.1924,0.1896-0.2921,0.2877
			c-0.4215,0.3671-0.8221,0.7388-0.8412,0.7089l114.2262,155.9619"/>
		<path fill="#FFFFFF" stroke="#000000" stroke-width="1.4701" stroke-miterlimit="10" d="M1538.1229,1585.8223l-111.7878-157.7189
			c0.0138,0.0208-0.4454,0.2998-0.8727,0.5284c-0.4297,0.2347-0.8647,0.3607-0.8647,0.3607l60.7034,183.5397"/>
		<polyline fill="#FFFFFF" stroke="#000000" stroke-width="1.4701" stroke-miterlimit="10" points="1622.6678,1261.8724 
			1429.3502,1261.8724 1429.3502,1292.453 1622.6678,1292.453 		"/>
		<polyline fill="#FFFFFF" stroke="#000000" stroke-width="1.4701" stroke-miterlimit="10" points="1622.6678,1294.0625 
			1429.3502,1294.0625 1429.3502,1324.6431 1622.6678,1324.6431 		"/>
		<polyline fill="#FFFFFF" stroke="#000000" stroke-width="1.4701" stroke-miterlimit="10" points="1622.6678,838.5724 
			1429.3502,838.5724 1429.3502,870.7625 1622.6678,870.7625 		"/>
		<polyline fill="#FFFFFF" stroke="#000000" stroke-width="1.4701" stroke-miterlimit="10" points="1622.6678,872.372 
			1429.3502,872.372 1429.3502,902.9526 1622.6678,902.9526 		"/>
		<polyline fill="#FFFFFF" stroke="#000000" stroke-width="1.4701" stroke-miterlimit="10" points="1622.6678,418.4914 
			1429.3502,418.4914 1429.3502,450.6815 1622.6678,450.6815 		"/>
		<polyline fill="#FFFFFF" stroke="#000000" stroke-width="1.4701" stroke-miterlimit="10" points="1622.6678,452.2911 
			1429.3502,452.2911 1429.3502,482.8717 1622.6678,482.8717 		"/>
		<polyline fill="#FFFFFF" stroke="#000000" stroke-width="1.4701" stroke-miterlimit="10" points="1358.4426,22.668 
			1358.4426,215.9857 1389.0233,215.9857 1389.0233,22.668 		"/>
		<polyline fill="#FFFFFF" stroke="#000000" stroke-width="1.4701" stroke-miterlimit="10" points="1390.6328,22.668 
			1390.6328,215.9857 1422.4343,215.9956 1423.2142,22.6795 		"/>
		<path fill="#FFFFFF" stroke="#000000" stroke-width="1.4701" stroke-miterlimit="10" d="M1622.6565,1423.2142l-193.3163-0.7799
			c0,0-0.0564,0.1649-0.0048,0.4133c-0.043,0.1097-0.0574,0.2379-0.0267,0.3812c-0.0762,0.1188-0.0372,0.2651-0.0663,0.3931
			c-0.0699,0.2505-0.0862,0.4974-0.1543,0.6667c-0.0398,0.0825-0.0367,0.1615-0.0374,0.2167
			c-0.0355,0.0442-0.048,0.0717-0.048,0.0717l183.7645,60.0198"/>
		<rect x="1156.4497" y="22.668" width="19.3141" height="123.4881"/>
		<rect x="1214.392" y="22.668" width="19.3141" height="123.4881"/>
		<rect x="1251.4105" y="22.668" width="19.3141" height="123.4881"/>
		<rect x="1286.8197" y="22.668" width="19.3141" height="123.4881"/>
		<rect x="1343.1523" y="22.668" width="19.3141" height="123.4881"/>
		<rect x="1383.3901" y="22.668" width="19.314" height="123.4881"/>
		<path d="M1436.4282,147.4614c0,0,0.2208,0.0387,0.6072,0.1063c0.3867,0.0658,0.941,0.1515,1.5914,0.3215
			c1.3053,0.3175,3.0657,0.6624,4.775,1.2006c1.7371,0.4418,3.4171,1.0669,4.6931,1.4848c0.6425,0.1972,1.1588,0.4151,1.5222,0.5616
			c0.364,0.1448,0.572,0.2276,0.572,0.2276l44.7322-115.1015c0,0-0.5474-0.2131-1.5054-0.586
			c-0.9583-0.3721-2.3252-0.9075-3.9965-1.4701c-3.333-1.1514-7.7788-2.6841-12.3175-3.9172
			c-4.5106-1.3362-9.0966-2.3598-12.5348-3.1327c-1.7172-0.3992-3.1592-0.6607-4.1687-0.8465
			c-1.0095-0.1851-1.5864-0.2909-1.5864-0.2909L1436.4282,147.4614z"/>
		<path d="M1461.983,157.1367c0,0,0.1993,0.1037,0.5251,0.3239c0.3301,0.213,0.8018,0.5173,1.3677,0.8825
			c1.1587,0.6893,2.6055,1.7571,4.0747,2.7922c0.736,0.5159,1.4158,1.1082,2.0869,1.6174c0.6637,0.5195,1.2938,0.9914,1.7888,1.4513
			c1.02,0.883,1.7001,1.4716,1.7001,1.4716l82.2885-92.0756c0,0-1.7645-1.5299-4.4114-3.8248
			c-1.3181-1.1536-2.9192-2.4247-4.6393-3.7817c-1.7278-1.3473-3.547-2.8139-5.4407-4.1847
			c-3.7843-2.7491-7.6136-5.4333-10.5955-7.293c-1.4818-0.9413-2.7166-1.7257-3.5809-2.2747
			c-0.8633-0.5502-1.3728-0.8399-1.3728-0.8399L1461.983,157.1367z"/>
		<path d="M1481.8215,174.3208c0,0,0.5541,0.708,1.3853,1.7701c0.2097,0.264,0.4369,0.55,0.6774,0.8525
			c0.2234,0.3149,0.459,0.6471,0.7026,0.9906c0.4889,0.686,1.0104,1.4178,1.5319,2.1496c0.9406,1.5298,1.9806,2.9991,2.6057,4.1932
			c0.674,1.1651,1.1233,1.9419,1.1233,1.9419l108.3878-59.1727c0,0-1.1606-2.0354-2.9014-5.0886
			c-1.7184-3.0695-4.2728-6.9921-6.8296-10.9133c-1.3245-1.9266-2.6791-3.8334-3.9562-5.6154
			c-0.6442-0.8866-1.267-1.7437-1.8574-2.5564c-0.6144-0.7941-1.1951-1.5448-1.7312-2.2378
			c-2.1735-2.7497-3.6226-4.5828-3.6226-4.5828L1481.8215,174.3208z"/>
		<path d="M1498.4091,212.1676c0,0,0.1139,0.8907,0.2844,2.2267c0.1119,0.6645,0.1348,1.4546,0.2047,2.2949
			c0.0519,0.8424,0.1592,1.736,0.1876,2.6377c0.0217,0.9024,0.0432,1.8049,0.0636,2.6509c0.0066,0.2115,0.0131,0.4195,0.0193,0.623
			l0.01,0.3019c0.0002,0.1292,0.0007,0.2568,0.0011,0.3828c0,0.5187,0,1.0091,0,1.4618c0,1.8107,0,3.0178,0,3.0178h123.488
			c0,0,0-1.2071,0-3.0178c0-0.4527,0-0.9431,0-1.4618c-0.0125-0.8955-0.0258-1.8399-0.0397-2.8168
			c-0.0411-2.1777-0.1029-4.5009-0.1849-6.8224c-0.0938-2.3226-0.293-4.6546-0.4524-6.8344
			c-0.1776-2.1814-0.3226-4.2143-0.5537-5.9579c-0.4393-3.4838-0.7324-5.8064-0.7324-5.8064L1498.4091,212.1676z"/>
		<rect x="1499.1799" y="248.6886" width="123.4881" height="19.3141"/>
		<rect x="1499.1799" y="306.6308" width="123.4881" height="19.3141"/>
		<rect x="1499.1799" y="343.6494" width="123.4881" height="19.3141"/>
		<rect x="1499.1799" y="379.0585" width="123.4881" height="19.3141"/>
		<rect x="1499.1799" y="435.3912" width="123.4881" height="19.3141"/>
		<rect x="1499.1799" y="475.6289" width="123.4881" height="19.3141"/>
		<rect x="1499.1799" y="533.5711" width="123.4881" height="19.314"/>
		<rect x="1499.1799" y="570.5897" width="123.4881" height="19.3141"/>
		<rect x="1499.1799" y="605.9988" width="123.4881" height="19.3141"/>
		<rect x="1499.1799" y="662.3315" width="123.4881" height="19.3141"/>
		<rect x="1499.1799" y="702.5692" width="123.4881" height="19.3141"/>
		<rect x="1499.1799" y="760.5114" width="123.4881" height="19.314"/>
		<rect x="1499.1799" y="797.53" width="123.4881" height="19.3141"/>
		<rect x="1499.1799" y="832.9391" width="123.4881" height="19.3141"/>
		<rect x="1499.1799" y="889.2718" width="123.4881" height="19.3141"/>
		<rect x="1499.1799" y="929.5095" width="123.4881" height="19.3141"/>
		<rect x="1499.1799" y="987.4517" width="123.4881" height="19.3141"/>
		<rect x="1499.1799" y="1024.4703" width="123.4881" height="19.314"/>
		<rect x="1499.1799" y="1059.8794" width="123.4881" height="19.3141"/>
		<rect x="1499.1799" y="1116.212" width="123.4881" height="19.3141"/>
		<rect x="1499.1799" y="1156.4497" width="123.4881" height="19.3141"/>
		<rect x="1499.1799" y="1214.392" width="123.4881" height="19.3141"/>
		<rect x="1499.1799" y="1251.4105" width="123.4881" height="19.3141"/>
		<rect x="1499.1799" y="1286.8197" width="123.4881" height="19.3141"/>
		<rect x="1499.1799" y="1343.1525" width="123.4881" height="19.3141"/>
		<rect x="1499.1799" y="1383.39" width="123.4881" height="19.3141"/>
		<path d="M1497.8746,1436.4282c0,0-0.0388,0.2208-0.1064,0.6072c-0.0658,0.3866-0.1515,0.9412-0.3215,1.5914
			c-0.3173,1.3052-0.6622,3.0657-1.2006,4.775c-0.4418,1.7371-1.0669,3.4171-1.4849,4.6931
			c-0.1971,0.6425-0.415,1.1588-0.5615,1.5222c-0.1448,0.364-0.2277,0.572-0.2277,0.572l115.1014,44.7322
			c0,0,0.2133-0.5474,0.5861-1.5054c0.3721-0.9583,0.9075-2.3252,1.47-3.9965c1.1515-3.333,2.6842-7.7788,3.9174-12.3175
			c1.3361-4.5106,2.3599-9.0966,3.1326-12.5348c0.3993-1.7172,0.6608-3.1592,0.8466-4.1687
			c0.1852-1.0095,0.2909-1.5864,0.2909-1.5864L1497.8746,1436.4282z"/>
		<path d="M1488.1992,1461.983c0,0-0.1038,0.1992-0.324,0.5251c-0.213,0.3301-0.5173,0.8018-0.8824,1.3677
			c-0.6893,1.1587-1.7571,2.6055-2.7922,4.0747c-0.5159,0.7361-1.1083,1.4158-1.6174,2.0869
			c-0.5195,0.6637-0.9915,1.2939-1.4513,1.7888c-0.8831,1.02-1.4717,1.7001-1.4717,1.7001l92.0756,82.2885
			c0,0,1.53-1.7645,3.825-4.4114c1.1534-1.318,2.4246-2.9192,3.7817-4.6394c1.3472-1.7277,2.8137-3.5469,4.1846-5.4407
			c2.7493-3.7842,5.4332-7.6136,7.293-10.5953c0.9414-1.4818,1.7257-2.7166,2.2747-3.5809
			c0.5503-0.8634,0.8401-1.3728,0.8401-1.3728L1488.1992,1461.983z"/>
		<path d="M1471.015,1481.8215c0,0-0.7079,0.5541-1.7699,1.3853c-0.2642,0.2097-0.55,0.4369-0.8525,0.6774
			c-0.3149,0.2234-0.6471,0.459-0.9906,0.7026c-0.686,0.4889-1.4178,1.0104-2.1497,1.5319
			c-1.5298,0.9406-2.9991,1.9806-4.1932,2.6058c-1.165,0.6738-1.9418,1.1232-1.9418,1.1232l59.1727,108.3878
			c0,0,2.0354-1.1606,5.0886-2.9015c3.0695-1.7181,6.9919-4.2726,10.9132-6.8295c1.9266-1.3246,3.8334-2.6791,5.6152-3.9563
			c0.8867-0.644,1.7438-1.2667,2.5566-1.8573c0.7939-0.6143,1.5448-1.1951,2.2378-1.7312c2.7496-2.1736,4.5828-3.6224,4.5828-3.6224
			L1471.015,1481.8215z"/>
	</g>
</g>
</svg>
