<svg xmlns="http://www.w3.org/2000/svg" viewBox="0 0 181.89 254.49"><defs><style>.cls-1{isolation:isolate;}.cls-2,.cls-5{fill:#7f5235;}.cls-3,.cls-6{fill:#6c462b;}.cls-3{opacity:0.4;}.cls-10,.cls-11,.cls-3,.cls-5,.cls-6{mix-blend-mode:multiply;}.cls-4,.cls-5{opacity:0.6;}.cls-10,.cls-6{opacity:0.5;}.cls-7{fill:#743525;mix-blend-mode:screen;}.cls-8{fill:#295b1f;}.cls-9{fill:#2d6324;}.cls-10{fill:#3d7b32;}.cls-11{fill:#9cb236;opacity:0.8;}</style></defs><title>tree </title><g class="cls-1"><g id="Layer_1" data-name="Layer 1"><path class="cls-2" d="M83.08,251.71c-.51.9-1.07,1.8-1.6,2.7,5.43-1.43,12.83-3.77,17.26-4.46a26.73,26.73,0,0,1,3.66.46q2.38.47,4.74,1c1.4.29,2.67.8,4,1.15a35.86,35.86,0,0,0,3.9,1.09c.7.09,1.4,0,2.09.07s1.33.14,2,.22a10,10,0,0,0,2.12.1,12.91,12.91,0,0,1,2.48-.28c.6,0,2.12.48,2.65.14.08-.05.06-.17,0-.23-.28-1-1.41-1.61-2.32-2.2a41,41,0,0,0-4.53-2.44,34.88,34.88,0,0,0-3.61-1.53c1.38.25,2.77.48,4.15.69,2.42.36,4.86.54,7.28.84,2,.25,4.06.5,6.11.61a19.28,19.28,0,0,0,5.92-.36,2.7,2.7,0,0,0-.68-1c-2.37-.81-4.76-1.61-7.17-2.37-9.53-3-16.58-4.43-18.61-14.72-1.5-7.57-3.16-16.06-3.08-23.66.12-11.22-.56-22.3-.14-33.53.22-6-.6-11.69-1.46-17.59-1.1-7.6-.52-15.33-1.14-23-.78-9.85-1-20.1,7.38-27.68a90.17,90.17,0,0,1,11.66-8.34,49.81,49.81,0,0,1,5.83-3,56.76,56.76,0,0,1-8-1.92c-1.87,1.24-3.79,2.45-5.7,3.65-6.43,4.08-12.79,8.79-16.45,15.14s-4.41,13.25-5,20.13q-.09,1.11-.21,2.22c0,.67,0,1.34-.08,2a1.22,1.22,0,0,1-.26.68c-.27-.84-.65-1.67-.94-2.48-.81-2.24-1.63-4.49-2.55-6.69a69.27,69.27,0,0,1-4.51-17.84c-.6-4.6-.88-9.13-1.84-13.7a1.36,1.36,0,0,0-1.18-.94h-.32c-1.81.07-5.23-.38-4.94,2.13a9.09,9.09,0,0,0,.92,2.84,17.91,17.91,0,0,1,1.12,4.05,143,143,0,0,1,2.35,15.51c1.76,17.83,1.31,35.73,1,53.62-.19,9.74-.94,20,.66,29.69a40.43,40.43,0,0,1,.8,4.74l.19,4.68c.42,9.74,1.4,25.23-11.45,31.48-3.07,1.49-11.57,6.69-13.26,8.92C70.78,251.93,83.67,250.65,83.08,251.71Z"/><path class="cls-3" d="M114.54,105.72c-.35.32-.69.65-1,1-1.31-.12-2.69-1.2-3.77-1.62-.17-.07-.43.11-.28.27a3.83,3.83,0,0,1,1,2.34c0,.29,0,1-.41,1.11s-1.12-.38-1.48-.66c-.12-.11-.37,0-.35.15a26.76,26.76,0,0,1,.42,3.22,3.57,3.57,0,0,1-.36,1.92c-.19.31-.73,1-1.26.89-.77-.22-1-1.4-1.16-2s-.3-1.37-.49-2c-.07-.22-.4-.13-.42.07a34.26,34.26,0,0,1-.24,4c-.2,1.15-.82,3.18-2.51,3.19s-1.52-2.77-1.37-4.32c.32-.68.67-1.35,1-2,3.66-6.35,10-11.06,16.45-15.14,1.91-1.2,3.83-2.41,5.7-3.65a56.76,56.76,0,0,0,8,1.92,49.81,49.81,0,0,0-5.83,3A90.17,90.17,0,0,0,114.54,105.72Z"/><path class="cls-3" d="M89.7,119.63c-.14,1.15-.82,4.21-2.86,3A6.23,6.23,0,0,1,84.59,120c0-.28,0-.56-.07-.84a143,143,0,0,0-2.35-15.51,17.91,17.91,0,0,0-1.12-4.05,9.09,9.09,0,0,1-.92-2.84c-.29-2.51,3.13-2.06,4.94-2.13h.32a1.36,1.36,0,0,1,1.18.94c1,4.57,1.24,9.1,1.84,13.7.35,2.65.8,5.31,1.41,8A17.4,17.4,0,0,1,89.7,119.63Z"/><g class="cls-4"><path class="cls-5" d="M106.66,140.08c-.18-4.27-.45-8.53-.76-12.79a20.43,20.43,0,0,1,.16-5.74c.41-1.94.56-3.88,1.52-5.69.07-.11.31.12.27.21a24.24,24.24,0,0,0-.77,5.8,37.18,37.18,0,0,0-.08,6.06c.29,4.27.57,8.52.74,12.79s-.23,8.54.41,12.74c.3,2,.67,4,.92,6.06a31.44,31.44,0,0,1,0,6c0,.23-.4-.12-.41-.25-.54-4.14-1-8.29-1.61-12.44S106.84,144.31,106.66,140.08Z"/><path class="cls-5" d="M104,194.7c0-4.66,0-9.31.3-14a68.57,68.57,0,0,0-.22-14.18c-.66-4.27-2.13-8.53-2.27-12.86,0-.14.27.07.28.16.48,4.58,2.44,8.95,3.29,13.47a50.47,50.47,0,0,1,.36,14.26c-.45,4.56-.7,9.09-.81,13.67s.06,9.24-.68,13.78c0,.15-.38-.15-.39-.26C103.7,204.08,104,199.38,104,194.7Z"/><path class="cls-5" d="M107.57,215.84c.33,2.29.82,4.55,1.11,6.85s.53,4.58.8,6.87c.5,4.14,1.4,8.83,4.58,12.06.27.28.16.6-.23.32-3.73-2.61-4.51-7.07-5.12-11-.37-2.43-.41-4.95-.57-7.39-.17-2.64-.61-5.24-.88-7.87C107.24,215.5,107.56,215.73,107.57,215.84Z"/><path class="cls-5" d="M108.07,243.15c1.16,1.36,3.39,1.94,5,2.73a23.33,23.33,0,0,1,4.48,2.51c.07.05.26.41,0,.29-.75-.36-1.64-.5-2.36-.9-1-.58-2.16-1.11-3.25-1.59a10.14,10.14,0,0,1-4.09-3C107.78,243,108,243.05,108.07,243.15Z"/><path class="cls-5" d="M89.75,247.17a27.87,27.87,0,0,0,2.58-5.88,39.36,39.36,0,0,0,1.16-7.22c.5-4.66-.23-9.39-.17-14.06,0-2.1,0-4.21.13-6.32.17-2.28.29-4.57.24-6.85s-.23-4.48-.23-6.72,0-4.71-.24-7.07c0-.19.36.09.38.22a51.28,51.28,0,0,1,.45,6.79c0,2.44.31,4.86.49,7.28.36,4.59.09,9.24.11,13.84s.65,9.41.15,14.09A26.07,26.07,0,0,1,93.17,242c-.74,1.89-1.42,4.08-3,5.58C90,247.66,89.67,247.29,89.75,247.17Z"/></g><path class="cls-3" d="M117.36,247.7c-6.09-1.64-12.44-3.9-11.79-10.22a21.61,21.61,0,0,0,2.37,3.21,5.3,5.3,0,0,0,3,2c.1,0,.19-.08.13-.16-3.34-4.4-3.54-9.91-3.33-15.07.17-4.29.72-8.68.21-13,.06.36.12.72.17,1.09.49,3.34.35,6.73.78,10.08a33.37,33.37,0,0,0,2.41,9.1,17.4,17.4,0,0,0,3.89,5.82,24.67,24.67,0,0,0,6.88,4.17,59.24,59.24,0,0,0,8.9,3.3,29.58,29.58,0,0,0,8.28,1.23,19.52,19.52,0,0,1-5.76.32c-2.05-.11-4.07-.36-6.11-.61-2.42-.3-4.86-.48-7.28-.84C119.2,248,118.28,247.86,117.36,247.7Z"/><path class="cls-3" d="M105.64,238.7a9,9,0,0,0,4.73,4.26c2.56,1.08,5.42,1.46,8.13,2.13,1.78.45,3.56.93,5.32,1.44a48.87,48.87,0,0,0,5.27,1.31c.79.13,1.59.24,2.4.35a30.22,30.22,0,0,0,7.34,1.09l.22,0a20.1,20.1,0,0,1-5.53.28c-2.05-.11-4.07-.36-6.11-.61-2.42-.3-4.86-.48-7.28-.84-.93-.14-1.85-.29-2.77-.45-5.77-1.56-11.77-3.67-11.83-9.26Z"/><path class="cls-6" d="M62.42,252.29c1.69-2.23,10.19-7.43,13.26-8.92,12.85-6.25,11.87-21.74,11.45-31.48l-.19-4.68a40.43,40.43,0,0,0-.8-4.74c-1.6-9.66-.85-19.95-.66-29.69.35-17.89.8-35.79-1-53.62a143,143,0,0,0-2.35-15.51,17.91,17.91,0,0,0-1.12-4.05,9.09,9.09,0,0,1-.92-2.84c-.29-2.51,3.13-2.06,4.94-2.13h.32a1.36,1.36,0,0,1,1.18.94c1,4.57,1.24,9.1,1.84,13.7a69.27,69.27,0,0,0,4.51,17.84c.92,2.2,1.74,4.45,2.55,6.69.29.81.67,1.64.94,2.48a1.22,1.22,0,0,0,.26-.68c0-.66,0-1.33.08-2s.15-1.48.21-2.22c.54-6.88,1.36-13.88,5-20.13s10-11.06,16.45-15.14c1.91-1.2,3.83-2.41,5.7-3.65.88.26,1.76.52,2.64.76-4.37,4.25-10.17,7.18-15,11-4.49,3.63-8.48,8.56-9.47,14a26.11,26.11,0,0,0-.26,4.32c0,1.6-.09,3.2-.12,4.79s0,3.28.11,4.91c-.7,5.38-1.21,10.79-2.24,16.13-.64,3.29-1.63,6.47-2.53,9.7A100.92,100.92,0,0,0,95,168a112.88,112.88,0,0,0-1.48,20c0,.12.21.13.23,0,.7-2.63,1-5.51,2.51-7.92a10,10,0,0,1-.77,5.07A28.41,28.41,0,0,0,94,190.37a11.21,11.21,0,0,0,.5,4.7,12.3,12.3,0,0,0,2.15,4.35.13.13,0,0,0,.22,0c.77-2.64,1.55-5.3,2.27-8,.12,2.71.21,5.43.25,8.14.06,3.45.08,6.9-.07,10.35-.15,3.16-.52,6.32-.85,9.48-.66,6.33-1.25,12.82.31,19.08,0,.12.23.07.24,0a122.38,122.38,0,0,1,2.62-16.54c.6,5.9-1.63,11.87-.28,17.73a12.67,12.67,0,0,0,4,6.62,20.55,20.55,0,0,0,6.77,4c4.53,1.63,9.41,2.13,14.17,3a2.25,2.25,0,0,1,.19.45c0,.06,0,.18,0,.23-.53.34-2.05-.1-2.65-.14a12.91,12.91,0,0,0-2.48.28,10,10,0,0,1-2.12-.1c-.66-.08-1.32-.13-2-.22s-1.39,0-2.09-.07a35.86,35.86,0,0,1-3.9-1.09c-1.36-.35-2.63-.86-4-1.15q-2.36-.5-4.74-1a26.73,26.73,0,0,0-3.66-.46c-4.43.69-11.83,3-17.26,4.46.53-.9,1.09-1.8,1.6-2.7C83.67,250.65,70.78,251.93,62.42,252.29Z"/><path class="cls-6" d="M62.42,252.29c1.69-2.23,10.19-7.43,13.26-8.92,12.85-6.25,11.87-21.74,11.45-31.48l-.19-4.68a40.43,40.43,0,0,0-.8-4.74c-1.6-9.66-.85-19.95-.66-29.69.35-17.89.8-35.79-1-53.62a143,143,0,0,0-2.35-15.51,17.91,17.91,0,0,0-1.12-4.05,9.09,9.09,0,0,1-.92-2.84c-.29-2.51,3.13-2.06,4.94-2.13h.32a1.36,1.36,0,0,1,1.18.94c1,4.57,1.24,9.1,1.84,13.7.07.51.14,1,.22,1.54-.07,1.37,0,2.75,0,4.12.08,2.62-.07,5.24-.06,7.87A156.29,156.29,0,0,0,90.07,141c.36,3,.73,6,1,9.08s.14,6,.18,9.07.21,6,.21,9.05a78.88,78.88,0,0,1-.73,9.32,85.84,85.84,0,0,0,.07,18.13c0,.18.31.27.4.08a8.43,8.43,0,0,0,.51-1.54c0,3.08.5,6.18.69,9.23.34,5.06.54,10.15.59,15.22.08,10-1.12,20.11-4.73,29.69-.08.2.22.28.36.17,3.83-3,4.46-7.48,6.2-11.48,0,3.85-3.14,7.29-2.58,11.19a.21.21,0,0,0,.32.15c1.95-1.38,3.62-3,5.5-4.48a22,22,0,0,0-1.85,3.22c-.07.15,0,.3.25.26a7.73,7.73,0,0,1,4.39-.1,34.42,34.42,0,0,1,4.07,2.05,41.07,41.07,0,0,0,8.36,3.33,30.88,30.88,0,0,0,12.86.52l.16,0a2.25,2.25,0,0,1,.19.45c0,.06,0,.18,0,.23-.53.34-2.05-.1-2.65-.14a12.91,12.91,0,0,0-2.48.28,10,10,0,0,1-2.12-.1c-.66-.08-1.32-.13-2-.22s-1.39,0-2.09-.07a35.86,35.86,0,0,1-3.9-1.09c-1.36-.35-2.63-.86-4-1.15q-2.36-.5-4.74-1a26.73,26.73,0,0,0-3.66-.46c-4.43.69-11.83,3-17.26,4.46.53-.9,1.09-1.8,1.6-2.7C83.67,250.65,70.78,251.93,62.42,252.29Z"/><path class="cls-3" d="M65.76,252.12c3.31-.92,6.69-1.54,10.1-2.24a17.89,17.89,0,0,0,5-1.69,16.41,16.41,0,0,0,3.42-2.62,12.59,12.59,0,0,0-1.08,3.54c0,.18.24.22.37.12,3-2.49,4.26-6,5.57-9.31a23.28,23.28,0,0,1-.64,3.41,24.84,24.84,0,0,1-1.5,4.56c-1.19,2.44-3.6,4.15-5.13,6.4l-.44.12c.53-.9,1.09-1.8,1.6-2.7S73.81,251.65,65.76,252.12Z"/><path class="cls-3" d="M87.46,230.55a12.38,12.38,0,0,1-4.31,9.8c-3,2.57-6.73,4.24-10.37,6a76.49,76.49,0,0,0-9.47,5.06,76.1,76.1,0,0,1,12.37-8c8-3.88,10.62-11.32,11.39-18.73A53.15,53.15,0,0,1,87.46,230.55Z"/><path class="cls-3" d="M97.4,250.19c-3.62.72-8.59,2.19-13,3.41a38.32,38.32,0,0,1,7.09-2.6A22.06,22.06,0,0,1,97.4,250.19Z"/><path class="cls-3" d="M99.69,120.52A126.56,126.56,0,0,0,99,133.86a32.13,32.13,0,0,1-.8,7.24c-.51,2-1,4-1.47,5.92a80.43,80.43,0,0,1-3.17,10.63c1.22-7.78,3.42-15.57,3.19-23.38l0-.67q.12-1.11.21-2.22c.5-6.24,1.21-12.57,4-18.36C100.47,115.5,100,118,99.69,120.52Z"/><path class="cls-7" d="M104.36,140.55c0-1.66,0-3.32,0-5a29.34,29.34,0,0,1,.1-5c.16-.9.45-1.8.68-2.7.11,1,.22,2,.32,3.07.26,2.48.37,5,.49,7.48.09,2.12-.06,4.26,0,6.4,0,2.53.28,5.07.42,7.6.13,2.34.22,4.7.53,7s.9,4.51,1.12,6.79c.1,1.08.33,2.13.47,3.2a34.53,34.53,0,0,1,.12,3.67c0,2.35-.17,4.68-.25,7,0,.29-.51-.14-.52-.3-.22-2.43-.06-4.88-.22-7.31-.07-1.13-.12-2.28-.26-3.41s-.51-2.44-.7-3.68c-.37-2.38-1.16-4.71-1.59-7.08a25.72,25.72,0,0,1-.36-3.19C104.7,150.32,104.47,145.44,104.36,140.55Z"/><path class="cls-7" d="M101.57,212.92c.09-2.57.22-5.13.45-7.69.2-2.34,0-4.68.29-7a46.79,46.79,0,0,0,.26-7.39c-.13-2.32-.31-4.64-.39-7-.08-2.52.29-5,.28-7.57,0-1.22-.16-2.43-.06-3.66a30.89,30.89,0,0,0-.17-3.32A25.41,25.41,0,0,0,102,166a25.3,25.3,0,0,1-.48-3.57c0-.16.29.09.3.18a30.61,30.61,0,0,0,1.21,4.22,30.13,30.13,0,0,1,.6,3.26,50.83,50.83,0,0,1,.38,7.08c0,2.42-.88,4.75-.94,7.18a68.88,68.88,0,0,0,.27,6.89c.1,1.25,0,2.5.07,3.75a25.4,25.4,0,0,1,.27,4c-.16,2.36,0,4.72-.19,7.08a65.45,65.45,0,0,1-.91,7.09c-.5,2.74-.68,5.49-1,8.25,0,.26-.48-.14-.49-.29C101,218.41,101.46,215.66,101.57,212.92Z"/><path class="cls-7" d="M105.12,221.08c.26-2,.44-4.07.59-6.11s1-4.32,1.57-6.43c0-.15.41.15.39.27-.28,2.16-.53,4.35-.66,6.53-.06,1.07.08,2.15,0,3.22s-.14,2-.13,3,0,2.07.07,3.11.27,2,.27,3c0,2.38-.44,4.84.13,7.18.08.34-.41,0-.48-.13-1.09-2.1-1.15-4.59-1.38-6.86S104.83,223.33,105.12,221.08Z"/><path class="cls-7" d="M98,185.18a13.86,13.86,0,0,0,.77-2.89,16.49,16.49,0,0,1,.21-2.43,20.22,20.22,0,0,0,.3-5.6,17.68,17.68,0,0,1,.11-2.41c0-.93-.11-1.85-.15-2.78,0-.2.38.09.4.23.24,3.73,1.68,7.34,1,11.11-.3,1.75-.07,3.65-.89,5.3-1,1.93-.9,4-1.31,6-.06.26-.63-.27-.63-.43A20.37,20.37,0,0,1,98,185.18Z"/><path class="cls-7" d="M105.89,242.77a38.75,38.75,0,0,0,3.75,2c.62.32,1.12.85,1.71,1.21a17,17,0,0,0,1.88.73c1.31.62,2.54,1.36,3.88,1.92a14.16,14.16,0,0,1,3.7,2c.13.12.29.5,0,.33a20.54,20.54,0,0,0-4.45-1.46,31.71,31.71,0,0,1-3.73-1.46c-1.35-.53-2.11-1.72-3.25-2.49A30.05,30.05,0,0,1,105.8,243C105.68,242.9,105.65,242.61,105.89,242.77Z"/><path class="cls-7" d="M119,241.76a13.38,13.38,0,0,0,2.65,1.16c.93.41,1.93.7,2.86,1.15a21.53,21.53,0,0,0,3,1c1.19.35,2.34.82,3.51,1.21.11,0,.57.5.29.53a12.66,12.66,0,0,1-6.6-1.59c-1.16-.63-2.34-1.24-3.5-1.87a11,11,0,0,1-2.35-1.45C118.74,241.79,118.8,241.63,119,241.76Z"/><path class="cls-8" d="M178.18,74.7c-.3,0-.51-.31-.22-.45,2.22-1,6.51-5,2.09-6.08-2.62-.62-5.56,0-8.22.22a.24.24,0,0,1-.2-.41,7.2,7.2,0,0,0,2.45-6.7A2.87,2.87,0,0,0,172.3,59c-1.44-.48-3.08.5-4.18,1.22-.23.15-.51-.13-.37-.33.56-.84,1.19-2,.67-2.93-.69-1.3-2.67.5-3.19,1a.28.28,0,0,1-.47-.24,9.47,9.47,0,0,0-1.2-6.18,3,3,0,0,0-2.28-1.67c-1.4-.07-2.46,1.5-3.05,2.39a.29.29,0,0,1-.52-.11,9,9,0,0,0-.7-3.28,27.55,27.55,0,0,1-.34-3.25c0-.11.16-.18.27-.12a14.36,14.36,0,0,0,1.91,1.1c1.14.45,1.59-.57,1.33-1.36a6.24,6.24,0,0,0-2.4-2.86c-.19-.11,0-.36.18-.26a2,2,0,0,0,2.13.08c.56-.39.43-1.21.18-1.71a5.61,5.61,0,0,0-2.42-2c-1.79-.94-3.8-1.49-5.62-2.38-.17-.08,0-.33.16-.27a5.2,5.2,0,0,0,2.42.09c1-.16,2-1,1.17-1.82s-2.91-.94-4.19-1.31a.15.15,0,0,1-.06-.26c1.57-1.28,3.27-3.06,3.78-4.93a1.32,1.32,0,0,0-.46-1.51c-.57-.39-1.32.07-1.78.39-.9.61-1.53,1.49-2.44,2.09-.14.09-.33,0-.28-.17a17.87,17.87,0,0,0,.9-3.65c0-.44-.1-2.3-1.09-1.9a8.5,8.5,0,0,0-1.94,1.58.18.18,0,0,1-.29-.12c0-1.11.55-3-.88-3.48l-.09.13a7.92,7.92,0,0,0-1.25,4,8.28,8.28,0,0,0-1-1.63,2.9,2.9,0,0,0-.4-.41.78.78,0,0,0,0,.16,25.9,25.9,0,0,1-.11,2.64c0,.17-.29.11-.33,0-.36-1-.64-2.2-1.65-2.79a22.16,22.16,0,0,0-.71,3c0,.13-.26.14-.32,0a7,7,0,0,1-.39-1c-.63-.93-1.43-1.71-2.26-1.46a4.66,4.66,0,0,0,0-2.29.32.32,0,0,0-.5-.1,14.85,14.85,0,0,0-2.83,3c.87-2,1.75-4.53.15-4.91a2.32,2.32,0,0,0-2.38,1.13,6.12,6.12,0,0,0-.4-.49c-.61-.69-3.05-2.94-4.33-2.65s-.94,1.43-.39,2.6a29.54,29.54,0,0,0-2.32-2c-.46-.37-1.93-1.67-2.79-1.12-1.07.69-.15,2.4,0,3.1a7.23,7.23,0,0,0,.57,1.47A9.55,9.55,0,0,0,121,20a23.12,23.12,0,0,0-2.74-.92,11.27,11.27,0,0,0,1.94-3.7,2.11,2.11,0,0,0-.74-2.38c-.88-.62-2.08.11-2.81.61-1.42,1-2.42,2.35-3.85,3.3-.22.15-.51,0-.44-.25a29.33,29.33,0,0,0,1.43-5.77c0-.71-.17-3.65-1.74-3-1.23.51-2.09,1.68-3.06,2.49a.28.28,0,0,1-.46-.2c0-1.75.87-4.73-1.39-5.49a1.67,1.67,0,0,1-.13.2,12.33,12.33,0,0,0-2,6.36,13.43,13.43,0,0,0-1.52-2.57,6.89,6.89,0,0,0-.63-.65,2.34,2.34,0,0,0,0,.26,38.85,38.85,0,0,1-.16,4.17c-.06.27-.46.18-.53,0-.57-1.53-1-3.46-2.6-4.39a34.6,34.6,0,0,0-1.12,4.73c0,.2-.41.22-.51,0a11.92,11.92,0,0,1-.62-1.57c-1-1.47-2.25-2.7-3.57-2.3a7.37,7.37,0,0,0,0-3.62A.5.5,0,0,0,93,5.16,23.79,23.79,0,0,0,88.48,9.9c1.38-3.1,2.75-7.16.23-7.76A3.71,3.71,0,0,0,85,3.92c-.19-.26-.41-.51-.63-.76C83.36,2.07,79.5-1.5,77.48-1c-1.83.43-1.48,2.26-.61,4.1C75.74,2,74.56,1,73.22-.06c-.74-.58-3.06-2.63-4.42-1.76-1.69,1.09-.24,3.79,0,4.91a12.5,12.5,0,0,0,.89,2.32,14.75,14.75,0,0,0-4.08-2.19c-1.62-.54-6.3-2.79-8.19-1s-.07,5,.46,6.57c.09.28.22.54.32.8-.54-.22-1.06-.45-1.6-.66a.92.92,0,0,0-1.09.39c-.85,1-.42,1.61.22,2.55a22.22,22.22,0,0,0,2.67,3.2A21.15,21.15,0,0,0,52,13.78c-1.6,0-4.44.41-5.41,1.79-1.18,1.68,2.19,3.2,5.56,4.24-5.32-.23-11.34.21-14.19,4.2C36,26.69,44,27.88,49.22,28.48a72.09,72.09,0,0,0-7.89,1.4c-1.78.46-4.27,1-5,2.62-.83,2,2.87,2.48,5.73,2.73-2,.36-4.09,1-4,2.23s1.66,1.94,3.75,2.19c-5,2.33-9.5,5.82-9.48,9.88a4.86,4.86,0,0,0,.39,2c-2-.73-4.73-1.45-6.06-.17-1.76,1.69-.07,5,.46,6.58.09.28.21.53.32.8l-1.6-.67a.94.94,0,0,0-1.08.39c-.86,1-.42,1.61.21,2.55a21.18,21.18,0,0,0,2.67,3.2,21.14,21.14,0,0,0-6.48-1.32c-1.6,0-4.45.4-5.42,1.78-1.17,1.69,2.19,3.21,5.56,4.25C16,68.72,10,69.16,7.12,73.14c-1.93,2.7,6.1,3.88,11.3,4.48A74.51,74.51,0,0,0,10.53,79c-1.78.46-4.27,1-5,2.63-.83,2,2.87,2.48,5.74,2.73-2,.35-4.1,1-4,2.22S8.94,88.53,11,88.78c-5,2.34-9.5,5.82-9.49,9.89,0,3.47,2.53,4.48,5.7,4.19-1.07.73-2.18,1.7-1.82,2.7s1.24,1.28,2.47,1.24c-.79,1.41-.38,2.32,1.62,1.84-.73.57-1.43,1.21-2.12,1.75a6.16,6.16,0,0,0-2.23,3.29c-.61,2.28,2,1.81,4.48,1-1.34,1.12-2.08,2.35-.14,3.07,1.57.57,4.7-.69,6.07-1.38.28-.13.55-.28.82-.43-.49.66-1,1.31-1.5,2-1.22,1.5-1.74,5.5,1.67,4.14a3.7,3.7,0,0,0,.76-.45c.19,2.05,1.1,4.19,2.78,4.89s2.54-.25,3-1.65a1.39,1.39,0,0,0,1.34.76,5.78,5.78,0,0,0,3.07-1.32,3.3,3.3,0,0,0,.53-.58,3.37,3.37,0,0,0-.3.45,13.47,13.47,0,0,0-.83,1.34c-2.09,4,2.29,2.16,5.61.19-1.75,1.84-3,3.9-2.19,6.08,1,2.66,5.09-1,6-2,.46-.53,1-2.6.69-1.43a9.23,9.23,0,0,0-.26,2c0,1.11,0,2.44,1.21,3,2.11,1,4.56-2.3,6-4.82,0,1.48.27,3.15,1.16,3.9-1.5,4.08,2.12,3.48,5.11,1.71-.13.17-.27.34-.4.53.71-.74,1.33-1.56,2-2.25.14-.16.44-.15.49.07a6.21,6.21,0,0,0,4,4.18,2.88,2.88,0,0,0,2.12.13c1-.46.23-2.12,0-2.72a.27.27,0,0,1,.45-.28c1.58,1.71,6.79,4.61,7.1.54.18-2.42-1.09-4.84-1.81-7.12-.07-.2.22-.37.42-.25a9.5,9.5,0,0,0,7.84.72,3.07,3.07,0,0,0,2.16-2c.27-1.35-1.13-2.57-2.14-3.38-.21-.17,0-.47.3-.39,1,.3,2.39.62,3.35,0,1.3-.88-1.06-2.23-1.75-2.57-.26-.13-.07-.43.17-.45A12.86,12.86,0,0,0,81,116.43a2.67,2.67,0,0,0,1.4-2.34c-.18-1.23-2.12-1.82-3.2-2.15a.24.24,0,0,1,0-.47c2.42-.45,4.83-2,6.71-3.37a7.43,7.43,0,0,0,2.41-2.42c.61-1.26-1.44-1.41-2.34-1.46a.25.25,0,1,1,0-.49c2.81.3,4.45-2.26,2.64-4.22-.22-.24.19-.57.41-.33s1.9,2.26,2.46,1.46a4.19,4.19,0,0,0,.22-2.48,51.59,51.59,0,0,1-.54-5.25.28.28,0,0,1,.43-.19,5.74,5.74,0,0,1,.53.32l-.15.47c-.37,1.39-.48,3.95.83,5,1.61,1.35,4-1.29,5.84-4-1.37,4.59-2.15,9.92,1.64,13.17,2.56,2.19,5.55-4.58,7.31-9a51.45,51.45,0,0,0-.12,7.14c.14,1.64.17,3.91,1.85,4.83,2,1.1,3.33-2,4.21-4.48,0,1.79.24,3.76,1.61,3.93,1.21.15,2.12-.69,2.8-2a3.71,3.71,0,0,0,0,.47,2.37,2.37,0,0,0,2,2.59c.18.34.37.67.55,1a.89.89,0,0,0-.14.78,1.25,1.25,0,0,0,1.22.78c.07.1.15.19.22.28-.27.66,0,1.07.87.94a.94.94,0,0,1,.1.1l-1.15,1a3.88,3.88,0,0,0-1.42,2.08c-.39,1.45,1.29,1.15,2.83.63-.84.7-1.31,1.48-.08,1.94,1,.36,3-.44,3.84-.88a5.12,5.12,0,0,0,.52-.27c-.31.42-.61.83-1,1.24-.77.95-1.1,3.48,1.06,2.62a2.61,2.61,0,0,0,.48-.28,3.62,3.62,0,0,0,1.76,3.09c1.07.45,1.61-.15,1.87-1a.9.9,0,0,0,.85.48,3.58,3.58,0,0,0,1.94-.84,1.42,1.42,0,0,0,.33-.36s-.09.14-.18.28-.38.56-.53.85c-1.32,2.54,1.45,1.37,3.55.12-1.1,1.17-1.91,2.47-1.38,3.85.64,1.68,3.22-.61,3.8-1.28.29-.34.61-1.65.44-.91a5.47,5.47,0,0,0-.17,1.27c0,.71,0,1.54.76,1.91,1.34.6,2.89-1.46,3.83-3.05a3.53,3.53,0,0,0,.73,2.47c-.94,2.58,1.35,2.19,3.24,1.08l-.26.33c.45-.47.85-1,1.25-1.42.09-.1.29-.1.31,0a4,4,0,0,0,2.5,2.64,1.86,1.86,0,0,0,1.35.09c.64-.3.14-1.35,0-1.73a.17.17,0,0,1,.29-.18c1,1.09,4.3,2.92,4.49.35.12-1.54-.69-3.07-1.14-4.51,0-.13.14-.23.26-.16a6,6,0,0,0,5,.46,2,2,0,0,0,1.37-1.28c.16-.86-.72-1.64-1.36-2.15-.13-.11,0-.3.19-.25a2.53,2.53,0,0,0,2.12,0c.83-.55-.67-1.41-1.1-1.62-.17-.09-.05-.28.1-.29a8,8,0,0,0,4.17-1.49,1.72,1.72,0,0,0,.89-1.48c-.12-.77-1.35-1.15-2-1.36a.15.15,0,0,1,0-.3,11.5,11.5,0,0,0,4.25-2.13,4.69,4.69,0,0,0,1.54-1.53c.37-.8-.92-.89-1.49-.92a.16.16,0,1,1,0-.32c1.78.19,2.81-1.43,1.67-2.67-.14-.15.12-.36.26-.2s1.19,1.43,1.55.92.17-1.13.15-1.57a31.31,31.31,0,0,1-.34-3.33c0-.11.16-.18.27-.12a14.36,14.36,0,0,0,1.91,1.1c1.13.45,1.59-.56,1.34-1.36a6.27,6.27,0,0,0-2.42-2.85c-.18-.12,0-.36.19-.27a2,2,0,0,0,2.12.08c.58-.39.43-1.21.18-1.71a5.41,5.41,0,0,0-2.42-1.95c-1.68-.9-3.57-1.44-5.31-2.25l-.22-.41h.07a5.25,5.25,0,0,0,2.43.09c1-.16,2-1,1.16-1.82a3.23,3.23,0,0,0-1.47-.76,1.92,1.92,0,0,0,.51-.4c.78-.86.33-2-.62-3.16A6.86,6.86,0,0,0,173.58,87a1.46,1.46,0,0,0-.08-1.07l.08,0c4.2,2.08,4.28-1.18,3-4.12l.49.44c-.67-.75-1.43-1.45-2.06-2.14a.24.24,0,0,1,.18-.42A7.07,7.07,0,0,0,180.59,77a2.13,2.13,0,0,0,.6-1.82C180.89,74.2,178.9,74.56,178.18,74.7Z"/><path class="cls-9" d="M57.7,137.16a4.05,4.05,0,0,1-1.58-.31A6.42,6.42,0,0,1,52,132.49c-.27.35-.56.69-.85,1s-.71.84-1.1,1.24l-.24-.15a8.51,8.51,0,0,1-3.35,1.08,1.94,1.94,0,0,1-1.63-.56c-.47-.55-.48-1.45-.06-2.7a4.85,4.85,0,0,1-1.07-3c-1.32,2.08-3.11,4.21-4.9,4.29a2.14,2.14,0,0,1-1-.2c-1.38-.62-1.38-2-1.37-3.15v-.09c0-.1,0-.2,0-.3-.8.88-3.08,2.9-4.75,3A1.59,1.59,0,0,1,30,131.82c-.74-1.94.13-3.74,1.22-5.15a11.59,11.59,0,0,1-3.94,1.44,1.24,1.24,0,0,1-1.08-.39c-.34-.45-.21-1.23.38-2.37.05-.1.11-.2.17-.3a4.89,4.89,0,0,1-2.34.78h0a1.66,1.66,0,0,1-1.26-.44A2.18,2.18,0,0,1,20,126.7c-1.75-.73-2.62-2.8-2.89-4.64a3.07,3.07,0,0,1-.41.2c-1.28.51-2.25.35-2.72-.42-.63-1.06-.14-3.08.71-4.12.27-.33.53-.67.79-1a14.13,14.13,0,0,1-4.77,1.42A3.35,3.35,0,0,1,9.38,118q-1.2-.43-1.35-1.2a1.83,1.83,0,0,1,.58-1.51c-1.84.5-3,.46-3.53-.12a1.49,1.49,0,0,1-.21-1.52,6.38,6.38,0,0,1,2.31-3.43c.33-.25.65-.53,1-.81l.41-.34a1.38,1.38,0,0,1-1.19-.47,1.51,1.51,0,0,1,0-1.51,2.26,2.26,0,0,1-2.31-1.42c-.35-1,.49-1.88,1.22-2.47a5.55,5.55,0,0,1-3.73-1.08,4.24,4.24,0,0,1-1.37-3.41c0-4.59,5.24-8,8.88-9.77C8.1,88.53,7,87.76,7,86.61c-.06-.92.82-1.63,2.67-2.15C7.74,84.21,6,83.8,5.38,82.91a1.32,1.32,0,0,1-.1-1.36C6,79.89,8.22,79.32,10,78.87l.42-.11a53.43,53.43,0,0,1,6-1.12c-4.4-.59-8.9-1.48-9.75-3.12A1.38,1.38,0,0,1,6.87,73c1.93-2.69,5.42-4.11,10.68-4.33.63,0,1.29,0,2,0-2.44-.89-3.86-1.81-4.22-2.74a1.35,1.35,0,0,1,.19-1.33c.9-1.28,3.21-1.82,5.07-1.9h.61a20,20,0,0,1,5.5,1,21,21,0,0,1-1.95-2.46l-.06-.09c-.61-.89-1.09-1.6-.14-2.75A1.22,1.22,0,0,1,26,57.86l.91.38h0a1.8,1.8,0,0,1-.08-.21c-.07-.22-.18-.49-.29-.79-.68-1.78-1.71-4.48-.1-6a3.09,3.09,0,0,1,2.1-.78,11,11,0,0,1,3.7.68A5.52,5.52,0,0,1,32,49.54c0-4.59,5.24-8,8.88-9.76-2-.38-3.08-1.15-3.14-2.31-.06-.92.82-1.63,2.67-2.15-1.92-.24-3.66-.66-4.27-1.55a1.32,1.32,0,0,1-.1-1.35c.7-1.66,2.94-2.23,4.74-2.69l.42-.11a56,56,0,0,1,6-1.12c-4.4-.58-8.9-1.48-9.75-3.11a1.38,1.38,0,0,1,.2-1.52c1.92-2.7,5.42-4.12,10.68-4.34.63,0,1.29,0,2,0-2.44-.9-3.86-1.82-4.22-2.74a1.37,1.37,0,0,1,.19-1.34c.9-1.27,3.21-1.82,5.07-1.9H52a20.09,20.09,0,0,1,5.5,1,21.24,21.24,0,0,1-2-2.45L55.46,12c-.6-.9-1.08-1.61-.13-2.76a1.22,1.22,0,0,1,1.44-.47l.91.37h0a1,1,0,0,1-.08-.21l-.29-.78c-.68-1.79-1.72-4.49-.1-6a3.14,3.14,0,0,1,2.1-.78,15.44,15.44,0,0,1,5.5,1.34l.92.34A13.25,13.25,0,0,1,69,4.59a11.05,11.05,0,0,1-.48-1.44c0-.21-.15-.47-.25-.76C67.82,1,67.08-1,68.62-2a1.7,1.7,0,0,1,.86-.26c1.34-.06,3,1.23,3.72,1.86l.21.16c1,.78,1.87,1.53,2.71,2.27a3,3,0,0,1,0-2.4,1.9,1.9,0,0,1,1.31-.88,2,2,0,0,1,.36-.05c2.37-.1,6.14,3.59,6.79,4.32.13.14.26.3.39.46A3.9,3.9,0,0,1,88.8,1.89a1.94,1.94,0,0,1,1.29.94c.58,1,.38,2.76-.57,5.33A17,17,0,0,1,92.76,5,.84.84,0,0,1,94,5.23a6.65,6.65,0,0,1,.07,3.38c1.13-.1,2.3.75,3.47,2.5l0,.05a10.47,10.47,0,0,0,.57,1.47,17,17,0,0,0,.34-1.7,13.82,13.82,0,0,1,.77-3l.13-.32.31.18c1.45.85,2,2.43,2.47,3.81.08.23.15.45.23.66a10,10,0,0,0,.1-2.2,14.06,14.06,0,0,1,0-1.83c0-.1,0-.19,0-.27l.1-.51.41.37a7.93,7.93,0,0,1,.66.68,11.66,11.66,0,0,1,1.06,1.65,12.3,12.3,0,0,1,1.93-5.42l.27-.39.23.08c2,.66,1.8,2.78,1.65,4.49,0,.45-.07.87-.07,1.24l.81-.8a7.33,7.33,0,0,1,2.29-1.73,1.19,1.19,0,0,1,1.31.18c.82.74.88,2.64.85,3.07a19.91,19.91,0,0,1-1,4.41c-.14.47-.29.93-.42,1.41a17.74,17.74,0,0,0,1.9-1.67,15.41,15.41,0,0,1,1.92-1.65,4.37,4.37,0,0,1,2.13-.9,1.6,1.6,0,0,1,1,.3,2.3,2.3,0,0,1,.84,2.64,11.09,11.09,0,0,1-1.76,3.48,17.93,17.93,0,0,1,1.81.62l.57.21a9.3,9.3,0,0,1,1.82.85c-.07-.21-.14-.41-.2-.62a3.75,3.75,0,0,0-.16-.47c-.31-.9-.79-2.24.25-2.92a1.21,1.21,0,0,1,.6-.18,4.35,4.35,0,0,1,2.43,1.2l.14.11c.51.4,1,.8,1.43,1.19a1.71,1.71,0,0,1,.09-1.25,1.36,1.36,0,0,1,.9-.61,2.06,2.06,0,0,1,.26,0c1.53-.06,3.88,2.21,4.38,2.77l.17.19a2.56,2.56,0,0,1,2.46-.92,1.33,1.33,0,0,1,.89.64,3.79,3.79,0,0,1-.17,2.91A9.51,9.51,0,0,1,138.08,21a.66.66,0,0,1,1,.22,4.25,4.25,0,0,1,.06,2.07c.72,0,1.45.56,2.17,1.63l0,.06c.08.22.15.43.23.62.05-.25.1-.5.14-.75a9,9,0,0,1,.49-1.91l.13-.31.31.18a4.11,4.11,0,0,1,1.6,2.44,7.06,7.06,0,0,0,0-.92,9.28,9.28,0,0,1,0-1.17,1,1,0,0,1,0-.18l.1-.5.41.36a3.3,3.3,0,0,1,.42.45,5.71,5.71,0,0,1,.52.76,7.84,7.84,0,0,1,1.2-3.15l.22-.31.23.07c1.32.45,1.2,1.83,1.11,2.95,0,.18,0,.35,0,.52l.32-.32a4.76,4.76,0,0,1,1.48-1.11.87.87,0,0,1,1,.13,3.08,3.08,0,0,1,.57,2,13.2,13.2,0,0,1-.65,2.81l-.18.58a10.37,10.37,0,0,0,.93-.84,9.71,9.71,0,0,1,1.23-1.05,2.79,2.79,0,0,1,1.4-.59,1.16,1.16,0,0,1,.75.21,1.55,1.55,0,0,1,.56,1.77c-.53,1.95-2.28,3.74-3.71,4.93.33.08.7.15,1.09.21a5.62,5.62,0,0,1,3,1.12,1,1,0,0,1,.32,1.16,2.17,2.17,0,0,1-1.65,1.1,5.67,5.67,0,0,1-1.63.08c.57.24,1.15.47,1.71.68A27.26,27.26,0,0,1,158,38.36a5.7,5.7,0,0,1,2.54,2.06,1.59,1.59,0,0,1-.27,2,2.17,2.17,0,0,1-1.65.25,6,6,0,0,1,1.85,2.5,1.53,1.53,0,0,1-.2,1.39,1.29,1.29,0,0,1-1.55.28,8.23,8.23,0,0,1-1.34-.74l-.42-.27a10.9,10.9,0,0,0,.18,1.71c.06.42.13.85.16,1.27a9.23,9.23,0,0,1,.72,3.33c.55-.91,1.69-2.61,3.27-2.53a3.29,3.29,0,0,1,2.54,1.81,9.84,9.84,0,0,1,1.24,6.29,5.06,5.06,0,0,1,2.56-1.52,1.11,1.11,0,0,1,1.07.62c.55,1,0,2.19-.7,3.17a6.62,6.62,0,0,1,3.34-1.41,2.7,2.7,0,0,1,1.07.15,3.09,3.09,0,0,1,2,2.47,7.44,7.44,0,0,1-2.53,6.93c.64-.09,1.32-.17,2-.25,1-.11,1.93-.22,2.9-.26a11.93,11.93,0,0,1,3.35.25c1.63.39,2.06,1.16,2.13,1.73.2,1.72-2.41,4-4,4.77a9.09,9.09,0,0,1,1.26-.15c1.39-.06,1.83.42,2,.84a2.26,2.26,0,0,1-.65,2,7.35,7.35,0,0,1-5.36,2.75h-.31c.34.3.65.61,1,.93s.77.78,1.14,1.19l-.22.19c.53,1.4.8,3,.15,3.93s-1.71.87-3.28.19a1.74,1.74,0,0,1-.06.71,7,7,0,0,1-1,2.12c1.08,1.37,1.24,2.49.48,3.32a1.07,1.07,0,0,1-.14.16,2.93,2.93,0,0,1,1.1.66,1,1,0,0,1,.32,1.16,2.21,2.21,0,0,1-1.66,1.11,6.78,6.78,0,0,1-1.61.07c.56.25,1.14.47,1.7.68a29.24,29.24,0,0,1,3,1.32,5.69,5.69,0,0,1,2.53,2.06,1.55,1.55,0,0,1-.27,2,2.13,2.13,0,0,1-1.65.26,5.94,5.94,0,0,1,1.86,2.5,1.52,1.52,0,0,1-.21,1.4,1.27,1.27,0,0,1-1.53.27,7.93,7.93,0,0,1-1.35-.74l-.42-.27a10.9,10.9,0,0,0,.18,1.71c.07.45.14.93.17,1.4v.21a2.3,2.3,0,0,1-.21,1.51.56.56,0,0,1-.45.25,1.42,1.42,0,0,1-.89-.43,1.62,1.62,0,0,1-.12,1.18,2,2,0,0,1-1.27,1,1.19,1.19,0,0,1,.72.43.69.69,0,0,1,0,.73,5.07,5.07,0,0,1-1.62,1.64,12.8,12.8,0,0,1-4,2.09c.74.25,1.72.66,1.84,1.46a1.88,1.88,0,0,1-1,1.72,8.39,8.39,0,0,1-4,1.51c.45.26,1.13.74,1.17,1.25a.68.68,0,0,1-.36.64,2.55,2.55,0,0,1-1.88.2,2.39,2.39,0,0,1,1,2,2.18,2.18,0,0,1-1.55,1.48,6.46,6.46,0,0,1-5-.32c.09.27.2.54.3.81a8.42,8.42,0,0,1,.76,3.49,1.46,1.46,0,0,1-1.45,1.56,5.5,5.5,0,0,1-3.14-1.34c.2.55.33,1.26-.32,1.56a2.1,2.1,0,0,1-1.6-.08,4.33,4.33,0,0,1-2.61-2.6l-.39.47c-.23.26-.46.53-.71.79l-.14-.1a5.66,5.66,0,0,1-2.21.72,1.31,1.31,0,0,1-1.12-.39,1.76,1.76,0,0,1-.07-1.74,3,3,0,0,1-.63-1.62c-.83,1.24-1.92,2.45-3,2.5a1.54,1.54,0,0,1-.7-.14c-.92-.42-.93-1.36-.93-2.06A5.65,5.65,0,0,1,137,130.4a1.13,1.13,0,0,1-1.16-.78,3.22,3.22,0,0,1,.53-3,6.06,6.06,0,0,1-2.14.72.84.84,0,0,1-.78-.29c-.23-.3-.17-.77.18-1.48a3.1,3.1,0,0,1-1.22.33h0a1.21,1.21,0,0,1-.76-.21,1.43,1.43,0,0,1-1.26.93,2.11,2.11,0,0,1-.85-.17,3.67,3.67,0,0,1-1.87-2.87l-.13.05c-.85.35-1.54.22-1.86-.31a2.77,2.77,0,0,1,.45-2.7l.26-.33a8.31,8.31,0,0,1-2.68.74,2.3,2.3,0,0,1-.87-.11c-.54-.2-.84-.48-.91-.84a1.06,1.06,0,0,1,.21-.8c-1.05.25-1.72.19-2.06-.18a1.05,1.05,0,0,1-.16-1,4.2,4.2,0,0,1,1.51-2.22l.62-.51.09-.08a.8.8,0,0,1-.57-.29.84.84,0,0,1-.09-.87l-.06-.08a1.49,1.49,0,0,1-1.34-.95,1,1,0,0,1,.1-.85l-.43-.77a2.55,2.55,0,0,1-2.09-2.28,2.73,2.73,0,0,1-2.56,1.24c-1-.13-1.62-1-1.8-2.73-.77,1.86-1.75,3.45-3.09,3.51a2,2,0,0,1-1-.26c-1.68-.92-1.83-3-2-4.65l0-.39a39.16,39.16,0,0,1,0-5.42c-1.66,3.94-3.71,7.85-5.8,7.94a1.89,1.89,0,0,1-1.33-.49C96.53,104.81,97,99.93,98,96q-2.39,3.09-4.09,3.17a1.78,1.78,0,0,1-1.25-.44,2.69,2.69,0,0,1-.59-.71v.11c0,.1,0,.22,0,.34a3.55,3.55,0,0,1-.3,2.29.75.75,0,0,1-.59.32c-.58,0-1.28-.58-1.92-1.27a2.5,2.5,0,0,1,.19,2.55A3.22,3.22,0,0,1,86.71,104a2.63,2.63,0,0,1,1.88.75,1,1,0,0,1,0,1,7.56,7.56,0,0,1-2.51,2.52,18.46,18.46,0,0,1-6.84,3.43c1.13.3,3.22.92,3.42,2.32.17,1.1-.73,2-1.52,2.59a13.14,13.14,0,0,1-6.69,2.4c.45.23,2.12,1.15,2.19,2.09a.94.94,0,0,1-.5.88,2.71,2.71,0,0,1-1.42.43,6.29,6.29,0,0,1-2.1-.33c.86.69,2.42,2,2.12,3.54a3.3,3.3,0,0,1-2.35,2.23,9.59,9.59,0,0,1-2.8.53,9.48,9.48,0,0,1-5.31-1.28c.22.54.43,1.11.66,1.72a13.11,13.11,0,0,1,1.2,5.45c-.14,1.84-1.24,2.27-2.12,2.31-1.8.08-4.26-1.44-5.39-2.58.34.76,1,2.4-.16,2.95A2,2,0,0,1,57.7,137.16ZM52,132a.53.53,0,0,1,.56.39,5.9,5.9,0,0,0,3.77,4,2.52,2.52,0,0,0,1.87.15c.76-.35,0-1.88-.2-2.37a.5.5,0,0,1,.06-.5.6.6,0,0,1,.9-.07c1,1.1,3.42,2.58,5,2.51,1,0,1.45-.63,1.54-1.81A12.86,12.86,0,0,0,64.39,129c-.22-.59-.45-1.2-.63-1.78a.44.44,0,0,1,.09-.42.62.62,0,0,1,.78-.13,9.31,9.31,0,0,0,7.57.7c.52-.19,1.76-.74,2-1.83s-.91-2.22-2.05-3.14a.45.45,0,0,1-.14-.52.63.63,0,0,1,.74-.33,6,6,0,0,0,2,.34,2,2,0,0,0,1.09-.32c.25-.17.27-.32.27-.42,0-.56-1.21-1.33-2-1.7a.45.45,0,0,1-.27-.52.62.62,0,0,1,.56-.43,12.42,12.42,0,0,0,6.4-2.3c.67-.48,1.44-1.24,1.31-2.09-.16-1.08-2-1.64-3-1.94a.49.49,0,0,1-.38-.52.53.53,0,0,1,.45-.46,18,18,0,0,0,6.58-3.32,7,7,0,0,0,2.33-2.32c.16-.33,0-.48,0-.52-.21-.32-.93-.5-2.11-.56a.55.55,0,0,1-.53-.55.52.52,0,0,1,.53-.47H86c.21,0,.4,0,.58,0a2.61,2.61,0,0,0,2.29-1.32,2.15,2.15,0,0,0-.48-2.49.44.44,0,0,1-.07-.53.61.61,0,0,1,1-.13l.11.12c1.11,1.26,1.57,1.44,1.75,1.43,0,0,.06,0,.1-.07a3.22,3.22,0,0,0,.21-2c0-.12,0-.24,0-.35A19.55,19.55,0,0,0,91.19,96a15.67,15.67,0,0,1-.27-3.14.54.54,0,0,1,.55-.49.68.68,0,0,1,.34.08l.46.28.24.16-.09.28c0,.12-.08.24-.11.36-.36,1.31-.47,3.78.74,4.8a1.17,1.17,0,0,0,.82.29c1.11,0,2.74-1.56,4.57-4.27l1.08-1.59L99,94.6c-1.18,4-2.31,9.59,1.56,12.9a1.22,1.22,0,0,0,.89.35c2.28-.09,5-7,5.93-9.24l.67-1.68-.09,1.78c0,.4,0,.79-.07,1.19a41.69,41.69,0,0,0-.05,5.92l0,.4c.11,1.53.26,3.44,1.68,4.22a1.26,1.26,0,0,0,.7.19c1.47-.07,2.63-3.3,3.07-4.52l.61-1.69,0,1.77c0,2.28.44,3.55,1.35,3.67s1.79-.5,2.5-1.84l.77-1.48-.21,1.62a3.15,3.15,0,0,0,0,.44,2.1,2.1,0,0,0,1.81,2.33l.14,0,.06.12c.18.33.36.65.55,1l.08.14-.08.12a.65.65,0,0,0-.13.57c.13.37.44.56,1,.59l.14,0,.08.1c.06.09.14.18.21.27l.1.11-.06.14c-.1.24-.11.43,0,.52s.27.09.39.09l.19,0,.16,0,.42.4-.23.19-.52.43-.64.53a3.52,3.52,0,0,0-1.31,2,.65.65,0,0,0,0,.58.86.86,0,0,0,.61.14,6.81,6.81,0,0,0,1.79-.42l1.4-.47-1.09.91c-.52.44-.78.82-.74,1.07s.22.31.56.44a1.6,1.6,0,0,0,.61.07,8.65,8.65,0,0,0,3-.93c.18-.08.34-.16.5-.25l1.14-.64-.83,1.15-.84,1.1a2.32,2.32,0,0,0-.41,2.14c.18.29.54.3,1.1.08a2.36,2.36,0,0,0,.41-.24l.44-.33.05.51a3.35,3.35,0,0,0,1.59,2.87c.73.31,1.18,0,1.46-.87l.19-.65.36.59a.55.55,0,0,0,.55.34,3.32,3.32,0,0,0,1.79-.77,2.08,2.08,0,0,0,.27-.31l.5.28-.18.28-.07.11a5.57,5.57,0,0,0-.44.72c-.43.81-.31,1-.28,1.07s.18.06.26.06a8.83,8.83,0,0,0,3.13-1.34l1.75-1-1.36,1.43c-1.31,1.39-1.73,2.52-1.33,3.59.15.4.39.44.58.43.86,0,2.28-1.29,2.7-1.78a3.85,3.85,0,0,0,.4-.94c0-.13.09-.29.32-.3h.14l.1.1c.09.11.08.16,0,.45a5.93,5.93,0,0,0-.16,1.22v.06c0,.65,0,1.33.6,1.61a.83.83,0,0,0,.41.07c.81,0,1.91-1.13,3-3l.54-.92,0,1c0,1.46.36,2,.64,2.28l.14.12-.06.15c-.25.68-.27,1.18-.07,1.42s1.6.11,2.85-.63l.07,0,.3-.35c.19-.23.37-.45.56-.65a.54.54,0,0,1,.37-.17.45.45,0,0,1,.47.33,3.58,3.58,0,0,0,2.32,2.45,1.5,1.5,0,0,0,1.09.1c.18-.08.3-.39-.17-1.38a.4.4,0,0,1,0-.41.51.51,0,0,1,.75-.05,5.22,5.22,0,0,0,3.09,1.56c.34,0,.81-.14.87-1.06a8,8,0,0,0-.73-3.29c-.15-.38-.29-.75-.4-1.12a.37.37,0,0,1,.07-.35.54.54,0,0,1,.65-.12,5.76,5.76,0,0,0,4.69.44c.31-.11,1.05-.44,1.18-1.08s-.56-1.34-1.26-1.9a.37.37,0,0,1-.12-.44.49.49,0,0,1,.44-.28H163l.11,0a2.49,2.49,0,0,0,1.84,0c.14-.09.13-.15.13-.18,0-.27-.63-.72-1.2-1a.37.37,0,0,1-.22-.43.48.48,0,0,1,.45-.35,7.86,7.86,0,0,0,4-1.43c.4-.29.86-.74.78-1.24s-1.22-1-1.83-1.15a.41.41,0,0,1-.32-.43.46.46,0,0,1,.38-.38,11.3,11.3,0,0,0,4.12-2.08,4.54,4.54,0,0,0,1.44-1.42c.07-.17,0-.23,0-.25s-.32-.26-1.25-.31a.42.42,0,1,1,0-.84h.07a1.63,1.63,0,0,0,1.69-.76,1.28,1.28,0,0,0-.29-1.48.35.35,0,0,1-.06-.43.52.52,0,0,1,.79-.12l.06.09c.72.8,1,.87,1,.86a2.37,2.37,0,0,0,.09-1.18l0-.22c0-.45-.1-.91-.17-1.35a10.32,10.32,0,0,1-.17-2,.49.49,0,0,1,.73-.34l.63.39a7.55,7.55,0,0,0,1.24.68c.36.15.64.12.81-.1a1,1,0,0,0,.12-.93,6,6,0,0,0-2.31-2.72.39.39,0,0,1-.17-.46.51.51,0,0,1,.7-.24,2.43,2.43,0,0,0,1.14.31,1.39,1.39,0,0,0,.64-.21c.43-.31.29-1,.09-1.41a5.38,5.38,0,0,0-2.3-1.82,25.28,25.28,0,0,0-3-1.29c-.77-.3-1.56-.6-2.32-1l-.09,0,0-.09c-.07-.13-.14-.27-.22-.4l-.18-.33.48-.06a.36.36,0,0,1,.15,0,5,5,0,0,0,2.27.09,1.63,1.63,0,0,0,1.2-.76.57.57,0,0,0-.21-.63,2.94,2.94,0,0,0-1.34-.68l-.63-.18.56-.3a1.85,1.85,0,0,0,.44-.34c.59-.66.38-1.61-.63-2.83l-.12-.15.11-.16a6.47,6.47,0,0,0,1.08-2.1,1.25,1.25,0,0,0-.06-.9l-.11-.21.45-.25.16.08c1.5.74,2.53.83,3,.22s.33-2.28-.44-4l-.06-.13-.53-.53c-.32-.33-.64-.65-.94-1a.5.5,0,0,1-.08-.57.54.54,0,0,1,.48-.28h.3a6.76,6.76,0,0,0,4.91-2.52,2,2,0,0,0,.55-1.6c-.1-.34-.56-.49-1.35-.45a10.38,10.38,0,0,0-1.31.16l-.09,0a.61.61,0,0,1-.61-.4.46.46,0,0,1,.29-.55c1.45-.7,4-2.86,3.84-4.32-.08-.6-.65-1-1.7-1.28a11.42,11.42,0,0,0-3.17-.23c-.94,0-1.91.15-2.85.25-.7.08-1.41.16-2.1.21h0a.56.56,0,0,1-.55-.29.48.48,0,0,1,.13-.57,7,7,0,0,0,2.36-6.46,2.68,2.68,0,0,0-1.6-2.07,2.47,2.47,0,0,0-.82-.11,7,7,0,0,0-3.07,1.29.6.6,0,0,1-.8-.16.45.45,0,0,1,0-.52c.58-.86,1.11-1.85.66-2.67a.51.51,0,0,0-.5-.32,4.54,4.54,0,0,0-2.19,1.41.61.61,0,0,1-.83,0,.53.53,0,0,1-.16-.45,9.34,9.34,0,0,0-1.17-6,2.79,2.79,0,0,0-2.05-1.54c-1.23,0-2.23,1.47-2.76,2.27a.67.67,0,0,1-.9.11.44.44,0,0,1-.17-.36,8.76,8.76,0,0,0-.7-3.2v-.06c0-.42-.1-.85-.17-1.27a11.13,11.13,0,0,1-.17-2,.49.49,0,0,1,.73-.33c.22.12.43.26.64.38a7.19,7.19,0,0,0,1.23.7c.37.14.64.11.81-.11a1,1,0,0,0,.12-.93,6,6,0,0,0-2.31-2.72.4.4,0,0,1-.17-.46.5.5,0,0,1,.7-.24,2.32,2.32,0,0,0,1.14.3,1.18,1.18,0,0,0,.64-.2c.43-.31.29-1,.09-1.41a5.13,5.13,0,0,0-2.3-1.82,26.26,26.26,0,0,0-3-1.29c-.87-.33-1.77-.68-2.62-1.09a.39.39,0,0,1-.22-.45.5.5,0,0,1,.62-.31,4.88,4.88,0,0,0,2.27.08A1.61,1.61,0,0,0,156,35a.57.57,0,0,0-.21-.64,5.13,5.13,0,0,0-2.69-.95,12.25,12.25,0,0,1-1.37-.28.41.41,0,0,1-.3-.31.39.39,0,0,1,.13-.4c1.41-1.14,3.18-2.89,3.7-4.79a1.1,1.1,0,0,0-.36-1.24c-.36-.25-1,.09-1.41.39a8.94,8.94,0,0,0-1.16,1,9.13,9.13,0,0,1-1.28,1.1.54.54,0,0,1-.66-.06.38.38,0,0,1-.09-.38l.27-.9a11.87,11.87,0,0,0,.63-2.7,2.67,2.67,0,0,0-.4-1.61c-.12-.12-.18-.07-.28,0a4.46,4.46,0,0,0-1.29,1,7.08,7.08,0,0,1-.57.54.5.5,0,0,1-.64,0,.42.42,0,0,1-.15-.31c0-.24,0-.52,0-.82.08-.9.17-1.9-.51-2.31a7.7,7.7,0,0,0-1.15,3.81l-.05,1.21-.52-1.11a9.1,9.1,0,0,0-.84-1.46v.61a6.36,6.36,0,0,1-.08,1.56.43.43,0,0,1-.42.32.52.52,0,0,1-.5-.3c-.05-.15-.1-.3-.16-.46a4.4,4.4,0,0,0-1.06-2,13.3,13.3,0,0,0-.32,1.45c-.07.38-.14.77-.23,1.16a.47.47,0,0,1-.44.31.46.46,0,0,1-.45-.24,7.31,7.31,0,0,1-.4-1c-.69-1-1.34-1.48-1.89-1.31l-.47.14.08-.44a4.17,4.17,0,0,0,0-2.16,11.6,11.6,0,0,0-2.39,2.46l-.4.5-1.38,1.7.86-1.95c.94-2.12,1.22-3.53.85-4.19a.74.74,0,0,0-.51-.37,2.07,2.07,0,0,0-2,1l-.25.36-.25-.35c-.12-.16-.25-.31-.39-.47-.69-.77-2.78-2.62-3.89-2.57l-.14,0a.69.69,0,0,0-.5.33c-.14.25-.2.78.33,1.9l.63,1.35-1.13-1.06c-.7-.66-1.45-1.3-2.29-2l-.14-.12c-.48-.37-1.72-1.34-2.28-1s-.29,1.58,0,2.32a5,5,0,0,1,.17.51,7.3,7.3,0,0,0,.55,1.42l.53,1-1-.72a8.57,8.57,0,0,0-2.51-1.34l-.59-.23a17.15,17.15,0,0,0-2.12-.68l-.4-.09.23-.31a10.94,10.94,0,0,0,1.9-3.62,1.9,1.9,0,0,0-.63-2.11,1.06,1.06,0,0,0-.66-.18,3.78,3.78,0,0,0-1.79.79A14.77,14.77,0,0,0,115,15.41a13.85,13.85,0,0,1-2,1.71.66.66,0,0,1-.81-.07.51.51,0,0,1-.11-.46c.14-.47.29-.95.44-1.42a19.74,19.74,0,0,0,1-4.3,4.35,4.35,0,0,0-.67-2.66.54.54,0,0,0-.64-.08,6.86,6.86,0,0,0-2.09,1.6c-.29.29-.59.58-.9.84a.62.62,0,0,1-.77,0,.5.5,0,0,1-.19-.38c0-.39,0-.82.07-1.29.13-1.53.28-3.25-1-3.87a12.2,12.2,0,0,0-1.93,6.23l0,1.21-.52-1.11a13,13,0,0,0-1.49-2.52l-.16-.18a13.45,13.45,0,0,0,0,1.42,10,10,0,0,1-.14,2.43.5.5,0,0,1-.49.38.65.65,0,0,1-.62-.37c-.08-.23-.17-.47-.25-.72a6.62,6.62,0,0,0-1.91-3.32,13.93,13.93,0,0,0-.6,2.53c-.11.6-.22,1.22-.38,1.83a.54.54,0,0,1-.52.37.57.57,0,0,1-.55-.29A11.54,11.54,0,0,1,97,11.36c-1.14-1.7-2.24-2.45-3.2-2.16l-.46.14.07-.44a7.36,7.36,0,0,0,0-3.49c0-.1-.19-.13-.32,0a19.18,19.18,0,0,0-3.76,3.89c-.22.26-.43.53-.64.79l-1.38,1.7.86-1.95c1.5-3.39,2-5.66,1.35-6.73a1.36,1.36,0,0,0-.93-.67,3.38,3.38,0,0,0-3.42,1.66L85,4.43l-.26-.36a7.25,7.25,0,0,0-.62-.75C83,2.07,79.61-.88,77.8-.8a1,1,0,0,0-.25,0,1.31,1.31,0,0,0-.92.6c-.35.62-.17,1.68.52,3.14l.63,1.35L76.65,3.26c-1.1-1-2.29-2.06-3.63-3.12L72.79,0c-.71-.58-2.19-1.77-3.28-1.72A1.07,1.07,0,0,0,69-1.6c-1.19.77-.53,2.61-.09,3.83.11.31.21.58.26.79A11.35,11.35,0,0,0,70,5.3l.53,1-1-.72a14,14,0,0,0-4-2.14l-.94-.36a15,15,0,0,0-5.24-1.29,2.44,2.44,0,0,0-1.68.61c-1.38,1.33-.42,3.84.22,5.51.12.3.23.58.3.81s.14.36.21.53.08.17.11.26l.25.6-1.36-.56-.9-.37c-.24-.1-.46,0-.72.3-.71.87-.42,1.3.18,2.17l.06.09a21.69,21.69,0,0,0,2.63,3.16l.82.81-1.15-.38A20.87,20.87,0,0,0,52,14.05h-.56c-1.63.07-3.81.54-4.58,1.64a.89.89,0,0,0-.14.88c.26.66,1.43,1.71,5.54,3l2,.61-2.08-.09c-1.37-.06-2.59-.07-3.71,0-5.06.22-8.4,1.55-10.21,4.09a.89.89,0,0,0-.15,1c1,1.86,8.7,2.77,11.24,3.06l2,.23-2,.3-1.32.19a58.69,58.69,0,0,0-6.53,1.19l-.43.11c-1.67.42-3.75,1-4.34,2.36a.85.85,0,0,0,0,.89c.75,1.07,4.16,1.37,5.45,1.48l2,.17-2,.35c-1.76.32-3.84.91-3.78,1.95s1.23,1.67,3.5,2l.92.11-.83.38c-5.94,2.75-9.33,6.27-9.33,9.65A4.78,4.78,0,0,0,33,51.46l.26.58-.66-.23a11.68,11.68,0,0,0-4-.85,2.46,2.46,0,0,0-1.68.61c-1.38,1.32-.41,3.84.23,5.51l.29.81.21.53a2.72,2.72,0,0,1,.11.25l.25.61-1.35-.56-.91-.37c-.25-.1-.46,0-.71.3-.72.87-.42,1.3.17,2.17l.05.08a22,22,0,0,0,2.65,3.17l.81.81-1.14-.39a21,21,0,0,0-6.4-1.31h-.56c-1.63.07-3.81.54-4.58,1.65a.85.85,0,0,0-.13.87c.25.66,1.43,1.72,5.54,3l1.95.6-2.08-.08c-1.37-.07-2.59-.07-3.72,0-5.05.21-8.39,1.55-10.2,4.08a.91.91,0,0,0-.15,1c1,1.86,8.7,2.76,11.24,3.06l2,.23-2,.29-1.33.19a58.33,58.33,0,0,0-6.53,1.2l-.43.11c-1.67.42-3.75,1-4.34,2.35a.87.87,0,0,0,0,.9C6.63,83.69,10,84,11.33,84.1l2,.18-2,.35c-1.76.31-3.84.91-3.78,2s1.24,1.67,3.5,1.94l.93.11-.84.39c-5.93,2.74-9.34,6.26-9.33,9.65a3.8,3.8,0,0,0,1.19,3,5.25,5.25,0,0,0,3.65.93l.53,0,1-.1-.83.57c-1.4,1-2,1.74-1.72,2.4s1,1.11,2.18,1.07h.5l-.23.39c-.34.61-.43,1.11-.25,1.36s.74.29,1.54.11l1.23-.3-1,.75c-.38.3-.76.62-1.13.93s-.66.56-1,.82a5.82,5.82,0,0,0-2.13,3.15c-.14.5-.11.86.08,1.06.44.47,1.86.34,4-.39l1.41-.48-1.1.92c-.88.75-1.3,1.37-1.21,1.82s.39.59,1,.81a2.6,2.6,0,0,0,1,.12,14,14,0,0,0,4.77-1.48c.29-.13.54-.27.81-.42l1.15-.64-.94,1.27c-.41.56-.84,1.14-1.3,1.71-.73.88-1.17,2.69-.66,3.54.32.53,1,.58,2,.19a2.86,2.86,0,0,0,.69-.4l.44-.32.05.5c.16,1.72.94,4,2.61,4.67,1.26.53,2.08.06,2.54-1.48l.2-.65.35.59a1.1,1.1,0,0,0,1,.63A5.44,5.44,0,0,0,27.27,124a2.56,2.56,0,0,0,.46-.52l.51.28c-.07.09-.15.22-.29.44l-.12.18a11.39,11.39,0,0,0-.7,1.15c-.65,1.24-.55,1.69-.43,1.85a.65.65,0,0,0,.56.15,14.06,14.06,0,0,0,5-2.14l1.75-1-1.36,1.43c-2.11,2.23-2.79,4.08-2.13,5.82a1,1,0,0,0,1.08.78c1.44-.06,3.71-2,4.41-2.88A6.58,6.58,0,0,0,36.7,128c.07-.21.12-.35.34-.36h.14l.1.11c.1.1.1.1,0,.58a9.78,9.78,0,0,0-.26,1.94v.09c0,1.09,0,2.21,1,2.69a1.56,1.56,0,0,0,.73.14c1.35-.06,3.14-1.82,4.92-4.84l.54-.92,0,1c0,1.87.41,3.16,1.07,3.72l.13.11-.06.16c-.41,1.13-.44,2-.08,2.37a1.34,1.34,0,0,0,1.13.35,8.75,8.75,0,0,0,3.62-1.31l.12-.08.49-.57c.3-.35.59-.7.89-1A.66.66,0,0,1,52,132ZM91.48,92.94a9.07,9.07,0,0,0,.08,1.37,6.55,6.55,0,0,1,.17-.86l.09-.3A3.13,3.13,0,0,0,91.48,92.94Z"/><path class="cls-10" d="M178.18,74.7c-.3,0-.51-.31-.22-.45,2.22-1,6.51-5,2.09-6.08-2.62-.62-5.56,0-8.22.22a.24.24,0,0,1-.2-.41,7.2,7.2,0,0,0,2.45-6.7A2.87,2.87,0,0,0,172.3,59c-1.44-.48-3.08.5-4.18,1.22-.23.15-.51-.13-.37-.33.56-.84,1.19-2,.67-2.93-.69-1.3-2.67.5-3.19,1a.28.28,0,0,1-.47-.24,9.47,9.47,0,0,0-1.2-6.18,3,3,0,0,0-2.28-1.67c-1.4-.07-2.46,1.5-3.05,2.39a.29.29,0,0,1-.52-.11,9,9,0,0,0-.7-3.28,27.55,27.55,0,0,1-.34-3.25c0-.11.16-.18.27-.12a14.36,14.36,0,0,0,1.91,1.1c1.14.45,1.59-.57,1.33-1.36a6.24,6.24,0,0,0-2.4-2.86c-.19-.11,0-.36.18-.26a2,2,0,0,0,2.13.08c.56-.39.43-1.21.18-1.71a5.61,5.61,0,0,0-2.42-2c-1.79-.94-3.8-1.49-5.62-2.38-.17-.08,0-.33.16-.27a5.2,5.2,0,0,0,2.42.09c1-.16,2-1,1.17-1.82s-2.91-.94-4.19-1.31a.15.15,0,0,1-.06-.26c1.57-1.28,3.27-3.06,3.78-4.93a1.32,1.32,0,0,0-.46-1.51c-.57-.39-1.32.07-1.78.39-.9.61-1.53,1.49-2.44,2.09-.14.09-.33,0-.28-.17a17.87,17.87,0,0,0,.9-3.65c0-.44-.1-2.3-1.09-1.9a8.5,8.5,0,0,0-1.94,1.58.18.18,0,0,1-.29-.12c0-1.11.55-3-.88-3.48l-.09.13a7.92,7.92,0,0,0-1.25,4,8.28,8.28,0,0,0-1-1.63,2.9,2.9,0,0,0-.4-.41.78.78,0,0,0,0,.16,25.9,25.9,0,0,1-.11,2.64c0,.17-.29.11-.33,0-.36-1-.64-2.2-1.65-2.79a22.16,22.16,0,0,0-.71,3c0,.13-.26.14-.32,0a7,7,0,0,1-.39-1c-.63-.93-1.43-1.71-2.26-1.46a4.66,4.66,0,0,0,0-2.29.32.32,0,0,0-.5-.1,14.85,14.85,0,0,0-2.83,3c.87-2,1.75-4.53.15-4.91a2.32,2.32,0,0,0-2.38,1.13,6.12,6.12,0,0,0-.4-.49c-.61-.69-3.05-2.94-4.33-2.65s-.94,1.43-.39,2.6a29.54,29.54,0,0,0-2.32-2c-.46-.37-1.93-1.67-2.79-1.12-1.07.69-.15,2.4,0,3.1a7.23,7.23,0,0,0,.57,1.47A9.55,9.55,0,0,0,121,20a23.12,23.12,0,0,0-2.74-.92,11.27,11.27,0,0,0,1.94-3.7,2.11,2.11,0,0,0-.74-2.38c-.88-.62-2.08.11-2.81.61-1.42,1-2.42,2.35-3.85,3.3-.22.15-.51,0-.44-.25a29.33,29.33,0,0,0,1.43-5.77c0-.71-.17-3.65-1.74-3-1.23.51-2.09,1.68-3.06,2.49a.28.28,0,0,1-.46-.2c0-1.75.87-4.73-1.39-5.49a1.67,1.67,0,0,1-.13.2,12.33,12.33,0,0,0-2,6.36,13.43,13.43,0,0,0-1.52-2.57,6.89,6.89,0,0,0-.63-.65,2.34,2.34,0,0,0,0,.26,38.85,38.85,0,0,1-.16,4.17c-.06.27-.46.18-.53,0-.57-1.53-1-3.46-2.6-4.39a34.6,34.6,0,0,0-1.12,4.73c0,.2-.41.22-.51,0a11.92,11.92,0,0,1-.62-1.57c-1-1.47-2.25-2.7-3.57-2.3a7.37,7.37,0,0,0,0-3.62A.5.5,0,0,0,93,5.16,23.79,23.79,0,0,0,88.48,9.9c1.38-3.1,2.75-7.16.23-7.76A3.71,3.71,0,0,0,85,3.92c-.19-.26-.41-.51-.63-.76C83.36,2.07,79.5-1.5,77.48-1c-1.83.43-1.48,2.26-.61,4.1C75.74,2,74.56,1,73.22-.06c-.74-.58-3.06-2.63-4.42-1.76-1.69,1.09-.24,3.79,0,4.91a12.5,12.5,0,0,0,.89,2.32,14.75,14.75,0,0,0-4.08-2.19c-1.62-.54-6.3-2.79-8.19-1s-.07,5,.46,6.57c.09.28.22.54.32.8-.54-.22-1.06-.45-1.6-.66a.92.92,0,0,0-1.09.39c-.85,1-.42,1.61.22,2.55a22.22,22.22,0,0,0,2.67,3.2A21.15,21.15,0,0,0,52,13.78c-1.6,0-4.44.41-5.41,1.79-1.18,1.68,2.19,3.2,5.56,4.24-5.32-.23-11.34.21-14.19,4.2C36,26.69,44,27.88,49.22,28.48a72.09,72.09,0,0,0-7.89,1.4c-1.78.46-4.27,1-5,2.62-.83,2,2.87,2.48,5.73,2.73-2,.36-4.09,1-4,2.23s1.66,1.94,3.75,2.19c-5,2.33-9.5,5.82-9.48,9.88a4.86,4.86,0,0,0,.39,2c-2-.73-4.73-1.45-6.06-.17-1.76,1.69-.07,5,.46,6.58.09.28.21.53.32.8l-1.6-.67a.94.94,0,0,0-1.08.39c-.86,1-.42,1.61.21,2.55a21.18,21.18,0,0,0,2.67,3.2,21.14,21.14,0,0,0-6.48-1.32c-1.6,0-4.45.4-5.42,1.78-1.17,1.69,2.19,3.21,5.56,4.25C16,68.72,10,69.16,7.12,73.14c-1.93,2.7,6.1,3.88,11.3,4.48A74.51,74.51,0,0,0,10.53,79c-1.78.46-4.27,1-5,2.63-.83,2,2.87,2.48,5.74,2.73-2,.35-4.1,1-4,2.22S8.94,88.53,11,88.78c-5,2.34-9.5,5.82-9.49,9.89,0,3.47,2.53,4.48,5.7,4.19-1.07.73-2.18,1.7-1.82,2.7s1.24,1.28,2.47,1.24c-.79,1.41-.38,2.32,1.62,1.84-.73.57-1.43,1.21-2.12,1.75a6.16,6.16,0,0,0-2.23,3.29c-.61,2.28,2,1.81,4.48,1-1.34,1.12-2.08,2.35-.14,3.07,1.57.57,4.7-.69,6.07-1.38.28-.13.55-.28.82-.43-.49.66-1,1.31-1.5,2-1.22,1.5-1.74,5.5,1.67,4.14a3.7,3.7,0,0,0,.76-.45c.19,2.05,1.1,4.19,2.78,4.89s2.54-.25,3-1.65a1.39,1.39,0,0,0,1.34.76,5.78,5.78,0,0,0,3.07-1.32,3.3,3.3,0,0,0,.53-.58,3.37,3.37,0,0,0-.3.45,13.47,13.47,0,0,0-.83,1.34c-2.09,4,2.29,2.16,5.61.19-1.75,1.84-3,3.9-2.19,6.08,1,2.66,5.09-1,6-2,.46-.53,1-2.6.69-1.43a9.23,9.23,0,0,0-.26,2c0,1.11,0,2.44,1.21,3,2.11,1,4.56-2.3,6-4.82,0,1.48.27,3.15,1.16,3.9-1.5,4.08,2.12,3.48,5.11,1.71-.13.17-.27.34-.4.53.71-.74,1.33-1.56,2-2.25.14-.16.44-.15.49.07a6.21,6.21,0,0,0,4,4.18,2.88,2.88,0,0,0,2.12.13c1-.46.23-2.12,0-2.72a.27.27,0,0,1,.45-.28c1.58,1.71,6.79,4.61,7.1.54.18-2.42-1.09-4.84-1.81-7.12-.07-.2.22-.37.42-.25a9.5,9.5,0,0,0,7.84.72,3.07,3.07,0,0,0,2.16-2c.27-1.35-1.13-2.57-2.14-3.38-.21-.17,0-.47.3-.39,1,.3,2.39.62,3.35,0,1.3-.88-1.06-2.23-1.75-2.57-.26-.13-.07-.43.17-.45A12.86,12.86,0,0,0,81,116.43a2.67,2.67,0,0,0,1.4-2.34c-.18-1.23-2.12-1.82-3.2-2.15a.24.24,0,0,1,0-.47c2.42-.45,4.83-2,6.71-3.37a7.43,7.43,0,0,0,2.41-2.42c.61-1.26-1.44-1.41-2.34-1.46a.25.25,0,1,1,0-.49c2.81.3,4.45-2.26,2.64-4.22-.22-.24.19-.57.41-.33s1.9,2.26,2.46,1.46a4.19,4.19,0,0,0,.22-2.48,51.59,51.59,0,0,1-.54-5.25.28.28,0,0,1,.43-.19,5.74,5.74,0,0,1,.53.32l-.15.47c-.37,1.39-.48,3.95.83,5,1.61,1.35,4-1.29,5.84-4-1.37,4.59-2.15,9.92,1.64,13.17,2.56,2.19,5.55-4.58,7.31-9a51.45,51.45,0,0,0-.12,7.14c.14,1.64.17,3.91,1.85,4.83,2,1.1,3.33-2,4.21-4.48,0,1.79.24,3.76,1.61,3.93,1.21.15,2.12-.69,2.8-2a3.71,3.71,0,0,0,0,.47,2.37,2.37,0,0,0,2,2.59c.18.34.37.67.55,1a.89.89,0,0,0-.14.78,1.25,1.25,0,0,0,1.22.78c.07.1.15.19.22.28-.27.66,0,1.07.87.94a.94.94,0,0,1,.1.1l-1.15,1a3.88,3.88,0,0,0-1.42,2.08c-.39,1.45,1.29,1.15,2.83.63-.84.7-1.31,1.48-.08,1.94,1,.36,3-.44,3.84-.88a5.12,5.12,0,0,0,.52-.27c-.31.42-.61.83-1,1.24-.77.95-1.1,3.48,1.06,2.62a2.61,2.61,0,0,0,.48-.28,3.62,3.62,0,0,0,1.76,3.09c1.07.45,1.61-.15,1.87-1a.9.9,0,0,0,.85.48,3.58,3.58,0,0,0,1.94-.84,1.42,1.42,0,0,0,.33-.36s-.09.14-.18.28-.38.56-.53.85c-1.32,2.54,1.45,1.37,3.55.12-1.1,1.17-1.91,2.47-1.38,3.85.64,1.68,3.22-.61,3.8-1.28.29-.34.61-1.65.44-.91a5.47,5.47,0,0,0-.17,1.27c0,.71,0,1.54.76,1.91,1.34.6,2.89-1.46,3.83-3.05a3.53,3.53,0,0,0,.73,2.47c-.94,2.58,1.35,2.19,3.24,1.08l-.26.33c.45-.47.85-1,1.25-1.42.09-.1.29-.1.31,0a4,4,0,0,0,2.5,2.64,1.86,1.86,0,0,0,1.35.09c.64-.3.14-1.35,0-1.73a.17.17,0,0,1,.29-.18c1,1.09,4.3,2.92,4.49.35.12-1.54-.69-3.07-1.14-4.51,0-.13.14-.23.26-.16a6,6,0,0,0,5,.46,2,2,0,0,0,1.37-1.28c.16-.86-.72-1.64-1.36-2.15-.13-.11,0-.3.19-.25a2.53,2.53,0,0,0,2.12,0c.83-.55-.67-1.41-1.1-1.62-.17-.09-.05-.28.1-.29a8,8,0,0,0,4.17-1.49,1.72,1.72,0,0,0,.89-1.48c-.12-.77-1.35-1.15-2-1.36a.15.15,0,0,1,0-.3,11.5,11.5,0,0,0,4.25-2.13,4.69,4.69,0,0,0,1.54-1.53c.37-.8-.92-.89-1.49-.92a.16.16,0,1,1,0-.32c1.78.19,2.81-1.43,1.67-2.67-.14-.15.12-.36.26-.2s1.19,1.43,1.55.92.17-1.13.15-1.57a31.31,31.31,0,0,1-.34-3.33c0-.11.16-.18.27-.12a14.36,14.36,0,0,0,1.91,1.1c1.13.45,1.59-.56,1.34-1.36a6.27,6.27,0,0,0-2.42-2.85c-.18-.12,0-.36.19-.27a2,2,0,0,0,2.12.08c.58-.39.43-1.21.18-1.71a5.41,5.41,0,0,0-2.42-1.95c-1.68-.9-3.57-1.44-5.31-2.25l-.22-.41h.07a5.25,5.25,0,0,0,2.43.09c1-.16,2-1,1.16-1.82a3.23,3.23,0,0,0-1.47-.76,1.92,1.92,0,0,0,.51-.4c.78-.86.33-2-.62-3.16A6.86,6.86,0,0,0,173.58,87a1.46,1.46,0,0,0-.08-1.07l.08,0c4.2,2.08,4.28-1.18,3-4.12l.49.44c-.67-.75-1.43-1.45-2.06-2.14a.24.24,0,0,1,.18-.42A7.07,7.07,0,0,0,180.59,77a2.13,2.13,0,0,0,.6-1.82C180.89,74.2,178.9,74.56,178.18,74.7ZM104.65,60.31c-.14,2.53-3,4.22-5.29,5.22a24.56,24.56,0,0,1-2.85,1,13,13,0,0,1,5,1.6c3.41,2,1.63,5.42-.85,7.47C96.2,79.26,90.4,78.48,86,75.68a4.52,4.52,0,0,1-3.49,1.66c-2.24,0-3.5-2.08-4.1-3.77a6.92,6.92,0,0,1-2,3.71,3.61,3.61,0,0,1-4.2.22,10.62,10.62,0,0,1-2.68-3.8c-.76,2-2.85,1.28-4.63,0,.39.63.75,1.26,1.1,1.9a12.76,12.76,0,0,1,1.8,5.31,3.68,3.68,0,0,1-1.91,3.45,2.21,2.21,0,0,1-1,.16c1.4,2.09,2.32,4.82.45,6a4.61,4.61,0,0,1-4.23-.07c.32.43.63.87.92,1.31,1.19,1.79,2.71,4.34,2,6.52-1.54,4.4-7.21,1.83-10.63-.37.55,1,.66,2-.61,2.68a4.81,4.81,0,0,1-2.81.47c1.32,1,2.38,2.31,2.26,3.59-.15,1.55-1.78,1.41-3.33.84a16.57,16.57,0,0,1,2.73,4.18c.77,1.69,1.66,4.63-.72,5.76-2,.95-4-.72-5.11-2-.29-.33-.58-.69-.87-1.06,0,.21,0,.42,0,.61,0,2.16-.34,4.9-2.07,6.58a4.1,4.1,0,0,1-5.82-.22,10.13,10.13,0,0,1-2.46-4.43,7.07,7.07,0,0,1-2,4.25,3.11,3.11,0,0,1-2.83.74c-.47-.09-.54-1.12-.56-1.47a3.57,3.57,0,0,1,0-.57,2.89,2.89,0,0,1-2.11,1c-1.15,0-2-1.29-2.09-2.18a7.61,7.61,0,0,1,.44-3.39l-.36.33c-1,.94-2.74,2.43-4.37,1.9-2.1-.69-2-3.14-1.32-4.68a13.08,13.08,0,0,1,.69-1.26l-.09,0c-1.34.59-3.69,1.36-4.71-.09-1.6-2.27,1.4-4.42,4.36-5.7a3.18,3.18,0,0,1-2.23-.69c-.66-.6-.58-1.15-.16-1.59a25.26,25.26,0,0,1-4.08,0c-1.56-.11-4.54-.6-4.46-2.51.13-2.62,3.23-4.08,5.81-4.39a25,25,0,0,1,6.35.14c-2.13-.85-4.16-2.11-3.41-3.75a2.68,2.68,0,0,1,2.45-1.41c-1.63-.76-4-1.92-4.45-3.62s1.19-2.86,3.06-2.72a16.76,16.76,0,0,1,4.68,1.18l-.29-.29a.25.25,0,0,1,0-.41A5.7,5.7,0,0,1,25.78,83c-1-.56-1.86-1.17-2.68-1.74-1.76-1.22-5-3.45-4.82-5.77.29-3,3.14-2.21,5.95-.64a4,4,0,0,1-.33-1.52.26.26,0,0,1,.2-.27A8.08,8.08,0,0,1,30,74.55a3.09,3.09,0,0,1-.56-2.82.29.29,0,0,1,.28-.2,8.1,8.1,0,0,1,3.73,1c-.56-.65-1.1-1.32-1.6-2-1-1.38-3.19-4.23-1.7-5.92S34,64.38,36,66.48a10.63,10.63,0,0,1-1.44-4,2.22,2.22,0,0,1,2.34-2.53c1.27,0,2.39,1,3.31,2A12.54,12.54,0,0,1,39,56.2a1.42,1.42,0,0,1,1.82-1.48c-1.54-1.43-2.51-3.28-.62-4.65a5.25,5.25,0,0,1,2.67-.85c-1.75-.85-2.82-2.11-1.66-3.81s3.51-1.94,5.45-1.94a22,22,0,0,1,2.67.12,11.84,11.84,0,0,1-2.94-2.08.26.26,0,0,1,0-.42c2.15-1.19,4.58-.94,6.88-.24-1.06-.52-2.12-1-3.11-1.64-1.5-.92-3.95-2.37-4-4.24s2-3.13,3.93-2.89a12.26,12.26,0,0,1,4,1.31A3.7,3.7,0,0,1,53,30.59a.3.3,0,0,1,.37-.27,9.46,9.46,0,0,1,2,.86,25.06,25.06,0,0,1-1.74-2.6c-.65-1.1-2.33-3.85-.58-4.86a3.65,3.65,0,0,1,4.2.68c-.24-1.89-.33-4.46,1.58-5.59s3.29.09,4,2c.14-1.36.45-3.45,2.14-4s2.78.54,3.43,2.05c0-.07,0-.14,0-.22a15.19,15.19,0,0,1,.62-5.76c1-2.56,3.76-1.9,5,.14,1.86,3.08,2.12,7,2.19,10.46,0,.54,0,1.11,0,1.69.77-1.12,2.67-3.08,3.87-1.4s.18,4.87-.42,6.74a5.08,5.08,0,0,1,.43-.27c1.5-.78,3.26,0,3.26,1.62,0,2.24-1.67,4.48-3,6.25l-.24.3a8.66,8.66,0,0,1,1.79-.81c1.69-.52,3.45.36,2.94,2.11A11,11,0,0,1,82,44,5.64,5.64,0,0,1,86.46,43,2.65,2.65,0,0,1,88,44.1c1.1-1.41,2.53-2.85,4.27-3,2.4-.24,2.88,2,2.64,3.67,1.18-1,2.92-1.93,4-.6,1.32,1.62-.19,4.34-1.1,5.85,0,.07-.09.15-.14.23a6.47,6.47,0,0,1,4-.34.27.27,0,0,1,.23.24c.13,2.6-2,4.64-4.55,6.18C101,55.64,104.87,56.38,104.65,60.31Z"/><path class="cls-10" d="M178.18,74.7c-.3,0-.51-.31-.22-.45,2.22-1,6.51-5,2.09-6.08-2.62-.62-5.56,0-8.22.22a.24.24,0,0,1-.2-.41,7.2,7.2,0,0,0,2.45-6.7A2.87,2.87,0,0,0,172.3,59c-1.44-.48-3.08.5-4.18,1.22-.23.15-.51-.13-.37-.33.56-.84,1.19-2,.67-2.93-.69-1.3-2.67.5-3.19,1a.28.28,0,0,1-.47-.24,9.47,9.47,0,0,0-1.2-6.18,3,3,0,0,0-2.28-1.67c-1.4-.07-2.46,1.5-3.05,2.39a.29.29,0,0,1-.52-.11,9,9,0,0,0-.7-3.28,27.55,27.55,0,0,1-.34-3.25c0-.11.16-.18.27-.12a14.36,14.36,0,0,0,1.91,1.1c1.14.45,1.59-.57,1.33-1.36a6.24,6.24,0,0,0-2.4-2.86c-.19-.11,0-.36.18-.26a2,2,0,0,0,2.13.08c.56-.39.43-1.21.18-1.71a5.61,5.61,0,0,0-2.42-2c-1.79-.94-3.8-1.49-5.62-2.38-.17-.08,0-.33.16-.27a5.2,5.2,0,0,0,2.42.09c1-.16,2-1,1.17-1.82s-2.91-.94-4.19-1.31a.15.15,0,0,1-.06-.26c1.57-1.28,3.27-3.06,3.78-4.93a1.32,1.32,0,0,0-.46-1.51c-.57-.39-1.32.07-1.78.39-.9.61-1.53,1.49-2.44,2.09-.14.09-.33,0-.28-.17a17.87,17.87,0,0,0,.9-3.65c0-.44-.1-2.3-1.09-1.9a8.5,8.5,0,0,0-1.94,1.58.18.18,0,0,1-.29-.12c0-1.11.55-3-.88-3.48l-.09.13a7.92,7.92,0,0,0-1.25,4,8.28,8.28,0,0,0-1-1.63,2.9,2.9,0,0,0-.4-.41.78.78,0,0,0,0,.16,25.9,25.9,0,0,1-.11,2.64c0,.17-.29.11-.33,0-.36-1-.64-2.2-1.65-2.79a22.16,22.16,0,0,0-.71,3c0,.13-.26.14-.32,0a7,7,0,0,1-.39-1c-.63-.93-1.43-1.71-2.26-1.46a4.66,4.66,0,0,0,0-2.29.32.32,0,0,0-.5-.1,14.85,14.85,0,0,0-2.83,3c.87-2,1.75-4.53.15-4.91a2.32,2.32,0,0,0-2.38,1.13,6.12,6.12,0,0,0-.4-.49c-.61-.69-3.05-2.94-4.33-2.65s-.94,1.43-.39,2.6a29.54,29.54,0,0,0-2.32-2c-.46-.37-1.93-1.67-2.79-1.12-1.07.69-.15,2.4,0,3.1a7.23,7.23,0,0,0,.57,1.47A9.55,9.55,0,0,0,121,20a23.12,23.12,0,0,0-2.74-.92,11.27,11.27,0,0,0,1.94-3.7,2.11,2.11,0,0,0-.74-2.38c-.88-.62-2.08.11-2.81.61-1.42,1-2.42,2.35-3.85,3.3-.22.15-.51,0-.44-.25a29.33,29.33,0,0,0,1.43-5.77c0-.71-.17-3.65-1.74-3-1.23.51-2.09,1.68-3.06,2.49a.28.28,0,0,1-.46-.2c0-1.75.87-4.73-1.39-5.49a1.67,1.67,0,0,1-.13.2,12.33,12.33,0,0,0-2,6.36,13.43,13.43,0,0,0-1.52-2.57,6.89,6.89,0,0,0-.63-.65,2.34,2.34,0,0,0,0,.26,38.85,38.85,0,0,1-.16,4.17c-.06.27-.46.18-.53,0-.57-1.53-1-3.46-2.6-4.39a34.6,34.6,0,0,0-1.12,4.73c0,.2-.41.22-.51,0a11.92,11.92,0,0,1-.62-1.57c-1-1.47-2.25-2.7-3.57-2.3a7.37,7.37,0,0,0,0-3.62A.5.5,0,0,0,93,5.16,23.79,23.79,0,0,0,88.48,9.9c1.38-3.1,2.75-7.16.23-7.76A3.71,3.71,0,0,0,85,3.92c-.19-.26-.41-.51-.63-.76C83.36,2.07,79.5-1.5,77.48-1c-1.83.43-1.48,2.26-.61,4.1C75.74,2,74.56,1,73.22-.06c-.74-.58-3.06-2.63-4.42-1.76-1.69,1.09-.24,3.79,0,4.91a12.5,12.5,0,0,0,.89,2.32,14.75,14.75,0,0,0-4.08-2.19c-1.62-.54-6.3-2.79-8.19-1a2.29,2.29,0,0,0-.61,1L57,3.19c3-.76,5.46,1.87,7.37,3.82-.32-1.18-.39-2.68,1-2.72s2,1.27,2.44,2.48A1.1,1.1,0,0,1,69.15,6a6,6,0,0,1,3.6,2.15c2.51,3.19,3.29,7,4.4,10.76-.15-2.62-.08-5.47,2-7.33a.32.32,0,0,1,.42,0,8.08,8.08,0,0,1,2,4.47,6.07,6.07,0,0,1,1.76-3.39.34.34,0,0,1,.36-.06c2.6,1.18,3.06,4.38,3.22,6.71a35.46,35.46,0,0,1,0,4.61c.82-2.5,2.18-5,4.9-5.32a.3.3,0,0,1,.26.12A5,5,0,0,1,93,22.92c1-1.35,2.42-2.34,4-1.58,1.83.88,1.62,2.94.9,4.71a7.9,7.9,0,0,1,3.84-2,3,3,0,0,1,3.57,2.31,7.28,7.28,0,0,1-1.16,4.34c1.46-.94,3-1.1,4.08.87.84,1.48,0,3.47-.83,4.87a5.09,5.09,0,0,1,3-.17,2.65,2.65,0,0,1,1.83,1.51,8.72,8.72,0,0,1,3.12-2.88,1.9,1.9,0,0,1,2.06.26,5.15,5.15,0,0,1,3.18-3.62.36.36,0,0,1,.3.06c2,1.52,2.34,4.08,2.31,6.3,0,.76-.07,1.51-.16,2.27,1-2.62,2.53-5.06,4.23-3.88s.79,4.11.39,5.62c-.14.56-.31,1.11-.48,1.66A10.94,10.94,0,0,1,128.54,42c1.06-1,3.86-2.2,4.49-.13s-.91,4.49-1.93,6.21a31.09,31.09,0,0,1-2.83,4.22c2-1.06,4-2.79,6.27-2.71s2.11,2.24,1.16,3.51c-1.46,2-4.21,3.28-6.61,4.21,1.72.41,3.18,1.65,2.33,3.36s-3.9,2-5.86,2c-1,0-2-.06-2.94-.17A9.82,9.82,0,0,1,126,65.47a3.36,3.36,0,0,1,.57,2c2.61-1.69,6-3,8.23-1.19a3.05,3.05,0,0,1,1.16,1.81,4.43,4.43,0,0,1,.95-.32,1.44,1.44,0,0,1,2,1.41,7.36,7.36,0,0,1,1.89-2.64,2.09,2.09,0,0,1,3.41,1,9.25,9.25,0,0,1-.21,4.66,2.7,2.7,0,0,1,3.48-.69c1.73,1,1.11,3.76.72,5.23a22,22,0,0,1-1.77,4.68c3-1.85,8-1.78,9,1.86.92,3.25-4.21,4.13-7,4.67,3,1.73,8,4.31,6.16,8A3.94,3.94,0,0,1,150.84,98a3.21,3.21,0,0,1-.05,2.18,3.83,3.83,0,0,1-4.47,1.87,7.93,7.93,0,0,1-1.87-.92,9,9,0,0,1,.8,4.23.3.3,0,0,1-.29.28,5.63,5.63,0,0,1-2.17-.53,5.83,5.83,0,0,1,.41,4,.29.29,0,0,1-.28.2,4.69,4.69,0,0,1-3.75-1.76c.88,2.75,1.8,7.13-1.23,7-4.25-.23-5.56-5.33-6-9-.48,1.29-1.38,2.3-2.85.88-2.35-2.25-2.34-5.31-2.47-8.2a35.35,35.35,0,0,1-1,3.9c-.46,1.22-1.2,2.94-2.93,2.9-2.2-.07-3.28-2.37-3.28-4a12.67,12.67,0,0,1,.67-3.89,16.79,16.79,0,0,1-1.32,1.7c-.61.68-1.7,1.94-2.83,1.47-1.59-.66-1-4.2-.77-5.3a23.92,23.92,0,0,1,2.66-6.34c-.53.62-1,1.24-1.6,1.79-1.15,1.15-2.73,2.75-4.57,2.91-2.91.27-3.29-1.82-2.84-4a5.1,5.1,0,0,1-.69.45c-1.34.67-2.48-.69-2.57-1.75a9.78,9.78,0,0,1,.9-4.43,5.52,5.52,0,0,1-3.28,2.17,4.12,4.12,0,0,1-4.33-2.34,9.11,9.11,0,0,1-.78-4c-.44,1.33-.84,2.66-1.41,3.94s-1.6,3.89-3.48,4c-1.47.09-2.21-.89-2.53-2.29-.59,1.58-1.5,2.62-2.94,2.17a3.64,3.64,0,0,1-2.1-2,13.19,13.19,0,0,1-1.75,6.63c-1.36,2-3.71,2.15-5.48.42a8.55,8.55,0,0,1-1.35-1.77c0,.29.1.59.14.89.17,1.49.78,5.13-1.21,6.06-1.43.67-2.61,0-3.56-1.22A4.31,4.31,0,0,1,72,99.25a2.57,2.57,0,0,1-3.2,1,2.63,2.63,0,0,1-.49,2.89,2.12,2.12,0,0,1-2.15.44,5.27,5.27,0,0,1,2.08,4.58c0,.19-.27.23-.43.18a12.84,12.84,0,0,1-3.63-2.16c2.14,2.94,4.64,6.6,2.82,9.92-.9,1.65-2.46,2.94-4.61,2.41A5.37,5.37,0,0,1,59.86,117a16.69,16.69,0,0,1,.58,2.15c.25,1.21.67,3.07-.49,4.05-1.6,1.35-3-.93-3.83-3,0,2.56-.57,5.67-3.13,6.17-3.85.75-5.05-2.86-5-5.75a24.46,24.46,0,0,1-1.7,2.77c-.81,1.14-1.88,2.72-3.4,3.17a2,2,0,0,1-2.7-1.35,4,4,0,0,1,.12-2c-.23.33-.47.65-.73,1-.7.86-1.74,2.18-3,2.34-2.51.3-1.62-2.62-1-4.45-2.25,2.35-5.53,5.55-8.82,5.73,1,.41,3.59-.82,5.76-2.11-1.75,1.84-3,3.9-2.19,6.08,1,2.66,5.09-1,6-2,.46-.53,1-2.6.69-1.43a9.23,9.23,0,0,0-.26,2c0,1.11,0,2.44,1.21,3,2.11,1,4.56-2.3,6-4.82,0,1.48.27,3.15,1.16,3.9-1.5,4.08,2.12,3.48,5.11,1.71-.13.17-.27.34-.4.53.71-.74,1.33-1.56,2-2.25.14-.16.44-.15.49.07a6.21,6.21,0,0,0,4,4.18,2.88,2.88,0,0,0,2.12.13c1-.46.23-2.12,0-2.72a.27.27,0,0,1,.45-.28c1.58,1.71,6.79,4.61,7.1.54.18-2.42-1.09-4.84-1.81-7.12-.07-.2.22-.37.42-.25a9.5,9.5,0,0,0,7.84.72,3.07,3.07,0,0,0,2.16-2c.27-1.35-1.13-2.57-2.14-3.38-.21-.17,0-.47.3-.39,1,.3,2.39.62,3.35,0,1.3-.88-1.06-2.23-1.75-2.57-.26-.13-.07-.43.17-.45A12.86,12.86,0,0,0,81,116.43a2.67,2.67,0,0,0,1.4-2.34c-.18-1.23-2.12-1.82-3.2-2.15a.24.24,0,0,1,0-.47c2.42-.45,4.83-2,6.71-3.37a7.43,7.43,0,0,0,2.41-2.42c.61-1.26-1.44-1.41-2.34-1.46a.25.25,0,1,1,0-.49c2.81.3,4.45-2.26,2.64-4.22-.22-.24.19-.57.41-.33s1.9,2.26,2.46,1.46a4.19,4.19,0,0,0,.22-2.48,51.59,51.59,0,0,1-.54-5.25.28.28,0,0,1,.43-.19,5.74,5.74,0,0,1,.53.32l-.15.47c-.37,1.39-.48,3.95.83,5,1.61,1.35,4-1.29,5.84-4-1.37,4.59-2.15,9.92,1.64,13.17,2.56,2.19,5.55-4.58,7.31-9a51.45,51.45,0,0,0-.12,7.14c.14,1.64.17,3.91,1.85,4.83,2,1.1,3.33-2,4.21-4.48,0,1.79.24,3.76,1.61,3.93,1.21.15,2.12-.69,2.8-2a3.71,3.71,0,0,0,0,.47,2.37,2.37,0,0,0,2,2.59c.18.34.37.67.55,1a.89.89,0,0,0-.14.78,1.25,1.25,0,0,0,1.22.78c.07.1.15.19.22.28-.27.66,0,1.07.87.94a.94.94,0,0,1,.1.1l-1.15,1a3.88,3.88,0,0,0-1.42,2.08c-.39,1.45,1.29,1.15,2.83.63-.84.7-1.31,1.48-.08,1.94,1,.36,3-.44,3.84-.88a5.12,5.12,0,0,0,.52-.27c-.31.42-.61.83-1,1.24-.77.95-1.1,3.48,1.06,2.62a2.61,2.61,0,0,0,.48-.28,3.62,3.62,0,0,0,1.76,3.09c1.07.45,1.61-.15,1.87-1a.9.9,0,0,0,.85.48,3.58,3.58,0,0,0,1.94-.84,1.42,1.42,0,0,0,.33-.36s-.09.14-.18.28-.38.56-.53.85c-1.32,2.54,1.45,1.37,3.55.12-1.1,1.17-1.91,2.47-1.38,3.85.64,1.68,3.22-.61,3.8-1.28.29-.34.61-1.65.44-.91a5.47,5.47,0,0,0-.17,1.27c0,.71,0,1.54.76,1.91,1.34.6,2.89-1.46,3.83-3.05a3.53,3.53,0,0,0,.73,2.47c-.94,2.58,1.35,2.19,3.24,1.08l-.26.33c.45-.47.85-1,1.25-1.42.09-.1.29-.1.31,0a4,4,0,0,0,2.5,2.64,1.86,1.86,0,0,0,1.35.09c.64-.3.14-1.35,0-1.73a.17.17,0,0,1,.29-.18c1,1.09,4.3,2.92,4.49.35.12-1.54-.69-3.07-1.14-4.51,0-.13.14-.23.26-.16a6,6,0,0,0,5,.46,2,2,0,0,0,1.37-1.28c.16-.86-.72-1.64-1.36-2.15-.13-.11,0-.3.19-.25a2.53,2.53,0,0,0,2.12,0c.83-.55-.67-1.41-1.1-1.62-.17-.09-.05-.28.1-.29a8,8,0,0,0,4.17-1.49,1.72,1.72,0,0,0,.89-1.48c-.12-.77-1.35-1.15-2-1.36a.15.15,0,0,1,0-.3,11.5,11.5,0,0,0,4.25-2.13,4.69,4.69,0,0,0,1.54-1.53c.37-.8-.92-.89-1.49-.92a.16.16,0,1,1,0-.32c1.78.19,2.81-1.43,1.67-2.67-.14-.15.12-.36.26-.2s1.19,1.43,1.55.92.17-1.13.15-1.57a31.31,31.31,0,0,1-.34-3.33c0-.11.16-.18.27-.12a14.36,14.36,0,0,0,1.91,1.1c1.13.45,1.59-.56,1.34-1.36a6.27,6.27,0,0,0-2.42-2.85c-.18-.12,0-.36.19-.27a2,2,0,0,0,2.12.08c.58-.39.43-1.21.18-1.71a5.41,5.41,0,0,0-2.42-1.95c-1.68-.9-3.57-1.44-5.31-2.25l-.22-.41h.07a5.25,5.25,0,0,0,2.43.09c1-.16,2-1,1.16-1.82a3.23,3.23,0,0,0-1.47-.76,1.92,1.92,0,0,0,.51-.4c.78-.86.33-2-.62-3.16A6.86,6.86,0,0,0,173.58,87a1.46,1.46,0,0,0-.08-1.07l.08,0c4.2,2.08,4.28-1.18,3-4.12l.49.44c-.67-.75-1.43-1.45-2.06-2.14a.24.24,0,0,1,.18-.42A7.07,7.07,0,0,0,180.59,77a2.13,2.13,0,0,0,.6-1.82C180.89,74.2,178.9,74.56,178.18,74.7Z"/><path class="cls-11" d="M33.47,89.93l-.09-.23c-.63-.62-1.3-1.33-1.59-1.57A14.69,14.69,0,0,0,28.07,86c-1.28-.51-2.92-.82-3.88.34-1.14,1.38-.73,3.13.07,4.76a2.86,2.86,0,0,0-.89.37c-.33.22-.76.73-.71,1.13a2.85,2.85,0,0,0,1,1.58,9,9,0,0,0-6.07,2.44c-1.71,1.62-1.2,3,1.1,3.84a20.06,20.06,0,0,0,6.81.75,3,3,0,0,0-.45,1c-.48,2,2.9,1.18,4.41.51a5,5,0,0,1-2.29.06,1,1,0,0,1-.81-1.35,2.46,2.46,0,0,1,1.23-1.32,26.88,26.88,0,0,1-4.82.33c-1.91,0-5.13,0-5.32-2.29-.14-1.73,3.18-2.87,4.64-3.17a9.92,9.92,0,0,1,3.77-.18A7.25,7.25,0,0,1,24.32,93a.86.86,0,0,1,.6-1.36,2.78,2.78,0,0,1,1.47.13,13.92,13.92,0,0,1-.79-1.26c-.53-.95-1.39-2.76-.19-3.64s2.81,0,3.92.57a24.92,24.92,0,0,1,4.2,2.67Z"/><path class="cls-11" d="M57.81,43.67a2.29,2.29,0,0,1,.53-1,6.25,6.25,0,0,1,1-1.21,2.41,2.41,0,0,1,3.08.28,3.67,3.67,0,0,1,1,1.83.33.33,0,0,0,0-.24c-.85-1.76-2.3-4.86-4.7-2.15a7.33,7.33,0,0,0-1.68,5.57c-1.16-1.66-2.61-3.87-4.91-2.07a2.37,2.37,0,0,0-.6,2.53c-.81-.75-1.69-1.15-2.73.11-1.34,1.63-.91,3.29,0,4.9-2-.77-4-.84-4.77,1.94-.44,1.58,1.89,3.75,3.06,4.69a10,10,0,0,0,3.47,1.74A12.94,12.94,0,0,1,47.19,58c-1.08-1.14-3.3-3.7-1.45-5.09,1.29-1,2.85-.58,4.32.3-.15-.33-.27-.67-.38-1-.33-.93-1.09-2.51-.49-3.5.71-1.15,2-.42,3.15.75a4.39,4.39,0,0,1,.09-3.87c.12-.5.5-.86,1.34-.92A2.66,2.66,0,0,1,56,46.12a12.92,12.92,0,0,1,1.23,1.47A9,9,0,0,1,57.81,43.67Z"/><path class="cls-11" d="M72.42,28.45a1.7,1.7,0,0,1,2.58.72,5.87,5.87,0,0,1,.43,2.2c.38-1.72.22-3.94-1.36-4.4a1.65,1.65,0,0,0-2,.77,6.84,6.84,0,0,0-1.22-3.41,2.66,2.66,0,0,0-3.73-.48c-1.83,1.41-2,3.46-1.57,5.44-.08-1.16-.42-2.78.36-3.82a2.27,2.27,0,0,1,3.69-.22,8.63,8.63,0,0,1,1.72,4.47A3,3,0,0,1,72.42,28.45Z"/></g></g></svg>