<svg xmlns="http://www.w3.org/2000/svg" viewBox="0 0 201.92 254.49"><defs><style>.cls-1{isolation:isolate;}.cls-2,.cls-3{fill:#6d3f14;}.cls-3,.cls-4{opacity:0.5;}.cls-3,.cls-6,.cls-7{mix-blend-mode:multiply;}.cls-4{fill:#ab6127;}.cls-5{fill:#428743;}.cls-6{fill:#3c7039;}.cls-6,.cls-7{opacity:0.4;}.cls-7{fill:#2d5d2b;}</style></defs><title>tree </title><g class="cls-1"><g id="Layer_1" data-name="Layer 1"><path class="cls-2" d="M173.54,128.64c-6.73,6.35-15.21,6-23.86,6.06a39.88,39.88,0,0,0,15.56-18.21,8.32,8.32,0,0,0-3-2.36c-2.9,3.68-4.63,8-7.71,11.66-3.63,4.31-8.59,6.62-13.83,8.91-1.25.56-2.47,1.17-3.68,1.82-2.75.82-5.55,1.54-8.26,2.4-1.08.34-7.54,5-7.63,2.11-.19-6-.72-13.21,1.52-19A114.54,114.54,0,0,0,128,105.35c-.73-.27-1.45-.54-2.16-.83a68.14,68.14,0,0,0-6.88,16.61c-1.12,4.42-1.57,9-2.25,13.43a10.14,10.14,0,0,1-.52,5.31,1.26,1.26,0,0,1-2,.48c-4.82-4.71-8.64-12.34-10.75-18.46-2.29-6.61-2.26-13.35-2.29-20.17a3.26,3.26,0,0,0-2,1.26c-3.09,4.68-2,12.47-1,17.61a30.23,30.23,0,0,0,4.4,10.57c3.43,5.36,6.93,8.63,7.63,15.2-1.74,2.46-3.37,5-5.24,7.37-1.72,2.16-3.93,3.5-5.81,5.47-1.58,1.67-2.44,4-3.77,5.84a1.23,1.23,0,0,1-2.23-.56c-.32-5.16-.54-10.55-2.33-15.51-2.12-5.87-5.84-9.76-10.94-13.67-3.93-3-7.94-6-10.49-10.15A10.69,10.69,0,0,1,68,119.59c-.53-4.24.48-9,.34-13,.79-3.46,1.72-6.87,2.19-10.08-1.24-.42-2.56-.54-3.27.31a1.26,1.26,0,0,1-.58.37C64,103.58,64.41,111.31,64,117.9c-.12,2.1-1,4.29-.66,6.4.54,3.26,3.12,5.85,5.59,8.08,1.87,1.68,4.45,2.58,6.44,4.12a53.79,53.79,0,0,1,6.82,5.94c6,6.65,4.43,12.57,4.79,13.67-2.87-8.66-19.23-9.4-27.16-11.26-5.48-1.29-4.15-6.49-4.28-10.4-.19-5.85-3.53-11.12-7.07-15.83-1.25-1.65-4.06-5.54-6.85-6.9a7.12,7.12,0,0,0-2.34,1.1,10.75,10.75,0,0,0,.75,2.54c2.43,2,5.5,6.67,5.91,7.23a29.74,29.74,0,0,1,5.8,14.25,12.3,12.3,0,0,1-.33,3.79c-1.15-2-2-4.3-3.21-6.31-1.7-2.83-5.43-4.47-8.77-5-5.79-1-11.68-1.68-17.58-2.14a8.5,8.5,0,0,0-.34,3.05,7.8,7.8,0,0,0,4.07.88c2.48.1,5,.11,7.43.26,2.93.18,6.62,1.18,8.57,3.35,2.4,2.66,3.4,6,5.62,8.72,3.65,4.49,9,5,14.51,6.16s11,2.77,16.34,4.43a8.06,8.06,0,0,1,5.26,4.79,37.08,37.08,0,0,1,2.79,8.14,51,51,0,0,1,.45,18.76c-.87,6.26,1.19,12.65.7,19-.65,8.31.21,16.44.44,24.74.12,4.49.29,12.63-4,15.86-2.29,1.71-5.17,2.57-7.77,3.83-2.11,1-4.19,2.09-6.23,3.21,1.83.69,4.65,0,6.38-.35,2-.36,8.11-1.42,10.11-1.67.78-.09-2.64,3.42-2.67,4.29,1.77-.56,8-2.69,9.32-3.38s7.6,1.55,11.75,2.75c-.33-.66-.66-1.32-1-2s7-.23,11.75-.23c-1-1.63-9.53-5.22-11.31-6.24-2.67-1.55-5-3.09-5.87-6-.53-1.72.25-3.46.42-5.16.35-3.47-.72-7-.47-10.56.26-3.86.86-7.74.47-11.61-1-10.28-4.3-19-2.41-29.44a48.67,48.67,0,0,1,2.46-9.43,13,13,0,0,1,1.83-5.67,72,72,0,0,1,13.75-15.47c4.82-4,11.41-6.91,17.07-9.86,3.53-1.83,7.12-3.4,11-3.63a13.65,13.65,0,0,1,1.47-.29l.43,0h.14c3.89-.07,7.7.64,11.6.22,8-.85,14.23-2.52,19.62-8.23C177.07,128.72,175.18,127.1,173.54,128.64Z"/><path class="cls-3" d="M126.53,104.81c-.76,2-1.71,3.92-2.56,5.9a66,66,0,0,0-3.09,10.7,89.84,89.84,0,0,0-2.56,11.86c-.38,3.52-.56,7.06-.86,10.59,1.29-.76,2.59-1.49,3.87-2.26a1,1,0,0,1-.15-.57c-.19-6-.72-13.21,1.52-19A114.54,114.54,0,0,0,128,105.35Z"/><path class="cls-3" d="M173.54,128.64c-6.73,6.35-15.21,6-23.86,6.06a39.88,39.88,0,0,0,15.56-18.21,9.25,9.25,0,0,0-1.63-1.56c-3.25,4.41-5.53,9.39-9.12,13.61a22.83,22.83,0,0,1-7,5.76,45.39,45.39,0,0,1-8.66,3,54.75,54.75,0,0,0-9.54,3.08,90.23,90.23,0,0,0-8.07,4.31,75.4,75.4,0,0,0-14.45,11.15,54.27,54.27,0,0,0-12.35,18.26,53.48,53.48,0,0,0-2.83,10.63,27.76,27.76,0,0,0-.34,7.61,41,41,0,0,0,1.65,6.68c1.18,4,2.34,8.17,1.92,12.35-.46,4.67-.84,9.34-1.34,14-.25,2.39-.63,4.78-.82,7.18-.14,1.76-.68,3.74-.19,5.49,1.13,4,5.93,5.11,8.76,7.82a.29.29,0,0,1-.23.49,32.13,32.13,0,0,1-4.35-.64c1,.92,2,1.82,3.1,2.65.31.25-.14.65-.44.41-.14-.1-.28-.23-.43-.35-.51-.41-1-.82-1.52-1.25A5.62,5.62,0,0,0,94,245.74c-1.95.08-3.51,1.92-4.75,3.09a.31.31,0,0,1-.5-.34,8.53,8.53,0,0,0,1-3.4c-2.21,1.25-4.34,2.62-6.65,3.71-2,.94-4.1,1.51-6.16,2.29-1.08.41-2.17.86-3.27,1.3.89-.14,1.74-.32,2.42-.45,2-.36,8.11-1.42,10.11-1.67.78-.09-2.64,3.42-2.67,4.29,1.77-.56,8-2.69,9.32-3.38s7.6,1.55,11.75,2.75c-.33-.66-.66-1.32-1-2s7-.23,11.75-.23c-1-1.63-9.53-5.22-11.31-6.24-2.67-1.55-5-3.09-5.87-6-.53-1.72.25-3.46.42-5.16.35-3.47-.72-7-.47-10.56.26-3.86.86-7.74.47-11.61-1-10.28-4.3-19-2.41-29.44a48.67,48.67,0,0,1,2.46-9.43,13,13,0,0,1,1.83-5.67,72,72,0,0,1,13.75-15.47c4.82-4,11.41-6.91,17.07-9.86,3.53-1.83,7.12-3.4,11-3.63a13.65,13.65,0,0,1,1.47-.29l.43,0h.14c3.89-.07,7.7.64,11.6.22,8-.85,14.23-2.52,19.62-8.23C177.07,128.72,175.18,127.1,173.54,128.64Z"/><path class="cls-3" d="M68.65,96.23c-1.33,6.07-2.88,12.16-3,18.37A24.59,24.59,0,0,0,67,124.06c1.27,3.22,3.51,5.56,6.26,7.82C79,136.61,85.87,141,88.36,148c2.76,7.76,2,16,3.57,24a17.49,17.49,0,0,0,4-7.85c-.19.31-.39.63-.6.93a1.23,1.23,0,0,1-2.23-.56c-.32-5.16-.54-10.55-2.33-15.51-2.12-5.87-5.84-9.76-10.94-13.67-3.93-3-7.94-6-10.49-10.15A10.69,10.69,0,0,1,68,119.59c-.53-4.24.48-9,.34-13,.79-3.46,1.72-6.87,2.19-10.08A5.28,5.28,0,0,0,68.65,96.23Z"/><path class="cls-3" d="M51.86,124.06c1.17,3.3,2.32,6.76,2.39,10.25,0,2.93-.35,6.17.72,9,1.46,3.84,6.27,4.83,10.25,5.22,3.66.36,7.42.36,10.94,1.43a16.8,16.8,0,0,1,10.63,8.84,43.44,43.44,0,0,0-1.91-6.06c-5.45-5.52-18.29-6.29-25-7.88-5.48-1.29-4.15-6.49-4.28-10.4-.14-4.23-1.93-8.16-4.25-11.79C51.52,123.12,51.69,123.59,51.86,124.06Z"/><path class="cls-3" d="M39.46,129.27c-5.79-1-11.68-1.68-17.58-2.14a7,7,0,0,0-.27,1.24,32.41,32.41,0,0,1,6.55.64,105.7,105.7,0,0,1,11,2.68c3.19.93,6.18,1.87,8.28,4.41a30.13,30.13,0,0,1,4.09,7.72,8.52,8.52,0,0,0,.13-4.75c-.07.52-.17,1-.26,1.56-1.15-2-2-4.3-3.21-6.31C46.53,131.49,42.8,129.85,39.46,129.27Z"/><path class="cls-3" d="M99.68,102.39a51.72,51.72,0,0,0-.29,7.25,42.85,42.85,0,0,0,2.3,13.91c2.89,7.59,9.62,13.24,13,20.59a13.45,13.45,0,0,0,.49-3.51,1.11,1.11,0,0,1-1.07-.28c-4.82-4.71-8.64-12.34-10.75-18.46-2.29-6.61-2.26-13.35-2.29-20.17A3.25,3.25,0,0,0,99.68,102.39Z"/><path class="cls-4" d="M111.51,142.92c-.42-1.38-1.58-2.47-2.1-3.82,0,0,0,0,0,0,.91,3.13,3.24,6.89.62,9.87-.83.95-1.71,1.83-2.63,2.7s-1.63,2.12-2.53,3.15a19.14,19.14,0,0,1-3.32,2.9,19.54,19.54,0,0,0-2.85,2.59c-1.83,2-2.67,4.91-3.62,7.34,0,.1.12.08.15,0,1.5-3.09,3-6.12,5.73-8.49a36.77,36.77,0,0,0,3.17-2.51,22.54,22.54,0,0,0,2.63-3.18c1.45-2.28,4.4-3.66,5.14-6.36A8.1,8.1,0,0,0,111.51,142.92Z"/><path class="cls-4" d="M107.66,137.91c-1.07-1.67-1.81-3.49-2.82-5.19a56.75,56.75,0,0,1-3.17-5.5,34.3,34.3,0,0,1-1.76-5.3,19,19,0,0,1-.8-2.93,6.26,6.26,0,0,0-.49-2.08s0,0,0,0a9,9,0,0,1,.3,2.63,12.92,12.92,0,0,0,.5,2.58,37,37,0,0,0,1.46,5,24.31,24.31,0,0,0,3,5.52c1.22,1.76,2.37,3.6,3.66,5.32C107.58,138.06,107.69,138,107.66,137.91Z"/><path class="cls-4" d="M120.05,119.43a45.24,45.24,0,0,1-1.37,5c-.51,1.84-.87,3.77-1.23,5.64a35,35,0,0,0-.43,6c0,2-.31,4-.52,6,0,.09.13,0,.14,0,.68-3.87.79-7.79,1.49-11.66.37-2,.94-4,1.23-6.05.23-1.62.64-3.33.72-5C120.08,119.4,120.05,119.41,120.05,119.43Z"/><path class="cls-4" d="M120.9,143.15c-.87.5-1.89.74-2.75,1.26a15.12,15.12,0,0,0-2.55,1.93,28.06,28.06,0,0,1-2.71,2.5,33.26,33.26,0,0,0-2.63,2.07c-.11.1,0,.25.13.16,1.78-1.22,3.71-1.89,5.1-3.51a25.14,25.14,0,0,1,5.43-4.38S120.93,143.13,120.9,143.15Z"/><path class="cls-4" d="M89.51,184.5a35.72,35.72,0,0,1,1.35-6.2,19.51,19.51,0,0,1,2-5s0,0,0,0a19.81,19.81,0,0,0-2,4.06,29.18,29.18,0,0,0-2,5.73,32.39,32.39,0,0,0-.64,11.52,89.78,89.78,0,0,1,.49,11.24c0,4.19-.32,8.26.35,12.45,0,.07.13,0,.12,0a37.48,37.48,0,0,1-.17-6c.1-1.88.6-3.7.72-5.56a62.88,62.88,0,0,0-.28-10.54,39.93,39.93,0,0,1-.45-5.88A55.16,55.16,0,0,1,89.51,184.5Z"/><path class="cls-4" d="M92,203.76s0,0,0,0a76.84,76.84,0,0,1-.11,9.23c-.37,3.42-.95,6.83-1.33,10.26-.67,6.12-1,12.11.41,18.18,0,.11.2,0,.19-.08a91.21,91.21,0,0,1,.49-18.83c.37-3.4.87-6.82,1.09-10.23C92.85,209.39,92.19,206.61,92,203.76Z"/><path class="cls-4" d="M96.23,222.23c.65-3.21.1-6.66.07-9.89,0,0,0,0,0,0-.08.86-.3,1.7-.44,2.55s-.09,1.77-.18,2.64c-.2,1.76-.1,3.54-.38,5.28-.47,3,.17,6.28.34,9.33,0,0,.09,0,.09,0,.08-1.59-.13-3.16-.06-4.76A32.78,32.78,0,0,1,96.23,222.23Z"/><path class="cls-4" d="M87.7,241.3a11.68,11.68,0,0,1-2.64,4.15c-1,1.15-2.39,1.59-3.74,2.22-2.58,1.2-5.47,2.07-7.88,3.55,0,0,0,.05,0,0,3-1.63,6.6-1.84,9.56-3.43a9,9,0,0,0,4.72-6.53S87.7,241.28,87.7,241.3Z"/><path class="cls-4" d="M89.05,153.2a21.68,21.68,0,0,0-5.23-11.4s0,0,0,0A25.59,25.59,0,0,1,88.27,154a52.18,52.18,0,0,1,.28,5.59c.06,2.27.39,4.58.59,6.85,0,.08.12,0,.12-.05C89.23,162,89.67,157.56,89.05,153.2Z"/><path class="cls-4" d="M57.48,147.27c-4.07-2.34-5-6.92-4.63-11.05,0,0,0,0,0,0a17.14,17.14,0,0,0,.38,7.37,5.84,5.84,0,0,0,4.08,4C57.45,147.6,57.65,147.36,57.48,147.27Z"/><path class="cls-4" d="M80.31,152.94a31.28,31.28,0,0,0-4.22-1.54c-1.58-.41-3.19-.61-4.74-1.12,0,0,0,0,0,.05,2.57,1,5.24,1.7,7.78,2.77a8.65,8.65,0,0,1,3.22,2.24c1,1.07,1.74,2.38,2.64,3.53.09.12.29,0,.23-.15C84.15,156.55,82.78,154,80.31,152.94Z"/><path class="cls-4" d="M75.5,135.4a72.69,72.69,0,0,1-7-5.69,11.65,11.65,0,0,1-4-9.9s-.06,0-.06,0a10.45,10.45,0,0,0,2.07,8.92c2.46,2.86,5.62,4.76,8.91,6.75C75.46,135.52,75.54,135.44,75.5,135.4Z"/><path class="cls-4" d="M87.21,164.29s0,0,0,0c.26,2.56,1.19,5.09.92,7.69a18.57,18.57,0,0,0,0,3.25c.13,1.53-.06,3.08-.07,4.61,0,.21.29.09.31-.06a24.45,24.45,0,0,0,.69-4.32c0-1.35,0-2.68,0-4C89.09,169.05,87.64,166.62,87.21,164.29Z"/><path class="cls-4" d="M101,163.33c-1.23,2.75-2.92,5.35-4,8.15-.54,1.36-.79,2.79-1.35,4.15a31.85,31.85,0,0,0-1.4,4.31,27,27,0,0,0-.9,8.52c.29,3.21.61,6.41.9,9.62,0,0,.07,0,.06,0a88.15,88.15,0,0,1-.55-9.18c0-1.41.45-2.78.62-4.17s.38-2.93.68-4.39a29.22,29.22,0,0,1,1.45-4.63,42.67,42.67,0,0,0,1.15-4.16c.81-2.83,2.36-5.44,3.41-8.19C101.07,163.3,101,163.31,101,163.33Z"/><path class="cls-5" d="M197.75,87.9c1.78-.59,3.09-1.58,1.65-3.28-1.17-1.38-4.69-1.48-6.3-1.37-.32,0-.64,0-1,.07.78-.48,1.54-1,2.36-1.43,1.87-1.06,4.35-5.19.52-5.31a3.33,3.33,0,0,0-.92.12c.85-2.32,1.07-5.1-.13-6.65s-2.47-.93-3.57.4a1.47,1.47,0,0,0-.85-1.46,5.31,5.31,0,0,0-3.5,0,4.06,4.06,0,0,0-.78.39l.51-.35c.49-.35,1-.69,1.44-1.07,3.92-3.4-1.05-3.45-5.09-2.87,2.53-1.19,4.73-2.83,5-5.61.39-3.38-5.19-1.36-6.56-.63-.68.37-2.19,2.39-1.35,1.24A12.46,12.46,0,0,0,180.5,58c.57-1.21,1.26-2.64.39-3.86-1.48-2-5.37.35-8,2.4.71-1.63,1.32-3.57.87-4.81,3.42-3.75-.22-4.8-3.86-4.29,4-2.42,9.39-6.25,6.83-7.2a6.11,6.11,0,0,0-3-.18,13.59,13.59,0,0,0,2.64-3.18c1.3-2.28-.93-4.09-3.37-3.71A15,15,0,0,0,167.72,35l-1.13.67c.28-.33.57-.65.85-1,1.73-2.05,5.47-6.48,3.16-9.13a.44.44,0,0,0-.35-.08,5.91,5.91,0,0,0-3,1.95c.91-3.17,2-8.18-.19-9-1.28-.47-3.24.89-5,2.47a2.6,2.6,0,0,0-1.8-.91,20.77,20.77,0,0,0-10.3.81,7.34,7.34,0,0,0,2.58-5.76c-.29-2.89-5.67-.31-8.14,1,.68-3.08,2.88-9.41-2.61-7.15A9.42,9.42,0,0,0,139,10.81c-1-1.94-3-3.13-6.25-2.45-2.14.45-3.7,2.55-4.77,4.1a13.64,13.64,0,0,0-1.25,2.47c-.09-5.17-1.41-10.47-5.32-14.38-1.93-1.92-2.62,1.55-2.87,4.59-.53-1.43-1.38-2.7-2.75-2.61C112.2,2.74,110,6,108.1,8.4c-2.35,2.89-.77,0-.46-1.29.11-.47.69-2.42-.28-2.78-2.68-1-4.92,1.83-7,3.45C100.77,4.89,103.15-1,98.16,2A16.25,16.25,0,0,0,93.4,6.7a6.93,6.93,0,0,0-1.91-4.45.86.86,0,0,0-.73-.15c-3.41,1-5.6,5.69-6.21,9.9a7,7,0,0,0-1.79-1.4c-.38-.21-.83.26-1,.52-.68,1.35-.34,3,.13,4.49-.59-.53-1.25-.83-1.78-.3-1.23,1.2-.86,3.13-.45,4.86a17.87,17.87,0,0,0-8.41-3.77c-1.38-.3-5.58-1.68-7-.48-2.29,2,2.47,6.81,5.76,9.24a15.63,15.63,0,0,0-3.62-.07,37.13,37.13,0,0,0-3.21-4c-.39-.43-1.13.2-1.26.54a9.8,9.8,0,0,0-.26,5.6c-1.62-1.81-3.55-3.06-5.45-2.17-1.48.7-.8,3.12.26,5.38a8.75,8.75,0,0,0-4.23-2.08c-1.61-.28-4.79-.73-5.88.89-1.54,2.29.71,4.8,2.43,6.41.71.66,1.52,1.35,2.36,2a2.37,2.37,0,0,0-1,.57,1.57,1.57,0,0,0-.15,2c-.44-.18-.86-.37-1.32-.54-1.92-.68-4.5-1.9-6.6-1.68a.49.49,0,0,0-.39.39c-.16,1.55,1,3.16,2.06,4.62-2.06.38-4.56,1.29-4.79,3-.13,1,.56,1.91,1.58,2.7a2.12,2.12,0,0,0-1.22,1.67,3.06,3.06,0,0,0,0,1.08,16.88,16.88,0,0,0-4.19-3c-1.57-.78-4.82-1.35-6,.42-2.06,3.21.23,7.78,2.16,11.45-2.74-2.09-5.4-4.21-9.49-3.54-3,.49.54,5.26,2.21,7.56-2.32-1-5.24-2.61-6.91-.14-1.49,2.21,1.44,5.08,3.71,7.19a.43.43,0,0,1,0,0c-4.89-2-14-4.31-14.69.6-.12.88,1,1.69,1.58,2.2.9.76,1.79,1.56,2.68,2.37a1.39,1.39,0,0,0-.86.39c-1.1,1.09-1,2.79-.64,4.27a.32.32,0,0,0,0,.36,2.61,2.61,0,0,0,.19.27c.07.23.14.45.22.66a15.32,15.32,0,0,0,2,3.72l-.1,0c-1.13-1.51-2.15-3.09-3.1-4.4-.65-.91-2.72-4.15-4.32-3.48s-.66,3-.23,4.1a13.1,13.1,0,0,0,2.23,3.46C2.39,86-1.48,86.64.57,89.5c1.14,1.58,3.66,2.69,5.5,3.43s4.09,1.7,6.32,2.42l-1.16.33c-2,.57-7,2.16-8.25,4-2.08,3.12,4,2.4,8.88,1.42-3,2-5.56,4.36-6.54,7.18-.83,2.35,3.35,1.2,7.23-.3-.29.24-.59.45-.86.72a28.33,28.33,0,0,0-5.51,7.47c-3,5.8,4,3.29,7,1.85,1-.49,2.08-1,3.1-1.53-.55.49-1.06,1-1.58,1.53A13.47,13.47,0,0,0,11,124.77a9.77,9.77,0,0,0,.6,5.43c-2.33,2.18-5.45,5.13-5.24,7.9a.62.62,0,0,0,.62.52c2.63-.1,6.16-1.43,8.44-2.44,1.47-.65,2.87-1.32,4.24-2-2.29,2-4.4,4.05-4.56,6.37a.52.52,0,0,0,.3.56c1.89,1.06,5.93-1.69,8.46-3.52a12.74,12.74,0,0,0-.33,7.1c.26,1.18,1.62,3.47,3.33,3.16,2.44-.45,3.66-4.44,4.36-7.8.73,5.29,2.77,13.14,6.24,9.41,1.19-1.29,1.79-3.5,2-5.87,1.14,2.57,2.77,4.44,4.91,3s2.87-4.71,3.39-7c.05-.23.08-.45.12-.68a15.43,15.43,0,0,0,5.57-.75c-1.41,1-2.79,2.07-4.09,3.2a.58.58,0,0,0-.11.83,1.86,1.86,0,0,0,2,.28,22,22,0,0,0,3.05-1.27c1.36-.65-.52,1.67-.78,2.47a24.76,24.76,0,0,0-1,9.67c.18,1.67,1.92,2.84,3.38,1.14a48.84,48.84,0,0,0,7-11.79c-.19,3.51.21,7.94,4.57,6.14,2.32-1,2.86-4.2,3.4-6.12a12.5,12.5,0,0,0,.2-5.59,12,12,0,0,0,5.68,4.06,2.55,2.55,0,0,0,3-2.11c.38-3.26-.8-6.43-2.06-9.44-.12-.28-.26-.6-.39-.93.26-2-.54-4.28-1.18-6.46,1.82,3,4.59,7.13,7.64,5.88a3,3,0,0,0,1.67-2.57,15.24,15.24,0,0,0,.2-2.53c.91,2.14,2.11,3.37,3.55,1.17s2.1-4.74,3-7.14c-.74,1.89-.37,4.14-.77,6.1a11.8,11.8,0,0,0-.1,4.19.28.28,0,0,0,.35.2c4.09-.94,7.65-4.51,10.17-7.44-.37.46-.75.93-1.1,1.41a4.52,4.52,0,0,0-1.3,2.86c0,2.51,6.26-1.67,6.43-1.79a16,16,0,0,0,5-6,17.53,17.53,0,0,0,.12,3.53c.14.91,1.22,4.25,2.56,4.25.89,0,1.88,0,2.17-1a29.48,29.48,0,0,1,2.22-5c0,2.66.36,5.91,2.23,6.15a10.13,10.13,0,0,0-1.82,4,.49.49,0,0,0,.64.54,24.77,24.77,0,0,0,6.49-3.07c-2.81,2.74-6.11,6.52-4.08,8.38,1.21,1.11,3,.75,4.36-.16.05.37.12.75.2,1.13.35,1.65,2.14,7.37,4.24,7.82,1.9.4,2.49-1.77,2.61-4.2.51,1.69,1.1,3.37,1.82,5.16.38,1,1.51,4.32,3.2,4,2.1-.39,2.11-4,2.4-5.38a16.66,16.66,0,0,0,.33-3,15.68,15.68,0,0,0,2.68,4.33c1.23,1.35,4.43,6,7.09,4.94,2.47-1,2.56-5.45,2.87-7.41.05-.36.06-.69.09-1,.39.49.76,1,1.15,1.48s.77.32,1.19.09c1.31-.73,1.2-1.56,1.08-2.89a28,28,0,0,0-.87-4.76,20,20,0,0,0,5.34,4.52c1.45.8,4.3,1.67,5.88.61,1.94-1.28-.42-4.53-3-7.27,4.8,2.78,10.58,5.15,15.21,2.14,3.12-2-3.71-7.12-8.21-10.24a65.81,65.81,0,0,0,8,2.21c1.87.34,4.43,1,5.89-.52,1.75-1.75-1.41-4.06-3.94-5.69,2,.55,4.28.85,4.84-.53s-.57-2.91-2.38-4.17c5.83-.16,11.68-1.86,13.7-6.31,1.72-3.8-.1-6.09-3.17-7.28,1.35-.28,2.87-.83,3-2.08a2.4,2.4,0,0,0-1.67-2.54c1.43-1.15,1.5-2.34-.58-2.77,1-.28,1.92-.64,2.82-.91a7.07,7.07,0,0,0,3.7-2.53C203.1,88.89,200.41,88.14,197.75,87.9Z"/><path class="cls-6" d="M197.75,87.9c1.78-.59,3.09-1.58,1.65-3.28-1.17-1.38-4.69-1.48-6.3-1.37-.32,0-.64,0-1,.07.78-.48,1.54-1,2.36-1.43,1.87-1.06,4.35-5.19.52-5.31a3.33,3.33,0,0,0-.92.12c.85-2.32,1.07-5.1-.13-6.65s-2.47-.93-3.57.4a1.47,1.47,0,0,0-.85-1.46,5.31,5.31,0,0,0-3.5,0,4.06,4.06,0,0,0-.78.39l.51-.35c.49-.35,1-.69,1.44-1.07,3.92-3.4-1.05-3.45-5.09-2.87,2.53-1.19,4.73-2.83,5-5.61.39-3.38-5.19-1.36-6.56-.63-.68.37-2.19,2.39-1.35,1.24A12.46,12.46,0,0,0,180.5,58c.57-1.21,1.26-2.64.39-3.86-1.48-2-5.37.35-8,2.4.71-1.63,1.32-3.57.87-4.81,3.42-3.75-.22-4.8-3.86-4.29,4-2.42,9.39-6.25,6.83-7.2a6.11,6.11,0,0,0-3-.18,13.59,13.59,0,0,0,2.64-3.18c1.3-2.28-.93-4.09-3.37-3.71A15,15,0,0,0,167.72,35l-1.13.67c.28-.33.57-.65.85-1,1.73-2.05,5.47-6.48,3.16-9.13a.44.44,0,0,0-.35-.08,5.91,5.91,0,0,0-3,1.95c.91-3.17,2-8.18-.19-9-1.28-.47-3.24.89-5,2.47a2.6,2.6,0,0,0-1.8-.91,20.77,20.77,0,0,0-10.3.81,7.34,7.34,0,0,0,2.58-5.76c-.29-2.89-5.67-.31-8.14,1,.68-3.08,2.88-9.41-2.61-7.15A9.42,9.42,0,0,0,139,10.81c-1-1.94-3-3.13-6.25-2.45-2.14.45-3.7,2.55-4.77,4.1a13.64,13.64,0,0,0-1.25,2.47c-.09-5.17-1.41-10.47-5.32-14.38-1.93-1.92-2.62,1.55-2.87,4.59-.53-1.43-1.38-2.7-2.75-2.61C112.2,2.74,110,6,108.1,8.4c-2.35,2.89-.77,0-.46-1.29.11-.47.69-2.42-.28-2.78-2.68-1-4.92,1.83-7,3.45C100.77,4.89,103.15-1,98.16,2A16.25,16.25,0,0,0,93.4,6.7a6.93,6.93,0,0,0-1.91-4.45.86.86,0,0,0-.73-.15c-3.41,1-5.6,5.69-6.21,9.9a7,7,0,0,0-1.79-1.4c-.38-.21-.83.26-1,.52-.68,1.35-.34,3,.13,4.49-.59-.53-1.25-.83-1.78-.3-1.23,1.2-.86,3.13-.45,4.86a17.87,17.87,0,0,0-8.41-3.77c-1.38-.3-5.58-1.68-7-.48-2.29,2,2.47,6.81,5.76,9.24a15.63,15.63,0,0,0-3.62-.07,37.13,37.13,0,0,0-3.21-4c-.39-.43-1.13.2-1.26.54a9.8,9.8,0,0,0-.26,5.6c-1.62-1.81-3.55-3.06-5.45-2.17-1.48.7-.8,3.12.26,5.38a8.75,8.75,0,0,0-4.23-2.08c-1.61-.28-4.79-.73-5.88.89-1.54,2.29.71,4.8,2.43,6.41.71.66,1.52,1.35,2.36,2a2.37,2.37,0,0,0-1,.57,1.57,1.57,0,0,0-.15,2c-.44-.18-.86-.37-1.32-.54-1.92-.68-4.5-1.9-6.6-1.68a.49.49,0,0,0-.39.39c-.16,1.55,1,3.16,2.06,4.62-2.06.38-4.56,1.29-4.79,3-.13,1,.56,1.91,1.58,2.7a2.12,2.12,0,0,0-1.22,1.67,3.06,3.06,0,0,0,0,1.08,16.88,16.88,0,0,0-4.19-3c-1.57-.78-4.82-1.35-6,.42-2.06,3.21.23,7.78,2.16,11.45-2.74-2.09-5.4-4.21-9.49-3.54-3,.49.54,5.26,2.21,7.56-2.32-1-5.24-2.61-6.91-.14-1.49,2.21,1.44,5.08,3.71,7.19a.43.43,0,0,1,0,0c-4.89-2-14-4.31-14.69.6-.12.88,1,1.69,1.58,2.2.9.76,1.79,1.56,2.68,2.37a1.39,1.39,0,0,0-.86.39c-1.1,1.09-1,2.79-.64,4.27a.32.32,0,0,0,0,.36,2.61,2.61,0,0,0,.19.27c.07.23.14.45.22.66a15.32,15.32,0,0,0,2,3.72l-.1,0c-1.13-1.51-2.15-3.09-3.1-4.4-.65-.91-2.72-4.15-4.32-3.48s-.66,3-.23,4.1a13.1,13.1,0,0,0,2.23,3.46C2.39,86-1.48,86.64.57,89.5c1.14,1.58,3.66,2.69,5.5,3.43s4.09,1.7,6.32,2.42l-1.16.33c-2,.57-7,2.16-8.25,4-2.08,3.12,4,2.4,8.88,1.42-3,2-5.56,4.36-6.54,7.18-.83,2.35,3.35,1.2,7.23-.3-.29.24-.59.45-.86.72a28.33,28.33,0,0,0-5.51,7.47c-3,5.8,4,3.29,7,1.85,1-.49,2.08-1,3.1-1.53-.55.49-1.06,1-1.58,1.53A13.47,13.47,0,0,0,11,124.77a9.77,9.77,0,0,0,.6,5.43c-2.33,2.18-5.45,5.13-5.24,7.9a.62.62,0,0,0,.62.52c2.63-.1,6.16-1.43,8.44-2.44,1.47-.65,2.87-1.32,4.24-2-2.29,2-4.4,4.05-4.56,6.37a.52.52,0,0,0,.3.56c1.89,1.06,5.93-1.69,8.46-3.52a12.74,12.74,0,0,0-.33,7.1c.26,1.18,1.62,3.47,3.33,3.16,2.44-.45,3.66-4.44,4.36-7.8.73,5.29,2.77,13.14,6.24,9.41,1.19-1.29,1.79-3.5,2-5.87,1.14,2.57,2.77,4.44,4.91,3s2.87-4.71,3.39-7c.05-.23.08-.45.12-.68a15.43,15.43,0,0,0,5.57-.75c-1.41,1-2.79,2.07-4.09,3.2a.58.58,0,0,0-.11.83,1.86,1.86,0,0,0,2,.28,22,22,0,0,0,3.05-1.27c1.36-.65-.52,1.67-.78,2.47a24.76,24.76,0,0,0-1,9.67c.18,1.67,1.92,2.84,3.38,1.14a48.84,48.84,0,0,0,7-11.79c-.19,3.51.21,7.94,4.57,6.14,2.32-1,2.86-4.2,3.4-6.12a12.5,12.5,0,0,0,.2-5.59,12,12,0,0,0,5.68,4.06,2.55,2.55,0,0,0,3-2.11c.38-3.26-.8-6.43-2.06-9.44-.12-.28-.26-.6-.39-.93.26-2-.54-4.28-1.18-6.46,1.82,3,4.59,7.13,7.64,5.88a3,3,0,0,0,1.67-2.57,15.24,15.24,0,0,0,.2-2.53c.91,2.14,2.11,3.37,3.55,1.17s2.1-4.74,3-7.14c-.74,1.89-.37,4.14-.77,6.1a11.8,11.8,0,0,0-.1,4.19.28.28,0,0,0,.35.2c4.09-.94,7.65-4.51,10.17-7.44-.37.46-.75.93-1.1,1.41a4.52,4.52,0,0,0-1.3,2.86c0,2.51,6.26-1.67,6.43-1.79a16,16,0,0,0,5-6,17.53,17.53,0,0,0,.12,3.53c.14.91,1.22,4.25,2.56,4.25.89,0,1.88,0,2.17-1a29.48,29.48,0,0,1,2.22-5c0,2.66.36,5.91,2.23,6.15a10.13,10.13,0,0,0-1.82,4,.49.49,0,0,0,.64.54,24.77,24.77,0,0,0,6.49-3.07c-2.81,2.74-6.11,6.52-4.08,8.38,1.21,1.11,3,.75,4.36-.16.05.37.12.75.2,1.13.35,1.65,2.14,7.37,4.24,7.82,1.9.4,2.49-1.77,2.61-4.2.51,1.69,1.1,3.37,1.82,5.16.38,1,1.51,4.32,3.2,4,2.1-.39,2.11-4,2.4-5.38a16.66,16.66,0,0,0,.33-3,15.68,15.68,0,0,0,2.68,4.33c1.23,1.35,4.43,6,7.09,4.94,2.47-1,2.56-5.45,2.87-7.41.05-.36.06-.69.09-1,.39.49.76,1,1.15,1.48s.77.32,1.19.09c1.31-.73,1.2-1.56,1.08-2.89a28,28,0,0,0-.87-4.76,20,20,0,0,0,5.34,4.52c1.45.8,4.3,1.67,5.88.61,1.94-1.28-.42-4.53-3-7.27,4.8,2.78,10.58,5.15,15.21,2.14,3.12-2-3.71-7.12-8.21-10.24a65.81,65.81,0,0,0,8,2.21c1.87.34,4.43,1,5.89-.52,1.75-1.75-1.41-4.06-3.94-5.69,2,.55,4.28.85,4.84-.53s-.57-2.91-2.38-4.17c5.83-.16,11.68-1.86,13.7-6.31,1.72-3.8-.1-6.09-3.17-7.28,1.35-.28,2.87-.83,3-2.08a2.4,2.4,0,0,0-1.67-2.54c1.43-1.15,1.5-2.34-.58-2.77,1-.28,1.92-.64,2.82-.91a7.07,7.07,0,0,0,3.7-2.53C203.1,88.89,200.41,88.14,197.75,87.9Zm-95.58,3.18c-3.41.19-6.69,1.37-10,1.87a26,26,0,0,1,5.34,6.15c.1.17-.06.36-.27.32-3.17-.67-6.13-2.49-9.43-2.57,2.34,2,5,3.74,6.21,6.58a.21.21,0,0,1-.11.24c-3.28,2.12-7.82-1.26-10.09-3.73.38,2.21,1.2,4.83-.41,6.69a.25.25,0,0,1-.33,0c-2.18-1.57-2.15-4.4-2.13-6.92a23.15,23.15,0,0,1-2.42,6,.25.25,0,0,1-.43,0c-.94-2.66-2.4-5.14-3.52-7.72a42.24,42.24,0,0,1,.47,6,.24.24,0,0,1-.35.19A15.59,15.59,0,0,1,70,99.38a5.11,5.11,0,0,1-.43,1.65.25.25,0,0,1-.33.07,48.92,48.92,0,0,1-5-3.22l.06.07c1.2,1.62,2.4,3.57,1.82,5.59a.23.23,0,0,1-.28.15,16.8,16.8,0,0,1-3.08-1.38,15.15,15.15,0,0,1,1.62,2.54,2.13,2.13,0,0,1,.3,1.76c-.55,1.24-3.16.72-4.58.41,1,1.32,2.75,4.31.15,4.5-2.26.16-4.47-1.52-5.84-3.12a10.13,10.13,0,0,1-1.66,6.1.25.25,0,0,1-.43,0,9.18,9.18,0,0,1-.06-5,15.52,15.52,0,0,1-3.12,2.94A15.92,15.92,0,0,1,43,115.46a.23.23,0,0,1-.29-.27c.67-2.6,2.4-4.87,3-7.46-1.08,2-1.85,4.12-3.33,5.92a.25.25,0,0,1-.4,0,6.77,6.77,0,0,1-.75-2c-.13.46-.28.92-.43,1.37-1.58,4.47-4.65,8.78-10,9.72a.24.24,0,0,1-.3-.21,13.22,13.22,0,0,1,.93-5.92,42.92,42.92,0,0,1-3.8,5.32,22.28,22.28,0,0,1-6.38,5.71.26.26,0,0,1-.29,0c-2.65-3.08-1.85-7.16-.2-10.5a27.55,27.55,0,0,1,6.64-8.57c-3,1-6,2.77-9.32,2.45-.16,0-.26-.12-.22-.27.37-1.76,1.9-3.07,3.68-4.09a11.12,11.12,0,0,1-3.7.51.22.22,0,0,1-.22-.27c.77-3,3.53-5.1,6.36-6.58l-.84,0c-2.25.1-6.68.14-7.22-2.59-.45-2.3,3.94-3.16,5.58-3.5,2.55-.52,5.15-.68,7.72-1.06a21.51,21.51,0,0,1-6.57-2.33.21.21,0,0,1,0-.37,8.05,8.05,0,0,1,5.86-.23c-2.73-1.89-7.73-5.52-4.46-7.84,2.18-1.54,5.18-.51,7.21.71a42.9,42.9,0,0,1,6,4.67c-.5-1.3-1.14-2.56-1.56-3.89-.29-.91-1.1-3-.07-3.79,2-1.53,4.15,1.79,5.18,3.76-.05-3.28-.2-6.84,1.45-9.78a.25.25,0,0,1,.37,0c2.67,2.09,3,5.21,3,8.3A2.52,2.52,0,0,1,45.7,82c.55-1.33,1.67-3.51,3.58-3.44,1.72.07,2.55,1.83,3,3.11a26.82,26.82,0,0,1,1.11,4.45,16,16,0,0,1,1.3-3.39c.66-1.29,1.68-3.26,3.42-3.51,2.31-.33,2.4,2.54,2,5a27.37,27.37,0,0,1,5.52-7.5c2.71-2.65,6.54-5.37,10.76-4.49a.22.22,0,0,1,.18.21,13,13,0,0,1-3.29,6.18c-.76.91-1.57,1.77-2.42,2.63,2.67-1.39,6-2,8.64-.87a.21.21,0,0,1,.05.34,7.68,7.68,0,0,1-2,1.59,49.44,49.44,0,0,1,9.66-.58c3.9.13,9.74.68,11.39,4.55.06.15-.09.27-.22.28-.84,0-1.67.12-2.51.21a12,12,0,0,1,6.46,4C102.49,90.9,102.34,91.07,102.17,91.08Zm2.29-41.78c-1,1.08-4.06,1.09-5.66.9A27.48,27.48,0,0,1,92,48.51a18.31,18.31,0,0,1-2.22-1,28.56,28.56,0,0,1,2,3.16c.76,1.39,2.29,4,1.21,5.56-2.11,3-5.84-2.57-7.39-5.34a21.87,21.87,0,0,1-.21,6.46.24.24,0,0,1-.34.13c-3.09-2.12-4.37-5.27-4.95-8.6-1.29-.54-2.51-1.18-3.47-1.65.41,1.48.73,3.68-.66,4.69s-3.13.11-4.42-.85a8.39,8.39,0,0,1-.24,8.26.25.25,0,0,1-.27.09,5.79,5.79,0,0,1-3.35-3.16,36.74,36.74,0,0,1,.23,4.8c-.07,1.71-.18,4.06-1.62,5.34-3.44,3.06-6.67-2.94-8.16-5.59-.22,2.11-.57,4.32-2.34,5.83a.24.24,0,0,1-.28,0c-2-1.13-2.37-3.28-2.27-5.28-2.33,2.73-5.1,5.64-9,6.15-.15,0-.29-.05-.29-.2-.12-2.55,2.77-4.31,4.85-5.68a4.33,4.33,0,0,1-1.79-1c-.48-.46-.4-.87-1-1.24a6.61,6.61,0,0,1-3.2-3.19c-.05-.14.09-.26.23-.27a8.64,8.64,0,0,1,4.94,1.29,23.76,23.76,0,0,1-1.38-2c-.87-1.39-1.89-3.07-1.76-4.73a2.44,2.44,0,0,1,2.91-2.06A7.7,7.7,0,0,1,51,49.81a6,6,0,0,1-1.48-4.56c0-.09.13-.16.22-.16,2.39.07,4.37,1.27,6.57,1.91-1.47-1.25-2.91-3.15-.43-4.2a16.89,16.89,0,0,1,6.82-1A29.3,29.3,0,0,1,59,40.14c-1.19-.67-3.1-1.69-3.37-3.08-.19-1,.19-2.16,1.48-2a5.19,5.19,0,0,1,1.36.41A2.65,2.65,0,0,1,58.13,34a.24.24,0,0,1,.29-.21,7.51,7.51,0,0,1,3.39,1.82c-1.14-2-1.79-4.38,0-5.9,2.45-2,6.31-.9,9,.33a4.13,4.13,0,0,1-.54-2.73c0-.1.13-.14.23-.15a5.55,5.55,0,0,1,3.85,1.3,14,14,0,0,1-1.75-8.15.23.23,0,0,1,.24-.21c3.74-.1,6.14,3,6.54,6.19a9.93,9.93,0,0,1,3.5-3.66c.61-.36,1.6-.88,2.33-.49a.18.18,0,0,1,.07.05c-.22-2.6-.2-5.89,2.79-5,0-2,.23-9.14,3.4-7.94,1.65.62,1.84,3.05,1.89,4.41q0,.59,0,1.2c.17-.32.35-.63.53-.92.72-1.13,1.86-2.69,3.54-2.44,2.57.37,1.95,3.74,1.36,6.13,1.07-1.7,2.75-3.37,4.89-2.86,2.41.57,3,3.06,2.94,5.14a74.22,74.22,0,0,1,3.24-7.45.25.25,0,0,1,.37,0c1.09,1.11,1.22,2.6,1.55,4,.94-1.92,1.14-4.17,2.6-5.87a2,2,0,0,1,2.3-.81,2.57,2.57,0,0,1,1.63,1.92c.43,2.46-1.3,5.08-2.7,7.05A38.68,38.68,0,0,1,113,22.15a7.34,7.34,0,0,1,5.84-.79.21.21,0,0,1,.16.26,6.8,6.8,0,0,1-.67,1.83c2.57-2.37,5.4-5.38,9.11-5.09a.21.21,0,0,1,.22.16c.29,1.91-.7,3.6-2,5.05,1.47-.67,3.29-1,4,.59,1,2.31-2,4.6-4,5.54a22.35,22.35,0,0,1-6.19,1.9c3.42.32,6.66,1.19,9.28,3.51.14.11.06.3-.11.35C124.62,36.76,120.35,38,116,38c2.22.54,4.48,1.06,6,2.71.14.16,0,.35-.17.37a23.8,23.8,0,0,1-7.09-.38,13.89,13.89,0,0,1-5.1-1.76c1.37,2.38,3.78,4.3,4.53,7,.25.87.35,2.27-.65,2.83a3,3,0,0,1-2.05-.06,24.68,24.68,0,0,1-5.29-2.12c.73,1.36,1.8,2.67,2.5,3.81a.22.22,0,0,1-.26.32C107.09,50.21,105.75,49.8,104.46,49.3Zm81.76,36.49a.21.21,0,0,1-.1.36,42.62,42.62,0,0,1-9.43.66,16.25,16.25,0,0,1-6-1.74,17.14,17.14,0,0,1,3.13,3.54c.74,1.19,1,3.14-1.14,3.13s-4.05-1.63-5.45-2.94c.18.52.38,1,.53,1.37.09.21-.23.34-.39.21a31.45,31.45,0,0,1-3.07-3.15,7.19,7.19,0,0,1-.54,5.24.26.26,0,0,1-.27.1,6.62,6.62,0,0,1-3.36-2.46,11.49,11.49,0,0,1,.38,4,.24.24,0,0,1-.3.21,9.43,9.43,0,0,1-5.46-5A18.6,18.6,0,0,1,152,94.42a18.44,18.44,0,0,1-7.57,6.47c-.15.06-.38,0-.35-.19.22-1.91,1.42-3.46,2.39-5.09a3.25,3.25,0,0,1-2.08-.72,16.21,16.21,0,0,1-3.71-3.64A27.21,27.21,0,0,1,139.54,97c-.39,1.27-.73,2.54-1.16,3.78-.23.63-.61,2.43-1.46,2.69-1.78.52-2.59-1.11-2.87-3.29-.14.41-.27.81-.43,1.21a22.38,22.38,0,0,1-3.17,5.73,11.38,11.38,0,0,1-5.13,4.16.25.25,0,0,1-.27-.1,7.34,7.34,0,0,1-.87-3.25c-.83.85-1.7,1.69-2.58,2.5a33.14,33.14,0,0,1-2.72,2.28,4.85,4.85,0,0,1-2.75,1.21c-2.2-.11-.68-4.07-.32-4.93a12.39,12.39,0,0,1,1.2-2.52c-3.24.13-6.62-.37-8.91-2.2a.21.21,0,0,1,.05-.34,35.28,35.28,0,0,1,6.19-2.57c-.62-.27-1.23-.56-1.84-.85-1.44-.7-3.86-1.85-3.69-3.64.2-2,3.71-3.1,5.41-3.37a19.1,19.1,0,0,1,5.34,0,10.21,10.21,0,0,1-4-1.86.21.21,0,0,1,.1-.36,15.59,15.59,0,0,1,6,.12c2.1.35,4.44.9,6.53.24-1.51-.94-5.74-1.12-5.15-3.33.35-1.32,2.14-1.93,3.82-2.19a12.9,12.9,0,0,1-3-.63c-.14-.05-.23-.19-.15-.31,1.56-2.34,4.37-3.25,7.37-3.64-.72-.17-1.46-.3-2.2-.43a13.21,13.21,0,0,1-5.6-1.88c-.11-.07-.07-.22,0-.3,3.47-3.68,10.77-3,15.25-1-.85-1.25-1.87-2.41-2-4a.22.22,0,0,1,.23-.21,4.87,4.87,0,0,1,2.84,1,15.69,15.69,0,0,1-1.43-3.27c-.32-1.1-.82-3.24.71-3.85,2.15-.85,4.89.88,6.52,2l.77.55a12.27,12.27,0,0,1,.25-3.13c.27-1.15,1-3.17,2.63-3.09s3.05,1.77,4,3.29a9.31,9.31,0,0,1-.08-4.1.24.24,0,0,1,.34-.13,7.21,7.21,0,0,1,3.69,4.74,19.62,19.62,0,0,1,2.19-5c1.51-2.56,3.52-5.59,6.54-6.83.12-.05.32,0,.35.13a28.11,28.11,0,0,1-.27,10.19,16.12,16.12,0,0,1,3.43-2.62.25.25,0,0,1,.36.18,18.76,18.76,0,0,1-2.46,10.14,19.24,19.24,0,0,1,3.22-1.77c1.24-.55,3.45-1.51,4.74-.55,1.69,1.25.15,2.68-1.83,3.83,2.23-.54,4.54-.54,6.1,1a.21.21,0,0,1,0,.3c-1.84,1.91-4.48,2.7-7.05,3.56a32.73,32.73,0,0,1,6-.76c2.78-.06,5.86.28,7.85,2.24a.21.21,0,0,1-.1.36,38.91,38.91,0,0,0-5.56,2A7.3,7.3,0,0,1,186.22,85.79Z"/><path class="cls-7" d="M7.48,99.73a22.14,22.14,0,0,1,10.18-4.94c-2.69-.56-5.35-1.64-6.75-3.61A.19.19,0,0,1,11,90.9a12.37,12.37,0,0,1,8.06-1.38c-2.14-.74-4.38-1.56-5.33-3.47a.23.23,0,0,1,0-.26c1.88-2.11,5.1-1.75,7.84-2-1.35-.3-2.76-.39-4.09-.79a5.64,5.64,0,0,1-2.05-1c-.27-.24-.94-.84-.83-1.22a4,4,0,0,1,1.87-1.7,5.59,5.59,0,0,1,2.25-.57,10.25,10.25,0,0,1,4.31.89c-1.33-1.65-2.25-4.31-.69-5.82,1.77-1.71,3.59-.87,5,.54-1-2.37-1.71-5.28.6-5.81,2-.46,3.95.79,5.48,1.84a26.3,26.3,0,0,1,2.52,2A5.63,5.63,0,0,1,37.24,71a15,15,0,0,1,4.27-1.86,32.63,32.63,0,0,1,3.88-.92c-3.6-.16-7.44-.61-10.19-2.61-1.7-1.22-3-3.28-2.24-5.27a2.68,2.68,0,0,1,1.59-1.55,11.94,11.94,0,0,1-1.48-1.89c-.83-1.32-2.11-3.7-.92-5.15,1.77-2.16,4.85-.12,6.8,2A18.25,18.25,0,0,1,37.78,50a16.6,16.6,0,0,0-2.58-1.62c-1.57-.78-4.82-1.35-6,.42-2.06,3.21.23,7.78,2.16,11.45-2.74-2.09-5.4-4.21-9.49-3.54-3,.49.54,5.26,2.21,7.56-2.32-1-5.24-2.61-6.91-.14-1.49,2.21,1.44,5.08,3.71,7.19a.43.43,0,0,1,0,0c-4.89-2-14-4.31-14.69.6-.12.88,1,1.69,1.58,2.2.9.76,1.79,1.56,2.68,2.37a1.39,1.39,0,0,0-.86.39c-1.1,1.09-1,2.79-.64,4.27a.32.32,0,0,0,0,.36,2.61,2.61,0,0,0,.19.27c.07.23.14.45.22.66a15.32,15.32,0,0,0,2,3.72l-.1,0c-1.13-1.51-2.15-3.09-3.1-4.4-.65-.91-2.72-4.15-4.32-3.48s-.66,3-.23,4.1a13.1,13.1,0,0,0,2.23,3.46C2.39,86-1.48,86.64.57,89.5c1.14,1.58,3.66,2.69,5.5,3.43s4.09,1.7,6.32,2.42l-1.16.33c-2,.57-7,2.16-8.25,4s.35,2.33,2.84,2.25A4.36,4.36,0,0,1,7.48,99.73Z"/><path class="cls-6" d="M197.75,87.9c1.78-.59,3.09-1.58,1.65-3.28-1.17-1.38-4.69-1.48-6.3-1.37-.32,0-.64,0-1,.07.78-.48,1.54-1,2.36-1.43,1.87-1.06,4.35-5.19.52-5.31a3.33,3.33,0,0,0-.92.12c.85-2.32,1.07-5.1-.13-6.65s-2.47-.93-3.57.4a1.47,1.47,0,0,0-.85-1.46,5.31,5.31,0,0,0-3.5,0,4.06,4.06,0,0,0-.78.39l.51-.35c.49-.35,1-.69,1.44-1.07,3.92-3.4-1.05-3.45-5.09-2.87,2.53-1.19,4.73-2.83,5-5.61.39-3.38-5.19-1.36-6.56-.63-.68.37-2.19,2.39-1.35,1.24A12.46,12.46,0,0,0,180.5,58c.57-1.21,1.26-2.64.39-3.86-1.48-2-5.37.35-8,2.4.71-1.63,1.32-3.57.87-4.81,3.42-3.75-.22-4.8-3.86-4.29,4-2.42,9.39-6.25,6.83-7.2a6.11,6.11,0,0,0-3-.18,13.59,13.59,0,0,0,2.64-3.18c1.3-2.28-.93-4.09-3.37-3.71A15,15,0,0,0,167.72,35l-1.13.67c.28-.33.57-.65.85-1,1.73-2.05,5.47-6.48,3.16-9.13a.44.44,0,0,0-.35-.08,5.91,5.91,0,0,0-3,1.95c.91-3.17,2-8.18-.19-9-1.28-.47-3.24.89-5,2.47a2.6,2.6,0,0,0-1.8-.91,20.77,20.77,0,0,0-10.3.81,7.34,7.34,0,0,0,2.58-5.76c-.29-2.89-5.67-.31-8.14,1,.68-3.08,2.88-9.41-2.61-7.15A9.42,9.42,0,0,0,139,10.81c-1-1.94-3-3.13-6.25-2.45-2.14.45-3.7,2.55-4.77,4.1a6.53,6.53,0,0,0-.5.85c.34,1.17.67,2.35,1,3.52a7.71,7.71,0,0,1,3.57-5.08.25.25,0,0,1,.32.08,7.4,7.4,0,0,1,1,5.55,4.51,4.51,0,0,1,2.06-2.16c1.26-.51,1.82,1.16,2,2,.78,3.85-.27,7.9-2.07,11.47A17.77,17.77,0,0,1,138,26.59a15.79,15.79,0,0,1,5-2.26c.79-.17,2.1-.31,2.29.67a3.42,3.42,0,0,1-1,2.51,5.58,5.58,0,0,1,4.62-.87c2.32.85,2.31,3.78,1.48,5.58a14.19,14.19,0,0,1-9.24,7.06,12.21,12.21,0,0,1,2.39,1.38.21.21,0,0,1,0,.31c-2.37,2.44-6.87,2.34-10.42,2,1.71.76,3.5,2,3.71,3.61.25,2-2.19,3.49-4.17,3.68-5,.47-9.45-2.77-13.91-4.45,2.53,3,5.88,7,4,10.95-1.18,2.52-3.8,1.43-5.72.05.75,1.19,1.15,2.56-.12,3.54a4.39,4.39,0,0,1-4.48.46c-3.52-1.25-6.31-3.61-9.3-5.64,1.12,2.31,2.36,5.36,1.39,7.71s-4.24.71-6.09-.49c1.31,1.85,3.1,3.51,3.18,5.83a.19.19,0,0,1-.17.2,30,30,0,0,1-8.59.67,2.79,2.79,0,0,1,1.49,1.64.19.19,0,0,1-.1.24,73.16,73.16,0,0,1-8.13,2.58,18.48,18.48,0,0,1,2.46-.37c1.66-.13,3.58-.06,4.58,1.35a.2.2,0,0,1,0,.26.1.1,0,0,0,0,0,16.12,16.12,0,0,1,5.27-.4.22.22,0,0,1,.23.21c.06,2.31-1.7,4.09-3.92,5.36a6.11,6.11,0,0,1,5.7,2.92c.42-2.62.42-7.08,4.25-6.67,3.32.36,4.51,4.11,4.86,7.1a29.4,29.4,0,0,1,2.65-8.79c.54-1,1.41-2.44,2.81-2.6s2.59,1,3.39,2.06c.19-2.09.38-5.43,3.37-5.16,1.35.12,2.39,1.43,3,2.41.16.26.32.52.46.79-.34-3,.06-6.29,2.18-8.41,2.89-2.9,6.59-.64,9,1.66-.61-1.5-1.22-3.66.4-4.31a4.14,4.14,0,0,1,2.53.13,20,20,0,0,1,2.27.86c-2.34-1.83-5.45-4.66-2.16-6.41,3-1.57,7.26.55,9.86,2.26a6.63,6.63,0,0,1,0-2.94c0-.14.22-.17.34-.12a3.49,3.49,0,0,1,1.56,1.17,9.4,9.4,0,0,1,.21-4.25.22.22,0,0,1,.29-.15c3.28.88,4.95,3.57,6.17,6.28.29-1.49.5-3,.88-4.47.41-1.64.91-3.68,2.24-4.92a2.39,2.39,0,0,1,3.59.09c1,1.46.88,3.27,1.06,4.94.78-.57,1.86-1.08,2.77-.47a2.16,2.16,0,0,1,1.13,2.34,9.36,9.36,0,0,1-3.05,4.41v.09a61.31,61.31,0,0,1,7.81-2.52.23.23,0,0,1,.29.21c-.11,1.64-1.85,2.76-3.55,3.68,1.32-.32,2.69-.34,3.22.81s.22,2.93-.18,4.42a11.71,11.71,0,0,1,1.52-1.79.26.26,0,0,1,.37,0c.91,1.39.76,3,.57,4.61,1-1,1.82-2,2.81-2.94a.26.26,0,0,1,.37,0c.93,2,.49,4.3-.27,6.26a17.63,17.63,0,0,1-1.47,3,4.37,4.37,0,0,1,.61.31c.64-.45,1.27-.9,1.94-1.31,1.26-.77,3.06-1.9,4.67-1.5,3.63.89.63,3.44-1.3,4.8,2.37-.42,7.14-1.79,7.61.65.27,1.37-1,2.45-2.12,3.19s-2.47,1.4-3.71,2.08c1.89.09,6.26.51,4.15,2.2a12.45,12.45,0,0,1-3.55,1.78c-1.09.41-2.22.77-3.35,1.09,2.72-.06,5.62-.06,7.77,1.59a.21.21,0,0,1,0,.3c-1.89,2.19-5.1,2.7-8,2.82s-5.8-.16-8.68.07c3.44.53,7.54,1.13,9.19,4.13a.2.2,0,0,1,0,.25c-1.7,1.93-4.93,1.82-7.35,1.56s-4.88-.88-7.33-1.28a24.88,24.88,0,0,1,4.57,3c1.07.9,3.34,2.86,2.07,4.34-1.55,1.79-4.09.52-5.64-.56a43.23,43.23,0,0,1-3.5-2.79,22.63,22.63,0,0,0-2.07-1.68,72.48,72.48,0,0,1,3.44,6.52c.93,2.18,1.88,4.73,1.11,7.06a.27.27,0,0,1-.29.15,7.21,7.21,0,0,1-3.63-2.37,23.19,23.19,0,0,1-1.65-1.92c.52,2.58.77,5.37-.2,7.78a5.82,5.82,0,0,1-6.66,3.49c-3.36-.76-4.93-4.16-6-6.86-.28-.75-.55-1.51-.79-2.27.49,2.05.93,4.38.24,6.32a2.67,2.67,0,0,1-4.26,1.26c-1.56-1.31-2.21-3.3-2.81-5.16,0,1.71.18,3.43.1,5.14a7.28,7.28,0,0,1-1.55,4.8.25.25,0,0,1-.33,0,8.18,8.18,0,0,1-1.85-5.3c-.45,1.06-.94,2.11-1.47,3.14-1,1.87-2.52,4.93-5,5.47-3.08.67-4.7-3.17-5.12-5.26a18.23,18.23,0,0,1,.76-9.81c-.49.57-1,1.11-1.52,1.62-1.08,1.11-2.68,2.87-4.44,3s-1.91-1.65-1.43-2.81a13.46,13.46,0,0,1,.6-1.28,19.48,19.48,0,0,1-8.16,5.27.24.24,0,0,1-.3-.21,17.2,17.2,0,0,1,.74-5.41,14.1,14.1,0,0,1-4.9,2.63.23.23,0,0,1-.28-.15c-.45-2.56.39-5.34,1.28-7.74l.21-.57c-1.35,1.72-3,3.85-5.27,4.62s-3.23-1.12-3.16-2.89a16.15,16.15,0,0,1,1-4.61,23.24,23.24,0,0,1-2.2,2.87c-.57.62-2.57,2.78-3.69,1.69-.64-.63-.55-1.8-.32-2.84a40.55,40.55,0,0,1-2.48,4.7c-1.94,3.16-4.56,6.55-8.53,7.7a.23.23,0,0,1-.28-.15,9.09,9.09,0,0,1-.26-4.69c-.74,1.83-1.81,4-3.79,4.72-2.34.86-4.19-1-5.29-2.69a29.68,29.68,0,0,1-1.93-3.6c.66,1.7,1.18,3.44.47,5.19a.25.25,0,0,1-.29.15,6.29,6.29,0,0,1-3.29-2.21c.23,1,.44,2,.6,3,.5,3.11,1,7.1-.71,10-3.73,6.26-11.43-2.93-14-7.22a22,22,0,0,1-.86,9.55.25.25,0,0,1-.43,0,13.74,13.74,0,0,1-2.26-6.15,16.1,16.1,0,0,1-2.46,5.13,14.41,14.41,0,0,1-7,5.62.25.25,0,0,1-.3-.21,14.39,14.39,0,0,1,1.44-6.14c-2,3.38-4.22,6.86-7.64,8.89a.25.25,0,0,1-.32-.08,12.53,12.53,0,0,1-1.15-7.44c-2,2.67-4.67,5.27-8.2,6a.24.24,0,0,1-.29-.15c-.66-3.13,1.15-6.18,3.26-8.8a22.08,22.08,0,0,1-2.51,1.64,13,13,0,0,1-5.91,2,.21.21,0,0,1-.16-.37c.66-.69,1.35-1.37,2.08-2-.45.21-.9.43-1.35.62-1.74.75-3.92,1.63-5.9,1.33-3.88-.61-2.3-5.22-1.14-8.13a27.12,27.12,0,0,1-3.2,4,.26.26,0,0,1-.37,0,5.85,5.85,0,0,1-.58-2.42c-.07.31-.14.61-.19.92a9.77,9.77,0,0,0,.6,5.43c-2.33,2.18-5.45,5.13-5.24,7.9a.62.62,0,0,0,.62.52c2.63-.1,6.16-1.43,8.44-2.44,1.47-.65,2.87-1.32,4.24-2-2.29,2-4.4,4.05-4.56,6.37a.52.52,0,0,0,.3.56c1.89,1.06,5.93-1.69,8.46-3.52a12.74,12.74,0,0,0-.33,7.1c.26,1.18,1.62,3.47,3.33,3.16,2.44-.45,3.66-4.44,4.36-7.8.73,5.29,2.77,13.14,6.24,9.41,1.19-1.29,1.79-3.5,2-5.87,1.14,2.57,2.77,4.44,4.91,3s2.87-4.71,3.39-7c.05-.23.08-.45.12-.68a15.43,15.43,0,0,0,5.57-.75c-1.41,1-2.79,2.07-4.09,3.2a.58.58,0,0,0-.11.83,1.86,1.86,0,0,0,2,.28,22,22,0,0,0,3.05-1.27c1.36-.65-.52,1.67-.78,2.47a24.76,24.76,0,0,0-1,9.67c.18,1.67,1.92,2.84,3.38,1.14a48.84,48.84,0,0,0,7-11.79c-.19,3.51.21,7.94,4.57,6.14,2.32-1,2.86-4.2,3.4-6.12a12.5,12.5,0,0,0,.2-5.59,12,12,0,0,0,5.68,4.06,2.55,2.55,0,0,0,3-2.11c.38-3.26-.8-6.43-2.06-9.44-.12-.28-.26-.6-.39-.93.26-2-.54-4.28-1.18-6.46,1.82,3,4.59,7.13,7.64,5.88a3,3,0,0,0,1.67-2.57,15.24,15.24,0,0,0,.2-2.53c.91,2.14,2.11,3.37,3.55,1.17s2.1-4.74,3-7.14c-.74,1.89-.37,4.14-.77,6.1a11.8,11.8,0,0,0-.1,4.19.28.28,0,0,0,.35.2c4.09-.94,7.65-4.51,10.17-7.44-.37.46-.75.93-1.1,1.41a4.52,4.52,0,0,0-1.3,2.86c0,2.51,6.26-1.67,6.43-1.79a16,16,0,0,0,5-6,17.53,17.53,0,0,0,.12,3.53c.14.91,1.22,4.25,2.56,4.25.89,0,1.88,0,2.17-1a29.48,29.48,0,0,1,2.22-5c0,2.66.36,5.91,2.23,6.15a10.13,10.13,0,0,0-1.82,4,.49.49,0,0,0,.64.54,24.77,24.77,0,0,0,6.49-3.07c-2.81,2.74-6.11,6.52-4.08,8.38,1.21,1.11,3,.75,4.36-.16.05.37.12.75.2,1.13.35,1.65,2.14,7.37,4.24,7.82,1.9.4,2.49-1.77,2.61-4.2.51,1.69,1.1,3.37,1.82,5.16.38,1,1.51,4.32,3.2,4,2.1-.39,2.11-4,2.4-5.38a16.66,16.66,0,0,0,.33-3,15.68,15.68,0,0,0,2.68,4.33c1.23,1.35,4.43,6,7.09,4.94,2.47-1,2.56-5.45,2.87-7.41.05-.36.06-.69.09-1,.39.49.76,1,1.15,1.48s.77.32,1.19.09c1.31-.73,1.2-1.56,1.08-2.89a28,28,0,0,0-.87-4.76,20,20,0,0,0,5.34,4.52c1.45.8,4.3,1.67,5.88.61,1.94-1.28-.42-4.53-3-7.27,4.8,2.78,10.58,5.15,15.21,2.14,3.12-2-3.71-7.12-8.21-10.24a65.81,65.81,0,0,0,8,2.21c1.87.34,4.43,1,5.89-.52,1.75-1.75-1.41-4.06-3.94-5.69,2,.55,4.28.85,4.84-.53s-.57-2.91-2.38-4.17c5.83-.16,11.68-1.86,13.7-6.31,1.72-3.8-.1-6.09-3.17-7.28,1.35-.28,2.87-.83,3-2.08a2.4,2.4,0,0,0-1.67-2.54c1.43-1.15,1.5-2.34-.58-2.77,1-.28,1.92-.64,2.82-.91a7.07,7.07,0,0,0,3.7-2.53C203.1,88.89,200.41,88.14,197.75,87.9Z"/></g></g></svg>