<?xml version="1.0" encoding="utf-8"?>
<!-- Generator: Adobe Illustrator 22.1.0, SVG Export Plug-In . SVG Version: 6.00 Build 0)  -->
<svg version="1.1" id="publicdomainvectors.org" xmlns="http://www.w3.org/2000/svg" xmlns:xlink="http://www.w3.org/1999/xlink"
	 x="0px" y="0px" viewBox="0 0 660 660" style="enable-background:new 0 0 660 660;" xml:space="preserve">
<style type="text/css">
	.st0{fill-rule:evenodd;clip-rule:evenodd;fill:#FFEDDB;}
	.st1{fill-rule:evenodd;clip-rule:evenodd;fill:#7A3F04;}
	.st2{fill-rule:evenodd;clip-rule:evenodd;fill:#99540F;}
	.st3{fill-rule:evenodd;clip-rule:evenodd;fill:#B56A1F;}
	.st4{fill-rule:evenodd;clip-rule:evenodd;fill:#F7BC81;}
	.st5{fill-rule:evenodd;clip-rule:evenodd;fill:#E09B57;}
	.st6{fill-rule:evenodd;clip-rule:evenodd;fill:#D18436;}
	.st7{fill-rule:evenodd;clip-rule:evenodd;fill:#ED4209;}
	.st8{fill-rule:evenodd;clip-rule:evenodd;fill:#BA2F00;}
	.st9{fill-rule:evenodd;clip-rule:evenodd;fill:#FFFFFF;}
	.st10{fill-rule:evenodd;clip-rule:evenodd;fill:#1A1A1A;}
</style>
<g>
	<path class="st0" d="M332.9,65C479.8,65,598.8,184,598.8,330.9c0,106.8-63,198.9-153.8,241.2H220.7
		C129.9,529.8,66.9,437.7,66.9,330.9C66.9,184,186,65,332.9,65z"/>
	<path class="st1" d="M397.5,461.4c-11.7,0.5-21.7-8.6-22.2-20.3c-0.5-11.7,8.6-21.7,20.3-22.2l20.8-0.9
		c12.6-0.5,24.5-4.7,34.5-11.5c10-6.9,18.2-16.6,23.2-28.1c5-11.5,6.4-24.1,4.6-36.2c-1.8-12-7-23.4-15.2-33
		c-11.7-13.6-16.9-30.7-15.9-47.4c1.1-16.7,8.4-33,21.8-45c13.4-12,30.3-17.6,47-16.9c16.8,0.7,33.2,7.7,45.5,20.8
		c8.1,8.6,7.6,22-0.9,30.1c-8.6,8.1-22,7.6-30.1-0.9c-4.4-4.7-10.3-7.2-16.2-7.5c-6-0.3-12.1,1.7-16.9,6.1c-4.8,4.3-7.4,10.1-7.8,16
		c-0.4,5.9,1.5,12,5.7,16.9c13.6,15.7,22,34.7,25,54.5c3,19.6,0.5,40.2-7.8,59.4c-8.3,19.1-21.6,35-38,46.3
		c-16.5,11.3-36.1,18.1-56.8,19L397.5,461.4z"/>
	<path class="st2" d="M332.9,562.5c119.8,0,217,4.3,217,9.6H115.9C115.9,566.8,213.1,562.5,332.9,562.5z"/>
	<g>
		<path class="st2" d="M282.5,361l-19.4-9.9h-0.8c-34,0-64.5,21.1-76.4,53c-11.9,31.9-2.8,67.8,22.8,90.1
			c7.5,6.6,10.2,17.2,6.6,26.5l-5.5,1.7c-10.9,3.3-18.4,13.1-18.6,24.5c-0.3,11.3,6.8,21.5,17.5,25.3h107H350h107
			c10.7-3.7,17.8-13.9,17.5-25.3c-0.3-11.3-7.8-21.2-18.6-24.5l-5.5-1.7c-3.6-9.4-0.9-19.9,6.6-26.5c25.7-22.4,34.7-58.3,22.8-90.1
			c-11.9-31.9-42.4-53-76.4-53h-0.8l-19.3,9.9l-33.2-4.4v-4.5l-17.1,2.2l-17.1-2.2v4.5L282.5,361z"/>
		<path class="st3" d="M272.7,181.3l6.4,38.9c4.9,29.9-1.1,61.4-17.1,89c-25.1,43.3-33,93.3-21.9,139.2c5.9,24.3,10.4,49,13.7,74
			l-9.9,2.8c-11.8,3.3-20.1,14.6-19.3,26.5c0.8,11.9,10.3,20.6,22.3,20.5h37c6.6,0,13.1-2.7,18-7.6c4.9-4.8,7.7-11.3,7.7-17.9
			c0.3-41.5-3.4-82.6-11.1-122.7c-3.9-20.2,6.7-41.5,25.7-51.9h17.4c19,10.4,29.6,31.8,25.7,51.9c-7.7,40.1-11.4,81.2-11.1,122.7
			c0.1,6.6,2.9,13,7.7,17.9c4.9,4.8,11.4,7.6,18,7.6h37c12,0.2,21.6-8.6,22.3-20.5c0.8-11.9-7.5-23.2-19.3-26.5l-9.9-2.8
			c3.3-25,7.8-49.7,13.7-74c11.1-46,3.2-95.9-21.9-139.2c-16-27.6-22-59.1-17.1-89l6.4-38.9l-60.2,55.9L272.7,181.3z"/>
		<ellipse class="st4" cx="332.9" cy="289.8" rx="46" ry="67.3"/>
		<g>
			<path class="st3" d="M291.8,102.2l-12.6-10c-17.8-14.3-39.1-23.7-61.6-27.2l-2.5,8.5c-10.2,34.5-3.1,71.8,19.1,100.1L291.8,102.2
				z"/>
			<path class="st5" d="M278.8,107.1l-7.9-6.3c-11.2-9-24.5-14.9-38.7-17.1l-1.6,5.3c-6.4,21.7-1.9,45.1,12,62.9L278.8,107.1z"/>
			<path class="st6" d="M278.8,107.1l-7.9-6.3c-11.2-9-24.5-14.9-38.7-17.1c14.4,7.2,24.5,25,16.4,45l13.7-1.2L278.8,107.1z"/>
		</g>
		<g>
			<path class="st3" d="M373.9,102.2l12.6-10c17.8-14.3,39.1-23.7,61.6-27.2l2.5,8.5c10.2,34.5,3.1,71.8-19.1,100.1L373.9,102.2z"/>
			<path class="st5" d="M386.9,107.1l7.9-6.3c11.2-9,24.5-14.9,38.7-17.1l1.6,5.3c6.4,21.7,1.9,45.1-12,62.9L386.9,107.1z"/>
			<path class="st6" d="M386.9,107.1l7.9-6.3c11.2-9,24.5-14.9,38.7-17.1c-14.4,7.2-24.5,25-16.4,45l-13.7-1.2L386.9,107.1z"/>
		</g>
		<g>
			<ellipse class="st3" cx="332.9" cy="183.6" rx="105.1" ry="91.9"/>
			<path class="st4" d="M332.9,91.7c34.5,0,65.1,14.5,84.2,36.9c-2.7-1.2-5.5-2.2-8.4-3.1c-19.5-6.1-40.7,1-52.5,17.6
				c-3.5,4.9-4.5,11.1-2.6,16.9c1.9,5.7,6.3,10.2,12,12.1c8.6,2.8,15.7,8.9,19.8,17c4.7,9.2,1.3,20.4-7.7,25.4c-9,5-20.3,2-25.6-6.8
				c-4.1-6.8-11.3-23.6-19.2-24.1c-7.9,0.5-15.1,17.3-19.2,24.1c-5.3,8.8-16.7,11.8-25.6,6.8c-9-5-12.4-16.2-7.7-25.4
				c4.1-8,11.2-14.1,19.8-17c5.7-1.9,10.2-6.4,12-12.1c1.9-5.7,0.9-12-2.6-16.9c-11.9-16.6-33.1-23.7-52.5-17.6
				c-2.9,0.9-5.7,1.9-8.4,3.1C267.8,106.3,298.4,91.7,332.9,91.7z"/>
			<path class="st7" d="M332.9,165.9h-4.4c-7.6,0-14.4,4.7-17.1,11.7c-0.9,2.3-0.6,4.8,0.7,6.8c1.3,2,3.5,3.3,5.9,3.5
				c2.8,0.2,5.5,1.2,7.7,2.9c2,1.6,4.6,2.3,7.2,1.9c2.6,0.4,5.1-0.3,7.2-1.9c2.2-1.7,4.9-2.7,7.7-2.9c2.4-0.1,4.6-1.4,5.9-3.5
				c1.3-2,1.6-4.6,0.7-6.8c-2.8-7.1-9.6-11.7-17.1-11.7H332.9z"/>
			<path class="st8" d="M314.7,186.9c1,0.6,2.1,0.9,3.3,1c2.4,0.1,4.7,0.9,6.7,2.2c1.4-0.2,2.6-1.3,3-2.7c0.4-1.4,0-2.9-1.1-3.9
				c-1.1-1-2.7-1.5-4.2-1.4c-1.5,0.1-2.9,0.9-3.9,2.2C317.6,185.7,316.2,186.6,314.7,186.9L314.7,186.9z M351.1,186.9
				c-1,0.6-2.1,0.9-3.3,1c-2.4,0.1-4.7,0.9-6.7,2.2c-1.4-0.2-2.6-1.3-3-2.7c-0.4-1.4,0-2.9,1.1-3.9c1.1-1,2.7-1.5,4.2-1.4
				c1.5,0.1,2.9,0.9,3.9,2.2C348.2,185.7,349.5,186.6,351.1,186.9z"/>
			<path class="st9" d="M382.9,135.9c10.7,0.9,19.3,8.8,19.3,17.6c0,8.8-8.7,15.2-19.3,14.2c-10.7-0.9-19.3-8.8-19.3-17.6
				C363.6,141.4,372.3,135,382.9,135.9z"/>
			<path class="st10" d="M382.9,135.9c3.9,0.3,7.6,1.6,10.6,3.5c2.1,2.5,3.4,5.8,3.4,9.4c0,8-6.5,14.5-14.5,14.5
				c-8,0-14.5-6.5-14.5-14.5c0-5,2.5-9.3,6.3-12C376.8,136,379.8,135.7,382.9,135.9z"/>
			<path class="st9" d="M282.8,135.9c-10.7,0.9-19.3,8.8-19.3,17.6c0,8.8,8.7,15.2,19.3,14.2c10.7-0.9,19.3-8.8,19.3-17.6
				C302.2,141.4,293.5,135,282.8,135.9z"/>
			<path class="st10" d="M282.8,135.9c-3.9,0.3-7.6,1.6-10.6,3.5c-2.1,2.5-3.4,5.8-3.4,9.4c0,8,6.5,14.5,14.5,14.5
				c8,0,14.5-6.5,14.5-14.5c0-5-2.5-9.3-6.3-12C288.9,136,286,135.7,282.8,135.9z"/>
			<path class="st9" d="M283.3,141.5c-0.4,0.1-1,1.3-1.2,1.7c-0.7,1.6-0.9,3.5-0.9,5.2c0,1.7,0.2,3.6,0.9,5.2
				c0.1,0.4,0.8,1.6,1.2,1.7c0.4-0.1,1-1.3,1.2-1.7c0.7-1.6,0.9-3.5,0.9-5.2c0-1.7-0.2-3.6-0.9-5.2
				C284.4,142.9,283.8,141.6,283.3,141.5L283.3,141.5z M382.5,141.5c-0.4,0.1-1,1.3-1.2,1.7c-0.7,1.6-0.9,3.5-0.9,5.2
				c0,1.7,0.2,3.6,0.9,5.2c0.1,0.4,0.8,1.6,1.2,1.7c0.4-0.1,1-1.3,1.2-1.7c0.7-1.6,0.9-3.5,0.9-5.2c0-1.7-0.2-3.6-0.9-5.2
				C383.5,142.9,382.9,141.6,382.5,141.5z"/>
		</g>
	</g>
</g>
</svg>
