<svg id="_ÎÓÈ_1" data-name="—ÎÓÈ_1" xmlns="http://www.w3.org/2000/svg" viewBox="0 0 450 450"><title>42894 [Converted]</title><path d="M296.14,148l-108.67.18H138l-.42,0-.85,0a20.85,20.85,0,0,0-2.78.33,14.42,14.42,0,0,0-8.86,5.64,14.92,14.92,0,0,0-2.49,10.34c.11,1,.27,1.8.5,2.9l.76,3.31,1.52,6.62,3,13.24,12.13,53,3,13.24.34,1.49.47,1.64a8.6,8.6,0,0,0,.49,1.42c.18.43.31.85.52,1.29a25.9,25.9,0,0,0,3.14,5.11c5,6.3,13,10.56,21,10.26L278,272.39h0l1.24-.1.83,1.07,26.45,34.14h0l-6,1.73L304,264.76l1.75-22.23,2.42-22.19,4.84-44.3.61-5.54.28-2.6c0-.88.16-2,.11-2.68a18.32,18.32,0,0,0-2.41-8.72,17.23,17.23,0,0,0-6.53-6.32A19.15,19.15,0,0,0,296.14,148Zm0-7.22a26.35,26.35,0,0,1,12.42,3.14,24.45,24.45,0,0,1,9.26,9,25.4,25.4,0,0,1,3.34,12.54c0,1.12-.09,1.91-.13,2.88l-.32,2.93-.62,5.54-5,44.28-2.48,22.11-1.82,22.18-3.65,44.37-.72,8.84-5.25-7.11h0l-25-35.23,2.07,1h0L224,280.76l-54.29,3.42c-10.28.41-20-4.71-26.26-12.43a32.85,32.85,0,0,1-4-6.41,30.83,30.83,0,0,1-1.38-3.63l-.48-1.63-.44-1.81L134,245.06l-12.6-52.85L118.27,179l-1.57-6.6-.79-3.31c-.24-1.1-.54-2.51-.68-3.77a22.35,22.35,0,0,1,3.71-15.49,21.82,21.82,0,0,1,13.45-8.69,30,30,0,0,1,4-.49l.84,0,.43,0h49.85Z"/></svg>