<svg id="_ÎÓÈ_1" data-name="—ÎÓÈ_1" xmlns="http://www.w3.org/2000/svg" viewBox="0 0 450 450"><title>42894 [Converted]</title><path d="M330.75,195.5s-.14,2.46-.42,7.07a21.91,21.91,0,0,1-.57,4c-.3,1.52-.64,3.17-1,5a37.46,37.46,0,0,1-1.67,5.49c-.34,1-.68,1.95-1,3l-.54,1.55c-.24.5-.49,1-.74,1.51-3.55,8.41-10,17.62-19,26.29a118.11,118.11,0,0,1-35,22.57A148,148,0,0,1,223,283.3l-6.58.26-3.32.13-1.67.07-1.81-.06-6.56-.26a61.57,61.57,0,0,1-6.74-.48A138,138,0,0,1,182.44,281l-6.93-1.33-6.89-1.84c-4.65-1.07-9.11-3-13.71-4.5-2.26-.88-4.47-1.93-6.72-2.91L144.83,269c-1.11-.52-2.17-1.16-3.26-1.73A108.71,108.71,0,0,1,117,250.07c-15-13.68-25.81-33.27-25.73-55.1l.56-7.37a25.13,25.13,0,0,1,.65-3.88l.85-4a47.1,47.1,0,0,1,2.39-7.52c.46-1.22.86-2.47,1.37-3.66l1.78-3.45a81.31,81.31,0,0,1,18.69-24.08,60.23,60.23,0,0,1,5.77-4.83,62.27,62.27,0,0,1,6-4.41l6.24-4,6.49-3.47c1.09-.56,2.15-1.18,3.26-1.68l3.34-1.44c2.24-.94,4.43-2,6.68-2.82,4.57-1.47,9-3.31,13.63-4.32a166.1,166.1,0,0,1,53.78-5,150.55,150.55,0,0,1,47.37,11,119.55,119.55,0,0,1,35,21.87c9.09,8.43,15.61,17.47,19.27,25.77l.75,1.49.56,1.53c.37,1,.72,2,1.07,2.94a35.06,35.06,0,0,1,1.74,5.4c.37,1.72.72,3.32,1,4.79a21.3,21.3,0,0,1,.65,4c.37,4.87.56,7.47.56,7.47Zm-7-.24-.43-6.67a17.34,17.34,0,0,0-.55-3.6c-.26-1.32-.56-2.75-.88-4.3a30,30,0,0,0-1.51-4.88l-.93-2.66c-.15-.45-.32-.92-.48-1.39s-.45-.9-.67-1.36c-3.21-7.55-9.1-15.93-17.51-23.92a108.36,108.36,0,0,0-33-20.89,145.08,145.08,0,0,0-45.27-10.53,153.42,153.42,0,0,0-51.8,5.31c-4.42,1-8.6,2.85-12.95,4.29-2.13.84-4.19,1.85-6.3,2.76l-3.16,1.41c-1,.49-2,1.09-3,1.63l-6.09,3.35-5.8,3.86a55.36,55.36,0,0,0-5.58,4.2,53.61,53.61,0,0,0-5.3,4.55,73.92,73.92,0,0,0-16.77,22.14l-1.56,3.12c-.45,1.06-.77,2.17-1.17,3.26-.7,2.19-1.71,4.36-2,6.55l-.68,3.27a17.37,17.37,0,0,0-.56,3.4l-.47,7.38c0-.49,0,0,0-.07l0,.22,0,.43.07.86.14,1.72.27,3.44a67.83,67.83,0,0,0,1.33,6.76,39.13,39.13,0,0,0,2.1,6.56c.41,1.08.75,2.18,1.21,3.23l1.6,3.07a73.45,73.45,0,0,0,17,21.72,53.83,53.83,0,0,0,5.33,4.44A55.74,55.74,0,0,0,134,252l5.78,3.76,6.07,3.25c1,.53,2,1.12,3,1.59L152,262c2.1.89,4.16,1.86,6.27,2.67,4.32,1.38,8.48,3.15,12.86,4.11l6.47,1.68,6.51,1.2a126.39,126.39,0,0,0,12.82,1.71,56.46,56.46,0,0,0,6.49.42L210,274c4,.05,8.31-.23,12.35-.32a148.07,148.07,0,0,0,44.91-10.13,109.66,109.66,0,0,0,32.89-20.19c8.46-7.75,14.44-16,17.76-23.4l.69-1.34.51-1.37,1-2.63a29.27,29.27,0,0,0,1.58-4.78c.34-1.49.65-2.86.94-4.12a16.78,16.78,0,0,0,.62-3.6c.37-4.61.57-7.07.57-7.07Z"/><path d="M311.75,294.29s0,.41,0,1.19a16.55,16.55,0,0,1-.77,4,19,19,0,0,1-9.15,10.37,22.85,22.85,0,0,1-8.79,2.59c-.86,0-1.54.11-2.57.08a22,22,0,0,1-2.33-.19,23.44,23.44,0,0,1-5.17-1.2,20.74,20.74,0,0,1-9.1-6.16,15.58,15.58,0,0,1-2.66-16.6,16.22,16.22,0,0,1,3.13-4.74,21.05,21.05,0,0,1,9-5.6,25.83,25.83,0,0,1,9.55-1,24.94,24.94,0,0,1,8.49,2.29,20.16,20.16,0,0,1,6.1,4.44,17.39,17.39,0,0,1,3.25,5.08,16.36,16.36,0,0,1,1,3.86c.08.93.12,1.42.12,1.42Zm-5.12-.16s0-.33,0-.95a11.19,11.19,0,0,0-.48-2.67,13.64,13.64,0,0,0-6.66-7.57,17.81,17.81,0,0,0-6.83-2.05,19.29,19.29,0,0,0-8.08,1.06,15.55,15.55,0,0,0-6.89,4.69,11.78,11.78,0,0,0-2.05,3.56,11.18,11.18,0,0,0-.62,3.93,11,11,0,0,0,3.14,7.08,16,16,0,0,0,6.75,4.13,18.49,18.49,0,0,0,3.73.74c.5.1,1.4.06,2.08.1l1.75-.06a20,20,0,0,0,6.53-1.75,13.41,13.41,0,0,0,6.86-6.72,10.89,10.89,0,0,0,.68-2.49c.07-.77.11-1.18.11-1.18Z"/><path d="M311.78,333.83s0,.28-.06.8a9,9,0,0,1-.38,2.54,13,13,0,0,1-.71,2.1c-.35.65-.71,1.37-1.15,2.1s-1.1,1.38-1.74,2.09a23.8,23.8,0,0,1-2.36,1.84,14.29,14.29,0,0,1-6.32,2.13l-.9.08-.45,0-.22,0-.35,0H297l-1.47-.18-.75-.09-1-.27c-.67-.19-1.36-.39-2-.63a15.18,15.18,0,0,1-6.23-4.94,13.91,13.91,0,0,1-2.37-7.88l0-.31v-.07l0-.11,0-.2.06-.41.13-.82a9.4,9.4,0,0,1,.57-2,12.59,12.59,0,0,1,2-3.62,15.42,15.42,0,0,1,6.11-4.39,15.94,15.94,0,0,1,6.82-.78,12.8,12.8,0,0,1,3.11.63,18,18,0,0,1,2.83,1.18c.85.47,1.58,1.08,2.33,1.59s1.24,1.25,1.8,1.84a12.76,12.76,0,0,1,2.05,3.74,10.09,10.09,0,0,1,.62,2.73c.08.65.13,1,.13,1Zm-5.19-.28s0-.2,0-.59a5.52,5.52,0,0,0-.22-1.66,9.13,9.13,0,0,0-1-2.47c-.33-.43-.69-.88-1.07-1.35s-.94-.84-1.51-1.22a8.58,8.58,0,0,0-1.88-.91,7.39,7.39,0,0,0-2.29-.5,10.24,10.24,0,0,0-4.91.71,10,10,0,0,0-4,3.23,8.43,8.43,0,0,0-1,2.19,3.25,3.25,0,0,0-.26,1.2l-.09,1.37a8.56,8.56,0,0,0,1.8,4.41,10.49,10.49,0,0,0,3.86,2.67c.33.08.63.14.93.24l.45.15.74.05,1.48.1h0l.27,0,.54-.05a10.69,10.69,0,0,0,3.79-1.11c.54-.28,1-.67,1.47-1l1.14-1.09.78-1.13a8.6,8.6,0,0,0,.43-.89c.32-.36.36-1.41.46-1.84l.12-.79Z"/></svg>