<?xml version="1.0" ?><svg width="48px" height="48px" viewBox="0 0 48 48" xmlns="http://www.w3.org/2000/svg"><defs><style>.cls-1{fill:#fc663d;}.cls-2{fill:#f7cc94;}.cls-3{fill:#f4b392;}.cls-4{fill:#3f1400;}.cls-5{fill:none;stroke:#3f1400;stroke-linecap:round;stroke-linejoin:round;stroke-width:0.5px;}</style></defs><title/><g id="hair"><path class="cls-1" d="M44.3,44.5H3.7c0-7,3.15-12.68,10.15-12.68h20.3c7,0,10.15,5.67,10.15,12.68Z"/><path class="cls-2" d="M27.81,21.67V33.08a3.81,3.81,0,0,1-7.62,0V21.67Z"/><path class="cls-3" d="M31.53,17.86a10.53,10.53,0,0,1-3.72,7.51v2.54a6,6,0,0,1-7.62,0V25.37a10.53,10.53,0,0,1-3.72-7.51C16.92,12.86,20.12,9,24,9S31.08,12.86,31.53,17.86Z"/><path class="cls-2" d="M31.61,16.59a8.75,8.75,0,0,1-.08,1.27,10.53,10.53,0,0,1-3.72,7.51,6,6,0,0,1-7.62,0,10.53,10.53,0,0,1-3.72-7.51,8.75,8.75,0,0,1-.08-1.27c0-5.6,3.4-10.14,7.61-10.14S31.61,11,31.61,16.59Z"/><path class="cls-2" d="M34.15,16.59a2.54,2.54,0,0,1-2.54,2.54c-1.4,0,0-1.14,0-2.54s-1.4-2.53,0-2.53A2.54,2.54,0,0,1,34.15,16.59Z"/><path class="cls-2" d="M13.85,16.59a2.54,2.54,0,0,0,2.54,2.54c1.4,0,0-1.14,0-2.54s1.4-2.53,0-2.53A2.54,2.54,0,0,0,13.85,16.59Z"/><circle class="cls-4" cx="20.96" cy="14.31" r="0.51"/><circle class="cls-4" cx="27.04" cy="14.31" r="0.51"/><path class="cls-5" d="M19.18,12.79s1.72-2,3.55-1"/><path class="cls-5" d="M28.82,12.79s-1.72-2-3.55-1"/><path class="cls-5" d="M23.49,14.82s-2,5.07-1,5.07h1"/><path class="cls-5" d="M23.49,21.92s3.05,0,4.06-1"/><path class="cls-4" d="M16.57,14.55s1.34-4.3,3.37-5.31,8.12,2,9.13,0,2-5.08-1-5.08-7.1-2-9.13,1S16.57,14.55,16.57,14.55Z"/><path class="cls-4" d="M29.07,9.24s3-2,3,0a29.17,29.17,0,0,1-.69,5.07Z"/></g></svg>