<svg id="publicdomainvectors.org" xmlns="http://www.w3.org/2000/svg" viewBox="0 0 660 660"><defs><style>.cls-1{fill:#fcd0c2;}.cls-2{fill:#f08011;}.cls-10,.cls-11,.cls-12,.cls-14,.cls-15,.cls-16,.cls-17,.cls-2,.cls-3,.cls-4,.cls-5,.cls-7,.cls-8,.cls-9{fill-rule:evenodd;}.cls-3{fill:#1a1a1a;}.cls-4{fill:#f93;}.cls-5{fill:#417921;}.cls-10,.cls-6{fill:#333;}.cls-7{fill:#4d4d4d;}.cls-8{fill:#db5d33;}.cls-9{fill:#cf4e23;}.cls-11,.cls-13{fill:#e86a41;}.cls-12{fill:#783018;}.cls-14{fill:#acace0;}.cls-15{fill:#9d9dcf;}.cls-16{fill:#fff;}.cls-17{fill:#d49b88;}</style></defs><title>Boy 16</title><circle class="cls-1" cx="359.8" cy="312.8" r="205.6" transform="translate(-115.8 346) rotate(-45)"/><path class="cls-2" d="M397.4,119.3c5.4,0,8.5,6.7,6.9,14.9s-7.2,15-12.6,15-8.4-6.7-6.8-15,7.2-14.9,12.5-14.9Zm-99.5,0c-5.4,0-8.5,6.7-6.9,14.9s7.2,15,12.6,15,8.4-6.7,6.8-15S303.2,119.3,297.9,119.3Z"/><path class="cls-3" d="M391.7,138.3,403,121.8a23.1,23.1,0,0,0-9.1-34L388.5,79a50.2,50.2,0,0,0-80.9-5.9A38.2,38.2,0,0,0,298.5,99l-2.2,5.5a20,20,0,0,0-1.4,9.4,52.5,52.5,0,0,0,8.5,24.3Z"/><path class="cls-4" d="M347.7,173.7l-10.2-1.4.7,9.1a18.5,18.5,0,0,1-5.8,14.9l-14.9,9.2,30.2,20.4,30.1-20.4-14.9-9.2a18.5,18.5,0,0,1-5.8-14.9l.7-9.1Z"/><path class="cls-2" d="M347.7,173.7l-4.1-.6A20.5,20.5,0,0,0,361,204.3a20.9,20.9,0,0,0,10.3-2.8l-8.4-5.2a18.5,18.5,0,0,1-5.8-14.9l.7-9.1Z"/><path class="cls-5" d="M347.7,211.3l-6.3-.5a10.9,10.9,0,0,1-8.1-5,10.6,10.6,0,0,1-.9-9.5l-22.6-2.1a32.2,32.2,0,0,0-35.1,28.3,19.6,19.6,0,0,0,5.4,15.8,19.4,19.4,0,0,0,15.6,5.9l3.5,13.9a27.6,27.6,0,0,0,22.6,20.4l25.9-4.6,25.8,4.6a27.4,27.4,0,0,0,22.6-20.4l3.5-13.9a19.6,19.6,0,0,0,21-21.7,32.2,32.2,0,0,0-35.1-28.3l-22.6,2.1a10.6,10.6,0,0,1-.9,9.5,10.9,10.9,0,0,1-8.1,5Z"/><rect class="cls-6" x="359.8" y="496.1" width="33.1" height="57.96"/><path class="cls-7" d="M352.7,438.8l26.9-4a35.3,35.3,0,0,1,39.9,29.6h0a35.3,35.3,0,0,1-29.7,39.9l-26.9,3.9a35.2,35.2,0,0,1-39.8-29.6h0A35.2,35.2,0,0,1,352.7,438.8Z"/><path class="cls-8" d="M296.3,331.9,159.6,375.1a29.6,29.6,0,0,0,11.2,57.8L313,412Z"/><path class="cls-9" d="M139.2,407.5a7.7,7.7,0,0,0,.2,1.5,29.6,29.6,0,0,0,31.4,23.9L313,412l-9.8-46.8-35.7-11.7-9,15.3a44,44,0,0,1-27,20.5l-64.8,17.2A62.4,62.4,0,0,1,139.2,407.5Z"/><path class="cls-8" d="M403,316.2l143.3,2.1a29.6,29.6,0,0,1,5.8,58.5L410,397.7Z"/><path class="cls-9" d="M575.1,343.4a7.8,7.8,0,0,1,.2,1.6,29.4,29.4,0,0,1-23.2,31.8L410,397.7l-4.1-47.6,30.8-21.5,13,12.1a44.4,44.4,0,0,0,31.8,11.9l67-2.2A61.2,61.2,0,0,0,575.1,343.4Z"/><path class="cls-10" d="M317.7,421.7l90.5-13.3A35.2,35.2,0,0,1,448,438.1h0a35.1,35.1,0,0,1-29.6,39.8L328,491.2a35.3,35.3,0,0,1-39.9-29.6h0A35.3,35.3,0,0,1,317.7,421.7Z"/><path class="cls-11" d="M340.7,263.8a95.8,95.8,0,1,1-80.8,108.7A95.8,95.8,0,0,1,340.7,263.8Z"/><path class="cls-12" d="M346.4,302.6a56.6,56.6,0,1,1-47.7,64.2A56.6,56.6,0,0,1,346.4,302.6Z"/><rect class="cls-13" x="199.7" y="542.6" width="353.2" height="22.86"/><path class="cls-4" d="M278,223.8l-14.4,32.4a19.7,19.7,0,0,0,1.5,18.7,19.5,19.5,0,0,0,16.6,8.8,40.5,40.5,0,0,0,27.7-11.3,18.4,18.4,0,1,0,13.7-30.7,18.6,18.6,0,0,0-13.7,6l-12.5.7,4.9-10.4a13.9,13.9,0,0,0-5.4-17.9c-6.2-3.7-15.5-2.7-18.4,3.7Zm139.3,0,14.4,32.4a19.5,19.5,0,0,1-18.1,27.5,40.7,40.7,0,0,1-27.7-11.3,18.4,18.4,0,1,1-13.7-30.7,18.6,18.6,0,0,1,13.7,6l12.5.7L393.5,238a13.8,13.8,0,0,1,5.5-17.9C405.1,216.4,414.4,217.4,417.3,223.8Z"/><path class="cls-14" d="M337.5,241.4a62.4,62.4,0,0,1,70.8,52.7c.1.5.1.9.2,1.3a96,96,0,0,0-123.6,18.1c0-.4-.1-.8-.1-1.2A62.4,62.4,0,0,1,337.5,241.4Z"/><path class="cls-15" d="M378.8,283a86,86,0,0,0-11.3-1.9,21.7,21.7,0,0,0-43.3,1.1,28.5,28.5,0,0,0,.4,4.1,88.1,88.1,0,0,0-10.4,4.5,30.8,30.8,0,0,1-1.2-8.6,32.9,32.9,0,0,1,65.8,0Z"/><path class="cls-15" d="M364.4,243.4a62.8,62.8,0,0,1,41.2,39.4,41.3,41.3,0,0,1-19.7-10.4,18.4,18.4,0,1,1-21.5-29Zm-77,39.8A62.5,62.5,0,0,1,330,243a18.4,18.4,0,1,1-20.6,29.4A41.3,41.3,0,0,1,287.4,283.2Z"/><path class="cls-16" d="M238.6,312.5c4.3-10.9,33.1-9.6,64.4,2.8s53.2,31.3,48.9,42.2-33.2,9.5-64.5-2.9-53.1-31.3-48.8-42.1Zm214-31.5c-7.2-9.1-34.5.4-60.9,21.3s-41.9,45.2-34.7,54.4,34.5-.4,60.9-21.3,42-45.2,34.7-54.4ZM372.8,482.1c11.6-1.7,17-30,12.1-63.3s-18.2-59-29.8-57.3-16.9,30.1-12,63.4S361.3,483.8,372.8,482.1Z"/><path class="cls-17" d="M350.4,329.7a29.2,29.2,0,1,1-24.5,33.1A29.3,29.3,0,0,1,350.4,329.7Z"/><path class="cls-4" d="M346.2,116.1c25.1,0,33.9-17.6,38.7-3.3a44.3,44.3,0,0,1,13.5,31.7c0,25.8-22.7,46.7-50.7,46.7s-50.8-20.9-50.8-46.7a44.3,44.3,0,0,1,13.5-31.7C315.3,98.5,321,116.1,346.2,116.1Z"/><path class="cls-16" d="M371.3,161.9c-1.7,10.6-11.6,18.7-23.6,18.7s-22-8.1-23.7-18.7Z"/><path class="cls-3" d="M356.5,119.3h6c8.3-.1,15.2,3.7,18.7,10.3L378,133l-2.7-1.5a29.5,29.5,0,0,0-9.7-3.4H354.7Z"/><path class="cls-3" d="M363.6,143.4c2.9,0,5.2-2.6,5.2-5.9s-2.3-5.8-5.2-5.8-5.1,2.6-5.1,5.8S360.8,143.4,363.6,143.4Z"/><path class="cls-3" d="M338.8,119.3h-6c-8.3-.1-15.2,3.7-18.7,10.3l3.2,3.4,2.7-1.5a29.5,29.5,0,0,1,9.7-3.4h10.9Z"/><path class="cls-3" d="M331.7,143.4c2.8,0,5.2-2.6,5.2-5.9s-2.4-5.8-5.2-5.8-5.2,2.6-5.2,5.8S328.8,143.4,331.7,143.4Z"/></svg>