<?xml version="1.0" encoding="UTF-8"?>
<!DOCTYPE svg PUBLIC "-//W3C//DTD SVG 1.1//EN" "http://www.w3.org/Graphics/SVG/1.1/DTD/svg11.dtd">
<svg version="1.1" xmlns="http://www.w3.org/2000/svg" xmlns:xlink="http://www.w3.org/1999/xlink" x="0" y="0" width="534.5" height="725.5" viewBox="0, 0, 534.5, 725.5">
  <defs>
    <clipPath id="Clip_1">
      <path d="M0,0.48 L534.24,0.48 L534.24,725.47 L0,725.47 z"/>
    </clipPath>
  </defs>
  <g id="Layer_1">
    <g clip-path="url(#Clip_1)">
      <path d="M128.208,725.5 L136.971,725.5 L174.454,623.77 L182.454,607.77 L219.12,580.435 L219.454,575.435 L168.454,594.1 L156.454,620.435 L128.208,725.5" fill="#FDFDFD"/>
      <path d="M218.295,578.945 C218.147,578.265 219.32,576.565 217.215,577.36 C202.495,582.94 188.126,589.215 175.59,598.985 C168.785,604.29 164.166,610.885 161.786,619.435 C153.237,650.135 144.44,680.775 134.439,711.05 C133.086,715.145 131.715,719.235 129.926,723.17 C129.568,723.955 129.332,724.855 128.207,725.5 C127.684,722.845 128.284,720.505 128.691,718.205 C131.435,702.73 135.175,687.475 138.917,672.22 C143.587,653.18 148.376,634.165 153.11,615.14 C155.737,604.58 161.961,596.415 170.403,589.915 C184.228,579.265 199.883,571.995 216.127,565.93 C218.4,565.08 219.887,564.215 219.576,561.49 C219.437,560.28 219.833,559.015 219.928,557.77 C220.228,553.875 220.197,553.95 216.27,552.83 C192.863,546.175 169.684,538.825 147.426,528.9 C135.891,523.76 125.355,516.95 116.222,508.125 C109.12,501.26 103.177,493.464 97.975,485.103 C96.957,483.467 95.954,482.991 94.02,483.115 C82.542,483.854 71.615,481.927 62.776,474.057 C51.371,463.903 47.009,450.746 48.169,435.69 C48.534,430.95 49.538,426.294 51.891,422.078 C52.676,420.67 51.62,420.11 50.971,419.385 C41.111,408.378 32.52,396.476 25.266,383.586 C14.956,365.266 9.151,345.402 4.999,324.978 C1.239,306.479 -0.272,287.753 0.039,268.892 C0.479,242.242 5.478,216.363 13.561,191.033 C17.65,178.219 22.326,165.621 27.838,153.346 C28.576,151.703 28.369,150.513 27.452,149.011 C22.229,140.453 17.793,131.528 16.415,121.452 C14.152,104.899 19.87,93.622 34.414,85.307 C43.26,80.251 52.953,78.153 62.908,76.927 C66.208,76.521 69.52,76.161 72.838,75.978 C74.05,75.912 74.589,75.246 75.233,74.502 C86.282,61.718 98.574,50.32 112.666,40.928 C127.274,31.194 142.9,23.942 160.397,21.172 C170.062,19.642 179.75,19.235 189.49,20.249 C191.051,20.411 192.498,20.541 194.039,19.667 C214.731,7.938 237.021,1.78 260.752,0.677 C291.683,-0.762 321.029,5.764 349.225,18.16 C379.962,31.674 406.678,51.102 431.183,73.796 C451.778,92.869 470.507,113.543 485.866,137.138 C505.77,167.714 520.61,200.505 530.13,235.787 C536.745,260.31 534.85,284.36 528.15,308.413 C524.02,323.256 518.5,337.557 511.7,351.371 C511.21,352.362 510.945,353.14 511.46,354.329 C518.27,370.155 515.5,384.892 505.265,398.106 C494.339,412.219 479.145,419.907 462.144,424.292 C460.374,424.748 459.639,425.476 459.232,427.327 C456.067,441.722 451.154,455.43 442.317,467.423 C435.83,476.225 427.357,483.017 418.935,489.822 C394.663,509.43 368.604,526.3 340.847,540.55 C339.532,541.225 338.199,541.86 336.698,542.605 C340.32,546.76 343.912,550.405 349.301,552.185 C363.194,556.765 377.48,559.945 391.419,564.34 C396.648,565.985 401.764,567.915 406.797,570.095 C416.428,574.26 424.034,580.85 429.42,589.75 C437.018,602.295 442.342,615.89 444.02,630.455 C444.983,638.815 444.084,647.415 443.756,655.89 C443.251,668.94 442.599,681.985 441.851,695.025 C441.346,703.82 441.025,712.65 439.331,721.33 C439.014,722.955 439.306,725.495 436.325,725.29 C434.669,724.565 434.225,723.03 433.805,721.49 C432.681,717.36 432.359,713.09 432.244,708.875 C431.926,697.235 431.067,685.575 431.734,673.94 C432.398,662.37 431.779,650.805 432.186,639.25 C432.439,632.06 431.297,625.22 428.791,618.465 C425.366,609.235 422.106,599.97 415.822,592.17 C415.274,591.42 414.648,590.735 413.963,590.105 C409.354,584.765 403.194,581.89 396.8,579.455 C388.337,576.23 379.58,573.945 370.853,571.57 C369.124,571.1 368.352,571.595 368.067,573.26 C367.941,573.995 367.685,574.7 367.377,575.385 C365.369,579.99 361.585,583.06 357.846,586.08 C353.107,589.91 347.744,592.825 342.403,595.725 C340.686,596.655 339.831,597.835 339.514,599.735 C338.763,604.245 337.237,608.44 333.741,611.635 C332.573,612.705 332.424,613.615 333.773,614.675 C334.883,615.545 335.789,616.66 336.818,617.63 C341.012,621.595 342.112,626.51 341.255,632.02 C339.921,640.61 334.811,646.805 328.456,652.23 C321.131,658.48 312.772,663.185 304.61,668.17 C295.196,673.92 286.534,680.62 278.342,687.99 C269.865,695.615 261.755,703.62 253.437,711.41 C251.617,713.115 249.617,714.625 247.902,716.445 C246.427,718.01 244.642,718.44 242.519,718.53 C239.619,718.66 237.456,717.77 235.485,715.62 C228.515,708.015 221.128,700.75 216.84,691.105 C213.873,684.435 211.578,677.61 211.796,670.175 C211.837,668.775 211.732,667.28 213.337,666.52 C215.259,666.385 215.603,667.935 216.111,669.21 C218.36,674.865 220.598,680.51 223.798,685.725 C228.287,693.045 233.931,699.32 240.487,704.83 C242.01,706.11 242.833,705.28 243.825,704.285 C250.773,697.335 257.709,690.365 264.681,683.435 C277.165,671.025 291.224,660.725 306.523,652.045 C313.268,648.22 319.779,644.01 325.007,638.125 C326.005,637 327.004,635.885 327.862,634.655 C330.873,630.335 330.906,627.31 328.041,622.925 C327.036,621.39 326.066,619.795 324.78,618.51 C322.538,616.265 321.984,613.51 321.796,610.54 C321.676,608.645 322.613,607.21 323.556,605.72 C326.015,601.83 327.534,597.665 326.808,592.965 C326.14,588.64 323.623,585.74 319.699,583.975 C318.559,583.46 317.368,583.07 316.233,582.545 C312.705,580.915 311.632,577.65 313.579,574.285 C315.215,571.455 317.525,569.135 319.525,566.575 C321.277,564.335 322.912,562.02 323.81,559.29 C325.204,555.045 324.198,552.64 320.177,550.725 C317.207,549.31 314.026,548.66 310.754,548.495 C304.571,548.19 298.451,548.85 292.352,549.775 C291.857,549.85 291.365,549.94 290.865,549.955 C289.4,550.005 287.958,549.905 287.201,548.39 C286.48,546.95 286.933,545.595 287.867,544.435 C289.798,542.03 291.781,539.68 294.077,537.6 C304.876,527.815 315.541,517.89 325.688,507.425 C328.119,504.915 328.55,501.305 326.761,498.895 C323.87,498.28 320.97,498.377 318.097,498.889 C310.665,500.215 303.722,503.075 296.818,505.975 C286.386,510.35 275.82,514.425 265.64,519.395 C257.369,523.43 249.646,528.27 242.897,534.585 C235.255,541.73 231.969,550.915 230.621,560.965 C229.075,572.5 228.427,584.13 227.057,595.685 C226.382,601.38 225.773,607.08 224.889,612.745 C224.52,613.755 224.603,614.845 224.372,615.88 C222.988,624.01 221.563,632.135 218.53,639.86 C217.429,642.67 215.989,645.3 214.087,647.64 C213.37,648.525 212.576,649.865 211.084,648.57 C210.602,647.315 211.047,646.105 211.279,644.895 C213.708,632.24 215.362,619.495 216.212,606.635 C216.704,599.18 217.229,591.735 217.173,584.26 C217.16,582.42 217.466,580.62 218.295,578.945" fill="#000000"/>
      <path d="M213.489,666.64 C212.327,667.63 212.404,669.01 212.421,670.325 C212.577,681.915 216.943,692.01 223.645,701.195 C227.772,706.85 232.801,711.745 237.555,716.865 C238.957,718.375 244.928,718.24 246.547,716.73 C255.973,707.93 265.406,699.14 274.79,690.295 C286.045,679.685 298.487,670.71 311.849,662.96 C319.645,658.44 327.092,653.41 333.215,646.705 C338.665,640.735 341.719,633.83 340.562,625.555 C339.869,620.605 336.205,617.64 332.73,614.685 C331.301,613.47 331.44,612.98 332.724,611.83 C336.408,608.525 338.352,604.225 338.872,599.37 C339.093,597.31 339.884,596.21 341.725,595.265 C349.212,591.43 356.426,587.16 362.497,581.205 C364.235,579.495 365.645,577.585 366.807,575.47 C374.781,577.135 382.701,579.035 390.566,581.15 C396.83,582.835 403.072,584.625 409.015,587.285 C410.682,588.035 412.404,588.68 413.847,589.85 C414.497,590.45 415.238,590.925 415.993,591.385 C419.332,595.035 421.795,599.27 423.747,603.755 C427.386,612.125 430.999,620.545 432.589,629.6 C433.689,635.865 432.842,642.215 432.862,648.525 C432.931,670.315 431.86,692.115 433.451,713.88 C433.738,717.8 433.698,721.915 436.326,725.29 C435.077,725.305 433.829,725.335 432.581,725.335 C334.627,725.335 236.673,725.335 138.719,725.335 C138.136,725.335 137.544,725.27 136.972,725.35 C135.016,725.61 134.976,724.695 135.522,723.215 C138.998,713.775 142.41,704.315 145.906,694.885 C154.461,671.81 163.609,648.955 171.659,625.7 C173.677,619.865 175.341,613.94 179.204,608.99 C184.465,602.245 190.801,596.645 197.721,591.65 C204.279,586.915 211.255,582.88 218.296,578.945 C217.705,601.905 216.345,624.795 211.577,647.345 C211.475,647.825 211.496,648.33 211.459,648.825 C212.491,650.445 212.423,652.32 212.673,654.12 C213.119,657.335 213.494,660.56 213.9,663.78 C214.024,664.77 214.235,665.775 213.489,666.64" fill="#97CCFE"/>
    </g>
    <path d="M150.441,162.915 C147.974,157.628 146.6,152.04 145.919,146.271 C145.538,143.051 145.322,139.822 145.429,136.574 C145.446,136.045 145.673,135.226 144.874,135.139 C144.193,135.065 144.057,135.816 143.852,136.361 C141.943,141.452 141.46,146.747 142.107,152.074 C143.936,167.144 150.482,180.479 157.684,193.555 C169.594,215.182 184.644,234.667 199.215,254.479 C200.928,256.807 202.553,259.198 203.902,262.102 C199.999,260.814 196.055,259.634 192.199,258.216 C180.401,253.878 168.879,248.882 157.763,243.009 C149.973,238.893 142.307,234.539 134.629,230.215 C133.348,229.493 132.286,228.382 131.123,227.451 C130.53,227.157 130.003,226.74 129.37,226.52 C128.8,225.947 128.163,225.465 127.458,225.07 C116.384,217.19 106.286,208.166 96.29,198.987 C84.73,188.373 74.11,176.918 64.501,164.548 C56.208,153.871 48.684,142.677 44.203,129.753 C41.234,121.19 39.635,112.5 42.823,103.635 C45.019,97.528 49,92.875 54.875,89.949 C55.466,89.561 55.811,88.973 56.684,88.812 C72.343,85.924 88.152,85.635 104.005,85.88 C111.653,85.999 119.305,85.905 126.954,85.917 C128.205,85.918 129.429,85.84 130.647,85.485 C131.678,85.185 132.846,85.191 132.937,83.698 C133.023,82.28 131.944,81.88 130.969,81.455 C128.067,80.187 125.007,79.446 121.896,78.922 C116.595,78.028 111.296,77.104 105.908,76.875 C105.467,76.856 105.117,76.662 104.894,76.266 C104.898,74.812 106.063,74.102 106.947,73.3 C117.006,64.163 127.824,56.064 139.665,49.35 C148.016,44.616 156.797,40.896 165.889,37.887 C167.167,37.464 168.484,36.65 169.926,37.46 C164.986,42.607 160.229,47.899 156.516,54.042 C155.353,55.966 154.299,57.935 153.619,60.083 C153.368,60.874 153.08,61.846 153.844,62.398 C154.706,63.022 155.404,62.197 155.954,61.63 C158.893,58.589 161.806,55.501 164.816,52.556 C168.031,49.411 170.983,45.894 174.885,43.484 C175.59,42.993 176.189,42.342 177.03,42.053 C181.636,38.187 187.16,36.021 192.607,33.759 C206.478,28 220.971,24.811 235.879,23.176 C245.679,22.101 255.505,21.901 265.293,22.37 C283.896,23.262 302.145,26.533 320.021,31.841 C336.598,36.764 352.544,43.241 367.88,51.204 C387.091,61.178 404.948,73.202 421.63,86.99 C432.424,95.913 442.586,105.516 452.235,115.647 C459.809,123.6 467.104,131.815 473.453,140.812 C473.947,141.623 474.443,142.436 475.349,142.87 C478.487,148.106 481.952,153.128 484.987,158.441 C492.219,171.1 498.774,184.076 504.415,197.514 C510.375,211.701 515.645,226.118 519.045,241.165 C521.675,252.808 522.935,264.59 522.3,276.507 C521.82,285.478 519.81,294.198 517.415,302.859 C513.825,315.863 509.405,328.54 503.73,340.785 C502.85,342.685 502.23,342.919 500.325,341.761 C494.14,337.999 487.397,335.747 480.103,335.366 C479.687,335.345 479.272,335.301 478.858,335.283 C476.585,335.181 475.736,334.264 475.812,331.749 C476.039,324.346 477.469,317.095 478.152,309.758 C479.078,299.819 479.681,289.87 477.78,279.966 C477.547,278.753 477.062,277.577 476.594,276.423 C476.22,275.504 475.755,274.384 474.583,274.483 C473.25,274.595 473.051,275.861 472.904,276.931 C472.036,283.253 471.772,289.633 470.971,295.969 C469.994,303.704 468.72,311.384 467.209,319.02 C466.092,324.663 465.705,330.378 465.483,336.066 C464.967,349.325 462.38,362.199 458.82,375.088 C458.04,372.364 457.28,369.633 456.477,366.917 C452.493,353.448 446.38,340.902 439.819,328.551 C428.508,307.255 414.667,287.391 404.193,265.616 C403.143,263.431 402.444,261.142 400.451,259.277 C397.018,256.064 392.84,256.436 388.874,255.988 C380.151,255 371.427,254.027 362.706,253.029 C353.568,251.982 344.461,250.723 335.378,249.319 C325.39,247.775 315.448,245.927 305.578,243.719 C304.779,243.54 303.981,243.352 303.189,243.169 C302.934,242.034 303.911,241.913 304.46,241.568 C314.569,235.207 325.083,229.741 336.917,227.318 C348.808,224.883 360.047,226.344 370.373,233.074 C372.671,234.571 374.991,236.036 377.302,237.513 C378.456,238.249 379.853,239.037 380.974,238.075 C381.973,237.217 381.41,235.752 381.012,234.557 C378.987,228.473 374.895,223.873 370.01,220.034 C360.897,212.87 350.243,210.352 338.888,211.009 C330.131,211.516 321.749,213.934 313.707,217.482 C302.65,222.361 292.826,229.107 283.914,237.206 C282.736,238.277 281.698,238.044 280.527,237.684 C278.117,236.942 275.727,236.132 273.328,235.35 C272.707,234.636 271.74,234.589 270.985,234.128 C262.383,231.229 254.139,227.466 245.958,223.587 C225.564,213.916 205.966,202.808 187.181,190.295 C175.551,182.548 164.223,174.368 153.214,165.755 C152.167,164.936 151.13,164.092 150.441,162.915" fill="#424242"/>
    <path d="M75.002,201.874 C86.04,210.85 97.217,219.642 109.037,227.585 C134.861,244.94 161.975,259.747 191.618,269.596 C197.852,271.668 204.209,273.28 210.581,274.835 C213.023,275.432 215.605,275.281 217.23,273.214 C218.957,271.017 220.101,268.684 218.66,265.444 C215.909,259.259 211.708,254.121 207.682,248.86 C194.785,232.011 181.373,215.548 169.635,197.835 C169.156,197.113 168.429,196.491 168.325,194.988 C200.276,219.115 235.482,235.976 273.663,247.427 C271.915,249.682 270.285,251.725 268.72,253.818 C265.576,258.023 262.757,262.433 260.676,267.271 C260.055,268.716 259.537,270.221 259.149,271.743 C258.831,272.993 258.245,274.561 259.438,275.482 C260.741,276.488 261.966,275.239 262.978,274.496 C268.287,270.593 272.861,265.828 277.904,261.61 C281.287,258.78 284.714,256 288.081,253.15 C289.103,252.285 290.021,251.982 291.435,252.342 C318.816,259.312 346.68,263.461 374.734,266.49 C380.11,267.07 385.478,267.721 390.854,268.296 C391.728,268.389 392.382,268.509 392.81,269.441 C401.287,287.927 412.607,304.809 422.71,322.379 C430.834,336.508 438.582,350.82 443.997,366.263 C446.954,374.694 449.04,383.306 449.462,392.273 C449.568,394.521 449.883,396.753 450.944,398.792 C451.928,400.685 451.035,402.57 450.839,404.408 C449.559,416.413 447.61,428.281 443.448,439.699 C438.16,454.208 429.611,466.392 417.478,475.924 C402.626,487.594 387.648,499.107 371.602,509.13 C354.82,519.615 337.78,529.625 319.331,536.985 C318.404,537.355 317.516,537.82 316.477,537.755 C314.7,537.43 312.905,537.71 311.124,537.59 C310.644,537.56 309.876,537.88 309.933,536.89 C319.18,529.775 328.073,522.24 335.795,513.47 C340.686,507.915 340.79,501.195 338.329,494.714 C336.036,488.677 330.634,486.546 324.494,486.301 C316.697,485.99 309.333,488.086 302.18,490.851 C286.777,496.805 271.356,502.76 256.685,510.395 C246.041,515.935 236.496,522.95 229.262,532.745 C227.382,535.29 225.991,538.12 224.391,540.83 C222.971,541.245 221.779,540.46 220.572,540 C203.771,533.59 186.9,527.36 170.191,520.72 C155.135,514.735 141.881,505.92 130.887,493.954 C123.068,485.443 116.886,475.803 111.866,465.372 C101.374,443.572 96.352,420.28 92.75,396.581 C91.588,388.931 90.753,381.242 89.939,373.55 C89.868,372.88 89.817,372.222 90.137,371.598 C92.013,371.71 93.887,371.704 95.753,371.385 C96.175,371.677 96.469,372.08 96.709,372.52 C102.627,383.358 112.372,388.119 124.085,389.702 C135.89,391.297 147.444,389.398 158.968,387.115 C159.569,386.996 159.787,386.668 159.981,386.199 C160.836,385.641 161.741,385.953 162.649,385.98 C175.323,386.35 191.254,380.664 197.331,367.6 C200.929,359.865 200.594,352.015 198.501,343.95 C194.847,329.872 185.591,320.389 173.681,313.027 C165.536,307.993 156.555,305.219 147.108,304.165 C135.189,302.834 124.077,305.708 113.848,311.787 C98.76,320.755 90.228,334.082 87.934,351.487 C87.716,353.14 88.335,355.176 86.551,356.448 C85.632,355.809 85.519,354.768 85.276,353.818 C79.125,329.759 73.779,305.537 70.856,280.845 C69.26,267.365 68.224,253.829 68.742,240.25 C69.197,228.346 70.416,216.505 73.533,204.945 C73.831,203.84 73.922,202.614 75.002,201.874" fill="#FFDE98"/>
    <path d="M213.489,666.64 C212.85,661.6 212.2,656.565 211.582,651.525 C211.472,650.635 211.496,649.725 211.459,648.825 C213.51,648.08 214.41,646.225 215.414,644.545 C219.317,638.02 220.789,630.675 222.373,623.38 C222.915,620.885 223.378,618.37 223.878,615.865 C224.4,614.86 224.096,613.65 224.659,612.655 C225.995,604.435 228.439,596.475 230.302,588.38 C232.429,579.14 234.739,569.935 236.851,560.695 C240.299,545.6 249.206,534.815 262.353,527.18 C270.428,522.495 278.876,518.555 287.554,515.155 C296.561,511.625 304.953,506.815 313.795,502.955 C318.218,501.02 322.612,499.021 327.494,498.516 C329.083,500.715 328.792,504.86 326.91,506.95 C319.597,515.07 311.481,522.36 303.498,529.79 C298.87,534.1 294.107,538.275 289.854,542.975 C289.463,543.41 289.066,543.84 288.721,544.305 C287.826,545.52 286.721,546.86 287.634,548.37 C288.505,549.805 290.136,549.285 291.536,549.145 C298.312,548.45 305.048,547.075 311.914,547.855 C314.985,548.205 317.968,548.92 320.762,550.29 C325.017,552.375 325.945,554.61 324.528,559.2 C323.473,562.62 321.35,565.385 319.148,568.11 C317.475,570.18 315.69,572.175 314.217,574.385 C312.137,577.495 313.215,580.565 316.684,582.06 C316.836,582.125 316.977,582.23 317.135,582.27 C327.233,584.875 330.654,594.37 324.98,604.535 C323.44,607.29 321.712,609.78 322.68,613.225 C322.973,614.265 323.142,615.275 323.796,616.16 C325.529,618.5 327.222,620.87 328.986,623.185 C331.393,626.345 331.343,629.605 329.557,633 C327.012,637.835 323.067,641.42 318.878,644.725 C313.38,649.07 307.263,652.49 301.223,655.99 C286.709,664.405 273.955,675.015 262.13,686.815 C255.939,692.995 249.745,699.175 243.656,705.45 C242.2,706.95 241.459,706.805 239.964,705.41 C232.692,698.62 225.835,691.535 221.228,682.565 C219.137,678.49 217.428,674.27 215.762,670.015 C215.272,668.76 215.092,667.19 213.489,666.64" fill="#FFDE98"/>
    <path d="M41.965,168.899 C48.689,176.825 55.677,184.498 63.544,191.32 C64.654,192.283 64.804,193.078 64.203,194.498 C58.67,207.577 55.436,221.286 53.497,235.306 C51.232,251.684 51.743,268.175 52.065,284.626 C52.241,293.65 53.106,302.674 54.012,311.664 C55.059,322.042 56.38,332.393 57.826,342.73 C59.801,356.845 61.928,370.937 64.621,384.92 C67.629,400.544 70.838,416.146 75.212,431.47 C75.253,431.613 75.204,431.784 75.183,432.256 C71.046,428.143 66.903,424.327 63.116,420.186 C57.346,413.877 51.733,407.42 46.743,400.451 C41.899,393.686 37.419,386.702 33.415,379.4 C29.845,372.889 26.743,366.198 24.601,359.079 C24.487,358.699 24.487,358.284 24.434,357.885 C23.554,357.043 23.725,355.79 23.227,354.797 C23.054,354.158 22.798,353.548 22.62,352.91 C19.061,341.089 16.843,329.023 15.64,316.738 C14.795,308.121 14.187,299.475 14.292,290.847 C14.623,263.668 18.385,236.958 26.249,210.881 C30.315,197.398 35.083,184.172 40.547,171.194 C40.898,170.36 41.137,169.444 41.965,168.899" fill="#424242"/>
    <path d="M75.002,201.874 C72.546,211.106 70.814,220.488 70.12,230.003 C69.438,239.356 69.13,248.727 69.778,258.129 C70.241,264.832 70.653,271.531 71.377,278.215 C72.536,288.931 74.254,299.553 76.22,310.15 C79.035,325.322 82.632,340.31 86.432,355.255 C86.53,355.642 86.74,356 86.897,356.372 C87.754,357.135 87.56,358.206 87.696,359.171 C88.208,362.802 88.673,366.44 90.271,369.811 C90.516,370.327 90.771,370.882 90.463,371.479 C91.408,382.227 92.735,392.93 94.501,403.572 C97.019,418.746 100.332,433.739 105.477,448.272 C112.167,467.168 121.502,484.456 136.242,498.409 C147.467,509.035 160.602,516.525 174.997,521.97 C191.481,528.205 207.928,534.54 224.391,540.83 C224.142,542.705 223.076,542.385 221.695,542.035 C205.175,537.855 189.133,532.185 173.055,526.61 C160.477,522.25 148.244,517.225 137.016,509.935 C121.342,499.758 110.476,485.47 101.837,469.25 C92.16,451.082 86.284,431.555 81.492,411.663 C74.846,384.083 70.143,356.148 66.326,328.051 C63.12,304.444 61.121,280.755 61.54,256.914 C61.864,238.447 64.382,220.307 70.507,202.786 C71.908,198.781 71.931,198.789 75.002,201.874" fill="#FEFEFE"/>
    <path d="M473.453,141.374 C458.823,122.597 442.47,105.463 424.283,90.108 C388.737,60.096 348.903,38.394 303.219,28.251 C274.542,21.884 245.727,20.707 216.838,26.921 C203.361,29.82 190.519,34.446 178.56,41.387 C178.061,41.676 177.526,41.905 177.007,42.162 C176.644,42.209 176.578,42.091 176.809,41.806 C184.577,35.051 193.385,29.921 202.607,25.476 C224.134,15.099 246.934,10.642 270.744,11.207 C298.874,11.874 325.318,19.292 350.558,31.434 C378.646,44.947 403.096,63.554 425.64,84.864 C442.983,101.259 459.003,118.793 472.425,138.596 C472.934,139.348 473.4,140.131 473.886,140.9 C474.141,141.421 473.872,141.467 473.453,141.374" fill="#FEFEFE"/>
    <path d="M461.973,412.179 C462.449,407.266 462.914,402.724 463.316,398.177 C463.431,396.875 464.193,395.861 464.654,394.723 C470.759,379.638 473.408,363.776 475.307,347.742 C475.414,346.838 475.056,345.738 476.789,345.935 C481.85,346.508 486.829,347.33 491.451,349.607 C500.3,353.965 503.425,361.888 503.165,370.983 C502.87,381.415 498.125,389.665 490.528,396.591 C482.302,404.09 472.627,408.786 461.973,412.179" fill="#FFDE98"/>
    <path d="M54.874,89.949 C54.047,91.137 52.679,91.637 51.6,92.51 C42.927,99.525 40.579,108.794 42.206,119.346 C44.112,131.704 49.959,142.422 56.739,152.661 C69.282,171.601 84.86,187.867 101.593,203.094 C110.034,210.775 118.875,217.975 127.882,224.978 C127.975,225.396 127.931,225.665 127.409,225.409 C113.605,216.856 100.559,207.249 88.023,196.949 C72.295,184.025 57.541,170.108 45.19,153.84 C38.495,145.021 32.352,135.844 29.199,125.041 C27.954,120.776 27.422,116.436 27.828,111.979 C28.35,106.256 30.93,101.775 35.471,98.275 C40.627,94.302 46.463,91.823 52.656,90.075 C53.352,89.879 54.133,89.984 54.874,89.949" fill="#FEFEFE"/>
    <path d="M41.965,168.899 C41.719,171.266 40.429,173.254 39.56,175.387 C29.975,198.908 22.358,223.008 18.554,248.178 C13.258,283.226 13.641,318.07 22.924,352.523 C22.988,352.761 22.979,353.019 23.003,353.267 C23.233,353.754 23.01,353.897 22.552,353.861 C18.164,340.48 15.025,326.801 13.033,312.872 C11.016,298.759 10.189,284.567 10.499,270.3 C11.004,247.11 14.967,224.505 21.648,202.337 C25.74,188.76 30.55,175.446 36.291,162.131 C38.277,164.5 40.121,166.7 41.965,168.899" fill="#FEFEFE"/>
    <path d="M327.494,498.517 C326.643,499.728 325.208,499.37 324.061,499.711 C319.259,501.14 314.647,503.045 310.243,505.38 C296.783,512.51 282.328,517.46 268.779,524.385 C262.91,527.385 257.346,530.835 252.36,535.17 C244.331,542.155 239.878,551.135 237.397,561.335 C233.223,578.5 229.454,595.765 224.868,612.83 C224.704,613.015 224.533,613.01 224.357,612.85 C225.449,602.93 226.53,593.01 227.637,583.095 C228.429,575.99 229.014,568.86 229.726,561.75 C231.318,545.85 239.539,534.42 252.63,525.93 C262.657,519.43 273.589,514.835 284.582,510.35 C294.866,506.15 304.899,501.26 315.771,498.656 C319.629,497.733 323.567,496.732 327.494,498.517" fill="#FEFEFE"/>
    <path d="M169.926,37.46 C154.862,41.452 141.204,48.443 128.377,57.135 C119.994,62.816 112.031,69.042 104.894,76.267 C100.088,76.812 95.366,75.477 90.257,75.314 C92.752,72.848 95.187,70.317 97.752,67.925 C112.21,54.443 128.166,43.303 147.028,36.803 C155.225,33.978 163.647,32.192 172.343,31.869 C173.397,31.938 174.661,30.891 175.434,32.452 C173.598,34.122 171.762,35.791 169.926,37.46" fill="#FEFEFE"/>
    <path d="M60.856,429.717 C67.207,435.832 73.267,441.39 79.498,446.759 C79.862,447.073 80.209,447.502 80.363,447.947 C83.111,455.853 86.361,463.552 90.171,471.458 C80.797,471.216 72.658,468.721 67.049,461.348 C60.029,452.121 58.055,441.616 60.856,429.717" fill="#FFDE98"/>
    <path d="M150.441,162.915 C159.685,169.84 168.819,176.909 178.317,183.492 C207.15,203.475 237.613,220.447 270.237,233.452 C270.621,233.605 270.992,233.796 271.37,233.97 C271.444,234.4 271.394,234.693 270.852,234.433 C258.539,230.968 246.62,226.408 234.897,221.341 C206.666,209.139 180.589,193.463 157.277,173.279 C153.924,170.375 151.707,167.038 150.441,162.915" fill="#FEFEFE"/>
    <path d="M326.312,576.2 C331.721,570.3 336.937,564.44 336.485,555.79 C336.655,555.735 336.87,555.6 336.932,555.65 C341.201,559.155 345.98,561.75 351.066,563.87 C353.291,564.795 355.21,566.3 356.876,568.085 C357.808,569.085 357.91,570.05 357.085,571.185 C355.755,573.02 354.207,574.63 352.382,575.96 C347.883,579.245 343.082,582.035 338.122,584.565 C337.212,585.025 336.601,585.25 335.934,584.11 C333.728,580.345 330.55,577.665 326.312,576.2" fill="#FFDE98"/>
    <path d="M413.879,590.365 C402.79,584.535 390.687,581.82 378.654,578.885 C375.345,578.08 372.048,577.225 368.734,576.44 C367.993,576.265 367.25,576.19 366.807,575.465 C367.682,573.85 366.867,571.115 368.504,570.51 C369.897,569.99 371.945,571.25 373.706,571.715 C383.307,574.265 392.896,576.87 402.009,580.915 C406.738,583.015 411.084,585.7 414.448,589.74 C414.59,590.25 414.422,590.48 413.879,590.365" fill="#FEFEFE"/>
    <path d="M309.933,536.89 C312.001,538.04 314.41,536.605 316.477,537.755 C314.346,537.79 312.212,537.89 310.082,537.85 C308.757,537.825 309.152,537.34 309.933,536.89" fill="#80704A"/>
    <path d="M175.434,32.452 C174.541,31.529 173.324,32.319 172.342,31.869 C173.37,31.23 174.54,31.685 175.624,31.446 C175.904,31.385 176.346,31.417 176.145,31.89 C176.04,32.134 175.679,32.268 175.434,32.452" fill="#C3C3C3"/>
    <path d="M23.486,354.797 C24.083,355.74 24.251,356.815 24.434,357.885 C22.793,357.702 23.569,356.161 23.018,355.366 C23.157,355.163 23.184,354.867 23.486,354.797" fill="#DBDBDB"/>
    <path d="M270.852,234.433 C271.024,234.279 271.197,234.124 271.37,233.97 C272.069,234.363 273.395,233.867 273.328,235.35 C272.507,235.033 271.555,235.07 270.852,234.433" fill="#D7D7D7"/>
    <path d="M224.357,612.85 C224.527,612.845 224.698,612.835 224.868,612.83 C224.592,613.86 224.634,614.995 223.878,615.865 C223.941,614.845 223.707,613.775 224.357,612.85" fill="#FEF3DE"/>
    <path d="M473.453,141.374 C473.597,141.216 473.741,141.057 473.886,140.899 C474.374,141.557 474.861,142.214 475.349,142.87 C474.036,143.234 473.922,142.079 473.453,141.374" fill="#D4D4D4"/>
    <path d="M176.809,41.806 C176.999,41.856 177.065,41.974 177.007,42.162 C176.434,42.818 175.801,43.38 174.884,43.484 C175.18,42.528 175.921,42.083 176.809,41.806" fill="#BFBFBF"/>
    <path d="M127.409,225.409 C127.567,225.265 127.724,225.121 127.882,224.978 C128.482,225.421 129.084,225.865 129.685,226.308 C129.451,226.595 129.183,226.633 128.88,226.42 C128.31,226.2 127.757,225.954 127.409,225.409" fill="#D6D6D6"/>
    <path d="M413.879,590.365 C414.068,590.16 414.258,589.95 414.448,589.74 C415.116,590.145 415.629,590.69 415.992,591.38 C415.148,591.335 414.437,591.01 413.879,590.365" fill="#E7EEF5"/>
    <path d="M128.88,226.42 C129.148,226.383 129.417,226.346 129.685,226.308 C130.314,226.501 130.808,226.863 131.122,227.451 C130.124,227.654 129.536,226.963 128.88,226.42" fill="#C6C6C6"/>
    <path d="M23.486,354.797 C23.33,354.987 23.174,355.177 23.018,355.366 C22.862,354.865 22.707,354.363 22.552,353.861 C22.702,353.663 22.853,353.465 23.003,353.267 C23.471,353.68 23.467,354.242 23.486,354.797" fill="#ECECEC"/>
    <path d="M178.371,709.815 C182.225,701.8 186.076,693.78 189.937,685.765 C194.443,676.41 198.958,667.055 203.717,657.19 C204.333,659.195 204.809,660.715 205.262,662.24 C205.452,662.875 205.599,663.525 205.758,664.17 C206.568,667.465 208.484,670.985 207.868,673.99 C207.273,676.895 204.102,679.29 202.008,681.865 C194.303,691.345 186.577,700.81 178.859,710.275 C178.405,710.43 178.194,710.33 178.371,709.815" fill="#FEFEFE"/>
    <path d="M178.371,709.815 C178.533,709.97 178.697,710.125 178.859,710.275 C178.686,710.84 178.344,711.265 177.657,711.605 C177.448,710.77 177.921,710.3 178.371,709.815" fill="#D2E8FD"/>
    <path d="M275.869,347.427 C273.983,347.079 273.825,345.367 273.402,344.038 C271.39,337.704 271.397,331.218 272.638,324.781 C277.527,299.414 299.177,279.036 324.764,275.359 C342.142,272.861 358.262,275.751 372.429,286.487 C381.895,293.66 389.182,302.454 392.047,314.479 C396.062,331.335 389.399,346.467 373.952,354.41 C365.494,358.759 356.524,360.753 346.997,360.018 C345.95,360.414 344.901,360.388 343.809,360.164 C330.856,357.517 322.056,349.909 317.092,337.76 C315.056,332.775 313.9,327.486 313.901,322.175 C313.903,312.336 316.612,303.245 323.388,295.762 C326.642,292.168 330.214,288.923 335.037,286.921 C323.078,287.363 312.293,290.63 302.597,297.234 C290.375,305.557 283.182,317.315 279.539,331.429 C278.433,335.712 278.115,340.13 277.508,344.497 C277.35,345.637 277.525,347.077 275.869,347.427" fill="#000000"/>
    <path d="M90.463,371.479 C87.58,366.844 87.349,361.582 86.898,356.372 C87.429,343.108 91.547,331.1 100.836,321.525 C117.223,304.634 136.989,299.223 159.646,306.158 C174.076,310.576 186.032,318.727 194.08,331.768 C198.565,339.036 201.074,347.158 200.684,355.712 C200.029,370.085 191.784,380.064 177.758,384.363 C172.01,386.126 166.17,387.283 160.105,386.529 C158.997,387.232 157.857,386.904 156.717,386.639 C145.956,384.147 138.469,377.691 134.895,367.337 C129.963,353.051 131.329,339.442 140.78,327.137 C142.417,325.005 144.41,323.255 146.484,321.567 C148.566,319.872 150.902,318.601 153.368,317.151 C149.495,315.933 145.589,315.704 141.79,315.798 C129.365,316.108 118.939,321.319 110.175,329.887 C103.775,336.142 100.292,343.994 98.617,352.717 C97.736,357.309 97.522,361.966 97.052,366.599 C96.879,368.304 96.937,370.137 95.368,371.369 C93.767,372.914 92.132,372.965 90.463,371.479" fill="#000000"/>
    <path d="M95.367,371.369 C96.696,367.701 96.605,363.835 96.837,360.033 C98.157,338.369 111.719,321.654 132.539,316.255 C140.121,314.288 147.658,314.875 155.632,316.956 C146.813,320.839 140.559,326.751 136.589,335.018 C130.041,348.652 132.367,367.44 141.89,377.671 C146.814,382.961 153.03,385.63 160.102,386.529 C160.301,386.663 160.576,386.754 160.68,386.941 C161.141,387.767 160.305,387.348 160.149,387.387 C155.161,388.636 150.108,389.608 145.009,390.197 C136.157,391.219 127.289,391.531 118.527,389.374 C108.142,386.817 100.082,381.236 95.367,371.369" fill="#FEFEFE"/>
    <path d="M275.868,347.427 C277.425,345.332 277.044,342.794 277.282,340.464 C279.949,314.362 296.911,292.405 325.811,287.112 C329.389,286.457 332.997,286.096 337.303,286.465 C328.147,290.611 321.748,296.814 317.922,305.501 C314.088,314.207 313.846,323.204 316.008,332.352 C319.602,347.56 331.257,357.961 346.996,360.018 C345.017,361.518 342.583,361.267 340.35,361.575 C323.405,363.914 306.507,364.474 289.91,359.28 C285.765,357.983 281.946,356.005 278.887,352.747 C277.423,351.19 276.282,349.538 275.868,347.427" fill="#FEFEFE"/>
    <path d="M113.94,263.965 C101.408,263.731 91.646,269.032 84.1,278.815 C82.273,281.183 80.787,283.815 78.607,285.911 C77.86,286.629 77.058,287.291 75.968,286.893 C74.939,286.517 74.932,285.481 74.819,284.585 C74.338,280.798 74.802,277.097 76.106,273.537 C81.328,259.28 91.787,251.182 106.442,248.428 C121.86,245.529 136.119,249.371 149.621,256.704 C160.805,262.778 170.478,270.645 177.884,281.109 C178.988,282.67 179.934,284.332 180.616,286.132 C181.008,287.168 181.392,288.319 180.615,289.2 C179.867,290.048 178.712,289.598 177.772,289.334 C176.005,288.84 174.4,287.961 172.811,287.05 C161.579,280.615 150.604,273.702 138.423,269.065 C130.512,266.054 122.425,264.028 113.94,263.965" fill="#000000"/>
    <path d="M231.363,471.648 C223.946,471.642 217.714,471.491 211.616,469.888 C209.756,469.4 207.97,468.744 206.357,467.688 C205.331,467.016 204.581,466.16 204.878,464.79 C205.175,463.423 206.175,463.013 207.415,462.798 C211.387,462.11 215.396,462.451 219.381,462.411 C249.979,462.1 279.41,455.903 307.949,445.089 C309.882,444.357 311.792,443.503 313.893,443.306 C314.931,443.208 315.923,443.288 316.552,444.259 C317.228,445.302 316.95,446.326 316.331,447.287 C314.849,449.589 312.696,451.159 310.421,452.561 C301.487,458.067 291.584,461.143 281.609,464.063 C264.818,468.978 247.65,471.27 231.363,471.648" fill="#000000"/>
    <path d="M197.9,394.98 C197.872,390.561 199.058,387.358 201.782,384.655 C204.646,381.812 207.712,379.156 211.34,377.512 C218.1,374.448 220.325,368.86 220.907,362.105 C221.006,360.946 221.169,359.792 221.333,358.639 C221.49,357.545 221.709,356.347 222.972,356.105 C224.154,355.877 224.946,356.787 225.621,357.644 C228.003,360.665 228.728,364.246 228.805,367.949 C228.964,375.509 225.754,381.434 219.693,385.855 C217.007,387.815 214.183,389.598 211.59,391.671 C209.15,393.622 209.203,394.168 211.152,396.531 C213.398,399.253 216.353,401.188 218.943,403.528 C221.54,405.874 221.874,407.775 220.392,410.325 C219.536,411.798 218.264,412.369 216.647,412.291 C209.943,411.969 200.204,404.222 198.317,397.767 C197.984,396.626 197.88,395.484 197.9,394.98" fill="#000000"/>
    <path d="M355.314,341.549 C355.346,347.567 349.807,352.3 342.726,352.306 C336.706,352.311 332.124,347.44 331.982,340.881 C331.844,334.546 336.992,329.497 343.617,329.469 C350.038,329.442 355.279,334.855 355.314,341.549" fill="#FEFEFE"/>
    <path d="M147.335,369.811 C147.312,363.517 151.978,358.578 157.896,358.632 C163.164,358.68 167.186,363.398 167.173,369.512 C167.16,375.608 162.654,379.869 156.208,379.883 C150.766,379.894 147.357,376.025 147.335,369.811" fill="#FEFEFE"/>
  </g>
</svg>
