<svg id="publicdomainvectors.org" xmlns="http://www.w3.org/2000/svg" viewBox="0 0 660 660"><defs><style>.cls-1{fill:#eff7c3;}.cls-2{fill:#fff;}.cls-10,.cls-11,.cls-12,.cls-13,.cls-2,.cls-3,.cls-5,.cls-6,.cls-7,.cls-8,.cls-9{fill-rule:evenodd;}.cls-3{fill:#cede76;}.cls-4{fill:#b4c45a;}.cls-5{fill:#82970a;}.cls-6{fill:#97a836;}.cls-7{fill:#ddd499;}.cls-8{fill:#dbd3af;}.cls-9{fill:#546300;}.cls-10{fill:#874610;}.cls-11{fill:#572b06;}.cls-12{fill:#94ab13;}.cls-13{fill:#a7bf1c;}</style></defs><title>background in progress</title><rect class="cls-1" x="0.88" y="0.14" width="658.86" height="658.86"/><path class="cls-2" d="M89.86,97a13.7,13.7,0,0,1,7.49,2.22,25.86,25.86,0,0,1,43.19-4.84,17,17,0,0,1,5.32-.85,17.16,17.16,0,0,1,13.69,6.8,24.26,24.26,0,0,1,41.57-3.84,17.25,17.25,0,0,1,22.4,2.55,20.11,20.11,0,0,1,32.12-.82,16.27,16.27,0,0,1,21.76.82,14.82,14.82,0,0,1,23.78,9.51l44.61,2.17-44.61,2.18a14.82,14.82,0,0,1-23.78,9.51,16.29,16.29,0,0,1-21.76.82,20.11,20.11,0,0,1-32.12-.82,17.25,17.25,0,0,1-22.4,2.55,24.27,24.27,0,0,1-41.57-3.84,17.21,17.21,0,0,1-19,6,25.86,25.86,0,0,1-43.19-4.84,13.73,13.73,0,0,1-21-9.33l-44.62-2.18,44.62-2.17A13.72,13.72,0,0,1,89.86,97Z"/><path class="cls-2" d="M352.19,174.1a7.92,7.92,0,0,0-4.3,1.27A14.88,14.88,0,0,0,323,172.59a9.66,9.66,0,0,0-3.06-.49A9.91,9.91,0,0,0,312.1,176a14,14,0,0,0-23.91-2.21,9.95,9.95,0,0,0-12.89,1.47,11.56,11.56,0,0,0-18.47-.47,9.38,9.38,0,0,0-12.52.47,8.52,8.52,0,0,0-13.68,5.47L205,182l25.66,1.25a8.52,8.52,0,0,0,13.68,5.47,9.35,9.35,0,0,0,12.52.47,11.56,11.56,0,0,0,18.47-.47,9.91,9.91,0,0,0,12.89,1.47A14,14,0,0,0,312.1,188,9.92,9.92,0,0,0,323,191.4a14.88,14.88,0,0,0,24.85-2.79,7.89,7.89,0,0,0,12.1-5.37L385.66,182,360,180.74A7.89,7.89,0,0,0,352.19,174.1Z"/><path class="cls-3" d="M659.74,265v53.74a28.48,28.48,0,0,1-18-18.9,17.15,17.15,0,0,1-24.53,2.25,20.41,20.41,0,0,1-28.43,3.9,16.26,16.26,0,1,1-7.27-22.43,20.44,20.44,0,0,1,35.19-7,17.16,17.16,0,0,1,26.39,3.71A28.5,28.5,0,0,1,659.74,265ZM.88,325.8V275.23a26.88,26.88,0,0,1,32.53,12.53,23.23,23.23,0,0,1,18.81-9.59,23.5,23.5,0,0,1,6.7,1,26.19,26.19,0,0,1,42.18-5.43,22.39,22.39,0,0,1,23-2.33,18.23,18.23,0,0,1,25.15,8.46A18.51,18.51,0,0,1,171.93,289,20.76,20.76,0,0,1,205,284.42a24.27,24.27,0,0,1,44.85-.39,13.26,13.26,0,0,1,21.23,3.26A22.34,22.34,0,0,1,295,276a27.69,27.69,0,0,1,53.38,5.78,25.86,25.86,0,0,1,35.9-3.86,18.71,18.71,0,0,1,16.35-3.35,22.51,22.51,0,1,1,3.24,35,18.7,18.7,0,0,1-8.05,1.81,18.91,18.91,0,0,1-4.85-.63,25.86,25.86,0,0,1-48.14-8.07,27.69,27.69,0,0,1-33.73,8,22.35,22.35,0,0,1-40.24-8.16,13.25,13.25,0,0,1-18.9.21,24.25,24.25,0,0,1-41.41,5.84,20.76,20.76,0,0,1-37.44-1.49,18.52,18.52,0,0,1-32.7-2.38,18.07,18.07,0,0,1-5.68.91l-.81,0a22.32,22.32,0,0,1-30.81,3.83,26.18,26.18,0,0,1-30.22,5.86,23.26,23.26,0,0,1-38-1,26.83,26.83,0,0,1-32,11.53Zm476.8-52.09a16.49,16.49,0,1,1-16.49,16.49A16.49,16.49,0,0,1,477.68,273.71Z"/><rect class="cls-4" x="0.88" y="291.26" width="658.86" height="367.74"/><path class="cls-5" d="M242.21,394.43a19.79,19.79,0,1,1-19.79,19.79,19.79,19.79,0,0,1,19.79-19.79ZM.88,396.55V341.73a32.18,32.18,0,0,1,49,27.41v.45a22.63,22.63,0,0,1,24.15-3.94,27.77,27.77,0,0,1,50.69,15.69c0,.15,0,.3,0,.45a24.25,24.25,0,0,1,2.56-.13,25.48,25.48,0,0,1,13,3.57,29.38,29.38,0,1,1,9.29,34.39,25.54,25.54,0,0,1-47.81-10.93,27.84,27.84,0,0,1-21.71-5.29A22.66,22.66,0,0,1,42.6,389.56a32.2,32.2,0,0,1-41.72,7Z"/><polygon class="cls-6" points="0.88 380.64 659.74 439.38 659.74 659 0.88 659 0.88 380.64"/><polygon class="cls-7" points="0.88 553.02 273.4 404.94 438.72 419.68 274.13 659 0.88 659 0.88 553.02"/><polygon class="cls-8" points="318.93 409 510.35 291.26 553.76 291.26 455.62 421.18 318.93 409"/><path class="cls-9" d="M430.7,198.37c11.14,0,21,1.87,27.38,4.76,8.8-5.58,23.21-9.23,39.5-9.23,26.79,0,48.52,9.86,48.52,22,0,3.78-2.11,7.35-5.82,10.46,16.09,2.48,28.16,12.86,28.16,25.29,0,14.28-15.93,25.86-35.59,25.86-12.07,0-22.73-4.37-29.17-11-9.24,6.59-22.5,10.72-37.23,10.72-15.34,0-29.08-4.48-38.36-11.56a52.58,52.58,0,0,1-21,4.22c-22.3,0-40.38-12.94-40.38-28.89,0-13.4,12.74-24.66,30-27.93a4.83,4.83,0,0,1-.66-2.4C396.07,203.87,411.57,198.37,430.7,198.37Z"/><path class="cls-10" d="M547.86,530.81l-11-132.7a182.6,182.6,0,0,0-4.46-28.31c38.42-37.17,69.28-79.66,79.09-137l-8.94-4.15c-16.07,55.68-43.94,92-76.46,120.82q-2.42-6.36-5.41-12.84l-13.68-29.62a207,207,0,0,1-19.18-72l-7.07-79.82-16.25,3.83,4.52,90.58a205.61,205.61,0,0,0,8.14,49L469,296.88c-38.44-8.66-67.88-32.27-84.68-67.91l-5.85-12.4L374.68,221l5.13,14.21c13.69,37.87,41.78,64.56,80.3,76.29l23,7,6.87,23A173.77,173.77,0,0,1,496.76,411L485.3,530.86c-2.42,25.37-19.39,45.37-43.67,53.12l-13,4.15c-13,13.73,189.83,19.16,169.82,0l-7.05-2.29C566.6,577.78,550,556.8,547.86,530.81Z"/><path class="cls-11" d="M596.52,282.66a209.8,209.8,0,0,0,15-49.81l-8.94-4.15a259.8,259.8,0,0,1-23.48,56.53,148,148,0,0,0,17.4-2.57Zm-100.36-3.84a210.43,210.43,0,0,1-8.29-43.72l-7.07-79.82-16.25,3.83,4.52,90.58a206.43,206.43,0,0,0,5.66,39.75,141.55,141.55,0,0,0,21.43-10.62ZM459.8,294.45c-33.92-10.17-60-32.75-75.44-65.48l-5.85-12.4L374.68,221l5.13,14.21c10.17,28.13,28.28,50.09,52.72,64.34A161.57,161.57,0,0,0,459.8,294.45Z"/><path class="cls-12" d="M383.16,220.55c4.73,4.63,7.43,10,7.43,15.73,0,17.5-25.22,31.68-56.32,31.68S278,253.78,278,236.28c0-13.88,15.88-25.68,38-30-5.32-5.4-8.41-11.78-8.41-18.61,0-19.34,24.65-35,55.15-35.2a23.94,23.94,0,0,1-2.35-10.21c0-18.34,22-34,53-40a9.37,9.37,0,0,1-1.57-5.08c0-8,11-14.43,24.63-14.43S461,89.28,461,97.25a8.84,8.84,0,0,1-.79,3.64c33.42,4.21,58.79,19.32,61.74,37.8a96,96,0,0,1,21.41-2.37c33.83,0,61.24,16.86,61.24,37.66a24.19,24.19,0,0,1-1.91,9.37c29.87,3.18,52.6,19.36,52.6,38.85,0,21.77-28.37,39.42-63.36,39.42S528.56,244,528.56,222.2a25.92,25.92,0,0,1,2.65-11.3,82.21,82.21,0,0,1-26.08-7.49c-12.8,4.67-29.34,7.49-47.4,7.49-17.14,0-32.9-2.53-45.39-6.78C406.1,211.6,395.74,217.48,383.16,220.55Z"/><path class="cls-13" d="M341.64,215.93c14.55,0,26.33,8.57,26.33,19.15s-11.78,19.15-26.33,19.15-26.33-8.57-26.33-19.15,11.79-19.15,26.33-19.15Zm233.67-26.5c12.43,0,22.5,5.93,22.5,13.25,0,2.93-1.61,5.63-4.35,7.83,15.37,1.68,27,9.68,27,19.3,0,10.84-14.79,19.63-33,19.63s-33-8.79-33-19.63c0-6,4.57-11.42,11.77-15-7.88-2.06-13.37-6.71-13.37-12.11,0-7.32,10.08-13.25,22.51-13.25Zm-88.59-41.18c18,0,32.56,7.86,32.56,17.56s-14.57,17.56-32.56,17.56a52.76,52.76,0,0,1-19.55-3.52c-4.83,9.43-19.62,16.29-37.11,16.29-10.54,0-20.11-2.5-27.1-6.55a9.51,9.51,0,0,1,.13,1.6c0,9.61-13.36,17.4-29.85,17.4s-29.84-7.79-29.84-17.4,13.36-17.4,29.84-17.4A44.64,44.64,0,0,1,392,177.67a14.14,14.14,0,0,1-.75-4.52c0-10.06,10.9-18.6,26.09-21.72a16.57,16.57,0,0,1-2.47-8.6c0-12.17,13.93-22,31.12-22s31.13,9.86,31.13,22a16.17,16.17,0,0,1-1.36,6.44A57.87,57.87,0,0,1,486.72,148.25Z"/><path class="cls-2" d="M574.59,35.33a15.37,15.37,0,0,0-8.42,2.5,29.08,29.08,0,0,0-48.57-5.45,19.35,19.35,0,0,0-21.39,6.69,27.29,27.29,0,0,0-46.75-4.31,19.39,19.39,0,0,0-25.2,2.87,22.63,22.63,0,0,0-36.13-.93,18.33,18.33,0,0,0-24.47.92,16.67,16.67,0,0,0-26.75,10.7l-50.17,2.45,50.17,2.44a16.67,16.67,0,0,0,26.75,10.7,18.3,18.3,0,0,0,24.47.92,22.63,22.63,0,0,0,36.13-.93,19.41,19.41,0,0,0,25.2,2.88,27.29,27.29,0,0,0,46.75-4.32,19.35,19.35,0,0,0,21.39,6.69,29.07,29.07,0,0,0,48.57-5.44,15.46,15.46,0,0,0,23.67-10.5L640,50.77l-50.19-2.45A15.45,15.45,0,0,0,574.59,35.33Z"/></svg>