<svg id="Publicdomainvectors.org" xmlns="http://www.w3.org/2000/svg" viewBox="0 0 600 600"><defs><style>.cls-1{fill:#7c7299;}.cls-2{fill:#ece4f1;}.cls-10,.cls-11,.cls-14,.cls-2,.cls-3,.cls-4,.cls-5,.cls-6,.cls-7,.cls-8{fill-rule:evenodd;}.cls-3{fill:#c3b6da;}.cls-4{fill:#9388b3;}.cls-5{fill:#6d638b;}.cls-6{fill:#645983;}.cls-12,.cls-7{fill:#a99dc8;}.cls-8{fill:#5e5380;}.cls-9{fill:#554c71;}.cls-10,.cls-13{fill:#292538;}.cls-11{fill:#4a4064;}.cls-14{fill:#38304d;}</style></defs><title>background at night2</title><rect class="cls-1" x="0.89" y="0.25" width="599.75" height="599.75"/><path class="cls-2" d="M394.69,251.09A63.7,63.7,0,1,0,331,187.39,63.82,63.82,0,0,0,394.69,251.09Z"/><path class="cls-3" d="M348.16,189.23a9.09,9.09,0,1,1-9.08,9.08,9.08,9.08,0,0,1,9.08-9.08Zm86.2,3.16A11.32,11.32,0,1,1,423,203.71a11.32,11.32,0,0,1,11.32-11.32ZM392.78,216A14.08,14.08,0,1,1,378.69,230,14.08,14.08,0,0,1,392.78,216Zm-5-26.45A9.48,9.48,0,1,1,378.3,199a9.47,9.47,0,0,1,9.48-9.47ZM419,147.65a17.77,17.77,0,1,1-17.76,17.76A17.76,17.76,0,0,1,419,147.65Zm-23.82-11.58a4.47,4.47,0,1,1-4.47,4.47,4.47,4.47,0,0,1,4.47-4.47Zm-26.45,13.68a7.77,7.77,0,1,1-7.76,7.77A7.77,7.77,0,0,1,368.69,149.75Z"/><path class="cls-4" d="M600.63,420.68h-104c-3.86-7.46-13-9.11-38.38,0H130c-19.7-6.38-37.51-3.88-57,0H.89V376.74c27.35-24,76.59-45.38,87-48.77,31.81-10.3,80.36-11.31,109,16.29s23.62,31.67,59.68,30.54c25.31-1.27,29.44-2.13,46.28-33,17.3-32.47,69.44-24,92.56-23.58,24.55.47,49.09,1.25,73.64,2.12,11.21.4,36.09-2.2,44.24,11,13.77,22.28,4.9,32.58,35.23,36.52,15.4,2,34.08.48,52.1-1.27Z"/><path class="cls-5" d="M600.63,49.73v51.08c-38.17,12.48-106,31-131.68,22.5-55-22.65,19-63.27-105.53-26.18-22.42,7.05-77,32.46-96.92,28.75-36.77-10.14-.72-29.62-79.53-19-40.49,5.25-54.87,4.72-92.66-8.31C60.23,86.78,34,92.24.89,96.83V47.39c14.5-4.61,26.66-7.86,31.27-8.86,31.8-6.85,80.35-8.47,109,7.5,28.47,15.89,23.61,18.52,59.67,17.09,25.32-1.29,29.45-1.89,46.28-20.78,17.3-19.87,69.44-15.88,92.57-16.11C364.21,26,388.75,26,413.29,26c11.21,0,36.09-2.07,44.24,5.67,13.77,13.1,4.9,19.46,35.23,21.19,24.39,1.4,57-2.68,82.21-4.08A175.75,175.75,0,0,1,600.63,49.73Z"/><path class="cls-6" d="M.89.25h104c3.86,6.21,13,7.58,38.39,0H471.54c19.7,5.31,37.51,3.23,57,0h72V36.79c-27.35,20-76.59,37.74-87,40.55-31.8,8.57-80.35,9.41-109-13.54S381,37.47,344.93,38.4c-25.31,1.06-29.44,1.77-46.27,27.44-17.3,27-69.44,20-92.57,19.61-24.54-.39-49.09-1-73.63-1.77-11.21-.33-36.09,1.83-44.24-9.13C74.45,56,83.32,47.46,53,44.18c-15.4-1.66-34.08-.4-52.1,1.06Z"/><path class="cls-7" d="M338.73,414.25l4.95-24c4.61-22.37,21-39.85,42-44.78,33.83-7.92,56.67-35.14,64.11-71.21C458.25,233.23,496,203,535.39,203c26,0,49.69,12.72,65.24,33.16V414.25Z"/><path class="cls-7" d="M.89,438.15V230.88c1.88-.93,3.8-1.8,5.77-2.58A66.88,66.88,0,0,1,66,233.12c18.06,10.82,34.15,29.51,37.41,50.88A68.77,68.77,0,0,0,127,326.39c15.29,12.82,33.42,12.82,48.7,0A43,43,0,0,1,215,317.74a44.86,44.86,0,0,1,29.85,27.86,276.23,276.23,0,0,1,14,54.34l2,13.42Z"/><path class="cls-8" d="M.89,414.25v-176q2.82-1.35,5.77-2.49a69.1,69.1,0,0,1,93,53.71,65.78,65.78,0,0,0,23.6,40.87,41.66,41.66,0,0,0,52.4,0,44.25,44.25,0,0,1,69.14,18.53,258.61,258.61,0,0,1,14,52.4l2,12.94Z"/><rect class="cls-9" x="0.89" y="414.25" width="599.75" height="185.75"/><polygon class="cls-10" points="268.36 414.25 333.16 414.25 486.13 498.23 600.63 561.09 600.63 600 0.89 600 0.89 561.09 115.38 498.23 268.36 414.25"/><path class="cls-11" d="M.89,414.25V330.9q2.82-.64,5.77-1.19C26.13,326.17,47.93,327,66,331.92s30.45,13.48,33.7,23.24c2.54,7.61,11,14.51,23.6,19.36,15.28,5.86,37.12,5.86,52.4,0,11-4.22,25.61-5.69,39.29-3.95s24.77,6.47,29.85,12.73a79.55,79.55,0,0,1,14,24.82l2,6.13Z"/><path class="cls-8" d="M338.73,414.25l4.95-22.48a55.11,55.11,0,0,1,42-42,88.84,88.84,0,0,0,67.69-67.69,84,84,0,0,1,147.26-34.85v167Z"/><path class="cls-11" d="M338.73,414.25,343.68,403c4.61-10.49,21-18.69,42-21,33.83-3.72,60.25-16.93,67.69-33.84,8.46-19.26,42.59-33,82-33,26,0,49.69,6,65.24,15.55v83.51Z"/><rect class="cls-12" x="73.21" y="370.77" width="13.84" height="119.58"/><rect class="cls-13" x="71.52" y="370.77" width="13.83" height="119.58"/><path class="cls-7" d="M83.87,421.8c28.9,0,52.46-39,52.46-86.78s-23.56-86.79-52.46-86.79-52.46,39-52.46,86.79S55,421.8,83.87,421.8Z"/><path class="cls-14" d="M78.43,425.76c28.9,0,52.47-39,52.47-86.79s-23.57-86.78-52.47-86.78S26,291.17,26,339,49.54,425.76,78.43,425.76Z"/><path class="cls-7" d="M60.54,474.42c7.39-12.81,23-17,35.15-9.49,8.7,5.37,13.42,15.33,13,25.41H19.05l1.61-3.3a14.34,14.34,0,0,1,8.89-7.63,13.35,13.35,0,0,1,11.26,1.85A12.59,12.59,0,0,0,51.43,483a13.5,13.5,0,0,0,8.37-7.19C60,475.34,60.28,474.88,60.54,474.42Z"/><path class="cls-10" d="M60.54,475.47a26,26,0,0,1,48.13,14.87H19.05l1.61-3.08a14.14,14.14,0,0,1,20.15-5.4,13.34,13.34,0,0,0,19-5.09C60,476.32,60.28,475.89,60.54,475.47Z"/><rect class="cls-12" x="508.18" y="368.92" width="10.97" height="94.85"/><rect class="cls-13" x="509.53" y="368.92" width="10.97" height="94.85"/><path class="cls-7" d="M510.7,409.4c22.92,0,41.62-30.93,41.62-68.84s-18.7-68.84-41.62-68.84-41.61,30.92-41.61,68.84S487.78,409.4,510.7,409.4Z"/><path class="cls-14" d="M515,412.53c22.92,0,41.62-30.92,41.62-68.83s-18.7-68.85-41.62-68.85S473.4,305.78,473.4,343.7,492.09,412.53,515,412.53Z"/><path class="cls-7" d="M529.2,451.14C523.35,441,511,437.63,501.33,443.6A22.48,22.48,0,0,0,491,463.77h71.09l-1.28-2.62a11.39,11.39,0,0,0-7.05-6.06,10.62,10.62,0,0,0-8.94,1.47,10,10,0,0,1-8.41,1.39,10.73,10.73,0,0,1-6.65-5.71C529.61,451.86,529.41,451.5,529.2,451.14Z"/><path class="cls-10" d="M529.2,452A20.63,20.63,0,0,0,491,463.77h71.09l-1.28-2.45a11.23,11.23,0,0,0-16-4.29,10.57,10.57,0,0,1-15.06-4C529.61,452.64,529.41,452.3,529.2,452Z"/><path class="cls-14" d="M147.72,429.27a26,26,0,0,1,48.13,14.88H106.23l1.61-3.09a14.14,14.14,0,0,1,20.15-5.4,13.34,13.34,0,0,0,19-5.09C147.22,430.12,147.46,429.69,147.72,429.27Z"/><path class="cls-14" d="M441,416.17a18.21,18.21,0,0,1,33.7,10.41H412l1.12-2.16a9.89,9.89,0,0,1,14.11-3.78,9.35,9.35,0,0,0,13.3-3.56C440.69,416.77,440.86,416.46,441,416.17Z"/></svg>