<svg id="artwork" xmlns="http://www.w3.org/2000/svg" viewBox="0 0 2000 2000"><defs><style>.cls-1{fill:#efd078;}.cls-2{fill:#e5c065;}.cls-3{fill:#d1ab59;}.cls-4{fill:#d6af58;}.cls-5{fill:#c49562;}.cls-6{fill:#b58759;}</style></defs><title>licensed</title><path class="cls-1" d="M1695.76,1942.25a51.9,51.9,0,0,1-51.9,51.9H275.09a51.91,51.91,0,0,1-51.91-51.9V774.58a51.91,51.91,0,0,1,51.91-51.9H1643.86a51.9,51.9,0,0,1,51.9,51.9Z"/><path class="cls-2" d="M1695.76,1565v373.38a51.9,51.9,0,0,1-51.9,51.9H275.09a51.91,51.91,0,0,1-51.91-51.9V1641.72c11,26.1,21.42,52.78,32.71,78.59,25.94-34.6,23.07-83.62,31.72-124,25.95,34.6,43.24,77.85,57.66,118.22,11.54-37.48,11.54-80.74,20.18-118.22,20.19,31.72,31.72,75,51.91,109.56,8.64-28.82,17.29-63.42,20.17-92.26,20.19,26,28.84,66.32,40.37,98,17.3-37.49,20.18-83.62,28.84-124,23.06,37.48,37.48,83.61,60.54,121.1,14.42-34.6,8.65-77.85,20.19-115.33,17.3,40.36,23.06,89.38,46.13,126.87,14.42-40.37,8.65-92.27,20.19-135.52,31.71,40.36,43.24,95.15,63.42,141.28,5.77-31.71,11.54-63.43,23.07-92.27,20.19,34.61,28.84,77.86,49,112.46,17.3-40.38,17.3-89.39,34.6-129.75,23.06,31.71,28.83,75,49,109.56,11.53-37.48,20.18-86.5,40.36-121.1,17.3,37.49,26,83.62,49,118.22,8.65-37.48,5.76-75,20.18-112.45,20.19,37.48,17.3,86.5,46.13,121.09,20.19-40.36,26-86.49,43.25-126.86,14.42,37.49,23.07,80.74,43.25,115.34,8.65-40.37,17.3-80.74,37.49-118.22,8.65,43.25,14.41,89.38,40.36,126.86,14.42-49,26-98,46.14-144.16,14.41,46.13,17.3,95.15,43.24,135.52,11.54-46.14,11.54-98,31.72-141.29,14.42,46.13,8.65,98,31.72,141.29,17.3-46.14,34.59-92.27,49-138.4,23.07,49,14.42,109.56,43.25,152.81,14.42-46.13,28.83-92.26,43.25-141.28,8.65,46.13,2.88,100.92,23.07,144.17,17.3-40.37,26-95.15,37.48-138.4,20.19,43.25,17.3,95.15,40.37,141.28,11.53-49,14.41-100.92,26-149.93,2.88,37.48,8.65,75,17.3,109.56,20.18-66.32,20.18-141.28,46.13-201.83C1681.09,1507,1689.07,1532,1695.76,1565Z"/><path class="cls-3" d="M1695.76,1148V774.58a51.9,51.9,0,0,0-51.9-51.9H275.09a51.91,51.91,0,0,0-51.91,51.9v296.65c11-26.1,21.42-52.78,32.71-78.59,11.17,47.57,20.9,93,38.2,131.91,14.06-43.25,36.76-85.78,51.18-126.14,11.54,37.48,19.1,89.74,27.75,127.22,14.06-34.6,24.15-84,44.34-118.57,8.64,28.83,18.38,72.08,30.27,99.11,9.73-26,18.74-73.16,30.27-104.88,17.3,37.48,28.12,85.06,36.77,125.43,11.89-40,29.55-85.06,52.61-122.54,14.42,34.59,18,78.56,29.56,116.05,17.3-40.37,13.69-90.1,36.76-127.59,20.38,57.06,22.83,101,31.36,133,17.3-42.17,32.07-92.62,52.25-138.75,5.77,31.71,24.88,89.38,36.41,118.21,20.18-34.6,28.11-101.64,35.68-138.4,17.3,40.37,17.3,89.39,34.6,129.75,23.06-31.72,28.83-75,49-109.56,11.53,37.48,20.18,86.5,40.36,121.09,17.3-37.48,26-83.61,49-118.21,8.65,37.48,5.76,75,20.18,112.45,20.19-37.49,17.3-86.5,46.13-121.1,20.19,40.36,26,86.5,43.25,126.86,14.42-37.48,23.07-80.73,43.25-115.33,8.65,40.37,17.3,80.74,37.49,118.22,8.65-43.25,14.41-89.39,40.36-126.87,14.42,49,26,98,46.14,144.17,14.41-46.14,17.3-95.15,43.24-135.52,11.54,46.13,11.54,98,31.72,141.28,14.42-46.13,8.65-98,31.72-141.28,17.3,46.13,34.59,92.27,49,138.4,23.07-49,14.42-109.57,43.25-152.81,14.42,46.13,28.83,92.26,43.25,141.28,8.65-46.13,2.88-100.92,23.07-144.17,17.3,40.37,26,95.15,37.48,138.4,20.19-43.25,17.3-95.15,40.37-141.28,11.53,49,14.41,100.92,26,149.93,2.88-37.48,8.65-75,17.3-109.57,20.18,66.32,20.18,141.29,46.13,201.84C1681.09,1206,1689.07,1180.91,1695.76,1148Z"/><path class="cls-4" d="M960.14,1200.24c-261.55,0-473.59,210.09-473.59,469.26a464.39,464.39,0,0,0,97.93,285.72h751.31a464.33,464.33,0,0,0,97.93-285.72C1433.72,1410.33,1221.69,1200.24,960.14,1200.24Z"/><path class="cls-2" d="M1467.63,1475c-85.81-158-267.07-295.27-548.58-272.57-233.12,18.8-386.36,125.43-466.36,254.67,23.79-23.74,48.68-46.16,77.16-65.41-13.43,32.86-58.24,85.65-46.3,101.58,24.89,7,71.7-62.74,95.6-79.17-10.46,25.39-38.83,58.25-32.87,86.63,25.4,3,89.63-86.63,138.92-122.48-7.46,40.33-72.19,120-38.84,121,25.9.5,49.3-71.7,80.67-101.57-3,29.87-36.35,108-13.45,110.53,27.39-1,45.31-58.75,59.76-85.14-3,35.85-15,68.71-10.46,104.56,3,43.32,20.91,37.35,38.84,4.49,25.39-47.81,37.34-101.58,64.22-147.89,9,37.34-9.46,113.53,13.45,119.5,22.9-9.46,16.43-58.25,26.88-82.16,4.49,28.39,3,87.64,28.39,85.15,15.93-.5,19.41-52.28,26.88-76.18,1.49,34.35.49,94.11,22.41,97.09,27.88-7.47,14.93-86.64,25.39-125.47,6,34.36,10,128.46,41.82,131.45,28.88-16.93,0-101.58,1.5-140.41,23.89,44.81,45.31,129.95,73.19,128.45,31.37-11.94-4.48-107.54-9-137.42,26.89,37.34,52.28,116.51,82.15,112,16.44-9.47-3-58.26-7.47-80.67,10.46,20.92,40.34,70.21,59.75,64.23,10.46-8-9-38.84-13.44-56.76,16.43,35.85,58.75,110,85.15,109,24.89-18.92-16.44-101.58-28.39-128.47,17.93,29.88,45.32,80.16,70.21,76.18,13.94-12.44-14.94-56.76-23.9-82.15,22.41,20.91,38.34,71.7,59.75,68.71,10.45-14.44-13.45-55.27-23.9-76.18C1389.8,1409,1435,1483.63,1467.63,1475Z"/><path class="cls-4" d="M41.55,807H1883.89S1708.74-62.27,904.34,2.6C144.47,63.88,41.55,807,41.55,807Z"/><path class="cls-2" d="M1800.74,566.39c1.92,45.21,39.52,127.83,8.17,139.73-22.71,6.48-39.29-56.59-47.93-82.55,2.88,20.19,20.18,92.27-5.77,103.8-37.49,17.3-63.43-72.08-77.85-92.26,5.77,31.72,24.51,89.39,0,98-51.18-1.08-75-95.15-89.38-152.81,0,34.6,20.18,109.56,0,141.28-26,43.24-69.21-5.77-72.08-46.14-2.88,20.18-2.88,72.08-26,72.08-31.71,2.89-51.9-72.08-57.67-95.14-8.64,28.83-2.88,89.38-37.48,92.26-46.12,2.88-63.42-86.5-69.19-118.22-2.88,23.08,5.77,80.74-8.65,98-26,28.83-57.67-8.65-63.43-43.25-8.66,17.3-14.42,46.13-34.6,46.13-26,0-43.26-49-40.37-69.2-14.42,141.29-72.08-8.64-86.5-60.54-11.53,49-4.33,151.73-46.14,147-41.44-9.37-54.78-77.84-57.66-118.22-14.42,34.6-18.39,100.21-54.78,103.8-20.9-1.43-34.6-49-34.6-75-5.77,23.06-10.1,73.53-28.84,75-31,21.27-40.36-77.84-46.13-115.32-34.6,43.24-51.9,142-92.27,147-20.17,6.85-20.17-40.36-23.06-63.43-14.42,17.3-23.07,53-43.25,51.9-23.07,2.17-23.07-40.37-28.84-63.43-11.53,23.06-19.1,71-40.36,66.31-25.23-2.88-17.3-54.78-17.3-83.61-14.42,37.48-34.6,95.14-60.54,46.13-17.31-31.72,2.87-89.39,5.75-124C480.78,643.76,461.69,740.71,402.94,762c-27.75,1.45-28.84-54.78-31.71-83.62-20.2,23.08-35,74.26-63.44,77.85-26.68-1.43-8.65-57.66-5.77-86.49-25.94,31.72-42.52,92.63-75,92.26-25.94-8.28,8.65-80.73,8.65-112.44-23.07,34.59-45.41,105.24-86.49,100.91-23.07-28.83-8.65-75-2.88-109.57-11.54,14.42-60.55,80.74-80.74,77.85a23.55,23.55,0,0,1-4-1.72c-15.26,55.18-20.09,90-20.09,90H1883.89S1862.57,701.31,1800.74,566.39Z"/><path class="cls-2" d="M1701.45,388.82C1557.89,176.66,1311.88-30.27,904.34,2.6,566.85,29.82,359,191.53,232.12,362.91c34.44-34.38,70.49-66.84,111.71-94.7-19.46,47.57-84.33,124-67,147.05,36,10.09,103.8-90.82,138.4-114.61C400.05,337.41,359,385,367.62,426.07c36.76,4.33,129.75-125.42,201.11-177.32-10.81,58.39-104.52,173.72-56.22,175.16,37.48.72,71.36-103.8,116.77-147-4.33,43.25-52.62,156.42-19.47,160,39.65-1.43,65.6-85.05,86.5-123.26C692,365.52,674.69,413.1,681.17,465c4.33,62.71,30.29,54.06,56.23,6.48,36.76-69.19,54.06-147,93-214.08,13,54.06-13.69,164.35,19.46,173,33.15-13.7,23.79-84.34,38.92-118.94,6.49,41.09,4.33,126.86,41.09,123.26C952.93,434,958,359,968.79,324.44c2.16,49.73.71,136.23,32.43,140.56,40.37-10.81,21.63-125.43,36.76-181.65,8.65,49.73,14.43,186,60.55,190.3,41.81-24.51,0-147,2.17-203.28,34.6,64.88,65.59,188.14,106,186,45.41-17.31-6.49-155.7-13-199,38.93,54.06,75.69,168.67,118.94,162.19,23.79-13.71-4.33-84.34-10.81-116.78,15.14,30.27,58.39,101.64,86.49,93,15.15-11.54-13-56.23-19.45-82.18,23.78,51.9,85.06,159.31,123.26,157.86,36-27.39-23.79-147-41.09-186,26,43.25,65.59,116.05,101.63,110.29,20.19-18-21.62-82.18-34.6-118.94,32.45,30.28,55.51,103.8,86.51,99.48,15.14-20.91-19.47-80-34.6-110.29C1588.78,293.24,1654.14,401.35,1701.45,388.82Z"/><path class="cls-4" d="M1207.77,25.7c33.85,58.07,66.85,145.85,104.85,140.15,22.06-12.7-.52-74.39-9.08-109.15A793.59,793.59,0,0,0,1207.77,25.7Z"/><path class="cls-4" d="M1492.11,217.75c11.07-8.41,13.08-25.55,10.06-46.37a805.44,805.44,0,0,0-115.57-76C1415.67,149.55,1461.35,218.92,1492.11,217.75Z"/><path class="cls-4" d="M904.34,2.6c-24.91,2-49,4.83-72.53,8.26,9.37,56.06-13.71,157.52,18,165.81C883,163,873.64,92.33,888.77,57.73c6.49,41.09,4.33,126.86,41.09,123.26,23.07-.72,28.12-75.69,38.93-110.29,2.16,49.74.71,136.24,32.43,140.56,40.37-10.81,21.63-125.42,36.76-181.64,8.65,49.73,14.43,186,60.55,190.3,41.81-24.51,0-147,2.17-203.28,34.6,64.88,65.59,188.13,106,186,39.91-15.2,4.67-123.91-8.86-179.39C1110.77,2.18,1013.34-6.19,904.34,2.6Z"/><path class="cls-4" d="M1388.3,142.07c9.75-7.43,1.58-28.58-7.21-49.63a779.92,779.92,0,0,0-74.72-34.61C1324.35,91.16,1362.63,150,1388.3,142.07Z"/><path class="cls-4" d="M512.51,170.18c25.43.49,49.2-47.47,76-91.86q-39.72,17.07-75.79,37C497.71,146.15,490.93,169.53,512.51,170.18Z"/><path class="cls-4" d="M737.4,217.75c35.3-66.44,52.72-140.84,88.49-206-75.59,11.43-144.08,29.89-206,53.79-13.85,50.29-35,114.91-10,117.62,39.65-1.44,65.6-85.06,86.5-123.26-4.32,51.9-21.62,99.47-15.14,151.37C685.5,274,711.46,265.33,737.4,217.75Z"/><path class="cls-5" d="M1398.58,1384.05a29.19,29.19,0,0,1-29.19,29.19h-839a29.19,29.19,0,0,1-29.19-29.19h0a29.19,29.19,0,0,1,29.19-29.19h839.05a29.19,29.19,0,0,1,29.19,29.19Z"/><path class="cls-5" d="M1446.15,1871.69c0,16.12-14.36,29.19-32.08,29.19H492.13c-17.71,0-32.07-13.07-32.07-29.19h0c0-16.12,14.36-29.2,32.07-29.2h921.94c17.72,0,32.08,13.08,32.08,29.2Z"/><circle class="cls-6" cx="1338.57" cy="1639.22" r="45.41"/><path class="cls-2" d="M46.1,839.16C61.26,812,74.37,783.74,88.26,755.9c2.61-5.22,1.39-11.71-3.88-14.79-4.79-2.8-12.17-1.37-14.79,3.88-13.89,27.83-27,56.07-42.17,83.25-6.78,12.17,11.89,23.08,18.68,10.92Z"/><path class="cls-2" d="M24.47,828.35C47.13,798.79,67,766.88,79.62,731.69c2-5.49-2.23-11.83-7.55-13.3-6-1.65-11.32,2-13.3,7.55-12,33.3-31.55,63.55-53,91.49-3.56,4.64-.72,12.11,3.88,14.79,5.57,3.26,11.23.77,14.79-3.87Z"/><path class="cls-2" d="M5.46,780.32C28.22,764.17,53,751.07,75.73,734.91c4.76-3.37,7-9.44,3.88-14.79-2.75-4.7-10-7.28-14.79-3.88C42.05,732.39,17.31,745.5-5.46,761.65c-4.75,3.38-7,9.44-3.88,14.79,2.75,4.71,10,7.28,14.8,3.88Z"/><path class="cls-2" d="M77.45,868.35c16.62-28.18,21.56-60.43,26-92.33.8-5.77-1.4-11.61-7.55-13.3-5-1.38-12.5,1.73-13.3,7.56-4.13,29.87-8.2,60.74-23.78,87.15-7.09,12,11.6,22.91,18.67,10.92Z"/><path class="cls-2" d="M119.63,859.28c5.14-27.53,3.68-55.06,3.63-82.89,0-13.91-21.65-13.94-21.63,0,.05,25.76,1.9,51.66-2.85,77.14-1.07,5.73,1.58,11.66,7.55,13.3,5.27,1.45,12.22-1.78,13.3-7.55Z"/><path class="cls-2" d="M149.21,842.35c2.13-22.31.87-44.55-2.55-66.67-.9-5.77-8.14-9-13.3-7.55-6.17,1.69-8.45,7.51-7.56,13.3a245.55,245.55,0,0,1,1.78,60.92c-.55,5.82,5.37,10.81,10.81,10.81,6.31,0,10.26-5,10.82-10.81Z"/><path class="cls-2" d="M150.68,778.19c6.21,24.21,8.35,49,10.42,73.89.48,5.82,4.62,10.81,10.81,10.81,5.48,0,11.3-5,10.81-10.81-2.22-26.72-4.51-53.6-11.19-79.64-3.45-13.47-24.32-7.76-20.85,5.75Z"/><path class="cls-2" d="M176.62,790.08c4.16,20.08,6.13,40.46,7.18,60.92.3,5.83,4.76,10.81,10.82,10.81,5.62,0,11.11-4.95,10.81-10.81-1.15-22.36-3.41-44.72-8-66.67-1.18-5.72-7.93-9-13.3-7.55-5.93,1.63-8.74,7.56-7.55,13.3Z"/><path class="cls-2" d="M203.65,795.49a322.17,322.17,0,0,1,2.86,62c-.65,13.91,21,13.88,21.63,0a352.26,352.26,0,0,0-3.63-67.75c-.85-5.78-8.17-9-13.3-7.55-6.2,1.7-8.41,7.5-7.56,13.3Z"/><path class="cls-2" d="M1825.51,690.6c12.07,55.84,63.14,90.16,101.18,128,9.87,9.83,25.17-5.45,15.29-15.29-18.71-18.64-39.26-35.36-57.5-54.48-17.42-18.24-32.7-38.94-38.12-64-1.23-5.71-7.89-9-13.3-7.55-5.9,1.62-8.79,7.58-7.55,13.3Z"/><path class="cls-2" d="M1827.68,754.82c18,32.13,48.7,52.62,76.3,75.71,4.48,3.75,10.91,4.39,15.29,0,3.85-3.85,4.5-11.52,0-15.29-26-21.77-55.92-41.06-72.91-71.34-6.82-12.13-25.5-1.24-18.68,10.92Z"/><path class="cls-2" d="M1818,774.28a205.4,205.4,0,0,0,68.75,74.16c11.72,7.58,22.57-11.13,10.91-18.67a182.91,182.91,0,0,1-61-66.4C1830,751.14,1811.3,762,1818,774.28Z"/><path class="cls-2" d="M1795.24,772.78c3.56,17.35,12.94,32.63,22.68,47.14,9.23,13.76,19.32,27.52,23.81,43.69,3.72,13.39,24.59,7.7,20.85-5.75-4.73-17.07-14.51-31.81-24.3-46.34-9.33-13.85-18.78-27.87-22.19-44.49-1.17-5.72-7.93-9-13.3-7.55-5.94,1.64-8.72,7.56-7.55,13.3Z"/><path class="cls-2" d="M1767.13,780.35c9.19,34.43,36.52,61,43.25,96.23,1.1,5.74,8,9,13.3,7.55,6-1.65,8.65-7.54,7.55-13.3-3.44-18-12-34.43-21.13-50.17-8.53-14.79-17.68-29.41-22.12-46.06-3.59-13.43-24.45-7.73-20.85,5.75Z"/><path class="cls-2" d="M1735.77,778.19c4,29.29,24.43,53.33,30.27,82.17,1.16,5.73,8,9,13.3,7.55,6-1.63,8.72-7.55,7.56-13.3-5.85-28.84-26.25-52.94-30.28-82.17-.8-5.79-8.2-9-13.3-7.55-6.24,1.71-8.35,7.49-7.55,13.3Z"/><path class="cls-2" d="M1708.36,786.12c-.89,26.41,18,48.9,20.54,74.61.58,5.81,4.55,10.81,10.81,10.81,5.4,0,11.4-5,10.81-10.81-1.41-14.13-6.23-27.17-11.3-40.33-4.28-11.09-9.61-23.12-9.24-34.28.47-13.92-21.15-13.9-21.62,0Z"/><path class="cls-2" d="M1682.4,793.69c1.49,26.13,13.95,49.65,17.69,75.32.85,5.78,8.17,9,13.3,7.55,6.21-1.71,8.4-7.5,7.56-13.3-3.45-23.64-15.56-45.61-16.92-69.57-.33-5.83-4.73-10.81-10.81-10.81-5.6,0-11.15,5-10.82,10.81Z"/></svg>