<svg id="Layer_3" data-name="Layer 3" xmlns="http://www.w3.org/2000/svg" viewBox="0 0 2400 2400"><defs><style>.cls-1{fill:#a6c54c;}.cls-2{fill:#d2e288;}.cls-3{fill:#be524d;}.cls-4{fill:#9e473f;}.cls-5{fill:#762e2a;}.cls-6{fill:#a9a5a4;}.cls-7{fill:#42807e;}.cls-8{fill:#73a69f;}.cls-9{fill:#174449;}.cls-10{fill:#e2e0df;}.cls-11{fill:#bbb5b4;}.cls-12{fill:#326867;}.cls-13{fill:#c3bdbc;}.cls-14{fill:#7d7b7b;}.cls-15{fill:#bed3dd;}</style></defs><title>licensed</title><path class="cls-1" d="M631.17,2286.57c-5.27-26-91.62-11.18-109.7-8.46,29.64-26.35,98-64,91.38-112.11-46.16,1.06-97.18,54.95-132.36,83.26,40.06-49.78,146.41-139.46,129.7-213.32-56.6,18-123.13,81.77-154.34,134.13,42.72-78.74,109.8-191.47,91.71-285.75-37.39,12.78-81.75,67-108.41,122,1.74-8.93,3.56-17.83,5.54-26.64,17.1-75.48,63.52-227.47,14-297.09-32.52,25.28-47.32,98.11-58.09,137.56-14,51.33-29.22,105.83-35.29,160.27.12-16.78-.31-33.6-1.66-50.64-8.94-111.9-44.4-279.43-98.7-378.69-53.62,96.58-44.6,265.84-29.05,384.68-21.26-100.52-58.16-231.14-114.65-294-29.2,122.87,12.92,244.44,51.13,366.9C149,1949.16,113.86,1892,66.42,1863.45c-6.79,49,16,104.45,36.2,149.18,21.71,48.11,42.76,98.63,68,145.57-25.31-40.08-72.44-99.79-157.56-144.14C33,2114.42,104,2194.83,148.3,2239.14c-34.67-26.75-83.5-49.22-121.49-43.49,27.06,70.58,103.3,109.29,170,129.63H578.5C604.1,2317.35,634.7,2304,631.17,2286.57Z"/><path class="cls-2" d="M258.16,1564.77l45.44,760.51h5.95L263.49,1554C261.61,1557.49,259.89,1561.13,258.16,1564.77Z"/><path class="cls-2" d="M121.21,1641.8c-.49,2.16-.83,4.33-1.31,6.48,26.81,114,132.57,560.45,173.58,677h6.3c-40.3-112.89-146.9-562.7-174-677.94C124.26,1645.51,122.79,1643.53,121.21,1641.8Z"/><path class="cls-2" d="M67,1863.79c22.31,53.11,145.57,345.11,207.16,461.49h6.74c-58.36-109.39-175.4-385.34-205-455.62C73,1867.61,70,1865.64,67,1863.79Z"/><path class="cls-2" d="M13.08,2014.06c.63,3.17,1.47,6.28,2.18,9.42,44.13,61,172.68,236.9,234.34,301.8h8.17C197,2263.13,59.68,2074.87,17.5,2016.44,16,2015.65,14.6,2014.84,13.08,2014.06Z"/><path class="cls-2" d="M26.81,2195.65c1.22,3.17,2.66,6.22,4.05,9.29,32,26.68,92.69,75.76,154.3,116.61q5.84,2,11.62,3.73h4.84c-69.83-44.85-141.19-103.13-172.89-129.81C28.1,2195.54,27.45,2195.55,26.81,2195.65Z"/><path class="cls-1" d="M2347.5,2292.76s-51-5.81-98.3,1c23.29-22.12,71.15-51.73,89.19-102.29-42.19,14.5-88.12,48.69-115.64,72.51,49.7-46.84,124-157.43,114.3-219.48-43.21,15.17-100.81,107.28-126.28,151.28,35.14-66.14,99.42-161.76,89.49-241-28.6,10.76-72.4,97.58-94.58,143.79,1.69-7.53,70.1-254.79,35.57-313.28-25.4,21.24-71,98.47-81.66,250.23.75-14.11,1.07-28.2.71-42.52-2.37-94-22.54-234.81-59.5-318.17-44,81.15-43.76,223.33-36.68,323.16-12.09-84.45-34.76-194.17-74.74-247-26.7,103.23.23,205.39,24.21,308.26-15.28-50-39.44-98.06-74-122-7,41.2,8,87.79,21.41,125.33,14.46,40.46,28.32,82.86,45.47,122.33-17.45-33.69-50.55-83.83-112.77-121.12,11,84.3,61.31,151.89,92.85,189.12-25-22.48-60.8-41.38-89.57-36.55,17.61,59.28,73.37,91.83,122.66,108.91h286.78C2326,2318.61,2347.5,2292.76,2347.5,2292.76Z"/><path class="cls-2" d="M2117.12,2303.48c61.07-183.72,115.4-451.5,127.27-511.57a44.39,44.39,0,0,0-3.14-6.6c-.58.49-1.21,1-1.83,1.63-9.52,48.54-61.54,307.9-121.37,495C2117.75,2289.52,2117.45,2296.67,2117.12,2303.48Z"/><path class="cls-2" d="M2115.84,2325.12a11.88,11.88,0,0,0,.38-1.29c.07-6.53.12-13.6.12-21.13-2,7.08-3.92,14.08-5.91,20.89Z"/><path class="cls-2" d="M2292.05,1959.6c-26.3,66.62-119.19,297.58-168,363.83l2.9,1.85h2.72c51.16-70.68,148.26-314.08,170.4-370.4A32.81,32.81,0,0,0,2292.05,1959.6Z"/><path class="cls-2" d="M2327.07,2049.2c-28.43,44.38-128,200.42-170.71,276.08h6.56c46.32-81.54,154.48-250.51,173.85-280.7A60.16,60.16,0,0,0,2327.07,2049.2Z"/><path class="cls-2" d="M2336.82,2195.35c.5-1.28,1.09-2.56,1.57-3.9-3.19,1.1-6.4,2.31-9.58,3.63-27.58,25-94.2,85.83-137.89,130.2h7.87C2244.75,2279,2313,2216.84,2336.82,2195.35Z"/><path class="cls-2" d="M2347.5,2292.76s-5.15-.59-13.65-1.15l-101.74,33.67h17.58l97.66-32.34Z"/><path class="cls-2" d="M2118.05,2282c5.94-151.06,7.67-437.8,8.07-532.48q-2.77-10.53-5.8-20.66c-.23,64.84-1.79,417.76-9,573.86-.35,7.53-.71,14.6-1.08,21.13,0,.47-.07,1-.11,1.45H2116c.4-6.73.77-14,1.13-21.8C2117.45,2296.67,2117.75,2289.52,2118.05,2282Z"/><polygon class="cls-3" points="2101.5 1687.6 2127.71 1687.6 2130.91 1565.61 2102.09 1565.61 2103.68 1238.93 303.87 1235.83 308.12 1415.6 294.95 1415.6 299.44 1548.61 311.24 1548.08 318.76 1867.8 301.91 1867.8 298.48 2012.15 322.17 2012.15 329.43 2320.31 2098.41 2320.31 2099.48 2103.32 2127.61 2103.32 2130.49 1995.1 2100 1995.1 2101.5 1687.6"/><polygon class="cls-4" points="2103.68 1238.93 303.87 1235.83 306.66 1354.22 2103.15 1348.84 2103.68 1238.93"/><path class="cls-5" d="M457.3,2236.61l10.79.17,4.61-111.17,348.66-2.54-8.93,134.69,10.76.42,9-135.17,318.59-2.35-3.69,114.88,10.8.07,3.68-115,362.67-2.64-2.76,111.13h10.8l2.76-111.24,299-2.17-5.56,110.3,10.8.26,5.57-110.62,254.57-1.9.05-10.61-109.79.8,1.26-107.43,109.06-1.7,0-10.63-267.26,4.21-1.15-125.7,269-1,0-10.63-100.26.38,2.35-152.25,98.66-1.24.05-10.64-276.66,3.5-2.33-126.28,279.58,1,.06-10.62-106.53-.4,1.93-134.83,105.23.23,0-10.61-292.16-.7-1-137.57-10.79.33,1,137.2-279.5-.68-3-119-10.78.52,2.93,118.45-346.82-.87,6.52-116.41-10.76-.32L1152,1406.9l-337.48-.82-.6-125.5-10.8.29.59,125.18-346.88-.87-2.75-113.12-10.8.51,2.77,112.59-138.2-.32.27,10.61,305.15.76,2.13,133.16-304.16-1.14.25,10.62,139.2.53,5.64,148.48L315,1709.65l.27,10.61,310.05-3.87-5.29,140.14-301.54,1.13.26,10.61,138-.53,1.86,142.1L322.17,2012l.25,10.63,319.09-5-2.38,96.19-314.53,2.28.27,10.65,137-1Zm192.62-122.9,2.38-96.27,329.35-5.15-.65,99ZM1688,1703.05l-2.25,149.49-350.79,1.33,6.45-146.48Zm-163.59-139.7,287.31,1.07,2.35,126.42-291.42,3.65Zm296.47,299.32,1.15,125.82-296,4.62,4.59-129.37Zm-301.1,1.1-4.56,129.52-352.56,5.54-3.5-133.7ZM1162.83,1699l.12-137,350.68,1.3-1.81,131.31Zm167.73,8.53-6.39,146.34-328.26,1.23-7.52-143.3ZM819.2,1703.3l3.53-142.54,329.4,1.21-.08,137.18ZM977.57,1712l7.52,143.2-354.24,1.33,5.3-140.26Zm170.78,153.2,3.47,133.82-318.45,5,1.52-137.64Zm180.11,243.56L991.8,2111.2l.64-99.09,339.87-5.33Zm10.81-.08,3.83-102,342.13-5.36L1684,2106.12Zm640.88-112L1978.87,2104,1694.81,2106l1.2-104.94Zm11.85-297.4-2.35,152.15-293.14,1.13,2.28-149.59Zm-291.09-280.34,285.87.71-2,134.83-291.33-1.09ZM1343.5,1418l346.62.84-7.42,134.46L1335.59,1552Zm-10.77,0-7.91,134-333.14-1.24-4-133.62Zm-355.89-.89,4,133.6-354.69-1.29-2.11-133.18ZM467.13,1707.72l-5.64-148.3,350.44,1.29-3.51,142.73Zm2.31,302-1.8-142,356.47-1.33-1.55,137.77Z"/><polygon class="cls-6" points="294.67 2162.53 290.57 2324.94 2148.33 2324.94 2132.68 2163.26 294.67 2162.53"/><polygon class="cls-7" points="1207.84 226.22 144.09 1312.44 1199.81 1316.46 2281.26 1308.42 1207.84 226.22"/><polygon class="cls-8" points="167.68 1288.36 144.09 1312.44 1199.81 1316.46 2281.26 1308.42 2256.57 1283.53 167.68 1288.36"/><path class="cls-9" d="M1030.78,543c1.73.08,3.44.12,5.2.12,36.75,0,74.12-20.85,89.61-67.57,12.93,43.42,52,68.27,90.25,70.32,1.74.1,3.46.13,5.19.13,36.33,0,73.23-20.46,89-66.05,13.41,42.47,52,66.78,89.75,68.79,1.75.1,3.51.13,5.22.13,29.93,0,60.24-14,78.85-44.38l-7.79-7.81c-17.88,31.66-48.72,42.76-75.65,41.29-39.81-2.13-80.73-32.11-84.17-84,.56-4,1-8.07,1.34-12.31l-10.94-.76c0,.31-.07.56-.09.85l-1.42-.05a111.54,111.54,0,0,0,.1,12.29c-9.42,62.54-52.68,83.09-88.82,81.09-41.89-2.26-85-35.37-84.32-92.38.12-1.32.35-2.57.44-3.92l-10.93-.73c0,.28-.08.52-.1.79l-.35,0c0,1.11,0,2.13,0,3.25-6.53,69.54-52.06,92.16-89.81,90.12-29.79-1.58-60.19-18.8-75.07-49.12l-8.1,8.26C965.44,523.17,998.41,541.26,1030.78,543Z"/><path class="cls-9" d="M755.25,706.67c36.76,0,74.14-20.88,89.59-67.58,13,43.42,52.06,68.26,90.29,70.29,1.72.11,3.45.15,5.19.15,36.34,0,73.23-20.45,89-66.07,13.42,42.48,52,66.79,89.77,68.79,1.74.1,3.46.16,5.21.16,38.17,0,76.93-22.66,91.2-73.24,13.77,41.65,52,65.46,89.33,67.47,1.73.09,3.45.13,5.18.13,36.75,0,74.14-20.86,89.62-67.56,12.93,43.4,52,68.26,90.28,70.29,1.69.09,3.41.14,5.17.14,36.33,0,73.22-20.45,89-66.06,13.41,42.48,52,66.79,89.77,68.79,1.73.11,3.46.15,5.21.15a99.59,99.59,0,0,0,10.49-.64l-10.12-10.21c-1.67,0-3.34,0-5,0-39.81-2.16-80.72-32.1-84.17-84,.25-1.7.36-3.5.55-5.25l-7.56-7.63-2.57-.16c0,.27-.08.54-.13.84l-1.41,0a113.58,113.58,0,0,0,.12,12.27c-9.44,62.55-52.71,83-88.8,81.09-41.92-2.24-85-35.35-84.34-92.39.13-1.32.34-2.54.43-3.9l-10.93-.72c0,.26-.08.5-.08.77l-.38,0c0,1.12,0,2.16,0,3.25-6.51,69.55-52,92.24-89.8,90.13-42.71-2.27-86.79-36.64-84.32-95.8l-10.94-.43c-.09,2.64,0,5.17,0,7.74l-.27,0c-5.05,72.78-51.78,96.23-90.21,94.15-39.8-2.13-80.73-32.09-84.17-84,.58-4,1-8,1.33-12.29l-10.93-.72c0,.27-.06.53-.08.83l-1.44,0a121.56,121.56,0,0,0,.1,12.25c-9.43,62.56-52.73,83.07-88.79,81.11-41.9-2.23-85-35.33-84.33-92.38.12-1.34.32-2.56.44-3.91l-11-.73c0,.27,0,.5-.07.79l-.39,0c0,1.09,0,2.15,0,3.24-6.48,69.54-52.06,92.17-89.76,90.15-.8-.06-1.6-.19-2.41-.24l-9.49,9.67a98.66,98.66,0,0,0,11.29,1.33C751.81,706.62,753.53,706.67,755.25,706.67Z"/><path class="cls-9" d="M653.8,891.87c1.74.09,3.44.13,5.17.13,36.34,0,73.23-20.44,89-66.06,13.36,42.49,52,66.79,89.74,68.81,1.73.07,3.46.13,5.23.13,38.14,0,76.89-22.62,91.16-73.24,13.78,41.65,52,65.47,89.38,67.48,1.7.07,3.42.12,5.17.12,36.75,0,74.1-20.85,89.58-67.56,13,43.41,52.07,68.26,90.26,70.29,1.72.11,3.46.16,5.21.16,36.32,0,73.21-20.46,89-66.07,13.4,42.48,52,66.77,89.77,68.79,1.74.09,3.47.14,5.2.14,37,0,74.68-21.22,89.93-68.69,12.64,44,52.07,69.23,90.57,71.27,1.74.1,3.45.16,5.21.16,36.73,0,74.11-20.89,89.58-67.58,13,43.42,52.06,68.25,90.27,70.3,1.72.08,3.44.14,5.17.14,27,0,54.16-11.28,72.89-35.66l-7.58-7.65c-18.34,24.8-45.77,33.67-69.88,32.4-41.9-2.24-85-35.36-84.34-92.39.14-1.33.35-2.56.44-3.89l-10.94-.75c0,.27-.07.5-.08.8h-.37c0,1.1.05,2.13,0,3.21-6.51,69.56-52.06,92.17-89.79,90.15-42.74-2.28-86.81-36.65-84.34-95.82h-.24c0-.1,0-.21,0-.32l-10.94-.72c-5.07,72.79-51.68,96.17-90.23,94.15-39.78-2.12-80.71-32.09-84.15-84,.57-4,1-8.06,1.32-12.32l-10.92-.75c0,.3-.07.57-.09.85l-1.43-.06a116.49,116.49,0,0,0,.1,12.28c-9.44,62.55-52.92,83-88.79,81.11-41.89-2.24-85-35.36-84.32-92.38.13-1.33.32-2.57.4-3.94l-10.91-.72c0,.29-.07.53-.1.79h-.36c0,1.1,0,2.15,0,3.25-6.5,69.53-52,92.12-89.77,90.13-42.77-2.28-86.84-36.64-84.36-95.82l-10.94-.43c-.11,2.65,0,5.18.06,7.74h-.26C923.55,862.6,876.87,886,838.37,884c-39.8-2.12-80.71-32.09-84.16-84,.58-4,1-8.06,1.33-12.32l-10.92-.74c0,.3-.07.54-.11.85l-1.42-.06c-.17,4.21-.12,8.29.11,12.27-9.45,62.56-52.88,83-88.8,81.1A90.36,90.36,0,0,1,594,853l-7.68,7.86A101.67,101.67,0,0,0,653.8,891.87Z"/><path class="cls-9" d="M386,1072c36.34,0,73.25-20.45,89-66.06,13.39,42.46,52,66.78,89.78,68.79,1.69.12,3.44.15,5.19.15,38.17,0,76.91-22.62,91.19-73.26,13.79,41.68,52,65.49,89.34,67.49,1.72.12,3.46.14,5.2.14,36.72,0,74.11-20.88,89.57-67.58,12.94,43.43,52,68.27,90.27,70.3,1.73.1,3.45.15,5.2.15,36.35,0,73.21-20.45,89-66.05,13.38,42.47,52,66.77,89.75,68.8,1.73.07,3.44.12,5.18.12,37,0,74.68-21.23,89.93-68.71,12.67,44,52.08,69.24,90.6,71.29,1.73.1,3.46.13,5.17.13,36.75,0,74.15-20.85,89.61-67.54,13,43.4,52,68.25,90.28,70.28,1.73.1,3.43.15,5.17.15,36.34,0,73.23-20.47,89-66.07,13.38,42.49,52,66.78,89.77,68.8,1.71.08,3.45.15,5.19.15,38.17,0,76.93-22.64,91.21-73.24,13.77,41.63,52,65.46,89.33,67.46,1.73.1,3.47.16,5.21.16,36.74,0,74.11-20.87,89.59-67.59,12.94,43.42,52,68.26,90.25,70.29,1.72.12,3.46.15,5.19.15s3.37-.09,5-.17l-10.77-10.85c-39.34-2.62-79.27-32.39-82.85-83.56l-11.3-11.34c0,.64,0,1.31,0,2-6.53,69.53-52,92.17-89.8,90.12-42.73-2.25-86.81-36.64-84.32-95.81l-11-.43c-.1,2.65,0,5.18.07,7.74l-.29,0c-5,72.79-51.64,96.3-90.2,94.16-39.82-2.13-80.73-32.08-84.19-84,.58-4,1-8.06,1.33-12.3l-10.91-.74c0,.29-.07.54-.1.84l-1.43,0q-.26,6.28.1,12.25c-9.44,62.59-52.88,83.16-88.8,81.13-41.87-2.25-84.95-35.37-84.32-92.4.13-1.33.33-2.55.44-3.92l-11-.71c0,.26,0,.51-.06.79l-.38,0c0,1.11,0,2.15,0,3.23-6.49,69.54-52,92.21-89.78,90.14-42.72-2.27-86.82-36.63-84.33-95.8l-.24,0c0-.12,0-.22,0-.31l-10.94-.74c-5,72.78-51.52,96.29-90.21,94.15-39.83-2.09-80.71-32.07-84.16-84,.56-4,1-8,1.33-12.31l-10.91-.74c0,.32-.1.55-.12.84l-1.42-.07a122.2,122.2,0,0,0,.1,12.29c-9.44,62.57-52.85,83.12-88.78,81.09-41.92-2.2-85-35.35-84.33-92.37.11-1.32.33-2.56.41-3.92l-10.91-.72c0,.27-.09.54-.09.77h-.37c0,1.14,0,2.16,0,3.25-6.52,69.54-52,92.19-89.78,90.14-42.74-2.28-86.84-36.64-84.32-95.82l-11-.43c-.1,2.66,0,5.18.05,7.75l-.26,0c-5.05,72.78-51.58,96.32-90.23,94.16-39.81-2.12-80.71-32.1-84.17-84,.59-4,1-8.06,1.34-12.32l-.75-.05-11.61,11.84V980c-8.67,57.46-46.06,79.41-79.92,81.07l-10.48,10.72,1,.11C382.5,1072,384.21,1072,386,1072Z"/><path class="cls-9" d="M295.91,1241.38c36.76,0,74.12-20.87,89.59-67.57,12.95,43.43,52,68.27,90.27,70.31,1.73.11,3.46.14,5.19.14,36.32,0,73.24-20.46,89-66.08,13.38,42.5,52,66.8,89.76,68.82,1.74.09,3.45.13,5.18.13,38.18,0,76.94-22.63,91.22-73.23,13.78,41.64,52,65.48,89.35,67.46,1.71.1,3.43.15,5.17.15,36.73,0,74.12-20.85,89.61-67.57,12.93,43.42,52.05,68.26,90.25,70.29,1.72.11,3.47.15,5.18.15,36.35,0,73.23-20.45,89-66.07,13.4,42.48,52,66.77,89.78,68.81,1.72.08,3.46.15,5.2.15,37,0,74.67-21.25,89.91-68.73,12.63,44,52.07,69.23,90.58,71.3,1.72.08,3.46.14,5.19.14,36.76,0,74.12-20.87,89.61-67.58,12.94,43.42,52,68.25,90.24,70.31,1.74.09,3.48.14,5.2.14,36.34,0,73.24-20.46,89-66.07,13.39,42.49,52,66.75,89.78,68.79,1.72.09,3.43.15,5.17.15,38.18,0,76.94-22.65,91.21-73.26,13.78,41.66,52,65.48,89.34,67.5,1.73.08,3.45.13,5.2.13,36.74,0,74.12-20.85,89.58-67.58,12.95,43.43,52.05,68.27,90.27,70.32,1.72.08,3.46.13,5.18.13a91.36,91.36,0,0,0,59.58-21.64l-7.54-7.6a81.29,81.29,0,0,1-56.62,18.33c-41.91-2.24-85-35.36-84.33-92.4.12-1.32.35-2.55.43-3.9l-10.92-.72a4.78,4.78,0,0,0-.08.77h-.39c0,1.12,0,2.15,0,3.25-6.52,69.55-52,92.22-89.79,90.14-42.74-2.28-86.82-36.65-84.33-95.83l-11-.43c-.11,2.65,0,5.19,0,7.75h-.26c-5.07,72.79-51.5,96.32-90.23,94.14-39.79-2.12-80.71-32.08-84.19-84,.59-4,1-8.06,1.36-12.33l-10.93-.71c0,.29-.06.55-.1.83l-1.42-.07c-.17,4.22-.12,8.3.08,12.28-9.42,62.56-52.9,83-88.78,81.09-41.88-2.23-85-35.32-84.33-92.38.14-1.33.34-2.55.43-3.92l-10.93-.73c0,.29-.06.53-.08.82l-.35,0c-.07,1.11,0,2.15,0,3.25-6.54,69.53-52.1,92.25-89.82,90.15-42.74-2.31-86.81-36.66-84.33-95.83h-.25c0-.1,0-.21,0-.33l-10.93-.71c-5,72.78-51.75,96.33-90.19,94.15-39.8-2.14-80.74-32.09-84.17-84,.56-4,1-8.07,1.32-12.33l-10.91-.71c0,.29-.06.55-.1.84l-1.45-.07c-.15,4.2-.12,8.3.13,12.27-9.45,62.58-52.9,83.16-88.81,81.11-41.88-2.23-85-35.36-84.34-92.36.14-1.34.34-2.59.46-3.94l-11-.72c0,.27-.07.52-.09.8l-.38,0c0,1.1,0,2.14,0,3.25-6.49,69.53-52,92.23-89.78,90.12-42.74-2.27-86.81-36.63-84.33-95.83l-10.94-.42c-.11,2.65,0,5.2.05,7.75l-.28,0c-5,72.79-51.68,96.23-90.21,94.14-39.81-2.11-80.72-32.07-84.19-84,.57-4,1.06-8.07,1.37-12.31l-11-.74a6.74,6.74,0,0,1-.1.83l-1.41,0a121.91,121.91,0,0,0,.1,12.27c-9.44,62.58-52.92,83.1-88.77,81.11-41.92-2.24-85-35.34-84.35-92.38.13-1.33.35-2.55.42-3.93l-10.91-.7a6.31,6.31,0,0,0-.1.76h-.36c0,1.12,0,2.15,0,3.27-6.52,69.52-52.09,92.17-89.8,90.12a90.92,90.92,0,0,1-49.25-18.08l-7.69,7.86a102.11,102.11,0,0,0,56.34,21C292.44,1241.33,294.17,1241.38,295.91,1241.38Z"/><polygon class="cls-3" points="1475.7 631.86 1501.49 1015.82 1852.59 1019.11 1847.52 637.83 1475.7 631.86"/><polygon class="cls-4" points="1847.52 637.83 1475.7 631.86 1478.8 678.1 1848.06 679.01 1847.52 637.83"/><path class="cls-5" d="M1851.47,934.59l-.11-7.58-35.18.52-2.26-98,36.15.11L1850,822l-177.59-.66-4.11-97.4,180.39-1.71-.12-7.57-45.46.42L1798.32,637l-9.07-.13,4.78,78.29-235.75,2.24-.93-70.29h-9.06l.93,70.37-67.73.65.53,7.58,177.19-1.68,4.12,97.28-175-.61.55,7.57,64.88.23,3.24,103-61.16.92.5,7.59,168.73-2.6,2.8,80,9.07.1-2.83-80.17Zm-285.39-3.25-3.2-102.76,242,.87,2.25,98.21Z"/><polygon class="cls-10" points="1443.96 559.08 1453.03 656.1 1888.41 659.36 1891.01 560.18 1443.96 559.08"/><path class="cls-11" d="M817.65,1707.81s6.93-185.94-187.06-185.94-188.76,185.94-188.76,185.94l8,249.86H812.31Z"/><path class="cls-7" d="M775,1737s5.35-164.23-144.63-164.23-146,164.23-146,164.23l6.22,220.68H770.9Z"/><path class="cls-12" d="M493.06,1752.28s-3.92-164.22,141.64-164.22c125.44,0,138.89,121.9,140.21,155.59L775,1737s5.35-164.23-144.63-164.23-146,164.23-146,164.23l6.22,220.68h8Z"/><path class="cls-9" d="M750.84,1638.42,508,1641a160.11,160.11,0,0,0-7.25,14.94l257.43-2.71A157.64,157.64,0,0,0,750.84,1638.42Z"/><path class="cls-9" d="M772,1701l-284.38.59c-.94,5.4-1.61,10.42-2.08,14.86L774,1715.8C773.57,1711.36,772.93,1706.36,772,1701Z"/><polygon class="cls-9" points="774.44 1767.5 485.3 1768.11 485.74 1782.96 774.2 1782.33 774.44 1767.5"/><polygon class="cls-9" points="773.42 1822.72 486.86 1823.32 487.29 1838.18 773.15 1837.57 773.42 1822.72"/><polygon class="cls-9" points="772.53 1870.87 488.21 1871.47 488.64 1886.31 772.23 1885.73 772.53 1870.87"/><rect class="cls-11" x="615.11" y="1557.42" width="35.86" height="384.05"/><polygon class="cls-10" points="834.65 1980.74 430.53 1980.74 422.84 1915.89 842.36 1915.89 834.65 1980.74"/><path class="cls-11" d="M1989.34,1707.81s6.91-185.94-187.06-185.94-188.77,185.94-188.77,185.94l8,249.86H1984Z"/><path class="cls-7" d="M1950.06,1737s5.39-164.23-144.59-164.23-146,164.23-146,164.23l6.22,220.68h280.24Z"/><path class="cls-7" d="M1950.06,1737s5.39-164.23-144.59-164.23-146,164.23-146,164.23l6.22,220.68h280.24Z"/><path class="cls-12" d="M1669.63,1750.31s-4-164.23,145.95-164.23c50.44,0,83.26,18.61,104.67,43.25-20.67-31-55.62-56.57-114.78-56.57-150,0-146,164.23-146,164.23l6.22,220.68h9.76Z"/><path class="cls-9" d="M1925.87,1638.42,1683,1641a162.44,162.44,0,0,0-7.23,14.94l257.44-2.71A153.22,153.22,0,0,0,1925.87,1638.42Z"/><path class="cls-9" d="M1947.07,1701l-284.4.59c-.93,5.4-1.61,10.42-2.06,14.86l288.43-.61C1948.59,1711.36,1948,1706.36,1947.07,1701Z"/><polygon class="cls-9" points="1949.49 1767.5 1660.36 1768.11 1660.75 1782.96 1949.23 1782.33 1949.49 1767.5"/><polygon class="cls-9" points="1948.45 1822.72 1661.91 1823.32 1662.33 1838.18 1948.18 1837.57 1948.45 1822.72"/><polygon class="cls-9" points="1947.56 1870.87 1663.25 1871.47 1663.68 1886.31 1947.29 1885.73 1947.56 1870.87"/><rect class="cls-11" x="1786.78" y="1557.42" width="35.86" height="384.05"/><polygon class="cls-10" points="2006.32 1980.74 1602.21 1980.74 1594.5 1915.89 2014.03 1915.89 2006.32 1980.74"/><path class="cls-10" d="M1455.91,2320.31H948.79l-23.67-635.53s-7.55-233.14,274.54-233.14,272,233.14,272,233.14Z"/><polygon class="cls-11" points="998.07 1790.4 916.43 1790.4 911.32 1693.64 998.07 1693.64 998.07 1790.4"/><polygon class="cls-11" points="1005.72 1949.96 918.98 1949.96 924.07 1858.25 1005.72 1853.23 1005.72 1949.96"/><polygon class="cls-11" points="1466.24 2180.05 1389.7 2182.42 1394.52 2095.47 1471.36 2090.71 1466.24 2180.05"/><polygon class="cls-11" points="1477.73 2027.87 1394.8 2029.14 1399.62 1942.16 1476.45 1937.41 1477.73 2027.87"/><polygon class="cls-11" points="1479 1846.95 1396.09 1848.2 1400.88 1761.23 1477.73 1756.48 1479 1846.95"/><polygon class="cls-11" points="1479.72 1659.95 1399.53 1680.74 1373.11 1599.42 1456.46 1572.41 1479.72 1659.95"/><polygon class="cls-11" points="1346.34 1564.22 1272.58 1542.67 1300.41 1453.67 1383.34 1485.08 1346.34 1564.22"/><polygon class="cls-11" points="1217.61 1527.73 1141.63 1539.56 1127.79 1447.45 1216.36 1440.59 1217.61 1527.73"/><polygon class="cls-11" points="1078.6 1559.03 1018.05 1605.79 960.46 1531.95 1034.44 1483.49 1078.6 1559.03"/><polygon class="cls-11" points="1012.11 2115.83 930.47 2123.37 925.35 2022.84 1012.11 2019.08 1012.11 2115.83"/><polygon class="cls-13" points="944.58 2206.89 948.79 2320.31 1455.91 2320.31 1458.73 2206.89 944.58 2206.89"/><path class="cls-7" d="M1401.58,2320.31H999.17L980.38,1726.1s-6-218,217.88-218,215.85,218,215.85,218Z"/><path class="cls-12" d="M998,1746.58s-5.74-219.23,209-219.23c185,0,204.93,162.59,206.9,207.65l.19-8.9s8-218-215.85-218-217.88,218-217.88,218l18.79,594.21h16.15Z"/><path class="cls-9" d="M1026.58,1582.77l10.89,737.54h9.86L1036.25,1571C1032.81,1574.79,1029.6,1578.75,1026.58,1582.77Z"/><path class="cls-9" d="M1145.13,1512.51l11.28,807.8h9.86L1155,1510.87C1151.6,1511.35,1148.37,1512,1145.13,1512.51Z"/><path class="cls-9" d="M1257.89,1515.09v805.22h9.86v-802.8C1264.59,1516.6,1261.19,1515.87,1257.89,1515.09Z"/><path class="cls-9" d="M1353.65,1570.61l7.93,749.7h9.88l-7.81-737.37C1360.55,1578.73,1357.23,1574.63,1353.65,1570.61Z"/><path class="cls-10" d="M1380.6,1952.58a29.48,29.48,0,1,1-29.48-29A29.25,29.25,0,0,1,1380.6,1952.58Z"/><polygon class="cls-10" points="900.2 2230.3 909.06 2324.94 1492.9 2324.94 1500.7 2230.72 900.2 2230.3"/><path class="cls-14" d="M1664.23,2214.81a14,14,0,1,1-14-13.82A13.91,13.91,0,0,1,1664.23,2214.81Z"/><path class="cls-14" d="M850.39,2227.59a14,14,0,1,1-14-13.8A13.92,13.92,0,0,1,850.39,2227.59Z"/><path class="cls-14" d="M819.07,2259.89a9.52,9.52,0,1,1-9.53-9.38A9.48,9.48,0,0,1,819.07,2259.89Z"/><path class="cls-14" d="M926.58,2202.65a8.25,8.25,0,1,1-8.25-8.14A8.18,8.18,0,0,1,926.58,2202.65Z"/><path class="cls-14" d="M610.67,2237.27a8.25,8.25,0,1,1-8.25-8.14A8.17,8.17,0,0,1,610.67,2237.27Z"/><path class="cls-14" d="M386.06,2202.24a9.75,9.75,0,1,1-9.74-9.6A9.64,9.64,0,0,1,386.06,2202.24Z"/><path class="cls-14" d="M345.67,2263.05a6.89,6.89,0,1,1-6.88-6.8A6.84,6.84,0,0,1,345.67,2263.05Z"/><path class="cls-14" d="M402.19,2303.28a6.88,6.88,0,1,1-6.86-6.76A6.81,6.81,0,0,1,402.19,2303.28Z"/><path class="cls-14" d="M428.32,2296a4.75,4.75,0,1,1-4.75-4.67A4.71,4.71,0,0,1,428.32,2296Z"/><path class="cls-14" d="M662.92,2282.21a4.93,4.93,0,0,1-9.86,0,4.93,4.93,0,0,1,9.86,0Z"/><path class="cls-14" d="M1723.56,2261.69a10.11,10.11,0,1,1-10.1-9.94A10,10,0,0,1,1723.56,2261.69Z"/><path class="cls-14" d="M1925.63,2214.18a8.15,8.15,0,1,1-8.15-8A8.07,8.07,0,0,1,1925.63,2214.18Z"/><path class="cls-14" d="M1908,2278.38a8.15,8.15,0,1,1-8.16-8A8.08,8.08,0,0,1,1908,2278.38Z"/><path class="cls-14" d="M2023.74,2264.59A11.74,11.74,0,1,1,2012,2253,11.65,11.65,0,0,1,2023.74,2264.59Z"/><path class="cls-14" d="M2105.88,2195.87a7.84,7.84,0,1,1-7.83-7.69A7.78,7.78,0,0,1,2105.88,2195.87Z"/><path class="cls-14" d="M2115,2220.93a3.91,3.91,0,1,1-3.91-3.88A3.89,3.89,0,0,1,2115,2220.93Z"/><path class="cls-15" d="M1784,418c0-22.13-18.22-40.08-40.68-40.08a41.08,41.08,0,0,0-10.67,1.44,31.73,31.73,0,0,0-63.22,3.32,31.19,31.19,0,0,0,.66,6.39,45.17,45.17,0,0,0-30.25,42.41c0,24.92,20.5,45.1,45.8,45.1a46.1,46.1,0,0,0,6.9-.56,35.55,35.55,0,0,0,32.68,21.3c19.64,0,35.56-15.66,35.56-35a34.17,34.17,0,0,0-.91-7.75A40,40,0,0,0,1784,418Z"/><path class="cls-15" d="M2109.35,242.09a89.56,89.56,0,0,0,7.1-34.93c0-50.08-41.23-90.67-92.07-90.67a92.2,92.2,0,0,0-78.63,43.72,63.37,63.37,0,0,0-29.94-7.46c-34.72,0-62.86,27.71-62.86,61.89a60.85,60.85,0,0,0,10,33.46A88.68,88.68,0,0,0,1827.31,319c0,49.37,40.66,89.41,90.83,89.41a91.85,91.85,0,0,0,13.65-1.11,70.46,70.46,0,0,0,64.84,42.26c35.6,0,64.93-26,69.72-59.76.7,0,1.35.09,2.05.09,44.57,0,80.68-35.55,80.68-79.42C2149.08,281.33,2133.12,255.93,2109.35,242.09Z"/></svg>