<svg id="Layer_1" data-name="Layer 1" xmlns="http://www.w3.org/2000/svg" viewBox="0 0 792 612"><defs><style>.cls-1{fill:#6ab5e4;}.cls-2{fill:#74c044;}.cls-3{fill:#5a3913;}</style></defs><title>wood house4</title><rect class="cls-1" width="792" height="542.91"/><rect class="cls-2" y="357.4" width="799" height="254.6"/><polygon class="cls-3" points="55.93 430.51 60.72 186.13 45.03 187.04 211.12 69.88 634.34 25.89 717.84 183.35 704.14 183.69 701.32 243.61 710.87 245.01 725.02 442.98 510.39 449.35 55.93 430.51"/><ellipse class="cls-2" cx="378.45" cy="456.73" rx="95.25" ry="100.29"/><ellipse class="cls-2" cx="198.97" cy="512.07" rx="95.25" ry="100.29"/><path d="M720.17,181c.25,1.81-.21,2.42-2.33,2.33a106.2,106.2,0,0,0-13.7.34,4,4,0,0,0-2.67,2.88c-.27,7.9-.15,15.82-.3,23.73-.07,3.83-.74,7.67-.64,11.49.1,3.47,1,6.92,1.31,10.4a54.65,54.65,0,0,1-.35,6.74,36.35,36.35,0,0,1-.17,4.68c-.19,1-.86,2.7-1.45,2.76-4.36.45-6.81,2.37-6.75,7a5.2,5.2,0,0,1-1.28,3.12c-2.85,3.3-2.19,6.34.62,9.56l11-1.87c.72-3.41-2.9-7.38,1-10.64,1.55,3.16,3.23,6.16,4.5,9.32s-.43,5.74-4,6a17.85,17.85,0,0,1-3.87-.13c-6.31-1-7-.63-9.3,5.45a13,13,0,0,1-1.33,2.66c-2.28,3.47-2,6.61,1,9.35a2.79,2.79,0,0,0,1.9.6c3.07-.26,6.14-.65,9.74-1.06a61.44,61.44,0,0,1,1-6.62,28.05,28.05,0,0,1,2.7-7.53c1.08-1.78,3.73-4.46,4.71-4.1,2.45.9,5.3,2.91,6.24,5.2,1.57,3.78,2.51,7.8,1.26,12.41-1,3.6.19,7.92.93,11.83,1.58,8.4,1,13.3-5.49,17.12a4,4,0,0,0-1.31,3.63c2,5.75,3,11.45,1.22,17.44-.27.9.17,2,.17,3,0,5.18,0,10.36,0,16.49,4.09,3.15,8.81,7.37,7.46,15-.87,4.92-1.23,9.9-7,12-2.32.85-2.9,2.09-1.17,4.88,3.56,5.74,5.93,12.13,2,18.79-.8,1.35-2.52,2.15-4.13,3.45,7.41,5,5.79,12.57,5.33,19.74-.17,2.68-.39,4.95,2.24,6.83.94.68.84,2.84,1.29,4.64l2.06-1.28L725,443l.38.34c.26,4.5-.25,5-4.27,3.56-3.06-1.1-5.56-1.22-8.25,1.3-1,.93-4.73.77-5.45-.2-1.83-2.49-4.22-5.61-1.71-9,1.85-2.46,3.94-4.42,1.73-7.82-.36-.56,1-3,2-3.58,6.23-3.35,6.71-8.92,1.14-13.52a14.14,14.14,0,0,1-3.56-4.59c-1.7-3.44-4.64-2.08-7.16-2.14-1.68,0-3.38.64-5.06.57-4.7-.19-7.39,2.78-6.46,7.4.25,1.25.89,2.51.8,3.72-.12,1.48-.45,3.86-1.33,4.2-5.32,2.05-10.27,6.45-16.72,3.08-1.31-.68-3.21-.28-4.84-.29-6.69-.08-13.38-.1-20.07-.22-.61,0-1.2-.57-1.94-2a39.22,39.22,0,0,1,5.36-1.25c10.09-.95,20.19-1.79,30.29-2.66,2.06-.17,3-.94,3.6-3.25,1-3.85,2.92-7.47,4.85-12.14-1.86-3.65-5-6.76-11.29-6.15-4.44.44-9-.92-13.52-.75s-8.77,1.36-13.17,2c-7.72,1-15.42,2.41-23.17,2.85-9.69.54-19.43.34-29.15.34-14.07,0-28.14-.31-42.21-.09-5.71.09-11.4,1.3-17.12,1.87a6.8,6.8,0,0,0-6.42,5.27c-.08.28,0,.68-.14.84-1.51,1.46-3.06,2.89-4.59,4.32.41-1.74.45-3.69,1.29-5.19,2-3.53-.29-6.65-.49-9.95-.06-1-.18-2-.27-2.94,1.15.17,3,0,3.31.55,2.57,5.44,7.25,3.34,11.24,3.26,9.67-.21,19.33-.66,29-.94,7.29-.22,14.59-.32,21.89-.49,13.17-.31,26.36-.23,39.49-1.1,9.07-.6,18-2.79,27.07-3.76a145.11,145.11,0,0,1,17.58-.34c4.86.08,10.92-3.86,11.67-8.52.24-1.49-1-3.4-1.94-4.86-1.5-2.28-3.34-4.34-4.47-7,4.95,1.2,8.36,3.89,9.06,8.06l14.17-3.58c0-4.6.16-9-.09-13.46-.07-1.33-1.08-3.56-2-3.72-4-.72-8.18-1.47-12.17-1s-5.19,3.11-4,7.26c1,3.39-.47,4.3-3.56,4.57-11.18.95-22.33,2.25-33.52,3-3.63.25-7.33-.65-11-1,0-.44,0-.87,0-1.31l16.09-2c7.86-1,15.7-2,23.57-2.87,2.44-.27,3.5-1.5,3.87-3.73a4.69,4.69,0,0,1,.81-2.42c2.91-3,3.07-6.08.85-9.5-2.5-3.85-6.3-3.95-10.27-3.74-6.81.38-13.61.84-20.43,1-6.55.17-13.1,0-19.65,0-16,.05-32.07,0-48.1.21-9.17.13-18.33.82-27.5,1.12-6.26.21-12.54.21-18.81.21a15.5,15.5,0,0,1-3.16-.67c-.15-.45-.29-.91-.43-1.36,1.51-.7,3-2,4.54-2,10-.27,19.95-.41,29.92-.34,8,.06,16,.72,24,.66,11.6-.09,23.19-.64,34.78-.92,9.33-.23,18.66-.15,28-.59a180.61,180.61,0,0,0,21.94-2.1c6.13-1.05,9.23-11.87,5-16.43a4.38,4.38,0,0,0-3.08-1c-12,.46-24,1.05-36,1.52a21.68,21.68,0,0,1-5.07-.48c-9-1.75-18-.87-27-.9-7.21,0-14.43-.91-21.64-1-6.72-.05-13.45.86-20.15.69-8.06-.21-16.12-.95-24.15-1.8-3-.31-3.46,1.35-4.35,3.42a62.28,62.28,0,0,1-3.83,6.66l-1.88-.9c.5-1.56.89-3.15,1.52-4.66C540.41,326,541,322.32,543,321s5.5.22,8.35.35c6.85.33,13.7.71,20.56.82,8.65.15,17.3,0,25.95.1,2.84,0,5.67.81,8.5.77,5.49-.06,11-.69,16.48-.66,6,0,12,.72,18,.77,12.16.11,24.32,0,36.48-.08,5.35-.05,11.53-4.54,11.27-9.32-.2-3.5-2.56-7.2-4.86-10.09-.81-1-4.43-.28-6.56.36-3.38,1-12.92-.78-16.3-4.19,4.82.31,8.83.94,12.8.73s7.72-1.27,11.94-2l-2.24-5.22a23.45,23.45,0,0,1,3,0c2.58.38,3.05-1,2.36-3s-1.65-4.14-2.53-6.19c-1-2.38-2.39-4.05-5.44-3.88a73.75,73.75,0,0,1-11.61-.11c-8-.83-16-2-24-3a11.42,11.42,0,0,0-3-.15c-4.23.63-4.78.24-5.77-5.08,5.77.8,11.3,1.76,16.87,2.3,9.64.93,19.28,1.76,29,2.3a7.16,7.16,0,0,0,7.34-6.21c.42-2.93-2.39-7.12-5.69-8.22-3-1-6.06-1.73-9-2.7a7.33,7.33,0,0,1-1.87-1.39c.06-.4.13-.8.2-1.2a40.51,40.51,0,0,0,5.36.39c3.17-.18,7,.36,9.36-1.17,4.73-3,3.89-8.87-.82-12.18a13.2,13.2,0,0,1-3.92-4.45c-1.82-3.43-4-3.28-7.49-1.11-2.69,1.67-6.42,1.83-9.74,2.28-4.32.58-8.7.79-13.2,1.17l-3.79-5.44-1.44.52,1.72,4.2c-7.5,1.9-10.44-6.5-16.66-7.75-.89,3.24-3,2.61-5.26,1.31-3.81-2.23-7.45-5-12.24-4.2a21,21,0,0,0-4.33,1.81c-1.28.55-2.53,1.42-3.87,1.58a58.31,58.31,0,0,1-10.29.64c-2.4-.13-4.59-1.31-4.75-4.46a3.6,3.6,0,0,0-1.62-2.71c-5.49-2.17-11.06-4.14-16.64-6.06a16.72,16.72,0,0,0-3.67-.41c-1.55,5.92-3.34,7.67-7.38,7.47-7.89-.4-8.28-.66-9-5.93,1.05.56,3.06-2.68,3.41.88,0,.29,1.08.72,1.63.69,2-.14,4-.44,5.9-.68a37.86,37.86,0,0,1-1.19-6.45c-.21-12-.1-23.95-.39-35.93-.12-5.19-.9-10.36-1.39-15.54,0-.42-.32-1-.14-1.24,3.26-5,.8-10.38,1.07-15.58s-1.49-10.22-.56-15.86c1.69-10.27,1.18-20.93-1.23-32.64-3.37,2-6.28,3.49-8.9,5.36s-5,4.18-2.22,8c.74,1,.52,2.76.59,4.19.25,5,.74,10,.59,15-.29,9.59,3.14,19,1,28.7-.83,3.84-.44,8-.23,12,.22,4.15,1.05,8.27,1.31,12.42.51,8.09-.12,16.39,1.56,24.21,1,4.68,1.19,8.48-.75,12.6-2.57.65-5.15,1.93-7.68,1.83-8.22-.3-8.21-.49-9.27-8.5-3.18.36-6.49-2.61-9.67,1.44-.87,1.11-4.55.1-6.93-.06-3-.22-6-.71-9.05-.81a6.92,6.92,0,0,1-6-5.76,8.31,8.31,0,0,0-.57-2.47c-2-4.59-2-10.1.54-15.83-14.69.66-28.84.88-42.91,2.07-9.92.85-19.69,3.34-29.6,4.51-11.85,1.41-23.78,2.23-35.68,3.2-4.9.39-10,1.44-14.7.54-14-2.67-27.92.68-41.87.3-11.4-.31-22.82.48-34.23.73-12.85.29-25.72.38-38.56.86-6.81.25-13.59,1.56-20.38,1.63-7.41.09-14.83-.77-22.25-1.08-2.54-.11-5.09.16-7.64.28-12.71.59-25.43,1-38.12,1.83-6.53.42-13,2.09-19.51,2.2-8.24.13-16.5-1.19-24.73-1.05-5.93.11-11.82,1.75-17.77,2.41-6.51.73-13.06,1.23-19.61,1.62-3.38.21-6.79-.13-10.19,0-3.76.09-7.19,6.28-5.45,9.55,2.85,5.35,7.1,8.63,13.31,8.3,9.19-.5,18.36-1.34,27.54-2,2.53-.19,5.07-.45,7.61-.43,12.43.09,24.86.36,37.29.37,6.26,0,12.52-.46,18.78-.61a50.28,50.28,0,0,1,5.45.46c0,.58,0,1.17,0,1.75-3.81.51-7.6,1.29-11.43,1.49-9.21.46-18.45,1-27.67.86-10-.1-20.06-1.25-30.08-1.17-5.93,0-11.88,1.45-17.77,2.54C98.7,234.52,92.59,235,86.28,232c2,5.27-1,8.59-3.67,11.94l2.18,4.72L66,246v6.42c-1.4-.89-2.12-1.63-3-1.83-1.66-.4-3.61-1.12-5-.6-4.22,1.54-6.66,11.94-3.9,15.54,1.53,2,5.26,1.67,6.49-.88.89-1.86,1.06-4.09,1.46-6.16a16,16,0,0,1,1.29-4.77c3.58,4.39,2.28,9.1.74,14.26,5.36-.42,10.73.7,14.86-3,3.87-3.44,5.76-8,4-14.52,2.25,1.08,3.7,1.29,4,2,1.93,4.37,5.87,4.28,9.49,4.17,13-.39,25.94-1.39,38.91-1.53,12.31-.13,24.62.62,36.94.82,8.87.14,17.75,0,26.7,0,.74-.66,1.79-2.42,2.94-2.49,17.27-1,34.54-2.1,51.82-2.67,8.26-.27,16.56.37,24.84.76,10.27.49,20.53,1.13,30.8,1.74,9,.52,17.92,1.3,26.89,1.58,10.79.34,21.58.35,32.37.36,12.06,0,24.12.05,36.18-.27q19.4-.52,38.79-1.74c7-.44,13.91-1.64,20.87-2.46,1-.11,2.25-.33,2.95.14a14,14,0,0,1,2.57,3c-1,.62-2.1,1.87-3,1.74-10.24-1.36-20.14,1.52-30.2,2.21-10.51.73-21.08.71-31.63,1-9.83.24-19.76-.31-29.46.92-5.36.68-10-1.47-15.05-1.28-7,.26-14-.27-21-.52-9.33-.34-18.67-.67-28-1.13-7.71-.37-15.7.23-23-1.69-9.25-2.42-18-.2-26.94.11-2.67.09-5.37-.72-8-.67-5,.1-10,.7-15,.77-9.48.13-19,0-28.45,0,.33.46.65.92,1,1.37-.32.9-.46,2.44-1,2.59a31.05,31.05,0,0,1-7.82,1.44q-12.27.12-24.54-.29c-10.26-.34-20.52-1.13-30.78-1.35-9.24-.21-18.49,0-27.74.18-7.51.12-15.12-.19-22.51.87-3.72.54-8.93-2.46-11.28,2.82-1.57,3.54-2.34,7.44-3.61,11.63-4.44-5.35-10.31-5.58-16.57-3.33,2.11,7.35,6.08,14.78.62,22.49,7.46,2.78,13.46.36,18.45-5.59l1.1.54c-.45,1.5-.89,3-1.37,4.5-.54,1.67-1.12,3.34-1.43,4.25-4.73.36-9.46.57-14.12,1.23-.75.11-1.51,2.19-1.72,3.45-.17,1,.46,2.21.74,3.32l-1.18.53c-.65-.93-1.31-1.86-2-2.81-1.44-2.14-3-2.06-4.32,0-3.13,5.08-1.28,13.2,4.68,17.89l3.35-12.24c3.76,2.81,3.39,6.86-1.3,14.25,3.67,2.39,6.72.32,10-1.58,1.52,3,1.62,5-2.22,5.6s-7.6,1.62-11.51,2.48c2.31,5,4.29,9.4,3.33,14.82-.91,5.15,6.1,9.31,12,6.77,2.79-1.21,7.24-.36,8.18-4.75a50.44,50.44,0,0,0,.56-6.11c3.29,1,4.91,2.27,3.35,5.26-1.1,2.11-2.64,4-3.62,6.16-.61,1.34-1.18,3.32-.62,4.41.84,1.63,2.6,3.72,4.14,3.88,9.94,1,19.92,1.48,29.88,2.23a16.47,16.47,0,0,1,3.63,1.16c-.07.5-.14,1-.2,1.5H90.41c-1.9,5-3.63,9.36-5.2,13.81-.29.81.14,1.85.1,2.78-.13,2.45-.34,4.91-.51,7.37l-1.63.44c-1.29-2.38-2.91-4.64-3.78-7.16-1-2.95-2.4-3.6-5.45-2.92s-6.46.47-10.68.71c-.27.61-.95,2.44-1.86,4.14a4.5,4.5,0,0,1-2,2.12,5.77,5.77,0,0,0-2.65,9.34c1.18,1.48,2.21,3.07,3.31,4.6l-1.22,1.54c-1.82-1-4.28-1.65-5.33-3.2-2.49-3.69-1.25-11.26,2.21-14.08,2.5-2,2.07-3.07-.17-4.86-5.35-4.27-5.53-13.3-1.06-18.56,1.81-2.13,2.71-5.12,3.66-7.84.21-.62-.93-2-1.72-2.64-5.27-4.56-6.9-15.5-2.46-20.73,1.66-2,4.83-2.64,7.36-3.93-1.8-4-4-8.53-5.77-13.19-.5-1.3,0-3.1.32-4.58.94-3.79,2.08-7.54,3.11-11.31a1.16,1.16,0,0,0-.25-.74c-2.45-3.66.51-5.12,3-5.47,2.94-.43,3.68-1.9,3.61-4.24-.08-3,0-6.09-.86-8.89-.57-1.83-2.65-3.2-4.51-5.3-3.22,6.1-3.17,11.06-.35,16-4.32,1.41-6.15-.19-5.56-4.67.46-3.46.72-6.95,1.15-11.23-4.77-4.19-6.65-10-4.63-17.53,1.73-6.5,6.86-8.88,11.77-11.42,2.38-1.23,3.11-2.34,3.23-4.72.19-3.69-.79-7.57.91-11.06l1.75-.08c.74,5.08,1.47,10.17,2.28,15.71,3.68,1.05,6.73-.47,7.8-5.48a6.14,6.14,0,0,1,1-2.33c1.09-1.44,3.48-3,3.27-4.1a18.76,18.76,0,0,0-3.49-7.13c-3.19-4.38-3-10.55,1.26-13.63a14,14,0,0,1,7.34-2.39c13-.38,26-.41,39-.59a6.11,6.11,0,0,0,2.5-.58c10-5.06,20.65-1.52,30.94-2.55,4.94-.49,10-.24,14.92-.26,9.54,0,19.09.09,28.62-.16,3.81-.1,7.58-1.1,11.38-1.6s7.37-1.23,11-1.17c7.69.13,15.37.94,23.06,1,5.29.07,10.58-.59,15.87-.93,12.6-.79,25.2-1.64,37.81-2.33,2-.11,4,.73,5.95.76q8.91.16,17.83,0c12.14-.22,24.28-.58,36.42-.78,4.44-.08,9-.46,13.32.32,12.22,2.21,24-.71,36-2s24.25-2.13,36.33-3.63c8.86-1.1,17.59-3.26,26.45-4.35,5.84-.72,11.81-.52,17.72-.48,6.26,0,12.52.61,18.77.49,2.83-.06,3.78,1.15,5.09,3.34,4,6.75,2.87,13.41.09,20.23,2.9,1.11,5,2.9,7.42-1,.78-1.26,5.16-.31,7.9-.33.84,0,1.69.12,3.18.24-.78-27.66-1.56-55.09-2.34-82.53l-1.3-.66a48.38,48.38,0,0,0-4.49,3.93c-1.13,1.26-1.75,3-2.83,4.28-2,2.47-2.85,4.88-1.8,8.2.76,2.42.24,5.22.43,7.85s.54,5.25.82,7.87l-1.83.44c-.69-2.59-1.57-5.16-2-7.79-.49-2.8-.6-5.68-1-9.67-2.66,2.31-4.84,4-6.72,5.9s-3.6,4.26-5.37,6.4c3.9,1.45,4.35,4.48.86,9.19l-2.6-3.94c-16.71.9-33.07,1.7-49.42,2.68-11.05.67-22.16,1.08-33.11,2.55-15.29,2.06-30.61,1-45.89,1.8-5.64.29-11.2,1.85-16.83,2.61-9,1.22-18,2.52-27.12,3.28-12.3,1-24.64,1.53-37,2.36a35,35,0,0,0-9.61,2L340,176.89l.33.81c-1.37.52-2.73,1.38-4.14,1.49-9.4.68-18.81,1.21-28.22,1.78s-18.79,1.26-28.2,1.61c-6.14.23-12.31-.13-18.47-.07-5.39.05-10.78.41-16.17.46-8.87.08-17.75,0-27.07,0,.44-1.42.74-2.36,1.19-3.83H207.05l5.46,2.53c-2.59.89-4,1.72-5.44,1.82-19.15,1.31-38.31,2.47-57.46,3.78-3.26.23-6.48,1.17-9.73,1.37-4,.25-8.11.06-12.17.06,0-.75-.07-1.51-.1-2.26l59.83-5.25c0-.41-.07-.81-.1-1.21L60.72,186.12c.14,1.71.21,3.18.38,4.63.23,2,.13,3.86,3.22,4,1.93.1,4,1.51,5.55,2.84.53.45.08,2.72-.59,3.7-.47.69-2.07.6-3.5.94.35,5.36-.44,10.21-5.3,13.61-4.34,3-8,2.13-9.83-2.86-2.23-6.28,1.67-15.81,6.71-17.46-.52-3-1-5.85-1.59-9-3.07.15-6.91.46-10.74.49-3.48,0-5.86-1.74-6-5.3,0-1.12,1.41-3.33,2.19-3.33,6.33-.06,10.86-4.15,15.89-6.92,8.24-4.54,16.3-9.41,24.29-14.37,2.64-1.64,4.71-4.19,7.29-6,3.42-2.31,7.32-3.95,10.6-6.42,7.37-5.56,14.23-11.84,21.79-17.12,10-7,20.46-13.34,30.75-19.91a2.54,2.54,0,0,1,2.51.11,74,74,0,0,0-7.74,4.5c-13.36,10.1-26.59,20.37-39.94,30.48-3.06,2.31-6.4,4.26-9.65,6.33q-21.21,13.55-42.43,27.08c-1,.67-2,1.54-3.13,2.46,3,.64,5.74,1.51,8.48,1.68,2.56.17,5.15-.54,7.74-.64,3.88-.14,7.76-.1,11.64-.08,1.28,0,2.57.35,3.82.25q14.73-1.15,29.45-2.42c4.33-.36,8.65-.79,13-1.17,1.19-.1,2.38-.14,3.57-.21.07.59.13,1.18.2,1.77l-9.66,1.07c0,.2,0,.41,0,.61l13.92-.75,2.05-5.52,3.14,3.1c5.32-.72,10.72-1.48,16.14-2.17a45.94,45.94,0,0,1,4.7-.25c12.62-.31,25.24-.51,37.86-.94,6.29-.22,12.56-.85,18.84-1.25.78,0,1.58.29,2.37.26,8.82-.36,17.64-.93,26.47-1.07,4.75-.07,9.52.59,14.28.87,6,.34,12,1.07,17.93.85,9.1-.33,18.17-1.45,27.27-2,5.06-.31,10.22.39,15.2-.33,9.52-1.38,18.89-3.83,28.41-5.13,11.08-1.51,22.26-2.26,33.39-3.35,4.92-.48,9.85-1,14.77-1.5.06.46.13.93.19,1.4l-23.83,2.72c0,.21.05.41.08.62l43.72-1.55c0-.22.05-.44.08-.66L403.4,161.6c0-.44.05-.89.08-1.33l59.37-4c0,.57.11,1.13.16,1.7l-40.87,3.85c0,.42.09.84.13,1.27l42-3.25c1.35-4,5.59-3.36,8.81-4,7.85-1.45,15.9-1.92,23.68-3.65,2.82-.63,5.24-3.55,7.59-5.7,2-1.83,3.54-4.13,5.48-6,.66-.65,1.88-.74,2.84-1.08l.91,1.29L502.85,153l.66.67c1.36-1.3,2.73-2.6,4.08-3.91,4.81-4.66,9.81-9.14,14.33-14.07,1.79-1.94,2.51-4.86,4-7.93l-5.24,4.34-1-1c2.85-3.16,5.67-6.36,8.58-9.47,10.75-11.5,21.57-22.95,32.27-34.5,1.14-1.24,1.63-3.08,2.42-4.64-1.93-.66-3.85-1.8-5.81-1.88a108.23,108.23,0,0,0-10.81.57c1-2.64,1-2.5,7-3,2.79-.25,5.52-1.24,8.3-1.75s5.5-.84,8.25-1.25c.1.4.2.8.29,1.19l48.52-49.74a77.38,77.38,0,0,1-8.69.91c-3.7,0-7.41-.78-11.1-.69A164.63,164.63,0,0,0,580.8,28c-14.81,2-29.6,4.26-44.36,6.61-10.67,1.7-21.29,3.7-31.93,5.6-14.3,2.56-28.57,5.28-42.89,7.67-8.71,1.46-17.51,2.35-26.25,3.64-5.37.8-10.67,2.22-16.06,2.71s-11,.2-16.47.27a4.3,4.3,0,0,1-3.13-.72c2.73-.46,5.44-1,8.18-1.38,7.61-1,15.23-2,22.83-3,1.83-.24,3.61-.75,5.43-1.07,14.86-2.6,29.71-5.26,44.58-7.75,7.74-1.29,15.56-2.15,23.31-3.41,10.28-1.67,20.53-3.58,30.81-5.33,9.85-1.67,19.68-3.44,29.57-4.83,11.46-1.62,23-2.88,34.46-4.29,1-.12,2.2-.53,3-.14,8.82,4.4,17-.88,25.42-1.7,4.9-.48,5.82.4,7.07,5s3.72,9.08,6.1,13.35c9.77,17.48,19.68,34.88,29.59,52.28,4.31,7.57,8.48,15.23,13.18,22.56,5.46,8.52,11.56,16.63,17.14,25.08,3.2,4.86,5.83,10.09,8.9,15s6.28,9.5,9.28,14.34c.6,1,.47,2.39.66,3.48,1.95,2.47,4.25,5.09,6.13,8,.44.68-.51,2.27-.82,3.43l-2.61-1.38-1.79-1c-2.51-3.4-5.2-6.69-7.49-10.22-5.67-8.74-11.41-17.45-16.66-26.43-8.8-15-20.18-28.52-26.56-45-1.76-4.54-5.28-8.38-7.88-12.61-5.6-9.1-11.17-18.22-16.62-27.4-.75-1.25-1.6-3.47-1-4.28,1.77-2.52.29-3.27-1.49-4.23-1-.54-2.29-1-2.79-1.83-2.29-4-4.25-8.11-6.52-12.09-4.23-7.43-4.28-7.4-11.06-2.35-.57.42-1.43.65-1.74,1.21-.61,1-1.55,2.46-1.26,3.39,2.18,7,4.21,14.09,7.13,20.79,2.08,4.75,5.64,8.83,8.25,13.38,3.55,6.19,6.61,12.65,10.25,18.79,6.25,10.54,12.58,21.06,19.26,31.34,7.84,12.07,16,23.92,24.19,35.78,3.56,5.17,7.75,9.91,11,15.22,2.94,4.72,5.87,6.55,11.22,5C713.93,178.46,717.26,178.09,720.17,181Zm-112.56-70.5a10.11,10.11,0,0,1,1,2.24c.65,7.92,1.5,15.84,1.82,23.78.56,14.12.79,28.25,1.18,42.37.25,8.92.61,17.83.82,26.74.11,4.48.15,9,0,13.44-.25,6.19,2.24,6.54,7.57,7.11,2.64.29,3.49-.36,3.6-2.64.21-4.55.52-9.11.48-13.66-.23-21.8-2.83-43.57-.77-65.39.52-5.44,1.72-10.84,1.92-16.28.19-5.08-.56-10.19-.84-15.29-.94-17.15-4.38-34.24-1.22-51.49a2.38,2.38,0,0,0-.57-1.56q-3.9-5.32-7.87-10.59c-1.61-2.15-3.35-2.17-4.68-.74-.37,2.65-.73,4.69-.94,6.75a122.17,122.17,0,0,0-1,12.35c0,5.12.79,10.23.91,15.35.18,7.22.09,14.45,0,21.68a11.18,11.18,0,0,1-.76,2.75c-.53-17.83-5.56-35.29-2.6-52.74-4.36-.82-6.85,5.51-12.44,3.6L580,73.3l.59.53,10.81-10.34c.79,2.71,1.52,4.3,1.7,5.95.71,6.37,1.35,12.75,1.81,19.14.42,5.71,1.37,11.53.7,17.13A276.93,276.93,0,0,0,594,153.27c.77,14.86,1.37,29.73,2,44.6.29,6.32.63,12.63.83,18.95a19,19,0,0,1-.69,3.72c-.52,3-1,6.06-1.62,9.62,4.26,0,7.37.27,10.39-.15a4.29,4.29,0,0,0,2.81-3c.36-5.7.28-11.43.37-17.15.16-10,.55-20,.45-30-.12-12-.78-24-1-36C607.47,133.05,607.61,122.24,607.61,110.52ZM592.31,221.7q-1-76.44-2-152.42l-1.69-.5c-1.94,1.74-3.95,3.4-5.78,5.25-3.4,3.42-7.18,6.73-4.21,12.44.54,1,.18,2.54.19,3.83q.31,22.29.6,44.56c0,4.68,0,9.36,0,14l-1.19,0q-2.44-30.36-4.89-60.66c-6,.09-8.43,2.94-8.24,8.48.64,19.07,1.74,38.16,1.34,57.22-.16,7.76,2.7,15.47.2,23.28-.6,1.84.36,4.16.46,6.26.49,10.38.71,20.79,1.7,31.12.12,1.29,4.11,2.54,6.48,3.11.79.19,3-1.82,3-2.82-.09-11.47-.49-22.94-.78-34.42-.07-2.55,0-5.1,0-7.66l1.36,0c.55,3.64,1.34,7.26,1.6,10.92.71,10.15,1.12,20.32,1.82,30.47C582.87,221.86,584.37,223,592.31,221.7ZM654.61,134l1.94-.53c.57,1.09,1.63,2.16,1.65,3.25.17,8.46.16,16.93.16,25.4q0,30.44,0,60.87a38.15,38.15,0,0,0,.25,7.26c.6,3.08,2.75,4.47,6,3.8,3.71-.78,5.38-3.1,5.38-6.87,0-16.21.09-32.42,0-48.63,0-4-.79-8-.78-11.94,0-6.86.24-13.71.65-20.55.19-3.06.63-5.84-1.24-8.72-3.7-5.69-7-11.65-10.86-18.17v13.46c-1.18-1-2.22-1.49-2.25-2-.27-3.82-1.19-7.91-.17-11.41a6.15,6.15,0,0,0-1-5.87c-3.68-5.66-7.42-11.28-11.33-17.22a20.19,20.19,0,0,0-.45,3.3c.3,9.52.85,19,.91,28.55,0,6.5-.66,13-.92,19.5-.28,7.11-.67,14.22-.6,21.33.15,18.19.07,36.4,1,54.56.41,7.91,2,12.76,11.72,10.79Zm-16.33,96c0-9.29-.1-18.61,0-27.92q.29-21.47.85-42.91c.34-12.14,1.15-24.27,1.33-36.42.12-8.4-.78-16.81-.66-25.21.09-5.31-.55-10.2-3.39-14.72-2.73-4.34-4.7-9.29-10.3-12.6,0,6.47-.2,12.13,0,17.76.53,12.26,1.59,24.49,1.81,36.75.13,6.53-1.15,13.07-1.58,19.62-.41,6.12-.84,12.26-.73,18.39.16,9,.68,18,1.26,27q1.11,17.5,2.59,35C629.94,229.47,633.59,231.52,638.28,230ZM546,114.09l-1.57-.45c-1.14.93-2.35,1.79-3.39,2.82-1.5,1.46-2.85,3.05-4.3,4.55-.7.73-2.19,1.46-2.12,2,.54,4.59,1.77,9.12,2,13.71.7,12,1.63,24,1.32,36-.33,13.3-.69,26.48,3.09,39.42.24.81-.4,2-.88,2.89-1.38,2.49-.13,5.31,2.62,5.46,2.25.12,4.51,0,8.15,0C547.46,184.77,548.57,149.35,546,114.09Zm126.46,30.32c.44,4.53,1.09,8.1,1.1,11.67,0,19-.1,38.07-.16,57.1,0,4,.23,8.06-.08,12-.46,6,0,6.8,6,6.72,2,0,3.91-.22,6.08-.34,0-5.33.14-10.16,0-15-.52-15-2.06-30-1.43-45C684.45,160.39,678.31,153.23,672.49,144.41Zm14.24,26.1c.5,9,1.22,18,1.45,27.05.28,10.33.82,20.74-.13,31A20,20,0,0,0,691,241.13a1.91,1.91,0,0,0,1.45.88,2,2,0,0,0,1.46-1c1.82-3.82,4-7.49,2.09-12.1a5.68,5.68,0,0,1,.7-4.57c3.56-5.33,1.42-11,1.2-16.49-.33-7.87-2-15.76-1.6-23.57.25-4.72-1.41-7.67-4.19-10.52C690.71,172.37,688.65,171.65,686.73,170.51ZM68.49,371.68l-2,1.29c-1.25-2-3.25-3.81-3.57-5.91-.54-3.44-2.81-3.79-5.18-3.88-3.27-.12-2.18,2.73-2.41,4.47a22.17,22.17,0,0,0-.05,5.15c.36,3.78,2.27,4.65,5.45,2.53,2.13-1.42,4.22-3.84,5.91.51a2.58,2.58,0,0,0,2.2.89q7-1.29,13.94-2.93c.61-.14,1.14-1.14,1.46-1.85.8-1.79,1.47-3.65,1.93-4.83A34.36,34.36,0,0,1,84.4,362c-.64-3.8-2.46-6.2-6.51-6.72-3.78-.49-7.52-1.36-11.31-1.74A5.21,5.21,0,0,0,63,354.9c-.58.55-.61,2.2-.25,3.11C64.52,362.61,66.54,367.13,68.49,371.68Zm641.84-73c-3.33-6.22-12.12-10.61-16-8.51-2.09,1.14-6.82,12.32-6,14.27,2.49,6.23,9.62,8.53,17.63,5.59.22-3.63.45-7.33.68-11l1.66-.1q1,5.14,2,10.27c3.55.43,5.87-.62,7.16-3.75,1.81-4.38,1-7.4-3.61-11.78C712.71,295.2,711.59,296.83,710.33,298.65ZM697,337.38c-6.64-.1-9.48,2.68-10.35,10.08-.33,2.77,3.49,6.58,7.35,7.17,3.31.51,5.38-.7,6.14-4.23a36.84,36.84,0,0,1,2.82-8.83c1.44-2.82.27-3.71-2.09-4.15A21.71,21.71,0,0,0,697,337.38Zm-.12-2.23c5-.66,5.89-2.46,4.51-7.07-.69-2.28.18-5-.08-7.44-.2-1.86-1-5.17-1.69-5.2-2.82-.12-6.63-.22-8.34,1.45-4.14,4-3.9,9.54-1,14.24C691.43,333.09,694.59,333.85,696.86,335.15Zm5,68.11c-.23-3.4-.8-6.4-.55-9.33s1.32-5.92,2.16-9.42a46.82,46.82,0,0,0-6.54.73c-7.37,1.89-9.9,10.94-5.35,16.92C694.9,406.55,698.2,403.36,701.84,403.26Zm6.9-18.22c-4.88,4.2-5.13,9.36-3.83,14.38.49,1.89,3.19,3.48,5.24,4.51.49.25,3.09-2.06,3.45-3.52a13.51,13.51,0,0,0-.05-7.41C712.54,390.15,710.41,387.7,708.74,385Zm-.57-15.51,1,.49c0,1.15-.47,2.68.09,3.37a18.78,18.78,0,0,0,4.66,3.88c.41.26,2.11-.54,2.31-1.15a69.29,69.29,0,0,0,2.75-10.64,4.93,4.93,0,0,0-2.06-3.93c-1.53-.91-3.72-1.78-5,1C710.82,365,709.43,367.21,708.17,369.53ZM506.09,203.65a51.1,51.1,0,0,0,3.65,6.1c.4.51,3,.3,3.12-.11a55.17,55.17,0,0,0,3.31-11.24c.18-1.22-2-3.26-3.52-4-.9-.46-3.39.45-3.93,1.44C507.5,198,507.05,200.59,506.09,203.65ZM58.1,332.16c-3.65,5-4,9.85-.23,15.06,1.35,1.86,2.4,2.46,4,.85C66.08,343.65,63.92,334.62,58.1,332.16ZM713,287.56c.17-1,0-2.42.56-2.83,3.7-2.66,2-6.34,1.91-9.62,0-1.18-1.23-3.25-1.94-3.27-1.49,0-3.63.59-4.42,1.7C705.76,278.24,705.06,285.77,713,287.56Zm-.45,40.13c-.59-3.19-.56-5.35-1.44-7a7.75,7.75,0,0,0-4-3.37c-.62-.22-2.15,1.72-3.08,2.82-2.32,2.74-.9,5.51.52,7.91,1.05,1.75,2.92,3,4.42,4.49C710.29,330.7,711.62,328.89,712.51,327.69ZM58.21,213.41a14.35,14.35,0,0,1,1.6-2.35c3.51-3.37,1.7-6.85,0-10.13-.43-.84-2.17-1.46-3.25-1.39-.73.06-1.67,1.41-2,2.36-.41,1.32,0,2.9-.48,4.2C52.84,210,53.38,212.73,58.21,213.41Zm655,130.69c-1.15-1.57-2.06-3.8-2.94-3.79a5.71,5.71,0,0,0-4.33,2.35,19.06,19.06,0,0,0-1.82,6.94c-.13,1,.59,3.08,1.19,3.19,1.34.25,3.54,0,4.15-.84C711,349.71,711.9,347,713.22,344.1ZM570.48,83l-.62-.79L561,91.87l.86.86Z"/><path d="M506.24,399.24c1.59-2.9,3.67-5.63,4.66-8.72,2.69-8.39-5.76-17.62-14.08-14.76-2.36.81-5,1-8,1.52.68,1.59.93,2.91,1.68,3.79,5.32,6.26,5.38,9.11.16,16.26-2.48,3.41-2.93,3.38-5-.52.6-.55,1.28-1.07,1.86-1.69,6-6.48,3.73-9.35-2.76-13.91-.66-.47-2.11-.78-2.1-1.13.18-5.68-6.86-5.85-8.14-10.69-.29-1.11-4.28-1.76-6.56-1.75-15.37.1-30.74.44-46.1.68-1.72,0-3.61.3-5.14-.28-7.44-2.83-10.19,4.6-15.65,6,.16.58.31,1.17.46,1.75l9.41-1.45c2.11,4.66-3.75,7.72-3.3,12.73a30.59,30.59,0,0,0,3.47-1.09,14.51,14.51,0,0,0,2.32-1.63,14.86,14.86,0,0,1,.57,3.5c-.06.9-.75,1.76-1.32,3l5.65,2.43c.6-1.5,1-2.63,1.48-3.73l7.79,1.8c-.42.9-.65,2.42-1.52,3.07-5.5,4-11.36,2.68-16-2.68-1.41-1.64-4.54-1.76-6.85-2.67a30.26,30.26,0,0,1-3.14-1.64,12,12,0,0,1,2.46-2.33c3.92-2,4-2,2.77-4.76-3-1.39-6.29-1.83-7-3.41-2.41-5.3,4-5.51,5.71-8.8l-3.45-1.58,6.66-7.84c.59,2.28.85,3.32,1.12,4.36l-.06,1.3c9.94.07,19.9.58,29.8.07s19.79-2,29.68-3.12c.28,0,.65-.14.84,0,5,3.56,6.54,0,8.32-3.82.64-1.37,2.45-2.19,4.32-2.76A19.53,19.53,0,0,0,480.2,369c.94,3,3.11,4.36,5.42,3,2.61-1.53,5.52-4,6.38-6.67,1-3,1.86-7.14-2.23-9.57-.76-.46-1.15-1.53-1.95-1.4L480,353c.73-1.28,1.67-2.18,1.51-2.78-1-3.51-6.19-7.37-9.65-6.82-6.06,1-12,2.51-18.1,3.4-2,.29-4.18-1.1-6.26-1.06-10.82.21-21.78,1.44-32.36-1.07-17.24-4.08-34.59-.73-51.84-1.85-4.54-.3-9-1.28-13.32,1.52-1.39.89-4.1-.54-6.17-.38-3.11.24-6.17,1.08-9.29,1.42a20.65,20.65,0,0,1-5.49-.23c-4.7-.8-9.35-2.38-14.06-2.55-10.81-.38-21.65-.11-32.47-.1H262.09c.34,2.51,1.09,4.42.73,6.09-1.21,5.49,1.47,9.55,4.43,13.56a2.74,2.74,0,0,0,1.91.79c8.23.26,16.46.58,24.69.63a58.3,58.3,0,0,0,11.12-.91,111.92,111.92,0,0,0,11.16-3.22l9.46,3.73v1L321,365c-6,1-11.93,2.33-18,2.9a169.35,169.35,0,0,1-17.46.41c-3.72,0-7.44-.73-11.15-.61a98.4,98.4,0,0,0-10.3,1.28c1,4.94,2.11,9,2.69,13.21.51,3.63,2.63,5.49,5.88,5.6,8.13.28,16.27,0,24.39.32,4.53.17,9,1.12,13.54,1.62,2.7.29,5.41.38,9.07.63l3.38,9.87-6.19-3.09-3,4-1.06-.24c0-1.41-.11-2.83,0-4.23.28-2.79-.45-4.26-3.69-4.2-8.86.16-17.72.09-26.59,0-3,0-6-.39-9-.31a58.28,58.28,0,0,0-6.79.93c0,.39-.07.77-.11,1.16l-3-2.27a80,80,0,0,1,.49,9.29c-.07,1.17-1.52,2.25-2.35,3.37-.78-1-2.09-1.95-2.24-3.05-.32-2.39.13-4.88-.08-7.3-.22-2.58-.61-5.32-4.51-5-.81,2.66,2.59,6.38-2.36,8.39-1.79-5.85-3.54-11.37-2.09-17.72.91-4,.25-8.29.26-12.46,0-5.93.07-11.86-.07-17.79-.15-6.52-.53-13-.77-19.57-.4-11-.75-22.07-1.15-33.1-.17-4.7-.44-9.41-.61-14.11-.12-3.14-1.52-4.7-4.8-4.43-5.42.44-10.83.93-16.26,1.14-5.23.21-10.49.32-15.72,0-3-.16-4.12.52-4.26,3.64-.32,7.39-1,14.76-1.89,22.12-3.44-7.84.14-16.76-4.77-24.48a45.86,45.86,0,0,0-.8,7.42c.1,2.08,1.35,4.17-1.46,5.47-.37.17-.44,1.3-.41,2,.52,12.76,1.23,25.51,1.56,38.28.29,10.86.08,21.74.22,32.61,0,2,.79,3.9,1.07,5.87s.34,3.81.5,5.72l-1.57.52c-.76-1.71-2.11-3.39-2.19-5.13-.27-6.11.06-12.25-.14-18.37-.25-7.83-.86-15.66-1.17-23.49s-.39-15.72-.66-23.57c-.32-9.68-.75-19.35-1.09-29a6.74,6.74,0,0,0-.58-3.5c-1,1.35-2.63,2.63-2.77,4.07a141.78,141.78,0,0,0-.89,17.47c.26,10.86,1.17,21.7,1.45,32.55.34,12.91.05,25.83.51,38.74.28,7.94,1.94,15.85,2,23.79.07,5.43-1.38,10.9-2.48,16.29-.16.75-3,1.82-3.29,1.52a18.28,18.28,0,0,1-4.13-6.09c-.33-1,1.65-2.65,2.38-4.11,1.38-2.76,3.49-5.53,3.7-8.41.37-5.21-.57-10.51-.7-15.78-.32-13.59-.35-27.18-.8-40.76-.28-8.41-1.12-16.81-1.67-25.21-.62-9.62-1.11-19.25-1.87-28.86-.13-1.63-.93-3.81-2.15-4.62-3.32-2.2-3.34-5.15-2.63-8.29.79-3.47,4-3.38,6.59-3.49,15.36-.68,30.73-1.26,46.11-1.65,6.49-.16,13,.15,19.5.44,1.69.07,3.34.85,5,1.31,0,.53-.07,1.06-.11,1.6-2.48.22-5,.62-7.43.63-7,0-14.06-.23-21.09-.14-1.29,0-2.55,1.15-3.84,1.73-.76.34-1.7,1-2.29.83-7.8-2.71-15.75-.76-23.63-1-4.68-.13-9.34-.75-14-1.15l-1,1.13c.75,1.12,1.34,3.05,2.26,3.22a68.05,68.05,0,0,0,10.87,1c9.94.22,19.9.41,29.84.32,7-.07,14.1-.54,21.13-1,3-.18,5.94-.93,8.92-1,1.36,0,2.73,1,4.1,1.58l0,1.41c-1.93.44-3.86,1.25-5.79,1.24-3,0-4.12.47-4,4.08.46,12,.18,24.05.44,36.07.23,10.45,1,20.89,1.21,31.34.14,7.1-.29,14.21-.38,21.31-.07,5.9,0,11.81.38,17.79.39-1.75.79-3.5,1.26-5.62l2.11,1.23c.68-1.81,1.93-3.56,1.9-5.31-.08-6.5-.6-13-.92-19.51-.08-1.67,0-3.36,0-5q-.19-16.51-.4-33c-.1-6.69-.19-13.38-.42-20.07-.18-5.14-.66-10.28-.82-15.43a12.1,12.1,0,0,1,.93-4.94,2.9,2.9,0,0,1,2.69-1c3.85,2.25,4.89,9.79,2,13.46-1.93,2.48-.82,11.07,1.11,14.69,2.95,5.53,7.91,6.55,13.26,6.64,10.26.19,20.52.06,30.78.06,5,0,10,0,14.93,0a9.82,9.82,0,0,0,3.76-.56c2.74-1.21,5.33-2.84,8.28-.47a2.29,2.29,0,0,0,1.67.1c12.42-2.71,25-1.72,37.56-1.77,6.13,0,12.27-.23,18.39-.09,9,.21,18,.86,26.94,1,6.21.07,12.42-.64,18.63-.69,14.5-.12,29,0,42.75,0,1.79-3.75,2.76-6.4,4.3-8.67.55-.81,2.47-.67,3.77-1-.43,1-.63,2.24-1.35,3-2.57,2.67-3,13.37-.46,16.06,1.78,1.92,3.66,2.48,6.1,1.07a10.94,10.94,0,0,1,3.83-1.1c2.74-.43,5.65-7.3,4.91-10.73-1.2-5.55-11-11.09-16.9-10.17a9.14,9.14,0,0,1-10.52-7.14c1,0,2.39-.4,2.77,0,4.49,5.4,10.28,2.61,15.52,2.42,3.8-.14,7.55-1.25,11.34-1.81a3.46,3.46,0,0,1,2.42.49c3.63,2.91,5.07.31,5.72-2.54,1.31-5.72,1.07-11.19-4.32-15.16-.78-.58-1.07-1.82-2.2-3.85,6.36,2,8.54,9.82,16.1,6.59-.45-6.47-3.41-13.55,1.24-20l-5.68-1.9c-1.1,2-2.15,3.92-3.22,5.84-1,1.73-1.93,3.49-3,5.17a34.27,34.27,0,0,1-2.12,2.72c-.95-1-2.31-1.78-2.69-2.93-.24-.71.9-2,1.6-2.88,1.62-2.07,3.69-3.86,4.88-6.14.63-1.2.18-3.35-.46-4.77-1.68-3.75-3.74-7.33-5.95-11.54H490.21c4.28,7.93,9,15.27,1.93,23.65,8.4-1.16,11.31-.37,11.15,2.51-4.37.3-8.7.71-13,.82-1.26,0-2.54-.82-3.81-1.26a15.64,15.64,0,0,1,1.85-3c4.94-4.94,5.29-15,.61-19.89-1.87-1.94-5.8-1.85-7.1.63-2,3.82-3.95,7.75-3.1,12.43.39,2.12.07,4.38.07,7.3-.3-.23.12.37.55.38,6,.08,7.65,5.65,11.09,8.84s3.3,7.74,2.18,12c-.32,1.22-1.78,2.14-2.72,3.19l-1-.51a36.75,36.75,0,0,1,.41-4.47c1.48-6.75-1-11.44-7.38-13.94-1.46-.58-2.92-1.17-4.36-1.81-2.5-1.11-3.84-2.53-2.78-5.7.7-2.08.21-4.56.28-6.85.2-6.58,2.91-11.75,8.56-15.27.35-.22,1-.36,1-.65,1.8-6.12,8-10.83,5.88-18.2a4.53,4.53,0,0,1,.18-1.65c4.17,2.17,4.45,9.51.59,17.62,5.17.47,9.78,2,15.1-.27,4.95-2.09,8.87-4,10.8-9.62.55-1.6,5.12-1.87,7.88-2.64a28.75,28.75,0,0,1,4.78-.89c1.21-.12,2.8-.39,3.6.23,4.32,3.31,8.17,6.93,7.33,13.29-.22,1.7,1.1,3.56,1.23,5.38.18,2.69,1,6.26-.38,7.91-1.6,1.93-5.17,2.32-8,3.08-.39.1-1.93-1.77-1.74-2.22.39-.93,1.68-2.24,2.44-2.15,4.47.55,4.82-1.17,3.66-5-.8-2.64-.46-5.61-.68-8.44-.14-1.8-.37-3.59-.57-5.53l-6.28.55c-2.61,6-3.42,11.91,1.67,17.28-3.53.86-6.74-2.31-7-7.14a19.07,19.07,0,0,1,.86-6.3c.81-2.76,1.25-4.87-2.77-4.73-.84,0-1.71-.71-2.29-1-2.4,2.74-5,5.21-7,8.15-1.38,2.12-3.12,5.46-2.34,7.2,1.27,2.84,2.25,6.84,7.65,6.26,10.38-1.11,12.81,1,13.73,11.39.45,5.14-.55,10.43-1.11,15.62-.08.75-1.36,1.37-2.3,2.25,11.1,1.81,12.85,3.43,11.56,11.56-1.2-2-1.77-3.52-2.86-4.52-1.29-1.19-3.09-2.67-4.55-2.55-1.14.09-3.1,2.56-3,3.76.43,3.41,1.7,6.73,2.73,10.06a24.13,24.13,0,0,0,1.37,3.07c-5.35,1.19-8.94-8.25-6.47-17.21-4.17-3-8.5-.52-13.26-.44-.16,2.89-.32,5.67-.47,8.44,0,.29.15.73,0,.84-6.08,4.88,1.47,8.86.35,13.9,5.37-.25,10.44.35,14.94-1,3.1-.91,5.95-2.69,9.38-3.38,1.31-.26,2-4.27,2.7-6.64.24-.79-.24-1.81-.38-2.72l1.48-.61c.85,2,2.58,4,2.4,5.87-.59,6.23-5.41,8.05-11.33,8.65,2.85,4,8.34,5.76,7.76,12.37-1.82-2.16-3-3.64-4.28-5.09-2.53-2.92-4.85-2.85-6.34.74s-2.3,7.71-3.36,11.48c-3.09-2-2.54-6.27.6-14.29L514.13,310l-1.32,1.57c-.49-2.11-1-4.23-1.48-6.33-.43-1.76-.53-3.75-1.45-5.21-2.8-4.43-9-5.57-15.63-3.19,9,1.26,11.82,15.35,5.94,24.69,3.57-.16,7.39.75,9.63-.73s3.13-5.4,5.68-8.31c-.2,1.91,0,4-.66,5.7-3.05,7.94-3.14,7.9-.93,13.61a17.12,17.12,0,0,0,4,1.38c1.92.15,5.15.52,5.62-.36,2.81-5.34,5.8-.72,8.53-.38,1.72.22,3.3,1.62,5.62,2.84-.85.69-1.57,1.73-2.47,1.92-2.61.54-5.3.68-7.95,1.09s-6,5.55-4.49,8.46c1.07,2,1.18,4.54,1.72,6.85-.67-.17-1.78-.15-1.94-.53-2.15-5.1-6.48-10.1-.64-15.67l-7.94-2.17c1.49,5.72-.74,9.78-3.53,13.78-1.14,1.64,2.46,8.36,4.49,8.46,3.7.2,7.53.22,9.48-4,1.09-.09,2.29-.52,3.25-.22,3.74,1.18,5.15.18,4.76-4-.32-3.36-1-6.69-.6-10.75.91.69,2.28,1.2,2.65,2.11,3.48,8.52,2.78,13.38-2.5,18,1.86,2.86-.06,4.23-1.8,6.58-2.46,3.33-3.22,7.9-4.7,11.95-.14.38-.23.79-.34,1.18l-1.3.27c-.36-1.44-1.39-3.14-1-4.28,1.52-4,.47-9.08,4.86-11.93a1.87,1.87,0,0,0,0-1.81,2.85,2.85,0,0,0-2.07-.79c-1.83.19-3.63.63-5.44,1-3.38.67-5.81,1.93-5.52,6.18.11,1.61-1.15,3.45-2.11,5-2.26,3.58-1.95,7.37,1,9.69,2.19,1.74,5.79,2,8.82,2.23,1,.07,2.23-2,3.86-3.66-.53.13-.2-.07,0,0,2.29,1,6.14,3.45,6.57,2.94a31.6,31.6,0,0,0,6-10c2.28-6.67,1.63-7.66-4.31-11.59,1.22-3,2.92-2.23,4.91-.8,5,3.58,3.64,12.16,1.18,17a16.57,16.57,0,0,0-1.47,4.89c-.51,3.35-4.92,5.44-9,5.11a70.57,70.57,0,0,0-13.38.54c-.88.1-1.66,2-2.28,3.2-1,1.85-1.79,3.78-2.62,5.69-1.18,2.74-3.17,3-5.63,1.91Zm-243-82.69c0,4.19-.14,8.52.07,12.83.08,1.63,1.42,3.22,1.41,4.82,0,4,2.28,4.68,5.55,4.67,13,0,26,.09,39,0,3.42,0,6.83-.85,10.25-1,9.36-.39,18.72-.57,28.08-.94,3.69-.15,7.58-1.51,11-.72,13.24,3,26.63,3.15,40.06,3.18,6.32,0,12.64,0,18.93.5,3.12.23,6.19,2.21,9.23,2.09,15-.58,30-1.57,45-2.47,2.81-.17,4.87-1.16,5.12-4.57a16.77,16.77,0,0,1,1.81-6.12c.67-1.32,2.15-2.24,3.55-3.62.53,1.39.79,1.79.7,1.89-4.25,5-1.54,10.52-1.23,15.84.13,2.24,1.31,3.17,3.76,2.84,5.11-.69,6.88-2.5,8.43-9.12a8.11,8.11,0,0,1,1.36-2.19c.59.8,1.73,1.64,1.68,2.4-.16,2.22-.92,4.39-1.2,6.62-.14,1.14.05,3.31.41,3.38,2.75.53,5.86,1.53,8.32.74,6.82-2.21,9.14-12.81,4.63-18.45s-10.24-4.19-16.14-2.94a11.6,11.6,0,0,1,1.14,3.23,11.57,11.57,0,0,1-.86,3.31c-.7-.7-1.45-1.35-2.09-2.1-1.36-1.61-2.6-3.31-4-4.88-2.76-3.09-6.79-5.31-5.63-10.7.4-1.88-1.05-3.22-3.66-2.45a28.17,28.17,0,0,1-8,1.09c-5.33-.05-10.65-.48-16-.75.11,1.28.23,2.64.35,4.09-.7,0-1.24.18-1.47,0-5.68-5-12.59-4.19-19.31-4s-13.32.26-19.95.86c-12.11,1.09-24.15-2.37-36.34,0-5.9,1.11-12.1.82-18.17.81-10,0-20.08-.7-30.11-.44-12.11.31-24.21,1.32-36.32,2-3.4.19-6.81.23-10.21.32-7.49.18-15,.37-21.54-4.32L260,313Zm233.52,54.82c2.36,0,5.88,0,9.39,0a2.18,2.18,0,0,0,1.51-.59,13.56,13.56,0,0,0,2.71-13.31c-1.07-3.51-2.73-4.93-6.23-2.7-.46.29-1.41-.19-2.76-.41l2.85-2.58c-.08-.36-.16-.71-.25-1.07-3,.76-6,1.47-8.95,2.35-.26.08-.36,1.25-.28,1.89C495.33,360.23,496,365.53,496.73,371.37Zm28.58-94.66c3.29-2.17,6.51-9.38,5.56-13.65-.55-2.52.19-6.49-4.34-6.66C522.38,261.6,521.63,272.37,525.31,276.71Z"/><path d="M199.82,227.4c5.94-.28,11.87-.69,17.81-.81,8.36-.17,16.72-.27,25.08-.14,11.24.17,22.48.68,33.72.81,2,0,4.06-1.57,6.12-1.63,7.35-.23,14.71.05,22.06-.18,11.84-.36,23.68-.83,35.5-1.54,6.83-.42,13.63-2,20.44-2,7.95,0,15.89,1.15,23.83,1.83,3.85.33,7.7,1.11,11.52,1,11.26-.28,22.53-1.51,33.76-1.16,6.82.22,11.78-4.8,18.63-4.35s13.61-1,20.44-1.43c1.54-.1,3.13.57,5.27,1-2.51,4-5.88,3.13-8.75,3.26-6.27.3-12.6,0-18.82.66-4.22.47-8.24,2.82-12.46,3.28-10.79,1.17-21.65,2.44-32.48,2.38-11.42-.06-22.83-2.21-34.26-2.35-9.92-.13-19.86,1.27-29.79,2-2.71.19-5.43.38-8.14.45q-21,.54-41.91,1c-10.41.24-20.82.52-31.23.63s-20.57,0-30.85,0c-6.39,0-12.78.24-19.17.14-2.14,0-4.28-.8-6.41-1.24Z"/><path d="M469.23,281.43c-12.47,1.41-24.91,3.28-37.42,4.11-14.82,1-29.61,2.49-44.57.49-9.1-1.22-18.48-.23-27.72-.53-2.36-.07-4.65-1.44-7-1.89a46.4,46.4,0,0,0-9.21-1.14c-15.56.27-31.12.78-46.69,1.12-7.71.16-15.42.16-23.13.2a12.61,12.61,0,0,1-3.85-.3,15.41,15.41,0,0,1-3.22-2c1.11-.67,2.18-1.88,3.32-1.94,5.27-.27,10.56-.3,15.85-.29,12.39,0,24.77.08,37.16.22,9.68.11,19.41-.16,29,.71s19.43,2,29.27,2c10.29,0,20.6,1.38,30.88,1.2,9.37-.16,18.73-1.59,28.09-2.49,8.68-.84,17.35-1.79,26-2.52,1.25-.1,2.57.75,3.85,1.16Z"/><path d="M386.19,56.48c-.69.42-1.34,1.12-2.08,1.22-9.48,1.24-18.95,2.53-28.45,3.53Q344.83,62.36,334,62.84c-10.76.5-21.55.61-32.32,1.11-7.73.36-15.44,1.52-23.16,1.48-6.52,0-12.77,0-19,2.39-3.19,1.24-7.09.74-10.68.85-12.54.39-25.1.54-37.63,1.21-2.22.11-4.47,2.08-6.45,3.53-4.72,3.45-9.11,7.36-14,10.6-6.13,4.11-12.58,7.74-18.92,11.54-.41.24-1,.2-1.93-.47,3.91-2.91,7.86-5.77,11.73-8.75,6.25-4.81,12.58-9.52,18.6-14.6,4.66-3.94,9.94-5.44,15.83-5.57,7-.17,14.06-.1,21.06-.63,10-.76,19.88-2.25,29.85-2.92s20.13-.67,30.2-1.06q12-.46,24-1.17c14.5-.82,29-1.61,43.51-2.64,6.21-.44,12.39-1.48,18.58-2.21a22.92,22.92,0,0,1,2.75,0Z"/><path d="M347.88,176.61c3.68-.52,7.35-1.1,11.05-1.54,7.63-.91,15.24-2.16,22.9-2.53,19.3-.91,38.62-1.34,57.93-2.13,6.11-.25,12.19-1.18,18.3-1.58,3.62-.23,7.28.08,10.91-.06,11.45-.42,22.89-1,34.34-1.37,4.84-.14,7.87,5.81,5.9,10.55a6.62,6.62,0,0,0,.24,4.89c1.33,2.63-.31,4-1.94,4.8-.55.27-3-1.77-3.37-3.1a36.49,36.49,0,0,1-1.33-8.85c-.16-3.23-1.06-5-4.79-4.89-14.57.42-29.15.52-43.72.95-15,.44-30.05,1-45.05,1.77-8.39.44-16.73,1.6-25.11,2.33-10.52.91-21.06,1.73-31.59,2.56-1.48.11-3,0-4.48,0C348,177.82,347.94,177.22,347.88,176.61Z"/><path d="M141.19,355.88c2.37-6.47,4.38-12.43,1-18.69l3.9-3.15-3.49-1.63q1.25-11.45,2.49-22.9c-4.54-1.72-4.53-4.63-.89-9-.18-6.29-.75-11.38-.21-16.33.17-1.55,3.24-3.75,5.17-4,8.2-.94,16.47-1.36,24.73-1.71a15.9,15.9,0,0,1,7.39,1.94c-1.36.57-2.71,1.56-4.1,1.64-7.14.4-14.3.69-21.45.78-8.17.1-8.16,0-8.12,7.9.05,9.28-.25,18.57.08,27.84.43,11.78,1.4,23.55,1.92,35.33a3.7,3.7,0,0,1-2.42,2.72C145.32,356.87,143.34,356.21,141.19,355.88Z"/><path d="M547,243.78l18.19,2.93c7,1.11,14,2.33,21,3.26,6.8.91,13.62,1.74,20.46,2.18,5.85.37,11.73.13,17.6.17,4.65,0,9.33-.25,13.94.19,9.76.92,19.49,2.19,29.23,3.38a5.65,5.65,0,0,1,3.69,2c-.68.31-1.38.93-2,.88-6.08-.4-12.15-1.09-18.24-1.34-2.91-.12-5.85.57-8.78.8-1.25.1-2.72.36-3.73-.15-5.81-2.95-12-2.16-18.1-2.15-4.72,0-9.44-.85-14.16-1-2.44-.08-4.93.92-7.34.74a74.5,74.5,0,0,1-10-1.8c-4-.86-8-2.11-12-2.73-8.73-1.33-17.52-2.29-26.26-3.61-1.44-.22-2.71-1.47-4.06-2.24Z"/><path d="M657.4,302.77c-2.95,0-5.92.2-8.84-.06-2.59-.23-4.82-1.13-7.61.63-1.74,1.09-5-.07-7.5-.34-9-.95-17.88-2.3-26.85-2.86-13.7-.86-27.43-1.1-41.14-1.76-4.94-.24-9.87-.84-14.77-1.48-1.19-.15-2.27-1.08-3.41-1.65.11-.47.21-.94.31-1.41,1.71,0,3.44-.13,5.13,0,5.22.5,10.42,1.28,15.66,1.65,10.1.7,20.21,1.32,30.33,1.76,9.64.41,19.28.64,28.92.81,7.55.13,15.11-.14,22.65.14,2.54.1,5,1.34,7.55,2.07C657.69,301.12,657.54,302,657.4,302.77Z"/><path d="M184.77,288.5H155.18c.59,9.81,1.34,19.26,1.66,28.72.16,4.81-.76,9.65-.68,14.46.09,6.41.81,12.8,1,19.2,0,1.35-1.2,2.73-1.85,4.09-1.15-1.45-3.27-2.9-3.29-4.36-.06-5.41.81-10.82.91-16.24.17-9.76.22-19.53,0-29.29-.18-6.26-1-12.49-1.65-19.88,6.29,0,11.93.08,17.57,0,3.58-.07,7.18-.31,10.75-.69C182.2,284.2,184.37,284.28,184.77,288.5Z"/><path d="M204,306.92a9.1,9.1,0,0,1,.53,1.86q1.46,19.64,2.86,39.28c.62,8.67,1.35,17.34,1.82,26s.79,17.66.88,26.48c0,1.28-1.59,2.58-2.45,3.87-.87-1.47-2.48-2.94-2.47-4.4,0-8.34.9-16.68.65-25-.59-19.34-1.63-38.67-2.53-58-.16-3.34-.53-6.67-.8-10Z"/><path d="M61.09,411c-4.61,5.63-3.16,10.55,3.23,13.05,2.93,1.14,5.73,2.64,8.63,4l4.93-8.9,1.32.52v3.26c4.06-1.45,5.85,2.42,5.06,11.53-4.86.76-3.62-4-5.46-6.19-4.26,2.4-.66,6.86-2.59,9.91-4.47-.76-3.41-4.68-4.52-7.67-2.58,1.1-5.27,1.74-5.28,5.44,0,.74-1,1.48-1.51,2.21-.79-.69-2.19-1.32-2.26-2.08-.49-5.14-2.79-5.09-7-1.45.12-2.08-.23-3.46.31-4.13,2.22-2.79,2.35-5.08.42-8.41C53,416.38,54.76,412.59,61.09,411Z"/><path d="M636.56,275.37c-4.21,3.38-8.72,2.09-12.91,1.78-14.21-1-28.38-2.53-42.58-3.63-13.35-1-26.72-1.77-40.07-2.63-.57,0-1.3.19-1.7-.08-1.51-1-2.92-2.18-4.36-3.29a21.79,21.79,0,0,1,4.87-.75c5.78.37,11.54,1,17.3,1.48s11.67,1.06,17.51,1.55c9.57.8,19.15,1.63,28.73,2.34s19.3,1.25,28.94,2A21.77,21.77,0,0,1,636.56,275.37Z"/><path d="M543.18,373.39c1.33-.08,2.67-.17,4-.23,7.44-.29,14.88-.38,22.3-.92,6-.43,11.92-1.66,17.92-2,3.49-.21,7,.8,10.57,1,9.23.46,18.46.81,27.69,1.1,4,.13,7.93,0,11.9,0,.12.46.23.92.35,1.38-1.09.51-2.18,1.44-3.29,1.47-6.26.14-12.53,0-18.79.07-4.91,0-9.83.25-14.74.22-1.86,0-3.72-.59-5.59-.72a80.7,80.7,0,0,0-8.92-.34c-11.54.49-23.06,1.21-34.59,1.65-3,.12-6-.48-9-.75C543,374.67,543.1,374,543.18,373.39Z"/><path d="M500.48,486.51l-4.23,3.08-.69-.95c-.85,1.67-1.46,3.56-2.67,4.92-.65.73-2.32.56-3.86.86V481l-.3-.1c-.49,2.66-1,5.31-1.42,7.77-3.29-1.67-6.24-3-9-4.65-1-.55-1.57-1.73-2.35-2.62a14.71,14.71,0,0,1,2.57-1.8c2.15-.91,4.36-.64,6.13-3.41,2.18-3.41,4.52.17,6.52,1.92l3.74-3.35v10.14c1.95-2.89,7.95-3.52,8.9-1.43a15.81,15.81,0,0,1,1.77,5.82Z"/><path d="M83.84,335.06c-5.63-6.34-5.36-8.61-1.69-14,3.5-5.12,3.69-11.19,2.47-17.26a13.39,13.39,0,0,1,.14-3.33c1.06.5,2.51.72,3.09,1.55a74.12,74.12,0,0,1,4,7.19c13.66,0,28.11-1.35,42.44.62,0,.43,0,.85.08,1.28-1.43.1-2.85.26-4.27.29-12.73.31-25.46.65-38.19.85-2.41,0-3.86.68-4,3.26a5.23,5.23,0,0,1-.59,1.61c-1.89,4.2-4.91,8.1-2.62,13.23C85.06,331.37,84.24,332.91,83.84,335.06Z"/><path d="M524.83,447.63c.77-3,1.34-5.2,1.92-7.44l1.57-.09c.72,3.54,1.43,7.08,2.27,11.28l-7,.78c.13,1.41.24,2.51.35,3.6-1.1.1-2.32.54-3.27.21-1.95-.66-3.76-1.73-6-2.1l2.79,3.58c-4.74.1-7-2.69-7.08-8.1l1.18.48c1.34-2.91,2.56-5.87,4.05-8.7a30.3,30.3,0,0,1,3-4.09,43.77,43.77,0,0,1,3,4.12C522.78,443.09,523.64,445.16,524.83,447.63Z"/><path d="M666.48,446.71c.41-3.66.65-5.79.88-7.92h1.16c1.42,2.28,2.81,4.58,4.31,6.81.14.2,1-.11,1.95-.22a6.83,6.83,0,0,1-.51-2,23.26,23.26,0,0,1,.61-2.94c1,.41,2.18.57,2.79,1.27a70.74,70.74,0,0,1,4.16,5.84,17.39,17.39,0,0,1-3.4,1.74c-1.2.34-2.82-.32-3.8.25-7.2,4.2-13,.38-18.76-3.21a5,5,0,0,1-2-3.78c0-1.55,1.24-3.06,1.94-4.58a35.56,35.56,0,0,1,4.75,3.74c.6.66.36,2.11,1.27,3.13-.12-1.12-.23-2.24-.42-4Z"/><path d="M266.05,433.48l-2.21-3.07-5.09,2.66,2.72-4.84-.9-.69c-1.23,1.86-2.93,3.57-3.58,5.61-.79,2.52-2.18,3.08-4.09,2-2.75-1.56-7.46-1.73-6-7.64l3.32,2.43,18.39-12.43,1,.41-5.06,8.19c3.05-.7,6.48-4.16,8,1.13C273.41,430.36,271.45,432.21,266.05,433.48Z"/><path d="M475.47,381c2.83,6.44,8.34,18.09,10.37,20.32-3.64,2.3-10.15-.22-11.4-5-1-3.65-2.74-4.38-6.1-4.08-2.37.21-4.82-.6-7.23-.65-5.1-.12-10.19,0-15.29-.11-.87,0-1.72-.93-2.58-1.43.88-.48,1.75-1.33,2.64-1.35,6.68-.13,13.37,0,20.05-.13,3.41-.06,7.08.1,8.08-4.53A14.41,14.41,0,0,1,475.47,381Z"/><path d="M443.92,405.84c.31-1.55.63-3.09,1.17-5.73l-11.89-1.44c3.72-4.7,5.32-10.28-1.39-14.59-2.58-1.66-4.1-.5-5.82,2.91l-3.54-1.79c1.44-2.68,2-5.66,6.12-5.17,5.12.6,9.2,3.22,10.21,7.07.76,2.89,1,6.1,2.55,8.53.9,1.43,3.75,1.74,5.8,2.33a19.82,19.82,0,0,0,3.8.36c-.27,1.46-.12,3.24-.92,4.32-1.21,1.66-3.08,2.84-4.67,4.23Z"/><path d="M139.27,335.84c-7.79,0-15.61-.36-23.37.11-6.14.37-12.2,2-18.34,2.53-2.4.2-4.92-1.1-7.39-1.72.62-.78,1.17-2.16,1.87-2.24,3.67-.44,7.38-.51,11.08-.79,4.32-.33,8.64-.87,13-1.06s8.42,0,12.58,0c.35-1.16.66-2.22.76-2.56,2.61.71,4.68,1.17,6.67,1.85a36.73,36.73,0,0,1,4,1.93C139.82,334.51,139.55,335.17,139.27,335.84Z"/><path d="M502.09,212.73H490c.63,1.54,1,2.56,1.45,3.57l-.75.69c-.89-.7-1.83-1.35-2.68-2.09-2.88-2.53-4.83-2.23-6.63,1.22-1.18,2.27-2.8,4.59-3,7-.23,2.25.88,4.76,1.85,7,.72,1.65,2.16,3,3.68,5-5.13-.16-10-4.08-9.61-7.62.77-6.22,2.18-12.42,8.24-16C489.13,207.55,495.62,209.62,502.09,212.73Z"/><path d="M82.81,275.93c4.75-.59,6.07,2.95,7.5,6.25,10.53,2.43,21.39-2.19,31.86.86v1.41c-2.88.15-5.77.33-8.66.43-7.56.26-15.12.47-22.68.72a10.66,10.66,0,0,0-2.94.33c-2.4.8-3-.46-3.39-2.47C84.09,281.13,83.48,278.84,82.81,275.93Z"/><path d="M630.89,425.28c-17.15,3.28-34.57,2.59-51.88,3.44-.15-.42-.3-.84-.44-1.26,1.32-.56,2.63-1.55,4-1.62,9.69-.48,19.39-.74,29.09-1.13,4.42-.18,8.84-.51,13.26-.71,2-.09,4,0,6,0C630.88,424.42,630.88,424.85,630.89,425.28Z"/><path d="M274.53,447.86a52.16,52.16,0,0,1-6-2.82c-4.27-2.76-8.88-2-13.49-1.7a10.55,10.55,0,0,1-2.76-.83l11.58-9.65c.74,2.72,1.28,4.75,1.87,6.94l3.16-1.25c1.11,2.87,2.31,5.19,5.27,1.77a2.32,2.32,0,0,1,2.21-.24c.6.34,1.31,1.56,1.1,2C276.46,444.43,275.18,446.62,274.53,447.86Z"/><path d="M58.81,241c-3.63-1.59-5.33-4.46-4.22-10.64.69-3.87,3.07-7.45,4.77-11.12a1.94,1.94,0,0,1,1.33-1c5-.3,10-.51,15.51-.77-1.74,4.68-10,1.88-8.92,8.39-.77,0-1.11.11-1.32,0-1.56-.89-3.1-1.82-4.64-2.74-1.16,2-3.16,3.92-3.31,6C57.73,233.09,58.49,237.15,58.81,241Z"/><path d="M452.51,440.74c-1.57-.57-4.52-1.24-4.49-1.68a46.27,46.27,0,0,1,1.74-7.77l1.77-.72c-2.68-2.23-5.43-4.38-8-6.76-.38-.37.25-1.81.59-3.76a36.93,36.93,0,0,0,4.4,4c2.25,1.46,5,2.27,7,4a11.63,11.63,0,0,1,3.2,5.44c.37,1.23-.7,1.3-2.93.63-.9-.28-2.14.6-3.44,1,.48,1.51.84,2.69,1.21,3.87C453.23,439.59,452.87,440.16,452.51,440.74Z"/><path d="M335.61,363.61c4.33.85,8,2.18,11.73,2.11s6.85-.94,9.56,2.3c.31.37,2-.43,3.87.17-1.42,1.18-2.73,3.19-4.28,3.4C345.53,373.06,338.1,370.31,335.61,363.61Z"/><path d="M250,419.12c-1.37-.72-2.87-2.19-4.09-2-2.25.36-4.33,1.71-6.47,2.64-1.13-3.71.18-10.15,2.76-11.06,2.37-.84,5.2-2.24,5.67,2.38l4.87-2.76c-.32,2.8-.56,4.94-.81,7.09C251.24,416.65,250.59,417.88,250,419.12Z"/><path d="M520.09,421.35a42,42,0,0,0-4.17-5c-2.88-2.53-3.64-4.57.31-6.81.58-.32.59-2.24.35-3.31a9.85,9.85,0,0,1,3.24-10c.7-.64,1.92-.71,2.9-1a18.72,18.72,0,0,1-.42,2.91c-.93,3.18-2.09,6.31-2.89,9.52a7.21,7.21,0,0,0,2.27,7.73c.81.72.62,2.8.52,4.22C522.16,420.16,521,420.61,520.09,421.35Z"/><path d="M586.37,455.24c-4.29-4.93-8.47-1.5-12.74-1.09a9.3,9.3,0,0,1-5.5-1.8c-1.07-.72-1.4-2.52-2.07-3.84,1.57,0,3.78-.65,4.59.14,2.67,2.6,4.79,1.82,6.87-.37.67-.71.8-1.93,1.66-4.18,3,3.3,5.62,6.15,8.22,9Z"/><path d="M206.89,156.82c4.12,0,7.47,0,10.83,0,1.5,0,3,0,4.51-.19,3.35-.34,6.68-.9,10-1.06,1.37-.06,2.77.66,4.16,1-1,1-1.84,2.7-2.85,2.77-8,.55-16,.92-24,1C207.05,160.43,206.1,158.66,206.89,156.82Z"/><path d="M310,435.21c.39,3.24-2.52,5.16-11.63,5.83,2.14,1.31,3.64,2,4.74,3,.77.75,1,2.06,1.48,3.12-1.21.28-2.69,1.16-3.57.74a24.45,24.45,0,0,1-6.31-4.27c-.75-.72-.88-2.72-.47-3.84.34-.9,1.82-1.69,2.93-1.95C301.42,436.84,305.73,436.06,310,435.21Z"/><path d="M156.45,416.26l2.18,6-.92.5-11.7-10c.24-.41.48-.82.73-1.23l9.88,2.43-3.42-5.59,1.53-1.19c2.65,3.08,5.44,6.05,7.82,9.33.39.53-1.06,2.4-1.79,3.94l-3.35-4.83Z"/><path d="M520.88,163.78c4.79,6.56,2.44,13.71,3.33,20.33.72,5.38.87,10.84,1.1,16.27a31.22,31.22,0,0,1-.62,5.22l-1.6,0C522.36,191.81,521.63,178.06,520.88,163.78Z"/><path d="M547.52,456c3.39-1.92,5.73-3.42,8.24-4.57a4.37,4.37,0,0,1,3.31.12c1.38.66,2.5,1.86,4.83,3.69-2.56.43-4.36.71-6.15,1-2.51.47-5,1.14-7.52,1.4-1.81.19-4,.41-5.4-.43s-2.55-3.07-2.31-4.45c.27-1.65,2.14-3,3.32-4.55l1,.64C547.06,450.83,547.24,452.8,547.52,456Z"/><path d="M739.8,449.87a41.89,41.89,0,0,1,5.91,2.8c1.61,1.1,4.09,2.74,4,4.06-.1,2.31-1.75,4.61-3,6.78-.24.43-1.69.61-2.26.31-2.4-1.24-5.81-11-4.92-13.75C739.67,449.84,740,449.7,739.8,449.87Z"/><path d="M507.75,423.15c1.78,3.78,1.56,7.74.57,11.78-.24,1-.36,2.05-.53,3.08a24.85,24.85,0,0,1,2.9-.59c1.07-.08,2.35-.27,3.16.22a2.69,2.69,0,0,1,.77,2.54,3.74,3.74,0,0,1-2.76,1.42,44.31,44.31,0,0,1-8.05-.91c-.8-.17-1.59-1.44-1.9-2.36-.13-.4,1.18-1.12,1.53-1.84a27.76,27.76,0,0,0,2.57-6.24c.44-2.25.1-4.65.1-7Z"/><path d="M296.24,430.81c-2.17,4.88-5.73,6.22-10.63,4.25-5.19-2.08-6.31-3.7-5-7.39l8.37,5.21c.13-.19.26-.39.38-.59a10.3,10.3,0,0,1-2.14-1.41,26.47,26.47,0,0,1-2.11-3c1.16-.13,2.45-.64,3.47-.31C291.1,428.4,293.5,429.62,296.24,430.81Z"/><path d="M175.15,411c2.76.5,5.19,1.24,7.64,1.29,3.61.08,9.55,3.62,11.19,7.15C185.06,420.9,174.72,415.74,175.15,411Z"/><path d="M152.84,361,181,359.08c.67,2.48.73,4.07-3.29,3.71-3.72-.34-7.54.71-11.32.66-4.49-.06-9-.65-13.45-1C152.88,362,152.86,361.5,152.84,361Z"/><path d="M575.44,427.64c-8.09.3-16.17.63-24.27.81-.47,0-1.35-1.18-1.35-1.8a2.22,2.22,0,0,1,1.54-1.56c7.82.08,15.64.3,23.46.52.18,0,.35.39.53.6Z"/><path d="M181.45,580c2.46-5.52,6.12-5.4,9.58-4.55,2.77.68,4.87.57,7.14-1.31s4.63-3.05,8.15-1.41c2.21,1,5.52-.3,8.53-.17-2.55,1.53-4.71,4.44-8.44,2.5-3.5-1.82-6.19-.76-8.75,1.73-.78.76-2.09,2.1-2.53,1.88C190.75,576.5,186.62,578.4,181.45,580Z"/><path d="M322.12,386.33c9.11,1.7,16.34,8.84,14.35,12.27a65,65,0,0,1-6.63-2.13c-1.94-.83-5.14-.93-3.56-4.7.2-.48-.82-1.55-1.39-2.26C324,388.42,323.05,387.39,322.12,386.33Z"/><path d="M201,406.67c-.64-4.05-1.56-8.09-1.83-12.16-.32-4.8-.07-9.63-.07-14.57C202.51,381.72,204.15,399.87,201,406.67Z"/><path d="M466.22,447.71l-3.52.32a20.1,20.1,0,0,1,.86-3.31c.5-1.16,1.05-2.67,2-3.18a7.25,7.25,0,0,1,4.52-.57c.46.1.72,2.43.6,3.69-.13,1.45-1.21,2.86-1.15,4.26.2,4.53-.57,5.38-6,5.29Z"/><path d="M188.29,140.18l29-2.25c-1.45,2-2,5.41-6.1,3.08-.49-.28-1.34.12-2,.15l-20.7,1C188.43,141.49,188.36,140.83,188.29,140.18Z"/><path d="M642.64,441.1c-1.38,5-2.77,6.17-21.78,3.74,2.2-1.26,3.28-4,7.29-2.39,2.79,1.16,6.58,0,9.92-.32A34.77,34.77,0,0,0,642.64,441.1Z"/><path d="M616.06,446.36c-5,5.66-14.72,6.21-18.37,1.75-.73-.9-.65-2.45-1-3.7,1.38.16,3.41-.2,4,.57,3,3.75,6.43,3.55,10.39,2.13A24.65,24.65,0,0,1,616.06,446.36Z"/><path d="M568.82,41.73a12.28,12.28,0,0,1-2.65.63c-6.67,0-11.69,3.39-16.36,7.67-.59.54-1.95.23-2.95.32.27-.86.28-2,.86-2.51a40.55,40.55,0,0,1,4.54-3.08l-1.68-2.49,18-2.39Z"/><path d="M710.46,246.87l-4.72,5.91c-.8-7.1-1.49-13.19-2.26-20.07C711,235.81,705.31,243.54,710.46,246.87Z"/><path d="M95.44,431.21c2.87,4,5.62,7.78,9.25.51l1,1.51c-.47,1.48-.85,3-1.42,4.44s-1.39,3-2.11,4.5C94.72,440.58,93.38,438.74,95.44,431.21Z"/><path d="M302.51,418.24c-4.6-2.28-9.45-4.21-13.7-7-1.72-1.14-3-4.24-.76-6.13L303.12,417C302.92,417.42,302.71,417.83,302.51,418.24Z"/><path d="M700.39,446.35c-1.92,1-3.74,2.62-5.77,2.94-3.78.58-6.5-1.8-8.27-4.86-.64-1.1-.11-2.88-.11-4.35l1.19-.08c1.69,1.81,3.07,4.39,5.15,5.23,1.93.78,4.62-.29,7-.54Z"/><path d="M715,261.22c-.73-5.65,1.37-11.9-4.17-16.21,3.67-1.44,5-.8,6.45,2.6C719.54,252.8,718.58,259.72,715,261.22Z"/><path d="M362.36,355.15c-.37-.69-1.1-2-1.06-2,3.21-2,6.46-3.94,9.8-5.71.2-.11,1.3,1.11,1.73,1.86.8,1.41,1.41,2.92,2.53,5.3-1.69,0-3.48.53-4.62-.1-3.13-1.74-5.83-1.76-8.47.71Z"/><path d="M771.63,454.81a52.73,52.73,0,0,1-2.42,7.35c-.54,1.1-2.2,1.65-3.36,2.45,0-1.64-.07-3.28.11-4.9.07-.58.78-1.09,1.5-2l-5.72-1.58C764.47,452.74,768.17,452.42,771.63,454.81Z"/><path d="M705.45,409.21v17.64c-1.7-1.56-3.37-2.36-3.44-3.27a67.65,67.65,0,0,1,0-12.16C702.31,409.15,704.14,408.21,705.45,409.21Z"/><path d="M689.87,427.93c.86,2.43,3.12,5.65,2.29,7.12-2.07,3.65-5.61.54-9.14.18a53,53,0,0,1,.83-6.56c.18-.73,1.5-1.18,2.3-1.76a18.79,18.79,0,0,1,.53,2.85,30.2,30.2,0,0,1-.23,3.41l1.61.19c.27-1.69.53-3.39.8-5.09Z"/><path d="M440,437.31c-.16-2.27-.31-4.32-.46-6.37l1.39-.53c1.68,2.26,3.36,4.52,5,6.73-4,4.05-6.13,4.35-10.17,1.33-.75-.56-.84-2-1.24-3a19,19,0,0,1,2.95.54A18.09,18.09,0,0,1,440,437.31Z"/><path d="M728.73,459c-6.18.14-10.76-3.79-10.52-8.71C723.21,449.75,726.19,452.15,728.73,459Z"/><path d="M68.85,387.54c2.85,2.22,6,3.86,7.93,6.4,1.86,2.39-1,3.09-2.74,3.35-3.17.48-7.65-4.81-6.82-8C67.39,388.68,68.23,388.19,68.85,387.54Z"/><path d="M475,287.52c-4.41-2.6-5.23-6.87-2.46-11.39,3.09-5.06,5.33-6.52,7.71-5C474.8,277.86,474.8,277.86,475,287.52Z"/><path d="M460,490.29c-3.84-6.87-3.15-9.67,2.26-13.3-.19,1.5-.33,2.67-.5,4.11l3.67-.62Z"/><path d="M494.82,454.43c-2.4.47-3.85.84-5.32,1a16,16,0,0,1-2.58-.12,12.6,12.6,0,0,1,1.21-2.34c2.18-2.68,4.41-5.32,6.71-7.89.44-.49,1.29-.61,2-.89.25.88.91,1.89.69,2.63C496.66,449.69,495.54,452.44,494.82,454.43Z"/><path d="M133.05,408c-4.06,0-7.45.17-10.79-.11-.89-.07-1.66-1.51-2.49-2.32.75-.69,1.44-1.85,2.27-2C125.94,403,130.4,401,133.05,408Z"/><path d="M506.16,399.16c.54,1.88.51,3.58-2,3.63-4.89.09-9.79,0-16.09,0,2.08-1.25,3.34-2.56,4.73-2.73,4.46-.51,9-.6,13.46-.85Z"/><path d="M337,384l-16.35-7.88C323.52,372.86,334,377.13,337,384Z"/><path d="M475.27,426.65l13.82,9.82C484,438.81,475.12,432.46,475.27,426.65Z"/><path d="M722.54,461.23c-3.14,1.63-6.56-.18-9.45-5.49-1.35-2.49-.83-4.68,1.75-5.49Z"/><path d="M398.39,397.81l4.85-2.69c-1.85-1.34-3.67-2.66-5.5-4l.63-1,9.27,1.59C406.86,397.58,403.53,400,398.39,397.81Z"/><path d="M565.39,535.65c-.94,2.65-1.61,4.56-2.56,7.26-4.05-1.37-2.16-7.2-6.53-8.76C561.36,531.08,563.45,534.2,565.39,535.65Z"/><path d="M650.67,448.13c-.89-2.45-5.79-1-3.76-5.46.12-.26-2.2-1.63-3.88-2.82.75-.88,1.74-2.73,2.34-2.61,1.45.3,3.29,1.21,3.92,2.42C650.5,442,653.29,444.29,650.67,448.13Z"/><path d="M489.78,406.25c4.46-2.78,6.11.64,7.56,2.73,1.83,2.64,1.94,5.83-1.58,9.26C495.06,413.21,495.18,408.31,489.78,406.25Z"/><path d="M154.62,398.44c-5.56,1.73-9.5.85-13.13-1.57a2.76,2.76,0,0,1-.82-2.51,2.61,2.61,0,0,1,2.25-1.21C146.53,394.61,150,396.32,154.62,398.44Z"/><path d="M478.81,540.56c7-1,13.7-4.58,21.07-3,.06.44.13.89.19,1.33l-21,3C479,541.44,478.88,541,478.81,540.56Z"/><path d="M251.91,462.62q-.6,3.79-1.18,7.57l-1.4-.1c-.15-.78-.3-1.56-.43-2.19-1.92.44-4,1.46-5.71,1.11-1.5-.29-2.7-2.16-3.61-4,1.93.35,4.06,1.38,5.72.88,1.91-.58,3.41-2.52,5.09-3.87Z"/><path d="M304,452.69c-4.55,2.7-11.82.85-13.51-3.11-.4-.93.22-2.29.38-3.45l2.56,1.44c2.38,1.34,4.73,2.73,7.15,4A23.93,23.93,0,0,0,304,452.69Z"/><path d="M134.2,434.1c-2.92-2.82-5-4.39-6.47-6.38s-2.24-4.23-3.32-6.37l1.3-.64c2.7,2.48,5.66,4.75,8,7.56C134.59,429.38,134,431.69,134.2,434.1Z"/><path d="M267.1,465.14c-.91,1-1.63,2.52-2.78,3.05-2.95,1.35-6.08,2.27-9.42,3.47l3.52-9.32c1.25,8.07,5.25,2.16,7.89,1.78Z"/><path d="M167.88,399.76,175.15,417C169.74,415,166.11,406.64,167.88,399.76Z"/><path d="M84.68,189.11h16.19C98.87,192.69,88.83,193.15,84.68,189.11Z"/><path d="M636.17,499.83l4.88,13c-4.15-.27-5.27-3.32-6-6.15-.56-2.29-.11-4.83-.11-7.26Z"/><path d="M161.8,398.88c1.85,5.56,3.43,10.32,5,15.09l-1.16.35C161.68,410.47,159.33,402.76,161.8,398.88Z"/><path d="M87.54,404.11l15.93.84c0,.59,0,1.18-.08,1.77-5.32-.12-10.74,1.77-15.93-1.05C87.49,405.15,87.51,404.63,87.54,404.11Z"/><path d="M697.87,457.61l9.77,10.24C703.6,469,697.09,463,697.87,457.61Z"/><path d="M22.25,408.67c5.83,6.37,5.81,6.77,0,11.08Z"/><path d="M282.49,457.59a37.09,37.09,0,0,1,.83-6.88c.27-.92,2-1.38,3.13-2,.57,1.32,1.88,2.9,1.54,3.91-.7,2-2.31,3.72-3.54,5.56Z"/><path d="M494.88,436.73l2.56-13.5c1.43,2.23,3.42,4,3.13,5.17-.79,3.11-2.57,6-3.95,8.91Z"/><path d="M83.37,201.85c-1.61-2.9-4.13-5.4-.74-8,.68-.53,3.28.1,3.81.94C88.44,197.92,86.37,199.9,83.37,201.85Z"/><path d="M382,468c4.47,3,4.13,4.34-2.89,8.07l-2.93-4Z"/><path d="M120.21,188.76c-5.85,3.12-16,3.31-18,0Z"/><path d="M509.38,435l4.83-7.72c.54,1.54.62,2.59,1.18,3.12a7.47,7.47,0,0,0,2.55,1C516.73,435.58,515.39,436.25,509.38,435Z"/><path d="M443.64,489.05c1.8.26,3.74.19,5.36.87a9.15,9.15,0,0,1,3.57,3.21c.28.39-.65,1.85-1.31,2.58-.24.28-1.42.07-1.91-.28-2.32-1.68-4.55-3.48-6.81-5.24Z"/><path d="M725,443c-.18-1.25-.43-2.51-.5-3.77a4,4,0,0,1,.34-2.41c.35-.48,1.85-.85,2-.61,1.74,2.13,3.3,4.4,4.91,6.64-.9.45-1.8,1.24-2.72,1.28a14.84,14.84,0,0,1-3.7-.79Z"/><path d="M738.71,435.93q1.11,3.17,2.24,6.33l-6.43.8,2.25-7Z"/><path d="M755.87,445.32l-6-2.72a40.69,40.69,0,0,1,3.64-4.41c.25-.24,1.62.7,2.48,1.1l-.81,1.1,3.26-2.05,1,.71Z"/><path d="M703.8,454.77,714,465.13c-5.26.44-9.92-3.82-11.24-9.38Z"/><path d="M280.69,568.2c-1.54,1.35-4,2.08-5.45-.59-1.65-3.12-3.47-4.55-7.38-3,3.56-4.52,5.62-4.43,8.39-.56C277.27,565.51,278.85,566.53,280.69,568.2Z"/><path d="M712.21,474.61l-2.89.49-.91-1.08,9.73-8.93c1.35,3,.44,4.42-6,9.57Z"/><path d="M212.6,464.37V451C217,451.61,217.52,457.88,212.6,464.37Z"/><path d="M607.93,531.58l11-.54-2.91,4.86L607.73,533C607.8,532.55,607.87,532.07,607.93,531.58Z"/><path d="M303,424.92c-5.18,1.61-8.41.42-11.21-2.33a2.19,2.19,0,0,1-.54-1.86c.17-.45,1.26-1.06,1.62-.89C295.92,421.28,298.93,422.87,303,424.92Z"/><path d="M452.51,440.74l1.07-1.72,4.5-2.69,1.5,1.07-1.74,5.87C456,442.66,452.9,444.49,452.51,440.74Z"/><path d="M16.15,414.65c1.6,5.17,3.06,9.89,4.63,15C15.51,426.89,13.73,420.88,16.15,414.65Z"/><path d="M287.8,460.77c4.68-1.07,9.22,1.25,9.71,5.17.1.8-.51,1.7-.8,2.56-.67-.53-1.36-1-2-1.58C292.38,464.87,290.07,462.79,287.8,460.77Z"/><path d="M534.59,451.21c-2.58-2.45-.74-7.41,4.44-11.76C539.72,444.6,536.14,447.45,534.59,451.21Z"/><path d="M306,461.73c-5.32,1.17-7,.36-9.29-4.73l4.58-1.28-2.6,3.24Z"/><path d="M50.83,426c1,5.73-.86,7.54-9.37,8.7Z"/><path d="M111.65,589.86l12.07-1.64c-2.18,3.9-5.26,3.89-8,4.06-1.56.11-3.19-.74-4.79-1.16Z"/><path d="M183.58,150.88l15.21-1.23C195.73,153.09,190.49,153.69,183.58,150.88Z"/><path d="M528.34,487.38c-4,5.08-9.08,3.31-11.64-3.4C521.19,483.47,522.9,491.11,528.34,487.38Z"/><path d="M140.67,424.05c-2.66-1.73-5.39-3.37-7.94-5.26-.49-.36-.29-1.68-.4-2.55.85.06,1.93-.19,2.51.24,2.48,1.86,4.82,3.92,7.2,5.91Z"/><path d="M262,409.65c.87,2,2.23,3.55,1.87,4.44-1.3,3.11-2.54,6.55-7.38,8.06C258.38,417.76,260,414.19,262,409.65Z"/><path d="M301.92,405.28c-4.08,2.44-9.58,1.47-11-1.27a3,3,0,0,1,.08-2.28c.13-.31,1.28-.51,1.75-.29,1.39.66,2.62,1.7,4,2.33A43.76,43.76,0,0,0,301.92,405.28Z"/><path d="M306.71,455.8c2-3.59,3.63-6.57,5.36-9.69,2.85,1.82,1.88,4.09.68,6.21S309.86,456.43,306.71,455.8Z"/><path d="M126.74,384.69,116,384c-.14-.49-.27-1-.4-1.47A34,34,0,0,1,121,381C123.34,380.72,126,380.46,126.74,384.69Z"/><path d="M479.5,465.61c2.32,5.79-.23,10.26-5.8,10Z"/><path d="M361,470.32l8.82-7.69c.1.89.82,2.54.28,3.47C368.06,469.68,363.61,471.55,361,470.32Z"/><path d="M541.21,445.52c.67,4.89-1.24,8.54-5.59,8.56,1.49-3.35,2.81-6.28,4.12-9.21Z"/><path d="M592.91,447.61c-5.83-.08-8.52-2.83-8-7Z"/><path d="M357,471.64,369.88,474C367.32,477.22,358.64,475.82,357,471.64Z"/><path d="M467.47,426.94l7.75,9.18C469.58,436.21,467.24,433.7,467.47,426.94Z"/><path d="M307.3,402.43c4.31.4,5.47,3.84,7.4,7.06-3.79.25-7-2.63-7.89-6.6Z"/><path d="M330.1,550.73c3,3.28,6.59,4.67,11.1,2.48l.06,2c-2.49.61-5.15,2.06-7.4,1.59-1.9-.4-3.34-3-5-4.69Z"/><path d="M204.55,468c-.15-2.86-.42-5.72-.39-8.57,0-1,.78-2,1.21-3,.74.9,2.2,1.88,2.1,2.67-.4,3.13-1.29,6.2-2,9.29Z"/><path d="M771.14,465.45a48.76,48.76,0,0,1,1.67-5.58,3.19,3.19,0,0,1,2.08-1.67c.54-.08,1.54.85,1.83,1.54C777.77,462.23,774.2,465.91,771.14,465.45Z"/><path d="M575.13,538.52c-3.61.6-3.67.49-5.06-8.07C573.14,530.31,573.62,531.08,575.13,538.52Z"/><path d="M534.61,426.57l12,1.29C542.29,431,538.45,430.61,534.61,426.57Z"/><path d="M449.78,449.19c1.06,2.32,2.46,4.17,2.56,6.09.06,1.14-1.94,2.38-3,3.58l-1.13-.69c0-2.48,0-5,0-7.43C448.23,450.54,448.59,450.35,449.78,449.19Z"/><path d="M120.07,435.67,118.34,426C124.19,429.18,124.57,432.85,120.07,435.67Z"/><path d="M250,419.12c.64-1.24,1.29-2.47,1.93-3.7.79.77,2.14,1.46,2.27,2.32.34,2.32-3.56,6.11-7.06,6.62C248.18,422.35,249.07,420.73,250,419.12Z"/><path d="M334.84,446.17,341.1,452c-3.08,2.79-4.92-.27-6.56-1.57-.93-.74-.8-2.81-1.15-4.27Z"/><path d="M768.71,430.43l7.95,8.86C771.84,440.08,768,435.54,768.71,430.43Z"/><path d="M260.92,262.67c1.06.77,2.82,1.39,3,2.35.43,2,0,4.2,0,6.32-.83-.58-2.1-1-2.41-1.78a35.76,35.76,0,0,1-1.35-5.58C260.42,263.54,260.67,263.11,260.92,262.67Z"/><path d="M344.5,549l6.85,10.37-1.68,1.13q-3.48-5.16-7-10.3Z"/><path d="M546.26,489.65c-3.53,2.88-6.11,5-9.41,7.71C538.17,491.71,541,489.22,546.26,489.65Z"/><path d="M448,416c1.78,1.55,3.28,2.46,4.15,3.79.48.73-.12,2.16-.23,3.28a46.51,46.51,0,0,1-5.45-3.69C446.24,419.17,447.41,417.32,448,416Z"/><path d="M306.81,402.89c-3.36.89-6.54.77-9.48-1.51,2.71-2.85,7.18-2.27,10,1.05Z"/><path d="M244.79,453.83c-2-2.74-3.93-5.48-6-8.34C243.08,444.88,245.86,448.26,244.79,453.83Z"/><path d="M74.31,447.76c1.91,2,3.87,3.89,5.68,5.95a1.41,1.41,0,0,1-2.11,1.82c-1.78-2-3.42-4.22-5.1-6.35Z"/><path d="M146.38,406.49c-6,1.49-8.69.21-10.07-5.17Z"/><path d="M349.07,480.15,356.6,485l-.86,1.39c-3.06-.73-6.32-1.13-7.8-4.61Z"/><path d="M360.55,553.19c1.3,2.88,2.59,5.76,3.94,8.77C360.08,562,358.92,559.9,360.55,553.19Z"/><path d="M262.58,456.49l-6.46-7.86c3.39-.57,5.05,1.47,6.46,3.34.87,1.15,1,2.89,1.4,4.36Z"/><path d="M347.19,454.45l-4-6.68c1.49-.13,3.36-.84,4-.24C349,449.31,350.06,451.62,347.19,454.45Z"/><path d="M712.21,474.61l-.08.05,9.31-4,.69,1.23-9,5.44C712.84,476.46,712.53,475.53,712.21,474.61Z"/><path d="M87.82,433.68c-3.8-2.12-2.66-4.93-2.27-7.42.07-.48,1.39-1.12,2-1A2.19,2.19,0,0,1,88.9,427C88.75,429,88.28,431,87.82,433.68Z"/><path d="M460.39,414.24a15.14,15.14,0,0,1,.63-1.77c2.36.08,4.71.18,7.06.27-.05.66-.12,1.89-.16,1.89C465.55,414.57,463.17,414.42,460.39,414.24Z"/><path d="M285.21,560.74l9.08,4.33c-3.24,2.2-5.4,1.45-9.61-2.87C284.86,561.71,285,561.22,285.21,560.74Z"/><path d="M352.76,490.34c-2.73-.69-5.49-1.31-8.17-2.16-.43-.14-.54-1.3-.79-2,.73-.19,1.61-.73,2.18-.5,2.44,1,4.79,2.2,7.17,3.33Z"/><path d="M274.77,474.44l6.89-7.21c.24.88,1,2.14.65,2.6C280.58,472.13,279.42,475.55,274.77,474.44Z"/><path d="M286.22,473.35c.76-2.84,1.53-5.69,2.3-8.53l1.07-.28c.35,1.78,1.33,3.74.87,5.29s-2.33,2.92-3.58,4.36Z"/><path d="M59.6,409.16c-2.14-.5-4.31-.94-6.4-1.58-.31-.09-.59-1.63-.39-1.76,1-.63,2.4-1.68,3.14-1.37,1.56.67,2.8,2.1,4.17,3.22C60,408.16,59.77,408.66,59.6,409.16Z"/><path d="M14.07,419.44c.47,3.45,1,6.89,1.35,10.34,0,.11-1.19.61-1.38.43a3.33,3.33,0,0,1-1.25-1.91c-.13-2.9,0-5.8,0-8.7Z"/><path d="M224.13,422.45l5.9-7.69,1.09.78c-.26,3.77-2.69,6.06-5.7,7.95Z"/><path d="M399,402.16a11.11,11.11,0,0,1-8.77-1.75c.12-.56.24-1.12.37-1.68l8.78,1.56C399.3,400.92,399.17,401.54,399,402.16Z"/><path d="M535.37,483.41c-.55,2.57-1.1,5.13-1.71,7.94-3.51-2.52-3.25-4.68.48-8.26Z"/><path d="M619.08,512.07l-3.68-5.2,4.76-2.13v6.9Z"/><path d="M543.26,535.63c-3.66,2.72-7,2.25-10-.17.06-.41.11-.81.16-1.22Z"/><path d="M650.6,509.53c-4.79-2.94-5.45-5.19-2.6-8.61C648.85,503.75,649.57,506.12,650.6,509.53Z"/><path d="M440.21,496.32l-6.32-3.56C437.92,490.43,440.27,491.2,440.21,496.32Z"/><path d="M149.17,365.67l-3.6,2.78c-.74-1-2-2-2.06-3-.07-.79,1.5-2.51,2.05-2.4C146.68,363.25,147.61,364.44,149.17,365.67Z"/><path d="M222.84,414.43,217.63,422,216,420.87l5.13-7.66Z"/><path d="M74,186.64a14.26,14.26,0,0,1,1.4.87c1.08.87,2.13,1.78,3.19,2.67l-.24,1.39c-1.52-.24-3.3-.07-4.48-.83-.85-.56-.92-2.33-1.34-3.56Z"/><path d="M109.55,437.94c2-2.78,3.7-5.05,5.4-7.3.12-.16.51-.13.77-.18C116.16,435.3,114.21,437.92,109.55,437.94Z"/><path d="M608.48,509.11a29.13,29.13,0,0,1-2.07-5.08c-.08-.34,1.89-1.15,3.52-2.08v6.5Z"/><path d="M157,468q.63-4.7,1.27-9.39l1.67.21c-.26,3.16-.53,6.32-.79,9.48Z"/><path d="M324.69,381.4c-4.12,5.36-7.18,6.11-9.14,2.73Z"/><path d="M191.44,147.62l5.65-4.56,1.17.72c-.82,1.45-1.39,3.16-2.55,4.26-.83.8-2.45.78-3.71,1.12C191.81,148.65,191.63,148.14,191.44,147.62Z"/><path d="M381,356.44l-2-6.74,1.56-.54c3.09,1.29,2.67,4,2.28,6.66Z"/><path d="M366.62,368.74a38.61,38.61,0,0,1-4.35-2.95,2.49,2.49,0,0,1-.17-2.18c.75-.38,2.12-.68,2.58-.26a25.33,25.33,0,0,1,3.05,3.88Z"/><path d="M575.05,495.58l-2.92,6.54c-.85-1.94-2-3.42-1.68-4.05.82-1.47,2.37-2.53,3.63-3.76C574.4,494.73,574.72,495.16,575.05,495.58Z"/><path d="M362.27,355.22l6.25,2.3-.6,2.14a39.76,39.76,0,0,1-5.67-1.52c-.32-.13.05-1.95.11-3Z"/><path d="M297.64,557.5l8.08,2.14c-.17.66-.33,1.32-.49,2l-8.15-2C297.26,558.94,297.45,558.22,297.64,557.5Z"/><path d="M43,424.11c.95,4.39-2,8.07-6.08,7.32Z"/><path d="M395.33,360.87,399.1,354c.8,1.81,1.72,3,1.44,3.45a40.16,40.16,0,0,1-3.73,4.56Z"/><path d="M441.9,458.8l-5.11-4.34c.19-.44.38-.89.56-1.33,1.24.28,2.81.2,3.62.95,1,1,1.48,2.6,2.18,3.94Z"/><path d="M327.35,451.51l5.2,5c-3.19,1.89-3.94,1.37-6.29-3.68Z"/><path d="M275.18,454.26l-8-1.49.33-2,8.1,1.18C275.46,452.74,275.32,453.5,275.18,454.26Z"/><path d="M481.46,415.32c1.16,2.6,1.87,4.19,2.59,5.78l-.83,1q-2.33-1.46-4.63-2.93Z"/><path d="M386.09,407.43l7.83,2.23c-.18.63-.37,1.25-.56,1.87l-8.1-2.19Z"/><path d="M567.78,494c-.91,1.53-1.77,3.11-2.81,4.55-.12.16-1.31-.47-2-.73l2.31-5Z"/></svg>