<svg id="publicdomainvectors.org" xmlns="http://www.w3.org/2000/svg" viewBox="0 0 317.72 251.21"><defs><style>.cls-1{fill:#ed824c;}.cls-1,.cls-2,.cls-3,.cls-4,.cls-5,.cls-6,.cls-7{fill-rule:evenodd;}.cls-2{fill:#f96;}.cls-3{fill:#ed7e47;}.cls-4{fill:#fff;}.cls-5{fill:#ffebe0;}.cls-6{fill:#8f3d22;}.cls-7{fill:#1a1a1a;}</style></defs><title>jupiter 02</title><path class="cls-1" d="M161.55,32.48c3.45,0,6.57,4.15,7,9.26S166.43,51,163,51s-6.56-4.15-7-9.27,2.08-9.26,5.53-9.26Zm42.91,0c-3.45,0-6.57,4.15-7,9.26S199.58,51,203,51s6.56-4.15,7-9.27S207.91,32.48,204.46,32.48Z"/><path class="cls-2" d="M131.61,127.24a182.74,182.74,0,0,1-43.42,11.11c-14,1.79-28-4.17-38-16.22s-15.11-28.94-13.8-46a12.15,12.15,0,0,1,5.69-9.8,8.43,8.43,0,0,1,9.83,1.06Q69.11,82.05,85.39,98.27L92.53,97a99.62,99.62,0,0,0,37.55-15.37,22.44,22.44,0,0,1,19.75-2.85,249.54,249.54,0,0,1,33-8.51,247.76,247.76,0,0,1,35.8,9.45,26.4,26.4,0,0,1,6.79-4.78l21.61,19.84a215.68,215.68,0,0,1,35.59,42.29,47.12,47.12,0,0,1-22.42,69.33,9.89,9.89,0,0,1-13.4-10.63q3-20.82,7.62-41.37l-4.15-5.89a112.89,112.89,0,0,0-16.43-18.55c-2.43,26-5.83,51.64-9.88,77.13H141.73C137.54,180.69,134.05,154.12,131.61,127.24Z"/><path class="cls-3" d="M131.61,127.24a182.74,182.74,0,0,1-43.42,11.11l12-5.43a106,106,0,0,0,34.31-24.72l3.71,7.73a32.9,32.9,0,0,0,41.71,16.38l11.75,3.83-11.75,48.7-41.46.61c-2.75-19.27-5.08-38.66-6.86-58.21Zm116.58,18.35a112.72,112.72,0,0,0-10.78-12.3V96.92L241,104a73.43,73.43,0,0,1,7.22,41.56Z"/><path class="cls-4" d="M216.84,68.4l-7.05,22.42a154.63,154.63,0,0,1-79.25,92.44c-4.86,23.65-9.27,43.1-8,68H247.83c-1.5-28.66-1.72-50.16-14.13-77.65l4.63-14.79a117,117,0,0,0-6.15-85.05Z"/><path class="cls-5" d="M211.36,251.21h36.47c-1.5-28.66-1.72-50.16-14.13-77.65l4.63-14.79a116.2,116.2,0,0,0,3.45-55.09c-.8,40.46-16.94,75.22-61.85,81.16l5.15.61a40.28,40.28,0,0,1,26.28,65.76Z"/><path class="cls-2" d="M249,196.26l-4.07.13A11.28,11.28,0,0,0,234,206.57q-.47,4.71-.51,9.43a5.32,5.32,0,0,0,5,5.35l2.95,10.5a4.52,4.52,0,0,0,8.81-.51l16.15-9.55a5.1,5.1,0,0,0,1.77-7l-6-16.23Z"/><path class="cls-2" d="M51.55,68.51l1.74-3.68a11.29,11.29,0,0,0-4.08-14.34q-4-2.57-8.16-4.75a5.32,5.32,0,0,0-7,2L23.33,45.55a4.51,4.51,0,0,0-3.57,8.06l1.12,18.74a5.16,5.16,0,0,0,1.73,3.53,5.1,5.1,0,0,0,3.73,1.25L43.5,79.22Z"/><path class="cls-2" d="M173.58,48.78l-.46,4.95a102.6,102.6,0,0,1-4.67,22.4L183,89.57l14.56-13.44a102.6,102.6,0,0,1-4.67-22.4l-.46-4.95-9.43.47Z"/><path class="cls-6" d="M183,0c16.53,0,29.92,11.69,29.92,26.11a24.16,24.16,0,0,1-7,16.83,19.15,19.15,0,0,1,1.82,8.13c0,11.9-11.06,21.55-24.7,21.55S158.31,63,158.31,51.07a19.15,19.15,0,0,1,1.82-8.13,24.16,24.16,0,0,1-7-16.83C153.09,11.69,166.49,0,183,0Z"/><path class="cls-4" d="M190.55,54.31c-.61,3.16-3.75,5.57-7.55,5.57s-6.93-2.41-7.54-5.57Z"/><path class="cls-2" d="M183,23.84c8.51-10,20.63,4.2,20.63,17.69S194.4,46.29,183,46.29,162.38,55,162.38,41.53,174.5,33.83,183,23.84Z"/><path class="cls-2" d="M183,49c2.32,0,4.22-1.25,4.22-2.78s-1.9-2.79-4.22-2.79-4.21,1.25-4.21,2.79S180.69,49,183,49Z"/><path class="cls-6" d="M187.13,31.88l2.17-.2a14.75,14.75,0,0,1,10,2.8l-.71,2-1.69-.29a34,34,0,0,0-9.56-.28Z"/><path class="cls-7" d="M192.1,43.41c1.46,0,2.66-1.56,2.66-3.47s-1.2-3.48-2.66-3.48-2.65,1.56-2.65,3.48S190.64,43.41,192.1,43.41Z"/><path class="cls-6" d="M178.88,31.88l-2.17-.2a14.75,14.75,0,0,0-10,2.8l.71,2,1.69-.29a34,34,0,0,1,9.56-.28Z"/><path class="cls-7" d="M173.91,43.41c1.46,0,2.65-1.56,2.65-3.47s-1.19-3.48-2.65-3.48-2.66,1.56-2.66,3.48S172.45,43.41,173.91,43.41Z"/></svg>