<svg id="Layer_1" data-name="Layer 1" xmlns="http://www.w3.org/2000/svg" viewBox="0 0 348.14 436.99"><defs><style>.cls-1,.cls-2{stroke:#000;stroke-miterlimit:10;stroke-width:0.04px;}.cls-2{fill:#fff;}.cls-3{fill:#231f20;}</style></defs><title>fire4</title><g id="g3"><path id="path5" class="cls-1" d="M115.76,223.56C89.23,206.24,67.52,193.28,49.81,184s-30.68-14.36-39.6-15.62C3.4,156.88.05,147.24,0,139S5,124.05,10.21,119.19s12.13-8.13,21-9.57L120,161.2c9.29-19.29,18-36.32,27-52.2s22.68-24.55,25.82-42c2.88-17.61.07-38-8.43-62.35,13.21,12.42,21.17,26.13,24,42,2.69,15.7-6.88,39.06-7.2,52.17s1.47,21.42,5.39,25.77a100.3,100.3,0,0,0,11.38-32.36,87.82,87.82,0,0,0-1.19-33,105,105,0,0,1,12,27.58,127.91,127.91,0,0,1,4.21,31.79,63.53,63.53,0,0,0,3.6-21,73.83,73.83,0,0,0-3.6-22.18,20.22,20.22,0,0,1,9,9c2.34,4.24,3.85,9.46,4.82,16.2l21.56-34.78c8.14-1.12,14.29-1.12,18.61,0s6.63,3.28,7.2,6.59c-9,14.22-13.6,22.57-14.4,25.2s7.17-6.37,10.19-9.61a85.64,85.64,0,0,0,7.81-9.58,55.48,55.48,0,0,1,7.17,17.39,41.19,41.19,0,0,1,0,16.77c-5.15,8.86-9.65,16.46-13.79,22.79a172.18,172.18,0,0,1-10.76,15l56.95-27.61c4.14,2,8.64,4.5,13.79,7.2s14.9,5,16.81,9c1.55,4-3.85,8.64-6.63,15s-5.86,13.86-9.57,22.79a116.34,116.34,0,0,0-30,13.18c-10.22,6.15-20.7,16.92-30.6,23.4a147.92,147.92,0,0,1-28.76,14.4c.68,1.37.43,3.56-.62,6.59a68.36,68.36,0,0,1-6,11.37c5.9,5.26,15.44,18.07,28.76,39s30.06,49.1,51,85.75c1,10,1,18.18,0,25.2s-5.26,9.4-6,16.17,3.49,20.48,1.8,24c-1.84,3.17-6-1-12.57-4.21s-20.88-12.21-27-15-6.23.94-9.57-1.8-6.66-7.81-10.23-15c.4,11.77,0,20-1.18,25.2-1.26,5-3.17,6.15-6,5.4s-10.26-5.15-11.37-10.19c-1.23-5.22,3.92-11.2,4.21-20.41s-.86-20.74-3-34.78c-10.19-14.25-19.84-28.37-29.38-43.16s-18.68-29.59-27.58-45c-6.15,2.73-11.66,3.49-16.81,2.41s-9.65-4.07-13.79-9a472.94,472.94,0,0,0-51.55,39.6,335,335,0,0,0-40.17,42c-11.67,0-21.17.32-28.8.57s-15.84,4.47-16.78,1.23,8.39-12,11.38-21a155.71,155.71,0,0,0,6-33,254.32,254.32,0,0,1,94.14-67.14c-1.8-3-3.6-6-5.4-9Z"/><path id="path7" class="cls-2" d="M227.94,103.89a48.07,48.07,0,0,1,4.46,17.71c.29,6.56-1.33,15.34-1.94,21.35s-1.84,9.76-1.7,13.75a20.45,20.45,0,0,0,2,9.54l26.39-14c6.55-11,11.85-19.9,16-27.25s7.24-11.52,8.71-16.27.29-8.21-.28-12.35a63.82,63.82,0,0,0-3.64-13.21c-7.6,7.56-13,12.67-16.6,15.73-3.52,2.88-4.42,4.18-4.5,2.23s1.08-8.92,3.68-13.75S267,77.4,272.29,71.89a59.12,59.12,0,0,0-12.89-4.21,27.56,27.56,0,0,0-10.4-.29c-6.92,12.67-11.88,21.89-15.45,28.08s-5.4,8.89-5.61,8.42Z"/><path id="path9" class="cls-1" d="M238.3,108.1a50.52,50.52,0,0,1,5.91-14A189.43,189.43,0,0,1,258.53,75c.65-.54-6.51,9.51-9.82,16s-8.1,19.22-9.83,22.21c-1.73,2.81-1.55-1.94-.58-5.08Z"/><path id="path11" class="cls-1" d="M237.19,134c2.12-5.43,10.83-24,12.09-25.27,1-1.08-3.27,12.78-5.36,18.25-2.2,5.29-5.83,11.92-7,13.21s-1.84-1,.29-6.19Z"/><path id="path13" class="cls-1" d="M275.67,94.35c-.79.11-10.65,9.83-14.33,15.16s-8.6,15.91-7.85,16c.76-.18,8.54-11.13,12.35-16.31S276.25,94.28,275.67,94.35Z"/><path id="path15" class="cls-2" d="M231.28,169.34c8.64-4.75,18-9.76,28.37-15.16,10.48-5.58,23.62-12.13,33.44-17.13,9.61-4.93,17.39-9,23.87-12.35-1,6.91-1,11.77,0,15.16s3,4.71,6.19,4.5q-4.75,7.13-5.07,11.23c-.26,2.73,1,4.32,3.67,5-2.45,3.09-3.06,5.9-2,8.42s3.85,4.61,8.42,6.48c-13.17,4.25-24.4,9.07-34,14.87s-14.54,13.72-23.33,19.4a146.71,146.71,0,0,1-28.9,14,154.19,154.19,0,0,0-2.53-30.92,80.78,80.78,0,0,0-8.17-23.58Z"/><path id="path17" class="cls-1" d="M271.75,153.32c6.66-3.56,20.37-10.55,27-13.18,6.41-2.73,14.51-4.64,11.52-2.8-3.2,1.8-21.27,9.75-29.77,13.75s-19.62,9.32-21.06,9.83C257.92,161.13,265.09,156.85,271.75,153.32Z"/><path id="path19" class="cls-1" d="M256.3,180.86c6.63-3.28,25.64-12.13,34.82-15.73,9-3.67,20.91-8.32,18.82-5.62-2.37,2.74-30.63,21.24-32,21.93-1.3.46,24.52-16.92,24.41-18.29-.33-1.3-17.17,6.8-25.56,10.4s-20.88,9-24.41,10.41c-3.42,1.11-2.63,0,3.92-3.1Z"/><path id="path21" class="cls-1" d="M253.49,198.57c5.87-3.09,25.93-12.13,28.37-12.67,2.2-.43-8.78,6.73-14.61,9.83A171.39,171.39,0,0,1,247,203.61c-2.31.4.5-2.12,6.47-5Z"/><path id="path23" class="cls-2" d="M318.94,127.22a24.25,24.25,0,0,0-.86,8.14c.22,2.23.5,4.24,2,5.61s3.45,2,6.44,2.27a37.7,37.7,0,0,0-5,7.56c-1,2-1.29,3.38-.86,4.79s1.4,2.37,3.09,3.35c-2.16,3-2.77,5.79-1.69,8.42s3.57,4.9,7.89,7.06A198.39,198.39,0,0,1,337.74,155c2.52-5.47,6.3-9.68,7.3-12.63s.08-3.32-1.94-4.79c-2.23-1.55-6.62-2.85-10.69-4.47s-8.57-3.74-13.47-5.9Z"/><path id="path25" class="cls-1" d="M331.29,142.66a18.68,18.68,0,0,0-3.67,7.31,10.78,10.78,0,0,0,.57,6.73c.65-2.95,1.12-5.47,1.7-7.84S330.86,144.43,331.29,142.66Z"/><path id="path27" class="cls-1" d="M324,132.55a5.18,5.18,0,0,0,1.69,5c1.41,1.19,3.6,1.8,6.73,2a11,11,0,0,1-5-2,3.32,3.32,0,0,1-1.15-3.35l6.48.83c-2.88-.83-5.79-1.66-8.71-2.52Z"/><path id="path29" class="cls-1" d="M334.93,137.59a5.17,5.17,0,0,0-1.41,3.67,23.28,23.28,0,0,0,.58,6.44c.25-3.34.54-6.73.83-10.11Z"/><path id="path31" class="cls-2" d="M231,245.8a25.79,25.79,0,0,0-12.38-4.21c-4.76-.5-11.06,0-15.16,2s-7.49,6.77-9,10.37a12.89,12.89,0,0,0,.29,10.69c-3.46,2.95-6.41,5.15-9,7a36.47,36.47,0,0,1-6.44,3.64c21.09,34.63,36,58.32,45.5,72.18,9.36,13.71,10.37,12.31,10.65,9.83.26-2.81-5-15.45-9.25-25.56-4.5-10.19-16.77-33.41-16.85-34.53,0-1,12.1,19.55,16.56,28.08s7.1,14.58,9.29,21.64c1.95,6.73,2.74,9.57,3.35,19.65s.79,23.69.58,41a21.54,21.54,0,0,1,7.31,6.19,16.87,16.87,0,0,1,3.06,8.42c.32-7.88.46-16.88.57-27.82s.76-27.08-.29-37.08c-1.22-10-7.3-20.92-7-22.18s6.38,8.53,8.14,14.62c1.58,6.12,1.87,14.72,2.27,21.63.36,6.73.32,14.44.29,18.79-.11,4.18-.26,6.34-.58,6.48.11,1.41.9,3.28,2.52,5.91a106,106,0,0,0,6.77,9.54c-.94-10.69-.25-18.8,1.65-24.73s5.26-9.51,10.12-10.66c-7.09-18.76-9.61-28.23-7.56-28.94s8.53,7.59,19.66,25c1.83.18,3.09-.76,3.92-2.81s1.08-5.22.83-9.58a46.28,46.28,0,0,0,9.29,4,35.77,35.77,0,0,0,9,1.41c-5.8-11.31-13.18-24.41-22.72-39.89s-25.3-39.53-34-52.53-14.47-21.24-17.71-25L231,245.8Z"/><path id="path33" class="cls-1" d="M238.05,273.34c13.75,18,24.7,32.69,33.41,44.93S286,339.4,289.71,345.81c-11.56-13.71-21.35-26.31-30.06-38.48a330.39,330.39,0,0,1-21.6-34Z"/><path id="path35" class="cls-1" d="M225.38,270.54c11.81,15.4,21.13,28,28.65,38.48s12.5,18.07,15.63,23.58c-9.9-11.77-18.25-22.54-25.74-33A300.42,300.42,0,0,1,225.38,270.54Z"/><path id="path37" class="cls-1" d="M208.28,258.15c8.21,10.77,14.72,19.48,19.94,26.82s8.68,12.56,10.87,16.45c-6.91-8.17-12.74-15.69-17.92-23a202.69,202.69,0,0,1-12.89-20.3Z"/><path id="path39" class="cls-2" d="M265.27,411.51a83.59,83.59,0,0,1-.25-17.39c.43-4.82,1.4-8.2,3.34-11a15,15,0,0,1,8.14-5.9c-4.1-10.48-6.48-17.5-7.27-21.35s-.07-4.79,2.52-1.65S280.89,372,284.38,375s6.23-1.26,7.85-3.1c1.44-1.91,1.87-4.57,1.15-8.13a44.83,44.83,0,0,0,9,3.38,55.44,55.44,0,0,0,10.11,1.66,61.46,61.46,0,0,1,.58,16,131.12,131.12,0,0,1-3.67,18.25c-1.33,4.68-4,4.86-4.21,9.57s3.09,15,2.55,18c-.61,2.73-1.65,1.11-6.48-1.12-5.07-2.45-17.28-9.57-23.29-12.63s-10.19-4.83-12.67-5.37Z"/><path id="path41" class="cls-1" d="M276.5,399.16a32.47,32.47,0,0,1,11.27-15.73c5.22-4,11.77-6.44,19.94-7.59l-.29,8.17L304,378.64a67.42,67.42,0,0,0-17.68,9C281.72,391.1,278.48,394.81,276.5,399.16Z"/><path id="path43" class="cls-1" d="M301.81,387.1c-5.44,1.52-9.47,3.68-12.39,7a20.7,20.7,0,0,0-5,12.35l8.14,7.31-6.16-8.42a67.09,67.09,0,0,1,8.43-13.22c2.52-3.09,4.86-4.68,7-5Z"/><path id="path45" class="cls-1" d="M302.64,397.76a12.11,12.11,0,0,0-6.45,4.5,17.48,17.48,0,0,0-3.09,8.42,30.71,30.71,0,0,1,4.21-8.13,15,15,0,0,1,5.33-4.79Z"/><path id="path47" class="cls-1" d="M299.54,413.78c-1.19,0-2,1-2.52,2.52a19.7,19.7,0,0,0-.83,7,25.11,25.11,0,0,1,2.52-5.9,3.91,3.91,0,0,1,2.52-2.24C300.69,414.72,300.11,414.25,299.54,413.78Z"/><path id="path49" class="cls-2" d="M238.3,409.57c-1.22.54-2.66,4.68-2.81,6.73-.32,1.91-.5,3.31,1.41,5.33s8.21,7,9.83,6.73c1.51-.47,0-6.66-.54-9.25a17.8,17.8,0,0,0-3.39-6.45c-1.4-1.58-3.27-3.81-4.5-3.09Z"/><path id="path51" class="cls-2" d="M122.31,234.28a74.82,74.82,0,0,0,8.14,14.91,208,208,0,0,0,14.9,19.08l-42.7,32-48.6,48.85s7.53-10.51,7-17.14-9-9.25-9-9.25c.61-5.36-.29-9.22-3.1-12.1s-10.26-3-13.5-4.75-5.25-4.06-5.9-6.48a275.22,275.22,0,0,1,43.56-38.19A246.21,246.21,0,0,1,122.31,234.28Z"/><path id="path53" class="cls-1" d="M129.91,259.84c-1.66.4-23.12,14-32.3,20.52S74,298.54,75.4,298.33c1.59-.51,21.6-14.15,30.89-20.52C115.51,271.15,131.2,259.56,129.91,259.84Z"/><path id="path55" class="cls-1" d="M123.17,274.75c-2.7,1.19-28.58,17.53-38.77,24.15-10.19,6.45-24.48,15.3-21.92,14.33s26.85-14.44,37.08-20.81,26-18.75,23.61-17.67Z"/><path id="path57" class="cls-1" d="M86.09,305.06c-3,1.3-22.93,13.1-24.15,14.33-1.12,1,12.92-5.19,17.13-7.6,3.93-2.52,9.83-8,7-6.73Z"/><path id="path59" class="cls-1" d="M73.71,317.44c-3.46,2.13-9.79,6.3-10.12,7.27-.14.8,5.26.15,8.72-1.94,3.27-2.19,10.69-9.79,11-10.69s-6.3,3.17-9.58,5.36Z"/><path id="path61" class="cls-2" d="M28.78,301.42A16.82,16.82,0,0,0,36.09,309c3.24,1.66,9.76.18,12.06,2.81s2.59,6.77,1.15,12.67c6-.07,9.15,2,9.54,6.16S56.61,341,51.25,349.45c-7.74.25-14.62.57-21.06,1.11s-15.09,2.6-17.43,2c-2.3-.79,1.51-2.48,3.67-6.19s7-10.8,9-16,1.65-10.65,2.27-15.44S28.57,305.64,28.78,301.42Z"/><path id="path63" class="cls-1" d="M35.23,315.18a14.29,14.29,0,0,1,7,6.19,35.72,35.72,0,0,1,4,11.77,23.32,23.32,0,0,1-1.16,10.69,50.75,50.75,0,0,0-2.23-17.14A26.05,26.05,0,0,0,35.23,315.18Z"/><path id="path65" class="cls-1" d="M36.63,327.27a13.16,13.16,0,0,1,2.56,8.43,22.93,22.93,0,0,1-3.39,10.11A43.89,43.89,0,0,0,37.49,336,31,31,0,0,0,36.63,327.27Z"/><path id="path67" class="cls-1" d="M32.71,329.79c1,.79.86,2.38-.29,4.75a53.82,53.82,0,0,1-7,9.29,51,51,0,0,0,5.07-7.59A22.82,22.82,0,0,0,32.71,329.79Z"/><path id="path69" class="cls-2" d="M119.21,162.93c-9-4.46-20.7-10.87-35.38-19.37S51.75,124.66,31.3,112.1c-7,1.73-12.56,4.36-17.13,8.17S4.59,126.82,4.05,134.6s1.8,18.25,7,32A202.69,202.69,0,0,1,43.4,177.84c10.29,4.53,16.88,9,29.48,16.3s27.47,16.24,45.51,27.22c-3.89-11.13-5.76-21.38-5.62-31.18A62.6,62.6,0,0,1,119.21,162.93Z"/><path id="path71" class="cls-1" d="M15.28,163.22a21.69,21.69,0,0,1-3.92-8.42,47,47,0,0,1-1.12-12.06A53.6,53.6,0,0,0,13.34,154,65,65,0,0,0,19,165.2C17.73,164.55,16.51,163.9,15.28,163.22Z"/><path id="path73" class="cls-1" d="M24.25,165.81A17.12,17.12,0,0,1,21,158.86a37.49,37.49,0,0,1-.94-10,45.93,45.93,0,0,0,2.56,9.29,56.83,56.83,0,0,0,4.6,9.25C26.26,166.89,25.25,166.35,24.25,165.81Z"/><path id="path75" class="cls-1" d="M29.57,168.8a12.67,12.67,0,0,1-2.37-5.08,24.6,24.6,0,0,1-.69-7.23,35.24,35.24,0,0,0,1.88,6.73A40.77,40.77,0,0,0,31.73,170Z"/><path id="path77" class="cls-1" d="M40.3,123.62c8.68,4.57,35.17,19.12,46.05,25.56,10.72,6.3,21.67,13.93,17.71,12.35-4.36-1.84-31-15.81-42.7-22.47S38.5,124.59,35,121.93s-3.2-2.85,5.33,1.69Z"/><path id="path79" class="cls-1" d="M51,138.81c7.41,3.35,19.62,9.94,29.23,15.45s30.2,18.25,27.5,17.38c-3.16-1.15-33.19-16.88-45.21-23.29s-24.41-13-26.39-14.61,7.45,1.62,14.87,5.07Z"/><path id="path81" class="cls-2" d="M185.31,269.13a21,21,0,0,1-12,7.78c-4.89,1-11.59,1.44-16.77-1.19s-8.86-7.09-14.29-14.76c-5.51-7.85-13.86-19.91-18.26-30.89a111.06,111.06,0,0,1-7.88-34.27c-.61-10.87,1.73-21,4.5-29.77s6.41-12.67,11.81-22.47c5.36-10,13.35-25.3,20.23-36.57,6.7-11.38,16.2-21.6,20.2-30.67,3.81-9.11,3.27-13.9,3.09-23.26s-4.71-28.62-4.21-32.87,4.61,3.1,7,7.6,5.69,12.17,6.77,19c.79,6.55-.33,12.24-1.41,20.8-1.26,8.72-4.57,22.61-5.36,30.6-.76,7.74-.61,11.09.58,16A33.66,33.66,0,0,0,185,127.15c-14.4,20.09-24.87,36.21-32,49.5-7.09,13.07-9.72,19-10.41,28.94s1.23,19.77,5.91,30.17c-3.78-10.58-5.15-20.56-4-30.06s4.68-16.06,10.69-27c5.9-11.09,18.5-28.41,24.73-38.2,6.05-9.76,8.53-13.36,11.77-19.94A108.3,108.3,0,0,0,199,101a126.62,126.62,0,0,0,2.52-19.94c.29-5.19,0-8.64-.83-10.66,1.66,5.51,3.21,10.84,4.5,16.27a155.09,155.09,0,0,1,3.35,16c.76,6.38,1.23,13.5,1.41,21.93a490.28,490.28,0,0,0-27.51,44.1c-7,12.74-11.91,21.42-13.79,32s0,22.36,2.27,30.35c2.2,7.81,5.62,13.28,10.66,16.56-5.19-5.76-8.43-12.6-10.12-21.06s-2.84-18.14.29-29.23,11.59-25.13,18.54-37.08,17.39-25.74,22.21-34.53,4.83-12.16,5.87-18c.86-6,0-12.27-.25-16.84a38.92,38.92,0,0,0-1.69-9.83A218.52,218.52,0,0,1,224.26,103c1.91,6.91,4,11.56,4.22,19.37s-2.67,19.26-2.81,27c-.33,7.53-.18,12,1.4,18.54s5.65,13.07,7.89,20.78c2,7.56,4.71,15.8,4.5,25s-2.34,19.18-6.16,30.27a25.42,25.42,0,0,0-15.59-5.4c-5.87-.07-14.9,2.23-19.19,4.83s-5.54,6.73-6.58,10.18a14.07,14.07,0,0,0,0,9.58c-2.2,2-4.4,4-6.63,6Z"/><path id="path83" class="cls-3" d="M210.51,157.75c-9.57,9.39-15.66,17.93-18.83,26.13s-2.48,15.23.29,22.47,8,14,16,20.52c7.35-13.07,11.27-23.19,11.77-30.93s-7.45-8.82-9-15.15S209.14,166.75,210.51,157.75Z"/><path id="path85" class="cls-3" d="M166.7,182.48c-6.45,5-9.58,11.88-9.54,20.77s6.37,23.51,9.83,32.29,6.73,15.27,10.37,20C165.83,241,158.2,229,154.06,219s-3.56-17.06-1.4-23S159.35,185.32,166.7,182.48Z"/><path id="path87" class="cls-3" d="M153,147.09a65.68,65.68,0,0,0-14.33,25.27c-3.17,9.87-5.69,20.63-4.21,33.41s5.72,26.53,12.88,42.16c-10.65-15.19-17.38-28.87-20.77-42.16s-2.91-25.67.87-36.5,14.83-18,21.31-27.79a216.35,216.35,0,0,0,16.59-31.18,63.28,63.28,0,0,1-3.09,19.94A55.56,55.56,0,0,1,153,147.09Z"/><path id="path89" class="cls-1" d="M133.25,12.13A54,54,0,0,1,138,37.69c-.68,8.49-7.85,13-8.42,25.27s1,27.61,4.79,47.2C146,87.62,153,69.87,155.75,55.94s-1.4-21.35-5.07-28.66a30.34,30.34,0,0,0-17.43-15.15Z"/><path id="path91" class="cls-2" d="M137.75,15.76c3.24,7.13,4.47,14,3.68,20.81-1.05,6.73-7.06,12.78-8.72,20s-1,14.86-.57,22.75a162.14,162.14,0,0,0,3.09,24.15A124.56,124.56,0,0,0,148.7,73.36c3.13-10.65,6.77-23.18,5.07-32.86s-7.12-17.82-16-24.74Z"/><path id="path93" class="cls-1" d="M215.59,0A30.14,30.14,0,0,0,212.82,15c.43,5,4.39,7.63,4.93,14.8.32,7.05-.61,16.2-2.81,27.57-6.77-13.17-10.87-23.5-12.46-31.68s.65-12.52,3-16.74A17.46,17.46,0,0,1,215.59,0Z"/><path id="path95" class="cls-2" d="M213,2.19a21.28,21.28,0,0,0-2.15,12.13c.5,3.93,4.1,7.49,5.11,11.67s.5,8.6.32,13.28a112.27,112.27,0,0,1-1.8,14.15,72,72,0,0,1-7.88-17.57c-1.88-6.23-4.11-13.61-3-19.22S207.74,6.22,213,2.19Z"/><path id="path97" class="cls-1" d="M138.08,286.12a11.9,11.9,0,0,0-3.82,11.52c1,4.76,6.48,17.21,9.58,17.25s7.41-12.17,8.64-17.25c1-5.25.5-11.44-1.95-13.42s-9.79-.44-12.45,1.9Z"/><path id="path99" class="cls-1" d="M167.81,286.12c-2.91-.21-10.15,16.28-8.64,20.16,1.41,3.71,15.77,5.19,17.28,1.91C177.86,304.66,170.62,286.48,167.81,286.12Z"/><path id="path101" class="cls-1" d="M255.08,236.26c-4.65,2.56-6,11.88-2.88,15.34,3.24,3.31,17.49,7.27,22.07,4.79,4.42-2.74,7.92-16.67,4.78-20.13-3.38-3.31-19.47-2.66-24,0Z"/><path id="path103" class="cls-1" d="M95.89,220c.5-3.39-18.51-9.83-23-7.67S65.29,231,69,232.41C73,233.6,95.06,223.34,95.89,220Z"/><path id="path105" class="cls-1" d="M99.74,228.6c-3.31-.69-14.37,2.48-13.43,3.81s16.74,4.39,19.15,3.85C107.69,235.51,102.87,229.24,99.74,228.6Z"/><path id="path107" class="cls-1" d="M248.38,259.27c8.1-.51,12.89.83,14.37,3.85s-.47,7.7-5.76,14.36c-2.85-6-5.73-12.13-8.61-18.21Z"/></g></svg>