<svg id="publicdomainvectors.org" xmlns="http://www.w3.org/2000/svg" viewBox="0 0 515.79 255.53"><defs><style>.cls-1{fill:#897409;}.cls-2{fill:#630;}.cls-10,.cls-2,.cls-3,.cls-4,.cls-5,.cls-6,.cls-7,.cls-8,.cls-9{fill-rule:evenodd;}.cls-3{fill:#854300;}.cls-4{fill:#361b00;}.cls-5{fill:#b5804c;}.cls-6{fill:#734415;}.cls-7{fill:#963;}.cls-8{fill:#ff9233;}.cls-9{fill:#ffc16b;}.cls-10{fill:#fff07f;}</style></defs><title>fire and pan</title><ellipse class="cls-1" cx="257.9" cy="187.62" rx="257.9" ry="67.91"/><path class="cls-2" d="M349.23,0c0,54.6-38.3,98.86-85.54,98.86S178.16,54.6,178.16,0Z"/><path class="cls-3" d="M215.08,77.08c-15.63-17.92-25.32-42.75-25.32-70.2h90.7L200.61,15C198.07,39.52,203.7,61.17,215.08,77.08Z"/><path class="cls-4" d="M349.23,0c0,54.6-38.3,98.86-85.54,98.86a74.87,74.87,0,0,1-24-4c1.12,0,2.24.08,3.37.08,46.12,0,83.71-42.18,85.47-95Z"/><path class="cls-5" d="M275.87,233.31C285.4,212.63,295,208.05,263,198.77c-23.75-6.89-42.84-6.08-29,25.73,8.42,19.42,28.87,6.93,35.34,11.7,1.76,1.3,5.75-1.18,6.53-2.89Zm-66.28-38.08c.1-7.32-23.83-17.87-31.05-6-4.89,8-19.6,21.83-1.84,30.54,5.81,2.85,24.55.44,28.76-4.36,7.78-8.84,11-4,4.13-18.32-.28-.59,0-1.27,0-1.84Zm85,16.24c1.18-14.63,3.55-17.16,17.62-24.71,2.16-1.16,38.13,10.22,39,14.53,2.73,14-9.35,16-22.65,18.59-14.16,2.73-11.36,5.28-19.63,7.14C302.21,228.53,294.48,213.17,294.62,211.47Z"/><polygon class="cls-6" points="182.42 185.49 226.21 143.64 293.85 142.09 350.65 200.4 294.65 211.81 284.18 169.15 284.77 214.5 229.62 203.99 235.87 185.38 213.3 207.53 182.42 185.49"/><path class="cls-7" d="M270.56,229.69c2-4.23,4.28-8.25,6.34-12.44.4-.81,1.92-4,1.78-5-.37-.75-2.72-2-3.39-2.38a83.47,83.47,0,0,0-14-5c-4.52-1.31-20.55-5.56-24.5-1.65-3.27,3.23,1.69,15.6,3.06,18.76,1.79,4.11,4.21,6.58,8.71,7.29,6.82,1.07,15.5-2.14,22,.42Zm-67.4-34c-1.54-2.08-6.82-4.23-8.95-4.8-2.93-.77-8.33-1.52-10.25,1.62s-4.33,6.06-6.35,9.18c-1.21,1.86-3.27,5.3-3.08,7.61s3.26,3.91,5,4.74c3.45,1.63,18.46-.31,21.21-2.84a40.57,40.57,0,0,1,4.91-4.72l1-.76c-.73-1.94-2.16-4.73-2.72-5.9a7.51,7.51,0,0,1-.71-4.13ZM301,210.92c1.06,2.61,4.81,8.63,7,9.78a12.78,12.78,0,0,0,3.84-1.56c5.3-3.15,9.35-4.32,15.45-5.5,3.92-.75,14.57-2.4,17.09-5.72a5.36,5.36,0,0,0,.77-3.69c-5.37-3.27-25.26-10-31.49-11.07-3.45,1.85-8.42,4.61-10.26,7.4C301.79,203.11,301.31,207.65,301,210.92Z"/><path class="cls-5" d="M269.28,215.5a100.1,100.1,0,0,0-10.14-3.34c-2.79-.81-11-2.86-15.63-3a62.22,62.22,0,0,0,3.28,9.8c.71,1.64,1.13,2.54,2.91,2.82,2.44.38,5.73-.07,8.19-.31a53.47,53.47,0,0,1,8.46-.31c1-1.88,2-3.76,2.93-5.65Zm-73.43-15.83a24.86,24.86,0,0,0-3.59-1.44,15.08,15.08,0,0,0-2.66-.43c-1.8,2.74-3.84,5.28-5.62,8-.2.31-.48.75-.77,1.24,3.23.14,10.08-.79,12.6-1.77.49-.54,1-1.06,1.51-1.57-.1-.2-.2-.41-.29-.61a14.76,14.76,0,0,1-1.18-3.44Zm113,9.85c.34.62.76,1.31,1.19,2a51.73,51.73,0,0,1,15.94-5.31l3-.57-1.7-.6c-3.64-1.26-8.25-2.89-12.32-3.86-2,1.13-4.41,2.61-5.11,3.55A16.42,16.42,0,0,0,308.8,209.52Z"/><path class="cls-8" d="M316.18,78.45c-6.1,12.2-5.07,25.29-4.39,38.91,1,19.7,19.51,35.59,9,52.26-11.83,18.71-43.12,13.28-65.24,12.42-20.88-.82-48.09-.33-60.24-17.32-11-15.32,19.95-29.26,18-42.16-3.39-22.16-14-34.17-26.14-44.11,13.18-2.57,27.35-4,39.54,10.78,4.56,5.55,8.67,21.09,14.05,16.34,7.79-6.87-.83-21.25,2.62-31,2.38-6.78,9.37-10.9,14.05-16.34,5.66,6,13.79,10.37,17,18,3,7.13.49,19.52,8.17,18.65,10.72-1.21,5.56-9.89,15.19-14.75C304.27,76.76,309,76.92,316.18,78.45Z"/><path class="cls-9" d="M257.85,104.67h0c-1.51,1.39-3.88,3.43-4.58,5.42-.57,1.61-.13,4.53.11,6.19.87,6.17,1.84,12.61-3.43,17.26a7.48,7.48,0,0,1-5.45,2c-5.08-.33-7.58-5.51-9.57-9.47a26.75,26.75,0,0,0-2.38-4.26c-3.24-3.94-6.62-5.71-10.34-6.28,5.74,6.88,9.26,14.66,10.8,24.73,1,6.81-4.53,12.37-8.68,17-1.45,1.62-5,5.52-5.12,7.79a2.63,2.63,0,0,0,.59,1.6c6.91,9.66,26.11,9.11,36.86,9.53,5.16.2,10.31.69,15.47.87,7.44.27,19.65.4,24.2-6.8a8.23,8.23,0,0,0,1.36-4.46c0-3.57-2.07-8.06-3.47-11.29-2.36-5.43-4.54-10.7-4.84-16.7-.37-7.54-.83-14.76.87-21.82a11.71,11.71,0,0,0-2.57,1,3.11,3.11,0,0,0-1.57,1.48,38.82,38.82,0,0,1-2.17,4.39,11.09,11.09,0,0,1-8.46,4.73,8.45,8.45,0,0,1-6.09-1.53c-3.62-2.69-3.89-7.24-4.44-11.31a13.76,13.76,0,0,0-.68-3.18,6.74,6.74,0,0,0-.64-1.18,26.48,26.48,0,0,0-5.19-5.17Z"/><path class="cls-10" d="M259.64,134.3c.36,4.94-.33,9.49-4.61,13.27a10.36,10.36,0,0,1-7.54,2.65,10.21,10.21,0,0,1-3.93-1c.73,6.75-3.7,11.58-7.89,16.26-.48.54-1.49,1.64-2.18,2.58,5,4.4,18.17,4.12,23.85,4.35,4,.15,7.93.52,11.91.67,3.56.12,12.38.4,14.6-3.11a1.83,1.83,0,0,0,.33-1c0-1.78-1.58-5.18-2.29-6.82-2.06-4.75-3.84-9.22-4.1-14.47-.09-1.73-.18-3.45-.23-5.17a14.85,14.85,0,0,1-5.38,1.62,11.1,11.1,0,0,1-7.95-2.06A12,12,0,0,1,259.64,134.3Z"/></svg>