<svg id="publicdomainvectors.org" xmlns="http://www.w3.org/2000/svg" viewBox="0 0 660 660"><defs><style>.cls-1{fill:#f3eba5;}.cls-2{fill:#d55c27;}.cls-10,.cls-11,.cls-12,.cls-2,.cls-4,.cls-5,.cls-6,.cls-7,.cls-8,.cls-9{fill-rule:evenodd;}.cls-3,.cls-6{fill:#8c381d;}.cls-4{fill:#a84624;}.cls-5{fill:#b04d25;}.cls-7{fill:#f4c4a7;}.cls-8{fill:#e6af90;}.cls-9{fill:#be5b28;}.cls-10{fill:#f47a3c;}.cls-11{fill:#fedd30;}.cls-12{fill:#fff5a9;}</style></defs><title>fire10</title><circle class="cls-1" cx="330.24" cy="294.78" r="294.78" transform="translate(-111.72 319.86) rotate(-45)"/><path class="cls-2" d="M415.11,314.72c17.85-42.4,20.59-79.9-2.16-109.13-26.52,56.73-62.5,67-93.75,100.47l-18.65,71.45,1.51-1.37Z"/><path class="cls-2" d="M187.64,235.33c4-45.45,19.37-82.51,54.07-105.41-2.89,61.44,25,80,37.53,120.06q-8.55,36.93-17.11,73.84l-.72-1.69Z"/><rect class="cls-3" x="40.17" y="450.69" width="254.74" height="81.63"/><rect class="cls-3" x="365.57" y="450.69" width="254.74" height="81.63"/><polygon class="cls-4" points="148.13 636.72 292.98 544.26 344.01 495.2 309.89 463.65 87.04 512.42 148.13 636.72"/><path class="cls-5" d="M242.11,576.73,293,544.26l51-49.06-34.12-31.55L199.82,487.74c75.65,28.21-.62,45.22,26.31,67.13C234.89,562,239.91,569.4,242.11,576.73Z"/><path class="cls-6" d="M110,517.92c26.37,18.12,43.46,71.31,38.17,118.8l-25.08-17.23-.28-17.69-1.63,16.38-37-25.39,1.52-20L80.56,590.3,52.61,571.1C57.9,523.61,83.58,499.8,110,517.92Z"/><path class="cls-7" d="M59.11,565.57l-1,9.29L80.56,590.3l5.13-17.51-1.52,20,37,25.39,1.63-16.38.28,17.69L142.66,633l1-9.28c1.69-39.74-13-81.51-34.78-96.47S65.89,529.34,59.11,565.57Z"/><path class="cls-8" d="M61.32,577.09l1.57,1.08.09-.84c2-18.14,7.94-31.76,15.87-39.11s17.87-8.44,27.94-1.52,18.38,20.54,23.66,37A132.41,132.41,0,0,1,136,627.46c0,.28-.06.56-.1.83l1.58,1.08.09-.83a138.21,138.21,0,0,0-5.74-56.11c-5.51-17.13-14.17-31.34-24.68-38.56S86.23,527.78,78,535.45s-14.44,21.88-16.55,40.8l-.09.84ZM72.86,585c1.67-14.8,6.5-25.92,13-31.92s14.62-6.9,22.86-1.24,15,16.8,19.34,30.23A108.34,108.34,0,0,1,132.55,626L131,624.93a102.5,102.5,0,0,0-4.27-41.6c-4.09-12.73-10.52-23.28-18.33-28.64s-15.51-4.52-21.65,1.17S76,572.08,74.44,586.1L72.86,585ZM77,587.88l0-.24c1.35-12.1,5.3-21.19,10.59-26.1s11.92-5.63,18.65-1,12.26,13.71,15.78,24.67a88.23,88.23,0,0,1,3.68,35.9l0,.23-1.57-1.08,0-.23a82.78,82.78,0,0,0-3.44-33.58c-3.3-10.26-8.48-18.76-14.77-23.08s-12.49-3.64-17.44.95-8.64,13.09-9.91,24.41l0,.24L77,587.88Zm7.5,5.15c1.14-8.1,3.92-14.2,7.57-17.59,3.89-3.6,8.75-4.13,13.68-.74s9,10,11.58,18.09a65.13,65.13,0,0,1,2.85,24.75l-1.57-1.08A59.54,59.54,0,0,0,116,594c-2.36-7.33-6.07-13.41-10.56-16.5s-8.94-2.6-12.48.68c-3.31,3.07-5.83,8.58-6.88,15.91L84.53,593Zm7.06,4.85c.72-5.14,2.48-9,4.8-11.16s5.55-2.62,8.69-.47,5.71,6.38,7.35,11.49a41.43,41.43,0,0,1,1.81,15.7l-1.58-1.08A35.4,35.4,0,0,0,111.09,599c-1.41-4.4-3.63-8.05-6.33-9.9s-5.36-1.56-7.48.41c-2,1.83-3.48,5.11-4.12,9.47l-1.57-1.08Zm4.65,3.19c.85-6.86,4.62-10.26,8.48-7.61s6.39,10.38,5.7,17.36l-1.57-1.08c.51-5.42-1.45-11.39-4.44-13.45s-5.92.57-6.6,5.86Z"/><polygon class="cls-4" points="512.36 636.72 367.51 544.26 316.48 495.2 350.6 463.65 573.45 512.42 512.36 636.72"/><path class="cls-5" d="M418.38,576.73l-50.87-32.47-51-49.06,34.12-31.55,110.07,24.09C385,516,461.29,533,434.36,554.87,425.6,562,420.58,569.4,418.38,576.73Z"/><path class="cls-6" d="M550.53,517.92c-26.38,18.12-43.47,71.31-38.17,118.8l25.08-17.23.28-17.69,1.62,16.38,37-25.39-1.52-20,5.14,17.51,28-19.2C602.58,523.61,576.91,499.8,550.53,517.92Z"/><path class="cls-7" d="M601.38,565.57l1,9.29L579.93,590.3l-5.14-17.51,1.52,20-37,25.39-1.62-16.38-.28,17.69L517.82,633l-1-9.28c-1.69-39.74,13-81.51,34.78-96.47S594.59,529.34,601.38,565.57Z"/><path class="cls-8" d="M599.17,577.09l-1.57,1.08-.09-.84c-2-18.14-7.94-31.76-15.87-39.11s-17.87-8.44-27.95-1.52-18.38,20.54-23.66,37a132.41,132.41,0,0,0-5.5,53.79l.09.83-1.57,1.08c0-.27-.07-.55-.1-.83a138,138,0,0,1,5.75-56.11c5.5-17.13,14.17-31.34,24.68-38.56s20.88-6.09,29.15,1.58,14.44,21.88,16.55,40.8l.09.84ZM587.62,585c-1.66-14.8-6.49-25.92-13-31.92s-14.61-6.9-22.85-1.24-15,16.8-19.35,30.23A108.34,108.34,0,0,0,527.94,626l1.57-1.09a102.68,102.68,0,0,1,4.28-41.6c4.08-12.73,10.52-23.28,18.32-28.64s15.51-4.52,21.66,1.17,10.7,16.22,12.28,30.24l1.57-1.08Zm-4.16,2.86,0-.24c-1.35-12.1-5.3-21.19-10.59-26.1s-11.93-5.63-18.65-1-12.27,13.71-15.79,24.67a88.4,88.4,0,0,0-3.67,35.9l0,.23,1.58-1.08,0-.23a82.6,82.6,0,0,1,3.44-33.58c3.29-10.26,8.47-18.76,14.76-23.08s12.5-3.64,17.45.95,8.64,13.09,9.9,24.41l0,.24,1.57-1.08ZM576,593c-1.14-8.1-3.92-14.2-7.57-17.59-3.88-3.6-8.75-4.13-13.68-.74s-9,10-11.58,18.09a64.93,64.93,0,0,0-2.84,24.75l1.57-1.08A59.34,59.34,0,0,1,544.46,594c2.35-7.33,6.06-13.41,10.56-16.5s8.94-2.6,12.47.68c3.31,3.07,5.84,8.58,6.89,15.91L576,593Zm-7.05,4.85c-.72-5.14-2.49-9-4.8-11.16-2.47-2.28-5.56-2.62-8.69-.47s-5.71,6.38-7.35,11.49a41.43,41.43,0,0,0-1.81,15.7l1.57-1.08A35.8,35.8,0,0,1,549.39,599c1.42-4.4,3.64-8.05,6.34-9.9a5.58,5.58,0,0,1,7.48.41c2,1.83,3.48,5.11,4.11,9.47l1.58-1.08Zm-4.65,3.19c-.86-6.86-4.62-10.26-8.48-7.61s-6.39,10.38-5.71,17.36l1.58-1.08c-.52-5.42,1.44-11.39,4.44-13.45s5.91.57,6.6,5.86Z"/><path class="cls-5" d="M233.64,633.78H426.76l-26.49-94.67c-16.84-60.18-124.06-58.75-140.36,0Z"/><path class="cls-9" d="M405.86,559.09l-5.59-20c-16.84-60.18-124.06-58.75-140.36,0l-5.78,20.82c7.17-.65,15.6-3.32,25.58-8.65,35.85-19.17,47.34-17.58,83.07,3.65C373.87,561.52,391,562.86,405.86,559.09Z"/><path class="cls-6" d="M330.24,560a100,100,0,0,1,100,100h-52.5l-4.38-18.9.39,18.9h-77.4L295,637.27,288.77,660H230.25A100,100,0,0,1,330.24,560Z"/><path class="cls-7" d="M241.7,649.2V660h47.07L295,637.27,296.34,660h77.4l-.39-18.9,4.38,18.9h41.06V649.2a89.2,89.2,0,0,0-177.09,0Z"/><path class="cls-8" d="M248.49,660h3.29c0-.32,0-.64,0-1a76.4,76.4,0,1,1,152.79,0v1h3.29v-1a79.69,79.69,0,0,0-159.37,0c0,.33,0,.65,0,1Zm24.17,0a62.48,62.48,0,0,1,125,0h-3.29A59.19,59.19,0,0,0,276,660Zm8.71,0v-.27a51,51,0,1,1,101.95,0V660H380v-.27a47.69,47.69,0,0,0-95.37,0V660Zm15.72,0a37.39,37.39,0,0,1,74.69,0h-3.29a34.1,34.1,0,0,0-68.1,0Zm14.77,0a23.74,23.74,0,0,1,47.42,0H356a20.45,20.45,0,0,0-40.83,0Zm9.73,0a14.85,14.85,0,0,1,29.7,0H348a11.57,11.57,0,0,0-23.12,0Z"/><path class="cls-10" d="M185.86,413.73a76.09,76.09,0,0,0,17.19,50.06c17.43,21.64,41.8,36.87,70.83,43.52,26.51,6.08,53.32,8.27,82.53,6.95l3.6-.17a119.69,119.69,0,0,0,40.43-8.73c23.18-9.57,39.54-26.52,48.28-50a84.86,84.86,0,0,0,4.75-42.84c-6.18-40.41,1.14-78.09,21.58-111.6,14.57-23.9,17.54-50.3,8.65-76.84l-8.12-24.2-1.67,6.2c-8.33,31-28.62,54.16-58.26,66.48l-31.6,13.14-.22-.43c-20.25-39.8-17.15-85,7.24-120.7,23.69-34.69,27.51-75.8,10.61-114.26l-7.47-17L388.12,53c-10,32.39-30.67,56.55-61.14,71.42-49.86,24.33-82,67.34-91.25,122.07l-2.15,12.71-13.65-8.11c-29.45-17.48-44.74-49.05-40.21-83l.15-1.09L168,183c-30,40.28-32.49,91.89-6.48,134.86C178.52,346,186.87,378.48,185.86,413.73Z"/><path class="cls-11" d="M443.33,307c-36.86,6.68-55.84,15.59-75,50.17-35.86-36.24-65.7-79.74-52.43-149.38C262.46,257.15,252.68,319.87,270,384.45c-25.52-7-39.69-21.4-52.14-46.5-6.71,53.71-13.87,109.57,38.51,141.3,95,57.54,191.21-3.17,164.22-96.5C413.57,358.53,417.41,336.33,443.33,307Z"/><path class="cls-11" d="M332.89,192.26c35.34-16.47,53.47-44.55,48.21-88.38C373.33,138.24,340.48,142.09,332.89,192.26Z"/><path class="cls-11" d="M199,313.43c-30.33-17.55-40.5-40.23-26.49-69.05C178.77,271.34,204,282.8,199,313.43Z"/><path class="cls-12" d="M257.89,408c19.2,31,34.73,6.52,54.21,24.52-9.4-25.28,7.84-44.44,9.09-63.59,5,16.85,36,40.61,30.6,61.67,12.91-16.34,36.8-9.32,41.8-37.15,17.12,61.56-27.46,82.85-57.46,88.24C293.11,489.41,265.64,464.24,257.89,408Z"/></svg>