<svg id="publicdomainvectors.org" xmlns="http://www.w3.org/2000/svg" viewBox="0 0 660 616.04"><defs><style>.cls-1{fill:#fff07f;}.cls-1,.cls-10,.cls-2,.cls-4,.cls-5,.cls-6,.cls-7,.cls-8,.cls-9{fill-rule:evenodd;}.cls-2{fill:#fff49e;}.cls-3{fill:#a7bf1c;}.cls-4{fill:#332d2a;}.cls-5{fill:#ff9100;}.cls-6{fill:#fb0;}.cls-7{fill:#ffdd30;}.cls-8{fill:#663c12;}.cls-9{fill:#b87b3f;}.cls-10{fill:#c99057;}</style></defs><title>fire2</title><path class="cls-1" d="M330.8,0C512.61,0,660,147.39,660,329.2c0,108.23-52.23,204.25-132.85,264.25H134.44c-80.62-60-132.85-156-132.85-264.25C1.59,147.39,149,0,330.8,0Z"/><path class="cls-2" d="M330.8,157.11c133.51,0,241.75,108.23,241.75,241.74A241.39,241.39,0,0,1,475,592.9H186.61a241.36,241.36,0,0,1-97.56-194C89.05,265.34,197.28,157.11,330.8,157.11Z"/><ellipse class="cls-3" cx="330.8" cy="593.45" rx="225.5" ry="17.72"/><path class="cls-4" d="M325.83,618.93c86.09,0,156.3-6.72,156.3-14.95s-70.21-15-156.3-15-156.3,6.71-156.3,15S239.74,618.93,325.83,618.93Z"/><path class="cls-5" d="M462.62,582.31l17.82-23.82A88.46,88.46,0,0,0,469.66,444.8a42.06,42.06,0,0,1,11.5-68.1A98.54,98.54,0,0,0,534.09,261l-7.91,17.75a79.61,79.61,0,0,1-65.93,46.88,28.31,28.31,0,0,1-19-51.11,76.74,76.74,0,0,0-12.47-131.6l2.3,16.46a65.38,65.38,0,1,1-100.23-45.85l-17.49-6.21a71.7,71.7,0,0,0-95.7,68.05,43.76,43.76,0,0,1-86.79,8.23l-5.55,17.73a105.39,105.39,0,0,0,45.1,121.17A74.06,74.06,0,0,1,181.53,440,92,92,0,0,0,195.36,585.9Z"/><path class="cls-6" d="M437.15,547.78l2.32-3.11a38.1,38.1,0,0,0-5-48.37A92.44,92.44,0,0,1,420.27,382a78.42,78.42,0,0,1-39.79-83.13A115.8,115.8,0,0,1,261,232.08c-.39-.87-.78-1.74-1.15-2.62a94.13,94.13,0,0,1-75.37,55.23,55,55,0,0,0,12.4,10.49,124.42,124.42,0,0,1,18.71,197.41,41.61,41.61,0,0,0-3,58.2Z"/><path class="cls-7" d="M355.09,413.57a133.09,133.09,0,0,1-22.55-38.86c-1.08-2.9-2.06-5.84-2.93-8.8a170.7,170.7,0,0,1-28.81-9.09,179.47,179.47,0,0,1-16.38,153.1l81.59-1.1a147.8,147.8,0,0,1-12.33-88C354.09,418.4,354.56,416,355.09,413.57Z"/><path class="cls-8" d="M331.09,500.43a50.64,50.64,0,0,1,47.44,32.92l-8.72,5,10.13-.64a50.64,50.64,0,0,1-48.85,63.91c-.45,0-.9,0-1.35,0l-2-12.83-3.54,12.38a50.62,50.62,0,0,1-43.71-50.14,51.45,51.45,0,0,1,.54-7.4l22.06.16L283.79,533a50.68,50.68,0,0,1,41.77-32.25l3.26,7.49,1.53-7.78Z"/><path class="cls-9" d="M331.09,508.32a42.74,42.74,0,0,1,40.49,29.05l-1.77,1,2.06-.13a42.75,42.75,0,0,1-40.78,55.51c-.87,0-1.74,0-2.6-.08l-.77-4.88-1.35,4.7a42.73,42.73,0,0,1-38-42.46,43.39,43.39,0,0,1,.63-7.35l14.07.11-12.3-6.91A42.74,42.74,0,0,1,331.09,508.32Z"/><path class="cls-10" d="M331.09,512.83a38.22,38.22,0,1,1,0,76.43q-1.68,0-3.33-.15l0-.3-.09.29a38.24,38.24,0,0,1-34.05-45.36l9.49.07-8.3-4.67A38.23,38.23,0,0,1,331.09,512.83Z"/><path class="cls-8" d="M330.64,530.86a1.12,1.12,0,1,1,0-2.23h.49A22.36,22.36,0,0,1,347,535.19a22.81,22.81,0,0,1,1.73,1.94l6-4.25a29.77,29.77,0,0,0-37.26-8.23l8.35,14.69a12.87,12.87,0,0,1,14.46,2.6q.36.36.69.75l6-4.25a19.54,19.54,0,0,0-1.49-1.67,20.11,20.11,0,0,0-14.27-5.91h-.45ZM350,539a22.43,22.43,0,0,1-1.23,25.92l5.54,4.79a30.81,30.81,0,0,0,1.87-2.61,1.12,1.12,0,0,1,1.88,1.22,32.25,32.25,0,0,1-2.06,2.85l2.49,2.17A1.11,1.11,0,1,1,357,575l-2.5-2.15a32.37,32.37,0,0,1-8.08,6.29,31.6,31.6,0,0,1-5.63,2.41l.81,2.87a1.12,1.12,0,1,1-2.16.6l-.8-2.87a32,32,0,0,1-30.17-8.46c-.41-.41-.81-.83-1.2-1.27l-2.82,2.36A1.12,1.12,0,0,1,303,573l2.83-2.36a31.79,31.79,0,0,1-6.74-19.62,32.12,32.12,0,0,1,.83-7.26h2.31a29.81,29.81,0,0,0,5.32,25.44l5.62-4.69a22.43,22.43,0,0,1-3.79-19.18,22,22,0,0,1,2.14-5.3,1.12,1.12,0,0,1,1.95,1.09,20,20,0,0,0-1.93,4.77,20.4,20.4,0,0,0-.65,5.12,20.12,20.12,0,0,0,4,12.06l5.62-4.7a12.55,12.55,0,0,1-1-1.62,12.87,12.87,0,0,1,4.21-16.34l-8.34-14.69a29.17,29.17,0,0,0-5.37,4.26,29.67,29.67,0,0,0-7.72,13.38l-2-1.13a32,32,0,0,1,14-18.46l-1.71-3a1.12,1.12,0,1,1,1.94-1.1l1.71,3a32,32,0,0,1,34.05,2.79,32.49,32.49,0,0,1,6.14,6.09l2.53-1.8a1.12,1.12,0,0,1,1.56.27,1.11,1.11,0,0,1-.26,1.55l-2.53,1.8a31.65,31.65,0,0,1,4.08,8.84,1.12,1.12,0,1,1-2.15.61,30.06,30.06,0,0,0-3.75-8.15L350,539Zm-2.69,27.6-.34.35a22.33,22.33,0,0,1-8.73,5.41l2,7.05a29.16,29.16,0,0,0,5.16-2.21,30.06,30.06,0,0,0,7.46-5.8l-5.53-4.8Zm-11.23,6.37a22.6,22.6,0,0,1-5,.55,22.36,22.36,0,0,1-15.86-6.57c-.2-.21-.41-.42-.61-.64L309,571c.35.39.7.76,1.07,1.12a29.63,29.63,0,0,0,21,8.71,30,30,0,0,0,7-.81l-2-7.05Zm-19.72-8.1,5.63-4.7a12.49,12.49,0,0,0,1.4,1.22,1.12,1.12,0,0,0,1.34-1.79,10.63,10.63,0,0,1-1-.87l3.54-2.95a1.12,1.12,0,1,0-1.44-1.72l-3.53,3a9.65,9.65,0,0,1-.68-1.17,10.63,10.63,0,0,1,2-12.26,10.24,10.24,0,0,1,1.33-1.12l2.27,4a1.12,1.12,0,0,0,1.95-1.11l-2.28-4a10.67,10.67,0,0,1,11.77,2.23c.15.15.3.31.44.47l-3.75,2.67a1.12,1.12,0,0,0,1.3,1.82l3.75-2.67a10.66,10.66,0,0,1,0,10.49q-.24.42-.51.81l-3.48-3a1.12,1.12,0,0,0-1.47,1.69l3.48,3a10.48,10.48,0,0,1-1.86,1.39,1.12,1.12,0,0,0-.39,1.54,1.11,1.11,0,0,0,1.53.39,12.82,12.82,0,0,0,2.42-1.85l5.54,4.8-.23.24a20.29,20.29,0,0,1-7.74,4.83l-3.84-13.66a1.12,1.12,0,0,0-2.15.61l3.83,13.65a20.17,20.17,0,0,1-18.64-5.43l-.48-.5Zm30.71-1.43-5.54-4.8a11.15,11.15,0,0,0,.76-1.17,12.88,12.88,0,0,0-.09-12.91l6-4.25a20.18,20.18,0,0,1-1.1,23.13Z"/><path class="cls-8" d="M258.42,508.35a50.63,50.63,0,0,1,22.33,53.25l-10.06-.43,8.89,4.9a50.65,50.65,0,0,1-75.53,27.67l-1.13-.74,5.19-11.91-9.64,8.54a50.63,50.63,0,0,1-9.93-65.77,50,50,0,0,1,4.43-6l18.52,12L201,510.41a50.67,50.67,0,0,1,52.55-4.78l-1.27,8.08,5.47-5.75Z"/><path class="cls-9" d="M254.18,515a42.75,42.75,0,0,1,18.56,46.24l-2.05-.08,1.81,1a42.74,42.74,0,0,1-64.21,24.92c-.74-.47-1.45-1-2.15-1.46l2-4.53-3.66,3.24a42.76,42.76,0,0,1-4.78-62.08l11.82,7.64-6.67-12.44A42.74,42.74,0,0,1,254.18,515Z"/><path class="cls-10" d="M251.76,518.81a38.21,38.21,0,1,1-41,64.47c-.94-.6-1.85-1.24-2.72-1.91l.12-.28-.23.2a38.23,38.23,0,0,1-4.36-56.56l8,5.16L207,521.5A38.23,38.23,0,0,1,251.76,518.81Z"/><path class="cls-8" d="M241.69,533.78a1.12,1.12,0,0,1,1.17-1.91l.41.26h0a22.29,22.29,0,0,1,9.85,14.06,19.94,19.94,0,0,1,.41,2.57l7.32-.39a30,30,0,0,0-1.78-7.77,29.74,29.74,0,0,0-25.23-19.18L233,538.29a12.89,12.89,0,0,1,10.8,10c.07.33.14.66.19,1l7.31-.39a20.58,20.58,0,0,0-.36-2.2A20.14,20.14,0,0,0,242.08,534h0l-.39-.24Zm12,17.21a22.43,22.43,0,0,1-14.95,21.2l2.09,7a28.46,28.46,0,0,0,3-1.19,1.13,1.13,0,0,1,1.49.55,1.12,1.12,0,0,1-.55,1.48,30.54,30.54,0,0,1-3.27,1.31l.94,3.16a1.12,1.12,0,0,1-.75,1.39,1.11,1.11,0,0,1-1.39-.75L239.3,582a32.38,32.38,0,0,1-10.2,1,32.94,32.94,0,0,1-6-1l-.86,2.85a1.12,1.12,0,1,1-2.14-.65l.86-2.85a32.25,32.25,0,0,1-6.86-3.3,31.86,31.86,0,0,1-14-20c-.13-.56-.24-1.13-.33-1.7l-3.65.47a1.12,1.12,0,0,1-.29-2.22l3.65-.47a32,32,0,0,1,9.46-25.86l1.93,1.25a30.72,30.72,0,0,0-4.64,5.63,29.71,29.71,0,0,0-4.53,18.69l7.26-.94A22.4,22.4,0,0,1,212.32,539a22.64,22.64,0,0,1,3.67-4.4,22.32,22.32,0,0,1,4.65-3.32,1.12,1.12,0,0,1,1.51.46,1.11,1.11,0,0,1-.45,1.51,20.13,20.13,0,0,0-4.19,3,20.37,20.37,0,0,0-3.3,4,20.07,20.07,0,0,0-3.1,12.32l7.27-.94a13.26,13.26,0,0,1,.05-1.89,12.9,12.9,0,0,1,12.34-11.52l.84-16.87a29.83,29.83,0,0,0-20.51,7.85l-1.1-2a32.11,32.11,0,0,1,21.72-8l.18-3.46a1.12,1.12,0,1,1,2.23.12l-.17,3.45a32,32,0,0,1,29.13,29.08l3.1-.17a1.12,1.12,0,0,1,.11,2.24l-3.09.16a32.07,32.07,0,0,1-1.3,9.64,1.12,1.12,0,0,1-1.4.75,1.11,1.11,0,0,1-.75-1.39A29.62,29.62,0,0,0,261,550.6l-7.31.39Zm-17.09,21.84-.48.11a22.38,22.38,0,0,1-10.26-.13l-2.12,7a29.4,29.4,0,0,0,14.95,0l-2.09-7Zm-12.88-.66a22.88,22.88,0,0,1-4.5-2.21,22.32,22.32,0,0,1-9.84-14.05q-.1-.43-.18-.87l-7.26.94c.09.5.19,1,.3,1.51a29.63,29.63,0,0,0,13.06,18.64,29.2,29.2,0,0,0,6.3,3l2.12-7ZM211.4,554.75l7.27-1a13.47,13.47,0,0,0,.52,1.78,1.13,1.13,0,0,0,1.44.65,1.11,1.11,0,0,0,.65-1.44,11.09,11.09,0,0,1-.38-1.28l4.56-.59a1.12,1.12,0,1,0-.29-2.22l-4.56.59a12.18,12.18,0,0,1,0-1.35,10.72,10.72,0,0,1,1.61-4.6,10.6,10.6,0,0,1,6.66-4.67,11.12,11.12,0,0,1,1.72-.24l-.23,4.6a1.12,1.12,0,1,0,2.23.11l.23-4.6a10.63,10.63,0,0,1,8.73,8.2c0,.21.09.42.12.64l-4.59.23a1.12,1.12,0,1,0,.12,2.24l4.59-.24a10.64,10.64,0,0,1-5.65,8.84,8.65,8.65,0,0,1-.87.41L234,556.45a1.11,1.11,0,0,0-1.38-.76,1.13,1.13,0,0,0-.76,1.4l1.32,4.4a10,10,0,0,1-2.32.18,1.12,1.12,0,0,0-.07,2.24,13.35,13.35,0,0,0,3-.26l2.1,7-.32.08a20.12,20.12,0,0,1-9.13-.09l4.1-13.58a1.12,1.12,0,1,0-2.14-.64L224.34,570a19.47,19.47,0,0,1-3.94-1.94,20.13,20.13,0,0,1-8.87-12.65c0-.23-.09-.45-.13-.67ZM238.07,570a20.19,20.19,0,0,0,13.35-18.93l-7.32.38a12.81,12.81,0,0,1-6.85,10.93A12.32,12.32,0,0,1,236,563Z"/><path class="cls-8" d="M476.07,531a50.63,50.63,0,0,1-11.39,56.61l-8.08-6,4.61,9a50.66,50.66,0,0,1-78.06-19.46c-.17-.41-.35-.83-.52-1.25l11-6.95-12.77,1.67a50.63,50.63,0,0,1,28.68-60,49.69,49.69,0,0,1,7-2.44l8.61,20.31,2.28-22A50.67,50.67,0,0,1,473.6,526L468,532l7.75-1.69C475.87,530.5,476,530.72,476.07,531Z"/><path class="cls-9" d="M468.82,534.08a42.74,42.74,0,0,1-10.58,48.69l-1.64-1.21.93,1.84A42.75,42.75,0,0,1,390.4,568c-.35-.8-.67-1.61-1-2.42l4.17-2.65-4.84.64a42.73,42.73,0,0,1,23.88-51.75,43.43,43.43,0,0,1,7-2.33l5.49,13,1.45-14A42.74,42.74,0,0,1,468.82,534.08Z"/><path class="cls-10" d="M464.69,535.87a38.22,38.22,0,0,1-70.15,30.35c-.45-1-.84-2.07-1.19-3.11l.26-.17-.3,0a38.22,38.22,0,0,1,21.13-47,38.62,38.62,0,0,1,7-2.26l3.71,8.75,1-9.48A38.25,38.25,0,0,1,464.69,535.87Z"/><path class="cls-8" d="M448,542.62a1.12,1.12,0,0,1,.56-1.48,1.11,1.11,0,0,1,1.48.56l.2.44h0a22.36,22.36,0,0,1,.27,17.16,23.13,23.13,0,0,1-1.1,2.37l6.27,3.78a30.15,30.15,0,0,0,2.89-7.43,29.79,29.79,0,0,0-10.13-30l-10.17,13.5a12.66,12.66,0,0,1,3.2,4.45,12.88,12.88,0,0,1,.16,9.86c-.13.31-.26.62-.41.93l6.27,3.78a20.61,20.61,0,0,0,.94-2,20.11,20.11,0,0,0-.25-15.45h0l-.19-.41Zm.26,21a22.41,22.41,0,0,1-24.27,9.16l-2.2,7a27.24,27.24,0,0,0,3.13.69,1.11,1.11,0,0,1-.36,2.2,30.68,30.68,0,0,1-3.45-.75l-1,3.14a1.12,1.12,0,1,1-2.13-.67l1-3.14a32.33,32.33,0,0,1-9-4.93,31.44,31.44,0,0,1-4.44-4.2l-2.32,1.88a1.12,1.12,0,0,1-1.41-1.74l2.32-1.88a31.48,31.48,0,0,1-3.83-6.58,31.83,31.83,0,0,1-.38-24.47c.21-.54.44-1.07.69-1.6L397.28,536a1.12,1.12,0,1,1,1-2l3.28,1.66a31.84,31.84,0,0,1,15.34-14,32.32,32.32,0,0,1,7-2.12l.9,2.12a29.92,29.92,0,0,0-7,2.06,29.57,29.57,0,0,0-14.23,12.93l6.53,3.29a22.51,22.51,0,0,1,16.1-11.09,21.9,21.9,0,0,1,5.71-.14,1.12,1.12,0,1,1-.23,2.22,20.21,20.21,0,0,0-19.57,10l6.54,3.3a12.92,12.92,0,0,1,5.84-5,12.85,12.85,0,0,1,9.85-.15,14.09,14.09,0,0,1,2.09,1l10.16-13.49a29.79,29.79,0,0,0-21.38-5l.23-2.3a32,32,0,0,1,15.94,2,32.47,32.47,0,0,1,6.56,3.54l2.09-2.77a1.12,1.12,0,0,1,1.56-.22,1.13,1.13,0,0,1,.22,1.57l-2.08,2.76a32,32,0,0,1,11,32.36,32.61,32.61,0,0,1-3.15,8.06l2.65,1.6a1.12,1.12,0,1,1-1.16,1.91l-2.65-1.6a31.45,31.45,0,0,1-6.49,7.25,1.12,1.12,0,0,1-1.42-1.73,29.19,29.19,0,0,0,6-6.68l-6.26-3.78Zm-26.4,8.49-.46-.17a22.56,22.56,0,0,1-8.43-5.87l-5.68,4.62a29.08,29.08,0,0,0,4.08,3.85,29.9,29.9,0,0,0,8.28,4.55l2.21-7Zm-10.3-7.78a22.47,22.47,0,0,1-2.75-21.5c.11-.28.22-.55.35-.82l-6.54-3.29c-.21.46-.42.94-.61,1.42a29.82,29.82,0,0,0,3.87,28.81l5.68-4.62Zm-.4-21.31,6.55,3.3a12,12,0,0,0-.56,1.76,1.12,1.12,0,1,0,2.17.52,11,11,0,0,1,.4-1.27l4.11,2.07a1.12,1.12,0,0,0,1-2l-4.11-2.07a11,11,0,0,1,.81-1.09,10.63,10.63,0,0,1,12-3,11.3,11.3,0,0,1,1.56.77l-2.77,3.68a1.12,1.12,0,0,0,.22,1.56,1.13,1.13,0,0,0,1.57-.22l2.77-3.68a10.74,10.74,0,0,1,2.5,3.56,10.62,10.62,0,0,1,.12,8.13c-.08.2-.16.4-.25.59l-3.94-2.37a1.11,1.11,0,0,0-1.54.37,1.13,1.13,0,0,0,.38,1.54l3.95,2.38a10.67,10.67,0,0,1-9.65,4.14c-.31,0-.63-.08-.94-.14l1.38-4.4a1.12,1.12,0,1,0-2.13-.67l-1.39,4.39a10.55,10.55,0,0,1-2-1.15,1.12,1.12,0,1,0-1.32,1.81,13.12,13.12,0,0,0,2.66,1.49l-2.21,7-.3-.12a20.26,20.26,0,0,1-7.52-5.19l11-8.94a1.13,1.13,0,0,0,.16-1.58,1.11,1.11,0,0,0-1.57-.16l-11,8.94a20.37,20.37,0,0,1-2.16-3.82,20.06,20.06,0,0,1-.24-15.45c.08-.21.17-.42.26-.63Zm13.51,27.62,2.2-7a13.24,13.24,0,0,0,1.38.23A12.87,12.87,0,0,0,440,558.63l6.28,3.79a20.2,20.2,0,0,1-21.67,8.18Z"/><path class="cls-8" d="M321.35,436.89a50.63,50.63,0,0,1,3.87,57.61l-9.38-3.67,6.83,7.52a50.65,50.65,0,0,1-80.43,1.71c-.28-.35-.56-.71-.83-1.07l8.77-9.59-11.88,5a50.67,50.67,0,0,1,18-69.64L270,442.06l-3.57-21.82a50.69,50.69,0,0,1,51.26,12.51L313.84,440l7-3.66C321,436.5,321.2,436.69,321.35,436.89Z"/><path class="cls-9" d="M315.18,441.81a42.73,42.73,0,0,1,2.57,49.76l-1.91-.74,1.39,1.53a42.76,42.76,0,0,1-68.82,2.77c-.55-.68-1.07-1.38-1.56-2.09l3.33-3.64-4.51,1.88a42.72,42.72,0,0,1,9.47-56.19,41.13,41.13,0,0,1,6.13-4.09l8.7,11.06-2.28-13.93A42.75,42.75,0,0,1,315.18,441.81Z"/><path class="cls-10" d="M311.66,444.63a38.22,38.22,0,0,1-59.73,47.69c-.7-.88-1.35-1.78-2-2.69l.21-.23-.28.12a38.22,38.22,0,0,1,8-50.91,37.46,37.46,0,0,1,6.15-4l5.87,7.46-1.54-9.4A38.24,38.24,0,0,1,311.66,444.63Z"/><path class="cls-8" d="M297.28,455.52A1.12,1.12,0,1,1,299,454.1l.31.38h0A22.36,22.36,0,0,1,304.08,471a22.08,22.08,0,0,1-.44,2.56l7,2a29.76,29.76,0,0,0-16.82-34.25L287.6,457a12.91,12.91,0,0,1,7,12.93c0,.33-.09.67-.16,1l7.05,2a18.37,18.37,0,0,0,.37-2.2,20.08,20.08,0,0,0-4.28-14.84h0l-.29-.36ZM303,475.69a22.42,22.42,0,0,1-21,15.21l-.3,7.31a28.46,28.46,0,0,0,3.2-.16,1.12,1.12,0,1,1,.23,2.22,31.79,31.79,0,0,1-3.52.18l-.13,3.29a1.12,1.12,0,1,1-2.23-.08l.13-3.3a32.3,32.3,0,0,1-10-2.39,31.81,31.81,0,0,1-5.39-2.89l-1.74,2.42a1.12,1.12,0,0,1-1.82-1.31l1.74-2.42A32,32,0,0,1,250,464.91c.06-.57.14-1.15.24-1.72l-3.61-.74a1.12,1.12,0,0,1,.45-2.19l3.6.73A32,32,0,0,1,268,439.6l1.42,1.81a30,30,0,0,0-6.21,3.82,29.67,29.67,0,0,0-10.34,16.21l7.17,1.46A22.33,22.33,0,0,1,267.8,451a22.22,22.22,0,0,1,10.37-4.61,1.12,1.12,0,1,1,.36,2.21,19.61,19.61,0,0,0-4.92,1.47,20.21,20.21,0,0,0-11.34,13.33l7.18,1.47a12.16,12.16,0,0,1,.67-1.77,12.85,12.85,0,0,1,13.11-7.37,12.64,12.64,0,0,1,2.28.47l6.28-15.69a29.83,29.83,0,0,0-22,.78l-.37-2.28a32,32,0,0,1,23.16-.58l1.28-3.21A1.12,1.12,0,1,1,296,436l-1.28,3.2a32,32,0,0,1,19.06,28.35,32.43,32.43,0,0,1-.92,8.61l3,.84a1.12,1.12,0,0,1-.62,2.16l-3-.85a31.78,31.78,0,0,1-4.36,8.69,1.12,1.12,0,1,1-1.83-1.3,29.55,29.55,0,0,0,4-8l-7-2Zm-23.25,15.12-.48-.05a22.36,22.36,0,0,1-9.68-3.45l-4.27,5.95a29.12,29.12,0,0,0,4.95,2.65,29.84,29.84,0,0,0,9.19,2.21l.29-7.31Zm-12-4.8a23.23,23.23,0,0,1-3.54-3.54A22.37,22.37,0,0,1,259.51,466c0-.3.07-.59.12-.88l-7.17-1.46c-.09.5-.16,1-.22,1.52A29.82,29.82,0,0,0,263.53,492l4.28-5.94Zm-6-20.46L269,467a14.24,14.24,0,0,0-.08,1.85,1.12,1.12,0,0,0,2.24-.07,9.8,9.8,0,0,1,0-1.33l4.51.92a1.12,1.12,0,0,0,.45-2.2l-4.51-.92a11.32,11.32,0,0,1,.49-1.26A10.64,10.64,0,0,1,283,457.91a11.09,11.09,0,0,1,1.7.33L283,462.51a1.12,1.12,0,1,0,2.08.83l1.71-4.27a10.65,10.65,0,0,1,5.6,10.59l-.09.63L287.84,469a1.12,1.12,0,0,0-.61,2.15l4.43,1.26a10.65,10.65,0,0,1-8.22,6.54c-.31,0-.63.08-.95.1l.18-4.6a1.12,1.12,0,0,0-2.23-.09l-.18,4.6a10.78,10.78,0,0,1-2.25-.58,1.12,1.12,0,1,0-.8,2.09,13.23,13.23,0,0,0,3,.74l-.3,7.32-.32,0a20.2,20.2,0,0,1-8.62-3L279.22,474a1.12,1.12,0,0,0-1.82-1.31l-8.28,11.52a19.9,19.9,0,0,1-3.1-3.12,20.15,20.15,0,0,1-4.28-14.84c0-.22.05-.45.09-.67Zm20.28,23.1.29-7.32c.47,0,.93-.07,1.39-.14a12.86,12.86,0,0,0,10-8.13l7.05,2a20.19,20.19,0,0,1-18.76,13.58Z"/><path class="cls-8" d="M410.79,431.76a50.63,50.63,0,0,1,11.73,56.54L412.74,486l7.78,6.51a50.64,50.64,0,0,1-79.43,12.72l-1-.94,7.38-10.7-11.09,6.55a50.63,50.63,0,0,1,2.82-66.47,52.32,52.32,0,0,1,5.48-5l15.89,15.3-6.53-21.12a50.67,50.67,0,0,1,52.5,5.36l-2.79,7.68,6.46-4.59Z"/><path class="cls-9" d="M405.35,437.49a42.72,42.72,0,0,1,9.37,48.93l-2-.47,1.58,1.32a42.76,42.76,0,0,1-67.79,12.19c-.64-.6-1.25-1.22-1.84-1.85l2.81-4.07L343.29,496a42.73,42.73,0,0,1,1.66-57,42.2,42.2,0,0,1,5.52-4.89l10.13,9.76-4.17-13.48A42.72,42.72,0,0,1,405.35,437.49Z"/><path class="cls-10" d="M402.25,440.76a38.21,38.21,0,1,1-52.62,55.43c-.81-.77-1.58-1.57-2.31-2.39l.18-.26-.27.15a38.2,38.2,0,0,1,6.53-56.34l6.84,6.58-2.81-9.09A38.22,38.22,0,0,1,402.25,440.76Z"/><path class="cls-8" d="M389.5,453.52a1.12,1.12,0,0,1,1.52-1.64l.35.33h0a22.35,22.35,0,0,1,7,15.68,25,25,0,0,1-.08,2.6l7.24,1a30,30,0,0,0-.25-8,29.81,29.81,0,0,0-21.1-23.65l-4.06,16.4a12.91,12.91,0,0,1,8.7,11.85c0,.34,0,.68,0,1l7.26,1a20.85,20.85,0,0,0,.07-2.23,20.13,20.13,0,0,0-6.29-14.12h0l-.34-.31ZM398,472.71a22.42,22.42,0,0,1-18.72,18l.71,7.28a28.2,28.2,0,0,0,3.15-.6,1.12,1.12,0,0,1,.53,2.17,31.49,31.49,0,0,1-3.46.66l.32,3.28a1.12,1.12,0,0,1-2.23.22l-.32-3.28A32.19,32.19,0,0,1,362,497.26l-1.39,2.64a1.12,1.12,0,0,1-2-1l1.39-2.63a32.09,32.09,0,0,1-16-26.91c0-.59,0-1.17,0-1.75l-3.67-.23a1.12,1.12,0,1,1,.13-2.23l3.67.23a31.84,31.84,0,0,1,8.64-18.87,32.18,32.18,0,0,1,5.6-4.7l1.65,1.6a30,30,0,0,0-5.63,4.64,29.59,29.59,0,0,0-8,17.47l7.3.46a22.44,22.44,0,0,1,10.45-16.51,21.91,21.91,0,0,1,5.2-2.37,1.13,1.13,0,0,1,1.41.74,1.11,1.11,0,0,1-.74,1.39,20,20,0,0,0-8.68,5.4,20.14,20.14,0,0,0-5.4,11.5l7.31.46a14.27,14.27,0,0,1,.42-1.83,13,13,0,0,1,3-5.1,12.86,12.86,0,0,1,9-4,13.89,13.89,0,0,1,2.33.15l4.06-16.4a30.11,30.11,0,0,0-6.82-.6,29.62,29.62,0,0,0-14.81,4.39l-.69-2.21a32,32,0,0,1,22.86-3.75l.83-3.36a1.12,1.12,0,1,1,2.17.54l-.82,3.35a32,32,0,0,1,22.77,25.46,32.55,32.55,0,0,1,.26,8.65l3.07.44a1.12,1.12,0,1,1-.31,2.21l-3.07-.43a31.82,31.82,0,0,1-3.13,9.22,1.12,1.12,0,0,1-2-1,29.52,29.52,0,0,0,2.89-8.49l-7.25-1ZM377,490.87l-.49,0a22.41,22.41,0,0,1-10-2.08l-3.42,6.47a29.55,29.55,0,0,0,14.67,2.88l-.71-7.29Zm-12.52-3.11a22.89,22.89,0,0,1-4-3,22.39,22.39,0,0,1-7-15.68c0-.3,0-.6,0-.89l-7.3-.46c0,.51,0,1,0,1.54a29.8,29.8,0,0,0,14.86,25l3.42-6.47Zm-8.73-19.45,7.32.47a12.72,12.72,0,0,0,.17,1.84,1.12,1.12,0,0,0,2.2-.38,9.67,9.67,0,0,1-.13-1.32l4.59.29a1.12,1.12,0,1,0,.14-2.23l-4.59-.29a12.21,12.21,0,0,1,.31-1.33,10.66,10.66,0,0,1,9.89-7.51,10,10,0,0,1,1.73.09l-1.1,4.47a1.12,1.12,0,0,0,2.17.54l1.11-4.47a10.63,10.63,0,0,1,7,9.72v.64L382,468.2a1.12,1.12,0,0,0-.31,2.21l4.55.65a10.64,10.64,0,0,1-7.23,7.59c-.31.09-.62.17-.94.24l-.44-4.59a1.12,1.12,0,0,0-2.23.22l.45,4.58a10,10,0,0,1-2.31-.27,1.13,1.13,0,0,0-1.34.84,1.11,1.11,0,0,0,.84,1.34,12.91,12.91,0,0,0,3,.33l.71,7.3h-.32a20.19,20.19,0,0,1-9-1.83l6.62-12.55a1.12,1.12,0,1,0-2-1l-6.62,12.54A20.21,20.21,0,0,1,355.77,469c0-.23,0-.46,0-.69ZM379,488.42l-.72-7.3a10.92,10.92,0,0,0,1.37-.33,12.81,12.81,0,0,0,8.81-9.42l7.26,1a20.17,20.17,0,0,1-16.72,16Z"/></svg>