<svg id="svg4369" xmlns="http://www.w3.org/2000/svg" viewBox="0 0 334.17 271.64"><defs><style>.cls-1{fill:#7a4035;}.cls-2{fill:#8d8d8d;}.cls-3{fill:#ef0050;}</style></defs><title>bear 01</title><g id="layer1"><path id="path4330" class="cls-1" d="M2.48,61.59l.63,9.16L8,79l6.14.31,4.17-1.67L30,78.87l-.63,4.06-5.72,1.15-9.37-.84-1.46,4.69,16,4.16,16-6.24,8.85,3.64L63.49,98l6.25,4.37,1,8.85,4.27,6.56,6,2,5.62,12.08,5.83,1.35,2.6,14.47-6.87,23.95.42,36.54L78.07,220.05l-8,7.39,1,9.58,7.29,4,11.77,3.12L112.74,242l17.59-8.44L134.18,219l8.23-12.7,4.37,12.59,4.06,8-6.35,9.48-8.64,7.39-2.91,9.47,8.95,9.27,15.2,2.81,22.17-3.75L195.09,247l4.79-22.69-1.15-10.73,1.77-1.45-5.83-15.31V184l6-3.22,13.95,5.2,2.61-3.12h4.37l3.64-4.06,22.7-2-1.77,8-11,20.4-1.77,12.5,4,6.87,15.93,8.22v11.87l10.51,7.6,15.1,4.38,20.82-5.31,10.21-7.71,12.07-6,8.33-19,1.15-9.27-1.56-18-9.17-20,8.33-28.94-1-17.08,3.54-3.54L326.17,104l4.16.63-6.45-11.14L310.76,76.16l-13.22-14-8.85-6.87-3.33-1.77-.63-5L271.4,41.81l-6.35-1.46-4.37-5.94-25.92-1-8.12-5.1-18,5.21-19.26,2.29-16.13-3.65-1.88-2.91L146.78,27,138,31.5,136,29.94l-15.09,5.93-11.87-5L113.36,23,101.6,7.76,85.15,5.68l-8.33,6.56-17-7L46.42,1.72,36.21,8.49,32.05,20.36l-.11,6.77L23.72,39,15.18,50.55l6.46,4L19.87,60Z"/><path id="path4243" d="M137.89,30.33c-.87-.75,2-2.83.56-4.5-6.68.06-8.24,5.25-13.5,6.75-.19-.3,3-5.52-.56-6.19-3.57,1.3-4.37,5.38-10.12,4.5C117.3,9.44,92.76-3.29,77.16,8.4A23.63,23.63,0,0,0,74.91,5c-1.88.51-2.75-.2-4.5,1.13C69.14,5.73,69.18,4,67.6,3.9c-2.06-.19-3.13.62-4.5,1.12C60,4.38,56.93,3.69,55.79,1.09,40.7-3.17,31.79,5.6,29.36,18.52A14.49,14.49,0,0,0,30.48,23C29,28.94,22.67,30.53,20.92,36c-.29.92.46,2.42,0,3.37-4.27,9-18.44,9.32-20.8,20.25C-.52,68.52,1.5,73.85,6.3,80.37c1.82-.12,2.38,1,4.5.56.56,2.81-1.74,2.76-1.68,5.07,2.84,6,7.08,4.46,13.49,6.18,1.9.51,3.84,2.55,5.63,2.81,7.74,1.14,10.28-6.35,16.3-7.31,10.24-1.62,12.16,11.67,21.93,12.94,1.63,5.43-.69,10.62-2.25,14.62a4.91,4.91,0,0,1,2.25,2.25c2.59-.23,2.76-2.87,4.5-3.94,2.38,2.87,3.15,7.35,6.19,9.56,2.7-3.18-2-8.35-2.81-12.93-1.19-.5-1.67-1.72-3.38-1.69v-5.06c-1.58-4.75-4.79-5.19-9-7.88C52.86,89.74,51.17,79,35,84.31c-2.83.93-5.25,4.54-9,5.06s-8.42-1.69-12.37-2.25c1.86-5.45,7.84,0,11.8-.56,5.71-.81,6-6.76,10.13-9.56,3.58-1,9.39-2.5,7.31-7.31-4.36-.67-6.68,4.59-10.69,6.18-6.27,2.5-15.33,2-19.12-5.62,1.52-4.07,11.35-7,12.37-11.81,1.19-5.52-3.23-7.25-7.87-9.56,4.64-4.28,15.06-8.82,11.81-15.74C36.93,21.68,42.94,11.69,57.48,7.83c2.11-.42,1.22,2.15,2.81,2.25,2.15-.17,3-.89,5.62-1.68,2.17,1.95,5.16,3.09,7.31,5.06,7.81.25,14-7,21.93-6.19,8.11.82,13,8.44,15.75,16.87-2.3,6.52-7.71,9.91-14.06,12.37.31,4.1,4.06,1.81,5.62,2.81.4,3.22,2,8,6.75,8.44C108.45,44.11,106.57,38,112,36c8.34,1.87,14.49,10.77,23.62,5.06-5.86.38-9.25.3-12.93-2.25,4.8-2.32,10-4.27,13.49-7.87A13.86,13.86,0,0,0,139,33.7a36.55,36.55,0,0,0,10.13-4.5A27.68,27.68,0,0,0,152,32.58c6.43-1.93,15.29-2.78,21.37-3.38-1.31-6-12.81.53-15.75-5.62-7.85,1-15.2,2.42-19.68,6.75ZM55.79,5.58c-7.21,1-11.09,5.06-16.31,6.75-1.53,3.35-1.7,8-5.63,9C34,8.54,44.44-.75,55.79,5.58ZM17,56.76c-1.24-1.18-1.16-2.11.56-2.81C17.72,55.26,18.75,56.37,17,56.76ZM11.36,67.44c.08,4.25.44,3.44,1.69,7.31C6.36,80.13,2.24,68.24,5.74,63.51a23.78,23.78,0,0,0,5.62,3.93ZM28.23,82.63c-2.67.7-7.62.08-10.68-.57C18,77.45,27.82,78.93,28.23,82.63Z"/><path id="path4247" d="M85,18c3,1.88,7,2.76,10.12,4.49-1.18,3.81-4.1,8.43.56,10.69,2,1,3.19-3,6.19-2.81A102.75,102.75,0,0,0,103,19.08C98.64,15.24,89.41,12,85,18Z"/><path id="path4249" d="M187.93,34.82c2.71,9,12.26-2.34,16.87,2.82,9.89-3.24,20.32-4.93,28.68-8.44-6.21-4.23-15.21,2.07-22.5,2.25C209.65,30.26,214,30,212.67,27c-.45-.48-1.54-.33-1.69-1.12-7.31,3.37-12.51,8.86-23,9Z"/><path id="path4251" d="M230.67,34.82c10.56-1.52,23.43.88,33.18.57-3.46-3.26-14.43-5.06-21.94-5.06-4.34,0-11.42.34-11.24,4.49Z"/><path id="path4253" d="M172.19,30.89c.48,5.39,9,5.55,13.49,5.06C183.06,31.32,177.38,32,172.19,30.89Z"/><path id="path4255" d="M264.41,39.89c0,4,4.5,2.66,6.75,3.37,5.33,1.69,10.8,5,15.18,7.31,1.91-1.06-1-2-.56-3.37-6.59-2.63-12.33-9-21.37-7.31Z"/><path id="path4257" d="M123.83,45c-2,1.15.94,2,1.69,2.25-.24,1.07-1.61,1-1.13,2.81,5,3.3,10.62,5.87,15.18,9.56-2-5.15-7.39-6.85-11.81-9.56,2.22-2,6.27,1.33,8.44-.57-2.44-4.12-8.87-2.51-12.37-4.49Z"/><path id="path4259" d="M191.31,56.76c1.26-1.53,4,2.38,5.62.56-.71-4.51-7.33-10.53-11.81-11.24,2.54,3.65,7.28,5.09,9.56,9-1.77,1-3.78-2.58-7.31-1.68,2.14,5.54,7.89,7.48,9,14-2.7-.3-2.65-3.35-5.62-3.37.11,3,4.42,5.87,5.06,10.12-1.35,3.15-.44,8.56-3.38,10.12-1.69-.78,1.17-2.91-.56-3.93-3.41,4.64-6.28,9.84-11.81,12.37,4.13,2.1,8.7-4.18,10.68-7.87,1.82-.7.43,1.82,2.25,1.12,7.25-3.15,1.75-13.63,5.07-18-.75-5.25-3.51-8.5-6.75-11.25Z"/><path id="path4261" d="M103,48.88c.29,2,1.88,2.62,2.81,3.94-.08,1-1.91.34-2.25,1.12-.36,3.92,2.89,4.24,2.25,8.44-2.55.77-4,5.17-2.81,7.87,2.18-4.07,7.12-8.22,3.37-13.5,1.14-1.28,1.87,2.6,3.94,2.25-.11-3.54-2.9-9-7.31-10.12Z"/><path id="path4263" d="M294.77,58.44c.91.09,2.9,1.89,3.37.56-2.17-4.2-8.29-4.45-12.93-6.18-.93,1.21,1.25,2.91,1.12,5.06,4.55,2,8.92,4.2,12.37,7.31-.17.76-1.4.46-2.24.56,1.46,10.8,16.58,5.89,15.74,18a113.76,113.76,0,0,0,12.37,12.37c1.49,2.89,4.17,9.28,8.44,11.25-1.73-6.52-5.68-10.82-9.56-15.18-4.38-15.87-16.59-23.9-28.12-32.62-.11-.45-.56-.56-.56-1.12Z"/><path id="path4265" class="cls-2" d="M17.55,53.94c-1.72.7-1.8,1.63-.57,2.81C18.75,56.36,17.72,55.25,17.55,53.94Z"/><path id="path4267" d="M128.89,61.82c2.12,5,6.6,7.65,8.43,12.93-2.88-.86-3.09-4.4-6.74-4.5-1.25,4.68,2.76,8.3,2.24,14.06-2-.63-1-4.26-4.49-3.37C128.56,87,128,92.18,125,95c-1.51-.82,2.11-2.94,0-4.5-3.87,7.56-9.53,13.33-15.74,18.55,8.17-1,9.74-11,16.87-11.24,2-3.12,4.23-8.79,3.93-12.37,2.09-.22,1.47,2.28,3.94,1.68,1.65-4.57-.82-9.59-1.69-13.49,2.66-.77,3.85,4.76,6.75,5.62.79-7.76-5.42-13.3-10.12-17.43Z"/><path id="path4271" d="M110.89,73.06c-6,3.32-13.18,14-20.81,12.93-2.64-.37-3.26-3.37-6.18-2.81-.29,3.29,3.33,2.67,3.93,5.06-1,1.38-3.65-2.28-5.06-.56,1.47,2.47,5.26,2.62,8.44,3.37,1.19-1.18-.67-2.19-1.13-3.37,9.4-2.41,16.41-7.21,20.81-14.62Z"/><path id="path4273" class="cls-3" d="M17.55,82.06c3.06.64,8,1.27,10.68.56C27.82,78.92,18,77.45,17.55,82.06Z"/><path id="path4275" d="M69.85,91.62c-.16.91.53,1,.56,1.69-.77,1.1-2.06-2-4.5-1.13,1.15,3.35,3.79,5.22,6.75,6.75a2.12,2.12,0,0,0,2.25-2.25c5.1-.17,8.57-.15,10.68-2.25-3.93-4.29-10.08-.83-15.74-2.81Z"/><path id="path4277" d="M320.64,100.62c5.13,6.56,7.91,15.62,10.68,23,5.22-4.38-3.34-13.52-3.93-17.43-.1-.63,1-2,1.12-1.68-1.31-2.6-5.09-5.28-7.87-3.94Z"/><path id="path4279" d="M107.52,101.74c-3.13,2.76-4.38,8.13-6.75,11.81-1.19,1.85-3.43,3.23-2.25,5.62,4.36-4.45,7.29-10.33,9-17.43Z"/><path id="path4281" d="M274.53,115.8c-3.23,8.21-10,12.86-15.75,18.56,2.33,2.51,5.48-2.88,9.56-2.25-.41,4.5-10.85,6.72-9.56,12.93,4.23-5.33,10.28-8.84,14.06-14.62-1.06-2-4-.59-5.62,0,.16-4.61,9.9-7.26,7.31-14.62Z"/><path id="path4283" d="M100.77,139.42c-3.55,6,5.18,13.29,9,17.43,1.79.48,1.73-.88,2.81-1.12,4.63,2.34,7.68,9.13,12.93,9-6.83-5.35-10.15-14.22-18.56-18,0,1.84,1.6,2.15,1.13,4.5-3.72-2.66-3.79-9-7.31-11.81Z"/><path id="path4285" d="M120.45,151.23c8.78,5.89,4.5,18.11,1.12,27.55a31.08,31.08,0,0,0,5.63-7.87c1.41,5.9-4.74,8.49-3.38,14.06,2.4-3.64,5.8-9,5.63-16.87a3.12,3.12,0,0,0-2.25-.56c1.5-7-1.33-16.36-6.75-16.31Z"/><path id="path4287" d="M133.39,161.91c2.74,10.22,2.7,22.9,0,29.8C141.17,186.7,140,167.4,133.39,161.91Z"/><path id="path4291" d="M263.28,163c-.38-5.26,6.29-8.33,6.75-14.62-5.29.71-6,6-8.44,9.56-1.48-7.11,4.9-14.22,6.75-18-6.54,1.35-9.56,14.63-9,24.18-.49,1.81,1.46,1.17,1.69,2.25-9.5,7.94-26.47,12.09-41,10.13-.43,2.45,2.82,3.08,1.12,5.06-4.34,2.37-6.9-4.6-10.68-2.81-.19,2,2.38,2.77,3.37,5.06-4.23.55-10.26-4.62-14-4.5.72-4.34,1.87-8.25,5.06-10.12-.08-8.64-2.68-18.34,3.93-10.13,1.57-2.89-1.5-6-2.25-8.43,4.81-12.66,1.81-23.93-9-27.56,4.61-1.7,10.64,1.3,15.18.57-1.4-2.7-4.58-2.21-6.75-3.38-4.12-2.22-6.77-6.15-10.12-9-.36-2.08,1.75-3.88-1.12-3.94-3,6,6.17,9.53,9,13.5-2.26.74-6.63-1.23-10.12-1.13,1,6,7.35,6.53,10.68,10.12-.55,1.58-1.5-.81-2.24.57-.06,2.7,2.1,4.49,4.49,6.18.34,4.44-.34,9-1.12,10.68-3.68-2.13-.79-10.83-5.06-12.37-1.69,7.12,2.07,10.9,3.93,16.87-1.47-.21-1.57-1.8-3.93-1.12,1.8,8.51.92,13.65-1.69,21.37-.67,2-2.1,5.29-2.81,6.75-1.83,3.72-4.45,4.22-5.06,8.43-1.27,8.73,5.86,15.28,8.43,24.18,0,.92-3.17-.9-3.93.56A38.33,38.33,0,0,1,193,244c-.39.76-1.5-.27-2.81.57-2.65,17.34-21.15,20.61-41.05,18-2.12-.13-1.46-3-3.38-3.37-1.74-.06-3.12.25-3.93,1.12-3.44-3.65-7.29-5.36-6.19-11.81,1.35-7.92,10.66-8.53,14.06-14.06,2.84-4.61,1.66-9.74,1.69-14.62a6.19,6.19,0,0,0-3.94-2.25c.28-4.18-1.67-8.08-2.81-10.68-2.41-5.51,1-12.09-5.06-14.06.65-2.82,4.64-6,2.25-8.43-3.86.36-5.64,8.18-2.81,10.12-1.45,5.68-2.17,13.45-7.31,16.87-1.61,6.75,1.4,9.9,0,15.18-3.22,12.09-17.63,13.41-32.62,14.62-2.24.56-1.69-1.68-3.94-1.12-4,1.45-6.7,1.68-11.8,1.12-.74-2.07-1.31-4.32-3.38-5.06-3.94-1-4.52,2.63-7.31,1.13-2.48-4.21-.58-6.83,0-11.81,7.66-6.93,18-8.43,18-21.37-.05-14.07-5.78-24.48,2.81-34.3a13.68,13.68,0,0,0-2.25-2.25c1.79-6.08,5.09-10.65,4.5-19.12,1.21-1.17,3.1,4.09,5.06,2.25-3.81-4.82-5.23-12-6.75-19.12-1.28-.41-2.87-.5-3.94-1.12-1-5.21,1.83-9.3,1.13-12.38-3.63,3.39-2.85,6.84-3.38,12.38-4.53-2.79-2.74-11.88-9-12.94-.47,7.81,6.63,12.84,9.56,19.12,2.32.1,1.67-1.9,2.25-2.25,4.06,11.9-.24,30.89-9.56,37.68a2.89,2.89,0,0,0,4.49,2.25c-5.51,15.91,7.88,32.72-6.18,41.61-7.43,1.38-11.89,5.73-11.81,14.62-4.65,2.39-10.32,6.4-8.43,13.49,4.1-1.71,8-3.63,12.37-5.06,1.29,1.7-2.94,2.67-2.25,5.63,6.39,2,11.6-2.58,17.43,0,1.28.47-1.12,3.45.56,4.5,5.62-.19,9.89-1.74,12.37-5.07,18.93,1.17,45.46-2.16,36-26.42a40.65,40.65,0,0,1,6.75-8.44c2.12,4.62,2.68,10.82,5.62,14.62,1.47,15.74-19.92,11.53-15.74,28.12-2.07,3.37-7.57,3.3-7.31,9,3,2.21,7.69-1,11.24-1.68,1.33.17,1.05,1.95,2.81,1.68-1.23,2.71-4.52,3.36-5.62,6.19,3.45,3.44,10.65-.53,15.18,0,.44,2.19-2.07,2.91-.56,4.5,6,.76,10.9-4.29,15.75-5.06,3-.48,5.34.7,7.87.56,20.06-1.14,28.14-19.62,30.93-36.55-.61-6.5-2.42-9.36-2.81-15.19.83-1,2.17,2.14,3.93.57-4-12.13-13.29-23.07-2.25-33.18,5.2,1.37,9.42,3.71,14.62,5.06.84-.48,1.21-1.41,1.13-2.81,1.2,1,4.12.38,6.18.56,1.23-1,1-3.47,2.25-4.5a145.69,145.69,0,0,0,20.25-2.25c0,16.4-21.15,25.14-13.5,41-3.76,2.24-8.6,3.39-9,9,4.76-2.11,9.67-.77,14.06-2.81-1.92,3.14-6.18,6.3-4.5,11.24,3.77-2,6.7-4.92,11.81-5.62,1.37.46-1.11,3,.56,3.94a12.26,12.26,0,0,0,5.06-.56c1.53,1.1-.34,5.59,1.13,6.74-2.91,3.09-7.24,4.76-7.31,10.69,6-.1,7.81-3.4,11.81-2.81-1.58,2.79-6.11,4.79-4.5,9,6-3,8.13-4.83,14.62-3.37-.31,2.31-1.61,3.64-1.69,6.18,3.67,2,5.93-3.43,9-3.93,2.25-.37,5.14,1.6,7.31,1.68,6.54.25,17.46-4.33,21.37-6.74,1.87-1.16,3-3.53,5.06-4.5.79-.38,2.7.24,3.37,0,3.11-1.1,4.51-3.94,7.31-5.06,1.78-.09,1.88,1.49,3.94,1.12,8-13.46,13.68-30.27,10.12-45.55-.4-1.52,2.65.41,2.25-1.12-2.42-7.45-8.58-14.51-8.43-23.62a108.35,108.35,0,0,1,5.06-29.8c-.11-8.75,2.21-20.79-6.19-24.18,1.5,5.11,4.4,15.91,2.25,24.74.4.91-2.65.91-2.25,0-2.17,6.28-5.61,12.55-6.18,19.68-.92,11.37,3.43,20.51,10.12,28.12-2.54,6.48,3,14.89,1.12,21.37-1.05,1.1-2.06.17-3.37,0-1,6.55-.6,12.48-2.81,18.55-2.13.48-2.64-1.86-3.94-.56a22.15,22.15,0,0,1-7.31,9.56c-2.15.46-.66-2.71-2.81-2.25-7.2,8.21-19.76,16.31-32.05,15.75-1.85-.22-1.75-2.38-2.81-3.38-6.29,2.79-9.58-3.3-15.75-3.93-1.76-2.45-1.46-4-3.94-6.19,1.66-10,7.88-15.36,15.75-19.12,4.36-9.28,5.77-20.42,2.81-29.8-.67-2.14-3.13-3.56-3.94-5.62-2.39-6.13-.5-11.91-2.24-18-2.24-1.34-1.53,1.26-3.38,1.69.48-3.83,2.83-5.79,3.94-9-.16-1.15-1.5-1.12-2.25-1.69-2-.15-1.29,2.47-2.25,3.38Zm7.87,37.11c1.23,17.39-9.68,21-18.56,29.81-5.24-.68-7.23-4.79-10.68-6.19a22.57,22.57,0,0,0-3.37-1.13c-3.83-.46-4.22-8.48-3.38-12.37,1.79-8.27,17.12-20.79,15.75-32,5.77-.59,9.2-3.54,14-5.06-1.6,10.39,5.48,17,6.19,27Z"/><path id="path4293" d="M48.48,47.76c6.61,5,18.82,1,15.74-6.75S48.64,39.87,48.48,47.76Z"/><path id="path4332" class="cls-2" d="M10.08,54.67c1.21.49,1.26,1.15.39,2C9.23,56.37,10,55.59,10.08,54.67Z"/></g></svg>