<svg xmlns="http://www.w3.org/2000/svg" viewBox="0 0 320.06 277.7"><defs><style>.cls-1,.cls-3,.cls-4,.cls-6,.cls-7,.cls-8{stroke:#000;stroke-miterlimit:10;stroke-width:0.04px;}.cls-2,.cls-4{fill:#ad4200;}.cls-3,.cls-5{fill:#ede9b0;}.cls-6{fill:#fff;}.cls-7{fill:red;}.cls-8{fill:gray;}</style></defs><title>dog-07</title><g id="Layer_1" data-name="Layer 1"><g id="Layer_1-2" data-name="Layer 1"><path class="cls-1" d="M202.84,106c4,2,10.12,3.67,18.69,5.29s21.81,1.84,32,3.85,25,5.26,28.54,8.14c3.32,2.74.54,5.8-8.46,8.78,2.49,1.66,3.32,3,2.49,4.25s-3.35,2.05-7.42,2.81c1.33,3,1.08,4.75-.36,5.29-1.65.5-6.48-.07-8.78-2.12s-3.75-5.69-4.61-10.59c-5.94-4.14-13.82-7-23.94-8.78s-22.25-2.34-36.65-1.76c2.81-5.06,5.62-10.1,8.46-15.17Z"/><path class="cls-2" d="M198.27,107.37c5.37,1.51,10.87,2.88,16.92,4.25s12,2.81,19,3.85a225.87,225.87,0,0,0,22.53,1.76,6.79,6.79,0,0,0-3.85,3.17,12,12,0,0,0-1.44,6c-6.87-3.38-15.15-5.68-25-7a181.81,181.81,0,0,0-33.84-1c-2.56-.79-3.42-2.08-2.45-3.88s3.52-4.17,8.09-7.05Z"/><path class="cls-3" d="M258.5,118a68.67,68.67,0,0,1,12.67,2.63c3.78,1.19,8.9,3,9.79,4.46.72,1.37-3.52,2.88-5.11,3.85a10.93,10.93,0,0,1-4.57,1.41l-3.78-2.63c1.48,1.66,2.7,3.31,3.67,4.57s2.34,2.34,1.95,3.28c-.58.9-2.13,1.55-4.94,2.09l-3.31-4.36c1.51,2.7,2.48,4.79,2.63,6.41a2.72,2.72,0,0,1-1.58,2.95c-1.08.22-2.42.25-4-1.69-1.62-2.09-3.24-5.51-5.26-10.4l-3.78-2.85c-.39-2.81-.18-5,.8-6.62s2.55-2.64,4.82-3.1Z"/><path class="cls-1" d="M168.5,98.8c-6.44,9.61-24.73,27.29-31.79,40.43a144.8,144.8,0,0,0-31.1,6.16c-10.8,3.17-24.27,12.27-32.47,13.28s-7.28-2.95-16.49-7.49-33.34-18.86-38.7-20-.29,6,6.66,12.85,18.14,15.48,34.27,27c-2.05,10-2.84,17.71-2.52,23.51s1.8,9.36,4.54,11c-9.22,9.79-15.12,19.69-17.57,30.24S42.72,260.84,46,268s8.61,10.15,16.56,9.69A65.86,65.86,0,0,0,79.08,275c5-1.65,11.16-4.21,13.6-6.69s2.63-5.22.72-8.28c4.86,3.38,9.54,5.47,14.19,6.12s7.77.82,13.46-2.13c5.73-3.13,16.38-10.11,20.45-16.09,3.82-6.08,3.78-15.84,2.95-20s-3.6-5.72-8.28-4.82a42.28,42.28,0,0,0,12.46-8.72,30.19,30.19,0,0,0,6.8-11.59c10.55-4.35,19.73-8.53,27.94-12.67s15.19-5,20.73-12.1,9.33-17.2,11.81-30.45c8.43-9.43,13.07-18.43,14.51-27.54,1.26-9.15-.83-18-6.55-26.86-48.82-20-29.23-10.37-55.37,5.58Z"/><path class="cls-3" d="M75,236A54.66,54.66,0,0,0,87.64,250.4c5.37,4.53,14,11,20.09,12.35,6,1.08,11.41-.54,16.2-5.3-6.05-2.34-8.53-3.81-7.74-4.57s4.93-.79,12.67,0a21.67,21.67,0,0,0,6-4.61,5.85,5.85,0,0,0,1.41-4.57c-7.09-.46-10.23-1.33-9.54-2.45s5.15-2.69,13.75-4.57q1.41-1.19,0-3.89a33.4,33.4,0,0,0-6-7c-5,1.33-10,2.55-15.15,3.53s-14.51,2.73-15.52,2.44,2.31-1.65,9.87-4.21c-3.5-4.35-6.88-6.51-10.55-6.33s-7.09,5.72-11.27,7.05c-4.28,1.12-10.91-1.33-13.75,0S74.32,232,75,236Z"/><path class="cls-4" d="M115.47,225c.11-.86-.83-1.8-2.81-2.81s-6.19-3.81-9.18-3.53-6,4.32-9.14,5.3-5.94-.47-9.15,0-7.56.89-9.86,2.12A7.15,7.15,0,0,0,71.08,231c-3.81-2.77-4.75-6-2.81-9.86s6.7-8.35,14.44-13.39c-4,.64-7.78-.58-11.63-3.53-3.92-3.17-9.9-8.68-11.27-14.44s-.32-12.24,3.17-19.73A165.86,165.86,0,0,1,47.5,159.86a150.78,150.78,0,0,1-13.75-11.63l3.17-3.85c7.59,4.71,14.4,8.49,20.41,11.63a105.68,105.68,0,0,0,15.52,6.66,35,35,0,0,1,13,.72c4.57,1,9,6.48,14.11,5.61s11-9.61,15.84-11.23,8,5.11,13,1.41c5-3.86,8.86-17.93,16.56-24.34,7.56-6.62,18.15-10.66,28.55-14.44s25.24-9.14,33.08-8.1c7.67,1,11.88,9.29,13.07,14.44,1,5.11-4.5,10.33-6.37,16.2s-1.84,11.92-4.93,18.32c-3.14,6.23-5.84,13.43-14.08,19.37-8.5,5.87-20.19,11.16-35.93,15.88a43.89,43.89,0,0,0-5.65-18,39.75,39.75,0,0,0-12.67-13c5.18,9.65,8.35,17.68,9.5,24.66s2.81,10.69-2.81,16.56c-5.89,5.81-16.19,11.86-31.71,18.31Z"/><path class="cls-3" d="M89.41,259.58q-3.68-.54-9.51-6.7c-4-4.17-8.6-10.08-14.11-18-.22,1.84-1.73,3.42-4.93,4.61a57.69,57.69,0,0,1-14.08,2.45,32,32,0,0,0-.72,13.75c.76,4.54,1.55,9.76,5.29,13,3.68,3.1,9.15,4.94,16.56,5.65-5.5-7.45-7.74-11.37-6.69-11.62s5.18,2.95,12.67,9.86A30.54,30.54,0,0,0,81,270.49a11.64,11.64,0,0,0,4.24-3.17c-4.89-5-6.94-7.6-6-8.1s4.57,1.29,11.27,5.29c-.32-1.61-.68-3.27-1-4.92Z"/><path class="cls-4" d="M61.94,225.38a26.33,26.33,0,0,1,2.81-7.74A11.86,11.86,0,0,1,69,213.07l-5.65-4.57a98.51,98.51,0,0,0-9.5,12.31,44.72,44.72,0,0,0-5.29,10.58,16.9,16.9,0,0,0-1,8.1,36.31,36.31,0,0,0,11.63-3.16,12.47,12.47,0,0,0,6-6l-3.17-4.93Z"/><path class="cls-1" d="M202.84,128.5c4,1.94,10.12,3.71,18.69,5.29s21.81,1.8,32,3.89c10.18,1.91,25,5.26,28.54,8.1,3.32,2.81.54,5.69-8.46,8.79,2.49,1.65,3.32,3,2.49,4.24s-3.35,2.05-7.42,2.81c1.33,3,1.08,4.75-.36,5.29-1.65.51-6.48-.07-8.78-2.12s-3.75-5.58-4.61-10.55c-5.94-4.21-13.82-7-23.94-8.82s-22.25-2.34-36.65-1.76l8.46-15.15Z"/><path class="cls-2" d="M198.27,129.91c5.37,1.51,10.87,2.88,16.92,4.25s12,2.84,19,3.89a209.75,209.75,0,0,0,22.53,1.72,6.79,6.79,0,0,0-3.85,3.17,12,12,0,0,0-1.44,6c-6.87-3.38-15.15-5.68-25-7a181.81,181.81,0,0,0-33.84-1.05c-2.56-.79-3.42-2.08-2.45-3.88s3.52-4.18,8.09-7.06Z"/><path class="cls-3" d="M258.5,140.56a68.67,68.67,0,0,1,12.67,2.63c3.78,1.18,8.9,2.95,9.79,4.46.72,1.44-3.52,2.88-5.11,3.89a11,11,0,0,1-4.57,1.37l-3.78-2.63c1.48,1.73,2.7,3.2,3.67,4.57s2.34,2.34,1.95,3.31c-.58.87-2.13,1.55-4.94,2.06l-3.31-4.36c1.51,2.7,2.48,4.79,2.63,6.41a2.72,2.72,0,0,1-1.58,2.95c-1.08.22-2.42.25-4-1.69-1.62-2.09-3.24-5.51-5.26-10.41l-3.78-2.84c-.39-2.81-.18-5,.8-6.62s2.55-2.64,4.82-3.11Z"/><path class="cls-1" d="M239.49,99.2c-5.76,8.31-9.79,14.47-12.49,19s-3.85,7-3.46,7.74c-6.66-6.84-13.1-12.89-19.47-18.83s-12.53-11.23-18.69-16.27c3.42-6.51,7.09-14.9,11.3-25.31,4.07-10.65,7.35-27.18,13.58-37.08S224.91,11,234.05,7,256.73,2.65,264.4,5c7.56,2.09,11.45,11.2,15,15.12,3.39,4,2.6,6.7,5.8,8.39,3.24,1.4,8.89,1.08,13.46.57s9.8-3.67,13.25-3.45,6,1.51,6.95,4.71c.72,3.24-2.41,9.54-2.2,14.33s4.61,8.68,3.32,13.47a26.65,26.65,0,0,1-11.67,14.65c-7,4.17-20.34,9.11-29.81,10.37-9.57,1-20.52-6.38-27-3.68s-10.51,9.15-12,19.77Z"/><path class="cls-2" d="M185.06,93.83c2.66-3,5.36-7.77,8.39-14.54,3-7,6.05-17.35,9.29-25.92,2.95-8.53,5-18,9.07-24.77s10.26-11.84,15.44-15.44a33.63,33.63,0,0,1,14.62-7c5.25-1,12-2.52,16.85.87,4.57,3.38,8,14.15,11.34,19s8.24,4.5,8.82,9.07c.39,4.47-2,12.93-6.41,17.32s-14.76,5-20.23,8.28-8.46,10.47-13,11.37c-4.68.72-10.05-10.22-14.3-6.87s-6.8,19.47-10.72,26.57c-4,6.94-8.28,11.91-13,15q-8.1-6.48-16.24-13Z"/><path class="cls-5" d="M201.65,107.91a32.67,32.67,0,0,0,8.39-7.16,49.63,49.63,0,0,0,7.16-11.24c2.34-5.25,4.54-15.51,6.45-19.26,1.76-3.81,1.94-3.16,3.85-2.77,1.73.4,4.43,4.39,6.84,5.33s4.25,1.8,7.2,0c3-1.95,6.44-8.32,10.51-10.8s8.93-2.63,13-4c3.89-1.55,7.6-2.12,10.3-4.93s4.43-8.43,5.29-12.1a16.73,16.73,0,0,0-.87-10.15c-1.54-2.7-4.14-1.44-7.48-5.8S264.94,13.88,260,4.48c3.35.65,6.48,2.52,9.83,5.62S277,19.6,279.48,23c2.27,3.2,2.27,4.93,4.47,6.3s5.14,1.26,8.38,1.37a57.36,57.36,0,0,0,10.88-1.12c-1.44,3.75-1.73,6.63-.87,9.07.9,2.27,3.78,4,6,5a12.43,12.43,0,0,0,6.63,1.3c3,3.24,4.5,6.55,4.28,9.79s-2.59,6.73-5.65,9.65a42.79,42.79,0,0,1-12.85,7.27c-3.89,1.08-7.81-1.51-10-.54s-.44,4.83-3.14,5.91c-2.91,1-10.54-.11-13.75.25s-1.8,1.55-5.4,1.62c-3.88,0-12-3.21-16.63-2-4.46,1.12-7.85,4.39-10.3,8.43-2.55,3.88-4.17,8.67-4.85,14.76-2.09,2.59-4,5.11-5.76,7.7s-3.42,4.93-5.05,7.42q-12.1-3.63-24.27-7.24Z"/><path class="cls-1" d="M265.09,24.07A14.86,14.86,0,0,0,259,21.15a33.09,33.09,0,0,0-10.19-1.69,42.06,42.06,0,0,0-11.45,2.41c-1.15.65.5.9,4.82,1.15-1,4.75-.68,8.46.87,11.52S248.42,41,251.44,41s7.28-4.83,9.15-7.28a9.73,9.73,0,0,0,1.87-7.88,6.48,6.48,0,0,0,3.06-.29c.42-.29.28-.83-.44-1.47Z"/><path class="cls-6" d="M260.44,25.4l-3.67-1.19a5.28,5.28,0,0,1-1,3.49c-.86.9-2.3,2.38-3.49,2.49a5.32,5.32,0,0,1-3.82-2A11.55,11.55,0,0,1,246.26,23l-2.67.21a20.87,20.87,0,0,0,1.3,8.14c.83,2.12,1.84,4,3.85,4.82a11.91,11.91,0,0,0,7.74-.25c2-1.26,3.28-4.46,4-6.26a4.8,4.8,0,0,0-.08-4.25Z"/><path class="cls-6" d="M312.86,31.45c.29.72.25,4.28-.54,5.14s-4.5.11-4.72-.21c-.28-.51,3-1.55,3.53-2.31s-.79-1.65-.5-2,1.94-1.33,2.23-.57Z"/><path class="cls-1" d="M281.9,23.53a5.07,5.07,0,0,0-.61-3.78,12.27,12.27,0,0,0-3.67-3.68c1.4-1.47,1.9-2.34,1.51-2.59s-1.84.07-4.11,1a42,42,0,0,0,3.1,4.75,34,34,0,0,0,3.78,4.25Z"/><path class="cls-1" d="M222.39,128.39l-13.07-12.78-13.21.11A31.82,31.82,0,0,0,199,125c1.14,2.09,2.12,3.13,4,3.42,1.76.25,5-2,6.84-1.91,1.76,0,2.52,1.41,4.21,2.23s4.21,2.81,5.72,2.81,2.24-1.15,2.64-3.13Z"/><path class="cls-5" d="M228.83,110.61a14.09,14.09,0,0,0-2.77,4.39c-.94,2-1.77,5.11-2.77,7.71s-1.73,7.16-3.64,7.59c-2.09.25-5.36-5-8.17-5.54S205,128.11,203,127s-3.13-4.46-3.35-9.64a14.9,14.9,0,0,0,7.27.32,15.44,15.44,0,0,0,5.84-3.67,10.59,10.59,0,0,0,2.77-5.11q6.66.86,13.29,1.76Z"/><path class="cls-1" d="M241.9,93.65a8.71,8.71,0,0,1-.79,4.72,43.71,43.71,0,0,1-3.78,6.8,57.83,57.83,0,0,1-12.46-.9A174.9,174.9,0,0,1,203.34,100a196.37,196.37,0,0,1-25.2-9.72l1.34-12.45c-.44,0,2.62,1,9.32,3s21.49,6.59,30.42,8.79a168.83,168.83,0,0,0,22.68,4.07Z"/><path class="cls-7" d="M240.46,94.55a15.94,15.94,0,0,1-1.19,4.61,29.85,29.85,0,0,1-2.73,4.72,207,207,0,0,1-21-2.88A143.74,143.74,0,0,1,198,96.39a190.73,190.73,0,0,1-18.5-7.34l1-9.69c5.76,2.09,12.49,4.36,20.74,6.66s21.31,5.62,28,7.09c6.55,1.44,10.23,1.87,11.16,1.44Z"/><path class="cls-1" d="M222.39,37.82c-2.27,0-3.46,2.3-4.1,7s-.22,14.19.61,21.06,4.06,12.6,3.85,19.41c-.4,6.77-3.38,15.48-5.62,20.88s-2.3,9.43-7.81,10.76c-5.61,1.15-20.56,0-25.24-3.56-4.64-3.78-1.9-10.84-2.48-18.25-.79-7.53-1.15-19-1.62-26-.65-6.95-3.6-9.68-1.22-15.16s9.57-13.46,15.69-17.42a35.69,35.69,0,0,1,20-5.9,4.74,4.74,0,0,1,3.74,1.54,24.51,24.51,0,0,1,4.17,5.55Z"/><path class="cls-2" d="M222.79,35.44a8.53,8.53,0,0,0-4.68,3.46c-1.05,1.58-1.73,2.34-1.91,6.3-.36,3.92-.94,11.63-.22,17.13s3.1,10.7,4,15.09,1.12,6,.65,10.19a91.67,91.67,0,0,1-3.74,14.4c-1.55,4.24-2.27,8.53-5.08,10.9-2.91,2.16-8,2.38-12.06,2.31s-10.11-1.15-12.71-3.06-2.62-4.36-3.09-8.43-.29-10.54-.22-16.09.18-12.27-.36-17-3.53-8-3.38-11.52.86-6.08,4.06-9.75c3-3.85,8.75-9.79,14.69-12.82s12.71-4.61,20.77-5c1.09,1.29,2.2,2.62,3.32,4Z"/><path class="cls-1" d="M150.46,85.19l1.44-2.8a7.68,7.68,0,0,0,4.72,2.08,15.13,15.13,0,0,0,6.19-1.29c1.19,3.56,3.09,5.61,5.72,6.59s5.91.36,10-1.37l.79-7.71a10.26,10.26,0,0,0-3.81-4,9.24,9.24,0,0,0-5.62-1.59,12.6,12.6,0,0,0-6.37,2.63c-.29-2.66-1.26-4.07-2.92-4.21s-4.14.86-7.23,3.17l.14-3.82c-11.88-3.31-26.75-5.9-45.43-7.77s-48-3.06-66.06-3.5-31.75-.39-41.58.44L0,73a702.18,702.18,0,0,1,79.63,1.73,511.72,511.72,0,0,1,70.81,10.47Z"/><path class="cls-7" d="M.34,64l.25,7c15.09-.65,29.52-.79,43.89-.43s28,1.18,41.58,2.44,28,2.92,38.7,4.65,18.39,3.24,24.12,5a12.25,12.25,0,0,0,1.91-3.53,23,23,0,0,0,1-4.79c-5.94-1.94-15.12-3.71-27.69-5.29-12.74-1.8-30.31-3.31-47.55-4.39s-42-1.33-54.94-1.48S1.85,63.34.34,64Z"/><path class="cls-8" d="M169.33,79.65a4.43,4.43,0,0,0-2.59,4,5.51,5.51,0,0,0,3.42,3.67c1.51.29,4.86-.39,5.72-1.51.69-1.3,0-4.36-1.08-5.44s-4.14-1.22-5.47-.68Z"/><path class="cls-8" d="M156.51,77.45a2.23,2.23,0,0,0-.79,2.74c.36.72,2.55,1.69,3.38,1.37.76-.47,1.77-3.31,1.37-4s-3.2-.65-4-.15Z"/><path class="cls-1" d="M240,0c-7.6,0-14,1.51-19.12,4.79s-9.1,8.13-11.95,14.72c-1.51-6.59.4-11.45,5.58-14.72S228.12,0,240,0Z"/><path class="cls-1" d="M216.13.41a6.06,6.06,0,0,0-6,2c-1.69,1.76-3.24,4.68-4.35,8.75C204,7.4,204,4.55,205.8,2.79S210.87.16,216.13.41Z"/><path class="cls-1" d="M27.31,153.77a99.45,99.45,0,0,0,13.17,10.37A45.55,45.55,0,0,0,52,169.72c-6.87-.58-12.13-2.13-16.31-4.79A19.83,19.83,0,0,1,27.31,153.77Z"/><path class="cls-1" d="M26.91,164.14a19.21,19.21,0,0,0,6.37,6.37,24.23,24.23,0,0,0,9.18,3.21c-5.22.18-8.93-.4-11.55-2a8.49,8.49,0,0,1-4-7.56Z"/><path class="cls-1" d="M154.78,103.19a110.92,110.92,0,0,1-7.56,11.56c-3.13,4.17-6.8,8.64-11.16,13.53a35,35,0,0,1,6.37-13.14,57,57,0,0,1,12.35-12Z"/><path class="cls-1" d="M147.22,103.19a99.44,99.44,0,0,1-8.75,6.77c-3.35,2.16-6.8,4.28-10.76,6.37a25.91,25.91,0,0,1,8-8.35,32.94,32.94,0,0,1,11.55-4.79Z"/><path class="cls-1" d="M44.84,74.9c17.31,1.37,31,2.91,41.43,4.79s17.18,4,20.7,6.37c-18-2.67-31.75-5-42.22-6.77S47.83,75.91,44.84,74.9Z"/><path class="cls-1" d="M54.42,79.69,80.3,86.85c-8-.72-14-1.55-18.32-2.77S55.13,81.45,54.42,79.69Z"/><path class="cls-1" d="M237.26,151,252,157.37a94.21,94.21,0,0,1-11.56-2c-2.45-.75-2.31-1.29-2.77-2a2.39,2.39,0,0,1-.39-2.37Z"/><path class="cls-1" d="M236.07,156.19l13.93,6c-3.78.43-6.87.21-9.14-.8a8.48,8.48,0,0,1-4.79-5.19Z"/><path class="cls-3" d="M32.09,145.42q-8.15-5-10.36-7.56c-1.52-1.87-1.16-3.64,1.22-2.81s6.34,3.42,12.35,8c-1,.8-2.13,1.59-3.21,2.38Z"/></g></g></svg>