<svg xmlns="http://www.w3.org/2000/svg" viewBox="0 0 323.86 133.38"><defs><style>.cls-1,.cls-2{stroke:#000;stroke-miterlimit:10;stroke-width:0.04px;}.cls-2{fill:#804000;}</style></defs><title>dog-10</title><g id="Layer_1" data-name="Layer 1"><g id="Layer_1-2" data-name="Layer 1"><path class="cls-1" d="M74.18,4.91,93.3,31.27,114.46,46l41.12-1.55L191,40.34,235.68,60.5l36.18,9,28.9-7.24,23-15-17,20.13L286.59,77.81l-28.69.26-14.73-1.84-10.08,23,12.39,4.13,1.29,17.07L261,124.83l-13.17,6.7-16.28-18.87-17.31-4.39,4.14,7.52-24.3,17.57-16.27-1.29-1.05-9,9.83.25,18.07-11.63-11.34-8-4.14-9.83H171.6l-35.42,11.12-1.8,10.87,20.16-1-6.44,11.88-18.87.5-13.46-22.46-.51,8.28-19.36,8.5-7,8.81-24.3,1.81,3.89-10.34L81.93,123l10.33-17.32L86.82,100,86.57,90,71.09,71.08,60.7,55.56,54,60.49l-5.94-6.73V38.5l-38.78-10L0,15,2.06,8.8H29.45L36.19,0l38,4.9Z"/><path class="cls-2" d="M189.67,42.39l43.67,19.12,38.52,9.57,31-8,12.68-9L304.91,66.15,285.29,76l-28.69-.25-13.18-1.8L238.24,68l-14.19-8.53-14.47-.26L192.51,69.54l-5.68,10.08L188.37,91l-19.62.76-32.58,11.37L138,85.81l-18.86-6.19,16,8.53L132,116.55l17.07.25-2.85,8-16,.25-16.52-25L93.77,84.77l19.4,19.4L94.56,95.89l-7.23-8L62.27,54.56,76,41.35l-8.78-26.6L71.81,40.6,53.74,57.66,49.6,52.48l-.5-13.43L56.05,14,47.26,36.2,10.07,27.42l-7-11.63,5.94-1,1.8-4.9H31.49l5.19-7.77L73.11,6.22,91.47,32.06l21.17,15.52L155,46.79l34.64-4.39Z"/><path class="cls-1" d="M38.5,8.05l7.78.75-6,1.3L39.8,15l-3.6-1.8Z"/><path class="cls-2" d="M92.25,97.69l21,8.53.51,5.94L93,119.65l-4.93,8.53L67.2,130l2.59-6.19,13.43.25,11.62-18.87-6.19-5.93-.29-5.94,3.9,4.38Z"/><path class="cls-2" d="M241.87,74.18l-4.39-4.9-9-4.93-5.18-3.09-11.38-.51-16.52,8.79-5.94,10.58L191,93.3l3.09,8.53,12.68,9.83-18.37,13.17-9.53-.25.5,5.15,12.67,1.8L214.48,115l-4.65-10.58L222,94.09l8.28-1.55,11.62-18.38Z"/><path class="cls-2" d="M230.49,94.84l-6.7.8-11.12,8.53,1.3,3.34,19.11,4.4L244.46,129l10.08-3.38L246,122.24l-4.65-18.36L231,100.28l4.43-11.88-4.95,6.44Z"/></g></g></svg>