<svg id="svg2" xmlns="http://www.w3.org/2000/svg" viewBox="0 0 661.48 550.14"><defs><style>.cls-1{fill:#d40000;}.cls-2{fill:#d27100;}.cls-3{fill:#f29a25;}.cls-4{fill:#045;}.cls-5{fill:#fff;}.cls-6{fill:#ff7f2a;}.cls-7{fill:#a93600;}.cls-8{fill:#c25d00;}</style></defs><title>dog-01</title><g id="layer1"><path id="path3613" class="cls-1" d="M535.71,144.43a293.36,293.36,0,0,0,47.75,6.86c15.42,2.8,10.4,20.6,13.81,31.41,1.72,17.24,24.69,16.86,24.85-.84,4.1-18.6-4.34-43.31-25.24-46.77-16.43-4-33.41-1.11-50.08-2.37-5.33.64-25.29,6.07-11.09,11.71Z"/><path id="path2944" class="cls-2" d="M392.93,409.66c15.63,2.58,36.29-5.28,48.68,4.14,4.61,10.39,6.07,24.54-2.21,33.56-9.59,8.36-12.73,20.91-21.2,30.08-12,16.27,13.13,10.84,22.6,11.2,8.64-2.86,26.21,7.52,11.73,12.65-22.13-.47-44.43.84-66.49-.82-12.82-8.37-4.88-27.81-5.6-40.61,3.58-16.78,6-34.57,12.49-50.2Z"/><path id="path2935" class="cls-2" d="M504.36,391.5c-1.37-54.94,11.92,60.82,16.6,81.77-1.07,10.45,15.52,42.57-3.3,38.19-13.78-8.55-15.17-32.6-22.44-45.4-6.77-18-14.84-37.72-9.47-57.09,4.69-9.1,15.24-28.08,18.61-17.47Z"/><path id="path3093" class="cls-3" d="M604,41.69c-38.63,18.46-58.36,33.94-103.54,71.73-6.47-4.5-15.83-12.13-19.54-13.31-10.31-3.33-20.6-6.69-31-9.84-4.18,4.28,1.59,9.86,3.22,14a34.41,34.41,0,0,1,2.08,3.9c-68.05-16.38-18,20.86-.79,43.49C448.23,166,424,188.77,409.92,254.27c-22.69,39.09-134.57,151.08-144,199.55-5.24,13.65-6.27,32-2.33,47.83-16.44,3.28-29.15,7.05-51.15,1.93-28.24-15.3-41.09-24.13-72.22-44-52.14-22.88-115.3-15.75-101,49,7.61-35.14,75.87-33.4,94.05-23.22,29.23,22.73,36.81,27.52,58.86,39.5,23,11.27,57.57,11.58,81.67-1.74,7.9,9.51,11.09,11.63,35.81,10.49,47.22.26,94.92,2.73,141.78-4.85,16.08-30.63-45.63-14.87-56.94-29.38a46.32,46.32,0,0,0,11.58-4.5c6.05-2,12.41-4.26,17.91-7.72,13.47-3.41,35.32-23.11,54.27-45.46,6.61,19,13.78,38.23,15.08,58.77.17,10.08,10,49.81,21.08,26-2.72-47.5-4.78-52.19-8.41-99.63,16.15-63.87,41.15-80.7,17.33-211.31C555.59,183.45,649.71,81.17,604,41.7h0Z"/><path id="path2885" class="cls-4" d="M606.18,34.58c-10.39,9-25.47,20.05-21.49,35.75,11.74,12,30.31-1.69,40.2-10.64,12-10.25,5.82-35.52-12.13-28a36.79,36.79,0,0,0-6.58,2.91Z"/><path id="path2900" d="M536.87,139.89a15,15,0,1,1-30,.27v-.27a15,15,0,1,1,30-.28v.28Z"/><path id="path2902" d="M521.93,109.67a9,9,0,1,1-9-9,9,9,0,0,1,9,9Z"/><path id="path2904" class="cls-5" d="M531.43,136.41c0,2.84-1.42,5.14-3.18,5.14s-3.18-2.3-3.18-5.14,1.43-5.15,3.18-5.15S531.43,133.57,531.43,136.41Z"/><path id="path2906" class="cls-5" d="M517.4,106.59c0,1.75-.87,3.16-1.95,3.16s-2-1.41-2-3.16.87-3.16,2-3.16,1.95,1.42,1.95,3.16Z"/><path id="path2976" class="cls-6" d="M353.35,415.31C362.28,395.1,454.1,426,394.75,495,414.73,461.87,395.28,404.28,353.35,415.31Z"/><path id="path3050" class="cls-7" d="M429.08,120.84a2.25,2.25,0,0,0-1.53.94c28.95,14.75,31.69,40.22,40.36,26.32,3.19-3.41,12.53-10,5.3-14.35-14.61-4.66-29.64-7.84-44.13-12.91Z"/><path id="path3131" class="cls-8" d="M505.15,149.05c6.26,23.76,33.56,9.23,31.66,1.7C525,159.4,514.29,159,505.15,149.05Z"/><path id="path3131-3" class="cls-8" d="M500.9,114.85c4.63,17.58,24.83,6.83,23.42,1.25C515.61,122.51,507.66,122.23,500.9,114.85Z"/></g></svg>