<svg id="svg3919" xmlns="http://www.w3.org/2000/svg" viewBox="0 0 930.62 374.03"><defs><style>.cls-1{fill:#faa;}.cls-1,.cls-2,.cls-3,.cls-4,.cls-5,.cls-7{stroke:#000;}.cls-1,.cls-2,.cls-3,.cls-4,.cls-5{stroke-width:7.09px;}.cls-2{fill:#ccc;}.cls-3{fill:#ffb380;}.cls-4{fill:#de8787;}.cls-6{fill:#1a1a1a;}.cls-7{fill:gray;stroke-opacity:0.77;stroke-width:3.54px;}</style></defs><title>rat-24</title><g id="layer1"><path id="path3943" class="cls-1" d="M138.21,107.21c-5.69-9.15-2.28-21.47-2.31-32.25,0-5.77-.26-11.67,1.15-17.27,1.14-4.5,3.66-8.53,5.76-12.67,4.6-9,7.84-19.28,15-26.49,5.93-6,13.92-9.91,21.88-12.66a45.68,45.68,0,0,1,16.13-2.31c5.87.16,12.42.15,17.27,3.46,5.28,3.6,7.8,10.27,10.37,16.12A80.15,80.15,0,0,1,229.19,45c.54,4.19,1,8.56,0,12.67-1.78,7.52-6.59,14-10.37,20.73-5.31,9.47-9.77,19.78-17.27,27.64-8.38,8.78-17.82,20.27-30,20.73-12.89.48-26.59-8.62-33.4-19.58Z"/><path id="path3939" class="cls-2" d="M11.53,275.35c-.17-17,12.36-31.78,19.57-47.22,8.08-17.26,16.86-34.22,26.49-50.67,10-17,18.82-35.11,32.25-49.52,12.14-13,27.38-23,42.61-32.25a274.32,274.32,0,0,1,46.06-21.88c23.9-9,49.25-13.45,73.71-20.73,13.5-4,27.2-7.5,40.31-12.67,18.21-7.17,33.88-21,53-25.33,10.86-2.47,22.36-1.43,33.4,0a361.91,361.91,0,0,1,87.53,23c19.94,8,38.33,19.54,56.43,31.1s36.41,23.12,51.82,38c18.29,17.66,35.06,37.56,47.22,59.89,7.37,13.54,11.11,28.83,15,43.76,2.74,10.57,1.1,22.37,5.76,32.24,4.3,9.12,15.86,13.68,19.58,23,2.7,6.78,3.93,15.13,1.15,21.88-4.34,10.55-16,16.46-25.34,23-11.37,8-24.08,14.06-36.85,19.58-18.61,8-37.61,16.06-57.58,19.58-54.83,9.65-111.45-.38-167,3.45-19.67,1.36-39.07,5.49-58.74,6.91-28.34,2.05-60.21,15.8-85.22,2.31-8.34-4.51-8.15-17.6-15-24.19s-15.88-9.66-24.18-13.82c-11.23-5.62-23.93-8.29-34.55-15-6.45-4.06-10-12.72-17.28-15-9.6-3-20.69-.46-29.94,3.45-5,2.13-7.56,8.46-12.67,10.37-13,4.83-27.72,2.73-41.46,1.15a76,76,0,0,1-21.88-5.76c-5.85-2.57-12-5.5-16.12-10.36-4.35-5.11-8-11.73-8.06-18.43Z"/><path id="path3941" class="cls-1" d="M171.6,134.85c-1.9-11.46-3.83-23-4.6-34.55-.64-9.58-2-19.41,0-28.79,1.77-8.23,5.69-16,10.36-23a77.63,77.63,0,0,1,17.28-18.43c5.18-4,10.94-7.63,17.27-9.21,7.08-1.77,14.69-1.17,21.88,0,6,1,12.69,1.78,17.28,5.76C255,30,255.87,35.72,258,40.42c2.54,5.65,5.74,11.18,6.91,17.27a61.17,61.17,0,0,1,0,21.88c-1.75,10.05-5.78,19.68-10.37,28.79-3.73,7.42-8.87,14.06-13.82,20.73-8.28,11.18-15.32,23.95-26.48,32.25-4,3-13.82,5.76-13.82,5.76s-21.5-15.31-27.64-26.49c-.95-1.72-.83-3.83-1.16-5.76Z"/><path id="path3945" class="cls-3" d="M650.68,269.6c14.41-11.49,36.86-1.74,55.28-1.15,18.1.58,36.1,3,54.13,4.61,12.29,1.09,24.64,1.72,36.85,3.45,8.13,1.15,16,4,24.19,4.61,10,.74,20.46,2,29.94-1.16,9.71-3.2,16.68-11.84,25.34-17.27,12.38-7.77,26.19-13.27,38-21.88,4.61-3.36,12.67-11.52,12.67-11.52s-24.33,26.43-38,38c-10.08,8.54-20.68,16.65-32.25,23-8,4.41-16.3,9.06-25.33,10.36-18.72,2.71-37.54-5-56.44-5.75-43.73-1.84-91.38-.29-131.29,2.3-9.47.62-.51-21.72,6.91-27.64Z"/><path id="path3947" class="cls-4" d="M217.66,318c-8.82,1.35-4.25,19-11.51,24.19-5.34,3.82-13,2.4-19.58,2.3-7.76-.13-15.27-3.68-23-3.46-7.45.22-15.76.37-21.88,4.61-4.12,2.85-8.07,12.67-8.07,12.67s23,2.13,34.55,2.3c10.38.15,20.74-.67,31.1-1.15,6.91-.32,14.91,2.59,20.73-1.15,7.65-4.93,13.87-15.17,12.67-24.19-1-7.27-7.72-17.23-15-16.12Z"/><path id="path3949" class="cls-4" d="M600,303c-9.26,7,4.4,27.2-4.6,34.55-8.65,7.06-23-6.38-33.4-2.3-7.84,3.08-13.86,10.73-17.27,18.42-1.88,4.23-4.41,10.53-1.16,13.82,3.79,3.84,11.16.94,16.13-1.15,4.26-1.79,5.91-10.47,10.36-9.21,3.86,1.09.24,9.12,3.46,11.51,3.38,2.53,9.19,2.41,12.66,0,2.7-1.86.3-8.34,3.46-9.21,2.37-.65,3.75,3.19,5.76,4.61,3,2.09,5.59,5.87,9.21,5.76,3.3-.11,6.39-2.91,8.06-5.76,3.52-6-4.41-18.95,2.31-20.73,5-1.34,4,12.11,9.21,12.67,4.6.49,10.23-4.6,10.36-9.22.13-4.34-7-5.47-9.21-9.21-5.67-9.63-.79-24.9-9.21-32.25-4.09-3.56-11.8-5.58-16.13-2.3Z"/><path id="path3951" class="cls-5" d="M110.57,177.46c-3.84,0-6.92,3.84-9.22,6.91a18.55,18.55,0,0,0-3.45,9.21c-.45,4.65-.83,10.36,2.3,13.82,2.93,3.25,8.29,3.46,12.67,3.46s9.52-.41,12.67-3.46c3.75-3.63,6.19-10,4.6-15-2.5-7.82-11.36-14.93-19.58-15Z"/><path id="path4461" class="cls-6" d="M.84,269.56c2.67-8.09,10.9-12.31,18.39-9.42S30.63,271.91,28,280s-10.9,12.31-18.39,9.43c-7.3-2.81-11.23-11.35-8.9-19.32"/><path id="path4463" class="cls-7" d="M17.28,270.75l160.07-27.64"/><path id="path4465" class="cls-7" d="M19.44,274.8l112,6.86"/><path id="path4467" class="cls-7" d="M16.12,280l100.2,39.16"/></g></svg>