<svg id="svg2" xmlns="http://www.w3.org/2000/svg" xmlns:xlink="http://www.w3.org/1999/xlink" viewBox="0 0 90.71 87.87"><defs><style>.cls-1{fill:none;}.cls-10,.cls-2,.cls-3,.cls-4,.cls-5,.cls-6,.cls-8,.cls-9{fill:#fff;}.cls-2,.cls-3,.cls-4{stroke:#f60;}.cls-10,.cls-2,.cls-9{stroke-width:0.19px;}.cls-3{stroke-width:0.12px;}.cls-4,.cls-5,.cls-6{stroke-width:0.32px;}.cls-10,.cls-5{stroke:#ff7f2a;}.cls-6{stroke:#fc0;}.cls-7{fill:url(#pattern5761);}.cls-9{stroke:#aad400;}</style><pattern id="pattern5761" data-name="pattern5761" width="90.71" height="87.87" patternTransform="matrix(1.05, 0, 0, -1.18, 37.17, 633.34)" patternUnits="userSpaceOnUse" viewBox="0 0 90.71 87.87"><rect class="cls-1" width="90.71" height="87.87"/></pattern></defs><title>rat-14</title><g id="g8873"><path id="path4263" class="cls-2" d="M5.73,58.82c.88-.58,1.68-.68,2.25.7l-1.32,5a3.18,3.18,0,0,0,.39,2.33c.82.86,1.64,1.75,2.56,1.71a45.59,45.59,0,0,0,9.16,1.94l10.41.7L39,72.25l7.38-.54A6.32,6.32,0,0,1,49.21,73c.55,1.14,1.73,2.13.54,3.65-1.19,1.18-2.38,1-3.57,1.24L29,76.52l-13-2.64A20.46,20.46,0,0,1,7,72C5.46,71,3.86,70,3.24,67.36c-.78-2.13-.07-3.5.31-5Z"/><path id="path4231" d="M6,58a8.27,8.27,0,0,0-1.76,2.16c-.69,1.42-1.52,2.57-1.63,4.29-.2,3.39.83,6.18,3.53,8a12.74,12.74,0,0,0,5.14,1.69c1.87.3,3.76.45,5.18.69,3.26.54,6.49,1.71,9.85,2.32,3.1.57,6.2.44,9.13.79a59.54,59.54,0,0,0,10.15.62c1.6-.08,4.21-.7,4.79-1.62a3.4,3.4,0,0,0-.12-3.11,3.83,3.83,0,0,0-2.82-2.11c-1.2-.25-1.4-.65-5.12-.09S33.37,71,28,70.47c-5.66-.53-10.78-.44-16-2-1.54-.46-3.72-.61-4.41-1.57A4.44,4.44,0,0,1,7.36,64a18,18,0,0,1,.94-3.14,4.47,4.47,0,0,0,.32-2.39,1.69,1.69,0,0,0-1-1A1.74,1.74,0,0,0,6,58Zm1.35,2.69a12.63,12.63,0,0,0-1,3.19c-.12,1.24-.42,2.16.49,3.44,1.15,1.6,2.77,1.83,4.26,2.27,5.54,1.66,11.36,1.5,16.84,2,5.19.48,11.16,1.73,16.61,1.21A10.68,10.68,0,0,1,47,72.4c1.5,0,2.53,1.58,2.77,2.14s-.09,1.09-.66,1.77c-.36.44-2.53.66-3.55.68a75,75,0,0,1-9.88-.85c-3.1-.37-6.17-.24-9-.77-3.25-.6-6.5-1.54-9.87-2.1-1.54-.25-3.41-.4-5.19-.68A12,12,0,0,1,7,71.14c-2.27-1.52-3.26-3.63-3.08-6.68a11.13,11.13,0,0,1,1.21-4.13A2.84,2.84,0,0,1,6.79,59C7.34,58.83,7.66,59.72,7.36,60.68Z"/></g><g id="g8850"><path id="path4261" class="cls-2" d="M67.14,75.33a27.89,27.89,0,0,1,3.6,3.16c2.27.72,4.57,2.05,6.78,1.56,1.43.17,2.72.11,3.07-1.31a3.23,3.23,0,0,0,2.31,1.37c1.32.32,1.4-.14,2-.28.25-.63-.31-.92-.52-1.37a5,5,0,0,0,3.05-.6c.1-1-.67-1.5-1.35-2.06l-1.81-.47-1.67.28-2.67-.77a11.53,11.53,0,0,0-4.44.58l-4-3.11a4.07,4.07,0,0,0-3.16.47,3,3,0,0,0-1.18,2.55Z"/><path id="path4259" class="cls-2" d="M53.55,77.72a3.65,3.65,0,0,1,2.36-2.61c1.13-.23,2.16.52,3.22,1L59,77.12l1.18,1.81a8,8,0,0,0,4.48.66c1.19-.06,2.53.7,3.87,1.43.61.55.84,1.11.35,1.67a2.39,2.39,0,0,1-2.22-.14c-.64.27-1.25.69-2,.19a1.52,1.52,0,0,1-1.15,1.19c-.69-.2-1.55-.19-2-.72a1.57,1.57,0,0,1-2,.47c-.87-.36-1.84-.45-2.44-1.48a5.67,5.67,0,0,0-1.26-2.28A7.46,7.46,0,0,1,53.55,77.72Z"/><path id="path4255" class="cls-3" d="M42.77,43.29,41.6,41.2c.43-1.31.2-2.77,1.48-3.89L46,37l2.1,1.4-.24,2.33-.93.08-.54-.47L46,42.75c-.14.28-.53.11-1-.12-.66.52-.78.21-1.1.06A1.24,1.24,0,0,1,42.77,43.29Z"/><path id="path4253" class="cls-4" d="M60.31,14.87c.6-2.16-.34-2.9-.7-4.11L60.55,7c.9-.65,1.46-1.64,3.33-1.32,1.76,0,2.25,1,3,1.71.58,1,1.32,1.94.7,3.34l-1.94,2.79L64,15.5s-1.86,2.17-2.56,1.86a6.5,6.5,0,0,1-1.4-.93Z"/><path id="path4251" class="cls-5" d="M48.9,8.35c0-.31,1.86-4.11,1.86-4.11l1.48.39A5.41,5.41,0,0,1,53,9.05l-2.25-.62Z"/><path id="path4249" class="cls-6" d="M45.87,71.17l-1.4-2.49c.68-.41,1.35-1.5,2-3.57l-.93-6.37L46,53l3.72-8.08a8.82,8.82,0,0,0-3.26-3.41V40.42l1.09.47c.56-.38.89-1,.62-2.18A3.69,3.69,0,0,0,45.72,37l-.16-1.24,1.24-1.24-.93-1.71L47,26.75l-3.42-2.17-3.26-4.35-4.5-3.1.46-2.33v-2l1.4-1.71c1.73-1,5.84-1.06,8.85-1.55l5.13-.94L54,9.44l2.48.39,3.11-.31,1.08,4.34L60,16.19l1.25.94,2.63-1.25,2.33.16L69,20.85l3.88,4.35.93,3.73,2.8,2.48L81,41l-.31,13.51c1.27,2.9,3.07,5.41,2.79,9.47,0,3.45-1.9,5.76-4.35,7.77L76,74.74l-2-.62-2.49-2-3.72.77L67,76l-7.3.16-2.79-.78a1.68,1.68,0,0,0-2.18.62L53,77.69c-1,.25-2.1.71-2.95-1.24.28-.49.62-.91-.31-2.8-.27-.68-2.23-1.6-3.88-2.48Z"/><path id="path4249-0" class="cls-7" d="M45.79,71.29l-1.4-2.49c.67-.41,1.34-1.5,2-3.57l-.93-6.37.46-5.74L49.67,45a9,9,0,0,0-3.26-3.42V40.54l1.08.46c.56-.37.89-1,.63-2.17a3.68,3.68,0,0,0-2.49-1.71l-.15-1.24,1.24-1.24-.93-1.71,1.08-6.06L43.46,24.7,40.2,20.35l-4.51-3.11.47-2.32v-2l1.4-1.71c1.72-1,5.84-1.06,8.85-1.55l5.12-.94,2.33.86,2.49.39,3.1-.31L60.54,14l-.62,2.33,1.24.93L63.8,16l2.33.16L68.92,21l3.89,4.35.93,3.73,2.79,2.48,4.35,9.63-.31,13.51c1.28,2.9,3.07,5.41,2.8,9.47,0,3.45-1.91,5.76-4.35,7.77l-3.11,3-2-.62-2.28-1.88a12.84,12.84,0,0,0,4.7-2.47,9.11,9.11,0,0,0,2.13-7c-2-6.3-8.25-8.49-9-13.3l-2.15.17A7.77,7.77,0,0,0,62.92,47L64,44l-1.45-2.89C60,35.15,54,34.53,52,26.13c-.49,1.55-1.26.16-.76,4.87-.55,5.45,1,10.2,2.89,14.83,3.49,4.41,2.8,5.93,3.9,8.68,3.45,2.39,6,5,7,8-.27,3.61-.52,7.22-2.4,10l-3.81,3-2-.08a1.66,1.66,0,0,0-2.17.62l-1.71,1.71c-1,.25-2.11.71-3-1.24.28-.49.62-.91-.31-2.8C49.4,73.09,47.44,72.16,45.79,71.29Z"/><ellipse id="path6983" class="cls-8" cx="51.48" cy="11.79" rx="1.7" ry="2.16" transform="translate(18.8 53.28) rotate(-64.68)"/><path id="path4243" d="M51.05,9.94a1.6,1.6,0,0,0-1.43.77c-.43.8.17,1.5,1.14,2s2,.54,2.39-.26,0-1.71-1-2.24A2.2,2.2,0,0,0,51.05,9.94Zm.46.59c.69.07,1.15,1.83,1.08,2,0,0-.77-1.25-1.31-1.21-.17,0-.3.54-.55.44s-.23-.66-.09-.89A1.06,1.06,0,0,1,51.51,10.53Z"/><path id="path4169" d="M48.63,7.63a15.88,15.88,0,0,1-5.08,1.73l-4.87.81c-1,.17-3.8,1.76-3.17,4.26-.22,1-1.2,1.71.33,3.47a50.47,50.47,0,0,0,4,3.44c.72.68,1.25,2.12,2,3.06a5.48,5.48,0,0,0,3.06,1.51,7.16,7.16,0,0,1,1.17,1.57,36.86,36.86,0,0,1-.72,4.33,3.84,3.84,0,0,0,.33,2.74c-.85.85-1.17,1.8-.24,2.62s2,.83,2.06,2-.55,1.6-1.3,1.3v1.37l.83,1c1.3.64,1.49,1.46,2,2.09-1,3.76-4.46,6.87-3.88,11.28A15.43,15.43,0,0,1,45,60.52a17.8,17.8,0,0,0,.84,5.36c-1,1.05-1.69,1.9-1.71,2.93a5.68,5.68,0,0,0,1,2.57c.35.72,1.55.64,2.59,1.05a4.74,4.74,0,0,1,2.14,2.1,3.56,3.56,0,0,1-.44,2.6c.31.92,1,.72,1.68,1a2.27,2.27,0,0,0,2.65-.43c1.07-.91,1.74-2,2.38-2.07a5,5,0,0,1,2.48.7c.79.41,1.33,1,2.07.8s1.69,0,2.33-.09a12.24,12.24,0,0,0,1.48-.5c.32,0,.36-.24,1.61.28s1.08-.1,1.66-.88.32-1,.59-1.67c.26-1.52,2.47-1.82,3.06-1.68s2.19,1.75,3.5,2.61c1.77.33,2.7-.94,4.46-2.7A6.12,6.12,0,0,0,83,69.71a16.15,16.15,0,0,0,1.45-8.94,20,20,0,0,0-3-7c.78-2.13.64-4.11.84-5.79A21.1,21.1,0,0,0,82,42.21a18,18,0,0,0-4.18-9.62,5.78,5.78,0,0,0-1.38-2.7c-.54-.52-1.46-1-1.81-1.32-1.1-2.41-.74-4.71-4.34-7.19-.47-1-1.59-2-2.1-3.19a4.05,4.05,0,0,0-3-2.74c-1.67-.26-4.08,2.41-4.52.84a30.25,30.25,0,0,1-.54-6.74C59,8.21,57.87,8.66,57,9.36A4.11,4.11,0,0,0,54.18,9a16.52,16.52,0,0,0-1.63-.76,8.6,8.6,0,0,0-1.84,0c-.77,0-1.08-1.07-2.08-.61Zm3.06,1.56a5.77,5.77,0,0,0,1.89.74,17.69,17.69,0,0,0,3,.78c1.36.09,2.14-.72,2.86-.61A13.45,13.45,0,0,1,60,15c-.2,1.94.28,2.46.89,2.69s1.29-.44,1.8-.65c.84-.34,1.45-.84,2.08-.76a2.85,2.85,0,0,1,2.42,2.05c.45,1,.33,2.69,2.53,4.61s2.47,4.28,3.45,6.05a7.87,7.87,0,0,0,2,2.54,20,20,0,0,1,2.12,2.84c1.52,2.17,2.1,5.73,2.7,9.53A14.2,14.2,0,0,1,80,48c-.19,1.82,0,3.72-.63,5.94.42,2.53,1.76,4.43,2.17,6.67.52,2.85.52,5.56-.61,7.81s0,0,0,0,.54-1.18,0,0c-.72,1.56-1.37,1.82-2.74,2.82-.94,1.66-2,3.36-4.57,2.34-.15-.16-.69-1.07-.85-1.22C74,71.93,75.27,72,76,71.29a38.31,38.31,0,0,0,2.39-3.19,5.48,5.48,0,0,0,1-3.53c0-1.28-.24-2.59-1-2.45s-.56,1.36-.55,2.46a4.32,4.32,0,0,1-.6,2.55c-.89,1.11-1.49,2.23-2.31,3.09a4.29,4.29,0,0,1-3.34,1.49A4.42,4.42,0,0,0,68,72.89c-.81.88-1.12,1.59-2,1.81a11.47,11.47,0,0,1-2.25.1c-.62.06-.76.2-1.55.31s-1.45.43-1.55,0,1.05-.73,2.31-2.34a13.56,13.56,0,0,0,2.62-6.13v0h0c.42-2.8.33-5.87-1.64-8.06-2.42-2.68-8.68-6.92-9.05-6.2s5.47,4.56,7.89,7.24c1.5,1.67,1.65,4.19,1.26,6.78a23.87,23.87,0,0,1-2,5.79C61,73,60.16,73.88,60,73.8c-1.07-1.16-.24-4.42-3.73-4.94A20.48,20.48,0,0,1,59,75c-.42.42-2.45-.33-3.25-.19a4.84,4.84,0,0,0-2.87,2,1.51,1.51,0,0,1-1.25-.08,12.36,12.36,0,0,1-1.13-.66A3.56,3.56,0,0,0,50.34,74,4.22,4.22,0,0,0,48,71.86c-1.14-.45-1.35-.73-1.55-1.15s-.28-.94-.47-1.54a21.65,21.65,0,0,0,1-3.58c.28-1.84-.28-2.88-.1-4.26s1.1-3.1.57-5.84,1.42-5.92,2.49-9.53c1.27,1.65,3.42,2.91,3.77,2.2a22.63,22.63,0,0,1-3.24-3.09c-1-1.4-1.48-3.19-3.4-3.67.29-.27,1.57,0,1.5-1.86a2.89,2.89,0,0,0-2.51-2.88c.1-.45,1-.61,1.17-1.72s-.64-2-.42-2.62c.07-2.29-.05-4.13.77-4.51,1.2.23,2.61,2.08,3.76,3.66a5.64,5.64,0,0,0-3.05-5.11c-1.49-.65-1.78-1.1-2.8-1.56a5.33,5.33,0,0,1-2.23-1.63c-.34-.4-.82-1.09-1.17-1.56a4.81,4.81,0,0,0,3.23.15,4.86,4.86,0,0,0,2.89,2.07c2.17.48,3.27.42,4.14-.45L49.55,23c-1.45-.17-2.65-2.07-4-2.67a8.53,8.53,0,0,1-3.13-.07,9,9,0,0,1-3-1.65c-.79-.61-1.65-.67-2.16-1.21-.56-.73-.19-1.83-.18-3.07A2.42,2.42,0,0,1,39.26,11l4.61-.43a30.59,30.59,0,0,0,5.52-1.07c1.6-.52,2-.42,2.3-.28Z"/><path id="path4173" d="M62.17,40.25c-.38,0,.2,1.11.57,1.87A2.32,2.32,0,0,1,63,44.3a5.73,5.73,0,0,0-.68,2.05c0,.78.39,1,.4,1.75l.65-.39c.86-.52,2,.62,2.4,1s.72,1.18,1.42,1.76.9.42,1.47.14a4.67,4.67,0,0,0,1.79-1,4.22,4.22,0,0,0,1.77-.47c.59-.3.49-.81,1.11-1.82s.7-.67.87-1.6c-.44-.24-1.21,0-1.79,1s-1.12.76-1.44.92-.65.25-1.52.7-1.26.75-1.74.53-.86-.87-1.5-1.38-1.93-.27-2.39-.59a4.94,4.94,0,0,1,.67-2.2c.51-1.16-.27-2.13-.7-3S62.48,40.12,62.17,40.25Z"/><path id="path4265" class="cls-9" d="M35.89,15.34c.18-1.17-.36-2.11.94-3.65.19-.14.29-.3,1.28-.35a5.86,5.86,0,0,1,2.44,1.32l-.15,1-1.17.58,2.22.78L41,16a2.74,2.74,0,0,1-1.59.23c-1-.51-1.06-1.1-1.44-1.71l-1.16,1.13C36.34,15.81,36,15.8,35.89,15.34Z"/><path id="path4198" d="M38.36,11.12a2.8,2.8,0,0,0-1.31-.07A3.25,3.25,0,0,0,36,12.13a2.56,2.56,0,0,0-.4,2.28c-.11.19-.17.18-.26.4a1.46,1.46,0,0,0-.11.84c.06.31.5.45.84.56s1.09-.36,1.41-.55A1.39,1.39,0,0,0,38,15c0,.36.25.68.28.83.24.93,3.73,1.16,3.73-.52,0-1-1.53-1.09-2.07-1.13A1.68,1.68,0,0,0,41,13.62a1.29,1.29,0,0,0-.1-1.08,3,3,0,0,0-1.26-1A3.68,3.68,0,0,0,38.36,11.12Zm.6,1.1a1.63,1.63,0,0,1,1.12.48c.05.08.28.41,0,.59-.49.3-1.3.3-1.3.9.16.28.21.67.75.54,1.43.06,1.23,1.07.53,1.17a1.79,1.79,0,0,1-1.45-.8c-.56-.59-.09-1.23-.41-1.3-.61-.12-.2.79-.87.91-.32,0-.25,0-.3-.2s-.05-.25,0-.42-.11-.26-.07-.76a2.18,2.18,0,0,1,.15-.86c.09-.2.26-.65.53-.7.61-.11.59.37,1.31.45Z"/><path id="path4202" d="M51.42,9.32a3.23,3.23,0,0,0-2.1,1c-.43.53-.54.7-.85.82-.16.18-.5.21-.45.48s.39.25.61.38.28.37.54.42.34.25.82.67a3.35,3.35,0,0,0,1.85.88,2.2,2.2,0,0,0,1-.12,1.57,1.57,0,0,0,.88-1.08,2.55,2.55,0,0,0-.4-2.22A2.39,2.39,0,0,0,51.42,9.32ZM52.58,11a2.5,2.5,0,0,1,.27,1.54c-.08.32-.17.56-.32.61a2,2,0,0,1-1,0,3,3,0,0,1-1.85-1.08c-.46-.56-.35-.77.09-1.19a2.25,2.25,0,0,1,.66-.41,2.37,2.37,0,0,1,1.11-.21A1.25,1.25,0,0,1,52.58,11Z"/><path id="path4206" d="M62.14,4.93a5.47,5.47,0,0,0-1.69,1.66A7,7,0,0,0,59.4,8.74a4.35,4.35,0,0,0-.11,2.5,7.89,7.89,0,0,1,.78,2.27c0,.48-.46,1.08-.43,2.06a2.21,2.21,0,0,0,1.13,2.06,1.38,1.38,0,0,0,1.5-.05,7.36,7.36,0,0,0,1.31-.67A18.58,18.58,0,0,0,65,15.72c.48,0,1.3-1.12,1.65-2.31a9.88,9.88,0,0,0,1.53-1.71,3.86,3.86,0,0,0,.42-2.06,5.94,5.94,0,0,0-1.26-3,4.26,4.26,0,0,0-2.17-1.81A3.92,3.92,0,0,0,62.14,4.93Zm4,3A4,4,0,0,1,66.83,10a3.69,3.69,0,0,1-.48,1.28,12.89,12.89,0,0,0-1,1.68c-.3.72-.73,1.28-1.24,1.38l-1.59,1.56-1.15.21a.56.56,0,0,1-.68-.59c2.46-.52,3.85-2.9,2.36-3.93s-1.64.46-2.37,1.15a5.34,5.34,0,0,0-.41-1.87A5.34,5.34,0,0,1,60.56,9a6.42,6.42,0,0,1,1-1.71c.23-.31.75-.4,1.25-.6a2.32,2.32,0,0,1,1.67-.06A3.34,3.34,0,0,1,66.12,7.91Z"/><path id="path4210" d="M44.94,36.45a4.42,4.42,0,0,0-1.71.34,4.33,4.33,0,0,0-1.78,3,5.23,5.23,0,0,0,0,2,5.9,5.9,0,0,0,.63,1.36,2.22,2.22,0,0,0,.75.7.78.78,0,0,0,.71-.32c.1-.18.28-.25.29-.55.1,0-.05.7.72.69.42,0,.39-.2.6-.75.23.44.67.58.95.35a1.18,1.18,0,0,0,.32-.95l-.08-1.87c.24.91,1.12,1.26,1.58.89.38-.13.79-1.17.83-1.6a3.07,3.07,0,0,0-.27-1.63,3.4,3.4,0,0,0-2-1.34A6.47,6.47,0,0,0,44.94,36.45Zm2.51,2.42a3.26,3.26,0,0,1,0,.89c0,.17-.12.63-.36.67s-.39-.63-.43-.92-.22-.82-.62-.07a10.35,10.35,0,0,1-.23,2.42c-.09.39-.23.89-.54.68-.14-.44-.52-3.1-.7-3,.12,1.13.6,3.11-.11,3.1-.44,0-.31-.44-.32-.8s-.6-2.41-.8-2.31l.41,2.69a.46.46,0,0,1-.88.27c0-.11-.25-.66-.36-1.12A3.11,3.11,0,0,1,42.65,40c.15-.86.47-2,1.09-2.31a6.53,6.53,0,0,1,1.27,0,3.32,3.32,0,0,1,1.13.11A2.28,2.28,0,0,1,47.45,38.87Z"/><path id="path4257" class="cls-10" d="M63.19,47.44l-2.31,3a5.65,5.65,0,0,0-1.48,2,3.81,3.81,0,0,0-1.26,2.27l-1.07,1.82c0,.29-.13.61.27.76l1.21-.52c-.07,1,0,1.68,1,.72.29.43.29,1.53,1.18.55l1.13-1.73c.09.31,0,.72.55.76A3.74,3.74,0,0,0,64,55.84a7,7,0,0,0,.83-4.2L67,49.72c-.14-1.34-1-1.53-1.56-2.06C64.67,47.38,64,47,63.19,47.44Z"/><path id="path4214" d="M62.63,47.2,61,49.68A9.16,9.16,0,0,0,59,52a2.24,2.24,0,0,0-.9,2.08c-.53.78-1.38,1.28-1.39,2.53a1.83,1.83,0,0,0-.07.5.69.69,0,0,0,.31.58c.23.14.44.09.76,0a2.87,2.87,0,0,0,.51-.3,1.3,1.3,0,0,0,0,.73.63.63,0,0,0,.49.41.68.68,0,0,0,.52-.16,3.38,3.38,0,0,0,.26-.27,1.47,1.47,0,0,0,.18.49.7.7,0,0,0,.39.31.74.74,0,0,0,.57-.09,1.77,1.77,0,0,0,.55-.65l.71-1a.68.68,0,0,0,.64.53c.46.07.58,0,.68-.1s.33-.4.9-1.07a8.35,8.35,0,0,0,1-2.76A3.3,3.3,0,0,0,65.28,52a9.23,9.23,0,0,0,2.19-1.76c.36-.62-.15-1.37-.4-1.72a4.4,4.4,0,0,0-1-1.13A5.61,5.61,0,0,0,64.36,47c-.57-.12-1.45-.21-1.73.21Zm2.66,1.09a1.5,1.5,0,0,1,.8,1.43,3,3,0,0,1-1.48,1.64l-.32.2.14.36A1.59,1.59,0,0,1,64.35,53v0c-.34,1.19-.15,2.05-.63,2.6a8.58,8.58,0,0,1-1,1c-.24.08-.72,0-.38-.72.14-.8,1.36-2.54,1-2.69-1.24,1.16-2.18,4.83-3,4.41-.34-.09-.06-.47-.12-.69.43-1.11,2.09-3.38,1.28-3.32a34.41,34.41,0,0,1-2.32,3.78c-.65.18.28-1.7.33-1.9l1-2A2.9,2.9,0,0,0,59,55.37c-.29.09-.54.93-.76,1.09-.67.69-.7,0-.42-.29l1-1.65A3.26,3.26,0,0,1,60,52.47a5.8,5.8,0,0,1,1.34-1.82l1.54-2.51a1.25,1.25,0,0,1,1.24-.36,3.55,3.55,0,0,1,1.18.51Z"/><path id="path4218" d="M51.18,3.48c-.63,0-1.48.82-2,1.5s-.54,1.89-.91,2.57a5.73,5.73,0,0,0-.52,2.22l1-.22,1.06-.26a5.76,5.76,0,0,1,1.34-.36c.34,0,.55.11,1.24.52l.82.33.36-.63a12.26,12.26,0,0,0,0-1.8,7.67,7.67,0,0,0-.91-2.81A2,2,0,0,0,51.18,3.48Zm1,4.31c-.14.63-.71.39-1,.4s-1-.21-1-.63a3.29,3.29,0,0,1,.4-1.7c.37-.5,1-.94,1.13-.76A6.26,6.26,0,0,1,52.23,7.79Z"/><path id="path4235" d="M54.88,75.12a3.48,3.48,0,0,0-1.55,1.23c-.44.53-.62.6-.62.6a4,4,0,0,0,2.92,3.2c.15.07.08.94.37,1.44a5.41,5.41,0,0,0,1.13,1.58c.39.34.88.31,1.25.45a3,3,0,0,1,.78.52,2.74,2.74,0,0,0,.86.24,1.57,1.57,0,0,0,1-.19,1.74,1.74,0,0,0,.39-.3l1,.27a2.66,2.66,0,0,0,1.06.16A1.71,1.71,0,0,0,64.43,84c.2-.21.16-.51.3-.78a1.26,1.26,0,0,0,1.26.24,1.35,1.35,0,0,0,.42-.54,1.83,1.83,0,0,0,1.54.52,1.79,1.79,0,0,0,1.24-.54,1.18,1.18,0,0,0,.25-.79,1.75,1.75,0,0,0-.17-.73A2.61,2.61,0,0,0,68,80.26a12.89,12.89,0,0,0-2.85-1.07C64,79,63,79.19,62.3,79a8.73,8.73,0,0,1-1.75-.69c-1.35-.81-1.34-2-1.75-3.2A5,5,0,0,1,57.29,75a5.08,5.08,0,0,0-1-.16,3.18,3.18,0,0,0-1.4.31Zm.82.71A1.27,1.27,0,0,1,57,75.75c.43.14,1.59.58,1.58.74-.07,1.22.75,1.82,1.3,2.61a8.79,8.79,0,0,0,2.11.84,27.63,27.63,0,0,0,2.76.13,7.48,7.48,0,0,1,1.55.43c.72.39,2.22.65,2,1.36s-1,.54-1.38.38c.26-.48-2-1.28-2.32-1.36.58.48,1.44.47,1.69,1.51-1.29.85-1.54-.54-2.73-1,1,1.27.62,1.63.43,1.88s-1.36-.12-1.55-.19c-.61-.63-1.22-1.22-1.87-1.24.07,0,.63,1.11-.06,1.23a1.1,1.1,0,0,1-.84.13,3.86,3.86,0,0,0-.86-.68,4.3,4.3,0,0,1-.87-.6,4.16,4.16,0,0,1-1.12-1.08c-.32-.54-.42-1.13-1.16-1.47a2.05,2.05,0,0,1-1.07-2,2.23,2.23,0,0,1,.31-.69,2.41,2.41,0,0,1,.8-.84Z"/><path id="path4239" d="M70.26,71.59a6.05,6.05,0,0,0-2,.57,2.74,2.74,0,0,0-1.48,1.62c-.16.63,0,1.06.66,2.2.89.6,2.08,2.81,4.24,3.29s4,1.74,6.13,1.19a2.36,2.36,0,0,0,2,.05c.44-.18.76-.82,1-1a3.44,3.44,0,0,0,2.43,1.19,4,4,0,0,0,1.78,0h0a1.36,1.36,0,0,0,.74-.36c.2-.2.32-.83-.44-1.32.4-.15,2.45,0,2.75-.77s-.31-1.16-.46-1.59a1.89,1.89,0,0,0-.73-.93,9.53,9.53,0,0,1-1.34-.84c-.37-.36-1-.17-1.59-.08a8.4,8.4,0,0,0-1.46.36c-1.29-.66-2.62-1.23-3.51-.81a4.62,4.62,0,0,1-4.06-.39c-1.71-.84-1.7-.88-2.28-1.73a5.88,5.88,0,0,0-2.34-.58Zm1,1a27,27,0,0,1,4.07,3.3c1-.25,2.78.59,4.15.22s1.35-.88,2.65-.3a2.15,2.15,0,0,0,1.83.1,3.52,3.52,0,0,1,2,.66c.43.44.79.45.65.91s-1.47.2-2,.4a3.77,3.77,0,0,0-2.24-.56c.73.31,1.8,1,1.92,1.77a1.68,1.68,0,0,1-1-.07,4,4,0,0,1-2.29-.72,17,17,0,0,1-4.63-1.2c.21.81,3,1.65,3,1.82s.44,1.13-1.68.54a24.39,24.39,0,0,1-6.1-1.4c-1.92-.79-2.16-1.63-3.36-2.65.19-1,.26-2.11,1.47-2.57S71,72.5,71.23,72.6Z"/></g></svg>