<svg id="svg2438" xmlns="http://www.w3.org/2000/svg" viewBox="0 0 176.57 339.88"><defs><style>.cls-1{fill:#e3dedb;}.cls-2{fill:#d40000;}.cls-3,.cls-7{fill:none;}.cls-3{stroke:#ac9393;stroke-width:0.6px;}.cls-4{fill:#ac9393;}.cls-5{fill:#fac;}.cls-6{fill:#c8beb7;}.cls-7{stroke:#000;}.cls-8{fill:#c8b7be;}</style></defs><title>rat-21</title><g id="capa1"><g id="g4012"><g id="g3887"><path id="rect3769" class="cls-1" d="M61.51,57.71H78.67C97.07,57.71,112,71.2,112,87.85V209.54c0,16.64-14.92,30.14-33.32,30.14H61.51c-18.4,0-33.32-13.5-33.32-30.14V87.85C28.19,71.2,43.11,57.71,61.51,57.71Z" transform="translate(-0.23 0)"/><path id="rect3771" class="cls-1" d="M70.09,8.21h0c11.81,0,21.39,4.42,21.39,9.88V70.37c0,5.46-9.58,9.88-21.39,9.88h0c-11.81,0-21.39-4.42-21.39-9.88V18.09C48.7,12.63,58.28,8.21,70.09,8.21Z" transform="translate(-0.23 0)"/><path id="rect3773" class="cls-1" d="M94.74,3.65h0c3.75,3.26,5.66,7.21,4.26,8.83l-6.72,7.75c-1.4,1.62-5.58.29-9.34-3h0c-3.76-3.26-5.67-7.21-4.27-8.83L85.39.69C86.79-.93,91,.4,94.74,3.65Z" transform="translate(-0.23 0)"/><path id="rect3775" class="cls-1" d="M45.55,3.8h0C41.8,7.06,39.89,11,41.29,12.63L48,20.38c1.4,1.62,5.58.29,9.34-3h0c3.76-3.26,5.67-7.21,4.27-8.83L54.9.84C53.5-.78,49.31.55,45.55,3.8Z" transform="translate(-0.23 0)"/><g id="g3795"><path id="path3797" class="cls-2" d="M64.53,22.48a3.88,3.88,0,1,1-7.75.05v-.05a3.88,3.88,0,1,1,7.75,0Z" transform="translate(-0.23 0)"/><path id="path3799" class="cls-2" d="M81.18,22.48a3.88,3.88,0,1,1-7.75.05v-.05a3.88,3.88,0,1,1,7.75,0Z" transform="translate(-0.23 0)"/></g><g id="g3801"><path id="path3803" class="cls-3" d="M64.18,34,.3,18.49" transform="translate(-0.23 0)"/><path id="path3805" class="cls-3" d="M64.18,36.74.3,34" transform="translate(-0.23 0)"/><path id="path3807" class="cls-3" d="M64.18,39.94.3,55.45" transform="translate(-0.23 0)"/></g><g id="g3809"><path id="path3811" class="cls-3" d="M74.67,34l63.88-15.52" transform="translate(-0.23 0)"/><path id="path3813" class="cls-3" d="M74.67,36.74,138.55,34" transform="translate(-0.23 0)"/><path id="path3815" class="cls-3" d="M74.67,39.94l63.88,15.51" transform="translate(-0.23 0)"/></g><path id="path3817" class="cls-4" d="M65.81,35.05c-.36-2.37,7.34-2.57,7.56-.4-.5,3.46-1.14,5.72-3.72,5.66S67,38.77,65.81,35.05Z" transform="translate(-0.23 0)"/><path id="path3819" class="cls-2" d="M74.56,50.44A6.77,6.77,0,0,1,61,50.77v-.33" transform="translate(-0.23 0)"/><path id="rect3860" class="cls-5" d="M46.88,5.16h0c-2.85,2.47-4.3,5.46-3.24,6.69l5.09,5.87c1.06,1.22,4.23.21,7.08-2.25h0C58.65,13,60.1,10,59,8.78L54,2.91C52.89,1.69,49.72,2.69,46.88,5.16Z" transform="translate(-0.23 0)"/><path id="rect3862" class="cls-5" d="M93.27,5.38h0c2.85,2.46,4.3,5.46,3.23,6.68l-5.08,5.87c-1.06,1.23-4.23.22-7.08-2.24h0C81.5,13.22,80.05,10.23,81.11,9L86.2,3.13C87.26,1.91,90.43,2.91,93.27,5.38Z" transform="translate(-0.23 0)"/><path id="rect3866" class="cls-6" d="M43.07,175.8c-6.65,0-12.3,3.07-14.53,7.38v25.75c0,13.67,10,25.16,23.72,28.87,3.87-2.08,6.38-5.43,6.38-9.25V187.27C58.64,180.93,51.69,175.8,43.07,175.8Z" transform="translate(-0.23 0)"/><path id="path3871" class="cls-6" d="M97.27,176.45c6.65,0,12.3,3.07,14.53,7.38v25.75c0,13.67-10,25.16-23.72,28.87-3.87-2.08-6.38-5.44-6.38-9.25V187.92C81.7,181.57,88.65,176.45,97.27,176.45Z" transform="translate(-0.23 0)"/><path id="path3873" class="cls-5" d="M28.35,111.34l-.06,15.42L61,133.69Z" transform="translate(-0.23 0)"/><path id="path3875" class="cls-7" d="M52.43,8.52" transform="translate(-0.23 0)"/><path id="path3881" class="cls-5" d="M111.91,111.34l.06,15.42-32.74,6.93Z" transform="translate(-0.23 0)"/><path id="path3883" class="cls-5" d="M44.51,244.34l-3.28-8-4.29-9.6,7.13.42,8.72.11-3.85,7.59Z" transform="translate(-0.23 0)"/><path id="path3885" class="cls-5" d="M93.93,244.34l-3.28-8-4.29-9.6,7.13.42,8.72.11-3.85,7.59Z" transform="translate(-0.23 0)"/></g><path id="path3931" class="cls-8" d="M100.32,204.23c5.33-2.23,75.6-11.14,76.48,41,.81,47.4-149.5,45.26-133,70.95,11.25,16.25,27.86,8.9,43.81,23.75-12.63-10.34-49.27-7.79-57-28.5,0-30.09,134.55-29.72,135.6-66.2C164,202.49,111.06,215.47,97.15,210Z" transform="translate(-0.23 0)"/></g></g></svg>