<svg id="svg2438" xmlns="http://www.w3.org/2000/svg" viewBox="0 0 188.16 343.41"><defs><style>.cls-1{fill:#c8b7be;}.cls-2{fill:#e3dedb;}.cls-3{fill:#fac;}.cls-4{fill:#d40000;}.cls-5{fill:none;stroke:#ac9393;stroke-width:0.6px;}.cls-6{fill:#ac9393;}</style></defs><title>rat-19</title><g id="capa1"><g id="g3631"><path id="path3633" class="cls-1" d="M111.67,207.75c5.34-2.23,75.61-11.14,76.49,40.95.81,47.4-149.51,45.26-133,70.95C66.45,335.9,83.05,328.55,99,343.4c-12.63-10.34-49.27-7.79-57-28.5,0-30.09,134.56-29.72,135.6-66.2C175.34,206,122.41,219,108.51,213.55Z"/><path id="path3635" class="cls-2" d="M16.39,231.83C19.67,256,97,258.7,111.61,235.28c13-25.6,12.79-110.31-14.86-162.66-4.5-4.45-2.37-5.75-1.93-10.31C95.52,42,89.05,8.31,68.18,8c-19.65.58-28.71,16.06-24.47,57,2.09,5.43,0,6.8-2,9.54-30,57.73-30.39,133.09-25.37,157.31Z"/><g id="g3637"><path id="path3639" class="cls-2" d="M52.27,22.75c-6.83-6.21-19.39-11.54-11-18.63C50-4.48,55.32,7.52,60.55,16.54Z"/><path id="path3641" class="cls-3" d="M44.06,6.14c6-5.43,7.25,3.41,11.6,6.09C52.42,14.1,51.36,16.6,50.1,19,48.82,13.53,35.45,12.51,44.06,6.14Z"/></g><g id="g3643"><path id="path3645" class="cls-2" d="M81.12,21.59C88,15.38,102.38,9.17,92.16,3,83.4-5.64,78.07,6.35,72.84,15.38Z"/><path id="path3647" class="cls-3" d="M89.23,4.85c-6-5.43-7.26,3.41-11.61,6.09,3.25,1.88,4.3,4.37,5.57,6.81,1.28-5.51,14.64-6.53,6-12.9Z"/></g><g id="g3649"><path id="path3651" class="cls-4" d="M64.53,30.62a3.88,3.88,0,0,1-7.76.05v-.05a3.88,3.88,0,0,1,7.76,0Z"/><path id="path3653" class="cls-4" d="M81.18,30.62a3.88,3.88,0,0,1-7.76.05v-.05a3.88,3.88,0,1,1,7.76,0Z"/></g><g id="g3655"><path id="path3657" class="cls-5" d="M64.18,42.15.3,26.63"/><path id="path3659" class="cls-5" d="M64.18,44.88.3,42.15"/><path id="path3661" class="cls-5" d="M64.18,48.08.3,63.59"/></g><g id="g3663"><path id="path3665" class="cls-5" d="M74.67,42.15l63.88-15.52"/><path id="path3667" class="cls-5" d="M74.67,44.88l63.88-2.73"/><path id="path3669" class="cls-5" d="M74.67,48.08l63.88,15.51"/></g><path id="path3671" class="cls-6" d="M65.81,43.19c-.36-2.37,7.34-2.58,7.56-.41-.5,3.46-1.15,5.73-3.72,5.67S67,46.91,65.81,43.19Z"/><path id="path3673" class="cls-4" d="M74.56,58.58A6.77,6.77,0,0,1,61,58.91v-.33"/><g id="g3675"><path id="path3677" class="cls-3" d="M24.46,242.29l3,13.55,4.08-13.6-7.1,0Z"/><path id="path3679" class="cls-3" d="M31.42,242.29l3,13.55,4.08-13.6-7.1,0Z"/><path id="path3681" class="cls-3" d="M38.87,242.29l3,13.55L46,242.24l-7.1,0Z"/></g><g id="g3683"><path id="path3685" class="cls-3" d="M81.48,242.29l3,13.55,4.08-13.6-7.1,0Z"/><path id="path3687" class="cls-3" d="M88.44,242.29l3,13.55,4.08-13.6-7.1,0Z"/><path id="path3689" class="cls-3" d="M95.89,242.29l3,13.55,4.08-13.6-7.1,0Z"/></g><path id="path3691" class="cls-3" d="M23.09,124.71l21,4.19c2.88.51-.77,7.16,3.22,12.08.56-4.27-.77-7.38,2.66-7.92,2.68-.19,3.55,5.36,4.56,8.77,2.22-3-.05-9.81,2.37-10.47,3.14-.63,4.92,3.61,6.81,7.47.67-3.07,4.6-10.37-18.79-16.37l-19.7-5.3-2.12,7.55Z"/><path id="path3693" class="cls-3" d="M114.73,124.71l-21,4.19c-2.87.51.77,7.16-3.21,12.08-.56-4.27.77-7.38-2.67-7.92-2.68-.19-3.54,5.36-4.56,8.77-2.21-3,0-9.81-2.36-10.47-3.14-.63-4.93,3.61-6.82,7.47-.66-3.07-4.6-10.37,18.79-16.37l19.7-5.3,2.12,7.55Z"/></g></g></svg>