<svg id="Layer_1" data-name="Layer 1" xmlns="http://www.w3.org/2000/svg" viewBox="0 0 2036.32 627"><defs><style>.cls-1,.cls-2{stroke:#000;}.cls-1{stroke-width:0.09px;}.cls-2{stroke-width:0.19px;}</style></defs><title>dialogue box 3</title><g id="_000000ff" data-name="#000000ff"><path class="cls-1" d="M195.11,20.06a4.83,4.83,0,0,1,7.4,0c.7,1.6.1,3.4.1,5.1,5.8,3.3,12.5,1.3,18.4-.7s12.6-1.9,18.1,1.4c3.6,2,5.5,5.7,7.6,9,.4-.7,1.2-2.1,1.5-2.8.3-1.9-1.8-3.2-2.6-4.7a88.89,88.89,0,0,1,26.3-7.4c6.9-1,14.3,2.7,16.8,9.3,2.7,5.5-2.6,12.2-8.3,12-3.3-.3-4.5-5.4-1.7-7.2,2.3-.7,4.8.8,7,0,1-1.5.1-3.5-.9-4.8-4.6-4.4-11.7-4.9-17.5-2.9a57,57,0,0,0-18.4,11.5c-6,5.1-10.1,12.6-17.8,15.4-6.4,2.2-13.6,3.6-20.2,1.3-4-1.4-8.2,2.6-12-.2-2.7-2.6-.2-8.2-4.1-9.9-4-.6-4.3,4.8-2.8,7.3,3.2,6.2,2.4,14.8-3.4,19.2-3.7,2.8-8.1,5.3-12.8,4.9-5.1-.5-10.2-5.3-9-10.8,0-4.1,5.3-5,6-8.8,0-3.2-2.2-5.9-4.6-7.8a27.83,27.83,0,0,0-17.1-5.6c4.4,7,9.9,14.5,8.8,23.3-1,6.5-2.4,13.3-6.6,18.5A56.12,56.12,0,0,1,139,97.86a11,11,0,0,0-4.9,6.5c3.4,1.8,6.3-.7,9.6-1.5,4-.4,6.3,3.1,8.1,6-2.2-1.1-4.5-2.4-7.1-2.3-5.1-.1-9.3,3.2-14.3,3.8-2.9.1-5.1-2.2-7.7-2.9-4.4.1-9,3.9-7.7,8.6.3,3.6,3.6,5.1,6.7,5.8a8.1,8.1,0,0,1-7.4-1c1.1,2,2.2,4.3,1.2,6.6-1.2-2.5-2.8-5.4-5.8-5.9-5.5-2-11.2,5.9-7.5,10.4,3.5,4.8-.3,10.3-1.7,15.1-1.4,3.7.2,7.5,1.1,11.1-1.9-1.7-4.6-3-5-5.7-1.1-4.1,3.2-7.6,1.3-11.7a9.52,9.52,0,0,0-6.1,4.2c-4.8,7-10.6,13.6-18.1,17.7-6.6,2.5-13.9,4.7-21,3.2-6.1-1.2-11.1-5.1-16.4-8.2a27.4,27.4,0,0,0,6.7,18.1c1.9,2,4.7,4.1,7.6,3.2,2.5-1,3.6-3.8,5.7-5.4,2.8-.8,6.3-.8,8.7,1.2a11.17,11.17,0,0,1,3.5,13c-2.1,5.8-6.5,12.1-13.3,12.3-4.4.8-8.3-1.5-12.5-2.5-2.5-.6-6.1,1.8-4.2,4.4,2.3,3,7.2.7,9.5,3.7,1.4,2.2.6,4.8.1,7.1-1.2,4.1,1.7,8,1.1,12.1-.6,7.1-2,14.9-7.4,20.1-5.8,5.8-12.4,11.1-16.8,18.2-3.4,5.6-6.9,11.9-6.2,18.8.3,4,2,8.6,5.9,10.3A2.13,2.13,0,0,0,28,290c.1-2-1.2-4.4.5-6,2.3-1.4,6.1,0,6.2,3-.1,5-4.9,9.7-10,8.6-7.1-1.3-11.9-8.6-11.4-15.6.7-9.6,4-18.9,7.2-27.9,2.3,2,5.3,3.5,8,1.1-3.2-1.9-6.8-3.6-8.7-7-3.5-5.4-3.8-12.3-1.9-18.3s4.4-12.9,1-18.7c-1.7,0-3.6.5-5.2-.1-2.2-1.7-2.4-5.6-.1-7.3,4.1-1.2,8.6,1.7,9.6,5.7a24.9,24.9,0,0,1,.9,9c-.7,3.7-3.2,7.5-1.3,11.3,2.6,3.9,5.6,7.6,6.7,12.2.3,2.3-.8,4.5-.8,6.8,3.4,1.3,6.7-1.1,9.3-3,4.8-3.6,5.6-10.2,4.7-15.8-2-12.6-9.3-23.5-15.2-34.5-6.6-13.3-13.3-27.3-13.2-42.5.7-10.5,2.6-21.3,8.2-30.3.1,2.7-.2,6.1,2.6,7.7,3.1,2.2,6.6,0,9.2-1.8,4.9-3.2,10.7-4.5,16.4-5.3,5-.8,10.5.9,13.6,5,1.3,1.9-.4,3.9-.8,5.8-.3-4-4-6.7-7.8-6.8-8.7-.3-18,2.2-24,8.7-4.6,5.1-9.3,10.9-10.3,18-1.2,8.7-1,17.9,2.4,26.2.6,1.6,2.4,1.5,3.8,1.8,6.6.7,12.4,4.5,17.1,9,2.8,2.4,6.3,4.7,10.1,5,4.7-.6,9.4-4.2,10.3-9,1-5.5-4.2-10.5-9.5-10.6-.4,2.5.7,5.7-1.6,7.5-2.6,2-6.3,1.1-9-.2a22.59,22.59,0,0,1-12.2-15.5c-1.5-6.3-.5-12.9.8-19.2,1.7,2.9,2.9,6.1,5.4,8.4s5.8,3.6,8.9,5a11.2,11.2,0,0,1,6.6-4.7c-.2.9-.5,2.6-.7,3.4,3.7,3.6,9.5,4,14.2,2.3,6.6-2.8,10.8-9.3,12.4-16,1.6-4.8,1.8-10.7,6-14.1,3.5-2.5,8.1-2.2,11.9-3.9,3.7-2.1,3.6-7.2,1.6-10.4-5.2-4.1-14.6-3.7-17.3,3.1-2,6.2-.6,13.8-5.9,18.6-4.2,3.6-9.2,8-15.1,7.1-4.5-1.3-5.4-7.4-2.2-10.5,1.8-.4,3.9-1.3,5.7-.1s.9,3.8,2.8,4.8c3.9-.5,5.9-4.7,6.7-8.1,1.3-7.1.1-15,3.9-21.5,3.2-4.3,9.1-3.2,13.5-1.7,2.7-2.3,0-6.6-3.1-6.9-1.2.9-2.3,3.4-4,2.5-2.8-2.7-5.3-6.2-5.8-10.2a64.17,64.17,0,0,1-.3-8.8,31.17,31.17,0,0,0-9.6-1.6c.5,9.7-4.5,18.6-11.2,25.3,2.3,0,5.2-1.1,7.2.6,2.8,2.6,3.2,6.7,3.8,10.3-4.8-4.8-12.1-3-18.1-2.2-2.9.2-6.2,1.1-8.8-.5-2.8-3-2.8-7.8-1.1-11.4,3.1-4.9,9.5-5.1,13.8-8.4,4.6-3.3,6.3-9,8.1-14.1q-3.6-.3-7.2-.9c-.9,2.5-1.6,5.5-4.5,6.5-6,3.4-12.3-.9-18.4-1.8-3.6.2-7.9,3.5-7.2,7.5,1.8,2,4.9.1,7,1.6,1.8,2,1.5,5.8-1.1,7-3,1.9-6.9.3-8.9-2.3-3.4-4.5-3.7-11.3-.2-15.8,2.8-3.9,7.2-6.1,11.7-7.5-5.4-2.2-10.6-6.3-11-12.6-1.1-6.6,4.2-11.7,4.7-18.1a59.42,59.42,0,0,0,.3-7.3c-2.2-.3-4.8-.5-6.2-2.5-2.6-3.8-3.2-8.5-4.1-13,4.1.8,8.4,1.7,12.1,3.7,2.4,1.4,2.6,4.5,3.2,7,5.2-.1,10.7-.3,15.3-3,4.8-2.7,11-3.2,15.8-.3,3.3,2,5.3,5.4,7.2,8.7,1.8-5.9,5.8-11.7,12-13.5,5.3-1.4,12.3.7,14,6.4,1.5,3.6-2.5,8.7-6.3,6.5-3.6-1.5.5-6.7-3.4-7.9-3.8.2-6.3,4-6.7,7.5.3,3.7,2.4,7,2.8,10.6,1,5.1-1.7,11.3-7.4,12,.1,2.3.3,4.7.4,7,6.5-1.2,13.4-4.5,16-11,1.7-3.5,2.4-7.8,5.8-10.3,3.6-2.3,8.8-2.4,12.1.5,2.3,3.5.7,7.8.3,11.6-.8,5.2-1.8,11.6,2.9,15.3-4-.7-9.5-.6-11.6-4.9-.5-2.4.2-4.7,1-6.9a33.82,33.82,0,0,1-26.1,12.2,36.75,36.75,0,0,0,1.9,9.2c4.2.2,8.6.2,12.6,1.8,2.8,1.1,4.8,3.3,6.8,5.5-1,1.4-3.3,2.7-2.6,4.8,1,2.6,4.5,3.1,6.5,1.4-2-4.4-2.4-10.6,1.8-13.8,6-3,13-2.7,19.6-3.2,4.5-.4,8.9-2.9,10.2-7.4-2.1-.9-5.4-1.1-5.7-3.9-1.1-3.6,3.1-7,6.5-6a6.13,6.13,0,0,1,4.5,8c-1.4,4.5-4.3,8.4-7.6,11.8-4.1,3.9-10.2,3.9-15.5,4.6s-9.2,6.3-8.3,11.5a27.53,27.53,0,0,0,2.4,6.8c2.9.5,6.3,2.1,8.9-.2,3.7-2.8,2.7-8,4.5-11.7,1.3-3.5,5-5.2,8.4-6,6.8-2,14.4-3.4,19.3-9,4.5-4.5,5.9-12.3,2.5-17.8-.9-1.7-2.9-1.2-4.4-1.4.7-2.4,1.9-4.8,4.4-5.9-1.1-3.4-2.4-6.8-4.9-9.4-2.3-2.4-5.5-3.6-8.5-4.9,4.1-2,8.9-1.7,13.4-1.9,9,0,18,5.1,21.8,13.4,1.2,3,1.5,6.8-.8,9.3-2,1.3-4.6.7-6.9,1a10,10,0,0,0,9.8,9.5c5.3-.7,9.3-5.4,9.8-10.6-.8-4.1-3.2-7.7-5.9-10.7-4.9-5.3-8.5-12.1-8.4-19.5a53.33,53.33,0,0,0-28.8-2.5c-7.1,1.5-12.8,6.4-17.8,11.4-5.6,5.5-7.9,13.7-7.7,21.3,0,4.1,2.3,8.9,7,8.6-2.1.7-4.8,2.7-6.8.6a14.68,14.68,0,0,1-4.3-11.2,39.66,39.66,0,0,1,7.2-21.2c1.9-2.4,1.1-6.1-1.3-7.9-1.7-1.5-4.2-1.1-6.2-1.3a66.21,66.21,0,0,1,35.2-7.8c12.6,1,24.3,6.4,35.6,12,10,5.3,19.7,11.6,30.6,15,5.9,1.6,12.7,2.7,18.3-.4,3.9-2.8,7.3-7.5,6.6-12.6-3,.6-6.2,2-9.2.5-3.9-1.4-6.9-4.3-10.5-6.3-4.8-1.6-9.2,2.4-14,1.6-3.4-.3-7-1-9.6-3.4a6.33,6.33,0,0,1-2.5-6.9m-165,16.4a169.53,169.53,0,0,0-.7,17.5c.1,6.3,0,13.7,4.9,18.4,7.9,7.2,18.9,8.4,29,9-.3-.5-.9-1.4-1.2-1.9-5.8-.7-11.9-.1-17.3-2.7a18.5,18.5,0,0,1-10.2-11.5c-3-8.7-2.7-18.1-2.7-27.2,11.3.8,24.4-.8,33.7,7,7,5.9,6.7,15.8,7.3,24.1.5.1,1.5.4,2,.5-.6-4.7-.7-9.5-1.6-14.1a39.39,39.39,0,0,0-7.2-14.3c-3-3.6-7.9-4.7-12.4-5-7.8-.7-15.7-.1-23.6.2m43.2,38c.3,2.2.7,4.3,1.2,6.4-2.1-.4-4.2-.8-6.3-1.1.4,3.8,5.4,2.1,8,2.8C75.31,80,77.11,75.26,73.31,74.46Z"/><path class="cls-1" d="M1832.32,21c2.1-1.3,4.6-.3,6.4,1.2-.2,2.2-.2,4.6-1.7,6.3-2.8,3.4-7.6,4-11.7,4.2-4.5.1-9-3.7-13.4-1.3-3.4,2.3-6.7,4.9-10.7,6.2-2.7.9-5.5-.3-8.2-.8-.8,5.2,2.8,10,6.8,12.8,5.7,2.9,12.3,1.8,18.2.2,10.9-3.5,20.6-9.8,30.7-15.1,12.1-6,24.8-11.7,38.5-12a70.62,70.62,0,0,1,32.1,8c-3.1.1-6.8.2-8.2,3.5-2.2,3.7,1.5,6.9,3.1,10a43.34,43.34,0,0,1,4.4,15.8,14.56,14.56,0,0,1-4.6,12.6c-2,1.4-4.2-.2-6.1-.9,4.6,0,6.7-4.7,6.7-8.7.1-8-2.5-16.3-8.3-21.9-5-4.8-10.7-9.6-17.8-10.9-9.5-1.6-19.4-1-28.3,2.7A25.72,25.72,0,0,1,1857,45c-2.9,6.2-9.4,10.2-11,17.1-.9,7,7.8,14.4,14.4,10.3a9,9,0,0,0,4.7-8.3c-2.6-.2-6.2.6-7.6-2.3-2.3-5.6,1.5-11.3,5.5-15,8-7.5,20.2-7.5,30.2-4.7-2.8,1.4-5.9,2.4-8.2,4.6-2.8,2.6-4,6.3-5.6,9.7a10.52,10.52,0,0,1,4.6,6.3l-2.9-.4c-3.5,2.7-4.5,7.5-3.4,11.6.9,4.5,4.1,8.2,7.8,10.9,6.1,4.2,13.8,4.5,20.4,7.7,4.5,2.4,4.8,8,5.8,12.4.4,2.4,2.7,3.6,4.5,4.9a24.92,24.92,0,0,0,6.6-1.3c4.1-5.2,3.7-14.3-2.8-17.4-5.9-2.2-13.3-.6-18.2-5.4-3.8-4-7.8-8.7-7.9-14.5.1-5,7.6-7.6,10.5-3.3,2.8,3.2-.6,8-4.6,7.3.3,4.9,5.3,7.5,9.6,7.9,6.6.6,13.6.2,19.7,3.2,3.8,2.6,4.1,8.2,2.5,12.2-1.5,3.4,4.1,3.4,5.4,1.2,1.9-2.1-.9-4-1.9-5.8,4-6.6,12.4-7.2,19.3-7.3a47.29,47.29,0,0,0,1.8-9.1,33.5,33.5,0,0,1-25.4-11.5c.2,2.5,1.3,5.5-.6,7.7-2.8,2.8-7.1,2.8-10.7,3.3,4.9-3.4,3.9-10,3.1-15-.4-3.8-1.9-8.1.1-11.7,3.2-3.1,8.6-3,12.2-.7,3.8,2.7,4.3,7.8,6.4,11.7,2.9,5.7,9.3,8.1,15.1,9.9.2-2.4.4-4.9.6-7.3-6.1-.6-8.6-7.7-7.2-12.9.7-4.2,4.2-8.7,1.6-12.9-1.3-2.6-4.9-5.9-7.5-3-.1,1.6.1,3.1,0,4.7-.9,3-5.3,3.2-6.8.8-2-2.1-1.6-5.4-.1-7.6,2.7-4,8.3-5.3,12.8-4.2,6.2,1.6,10.4,7.4,12,13.3,3-4.9,7.1-10.3,13.5-10.4,6.2-.9,11,4.1,17,4.7a53,53,0,0,0,8,.4c.3-2.4.6-5.3,2.9-6.7,3.7-2.1,8-2.9,12.1-3.8-.7,4.5-1.3,9.2-4,13-1.4,1.9-4,2.1-6.1,2.5-.1,5,.1,10.3,2.6,14.8s3.6,10.4,1.1,15.3c-1.9,4-5.9,6.3-9.7,8.2,5.6,1.6,11.2,4.8,13.5,10.4,1.8,5,.7,11.8-4,14.8-2.7,1.8-7.5,1.4-8.6-2.2-1.1-1.7.1-3.8,1.3-5.1a22.62,22.62,0,0,1,5.2.1c3.9-3.4-1.7-8.4-5.4-8.7-6.1.4-12.3,5.2-18.4,2-2.9-1-4.3-3.9-4.8-6.7-2.5.3-4.9.5-7.4.8,2,6,4.4,12.8,10.6,15.6,4.2,2.2,10.1,3.1,11.9,8.1,1,3.5,1.1,9-2.8,10.7-8.5,1.6-18.6-4.6-25.9,2.1.9-3.4,1.1-7.4,3.7-10.1,2-2,5-.9,7.5-.7-6.7-6.7-11.8-15.6-11.2-25.3a24.92,24.92,0,0,0-9.7,1.8c0,4,.4,8.1-1.2,11.9-1.1,2.9-3.3,5.2-5.4,7.4-1.3-1-2.6-2.1-4-3-2.4.4-3.6,2.8-3.9,4.9.5,2.9,3.5,1.2,5.3.9,3.7-1,8.4.1,10.1,3.8,2.9,6.4,2.2,13.6,3.3,20.4.9,3.7,3.2,8.4,7.7,8,.3-2.1.7-5.2,3.5-5.2,4.2-.8,7.6,4.7,5.2,8.2-1.8,4.2-7.3,3.6-10.6,1.6-4.3-2.7-9.3-5.6-11.1-10.6-1.8-4.3-1.2-9.1-2.6-13.4a9.84,9.84,0,0,0-11.7-5.9c-2.6.7-6.2,1.4-6.7,4.5-1.2,3.2-.2,7.2,3.1,8.6,4.6,1.6,10.9,1.3,13.6,6.2,2.8,5.4,3.2,11.7,5.8,17.2,3,6.5,9.6,12.1,17.2,11.2,3.5,0,8.5-2.1,6.8-6.5a11.57,11.57,0,0,1,6.5,4.6c2.9-1.3,5.9-2.5,8.4-4.5,2.9-2.3,4.2-5.8,5.8-9,1.9,7.6,2.8,16-.3,23.4a22.7,22.7,0,0,1-13.2,12.4c-2.8.9-6.8.7-8-2.4a56.33,56.33,0,0,1-.3-5.8c-5.1.1-9.9,4.5-9.8,9.7a11.84,11.84,0,0,0,11.2,9.9c4.2-.8,7.8-3.4,10.8-6.3a30.25,30.25,0,0,1,12.4-7.1c2.2-.6,4.6-.4,6.6-1.5,3.9-8.5,4-18.2,2.8-27.3-1.5-8.4-7.3-15.4-13.6-20.8-5.9-4.5-13.6-6.1-21-5.7-2.7.1-4.8,1.9-6.8,3.6-.1,1.1-.2,2.1-.3,3.2-.8-1.9-2.7-4.2-.9-6.1,3.1-3.8,8.4-5.4,13.1-4.8,6.5.8,13.1,2.5,18.4,6.4,2.3,1.8,5.7,2.4,8.1.4,2.4-1.7,1.8-4.8,2-7.3,5.4,8.4,7.4,18.5,8.1,28.3,1,15.5-6,29.9-12.5,43.5-6.6,12.8-15.9,25.4-16,40.5-.4,7.8,6.7,14.6,14.4,14.3-.2-3-1.7-6.2-.4-9.1,1.4-3.8,3.9-7,6.1-10.3,1.8-3.9-.6-7.9-1.3-11.7a19.72,19.72,0,0,1,2-11.2c1.9-3.1,5.8-3.9,9.2-3.3,1,2.3,1.6,5.3-.5,7.2-1.7.8-3.7.2-5.5.5-3.1,4.8-1.2,10.9.3,16,2.1,6,3,12.8.1,18.6-1.8,4.4-6,7-10,9.3,2.7,2.3,5.7.9,8-1.1,3.2,9.4,7,18.9,7.1,29,.3,7.2-5.5,14.5-12.9,14.7-4.6,0-8.3-4.3-8.5-8.7.2-3.3,5-4.7,7-2.3.7,2.8-1.4,6.2,1.4,8.4,7-2.2,8.7-10.7,7.2-17-3.1-12-11.8-21.3-20.9-29.3-6.8-5.5-9-14.5-9.2-22.9,0-3.1,1.1-6,1.5-9-.3-3-2-6.3-.3-9.2,2.5-3,7.1-1.2,10-3.7-.2-1.7-.1-3.8-2.1-4.3-2.6-.9-5.1.6-7.5,1.4-5.4,2.1-12.4,1.3-16.2-3.4-4.1-4.7-7.3-11.7-3.9-17.6a9.47,9.47,0,0,1,11.2-4.6c2.4,1.6,3.4,4.8,6.4,5.6,2.8.6,5.2-1.2,7-3.1a27.42,27.42,0,0,0,6.9-18.5c-4.7,3.1-9.5,6.5-15,8.1-6.4,1.8-13,.2-19.1-1.6-6.3-1.8-11.1-6.7-15.5-11.3-4-3.9-6-9.9-11.5-12.1-3,3.8,1.7,7.5.8,11.6-.3,3-3.3,4.5-5.5,6,1-2.6,2.3-5.3,2-8.2-.3-4.5-3.2-8.4-3.7-12.9-.2-3,2-5.4,2.9-8.1-.4-4.4-4.4-9.3-9.2-7.4-3.1.5-3.8,3.8-6.1,5.4a11.25,11.25,0,0,1,1.9-6.1c-2.2,1.3-4.7,2.1-7,.7,3.3-.5,6.4-3,6.3-6.6.6-4.5-4.1-7.8-8.2-7.6-2.5.9-4.8,3.1-7.7,2.9-4.3-.7-8-3.3-12.4-3.7-2.8-.4-5.6.8-8.2,1.5,1.5-1.7,2.7-4.3,5.2-4.8,4.1-2,7.8,3.9,11.7.9.4-2.7-2.4-4.8-4.4-6.3a56.71,56.71,0,0,1-13.8-12.5c-4.8-5.6-6.4-13.1-7.3-20.3-.6-8.4,4.8-15.4,8.9-22.3a26.77,26.77,0,0,0-17.8,6.3c-2.2,2-4.2,4.9-3.6,8,1.2,2.2,3.5,3.3,5.1,5.1a8.91,8.91,0,0,1-.9,9.4,11.22,11.22,0,0,1-12.7,3.4c-5.8-2-11.7-6.4-12.4-12.9-.8-3.9.2-7.7,1.8-11.2,1.4-2.6.3-7.5-3.5-6.4-3.6,2.3-.7,7.9-4.3,10.2-3.8,2.2-7.8-1.6-11.8,0-6.4,2.2-13.3.7-19.5-1.3-5.2-1.7-8.9-5.9-12.5-9.8A64.51,64.51,0,0,0,1768,29.5c-5.8-2.5-13.1-2.7-18.3,1.3-1.7,1.2-2.1,3.4-2.8,5.2,2.4,1.5,5,0,7.5.4,3.6,1.3,2,7.3-1.6,7.3-5.2-.2-10-5.8-8.4-11a15.09,15.09,0,0,1,10.9-10c4-1,8.2-.2,12.3.5,7,1.4,13.8,3.9,20.6,6.2a24,24,0,0,0-3,4.1,19.11,19.11,0,0,0,1.3,3.6c2.6-2.8,4.1-6.7,7.6-8.6,5.4-3.4,12.2-3.7,18.1-1.7s12.7,4.1,18.6.9c.1-2.5-1-5.6,1.5-6.7m135.6,21.5c-4.4,4.8-6.9,10.9-8.4,17.2.6.7,1.3,1.3,1.9,2A19.35,19.35,0,0,1,1973,43.8c9-3.9,19-3.1,28.6-3.6-.3,10.7.6,22.5-5.2,32-4.2,6.9-12.8,8.8-20.3,9l-1.1,1.7c5.3-.5,10.9-.9,15.8-3.3,5.2-2.3,10.7-5.6,12-11.6,2.3-9.6,1-19.6.6-29.3a165.26,165.26,0,0,0-21.1-.6c-5.1.1-10.7.7-14.4,4.4m-8.7,18.8c-.1,3.5-.4,7-.6,10.5,3.5-.9,1.6-5.8,2.4-8.5-.6-.7-1.2-1.3-1.8-2m-2.1,23.4c2.6-.6,6.5.6,8.1-1.8-1.1-2.1-4.3.2-6.3.1.4-2.1.8-4.1,1.2-6.2-3.9.1-2.1,5.4-3,7.9m14-2.9C1971.32,85.1,1974.22,80.2,1971.12,81.8Z"/><path class="cls-2" d="M300.08,31H1734.69v5.3H300.08Z"/><path class="cls-1" d="M2003.42,300h5.3v31h-5.3Z"/><path class="cls-1" d="M24.71,298h5.4v31h-5.3C24.71,318.66,24.71,308.36,24.71,298Z"/><path class="cls-1" d="M25.21,331.66c5.1-.7,9.6,4.3,9.4,9.2-.6,2.5-4,3.7-6.2,2.5-2.2-2.3.5-5.6-1-8.2-1.2-1-3-.2-4.2.5-5,4.1-5.6,11.4-3.8,17.2a54.54,54.54,0,0,0,13.3,21c5.2,5.3,12.1,9.8,14.2,17.3,1.6,5.8,3,12.1,1.1,18-1.6,4.3,1.6,8.8-.3,13.1-3.1,1.8-8,.1-9.9,3.7-.8,3.6,4,4.5,6.5,3.3,5-2.3,11.2-3.2,16.2-.3a21.12,21.12,0,0,1,8.2,12.8c1.4,6-3.6,13.1-10.1,12.4-4.4.5-5.1-5.5-9.2-6-2.9-.3-5.4,1.6-7.2,3.7a27.22,27.22,0,0,0-6.3,17.7c5.5-3.3,10.8-7.4,17.4-8.4,7.2-.9,14.4,1,21,3.9A56.73,56.73,0,0,1,91.21,482a9.84,9.84,0,0,0,6.5,4.6c1.6-4.1-2.5-7.5-1.4-11.7.4-2.9,3.5-4.2,5.6-5.8-1.1,2.5-2.4,5.1-2.3,7.9.2,5,3.5,9.1,3.8,14.1-.3,2.6-1.9,4.6-2.8,7-.2,4.3,4,9.4,8.6,7.8,3.2-.5,4.8-3.5,6.1-6.1.1,1.2.2,2.4.4,3.5-.6,1.1-1.3,2.1-1.9,3.2,2.3-1.2,4.9-2.1,7.4-.7-5.4,0-8.4,6.4-5.6,10.7,2.2,2.8,6.7,4.8,9.7,2.2,4.8-3.6,10.3.4,15.1,1.7,3.7,1.2,7.6.2,10.8-1.8-1.5,2.4-2.9,5.7-6.2,5.8-3.5,1-6.3-2.9-9.6-1.8-2.2.1-1.3,2.5-.5,3.5,2.4,3.4,6.5,5,9.5,7.8,5.4,4.9,11.1,10.5,13,17.8,1.5,5.5,3.3,11.4,1.5,17.1-1.5,5.8-5.2,10.7-8.2,15.8a27.31,27.31,0,0,0,18.3-6.8c1.9-2,3.9-4.8,3-7.7-1.2-2.9-5.4-3.8-5.7-7.2-1.4-4.8,2.3-9.5,6.8-10.8,5.2-1.7,10.6,1,14.6,4.1,5.6,4.1,6.9,12.4,4.1,18.5-1,2.1-1.8,4.8-.5,7a2.68,2.68,0,0,0,4.3.4c1.8-2.5.8-5.9,2.2-8.5,2.9-2.9,7-.8,10.5-.4,3-.3,5.9-1.7,9-1.6a40.51,40.51,0,0,1,14.6,3c4.4,1.8,7.5,5.5,10.6,8.9a64.31,64.31,0,0,0,22.6,16.8c6,2.6,13.6,2.6,18.7-1.9,1.6-1.4,1.8-3.6,1.6-5.6-2.5,0-5,.9-7.4.3-3-1.9-1.2-7.1,2.2-7.2,4.8.4,9.3,5,8.6,10a14.77,14.77,0,0,1-14.5,11.4c-10.1.1-19.7-3.8-29.1-6.9.9-1.5,1.9-3,2.7-4.6a35.92,35.92,0,0,0-1.7-3.4c-2.2,3.4-4.2,7.2-8,9.1-5.4,3.1-12.1,3.1-17.9,1.1-5.7-1.8-12.4-4-17.9-.7-.4,1.8.2,4-.8,5.7-1.9,1.7-4.5,1.1-6.7.4-1-3.2-.3-7,2.6-8.9,5.3-3.5,12.1-3,17.8-.8,5.8,1.8,9.3-4.3,14.3-6,3.2-1.9,6.9-.7,10.3,0,.4-5.4-3.2-10.6-7.8-13.2-9.2-3.4-19,.4-27.4,4.3-14.7,7.3-28.7,16.6-44.8,20.9-13.1,3.7-27.3,2.1-39.9-2.7a29.07,29.07,0,0,1-6.3-3.3c2.6.1,5.8.2,7.3-2.3,1.8-2.1,1.4-5.1-.2-7.2a39.15,39.15,0,0,1-6.8-22c-.1-4.3,2.4-8,5.4-10.9a19.53,19.53,0,0,1,5.6,1.9c-4.6-.4-6.7,4.1-6.9,8-.3,7.9,2.2,16.3,7.9,22,3.9,3.9,8.3,7.6,13.3,9.8,5.3,2.1,11.1,2.2,16.7,2.1a39.79,39.79,0,0,0,16.6-3.7c-.4-6.4,2.8-12.3,6.5-17.3,3.3-3.5,6.4-7.4,7.5-12.1,0-5.6-4.9-11.1-10.6-11.1a9.73,9.73,0,0,0-8.7,9.6c2.5.3,5.9-.8,7.5,1.9,1.9,3.3.7,7.6-1.3,10.6-3,4.2-7,7.9-12,9.5a35.93,35.93,0,0,1-22-.2c3.3-1.6,7-2.9,9.3-5.9,2-2.5,3.1-5.5,4.3-8.4a8.53,8.53,0,0,1-4.4-6.6,14.46,14.46,0,0,1,2.2.9c4-2.2,4.5-7.3,3.8-11.3-.6-4.6-3.9-8.4-7.5-11.2-6.1-4.2-13.8-4.6-20.4-7.7-4.9-2.4-4.9-8.4-6.2-12.9-.5-2.3-2.9-3.4-4.6-4.6-2.6.7-6.6.1-7.5,3.3-2.1,4.2-2.3,9.6,1.1,13.2,3.7,4.5,10.2,2.8,15.1,4.5,5.8,1.3,9.3,6.5,12.2,11.3,1.6,2.9,2.9,7,.3,9.7-2.1,2.7-6.8,3.1-8.9.2-1.6-1.6-1.3-4.5,0-6.2,1.3-.9,2.9-.9,4.4-1.3-.2-4.8-5.1-7.4-9.3-8-6.8-.6-14.2-.2-20.4-3.5-4.1-3.4-3-9.3-1.8-13.8-1.9-1.7-5-.7-6.3,1.4-.7,2.1,1.3,3.3,2.5,4.6-3.8,7.1-12.4,7.3-19.4,7.9a30.52,30.52,0,0,0-1.7,9c5,.1,10,.8,14.5,3.2,3.9,1.8,7,4.8,10.6,7.2,0-2.3-.9-5.4,1.3-7.1,3-2,6.8-2.3,10.3-3-1.3,1.6-2.9,3.1-3.3,5.1-1.1,6,1,11.9,1.3,17.8-.1,1.7-.4,3.8-2,4.8-4.5,3-11.9,1.7-14.2-3.5-2.1-4.2-3.1-9.1-6.7-12.3A30,30,0,0,0,76,558c-.2,2.3-.3,4.6-.5,6.9a9,9,0,0,1,7.1,6.8c2.1,5.9-2.5,11.2-2.4,17,.8,3.6,5.2,9,8.8,5.1-.3-1.9-1.2-4.2.4-5.7,1.1-1.3,3-.9,4.5-1.2,2.3,1.9,3.9,5.1,2.4,8-2.5,5.5-9.7,6.8-14.9,5.1-5.6-2.1-9.1-7.7-10.8-13.2-2.6,5.8-7.9,11.2-14.7,10.8-5.1.3-9.1-3.4-13.9-4.4a40.09,40.09,0,0,0-9.8-.6c-.4,2.4-.7,5.3-3,6.7-3.7,2.2-8.1,3-12.3,3.8,1-4.4,1.6-9,4.1-12.8,1.4-2.1,4-2.2,6.2-2.5,0-5.2-.2-10.6-2.7-15.2s-3.4-10.7-.7-15.4c2-3.7,5.8-5.7,9.4-7.7-5.9-1.6-12-5.3-13.9-11.5-1.5-5.4.4-12.8,6.3-14.6,3.8-1.5,8.6,2.1,6.8,6.3-1.2,3.9-6.5-.1-8,3.3-.2,3.5,3.2,6.2,6.3,7,6.2,0,12.2-5,18.4-2.1,3.2.9,4.6,4,5.4,6.9,2.4-.3,4.7-.5,7.1-.8-1.6-6.1-4.3-12.8-10.4-15.6-4.3-2.2-10.4-3.2-12-8.5-1-3.4-.8-8.7,2.9-10.4,7.2-1.2,14.4,2.4,21.6.6,1.7-.4,2.9-1.9,4.1-3-.5,3.6-1,7.7-3.6,10.5-2.1,1.9-5.2.7-7.6.5,6.8,6.7,12,15.7,11.4,25.5a34.53,34.53,0,0,0,9.5-1.7c.3-4.5-.3-9.3,1.9-13.4a26.67,26.67,0,0,1,4.3-5.7c2.2-.4,3.4,3.5,5.8,2.1,1.9-1.2,3.7-5.1,1-6.2-4.4,1.4-10.5,2.4-13.5-2.1-3.6-6.7-2.4-14.6-3.9-21.8-1-3.5-3.3-7.8-7.5-7.4-.4,1.9-.5,5-3.1,5.2-4.5,1.1-8.1-4.6-5.6-8.3,2-4.2,7.6-3.4,10.9-1.3,4.3,2.6,9.1,5.7,10.9,10.7,2.1,5.1.5,11.4,4,15.9,3.9,4.8,11.5,4.2,16,.6,1.4-2.7,2.2-6.7-.3-9.1-2.5-2.8-6.5-2.1-9.7-3.5a9.09,9.09,0,0,1-6.6-5.7c-2.8-7.2-3.1-15.8-8.9-21.5-4.5-5.2-12.6-7.2-18.7-3.7-2,.9-1.5,3.2-1.3,5a13.58,13.58,0,0,1-6.5-4.8c-2.8,1.4-5.8,2.6-8.4,4.6-2.8,2.2-4,5.6-5.5,8.7a35.67,35.67,0,0,1-1.3-18.6c1.6-7.6,7.1-14.6,14.7-16.8,2.7-.8,6.1-.6,7.7,2,.6,1.9,0,4.1,1.1,5.9,5.8.5,11-6.8,8.4-12.2a12.56,12.56,0,0,0-9.9-7c-4.7.6-8.5,3.6-11.8,6.8a30.55,30.55,0,0,1-17.9,7.7c-4.6,7.4-4.4,16.8-3.7,25.3.5,8.3,5.8,15.3,11.4,21,5.5,5.5,13.5,7.7,21.1,8,4.3.2,9.6-2.1,9.7-7,.6,2.1,2.4,4.6.5,6.6a15.44,15.44,0,0,1-12.2,4.5c-6.6-.7-13.4-2.4-18.9-6.3-2.3-1.7-5.4-2.7-7.9-.9-2.9,1.5-2.4,5.1-2.6,7.8-5.3-9-7.5-19.4-8.2-29.7-.4-12.2,4-23.9,9.1-34.7,6.5-12.6,14.6-23.6,18.9-36.5,1.9-6.2,3.2-13.5-.3-19.5-2.8-3.8-7.4-7.1-12.4-6.4.6,3.4,1.8,7.1-.1,10.3-1.8,5.1-8.1,9-5.9,15a20.46,20.46,0,0,1,0,16.1,8.11,8.11,0,0,1-9.9,3.7c-.4-2.1-1.2-4.6.5-6.4,1.7-2.1,5.7.7,6.7-2.3,3.3-10.1-5.6-19.6-2.5-29.7a17.52,17.52,0,0,1,11.3-12.6c-1.2-.6-2.3-1.5-3.7-1.6-1.7.3-2.8,1.7-4.1,2.7-3.4-9.2-6.7-18.7-7.4-28.6-.4-7,4.8-14.2,12-15.1M68,547.46l6.5-1.2c-.5,2.1-.9,4.2-1.3,6.4,3.9-.3,2.2-5.4,3-8-2.8.6-7.4-1-8.2,2.8m-30,4.8a16,16,0,0,0-8.2,12.8,118.11,118.11,0,0,0,.5,25.9c.6-.7,1.2-1.5,1.8-2.3a79.68,79.68,0,0,1,1.1-21.8c1.1-6.1,4.2-12.3,9.9-15.4,5.9-3.5,13-2.8,19.6-3.7.1-.5.4-1.4.5-1.8-8.6.8-17.8,1.2-25.2,6.3M68.51,579c-5.4,8-15.9,9.4-24.8,9.9-3.9.5-8.7-1-11.8,2.2,8.2.2,16.3,1,24.5-.2,3.8-.6,7.9-2.1,10.3-5.3a37.31,37.31,0,0,0,7.8-21.7c-.1-2.2,1.6-5.4-1.1-6.7C71.91,564.36,73.11,572.56,68.51,579Z"/><path class="cls-1" d="M1998.82,343c-.3-4.7,3.7-9.4,8.5-9.4,7.2.4,13,7.3,12.8,14.4,0,10.2-3.9,19.9-7.2,29.5-2.1-2.4-5.4-3.5-7.9-1,5.5,2.1,10,6.6,11.2,12.5,2.9,9.6-4.7,18.4-3,27.9.1,1.3,1,2.4,1.7,3.5,1.9-.1,4.6-1.1,5.9,1,1.5,2.1.8,6.8-2.4,6.6a8.2,8.2,0,0,1-8-5.6c-1.1-3.8-1.7-8-.4-11.8,1-2.9,1.9-6.1.6-9-2.5-3.8-5.6-7.5-6.6-12.1-.2-2.4.6-4.8.9-7.2-5-.5-9.8,2.7-12.5,6.7-3,5.4-2,11.9-.6,17.6,3.9,13.5,12.6,24.8,18.1,37.6,5.5,11.8,10.3,24.7,8.9,37.9-1,9.3-3,18.9-8.1,26.9,0-2.6.7-5.9-1.9-7.6-2.4-2-5.7-1.5-8,.3-5.5,3.9-12.2,5.6-18.9,6.5a15,15,0,0,1-12.8-4.8c-1.7-2,.1-4.3,1-6.2-.4,4.3,4.2,6.9,8,7,8.5.1,17.6-2.4,23.5-8.9,4.8-5.3,9.6-11.4,10.4-18.8.9-8.8.9-18.1-3-26.2-3.5-1.4-7.7-1.1-11-3.2-7-2.8-11.1-10.3-18.8-11.7-5.5.1-11,4.8-11.2,10.5.4,4.5,4.5,9,9.1,8.8,1.6-2,0-5.2,2-7s5-1.6,7.3-.8a22.17,22.17,0,0,1,14.5,17.9c1,5.8,0,11.7-1.1,17.4-1.9-3.1-3.2-6.7-6.1-9a38.49,38.49,0,0,0-8.3-4.3c-1.4,2.5-3.9,3.8-6.5,4.7.3-1,.6-1.9.9-2.9-2.1-3.1-5.9-4-9.4-3.8-5.7,0-10.7,3.9-13.7,8.5-3.9,6-4,13.5-7.2,19.9-2.6,4.9-8.9,4.8-13.6,6.2-4.2,1.9-4.6,7.6-2.1,10.9,5,3.8,13.4,3.7,16.7-2.3,2.7-6.1.8-14,5.9-19.1,3.8-3.6,8.4-7.5,13.9-7.7,4.8-.5,7.9,6.6,4.2,9.7-1.5,2.3-4.3,1.5-6.5,1.2-.5-1.7-1-3.3-1.4-5-4.7,0-7,4.8-7.8,8.8-.9,6.5-.4,13.4-3,19.6-1.5,3.7-6.1,4.9-9.6,4.2-1.9-.2-3.9-1.7-5.7-.3-.6,2.8,1.2,5.2,3.7,6.3,1.3-1,2.3-2.7,4-3,6.1,4.4,7.1,12.3,6.7,19.3a31,31,0,0,0,9.5,1.6c-.6-9.9,4.6-18.9,11.5-25.5-2.6.3-5.8,1.5-7.9-.8-2.5-2.8-2.7-6.8-3.6-10.3,4.5,5.3,12.1,3.4,18.1,2.6,3-.2,6.6-1.2,9.3.7,3.1,4.1,2.6,11.1-1.9,14-4.2,2.7-9.5,3.4-13,7.1-3.1,3.5-4.8,8-6.1,12.4,2.4.2,4.9.5,7.4.7a7.81,7.81,0,0,1,5-6.8c6-3,12.1,1.7,18.1,2,3.3-.5,7.1-3.4,6.8-7.1-1.3-2.4-4.2-1-6.3-1.5-1.6-.8-1.8-2.8-2.3-4.3,1.3-2.6,3.9-4.8,7-3.9,6.2,1.5,8.2,9.2,6.7,14.7-1.9,6.3-8.1,9.8-13.9,11.6,4.2,1.9,8.7,4.6,10.3,9.3,1.9,4.8.5,10.1-1.8,14.5s-2.4,9.6-2.4,14.4c2.2.3,4.8.5,6.2,2.5,2.5,3.9,3.2,8.5,4,13-4-.9-8.1-1.6-11.7-3.5-2.6-1.3-3.1-4.4-3.4-7-5-.1-10.2,0-14.7,2.5-4.7,2.6-10.7,3.8-15.6,1-3.8-1.9-6.1-5.6-8.1-9.2-1.6,5.9-5.6,11.7-11.7,13.5-5.3,1.3-12.4-.3-14.3-6-1.3-3.3,1.3-7.9,5.2-7.1,3.3.3,3.2,4.4,2.3,6.7,3.4,3.7,7.5-1,8.7-4.3.8-4.1-1.9-7.7-2.5-11.7-1.3-5.3,1.5-11.9,7.4-12.8-.3-2.3-.5-4.7-.7-7-4.5,1.3-9.1,3-12.5,6.3s-4.3,8.4-6.5,12.5c-2.7,4.7-9.5,5.6-13.8,2.8-1.5-1-1.9-3-1.9-4.8.1-6,2.5-12,1.2-18-.4-2.2-2.1-3.6-3.5-5,3.6.8,7.8.8,10.7,3.4,2.3,2,.9,5.4.7,7.9,6.5-7.1,15.8-11.8,25.5-11.5a36.57,36.57,0,0,0-1.8-9.2c-3.9-.3-7.8-.4-11.6-1.5-3.3-1-5.7-3.5-7.9-5.9,1.1-1.6,3.6-3,2.4-5.2s-4.3-2.4-6.4-1.3c1.8,4.5,2.6,10.7-1.7,14.1-6.4,3.1-13.7,2.7-20.5,3.3-4.2.6-8.8,3.3-9,7.9,1.5.5,3.7,0,4.7,1.7,2.2,2.8.1,7.1-3.3,7.7s-7.2-1.9-7.3-5.5c-.2-3,1.2-5.8,2.8-8.2,2.5-3.8,5.6-7.9,10.2-9.1,5.1-1.9,11.4-.3,15.6-4.3s3.6-10.8.4-15.3c-3.4-2-8.6-2-10.7,1.9-1.8,4.6-1.2,11-6.2,13.8-7.4,3.6-16.4,3.7-22.7,9.4-5.3,4.5-8.1,12.7-4.2,18.9.9,1.8,3.1,1.6,4.8,1.7a9.35,9.35,0,0,1-4.5,6.1c1.3,3.2,2.5,6.5,4.9,9.1s5.8,3.5,8.5,5.5c-8.1,1.9-17.1,2.4-24.8-1.5a23.83,23.83,0,0,1-10.2-10.4c-1.3-3.2-1.8-8.2,1.9-10.1a33.73,33.73,0,0,1,5.5-.2c.4-5.1-4-9.3-8.9-9.7-5.4.3-9.8,5.1-10.4,10.3.4,3.6,2.4,6.7,4.6,9.5,4.6,5.2,9.1,11.3,9.5,18.5a22.68,22.68,0,0,0,.6,2.5c9.9,4.2,21.3,4.4,31.6,1.7,10.7-4.7,20.8-14.1,22.1-26.3.9-5.1.8-12.8-5.5-14.4,1.6-1.3,4.6-2.1,5.9-.1a14.6,14.6,0,0,1,4,11.6c-.7,6.6-2.4,13.4-6.2,18.9-1.7,2.2-2.9,5.2-1,7.7,1.4,3,5.1,2.8,7.9,2.8-11,6.4-24.3,8.8-36.9,7.9-17.7-2.1-33.3-11.4-48.6-19.8-8.8-4.5-18.2-9.3-28.4-8.4-7.1.3-12.9,7.4-12.5,14.4,2.4-.4,4.8-1.3,7.3-1,4.6,1,8.1,4.2,12,6.7,4.4,2,8.6-1.5,13-1.4a19.47,19.47,0,0,1,10,2.4,7.81,7.81,0,0,1,3.2,8c-1.6,2.3-5.6,2.6-7.3.3-.7-1.8-.3-3.8-.5-5.6-6-2.5-12.5-.9-18.3,1.2a21.66,21.66,0,0,1-19.3-2.3c-2.7-2-4.3-5-5.9-7.9-.8,1.2-2.9,2.7-1.5,4.2a41.45,41.45,0,0,0,2.4,3.4c-9.6,3.3-19.4,7.2-29.8,7.1a14.85,14.85,0,0,1-14.1-11c-1.1-5.2,3.9-10.4,9-10.3,3.3.7,3.6,4.6,2.4,7.2-2.7.8-6.3-1.5-8.4.8a6.11,6.11,0,0,0,2.4,4.8c4.8,3.8,11.7,4,17.3,1.8a61.92,61.92,0,0,0,23.3-16.9c3.6-3.8,7.2-8,12.3-9.8,6.4-2.2,13.5-3.6,20.1-1.3,3.6,1.4,7.4-2.1,11-.3,4.3,1.8.8,8.3,4.9,10.4,3.8.9,4.6-4.3,3.1-6.8-2.6-5.2-2.7-11.9.5-16.8a21.17,21.17,0,0,1,13.4-7.7c6-.7,12.5,4.8,11.1,11.2-.3,3.5-4.3,4.5-5.7,7.3-.9,3.1,1.1,6,3.3,8a28.8,28.8,0,0,0,17.8,6.7c-3-6.5-8.1-12.3-8.6-19.7-.2-6.2,1.6-12.4,4-18.1,4.1-7.3,10.5-13.1,17.5-17.7,2.2-1.3,3.4-3.6,4.6-5.7-3.9-3.7-7.8,2.3-12,.6-2.8-.5-4-3.3-5.5-5.3,2.4.9,4.8,2.1,7.4,2,4.6-.1,8.5-2.9,13-3.7,3-.6,5.3,1.8,8,2.7a8.88,8.88,0,0,0,5.4-1.7c3.2-1.9,3.6-6.6,1.7-9.6-1.1-1.9-3.4-2.3-5.2-3.2,2.5-1,4.9-.3,7.1,1.1a9.21,9.21,0,0,1-1.5-6.8c1.5,2.4,2.8,5.4,5.9,6,3.8,1.6,7.6-1.6,8.6-5.2,1.7-3.5-2.6-6.1-2.4-9.6.2-4.6,3.2-8.5,3.7-13.1.4-3-1-5.9-1.8-8.7,2.1,1.6,5,3,5.3,5.9,1,4.1-3.9,7.8-.8,11.7,2.1-1.1,4.3-2.4,5.6-4.5,4.7-6.8,10.2-13.2,17.4-17.3,7.8-3.3,16.8-5.7,25.1-2.6,4.7,1.6,8.6,4.9,13.1,6.9-.3-6.6-2.6-13.3-7.1-18.1-2-2-4.9-3.8-7.8-2.6-2.4,1-3,3.8-4.9,5.3-2.7.4-5.7.7-8.2-.8a11.21,11.21,0,0,1-4.3-13.6c2.1-6.1,7.1-12.6,14.3-12.3,4.9-.9,9.1,3.4,14,2.4,2.4-.5,2.9-4.2.7-5.1-2.7-1.7-7.1.1-8.8-3.3-1.7-3.6,1.4-7.4.2-11-2.1-6.8-.9-14.1,1.6-20.7,1.9-5.3,6.5-8.7,10.3-12.5,7.1-6.3,13-14,16.3-23,2-5.4,1.8-12-1.8-16.7-1.3-1.7-4-3.5-6-1.8-.6,2.6.3,5.3,0,8-3.1.9-6.5.8-7.4-2.2m-42.2,205.6c.5.2,1.6.7,2.2.9,1.9-1.7,4.3,0,6.5,0-.2-.5-.7-1.6-.9-2.2-2.5,0-6.7-2.1-7.8,1.3m13.6-.7.6,2c3.5.3,7.1.5,10.7.7l-.7-1.3a96.17,96.17,0,0,0-10.6-1.4m-11.1,5.4a2.28,2.28,0,0,0-.1-3c-1.5-.2-1.5,3.3.1,3m21.8-4.2c.7,2.6,3.8,1.9,5.7,2.8a19,19,0,0,1,12.2,12.3c2.9,8.7,2.7,18.1,2.7,27.2-9.6-.7-19.8.3-28.8-3.8-6.4-2.8-11.3-9.5-11-16.6-1,0-1.9-.1-2.9-.1,2.2,5.3,3.5,11.1,7.2,15.7,2.5,3.9,7,5.9,11.5,6.5,8.6,1,17.2.4,25.8-.1.7-8.3,1.3-16.6.4-24.9-.5-3.9-1.5-8-4.5-10.8a33.29,33.29,0,0,0-18.3-8.2m-22.1,11c-.4,2.9.6,5.9.1,8.9.6.1,1.6.4,2.2.5-.3-3.3-.4-6.7-.7-10Z"/><path class="cls-2" d="M300.08,600.3V595q717.3.15,1435,.1l-1.29,5.4Q1017.16,600.05,300.08,600.3Z"/></g></svg>