<svg id="svg6602" xmlns="http://www.w3.org/2000/svg" viewBox="0 0 687.96 247.94"><defs><style>.cls-1{fill:#1a1a1a;}.cls-2{fill:none;stroke:#000;stroke-width:1.21px;}.cls-3{fill:#536c67;}.cls-4{fill:#fff;}</style></defs><title>dialogue box-0</title><path id="path7422" class="cls-1" d="M678.5,22.41l-2.14-9.25c-3.4.27-6.88.49-10.33.76.81-1.92,1.65-3.74,2.53-5.39L653.65,5.66a87.55,87.55,0,0,0-4.29,9.49c-183.66,12.71-435.52,9.26-620,.76A86.74,86.74,0,0,0,24.75,5.66L9.94,8.53a72.37,72.37,0,0,1,3,6.62l-9.84-.47L1.75,24.05l14.62.71C23.42,48,27.13,82.38,26.9,118.42S22.66,192.33,15,222.93c-5,.2-10.13.37-15,.58l1.17,9.37,11.21-.46C11,237.16,9.56,241.69,8,246l15.21,2c1.87-5.08,3.56-10.5,5.16-16.17,186-7.32,439.74-9.07,623.15,5.16,1.16,3.81,2.4,7.49,3.7,11l15.3-2c-.91-2.46-1.79-5-2.63-7.68l6.43.53,2.34-9.25c-3.81-.34-7.72-.68-11.6-1-8.6-31.5-13.2-71.84-13.45-110.13-.23-36.59,3.67-71.49,10.92-94.72,5.39-.4,10.72-.86,16-1.29ZM344.4,217c49.07.12,95.24,2.28,117.66,2.89C818.15,236.69,515.93,218.18,344.4,217ZM67,27.4C182.18,94.34,231.72,69.39,67,27.4ZM296.74,216.84c-93.69.24-185.85,2.34-265.87,5.44,7.39-30.31,11.24-66.76,11.6-101.8-.14,35.91-7.58,56-12.59,81.39-1.54,7.82-.39,16.36-.51,17.82l-1.59,4.37L43,224.2c11.16-.63,55.69-2,114.05-3.51,27.31-.71,82.19-3.81,139.72-3.85Z"/><path id="path7424" class="cls-2" d="M688,16.75,685.81,7.5c-3.39.27-6.88.49-10.33.76.82-1.92,1.65-3.74,2.53-5.39L663.1,0a87.55,87.55,0,0,0-4.29,9.49c-183.66,12.71-435.52,9.26-620,.76A87.48,87.48,0,0,0,34.2,0L19.39,2.87a72.37,72.37,0,0,1,3,6.62L12.57,9,11.2,18.39l14.62.71c7,23.22,10.76,57.62,10.53,93.66s-4.24,73.91-11.89,104.51c-5,.2-10.13.37-15,.58l1.17,9.38,11.21-.47C20.45,231.5,19,236,17.44,240.29l15.21,2c1.87-5.08,3.56-10.5,5.16-16.17,186-7.32,439.74-9.07,623.15,5.16,1.16,3.81,2.4,7.49,3.7,11l15.3-2c-.91-2.46-1.79-5-2.63-7.67l6.43.52,2.34-9.25c-3.81-.34-7.72-.68-11.6-1-8.6-31.5-13.2-71.84-13.45-110.13C660.82,76.17,664.72,41.27,672,18c5.39-.4,10.72-.86,16-1.29ZM658.23,221.6c-183.81-13.91-433.15-12.15-617.87-5,7.53-30.9,11.37-68.19,11.59-103.86.23-35.28-3-68.69-10-93,183.15,8.31,430,11.71,613.7-.65-7.16,24.32-10.36,58-10.14,93.61.24,37.59,4.44,77,12.77,108.84Z"/><path id="path7426" class="cls-3" d="M17.85,218.11l7.48-.29,1.89-8.52c12.29-55.4,13-135.51,1.6-182.25l-2-8-7.07-.47c-4.31-.29-7-.94-6.91-1.66s.27-2.46.4-4c.2-2.5.81-2.84,5-2.84C21.47,10,23,9.54,23,8.53a1,1,0,0,0-1.44-.94c-.83.31-1-.53-.31-2C22,3.81,24,2.72,28,1.89L33.66.71l2,4.41c1.09,2.43,2.4,4.71,2.92,5.07,2.36,1.65,131.69,5.91,223.84,7.38,107.38,1.72,204.33.93,295.35-2.39,48.16-1.76,100-4.71,101.5-5.79a17.15,17.15,0,0,0,3-4.77l1.87-4,5.74,1.2c3.34.69,6.27,2.07,7,3.3s.73,1.9-.26,1.54-1.55.08-1.55.9c0,1.09,1.36,1.41,5.12,1.24,4.88-.23,5.16-.06,5.91,3.54l.78,3.79-7.85.95-7.86.94-2,8.05c-7.31,29.64-10.52,89.78-6.82,127.82,2.8,28.79,9.43,66.69,12.12,69.3.43.42,2.86.76,5.41.76,4.07,0,4.63.33,4.63,2.76,0,4-1.5,5.76-4.91,5.76-2.61,0-2.87.48-2,3.74.94,3.54.75,3.77-3.52,4.34-2.49.33-5.41.76-6.49,1s-2-.07-2-.61-.53-.78-1.18-.54-1.28-1.47-1.39-3.8-.82-4.59-1.57-5c-3.39-1.93-109.66-7.37-188.82-9.65-62.11-1.8-254.86-1.5-329.21.51-61.49,1.66-104.86,3.2-105.81,3.77-.29.18-1.69,3.81-3.12,8.07-2.08,6.26-3.07,7.66-5.11,7.3-1.39-.25-4.37-.72-6.63-1-3.95-.56-4.06-.75-2.78-5,.73-2.44,1.71-5.39,2.17-6.56.75-1.89.24-2.13-4.51-2.13s-5.46-.35-6.33-3c-1.72-5.19-1.44-5.44,6.5-5.75ZM52.5,217c64.63-3,160.67-4.71,266.6-4.7,131.67,0,208,1.93,299,7.56,21.91,1.36,40.16,2.27,40.55,2s-.36-5-1.66-10.59c-7.37-31.54-10.9-73-9.75-114.18.91-32.67,2.11-44.24,6.81-66.09,1.38-6.41,2.25-11.8,1.94-12s-14.74.49-32.07,1.46c-48.17,2.73-101.5,4.47-174.68,5.72-99.44,1.7-252.52-.53-370.09-5.38-19.81-.82-36.39-1.26-36.85-1S42.6,26,44,32.94c4.39,21.27,5.71,33.31,6.74,61.33C52,129.16,48,180.4,42,204.91a61.2,61.2,0,0,0-1.49,9l-.2,3.65L52.51,217Z"/><path id="path7428" class="cls-4" d="M43.42,205.83c2.35-9.39,6-36.06,7.92-57.28,3.24-36.61,0-95.1-6.63-120.91-.93-3.62-1.44-6.73-1.14-6.91s14.73.25,32,1c190.56,7.91,388.93,8,537.48.29,21.86-1.13,40.1-1.85,40.52-1.6s.1,3-.74,6.05c-5.48,20.25-7,38.37-7,83.77,0,47.59,1.47,64.82,8.36,97.43,1.55,7.34,2.64,13.34,2.42,13.34s-16.93-1-37.13-2.32c-42.26-2.66-90.12-4.72-148.56-6.37-52.94-1.5-249.38-1.5-307.16,0-54.34,1.4-101,2.87-113,3.55l-9.06.51.2-2.65a60.45,60.45,0,0,1,1.5-7.86Z"/></svg>