<svg id="svg6602" xmlns="http://www.w3.org/2000/svg" viewBox="0 0 687.96 247.94"><defs><style>.cls-1{fill:#1a1a1a;}.cls-2{fill:none;stroke:#000;stroke-width:1.2px;}.cls-3{fill:#d400aa;}.cls-4{fill:#fff;}</style></defs><title>dialogue box-0</title><path id="path7446" class="cls-1" d="M678.51,24.26l-2.15-9.18c-3.39.27-6.88.49-10.33.76.82-1.91,1.65-3.71,2.53-5.35L653.65,7.64a85.23,85.23,0,0,0-4.28,9.42c-183.67,12.6-435.53,9.18-620,.75A86.09,86.09,0,0,0,24.75,7.64L9.94,10.49c1.06,2,2.05,4.21,3,6.57l-9.84-.47-1.37,9.3,14.62.69c7.05,23,10.76,57.15,10.53,92.9S22.66,192.79,15,223.13c-5,.21-10.13.37-15,.58L1.17,233l11.21-.47C11,237.25,9.56,241.74,8,246l15.21,2c1.87-5,3.56-10.41,5.16-16,186-7.26,439.74-9,623.15,5.12,1.16,3.77,2.41,7.43,3.7,10.92l15.3-2c-.9-2.44-1.78-5-2.63-7.61,2.13.18,4.32.34,6.43.53l2.34-9.18c-3.81-.34-7.71-.67-11.59-1-8.61-31.24-13.21-71.25-13.45-109.23-.24-36.29,3.66-70.9,10.91-93.94,5.39-.4,10.72-.85,16-1.28ZM344.43,217.2c49.07.12,95.24,2.26,117.66,2.87C818.19,236.78,516,218.43,344.43,217.2ZM67.06,29.21C182.22,95.6,231.75,70.86,67.06,29.21ZM296.77,217.09c-93.68.24-185.85,2.32-265.87,5.4,7.39-30.06,11.24-66.21,11.6-101-.14,35.62-7.58,55.56-12.59,80.73-1.54,7.75-.39,16.23-.51,17.67l-1.59,4.33L43,224.4c11.16-.63,55.7-2,114.05-3.49,27.31-.7,82.2-3.77,139.72-3.82Z"/><path id="path7448" class="cls-2" d="M688,18.65l-2.15-9.18c-3.39.27-6.88.49-10.33.75.82-1.9,1.65-3.71,2.53-5.34L663.1,2a86,86,0,0,0-4.29,9.41c-183.66,12.61-435.52,9.19-620,.76A84.5,84.5,0,0,0,34.2,2L19.39,4.88a71,71,0,0,1,3,6.56c-3.24-.15-6.65-.3-9.84-.46L11.2,20.27c4.75.24,9.77.47,14.62.7,7,23,10.76,57.15,10.53,92.9s-4.24,73.3-11.89,103.65c-5,.2-10.13.37-15,.58l1.17,9.29,11.21-.46c-1.38,4.71-2.82,9.19-4.39,13.42l15.21,2c1.87-5,3.56-10.41,5.16-16,186-7.26,439.74-9,623.15,5.11,1.16,3.78,2.41,7.44,3.7,10.92l15.3-2c-.9-2.44-1.78-5-2.63-7.61l6.43.52,2.34-9.18c-3.81-.33-7.71-.67-11.59-1-8.61-31.24-13.21-71.25-13.45-109.22C660.82,77.58,664.72,43,672,19.92c5.39-.39,10.72-.85,16-1.27ZM658.23,221.81C474.42,208,225.07,209.76,40.35,216.87c7.53-30.64,11.37-67.63,11.6-103,.23-35-3-68.13-10-92.21,183.14,8.25,430,11.63,613.7-.63-7.17,24.12-10.36,57.53-10.14,92.84.24,37.28,4.44,76.39,12.77,107.94Z"/><path id="path7450" class="cls-3" d="M17.84,218.36l7.48-.29,1.89-8.45c12.3-55,13-134.4,1.6-180.76l-2-8-7.06-.47c-4.32-.29-7-.93-6.91-1.65s.26-2.44.39-4c.21-2.47.81-2.81,5-2.81,3.23,0,4.73-.47,4.73-1.47a1,1,0,0,0-1.44-.93c-.84.31-1-.52-.32-2C22,5.81,24,4.73,28,3.9l5.66-1.17,2,4.38c1.08,2.41,2.4,4.67,2.92,5,2.36,1.63,131.69,5.86,223.84,7.32,107.37,1.7,204.33.92,295.35-2.37,48.15-1.74,100-4.68,101.5-5.75a17.19,17.19,0,0,0,3-4.73l1.88-3.93,5.73,1.18c3.35.69,6.28,2.06,7,3.28s.73,1.89-.25,1.52-1.55.09-1.55.9c0,1.08,1.35,1.4,5.12,1.23,4.87-.23,5.15-.06,5.9,3.51l.79,3.76L679,19l-7.85.94-2,8c-7.31,29.39-10.52,89-6.82,126.77,2.8,28.55,9.43,66.14,12.12,68.74.42.41,2.86.74,5.4.74,4.07,0,4.64.34,4.64,2.74,0,4-1.5,5.71-4.92,5.71-2.61,0-2.87.48-2,3.71.94,3.51.75,3.75-3.53,4.31-2.48.32-5.4.75-6.49,1s-2-.07-2-.6-.54-.77-1.19-.54-1.27-1.46-1.38-3.77-.82-4.55-1.57-5c-3.39-1.92-109.67-7.31-188.82-9.58-62.11-1.78-254.87-1.48-329.21.51C82,224.27,38.6,225.81,37.66,226.37c-.3.17-1.7,3.77-3.12,8-2.09,6.21-3.07,7.6-5.11,7.24-1.39-.25-4.38-.71-6.64-1-3.95-.56-4.05-.74-2.77-5,.73-2.42,1.7-5.35,2.16-6.51.75-1.87.24-2.11-4.5-2.11s-5.46-.34-6.33-2.93c-1.73-5.15-1.45-5.4,6.49-5.7Zm34.65-1.13c64.63-3,160.67-4.66,266.6-4.66,131.68,0,208,1.91,299,7.5,21.92,1.34,40.17,2.25,40.56,2s-.36-5-1.66-10.5c-7.37-31.28-10.91-72.36-9.75-113.24.91-32.41,2.1-43.89,6.81-65.55,1.38-6.36,2.25-11.7,1.94-11.87s-14.74.48-32.07,1.45c-48.17,2.7-101.5,4.43-174.68,5.67-99.44,1.68-252.53-.52-370.1-5.34-19.8-.81-36.38-1.25-36.84-1s.32,6.11,1.75,13c4.38,21.1,5.7,33,6.73,60.83C52,130.14,48,181,42,205.26a60.29,60.29,0,0,0-1.5,8.91l-.19,3.62,12.21-.56Z"/><path id="path7452" class="cls-4" d="M43.41,206.18c2.35-9.32,6-35.77,7.92-56.81,3.24-36.31,0-94.33-6.62-119.92-.94-3.59-1.45-6.67-1.14-6.86s14.72.25,32,1c190.56,7.84,388.94,8,537.48.29,21.87-1.13,40.1-1.85,40.53-1.59s.09,2.95-.74,6c-5.48,20.08-7,38.06-7,83.08,0,47.2,1.47,64.29,8.36,96.63,1.55,7.28,2.64,13.23,2.42,13.23s-16.93-1-37.13-2.3c-42.27-2.64-90.12-4.68-148.57-6.32-52.93-1.48-249.37-1.49-307.16,0-54.34,1.4-101,2.85-113,3.52l-9.06.51.2-2.63a61.25,61.25,0,0,1,1.5-7.79Z"/></svg>