<svg id="Layer_1" data-name="Layer 1" xmlns="http://www.w3.org/2000/svg" viewBox="0 0 1643.7 487.5"><title>dialogue box 8</title><path d="M92.38,486.91c-1-.28-3.89-2.48-6.42-4.89a79.41,79.41,0,0,0-9.78-7.67c-25.39-16.25-20.57-63.91,8.27-81.73l4-2.47,412.54-.5c226.9-.27,417.08-.7,422.6-.95,17.51-.8,116.42-1.62,249.29-2.07,82.27-.28,129.18-.77,130.28-1.37,1.58-.85,11-.61,23.33.62,23.94,2.37,35.77,38.15,19.36,58.51-9.51,11.79-20.54,15.24-47.43,14.8-19.67-.32-19.46-.42-13.13,6.41,16.74,18,62.18,13.51,79.3-7.92s16.94-19.27,14.85-206.43C1377.06,36.5,1377,41,1380,34.75c6-12.61,27.15-31,35.63-31,.91,0,1.66-.47,1.66-1,0-.74-4.68-.89-16.17-.49-45.2,1.56-190.65,3-417.94,4-71.54.33-132,.7-134.4.83s-60.26.56-128.64,1-129.84.8-136.57.86-87.25.45-179,.85c-179.76.79-171.47.51-180.74,6.08-15.53,9.32-26.81,37-29,71.38-.42,6.44-1.51,18.89-2.43,27.66-1.19,11.42-1.45,52.2-.92,143.91.4,70.38.22,126.28-.41,124.22s-1.2-57.27-1.27-122.67c-.08-73-.66-119.56-1.5-120.58s-1.1-1.84-.78-2,1-8.6,1.48-18.64,1.6-23.54,2.45-30,1.62-13.2,1.7-15l.14-3.28L184,70.48c-25.82-.87-30.84,1.29-33.39,14.37-1.78,9.12-3.28,10.58-4.42,4.3-1.09-6-7.91-15.26-12.14-16.47-1.78-.51-3.23-1.25-3.23-1.64,0-7.19-7.18,1.79-7.94,9.93-.4,4.28-1.18,5.81-3.51,6.87-1.65.75-2.82,2.08-2.61,2.94s-.72,1.68-2.63,1.85c-2.11.2-3.53,1.38-4.68,3.88-3.29,7.18-11.39,8.21-16.21,2.07A27.15,27.15,0,0,0,87,93.22c-2.13-1.29-3.54-2.94-3.11-3.66A1,1,0,0,0,83.25,88c-.76-.16-1.61-4.61-1.88-9.89C80.85,67.85,79.53,65.63,74,65.63c-3.34,0-5,1.59-5,4.73,0,5-10.36,3.49-10.64-1.53-.08-1.56-.91-2.69-1.94-2.64l-3.95.24c-1.5.1-2.16,1.22-2.16,3.68a7.62,7.62,0,0,1-8,7.71c-2.94,0-3.51-.46-3.51-2.81,0-3.11-4.34-6.56-8.26-6.57A27.27,27.27,0,0,1,23.76,67a22.13,22.13,0,0,0-9.49-.87C4.52,67.19-3.95,59.77,1.79,55.17c2.9-2.32,11-4.07,12.94-2.8,2.31,1.51,5.38,1.34,5.38-.3s3.78-3.06,12-4.62c7-1.33,8.55-3.85,3.71-6.23l-3.26-1.61,3.14-1.09A10,10,0,0,1,48.5,44.21c2.51,5.8,9,7.48,9,2.33,0-2.39,2.48-4.35,5.52-4.35,3.28,0,5.88,3,5.93,6.8,0,2.72.61,3.51,2.56,3.49C78.16,52.4,82,47.24,82.19,37.94c.12-4.89.94-7.35,3.24-9.81a67.55,67.55,0,0,0,5.74-7.25c4.42-6.58,16.63-6.68,16.63-.13,0,2.23.6,2.69,3.51,2.69a9.29,9.29,0,0,1,5.39,1.71,12.1,12.1,0,0,0,4.39,2.31,3.15,3.15,0,0,1,2.52,3c0,2.46-2.15,3.25-3.28,1.2a1.18,1.18,0,0,0-1.62-.58c-.54.32,0,1.25,1.25,2s2.65,3.38,3.14,5.73c1.1,5.21,3.89,7.16,6.21,4.34a5.38,5.38,0,0,1,3.33-2c2.19,0,5.65-3.2,8.18-7.47,3.73-6.32,6.68-5.83,9.92,1.64,1.35,3.1,2.42,4,4.82,4a15.17,15.17,0,0,1,6.52,2.11c4.84,3,38.59,3.3,38.21.38s13.2-20.56,19.4-25.11c11.85-8.69-1.42-8,163.37-8.67C462.91,7.76,546.35,7.28,568.49,7s102.65-.7,178.92-1,139-.67,139.43-.82c.72-.26,48.47-.58,301.92-2,53.36-.3,119.67-.93,147.34-1.39,130.12-2.18,123.79-3.28,134.59,23.51,4,10,5,10.81,10,7.89a11,11,0,0,1,4.64-1.33c2.78,0,5.42-3.1,9-10.56,2.92-6.08,3.81-6,6.27.72,2.16,5.86,5.12,8.9,8.65,8.9a3.57,3.57,0,0,1,3.67,2.82c1.95,5.77,4.94,2.16,8-9.67,1.79-6.9,6.63-11.9,11.52-11.9,1.76,0,2.75-.65,2.75-1.8,0-2.31,6.54-5.7,11-5.7,3.74,0,5.49,1.94,6.9,7.63.55,2.23,1.77,3.57,3.49,3.87,2.05.35,3,1.94,4.15,7.12,2.73,12,13.93,20.2,16.13,11.85,1.28-4.84,11.51-4,11.51.9a3.65,3.65,0,0,0,1,2.7c1.49,1,6.22-2.27,6.22-4.27s6.73-8.23,8.83-8.23c.71,0,.9,1,.42,2.27-1.51,3.91.62,6.06,8.06,8.14,3.87,1.09,7.79,2.57,8.7,3.28s4.4,1.31,8.45,1.31c7.33,0,10.19,1.3,12.84,5.85,1.72,3,.74,5.4-2.17,5.4-1.1,0-2,.39-2,.87,0,1.61-5.68,2.08-10.73.89-4.3-1-5.35-1-7.64.39a24.38,24.38,0,0,1-7.6,2.19c-8.62,1.06-10.88,4.4-6.86,10.15,2.29,3.28.5,4-4.16,1.77-2.56-1.24-4.71-3.71-6.31-7.23-3.87-8.5-8.45-10.9-8.45-4.42,0,2-.77,3.84-1.74,4.05-3,.65-8.53-.41-9.16-1.76-2.16-4.6-1.9-4.5-5.55-2.27-3.89,2.39-4.7,4-6.49,13.39-1.18,6.09-1.76,6.93-7,10-3.5,2.08-6.38,4.91-7.55,7.4-3.42,7.32-11.2,6.76-13.8-1-.48-1.42-1.66-2.58-2.63-2.58-5.61,0-10.37-5.3-11.4-12.69-1.3-9.37-5.12-13.65-8.76-9.81a6.19,6.19,0,0,1-3.65.94c-3,0-3.1.1-7,12.61-3,9.57-5.28,11.16-6.66,4.55-1.94-9.32-4.09-12.92-7.93-13.24a11.35,11.35,0,0,1-5.33-1.81c-2.68-2.26-3.06-1.43-4,8.71-2.21,23.69-10.86,41.34-25.71,52.44l-6.24,4.67-29.28.35c-16.11.19-29.5.48-29.76.64-.53.33-.09,196.22.45,203,1.57,19.5.76,72.25-1.29,84.37-9.18,54.13-22.45,63.46-89.24,62.72-61.83-.69-245.4.12-352.9,1.56-16.21.22-201.53.64-411.82.93-246.06.35-389.53.89-402.48,1.53-31.27,1.53-35.81,1.67-37.75,1.11ZM461,483.83c188.31-.46,411.14-1.4,495.19-2.07s196-1.24,248.76-1.26c95.71,0,101.49-.18,89.71-2.34-9.16-1.67-194.8-1.44-348.09.43-56.08.69-260.15,1.41-551,2-178.52.33-267.67.82-270.24,1.47-2.12.53-10.26.82-18.09.65-10-.22-14.42,0-14.82.78-.8,1.54,4.37,2.06,16.13,1.62,5.53-.2,164.13-.76,352.45-1.23Zm-16.31-7.12c279.22-.33,465.69-1,540.7-1.87,68.2-.81,240.5-1.88,269.89-1.68,27.6.19,30.72-.11,26.25-2.53-2-1.1-163.34-1.52-194.79-.51-5.93.19-64.47.64-130.09,1s-130,.79-143,.95-157.94.54-322,.83C196.59,473.42,85,474,83.48,475c-4.14,2.7,5.73,3.34,42.12,2.72,20.44-.35,164-.79,319.12-1Zm-138.49-6.56c424.54-1,558.69-1.43,606.59-1.87,28.06-.25,86.93-.68,130.8-1l155.25-1c41.5-.27,76-.47,76.61-.45s.59-.62-.1-1.42c-1.17-1.37-154.46-2-204.45-.9-6.72.15-71.4.54-143.74.87-129.78.59-225.44,1.26-274.55,1.92-13.83.19-148.88.47-300.1.63-246,.25-274.92.43-274.53,1.72.52,1.79,17.08,2.79,37,2.24,7.51-.21,93.54-.57,191.18-.81Zm417.57-5.59c68.78-.28,147.05-.72,173.93-1s118.09-.68,202.68-1c150.94-.5,171.77-.78,171.77-2.28a24.16,24.16,0,0,0-2.4-4.84c-10-17,.71-53.13,18.66-63.22l6-3.39-15.45.32c-8.5.17-15.45-.07-15.45-.52,0-.9-225.65,0-311.93,1.27-28.07.41-74,.84-102.06,1s-53.94.33-57.49.46-163.17.32-354.69.42c-295.77.17-348.22.39-348.22,1.5,0,.71-3.05,4.57-6.77,8.57C64.87,420.7,61.65,438,71.67,459.37l2.41,5.16,27.3.53c30.83.6,432.49.28,622.4-.5ZM1289.05,454a17.73,17.73,0,0,0-5,0c-1.38.23-.25.43,2.52.43s3.9-.2,2.52-.43Zm30.88-.82c15.41-3.43,26.84-17.19,27-32.46,0-4.32-.53-4.53-10.14-3.88l-7.81.53-.26,7.15a51.93,51.93,0,0,1-2.27,12.78l-2,5.63-16.06.26c-17.65.29-17.77.35-12.4,5.89s11.92,6.78,24,4.1Zm-34.1-3.22c-.49-.52-2.43-.94-4.31-.94s-3.83.42-4.32.94,1.22.94,4.32.94S1286.36,450.56,1285.83,450Zm.56-4.33c1.42-.79-4.56-1.43-8-.86-3,.49-3.41.82-1.8,1.46,1.79.72,8.17.33,9.84-.6Zm-2-4.11c.53-.56-1.18-.94-4.23-.94-2.81,0-5.11.43-5.11.94s1.9.94,4.23.94S1283.9,442.08,1284.39,441.56Zm32.71-2.34c-.46-1.23-27.68-1.79-27.68-.57s5.85,1.75,18,1.62c5.9-.07,9.92-.5,9.71-1Zm-34.75-1.64c.06-.13.44-3.17.84-6.75.89-7.87,5-15.37,10.43-19.19,2.23-1.55,3.7-3.05,3.28-3.33-1.38-.9-14.47-.53-15.38.44-.53.55,1,.94,3.75.94,5.45,0,5.08.62-.79,1.31s-7.47,2.75-2.56,3.5l3.91.59-3.8.11c-4,.12-6,2-4.63,4.33.46.77.11,1.41-.76,1.41-3.52,0-1.31,1.88,2.36,2l4,.14-4,.39c-4.75.47-5.32,3-.72,3.21l3.24.13-3.24.4c-4,.51-4.3,3.09-.36,3.09,1.58,0,2.88.42,2.88.94s-1.3.94-2.88.94-2.87.42-2.87.93,1.62.94,3.59.94,3.6.42,3.6.94-1.58.94-3.51.94-3.91.42-4.4.93.94.94,3.51.94a23.11,23.11,0,0,0,4.51-.23Zm36.21-2.52c1-2.45-1.29-2.87-15.6-2.87-16.45,0-15.47,1.72,1.2,2.11l13.29.31-14.1.19c-18.27.26-17.32,2.07,1.08,2.07,12,0,13.48-.18,14.13-1.81Zm.93-4.2c-1.25-.81-16.72-1.15-23.6-.52-5.69.52-3.93.68,8.51.78,8.63.07,15.42-.05,15.09-.26Zm-5.94-3.11c-3.73-.19-10.2-.2-14.38,0s-1.12.35,6.78.35,11.33-.15,7.6-.34Zm5.94-2.72c.33-.19-6-.34-14.1-.34-9.72,0-14.39.32-13.78,1,.83.88,26.24.31,27.88-.62Zm-3.12-2.89a47.36,47.36,0,0,0-7.9,0c-2.18.21-.4.39,4,.39s6.13-.18,3.95-.39ZM1345,415c2.61-1.7-1.89-4.39-7.18-4.3-12.12.23-15.36,1.53-4.51,1.81,5.54.14,7.8.41,5,.6-8.25.55-11.5,1.21-11.5,2.32,0,.92,16.69.53,18.15-.43Zm-.9-6.28c0-.55-4.77-.94-11.42-.94-6.28,0-11.81.42-12.3.94s3.58.94,11.41.94C1339,409.69,1344.05,409.3,1344.05,408.75Zm-1.85-2.46c-.5-.32-7.88-.52-16.42-.45-10,.08-14.79-.19-13.47-.75,1.12-.48,5.32-.7,9.34-.48a92.49,92.49,0,0,0,13.77-.45c5.51-.71,4.19-.85-8.91-.93-12-.08-15.64.19-16.54,1.24-.68.8-4.07,1.49-8.33,1.7-4,.2,3.76.44,17.13.53s23.92-.09,23.43-.41Zm-5.31-5c0-1.07-2.05-1.07-7.19,0-3.2.67-3,.76,1.8.85C1334.46,402.16,1336.89,401.78,1336.89,401.26Zm101.15-276c16.26-4.43,30-26.56,33.42-53.78l1-7.74h-20.24l-1,7.74C1448.1,97,1436.94,113,1420.9,114.93c-6.57.8-6,4,1.55,8.6,5.46,3.35,8.47,3.69,15.59,1.75Zm-43.65-9c1.6-.67.74-.91-3.32-.92-3.29,0-5.12.36-4.59.92C1387.6,117.45,1391.57,117.45,1394.39,116.26Zm7.9-4.69c.56-.58-2.62-.93-8.54-.93-5.33,0-9.43.4-9.43.93s3.81.94,8.54.94S1401.8,112.09,1402.29,111.57Zm-1.87-3.75c1.52,0,2.36-.42,1.87-.93-1.08-1.15-17.49-1.26-18.56-.13-1.49,1.56,1.38,2.17,7.62,1.62,3.47-.3,7.55-.56,9.07-.56Zm1.15-4.68c0-.54-4.31-.94-10.06-.94s-10.06.4-10.06.94,4.31.93,10.06.93S1401.57,103.67,1401.57,103.14Zm-.72-4.22c0-1.1-11.18-1.78-16-1-7,1.15-3.23,2.47,6.35,2.19,5.34-.15,9.7-.7,9.7-1.21Zm-.73-3.19c0-.83-14.41-1.81-17.27-1.18-4.36,1-.19,2,7.93,2,5.13,0,9.34-.38,9.34-.85Zm38.1-2.9c.54-.57-1.69-.94-5.75-.94s-6.29.37-5.75.94,3.08.94,5.75.94S1437.73,93.34,1438.22,92.83Zm-1331.79-1c0-.54-.94-.85-2.08-.7a6.58,6.58,0,0,1-4.27-1.6c-2.18-1.87-2.19-1.87-2.23.08a3.3,3.3,0,0,0,.91,2.57c1.54,1,7.67.72,7.67-.35Zm1293.69-4.41c0-22.33,11.45-56.49,18.91-56.49a1.11,1.11,0,0,0,1.21-1c0-.62-4.81-.87-13.3-.7-13.76.28-21.06,3.08-8,3.08,2.9,0,5.76.32,6.35.7s-2.28.71-6.38.71c-8,0-8.56.38-11.13,7.07-.86,2.23-.64,2.3,6.7,2.3,9.15,0,8.74.84-.64,1.3-10.8.53-11.62,4.33-.93,4.33,3.19,0,5.8.38,5.8.85s-3,.79-6.78.71c-5.42-.13-6.88.17-7.29,1.48s.48,1.65,4.26,1.66a23.74,23.74,0,0,1,6.93.92c1.56.66.27.92-4.67.93-5.86,0-6.83.28-6.83,1.88s1,1.88,6.47,1.88c3.7,0,6.47.44,6.47,1s-2.27.93-5.39.8c-12-.47-13,2.1-1.44,3.55l7.55,1-7.55.12c-8.25.13-11.51,2.86-3.59,3,11.09.2,13.61,1.8,2.83,1.8h-8.06l.34,3.52.34,3.51,7.48.28c9.77.37,9.72,1.69-.06,1.64-5.78,0-7.54.29-7.54,1.36s1.77,1.43,6.83,1.49c9.88.13,10.3,1.32.47,1.32-6,0-8.1.33-7.66,1.18s3,1.06,8.2.84,7.3,0,6.62.7-4.17,1-8.08,1-7.1.43-7.1.94c0,1.12,1.4,1.25,10.42,1,4.17-.12,6.83.2,6.83.82s-3.35,1-8.63,1c-4.79,0-8.62.42-8.62.94s4.07.94,9.34.94h9.34V87.44Zm-13.65-13.36c-2.23-.63-1.53-.82,3.15-.87,3.32,0,6.43.35,6.91.87C1397.61,75.22,1390.54,75.22,1386.47,74.08Zm9.35-35.63c-4.89-.67-4.83-.69,1.88-.81,4.28-.08,6.57.23,6,.81a2.58,2.58,0,0,1-1.88.82Zm44.56,50.63c0-.52-2.88-.94-6.39-.94s-6.78.42-7.27.94,1.9.94,6.38.94C1437.1,90,1440.38,89.59,1440.38,89.08Zm.65-2.75c1.29-1.36-.72-1.61-9.64-1.2-4.55.2-7.91.76-7.46,1.22,1.06,1.12,16,1.11,17.1,0ZM103.21,85.25c-1.38-.52-2.51-1.77-2.51-2.78,0-1.93-2.11-2.46-3.58-.91s2.1,4.71,5.42,4.68c2.86,0,2.93-.13.67-1Zm1443.62-1.84c0-.54-.94-.85-2.08-.7a6.54,6.54,0,0,1-4.26-1.6c-2.19-1.87-2.2-1.87-2.24.08a3.34,3.34,0,0,0,.91,2.58C1540.7,84.77,1546.83,84.49,1546.83,83.41Zm-105-.89c0-.52-3.51-.94-7.82-.94s-8.22.42-8.71.94,2.39.93,7.83.93C1438,83.45,1441.81,83,1441.81,82.52Zm1.44-3.81c0-1-7.1-1.13-15.09-.17-5.57.67-5.45.71,3.59,1.17,10,.51,11.5.38,11.5-1ZM107.59,77.64c2.38-1.55,2.16-4-.47-5.46-3.33-1.8-9.3.26-9.3,3.21,0,3.16,6.19,4.59,9.77,2.25ZM103,76.35c-1.36-2.31-1-3.21,1.13-3.21s4.19,2.53,3,3.84a2.48,2.48,0,0,1-4.08-.63Zm1440.46.47A3.61,3.61,0,0,1,1541,74c0-1.93-2.1-2.46-3.58-.91s2.1,4.71,5.43,4.68c2.85,0,2.92-.13.66-1ZM1443.26,76c0-.53-4.31-.93-10.06-.93s-10.06.4-10.06.93,4.32.94,10.06.94,10.07-.4,10.07-.94Zm0-2.81c0-.55-4.3-.88-10.42-.81-8.36.1-9.43.26-5.39.81,7.65,1,15.81,1,15.81,0ZM107.16,68.28c4.17-2.36,4.44-3.46,1.43-6-2.07-1.72-2.14-1.68-1.28.77a3.6,3.6,0,0,1-.87,4c-2.28,1.79-4.3,1.78-4.3,0a1.43,1.43,0,0,1,1.45-1.41c.86,0,.72-.76-.35-1.87-2.39-2.51-3.73-2.37-4.84.5-1.74,4.53,3.57,7,8.76,4Zm1336.1,1.11c0-.54-4.52-.94-10.69-.94-5.89,0-11.1.43-11.59.94s3.34.94,10.7.94C1438.44,70.33,1443.26,69.94,1443.26,69.39Zm104.65-.19c2.37-1.55,2.16-4-.48-5.46-3.32-1.8-9.3.26-9.3,3.21,0,3.16,6.2,4.59,9.78,2.25Zm-4.59-1.29c-1.36-2.31-1-3.21,1.13-3.21s4.19,2.53,3,3.84a2.47,2.47,0,0,1-4.08-.63Zm-1349.18.54c0-.55-5.3-.93-13-.93-8.31,0-12.7.33-12.13.93s6.35.94,13,.94C189.13,69.39,194.14,69,194.14,68.45ZM1444,66.58c.57-.6-3.12-.94-10.06-.94s-10.62.34-10.06.94,5,.94,10.06.94S1443.51,67.09,1444,66.58ZM91.76,49.75c.36-11.14.16-12.4-1.91-11.88a21.53,21.53,0,0,1-2.92.58c-1,0-.69,21.26.29,22.94,2.54,4.3,4.16.14,4.54-11.64Zm95.91,11.06c-10.7-.94-16.53-.9-16.53.1s17.89,1.77,21.56,1c1.18-.25-1.08-.74-5-1.09Zm1274.77,1.12c10,0,14-.36,13.58-1.11-.6-1.18-62.23-1.22-65,0-2.39,1,7.35,1.59,22.93,1.39,7.9-.11,20.73-.21,28.51-.24ZM44.77,59.34c1.21-2.08,1-2.77-1-3.75-3.1-1.48-10.59-1.58-10.59-.15,0,.58,1.26.83,2.87.55,2.36-.4,2.88,0,2.88,2.08,0,4.48,3.55,5.25,5.87,1.27Zm77.33-.5c.74-1.67,1.4-2.34,1.47-1.48.42,5,7.21,1.14,7.28-4.14,0-3.72-4.78-5.26-6.63-2.11s-2.68,1-2.92-6.68c-.41-13.77-2.78-10.76-3,3.86-.23,13.42,1,16.89,3.84,10.55Zm1425.66,1c3.89-2.39,4.11-3.51,1.15-6-2.07-1.73-2.14-1.69-1.28.77a3.59,3.59,0,0,1-.87,4c-2.28,1.79-4.3,1.79-4.3,0a1.44,1.44,0,0,1,1.45-1.41c.86,0,.72-.76-.35-1.87-2.39-2.5-3.73-2.36-4.84.5-1.76,4.58,4,7.13,9,4Zm-1481.57-4c0-5-1.81-7.22-4.51-5.45C59.59,51.76,61.81,61,64.22,61c1.43,0,2-1.4,2-5.1ZM114.3,34.78c-1.7-7.63-3.5-2-3.52,11,0,8.69.52,12.84,1.77,13.72C114.62,60.93,116,42.2,114.3,34.78ZM84.59,52.42l-.43-6-2.53,3a11.57,11.57,0,0,1-7.19,3.8c-7.64,1.3-7,4,1,4,5.23,0,6.57.33,6.57,1.6,0,1.11.46,1.29,1.52.6.84-.54,1.32-3.64,1.07-7Zm23,3.38c.54-4.83-3.94-7.27-8.45-4.61-2.7,1.59-3.8,6.89-1.71,8.25,3.51,2.29,9.76.05,10.16-3.64Zm-7.42,2.53c-.39-.41-.18-1.3.46-2a3.08,3.08,0,0,0,.46-3c-.47-1.16,0-1.77,1.45-1.77,2.46,0,4.37,3.78,3,6-.92,1.56-4.21,2-5.42.73Zm41.34.22a2,2,0,0,1,2.31-.88c.95.38,1.45-3.83,1.45-12.13,0-7-.31-12.71-.69-12.71-1.76,0-6.5,7.77-6.5,10.65s-.39,3.17-2.94,2.73c-2.78-.47-2.93-.15-2.52,5.41.47,6.36,4,9.37,4.12,3.55.08-2.94.17-3,1.47-.88a4.84,4.84,0,0,1,.53,4c-1,2.1,1.55,2.35,2.77.27Zm-125.88-2A2.77,2.77,0,0,0,13,54.86a2.75,2.75,0,0,0-2.6,1.64c-.34,1.15.43,1.64,2.6,1.64S16,57.65,15.61,56.5Zm180.16.7c.77,0,1-.42.51-.93-1.13-1.2-25.15-1.24-25.15-.05,0,.85,17.18,1.86,21.32,1.26a29.28,29.28,0,0,1,3.32-.28ZM1489,46.5c-.6-9.25-3.38-9-4.64.34-1.11,8.29-.14,10.79,3.06,7.93C1488.74,53.56,1489.24,50.93,1489,46.5ZM57.57,54.39c0-.51-.6-.94-1.35-.94a3.58,3.58,0,0,0-2.24.94c-.49.52.12.94,1.35.94S57.57,54.91,57.57,54.39Zm1502.13-1c0-.49-.65-.88-1.44-.88a1.44,1.44,0,0,0-1.43,1.46.94.94,0,0,0,1.43.88C1559.05,54.54,1559.7,53.88,1559.7,53.4ZM198.44,52.14c0-2.17-.43-2.26-12.58-2.63-15.46-.48-20.37.89-15.21,4.26,3.14,2,27.79.6,27.79-1.63ZM1447,53.38c23.83-.12,33.24-.75,29.94-2-2.13-.79-63.87.34-63.87,1.17s5.69,1.67,7.33,1.19c.48-.13,12.45-.31,26.6-.38Zm84.7-15.64c.68-14.14-.41-16.53-5.9-13-2.13,1.39-3,22-1.15,26.54l.86,2.1,2.83-2.34c2.37-2,2.92-4.16,3.36-13.35Zm52.17,7.53c-.45-6.51-1.42-8.35-3.9-7.35-1.71.69-2.29,13.83-.65,14.9,2.75,1.79,4.94-1.85,4.55-7.56ZM158.42,50.41c.81-3-.7-8.29-2.38-8.26-2.5.05-2.75,10.37-.31,10.37a2.93,2.93,0,0,0,2.62-2.11ZM1482.64,47.2c.84-4.65-.49-8.21-2.55-6.81-.6.41-1.42,8.77-1.07,11,.5,3.17,2.77.56,3.62-4.14Zm148.93,4.38c0-.52-1-.94-2.24-.94s-1.84.42-1.35.94a3.54,3.54,0,0,0,2.24.93c.74,0,1.35-.42,1.35-.93ZM44.64,48.1c1.65-2.83.35-6.52-2.56-7.25-1.69-.42-2-.05-1.34,1.64a4.18,4.18,0,0,1-1.41,4.27c-1.24,1.15-1.89,2.7-1.45,3.44C39,52.1,43,50.85,44.64,48.1ZM1498.13,26.27,1497,21.11l-2.76,4.69c-4.38,7.44-4,19.24.68,22.5l3.59,2.5.4-9.69c.22-5.33-.12-12-.76-14.84Zm50.55,23.8a2.87,2.87,0,0,0,2.23-2.58c0-1.81-.18-1.85-1.51-.37a5.54,5.54,0,0,1-3.63,1.65c-1.19,0-1.75-.44-1.24-1,1-1.06-1.73-3.71-3.81-3.71-1.45,0-1.67,2.9-.39,5.08.9,1.53,4.37,1.91,8.35.91ZM105.91,46.26c.36-.71-.54-.91-2.57-.56-2.66.45-3,.24-2.14-1.48.72-1.48.38-2-1.27-2-2.3,0-3.22,3.75-1.23,5,1.5,1,6.57.29,7.21-1Zm93.1.63c-.49-.52-6.93-.94-14.37-.94s-13.89.42-14.38.94,4.57.94,14.38.94S199.58,47.49,199,46.89Zm1277.16-.47c0-1.18-3.53-1.44-21.92-1.61l-21.92-.21,21.92-.29c12.77-.16,22-.66,22.14-1.19.74-3.15.31-3.27-13.87-3.78l-14.38-.52,14.82-.19c27.33-.33,15-2.05-14.74-2.05h-27.79l-.87,2.25a31.27,31.27,0,0,1-1.75,3.75c-.69,1.17.17,1.53,4,1.64,4.8.14,4.8.14.51.51-6.34.54-8.2,1.1-7.19,2.15,1.6,1.7,61.1,1.25,61.1-.46Zm-37-7.68a18.42,18.42,0,0,1,5,0c1.38.24.25.43-2.52.43s-3.89-.19-2.51-.43Zm156.93,7.83c-.41-.69.26-1.8,1.48-2.46,5.42-2.93,2.49-4.5-4-2.14-2.5.9-4.67,1.66-4.84,1.68-2.27.31,2.12,4.18,4.74,4.18,2.23,0,3.13-.43,2.64-1.26Zm7.15-3.29c-1-.9-3.44,1.16-3.43,3,0,2,.1,2,1.92-.29C1602.77,44.66,1603.45,43.46,1603.24,43.28ZM1636.83,46c-.66-2.24-6.85-2.39-6.85-.16,0,1.38.91,1.81,3.63,1.7,2.38-.08,3.49-.61,3.22-1.54Zm-115.5-2.58c-1.2-4.33-1.15-4.29-4.8-3.53-4.09.84-3.94,4.59.25,5.91,5.11,1.6,5.58,1.36,4.55-2.38ZM1619.92,46c0-.51-1.78-.91-4-.87-3.51.06-3.63.16-1.08.87C1618.81,47.05,1619.92,47.05,1619.92,46ZM107.11,41.52c-1.46-1-2.67.48-1.47,1.75.9.95,1.24.95,1.73,0a1.39,1.39,0,0,0-.26-1.75Zm1442.28,1.62c-2.81-1.18-5.75-1.18-5.75,0,0,.52,1.78.93,3.95.92C1550.67,44.05,1551.07,43.85,1549.39,43.14ZM107.67,35.57c0-2.1-6.54-4.51-8.5-3.14-3.12,2.18-3.24,5.09-.22,5.09,2.07,0,3-.61,3-2,0-1.63.38-1.79,2.08-.87,1.13.61,1.67,1.79,1.19,2.61-.58,1-.31,1.26.8.81a2.91,2.91,0,0,0,1.68-2.51Zm1436.77-.66c-.59-1,0-1.24,2.09-.88,1.59.28,2.89.12,2.89-.35s-.91-.85-2-.85c-4.28,0-6.58,1.22-6.58,3.49,0,2,.32,2.19,2.22,1.16,1.22-.66,1.86-1.82,1.42-2.57Zm-79.08-.23c.5-.53.48-2.21,0-3.75l-.94-2.79h-12.83c-7.59,0-12.82.38-12.82.94s1,.94,2.16.94,2.15.6,2.15,1.34c0,3.63,19.29,6.51,22.3,3.32Zm-16.92-4.39a31.8,31.8,0,0,1,6.47,0c1.78.23.33.41-3.23.41s-5-.18-3.24-.41Zm100.59-.9c.36-.71-.53-.92-2.51-.58s-3,.12-2.78-.78c.5-2.33,0-3.64-1.5-3.64-1.63,0-2,5-.42,6s6.57.29,7.21-1ZM100.5,27c0-1.95.18-2,2-.47,2.61,2.24,4.21,2.08,2.31-.23a4.9,4.9,0,0,0-2.65-1.88c-2.46,0-6.35,2.6-5.39,3.61,1.69,1.78,3.73,1.22,3.78-1Zm1361.86-1.88c-1.42-3.07-1.59-3.09-16.11-2.75-17.52.41-17,1.9.72,2.29l14,.31-16.17.19c-22.37.27-21.35,2.07,1.18,2.07,17.32,0,17.34,0,16.37-2.11Zm-40.89-1.64c0-.51-.94-.93-2.08-.93a4.78,4.78,0,0,0-3,.93c-.48.52.45.94,2.08.94S1421.47,24,1421.47,23.45Zm10.06,0c0-.51-1.62-.93-3.6-.93s-3.59.42-3.59.93,1.62.94,3.59.94S1431.53,24,1431.53,23.45ZM98.11,22.05c.45-.78,2.3-1.42,4.1-1.42,2.5,0,2.8-.22,1.24-.86-2.13-.88-8.74,1.28-8.74,2.85,0,1.37,2.51.94,3.4-.57Zm1362-2c1.45-.91-1.63-1-17.85-.58-10.14.28-16.06.76-14.37,1.18C1430.72,21.36,1459,20.84,1460.15,20.08Zm85.07-.38c3.08,0,3.73-1.44,1-2.1-3.1-.75-5.4.31-5.28,2.42.06,1.11.44,1.5.84.86s2-1.18,3.48-1.18Zm-87.83-2.9c0-1-25.58-.41-27.16.62-.34.22,5.63.41,13.27.41,9.16,0,13.89-.35,13.89-1Zm-2.86-2.72c0-1.07-5.81-1.07-12.22,0-3.55.59-2.85.73,4,.82,4.67.07,8.27-.29,8.27-.82Zm93.43-.54c0-1-1-1.37-3.12-1.17-4.6.44-5.21,2.65-.61,2.65,2.41,0,3.71-.52,3.71-1.48Zm-97.36-2.89a12.34,12.34,0,0,0-4.31,0c-1.4.23-.6.44,1.77.46S1451.57,10.91,1450.6,10.65Z"/></svg>