<svg id="svg5352" xmlns="http://www.w3.org/2000/svg" viewBox="0 0 387.93 136.08"><defs><style>.cls-1,.cls-2{fill:#fff;}.cls-2{stroke:#000;stroke-miterlimit:10;}</style></defs><title>dialogue box 6</title><path d="M380.89,105.37c-.06-3.33-.93-5.84-2.26-5.49-2.25.58-8.77,1.1-8.77.69,0-.23.92-3.15,2-6.5,3.65-10.87,4.39-14.36,4.89-23,.62-10.85-1-18.27-8.24-36.9-1.48-3.84-2.69-7.16-2.69-7.39s2.25-.32,5-.21c4.91.18,5,.15,5.25-2,.31-2.68-4.66-16.23-7.57-20.62-2-3.07-4.92-4.67-6.58-3.64-.43.27-52.38.66-115.44.88S127,1.73,121.06,1.92s-30.68.39-55,.44l-44.18.09L19.62,4.37c-2.59,2.17-5.37,10.12-5.25,15,.11,3.88,2.17,7,4.6,7,3.5,0,6.89,1,6.89,2s-2.32,3.2-9.84,9.06C8.67,43.19,2,54.27,0,64.12-3.82,82.84,4.2,102,19.76,111.18c3.33,2,6.07,3.81,6.08,4.07s-2,.91-4.38,1.46c-4,.9-4.4,1.16-4.4,3.2,0,4.73,4,12.56,7.57,14.92,2.18,1.43,23.38,1.58,102.83.74,97.1-1,117-1.21,172-1.6,32.34-.23,61.41-.63,64.59-.88,5.54-.43,5.92-.59,8.51-3.62,2.87-3.35,6.28-11.71,7.86-19.24A23.22,23.22,0,0,0,380.89,105.37Z"/><path class="cls-1" d="M377.05,106c0,7.79-8.75,26.44-11.22,23.86-.88-.92-1.91-11.46-1.12-11.46a7.25,7.25,0,0,1,2.51,1.75c1.62,1.52,2,1.6,2.95.6.59-.63,1.67-3.58,2.39-6.55a36.21,36.21,0,0,1,2.9-8l1.59-2.6V106Z"/><path class="cls-2" d="M373.05,66.61c0,8.32-1.52,16.38-5.23,27.49-5.14,15.43-7.36,25.4-6.71,30.06a36.61,36.61,0,0,0,1.16,5.64c.54,1.34-.74,1.42-23.32,1.38-13.14,0-35.23.15-49.09.37s-50.76.59-82,.82-83.35.65-115.8.92c-56.89.47-61.52.34-58.2-1.71,1.2-.75,1-8.09-.36-11-1.76-3.92-3.53-5.57-10-9.37A55.48,55.48,0,0,1,13.88,104C9.22,99.29,4.4,90.15,3,83.33a40.45,40.45,0,0,1,.47-19.89c2.6-9.92,7.77-17.6,17.4-25.87,5.77-5,7.48-7,9.7-11.5,2.65-5.4,3.95-12.8,2.41-13.75a3.18,3.18,0,0,1-.7-2.29A4.25,4.25,0,0,0,31,7.14c-1-.81-1-1.15-.2-1.66.57-.36,26.42-.67,57.44-.7s66.3-.23,78.4-.43c35.27-.59,193.68-1.22,194.41-.77.36.23.13,1.47-.52,2.77-2,4.07-.49,12.27,6,32.24C372.93,58,373.05,58.48,373.05,66.61Z"/><path class="cls-1" d="M373,22.79c0,.31-.17.33-.57.07-.95-.58-4.94-8.72-4.94-10.06s-1.54-1.72-3.19-.83-1.79.9-.65-3.39c.44-1.65,1.11-3,1.5-3,.88,0,3.68,5.42,5.55,10.76.78,2.22,1.7,4.73,2,5.57a3.21,3.21,0,0,1,.26.88Z"/><path class="cls-1" d="M373,103.73a5.09,5.09,0,0,1-1,2.07,17.09,17.09,0,0,0-1.67,5.44c-.73,5-1.49,6.15-3.13,4.79-1.47-1.22-1.47-1.31.17-7.85,1.16-4.66,1.4-5,3.51-5,1.45,0,2.12.06,2.15.55Z"/><path class="cls-1" d="M369,24.18a.25.25,0,0,1-.07.21,3.4,3.4,0,0,1-2-.13c-1.13-.29-1.89-1.31-2.23-3-.27-1.38-.67-3.11-.87-3.85a1.7,1.7,0,0,1,.42-1.82c.71-.44,4.81,7.08,4.78,8.56Z"/><path class="cls-1" d="M32.1,126.52a1.5,1.5,0,0,1-.51.84,3.84,3.84,0,0,0-.93,2.35c0,1.31-2.18,3.07-3.81,3.07-.4,0-1.89-1.62-3.31-3.61a19.13,19.13,0,0,1-3.05-6.6l-.47-3,1.7,1.51a8.62,8.62,0,0,1,2.21,4.2c.66,3.52,1.3,3.81,3.86,1.8C29.61,125.65,32.17,125.54,32.1,126.52Z"/><path class="cls-1" d="M31.22,15.27a.74.74,0,0,1-.15.56c-.26.26-1.5-.15-2.76-.9a10.17,10.17,0,0,0-4.18-1.35c-1.74,0-1.85.26-1.6,3.87.19,2.81-.1,4.24-1.06,5.2-1.89,1.89-2.54,1.67-3.53-1.19s-1-2.42.26-7.09C19.42,10,20.44,8,22.48,6.13c1.52-1.37,1.66-1.35,4,.61C28.54,8.48,31.2,13.45,31.22,15.27Z"/><path class="cls-1" d="M31.13,122c0,.93-.54,1.29-2.11,1.84-2.06.72-2.5.64-2.86-.52A18,18,0,0,0,25,120.59c-.57-1.06-.27-1.69,1.31-2.72,1.75-1.15,2.19-1.18,3.1-.22A8.41,8.41,0,0,1,31,120.9,5.18,5.18,0,0,1,31.13,122Z"/><path class="cls-1" d="M30.12,19.21a6.47,6.47,0,0,1-.45,1.86,12.86,12.86,0,0,1-1.43,3.17,2.75,2.75,0,0,1-2.18.4c-1.23-.2-1.44-.62-.95-1.86A13.34,13.34,0,0,0,25.8,19c.07-2.51.09-2.52,2.75-1.31C29.66,18.18,30.12,18.49,30.12,19.21Z"/></svg>