<svg id="svg10194" xmlns="http://www.w3.org/2000/svg" viewBox="0 0 3510.79 622.44"><title>dialogue box 5</title><g id="layer1"><path id="path10804" d="M-7.33,274.47c1.71-9.06,4-15.56,6.39-18.45a12.38,12.38,0,0,0,2.39-3.58c0-.41.79-1.37,1.75-2.14,7.14-5.68,11.43-6.81,15.75-4.15a32.71,32.71,0,0,0,4.63,2.42,6.17,6.17,0,0,1,2.73,3c1.22,2.68,4.87,3.29,5.77.95.3-.8-.39-4.18-1.54-7.5-2.16-6.26-2.78-14.49-1.16-15.49.51-.32,1.47-2.26,2.14-4.31a23.87,23.87,0,0,1,3-6.05c1.7-2.19,1.71-2.47.11-5.06A159.83,159.83,0,0,0,24.47,199c-5.11-6.77-14.16-22.7-14.16-24.89,0-.88.3-3.63.66-6.11.63-4.37,1-5.55,5.29-15,1.82-4.05,2.68-10.29,2.32-16.87-.08-1.48-2-4.09-5.13-6.91-5.27-4.78-6.27-8-3.61-11.47,1.92-2.52,3.57-2.18,7.57,1.58s7.4,4.91,21.54,7.22c5.5.9,12.79,2.26,16.21,3A58.75,58.75,0,0,0,63.31,131c1.07,0,4.35,1.12,7.29,2.49s6.57,2.5,8.07,2.5a4.06,4.06,0,0,1,3.87,2.26A26.9,26.9,0,0,0,86,143c4.63,5.07,9.73,15.07,9.69,19a9.7,9.7,0,0,0,1.23,4.5,42.77,42.77,0,0,1,2.87,8.36c.88,3.5,2.41,7,3.39,7.76,3.17,2.47,8.16,4.58,9.24,3.91.59-.36,1-4.08,1-8.46,0-10.75.76-13.67,4.61-17.75a21.11,21.11,0,0,0,3.92-5.42c.34-1,.94-1.9,1.35-1.9s3.87-2.59,7.69-5.77c8.49-7.07,10.32-7.9,19.36-8.79,5.37-.53,7.38-1.15,8.11-2.5a4.8,4.8,0,0,1,3.21-2.12c1.71-.24,2.73-1.63,4.25-5.82a50.82,50.82,0,0,1,4.75-9.48c1.51-2.19,2.75-4.52,2.75-5.17s1.12-2.52,2.49-4.15a24.31,24.31,0,0,0,3.25-4.84c.42-1,3-5.43,5.76-9.77,6.79-10.71,19.36-23.15,30.39-30.09l6.71-4.25A34.11,34.11,0,0,1,227.9,57a10.93,10.93,0,0,0,3.28-2A9.22,9.22,0,0,1,235,53c.72,0,2.43-1,3.79-2.3a45.8,45.8,0,0,1,8.3-5.22,54.84,54.84,0,0,0,10.57-7.34c6.66-6.18,6.57-9.17-.52-16.9C246.59,9.67,246.19,8.9,247,1.59c.61-5.77,1-6.57,3.33-7.49,2.11-.81,13.67-1.37,24.14-1.17,10.1.19,119.93,0,185.47-.39,58.61-.32,84.35-.13,85.25.61a1.82,1.82,0,0,0,2.53.08C548.76-7.61,609.65-8.11,694-8c128,.22,172.1.57,172.68,1.37.41.57,1.19.52,2-.12S887.26-7.86,921.45-8c28.33-.16,52.63-.18,54-.06,3.7.32,27.32.38,63,.14,3.58,0,20.9,0,38.5.07s32.9.09,34,.07c51.27-.78,108.5-.67,108.52.21,0,.7.27.73.75.08,1.18-1.61,228.23-1.37,228.23.24s1.93,1.62,2.58-.08c.42-1.1,7.46-1.28,38.72-1l39.7.32c16.92.11,97.63-1,98.54-1.32.7-.27,1.5.43,1.8,1.54s1,1.75,1.66,1.33a1.87,1.87,0,0,0,.56-2.21c-.45-1.17,0-1.38,1.76-.92,1.29.32,18.51.62,38.26.67s52.12.12,71.92.18,38,.07,40.5,0c7.91-.1,87.34-.23,121.47-.2,24.58,0,33.16.34,33.74,1.24s.76.93.78,0S1963.78-9,2047.7-9.08c59-.05,108.6-.11,110.25-.12,8-.06,77.16.06,78.25.14,2.68.18,7.25.19,52.25.13,25.58,0,56.74,0,69.25.17s22.75,0,22.75-.27,5.85-.55,13-.61c7.57-.07,13,.28,13,.83s1.27.66,2.81.32c3.24-.71-.12-.7,177-.38,109,.19,134.45.48,134.85,1.53.28.72.93,1,1.46.71a1.75,1.75,0,0,0,.41-2c-.34-.88-.13-1.19.53-.78s12,.67,25.24.68c16.68,0,24.41.36,25,1.13s1,.81,1.28,0,67.69-1,108.39-.24c.83,0,11.18,0,23-.09,36.53-.21,46.94.2,48,1.91.83,1.31,1,1.29,1-.12s3.52-1.62,36.76-1.6c25.61,0,37,.36,37.49,1.12s.74.75.75-.09c0-1.38,22.78-1.49,23.63-.12.28.45,1.29.4,2.25-.12s4-.78,6.69-.59,5.5-.13,6.19-.69c.86-.71,2.12-.7,4,0,3.1,1.18,12.69,1.55,32.25,1.26,25.64-.39,43.84-.45,84.5-.27,24.75.11,50.1.33,56.33.49s11.53,0,11.78-.46,1.68-.26,3.18.32,7.52,1,13.39.95c6.38-.07,10.94.3,11.32.92a1.31,1.31,0,0,0,1.8.31,17.2,17.2,0,0,1,5.18-1A35.6,35.6,0,0,0,3299.74-7a8.25,8.25,0,0,1,5.42.07,28,28,0,0,0,5.54,1.34c3.56.42,5.18,1.92,5.22,4.85,0,1.23.53,2.14,1.14,2,1.16-.21.59,3.81-1.53,10.8-1.26,4.18-4.38,7.38-6.42,6.6-.77-.29-2.64.1-4.14.88s-3.14,1.16-3.64.85-1.64,1.14-2.51,3.23c-1.43,3.44-1.44,4.42-.08,10,1.5,6.17,6.81,14.27,9.39,14.31.65,0,1.46.87,1.79,1.92s2.28,3.17,4.32,4.71a37.63,37.63,0,0,1,4.71,4.06,15.85,15.85,0,0,0,4.82,2.83,55.52,55.52,0,0,1,8.61,5,82.88,82.88,0,0,0,8.68,5.29c2.14,1.06,7.34,3.8,11.56,6.09s8.2,4.16,8.84,4.16,4.79,1.8,9.23,4,8.67,4,9.39,4c1.34,0,6.5,2.63,11.87,6,1.65,1,5.48,3.16,8.5,4.7,4.92,2.5,13.69,7.9,15,9.24.28.28,4,2.31,8.24,4.51s7.75,4.48,7.75,5.07,1.55,1.66,3.44,2.4,3.64,2.18,3.9,3.19a2.67,2.67,0,0,0,2.58,1.84,7,7,0,0,1,4.09,2,7.08,7.08,0,0,0,2.89,2c1.26,0,20.11,18.72,20.11,20a1.14,1.14,0,0,0,1.22,1c1.31,0,5.78,4.76,5.78,6.16a1,1,0,0,0,1,.84c1.38,0,6.92,6.2,7,7.78a2.37,2.37,0,0,0,1.53,1.86c.83.32,1.5.94,1.5,1.38,0,1.21,5.25,9,6.07,9s4,6.39,4.31,8.39a12.53,12.53,0,0,0,1.85,3.53c.93,1.33,1.46,2.79,1.17,3.25s-.09.83.43.83,1.93,2.59,3.13,5.75a62.63,62.63,0,0,0,3.16,7.25,39.38,39.38,0,0,1,2.14,4.25c.65,1.52,1.59,2.75,2.08,2.75s.41.6-.2,1.33c-.73.89-.8,2.38-.18,4.53.76,2.65,1.55,17.47,1,19.14-.08.28-.34,3.2-.56,6.5-.64,9.47-3.58,23.76-5.45,26.5a22,22,0,0,0-2.42,4.79c-2.23,7.21-14.25,23.21-17.43,23.21a3.55,3.55,0,0,0-2.63,2.18c-.54,1.2-3.94,3.79-7.55,5.75a49.11,49.11,0,0,0-8.72,5.8,12.15,12.15,0,0,1-4.94,2.88,12.39,12.39,0,0,0-4.47,2.13c-.92.8-2.16,1.16-2.75.8-1.61-1-1.27.39.69,2.81a7.82,7.82,0,0,0,4.23,2.5,13.31,13.31,0,0,1,5.32,2.75c1.57,1.32,3.38,2.42,4,2.44,1.92.06,6.12,4.15,9.48,9.23a69,69,0,0,0,8.79,11.25,86,86,0,0,1,6,7.72,25.8,25.8,0,0,0,3.65,4.6,1.9,1.9,0,0,1,.75,1.65,22.76,22.76,0,0,0,2.14,5.67c1.18,2.39,2.53,5.36,3,6.59s1.28,3.27,1.79,4.5A45.5,45.5,0,0,1,3506,391c2.45,24.75,2.45,32,0,32-1.91,0-1.88.49.2,3.67,1.62,2.47,1.61,2.67-.25,4.21-1.59,1.32-2,3.09-2.17,9.53-.17,5.94-1.14,10.75-3.89,19.25-2.11,6.53-4.2,11.34-4.93,11.34s-1.74,1.37-2.32,3a30.51,30.51,0,0,1-3.35,6.23,48.73,48.73,0,0,0-5.33,8.72,48.71,48.71,0,0,1-7.13,11.61c-1.83,2.25-3.33,4.49-3.33,5,0,.95-9.65,10.21-14.75,14.16-1.78,1.38-3.25,3-3.25,3.53,0,1.61-3.26,3.68-5.85,3.71-1.66,0-2.19.47-1.8,1.5a1.77,1.77,0,0,1-.4,2.07,16.44,16.44,0,0,0-2.92,4.41c-1.52,3-2.7,4-5.42,4.47-2,.37-3.61,1.33-3.79,2.21s-2.67,2.55-5.54,3.76a35.65,35.65,0,0,0-7.56,4.24c-2.9,2.52-26.14,14-30.22,15a13.9,13.9,0,0,0-4.13,1.57c-1.45,1.14-11.78,3.84-14.68,3.84a33.16,33.16,0,0,0-7.69,2c-6.54,2.39-6,2.35-6,.44,0-.85-.43-1.29-.95-1a1.62,1.62,0,0,0-.44,1.93c.37,1-.86,1.55-4.3,2.06-2.64.4-5.42,1.22-6.16,1.84-1,.85-1.67.7-2.63-.62-1.19-1.63-1.3-1.61-1.78.22-.34,1.29-2,2.33-4.87,3.09-8.2,2.14-17.36,5.14-21.61,7.07a22.33,22.33,0,0,1-6,2,7.47,7.47,0,0,0-3.6,1.43c-2.51,1.9-1.4,4.92,2.76,7.49,2.81,1.74,3.5,3,4.6,8.15s1.09,6.46-.22,8.75a23.91,23.91,0,0,0-2.17,5.37c-.52,2.2-1.58,3-5.6,4.18a78.81,78.81,0,0,1-12,2.17c-3.88.38-7.29,1.09-7.59,1.56-.77,1.26-5.33,1-9.68-.56-2.07-.74-4-1-4.24-.57s-18.14.85-39.74.94-40.38.2-41.76.25-6.65-.08-11.72-.29c-7.13-.3-9.32-.73-9.64-1.89s-.43-1.13-.52.19c-.11,1.53-1.56,1.67-14.62,1.39-10.17-.22-14.5,0-14.51.8s-.26.77-.75.08c-1-1.34-30.25-2-68.27-1.53-9.1.12-17.77-.1-19.27-.48a5,5,0,0,0-4.21.55c-1,.84-1.49.88-1.49.13s-3.88-.93-13.25-.52c-7.28.32-13.7.51-14.25.43s-8.2-.3-17-.46-17.24-.8-18.81-1.44c-3.43-1.39-4-1.43-3.22-.2.32.52-1.11,1.22-3.19,1.56s-4.56.76-5.53.95a2.37,2.37,0,0,1-2.28-.51c-.72-1.17-26.48-.94-28.78.25A2.7,2.7,0,0,1,2937,627c-1.55-1.29-19.71-2-24.33-1-1.86.41-3.51.31-3.85-.24a1.92,1.92,0,0,0-2.25-.29c-.9.37-5.25.64-9.65.61s-16.55-.07-27-.07-22.82-.06-27.5-.12c-13.64-.18-42.23-.19-45.5,0-1.65.09-8.17-.11-14.5-.44-10.73-.57-21.4-.63-48.5-.3-6,.08-18.42,0-27.5-.13s-16.72-.2-17-.13-2.85.34-5.72.59c-4.35.38-5.12.21-4.64-1,.32-.83.13-1.51-.42-1.51s-1.27.71-1.6,1.57-1.07,1.27-1.65.91c-.8-.49-55-.64-82-.22-1.92,0-22.4-.05-45.5-.16-44.3-.23-80.74-.27-104-.12l-16.5.09c-1.37,0-6.77-.24-12-.55-11.83-.69-10.23-.67-24.5-.27-6.6.19-12.53,0-13.18-.52a3.08,3.08,0,0,0-3,.12c-1.09.58-7,.78-14.32.48-15.34-.62-13.3-.59-26.47-.5-15.75.11-15.87.1-17.23-1-.88-.72-1.41-.59-1.81.44-.48,1.26-4.95,1.43-30.76,1.17-26.48-.27-36.47-.36-44.2-.39H2226.7c-6.95,0-11.25-.38-11.25-1,0-1.34-2.73-1.32-3.18,0s5.53,1.25-98.32,1.15c-48.4,0-89.12,0-90.5,0s-27-.26-57-.65-55.85-.58-57.5-.43-5.47.24-8.5.21-26.2-.1-51.5-.15-48.47-.14-51.5-.18-36.55-.28-74.5-.51c-90.6-.57-140.79-1.45-141.88-2.49-.49-.47-2-.15-3.24.7a5.91,5.91,0,0,1-5.12.78,36.55,36.55,0,0,0-8.26-.59c-3,.09-9.55.11-14.5.06-13.35-.16-59.44-.22-71.5-.1-5.77.05-17,.17-25,.26-20.93.22-21.85.22-51.5.11-14.85-.06-28.35-.07-30,0-8.54.23-24.16-.47-26-1.17a5.22,5.22,0,0,0-3.84.17c-.95.54-7.45.88-14.44.76-17.5-.29-19.29-.3-22.72-.14-5.12.25-179.94-.5-181-.77a3.53,3.53,0,0,0-1.5-.1c-1.42.43-169.81-.31-200-.88-.82,0-32.32.18-70,.43s-75.47.42-84,.37-22.25,0-30.5.11c-14,.19-40.24.16-45.19-.07a2.88,2.88,0,0,1-2.64-1.74c-.28-1-.48-.78-.55.73l-.12,2.37-9.75-.66c-11.94-.81,5.46-.78-130.25-.23-63.52.25-127.2.48-141.5.49s-35,.16-46,.31c-22.39.32-25.39.31-76.17-.12-19.89-.17-36.6-.58-37.14-.92s-2-2.63-3.33-5.11c-1.93-3.69-2.34-5.94-2.29-12.5.06-7,.42-8.52,2.86-12.21,3.24-4.89,8.42-8.29,12.64-8.29h3l-2.62-4.25c-2.65-4.28-14.23-16.75-15.57-16.75-.39,0-2.2-1.38-4-3.07a48.5,48.5,0,0,0-9-6c-3.14-1.6-8.5-4.72-11.91-6.93s-6.62-4-7.12-4-2.38-1.12-4.19-2.5-3.68-2.5-4.18-2.5-3.22-2.14-6.05-4.75-6.16-5.45-7.4-6.31a6.13,6.13,0,0,1-2.45-4c-.14-1.86-.75-2.44-2.59-2.44s-3.61-1.76-8.14-8.5c-3.15-4.67-5.74-9-5.75-9.58s-1.26-1.66-2.78-2.37-3.53-1.68-4.48-2.16a8.28,8.28,0,0,0-3-.89,17.73,17.73,0,0,1-5-2,16.92,16.92,0,0,0-5.33-2c-2,0-10.83-9.37-12.88-13.64-.84-1.73-2.19-3.4-3-3.72a2.22,2.22,0,0,1-1.51-1.69c0-.61-1.64-3.59-3.65-6.62-5.37-8.09-8.18-16.63-7.67-23.33s-.68-9.08-3.66-7.23a42.17,42.17,0,0,1-6.64,2.82c-3.68,1.26-5.15,1.33-7.42.39-3.43-1.42-4.61-.81-5.4,2.78a23.58,23.58,0,0,1-3.83,6.9,70.77,70.77,0,0,0-5,7.29,12,12,0,0,1-5,4.51A17.55,17.55,0,0,0,78.94,463c-2.39,2.64-6.57,4.86-8.11,4.3-.62-.22-1.34.45-1.61,1.49-.53,2-9.36,6.85-11.61,6.35a4.18,4.18,0,0,0-3,1.2c-.91.82-4.36,1.79-7.66,2.17-5.15.57-7,.29-12.75-2-7.45-3-8.91-2.89-17.3,1.08a40,40,0,0,1-9.7,3c-4.38.6-4.63.5-6.23-2.58a10.9,10.9,0,0,1-1-7.38c.86-5.32,8.78-13.2,16.6-16.5,3.52-1.49,6.1-3.39,7.39-5.44,6.61-10.53,6.27-9.3,4.92-17.75A54.91,54.91,0,0,0,26,419.72c-2.31-4.86-2.5-20.24-.31-24.85,3.73-7.85,13.77-14.23,24-15.24a9,9,0,0,0,3.16-.71c1-1-2.5-8.6-4.85-10.49-1.39-1.12-2.54-2.47-2.54-3,0-1.1-2.42-2.76-9-6.17-8.64-4.48-10.45-5.95-13.36-10.85a27.64,27.64,0,0,1-3.4-9.56c-.43-4.23-.15-5,3.27-8.75,2.89-3.2,4.43-4.12,6.86-4.08,3.9.05,10.19,2.24,12.53,4.36s5.84,2,6.51-.16c.74-2.43-1-9.37-2.58-10.36-.73-.46-5.42-.73-10.42-.61-8.47.19-9.37,0-13.06-2.54A21.51,21.51,0,0,0,18.08,314c-.42,0-3.2-2.36-6.19-5.24-4.11-4-6-6.75-7.67-11.5-2.3-6.4-4.48-7.85-4-2.65.15,1.59,1.18,11,2.3,20.89s2.07,19.28,2.11,20.85a9.09,9.09,0,0,0,2.45,5.2c1.3,1.3,2.36,2.89,2.36,3.53,0,1.71,8.92,13.92,10.16,13.92.58,0,3.35,1.83,6.15,4.06,4.52,3.6,5.51,4,8.82,3.42,4-.68,7.87.75,7.87,2.93,0,.74-1.56,3.05-3.47,5.13l-3.47,3.79-3.78-1.57c-2.08-.86-5.19-2.1-6.92-2.74a18.37,18.37,0,0,1-5-2.88,46.9,46.9,0,0,0-5.55-4c-2-1.25-4-3.26-4.33-4.47-.58-2-6.63-15.15-8.61-18.7-2.94-5.25-4.17-9.5-4.95-17-.49-4.67-1.55-14.35-2.36-21.5-2.12-18.65-2.41-25.33-1.34-31ZM.45,265a1,1,0,0,0,0-2,1,1,0,1,0,0,2ZM0,287c.28,0,.93-1.12,1.45-2.5A3.35,3.35,0,0,1,5,282c2,0,2.88.77,4.06,3.75,3.37,8.51,5.64,12,10.75,16.44,6.61,5.77,10.63,8.07,17.68,10.13,4.68,1.37,5.76,1.41,7.56.22s2-1.89,1.28-7.21a27.87,27.87,0,0,1,.35-10.59c1.48-6,.36-7.59-3.84-5.44-6.29,3.22-10.44,3.08-18.61-.65-7.71-3.51-10.76-6.76-10.76-11.47,0-3.58,3.2-9.65,7.11-13.5,4.42-4.35,4.75-5.08,1.84-4.16a3.8,3.8,0,0,1-4.95-3.64c0-2.2.12-2.17-3.6-.83-1.59.58-4.47,3.12-6.4,5.64s-4.26,5.41-5.19,6.4-1.82,3.85-2,7.11c-.17,2.92-.41,7-.53,9.05S-.27,287,0,287ZM20.61,463.48c2.81-.36,11.78,2.54,17.08,5.52,3,1.69,12.08,1.12,16.53-1a21,21,0,0,1,5.53-2c.77,0,2.25-1,3.3-2.14a45,45,0,0,1,7-5.47c6.74-4.34,14.81-12.26,16.82-16.51.88-1.86,2.31-4.67,3.18-6.24,1.23-2.25,1.33-3.39.46-5.3-1.65-3.63-1.35-6.14.89-7.34,1.47-.78,2-2.09,2-4.88q0-3.81,2-5.62a6,6,0,0,0,2-3.4c0-.88,1.11-3.4,2.47-5.6,3.06-5,3.06-5.1.09-7s-3.29-1.69-14.07,5.49a84.66,84.66,0,0,1-8.71,5.31c-3.08,1.17-12.79,19-21.18,39-3.39,8.06-7.39,2.57-5.54-7.61.61-3.37,1.42-6.36,1.8-6.63.77-.57,3.69-7.32,4.64-10.76.35-1.23,1-2.25,1.45-2.25s.85-1,.87-2.25a84.6,84.6,0,0,1,2.56-11.25c1.38-5,2.53-11.12,2.56-13.72,0-4-.35-5-2.45-6.37-1.85-1.21-2.85-1.36-3.82-.55-.72.6-3.53,1.56-6.25,2.15A34.16,34.16,0,0,0,43,390.5a72.87,72.87,0,0,1-6.67,3.66,9.12,9.12,0,0,0-3.9,3.75c-1.61,3.38-2,13.43-.75,19.06.55,2.48,1.13,5.4,1.29,6.5a54.12,54.12,0,0,0,2,6.93c1.63,4.66,1.63,5.28,0,11.5-1.88,7.16-3.38,10.12-7.29,14.32-2.95,3.17-4.82,3.51-5.55,1-.42-1.44-.5-1.4-.46.25.1,3.74-.17,4.37-2.18,5-3,.95-2.41,1.46,1.16,1ZM19.89,158c.25,0,.72-.45,1.06-1s.14-1-.44-1a1,1,0,0,0-1.06,1C19.45,157.52,19.65,158,19.89,158ZM23,275a3.72,3.72,0,0,1,3.64,2.45c1.92,4.21,2.93,4.19,15.69-.27,2.39-.84,4.58-2.12,4.86-2.85A2.94,2.94,0,0,1,49.81,273c2.5,0,15-4.25,16.87-5.73A23,23,0,0,1,71.81,265c3.24-1,3.63-1.45,2.49-2.6-1.61-1.6-7.12-2.31-23.11-3l-11.76-.49-1.18,2.78A22.77,22.77,0,0,1,35,266.78C32.81,269.3,25.28,273,22.32,273c-1,0-1.87.45-1.87,1s1.14,1,2.52,1Zm2.48-96.5a25.8,25.8,0,0,1,2.1,5.5c1.24,4.3,2.09,5.88,7.1,13.23,1.21,1.77,3.92,5.82,6,9s4.38,5.76,5,5.74a43.73,43.73,0,0,0,6.72-2,35.06,35.06,0,0,1,8.25-2c2.17,0,3.35-1,5.64-4.69l2.89-4.64L67,196.57a28.53,28.53,0,0,1-4.52-6.6,83.89,83.89,0,0,0-6.89-10.5,102.27,102.27,0,0,1-6.4-9.2,33.52,33.52,0,0,0-4.8-6.22c-2.61-2.61-3-3.61-2.63-7.25.22-2.33,1-4.42,1.73-4.66,1.38-.47,12.91,11.49,13,13.45,0,.61,1.37,2.81,3,4.88s3,4.21,3,4.73,2,3.28,4.36,6.11a111,111,0,0,1,14.62,22l3.27,6.51-1.87,4.15c-1.84,4.06-2,4.14-6.14,3.71-2.35-.24-4.47-.1-4.72.3s-2.61.54-5.24.29c-3.64-.34-6.82.3-13.36,2.68-10.78,3.92-16.72,9.07-17.06,14.8-.22,3.72,2.71,13.18,4.44,14.37.5.35,2.55.24,4.55-.23a35,35,0,0,1,9.15-.33c3,.29,8.65.68,12.5.88,6,.3,8.26,1,16,5,14.83,7.72,15.89,8.22,18.77,8.91,5.22,1.25,4.35-4.12-2.33-14.39-10.83-16.64-17.1-31-13.55-31,.74,0,2.59-1.8,4.11-4,2.66-3.83,2.73-4.24,1.68-9.75-2.21-11.63-2.24-15.88-.12-17.8a7.09,7.09,0,0,0,1.94-5c0-3.62-2.47-14-3.77-15.77a30,30,0,0,1-2.17-5.13,30.69,30.69,0,0,0-3.83-7.26,12.19,12.19,0,0,1-2.48-5.85c0-1.43-.31-2.09-.7-1.46-.49.78-1.55.47-3.43-1-3.08-2.42-6.6-3.47-18.12-5.41-4.4-.74-11.6-2.06-16-2.92-9.65-1.9-13.44-2-13.67-.33-.09.69-.3,2.83-.45,4.75s-.36,4.4-.46,5.5A106.83,106.83,0,0,1,25.23,159c-1.63,5.23-3.07,9.95-3.21,10.5-.26,1.08,2.13,7.36,3.43,9ZM26.85,337c.77,0,2.3,1.52,3.4,3.38,1.82,3.09,9.9,9.62,11.9,9.62a18.59,18.59,0,0,1,4.52,2.5c2,1.38,4.82,2.5,6.23,2.5,1.93,0,2.55.52,2.55,2.13s.27,1.89,1.41.95c1.57-1.3,9.67-.58,15.59,1.38,3.4,1.13,6.92,1.14,21.5.11,19.42-1.37,21.82-1.73,27.17-4.1,3.07-1.36,6.23-2.47,7-2.47,3,0,7-5.39,7.73-10.36.4-2.65.53-5,.3-5.25-.4-.39-10.26,5.21-13,7.39a16.73,16.73,0,0,1-5.22,1.72c-2.2.42-5.12,1-6.5,1.28-5.43,1.13-22.49,1.3-29.79.3-16.1-2.21-26.27-4.71-25.95-6.36.25-1.25-.6-1.32-3.32-.26-.86.34-3.13-.45-5.07-1.77a59.44,59.44,0,0,0-7.69-4.23c-2.3-1-4.18-2.52-4.18-3.35,0-1.17-.26-1.24-1.2-.31a5,5,0,0,1-3.06,1.2c-2.38,0-5.74,1.78-5.74,3,0,.53.63,1,1.4,1Zm21.6-202c.55,0,1-.67,1-1.5s-.45-1.5-1-1.5-1,.68-1,1.5S47.9,135,48.45,135Zm6,175.14c1.45,1.23,2,3.11,2.1,7.75.1,3.5.72,6.57,1.45,7.17,1.57,1.3,2-.17,2.94-9.06a68.12,68.12,0,0,1,3.9-18c.73-1.92,2.14-6,3.12-9a31,31,0,0,1,5.13-9.25c3.19-3.58,4.34-6.75,2.47-6.75-1.22,0-8.9,3.65-13.27,6.3s-8.77,7.74-8.73,10.29a49.23,49.23,0,0,1-1,6.91c-1.26,6.43-.56,11.57,1.86,13.64Zm7.43,65.61C63.78,377.51,65.64,379,66,379a14.72,14.72,0,0,1,3.82,2.35,26.76,26.76,0,0,0,8.59,3.59c3,.68,7.22,1.68,9.33,2.21,4.77,1.22,19.44.1,22.31-1.71a23.68,23.68,0,0,1,7.23-2c5.86-.78,13.13-5.66,13.13-8.8a37.36,37.36,0,0,1,1.69-7.31c1.53-4.84,1.54-5.52.14-6.91s-2-1.36-5.94.39c-13.44,5.94-40.67,8.85-53.22,5.68-6.24-1.58-13.86-1.95-15.08-.73C56.53,367.23,58.58,372.57,61.9,375.72Zm-3.45,95.75c.55.34,1,.14,1-.44a1,1,0,0,0-1-1.06c-.55,0-1,.2-1,.44S57.9,471.13,58.45,471.47Zm9.9-137.07c.88.25,5.88,1.18,11.1,2.07s10.28,2,11.24,2.55c2.31,1.27,15.93,1.22,19.32-.07,1.95-.74,3.09-.69,4.15.2,1.21,1,1.41.88,1.13-.7s.54-2.12,4.16-2.95a32,32,0,0,0,6.69-2.28A9.34,9.34,0,0,1,129.7,332c.76,0,2.68-1.36,4.28-3,2.85-3,2.87-3.09,1.26-6.25a29,29,0,0,1-2.25-6.95c-.62-3.76-5.2-11.78-6.72-11.78-.45,0-.82-1-.82-2.2s-1.68-3.93-3.73-6A60,60,0,0,1,114,284.19l-4-7.72-5.49.15c-3,.08-7.05.24-9,.35-3.38.2-8.68,2.5-12.27,5.34-1.8,1.42-2.32,2.75-1,2.54,2.06-.32,3.47.54,9,5.51a84.83,84.83,0,0,0,6.87,5.75c1.38.6,8.94,10.13,10.61,13.36A24.07,24.07,0,0,0,113,315c5.31,4.94,7.14,11.34,3.51,12.29a5.33,5.33,0,0,0-2.95,3.06,7.6,7.6,0,0,1-2.83,3.53c-4.6,2.46-28.13-1.89-33-6.11a11.09,11.09,0,0,0-3.72-2,34.87,34.87,0,0,1-3.74-1.25c-1.28-.52-2-.09-2.65,1.64-1.4,3.65-1,7.76.79,8.28Zm.46,68c1,1.33,1.89,1.62,3.25,1a17.8,17.8,0,0,1,2.46-.91,8.12,8.12,0,0,0,2.26-1.77,11,11,0,0,1,3.68-2.32c2.46-.78,2.61-3.37.24-4.11a31.61,31.61,0,0,1-4.4-2c-4-2.12-6.73-1.8-7.29.83-.51,2.41-1.25,5.9-1.44,6.81a5.62,5.62,0,0,0,1.24,2.41Zm1.6-81.95c2.28-.73,5.26.66,9.71,4.52,4.28,3.72,9.3,5.31,12.69,4s3.39-4.59-.4-9c-1.63-1.9-3-4-3-4.72s-1.35-2-3-2.82c-2.69-1.39-3.3-1.39-5.93,0A12,12,0,0,0,77,315c-.35.55-2.1,1-3.9,1-3.77,0-4.61.59-4.61,3.24,0,1.43.48,1.74,2,1.28ZM70.87,309a11.91,11.91,0,0,1,2.17.68c1.35.51,1.61.28,1.13-1-.77-2,3.58-5.71,6.74-5.71a6.92,6.92,0,0,1,4.26,2.4,21.83,21.83,0,0,0,3.44,3.25A26.93,26.93,0,0,1,92.93,314c1.63,2.48,4,5.78,5.24,7.33a10,10,0,0,1,2.28,4.78c0,2.81,2.43,3.34,5.92,1.28,2.48-1.46,2.91-2.24,2.42-4.33-.71-3-7.16-14.06-8.22-14.06-.4,0-2.12-2-3.81-4.36-2.3-3.26-4-4.54-6.53-5-4.21-.79-7.24-3.84-9-9-.72-2.15-1.81-4.08-2.42-4.28s-2.09,2.81-3.36,6.93-2.86,8.63-3.61,10.28c-1.35,3-1.82,5.5-1,5.5Zm26.86-85c.67.84,5.27,2.35,10.22,3.36l14.33,2.9c7.12,1.44,8,0,3.81-6-4.47-6.36-5.56-8.59-7.61-15.59a123.58,123.58,0,0,0-5-14.71c-.4-.82-2.16-1.64-3.93-1.81s-3.45-1-3.75-1.75c-.89-2.33-5.09-1.75-6,.81-.42,1.24-.68,7-.57,12.75.15,7.36-.22,11.4-1.21,13.5-1.77,3.76-1.81,4.63-.3,6.53Zm5.18,202.52c1.35,1.35,3.35,2.45,4.44,2.45,4.23,0,17.57-9.35,16.67-11.68-.3-.79.46-2.44,1.69-3.67,2.44-2.44,6.8-14.33,6-16.38-.26-.7-2-1.27-3.82-1.27-2.29,0-3.81-.68-4.86-2.17-1.42-2-1.77-2.09-5.5-.85-5.29,1.74-8.38,5.25-11,12.52a56.17,56.17,0,0,1-3.51,8c-3.13,4.84-3.16,9.94-.09,13Zm5.4-183.33c1.94,2.24,3.36,5.59,4.46,10.52a73.75,73.75,0,0,0,3.65,11.7,23.63,23.63,0,0,1,2,5.9c0,2.62,7.19,16.09,10.63,19.92,1.85,2.06,3.37,4.15,3.37,4.64s1.75,3,3.88,5.58a21.22,21.22,0,0,1,5.08,10.86c.65,3.39,1.89,8.95,2.75,12.36,2.15,8.55,1.39,30.13-1.25,35.55-1,2.07-2.15,3.75-2.54,3.75s-1,1.13-1.33,2.5-1.19,2.5-1.88,2.5-1.23,1.47-1.18,4.25a15.21,15.21,0,0,1-1.29,6.56c-3.91,6.62,1.93,8.86,7.26,2.79,2.82-3.2,4-5.35,9.42-16.6,1.18-2.47,2.78-5.62,3.55-7a49.63,49.63,0,0,0,3-8.5c.9-3.3,2.06-7,2.57-8.29a24.47,24.47,0,0,0,.93-7.06c0-2.64.66-5.63,1.47-6.71a9.78,9.78,0,0,0,1.5-5c0-2.85,1.77-6.26,4.74-9.3a5.4,5.4,0,0,0,1.29-3.28c0-2.8,2.94-6.92,5.68-8,3.19-1.22,2.93-2.62-1.56-8.54a39.09,39.09,0,0,1-5.07-8.75c-.66-2-1.54-3.65-2-3.65s-1.93-2.64-3.37-5.87c-2.58-5.77-3.95-7.28-22.69-25-6.77-6.42-16.43-10.75-28-12.57-1.37-.22-3.74-.7-5.25-1.07-3.71-.92-3.67,1.42.1,5.77ZM119.5,176c.57,1.92,1.21,8.12,1.42,13.77.33,9.07.71,10.89,3.26,15.5a56.49,56.49,0,0,1,4.12,9.47c.68,2.34,1.62,4.25,2.08,4.25s1.17,1.24,1.54,2.75c.77,3,2.31,5.25,3.65,5.25,1.52,0,1-3.69-.77-5.12-2.38-2-4.3-7.1-4.9-13.07-.28-2.85-.9-5.66-1.37-6.24-1.31-1.61-2.25-10-2.22-19.75,0-7.6.36-9.2,2.63-12.8,1.43-2.26,3.25-4.36,4.05-4.67a2.28,2.28,0,0,0,1.5-1.7c.09-2.6,18.51-13.67,22.75-13.68,8,0,10.16.14,14.9,1.1a23,23,0,0,1,7.5,2.82,52.18,52.18,0,0,0,7.2,4.09c2.68,1.28,5.07,3.07,5.31,4a4.91,4.91,0,0,0,2.61,2.59,10.28,10.28,0,0,1,3.85,4.28,27.51,27.51,0,0,0,3.25,5.08,6.57,6.57,0,0,1,1.59,3.73,4.88,4.88,0,0,0,1,3c.7.7.72,3.81,0,9.74s-.65,9.59,0,11.39a19.78,19.78,0,0,1-3.92,19.85,31.76,31.76,0,0,0-4,6c-2.48,4.79-4.5,6.52-12.78,10.91-5.95,3.16-7,3.41-13.19,3-8.92-.58-21-3.86-22.73-6.17-2.87-3.82-9.47-23.5-9.5-28.35a44.65,44.65,0,0,0-1-7.88c-1.64-7.13-1.45-14.27.5-18,5-9.69,17.35-16.82,27.29-15.79a46.11,46.11,0,0,1,12,3.72l9.06,4.27c2.83,1.33,6,6.33,6.85,10.81a13.6,13.6,0,0,0,1.63,4.63,2,2,0,0,1-.27,2.75c-.68.83-.81,1.5-.29,1.5,1.21,0,3.08,8,2.74,11.72a27.07,27.07,0,0,1-1.86,6.53c-1.25,2.91-2.18,3.75-4.12,3.75-2.54,0-12.56,4.87-15.51,7.55-.89.8-1.91,1.17-2.26.82s-1.67,0-2.93.87a19.91,19.91,0,0,1-5.78,2.19,28.36,28.36,0,0,0-5.8,1.83c-1.76.87-2.78.86-4.25-.06-2.82-1.76-2.37.13.85,3.57,2.12,2.28,4,3.12,7.75,3.57,8.56,1,16.65-.53,20.71-3.91a17.94,17.94,0,0,1,4.68-2.9c1.09-.35,2.66-2.51,3.59-4.93,1.61-4.23,7.26-10.6,9.4-10.6,1.31,0,1.43-1.66.18-2.44-.5-.31-.68-2.26-.4-4.35.35-2.61,0-4.17-1-5-1.16-1-1.36-3.14-1-10.57.33-6.36.13-9.58-.64-10.06s-1.13-1.85-1.13-3.25c0-1.85-2-4.56-7.31-9.8-6.22-6.17-8.33-7.59-14.25-9.59-12.14-4.12-24-2.3-31.06,4.78-6.8,6.82-12.59,13.71-13.45,16-1.37,3.61-1.11,10.15.63,15.81.84,2.75,2.16,8.55,2.93,12.89,1,5.66,2.08,8.62,3.83,10.5s2.61,4.26,3.09,8.58c.6,5.44.46,6.13-1.6,7.68s-2.18,1.78-.51,3.63a34.21,34.21,0,0,0,6.86,4.71c5,2.73,5.33,2.77,16.72,2.13,6.39-.36,14.63-.8,18.31-1,4.17-.21,7.69-1,9.32-2.05a37.05,37.05,0,0,1,6.63-3.13c6.12-2.16,9.86-5.22,9.86-8.06a10.29,10.29,0,0,1,1.43-4.68c3.47-5.37,7.61-22,5.76-23.1-.52-.32-1.26-3.63-1.63-7.35a97.46,97.46,0,0,0-3.62-16c-1.62-5.06-2.94-10.34-2.94-11.75S206,165,205.53,165s-2-2.71-3.25-6c-1.61-4.17-3-6.2-4.42-6.57-1.16-.29-3.52-2-5.25-3.86-2.79-3-4.23-3.54-12.72-5.06-6.39-1.15-10.3-1.42-11.76-.81-1.2.51-6.42,1.07-11.6,1.24-12.55.42-16.43,2.19-26,11.88-8.53,8.61-12,13-12,15.23a23.44,23.44,0,0,0,1,5ZM127,435.63a24,24,0,0,1,1.52,7.72c0,4.88,1.49,8.07,2.51,5.42.64-1.69,0-22.56-.68-23.29s-2.42.82-3.65,3C125.17,431.08,125.18,431.39,127,435.63Zm4,19.7c1,.39,1.5,0,1.5-1.33,0-2.3-1.62-3.54-2.33-1.78C129.27,454.31,129.39,454.73,131,455.33Zm1.58-36.55a1.34,1.34,0,0,0,0-2.62c-.59-.19-1.08.4-1.08,1.31S131.94,419,132.53,418.78Zm1.76,45.38c2.79,5.46,10.51,15.75,11.84,15.78.65,0,1.48.94,1.83,2.05,1.54,4.86,16.86,8.77,20.72,5.28,1.52-1.38,2-1.39,4-.09a18.7,18.7,0,0,0,4.49,2c2.81.71,12.52-2,13.58-3.87A2.93,2.93,0,0,1,193,484c1.3,0,7.92-6.36,21-20.18,8.47-8.94,11.71-13.52,11.71-16.51a11.63,11.63,0,0,1,2-5.63c1.58-2.22,1.88-3.82,1.45-7.5-1.18-10-2.79-18.72-4.21-22.89a29.38,29.38,0,0,1-1.48-5.82A1.49,1.49,0,0,0,222,404a1.42,1.42,0,0,1-1.5-1.32c0-.73-2-3.93-4.5-7.12s-4.5-6.18-4.5-6.66-1.24-1.15-2.75-1.5-5.38-1.51-8.6-2.57c-4.24-1.39-7.14-1.73-10.5-1.25A68.67,68.67,0,0,0,174,388c-4.74,2.25-14.07,5-17.1,5-1.8,0-3.56.45-3.9,1-1,1.71-3.33,1.1-4-1.07-.77-2.42,1.92-5.93,4.55-5.93a4.44,4.44,0,0,0,3-1.5,5.34,5.34,0,0,1,3.62-1.5c1.31,0,2.38-.38,2.38-.84s2.36-2.14,5.25-3.73c4.56-2.51,6.3-2.89,13.25-2.89,4.4,0,10.7.33,14,.73s7.8.87,10,1.05c4.76.38,12.23,4.84,13.44,8a10.12,10.12,0,0,0,2.45,3.58c1.82,1.51,9.76,16.82,11.46,22.09.63,1.93,1.22,10.7,1.32,19.5.23,20.15-.26,21.44-13.39,34.79-8.8,9-9.39,9.82-8.1,11.67,1,1.4,1.21,3.42.76,6.82l-.64,4.83,5.44,4.95a41.17,41.17,0,0,0,11.55,7.32c3.36,1.31,7.11,3.45,8.33,4.75a7.74,7.74,0,0,0,4.88,2.37,7.74,7.74,0,0,1,5.08,2.62c2.88,3.12,12.52,9.66,16.17,11,1,.35,1.75,1,1.75,1.51s2,1.83,4.5,3,4.5,2.42,4.5,2.81,2.25,3.14,5,6.14,5,6,5,6.69a1.36,1.36,0,0,0,1.43,1.25c2.54,0,10.58,15.42,10.58,20.29a1.71,1.71,0,0,1-1.72,1.71c-1.39,0-1.29.31.57,1.61s2.22,2.39,2,5c-.17,2,.24,3.77,1,4.22s19.13.64,41,.48c93.3-.67,236.5-1.29,297.72-1.28,96.59,0,217.72-.1,227.5-.22,9.18-.11,37.92-.13,42,0,1.38,0,24.1,0,50.5-.06s51.83-.12,56.5-.11c17.44,0,54.56.25,56,.31,8.94.42,163.39,1.19,176,.88.83,0,40.87.24,89,.58,80.29.57,87.54.76,88.07,2.28.42,1.17.8,1.31,1.32.48a2.18,2.18,0,0,0,.27-1.94c-.26-.41,18.5-.65,41.69-.52s68.48.27,100.65.33c36,.07,59,.48,59.66,1.08s1.39.6,1.66.16,12.8-.68,27.84-.53,33.19.22,40.34.16c13.57-.11,13.77-.11,17,.05,1.1,0,6.73.1,12.5.09s28.73.27,51,.61,41.85.49,43.5.35c3.52-.3,2.75-.3,22.25-.1,11.18.11,15.26.47,15.27,1.36s.3.75.9-.19c.74-1.17,5.43-1.27,29.23-.63,15.6.42,29.25.76,30.35.76l102.22-.26c70-.19,100.6,0,101.5.8s1.82.68,3.18-.32c1-.76,2.25-1.17,2.68-.9s13.19.51,28.35.54c20.5,0,27.58.35,27.59,1.23s.3.72.87-.17c.7-1.11,9.27-1.34,47.22-1.29,31.08,0,46.48.41,46.71,1.11.5,1.48,3.23,1.28,2.93-.22-.14-.72.59-1.14,1.75-1s7,.27,13.16.3c9.55.05,11.26.3,11.83,1.75s.74,1.59,1.94,0c1.36-1.85,15-1.86,343.07-.35,77.4.35,90.91.41,111.5.44,4.68,0,8.73.08,9,.16s35.83.29,79,.46,89.3.39,102.5.5,24.83-.13,25.83-.52,5.73-.43,10.5-.07c7.46.56,18.61.66,51.17.46,29.36-.19,58,.74,58.45,1.9.63,1.63,2.55,1.64,2.55,0,0-1,4.4-1.18,19.48-.94,10.72.17,20.23-.1,21.14-.61s3.22-.57,5.26-.12c4.64,1,13.43,1.15,58.37.75,23.88-.21,36.89,0,37.13.67s.85-.18,1.43-1.62c.77-1.94.69-3.67-.33-6.61-2.5-7.25-2.76-13.46-1-23.83.93-5.46,2.1-10.36,2.61-10.89a4.61,4.61,0,0,0,.92-2.8,16.83,16.83,0,0,1,2-5.55c1.07-2,2.8-5.59,3.85-7.91,2-4.33,4.73-8.29,14-20.05a95,95,0,0,0,6.87-9.68,19,19,0,0,1,3.36-4.5c1-.85,3.05-4,4.59-7.06a34.67,34.67,0,0,1,3.95-6.5,9.08,9.08,0,0,0,1.87-4,19.92,19.92,0,0,1,2.9-6c2.73-3.7,4.64-8,4.64-10.42a4.57,4.57,0,0,1,1.49-3.07c.82-.68,1.22-1.67.89-2.21s.3-2.84,1.41-5.13a150,150,0,0,0,7.09-18.67c1.86-6.28,1.17-25.91-1-28.6-1.85-2.29-13.72-7.24-21.65-9-6.45-1.45-8.14-2.18-7.7-3.33.31-.82.28-1.19-.08-.84s-3.19-.27-6.3-1.39c-8.18-3-8.46-3-10.66-3.59a57.09,57.09,0,0,0-8.81-.51c-5.29,0-7.42.45-9.57,2-5.76,4.26-15.54,8-22.32,8.63-4,.35-6.95.18-7.32-.42a1.09,1.09,0,0,0-1.43-.5c-1.35.84-7.05-1.56-7.05-3,0-.71-1.35-1.77-3-2.35s-3-1.74-3-2.59-.41-1.56-.9-1.56c-1.35,0-7.14-9.12-6.48-10.19.32-.52-.25-1.85-1.27-3-1.62-1.79-1.85-3.84-1.85-16.34,0-12.2.26-14.57,1.75-16.22a6.78,6.78,0,0,0,1.75-3.64,2.62,2.62,0,0,1,1.5-2.28c.83-.31,1.5-1.76,1.51-3.21a18.58,18.58,0,0,1,6.09-13.78c5.6-5.33,6.23-7.32,3.22-10.12a10.07,10.07,0,0,0-3.15-2.25c-1.18,0-4.17-5.62-4.17-7.84a3.5,3.5,0,0,0-1.07-2.7,1.73,1.73,0,0,1-.54-2,1.65,1.65,0,0,0-.45-2,1.12,1.12,0,0,1-.41-1.52c.31-.5,0-1.93-.67-3.18a17.61,17.61,0,0,1-1.56-5.44,20,20,0,0,0-1.74-5.88,5.88,5.88,0,0,1-.52-5c.49-1.29.51-2.57.06-2.85-1.58-1-1.84-9.53-.48-15.28a63.3,63.3,0,0,0,1.5-10.78c.06-2.75.55-5.54,1.09-6.2a2.09,2.09,0,0,0,.39-2.14c-.32-.51.09-1.49.91-2.17a4,4,0,0,0,1.49-2.45,5.9,5.9,0,0,1,2-3,6.06,6.06,0,0,0,2-3.66c0-3.37,5.91-10.23,10.82-12.56,2.57-1.23,5.36-2.64,6.18-3.14,4.33-2.62,7.1-3.33,10.66-2.74,2.11.35,4.74.75,5.84.87a12.22,12.22,0,0,1,4.47,2,9.92,9.92,0,0,0,3.36,1.75c.49,0,2.59,1.35,4.67,3s4.28,3,4.87,3,1.78,1.06,2.62,2.35c1.09,1.66,3.2,2.69,7.27,3.56a77.4,77.4,0,0,1,8.24,2.14c6.24,2.33,18.65,2.75,28.17,1,12.78-2.4,12.8-2.41,12.7-7.35a95.37,95.37,0,0,1,1-11.66c1.05-7.36.59-13-1.93-23.5-2.07-8.63-4.07-17.33-5.64-24.5-.91-4.12-2.51-8.75-3.56-10.28a24.26,24.26,0,0,1-2.84-6.17c-.54-1.93-3.52-6.1-6.91-9.66s-6-6.65-6-7.12c0-1.07-10-13.7-12.48-15.75a31,31,0,0,1-4.38-5.5l-3.62-5.6c-.56-.87-2.7-4.1-4.75-7.18s-5.78-9.46-8.27-14.19c-3.7-7-4.25-8.7-3-9.18,2.09-.8,1.92-2.52-.21-2.16-1.39.24-1.87-.76-2.45-5.21-.74-5.54.48-12,2.26-12a1,1,0,0,0,.92-1c0-.63-6.21-.8-17.25-.48-9.49.28-18.82.47-20.75.42l-22.5-.55c-49.88-1.25-61.33-1.39-108-1.4-27.5,0-51.12,0-52.5.05s-7.22-.26-13-.66c-13.42-.92-15.39-.93-21.75-.1-3.56.47-5.25.34-5.25-.41s-.67-.83-1.49-.52a2.73,2.73,0,0,1-2.72-.74c-1-1.09-1.48-1.06-2.67.12-1.55,1.55-9.72,1-11.57-.82-1.41-1.37-2.55-1.11-2.55.57,0,1.26-1.6,1.4-10.25.95-5.64-.29-18.35-.71-28.25-.92s-18.22-.45-18.5-.54c-.47-.15-8.17.16-12.55.5a8.56,8.56,0,0,0-3.18.86,1.3,1.3,0,0,1-1.79-.37c-.43-.7-6.68-1-18.32-.88-9.71.11-22.38.1-28.16,0s-10.95-.12-11.5,0a6.07,6.07,0,0,1-1.9,0c-.49-.09-4.54-.11-9,0-16,.25-18.36.23-38-.3-11.64-.32-20.29-1-20.9-1.59s-1.84-.63-3.64.28-5.71,1.22-12.6,1c-5.5-.18-17.87-.31-27.5-.27-60.85.21-113.23-.34-115.65-1.22-1.18-.43-2.39-.53-2.69-.23-.5.5-19,1.72-22.66,1.5-.82,0-13.36-.3-27.86-.55-15.85-.27-26.77-.86-27.38-1.47s-1.88-.68-3.58,0c-2.49.94-35,1.38-77.18,1-11.27-.09-26-.17-32.75-.17s-15.06,0-18.5,0L2357,32.81c-14.3,0-27.35-.16-29-.27a11.08,11.08,0,0,0-3.88.26c-1.49.77-17.37.11-20.76-.87-2-.56-3.64-.56-4.34,0s-2.91.94-5.07.95c-4.79,0-170.86-.88-181.45-1-13.07-.13-20,.23-20,1,0,.44-1.69.42-3.75,0-3.85-.84-15-1.17-37.75-1.11l-42,.1c-16,0-31.47.09-34.5.11-23,.12-56.27.13-95,0-17.32,0-32.17,0-33,.15a79.07,79.07,0,0,1-9.5-.5,132.13,132.13,0,0,0-18.5.11c-13.81,1.11-19,.58-19-1.94,0-1-.45-1.9-1-1.9s-1,.9-1,2c0,2.26.07,2.24-9.5,1.91-3.85-.13-20-.31-36-.39-28-.14-32.88-.4-35.34-1.92-.64-.39-1.16-.2-1.16.42s-1.74,1-4.8.88c-2.64-.14-5.23,0-5.75.32s-22.15.51-48.06.42c-36.65-.12-47.45-.44-48.65-1.44-1-.8-1.67-.9-1.89-.26-.29.85-17.68,2.46-22.85,2.11-4.27-.28-70.81-1-78.5-.86-7,.14-8.5-.19-8.61-1.94-.11-1.58-.16-1.59-.56-.06-.25.92-1.66,1.88-3.14,2.13-2.27.39-87.72,0-96.69-.43-1.65-.08-30.9,0-65,.23s-64.92.23-68.5,0-14.37-.26-24-.15c-14.29.15-52.54.17-65.5,0-1.65,0-28.87,0-60.5,0-89.33.11-101.86,0-102.52-1.11-.28-.45-1.71-.2-3.17.56s-3,1.2-3.32,1c-.76-.46-3.31-.54-18.46-.57-6.74,0-11.23-.44-11.64-1.1s-1.2-.73-2-.19c-1.7,1.1-33.25,1.61-69.36,1.13-3.28,0-30.08.09-35.5.17-27.66.44-34.23.26-33.5-.93.34-.55.18-1-.36-1a1.5,1.5,0,0,0-1.3.92c-.19.51-4,1.23-8.4,1.61-6.89.6-8.32.45-9.78-1-1.2-1.2-2.08-1.41-2.94-.7-1.65,1.37-21.41,1.49-22.25.13-.44-.71-1-.72-1.87,0-1.68,1.39-42.91,1.66-43.37.28-.22-.67-1.1-.63-2.58.14s-9.42,1.11-25.2,1c-12.62-.08-27.45-.15-32.95-.15s-15.85,0-23-.05-33.7,0-59,0c-36.85.07-80-.07-98.5-.32-6.49-.09-24.77-.09-27,0-6.68.25-62.72.37-71.5.15-5.5-.14-19,.09-30,.5s-21.12.73-22.5.72-12.4-.29-24.5-.59c-23.33-.59-28.5,0-28.5,3.37a2.53,2.53,0,0,1-1.25,2.3c-1,.36-1,.72,0,1.78,3.77,4-.64,13.34-10.95,23.17-4.46,4.27-8.7,7.75-9.4,7.75s-3.41,1.13-6,2.5-5.3,2.5-6,2.5-3.55,1.92-6.27,4.25a118.8,118.8,0,0,1-15.95,11.27c-6,3.65-9.92,6.51-11.57,8.35C229,100,227.69,101,227.14,101c-1.8,0-14.6,13.9-16.8,18.26a23.84,23.84,0,0,1-2.88,4.74c-1.77,1.22-4.27,7.75-4.57,11.93-.18,2.52-.63,6.23-1,8.25-.57,3.12-.13,4.57,2.94,9.63,2,3.27,3.62,6.4,3.62,6.95A4,4,0,0,0,210,163c.83.69,1.5,2.87,1.5,4.9a11.81,11.81,0,0,0,1.42,5.68,18.54,18.54,0,0,1,2.13,6,20.6,20.6,0,0,0,1.37,4.95c1,1.53,3.9,11.39,5,17s1,7.05-.62,10a24.08,24.08,0,0,0-1.78,6,50.5,50.5,0,0,1-4.84,15.27c-1.81,3.57-2.54,4.2-4.42,3.73s-2.25-.14-2.25,1.86c0,1.81-1,3-4,4.52a18.39,18.39,0,0,1-5.95,2.1c-1.06,0-3.55,1.1-5.53,2.44-3.29,2.24-4.55,2.44-14.79,2.42-10.86,0-16.73.68-16.67,2a13.77,13.77,0,0,0,2.46,3.39c2.45,2.79,4.34,3.4,6.06,2s8.81-3.5,11.66-3.42c1.52,0,3-.34,3.33-.85.83-1.34,13.18-1.16,15.76.22,6.14,3.29,20.7,17.09,20.7,19.62a3.73,3.73,0,0,0,1.4,2.14c.77.64,2.4,3.73,3.62,6.87,5.53,14.29,7.85,17.12,14.08,17.18a13.71,13.71,0,0,1,7.68,3c3.6,2.61,4,3.27,3.33,5.71-.58,2.19-1.6,3-4.85,3.8a16.24,16.24,0,0,0-4.94,1.87,16.77,16.77,0,0,1-3.93,2.14c-1.8.76-5.24,4.13-8.18,8-4.78,6.35-5.09,7.15-5.69,14.36-.66,7.91-4.94,19.15-7.93,20.82-.79.45-1.39,1.26-1.32,1.81s-1,1.23-2.33,1.51a34,34,0,0,0-6.83,2.84c-3.23,1.72-5.21,2.16-7.5,1.67-1.71-.37-4.91-.86-7.11-1.09-7.84-.8-14.37-2.52-19-5-2.61-1.39-5.35-2.29-6.09-2s-2.44,2.67-3.78,5.3-3.6,7.09-5,9.91a37.57,37.57,0,0,1-4.89,7.5,41.64,41.64,0,0,0-4.55,6.11,25.31,25.31,0,0,1-4.69,5.64c-2,1.61-2.43,2.78-2.43,7.41,0,4,.41,5.66,1.54,6.09s1.31,1,.5,2.54a10.14,10.14,0,0,0-1,4,3.52,3.52,0,0,1-1.46,2.83c-1.19.67-1.32,2.16-.71,7.92.43,4,.35,8.31-.17,9.87-1.56,4.69,1,18.86,4.41,24.85,7.9,13.71,12,16.6,20.92,14.8a66.77,66.77,0,0,1,12-.64c4.13.14,8-.05,8.5-.43a71.13,71.13,0,0,1,7-3c4.49-1.75,7.66-4,12.58-9,6.81-6.89,8.67-10.4,9.57-18.08.3-2.47.88-7.15,1.3-10.4,1.06-8.23-1.65-17.25-6.47-21.48-1.91-1.68-3.5-3.41-3.52-3.84,0-1-8.18-4.59-14-6.16-5.11-1.38-5.24-1.39-10-.49l-3.48.67,5.1,1.6c8,2.52,20.1,14,18.66,17.73-.29.76.25,2.58,1.21,4,2.41,3.68,2.21,12.45-.41,18.28a65.89,65.89,0,0,0-3.13,8.86C197.34,455.11,191.27,463,189,463c-.67,0-2.15,1.09-3.31,2.42-2.29,2.64-9.73,4.08-16.26,3.16-1.92-.27-5.87-.79-8.78-1.15-5.28-.66-10.9-3.61-12.25-6.43-2-4.11-4-13.14-4.11-18.5-.2-8.36,1-20.64,2.19-22.06a2.9,2.9,0,0,0,.45-2.59,4.24,4.24,0,0,1,1-3.38c1.28-1.67,1.65-1.75,2.47-.5,1.5,2.29,2.66.21,1.2-2.14-2-3.19,3-9.42,11-13.78,5.48-3,7.62-3.54,15.36-4,11.46-.74,19.94,1.63,25.5,7.13a32.86,32.86,0,0,0,7.34,5.36c2,1,3.66,2.21,3.66,2.78a34.69,34.69,0,0,0,2.55,6.43c2.23,4.71,2.56,6.76,2.61,16.27,0,6-.28,11.43-.7,12.1a14.45,14.45,0,0,0-1.07,4.65,21.86,21.86,0,0,1-1.85,6.5,14.92,14.92,0,0,0-1.54,4.44A1.26,1.26,0,0,1,213.3,461c-.64,0-3.5,2.22-6.37,4.94-8.61,8.14-22.42,13.38-38.22,14.5-10,.71-10.37.65-16.49-2.26-6.91-3.3-15.77-12.61-15.77-16.58,0-2.19-1.68-4.6-3.2-4.6-1.37,0-.88,3.43,1,7.19ZM142.13,402a11.9,11.9,0,0,0,1.31-4.14c0-1.77,2.61-3.22,4.1-2.3,2.14,1.32-.52,10.45-3,10.43C141.53,405.93,140.75,404.62,142.13,402Zm-6.49,12.69c.8-.32.56-.56-.6-.61s-1.65.2-1.32.53a2,2,0,0,0,1.92.08ZM146,209.47a14,14,0,0,0,2.68,5.15,29.78,29.78,0,0,1,3.62,5.5c1.19,2.39,2.46,3.44,4.42,3.67,3.79.44,3.44-1.1-1.06-4.66-3.79-3-3.81-3-4-11-.22-7.19.07-8.62,2.81-14,3.85-7.64,6.44-9.39,13.63-9.22,5,.11,5.87.48,9,3.78,3.78,4,5.33,3.84,3.84-.42a6.16,6.16,0,0,0-4-3.73,17,17,0,0,1-4.48-2.16c-.77-.63-3.88-1.61-6.92-2.17s-6-1.13-6.5-1.28c-1.87-.5-8.15,2.88-10.2,5.49-1.14,1.44-2.49,2.62-3,2.62s-.74,1.31-.5,2.91a8.71,8.71,0,0,1-.5,4.56c-.89,1.59-.29,8.7,1.25,15Zm1.44,14.5c.53,0,.71-.67.39-1.5s-.75-1.5-1-1.5-.39.68-.39,1.5S146.89,224,147.42,224Zm0,156.5c.55.34,1,.14,1-.44a1,1,0,0,0-1-1.06c-.55,0-1,.2-1,.44S146.9,380.13,147.45,380.47Zm2.09,46.5c.73,0,.85,1.41.36,4.25-2.05,12,.7,26.76,5.46,29.18,2.32,1.19,14.91,2.78,20.91,2.64a6.43,6.43,0,0,0,3.82-1.56,5.31,5.31,0,0,1,2.2-1.51c1.85,0,10.16-9.27,10.16-11.33a5.73,5.73,0,0,1,.87-3.22c2.05-2.23,5.2-15.58,4.54-19.23-.75-4.18-3.27-9.31-5.17-10.53a21.51,21.51,0,0,1-3-2.57c-2.58-2.62-10.79-5.39-13.46-4.55-6.33,2-14.87,15.25-15.32,23.77-.32,6,1,8.53,5.79,11.51,2.48,1.53,4.55,2,8,1.68,5.87-.48,6.88-1.1,6.19-3.84-.32-1.3.48-4.21,2-7.19,2.92-5.73,3.11-7.07,1.15-7.82-1.67-.64-9.6,5.18-9.6,7.05a8.42,8.42,0,0,0,1.25,3.35c1.07,1.74,1,2.26-.69,3.48-2.56,1.9-3.87,1.82-6.64-.42-1.86-1.51-2.3-2.85-2.3-7,0-6.17,2.22-9.32,5.26-7.43,1.66,1,1.83.81,1.73-2.52s.09-3.65,2.57-3.39c1.47.15,2.94-.16,3.27-.7.79-1.28,10.15,3.43,10.94,5.5,1.26,3.26.56,7.47-1.58,9.61-1.28,1.28-1.72,2.34-1.07,2.56,1.45.48-1.21,6.43-5.19,11.62-2.95,3.85-3,3.86-8.5,3.23a33.37,33.37,0,0,1-9.74-2.83c-3.42-1.8-4.51-3.12-6-7.23-2.4-6.67-1.75-16.34,1.31-19.71,1.17-1.28,1.92-2.89,1.67-3.57a3.33,3.33,0,0,1,1.13-2.82,5.25,5.25,0,0,0,1.58-2.8c0-1.31,7-8.34,10.81-10.87,2.2-1.47,2.1-1.51-2.36-1-4,.45-5.46,1.32-10.44,6.23-3.18,3.14-6.11,6.77-6.52,8.07a11.1,11.1,0,0,1-2.12,3.72,6.15,6.15,0,0,0-1.37,3.79c0,1.5-.58,2.43-1.5,2.43s-1.5.45-1.5,1a1.05,1.05,0,0,0,1.09,1Zm20.81-250.59c.89.81,3.8,2.05,6.45,2.76s5.27,2.12,5.86,3.23c.77,1.43,3.79,13.65,3.79,15.32,0,.12-.79-.08-1.75-.44-1.67-.63-1.67-.58,0,1.1,2.16,2.18,2.2,3.86.19,7.74a9.61,9.61,0,0,0-1.25,4.64c.25,1.28,1.12.91,4.18-1.78l3.86-3.39-.47-7.54c-.68-10.85-4.11-18.78-9.3-21.51-11.29-5.95-20.36-7.7-25.54-4.93L153,173.41l7.88.75c4.59.43,8.57,1.36,9.52,2.22Zm-13,35.34,3.25,3a32.49,32.49,0,0,1,2.6,2.73,8.5,8.5,0,0,0,3.87,2.19c2.08.52,3.18,0,5.59-2.57,3.69-3.94,2.9-5-4.38-5.9-4.54-.56-5.41-1-5.68-2.89-.41-3,4.16-8.84,7.88-10.14,2.21-.77,2.94-1.65,2.94-3.55,0-3.65-3.77-5.91-7.58-4.54s-6.27,4.84-8.47,11.84C155.1,209.17,155.1,209.65,157.38,211.72Zm3.07,6.25a1,1,0,1,0-1-1A1,1,0,0,0,160.45,218Zm10.43,131a6.09,6.09,0,0,1,3.77,1.35c2.74,2.73,13.09,5.84,17.3,5.18,6.74-1,14-3.95,17.9-7.18,3.63-3,3.75-3.31,4.23-11,.7-11.07,1-12,5.19-16.7a46.92,46.92,0,0,0,5.65-7.86c1.64-3.16,1.71-3.91.52-5.34-2.66-3.2-5.61-12.54-5.91-18.68-.06-1.39-7.47-11-10.95-14.16-4.07-3.73-5.36-4.57-8.76-5.69a44.91,44.91,0,0,0-11.07-1.26c-5.79,0-8.31.56-12.77,2.74-3,1.5-5.31,3.12-5,3.6a1.63,1.63,0,0,0,1.9.35c.88-.33,2.53,1.56,4.65,5.3a78.43,78.43,0,0,0,9.29,13.45c.8.92,3.78,1.94,6.78,2.31,6.09.76,13.54,4.09,14.92,6.67.77,1.43.29,1.94-2.81,3a32.45,32.45,0,0,0-5.75,2.49c-1.1.7-4.25,1.48-7,1.75-6.38.61-7.94,1.28-9.4,4a13.86,13.86,0,0,1-4.84,4.2c-2.86,1.55-4.17,3.25-6,7.77a62.14,62.14,0,0,0-4.17,20c-.11,3.34.15,3.75,2.31,3.75Zm.45-143c1.69,0,2.87-2.51,2.1-4.5s-.82-1.87-1.81.5C170.3,205.15,170.24,206,171.33,206Zm.12,178.5c.55.34,1,.14,1-.44a1,1,0,0,0-1-1.06c-.55,0-1,.2-1,.44S170.9,384.13,171.45,384.47Zm0,50.5a1,1,0,1,0-1-1A1,1,0,0,0,171.45,435Zm4.29-298.09a52.49,52.49,0,0,0,7.75,2.59,30.21,30.21,0,0,1,6.15,2.12c2.33,1.19,2.89,1.16,4.25-.2a7.8,7.8,0,0,0,1.57-4.74,13.34,13.34,0,0,1,2-6.18,12,12,0,0,0,2-4.36c0-.75,1.59-3.51,3.51-6.14s3.5-5.3,3.5-6,2.48-3.79,5.5-7,5.5-6.09,5.5-6.49c0-2.25,12-15.6,14-15.6.5,0,2.94-1.76,5.43-3.92s5.56-4.25,6.81-4.64A23.55,23.55,0,0,0,249,73.5,82.49,82.49,0,0,1,259,68c8.89-4.19,8.16-3.78,15.37-8.82,3.37-2.36,6.13-4.69,6.13-5.19s.82-1.15,1.83-1.47c3-.94,6.17-9.37,6.17-16.18,0-3.29-.49-6.46-1.08-7.06a4.46,4.46,0,0,1-.75-3.36c.54-3.69,6.37-5.12,16.72-4.1,4.73.46,14.35.8,21.36.74,7.69-.06,12.88.3,13.08.9s1,.48,1.93-.3,3.9-1.25,7.41-1.18c6.73.16,73.82.17,121.33,0C590.39,21.67,642.32,22,643,23a1.32,1.32,0,0,0,1.82.3c2.44-1.51,8.66-1.17,9.63.54.86,1.52,1,1.52,2.24-.11S660.55,22,692,22.07c18.7.06,36.36,0,39.25-.05,4.16-.13,5.25.16,5.25,1.4,0,.85.45,1.55,1,1.55s1-.67,1-1.49c0-1.2,1.41-1.48,7-1.39,3.86.06,7.27.53,7.59,1s1,.56,1.78-.06c1-.87,51.28-1.43,103.12-1.16,7.15,0,21.33,0,31.5-.09,42.17-.36,59.44.12,60.61,1.68,1.53,2,2.39,1.84,2.39-.53,0-2.16,1.59-2.74,2.23-.82.24.72.92.85,1.74.34s7.25-.73,14.44-.61c16.83.3,14.9.28,37.59.31,10.73,0,21.9-.06,24.83-.16s5.92.32,6.66.93c1,.81,1.52.81,2,0,.71-1.15,14.2-1.4,55.49-1,11.83.1,22.18.18,23,.16,36.35-.75,40.11-.7,41.16.57.87,1,1.42,1.07,2.55.13s9.26-1.3,28.12-1.53c14.67-.17,27.57-.39,28.67-.47s12.35.23,25,.7,24.13.82,25.5.76,21.14-.16,43.92-.23c32.88-.11,41.58.12,42.25,1.15s1,1.05,1.66,0c.78-1.2,9.56-1.36,51.17-.92,1.93,0,9.8,0,17.5-.08,42.28-.35,59.84-.11,61.66.87a2.86,2.86,0,0,0,3.16.11c.7-.57,21.86-1,52.18-1.11,28-.08,54.6-.19,59-.24,13.39-.14,23.54.41,24.1,1.31.29.47,1.3.43,2.25-.07s8-1,15.69-1.13c14.71-.22,17-.22,98.46,0,28.33.08,52,.07,52.5,0a6.1,6.1,0,0,1,2,0c.55.12,11.69.2,24.75.18,17.74,0,23.76.26,23.77,1.15s.26.8.84-.12,11.24-1.29,54.74-1.19c29.65.07,54.58.06,55.4,0,2.66-.23,8.65-.23,58.5,0,35.53.16,49.21.53,49.75,1.37s.94.86,1.5,0c.94-1.44,163.93-1.35,166.19.09.88.56,1.56.55,1.75,0,.27-.81,37.65-1.09,72.31-.54,5.78.1,36.15.14,67.5.1s68.25,0,82,0,26.69-.17,28.75-.46,3.75-.19,3.75.22,23.63.72,52.51.69,55,.22,58.06.56,5.73.32,5.95,0c.58-.93,38.73-.55,40.28.4a2.36,2.36,0,0,0,2.5-.14c1.19-.93,112.41-.86,113.34.08.26.25,2.1.09,4.11-.36s4-.58,4.51-.29,14.33.53,30.8.52c22.14,0,29.95.29,30,1.16s.22.84.78,0c.8-1.26,4.91-1.21,7,.07a2.33,2.33,0,0,0,2.24.11c1.75-1.07,115-.61,253,1,27.78.34,73,.79,100.58,1s50.83.69,51.74,1a1.58,1.58,0,0,0,2.2-.75c.33-.86,2.3-1.46,5.26-1.59,4.31-.18,4.87.07,6.47,2.87,2.26,4,2.2,5.73-.31,9.4a35.32,35.32,0,0,0-3,5.25c-.51,1.24-1.39,2.25-2,2.25s-.79,1-.42,2.52a5,5,0,0,1-.53,3.92,2.65,2.65,0,0,0-.21,3.23c.53,1,2.9,5.88,5.25,10.83s5.36,10.12,6.69,11.5a23.6,23.6,0,0,1,3.82,5.75,35,35,0,0,0,5.65,7.68,44.56,44.56,0,0,1,6.2,8.25,62.13,62.13,0,0,0,6.07,8.82,170,170,0,0,1,12.14,17c3.93,6.75,11.33,23,11.33,24.81a7.51,7.51,0,0,0,1.36,3.22,11.38,11.38,0,0,1,1.43,5.23,52.14,52.14,0,0,0,2.07,10c2.73,9.27,5.14,24.51,5.14,32.55,0,5.84.24,6.69,1.85,6.69a6.06,6.06,0,0,0,3.65-2,5.94,5.94,0,0,1,3-2,5.86,5.86,0,0,0,3-2,6.4,6.4,0,0,1,2.63-2c.45,0,3.36-2.66,6.47-5.93,3.4-3.57,7.55-6.75,10.45-8a19,19,0,0,0,7.11-5.32c3-4.28,9.38-10.39,15.45-14.84,7.21-5.28,12.56-6.43,28.89-6.23,12.49.16,14.49.43,18.5,2.5,7.62,3.93,15,9.08,15,10.48a1.26,1.26,0,0,0,1.16,1.33c.63,0,2.68,1.17,4.55,2.59,2.7,2.06,3.15,2.87,2.23,4s-.62,1.6,1.54,2.42c4.12,1.57,8.16,6.17,11.09,12.64,1.47,3.23,3.49,7.67,4.5,9.87,3.75,8.21,3.93,9.05,4.36,20.5a71.41,71.41,0,0,1-1.13,16.5c-.82,3.85-1.71,8.87-2,11.16-.36,3-1,4.3-2.4,4.66a2.66,2.66,0,0,0-1.91,2.69c0,1.21-1.36,4.21-3,6.67-3,4.4-3.21,6.73-.59,5.72a1.57,1.57,0,0,1,1.94,1c.71,1.86-2.36,2.81-9.76,3-6.61.17-12.86-1.18-13.87-3A3.91,3.91,0,0,0,3432,273a5.29,5.29,0,0,1-3.62-1.56,11.23,11.23,0,0,0-9.74-3.7c-2.23.34-3.88,0-5.13-1.17-1.41-1.27-3.87-1.69-10.22-1.73-11.89-.09-17.46,1.15-16.49,3.68a4.4,4.4,0,0,1-.92,3.25c-1.23,1.76-1.15,2.27.67,4.36,1.14,1.31,2.7,2.24,3.48,2.08a1.16,1.16,0,0,1,1.4,1.25c0,.85-.45,1.54-1,1.54a1,1,0,0,0-1,1c0,.55.85,1,1.89,1a2.78,2.78,0,0,1,2.48,1.51c.31.83,1.83,2,3.35,2.7a16.18,16.18,0,0,1,4.78,3.45c1.68,1.9,6.43,4.71,17.26,10.22,5.13,2.61,7.39,3.25,14.24,4,8.05.88,14.68.46,15.57-1a3.17,3.17,0,0,1,2.41-.89c2.3,0,12-4.8,12-5.93,0-.45,1.31-1.37,2.9-2,3.3-1.36,13.1-10.31,13.1-12a1.27,1.27,0,0,1,1.39-1.08c.77,0,1.7-1.23,2.07-2.75a14.87,14.87,0,0,1,3.18-5.38c1.38-1.44,2.4-3.24,2.28-4s.78-3.55,2-6.21c2-4.37,5.9-20.13,6.58-26.78a29.18,29.18,0,0,1,1-4.84c1.18-3.73.71-11.62-.93-15.55a20.29,20.29,0,0,1-1.56-5.2,9.11,9.11,0,0,0-2-4,9.32,9.32,0,0,1-2-4.51,12.89,12.89,0,0,0-1.33-4.61c-5.14-10.22-7.32-13.86-9.14-15.31-1.15-.91-3.43-4.22-5.06-7.37s-4-6.19-5.22-6.76-2.25-1.62-2.25-2.33-1.19-2.1-2.64-3.09c-3.15-2.14-15.89-14.37-16.46-15.8s-9.51-8.5-10.67-8.5c-.52,0-2.15-1.12-3.62-2.49a39.19,39.19,0,0,0-8-5c-2.94-1.4-5.91-3.2-6.58-4A4,4,0,0,0,3418,126a7.38,7.38,0,0,1-3.35-1.85,39.3,39.3,0,0,0-7.66-4.23c-3-1.31-5.77-3.14-6.06-4.06s-3.44-2.9-7-4.41-6.46-3-6.46-3.41c0-1.09-7.61-5-9.7-5-1.06,0-4.26-1.12-7.11-2.5a30.62,30.62,0,0,0-6.36-2.5,5.63,5.63,0,0,1-2.75-1.31,32.4,32.4,0,0,0-6.08-3.18c-2.47-1-5-2.4-5.51-3.06a10.41,10.41,0,0,0-4.45-1.94,11.78,11.78,0,0,1-4.71-2c-.71-.71-3.1-1.59-5.31-2-2.52-.43-4-1.22-4-2.13a2.66,2.66,0,0,0-1.75-2.11c-2.54-1-10.82-6.88-19.82-14.15-.59-.48-3.36-2.51-6.15-4.51s-5.34-4.72-5.69-6.11a18.75,18.75,0,0,0-3.6-5.86,17.63,17.63,0,0,1-3.64-6.77,18.58,18.58,0,0,0-2.36-5.87c-2-2.91-2.4-9.11-.68-10.23.88-.57.8-1-.31-1.74-1.29-.84-1.1-1.74,1.36-6.47,1.6-3.09,3.77-5.78,5-6.15a10.37,10.37,0,0,0,3.47-2,4.1,4.1,0,0,1,3.59-.81,4,4,0,0,0,4.06-1.48c1.71-1.89,1.72-2.08.14-2.69a5.52,5.52,0,0,0-3.92.54,5.39,5.39,0,0,1-4.69.25,20.58,20.58,0,0,0-7-.61c-11.06.81-82.48-.13-84-1.1-.89-.55-15.71-.88-17-.38a64.91,64.91,0,0,1-6.5.39,48,48,0,0,0-8.5.92c-1.5.44-2,.39-1.25-.14s-2.33-.73-7.5-.52c-4.81.2-16.85,0-26.75-.44s-19.57-.56-21.5-.28a33.36,33.36,0,0,1-8-.14c-2.47-.36-5.32-.22-6.33.31a4.73,4.73,0,0,1-3.5.28c-2.77-1.15-14.25-1.49-16.14-.48-1,.52-2.06.65-2.42.29s-3.23-.55-6.38-.42c-11.94.48-17.21.45-33.4-.23C3029,3.12,3023.41,3.24,3023,4a1.31,1.31,0,0,1-1.83.31c-.65-.41-16.7-.87-35.68-1-56.75-.46-60-.58-61-2.23-.78-1.26-1.17-1.22-2.8.25-2.19,2-6.29,2.25-8,.51-.83-.83-1.2-.86-1.2-.08s-8.82,1-31.75.71c-17.46-.23-33.1-.46-34.75-.52s-7-.1-12-.09-10.35-.05-12-.12-6.94.19-11.75.59c-8.62.71-8.75.69-8.78-1.53,0-2-.17-2.08-1.28-.62s-4.63,1.61-34.2,1.34c-18.12-.17-33.68.09-34.57.56a2.22,2.22,0,0,1-2.59-.11c-.54-.54-5.67-.9-11.4-.8-26.39.47-66.15.31-66.5-.25-.22-.34-2.54-.23-5.15.26-3.14.59-4.88.54-5.11-.13a.88.88,0,0,0-1.38-.38c-1.35.84-79.92.78-82.58-.06-1.12-.36-2.28-.27-2.56.2-.69,1.1-25.86.42-27-.73-.52-.52-1.66-.41-2.76.28-1.45.9-2.34.87-4-.13s-2.45-1-3.34-.25-22.25.89-68.67.53c-37.08-.28-68.2-.53-69.16-.55s-1.75-.46-1.75-1-.7-.94-1.56-.94-1.31.4-1,.89c.84,1.36-2.09,1.71-12.43,1.45-21.27-.53-24.88-.52-27.63.08a24.32,24.32,0,0,1-7.62-.27c-2.61-.49-4.75-.57-4.75-.18s-1.35.77-3,.87l-4.25.25c-.69.05-17-.22-36.25-.61s-35.56-.64-36.25-.55c-5.19.66-16,.53-17-.21-.73-.54-2.53-.5-4.5.09s-28.09.84-70.79.58l-69-.4c-.82,0-8.25,0-16.5,0l-41-.15c-16.21-.06-26.5-.48-27.32-1.13s-1.56-.69-2,0c-.76,1.1-7.46,1.36-33.18,1.27-22.36-.08-33.57,0-48.5.13-13.47.16-18.14.17-80,.12-45.23,0-88.89-.12-103-.21-17.1-.11-23.43-.08-67.28.34-25.22.24-45.52,0-45.82-.44a1.21,1.21,0,0,0-1.67-.17c-.63.39-9,.77-18.53.85-13.4.11-17.51-.15-17.89-1.15s-.89-1-2.65,0C1573.78.78,1546,1,1541.79-.4c-1.23-.4-2.45-.25-2.82.35a1.19,1.19,0,0,1-1.58.49c-.5-.32-8.46-.51-17.68-.44s-51.56.12-94.11.1c-57.93,0-77.7-.34-78.76-1.22s-1.84-.81-3.34.55c-1.06,1-2.43,1.43-3,1-1.69-1-21-1.14-21-.11,0,.87-15.46.21-21.18-.89-1.48-.29-3-.09-3.29.45s-1.5.62-3,.07c-1.3-.5-2.6-.67-2.88-.38S1231.52.21,1212-.1a45.05,45.05,0,0,0-5.85.56c-2.47.37-4.42.12-5.42-.7s-1.68-.9-1.9-.26-10.67,1-30.59.8c-47.7-.34-75.83-.39-101.74-.18-27.59.22-83.52.15-90-.1-3.57-.15-24.14,0-45.69.34-26,.4-39.41.26-39.82-.41a1.32,1.32,0,0,0-1.81-.28c-.65.4-13.1.84-27.68,1-40.94.38-46.4.29-47-.73-.37-.61-1.67-.59-3.53,0s-15.54.81-37.43.48c-19-.29-36.52-.41-39-.27s-13.27.2-24,.12-23.77-.08-29,0-12.42.09-16,.08S648.15.29,635,.27c-50.3-.11-66-.48-67.32-1.58-1-.8-1.55-.73-2.18.28S549.1.39,471.28.61c-51.33.14-99.4.55-106.83.91-15.24.74-20.83.81-40,.47-7.42-.13-23.59-.17-35.92-.1-15.78.1-22.63-.2-23.13-1s-.89-.83-1.38,0A4.11,4.11,0,0,1,261,2c-1.31,0-2.62.39-2.91.86-.92,1.49,5.18,10,8.35,11.61,1.69.87,3.06,2.18,3.06,2.9a6,6,0,0,0,2,3.16c1.12,1,1.79,2.47,1.5,3.23a4.78,4.78,0,0,0,.5,3.32c1.31,2.44-.55,9.17-3.19,11.56a5.6,5.6,0,0,0-1.85,2.59c0,.78-2.42,3.65-6.63,7.89-2.28,2.29-10.14,8-12.37,9-6.89,3-10.78,5.17-13.41,7.43-1.6,1.37-3.47,2.49-4.17,2.49s-2.73,1.24-4.51,2.75a65.19,65.19,0,0,1-13.54,8.6A11.56,11.56,0,0,0,210,81.88c-.38.61-3.1,2.66-6,4.54s-5.95,4.67-6.68,6.2a21,21,0,0,1-5.45,5.81c-4,3-5.37,5.15-16.8,26.88-2,3.75-3.59,7.48-3.59,8.28s1.93,2.28,4.29,3.29ZM2623.07,9c1.33,0,1.4.27.38,1.5a5.14,5.14,0,0,1-1.62,1.5c-.21,0-.38-.67-.38-1.5A1.57,1.57,0,0,1,2623.07,9ZM180.45,503a9.51,9.51,0,0,1,2,3.67c0,.64,1.93,2.66,4.27,4.48s6.28,5.28,8.75,7.69a41.52,41.52,0,0,0,10,6.8c3,1.34,6.18,2.85,7,3.35s4,2.35,7,4.1a100.71,100.71,0,0,1,9,5.87,103.56,103.56,0,0,0,10.5,6.51c11.58,6.32,21.42,14.92,21.48,18.78,0,1,.58,1.77,1.27,1.79,1.87,0,6.9,7.14,6.25,8.82-.3.8.35,2.42,1.46,3.6a12.4,12.4,0,0,1,2.62,5.19c.5,2.5.14,3.43-2,5.09a18.21,18.21,0,0,1-7.18,2.72c-6.31,1-10.13,4.72-9.92,9.79.08,2.06.43,4,.76,4.35s.17,1.74-.35,3.13c-.62,1.61-.61,2.94,0,3.68s13.43,1.1,49.27.91c26.57-.14,51.12-.48,54.56-.75l6.26-.49-.64,2.56c-.54,2.14-.34,2.5,1.24,2.17a2,2,0,0,0,1.69-2.35c-.19-1.88.44-1.95,15.5-1.7,8.63.15,19.63.37,24.44.5s8.75,0,8.75-.27,5.74-.36,12.75-.16,13.88.27,15.25.17a129.47,129.47,0,0,1,13-.24c3,0,39-.08,80-.28,69.86-.36,115.72-.45,148.5-.3,8.81,0,14.53.48,15.41,1.19,1.07.86,1.52.82,1.85-.16s5-1.3,21.09-1.28c27.19,0,44.22.13,45,.23A6.25,6.25,0,0,0,769,612c.77-.16,29.81-.11,35,.06.55,0,11.24-.11,23.75-.28s22.86,0,23,.4,1.83.38,3.75,0c3-.61,46.89-.73,137-.36,10.18,0,19.18.05,20,0s2.85,0,4.5.13c3,.19,137,.27,161,.09,7.15,0,13.78-.34,14.76-.65a1.77,1.77,0,0,1,2.37,1c.72,1.87,2.39,2.1,2.39.32,0-.9,2.13-1.2,7.75-1.09,37.18.77,211.41,1.47,242.75,1,7.7-.12,21,0,29.5.34s15.73.27,16-.09,7.14-.59,15.25-.52c11.06.1,14.75.45,14.75,1.38a1,1,0,1,0,2,0c0-.92,2.39-1.2,9.09-1.07a70,70,0,0,1,9.44.52c.2.19,5.17,0,11.06-.38,6.84-.47,11.39-.36,12.62.29A2.64,2.64,0,0,0,1570,613a2.36,2.36,0,0,1,2.44-.51c.58.36,25.29.7,54.91.77,51.51.11,53.83.2,53.37,1.94-.26,1,0,1.81.53,1.81s1.21-.79,1.46-1.77c.43-1.64,2.12-1.75,22.82-1.48,14.37.19,22.6.68,23,1.36s.84.56,1.19-.34c.46-1.19,7.28-1.36,43.39-1.08,48.12.37,49.75.46,52.43,2.88,1.84,1.67,1.92,1.65,1.92-.41,0-1.85.62-2.18,4.25-2.31,2.34-.09,4.92-.12,5.73-.08,1.52.09,97,1.5,100.52,1.49,22.89-.07,54.11-.12,65-.1,21.58,0,55.44.18,61,.24,2.75,0,8.83-.12,13.5-.33s16.15-.27,25.5-.15,23.3.2,31,.16,34.48,0,59.5,0,51.13.08,58,.06,22.85,0,35.5,0,28.18,0,34.5-.09,32.46-.08,58.07,0c28.18,0,47.59-.32,49.15-.91s2.8-.75,3.08-.48,13.71.75,29.85,1c20.43.38,29.58.89,30.09,1.69s.74.84.75,0,36.53-1.1,157.76-.79c86.76.22,187.9.38,224.75.35s68.13,0,69.5,0,10.6.28,20.5.57,19.13.51,20.5.49c34.24-.49,120.78-.34,121.55.21.57.41,4.13.31,7.9-.22s7.72-.7,8.77-.37,6.72.53,12.6.43c14-.23,10.57-.24,58.68.07,23.1.14,43-.07,44.25-.47,1.47-.48,2.25-.33,2.25.44s.67.9,1.75.46c2.64-1.08,22.25-1.72,23.58-.77,1.67,1.18,24,.33,33.47-1.28,3.19-.54,4.22-1.14,4-2.34a3,3,0,0,0-2.51-1.92c-1.53-.22-3-2-4.84-5.73-2.29-4.67-2.5-5.84-1.54-8.58a23.45,23.45,0,0,0,1.1-6.32c0-2.38,1-4.16,4.3-7.36,3.76-3.69,5.74-4.64,15.95-7.64,6.41-1.89,12.58-3.93,13.72-4.54s2.5-.85,3-.53,3.77-.85,7.23-2.6a65.1,65.1,0,0,1,9.79-4.1c7-1.84,15.63-3.82,21-4.85,6.34-1.22,22-6.55,23.44-8a5.31,5.31,0,0,1,3.2-1,3.88,3.88,0,0,0,2.78-.86c.29-.47,4.14-2.3,8.56-4.07,7.83-3.12,26-14.4,26-16.13,0-1.15,5.69-6.94,6.83-6.94.49,0,5.68-4.83,11.54-10.75,14.4-14.52,15.63-15.87,15.63-17,0-.53,1.34-2.95,3-5.37s3-5.11,3-6a6,6,0,0,1,2-3.41,6,6,0,0,0,2-3.59,3.07,3.07,0,0,1,1-2.4c.55-.34,2-2.85,3.12-5.56s2.47-4.95,2.89-4.95,1-1.23,1.31-2.75,1.31-5.22,2.24-8.25a59.93,59.93,0,0,0,2.1-10.94c.23-3,.91-6,1.51-6.75s1.17-3.24,1.27-5.6a17.89,17.89,0,0,1,.8-5.29c.34-.55.24-4.14-.24-8s-1-9.88-1.11-13.46-.58-7.17-1-8c-.64-1.34-1.32-4.42-2.31-10.5a35.52,35.52,0,0,0-2.45-6.5,58.16,58.16,0,0,1-3.17-8.72,26.18,26.18,0,0,0-5.18-9c-4.21-4.87-17.59-16.29-19.08-16.29a23.59,23.59,0,0,1-4.75-1.9,18.79,18.79,0,0,0-7.46-1.73c-2.07.1-3.52-.3-3.52-1,0-1.5-5.18-3.62-8.16-3.32a10,10,0,0,1-4.16-.55c-2.28-1-13.75.15-15.08,1.49a4.46,4.46,0,0,1-2.76,1,3.79,3.79,0,0,0-2.84,2,4.16,4.16,0,0,1-3.39,2c-2,0-2.64,1-4.36,6.19-1.89,5.76-1.92,6.54-.54,11.25.83,2.79,1.56,5.1,1.64,5.14,5.48,2.69,12.67,4.07,14,2.69,2.65-2.65,16-3.65,19-1.41a25.17,25.17,0,0,0,5.18,2c3,.85,5.8,3,10.42,7.92,3.47,3.71,6.41,7.65,6.52,8.75a62.81,62.81,0,0,0,1.86,7.5c3.41,11.3,4.52,16.64,4.49,21.5,0,5.11-1.85,15.15-3.1,17.07-.62.95-1.41,3.95-2.24,8.43a29.28,29.28,0,0,1-2.63,7.24,7.84,7.84,0,0,0-.93,2.8c0,.59-1.35,2.51-3,4.27s-3,3.53-3,3.94-.8.76-1.76.76-2.72,1.71-4,3.88c-1.71,3-3,4-5.75,4.54-1.95.36-3.54,1.1-3.54,1.64,0,3-9.31,2.94-19.5-.08-1.65-.49-5.08-1.41-7.63-2-3.9-1-4.55-1.45-4.11-3.14s.28-1.85-1.37-.84c-2.5,1.55-9.38-1.18-9.4-3.73,0-1.4-.19-1.47-.91-.33s-1.39.86-3.43-1.34c-1.4-1.51-3-2.46-3.59-2.1s-3.07-1.55-5.54-4.24a38.89,38.89,0,0,0-7-6.22c-1.38-.74-2.51-1.94-2.51-2.68a1.44,1.44,0,0,0-1.52-1.33c-.84,0-1.95-1.11-2.46-2.46s-2.65-3.59-4.73-5-5.72-3.87-8.07-5.54-5.35-3-6.65-3a2.69,2.69,0,0,1-2.94-2.34c-.57-2.27-5.71-5.21-11.52-6.59a6.14,6.14,0,0,1-3.5-2.57c-.61-1.1-1.25-2.21-1.41-2.47s-.73.19-1.25,1c-.66,1-1.18,1.13-1.7.37-1.13-1.66-8.22-4.76-9-3.95-.39.4,0,1.24.88,1.89,1.87,1.36,3,7.28,1.9,10.16A53.06,53.06,0,0,0,3319,427c-.38,3.58-1.11,6.93-1.63,7.45a4.82,4.82,0,0,0-1,2.92,6.36,6.36,0,0,1-1.35,3.55c-.75.87-1.93,4.37-2.63,7.77s-1.85,6.42-2.56,6.69a1.94,1.94,0,0,0-.83,2.32c.26,1-.44,2.8-1.58,4a7.54,7.54,0,0,0-2.05,3.91,5.87,5.87,0,0,1-1.39,3.29,51.91,51.91,0,0,0-4.2,7.08,51.14,51.14,0,0,1-3.36,6c-1.08,1-5.05,6.93-5.05,7.57,0,.36-1.8,2.81-4,5.43s-4,5.39-4.07,6.14c-.09,1.74-2.28,5.1-7.93,12.18a135.15,135.15,0,0,0-14.6,23.68c-1.46,3-3,5.65-3.53,5.84s-.87,1.36-.87,2.62a19.46,19.46,0,0,1-1.5,5.89,22.31,22.31,0,0,0-1.5,7.12c0,1.94-.45,3.53-1,3.53s-1,.68-1,1.5.44,1.5,1,1.5,1.28,1.24,1.65,2.75a17.39,17.39,0,0,0,2,4.73,8.78,8.78,0,0,1,1.35,4.19,3.8,3.8,0,0,0,1,2.86c2,1.24.72,8.34-2,10.86-2.39,2.22-3.57,2.42-18.06,3-8.52.36-20.11.88-25.75,1.15-6.7.33-10.25.15-10.25-.52s-.67-1-1.5-1-1.5.43-1.5.95c0,1.07-91.08.74-92.81-.33a1.14,1.14,0,0,0-1.58.21c-.3.48-2.47.59-4.82.25a32.43,32.43,0,0,0-7.79-.09,41.83,41.83,0,0,1-8.67,0,69.3,69.3,0,0,0-11.5.07,40.36,40.36,0,0,1-9.33,0c-1.65-.36-14.92-.58-29.5-.49s-28-.18-29.94-.61-3.92-.46-4.5-.09-18.83.78-40.56.9-40.4.25-41.5.31a66.81,66.81,0,0,1-7.12-.39c-7.58-.74-22-1-23-.39a4.14,4.14,0,0,1-2.77-.18c-1-.37-4.42-.32-7.5.11s-22.48.53-43.11.19c-40-.65-136.54-1.42-187.31-1.49-16.95,0-32.15-.42-33.77-.89-2.49-.71-3.33-.45-5.31,1.69-2.33,2.51-2.37,2.51-3.76.53-1.15-1.64-2.23-1.93-5.88-1.57-7.71.76-12.06.43-13.09-1-.34-.47-1.47-.44-2.5.06s-7.28.77-13.88.59c-14.7-.39-10.34-.37-34.5-.18-26.19.21-30.2-.05-31.68-2-1.06-1.43-1.24-1.42-1.85.16a3,3,0,0,1-2.54,1.75c-1.25,0-1.67-.49-1.29-1.5s0-1.5-1-1.5-1.61.41-1.61.9c0,1.1-14,2.42-23.5,2.21-13.58-.31-103.07-.59-108.5-.33-3,.14-41.93,0-86.46-.19-77.17-.42-81-.53-81.69-2.26s-.77-1.71-1.34.17-1.4,2-31.54,1.82c-17-.09-31.39-.46-32-.8a2.11,2.11,0,0,0-2,0c-.57.35-16.89.49-36.25.31s-39.83-.25-45.47-.16c-8.26.13-10.25-.11-10.25-1.26,0-.78-.45-1.42-1-1.42s-1,.61-1,1.36c0,1.56-.47,1.6-19.5,1.43l-33.5-.27c-10.72-.08-20-.28-20.5-.45a4.66,4.66,0,0,0-2-.11c-.53.1-7.51.17-15.51.16s-15.1.31-15.78.73-4.91.4-9.42,0-19.22-.94-32.7-1.11c-18.21-.25-24.61-.65-24.91-1.56s-.78-.92-1.69-.16c-1.38,1.14-33.29,2.21-34,1.13-.22-.35-4.82-.35-10.23,0s-15.91.44-23.34.19-34.65-.65-60.5-.87-47.9-.45-49-.48-12.57,0-25.5,0-48.7-.19-79.5-.49-61.06-.57-67.24-.58c-6.52,0-11.51-.46-11.88-1.05s-.86-.64-1.32.1-14.93,1.09-51.63,1c-28-.07-53.4-.06-56.43,0s-10.22,0-16-.06-21-.23-33.75-.27c-21.44-.08-23.25-.22-23.25-1.84,0-2.38-1.64-2.22-2.28.23-.48,1.85-1.14,1.94-9.87,1.41-5.14-.32-9.8-.57-10.35-.58-22.42,0-48.17,0-59,.09-9,.08-14.8-.29-16.21-1-1.69-.89-2.56-.89-3.62,0s-10,1.13-31.79,1.06c-16.71,0-38.93,0-49.38.05s-19.67.11-20.5.06-4.42-.3-8-.57c-11.81-.88-179.43-1.2-182.42-.35-1.61.46-3.41.47-4,0s-6.59-.69-13.33-.54c-7.5.18-12.25-.08-12.25-.68s-.64-.64-1.78,0-8.38.79-16.75.59c-18.11-.45-13.77-.45-38.94,0-12.49.24-21.2,0-21.55-.54s-1.8-.6-3.53-.12c-2.43.68-35.39,1.15-92.95,1.33l-18.5.08c-5.22,0-12.65-.09-16.5-.26-8.38-.36-61.87-.48-76-.16-5.5.12-18.55.25-29,.29l-97,.32c-42.9.14-78.45,0-79-.43s-4.6-.36-9,0c-9.27.86-26.45.09-28.18-1.27a2.77,2.77,0,0,0-3,0c-2.42,1.27-35.87,2.48-38.08,1.37-1-.47-7.14-.56-13.74-.2s-13.22.24-14.77-.27c-4.1-1.37-5-3.78-2.67-7.29s2.39-6.23.84-13.48c-.84-3.92-2.28-6.46-6-10.56-2.7-3-4.9-5.86-4.9-6.42s-1.07-1.5-2.39-2.1a9.38,9.38,0,0,1-3.7-3.54,6.72,6.72,0,0,0-4.06-3c-1.51-.3-4.45-2.1-6.54-4a42.38,42.38,0,0,0-6.53-4.9,10.54,10.54,0,0,1-3.78-3.44,3.83,3.83,0,0,0-2.9-2,9.24,9.24,0,0,1-4.37-2,9.49,9.49,0,0,0-3.64-2,1.05,1.05,0,0,1-1.09-1c0-.55-1-1-2.32-1a7.9,7.9,0,0,1-4.68-2.5c-1.29-1.37-3.08-2.5-4-2.5s-3.63-1.24-6.07-2.75-5.74-3.42-7.32-4.24c-4.43-2.28-10.63-9.86-10.63-13a6.79,6.79,0,0,0-1.89-4.42c-1.81-1.64-2.32-1.51-10.75,2.75-4.87,2.45-10.1,4.94-11.61,5.54-3.24,1.26-3.49,3.61-.75,7.11Zm1-305.5a2.5,2.5,0,0,0,0-4c-.57-.35-1,.51-1,2S180.88,197.83,181.45,197.47Zm2,182.5a1,1,0,1,0-1-1A1,1,0,0,0,183.45,380Zm4-17.5c.55.34,1,.14,1-.44a1,1,0,0,0-1-1.06c-.55,0-1,.2-1,.44S186.9,362.13,187.45,362.47ZM201.51,305c.52,0,.94-.67.94-1.5,0-1.54-1.18-2-2.3-.86C199.35,303.41,200.25,305,201.51,305Zm-.06-116a1,1,0,0,0,1-1.06c0-.58-.45-.78-1-.44s-1,.82-1,1.06S200.9,189,201.45,189Zm116-162a1,1,0,1,0-1-1A1,1,0,0,0,317.45,27Zm170,590a1,1,0,1,0-1-1A1,1,0,0,0,487.45,617Zm129-1.5c.55.34,1,.14,1-.44a1,1,0,0,0-1-1.06c-.55,0-1,.2-1,.44S615.9,615.13,616.45,615.47Zm237.93-588a1.15,1.15,0,0,0,1.56-.44c.35-.56-.07-1-.93-1C853.25,26,853,26.57,854.38,27.43ZM868.89,579c.25,0,.72-.45,1.06-1s.14-1-.44-1a1,1,0,0,0-1.06,1C868.45,578.52,868.65,579,868.89,579ZM996.45,25a1,1,0,1,0-1-1A1,1,0,0,0,996.45,25Zm83,593a1,1,0,1,0-1-1A1,1,0,0,0,1079.45,618Zm30-34.5a2.14,2.14,0,0,0,1-1.56,1,1,0,0,0-1-.94c-.55,0-1,.7-1,1.56S1108.9,583.81,1109.45,583.47ZM1201.07-3c1.33,0,1.4-.27.38-1.5a5.28,5.28,0,0,0-1.62-1.5c-.21,0-.38.68-.38,1.5A1.57,1.57,0,0,0,1201.07-3Zm107.38,585.5c.55.34,1,.14,1-.44a1,1,0,0,0-1-1.06c-.55,0-1,.2-1,.44S1307.9,582.13,1308.45,582.47Zm118-.5a1,1,0,1,0-1-1A1,1,0,0,0,1426.45,582Zm29.93-552.54a1.15,1.15,0,0,0,1.56-.44c.35-.56-.07-1-.93-1-1.76,0-2,.6-.63,1.46ZM1475.89,583c.25,0,.72-.45,1.06-1s.14-1-.44-1a1,1,0,0,0-1.06,1C1475.45,582.52,1475.65,583,1475.89,583ZM1625,620c.86,0,1.28-.45.94-1a2.14,2.14,0,0,0-1.56-1,1,1,0,0,0-.94,1C1623.45,619.52,1624.15,620,1625,620ZM1765.45,29a1,1,0,1,0-1-1A1,1,0,0,0,1765.45,29Zm166-1c.55,0,1-.7,1-1.56s-.45-1.28-1-.94a2.14,2.14,0,0,0-1,1.56A1,1,0,0,0,1931.45,28Zm31-2a1,1,0,1,0-1-1A1,1,0,0,0,1962.45,26Zm48,560c.55,0,1-.2,1-.44s-.45-.72-1-1.06-1-.14-1,.44A1,1,0,0,0,2010.45,586Zm44,33a1,1,0,1,0-1-1A1,1,0,0,0,2054.45,619Zm4-624.5c.55.34,1,.17,1-.38a2.19,2.19,0,0,0-1-1.62c-.55-.34-1-.16-1,.39A2.18,2.18,0,0,0,2058.45-5.53Zm16,590c.55.34,1,.14,1-.44a1,1,0,0,0-1-1.06c-.55,0-1,.2-1,.44S2073.9,584.13,2074.45,584.47ZM2081.89,29c.25,0,.72-.45,1.06-1s.14-1-.44-1a1,1,0,0,0-1.06,1C2081.45,28.52,2081.65,29,2081.89,29Zm44.56,557a1,1,0,1,0-1-1A1,1,0,0,0,2126.45,586Zm.44-558c1.06,0,1.5-1.92.58-2.49-.56-.34-1,.08-1,.93S2126.65,28,2126.89,28ZM2160,30c.86,0,1.28-.45.94-1a2.14,2.14,0,0,0-1.56-1,1,1,0,0,0-.94,1C2158.45,29.52,2159.15,30,2160,30Zm103.44,555c.55,0,1-.2,1-.44s-.45-.72-1-1.06-1-.14-1,.44A1,1,0,0,0,2263.45,585ZM2277.78-5.2a1.25,1.25,0,0,0,1.67-1.25c0-.93-.85-1.58-2.08-1.58C2274.93-8,2275.28-5.69,2277.78-5.2ZM2298.45,587a1,1,0,1,0-1-1A1,1,0,0,0,2298.45,587Zm8,34.5c.55.34,1,.14,1-.44a1,1,0,0,0-1-1.06c-.55,0-1,.2-1,.44S2305.9,621.13,2306.45,621.47Zm144.61-31.77a2,2,0,0,0,.08-1.91c-.32-.8-.56-.57-.61.6s.19,1.64.53,1.31Zm28.39-1.73a1,1,0,1,0-1-1A1,1,0,0,0,2479.45,588Zm10-561a1,1,0,1,0-1-1A1,1,0,0,0,2489.45,27Zm27,559c.55,0,1-.2,1-.44s-.45-.72-1-1.06-1-.14-1,.44A1,1,0,0,0,2516.45,586Zm297-587c.55,0,1-.2,1-.44s-.45-.72-1-1.06-1-.14-1,.44A1,1,0,0,0,2813.45-1Zm57.44,591c.25,0,.72-.45,1.06-1s.14-1-.44-1a1,1,0,0,0-1.06,1C2870.45,589.52,2870.65,590,2870.89,590Zm36.56-558a1,1,0,1,0-1-1A1,1,0,0,0,2907.45,32Zm38,588a1,1,0,1,0-1-1A1,1,0,0,0,2945.45,620Zm76-591.5c.55.34,1,.14,1-.44a1,1,0,0,0-1-1.06c-.55,0-1,.2-1,.44S3020.9,28.13,3021.45,28.47Zm11,561.5a1,1,0,1,0-1-1A1,1,0,0,0,3032.45,590ZM3105.38-2.57a1.14,1.14,0,0,0,1.56-.44c.35-.56-.07-1-.93-1C3104.25-4,3104-3.43,3105.38-2.57ZM3120.45,619a1,1,0,1,0-1-1A1,1,0,0,0,3120.45,619Zm26-31c.55,0,1-.67,1-1.5s-.45-1.5-1-1.5-1,.68-1,1.5S3145.9,588,3146.45,588Zm10-591a1,1,0,0,0,1-1,1,1,0,0,0-1-1,1,1,0,0,0-1,1A1,1,0,0,0,3156.45-3Zm31,594c.55,0,1-.2,1-.44s-.45-.72-1-1.06-1-.14-1,.44A1,1,0,0,0,3187.45,591Zm5.44-220c.25,0,.72-.45,1.06-1s.14-1-.44-1a1,1,0,0,0-1.06,1C3192.45,370.52,3192.65,371,3192.89,371Zm4.56-39.5c.55.34,1-.08,1-.94s-.45-1.56-1-1.56a1,1,0,0,0-1,.94A2.14,2.14,0,0,0,3197.45,331.47Zm.71,15.5c-.28,1.1-.11,2.25.39,2.56,1.5.93,1,2.42-.6,1.8-.95-.36-1.5,0-1.5,1a1.56,1.56,0,0,0,1.5,1.6,1.72,1.72,0,0,1,1.5,1.87c0,2.5,3.94,12.05,6.19,15,1,1.31,1.81,2.07,1.81,1.7s1.55.49,3.45,1.94c3.14,2.4,3.95,2.57,9.19,1.91a40.7,40.7,0,0,0,12.26-4.11c3.58-1.86,7.05-3.18,7.73-2.92a2.46,2.46,0,0,0,2.41-.95c2.2-2.66,16.15-1,26,3,4.65,1.92,9.14,3.5,10,3.51,1.79,0,10.61,3.28,11.62,4.3a3.6,3.6,0,0,0,2.2.71c.82,0,4.35,1.35,7.84,3s7,3,7.84,3,1.5.45,1.5,1a1,1,0,0,0,1,1c1.69,0,19.05,8.63,24.54,12.2,2.8,1.82,8.2,4.88,12,6.8s7.28,4.07,7.72,4.75a3.17,3.17,0,0,0,2.42,1.25,6.25,6.25,0,0,1,3.39,1.6c2.49,2.26,4.15.86,3.34-2.82-.45-2-.22-3.34.7-4s.94-.83-.4-.4c-1,.31-1.74.24-1.73-.16.13-5.36,2.37-21,3.63-25.22a69.93,69.93,0,0,0,1.91-7.87,7,7,0,0,1,1.37-3.45,5.46,5.46,0,0,0,1.07-3.33c0-3.08,2-7.37,4.7-10.22,1.25-1.3,2-2.79,1.69-3.31-.93-1.5,2.7-4.82,5.27-4.82s3.09-1.48.77-2.78c-1.37-.77-1.23-1.29,1-4a13.77,13.77,0,0,1,4.83-3.79c2.26-.69,6.21-4.25,5.51-4.95-.22-.22-4.65.65-9.85,1.94s-11.15,2.15-13.21,1.91a16,16,0,0,0-7,1,57.15,57.15,0,0,1-8.51,2.65c-4.46,1-5.63.95-7.62-.35-1.7-1.11-2.65-1.23-3.44-.44s-1.52.73-2.64-.19-1.54-.95-1.54-.12-1.51,1-4.75.61c-2.61-.29-7.22-.75-10.25-1a52.33,52.33,0,0,1-15.31-3.41,18.66,18.66,0,0,0-5.69-1.12c-1.59,0-3.16-.45-3.5-1a3.94,3.94,0,0,0-2.93-1,5.11,5.11,0,0,1-3.5-1.41c-.84-1-2-1.19-4.05-.59s-3,.46-3.41-.59a2.85,2.85,0,0,0-2.55-1.41c-1.1,0-4.92-1.57-8.49-3.5s-7-3.5-7.62-3.5-3-1.57-5.22-3.5-4.57-3.5-5.16-3.5a14.3,14.3,0,0,1-3.95-1.51,24.76,24.76,0,0,0-6-2,11.75,11.75,0,0,1-4.35-1.6,3,3,0,0,0-3.05-.25c-1,.44-4.68.89-8.26,1a78.6,78.6,0,0,0-9,.68l-3.2.63c-.38.07-4.66,4.06-9.5,8.87-7.18,7.15-9.28,9.95-11.41,15.25-1.78,4.44-2.3,6.9-1.63,7.75a4.22,4.22,0,0,1,.45,3.25ZM3310,340.05c1.16.05,1.4.29.6.61a2,2,0,0,1-1.92-.08c-.33-.33.26-.57,1.32-.53ZM3200.3,272.38a26.39,26.39,0,0,1,2.12,5.82c.71,2.61,1.87,5.23,2.6,5.83a2.37,2.37,0,0,1,.8,2.42,1.69,1.69,0,0,0,.58,2A1.15,1.15,0,0,1,3207,290c-.28.47,1.06,2.47,3,4.45s3.5,3.36,3.5,3.06.89-.08,2,.49c6.59,3.53,16,1.76,33-6.23,17.28-8.11,22.11-9.76,30.75-10.49,4.8-.41,6.25-.22,6.25.8,0,.83.51.63,1.38-.56,1.1-1.5,2.45-1.83,6.75-1.63,12.39.58,19.67.27,20.38-.88.44-.71,6.83-.36,9.24.5a2.71,2.71,0,0,1,1.25,2.48c0,1.12.4,2,.89,2s.83-.78.75-1.75c-.14-1.81.18-1.84,8.36-.78,1.93.25,7.47.93,12.32,1.51,6.18.74,9.67,1.69,11.69,3.19,2.36,1.75,3.7,2,7.57,1.48a23.36,23.36,0,0,1,8.56.51c2.13.64,4.14.9,4.47.57.72-.72-2.64-6.93-4.36-8a4.22,4.22,0,0,1-1.25-3.22c0-1.73-.42-2.25-1.5-1.84s-1.5-.12-1.5-2c0-1.43-.43-2.61-.95-2.61-1.4,0-7.3-12.89-6.66-14.56.33-.86-.06-1.44-1-1.44a2,2,0,0,1-1.88-1.25c-.21-.68-1.55-4.93-3-9.43-2.2-6.87-2.66-10.39-2.92-22-.29-13.25-1.32-18.32-3.73-18.32-.55,0-.93.57-.84,1.25.4,3.12-.05,4-1.46,2.85-1.07-.89-1.48-.74-1.85.7-.27,1-2.12,2.62-4.13,3.57s-3.64,2-3.64,2.43c0,1.38-14.62,9.2-17.19,9.2a7.11,7.11,0,0,0-3.92,1.89c-2.73,2.55-12.15,5-18.89,5a26.89,26.89,0,0,0-9,1.46c-2.43,1-4,1.21-5.3.53a9.16,9.16,0,0,0-4.51-.66c-3.53.4-23.11-5.92-25.77-8.33a7.42,7.42,0,0,0-3-1.86c-.52,0-1.51-.9-2.2-2a4.79,4.79,0,0,0-4-2c-1.75,0-4.06-1.26-6.42-3.5-2-1.92-4-3.49-4.44-3.49a9.06,9.06,0,0,1-3-2.16c-2.16-2-2.42-2.06-4.15-.5-1.21,1.1-3.59,1.66-7,1.66-3.6,0-5.17.4-5.17,1.31a6.51,6.51,0,0,1-1.78,3.25c-7.32,8-10,13.66-10.86,22.94-.3,3.3-1,6.59-1.63,7.32-2.44,3-2.34,24.37.12,27.59ZM3203.89,624c.25,0,.72-.45,1.06-1s.14-1-.44-1a1,1,0,0,0-1.06,1C3203.45,623.52,3203.65,624,3203.89,624Zm18.56-418c.55,0,1-.2,1-.44s-.45-.72-1-1.06-1-.14-1,.44A1,1,0,0,0,3222.45,206ZM3233.38-2.57a1.15,1.15,0,0,0,1.56-.44c.35-.56-.07-1-.93-1C3232.25-4,3232-3.43,3233.38-2.57ZM3234.45,385a1,1,0,1,0-1-1A1,1,0,0,0,3234.45,385Zm17.81-332.23c.66.22,1.19-.31,1.19-1.18a1.59,1.59,0,0,0-1.58-1.59C3250.1,50,3250.41,52.13,3252.26,52.74ZM3251.45,302a1,1,0,0,0,1-1.06c0-.58-.45-.78-1-.44s-1,.82-1,1.06S3250.9,302,3251.45,302Zm4,321c.55,0,1-.67,1-1.5s-.45-1.5-1-1.5-1,.68-1,1.5S3254.9,623,3255.45,623Zm4-320.93a3.72,3.72,0,0,0,2.82,1.93c1,0,2.72,1.08,3.87,2.4a11.2,11.2,0,0,0,5.11,3.07,9,9,0,0,1,4.22,2.1,3.85,3.85,0,0,0,2.38,1.43c.66,0,3.84,1.35,7.06,3s7,3,8.35,3a37.64,37.64,0,0,1,7.56,1.46c2.8.8,8,2.16,11.59,3s7.4,1.8,8.5,2.08c8.08,2.06,34.22,2.77,39.54,1.07a52.6,52.6,0,0,1,12-2.25c5.37-.39,10.93-1.31,13-2.14a20.41,20.41,0,0,1,3-.89c.83-.16,3.74-.76,6.47-1.33a78,78,0,0,1,14.16-.79c5.05.15,9.54-.08,10-.5,1.57-1.55-1.8-3.23-6.13-3.06-2.44.09-4.69-.25-5-.76-1.05-1.69-9.91-5.2-12.94-5.12a7.8,7.8,0,0,1-4.5-1.21c-1.49-1.28-5.76-3.34-15.51-7.46a36.09,36.09,0,0,0-10.5-2.37c-3.66-.17-5.9-.8-6.71-1.87s-2.48-1.53-5.5-1.34a12.25,12.25,0,0,1-6.68-1.25c-1.7-1.09-3.7-1.35-6.89-.91-4.81.66-12.26-.86-13.43-2.73-.52-.84-1-.81-1.95.1-1.42,1.43-10.44,1.7-11.28.34a2.29,2.29,0,0,0-2.33-.45c-1,.26-7-.18-13.43-1s-12.93-1.23-14.48-1c-4.1.66-7.32,2.43-7.32,4,0,.9-.65,1.19-1.85.81-1-.32-3.15.1-4.75.93a14.26,14.26,0,0,1-3.93,1.52c-1.17,0-5.47,2.86-5.47,3.63a10,10,0,0,0,1,2.44ZM3299,606a1.5,1.5,0,0,0,1.5-1.5c0-2.6-2-1.76-2.92,1.25C3297.49,605.86,3298.13,606,3299,606Zm1.5-217a1,1,0,1,0-1-1A1,1,0,0,0,3300.45,389Zm6-101a1,1,0,0,0,1-.94,2.14,2.14,0,0,0-1-1.56c-.55-.34-1,.09-1,.94S3305.9,288,3306.45,288Zm5,151a1,1,0,0,0,1-1.06c0-.58-.45-.78-1-.44s-1,.82-1,1.06S3310.9,439,3311.45,439Zm10-35.5a2.64,2.64,0,0,0,1-2.06c0-.79-.45-1.44-1-1.44s-1,.93-1,2.06S3320.9,403.81,3321.45,403.47Zm4-188.5a1,1,0,1,0-1-1A1,1,0,0,0,3325.45,215Zm41.35,18.31c.74.28,1.9,2.69,2.58,5.35C3371,245,3373.54,251,3374.6,251c.47,0,.85,1.12.85,2.48a2.76,2.76,0,0,0,2.45,3.1,5.72,5.72,0,0,0,3.55-.08,33.08,33.08,0,0,1,6.81-1.6c8.17-1.32,10.23-1.56,14.47-1.74,2.39-.1,4-.73,4.38-1.71.53-1.38-2.2-9.15-3.67-10.45a17.05,17.05,0,0,1-1.7-4.29c-1.2-4-.17-15.18,1.72-18.72s1.19-3.83-7.26-3.37c-4.54.25-11.85.59-16.25.76-12.42.47-12.67.63-12.31,7.88.21,4.19-.09,6.21-.94,6.5A1.88,1.88,0,0,0,3366.8,233.28Zm5-30.9c1.16,1.59,3,1.77,16.6,1.68,8.42-.05,15.64-.31,16.06-.57.71-.44,5.52-1.29,11-2,1.38-.16,4.15-.63,6.17-1,4.25-.84,10.14.84,13.69,3.92s10.14,13.17,10.14,15.62c0,1.2,1.58,3.67,3.5,5.49s3.51,3.89,3.52,4.62c0,1,.27.91,1-.19,1-1.55.3-8.73-1-10.5a18.26,18.26,0,0,1-1.46-5c-1.2-6.7-5.09-13.67-11.43-20.5-3.33-3.57-6.06-7-6.08-7.68s-.87-1.45-1.91-1.78a18.78,18.78,0,0,1-4.75-3.06c-1.58-1.36-3.78-2.47-4.9-2.48a9.11,9.11,0,0,1-4.25-1.55c-2.88-2-24.82-2.18-26.8-.2a4.35,4.35,0,0,1-2.62.75,2.76,2.76,0,0,0-2.44,1.5A2.26,2.26,0,0,1,3384,181c-2,0-11.46,10.94-12.45,14.38-1.27,4.39-1.26,5,.22,7Zm-.31,184.09c.55.34,1-.11,1-1s-.45-1.34-1-1-1,.79-1,1S3370.9,386.13,3371.45,386.47Zm2,5.5c.55,0,1-.2,1-.44s-.45-.72-1-1.06-1-.14-1,.44A1,1,0,0,0,3373.45,392Zm5.49,3a11.14,11.14,0,0,0,5.25.59c1-.3,4.07.06,6.9.81s5.54,1.08,6,.73,1.47-2.54,2.15-4.88,1.62-4.25,2.08-4.25c1.4,0,2.18-6.17,1-7.64A4.9,4.9,0,0,0,3399,379a9.76,9.76,0,0,1-4.88-2.08c-1.46-1.14-3.2-1.89-3.88-1.67a2.65,2.65,0,0,1-2.38-.67c-2.28-2.15-5.4-4.58-5.88-4.58-.27,0-.49.66-.49,1.47a3.64,3.64,0,0,1-2,2.54,2.67,2.67,0,0,0-1.52,3.28c.26,1.22-.13,5.14-.87,8.71s-1.41,6.81-1.48,7.18,1.45,1.19,3.37,1.82Zm-.91,23.5c1,2.47,4.65,7.88,5.67,8.34a1.9,1.9,0,0,1,.75,1.64,2.31,2.31,0,0,0,1.5,1.88,2.45,2.45,0,0,1,1.5,2.09c0,.83,1.24,2.3,2.75,3.28a52.18,52.18,0,0,1,6.75,5.87c2.2,2.26,4.82,4.39,5.82,4.75s1.53,1.09,1.19,1.65.36,1,1.6,1a6.85,6.85,0,0,1,3.81,1.34c5.12,4.34,20.92,5.37,28.39,1.85,5.39-2.53,6.78-4.18,10.72-12.69,1.78-3.85,3.91-8.38,4.74-10.07,1.26-2.58,1.31-4.15.33-9.79-.64-3.69-.88-7.19-.52-7.77a4.2,4.2,0,0,0-.35-3.21,51.59,51.59,0,0,1-2.16-6.41c-.68-2.53-1.74-4.25-2.61-4.25-1.75,0-1.91,3.3-.29,5.89,2,3.14-.7,10.54-4.78,13.31-1.85,1.27-3.38,2.62-3.38,3s-1.7,2.35-3.76,4.38c-4.46,4.39-12.57,8.42-16.75,8.33-7.33-.16-14.38-6.36-16-14.06-1.06-5.08-3.21-7.86-6.06-7.86a19.74,19.74,0,0,1-6.1-1.5,23.18,23.18,0,0,0-7.41-1.5c-2.1,0-4.1-.45-4.44-1-2.33-3.78-3.11,5.93-.92,11.5Zm-.14-246.5c1.06,0,1.5-1.92.58-2.49-.56-.34-1,.08-1,.93S3377.65,172,3377.89,172Zm7.56,181.5c.55.34,1,.14,1-.44a1,1,0,0,0-1-1.06c-.55,0-1,.2-1,.44S3384.9,353.13,3385.45,353.47Zm1-249.5a1,1,0,1,0-1-1A1,1,0,0,0,3386.45,104Zm1.75,259a19.2,19.2,0,0,1,4,.61c2,.55,2.25.25,2.25-3,0-3.58-1-4.89-4.22-5.39-1.19-.18-2,.74-2.66,3C3386.24,362.83,3386.26,363,3388.2,363Zm14.34,35.43a1.11,1.11,0,1,0-1.54-.36A1.13,1.13,0,0,0,3402.54,398.42Zm1.5-187.7c.95-.95-.6-2.86-1.74-2.15-.69.42-.67,1,0,1.7s1.35.79,1.69.45ZM3408.39,331a2.14,2.14,0,0,0,1.56-1c.34-.55-.08-1-.94-1s-1.56.45-1.56,1A1,1,0,0,0,3408.39,331Zm5.79,46.61c1-1-.51-1.86-1.86-1-1,.63-1,.86,0,1.2a2.08,2.08,0,0,0,1.87-.18Zm0,36.17a14.9,14.9,0,0,0,3.34,5.31c2.25,2.41,3.52,3,6.13,2.73,3.07-.3,3.43-.74,5.52-6.82a72.35,72.35,0,0,0,2.25-7.28c0-.59-16.67-.43-18.84.18-.2.06,0,.89.37,1.85A27.44,27.44,0,0,1,3414.2,413.75ZM3416,234.3a51.08,51.08,0,0,0,7.91-2.25,37.67,37.67,0,0,1,8.06-2.08,7.38,7.38,0,0,0,3.81-1.25c1.55-1.16,1.54-1.53-.15-5.27-2-4.4-5.38-6.5-10.42-6.44-4.26,0-7.22,2.69-9.65,8.6S3413.21,234.54,3416,234.3ZM3417,390.89c1.6.78,2.36,1.61,1.67,1.84-2,.65-1.44,2.24.74,2.24,1.28,0,2.21.89,2.61,2.5.65,2.6,1.85,3.22,2.91,1.5.34-.55,2-1,3.7-1a21.7,21.7,0,0,0,7.61-2.25c3.31-1.65,4.63-1.91,4.94-1a2.32,2.32,0,0,0,2.16,1.25c3,0,1.39-5.67-2.48-8.62-2.86-2.18-3.17-2.81-2.17-4.42,1.43-2.29.32-3.68-1.64-2.05-1,.79-1.65.84-2.07.17-.61-1-4.95-3.16-8.94-4.49a5.86,5.86,0,0,0-4.33,1c-1.34.88-3.09,1.34-3.9,1-1.79-.69-3.13,2.32-1.48,3.34.86.53.64,1.4-.82,3.15-2.49,3-2.22,4,1.49,5.83Zm5.43-151.42a2.14,2.14,0,0,0,1-1.56,1,1,0,0,0-1-.94c-.55,0-1,.7-1,1.56S3421.9,239.81,3422.45,239.47Zm1.75,14.32c4.68,3.32,13.49,7.18,16.37,7.18,4.82,0,7.82-1.79,9.6-5.72a31.69,31.69,0,0,1,3-5.33c1.25-1.54,2.45-14.31,1.56-16.7a1.89,1.89,0,0,0-3.59.2c-.31.8.15,2.87,1,4.6,1.44,2.88,1.43,3.28-.08,4.8-1.32,1.31-3.7,1.66-11.5,1.68s-10.66.44-13.72,2c-6.19,3.15-6.64,4.43-2.62,7.29Zm2,64.87c2.44.27,3.43.07,2.78-.55-1-.95-3.66-1.48-6.41-1.25C3420,317.07,3422.32,318.23,3426.17,318.66Zm18.89,16a2,2,0,0,0,.08-1.91c-.32-.8-.56-.57-.61.6s.19,1.64.53,1.31Zm2.83-96.73c.25,0,.72-.45,1.06-1s.14-1-.44-1a1,1,0,0,0-1.06,1C3447.45,237.52,3447.65,238,3447.89,238Zm.56,88.5c.55.34,1,.14,1-.44a1,1,0,0,0-1-1.06c-.55,0-1,.2-1,.44S3447.9,326.13,3448.45,326.47Zm7.44-183.5c.25,0,.72-.45,1.06-1s.14-1-.44-1a1,1,0,0,0-1.06,1C3455.45,142.52,3455.65,143,3455.89,143Zm9,163c1.06,0,1.5-1.92.58-2.49-.56-.34-1,.08-1,.93S3464.65,306,3464.89,306Zm9.56-5.5a2.14,2.14,0,0,0,1-1.56,1,1,0,0,0-1-.94c-.55,0-1,.7-1,1.56S3473.9,300.81,3474.45,300.47Zm2,48.5a1,1,0,0,0,1-1.06c0-.58-.45-.78-1-.44s-1,.82-1,1.06S3475.9,349,3476.45,349Z"/></g></svg>