<svg id="svg3027" xmlns="http://www.w3.org/2000/svg" viewBox="0 0 10299.76 3687.94"><defs><style>.cls-1{fill:none;stroke-width:20px;}.cls-1,.cls-2{stroke:#000;}.cls-2{stroke-width:7.62px;}</style></defs><title>dialogue box 2</title><path id="path3035" class="cls-1" d="M9998.57,2896.29c16.55-20.41,35-42.47,48.82-59.3,19.86-23.72,30.62-37,41.65-54.34,10.76-17.37,21.79-38.89,24-61.23s-3.86-45.79-14.9-74.47c-9.65-24.83-22.89-53.79-32.54-78.34,4.41-4.13,9.1-8,13.51-11.58,25.65-21.24,52.13-37.51,67.3-53.79,15.17-16.55,19-33.37,14.9-48-3.86-14.62-15.72-27-29.79-34.76a61,61,0,0,0-17.1-6.61,52.67,52.67,0,0,0,10.2-7.73,47.44,47.44,0,0,0,0-67,46.4,46.4,0,0,0-17.65-11V1384.22a50.06,50.06,0,0,0,17.65-11,47.45,47.45,0,0,0,0-67,45.33,45.33,0,0,0-10.2-7.72,81.21,81.21,0,0,0,17.1-6.62c14.07-7.72,25.65-20.14,29.79-34.75,3.86-14.62.27-31.45-14.9-48s-41.65-32.55-67.3-53.78c-4.41-3.87-9.1-7.73-13.51-11.59,9.65-24.27,23.17-53.23,32.54-78.33,11-28.69,17.1-51.86,14.9-74.48-2.21-22.34-13.24-43.85-24-61.23s-21.79-30.62-41.65-54.34c-14.07-16.82-32.27-38.61-48.82-59.3,2.21-3,4.14-6.07,6.34-8.82,14.07-18.76,27.31-30.35,35.31-36.14s11-5.51,13.79-.27,5.24,15.72,12.41,24c6.9,8.28,18.21,14.07,33.65,13.24,15.17-.82,34.21-8.27,51.86-24.55s33.65-41.65,43.86-73.37,14.61-69.78,7.72-117.77c-6.9-47.72-25.38-105.09-44.41-150.05-19-45.24-38.61-78.06-57.09-103.44s-36.14-42.75-53.79-60.4-35-35-60.41-53.79c-25.37-18.48-58.2-38.06-103.43-57.09s-102.33-37.52-150-44.41-86.06-2.48-117.78,7.72-57.09,26.21-73.37,43.86-23.72,36.68-24.54,51.85,5,26.48,13.24,33.65c8.27,6.9,18.75,9.66,24,12.42s5.52,5.79-.27,13.79-17.38,21-36.14,35.3c-2.76,2.21-5.79,4.14-8.82,6.35-20.41-16.55-42.48-35-59.31-48.82-23.72-19.86-37-30.62-54.33-41.65-17.38-10.76-38.89-21.79-61.24-24s-45.78,3.86-74.47,14.89c-24.82,9.66-53.78,22.9-78.33,32.55-4.14-4.41-8-9.1-11.59-13.51-21.24-25.66-37.51-52.13-53.78-67.31-16.55-15.17-33.38-19-48-14.89-14.62,3.86-27,15.72-34.75,29.79a61,61,0,0,0-6.62,17.1,52.3,52.3,0,0,0-7.72-10.2,47.43,47.43,0,0,0-67,0,46.17,46.17,0,0,0-11,17.65h-7678a49.83,49.83,0,0,0-11-17.65,47.43,47.43,0,0,0-67,0,45.11,45.11,0,0,0-7.72,10.2,81.21,81.21,0,0,0-6.62-17.1c-7.72-14.07-20.13-25.65-34.75-29.79-14.62-3.86-31.45-.28-48,14.89s-32.54,41.65-53.78,67.31c-3.86,4.41-7.73,9.1-11.59,13.51-24.27-9.65-53.23-23.17-78.33-32.55-28.69-11-51.86-17.1-74.47-14.89-22.35,2.21-43.86,13.24-61.24,24s-30.61,21.79-54.34,41.65c-16.82,14.06-38.61,32.27-59.3,48.82-3-2.21-6.07-4.14-8.82-6.35-18.76-14.06-30.34-27.3-36.14-35.3s-5.51-11-.27-13.79,15.72-5.24,24-12.42c8.28-6.89,14.07-18.2,13.24-33.65-.82-15.17-8.27-34.2-24.54-51.85S622,141.08,590.29,130.87s-69.79-14.62-117.78-7.72c-47.72,6.89-105.09,25.38-150,44.41-45.24,19-78.06,38.61-103.43,57.09s-42.76,36.14-60.41,53.79-35,35-53.79,60.4C86.35,364.22,66.77,397,47.74,442.28S10.23,544.61,3.33,592.33s-2.48,86,7.72,117.77,26.21,57.1,43.86,73.37S91.59,807.2,106.76,808s26.48-5,33.66-13.24c6.89-8.27,9.65-18.75,12.41-24s5.79-5.52,13.79.27,21,17.38,35.3,36.14c2.21,2.75,4.14,5.79,6.35,8.82-16.55,20.41-35,42.48-48.82,59.3-19.86,23.72-30.62,37-41.65,54.34C107,947,96,968.55,93.8,990.89s3.86,45.79,14.9,74.48c9.65,24.82,22.89,53.78,32.54,78.33-4.41,4.14-9.1,8-13.51,11.59-25.65,21.23-52.13,37.51-67.3,53.78-15.17,16.55-19,33.38-14.9,48,3.86,14.61,15.72,27,29.79,34.75a61.31,61.31,0,0,0,17.1,6.62,52.6,52.6,0,0,0-10.2,7.72,47.45,47.45,0,0,0,0,67,46.37,46.37,0,0,0,17.65,11v943.87a50,50,0,0,0-17.65,11,47.44,47.44,0,0,0,0,67,45.38,45.38,0,0,0,10.2,7.73,81.17,81.17,0,0,0-17.1,6.61c-14.07,7.73-25.65,20.14-29.79,34.76-3.86,14.62-.27,31.44,14.9,48s41.65,32.55,67.3,53.79c4.41,3.86,9.1,7.72,13.51,11.58-9.65,24.28-23.17,53.24-32.54,78.34-11,28.68-17.11,51.85-14.9,74.47,2.21,22.34,13.24,43.86,24,61.23s21.79,30.62,41.65,54.34c14.06,16.83,32.27,38.62,48.82,59.3-2.21,3-4.14,6.07-6.35,8.83-14.06,18.76-27.3,30.34-35.3,36.13s-11,5.52-13.79.28-5.24-15.72-12.41-24c-6.9-8.27-18.21-14.07-33.66-13.24-15.17.83-34.2,8.28-51.85,24.55s-33.65,41.65-43.86,73.37S-3.57,3072,3.33,3120c6.9,47.71,25.38,105.09,44.41,150.05,19,45.23,38.61,78.05,57.09,103.43s36.14,42.75,53.79,60.41,35,35,60.41,53.78c25.37,18.48,58.19,38.07,103.43,57.1s102.33,37.51,150.05,44.4,86.06,2.49,117.78-7.72,57.09-26.2,73.37-43.85,23.72-36.69,24.54-51.86-5-26.48-13.24-33.65c-8.27-6.9-18.75-9.65-24-12.41s-5.52-5.79.27-13.79,17.38-21,36.14-35.31c2.75-2.21,5.79-4.14,8.82-6.34,20.41,16.55,42.48,35,59.3,48.82,23.73,19.86,37,30.61,54.34,41.65,17.38,10.75,38.89,21.79,61.24,24s45.78-3.86,74.47-14.89c24.82-9.65,53.78-22.89,78.33-32.55,4.14,4.42,8,9.1,11.59,13.52,21.24,25.65,37.51,52.13,53.78,67.3,16.55,15.17,33.38,19,48,14.89,14.62-3.86,27-15.72,34.75-29.79a61.31,61.31,0,0,0,6.62-17.1,52.36,52.36,0,0,0,7.72,10.21,47.45,47.45,0,0,0,67,0,46.25,46.25,0,0,0,11-17.65h7678a49.92,49.92,0,0,0,11,17.65,47.45,47.45,0,0,0,67,0,45.39,45.39,0,0,0,7.72-10.21,80.79,80.79,0,0,0,6.62,17.1c7.72,14.07,20.13,25.66,34.75,29.79,14.62,3.87,31.45.28,48-14.89s32.54-41.65,53.78-67.3c3.86-4.42,7.73-9.1,11.59-13.52,24.27,9.66,53.23,23.17,78.33,32.55,28.69,11,51.86,17.1,74.47,14.89,22.35-2.2,43.86-13.24,61.24-24s30.61-21.79,54.33-41.65c16.83-14.07,38.62-32.27,59.31-48.82,3,2.2,6.06,4.13,8.82,6.34,18.76,14.07,30.34,27.31,36.14,35.31s5.51,11,.27,13.79-15.72,5.24-24,12.41c-8.28,6.9-14.07,18.2-13.24,33.65.82,15.17,8.27,34.2,24.54,51.86s41.65,33.65,73.37,43.85,69.79,14.62,117.78,7.72c47.72-6.89,105.09-25.37,150-44.4,45.23-19,78.06-38.62,103.43-57.1s42.76-36.13,60.41-53.78,35-35,53.79-60.41c18.48-25.38,38.06-58.2,57.09-103.43s37.51-102.34,44.41-150.05,2.48-86.06-7.72-117.78-26.21-57.1-43.86-73.37-36.69-23.72-51.86-24.55-26.47,5-33.65,13.24c-6.89,8.28-9.65,18.76-12.41,24s-5.79,5.51-13.79-.28-21-17.37-35.31-36.13C10002.71,2902.36,10000.78,2899.33,9998.57,2896.29Zm38.89-1781a364.11,364.11,0,0,1-28.13-35c-19-27.31-32-55.44-39.17-89.37s-8.27-73.64-1.38-106.46a194.93,194.93,0,0,1,15.45-43.86c11.31,16.27,19.31,30.34,24,43.3,6.35,17.66,6.07,32.83,5.25,51s-1.94,39.44,1.93,56a76.94,76.94,0,0,0,19,34.48c5.51,5.79,7.45,5.24,10.2,1.11a79.82,79.82,0,0,0,8.55-19.31c2.21-7.45,3.31-14.07,5-19.86s3.58-10.21,6.89-5c3.31,5,8,19.59,5.52,39.17s-12.14,43.86-22.06,67.85c-3.59,8.83-7.45,17.66-11,26.48ZM8941.61,3462a47.34,47.34,0,0,1,78.33-18.2,51.17,51.17,0,0,1,9.93,14.34,91.48,91.48,0,0,1,20.69-33.1c13-13.24,30.34-23.45,50.48-26.2,20.13-3,43,1.37,65.92,8.55,3.31,1.1,6.89,2.2,10.2,3.31,6.07-6.07,12.42-12.42,19-18.48,22.89-21.52,48.82-43.31,80.26-58.2,31.45-15.17,68.68-23.45,105.92-27s74.47-2.76,108.67,5a282.27,282.27,0,0,1,48.27,16c14.62-11.59,29.24-23.45,43.58-33.1,26.21-17.93,50.48-29.51,74.48-29,24,.83,47.44,13.51,67.57,35.58s37,53.51,53.79,78.61c16.55,25.1,32.82,44.41,54.34,57.37s48,19.86,71.43,20.69,43.86-4.69,59.58-11a135.21,135.21,0,0,0,35.31-21,210.52,210.52,0,0,0,21-19.31,250.65,250.65,0,0,0,19.31-21,143.32,143.32,0,0,0,21-35.3c6.35-15.73,11.86-36.14,11-59.58s-7.72-49.93-20.68-71.44-32-37.79-57.37-54.34c-25.1-16.55-56.55-33.37-78.61-53.78-22.07-20.14-35-43.86-35.59-67.58-.55-24,10.76-48.27,29-74.47,9.65-14.35,21.51-29.24,33.1-43.58a260.8,260.8,0,0,1-16-48.27c-8-34.21-8.83-71.44-5-108.68,3.59-37.23,11.86-74.47,27-105.92s37-57.64,58.2-80.26c6.35-6.62,12.41-13,18.48-19-1.1-3.31-2.2-6.9-3.31-10.21-7.17-23.17-11.58-46.06-8.55-65.92a89.58,89.58,0,0,1,26.21-50.48,87.79,87.79,0,0,1,33.09-20.68,42.1,42.1,0,0,1-14.34-9.93,47.34,47.34,0,0,1,18.21-78.34V1384.77a46.88,46.88,0,0,1-18.21-11.31,47.44,47.44,0,0,1,0-67,51.31,51.31,0,0,1,14.34-9.93,91.45,91.45,0,0,1-33.09-20.69c-13.24-13-23.45-30.34-26.21-50.47-3-20.14,1.38-43,8.55-65.93,1.11-3.31,2.21-6.89,3.31-10.2-6.07-6.07-12.41-12.41-18.48-19-21.51-22.9-43.3-48.83-58.2-80.27-15.17-31.44-23.44-68.68-27-105.92s-2.76-74.47,5-108.67a282.27,282.27,0,0,1,16-48.27c-11.59-14.62-23.45-29.24-33.1-43.58-17.93-26.2-29.52-50.48-29-74.47.83-24,13.52-47.45,35.59-67.58s53.51-37,78.61-53.79c25.1-16.55,44.4-32.82,57.37-54.33s19.86-48,20.68-71.44-4.68-43.86-11-59.58a135.22,135.22,0,0,0-21-35.31,211.73,211.73,0,0,0-19.31-21,252.24,252.24,0,0,0-21-19.31,143.4,143.4,0,0,0-35.31-21c-15.72-6.34-36.13-11.86-59.58-11s-49.92,7.72-71.43,20.68-37.79,32-54.34,57.38c-16.55,25.1-33.38,56.54-53.79,78.61-20.13,22.06-43.85,35-67.57,35.58-24,.55-48.27-10.76-74.48-29-14.34-9.66-29.23-21.52-43.58-33.1a260.54,260.54,0,0,1-48.27,16c-34.2,8-71.44,8.83-108.67,5-37.24-3.59-74.47-11.86-105.92-27s-57.65-37-80.26-58.2c-6.62-6.34-13-12.41-19-18.48-3.31,1.1-6.89,2.21-10.2,3.31-23.17,7.17-46.06,11.58-65.92,8.55a89.45,89.45,0,0,1-50.48-26.2,88.05,88.05,0,0,1-20.69-33.1,41.82,41.82,0,0,1-9.93,14.34,47.44,47.44,0,0,1-67,0,47,47,0,0,1-11.31-18.2c0-.28-.28,0-.55,0H1264.68c-.28,0-.55-.28-.55,0a47,47,0,0,1-11.31,18.2,47.45,47.45,0,0,1-67,0,51.31,51.31,0,0,1-9.93-14.34,91.68,91.68,0,0,1-20.68,33.1c-13,13.24-30.35,23.44-50.48,26.2-20.14,3-43-1.38-65.92-8.55-3.31-1.1-6.9-2.21-10.21-3.31-6.07,6.07-12.41,12.41-19,18.48-22.89,21.51-48.82,43.3-80.27,58.2-31.44,15.17-68.68,23.44-105.91,27s-74.47,2.76-108.68-5a283.42,283.42,0,0,1-48.27-16c-14.62,11.58-29.23,23.44-43.58,33.1-26.2,17.92-50.47,29.51-74.47,29-24-.83-47.44-13.52-67.58-35.58s-37-53.51-53.78-78.61c-16.55-25.1-32.83-44.41-54.34-57.38s-48-19.85-71.44-20.68-43.85,4.69-59.58,11a135.14,135.14,0,0,0-35.3,21,213.15,213.15,0,0,0-21,19.31,252.27,252.27,0,0,0-19.3,21,143.08,143.08,0,0,0-21,35.31c-6.34,15.72-11.86,36.13-11,59.58s7.72,49.92,20.69,71.44,32,37.78,57.37,54.33c25.1,16.55,56.54,33.38,78.61,53.79,22.07,20.13,35,43.86,35.58,67.58.55,24-10.76,48.27-29,74.47-9.65,14.34-21.51,29.24-33.1,43.58a260.55,260.55,0,0,1,16,48.27c8,34.2,8.83,71.44,5,108.67-3.58,37.24-11.86,74.48-27,105.92s-37,57.65-58.2,80.27c-6.34,6.62-12.41,13-18.48,19,1.11,3.31,2.21,6.89,3.31,10.2,7.17,23.17,11.59,46.07,8.55,65.93a89.45,89.45,0,0,1-26.2,50.47,87.85,87.85,0,0,1-33.1,20.69,41.73,41.73,0,0,1,14.34,9.93,47.44,47.44,0,0,1,0,67,46.84,46.84,0,0,1-18.2,11.31v943.32a47,47,0,0,1,18.2,11.31,47.45,47.45,0,0,1,0,67,51.17,51.17,0,0,1-14.34,9.93,91.46,91.46,0,0,1,33.1,20.68c13.24,13,23.45,30.35,26.2,50.48,3,20.14-1.38,43-8.55,65.92-1.1,3.31-2.2,6.9-3.31,10.21,6.07,6.07,12.42,12.41,18.48,19,21.52,22.89,43.31,48.82,58.2,80.26,15.17,31.45,23.45,68.69,27,105.92s2.76,74.47-5,108.68a283.44,283.44,0,0,1-16,48.27c11.59,14.61,23.45,29.23,33.1,43.58,17.93,26.2,29.51,50.47,29,74.47-.83,24-13.51,47.44-35.58,67.58s-53.51,37-78.61,53.78c-25.1,16.55-44.41,32.83-57.37,54.34s-19.86,48-20.69,71.44,4.69,43.85,11,59.58a135.13,135.13,0,0,0,21,35.3,210.6,210.6,0,0,0,19.3,21,250.79,250.79,0,0,0,21,19.31,143,143,0,0,0,35.3,21c15.73,6.34,36.14,11.86,59.58,11s49.93-7.72,71.44-20.69,37.79-32,54.34-57.37c16.55-25.1,33.37-56.54,53.78-78.61,20.14-22.07,43.86-35,67.58-35.58,24-.55,48.27,10.76,74.47,29,14.35,9.65,29.24,21.51,43.58,33.1a260.8,260.8,0,0,1,48.27-16c34.21-8,71.44-8.83,108.68-5,37.23,3.58,74.47,11.86,105.91,27s57.65,37,80.27,58.2c6.62,6.34,13,12.41,19,18.48,3.31-1.11,6.9-2.21,10.21-3.31,23.17-7.18,46.06-11.59,65.92-8.55a89.51,89.51,0,0,1,50.48,26.2,88,88,0,0,1,20.68,33.1,42,42,0,0,1,9.93-14.34,47.43,47.43,0,0,1,67,0,47,47,0,0,1,11.31,18.2c0,.28.27,0,.55,0H8941.06C8941.33,3462,8941.61,3462.29,8941.61,3462ZM9956.09,757.55c2.21-4.14,4.69-8,6.9-11.59,14.34-23.17,28.41-38.06,45.79-49.37s38.06-19,55.71-26.2,32-13.8,45.24-25.1a104.16,104.16,0,0,0,31.17-48.83c6.34-21.51,7.72-48,3-77s-14.89-60.41-25.38-86.61c-10.48-26.48-21.51-48-28.41-59.85s-9.92-14.07-8.82-7.45c.83,6.62,5.51,22.34,9.93,44.68s8.55,51.58,6.34,78.34a158.54,158.54,0,0,1-23.17,72c-12.69,21.24-30.06,39.72-52.68,57.92-22.34,18.48-49.65,36.69-64.27,55.72s-16.55,38.34-12.41,56.54c1.93,8.83,5.52,17.38,10.76,26.76Zm97.65,419c4.13,3.59,8,7.18,11.86,10.49,17.37,15.17,30.89,25.65,38.34,34.2,7.44,8.82,8.55,15.72,6.62,22.06a20.39,20.39,0,0,1-15.17,13.8c-7.73,1.65-18.21-.83-27-8.28s-16.54-19.86-18.48-35.3c-1.37-10.49,0-22.35,4.14-37.24Zm-843.2-887.88a364.24,364.24,0,0,0,35,28.14c27.31,19,55.44,32,89.37,39.17s73.64,8.27,106.46,1.37a194.93,194.93,0,0,0,43.86-15.44c-16.27-11.31-30.34-19.31-43.3-24-17.66-6.34-32.83-6.07-51-5.24s-39.44,1.93-56-1.93a77,77,0,0,1-34.48-19c-5.79-5.52-5.24-7.45-1.11-10.21a80.39,80.39,0,0,1,19.31-8.55c7.45-2.2,14.07-3.31,19.86-5s10.21-3.59,5-6.9c-5-3.31-19.59-8-39.17-5.51s-43.86,12.13-67.85,22.06c-8.83,3.59-17.66,7.45-26.48,11ZM9568.28,370c4.14-2.2,8-4.69,11.59-6.89,23.17-14.35,38.06-28.41,49.37-45.79s19-38.06,26.2-55.72,13.8-32,25.1-45.23a104,104,0,0,1,48.83-31.17c21.51-6.34,48-7.72,76.95-3s60.41,14.89,86.61,25.37A470.58,470.58,0,0,1,9952.78,236c11.86,6.9,14.07,9.93,7.45,8.83-6.62-.83-22.34-5.52-44.68-9.93s-51.58-8.55-78.34-6.35a158.78,158.78,0,0,0-72,23.17c-21.24,12.69-39.72,30.07-57.92,52.69-18.48,22.34-36.68,49.64-55.72,64.26s-38.34,16.55-56.54,12.42c-8.83-1.94-17.38-5.52-26.76-10.76Zm-419-97.64c-3.59-4.14-7.18-8-10.49-11.86-15.17-17.38-25.65-30.89-34.2-38.34-8.82-7.45-15.72-8.55-22.06-6.62a20.36,20.36,0,0,0-13.79,15.17c-1.66,7.72.82,18.21,8.27,27s19.86,16.55,35.31,18.48c10.48,1.38,22.34,0,37.23-4.14ZM10037.19,2597a364.24,364.24,0,0,0-28.14,35c-19,27.31-32,55.44-39.16,89.37s-8.28,73.65-1.38,106.47a195,195,0,0,0,15.44,43.85c11.31-16.27,19.31-30.34,24-43.3,6.34-17.65,6.07-32.82,5.24-51s-1.93-39.44,1.93-56a77,77,0,0,1,19-34.48c5.52-5.79,7.45-5.24,10.21-1.1a80.21,80.21,0,0,1,8.55,19.31c2.21,7.44,3.31,14.06,5,19.86s3.59,10.2,6.9,5c3.31-5,8-19.58,5.52-39.17s-12.14-43.85-22.07-67.85c-3.59-8.83-7.45-17.65-11-26.48Zm-81.37,357.75c2.2,4.14,4.69,8,6.89,11.58,14.35,23.17,28.41,38.07,45.79,49.38s38.06,19,55.72,26.2,32,13.79,45.23,25.1a104,104,0,0,1,31.17,48.82c6.34,21.51,7.72,48,3,77s-14.89,60.41-25.37,86.61a470.85,470.85,0,0,1-28.41,59.86c-6.9,11.86-9.93,14.06-8.83,7.44.83-6.61,5.52-22.34,9.93-44.68s8.55-51.58,6.35-78.33a158.62,158.62,0,0,0-23.17-72c-12.69-21.24-30.07-39.72-52.69-57.93-22.34-18.48-49.64-36.68-64.26-55.71s-16.55-38.34-12.41-56.55c1.93-8.82,5.51-17.37,10.75-26.75Zm97.64-419c4.14-3.59,8-7.17,11.86-10.48,17.38-15.17,30.89-25.65,38.34-34.2,7.45-8.83,8.55-15.73,6.62-22.07a20.37,20.37,0,0,0-15.17-13.79c-7.72-1.66-18.2.83-27,8.27s-16.55,19.86-18.48,35.31c-1.38,10.48,0,22.34,4.14,37.24Zm-843.2,887.88a362.59,362.59,0,0,1,35-28.13c27.31-19,55.44-32,89.37-39.17s73.65-8.28,106.47-1.38a195,195,0,0,1,43.85,15.45c-16.27,11.3-30.34,19.3-43.3,24-17.65,6.35-32.82,6.07-51,5.24s-39.44-1.93-56,1.93a76.93,76.93,0,0,0-34.48,19c-5.79,5.51-5.24,7.44-1.1,10.2a79.82,79.82,0,0,0,19.31,8.55c7.44,2.21,14.06,3.31,19.86,5s10.2,3.58,5,6.89c-5,3.31-19.58,8-39.17,5.52s-43.85-12.14-67.85-22.07c-8.83-3.58-17.65-7.44-26.48-11ZM9568,3342.3c4.14,2.21,8,4.69,11.58,6.9,23.17,14.34,38.07,28.41,49.38,45.78s19,38.07,26.2,55.72,13.79,32,25.1,45.24a104,104,0,0,0,48.82,31.16c21.51,6.35,48,7.73,77,3s60.4-14.9,86.6-25.38c26.48-10.48,48-21.51,59.86-28.41s14.07-9.93,7.45-8.82c-6.62.82-22.35,5.51-44.69,9.93s-51.58,8.55-78.33,6.34a158.62,158.62,0,0,1-72-23.17c-21.24-12.69-39.72-30.06-57.93-52.68-18.48-22.34-36.68-49.65-55.71-64.27s-38.34-16.55-56.55-12.41c-8.82,1.93-17.37,5.52-26.75,10.76Zm-419,97.64c-3.59,4.14-7.17,8-10.48,11.86-15.17,17.38-25.65,30.9-34.2,38.34-8.83,7.45-15.73,8.55-22.07,6.62a20.36,20.36,0,0,1-13.79-15.17c-1.66-7.72.83-18.2,8.27-27s19.86-16.55,35.31-18.48c10.48-1.38,22.34,0,37.24,4.14ZM168,2596.75a364.11,364.11,0,0,1,28.13,35c19,27.3,32,55.44,39.17,89.36s8.27,73.65,1.38,106.47a195.11,195.11,0,0,1-15.45,43.86c-11.31-16.28-19.31-30.34-24-43.31-6.35-17.65-6.07-32.82-5.25-51s1.94-39.45-1.93-56a76.89,76.89,0,0,0-19-34.47c-5.51-5.8-7.45-5.24-10.2-1.11a79.82,79.82,0,0,0-8.55,19.31c-2.21,7.45-3.31,14.07-5,19.86s-3.58,10.21-6.89,5c-3.31-5-8-19.58-5.52-39.16S147,2646.67,157,2622.67c3.59-8.82,7.45-17.65,11-26.47Zm81.37,357.74c-2.21,4.14-4.69,8-6.9,11.59-14.34,23.17-28.41,38.06-45.79,49.37s-38.06,19-55.71,26.2-32,13.79-45.24,25.1a104.17,104.17,0,0,0-31.17,48.82c-6.34,21.52-7.72,48-3,77s14.89,60.4,25.38,86.61c10.48,26.48,21.51,48,28.41,59.85s9.93,14.07,8.82,7.45c-.83-6.62-5.51-22.34-9.93-44.68s-8.55-51.58-6.34-78.34a158.54,158.54,0,0,1,23.17-72c12.69-21.24,30.06-39.72,52.68-57.92,22.34-18.48,49.65-36.69,64.27-55.72s16.55-38.34,12.41-56.54c-1.93-8.83-5.52-17.38-10.76-26.76Zm-97.65-419c-4.13-3.58-8-7.17-11.86-10.48-17.37-15.17-30.89-25.65-38.34-34.2-7.44-8.83-8.55-15.72-6.62-22.07A20.41,20.41,0,0,1,110.07,2455c7.73-1.65,18.21.83,27,8.28s16.54,19.86,18.48,35.3c1.37,10.48,0,22.35-4.14,37.24Zm843.2,887.88a364.11,364.11,0,0,0-35-28.13c-27.31-19-55.44-32-89.37-39.17s-73.64-8.27-106.46-1.38a195.42,195.42,0,0,0-43.86,15.45c16.27,11.31,30.34,19.31,43.3,24,17.66,6.34,32.83,6.06,51,5.24s39.44-1.93,56,1.93a77,77,0,0,1,34.48,19c5.79,5.52,5.24,7.45,1.11,10.21a80.79,80.79,0,0,1-19.31,8.55c-7.45,2.2-14.07,3.31-19.86,5s-10.21,3.59-5,6.9c5,3.31,19.59,8,39.17,5.51S945,3444.36,969,3434.43c8.83-3.59,17.66-7.45,26.48-11ZM637.18,3342c-4.14,2.2-8,4.68-11.59,6.89-23.17,14.34-38.06,28.41-49.37,45.79s-19,38.06-26.2,55.72-13.8,32-25.1,45.23a104.16,104.16,0,0,1-48.83,31.17c-21.51,6.34-48,7.72-76.95,3s-60.41-14.89-86.61-25.37a470.58,470.58,0,0,1-59.85-28.41c-11.86-6.9-14.07-9.93-7.45-8.83,6.62.83,22.34,5.52,44.68,9.93s51.58,8.55,78.34,6.34a158.54,158.54,0,0,0,72-23.17c21.24-12.68,39.72-30.06,57.92-52.68,18.48-22.34,36.68-49.65,55.72-64.26s38.34-16.55,56.54-12.42c8.83,1.93,17.38,5.52,26.76,10.76Zm419,97.64c3.59,4.14,7.18,8,10.49,11.86,15.17,17.38,25.65,30.89,34.2,38.34,8.82,7.45,15.72,8.55,22.06,6.62a20.36,20.36,0,0,0,13.79-15.17c1.66-7.73-.82-18.21-8.27-27s-19.86-16.55-35.31-18.48c-10.48-1.38-22.34,0-37.23,4.13ZM168.27,1115a364.24,364.24,0,0,0,28.14-35c19-27.31,32-55.44,39.16-89.37S243.85,917,237,884.15a195.28,195.28,0,0,0-15.44-43.86c-11.31,16.28-19.31,30.34-24,43.31-6.34,17.65-6.07,32.82-5.24,51s1.93,39.44-1.93,56a77.09,77.09,0,0,1-19,34.48c-5.52,5.79-7.45,5.24-10.21,1.1a80.21,80.21,0,0,1-8.55-19.31c-2.2-7.45-3.31-14.06-5-19.86s-3.59-10.2-6.9-5c-3.31,5-8,19.58-5.52,39.17s12.14,43.85,22.07,67.85c3.59,8.82,7.45,17.65,11,26.48Zm81.37-357.75c-2.2-4.14-4.69-8-6.89-11.58-14.35-23.17-28.41-38.07-45.79-49.38s-38.06-19-55.72-26.2S109.25,656.32,96,645a104,104,0,0,1-31.17-48.82c-6.34-21.52-7.72-48-3-77s14.89-60.4,25.37-86.61a471.26,471.26,0,0,1,28.41-59.85c6.9-11.86,9.93-14.07,8.83-7.45-.83,6.62-5.52,22.35-9.93,44.69s-8.55,51.58-6.35,78.33a158.62,158.62,0,0,0,23.17,72C144,581.57,161.38,600.05,184,618.25c22.34,18.49,49.64,36.69,64.26,55.72s16.55,38.34,12.42,56.55c-1.94,8.82-5.52,17.37-10.76,26.75Zm-97.64,419c-4.14,3.58-8,7.17-11.86,10.48-17.38,15.17-30.89,25.65-38.34,34.2-7.45,8.83-8.55,15.72-6.62,22.07a20.39,20.39,0,0,0,15.17,13.79c7.72,1.65,18.2-.83,27-8.28s16.55-19.85,18.48-35.3c1.38-10.48,0-22.34-4.14-37.24ZM995.2,288.37a364.11,364.11,0,0,1-35,28.13c-27.31,19-55.44,32-89.37,39.17s-73.65,8.27-106.47,1.38a195,195,0,0,1-43.85-15.45c16.27-11.31,30.34-19.31,43.3-24,17.65-6.35,32.82-6.07,51-5.24s39.44,1.93,56-1.94a76.94,76.94,0,0,0,34.48-19c5.79-5.51,5.24-7.44,1.1-10.2a79.82,79.82,0,0,0-19.31-8.55c-7.44-2.21-14.06-3.31-19.86-5s-10.2-3.58-5-6.89c5-3.31,19.58-8,39.17-5.52s43.85,12.14,67.85,22.07c8.83,3.58,17.65,7.44,26.48,11ZM637.45,369.74c-4.14-2.21-8-4.69-11.58-6.9-23.17-14.34-38.07-28.41-49.38-45.79s-19-38.06-26.2-55.71-13.79-32-25.1-45.24a104.12,104.12,0,0,0-48.82-31.17c-21.51-6.34-48-7.72-77-3s-60.4,14.89-86.6,25.38c-26.48,10.48-48,21.51-59.86,28.41s-14.07,9.93-7.45,8.82c6.62-.83,22.35-5.51,44.69-9.93s51.58-8.55,78.33-6.34a158.5,158.5,0,0,1,72,23.17c21.24,12.69,39.72,30.06,57.93,52.68,18.48,22.34,36.68,49.65,55.71,64.27s38.34,16.55,56.55,12.41c8.82-1.93,17.37-5.52,26.75-10.76Zm419-97.65c3.59-4.13,7.17-8,10.48-11.86,15.17-17.37,25.65-30.89,34.2-38.34,8.83-7.44,15.73-8.55,22.07-6.62A20.39,20.39,0,0,1,1137,230.45c1.66,7.72-.83,18.2-8.27,27S1108.84,274,1093.39,276c-10.48,1.38-22.34,0-37.24-4.14Z"/><path id="path3037" class="cls-1" d="M10090.42,188.24a47.45,47.45,0,1,0,47.44,47.45A47.44,47.44,0,0,0,10090.42,188.24Z"/><path id="path3039" class="cls-1" d="M115.32,3523.79a47.44,47.44,0,1,0-47.45-47.44A47.43,47.43,0,0,0,115.32,3523.79Z"/><path id="path3041" class="cls-1" d="M115.32,188.24a47.45,47.45,0,1,1-47.45,47.45A47.44,47.44,0,0,1,115.32,188.24Z"/><path id="path3043" class="cls-1" d="M10090.42,3523.79a47.44,47.44,0,1,1,47.44-47.44A47.43,47.43,0,0,1,10090.42,3523.79Z"/><path id="path3055" class="cls-2" d="M242.75,746C228.4,722.79,214.34,707.9,197,696.59s-38.06-19-55.72-26.2-32-13.8-45.23-25.1a104,104,0,0,1-31.17-48.83c-6.34-21.51-7.72-48-3-77S76.7,459.1,87.18,432.9a470.58,470.58,0,0,1,28.41-59.85c6.9-11.86,9.93-14.07,8.83-7.45-.83,6.62-5.52,22.34-9.93,44.68s-8.55,51.58-6.35,78.34a158.66,158.66,0,0,0,23.17,72C144,581.85,161.38,600.33,184,618.53c22.34,18.48,49.64,36.69,64.26,55.72s16.55,38.34,12.42,56.54c-1.94,8.83-5.52,17.38-10.76,26.76-2.21-4.14-4.69-8-6.9-11.59Zm54.33-3.31c17.93-26.2,29.52-50.47,29-74.47-.83-24-13.52-47.44-35.59-67.58s-53.51-37-78.61-53.78c-25.1-16.55-44.4-32.83-57.37-54.34s-19.86-48-20.68-71.44,4.68-43.86,11-59.58a135.14,135.14,0,0,1,21-35.3,213.15,213.15,0,0,1,19.31-21,252.27,252.27,0,0,1,21-19.3,143.08,143.08,0,0,1,35.31-21c15.72-6.34,36.13-11.86,59.58-11s49.92,7.72,71.43,20.69,37.79,32,54.34,57.37c16.55,25.1,33.38,56.54,53.79,78.61,20.13,22.06,43.85,35,67.57,35.58,24,.55,48.27-10.76,74.48-29,14.34-9.66,29.23-21.52,43.58-33.1a260.55,260.55,0,0,0,48.27,16c34.2,8,71.44,8.82,108.67,5,37.24-3.58,74.47-11.86,105.92-27s57.65-37,80.26-58.2c6.62-6.34,13-12.41,19-18.48,3.31,1.11,6.89,2.21,10.2,3.31,23.17,7.17,46.06,11.59,65.92,8.55A89.45,89.45,0,0,0,1154.9,287a88,88,0,0,0,20.69-33.1,41.73,41.73,0,0,0,9.93,14.34,47.44,47.44,0,0,0,67,0,47,47,0,0,0,11.31-18.2c0-.28.28,0,.55,0H8940.78c.28,0,.55-.28.55,0a47,47,0,0,0,11.31,18.2,47.45,47.45,0,0,0,67,0,51.17,51.17,0,0,0,9.93-14.34,91.59,91.59,0,0,0,20.68,33.1c13,13.24,30.35,23.44,50.48,26.2,20.14,3,43-1.38,65.92-8.55,3.31-1.1,6.9-2.2,10.21-3.31,6.07,6.07,12.41,12.41,19,18.48,22.89,21.52,48.82,43.31,80.27,58.2,31.44,15.17,68.68,23.45,105.91,27s74.47,2.76,108.68-5a283.44,283.44,0,0,0,48.27-16c14.62,11.58,29.23,23.44,43.58,33.1,26.2,17.93,50.47,29.51,74.47,29,24-.83,47.44-13.52,67.58-35.58s37-53.51,53.78-78.61c16.55-25.1,32.83-44.41,54.34-57.37s48-19.86,71.44-20.69,43.85,4.69,59.58,11a135.13,135.13,0,0,1,35.3,21,211.92,211.92,0,0,1,21,19.3,252.53,252.53,0,0,1,19.3,21,143,143,0,0,1,21,35.3c6.34,15.72,11.86,36.14,11,59.58s-7.72,49.92-20.69,71.44-32,37.79-57.37,54.34c-25.1,16.55-56.54,33.37-78.61,53.78-22.07,20.14-35,43.86-35.58,67.58-.55,24,10.76,48.27,29,74.47,9.65,14.34,21.51,29.24,33.1,43.58a260.8,260.8,0,0,0-16,48.27c-8,34.2-8.82,71.44-5,108.68,3.58,37.23,11.86,74.47,27,105.91s37,57.65,58.2,80.27c6.34,6.62,12.41,13,18.48,19-1.11,3.31-2.21,6.9-3.31,10.21-7.17,23.17-11.59,46.06-8.55,65.92a89.45,89.45,0,0,0,26.2,50.47,87.85,87.85,0,0,0,33.1,20.69,42,42,0,0,0-14.34,9.93,47.45,47.45,0,0,0,0,67,46.82,46.82,0,0,0,18.2,11.3v943.33a46.82,46.82,0,0,0-18.2,11.3,47.45,47.45,0,0,0,0,67,51.17,51.17,0,0,0,14.34,9.93,91.48,91.48,0,0,0-33.1,20.69c-13.24,13-23.45,30.34-26.2,50.47-3,20.14,1.38,43,8.55,65.93,1.1,3.3,2.2,6.89,3.31,10.2-6.07,6.07-12.42,12.41-18.48,19-21.52,22.9-43.31,48.82-58.2,80.27-15.17,31.44-23.45,68.68-27,105.91s-2.76,74.48,5,108.68a283.44,283.44,0,0,0,16,48.27c-11.59,14.62-23.45,29.24-33.1,43.58-17.93,26.2-29.51,50.47-29,74.47.83,24,13.51,47.44,35.58,67.58s53.51,37,78.61,53.78c25.1,16.55,44.41,32.83,57.37,54.34s19.86,48,20.69,71.44-4.69,43.86-11,59.58a135.13,135.13,0,0,1-21,35.3,210.79,210.79,0,0,1-19.3,21,250.81,250.81,0,0,1-21,19.3,143,143,0,0,1-35.3,21c-15.73,6.34-36.14,11.86-59.58,11s-49.93-7.72-71.44-20.69-37.79-32-54.34-57.37c-16.55-25.1-33.37-56.54-53.78-78.61-20.14-22.06-43.86-35-67.58-35.58-24-.55-48.27,10.76-74.47,29-14.35,9.66-29.24,21.52-43.58,33.1a261.55,261.55,0,0,0-48.27-16c-34.21-8-71.44-8.82-108.68-5-37.23,3.58-74.47,11.86-105.91,27s-57.65,37-80.27,58.2c-6.62,6.34-13,12.41-19,18.48-3.31-1.1-6.9-2.21-10.21-3.31-23.17-7.17-46.06-11.59-65.92-8.55a89.51,89.51,0,0,0-50.48,26.2,88,88,0,0,0-20.68,33.1,42.1,42.1,0,0,0-9.93-14.34,47.45,47.45,0,0,0-67,0,47,47,0,0,0-11.31,18.2c0,.28-.27,0-.55,0H1264.4c-.27,0-.55.28-.55,0a47,47,0,0,0-11.31-18.2,47.44,47.44,0,0,0-67,0,51.31,51.31,0,0,0-9.93,14.34,91.57,91.57,0,0,0-20.69-33.1c-13-13.24-30.34-23.44-50.48-26.2-20.13-3-43,1.38-65.92,8.55-3.31,1.1-6.89,2.21-10.2,3.31-6.07-6.07-12.42-12.41-19-18.48-22.89-21.52-48.82-43.31-80.26-58.2-31.45-15.17-68.68-23.45-105.92-27s-74.47-2.76-108.67,5a284,284,0,0,0-48.27,16c-14.62-11.58-29.24-23.44-43.58-33.1-26.21-17.93-50.48-29.51-74.48-29-24,.83-47.44,13.52-67.57,35.58s-37,53.51-53.79,78.61c-16.55,25.1-32.82,44.41-54.34,57.37s-48,19.86-71.43,20.69-43.86-4.69-59.58-11a135.21,135.21,0,0,1-35.31-21,211.72,211.72,0,0,1-21-19.3,250.91,250.91,0,0,1-19.31-21,143.32,143.32,0,0,1-21-35.3c-6.35-15.72-11.86-36.13-11-59.58s7.72-49.92,20.68-71.44,32-37.79,57.37-54.34c25.1-16.54,56.55-33.37,78.61-53.78,22.07-20.14,35-43.86,35.59-67.58.55-24-10.76-48.27-29-74.47-9.65-14.34-21.51-29.24-33.1-43.58a260.8,260.8,0,0,0,16-48.27c8-34.2,8.83-71.44,5-108.68-3.59-37.23-11.86-74.47-27-105.91s-37-57.65-58.2-80.27c-6.35-6.62-12.41-13-18.48-19,1.1-3.31,2.2-6.9,3.31-10.2,7.17-23.17,11.58-46.07,8.55-65.93a89.52,89.52,0,0,0-26.21-50.47,87.81,87.81,0,0,0-33.09-20.69,42.1,42.1,0,0,0,14.34-9.93,47.45,47.45,0,0,0,0-67,46.85,46.85,0,0,0-18.21-11.3V1383.94a46.85,46.85,0,0,0,18.21-11.3,47.45,47.45,0,0,0,0-67,51.31,51.31,0,0,0-14.34-9.93A91.45,91.45,0,0,0,166.89,1275c13.24-13,23.45-30.34,26.21-50.47,3-20.14-1.38-43-8.55-65.92-1.11-3.31-2.21-6.9-3.31-10.21,6.07-6.07,12.41-12.41,18.48-19,21.51-22.89,43.3-48.82,58.2-80.27,15.17-31.44,23.44-68.68,27-105.91s2.76-74.48-5-108.68a282.56,282.56,0,0,0-16-48.27C275.57,771.61,287.43,757,297.08,742.65ZM10107,2328.09V1384.22a50.06,50.06,0,0,0,17.65-11,47.45,47.45,0,0,0,0-67,45.33,45.33,0,0,0-10.2-7.72,81.21,81.21,0,0,0,17.1-6.62c14.07-7.72,25.65-20.14,29.79-34.75,3.86-14.62.27-31.45-14.9-48s-41.65-32.55-67.3-53.78c-4.41-3.87-9.1-7.73-13.51-11.59,9.65-24.27,23.17-53.23,32.54-78.33,11-28.69,17.1-51.86,14.9-74.48-2.21-22.34-13.24-43.85-24-61.23s-21.79-30.62-41.65-54.34c-14.07-16.82-32.27-38.61-48.82-59.3,2.21-3,4.14-6.07,6.34-8.82,14.07-18.76,27.31-30.35,35.31-36.14s11-5.51,13.79-.27,5.24,15.72,12.41,24c6.9,8.28,18.21,14.07,33.65,13.24,15.17-.82,34.21-8.27,51.86-24.55s33.65-41.65,43.86-73.37,14.61-69.78,7.72-117.77c-6.9-47.72-25.38-105.09-44.41-150.05-19-45.24-38.61-78.06-57.09-103.44s-36.14-42.75-53.79-60.4-35-35-60.41-53.79c-25.37-18.48-58.2-38.06-103.43-57.09s-102.33-37.52-150-44.41-86.06-2.48-117.78,7.72-57.09,26.21-73.37,43.86-23.72,36.68-24.54,51.85,5,26.48,13.24,33.65c8.27,6.9,18.75,9.66,24,12.42s5.52,5.79-.27,13.79-17.38,21-36.14,35.3c-2.76,2.21-5.79,4.14-8.82,6.35-20.41-16.55-42.48-35-59.31-48.82-23.72-19.86-37-30.62-54.33-41.65-17.38-10.76-38.89-21.79-61.24-24s-45.78,3.86-74.47,14.89c-24.82,9.66-53.78,22.9-78.33,32.55-4.14-4.41-8-9.1-11.59-13.51-21.24-25.66-37.51-52.13-53.78-67.31-16.55-15.17-33.38-19-48-14.89-14.62,3.86-27,15.72-34.75,29.79a61,61,0,0,0-6.62,17.1,52.3,52.3,0,0,0-7.72-10.2,47.43,47.43,0,0,0-67,0,46.17,46.17,0,0,0-11,17.65h-7678a49.83,49.83,0,0,0-11-17.65,47.43,47.43,0,0,0-67,0,45.11,45.11,0,0,0-7.72,10.2,81.21,81.21,0,0,0-6.62-17.1c-7.72-14.07-20.13-25.65-34.75-29.79-14.62-3.86-31.45-.28-48,14.89s-32.54,41.65-53.78,67.31c-3.86,4.41-7.73,9.1-11.59,13.51-24.27-9.65-53.23-23.17-78.33-32.55-28.69-11-51.86-17.1-74.47-14.89-22.35,2.21-43.86,13.24-61.24,24s-30.61,21.79-54.34,41.65c-16.82,14.06-38.61,32.27-59.3,48.82-3-2.21-6.07-4.14-8.82-6.35-18.76-14.06-30.34-27.3-36.14-35.3s-5.51-11-.27-13.79,15.72-5.24,24-12.42c8.28-6.89,14.07-18.2,13.24-33.65-.82-15.17-8.27-34.2-24.54-51.85S622,141.08,590.29,130.87s-69.79-14.62-117.78-7.72c-47.72,6.89-105.09,25.38-150,44.41-45.24,19-78.06,38.61-103.43,57.09s-42.76,36.14-60.41,53.79-35,35-53.79,60.4C86.35,364.22,66.77,397,47.74,442.28S10.23,544.61,3.33,592.33s-2.48,86,7.72,117.77,26.21,57.1,43.86,73.37S91.59,807.2,106.76,808s26.48-5,33.66-13.24c6.89-8.27,9.65-18.75,12.41-24s5.79-5.52,13.79.27,21,17.38,35.3,36.14c2.21,2.75,4.14,5.79,6.35,8.82-16.55,20.41-35,42.48-48.82,59.3-19.86,23.72-30.62,37-41.65,54.34C107,947,96,968.55,93.8,990.89s3.86,45.79,14.9,74.48c9.65,24.82,22.89,53.78,32.54,78.33-4.41,4.14-9.1,8-13.51,11.59-25.65,21.23-52.13,37.51-67.3,53.78-15.17,16.55-19,33.38-14.9,48,3.86,14.61,15.72,27,29.79,34.75a61.31,61.31,0,0,0,17.1,6.62,52.6,52.6,0,0,0-10.2,7.72,47.45,47.45,0,0,0,0,67,46.37,46.37,0,0,0,17.65,11v943.87a50,50,0,0,0-17.65,11,47.44,47.44,0,0,0,0,67,45.38,45.38,0,0,0,10.2,7.73,81.17,81.17,0,0,0-17.1,6.61c-14.07,7.73-25.65,20.14-29.79,34.76-3.86,14.62-.27,31.44,14.9,48s41.65,32.55,67.3,53.79c4.41,3.86,9.1,7.72,13.51,11.58-9.65,24.28-23.17,53.24-32.54,78.34-11,28.68-17.11,51.85-14.9,74.47,2.21,22.34,13.24,43.86,24,61.23s21.79,30.62,41.65,54.34c14.06,16.83,32.27,38.62,48.82,59.3-2.21,3-4.14,6.07-6.35,8.83-14.06,18.76-27.3,30.34-35.3,36.13s-11,5.52-13.79.28-5.24-15.72-12.41-24c-6.9-8.27-18.21-14.07-33.66-13.24-15.17.83-34.2,8.28-51.85,24.55s-33.65,41.65-43.86,73.37S-3.57,3072,3.33,3120c6.9,47.71,25.38,105.09,44.41,150.05,19,45.23,38.61,78.05,57.09,103.43s36.14,42.75,53.79,60.41,35,35,60.41,53.78c25.37,18.48,58.19,38.07,103.43,57.1s102.33,37.51,150.05,44.4,86.06,2.49,117.78-7.72,57.09-26.2,73.37-43.85,23.72-36.69,24.54-51.86-5-26.48-13.24-33.65c-8.27-6.9-18.75-9.65-24-12.41s-5.52-5.79.27-13.79,17.38-21,36.14-35.31c2.75-2.21,5.79-4.14,8.82-6.34,20.41,16.55,42.48,35,59.3,48.82,23.73,19.86,37,30.61,54.34,41.65,17.38,10.75,38.89,21.79,61.24,24s45.78-3.86,74.47-14.89c24.82-9.65,53.78-22.89,78.33-32.55,4.14,4.42,8,9.1,11.59,13.52,21.24,25.65,37.51,52.13,53.78,67.3,16.55,15.17,33.38,19,48,14.89,14.62-3.86,27-15.72,34.75-29.79a61.31,61.31,0,0,0,6.62-17.1,52.36,52.36,0,0,0,7.72,10.21,47.45,47.45,0,0,0,67,0,46.25,46.25,0,0,0,11-17.65h7678a49.92,49.92,0,0,0,11,17.65,47.45,47.45,0,0,0,67,0,45.39,45.39,0,0,0,7.72-10.21,80.79,80.79,0,0,0,6.62,17.1c7.72,14.07,20.13,25.66,34.75,29.79,14.62,3.87,31.45.28,48-14.89s32.54-41.65,53.78-67.3c3.86-4.42,7.73-9.1,11.59-13.52,24.27,9.66,53.23,23.17,78.33,32.55,28.69,11,51.86,17.1,74.47,14.89,22.35-2.2,43.86-13.24,61.24-24s30.61-21.79,54.33-41.65c16.83-14.07,38.62-32.27,59.31-48.82,3,2.2,6.06,4.13,8.82,6.34,18.76,14.07,30.34,27.31,36.14,35.31s5.51,11,.27,13.79-15.72,5.24-24,12.41c-8.28,6.9-14.07,18.2-13.24,33.65.82,15.17,8.27,34.2,24.54,51.86s41.65,33.65,73.37,43.85,69.79,14.62,117.78,7.72c47.72-6.89,105.09-25.37,150-44.4,45.23-19,78.06-38.62,103.43-57.1s42.76-36.13,60.41-53.78,35-35,53.79-60.41c18.48-25.38,38.06-58.2,57.09-103.43s37.51-102.34,44.41-150.05,2.48-86.06-7.72-117.78-26.21-57.1-43.86-73.37-36.69-23.72-51.86-24.55-26.47,5-33.65,13.24c-6.89,8.28-9.65,18.76-12.41,24s-5.79,5.51-13.79-.28-21-17.37-35.31-36.13c-2.2-2.76-4.13-5.79-6.34-8.83,16.55-20.41,35-42.47,48.82-59.3,19.86-23.72,30.62-37,41.65-54.34,10.76-17.37,21.79-38.89,24-61.23s-3.86-45.79-14.9-74.47c-9.65-24.83-22.89-53.79-32.54-78.34,4.41-4.13,9.1-8,13.51-11.58,25.65-21.24,52.13-37.51,67.3-53.79,15.17-16.55,19-33.37,14.9-48-3.86-14.62-15.72-27-29.79-34.76a61,61,0,0,0-17.1-6.61,52.67,52.67,0,0,0,10.2-7.73,47.44,47.44,0,0,0,0-67A46.4,46.4,0,0,0,10107,2328.09Zm-69.78-1212.52a364.24,364.24,0,0,1-28.14-35c-19-27.31-32-55.44-39.16-89.37s-8.28-73.65-1.38-106.47A195,195,0,0,1,9984,840.85c11.31,16.27,19.31,30.34,24,43.3,6.34,17.65,6.07,32.82,5.24,51s-1.93,39.44,1.93,56a77,77,0,0,0,19,34.48c5.52,5.79,7.45,5.24,10.21,1.1a80.21,80.21,0,0,0,8.55-19.31c2.21-7.44,3.31-14.06,5-19.86s3.59-10.2,6.9-5c3.31,5,8,19.58,5.52,39.17s-12.14,43.85-22.07,67.85c-3.59,8.83-7.45,17.65-11,26.48Zm-81.37-357.75c-5.24-9.38-8.83-17.93-10.76-26.75-4.14-17.93-2.21-37.51,12.41-56.55s41.93-37.23,64.27-55.71,39.72-36.69,52.68-57.93a165.4,165.4,0,0,0,23.17-72c1.93-26.75-1.93-56-6.34-78.33s-9.1-38.07-9.93-44.68,1.93-4.42,8.82,7.44,17.66,33.38,28.41,59.86c10.49,26.48,21,57.64,25.38,86.61,4.69,29,3.31,55.71-3,77a102.77,102.77,0,0,1-31.17,48.82c-13,11.31-27.58,17.93-45.24,25.1s-38.34,14.9-55.71,26.21-31.45,26.2-45.79,49.37c-2.21,3.58-4.69,7.44-6.9,11.58Zm93.5,456.22c-1.38-10.48,0-22.35,4.14-37.24,4.14,3.59,8,7.17,11.86,10.48,17.38,15.17,30.89,25.65,38.34,34.2,7.45,8.83,8.55,15.73,6.62,22.07a20.37,20.37,0,0,1-15.17,13.79c-7.72,1.66-18.2-.83-27-8.27s-16.55-19.86-18.48-35.31Zm-804-897a306.9,306.9,0,0,1-35-28.13c8.83-3.59,17.66-7.45,26.48-11,23.72-9.93,48.27-19.59,67.86-22.07s34.2,2.21,39.16,5.52.55,5.51-5,6.89c-5.79,1.66-12.69,2.49-19.86,5a92.45,92.45,0,0,0-19.31,8.55c-4.14,2.76-4.69,4.69,1.1,10.2a79.77,79.77,0,0,0,34.48,19c16.55,4.13,37.79,2.75,56,1.93s33.38-1.11,51,5.24c13,4.69,27,12.69,43.31,24a195.28,195.28,0,0,1-43.86,15.45c-32.82,6.9-72.54,5.79-106.47-1.38s-62.06-20.13-89.37-39.17Zm322.44,53.24c4.14-2.21,8-4.69,11.59-6.9,23.17-14.34,38.06-28.41,49.37-45.78s19-38.07,26.2-55.72,13.79-32,25.1-45.24a104.08,104.08,0,0,1,48.82-31.16c21.52-6.35,48-7.73,77-3s60.4,14.9,86.61,25.38c26.48,10.48,48,21.51,59.85,28.41s14.07,9.93,7.45,8.82c-6.62-.82-22.34-5.51-44.68-9.93s-51.58-8.55-78.34-6.34a158.66,158.66,0,0,0-72,23.17c-21.24,12.69-39.72,30.06-57.92,52.68-18.48,22.34-36.69,49.65-55.72,64.27s-38.34,16.55-56.54,12.41c-8.83-1.93-17.38-5.52-26.76-10.76Zm-456.21-93.51c-15.45-1.93-27.86-9.37-35.31-18.48-7.44-8.82-9.93-19.3-8.27-27a20.36,20.36,0,0,1,13.79-15.17c6.34-1.93,13.51-.83,22.06,6.62,8.83,7.45,19.31,21,34.21,38.34,3.31,3.86,6.89,7.72,10.48,11.86-14.9,4.14-26.76,5.52-37.24,4.14Zm897,2355.55a307.33,307.33,0,0,1,28.13-35c3.59,8.83,7.45,17.65,11,26.48,9.93,23.72,19.58,48.27,22.06,67.85s-2.2,34.2-5.51,39.17-5.52.55-6.9-5c-1.65-5.79-2.48-12.68-5-19.86a92.86,92.86,0,0,0-8.55-19.3c-2.76-4.14-4.69-4.69-10.21,1.1a79.71,79.71,0,0,0-19,34.48c-4.14,16.55-2.76,37.79-1.93,56s1.1,33.37-5.24,51c-4.69,13-12.69,27-24,43.3a195.51,195.51,0,0,1-15.45-43.85c-6.89-32.83-5.79-72.55,1.38-106.47s20.14-62.06,39.17-89.37Zm-64,349.19c1.93-8.82,5.52-17.37,10.76-26.75,2.2,4.14,4.69,8,6.89,11.58,14.34,23.17,28.41,38.07,45.79,49.38s38.06,19,55.72,26.2,32,13.79,45.23,25.1a104,104,0,0,1,31.17,48.82c6.34,21.51,7.72,48,3,77s-14.89,60.41-25.37,86.61a470.85,470.85,0,0,1-28.41,59.86c-6.9,11.86-9.93,14.06-8.83,7.44.83-6.61,5.52-22.34,9.93-44.68s8.55-51.58,6.34-78.33a158.61,158.61,0,0,0-23.16-72c-12.69-21.24-30.07-39.72-52.69-57.93-22.34-18.48-49.65-36.68-64.26-55.71s-16.55-38.34-12.42-56.55Zm108.4-445.73c-4.14-14.89-5.52-26.76-4.14-37.24,1.93-15.44,9.38-27.85,18.48-35.3,8.83-7.45,19.31-9.93,27-8.28a20.38,20.38,0,0,1,15.17,13.79c1.93,6.35.83,13.52-6.62,22.07-7.44,8.83-21,19.31-38.34,34.2-3.86,3.31-7.72,6.9-11.86,10.48Zm-843.2,887.88a362.59,362.59,0,0,1,35-28.13c27.31-19,55.44-32,89.37-39.17s73.64-8.28,106.47-1.38a195,195,0,0,1,43.85,15.45c-16.27,11.3-30.34,19.3-43.3,24-17.65,6.35-32.82,6.07-51,5.24s-39.44-1.93-56,1.93a76.93,76.93,0,0,0-34.48,19c-5.79,5.51-5.24,7.44-1.1,10.2a79.65,79.65,0,0,0,19.31,8.55c7.44,2.21,14.06,3.31,19.85,5s10.21,3.58,5,6.89c-5,3.31-19.58,8-39.17,5.52s-43.85-12.14-67.85-22.07c-8.83-3.58-17.65-7.44-26.48-11ZM9579,3349.2c-3.58-2.21-7.45-4.69-11.58-6.9,9.37-5.24,17.93-8.82,26.75-10.76,17.93-4.13,37.51-2.2,56.55,12.42s37.23,41.92,55.71,64.26,36.69,39.72,57.93,52.69a165.61,165.61,0,0,0,72,23.17c26.75,1.93,56-1.94,78.33-6.35s38.06-9.1,44.68-9.93,4.42,1.93-7.44,8.83-33.38,17.65-59.86,28.41c-26.48,10.48-57.64,21-86.61,25.37-29,4.69-55.71,3.31-76.95-3a102.57,102.57,0,0,1-48.82-31.17c-11.31-13-17.93-27.58-25.1-45.23s-14.9-38.34-26.21-55.72-26.2-31.44-49.37-45.79Zm-467.8,86.61c10.48-1.38,22.34,0,37.24,4.13-3.59,4.14-7.17,8-10.48,11.86-15.17,17.38-25.65,30.9-34.21,38.34-8.82,7.45-15.72,8.55-22.06,6.62a20.34,20.34,0,0,1-13.79-15.17c-1.66-7.72.83-18.2,8.27-27s19.86-16.55,35.31-18.48ZM94.35,1243.55c-1.93-6.34-.82-13.52,6.62-22.07,7.45-8.82,21-19.3,38.34-34.2,3.86-3.31,7.73-6.89,11.86-10.48,4.14,14.89,5.52,26.76,4.14,37.24-1.93,15.44-9.38,27.86-18.48,35.3-8.83,7.45-19.31,9.93-27,8.28a20.39,20.39,0,0,1-15.17-13.79Zm73.1,1353.2a364.11,364.11,0,0,1,28.13,35c19,27.3,32,55.44,39.17,89.36s8.27,73.65,1.38,106.47a195.6,195.6,0,0,1-15.45,43.86c-11.31-16.28-19.31-30.34-24-43.31-6.34-17.65-6.06-32.82-5.24-51s1.93-39.45-1.93-56a77,77,0,0,0-19-34.47c-5.52-5.8-7.45-5.24-10.21-1.11a80.61,80.61,0,0,0-8.55,19.31c-2.2,7.45-3.31,14.07-5,19.86s-3.59,10.21-6.9,5c-3.31-5-8-19.58-5.51-39.16s12.13-43.86,22.06-67.86c3.59-8.82,7.45-17.65,11-26.47Zm74.47,369.33c2.21-3.59,4.69-7.45,6.89-11.59,5.25,9.38,8.83,17.93,10.76,26.76,4.14,17.93,2.21,37.51-12.41,56.54s-41.93,37.24-64.27,55.72-39.72,36.68-52.68,57.92a165.57,165.57,0,0,0-23.17,72c-1.93,26.76,1.93,56,6.34,78.34s9.11,38.06,9.93,44.68-1.93,4.41-8.82-7.45-17.65-33.37-28.41-59.85c-10.48-26.48-21-57.65-25.38-86.61-4.69-29-3.31-55.72,3-77a102.69,102.69,0,0,1,31.16-48.82c13-11.31,27.59-17.93,45.24-25.1s38.34-14.89,55.72-26.2,31.44-26.2,45.78-49.37ZM136.83,2463c8.83,7.45,16.55,19.86,18.48,35.31,1.38,10.48,0,22.34-4.14,37.23-4.13-3.58-8-7.17-11.86-10.48-17.37-15.17-30.89-25.65-38.34-34.2-7.44-8.83-8.55-15.72-6.62-22.07A20.39,20.39,0,0,1,109.52,2455c7.73-1.65,18.21.83,27,8.28Zm33.93-1438.15a79.82,79.82,0,0,0,19-34.48c4.14-16.55,2.76-37.79,1.93-56s-1.1-33.37,5.24-51c4.69-13,12.69-27,24-43.3a195,195,0,0,1,15.44,43.85c6.9,32.83,5.79,72.55-1.38,106.47s-20.13,62.06-39.16,89.37a306.33,306.33,0,0,1-28.14,35c-3.58-8.83-7.45-17.65-11-26.48-9.93-23.72-19.58-48.27-22.07-67.85s2.21-34.2,5.52-39.17,5.52-.55,6.9,5c1.65,5.79,2.48,12.68,5,19.85a92.73,92.73,0,0,0,8.55,19.31c2.76,4.14,4.69,4.69,10.21-1.1ZM959.34,3395.26a306.24,306.24,0,0,1,35,28.13c-8.83,3.59-17.65,7.45-26.48,11-23.72,9.93-48.27,19.58-67.85,22.06s-34.21-2.2-39.17-5.51-.55-5.52,5-6.9c5.8-1.65,12.69-2.48,19.86-5a93,93,0,0,0,19.31-8.55c4.14-2.76,4.69-4.69-1.1-10.21a79.71,79.71,0,0,0-34.48-19c-16.55-4.14-37.79-2.76-56-1.93s-33.38,1.1-51-5.24c-13-4.69-27-12.69-43.3-24A195.51,195.51,0,0,1,763,3354.71c32.83-6.89,72.54-5.79,106.47,1.38s62.06,20.14,89.37,39.17Zm-349.19-64c8.82,1.93,17.37,5.52,26.75,10.76-4.14,2.2-8,4.68-11.58,6.89-23.17,14.34-38.07,28.41-49.38,45.79s-19,38.06-26.2,55.72-13.79,32-25.1,45.23a104.12,104.12,0,0,1-48.82,31.17c-21.52,6.34-48,7.72-77,3s-60.4-14.89-86.61-25.37a471.26,471.26,0,0,1-59.85-28.41c-11.86-6.9-14.07-9.93-7.45-8.83,6.62.83,22.34,5.52,44.69,9.93s51.58,8.55,78.33,6.34a158.5,158.5,0,0,0,72-23.17c21.24-12.68,39.72-30.06,57.92-52.68,18.48-22.34,36.69-49.65,55.72-64.26s38.34-16.55,56.55-12.42Zm445.73,108.4c14.89-4.14,26.75-5.52,37.23-4.14,15.45,1.93,27.86,9.38,35.31,18.48,7.45,8.83,9.93,19.31,8.27,27a20.36,20.36,0,0,1-13.79,15.17c-6.34,1.93-13.51.83-22.06-6.62-8.83-7.45-19.31-21-34.2-38.34-3.31-3.86-6.9-7.72-10.49-11.86ZM870,355.67c-33.92,7.17-73.64,8.27-106.47,1.38a195,195,0,0,1-43.85-15.45c16.27-11.31,30.34-19.31,43.3-24,17.65-6.35,32.83-6.07,51-5.24s39.44,1.93,56-1.94a76.94,76.94,0,0,0,34.48-19c5.79-5.51,5.24-7.44,1.1-10.2a79.73,79.73,0,0,0-19.3-8.55c-7.45-2.21-14.07-3.31-19.86-5s-10.21-3.58-5-6.89c5-3.31,19.59-8,39.17-5.52s43.85,12.14,67.85,22.07c8.83,3.58,17.65,7.44,26.48,11a364.11,364.11,0,0,1-35,28.13c-27.31,19-55.44,32-89.37,39.17ZM610.15,380.49c-17.93,4.14-37.52,2.21-56.55-12.41s-37.24-41.92-55.72-64.27S461.2,264.1,440,251.13A165.53,165.53,0,0,0,368,228c-26.75-1.93-56,1.93-78.33,6.35s-38.07,9.1-44.69,9.93-4.41-1.93,7.45-8.83,33.38-17.65,59.85-28.41c26.48-10.48,57.65-21,86.61-25.38,29-4.68,55.72-3.31,77,3a102.62,102.62,0,0,1,48.82,31.17c11.31,13,17.93,27.58,25.1,45.23s14.89,38.34,26.2,55.72,26.21,31.44,49.38,45.79c3.58,2.2,7.44,4.68,11.58,6.89-9.38,5.24-17.93,8.83-26.75,10.76Zm445.73-108.4c3.58-4.13,7.17-8,10.48-11.86,15.17-17.37,25.65-30.89,34.2-38.34,8.83-7.44,15.72-8.55,22.07-6.62a20.41,20.41,0,0,1,13.79,15.18c1.65,7.72-.83,18.2-8.28,27S1108.28,274,1092.84,276c-10.48,1.38-22.34,0-37.24-4.14Z"/><path id="path3057" class="cls-2" d="M115.32,282.85a47.44,47.44,0,1,0-47.45-47.44A47.44,47.44,0,0,0,115.32,282.85Z"/><path id="path3059" class="cls-2" d="M10090.42,188.24a47.45,47.45,0,1,0,47.44,47.45A47.44,47.44,0,0,0,10090.42,188.24Z"/><path id="path3061" class="cls-2" d="M10090.42,3429.19a47.44,47.44,0,1,0,47.44,47.44A47.44,47.44,0,0,0,10090.42,3429.19Z"/><path id="path3063" class="cls-2" d="M115.32,3523.79a47.44,47.44,0,1,0-47.45-47.44A47.43,47.43,0,0,0,115.32,3523.79Z"/></svg>