<svg id="svg6602" xmlns="http://www.w3.org/2000/svg" viewBox="0 0 687.96 247.94"><defs><style>.cls-1{fill:#1a1a1a;}.cls-2{fill:none;stroke:#000;stroke-width:1.21px;}.cls-3{fill:red;}.cls-4{fill:#fff;}</style></defs><title>dialogue box-0</title><path id="path7438" class="cls-1" d="M678.51,22.42l-2.15-9.26c-3.39.28-6.88.5-10.33.76.82-1.92,1.65-3.74,2.53-5.39L653.65,5.66a85.68,85.68,0,0,0-4.28,9.49c-183.67,12.71-435.53,9.26-620,.76A87.48,87.48,0,0,0,24.75,5.66L9.94,8.53a72.37,72.37,0,0,1,3,6.62l-9.84-.47L1.75,24.06l14.62.7C23.42,48,27.13,82.38,26.9,118.43S22.66,192.33,15,222.93c-5,.2-10.13.37-15,.58l1.17,9.38,11.21-.47C11,237.17,9.56,241.69,8,246l15.21,2c1.87-5.07,3.56-10.5,5.16-16.17,186-7.32,439.74-9.07,623.15,5.16,1.16,3.81,2.41,7.5,3.7,11l15.3-2c-.9-2.46-1.78-5-2.63-7.67l6.43.52,2.34-9.25c-3.81-.34-7.71-.68-11.59-1-8.61-31.5-13.21-71.84-13.45-110.12-.24-36.6,3.66-71.49,10.91-94.73,5.39-.39,10.72-.86,16-1.28ZM344.43,217c49.07.12,95.24,2.28,117.66,2.9C818.19,236.69,516,218.19,344.43,217ZM67.06,27.4C182.22,94.35,231.75,69.4,67.06,27.4ZM296.77,216.84c-93.68.24-185.85,2.34-265.87,5.45C38.29,192,42.14,155.52,42.5,120.48c-.14,35.91-7.58,56-12.59,81.4-1.54,7.81-.39,16.35-.51,17.81l-1.59,4.37L43,224.2c11.16-.63,55.7-2,114.05-3.51,27.31-.71,82.2-3.81,139.72-3.85Z"/><path id="path7440" class="cls-2" d="M688,16.75,685.81,7.5c-3.39.27-6.88.5-10.33.76.82-1.92,1.65-3.74,2.53-5.39L663.1,0a87.55,87.55,0,0,0-4.29,9.49c-183.66,12.71-435.52,9.26-620,.76A85.86,85.86,0,0,0,34.2,0L19.39,2.87a72.37,72.37,0,0,1,3,6.62L12.57,9,11.2,18.39l14.62.71c7,23.22,10.76,57.62,10.53,93.66s-4.24,73.91-11.89,104.51c-5,.2-10.13.37-15,.58l1.17,9.38,11.21-.47C20.45,231.5,19,236,17.44,240.29l15.21,2c1.87-5.08,3.56-10.5,5.16-16.17,186-7.32,439.74-9.07,623.15,5.16,1.16,3.81,2.41,7.49,3.7,11l15.3-2c-.9-2.46-1.78-5-2.63-7.68,2.13.19,4.32.35,6.43.53l2.34-9.25c-3.81-.34-7.71-.68-11.59-1-8.61-31.5-13.21-71.84-13.45-110.13C660.82,76.17,664.72,41.27,672,18c5.39-.4,10.72-.86,16-1.28ZM658.23,221.6c-183.81-13.91-433.16-12.15-617.88-5,7.53-30.9,11.37-68.19,11.6-103.86.23-35.28-3-68.69-10-93,183.14,8.31,430,11.72,613.7-.65-7.17,24.33-10.36,58-10.14,93.61.24,37.59,4.44,77,12.77,108.84Z"/><path id="path7442" class="cls-3" d="M17.84,218.13l7.48-.29,1.89-8.52c12.3-55.4,13-135.51,1.6-182.25l-2-8-7.06-.47c-4.32-.29-7-.94-6.91-1.66s.26-2.46.39-4c.21-2.49.81-2.84,5-2.84C21.46,10,23,9.56,23,8.55a1,1,0,0,0-1.44-.94c-.84.31-1-.53-.32-2C22,3.83,24,2.74,28,1.91L33.65.73l2,4.41c1.08,2.43,2.4,4.71,2.92,5.08,2.36,1.64,131.69,5.9,223.84,7.37,107.37,1.72,204.33.94,295.35-2.39,48.15-1.75,100-4.71,101.5-5.79a17.43,17.43,0,0,0,3-4.77l1.88-4,5.73,1.2c3.35.69,6.28,2.07,7,3.3s.73,1.9-.25,1.54-1.55.09-1.55.9c0,1.09,1.35,1.42,5.12,1.24,4.87-.23,5.15-.06,5.9,3.55l.79,3.78-7.86.95-7.85.95-2,8c-7.31,29.64-10.52,89.78-6.82,127.82,2.8,28.79,9.43,66.69,12.12,69.3.42.42,2.86.76,5.4.76,4.07,0,4.64.33,4.64,2.76,0,4-1.5,5.76-4.92,5.76-2.61,0-2.87.48-2,3.74.94,3.54.75,3.77-3.53,4.34-2.48.33-5.4.76-6.49,1s-2-.07-2-.61-.54-.78-1.19-.54-1.27-1.47-1.38-3.8-.82-4.59-1.57-5c-3.39-1.93-109.67-7.36-188.82-9.65-62.11-1.8-254.87-1.5-329.21.51C82,224.1,38.6,225.64,37.66,226.21c-.3.18-1.7,3.81-3.12,8.07-2.09,6.26-3.07,7.66-5.11,7.3-1.39-.25-4.38-.72-6.64-1-3.95-.56-4.05-.75-2.77-5,.73-2.44,1.7-5.39,2.16-6.56.75-1.89.24-2.13-4.5-2.13s-5.46-.34-6.33-3c-1.73-5.19-1.45-5.44,6.49-5.75ZM52.49,217c64.63-3,160.67-4.7,266.6-4.7,131.68,0,208,1.93,299,7.56,21.92,1.36,40.17,2.27,40.56,2s-.36-5-1.66-10.59c-7.37-31.54-10.91-73-9.75-114.18.91-32.67,2.1-44.24,6.81-66.09,1.38-6.41,2.25-11.8,1.94-12s-14.74.49-32.07,1.47c-48.17,2.72-101.5,4.46-174.68,5.71-99.44,1.7-252.53-.52-370.1-5.38-19.8-.82-36.38-1.26-36.84-1S42.59,26.05,44,33c4.38,21.27,5.7,33.31,6.73,61.33C52,129.19,48,180.42,42,204.93a61.37,61.37,0,0,0-1.5,9l-.19,3.65L52.51,217Z"/><path id="path7444" class="cls-4" d="M43.41,205.85c2.35-9.39,6-36.06,7.92-57.28,3.24-36.61,0-95.1-6.62-120.91-.94-3.61-1.45-6.72-1.14-6.91s14.72.26,32,1c190.56,7.91,388.94,8,537.48.3,21.87-1.14,40.1-1.86,40.53-1.61s.09,3-.74,6.06c-5.48,20.24-7,38.37-7,83.76,0,47.59,1.47,64.82,8.36,97.44,1.55,7.33,2.64,13.33,2.42,13.33s-16.93-1-37.13-2.32c-42.27-2.66-90.12-4.72-148.57-6.37-52.93-1.5-249.37-1.5-307.16,0-54.34,1.41-101,2.87-113,3.55l-9.06.51.2-2.65a62.54,62.54,0,0,1,1.5-7.86Z"/></svg>