<svg id="svg6602" xmlns="http://www.w3.org/2000/svg" viewBox="0 0 687.96 247.94"><defs><style>.cls-1{fill:#1a1a1a;}.cls-2{fill:none;stroke:#000;stroke-width:1.22px;}.cls-3{fill:#06f;}.cls-4{fill:#fff;}</style></defs><title>dialogue box-0</title><path id="path7409" class="cls-1" d="M9.45,225.21l2.15,9.39c3.39-.28,6.88-.5,10.33-.77-.82,1.95-1.66,3.8-2.54,5.47l14.91,2.91a84.78,84.78,0,0,0,4.29-9.63c183.67-12.9,435.53-9.4,620-.77a89.37,89.37,0,0,0,4.58,10.4L678,239.3a73.5,73.5,0,0,1-3-6.72l9.85.48,1.36-9.51c-4.75-.25-9.77-.48-14.62-.72-7-23.57-10.75-58.48-10.52-95.07s4.23-75,11.89-106.07c5-.21,10.13-.37,15-.59l-1.17-9.51-11.21.47C677,7.24,678.39,2.65,680-1.67l-15.2-2c-1.87,5.15-3.57,10.65-5.17,16.41C473.65,20.14,219.86,21.93,36.45,7.48,35.29,3.62,34-.13,32.75-3.69l-15.31,2c.91,2.49,1.79,5.12,2.64,7.79-2.14-.19-4.33-.35-6.44-.54L11.3,15c3.82.34,7.72.69,11.6,1C31.51,48,36.11,88.9,36.35,127.76c.24,37.14-3.66,72.56-10.91,96.14-5.39.41-10.72.87-16,1.31ZM343.56,27.76c-49.07-.12-95.24-2.31-117.66-2.94C-130.2,7.73,172,26.51,343.56,27.76ZM620.93,220.15C505.77,152.2,456.24,177.53,620.93,220.15ZM391.22,27.87c93.68-.24,185.85-2.37,265.87-5.52-7.39,30.76-11.24,67.76-11.6,103.33.14-36.45,7.58-56.86,12.59-82.62,1.54-7.93.39-16.6.51-18.08l1.59-4.44L645,20.4c-11.16.64-55.7,2-114.06,3.57-27.31.71-82.19,3.86-139.71,3.9Z"/><path id="path6847" class="cls-2" d="M0,231l2.14,9.39c3.4-.28,6.89-.51,10.33-.77-.81,1.94-1.65,3.79-2.53,5.47l14.91,2.89a85.58,85.58,0,0,0,4.29-9.63c183.67-12.91,435.53-9.4,620-.78a88.8,88.8,0,0,0,4.58,10.41L668.56,245c-1.06-2-2-4.31-3-6.72l9.85.47,1.36-9.51-14.62-.71c-7-23.58-10.75-58.49-10.52-95.07s4.23-75,11.89-106.07c5-.21,10.13-.38,15-.6l-1.17-9.51-11.21.48c1.38-4.82,2.81-9.41,4.38-13.74l-15.2-2c-1.87,5.15-3.57,10.65-5.17,16.41C464.2,25.87,210.41,27.65,27,13.21,25.84,9.34,24.59,5.6,23.29,2L8,4.05c.91,2.5,1.79,5.12,2.64,7.79-2.14-.18-4.33-.35-6.44-.54L1.85,20.7l11.6,1c8.61,32,13.21,72.92,13.45,111.78.23,37.13-3.66,72.56-10.91,96.14-5.39.4-10.72.87-16,1.3ZM29.72,23C213.53,37.16,462.88,35.37,647.6,28.1c-7.53,31.36-11.37,69.21-11.6,105.41-.22,35.81,3,69.72,10,94.36-183.14-8.44-430-11.9-613.7.65,7.17-24.69,10.37-58.88,10.14-95C42.24,95.36,38.05,55.33,29.71,23Z"/><path id="path7399" class="cls-3" d="M670.11,26.56l-7.48.29-1.89,8.65c-12.3,56.23-13,137.54-1.61,185l2,8.16,7.06.48c4.32.3,7,1,6.91,1.69s-.26,2.49-.39,4.08c-.21,2.53-.82,2.88-5,2.88-3.23,0-4.73.48-4.73,1.5a1,1,0,0,0,1.44,1c.84-.32,1,.53.32,2-.79,1.81-2.8,2.92-6.79,3.77l-5.66,1.19-2-4.48c-1.08-2.46-2.4-4.78-2.92-5.15-2.36-1.66-131.69-6-223.84-7.49-107.37-1.74-204.33-.94-295.34,2.43-48.16,1.78-100,4.79-101.5,5.88a17.52,17.52,0,0,0-3,4.84l-1.88,4-5.73-1.21c-3.35-.71-6.27-2.11-7-3.36s-.73-1.93.25-1.56,1.56-.09,1.56-.91c0-1.11-1.36-1.44-5.12-1.26-4.88.23-5.16.06-5.91-3.6l-.79-3.84,7.86-1,7.85-1,2-8.16c7.31-30.09,10.52-91.13,6.82-129.73C22.77,62.5,16.14,24,13.45,21.37c-.42-.42-2.86-.76-5.4-.76-4.07,0-4.64-.34-4.64-2.81,0-4.06,1.5-5.84,4.92-5.84,2.61,0,2.87-.49,2-3.8-.94-3.59-.75-3.83,3.53-4.4,2.48-.34,5.4-.78,6.49-1s2,.07,2,.62.53.79,1.18.55,1.27,1.5,1.38,3.86.82,4.66,1.58,5.1c3.38,2,109.66,7.48,188.82,9.8,62.1,1.82,254.86,1.52,329.2-.52,61.5-1.68,104.87-3.25,105.81-3.83.3-.18,1.7-3.86,3.12-8.19,2.09-6.35,3.07-7.77,5.11-7.4,1.39.25,4.38.72,6.63,1,4,.57,4.06.76,2.78,5.09-.73,2.47-1.7,5.46-2.16,6.65-.75,1.92-.24,2.17,4.5,2.17s5.46.34,6.33,3c1.73,5.27,1.45,5.52-6.5,5.83Zm-34.65,1.15c-64.63,3.06-160.67,4.78-266.6,4.77-131.67,0-208-2-299-7.67C48,23.43,29.72,22.5,29.33,22.74s.36,5.07,1.67,10.74c7.36,32,10.9,74.06,9.75,115.9-.92,33.16-2.11,44.9-6.81,67.08-1.38,6.5-2.26,12-1.95,12.14s14.74-.49,32.07-1.48c48.18-2.76,101.5-4.54,174.68-5.81,99.45-1.72,252.53.54,370.1,5.47,19.8.83,36.38,1.27,36.84,1s-.32-6.25-1.75-13.27c-4.38-21.58-5.7-33.8-6.73-62.24C635.91,116.84,640,64.84,646,40a63,63,0,0,0,1.5-9.12l.19-3.7-12.21.57Z"/><path id="path7411" class="cls-4" d="M644.54,39c-2.35,9.54-6,36.61-7.92,58.14-3.24,37.16,0,96.53,6.62,122.72.94,3.67,1.45,6.83,1.14,7s-14.72-.26-32-1c-190.55-8-388.93-8.13-537.47-.29-21.87,1.15-40.1,1.88-40.53,1.62s-.09-3,.74-6.14c5.48-20.55,7-38.95,7-85,0-48.31-1.47-65.79-8.36-98.9-1.55-7.44-2.64-13.53-2.42-13.53S48.24,24.71,68.44,26c42.27,2.71,90.12,4.79,148.57,6.47,52.93,1.52,249.37,1.53,307.16,0,54.34-1.43,101-2.91,113-3.6l9.06-.52-.2,2.69a64.31,64.31,0,0,1-1.5,8Z"/></svg>