<svg id="layer_1" data-name="layer 1" xmlns="http://www.w3.org/2000/svg" viewBox="0 0 142.98 293.6"><defs><style>.cls-1{fill:#a72446;}.cls-2{fill:#ff71a4;}.cls-3{fill:#fe306e;}.cls-4{fill:#6d112d;}.cls-5{fill:#e2fafc;}.cls-6{fill:#e5ae00;}.cls-7{fill:#ea8b00;}.cls-8{fill:#f7d000;}.cls-9{fill:#fff;}</style></defs><title>doors</title><rect class="cls-1" x="-0.07" y="0.27" width="143.05" height="293.33"/><polygon class="cls-2" points="-0.07 293.6 -0.07 0.27 142.98 0.27 140.09 3.16 2.82 293.6 -0.07 293.6"/><rect class="cls-3" x="2.82" y="3.16" width="137.27" height="290.44"/><polygon class="cls-1" points="130.01 12.31 12.11 12.31 2.82 3.16 140.09 3.16 130.01 12.31"/><rect class="cls-4" x="12.11" y="11.83" width="118.87" height="281.7"/><rect class="cls-3" x="13.08" y="12.79" width="116.94" height="280.74"/><rect class="cls-2" x="25.66" y="24.03" width="40.07" height="154.74"/><polygon class="cls-1" points="25.66 178.77 25.66 24.03 65.73 24.03 63.23 26.74 29.61 176.06 25.66 178.77"/><rect class="cls-5" x="29.61" y="26.74" width="33.62" height="149.31"/><rect class="cls-2" x="78.42" y="24.03" width="40.07" height="154.74"/><polygon class="cls-1" points="78.42 178.77 78.42 24.03 118.48 24.03 115.98 26.74 82.36 176.06 78.42 178.77"/><rect class="cls-5" x="82.36" y="26.74" width="33.62" height="149.31"/><rect class="cls-2" x="25.59" y="191.88" width="40.1" height="39.89"/><polygon class="cls-1" points="25.59 231.77 25.59 191.88 65.69 191.88 63.19 194.41 29.54 229.24 25.59 231.77"/><rect class="cls-2" x="29.54" y="194.41" width="33.65" height="34.84"/><polygon class="cls-1" points="63.19 229.24 29.54 229.24 32.87 225.37 59.85 198.28 63.19 194.41 63.19 229.24"/><rect class="cls-3" x="32.87" y="198.28" width="26.98" height="27.09"/><rect class="cls-2" x="78.38" y="191.88" width="40.1" height="39.89"/><polygon class="cls-1" points="78.38 231.77 78.38 191.88 118.48 191.88 115.98 194.41 82.33 229.24 78.38 231.77"/><rect class="cls-2" x="82.33" y="194.41" width="33.65" height="34.84"/><polygon class="cls-1" points="115.98 229.24 82.33 229.24 85.67 225.37 112.65 198.28 115.98 194.41 115.98 229.24"/><rect class="cls-3" x="85.67" y="198.28" width="26.98" height="27.09"/><rect class="cls-2" x="25.59" y="242.84" width="40.1" height="39.89"/><polygon class="cls-1" points="25.59 282.73 25.59 242.84 65.69 242.84 63.19 245.36 29.54 280.2 25.59 282.73"/><rect class="cls-2" x="29.54" y="245.36" width="33.65" height="34.84"/><polygon class="cls-1" points="63.19 280.2 29.54 280.2 32.87 276.33 59.85 249.24 63.19 245.36 63.19 280.2"/><rect class="cls-3" x="32.87" y="249.24" width="26.98" height="27.09"/><rect class="cls-2" x="78.38" y="242.84" width="40.1" height="39.89"/><polygon class="cls-1" points="78.38 282.73 78.38 242.84 118.48 242.84 115.98 245.36 82.33 280.2 78.38 282.73"/><rect class="cls-2" x="82.33" y="245.36" width="33.65" height="34.84"/><polygon class="cls-1" points="115.98 280.2 82.33 280.2 85.67 276.33 112.65 249.24 115.98 245.36 115.98 280.2"/><rect class="cls-3" x="85.67" y="249.24" width="26.98" height="27.09"/><path class="cls-6" d="M128.68,190.59a5.6,5.6,0,1,1-5.6-5.6A5.6,5.6,0,0,1,128.68,190.59Z"/><path class="cls-7" d="M122.53,193.17a7.58,7.58,0,0,1-5-1.86,5.59,5.59,0,0,0,11.13-.72c0-.17,0-.33-.05-.49A7.6,7.6,0,0,1,122.53,193.17Z"/><path class="cls-8" d="M128.63,190.1c-1.71,4-8.53,4.25-13.65.78-6.3-4.26-9.13.65-9.13-1s2.83-4.15,12-1.17A38.59,38.59,0,0,0,128.63,190.1Z"/><path class="cls-6" d="M114.79,189.8c-4.57-3-7.19-1.09-8.73.41.73,0,3.57-3,8.92.67,5,3.39,11.63,3.21,13.52-.53C125.36,192.59,119,192.56,114.79,189.8Z"/><path class="cls-6" d="M13.37,52a.74.74,0,0,1-.74.73h0A.73.73,0,0,1,11.9,52v-20a.73.73,0,0,1,.73-.73h0a.74.74,0,0,1,.74.73Z"/><path class="cls-6" d="M13.37,273.78a.74.74,0,0,1-.74.73h0a.73.73,0,0,1-.73-.73V253.83a.73.73,0,0,1,.73-.73h0a.74.74,0,0,1,.74.73Z"/><polygon class="cls-9" points="63.23 34.66 63.23 26.74 29.61 26.74 29.61 68.28 63.23 34.66"/><path class="cls-9" d="M63.23,113.27V77.9L29.61,111.52v35.37Z"/><polygon class="cls-9" points="115.98 60.52 115.98 26.74 114.39 26.74 82.36 58.77 82.36 94.14 115.98 60.52"/><polygon class="cls-9" points="115.98 157.9 115.98 142.48 82.4 176.06 97.82 176.06 115.98 157.9"/></svg>