<svg xmlns="http://www.w3.org/2000/svg" viewBox="0 0 319.97 234.3"><defs><style>.cls-1{fill:#fff;}.cls-2{fill:#dcdcee;}.cls-3{fill:#b5b4db;}.cls-4{fill:#f2f1f9;}.cls-5{fill:#cbcae6;}.cls-6{fill:#736d79;}</style></defs><title>5524608</title><g id="OBJECTS"><path class="cls-1" d="M-60.79,88.59c3.09.77,6.12,1.9,9.13,2.93,5.24,1.79,10.48,3.57,15.71,5.38C-24.09,101-12.26,105.18-.3,109a100.33,100.33,0,0,0,13,3.41.37.37,0,0,0,.2-.72C9.25,110.41,5.7,109,2.06,107.77c-5.55-1.86-11.11-3.69-16.66-5.55-11.64-3.9-23.25-7.91-35-11.57-3.6-1.13-7.22-2.39-10.91-3.2-.74-.16-1.05,1-.31,1.14Z"/><path class="cls-2" d="M320,146.8q-1.18-6.93-2.26-13.88c-1.36-8.75-3-17.47-4.44-26.2q-.92-5.35-1.81-10.71a48.89,48.89,0,0,0-.91-5.39c-.38-1.31-2.2-2.56-3.16-3.46-2.15-2-4.41-3.87-6.73-5.66A168.44,168.44,0,0,0,284,70.14a179.93,179.93,0,0,0-37.81-16.93c-1-.32-2.1-.62-3.15-.91a6.8,6.8,0,0,0-5.54-7.11c.73-2.6,1.1-5.58-.33-7.88-2.24-3.6-6.65-2.53-9.91-1.39a52.91,52.91,0,0,0-11.24,5.48c-1.8,1.16-3.41,2.65-5.23,3.75-2,1.18-4.65-.38-6.61-1-17.54-6-35.09-12.38-53.19-16.43a170.51,170.51,0,0,0-21-3.39,42.32,42.32,0,0,0-7.89-6.73,38,38,0,0,0-12.68-5.39c-5.67-1.24-11.49-1.1-17.24-.84a133.27,133.27,0,0,1-17.65-.08q-4.44-.37-8.83-1.19A8.78,8.78,0,0,1,62.11,9l-6.8-4.55c-.75-.5-1.49-1.1-2.28-1.52-1.32-.71-3.66.07-5,.42C38,5.82,30.41,13.71,24,21.48,10.82,37.38,1.83,57,0,78a232.88,232.88,0,0,0,.23,36.88c.87,12.25,2.42,24.44,4.11,36.59.4,2.91.83,5.8,1.35,8.69a.53.53,0,0,0,.13.67c4.61,3.39,11.28,3.3,16.23.77a17.58,17.58,0,0,0,3.31-2.22A21.7,21.7,0,0,0,27.71,166a14.74,14.74,0,0,0,9,7.31,13.18,13.18,0,0,0,11.45-3.16c.35-.3.7-.64,1-1a16.38,16.38,0,0,0,7.07,10A16.14,16.14,0,0,0,76,177.26q.51-.48,1-1c1.09,5.36,3.66,10.34,8.11,13.57A16.21,16.21,0,0,0,96.4,193a17.12,17.12,0,0,0,9.62-4.77,20.22,20.22,0,0,0,6.86,11.26c5.48,4.44,13.43,5.7,19,.89a16,16,0,0,0,6.12,10,14.21,14.21,0,0,0,9.1,2.76,13.49,13.49,0,0,0,8.62-4.16c.28-.27.56-.57.83-.87a13.47,13.47,0,0,0,.51,3.66,18.13,18.13,0,0,0,6,8.54c5.28,4.4,12.59,5.6,18.4,1.74a14.81,14.81,0,0,0,6.75,9.28,19,19,0,0,0,12,2.88,14.47,14.47,0,0,0,9.49-6,19.73,19.73,0,0,0,3.07-6.44c.15-.53.29-1.07.44-1.62,6.06-4.26,12-8.76,18-13.07q10.56-7.55,21.29-14.85c14.16-9.65,28.46-19.09,42.77-28.49q12.15-8,24.34-15.9A.9.9,0,0,0,320,146.8Z"/><path class="cls-3" d="M89.26,27.52l.27-.55.12-.26a3.76,3.76,0,0,0,.2-.46c0-.17.05-.34.07-.5s0-.34-.07-.5v0s0-.09,0-.13l.06.46a2.13,2.13,0,0,0,0-.79,1.56,1.56,0,0,0-.43-.72,1.13,1.13,0,0,0-.52-.34,1.18,1.18,0,0,0-.64-.14,1.64,1.64,0,0,0-.83.22l-.36.28-.26.33a.61.61,0,0,1-.07.1l-.13.18c.21-.21.42-.43.64-.64l-.1.07a1.7,1.7,0,0,0-.23.17,1.36,1.36,0,0,0-.48.53l-.19.45c0,.09,0,.2-.08.3l-.14.59a1.43,1.43,0,0,0,0,.71,1.35,1.35,0,0,0,.21.67l.28.36a1.32,1.32,0,0,0,.57.36.9.9,0,0,0,.45.13,1.32,1.32,0,0,0,.71,0l.43-.18a1.84,1.84,0,0,0,.64-.63Z"/><path class="cls-3" d="M113.4,22.21h.09c.19,0,.39-.05.58-.07h0l.08,0h0l.53-.23.15-.08a3.47,3.47,0,0,0,.57-.44.18.18,0,0,0,0-.07,5.19,5.19,0,0,0,.36-.46,1.7,1.7,0,0,0,.27-.84c0-.1,0-.22,0-.33a.49.49,0,0,0,0-.17,3.92,3.92,0,0,0-.11-.73c0-.11-.09-.22-.13-.33s-.09-.22-.14-.32l-.33-.43a1.6,1.6,0,0,0-.68-.44,1.14,1.14,0,0,0-.54-.14,1.6,1.6,0,0,0-.84,0l-.5.21-.43.33a1.6,1.6,0,0,0-.44.68,1.61,1.61,0,0,0-.18.81.15.15,0,0,1,0,.07c0-.19.06-.37.08-.56a.6.6,0,0,1-.06.19l.23-.52a.76.76,0,0,1-.12.19l.35-.45-.18.24a1.07,1.07,0,0,0-.29.49,1.47,1.47,0,0,0-.12.3s0,.05,0,.07a.5.5,0,0,1,0,.13c.08-.17.15-.35.22-.52a.81.81,0,0,1-.1.18l.33-.43a.46.46,0,0,1-.12.12l.42-.32-.08.05-.42.32a1.55,1.55,0,0,0-.42.66,1.07,1.07,0,0,0-.14.52,1.53,1.53,0,0,0,0,.82l.2.49.32.41a1.58,1.58,0,0,0,.66.43,1.45,1.45,0,0,0,.79.17Z"/><path class="cls-3" d="M115.16,38.33l-.08.59a2.92,2.92,0,0,0,0,.59l.06-.49c0,.12,0,.24,0,.36a4.37,4.37,0,0,0-.1.7,2.17,2.17,0,0,0,.23.88.84.84,0,0,0,.2.4,1.06,1.06,0,0,0,.33.3,1.2,1.2,0,0,0,.89.11,2.64,2.64,0,0,0,.82-.27,4.94,4.94,0,0,0,.77-.68l-.38.29a4.74,4.74,0,0,0,.9-.64l.48-.44a2.4,2.4,0,0,0,0-3.4,1.94,1.94,0,0,0-.77-.5,1.76,1.76,0,0,0-.93-.2,2.43,2.43,0,0,0-1.21.32,2.47,2.47,0,0,0-.86.87,2.34,2.34,0,0,0-.33,1.21Z"/><path class="cls-3" d="M98.64,48.66l-.07-.12a1.39,1.39,0,0,0-.21-.27.71.71,0,0,0-.21-.27l-.28-.21a1.23,1.23,0,0,0-.56-.33,4.37,4.37,0,0,0-.57-.21l-.27-.08-.06,0h0l-.63-.08a.67.67,0,0,0-.34,0,1.37,1.37,0,0,0-.59.16,1.32,1.32,0,0,0-.51.3l-.29.23,1.39-.57h-.23a.84.84,0,0,0-.27,0,1.35,1.35,0,0,0-.67.21,1.66,1.66,0,0,0-.65.61,2.08,2.08,0,0,0-.24.94l.07.48c.06.15.12.3.19.45l0,.07.08.17-.2-1.51,0,.12c0,.2,0,.41-.08.62s.06.41.08.62l.24.55.08.12.16.21.16.2.4.52L95,52a1.24,1.24,0,0,0,.33.15.79.79,0,0,0,.33.13l.14,0,.66.09.66-.09.6-.25a1.85,1.85,0,0,0,.69-.64,1.18,1.18,0,0,0,.32-.55,1.14,1.14,0,0,0,.17-.62,1.27,1.27,0,0,0,0-.67,1.81,1.81,0,0,0-.29-.92Z"/><path class="cls-3" d="M59.92,67.88l.16-.18.37-.48a2.33,2.33,0,0,0,.14-.33,1.63,1.63,0,0,0,.15-.4c.06-.21.11-.42.17-.63a5.87,5.87,0,0,0,.13-1l0-.32V64.5L61,63.79a.75.75,0,0,1-.05-.16,2.13,2.13,0,0,0-.47-.89,2,2,0,0,0-.74-.67l-.62-.27-.09,0,1.36,1a2.47,2.47,0,0,0-.85-.88,2.43,2.43,0,0,0-1.12-.3,2.21,2.21,0,0,0-1.12.3,2.75,2.75,0,0,0-.85.88l1.36-1a2.87,2.87,0,0,0-.71.29,2.81,2.81,0,0,0-1.2,1.56,2.13,2.13,0,0,0-.14.93,8,8,0,0,0,.17,1.3l.15.61a.65.65,0,0,0,0,.13,2.64,2.64,0,0,0,.63,1.1l.16.18a2.31,2.31,0,0,0,1.51.63,2.09,2.09,0,0,0,1.51-.63Z"/><path class="cls-3" d="M83.57,78.08l.18-.23.09-.11a1.86,1.86,0,0,0,.48-.81,1.5,1.5,0,0,0,0-.84,1.59,1.59,0,0,0-.4-.7,1.55,1.55,0,0,0-.71-.41,1.5,1.5,0,0,0-.84,0,1,1,0,0,0-.39.16l-.32.25,0,0-.05,0-.12.09-.23.19a1.24,1.24,0,0,0-.34.53,1.28,1.28,0,0,0-.14.64,1.24,1.24,0,0,0,.14.63,1.28,1.28,0,0,0,.34.54l.34.26a1.65,1.65,0,0,0,.84.22l.44-.06a1.63,1.63,0,0,0,.73-.42Z"/><path class="cls-3" d="M53.53,103c.25-.36.51-.71.77-1.06l.19-.26a2,2,0,0,0,.3-.71,2.36,2.36,0,0,0,.05-1.21,2.3,2.3,0,0,0-.53-.89l.5,1.2a2.18,2.18,0,0,1,0-.25,1.53,1.53,0,0,0-.52-1.18l.19.24-.06-.12a.92.92,0,0,0-.81-.47h-.15l.59.16a1.6,1.6,0,0,0-.78-.21,2,2,0,0,0-.79.22,2,2,0,0,1-.25.14l1.32-.17a2,2,0,0,0-1.09,0,2.43,2.43,0,0,0-.87.52l-.11.09a2.75,2.75,0,0,0-.63.91c-.2.39-.39.78-.59,1.16a2,2,0,0,0-.19,1.46,1.89,1.89,0,0,0,2.32,1.31l.45-.19a1.9,1.9,0,0,0,.68-.67Z"/><path class="cls-3" d="M15.09,132.53a3.37,3.37,0,0,0,2.88-1.7.93.93,0,0,0,.05-.1c.1-.2.2-.47.29-.69l0,0a4,4,0,0,0,.12-.84.41.41,0,0,0,0-.11,2.8,2.8,0,0,0-.45-1.62,7.89,7.89,0,0,0-.49-.65,2.74,2.74,0,0,0-2-.85,2.79,2.79,0,0,0-1.41.38,2.82,2.82,0,0,0-1,1,2,2,0,0,0-.14.34,2,2,0,0,0-.24,1.08c0,1,0,.49.1.77a.29.29,0,0,1,0,.09l-.1-.75s0,0,0,.08v0A2.1,2.1,0,0,0,13,130a2.75,2.75,0,0,0,.15.36l-.29-.68a1.91,1.91,0,0,1,.11.41c0-.24-.06-.48-.1-.73a1.07,1.07,0,0,1,0,.25l.09-.71a.59.59,0,0,1-.05.19l.26-.62a.51.51,0,0,1-.09.16l.4-.52-.11.11.51-.39,0,0-.5.39a1.77,1.77,0,0,0-.52.8,1.23,1.23,0,0,0-.17.62,1.86,1.86,0,0,0,0,1l.25.6.39.5a1.86,1.86,0,0,0,.79.51,1.88,1.88,0,0,0,1,.22Z"/><path class="cls-3" d="M48.44,146.58l.18-.55a2.35,2.35,0,0,0-.59-2.26,1.08,1.08,0,0,0-.24-.18l-.24-.19,1.06,1.85v-.19a2,2,0,0,0-.28-1,2,2,0,0,0-.73-.73,2.18,2.18,0,0,0-1-.28,2.14,2.14,0,0,0-1,.28l-.15.1,1.65-.21a.78.78,0,0,0-.34-.05l-.31,0a2.28,2.28,0,0,0-1.17.31,2.47,2.47,0,0,0-.84.83l-.33.49a2.32,2.32,0,0,0-.33,1.21l.09.64a2.38,2.38,0,0,0,.62,1.06,1.7,1.7,0,0,0,.77.49,1.87,1.87,0,0,0,.93.21,1.81,1.81,0,0,0,.92-.21,1.7,1.7,0,0,0,.77-.49,2.38,2.38,0,0,0,.62-1.06Z"/><path class="cls-3" d="M74.1,164.66l0-1.44c0-.11,0-.22,0-.34a4.45,4.45,0,0,0-.18-1c0-.11-.08-.23-.13-.34s-.17-.4-.25-.61a2.59,2.59,0,0,0-.92-.91l-.61-.26a1.41,1.41,0,0,0-.68-.1A2.56,2.56,0,0,0,70,160a2.85,2.85,0,0,0-1.17,1.52l-.12.31a4.45,4.45,0,0,0-.18,1c0,.13,0,.25,0,.37,0,.48,0,1,0,1.44a2.1,2.1,0,0,0,.25,1.08,2.15,2.15,0,0,0,.58.91,2.09,2.09,0,0,0,.91.58,2,2,0,0,0,1.08.24l.75-.1a2.73,2.73,0,0,0,1.24-.72,2.91,2.91,0,0,0,.83-2Z"/><path class="cls-3" d="M86.63,120.14l.7-.93a4.44,4.44,0,0,0,.42-1l.09-.24a.78.78,0,0,0,0-.14,2,2,0,0,0,0-1.09,2.3,2.3,0,0,0-.88-1.15l-.46-.19a2,2,0,0,0-1,0,1.84,1.84,0,0,0-.86.48l-.22.17a3.27,3.27,0,0,0-.51.39,6.54,6.54,0,0,0-.4.52l-.7.93a1.59,1.59,0,0,0-.26.82,1.72,1.72,0,0,0,0,.87,2.37,2.37,0,0,0,1,1.31,2.18,2.18,0,0,0,1.69.22l.52-.22a2.19,2.19,0,0,0,.79-.78Z"/><path class="cls-3" d="M20,145.77l-.28-.29a4.15,4.15,0,0,0-.32-.27A.67.67,0,0,0,19,145a.9.9,0,0,0-.4-.09l-.27,0a1,1,0,0,0-.46.27,2.73,2.73,0,0,0-.31.27c-.1.09-.2.2-.29.29l-.3.39c-.06.15-.12.3-.19.45a1.37,1.37,0,0,0,0,.75.85.85,0,0,0,.13.47.89.89,0,0,0,.24.42,1,1,0,0,0,.34.34,1,1,0,0,0,.41.24,1.42,1.42,0,0,0,.73.16l.5-.07.45-.19.38-.29.3-.38.19-.45a1.37,1.37,0,0,0,0-.75.91.91,0,0,0-.13-.48,1.39,1.39,0,0,0-.39-.61Z"/><path class="cls-3" d="M111.59,93.86l.19-.07.1,0,.46-.19a1.47,1.47,0,0,0,.53-.49,1.39,1.39,0,0,0,.35-.67c0-.06,0-.12,0-.19l0-.1v0l.07-.45-.07-.45a1.17,1.17,0,0,0-.22-.48l.14,1.06a2.54,2.54,0,0,0,.07-.47,1.35,1.35,0,0,0-.17-.66,1.07,1.07,0,0,0-.34-.36,1,1,0,0,0-.44-.24,1.35,1.35,0,0,0-.69,0l-.12,0,1.06.14a.84.84,0,0,0-.27-.13.92.92,0,0,0-.43-.11,1.31,1.31,0,0,0-.68,0h0l-.1,0-.19,0-.46.19-.38.3a.51.51,0,0,0-.17.21,1.47,1.47,0,0,0-.34.64.29.29,0,0,0,0,.09l-.07.21a1.73,1.73,0,0,0,.45,1.69,1.67,1.67,0,0,0,.77.45,1.79,1.79,0,0,0,.92,0Z"/><path class="cls-3" d="M145.58,81a5,5,0,0,0,1.09-.21,5.27,5.27,0,0,0,1-.47,6.46,6.46,0,0,0,.59-.44l.13-.11.06-.06a2.55,2.55,0,0,0,.29-.38,2.09,2.09,0,0,0,.35-1.07,1.79,1.79,0,0,0-.5-1.25l.35.84-.06-.41a1.05,1.05,0,0,0-.28-.49,1.3,1.3,0,0,0-.77-.32,1.09,1.09,0,0,0-.56.15l-.08,0,.28-.12h.6a1.6,1.6,0,0,0-.58-.09,1.74,1.74,0,0,0-.94.27l-.18.09a3.07,3.07,0,0,0-.51.38l.36-.27a3.64,3.64,0,0,1-.66.38l.42-.18a3,3,0,0,1-.73.2l.47-.07-.13,0a1.93,1.93,0,0,0-1.26.52,1.26,1.26,0,0,0-.37.57,1.37,1.37,0,0,0-.15.69,1.8,1.8,0,0,0,.52,1.26l.36.28a1.78,1.78,0,0,0,.9.24Z"/><path class="cls-3" d="M144.46,50.64a2.32,2.32,0,0,0-.72,1.21l.84-1.09-.1.07a1.78,1.78,0,0,0-.62.63,1.69,1.69,0,0,0-.24.88,1.74,1.74,0,0,0,.24.88,1.68,1.68,0,0,0,.62.62l.1.07-.84-1.09a2.28,2.28,0,0,0,.72,1.21l.49.38.57.24a1.85,1.85,0,0,0,1,.05,1.3,1.3,0,0,0,.61-.17,1.24,1.24,0,0,0,.53-.31,2.39,2.39,0,0,0,.74-1,1.7,1.7,0,0,0,.2-.92l-.08-.64-.24-.58-.38-.48-.49-.38L146.8,50a1.84,1.84,0,0,0-1,0,1.15,1.15,0,0,0-.6.16,1.81,1.81,0,0,0-.78.5Z"/><path class="cls-3" d="M126.9,71.38l1-.46.23-.12a2.76,2.76,0,0,0,.92-.91,2.28,2.28,0,0,0,.43-1.43c-.08.27-.15.55-.23.83a1.57,1.57,0,0,0,.23-1c-.06.22-.12.43-.17.65a1.55,1.55,0,0,0,.17-.4,1.18,1.18,0,0,0-.53-1.31,1.4,1.4,0,0,0-.4-.16l.76.58,0,0a1.21,1.21,0,0,0-.42-.45,1.65,1.65,0,0,0-.59-.3l.73.42a2.22,2.22,0,0,0-1.28-.71,3.1,3.1,0,0,0-.68-.1,3.28,3.28,0,0,0-.69.1l-.25.07c-.35.1-.68.22-1,.33a2.42,2.42,0,0,0-1.06.62l-.38.49a2.55,2.55,0,0,0-.33,1.21,1.87,1.87,0,0,0,.21.93,1.84,1.84,0,0,0,.5.77,1.87,1.87,0,0,0,.77.5,1.76,1.76,0,0,0,.93.2,2.46,2.46,0,0,0,1.21-.32Z"/><path class="cls-3" d="M165.18,41.2l.12-.54a.65.65,0,0,0,0-.13,3.34,3.34,0,0,0,.08-.7,2.64,2.64,0,0,0,0-.28c0-.19,0-.37,0-.55a5.74,5.74,0,0,0-.1-.82,2.38,2.38,0,0,0-.66-1.08l.32.42,0,0,.21.49-.09-.26a4.71,4.71,0,0,0-.21-.52,2.22,2.22,0,0,0-.72-.71,1.93,1.93,0,0,0-1.9,0l0,0a1.52,1.52,0,0,0-.54.5,1,1,0,0,0-.25.43,2.33,2.33,0,0,0-.11.28l-.09.26c.06-.16.13-.33.2-.49l0,0,.33-.42a.46.46,0,0,0-.07.07,2.45,2.45,0,0,0-.59,1,3.66,3.66,0,0,0-.1.81c0,.19,0,.39-.05.58a2.64,2.64,0,0,1,0,.28,3.72,3.72,0,0,0,.08.67l0,.14c.05.18.09.37.13.56s.14.34.22.51a1.51,1.51,0,0,0,.55.6,1.18,1.18,0,0,0,.47.28,1.62,1.62,0,0,0,.82.18,2.62,2.62,0,0,0,1.07-.29,1.67,1.67,0,0,0,.6-.55,1.56,1.56,0,0,0,.38-.73Z"/><path class="cls-3" d="M185.37,57.14a3.1,3.1,0,0,0,1-.1,2.81,2.81,0,0,0,.33-.13,1.42,1.42,0,0,0,.6-.39l.05-.06a2.24,2.24,0,0,0,.59-1.05,3.92,3.92,0,0,0,.08-.76v-.17A1.31,1.31,0,0,0,188,54a1.55,1.55,0,0,0-.4-.69,3.59,3.59,0,0,0-.33-.25l0,0-.34-.15a1.58,1.58,0,0,0-.75,0,1.52,1.52,0,0,0-.44.17,2,2,0,0,0-.63.67l-.1.15.26-.34a3.85,3.85,0,0,0-.5.63l-.09.16a1.34,1.34,0,0,0-.22.48,3.09,3.09,0,0,0-.07.52l.06-.45a1.62,1.62,0,0,1-.12.43l.15-.34a1.67,1.67,0,0,1-.12.23,1.27,1.27,0,0,0,.46,1.73,1.24,1.24,0,0,0,.63.17Z"/><path class="cls-3" d="M176.09,85.19l.22-.63c0-.1.08-.2.11-.3a2.58,2.58,0,0,0-.29-2l.29,1.07a1.77,1.77,0,0,0,0-.75l-.21-.49a.08.08,0,0,0,0,0l0-.06.19.44c0-.08,0-.17-.05-.24a1.52,1.52,0,0,0-.44-.74,1.38,1.38,0,0,0-.49-.32l-.2-.08a1.09,1.09,0,0,0-.44-.06,1.22,1.22,0,0,0-.63.14l-.44.2.92-.25a2.27,2.27,0,0,0-1.13.29,3.54,3.54,0,0,0-.61.49l2.08-.55a2.29,2.29,0,0,0-1.27,0,2.55,2.55,0,0,0-1.08.65,4.29,4.29,0,0,0-.55.72c-.13.21-.27.41-.4.61a2.37,2.37,0,0,0-.34,1.25l.09.66a2.5,2.5,0,0,0,.64,1.1,2.56,2.56,0,0,0,3.51,0,2.5,2.5,0,0,0,.64-1.1Z"/><path class="cls-3" d="M150.23,106.12v-.22a2.23,2.23,0,0,0-.31-1.15c-.12-.17-.25-.33-.39-.5.19.69.37,1.38.55,2.07,0-.12,0-.24.07-.37l0-.27a1,1,0,0,0,0-.54,1,1,0,0,0-.14-.52.94.94,0,0,0-.26-.44.75.75,0,0,0-.15-.2h0a1.52,1.52,0,0,0-.4-.32l-.43-.18-.47-.06h-.1l-.53.07h0l-.48.2-.4.32a3.19,3.19,0,0,0-.26.26l1.5-.62a2.26,2.26,0,0,0-1.24.32,5.28,5.28,0,0,0-.5.39l-.13.1a2.33,2.33,0,0,0-.61,1,2.29,2.29,0,0,0,0,1.27,2.33,2.33,0,0,0,.61,1,2.73,2.73,0,0,0,1.68.7,2.39,2.39,0,0,0,2.06-1.18,2.36,2.36,0,0,0,.32-1.21Z"/><path class="cls-3" d="M128.47,131.75l.52-.54.26-.27.07-.07,0,0a1.55,1.55,0,0,0,.19-.24,1.16,1.16,0,0,0,.29-.49,1.33,1.33,0,0,0,.16-.59,1.47,1.47,0,0,0,0-.33v-.07a1.64,1.64,0,0,0-.18-.82,1.6,1.6,0,0,0-.45-.69l-.43-.34a2.13,2.13,0,0,0-1.08-.29h-.1l-.6.08h0l-.54.23-.45.35,0,0-.06.07-.28.26-.54.53a1.64,1.64,0,0,0-.47.73,1.7,1.7,0,0,0-.2.88,1.66,1.66,0,0,0,.2.88,1.59,1.59,0,0,0,.47.73l.46.36a2.21,2.21,0,0,0,1.15.31l.6-.08a2.25,2.25,0,0,0,1-.59Z"/><path class="cls-3" d="M177.48,137.75c0-.28,0-.55,0-.83v-.14l-.1-.69-.06-.19a4.51,4.51,0,0,0-.3-.75,3.1,3.1,0,0,0-.47-.61,2.72,2.72,0,0,0-1.7-.71l-.64.09a2.33,2.33,0,0,0-1.06.62l0,0a3,3,0,0,0-.22.28.86.86,0,0,0-.2.27,1.83,1.83,0,0,0-.14.32,1.79,1.79,0,0,0-.13.32.42.42,0,0,0,0,.1l-.06.19a1,1,0,0,0-.05.37,1.65,1.65,0,0,0-.05.38.41.41,0,0,1,0,.11c0,.28,0,.55,0,.83a1.91,1.91,0,0,0,.23,1,1.88,1.88,0,0,0,.54.85,2,2,0,0,0,.86.55,2,2,0,0,0,1,.23l.7-.1a2.57,2.57,0,0,0,1.17-.68l.42-.53a2.64,2.64,0,0,0,.36-1.34Z"/><path class="cls-3" d="M225.82,50.37l1.06-.79a11.29,11.29,0,0,0,.93-.75l.49-.46a1.62,1.62,0,0,0,.46-.72,1.58,1.58,0,0,0,.19-.86l-.08-.59a1.6,1.6,0,0,0-.4-.76,1.12,1.12,0,0,0-.4-.41,1.74,1.74,0,0,0-.76-.4l-.59-.08a2.23,2.23,0,0,0-1.13.31l-.55.34-.28.16c-.25.16-.48.37-.71.55l-1,.82a1.7,1.7,0,0,0-.48.74,1.75,1.75,0,0,0-.2.9c0,.2.06.41.08.61a1.64,1.64,0,0,0,.42.79,1.1,1.1,0,0,0,.41.42,1.82,1.82,0,0,0,.79.41l.62.09a2.39,2.39,0,0,0,1.17-.32Z"/><path class="cls-3" d="M238.17,69.84a7,7,0,0,0,.22-1c.05-.33.09-.67.13-1a3,3,0,0,0-.16-1.15,3.71,3.71,0,0,0-.24-.63,1.69,1.69,0,0,0-1-.78,1.58,1.58,0,0,0-1.07.11,1.5,1.5,0,0,0-.59.41l-.1.11-.22.25a2.87,2.87,0,0,0-.37.49,3.32,3.32,0,0,0-.24.59c-.08.24-.17.47-.24.71a5.16,5.16,0,0,0-.17.78,1.6,1.6,0,0,0,0,.84,1.9,1.9,0,0,0,.79,1.36,1.58,1.58,0,0,0,.71.38,2.14,2.14,0,0,0,1.61-.21,2.18,2.18,0,0,0,1-1.25Z"/><path class="cls-3" d="M261.57,73.33l1.18-.81c.36-.26.7-.55,1.05-.82l.29-.23a2.58,2.58,0,0,0,.77-1.88v-.12a2.33,2.33,0,0,0-.34-1.23,2.42,2.42,0,0,0-.87-.87,5.38,5.38,0,0,0-.66-.27,2.68,2.68,0,0,0-1.46,0,2.49,2.49,0,0,0-.89.45l-.58.42c-.56.41-1.09.87-1.62,1.31a1.87,1.87,0,0,0-.54.83,1.93,1.93,0,0,0-.22,1l.09.69a1.91,1.91,0,0,0,.46.88,1.3,1.3,0,0,0,.47.46,1.93,1.93,0,0,0,.88.47l.69.09a2.59,2.59,0,0,0,1.3-.35Z"/><path class="cls-3" d="M240.93,84.94a1.6,1.6,0,0,0,0-3.19,1.6,1.6,0,0,0,0,3.19Z"/><path class="cls-3" d="M185.07,168.78l.27-.6a7.54,7.54,0,0,0,.44-1.07A4.88,4.88,0,0,0,186,166a1.82,1.82,0,0,0-.14-.75c0-.11-.08-.22-.13-.33a1.31,1.31,0,0,0-.39-.6,1.4,1.4,0,0,0-.38-.3,1.93,1.93,0,0,0-1.54-.16,3.21,3.21,0,0,0-.67.26,2.62,2.62,0,0,0-.81.78,4.45,4.45,0,0,0-.48.66l-.16.28-.33.57a1.76,1.76,0,0,0-.28.89,1.81,1.81,0,0,0,0,.95,1.87,1.87,0,0,0,.43.81,1.79,1.79,0,0,0,.67.61l.56.24a2.48,2.48,0,0,0,1.27,0l.57-.24a2.34,2.34,0,0,0,.85-.86Z"/><path class="cls-3" d="M120.15,165.87l.75-1.08.36-.54.09-.13a2,2,0,0,0,.19-.39.76.76,0,0,0,.13-.31c0-.21,0-.42.08-.63l0-.15a2.12,2.12,0,0,0-1-1.83,2,2,0,0,0-1.07-.29,2,2,0,0,0-1.07.29,1.61,1.61,0,0,0-.7.46l-.2.25-.41.49-.82,1a2.33,2.33,0,0,0-.61,1.05l-.09.62a2.34,2.34,0,0,0,.33,1.19,2.43,2.43,0,0,0,3.23.85,2.36,2.36,0,0,0,.84-.85Z"/><path class="cls-3" d="M150.25,192.15a2.73,2.73,0,0,1,0-.7c0,.2-.05.4-.08.6a4.35,4.35,0,0,1,.25-1c-.07.16-.14.33-.2.49a2.76,2.76,0,0,0,.45-1.39,2.23,2.23,0,0,0-.56-1.36l-.39-.3a2,2,0,0,0-1-.26h0l-.52.07-.46.19,0,0-.12.08c-.2.15-.41.31-.61.48a5.38,5.38,0,0,0-.72.86,1.35,1.35,0,0,0-.15.26,7.68,7.68,0,0,0-.32.79,5.32,5.32,0,0,0-.21,1.18,1.71,1.71,0,0,0,.2.9,1.75,1.75,0,0,0,.49.76,2.6,2.6,0,0,0,1.65.68l.62-.08a2.29,2.29,0,0,0,1-.6l.37-.48a2.3,2.3,0,0,0,.32-1.18Z"/><path class="cls-3" d="M186.21,202.69l-.25-.56a2.06,2.06,0,0,0-.12-.26c-.06-.09-.13-.17-.19-.25l-.34-.47a2,2,0,0,0-.66-.67,2.69,2.69,0,0,0-.47-.19,1.5,1.5,0,0,0-.89,0,1.82,1.82,0,0,0-1.24,1.35l-.08.53a4.88,4.88,0,0,0-.1,1.08c0,.21,0,.42,0,.63a2.28,2.28,0,0,0,.32,1.16,2.22,2.22,0,0,0,.82.82,2.38,2.38,0,0,0,1.77.23,1.73,1.73,0,0,0,.78-.41,1.84,1.84,0,0,0,.6-.64,2.37,2.37,0,0,0,.31-1.16,2.31,2.31,0,0,0-.31-1.16Z"/><path class="cls-3" d="M190.63,113.94l1.12-.09a5.75,5.75,0,0,0,.93-.09,4.71,4.71,0,0,0,.59-.25,1.82,1.82,0,0,0,.54-.36,1.52,1.52,0,0,0-.66-2.53,2.82,2.82,0,0,0-1.12,0,.59.59,0,0,0-.26,0l-.42.18-.12.06L191,111l-1,.46-.27.2a1,1,0,0,0-.27.43,1.27,1.27,0,0,0-.07.86,1.52,1.52,0,0,0,.34.59,1.38,1.38,0,0,0,.94.39Z"/><path class="cls-4" d="M13.11,111.74c9.31,3.83,19,6.8,28.51,10,5.49,1.86,11,3.68,16.49,5.52,5.26,1.75,10.44,3.71,15.66,5.57,2.58.92,5.18,1.78,7.77,2.67l3.53,1.21a14.56,14.56,0,0,0,3.76.56c1.36.11,1.69-1.8.66-2.43a13.53,13.53,0,0,0-2.85-1.6c-1.06-.36-2.13-.68-3.2-1l-7-2.23c-5.15-1.64-10.37-3-15.5-4.71Q44.74,120,28.56,114.79c-5-1.61-10-3.2-15.06-4.48a.74.74,0,0,0-.39,1.43Z"/><path class="cls-4" d="M112.24,146.28c6.68.28,12.83,3.11,19,5.49,4.66,1.79,9.33,3.54,14,5.32,11.18,4.26,22.39,8.48,33.5,12.91l7.58,3a19.75,19.75,0,0,0,3.13,1.19,16.25,16.25,0,0,0,3,.09.88.88,0,0,0,.61-1.48A17.26,17.26,0,0,0,191.5,171a10,10,0,0,0-2.8-1.56c-2.24-1-4.5-1.94-6.8-2.81-5.44-2.08-10.93-4-16.42-6-10.74-3.79-21.63-7.13-32.41-10.8-6.79-2.32-13.55-5.37-20.83-5.56-1.29,0-1.28,1.93,0,2Z"/><path class="cls-4" d="M112.17,86.29c6.24,2.11,12.44,4.33,18.69,6.4s12.44,4.41,18.79,6a18.42,18.42,0,0,0,4.21.86,7.08,7.08,0,0,0,3.74-1.37,10.44,10.44,0,0,0,2.09-2.31c.8-1.1,1.71-2.09,2.61-3.1a85.72,85.72,0,0,1,11.36-10.35c4.25-3.36,9.34-6.33,14.84-6.84l-1.21-1.21c-.29,3.43-.71,6.86-.76,10.31a1.52,1.52,0,0,0,2.28,1.3c2.78-1.82,7-.77,9,1.73a9.46,9.46,0,0,1,.59,10,.42.42,0,0,0,.65.51,8.84,8.84,0,0,0,1-12.25c-3-3.76-8.12-4.44-12.41-2.76l1.92,1.46c.26-3.43.14-6.88.15-10.31a1.23,1.23,0,0,0-1.53-1.17,31.05,31.05,0,0,0-13,5.45,36.29,36.29,0,0,0-5.5,4.62c-1.71,1.83-3.3,3.76-5,5.6s-3.27,3.6-5.05,5.25a26.39,26.39,0,0,1-3,2.51c-1.33.91-3-.06-4.4-.59-5.95-2.32-12.23-3.86-18.36-5.61-7.08-2-14.2-3.91-21.29-5.89a.89.89,0,0,0-.47,1.72Z"/><path class="cls-4" d="M82.69,12.82c7,.34,14,.21,20.87,1.13a47.38,47.38,0,0,1,9.35,2,39,39,0,0,1,8.22,4.11,34.29,34.29,0,0,1,12.44,13.25,44.36,44.36,0,0,1,4.33,17.94,29.42,29.42,0,0,1-1,9.25c-.86,3-1.42,6.1-3.41,8.6-.41.51.13,1.48.78,1,2.36-1.72,4.74-3.84,6-6.53a25,25,0,0,0,1.84-9.13A46.62,46.62,0,0,0,138.78,35a40.79,40.79,0,0,0-30.87-24.31c-8.32-1.33-16.86-.82-25.22-.19a1.14,1.14,0,0,0,0,2.28Z"/><path class="cls-4" d="M131,80.1a35.6,35.6,0,0,0,14.63-8.45,37.23,37.23,0,0,0,5.22-6.57,25,25,0,0,0,1.83-3.66c.47-1.12,1.35-2.7,1.25-3.92a.31.31,0,0,0-.53-.22c-.84.81-1.27,2.27-1.88,3.29s-1.42,2.17-2.17,3.24a37.54,37.54,0,0,1-5.31,6A35.86,35.86,0,0,1,130.39,78c-1.35.39-.76,2.55.59,2.12Z"/><path class="cls-4" d="M142.09,82.91c4.63-2.9,9.36-5.47,12.75-9.89a16.55,16.55,0,0,0,3.25-7,14,14,0,0,0-1-7.73c-.17-.39-.86-.4-.82.11.4,4.59-1.87,9.45-4.48,13.11A36.42,36.42,0,0,1,141,81.05c-1.18.72-.09,2.59,1.09,1.86Z"/><path class="cls-4" d="M41.88,77.49a22.77,22.77,0,0,0,3.95-4.91,8.79,8.79,0,0,0,1.46-6.06.52.52,0,0,0-.86-.23,23.57,23.57,0,0,0-2.82,5A21.71,21.71,0,0,1,40.42,76a1,1,0,0,0,1.46,1.46Z"/><path class="cls-4" d="M54.34,85.56A14.36,14.36,0,0,0,57.74,81a9.34,9.34,0,0,0,.7-4.45,5.31,5.31,0,0,0-.11-.8,3.68,3.68,0,0,0-.32-.7.73.73,0,0,0-1.25,0,11.87,11.87,0,0,0-1.06,2.33l-.07.18c0-.12-.09.2-.11.23l-.33.8c0,.09-.23.57-.12.32-.13.29-.26.59-.37.89s-.28.75-.43,1.13.08-.19,0,.05l-.12.28c-.1.21-.2.41-.31.62a15.28,15.28,0,0,1-1.39,2.16,1.21,1.21,0,0,0,.31,1.58,1.24,1.24,0,0,0,1.61-.09Z"/><path class="cls-4" d="M211.58,45.58c4.67-2.85,9.36-5.95,14.7-7.41a24.91,24.91,0,0,1,3.83-.74,9.55,9.55,0,0,1,3.95.07c2.8,1,2,4.91,1.55,7.08a1.24,1.24,0,0,0,1.18,1.55c4.86,0,6.49,5.93,5.31,9.76a16.71,16.71,0,0,1-3.64,5.84c-.79.89-1.6,1.77-2.34,2.7a7.51,7.51,0,0,0-1.76,2.64.89.89,0,0,0,.86,1.12,7.24,7.24,0,0,0,3.46-1.83A18.09,18.09,0,0,0,242,63.07a16.64,16.64,0,0,0,3.38-8.29c.61-5.5-2.92-10.64-8.58-11.1.4.51.79,1,1.19,1.55.86-3,1.5-6.46-.83-9-2.15-2.37-5.93-1.7-8.72-1.14a37.85,37.85,0,0,0-17.7,9.42.7.7,0,0,0,.85,1.1Z"/><path class="cls-5" d="M169.72,132.27l5.55-.58a47.43,47.43,0,0,0,5.2-.7,8.09,8.09,0,0,0,4-2,3.89,3.89,0,0,0,1.17-3.64.31.31,0,0,0-.56-.08A6.2,6.2,0,0,1,183,127.9a9.91,9.91,0,0,1-3.94,1.47c-3.15.67-6.32,1.28-9.47,2-.52.11-.42,1,.13.94Z"/><path class="cls-5" d="M175.32,137.07c3.57,2.65,10.19,1.23,11-3.59a.27.27,0,0,0-.5-.21c-2,3.2-6.62,5.22-10.08,3-.48-.3-.87.42-.43.75Z"/><path class="cls-5" d="M136.75,100c-2.54,2.8-4.67,6.77-4.1,10.66,0,.3.46.25.54,0a50.93,50.93,0,0,1,1.69-5.11,16.39,16.39,0,0,1,2.9-4.52c.64-.69-.39-1.72-1-1Z"/><path class="cls-5" d="M129,99.68a30.36,30.36,0,0,0-3.24,4.5c-.44.8-.83,1.61-1.19,2.45a17.46,17.46,0,0,0-1,2.61.19.19,0,0,0,.35.14c.45-.74.81-1.54,1.25-2.29s1-1.55,1.44-2.3a47.74,47.74,0,0,1,3.07-4.42c.39-.48-.29-1.17-.7-.69Z"/><path class="cls-3" d="M33.84,41.45a2,2,0,0,0,1-.22,2.29,2.29,0,0,0,1.36-1.36,2,2,0,0,0,.22-1l-.09-.68a2.68,2.68,0,0,0-.66-1.13l-.52-.41a2.59,2.59,0,0,0-1.3-.35,2,2,0,0,0-1,.22,2,2,0,0,0-.83.54,1.94,1.94,0,0,0-.53.82,2,2,0,0,0-.22,1l.09.68A2.72,2.72,0,0,0,32,40.7l.52.4a2.61,2.61,0,0,0,1.3.35Z"/><path class="cls-3" d="M65.89,35.45l-.14,0,.72.55-.07-.15a1,1,0,0,0-.44-.46,1.27,1.27,0,0,0-.53-.17,1.23,1.23,0,0,0-.52.17,1,1,0,0,0-.45.46l-.07.15.72-.55a.77.77,0,0,0-.35.12,1.35,1.35,0,0,0-.56.36,1.23,1.23,0,0,0-.36.56,1.27,1.27,0,0,0-.15.67l.06.46a1.36,1.36,0,0,0,.32.59,1.3,1.3,0,0,0,.48.45,1.27,1.27,0,0,0,.65.2,1.16,1.16,0,0,0,.69,0l.42-.17a1.41,1.41,0,0,0,.49-.45,1.46,1.46,0,0,0,.31-.59l.06-.46a1.69,1.69,0,0,0-.24-.88l-.27-.35a1.67,1.67,0,0,0-.77-.45Z"/><path class="cls-6" d="M71.43,14.08a.51.51,0,0,0,0-1,.51.51,0,0,0,0,1Z"/></g></svg>