<?xml version="1.0" encoding="utf-8"?>
<!-- Svg Vector Icons : http://www.onlinewebfonts.com/icon -->
<!DOCTYPE svg PUBLIC "-//W3C//DTD SVG 1.1//EN" "http://www.w3.org/Graphics/SVG/1.1/DTD/svg11.dtd">
<svg version="1.1" xmlns="http://www.w3.org/2000/svg" xmlns:xlink="http://www.w3.org/1999/xlink" x="0px" y="0px" viewBox="0 0 1000 1000" enable-background="new 0 0 1000 1000" xml:space="preserve">
<metadata> Svg Vector Icons : http://www.onlinewebfonts.com/icon </metadata>
<g><g transform="translate(0.000000,512.000000) scale(0.100000,-0.100000)"><path d="M5014.4,4993c-791.4-162.9-1398.9-887.2-1398.9-1669.1v-141.8h-642c-687.9,0-724.4-3.8-806.8-97.7c-23-24.9-254.9-404.3-517.4-841.3l-477.2-795.3v-3022v-3022l40.2-51.7c21.1-28.7,63.2-70.9,92-92c51.7-40.2,57.5-40.2,2617.6-40.2c2560.1,0,2565.9,0,2617.6,40.2c28.8,21.1,70.9,63.3,92,92l40.2,51.7v3022v3022l-477.2,795.3c-262.5,436.9-494.4,816.3-517.4,841.3c-82.4,93.9-118.8,97.7-806.7,97.7h-642V3322c1.9,538.5,321.9,954.3,814.4,1057.8c471.4,99.6,925.5-72.8,1163.2-438.8c99.7-155.2,147.6-323.9,168.6-586.4c19.2-258.7,61.3-390.9,185.9-578.7c105.4-159.1,258.7-298.9,427.3-387.1c231.9-122.7,270.2-126.5,1096.1-126.5h743.5v306.6v304.7l-770.3,5.7c-756.9,5.7-774.2,5.7-852.8,47.9c-147.6,78.6-216.5,216.5-216.5,431.2c0,561.5-379.4,1161.3-921.7,1460.2C5740.7,4996.9,5351.6,5062,5014.4,4993z M5675.5,1911.6l392.8-655.4V-1461v-2715.4H3922.1H1775.9V-1461v2717.3l392.8,655.4l394.8,657.3h1358.6h1358.6L5675.5,1911.6z"/><path d="M3784.1,2379.2c-348.8-111.2-628.5-471.4-628.5-806.8c0-415.8,427.3-843.2,843.2-843.2c226.1,0,490.6,143.7,661.1,358.3c258.7,329.6,233.8,726.3-63.2,1044.4C4370.5,2373.5,4062,2467.4,3784.1,2379.2z M4177,1748.8c34.5-36.4,42.2-65.2,42.2-176.3c0-113-5.7-139.9-44.1-176.3c-36.4-38.3-63.2-44.1-176.3-44.1c-174.4,0-214.6,34.5-224.2,195.5c-11.5,191.6,57.5,260.6,249.1,249.1C4106.1,1792.8,4144.4,1779.4,4177,1748.8z"/></g></g>
</svg>