<svg id="Layer_1" data-name="Layer 1" xmlns="http://www.w3.org/2000/svg" viewBox="0 0 841.89 595.28"><defs><style>.cls-1{fill:#fff;stroke:#231f20;stroke-miterlimit:10;stroke-width:1.33px;}</style></defs><title>Panel</title><path class="cls-1" d="M362.84,292.58H173.65A37.55,37.55,0,0,1,136.58,249L167.4,58.85a37.56,37.56,0,0,1,37.07-31.54H393.66a37.55,37.55,0,0,1,37.07,43.56L399.91,261A37.56,37.56,0,0,1,362.84,292.58Z"/><path class="cls-1" d="M638.39,297.64H449.19a37.55,37.55,0,0,1-37.06-43.56L443,63.9A37.56,37.56,0,0,1,480,32.36H669.21a37.55,37.55,0,0,1,37.07,43.56L675.45,266.09A37.54,37.54,0,0,1,638.39,297.64Z"/><path class="cls-1" d="M362.35,565.44H173.16a37.55,37.55,0,0,1-37.07-43.56l30.83-190.17A37.56,37.56,0,0,1,204,300.16H393.18a37.56,37.56,0,0,1,37.07,43.56L399.42,533.9A37.56,37.56,0,0,1,362.35,565.44Z"/><path class="cls-1" d="M637.9,570.5H448.71a37.56,37.56,0,0,1-37.07-43.56l30.83-190.18a37.56,37.56,0,0,1,37.07-31.54H668.73a37.55,37.55,0,0,1,37.07,43.56L675,539A37.56,37.56,0,0,1,637.9,570.5Z"/></svg>