<svg id="Layer_1" data-name="Layer 1" xmlns="http://www.w3.org/2000/svg" viewBox="0 0 841.89 595.28"><defs><style>.cls-1{fill:#fff;stroke:#231f20;stroke-miterlimit:10;}</style></defs><title>Panel</title><path class="cls-1" d="M399,292.58H183.55a24.9,24.9,0,0,1-24.9-24.9l14-215.47a24.9,24.9,0,0,1,24.9-24.9H413a24.9,24.9,0,0,1,24.9,24.9l-14,215.47A24.9,24.9,0,0,1,399,292.58Z"/><path class="cls-1" d="M673.61,292.58H458.13a24.9,24.9,0,0,1-24.9-24.9l14-215.47a24.9,24.9,0,0,1,24.9-24.9H687.61a24.9,24.9,0,0,1,24.9,24.9l-14,215.47A24.9,24.9,0,0,1,673.61,292.58Z"/><path class="cls-1" d="M377,568H161.55a24.9,24.9,0,0,1-24.9-24.9l22-215.48a24.9,24.9,0,0,1,24.9-24.9H399a24.9,24.9,0,0,1,24.9,24.9l-22,215.48A24.9,24.9,0,0,1,377,568Z"/><path class="cls-1" d="M651.61,568H436.13a24.9,24.9,0,0,1-24.9-24.9l22-215.48a24.9,24.9,0,0,1,24.9-24.9H673.61a24.9,24.9,0,0,1,24.9,24.9l-22,215.48A24.9,24.9,0,0,1,651.61,568Z"/></svg>