<svg id="Layer_1" data-name="Layer 1" xmlns="http://www.w3.org/2000/svg" viewBox="0 0 841.89 595.28"><defs><style>.cls-1{fill:#fff;stroke:#231f20;stroke-miterlimit:10;stroke-width:4px;}</style></defs><title>Panel</title><polygon class="cls-1" points="289.31 292.95 43.3 292.95 59.3 46.94 305.31 46.94 289.31 292.95"/><polygon class="cls-1" points="543.95 292.95 297.94 292.95 313.94 46.94 559.95 46.94 543.95 292.95"/><polygon class="cls-1" points="303.31 548.33 57.3 548.33 43.3 302.32 289.31 302.32 303.31 548.33"/><polygon class="cls-1" points="557.95 548.33 311.94 548.33 297.94 302.32 543.95 302.32 557.95 548.33"/><polygon class="cls-1" points="798.59 292.95 552.58 292.95 568.58 46.94 814.59 46.94 798.59 292.95"/><polygon class="cls-1" points="812.59 548.33 566.58 548.33 552.58 302.32 798.59 302.32 812.59 548.33"/></svg>