<svg id="Layer_1" data-name="Layer 1" xmlns="http://www.w3.org/2000/svg" viewBox="0 0 841.89 595.28"><defs><style>.cls-1{fill:#fff;stroke:#231f20;stroke-miterlimit:10;stroke-width:4px;}</style></defs><title>Panel</title><path class="cls-1" d="M791.52,292.58h-716a24.9,24.9,0,0,1-24.9-24.9l14-215.47a24.9,24.9,0,0,1,24.9-24.9h716a24.9,24.9,0,0,1,24.9,24.9l-14,215.47A24.9,24.9,0,0,1,791.52,292.58Z"/><path class="cls-1" d="M769.52,568h-716a24.9,24.9,0,0,1-24.9-24.9l22-215.48a24.9,24.9,0,0,1,24.9-24.9h716a24.9,24.9,0,0,1,24.9,24.9l-22,215.48A24.9,24.9,0,0,1,769.52,568Z"/></svg>