<svg id="Layer_1" data-name="Layer 1" xmlns="http://www.w3.org/2000/svg" viewBox="0 0 841.89 595.28"><defs><style>.cls-1{fill:#fff;stroke:#231f20;stroke-miterlimit:10;stroke-width:4px;}</style></defs><title>Panel</title><polygon class="cls-1" points="69.65 290.27 92.48 49.21 317.06 49.21 294.23 290.27 69.65 290.27"/><polygon class="cls-1" points="285.14 541.15 307.96 300.09 532.54 300.09 509.72 541.15 285.14 541.15"/><polygon class="cls-1" points="45.29 420.62 68.11 305.01 292.69 305.01 269.87 420.62 45.29 420.62"/><polygon class="cls-1" points="21.99 546.07 44.81 430.45 269.39 430.45 246.57 546.07 21.99 546.07"/><polygon class="cls-1" points="569.46 290.27 592.28 49.21 816.86 49.21 794.04 290.27 569.46 290.27"/><polygon class="cls-1" points="545.09 420.62 567.92 305.01 792.5 305.01 769.67 420.62 545.09 420.62"/><polygon class="cls-1" points="521.79 546.07 544.62 430.45 769.2 430.45 746.37 546.07 521.79 546.07"/><polygon class="cls-1" points="330.88 164.82 353.71 49.21 578.29 49.21 555.47 164.82 330.88 164.82"/><polygon class="cls-1" points="307.59 290.27 330.41 174.65 554.99 174.65 532.16 290.27 307.59 290.27"/></svg>