<svg id="Layer_1" data-name="Layer 1" xmlns="http://www.w3.org/2000/svg" viewBox="0 0 841.89 595.28"><defs><style>.cls-1{fill:#fff;stroke:#231f20;stroke-miterlimit:10;stroke-width:4px;}</style></defs><title>Panel</title><polygon class="cls-1" points="285.6 551.8 32.66 551.8 32.66 298.86 232.6 298.86 285.6 551.8"/><polygon class="cls-1" points="285.6 35.19 32.66 35.19 32.66 288.13 232.6 288.13 285.6 35.19"/><polygon class="cls-1" points="556.29 551.8 809.23 551.8 809.23 298.86 609.29 298.86 556.29 551.8"/><polygon class="cls-1" points="556.29 35.19 809.23 35.19 809.23 288.13 609.29 288.13 556.29 35.19"/><polygon class="cls-1" points="298.1 33.37 546.08 33.37 600.1 288.13 242.1 288.13 298.1 33.37"/><polygon class="cls-1" points="298.1 551.8 546.08 551.8 600.1 297.04 242.1 297.04 298.1 551.8"/></svg>