<svg id="Layer_1" data-name="Layer 1" xmlns="http://www.w3.org/2000/svg" viewBox="0 0 841.89 595.28"><defs><style>.cls-1{fill:#fff;stroke:#231f20;stroke-miterlimit:10;}</style></defs><title>Panel</title><polygon class="cls-1" points="71.17 280.76 94 39.7 318.58 39.7 295.75 280.76 71.17 280.76"/><polygon class="cls-1" points="286.66 531.65 309.49 290.59 534.06 290.59 511.24 531.65 286.66 531.65"/><polygon class="cls-1" points="46.81 411.12 69.63 295.5 294.21 295.5 271.39 411.12 46.81 411.12"/><polygon class="cls-1" points="23.51 536.56 46.34 420.95 270.91 420.95 248.09 536.56 23.51 536.56"/><polygon class="cls-1" points="570.98 280.76 593.8 39.7 818.38 39.7 795.55 280.76 570.98 280.76"/><polygon class="cls-1" points="546.61 411.12 569.44 295.5 794.02 295.5 771.19 411.12 546.61 411.12"/><polygon class="cls-1" points="523.31 536.56 546.14 420.95 770.72 420.95 747.89 536.56 523.31 536.56"/><polygon class="cls-1" points="332.4 155.32 355.23 39.7 579.81 39.7 556.99 155.32 332.4 155.32"/><polygon class="cls-1" points="309.11 280.76 331.93 165.15 556.51 165.15 533.68 280.76 309.11 280.76"/></svg>