<?xml version="1.0" standalone="no"?>
<!DOCTYPE svg PUBLIC "-//W3C//DTD SVG 20010904//EN"
 "http://www.w3.org/TR/2001/REC-SVG-20010904/DTD/svg10.dtd">
<svg version="1.0" xmlns="http://www.w3.org/2000/svg"
 width="1280.000000pt" height="1280.000000pt" viewBox="0 0 1280.000000 1280.000000"
 preserveAspectRatio="xMidYMid meet">
<metadata>
Created by potrace 1.15, written by Peter Selinger 2001-2017
</metadata>
<g transform="translate(0.000000,1280.000000) scale(0.100000,-0.100000)"
fill="#000000" stroke="none">
<path d="M3395 11833 c-4 -10 -27 -76 -52 -148 -258 -759 -342 -1531 -232
-2155 90 -509 258 -930 539 -1344 49 -72 128 -180 177 -241 106 -133 395 -430
526 -540 52 -44 94 -81 93 -82 -1 -1 -46 12 -101 28 -288 86 -616 154 -916
190 -218 26 -649 31 -839 11 -889 -97 -1630 -456 -2307 -1117 l-144 -140 103
-120 c145 -169 437 -458 608 -601 626 -524 1249 -805 1980 -896 159 -20 601
-17 775 5 158 20 387 64 532 103 81 21 379 116 433 138 9 4 -75 -85 -185 -196
-262 -265 -431 -468 -602 -723 -192 -286 -342 -583 -448 -885 -40 -115 -107
-351 -101 -357 6 -6 130 16 271 47 509 113 963 335 1399 684 126 100 416 384
527 516 46 54 85 97 86 96 2 -1 -8 -41 -22 -87 -226 -753 -278 -1465 -154
-2117 23 -121 77 -333 88 -344 10 -11 221 173 353 310 173 178 335 390 475
621 l21 34 7 -54 c42 -323 164 -590 359 -784 304 -303 795 -451 1435 -432 113
4 242 11 286 17 1073 143 1692 854 1855 2130 11 85 25 257 31 383 7 125 15
227 19 227 3 0 88 -208 189 -463 101 -254 263 -655 359 -892 123 -306 177
-449 183 -495 17 -112 29 -164 50 -208 l21 -43 -37 -112 c-42 -126 -56 -248
-36 -310 34 -102 158 -136 332 -92 24 6 28 3 38 -28 13 -40 54 -81 96 -97 53
-21 153 -14 295 21 185 46 290 46 485 0 205 -49 350 -42 428 20 87 68 -46 208
-269 283 -153 51 -192 75 -367 225 -98 84 -118 116 -204 324 -73 180 -90 235
-168 572 -40 176 -126 545 -190 820 -183 786 -335 1479 -327 1486 4 3 28 13
53 23 74 27 77 31 85 128 4 47 4 97 0 111 -7 28 -111 158 -153 190 -15 12 -41
21 -60 21 -26 0 -35 5 -38 20 -2 12 -34 143 -71 291 -72 297 -146 535 -172
558 -9 8 -100 61 -202 118 l-185 104 -111 1 -111 1 -74 59 -74 59 -78 4 c-90
4 -225 -23 -349 -71 -61 -23 -86 -39 -118 -75 -99 -113 -235 -466 -397 -1033
l-18 -64 -55 3 c-155 7 -245 38 -312 108 -20 21 -67 90 -105 153 -38 63 -95
155 -126 203 -31 48 -57 92 -57 97 0 5 40 116 89 247 117 314 115 306 114 398
0 155 -41 222 -284 470 -181 185 -260 283 -347 427 -156 260 -242 501 -242
677 l0 86 24 -56 c28 -70 52 -104 111 -158 73 -67 124 -86 230 -86 107 0 165
22 234 88 111 107 123 265 28 373 -53 60 -102 84 -172 84 -69 0 -112 -17 -157
-64 -35 -36 -63 -108 -54 -138 2 -7 7 -25 10 -40 10 -43 63 -96 108 -109 34
-9 49 -7 85 6 73 28 102 99 68 165 -20 38 -26 38 -19 0 9 -42 -40 -90 -91 -90
-55 0 -105 53 -105 110 0 85 71 146 160 138 91 -9 153 -84 152 -184 0 -60 -17
-96 -64 -141 -45 -44 -96 -63 -165 -63 -73 0 -125 24 -181 81 -59 60 -85 134
-80 224 6 85 19 113 130 265 l84 115 164 7 c322 12 512 64 582 158 23 32 48
147 48 225 0 33 -9 112 -20 175 -12 63 -23 172 -27 242 -5 110 -4 131 12 165
23 47 31 123 17 150 -8 15 -33 25 -94 38 -293 62 -399 129 -485 304 -134 273
-316 453 -534 525 -122 41 -244 51 -427 37 -297 -22 -532 -95 -725 -225 -37
-25 -72 -46 -78 -46 -26 0 -221 -84 -292 -125 -140 -83 -261 -215 -308 -339
l-21 -55 -73 113 c-296 464 -663 825 -1150 1131 -219 138 -567 301 -845 395
-107 36 -397 120 -416 120 -6 0 -15 -8 -19 -17z m2907 -1425 c-113 -138 -189
-272 -257 -447 l-33 -84 -21 42 c-16 31 -20 51 -15 79 10 54 50 162 81 218 38
69 156 184 233 227 36 20 66 37 68 37 2 0 -23 -33 -56 -72z m358 -1982 c0 -13
3 -31 6 -40 5 -12 -1 -14 -29 -9 -23 3 -47 0 -68 -11 -20 -10 -36 -13 -42 -7
-19 19 0 44 53 66 71 30 80 30 80 1z m395 -121 c-3 -22 -15 -70 -26 -107 -18
-61 -23 -68 -54 -78 -46 -15 -95 -5 -95 21 0 21 47 150 59 162 14 14 41 -22
41 -53 0 -17 -9 -38 -22 -50 -26 -24 -18 -26 22 -5 40 21 56 72 36 118 -8 19
-22 39 -31 45 -15 8 -15 13 -5 32 l12 22 35 -33 c31 -31 34 -38 28 -74z m-388
0 c21 -15 43 -70 43 -108 0 -10 -13 -32 -29 -48 -25 -24 -38 -29 -80 -29 -56
0 -65 8 -56 50 5 22 11 27 23 23 15 -6 15 -5 0 14 -56 63 29 147 99 98z m113
-312 c0 -90 -110 -182 -183 -154 -28 11 -36 43 -40 156 l-2 60 37 3 c29 3 43
-2 63 -22 40 -40 32 -90 -19 -112 l-31 -13 33 -1 c24 0 42 8 63 29 35 36 38
81 8 130 l-20 33 22 24 23 24 23 -61 c13 -34 23 -77 23 -96z m208 71 c2 -1
-12 -34 -32 -72 -39 -73 -93 -134 -194 -221 -35 -30 -87 -83 -115 -119 -30
-37 -53 -60 -54 -51 -2 7 -7 56 -11 107 l-8 93 31 -8 c143 -36 278 72 279 224
l1 63 50 -6 c28 -4 52 -8 53 -10z m1275 -3153 c40 -5 202 -9 360 -9 158 0 290
-2 293 -5 6 -5 -53 -269 -122 -545 -97 -391 -204 -624 -300 -648 -112 -28
-235 204 -329 621 -45 199 -50 304 -29 543 6 62 7 64 30 58 14 -4 57 -11 97
-15z"/>
</g>
</svg>
