<?xml version="1.0" standalone="no"?>
<!DOCTYPE svg PUBLIC "-//W3C//DTD SVG 20010904//EN"
 "http://www.w3.org/TR/2001/REC-SVG-20010904/DTD/svg10.dtd">
<svg version="1.0" xmlns="http://www.w3.org/2000/svg"
 width="744.000000pt" height="1280.000000pt" viewBox="0 0 744.000000 1280.000000"
 preserveAspectRatio="xMidYMid meet">
<metadata>
Created by potrace 1.15, written by Peter Selinger 2001-2017
</metadata>
<g transform="translate(0.000000,1280.000000) scale(0.100000,-0.100000)"
fill="#000000" stroke="none">
<path d="M3555 12768 c-77 -67 -96 -135 -119 -428 -22 -263 -63 -405 -199
-676 -149 -296 -234 -542 -289 -834 -20 -102 -22 -152 -24 -440 -1 -192 -6
-347 -13 -379 -12 -58 -13 -261 -2 -351 l6 -55 18 90 c10 50 23 132 30 184
l12 93 33 -163 c18 -90 54 -249 79 -354 42 -172 46 -201 45 -305 -1 -81 -8
-148 -25 -225 l-24 -110 -7 50 c-15 102 -66 286 -111 396 -26 63 -52 127 -59
144 -6 16 -28 61 -49 100 -135 246 -244 498 -356 830 -41 119 -99 266 -136
340 -35 72 -77 167 -93 211 -30 81 -108 210 -153 250 -44 40 -183 113 -234
124 -27 5 -90 11 -140 13 -85 2 -90 1 -88 -18 1 -11 21 -36 45 -55 75 -61 187
-179 208 -219 40 -80 145 -131 270 -131 l81 0 21 -46 c11 -25 35 -72 54 -105
40 -67 80 -169 168 -423 87 -250 136 -365 267 -631 63 -127 129 -264 148 -305
72 -159 121 -331 141 -491 9 -78 8 -97 -15 -205 -31 -146 -35 -158 -98 -318
l-50 -130 -29 35 c-16 18 -66 95 -110 169 -44 74 -98 157 -119 186 l-39 51 15
59 c8 32 16 67 16 79 1 14 4 12 10 -10 7 -25 8 -21 5 20 -2 28 0 61 4 75 7 22
8 20 9 -12 1 -37 14 -50 25 -25 4 6 4 -35 1 -93 -5 -113 9 -122 20 -14 l7 62
29 -32 c23 -25 28 -28 29 -12 0 16 2 17 17 5 16 -13 16 -11 0 14 -10 16 -16
31 -13 35 3 3 0 15 -8 27 -8 12 -21 45 -30 75 -14 47 -14 54 -1 64 11 8 17 39
22 109 3 57 9 93 14 85 16 -25 0 157 -21 236 -49 192 -223 420 -414 544 -175
114 -264 144 -423 141 -54 0 -122 2 -151 6 l-52 7 -42 71 c-128 222 -167 285
-209 331 -60 68 -73 90 -169 304 -100 224 -193 400 -267 505 l-55 79 10 125
c7 89 14 130 25 141 14 14 14 20 -3 65 -23 60 -26 63 -45 47 -12 -10 -15 -42
-15 -179 l-1 -166 -24 40 c-35 56 -84 187 -102 270 -25 118 -19 317 17 565 17
118 33 223 36 233 9 30 24 19 50 -35 13 -29 22 -42 18 -28 -10 44 -50 115 -65
118 -24 4 -38 -39 -65 -197 -33 -196 -58 -323 -91 -461 -23 -98 -27 -137 -27
-265 -1 -143 1 -154 31 -242 35 -101 105 -245 182 -375 35 -60 53 -102 61
-148 18 -107 47 -202 101 -337 28 -70 84 -220 124 -333 40 -113 82 -229 94
-258 l21 -54 -22 -18 c-13 -11 -29 -17 -36 -15 -7 3 -11 1 -8 -4 3 -5 -13 -24
-37 -44 -25 -20 -60 -67 -87 -113 -24 -44 -60 -98 -80 -121 -77 -89 -130 -223
-130 -331 l0 -53 -110 96 c-60 53 -128 117 -151 143 -60 69 -151 198 -193 273
l-36 66 27 58 c35 77 42 177 18 270 -9 37 -20 117 -25 177 -11 149 -17 153
-65 33 -23 -58 -28 -90 -32 -185 -5 -102 -3 -126 21 -215 61 -231 194 -421
464 -663 57 -52 92 -91 92 -103 0 -19 16 -94 42 -198 11 -41 12 -42 20 -20 7
19 11 21 18 9 5 -8 10 -27 10 -41 0 -15 7 -44 16 -65 15 -34 18 -37 25 -19 5
13 8 15 9 5 0 -8 7 -28 14 -45 13 -28 13 -26 10 38 -2 40 0 67 6 67 6 0 13 0
18 0 4 0 10 -21 13 -47 10 -72 59 -195 148 -371 96 -190 144 -265 200 -316 43
-38 44 -38 115 -34 54 3 91 12 156 41 77 33 86 35 106 22 l22 -14 -19 -38
c-37 -73 -16 -242 48 -386 27 -59 28 -69 28 -214 -1 -84 -4 -155 -7 -159 -4
-3 -14 0 -22 7 -8 8 -22 20 -31 27 -10 9 -15 31 -15 73 0 59 -12 99 -30 99 -5
0 -10 -15 -12 -32 -3 -28 -10 -36 -51 -56 l-49 -23 -36 32 c-20 18 -56 41 -81
52 -40 17 -49 18 -80 6 -20 -7 -70 -13 -111 -14 -51 0 -75 -4 -75 -12 0 -6 28
-34 62 -62 103 -82 210 -92 309 -29 27 17 64 37 82 45 39 16 38 21 16 -106
-15 -89 -15 -94 5 -158 12 -37 21 -93 21 -128 0 -89 12 -114 90 -184 39 -34
70 -66 70 -70 0 -9 -304 -213 -460 -308 -63 -39 -153 -95 -200 -126 -163 -106
-216 -111 -375 -34 -59 29 -119 49 -166 57 -74 13 -80 16 -298 146 -59 35 -81
35 -81 -1 0 -15 16 -37 47 -63 l47 -40 -40 -7 c-47 -7 -165 -45 -179 -57 -6
-5 -3 -14 7 -25 15 -15 28 -15 136 -3 65 7 125 11 133 8 7 -2 -29 -25 -81 -50
-52 -25 -104 -53 -115 -61 -19 -15 -19 -17 -3 -33 15 -15 22 -16 56 -6 24 7
49 9 63 4 14 -6 55 -2 115 11 l93 20 74 -37 c42 -20 81 -43 87 -51 11 -13 6
-15 -26 -15 -22 0 -56 -5 -76 -11 -30 -8 -38 -15 -38 -34 0 -27 23 -54 48 -57
9 0 42 -2 72 -3 30 -1 96 -5 145 -10 138 -12 212 14 395 137 105 70 159 95
420 194 96 37 235 93 308 125 94 41 132 53 132 43 0 -18 5 -18 35 2 23 15 24
15 30 -13 16 -70 27 -84 90 -114 34 -16 68 -29 76 -29 36 0 144 -67 244 -151
195 -164 380 -293 542 -379 34 -17 69 -41 79 -51 11 -12 26 -75 45 -188 35
-215 73 -363 145 -571 l57 -165 -13 -105 c-20 -173 -29 -452 -30 -870 0 -438
3 -469 63 -569 18 -30 98 -123 179 -208 157 -165 166 -177 423 -528 191 -261
340 -479 437 -640 90 -150 385 -751 393 -800 6 -39 6 -39 -10 -17 -23 32 -49
30 -41 -4 5 -17 1 -35 -9 -50 -14 -21 -14 -32 0 -106 9 -46 20 -97 25 -114 6
-17 10 -59 10 -95 0 -49 6 -74 24 -106 23 -40 24 -47 14 -107 -15 -89 -5 -129
45 -183 80 -86 165 -115 234 -80 32 17 83 71 83 89 0 19 24 1 42 -32 l18 -35
0 34 c0 19 -5 51 -11 72 -7 21 -8 46 -4 56 13 28 34 -115 34 -236 1 -57 6
-121 12 -142 17 -54 65 -109 96 -109 38 0 90 62 139 164 54 115 90 258 103
412 9 94 22 161 62 300 61 215 68 263 45 332 -21 63 -54 91 -145 127 -147 58
-209 163 -271 460 -67 318 -225 909 -287 1074 -75 202 -237 489 -383 681 -104
135 -174 237 -204 298 -60 119 -140 465 -195 843 l-30 206 24 115 c13 64 38
205 55 314 32 207 79 449 106 544 21 74 29 250 15 324 -8 46 -8 62 1 67 8 5 5
18 -14 46 -14 21 -35 60 -46 87 -18 40 -19 47 -6 42 9 -3 20 -6 26 -6 6 0 95
-82 197 -183 243 -238 380 -354 506 -427 59 -34 31 -10 -55 48 -131 88 -268
209 -520 461 -135 134 -229 228 -211 208 19 -21 30 -37 23 -37 -12 0 -54 51
-50 61 2 4 -6 16 -16 28 -35 39 -7 35 36 -5 132 -121 462 -340 539 -358 45
-10 57 16 31 69 l-21 44 37 -16 c20 -8 59 -26 86 -40 26 -13 45 -20 42 -15 -3
5 -44 27 -91 48 -85 38 -85 38 -139 124 -29 47 -56 91 -60 97 -4 7 -13 65 -21
129 -8 64 -19 133 -25 152 -5 20 -8 37 -6 39 1 2 25 -19 52 -46 59 -58 109
-75 205 -69 94 7 150 37 236 126 l71 74 44 -30 c77 -53 104 -62 174 -62 62 0
70 3 110 36 43 35 54 57 34 69 -5 3 -36 13 -67 21 -32 8 -87 31 -122 51 l-63
35 42 25 c38 23 45 24 67 12 35 -19 160 -126 268 -230 108 -104 205 -175 355
-259 145 -82 507 -251 640 -300 170 -63 442 -179 482 -205 41 -27 68 -32 68
-12 0 22 -58 114 -88 139 -24 20 -45 26 -106 31 -83 6 -133 25 -275 106 -47
27 -162 90 -255 141 -222 119 -293 167 -400 270 -163 156 -272 315 -310 450
-8 30 -18 91 -21 135 -9 118 -24 183 -55 245 -39 77 -78 110 -210 181 -185 99
-276 169 -298 230 -6 14 -13 52 -17 85 -11 100 -15 111 -55 151 -21 21 -100
72 -176 113 -176 97 -235 149 -263 233 -26 77 -68 129 -135 167 -28 16 -78 56
-110 89 -56 57 -59 61 -53 100 9 72 73 183 157 275 133 146 153 220 101 367
-17 48 -35 116 -40 151 -11 75 0 192 24 258 26 74 36 184 25 280 -16 125 -35
193 -89 310 -56 121 -71 175 -71 261 0 59 2 64 51 125 28 35 56 64 63 64 24 0
71 -62 101 -132 17 -39 35 -73 40 -75 6 -2 21 34 33 80 21 79 21 87 6 143 -21
83 -36 101 -96 119 -70 20 -75 20 -138 -19 -60 -37 -192 -81 -215 -72 -48 18
12 212 130 426 102 184 146 232 237 257 33 9 62 23 65 30 7 18 -16 100 -32
113 -14 12 -115 -4 -155 -25 -57 -30 -148 -190 -330 -580 -205 -440 -277 -581
-380 -746 -56 -90 -104 -165 -105 -167 -2 -2 -35 17 -74 42 -67 44 -71 48 -71
83 0 21 17 99 38 173 74 259 76 272 62 368 -16 107 -66 208 -156 319 -98 118
-139 185 -174 281 -62 169 -92 318 -111 547 -29 332 51 601 154 523 8 -7 36
-47 61 -88 55 -88 60 -76 11 25 -38 79 -82 125 -120 125 -14 0 -40 -14 -60
-32z m-2077 -2603 l91 -130 -47 -21 -47 -21 -12 21 c-6 12 -26 64 -43 116 -18
52 -51 133 -74 180 -22 47 -43 90 -45 95 -5 14 68 -85 177 -240z m1222 -1085
c17 -72 8 -82 -11 -10 -9 33 -12 60 -8 60 4 0 12 -22 19 -50z m40 -110 c0 -5
-4 -10 -10 -10 -5 0 -10 5 -10 10 0 6 5 10 10 10 6 0 10 -4 10 -10z m-244
-614 c6 -26 5 -27 -14 -17 -32 17 -44 46 -36 89 l7 37 18 -40 c10 -22 21 -53
25 -69z m940 -332 c19 -9 54 -40 78 -68 47 -55 100 -136 90 -136 -18 0 -314
189 -314 200 0 23 101 25 146 4z m77 -604 c83 -42 121 -70 245 -182 81 -73
204 -189 275 -257 70 -68 130 -122 132 -119 6 5 -315 309 -452 429 -40 34 -71
64 -69 66 1 2 37 -11 79 -29 73 -30 80 -37 179 -152 57 -66 158 -175 225 -243
112 -113 146 -158 75 -98 -16 13 -32 22 -35 19 -3 -3 -17 2 -32 12 -16 10 -59
20 -108 25 -45 4 -104 13 -132 19 -29 7 -82 9 -128 5 -43 -4 -106 -3 -140 0
l-62 7 -57 106 c-35 67 -66 144 -83 205 -37 138 -59 198 -89 245 -14 23 -26
44 -26 47 0 3 24 -8 53 -25 28 -17 96 -53 150 -80z m1552 -26 c44 -15 84 -30
88 -34 11 -10 -33 -115 -65 -153 l-26 -32 -49 25 c-36 19 -53 36 -70 70 -34
68 -39 107 -18 130 24 26 44 25 140 -6z m-1174 -166 c18 -24 97 -109 176 -190
79 -82 143 -154 142 -160 0 -15 -181 172 -295 305 -42 48 -71 87 -66 87 6 0
25 -19 43 -42z m-607 -66 c33 -45 35 -52 25 -85 -9 -33 -47 -82 -56 -73 -4 4
-10 206 -7 206 1 0 18 -22 38 -48z m1736 23 c33 -17 35 -22 20 -45 -9 -13 -14
-10 -35 15 -38 46 -34 55 15 30z m-1560 -284 c0 -14 -148 -39 -160 -27 -19 19
-10 26 38 27 26 1 61 5 77 8 31 8 45 5 45 -8z m-176 -17 c4 -9 4 -19 2 -21 -8
-8 -26 8 -26 23 0 19 16 18 24 -2z m977 -3435 c92 -123 179 -244 179 -250 0
-2 -67 61 -149 141 -171 165 -191 196 -191 300 l1 65 37 -71 c21 -40 77 -123
123 -185z"/>
<path d="M2 11239 c2 -8 56 -45 120 -84 103 -63 162 -104 302 -212 63 -49 164
-83 247 -83 l70 0 77 -72 c106 -100 120 -118 159 -206 19 -42 32 -63 28 -47
-4 17 -20 57 -35 90 -24 49 -59 88 -192 215 -215 206 -282 258 -413 323 -133
66 -164 75 -279 84 -74 5 -88 4 -84 -8z"/>
<path d="M1011 10490 c0 -8 4 -24 9 -35 5 -13 9 -14 9 -5 0 8 -4 24 -9 35 -5
13 -9 14 -9 5z"/>
<path d="M1180 9966 c0 -11 40 -86 45 -86 3 0 -4 19 -16 43 -23 45 -29 54 -29
43z"/>
<path d="M2901 9574 c0 -11 3 -14 6 -6 3 7 2 16 -1 19 -3 4 -6 -2 -5 -13z"/>
<path d="M5220 6243 c14 -10 43 -34 65 -53 l40 -34 -32 35 c-18 19 -47 42 -65
52 -32 17 -32 17 -8 0z"/>
<path d="M5369 6090 c88 -108 194 -214 262 -262 62 -44 156 -84 168 -72 3 3
-28 36 -69 72 -41 37 -109 101 -150 143 -73 74 -140 119 -177 119 -9 0 -33 15
-52 33 -25 23 -20 14 18 -33z"/>
<path d="M5725 5607 c96 -52 121 -75 185 -172 45 -69 63 -105 71 -150 18 -96
65 -212 138 -340 38 -66 95 -172 127 -235 31 -63 59 -110 61 -103 8 23 -46
212 -91 318 -63 148 -135 275 -261 459 -108 158 -134 185 -222 230 -74 37 -80
32 -8 -7z"/>
</g>
</svg>
