<?xml version="1.0" encoding="UTF-8" standalone="no"?>
<svg xmlns:rdf="http://www.w3.org/1999/02/22-rdf-syntax-ns#" xmlns="http://www.w3.org/2000/svg" height="1781pt" width="1471pt" version="1.1" xmlns:cc="http://creativecommons.org/ns#" xmlns:dc="http://purl.org/dc/elements/1.1/" viewBox="0 0 1471 1781">
<path fill="#020104" d="m132.59 0h5.99c27.72 25.82 37.76 73.08 75.14 90.32 24.46 3.49 44.89 24.88 49.1 48.48-4.83 27.87-2.39 58.82 13.64 82.78 36.93 29.51 75.44 57.23 115.44 82.52 17.02 9.53 25.72 28.55 41.35 39.66 43.01-13.69 84.69-33.13 119.97-61.54 11.64-8.72 25.75-18.02 25.65-34.54-5.97-7.43-18.36-17.47-27.51-9.19-10.51 7.31 5.89 28.48-11.1 27.51-15.48-2.87-22.17-20.49-17.35-34.52 8.82-13.97 18.41-27.77 31.11-38.48 33.22-18.35 76.56-6.86 100.57 21.4 36.74 28.16 54.35 75.87 52.54 121.41 3.56 77.02-34.45 148.4-39.22 224.14-0.28 43.11 16.28 84.54 37.84 121.28 13.78 20.58 33.53 35.83 51.35 52.68 42.23 33 89.83 65.28 144.81 69.79 11.3-2.37 28.9 0.4 33.11-13.73 13.66-19.17 30.56-39.06 53.01-47.05 5.45-48.75-21.25-93.35-25.24-141.59-12.75-63.68-1.16-133.35 39.61-184.97 16.5-20.23 43.1-27.86 68.3-29.43-15.4-76.13 7.3-156.4 54-217.28 32.6-36.48 61.6-76.07 96.1-110.87 4.8-6.61 7.9-15.85 16.3-18.6-18.9 65.15-21.3 136.35-3.3 201.98 18.4 80.19 37 160.77 46.3 242.65 35.1-10.9 64.9-32.74 95.8-51.87 33.1-34.4 38.8-83.58 59-125.02 4.2-8.81 10.5-17.24 19-21.75 10.1 32.89 13.5 71.21-0.8 103.03 9.4-3.51 5.6-20.95 17.9-18.45v2.84c-10.4 45.43-40.4 84.55-79 110.41-36.2 30.41-80.7 51.85-109.3 90.66-9.4 14.29-5.8 32.22-10 48.08-4.9 53.88-26.7 103.51-39.4 155.53-8.7 31.02-23.5 60.29-43.8 85.32-19.6 10.53-41.1 30.43-32.4 55.18 8.1-2.45 0.5 7.81 0 11.44 3.2 16.91 8.8 33.84 8.4 51.15-10.7 24.14-2.9 58.14-28.5 73.74-23.5 8.7-45.9-6.3-66.3-15.8-26.1 0.7-48.9 16.7-66.6 34.9-14.7 22.2-14.26 52.7-36.26 70.6-39.56 38.7-99.4 31.7-149.77 39.2-15.17 5.7-31.06-0.6-46.63 1.1-1.84 8.2-2.27 18.5 5.6 24 56.03 41 111.73 83.9 156.46 137.4 22.51 24.8 38.29 58.6 34.01 92.8-3.94 12.4-8.06 24.7-13.57 36.6-16.91-19.8-27.61-44.5-39.02-67.8-9.13-16-20.86-30.3-29.29-46.7-26.84-32.3-60.16-63.2-102.95-70.9-35.39-13.4-71.58-26.4-102.74-48.5-10.82-8.5-24.36 2.5-35.73 4.2-32.67 15.1-59.67 39.5-89.03 60-46.99 45.9-72.32 108.5-92.08 169.9-18.15 53-24 109.3-26.23 164.8-1.52 10-1.16 20.2-0.13 30.3 1.38 19.7 2.46 39.5 7.62 58.7-5.56 18.5-5.17 47.5-28.07 51.1h-17.67c-20.5-7-33.24-35.8-14.48-51.2 6.58-5.9 9.97 0.9 9.38 6.7 12.45 5.3-3.4-13.2 8.78-11.1 7-3.3 2.86-13.5-0.05-18.7-14.56-31.1-48.94-42.6-74.12-62.8-41.17-22.5-75.52-57.7-109.36-90.7-27.55-32.2-53.62-67.1-65.62-108.4-7.05-30.9-6.93-63-14.22-93.8-15.26 50.3-22.79 104.7-39.43 155.5-10.19 15.4-16.44 39.1-37.25 42.9-26.7 8.2-45.85-26.4-40.06-49.1 2.01-11.1 12.27-29.1 25.84-22.4 5.24 3-2.51 7.3-2.91 11 3.49 4.2 13.08 5.1 13.73-2.1 28.25-56.4-3-118.9 7.08-177.9 7.93-89.6 50.35-182.1 130.91-228.2-11.69-24.3-37.29-39.9-63.35-45.2-23.85-7.7-53.34 5.5-61.91 29.4-3.92 9.8 5.54 16.2 8.32 24.4-12.93 2.9-27.8-3-35.55-13.7-13.72-31.2-0.04-70.7 27.92-89.34 43.85-36.97 102.69-44.52 157.4-51.53 32.03-4.19 63.52-12.72 96.01-13.08 8.83 0.33 17.67 0.49 26.51 0.17 34.45-1.23 68.59 3.62 102.92 5.28-44.86-36.78-108.21-36.89-154.26-71.94-67.62-49.23-87.58-148.05-53.12-222.49 14.67-46.45-8.78-96.78 8.42-142.64 6.74-37.04 34.26-66.39 62.51-89.23-21.46-31.67-41.27-64.91-57.88-99.52-35.3-26.03-65.59-58.61-102.39-82.68-46.55-37.28-104.33-61.3-141.62-109.36-10.18-9.74-13.36-23.53-16.77-36.6v-4.49c0.58-2.23 2.12-4.2 4.59-2.93 19.78 22.59 46.76 38.01 75.17 46.99 25.62 9.01 56.05 8.65 77.34 26.83 2.06 27.44 29.56 39.19 51.08 49.64-5.2-18.75-13.33-36.9-23.16-53.71-18.51-38.24-38.09-76.01-57.25-113.94-1.38-6.98-2.14-16.7 4.82-21.03m2.64 5.2c-7.44 24.68 15.36 45.21 24.73 65.84 13.33 39.68 40.87 72.84 53.02 112.97 24.04 76.76 66.43 145.77 108.12 213.98 15.56-12.77 32.91-23.37 51.01-32.1 2.57-2.32 11.78 2.63 6.52-3.91-37.2-53.33-91.2-95.8-116.54-157.06-10.16-22.69-5.03-48.25-5.21-72.24-5.59-18.74-23.34-32.34-42.48-35.01-40.55-15.71-50.9-65.42-79.17-92.47m1091.4 53.21c-34.4 38.83-66.7 79.27-101.3 117.89-46 60.74-65.8 141.84-48.4 216.53-4.2 5.31-7.6-4.04-12.9-0.93-13.7-0.09-27 4.79-38.7 11.35-40.16 28.19-57.5 78.43-60.21 125.71-13.38 72.13 27.78 138.59 31.05 209.82 19.66-1.74 39.06-4.84 58.66-7.55 1.5 0.73 2.9 1.76 4.2 2.87-10.1 8.07-25.3 12.19-28.3 26.62-1.9 5.87-4.6 17.7 0.9 20.92 7.9-16.23 28.4-18.67 44.3-17.61 14 5.83 25.5 17.93 34.1 30.1-3.4 7.86-8.3-2.73-11.6-5.97-12.1-2.83-20.7 10.5-17.3 21.28 18 2.36 37.8 9.14 47.9 24.44 8-26.65 1.3-57.47-9.8-83.03-24.3-62.13-50-129.39-32.2-196.8 4.3-8.81 3.9-25.18 16.8-25.76 3.3 12.49 1.7 26.55 9.2 37.68 11.3 15.69 27.1 28.31 39.2 42.67-3.8-11.43-2.6-25.86-12.8-34.08-33.5-44.36-42.5-105.36-25.8-158.01 2.6-3.74 3-15.63 9.9-13 2.6 26.45 18.5 49.02 36.5 67.47-14-43.15-36-86.23-33-133.05 2.8-57.48 14.8-116.26 42.9-167.13 15.5-38.65 42.8-71.25 57.7-110.37 0.3-1.26 1-3.02-1-2.06m-1219.8 17.8c0.79 8.3 2.93 16.79 9.93 22.09 70.54 70.2 159.71 118.04 233.33 184.61-16.04-27.54-25.77-58.23-38.86-87.16-25.61-10.37-52.07-25.94-58.49-55.36-36.85-19.4-81.06-20.17-116.88-42.2-9.28-7.82-19.25-15.2-29.03-21.98m1215.4 11.87c-21.9 33.17-39.2 68.96-56.6 104.58-31.9 68.51-43.6 149.2-20.5 222.21 7.7 22.7 23.5 45.09 22.3 68.7-22.9-14.77-41.5-40.03-47.2-66.52-20.6 54.31-4.8 118.48 30.5 163.4 3.1 12.55 14 28.12 4.6 39.35-20.7-24.33-53.9-46.06-54.9-81.74-22.2 41.78-10.1 90.74-3.5 135.01 14.2 54.55 52.5 108.39 37.4 165.66 12.1 13.17 17.7 30.61 19.7 48.12 19.2-19.88 45.7-36.98 56-64.86 14-21.3 17-46.82 25.4-70.5 35-104.5 54-217.17 31.6-326.6-10.2-113.03-66.5-221.83-44.1-336.92l-0.7 0.11m-658.86 107.37c-22.02 4.04-31.52 27.41-36.23 46.82 0.11 8.03 6.01 20.07 15.72 17.35-5.18-16.15 9.5-35.45 26.78-28.4 9.27 8.06 20.53 17.93 18.33 31.87 7.79 62.13-21.47 118.81-42.52 175.32-12.56 49.24-26.68 98.32-32 149.03-6.1 45.43-2.82 94.29 18.79 135.51-1.12 1.21-1.81 0.02-2.38-0.98-23.63-44.29-30.7-97.8-17.9-146.33 2.12-51.31 18.01-100.92 33.04-149.62 18.77-43.11 36.38-88.29 38.17-135.94-14.59 33.69-48.45 55.77-83.12 65.91-62.62 14.5-125.85 31.38-181.07 65.94-38.85 25.25-68.76 70.45-63.02 118.27-1.36 18.17 2.47 35.93 4.98 53.77-7.09 50.26 7.63 99.96 25.93 146.2 30.24 43.79 57.59 91.69 101.98 123.01 26.51 19.94 67.03 28.48 76.33 64.83 42.36 7.33 87.89 5.09 129.46 19.46 59.18 13.2 118.45 27.06 176.17 45.94 6.49 1.06 14.01-0.01 18.03 6.07 48.21 15.62 98.9 31.92 150.01 25.52 5.78-14.9 6.65-30.44 19.8-41.39-36.9-27.77-51.26-82.61-46.46-128.6 3.07-7.92-3.57-4.15-6.6-3.25-77.73 20.94-163.5 33.02-239.96 0.7-48.67-26.07-99.45-56.66-125.54-107.51-2.06-6.21-7.99-12.07-6.2-19 6.77 10.97 14.23 21.54 20.11 33.04 38.03 53.94 98.81 86.38 161.04 104.1 66.88 8.71 134.99-1.39 198.64-21.33 4.35-10.99 7.65-22.75 8.3-34.61-40.62 10.72-76.83-16.06-113.86-28.21-33.07-22.99-68.86-43.79-94.74-75.29-19.16-29.75-35.35-61.69-45.2-95.79-22.35-79.53 26.7-153.5 30.84-231.8 14.48-62.36-7.72-135.44-63.05-171-20.3-14.83-49.54-21.83-72.6-9.61m-275.43 43.68c24.06 47.27 72.57 76.34 96.57 123.55 14.61-3.63 29-10.77 43.52-15.69-14.26-16.88-29.56-33.8-49.04-44.95-31.67-19-60.25-42.73-91.05-62.91m293.54 22.94c-48.13 55.07-117.71 81.62-185.76 101.6-32.06 10.01-59.54 29.76-85.46 50.56-6.86 8.32-18.1 12.57-21.29 23.74 33.84-34.96 83.93-45.49 125.46-66.58 48.44-18.25 109.85-13.41 145.37-57.62 9.73-15.6 26.11-32.09 21.68-51.7m869.75 30.91c-22.5 30.14-33.4 67.45-44.2 103.05-20.3 53.47-81.7 65.66-124.5 94.82 0.9 25.26-0.4 52.27 0.1 77.16 23.1-30.76 56.8-50.92 87.5-72.97 42.3-27.78 82.6-65.3 95.8-115.93-6 5.6-8 18.17-17.9 19.78 9.8-34.15 18.3-71.93 3.2-105.91m-1199 337.96c-27.68 63.61-16.08 141.6 24.62 197.21 46.7 50.1 120.16 53.04 176.25 87.72-17.64-24.29-49.6-33.57-71.93-53.06-34.17-21.71-59.28-54.88-79.73-89.25-27.86-42.34-47.88-93.82-49.21-142.62m737 116.33c-59.5 27.48-84.23 100.7-71.05 161.95 7.01 25.2 16.89 52.77 40.13 67.45 16.77 12.46 37.72 15.88 57.58 20.45 5.3 9.08 17.2 11.88 20.1 22.88 17.1-14.2 0.7-42.38-15.8-48.27-2-40.93 43.8-60.97 78.1-65.18 5.2 1.09 10.4 2.11 15.5 3.47 3.3 1.76 6.6 3.88 10.3 4.58-0.4-13.8 11.1-24.59 22.1-30.93 4-11.87 1.6-23.64-8.3-31.45-1.2-2.41-2.9-4.52-4.8-6.37-11-16.91-29.8-31.52-51-29.26-15-10.26-3.6-33.25 12.8-33.28-14.5-21.85-51.5-18.8-61.8 5.07 0.1 3.1 2.5 15.1-2.9 8.41-9.3-18.97-6.3-47.29 12.8-58.86-17.8 4.06-36.8 1.81-53.76 9.34m157.16 142.08c-14 4.32-15.9 21.99-22.3 32.54-19.8-13.96-45.1-5.87-66 1.2-20.2 5.71-34.2 27.4-31.3 47.92 14.9 5.45 25 24.66 22.4 41.09 23.8 26.5 61 49.4 97.3 33.3 5.6-35.1 23.6-74.77 5.5-108.4 7.4 13.92-25.2 20.1-16 4.2 0.5-8.57 11.2-6.83 15.8-11.55 3.8-8.55-5.6-18.07 0.8-26.05-0.7-4.49 0.8-16.27-6.2-14.25m-843.13 38.58c-52.41 3.44-103.83 15.79-155.26 26-34.32 11.39-71.09 25.86-91.3 57.77-19.88 20.8-19.49 69.9 14.56 74.5-7.04-10.2-8.12-25.6-2.25-37.2 28.26-29.1 71.55-40.9 111.26-33.3 35.38 3.1 67.63 18.9 99.01 34.3 4.07 2.1 19.15 0 15.36 6.9-55.37 3.5-111.92 27.8-149.41 70.3-53.34 60.8-78 142.9-76.59 223.2 3.89 47.3 18.89 100.5-10.16 143-2.71 10-14.05 3-18.35-1.6-3.99-3 8.42-12.9-1.4-10.6-21.95 17.1-13.24 49.6 6.92 63.5 8.13 1.3 16.34-0.7 24-2.9 25.19-18.6 24.26-51.6 29.97-79.2 6.41-49.9 5.28-100.6 12.46-150.5 9.43-65.2 47.26-124 97.93-165.1 84.22-61.2 192.88-71 293.93-69 82.01 6.7 164.16 11.3 246.42 15.5 28.51 3.9 57.51 0.2 85.76-3.6 42.58 7 88.44-20.1 103.6-60.2-22.65 3.8-45.69 2.9-67.8-3.5-36.48-6.8-74.19-14.3-106.7-32.47-73.45-18.77-147.65-35.01-221.43-52.57-79.55-8.06-161.89-19.27-240.53-13.23m660.45 59.29c-12.18 8.55-17.41 25.38-13.34 39.58 29.44 3.2 46.46 36.7 39.56 64.1 12.06-30.3 44.86-51.4 77.16-55.5-6.8-5.8-15.3-9.9-19.5-18.2-6.5 0.9-10.8 11.4-17.6 11 2.8-15.7-12.9-23.5-24.8-28.36-12.7-7.63-28.57-5.47-41.48-12.62m-810.39 30.18c-16.09 2-32.64 4.2-47.22 11.9 35.17-4.1 81.27 14.7 95.56 49.3 20.99-13.3 46.74-20.4 70.13-24.4-33.32-24.5-76.86-36.7-118.47-36.8m792.4 14.8c-16.14 32.3-46.54 57.4-83.03 62.5-111.79 10.9-223.72-5.1-335.49-8.9-46.35-1.4-93.86-7.7-139.34 4.1-20.98 2.9-42.22 4.5-62.94 9-87.42 20.3-167.05 83.6-194.42 170.6-25.66 64.6-16.83 136.3-25.95 203.7 7.19-34.4 16.03-68.4 24.13-102.6 1.15-21.4 10.05-41.2 20.26-59.7 26.76-64 76.86-117.8 142.61-141.3 60.74-22.1 126.12-26.8 190.27-28.5 116.91 6.4 232.09 31 349.13 36.9 43.13-2.4 92.9-1.7 127.09-33 13.7-6.7 22.07-20 26.8-34-2.45-7.8-4.56-16-0.7-23.9 6.88-24.1-11.99-55.7-38.42-54.9m-490.17 113.3c-57.97 6.4-117.63 10.3-172.03 33.1-70.14 26.2-114.46 92.8-141.19 160.1 6.41 16.1 1.91 34.1 6.28 50.8 2.68 41.4 14.52 83.4 40.27 116.6 7.81 15 23.64 23.5 31.48 38.5 8.5 6.1 11.89 21.2 24.14 20.2 5.95-15.6 3.93-32.6 2.38-48.8-4.16-80.8 30.27-165 95.18-214.9 26.35-19.8 54.63-39.3 87.36-46.6 74.35-35.6 160.85-36.5 241.33-40.7 14.82-37.7 63.84-31 95.15-34.5-60.73-9.8-122.42-14.4-183.01-25.3-42.18-5.5-84.55-12.3-127.34-8.5m295.03 38.9c-14.84 6.1-31.81-2.1-46.62 6.6-17.52 5.4-38.54 22.5-28.67 42.7 43.83 31.9 97.2 45.9 146.15 67.8 61.84 29.5 92.33 95.8 121.03 154 4.28 3.3 7.23 9.7 11.27 12.1 11.15-23.2 15.57-52.8 2.87-76.2-43.03-78.1-118.49-130.4-187.21-183.9-2.85-7.1-6.23-14.5-3.61-22.4-4.94-1.3-10.2-1.3-15.21-0.7m-86.07 37c-35.1 8.9-71.34 14.5-105.07 28-24.77 11.3-47.02 27.3-69.36 42.7-54.85 43.7-83.67 112.2-91.53 180.5-12.35 60.9-26.49 125-9.72 186.4-2.84 24.2 19.75 40 28.71 60.4 9.01 9.8 12.69 22.6 17.6 34.5 12.27-23.8-2.73-50.3-1.7-75.3-6.97-104.5 19.17-208.9 66.59-301.6 20.9-42.2 53.49-80 94.83-103.1 21.53-17.5 45.76-33.2 72.99-39.1-0.06-4.3 2.82-16.1-3.34-13.4m-56.03 5c-98.88 5.2-207.75 20.2-280.85 93.2-46.68 43.2-72.46 106.4-74.31 169.4-6.33 24.8 8.52 51.8-3.34 76-0.82 3-5.95 6.7-2.79 9.7 40.35 43.4 96.21 67.2 140.72 105.5-10.29-40.5-16.4-83.3-8.32-124.6 7.56-34.6 14.98-69.5 17-105 8.33-51.1 27.82-101.9 65.38-138.6 43.41-44.3 101.76-71.9 161.89-85.3-2.57-3.1-11.2 0.7-15.38-0.3m-196.19 495c-3.2 4.9-12.39 8-7.53 14.6-2.4 8.1-17.05 5.9-17.96-2.8-5.87 1.1-5.5 9-6.72 13.3-5.99 26.4 40.74 44.4 49.6 16.2-2.3-14.4-8.13-31.2-17.39-41.3z"/>
<path fill="#ffd3c6" d="m135.23 5.2c28.27 27.05 38.62 76.76 79.17 92.47 19.14 2.67 36.89 16.27 42.48 35.01 0.18 23.99-4.95 49.55 5.21 72.24 25.34 61.26 79.34 103.73 116.54 157.06 5.26 6.54-3.95 1.59-6.52 3.91-18.1 8.73-35.45 19.33-51.01 32.1-41.69-68.21-84.08-137.22-108.12-213.98-12.15-40.13-39.69-73.29-53.02-112.97-9.37-20.63-32.17-41.16-24.73-65.84z"/>
<path fill="#be98ff" d="m1226.6 58.41c2-0.96 1.3 0.8 1 2.06-14.9 39.12-42.2 71.72-57.7 110.37-28.1 50.87-40.1 109.65-42.9 167.13-3 46.82 19 89.9 33 133.05-18-18.45-33.9-41.02-36.5-67.47-6.9-2.63-7.3 9.26-9.9 13-16.7 52.65-7.7 113.65 25.8 158.01 10.2 8.22 9 22.65 12.8 34.08-12.1-14.36-27.9-26.98-39.2-42.67-7.5-11.13-5.9-25.19-9.2-37.68-12.9 0.58-12.5 16.95-16.8 25.76-17.8 67.41 7.9 134.67 32.2 196.8 11.1 25.56 17.8 56.38 9.8 83.03-10.1-15.3-29.9-22.08-47.9-24.44-3.4-10.78 5.2-24.11 17.3-21.28 3.3 3.24 8.2 13.83 11.6 5.97-8.6-12.17-20.1-24.27-34.1-30.1-15.9-1.06-36.4 1.38-44.3 17.61-5.5-3.22-2.8-15.05-0.9-20.92 3-14.43 18.2-18.55 28.3-26.62-1.3-1.11-2.7-2.14-4.2-2.87-19.6 2.71-39 5.81-58.66 7.55-3.27-71.23-44.43-137.69-31.05-209.82 2.71-47.28 20.05-97.52 60.21-125.71 11.7-6.56 25-11.44 38.7-11.35 5.3-3.11 8.7 6.24 12.9 0.93-17.4-74.69 2.4-155.79 48.4-216.53 34.6-38.62 66.9-79.06 101.3-117.89m-71.1 109.08c-16.4 17.84-30.5 38.42-45 58.04-29.1 40.31-23.7 94.86-23.8 140.35 7.5-28.43 23.6-53.23 33.5-80.66-6.3 3.98-9.4 14.7-18 14.55 2.8-17.47 17.4-30.82 23-47.57-6.2 5.82-11.4 13.68-20.3 15.62 15.9-33.41 36.9-68.24 50.6-100.33m-90.6 234.67c-20.8 13.85-48.9 17.67-64.7 38.1-17.14 30.41-19.15 66.3-25.06 100 0.05 62.66 24.76 121.25 41.06 180.76 7.9-27.42 15.4-56.17 22.6-84.1 7.3-26.96 19.3-52.6 26.3-79.55-5.6 9.3-9.3 24.67-20.9 29.7-5.5-3.98-5.8-11.04-7-17.12 3.3-36.23 20.3-69.03 30.3-103.5 2.1-1.95 1.1-8.97-2-4.93-9.5 10.49-17.1 26.99-32.1 29.21-6.6-10.02 3.5-21.43 3.6-31.9 6.9-19.27 17.8-42.58 27.9-56.67z"/>
<path fill="#ffd3c6" d="m6.81 76.21c9.78 6.78 19.75 14.16 29.03 21.98 35.82 22.03 80.03 22.8 116.88 42.2 6.42 29.42 32.88 44.99 58.49 55.36 13.09 28.93 22.82 59.62 38.86 87.16-73.62-66.57-162.79-114.41-233.33-184.61-7-5.3-9.14-13.79-9.93-22.09z"/>
<path fill="#d7cefd" d="m1222.2 88.08l0.7-0.11c-22.4 115.09 33.9 223.89 44.1 336.92 22.4 109.43 3.4 222.1-31.6 326.6-8.4 23.68-11.4 49.2-25.4 70.5-10.3 27.88-36.8 44.98-56 64.86-2-17.51-7.6-34.95-19.7-48.12 15.1-57.27-23.2-111.11-37.4-165.66-6.6-44.27-18.7-93.23 3.5-135.01 1 35.68 34.2 57.41 54.9 81.74 9.4-11.23-1.5-26.8-4.6-39.35-35.3-44.92-51.1-109.09-30.5-163.4 5.7 26.49 24.3 51.75 47.2 66.52 1.2-23.61-14.6-46-22.3-68.7-23.1-73.01-11.4-153.7 20.5-222.21 17.4-35.62 34.7-71.41 56.6-104.58m-11.2 32.19c-15.6 11.75-18.5 31.92-24.6 49.18-10 35.58-17 72.25-21.4 108.9 9.6-19.92 50.8-25.98 46.1-54.24-18.6-31.4-7.8-73.24-0.1-103.84m-5 155.93c-7.6 43.55 0.9 87.42 3.8 130.99 2.5 38.08 9.4 75.71 13.2 113.64-17.4-3.21-40.9-24.85-56-5.88-1.4 10.61 3.6 21.7 7.4 31.62 13.7 35.21 12.5 73.75 6.8 110.36-16.7-2.29-35.4-8.59-51-6.96 15.6 55.83 33.8 111.57 51 166.93 5.8-3.5 3.2-15.36 8.8-20.99 2.4 15.49-2.3 31.04-5 46.17 32.4-25.74 37.8-70.76 43-109.1 5-39.64 14-79.92 13.8-119.63 6.3-25.14 12.1-51.09 12.3-77.21-9.7-89.74-25.6-179.05-39.2-267.96-5-4.68-8.5 4.14-8.9 8.02z"/>
<path fill="#bcb2e2" d="m1211 120.27c-7.7 30.6-18.5 72.44 0.1 103.84 4.7 28.26-36.5 34.32-46.1 54.24 4.4-36.65 11.4-73.32 21.4-108.9 6.1-17.26 9-37.43 24.6-49.18z"/>
<path fill="#9872e4" d="m1155.5 167.49c-13.7 32.09-34.7 66.92-50.6 100.33 8.9-1.94 14.1-9.8 20.3-15.62-5.6 16.75-20.2 30.1-23 47.57 8.6 0.15 11.7-10.57 18-14.55-9.9 27.43-26 52.23-33.5 80.66 0.1-45.49-5.3-100.04 23.8-140.35 14.5-19.62 28.6-40.2 45-58.04z"/>
<path fill="#be98ff" d="m563.34 195.45c23.06-12.22 52.3-5.22 72.6 9.61 55.33 35.56 77.53 108.64 63.05 171-4.14 78.3-53.19 152.27-30.84 231.8 9.85 34.1 26.04 66.04 45.2 95.79 25.88 31.5 61.67 52.3 94.74 75.29 37.03 12.15 73.24 38.93 113.86 28.21-0.65 11.86-3.95 23.62-8.3 34.61-63.65 19.94-131.76 30.04-198.64 21.33-62.23-17.72-123.01-50.16-161.04-104.1-5.88-11.5-13.34-22.07-20.11-33.04-0.54-1.02-1.08-2.02-1.65-3-21.61-41.22-24.89-90.08-18.79-135.51 5.32-50.71 19.44-99.79 32-149.03 21.05-56.51 50.31-113.19 42.52-175.32 2.2-13.94-9.06-23.81-18.33-31.87-17.28-7.05-31.96 12.25-26.78 28.4-9.71 2.72-15.61-9.32-15.72-17.35 4.71-19.41 14.21-42.78 36.23-46.82m32.27 11c-7.45 0.25-14.7 4.22-18.58 10.61 12.13-7.23 19.86 7.72 22.27 17.63 7.51 33.82 5.65 69.36-2.8 102.85-6.42 41.16-27.97 78.14-34.64 119.27-8.89 30.53-10.16 65.75-10.79 95.26 1.94-22.13 8.01-45.74 14.07-67.93 14.61-38.38 26.66-80.13 53.06-111.97-8.04 33.91-18.51 73.53-17.56 109.91 15.4-37.14 35.27-72.05 50.6-109.14 2.72 20.07-0.14 46.34 4.55 65.23 13.44-30.29 13.08-64.16 21.47-95.89 0.69-3.03 1.51-10.3 6.38-9.13 3.93 3.66 4.44 9.99 7.24 13.8 15.81-32.9-6.35-68.98-24.7-96.11-18.12-20.79-40.16-47.12-70.57-44.39m-9.24 293.87c-8.82 6.69-9.51 19.8-13.5 29.54-10.5 42.11-16.03 86.51-12.6 129.21-7.43-31.77-14.47-63.68-20.41-95.75-2.41-1-2.79 2.38-3.81 3.83-18.39 44.79-12.63 96.15 4.27 140.53 15.93 44.73 43.17 91.91 89.85 109.11-19.6-20.76-38.01-47.66-39.54-76.78 36.77 23.95 60.72 65.78 100.45 85.84-18.03-28.63-35.75-57.6-51.19-87.74 42.98 22.46 86.39 46.08 133.52 58.5 5.67 2.41 9.24-5.15 3.76-7.83-67.49-36.56-126.1-102.38-131.11-181.87-3.92-29.92 0.93-60.46 10.78-88.75-16.57 6.46-20.19 28.9-27.45 43.29-9.31 29.41-11.92 62.23-14.23 91.29-2.65-27.39-7.24-56.51-7-82.65-6.46 27.71-8.86 59.34-16.23 88.03-10.09-48.08-19.32-101.24-4.86-149.94 2.26-2.39 4.48-8.23-0.7-7.86z"/>
<path fill="#a37de4" d="m595.61 206.45c30.41-2.73 52.45 23.6 70.57 44.39 18.35 27.13 40.51 63.21 24.7 96.11-2.8-3.81-3.31-10.14-7.24-13.8-4.87-1.17-5.69 6.1-6.38 9.13-8.39 31.73-8.03 65.6-21.47 95.89-4.69-18.89-1.83-45.16-4.55-65.23-15.33 37.09-35.2 72-50.6 109.14-0.95-36.38 9.52-76 17.56-109.91-26.4 31.84-38.45 73.59-53.06 111.97-6.06 22.19-12.13 45.8-14.07 67.93 0.63-29.51 1.9-64.73 10.79-95.26 6.67-41.13 28.22-78.11 34.64-119.27 8.45-33.49 10.31-69.03 2.8-102.85-2.41-9.91-10.14-24.86-22.27-17.63 3.88-6.39 11.13-10.36 18.58-10.61z"/>
<path fill="#fed3c6" d="m287.91 239.13c30.8 20.18 59.38 43.91 91.05 62.91 19.48 11.15 34.78 28.07 49.04 44.95-14.52 4.92-28.91 12.06-43.52 15.69-24-47.21-72.51-76.28-96.57-123.55z"/>
<path fill="#d8cefd" d="m581.45 262.07c4.43 19.61-11.95 36.1-21.68 51.7-35.52 44.21-96.93 39.37-145.37 57.62-41.53 21.09-91.62 31.62-125.46 66.58 3.19-11.17 14.43-15.42 21.29-23.74 25.92-20.8 53.4-40.55 85.46-50.56 68.05-19.98 137.63-46.53 185.76-101.6z"/>
<path fill="#f1e7ff" d="m1206 276.2c0.4-3.88 3.9-12.7 8.9-8.02 13.6 88.91 29.5 178.22 39.2 267.96-0.2 26.12-6 52.07-12.3 77.21-5.6-8.74-6.5-23.17-15-28.18 2.2 28.13 3.3 57.79-6.2 84.68-14.4-1.21-10.3-25.39-17.4-30.57-5.7 27.24 1.9 56.97 0.5 85.18-1.5 4.51-0.6 14.36-7.4 14.63-9.8-13.79-5.3-31.8-10.4-47.17-5.4 2.3-0.9 12.36-1.7 16.83 0.2 29.16 3.3 58.18 5.8 87.16-5.6 5.63-3 17.49-8.8 20.99-17.2-55.36-35.4-111.1-51-166.93 15.6-1.63 34.3 4.67 51 6.96 5.7-36.61 6.9-75.15-6.8-110.36-3.8-9.92-8.8-21.01-7.4-31.62 15.1-18.97 38.6 2.67 56 5.88-3.8-37.93-10.7-75.56-13.2-113.64-2.9-43.57-11.4-87.44-3.8-130.99z"/>
<path fill="#7954b3" d="m500.02 355.99c34.67-10.14 68.53-32.22 83.12-65.91-1.79 47.65-19.4 92.83-38.17 135.94-15.03 48.7-30.92 98.31-33.04 149.62-12.8 48.53-5.73 102.04 17.9 146.33 0.57 1 1.26 2.19 2.38 0.98 0.57 0.98 1.11 1.98 1.65 3-1.79 6.93 4.14 12.79 6.2 19 26.09 50.85 76.87 81.44 125.54 107.51 76.46 32.32 162.23 20.24 239.96-0.7 3.03-0.9 9.67-4.67 6.6 3.25-4.8 45.99 9.56 100.83 46.46 128.6-13.15 10.95-14.02 26.49-19.8 41.39-51.11 6.4-101.8-9.9-150.01-25.52-4.02-6.08-11.54-5.01-18.03-6.07-57.72-18.88-116.99-32.74-176.17-45.94-41.57-14.37-87.1-12.13-129.46-19.46-9.3-36.35-49.82-44.89-76.33-64.83-44.39-31.32-71.74-79.22-101.98-123.01-18.3-46.24-33.02-95.94-25.93-146.2-2.51-17.84-6.34-35.6-4.98-53.77-5.74-47.82 24.17-93.02 63.02-118.27 55.22-34.56 118.45-51.44 181.07-65.94m-142.02 59c-37.45 23.82-74.5 54.09-90.23 97.17-8.9 25.3-6.79 53.42-4 80.05 9.7 58.07 28.49 114.41 53.18 167.84 5.54 11.11 14.16 20.57 24.25 27.76 34.93 27.59 74.09 49.42 113.86 69.06-33.14-43.61-68.95-86.14-91.1-136.82-21.73-47.98-26.73-102.19-22.14-154.07 2.97-4.69 6.99 0.72 8.27 3.95 14.87 38.83 3.03 83.03 19.24 121.73 21.97 50.77 60.25 92.63 102.37 127.65 15.94 13.18 32.2 26.77 51.6 34.53 5.73 1.02-0.14-5.98-1.26-7.84-30.15-44.97-53.33-94.65-87.06-137.01-27.2-48.51-28.57-106.22-18.9-159.84 1.61-0.71 3.23-1.41 4.73-2.34 28.78 38.21 39.39 86.84 39.32 133.9 3.73 44.43 41.16 76.78 80.74 91.39-39.31-59.19-65.79-131.74-52.94-203.17 16.75-71.09 45.38-139.13 62.77-210.07-66.03 8.69-132.79 25.58-192.7 56.13m536.75 449.51c-72.15 14.63-146.75 25.82-219.78 16.19 34.62 14.97 73.77 22.68 108.85 31.4-48.39-4.26-96.77-10.41-145.33-9.82-2.9-0.4-7.38-0.14-7.67 3.61 12.79 6.58 27.35 8.64 41.41 10.78 51.59 10.26 105.64 15.58 156.7 23.4-79.63-0.98-158.74-16.57-237.01-27.44 70.94 35.43 152.71 38.17 229.05 49.3-59.03 0.97-117.01-14.35-175.32-21.49-33.56-4.12-67.15-12.6-100.73-13.76 45.52 12.87 91.28 25.15 137.84 33.51 82.9 24.81 165.12 56.42 252.89 55.72 1.49-13.3 4.77-26.84 4.64-40.1-13.78-13.66-24.8-29.92-37.34-44.75-14.74-18.08-16.82-44.86-3.37-64.38 2.94-3.89-1.48-3.12-4.83-2.17z"/>
<path fill="#feddce" d="m1451.2 292.98c15.1 33.98 6.6 71.76-3.2 105.91 9.9-1.61 11.9-14.18 17.9-19.78-13.2 50.63-53.5 88.15-95.8 115.93-30.7 22.05-64.4 42.21-87.5 72.97-0.5-24.89 0.8-51.9-0.1-77.16 42.8-29.16 104.2-41.35 124.5-94.82 10.8-35.6 21.7-72.91 44.2-103.05z"/>
<path fill="#bf99ff" d="m358 414.99c59.91-30.55 126.67-47.44 192.7-56.13-17.39 70.94-46.02 138.98-62.77 210.07-21.39-31.72-5.65-70.46-2.91-105.19-12.28 33.66-33.78 63.52-64.21 83.07-1.5 0.93-3.12 1.63-4.73 2.34-11.83 4.19-22.33 12.59-34.75 14.63 9.49-39.73 47.82-65.15 58.54-104.91-14.97 17.51-30.88 35.19-49.24 49.75-26.16 20.72-56.28 36.04-82.77 56.22 24.36-47.06 59.68-92.77 107.34-117.88-23.25-1.66-45.75 6.63-67.54 13.65-27.8 12.94-59.5 23.59-77.29 50.5-0.67 1.08-2.94 4.11-2.6 1.05 15.73-43.08 52.78-73.35 90.23-97.17z"/>
<path fill="#9871e4" d="m1064.9 402.16c-10.1 14.09-21 37.4-27.9 56.67-0.1 10.47-10.2 21.88-3.6 31.9 15-2.22 22.6-18.72 32.1-29.21 3.1-4.04 4.1 2.98 2 4.93-10 34.47-27 67.27-30.3 103.5 1.2 6.08 1.5 13.14 7 17.12 11.6-5.03 15.3-20.4 20.9-29.7-7 26.95-19 52.59-26.3 79.55-7.2 27.93-14.7 56.68-22.6 84.1-16.3-59.51-41.01-118.1-41.06-180.76 5.91-33.7 7.92-69.59 25.06-100 15.8-20.43 43.9-24.25 64.7-38.1z"/>
<path fill="#936ecd" d="m347.66 460.61c21.79-7.02 44.29-15.31 67.54-13.65-47.66 25.11-82.98 70.82-107.34 117.88 26.49-20.18 56.61-35.5 82.77-56.22 18.36-14.56 34.27-32.24 49.24-49.75-10.72 39.76-49.05 65.18-58.54 104.91 12.42-2.04 22.92-10.44 34.75-14.63-9.67 53.62-8.3 111.33 18.9 159.84 33.73 42.36 56.91 92.04 87.06 137.01 1.12 1.86 6.99 8.86 1.26 7.84-19.4-7.76-35.66-21.35-51.6-34.53-42.12-35.02-80.4-76.88-102.37-127.65-16.21-38.7-4.37-82.9-19.24-121.73-1.28-3.23-5.3-8.64-8.27-3.95-4.59 51.88 0.41 106.09 22.14 154.07 22.15 50.68 57.96 93.21 91.1 136.82-39.77-19.64-78.93-41.47-113.86-69.06-10.09-7.19-18.71-16.65-24.25-27.76-24.69-53.43-43.48-109.77-53.18-167.84-2.79-26.63-4.9-54.75 4-80.05-0.34 3.06 1.93 0.03 2.6-1.05 17.79-26.91 49.49-37.56 77.29-50.5z"/>
<path fill="#936ecd" d="m420.81 546.81c30.43-19.55 51.93-49.41 64.21-83.07-2.74 34.73-18.48 73.47 2.91 105.19-12.85 71.43 13.63 143.98 52.94 203.17-39.58-14.61-77.01-46.96-80.74-91.39 0.07-47.06-10.54-95.69-39.32-133.9z"/>
<path fill="#a37de4" d="m586.37 500.32c5.18-0.37 2.96 5.47 0.7 7.86-14.46 48.7-5.23 101.86 4.86 149.94 7.37-28.69 9.77-60.32 16.23-88.03-0.24 26.14 4.35 55.26 7 82.65 2.31-29.06 4.92-61.88 14.23-91.29 7.26-14.39 10.88-36.83 27.45-43.29-9.85 28.29-14.7 58.83-10.78 88.75 5.01 79.49 63.62 145.31 131.11 181.87 5.48 2.68 1.91 10.24-3.76 7.83-47.13-12.42-90.54-36.04-133.52-58.5 15.44 30.14 33.16 59.11 51.19 87.74-39.73-20.06-63.68-61.89-100.45-85.84 1.53 29.12 19.94 56.02 39.54 76.78-46.68-17.2-73.92-64.38-89.85-109.11-16.9-44.38-22.66-95.74-4.27-140.53 1.02-1.45 1.4-4.83 3.81-3.83 5.94 32.07 12.98 63.98 20.41 95.75-3.43-42.7 2.1-87.1 12.6-129.21 3.99-9.74 4.68-22.85 13.5-29.54z"/>
<path fill="#fdfeee" d="m1226.8 585.17c8.5 5.01 9.4 19.44 15 28.18 0.2 39.71-8.8 79.99-13.8 119.63-5.2 38.34-10.6 83.36-43 109.1 2.7-15.13 7.4-30.68 5-46.17-2.5-28.98-5.6-58-5.8-87.16 0.8-4.47-3.7-14.53 1.7-16.83 5.1 15.37 0.6 33.38 10.4 47.17 6.8-0.27 5.9-10.12 7.4-14.63 1.4-28.21-6.2-57.94-0.5-85.18 7.1 5.18 3 29.36 17.4 30.57 9.5-26.89 8.4-56.55 6.2-84.68z"/>
<path fill="#d8cffe" d="m252.24 630.94c1.33 48.8 21.35 100.28 49.21 142.62 20.45 34.37 45.56 67.54 79.73 89.25 22.33 19.49 54.29 28.77 71.93 53.06-56.09-34.68-129.55-37.62-176.25-87.72-40.7-55.61-52.3-133.6-24.62-197.21z"/>
<path fill="#d8cefd" d="m989.24 747.27c16.96-7.53 35.96-5.28 53.76-9.34-19.1 11.57-22.1 39.89-12.8 58.86 5.4 6.69 3-5.31 2.9-8.41 10.3-23.87 47.3-26.92 61.8-5.07-16.4 0.03-27.8 23.02-12.8 33.28 21.2-2.26 40 12.35 51 29.26-10.1-8.58-22-14.6-33.9-20.23-3.2-1.67-12.4-6.77-9.3 0.46 7.3 15.58-10.1 25.02-14.9 37.92-7.7 18.6-24.5 30.73-39.9 42.47 20.7 2.19 42.7-9.36 63.2 0.08-34.3 4.21-80.1 24.25-78.1 65.18 16.5 5.89 32.9 34.07 15.8 48.27-2.9-11-14.8-13.8-20.1-22.88-21.25-19.94-46.97-36.47-61.5-62.48-13.46-30.21 1.27-65.8 24.76-86.48 16.24-20.68 45.14-27.57 68.64-31.27-35-1.68-80.86-6.14-110.32 20.6-25.69 13.2-19.88 47.82-19.29 71.73-13.18-61.25 11.55-134.47 71.05-161.95m23.46-0.83c-37.7 8.06-62.83 41.17-79.89 73.3 13.74-10.65 26.62-23.69 43.49-29.42 16.52-10.68 41.4-4.66 51.1 12.49 2-13.62-8.5-27.65-10.2-41.71 0.6-6.31 9.1-19.45-4.5-14.66m40 28.9c-18.5 2.47-10.1 34.85 6.6 25.92-0.4-12.27 9.7-25.11 22.6-23.3-7.4-5.25-20.1-2.44-29.2-2.62z"/>
<path fill="#f1e7ff" d="m1012.7 746.44c13.6-4.79 5.1 8.35 4.5 14.66 1.7 14.06 12.2 28.09 10.2 41.71-9.7-17.15-34.58-23.17-51.1-12.49-16.87 5.73-29.75 18.77-43.49 29.42 17.06-32.13 42.19-65.24 79.89-73.3z"/>
<path fill="#f1e7fe" d="m1052.7 775.34c9.1 0.18 21.8-2.63 29.2 2.62-12.9-1.81-23 11.03-22.6 23.3-16.7 8.93-25.1-23.45-6.6-25.92z"/>
<path fill="#beb4e6" d="m937.48 837.49c29.46-26.74 75.32-22.28 110.32-20.6-23.5 3.7-52.4 10.59-68.64 31.27-23.49 20.68-38.22 56.27-24.76 86.48 14.53 26.01 40.25 42.54 61.5 62.48-19.86-4.57-40.81-7.99-57.58-20.45-23.24-14.68-33.12-42.25-40.13-67.45-0.59-23.91-6.4-58.53 19.29-71.73z"/>
<path fill="#f1e7ff" d="m1089.9 826.08c-3.1-7.23 6.1-2.13 9.3-0.46-0.5 0.27-1.4 0.81-1.9 1.07 17.5 17.26 24.9 42.77 22.8 66.95 11.2-6.17 17-23.5 19.1-36.74 2.4 7.98 4.9 16.17 5.2 24.56-10.6 5.95-25.2 13.57-25.3 27.32-1.3 1.29-3.5 0.9-5.3 1.24-5.1-1.36-10.3-2.38-15.5-3.47-20.5-9.44-42.5 2.11-63.2-0.08 15.4-11.74 32.2-23.87 39.9-42.47 4.8-12.9 22.2-22.34 14.9-37.92z"/>
<path fill="#fdfeef" d="m1097.3 826.69c0.5-0.26 1.4-0.8 1.9-1.07 11.9 5.63 23.8 11.65 33.9 20.23 1.9 1.85 3.6 3.96 4.8 6.37 0.4 1.54 0.9 3.11 1.3 4.68-2.1 13.24-7.9 30.57-19.1 36.74 2.1-24.18-5.3-49.69-22.8-66.95z"/>
<path fill="#d7cffa" d="m1137.9 852.22c9.9 7.81 12.3 19.58 8.3 31.45-11 6.34-22.5 17.13-22.1 30.93-3.7-0.7-7-2.82-10.3-4.58 1.8-0.34 4 0.05 5.3-1.24 0.1-13.75 14.7-21.37 25.3-27.32-0.3-8.39-2.8-16.58-5.2-24.56-0.4-1.57-0.9-3.14-1.3-4.68z"/>
<path fill="#583393" d="m894.75 864.5c3.35-0.95 7.77-1.72 4.83 2.17-13.45 19.52-11.37 46.3 3.37 64.38 12.54 14.83 23.56 31.09 37.34 44.75 0.13 13.26-3.15 26.8-4.64 40.1-87.77 0.7-169.99-30.91-252.89-55.72-46.56-8.36-92.32-20.64-137.84-33.51 33.58 1.16 67.17 9.64 100.73 13.76 58.31 7.14 116.29 22.46 175.32 21.49-76.34-11.13-158.11-13.87-229.05-49.3 78.27 10.87 157.38 26.46 237.01 27.44-51.06-7.82-105.11-13.14-156.7-23.4-14.06-2.14-28.62-4.2-41.41-10.78 0.29-3.75 4.77-4.01 7.67-3.61 48.56-0.59 96.94 5.56 145.33 9.82-35.08-8.72-74.23-16.43-108.85-31.4 73.03 9.63 147.63-1.56 219.78-16.19z"/>
<path fill="#feddcf" d="m1146.4 889.35c7-2.02 5.5 9.76 6.2 14.25-6.4 7.98 3 17.5-0.8 26.05-4.6 4.72-15.3 2.98-15.8 11.55-9.2 15.9 23.4 9.72 16-4.2 18.1 33.63 0.1 73.3-5.5 108.4-36.3 16.1-73.5-6.8-97.3-33.3 2.6-16.43-7.5-35.64-22.4-41.09-2.9-20.52 11.1-42.21 31.3-47.92 20.9-7.07 46.2-15.16 66-1.2 6.4-10.55 8.3-28.22 22.3-32.54m-22.3 38.63c-2.8 18.85 7.3 37.28 12.6 55.37 2.5 1.91 7.1-0.09 4.1-3.13-8.8-16.01-8.8-38.23-16.7-52.24m-41.5 11.46c-6.8 1.81-16.8 4.59-18.6 12.24 7.1-0.29 11.2-7.54 18.2-8.27 7.8-6.27 20.3 2.73 27.7-0.26-6.1-6.09-18.9-3.87-27.3-3.71m14.9 21.06c-11.8-0.6-22.2 9.18-33.9 5.02-6.5-3.48-13.8 6.61-5.6 8.85-5.1-1.46-6.3 3.37-3 5.56 16.3-6.93 36-0.99 52-5.91-2-2.52-8.1-2.67-5.8-9.15 6.1-0.35 8 8.01 13.5 8.05-1.3-7.56-9.4-14.19-17.2-12.42m50.5 35.91c-4.1 3.99-8.8 8.99-15.2 7.19-4.8 2.6-6.9 9-12.7 10.3-1.7-1.3-5.5-2.9-4 0.8 9.5 5.2 33.7 11.6 35.3-5.3 0.4-5.2 8.5-17.33-3.4-12.99z"/>
<path fill="#6a6971" d="m325.68 921.65c8.82-1.12 17.7-0.97 26.51 0.17-8.84 0.32-17.68 0.16-26.51-0.17z"/>
<path fill="#9972e5" d="m303.27 927.93c78.64-6.04 160.98 5.17 240.53 13.23 73.78 17.56 147.98 33.8 221.43 52.57 32.51 18.17 70.22 25.67 106.7 32.47-33.04 13.2-67.31 23.9-102.56 29.2-78.53 2.7-159 10.9-236.15-8.6-58.92-18.4-118.08-36.3-176.81-55.26-78.62-29.12-165.24-15.43-243.51 7.7-3.34-0.39-6.66-0.92-9.99-1.29 17.42-15.88 37.47-30.38 61.06-35 46.9-12.42 98.9-7.13 141.76-33 2.52-2.3-0.49-2.33-2.46-2.02z"/>
<path fill="#b38cfe" d="m148.01 953.93c51.43-10.21 102.85-22.56 155.26-26 1.97-0.31 4.98-0.28 2.46 2.02-42.86 25.87-94.86 20.58-141.76 33-23.59 4.62-43.64 19.12-61.06 35-10.27 1.04 1.83-24.58-9.16-18.08-15.73 12.41-31.02 30.33-30.2 51.43 13.22-21.3 42.51-18.9 64.22-20.2 34.04 3.6 69.9-3.3 103 4.9 25.69 24.1 63.42 25.9 96.45 31.9 53.87 3.4 109.9 9.3 162.74 4.1-86.2-10-173.32-16.2-257.87-36.7 1.63-1.5 8.24-3.5-0.04-3.2-39.74-3.7-79.48-8.3-119.15-12.86 78.27-23.13 164.89-36.82 243.51-7.7 58.73 18.96 117.89 36.86 176.81 55.26 77.15 19.5 157.62 11.3 236.15 8.6 35.25-5.3 69.52-16 102.56-29.2 22.11 6.4 45.15 7.3 67.8 3.5-15.16 40.1-61.02 67.2-103.6 60.2-28.25 3.8-57.25 7.5-85.76 3.6-82.26-4.2-164.41-8.8-246.42-15.5-101.05-2-209.71 7.8-293.93 69-50.67 41.1-88.5 99.9-97.93 165.1-7.18 49.9-6.05 100.6-12.46 150.5-5.71 27.6-4.78 60.6-29.97 79.2-7.66 2.2-15.87 4.2-24 2.9-20.16-13.9-28.87-46.4-6.92-63.5 9.82-2.3-2.59 7.6 1.4 10.6 4.3 4.6 15.64 11.6 18.35 1.6 29.05-42.5 14.05-95.7 10.16-143-1.41-80.3 23.25-162.4 76.59-223.2 37.49-42.5 94.04-66.8 149.41-70.3 3.79-6.9-11.29-4.8-15.36-6.9-31.38-15.4-63.63-31.2-99.01-34.3-39.71-7.6-83 4.2-111.26 33.3-5.87 11.6-4.79 27 2.25 37.2-34.05-4.6-34.44-53.7-14.56-74.5 20.21-31.91 56.98-46.38 91.3-57.77m75.56 136.57c-46.97 29.1-91.84 67.7-113.16 119.9-8.56 35.4-16.99 70.8-23.36 106.6 22.43-41.6 40.28-88.1 61.73-131.2 24.89-32.2 51.59-63.5 76.18-95.7-0.35 0.1-1.05 0.3-1.39 0.4m-140.13 386.8c-11.83 12.1-24.13 23.9-38.8 32.4-13.4-3.5-5.53 35.9 8.26 23.2 16.12-13 28.94-38.5 30.54-55.6z"/>
<path fill="#030101" d="m1124.1 927.98c7.9 14.01 7.9 36.23 16.7 52.24 3 3.04-1.6 5.04-4.1 3.13-5.3-18.09-15.4-36.52-12.6-55.37z"/>
<path fill="#060101" d="m1082.6 939.44c8.4-0.16 21.2-2.38 27.3 3.71-7.4 2.99-19.9-6.01-27.7 0.26-7 0.73-11.1 7.98-18.2 8.27 1.8-7.65 11.8-10.43 18.6-12.24z"/>
<path fill="#010101" d="m1097.5 960.5c7.8-1.77 15.9 4.86 17.2 12.42-5.5-0.04-7.4-8.4-13.5-8.05-2.3 6.48 3.8 6.63 5.8 9.15-16 4.92-35.7-1.02-52 5.91-3.3-2.19-2.1-7.02 3-5.56-8.2-2.24-0.9-12.33 5.6-8.85 11.7 4.16 22.1-5.62 33.9-5.02z"/>
<path fill="#d8cefe" d="m93.75 979.87c10.99-6.5-1.11 19.12 9.16 18.08 3.33 0.37 6.65 0.9 9.99 1.29 39.67 4.56 79.41 9.16 119.15 12.86 8.28-0.3 1.67 1.7 0.04 3.2-0.33 0.2-0.99 0.5-1.32 0.7-33.1-8.2-68.96-1.3-103-4.9-21.71 1.3-51-1.1-64.22 20.2-0.82-21.1 14.47-39.02 30.2-51.43z"/>
<path fill="#feddcf" d="m963.72 987.22c12.91 7.15 28.78 4.99 41.48 12.62 11.9 4.86 27.6 12.66 24.8 28.36 6.8 0.4 11.1-10.1 17.6-11 4.2 8.3 12.7 12.4 19.5 18.2-32.3 4.1-65.1 25.2-77.16 55.5 6.9-27.4-10.12-60.9-39.56-64.1-4.07-14.2 1.16-31.03 13.34-39.58z"/>
<path fill="#020101" d="m1148 996.41c11.9-4.34 3.8 7.79 3.4 12.99-1.6 16.9-25.8 10.5-35.3 5.3-1.5-3.7 2.3-2.1 4-0.8 5.8-1.3 7.9-7.7 12.7-10.3 6.4 1.8 11.1-3.2 15.2-7.19m-2.1 11.19c-4.9 3.3-14.3 0.3-15.9 7.5 3.5 2.4 23.3 0.7 15.9-7.5z"/>
<path fill="#fefdfe" d="m1145.9 1007.6c7.4 8.2-12.4 9.9-15.9 7.5 1.6-7.2 11-4.2 15.9-7.5z"/>
<path fill="#fefef0" d="m230.77 1016c0.33-0.2 0.99-0.5 1.32-0.7 84.55 20.5 171.67 26.7 257.87 36.7-52.84 5.2-108.87-0.7-162.74-4.1-33.03-6-70.76-7.8-96.45-31.9z"/>
<path fill="#d8cffe" d="m153.33 1017.4c41.61 0.1 85.15 12.3 118.47 36.8-23.39 4-49.14 11.1-70.13 24.4-14.29-34.6-60.39-53.4-95.56-49.3 14.58-7.7 31.13-9.9 47.22-11.9z"/>
<path fill="#d8cffd" d="m945.73 1032.2c26.43-0.8 45.3 30.8 38.42 54.9-3.86 7.9-1.75 16.1 0.7 23.9-4.73 14-13.1 27.3-26.8 34-34.19 31.3-83.96 30.6-127.09 33-117.04-5.9-232.22-30.5-349.13-36.9-64.15 1.7-129.53 6.4-190.27 28.5-65.75 23.5-115.85 77.3-142.61 141.3-10.21 18.5-19.11 38.3-20.26 59.7-8.1 34.2-16.94 68.2-24.13 102.6 9.12-67.4 0.29-139.1 25.95-203.7 27.37-87 107-150.3 194.42-170.6 20.72-4.5 41.96-6.1 62.94-9 45.48-11.8 92.99-5.5 139.34-4.1 111.77 3.8 223.7 19.8 335.49 8.9 36.49-5.1 66.89-30.2 83.03-62.5m-24.89 53.7c-75.25 28.4-156.04 44.1-236.58 38.9-78.55-10.5-158.42-21.4-237.41-15 78.24 16.9 157.05 31.8 235.47 48 60.75 0.4 121.37 2.9 182.03-1.6 23.69 0.1 47.61-3.8 69.82-12 4.12-5.6 8.02-11.8 10.75-18.3 8.63-11.7 12.03-30.5 1.9-42.2-5.44-6.1-18.7-1.7-25.98 2.2m-615.62 32.4c-44.18 20.8-90.92 42-123.6 79.3-11.26 22.4-17.94 49-18.91 73.5 9.16-24.7 21.91-48.3 39.07-68.3 21.86-26.5 56.52-33.7 86.16-47.8 30.74-14.8 65-17.4 98.15-23-25.79-4.6-56.23-2-80.87-13.7z"/>
<path fill="#f1e7ff" d="m920.84 1085.9c7.28-3.9 20.54-8.3 25.98-2.2-34.19 33-80.13 50.3-122.95 69.5 2.58 7.2 16.15 0 22.05 1.8 33.56-4.1 73.77-3.2 99-29.1-2.73 6.5-6.63 12.7-10.75 18.3-22.21 8.2-46.13 12.1-69.82 12-60.66 4.5-121.28 2-182.03 1.6-78.42-16.2-157.23-31.1-235.47-48 78.99-6.4 158.86 4.5 237.41 15 80.54 5.2 161.33-10.5 236.58-38.9z"/>
<path fill="#fdfeee" d="m823.87 1153.2c42.82-19.2 88.76-36.5 122.95-69.5 10.13 11.7 6.73 30.5-1.9 42.2-25.23 25.9-65.44 25-99 29.1-5.9-1.8-19.47 5.4-22.05-1.8z"/>
<path fill="#d8cefe" d="m223.57 1090.5c0.34-0.1 1.04-0.3 1.39-0.4-24.59 32.2-51.29 63.5-76.18 95.7-21.45 43.1-39.3 89.6-61.73 131.2 6.37-35.8 14.8-71.2 23.36-106.6 21.32-52.2 66.19-90.8 113.16-119.9z"/>
<path fill="#c1b8e7" d="m305.22 1118.3c24.64 11.7 55.08 9.1 80.87 13.7-33.15 5.6-67.41 8.2-98.15 23-29.64 14.1-64.3 21.3-86.16 47.8-17.16 20-29.91 43.6-39.07 68.3 0.97-24.5 7.65-51.1 18.91-73.5 32.68-37.3 79.42-58.5 123.6-79.3z"/>
<path fill="#cbb3fe" d="m455.56 1145.5c42.79-3.8 85.16 3 127.34 8.5 60.59 10.9 122.28 15.5 183.01 25.3-31.31 3.5-80.33-3.2-95.15 34.5-80.48 4.2-166.98 5.1-241.33 40.7-32.73 7.3-61.01 26.8-87.36 46.6-64.91 49.9-99.34 134.1-95.18 214.9 1.55 16.2 3.57 33.2-2.38 48.8-12.25 1-15.64-14.1-24.14-20.2-7.84-15-23.67-23.5-31.48-38.5-25.75-33.2-37.59-75.2-40.27-116.6-4.37-16.7 0.13-34.7-6.28-50.8 26.73-67.3 71.05-133.9 141.19-160.1 54.4-22.8 114.06-26.7 172.03-33.1m-21.36 28.5c-20.46 5.6-41.89 3.5-62.46 8.7-42.46 7.6-89.91 13.9-121.18 46.9-26.08 31.4-50.46 65.1-67.69 102.1 31.47-41.6 71.43-78.8 120.8-98.7-39.72 29-82.78 62.4-102.72 109.9-15.16 31.8-20.3 69.3-18.15 103.1 12.6-70.4 52.46-138.6 115.09-175.3 6.37-2.5-0.82 4.7-2.88 5.3-20.88 20.4-40 43.1-54.79 68.2-27.72 48.5-35.86 108.2-29.28 161.6 4.53-73.3 50.06-135.4 92.91-192 36.68-47.9 92.64-78.8 151.59-89.3 50.1-11.7 102.51-14.2 151.34-31.8-0.71-4.1-6-6.9-9.07-9.7 20.72-0.6 44.3 1.3 63.23-1-43.34 0.1-86.64-5.7-128.6-16.5-31.96-0.3-69.15-2-98.14 8.5z"/>
<path fill="#fefef0" d="m434.2 1174c28.99-10.5 66.18-8.8 98.14-8.5 41.96 10.8 85.26 16.6 128.6 16.5-18.93 2.3-42.51 0.4-63.23 1-54.57 1-109.59-0.2-163.51-9z"/>
<path fill="#b196e3" d="m371.74 1182.7c20.57-5.2 42-3.1 62.46-8.7 53.92 8.8 108.94 10 163.51 9 3.07 2.8 8.36 5.6 9.07 9.7-48.83 17.6-101.24 20.1-151.34 31.8-58.95 10.5-114.91 41.4-151.59 89.3-42.85 56.6-88.38 118.7-92.91 192-6.58-53.4 1.56-113.1 29.28-161.6 14.79-25.1 33.91-47.8 54.79-68.2 2.06-0.6 9.25-7.8 2.88-5.3-62.63 36.7-102.49 104.9-115.09 175.3-2.15-33.8 2.99-71.3 18.15-103.1 19.94-47.5 63-80.9 102.72-109.9-49.37 19.9-89.33 57.1-120.8 98.7 17.23-37 41.61-70.7 67.69-102.1 31.27-33 78.72-39.3 121.18-46.9z"/>
<path fill="#feddcf" d="m750.59 1184.4c5.01-0.6 10.27-0.6 15.21 0.7-2.62 7.9 0.76 15.3 3.61 22.4 68.72 53.5 144.18 105.8 187.21 183.9 12.7 23.4 8.28 53-2.87 76.2-4.04-2.4-6.99-8.8-11.27-12.1-28.7-58.2-59.19-124.5-121.03-154-48.95-21.9-102.32-35.9-146.15-67.8-9.87-20.2 11.15-37.3 28.67-42.7 14.81-8.7 31.78-0.5 46.62-6.6m-20.89 26.1c-12.04 2.8-26.44 1.6-36.14 10.4-3.23 7.3 5.81 10.9 10.41 14.2 38.03 20.9 79.44 34.4 118.99 51.9 20.4 9 38.05 23.3 57.96 32.9-27.84-27.9-62.34-51-91.99-77.8-19.82-9.8-34.89-35.3-59.23-31.6z"/>
<path fill="#feeede" d="m729.7 1210.5c24.34-3.7 39.41 21.8 59.23 31.6 29.65 26.8 64.15 49.9 91.99 77.8-19.91-9.6-37.56-23.9-57.96-32.9-39.55-17.5-80.96-31-118.99-51.9-4.6-3.3-13.64-6.9-10.41-14.2 9.7-8.8 24.1-7.6 36.14-10.4z"/>
<path fill="#b38cfe" d="m664.52 1221.4c6.16-2.7 3.28 9.1 3.34 13.4-27.23 5.9-51.46 21.6-72.99 39.1-41.34 23.1-73.93 60.9-94.83 103.1-47.42 92.7-73.56 197.1-66.59 301.6-1.03 25 13.97 51.5 1.7 75.3-4.91-11.9-8.59-24.7-17.6-34.5-8.96-20.4-31.55-36.2-28.71-60.4-16.77-61.4-2.63-125.5 9.72-186.4 7.86-68.3 36.68-136.8 91.53-180.5 22.34-15.4 44.59-31.4 69.36-42.7 33.73-13.5 69.97-19.1 105.07-28m-151.77 72.4c-19.43 18.6-36.74 39.4-50.62 62.3 8.22-8.2 15.39-17.9 24.87-25.1-18.36 28.6-41.5 54.4-52.82 87.1-10.69 38.9-15.43 79.5-19.4 119.5 9.29-19.8 15.28-46 23.37-67.7 3.46 3.9-1.62 13 1.62 17.2 18.71-58.5 39.55-116.7 68.03-171.3-0.25-0.2-0.74-0.8-0.99-1 25.73-19.7 52.77-37.9 81.41-53.1-25.7 6.5-57.68 9-75.47 32.1m-91.53 255.1c-6.48 33.8-9.85 68.2-18.98 101.4 2.23 26.7 18.79 49.8 31.09 72.7-0.18-57.1-8.47-116.6-12.11-174.1z"/>
<path fill="#bf99ff" d="m608.49 1226.4c4.18 1 12.81-2.8 15.38 0.3-60.13 13.4-118.48 41-161.89 85.3-37.56 36.7-57.05 87.5-65.38 138.6-2.02 35.5-9.44 70.4-17 105-8.08 41.3-1.97 84.1 8.32 124.6-44.51-38.3-100.37-62.1-140.72-105.5-3.16-3 1.97-6.7 2.79-9.7 11.86-24.2-2.99-51.2 3.34-76 1.85-63 27.63-126.2 74.31-169.4 73.1-73 181.97-88 280.85-93.2m-187.24 55.8c-40.8 16.4-79.84 51.9-104.43 90.6-25.51 37.7-22.23 85.5-30.71 128.4 1.22 19.2-6.68 39.7-3.36 57.6 11.16-44.7 27.14-88.1 38.21-132.8 7.4-13.5 11.5-31.5 25.18-39.8-13.46 71.9-20.68 146.5-4.96 218.6 4.34-43.9 1.83-93.7 15.93-137.8 7.97 2 4.56 14.6 7.8 20 2.67-23.3 3.73-47.2 10.2-69.9 10.71-26.9 15.02-56.5 30.69-81.3 24.86-30.3 59.4-50.5 92.95-70.1-0.43-2.1-4.86-1.5-6.94-1.9 12.28-6.7 26.41-13.8 36.74-22-35.88 13-73.18 23-107.3 40.4z"/>
<path fill="#fefef0" d="m421.25 1282.2c34.12-17.4 71.42-27.4 107.3-40.4-10.33 8.2-24.46 15.3-36.74 22-40.93 19.9-80.76 43.3-124.64 56.2 14.52-16.2 36.22-25.1 54.08-37.8z"/>
<path fill="#fdfdf0" d="m512.75 1293.8c17.79-23.1 49.77-25.6 75.47-32.1-28.64 15.2-55.68 33.4-81.41 53.1-6.34 5.7-13.41 10.6-19.81 16.2-9.48 7.2-16.65 16.9-24.87 25.1 13.88-22.9 31.19-43.7 50.62-62.3z"/>
<path fill="#a680e7" d="m367.17 1320c43.88-12.9 83.71-36.3 124.64-56.2 2.08 0.4 6.51-0.2 6.94 1.9-33.55 19.6-68.09 39.8-92.95 70.1-15.67 24.8-19.98 54.4-30.69 81.3-6.47 22.7-7.53 46.6-10.2 69.9-3.24-5.4 0.17-18-7.8-20-14.1 44.1-11.59 93.9-15.93 137.8-15.72-72.1-8.5-146.7 4.96-218.6-13.68 8.3-17.78 26.3-25.18 39.8-11.07 44.7-27.05 88.1-38.21 132.8-3.32-17.9 4.58-38.4 3.36-57.6 8.48-42.9 5.2-90.7 30.71-128.4 24.59-38.7 63.63-74.2 104.43-90.6-17.86 12.7-39.56 21.6-54.08 37.8z"/>
<path fill="#9972e5" d="m487 1331c6.4-5.6 13.47-10.5 19.81-16.2 0.25 0.2 0.74 0.8 0.99 1-28.48 54.6-49.32 112.8-68.03 171.3-3.24-4.2 1.84-13.3-1.62-17.2-8.09 21.7-14.08 47.9-23.37 67.7 3.97-40 8.71-80.6 19.4-119.5 11.32-32.7 34.46-58.5 52.82-87.1z"/>
<path fill="#f2e8fe" d="m83.44 1477.3c-1.6 17.1-14.42 42.6-30.54 55.6-13.79 12.7-21.66-26.7-8.26-23.2 14.67-8.5 26.97-20.3 38.8-32.4z"/>
<path fill="#f2e8ff" d="m421.22 1548.9c3.64 57.5 11.93 117 12.11 174.1-12.3-22.9-28.86-46-31.09-72.7 9.13-33.2 12.5-67.6 18.98-101.4z"/>
<path fill="#555657" d="m436.74 1671.2c-1.03-10.1-1.39-20.3 0.13-30.3 0.07 10.1 0.23 20.2-0.13 30.3z"/>
<path fill="#8f68db" d="m412.3 1721.4c9.26 10.1 15.09 26.9 17.39 41.3-8.86 28.2-55.59 10.2-49.6-16.2 1.22-4.3 0.85-12.2 6.72-13.3 0.91 8.7 15.56 10.9 17.96 2.8-4.86-6.6 4.33-9.7 7.53-14.6z"/>
<path d="m132.59 0h5.99c27.72 25.82 37.76 73.08 75.14 90.32 24.46 3.49 44.89 24.88 49.1 48.48-4.83 27.87-2.39 58.82 13.64 82.78 36.93 29.51 75.44 57.23 115.44 82.52 17.02 9.53 25.72 28.55 41.35 39.66 43.01-13.69 84.69-33.13 119.97-61.54 11.64-8.72 25.75-18.02 25.65-34.54-5.97-7.43-18.36-17.47-27.51-9.19-10.51 7.31 5.89 28.48-11.1 27.51-15.48-2.87-22.17-20.49-17.35-34.52 8.82-13.97 18.41-27.77 31.11-38.48 33.22-18.35 76.56-6.86 100.57 21.4 36.74 28.16 54.35 75.87 52.54 121.41 3.56 77.02-34.45 148.4-39.22 224.14-0.28 43.11 16.28 84.54 37.84 121.28 13.78 20.58 33.53 35.83 51.35 52.68 42.23 33 89.83 65.28 144.81 69.79 11.3-2.37 28.9 0.4 33.11-13.73 13.66-19.17 30.56-39.06 53.01-47.05 5.45-48.75-21.25-93.35-25.24-141.59-12.75-63.68-1.16-133.35 39.61-184.97 16.5-20.23 43.1-27.86 68.3-29.43-15.4-76.13 7.3-156.4 54-217.28 32.6-36.48 61.6-76.07 96.1-110.87 4.8-6.61 7.9-15.85 16.3-18.6-18.9 65.15-21.3 136.35-3.3 201.98 18.4 80.19 37 160.77 46.3 242.65 35.1-10.9 64.9-32.74 95.8-51.87 33.1-34.4 38.8-83.58 59-125.02 4.2-8.81 10.5-17.24 19-21.75 10.1 32.89 13.5 71.21-0.8 103.03 9.4-3.51 5.6-20.95 17.9-18.45v2.84c-10.4 45.43-40.4 84.55-79 110.41-36.2 30.41-80.7 51.85-109.3 90.66-9.4 14.29-5.8 32.22-10 48.08-4.9 53.88-26.7 103.51-39.4 155.53-8.7 31.02-23.5 60.29-43.8 85.32-19.6 10.53-41.1 30.43-32.4 55.18 8.1-2.45 0.5 7.81 0 11.44 3.2 16.91 8.8 33.84 8.4 51.15-10.7 24.14-2.9 58.14-28.5 73.74-23.5 8.7-45.9-6.3-66.3-15.8-26.1 0.7-48.9 16.7-66.6 34.9-14.7 22.2-14.26 52.7-36.26 70.6-39.56 38.7-99.4 31.7-149.77 39.2-15.17 5.7-31.06-0.6-46.63 1.1-1.84 8.2-2.27 18.5 5.6 24 56.03 41 111.73 83.9 156.46 137.4 22.51 24.8 38.29 58.6 34.01 92.8-3.94 12.4-8.06 24.7-13.57 36.6-16.91-19.8-27.61-44.5-39.02-67.8-9.13-16-20.86-30.3-29.29-46.7-26.84-32.3-60.16-63.2-102.95-70.9-35.39-13.4-71.58-26.4-102.74-48.5-10.82-8.5-24.36 2.5-35.73 4.2-32.67 15.1-59.67 39.5-89.03 60-46.99 45.9-72.32 108.5-92.08 169.9-18.15 53-24 109.3-26.23 164.8-1.52 10-1.16 20.2-0.13 30.3 1.38 19.7 2.46 39.5 7.62 58.7-5.56 18.5-5.17 47.5-28.07 51.1h-17.67c-20.5-7-33.24-35.8-14.48-51.2 6.58-5.9 9.97 0.9 9.38 6.7 12.45 5.3-3.4-13.2 8.78-11.1 7-3.3 2.86-13.5-0.05-18.7-14.56-31.1-48.94-42.6-74.12-62.8-41.17-22.5-75.52-57.7-109.36-90.7-27.55-32.2-53.62-67.1-65.62-108.4-7.05-30.9-6.93-63-14.22-93.8-15.26 50.3-22.79 104.7-39.43 155.5-10.19 15.4-16.44 39.1-37.25 42.9-26.7 8.2-45.85-26.4-40.06-49.1 2.01-11.1 12.27-29.1 25.84-22.4 5.24 3-2.51 7.3-2.91 11 3.49 4.2 13.08 5.1 13.73-2.1 28.25-56.4-3-118.9 7.08-177.9 7.93-89.6 50.35-182.1 130.91-228.2-11.69-24.3-37.29-39.9-63.35-45.2-23.85-7.7-53.34 5.5-61.91 29.4-3.92 9.8 5.54 16.2 8.32 24.4-12.93 2.9-27.8-3-35.55-13.7-13.72-31.2-0.04-70.7 27.92-89.34 43.85-36.97 102.69-44.52 157.4-51.53 32.03-4.19 63.52-12.72 96.01-13.08 8.83 0.33 17.67 0.49 26.51 0.17 34.45-1.23 68.59 3.62 102.92 5.28-44.86-36.78-108.21-36.89-154.26-71.94-67.62-49.23-87.58-148.05-53.12-222.49 14.67-46.45-8.78-96.78 8.42-142.64 6.74-37.04 34.26-66.39 62.51-89.23-21.46-31.67-41.27-64.91-57.88-99.52-35.3-26.03-65.59-58.61-102.39-82.68-46.55-37.28-104.33-61.3-141.62-109.36-10.18-9.74-13.36-23.53-16.77-36.6v-4.49c0.58-2.23 2.12-4.2 4.59-2.93 19.78 22.59 46.76 38.01 75.17 46.99 25.62 9.01 56.05 8.65 77.34 26.83 2.06 27.44 29.56 39.19 51.08 49.64-5.2-18.75-13.33-36.9-23.16-53.71-18.51-38.24-38.09-76.01-57.25-113.94-1.38-6.98-2.14-16.7 4.82-21.03m2.64 5.2c-7.44 24.68 15.36 45.21 24.73 65.84 13.33 39.68 40.87 72.84 53.02 112.97 24.04 76.76 66.43 145.77 108.12 213.98 15.56-12.77 32.91-23.37 51.01-32.1 2.57-2.32 11.78 2.63 6.52-3.91-37.2-53.33-91.2-95.8-116.54-157.06-10.16-22.69-5.03-48.25-5.21-72.24-5.59-18.74-23.34-32.34-42.48-35.01-40.55-15.71-50.9-65.42-79.17-92.47m1091.4 53.21c-34.4 38.83-66.7 79.27-101.3 117.89-46 60.74-65.8 141.84-48.4 216.53-4.2 5.31-7.6-4.04-12.9-0.93-13.7-0.09-27 4.79-38.7 11.35-40.16 28.19-57.5 78.43-60.21 125.71-13.38 72.13 27.78 138.59 31.05 209.82 19.66-1.74 39.06-4.84 58.66-7.55 1.5 0.73 2.9 1.76 4.2 2.87-10.1 8.07-25.3 12.19-28.3 26.62-1.9 5.87-4.6 17.7 0.9 20.92 7.9-16.23 28.4-18.67 44.3-17.61 14 5.83 25.5 17.93 34.1 30.1-3.4 7.86-8.3-2.73-11.6-5.97-12.1-2.83-20.7 10.5-17.3 21.28 18 2.36 37.8 9.14 47.9 24.44 8-26.65 1.3-57.47-9.8-83.03-24.3-62.13-50-129.39-32.2-196.8 4.3-8.81 3.9-25.18 16.8-25.76 3.3 12.49 1.7 26.55 9.2 37.68 11.3 15.69 27.1 28.31 39.2 42.67-3.8-11.43-2.6-25.86-12.8-34.08-33.5-44.36-42.5-105.36-25.8-158.01 2.6-3.74 3-15.63 9.9-13 2.6 26.45 18.5 49.02 36.5 67.47-14-43.15-36-86.23-33-133.05 2.8-57.48 14.8-116.26 42.9-167.13 15.5-38.65 42.8-71.25 57.7-110.37 0.3-1.26 1-3.02-1-2.06m-1219.8 17.8c0.79 8.3 2.93 16.79 9.93 22.09 70.54 70.2 159.71 118.04 233.33 184.61-16.04-27.54-25.77-58.23-38.86-87.16-25.61-10.37-52.07-25.94-58.49-55.36-36.85-19.4-81.06-20.17-116.88-42.2-9.28-7.82-19.25-15.2-29.03-21.98m1215.4 11.87c-21.9 33.17-39.2 68.96-56.6 104.58-31.9 68.51-43.6 149.2-20.5 222.21 7.7 22.7 23.5 45.09 22.3 68.7-22.9-14.77-41.5-40.03-47.2-66.52-20.6 54.31-4.8 118.48 30.5 163.4 3.1 12.55 14 28.12 4.6 39.35-20.7-24.33-53.9-46.06-54.9-81.74-22.2 41.78-10.1 90.74-3.5 135.01 14.2 54.55 52.5 108.39 37.4 165.66 12.1 13.17 17.7 30.61 19.7 48.12 19.2-19.88 45.7-36.98 56-64.86 14-21.3 17-46.82 25.4-70.5 35-104.5 54-217.17 31.6-326.6-10.2-113.03-66.5-221.83-44.1-336.92l-0.7 0.11m-658.86 107.37c-22.02 4.04-31.52 27.41-36.23 46.82 0.11 8.03 6.01 20.07 15.72 17.35-5.18-16.15 9.5-35.45 26.78-28.4 9.27 8.06 20.53 17.93 18.33 31.87 7.79 62.13-21.47 118.81-42.52 175.32-12.56 49.24-26.68 98.32-32 149.03-6.1 45.43-2.82 94.29 18.79 135.51-1.12 1.21-1.81 0.02-2.38-0.98-23.63-44.29-30.7-97.8-17.9-146.33 2.12-51.31 18.01-100.92 33.04-149.62 18.77-43.11 36.38-88.29 38.17-135.94-14.59 33.69-48.45 55.77-83.12 65.91-62.62 14.5-125.85 31.38-181.07 65.94-38.85 25.25-68.76 70.45-63.02 118.27-1.36 18.17 2.47 35.93 4.98 53.77-7.09 50.26 7.63 99.96 25.93 146.2 30.24 43.79 57.59 91.69 101.98 123.01 26.51 19.94 67.03 28.48 76.33 64.83 42.36 7.33 87.89 5.09 129.46 19.46 59.18 13.2 118.45 27.06 176.17 45.94 6.49 1.06 14.01-0.01 18.03 6.07 48.21 15.62 98.9 31.92 150.01 25.52 5.78-14.9 6.65-30.44 19.8-41.39-36.9-27.77-51.26-82.61-46.46-128.6 3.07-7.92-3.57-4.15-6.6-3.25-77.73 20.94-163.5 33.02-239.96 0.7-48.67-26.07-99.45-56.66-125.54-107.51-2.06-6.21-7.99-12.07-6.2-19 6.77 10.97 14.23 21.54 20.11 33.04 38.03 53.94 98.81 86.38 161.04 104.1 66.88 8.71 134.99-1.39 198.64-21.33 4.35-10.99 7.65-22.75 8.3-34.61-40.62 10.72-76.83-16.06-113.86-28.21-33.07-22.99-68.86-43.79-94.74-75.29-19.16-29.75-35.35-61.69-45.2-95.79-22.35-79.53 26.7-153.5 30.84-231.8 14.48-62.36-7.72-135.44-63.05-171-20.3-14.83-49.54-21.83-72.6-9.61m-275.43 43.68c24.06 47.27 72.57 76.34 96.57 123.55 14.61-3.63 29-10.77 43.52-15.69-14.26-16.88-29.56-33.8-49.04-44.95-31.67-19-60.25-42.73-91.05-62.91m293.54 22.94c-48.13 55.07-117.71 81.62-185.76 101.6-32.06 10.01-59.54 29.76-85.46 50.56-6.86 8.32-18.1 12.57-21.29 23.74 33.84-34.96 83.93-45.49 125.46-66.58 48.44-18.25 109.85-13.41 145.37-57.62 9.73-15.6 26.11-32.09 21.68-51.7m869.75 30.91c-22.5 30.14-33.4 67.45-44.2 103.05-20.3 53.47-81.7 65.66-124.5 94.82 0.9 25.26-0.4 52.27 0.1 77.16 23.1-30.76 56.8-50.92 87.5-72.97 42.3-27.78 82.6-65.3 95.8-115.93-6 5.6-8 18.17-17.9 19.78 9.8-34.15 18.3-71.93 3.2-105.91m-1199 337.96c-27.68 63.61-16.08 141.6 24.62 197.21 46.7 50.1 120.16 53.04 176.25 87.72-17.64-24.29-49.6-33.57-71.93-53.06-34.17-21.71-59.28-54.88-79.73-89.25-27.86-42.34-47.88-93.82-49.21-142.62m737 116.33c-59.5 27.48-84.23 100.7-71.05 161.95 7.01 25.2 16.89 52.77 40.13 67.45 16.77 12.46 37.72 15.88 57.58 20.45 5.3 9.08 17.2 11.88 20.1 22.88 17.1-14.2 0.7-42.38-15.8-48.27-2-40.93 43.8-60.97 78.1-65.18 5.2 1.09 10.4 2.11 15.5 3.47 3.3 1.76 6.6 3.88 10.3 4.58-0.4-13.8 11.1-24.59 22.1-30.93 4-11.87 1.6-23.64-8.3-31.45-1.2-2.41-2.9-4.52-4.8-6.37-11-16.91-29.8-31.52-51-29.26-15-10.26-3.6-33.25 12.8-33.28-14.5-21.85-51.5-18.8-61.8 5.07 0.1 3.1 2.5 15.1-2.9 8.41-9.3-18.97-6.3-47.29 12.8-58.86-17.8 4.06-36.8 1.81-53.76 9.34m157.16 142.08c-14 4.32-15.9 21.99-22.3 32.54-19.8-13.96-45.1-5.87-66 1.2-20.2 5.71-34.2 27.4-31.3 47.92 14.9 5.45 25 24.66 22.4 41.09 23.8 26.5 61 49.4 97.3 33.3 5.6-35.1 23.6-74.77 5.5-108.4 7.4 13.92-25.2 20.1-16 4.2 0.5-8.57 11.2-6.83 15.8-11.55 3.8-8.55-5.6-18.07 0.8-26.05-0.7-4.49 0.8-16.27-6.2-14.25m-843.13 38.58c-52.41 3.44-103.83 15.79-155.26 26-34.32 11.39-71.09 25.86-91.3 57.77-19.88 20.8-19.49 69.9 14.56 74.5-7.04-10.2-8.12-25.6-2.25-37.2 28.26-29.1 71.55-40.9 111.26-33.3 35.38 3.1 67.63 18.9 99.01 34.3 4.07 2.1 19.15 0 15.36 6.9-55.37 3.5-111.92 27.8-149.41 70.3-53.34 60.8-78 142.9-76.59 223.2 3.89 47.3 18.89 100.5-10.16 143-2.71 10-14.05 3-18.35-1.6-3.99-3 8.42-12.9-1.4-10.6-21.95 17.1-13.24 49.6 6.92 63.5 8.13 1.3 16.34-0.7 24-2.9 25.19-18.6 24.26-51.6 29.97-79.2 6.41-49.9 5.28-100.6 12.46-150.5 9.43-65.2 47.26-124 97.93-165.1 84.22-61.2 192.88-71 293.93-69 82.01 6.7 164.16 11.3 246.42 15.5 28.51 3.9 57.51 0.2 85.76-3.6 42.58 7 88.44-20.1 103.6-60.2-22.65 3.8-45.69 2.9-67.8-3.5-36.48-6.8-74.19-14.3-106.7-32.47-73.45-18.77-147.65-35.01-221.43-52.57-79.55-8.06-161.89-19.27-240.53-13.23m660.45 59.29c-12.18 8.55-17.41 25.38-13.34 39.58 29.44 3.2 46.46 36.7 39.56 64.1 12.06-30.3 44.86-51.4 77.16-55.5-6.8-5.8-15.3-9.9-19.5-18.2-6.5 0.9-10.8 11.4-17.6 11 2.8-15.7-12.9-23.5-24.8-28.36-12.7-7.63-28.57-5.47-41.48-12.62m-810.39 30.18c-16.09 2-32.64 4.2-47.22 11.9 35.17-4.1 81.27 14.7 95.56 49.3 20.99-13.3 46.74-20.4 70.13-24.4-33.32-24.5-76.86-36.7-118.47-36.8m792.4 14.8c-16.14 32.3-46.54 57.4-83.03 62.5-111.79 10.9-223.72-5.1-335.49-8.9-46.35-1.4-93.86-7.7-139.34 4.1-20.98 2.9-42.22 4.5-62.94 9-87.42 20.3-167.05 83.6-194.42 170.6-25.66 64.6-16.83 136.3-25.95 203.7 7.19-34.4 16.03-68.4 24.13-102.6 1.15-21.4 10.05-41.2 20.26-59.7 26.76-64 76.86-117.8 142.61-141.3 60.74-22.1 126.12-26.8 190.27-28.5 116.91 6.4 232.09 31 349.13 36.9 43.13-2.4 92.9-1.7 127.09-33 13.7-6.7 22.07-20 26.8-34-2.45-7.8-4.56-16-0.7-23.9 6.88-24.1-11.99-55.7-38.42-54.9m-490.17 113.3c-57.97 6.4-117.63 10.3-172.03 33.1-70.14 26.2-114.46 92.8-141.19 160.1 6.41 16.1 1.91 34.1 6.28 50.8 2.68 41.4 14.52 83.4 40.27 116.6 7.81 15 23.64 23.5 31.48 38.5 8.5 6.1 11.89 21.2 24.14 20.2 5.95-15.6 3.93-32.6 2.38-48.8-4.16-80.8 30.27-165 95.18-214.9 26.35-19.8 54.63-39.3 87.36-46.6 74.35-35.6 160.85-36.5 241.33-40.7 14.82-37.7 63.84-31 95.15-34.5-60.73-9.8-122.42-14.4-183.01-25.3-42.18-5.5-84.55-12.3-127.34-8.5m295.03 38.9c-14.84 6.1-31.81-2.1-46.62 6.6-17.52 5.4-38.54 22.5-28.67 42.7 43.83 31.9 97.2 45.9 146.15 67.8 61.84 29.5 92.33 95.8 121.03 154 4.28 3.3 7.23 9.7 11.27 12.1 11.15-23.2 15.57-52.8 2.87-76.2-43.03-78.1-118.49-130.4-187.21-183.9-2.85-7.1-6.23-14.5-3.61-22.4-4.94-1.3-10.2-1.3-15.21-0.7m-86.07 37c-35.1 8.9-71.34 14.5-105.07 28-24.77 11.3-47.02 27.3-69.36 42.7-54.85 43.7-83.67 112.2-91.53 180.5-12.35 60.9-26.49 125-9.72 186.4-2.84 24.2 19.75 40 28.71 60.4 9.01 9.8 12.69 22.6 17.6 34.5 12.27-23.8-2.73-50.3-1.7-75.3-6.97-104.5 19.17-208.9 66.59-301.6 20.9-42.2 53.49-80 94.83-103.1 21.53-17.5 45.76-33.2 72.99-39.1-0.06-4.3 2.82-16.1-3.34-13.4m-56.03 5c-98.88 5.2-207.75 20.2-280.85 93.2-46.68 43.2-72.46 106.4-74.31 169.4-6.33 24.8 8.52 51.8-3.34 76-0.82 3-5.95 6.7-2.79 9.7 40.35 43.4 96.21 67.2 140.72 105.5-10.29-40.5-16.4-83.3-8.32-124.6 7.56-34.6 14.98-69.5 17-105 8.33-51.1 27.82-101.9 65.38-138.6 43.41-44.3 101.76-71.9 161.89-85.3-2.57-3.1-11.2 0.7-15.38-0.3m-196.19 495c-3.2 4.9-12.39 8-7.53 14.6-2.4 8.1-17.05 5.9-17.96-2.8-5.87 1.1-5.5 9-6.72 13.3-5.99 26.4 40.74 44.4 49.6 16.2-2.3-14.4-8.13-31.2-17.39-41.3z" fill="#020104"/>
<path d="m135.23 5.2c28.27 27.05 38.62 76.76 79.17 92.47 19.14 2.67 36.89 16.27 42.48 35.01 0.18 23.99-4.95 49.55 5.21 72.24 25.34 61.26 79.34 103.73 116.54 157.06 5.26 6.54-3.95 1.59-6.52 3.91-18.1 8.73-35.45 19.33-51.01 32.1-41.69-68.21-84.08-137.22-108.12-213.98-12.15-40.13-39.69-73.29-53.02-112.97-9.37-20.63-32.17-41.16-24.73-65.84z" fill="#ffd3c6"/>
<path d="m1226.6 58.41c2-0.96 1.3 0.8 1 2.06-14.9 39.12-42.2 71.72-57.7 110.37-28.1 50.87-40.1 109.65-42.9 167.13-3 46.82 19 89.9 33 133.05-18-18.45-33.9-41.02-36.5-67.47-6.9-2.63-7.3 9.26-9.9 13-16.7 52.65-7.7 113.65 25.8 158.01 10.2 8.22 9 22.65 12.8 34.08-12.1-14.36-27.9-26.98-39.2-42.67-7.5-11.13-5.9-25.19-9.2-37.68-12.9 0.58-12.5 16.95-16.8 25.76-17.8 67.41 7.9 134.67 32.2 196.8 11.1 25.56 17.8 56.38 9.8 83.03-10.1-15.3-29.9-22.08-47.9-24.44-3.4-10.78 5.2-24.11 17.3-21.28 3.3 3.24 8.2 13.83 11.6 5.97-8.6-12.17-20.1-24.27-34.1-30.1-15.9-1.06-36.4 1.38-44.3 17.61-5.5-3.22-2.8-15.05-0.9-20.92 3-14.43 18.2-18.55 28.3-26.62-1.3-1.11-2.7-2.14-4.2-2.87-19.6 2.71-39 5.81-58.66 7.55-3.27-71.23-44.43-137.69-31.05-209.82 2.71-47.28 20.05-97.52 60.21-125.71 11.7-6.56 25-11.44 38.7-11.35 5.3-3.11 8.7 6.24 12.9 0.93-17.4-74.69 2.4-155.79 48.4-216.53 34.6-38.62 66.9-79.06 101.3-117.89m-71.1 109.08c-16.4 17.84-30.5 38.42-45 58.04-29.1 40.31-23.7 94.86-23.8 140.35 7.5-28.43 23.6-53.23 33.5-80.66-6.3 3.98-9.4 14.7-18 14.55 2.8-17.47 17.4-30.82 23-47.57-6.2 5.82-11.4 13.68-20.3 15.62 15.9-33.41 36.9-68.24 50.6-100.33m-90.6 234.67c-20.8 13.85-48.9 17.67-64.7 38.1-17.14 30.41-19.15 66.3-25.06 100 0.05 62.66 24.76 121.25 41.06 180.76 7.9-27.42 15.4-56.17 22.6-84.1 7.3-26.96 19.3-52.6 26.3-79.55-5.6 9.3-9.3 24.67-20.9 29.7-5.5-3.98-5.8-11.04-7-17.12 3.3-36.23 20.3-69.03 30.3-103.5 2.1-1.95 1.1-8.97-2-4.93-9.5 10.49-17.1 26.99-32.1 29.21-6.6-10.02 3.5-21.43 3.6-31.9 6.9-19.27 17.8-42.58 27.9-56.67z" fill="#be98ff"/>
<path d="m6.81 76.21c9.78 6.78 19.75 14.16 29.03 21.98 35.82 22.03 80.03 22.8 116.88 42.2 6.42 29.42 32.88 44.99 58.49 55.36 13.09 28.93 22.82 59.62 38.86 87.16-73.62-66.57-162.79-114.41-233.33-184.61-7-5.3-9.14-13.79-9.93-22.09z" fill="#ffd3c6"/>
<path d="m1222.2 88.08l0.7-0.11c-22.4 115.09 33.9 223.89 44.1 336.92 22.4 109.43 3.4 222.1-31.6 326.6-8.4 23.68-11.4 49.2-25.4 70.5-10.3 27.88-36.8 44.98-56 64.86-2-17.51-7.6-34.95-19.7-48.12 15.1-57.27-23.2-111.11-37.4-165.66-6.6-44.27-18.7-93.23 3.5-135.01 1 35.68 34.2 57.41 54.9 81.74 9.4-11.23-1.5-26.8-4.6-39.35-35.3-44.92-51.1-109.09-30.5-163.4 5.7 26.49 24.3 51.75 47.2 66.52 1.2-23.61-14.6-46-22.3-68.7-23.1-73.01-11.4-153.7 20.5-222.21 17.4-35.62 34.7-71.41 56.6-104.58m-11.2 32.19c-15.6 11.75-18.5 31.92-24.6 49.18-10 35.58-17 72.25-21.4 108.9 9.6-19.92 50.8-25.98 46.1-54.24-18.6-31.4-7.8-73.24-0.1-103.84m-5 155.93c-7.6 43.55 0.9 87.42 3.8 130.99 2.5 38.08 9.4 75.71 13.2 113.64-17.4-3.21-40.9-24.85-56-5.88-1.4 10.61 3.6 21.7 7.4 31.62 13.7 35.21 12.5 73.75 6.8 110.36-16.7-2.29-35.4-8.59-51-6.96 15.6 55.83 33.8 111.57 51 166.93 5.8-3.5 3.2-15.36 8.8-20.99 2.4 15.49-2.3 31.04-5 46.17 32.4-25.74 37.8-70.76 43-109.1 5-39.64 14-79.92 13.8-119.63 6.3-25.14 12.1-51.09 12.3-77.21-9.7-89.74-25.6-179.05-39.2-267.96-5-4.68-8.5 4.14-8.9 8.02z" fill="#d7cefd"/>
<path d="m1211 120.27c-7.7 30.6-18.5 72.44 0.1 103.84 4.7 28.26-36.5 34.32-46.1 54.24 4.4-36.65 11.4-73.32 21.4-108.9 6.1-17.26 9-37.43 24.6-49.18z" fill="#bcb2e2"/>
<path d="m1155.5 167.49c-13.7 32.09-34.7 66.92-50.6 100.33 8.9-1.94 14.1-9.8 20.3-15.62-5.6 16.75-20.2 30.1-23 47.57 8.6 0.15 11.7-10.57 18-14.55-9.9 27.43-26 52.23-33.5 80.66 0.1-45.49-5.3-100.04 23.8-140.35 14.5-19.62 28.6-40.2 45-58.04z" fill="#9872e4"/>
<path d="m563.34 195.45c23.06-12.22 52.3-5.22 72.6 9.61 55.33 35.56 77.53 108.64 63.05 171-4.14 78.3-53.19 152.27-30.84 231.8 9.85 34.1 26.04 66.04 45.2 95.79 25.88 31.5 61.67 52.3 94.74 75.29 37.03 12.15 73.24 38.93 113.86 28.21-0.65 11.86-3.95 23.62-8.3 34.61-63.65 19.94-131.76 30.04-198.64 21.33-62.23-17.72-123.01-50.16-161.04-104.1-5.88-11.5-13.34-22.07-20.11-33.04-0.54-1.02-1.08-2.02-1.65-3-21.61-41.22-24.89-90.08-18.79-135.51 5.32-50.71 19.44-99.79 32-149.03 21.05-56.51 50.31-113.19 42.52-175.32 2.2-13.94-9.06-23.81-18.33-31.87-17.28-7.05-31.96 12.25-26.78 28.4-9.71 2.72-15.61-9.32-15.72-17.35 4.71-19.41 14.21-42.78 36.23-46.82m32.27 11c-7.45 0.25-14.7 4.22-18.58 10.61 12.13-7.23 19.86 7.72 22.27 17.63 7.51 33.82 5.65 69.36-2.8 102.85-6.42 41.16-27.97 78.14-34.64 119.27-8.89 30.53-10.16 65.75-10.79 95.26 1.94-22.13 8.01-45.74 14.07-67.93 14.61-38.38 26.66-80.13 53.06-111.97-8.04 33.91-18.51 73.53-17.56 109.91 15.4-37.14 35.27-72.05 50.6-109.14 2.72 20.07-0.14 46.34 4.55 65.23 13.44-30.29 13.08-64.16 21.47-95.89 0.69-3.03 1.51-10.3 6.38-9.13 3.93 3.66 4.44 9.99 7.24 13.8 15.81-32.9-6.35-68.98-24.7-96.11-18.12-20.79-40.16-47.12-70.57-44.39m-9.24 293.87c-8.82 6.69-9.51 19.8-13.5 29.54-10.5 42.11-16.03 86.51-12.6 129.21-7.43-31.77-14.47-63.68-20.41-95.75-2.41-1-2.79 2.38-3.81 3.83-18.39 44.79-12.63 96.15 4.27 140.53 15.93 44.73 43.17 91.91 89.85 109.11-19.6-20.76-38.01-47.66-39.54-76.78 36.77 23.95 60.72 65.78 100.45 85.84-18.03-28.63-35.75-57.6-51.19-87.74 42.98 22.46 86.39 46.08 133.52 58.5 5.67 2.41 9.24-5.15 3.76-7.83-67.49-36.56-126.1-102.38-131.11-181.87-3.92-29.92 0.93-60.46 10.78-88.75-16.57 6.46-20.19 28.9-27.45 43.29-9.31 29.41-11.92 62.23-14.23 91.29-2.65-27.39-7.24-56.51-7-82.65-6.46 27.71-8.86 59.34-16.23 88.03-10.09-48.08-19.32-101.24-4.86-149.94 2.26-2.39 4.48-8.23-0.7-7.86z" fill="#be98ff"/>
<path d="m595.61 206.45c30.41-2.73 52.45 23.6 70.57 44.39 18.35 27.13 40.51 63.21 24.7 96.11-2.8-3.81-3.31-10.14-7.24-13.8-4.87-1.17-5.69 6.1-6.38 9.13-8.39 31.73-8.03 65.6-21.47 95.89-4.69-18.89-1.83-45.16-4.55-65.23-15.33 37.09-35.2 72-50.6 109.14-0.95-36.38 9.52-76 17.56-109.91-26.4 31.84-38.45 73.59-53.06 111.97-6.06 22.19-12.13 45.8-14.07 67.93 0.63-29.51 1.9-64.73 10.79-95.26 6.67-41.13 28.22-78.11 34.64-119.27 8.45-33.49 10.31-69.03 2.8-102.85-2.41-9.91-10.14-24.86-22.27-17.63 3.88-6.39 11.13-10.36 18.58-10.61z" fill="#a37de4"/>
<path d="m287.91 239.13c30.8 20.18 59.38 43.91 91.05 62.91 19.48 11.15 34.78 28.07 49.04 44.95-14.52 4.92-28.91 12.06-43.52 15.69-24-47.21-72.51-76.28-96.57-123.55z" fill="#fed3c6"/>
<path d="m581.45 262.07c4.43 19.61-11.95 36.1-21.68 51.7-35.52 44.21-96.93 39.37-145.37 57.62-41.53 21.09-91.62 31.62-125.46 66.58 3.19-11.17 14.43-15.42 21.29-23.74 25.92-20.8 53.4-40.55 85.46-50.56 68.05-19.98 137.63-46.53 185.76-101.6z" fill="#d8cefd"/>
<path d="m1206 276.2c0.4-3.88 3.9-12.7 8.9-8.02 13.6 88.91 29.5 178.22 39.2 267.96-0.2 26.12-6 52.07-12.3 77.21-5.6-8.74-6.5-23.17-15-28.18 2.2 28.13 3.3 57.79-6.2 84.68-14.4-1.21-10.3-25.39-17.4-30.57-5.7 27.24 1.9 56.97 0.5 85.18-1.5 4.51-0.6 14.36-7.4 14.63-9.8-13.79-5.3-31.8-10.4-47.17-5.4 2.3-0.9 12.36-1.7 16.83 0.2 29.16 3.3 58.18 5.8 87.16-5.6 5.63-3 17.49-8.8 20.99-17.2-55.36-35.4-111.1-51-166.93 15.6-1.63 34.3 4.67 51 6.96 5.7-36.61 6.9-75.15-6.8-110.36-3.8-9.92-8.8-21.01-7.4-31.62 15.1-18.97 38.6 2.67 56 5.88-3.8-37.93-10.7-75.56-13.2-113.64-2.9-43.57-11.4-87.44-3.8-130.99z" fill="#f1e7ff"/>
<path d="m500.02 355.99c34.67-10.14 68.53-32.22 83.12-65.91-1.79 47.65-19.4 92.83-38.17 135.94-15.03 48.7-30.92 98.31-33.04 149.62-12.8 48.53-5.73 102.04 17.9 146.33 0.57 1 1.26 2.19 2.38 0.98 0.57 0.98 1.11 1.98 1.65 3-1.79 6.93 4.14 12.79 6.2 19 26.09 50.85 76.87 81.44 125.54 107.51 76.46 32.32 162.23 20.24 239.96-0.7 3.03-0.9 9.67-4.67 6.6 3.25-4.8 45.99 9.56 100.83 46.46 128.6-13.15 10.95-14.02 26.49-19.8 41.39-51.11 6.4-101.8-9.9-150.01-25.52-4.02-6.08-11.54-5.01-18.03-6.07-57.72-18.88-116.99-32.74-176.17-45.94-41.57-14.37-87.1-12.13-129.46-19.46-9.3-36.35-49.82-44.89-76.33-64.83-44.39-31.32-71.74-79.22-101.98-123.01-18.3-46.24-33.02-95.94-25.93-146.2-2.51-17.84-6.34-35.6-4.98-53.77-5.74-47.82 24.17-93.02 63.02-118.27 55.22-34.56 118.45-51.44 181.07-65.94m-142.02 59c-37.45 23.82-74.5 54.09-90.23 97.17-8.9 25.3-6.79 53.42-4 80.05 9.7 58.07 28.49 114.41 53.18 167.84 5.54 11.11 14.16 20.57 24.25 27.76 34.93 27.59 74.09 49.42 113.86 69.06-33.14-43.61-68.95-86.14-91.1-136.82-21.73-47.98-26.73-102.19-22.14-154.07 2.97-4.69 6.99 0.72 8.27 3.95 14.87 38.83 3.03 83.03 19.24 121.73 21.97 50.77 60.25 92.63 102.37 127.65 15.94 13.18 32.2 26.77 51.6 34.53 5.73 1.02-0.14-5.98-1.26-7.84-30.15-44.97-53.33-94.65-87.06-137.01-27.2-48.51-28.57-106.22-18.9-159.84 1.61-0.71 3.23-1.41 4.73-2.34 28.78 38.21 39.39 86.84 39.32 133.9 3.73 44.43 41.16 76.78 80.74 91.39-39.31-59.19-65.79-131.74-52.94-203.17 16.75-71.09 45.38-139.13 62.77-210.07-66.03 8.69-132.79 25.58-192.7 56.13m536.75 449.51c-72.15 14.63-146.75 25.82-219.78 16.19 34.62 14.97 73.77 22.68 108.85 31.4-48.39-4.26-96.77-10.41-145.33-9.82-2.9-0.4-7.38-0.14-7.67 3.61 12.79 6.58 27.35 8.64 41.41 10.78 51.59 10.26 105.64 15.58 156.7 23.4-79.63-0.98-158.74-16.57-237.01-27.44 70.94 35.43 152.71 38.17 229.05 49.3-59.03 0.97-117.01-14.35-175.32-21.49-33.56-4.12-67.15-12.6-100.73-13.76 45.52 12.87 91.28 25.15 137.84 33.51 82.9 24.81 165.12 56.42 252.89 55.72 1.49-13.3 4.77-26.84 4.64-40.1-13.78-13.66-24.8-29.92-37.34-44.75-14.74-18.08-16.82-44.86-3.37-64.38 2.94-3.89-1.48-3.12-4.83-2.17z" fill="#7954b3"/>
<path d="m1451.2 292.98c15.1 33.98 6.6 71.76-3.2 105.91 9.9-1.61 11.9-14.18 17.9-19.78-13.2 50.63-53.5 88.15-95.8 115.93-30.7 22.05-64.4 42.21-87.5 72.97-0.5-24.89 0.8-51.9-0.1-77.16 42.8-29.16 104.2-41.35 124.5-94.82 10.8-35.6 21.7-72.91 44.2-103.05z" fill="#feddce"/>
<path d="m358 414.99c59.91-30.55 126.67-47.44 192.7-56.13-17.39 70.94-46.02 138.98-62.77 210.07-21.39-31.72-5.65-70.46-2.91-105.19-12.28 33.66-33.78 63.52-64.21 83.07-1.5 0.93-3.12 1.63-4.73 2.34-11.83 4.19-22.33 12.59-34.75 14.63 9.49-39.73 47.82-65.15 58.54-104.91-14.97 17.51-30.88 35.19-49.24 49.75-26.16 20.72-56.28 36.04-82.77 56.22 24.36-47.06 59.68-92.77 107.34-117.88-23.25-1.66-45.75 6.63-67.54 13.65-27.8 12.94-59.5 23.59-77.29 50.5-0.67 1.08-2.94 4.11-2.6 1.05 15.73-43.08 52.78-73.35 90.23-97.17z" fill="#bf99ff"/>
<path d="m1064.9 402.16c-10.1 14.09-21 37.4-27.9 56.67-0.1 10.47-10.2 21.88-3.6 31.9 15-2.22 22.6-18.72 32.1-29.21 3.1-4.04 4.1 2.98 2 4.93-10 34.47-27 67.27-30.3 103.5 1.2 6.08 1.5 13.14 7 17.12 11.6-5.03 15.3-20.4 20.9-29.7-7 26.95-19 52.59-26.3 79.55-7.2 27.93-14.7 56.68-22.6 84.1-16.3-59.51-41.01-118.1-41.06-180.76 5.91-33.7 7.92-69.59 25.06-100 15.8-20.43 43.9-24.25 64.7-38.1z" fill="#9871e4"/>
<path d="m347.66 460.61c21.79-7.02 44.29-15.31 67.54-13.65-47.66 25.11-82.98 70.82-107.34 117.88 26.49-20.18 56.61-35.5 82.77-56.22 18.36-14.56 34.27-32.24 49.24-49.75-10.72 39.76-49.05 65.18-58.54 104.91 12.42-2.04 22.92-10.44 34.75-14.63-9.67 53.62-8.3 111.33 18.9 159.84 33.73 42.36 56.91 92.04 87.06 137.01 1.12 1.86 6.99 8.86 1.26 7.84-19.4-7.76-35.66-21.35-51.6-34.53-42.12-35.02-80.4-76.88-102.37-127.65-16.21-38.7-4.37-82.9-19.24-121.73-1.28-3.23-5.3-8.64-8.27-3.95-4.59 51.88 0.41 106.09 22.14 154.07 22.15 50.68 57.96 93.21 91.1 136.82-39.77-19.64-78.93-41.47-113.86-69.06-10.09-7.19-18.71-16.65-24.25-27.76-24.69-53.43-43.48-109.77-53.18-167.84-2.79-26.63-4.9-54.75 4-80.05-0.34 3.06 1.93 0.03 2.6-1.05 17.79-26.91 49.49-37.56 77.29-50.5z" fill="#936ecd"/>
<path d="m420.81 546.81c30.43-19.55 51.93-49.41 64.21-83.07-2.74 34.73-18.48 73.47 2.91 105.19-12.85 71.43 13.63 143.98 52.94 203.17-39.58-14.61-77.01-46.96-80.74-91.39 0.07-47.06-10.54-95.69-39.32-133.9z" fill="#936ecd"/>
<path d="m586.37 500.32c5.18-0.37 2.96 5.47 0.7 7.86-14.46 48.7-5.23 101.86 4.86 149.94 7.37-28.69 9.77-60.32 16.23-88.03-0.24 26.14 4.35 55.26 7 82.65 2.31-29.06 4.92-61.88 14.23-91.29 7.26-14.39 10.88-36.83 27.45-43.29-9.85 28.29-14.7 58.83-10.78 88.75 5.01 79.49 63.62 145.31 131.11 181.87 5.48 2.68 1.91 10.24-3.76 7.83-47.13-12.42-90.54-36.04-133.52-58.5 15.44 30.14 33.16 59.11 51.19 87.74-39.73-20.06-63.68-61.89-100.45-85.84 1.53 29.12 19.94 56.02 39.54 76.78-46.68-17.2-73.92-64.38-89.85-109.11-16.9-44.38-22.66-95.74-4.27-140.53 1.02-1.45 1.4-4.83 3.81-3.83 5.94 32.07 12.98 63.98 20.41 95.75-3.43-42.7 2.1-87.1 12.6-129.21 3.99-9.74 4.68-22.85 13.5-29.54z" fill="#a37de4"/>
<path d="m1226.8 585.17c8.5 5.01 9.4 19.44 15 28.18 0.2 39.71-8.8 79.99-13.8 119.63-5.2 38.34-10.6 83.36-43 109.1 2.7-15.13 7.4-30.68 5-46.17-2.5-28.98-5.6-58-5.8-87.16 0.8-4.47-3.7-14.53 1.7-16.83 5.1 15.37 0.6 33.38 10.4 47.17 6.8-0.27 5.9-10.12 7.4-14.63 1.4-28.21-6.2-57.94-0.5-85.18 7.1 5.18 3 29.36 17.4 30.57 9.5-26.89 8.4-56.55 6.2-84.68z" fill="#fdfeee"/>
<path d="m252.24 630.94c1.33 48.8 21.35 100.28 49.21 142.62 20.45 34.37 45.56 67.54 79.73 89.25 22.33 19.49 54.29 28.77 71.93 53.06-56.09-34.68-129.55-37.62-176.25-87.72-40.7-55.61-52.3-133.6-24.62-197.21z" fill="#d8cffe"/>
<path d="m989.24 747.27c16.96-7.53 35.96-5.28 53.76-9.34-19.1 11.57-22.1 39.89-12.8 58.86 5.4 6.69 3-5.31 2.9-8.41 10.3-23.87 47.3-26.92 61.8-5.07-16.4 0.03-27.8 23.02-12.8 33.28 21.2-2.26 40 12.35 51 29.26-10.1-8.58-22-14.6-33.9-20.23-3.2-1.67-12.4-6.77-9.3 0.46 7.3 15.58-10.1 25.02-14.9 37.92-7.7 18.6-24.5 30.73-39.9 42.47 20.7 2.19 42.7-9.36 63.2 0.08-34.3 4.21-80.1 24.25-78.1 65.18 16.5 5.89 32.9 34.07 15.8 48.27-2.9-11-14.8-13.8-20.1-22.88-21.25-19.94-46.97-36.47-61.5-62.48-13.46-30.21 1.27-65.8 24.76-86.48 16.24-20.68 45.14-27.57 68.64-31.27-35-1.68-80.86-6.14-110.32 20.6-25.69 13.2-19.88 47.82-19.29 71.73-13.18-61.25 11.55-134.47 71.05-161.95m23.46-0.83c-37.7 8.06-62.83 41.17-79.89 73.3 13.74-10.65 26.62-23.69 43.49-29.42 16.52-10.68 41.4-4.66 51.1 12.49 2-13.62-8.5-27.65-10.2-41.71 0.6-6.31 9.1-19.45-4.5-14.66m40 28.9c-18.5 2.47-10.1 34.85 6.6 25.92-0.4-12.27 9.7-25.11 22.6-23.3-7.4-5.25-20.1-2.44-29.2-2.62z" fill="#d8cefd"/>
<path d="m1012.7 746.44c13.6-4.79 5.1 8.35 4.5 14.66 1.7 14.06 12.2 28.09 10.2 41.71-9.7-17.15-34.58-23.17-51.1-12.49-16.87 5.73-29.75 18.77-43.49 29.42 17.06-32.13 42.19-65.24 79.89-73.3z" fill="#f1e7ff"/>
<path d="m1052.7 775.34c9.1 0.18 21.8-2.63 29.2 2.62-12.9-1.81-23 11.03-22.6 23.3-16.7 8.93-25.1-23.45-6.6-25.92z" fill="#f1e7fe"/>
<path d="m937.48 837.49c29.46-26.74 75.32-22.28 110.32-20.6-23.5 3.7-52.4 10.59-68.64 31.27-23.49 20.68-38.22 56.27-24.76 86.48 14.53 26.01 40.25 42.54 61.5 62.48-19.86-4.57-40.81-7.99-57.58-20.45-23.24-14.68-33.12-42.25-40.13-67.45-0.59-23.91-6.4-58.53 19.29-71.73z" fill="#beb4e6"/>
<path d="m1089.9 826.08c-3.1-7.23 6.1-2.13 9.3-0.46-0.5 0.27-1.4 0.81-1.9 1.07 17.5 17.26 24.9 42.77 22.8 66.95 11.2-6.17 17-23.5 19.1-36.74 2.4 7.98 4.9 16.17 5.2 24.56-10.6 5.95-25.2 13.57-25.3 27.32-1.3 1.29-3.5 0.9-5.3 1.24-5.1-1.36-10.3-2.38-15.5-3.47-20.5-9.44-42.5 2.11-63.2-0.08 15.4-11.74 32.2-23.87 39.9-42.47 4.8-12.9 22.2-22.34 14.9-37.92z" fill="#f1e7ff"/>
<path d="m1097.3 826.69c0.5-0.26 1.4-0.8 1.9-1.07 11.9 5.63 23.8 11.65 33.9 20.23 1.9 1.85 3.6 3.96 4.8 6.37 0.4 1.54 0.9 3.11 1.3 4.68-2.1 13.24-7.9 30.57-19.1 36.74 2.1-24.18-5.3-49.69-22.8-66.95z" fill="#fdfeef"/>
<path d="m1137.9 852.22c9.9 7.81 12.3 19.58 8.3 31.45-11 6.34-22.5 17.13-22.1 30.93-3.7-0.7-7-2.82-10.3-4.58 1.8-0.34 4 0.05 5.3-1.24 0.1-13.75 14.7-21.37 25.3-27.32-0.3-8.39-2.8-16.58-5.2-24.56-0.4-1.57-0.9-3.14-1.3-4.68z" fill="#d7cffa"/>
<path d="m894.75 864.5c3.35-0.95 7.77-1.72 4.83 2.17-13.45 19.52-11.37 46.3 3.37 64.38 12.54 14.83 23.56 31.09 37.34 44.75 0.13 13.26-3.15 26.8-4.64 40.1-87.77 0.7-169.99-30.91-252.89-55.72-46.56-8.36-92.32-20.64-137.84-33.51 33.58 1.16 67.17 9.64 100.73 13.76 58.31 7.14 116.29 22.46 175.32 21.49-76.34-11.13-158.11-13.87-229.05-49.3 78.27 10.87 157.38 26.46 237.01 27.44-51.06-7.82-105.11-13.14-156.7-23.4-14.06-2.14-28.62-4.2-41.41-10.78 0.29-3.75 4.77-4.01 7.67-3.61 48.56-0.59 96.94 5.56 145.33 9.82-35.08-8.72-74.23-16.43-108.85-31.4 73.03 9.63 147.63-1.56 219.78-16.19z" fill="#583393"/>
<path d="m1146.4 889.35c7-2.02 5.5 9.76 6.2 14.25-6.4 7.98 3 17.5-0.8 26.05-4.6 4.72-15.3 2.98-15.8 11.55-9.2 15.9 23.4 9.72 16-4.2 18.1 33.63 0.1 73.3-5.5 108.4-36.3 16.1-73.5-6.8-97.3-33.3 2.6-16.43-7.5-35.64-22.4-41.09-2.9-20.52 11.1-42.21 31.3-47.92 20.9-7.07 46.2-15.16 66-1.2 6.4-10.55 8.3-28.22 22.3-32.54m-22.3 38.63c-2.8 18.85 7.3 37.28 12.6 55.37 2.5 1.91 7.1-0.09 4.1-3.13-8.8-16.01-8.8-38.23-16.7-52.24m-41.5 11.46c-6.8 1.81-16.8 4.59-18.6 12.24 7.1-0.29 11.2-7.54 18.2-8.27 7.8-6.27 20.3 2.73 27.7-0.26-6.1-6.09-18.9-3.87-27.3-3.71m14.9 21.06c-11.8-0.6-22.2 9.18-33.9 5.02-6.5-3.48-13.8 6.61-5.6 8.85-5.1-1.46-6.3 3.37-3 5.56 16.3-6.93 36-0.99 52-5.91-2-2.52-8.1-2.67-5.8-9.15 6.1-0.35 8 8.01 13.5 8.05-1.3-7.56-9.4-14.19-17.2-12.42m50.5 35.91c-4.1 3.99-8.8 8.99-15.2 7.19-4.8 2.6-6.9 9-12.7 10.3-1.7-1.3-5.5-2.9-4 0.8 9.5 5.2 33.7 11.6 35.3-5.3 0.4-5.2 8.5-17.33-3.4-12.99z" fill="#feddcf"/>
<path d="m325.68 921.65c8.82-1.12 17.7-0.97 26.51 0.17-8.84 0.32-17.68 0.16-26.51-0.17z" fill="#6a6971"/>
<path d="m303.27 927.93c78.64-6.04 160.98 5.17 240.53 13.23 73.78 17.56 147.98 33.8 221.43 52.57 32.51 18.17 70.22 25.67 106.7 32.47-33.04 13.2-67.31 23.9-102.56 29.2-78.53 2.7-159 10.9-236.15-8.6-58.92-18.4-118.08-36.3-176.81-55.26-78.62-29.12-165.24-15.43-243.51 7.7-3.34-0.39-6.66-0.92-9.99-1.29 17.42-15.88 37.47-30.38 61.06-35 46.9-12.42 98.9-7.13 141.76-33 2.52-2.3-0.49-2.33-2.46-2.02z" fill="#9972e5"/>
<path d="m148.01 953.93c51.43-10.21 102.85-22.56 155.26-26 1.97-0.31 4.98-0.28 2.46 2.02-42.86 25.87-94.86 20.58-141.76 33-23.59 4.62-43.64 19.12-61.06 35-10.27 1.04 1.83-24.58-9.16-18.08-15.73 12.41-31.02 30.33-30.2 51.43 13.22-21.3 42.51-18.9 64.22-20.2 34.04 3.6 69.9-3.3 103 4.9 25.69 24.1 63.42 25.9 96.45 31.9 53.87 3.4 109.9 9.3 162.74 4.1-86.2-10-173.32-16.2-257.87-36.7 1.63-1.5 8.24-3.5-0.04-3.2-39.74-3.7-79.48-8.3-119.15-12.86 78.27-23.13 164.89-36.82 243.51-7.7 58.73 18.96 117.89 36.86 176.81 55.26 77.15 19.5 157.62 11.3 236.15 8.6 35.25-5.3 69.52-16 102.56-29.2 22.11 6.4 45.15 7.3 67.8 3.5-15.16 40.1-61.02 67.2-103.6 60.2-28.25 3.8-57.25 7.5-85.76 3.6-82.26-4.2-164.41-8.8-246.42-15.5-101.05-2-209.71 7.8-293.93 69-50.67 41.1-88.5 99.9-97.93 165.1-7.18 49.9-6.05 100.6-12.46 150.5-5.71 27.6-4.78 60.6-29.97 79.2-7.66 2.2-15.87 4.2-24 2.9-20.16-13.9-28.87-46.4-6.92-63.5 9.82-2.3-2.59 7.6 1.4 10.6 4.3 4.6 15.64 11.6 18.35 1.6 29.05-42.5 14.05-95.7 10.16-143-1.41-80.3 23.25-162.4 76.59-223.2 37.49-42.5 94.04-66.8 149.41-70.3 3.79-6.9-11.29-4.8-15.36-6.9-31.38-15.4-63.63-31.2-99.01-34.3-39.71-7.6-83 4.2-111.26 33.3-5.87 11.6-4.79 27 2.25 37.2-34.05-4.6-34.44-53.7-14.56-74.5 20.21-31.91 56.98-46.38 91.3-57.77m75.56 136.57c-46.97 29.1-91.84 67.7-113.16 119.9-8.56 35.4-16.99 70.8-23.36 106.6 22.43-41.6 40.28-88.1 61.73-131.2 24.89-32.2 51.59-63.5 76.18-95.7-0.35 0.1-1.05 0.3-1.39 0.4m-140.13 386.8c-11.83 12.1-24.13 23.9-38.8 32.4-13.4-3.5-5.53 35.9 8.26 23.2 16.12-13 28.94-38.5 30.54-55.6z" fill="#b38cfe"/>
<path d="m1124.1 927.98c7.9 14.01 7.9 36.23 16.7 52.24 3 3.04-1.6 5.04-4.1 3.13-5.3-18.09-15.4-36.52-12.6-55.37z" fill="#030101"/>
<path d="m1082.6 939.44c8.4-0.16 21.2-2.38 27.3 3.71-7.4 2.99-19.9-6.01-27.7 0.26-7 0.73-11.1 7.98-18.2 8.27 1.8-7.65 11.8-10.43 18.6-12.24z" fill="#060101"/>
<path d="m1097.5 960.5c7.8-1.77 15.9 4.86 17.2 12.42-5.5-0.04-7.4-8.4-13.5-8.05-2.3 6.48 3.8 6.63 5.8 9.15-16 4.92-35.7-1.02-52 5.91-3.3-2.19-2.1-7.02 3-5.56-8.2-2.24-0.9-12.33 5.6-8.85 11.7 4.16 22.1-5.62 33.9-5.02z" fill="#010101"/>
<path d="m93.75 979.87c10.99-6.5-1.11 19.12 9.16 18.08 3.33 0.37 6.65 0.9 9.99 1.29 39.67 4.56 79.41 9.16 119.15 12.86 8.28-0.3 1.67 1.7 0.04 3.2-0.33 0.2-0.99 0.5-1.32 0.7-33.1-8.2-68.96-1.3-103-4.9-21.71 1.3-51-1.1-64.22 20.2-0.82-21.1 14.47-39.02 30.2-51.43z" fill="#d8cefe"/>
<path d="m963.72 987.22c12.91 7.15 28.78 4.99 41.48 12.62 11.9 4.86 27.6 12.66 24.8 28.36 6.8 0.4 11.1-10.1 17.6-11 4.2 8.3 12.7 12.4 19.5 18.2-32.3 4.1-65.1 25.2-77.16 55.5 6.9-27.4-10.12-60.9-39.56-64.1-4.07-14.2 1.16-31.03 13.34-39.58z" fill="#feddcf"/>
<path d="m1148 996.41c11.9-4.34 3.8 7.79 3.4 12.99-1.6 16.9-25.8 10.5-35.3 5.3-1.5-3.7 2.3-2.1 4-0.8 5.8-1.3 7.9-7.7 12.7-10.3 6.4 1.8 11.1-3.2 15.2-7.19m-2.1 11.19c-4.9 3.3-14.3 0.3-15.9 7.5 3.5 2.4 23.3 0.7 15.9-7.5z" fill="#020101"/>
<path d="m1145.9 1007.6c7.4 8.2-12.4 9.9-15.9 7.5 1.6-7.2 11-4.2 15.9-7.5z" fill="#fefdfe"/>
<path d="m230.77 1016c0.33-0.2 0.99-0.5 1.32-0.7 84.55 20.5 171.67 26.7 257.87 36.7-52.84 5.2-108.87-0.7-162.74-4.1-33.03-6-70.76-7.8-96.45-31.9z" fill="#fefef0"/>
<path d="m153.33 1017.4c41.61 0.1 85.15 12.3 118.47 36.8-23.39 4-49.14 11.1-70.13 24.4-14.29-34.6-60.39-53.4-95.56-49.3 14.58-7.7 31.13-9.9 47.22-11.9z" fill="#d8cffe"/>
<path d="m945.73 1032.2c26.43-0.8 45.3 30.8 38.42 54.9-3.86 7.9-1.75 16.1 0.7 23.9-4.73 14-13.1 27.3-26.8 34-34.19 31.3-83.96 30.6-127.09 33-117.04-5.9-232.22-30.5-349.13-36.9-64.15 1.7-129.53 6.4-190.27 28.5-65.75 23.5-115.85 77.3-142.61 141.3-10.21 18.5-19.11 38.3-20.26 59.7-8.1 34.2-16.94 68.2-24.13 102.6 9.12-67.4 0.29-139.1 25.95-203.7 27.37-87 107-150.3 194.42-170.6 20.72-4.5 41.96-6.1 62.94-9 45.48-11.8 92.99-5.5 139.34-4.1 111.77 3.8 223.7 19.8 335.49 8.9 36.49-5.1 66.89-30.2 83.03-62.5m-24.89 53.7c-75.25 28.4-156.04 44.1-236.58 38.9-78.55-10.5-158.42-21.4-237.41-15 78.24 16.9 157.05 31.8 235.47 48 60.75 0.4 121.37 2.9 182.03-1.6 23.69 0.1 47.61-3.8 69.82-12 4.12-5.6 8.02-11.8 10.75-18.3 8.63-11.7 12.03-30.5 1.9-42.2-5.44-6.1-18.7-1.7-25.98 2.2m-615.62 32.4c-44.18 20.8-90.92 42-123.6 79.3-11.26 22.4-17.94 49-18.91 73.5 9.16-24.7 21.91-48.3 39.07-68.3 21.86-26.5 56.52-33.7 86.16-47.8 30.74-14.8 65-17.4 98.15-23-25.79-4.6-56.23-2-80.87-13.7z" fill="#d8cffd"/>
<path d="m920.84 1085.9c7.28-3.9 20.54-8.3 25.98-2.2-34.19 33-80.13 50.3-122.95 69.5 2.58 7.2 16.15 0 22.05 1.8 33.56-4.1 73.77-3.2 99-29.1-2.73 6.5-6.63 12.7-10.75 18.3-22.21 8.2-46.13 12.1-69.82 12-60.66 4.5-121.28 2-182.03 1.6-78.42-16.2-157.23-31.1-235.47-48 78.99-6.4 158.86 4.5 237.41 15 80.54 5.2 161.33-10.5 236.58-38.9z" fill="#f1e7ff"/>
<path d="m823.87 1153.2c42.82-19.2 88.76-36.5 122.95-69.5 10.13 11.7 6.73 30.5-1.9 42.2-25.23 25.9-65.44 25-99 29.1-5.9-1.8-19.47 5.4-22.05-1.8z" fill="#fdfeee"/>
<path d="m223.57 1090.5c0.34-0.1 1.04-0.3 1.39-0.4-24.59 32.2-51.29 63.5-76.18 95.7-21.45 43.1-39.3 89.6-61.73 131.2 6.37-35.8 14.8-71.2 23.36-106.6 21.32-52.2 66.19-90.8 113.16-119.9z" fill="#d8cefe"/>
<path d="m305.22 1118.3c24.64 11.7 55.08 9.1 80.87 13.7-33.15 5.6-67.41 8.2-98.15 23-29.64 14.1-64.3 21.3-86.16 47.8-17.16 20-29.91 43.6-39.07 68.3 0.97-24.5 7.65-51.1 18.91-73.5 32.68-37.3 79.42-58.5 123.6-79.3z" fill="#c1b8e7"/>
<path d="m455.56 1145.5c42.79-3.8 85.16 3 127.34 8.5 60.59 10.9 122.28 15.5 183.01 25.3-31.31 3.5-80.33-3.2-95.15 34.5-80.48 4.2-166.98 5.1-241.33 40.7-32.73 7.3-61.01 26.8-87.36 46.6-64.91 49.9-99.34 134.1-95.18 214.9 1.55 16.2 3.57 33.2-2.38 48.8-12.25 1-15.64-14.1-24.14-20.2-7.84-15-23.67-23.5-31.48-38.5-25.75-33.2-37.59-75.2-40.27-116.6-4.37-16.7 0.13-34.7-6.28-50.8 26.73-67.3 71.05-133.9 141.19-160.1 54.4-22.8 114.06-26.7 172.03-33.1m-21.36 28.5c-20.46 5.6-41.89 3.5-62.46 8.7-42.46 7.6-89.91 13.9-121.18 46.9-26.08 31.4-50.46 65.1-67.69 102.1 31.47-41.6 71.43-78.8 120.8-98.7-39.72 29-82.78 62.4-102.72 109.9-15.16 31.8-20.3 69.3-18.15 103.1 12.6-70.4 52.46-138.6 115.09-175.3 6.37-2.5-0.82 4.7-2.88 5.3-20.88 20.4-40 43.1-54.79 68.2-27.72 48.5-35.86 108.2-29.28 161.6 4.53-73.3 50.06-135.4 92.91-192 36.68-47.9 92.64-78.8 151.59-89.3 50.1-11.7 102.51-14.2 151.34-31.8-0.71-4.1-6-6.9-9.07-9.7 20.72-0.6 44.3 1.3 63.23-1-43.34 0.1-86.64-5.7-128.6-16.5-31.96-0.3-69.15-2-98.14 8.5z" fill="#cbb3fe"/>
<path d="m434.2 1174c28.99-10.5 66.18-8.8 98.14-8.5 41.96 10.8 85.26 16.6 128.6 16.5-18.93 2.3-42.51 0.4-63.23 1-54.57 1-109.59-0.2-163.51-9z" fill="#fefef0"/>
<path d="m371.74 1182.7c20.57-5.2 42-3.1 62.46-8.7 53.92 8.8 108.94 10 163.51 9 3.07 2.8 8.36 5.6 9.07 9.7-48.83 17.6-101.24 20.1-151.34 31.8-58.95 10.5-114.91 41.4-151.59 89.3-42.85 56.6-88.38 118.7-92.91 192-6.58-53.4 1.56-113.1 29.28-161.6 14.79-25.1 33.91-47.8 54.79-68.2 2.06-0.6 9.25-7.8 2.88-5.3-62.63 36.7-102.49 104.9-115.09 175.3-2.15-33.8 2.99-71.3 18.15-103.1 19.94-47.5 63-80.9 102.72-109.9-49.37 19.9-89.33 57.1-120.8 98.7 17.23-37 41.61-70.7 67.69-102.1 31.27-33 78.72-39.3 121.18-46.9z" fill="#b196e3"/>
<path d="m750.59 1184.4c5.01-0.6 10.27-0.6 15.21 0.7-2.62 7.9 0.76 15.3 3.61 22.4 68.72 53.5 144.18 105.8 187.21 183.9 12.7 23.4 8.28 53-2.87 76.2-4.04-2.4-6.99-8.8-11.27-12.1-28.7-58.2-59.19-124.5-121.03-154-48.95-21.9-102.32-35.9-146.15-67.8-9.87-20.2 11.15-37.3 28.67-42.7 14.81-8.7 31.78-0.5 46.62-6.6m-20.89 26.1c-12.04 2.8-26.44 1.6-36.14 10.4-3.23 7.3 5.81 10.9 10.41 14.2 38.03 20.9 79.44 34.4 118.99 51.9 20.4 9 38.05 23.3 57.96 32.9-27.84-27.9-62.34-51-91.99-77.8-19.82-9.8-34.89-35.3-59.23-31.6z" fill="#feddcf"/>
<path d="m729.7 1210.5c24.34-3.7 39.41 21.8 59.23 31.6 29.65 26.8 64.15 49.9 91.99 77.8-19.91-9.6-37.56-23.9-57.96-32.9-39.55-17.5-80.96-31-118.99-51.9-4.6-3.3-13.64-6.9-10.41-14.2 9.7-8.8 24.1-7.6 36.14-10.4z" fill="#feeede"/>
<path d="m664.52 1221.4c6.16-2.7 3.28 9.1 3.34 13.4-27.23 5.9-51.46 21.6-72.99 39.1-41.34 23.1-73.93 60.9-94.83 103.1-47.42 92.7-73.56 197.1-66.59 301.6-1.03 25 13.97 51.5 1.7 75.3-4.91-11.9-8.59-24.7-17.6-34.5-8.96-20.4-31.55-36.2-28.71-60.4-16.77-61.4-2.63-125.5 9.72-186.4 7.86-68.3 36.68-136.8 91.53-180.5 22.34-15.4 44.59-31.4 69.36-42.7 33.73-13.5 69.97-19.1 105.07-28m-151.77 72.4c-19.43 18.6-36.74 39.4-50.62 62.3 8.22-8.2 15.39-17.9 24.87-25.1-18.36 28.6-41.5 54.4-52.82 87.1-10.69 38.9-15.43 79.5-19.4 119.5 9.29-19.8 15.28-46 23.37-67.7 3.46 3.9-1.62 13 1.62 17.2 18.71-58.5 39.55-116.7 68.03-171.3-0.25-0.2-0.74-0.8-0.99-1 25.73-19.7 52.77-37.9 81.41-53.1-25.7 6.5-57.68 9-75.47 32.1m-91.53 255.1c-6.48 33.8-9.85 68.2-18.98 101.4 2.23 26.7 18.79 49.8 31.09 72.7-0.18-57.1-8.47-116.6-12.11-174.1z" fill="#b38cfe"/>
<path d="m608.49 1226.4c4.18 1 12.81-2.8 15.38 0.3-60.13 13.4-118.48 41-161.89 85.3-37.56 36.7-57.05 87.5-65.38 138.6-2.02 35.5-9.44 70.4-17 105-8.08 41.3-1.97 84.1 8.32 124.6-44.51-38.3-100.37-62.1-140.72-105.5-3.16-3 1.97-6.7 2.79-9.7 11.86-24.2-2.99-51.2 3.34-76 1.85-63 27.63-126.2 74.31-169.4 73.1-73 181.97-88 280.85-93.2m-187.24 55.8c-40.8 16.4-79.84 51.9-104.43 90.6-25.51 37.7-22.23 85.5-30.71 128.4 1.22 19.2-6.68 39.7-3.36 57.6 11.16-44.7 27.14-88.1 38.21-132.8 7.4-13.5 11.5-31.5 25.18-39.8-13.46 71.9-20.68 146.5-4.96 218.6 4.34-43.9 1.83-93.7 15.93-137.8 7.97 2 4.56 14.6 7.8 20 2.67-23.3 3.73-47.2 10.2-69.9 10.71-26.9 15.02-56.5 30.69-81.3 24.86-30.3 59.4-50.5 92.95-70.1-0.43-2.1-4.86-1.5-6.94-1.9 12.28-6.7 26.41-13.8 36.74-22-35.88 13-73.18 23-107.3 40.4z" fill="#bf99ff"/>
<path d="m421.25 1282.2c34.12-17.4 71.42-27.4 107.3-40.4-10.33 8.2-24.46 15.3-36.74 22-40.93 19.9-80.76 43.3-124.64 56.2 14.52-16.2 36.22-25.1 54.08-37.8z" fill="#fefef0"/>
<path d="m512.75 1293.8c17.79-23.1 49.77-25.6 75.47-32.1-28.64 15.2-55.68 33.4-81.41 53.1-6.34 5.7-13.41 10.6-19.81 16.2-9.48 7.2-16.65 16.9-24.87 25.1 13.88-22.9 31.19-43.7 50.62-62.3z" fill="#fdfdf0"/>
<path d="m367.17 1320c43.88-12.9 83.71-36.3 124.64-56.2 2.08 0.4 6.51-0.2 6.94 1.9-33.55 19.6-68.09 39.8-92.95 70.1-15.67 24.8-19.98 54.4-30.69 81.3-6.47 22.7-7.53 46.6-10.2 69.9-3.24-5.4 0.17-18-7.8-20-14.1 44.1-11.59 93.9-15.93 137.8-15.72-72.1-8.5-146.7 4.96-218.6-13.68 8.3-17.78 26.3-25.18 39.8-11.07 44.7-27.05 88.1-38.21 132.8-3.32-17.9 4.58-38.4 3.36-57.6 8.48-42.9 5.2-90.7 30.71-128.4 24.59-38.7 63.63-74.2 104.43-90.6-17.86 12.7-39.56 21.6-54.08 37.8z" fill="#a680e7"/>
<path d="m487 1331c6.4-5.6 13.47-10.5 19.81-16.2 0.25 0.2 0.74 0.8 0.99 1-28.48 54.6-49.32 112.8-68.03 171.3-3.24-4.2 1.84-13.3-1.62-17.2-8.09 21.7-14.08 47.9-23.37 67.7 3.97-40 8.71-80.6 19.4-119.5 11.32-32.7 34.46-58.5 52.82-87.1z" fill="#9972e5"/>
<path d="m83.44 1477.3c-1.6 17.1-14.42 42.6-30.54 55.6-13.79 12.7-21.66-26.7-8.26-23.2 14.67-8.5 26.97-20.3 38.8-32.4z" fill="#f2e8fe"/>
<path d="m421.22 1548.9c3.64 57.5 11.93 117 12.11 174.1-12.3-22.9-28.86-46-31.09-72.7 9.13-33.2 12.5-67.6 18.98-101.4z" fill="#f2e8ff"/>
<path d="m436.74 1671.2c-1.03-10.1-1.39-20.3 0.13-30.3 0.07 10.1 0.23 20.2-0.13 30.3z" fill="#555657"/>
<path d="m412.3 1721.4c9.26 10.1 15.09 26.9 17.39 41.3-8.86 28.2-55.59 10.2-49.6-16.2 1.22-4.3 0.85-12.2 6.72-13.3 0.91 8.7 15.56 10.9 17.96 2.8-4.86-6.6 4.33-9.7 7.53-14.6z" fill="#8f68db"/>
</svg>
