<?xml version="1.0" encoding="utf-8"?>
<!-- Generator: Adobe Illustrator 22.1.0, SVG Export Plug-In . SVG Version: 6.00 Build 0)  -->
<svg version="1.1"
	 id="Layer_1" xmlns:cc="http://creativecommons.org/ns#" xmlns:dc="http://purl.org/dc/elements/1.1/" xmlns:rdf="http://www.w3.org/1999/02/22-rdf-syntax-ns#"
	 xmlns="http://www.w3.org/2000/svg" xmlns:xlink="http://www.w3.org/1999/xlink" x="0px" y="0px" viewBox="0 0 1646 1818"
	 style="enable-background:new 0 0 1646 1818;" xml:space="preserve">
<style type="text/css">
	.st0{fill:#CDCFF7;}
	.st1{fill:#E3F0F0;}
	.st2{fill:#EEEFEF;}
	.st3{fill:#E2F0F0;}
	.st4{fill:#049246;}
	.st5{fill:#ECD0EB;}
	.st6{fill:#EFC8F3;}
	.st7{fill:#DDF1F1;}
	.st8{fill:#F4D0D3;}
	.st9{fill:#F7BBF7;}
	.st10{fill:#DDF0F1;}
	.st11{fill:#F4D1D2;}
	.st12{fill:#F4D1D1;}
	.st13{fill:#1D1D1C;}
	.st14{fill:#F6D0CF;}
	.st15{fill:#F5D1D0;}
	.st16{fill:#55B948;}
	.st17{fill:#F3D2D2;}
	.st18{fill:#EDD5D7;}
	.st19{fill:#1D1E18;}
	.st20{fill:#201B06;}
	.st21{fill:#010000;}
	.st22{fill:#F5DCF5;}
	.st23{fill:#EEC6ED;}
	.st24{fill:#EAD3EA;}
	.st25{fill:#F9BBBC;}
	.st26{fill:#F6D9DA;}
	.st27{fill:#F0D6D8;}
	.st28{fill:#312400;}
	.st29{fill:#201500;}
	.st30{fill:#171000;}
	.st31{fill:#060000;}
	.st32{fill:#3D2F00;}
	.st33{fill:#785200;}
	.st34{fill:#9A7100;}
	.st35{fill:#7EC573;}
</style>
<path class="st0" d="M804.3,9.3c0.4,27.1-2.4,58-2.3,86.4c13-22.7,22.5-52.2,37.1-74.7c-10.9,30.9-24,61.3-33,92.6
	c23.9,8.2,50.5,10,74.7,18.6c-15.7,0-35.4-3.8-52.6-2.4c13.2,10.2,30,18.1,43.5,28.3c-22.4-8.3-44.2-18.4-66.9-26.1
	c-4.3,35.5-9.2,71.1-12,106.8c-2.3-27.2,1.5-58.9,0.4-87.1c-14,25.5-25.4,53.7-38.5,78.9c10.3-33.4,25-65.5,36.2-98.7
	c-24.8-6.2-49.7-11.6-74.8-16.3c15.7-2.9,34.2,4.1,49.9,0.4c-13-9.6-29.6-15.5-40.8-26.4c22.3,6.9,42.6,20.6,65.5,24.9
	C796.3,79.8,798.5,44.2,804.3,9.3L804.3,9.3z"/>
<path class="st1" d="M276.5,78.7c9.4-3.7,19.4-6.5,29.5-6.7c-2.5,4.1-4,9.4,0.5,12.7c-0.4,4-8.2-2.6-11.1,0.6
	c-4.2,4.7-11,2.6-16.4,4.3c-3.2,4.4,7.1,4,5.7,8.2c-5.8,3.2-15.4-0.6-18.8,5.8c-7.5,0-25.3,5.2-19.4,16.4c8.6-1.3,14.1-10.7,23.1-10
	c-1.2,7-10.5,11.6-10.8,18.3c9.9,8,14.1-14.3,21.4-10.9c-4.1,5.1-4.1,15.4-8.6,20.1c7.1,8.3,8.2-2.4,9.4-8.5
	c4.5,2.5,0.1,11.1,5,13.2c3.4-1.4,1.4-6.6,4.5-8.7c1.1,4.5-1.2,10.6,0.4,14.1c7.5-2.7,15,10.9,17,0c-0.8,12.9,8.9,1.9,15.1,6.1
	c1.3-6.6,17.2-17.6,19.9-6.2c3.9-6.9,12.6-15.1,5.9-23.1c0.1-3.3,3.9-6.4,4.2-10.2c19.1,26.5,38.2,52.9,54.4,81.5
	c5.1,6.4,19.8,21.9,6.4,24.5c-3.3-4.5-10-9.7-15.6-5.9c-4.2,6.4,3.4,10.7,5.4,16.1c-8.6-1.1-14.1-9.5-22.2-11.9
	c-9.9-3.5,1,14.5-7.4,10.5c-5.1-2-16.4-4.8-17,2.7c5.8,4.4,7.2,11.1,10.1,17.3c-0.1,23.6-7,2.7-5.3-7.7c-12.9-7.4-10.7,17.5-17,23.5
	c-7.3-7.9,1.6-34.1-10.3-37.8c-4.6,15.3-1,34.5-12.6,46.8c-12.3-2,5-25.4-5.6-26.8c-6.2,8.8-6.4,25.5-15.9,31.9
	c-5.2-17.7-0.9-37.5-0.2-55.9c0.4-2.8-2.9-2.1-4.7-1.9c-3,1.8-6.4,3.9-10,2.2c0.2-5.1,1-11.8-6.1-11.4c-11.8-8.1-11.4,8.4-8.5,15.1
	c-5.1,14.6-7.3,31.4-17.8,43.3c-5.9-10,1.4-23.4-3.3-33.4c-9.1,1.6-3.8,20.1-11.7,22.8c-0.9-15.7-3.2-31.5-0.6-47.2
	c2.4-3.2-1.2-11.4-5.5-6.7c-2.9,12-12.6,20.4-18.2,30.9c-14.4-0.6,1.3-19.8-7.5-27.3c-10.9-7.1-12.1,10.4-18,15.9
	c-5.3,2-7.2-5.6-5.4-9.3c1.7-15.1,4.6-29.7,9.9-44c0.5-8.9-11-6.6-12.7,0.2c-14.1,9.8-28.1,21.2-45.2,25.5c-5.8,1.4-9.8-3.8-7-8.7
	c3.4-17.6,21.3-28.8,26-44.8c-24.4-2.4-48.9,16.9-73.4,15.3c-6-4.6,1.6-11.3,4.2-15.9c30-22.2,67.3-31.5,102.7-41.3
	C215.9,90.6,246.8,86.7,276.5,78.7L276.5,78.7z"/>
<path class="st2" d="M306,71.9c21.2,6.4,33.6,26,47,42.2c-0.4,3.7-4.2,6.8-4.2,10.2c6.7,8-2,16.1-5.9,23.1
	c-2.7-11.4-18.6-0.4-19.9,6.2c-6.1-4.1-15.9,6.9-15.1-6.1c-2,10.9-9.5-2.7-17,0c-1.7-3.5,0.7-9.6-0.4-14.1c-3.1,2-1.1,7.3-4.5,8.7
	c-4.9-2.1-0.5-10.7-5-13.2c-1.2,6.1-2.3,16.8-9.4,8.5c4.5-4.7,4.5-15,8.6-20.1c-7.3-3.3-11.5,18.9-21.4,11
	c0.3-6.7,9.5-11.2,10.8-18.3c-9-0.6-14.6,8.7-23.1,10c-5.9-11.2,12-16.4,19.4-16.4c3.4-6.4,13-2.6,18.8-5.8c1.4-4.2-8.9-3.8-5.7-8.2
	c5.4-1.7,12.2,0.3,16.4-4.3c2.9-3.3,10.7,3.3,11.1-0.6C302,81.4,303.5,76,306,71.9L306,71.9z"/>
<path class="st3" d="M498.5,99.3c2.6-7.6,11.5-15.9,20.2-12.3c45.1,14.6,89.2,33.8,128.1,60.2c12.7,8.8,27,20.2,27.2,37.2
	c-6.4,5.7-15-3.3-20.3-7.4c-12.2-0.4-19.3-9.1-27.8-16.2c-3.2-1.8-10.3-0.7-7.8,4.8c6.3,20.9,21.7,40.1,19.7,63
	c-2,0.8-4.9,2.3-6.8,0.4c-11.5-10.4-24.3-20.8-29.9-35.4c-7.4-4.7-8.6,5.4-7.7,9.9c3.7,18.9,6,37.9,5.7,57.4
	c-9.8-1.9-4.5-19.8-14.8-20.9c-6.3,9.9,1.3,24.1-5.4,34.2c-6.8-11.7-3.5-26.6-12.3-37.2c-1.7-0.1-3.7-0.3-4.5,1.5
	c-0.7,20.8,0.7,41.5-0.1,62.2c-5.8-4.9-0.8-23.3-9.7-24.6c-2.8,12.3,1.3,25.4-0.2,38v0.8c-1-0.7-2-1.3-3-2c-0.7-1.6-1.3-3.2-1.8-4.9
	c-2.2-11.1-5.4-22-6.5-33.3c-0.7-2.7-1.5-11-6.3-8c0.2,12.1,1,24.3,1.2,36.4l0.1,0.9c-2.2,3.8,3.6,17.8-4.1,15.7
	c-2.9-7.2-5.6-14.7-6.3-22.5c0-1.2,0-2.4,0-3.6c-0.4-10.2-1.1-22.2-5.3-30.5c-5.4,6.4-1.6,18.4-1.4,27.1c0.1,1.2,0.1,2.4,0.2,3.5
	c0.3,11.1,0.6,22.3,0.4,33.4c-8.8-1.5-6.3-16.4-9.7-23.5c-1.1-14.4-4.2-4.7-3.6,3.8c1.4,4.1,0.3,21.1-5.8,11.4
	c-0.3-1.6-0.7-3.2-1-4.9c-3.1-11.2-1.4-26-6.1-35.8c-2.8,9.6-1.8,23-5.1,33.9c-2.2-0.1-2-4.2-2.6-6.1c-0.8-6.1-2.7-12-4.9-17.7
	c3-7.1-4.8-9.2-4.2-1.1c-0.1,1.1-0.2,2.2-0.2,3.3c-2.2,4.3-0.5,10-2.7,13.7c-1.6-10.1-2.3-20.4-4-30.5c-0.9-4.8,0-9.7-0.8-14.5
	c-6.6-1.3-13.2-2.2-19.9-3.3c-3.3-1.3-6.8-1.7-10.2-0.6c-2.6-1.1-5.2-2.8-5.6-5.9c1.4-2.5,2.9-4.9,3.9-7.5c0.3-1.5,0.5-3.1,0.7-4.6
	c1.1-2.9,2.1-5.8,3.1-8.8c14.5-27.2,20.5-58.6,34.8-85.6c5.9,3,11.8,7.6,18.6,4.7c11.6,0.8,2.9,11.1-0.4,15.9
	c4.1,3.6,10.6-3.1,15,2.3c1.9,5.3-4.9,9.8-5.7,14.4c6.3-0.2,13.9,2.7,15.8-5.3c9.7,4.4,2.8-11.3,11.3-12.7c12.9,1.8,1.6-19,4.7-23.4
	c4.8,4,3.8,12.6,9.4,16.1c3.5-5.2,6.3-11.1,1.6-16.4c-1.1-8.3,2.5-2.3,5.9-0.4c7.5-3.7,8.9,4.6,16.7,3.7
	c-0.2-8.3-5.6-13.4-11.3-18.1c-12,4-16.9-12.2-28-14.7c-7.4-1.7-9.6-10.7-16.3-13.4C507.4,94.9,503.6,99.4,498.5,99.3L498.5,99.3z"
	/>
<path d="M1256.4,91.4c5.8,4.2,0.6,16.9-2.4,23.8c-24.5,72.3-74.1,131.7-118.1,192.7c-9.4,5.8-15.3,15.9-24.9,21.2
	c9.3-12.3,24.2-19.7,31-34c39-52.9,81.4-104.9,105.1-166.9c3.9-9.1,6.5-18.9,7.1-28.8c-23.4,28.8-42.6,62.2-67,90.9
	C1208.6,156.5,1234,124.6,1256.4,91.4L1256.4,91.4z"/>
<path class="st2" d="M498.5,99.3c5.1,0.1,8.8-4.4,14-3.9c6.7,2.7,8.9,11.7,16.3,13.4c11,2.5,16,18.6,28,14.7
	c5.8,4.6,11.1,9.8,11.3,18.1c-7.8,0.9-9.2-7.4-16.7-3.7c-3.4-1.8-7-7.9-5.9,0.4c4.7,5.3,1.8,11.1-1.6,16.4
	c-5.6-3.5-4.6-12.1-9.4-16.1c-3.2,4.4,8.1,25.1-4.7,23.4c-8.6,1.4-1.6,17.2-11.3,12.7c-1.8,8-9.5,5.1-15.8,5.3
	c0.8-4.5,7.6-9.1,5.7-14.4c-4.4-5.4-10.8,1.4-15-2.3c3.2-4.8,12-15.1,0.4-15.9c-6.8,2.9-12.7-1.7-18.6-4.7
	C480.3,127.3,487.8,111.6,498.5,99.3L498.5,99.3z"/>
<path class="st4" d="M1187.2,190.2c24.4-28.7,43.6-62.1,67-90.9c-0.6,9.9-3.2,19.7-7.1,28.8c-23.7,62-66.1,114.1-105.1,166.9
	c-6.8,14.4-21.7,21.7-31,34c-0.3,0.2-0.9,0.6-1.2,0.9c-30.8,23.8-65.8,41.7-92.9,70c-7,5.6-13.1,12.8-21.3,16.8
	c-24.8,18-53.5,29.6-83.3,36.6c-5.3,1-2,3.9,1.6,4.5c-3.3,2.4-9.3,4.1-8.7,9.1c7.8-2.5,14.5-8.8,22.7-11c-8.1,20-5.6,42.4-5.8,63.5
	c11.3,8.4,21.1,18.6,31.7,28c24.7,39.5,52.7,76.9,81.4,113.5c29.7,31.3,55,66.7,72.9,106c42.3,44,99,69.2,150.2,100.9
	c34.5,27.4,84.1,32.5,124,14.4c24.5-5.7,44.7-22.2,68.5-29.6c12.5-5.5,24.9,3.9,29.1,15.5c10.1,24.8,5.1,51.1-2.1,75.7
	c-0.3,1.8-1,3.6-1.9,5.2c-2.2,3.7-4.1,7.6-5.2,11.8c-6.4,16.9-13.2,33.7-22.8,49.2c-1.9,2.3-3.4,5-4.2,7.9c-0.6,2.2-1.5,4.2-2.8,6.1
	c-2.9,4.4-5.4,9-7.1,13.9c-2.2,6.9-4,14.1-3,21.4c5.9,21.8,19.4,41.3,32,60c7.1,10.1,14.4,20.2,21.9,30c22.8,33.1,53.9,59.3,77,92.1
	c2.6,3.7,5.4,7.5,7.2,11.7c1.3,3.2,2.7,6.4,4.9,9.2c2.4,3.9,3.5,8.5,5,12.8c3.9,11.2,2.7,23.2,4.2,34.9c-2.5,11.4-6,22.7-9.1,34
	c-13.6,30,5.6,61.6,20.8,86.6c-37.8,5.8-75.3-19.6-98.2-49c-43-60.7-85.3-122-125.2-184.8c-31.1-60.2-73.9-113.1-112.4-168.6
	c-31.5-44.2-57.3-92.1-85.7-138.2c-0.2-3-6.7-10.1-4.5-3.7c30.9,54.8,60.5,111,99.3,160.8c12.1,16,22.5,33.2,35.1,48.9
	c34.8,44.9,61.3,95.4,91.8,143.2c32.1,46.9,64,93.9,96.2,140.8c23.1,32.3,60.3,58.3,101.5,56.2c9.8-1.5,11,12.2,19.6,14.8
	c-2.4-5.1-6.7-9.2-8.3-14.6c15.1-0.7,29.9,10.2,31.4,25.3c-1.4,17.1-21.2,17.3-30.8,27.9c-8.3,8-9,20.1-10.5,30.9
	c3.7,9.2,15.2,8.8,22.8,12.6c5.5,3.9,6.1,11.4,6.3,17.6c-0.3,1.6-1.3,3-2.4,4.1c-29.7,34.7-69.6,61.1-113,75.1
	c-12.4,4.2-20.6,16.3-23,28.9c-0.7,2-1.4,4.1-2,6.1c-6.9,24-8.1,52.3-28.1,69.9c-66.8,32.4-143.6,18.9-215,26.8
	c-39.3,6.5-80.5,5.2-117.9-9.1c-21.4-38.9-31.4-82.4-44.7-124.4c-20.3-90.2-31.4-182.2-42.2-273.8c2,67.3,14,137.4,25.9,205.1
	c11.7,66.2,28.2,132.2,58.1,192.7c-29.2-3.1-55.1-21.1-85.1-18.5c-9.9,1.7-21.4,5.1-26.9,14.3c-1.7,2.3-4.2,4-6.9,5.1
	c-21.5,14.4-46.2,22.6-71,28.9c-3.2,2-7.1,2-10.8,2.2c-20.5,2.8-41,6.1-61.1,10.9c-48.5,19.1-101.6,6-152.1,4.8
	c-15.8-7.5-33.6-10.2-49-18.6c-14-7.3-22.4-23.2-21.8-38.8c16.8-64.6,34-129.2,53.9-193c-21.2,51.5-34.1,111.3-48.9,165.3
	c-17.8-26.4-61.5-14.2-75.5-45.3c-25-61.3-34.3-129.6-22.3-195c8.8-59.6,21-119.3,18.3-179.8c-4.1-35.8-13.2-73.7-38.8-100.4
	c-3.4-3.3-5.7-7.6-8.6-11.3c-15.8-19.3-26.7-41.9-33.4-65.8c-0.3-1.1-0.6-2.3-0.7-3.4c-4.2-50.5,5-102.5-8.9-151.9
	c-8.8-16.5-9.3-35.5-12.6-53.5c-3.3-48.4-3.5-96.9,0.3-145.2c5.8-29.5,3.4-60.3-3.8-89.2c-1.7-4.1-2.2-8.6-2.1-13
	c-5.9-36-9-72.7,0.2-108.5c11.7-65.4,23.2-130.9,40.1-195.3c-0.8-13.6,3.7-26,8.6-38.3c6.1,9.8,7.2-7.3,5.8-11.4
	c1.2-1.3,2.4-2.5,3.6-3.8c3.3,7.1,0.8,22,9.7,23.5c0.2-11.1-0.1-22.3-0.4-33.4c2.2,1.2,4.4,2.4,6.6,3.5c0.7,7.8,3.4,15.3,6.3,22.5
	c7.7,2,1.9-11.9,4.1-15.7c4.3,3.2,8.7,6.3,13.3,9c1,0.7,2,1.3,3,2c22.8,23.6,44.7,48.1,66.8,72.3c2.2,2.2,4.2,4.5,6,7.1
	c15.4,22.6,33.5,43.1,51.1,63.8c4,7.6,13,9.4,20.1,12.9c28.5,14.9,59.3,24.6,88,39c36.1,27.4,84.4,7.3,124.9,20.2
	c-3.9-13.3-25.4-3.3-34.1-9.1c-4.5-36-19.5-70-33.5-102.7C884,407.3,905,362.8,916,324c2.5-22.3,10.5-50.9-6.5-69.5
	c-8.1-13.4-24.8-13.3-37.4-7.3c7.3-16.7,31.4-8.1,41-22.4c43.7-0.7,70.4,40.8,108.5,55.5c51.4,15.6,97.6-19.6,136.2-48.6
	c7.8-13.8,19.7-24.7,27.4-38.5C1185.8,192.2,1186.4,191.1,1187.2,190.2 M943.2,275.2c-10.8,19.2-10.9,43-17.1,64
	c-6.6,17.3-13.1,37.8-14.6,57c11.4,12.4,31,11.4,46.6,9.3c49.8-25.1,102-49,144.3-85.5c7.3-7.6,15.4-16.2,19.5-26.1
	c2.5-1.7,5.4-11-0.1-11c-29.3,3.1-58.5,10.3-85,23.1c-11.1,0.4-23.6,4.8-33.2-2.8C984.2,292.5,964.1,282.6,943.2,275.2 M575,402.6
	c32.9,47,70.4,91.2,108.9,133.6c27.3,16.1,57.2,26.8,86.6,38.5c31.9,9.9,64.7,23,98.7,17.9c11.4-7.5,27.1-11.4,31.9-25.8
	c4-12.6-9-16.1-18.2-18.4c-26.7-11.3-55.7-15.5-83.7-22.3c-28.7-10-57.6-19.5-86.1-30c-31.9-4-45-37.6-63.9-59
	c-10.9-18.9-26.6-36.9-47.7-44.3C592.1,383,567.8,385.6,575,402.6 M548.8,414.2c22.8,30.5,45.5,61.1,68.9,91.2
	c16.7,35,38.7,70.5,74.4,88.6c39.8,18.7,67.8,54.4,105,77c46,36.3,69.1,92.8,95,143.1c-14.4-42.3-37.7-81.7-65-117
	c-14.1-18.3-31-35.1-52.2-44.8c-35.4-41.6-90.9-59.3-126.9-100.2C623.1,500.9,587.4,455.4,548.8,414.2 M514.5,433.3
	c-3.6,3.3-1.9,9.7-7.1,12c2.3,8.3-10.5,11.8-6.4,20.3c-8.8,2.2,4.3,5-3.9,6.1c-1.8,5.8-7.9,14.6-2.7,21c-11,11.1,0.3,34-6.8,48.8
	c5,18.4,0.4,46.1,5.8,62c-1.5,16.4,2.8,38.1,2.5,50.1c0.1,24.8,5.8,52.5,4.3,76.3c6.2,1.4-2.7,13.9,5.5,19.3
	c-5.1,6.3,0.3,11.9-0.1,15.7c2.9,64.4,12.4,131.5,19.2,198.1c6.3,7.7-0.5,20.3,6.9,23.8c-4,21.7,7.8,42.7,7.8,64.3
	c6.7,9.7,5.7,28.6,13.9,38.3c9.2,35.1,25.9,66.2,39,100.9c9.7,25.9,15.1,47.8,19.4,76.2c0.7,2.8-5.3,7.7,2.6,5.6
	c5,52.9-7.2,110.1-22,163.9c0.8,9.8-0.3,19.4-3.4,28.7c3.5-1.7,3.5,0.5,0.7,2.2c-5.5,29.2,2,62.3,30.3,77.9
	c13.9,7.6,23.7,23.2,40.2,16.3c29.8-30.7,31-69.3,43.7-107.3c2.6-3.7-2.7-11.6,2.9-11.9c2.2-23.1,11.5-46.4,13.6-70.8
	c8.5-38.2,11.7-78,19.1-116.5c4.6-22.5,10.3-47.4,14-69.8c-0.4-3.9,8.6-11.9,0.3-10.3c6.6-11.8,5.8-26,11-38.5
	c-2.7-12.1,8.4-23.1,7.7-36.1c-5.1-1.4,10.5-18.5-1.3-14.9c5.5-4.8,8.8-15.6,6.9-18.1c5.3-24.6,9.3-50.6,15.5-75.3
	c-6.2-0.9,4.8-5.8-2.5-3.8c9.7-12.2,4.4-31.2,9.6-46.2c6.3-27.3,8.5-54.9,11.5-82.4c1.9-2.6,2.1-5.2-1-6.1c4,0.3,6.2-11.5,0.7-8
	c2.7-3.2,7.5-9.6,2.7-12.8c5.9-20.8,3.8-47,5.6-70.4c-2.8-1.2-4.3-4.1-0.5-5.2c-1.8-40.9-36.2-66.7-66.7-92.8
	c-19.1-10.9-34.9-26.4-54.3-37.6c-2.5-2.8-5.5-7.3-9.8-5.6c-0.5-6.2-12-11-18.4-14.1c-4.3-9.2-19.7-11.7-20.8-19.5
	c-15.5-9.2-25.6-24.8-35.3-39.6c-17.7-34.8-46.2-63.3-71-90.9C532.6,450.5,526.5,436.1,514.5,433.3 M994.1,743.5
	c4.8,32.7,13.7,64.7,19.1,97.3c16.6,83.4,23.7,169.7,41.8,252.3c-17.5-114.5-33-229.4-57.4-342.7
	C996.6,749.4,996.4,742.9,994.1,743.5 M850.1,766c1.1,39.9-2.8,82.6-0.2,120.8C851.4,847.2,854.4,802.4,850.1,766 M1197.5,875.7
	c5.8,6.5,7.6,12.2,13.3,17.7c-1,8.5,16.2,8.7,3.1,13.8c-4.5-5.5-8.2-11.9-14-16.1c20.5,29.9,45.7,56.3,69.2,83.8
	c10,14.6,21.1,28.3,29.2,44.8c9.1,8.2,12.4,24.7,22.6,30c6.2,14.4,8.2,28.4,20.3,39.1c22.6,31.6,43.9,64.2,60.8,99.2
	c37.8,56.3,66.2,120.8,117.9,166.2c-40.5-40.9-68.2-92-99.2-140c-1.6-3.5-2.1-7.8,2.3-9.4c0.4,8.4,9.1,13.2,13,21.1
	c5.2,1.9,3.2,11.9,9.8,9.3c-2,4.7,5.1,12.3,9.4,8c-6.8,10.4,14.4,16.4,15.2,22.6c5.9,3.8,18.6,12.2,21,0.6
	c-1.2-23.8-18.6-43.6-23-66.7c-17.4-44.7-38.5-88.1-53.1-134c-2.3-3.9-2.5-10.5-6.5-12.5c-2-8.7-5-17.2-6.2-26.1
	c1.6-16.1,17.6-25.4,23.8-39.7c9.2-14.1,10.4-31.6,10.4-46.8c5.5-6.2-6-12-10.6-16.1c-8.3-1.3-14.4-2.2-22.2-5.4
	c-1.4,2.3-4.1,3.9-5.2,0.4c-3.1,0.8-7.4,4.8-3.8-0.6c-31.4-0.3-63-6.2-93.3-15.8c-36.3-7.2-70.6-20-104.2-35
	C1186.4,868.1,1199.9,871.1,1197.5,875.7 M1114.1,873.2c8.1,70,6.1,142.4,15.6,210.9c8,71.6,22.6,142.1,31.4,213.5
	c17.7,86.8,27.1,175.1,47.4,261.2c3.1,15.7,6.2,33.6,21.7,42.2c20.1,6.7,42.1,9.3,62.8,4c36.1-4.5,70.3-15.1,104.5-26.6
	c21.2-4.2,39-17.3,60.4-20.6c4.5-4.7-5.5-6-8.7-8.3c-1.4-13.5,13.8-22.9,5.4-36.5c-2-24.3-15.2-43-22.1-65.4
	c-60.4-130.6-134.2-254.7-201.1-381.9c-4.6-7.5-5.9-17-12.4-23.3c-5.4-9.6-4.6-25.2-17.4-29.1c-4.6-2.4-10.8-3.8-12.8-9.2
	c-16-25.8-28-53.9-44.2-79.7C1134,907.8,1125.7,886.8,1114.1,873.2 M848.1,893c-0.7,30.5-5.5,61.1-4.5,91.5
	C845.5,954.4,850.1,921.9,848.1,893 M913.6,980.7c-5.4,28.2-19.3,59.4-19.4,86.4c-2.8,12.6-6.5,24.9-10,37.3
	c-7.5,3.8-1.5,21.4-11.3,25.5c-9.5,8.8-6.5,22.1-11.1,33c-8.9,41.2-19,81.9-30.3,122.5c-28.1,126-64.2,248.7-85.9,375.8
	c-0.3,14.6-6.7,31.3,3.3,44.1c4.5,8.1,3,17.2-4.9,21.6c28.9,6.7,59.9,3,89.5,1.3c21.5-4.3,46.7-8.2,60.8-27
	c13.6-9.5,11.2-28.6,13.8-43.1c1-34.5,5-68.9,4.2-103.1c5.1-21.6-1.6-44,4.2-65.3c-0.8-62.1,4.9-123.3,4-185.4
	c3.1-61.3,7.5-123.3,2.2-184.5c-0.2-49.9-5.8-99.7-3.6-149.7C914.1,969.8,915.4,977.5,913.6,980.7 M840.4,1003.4
	c-14.5,86.8-26.9,174.9-41.8,260.7c15.6-65.2,24-132,35.6-198C836,1045.5,841,1021.4,840.4,1003.4 M1058.2,1116.7
	c2.5,11.1,4.9,22.3,8,33.2C1066.5,1140.5,1062.8,1125.5,1058.2,1116.7 M784.4,1156.8c-8.8,40.3-9,82.9-19,123.5
	c-16.4,87.3-51.4,169.7-73.5,255.4c17.9-50.4,32.8-103.9,49.3-155.6C765.8,1308.1,778.3,1232,784.4,1156.8 M1012.3,1160.9
	c-5.9,66.5,0.5,136.6-3.4,204.2c2,36.9-3.9,73.8-1.9,110.7c-0.1,76.1,3.3,154.5-20.1,228c28.3-71.3,20.8-149.8,23.1-224.8
	C1013.3,1373.2,1013.8,1265.9,1012.3,1160.9 M797.3,1264.9c-1.7,8.1-4.7,17.3-3.5,25.1C794.5,1281.7,799.4,1273,797.3,1264.9
	 M1032,1323.1c-0.2,8.5-0.2,18.5,2.1,25.9C1032.7,1340.8,1034.3,1329.8,1032,1323.1 M780.2,1343.2c-1.2,9.3-6.9,20.1-5.6,28.5
	C777.4,1362.5,781,1351.2,780.2,1343.2 M771.3,1385.1C766.1,1394.7,773.4,1392.6,771.3,1385.1 M1485,1490.2c-0.1,5.3,6.4,6.6,9.8,9
	c29.5,15.7,57,41.7,92.8,38.5C1549.9,1533.8,1517.1,1509.5,1485,1490.2L1485,1490.2z"/>
<path class="st5" d="M64.2,191.7c2.2,9.8,0.3,21.2-0.3,31.6c-0.5-1.8-1.6-3.3-2.9-4.7C62.5,209.8,61.8,200.4,64.2,191.7L64.2,191.7z
	"/>
<path d="M1152.6,232.6c11.6-12.4,20.4-28.2,32.6-39.4c-7.7,13.8-19.6,24.7-27.4,38.5c-38.6,29-84.8,64.2-136.2,48.6
	c-38.1-14.7-64.7-56.2-108.5-55.5c-9.6,14.3-33.7,5.7-41,22.4c12.6-6,29.3-6.1,37.4,7.3c17,18.6,9,47.2,6.5,69.5
	c-11,38.8-31.9,83.3-74.6,94.4c14.1,32.7,29,66.6,33.5,102.7c8.6,5.8,30.1-4.3,34.1,9.1c-40.5-12.9-88.9,7.2-124.9-20.2
	c-28.7-14.4-59.6-24.1-88-39c-7.1-3.6-16.1-5.3-20.1-12.9c-17.7-20.8-35.7-41.3-51.1-63.8c19.7,20.3,36.5,43.6,54.5,65.5
	c38.6,23.9,84.2,33,122.9,56.2c22.3,6.1,45.5,8.2,68.6,7c-4.8-40.8-15.6-84.3-45.2-114.6c-12.5-6-25.7-21.1-20.4-35.8
	c13-10.7,2.4-27.2,13.5-39c-1.1-6.1-8-11.7-6.7-19.2c4-14.6,25.7-8.6,30.2-23.1c4.4-9.8,7.6-22.9,17.1-28.8
	c-8.2,18.1-13.7,43.8-37.3,46.6c-11.9,1.6-5.9,22.5,4.6,19.6c2.1,6.2-7,5.9-7.4,11.1c-0.5,5.7-0.3,13.1,4.7,17c4.5-4.7,10.9,2,7,7.1
	c-4,2.9-7.7-3.4-11.1-4.7c-4.5,7-10.1,13.6-13.7,20.9c7.3,20,32.1,40.2,53.7,27.9c18.6-14.9,35-34.3,42.8-57.1
	c9.6-28,22.2-60.3,7.2-88.7c-9-19.3-33.9-13.8-47.9-4c2.6-10.9,14.9-16.9,15.3-28.5c1.2-8.5,9.7-12.2,16.1-16.2
	c8.9-0.4,14.5,11.1,24,8.3c51.1,1.9,79.7,60.1,131.3,59.3C1088.6,279.1,1121.6,255.1,1152.6,232.6 M893.6,219.5
	c-5.8,1.1-17.5,6.6-11.6,13.5c7.4-3.9,16-3.2,23.8-5.9C903.9,222.4,899.3,216.9,893.6,219.5L893.6,219.5z"/>
<path class="st6" d="M77.4,226.8c2.3-8,5.8-17,10.5-23.7c-1,9.4-6.4,19.3-8.7,27.9C79,229.5,78.7,227.8,77.4,226.8z"/>
<path class="st7" d="M279.3,211.9c7.1-0.4,6.3,6.4,6.1,11.4c3.5,1.7,7-0.4,10-2.2c-2.5,17.8-6.6,37.8-17.2,52.2
	C270.1,254.5,278.4,231.8,279.3,211.9L279.3,211.9z"/>
<path d="M398.2,214.2c5.6-3.8,12.3,1.3,15.6,5.9c4.8,10.6,18,4.6,26.5,8.4c-1,3-2,5.9-3.1,8.8c-8.1,2.6-11.5,10.5-17,16.1
	c-7.6,2.2,7.2-12.7-3.7-7.1c-17.2,5.6-31.8-5.4-46-12.8c-2.1-0.9-7.4-3-6.3,1.2c12.3,3.4,24.6,8.5,33.3,18.2
	c5.7,4.1,22.3-5.2,20.2,6.7c-5.6,0-11.1,0.1-16.6,1.1c-11.3-2.4-16.5-17.7-29-16.3c14.1,10.6,27.2,28.5,47.1,25.4
	c1-9.8,10.6-13.3,19-14.5c3.4-1.1,6.9-0.7,10.2,0.6c-12,3.2-30.3,7-27.2,23.9c9,5.1,10-14,20.9-12.7c7.1,0.5,25.1-5.8,25.9,4.1
	c-13.1-0.1-34-7.2-39.6,10.3c-3.6,7.9-14,0.4-9.5-6.4c-6.4-5.3-18.8-0.3-25.9-7c-7.9-7.1-15.5-15.8-26-19
	c-2.9-6.2-4.2-12.9-10.1-17.3c0.6-7.5,11.9-4.7,17-2.7c8.4,4-2.5-14,7.4-10.5c8.1,2.4,13.6,10.7,22.2,11.9
	C401.6,224.9,393.9,220.6,398.2,214.2 M402.1,218.2c2,12.8,20.4,19.7,30.1,13.6C419.3,233.6,412.2,222.6,402.1,218.2 M380.8,224.3
	c4.2,13.5,20.5,18.8,33.4,17c3.3-1.9,12.2,5.4,10.6-2.1C408.8,238.8,394.1,233,380.8,224.3z"/>
<path class="st8" d="M402.1,218.2c10.1,4.4,17.2,15.4,30.1,13.6C422.6,237.9,404.2,231,402.1,218.2z"/>
<path class="st9" d="M61,218.6c1.3,1.4,2.3,2.9,2.9,4.7c1.5,11.1-2.4,22.6,0.1,33.7c4.6-9.8,8.6-20.3,13.3-30.2
	c1.3,1,1.6,2.6,1.8,4.2c-2,15.1-12,28.1-12.7,43.4c14.9,4.7,31.1,7.7,46.2,12.9c-2.5,7.3-17.3-3.2-23.4,0.9
	c2.4,6.5,13.7,7.5,16.5,14c-13.9-2.8-26.8-13.1-40.9-12.5c-2.8,18.8-3.8,38.1-5.9,57.2c-2.6,5.9-1.6-4.7-2.6-7.1
	c-0.2-1.2-0.2-2.4-0.1-3.5c0.3-4.4,0.8-8.8,0.9-13.3c-0.3-5,0.7-10.3-1.1-15.1c-5.5,8.5-7.4,19.7-13.2,28.4c-1-0.4-2-0.8-2.9-1.1
	c4.2-15.6,9.1-31,15.1-45.9c-14.9-5.8-31.1-9-46.7-13.4c7.1-2.6,16.7-0.7,24.6,0.2c-4-7.3-17.4-9.6-21.3-15.9
	c14.4,2.7,27.7,10.9,42.1,14C58.9,256.5,56.9,236.6,61,218.6L61,218.6z"/>
<path class="st10" d="M893.6,219.5c5.7-2.5,10.3,2.9,12.2,7.6c-7.8,2.7-16.5,2-23.8,5.9C876.1,226.1,887.8,220.5,893.6,219.5
	L893.6,219.5z"/>
<path class="st11" d="M380.9,224.3c13.2,8.7,28,14.5,44,14.9c1.6,7.5-7.2,0.2-10.6,2.1C401.3,243.1,385,237.7,380.9,224.3z"/>
<path class="st12" d="M364.2,234.6c-1.1-4.2,4.2-2.1,6.3-1.2c14.2,7.4,28.8,18.4,46,12.8c10.9-5.6-3.9,9.3,3.7,7.1
	c5.5-5.5,9-13.4,17-16.1c-0.2,1.5-0.4,3.1-0.7,4.6c-4.6-1.6-6.2,4.4-3.9,7.5c0.4,3.1,3,4.7,5.6,5.9c-8.5,1.2-18,4.7-19,14.5
	c-19.9,3.1-33-14.8-47.1-25.4c12.6-1.3,17.7,13.9,29,16.3c5.5-1,11.1-1.1,16.6-1.1c2-11.9-14.5-2.6-20.2-6.7
	C388.8,243.2,376.5,238.1,364.2,234.6L364.2,234.6z"/>
<path class="st13" d="M432.6,249.3c-2.3-3.1-0.7-9.1,3.9-7.5C435.4,244.4,434,246.9,432.6,249.3z"/>
<path class="st14" d="M862.1,258c14-9.8,39-15.2,47.9,4c15,28.4,2.4,60.7-7.2,88.7c-7.8,22.9-24.2,42.2-42.8,57.1
	c-21.6,12.3-46.4-7.8-53.7-27.9c3.6-7.3,9.3-13.9,13.7-20.9c3.4,1.4,7.1,7.7,11.1,4.7c3.8-5.1-2.6-11.8-7-7.1
	c-4.9-3.9-5.1-11.3-4.7-17c0.4-5.2,9.5-4.9,7.4-11.1c-10.5,2.9-16.5-18.1-4.6-19.6c23.6-2.8,29.1-28.5,37.3-46.6
	C860.1,260.9,860.9,259.4,862.1,258 M857.1,281.4c-6.5,0.4-0.2,8.1,3.1,9.1c14.9-3.4,11.8,17.8,20.8,23.5
	C882.6,300.1,872.5,282.8,857.1,281.4 M853.6,291.3c-3.8,1.4-7.2,7.4-1,8c-6.5,7.9,6.5,16.1,13.5,19.6c6.8,0.3-3.1-5.4,0.7-7.8
	c2.7,2.6,3.6,12.7,8.1,6.8C869.2,308.8,864.1,293.9,853.6,291.3L853.6,291.3z"/>
<path class="st15" d="M421.2,279.7c-3.1-16.9,15.1-20.7,27.2-23.9c6.6,1,13.3,2,19.9,3.3c0.9,4.8-0.1,9.7,0.8,14.5
	c-1,0-1.4-0.8-1.1-2.5c-0.8-9.9-18.8-3.7-25.9-4.1C431.3,265.7,430.2,284.8,421.2,279.7z"/>
<path class="st16" d="M943.2,275.2c20.9,7.5,41,17.4,60.5,28.1c9.6,7.6,22.1,3.1,33.2,2.8c26-7.9,52.6-13.3,78.9-20.5
	c8.1-3.7,7.3,3.2,6.2,8.4c-4.1,9.9-12.2,18.5-19.5,26.1c-25.5,15.4-48.9,34.5-75.8,47.7c-22.9,10.6-45.2,22.4-67.9,33.3
	c-14.6,2-31.4,1.4-43.8-7.3c-1-18.4,9.1-36.1,11.1-54.6C932.3,318.1,932.4,294.4,943.2,275.2 M943.1,287.3
	c-7.5,33.1-18.3,65.8-24,99.3c12.8,10.2,34,12.3,47.8,2.2c47.8-19.3,95-41.5,137-72c-0.3-0.5-0.8-1.4-1.1-1.9
	c3.9-2.6,7.5-6.1,10.1-10c4-3.2,11.4-14.1,6.1-18.8c-40.1,14.2-84.8,38.6-127.7,19.8c-11.9-8.3-25.3-13.9-38.4-19.8
	C949.8,284.4,944.1,282.1,943.1,287.3z"/>
<path class="st17" d="M487.7,311.9c3.3-10.9,2.4-24.3,5.1-33.9c4.8,9.7,3,24.6,6.1,35.8c-1.6,2.1-2,5.6-4.2,6.9
	C491.3,319.6,492.5,306.2,487.7,311.9L487.7,311.9z"/>
<path class="st18" d="M476,287.1c-0.5-8.2,7.2-6.1,4.2,1.1C478.8,286.7,476.5,283.1,476,287.1z"/>
<path d="M857.1,281.4c15.4,1.4,25.5,18.6,23.9,32.6c-9-5.8-5.9-26.9-20.8-23.5C856.9,289.5,850.6,281.8,857.1,281.4z"/>
<path class="st16" d="M1036.9,306c26.5-12.8,55.7-20,85-23.1c5.5,0,2.6,9.3,0.1,11c1.1-5.2,1.9-12.1-6.2-8.4
	C1089.5,292.7,1062.9,298.1,1036.9,306L1036.9,306z"/>
<path class="st16" d="M943.1,287.3c0.9-5.2,6.7-2.8,9.7-1.1c13.2,5.9,26.5,11.5,38.4,19.8c42.9,18.8,87.6-5.6,127.7-19.8
	c5.3,4.6-2.1,15.6-6.1,18.8c0.5-5.2,9.1-13.5,4.5-16.4c-33.3,14.9-66.8,32.8-104,34.2c-22.9,0.7-35.5-22.3-55.2-29.9
	c-4.2-1.2-12.2-7.2-13.3,0.2c-7,29.3-15.3,58.9-19.6,88.4c10.7,9.3,29.7,9.8,41.4,1.2c47-18.9,94.9-38,136.2-67.7
	c0.3,0.5,0.8,1.4,1.1,1.9c-42,30.5-89.2,52.7-137,72c-13.7,10.1-35,8-47.8-2.2C924.8,353,935.7,320.4,943.1,287.3L943.1,287.3z"/>
<path d="M476,287.1c0.5-4,2.8-0.4,4.2,1.1c2.2,5.7,4.1,11.6,4.9,17.7c-4.2-3.7-4-11.9-9.3-15.4C475.9,289.3,475.9,288.2,476,287.1z"
	/>
<path class="st16" d="M1013.4,322.7c37.2-1.4,70.7-19.3,104-34.2c4.6,2.9-4,11.2-4.5,16.4c-2.6,4-6.2,7.4-10.1,10
	c-41.3,29.7-89.2,48.8-136.2,67.7c-11.8,8.6-30.7,8.1-41.4-1.2c4.3-29.5,12.6-59.1,19.6-88.4c1.2-7.4,9.2-1.4,13.3-0.2
	C977.9,300.4,990.5,323.4,1013.4,322.7L1013.4,322.7z"/>
<path class="st19" d="M518.5,290.1c2.1,1.4,4.5,2.3,6.7,3.4c0,1.2,0,2.4,0,3.6c-2.2-1.1-4.5-2.2-6.6-3.5
	C518.6,292.4,518.6,291.2,518.5,290.1L518.5,290.1z"/>
<path d="M853.7,291.3c10.5,2.6,15.5,17.5,21.2,26.6c-4.5,5.9-5.4-4.2-8.1-6.8c-3.7,2.4,6.1,8.1-0.7,7.8c-7-3.5-20-11.8-13.5-19.6
	C846.5,298.7,849.9,292.7,853.7,291.3L853.7,291.3z"/>
<path d="M505.8,307.3c-0.6-8.5,2.5-18.2,3.6-3.8C508.2,304.8,507,306,505.8,307.3z"/>
<path class="st20" d="M535.6,303c3.9,1.5,7.7,3.1,11.5,4.9c0.5,1.7,1.1,3.3,1.8,4.9c-4.6-2.7-9-5.8-13.3-9L535.6,303z"/>
<path class="st21" d="M487.7,311.9c4.8-5.8,3.5,7.6,7.1,8.7c2.2-1.3,2.6-4.8,4.2-6.9c0.3,1.6,0.7,3.2,1,4.9
	c-4.9,12.3-9.4,24.7-8.6,38.3c-16.9,64.4-28.4,129.9-40.1,195.3c-9.2,35.9-6,72.5-0.2,108.5c-15.6-50.6-3.8-106.7,6.5-158.2
	c9.2-49.2,19.4-98.6,31.6-147.4C487.4,340.5,498.7,325.3,487.7,311.9L487.7,311.9z"/>
<path d="M552,314.1c27.7,18.7,46.9,47,66.8,73.1c-22.1-24.3-44-48.7-66.8-72.3V314.1L552,314.1z"/>
<path class="st16" d="M1026.7,367.7c26.9-13.2,50.3-32.3,75.8-47.7c-42.3,36.4-94.5,60.4-144.3,85.5c-15.6,2.1-35.2,3.1-46.6-9.3
	c1.4-19.2,8-39.7,14.6-57c-2.1,18.4-12.2,36.1-11.1,54.6c12.4,8.6,29.2,9.2,43.8,7.3C981.5,390.1,1003.8,378.2,1026.7,367.7
	L1026.7,367.7z"/>
<path class="st22" d="M56.2,336.2c1-3.7-2.4-11,0.9-13.3C57.1,327.4,56.5,331.8,56.2,336.2z"/>
<path d="M1016.9,399.8c27.1-28.3,62.1-46.2,92.9-70C1081.3,355.8,1047.2,376.1,1016.9,399.8z"/>
<path class="st23" d="M34,356.7c1.2-7.3,3.2-15.2,5.9-21.7c1,0.4,2,0.8,2.9,1.1C40.8,342.6,38.9,352.6,34,356.7z"/>
<path class="st24" d="M56,371.5c-0.1-9.7-1.6-24.6,0.3-31.8c1,2.5,0,13,2.6,7.1C58,355.1,58.6,364.8,56,371.5z"/>
<path class="st25" d="M210.3,345c-0.6,23.1-0.4,50.3-2.6,74.9c0.1,2.2-3,17.2,1.3,11.2c12.3-23,19.4-49.3,33.1-71.1
	c-9.2,30.5-21.7,60.1-30.1,90.8c23.8,8.2,49.5,11.5,73.3,19.2c-16.2,0.4-32.9-1.5-49.2-2.8c13.1,11.2,31.2,16.2,43.9,28
	c-23.4-7.9-45.7-19.3-69.6-25.1c-3.4,35.4-9.5,70.4-11.5,105.9c-3.5-26.9,0.3-56,0.2-83.6c-14.4,23.5-23.4,52.4-36,77.9
	c6.9-33.2,24-67,32.3-99.7c-20.8-6-42.6-9.6-63.4-15.5c-5-2-1.4-2.4,3.3-2.1c11.9,0.2,24.8,2.1,35.9,1.5c-13.6-10.3-31.8-16-44-27.4
	c23.4,8.3,46.3,18,69.9,26C201.3,417,204.3,380.6,210.3,345L210.3,345z"/>
<path class="st16" d="M575,402.6c-7.1-17,17.1-19.6,26.5-10c21,7.4,36.8,25.4,47.7,44.3c-15.5-15.3-33.2-29.6-55.1-33.6
	c-12.7,3.3-4.4,18.1,2.6,22.9c6.8,11.5,17,20.4,26.1,30c25,25.7,45.8,56.8,76,77c44.2,20.3,90.3,37,138.2,46.3
	c17,3.3,36.2-2.7,46.8-16.7c-3.8-13-20.9-14.1-31.5-17.9c-17-8-35.7-11.8-53-19c28,6.8,57,11,83.7,22.3c9.1,2.3,22.1,5.9,18.2,18.4
	c-4.8,14.4-20.5,18.3-31.9,25.8c-34,5.2-66.9-8-98.7-17.9c-29.3-11.6-59.3-22.3-86.6-38.5C645.4,493.8,607.9,449.6,575,402.6
	L575,402.6z"/>
<path class="st16" d="M594,403.3c21.9,4,39.6,18.3,55.1,33.6c19,21.5,32,55,63.9,59c28.5,10.5,57.5,20,86.1,30c17.3,7.3,36,11,53,19
	c10.6,3.8,27.7,4.9,31.5,17.9c-10.5,14-29.8,20-46.8,16.7c-47.9-9.3-94-26-138.2-46.3c-30.2-20.2-51-51.3-76-77
	c27.7,21.4,49.8,49.5,78.7,69.4c38.3,17.6,79.2,30.6,120.4,39.6c15.3,2.8,33.6,6.5,46-5.5c3-2.2-1.2-4.5-3.2-5.4
	c-56.3-20.1-111-44.8-168.8-61.1c-30.3-18.7-41-61.7-77-73c-7.2-4.9-24-6.4-22.2,6C589.6,421.5,581.3,406.6,594,403.3L594,403.3z"/>
<path class="st4" d="M548.8,414.2c38.6,41.2,74.3,86.7,99.1,137.9c36,40.9,91.5,58.5,126.9,100.2c21.2,9.7,38.1,26.5,52.2,44.8
	c27.3,35.3,50.6,74.7,65,117c-25.8-50.3-49-106.8-95-143.1c-37.2-22.6-65.2-58.3-105-77c-35.7-18-57.7-53.6-74.4-88.6
	C594.3,475.3,571.5,444.7,548.8,414.2z"/>
<path class="st16" d="M596.7,426.2c-1.9-12.4,15-10.9,22.2-6c36,11.3,46.7,54.3,77,73c57.8,16.3,112.5,41,168.8,61.1
	c1.9,0.9,6.2,3.2,3.2,5.4c-12.4,12-30.7,8.3-46,5.5c-41.2-9-82.1-22-120.4-39.6c-28.9-19.9-51-48-78.7-69.4
	C613.7,446.6,603.5,437.7,596.7,426.2L596.7,426.2z"/>
<path d="M912.2,453.2c29.8-7,58.5-18.6,83.3-36.6c-14.1,20.5-42.5,22.9-61.6,36.4c-9.8,22.1-5.8,50.2,3,72.1
	c12.3,9.8,25.2,19.8,33.2,33.8c21,37.9,45.5,74.1,74.7,106.3c38.2,46,65,102.6,113.7,139.3c39.3,25,79.7,48.2,119.6,72.4
	c26,17.1,59.8,15.8,89,8.4c25.7-7.4,48.8-21.1,73-32.1c10.5-3.8,25-7.6,33.6,2.1c21.1,24.2,16.4,62.2,4,88.5
	c7.2-24.5,12.2-50.9,2.1-75.7c-4.2-11.5-16.6-21-29.1-15.5c-23.8,7.4-44,23.8-68.5,29.6c-39.9,18.1-89.5,13-124-14.4
	c-51.2-31.7-107.9-56.9-150.2-100.9c-17.9-39.3-43.2-74.7-72.9-106c-28.7-36.7-56.8-74-81.4-113.5c-10.5-9.3-20.3-19.6-31.7-28
	c0.1-21.1-2.3-43.4,5.8-63.5c-8.2,2.2-14.9,8.5-22.7,11c-0.6-5,5.4-6.7,8.7-9.1C910.3,457.2,906.9,454.3,912.2,453.2L912.2,453.2z"
	/>
<path class="st26" d="M209,431.1c-4.3,6-1.2-9-1.3-11.2C208.1,423.6,208.6,427.3,209,431.1z"/>
<path class="st4" d="M514.5,433.3c12,2.8,18.1,17.2,29,23.3c24.9,27.6,53.3,56.1,71,90.9c9.7,14.8,19.8,30.5,35.3,39.6
	c1.1,7.8,16.5,10.2,20.8,19.5c6.3,3.1,17.9,8,18.4,14.1c4.3-1.7,7.3,2.8,9.8,5.6c19.4,11.2,35.2,26.6,54.3,37.6
	c30.6,26.1,65,51.9,66.7,92.8c-3.8,1.1-2.3,3.9,0.5,5.2c-1.9,23.4,0.2,49.6-5.6,70.4c4.8,3.2-0.1,9.6-2.7,12.8
	c5.5-3.5,3.3,8.3-0.7,8c3.1,0.9,3,3.5,1,6.1c-3.1,27.5-5.2,55.1-11.5,82.4c-5.2,15,0.1,34-9.6,46.2c7.3-1.9-3.8,2.9,2.5,3.8
	c-6.2,24.7-10.2,50.7-15.5,75.3c1.9,2.5-1.4,13.3-6.9,18.1c11.8-3.6-3.8,13.5,1.3,14.9c0.7,13-10.4,24-7.7,36.1
	c-5.1,12.5-4.3,26.7-11,38.5c8.3-1.6-0.8,6.4-0.3,10.3c-3.7,22.4-9.5,47.3-14,69.8c-7.4,38.5-10.6,78.3-19.1,116.5
	c-2.1,24.4-11.4,47.7-13.6,70.8c-5.6,0.3-0.3,8.2-2.9,11.9c-12.6,38-13.9,76.6-43.7,107.3c-16.5,6.9-26.2-8.7-40.2-16.3
	c-28.2-15.6-35.8-48.7-30.3-77.9c2.8-1.7,2.8-3.9-0.7-2.2c3.1-9.3,4.2-18.9,3.4-28.7c14.8-53.8,27-111,22-163.9
	c-8,2.1-1.9-2.8-2.6-5.6c-4.3-28.4-9.7-50.3-19.4-76.2c-13.2-34.7-29.8-65.8-39-100.9c-8.2-9.7-7.2-28.6-13.9-38.3
	c0-21.6-11.8-42.6-7.8-64.3c-7.4-3.5-0.6-16.1-6.9-23.8c-6.8-66.6-16.4-133.7-19.2-198.1c0.4-3.8-5.1-9.4,0.1-15.7
	c-8.3-5.4,0.7-17.9-5.5-19.3c1.4-23.8-4.2-51.5-4.3-76.3c0.3-12-3.9-33.7-2.5-50.1c-5.4-16-0.8-43.6-5.8-62
	c7.1-14.8-4.2-37.7,6.8-48.8c-5.2-6.3,0.9-15.2,2.7-21c8.2-1.1-4.9-3.9,3.9-6.1c-4.1-8.5,8.7-12,6.4-20.3
	C512.5,443,510.9,436.5,514.5,433.3 M567.3,512.2c-36.2,51.2-10.3,115.8-11.5,176.1c6.4,36.8,8.6,78.6,15.8,120.5
	c3.1,37.9,12.5,76,15.8,114.4c5.6,8.8,4.6,23.8,8.4,35c10.4,29.6,21.7,60.6,35.7,88.8c8.4,22.6,19.8,55.1,23,81.1
	c6.7,49.6-13.9,96.2-15.3,145.1c2,13,3.4,28.7,12.7,35.8c13.7,8.7,29.2,30.8,46.3,18.3c6.5-6.7,8.2-19.5,14.3-25.1
	c-6.3-5,5.2-14.9,4-22.5c6-20.2,11.1-41.1,12.2-62.5c9.8-37.6,10.2-76.7,18.7-113.8c3.6-35.6,14.9-69.3,17.8-105
	c15.5-84.1,30.5-170.1,28-256.3c0.9-13.3-14.5-30.1-21.4-37.6c-17-15.5-37.1-31.8-57.7-44.6c-24.9-19.6-55.2-33.3-72-62
	C622.6,565.2,594.5,535.8,567.3,512.2L567.3,512.2z"/>
<path class="st27" d="M131.9,455c-15.3,0.1-6.8-6.4,3.3-2.1C130.6,452.6,126.9,453.1,131.9,455z"/>
<path class="st4" d="M567.3,512.2c27.2,23.6,55.3,53,74.7,85.7c16.8,28.8,47.1,42.5,72,62c20.7,12.8,40.7,29.1,57.7,44.6
	c6.9,7.5,22.4,24.3,21.4,37.6c2.5,86.2-12.5,172.2-28,256.3c-2.8,35.7-14.2,69.4-17.8,105c-8.4,37.1-8.8,76.2-18.7,113.8
	c-1.1,21.4-6.2,42.3-12.2,62.5c1.2,7.6-10.3,17.5-4,22.5c-6.1,5.6-7.8,18.4-14.3,25.1c-17.1,12.5-32.6-9.6-46.3-18.3
	c-9.4-7.1-10.8-22.8-12.7-35.8c1.4-48.9,22-95.5,15.3-145.1c-3.2-26-14.6-58.5-23-81.1c-14.1-28.2-25.3-59.3-35.7-88.8
	c-3.8-11.2-2.7-26.2-8.4-35c-3.4-38.5-12.7-76.6-15.8-114.4c-7.2-41.8-9.3-83.7-15.8-120.5C557.1,628,531.1,563.4,567.3,512.2
	L567.3,512.2z"/>
<path d="M453.2,673.8c7.2,29,9.6,59.8,3.8,89.2c-3.8,48.3-3.6,96.8-0.3,145.2c3.3,18.1,3.8,37,12.6,53.5
	c13.9,49.4,4.6,101.4,8.9,151.9c-12.1-42.2,4.5-92.4-9.4-136.4C456.2,934.5,451,889.7,451,845C448.6,787.8,463,730.8,453.2,673.8
	L453.2,673.8z"/>
<path class="st4" d="M994.1,743.5c2.3-0.7,2.5,5.9,3.5,7c24.4,113.3,39.9,228.2,57.4,342.7c-18.1-82.6-25.2-168.9-41.8-252.3
	C1007.8,808.2,998.9,776.2,994.1,743.5z"/>
<path class="st4" d="M850,766c4.4,36.4,1.3,81.2-0.2,120.8C847.3,848.6,851.2,805.9,850,766z"/>
<path class="st4" d="M1197.5,875.7c2.4-4.6-11.1-7.5,0-7.5c33.6,14.9,67.9,27.8,104.2,35c30.3,9.5,61.9,15.5,93.3,15.8
	c-3.6,5.4,0.7,1.4,3.8,0.6c1.1,3.5,3.8,1.9,5.2-0.4c7.8,3.3,13.9,4.2,22.2,5.4c4.6,4.1,16.1,9.9,10.6,16.1
	c0,15.2-1.2,32.7-10.4,46.8c-6.2,14.3-22.2,23.6-23.8,39.7c-9.6-26.2,31.1-39,15.3-64.9c-14.3-16.5-38-19.5-56.4-29.8
	c-26.6-8.5-52.1-20.1-79.4-25.6c-16.9-3.8-31.3-14.4-48-18.9c11.6,17.6,26.3,34.3,41.8,49.1c27.4,30.8,51.1,64.8,76.3,97.6
	c2.1,2.2,1.2,4.5-1.3,5.6c-52.1-37.1-97.2-83.3-137-133.1c13.1-5.1-4.1-5.4-3.1-13.8C1205.1,887.8,1203.3,882.2,1197.5,875.7
	L1197.5,875.7z"/>
<path class="st4" d="M1114.1,873.2c11.6,13.7,19.9,34.7,30.5,51.2c16.2,25.7,28.2,53.9,44.2,79.7c2,5.4,8.2,6.8,12.8,9.2
	c12.8,3.9,12,19.5,17.4,29.1c6.5,6.3,7.8,15.8,12.4,23.3c66.9,127.2,140.7,251.3,201.1,381.9c6.9,22.4,20.1,41.1,22.1,65.4
	c8.4,13.6-6.8,23-5.4,36.5c3.2,2.3,13.2,3.6,8.7,8.3c-21.4,3.3-39.2,16.4-60.4,20.6c-34.2,11.5-68.4,22.1-104.5,26.6
	c-20.7,5.3-42.7,2.7-62.8-4c-15.5-8.6-18.6-26.5-21.7-42.2c-20.3-86.1-29.7-174.4-47.4-261.2c-8.8-71.4-23.4-141.9-31.4-213.5
	C1120.2,1015.6,1122.2,943.2,1114.1,873.2 M1135.4,916.8c7.4,60.2,9.2,121.4,16.4,181.9c22.5,140.9,47.6,281.7,75.8,421.7
	c6.8,18,5.5,39.2,18.6,54.4c15,12.7,37.2,13,55.6,11c49.3-5.8,96.4-23.8,143.1-40c4.1-4.9-4.2-4.6-7.1-6.4
	c-3.7-5.9,0.6-13.4,4.7-18.2c2.1-20.5-9.1-38.9-14.5-58.2c-61.3-142.8-145.1-274.7-209.3-415.7c-20.6-4.4-21.4-28.5-32.8-42.2
	c-2.8-6.3-6.4-12.2-9.9-18.2C1164.2,962.8,1151.8,937.8,1135.4,916.8L1135.4,916.8z"/>
<path class="st21" d="M1168.7,886.2c-2.2-6.4,4.3,0.6,4.5,3.7c28.4,46.2,54.2,94.1,85.7,138.2c38.5,55.5,81.3,108.4,112.4,168.6
	c39.9,62.8,82.2,124.1,125.2,184.8c22.9,29.4,60.4,54.8,98.2,49c-15.2-25-34.4-56.6-20.8-86.6c-11.3,32.3,9.4,62.4,24.9,88.9
	c20.7-3,46.4,17,36,38.9c-2.1,15.2-21.8,11.1-28.6,22.5c-4.7,7.6-9.8,16-9,25.3c6,9.7,24.2,6.6,27.2,19.2
	c-0.3,2.9,4.1,12.4-1.3,11.9c-0.2-6.2-0.8-13.7-6.3-17.6c-7.6-3.8-19.1-3.4-22.8-12.6c1.5-10.8,2.2-22.9,10.5-30.9
	c9.6-10.6,29.4-10.8,30.8-27.9c-1.5-15.1-16.3-26-31.4-25.3c1.6,5.4,5.9,9.5,8.3,14.6c-8.6-2.6-9.8-16.3-19.6-14.8
	c-41.2,2.1-78.4-23.9-101.5-56.2c-32.2-46.9-64.1-93.9-96.2-140.8c-30.5-47.8-57-98.3-91.8-143.2c-12.6-15.7-23-32.9-35.1-48.9
	C1229.2,997.1,1199.6,941,1168.7,886.2L1168.7,886.2z"/>
<path class="st4" d="M1234.1,888c16.7,4.5,31.1,15.1,48,18.9c27.3,5.4,52.8,17.1,79.4,25.6c18.4,10.2,42.1,13.2,56.4,29.8
	c15.8,25.9-24.9,38.7-15.3,64.9c1.2,8.9,4.2,17.4,6.2,26.1c5.3,19.8,15.9,38.6,17.9,59.2c-18.6,1.3-24.5-21.7-38.1-30
	c-8.3-11.5-18.1-22.4-29.7-31.3c16.7,10.3,33.2,21.8,52.1,28c-20.2-12.2-41.6-23.4-60.1-38.8c2.5-1.1,3.4-3.4,1.3-5.6
	c-25.2-32.8-48.9-66.8-76.3-97.6C1260.4,922.3,1245.7,905.6,1234.1,888L1234.1,888z"/>
<path class="st4" d="M1199.9,891.1c5.8,4.2,9.5,10.6,14,16.1c39.8,49.9,84.9,96,137,133.1c18.5,15.4,39.9,26.6,60.1,38.8
	c-18.9-6.2-35.4-17.7-52.1-28c-30-25.4-62-48.4-89.8-76.2C1245.6,947.4,1220.4,921,1199.9,891.1L1199.9,891.1z"/>
<path class="st4" d="M848.1,893c2,28.9-2.7,61.3-4.5,91.5C842.6,954.1,847.5,923.6,848.1,893z"/>
<path class="st16" d="M1135.4,916.8c16.4,21,28.8,46,40.6,70.1c-9.2-9.6-10.9-29.2-22.7-34.5c7.6,46,10.8,92.7,16,139
	c26.2,146.8,54.7,293.6,89.5,438.7c3.1,14.7,11.1,31.4,27.1,35c50.5,9.9,99.9-11.4,146.1-29.2c6.5-3.1,0.8-7.6-3.8-8.2
	c-6.9-6.7,5-13.3,2.6-20.9c-3.7-30-18.9-57.1-29.6-85c-20.7-39.5-36.9-81.3-59.1-120c-38.3-74.5-78.5-148.5-112.9-225
	c-5.8-4.3-13.6-6.6-15.8-14.4c-7.8-19.8-20.8-37.2-27.5-57.4c11.4,13.7,12.2,37.8,32.8,42.2c64.2,141,148,272.9,209.3,415.7
	c5.4,19.3,16.6,37.7,14.5,58.2c-4.1,4.8-8.4,12.3-4.7,18.2c2.9,1.8,11.2,1.5,7.1,6.4c-46.7,16.2-93.8,34.2-143.1,40
	c-18.4,2-40.6,1.7-55.6-11c-13.1-15.2-11.8-36.4-18.6-54.4c-28.2-140-53.3-280.8-75.8-421.7C1144.6,1038.2,1142.8,977,1135.4,916.8
	L1135.4,916.8z"/>
<path class="st28" d="M1470.7,960.8c1.1-4.2,3-8.1,5.2-11.8C1474.6,952.8,1474.3,958.4,1470.7,960.8z"/>
<path class="st16" d="M1153.3,952.5c11.8,5.2,13.5,24.8,22.7,34.5c3.5,5.9,7.1,11.9,9.9,18.2c6.7,20.2,19.7,37.6,27.5,57.4
	c2.2,7.8,10,10.1,15.8,14.4c34.4,76.5,74.6,150.5,112.9,225c22.2,38.7,38.4,80.5,59.1,120c10.7,27.9,25.9,55,29.6,85
	c2.4,7.6-9.5,14.2-2.6,20.9c4.6,0.6,10.3,5.1,3.8,8.2c-46.2,17.8-95.6,39.1-146.1,29.2c-16-3.6-24-20.3-27.1-35
	c-34.8-145.1-63.3-291.9-89.5-438.7C1164.1,1045.2,1160.9,998.4,1153.3,952.5 M1179.8,1012.2c5.4,16.2,4.2,34,8.6,50.4
	c7.7,70.3,24.3,136.4,39.3,204.7c10.5,39.5,16.5,83.6,29.3,119.5c3,28.5,12.4,57.6,19.2,86c5.2,21.3,8.4,43.8,20.1,62.8
	c15,11.6,36.6,13.5,54.1,6.6c23.8-1.2,45.3-11,67.4-19.5c0.8-4.5-7.1-5.2-5.8-10.4c9-19.3-5-37.8-10.2-56
	c-47.7-112.6-104.6-219.7-155.9-330.8c-3.9-8.7-5.8-19.3-15.9-22.6c-2.2-3.9-4-8-6-12c-9.8-30-28.8-57.8-43-84.8
	C1178.9,1006.6,1178.4,1010.4,1179.8,1012.2L1179.8,1012.2z"/>
<path class="st4" d="M913.6,980.7c1.7-3.2,0.5-10.9,5.4-10.6c-2.2,50,3.3,99.8,3.6,149.7c5.3,61.2,0.9,123.2-2.2,184.5
	c0.9,62.1-4.8,123.3-4,185.4c-5.8,21.3,0.8,43.7-4.2,65.3c0.8,34.2-3.2,68.6-4.2,103.1c-2.6,14.5-0.2,33.6-13.8,43.1
	c-14.1,18.8-39.2,22.7-60.8,27c-29.6,1.7-60.5,5.4-89.5-1.3c7.9-4.4,9.3-13.5,4.9-21.6c-10-12.8-3.7-29.5-3.3-44.1
	c21.8-127.1,57.8-249.8,85.9-375.8c11.3-40.6,21.4-81.3,30.3-122.5c4.7-10.9,1.7-24.2,11.1-33c9.8-4.1,3.8-21.7,11.3-25.5
	c-1.5,17.5-8.1,34.1-11.3,51.3c-6.5,7.3-11.6,16-12,26.1c-33.3,151.8-75.6,301.6-103.5,454.5c-3.6,20.7-7.8,43.3,0.2,63.3
	c2.8,5.9-3.6,8.4-4.5,13c36.9,3,77.2,6.5,111.3-11.4c18.1-9.5,25.7-31.1,25.7-50.5c6.7-108.1,11.6-216.5,15.8-324.8
	c1.7-68.6,6-137.7,2.7-206.4c1.2-34.1-3.8-68.2-0.3-102.2c-7.2,12.7-8.5,29.5-13.3,43.9c-0.2,1.5-0.6,4.4-0.8,5.9
	C894.4,1040.1,908.2,1008.9,913.6,980.7L913.6,980.7z"/>
<path class="st4" d="M1269.1,974.9c27.8,27.8,59.8,50.8,89.8,76.2c11.6,8.9,21.4,19.8,29.7,31.3c13.6,8.3,19.5,31.3,38.1,30
	c-2-20.6-12.6-39.4-17.9-59.2c4,2,4.2,8.6,6.5,12.5c14.6,45.9,35.7,89.3,53.1,134c4.4,23.1,21.8,42.9,23,66.7
	c-2.4,11.6-15.1,3.2-21-0.6c-0.8-6.2-22-12.2-15.2-22.6c-4.3,4.3-11.4-3.3-9.4-8c-6.6,2.6-4.6-7.4-9.8-9.3
	c-3.9-7.9-12.6-12.7-13-21.1c-4.4,1.6-3.9,5.9-2.3,9.4c-28.4-43.8-48.4-93.3-82.9-133c-6.3-5.4,1.8,4.9,3.4,7.6
	c-12.1-10.7-14.1-24.7-20.3-39.1c-10.2-5.3-13.5-21.8-22.6-30C1290.2,1003.2,1279.1,989.5,1269.1,974.9L1269.1,974.9z"/>
<path class="st4" d="M840.4,1003.4c0.6,18-4.4,42.1-6.2,62.7c-11.6,66-20,132.8-35.6,198C813.5,1178.3,825.9,1090.2,840.4,1003.4
	L840.4,1003.4z"/>
<path class="st16" d="M1179.8,1012.2c-1.4-1.8-0.9-5.6,1.2-6.1c14.2,27,33.2,54.8,43,84.8c-8.9-16.5-16.9-33.4-24.2-50.7
	c-0.4-3-6.8-3.3-2.4,2.2c9.5,40.2,13.3,81.7,24.9,121.3c3,26.8,14.5,51.5,17.8,78.1c25.9,88.7,45.2,179.4,73.9,267.1
	c7.6,17.9,29.3,23.9,46.8,18.7c16.7-1,32.1-8,46.9-15c3.2-4-3.9-6.5-5.5-9.8c5.3-25.5-12.8-50.1-18.6-72.2
	c-41.8-96.3-89.2-191.8-131.3-288.9c-9.2-11.9-16.1-25.1-22.3-38.8c10.1,3.3,12,13.9,15.9,22.6c51.3,111.1,108.2,218.2,155.9,330.8
	c5.2,18.2,19.2,36.7,10.2,56c-1.3,5.2,6.6,5.9,5.8,10.4c-22.1,8.5-43.6,18.3-67.4,19.5c-17.5,6.9-39.1,5-54.1-6.6
	c-11.7-19-14.9-41.5-20.1-62.8c-6.8-28.4-16.2-57.5-19.2-86c-12.8-35.9-18.8-80-29.3-119.5c-15-68.3-31.6-134.4-39.3-204.7
	C1184,1046.2,1185.2,1028.4,1179.8,1012.2L1179.8,1012.2z"/>
<path class="st29" d="M1443.7,1017.8c0.8-2.9,2.3-5.6,4.2-7.9C1447.2,1012.7,1446.9,1016.7,1443.7,1017.8z"/>
<path class="st16" d="M895,1061.2c4.8-14.4,6-31.2,13.3-43.9c-3.5,34,1.5,68.1,0.3,102.2c3.2,68.7-1,137.8-2.7,206.4
	c-4.2,108.3-9.1,216.7-15.8,324.8c0,19.4-7.6,41-25.7,50.5c-34.1,17.9-74.3,14.4-111.3,11.4c0.9-4.6,7.3-7.1,4.5-13
	c-7.9-20-3.8-42.6-0.2-63.3c27.9-152.9,70.2-302.7,103.5-454.5c0.4-10.1,5.5-18.8,12-26.1c-3.5,15.6-5.1,32.1-14.7,45.6
	c-26.4,117.5-54.7,234.6-80.6,352.2c-5.3,40.7-19.4,80.8-17.5,122c5.8,7.7,3.5,15.4-2.1,22.4c17.8,5.3,38.3,3.4,57,2
	c25.2-0.5,51.3-17,57.1-42.5c8.2-115.6,16.2-231.4,21.1-347.4c6.4-78.4,3.1-157.2,5.3-235.7C899.6,1070.8,901.4,1049.5,895,1061.2
	L895,1061.2z"/>
<path class="st30" d="M1433.8,1037.8c1.7-4.9,4.2-9.5,7.1-13.9C1439.2,1028.5,1438.9,1035.6,1433.8,1037.8z"/>
<path class="st16" d="M1197.4,1042.4c-4.4-5.5,2-5.2,2.4-2.2c7.3,17.3,15.3,34.2,24.2,50.7c2,4,3.8,8.1,6,12
	c6.2,13.7,13.1,26.9,22.3,38.8c42.1,97.1,89.5,192.6,131.3,288.9c5.8,22.1,23.9,46.7,18.6,72.2c1.6,3.3,8.7,5.8,5.5,9.8
	c-14.8,7-30.2,14-46.9,15c-17.5,5.2-39.2-0.8-46.8-18.7c-28.7-87.7-48-178.4-73.9-267.1c-3.3-26.6-14.8-51.3-17.8-78.1
	C1210.7,1124.1,1206.9,1082.6,1197.4,1042.4L1197.4,1042.4z"/>
<path class="st16" d="M895,1061.2c6.5-11.7,4.6,9.6,3.4,13.1c-2.2,78.5,1.1,157.3-5.3,235.7c-4.9,116-12.8,231.8-21.1,347.4
	c-5.8,25.5-31.9,42-57.1,42.5c-18.7,1.4-39.2,3.3-57-2c5.6-7,7.9-14.7,2.1-22.4c-1.8-41.2,12.3-81.3,17.5-122
	c26-117.6,54.2-234.7,80.6-352.2c9.5-13.5,11.2-30,14.7-45.6c3.3-17.2,9.8-33.8,11.3-51.3c3.6-12.4,7.3-24.7,10-37.3
	C894.4,1065.6,894.8,1062.7,895,1061.2 M886.3,1108.2c-13.2,44.4-18.4,91.8-34.7,135.5c-7.2,37.7-15.7,75.2-24.3,112.7
	c-19.9,99.8-46.9,198.2-59.9,299.2c-1.6,7.8,7,15,1.5,22.3c-2,2.5-3.4,11.7,1.8,7.6c26.6,3.2,58.8,3.1,77-19.9
	c11.9-28.6,10.6-60.2,13.4-90.5c5.8-76.1,11.5-152.1,16.4-228.5c9.2-77.2,5.3-156.4,9.9-234.6
	C887.2,1110.6,888.9,1107.6,886.3,1108.2L886.3,1108.2z"/>
<path class="st21" d="M1430.8,1059.2c9.4,19.4,24.2,38.6,32,60C1450.2,1100.5,1436.7,1081,1430.8,1059.2z"/>
<path class="st4" d="M1341.2,1088.8c-1.6-2.7-9.7-13-3.4-7.6c34.5,39.7,54.5,89.2,82.9,133c31,48,58.7,99.1,99.2,140
	c-51.7-45.4-80.1-109.9-117.9-166.2C1385.1,1153,1363.8,1120.4,1341.2,1088.8L1341.2,1088.8z"/>
<path class="st16" d="M886.3,1108.2c2.6-0.6,0.8,2.4,1.1,3.8c-4.6,78.2-0.7,157.4-9.9,234.6c-4.9,76.4-10.7,152.4-16.4,228.5
	c-2.7,30.3-1.4,61.9-13.4,90.5c-18.3,23-50.4,23.1-77,19.9c-5.2,4.1-3.8-5.1-1.8-7.6c5.5-7.3-3-14.5-1.5-22.3
	c13-101,40-199.4,59.9-299.2c8.6-37.5,17.1-75,24.3-112.7C867.9,1200,873.2,1152.6,886.3,1108.2 M871.2,1174.2
	c-2.3,27.5-14,53.6-14.9,81c-9.2,13.8-7.7,31.4-13.6,46.6c-8.2,51.6-22.2,101.9-29.8,153.5c-15.2,63.6-29,128.1-35.4,193.2
	c4.8,7.7-7.2,23.9,8.3,20.8c20.7,3.3,44.6-6.9,47.5-29.7c7.6-40.4,7.5-81.8,13.6-122.5c10.7-114.3,22.7-228.1,27.8-343
	C873.7,1174,872.5,1174,871.2,1174.2L871.2,1174.2z"/>
<path class="st21" d="M512.3,1182.8c-19.8-15.5-31.8-42.4-33.4-65.8C485.6,1140.9,496.5,1163.5,512.3,1182.8z"/>
<path class="st4" d="M1058.2,1116.7c4.6,8.8,8.3,23.8,8,33.2C1063.1,1139,1060.7,1127.8,1058.2,1116.7z"/>
<path d="M1484.7,1149.2c26.4,29.8,56.8,57.4,77,92.1C1538.6,1208.5,1507.5,1182.3,1484.7,1149.2z"/>
<path class="st31" d="M784.4,1156.8c-6.1,75.2-18.5,151.3-43.3,223.3c-16.5,51.7-31.4,105.2-49.3,155.6
	c22.2-85.7,57.2-168.1,73.5-255.4C775.3,1239.7,775.5,1197.1,784.4,1156.8z"/>
<path class="st4" d="M1012.3,1160.9c1.5,105,1,212.3-2.3,318.1c-2.3,75,5.2,153.5-23.1,224.8c23.4-73.5,20-151.9,20.1-228
	c-2-36.9,3.9-73.8,1.9-110.7C1012.8,1297.5,1006.4,1227.4,1012.3,1160.9L1012.3,1160.9z"/>
<path class="st16" d="M871.2,1174.2c1.2-0.2,2.4-0.2,3.7-0.1c-5.1,114.9-17.1,228.7-27.8,343c-6.1,40.7-6,82.1-13.6,122.5
	c-2.9,22.8-26.8,33-47.5,29.7c-15.6,3.1-3.5-13.1-8.3-20.8c6.4-65.1,20.2-129.6,35.4-193.2c7.6-51.6,21.6-101.9,29.8-153.5
	c5.8-15.2,4.3-32.8,13.6-46.6C857.3,1227.8,868.9,1201.7,871.2,1174.2L871.2,1174.2z"/>
<path d="M520.9,1194.1c25.6,26.7,34.6,64.6,38.8,100.4c2.7,60.5-9.4,120.2-18.3,179.8c-12,65.4-2.7,133.7,22.3,195
	c14,31.1,57.7,18.9,75.5,45.3c14.8-54,27.7-113.8,48.9-165.3c-19.8,63.8-37.1,128.4-53.9,193c-0.7,15.6,7.7,31.5,21.8,38.8
	c15.4,8.4,33.2,11.1,49,18.6c50.4,1.2,103.6,14.3,152.1-4.8c20.1-4.8,40.6-8.1,61.1-10.9c-55.5,13-112.1,31.9-169.5,21.1
	c-27.4,0.8-55.4-3.6-80.4-15.4c-18-4.7-34.3-19.7-36.1-38.9c-3.7-11.4,7-22,4-33.7c-19.1-25.5-60.8-15.6-75.3-47
	c-11.9-32-21.7-65-25.9-99c-10.6-107.1,42.6-213.2,13.7-319.6C541.8,1231.4,533,1211.7,520.9,1194.1L520.9,1194.1z"/>
<path class="st32" d="M1568.9,1253c2.7,2.3,4.4,5.7,4.9,9.2C1571.6,1259.4,1570.2,1256.2,1568.9,1253z"/>
<path class="st4" d="M797.3,1264.9c2.1,8.1-2.8,16.8-3.5,25.1C792.6,1282.2,795.6,1273,797.3,1264.9z"/>
<path d="M1578.8,1275c8,9.8,7.7,24.4,4.2,34.9C1581.5,1298.2,1582.7,1286.2,1578.8,1275z"/>
<path class="st33" d="M1032,1323.1c2.3,6.7,0.7,17.7,2.1,25.9C1031.8,1341.6,1031.8,1331.6,1032,1323.1z"/>
<path class="st4" d="M780.2,1343.2c0.8,8-2.8,19.3-5.6,28.5C773.3,1363.3,778.9,1352.5,780.2,1343.2z"/>
<path d="M1060.7,1559.3c-11.9-67.7-23.9-137.8-25.9-205.1c10.8,91.6,21.9,183.6,42.2,273.8c13.3,42,23.3,85.5,44.7,124.4
	c37.4,14.3,78.6,15.6,117.9,9.1c71.4-7.9,148.2,5.6,215-26.8c20-17.6,21.2-45.9,28.1-69.9c-4.4,25.2-6.4,56.7-28.7,73.3
	c-74.1,33.9-158.2,19.2-236.8,29.1c-34.6,4.1-69.1-2.8-101.8-13.6c-22.9-5-45.7-10.4-68.2-17.1c-15.2-4.5-26.8,7.9-40.4,11.3
	c5.5-9.2,17-12.6,26.9-14.3c30-2.6,55.9,15.4,85.1,18.5C1088.9,1691.5,1072.4,1625.5,1060.7,1559.3L1060.7,1559.3z"/>
<path class="st34" d="M771.3,1385.1C773.4,1392.6,766.1,1394.7,771.3,1385.1z"/>
<path class="st4" d="M1485,1490.2c32.1,19.3,64.9,43.6,102.6,47.5c-35.8,3.2-63.3-22.8-92.8-38.5
	C1491.4,1496.8,1484.9,1495.5,1485,1490.2L1485,1490.2z"/>
<path class="st21" d="M1507.7,1629.8c43.4-14,83.3-40.4,113-75.1c-14.5,27.7-43.9,41.2-67.9,59.1c-18.7,14.4-47.5,12.7-61.4,33.7
	c-2.8,3.3-2.1,9.9-6.7,11.2C1487.1,1646.1,1495.3,1634,1507.7,1629.8L1507.7,1629.8z"/>
<path d="M928.9,1781.8c24.8-6.3,49.5-14.5,71-28.9C980.1,1769.6,955.6,1782.6,928.9,1781.8z"/>
<path class="st0" d="M804.3,9.3c0.4,27.1-2.4,58-2.3,86.4c13-22.7,22.5-52.2,37.1-74.7c-10.9,30.9-24,61.3-33,92.6
	c23.9,8.2,50.5,10,74.7,18.6c-15.7,0-35.4-3.8-52.6-2.4c13.2,10.2,30,18.1,43.5,28.3c-22.4-8.3-44.2-18.4-66.9-26.1
	c-4.3,35.5-9.2,71.1-12,106.8c-2.3-27.2,1.5-58.9,0.4-87.1c-14,25.5-25.4,53.7-38.5,78.9c10.3-33.4,25-65.5,36.2-98.7
	c-24.8-6.2-49.7-11.6-74.8-16.3c15.7-2.9,34.2,4.1,49.9,0.4c-13-9.6-29.6-15.5-40.8-26.4c22.3,6.9,42.6,20.6,65.5,24.9
	C796.3,79.8,798.5,44.2,804.3,9.3L804.3,9.3z"/>
<path class="st1" d="M276.5,78.7c9.4-3.7,19.4-6.5,29.5-6.7c-2.5,4.1-4,9.4,0.5,12.7c-0.4,4-8.2-2.6-11.1,0.6
	c-4.2,4.7-11,2.6-16.4,4.3c-3.2,4.4,7.1,4,5.7,8.2c-5.8,3.2-15.4-0.6-18.8,5.8c-7.5,0-25.3,5.2-19.4,16.4c8.6-1.3,14.1-10.7,23.1-10
	c-1.2,7-10.5,11.6-10.8,18.3c9.9,8,14.1-14.3,21.4-10.9c-4.1,5.1-4.1,15.4-8.6,20.1c7.1,8.3,8.2-2.4,9.4-8.5
	c4.5,2.5,0.1,11.1,5,13.2c3.4-1.4,1.4-6.6,4.5-8.7c1.1,4.5-1.2,10.6,0.4,14.1c7.5-2.7,15,10.9,17,0c-0.8,12.9,8.9,1.9,15.1,6.1
	c1.3-6.6,17.2-17.6,19.9-6.2c3.9-6.9,12.6-15.1,5.9-23.1c0.1-3.3,3.9-6.4,4.2-10.2c19.1,26.5,38.2,52.9,54.4,81.5
	c5.1,6.4,19.8,21.9,6.4,24.5c-3.3-4.5-10-9.7-15.6-5.9c-4.2,6.4,3.4,10.7,5.4,16.1c-8.6-1.1-14.1-9.5-22.2-11.9
	c-9.9-3.5,1,14.5-7.4,10.5c-5.1-2-16.4-4.8-17,2.7c5.8,4.4,7.2,11.1,10.1,17.3c-0.1,23.6-7,2.7-5.3-7.7c-12.9-7.4-10.7,17.5-17,23.5
	c-7.3-7.9,1.6-34.1-10.3-37.8c-4.6,15.3-1,34.5-12.6,46.8c-12.3-2,5-25.4-5.6-26.8c-6.2,8.8-6.4,25.5-15.9,31.9
	c-5.2-17.7-0.9-37.5-0.2-55.9c0.4-2.8-2.9-2.1-4.7-1.9c-3,1.8-6.4,3.9-10,2.2c0.2-5.1,1-11.8-6.1-11.4c-11.8-8.1-11.4,8.4-8.5,15.1
	c-5.1,14.6-7.3,31.4-17.8,43.3c-5.9-10,1.4-23.4-3.3-33.4c-9.1,1.6-3.8,20.1-11.7,22.8c-0.9-15.7-3.2-31.5-0.6-47.2
	c2.4-3.2-1.2-11.4-5.5-6.7c-2.9,12-12.6,20.4-18.2,30.9c-14.4-0.6,1.3-19.8-7.5-27.3c-10.9-7.1-12.1,10.4-18,15.9
	c-5.3,2-7.2-5.6-5.4-9.3c1.7-15.1,4.6-29.7,9.9-44c0.5-8.9-11-6.6-12.7,0.2c-14.1,9.8-28.1,21.2-45.2,25.5c-5.8,1.4-9.8-3.8-7-8.7
	c3.4-17.6,21.3-28.8,26-44.8c-24.4-2.4-48.9,16.9-73.4,15.3c-6-4.6,1.6-11.3,4.2-15.9c30-22.2,67.3-31.5,102.7-41.3
	C215.9,90.6,246.8,86.7,276.5,78.7L276.5,78.7z"/>
<path class="st2" d="M306,71.9c21.2,6.4,33.6,26,47,42.2c-0.4,3.7-4.2,6.8-4.2,10.2c6.7,8-2,16.1-5.9,23.1
	c-2.7-11.4-18.6-0.4-19.9,6.2c-6.1-4.1-15.9,6.9-15.1-6.1c-2,10.9-9.5-2.7-17,0c-1.7-3.5,0.7-9.6-0.4-14.1c-3.1,2-1.1,7.3-4.5,8.7
	c-4.9-2.1-0.5-10.7-5-13.2c-1.2,6.1-2.3,16.8-9.4,8.5c4.5-4.7,4.5-15,8.6-20.1c-7.3-3.3-11.5,18.9-21.4,11
	c0.3-6.7,9.5-11.2,10.8-18.3c-9-0.6-14.6,8.7-23.1,10c-5.9-11.2,12-16.4,19.4-16.4c3.4-6.4,13-2.6,18.8-5.8c1.4-4.2-8.9-3.8-5.7-8.2
	c5.4-1.7,12.2,0.3,16.4-4.3c2.9-3.3,10.7,3.3,11.1-0.6C302,81.4,303.5,76,306,71.9L306,71.9z"/>
<path class="st3" d="M498.5,99.3c2.6-7.6,11.5-15.9,20.2-12.3c45.1,14.6,89.2,33.8,128.1,60.2c12.7,8.8,27,20.2,27.2,37.2
	c-6.4,5.7-15-3.3-20.3-7.4c-12.2-0.4-19.3-9.1-27.8-16.2c-3.2-1.8-10.3-0.7-7.8,4.8c6.3,20.9,21.7,40.1,19.7,63
	c-2,0.8-4.9,2.3-6.8,0.4c-11.5-10.4-24.3-20.8-29.9-35.4c-7.4-4.7-8.6,5.4-7.7,9.9c3.7,18.9,6,37.9,5.7,57.4
	c-9.8-1.9-4.5-19.8-14.8-20.9c-6.3,9.9,1.3,24.1-5.4,34.2c-6.8-11.7-3.5-26.6-12.3-37.2c-1.7-0.1-3.7-0.3-4.5,1.5
	c-0.7,20.8,0.7,41.5-0.1,62.2c-5.8-4.9-0.8-23.3-9.7-24.6c-2.8,12.3,1.3,25.4-0.2,38v0.8c-1-0.7-2-1.3-3-2c-0.7-1.6-1.3-3.2-1.8-4.9
	c-2.2-11.1-5.4-22-6.5-33.3c-0.7-2.7-1.5-11-6.3-8c0.2,12.1,1,24.3,1.2,36.4l0.1,0.9c-2.2,3.8,3.6,17.8-4.1,15.7
	c-2.9-7.2-5.6-14.7-6.3-22.5c0-1.2,0-2.4,0-3.6c-0.4-10.2-1.1-22.2-5.3-30.5c-5.4,6.4-1.6,18.4-1.4,27.1c0.1,1.2,0.1,2.4,0.2,3.5
	c0.3,11.1,0.6,22.3,0.4,33.4c-8.8-1.5-6.3-16.4-9.7-23.5c-1.1-14.4-4.2-4.7-3.6,3.8c1.4,4.1,0.3,21.1-5.8,11.4
	c-0.3-1.6-0.7-3.2-1-4.9c-3.1-11.2-1.4-26-6.1-35.8c-2.8,9.6-1.8,23-5.1,33.9c-2.2-0.1-2-4.2-2.6-6.1c-0.8-6.1-2.7-12-4.9-17.7
	c3-7.1-4.8-9.2-4.2-1.1c-0.1,1.1-0.2,2.2-0.2,3.3c-2.2,4.3-0.5,10-2.7,13.7c-1.6-10.1-2.3-20.4-4-30.5c-0.9-4.8,0-9.7-0.8-14.5
	c-6.6-1.3-13.2-2.2-19.9-3.3c-3.3-1.3-6.8-1.7-10.2-0.6c-2.6-1.1-5.2-2.8-5.6-5.9c1.4-2.5,2.9-4.9,3.9-7.5c0.3-1.5,0.5-3.1,0.7-4.6
	c1.1-2.9,2.1-5.8,3.1-8.8c14.5-27.2,20.5-58.6,34.8-85.6c5.9,3,11.8,7.6,18.6,4.7c11.6,0.8,2.9,11.1-0.4,15.9
	c4.1,3.6,10.6-3.1,15,2.3c1.9,5.3-4.9,9.8-5.7,14.4c6.3-0.2,13.9,2.7,15.8-5.3c9.7,4.4,2.8-11.3,11.3-12.7c12.9,1.8,1.6-19,4.7-23.4
	c4.8,4,3.8,12.6,9.4,16.1c3.5-5.2,6.3-11.1,1.6-16.4c-1.1-8.3,2.5-2.3,5.9-0.4c7.5-3.7,8.9,4.6,16.7,3.7
	c-0.2-8.3-5.6-13.4-11.3-18.1c-12,4-16.9-12.2-28-14.7c-7.4-1.7-9.6-10.7-16.3-13.4C507.4,94.9,503.6,99.4,498.5,99.3L498.5,99.3z"
	/>
<path d="M1256.4,91.4c5.8,4.2,0.6,16.9-2.4,23.8c-24.5,72.3-74.1,131.7-118.1,192.7c-9.4,5.8-15.3,15.9-24.9,21.2
	c9.3-12.3,24.2-19.7,31-34c39-52.9,81.4-104.9,105.1-166.9c3.9-9.1,6.5-18.9,7.1-28.8c-23.4,28.8-42.6,62.2-67,90.9
	C1208.6,156.5,1234,124.6,1256.4,91.4L1256.4,91.4z"/>
<path class="st2" d="M498.5,99.3c5.1,0.1,8.8-4.4,14-3.9c6.7,2.7,8.9,11.7,16.3,13.4c11,2.5,16,18.6,28,14.7
	c5.8,4.6,11.1,9.8,11.3,18.1c-7.8,0.9-9.2-7.4-16.7-3.7c-3.4-1.8-7-7.9-5.9,0.4c4.7,5.3,1.8,11.1-1.6,16.4
	c-5.6-3.5-4.6-12.1-9.4-16.1c-3.2,4.4,8.1,25.1-4.7,23.4c-8.6,1.4-1.6,17.2-11.3,12.7c-1.8,8-9.5,5.1-15.8,5.3
	c0.8-4.5,7.6-9.1,5.7-14.4c-4.4-5.4-10.8,1.4-15-2.3c3.2-4.8,12-15.1,0.4-15.9c-6.8,2.9-12.7-1.7-18.6-4.7
	C480.3,127.3,487.8,111.6,498.5,99.3L498.5,99.3z"/>
<path class="st35" d="M1187.2,190.2c24.4-28.7,43.6-62.1,67-90.9c-0.6,9.9-3.2,19.7-7.1,28.8c-23.7,62-66.1,114.1-105.1,166.9
	c-6.8,14.4-21.7,21.7-31,34c-0.3,0.2-0.9,0.6-1.2,0.9c-30.8,23.8-65.8,41.7-92.9,70c-7,5.6-13.1,12.8-21.3,16.8
	c-24.8,18-53.5,29.6-83.3,36.6c-5.3,1-2,3.9,1.6,4.5c-3.3,2.4-9.3,4.1-8.7,9.1c7.8-2.5,14.5-8.8,22.7-11c-8.1,20-5.6,42.4-5.8,63.5
	c11.3,8.4,21.1,18.6,31.7,28c24.7,39.5,52.7,76.9,81.4,113.5c29.7,31.3,55,66.7,72.9,106c42.3,44,99,69.2,150.2,100.9
	c34.5,27.4,84.1,32.5,124,14.4c24.5-5.7,44.7-22.2,68.5-29.6c12.5-5.5,24.9,3.9,29.1,15.5c10.1,24.8,5.1,51.1-2.1,75.7
	c-0.3,1.8-1,3.6-1.9,5.2c-2.2,3.7-4.1,7.6-5.2,11.8c-6.4,16.9-13.2,33.7-22.8,49.2c-1.9,2.3-3.4,5-4.2,7.9c-0.6,2.2-1.5,4.2-2.8,6.1
	c-2.9,4.4-5.4,9-7.1,13.9c-2.2,6.9-4,14.1-3,21.4c5.9,21.8,19.4,41.3,32,60c7.1,10.1,14.4,20.2,21.9,30c22.8,33.1,53.9,59.3,77,92.1
	c2.6,3.7,5.4,7.5,7.2,11.7c1.3,3.2,2.7,6.4,4.9,9.2c2.4,3.9,3.5,8.5,5,12.8c3.9,11.2,2.7,23.2,4.2,34.9c-2.5,11.4-6,22.7-9.1,34
	c-13.6,30,5.6,61.6,20.8,86.6c-37.8,5.8-75.3-19.6-98.2-49c-43-60.7-85.3-122-125.2-184.8c-31.1-60.2-73.9-113.1-112.4-168.6
	c-31.5-44.2-57.3-92.1-85.7-138.2c-0.2-3-6.7-10.1-4.5-3.7c30.9,54.8,60.5,111,99.3,160.8c12.1,16,22.5,33.2,35.1,48.9
	c34.8,44.9,61.3,95.4,91.8,143.2c32.1,46.9,64,93.9,96.2,140.8c23.1,32.3,60.3,58.3,101.5,56.2c9.8-1.5,11,12.2,19.6,14.8
	c-2.4-5.1-6.7-9.2-8.3-14.6c15.1-0.7,29.9,10.2,31.4,25.3c-1.4,17.1-21.2,17.3-30.8,27.9c-8.3,8-9,20.1-10.5,30.9
	c3.7,9.2,15.2,8.8,22.8,12.6c5.5,3.9,6.1,11.4,6.3,17.6c-0.3,1.6-1.3,3-2.4,4.1c-29.7,34.7-69.6,61.1-113,75.1
	c-12.4,4.2-20.6,16.3-23,28.9c-0.7,2-1.4,4.1-2,6.1c-6.9,24-8.1,52.3-28.1,69.9c-66.8,32.4-143.6,18.9-215,26.8
	c-39.3,6.5-80.5,5.2-117.9-9.1c-21.4-38.9-31.4-82.4-44.7-124.4c-20.3-90.2-31.4-182.2-42.2-273.8c2,67.3,14,137.4,25.9,205.1
	c11.7,66.2,28.2,132.2,58.1,192.7c-29.2-3.1-55.1-21.1-85.1-18.5c-9.9,1.7-21.4,5.1-26.9,14.3c-1.7,2.3-4.2,4-6.9,5.1
	c-21.5,14.4-46.2,22.6-71,28.9c-3.2,2-7.1,2-10.8,2.2c-20.5,2.8-41,6.1-61.1,10.9c-48.5,19.1-101.6,6-152.1,4.8
	c-15.8-7.5-33.6-10.2-49-18.6c-14-7.3-22.4-23.2-21.8-38.8c16.8-64.6,34-129.2,53.9-193c-21.2,51.5-34.1,111.3-48.9,165.3
	c-17.8-26.4-61.5-14.2-75.5-45.3c-25-61.3-34.3-129.6-22.3-195c8.8-59.6,21-119.3,18.3-179.8c-4.1-35.8-13.2-73.7-38.8-100.4
	c-3.4-3.3-5.7-7.6-8.6-11.3c-15.8-19.3-26.7-41.9-33.4-65.8c-0.3-1.1-0.6-2.3-0.7-3.4c-4.2-50.5,5-102.5-8.9-151.9
	c-8.8-16.5-9.3-35.5-12.6-53.5c-3.3-48.4-3.5-96.9,0.3-145.2c5.8-29.5,3.4-60.3-3.8-89.2c-1.7-4.1-2.2-8.6-2.1-13
	c-5.9-36-9-72.7,0.2-108.5c11.7-65.4,23.2-130.9,40.1-195.3c-0.8-13.6,3.7-26,8.6-38.3c6.1,9.8,7.2-7.3,5.8-11.4
	c1.2-1.3,2.4-2.5,3.6-3.8c3.3,7.1,0.8,22,9.7,23.5c0.2-11.1-0.1-22.3-0.4-33.4c2.2,1.2,4.4,2.4,6.6,3.5c0.7,7.8,3.4,15.3,6.3,22.5
	c7.7,2,1.9-11.9,4.1-15.7c4.3,3.2,8.7,6.3,13.3,9c1,0.7,2,1.3,3,2c22.8,23.6,44.7,48.1,66.8,72.3c2.2,2.2,4.2,4.5,6,7.1
	c15.4,22.6,33.5,43.1,51.1,63.8c4,7.6,13,9.4,20.1,12.9c28.5,14.9,59.3,24.6,88,39c36.1,27.4,84.4,7.3,124.9,20.2
	c-3.9-13.3-25.4-3.3-34.1-9.1c-4.5-36-19.5-70-33.5-102.7C884,407.3,905,362.8,916,324c2.5-22.3,10.5-50.9-6.5-69.5
	c-8.1-13.4-24.8-13.3-37.4-7.3c7.3-16.7,31.4-8.1,41-22.4c43.7-0.7,70.4,40.8,108.5,55.5c51.4,15.6,97.6-19.6,136.2-48.6
	c7.8-13.8,19.7-24.7,27.4-38.5C1185.8,192.2,1186.4,191.1,1187.2,190.2 M943.2,275.2c-10.8,19.2-10.9,43-17.1,64
	c-6.6,17.3-13.1,37.8-14.6,57c11.4,12.4,31,11.4,46.6,9.3c49.8-25.1,102-49,144.3-85.5c7.3-7.6,15.4-16.2,19.5-26.1
	c2.5-1.7,5.4-11-0.1-11c-29.3,3.1-58.5,10.3-85,23.1c-11.1,0.4-23.6,4.8-33.2-2.8C984.2,292.5,964.1,282.6,943.2,275.2 M575,402.6
	c32.9,47,70.4,91.2,108.9,133.6c27.3,16.1,57.2,26.8,86.6,38.5c31.9,9.9,64.7,23,98.7,17.9c11.4-7.5,27.1-11.4,31.9-25.8
	c4-12.6-9-16.1-18.2-18.4c-26.7-11.3-55.7-15.5-83.7-22.3c-28.7-10-57.6-19.5-86.1-30c-31.9-4-45-37.6-63.9-59
	c-10.9-18.9-26.6-36.9-47.7-44.3C592.1,383,567.8,385.6,575,402.6 M548.8,414.2c22.8,30.5,45.5,61.1,68.9,91.2
	c16.7,35,38.7,70.5,74.4,88.6c39.8,18.7,67.8,54.4,105,77c46,36.3,69.1,92.8,95,143.1c-14.4-42.3-37.7-81.7-65-117
	c-14.1-18.3-31-35.1-52.2-44.8c-35.4-41.6-90.9-59.3-126.9-100.2C623.1,500.9,587.4,455.4,548.8,414.2 M514.5,433.3
	c-3.6,3.3-1.9,9.7-7.1,12c2.3,8.3-10.5,11.8-6.4,20.3c-8.8,2.2,4.3,5-3.9,6.1c-1.8,5.8-7.9,14.6-2.7,21c-11,11.1,0.3,34-6.8,48.8
	c5,18.4,0.4,46.1,5.8,62c-1.5,16.4,2.8,38.1,2.5,50.1c0.1,24.8,5.8,52.5,4.3,76.3c6.2,1.4-2.7,13.9,5.5,19.3
	c-5.1,6.3,0.3,11.9-0.1,15.7c2.9,64.4,12.4,131.5,19.2,198.1c6.3,7.7-0.5,20.3,6.9,23.8c-4,21.7,7.8,42.7,7.8,64.3
	c6.7,9.7,5.7,28.6,13.9,38.3c9.2,35.1,25.9,66.2,39,100.9c9.7,25.9,15.1,47.8,19.4,76.2c0.7,2.8-5.3,7.7,2.6,5.6
	c5,52.9-7.2,110.1-22,163.9c0.8,9.8-0.3,19.4-3.4,28.7c3.5-1.7,3.5,0.5,0.7,2.2c-5.5,29.2,2,62.3,30.3,77.9
	c13.9,7.6,23.7,23.2,40.2,16.3c29.8-30.7,31-69.3,43.7-107.3c2.6-3.7-2.7-11.6,2.9-11.9c2.2-23.1,11.5-46.4,13.6-70.8
	c8.5-38.2,11.7-78,19.1-116.5c4.6-22.5,10.3-47.4,14-69.8c-0.4-3.9,8.6-11.9,0.3-10.3c6.6-11.8,5.8-26,11-38.5
	c-2.7-12.1,8.4-23.1,7.7-36.1c-5.1-1.4,10.5-18.5-1.3-14.9c5.5-4.8,8.8-15.6,6.9-18.1c5.3-24.6,9.3-50.6,15.5-75.3
	c-6.2-0.9,4.8-5.8-2.5-3.8c9.7-12.2,4.4-31.2,9.6-46.2c6.3-27.3,8.5-54.9,11.5-82.4c1.9-2.6,2.1-5.2-1-6.1c4,0.3,6.2-11.5,0.7-8
	c2.7-3.2,7.5-9.6,2.7-12.8c5.9-20.8,3.8-47,5.6-70.4c-2.8-1.2-4.3-4.1-0.5-5.2c-1.8-40.9-36.2-66.7-66.7-92.8
	c-19.1-10.9-34.9-26.4-54.3-37.6c-2.5-2.8-5.5-7.3-9.8-5.6c-0.5-6.2-12-11-18.4-14.1c-4.3-9.2-19.7-11.7-20.8-19.5
	c-15.5-9.2-25.6-24.8-35.3-39.6c-17.7-34.8-46.2-63.3-71-90.9C532.6,450.5,526.5,436.1,514.5,433.3 M994.1,743.5
	c4.8,32.7,13.7,64.7,19.1,97.3c16.6,83.4,23.7,169.7,41.8,252.3c-17.5-114.5-33-229.4-57.4-342.7
	C996.6,749.4,996.4,742.9,994.1,743.5 M850.1,766c1.1,39.9-2.8,82.6-0.2,120.8C851.4,847.2,854.4,802.4,850.1,766 M1197.5,875.7
	c5.8,6.5,7.6,12.2,13.3,17.7c-1,8.5,16.2,8.7,3.1,13.8c-4.5-5.5-8.2-11.9-14-16.1c20.5,29.9,45.7,56.3,69.2,83.8
	c10,14.6,21.1,28.3,29.2,44.8c9.1,8.2,12.4,24.7,22.6,30c6.2,14.4,8.2,28.4,20.3,39.1c22.6,31.6,43.9,64.2,60.8,99.2
	c37.8,56.3,66.2,120.8,117.9,166.2c-40.5-40.9-68.2-92-99.2-140c-1.6-3.5-2.1-7.8,2.3-9.4c0.4,8.4,9.1,13.2,13,21.1
	c5.2,1.9,3.2,11.9,9.8,9.3c-2,4.7,5.1,12.3,9.4,8c-6.8,10.4,14.4,16.4,15.2,22.6c5.9,3.8,18.6,12.2,21,0.6
	c-1.2-23.8-18.6-43.6-23-66.7c-17.4-44.7-38.5-88.1-53.1-134c-2.3-3.9-2.5-10.5-6.5-12.5c-2-8.7-5-17.2-6.2-26.1
	c1.6-16.1,17.6-25.4,23.8-39.7c9.2-14.1,10.4-31.6,10.4-46.8c5.5-6.2-6-12-10.6-16.1c-8.3-1.3-14.4-2.2-22.2-5.4
	c-1.4,2.3-4.1,3.9-5.2,0.4c-3.1,0.8-7.4,4.8-3.8-0.6c-31.4-0.3-63-6.2-93.3-15.8c-36.3-7.2-70.6-20-104.2-35
	C1186.4,868.1,1199.9,871.1,1197.5,875.7 M1114.1,873.2c8.1,70,6.1,142.4,15.6,210.9c8,71.6,22.6,142.1,31.4,213.5
	c17.7,86.8,27.1,175.1,47.4,261.2c3.1,15.7,6.2,33.6,21.7,42.2c20.1,6.7,42.1,9.3,62.8,4c36.1-4.5,70.3-15.1,104.5-26.6
	c21.2-4.2,39-17.3,60.4-20.6c4.5-4.7-5.5-6-8.7-8.3c-1.4-13.5,13.8-22.9,5.4-36.5c-2-24.3-15.2-43-22.1-65.4
	c-60.4-130.6-134.2-254.7-201.1-381.9c-4.6-7.5-5.9-17-12.4-23.3c-5.4-9.6-4.6-25.2-17.4-29.1c-4.6-2.4-10.8-3.8-12.8-9.2
	c-16-25.8-28-53.9-44.2-79.7C1134,907.8,1125.7,886.8,1114.1,873.2 M848.1,893c-0.7,30.5-5.5,61.1-4.5,91.5
	C845.5,954.4,850.1,921.9,848.1,893 M913.6,980.7c-5.4,28.2-19.3,59.4-19.4,86.4c-2.8,12.6-6.5,24.9-10,37.3
	c-7.5,3.8-1.5,21.4-11.3,25.5c-9.5,8.8-6.5,22.1-11.1,33c-8.9,41.2-19,81.9-30.3,122.5c-28.1,126-64.2,248.7-85.9,375.8
	c-0.3,14.6-6.7,31.3,3.3,44.1c4.5,8.1,3,17.2-4.9,21.6c28.9,6.7,59.9,3,89.5,1.3c21.5-4.3,46.7-8.2,60.8-27
	c13.6-9.5,11.2-28.6,13.8-43.1c1-34.5,5-68.9,4.2-103.1c5.1-21.6-1.6-44,4.2-65.3c-0.8-62.1,4.9-123.3,4-185.4
	c3.1-61.3,7.5-123.3,2.2-184.5c-0.2-49.9-5.8-99.7-3.6-149.7C914.1,969.8,915.4,977.5,913.6,980.7 M840.4,1003.4
	c-14.5,86.8-26.9,174.9-41.8,260.7c15.6-65.2,24-132,35.6-198C836,1045.5,841,1021.4,840.4,1003.4 M1058.2,1116.7
	c2.5,11.1,4.9,22.3,8,33.2C1066.5,1140.5,1062.8,1125.5,1058.2,1116.7 M784.4,1156.8c-8.8,40.3-9,82.9-19,123.5
	c-16.4,87.3-51.4,169.7-73.5,255.4c17.9-50.4,32.8-103.9,49.3-155.6C765.8,1308.1,778.3,1232,784.4,1156.8 M1012.3,1160.9
	c-5.9,66.5,0.5,136.6-3.4,204.2c2,36.9-3.9,73.8-1.9,110.7c-0.1,76.1,3.3,154.5-20.1,228c28.3-71.3,20.8-149.8,23.1-224.8
	C1013.3,1373.2,1013.8,1265.9,1012.3,1160.9 M797.3,1264.9c-1.7,8.1-4.7,17.3-3.5,25.1C794.5,1281.7,799.4,1273,797.3,1264.9
	 M1032,1323.1c-0.2,8.5-0.2,18.5,2.1,25.9C1032.7,1340.8,1034.3,1329.8,1032,1323.1 M780.2,1343.2c-1.2,9.3-6.9,20.1-5.6,28.5
	C777.4,1362.5,781,1351.2,780.2,1343.2 M771.3,1385.1C766.1,1394.7,773.4,1392.6,771.3,1385.1 M1485,1490.2c-0.1,5.3,6.4,6.6,9.8,9
	c29.5,15.7,57,41.7,92.8,38.5C1549.9,1533.8,1517.1,1509.5,1485,1490.2L1485,1490.2z"/>
<path class="st5" d="M64.2,191.7c2.2,9.8,0.3,21.2-0.3,31.6c-0.5-1.8-1.6-3.3-2.9-4.7C62.5,209.8,61.8,200.4,64.2,191.7L64.2,191.7z
	"/>
<path d="M1152.6,232.6c11.6-12.4,20.4-28.2,32.6-39.4c-7.7,13.8-19.6,24.7-27.4,38.5c-38.6,29-84.8,64.2-136.2,48.6
	c-38.1-14.7-64.7-56.2-108.5-55.5c-9.6,14.3-33.7,5.7-41,22.4c12.6-6,29.3-6.1,37.4,7.3c17,18.6,9,47.2,6.5,69.5
	c-11,38.8-31.9,83.3-74.6,94.4c14.1,32.7,29,66.6,33.5,102.7c8.6,5.8,30.1-4.3,34.1,9.1c-40.5-12.9-88.9,7.2-124.9-20.2
	c-28.7-14.4-59.6-24.1-88-39c-7.1-3.6-16.1-5.3-20.1-12.9c-17.7-20.8-35.7-41.3-51.1-63.8c19.7,20.3,36.5,43.6,54.5,65.5
	c38.6,23.9,84.2,33,122.9,56.2c22.3,6.1,45.5,8.2,68.6,7c-4.8-40.8-15.6-84.3-45.2-114.6c-12.5-6-25.7-21.1-20.4-35.8
	c13-10.7,2.4-27.2,13.5-39c-1.1-6.1-8-11.7-6.7-19.2c4-14.6,25.7-8.6,30.2-23.1c4.4-9.8,7.6-22.9,17.1-28.8
	c-8.2,18.1-13.7,43.8-37.3,46.6c-11.9,1.6-5.9,22.5,4.6,19.6c2.1,6.2-7,5.9-7.4,11.1c-0.5,5.7-0.3,13.1,4.7,17c4.5-4.7,10.9,2,7,7.1
	c-4,2.9-7.7-3.4-11.1-4.7c-4.5,7-10.1,13.6-13.7,20.9c7.3,20,32.1,40.2,53.7,27.9c18.6-14.9,35-34.3,42.8-57.1
	c9.6-28,22.2-60.3,7.2-88.7c-9-19.3-33.9-13.8-47.9-4c2.6-10.9,14.9-16.9,15.3-28.5c1.2-8.5,9.7-12.2,16.1-16.2
	c8.9-0.4,14.5,11.1,24,8.3c51.1,1.9,79.7,60.1,131.3,59.3C1088.6,279.1,1121.6,255.1,1152.6,232.6 M893.6,219.5
	c-5.8,1.1-17.5,6.6-11.6,13.5c7.4-3.9,16-3.2,23.8-5.9C903.9,222.4,899.3,216.9,893.6,219.5L893.6,219.5z"/>
<path class="st6" d="M77.4,226.8c2.3-8,5.8-17,10.5-23.7c-1,9.4-6.4,19.3-8.7,27.9C79,229.5,78.7,227.8,77.4,226.8z"/>
<path class="st7" d="M279.3,211.9c7.1-0.4,6.3,6.4,6.1,11.4c3.5,1.7,7-0.4,10-2.2c-2.5,17.8-6.6,37.8-17.2,52.2
	C270.1,254.5,278.4,231.8,279.3,211.9L279.3,211.9z"/>
<path d="M398.2,214.2c5.6-3.8,12.3,1.3,15.6,5.9c4.8,10.6,18,4.6,26.5,8.4c-1,3-2,5.9-3.1,8.8c-8.1,2.6-11.5,10.5-17,16.1
	c-7.6,2.2,7.2-12.7-3.7-7.1c-17.2,5.6-31.8-5.4-46-12.8c-2.1-0.9-7.4-3-6.3,1.2c12.3,3.4,24.6,8.5,33.3,18.2
	c5.7,4.1,22.3-5.2,20.2,6.7c-5.6,0-11.1,0.1-16.6,1.1c-11.3-2.4-16.5-17.7-29-16.3c14.1,10.6,27.2,28.5,47.1,25.4
	c1-9.8,10.6-13.3,19-14.5c3.4-1.1,6.9-0.7,10.2,0.6c-12,3.2-30.3,7-27.2,23.9c9,5.1,10-14,20.9-12.7c7.1,0.5,25.1-5.8,25.9,4.1
	c-13.1-0.1-34-7.2-39.6,10.3c-3.6,7.9-14,0.4-9.5-6.4c-6.4-5.3-18.8-0.3-25.9-7c-7.9-7.1-15.5-15.8-26-19
	c-2.9-6.2-4.2-12.9-10.1-17.3c0.6-7.5,11.9-4.7,17-2.7c8.4,4-2.5-14,7.4-10.5c8.1,2.4,13.6,10.7,22.2,11.9
	C401.6,224.9,393.9,220.6,398.2,214.2 M402.1,218.2c2,12.8,20.4,19.7,30.1,13.6C419.3,233.6,412.2,222.6,402.1,218.2 M380.8,224.3
	c4.2,13.5,20.5,18.8,33.4,17c3.3-1.9,12.2,5.4,10.6-2.1C408.8,238.8,394.1,233,380.8,224.3z"/>
<path class="st8" d="M402.1,218.2c10.1,4.4,17.2,15.4,30.1,13.6C422.6,237.9,404.2,231,402.1,218.2z"/>
<path class="st9" d="M61,218.6c1.3,1.4,2.3,2.9,2.9,4.7c1.5,11.1-2.4,22.6,0.1,33.7c4.6-9.8,8.6-20.3,13.3-30.2
	c1.3,1,1.6,2.6,1.8,4.2c-2,15.1-12,28.1-12.7,43.4c14.9,4.7,31.1,7.7,46.2,12.9c-2.5,7.3-17.3-3.2-23.4,0.9
	c2.4,6.5,13.7,7.5,16.5,14c-13.9-2.8-26.8-13.1-40.9-12.5c-2.8,18.8-3.8,38.1-5.9,57.2c-2.6,5.9-1.6-4.7-2.6-7.1
	c-0.2-1.2-0.2-2.4-0.1-3.5c0.3-4.4,0.8-8.8,0.9-13.3c-0.3-5,0.7-10.3-1.1-15.1c-5.5,8.5-7.4,19.7-13.2,28.4c-1-0.4-2-0.8-2.9-1.1
	c4.2-15.6,9.1-31,15.1-45.9c-14.9-5.8-31.1-9-46.7-13.4c7.1-2.6,16.7-0.7,24.6,0.2c-4-7.3-17.4-9.6-21.3-15.9
	c14.4,2.7,27.7,10.9,42.1,14C58.9,256.5,56.9,236.6,61,218.6L61,218.6z"/>
<path class="st10" d="M893.6,219.5c5.7-2.5,10.3,2.9,12.2,7.6c-7.8,2.7-16.5,2-23.8,5.9C876.1,226.1,887.8,220.5,893.6,219.5
	L893.6,219.5z"/>
<path class="st11" d="M380.9,224.3c13.2,8.7,28,14.5,44,14.9c1.6,7.5-7.2,0.2-10.6,2.1C401.3,243.1,385,237.7,380.9,224.3z"/>
<path class="st12" d="M364.2,234.6c-1.1-4.2,4.2-2.1,6.3-1.2c14.2,7.4,28.8,18.4,46,12.8c10.9-5.6-3.9,9.3,3.7,7.1
	c5.5-5.5,9-13.4,17-16.1c-0.2,1.5-0.4,3.1-0.7,4.6c-4.6-1.6-6.2,4.4-3.9,7.5c0.4,3.1,3,4.7,5.6,5.9c-8.5,1.2-18,4.7-19,14.5
	c-19.9,3.1-33-14.8-47.1-25.4c12.6-1.3,17.7,13.9,29,16.3c5.5-1,11.1-1.1,16.6-1.1c2-11.9-14.5-2.6-20.2-6.7
	C388.8,243.2,376.5,238.1,364.2,234.6L364.2,234.6z"/>
<path class="st13" d="M432.6,249.3c-2.3-3.1-0.7-9.1,3.9-7.5C435.4,244.4,434,246.9,432.6,249.3z"/>
<path class="st14" d="M862.1,258c14-9.8,39-15.2,47.9,4c15,28.4,2.4,60.7-7.2,88.7c-7.8,22.9-24.2,42.2-42.8,57.1
	c-21.6,12.3-46.4-7.8-53.7-27.9c3.6-7.3,9.3-13.9,13.7-20.9c3.4,1.4,7.1,7.7,11.1,4.7c3.8-5.1-2.6-11.8-7-7.1
	c-4.9-3.9-5.1-11.3-4.7-17c0.4-5.2,9.5-4.9,7.4-11.1c-10.5,2.9-16.5-18.1-4.6-19.6c23.6-2.8,29.1-28.5,37.3-46.6
	C860.1,260.9,860.9,259.4,862.1,258 M857.1,281.4c-6.5,0.4-0.2,8.1,3.1,9.1c14.9-3.4,11.8,17.8,20.8,23.5
	C882.6,300.1,872.5,282.8,857.1,281.4 M853.6,291.3c-3.8,1.4-7.2,7.4-1,8c-6.5,7.9,6.5,16.1,13.5,19.6c6.8,0.3-3.1-5.4,0.7-7.8
	c2.7,2.6,3.6,12.7,8.1,6.8C869.2,308.8,864.1,293.9,853.6,291.3L853.6,291.3z"/>
<path class="st15" d="M421.2,279.7c-3.1-16.9,15.1-20.7,27.2-23.9c6.6,1,13.3,2,19.9,3.3c0.9,4.8-0.1,9.7,0.8,14.5
	c-1,0-1.4-0.8-1.1-2.5c-0.8-9.9-18.8-3.7-25.9-4.1C431.3,265.7,430.2,284.8,421.2,279.7z"/>
<path class="st16" d="M943.2,275.2c20.9,7.5,41,17.4,60.5,28.1c9.6,7.6,22.1,3.1,33.2,2.8c26-7.9,52.6-13.3,78.9-20.5
	c8.1-3.7,7.3,3.2,6.2,8.4c-4.1,9.9-12.2,18.5-19.5,26.1c-25.5,15.4-48.9,34.5-75.8,47.7c-22.9,10.6-45.2,22.4-67.9,33.3
	c-14.6,2-31.4,1.4-43.8-7.3c-1-18.4,9.1-36.1,11.1-54.6C932.3,318.1,932.4,294.4,943.2,275.2 M943.1,287.3
	c-7.5,33.1-18.3,65.8-24,99.3c12.8,10.2,34,12.3,47.8,2.2c47.8-19.3,95-41.5,137-72c-0.3-0.5-0.8-1.4-1.1-1.9
	c3.9-2.6,7.5-6.1,10.1-10c4-3.2,11.4-14.1,6.1-18.8c-40.1,14.2-84.8,38.6-127.7,19.8c-11.9-8.3-25.3-13.9-38.4-19.8
	C949.8,284.4,944.1,282.1,943.1,287.3z"/>
<path class="st17" d="M487.7,311.9c3.3-10.9,2.4-24.3,5.1-33.9c4.8,9.7,3,24.6,6.1,35.8c-1.6,2.1-2,5.6-4.2,6.9
	C491.3,319.6,492.5,306.2,487.7,311.9L487.7,311.9z"/>
<path class="st18" d="M476,287.1c-0.5-8.2,7.2-6.1,4.2,1.1C478.8,286.7,476.5,283.1,476,287.1z"/>
<path d="M857.1,281.4c15.4,1.4,25.5,18.6,23.9,32.6c-9-5.8-5.9-26.9-20.8-23.5C856.9,289.5,850.6,281.8,857.1,281.4z"/>
<path class="st16" d="M1036.9,306c26.5-12.8,55.7-20,85-23.1c5.5,0,2.6,9.3,0.1,11c1.1-5.2,1.9-12.1-6.2-8.4
	C1089.5,292.7,1062.9,298.1,1036.9,306L1036.9,306z"/>
<path class="st16" d="M943.1,287.3c0.9-5.2,6.7-2.8,9.7-1.1c13.2,5.9,26.5,11.5,38.4,19.8c42.9,18.8,87.6-5.6,127.7-19.8
	c5.3,4.6-2.1,15.6-6.1,18.8c0.5-5.2,9.1-13.5,4.5-16.4c-33.3,14.9-66.8,32.8-104,34.2c-22.9,0.7-35.5-22.3-55.2-29.9
	c-4.2-1.2-12.2-7.2-13.3,0.2c-7,29.3-15.3,58.9-19.6,88.4c10.7,9.3,29.7,9.8,41.4,1.2c47-18.9,94.9-38,136.2-67.7
	c0.3,0.5,0.8,1.4,1.1,1.9c-42,30.5-89.2,52.7-137,72c-13.7,10.1-35,8-47.8-2.2C924.8,353,935.7,320.4,943.1,287.3L943.1,287.3z"/>
<path d="M476,287.1c0.5-4,2.8-0.4,4.2,1.1c2.2,5.7,4.1,11.6,4.9,17.7c-4.2-3.7-4-11.9-9.3-15.4C475.9,289.3,475.9,288.2,476,287.1z"
	/>
<path class="st16" d="M1013.4,322.7c37.2-1.4,70.7-19.3,104-34.2c4.6,2.9-4,11.2-4.5,16.4c-2.6,4-6.2,7.4-10.1,10
	c-41.3,29.7-89.2,48.8-136.2,67.7c-11.8,8.6-30.7,8.1-41.4-1.2c4.3-29.5,12.6-59.1,19.6-88.4c1.2-7.4,9.2-1.4,13.3-0.2
	C977.9,300.4,990.5,323.4,1013.4,322.7L1013.4,322.7z"/>
<path class="st19" d="M518.5,290.1c2.1,1.4,4.5,2.3,6.7,3.4c0,1.2,0,2.4,0,3.6c-2.2-1.1-4.5-2.2-6.6-3.5
	C518.6,292.4,518.6,291.2,518.5,290.1L518.5,290.1z"/>
<path d="M853.7,291.3c10.5,2.6,15.5,17.5,21.2,26.6c-4.5,5.9-5.4-4.2-8.1-6.8c-3.7,2.4,6.1,8.1-0.7,7.8c-7-3.5-20-11.8-13.5-19.6
	C846.5,298.7,849.9,292.7,853.7,291.3L853.7,291.3z"/>
<path d="M505.8,307.3c-0.6-8.5,2.5-18.2,3.6-3.8C508.2,304.8,507,306,505.8,307.3z"/>
<path class="st20" d="M535.6,303c3.9,1.5,7.7,3.1,11.5,4.9c0.5,1.7,1.1,3.3,1.8,4.9c-4.6-2.7-9-5.8-13.3-9L535.6,303z"/>
<path class="st21" d="M487.7,311.9c4.8-5.8,3.5,7.6,7.1,8.7c2.2-1.3,2.6-4.8,4.2-6.9c0.3,1.6,0.7,3.2,1,4.9
	c-4.9,12.3-9.4,24.7-8.6,38.3c-16.9,64.4-28.4,129.9-40.1,195.3c-9.2,35.9-6,72.5-0.2,108.5c-15.6-50.6-3.8-106.7,6.5-158.2
	c9.2-49.2,19.4-98.6,31.6-147.4C487.4,340.5,498.7,325.3,487.7,311.9L487.7,311.9z"/>
<path d="M552,314.1c27.7,18.7,46.9,47,66.8,73.1c-22.1-24.3-44-48.7-66.8-72.3V314.1L552,314.1z"/>
<path class="st16" d="M1026.7,367.7c26.9-13.2,50.3-32.3,75.8-47.7c-42.3,36.4-94.5,60.4-144.3,85.5c-15.6,2.1-35.2,3.1-46.6-9.3
	c1.4-19.2,8-39.7,14.6-57c-2.1,18.4-12.2,36.1-11.1,54.6c12.4,8.6,29.2,9.2,43.8,7.3C981.5,390.1,1003.8,378.2,1026.7,367.7
	L1026.7,367.7z"/>
<path class="st22" d="M56.2,336.2c1-3.7-2.4-11,0.9-13.3C57.1,327.4,56.5,331.8,56.2,336.2z"/>
<path d="M1016.9,399.8c27.1-28.3,62.1-46.2,92.9-70C1081.3,355.8,1047.2,376.1,1016.9,399.8z"/>
<path class="st23" d="M34,356.7c1.2-7.3,3.2-15.2,5.9-21.7c1,0.4,2,0.8,2.9,1.1C40.8,342.6,38.9,352.6,34,356.7z"/>
<path class="st24" d="M56,371.5c-0.1-9.7-1.6-24.6,0.3-31.8c1,2.5,0,13,2.6,7.1C58,355.1,58.6,364.8,56,371.5z"/>
<path class="st25" d="M210.3,345c-0.6,23.1-0.4,50.3-2.6,74.9c0.1,2.2-3,17.2,1.3,11.2c12.3-23,19.4-49.3,33.1-71.1
	c-9.2,30.5-21.7,60.1-30.1,90.8c23.8,8.2,49.5,11.5,73.3,19.2c-16.2,0.4-32.9-1.5-49.2-2.8c13.1,11.2,31.2,16.2,43.9,28
	c-23.4-7.9-45.7-19.3-69.6-25.1c-3.4,35.4-9.5,70.4-11.5,105.9c-3.5-26.9,0.3-56,0.2-83.6c-14.4,23.5-23.4,52.4-36,77.9
	c6.9-33.2,24-67,32.3-99.7c-20.8-6-42.6-9.6-63.4-15.5c-5-2-1.4-2.4,3.3-2.1c11.9,0.2,24.8,2.1,35.9,1.5c-13.6-10.3-31.8-16-44-27.4
	c23.4,8.3,46.3,18,69.9,26C201.3,417,204.3,380.6,210.3,345L210.3,345z"/>
<path class="st16" d="M575,402.6c-7.1-17,17.1-19.6,26.5-10c21,7.4,36.8,25.4,47.7,44.3c-15.5-15.3-33.2-29.6-55.1-33.6
	c-12.7,3.3-4.4,18.1,2.6,22.9c6.8,11.5,17,20.4,26.1,30c25,25.7,45.8,56.8,76,77c44.2,20.3,90.3,37,138.2,46.3
	c17,3.3,36.2-2.7,46.8-16.7c-3.8-13-20.9-14.1-31.5-17.9c-17-8-35.7-11.8-53-19c28,6.8,57,11,83.7,22.3c9.1,2.3,22.1,5.9,18.2,18.4
	c-4.8,14.4-20.5,18.3-31.9,25.8c-34,5.2-66.9-8-98.7-17.9c-29.3-11.6-59.3-22.3-86.6-38.5C645.4,493.8,607.9,449.6,575,402.6
	L575,402.6z"/>
<path class="st16" d="M594,403.3c21.9,4,39.6,18.3,55.1,33.6c19,21.5,32,55,63.9,59c28.5,10.5,57.5,20,86.1,30c17.3,7.3,36,11,53,19
	c10.6,3.8,27.7,4.9,31.5,17.9c-10.5,14-29.8,20-46.8,16.7c-47.9-9.3-94-26-138.2-46.3c-30.2-20.2-51-51.3-76-77
	c27.7,21.4,49.8,49.5,78.7,69.4c38.3,17.6,79.2,30.6,120.4,39.6c15.3,2.8,33.6,6.5,46-5.5c3-2.2-1.2-4.5-3.2-5.4
	c-56.3-20.1-111-44.8-168.8-61.1c-30.3-18.7-41-61.7-77-73c-7.2-4.9-24-6.4-22.2,6C589.6,421.5,581.3,406.6,594,403.3L594,403.3z"/>
<path class="st4" d="M548.8,414.2c38.6,41.2,74.3,86.7,99.1,137.9c36,40.9,91.5,58.5,126.9,100.2c21.2,9.7,38.1,26.5,52.2,44.8
	c27.3,35.3,50.6,74.7,65,117c-25.8-50.3-49-106.8-95-143.1c-37.2-22.6-65.2-58.3-105-77c-35.7-18-57.7-53.6-74.4-88.6
	C594.3,475.3,571.5,444.7,548.8,414.2z"/>
<path class="st16" d="M596.7,426.2c-1.9-12.4,15-10.9,22.2-6c36,11.3,46.7,54.3,77,73c57.8,16.3,112.5,41,168.8,61.1
	c1.9,0.9,6.2,3.2,3.2,5.4c-12.4,12-30.7,8.3-46,5.5c-41.2-9-82.1-22-120.4-39.6c-28.9-19.9-51-48-78.7-69.4
	C613.7,446.6,603.5,437.7,596.7,426.2L596.7,426.2z"/>
<path d="M912.2,453.2c29.8-7,58.5-18.6,83.3-36.6c-14.1,20.5-42.5,22.9-61.6,36.4c-9.8,22.1-5.8,50.2,3,72.1
	c12.3,9.8,25.2,19.8,33.2,33.8c21,37.9,45.5,74.1,74.7,106.3c38.2,46,65,102.6,113.7,139.3c39.3,25,79.7,48.2,119.6,72.4
	c26,17.1,59.8,15.8,89,8.4c25.7-7.4,48.8-21.1,73-32.1c10.5-3.8,25-7.6,33.6,2.1c21.1,24.2,16.4,62.2,4,88.5
	c7.2-24.5,12.2-50.9,2.1-75.7c-4.2-11.5-16.6-21-29.1-15.5c-23.8,7.4-44,23.8-68.5,29.6c-39.9,18.1-89.5,13-124-14.4
	c-51.2-31.7-107.9-56.9-150.2-100.9c-17.9-39.3-43.2-74.7-72.9-106c-28.7-36.7-56.8-74-81.4-113.5c-10.5-9.3-20.3-19.6-31.7-28
	c0.1-21.1-2.3-43.4,5.8-63.5c-8.2,2.2-14.9,8.5-22.7,11c-0.6-5,5.4-6.7,8.7-9.1C910.3,457.2,906.9,454.3,912.2,453.2L912.2,453.2z"
	/>
<path class="st26" d="M209,431.1c-4.3,6-1.2-9-1.3-11.2C208.1,423.6,208.6,427.3,209,431.1z"/>
<path class="st4" d="M514.5,433.3c12,2.8,18.1,17.2,29,23.3c24.9,27.6,53.3,56.1,71,90.9c9.7,14.8,19.8,30.5,35.3,39.6
	c1.1,7.8,16.5,10.2,20.8,19.5c6.3,3.1,17.9,8,18.4,14.1c4.3-1.7,7.3,2.8,9.8,5.6c19.4,11.2,35.2,26.6,54.3,37.6
	c30.6,26.1,65,51.9,66.7,92.8c-3.8,1.1-2.3,3.9,0.5,5.2c-1.9,23.4,0.2,49.6-5.6,70.4c4.8,3.2-0.1,9.6-2.7,12.8
	c5.5-3.5,3.3,8.3-0.7,8c3.1,0.9,3,3.5,1,6.1c-3.1,27.5-5.2,55.1-11.5,82.4c-5.2,15,0.1,34-9.6,46.2c7.3-1.9-3.8,2.9,2.5,3.8
	c-6.2,24.7-10.2,50.7-15.5,75.3c1.9,2.5-1.4,13.3-6.9,18.1c11.8-3.6-3.8,13.5,1.3,14.9c0.7,13-10.4,24-7.7,36.1
	c-5.1,12.5-4.3,26.7-11,38.5c8.3-1.6-0.8,6.4-0.3,10.3c-3.7,22.4-9.5,47.3-14,69.8c-7.4,38.5-10.6,78.3-19.1,116.5
	c-2.1,24.4-11.4,47.7-13.6,70.8c-5.6,0.3-0.3,8.2-2.9,11.9c-12.6,38-13.9,76.6-43.7,107.3c-16.5,6.9-26.2-8.7-40.2-16.3
	c-28.2-15.6-35.8-48.7-30.3-77.9c2.8-1.7,2.8-3.9-0.7-2.2c3.1-9.3,4.2-18.9,3.4-28.7c14.8-53.8,27-111,22-163.9
	c-8,2.1-1.9-2.8-2.6-5.6c-4.3-28.4-9.7-50.3-19.4-76.2c-13.2-34.7-29.8-65.8-39-100.9c-8.2-9.7-7.2-28.6-13.9-38.3
	c0-21.6-11.8-42.6-7.8-64.3c-7.4-3.5-0.6-16.1-6.9-23.8c-6.8-66.6-16.4-133.7-19.2-198.1c0.4-3.8-5.1-9.4,0.1-15.7
	c-8.3-5.4,0.7-17.9-5.5-19.3c1.4-23.8-4.2-51.5-4.3-76.3c0.3-12-3.9-33.7-2.5-50.1c-5.4-16-0.8-43.6-5.8-62
	c7.1-14.8-4.2-37.7,6.8-48.8c-5.2-6.3,0.9-15.2,2.7-21c8.2-1.1-4.9-3.9,3.9-6.1c-4.1-8.5,8.7-12,6.4-20.3
	C512.5,443,510.9,436.5,514.5,433.3 M567.3,512.2c-36.2,51.2-10.3,115.8-11.5,176.1c6.4,36.8,8.6,78.6,15.8,120.5
	c3.1,37.9,12.5,76,15.8,114.4c5.6,8.8,4.6,23.8,8.4,35c10.4,29.6,21.7,60.6,35.7,88.8c8.4,22.6,19.8,55.1,23,81.1
	c6.7,49.6-13.9,96.2-15.3,145.1c2,13,3.4,28.7,12.7,35.8c13.7,8.7,29.2,30.8,46.3,18.3c6.5-6.7,8.2-19.5,14.3-25.1
	c-6.3-5,5.2-14.9,4-22.5c6-20.2,11.1-41.1,12.2-62.5c9.8-37.6,10.2-76.7,18.7-113.8c3.6-35.6,14.9-69.3,17.8-105
	c15.5-84.1,30.5-170.1,28-256.3c0.9-13.3-14.5-30.1-21.4-37.6c-17-15.5-37.1-31.8-57.7-44.6c-24.9-19.6-55.2-33.3-72-62
	C622.6,565.2,594.5,535.8,567.3,512.2L567.3,512.2z"/>
<path class="st27" d="M131.9,455c-15.3,0.1-6.8-6.4,3.3-2.1C130.6,452.6,126.9,453.1,131.9,455z"/>
<path class="st4" d="M567.3,512.2c27.2,23.6,55.3,53,74.7,85.7c16.8,28.8,47.1,42.5,72,62c20.7,12.8,40.7,29.1,57.7,44.6
	c6.9,7.5,22.4,24.3,21.4,37.6c2.5,86.2-12.5,172.2-28,256.3c-2.8,35.7-14.2,69.4-17.8,105c-8.4,37.1-8.8,76.2-18.7,113.8
	c-1.1,21.4-6.2,42.3-12.2,62.5c1.2,7.6-10.3,17.5-4,22.5c-6.1,5.6-7.8,18.4-14.3,25.1c-17.1,12.5-32.6-9.6-46.3-18.3
	c-9.4-7.1-10.8-22.8-12.7-35.8c1.4-48.9,22-95.5,15.3-145.1c-3.2-26-14.6-58.5-23-81.1c-14.1-28.2-25.3-59.3-35.7-88.8
	c-3.8-11.2-2.7-26.2-8.4-35c-3.4-38.5-12.7-76.6-15.8-114.4c-7.2-41.8-9.3-83.7-15.8-120.5C557.1,628,531.1,563.4,567.3,512.2
	L567.3,512.2z"/>
<path d="M453.2,673.8c7.2,29,9.6,59.8,3.8,89.2c-3.8,48.3-3.6,96.8-0.3,145.2c3.3,18.1,3.8,37,12.6,53.5
	c13.9,49.4,4.6,101.4,8.9,151.9c-12.1-42.2,4.5-92.4-9.4-136.4C456.2,934.5,451,889.7,451,845C448.6,787.8,463,730.8,453.2,673.8
	L453.2,673.8z"/>
<path class="st4" d="M994.1,743.5c2.3-0.7,2.5,5.9,3.5,7c24.4,113.3,39.9,228.2,57.4,342.7c-18.1-82.6-25.2-168.9-41.8-252.3
	C1007.8,808.2,998.9,776.2,994.1,743.5z"/>
<path class="st4" d="M850,766c4.4,36.4,1.3,81.2-0.2,120.8C847.3,848.6,851.2,805.9,850,766z"/>
<path class="st4" d="M1197.5,875.7c2.4-4.6-11.1-7.5,0-7.5c33.6,14.9,67.9,27.8,104.2,35c30.3,9.5,61.9,15.5,93.3,15.8
	c-3.6,5.4,0.7,1.4,3.8,0.6c1.1,3.5,3.8,1.9,5.2-0.4c7.8,3.3,13.9,4.2,22.2,5.4c4.6,4.1,16.1,9.9,10.6,16.1
	c0,15.2-1.2,32.7-10.4,46.8c-6.2,14.3-22.2,23.6-23.8,39.7c-9.6-26.2,31.1-39,15.3-64.9c-14.3-16.5-38-19.5-56.4-29.8
	c-26.6-8.5-52.1-20.1-79.4-25.6c-16.9-3.8-31.3-14.4-48-18.9c11.6,17.6,26.3,34.3,41.8,49.1c27.4,30.8,51.1,64.8,76.3,97.6
	c2.1,2.2,1.2,4.5-1.3,5.6c-52.1-37.1-97.2-83.3-137-133.1c13.1-5.1-4.1-5.4-3.1-13.8C1205.1,887.8,1203.3,882.2,1197.5,875.7
	L1197.5,875.7z"/>
<path class="st4" d="M1114.1,873.2c11.6,13.7,19.9,34.7,30.5,51.2c16.2,25.7,28.2,53.9,44.2,79.7c2,5.4,8.2,6.8,12.8,9.2
	c12.8,3.9,12,19.5,17.4,29.1c6.5,6.3,7.8,15.8,12.4,23.3c66.9,127.2,140.7,251.3,201.1,381.9c6.9,22.4,20.1,41.1,22.1,65.4
	c8.4,13.6-6.8,23-5.4,36.5c3.2,2.3,13.2,3.6,8.7,8.3c-21.4,3.3-39.2,16.4-60.4,20.6c-34.2,11.5-68.4,22.1-104.5,26.6
	c-20.7,5.3-42.7,2.7-62.8-4c-15.5-8.6-18.6-26.5-21.7-42.2c-20.3-86.1-29.7-174.4-47.4-261.2c-8.8-71.4-23.4-141.9-31.4-213.5
	C1120.2,1015.6,1122.2,943.2,1114.1,873.2 M1135.4,916.8c7.4,60.2,9.2,121.4,16.4,181.9c22.5,140.9,47.6,281.7,75.8,421.7
	c6.8,18,5.5,39.2,18.6,54.4c15,12.7,37.2,13,55.6,11c49.3-5.8,96.4-23.8,143.1-40c4.1-4.9-4.2-4.6-7.1-6.4
	c-3.7-5.9,0.6-13.4,4.7-18.2c2.1-20.5-9.1-38.9-14.5-58.2c-61.3-142.8-145.1-274.7-209.3-415.7c-20.6-4.4-21.4-28.5-32.8-42.2
	c-2.8-6.3-6.4-12.2-9.9-18.2C1164.2,962.8,1151.8,937.8,1135.4,916.8L1135.4,916.8z"/>
<path class="st21" d="M1168.7,886.2c-2.2-6.4,4.3,0.6,4.5,3.7c28.4,46.2,54.2,94.1,85.7,138.2c38.5,55.5,81.3,108.4,112.4,168.6
	c39.9,62.8,82.2,124.1,125.2,184.8c22.9,29.4,60.4,54.8,98.2,49c-15.2-25-34.4-56.6-20.8-86.6c-11.3,32.3,9.4,62.4,24.9,88.9
	c20.7-3,46.4,17,36,38.9c-2.1,15.2-21.8,11.1-28.6,22.5c-4.7,7.6-9.8,16-9,25.3c6,9.7,24.2,6.6,27.2,19.2
	c-0.3,2.9,4.1,12.4-1.3,11.9c-0.2-6.2-0.8-13.7-6.3-17.6c-7.6-3.8-19.1-3.4-22.8-12.6c1.5-10.8,2.2-22.9,10.5-30.9
	c9.6-10.6,29.4-10.8,30.8-27.9c-1.5-15.1-16.3-26-31.4-25.3c1.6,5.4,5.9,9.5,8.3,14.6c-8.6-2.6-9.8-16.3-19.6-14.8
	c-41.2,2.1-78.4-23.9-101.5-56.2c-32.2-46.9-64.1-93.9-96.2-140.8c-30.5-47.8-57-98.3-91.8-143.2c-12.6-15.7-23-32.9-35.1-48.9
	C1229.2,997.1,1199.6,941,1168.7,886.2L1168.7,886.2z"/>
<path class="st4" d="M1234.1,888c16.7,4.5,31.1,15.1,48,18.9c27.3,5.4,52.8,17.1,79.4,25.6c18.4,10.2,42.1,13.2,56.4,29.8
	c15.8,25.9-24.9,38.7-15.3,64.9c1.2,8.9,4.2,17.4,6.2,26.1c5.3,19.8,15.9,38.6,17.9,59.2c-18.6,1.3-24.5-21.7-38.1-30
	c-8.3-11.5-18.1-22.4-29.7-31.3c16.7,10.3,33.2,21.8,52.1,28c-20.2-12.2-41.6-23.4-60.1-38.8c2.5-1.1,3.4-3.4,1.3-5.6
	c-25.2-32.8-48.9-66.8-76.3-97.6C1260.4,922.3,1245.7,905.6,1234.1,888L1234.1,888z"/>
<path class="st4" d="M1199.9,891.1c5.8,4.2,9.5,10.6,14,16.1c39.8,49.9,84.9,96,137,133.1c18.5,15.4,39.9,26.6,60.1,38.8
	c-18.9-6.2-35.4-17.7-52.1-28c-30-25.4-62-48.4-89.8-76.2C1245.6,947.4,1220.4,921,1199.9,891.1L1199.9,891.1z"/>
<path class="st4" d="M848.1,893c2,28.9-2.7,61.3-4.5,91.5C842.6,954.1,847.5,923.6,848.1,893z"/>
<path class="st16" d="M1135.4,916.8c16.4,21,28.8,46,40.6,70.1c-9.2-9.6-10.9-29.2-22.7-34.5c7.6,46,10.8,92.7,16,139
	c26.2,146.8,54.7,293.6,89.5,438.7c3.1,14.7,11.1,31.4,27.1,35c50.5,9.9,99.9-11.4,146.1-29.2c6.5-3.1,0.8-7.6-3.8-8.2
	c-6.9-6.7,5-13.3,2.6-20.9c-3.7-30-18.9-57.1-29.6-85c-20.7-39.5-36.9-81.3-59.1-120c-38.3-74.5-78.5-148.5-112.9-225
	c-5.8-4.3-13.6-6.6-15.8-14.4c-7.8-19.8-20.8-37.2-27.5-57.4c11.4,13.7,12.2,37.8,32.8,42.2c64.2,141,148,272.9,209.3,415.7
	c5.4,19.3,16.6,37.7,14.5,58.2c-4.1,4.8-8.4,12.3-4.7,18.2c2.9,1.8,11.2,1.5,7.1,6.4c-46.7,16.2-93.8,34.2-143.1,40
	c-18.4,2-40.6,1.7-55.6-11c-13.1-15.2-11.8-36.4-18.6-54.4c-28.2-140-53.3-280.8-75.8-421.7C1144.6,1038.2,1142.8,977,1135.4,916.8
	L1135.4,916.8z"/>
<path class="st28" d="M1470.7,960.8c1.1-4.2,3-8.1,5.2-11.8C1474.6,952.8,1474.3,958.4,1470.7,960.8z"/>
<path class="st16" d="M1153.3,952.5c11.8,5.2,13.5,24.8,22.7,34.5c3.5,5.9,7.1,11.9,9.9,18.2c6.7,20.2,19.7,37.6,27.5,57.4
	c2.2,7.8,10,10.1,15.8,14.4c34.4,76.5,74.6,150.5,112.9,225c22.2,38.7,38.4,80.5,59.1,120c10.7,27.9,25.9,55,29.6,85
	c2.4,7.6-9.5,14.2-2.6,20.9c4.6,0.6,10.3,5.1,3.8,8.2c-46.2,17.8-95.6,39.1-146.1,29.2c-16-3.6-24-20.3-27.1-35
	c-34.8-145.1-63.3-291.9-89.5-438.7C1164.1,1045.2,1160.9,998.4,1153.3,952.5 M1179.8,1012.2c5.4,16.2,4.2,34,8.6,50.4
	c7.7,70.3,24.3,136.4,39.3,204.7c10.5,39.5,16.5,83.6,29.3,119.5c3,28.5,12.4,57.6,19.2,86c5.2,21.3,8.4,43.8,20.1,62.8
	c15,11.6,36.6,13.5,54.1,6.6c23.8-1.2,45.3-11,67.4-19.5c0.8-4.5-7.1-5.2-5.8-10.4c9-19.3-5-37.8-10.2-56
	c-47.7-112.6-104.6-219.7-155.9-330.8c-3.9-8.7-5.8-19.3-15.9-22.6c-2.2-3.9-4-8-6-12c-9.8-30-28.8-57.8-43-84.8
	C1178.9,1006.6,1178.4,1010.4,1179.8,1012.2L1179.8,1012.2z"/>
<path class="st4" d="M913.6,980.7c1.7-3.2,0.5-10.9,5.4-10.6c-2.2,50,3.3,99.8,3.6,149.7c5.3,61.2,0.9,123.2-2.2,184.5
	c0.9,62.1-4.8,123.3-4,185.4c-5.8,21.3,0.8,43.7-4.2,65.3c0.8,34.2-3.2,68.6-4.2,103.1c-2.6,14.5-0.2,33.6-13.8,43.1
	c-14.1,18.8-39.2,22.7-60.8,27c-29.6,1.7-60.5,5.4-89.5-1.3c7.9-4.4,9.3-13.5,4.9-21.6c-10-12.8-3.7-29.5-3.3-44.1
	c21.8-127.1,57.8-249.8,85.9-375.8c11.3-40.6,21.4-81.3,30.3-122.5c4.7-10.9,1.7-24.2,11.1-33c9.8-4.1,3.8-21.7,11.3-25.5
	c-1.5,17.5-8.1,34.1-11.3,51.3c-6.5,7.3-11.6,16-12,26.1c-33.3,151.8-75.6,301.6-103.5,454.5c-3.6,20.7-7.8,43.3,0.2,63.3
	c2.8,5.9-3.6,8.4-4.5,13c36.9,3,77.2,6.5,111.3-11.4c18.1-9.5,25.7-31.1,25.7-50.5c6.7-108.1,11.6-216.5,15.8-324.8
	c1.7-68.6,6-137.7,2.7-206.4c1.2-34.1-3.8-68.2-0.3-102.2c-7.2,12.7-8.5,29.5-13.3,43.9c-0.2,1.5-0.6,4.4-0.8,5.9
	C894.4,1040.1,908.2,1008.9,913.6,980.7L913.6,980.7z"/>
<path class="st4" d="M1269.1,974.9c27.8,27.8,59.8,50.8,89.8,76.2c11.6,8.9,21.4,19.8,29.7,31.3c13.6,8.3,19.5,31.3,38.1,30
	c-2-20.6-12.6-39.4-17.9-59.2c4,2,4.2,8.6,6.5,12.5c14.6,45.9,35.7,89.3,53.1,134c4.4,23.1,21.8,42.9,23,66.7
	c-2.4,11.6-15.1,3.2-21-0.6c-0.8-6.2-22-12.2-15.2-22.6c-4.3,4.3-11.4-3.3-9.4-8c-6.6,2.6-4.6-7.4-9.8-9.3
	c-3.9-7.9-12.6-12.7-13-21.1c-4.4,1.6-3.9,5.9-2.3,9.4c-28.4-43.8-48.4-93.3-82.9-133c-6.3-5.4,1.8,4.9,3.4,7.6
	c-12.1-10.7-14.1-24.7-20.3-39.1c-10.2-5.3-13.5-21.8-22.6-30C1290.2,1003.2,1279.1,989.5,1269.1,974.9L1269.1,974.9z"/>
<path class="st4" d="M840.4,1003.4c0.6,18-4.4,42.1-6.2,62.7c-11.6,66-20,132.8-35.6,198C813.5,1178.3,825.9,1090.2,840.4,1003.4
	L840.4,1003.4z"/>
<path class="st16" d="M1179.8,1012.2c-1.4-1.8-0.9-5.6,1.2-6.1c14.2,27,33.2,54.8,43,84.8c-8.9-16.5-16.9-33.4-24.2-50.7
	c-0.4-3-6.8-3.3-2.4,2.2c9.5,40.2,13.3,81.7,24.9,121.3c3,26.8,14.5,51.5,17.8,78.1c25.9,88.7,45.2,179.4,73.9,267.1
	c7.6,17.9,29.3,23.9,46.8,18.7c16.7-1,32.1-8,46.9-15c3.2-4-3.9-6.5-5.5-9.8c5.3-25.5-12.8-50.1-18.6-72.2
	c-41.8-96.3-89.2-191.8-131.3-288.9c-9.2-11.9-16.1-25.1-22.3-38.8c10.1,3.3,12,13.9,15.9,22.6c51.3,111.1,108.2,218.2,155.9,330.8
	c5.2,18.2,19.2,36.7,10.2,56c-1.3,5.2,6.6,5.9,5.8,10.4c-22.1,8.5-43.6,18.3-67.4,19.5c-17.5,6.9-39.1,5-54.1-6.6
	c-11.7-19-14.9-41.5-20.1-62.8c-6.8-28.4-16.2-57.5-19.2-86c-12.8-35.9-18.8-80-29.3-119.5c-15-68.3-31.6-134.4-39.3-204.7
	C1184,1046.2,1185.2,1028.4,1179.8,1012.2L1179.8,1012.2z"/>
<path class="st29" d="M1443.7,1017.8c0.8-2.9,2.3-5.6,4.2-7.9C1447.2,1012.7,1446.9,1016.7,1443.7,1017.8z"/>
<path class="st16" d="M895,1061.2c4.8-14.4,6-31.2,13.3-43.9c-3.5,34,1.5,68.1,0.3,102.2c3.2,68.7-1,137.8-2.7,206.4
	c-4.2,108.3-9.1,216.7-15.8,324.8c0,19.4-7.6,41-25.7,50.5c-34.1,17.9-74.3,14.4-111.3,11.4c0.9-4.6,7.3-7.1,4.5-13
	c-7.9-20-3.8-42.6-0.2-63.3c27.9-152.9,70.2-302.7,103.5-454.5c0.4-10.1,5.5-18.8,12-26.1c-3.5,15.6-5.1,32.1-14.7,45.6
	c-26.4,117.5-54.7,234.6-80.6,352.2c-5.3,40.7-19.4,80.8-17.5,122c5.8,7.7,3.5,15.4-2.1,22.4c17.8,5.3,38.3,3.4,57,2
	c25.2-0.5,51.3-17,57.1-42.5c8.2-115.6,16.2-231.4,21.1-347.4c6.4-78.4,3.1-157.2,5.3-235.7C899.6,1070.8,901.4,1049.5,895,1061.2
	L895,1061.2z"/>
<path class="st30" d="M1433.8,1037.8c1.7-4.9,4.2-9.5,7.1-13.9C1439.2,1028.5,1438.9,1035.6,1433.8,1037.8z"/>
<path class="st16" d="M1197.4,1042.4c-4.4-5.5,2-5.2,2.4-2.2c7.3,17.3,15.3,34.2,24.2,50.7c2,4,3.8,8.1,6,12
	c6.2,13.7,13.1,26.9,22.3,38.8c42.1,97.1,89.5,192.6,131.3,288.9c5.8,22.1,23.9,46.7,18.6,72.2c1.6,3.3,8.7,5.8,5.5,9.8
	c-14.8,7-30.2,14-46.9,15c-17.5,5.2-39.2-0.8-46.8-18.7c-28.7-87.7-48-178.4-73.9-267.1c-3.3-26.6-14.8-51.3-17.8-78.1
	C1210.7,1124.1,1206.9,1082.6,1197.4,1042.4L1197.4,1042.4z"/>
<path class="st16" d="M895,1061.2c6.5-11.7,4.6,9.6,3.4,13.1c-2.2,78.5,1.1,157.3-5.3,235.7c-4.9,116-12.8,231.8-21.1,347.4
	c-5.8,25.5-31.9,42-57.1,42.5c-18.7,1.4-39.2,3.3-57-2c5.6-7,7.9-14.7,2.1-22.4c-1.8-41.2,12.3-81.3,17.5-122
	c26-117.6,54.2-234.7,80.6-352.2c9.5-13.5,11.2-30,14.7-45.6c3.3-17.2,9.8-33.8,11.3-51.3c3.6-12.4,7.3-24.7,10-37.3
	C894.4,1065.6,894.8,1062.7,895,1061.2 M886.3,1108.2c-13.2,44.4-18.4,91.8-34.7,135.5c-7.2,37.7-15.7,75.2-24.3,112.7
	c-19.9,99.8-46.9,198.2-59.9,299.2c-1.6,7.8,7,15,1.5,22.3c-2,2.5-3.4,11.7,1.8,7.6c26.6,3.2,58.8,3.1,77-19.9
	c11.9-28.6,10.6-60.2,13.4-90.5c5.8-76.1,11.5-152.1,16.4-228.5c9.2-77.2,5.3-156.4,9.9-234.6
	C887.2,1110.6,888.9,1107.6,886.3,1108.2L886.3,1108.2z"/>
<path class="st21" d="M1430.8,1059.2c9.4,19.4,24.2,38.6,32,60C1450.2,1100.5,1436.7,1081,1430.8,1059.2z"/>
<path class="st4" d="M1341.2,1088.8c-1.6-2.7-9.7-13-3.4-7.6c34.5,39.7,54.5,89.2,82.9,133c31,48,58.7,99.1,99.2,140
	c-51.7-45.4-80.1-109.9-117.9-166.2C1385.1,1153,1363.8,1120.4,1341.2,1088.8L1341.2,1088.8z"/>
<path class="st16" d="M886.3,1108.2c2.6-0.6,0.8,2.4,1.1,3.8c-4.6,78.2-0.7,157.4-9.9,234.6c-4.9,76.4-10.7,152.4-16.4,228.5
	c-2.7,30.3-1.4,61.9-13.4,90.5c-18.3,23-50.4,23.1-77,19.9c-5.2,4.1-3.8-5.1-1.8-7.6c5.5-7.3-3-14.5-1.5-22.3
	c13-101,40-199.4,59.9-299.2c8.6-37.5,17.1-75,24.3-112.7C867.9,1200,873.2,1152.6,886.3,1108.2 M871.2,1174.2
	c-2.3,27.5-14,53.6-14.9,81c-9.2,13.8-7.7,31.4-13.6,46.6c-8.2,51.6-22.2,101.9-29.8,153.5c-15.2,63.6-29,128.1-35.4,193.2
	c4.8,7.7-7.2,23.9,8.3,20.8c20.7,3.3,44.6-6.9,47.5-29.7c7.6-40.4,7.5-81.8,13.6-122.5c10.7-114.3,22.7-228.1,27.8-343
	C873.7,1174,872.5,1174,871.2,1174.2L871.2,1174.2z"/>
<path class="st21" d="M512.3,1182.8c-19.8-15.5-31.8-42.4-33.4-65.8C485.6,1140.9,496.5,1163.5,512.3,1182.8z"/>
<path class="st4" d="M1058.2,1116.7c4.6,8.8,8.3,23.8,8,33.2C1063.1,1139,1060.7,1127.8,1058.2,1116.7z"/>
<path d="M1484.7,1149.2c26.4,29.8,56.8,57.4,77,92.1C1538.6,1208.5,1507.5,1182.3,1484.7,1149.2z"/>
<path class="st31" d="M784.4,1156.8c-6.1,75.2-18.5,151.3-43.3,223.3c-16.5,51.7-31.4,105.2-49.3,155.6
	c22.2-85.7,57.2-168.1,73.5-255.4C775.3,1239.7,775.5,1197.1,784.4,1156.8z"/>
<path class="st4" d="M1012.3,1160.9c1.5,105,1,212.3-2.3,318.1c-2.3,75,5.2,153.5-23.1,224.8c23.4-73.5,20-151.9,20.1-228
	c-2-36.9,3.9-73.8,1.9-110.7C1012.8,1297.5,1006.4,1227.4,1012.3,1160.9L1012.3,1160.9z"/>
<path class="st16" d="M871.2,1174.2c1.2-0.2,2.4-0.2,3.7-0.1c-5.1,114.9-17.1,228.7-27.8,343c-6.1,40.7-6,82.1-13.6,122.5
	c-2.9,22.8-26.8,33-47.5,29.7c-15.6,3.1-3.5-13.1-8.3-20.8c6.4-65.1,20.2-129.6,35.4-193.2c7.6-51.6,21.6-101.9,29.8-153.5
	c5.8-15.2,4.3-32.8,13.6-46.6C857.3,1227.8,868.9,1201.7,871.2,1174.2L871.2,1174.2z"/>
<path d="M520.9,1194.1c25.6,26.7,34.6,64.6,38.8,100.4c2.7,60.5-9.4,120.2-18.3,179.8c-12,65.4-2.7,133.7,22.3,195
	c14,31.1,57.7,18.9,75.5,45.3c14.8-54,27.7-113.8,48.9-165.3c-19.8,63.8-37.1,128.4-53.9,193c-0.7,15.6,7.7,31.5,21.8,38.8
	c15.4,8.4,33.2,11.1,49,18.6c50.4,1.2,103.6,14.3,152.1-4.8c20.1-4.8,40.6-8.1,61.1-10.9c-55.5,13-112.1,31.9-169.5,21.1
	c-27.4,0.8-55.4-3.6-80.4-15.4c-18-4.7-34.3-19.7-36.1-38.9c-3.7-11.4,7-22,4-33.7c-19.1-25.5-60.8-15.6-75.3-47
	c-11.9-32-21.7-65-25.9-99c-10.6-107.1,42.6-213.2,13.7-319.6C541.8,1231.4,533,1211.7,520.9,1194.1L520.9,1194.1z"/>
<path class="st32" d="M1568.9,1253c2.7,2.3,4.4,5.7,4.9,9.2C1571.6,1259.4,1570.2,1256.2,1568.9,1253z"/>
<path class="st4" d="M797.3,1264.9c2.1,8.1-2.8,16.8-3.5,25.1C792.6,1282.2,795.6,1273,797.3,1264.9z"/>
<path d="M1578.8,1275c8,9.8,7.7,24.4,4.2,34.9C1581.5,1298.2,1582.7,1286.2,1578.8,1275z"/>
<path class="st33" d="M1032,1323.1c2.3,6.7,0.7,17.7,2.1,25.9C1031.8,1341.6,1031.8,1331.6,1032,1323.1z"/>
<path class="st4" d="M780.2,1343.2c0.8,8-2.8,19.3-5.6,28.5C773.3,1363.3,778.9,1352.5,780.2,1343.2z"/>
<path d="M1060.7,1559.3c-11.9-67.7-23.9-137.8-25.9-205.1c10.8,91.6,21.9,183.6,42.2,273.8c13.3,42,23.3,85.5,44.7,124.4
	c37.4,14.3,78.6,15.6,117.9,9.1c71.4-7.9,148.2,5.6,215-26.8c20-17.6,21.2-45.9,28.1-69.9c-4.4,25.2-6.4,56.7-28.7,73.3
	c-74.1,33.9-158.2,19.2-236.8,29.1c-34.6,4.1-69.1-2.8-101.8-13.6c-22.9-5-45.7-10.4-68.2-17.1c-15.2-4.5-26.8,7.9-40.4,11.3
	c5.5-9.2,17-12.6,26.9-14.3c30-2.6,55.9,15.4,85.1,18.5C1088.9,1691.5,1072.4,1625.5,1060.7,1559.3L1060.7,1559.3z"/>
<path class="st34" d="M771.3,1385.1C773.4,1392.6,766.1,1394.7,771.3,1385.1z"/>
<path class="st4" d="M1485,1490.2c32.1,19.3,64.9,43.6,102.6,47.5c-35.8,3.2-63.3-22.8-92.8-38.5
	C1491.4,1496.8,1484.9,1495.5,1485,1490.2L1485,1490.2z"/>
<path class="st21" d="M1507.7,1629.8c43.4-14,83.3-40.4,113-75.1c-14.5,27.7-43.9,41.2-67.9,59.1c-18.7,14.4-47.5,12.7-61.4,33.7
	c-2.8,3.3-2.1,9.9-6.7,11.2C1487.1,1646.1,1495.3,1634,1507.7,1629.8L1507.7,1629.8z"/>
<path d="M928.9,1781.8c24.8-6.3,49.5-14.5,71-28.9C980.1,1769.6,955.6,1782.6,928.9,1781.8z"/>
</svg>
