<svg id="Layer_1" data-name="Layer 1" xmlns="http://www.w3.org/2000/svg" viewBox="0 0 512 512"><title>pinocchio</title><path d="M63.28,120.93A7.95,7.95,0,0,0,52,132.17l32.19,32.18a7.94,7.94,0,1,0,11.24-11.23Z"/><path d="M453.28,257V236.24a7.95,7.95,0,1,0-15.89,0V257a7.95,7.95,0,1,0,15.89,0Z"/><path d="M127.09,376.62a8,8,0,0,0-5.25,9.94,98.75,98.75,0,0,0,17.38,32.75,8,8,0,0,0,12.41-9.94,82.76,82.76,0,0,1-14.6-27.5A8,8,0,0,0,127.09,376.62Z"/><path d="M319.51,336.76H293.66a7.95,7.95,0,0,0,0,15.89h25.85a7.95,7.95,0,0,0,0-15.89Z"/><path d="M417.05,345.07H361.11a7.95,7.95,0,1,0,0,15.89h55.94a7.95,7.95,0,0,0,0-15.89Z"/><path d="M469,315.35H435.77l16-16a11,11,0,0,0,2-1.66c7.11-7.39,23.66-27.19,23.66-51.11s-16.55-43.72-23.66-51.12a11.66,11.66,0,0,0-16.83,0c-7.11,7.4-23.66,27.19-23.66,51.12,0,21.1,12.87,39,20.79,48l-20.76,20.76H371.43V287.22a155,155,0,0,0-1.69-22.78H370a28,28,0,0,0,24.69-41.26,409.53,409.53,0,0,0-210-187l-87-34.44a24.61,24.61,0,0,0-32.9,29,260.41,260.41,0,0,1,7.69,50.78c-17.84-7.75-37-1.8-49.37,10.52-15.68,15.68-21,42.54-1,63.52.78.82,1.58,1.63,2.39,2.44a171.88,171.88,0,0,0,33,25.56,262.27,262.27,0,0,1-17.85,39.25,28,28,0,0,0,17.09,40.71V293.4a64,64,0,0,0,6.66,84.09,154.69,154.69,0,0,0,305.89,5.59H469a33.87,33.87,0,1,0,0-67.73Zm-39.88-68.74c0-15.43,9.72-29.27,16.18-36.76,6.47,7.49,16.18,21.33,16.18,36.76s-9.71,29.26-16.18,36.75C438.87,275.87,429.15,262,429.15,246.61ZM35.76,146.71c-.73-.72-1.44-1.45-2.15-2.19-13.7-14.32-9.51-31.06.73-41.29C41,96.54,48.28,93.8,55.16,93.8a30,30,0,0,1,20.47,8.7c.74.71,1.47,1.42,2.19,2.14,27.23,27.23,39.78,62.9,44.84,81.73a4.22,4.22,0,0,1-5.18,5.18C98.65,186.49,63,173.94,35.76,146.71Zm17.88,95.85a12,12,0,0,1-.13-12.05,278.17,278.17,0,0,0,18.07-39.3,226.42,226.42,0,0,0,41.78,15.69,20.27,20.27,0,0,0,5.32.71A20.14,20.14,0,0,0,138,182.25c-6.68-24.88-20.6-60.49-48.95-88.85l-.34-.33a277.19,277.19,0,0,0-8.54-66.3A8.71,8.71,0,0,1,91.83,16.52l87,34.43a393.63,393.63,0,0,1,201.8,179.74A12.12,12.12,0,0,1,370,248.54H64.1A12,12,0,0,1,53.64,242.56Zm57.62,28.88A14.33,14.33,0,0,0,100,268a63.59,63.59,0,0,0-27.33,10.28V264.43h75.26v24.36a33.19,33.19,0,0,1-31.69,33.11V282.32A14.48,14.48,0,0,0,111.26,271.44ZM59.94,331.63A48.38,48.38,0,0,1,100.3,284v15a33.62,33.62,0,0,0,0,65.35v15A48.38,48.38,0,0,1,59.94,331.63ZM100.3,315.8v31.67a17.7,17.7,0,0,1,0-31.67ZM216.75,496.11a138.57,138.57,0,0,1-134.88-106A63.5,63.5,0,0,0,100,395.3a16,16,0,0,0,1.83.11A14.45,14.45,0,0,0,116.19,381V337.8a49.1,49.1,0,0,0,47.58-49V264.44H353.66a141.43,141.43,0,0,1,1.6,14.1,36.23,36.23,0,0,0-56.33,30.16,8,8,0,0,0,3.59,6.65h-11.4a33.87,33.87,0,0,0-7.29,66.94H231.65A17.48,17.48,0,0,0,214.46,403a68.64,68.64,0,0,0,111.77,39.65A138.86,138.86,0,0,1,216.75,496.11ZM355.54,308.7v6.65H311.23a8,8,0,0,0,3.59-6.65,20.36,20.36,0,0,1,40.72,0ZM242.2,425c2.3-.2,4.6-.31,6.91-.31a79.09,79.09,0,0,1,48.05,16.08,52.77,52.77,0,0,1-55-15.77Zm91.55-24.9a52.6,52.6,0,0,1-21,33,94.89,94.89,0,0,0-63.64-24.26,96.29,96.29,0,0,0-16.06,1.37,52.73,52.73,0,0,1-3-10.07,1.57,1.57,0,0,1,.34-1.3,1.59,1.59,0,0,1,1.24-.58H332.18a1.57,1.57,0,0,1,1.23.58A1.54,1.54,0,0,1,333.75,400.06Zm15.79-2.27a17.4,17.4,0,0,0-12.2-14.71h15.8A139.69,139.69,0,0,1,349.54,397.79ZM469,367.19H291.12a18,18,0,1,1,0-35.95H469a18,18,0,0,1,0,35.95Z"/><path d="M238.57,308.7a7.95,7.95,0,1,0,15.89,0,36.25,36.25,0,0,0-72.5,0,8,8,0,0,0,15.9,0,20.36,20.36,0,0,1,40.71,0Z"/><path d="M180.07,456.84a108.27,108.27,0,0,1-51.51-40.56,8,8,0,1,0-13.17,8.91,124.35,124.35,0,0,0,59.14,46.54,7.94,7.94,0,1,0,5.54-14.89Z"/><path d="M125.59,371.51l.55,0a7.94,7.94,0,0,0,7.39-8.46c-.13-1.9-.19-3.82-.19-5.71a7.95,7.95,0,1,0-15.89,0c0,2.25.07,4.53.22,6.78A8,8,0,0,0,125.59,371.51Z"/></svg>