<svg id="Layer_1" data-name="Layer 1" xmlns="http://www.w3.org/2000/svg" viewBox="0 0 457 293"><defs><style>.cls-1{fill:#a57a5c;}.cls-2{fill:#ddbfa0;}.cls-3{fill:#b78665;}.cls-4{fill:#9fb868;}.cls-5{fill:#9ab264;}.cls-6{fill:#a69770;}.cls-7{fill:#8d7e57;}.cls-8{fill:#b9d577;}.cls-9{fill:#fbdbaa;}.cls-10{fill:#b9a481;}.cls-11{fill:#fff9bc;}.cls-12{fill:#f2b277;}.cls-13{fill:#f7d4de;}.cls-14{fill:#e15d29;}.cls-15{fill:#fffffe;}.cls-16{fill:#fce2b4;}.cls-17{fill:#f5c4ad;}.cls-18,.cls-28{fill-opacity:0;stroke-linecap:round;stroke-linejoin:round;}.cls-18{stroke:#9d6e51;}.cls-19{fill:#fff8b4;}.cls-20{fill:#b5aac8;}.cls-21{fill:#d8a06b;}.cls-22{fill:#8ec9a0;}.cls-23{fill:#f3b778;}.cls-24{fill:#9d6e51;}.cls-25{fill:#ed9e9a;}.cls-26{fill:#ba8e74;}.cls-27{fill:#e38380;}.cls-28{stroke:#fffffe;stroke-width:0.43px;}.cls-29{fill:#f3b9a0;}.cls-30{fill:#f2bec9;}.cls-31{fill:#a3a3a2;}.cls-32{fill:#f2af6a;}.cls-33{fill:#b4875b;}.cls-34{fill:#a0c2ce;}.cls-35{fill:#e4e4e3;}</style></defs><title>family-02</title><g id="Layer_1-2" data-name="Layer 1"><path class="cls-1" d="M357.36,206.43c4.41-18,11.24-35.77,6.86-54.87C360.39,134.84,343.4,126,327.37,126H109.05c-16,0-33,8.81-36.85,25.53-4.35,18.94,2.33,36.57,6.74,54.42L354.3,207.7"/><path class="cls-2" d="M66.37,251.54l8,31.14H83L81.94,249.4l-15.57,2.14"/><path class="cls-2" d="M370.76,251.54l-8.06,31.14h-8.59l1.08-33.28,15.57,2.14"/><path class="cls-3" d="M58.78,256.25h320s37.42-62.46-11.17-53.52H87.84c-17.51,0-43.07-13.17-42.94,16.35.08,16.36,7.7,22.48,13.88,37.17"/><path class="cls-4" d="M428.81,212.62s-10.46-4.44-6.53,6.79c1.82,5.23,5.61,9.68,9.74,13.25,2.79,2.41,8.92,5.67,9.33,9.75a79,79,0,0,0-5.08-21.87c-1.07-2.66-2.21-5.68-4-7.95-.43-.54-1.15-1.74-2-1.66-.44,0-1.65,1.61-1.46,1.69"/><path class="cls-5" d="M430.55,247s-7.82-27.13-5.06-65.76c0,0,1.84-28-2.76-48.28,0,0,7.82,9.66,6,46.91,0,0-2.29,38.62,5.75,67.36l-3.91-.23"/><path class="cls-5" d="M427.51,160.88c-.79-.53-9.68-14.12-9.94-20.39s0-1.05,0-1.05,6.8,14.12,9.41,15.16l.53,6.28"/><path class="cls-5" d="M427.24,172.9s-7.58-7.06-7.84-15.16l1.31-2.09s2.09,10.71,7.05,12.54l-.52,4.71"/><path class="cls-5" d="M417.57,196.94s3.92,12.28,9.67,12.8v-3.13s-6.53-5.49-6.79-12.28l-2.88,2.61"/><path class="cls-5" d="M431.42,179.17s-2.35,10.45-5.23,13.06l-.26,3.14s8.37-9.4,8.37-15.16l-2.88-1"/><path class="cls-5" d="M427.51,138.13s2.61,8.89-.79,15.17l.26,4.44s8.88-9.67.53-20.39"/><path class="cls-6" d="M415.84,248.65l6.89,34h23.92l6.89-34h-37.7"/><path class="cls-7" d="M412.16,245.44h44.6v3.21h-44.6Z"/><path class="cls-8" d="M417.83,190.4s-11.5-5.48-13.85,8.37c-1.63,9.57-4.92,18.45-5,28.35.08-5.11,3.24-9.48,6-13.53,2-2.91,4.88-9.86,8.88-10.38,0,0,18-6.53,3.92-12.81"/><path class="cls-8" d="M433.94,175c-.77.34-1.5.7-2.14,1.05-10.41,5.57,7.34,19,10.77,23.81a22.76,22.76,0,0,1,4.53,10.9c-.22-2.39.41-5,.27-7.51-.35-6.21-2.86-11.91-3.38-18-.25-2.89.85-6.41-.69-9-2-3.44-6.1-2.58-9.36-1.18"/><path class="cls-8" d="M420.71,155.65s-5.23-5-12,1.3c0,0-3.91,3.4-6,10.46,0,0-8.1,10.19-9.14,17.51,0,0,6.27-9.93,14.37-13.59,0,0,21.17-8.37,12.81-15.68"/><path class="cls-8" d="M418.88,142.84s-17.78-31.62-11.5-49.92c0,0,3.66,17,7.32,21.44,0,0,8.36,7,3.39,22a62.84,62.84,0,0,1,.79,6.53"/><path class="cls-8" d="M428.55,142.58c-.45-3-3.49-2.31-3.14-5.63,1.1-10.4,12-15.85,15.94-24.95-.8,8.28-1.24,16.83-3.75,24.82-1.19,3.81-7.22,18-9.05,5.76"/><path class="cls-9" d="M364.88.53h80.41v71.4H364.88Z"/><path class="cls-10" d="M368.73,4.38h70.78V66.16H368.73Z"/><path class="cls-11" d="M369.7,5.34h70.78V67.12H369.7Z"/><path class="cls-12" d="M404.88,29.31a12.75,12.75,0,1,1-12.75-12.75,12.75,12.75,0,0,1,12.75,12.75"/><path class="cls-9" d="M408.07,39.13a6.65,6.65,0,1,1-6.65-6.63,6.64,6.64,0,0,1,6.65,6.63"/><path class="cls-13" d="M390.53,56.4a5.31,5.31,0,1,1-5.31-5.32,5.31,5.31,0,0,1,5.31,5.32"/><path class="cls-9" d="M432.77,20.27A8.24,8.24,0,1,1,424.53,12a8.24,8.24,0,0,1,8.24,8.23"/><path class="cls-12" d="M435.69,55.87a7.44,7.44,0,1,1-7.44-7.44,7.44,7.44,0,0,1,7.44,7.44"/><path class="cls-14" d="M426.12,49a5.84,5.84,0,1,1-5.84-5.84A5.83,5.83,0,0,1,426.12,49"/><path class="cls-15" d="M417.62,37.8a3.19,3.19,0,1,1-3.18-3.18,3.18,3.18,0,0,1,3.18,3.18"/><path class="cls-2" d="M24.31,67.52h2.88v211.6H24.31Z"/><path class="cls-2" d="M25.76,268.21l8.68,14.47H17.07l8.69-14.47"/><path class="cls-16" d="M13.83,54.69.94,105.12H50.58L37.68,54.69H13.83"/><path class="cls-17" d="M291.57,98.81s-4.56-.67-2.14,4.57c0,0,1.87,3.89,5.23,3.49"/><path class="cls-18" d="M291.57,98.81s-4.56-.67-2.14,4.57c0,0,1.87,3.89,5.23,3.49"/><path class="cls-17" d="M326.06,93.58s3.76-2.82,4.56,2.15c0,0,.28,5.77-4.42,5.9"/><path class="cls-18" d="M326.06,93.58s3.76-2.82,4.56,2.15c0,0,.28,5.77-4.42,5.9"/><path class="cls-19" d="M329.28,192.62l12.35,2.69a21.84,21.84,0,0,1,2.89,9.34,12.43,12.43,0,0,1-4.07,9.84,15.06,15.06,0,0,1-10,3.5,23.77,23.77,0,0,1-15.4-6.31l-5-10.89"/><path class="cls-18" d="M329.28,192.62l12.35,2.69a21.84,21.84,0,0,1,2.89,9.34,12.43,12.43,0,0,1-4.07,9.84,15.06,15.06,0,0,1-10,3.5,23.77,23.77,0,0,1-15.4-6.31l-5-10.89"/><path class="cls-17" d="M356.15,202.39l-10.52-39.31-8.14,2L350,200.67"/><path class="cls-18" d="M356.15,202.39l-10.52-39.31-8.14,2L350,200.67"/><path class="cls-17" d="M288.75,166.32c-.44,2-.89,4-1.34,6-1.89-.38-20.93-3.5-20.93-4.16v5.9L286.8,180c1.38.4,2.75.83,4.13,1.23,1.77.5,2.64-.21,3-2s.7-3.5,1.08-5.24c.2-.88,1.13-7.43,2.46-7.39Z"/><path class="cls-18" d="M288.75,166.32c-.44,2-.89,4-1.34,6-1.89-.38-20.93-3.5-20.93-4.16v5.9L286.8,180c1.38.4,2.75.83,4.13,1.23,1.77.5,2.64-.21,3-2s.7-3.5,1.08-5.24c.2-.88,1.13-7.43,2.46-7.39Z"/><path class="cls-17" d="M308.21,116.23s2.42,10.2-5.1,13.69l3.9,9.67,15.7-1.21.4-11.14s-7.11-.41-7.78-12.35Z"/><path class="cls-18" d="M308.21,116.23s2.42,10.2-5.1,13.69l3.9,9.67,15.7-1.21.4-11.14s-7.11-.41-7.78-12.35Z"/><path class="cls-20" d="M301.24,151.15l-1.88,19.46a17.25,17.25,0,0,1-14.77-4.83c.37-1,.73-1.94,1.07-2.92,2.79-8,3.9-12.9,6.32-23.65,1-4.42,5.19-7.86,9.27-9.69l2.67-1.2s.44,10.53,9.36,10.09c0,0,10,.73,8.35-12.43l3.72,1.15s9.84,3.36,12.79,7.25c4.21,5.55,4.32,13.27,6,19.73.88,3.31,3.71,7.82,5,11,0,0-10,6.32-17.38,2.29,0,0-.8-16.77.14-23.08"/><path class="cls-18" d="M301.24,151.15l-1.88,19.46a17.25,17.25,0,0,1-14.77-4.83c.37-1,.73-1.94,1.07-2.92,2.79-8,3.9-12.9,6.32-23.65,1-4.42,5.19-7.86,9.27-9.69l2.67-1.2s.44,10.53,9.36,10.09c0,0,10,.73,8.35-12.43l3.72,1.15s9.84,3.36,12.79,7.25c4.21,5.55,4.32,13.27,6,19.73.88,3.31,3.71,7.82,5,11,0,0-10,6.32-17.38,2.29,0,0-.8-16.77.14-23.08"/><path class="cls-21" d="M306.68,69.11a24.94,24.94,0,0,1-3,.59,7.41,7.41,0,0,1-6.42-3.89c-1.89-4.3,4.64-7.94,8.15-7.6a1.38,1.38,0,1,1-.19,2.74c-1.35-.13-1.83-2.31-1.51-3.42.74-2.55,5.3-3.18,7.44-3.08,2.56.1,1.6,2.23.22,1.88-1-.26-1.05-1.91-1-2.68.22-2.3,2.21-3.13,4.3-3.46s11.6-1.62,10.73,2.88c-.39,2.06-3,2.69-4.78,2.44-.45-1.2,2.21-1.08,2.77-1.06,2.23.07,6.22,1.07,7.16,3.38,1,2.52-2.5,4.48-4.32,5.37-2.48,1.21-7.57,2.87-8.82-.86-.73-2.19,2-2.52,3.51-2.54,2.23,0,4.82.35,6.42,2.06,1.3,1.39.77,3.34-1.24,3.47,0-.11,0-.25,0-.36a3.15,3.15,0,0,1,3.88.9c1.64,2.37-2.91,2.91-2.81,1.66,1-.55,3.92-.62,4.66.53,1.34,2.09-1.84,4.14-3.36,4.65a24,24,0,0,1-14,.13c-1.75-.51-4.9-1.23-6.27-2.39Z"/><path class="cls-18" d="M306.68,69.11a24.94,24.94,0,0,1-3,.59,7.41,7.41,0,0,1-6.42-3.89c-1.89-4.3,4.64-7.94,8.15-7.6a1.38,1.38,0,1,1-.19,2.74c-1.35-.13-1.83-2.31-1.51-3.42.74-2.55,5.3-3.18,7.44-3.08,2.56.1,1.6,2.23.22,1.88-1-.26-1.05-1.91-1-2.68.22-2.3,2.21-3.13,4.3-3.46s11.6-1.62,10.73,2.88c-.39,2.06-3,2.69-4.78,2.44-.45-1.2,2.21-1.08,2.77-1.06,2.23.07,6.22,1.07,7.16,3.38,1,2.52-2.5,4.48-4.32,5.37-2.48,1.21-7.57,2.87-8.82-.86-.73-2.19,2-2.52,3.51-2.54,2.23,0,4.82.35,6.42,2.06,1.3,1.39.77,3.34-1.24,3.47,0-.11,0-.25,0-.36a3.15,3.15,0,0,1,3.88.9c1.64,2.37-2.91,2.91-2.81,1.66,1-.55,3.92-.62,4.66.53,1.34,2.09-1.84,4.14-3.36,4.65a24,24,0,0,1-14,.13c-1.75-.51-4.9-1.23-6.27-2.39Z"/><path class="cls-22" d="M240.85,231.28c.82,2.46,2.86,5.32,5.66,3.49,2.37-1.56,2-4.62,1.31-7s-2.87-6.57-6-5.24C238.46,224,240,228.8,240.85,231.28Z"/><path class="cls-18" d="M240.85,231.28c.82,2.46,2.86,5.32,5.66,3.49,2.37-1.56,2-4.62,1.31-7s-2.87-6.57-6-5.24C238.46,224,240,228.8,240.85,231.28Z"/><path class="cls-22" d="M252.11,228.19c0,2.18.15,5.39,2.41,6.62,2.5,1.34,4.45-2.32,4.85-4.31.58-2.88.13-6.69-3.21-7.6S252.15,225.73,252.11,228.19Z"/><path class="cls-18" d="M252.11,228.19c0,2.18.15,5.39,2.41,6.62,2.5,1.34,4.45-2.32,4.85-4.31.58-2.88.13-6.69-3.21-7.6S252.15,225.73,252.11,228.19Z"/><path class="cls-23" d="M230.1,204.17c-.95.24-1.56-3.91-1.61-4.57a4.85,4.85,0,0,1,3.22-5.23c7.92-2.68,11.89,1.57,18.25.67,5.23-.74,13.59-4.35,17.78,0,3.43,3.53.88,8.36-.6,10.11-.88,1-3.82,1.35-4,0s.58-.66-.81-.94-1.24,0-2.28.27-2.93.45-4.16.67c-2.6.45-3.28-1.08-5.9-1.08-1.78,0-5.48,1.55-8.59.67a47.22,47.22,0,0,0-5.1-1.47c-1.31-.15-3.18.64-4.16.4Z"/><path class="cls-18" d="M230.1,204.17c-.95.24-1.56-3.91-1.61-4.57a4.85,4.85,0,0,1,3.22-5.23c7.92-2.68,11.89,1.57,18.25.67,5.23-.74,13.59-4.35,17.78,0,3.43,3.53.88,8.36-.6,10.11-.88,1-3.82,1.35-4,0s.58-.66-.81-.94-1.24,0-2.28.27-2.93.45-4.16.67c-2.6.45-3.28-1.08-5.9-1.08-1.78,0-5.48,1.55-8.59.67a47.22,47.22,0,0,0-5.1-1.47c-1.31-.15-3.18.64-4.16.4Z"/><path class="cls-22" d="M234.31,164.94c.25-.06.32,0,.22.16a16.17,16.17,0,0,0-4.21,4.08c-1.28,1.82-1.42,3.87-1.42,6,0,3.67.34,9.27,3.32,11.69a7.49,7.49,0,0,0,4.4,1.41c3,0,4.08-4.57,4.5-7,.46-2.59,1.18-6.22.18-8.77a26.4,26.4,0,0,0-1.92-3.12c-1.09-1.93-3.09-3-4.2-4.85Z"/><path class="cls-18" d="M234.31,164.94c.25-.06.32,0,.22.16a16.17,16.17,0,0,0-4.21,4.08c-1.28,1.82-1.42,3.87-1.42,6,0,3.67.34,9.27,3.32,11.69a7.49,7.49,0,0,0,4.4,1.41c3,0,4.08-4.57,4.5-7,.46-2.59,1.18-6.22.18-8.77a26.4,26.4,0,0,0-1.92-3.12c-1.09-1.93-3.09-3-4.2-4.85Z"/><path class="cls-22" d="M235.07,165.11c-.56,3.1,2.28,5.3,2.77,8.39a52.58,52.58,0,0,1,.89,10.16c-.12,3.64-1.43,6.26-2.55,9.58-.11.34,6.89,2,7.4,2.1,3.93.63,7.84-.06,11.71-.79,2.35-.44,4.62,0,7-.05a34.55,34.55,0,0,1,4.83-.26s-2-4.93-1.74-6.18c.38-1.92,2.14-1.68,3.58-2.68,6.41-4.46,4.55-12.31,1.62-18.25-1.51-3.07-3.33-6.58-6.54-8.2a51.9,51.9,0,0,0-6.41-2.67,20.6,20.6,0,0,0-10.46-.47C242.29,156.69,236.05,159.65,235.07,165.11Z"/><path class="cls-18" d="M235.07,165.11c-.56,3.1,2.28,5.3,2.77,8.39a52.58,52.58,0,0,1,.89,10.16c-.12,3.64-1.43,6.26-2.55,9.58-.11.34,6.89,2,7.4,2.1,3.93.63,7.84-.06,11.71-.79,2.35-.44,4.62,0,7-.05a34.55,34.55,0,0,1,4.83-.26s-2-4.93-1.74-6.18c.38-1.92,2.14-1.68,3.58-2.68,6.41-4.46,4.55-12.31,1.62-18.25-1.51-3.07-3.33-6.58-6.54-8.2a51.9,51.9,0,0,0-6.41-2.67,20.6,20.6,0,0,0-10.46-.47C242.29,156.69,236.05,159.65,235.07,165.11Z"/><path class="cls-17" d="M249.57,162a4.21,4.21,0,0,0,5.23-1.77,4,4,0,0,0-1.2-5.08c-1.59-1.07-4.34-.51-5.67.75C246,157.78,247.6,161.34,249.57,162Z"/><path class="cls-18" d="M249.57,162a4.21,4.21,0,0,0,5.23-1.77,4,4,0,0,0-1.2-5.08c-1.59-1.07-4.34-.51-5.67.75C246,157.78,247.6,161.34,249.57,162Z"/><path class="cls-17" d="M234,145.25a1.78,1.78,0,0,0-3,0c-1.08,1.44-.29,3.4.74,4.78a2.26,2.26,0,0,0,3,1"/><path class="cls-18" d="M234,145.25a1.78,1.78,0,0,0-3,0c-1.08,1.44-.29,3.4.74,4.78a2.26,2.26,0,0,0,3,1"/><path class="cls-17" d="M266.84,144.22a1.92,1.92,0,0,1,2.85-1.12c3.81,2.72-1.53,8.75-3.45,5.79"/><path class="cls-18" d="M266.84,144.22a1.92,1.92,0,0,1,2.85-1.12c3.81,2.72-1.53,8.75-3.45,5.79"/><path class="cls-17" d="M266.62,138.53c4.54,19.26-14.9,20.71-14.9,20.71-23.44,1.46-17.63-20.17-17.63-20.17l7.42-11s15.84-1.74,16.24-1.74S266.62,138.53,266.62,138.53Z"/><path class="cls-18" d="M266.62,138.53c4.54,19.26-14.9,20.71-14.9,20.71-23.44,1.46-17.63-20.17-17.63-20.17l7.42-11s15.84-1.74,16.24-1.74S266.62,138.53,266.62,138.53Z"/><path class="cls-24" d="M243.54,149.07a1.45,1.45,0,1,1-1.45-1.45,1.45,1.45,0,0,1,1.45,1.45"/><path class="cls-24" d="M259.17,147.8a1.46,1.46,0,1,1-1.45-1.46,1.45,1.45,0,0,1,1.45,1.46"/><path class="cls-18" d="M249,151.61s1.64,2.36,2.91-.18"/><path class="cls-25" d="M253.35,157.06a2,2,0,1,1-2-1.63A1.84,1.84,0,0,1,253.35,157.06Z"/><path class="cls-18" d="M253.35,157.06a2,2,0,1,1-2-1.63A1.84,1.84,0,0,1,253.35,157.06Z"/><path class="cls-26" d="M249.13,119.43s-2.08-3.8-8.81-1.21c0,0,3.19.52,4.4,1.9,0,0-10.45-.35-14.86,11.06,0,0-2.5,10.1,3.8,16.24,0,0-.34-5,4.93-9.85,0,0-2.85,5.27-3.11,7,0,0,4.14-3.29,7.25-6.4l-2.16,5a41.36,41.36,0,0,0,11.75-12.61s2.33,8.56,11.06,11c0,0-3-5-3.2-6,0,0,3,5.65,5.62,7.12l-.69-5.73s2.26,7.2,2.17,9.62c2.82-5.1,4.54-9.13,3.88-14.71-.56-4.77-5.46-9.78-10-11.07-.71-.2-4.22-1-4.75-.43,0,0,2.42-2.68,5.27-2.42,0,0-6-2.5-10.28,1.64,0,0-.78-3.19-2.76-3.8C248.61,115.8,249.64,118.05,249.13,119.43Z"/><path class="cls-18" d="M249.13,119.43s-2.08-3.8-8.81-1.21c0,0,3.19.52,4.4,1.9,0,0-10.45-.35-14.86,11.06,0,0-2.5,10.1,3.8,16.24,0,0-.34-5,4.93-9.85,0,0-2.85,5.27-3.11,7,0,0,4.14-3.29,7.25-6.4l-2.16,5a41.36,41.36,0,0,0,11.75-12.61s2.33,8.56,11.06,11c0,0-3-5-3.2-6,0,0,3,5.65,5.62,7.12l-.69-5.73s2.26,7.2,2.17,9.62c2.82-5.1,4.54-9.13,3.88-14.71-.56-4.77-5.46-9.78-10-11.07-.71-.2-4.22-1-4.75-.43,0,0,2.42-2.68,5.27-2.42,0,0-6-2.5-10.28,1.64,0,0-.78-3.19-2.76-3.8C248.61,115.8,249.64,118.05,249.13,119.43Z"/><path class="cls-27" d="M228.65,161.41s4,20.65,3.8,27.82c0,0,16,1.38,18.58,5.27a27.73,27.73,0,0,1,17.53-7.09s-1.21-23.06,1.13-27.64c0,0-13.39,2.25-19.35,10.45C250.34,170.22,239.36,162,228.65,161.41Z"/><path class="cls-18" d="M228.65,161.41s4,20.65,3.8,27.82c0,0,16,1.38,18.58,5.27a27.73,27.73,0,0,1,17.53-7.09s-1.21-23.06,1.13-27.64c0,0-13.39,2.25-19.35,10.45C250.34,170.22,239.36,162,228.65,161.41Z"/><path class="cls-28" d="M250.34,170.22,251,194.5"/><path class="cls-29" d="M227.79,176.51a2.4,2.4,0,0,1,1.47-2.64c1-.59,2.57-1,3.45.07s.4,1.78.21,2.75c1,.11.92,2.25.35,2.78,1,.42.42,1.54-.1,2.13a2.48,2.48,0,0,1-3,.65,2.34,2.34,0,0,1-1.29-1.92C228.61,179.06,228,177.8,227.79,176.51Z"/><path class="cls-18" d="M227.79,176.51a2.4,2.4,0,0,1,1.47-2.64c1-.59,2.57-1,3.45.07s.4,1.78.21,2.75c1,.11.92,2.25.35,2.78,1,.42.42,1.54-.1,2.13a2.48,2.48,0,0,1-3,.65,2.34,2.34,0,0,1-1.29-1.92C228.61,179.06,228,177.8,227.79,176.51Z"/><path class="cls-29" d="M271.56,174.2a2.42,2.42,0,0,0-1.14-1.35,5,5,0,0,0-3-.65c-1.62.34-1.58,2.39-1,3.44a1.48,1.48,0,0,0-.86,1.41,2.31,2.31,0,0,0,.09,1c.08.23.44.54.48.7.12.47-.29,1-.22,1.6.1.9.44,1,1.23,1.12,1.5.18,2.36-.56,3.18-1.73S272.16,175.93,271.56,174.2Z"/><path class="cls-18" d="M271.56,174.2a2.42,2.42,0,0,0-1.14-1.35,5,5,0,0,0-3-.65c-1.62.34-1.58,2.39-1,3.44a1.48,1.48,0,0,0-.86,1.41,2.31,2.31,0,0,0,.09,1c.08.23.44.54.48.7.12.47-.29,1-.22,1.6.1.9.44,1,1.23,1.12,1.5.18,2.36-.56,3.18-1.73S272.16,175.93,271.56,174.2Z"/><path class="cls-17" d="M244,221.44c-.8-2.46-1.22-5.05-1.86-7.56-.8-3.11-1.59-6.19-2.14-9.36-.49-2.77-.94-6.05-2.49-8.46a5.36,5.36,0,0,0-7.16-1.38c-.91.57-1,1.67-1.22,2.68-.47,2.51.23,5.31.91,7.73a52.89,52.89,0,0,0,5.14,11.56c1.71,3.06,5,6.91,5.41,10.47,0,0,.54,4.15,3.49,3.49,0,0,3.62-.41,2.28-4.83-.2-.66-1.19-1.41-1.51-2.12A19.17,19.17,0,0,1,244,221.44Z"/><path class="cls-18" d="M244,221.44c-.8-2.46-1.22-5.05-1.86-7.56-.8-3.11-1.59-6.19-2.14-9.36-.49-2.77-.94-6.05-2.49-8.46a5.36,5.36,0,0,0-7.16-1.38c-.91.57-1,1.67-1.22,2.68-.47,2.51.23,5.31.91,7.73a52.89,52.89,0,0,0,5.14,11.56c1.71,3.06,5,6.91,5.41,10.47,0,0,.54,4.15,3.49,3.49,0,0,3.62-.41,2.28-4.83-.2-.66-1.19-1.41-1.51-2.12A19.17,19.17,0,0,1,244,221.44Z"/><path class="cls-17" d="M261.11,219.31c2.32-4.56,3.5-10.05,4.66-15,.49-2.06,1.31-4.39.83-6.51a4.79,4.79,0,0,0-3.37-3.44,4.27,4.27,0,0,0-3.9.68c-1.52,1.19-2,3.8-2.38,5.64-1,5.14-1.11,10.25-1.61,15.43-.19,1.85-.51,3.65-.81,5.47a8.44,8.44,0,0,1-.85,3.8s-.81,3.6,1.66,4.55c0,0,3.21.68,3.35-3.75a32.14,32.14,0,0,1,2.28-6.45"/><path class="cls-18" d="M261.11,219.31c2.32-4.56,3.5-10.05,4.66-15,.49-2.06,1.31-4.39.83-6.51a4.79,4.79,0,0,0-3.37-3.44,4.27,4.27,0,0,0-3.9.68c-1.52,1.19-2,3.8-2.38,5.64-1,5.14-1.11,10.25-1.61,15.43-.19,1.85-.51,3.65-.81,5.47a8.44,8.44,0,0,1-.85,3.8s-.81,3.6,1.66,4.55c0,0,3.21.68,3.35-3.75a32.14,32.14,0,0,1,2.28-6.45"/><path class="cls-17" d="M324.52,86c7.65,28-13.89,30.8-13.89,30.8-18.52.6-20.13-25.17-20.13-25.17l1.23-7.39,22.41-8.38Z"/><path class="cls-18" d="M324.52,86c7.65,28-13.89,30.8-13.89,30.8-18.52.6-20.13-25.17-20.13-25.17l1.23-7.39,22.41-8.38Z"/><path class="cls-18" d="M304.87,100.57s-.2,4.58-1.21,6c0,0,.6.93,2.9.5m-.88,3.73s4.43,4.83,7-2.21"/><path class="cls-24" d="M300.25,99.86a1.71,1.71,0,0,1-1.07,2.12c-.78.15-1.56-.56-1.76-1.58a1.72,1.72,0,0,1,1.07-2.12c.78-.15,1.57.56,1.76,1.58"/><path class="cls-24" d="M314.72,97a1.86,1.86,0,0,1-1.17,2.32c-.86.16-1.72-.61-1.94-1.73a1.87,1.87,0,0,1,1.18-2.33c.85-.17,1.72.61,1.93,1.74"/><path class="cls-21" d="M307.81,67.68s-22.28,2.55-21.47,21.2a15.14,15.14,0,0,0,6.31,13.42s-.94-6.31.13-8.45c0,0,13.69-.27,21.47-15.17,0,0,3.22,9.66,8.86,12.35,0,0,2.82,6,2.55,10.2,0,0,2.55-4.83,2.42-8.59,0,0,2,.54,2.41,2.15a23.78,23.78,0,0,0-3.89-21.61s-5.1-4.56-8.86-2.82C317.74,70.36,315.33,66.74,307.81,67.68Z"/><path class="cls-18" d="M307.81,67.68s-22.28,2.55-21.47,21.2a15.14,15.14,0,0,0,6.31,13.42s-.94-6.31.13-8.45c0,0,13.69-.27,21.47-15.17,0,0,3.22,9.66,8.86,12.35,0,0,2.82,6,2.55,10.2,0,0,2.55-4.83,2.42-8.59,0,0,2,.54,2.41,2.15a23.78,23.78,0,0,0-3.89-21.61s-5.1-4.56-8.86-2.82C317.74,70.36,315.33,66.74,307.81,67.68Z"/><path class="cls-15" d="M325,140.42c.56-3.15-.55-12.82-.61-14.24l4.37,1.62c2.08.78,3,16.1,3.28,18.49.87,6.53,1.63,13.08,3,19.54,2,9.92,4.29,19.84,6.92,29.61,0,0-14,3.9-21.88,1.35l-25.44,3.91s1.68-4.09,1.69-4.24c.35-7,2.86-14.31,2.78-21.57-.09-7.85-1.53-15.62-1.55-23.47,0-6.74-1.05-14.13.11-20.8l4.67-2.26c.13,2.07-.13,13.12,2.24,15.43s5.58,2.45,8.66,2.67C317,146.73,325,143.68,325,140.42Z"/><path class="cls-18" d="M325,140.42c.56-3.15-.55-12.82-.61-14.24l4.37,1.62c2.08.78,3,16.1,3.28,18.49.87,6.53,1.63,13.08,3,19.54,2,9.92,4.29,19.84,6.92,29.61,0,0-14,3.9-21.88,1.35l-25.44,3.91s1.68-4.09,1.69-4.24c.35-7,2.86-14.31,2.78-21.57-.09-7.85-1.53-15.62-1.55-23.47,0-6.74-1.05-14.13.11-20.8l4.67-2.26c.13,2.07-.13,13.12,2.24,15.43s5.58,2.45,8.66,2.67C317,146.73,325,143.68,325,140.42Z"/><path class="cls-30" d="M312.37,271.27c-.07,2.23,1.09,4.44,2,6.42,1.47,3.24,3,7.14,6.06,9.24,1.38,1,4.12,1.66,5.59.56,2.43-1.82,1.47-5.37.54-7.51-1.34-3.06-2.66-6.43-4.21-9.4-1.44-2.78-4.44-7.66-8.4-6.42-2.14.67-1.84,3.44-1.84,5.23v.27Z"/><path class="cls-18" d="M312.37,271.27c-.07,2.23,1.09,4.44,2,6.42,1.47,3.24,3,7.14,6.06,9.24,1.38,1,4.12,1.66,5.59.56,2.43-1.82,1.47-5.37.54-7.51-1.34-3.06-2.66-6.43-4.21-9.4-1.44-2.78-4.44-7.66-8.4-6.42-2.14.67-1.84,3.44-1.84,5.23v.27Z"/><path class="cls-17" d="M315.54,276.25a5,5,0,0,0,.55.85c1.84,2.35,5.36,1.83,5.41-1.67,0-2.8-1.68-8.5-4.93-9-2.09-.31-2.75,1.62-2.86,3.35A13.65,13.65,0,0,0,315.54,276.25Z"/><path class="cls-18" d="M315.54,276.25a5,5,0,0,0,.55.85c1.84,2.35,5.36,1.83,5.41-1.67,0-2.8-1.68-8.5-4.93-9-2.09-.31-2.75,1.62-2.86,3.35A13.65,13.65,0,0,0,315.54,276.25Z"/><path class="cls-19" d="M322.17,271.14l-22-76.24s-11.27-5.23-14.77,1.08c0,0-4.29,3.62,1.21,21.61,0,0,8.73,24.16,16.51,37,0,0,8.19,15,8.19,18.12C311.3,272.75,317.57,274.5,322.17,271.14Z"/><path class="cls-18" d="M322.17,271.14l-22-76.24s-11.27-5.23-14.77,1.08c0,0-4.29,3.62,1.21,21.61,0,0,8.73,24.16,16.51,37,0,0,8.19,15,8.19,18.12C311.3,272.75,317.57,274.5,322.17,271.14Z"/><path class="cls-30" d="M325,273.05c.79,1.6,1.66,3.16,2.53,4.72a33.56,33.56,0,0,0,2.17,3.84,11.4,11.4,0,0,0,3,2.9c2.86,1.5,6,1.2,6.85-2.64.53-2.33-.8-4.74-1.81-6.79-1.12-2.26-2.64-4.3-3.66-6.6-1.44-3.21-3.49-8.29-7.78-8.44-2.68-.09-3.13,2.91-3.13,5A16.71,16.71,0,0,0,325,273.05Z"/><path class="cls-18" d="M325,273.05c.79,1.6,1.66,3.16,2.53,4.72a33.56,33.56,0,0,0,2.17,3.84,11.4,11.4,0,0,0,3,2.9c2.86,1.5,6,1.2,6.85-2.64.53-2.33-.8-4.74-1.81-6.79-1.12-2.26-2.64-4.3-3.66-6.6-1.44-3.21-3.49-8.29-7.78-8.44-2.68-.09-3.13,2.91-3.13,5A16.71,16.71,0,0,0,325,273.05Z"/><path class="cls-17" d="M326.83,273.51c.88,1.81,3.87,4.12,5.95,3,3.12-1.65-.43-7.19-1.52-9.06a5,5,0,0,0-1.35-1.8c-1.66-1-4,.48-4.65,2.08C324.51,269.63,326,271.86,326.83,273.51Z"/><path class="cls-18" d="M326.83,273.51c.88,1.81,3.87,4.12,5.95,3,3.12-1.65-.43-7.19-1.52-9.06a5,5,0,0,0-1.35-1.8c-1.66-1-4,.48-4.65,2.08C324.51,269.63,326,271.86,326.83,273.51Z"/><path class="cls-19" d="M328.75,198.26l-16.91-4.83s-11.95-4.56-12.08,5.64c0,0,4.83,37.44,22.68,72.53,0,0,9.91,1.24,13.29-2.14,0,0-9-19-9.67-28.65,0,0-1.61-26.31-7.78-35.84"/><path class="cls-18" d="M328.75,198.26l-16.91-4.83s-11.95-4.56-12.08,5.64c0,0,4.83,37.44,22.68,72.53,0,0,9.91,1.24,13.29-2.14,0,0-9-19-9.67-28.65,0,0-1.61-26.31-7.78-35.84"/><path class="cls-17" d="M347.37,201.09c-.71.6-2.41.75-1.78,1.7.44.65,2.63.74,3.34.73.47,0,2.23-.8,2.47-.7,1.3.53.44,2.31.69,3.42s.83,2.37,2.21,1.46c1-.65.53-2.08,1-3,0,1.55-.43,4.16,2,3.5.39-1.39,1.27-2.17,1.22-3.75.36,1.09-.36,2.83,1.07,3.11s2-1.78,2-2.88c.32,1.32,1.18,2.1,2.28.91.83-.9.5-3.2.44-4.35-.18-3.3-1.92-3.81-4.7-2.74-.17-1.3-2.39-1.56-2.57,0-.35-1.18-2.28-1.77-2.89-.39C351.4,196.27,349.17,199.57,347.37,201.09Z"/><path class="cls-18" d="M347.37,201.09c-.71.6-2.41.75-1.78,1.7.44.65,2.63.74,3.34.73.47,0,2.23-.8,2.47-.7,1.3.53.44,2.31.69,3.42s.83,2.37,2.21,1.46c1-.65.53-2.08,1-3,0,1.55-.43,4.16,2,3.5.39-1.39,1.27-2.17,1.22-3.75.36,1.09-.36,2.83,1.07,3.11s2-1.78,2-2.88c.32,1.32,1.18,2.1,2.28.91.83-.9.5-3.2.44-4.35-.18-3.3-1.92-3.81-4.7-2.74-.17-1.3-2.39-1.56-2.57,0-.35-1.18-2.28-1.77-2.89-.39C351.4,196.27,349.17,199.57,347.37,201.09Z"/><path class="cls-18" d="M244.36,144.53a3.71,3.71,0,0,0-5.74.67m16.44-.95a3.71,3.71,0,0,1,5.74.66M309.94,92s2.53-3.76,6.5-.44M300.51,93.8s-3.27-2.45-5.68,1.56"/><path class="cls-15" d="M240,226.31s-2-4.68-3.07-5.61c0,0,4.28-2.41,6.68-2.41a46.09,46.09,0,0,0,1.18,5.37s4.57,5.86-.37,7.06C244.46,230.72,240.71,232.06,240,226.31Z"/><path class="cls-18" d="M240,226.31s-2-4.68-3.07-5.61c0,0,4.28-2.41,6.68-2.41a46.09,46.09,0,0,0,1.18,5.37s4.57,5.86-.37,7.06C244.46,230.72,240.71,232.06,240,226.31Z"/><path class="cls-15" d="M254.21,223.5s.41-4.55,0-5.91c0,0,5.58.23,7.62,1.51,0,0-2.41,4.17-2.53,5.17,0,0,.76,7.39-4.07,5.78C255.23,230.05,251.73,228.73,254.21,223.5Z"/><path class="cls-18" d="M254.21,223.5s.41-4.55,0-5.91c0,0,5.58.23,7.62,1.51,0,0-2.41,4.17-2.53,5.17,0,0,.76,7.39-4.07,5.78C255.23,230.05,251.73,228.73,254.21,223.5Z"/><path class="cls-31" d="M114.8,267.53c1.12,3.94-6.72,8.94-9.38,10.75-3.63,2.47-8.33,4.45-6.93,10.68.84,3.73,5.85,3.62,9.62,1.66a49.21,49.21,0,0,0,6.69-4.5c1.84-1.36,3-3.4,4.77-4.59.09.24.28.45.38.72,2.25.27,6.07-2.11,7.48-3.66,1.81-2,1.93-5.43,1.32-8.1-.55-2.45-2.62-5.06-5.09-5.71-3.2-.84-5,0-7,2.39a1.63,1.63,0,0,1,.3-.44Z"/><path class="cls-18" d="M114.8,267.53c1.12,3.94-6.72,8.94-9.38,10.75-3.63,2.47-8.33,4.45-6.93,10.68.84,3.73,5.85,3.62,9.62,1.66a49.21,49.21,0,0,0,6.69-4.5c1.84-1.36,3-3.4,4.77-4.59.09.24.28.45.38.72,2.25.27,6.07-2.11,7.48-3.66,1.81-2,1.93-5.43,1.32-8.1-.55-2.45-2.62-5.06-5.09-5.71-3.2-.84-5,0-7,2.39a1.63,1.63,0,0,1,.3-.44Z"/><path class="cls-31" d="M165.1,267.37a13.77,13.77,0,0,0,3.19,4.28c4.19,3.62,15.31,7.65,11.61,14.52-2,3.77-5.87,2.87-9.75,1.19-1.36-.6-9.79-5.14-11.42-9.12a12.7,12.7,0,0,1-.13,2,16.88,16.88,0,0,1-6.92-4.33c-1.93-2.12-1.92-5.47-1.32-8.11.55-2.44,2.62-5.06,5.09-5.7C158.65,261.26,163.63,264.32,165.1,267.37Z"/><path class="cls-18" d="M165.1,267.37a13.77,13.77,0,0,0,3.19,4.28c4.19,3.62,15.31,7.65,11.61,14.52-2,3.77-5.87,2.87-9.75,1.19-1.36-.6-9.79-5.14-11.42-9.12a12.7,12.7,0,0,1-.13,2,16.88,16.88,0,0,1-6.92-4.33c-1.93-2.12-1.92-5.47-1.32-8.11.55-2.44,2.62-5.06,5.09-5.7C158.65,261.26,163.63,264.32,165.1,267.37Z"/><path class="cls-15" d="M113.75,265.84a7,7,0,0,1-1.78,7.3s13.35,1.61,13.89-8.19Z"/><path class="cls-18" d="M113.75,265.84a7,7,0,0,1-1.78,7.3s13.35,1.61,13.89-8.19Z"/><path class="cls-15" d="M151.67,264.06s1.66,8.47,16.62,7.59c0,0-3.8-4-4-8.3Z"/><path class="cls-18" d="M151.67,264.06s1.66,8.47,16.62,7.59c0,0-3.8-4-4-8.3Z"/><path class="cls-17" d="M116.56,83.22s-4.5-5.78-5.14-.64c0,0-.8,7.22,5.78,9.63"/><path class="cls-18" d="M116.56,83.22s-4.5-5.78-5.14-.64c0,0-.8,7.22,5.78,9.63"/><path class="cls-17" d="M150.1,82.58c1.36-2,5.61-5.16,6.08-1,.49,4.36-1.8,7.78-5.6,9.83"/><path class="cls-18" d="M150.1,82.58c1.36-2,5.61-5.16,6.08-1,.49,4.36-1.8,7.78-5.6,9.83"/><path class="cls-32" d="M108.51,178s.81,10.67-2.82,17.31c0,0,42.88,11.47,60-2.62,0,0-4.83-11.67-4.63-18.72Z"/><path class="cls-18" d="M108.51,178s.81,10.67-2.82,17.31c0,0,42.88,11.47,60-2.62,0,0-4.83-11.67-4.63-18.72Z"/><path class="cls-32" d="M122.8,110.56s-13.69,4.63-16.3,7.24l5.23,20.54,38.65-.41L158,116.19s-7.45-4-12.08-5.84Z"/><path class="cls-18" d="M122.8,110.56s-13.69,4.63-16.3,7.24l5.23,20.54,38.65-.41L158,116.19s-7.45-4-12.08-5.84Z"/><path class="cls-17" d="M124.21,103.91A116.05,116.05,0,0,1,126,118l.81,8.94,6.44-.08,8.86-10.06s.4-12.48,2.21-15.91L122.6,99.08Z"/><path class="cls-18" d="M124.21,103.91A116.05,116.05,0,0,1,126,118l.81,8.94,6.44-.08,8.86-10.06s.4-12.48,2.21-15.91L122.6,99.08Z"/><path class="cls-33" d="M142.88,57.71s-.17-3.05-6.26-4.17a3,3,0,0,1,1.28,2.73s-4.81-3.06-16.69.64c0,0-5.46,2.72-7.54,2.72a17.2,17.2,0,0,0,6.58.64s-6.26.81-7.54,6.42c0,0,1-1.44,1.92-1.44,0,0-1.92,5.13-2.89,6.42l2.73-1.44s-2.57,7,2.25,16.68h33.86c1.44-2.24,2.24-6.74,2.24-6.74a3.07,3.07,0,0,1,2.09-.48c2.16-7.9,1.72-21.46-9.15-22.14,0,0,.64-2.57,2.73-2.73C148.49,54.82,145.12,53.21,142.88,57.71Z"/><path class="cls-18" d="M142.88,57.71s-.17-3.05-6.26-4.17a3,3,0,0,1,1.28,2.73s-4.81-3.06-16.69.64c0,0-5.46,2.72-7.54,2.72a17.2,17.2,0,0,0,6.58.64s-6.26.81-7.54,6.42c0,0,1-1.44,1.92-1.44,0,0-1.92,5.13-2.89,6.42l2.73-1.44s-2.57,7,2.25,16.68h33.86c1.44-2.24,2.24-6.74,2.24-6.74a3.07,3.07,0,0,1,2.09-.48c2.16-7.9,1.72-21.46-9.15-22.14,0,0,.64-2.57,2.73-2.73C148.49,54.82,145.12,53.21,142.88,57.71Z"/><path class="cls-17" d="M148.17,70.07a63.14,63.14,0,0,1,2.05,15.24c.18,4.94.88,10.22-2,14.6a10.46,10.46,0,0,1-3.77,3.59c-.09.06-1.78.61-1.77.58-2.08,5.46-8.66,5.62-8.66,5.62a10,10,0,0,1-7.87-4.81c-6.85-2-7.7-7.06-7.7-7.06-3.37-11.72-1.12-24.24-1.12-24.24.8-4.33,2.89-5.29,2.89-5.29C126.35,64,132.93,67,132.93,67L130.84,64c2.24.49,6.1,3.54,6.1,3.54L134.53,64c1.28.33,5.29,3.54,5.29,3.54l-1.6-2.91c4.34,1.44,4.28,2.89,4.28,2.89s3.1-1.91,4.71-.79c0,0-1.29.33-1.45,1.29C145.76,68,147.85,68.78,148.17,70.07Z"/><path class="cls-18" d="M148.17,70.07a63.14,63.14,0,0,1,2.05,15.24c.18,4.94.88,10.22-2,14.6a10.46,10.46,0,0,1-3.77,3.59c-.09.06-1.78.61-1.77.58-2.08,5.46-8.66,5.62-8.66,5.62a10,10,0,0,1-7.87-4.81c-6.85-2-7.7-7.06-7.7-7.06-3.37-11.72-1.12-24.24-1.12-24.24.8-4.33,2.89-5.29,2.89-5.29C126.35,64,132.93,67,132.93,67L130.84,64c2.24.49,6.1,3.54,6.1,3.54L134.53,64c1.28.33,5.29,3.54,5.29,3.54l-1.6-2.91c4.34,1.44,4.28,2.89,4.28,2.89s3.1-1.91,4.71-.79c0,0-1.29.33-1.45,1.29C145.76,68,147.85,68.78,148.17,70.07Z"/><path class="cls-18" d="M131.48,84.67a30.28,30.28,0,0,0-1.92,9s-1.29,3.53,2.72,3a20.07,20.07,0,0,0,3.53-1.44"/><path class="cls-24" d="M125.22,84.27c0,.93-.54,1.68-1.2,1.68s-1.2-.75-1.2-1.68.53-1.69,1.2-1.69,1.2.75,1.2,1.69"/><path class="cls-24" d="M140.87,83.7c0,.93-.54,1.69-1.21,1.69s-1.2-.76-1.2-1.69S139,82,139.66,82s1.21.75,1.21,1.68"/><path class="cls-18" d="M128.71,100.67s5.62,2.08,9.79-1.61"/><path class="cls-15" d="M124.82,107.14,121.6,110l-2,17.32,13.29-.61S127.23,122.84,124.82,107.14Z"/><path class="cls-18" d="M124.82,107.14,121.6,110l-2,17.32,13.29-.61S127.23,122.84,124.82,107.14Z"/><path class="cls-15" d="M142.93,107.14s-1.61,11.67-10.06,19.52l13.48,2,.41-18.72Z"/><path class="cls-18" d="M142.93,107.14s-1.61,11.67-10.06,19.52l13.48,2,.41-18.72Z"/><path class="cls-32" d="M83.56,146.7c-1.59,1.08-.84,5.51-.73,7.15a46,46,0,0,0,1.55,9.5c.91,3.19,3,7.09,5.79,9.09,1.56,1.13,2.51,2.05,3.84.54,2.72-3.09,3-8.35,2.82-12.24-.3-5,.42-11.72-3.84-15.47-1.46-1.29-3.33-1-5-1.67-.14.12-.13.26-.22.39Z"/><path class="cls-18" d="M83.56,146.7c-1.59,1.08-.84,5.51-.73,7.15a46,46,0,0,0,1.55,9.5c.91,3.19,3,7.09,5.79,9.09,1.56,1.13,2.51,2.05,3.84.54,2.72-3.09,3-8.35,2.82-12.24-.3-5,.42-11.72-3.84-15.47-1.46-1.29-3.33-1-5-1.67-.14.12-.13.26-.22.39Z"/><path class="cls-32" d="M181.18,144.78c1.91.52,1.81,3.15,2.07,4.68a30.66,30.66,0,0,1,.15,8.61,18.23,18.23,0,0,1-4.63,10.42c-4.06,4.08-8.23-1.11-8.47-5.58-.23-4.2-.11-9.6,2.08-13.31,1.14-1.94,3.22-4.5,5.78-4.22Z"/><path class="cls-18" d="M181.18,144.78c1.91.52,1.81,3.15,2.07,4.68a30.66,30.66,0,0,1,.15,8.61,18.23,18.23,0,0,1-4.63,10.42c-4.06,4.08-8.23-1.11-8.47-5.58-.23-4.2-.11-9.6,2.08-13.31,1.14-1.94,3.22-4.5,5.78-4.22Z"/><path class="cls-34" d="M177.56,196.11a12.9,12.9,0,0,0-6.36-6.71c-2.4-1.13-5.16-.9-7.74-.94a66.53,66.53,0,0,0-10.47.18c-3.44.47-6.78,1.42-10.17,2.13-4.35.9-4.45,1.62-8,2.17-6.72-.78-13.39-1.91-20.12-2.59-6.31-.63-12.85-1.15-19,.73-3.21,1-6.88,2.74-7.64,6.36a30.08,30.08,0,0,0-.34,7.09c.32,9.26,3.08,18.29,6.51,26.82,4.27,10.59,10.19,20.4,14.48,31,.15.36,1,7.83.93,7.82s12.6,1.3,20.65-5.34c0,0-17-41.67-19.59-54.26,6.27,1.15,15.57,2.29,21.85.56a17,17,0,0,1,6.84,0,53.38,53.38,0,0,0,18.91-.27c-.18,8.62-2.89,17.26-4.51,25.4-1.76,8.79-3.38,19-5.52,27.68,4.47,4.7,14.26,4.84,20.11,4.09.33-5.47.84-13.37,2.13-18.67,2.71-11.11,6.06-22,7.55-33.36C178.89,209.74,180.16,202.05,177.56,196.11Z"/><path class="cls-18" d="M177.56,196.11a12.9,12.9,0,0,0-6.36-6.71c-2.4-1.13-5.16-.9-7.74-.94a66.53,66.53,0,0,0-10.47.18c-3.44.47-6.78,1.42-10.17,2.13-4.35.9-4.45,1.62-8,2.17-6.72-.78-13.39-1.91-20.12-2.59-6.31-.63-12.85-1.15-19,.73-3.21,1-6.88,2.74-7.64,6.36a30.08,30.08,0,0,0-.34,7.09c.32,9.26,3.08,18.29,6.51,26.82,4.27,10.59,10.19,20.4,14.48,31,.15.36,1,7.83.93,7.82s12.6,1.3,20.65-5.34c0,0-17-41.67-19.59-54.26,6.27,1.15,15.57,2.29,21.85.56a17,17,0,0,1,6.84,0,53.38,53.38,0,0,0,18.91-.27c-.18,8.62-2.89,17.26-4.51,25.4-1.76,8.79-3.38,19-5.52,27.68,4.47,4.7,14.26,4.84,20.11,4.09.33-5.47.84-13.37,2.13-18.67,2.71-11.11,6.06-22,7.55-33.36C178.89,209.74,180.16,202.05,177.56,196.11Z"/><path class="cls-35" d="M74.49,104.52s10.87,35.83,12.88,54c0,0,1.81,13.28,1.61,19.33,0,0,30.2,2,46.3,19.32,0,0,14.5-18.52,42.48-20.74,0,0,.81-55.56,9.87-75.69,0,0-45.1,5.44-54.36,26.17a63.65,63.65,0,0,0-36.64-18.52S79.32,106.73,74.49,104.52Z"/><path class="cls-18" d="M74.49,104.52s10.87,35.83,12.88,54c0,0,1.81,13.28,1.61,19.33,0,0,30.2,2,46.3,19.32,0,0,14.5-18.52,42.48-20.74,0,0,.81-55.56,9.87-75.69,0,0-45.1,5.44-54.36,26.17a63.65,63.65,0,0,0-36.64-18.52S79.32,106.73,74.49,104.52Z"/><path class="cls-17" d="M82.85,143.5a5.78,5.78,0,0,1,2.68-2.17,10.08,10.08,0,0,1,5.19-.63c.91.26,1.93.79,1.33,1.84a2.65,2.65,0,0,1-2,1.09,8.41,8.41,0,0,0-2,.67c-1.72.8-2.24,3.45-4.33,3.64a1.4,1.4,0,0,1-1.55-1.31A4.13,4.13,0,0,1,82.85,143.5Z"/><path class="cls-18" d="M82.85,143.5a5.78,5.78,0,0,1,2.68-2.17,10.08,10.08,0,0,1,5.19-.63c.91.26,1.93.79,1.33,1.84a2.65,2.65,0,0,1-2,1.09,8.41,8.41,0,0,0-2,.67c-1.72.8-2.24,3.45-4.33,3.64a1.4,1.4,0,0,1-1.55-1.31A4.13,4.13,0,0,1,82.85,143.5Z"/><path class="cls-17" d="M83.57,146.25a8,8,0,0,1,3.54-2.43,7.26,7.26,0,0,1,4.63-.11c1,.29,2.12.87,1.47,2A2.93,2.93,0,0,1,91.05,147a8.8,8.8,0,0,0-2.26.74c-1.89.88-2.47,3.8-4.77,4a1.55,1.55,0,0,1-1.71-1.45A6.3,6.3,0,0,1,83.57,146.25Z"/><path class="cls-18" d="M83.57,146.25a8,8,0,0,1,3.54-2.43,7.26,7.26,0,0,1,4.63-.11c1,.29,2.12.87,1.47,2A2.93,2.93,0,0,1,91.05,147a8.8,8.8,0,0,0-2.26.74c-1.89.88-2.47,3.8-4.77,4a1.55,1.55,0,0,1-1.71-1.45A6.3,6.3,0,0,1,83.57,146.25Z"/><path class="cls-17" d="M84.35,149.59A7.92,7.92,0,0,1,87.69,147a8.84,8.84,0,0,1,5.12-.13c1,.29,2,1.1,1.33,2.26A2.88,2.88,0,0,1,92,150.3a9.73,9.73,0,0,0-2.25.74c-1.89.88-2.47,3.8-4.77,4a1.54,1.54,0,0,1-1.71-1.44A6.27,6.27,0,0,1,84.35,149.59Z"/><path class="cls-18" d="M84.35,149.59A7.92,7.92,0,0,1,87.69,147a8.84,8.84,0,0,1,5.12-.13c1,.29,2,1.1,1.33,2.26A2.88,2.88,0,0,1,92,150.3a9.73,9.73,0,0,0-2.25.74c-1.89.88-2.47,3.8-4.77,4a1.54,1.54,0,0,1-1.71-1.44A6.27,6.27,0,0,1,84.35,149.59Z"/><path class="cls-17" d="M85.66,153.13a8.84,8.84,0,0,1,3.09-2.68c1.08-.45,3.45-.7,4.49.17,2.22,1.88-3.37,3.82-4.24,4.56s-1.53,1.36-1.51,2.44c0,1.75-.09,2-1.29,1.43C83.67,157.93,84.39,155,85.66,153.13Z"/><path class="cls-18" d="M85.66,153.13a8.84,8.84,0,0,1,3.09-2.68c1.08-.45,3.45-.7,4.49.17,2.22,1.88-3.37,3.82-4.24,4.56s-1.53,1.36-1.51,2.44c0,1.75-.09,2-1.29,1.43C83.67,157.93,84.39,155,85.66,153.13Z"/><path class="cls-17" d="M182.3,142a7,7,0,0,0-2.84-2.59,7.8,7.8,0,0,0-4.58-.34c-.9.26-1.93.79-1.33,1.84a2.65,2.65,0,0,0,2,1.09,8.41,8.41,0,0,1,2,.67c1.71.8,2.24,3.45,4.33,3.64a1.4,1.4,0,0,0,1.55-1.31A4.17,4.17,0,0,0,182.3,142Z"/><path class="cls-18" d="M182.3,142a7,7,0,0,0-2.84-2.59,7.8,7.8,0,0,0-4.58-.34c-.9.26-1.93.79-1.33,1.84a2.65,2.65,0,0,0,2,1.09,8.41,8.41,0,0,1,2,.67c1.71.8,2.24,3.45,4.33,3.64a1.4,1.4,0,0,0,1.55-1.31A4.17,4.17,0,0,0,182.3,142Z"/><path class="cls-17" d="M182,145.34a7.83,7.83,0,0,0-3.12-2.87,8.64,8.64,0,0,0-5-.37c-1,.29-2.13.87-1.47,2a2.89,2.89,0,0,0,2.15,1.21,9.18,9.18,0,0,1,2.26.73c1.89.89,2.47,3.81,4.77,4a1.56,1.56,0,0,0,1.71-1.45A4.52,4.52,0,0,0,182,145.34Z"/><path class="cls-18" d="M182,145.34a7.83,7.83,0,0,0-3.12-2.87,8.64,8.64,0,0,0-5-.37c-1,.29-2.13.87-1.47,2a2.89,2.89,0,0,0,2.15,1.21,9.18,9.18,0,0,1,2.26.73c1.89.89,2.47,3.81,4.77,4a1.56,1.56,0,0,0,1.71-1.45A4.52,4.52,0,0,0,182,145.34Z"/><path class="cls-17" d="M181.1,148.69a7.81,7.81,0,0,0-3.12-2.86,8.64,8.64,0,0,0-5-.37c-1,.29-2.13.87-1.48,2a3,3,0,0,0,2.17,1.2,9.27,9.27,0,0,1,2.25.74c1.89.88,2.47,3.8,4.77,4a1.54,1.54,0,0,0,1.71-1.44A4.52,4.52,0,0,0,181.1,148.69Z"/><path class="cls-18" d="M181.1,148.69a7.81,7.81,0,0,0-3.12-2.86,8.64,8.64,0,0,0-5-.37c-1,.29-2.13.87-1.48,2a3,3,0,0,0,2.17,1.2,9.27,9.27,0,0,1,2.25.74c1.89.88,2.47,3.8,4.77,4a1.54,1.54,0,0,0,1.71-1.44A4.52,4.52,0,0,0,181.1,148.69Z"/><path class="cls-17" d="M179.7,151.6a6.68,6.68,0,0,0-2.76-2.24c-1.09-.45-3.54-1.22-4.58-.35-2.22,1.88,3.37,3.82,4.24,4.56s1.53,1.37,1.5,2.43c0,1.75.1,2,1.3,1.44C181.93,156.32,181,153.43,179.7,151.6Z"/><path class="cls-18" d="M179.7,151.6a6.68,6.68,0,0,0-2.76-2.24c-1.09-.45-3.54-1.22-4.58-.35-2.22,1.88,3.37,3.82,4.24,4.56s1.53,1.37,1.5,2.43c0,1.75.1,2,1.3,1.44C181.93,156.32,181,153.43,179.7,151.6Z"/><path class="cls-18" d="M133.27,126.86s2.22,20.54,1.41,36.64c0,0-.6,26.37.6,33.62M128.07,77.35s-4.17-3.62-7.78,0m15.9,0s4.17-3.62,7.79,0m-43.4,212.17s7.12,2,17.62-8.72m41.84-3s10.5,10.33,17.45,9.26"/></g></svg>