<svg id="Layer_3" data-name="Layer 3" xmlns="http://www.w3.org/2000/svg" viewBox="0 0 2400 2400"><defs><style>.cls-1{fill:#5d3a2d;}.cls-2{fill:#6e473c;}.cls-3{fill:#7d5246;}.cls-4{fill:#6b4536;}.cls-5{fill:#754d41;}.cls-6{fill:#5f5676;}.cls-7{fill:#cacfd8;}.cls-8{fill:#8b5c4e;}.cls-9{fill:#e1b4a2;}.cls-10{fill:#500000;}.cls-11{fill:#fff;}.cls-12{fill:#522b10;}.cls-13{fill:#b67867;}.cls-14{fill:#94a4b2;}.cls-15{fill:#e2e0df;}.cls-16{fill:#4d485c;}.cls-17{fill:#6b453b;}</style></defs><title>licensed</title><path class="cls-1" d="M1076.24,1792.88c-89-10.24-114.22-132.1-163.44-241.69-6.86,27.73-8.79,57.8-10.87,86.63-59.34-120-34.44-168-188.41-329.34,5.37,44,19.83,89,30,131.53-46.62-88.6-134.36-187.75-211.69-246.37,42.57,91.18,56.75,123.88,74.15,180.92C533.62,1256.3,428.63,1175,346.45,1110.22c21.3,243.08,103.14,352.85,206.69,407.93-37-11.87-115.73-41.5-151.39-59.49,39.56,86.69,124.63,159.42,271,187.85-46.62,5.32-91.16-7.24-136.69-13.88,71.38,93.08,196.64,98.28,307.73,98.83-24.45,10.25-53.83,11.8-78.45,16.5,83.91,29.39,189.46,82.41,280.14,68.94Z"/><path class="cls-2" d="M1736.66,1026.91c722.75,178.81,568.8,721.77,568.8,721.77L2026,1739.09s183.53-502.13-344-571Z"/><path class="cls-3" d="M1748.35,2161.29l19.59,116.58s187.17-62.27,261.76-43.27S2118.8,2400,2118.8,2400H1531.31l69.91-230.65Z"/><polygon class="cls-4" points="1601.22 2169.33 1748.35 2161.3 1763.78 2253.07 1571.76 2266.64 1601.22 2169.33"/><path class="cls-3" d="M702.46,2156.19l-20,119.07s-235.67-63.62-311.87-44.2S279.58,2400,279.58,2400H862.26l-17.49-235.85Z"/><polygon class="cls-4" points="702.46 2156.19 844.77 2164.13 853.24 2278.05 685.24 2258.81 702.46 2156.19"/><path class="cls-5" d="M1892.77,1236.27s-5.09,193.4-186.64,335.2c-223.15-32.21-256.54,140.42-190.51,204.94-44.78,22-364.57,58.47-502,7.32,89.45-188.35-68.74-352-68.74-352S834,950,1084.73,803.13c159.1-116.13,395-198.22,395-198.22Z"/><path class="cls-6" d="M1519.21,1775.79c585.57,48.32,346.23,445.91,346.23,445.91l-327.76,7.1c14.86-24.47,164.35-228.86-287.44-192.47-432.51,34.82-344,206.18-344,206.18l-363.74-23.45s-36.82-367.77,481.38-442.4C1329.47,1838,1519.21,1775.79,1519.21,1775.79Z"/><path class="cls-7" d="M922.83,2169.29c5.39,39.93-1.28,77-1.28,77l-396.36-24.21s-4.29-40.65,9.71-98.06Z"/><path class="cls-2" d="M2327.06,1902c2.84-78.63,4.21-97.94-44.59-213,0,0-219.38-12.15-234.31,17-120.51-2.08-174.18,111-174.18,111s1.9,46.9,51.13,59.19c14.21-2.52,49.81-78.81,110.74-64.1,26.35,25.83,13,94.27,9,118.47C2029.52,2009.86,1955,2049,1955,2049s6.34,62.1,81,61.26c11.48-4.36,83.85-24.54,83.58-163.82,9.81,1.23,20.36,2.33,31.59,3.2,18.69,82.23-47.17,158.87-47.17,158.87s33.92,49.52,94.86,33.45c5.65-11.71,52.57-69.06,38.07-191.11,10.91-.51,13.59-1.35,25-2.54,18.22,64.32-10.61,138.35-10.61,138.35s38.33,23.74,88,3.42C2343.5,2085,2381.4,2002.39,2327.06,1902Z"/><path class="cls-5" d="M1167,903.31c-663-71.08-956.69,590.54-956.69,590.54l295.19,118.66s157.15-511.91,603.21-482.19Z"/><path class="cls-5" d="M486.86,1550.54l-.32.89c-46.83-41.85-224.81-109.08-224.81-109.08-103.69,97.22-111.13,118-144.34,201-106.19,36-110.52,173.73-108.45,181,28,60.28,93.11,28.47,93.11,28.47s-14.3-91.31,53.28-131.17c11.29,6.49,22.54,12.5,33.65,18-63.77,86-54.44,188.1-54,202.91,56,44.76,106,14.11,106,14.11s-7-110.22,37.42-182.71c12.09,4.27,15.08,8,25.84,11.18-44.35,102.09-7.2,205,2.74,214.83,52.67,26.75,99.88-10.23,99.88-10.23s-29.62-97.19-9.05-186.83c5.67-9,19.53-85.26,62.52-116.09,67.25-5.13,65.05,91,77.64,99.4,40.37,3.32,87.23-26.14,87.23-26.14S647.09,1609.77,486.86,1550.54Z"/><path class="cls-8" d="M1774.88,407.54c46.37-72,83.68-250.62,83.68-250.62s-161.75,49.66-240.4,194.24Z"/><path class="cls-8" d="M1267.29,371.3C1220.21,264.33,1221.83,0,1221.83,0s193.62,117.33,268.57,328.9Z"/><path class="cls-9" d="M1300,335c-20.92-59.13-19.6-204.06-19.6-204.06s109,74,140.73,190.27Z"/><path class="cls-9" d="M1762.82,368.29c18.82-43.37,33.22-133.11,33.22-133.11s-91.92,36.66-123.53,116.45Z"/><path class="cls-8" d="M1287.45,309.65l511.82,34.54s90,491.16,602.13,629.2c-50.47,187.18-192.48,283.88-192.48,283.88s-785.37,409.3-1136.17-186.39C1054.31,518.58,1287.45,309.65,1287.45,309.65Z"/><path class="cls-10" d="M2233.2,1152.72s-7.07,48.09-24.48,80.89a711.55,711.55,0,0,0,11-83.14Z"/><polygon class="cls-11" points="1783.84 1321.39 1724.38 1426.55 1700.94 1318.48 1783.84 1321.39"/><polygon class="cls-11" points="1400.65 1188.97 1324.13 1307.64 1332.58 1134.27 1400.65 1188.97"/><path class="cls-11" d="M1649.73,671.14a93.54,93.54,0,1,0,96.72-90.28A93.54,93.54,0,0,0,1649.73,671.14Z"/><path class="cls-12" d="M1667.73,671.77a75.54,75.54,0,1,0,78.1-72.91A75.53,75.53,0,0,0,1667.73,671.77Z"/><path class="cls-13" d="M1746.45,580.86a93.54,93.54,0,0,1,82.6,56.47l-178.57,24.6A93.58,93.58,0,0,1,1746.45,580.86Z"/><path class="cls-11" d="M1276.17,667.58a102.5,102.5,0,1,0,106-98.9A102.51,102.51,0,0,0,1276.17,667.58Z"/><path class="cls-12" d="M1295.89,668.26a82.78,82.78,0,1,0,85.57-79.88A82.78,82.78,0,0,0,1295.89,668.26Z"/><path class="cls-13" d="M1382.14,568.68A102.4,102.4,0,0,1,1481,669.17l-193.06-45.59A102.48,102.48,0,0,1,1382.14,568.68Z"/><path class="cls-12" d="M1567.11,674c-135.72-95.44-433.59-81.12-433.59-81.12l81.26-30.49-114.21-36,126.59-10.14L1179.83,480S1412.2,494.43,1567.11,674Z"/><path class="cls-12" d="M2401.4,973.39c-154.8-47.55-370.25-29-370.25-29s39.61,147.93,196.31,212.93C2231.13,1158.71,2358.25,1108.47,2401.4,973.39Z"/><path class="cls-8" d="M1125.91,618.36s-171.74,60.16-253.6,113c134.77,20.2,157.41,33.81,157.41,33.81S904,807,809.81,852c73.61,31.88,192.06,85.34,192.06,85.34s-86.37,21-133.06,34.31c114.57,35,220.08,116.56,220.08,116.56Z"/><path class="cls-12" d="M1632.56,666.87c84.81-94.27,306.8-131,306.8-131l-64.77-10.19L1953,480.1l-95,12.49,29.1-35.17S1718,505.58,1632.56,666.87Z"/><path class="cls-13" d="M1446.63,747.67a102.25,102.25,0,0,1-161.12-33.88Z"/><path class="cls-8" d="M2371.24,982.7c4.53,2.83,4.53,6.71,4.33,8.24-1.67,11.95-52.43,82-63.68,84a5.1,5.1,0,0,1-5.64-3c-4.05-8.56,2.22-43.93,4.21-54.58l.54-2.83,19.08-5.25,2.06,8.9-13.93,3.81c-2.87,15.93-5.12,33.63-5,41.77,12.44-11.26,49.93-62,53.71-73.25-7.38-5.2-54.24-4.79-62.76,2.69-5.59,6.19-16.36,72.64-24.28,137.54-3.2,2.3-6.31,3.87-9.34,5.89,4.6-38.89,17.81-141.25,28.27-150.47C2309.92,976.49,2359.56,975.49,2371.24,982.7Z"/><path class="cls-8" d="M2195.46,993.93c-1.7-2.93-15.62-8.77-46.94-12.81-36.87-4.76-64.43-3-69.13.43,0,3.05,1.74,12.22,17.5,34.27,24.87,34.89,62.71,71.58,68.86,72.5,3.9-3.42,4.55-32.47,1.62-64.28l-32.85-7.67,1.81-9,38.78,9,.34,3.28c3.32,33.36,4.79,73.85-7.28,77.32-2.26.63-7.45,2.12-31.34-21.35-22.79-22.35-68.83-75.31-65.69-96.53,1.09-5.56,7.64-7.46,12.43-8.42,25.34-5.06,109.88,2.43,119,18.28,8.21,14.16,1.35,117.93-1.49,156.27-2.77-1.54-5.44-3.15-8.12-4.76C2197.92,1073.24,2200.33,1002.36,2195.46,993.93Z"/><path class="cls-14" d="M1717.7,1932.91l49.82-98.51c99.24,48.07,136.33,117,144.45,183.38l-111.24,16.9C1783.19,1992.9,1754.57,1959.06,1717.7,1932.91Z"/><polygon class="cls-15" points="1881.77 2042.63 1888.01 2041.4 1881.29 2007.43 1875.08 2008.66 1881.77 2042.63"/><polygon class="cls-15" points="1836.63 2045.74 1842.86 2044.56 1836.15 2008.81 1829.93 2009.97 1836.63 2045.74"/><polygon class="cls-15" points="1775.7 2022.05 1806.54 1994.77 1802.33 1990.02 1771.51 2017.3 1775.7 2022.05"/><polygon class="cls-15" points="1732.53 1982.91 1770.95 1955.65 1767.27 1950.5 1728.87 1977.75 1732.53 1982.91"/><polygon class="cls-15" points="1745.48 1919.32 1748.07 1913.54 1709.21 1896.1 1706.58 1901.88 1745.48 1919.32"/><rect class="cls-15" x="1746.29" y="1846.25" width="6.33" height="38" transform="translate(-792.15 2148.05) rotate(-53.18)"/><path class="cls-12" d="M2076.37,2400s-2.85-69.52-37.22-110.57c11.93,57.51,3.72,110.57,3.72,110.57Z"/><path class="cls-12" d="M1975.44,2400s-2.85-69.52-37.22-110.57c12,57.51,3.73,110.57,3.73,110.57Z"/><path class="cls-12" d="M339.5,2400s2.89-71,38-113c-12.19,58.77-3.8,113-3.8,113Z"/><path class="cls-12" d="M442.59,2400s2.9-71,38-113c-12.17,58.77-3.8,113-3.8,113Z"/><path class="cls-16" d="M1312.22,1819.52S1302,2015.78,1302,2013.58V1822.47Z"/><path class="cls-16" d="M1381.77,1821.73s52,144.25-71,193.32C1399.36,1963.05,1381.77,1821.73,1381.77,1821.73Z"/><path class="cls-7" d="M1888.51,2221.6l-350.83,7.2c3.81-15.53,3.22-35,18.63-68.3l348.85-4.62C1897.2,2198.44,1888.51,2221.6,1888.51,2221.6Z"/><path class="cls-12" d="M1594.53,1473.28s3.13,95.11-113.9,87.63C1560.36,1547,1594.53,1473.28,1594.53,1473.28Z"/><path class="cls-12" d="M1513.9,1501.31s-17,75.82-107.94,44.48C1471.85,1552.15,1513.9,1501.31,1513.9,1501.31Z"/><path class="cls-12" d="M1444.08,1492.42s-34.77,69.07-115.3,15.29C1391,1530.81,1444.08,1492.42,1444.08,1492.42Z"/><path class="cls-4" d="M1629.46,449.73l8.41-.57c-1.48-22.22-3.62-38-11-62.4l-8.09,2.47C1625.94,412.87,1628,428.15,1629.46,449.73Z"/><path class="cls-4" d="M1593.74,522.62c3-19.62.72-57-1.9-77.26l-8.37,1.08c2.49,19.2,4.8,56.3,1.94,74.89Z"/><path class="cls-4" d="M1684,485c3.82-18.35,4.92-50.26,2.36-68.31l-8.37,1.2c2.42,17,1.34,48.11-2.25,65.37Z"/><path class="cls-4" d="M1515,456.63l8.29-1.51c-2.67-14.86-5.86-29.91-9-44.47q-2.55-11.83-5-23.66l-8.27,1.7c1.61,7.9,3.28,15.81,5,23.71C1509.1,426.9,1512.26,441.88,1515,456.63Z"/><path class="cls-4" d="M1482.42,516.87l7-4.74c-11.85-17.43-26.55-39.11-43.13-58.38l-6.41,5.5C1454.93,476.79,1467.51,494.93,1482.42,516.87Z"/><path class="cls-4" d="M1404.1,480.83l6.28-5.65c-18.47-20.49-40-37.43-58.86-46.5l-3.66,7.63C1365.84,444.91,1386.35,461.13,1404.1,480.83Z"/><path class="cls-4" d="M1420.36,411.66l7.2-4.39c-10.7-17.63-24.27-37.38-43.72-50.23l-4.68,7.06C1397.22,376,1410.12,394.85,1420.36,411.66Z"/><path class="cls-17" d="M1898.82,1093.6a20.51,20.51,0,1,0,21.22-19.81A20.53,20.53,0,0,0,1898.82,1093.6Z"/><path class="cls-17" d="M1997.87,1157.41a17,17,0,1,0,17.54-16.41A17,17,0,0,0,1997.87,1157.41Z"/><path class="cls-17" d="M1857.38,1213.75a18.33,18.33,0,1,0,19-17.68A18.34,18.34,0,0,0,1857.38,1213.75Z"/><path class="cls-17" d="M1805.29,1127.79A12.19,12.19,0,1,0,1817.9,1116,12.19,12.19,0,0,0,1805.29,1127.79Z"/><path class="cls-17" d="M1958.05,1007.31a12.21,12.21,0,1,0,12.62-11.76A12.17,12.17,0,0,0,1958.05,1007.31Z"/><path class="cls-12" d="M1421,1193.21C1199.26,1038,1165.9,784.83,1165.59,782.29l-21,2.56c.32,2.63,34.56,264.78,264,425.55,119.54,83.74,268.88,125.7,446.24,125.7q97.11,0,205.37-16.83c43.55-15.29,79.52-30.14,105.13-41.48C1851.06,1347.31,1600.69,1318.93,1421,1193.21Z"/><path class="cls-12" d="M1101.32,830.45c62.88-62.07,120.86-20.91,120.86-20.91S1149.5,714.26,1101.32,830.45Z"/></svg>