<svg id="artwork" xmlns="http://www.w3.org/2000/svg" viewBox="0 0 1646.35 2000"><defs><style>.cls-1{fill:#e2b461;}.cls-2{fill:#efce9a;}.cls-3{fill:#e5c065;}.cls-4{fill:#876553;}.cls-5{fill:#eac37d;}.cls-6{fill:#d6a85f;}.cls-7{fill:#9b7a64;}.cls-8{fill:#f7b5b5;}.cls-9{fill:#ffedd2;}</style></defs><title>licensed</title><path class="cls-1" d="M1633.17,1468.51c-30.19-26.15-65.59-48.31-102.81-63-34.15-13.46-83.95-11.87-118.64-2.35-81.33,22.3-145.81,73.1-212.66,122.2-14.62,10.73-29.36,21.28-44.34,31.49-14.38,9.78,18.69-12.14,4.29-2.8-3.69,2.4-7.42,4.73-11.14,7-8.65,5.39-17.49,10.45-26.43,15.32a377.29,377.29,0,0,1-47,21.5c-16.28,6.16,23.72-7.57,7.29-2.41-4,1.27-8.11,2.35-12.2,3.43a264.8,264.8,0,0,1-33.89,6.24c27.32-3.47,7.31-.49.69-.44-6,0-12-.43-18-.92-7.18-.58-28.22-4.85,3.59,1.53-5.57-1.12-11.07-2.71-16.55-4.23a258.17,258.17,0,0,1-32.07-11.47c-20.23-8.62,25.06,13,5.66,2.76-6.76-3.56-13.3-7.56-19.8-11.57-42.1-26-80.3-59-120.18-88.3-59.41-43.58-127-84.59-202.73-86-47.42-.86-90.88,25.76-106.21,72-19.1,57.58,14,110.79,66.85,133,10.89,4.58,21.51,9.77,32.27,14.64,5.37,2.42,10.6,5.06,16,7.35,20.83,8.82-25.93-13.38-5.79-3,22.93,11.8,44.32,26.53,65.17,41.64,40.56,29.41,78.31,61.51,122.25,86,54.9,30.57,115.24,54.46,179.15,52.49,56.28-1.73,111-16.51,160-44.38,71.16-40.44,127-98.66,185.19-155,26.17-25.37,53.6-49.58,81.73-72.75,6.4-5.27,13-10.23,19.79-15,11.93-8.51-12.93,8.15-.35.17,7-4.44,13.8-8.56,20.74-13.29,11.59-7.9-12,7.55.24-.16,3.46-2.19,7-4.2,10.59-6.2a215.94,215.94,0,0,1,25.48-12c12.29-5-9.25,2.66,4-1.48,7.49-2.34,14.9-4.79,22.21-7.69,4-1.61,14-4.36,22.84-6.3,23-5.07,48.24-1.25,71.16,2.81,6.54,1.15,7.46-7.5,3.64-10.81Z"/><path class="cls-2" d="M1633.17,1468.51c-30.19-26.15-65.59-48.31-102.81-63-34.15-13.46-83.95-11.87-118.64-2.35-81.33,22.3-145.81,73.1-212.66,122.2q-11.79,8.64-23.72,17.11c20-5.7,39.58-12.4,58.39-18.5a432.2,432.2,0,0,1-75.7,78.57,305.25,305.25,0,0,0,89.36-17.81c-14.91,26.21-39.93,48.23-60.21,70.85,23.23,0,48.85-3.54,72.08-11.27-25,45.92-64,83.81-97.93,124.51,1.54-.85,3.08-1.66,4.61-2.53,71.16-40.44,127-98.66,185.19-155,26.17-25.37,53.6-49.58,81.73-72.75,6.4-5.27,13-10.23,19.79-15l.54-.41c6.68-4.21,13.22-8.19,19.85-12.71l.25-.17c3.45-2.18,7-4.19,10.58-6.19a215.94,215.94,0,0,1,25.48-12l2.4-1,1.57-.49c7.49-2.34,14.9-4.79,22.21-7.69,4-1.61,14-4.36,22.84-6.3,23-5.07,48.24-1.25,71.16,2.81C1636.07,1480.47,1637,1471.82,1633.17,1468.51Z"/><path class="cls-1" d="M865.15,1147.87c-4.45,17.58,2.7,37.33,4.28,55.14,2,22.52,3.67,45.67,11.66,67,20.26,54.11,62.49,97.65,113.17,124.31,93.35,49.11,225.21,44.84,297.86-38.55,46.21-53-13.18-124.88-74.78-105.64-15.75,4.92-30.43,14-45.87,20-7.16,2.82-14.08,5.9-21.41,8.31q-11.8,3.27,1.59-.19-5.87,1.07-11.81,1.66c-3.17.38-28.58-.1-13.15.87-10.25-.65-20.53-1.91-30.71-3.2a278.83,278.83,0,0,1-30.84-6.11q-12.87-3.49-4.14-1.22-7.24-2.7-14.45-5.57c-37.61-14.74-61.31-29.57-88.46-56.74-10.76-10.75-21.2-21.51-31.34-32.85-12.11-13.52-22.71-32.14-40.64-38.22-9.58-3.26-18.43.87-21,10.95Z"/><path class="cls-3" d="M475.16,1533.14c-31.31,96.76-39,301.51,24.26,398.07,44,66.68,123.78,47.66,124.1-30.62-1.75-59.85-40.42-178.9-52.68-238.72-8.89-34.5-7.34-71.36-11.05-108.18"/><path class="cls-3" d="M897.21,1543.57C931,1639.48,944,1844,883.3,1942.13c-42.21,67.81-122.5,50.86-124.86-27.38.19-59.88,35.76-179.88,46.46-240,8-34.74,5.49-71.53,8.23-108.43"/><path class="cls-1" d="M515.27,1181.51c4.44,17.58-2.7,37.34-4.29,55.15-2,22.51-3.66,45.67-11.66,67-20.26,54.11-62.48,97.64-113.17,124.31-93.35,49.11-225.2,44.84-297.86-38.55-46.21-53,13.19-124.88,74.79-105.64,15.75,4.92,30.42,14,45.87,20,7.16,2.83,14.08,5.9,21.42,8.31q11.77,3.28-1.6-.19,5.86,1.07,11.8,1.67c3.17.37,28.58-.11,13.15.86,10.26-.64,20.54-1.9,30.72-3.19a278.69,278.69,0,0,0,30.83-6.12q12.9-3.5,4.14-1.21,7.26-2.7,14.46-5.57c37.61-14.75,61.3-29.57,88.47-56.75,10.74-10.75,21.18-21.51,31.33-32.84,12.11-13.53,22.72-32.13,40.63-38.23,9.58-3.25,18.43.88,21,11Z"/><path class="cls-3" d="M163.08,1283.78c15.75,4.92,30.42,14,45.87,20,7.16,2.83,14.08,5.9,21.42,8.31l.23.06c3.3.57,6.62,1.08,10,1.42,2.54.3,19.3.05,18,.44,8.66-.69,17.31-1.68,25.91-2.77.73-.1,1.47-.23,2.21-.33,1.75,1.2,3.4,2.4,4.81,3.58l4.29,1.43c-8.59,12.89-22.91,18.62-34.36,27.21,8.59,8.59,22.9,11.45,35.79,14.31-5.72,12.89-21.48,14.32-31.49,21.48,11.45,11.46,28.63,18.62,41.51,27.21-8.58,11.45-25.77,14.32-38.65,18.61,10,5.72,21.47,8.59,30.07,15.75a96.89,96.89,0,0,1-18.94,18.15c-70.89,6-143.82-14.68-191.39-69.26C42.08,1336.39,101.48,1264.54,163.08,1283.78Z"/><path class="cls-4" d="M162.38,1296a79.61,79.61,0,0,1-7.25-9,50.16,50.16,0,0,0-9.44-10c-8.17-6.66-16.76-12.55-27.34-14.48-9.6-1.76-20.65,2.62-23,13.08-2.09,9.16,2.77,21.15,13.08,23,3.31.6,6.59,1.12,9.91,1.69-4.09-.71.79.27,1.66.45,4.08.8,8.16,1.58,12.19,2.64,7.73,2,15.62,2.41,23.37,4.36,6.84,1.73,11.77-6.67,6.85-11.77Z"/><path class="cls-3" d="M835,960.21l-295.46,41.15C501,1124.69,410.09,1390.68,410.09,1443.17c0,112.21,123,203.19,274.73,203.19s279-95.26,279-207.48C963.87,1396.24,894.59,1088.81,835,960.21Z"/><path class="cls-5" d="M886.29,1372.18c0,132.4-91.14,239.74-203.57,239.74s-203.57-107.34-203.57-239.74,88-405.07,200.48-405.07S886.29,1239.78,886.29,1372.18Z"/><path class="cls-3" d="M962.11,185.38C992.62,101.37,1072,19.16,1158.67,13c59.65-4.54,74.3,37,65.3,92.23C1209,208,1154.36,323.3,1073.48,388.85"/><path class="cls-6" d="M976.36,210.49c23.33-64.22,84-127.08,150.28-131.77,45.6-3.48,56.8,28.28,49.92,70.5-11.43,78.55-53.21,166.71-115.06,216.82"/><path class="cls-3" d="M417.25,184.81C386,98,306.39,15.07,220.45,12.09,161.34,9.7,147.34,53.81,157,111.29c16.07,107,71.66,225.65,152.57,291.08"/><path class="cls-6" d="M403.45,211.68C379.54,145.33,318.7,81.91,253,79.64c-45.2-1.83-55.9,31.89-48.55,75.83C216.74,237.3,259.24,328,321.09,378"/><path class="cls-3" d="M425.75,169.27c-185.19,99.87-175.51,326-184,501.2C233.51,834,188.13,986.54,345.22,1096c153.28,105.42,536.26,103.32,687.81-21.37s125.29-435.87,101.46-617.92C1065.09-73.64,425.75,169.27,425.75,169.27Z"/><path class="cls-2" d="M394.42,779c39.73,26.11,117.8,24.8,159.13-2.06,28.94-16.54,53.74-45.47,84.73-57.87,72.34-31,124,0,173.61,51.67,45.47,47.53,103.33,62,165.33,33.06,64.07-26.86,105.4-90.93,171.53-113.66,64.07-22.74,126.07-12.4,181.88,20.67-31,2.06-62,10.33-93,16.53,57.88,2.06,111.61,28.93,152.94,68.2C1301.69,839,1250,896.85,1190.09,973.32c-59.94,74.39-142.6,140.52-231.46,173.59-111.61,43.4-200.48,45.47-322.41,47.54-68.2,0-355.47-22.73-477.4-202.53-28.66-42.25-43.41-93-72.34-132.27-26.87-33.07-62-51.67-97.12-72.34,31-33.07,105.39-35.13,146.73-22.73C101,739.78,49.28,717,5.89,717,20.34,708.78,105.09,588.91,394.42,779Z"/><path class="cls-7" d="M424.61,630.35A132.67,132.67,0,0,0,416.9,673c-1,49.78,23.93,90.62,55.62,91.25s58.19-39.24,59.18-89c.08-4.22,0-8.35-.31-12.42Z"/><path class="cls-7" d="M966.81,628.91a132.52,132.52,0,0,1,7.7,42.62c1,49.78-23.93,90.63-55.62,91.25s-58.19-39.24-59.17-89c-.09-4.22,0-8.35.31-12.42Z"/><path class="cls-8" d="M399.35,868.85A79.95,79.95,0,1,1,332,778.06,79.95,79.95,0,0,1,399.35,868.85Z"/><path class="cls-8" d="M1136.91,877.6a80,80,0,1,1-67.33-90.78A79.93,79.93,0,0,1,1136.91,877.6Z"/><path class="cls-4" d="M768.83,755.62c0,20.54-34.23,46.5-76.46,46.5s-76.47-26-76.47-46.5S768.83,735.07,768.83,755.62Z"/><path class="cls-3" d="M1217.34,1250.13c-15.75,4.92-30.43,14-45.87,20-7.16,2.82-14.08,5.9-21.41,8.31l-.24.06c-3.31.56-6.62,1.07-10,1.41-2.54.31-19.3.06-17.95.44-8.66-.69-17.32-1.68-25.91-2.77-.74-.09-1.47-.23-2.21-.33a59.6,59.6,0,0,0-4.81,3.59l-4.29,1.43c8.59,12.88,22.91,18.61,34.36,27.2-8.59,8.59-22.9,11.46-35.79,14.32,5.72,12.89,21.48,14.32,31.5,21.48-11.46,11.45-28.64,18.61-41.52,27.2,8.58,11.46,25.77,14.32,38.65,18.61-10,5.73-21.47,8.59-30.07,15.75a96.32,96.32,0,0,0,18.94,18.15c70.89,6,143.82-14.67,191.38-69.26C1338.33,1302.74,1278.94,1230.89,1217.34,1250.13Z"/><path class="cls-4" d="M1238.71,1270.05c6.55-1.85,12.84-4.41,19.18-6.86,7.82-3,15.88-6.08,22.31-11.57,10.74-9.16-.67-28.58-13.91-23.89-15.35,5.43-22.8,21.21-33.26,32.56-3.86,4.18-.12,11.4,5.68,9.76Z"/><path class="cls-4" d="M1260.78,1299c7.37-.07,14.94,0,22.21-1.28,2.93-.53,7.28-1.36,9.39-1.67q-2.45.36,3.81-.51c.88-.14,1.75-.3,2.61-.49.59-.12,5.83-1,3.5-.73,9.67-1.24,17.46-7.79,16-18.47-1.27-9.43-10.86-16.41-20.35-13.56a83.57,83.57,0,0,0-23.27,11.28c-6.74,4.57-12,10.71-17.62,16.49-3.15,3.2-.89,9,3.7,8.94Z"/><path class="cls-4" d="M1275.23,1337.41c6.93,4.81,14.78,5.43,23,6.2,3.45.32,6.9.77,10.35,1.05,4,.32,8.25,1.52,14.38,0s10.45-7.13,11.25-13.06c.88-6.55-2.21-11.94-7.5-15.64-14.3-10-34.86,2.89-49.49,6.31-7.41,1.74-7.46,11.29-2,15.09Z"/><path class="cls-4" d="M113.23,1336.64c-3-5.1-5.45-10.91-8.84-15.7q-2.53-3.59-5-7.2c-3.88-5.56-7.68-7.9-13.71-10.4-10.63-4.42-23.82,8.88-19.48,19.48,2.33,5.71,4.95,10.42,10.56,13.56a81.49,81.49,0,0,0,11.15,4.81c5.86,2.2,12.66,2.42,18.78,4a5.9,5.9,0,0,0,6.59-8.58Z"/><path class="cls-4" d="M109.81,1372.64c-2.14-3.47-5.61-4.93-8.78-7.29a66.89,66.89,0,0,1-8.93-8c-4.09-4.38-9.43-8.22-15.35-9.84-9.24-2.55-19.33,3.45-20.61,13-1,7.69,2.32,13.24,8.19,17.87s12,5.88,19.34,6.72c7.61.86,19.14,1.45,25.07-4.14a6.94,6.94,0,0,0,1.07-8.3Z"/><path class="cls-9" d="M612.08,828.71s4,57.51,19.61,58.25c16.91.81,18.52-34.63,18.52-34.63Z"/><path class="cls-9" d="M772.54,828.71s-4,57.51-19.6,58.25c-16.91.81-18.52-34.63-18.52-34.63Z"/><path class="cls-7" d="M596.61,776c-2.74,19.66-.14,38.32,12.55,54.19,11.66,14.59,28.7,23.73,46.5,28.61,37.42,10.26,83.12,3.77,112.71-22.58a74.67,74.67,0,0,0,18.68-25.07c4.73-10.63,5.52-22.06,4.74-33.57a2.07,2.07,0,0,0-4.14,0,78.13,78.13,0,0,1-21.53,48c-12.32,12.54-28.75,20.46-45.65,24.73-33.27,8.38-74.75,4.31-100.87-19.89-14.8-13.71-22.77-34.2-21.88-54.31,0-.62-1-.79-1.11-.15Z"/><path class="cls-7" d="M653,898.12c9.64,13.53,25.38,17.33,41.36,17.36,8.5,0,17.06-1,25-4.13,7.46-2.94,16.32-8.34,20.14-15.69.87-1.68-1-3.84-2.73-2.72-3.28,2.07-6,4.9-9.28,7a51,51,0,0,1-10.59,5.12c-7,2.42-14.51,3.19-21.92,3.31-12.84.22-31.34-.74-40.12-11.67-.84-1-2.65.33-1.87,1.43Z"/><path class="cls-4" d="M524.83,1935.57c-1.26,10.16-2.81,20.55-1.12,30.77,1.74,10.6,5.39,25.22,15.38,30.82,7.65,4.29,20.68-.94,19.39-11.12-.81-6.45-3.61-11-6.9-16.43a136.79,136.79,0,0,1-6.25-12.39c-3.87-8.11-8.19-16-12.81-23.73-2.28-3.81-7.21-1.76-7.69,2.08Z"/><path class="cls-4" d="M554.84,1925.69c1.62,10.55,3.21,21.12,6.76,31.23,3.69,10.53,9.51,24.61,18.89,31,9.08,6.21,22.25-4.14,18.78-14.44-2-6.09-6.65-10.66-10.54-15.66-3.15-4-5.92-8.38-9.15-12.37-6.31-7.8-12.67-15.45-19.36-22.94-2.37-2.65-5.82.28-5.38,3.14Z"/><path class="cls-4" d="M583,1911.27c.7,3.82,3.11,7.92,4.61,11.53,1.94,4.66,4.54,9,6.56,13.67,3.88,8.88,6.73,15.13,9.05,24.67,2,8.09,11.1,12.92,18.95,10.76,7.27-2,13.93-11.21,10.76-19a82.87,82.87,0,0,0-19.86-29.09,111.93,111.93,0,0,0-12.54-10.58c-3.53-2.43-8.92-5.7-13.2-6.34-2.75-.42-4.85,1.51-4.33,4.33Z"/><path class="cls-4" d="M775.85,1915.1c-9.05,4.19-15.71,14.59-19.39,23.47a134.93,134.93,0,0,0-4.77,13.2c-1.6,5.39-3.85,12-3.24,17.62.64,5.78,3.6,10.89,9.54,12.53,5.26,1.44,12.14-.87,14.66-6,4.56-9.21,3.65-19.82,5.41-29.73,1.57-8.84,4.06-18.35,4.46-27.3.16-3.63-3.82-5.14-6.67-3.82Z"/><path class="cls-4" d="M799.16,1935a253.24,253.24,0,0,1-4.77,29.74c-2.16,10.41-5.62,21.65-3.07,32.19,2.09,8.63,15.59,10.94,19.69,2.57,5.08-10.35,4.06-22.76,3-34-1-10.67-2.52-21.35-4.53-31.88-1.18-6.17-9.81-4.11-10.28,1.39Z"/><path class="cls-4" d="M829.86,1938.79a252.1,252.1,0,0,1-.43,30.61c-.36,4.28-.89,10.48-1.36,13.62-.85,5.59-3.07,11.3-2.4,17,1.11,9.56,11.87,15.54,19.59,8.12,9.66-9.3,8.43-27.27,6-39.35a113.93,113.93,0,0,0-11.83-32.57c-2.41-4.41-9.76-2.49-9.57,2.59Z"/><path class="cls-2" d="M619.45,1214.2c-21,15.56-40.14,33.9-50.68,58.17-3.82,8.8-8.83,20.17-6,30,3.63,12.74,17,12.19,26.17,5.88a114,114,0,0,0,15-13.07c2.1-2.09,4.17-4.21,6.28-6.28,1-1,2-2,3-2.9.53-.48,3.09-2.51,1.21-1.13l-12.8-9.84a118.61,118.61,0,0,0-4.52,38.94c.64,12.61,3.38,27.26,13.66,35.75,9.9,8.17,20.93,4.93,26.91-5.8a86.35,86.35,0,0,0,6.26-15.68c.82-2.54,1.58-5.08,2.43-7.61q.55-1.69,1.17-3.36c.19-.51.38-1,.58-1.51-.28.7-.24.66.12-.13l-14.48-3.92c.77,18.43,7,39.13,18.93,53.45,5.56,6.7,13.64,11.93,22.63,11.53,11.75-.52,22-9.06,28.09-18.59,7.9-12.35,9.5-27.77,9.56-42.1l-15.16,2c4,15.57,19.62,48.36,40.7,36.91,11-6,13-19.18,12.19-30.55s-4.7-24.19-5.67-34.18l-14.15,5.86c8.82,10.76,19.73,23.23,34.54,24.52,13.39,1.17,24.68-9.48,25.48-22.52.7-11.56-4.6-23.11-10-33-4.78-8.8-10.53-17-16.21-25.18-5.45-7.91-18.49-.4-13,7.59,9.26,13.44,21.26,28.7,23.57,45.32a10.17,10.17,0,0,1-1.07,7.54,12,12,0,0,1-2.28,2.08,8.87,8.87,0,0,1-5.41,1.58c-4.69-.37-9.06-4.22-12.33-7.27-4.13-3.85-7.84-8.16-11.61-12.38-2.42-2.72-7-3.07-10.05-1.29-3.44,2-4.32,5.66-3.81,9.36,1.24,8.88,4.14,17.48,5.86,26.26,1.17,5.95,4.13,18-1.92,22.25-1.94,1.38-2.54,1.24-4.48,0a25,25,0,0,1-6.5-7.05,67.22,67.22,0,0,1-9-19.94c-2.2-8.46-15.12-6.65-15.16,2,0,12.38-1,26.51-9.06,36.61-3,3.78-7.37,7.45-12.18,8.48-2.41.52-5-.12-7.6-1.9-6.16-4.17-10.73-13.44-13.5-20.94-3.22-8.69-5.55-18-5.89-26.54-.29-7.15-10.93-11.28-14.48-3.92-3.72,7.71-5.4,16.18-8.59,24.1a34.41,34.41,0,0,1-2.21,4.55c-.16.26-1.62,2.37-.92,1.39-.19.26-1.73,1.84-.51.66-.64.62.37.5-.41.24a2.45,2.45,0,0,1,1.71,0c-.75-.23-.89-.24-.41,0,.74.91-1.64-1.09-1.1-.65a13.65,13.65,0,0,1-2.18-2.25c-5.39-7.16-6-18.4-5.93-27.14a103.54,103.54,0,0,1,4.17-29.06c2-6.82-6.51-14.42-12.81-9.84-8.9,6.46-15.87,15.94-24.35,22.38-1,.79-2.16,1.47-3.26,2.18-.5.3-1,.58-1.55.84q1.29-.48-.09,0c1.2-.09,1.31-.12.34-.09a4.53,4.53,0,0,1,2.27.6,4.16,4.16,0,0,1,1.64,1.71,5.86,5.86,0,0,1-.67-1c.48,1.26.56,1.39.23.41s-.22-.89-.05.3a23.52,23.52,0,0,1-.07-3.25,7,7,0,0,1,.2-2.22c.21-1.32.5-2.63.81-3.94,6.14-26,23.39-49.37,41.54-69.41,1.88-2.08-.66-6-3.17-4.11Z"/></svg>