<svg id="svg2" xmlns="http://www.w3.org/2000/svg" xmlns:xlink="http://www.w3.org/1999/xlink" viewBox="0 0 117.85 106.28"><defs><style>.cls-1{fill:url(#linear-gradient);}.cls-2{fill:#999;}.cls-3{fill:#dadada;}.cls-4{fill:url(#linear-gradient-2);}.cls-5{fill:#b3b3b3;}.cls-6{fill:url(#linear-gradient-3);}.cls-7{fill:#eee;}.cls-8{fill:#666;}.cls-9{fill:#fff;stroke:#b3b3b3;stroke-width:0.34px;}</style><linearGradient id="linear-gradient" x1="-818.93" y1="389.99" x2="-1095.28" y2="388.57" gradientTransform="matrix(0.25, 0, 0, -0.24, 292.94, 159)" gradientUnits="userSpaceOnUse"><stop offset="0" stop-color="#b3b3b3"/><stop offset="1" stop-color="#f2f2f2"/></linearGradient><linearGradient id="linear-gradient-2" x1="-852.42" y1="-37.78" x2="-1125.77" y2="-37.78" gradientTransform="matrix(0.3, 0, 0, -0.4, 348.04, 47.06)" gradientUnits="userSpaceOnUse"><stop offset="0" stop-color="#ccc"/><stop offset="1" stop-color="#fff"/></linearGradient><linearGradient id="linear-gradient-3" x1="-1168.84" y1="73.96" x2="-1217.56" y2="73.51" gradientTransform="matrix(0.36, 0, 0, -0.38, 457.57, 55.16)" gradientUnits="userSpaceOnUse"><stop offset="0" stop-color="#e1e1e1"/><stop offset="1" stop-color="#fff"/></linearGradient></defs><title>Simple_Farm_Animals</title><g id="g8007"><g id="g8009"><g id="g8011"><g id="g8013"><path id="path8015" class="cls-1" d="M55.11,38.49c-16.86,0-30.54,4.18-30.54,20.4V92.81h6.72V72.3c0-5.61,12-8.78,23.82-8.78H56c11.8,0,23.82,3.17,23.82,8.78V92.81h6.72V58.89c0-16.22-13.67-20.4-30.54-20.4h-.86Z"/><path id="path8017" class="cls-2" d="M24.56,91.15v5h6.75v-5Zm55.19,0v5H86.5v-5Z"/></g><path id="path8019" class="cls-3" d="M79.33,43.92s6-7.62,10.35-8.66c6.32-1.5,10.44.59,13.55,4.14s3.87,10.07,2.26,13.74-6.18,10.51-5.08,16c.42,2.1,4.14,4.89,4.14,4.89s-6.66-1.35-8.28-4c-3.16-5.06,2.11-12.24.19-17.88-1.25-3.63-3.49-7.89-7.16-9-3.07-1-9.22,2.82-9.22,2.82Z"/><g id="g8021"><path id="path8023" class="cls-4" d="M55,30.48c-20,0-36.19,9.72-36.19,28.94V94.23h8V74.82c0-6.65,14.24-9.3,28.23-9.3h1c14,0,28.23,2.65,28.23,9.3V94.23h8V59.42C92.23,40.2,76,30.48,56,30.48H55Z"/><path id="path8025" class="cls-5" d="M18.83,92.26v5.93h8V92.26Zm65.41,0v5.93h8V92.26Z"/><path id="path8027" class="cls-5" d="M55,30.49c-10.94,0-20.74,2.91-27.38,8.7,1.81,1.74,8.25,3.54,11.67,1.6a1.31,1.31,0,0,0,.45-1.08c.07-2.65.21-4.33.91-4.32s1.22,1.33,1.16,4c0,.24,0,.47,0,.7.68-.1,1.54.09,2.06-.37a1.39,1.39,0,0,0,.32-1c.07-2.64.35-4,1-3.94s1.22,1.32,1.16,4c0,.15,0,.3,0,.45.69-.18,1.51-.09,2-.57a1.12,1.12,0,0,0,.29-.77c.06-2.64.38-3.92,1.08-3.91s1.18,1.24,1.15,3.81c.7-.26,1.24-.3,1.65-.74.89-1,.69-3.69,1.37-3.68s1,.53,1.11,2.4c3.18-1.85,5.42-3.2,5.2-5-1.38-.09-2.78-.14-4.2-.14H55Z"/></g></g><g id="g8029"><g id="g8031"><path id="path8033" class="cls-6" d="M20.64,5.07S18.21,10.88,19,13.7c.4,1.4,3,3.38,3,3.38s-2.08,5.13-2.22,7.82a11.93,11.93,0,0,0,.89,5c.79,2,3,3.46,3.55,5.53a7.66,7.66,0,0,1-.14,4.32c-.19.6-1,1-1,1.62a2.32,2.32,0,0,0,.45,1.35c.47.82,1.59,1.28,1.93,2.15.26.68-.23,1.47,0,2.16a1.4,1.4,0,0,0,.58.81,8.53,8.53,0,0,0,8.31,0,1.46,1.46,0,0,0,.59-.81c.22-.69-.27-1.48,0-2.16.34-.87,1.45-1.33,1.93-2.15a2.31,2.31,0,0,0,.44-1.35c-.08-.63-.85-1-1-1.62a7.66,7.66,0,0,1-.14-4.32c.58-2.07,2.76-3.52,3.56-5.53a12.08,12.08,0,0,0,.88-5c-.13-2.69-2.22-7.82-2.22-7.82s2.57-2,3-3.38c.8-2.82-1.62-8.63-1.62-8.63s-3,5.63-5.34,8c-.17.17-.5,0-.75,0-1.14,0-2.26-.41-3.4-.41s-2.27.39-3.41.41c-.25,0-.58.17-.75,0-2.3-2.33-5.33-8-5.33-8Z"/><path id="path8035" class="cls-5" d="M25.75,40.18a.86.86,0,0,0-.23.06c-.58.28-.58,1.32,0,2.3s1.53,1.55,2.1,1.27.57-1.3,0-2.29a2.29,2.29,0,0,0-1.86-1.34Zm8.62,0a2.48,2.48,0,0,0-1.73,1.34c-.59,1-.58,2,0,2.29s1.51-.28,2.09-1.27.58-2,0-2.3a.76.76,0,0,0-.37-.06Z"/><path id="path8037" class="cls-7" d="M20.48,7.63s-1.32,4.09-.67,6c.37,1.09,2.45,2.63,2.45,2.63a4,4,0,0,1,2-2L20.48,7.63Zm19.3,0L36,14.31a4,4,0,0,1,2,2s2.07-1.54,2.44-2.63c.66-1.92-.66-6-.66-6Z"/><path id="path8045" class="cls-5" d="M30.14,12.63a29.9,29.9,0,0,0-3.41.24,3.69,3.69,0,0,0-.79.12s-2.42,4.37-1.52,6.36c.29.65,1.89,1,1.89,1,0-2.05.37-2.7.83-2.7S28,19.87,28,22c0,.28-.16.58,0,.82.25.44,1.35.72,1.35.72v-.15c0-2.07.38-5.29.84-5.29s.82,3.22.82,5.29v.16s1.11-.28,1.36-.73c.14-.23,0-.54,0-.82,0-2.08.37-4.29.83-4.29s.82.65.83,2.71c0,0,1.6-.37,1.89-1,.9-2-1.51-6.37-1.51-6.37-.55-.08-.53-.09-.8-.11a29.89,29.89,0,0,0-3.4-.24Z"/></g></g></g><g id="g8047"><path id="path8049" class="cls-8" d="M26.46,45a3.9,3.9,0,0,0,7.38,0,6.3,6.3,0,0,1-3.7,1.06A6.25,6.25,0,0,1,26.46,45Z"/><path id="path8051" class="cls-9" d="M34.75,23.49c-.73,3,0,6.05,1.74,6.75s3.67-1.18,4.4-4.2,0-6.05-1.74-6.75S35.48,20.46,34.75,23.49Z"/><path id="path8053" class="cls-8" d="M35.48,26.05c-.27,1.72.36,3.26,1.41,3.42s2.11-1.1,2.37-2.83-.36-3.26-1.4-3.43S35.75,24.32,35.48,26.05Z"/><path id="path8055" class="cls-9" d="M25.5,23.49c.74,3,0,6.05-1.74,6.75s-3.66-1.18-4.4-4.2.05-6.05,1.75-6.75S24.77,20.46,25.5,23.49Z"/><path id="path8057" class="cls-8" d="M24.78,26.05c.27,1.72-.36,3.26-1.4,3.42s-2.11-1.1-2.38-2.83.36-3.26,1.4-3.43S24.51,24.32,24.78,26.05Z"/></g></g></svg>