<svg id="svg2" xmlns="http://www.w3.org/2000/svg" xmlns:xlink="http://www.w3.org/1999/xlink" viewBox="0 0 117.85 106.28"><defs><style>.cls-1{fill:url(#linear-gradient);}.cls-2{fill:#360000;}.cls-10,.cls-3,.cls-6,.cls-9{fill:#fff;}.cls-3{opacity:0.39;}.cls-3,.cls-6{isolation:isolate;}.cls-4{fill:#3e0000;}.cls-5{fill:url(#linear-gradient-2);}.cls-6{opacity:0.5;}.cls-7{fill:url(#linear-gradient-3);}.cls-8{fill:#f4e3d7;}.cls-10{stroke:#d4ad94;stroke-width:0.34px;}.cls-11{fill:#2b1100;}</style><linearGradient id="linear-gradient" x1="-205.75" y1="1014.39" x2="-529.6" y2="1014.39" gradientTransform="matrix(0.25, 0, 0, -0.24, 156.61, 310.23)" gradientUnits="userSpaceOnUse"><stop offset="0" stop-color="#3d1700"/><stop offset="1" stop-color="#693009"/></linearGradient><linearGradient id="linear-gradient-2" x1="-391.07" y1="381.88" x2="-706.97" y2="381.88" gradientTransform="matrix(0.3, 0, 0, -0.4, 211.7, 218.45)" gradientUnits="userSpaceOnUse"><stop offset="0" stop-color="#520"/><stop offset="1" stop-color="#c87137"/></linearGradient><linearGradient id="linear-gradient-3" x1="-768.89" y1="511.02" x2="-801.03" y2="511.02" gradientTransform="matrix(0.36, 0, 0, -0.38, 321.22, 223.78)" xlink:href="#linear-gradient-2"/></defs><title>Simple_Farm_Animals</title><g id="g7949"><g id="g7951"><g id="g7953"><path id="path7955" class="cls-1" d="M57.43,40c-16.87,0-30.54,4.18-30.54,20.39V94.32h6.72V73.81c0-5.62,12-8.78,23.82-8.78.14,0,.28,0,.43,0s.28,0,.43,0c11.8,0,23.82,3.16,23.82,8.78V94.32h6.72V60.39C88.83,44.18,75.15,40,58.29,40h-.86Z"/><path id="path7957" class="cls-2" d="M26.88,92.66v5h6.74v-5Zm55.18,0v5h6.75v-5Z"/><path id="path7959" class="cls-3" d="M27.6,74.08a2.24,2.24,0,0,0-.73.13V87.6H27a3.85,3.85,0,0,0,3.6-3.67c.05-1.53-.67-2.11-.81-3.2-.19-1.47.56-3.07,0-4.44-.4-1-1-2.21-2.22-2.21Zm55.19,0a2.4,2.4,0,0,0-.71.12V87.6h.13a3.85,3.85,0,0,0,3.6-3.67c0-1.53-.67-2.11-.81-3.2-.18-1.47.57-3.07,0-4.44-.4-1-1-2.21-2.21-2.21Z"/></g><path id="path7961" class="cls-4" d="M81.64,45.43s6-7.62,10.35-8.66c6.33-1.5,10.44.59,13.55,4.14S109.41,51,107.8,54.65s-6.18,10.51-5.08,16c.42,2.09,4.14,4.89,4.14,4.89s-6.66-1.36-8.28-4c-3.15-5.06,2.12-12.24.19-17.88-1.24-3.63-3.49-7.89-7.15-9-3.07-1-9.23,2.82-9.23,2.82Z"/><g id="g7963"><path id="path7965" class="cls-5" d="M57.34,32c-20,0-36.2,9.72-36.2,28.93V95.74h8V76.33c0-6.65,14.24-9.3,28.23-9.3.17,0,.34,0,.51,0s.33,0,.51,0c14,0,28.22,2.65,28.22,9.3V95.74h8V60.92C94.55,41.71,78.34,32,58.36,32h-1Z"/><path id="path7967" class="cls-4" d="M21.15,93.77v5.92h8V93.77Zm65.4,0v5.92h8V93.77Z"/><path id="path7969" class="cls-6" d="M30.44,40.29c-5.78,4.81-9.3,11.69-9.3,20.64V67.6c3.47,0,7.47-2.86,7.28-6-.47-8,.92-10.45,3.2-15.51a7.54,7.54,0,0,0-1.18-5.8Z"/><path id="path7971" class="cls-4" d="M57.33,32C46.39,32,36.58,34.91,30,40.69c1.8,1.75,8.25,3.55,11.66,1.61a1.34,1.34,0,0,0,.46-1.09c.06-2.64.21-4.32.9-4.31s1.22,1.33,1.16,4c0,.24,0,.47,0,.7.68-.11,1.53.09,2.06-.37a1.43,1.43,0,0,0,.32-1c.06-2.64.34-4,1-3.94s1.22,1.32,1.16,4l0,.45c.7-.18,1.52-.09,2-.57A1.09,1.09,0,0,0,51,39.3c.06-2.64.38-3.93,1.08-3.91s1.19,1.24,1.15,3.81c.71-.27,1.24-.3,1.66-.75.89-1,.69-3.68,1.36-3.67s1,.53,1.12,2.4c3.17-1.85,5.42-3.2,5.2-5C61.17,32,59.76,32,58.34,32h-1Z"/><path id="path7973" class="cls-6" d="M22.08,76.32a2.61,2.61,0,0,0-.93.18V91.74l.27,0a4.4,4.4,0,0,0,4.12-4.19c.07-1.75-.77-2.41-.93-3.66-.21-1.67.65-3.5,0-5.06-.46-1.1-1.13-2.53-2.53-2.53Zm65.35,0a2.6,2.6,0,0,0-.84.15V91.75h.18a4.4,4.4,0,0,0,4.11-4.19c.06-1.75-.77-2.41-.92-3.66-.21-1.67.64-3.5,0-5.06-.46-1.1-1.13-2.53-2.53-2.53Z"/></g></g><g id="g7975"><g id="g7977"><path id="path7979" class="cls-7" d="M23,6.58s-2.42,5.81-1.62,8.63c.39,1.39,3,3.38,3,3.38s-2.09,5.13-2.22,7.82a12.11,12.11,0,0,0,.88,5c.8,2,3,3.46,3.56,5.53a7.62,7.62,0,0,1-.14,4.31c-.19.61-1,1-1,1.62a2.32,2.32,0,0,0,.44,1.36c.48.81,1.59,1.27,1.93,2.15.27.67-.23,1.47,0,2.16a1.42,1.42,0,0,0,.59.81,8.53,8.53,0,0,0,8.31,0,1.4,1.4,0,0,0,.58-.81c.23-.69-.26-1.49,0-2.16.34-.88,1.46-1.34,1.93-2.15a2.33,2.33,0,0,0,.45-1.36c-.08-.62-.85-1-1-1.62a7.62,7.62,0,0,1-.15-4.31c.58-2.07,2.77-3.52,3.56-5.53a12,12,0,0,0,.89-5c-.14-2.69-2.22-7.82-2.22-7.82s2.56-2,3-3.38c.8-2.82-1.63-8.63-1.63-8.63s-3,5.63-5.33,8c-.17.17-.51,0-.75,0-1.14,0-2.26-.41-3.41-.41s-2.27.39-3.4.41c-.25,0-.59.17-.75,0-2.3-2.33-5.34-8-5.34-8Z"/><path id="path7981" class="cls-4" d="M28.07,41.69a.86.86,0,0,0-.23.06c-.58.28-.58,1.32,0,2.3s1.52,1.55,2.1,1.27.57-1.31,0-2.29-1.29-1.41-1.86-1.34Zm8.62,0A2.45,2.45,0,0,0,35,43c-.58,1-.58,2,0,2.29S36.46,45,37,44.05s.59-2,0-2.3a.7.7,0,0,0-.36-.06Z"/><path id="path7983" class="cls-8" d="M22.79,9.14s-1.32,4.09-.66,6c.37,1.09,2.44,2.63,2.44,2.63a4.07,4.07,0,0,1,2-2L22.79,9.14Zm19.3,0-3.78,6.68a4,4,0,0,1,2,2s2.08-1.54,2.45-2.63c.65-1.92-.67-6-.67-6Z"/><path id="path7985" class="cls-6" d="M32.44,14.35c-1.42,0-4,1.63-4,1.63s2.08,10,2.25,15.09c.1,3-1.56,6.18-.75,9.1.39,1.39,1.16,3.4,2.5,3.4s2.12-2,2.5-3.4c.81-2.92-.85-6.06-.75-9.1C34.36,26,36.44,16,36.44,16s-2.58-1.63-4-1.63Z"/><path id="path7987" class="cls-9" d="M28.75,46.58a3.9,3.9,0,0,0,7.38,0,6.22,6.22,0,0,1-3.69,1.07A6.22,6.22,0,0,1,28.75,46.58Z"/><g id="g7989"><g id="g7993"><g id="g7995"><path id="path7997" class="cls-10" d="M37,25.07c-.73,3,.05,6,1.74,6.75s3.67-1.18,4.4-4.21,0-6.05-1.74-6.75S37.77,22,37,25.07Z"/><path id="path7999" class="cls-11" d="M37.77,27.61c-.27,1.73.36,3.27,1.41,3.43s2.11-1.11,2.38-2.83-.36-3.27-1.41-3.43S38,25.88,37.77,27.61Z"/><path id="path8001" class="cls-10" d="M27.85,25.07c.73,3-.05,6-1.74,6.75s-3.66-1.18-4.4-4.21.05-6.05,1.75-6.75S27.12,22,27.85,25.07Z"/><path id="path8003" class="cls-11" d="M27.11,27.61c.27,1.73-.36,3.27-1.41,3.43s-2.11-1.11-2.38-2.83.36-3.27,1.41-3.43S26.84,25.88,27.11,27.61Z"/></g></g></g><path id="path8005" class="cls-4" d="M32.45,14.13a32.18,32.18,0,0,0-3.4.24,3.81,3.81,0,0,0-.8.13s-2.41,4.37-1.52,6.36c.3.65,1.9,1,1.9,1,0-2.05.37-2.71.82-2.71s.84,2.22.84,4.3c0,.28-.16.58,0,.81.26.45,1.36.73,1.36.73v-.15c0-2.07.37-5.29.83-5.29s.83,3.22.83,5.29V25s1.1-.28,1.36-.73c.14-.24,0-.54,0-.82,0-2.08.36-4.3.82-4.3s.83.66.84,2.72c0,0,1.6-.37,1.89-1,.89-2-1.51-6.37-1.51-6.37l-.8-.12a32.56,32.56,0,0,0-3.41-.24Z"/></g></g></g></svg>