<?xml version="1.0" encoding="UTF-8" standalone="no"?>
<!-- Created with Inkscape (http://www.inkscape.org/) -->
<svg xmlns:svg="http://www.w3.org/2000/svg" xmlns="http://www.w3.org/2000/svg" xmlns:dc="http://purl.org/dc/elements/1.1/" xmlns:cc="http://web.resource.org/cc/" xmlns:rdf="http://www.w3.org/1999/02/22-rdf-syntax-ns#" version="1.0" width="504.88699" height="513.68701" viewBox="0 0 504.887 513.687" id="Layer_1" xml:space="preserve"><defs id="defs94"/>



<g id="g5">
	<path d="M 46.535,270.813 C 46.535,404.913 135.167,513.668 244.499,513.668 C 353.795,513.668 442.427,404.912 442.427,270.813 C 442.427,136.712 353.795,27.957 244.499,27.957 C 135.167,27.957 46.535,136.713 46.535,270.813 L 46.535,270.813 z " style="fill-rule:evenodd;stroke:black;stroke-width:0.036;stroke-miterlimit:10" id="path7"/>
	<path d="M 50.747,271.245 C 50.747,403.113 137.867,510.069 245.327,510.069 C 352.786,510.069 439.906,403.113 439.906,271.245 C 439.906,139.341 352.786,32.385 245.327,32.385 C 137.867,32.385 50.747,139.341 50.747,271.245 L 50.747,271.245 z " style="fill:#e8ccba;fill-rule:evenodd;stroke:black;stroke-width:0.036;stroke-miterlimit:10" id="path9"/>
	<path d="M 58.415,217.353 C 52.763,215.913 47.075,216.165 41.207,218.109 C 35.231,219.981 27.779,222.537 23.135,228.981 C 18.311,235.389 13.595,246.261 13.307,256.737 C 12.983,267.285 17.375,282.369 21.623,291.153 C 25.799,299.649 30.623,304.941 38.615,308.001 C 46.607,310.989 56.687,311.205 69.251,308.938 L 69.251,308.938 L 58.415,217.353 L 58.415,217.353 z " style="fill-rule:evenodd;stroke:black;stroke-width:0.036;stroke-miterlimit:10" id="path11"/>
	<path d="M 54.923,315.741 C 63.959,318.513 70.331,317.685 74.327,313.258 C 78.215,308.65 79.547,302.781 78.467,288.993 C 77.243,274.953 70.979,243.633 67.451,230.601 C 63.779,217.713 60.539,211.521 57.191,211.881 L 57.191,211.881 C 56.867,215.589 56.111,218.289 54.635,220.125 C 53.123,221.817 51.323,221.781 48.551,222.645 C 45.599,223.509 41.135,223.653 37.643,225.417 C 34.043,227.181 30.587,228.189 27.563,233.013 C 24.467,237.765 20.543,245.865 19.679,253.857 C 18.743,261.777 20.435,273.297 22.127,280.065 C 23.783,286.761 26.951,290.073 29.543,293.745 C 32.063,297.165 34.475,299.505 37.355,301.197 C 40.199,302.781 43.583,303.033 46.247,303.753 C 48.731,304.438 50.999,303.321 52.511,305.409 C 53.879,307.426 54.815,310.773 54.923,315.741 L 54.923,315.741 z " style="fill:#e8ccba;fill-rule:evenodd" id="path13"/>
	<path d="M 432.274,218.937 C 437.89,217.497 443.578,217.749 449.482,219.693 C 455.386,221.565 462.802,224.121 467.554,230.565 C 472.234,236.973 477.094,247.845 477.417,258.321 C 477.525,268.797 473.35,284.025 469.065,292.773 C 464.781,301.269 459.993,306.597 452.073,309.585 C 444.046,312.573 433.966,312.789 421.437,310.522 L 421.437,310.522 L 432.274,218.937 L 432.274,218.937 z " style="fill-rule:evenodd;stroke:black;stroke-width:0.036;stroke-miterlimit:10" id="path15"/>
	<path d="M 435.803,317.325 C 426.731,320.169 420.359,319.305 416.399,314.877 C 412.403,310.233 411.107,304.51 412.223,290.613 C 413.339,276.573 419.603,245.253 423.239,232.22 C 426.84,219.296 430.115,213.176 433.499,213.464 L 433.499,213.464 C 433.787,217.172 434.543,219.872 436.056,221.708 C 437.459,223.364 439.295,223.436 442.14,224.264 C 445.02,225.056 449.411,225.272 453.083,227 C 456.575,228.656 460.067,229.844 463.163,234.596 C 466.187,239.348 470.003,247.448 471.012,255.44 C 471.84,263.36 470.184,274.845 468.564,281.685 C 466.835,288.416 463.668,291.621 461.148,295.329 C 458.52,298.713 456.144,301.161 453.335,302.817 C 450.419,304.437 446.999,304.581 444.443,305.337 C 441.851,305.985 439.583,304.978 438.179,307.029 C 436.702,309.045 435.91,312.43 435.803,317.325 L 435.803,317.325 z " style="fill:#e8ccba;fill-rule:evenodd" id="path17"/>
	<path d="M 403.33,69.069 C 390.118,59.169 374.351,47.037 352.534,36.561 C 330.538,25.941 296.051,12.657 272.795,6.573 C 249.467,0.489 230.243,-0.843 213.863,0.489 C 197.483,1.749 181.895,6.393 175.271,14.709 C 168.575,22.953 167.531,31.557 174.227,50.241 C 180.887,69.105 192.983,101.829 215.375,126.453 C 237.911,150.933 276.826,175.521 307.822,196.041 C 338.711,216.489 371.83,233.301 399.262,247.845 C 426.514,262.245 453.081,276.178 470.362,281.866 C 487.354,287.41 496.246,289.39 501.358,280.858 C 506.398,272.11 505.966,252.958 500.35,230.062 C 494.554,206.878 478.966,166.486 467.338,143.734 C 455.566,121.018 441.525,107.482 430.762,94.954 C 419.927,82.353 416.435,78.861 403.33,69.069 L 403.33,69.069 z " style="fill-rule:evenodd;stroke:black;stroke-width:0.036;stroke-miterlimit:10" id="path19"/>
	<path d="M 400.774,73.641 C 387.85,63.813 371.902,51.897 351.526,41.637 C 330.97,31.269 300.874,19.065 278.879,12.657 C 256.738,6.285 237.263,3.405 220.451,4.017 C 203.639,4.664 186.035,7.761 179.303,16.221 C 172.679,24.465 173.291,34.869 180.851,53.805 C 188.303,72.921 201.443,105.753 224.015,129.513 C 246.587,153.057 284.746,174.873 315.454,194.529 C 346.198,214.113 380.11,232.221 406.894,246.333 C 433.498,260.337 458.482,272.974 473.926,277.833 C 489.226,282.514 494.482,282.441 498.298,274.27 C 502.042,265.81 501.789,249.105 496.281,228.045 C 490.521,206.805 476.229,169.905 464.781,148.305 C 453.261,126.741 438.933,112.053 428.205,99.525 C 417.479,87.033 413.519,83.217 400.774,73.641 L 400.774,73.641 z " style="fill:#950600;fill-rule:evenodd" id="path21"/>
	<path d="M 191.003,23.349 C 200.147,22.557 225.167,20.433 243.311,22.809 C 261.383,25.149 277.618,28.785 298.679,37.065 C 319.702,45.273 348.179,58.593 368.267,71.589 C 388.175,84.549 402.467,96.969 417.551,114.249 C 432.563,131.565 447.826,155.577 457.655,174.189 C 467.231,192.657 471.695,211.845 474.935,223.977 C 478.031,235.929 476.699,243.093 476.483,245.325 C 476.267,247.269 475.295,243.057 473.423,236.181 C 471.37,229.269 470.939,219.153 464.782,204.177 C 458.482,188.949 449.194,165.333 436.343,146.253 C 423.347,127.065 406.931,106.221 388.067,90.381 C 368.987,74.577 345.227,61.941 323.591,51.789 C 301.918,41.493 278.267,33.717 259.582,29.434 C 240.791,25.15 224.303,26.05 212.351,25.87 C 200.471,25.618 192.479,27.706 188.951,27.418 C 185.279,26.949 181.931,24.105 191.003,23.349 L 191.003,23.349 z " style="fill-rule:evenodd;stroke:black;stroke-width:0.036;stroke-miterlimit:10" id="path23"/>
	<path d="M 199.643,35.013 C 209.003,36.633 230.927,39.621 251.951,47.721 C 272.83,55.713 301.918,69.285 324.095,82.749 C 346.199,96.177 367.115,113.241 383.494,127.965 C 399.622,142.581 410.782,155.289 420.574,170.121 C 430.294,184.917 438.07,207.237 441.418,215.841 C 444.551,224.265 444.227,227.505 439.906,220.413 C 435.406,212.997 424.858,186.897 415.498,172.677 C 406.066,158.349 397.102,148.161 384.034,135.597 C 370.75,122.997 353.83,109.317 337.306,98.013 C 320.71,86.529 303.178,76.665 285.97,68.025 C 268.654,59.241 250.294,51.861 235.174,46.713 C 220.09,41.709 202.558,39.945 196.582,38.073 C 190.571,36.021 190.391,33.429 199.643,35.013 L 199.643,35.013 z " style="fill-rule:evenodd;stroke:black;stroke-width:0.036;stroke-miterlimit:10" id="path25"/>
	<path d="M 197.087,56.361 C 201.119,62.877 210.731,77.061 223.007,89.877 C 235.283,102.549 252.023,117.525 269.735,132.033 C 287.339,146.469 307.283,161.913 327.623,175.737 C 347.892,189.489 376.224,206.301 390.119,213.825 C 403.727,221.061 408.587,220.449 409.415,219.909 C 410.207,219.261 405.527,217.317 394.691,210.765 C 383.567,204.105 361.031,192.081 343.895,180.813 C 326.651,169.329 308.759,155.685 292.595,143.229 C 276.359,130.701 260.807,118.281 247.883,106.653 C 234.995,95.025 224.051,83.397 215.879,74.145 C 207.671,64.821 202.271,54.237 199.139,51.285 C 196.007,48.297 193.055,49.845 197.087,56.361 L 197.087,56.361 z " style="fill-rule:evenodd;stroke:black;stroke-width:0.036;stroke-miterlimit:10" id="path27"/>
	<path d="M 134.123,31.989 C 123.827,38.829 114.071,44.157 99.563,61.437 C 84.875,78.897 61.151,110.073 47.255,135.093 C 33.395,159.861 24.575,187.545 16.763,209.253 C 8.735,230.853 0.239,249.645 0.023,264.117 C -0.157,278.481 4.667,293.853 15.755,295.077 C 26.951,296.121 48.623,285.825 66.047,270.705 C 83.399,255.297 103.775,228.117 118.859,204.177 C 133.655,180.201 145.679,155.901 154.931,127.965 C 164.147,99.813 172.679,55.209 173.723,37.065 C 174.551,19.029 167.099,21.117 160.511,20.289 C 153.743,19.533 144.347,25.005 134.123,31.989 L 134.123,31.989 z " style="fill-rule:evenodd;stroke:black;stroke-width:0.036;stroke-miterlimit:10" id="path29"/>
	<path d="M 130.559,39.585 C 120.371,47.181 112.739,52.545 99.059,69.573 C 85.199,86.673 62.231,116.841 48.767,141.177 C 35.375,165.441 26.627,193.593 19.319,213.825 C 11.903,233.913 6.143,248.313 5.099,261.058 C 4.019,273.658 4.883,286.906 13.235,288.994 C 21.695,290.938 38.543,286.114 54.887,272.723 C 71.051,259.042 94.235,231.214 109.715,208.246 C 125.087,185.206 136.751,163.534 146.795,135.598 C 156.695,107.374 166.919,59.998 169.151,41.098 C 171.095,22.306 165.983,24.142 159.503,23.854 C 152.915,23.637 140.675,31.845 130.559,39.585 L 130.559,39.585 z " style="fill:#950600;fill-rule:evenodd" id="path31"/>
	<path d="M 141.215,48.225 C 133.835,53.877 115.511,68.781 105.683,82.245 C 95.819,95.565 91.247,109.965 82.823,127.965 C 74.363,146.073 65.039,170.229 55.391,189.453 C 45.635,208.497 28.895,232.761 24.899,241.257 C 20.975,249.501 27.023,244.605 31.523,239.205 C 35.951,233.517 44.375,219.405 50.819,208.245 C 57.047,197.085 62.447,186.897 69.107,172.677 C 75.767,158.205 84.119,136.929 90.419,122.889 C 96.503,108.885 99.167,99.561 106.187,89.373 C 113.135,79.077 124.871,68.781 132.071,61.941 C 139.163,55.029 147.299,50.997 148.847,48.729 C 150.323,46.389 148.379,42.609 141.215,48.225 L 141.215,48.225 z " style="fill-rule:evenodd;stroke:black;stroke-width:0.036;stroke-miterlimit:10" id="path33"/>
	<path d="M 157.487,50.781 C 152.555,61.005 141.503,90.957 133.079,114.249 C 124.583,137.505 116.735,168.825 107.195,188.913 C 97.475,208.713 87.755,219.189 75.695,233.121 C 63.419,247.197 40.379,265.917 35.051,272.217 C 29.939,278.157 38.111,274.234 44.699,269.194 C 51.143,263.974 63.671,252.562 73.679,241.761 C 83.651,230.889 95.567,218.757 104.135,204.681 C 112.559,190.425 117.815,174.333 123.935,157.953 C 129.875,141.537 133.907,125.229 140.207,107.661 C 146.507,89.949 158.531,63.525 161.555,53.805 C 164.327,44.193 162.275,40.737 157.487,50.781 L 157.487,50.781 z " style="fill-rule:evenodd;stroke:black;stroke-width:0.036;stroke-miterlimit:10" id="path35"/>
	<path d="M 181.463,93.729 C 182.291,97.041 185.387,105.753 189.491,111.549 C 193.523,117.201 202.415,125.985 205.043,127.641 C 207.383,129.117 205.979,124.185 203.891,120.765 C 201.695,117.237 195.539,111.765 192.371,106.977 C 189.095,102.117 186.791,94.161 184.919,92.001 C 182.975,89.697 180.707,90.417 181.463,93.729 L 181.463,93.729 z " style="fill-rule:evenodd;stroke:black;stroke-width:0.036;stroke-miterlimit:10" id="path37"/>
	<path d="M 210.767,129.369 C 210.083,130.017 210.083,132.753 210.767,133.977 C 211.487,135.057 214.079,136.137 214.799,135.705 C 215.339,134.985 214.871,131.637 214.223,130.521 C 213.539,129.477 211.235,128.721 210.767,129.369 L 210.767,129.369 z " style="fill-rule:evenodd;stroke:black;stroke-width:0.036;stroke-miterlimit:10" id="path39"/>
	<path d="M 219.407,139.161 C 218.723,139.809 218.723,142.545 219.407,143.769 C 220.127,144.849 222.719,145.929 223.439,145.497 C 223.979,144.777 223.511,141.429 222.863,140.313 C 222.179,139.269 219.875,138.513 219.407,139.161 L 219.407,139.161 z " style="fill-rule:evenodd;stroke:black;stroke-width:0.036;stroke-miterlimit:10" id="path41"/>
	<path d="M 179.123,77.925 C 178.295,78.321 177.899,81.309 178.367,82.461 C 178.871,83.613 181.211,85.197 182.039,84.837 C 182.651,84.261 182.795,80.769 182.327,79.653 C 181.715,78.465 179.807,77.385 179.123,77.925 L 179.123,77.925 z " style="fill-rule:evenodd;stroke:black;stroke-width:0.036;stroke-miterlimit:10" id="path43"/>
	<path d="M 389.146,252.705 C 391.45,255.189 398.686,261.022 405.022,264.081 C 411.214,266.926 423.67,270.094 426.55,270.237 C 429.249,270.309 425.722,266.709 422.085,264.837 C 418.378,262.858 410.386,261.129 405.201,258.682 C 399.945,256.017 394.006,250.545 391.269,249.501 C 388.532,248.457 386.807,250.221 389.146,252.705 L 389.146,252.705 z " style="fill-rule:evenodd;stroke:black;stroke-width:0.036;stroke-miterlimit:10" id="path45"/>
	<path d="M 434.542,272.901 C 434.507,273.801 436.307,275.817 437.603,276.321 C 438.791,276.573 441.599,275.673 441.743,274.881 C 441.672,273.873 439.079,271.894 437.855,271.461 C 436.559,271.102 434.614,272.037 434.542,272.901 L 434.542,272.901 z " style="fill-rule:evenodd;stroke:black;stroke-width:0.036;stroke-miterlimit:10" id="path47"/>
	<path d="M 82.499,267.069 C 84.839,266.061 90.779,262.857 94.631,259.401 C 98.303,255.872 103.847,248.313 104.747,246.441 C 105.539,244.569 102.155,246.009 99.851,247.989 C 97.511,249.825 94.091,254.937 90.995,257.781 C 87.719,260.589 82.355,263.109 80.879,264.765 C 79.511,266.313 80.051,267.861 82.499,267.069 L 82.499,267.069 z " style="fill-rule:evenodd;stroke:black;stroke-width:0.036;stroke-miterlimit:10" id="path49"/>
	<path d="M 105.935,241.869 C 106.619,242.049 108.779,241.077 109.499,240.213 C 110.039,239.277 110.003,236.685 109.391,236.469 C 108.599,236.253 106.223,237.765 105.575,238.773 C 104.963,239.565 105.215,241.617 105.935,241.869 L 105.935,241.869 z " style="fill-rule:evenodd;stroke:black;stroke-width:0.036;stroke-miterlimit:10" id="path51"/>
	<path d="M 72.851,273.657 C 73.427,273.981 75.839,273.297 76.631,272.577 C 77.315,271.713 77.711,269.229 77.135,268.869 C 76.379,268.581 73.751,269.589 72.995,270.525 C 72.239,271.317 72.239,273.189 72.851,273.657 L 72.851,273.657 z " style="fill-rule:evenodd;stroke:black;stroke-width:0.036;stroke-miterlimit:10" id="path53"/>
	<path d="M 135.995,240.393 C 135.995,270.453 160.691,294.861 191.147,294.861 C 221.603,294.861 246.299,270.453 246.299,240.393 C 246.299,210.297 221.603,185.925 191.147,185.925 C 160.691,185.925 135.995,210.297 135.995,240.393 L 135.995,240.393 z " style="fill-rule:evenodd;stroke:black;stroke-width:0.036;stroke-miterlimit:10" id="path55"/>
	<path d="M 139.811,240.393 C 139.811,268.365 162.815,291.081 191.147,291.081 C 219.479,291.081 242.483,268.365 242.483,240.393 C 242.483,212.385 219.479,189.705 191.147,189.705 C 162.815,189.705 139.811,212.385 139.811,240.393 L 139.811,240.393 z " style="fill:#f0f0f0;fill-rule:evenodd;stroke:black;stroke-width:0.036;stroke-miterlimit:10" id="path57"/>
	<path d="M 243.419,240.393 C 243.419,270.453 268.114,294.861 298.57,294.861 C 329.062,294.861 353.722,270.453 353.722,240.393 C 353.722,210.297 329.062,185.925 298.57,185.925 C 268.114,185.925 243.419,210.297 243.419,240.393 L 243.419,240.393 z " style="fill-rule:evenodd;stroke:black;stroke-width:0.036;stroke-miterlimit:10" id="path59"/>
	<path d="M 247.271,240.393 C 247.271,268.365 270.238,291.081 298.57,291.081 C 326.938,291.081 349.906,268.365 349.906,240.393 C 349.906,212.385 326.938,189.705 298.57,189.705 C 270.238,189.705 247.271,212.385 247.271,240.393 L 247.271,240.393 z " style="fill:#f0f0f0;fill-rule:evenodd;stroke:black;stroke-width:0.036;stroke-miterlimit:10" id="path61"/>
	<path d="M 138.875,226.857 C 130.271,225.093 123.287,223.725 117.491,222.753 C 111.659,221.745 107.339,221.133 104.243,220.917 L 104.243,220.917 L 96.395,230.133 L 96.395,230.133 C 106.943,231.393 115.583,232.653 122.603,233.769 C 129.623,234.921 134.735,235.929 138.227,236.937 L 138.227,236.937 C 138.443,233.589 138.659,230.241 138.875,226.857 L 138.875,226.857 z " style="fill-rule:evenodd;stroke:black;stroke-width:0.036;stroke-miterlimit:10" id="path63"/>
	<path d="M 349.906,226.857 C 352.606,225.453 355.018,224.517 357.43,224.337 C 359.734,224.121 361.894,224.373 363.909,225.381 L 363.909,225.381 L 374.493,231.177 L 374.493,231.177 C 372.838,231.897 370.21,232.761 366.178,233.769 C 362.146,234.741 357.033,235.749 350.554,236.937 L 350.554,236.937 C 350.339,233.589 350.122,230.241 349.906,226.857 L 349.906,226.857 z " style="fill-rule:evenodd;stroke:black;stroke-width:0.036;stroke-miterlimit:10" id="path65"/>
	<path d="M 298.427,250.833 C 298.427,257.133 292.631,262.281 285.467,262.281 C 278.303,262.281 272.507,257.133 272.507,250.833 C 272.507,244.497 278.303,239.385 285.467,239.385 C 292.631,239.385 298.427,244.497 298.427,250.833 L 298.427,250.833 z " style="fill-rule:evenodd;stroke:black;stroke-width:0.036;stroke-miterlimit:10" id="path67"/>
	<path d="M 288.131,248.673 C 288.131,250.653 286.547,252.201 284.603,252.201 C 282.659,252.201 281.075,250.653 281.075,248.673 C 281.075,246.729 282.659,245.181 284.603,245.181 C 286.547,245.181 288.131,246.729 288.131,248.673 L 288.131,248.673 z " style="fill:white;fill-rule:evenodd;stroke:black;stroke-width:0.036;stroke-miterlimit:10" id="path69"/>
	<path d="M 199.823,252.813 C 199.823,259.257 205.619,264.514 212.783,264.514 C 219.947,264.514 225.743,259.257 225.743,252.813 C 225.743,246.333 219.947,241.113 212.783,241.113 C 205.619,241.113 199.823,246.333 199.823,252.813 L 199.823,252.813 z " style="fill-rule:evenodd;stroke:black;stroke-width:0.036;stroke-miterlimit:10" id="path71"/>
	<path d="M 206.375,250.689 C 206.375,252.633 207.959,254.217 209.903,254.217 C 211.847,254.217 213.431,252.633 213.431,250.689 C 213.431,248.745 211.847,247.161 209.903,247.161 C 207.959,247.161 206.375,248.745 206.375,250.689 L 206.375,250.689 z " style="fill:white;fill-rule:evenodd;stroke:black;stroke-width:0.036;stroke-miterlimit:10" id="path73"/>
	<path d="M 312.431,228.189 C 309.622,225.885 304.187,222.501 299.867,220.413 C 295.475,218.253 290.183,216.489 286.763,215.949 C 283.271,215.301 279.887,215.985 279.383,217.029 C 278.914,218.037 280.715,220.737 283.666,222.069 C 286.511,223.257 292.162,222.969 296.303,224.517 C 300.407,225.993 304.475,229.269 307.534,231.285 C 310.379,233.193 311.963,235.677 313.402,236.109 C 314.698,236.361 315.706,234.849 315.598,233.517 C 315.454,232.113 314.914,230.385 312.431,228.189 L 312.431,228.189 z " style="fill-rule:evenodd;stroke:black;stroke-width:0.036;stroke-miterlimit:10" id="path75"/>
	<path d="M 179.231,233.985 C 181.139,231.321 185.423,226.713 189.023,223.905 C 192.515,220.989 197.087,218.037 200.255,216.849 C 203.423,215.553 206.591,215.373 207.527,216.309 C 208.211,217.209 207.167,220.089 204.827,222.033 C 202.451,223.833 196.835,224.661 193.523,227.037 C 190.031,229.377 187.007,233.301 184.739,235.893 C 182.543,238.341 181.535,240.969 180.455,241.689 C 179.123,242.193 177.863,241.077 177.647,239.745 C 177.287,238.341 177.395,236.649 179.231,233.985 L 179.231,233.985 z " style="fill-rule:evenodd;stroke:black;stroke-width:0.036;stroke-miterlimit:10" id="path77"/>
	<path d="M 236.723,443.757 C 227.075,442.749 223.259,443.073 212.243,439.69 C 201.155,436.27 183.371,430.51 171.131,423.633 C 158.891,416.722 149.243,409.125 139.523,398.577 C 129.839,387.957 119.687,373.521 113.387,360.741 C 107.123,347.961 103.487,335.47 102.227,322.617 L 102.227,322.617 C 102.011,319.989 102.875,317.577 104.423,314.985 C 106.043,312.357 111.227,309.117 111.767,307.353 C 112.055,305.588 109.355,302.925 106.871,304.365 C 104.387,305.805 99.311,310.269 97.043,315.525 C 94.559,320.601 93.155,329.961 92.687,334.857 C 92.219,339.681 93.731,342.993 94.595,344.397 C 95.459,345.657 96.971,345.296 97.619,342.777 C 98.159,340.221 98.195,335.721 97.871,329.132 L 97.871,329.132 C 100.283,341.805 104.639,354.368 111.479,367.257 C 118.211,380.109 126.743,394.796 138.191,405.92 C 149.639,416.9 166.811,426.404 179.555,432.885 C 192.191,439.221 204.143,441.452 213.323,444.044 C 222.359,446.528 226.535,447.105 233.483,447.86 C 240.359,448.472 247.199,448.472 254.147,447.86 C 261.023,447.104 265.199,446.528 274.307,444.044 C 283.379,441.452 295.33,439.221 308.075,432.885 C 320.819,426.405 337.811,416.901 349.475,405.92 C 360.887,394.796 369.275,380.108 376.151,367.257 C 382.919,354.368 387.311,341.805 389.759,329.132 L 389.759,329.132 C 389.363,335.721 389.507,340.221 390.047,342.777 C 390.586,345.297 392.135,345.657 393.034,344.397 C 393.826,342.993 395.303,339.681 394.942,334.857 C 394.402,329.961 392.998,320.601 390.586,315.525 C 388.211,310.269 383.135,305.805 380.759,304.365 C 378.238,302.926 375.359,305.589 375.863,307.353 C 376.367,309.117 381.515,312.357 383.243,314.985 C 384.791,317.577 385.512,319.989 385.403,322.617 L 385.403,322.617 C 384.143,335.47 380.507,347.961 374.243,360.741 C 367.943,373.521 357.791,387.957 348.107,398.577 C 338.387,409.125 328.739,416.722 316.535,423.633 C 304.26,430.51 286.475,436.27 275.388,439.69 C 264.371,443.074 260.556,442.75 250.908,443.757 C 241.223,444.802 246.407,444.802 236.723,443.757 L 236.723,443.757 z " style="fill-rule:evenodd;stroke:black;stroke-width:0.036;stroke-miterlimit:10" id="path79"/>
	<path d="M 130.271,269.842 C 131.027,272.073 132.467,275.854 134.591,278.661 C 136.643,281.397 140.747,284.997 142.727,286.113 C 144.635,286.941 146.723,285.969 146.219,284.565 C 145.607,283.053 141.467,280.353 139.631,277.977 C 137.723,275.529 136.067,272.721 134.951,270.525 C 133.763,268.329 133.619,266.025 132.719,265.161 C 131.747,264.333 129.803,264.441 129.407,265.342 C 128.903,266.062 129.371,267.609 130.271,269.842 L 130.271,269.842 z " style="fill-rule:evenodd;stroke:black;stroke-width:0.036;stroke-miterlimit:10" id="path81"/>
	<path d="M 125.591,258.321 C 125.591,259.617 126.635,260.661 127.931,260.661 C 129.227,260.661 130.271,259.617 130.271,258.321 C 130.271,257.025 129.227,255.981 127.931,255.981 C 126.635,255.981 125.591,257.025 125.591,258.321 L 125.591,258.321 z " style="fill-rule:evenodd;stroke:black;stroke-width:0.036;stroke-miterlimit:10" id="path83"/>
	<path d="M 149.315,289.821 C 149.315,291.117 150.359,292.161 151.655,292.161 C 152.951,292.161 153.995,291.117 153.995,289.821 C 153.995,288.561 152.951,287.481 151.655,287.481 C 150.359,287.481 149.315,288.562 149.315,289.821 L 149.315,289.821 z " style="fill-rule:evenodd;stroke:black;stroke-width:0.036;stroke-miterlimit:10" id="path85"/>
	<path d="M 260.158,294.321 C 261.887,295.941 264.73,298.749 267.862,300.405 C 270.923,301.989 276.106,303.429 278.41,303.609 C 280.606,303.537 281.795,301.737 280.858,300.693 C 279.634,299.649 274.81,298.893 272.074,297.597 C 269.303,296.193 266.638,294.357 264.658,292.916 C 262.606,291.368 261.526,289.425 260.303,289.028 C 259.042,288.632 257.387,289.676 257.423,290.612 C 257.351,291.441 258.358,292.629 260.158,294.321 L 260.158,294.321 z " style="fill-rule:evenodd;stroke:black;stroke-width:0.036;stroke-miterlimit:10" id="path87"/>
	<path d="M 250.943,285.934 C 251.519,287.085 252.887,287.589 254.074,287.049 C 255.226,286.474 255.73,285.07 255.154,283.917 C 254.614,282.766 253.21,282.262 252.059,282.837 C 250.871,283.377 250.403,284.781 250.943,285.934 L 250.943,285.934 z " style="fill-rule:evenodd;stroke:black;stroke-width:0.036;stroke-miterlimit:10" id="path89"/>
	<path d="M 285.971,304.113 C 286.511,305.265 287.914,305.769 289.067,305.193 C 290.255,304.653 290.723,303.249 290.183,302.097 C 289.607,300.909 288.239,300.441 287.051,300.981 C 285.898,301.558 285.395,302.926 285.971,304.113 L 285.971,304.113 z " style="fill-rule:evenodd;stroke:black;stroke-width:0.036;stroke-miterlimit:10" id="path91"/>
</g>
<metadata><rdf:RDF><cc:Work><dc:format>image/svg+xml</dc:format><dc:type rdf:resource="http://purl.org/dc/dcmitype/StillImage"/><cc:license rdf:resource="http://creativecommons.org/licenses/publicdomain/"/><dc:publisher><cc:Agent rdf:about="http://openclipart.org/"><dc:title>Open Clip Art Library</dc:title></cc:Agent></dc:publisher><dc:title>Boy Face Cartoon</dc:title><dc:date>2006-10-23T10:20:53</dc:date><dc:description>Uploaded by "World Label" for conversion to SVG and publication on OCAL.</dc:description><dc:source>http://openclipart.org/detail/860/boy-face-cartoon-by-gerald_g-860</dc:source><dc:creator><cc:Agent><dc:title>Gerald_G</dc:title></cc:Agent></dc:creator><dc:subject><rdf:Bag><rdf:li>boy</rdf:li><rdf:li>cartoon</rdf:li><rdf:li>clip art</rdf:li><rdf:li>clipart</rdf:li><rdf:li>externalsource</rdf:li><rdf:li>face</rdf:li><rdf:li>people</rdf:li><rdf:li>remix</rdf:li><rdf:li>worldlabel</rdf:li></rdf:Bag></dc:subject></cc:Work><cc:License rdf:about="http://creativecommons.org/licenses/publicdomain/"><cc:permits rdf:resource="http://creativecommons.org/ns#Reproduction"/><cc:permits rdf:resource="http://creativecommons.org/ns#Distribution"/><cc:permits rdf:resource="http://creativecommons.org/ns#DerivativeWorks"/></cc:License></rdf:RDF></metadata></svg>
