<svg id="svg2" xmlns="http://www.w3.org/2000/svg" xmlns:xlink="http://www.w3.org/1999/xlink" viewBox="0 0 93.54 87.87"><defs><style>.cls-1{fill:none;}.cls-10,.cls-2,.cls-3,.cls-4,.cls-6,.cls-8{fill:#fff;}.cls-2{stroke:red;}.cls-2,.cls-3,.cls-4,.cls-7,.cls-8{stroke-width:0.29px;}.cls-3{stroke:#cf0;}.cls-4,.cls-7{stroke:#f60;}.cls-5{fill:url(#pattern5955);}.cls-7{fill:url(#pattern5767);}.cls-8{stroke:#fc0;}.cls-10,.cls-9{stroke:#000;stroke-linecap:round;stroke-linejoin:round;}.cls-9{stroke-width:0.35px;}.cls-10{stroke-width:0.35px;}</style><pattern id="pattern5955" data-name="pattern5955" width="93.54" height="87.87" patternTransform="matrix(0.53, 0, 0, -0.55, 23.94, 604.67)" patternUnits="userSpaceOnUse" viewBox="0 0 93.54 87.87"><rect class="cls-1" width="93.54" height="87.87"/></pattern><pattern id="pattern5767" data-name="pattern5767" width="93.54" height="87.87" patternTransform="matrix(0.76, 0, 0, -0.79, 18.38, 640.27)" patternUnits="userSpaceOnUse" viewBox="0 0 93.54 87.87"><rect class="cls-1" width="93.54" height="87.87"/></pattern></defs><title>rooster-08</title><g id="layer2"><path id="path4241" class="cls-2" d="M61,67.5l1.47,5.13a2.91,2.91,0,0,0-1.95,1.45,4.91,4.91,0,0,0,.18,2.1,3.05,3.05,0,0,1,2.45-1.43l.12,1c-2.44,1.38-2.44,3-3.07,4.6l2-.85,1.63-1.45c2.41,1.48,3.8,3.81,5.55,5.85.45.19.79.12.77-.88l-.9-2.55L73,82l.65,2,.92-1.2a3.36,3.36,0,0,0-1-3.12,38.57,38.57,0,0,0-5.8-2.6c-1.51-2.63-2-5.9-3-8.88Z"/><path id="path4239" class="cls-3" d="M53.26,67.82l-.74,4.35a6.7,6.7,0,0,0-4-1.14,3,3,0,0,0-2.76-.1,5.35,5.35,0,0,1,2.61,2.23,19.68,19.68,0,0,1,3.26,1.27,8.58,8.58,0,0,1-2.44,2.19A8.89,8.89,0,0,0,46.37,78c-.8,1.21-1.42,2.4-.92,3.43,1.35-1,.37-1.8,5.27-3A9,9,0,0,0,55,81.68l2.33.67A5.23,5.23,0,0,1,59.77,84c.34-.4,0-1.39-.46-2.55a4.31,4.31,0,0,0-1.77-1.13c-.85,0-1.19-.69-1.59-1.27.52-.7,1-.56,1.56-.53l2.65,1.2c.21-.31-.12-1.32-.57-2.47-1.53-.83-3-1.45-4.06-.78a4,4,0,0,0,.17-3.61l.67-3.57C55.62,68.31,54.85,67.34,53.26,67.82Z"/><path id="path4227" d="M60.56,67.25c.34,1.94.33,3.39,1.44,5.12a3.3,3.3,0,0,0-1.62,1.13c-.52,1.23-.11,2,.37,3.15a2.26,2.26,0,0,1,2.07-1.21c-.7.71-1.81,1.22-2.3,2a6.68,6.68,0,0,0-.78,2.61l-.2,1.45a15,15,0,0,0,2.12-1.4l.47.2.34-.39c.51-.58.84-.91,1.45-.9a3,3,0,0,1,1.39,1c.74.83,1.33,1.64,2,2.41a2.46,2.46,0,0,1,1.28,1.87l.12.71.71-.13a1.76,1.76,0,0,0,1.38-1.34,3,3,0,0,0-.52-2.08,11.83,11.83,0,0,0,2,.54c.52.15.78.38.9,1.24l.19,1.33,1.33-.71c.51-.28.63-1.33.64-2.2a3.36,3.36,0,0,0-1.49-2.82c-1.47-1-2.6-1-3.88-1.64a5.67,5.67,0,0,1-2.13-1.67A8.24,8.24,0,0,0,67,73.71a38.37,38.37,0,0,0-1.39-6.14C64.45,68.17,62.44,67.93,60.56,67.25ZM64.27,69c.49,1.36,1,2.65,1.34,4a20.54,20.54,0,0,0,.88,2.79,7.74,7.74,0,0,0,2,2.39,22.12,22.12,0,0,1,4.26,1.83,2.63,2.63,0,0,1,1.12,2.85A2.42,2.42,0,0,0,72.62,81a19.87,19.87,0,0,1-4.25-1.52c-.72-.43-.51-.14-.21.22l1.54,3.22c-.28-.31-1.2-1.17-1.76-1.73a20.67,20.67,0,0,0-1.58-2.11,3.82,3.82,0,0,0-2.29-1.48h0c-1.09-.05-1.47.95-2,1.53,0,0-.55.19-.43-.38a3.54,3.54,0,0,1,.17-.58c.34-.58.55-1.51,1.6-1.9a11,11,0,0,1,3.25,1c0-.26-2.16-1.92-2.74-1.73a2.77,2.77,0,0,1,0-1.51,4.43,4.43,0,0,0-3,1.51c-.15-.75.55-1.71,1.52-2.46a1.82,1.82,0,0,1,.73-.17l-.88-4.26A2.45,2.45,0,0,0,64.27,69Z"/><path id="path4233" class="cls-4" d="M11.57,65c-2.34-.15-4-2-6.1-5.21C4.41,55.4,3.34,51.29,5.2,45.86c1-4.11,3.22-7.17,6.51-10.61a35.13,35.13,0,0,1,10-3.53,25.87,25.87,0,0,1,12.87,4.81,10.82,10.82,0,0,0,9.19,2.54c4-1.16,8-2.34,12.16-6.5,1.86-2.43,3.86-4.63,5-8.2s1.14-7.15,4.25-11l7.49-3.67c2.65-.2,5.37-.56,7.64,0l-3.68,2.12a4.58,4.58,0,0,0,1,4.1l2.55,1.84L80,20.26l2.55,8.91L83,42a32.84,32.84,0,0,1-6.22,10.33L68.56,60l-1,5.8c-.9,1-1.69,2.2-3.35,2.48l-3-1.4-5.1,2.5c-.83-2.24-2.33-1.76-3.65-2l-3.75-4.25-1.45,2.75-3.45-5.1q-1.5,1.81-4,0a2.06,2.06,0,0,1-2.75-.9c-1.17.47-2.21-.27-3.25-1.1-1.09,2.12-.25,3-.35,4.55-1.63-.91-2.2-1.75-3.65-5.6-1.31,0-1.76,1.91-2.2,2.8-.34-4.8-1.39-5.44-.65-14.75-.7-.17-1.91,4.79-2.25,7.35-1.12,3.92.47,7.17,1.35,10.6-1.53-.43-2.78-2.05-3.9-4.2-.61-1.17-1-3.21-.9-6.5L23,47.38l-.35-1.6c-.42-.61-.83,1.46-1.25,2.4-.76,2.11-1.19,5.2-2.3,6.25-.59-1-.24-4.51-.35-6.8a12.32,12.32,0,0,0-1.5,3.2l-2.2,11.05c-1.78-1.46-1.72-5.1-1.4-9.05l-1.75-.15c.08,1.61.25,3.3-.7,4.15-1.16-.75-2.42-3.26-3.45-4.8-.41,2,.16,6.14,1.15,8.7Z"/><path id="path5769" class="cls-5" d="M82.24,29.18c1.86,6.32.54,9.46.56,13.93-4.39,7.19-9,12.85-14,16.83l-1.27,5.87L64.7,68.43,61,67c-1.53.88-3,2-4.73,2.13a4.4,4.4,0,0,0-3.19-1.56l-4.38-4.45-1.49,2.68L43.7,60.44c-.78,1-1.47,2.05-3.89.07-1.93,2.11-2.12,0-2.83-.85-1.27.58-2.3-.48-3.39-1.13-1.12,1.6-.37,3.2.35,4.81-2.47-.16-3.51-2.71-4.31-5.66-1.57.92-1.59,2.09-2.12,3.18-.63-4.49-1.64-8.74-.29-14.49-.21-.94-.65-.41-1.06-.07a14.82,14.82,0,0,0-1.91,7.92,50.47,50.47,0,0,0,2.13,9.68,8.32,8.32,0,0,1-4.32-4.45A30.76,30.76,0,0,1,21.64,52l1.41-6.22-.71-.14L19.8,54h-1s0-5.69-.14-6.22a15.69,15.69,0,0,0-1.42,3.89L15.13,61.92l-1.41-1.13L13.58,53l-1.35-.63a9.18,9.18,0,0,1-.85,4.73c-1.47-.88-2.59-2.65-3.6-4.66-.37,2.7.34,4.72.63,7a15.08,15.08,0,0,0,3.27,5.78s-3.61-1.06-4.77-2.55A16,16,0,0,1,4,50.75c.57-4.84,2.37-10.69,4.81-13.22S14.93,33.37,20,32.22c4.54-1,9.17,1.15,13.44,3.75,2.48,1.52,5.22,3.21,8.13,3.18,4.41,0,12.23-5,12.23-5l.78,4c.48,1.18,1.22,2.06,3.75,1-1.66,2.77-2,5.09-2.55,7.5,2.56,1.55,6.63,3.92,13.51,1,3.24-3.23,2.44-6.52,2.33-8.06a6.81,6.81,0,0,0,3.61-1.13c1.81-.78,3.19-3.56,4.66-5.38Z"/><path id="path5771" class="cls-6" d="M47.27,38.24s-2.8,2.4-3.5,2.12-5,1.33-5.09,1.55a20.56,20.56,0,0,0-5.38,5.94,9.46,9.46,0,0,0-1.9,6.93l3.81-5.16a12,12,0,0,0-1.41,5.06l1.52-1.81c-.78,4.47-.36,4.93-.18,5.41a14.73,14.73,0,0,0,2.48-6.54L38,58.35c.77-2.56,1-5.21,3-7.6a13.38,13.38,0,0,0-.6,5.37,5,5,0,0,0,2.16,3.58l-.67-4.35.42-2.8a29.61,29.61,0,0,0,2.33,6.3l2,3A20.92,20.92,0,0,1,46,56.62l1.59,3.32A6.9,6.9,0,0,0,50,62l-2.34-4.42.22-1.76A9.6,9.6,0,0,0,49.57,59l1.8,1a16.68,16.68,0,0,1-1.48-5.2A28.19,28.19,0,0,0,52,50.64a30.3,30.3,0,0,1,.25,5.77l2-4.42,3-10.71.68-2.05A2.23,2.23,0,0,1,55,38.94a33.92,33.92,0,0,0-1.38-4.56Z"/><path id="path4169" d="M76.3,9c-.69,0-1.5.1-3,.22-2.68.22-5.85.73-7.89,2.6a15.66,15.66,0,0,0-3.83,6.75c-1,2.87-1.54,6.57-2.8,8.69A19.88,19.88,0,0,1,52.15,34c-3.59,2.3-5.27,3.69-9.4,4.26a13.32,13.32,0,0,1-5.33-.93A14.92,14.92,0,0,1,34,35.27c-2.69-2-6.19-4-10.2-4.29s-10,1.32-13.21,3.84c-4.26,3.39-6.53,9.08-7,14a31.92,31.92,0,0,0,0,8.7,16.27,16.27,0,0,0,1.73,4.33,8.94,8.94,0,0,0,3.75,3.27c1.33.69,3.59.68,4.74.86-.63-1-1.68-1.73-2.87-3.28a11.2,11.2,0,0,1-2.34-5.14c-.12-.5-.33-3-.36-3.51a27.62,27.62,0,0,0,1.64,3.12c.36.5,1.07,1.09,1.67.81s.7-1.26.85-1.66c.28-.77.17-2.42.52-3.25.07.75,0,4.88.17,6.27.17,1.84.87,3.76,1.6,3.85,1.26.16,1.49-2.58,1.73-3.93l.71-4.08c.34-1.92.66-3.86,1-5.78.54-1.17.16,1.07.17,1.09a15.83,15.83,0,0,1,0,2.48c-.12,1,.05,2.37.36,2.38a2,2,0,0,0,1.51-.94c.2-.19,2-7.78,2.4-8.31.3.87-1.45,4.73-1.69,7.44A15.26,15.26,0,0,0,22,60.76c.71,1.42,3.66,4.56,5.21,3.85-.55-2.25-1.69-4.32-1.91-6.44a30.13,30.13,0,0,1-.08-6,20.2,20.2,0,0,1,1.17-4.93c.4-1.26.74-1.74.34.06-1,4.61-.58,13.51,1,15.61.38-1.44.87-4.47,1.86-4.62.17.4.1,3.07.89,4a6.5,6.5,0,0,0,4.4,2.1c-.25-1.31-1-3.44-.64-4.67.62,1.23,1.61.82,2.58.87.25.27.64,1.45.94,1.6.89.42,1.33-.43,2.23-.73.31.16.88,1,1.86,1a2.53,2.53,0,0,0,2-.56c.63,1.87,2.57,4.26,4,4.77l1.12-2.69c.54.56,1,1.94,1.49,2.33,1.21,1.18,1.82,1.17,2.9,2.39.6-.21,1-.4,1.43-.12A2.71,2.71,0,0,1,55.89,70a14.51,14.51,0,0,0,5.48-2.35A8.64,8.64,0,0,0,64.74,69c3.71-1.94,4.37-5.38,4.47-8.66a95.81,95.81,0,0,0,7.54-7c2.18-2.43,5.9-6.3,6.87-10.17a29.17,29.17,0,0,0,.14-11.65A77.6,77.6,0,0,0,81.37,22c-.23-.58-.83-1.77-1-2.08a2.94,2.94,0,0,1,0-2.38L78,15.25A7.24,7.24,0,0,1,77,12.82c-.14-2,2.1-2.22,4.49-2.92A25.14,25.14,0,0,0,78,9.07C77.61,9,77.29,9,77,9Zm2.07.85a3.31,3.31,0,0,1,.94.11c-1.63.33-3.7,1.48-3.24,3.71a7.16,7.16,0,0,0,1.28,2.92A7.68,7.68,0,0,0,79.87,18c-.42,1.17-.87,1.91-.46,2.49A4,4,0,0,1,80,22.21c.09.27,1.42,6.48,1.76,9.25a30,30,0,0,1-.3,11.13c-.73,2.72-3.87,6.62-6,9.42A80.29,80.29,0,0,1,68,59.62c-.17,3.46-1.35,8.31-4.28,8.08l-1.27-.89a17.28,17.28,0,0,0,1.69-2c.64-.9,1.06-2.08.74-2.17s-1.06.68-1.61,1.44a8.63,8.63,0,0,1-1.89,1.8,18,18,0,0,1-4.89,2.8,7.21,7.21,0,0,0-1-1,2.16,2.16,0,0,0-1.71-.53,10.85,10.85,0,0,0-2.1-2.35A9.91,9.91,0,0,1,49,62.17L47.32,64a12.12,12.12,0,0,1-1.63-1.89,8.47,8.47,0,0,1-1.63-3.68c-.67,1-1.29,2-2.11,2.17s-1-1-1.7-1.15c-.57,0-1.37.85-1.76.75s-.43-.91-.71-1.31a5.24,5.24,0,0,1-3.43-1.31,2.21,2.21,0,0,0-1.68,1.3A4.83,4.83,0,0,0,32.93,62a6.46,6.46,0,0,1-2-2.53c-.36-.81-.43-1.2-1-2.47a3,3,0,0,0-1.83,1.74c-.49-4.07-1.12-7.22-.57-11.82.18-1.59-.87-1.75-1.58-.7a13,13,0,0,0-2.07,6.49c-.22,2.69,0,6.94,1.48,9.93-2.73-1.14-3.79-7.58-3.07-10.72.42-2.34,1.25-4.09,1-6.48-1.35-.36-1.19.15-1.72,1.2a25.93,25.93,0,0,0-1.25,4.55l-1,2.23,0-3.8.16-3.17c-.91.15-1.1.91-1.52,1.94A29.13,29.13,0,0,0,16.44,53c-.53,2.18-.7,3.8-1.13,5.56-.2.81-.51,1.47-.9.71s-.35-.14-.33-3.45c0-1.69.73-5.77,1.44-7a7.83,7.83,0,0,1,1.21-1.75A17,17,0,0,1,20,44.52a11.72,11.72,0,0,1,6.33-1.27,14.4,14.4,0,0,1,3.1.71c1,.34,2.06.41,2.14.23s-.78-.61-1.84-1a15.8,15.8,0,0,0-3.7-.89,10.89,10.89,0,0,0-6.46,1.26,12.25,12.25,0,0,0-3.18,2.1,9.17,9.17,0,0,0-2.32,3.67c-.26,1.08-.47,3.21-1,3-1-.41-.56-2.11-.25-3.27A7.85,7.85,0,0,1,14,46.26a11.58,11.58,0,0,1,3.37-3.62,12,12,0,0,1,8.75-1.52,30.83,30.83,0,0,1,4.49,1.18c1.05.4,4.06,1.67,4.21,1.38s-2.58-1.88-3.7-2.31a23.91,23.91,0,0,0-4.09-1.17,17.77,17.77,0,0,0-5-.29A11.36,11.36,0,0,0,17,41.55a13.87,13.87,0,0,0-4.12,3.92,7.33,7.33,0,0,0-1.36,3.34l0,4.08c0,.39.47,2.06-.42,2.42-1.65.66-2.32-3-2.44-3.62a10.58,10.58,0,0,1,.71-4.12,18.65,18.65,0,0,1,5.3-6.87A13.62,13.62,0,0,1,23.75,38c3.91.07,12.17,4.53,12.34,4.19S28.17,37,23.78,37c-3.22-.06-6.79.32-9.89,2.86-3.25,2.65-5.8,6.11-6.4,9.53a24.75,24.75,0,0,0,0,8.81,27.09,27.09,0,0,0,2.27,5.53c-1.85,0-3.4-3.25-4-5.76a23.85,23.85,0,0,1,0-8.76c1.05-5.62,3.55-10.31,6.14-12.43S16.28,33,23.67,32.86C26.74,32.79,30.05,35,33,37a13.75,13.75,0,0,0,3.47,2.15,14.59,14.59,0,0,0,6.19.65c4.42-.61,7-1.89,10.7-4.25a21.15,21.15,0,0,0,7.35-7.1c1.65-2.78,2.16-6.6,3-9.14a14.11,14.11,0,0,1,3.21-5.79,19.24,19.24,0,0,1,7.49-3.2A28.22,28.22,0,0,1,78.37,9.84Z"/><path id="path4195" d="M79.37,33.27a14.12,14.12,0,0,1-2.7,3,8.79,8.79,0,0,1-6,2.51c-1,0-2-1-2.83-2.17a15.48,15.48,0,0,1-1.59-3.21A37.48,37.48,0,0,1,61.61,37a13.8,13.8,0,0,1-3.31,1.54,3,3,0,0,1-2.53-.06c-1.58-1.22-1.3-3.48-1.65-3.22s-.5,3.32.93,4.44c1,.77,2.38.56,3.63.21a15.13,15.13,0,0,0,3.38-1.94,23.39,23.39,0,0,0,4.1-3.86c.21.46.42,2.61,1,3.5.88,1.28,1.7,2.59,3.49,2.65,2.84.09,4.47-.91,6.38-2.53A17.06,17.06,0,0,0,80,34a7.46,7.46,0,0,0,1.22-3.31C81.08,30.54,80.22,32,79.37,33.27Z"/><path id="path4197" d="M41.28,40.42a13.35,13.35,0,0,0-4.57,2.38,22.14,22.14,0,0,0-5.19,7.49,9,9,0,0,0-.74,2.88c0,.66-.06,1.9.42,2.14.64.3,1-.91,1.35-1.3.23-.23,1.52-2.6,1.79-3,0,.4-.77,2.58-.86,3a2.18,2.18,0,0,0,.21,1.66l1-1.7c.05,2-.89,3.58.58,4.81a10.59,10.59,0,0,0,2.09-4.05l.23,3.76c0,.29.31.76.57-.1a33,33,0,0,1,2.25-6.52,8.79,8.79,0,0,0,.21,6.23A3.44,3.44,0,0,0,42.85,60c-.08-1-.22-2-.47-3.54a8.4,8.4,0,0,1,0-3,22,22,0,0,0,1.07,4.17,11.28,11.28,0,0,0,2.14,3.73c.57.59,2,1.75,2,1.75a11.93,11.93,0,0,1-1.17-5c.38,1.8,1.66,2.76,3.09,4s1.21.31.51-.62A15.1,15.1,0,0,1,48,56.86a7.6,7.6,0,0,0,2.55,3.22c1.73,1.05,1.34,0,1.14-.4a9.89,9.89,0,0,1-1-5c.46-.2,1.26-3.25,1.24-3.42a40.77,40.77,0,0,1-.16,6.15c1.55-1,2.09-2.72,2.64-4.23a38.78,38.78,0,0,0,1.21-4.59c.43-1.87,2.11-7.73,1.76-7.8s-2.18,5.63-2.63,7.56a26.9,26.9,0,0,1-2.18,6.35,20.26,20.26,0,0,0-.38-5.28L51,52a6.13,6.13,0,0,1-1.95,2.33L50.38,59c-.87-.17-2-2.18-2.3-3.69-.26-1.1-.48-.7-.52.13a6.91,6.91,0,0,0-.07,2.24,15.25,15.25,0,0,0,1.63,3.61,16.89,16.89,0,0,1-3.46-6.69,19.89,19.89,0,0,0,.28,5.6c-.32-.66-1.7-3.17-2-3.86a18.38,18.38,0,0,1-1.38-4.82c-.73.7-1,2.67-1,4.19a14.36,14.36,0,0,0,.63,3.51,11.2,11.2,0,0,1-1.33-2.77,12.18,12.18,0,0,1,.49-5.6c.5-2-.18-.84-.57-.44-1.09,1.12-2.15,4.22-2.6,5.64-.14-1.76-.24-3.06-.35-5.33-.08-1.7-.29-.76-.41,0-.35,2.26-1.14,5.81-2.2,6.79.24-1.91,0-3.51.72-5.74-.9.42-1.23,1.32-1.76,2.05-.19-1,.85-3.5,1.48-4.47.85-1.33.23-.71-.35-.28a9.31,9.31,0,0,0-1.88,2c-.08.1-1.67,2.71-1.73,2.81-.39-.56.61-2.86.71-3.09.18-.45,2.83-5.48,5.22-7.48a16.26,16.26,0,0,1,3.82-2c1.52-.62,3.09-.85,3-1.09s-1.57-.2-3.17.26Z"/><path id="path4199" d="M71.82,40.36c-.3,0-.14,1.35-.53,3.12s-1.64,3.76-5.22,4.79a13.65,13.65,0,0,1-6.1-.21c-2.2-.56-3.28-1.29-3.48-1s.87,1.31,3.16,1.89,4.82,1.06,6.81.5c4-1.14,5.17-3.36,5.64-5.53S72.11,40.34,71.82,40.36Z"/><path id="path4201" d="M62.27,55.8a13.75,13.75,0,0,1-2.72,1.89,3.37,3.37,0,0,1-2.26,0c-.92.61-1.73.73-2.38-.09-.2-.24-.44-.41-.61-.66a1.67,1.67,0,0,1-.42.94c-.28.27-1.59,1.15-1.48,1.49s1.76-.52,2.22-1c.78.44,1.58,1,2.66.21a4.17,4.17,0,0,0,2.74.08A14.69,14.69,0,0,0,62.16,57a8.73,8.73,0,0,0,1.51,1.87c.93.74,3.62.91,3.64.55s-2.24-.72-3-1.32A10.7,10.7,0,0,1,62.27,55.8Z"/><path id="path4235" class="cls-4" d="M79.94,9.83A19.29,19.29,0,0,0,74.69,9c-.84-.1-1.33-.83-1.6-1.95-.35-.67,2.23-2.7,3.55-2.5a6.31,6.31,0,0,1,1.8,1c.7-.05,1.28-1.11,1.9-1.85.37-.29.73-.7,1.1.3l.15,2.35c1.08-.45,2.5-1.2,2.8-1l-.5,2.25L87,7.73a3.5,3.5,0,0,1,.6,2.9,1.49,1.49,0,0,1-1.25,1.75l-2.55-.6c-1.43.73-2,1.58-1.4,2.6l1.45,1.55-.75,5.95c-.48.62-.57,1.94-1.55,1.65-.86-.66-1.18-2.42-1.7-3.75l.35-2c-.95-.62-1.9-.8-2.85-2a4.64,4.64,0,0,1-.8-2.75,3.57,3.57,0,0,1,1-1.85Z"/><path id="path4235-2" class="cls-7" d="M79.92,10a19.54,19.54,0,0,0-5.24-.86c-.84-.09-1.33-.82-1.6-1.95-.36-.67,2.22-2.7,3.55-2.5a6.31,6.31,0,0,1,1.8.95c.7,0,1.28-1.11,1.9-1.85.36-.28.73-.69,1.1.3l.15,2.35c1.08-.45,2.5-1.2,2.8-1l-.5,2.25L87,7.85a3.55,3.55,0,0,1,.6,2.9,1.49,1.49,0,0,1-1.25,1.75l-2.55-.6c-1.43.74-2,1.58-1.4,2.6l1.45,1.55L83.13,22c-.48.62-.57,1.95-1.55,1.65-.87-.66-1.18-2.42-1.7-3.75l.35-2c-1-.61-1.9-.8-2.85-2a4.55,4.55,0,0,1-.8-2.75,3.5,3.5,0,0,1,1-1.85Z"/><path id="path4211" d="M80.93,2.83c-1-.17-1.81,2-2.18,2.1C78.13,5,77,3.28,76,3.56a5,5,0,0,0-3.24,2.29c-.76,1.22.39,3.53,1.77,3.88,1.13.33,3.66,0,4.81.17-.7.33-2.68,1-2.92,1.84a3.33,3.33,0,0,0-.29,2.51c.29,1.83,1.7,2.93,3.82,3.69-.08.56-.56,1.46-.6,2a22,22,0,0,1,.87,2.54c.28,1.35.4,2.83,1,2.84,1.61,0,2.16-2.47,2.7-3.94s-.08-2.59.27-4c.21-.85.23-1.45.51-2.27-.6-.21-1.15-.33-1.92-.64s1-2,1.49-2A12,12,0,0,1,87,13.67a4.92,4.92,0,0,0,1.33-2.38c.11-1.6.1-2.92-1.23-4.12-.66-.6-2.45.23-2.62,0s1.06-1.64.21-2.33-2.59,1.17-2.85,1,.7-2.71-.95-3Zm-.21,1.49c.92.11-.25,2.55.91,2.47.62,0,1.71-1,2-.7s-.35,1.46-.09,1.78c.49.61,2.53-.07,3.13,1A2.29,2.29,0,0,1,86,11.67a2.41,2.41,0,0,0-3-.2,3.46,3.46,0,0,0-1.44,2,1.62,1.62,0,0,0,1.5,1.91c-.55,1.53,0,4.07-.72,5.53-.17.33-1,.95-1.27,0-.14-.53-.59-1-.56-1.55l.09-1.86c-1.38-1.1-2.6-1.87-3.09-3.44-.18-.74-.39-.76-.21-1.55s1.19-1.39,2-1.73c.64-.26,1-.49,1.59-.69s.51-.34.2-.61c-2.08-.32-3.87-.91-6-1.2C74,8.2,74.25,7,75.12,6.24c.64-.54,2.07-1.24,2.74-.78s.77.88,1.39.16C79.5,5.33,80.33,4.27,80.72,4.32Z"/><path id="path4237" class="cls-8" d="M83.06,12.24a2.44,2.44,0,0,1,2.68-.18c1.64,1.21,3.54,2.25,4.1,4.17l-.24.32-1-.56c-3,.71-4.38-.68-6.15-1.56A2.29,2.29,0,0,1,83.06,12.24Z"/><path id="path4216" d="M83.33,11.39a4.16,4.16,0,0,0-1.55,1.19,2,2,0,0,0-.08,1.85,2.74,2.74,0,0,0,1.51,1.69,21,21,0,0,0,3.19.65,2.82,2.82,0,0,0,2.19-.41L90,17.3a1.7,1.7,0,0,0,0-1.8,8.06,8.06,0,0,0-4-3.95,3.49,3.49,0,0,0-1.72-.43A2.59,2.59,0,0,0,83.33,11.39Zm2,1.42a11.91,11.91,0,0,1,4,3.18,24.61,24.61,0,0,0-2.94-.72,21.76,21.76,0,0,1-2.5-.89c-.21-.08-1.07-.32-.89-.76a2.22,2.22,0,0,1,.95-1A2.51,2.51,0,0,1,85.36,12.81Z"/><path id="path4220" class="cls-9" d="M81.85,12.54a1.24,1.24,0,1,1,0-1.77,1.26,1.26,0,0,1,0,1.77Z"/><path id="path4225" d="M52.42,67.33c-.19,1.28-.38,2.57-.56,3.85a8.51,8.51,0,0,0-3.34-.51c-1.35-.64-2.88-.92-4.05.55a2.39,2.39,0,0,1,1.75.34c.74.45.79,1.34,1.34,1.85.3.27,1.34.15,1.92.39s1.37.54,1.71.66l-1,.71a12.9,12.9,0,0,0-3.82,2.06,3.78,3.78,0,0,0-1.63,4.16,2.21,2.21,0,0,0,.75,1.09c.4-.76.65-1.73,1.62-1.93A8.06,8.06,0,0,0,50.33,79a12.79,12.79,0,0,0,1.46,1.94,4.32,4.32,0,0,0,2.57,1.39,3,3,0,0,0,.84.61,2.35,2.35,0,0,0,.92,0c1.56-.25,2.71.7,3.8,1.8l.08-1.2a3.83,3.83,0,0,0-1.59-3.32c-.3-.23-.6,0-.9-.22s-.86-.23-1-.79c.47-.39,1.46.31,1.92.42s.73,0,1.11.26l.88.66.06-1a3.43,3.43,0,0,0-.87-2.47c-1-1-2.36-1.93-3.54-1.77.27-.76.7-1.47,0-2.5.48-1.08.34-1.76.66-3.52-.69-1.1-1.39-1.94-2.12-2.06a9.91,9.91,0,0,0-2.18.08Zm3,2.08A14.47,14.47,0,0,1,54.67,73c1.29,1.14-.77,2.87-1,4.47a5.45,5.45,0,0,1,2.56-.58c.8,0,2.89.69,3,2.16-.85-.48-1.47-1-2.31-.89s-2.74-.39-3.29.09c.88.85,1.59,2.54,3.81,2.7.65,0,2.06,2.13,2,2.27-.91-.8-1.79-1.73-2.88-1.77-.25.22-.55.11-.75.12a3.43,3.43,0,0,1-.83-.68c-.93.08-1.6-.76-2.26-1.13-.86-.81-.18-2.1-.91-2.92-.74.43-1.72,1.59-3.1,1.74a4.45,4.45,0,0,0-3,1.44c.18-.27.62-1.68,1-1.84a10.77,10.77,0,0,0,3.87-2.06l2-2.24a2.62,2.62,0,0,0-2-.4c-1.07-.31-1.31,0-2.16-.79A15.94,15.94,0,0,0,47,71.22a12,12,0,0,1,5,1.49l.64,1,1-5a2.79,2.79,0,0,1,.79-.07c.21,0,.53.24,1,.86Z"/><path id="path4220-6" class="cls-10" d="M81.59,12.19a.72.72,0,0,1-1,0,.72.72,0,1,1,1,0Z"/></g></svg>