<svg id="svg3166" xmlns="http://www.w3.org/2000/svg" xmlns:xlink="http://www.w3.org/1999/xlink" viewBox="0 0 600 600"><defs><style>.cls-1{fill:#ccc;}.cls-13,.cls-2,.cls-3{fill:#deaa87;}.cls-13,.cls-2,.cls-3,.cls-5{stroke:#cc9c7c;}.cls-2,.cls-3{stroke-width:2.7px;}.cls-13,.cls-14,.cls-15,.cls-17,.cls-3,.cls-5{stroke-linecap:round;stroke-linejoin:round;}.cls-4{fill:#cc8503;}.cls-5,.cls-6,.cls-7{fill:#c6906b;}.cls-13,.cls-15,.cls-17,.cls-5{stroke-width:0.6px;}.cls-14,.cls-6{stroke:#c58800;}.cls-14,.cls-6,.cls-7{stroke-width:1.2px;}.cls-7{stroke:#b2886c;}.cls-8{filter:url(#filter4087);}.cls-9{fill:url(#linear-gradient);}.cls-10{fill:#c87137;}.cls-11{fill:url(#linear-gradient-2);}.cls-12{fill:#e09203;}.cls-14{fill:#fff;}.cls-15,.cls-16{fill:red;}.cls-15{stroke:#972208;}.cls-17{fill:#fca;stroke:#e5b899;}</style><filter id="filter4087" name="filter4087"><feGaussianBlur result="feGaussianBlur4089" stdDeviation="9.64"/></filter><linearGradient id="linear-gradient" x1="83.78" y1="585.51" x2="169.72" y2="498.64" gradientTransform="matrix(0.5, 0, 0, -0.5, 414.95, 658.66)" gradientUnits="userSpaceOnUse"><stop offset="0" stop-color="#784421"/><stop offset="1" stop-color="#784421"/></linearGradient><linearGradient id="linear-gradient-2" x1="32.63" y1="692.23" x2="-8.06" y2="725.42" gradientTransform="matrix(1, 0, 0, -1, 397.2, 1029.61)" gradientUnits="userSpaceOnUse"><stop offset="0" stop-color="#c87137"/><stop offset="1" stop-color="#fff"/></linearGradient></defs><title>Rooster-13</title><g id="BigRedAndShadow"><g id="ShadowsUnder"><path id="ShadowUnder1" class="cls-1" d="M183.68,593.52c96.09-30.63,206.83-37,302.23,0V600H183.68v-6.52Z"/><path id="ShadowUnder2" class="cls-1" d="M193.68,593.52c86.26-26.41,168.7-29.3,245.93,0V600H193.68Z"/></g><g id="The_Whole_BigChicken" data-name="The Whole BigChicken"><g id="TranslateRightArm"><g id="RotateRightArm"><g id="Punch"><path id="path3853" class="cls-2" d="M245.26,284.55,307,394.81,314,471l-11.54,8.1c-15.58,16.12-3.78,26.66-4.16,36.83.35,4.08,11.41,9.27,17.74,4.14,2.26,4.83,14.55,2.59,16.15-1.81a24.86,24.86,0,0,0-1-6.85c-.09,4.74,13.24,5.21,15-5.45l-6.83-24.15c-1.66-3.54-1.22-7.55,0-11.72l8.87-18.84L360,405.72l-18.44,25.49-.89-7.44,16.12-22.38-6.4-30.77-14.59,25.5-3.06-8.27,12.39-23.22-.16-6.31-3.37-15.61-19.45,28.15-3-4.57,19.68-26.8-3.16-29-26.82,36.21L330,304c-31.53-55.7-31.64.7-35.72,4.94l-20.93-52.07c-10.7-18.84-47.32-4.27-28.46,27.57Z"/><path id="path3855" class="cls-3" d="M346,506.57A29.8,29.8,0,0,0,339.9,492c-5-6-11.25-2-15.54,1.83"/><path id="path3857" class="cls-3" d="M331.65,512.75c-.57-4.72-3-16.53-6-20.12-4.65.09-10.65.51-12.53,3"/><path id="path3859" class="cls-3" d="M316.14,519.41c2.46-8.45.61-16.53-1.57-23.26-4.88-5-10.28-1.75-15.62.08"/><path id="path3861" class="cls-3" d="M300.53,481.11c-4.1,5.26-9.49,8.39-10.26,19.18-.22,5.09,2.73,12.66,9.19,12.31a78.09,78.09,0,0,0,13.86-2.23c4.84-1.29,2.68-8.93.59-12.27-3-1.26-5.69-.54-8.17,1-1.25-.91-3-1.43-1.31-4.38.83-2.85,2.37-4,3.75-5.7"/></g></g></g><g id="RightLeg"><path id="RightLeg3" class="cls-4" d="M346,469.17c2.31,31.3-20.13,54.53-34.57,58-2.39,21.25-17.41,19.14-19,27.12.95,5,9.35,8.62,12.13,10.25,7.1,4.22.73,17.19-8.89,13.84-3.43-1.18-10.52-9.06-12.11-13s-6.46-5.63-10.81-7.38c-15.31-6.31-32.86-22-35.46-27.86-4.37-7.57,4.86-11.36,9.68-12.33,13.73-2,26.31,2.38,35.33,27,7.49-11.75,13.26-20.82,16.64-29,4.49-18.66,3.76-42.34,26.91-51.86,8.62-3.39,17.4-2.21,20.14,5.14Z"/></g><g id="BigChickenBodyPaths"><path id="BigChickenBody1" class="cls-5" d="M241.05,235c-17.15,9.32-28.25,29.39-33.05,48.3-3.95,15.7,1.05,32.62,5.05,48.31,13.56,48.45,36.72,118.82,66.95,159.32,9.29,10.37,23,16.83,36.44,20.34,7.65,2,35.75,1.66,43.25-.85,24.1-8,35.81-20.14,41.51-44.91,2.8-12.07-6.95-27.51-17-33.06-19.4-10.77-33.5-9-45.85-22.88-17.5-19.7-26.5-45.8-23.75-75.42,1.6-17.47,14.7-43.57,12.85-61-1.55-14.82-7.55-32.2-20.35-39.83-18.94-11.26-46.74-8.84-66.09,1.7Z"/></g><path id="ButtCheck1" class="cls-6" d="M352.16,425c15.56,7.53,42.53,22.56,47.37,43.42,2.45,10.55-3.77,23-11.84,30.26-9.39,8.39-23.44,9.31-36.31,10.87-3.6.44-31.46-10.92-34.75-10.21"/><path id="ButtCheck2" class="cls-7" d="M352.16,425c15.56,7.53,42.53,22.56,47.37,43.42,2.45,10.55-3.77,23-11.84,30.26-9.39,8.39-23.44,9.31-36.31,10.87-3.6.44-31.46-10.92-34.75-10.21"/><g id="Translate_BigChickenTail" data-name="Translate BigChickenTail"><g id="SkewRotate_BigChickenTail" data-name="SkewRotate BigChickenTail"><g id="BigChickenTail"><g class="cls-8"><path class="cls-9" d="M379,434.44C395.1,342.35,426.15,275,497.3,274.62c24.55,6.5,28.9,5.73,37.95,43.19-30.3,38.31-80.6,76.7-149.45,121.81Z"/></g><path id="path3993" class="cls-10" d="M364.85,426.42C384,330.53,416,261.26,495,264.05c23.55,3.12,45.65,11.09,58.65,49.31L535,334.69l-35.75-10.84,24,25L495.2,371.69l-29.05-11.05,13.4,22.56-23.1,18.9-24.1-14.8,8.8,20.9-21.8,15.23L404.3,408.55l6.9,18.08-11.3,7.73L386,420.49,400.4,448C399.05,465.27,367.8,437,364.85,426.42Z"/><path id="path3995" class="cls-11" d="M368.55,418C385,330.28,419.1,256.86,502.45,266,441.39,282,400.19,339.91,368.55,418Z"/></g></g></g><g id="LeftLegPaths"><path id="LeftLeg5" class="cls-12" d="M354.22,469.84c18.11,25.62-8.88,43.18-18.41,53.42,20.76-5.14,24,9.68,32,8.39,4.32-2.62,4.84-11.77,5.39-14.94,1.5-8.12,15.87-6.65,16.08,3.52.1,3.64-4.85,13-8,15.88s-3,8-3.17,12.7c-.59,16.55-23.8,35.55-29.73,38-7.7,4.13-11.2-5.22-12-10.07-1.6-13.77,6.12-15.24,26.09-32.26-13.62-2.94-24.12-5.2-32.94-5.53-19.07,2.27-13.75-48.89,3.69-66.84,6.48-6.49,16.1-9.13,21-2.23Z"/></g><g id="TranslateLeftArm"><g id="g4097"><g id="g4101"><path id="path4111" class="cls-3" d="M188.38,463.53c-6.52,1.4-12.66.33-20.18,8.1-3.45,3.76-6,11.44-.88,15.34a78.52,78.52,0,0,0,12.05,7.2c4.54,2.12,7.79-5.12,8.35-9-1.53-2.92-4-4.07-6.91-4.49-.37-1.5-1.36-3,1.82-4.19,2.46-1.66,4.4-1.56,6.53-2"/><path id="path4103" class="cls-2" d="M272.38,277.43,248.81,401.57l-43.64,62.85-14-1.21c-22.29,2.33-20,18-26.85,25.53-2.37,3.35,2.78,14.44,10.92,14.57-1.38,5.16,9.48,11.34,13.53,9a25,25,0,0,0,3.66-5.87c-3.12,3.57,6.79,12.5,15,5.45l10.3-22.9c1-3.78,3.92-6.57,7.56-8.95l18.91-8.73L282.39,444l-30.51,7.67,4.1-6.27,26.73-6.78,14.88-27.69L270,421.09l3-8.31L297.41,403l3.94-4.93,7.45-14.13-33,9.07.63-5.45,32.3-7.88L325,355.36l-43.81,10.5,43.64-19c11.65-62.94-24.68-19.8-30.53-19.18l17.43-53.34c3.92-21.31-33.5-33.69-39.53,2.82Z"/></g></g></g><g id="BigChickenHead"><path id="path3973" class="cls-13" d="M210.79,302.3c-26.86-2.27,2.4-57.89,20.64-63.39,14.33-4.32-24.39-33.63-24.39-57.29,0-37.44,24.28-67.79,54.23-67.79s54.22,30.35,54.22,67.79c0,21.73-3.35,43.95-16.1,56.36-9.15,9-15,16.24-27.54,24.9-27.35,18.35-48.57,38-61.06,39.42Z"/><g id="use3987"><g id="LeftEye"><path id="path3979" class="cls-14" d="M236.11,180.11c0,12.4-7.4,22.46-16.53,22.46s-16.52-10.06-16.52-22.46,7.4-22.46,16.52-22.46S236.11,167.7,236.11,180.11Z"/><path id="path3981" d="M223.4,185.61c0,6.56-3.42,11.87-7.63,11.87s-7.62-5.31-7.62-11.87,3.41-11.86,7.62-11.86S223.4,179.06,223.4,185.61Z"/></g></g><g id="BigRedCrownPaths"><path id="BigRedCrown1" class="cls-15" d="M225.27,141.35c-5.29-72.93,20.6-96.5,37.46-106.59,47.46-27,80.81,9.89,34.74,44.93-11.3,13.84-19.61,17.68-24.34,31.53,13.75-28.47,37.46-35.64,51.46-31.53,21.5,6.19,23.55,20.09,11,39.83-12.95,15.51,3,42.9-22.85,41.53-6.39-23.9-32.76-40.21-66.31-5.53-6.34,6.55-18.41-4.28-21.16-14.17Z"/></g><path id="Inside_Mouth" data-name="Inside Mouth" d="M246.71,193.64c-23.37,14.13-46.06,23.07-73.1,65.4,4.23,1.72,15-.14,22.6-2.4,34.26-15.38,54.18-26.74,63-48.58,2.83-10.11,1-22.1-12.5-14.42Z"/><path id="path4285" class="cls-16" d="M246.55,214.93l-13.76,20.15c-6.09,8.91-8,8.3-20.89,11.51-23.36,4.72-8.22,34.13,8.57,23.29,5.09-3.85,8.95-16.59,8.95-16.59-1,11.2.42,19.13,7.48,20,10,1.18,30.5-13.48,16.92-25.15s2.17-18.33-.54-30.29"/><g id="BeakPaths"><path id="Beak1" class="cls-17" d="M250.12,209.61c-.51-4.39-3.45-6.35-8.61-8.86-12,25.07-31.29,45.83-67.78,60.48,12.57-.12,25.78-1.22,44.59-10.72,19.88-11.82,32.42-25.12,44.51-38.49,5.39-9.81,12.91-23.11-28.68-28-39.05,19.74-60.25,31.66-63,76.4,24.41-7.71,42.37-23.11,54.44-37.15a138.66,138.66,0,0,0,16.13-23.08"/></g><g id="LeftEye-2" data-name="LeftEye"><path id="path3979-2" data-name="path3979" class="cls-14" d="M268.11,180.11c0,12.4-7.4,22.46-16.52,22.46s-16.53-10.06-16.53-22.46,7.4-22.46,16.53-22.46S268.11,167.7,268.11,180.11Z"/><path id="path3981-2" data-name="path3981" d="M255.4,185.61c0,6.56-3.42,11.87-7.63,11.87s-7.62-5.31-7.62-11.87,3.41-11.86,7.62-11.86S255.4,179.06,255.4,185.61Z"/></g></g></g></g></svg>