<svg id="svg2" xmlns="http://www.w3.org/2000/svg" xmlns:xlink="http://www.w3.org/1999/xlink" viewBox="0 0 627.78 744.09"><defs><style>.cls-1{filter:url(#filter3867);}.cls-2{fill:url(#radial-gradient);}.cls-11,.cls-12,.cls-13,.cls-14,.cls-15,.cls-16,.cls-3,.cls-8,.cls-9{stroke:#000;}.cls-3,.cls-5,.cls-6,.cls-7{stroke-width:1.42px;}.cls-4{fill-opacity:0;}.cls-5,.cls-6{fill:red;}.cls-5{stroke:url(#radial-gradient-2);}.cls-6{stroke:url(#radial-gradient-3);}.cls-7{fill:#a40;stroke:url(#radial-gradient-4);}.cls-8{fill:#ff7f2a;stroke-width:1.45px;}.cls-9{stroke-width:1.59px;}.cls-10{fill:#fff;}.cls-11{stroke-width:0.61px;}.cls-12{stroke-width:1.08px;}.cls-13,.cls-15{fill:#d45500;}.cls-13,.cls-14{stroke-width:2.12px;}.cls-14,.cls-16{fill:#d4aa00;}.cls-15,.cls-16{stroke-width:2.65px;}</style><filter id="filter3867" x="-0.03" y="-0.1" width="1.07" height="1.2" name="filter3867"><feGaussianBlur result="feGaussianBlur3869" stdDeviation="8.29"/></filter><radialGradient id="radial-gradient" cx="395.84" cy="-496.35" r="460.99" gradientTransform="matrix(0.8, 0.02, 0.01, -0.23, 12.41, 541.65)" gradientUnits="userSpaceOnUse"><stop offset="0" stop-color="gray"/><stop offset="1" stop-color="gray" stop-opacity="0"/></radialGradient><radialGradient id="radial-gradient-2" cx="493.19" cy="903.53" r="143.6" gradientTransform="matrix(0.51, 0, 0, -0.42, 134.86, 441.15)" gradientUnits="userSpaceOnUse"><stop offset="0"/><stop offset="1" stop-opacity="0"/></radialGradient><radialGradient id="radial-gradient-3" cx="609.11" cy="624.45" r="64.57" gradientTransform="matrix(0.51, 0, 0, -0.62, 134.86, 538.16)" xlink:href="#radial-gradient-2"/><radialGradient id="radial-gradient-4" cx="638.73" cy="719.7" r="49.65" gradientTransform="matrix(0.51, 0, 0, -0.64, 134.86, 556.04)" xlink:href="#radial-gradient-2"/></defs><title>rooster-02</title><g id="g3147"><g class="cls-1"><path class="cls-2" d="M239.27,743.91s122.06,2.26,168.74-9,110.81,0,135,2.26c46.69,4.2,92.62-23.3,87.75-57-2.43-14.63-52.31-96.77-96.75-93.6-156.64-44.23-329.92-6.5-438.73,20.8C27.78,629.06,7,648.5-4.28,664.33c-23.1,70.51,203.45,76.77,243.55,79.58Z"/></g><g id="g4352"><path id="path2454" class="cls-3" d="M490.37,79.63l108-75.4,9.82,12.32Z"/><path id="path2456" class="cls-3" d="M494.37,94.57,627.78,58V77.4Z"/><path id="path2458" class="cls-3" d="M493.28,108l117.78,32.47-8.36,16.43L493.28,108Z"/></g><path id="path2460" class="cls-4" d="M482,64.71c-60,11.94-40.72,41.43-40.72,41.43S449.66,123.31,482,64.71Z"/><path id="path3234" class="cls-5" d="M383.5,80.6s-7.71,28.48-21.81,35.09C338,126.81,300.25,126.51,325,104.12c12.55-11.38,20.72-13.07,27.27-16.43s-18.54,4.11-29.45,0-14.62-2.47,5.09-18.29C335.2,63.53,361,56.71,361,56.71a77.34,77.34,0,0,1-20.36-9.33c-12.15-7.65-11.27-9-11.27-9s.46-7.56,25.09-8.21c18.17-.5,31.26,11.94,31.26,11.94,6.6,4.47-4.15-13.27-6.55-14.56l-9.45-19s17.09,4.11,30.18,13.07,12,10.82,13.81,9,6.54,7.84,1.82-1.87-4.73-10.45-6.55-11.2S396.22,2.58,396.22,2.58s17,5,24,10.08a213.09,213.09,0,0,1,36.72,33.6C467.77,57.93,454,78,444.2,77.24,429.61,76.13,419.85,59,419.85,59s-6.79-18.08-.36.37c4.3,12.36-15.27,1.5-15.27,1.5s2.53,7.41-5.46,16.05c-6.67,7.22-15.26,3-15.26,3.73Z"/><path id="path2398" class="cls-6" d="M439.48,119.58s20.87,2.67,34.89,16c16.44,15.68-9.81,49.65-9.81,49.65-8.48-3.11-13.33-10.7-18.54-16.43l-1.09,7.1s1.09,17.54-11.27,16.42c-22.48-2-19.72-26.16-20-34,2.54-15.68-.06-28,5.45-39.57,4.67-9.78,4.71-5.13,7.63-4.48,3.35.75,5.49,7.45,6.18,19a114,114,0,0,0,2.91,17.17s-1.45-3.73,3.64-31Z"/><path id="Schnabel" class="cls-7" d="M481.65,65.45S462.38,59.11,439.85,86c-5.52,6.58-3.64,20.16,1.09,19.79s-4,4.1-2.18,8.58c3.36,8.29,21.8,14.45,31.62,13.82,22.75-1.48,21.43,3.74,2.91-12.7-12.22-10.85-21.45-9-21.45-9s9.19-7.3,18.54-22.77C480.89,66.36,482,65.08,481.65,65.45Z"/><g id="g4357"><path id="path2404" class="cls-8" d="M421.48,90.69c0,3.91-3.58,7.09-8,7.09s-8-3.18-8-7.09,3.58-7.1,8-7.1S421.48,86.77,421.48,90.69Z"/><path id="path2406" class="cls-9" d="M416.39,90.68c0,1.85-1.14,3.36-2.54,3.36s-2.55-1.51-2.55-3.36,1.14-3.36,2.55-3.36S416.39,88.82,416.39,90.68Z"/></g><path id="path3009" class="cls-3" d="M372.77,104.25s4.9-1.08,5.4,6.33c.77,11.35-3.34,16.37-11.05,30.36s-17.74,42.23-20.05,50.67-4.78,27.28-3.09,37.49a373.13,373.13,0,0,0,9,39.06s7.71,29.3,2.83,36.16c-10.14,14.68-24.53,25.92-39.33,42-10.8,11.62-28.53,31.94-39.33,54.64s-4.37,15.57-11.57,21.64l-7.19,6.08S261,416.5,261,411s3.08-15,8-23.76,5.15-9,5.15-9-18.25-20.32-20.83-26.4-6.68-17.42-5.65-26.13,8.48-71.26,5.65-96.08c-2.25-21.09-10.69-73.9-32.64-106.11-23.43-24.41-77.51-41-102.82-12.4-12,13.25-27.76,35.37-35.47,62.82s-10.6,67.82-12.52,90.69c-1.86,57-5.13,61-23.21,95.93C30.2,383.26,32.29,378.05,44,336.79c.63-4,.9-23.22,0-54.11-1.28-44.08,5.14-85.52,11.83-105.58s31.45-66.23,71.71-86.31c30.62-15.28,57.58-11.88,85.34,10,26.9,21.23,40.87,54.11,47.81,89.74s3,65.16,2.06,87.1c-1.45,35.12-2.83,57.54,1,68.89,9.75,28.7,11.31,28,11.31,28s10.8-15.57,38.05-39.06S344.5,302,344.5,302s-17-27.72-19.8-55.17c-2.09-20.32-1.63-44.83,5.92-66.52,7.71-22.17,29-52.79,29-52.79s6.43-9.5,7.71-14.25,5.4-9,5.4-9Z"/><path id="path3011" class="cls-3" d="M445.26,170.5s15.17,44.87,32.13,62.29c37.81,31.34,80.72,78,54.5,125.64-13.8,32-52.63,67.85-73,86.58,0,0-8,5.8-12.34,4,15.11-43.21,79.95-74,77-127.61-6.76-47-40-57.38-58.73-81.71a169.63,169.63,0,0,1-18-49.1c-1-5-2.31-14.78-2.31-14.78Z"/><path id="path3013" class="cls-3" d="M530.6,361.07s5.92,27.62.78,41.35-9,25.88-32.31,46.42c-17.9,15.74-33,22.57-40.18,24.42s-7.2,2.11-7.2,2.11-2.06,52-13.62,72.85c-13.45,24.24-16.2,22.17-16.2,22.17-7.9,1.43-16.45,2.82-24.16,1.32-3.86-.53-9.55-.79-10.58-2.9s-7.41-20.06-8.18-23,0-8.51,0-8.51S387.17,548,390,556.4s3.37,8.26,3.37,8.26-.06-22.47-4.17-29.07-7.68-11.39-7.68-11.39l.51-5.54s11.05,5,13.11,14.51,2.57,25.87,7.2,30.36,6.68,7.92,10.28,3.43,12.08-20.32,18.76-47.78,10.54-43.81,10.54-43.81-35,30.35-45,34.31l-10,4s5.92-26.13,22.37-34.31,17.22-9,24.42-10.3,8.48,1.59,9.51-7.12S447.58,449,447.58,449a15,15,0,0,1,2.57,6.87c.25,3.69,2.82,7.65,3.34,9s10.28-6.33,10.28-6.33,30-22.18,39.33-33.26c12-14.33,21.85-35.9,23.39-45.14a141.61,141.61,0,0,0,1.8-14.25Z"/><path id="path3879" class="cls-3" d="M158.9,113.35c-38,11.18-66.15,54.65-73.15,95.44-2.91,19.79-5.37,115.84-19.18,144.58s-28.72,43.68-28.72,43.68,16,.74,21.81-5.23l5.82-6s3.27,3,10.54.74l7.27-2.24S82.93,412.72,71.66,434L60.39,455.28s17.09,0,30.54-16l13.45-16.05s-6.18,6-4.37,37.32l1.82,31.36s14.54,2.61,25.45-14.93l10.9-17.54a140.54,140.54,0,0,0-.36,36.58l2.54,18.66s16-9.7,21.45-24.26c5.93-14.43,7.88-22.53,5.46-36.21-4.09,13.07-5.64,15.34-14.91,25.38,0,0-11.63-56-9.09-95.18s8-42.19,15.27-70.18S167.63,278,168,266.4a37.14,37.14,0,0,0-3.63-16.8s-5.46,22-13.82,37c-18.16,29.21-23,45.46-20.72,115,1.09,21.65,3.64,46.66-2.54,56.36-7.74,12.16-9.82,10.46-9.82,10.46s2.91-31.36,5.46-79.89c2.25-42.94-2.18-72.79,12-112,11.73-32.41,21.61-47,26.9-57.86,4-8.21,3.28-10.08,3.28-10.08s-18.2,11.38-32,42.18c-15,33.57-17.09,84.37-22.54,110.13S104,411.61,93.47,420.2c-9.68,7.89-11.63,9-11.63,9s13.45-24.64,17.81-70.93c3.27-34.68,10.18-87.72,14.54-99.66s13.82-37.7,24-51.52S164,167.49,164,167.49l-.72-.38s-20,5.6-31.63,22c-13.45,19-23.77,44.35-29.08,69.8-5.45,26.13-10.18,81.37-16,93.32s-3.28,17.92-9.82,21.65-6.91,3.73-6.91,3.73S94,328.52,93.5,267.59c-.28-66.64,18.63-117.35,65.41-154.24Z"/><path id="path3881" class="cls-10" d="M164.36,270.88s-25.09,41.43-25.09,55.24-.36,17.17-.36,17.17,16.72-22.39,25.45-72.41Z"/><path id="path3027" class="cls-3" d="M374.1,324.26c46.65-11.47,63.95,31,57.8,59.72-8,49.28-65.07,88.84-65.07,88.84S357.75,484,337,493s-20.72,6.35-20.72,6.35l-6.54,7.83c-11.3,10.26-20.66,20.55-33.44,28.75,0,0,25.08-29.86,37.44-50.77,9.79-16.55,34.17-64.2,36.71-70.18,1.14-2.67,16.08-24.56,21.82-31,13.29-14.87,22.47-23.11,22.17-22.77,0,0-20.36,31.73-36.71,63.83s-42.9,75-42.9,75,37.81-24.26,62.16-53.75c23.94-29,34.3-49.93,38.17-69.06,3.3-16.3-.88-32.77-11.63-38.07-16.07-7.93-29.45-14.94-29.45-14.94Z"/><path id="path3029" class="cls-3" d="M350.11,383.23s-43.62,29.49-64,91.46S222.7,588.58,238.87,575.85c8.6-6.76-1.45,1.12-1.45,1.12s46.53-37.7,61.43-94.44c11.69-44.5,27.63-59.72,51.26-99.29Z"/><path id="path3031" class="cls-11" d="M256.2,423.81s-25.27,7.31-30.55,30.06c-7,30.25-17.35,49.75-11,42.05,10.79-14.3,11.16-21.88,16.08-31.7,5.11-12,14.1-22,25.43-40.41Z"/><path id="path3801" class="cls-12" d="M214,325c-6.82,11.72-27,49.82-17.22,92.8,5.06,22.3,8.55,38.4,3.05,71-3.3,19.6-8.23,40.84-8.27,40.56,0,0,32.41-35,15.73-111.77C199.24,380.63,220.79,313.24,214,325Z"/><path id="path3805" class="cls-3" d="M171.62,531.8s15-10.92,17.3-43.64c1.19-17.14.16-40-4.54-65.28-5.33-28.66-11.3-40.39,2.87-69.88,11.84-24.62,7.27-53.26,7.27-70.55,0-17.55-7.46-14.67-9.45-11.2-8.36,14.56-18.9,47-21.45,65.7s-6.79,37.74-3.63,54.5c2.18,11.57-1,21.12-3.64,25.38-3,4.94-4.72,13.06-4.72,13.06s6.54-1.12,12-8.21l5.46-7.09s18.29,48.81,2.54,117.21Z"/><path id="path3803" class="cls-10" d="M186.66,286.68s-14.2,17.73-17.4,66.76a82.35,82.35,0,0,0,1.86,21.45s21.35-48.59,15.54-88.21Z"/><path id="path3807" class="cls-3" d="M316,408.59s-28.42,24.85-45,71.26c-16.19,45.4-21.35,69.29-44.73,99.26-25.4,32.55-19,20.06-19,20.06s1.84-11.67,14.65-39.07c12.6-26.92,18-39.07,18-39.07-13.48,10.1-26.19,27.53-41.64,35.11-10.45,4.83-9,.53-9,.53s16-30,28.53-51.47c13.11-22.44,20.82-49.36,33.93-61.5,18.58-17.21,19.79-14.52,19.79-14.52s-5.11,16.1-21.33,42.76c-7.71,12.67-23,34.95-28.53,49.36a36.79,36.79,0,0,1-6.94,10.82s25.44-12.41,32.9-29.3,27.2-71.18,43.18-84.2c14.16-11.53,25.19-10,25.19-10Z"/><g id="g3847"><path id="path3811" class="cls-13" d="M393.59,569.07s5.75,4.16,15.16,3.44c8.73-.68,13.63-2.64,13.63-2.64l-.77,37.21s2.82,10.3,10,11.88,28.79,7.13,47.3,16.89,16,8.46,16,8.46a41.28,41.28,0,0,0-3.62,5c-2.83,4.22-1.55,5.28-1.55,5.28s-14.65-8.19-18-7.92-3.34,3.16-8.48,2.37-12.6-5.8-19-6.07l-6.43-.26s14.14,4.48,21.85,12.14,8.74,9.24,8.74,9.24-.77-2.11-4.89,2.37L459.39,671s-12.34-9.5-17.22-12.41-28-10-42.16-4-19.27,8.19-19.27,8.19.25-2.64-2.32-6.34-4.11-3.69-4.11-3.69A161.07,161.07,0,0,0,389.73,644c8.74-5.55,10-4.75,10.29-9.51s-.78-26.39-.78-26.39a35.94,35.94,0,0,0-8.48,3.43c-15.59,9.08-27.82,6.88-40.87-1.06-3.08-1.84-11.82-10-11.82-10s2-5.61,3.6-6.33c2.51-1.13,5.65-2.64,5.65-2.64s10.8,12.93,26.48,8.71,21.59-9.77,21.59-9.77Z"/><path id="path3837" class="cls-14" d="M487.76,653.54s2.55-5.26,4.12-7a13,13,0,0,1,2.42-2.29s6.41,1,9.79,11.92a70.18,70.18,0,0,1,2.31,11.62l-3.46-2.88a69.45,69.45,0,0,0-15.17-11.38Z"/><path id="path3839" class="cls-14" d="M457.21,669.43s3.54-3.95,5.11-5.68A12.28,12.28,0,0,1,466.1,661s5,3.19,9.25,13.79c2.12,5.32.76,13.48.76,13.48l-9-10.27s-6.75-6.36-9.9-8.58Z"/><path id="path3841" class="cls-14" d="M374.23,652.66s5,4,6,6.09a6,6,0,0,1,.35,4.44s-4.83.25-11.08,1.22c-5.47.86-16.61,6.81-16.61,6.81l4.94-6.86s4.66-8.5,16.37-11.7Z"/><path id="path3843" class="cls-14" d="M349.46,593.71s-5.76.84-7.77,2-3.45,5.11-3.45,5.11-4.53-5.4-5.2-16.84a28.27,28.27,0,0,1,1.8-11.41l3.78,3.21a101.77,101.77,0,0,1,10.84,18Z"/></g><path id="path3001" class="cls-3" d="M383.92,479.17s-8.71,26.66-15.27,55.62c-3,13.46-9.21,26.84-14.9,36.77-4.11,7.17-2.69,9.35-11.09,6.16-9.47-3.61-12.72-7.47-16.9-11s-15.07-15.07-20.36-20.15c-5.63-5.41-12-8.77-11.09-12.51.73-3,1.64-4.1,5.46-6.53s8.17-5,8.17-5,3.09,9.71,3.28,10.83,1.63,4.66,6.18,8.77,11.45,20,13.08,25,8.73,8.4,8.73,8.4-4.37-8.21-4.37-9.52-5.63-20.53-12.72-28.56-5.81-4.66-10-15.49L308,511.09s-6,6.34-12.36,11.94-8.91,6.35-9.09,8.77,1.37,9.78,5.27,14c10.18,11,24.72,17,27.26,22.58A25.64,25.64,0,0,1,321,580s1.09,1.68,5.45,3,9.57,4.45,20.18,2.24c14.36-3,22.7-12.51,28.17-28.74,5.88-17.44,10.18-46.66,9.09-77.27Z"/><g id="g3854"><path id="path3856" class="cls-15" d="M324.19,582.27s5.76,4.16,15.17,3.43c8.73-.67,13.62-2.64,13.62-2.64l-.77,37.22s2.83,10.3,10,11.88,28.79,7.13,47.29,16.89,16,8.46,16,8.46a41.8,41.8,0,0,0-3.63,5c-2.83,4.23-1.54,5.28-1.54,5.28s-14.65-8.18-18-7.92-3.35,3.17-8.49,2.38-12.59-5.81-19-6.07l-6.43-.27s14.14,4.49,21.85,12.15,8.74,9.23,8.74,9.23-.77-2.11-4.88,2.38L390,684.16s-12.34-9.5-17.23-12.41-28-10-42.15-4S311.34,676,311.34,676s.26-2.63-2.31-6.33-4.12-3.7-4.12-3.7a157.76,157.76,0,0,0,15.43-8.71c8.74-5.54,10-4.75,10.28-9.5s-.77-26.39-.77-26.39a35.77,35.77,0,0,0-8.48,3.43c-15.6,9.08-27.83,6.88-40.87-1.06-3.09-1.85-11.83-10-11.83-10s2-5.61,3.6-6.33c2.52-1.13,5.65-2.64,5.65-2.64s10.8,12.93,26.48,8.71S326,603.65,326,603.65Z"/><path id="path3858" class="cls-16" d="M418.37,666.74s2.55-5.26,4.11-7a12.8,12.8,0,0,1,2.43-2.29s6.41,1,9.78,11.92A70.75,70.75,0,0,1,437,681l-3.47-2.88a69.61,69.61,0,0,0-15.17-11.37Z"/><path id="path3860" class="cls-16" d="M387.81,682.63l5.11-5.69a12.12,12.12,0,0,1,3.79-2.75s5,3.18,9.24,13.79c2.12,5.31.77,13.48.77,13.48l-9-10.28s-6.75-6.35-9.9-8.57Z"/><path id="path3862" class="cls-16" d="M304.83,665.85s5,4,6,6.1a6,6,0,0,1,.34,4.44s-4.83.25-11.08,1.22c-5.46.85-16.61,6.81-16.61,6.81l5-6.87s4.65-8.49,16.36-11.7Z"/><path id="path3864" class="cls-16" d="M280.06,606.91s-5.76.83-7.77,2-3.45,5.11-3.45,5.11-4.53-5.41-5.19-16.85a28.09,28.09,0,0,1,1.79-11.4l3.78,3.21a101.77,101.77,0,0,1,10.84,17.95Z"/></g></g></svg>