<svg id="svg2" xmlns="http://www.w3.org/2000/svg" viewBox="0 0 433.87 514.46"><defs><style>.cls-1{fill:#ebdf44;}.cls-2,.cls-6,.cls-8{fill:none;}.cls-12,.cls-2,.cls-5,.cls-6,.cls-8{stroke:#000;}.cls-2{stroke-width:3px;}.cls-12,.cls-3,.cls-5{fill:#cecea2;}.cls-4{fill-opacity:0.09;}.cls-5{stroke-width:0.74px;}.cls-7{fill:#ff1616;}.cls-8{stroke-width:2px;}.cls-9{fill:#ffeb04;}.cls-10{fill:#ffba24;}.cls-11{fill:#fff;}</style></defs><title>Rooster-11</title><g id="layer1"><g id="g3433"><g id="g2499"><path id="path2501" class="cls-1" d="M290,487.45s-16.75,4-18.43,6.73-3.66,6.88-3.66,6.88,8.35-1.75,9.06-4.21,20.57.76,20.57.76"/><path id="path2503" class="cls-2" d="M290,487.45s-16.75,4-18.43,6.73-3.66,6.88-3.66,6.88,8.35-1.75,9.06-4.21,20.57.76,20.57.76"/></g><g id="g2471"><g id="g2473"><path id="path2475" class="cls-1" d="M206.49,453.7s24-3.44,30.56-2.54,14.33,5,14.33,5-12-1.46-15.36-.55-9.22,5.77-9.22,5.77"/><path id="path2477" class="cls-2" d="M206.49,453.7s24-3.44,30.56-2.54,14.33,5,14.33,5-12-1.46-15.36-.55-9.22,5.77-9.22,5.77"/></g><g id="g2479"><path id="path2481" class="cls-1" d="M226.67,472.29c-2-1.88,37.82-7,38.59-9.3s-54.18-8-54.18-8"/><path id="path2483" class="cls-2" d="M226.67,472.29c-5.83-1.64,30.77-7.44,38.59-9.3s-54.42-6.31-54.42-6.31"/></g><g id="g2485"><path id="path2487" class="cls-1" d="M175.38,378.87c2.12,10.52,22.79,87.87,30.24,89.92S236,479.51,238,480.37c2.43,1.07,12.87,9.36,12.87,9.36s-6.49-13.34-9.52-14-23.51-14.56-24.64-17.55c-13.54-25.69-22.5-65.24-24.24-80.32"/><path id="path2489" class="cls-2" d="M175.38,378.87c2.12,10.52,22.79,87.87,30.24,89.92S236,479.51,238,480.37c2.43,1.07,12.87,9.36,12.87,9.36s-6.49-13.34-9.52-14-23.51-14.56-24.64-17.55c-13.54-25.69-22.5-65.24-24.24-80.32"/></g></g><g id="g2456"><path id="path2454" class="cls-3" d="M109.31,316.74S116,360.61,134.21,365s38.33,25.69,42.28,26.48,18.59,7.12,20.95,7.12,50.2-27.66,50.2-27.66"/><path id="path2452" class="cls-2" d="M109.31,316.74S116,360.61,134.21,365s38.33,25.69,42.28,26.48,18.59,7.12,20.95,7.12,50.2-27.66,50.2-27.66"/></g><g id="g2928"><path id="path2926" class="cls-3" d="M296.22,137.15C254.8,171.89,250.8,162.08,247.68,163s-32.52,23.16-45.44,23.16-41.86-5.34-57.9-1.34-94.86,32.06-94.86,32.06,5.34,84.63,32.07,102,74.37,26.71,74.37,26.71,181.72,11.58,205.78-41,19.59-94.42,19.59-94.42l-44.54-73.94"/><path id="path2924" class="cls-2" d="M296.22,137.15C254.8,171.89,250.8,162.08,247.68,163s-32.52,23.16-45.44,23.16-41.86-5.34-57.9-1.34-94.86,32.06-94.86,32.06,5.34,84.63,32.07,102,74.37,26.71,74.37,26.71,181.72,11.58,205.78-41,19.59-94.42,19.59-94.42l-44.54-73.94"/></g><g id="g2448"><path id="path2446" class="cls-1" d="M295.1,487.58s22.63-8.76,29.21-9.36,15.09,1.67,15.09,1.67-12.06,1.3-15.09,2.93-7.68,7.7-7.68,7.7"/><path id="path2444" class="cls-2" d="M295.1,487.58s22.63-8.76,29.21-9.36,15.09,1.67,15.09,1.67-12.06,1.3-15.09,2.93-7.68,7.7-7.68,7.7"/></g><g id="g2440"><path id="path2438" class="cls-1" d="M319,501.14c-2.4-1.37,35.27-15.33,35.5-17.75s-54.59,4.43-54.59,4.43"/><path id="path2436" class="cls-2" d="M319,501.14c-6-.28,28.3-14.18,35.5-17.75S300,489.51,300,489.51"/></g><g id="g3714"><path id="path2942" class="cls-1" d="M247.94,421.69c4.43,9.76,42,80.47,49.72,80.78s32,3.6,34.17,4c2.61.5,14.65,6.22,14.65,6.22s-9.33-11.54-12.44-11.54-26.18-8.88-28-11.54c-19-22-36.62-58.5-41.71-72.8"/><path id="path2940" class="cls-2" d="M247.94,421.69c4.43,9.76,42,80.47,49.72,80.78s32,3.6,34.17,4c2.61.5,14.65,6.22,14.65,6.22s-9.33-11.54-12.44-11.54-26.18-8.88-28-11.54c-19-22-36.62-58.5-41.71-72.8"/></g><path id="path3396" class="cls-4" d="M140.81,366.57s30.66,23.12,32.81,23.66,19.36,7.52,22.59,7.52,17.74-8.6,17.74-8.6l1.61-26.88C193.77,363.93,193.26,379,140.81,366.57Z"/><g id="g2936"><path id="path2934" class="cls-3" d="M330.09,321.42c-8.89,38.37-8.44,52.17-33.52,78.48-1.63,4.91-18,27.8-23.71,28.61s-23.7,0-27.79-3.26-13.9-27.79-19.62-30.25-54-29.44-55.59-33.52-21.26-27-21.26-27"/><path id="path2932" class="cls-2" d="M330.09,321.42c-8.89,38.37-8.44,52.17-33.52,78.48-1.63,4.91-18,27.8-23.71,28.61s-23.7,0-27.79-3.26-13.9-27.79-19.62-30.25-54-29.44-55.59-33.52-21.26-27-21.26-27"/></g><g id="g3424"><g id="g3669"><path id="path3667" class="cls-3" d="M360.33,219.43c-1.15,60.1-16.75,85.52-49.12,90.72S201.43,337.31,194.5,335s-41-1.15-41-8.08,79.16-27.74,79.16-27.74S159.83,324,157.52,315.35s67.6-31.78,67.6-31.78-52,21.38-53.16,9.82S215.3,272,215.3,272s-41,9.83-39.29,2.32,28.31-11,28.31-11-15-1.16-14.45-5.2,20.81-9.83,20.81-9.83l64.14,35.83"/><path id="path3665" class="cls-2" d="M360.33,219.43c-1.15,60.1-39.77,59.31-49.12,90.72C306.66,325.46,207,339.32,194.5,335c-6.91-2.39-41-1.15-41-8.08s79.16-27.74,79.16-27.74S159.83,324,157.52,315.35s67.6-31.78,67.6-31.78-52,21.38-53.16,9.82S215.3,272,215.3,272s-41,9.83-39.29,2.32,28.31-11,28.31-11-15-1.16-14.45-5.2,39.29-13.56,39.29-13.56l45.66,39.56"/></g><path id="path3295" class="cls-5" d="M234.07,275.63c-48.56,13.2-55.11,15.95-52.29,20.57,5.89,9.72,69.95-7.14,69.93-7.16"/><path id="path3297" class="cls-5" d="M235,247.28c-48.57,13.2-55.11,16-52.3,20.58,5.89,9.72,70-7.15,69.94-7.17"/><path id="path3279" class="cls-6" d="M258.61,304c-63.61,15.82-72.24,19.35-68.94,26.13,7,14.26,90.82-5.83,90.81-5.87"/></g><g id="g3417"><g id="g3677"><path id="path3675" class="cls-3" d="M376.49,228.11c0,39.92-40.69,84-60.33,84s-90.73-18.9-95.41-52.52,72-42,72-42"/><path id="path3673" class="cls-2" d="M376.49,228.11c0,39.92-40.69,84-60.33,84s-90.73-18.9-95.41-52.52,72-42,72-42"/></g><path id="path2505" class="cls-6" d="M284.22,218.48l-33,21.78,45-4.19-16.77,15.56,59.66-7.85L307.9,271.11l38-7.3-6.64,23.53,19.08-8.66"/><path id="path3277" class="cls-6" d="M244.17,232.14l-16.1,20.43,31-.27-15.7,17.05,45.06.41-18.26,20.83,46.94-3.65-11.91,18.67,28.28-1.49"/></g><g id="g3639"><path id="path3609" class="cls-7" d="M402.71,119.5c15.32-5.16,10.72-27.57,10.72-27.57l-8.94-9.46L377,98.16l3.09,12.9a23.74,23.74,0,0,0,22.67,8.44Z"/><path id="path3607" class="cls-2" d="M403.84,120.62c15.32-5.16,9.59-28.69,9.59-28.69l-8.94-9.46L377,98.16l3.09,12.9s8.82,11.92,23.8,9.56Z"/></g><g id="g3625"><path id="path3621" class="cls-3" d="M356.47,48.12C320.91,68.83,315,79.26,309.55,90.21s-16,46.5-22.67,53.15a52.68,52.68,0,0,1-12.11,9.38l19.14-6.65-2.34,26.57a61.25,61.25,0,0,0,12.51-26.18l5.07,34c2.4-10.76,6.68-19,15.26-21.5l.77,24.23c10.17-.24,17.05-5.43,20.33-16l-.79,31.66c3.54-7.13,8.09-12.22,16.41-9.77,3.16,16.9,1,25-1.95,31.66l12.12-5.48-1.18,19.55s13.68-18.76,12.9-24.23-6.25-10.17-4.68-16.42c3.26-13.06,10.54-41,8.2-48.46s-16.8-60.19-16.8-60.19L356.47,48.12Z"/><path id="path3619" class="cls-2" d="M355,47.76c-35.56,20.71-40,31.5-45.45,42.45s-16,46.5-22.67,53.15a52.68,52.68,0,0,1-12.11,9.38l19.14-6.65-2.34,26.57a61.25,61.25,0,0,0,12.51-26.18l5.07,34c2.4-10.76,6.68-19,15.26-21.5l.77,24.23c10.17-.24,17.05-5.43,20.33-16l-.79,31.66c3.54-7.13,8.09-12.22,16.41-9.77,3.16,16.9,1,25-1.95,31.66l12.12-5.48-1.18,19.55s13.68-18.76,12.9-24.23-6.25-10.17-4.68-16.42c3.26-13.06,10.54-41,8.2-48.46s-16.8-60.19-16.8-60.19L355,47.76Z"/></g><path id="path3591" class="cls-3" d="M400.32,53.81c-6.45-12.63-35.56-10.75-45.76-6.06-10.42,4.79-17.46,24-17.46,24l15-10-13.18,21.9,13.36-9.44L340,105.09l13.18-15.85-4.27,19.06,5.52-8.73-.72,20.3,9.62-15.48,2.85,28.49,3.21-11.76,5.52,19.59,2.31-18.52,8.19,19.05s-2.08-21.39-4.27-25.29c-5.92-10.51,17-29.39,21.34-25.22l15.5-16.13L400.32,53.81Z"/><path id="path3589" class="cls-2" d="M400.32,53.81c-6.45-12.63-35.56-10.75-45.76-6.06-10.42,4.79-17.46,24-17.46,24l15-10-13.18,21.9,13.36-9.44L340,105.09l13.18-15.85-4.27,19.06,5.52-8.73-.72,20.3,9.62-15.48,2.85,28.49,3.21-11.76,5.52,19.59,2.31-18.52,8.19,19.05s-4.62-20.83-4.27-25.29.32-12.91,6.7-19.27c2.5-2.51,14-6.78,22.67-8,11.09-1.6,11.2-11.16,11.2-11.16Z"/><g id="g3655"><path id="path3653" class="cls-7" d="M379.29,60.59c-3.68,0-14.53,3.69-14.53,11.3S374.68,92,376.53,92s4.61-1.63,7.14-1.63,4.61,5.08,4.61,5.08l11.53-5.76L397.51,77l6.92-6.46S392,60.36,379.29,60.59Z"/><path id="path3651" class="cls-8" d="M379.29,60.59c-3.68,0-14.53,3.69-14.53,11.3S374.68,92,376.53,92s4.61-1.63,7.14-1.63,4.61,5.08,4.61,5.08l11.53-5.76L397.51,77l6.92-6.46S392,60.36,379.29,60.59Z"/></g><g id="g3584"><path id="path2808" class="cls-9" d="M412,68.31C428.66,80.9,437.57,94,429.48,94.36c-6.8.32-7.05-3.27-8.55-3.27s-16.5-.76-16.5-.76L402.3,78.26"/><path id="path2806" class="cls-2" d="M402.31,78.67c5.73-4,5.52-12.09,9-10.15,17.85,9.89,25.14,26.2,18.17,25.84-6.8-.35-7.05-3.27-8.55-3.27s-16.5-.76-16.5-.76l-2.12-11.66Z"/><path id="path3580" class="cls-4" d="M427.22,93.61c-7.68-5.3-13-14.36-15-13.1s-7.05,9.19-7.05,9.19"/></g><g id="g3635"><path id="path3633" class="cls-7" d="M371.65,42.53c-3.66-6.66-11-28.59-8.74-29.26,6.87,5.29,8,9.1,13.89,11.79,0,0,1.77-16.41,3.27-18.29,3.32,2.27,9.42,20.94,9.42,20.94s10.38-22.5,13.34-25.95c3.35,3.25-.26,34.53-.26,34.53S412.25,18,416.24,16.5c2.07,4.35,1.27,21.17,1.27,21.17,6.36-9.23,4.36-1.92,6.83-3.52,4.53,11,3.75,30.89-8.42,35.69C405.6,72,373.72,52.2,371.65,42.53Z"/><path id="path3603" class="cls-2" d="M371.65,42.53c-3.66-6.66-11-28.59-8.74-29.26,6.87,5.29,8,9.1,13.89,11.79,0,0,1.77-16.41,3.27-18.29,3.32,2.27,9.42,20.94,9.42,20.94s10.38-22.5,13.34-25.95c3.35,3.25-.26,34.53-.26,34.53S412.25,18,416.24,16.5c2.07,4.35,1.27,21.17,1.27,21.17,6.36-9.23,4.36-1.92,6.83-3.52,4.53,11,3.75,30.89-8.42,35.69C405.6,72,373.72,52.2,371.65,42.53Z"/></g><g id="g3659"><path id="path3601" d="M389.54,72.51a8,8,0,0,1-16,.26v-.26a8,8,0,0,1,16-.25Z"/><path id="path3643" class="cls-10" d="M388.56,72.47a7.15,7.15,0,0,1-14.27.22v-.22a7.15,7.15,0,0,1,14.27-.23Z"/><path id="path3645" d="M386.79,72.35a5.33,5.33,0,0,1-10.61.16v-.16a5.33,5.33,0,0,1,10.61-.16Z"/><path id="path3647" class="cls-11" d="M378.68,67c1.13,5.46,4.95,5.42,9.65,4.2C383,70.86,381.5,70.52,378.68,67Z"/></g><path id="path3649" class="cls-6" d="M430.26,93.94s-7.5-7.17-13.49-9.14a125.26,125.26,0,0,1-13.86-5.87"/><g id="g3285"><path id="path3283" class="cls-3" d="M60.84,240.57c-44.78-13.51-60.41-5-59-1.43s59,13.5,59,13.5-50.46-8.52-50.46,4.27,69,5.68,69,5.68-51.89,10.67-44.08,23.46S108.46,269,108.46,269"/><path id="path3281" class="cls-2" d="M60.84,240.57c-44.78-13.51-60.41-5-59-1.43s59,13.5,59,13.5-50.46-8.52-50.46,4.27,69,5.68,69,5.68-51.89,10.67-44.08,23.46S108.46,269,108.46,269"/></g><path id="path3293" class="cls-12" d="M80.89,246.57C18.12,265.44,9.66,269.38,13.29,276c7.63,13.91,90.43-10.21,90.41-10.25"/><path id="path2918" class="cls-3" d="M139.41,196.22C89.46,194,69.43,58.3,42.79,68.69c-14.87,4.51,57,120.77,57,120.77S48,87.89,33.82,91.94C13.74,97.67,77.31,202.62,77.31,202.62S24.84,102,14.7,108.12,53.31,208.81,53.31,208.81,14.88,136.94,5.5,147.41,47.88,229,47.88,229,7.2,177.45,2.7,187.13c-4.64,10,33.55,57.32,33.55,57.32s34.87,36.41,79,28.67l44.15-7.75"/><path id="path2916" class="cls-2" d="M139.41,196.22C89.46,194,69.43,58.3,42.79,68.69c-14.87,4.51,57,120.77,57,120.77S48,87.89,33.82,91.94C13.74,97.67,77.31,202.62,77.31,202.62S24.84,102,14.7,108.12,53.31,208.81,53.31,208.81,14.48,136.76,5.1,147.23,47.88,229,47.88,229,7.2,177.45,2.7,187.13c-4.64,10,33.55,57.32,33.55,57.32s34.87,36.41,79,28.67l44.15-7.75"/><path id="path2922" class="cls-3" d="M174.23,237s-71.32,13.6-74.16,7.94S128.94,237,128.94,237s-39.88,6.63-41.32,1.13S126.11,228,126.11,228s-41.91-.11-41.89-7.92,30-5.09,30-5.09-35.21-2.89-35.67-13,35.1,4.52,35.1,4.52S76.31,189.36,81.3,182.4c5.38-7.48,39.15,18.4,39.15,18.4s-35.77-24.5-28.87-31.14,15.28,6.8,20.94,12.47,24.68,4.2,31.47,4.4c6.45.18,38.54,15.2,38.54,15.2"/><g id="g2495"><path id="path2493" class="cls-1" d="M203.86,459.42s-16.07,6.19-17.38,9.11-2.71,7.31-2.71,7.31,8-2.84,8.43-5.37,20.48-2,20.48-2"/><path id="path2491" class="cls-2" d="M203.86,459.42s-16.07,6.19-17.38,9.11-2.71,7.31-2.71,7.31,8-2.84,8.43-5.37,20.48-2,20.48-2"/></g><path id="path3289" class="cls-12" d="M66,197C24.4,146.36,17.51,140.09,12.8,146c-9.88,12.39,44.28,79.49,44.32,79.45"/><path id="path3291" class="cls-12" d="M84.88,193.87c-33.79-56.17-39.68-63.39-45.2-58.24C28.09,146.44,71.9,220.74,71.93,220.7"/><path id="path2920" class="cls-2" d="M174.23,237s-71.32,13.6-74.16,7.94S128.94,237,128.94,237s-39.88,6.63-41.32,1.13S126.11,228,126.11,228s-41.91-.11-41.89-7.92,30-5.09,30-5.09-35.21-2.89-35.67-13,35.1,4.52,35.1,4.52S76.31,189.36,81.3,182.4c5.38-7.48,39.15,18.4,39.15,18.4s-35.77-24.5-28.87-31.14,15.28,6.8,20.94,12.47,24.68,4.2,31.47,4.4c6.45.18,38.54,15.2,38.54,15.2"/><path id="path3394" class="cls-4" d="M326.87,337.53s-6.45,35.5-11.3,40.33-17.75,20.43-17.75,20.43S277.39,428.41,274.17,429s-28.5-3.24-28.5-3.24l29-24.72,16.66-53.78C312.6,327.35,318.35,340.84,326.87,337.53Z"/><path id="path3407" class="cls-4" d="M302.35,494l14.72,2.18-10.23-5.51-27.27-39.68-9.6-22.4-8.58-.25c15.39,31.15,27.81,52.41,41,65.66Z"/><path id="path3409" class="cls-4" d="M210.7,459.65l6.78.12-13.31-32.26-5.12-18.43-1.92-10.49-6.79-2.18c1.65,22.95,10.21,42.92,20.36,63.24Z"/><path id="path3411" class="cls-4" d="M386.07,99.31S366.18,117,360.92,124.46s-.76,28.17-6.4,40.2,13.9,47,13.9,48.87c0,1.31-2.72,13.83-4.71,22.92-6.38,3.43-12.54,6.88-15.56,9.85-5.09,5-15.19,21.37-31.06,33.5s-56,33.23-77.6,40.63-63.77,11.44-63.77,11.44l22.87,3.46s33.22-4.26,60.06-5.59c47.19-12.54,49.93-21.17,60-17.79,53.41-28.17,62.55-75.62,62.55-75.62l1.85-23.94s-6.36-14.25-4.86-16.51,9.38-39.84,9.38-49.24-4.88-17.28-6.37-24l4.86-23.28Z"/><path id="path3413" class="cls-4" d="M150.47,328.14,149,336.4l9,8.64S89.22,329.26,78.7,317.25,62.54,286.8,62.54,286.8l15.78-5.64a143.59,143.59,0,0,0,72.15,47Z"/></g></g></svg>