<svg id="svg2" xmlns="http://www.w3.org/2000/svg" xmlns:xlink="http://www.w3.org/1999/xlink" viewBox="0 0 85.04 96.38"><defs><style>.cls-1{fill:none;}.cls-2{fill:#bd9a34;stroke:#ff9d00;}.cls-10,.cls-11,.cls-16,.cls-17,.cls-2,.cls-4,.cls-5,.cls-6,.cls-7,.cls-8,.cls-9{stroke-width:0.29px;}.cls-3{fill:#68430e;}.cls-4{fill:#efc819;}.cls-4,.cls-5,.cls-6,.cls-7,.cls-8{stroke:#aad400;}.cls-5{fill:url(#radial-gradient);}.cls-6{fill:url(#radial-gradient-2);}.cls-7{fill:url(#pattern6712);}.cls-8{opacity:0.3;fill:url(#pattern6520);}.cls-11,.cls-8{isolation:isolate;}.cls-16,.cls-9{fill:#fff;}.cls-9{stroke:#fc0;}.cls-10,.cls-11{stroke:red;}.cls-10{fill:url(#radial-gradient-3);}.cls-11{opacity:0.3;fill:url(#pattern6616);}.cls-12{fill:#ecce71;}.cls-13{fill:#000a1c;fill-opacity:0.95;}.cls-14{fill:#ce9626;}.cls-15{fill:#dda32d;}.cls-16{stroke:#f60;}.cls-17{fill:#f0b91d;stroke:#8a0;}.cls-18{fill:#7c0000;}.cls-19{fill:#ac7d26;}.cls-20{stroke:#830c0c;stroke-width:0.35px;}.cls-20,.cls-21{stroke-linecap:round;stroke-linejoin:round;}.cls-21{stroke:#fff;stroke-width:0.35px;}.cls-22{fill:#845a14;}.cls-23{fill:#090d15;}.cls-24{fill:#e39735;}</style><radialGradient id="radial-gradient" cx="76.44" cy="209.25" r="22.18" gradientTransform="matrix(1.3, 0.2, 0.35, -2.31, -119.16, 529.76)" gradientUnits="userSpaceOnUse"><stop offset="0" stop-color="#151e2f"/><stop offset="0.17" stop-color="#011c4b"/><stop offset="0.41" stop-color="#014b48"/><stop offset="0.59" stop-color="#011c4b"/><stop offset="1" stop-color="#4e6ca1"/></radialGradient><radialGradient id="radial-gradient-2" cx="-17.5" cy="-24.85" r="24.39" gradientTransform="matrix(0.68, -0.42, -0.68, -1.09, 19.91, 26.77)" gradientUnits="userSpaceOnUse"><stop offset="0" stop-color="#151e2f"/><stop offset="0.17" stop-color="#011c4b"/><stop offset="0.59" stop-color="#011c4b"/><stop offset="1" stop-color="#4e6ca1"/></radialGradient><pattern id="pattern6712" data-name="pattern6712" width="85.04" height="96.38" patternTransform="matrix(0.69, 0, 0, -0.77, 26.21, 619.7)" patternUnits="userSpaceOnUse" viewBox="0 0 85.04 96.38"><rect class="cls-1" width="85.04" height="96.38"/></pattern><pattern id="pattern6520" data-name="pattern6520" width="85.04" height="96.38" patternTransform="matrix(0.87, 0, 0, -0.87, 2.73, 671.86)" patternUnits="userSpaceOnUse" viewBox="0 0 85.04 96.38"><rect class="cls-1" width="85.04" height="96.38"/></pattern><radialGradient id="radial-gradient-3" cx="228.14" cy="30.09" r="15.1" gradientTransform="matrix(0.8, 0, 0, -0.86, -153.94, 43.42)" gradientUnits="userSpaceOnUse"><stop offset="0" stop-color="#e86666"/><stop offset="0.59" stop-color="#c92222"/><stop offset="1" stop-color="#c92222"/></radialGradient><pattern id="pattern6616" data-name="pattern6616" width="85.04" height="96.38" patternTransform="matrix(0.32, 0, 0, -0.33, 18.83, 616.8)" patternUnits="userSpaceOnUse" viewBox="0 0 85.04 96.38"><rect class="cls-1" width="85.04" height="96.38"/></pattern></defs><title>rooster-07</title><g id="layer1"><path id="path5029" class="cls-2" d="M43.19,79.13,43.33,85l-1.77,2a5.78,5.78,0,0,0-4,.28c-.81.67-1.66,1.34-1.56,2.19a7,7,0,0,1,4.18-1.06c-.62,1.58,0,2.33.49,3.19a10.14,10.14,0,0,1,3.68-4.32l1.27,1.56.92-1.06a8.87,8.87,0,0,0,.35-3.18c1.44-.12,3,.84,4.67,1.83.6-.63-.33-1.77-.78-2.75l-4.1-1.91,1.77-1.2c1-.88,1.46-1.75,1.13-2.62L46,79.63l-.14-1.42Z"/><path id="path5021" class="cls-3" d="M46.61,79.13l-.15-1.23-1.32.52.75,1.87,3.5-1.79C48.69,80.33,47,81,45.55,82l3.94,1.57c.75.2,1.22,1.09,1.71,1.94-1.48-.82-3.15-2.12-4.9-1.2l.16,2.2c-.45,2.15-1.06.64-1.63-.1A6.57,6.57,0,0,0,41.94,89c-.34.64-1,1-1.18,1.65,0-.77-.62-1.37.56-2.51-.87.16-1.64-.25-2.48-.13s-1.72.79-2.24.69c.55-.22,1.22-.93,1.92-1.19a4.09,4.09,0,0,1,3.2.16l2.6-2.36-.31-6-1.42.08.28,5.36-1.8,1.63-3.56.61c-.91,1-2.24,1.81-1.78,3.58,1-1.1,3.73-1.6,3.73-1.6l-.09,1.05c-.1,1,.77,1.71,1.73,2.49l1.17-2.11a2.83,2.83,0,0,1,2.35-1.86c1.21,2.17,2,.25,2.46-.35l.52-2.8a16.62,16.62,0,0,1,2.09.67A21.58,21.58,0,0,1,52,87.43a4.82,4.82,0,0,0-2.34-5.14l-1.82-.84c1.73-.9,2.39-3,2.1-3.58S47.83,78.39,46.61,79.13Z"/><path id="path5025" class="cls-4" d="M30.74,16.48c.48,2.93-.23,3.5-.42,5.09-.53,1.55-1.21,2.91-3,3L25.3,29l-5.24,2.61L14.19,40l-4,5.16-.42,5.94,1.91-1.49c0,3.38.25,5.61.85,6.72L14.05,58l.43-2.83a5.52,5.52,0,0,1,1.91,3.89l1.55,4c2.48,1.89,5.38,3.19,7,6.29l2,4.67,2.27.64,3.53,2.75,3.39.15,2.34-2.13L42,79.06,44,79c2.35-.69,3.46-1.55,3-2.62,2.27-1.2,2.6-.73,3.68-.92l.78-3.18,2.19-3.89.85.92,2.4-3A13.57,13.57,0,0,0,58,60.53,6.48,6.48,0,0,1,61.15,62l4.1,4.17.85-2-2-4.67-2.27-1.91L63.62,57l3.11,2.4-.21-3.6,2.12-.29,2.19,3.68a10,10,0,0,0,.78-5.66L74,51.06l-.07-3-1.7-.85a9.41,9.41,0,0,0,3-5.44c-1.6-2.06-3.21-1.42-4.81-1.56.87-1.8,2.08-3.54,1.7-5.52s-2.57-1.47-4-1.9c1.1-1.65.49-3.85.28-5.87l-3.82-.29c1-2.79.34-3.44.28-4.88-2.68-1.36-4.78.07-6.71,2.27l-.43-1.7H56l1.56-4.6c0-2.42-.69-2.89-1.63-2.68-3.22,0-3.62,2.12-4.95,3.53a19,19,0,0,0-4,7.5c-.3-.77-.46-1.94.36-5.87l2.47-5a22.25,22.25,0,0,1,6.79-5.59L59.38,7l-4-.36c-4.3,1.1-7.71,4.87-10.89,9.34l2.9-9.9a11.5,11.5,0,0,0-4.1,5.23c-2,3.64-2.45,7.07-3.18,10.54L39.37,33.1c.61,5.11,1.49,9.73,3,13.15l1.13,3.25-3.32-3a8.44,8.44,0,0,1-2.41-5.23V33.81Z"/><path id="path6620-0" class="cls-5" d="M43.48,49.27A67.53,67.53,0,0,1,39.78,37a60.52,60.52,0,0,1,.5-15.6c.2-4.23,2.29-8.3,4-12.4l3.2-3c-.14,3.19-1.89,6.77-3,10.2l5.7-6.9a11.56,11.56,0,0,1,5.5-2.4,6.72,6.72,0,0,1,3.6.3,15.46,15.46,0,0,1-3.3,3.2c-2.63,1.18-4.15,2.84-5.9,4.4-3.8,5.28-3,8.09-3.3,11.5l3.7-7.1,3.3-3.6c1-.5,1.89-1,3.1-.5a5.24,5.24,0,0,1,.4,3.6l-1.4,3.8,1.7-.1.3,1.5,4.5-2.7c1.34-.38,2.3.08,2.7,1.7a25.46,25.46,0,0,1-.3,4c1.3-.49,2.47-.77,3.1-.2,2.26,2.38,1,4.3.3,6.3,1.31.15,2.58,0,4,1.2.55,1.21-.31,2.21-.6,3.3l-1.2,3c1.27.22,2.54-.5,3.8.9.86,1,.53,1.83.5,2.7l-2.6,3.5a2.36,2.36,0,0,1,2.2,1c.56,2.34-.39,2.41-.8,3.3l-1.8,1.4-.6,5.9-2.6-3.6-1.9.7.4,2.9c-.75-.08-1.37.32-2.5-1l-1-1.1-1.4.6,2.6,2.8a13.86,13.86,0,0,1,1.4,5.6l-1.5-.6-3.5-3.4-3.3-1.5a13.51,13.51,0,0,1-.9,6.5l-2.6,2.5-.65-.95-2.05,4-.8,3.1-2.1-.5,1.7-3.9a30.49,30.49,0,0,0-.8-8.2c.9.28,1.8,2,2.3,3.15.35-1.13.25-2-.85-4.25a10.21,10.21,0,0,0,1.45-.3l-2.1-6.7Z"/><path id="path5039-8" class="cls-6" d="M23.47,29.93,18.87,33l-4.1,6.3-4.3,5.2L9.77,51l2-1.6c-.18,4.85,1,7.16,2.5,8.7l.3-3,2.7,6.3,7.3,6.9L27,74.18l2.7.45,2,2.4,4.6.5,2.6-2.2,3.5,3.7a6.69,6.69,0,0,0,4.8-1.6l-.1-1.5,1.35-.3c0-2.23.4-4.46-.35-6.7L46,73.78l-.1-5.1-1.3,2.15-.6-7.3-1.6,3-1.3-9.7c-.78-1.82-1.94-4.11-2-6,.16-.66-.26-2.33.32-2.94.26-.26,1.48.16,1.92.13L39,45c-.12,1.29.83,3.54-.14,4.46l-1.35-1.7.4,3.3-1.4-1.4-.7,4.4c-1.06-.89-1.31-2.46-1.6-4-.8.61-1.24-.05-1.8-.3l-2.3,3.9-.3-2.9-1.9,1,.3-2.2c1.33-2.12.66-2.44.8-3.5a12,12,0,0,1-3.3,3.1c-.71-.71-.36-2,.1-3.4l-1.7.5.1-2.3c-.67.41-1.33.72-2,.2a6.87,6.87,0,0,1,1.9-3.3l-.9-.6c-1.94,1.6-3.9,3.21-4.8,3.5a14.86,14.86,0,0,1,1.7-5l3.7-7.7Z"/><path id="path6620" class="cls-7" d="M43.5,49.18a67,67,0,0,1-3.7-12.3,60.52,60.52,0,0,1,.5-15.6c.2-4.23,2.28-8.3,4-12.4l3.2-3c-.15,3.19-1.9,6.77-3,10.2l5.7-6.9a11.46,11.46,0,0,1,5.5-2.4,6.73,6.73,0,0,1,3.6.3,15.94,15.94,0,0,1-3.3,3.2c-2.63,1.18-4.15,2.84-5.9,4.4-3.81,5.28-3,8.09-3.3,11.5l3.7-7.1,3.3-3.6c1-.5,1.89-1,3.1-.5a5.24,5.24,0,0,1,.4,3.6l-1.4,3.8,1.7-.1.3,1.5,4.5-2.7c1.34-.38,2.29.08,2.7,1.7a28.19,28.19,0,0,1-.3,4c1.3-.49,2.46-.77,3.1-.2,2.25,2.38,1,4.3.3,6.3,1.3.15,2.57,0,4,1.2.55,1.2-.32,2.21-.6,3.3l-1.2,3c1.27.22,2.53-.5,3.8.9.85,1,.52,1.82.5,2.7l-2.6,3.5a2.34,2.34,0,0,1,2.2,1c.56,2.34-.39,2.41-.8,3.3l-1.8,1.4-.6,5.9-2.6-3.6-1.9.7.4,2.9c-.76-.08-1.37.32-2.5-1l-1-1.1-1.4.6,2.6,2.8A13.82,13.82,0,0,1,66.1,66l-1.5-.6L61.1,62l-3.3-1.5a13.77,13.77,0,0,1-.9,6.5l-2.6,2.5-.65-1-2,4-.8,3.1-2.1-.5,1.7-3.9a31.33,31.33,0,0,0-.8-8.2c.9.28,1.8,1.94,2.3,3.15.34-1.13.24-2-.85-4.25a12,12,0,0,0,1.45-.3L50.4,55Z"/><path id="path5039" class="cls-8" d="M23.45,30l-4.6,3.1-4.1,6.3-4.3,5.2-.7,6.5,2-1.6c-.18,4.85,1,7.16,2.5,8.7l.3-3,2.7,6.3,7.3,6.9L27,74.21l2.7.45,2,2.4,4.6.5,2.6-2.2,3.5,3.7a6.79,6.79,0,0,0,4.8-1.6l-.1-1.5,1.35-.3c0-2.24.4-4.47-.35-6.7L46,73.81l-.1-5.1-1.3,2.15-.6-7.3-1.6,3-1.3-9.7-2.5-8-1.1-1.1.4,3.3-1.4-1.4-.7,4.4c-1.07-.89-1.31-2.46-1.6-4-.8.61-1.24-.06-1.8-.3l-2.3,3.9-.3-2.9-1.9,1,.3-2.2c1.33-2.13.65-2.45.8-3.5a12.35,12.35,0,0,1-3.3,3.1c-.72-.72-.37-2,.1-3.4l-1.7.5.1-2.3c-.67.4-1.34.71-2,.2a6.87,6.87,0,0,1,1.9-3.3l-.9-.6c-1.94,1.59-3.9,3.2-4.8,3.5a14.79,14.79,0,0,1,1.7-5l3.7-7.7Z"/><path id="path5031" class="cls-9" d="M20.49,19c-1.19,2.77-1.82,6-4,7.92.44,1.39,1.13,2.3,2.33,2.19a4.67,4.67,0,0,1,3.47,1.41c.87.23,1.74-.44,2.61-1.13.84-1.45,2.17-1.68,2.34-4.81a1.69,1.69,0,0,0,1.9-.85,8.09,8.09,0,0,0,1.7-4.45,16.3,16.3,0,0,0-.14-3l1.77,4.1c1.13.63,2.06,1.8,3.89,1.91,1.06-.53,2.51-.56,2.33-2.69L36.33,18l3.32-2a14.36,14.36,0,0,0-4.1-.78,13.59,13.59,0,0,1,4.38-2.34,9.61,9.61,0,0,0-5.94-.7c1.09-1.35,1.27-1.34,3.26-4L33,9.76l2-4.24L30.39,9.2,30,5.52,27.28,8.14,26.57,5.8,21.2,9.55l.35,1.35,3.6,2.68a13,13,0,0,1,1.35,2.83A2.55,2.55,0,0,1,24,18.6Z"/><path id="path6524-5" class="cls-10" d="M20.34,19l-1.6,4.55L16.64,27,18.79,29l1.6-.3,2.25,1.7,2.2-.95c1.38-1.24,1.94-3.17,2.55-5.05.68.32,1.36-.26,2.05-.7a16.59,16.59,0,0,0,1.5-4l-.05-3.8,1.75,4.6,1.2.25,2,1.25,2.1-.7.6-2.2-2.2-1.35,3.5-1.85-2.1-.8-2.1-.05a9.09,9.09,0,0,1,4.55-2.2c-1.95-.57-3.88-1.24-5.95-.9l3.2-3.7L33,9.63l2.3-4c-2.53.5-3.67,2.1-5.05,3.5V5l-2.75,3.3-1.25-2.7-5.1,4.55,1.9,1.75a5.61,5.61,0,0,1,2.7,2.2l.65,2.55a2.79,2.79,0,0,1-2,1.95Z"/><path id="path6524" class="cls-11" d="M20.25,19.23l-1.6,4.55-2.1,3.4,2.15,2.05,1.6-.3,2.25,1.7,2.2-.95c1.38-1.24,1.94-3.16,2.55-5.05.68.32,1.36-.26,2.05-.7a16.43,16.43,0,0,0,1.5-4l-.05-3.8,1.75,4.6,1.2.25,2,1.25,2.1-.7.6-2.2L36.25,18l3.5-1.85-2.1-.8-2.1-.05a9.09,9.09,0,0,1,4.55-2.2c-2-.57-3.88-1.23-6-.9l3.2-3.7L33,9.83l2.3-4c-2.53.51-3.66,2.1-5.05,3.5V5.18l-2.75,3.3L26.2,5.78l-5.1,4.55L23,12.08a5.61,5.61,0,0,1,2.7,2.2l.65,2.55a2.74,2.74,0,0,1-2,2Z"/><path id="path6522" class="cls-12" d="M27.28,24.54c-.74,1.77-.43,2.93-3.61,6.08-1.88,4.45-4.27,8.51-5.3,13.05l2.12-1.24,2.33-2c.79.13,1.54.28.85,1.06l-1.49,2.12.5.92,1.63-.42L24,46.39l1.77-.49a2.88,2.88,0,0,0-.21,3.21c1.08,0,2.29-1.69,3.46-2.86-.12.92.07,1.84-.56,2.76l-.71,2.4a2.28,2.28,0,0,0,2.12-.7c0,.89-.43,2.23.28,2.54.95-.38,1.76-2.5,2.62-3.89l.43,1.27,1-.63c.24,1.41.21,2.92,1.62,3.89a23.16,23.16,0,0,0,.71-4.32l1.34,1.63-.35-3.68,1.7,2.2c.41-2.27-.65-4.4-1.07-6.58l-.56-9.83L30.81,16v3.18A11.63,11.63,0,0,1,29.75,23,2.26,2.26,0,0,1,27.28,24.54Z"/><path id="path4239" class="cls-13" d="M47.73,5.53c-.22,0-.57.18-1.1.65a13.66,13.66,0,0,0-3.43,4.05,40.58,40.58,0,0,0-3.47,10.91,53.52,53.52,0,0,0-.5,13A48.3,48.3,0,0,0,41,43.65c.33,1.2,1.35,3.62,1.88,5-1.4-1.32-3.86-4.68-4.26-6.3a35.56,35.56,0,0,1-.14-4.69c0-1.62-.17-4.77-.76-6.14-2.16-5.06-3.53-7.51-5.42-13.14l0,.06c-.71-2.12-1.18-2.68-2-3.4a4.57,4.57,0,0,0-1.86-1.06,9.84,9.84,0,0,1,2,2.22c.26.46,0,1.67.14,3a6.27,6.27,0,0,1-1.3,3.66c-.48.48-.76,1.83-2.13,1.28-.68,1-1.15,2.77-1.75,3.69a5.24,5.24,0,0,1-2,2,1.35,1.35,0,0,1-1.61-.2A25.09,25.09,0,0,0,14.43,39a11.47,11.47,0,0,0-4.29,5.27,17.91,17.91,0,0,0-.73,8.08l2-2.22c.06,2.62-.33,6,1.22,7.64l2.22,1.35a4.24,4.24,0,0,1-.15-2.82c.67.57.64,2.09,1,3.13s.68,2.82,1.48,3.62c2.11,2.13,4.79,3.55,6.46,5.63A10.92,10.92,0,0,1,25,71.26c.42,1,.86,2.61,1.9,3.39.51.38,1,.27,1.69.42a2.81,2.81,0,0,1,1.61,1.25C31.69,78.64,35,78.07,36.42,78a4.46,4.46,0,0,0,2.2-1.9,17.17,17.17,0,0,0,3.5,3.52,8.25,8.25,0,0,0,2.32-.37,5.59,5.59,0,0,0,2.26-1c.92-.87.64-1,.78-1.48a3.39,3.39,0,0,1,1.77-.57c.73.85,1.67.61,2.22-.57A17.55,17.55,0,0,0,52,72.81a9.9,9.9,0,0,0,1.71-3.45l.51,1.33a6.29,6.29,0,0,1,1.28-1.64,6.7,6.7,0,0,0,1.91-2,9.46,9.46,0,0,0,.9-3.61c.05-.52-.25-1.44-.13-1.68a1.1,1.1,0,0,1,.59-.45c.57-.16,1.78,1,2.32,1.47a25.57,25.57,0,0,1,2.22,2.29h0l0,0c.88.91,1.84,2,2.89,1.34a4,4,0,0,0,.3-2.61,10.09,10.09,0,0,0-3.92-6.15c-.13-.19,1-.25.88-.39.71,1.54,3.21,3,3.81,2.41.51-.92.07-2.4-.06-3.33l.69-.3c1,1.48,1.67,3,3.06,3.87a4.23,4.23,0,0,0,1.36-3c.12-.7-.15-2.61-.08-3.27s1.29-1,1.8-1.76a4.52,4.52,0,0,0,1.16-3.26,2.3,2.3,0,0,0-2.52-1.47c.83-.87,2.19-1.94,2.62-2.91.6-1.36.75-3.41-.39-4.44-.69-.63-3.1-.06-4-.11.26-.7,1.33-2.49,1.68-3.3a3.41,3.41,0,0,0-.05-3.22c-.85-1.28-2.46-.61-3.7-.77a9.51,9.51,0,0,0,.87-2.63,5,5,0,0,0-1.36-4.42c-1.1-1.14-2.94.28-3.19.89.3-1.29.9-4,.21-4.94a2.92,2.92,0,0,0-1.93-1.08c-1.41-.23-4.16,1.59-5.15,2.82-.09-1.59-.65-1.66-2-1.05a7.7,7.7,0,0,0,1.63-4c.16-2.16-.14-4.47-2.37-3.93a12.69,12.69,0,0,0-3.24,1.74c-1.67,1.27-4.35,6.25-5.21,7.79,0-2.29,2-6.48,2.91-7.86a13.21,13.21,0,0,1,3.48-3.55c1.4-1,3.23-1.81,4-2.59L60.09,7a8.64,8.64,0,0,0-7.74.27,17.32,17.32,0,0,0-6.71,6.84A45.25,45.25,0,0,0,47.9,6.8C48.07,6.09,48.09,5.53,47.73,5.53ZM47.08,6.8l-3.2,9.25C42.26,19.39,40,28.37,40.36,36.18c.1.82-.21.83-.21.1a63.25,63.25,0,0,1,.78-14.82C41.89,16.93,43,10.15,47.08,6.8Zm10,.29a4,4,0,0,1,1.47.2c-.34.85-3.86,3-5.35,4a17.76,17.76,0,0,0-3.89,3.77,17.8,17.8,0,0,0-2.72,6.05,21.22,21.22,0,0,0-.42,5.16c-.27,6.2,1.16,14.91,2.44,21.22a6.25,6.25,0,0,0-3.18,3.08l1,.65c1-2.26,3.8-3.56,6.83-3.9,2.63-.29,5.6-.13,7,.94a17.67,17.67,0,0,1,3.3,3.22A24.6,24.6,0,0,1,65.46,56,4,4,0,0,1,66,58.07c-.7.25-1.51-.46-2-1.24a25.24,25.24,0,0,0-1.2-2.4A10.31,10.31,0,0,0,59.63,51a11.54,11.54,0,0,0-7-1.65,10.46,10.46,0,0,0-6,2l.63.54c.94-.79,3.33-1.39,5.65-1.52a10.68,10.68,0,0,1,6.25,1.67,9.16,9.16,0,0,1,1.71,1.45,15.75,15.75,0,0,1-7.31-.42l-.05,0a11.07,11.07,0,0,0-5.79-.68l.75.74c.33.48,1,1.82,1.69,3.28,1,2,2.18,4.27,2.22,5.79a34,34,0,0,1-.77,5.16c-.24,1.35-.44,2.28-.58,3.08A20.83,20.83,0,0,0,50.93,73a4.16,4.16,0,0,1-.62,1.76c-1,.25-.94-.57-1.35-.43-.53.36-.76,1.46-2.3,1.38-.87.9-.2,1.4-.58,1.77-.78.75-2.62,1.65-3.45,1.31a14.78,14.78,0,0,1-2.14-2.25c-.6-.75-1.28-1.45-1.28-1.45-.32-.31-.65-.54-1.16,0A5.5,5.5,0,0,1,36,76.76c-1.26.08-2,.72-3.7-.27-1-.55-1.81-1.9-2.74-2.46-.53-.31-1-.06-1.72-.38-1.09-.46-1-1.87-1.43-2.82a10.48,10.48,0,0,0-1.63-3A42.36,42.36,0,0,0,19,62.42,10.84,10.84,0,0,1,17,58.92c-.66-2.19-1.51-4-3.54-5l.6,2.68c-1.91-1.78-2.27-5.72-2.06-7.81l-1.48,1a22.49,22.49,0,0,1,.59-5c.58-1.56,2.32-2.82,4.31-5.59s4-6.08,5.71-7.19,2.44-1,3.22-1.58a9.41,9.41,0,0,0,2-2.13,7.71,7.71,0,0,0,1.41-3.41,3,3,0,0,0,1.63-.79A9.33,9.33,0,0,0,31,17.6c1.69,4.74,4,11.14,5.85,15.62.53,1.24.24,3.16.27,4.43a27.15,27.15,0,0,0,.33,4.84C38,44.43,39.1,45.61,40.27,47a9.38,9.38,0,0,0,4,2.84A45.59,45.59,0,0,1,42,43.45,15.26,15.26,0,0,1,41.2,40c-.26-7.59,0-15.64,3.52-23,2.25-3.65,5.5-7.14,8.48-8.82A9.45,9.45,0,0,1,57.11,7.09Zm-1.93,8.72A2.57,2.57,0,0,1,56,16c1.5.51.87,3.39.28,4.77a32.41,32.41,0,0,1-1.92,3.64c-1.56,2.76-2.87,8.65-2.45,14.71a29.82,29.82,0,0,1-.81,7.53c-.39.1-.78.22-1.16.35-1.32-6.57-2.82-15.62-2.12-19.71.72-4.26,1.42-5.25,3.5-8.43C51.77,18.17,53.26,15.85,55.18,15.81Zm9,7.46c.75,1.52.51,2.25,0,3.65L54.93,46c-1,.24-2,.24-2.89.39a32.69,32.69,0,0,0,.8-7.51c-.11-2.52,0,0,0,0s.44,5.52,0,0a27.73,27.73,0,0,1,3.57-16.24,1.12,1.12,0,0,1,1,.24c.45.37-2.75,5.83-2.75,5.83,1.62-1.82,4.78-5.69,6.54-6S63.88,22.72,64.15,23.27Zm2.95,4.27a2.58,2.58,0,0,1,1.21,2.57,16.92,16.92,0,0,1-.64,2.37L60.26,44.59a25.8,25.8,0,0,0-3.8,1.15c-.05,0,8.49-18.49,8.49-18.49A4.12,4.12,0,0,1,67.1,27.54Zm1.12,5.74a3.2,3.2,0,0,1,2.66,1.21,3.51,3.51,0,0,1,.34,2.58c-.63,1.47-.91,1.85-1.53,3.17l-4,4.71a10,10,0,0,0-4.33-.49Zm4.18,7.9a2.7,2.7,0,0,1,1.39,1.9c.13.68-.88,2.84-1.85,3.81a14.76,14.76,0,0,1-2.28,1.8,12.92,12.92,0,0,0-3.2-3.33L70.35,41A7.3,7.3,0,0,1,72.4,41.18Zm-9.69,4.38a6.46,6.46,0,0,1,2.74.53,12.66,12.66,0,0,1,3.83,4,25.26,25.26,0,0,1,1.34,2.32c.8,1.49.23,4.09-.18,4.77-1.27-1.33-1.59-3.14-2.27-4.69a8.45,8.45,0,0,0-2.38-3.65,10.45,10.45,0,0,0-5-1.36,8.73,8.73,0,0,0-3.3-1.18c.6-.17,1.25-.34,2-.47A16.88,16.88,0,0,1,62.71,45.56Zm9.68,2.08a4.56,4.56,0,0,1,1,.74c.69.64.11,2.23-.42,3a8.32,8.32,0,0,1-1.06,1.12,9.3,9.3,0,0,1-1.06-2.87C70.83,48.86,71.73,48.37,72.39,47.64ZM62.11,48.7a6,6,0,0,1,4.19,2.36c-.33.22-1,.68-1.29.84C64.37,50.55,63.14,49.71,62.11,48.7Zm4.44,3.16A8.39,8.39,0,0,1,67.61,55l-.86.39c-.2-.45-.73-1.61-1.35-2.76C65.71,52.44,66.23,52.08,66.55,51.86ZM49.44,53.11a12.75,12.75,0,0,1,3.72.77,7.27,7.27,0,0,1,3.11,2.84,11,11,0,0,1,3.2-.09,6,6,0,0,1,2.17,1.1l1.14,1c.67.56,3.19,4,2.3,5.86-.37.73-2.44-1.56-3.24-2.54a9.72,9.72,0,0,0-3.27-1.93A11.4,11.4,0,0,1,54,57.62a17.37,17.37,0,0,0-2.8-3C50.57,54,49.92,53.5,49.44,53.11Zm12,1.15c.52.84,1,1.71,1.57,2.56l-1,.36-.65-.65a3.13,3.13,0,0,0-1.71-.74,6.67,6.67,0,0,0-3,0,7.64,7.64,0,0,0-.94-1.21A13.45,13.45,0,0,0,61.44,54.26Zm-12.09-.43L51,55.37A10.83,10.83,0,0,1,53.8,59a13.53,13.53,0,0,1,.1,5.51c-.12.84-.25,1.58-.38,2.18-.45,1.63-.6,3-1.7,4.19-.15.45-.16,0-.16-.49,0-.19.25-1.22.53-2.84A30.36,30.36,0,0,0,53,62.3c-.05-1.83-1.09-4.23-2.11-6.23C50.63,55.64,49.56,54.22,49.35,53.83ZM54.8,59.4a5.53,5.53,0,0,1,2.57,1.79,20.37,20.37,0,0,1-.33,3.4,10.61,10.61,0,0,1-2.55,3.81c-.05.07-.2-.21-.36-.56a31.22,31.22,0,0,0,.61-3.26A15.84,15.84,0,0,0,54.8,59.4Z"/><path id="path4328" class="cls-14" d="M39.61,47.22c-.5,0-.64,1.13-.94,1.4s-.77-.35-.29,1.65,1.84,6,2.48,9.74a32.82,32.82,0,0,1,.33,3.74,6,6,0,0,0,.72,3.06l.77,1.1c.16-.52.72-2.69.88-3A24.23,24.23,0,0,0,44,70.73,3.87,3.87,0,0,0,44.59,72a4,4,0,0,1,.95-2.06,24.5,24.5,0,0,0,.32,5.4,29.08,29.08,0,0,1,1.88-5c.76,2.09.18,4.22.28,6.56a7.16,7.16,0,0,0,1.44-1.89c.86-1.56,1.81-2.91,1.83-4.77l-.95-5.91c1,.57,1.13,2.6,2.1,3.95-.24-1.81.44-3.81-.8-5.67,1.38-.21,1.15,2.07,1.94,2.85l-1-6.51a10.78,10.78,0,0,0-3.9-6.74,37.88,37.88,0,0,0-7.48-4.5A3.75,3.75,0,0,0,39.61,47.22Zm1.68,1.31c1.46.63,3.92,2.71,6.37,4.82,2.8,2.4,3.26,5.17,4,8.17l-1.63-.18c.78,1.47,1.47,2,1.64,3.87a15.26,15.26,0,0,0-2.88-3.92l1.07,7.1a19.62,19.62,0,0,1-1.12,6c.53-2,.07-4.86-.33-6.86l-1,1.32c-.45.56-1,3.35-1.24,3.76-.22-1.1.29-4.8,0-4.94s-1.35,2.09-1.35,2.09c-.13-1.38-.45-3.51-.44-5.18a23.85,23.85,0,0,1,.23-2.8l-1.35,1.84a10,10,0,0,0-.65,1.68c-.32-1.45-.11-4.15-.35-5.5-.66-3.87-3-8.45-3.16-10.07S39.83,47.9,41.29,48.53Z"/><path id="path5027" class="cls-15" d="M32.65,74.89c-1.57,3.48-2.57,6.62-2.26,9L28,84.93a2.92,2.92,0,0,0-3.32.78,4.49,4.49,0,0,0-3.75.63L20.49,89l3.11-.85,4.74-.35c-.79,1.52-1.77,3.12-.92,4.1a7.15,7.15,0,0,0,1.84-2.33c1.35-.13,2.63-.68,3.6-3l2,3.47,1-2.9-1.34-3.11c1.8-.25,3.29-.81,4-2.19a5.45,5.45,0,0,1-3.68-.43c-.51-2.31.53-4.62,1.49-6.93C35.06,73.69,34.18,73.05,32.65,74.89Z"/><path id="path5033" class="cls-16" d="M23.74,16.62,17.34,16l.14,1a6.51,6.51,0,0,0,3.36,1.8l3.43-.18a3.92,3.92,0,0,0,2.05-1.55c.14-2.12-.63-2.42-1.09-3.33a11.53,11.53,0,0,0-3.29-2.54l-3.82.39-.85.42c1.1,1.23,2.32,1.28,3.5,1.73a7.87,7.87,0,0,1,3.36,1.52C24.69,16,25,16.67,23.74,16.62Z"/><path id="path6618" class="cls-17" d="M22.3,11.36l-3.5.1c-.84.21-1.71.4-1.25,1l3.8,1.35c1.06.47,2.23.66,3,1.75L24,16.71l-6.3-.85c-.68.31-.48.75-.25,1.2a8.09,8.09,0,0,0,3.15,1.8l3.45-.3c.61-.2,1.21-.08,1.95-1l.15-2.25a5,5,0,0,0-2.2-2.7Z"/><path id="path4336" class="cls-18" d="M31.36,3.41l-1.44.9a9.14,9.14,0,0,0-2.45,2.84A8.62,8.62,0,0,1,27.28,4L21.85,8.09A4.4,4.4,0,0,0,20.5,9.78a1.76,1.76,0,0,0,0,1.35c.2.45,1.35.65,1.86.94a7.78,7.78,0,0,1,2.05,1.44c1,1,1.89,2.64,1.31,3.72s-3.34,1.09-4.66,1.2c-1.14.09-1.45.36-2,1.39s-.26,2.07-1.14,3.65-2.13,2.25-2.15,3.14A3.26,3.26,0,0,0,17.05,29a3.14,3.14,0,0,0,2.21.92c.46-.06.94-.43,1.15-.32.57.28,1.09.42,1.22.28s-.48-1.06-1-1.36a1.86,1.86,0,0,0-1.57-.18c-.3,0-.51.06-1.13-.44a1.46,1.46,0,0,1-.5-.84c-.09-.37.5-1,1.45-2.72a29.13,29.13,0,0,0,1.48-3.85c.41-.81.64-1,1.33-1.09.35,0,1,0,1.4,0-.57-.05-3,6.25-2.43,6.79s2.67.13,3.59-1.85c.65-1.39,0-4.16-.19-5.12a4.37,4.37,0,0,0,2.6-2,2.39,2.39,0,0,0,1.66.72c.79-.06,1.54-.86,1.5-1.16a2.39,2.39,0,0,0-1.22-1.65,2.2,2.2,0,0,0-2.06.34,5.66,5.66,0,0,0-1.25-2.28c-1-1.07-2.7-1.57-3.07-2.68-.09-.29.51-.84,1.09-1.25L26.41,7a7.38,7.38,0,0,0,1,2.69C28,8.84,28.76,8,29.26,7.29a9.65,9.65,0,0,0,.14,2.05l.71,1.26,1.26-1.52c1.1-1,2.76-2.29,2.76-2.29a20.88,20.88,0,0,0-1.92,3.34l.16,1.16c1.2-1.1,2.33-2,3.78-2.09-1.1,1.25-3.69,3.18-3,3.53l1.18.23a16.37,16.37,0,0,1,4.31.09A10.51,10.51,0,0,0,35,15.43c1.1.23,3.56.21,3.39.63s-2.47,1.11-2.79,2.06l1.89,1.17a1,1,0,0,1,.06,1.48c-.92.62-1.6.94-2.55.45-.38-.2-1.83-1.13-1.91-.69s1.32,1.56,2.42,1.85a2.87,2.87,0,0,0,3.19-.77c.64-.88.86-2.39.24-2.72l-1.85-1c1-.52,2.24-1.17,3.32-1.67l-.93-.88c-.62-.71-2.81-.3-2.9-.53s2.14-.88,3.21-1.11l1.77-.37L40,12.4A8.87,8.87,0,0,0,35,11.56a16.61,16.61,0,0,1,2-2.39l1.62-1.58A4.81,4.81,0,0,0,36.43,8a23.41,23.41,0,0,0-2.23.75,10.44,10.44,0,0,1,1.46-2.47l1-1.33L35,5.1a5.79,5.79,0,0,0-3.11,1.52c-.45.39-.83.73-1.23,1.11A11.13,11.13,0,0,1,31,5.06Z"/><path id="path4340" class="cls-19" d="M21,11.28a5.67,5.67,0,0,0-4.05.63c-.32.26.47,1.09,1.7,1.62,1.69.72,2.47.72,4.2,1.45.42.18,1.12.46,1,.88s-1.3,0-2.06-.11A8.68,8.68,0,0,0,18,15.48c-1.25.12-1.36,1-.78,1.76a6.2,6.2,0,0,0,1.93,1.51,1.78,1.78,0,0,0,1.51-.22c.09-.16-.86-.39-1.2-.5s-1.92-.93-1.59-1.53a21.4,21.4,0,0,0,5.68.93c1.14-.14,1.36-.76,1.39-1.44,0-.46-.46-.92-.77-1.23-1.05-1.06-2.71-1.23-3.38-1.5-1.43-.58-2.05-.47-2.81-1,.6-.57,1.48-.34,2.11-.28a9.9,9.9,0,0,0,2.1.15C22.13,11.81,21.56,11.66,21,11.28Z"/><path id="path4220" class="cls-20" d="M28.85,17.23a1.24,1.24,0,1,1,0-1.77,1.24,1.24,0,0,1,0,1.77Z"/><path id="path4220-6" class="cls-21" d="M28.59,16.89a.73.73,0,0,1-1,0,.72.72,0,0,1,0-1,.74.74,0,0,1,1,0A.73.73,0,0,1,28.59,16.89Z"/><path id="path5016" class="cls-22" d="M34.32,81.72c.51.73,2.19.55,3.16.47a11.32,11.32,0,0,1-3.81,1.35A10.06,10.06,0,0,1,34.89,89a8.3,8.3,0,0,0-1.67-3.26c-.66.36-1.52.56-1.77,1.33a2.38,2.38,0,0,1-2.15,1.81c-.44,0-.63,1-1.56,2.4-.17-1.64,1-3.46,3-5.19-.44-.83-2.61,1.08-3.29,1.09-1.54.38-3.15,0-4.69.28l-1.74,1c-.25-.75.84-1.81,1.6-1.83l3-.41a1.08,1.08,0,0,1,1.64-.46H29.5c0-.72.63-1,1.25-1.25s.2-1.71.25-2.12c.34-2.92,2.54-7.75,1.82-7.84S30,80.3,29.76,83.42c-.78,0-1.12.84-2,.62s-1.73-.56-2.31,0a2.13,2.13,0,0,1-1.32.93,17.27,17.27,0,0,0-2.8.17c-1.76.63-2.06,3.7-1.09,4.47a5.92,5.92,0,0,1,2.93-.82,26.89,26.89,0,0,0,4.3-.23A5.28,5.28,0,0,0,27,93a19.58,19.58,0,0,1,2.72-3,4.21,4.21,0,0,0,2.42-1.4c.3-.42.33-.92.77-1.22a16.25,16.25,0,0,0,2,3.28,4.53,4.53,0,0,0,1.35-2.32,2.82,2.82,0,0,0-.07-2.14l-.94-1.8A4.06,4.06,0,0,0,39,81.16a4.84,4.84,0,0,1-3.69-.41,11.19,11.19,0,0,1,.45-3.06,38.38,38.38,0,0,0,1.1-3.8c-.46-.09-1.37.62-2,2.18A9.12,9.12,0,0,0,34.32,81.72Z"/><path id="path5035" class="cls-23" d="M34.52,71.6c-.77.05-1.39.9-2,1.35s-1.89.77-1.65,1.23,1.45-.1,2.14-.31,1-1.09,1.65-1.13,1.36.76,2.09.84,1.86.33,2,0S37.61,73,37,72.71C36.21,72.3,35.41,71.54,34.52,71.6Z"/><path id="path4332" class="cls-24" d="M18.75,40.43a7.68,7.68,0,0,0-.81,4.27c.85-.53,1.24-.82,1.92-1.24a5.29,5.29,0,0,0,1.49-1.35,3.84,3.84,0,0,1,1.91-1.28A23,23,0,0,1,22.08,43c-.5.66-.58,1.14-.11,1.64s1,.14,1.6,0a3,3,0,0,0,0,2.23c.35.25,1.05-.47,1.36-.44a3.48,3.48,0,0,0,.39,3.44c1.6-.51,2.19-1.4,3.06-2.71.19,1.35-.52,1.83-.82,2.69-.19.56-.49,1.91-.1,2.31s1.78-.6,2-.69a5.37,5.37,0,0,0,0,1.74c.1.42.43,1.45.68,1.42s.72-1.14.92-1.27a2.76,2.76,0,0,0,.84-1.17l.82-1.79c0,.42.37,1.73,1.08.31l.52,1.66c.32,1,.95,2.17,2,2.2a30.27,30.27,0,0,1,.4-4c.44.68,1.31,1.46,1.43,1.31.19-.59-.31-2.66-.28-3.08.37.22,1,1.17,1.48,1.48.69-.94.18-3.22,0-4.15s-.83-2-1.2-1.89.3,2.07.37,2.42.41,1.82.26,1.91a21.12,21.12,0,0,1-1.55-1.76l-.1,1.4c0,.45.32,1.58.28,1.91l-1.09-1.78-.53,2.95c0,.17,0,1.5,0,1.65-.4.17-.58-.44-.88-1.18A15.09,15.09,0,0,0,34,48.51s-.2,1.55-.64,1.55-.27-2.48-.27-2.48l-1.91,3.61c-.33.62-.82,1.38-1,1.14s.31-2.23,0-2.36-1.68,1.22-2,1,.78-1.92,1-2.56a4.31,4.31,0,0,0,.08-2.94,5,5,0,0,0-2.49,2.22c-.26.3-.88,1-1.27.67-.13-1,.54-1.89,1-2.78a4.38,4.38,0,0,0-2.2.11A16.62,16.62,0,0,1,25.19,43c-.69.39-2.4,1.65-2.54.7-.11-.74,1.14-1.47,1.51-2.08s.29-1-.1-1.27a1.72,1.72,0,0,0-1.59,0,3.21,3.21,0,0,0-1.36,1.07,5.3,5.3,0,0,1-2.19,1.59,9.15,9.15,0,0,1,.52-1.8S21.35,37,22.24,35c.58-1.36,2.28-3.94,1.64-4.12s-1.53,2.4-2.21,3.65C20.61,36.42,18.75,40.43,18.75,40.43Z"/><path id="path4239-0" class="cls-24" d="M42.81,48.6a19.74,19.74,0,0,1-4.09-6.33,21.44,21.44,0,0,1-.31-4.66,24,24,0,0,0-.62-5.89c-1.85-5.18-3.42-8.1-4.78-11.91s-1.94-4.1-2.76-4.81a4.71,4.71,0,0,0-1.85-1.07,9.81,9.81,0,0,1,2,2.22c.26.46.05,1.67.15,3a6.33,6.33,0,0,1-1.3,3.67c-.48.47-.76,1.82-2.13,1.27-.68,1-1.15,2.77-1.75,3.69a5.18,5.18,0,0,1-2,2,1.47,1.47,0,0,1-1.68-.23c-.55.83-.92,1.62,0,2.17a22.64,22.64,0,0,0,2.69-1.26,9.76,9.76,0,0,0,2.17-2.1A7.31,7.31,0,0,0,27.91,25a3.37,3.37,0,0,0,1.77-.8,8.39,8.39,0,0,0,1.5-6.2c1.69,4.74,3.8,10.71,5.68,15.19.52,1.25.24,3.16.27,4.43a27.08,27.08,0,0,0,.33,4.84c.47,1.94,1.62,3.12,2.79,4.53a9.25,9.25,0,0,0,4,2.84Z"/></g></svg>