<?xml version="1.0" encoding="iso-8859-1"?>
<!-- Generator: Adobe Illustrator 18.0.0, SVG Export Plug-In . SVG Version: 6.00 Build 0)  -->
<!DOCTYPE svg PUBLIC "-//W3C//DTD SVG 1.1//EN" "http://www.w3.org/Graphics/SVG/1.1/DTD/svg11.dtd">
<svg version="1.1" id="Capa_1" xmlns="http://www.w3.org/2000/svg" xmlns:xlink="http://www.w3.org/1999/xlink" x="0px" y="0px"
	 viewBox="0 0 392.62 392.62" style="enable-background:new 0 0 392.62 392.62;" xml:space="preserve">
<g>
	<path d="M310.724,0.929H81.896C36.738,0.929,0,37.667,0,82.825v226.97c0,45.157,36.738,81.896,81.896,81.896h228.828
		c45.158,0,81.896-36.738,81.896-81.896V82.825C392.62,37.667,355.881,0.929,310.724,0.929z M362.62,309.795
		c0,28.615-23.28,51.896-51.896,51.896H81.896C53.28,361.69,30,338.41,30,309.795V82.825c0-28.616,23.28-51.896,51.896-51.896
		h228.828c28.616,0,51.896,23.28,51.896,51.896V309.795z"/>
	<path d="M300.406,107.317H92.213c-5.523,0-10,4.477-10,10s4.477,10,10,10h208.192c5.523,0,10-4.477,10-10
		S305.929,107.317,300.406,107.317z"/>
	<path d="M92.213,166.278h141.222c5.523,0,10-4.477,10-10s-4.477-10-10-10H92.213c-5.523,0-10,4.477-10,10
		S86.69,166.278,92.213,166.278z"/>
	<path d="M300.406,187.381H92.213c-5.523,0-10,4.477-10,10s4.477,10,10,10h208.192c5.523,0,10-4.477,10-10
		S305.929,187.381,300.406,187.381z"/>
	<path d="M92.213,246.342h141.222c5.523,0,10-4.477,10-10s-4.477-10-10-10H92.213c-5.523,0-10,4.477-10,10
		S86.69,246.342,92.213,246.342z"/>
	<path d="M300.406,265.303H92.213c-5.523,0-10,4.477-10,10s4.477,10,10,10h208.192c5.523,0,10-4.477,10-10
		S305.929,265.303,300.406,265.303z"/>
</g>
<g>
</g>
<g>
</g>
<g>
</g>
<g>
</g>
<g>
</g>
<g>
</g>
<g>
</g>
<g>
</g>
<g>
</g>
<g>
</g>
<g>
</g>
<g>
</g>
<g>
</g>
<g>
</g>
<g>
</g>
</svg>
