<svg id="svg1" xmlns="http://www.w3.org/2000/svg" xmlns:xlink="http://www.w3.org/1999/xlink" viewBox="0 0 377.51 399.41"><defs><style>.cls-1,.cls-2{fill:none;stroke-linecap:round;}.cls-1,.cls-2,.cls-3,.cls-4,.cls-5,.cls-6{stroke:#000;}.cls-1{stroke-width:7.15px;}.cls-2{stroke-width:7.14px;}.cls-3{fill:#820000;fill-opacity:0.75;}.cls-4,.cls-5,.cls-6,.cls-7{stroke-width:1.73px;}.cls-4{fill:url(#linear-gradient);}.cls-5{fill:url(#linear-gradient-2);}.cls-6{fill:url(#linear-gradient-3);}.cls-7{fill:#cecece;fill-opacity:0.58;stroke:#9f9f9f;}</style><linearGradient id="linear-gradient" x1="673.71" y1="-85.59" x2="380.4" y2="29.4" gradientTransform="matrix(0.78, 0, 0, -1.29, -220.13, 220.89)" gradientUnits="userSpaceOnUse"><stop offset="0"/><stop offset="1" stop-color="#b3b3b3"/></linearGradient><linearGradient id="linear-gradient-2" x1="477.18" y1="-88.78" x2="330.25" y2="-0.65" gradientTransform="matrix(0.96, 0, 0, -1.04, -200.39, 98.86)" xlink:href="#linear-gradient"/><linearGradient id="linear-gradient-3" x1="397.68" y1="-76.26" x2="304.31" y2="-4.37" gradientTransform="matrix(1.07, 0, 0, -0.94, -188.81, 46.71)" xlink:href="#linear-gradient"/></defs><title>fly 05</title><path id="path2258" class="cls-1" d="M227.74,158.48c24.14,8.11,51.34,10.76,71.4,27.91,16.83,11.88,29.77,30.06,50.23,36.16,8.79,4,17.51,8.51,24.56,15.21"/><path id="path2173" class="cls-2" d="M223.9,149.77c27.44-20.09,22.77-56,28.5-84.92C261.06,42.07,273.49,15,296,3.57"/><path id="path2174" class="cls-1" d="M149.92,143.49C143.2,115.7,116.56,98.83,107.74,72c-3.1-6.94-1.87-14.83-4.65-21.73-4.37-10.24-11-19.34-17.7-28.14-4.87-4.79-11.34-8-14.86-14.11"/><path id="path2175" class="cls-1" d="M149.78,157c-24.15,8.11-51.35,10.76-71.4,27.92C61.55,196.76,48.6,214.94,28.15,221c-8.79,4-17.52,8.52-24.57,15.21"/><path id="path2171" class="cls-3" d="M183.21,74.58c0,8.53-6.45,15.44-14.41,15.44s-14.42-6.91-14.42-15.44,6.46-15.45,14.42-15.45S183.21,66.05,183.21,74.58Z"/><path id="path2177" class="cls-1" d="M158,174.48c-7.58,12.65-24,11.79-36.23,16.52-7.72,2.69-12.91,9.26-19.66,13.56-14.35,11.15-27.47,25.7-31.49,43.91-6.81,17.29-17.4,33-29.7,46.84-4,3.53-8.65,6.43-11.62,10.95"/><path id="path920" class="cls-4" d="M236.26,232.13c0,40.92-21,108.11-49.42,108.11S141.54,272,141.54,231.1s19-49.42,47.36-49.42,47.36,9.53,47.36,50.45Z"/><path id="path2178" class="cls-1" d="M217.72,178.59c26.16,7.15,45.57,27.27,64.78,45.18,16.22,17.39,20,43.07,38.07,59.11,12,11.89,26.63,21.74,35.11,36.76"/><path id="path922" class="cls-5" d="M232.14,154.91c0,15.35-17.77,38.1-42.21,38.1s-46.33-22.75-46.33-38.1,19.76-58.33,44.2-58.33,44.34,43,44.34,58.33Z"/><path id="path2172" class="cls-3" d="M225.39,75.77c0,8.53-6.45,15.44-14.41,15.44s-14.42-6.91-14.42-15.44S203,60.32,211,60.32,225.39,67.24,225.39,75.77Z"/><path id="path1547" class="cls-6" d="M210.74,69.46c8.81,17.57,23.92,35.15,11.95,40.37-17.85,7.79-45.55,6.28-59.31.81-26.69-5.46-4.82-22.91,4.11-40.15,8.35-16.1,11.92-29.75,22.09-17.8C200.17,43.87,202.07,52.18,210.74,69.46Z"/><path id="path2231" class="cls-7" d="M288,255.81c22.65,44.58,25.42,124.79-1.43,138.43s-73.22-44.42-95.87-89c-11.32-22.3-27.46-53.5-26.08-72.59s20.27-26.08,33.7-32.9,18.86-57.49,35.09-47.35S276.67,233.51,288,255.81Z"/><path id="path2233" class="cls-7" d="M84.57,257.87C61.92,302.45,59.15,382.66,86,396.3s73.21-44.42,95.88-89C193.2,285,209.33,253.8,208,234.71s-20.28-26.08-33.7-32.9-18.86-57.5-35.09-47.35S95.9,235.57,84.58,257.87Z"/></svg>