<svg id="svg4238" xmlns="http://www.w3.org/2000/svg" viewBox="0 0 371.25 260.63"><title>fly 01</title><path id="path4248" d="M100.22,259.45c0-.64,0-2.51.06-4.15.14-2.61-.16-3-2.48-3.28-4-.46-4.12-4-.16-6,1.69-.87,7.83-6.46,13.65-12.42,8.88-9.09,10.58-11.3,10.58-13.74a42.17,42.17,0,0,1,1.31-8,99.44,99.44,0,0,0,1.95-10.28c.36-2.83,1-6.63,1.48-8.43s1.27-6.45,1.81-10.32c1.53-11,3.59-15.8,8-18.55a70.92,70.92,0,0,0,6.39-4.55c1.46-1.21,7-4.39,12.42-7.06s9.78-5.16,9.78-5.52-.84-.88-1.86-1.15c-2.75-.72-4.06-4.91-2.76-8.83.58-1.77.84-3.43.58-3.69s-2.52,1-5,2.83c-5.45,4-15,9.43-18.18,10.43s-6.61,4.93-7.66,8.86c-.5,1.83-2.72,7.76-5,13.17S120.59,180,120,181.7a15.3,15.3,0,0,1-4.54,5.62,102.58,102.58,0,0,0-8,7c-2.52,2.45-5.26,4.45-6.09,4.46-2.2,0-9.25,7.55-9.63,10.3-.47,3.39-4.54,3.93-4.54.6,0-1.85-.54-2.41-2.51-2.64-3.85-.46-3.63-2.34.52-4.46a15.88,15.88,0,0,0,4.52-3.12,12.49,12.49,0,0,1,3.09-2.73,63,63,0,0,0,6.41-5.37c2.23-2.11,4.45-3.84,4.92-3.84a23.24,23.24,0,0,0,5.16-2.67c3.68-2.29,4.59-3.52,6.46-8.67a282.69,282.69,0,0,1,11.14-26.08c2.1-4,8.38-9.74,12.08-11,.91-.31,1.65-.93,1.65-1.39,0-1.18-1-.93-4.22,1.06-17.94,11.18-30.25,11.39-58.93,1-35.07-12.7-51.84-23.93-68.11-45.62-9.91-13.22-11-17.7-6-24.88,2.72-3.92,6.05-5.13,17.49-6.39,13.25-1.45,38.52,1.78,50.41,6.46,2.32.91,9,3.23,14.9,5.17a174,174,0,0,1,19.17,7.73c4.66,2.32,10,4.75,11.81,5.4s5.24,2.06,7.56,3.14c4.74,2.21,20.76,7.66,22.49,7.66a16.23,16.23,0,0,1,4.31,1.51c2,.93,3.82,1.22,4.83.76a10.86,10.86,0,0,1,3.44-.81c3-.09,2.73-2.18-.34-2.86-1.57-.34-2.86-1-2.86-1.49,0-.93,1.05-1.14,4.69-.94,2.24.13,2.27.07.57-1.27a17,17,0,0,1-3.5-5.25c-1.33-3-2.6-4.2-5.49-5.33-2.07-.82-3.77-1.92-3.77-2.45s-1.84-4.79-4.09-9.46c-5.22-10.86-7.16-15.94-7.16-18.78a4.8,4.8,0,0,0-1.7-3.5,7.42,7.42,0,0,1-2.3-2.83c-.7-1.87-9.12-6.36-11.93-6.36-2.43,0-3.47-2.5-2-4.83a6,6,0,0,0,.53-4c-.66-2.63.25-6.15,1.58-6.15.5,0,2.47,1.63,4.39,3.63s6.22,6.1,9.57,9.12c7.91,7.11,9.07,9,11.71,19.12.88,3.35,2.78,9.26,4.22,13.13,2.24,6,3.17,7.34,6.24,9.12,4.19,2.43,5.41,2.64,4.71.81s.29-2.51,2.38-1.39c2.57,1.37,2.72.85,1.13-3.76-2.37-6.88-.19-10.41,7.9-12.8,2.92-.86,5.64-1.63,6.05-1.71s-2.33-2.46-6.09-5.29c-9.79-7.35-10.59-8.86-4.27-8,2.19.31,5.83.7,8.08.88s4.49.9,5,1.61c.61.89.76.27.47-2-.6-4.6-3.27-23.58-4.41-31.31-.8-5.39-.71-6.83.49-8.67,1.36-2.08,4.15-3.06,4.28-1.51,0,.39.6,5.13,1.25,10.55l1.19,9.84.66-6.09a49.5,49.5,0,0,0-.21-11.22c-1-5.71-.69-7.12,1.51-8,3-1.15,3.73,1.41,3.14,10.74-.31,4.9-.36,14.39-.1,21.09l.47,12.19,1.27-15c.71-8.25,1.44-16.67,1.63-18.7s1-4.35,1.78-5.13c1.27-1.27,1.62-1.23,3.27.43s1.8,2.44.88,13.08c-.54,6.17-1.57,14.34-2.3,18.15-1.85,9.64-1.16,10.73,6.18,9.9,4.71-.53,5.57-.4,5.57.85,0,1.75-4,6.27-5.5,6.27a1.27,1.27,0,0,0-1.06,1.4c0,.78-.84,1.41-1.88,1.41s-1.87.42-1.87.94,1.91.93,4.25.93c9,0,13.95,4.6,13.38,12.48-.19,2.61.18,4.34,1.12,5.16s1.12,1.35.23,1.72c-1.61.67-1.48,2.21.19,2.21,5.36,0,9.58-6.81,12.21-19.69.89-4.39,2.32-9,3.17-10.34s5.34-5.87,10-10.15,9.37-8.69,10.52-9.78c1.72-1.64,2.55-1.83,4.69-1.08,4.37,1.53,3.83,8.85-.65,8.85-.89,0-3.08,1.37-4.87,3s-5.24,4.77-7.67,6.86c-3.55,3.06-4.88,5.1-6.72,10.31a50.17,50.17,0,0,0-2.31,7.94c-.05,3.09-6.47,14.68-9.72,17.53-1.89,1.66-3.43,3.84-3.43,4.86a3.16,3.16,0,0,1-.94,2.43c-1.58,1-1,2.34.94,2.34,2.28,0,2.48,1.7.31,2.54-1.43.54-1.42.66.14,1.2s1.55.76.31,1.92-1.25,4.65.18,4.65c.91,0,21.59-7.36,31.41-11.18,4.12-1.61,9.61-3.51,12.18-4.23s12.92-4.13,23-7.59c36.57-12.57,49.7-15.19,63.32-12.61,5.66,1.06,6.88,1.7,10.55,5.47,2.28,2.35,4.46,5.13,4.85,6.17,1.07,2.91-.69,7.83-4.83,13.42-4.88,6.62-19.64,21.15-25.61,25.22-12.84,8.75-15.45,10.4-21.09,13.3a159.68,159.68,0,0,1-35,12.82l-11.14,2.58-10.72-1.54c-11.91-1.7-14.29-2.64-19-7.53-2.2-2.29-4.07-3.36-5.86-3.36-3.71,0-3.26,1.38,1.27,3.91,2.48,1.4,5.71,4.72,8.94,9.22,5.51,7.66,13.41,23,13.41,26,0,2.22,21.05,24,24.14,25,3.37,1.07,3.56,4,.46,7.17-1.54,1.58-3.32,2.58-4.06,2.28s-2.87-2.94-4.76-5.88c-5.11-8-14.57-18.69-17-19.3-1.68-.42-2.76-2.32-5.24-9.23-1.72-4.79-3.68-9.34-4.36-10.12a46.61,46.61,0,0,1-3.9-7c-4.12-8.72-4-8.59-15.18-16a56.2,56.2,0,0,0-7.27-4.2c-1.94-.73-2.21-.56-2.21,1.42,0,2.58-2.07,5-5.42,6.23-2.17.83-1.7,1.29,7.88,7.69a142.66,142.66,0,0,1,15.55,11.93l5.35,5.13,1.48,10.31c.81,5.67,1.68,10.9,1.93,11.61s.69,7.47,1,15l.52,13.7,3.5,3.75c1.92,2.07,4.73,5.42,6.25,7.45,2.83,3.8,3.68,5.22,8.17,13.55a37,37,0,0,0,4.46,6.69,7.59,7.59,0,0,1,1.84,4.66c0,2.47-.33,2.81-2.7,2.81a36.48,36.48,0,0,0-5.39.49c-4.42.82-5.46-.58-5.21-7,.18-4.56-.06-5.68-1.21-5.68a1.59,1.59,0,0,1-1.46-1.64,7.24,7.24,0,0,0-1.4-3.46,6.62,6.62,0,0,1-1.38-3c0-.64-1.22-2.5-2.72-4.14a15,15,0,0,1-3.25-5.67c-.35-1.75-1.87-3.62-4.28-5.29L241,220.78l-.09-9.84c-.25-26.71-.67-34.66-1.91-36.16S227.31,165,226.62,165c-.22,0-.41,4.11-.42,9.14,0,15.67-4.83,26.73-20.47,47.15-4,5.25-12.2,12.77-16.17,14.87-1.9,1-2.56.8-5.62-1.79-6.53-5.52-7.8-6.86-9.26-9.75a29.77,29.77,0,0,0-2.63-4.31c-1.35-1.64-6.07-10.72-8.86-17.06-1.73-3.91-2.9-8.37-5.75-21.84a50.13,50.13,0,0,1,0-17.79c.48-2.05.7-3.89.49-4.1-.54-.54-10.65,5.26-14.66,8.42-1.88,1.48-3.83,2.69-4.34,2.69a3.11,3.11,0,0,0-1.88,1.17c-1.54,1.86-3.93,17.58-5.37,35.2-1.25,15.38-1.45,16.4-4,19.69-4.41,5.77-7.74,11-7.74,12.16,0,.61-1.18,1.71-2.61,2.45a10.62,10.62,0,0,0-3.88,3.73,5.12,5.12,0,0,1-3.72,2.65c-2.29.27-2.45.61-2.48,5.31,0,3.83-.46,5.34-1.82,6.33-2.22,1.62-5.15,1.7-5.27.13Zm87.12-46.7c3.17-1.87,4.85-1.72,4.85.42,0,.82,1,1,3,.72,2.9-.45,2.94-.5.71-1a3.28,3.28,0,0,1-2.63-2.55c-.25-1.72.33-2.06,4.45-2.63,2.61-.35,5-1.1,5.35-1.65s-.94-.78-4.45-.3a78.6,78.6,0,0,1-8.35.71c-1.8,0-2.54.21-1.64.45,5.3,1.46-3.32,5.93-11.49,6l-5.15,0,2.24,1.73c1.86,1.42,2.92,1.57,6.1.86a28.83,28.83,0,0,0,7-2.69Zm8.29-10.12a7.16,7.16,0,0,1,2-3.49c1.22-.9,1.22-1.09,0-1.56-1.92-.74-3.19.29-3.77,3a26.18,26.18,0,0,1-1.18,4c-.53,1.27-.34,1.52.83,1.07a4.78,4.78,0,0,0,2.13-3.06Zm-3.44-5.75c0-.52-1-.94-2.29-.94s-2.55.42-2.87.94.62.93,2.29.93S192.19,197.39,192.19,196.88Zm5.1-8c.05-3.77.4-4,3.72-2.73s.64-1.28-3.5-3.29c-5.13-2.48-7.12-2.45-12.09.16-3.44,1.8-3.71,2.15-1.9,2.41s2.1.9,2.1,3.36c0,1.68.3,3.35.67,3.72s3,.54,5.8.39l5.14-.27.06-3.75Zm-4,.47c0-1.29.22-1.82.48-1.18a3.64,3.64,0,0,1,0,2.35C193.49,191.19,193.27,190.66,193.27,189.38Zm-4.76-.55c.05-1.09.27-1.32.57-.57a1.87,1.87,0,0,1-.08,1.8C188.69,190.37,188.47,189.82,188.51,188.83Zm13.05-13.44c0-2.45-1-4.76-2-4.76-.46,0-.84,1.07-.84,2.39s-.41,2.15-.94,1.82-.94-1.92-.95-3.57c0-6.26-.64-7-5.76-6.92-3.9.06-4.95.47-6.38,2.48a13,13,0,0,0-2.05,4.74c-.26,1.86-.91,2.37-3.14,2.48-4.83.26-4.83.51,0,1.75a71.58,71.58,0,0,0,13.36,1.3c8,.08,8.67-.06,8.67-1.71Zm-16.25-1.64c-1-1-.73-4.06.31-4.06.52,0,.94,1.05.94,2.34C186.56,174.49,186.35,174.78,185.31,173.75Zm-14.69-.31a1,1,0,0,0-1-.94c-.54,0-.73.42-.41.94s.76.94,1,.94S170.62,174,170.62,173.44Zm32.27-12.76c3.68-1.41.38-2-14.66-2.61-10-.41-16.38-1-16.78-1.69-.73-1.18-3.64-.34-3.64,1.05,0,.51,1.37,1.14,3.05,1.41l8.2,1.34C185.1,161.17,200.75,161.5,202.89,160.68Zm7.58-2.24a2,2,0,0,0-1.52-.94c-.51,0-.67.42-.36.94a2.09,2.09,0,0,0,1.52.94C210.63,159.38,210.79,159,210.47,158.44Zm-14.81-11.75c.62-.19,2.06-2.16,3.19-4.38l2.05-4L197,141.84c-4.55,4.12-6.23,4-11.22-.62-2.93-2.72-3.08-2.76-2-.59a26.16,26.16,0,0,0,3.55,4.9c2.32,2.48,3.49,2.64,8.36,1.16Zm-68.36-6.05c7.48-3.5,10.51-6.12,10.51-9.08,0-1.32.56-2.18,1.41-2.18a1.61,1.61,0,0,1,1.4,1.76c0,4.77,4.36,4.43,12.4-1,5.33-3.59,6.4-4.85,8.26-9.74l1-2.54-4.48.54a64.73,64.73,0,0,0-9.17,2c-2.57.79-8.48,2.34-13.12,3.45-5.81,1.38-12,3.83-19.69,7.85-12,6.22-18.18,9.95-18.24,11s5.58,1.54,14.76,1.22C119.71,143.63,121.93,143.15,127.3,140.64Zm46.74.72c1.25-1.25,1-1.47-2.49-1.93-2.14-.29-4.17-.8-4.52-1.15s-.54-2.54-.45-4.9c.13-3.54-.05-4-1.05-3-1.62,1.75-3.28,8.83-2.64,11.28.45,1.74,1,1.91,5.13,1.52,2.54-.25,5.25-1.08,6-1.85Zm109.8.14a137.08,137.08,0,0,0,49.3-21.25c12.62-8.57,20.33-15.39,27.92-24.68,8.52-10.42,9.1-12.92,4.34-18.83-8.16-10.15-23.92-9.57-57.9,2.13C276,89.74,260.3,95.28,257.81,96.44l-2.34,1.1,2.34-.45c4.51-.85,14.55-3.59,16.16-4.4.89-.45,5.75-2.1,10.78-3.68s10-3.24,11-3.71c3.87-1.75,22.66-7.49,24.55-7.49a110.58,110.58,0,0,0,11.12-1.88c5-1,9.34-1.71,9.55-1.49.42.41-6,1.86-17.09,3.84a184.54,184.54,0,0,0-20.16,5.88c-26.11,9-39.25,13.77-39,14.07.6.6,13.14-2.71,21-5.54,17.93-6.47,20.66-7.33,30.13-9.57C327.06,80.48,338.5,79,337,80.46c-.51.5-2.62,1.11-4.69,1.35-11,1.29-38.43,9.47-38.43,11.47,0,1,11.55,4.41,21.81,6.49,5.65,1.15,6,1.1,10.53-1.24,2.57-1.34,6.47-3.55,8.66-4.9a25.36,25.36,0,0,1,7.28-3c2.62-.47,2,.07-3.24,2.68a68.12,68.12,0,0,0-12.07,8.2A105.6,105.6,0,0,1,316,109.82c-4.76,3.06-10.38,9.56-10.38,12,0,.5,1.92,1.77,4.28,2.81,5.28,2.34,4.79,4.29-.61,2.39a52.49,52.49,0,0,1-6.3-2.74c-8.08-4.47-19.35-6.6-40-7.56-10.61-.49-13.47-.35-14.91.73-2.43,1.82-1.4,3,4.38,5.22,9.33,3.52,20.78,11.11,23.87,15.82,2.31,3.52.43,3.78-2.84.39C268,133.2,250,124,242.56,123.06c-2.08-.26-3.91-1.13-4.43-2.11s-3.36-2.33-6.88-3.29c-5.61-1.52-6.15-1.52-8.39,0s-2.29,1.92-1.56,4.55c.46,1.65,2.78,4.79,5.16,7,3.57,3.27,4.78,3.87,6.83,3.38,3-.72,4.84-2.05,4.84-3.54,0-1.7,2-3.26,3.39-2.71.72.27,1.29,1.8,1.29,3.46a13.92,13.92,0,0,0,2.3,6.35c2.32,3.4,3.69,3.95,16.92,6.74,4.68,1,13.44.46,21.81-1.32Zm-68.15-.91a4,4,0,0,0,1.81-3.75c0-3.39-.37-3.42-4-.38-1.56,1.31-3.45,2.16-4.19,1.87-1.71-.65-5.18,1.17-4.46,2.34s8.54,1.14,10.82-.08ZM99.92,137.34c4.51-3,10.46-6.34,22-12.32a57.23,57.23,0,0,1,10.54-3.74c3.48-.85,6.33-1.83,6.33-2.17a6.32,6.32,0,0,0-1.18-2.24c-1.62-2.22-21.12-3.11-35-1.59-10.26,1.12-28.35,6-35.24,9.51-4,2-8.6,2.39-8,.63a3.47,3.47,0,0,1,2.19-1.67c2.38-.69,7.88-4,7.89-4.83,0-.33-2.52-2.79-5.6-5.46C53.05,104.17,46,100.3,39,99.86c-6.59-.43-9.76-1.8-10.13-4.41A2.91,2.91,0,0,0,26.73,93C24,92.43,15.09,86.59,11,82.7s-5.68-3.31-3,1.2c7.56,12.91,18.8,24.31,33.19,33.67C55.73,127,68.85,133.18,89.06,140,92.39,141.13,95.27,140.42,99.92,137.34Zm115.47-4.92c.23-.69-.42-1.17-1.56-1.17s-2,.61-2,1.48C211.88,134.45,214.8,134.2,215.39,132.42Zm-23-1.36c3-.62,5.44-1.47,5.44-1.88s-2.63-.65-5.86-.52c-6.54.27-8.31-1.15-3.11-2.5,3.59-.93,4.53-2.41,1.53-2.41s-3.22-1.79-.52-2.81c3.45-1.32,4.21-1.18,4.21.75,0,1.69,1.67,3.94,2.93,3.94.67,0,4.57-5.85,4.57-6.85,0-.3-1.47-.3-3.28,0-3.49.56-4.68-1-1.4-1.86,1-.27,1.87-1,1.87-1.54,0-2-8.83-4.52-9.88-2.81-1,1.55-2.31.92-2.31-1.09,0-1.76.46-1.93,4.46-1.64,3.47.25,4.45,0,4.45-1.09s-1.76-1.46-9.14-1.67c-5-.15-9.14,0-9.14.26a11.27,11.27,0,0,0,1.51,2.84c.83,1.27,1.26,2.94,1,3.72s0,1.41.84,1.41,1.38-1,1.38-2.81.48-2.81,1.29-2.81c1.7,0,2.54,3.29,1.18,4.65-.78.78-.7,1.27.32,1.9,1.67,1,1.39,1.29-2.79,2.58-3,.93-3.12,1.06-1.18,1.67,2.62.82,2.79,3.26.24,3.26a1.66,1.66,0,0,0-1.88,1.86c0,1.37.56,1.81,2.07,1.64s2.2.37,2.44,1.56c.3,1.42,0,1.63-1.37,1a10.22,10.22,0,0,0-3.84-.61c-1.69.09-2.11-.38-2.11-2.4,0-2.41-.06-2.44-1.38-.69-1,1.28-1.38,1.43-1.4.49a5.37,5.37,0,0,1,1.44-3c1.25-1.39,1.3-2.19.32-5.47-.81-2.68-1.67-3.83-2.88-3.83-2.19,0-2.17-.55.15-3.5s2.38-3.4-.86-4.63c-2-.74-2.83-1.76-3-3.65-.41-3.45-2.65-4.22-2.65-.9s1.57,6.11,3.31,6.11c.76,0,1.38.42,1.38.94a1,1,0,0,1-.94.94c-.52,0-.94.58-.94,1.29s-.94,1.92-2.1,2.68c-1.82,1.22-1.93,1.6-.8,3s1.41,1.46,3,0,1.75-1.38,1.75-.14a3.81,3.81,0,0,0,1.31,2.52c1,.87,1.09,1.67.27,3.85-1,2.53-.77,3,2.15,6.06s3.75,3.3,7.88,3.3a60.94,60.94,0,0,0,10.13-1.13Zm-8.15-8.25a1.73,1.73,0,0,1,.26-2c.62-.62,1.16-.57,1.61.17a1.74,1.74,0,0,1-.25,2C185.21,123.6,184.67,123.55,184.22,122.81Zm3.21-4.73c-1.71-1.06-1.07-1.54,3.12-2.32,2.18-.41,3.51-.3,3.51.29C194.06,117.44,188.93,119,187.43,118.08Zm31.43,6.37c-.94-3.11-2.14-4.07-2.84-2.25-.62,1.62,1,4.36,2.6,4.36C219.1,126.56,219.21,125.61,218.86,124.45Zm-53-1.09c.83-1,.83-1.48,0-2-1-.62-2.71,1-2.74,2.61,0,1.16,1.55.8,2.73-.62Zm43.64-6.13c1.89-3.66,1.87-7.54,0-7.54-1,0-1.3.55-.95,1.64a7.16,7.16,0,0,1-.87,4.31c-1.21,2.33-1.19,4.36,0,4.36a9,9,0,0,0,1.82-2.77Zm95.54-1.12c.78-1.1,4.31-4.16,7.85-6.79s6.55-5.19,6.67-5.68c.32-1.25-6.73-3.21-14.12-3.92-5.23-.5-7.56-.2-14.06,1.82-11.15,3.46-24.95,6.24-43.16,8.69-2.43.33-4.85,1.12-5.38,1.76-.76.92,2.84,1.3,16.85,1.82,17.47.64,28.13,2,36.55,4.59C300.86,119.83,302.81,119.32,305.05,116.11Zm-223.35.24c14.58-4.18,24.91-5,51.19-4.34,14.34.38,24.61.31,24.61-.18,0-1.32-22.36-5.1-48.75-8.25-5.93-.7-13-1.73-15.83-2.27a59.64,59.64,0,0,0-9.54-1,49.89,49.89,0,0,1-9.24-1.09c-4.25-1-5.46-.87-11.32,1.09-3.75,1.25-6.57,2.73-6.57,3.44A1.25,1.25,0,0,0,57.49,105c.69,0,2.27,1.11,3.52,2.47,3.06,3.34,12.35,10.65,13.52,10.65a67.3,67.3,0,0,0,7.17-1.77Zm69.68.53c3.25-.84,4.18-1.39,3.06-1.82-1.94-.75-13.82.26-13.82,1.17C140.62,118.45,144.44,118.68,151.38,116.88Zm91.43.34c0-1-4.65-2.38-10.78-3.29l-3.75-.55,3.75,1.5c2.06.83,4.38,1.87,5.16,2.32C239.11,118.31,242.81,118.33,242.81,117.22Zm-42.19-5.13c0-.23-.42-.68-.93-1s-.94-.13-.94.42a1,1,0,0,0,.94,1C200.2,112.5,200.62,112.31,200.62,112.09Zm39.51-2,3.15-1.46-3.16.52a41,41,0,0,1-4.92.52c-1,0-1.76.42-1.76.94C233.44,112,236.53,111.77,240.13,110.11ZM202,106.88c.33-.54-.48-.94-1.87-.94s-2.21.4-1.88.94a2.36,2.36,0,0,0,3.75,0Zm11.25,0c.32-.52.13-.94-.41-.94a1,1,0,0,0-1,.94c0,.51.18.93.41.93S213,107.39,213.28,106.88Zm50.16-1.35c5.41-.83,13-2.33,16.87-3.34s8.83-2.28,11-2.83c4.57-1.14,5.14-2.51,1.4-3.33-1.41-.31-3.15-.74-3.86-1s-6.62,1.26-13.13,3.3-15,4.61-18.86,5.72c-7.28,2.1-11.36,4.42-6.1,3.47C252.33,107.27,258,106.36,263.44,105.53Zm-113.44,1c0-.2-1.48-.54-3.28-.75s-3.28-.05-3.28.37,1.47.75,3.28.75S150,106.71,150,106.51Zm56-.2a1.9,1.9,0,0,0-1.8-.08c-.75.3-.53.53.57.57S206.31,106.62,206,106.31Zm33.52-.36c.33-.53,0-.69-.88-.37-1.62.62-1.92,1.3-.57,1.3A2,2,0,0,0,239.52,106Zm-103.11-2.3c-2.58-.68-7.64-1.74-11.25-2.36s-8-1.52-9.85-2-6-1.31-9.37-1.86a129,129,0,0,1-12.57-2.9c-6.21-1.83-6.68-1.84-11.48-.33-5.18,1.63-6.61,3.26-2.91,3.31,5.61.06,30.26,3.21,46.64,6a104.38,104.38,0,0,0,11.72,1.37l3.75,0-4.68-1.23Zm108,.78a1.88,1.88,0,0,0-1.79-.07c-.75.3-.53.52.56.57S244.75,104.75,244.43,104.43ZM189.76,102l1.54-2.11-.56,2.11c-.5,1.9-.22,2.11,2.74,2.11,1.8,0,3.5-.34,3.75-.76s0-2.59-.56-4.82c-.82-3.26-1.23-3.79-2-2.69-1.52,2-8.64,1.62-10.26-.59-1.45-2-4.36-1.41-4.36.86a1.43,1.43,0,0,1-1.41,1.44c-2.09,0-1.7-2.91.47-3.48,1-.27,1.88-1,1.88-1.69a2.16,2.16,0,0,1,1.4-1.73c1.88-.72,1.78-2.45-.23-4-1.55-1.21-1.54-1.35.18-2.68A7.75,7.75,0,0,1,186,82.43c1.91-.06,1.91-.07.05-.87-2.84-1.22-3.93-1.09-5.71.7-1.18,1.17-1.74,1.3-2,.47-.22-.64-1.77-1.17-3.45-1.17-2.65,0-3.28.49-4.72,3.67-2,4.36-1.48,7.53.52,3.37,1.75-3.67,3.8-3.94,7.06-.92l2.65,2.46-2,1.57c-1.85,1.43-4.91,8.34-4.94,11.18,0,.84,2.08,1.17,7.37,1.17C187.4,104.06,188.38,103.83,189.76,102Zm-13.51-.29c0-.8.43-1.19.95-.87a1.08,1.08,0,0,1,.42,1.46C176.81,103.55,176.25,103.31,176.25,101.66Zm18.28-1.35c.32-.51.77-.93,1-.93s.42.42.42.93a1,1,0,0,1-1,.94C194.4,101.25,194.21,100.83,194.53,100.31Zm-12.65-1c0-.55.42-.73.93-.41s.94.76.94,1-.42.41-.94.41A1,1,0,0,1,181.88,99.32Zm23.65,1a5.53,5.53,0,0,0-1.64-3.38c-1.69-1.27-1.75-2.62-.23-5.07.93-1.48.93-2.24,0-3.76s-.94-2,.24-2.44a2.24,2.24,0,0,0,1.43-1.87c0-1-.69-1.16-2.58-.71-4.06,1-4.19,1.26-2.07,4.85,1.83,3.1,1.87,3.48.47,4.5s-2.68,9.15-1.54,10.28c.27.28,1.78.38,3.35.23,2.41-.24,2.8-.64,2.59-2.63Zm-4-.44c0-.83.55-1.16,1.4-.84s1.17.92.89,1.38C203,101.73,201.56,101.39,201.56,99.87Zm8.83,1.75c1.85-.71,2-3.18.15-3.18a2.12,2.12,0,0,1-1.77-1.64c-.23-.91-.48-.06-.54,1.87C208.12,102.44,208.15,102.48,210.39,101.62Zm49.77-1.45c1.28-.56.68-.65-1.88-.26a18.25,18.25,0,0,0-5.16,1.47C251.43,102.45,257.28,101.45,260.16,100.17Zm-127.5-.82c-3.1-.93-9.85-2.63-15-3.76S99.42,90.6,88.59,87C48,73.68,40,71.82,25.62,72.37,19.78,72.59,15,72.42,15,72c0-2.86,15.66-3.5,28.26-1.16,8.15,1.52,25.15,6.45,42.05,12.2,13,4.44,31.27,9.76,31.76,9.28.21-.22-.41-.67-1.39-1s-8.52-3.45-16.77-6.9S80.53,77.17,76.41,76s-10-2.87-13.13-3.79c-13.5-4-28.14-6-39.06-5.48-6.51.34-8.79.89-12.3,3-7.73,4.53-7.23,5.57,2.87,6a241.2,241.2,0,0,1,36.77,4.54c19.94,4.11,23.3,5,30.47,8,4.18,1.77,29.12,8.54,36.34,9.86l11.94,2.19C137.46,101.56,138.56,101.14,132.66,99.35ZM64.22,96.86c15.43-4.77,17.7-5.59,18-6.48.16-.5-2.76-1.46-6.51-2.13s-8.91-1.8-11.49-2.51c-14.92-4.12-49.91-8.56-51.77-6.58-.4.43-.16,1,.53,1.23a21.28,21.28,0,0,1,4.22,3c1.63,1.4,7.81,4.77,13.74,7.48S43.83,96.8,46.41,98C51.66,100.49,52.74,100.42,64.22,96.86Zm107,1.11a4.83,4.83,0,0,0-.06-3c-.55-1.44-.73-1.45-2.1-.07-1.55,1.54-1.14,4.46.63,4.46.55,0,1.24-.64,1.53-1.41Zm42.28-1a1.9,1.9,0,0,0-1.8-.07c-.75.3-.53.52.57.57s1.54-.18,1.23-.5Zm-19.44-6a1.67,1.67,0,0,0-1.4-1.84c-1.67,0-1.68-.1-.5-3.22.8-2.09.67-2.4-1-2.4-1,0-1.65.41-1.34.91s-.11,2.2-.92,3.78c-1.81,3.49-1.47,4.16,2.25,4.41C193.48,92.7,194.06,92.37,194.06,90.9Zm8.19-13.65a1.87,1.87,0,0,0-1.8-.08c-.75.3-.53.52.57.57S202.56,77.56,202.25,77.25ZM183.5,75.37a1.9,1.9,0,0,0-1.8-.07c-.75.3-.53.52.57.56S183.81,75.68,183.5,75.37Zm5.69-1.49c.62-.62,1.12-2.94,1.12-5.16,0-3.68-.2-4-2.34-4-1.84,0-2.35.47-2.35,2.22a32.55,32.55,0,0,1-.58,5.16c-.49,2.47-.3,2.93,1.22,2.93A4.8,4.8,0,0,0,189.19,73.88Zm9.56-4.59c0-2.58-2.78-5.26-4.1-3.94-1,1-.64,6.41.52,7.57C196.79,74.54,198.75,72.55,198.75,69.29Zm10.76,3.25c2.1-2.09,1.41-4.51-1.39-4.9-1.29-.17-2,0-1.67.36s.24,1.48-.28,2.46C204.43,73.72,206.83,75.22,209.51,72.54Zm-30.65-3c.27-.81-.18-1.14-1.25-.94a2.91,2.91,0,0,0-2.09,1.59c-.27.8.18,1.14,1.25.94A2.93,2.93,0,0,0,178.86,69.52Z"/></svg>