<svg id="Layer_1" data-name="Layer 1" xmlns="http://www.w3.org/2000/svg" viewBox="0 0 800 475"><defs><style>.cls-1{fill:#999;}.cls-2{fill:#000058;}.cls-3{fill:#f2f2f2;}.cls-4{fill:#9292ff;}.cls-5{fill:#1a1a1a;}.cls-6{fill:#fff;}.cls-7{fill:#ccc;}</style></defs><title>Fly 02</title><path class="cls-1" d="M52.08,0C28.4,1.21,3.71,16.75,0,41.55V55.24a54.36,54.36,0,0,0,3.79,8.89c1.92,6.75,3.37,14.36,9.21,19a360.51,360.51,0,0,0,37.93,25c14.38,8.83,28.41,18.51,44.2,24.72,1.92.41,2.47,2.14,2.85,3.83a26.25,26.25,0,0,0-2.87,2.16c-1.08.92-2.12,1.9-3.14,2.89-4.29,2.35-9.19,4.76-11.14,9.54-3.7,13,1.63,26.23,9.89,36.21,5.93,9.73,17.46,12.27,27.13,16.7,7.33,3.59,15.53,4.75,23,8l.43.66c-2.8,5.85.82,12,5.67,15.32,10,9.8,23.52,15.05,37.17,17,7.66,1.28,15.41.21,23-1,5.26,1.33,13.76-1.65,16.89,2.54-12,6.16-23.11,14.16-32,24.36-10,11.31-21.88,20.74-32.31,31.64-4.95,5.39-12,8-17.62,12.45-2.23,1.82-.16,5,2.12,5.61,9.44,5.26,18.27,11.76,28.46,15.56,17,6.67,34.4,12.57,51.76,18.36,1.47,14.61-6.22,28.19-11.21,41.54-1.94,4.5-2.95,9.47-5.65,13.6-3.74,1.6-5-4.13-8.58-3.56-3.59.13-7.4.58-10.27-2s-5.72,1.42-8.72,1.68c-3.75-.26-6-4.87-9.81-4.71-.13,3.26,1.38,8.25-4.77,5.62-3.47-.55-5.93-5.14-9.75-3.44-.26,2.14.46,4.61-1,6.43-4.28-.23-7.65-5-12.07-3.37-.19,1.57-.09,3.16-.22,4.74-4.4-.34-11.83-6.6-13.28.61,3.08,1.76,5.75,3.7,3,7.21,4.66,1,9.47.66,14.2,1.09,3.4,2.15,4.58-1,6.37-2.69,3.41-.88,11.85,4.21,9.83-2.6,4.42,1.27,8.55,3.56,13.17,4.12a35.3,35.3,0,0,0-1.28-6.26c4.48-.35,7.89,3.37,12.25,3.29-.06-1.33-.19-2.65-.24-4,4.32,0,8.89,5.76,12,.21,6.77.07,13.38,3.14,20.2,2.37,2.79-9.49,2.26-19.91,7.28-28.73a146.29,146.29,0,0,0,11.37-29.54c.67-1.8,1.17-4.83,3.81-4.21,6.27.85,11.94,4.34,18.38,4.46,8.63.09,16.93,3,25.55,3.07-1.54,9.9-4.92,19.43-6.87,29.25-3.92,3-8.53,5-13.07,6.92-1.62-1.52-2.9-4.58-5.61-3.57-1.58,3.13-1.17,6.79-2,10.12-4.66-4.67-10.41-1.91-15.59.43-1.82,2.08.51,4.86,1.06,7.07-1.89-.69-3.75-1.65-5.78-1.75-3.06.27-1.57,6.92-5.2,4.76-2.63-1.77-4.69,2.31-3.5,4.45,2.42,3.66,4.64,7.67,8,10.62a4.17,4.17,0,0,0,4.64-2.87c-1.18-3-3.31-5.51-5-8.23,2.69,1.13,5.34,3.82,8.46,2.66.05-2.46-.1-4.84,0-7.26,3.45-.55,11,4.72,9.74-1.69,4,.47,6.2-2.48,5.44-6.28,2.29-.53,4.16,1.35,6.29,1.86,5.66,3.65,3.31-.29,3-2.25a19.73,19.73,0,0,0,7.18-5.75c2.94-3.72,10.21-2.87,11-8.18,1.14-10,5.94-19,8-28.77,3.86-2.46,9.25-.49,13.56.36-1,15.11,3.06,30.66-2.66,45.19-4.17,6.7-11.74,5.11-17.94,7.3-3.28,2.65.63,5,3.05,6-3.92,3.81-10.7,1.74-14.14,6.18,0,2,1.7,3.74,1.62,5.8-3.69,2.08-8.78.67-12.3,3.1-3.27,4.43-5.76,9.62-5.72,15.26-4,1-9.94,0-11.92,4.66.45,2.57,3.68,2.73,5.54,4-4.55,3.1-10.32,2.27-15.49,2.28.37,3.28,2.41,5.78,5.79,6.12.53,2.54-.31,5.09-.73,7.58h4.68c5.06-.75-.12-5.67.86-8.79,5.73-2.71,14,1.32,17.91-4.62-2.8-2-8.15,1.47-9.44-2.3,4.21-2.16,8.9-3,13.41-4.39-.36-2.53-5.23-2.89-3.76-5.52,4.86-2,10.92-2.18,14.66-6.24-1.23-1.42-3.72-2.27-3.94-4.22,3.6-1.18,7.35-1.86,10.94-3.11.36-6.15,9.67-4.48,11.77-9.75-2.05-.89-5.07-.37-6-2.75,1.89-3.67,6-2.54,9.33-2.9,3.09-1,1.34-5.17,3.38-7,4.48-4,10.93-7.32,12-13.84a105.15,105.15,0,0,0,.14-32.41l-.27-1h0c-.92-4.35,1.9-6.38,5.78-6.91,10.55.17,20.54-4.57,31.05-3.88.62,11.06-10.09,19.8-9.85,31,3.27,5.33,8.23,9.63,10.37,15.64-2.53,1.3-8.05,1.68-6.62,5.78,1.49,4.93,6.52-.23,9.67-.49.69,4.09-5.9,3.11-5.81,7-.37,5,6.13,1,8.86.68-.35,4.56-8.1,4.32-5.94,10,2.67-.45,5.27-1.28,8-1.67,1.55,5.46-8.55,4.37-6.55,9.47,2.84.06,5.6-.77,8.4-1.17,1.52,4.92-6.58,5.67-5.72,10.39,2.61-.39,5.16-1.09,7.76-1.57,0,4.95-10.95,3.26-8.42,9.25,3.41,1.11,6.16-2.3,9.49-2.52,2.94,5.7-6.68,6.1-4.37,10.68,5.56.84,10.47-2.78,15.22-5.12,1.18-4.42-4.12-1.62-6.72-1.95.28-3.11,1.62-6.09,1.43-9.22-.86-1-3-1.51-1.74-3.06,2.51-1.61,7.67-1.13,7.35-5.1-2.79-1.18-6-.52-8.86-.56-1.37-4,3.3-4.31,5.76-5.79.25-4.53-4.66-3.08-7.53-3.39-3.35-6.42,9.4-3.06,6.09-9.22-2.54-.77-6.56,1.25-7.7-1.85,1.68-1.35,3.58-2.42,5.24-3.81,0-5.13-7.64.59-8-3.49,2.06-3.61,8-2.86,8.94-7.12-3.57.59-7.06,1.56-10.64,2a159,159,0,0,1-7.35-15.9c-1.15-2.3.54-4.65,1.34-6.77,4.49-8.76,8.13-18.06,13.87-26.11,3.15-2.87,7.8-3.18,11.66-4.55,5-1.36,12-3.41,15.86,1.44,6.92,6.8,12.86,14.5,19.06,22,3,5.35,6.74,10.26,9.45,15.75,1.65,6.08-2.69,11.7-7.29,15.16-3.18,2.17-3,6.38-4.11,9.71-2.88,1.43-4,4.3-5,7.11-1.67,1.2-3.75,1.59-5.59,2.45.16,2.59,1.08,5,1.59,7.57-3.69,2.26-12.41,1.16-10.35,7.86,2.17,0,4.33-.28,6.5-.4.31,4.77-6.91,3.43-8.87,6.82-.87,1.78-1.34,3.77-2.45,5.44-2.33,1.54-5.66,2.69-4.67,6.16,4.43-.14,8.39-2.3,12.71-3,0,4.86-4.31,7.12-7.81,9.45,2.43,3.66,8.17,3,11.23.48,2.44-1.16,11.78.83,9.35-4.21-3.05-.94-6.3-1.2-9.39-1.86-1.64-7.09,6.85-3.52,11.18-4.6-2.27-3-6.41-3.32-9.49-5.18,2.59-4.18,10-.44,12.5-4.86-3.18-2.3-8-1-10.66-3.93,3.43-2.87,8.1-2.3,12.24-3.15.91-5.05-9.36-1.78-6.36-7.44,3.94-1.42,8.18-1.66,12.24-2.7.81-4.77-6.33-1.42-8.06-4.74,5.4-2.65,11.65-2.32,17.28-4.26,2.11-8-11.23,1.15-9.93-5.56,3.58-1.45,7.47-1.82,11.19-2.77,2.14-2.81-4.27-2.26-5.36-4.54,2.35-5.49,8-9.67,8.15-15.95-.33-10.46-8-18.47-12.85-27.14-4.27-8.19-12.2-13.3-18.34-19.88,8.5-5.31,18-9,25.93-15.22,12.66-7.26,23.11-17.66,35.27-25.59,4.36,1.93,9,4.2,12.1,7.88,1.88,5.78,1.86,12,2.91,18,.24,5.92,3.24,12.48-.1,18-6.73,13.1-12.65,26.58-19.07,39.83-2.2,5.73-4.24,11.77-4.3,18,2.07-.06,4.13-.23,6.2-.24.08,2.69-1.79,7.47,2.12,8.48,2.89-4.31,5.37-8.9,8.45-13.09,4.89-1.09-.5,6.91,4.37,5.84,2.5-3.37,4.13-7.3,6.77-10.59,4-2.28,10.18-3,12.27,2.07,2-2.17,2.32-6.45,5.44-7.3,2.61-.58,2.21,3.4,4.5,3.82,1.17-1.63,2.29-3.3,3.56-4.84,2.84.66,1.2,4.61,3.41,6.14,3-2.74,4.65-7,8-9.06,2.68-2,9.1,1.2,10.33-2.79-7.76-1.39-15.69-1.35-23.44-2.78-1.73,2.22-2.32,6.15-5.92,5.72-.53-1.73,1-5.21-1.73-5.13-5.51-1.29-3.73,8.07-8.76,7.94-2.28-.82-3.26-4-5.89-4-2.46,1.67-3.66,4.5-5.4,6.8-1.64-.9-3.11-2.12-4.82-2.87-2.09.87-4,2-6.12,2.9,3.35-10.27,7.9-20.13,11.83-30.18,7-14.12,12.68-29.38,10-45.48.47-2.46-1.57-6,.59-7.8,30.39,15.36,63.08,25.64,95.45,36,17.33,2.41,35.52.65,51.29-7.34,9-2.35,13-11.42,19.27-17.3L665,314c16.56.4,33.3-4.68,46.41-14.92,7.12-6.76,12-15.7,19.88-21.79,2.53-3.49,9.22-5.37,8.08-10.54a93.86,93.86,0,0,0,21.87-8.56c14-6.85,30.5-12.35,38.8-26.63v-7.08c-2.17-5.25-3.42-11.7-8.68-14.79-4.72-2.94-9.37-6.57-15.15-7-14.35-2.25-28.79-5.71-43.41-3.93-12.4-.11-24.59,2.3-36.84,3.73-27.16,1.78-54.19,6.44-81.49,5.43-.36-3.67-.72-7.32-1.07-11-2.43-10.36-10.38-18.33-17.58-25.69-6.73-7-17-7.39-25.84-9.66-8.27-3.68-8.79-13.3-11.84-20.63a48.76,48.76,0,0,0-22.93-22.08A46.51,46.51,0,0,0,512.72,113c-13.1-.17-26.35,4.81-35.12,14.62-6.41,5.07-8.64,13.39-14,19.32-5.47,2-11.73,1.81-16.8,4.88-12.41,4.77-21.28,14.86-28.47,25.66a123.69,123.69,0,0,1-18.85-4.89C376.36,161.7,353.35,150.5,330,140c-15.33-7.67-30.36-16-46-23-11.51-5-21.43-13-32.93-18-49.26-24.31-96.56-52.26-143.77-80.26C90.86,10,73.39,2.64,54.84,0ZM463.19,165.62a2.85,2.85,0,0,1,.25.33,2.85,2.85,0,0,0-.25-.33ZM663.07,312.94a2.2,2.2,0,0,0,.21.32,2.2,2.2,0,0,1-.21-.32Z"/><path class="cls-2" d="M399.38,227.47c-5.21,8.08-6.63,19.37-5.82,27.81-2.19-3.33,1-10-3.51-11.29-6.36,1.88-1.35,10.94-1.38,15.39.94,6.29,3.93,13.92,11.08,15,1.7-4.73,4.84-9.33,6.09-13.93-5.3-10.36-4.16-22.33-2.7-33.45-1.13.29-3.15-.64-3.76.5Zm-30.26,12.42c-4.64.76-3.29,7.74-5.58,10.75-2,5.48-3.92,12.4-6.31,16.88-.42-8.1,4.23-15.55,4.91-23.69-6.39-.13-6.81,7.52-9,11.76.64-4.47,3.05-9.41.41-13.71-6.22,9.08-8.45,20.6-9.07,31.19,3.07,10.43,2.95,22.38,10.57,31.06,2.95,3.48,5.27,9.58,10.32,9.83,3.65-1.52-1.1-5.79-1.56-8.07-1.68-3.63-5.59-10.11-5.95-12.24,4.5,4.5,6.23,12.39,13.32,13.81,0-2-1.87-6.54-1.09-6.8,4.63,4.43,8.4,11.67,15.81,11.35.22-7.19-7.84-10.3-10.93-15.28,4.51,2.28,8.27,6.3,13.52,7-1.51-5.14-6.12-8.47-8.11-13.33,4.56,3.07,8.35,7.14,13,10.11,3.73-4,0-7.1-2.86-10.31-7.1-8.13-12.8-17.83-14.1-28.65a56.18,56.18,0,0,1-3.62-20.89,16.31,16.31,0,0,0-3.65-.74ZM300.46,245c-6.3,2.82-10.43,9.38-13.74,15.25-.62,2.83,2.5,5.33.43,8.07-3.45,13.26-16,20.78-23.58,31.29-1,6.27-1.05,12.62-2.86,18.71,6.69.81,5.6-6.84,8-11.08.79-2.64,4-7.91,3.49-1.82-3.36,9.27-3.88,20.37-3.08,30.5,4.73.85,4.91-5.1,3.91-8.18-.63-3.22.17-3,.95-.32,2.33,5.52,1.5,13.23,5.32,17.55,4.52.28,3-5.67,1.94-8.14-.71-1.19-.79-5.64,1.08-2.6,2.08,3.11,3.84,7.32,8.05,7.94-.67-9.71-4.93-19.95-3.12-29.35.15,2.37,2.11,5.7,4.76,3.53,1.06-15.17,3.19-30.9,9.33-44.95,3.76-8,9.72-15.67,11.51-24.4-2.52-3-5.6,2.09-6.64,4A86.85,86.85,0,0,0,294,275.75c-1.82-10.75,7.31-19.08,9.81-28.56a3.31,3.31,0,0,0-3.37-2.17Zm29,7.16c-5,2.66-12,4.92-12.73,11.57-5.42,14.3-10.75,29.57-8.36,45.1,7.05-6.28,7.42-16.39,11.57-24.39,4.36-10.52,9.71-20.69,11.24-32.16,1.1-2.34-.79-.56-1.72-.12Zm-84.43,3c-5.32,1.66-5.23,8.92-8.2,12.85-1,2-3.72,8.06-2.42,2.48,1.25-4.73,4.28-9.22,3.58-14.32-7.86.48-12.78,8.13-18.5,12.56-11.44,10.27-24.83,21.32-35,31.44,1.27-4.43-4.05-1.23-5.44.9-2.41,3.25.17-1.48-2.66-1.43-5.38-.56-9.3,4.71-13.87,6.75-3.63,2.89-9.22,6.17-9.25,11.25,1.51,3.1,4.48-.73,5.91-1.3,4.12,1.25,8.58,7.5,13,4.43,4.77-4.84,12-12.2,19-9.07,0,5.51-8.36,5.73-7,11.36,0,3.53,4.23,2.08,5.54.19,2.39-2.72,5.47-2.21,8.3-.91,4.57.49,10.87-1.13,12.49,4.25,2.87.59,6.14-1.5,8.21,1.55,2.51,1.23,7,2.59,8.52.91,1-7.81-.41-16.81,6.34-22.45,3.58-4.73,9-8.88,11.62-13.83-3-8.81,4.38-16.67,3.82-25.47-4.87-1.21-6.27,5.36-7.91,7.62-1.21-7.25,4.39-13.15,5.48-20.05l-1,.18-.55.11ZM332.58,291c-4.94,4.16-7.72,11.58-10.47,17.73-1.64,5.8-6.18,12.64-1.51,18.08,4.6,7.13,11.93,11.78,18.57,16.8-.95-5.49-5.76-9.52-7.73-14.18,4.09,3.53,7.58,9.12,13.71,8.89-.85-4.08-4-8-5.33-11.4a19.81,19.81,0,0,0,6.93,3.5c-3.31-10.69-10.06-20.46-11.17-31.55-.67-2.55.94-7.77-3-7.87Zm-73.43,11.88c-6.16,1.94-5.6,10.34-6,15.54,4.3,2.53,6.61-3,7.19-6.32,1-2.41,3.78-9.16-1.19-9.22Z"/><path class="cls-3" d="M52.08,0C28.4,1.21,3.71,16.75,0,41.55V55.24a54.36,54.36,0,0,0,3.79,8.89c.38-2.15-.14-6.08,3-6.16,13.67,5.25,28,9,40.21,17.42-.09.37-.27,1.12-.37,1.49-8.24-.25-14.81-6.45-22.43-8.61-1.58,3.15-3.38,6.63-3,10.26,1.82,1.74,4.54,2.06,6.74,3.2,12.91,6.49,26.09,12.51,38.72,19.53a1.34,1.34,0,1,1-.51,2.62c-4.78,1.19,2.83,4.89,1.39,8-5.73-.1-11.17-2.25-16.63-3.78,14.38,8.83,28.41,18.51,44.2,24.72,1.92.41,2.47,2.14,2.85,3.83,11.81,9,26.86,12.56,40.47,18l.24,2.42c-15.69-2.29-29.55-11.29-43.58-18.26-1.08.92-2.12,1.9-3.14,2.89,5.25,3.71-2.79,7.19-4.88,10-1.51,4.69-.22,9.57,1,14.15,1.74,6.52,1.73,13.77,5.86,19.42,10.39,8.84,22.17,16.4,35.28,20.45,4.16,1.53,9.9,1.54,11.62,6.43l.43.66c5.44.34,4.13,6.95,6.34,10.39,4.22,4.77,9.92,7.78,15.41,10.83,24.37,5,49.39,6.93,74.19,4.22,2.41-1.6,4.76-3.29,7.16-4.9-7.4-1-14.78-2.21-22.19-3.19-.07-.42-.2-1.25-.27-1.66,8.47-1,17.2.15,25.44-2.65-11.73-2.95-24.61-.68-36.53-3.82.09-.45.25-1.34.34-1.79,19,1.26,38.13.19,57.08-1.8,1.4-.28,3.12-.26,4.09-1.5-9.74-1.82-19.81-2.82-29.52-.53-10.54-3.81-21.77-3.21-32.7-4.58l.08-1.85c6.66,0,13.2,1.19,19.78,2a4.42,4.42,0,0,0-3-4c-6.18-3.44-11.05-8.78-14.83-14.67-1.85-7.61,7.3-9,9.81-14.18-1.79-.82-3.75-1.57-4.77-3.38,13.12,2.48,25.78,6.93,38.63,10.5-1.3-3.24-2.72-6.52-2.74-10.1,12.64-3.73,26-3.49,39-1.78l-.72-1.61c-9.57-5-20.45-8.71-29.24-14.44,13.8-1.17,25.64,7.95,38.7,10.57a25.64,25.64,0,0,0,4.1-8.83c-7.13-4.82-15.37-7.73-22.47-12.6,0-.38-.08-1.13-.11-1.51,14.56,3.73,26.33,15.13,41.52,17.26-1.59-3.19-8.08-3.37-7-7.73-3.75-4.88-10.09-6.83-14.91-10.39-19.84-10.92-39.93-21.37-59.75-32.31-5.66-3.42-12.77-3-18.32-6.66-10.7-6.24-21.06-13.07-31.89-19.09-11.82-7.68-25-13.12-36.21-21.72,3.91-1,7.09,1.92,10.3,3.62,14.47,7.89,28,17.66,43.32,23.85-2.88-3.28-7-5-10.62-7.28,1.89-1,3.83.44,5.54,1.16a229.12,229.12,0,0,1,45.14,26.85c1.64,3.67,5.05-.23,7.67,1.43,8.38,3.67,16.74,7.47,24.46,12.33,6-.5,10.7,3.48,15.5,6.52,13.23,7.59,26.48,15.34,41.07,20,14.55,5.29,27.71,13.74,42.42,18.59,9.55,4.11,19.67,7,28.54,12.56,1.88.75,4.17,2.76,6.18,1.36,4.05-6.3,7.1-13.29,12.36-18.77,5.1-6.76,12.84-10.51,19.23-15.82-12.41,4.77-21.28,14.86-28.47,25.66a123.69,123.69,0,0,1-18.85-4.89C376.36,161.7,353.35,150.5,330,140c-15.33-7.67-30.36-16-46-23-11.51-5-21.43-13-32.93-18-49.26-24.3-96.56-52.25-143.77-80.25C90.86,10,73.39,2.65,54.84,0ZM46.76,17.24c12.27.49,25.83-1.65,36,7.05,1.51,4.18,5.18,7.16,7,11-4.15.07-10.37-4.56-13.29.17-2.59,3.59-6.64-1.59-9.91-.05A45.21,45.21,0,0,1,53.11,39.5c-3.24-.5-5.72-3-8.86-3.88-6.47-1.63-13.19-1.8-19.74-2.89-3.37-1.09-2.81-5-1.49-7.53C27.7,21.31,34,21.7,39.67,21c2.85-.16,4.4-3.16,7.09-3.79ZM14.2,41.16c10,2.45,19.67,7.13,29,11.62,17.45,8.29,31,22.43,46.5,33.49,3.17,2.81,10.52,3,11.06,7.66C81.64,89.08,69.41,69.74,49.26,66.88c-.55,3.33,5.47,3.54,4.49,7.1-4.86-.25-8.35-4.21-12.57-6.21-9.26-4.07-17.25-10.47-24.87-17-2.65-2.09-5-6.75-2.11-9.58ZM101.76,48c18.86,5.49,34.57,18.31,48,32.16-13.19-3.28-23.65-14-37.49-15.23,0,.39,0,1.18,0,1.57,5.7,3.81,12.11,6.58,17.55,10.75-.41,1.64-2.91.3-4.05,0-6.62-3.2-14.33-5-19.12-11-4.46-7-14.43-6-21.45-8.53-4-.14-3.13-6.94.4-7.33,3.69-.5,7.33-1.31,11-1.9l5.1-.53ZM76.43,68.93C80.06,68.8,82.9,71.51,86,73c9.91,5.88,20.07,11.32,30.24,16.73,1.58.62,2.33,3.16-.14,2.2-13.8-4.1-26.3-11.7-37.83-20.19-.6-.86-2.54-1.57-1.83-2.82ZM167.75,86c3.73-.07.85,6.54,1.52,9.52,6.57,4.62,16.6,7.44,20.32,14.57-8.14-.71-13.53-8.32-21.37-10.18-3.41,2-5.55,5.54-8.77,7.79-3,1.43-7,.9-9.51,3.16,9.53,6.35,21,9.64,29.27,17.93,1.83,1.26,4.45,4.66,6.37,1.8,11.12-12.45,29.49-14.57,45-11.22,8.4.13,14.82,6,22.48,8.48,6,2,11.52,5.76,14.81,11.23-16.83-6.92-33.09-17.72-52-17.12.35,1.28.36,2.89,1.92,3.3,15.34,8.34,32.44,12.69,47.57,21.34,4.81,2.39,10.15,3.76,14.7,6.68-.76,3.86-6.51,1.34-8.88.62-20.88-6.5-42.06-13-61-24.13-2.21-1.55-.3-4.58-.71-6.79-1.48-.18-3-.29-4.45-.38-6.36,1.74-14.23,4.29-15.8,11.58.27,10.78,10.37,17.18,19.76,19.91,3.79-.49,1.84,5.13-.75,3.56-13.08-3.33-26.49-5.68-40-4.73-6-.51-14.28,1.91-15.16,9-2.63,3.88,2.1,6.3,2,9.91-5.82-.81-7.44-10.78-4.36-15.11,10.76-9.69,26.79-8.95,40.21-7.46-1.8-4.37-4.19-8.48-6.38-12.67-9.54-7.42-21.39-11-31.4-17.66-7.27-4.7-15.3-8.12-22.32-13.23,2.35-2.28,6.25,3.18,7.66-.16,7.57.48,18.8,1.88,23.08-6.27,2.54-6-8-5.93-8.52-11.21,4,1,7.43,4.33,11.75,3.86.72-1.82,1.1-3.76,1.66-5.64a5.4,5.4,0,0,1,1.38-.25Zm-66.91,32.11A243.73,243.73,0,0,1,147,138.36c0,2.8-3.44,1.22-5,.7-12.21-5.37-24.66-10.29-36.4-16.66-1.79-1.14-4.15-2-4.81-4.26ZM201.78,135a11,11,0,0,1,6.32,1.79c7.11,4.65,13.94,9.83,21.7,13.38,6.55,3.5,14,5.07,20.29,9.12-.3,3.21-4.3,1.53-6.55,1.35a178.13,178.13,0,0,1-43.21-19.91c-1.52-1.19-3.74-4.75-.76-5.51a12.54,12.54,0,0,1,2.21-.22ZM96.36,146.83c8.39.89,13.34,8.52,18.44,14.38,7.33,5.73,16.6,8.44,24,14.08.94,2.57-2.62,2-4.15,2-2.59-.62-4.58,1.53-5.77,3.55,1.19,1.17,4.25,1.38,4.09,3.29-3,1.27-6.38.51-9.55.72-.41,1.79,2.49,3,1.25,5.13-7.63.09-14.28-4.48-20.79-7.89-1.27-1.48-5.34-2.13-4.84-4.91,1.22-1.43,4-1.69,4-3.91-4.27-3.58-8.94-6.69-12.92-10.6.92-5.61,2.23-11.53,6.25-15.84ZM328,159.14a23.17,23.17,0,0,0-4.1.38A248.34,248.34,0,0,0,350.92,172c4.26,1.59,7.24,5.71,12,6.13,1.59.35,3.17.72,4.77,1a34.5,34.5,0,0,0-3.7-6.32c-12.51-3.2-23.08-13.81-36-13.74Zm-18.61,4c-3.23,2.06-5.31,8.34-.34,9.82,16.1,8.37,33.94,12.77,50.09,21.07,4,2.64,8.88,1.87,13.09.34-9.29-5.28-17.84-12.22-28.2-15.37-12.25-3.59-22.41-12.79-34.64-15.86Zm-30,12.94a35.34,35.34,0,0,0-6.56.43c-4.34,1.65-9,1.51-13.59,1.75-.51,3.48-.77,9.05,3.51,10.18,16.75,4.45,33.45,9.38,50.58,12.21,1,.84,7,.66,5.44-2.28-6.58-4.26-15-6.28-20.62-11.6,14.31,4.72,28.29,10.65,43,14.1,2.69,1,1.95-2.67,0-3-11.54-4.8-23.31-9.39-33.81-16.26-9.23-1.78-18.46-5.31-27.89-5.55Zm-53.9,6.25c-5.62,2.48-9.77,8.3-6.87,14.59,6.21,8.56,15.78,15.36,26.58,16,7.16-.71,15.12.19,21.89-1.63-3.71-2.12-10.42-2.12-11.85-6.35,8.66.38,17.48,5.08,25.85,3.45-3.48-4.46-10.91-3.42-14.08-7.55,12,1.18,24.49,4.87,36.06,3.52-12.94-5.35-27.1-7-40-12.44-12.16-4.11-24.73-8.89-37.58-9.58ZM165.6,183c.08.44.26,1.32.35,1.76-4.95,1.11-10.6,1.15-14.76,4.43a13.79,13.79,0,0,0-4.1,9.39c6.53,7.31,15.35,11.92,24,16.23.91.72,2.64,1,2.71,2.38-11.91-.5-21.48-8.79-29.7-16.59-5-8.65,4.24-16.66,12.51-17.15l9-.45Zm447.76,14c.4,7.21-1.2,14.69-6.44,20-3.15,4.75-9.31,7.92-10,14,10.54,2,21.4.76,32.07,1.06,9.44-.34,19.36.47,28.45-2.65-3.41-2.41-8.82-3.15-10.2-7.64,5.88,1.08,10.68,4.84,15.73,7.78,10,1.46,19.84-2.66,29.88-1.29.21,7.14.45,15.3-4.82,20.89-3.53,3.91-8.53,8.15-14.21,7.5,4.27-3.71,9.1-6.8,13.06-10.86,3.1-4.36,1.8-10.25,2.11-15.26-8,0-16.3-.74-24,1.93-5,7.69-13.93,11.13-22.75,11.8-12.74,1.11-25.37,3.39-38.18,3.65l.31-4.7c14.89-.14,30.2,1.38,44.72-3,3.39-1.15,7.79-3.44,7.42-7.65-19.72,1.83-39.45,4.68-59.31,3.23-9.17-1.85-17.24,4.1-26.26,4.28-4.75.74-9.54.33-14.3.17-3.81,1.4-6.68,4.6-8.73,8,5.14.69,10.26,1.52,15.35,2.52a196.37,196.37,0,0,1,35.85,4.05c-20.27,2.6-40.8,1-61.12,0-3.65,1.68-8.09,3.58-8.44,8.1C545,270,562.33,271.11,579,273c14.42,1.32,29,4.81,43.47,2.5,3.46-7.22-.47-15.41-6.23-20.17l.2-1.74c9.53,1.06,19.65-1.37,28.9,1.61-.15.46-.45,1.37-.61,1.83-6.89.26-13.71-.65-20.55-1.23-.6,2.69,1.9,4.69,2.37,7.22.4,4.21.14,8.5.84,12.69,2.76,1.3,10.46-1.76,11.37,1.19-5.07,1.08-11-.28-14.94,3.85-5.79,5-12.77,8.87-20.51,9.58-12.15,1.78-25,3.25-36.79-.95-.11-.42-.32-1.27-.42-1.7,17.5,3.13,37,3.36,52.31-7-.23-.62-.68-1.86-.9-2.47-16.49-.38-33-.9-49.37-3.3-13.6-2.12-27-5.47-40.67-7a47.08,47.08,0,0,0-6.2,16c15,4.65,30.87,6.32,45.74,11.42-.11.41-.32,1.25-.43,1.66-14.88-.18-28.75-6.41-43.16-9.35-10.57-2.23-20.45-7.32-30.61-10.19-1.53,3.29-.49,9.43,1.46,13.19,9.06,5.51,20.08,7.4,28.71,13.53-9.58-1.57-18-8.4-28-7.58-.28,4.57-.53,9.24.73,13.68.47-2.46-1.57-6,.59-7.8,30.39,15.36,63.08,25.64,95.45,36,17.33,2.41,35.52.65,51.29-7.34,9-2.35,13-11.42,19.27-17.3-.27-2.3-.87-5.9,2.24-6.47,8.92-.85,18.16-.63,26.62-4.12,12.58-3.83,25.52-14,26.65-28-4.18.47-9.77-.72-13.06,2.47,1.67.35,3.9.09,4.47,2.17-14.77,3.69-30.3,2.67-45.21.36-1.92-.52-6.41-1.33-4.58-4.14a62.6,62.6,0,0,1,10.07-.72c2.2,1.19,3.76,4.22,6.9,1.75a63.66,63.66,0,0,1,15.78-1.38c10.35-1.28,20.74-2.72,30.72-5.88,5.4-1.08,10.75-4.15,16.4-3.08a93.86,93.86,0,0,0,21.87-8.56c14-6.85,30.5-12.35,38.8-26.63v-7.08c-2.17-5.25-3.42-11.7-8.68-14.79-4.72-2.94-9.37-6.57-15.15-7-14.35-2.25-28.79-5.71-43.41-3.93-12.4-.11-24.59,2.3-36.84,3.73-27.16,1.78-54.19,6.44-81.49,5.43-.36-3.67-.72-7.32-1.07-11Zm139.32,10.27c6.06,0,12.1,1.55,17.94,3.05,7.35,2.83,5.67,13.81.24,17.65a73.31,73.31,0,0,1-23,8c-6,1-13.1,3.89-18.72.1,3.11-6.16-10.68-3.32-6.38-10.21-7-2.89-15.29,3-21.71-2.09-1.14-2.31,2.08-2.66,3.63-3.1,13.65-3.18,28.13.94,41.45-3.8l-.48-1.8c-11.35-1-22.4,1.84-33.67,2.44-8.42,1.76-17.13.89-25.48,3.05-3.39,3.17-11.51-3.82-2.64-3.51,20.66-7.53,42.8-8.81,64.58-9.45a29.65,29.65,0,0,1,4.2-.29ZM769.4,236a3,3,0,0,1,2.48,1.11c-1.27,9.22-9.51,15.07-17.63,18.17a156.67,156.67,0,0,1-32.15,6.33c-1.47-.08-3.85.12-4.23-1.75,6.17-1,12.39-2.34,18-5.25,1.25-4.27-4.1-2.17-6.47-1.33A70.32,70.32,0,0,1,700.25,260c-1.23-2.52,5.6-2.18,5.83-3.11,9.7-2.37,19.66-4.61,28.51-9.43,1.88-1.3,3.78.69,5.56,1.3-3.66-6.15,5.82-5.64,9.59-7,5.35-.76,9.87-3.87,15-5.25,1.12.08,3-.54,4.66-.49Zm-110.83,20c3.25.18-2.34,7-3.38,9-.71,7.06-.62,14.31-2.87,21.12-1,2.76-5.43,4.67-3.84,7.87,3.49-.47,7.92,1.21,11-1.27,1.66-1.15,3.18-3.16,5.48-2.48.27,7-8.38,7.7-13.16,9.54-7.63,3.59-17.65,4.8-24.91,0,.06-4.27,6.64-1.09,8.49-4.3,4.12-5.35,12.94-6.16,14.9-13.43,2.27-8.24-3.4-21.09,6.35-25.67a5.93,5.93,0,0,1,2-.37ZM695.66,260c2.08-.18.54,3.67-.92,4.63-5.07,7.47-14.37,9.78-22.69,11.3.06-.39.2-1.17.27-1.56,8.77-2.33,15.71-8,22.22-14a3.28,3.28,0,0,1,1.12-.34Zm-190.2,2.15c-1.38,0-2.77.06-4,0-2.9,2.94-5,6.6-7.48,9.89,3.55,4.94,10.69,5.35,15.9,8,4.92,3,7.68-5.2,6.2-8.82,2.74-5.45-2.74-4.34-4.59-6.91-1.47-1.77-3.72-2.14-6-2.18Zm113.42,27.94c.75,0,1.27.27.9,1.49-3.6,4.24-10.49,7.56-9.62,14.06,12.44,3.32,25.59,3.33,37.89,7.51-.68,3.68-6,1.79-8.81,2.59-8.29-5.29-19.36-5.49-29-6.61A18.25,18.25,0,0,0,613,319.93c1.35,2.77,5.59,2.61,6.13,5.9-8.73-1.84-11.5-10.74-13.81-18.16-3.06-1.13-6.64-.92-9.36-2.89,0-4.67,6.95,1.05,9.21-1.48,3.76-4.39,5.78-11.87,12.28-13a7.6,7.6,0,0,1,1.45-.25Zm-49,24.7c1.59,0,2.63.66,1.94,2.76-1.33.84-3.07,1.16-4,2.46,5.43,2.1,12.33,5,17.6,1.15,5.13-3,10.58.82,15.66,1.75,4,.94,10,2.76,10.15,7.81-2.52,1.38-5.12,3.42-8.14,3.13-20.25-.36-38.72-9.39-57.86-14.89-1.17-.79-4.93-1.31-3.92-3,8.48.56,17.06,1.89,25.42-.46a10,10,0,0,1,3.19-.74Z"/><path class="cls-4" d="M405.36,202.71a5,5,0,0,0-2.7.68c-5.52,2.65-11.92,2.15-17.09,5.43-6.39-1.25-9.59,5.7-15.85,4.76-4.89.54-6.76,6.14-8.34,10-2.55,3,1.39,6.88,4,4.93,2.89-2.35,7.24-2.49,9.23-5.92,1.89-1.87,3.2-6.15,6.44-5.27-2.11,11.87-4,23.76-5.83,35.68-.62,1.16,1.55,3.13,2.05,1.24,7.9-13,5.78-29.82,14.05-42.42,1.66,1.88.34,5.06,2,6.95,5.08,2.71,5.32-3.58,8.81-4.79,2.69-1.17,6.12-2.17,6.6-5.58,2.11-3.46-.54-5.66-3.36-5.73Zm-61.48,8.94a8.34,8.34,0,0,0-3.11.65c-5.68,2.71-4.82,11.58-10.62,14.07,1.73-3.3,4.13-6.67,2.69-10.68-1.73-2.42-5.18-1.17-7.35-.38-3.67,1.22-4.37,5.84-7.47,7.73-5.49-6.39-12.08.78-18.09,2-5.95-1.32-8,4.77-11.3,8.06-6.16,3.6-13.73-1.17-19.74,2.76-4.28,3-10.64,2.71-13.41,7.67-2,3.53-5.51,6.94-5.27,11.27,6,.5,8.26-7.83,12.76-9.48-.23,1.82-.63,3.62-.84,5.45a70,70,0,0,1,10.24-.19c2.54-1.61,4.66-3.93,7.81-4.44,2.89-1.23,6.65.72,8.93-2,2.82-3.15,7.19-3.79,10.75-5.82,4.74,5.82,12.64-1,17.16-4.41,1.12.92,2.06,2.06,3.25,2.91,2.45.29,7-2.21,5.08,3.58,3.22,2.14,3.79-4.42,6.76-4.16,4.78,1.19,9.27-1.62,13.94-2.16,5.21-.66,7.31-6.14,10.36-9.67,1.34-2.22,4.17-4.31,3.32-7.23-3.56-.63-9.17,3.21-10.86-2.27q-1.86-3.25-5-3.27ZM241.81,245.14c-4.65.14-8.76,3.09-13.09,4.56-23.28,14.35-42,34.71-60.71,54.33,2.87-1.25,5.76-4.84,9.06-3,8.41-10.43,19.19-18.45,30.58-25.32,9.22-8.85,17.8-18.9,29.77-24.18,2.54-1.16,6.51-2.84,5.33-6.34-.32,0-.63,0-.94,0Z"/><path class="cls-5" d="M157.16,65.16a6.46,6.46,0,0,0-1.43.19c11.21,8.6,24.39,14,36.21,21.72,10.83,6,21.19,12.85,31.89,19.09,5.55,3.7,12.66,3.24,18.32,6.66,19.82,10.94,39.91,21.39,59.75,32.31,4.82,3.56,11.15,5.51,14.9,10.39-1.12,4.36,5.38,4.54,7,7.73-15.19-2.13-27-13.53-41.52-17.26,0,.38.08,1.13.1,1.51,7.1,4.87,15.34,7.78,22.47,12.6a25.64,25.64,0,0,1-4.1,8.83c-13.06-2.62-24.9-11.74-38.7-10.57,8.79,5.73,19.68,9.4,29.25,14.44l.72,1.61c-12.95-1.71-26.32-1.95-39,1.78,0,3.58,1.44,6.86,2.74,10.1-12.85-3.57-25.51-8-38.63-10.5,1,1.81,3,2.56,4.76,3.38-2.51,5.22-11.65,6.57-9.8,14.18,3.78,5.89,8.64,11.23,14.83,14.67a4.42,4.42,0,0,1,3,4c-6.58-.78-13.12-2-19.78-2,0,.46-.07,1.39-.09,1.85,10.93,1.37,22.16.77,32.7,4.58,9.71-2.29,19.78-1.29,29.52.53-1,1.24-2.68,1.22-4.08,1.5-19,2-38.06,3.06-57.09,1.8-.09.45-.24,1.34-.33,1.79,11.92,3.14,24.8.87,36.53,3.82-8.24,2.8-17,1.69-25.45,2.65.07.41.2,1.24.27,1.66,7.41,1,14.8,2.14,22.2,3.19-2.4,1.61-4.76,3.3-7.17,4.9-9.28,5.1-21.38.59-31.45,3-2,1.48,0,2.21,1.37,2.9,5.26,1.33,13.76-1.65,16.89,2.54-12,6.16-23.11,14.16-32,24.36-10,11.31-21.88,20.74-32.31,31.64-4.95,5.39-12,8-17.62,12.45-2.23,1.82-.16,5,2.12,5.61,9.44,5.26,18.27,11.76,28.46,15.56,17,6.67,34.4,12.57,51.76,18.36,1.47,14.61-6.22,28.19-11.21,41.54-1.94,4.5-2.95,9.47-5.65,13.6-3.74,1.6-5-4.13-8.58-3.56-3.59.13-7.4.58-10.27-2s-5.72,1.42-8.72,1.68c-3.75-.26-6-4.87-9.81-4.71-.13,3.26,1.38,8.25-4.77,5.62-3.47-.55-5.93-5.14-9.75-3.44-.26,2.14.46,4.61-1,6.43-4.28-.23-7.65-5-12.07-3.37-.19,1.57-.09,3.16-.22,4.74-4.4-.34-11.83-6.6-13.28.61,3.08,1.76,5.75,3.7,3,7.21,4.66,1,9.47.66,14.2,1.09,3.4,2.15,4.58-1,6.37-2.69,3.41-.88,11.85,4.21,9.83-2.6,4.42,1.27,8.55,3.56,13.17,4.12a35.3,35.3,0,0,0-1.28-6.26c4.48-.35,7.89,3.37,12.25,3.29-.06-1.33-.19-2.65-.24-4,4.32,0,8.89,5.76,12,.21,6.77.07,13.38,3.14,20.2,2.37,2.79-9.49,2.26-19.91,7.28-28.73a146.29,146.29,0,0,0,11.37-29.54c.67-1.8,1.17-4.83,3.81-4.21,6.27.85,11.94,4.34,18.38,4.46,8.63.09,16.93,3,25.55,3.07-1.54,9.9-4.92,19.43-6.87,29.25-3.92,3-8.53,5-13.07,6.92-1.62-1.52-2.9-4.58-5.61-3.57-1.58,3.13-1.17,6.79-2,10.12-4.66-4.67-10.41-1.91-15.59.43-1.82,2.08.51,4.86,1.06,7.07-1.89-.69-3.75-1.65-5.78-1.75-3.06.27-1.57,6.92-5.2,4.76-2.63-1.77-4.69,2.31-3.5,4.45,2.42,3.66,4.64,7.67,8,10.62a4.17,4.17,0,0,0,4.64-2.87c-1.18-3-3.31-5.51-5-8.23,2.69,1.13,5.34,3.82,8.46,2.66.05-2.46-.1-4.84,0-7.26,3.45-.55,11,4.72,9.74-1.69,4,.47,6.2-2.48,5.44-6.28,2.29-.53,4.16,1.35,6.29,1.86,5.66,3.65,3.31-.29,3-2.25a19.73,19.73,0,0,0,7.18-5.75c2.94-3.72,10.21-2.87,11-8.18,1.14-10,5.94-19,8-28.77,3.86-2.46,9.25-.49,13.56.36-1,15.11,3.06,30.66-2.66,45.19-4.17,6.7-11.74,5.11-17.94,7.3-3.28,2.65.63,5,3.05,6-3.92,3.81-10.71,1.74-14.15,6.18,0,2,1.7,3.74,1.62,5.8-3.69,2.08-8.78.67-12.3,3.1-3.27,4.43-5.76,9.62-5.72,15.26-4,1-9.93,0-11.91,4.66.45,2.57,3.67,2.73,5.53,4-4.55,3.1-10.31,2.27-15.48,2.28.37,3.28,2.4,5.78,5.78,6.12.53,2.54-.31,5.09-.73,7.58h4.68c5.06-.75-.11-5.67.87-8.79,5.73-2.71,14,1.32,17.9-4.62-2.8-2-8.15,1.47-9.44-2.3,4.21-2.16,8.9-3,13.41-4.39-.36-2.53-5.23-2.89-3.76-5.52,4.86-2,10.92-2.18,14.66-6.24-1.23-1.42-3.72-2.27-3.94-4.22,3.6-1.18,7.35-1.86,10.95-3.11.36-6.15,9.67-4.48,11.77-9.75-2.05-.89-5.08-.37-6-2.75,1.89-3.67,6-2.54,9.34-2.9,3.09-1,1.33-5.17,3.37-7,4.48-4,10.93-7.32,12-13.84a105.15,105.15,0,0,0,.14-32.41c-.28-1.14-.57-2.27-.89-3.39-3.66,1.09-.74,8.66-4.66,7.81-2.69-8.25-2.18-17.27-5.45-25.34-1.56-4.37-4.43-8.45-4.65-13.18,1.59-2.14-.66-9.57,3.5-9,5.09,10.87,6,23.39,11.61,34.11l6.05,1c10.55.17,20.54-4.57,31.05-3.88.62,11.06-10.09,19.8-9.85,31,3.27,5.33,8.23,9.63,10.37,15.64-2.53,1.3-8.05,1.68-6.62,5.78,1.49,4.93,6.52-.23,9.67-.49.69,4.09-5.9,3.11-5.81,7-.37,5,6.13,1,8.86.68-.35,4.56-8.1,4.32-5.94,10,2.67-.45,5.27-1.28,8-1.67,1.55,5.46-8.55,4.37-6.55,9.47,2.84.06,5.6-.77,8.4-1.17,1.52,4.92-6.58,5.67-5.72,10.39,2.61-.39,5.16-1.09,7.76-1.57,0,4.95-10.95,3.26-8.42,9.25,3.41,1.11,6.16-2.3,9.49-2.52,2.94,5.7-6.68,6.1-4.37,10.68,5.56.84,10.47-2.78,15.22-5.12,1.18-4.42-4.11-1.62-6.71-1.95.28-3.11,1.61-6.09,1.42-9.22-.86-1-3-1.51-1.74-3.06,2.51-1.61,7.67-1.13,7.35-5.1-2.79-1.18-6-.52-8.86-.56-1.37-4,3.3-4.31,5.76-5.79.25-4.53-4.66-3.08-7.53-3.39-3.35-6.42,9.41-3.06,6.1-9.22-2.54-.77-6.56,1.25-7.7-1.85,1.68-1.35,3.57-2.42,5.23-3.81,0-5.13-7.63.59-8-3.49,2.06-3.61,8-2.86,8.93-7.12-3.57.59-7,1.56-10.63,2a159,159,0,0,1-7.35-15.9c-1.15-2.3.53-4.65,1.33-6.77,4.49-8.76,8.13-18.06,13.87-26.11,3.15-2.87,7.8-3.18,11.66-4.55,5-1.36,12.05-3.41,15.86,1.44,6.92,6.8,12.86,14.5,19.06,22,3,5.35,6.74,10.26,9.45,15.75,1.65,6.08-2.69,11.7-7.29,15.16-3.18,2.17-3,6.38-4.11,9.71-2.88,1.43-4,4.3-5,7.11-1.67,1.2-3.75,1.59-5.59,2.45.16,2.59,1.08,5,1.59,7.57-3.69,2.26-12.41,1.16-10.35,7.86,2.17,0,4.33-.28,6.5-.4.31,4.77-6.91,3.43-8.87,6.82-.87,1.78-1.34,3.77-2.45,5.44-2.33,1.54-5.66,2.69-4.67,6.16,4.43-.14,8.39-2.3,12.71-3,0,4.86-4.31,7.12-7.81,9.45,2.43,3.66,8.17,3,11.23.48,2.44-1.16,11.78.83,9.35-4.21-3.05-.94-6.3-1.2-9.39-1.86-1.64-7.09,6.85-3.52,11.18-4.6-2.27-3-6.41-3.32-9.49-5.18,2.59-4.18,10-.44,12.5-4.86-3.18-2.3-8-1-10.66-3.93,3.43-2.87,8.1-2.3,12.24-3.15.91-5.05-9.36-1.78-6.36-7.44,3.94-1.42,8.18-1.66,12.24-2.7.81-4.77-6.32-1.42-8.05-4.74,5.4-2.65,11.65-2.32,17.28-4.26,2.11-8-11.23,1.15-9.93-5.56,3.58-1.45,7.46-1.82,11.18-2.77,2.14-2.81-4.26-2.26-5.35-4.54,2.35-5.49,8-9.67,8.15-15.95-.33-10.46-8-18.47-12.85-27.14-4.27-8.19-12.21-13.3-18.35-19.88,8.5-5.31,18-9,25.93-15.22,12.66-7.26,23.11-17.66,35.27-25.59,4.36,1.93,9,4.2,12.1,7.88,1.88,5.78,1.86,12,2.91,18,.24,5.92,3.24,12.48-.1,18-6.73,13.1-12.65,26.58-19.07,39.83-2.2,5.73-4.24,11.77-4.3,18,2.07-.06,4.13-.23,6.2-.24.08,2.69-1.78,7.47,2.13,8.48,2.89-4.31,5.37-8.9,8.45-13.09,4.89-1.09-.51,6.91,4.36,5.84,2.5-3.37,4.13-7.3,6.77-10.59,4-2.28,10.18-3,12.27,2.07,2-2.17,2.32-6.45,5.44-7.3,2.61-.58,2.21,3.4,4.5,3.82,1.17-1.63,2.29-3.3,3.56-4.84,2.84.66,1.2,4.61,3.41,6.14,3-2.74,4.65-7,8-9.06,2.68-2,9.1,1.2,10.33-2.79-7.76-1.39-15.68-1.35-23.43-2.78-1.73,2.22-2.33,6.15-5.93,5.72-.53-1.73,1.05-5.21-1.72-5.13-5.51-1.29-3.74,8.07-8.77,7.94-2.28-.82-3.25-4-5.88-4-2.46,1.67-3.66,4.5-5.4,6.8-1.64-.9-3.12-2.12-4.83-2.87-2.09.87-4,2-6.12,2.9,3.35-10.27,7.9-20.13,11.83-30.18,7-14.12,12.68-29.38,10-45.48-1.26-4.44-1-9.11-.73-13.68,10-.82,18.39,6,28,7.58-8.63-6.13-19.65-8-28.71-13.53-1.95-3.76-3-9.9-1.46-13.19,10.16,2.87,20,8,30.61,10.19,14.41,2.94,28.28,9.17,43.16,9.35.11-.41.32-1.25.43-1.66-14.87-5.1-30.73-6.77-45.74-11.42a47.08,47.08,0,0,1,6.2-16c13.67,1.55,27.07,4.9,40.67,7,16.34,2.4,32.88,2.92,49.37,3.3.22.61.67,1.85.9,2.47-15.28,10.38-34.81,10.15-52.31,7,.1.43.31,1.28.42,1.7,11.82,4.2,24.64,2.73,36.79.95,7.74-.71,14.72-4.58,20.51-9.58,4-4.13,9.87-2.77,14.94-3.85-.91-2.95-8.61.11-11.37-1.19-.7-4.19-.44-8.48-.84-12.69-.47-2.53-3-4.53-2.37-7.22,6.84.58,13.66,1.49,20.55,1.23.16-.46.46-1.37.61-1.83-9.25-3-19.37-.55-28.9-1.61l-.2,1.74c5.76,4.76,9.69,12.95,6.23,20.17C608,277.81,593.4,274.32,579,273c-16.66-1.88-34-3-49.45-10.07-1.66-8.18,1.59-16,5.24-23.13,2.06-3.46,4.93-7.07,9.15-7.73-3.74,8.56-10.37,15.77-13.29,24.86A22.87,22.87,0,0,1,545,254a343.93,343.93,0,0,0,37.85,1c0-.47,0-1.41-.05-1.88-6.55-.4-13.18-.59-19.54-2.37-5.09-1-10.21-1.83-15.35-2.52,2.05-3.4,4.92-6.6,8.73-8,4.76.16,9.55.57,14.3-.17,9-.18,17.09-6.13,26.26-4.28,19.86,1.45,39.59-1.4,59.31-3.23.37,4.21-4,6.5-7.42,7.65-14.52,4.37-29.83,2.85-44.72,3l-.31,4.7c12.81-.26,25.44-2.54,38.18-3.65,8.82-.67,17.74-4.11,22.75-11.8,7.69-2.67,16-2,24-1.93-.31,5,1,10.9-2.11,15.26-4,4.06-8.79,7.15-13.06,10.86,5.68.65,10.68-3.59,14.21-7.5,5.27-5.59,5-13.75,4.82-20.89-10-1.37-19.89,2.75-29.88,1.29-5.05-2.94-9.85-6.7-15.73-7.78,1.38,4.49,6.79,5.23,10.2,7.64-9.09,3.12-19,2.31-28.45,2.65-10.67-.3-21.53.89-32.07-1.06.71-6.09,6.87-9.26,10-14,5.24-5.33,6.84-12.81,6.44-20-2.43-10.36-10.38-18.33-17.58-25.69-6.73-7-17-7.39-25.84-9.66-8.27-3.68-8.79-13.3-11.84-20.63a48.76,48.76,0,0,0-22.93-22.08c-12.32-4.11-25.79-6.77-38.32-2-7.43,1.64-12.35,8-19.25,10.72-6.41,5.07-8.64,13.39-14,19.32-5.47,2-11.73,1.81-16.8,4.88-6.39,5.31-14.13,9.06-19.23,15.82-5.26,5.48-8.31,12.47-12.36,18.77-2,1.4-4.3-.61-6.18-1.36-8.87-5.57-19-8.45-28.54-12.56-14.71-4.85-27.87-13.3-42.42-18.59-14.59-4.7-27.84-12.45-41.07-20-4.8-3-9.49-7-15.5-6.52-7.72-4.86-16.08-8.66-24.46-12.33-2.62-1.66-6,2.24-7.67-1.43A229.12,229.12,0,0,0,204.26,86.7c-1.71-.72-3.65-2.19-5.54-1.16,3.64,2.26,7.74,4,10.62,7.28C194,86.63,180.49,76.86,166,69c-2.81-1.49-5.59-3.88-8.86-3.81ZM76.43,68.93c-.71,1.25,1.23,2,1.83,2.82,11.53,8.49,24,16.09,37.83,20.19,2.47,1,1.72-1.58.14-2.2C106.06,84.33,95.9,78.89,86,73c-3.09-1.5-5.93-4.21-9.56-4.08ZM28,81.73l-.36,2.12c12,8.26,25.22,14.34,38.57,20a1.34,1.34,0,1,0,.51-2.62c-12.63-7-25.81-13-38.72-19.53ZM167.75,86a5.4,5.4,0,0,0-1.38.25c-.56,1.88-.94,3.82-1.66,5.64-4.32.47-7.74-2.85-11.75-3.86.56,5.28,11.06,5.23,8.52,11.21-4.28,8.15-15.51,6.75-23.08,6.27-1.41,3.34-5.31-2.12-7.66.16,7,5.11,15,8.53,22.32,13.23,10,6.68,21.86,10.24,31.4,17.66,2.19,4.19,4.58,8.3,6.38,12.67-13.42-1.49-29.45-2.23-40.21,7.46-3.08,4.33-1.46,14.3,4.36,15.11.13-3.61-4.6-6-2-9.91.88-7.06,9.14-9.48,15.16-9,13.56-.95,27,1.4,40,4.73,2.59,1.57,4.54-4.05.75-3.56-9.39-2.73-19.49-9.13-19.76-19.91,1.57-7.29,9.44-9.84,15.8-11.58,3.62-.34,7.24-.55,10.88-.64,18.93-.6,35.19,10.2,52,17.12-3.29-5.47-8.84-9.21-14.81-11.23-7.66-2.51-14.08-8.35-22.48-8.48-15.56-3.35-33.93-1.23-45,11.22-1.92,2.86-4.54-.54-6.37-1.8-8.25-8.29-19.74-11.58-29.27-17.93,2.5-2.26,6.55-1.73,9.51-3.16,3.22-2.25,5.36-5.76,8.77-7.79,7.84,1.86,13.23,9.47,21.37,10.18-3.72-7.13-13.75-10-20.32-14.57-.67-3,2.2-9.59-1.52-9.52Zm-66.91,32.11c.66,2.23,3,3.12,4.81,4.26,11.74,6.37,24.19,11.29,36.4,16.66,1.55.52,5,2.1,5-.7a243.73,243.73,0,0,0-46.2-20.22ZM513,124.87c7.57-.11,15.46,1.48,20.11,7.76l-.86,4c-12.16.75-25.71,2.87-34.29,12.29-4.79,4.79-6.07,11.62-10,17-1.63-.1-3.73-3.28-4.46-.34-5.27-.19,1.6-11.93-2.21-14.86-2.63,3.69-1.24,8.64-2.85,12.68-1.4,1.83-3.49-.37-4.32-1.69.41-6.17,5.18-10.67,7.44-16.17,4.07-10,13.31-18.23,24.07-20.09a63.37,63.37,0,0,1,7.34-.56ZM98,136.65a26.25,26.25,0,0,0-2.87,2.16c14,7,27.89,16,43.58,18.26l-.24-2.42c-13.61-5.44-28.66-9-40.47-18Zm-6,5c-4.29,2.35-9.19,4.76-11.14,9.54-3.7,13,1.63,26.23,9.89,36.21,1.79.22,3.5.11,3.22-2.15-4.13-5.65-4.12-12.9-5.86-19.42-1.21-4.58-2.5-9.46-1-14.15,2.09-2.84,10.13-6.32,4.88-10Zm430.9,3.7c7.08,0,12.64,7.28,12.7,14,1.45,6.49-4,11.44-8.79,14.74-7.45,2.72-17.85.73-21.28-7.09a25.66,25.66,0,0,1,2.6-17,32.13,32.13,0,0,1,14.08-4.64q.35,0,.69,0ZM545.78,149a3.47,3.47,0,0,1,3.37,3.18c4.31,7.44,1,16.24-3,22.94-4,7.61-12,12-20,14.3-5.25.54-11.69,2.29-16-1.77-1.4-3.5,3.93-5.91,6.63-4.2,6.23.73,12.9.12,18.27-3.41,6.52-8.93,10.46-19.51,9.08-30.73a4.15,4.15,0,0,1,1.7-.31Zm-21.59,2.28c-5.41,1.89-8.47,10.36-3.34,14.19a3.86,3.86,0,0,0,6.42-2.28c1.09-3.91,2.3-11.67-3.08-11.91ZM328,159.13c13-.07,23.53,10.54,36.05,13.74,4.39,1.65,6.86,6,11.05,8.06,1.15,1.37,5,2,4.56,4.08-4.23.12-7.64-2.84-11.51-4.1-1.75-.83-4.14-.87-5.18-2.74-4.77-.42-7.75-4.54-12-6.13a248.34,248.34,0,0,1-27.06-12.52,23.2,23.2,0,0,1,4.1-.39Zm-18.61,4c12.23,3.07,22.39,12.27,34.64,15.86,10.36,3.15,18.91,10.09,28.2,15.37-4.21,1.53-9.13,2.29-13.09-.35-16.15-8.3-34-12.7-50.09-21.07-5-1.48-2.89-7.75.34-9.81Zm152.83,2c2.19.17,2,4.83,3.22,6.58,3.2,11.93,12.16,20.87,19.8,30.12,7.83,9.49,19.06,16.1,24.93,27.13,3.33,10,6.52,20.28,6.94,30.9.34,1.84-1.08,4.32-3.12,2.92.66-11.66-.28-24.9-9.18-33.56-7.57-10.46-19.73-16.09-28-25.91-2.34-1.85-4.11-5.81-7.63-5.09-.33,5.42,4.61,9.25,4.94,14.55-4.81-1.33-7.54-5.9-10.51-9.55-1.72,5.09,3.16,10.2,5.15,15.1-4.6-2.57-7.28-7.53-11.8-10.12-.5,2.45,3.5,7.83-.53,7.78-1.53-1.45-1.73-5.84-4.48-4.52.49,5.27.68,11,4.43,15.19,1,1.5,4,5.79.18,4.19-3.64-3.44-6-7.85-9-11.8-1.71,6.23,2,12.79,6.73,16.78,1.28.76,2.51,3.89-.06,3.12-8-5.17-11-15.4-16.56-22.89-2.18,9.13,4.58,18.35,8.44,26.85-11.72-7.94-14.46-23.06-16.86-36.06.27-11,4.77-22.07,12.89-29.64,3.92-3.65,7.76-9,13.64-9.07,2.32,7.78,3.94,19.25,12.16,22.84-3.64-8.05-8.3-16.25-6.86-25.61a2.4,2.4,0,0,1,1.09-.23ZM572,174c8-.32,16.43,4.36,19,12-6.94,2.31-14.78,1.44-21,6-6.81,2.66-9.13,9.91-13.54,15q-.56-5.16-1.18-10.29c-2.47,3.56-2.35,8.08-3.52,12.13-4.07,0-.83-5.75-2.63-8.17-1,.61-3.09,5-3.27,2.1,3-11.74,9.68-25.89,22.73-28.36A17.09,17.09,0,0,1,572,174Zm-292.62,2c9.43.23,18.66,3.77,27.89,5.55,10.5,6.87,22.27,11.46,33.81,16.26,2,.31,2.73,4,0,3-14.69-3.45-28.67-9.38-43-14.1,5.63,5.32,14,7.34,20.62,11.6,1.53,2.94-4.42,3.12-5.45,2.28-17.13-2.83-33.83-7.76-50.58-12.21-4.28-1.13-4-6.7-3.5-10.18,4.57-.24,9.24-.1,13.58-1.75a34.66,34.66,0,0,1,6.57-.43Zm-53.9,6.25c12.85.69,25.42,5.46,37.58,9.58,12.9,5.46,27.06,7.09,40,12.44C291.5,205.7,279,202,267,200.83c3.17,4.13,10.61,3.09,14.09,7.55-8.37,1.63-17.19-3.07-25.85-3.45,1.43,4.23,8.14,4.23,11.85,6.35-6.77,1.82-14.74.92-21.9,1.63-10.8-.63-20.37-7.43-26.58-16-2.9-6.29,1.25-12.11,6.87-14.59ZM165.6,183l-9,.45c-8.27.49-17.51,8.5-12.5,17.15,8.22,7.8,17.79,16.08,29.7,16.58-.07-1.39-1.8-1.66-2.71-2.38-8.65-4.31-17.47-8.92-24-16.23a13.79,13.79,0,0,1,4.1-9.39c4.16-3.28,9.81-3.32,14.76-4.43-.09-.44-.27-1.32-.35-1.76Zm416.7,9.46,1.47.9c3.52,6.25-4.67,6.39-5.53,11.14-1.34,4.15,3.45,10,7.53,6.33,4.68-2.83,3.4,5.71-.85,5.18-3.78,3.86-9.95,3.32-13.57-.27-4.52-5.63-4.92-14.78.5-20,3.17-1.85,6.85-2.64,10.45-3.3Zm14.33,8.29c3.33-.06,5.75,3.89,4.42,7.29-1.32,9-7.52,19.55-17.78,19.36-1.53-.1-4.69,1.6-4.32-1.1,5-3,10.42-5.71,13.35-11.08,3.2-4.06-.2-10.16,2.87-14.18a4.35,4.35,0,0,1,1.46-.29Zm-77,1.82c2.86.08,4.91,1.05,4.19,4.44-6.17,0-12.38.56-18.51-.18-4.23-1.51,1.4-3.43,3.37-3.45,2.24.43,7.27-.92,10.95-.81Zm-114.31.15c2.82.06,5.48,2.26,3.36,5.73-.48,3.41-3.91,4.41-6.6,5.58-3.49,1.21-3.73,7.49-8.81,4.78-1.67-1.89-.35-5.07-2-7-8.27,12.6-6.15,29.45-14.05,42.42-.5,1.89-2.67-.07-2.05-1.23,1.81-11.92,3.72-23.82,5.83-35.69-3.24-.88-4.55,3.4-6.44,5.27-2,3.43-6.34,3.58-9.23,5.93-2.59,1.95-6.53-1.92-4-4.93,1.58-3.9,3.45-9.51,8.34-10.05,6.26.94,9.46-6,15.85-4.75,5.17-3.28,11.57-2.78,17.09-5.43a4.9,4.9,0,0,1,2.7-.68ZM510,208.12c5.51.49,11.08.32,16.58,1.06a1.85,1.85,0,0,1-.17,3.69c-5.46.23-11.2.9-16.42-1.14a22.9,22.9,0,0,1,0-3.61Zm-166.14,3.52q3.14,0,5,3.28c1.69,5.48,7.3,1.64,10.86,2.27.85,2.92-2,5-3.32,7.23-3.05,3.53-5.15,9-10.36,9.67-4.67.54-9.16,3.35-13.94,2.16-3-.26-3.54,6.29-6.76,4.15,2-5.79-2.63-3.28-5.08-3.57-1.19-.85-2.13-2-3.25-2.91-4.52,3.42-12.42,10.22-17.16,4.41-3.56,2-7.93,2.67-10.75,5.82-2.28,2.68-6,.72-8.93,1.95-3.15.51-5.27,2.84-7.81,4.45a70,70,0,0,0-10.24.19c.21-1.83.61-3.63.84-5.45-4.5,1.65-6.75,10-12.76,9.48-.24-4.33,3.22-7.74,5.27-11.27,2.77-5,9.13-4.69,13.41-7.67,6-3.93,13.58.84,19.74-2.76,3.27-3.29,5.35-9.38,11.3-8.06,6-1.19,12.6-8.36,18.09-2,3.1-1.89,3.8-6.51,7.47-7.73,2.17-.79,5.62-2,7.35.38,1.44,4-1,7.38-2.69,10.68,5.8-2.49,4.94-11.36,10.62-14.07a8.61,8.61,0,0,1,3.11-.66Zm-202.61,1.2c-2.8,5.85.82,12,5.67,15.32,10,9.8,23.52,15.05,37.17,17-6.6-4.51-15-5.58-21.09-11.07-5.49-3.05-11.19-6.06-15.41-10.83-2.21-3.44-.9-10-6.34-10.39Zm383.26,1.7c3,.08,5.08,1,4.29,4.48-5.33.08-10.84.63-15.94-1.24.09-.71.26-2.11.35-2.81,2.26.79,7.49-.53,11.3-.43Zm-106.63.36a2.32,2.32,0,0,1,2.33,2.85c.77,12.54,8,23,12.82,34.22-6.93-4.15-9.54-12-14.52-17.9-2.57,8.54,7.27,13.69,9.35,21.15.47,2.12-1.93,1.77-3.29,1.7-6.54-4.09-5.12-12.94-8.58-19-3.23.29-2.52,6.23-5.89,5.8-2.1-5.3.19-10.9,1.54-16.1,1.67-4.12,2-9,4.7-12.65a5.48,5.48,0,0,1,1.54-.12Zm106.06,5a15.51,15.51,0,0,1,6.09,1.18c.6,2.83-2.92,2-4.65,2.5-3.46-.68-9.8,2.8-11.74-1.47a15.93,15.93,0,0,1,4.07-1.85c2-.16,4.14-.39,6.23-.36ZM400.24,228H402c-1.42,11.05-2.28,22.67,2.94,32.88,4.73.2,2.46,5.76,1.74,8.75-3.48,9.74-5.05,20-8.33,29.8-.6,3-4.06,1-5.38-.4-4.9-3.29-8.92-7.87-14.1-10.72.56,5.65,5.85,8.93,7.88,13.94-5.14-1.19-8.52-6.11-13.67-7.14,1.78,6.42,11.1,8.78,11.66,15.83-7.73-.37-10.5-9.73-16.7-12.89.57,2.64,1.36,5.24,1.82,7.9-6.62-2.08-7.74-12.76-14.69-15.05,3.18,7,7,13.71,10.31,20.64,1,1.82-.75,1.56-2,1.32-4.41-3.81-7.36-8.94-10.58-13.7-5.31-8.15-4.46-18.42-7.82-27.23,1.68-9.46,2.85-19.6,8.24-27.84,1.51,3.28-1.44,9.13-1.39,13.72,4.72-1.62,3-12.06,9-12.76-.9,6-3.16,11.7-4.44,17.62-.38,1.37-1.45,6.14,1.41,6.45,3.6-8.75,6.42-17.81,9.51-26.73.41-2.29,2.82-1.33,4.36-1a56.46,56.46,0,0,0,4.2,21.79c1,13.12,10.3,23.49,18.33,33.11a51.9,51.9,0,0,0,4.86-23.13c-8.6-2-9.06-12.75-10.64-19.77-.17-1.78-2.18-9.5,2.33-8.3,1.71,3-.61,12.27,4.11,11.6A42.56,42.56,0,0,1,400.24,228ZM241.81,245.13c.31,0,.63,0,.94,0,1.18,3.5-2.79,5.18-5.33,6.34-12,5.28-20.55,15.33-29.77,24.18-11.39,6.87-22.17,14.89-30.58,25.32-.31,1.23-.7,2.44-1,3.68,3-1,4.34-4.92,7.56-5.75,0,1.22-1.16,3.68,1.08,2.74,12.75-13.65,28-24.57,41.21-37.72,3.55-2.22,6.61-6.46,11.07-6.69.48,6.57-5.85,12.38-3.39,19,2.82-5.17,5.46-10.44,7.8-15.84.84-1.73,1.55-4,3.77-4.3-1.54,6.79-7.69,13.93-4.43,21,2.85-2.31,3.06-9.18,7.18-8.84.05,8.4-6.9,16.37-3.74,24.82,4.46-4.52,9.53-8.4,14.14-12.77,4.61-4.21,6.95-10.45,12.11-14.1,2.45-.57,1.53,2.63.83,3.86-10.56,17.41-28.38,29.38-37.84,47.47.59,10.12,1.47,21.13-3.92,30.22a12.86,12.86,0,0,1-3.33.18c.58-6.35,1-12.71,0-19-2.93-.31-6.2-.51-8.38-2.69-2-2.28-5,.32-7.3-.69-1.17-6.59-9.64-2.58-14.32-4.75-5.16-4-12.62,10.6-10.8-1.09,3.44-2,7.4-4.67,6.65-9.25-9.13-2.7-15.49,4.65-21.32,10.3-4.92,0-8-5.06-12.47-5.65-.74,1.51-4.4,4.62-4.11,1.17,2.81-5.46,8.75-9,13.9-12.25,18.73-19.62,37.43-40,60.71-54.33,4.33-1.47,8.44-4.42,13.09-4.56Zm58.74.89a2.18,2.18,0,0,1,2.39,1.9c-4,9.2-11.69,17.71-9.83,28.54.39.17,1.18.48,1.57.64,2.85-10.53,8.24-20.08,14.66-28.83.26-.94,3-2,2.51-.34-3.4,9.57-9.3,18.15-13.6,27.35-3.76,13.17-6.65,26.73-7.26,40.46-3.48,2-1.35-6.05-5-3.43-1.29,9.69,2.14,18.92,3.14,28.43-3.41-1-4.69-6.24-7.48-8.7-5.75.24,3.57,12.32-2.38,11.95-3.15-6.77-2.21-14.89-6.63-21.29-2.69,3,2.51,12.24-2.65,12.19a84.08,84.08,0,0,1,2.56-28.39c1.41.09.32-7.72-1.86-4.95-3.36,4.35-4.43,9.95-6.14,15.07l-2.5.45c1.52-5.66,1.55-11.57,2.5-17.3,8.24-10.56,20.9-18.49,23.87-32.5,1.88-2.63-2.11-5-.39-7.45,2.92-5.12,6.65-10,11.47-13.5a2.25,2.25,0,0,1,1.05-.31Zm29.37,7q-1.51,6.41-3,12.81c2.14-3.21,3.52-7.08,6.39-9.73,2.77-1,3.47,3.77,2.19,5.28-3.19,9.66-8.91,18.31-12.14,28-3,8.86-8,16.88-11.22,25.67-1.07,2.3-1.8,6.11-5.08,6a142.44,142.44,0,0,0,2-14.67c-1.75-15,3.79-29.51,8.92-43.35,1-6.16,7.52-7.21,11.93-10Zm127,6.12c4.94.14,7.78,5.77,12.21,7.77,6.06,4.59,15.05,1.86,20.88,4.95-6.37,1.16-11.52,5.32-17.7,6.95-6.81.79-13.58-2.25-18.57-6.73-2-1.68.28-4.81,2.32-5,2.3.52,4.47,1.52,6.76,2.1-1-4.32-8.88-4.89-7.5-9.85a6.92,6.92,0,0,1,1.6-.15Zm238.73.83a3.58,3.58,0,0,0-1.12.35c-6.51,6-13.45,11.7-22.22,14-.07.39-.21,1.17-.27,1.56,8.32-1.52,17.62-3.83,22.69-11.3,1.46-1,3-4.82.92-4.64Zm-190.2,2.15c2.3.05,4.55.41,6,2.19,1.85,2.57,7.33,1.46,4.59,6.91,1.48,3.62-1.28,11.81-6.2,8.82-5.21-2.65-12.35-3.06-15.9-8,2.49-3.29,4.58-6.95,7.48-9.89,1.24,0,2.63-.05,4,0Zm-81.86,3c1.54.19,1.62,3.08,1,4.31-4.16,10-9.69,19.45-13.65,29.56-1.81,4.65-2.22,10-5.32,14.1-1.71-6.74,1.55-14.25,3.69-20.81,3.72-9.4,6.72-19.76,13.93-27.15a1.16,1.16,0,0,1,.32,0Zm245.92,10.16a62.6,62.6,0,0,0-10.07.72c-1.83,2.81,2.67,3.62,4.59,4.14,14.91,2.31,30.43,3.33,45.2-.36-.57-2.08-2.8-1.82-4.47-2.17-4,0-10.22,3-12.57-2a63.66,63.66,0,0,0-15.78,1.38c-3.14,2.47-4.7-.56-6.9-1.75Zm-209,9.73c1.46.08,3,1,2.2,2.6-4.28,9.44-14.21,15-23.49,18.53,4.86-8.29,12.68-14.83,19.95-20.92a2.91,2.91,0,0,1,1.34-.21Zm-12.95,1c1.63,0,3.26,1.72,1.78,3.18a62.86,62.86,0,0,1-19.75,16.37c-2.69,1.38-1.31-3.38.13-3.69,5.3-5.5,9.45-12.42,16.75-15.59a2.1,2.1,0,0,1,1.09-.27Zm30.22,2.85c3.79-.21,3.3,5.86,3.18,8.93-3.15.53-6.08-1.73-8.09-3.92.11-2.14,2-3.55,3.59-4.73a4.67,4.67,0,0,1,1.32-.28Zm141.11,1.22a7.7,7.7,0,0,0-1.46.25c-6.5,1.1-8.52,8.58-12.28,13-2.26,2.53-9.21-3.19-9.21,1.48,2.72,2,6.3,1.76,9.36,2.89,2.31,7.42,5.08,16.32,13.81,18.16-.54-3.29-4.78-3.13-6.13-5.9a18.25,18.25,0,0,1-2.77-10.81c9.67,1.12,20.74,1.32,29,6.61,2.76-.8,8.13,1.09,8.81-2.59-12.3-4.18-25.45-4.19-37.89-7.51-.87-6.5,6-9.82,9.62-14.06.38-1.22-.15-1.52-.9-1.49ZM332.59,292c3.27.14.67,6.39,2.48,7.83.42,10.62,7,19.22,10.09,29-2.65-.78-4.49-3.14-7.18-3.78,1.16,4.36,4.44,7.77,5.72,12.09-6.14-.49-8.87-7.73-13.83-9.79.53,5.37,5.62,8.58,7.25,13.51-6.92-5.11-14.8-10.67-17.91-19a80,80,0,0,1,13-29.84Zm376.94,5.45a1.51,1.51,0,0,0-.88.37c-13.78,6.09-28.11,11.52-43.34,12.18-2.83-.24-3.53,3.82-.36,4,16.56.4,33.3-4.68,46.41-14.92-.55-.72-1.06-1.63-1.83-1.6ZM259.15,303.9c3.26-.16,1.34,4.48.79,6.81-1.64,2.36-1.6,8.75-5.76,7,.36-4.68-.05-10.67,4.24-13.75a5.5,5.5,0,0,1,.73-.1Z"/><path class="cls-6" d="M522.87,145.4q-.35,0-.69,0a32.13,32.13,0,0,0-14.08,4.64,25.66,25.66,0,0,0-2.6,17c3.43,7.82,13.83,9.81,21.28,7.09,4.78-3.3,10.24-8.25,8.79-14.74-.06-6.74-5.62-14.06-12.7-14Zm1.32,5.85c5.38.24,4.17,8,3.08,11.91a3.86,3.86,0,0,1-6.42,2.28c-5.13-3.83-2.07-12.3,3.34-14.19Zm58.11,41.2c-3.6.66-7.28,1.45-10.45,3.3-5.42,5.2-5,14.35-.49,20,3.62,3.59,9.78,4.13,13.56.27,4.25.53,5.53-8,.85-5.18-4.08,3.66-8.87-2.18-7.53-6.33.86-4.75,9-4.89,5.53-11.14l-1.47-.9Z"/><path class="cls-7" d="M46.76,17.24c-2.69.63-4.24,3.63-7.09,3.79C34,21.7,27.7,21.31,23,25.2c-1.32,2.49-1.88,6.44,1.49,7.53,6.55,1.09,13.27,1.26,19.74,2.89,3.14.83,5.62,3.38,8.86,3.88a45.21,45.21,0,0,0,13.43-4.13c3.27-1.54,7.32,3.64,9.91.05,2.92-4.73,9.14-.1,13.29-.17-1.8-3.8-5.47-6.78-7-11-10.17-8.7-23.73-6.56-36-7ZM14.2,41.16c-2.85,2.83-.54,7.49,2.11,9.58,7.62,6.56,15.61,13,24.87,17,4.22,2,7.71,6,12.57,6.21,1-3.56-5-3.77-4.49-7.1,20.15,2.86,32.38,22.2,51.53,27.05-.54-4.71-7.89-4.85-11.06-7.66-15.51-11.06-29.05-25.2-46.5-33.49-9.36-4.49-19.06-9.17-29-11.62ZM101.76,48l-5.1.53c-3.68.59-7.32,1.4-11,1.9-3.53.39-4.44,7.19-.4,7.33,7,2.5,17,1.5,21.45,8.53,4.79,6,12.5,7.81,19.12,11,1.14.25,3.64,1.59,4.05,0-5.44-4.17-11.85-6.94-17.55-10.75,0-.39,0-1.18,0-1.57,13.84,1.25,24.3,12,37.49,15.23-13.47-13.85-29.18-26.67-48-32.16ZM6.76,58c-3.11.08-2.59,4-3,6.16,1.92,6.75,3.37,14.36,9.21,19a360.51,360.51,0,0,0,37.93,25c5.46,1.53,10.9,3.68,16.63,3.78,1.44-3.11-6.17-6.81-1.39-8-13.35-5.69-26.57-11.77-38.57-20L28,81.73c-2.2-1.14-4.92-1.46-6.74-3.2-.43-3.63,1.37-7.11,3-10.26,7.62,2.16,14.19,8.36,22.43,8.61.1-.37.28-1.12.37-1.49C34.72,67,20.43,63.22,6.76,58Zm506,55c-13.11-.17-26.35,4.8-35.13,14.62,6.9-2.74,11.82-9.08,19.25-10.72,12.53-4.74,26-2.08,38.32,2A46.48,46.48,0,0,0,512.72,113ZM215.9,122c-3.64.09-7.26.3-10.88.64,1.48.09,3,.2,4.45.38.41,2.21-1.5,5.24.71,6.79,19,11.18,40.15,17.63,61,24.13,2.37.72,8.12,3.24,8.88-.62-4.55-2.92-9.89-4.29-14.7-6.68-15.13-8.65-32.23-13-47.57-21.34-1.56-.41-1.57-2-1.92-3.3Zm-14.12,13a12.64,12.64,0,0,0-2.21.22c-3,.76-.76,4.32.76,5.51a178.13,178.13,0,0,0,43.21,19.91c2.25.18,6.25,1.86,6.55-1.35-6.27-4-13.74-5.62-20.29-9.12-7.76-3.55-14.59-8.73-21.7-13.38a11,11,0,0,0-6.32-1.79ZM96.36,146.83c-4,4.31-5.33,10.23-6.25,15.84,4,3.91,8.65,7,12.92,10.6,0,2.22-2.76,2.48-4,3.91-.5,2.78,3.57,3.43,4.84,4.91,6.51,3.41,13.16,8,20.79,7.89,1.24-2.1-1.66-3.34-1.25-5.13,3.17-.21,6.55.55,9.55-.72.16-1.91-2.9-2.12-4.09-3.29,1.19-2,3.18-4.17,5.77-3.55,1.53,0,5.09.57,4.15-2-7.41-5.64-16.68-8.35-24-14.08-5.1-5.86-10-13.49-18.44-14.38Zm267.65,26a34.5,34.5,0,0,1,3.7,6.32c-1.6-.3-3.19-.67-4.78-1,1,1.87,3.43,1.91,5.18,2.74,3.87,1.26,7.28,4.22,11.51,4.1.47-2.11-3.41-2.71-4.56-4.08-4.19-2-6.66-6.41-11.05-8.06ZM93.94,185.3c.28,2.26-1.43,2.37-3.22,2.15,5.93,9.73,17.46,12.27,27.13,16.7,7.33,3.59,15.53,4.75,23,8-1.72-4.89-7.46-4.9-11.62-6.43-13.11-4.05-24.89-11.61-35.28-20.45Zm425.74,17.26c-3.68-.11-8.71,1.25-10.95.81-2,0-7.6,1.94-3.37,3.45,6.13.74,12.34.15,18.51.19.72-3.39-1.33-4.36-4.19-4.45Zm233,4.67a29.41,29.41,0,0,0-4.19.29c-21.78.64-43.92,1.92-64.58,9.45-8.87-.31-.75,6.68,2.64,3.51,8.35-2.16,17.06-1.29,25.48-3,11.27-.6,22.32-3.43,33.67-2.44l.48,1.8c-13.32,4.74-27.8.62-41.45,3.8-1.55.44-4.77.79-3.63,3.1,6.42,5.1,14.68-.8,21.71,2.09-4.3,6.89,9.49,4.05,6.38,10.21,5.62,3.79,12.68.9,18.72-.1a73.25,73.25,0,0,0,23-8c5.43-3.84,7.12-14.82-.23-17.65-5.85-1.5-11.89-3.08-18-3.05ZM510,208.12a22.9,22.9,0,0,0,0,3.61c5.22,2,11,1.37,16.42,1.14a1.85,1.85,0,0,0,.17-3.69c-5.5-.74-11.07-.57-16.58-1.06Zm14.51,6.42c-3.82-.1-9,1.22-11.31.43-.09.7-.26,2.1-.35,2.81,5.1,1.87,10.61,1.32,15.94,1.24.8-3.46-1.31-4.4-4.28-4.48ZM524,219.9c-2.09,0-4.2.19-6.23.35a15.93,15.93,0,0,0-4.07,1.85c1.94,4.27,8.28.79,11.74,1.47,1.73-.5,5.25.33,4.65-2.5A15.5,15.5,0,0,0,524,219.9ZM163,234.06c6.11,5.5,14.49,6.56,21.09,11.07,7.66,1.28,15.41.21,23-1-1.41-.69-3.39-1.42-1.37-2.9,10.07-2.39,22.18,2.12,31.46-3-24.8,2.71-49.82.82-74.19-4.22ZM769.4,236c-1.65-.05-3.54.57-4.66.49-5.13,1.38-9.65,4.49-15,5.25-3.77,1.4-13.25.89-9.59,7-1.78-.61-3.68-2.6-5.56-1.3-8.85,4.82-18.81,7.06-28.51,9.43-.23.93-7.06.59-5.83,3.11a70.32,70.32,0,0,0,29.13-6.74c2.37-.84,7.72-2.94,6.47,1.33-5.59,2.91-11.81,4.25-18,5.25.38,1.87,2.76,1.67,4.23,1.75a156.67,156.67,0,0,0,32.15-6.33c8.12-3.1,16.36-9,17.63-18.17A3,3,0,0,0,769.4,236ZM658.57,256a5.62,5.62,0,0,0-2,.36c-9.75,4.58-4.08,17.43-6.35,25.67-2,7.27-10.78,8.08-14.9,13.43-1.85,3.21-8.43,0-8.49,4.3,7.26,4.79,17.28,3.58,24.91,0,4.78-1.84,13.43-2.58,13.16-9.54-2.3-.68-3.82,1.33-5.48,2.48-3.05,2.48-7.48.8-11,1.27-1.59-3.2,2.88-5.11,3.84-7.87,2.25-6.81,2.16-14.06,2.87-21.12,1-2,6.63-8.8,3.38-9ZM333.8,256a2,2,0,0,0-.5.11c-2.87,2.65-4.24,6.51-6.38,9.72a350.71,350.71,0,0,0-14.6,36.08c-.61,1.79-2.08,3.07-3.25,4.49a142.47,142.47,0,0,1-2,14.67c3.28.06,4-3.75,5.09-6,3.23-8.79,8.21-16.81,11.22-25.67,3.23-9.66,8.95-18.3,12.14-28,1.2-1.42.66-5.65-1.7-5.39Zm123.13,3.15a6.89,6.89,0,0,0-1.6.14c-1.38,5,6.52,5.53,7.5,9.85-2.29-.58-4.46-1.58-6.76-2.1-2,.23-4.31,3.36-2.32,5,5,4.48,11.76,7.52,18.57,6.73,6.18-1.63,11.33-5.79,17.7-6.95-5.83-3.09-14.82-.36-20.88-4.95-4.43-2-7.27-7.63-12.21-7.76Zm-52,1.69c-2,4.07-4,8.14-5.78,12.31a51.9,51.9,0,0,1-4.86,23.13c-.43.91-.87,1.81-1.33,2.7,1.32,1.38,4.78,3.45,5.38.41,3.28-9.79,4.85-20.06,8.33-29.8.72-3,3-8.55-1.74-8.75Zm18.66,4.31h-.32c-7.21,7.39-10.21,17.75-13.93,27.15-2.14,6.56-5.4,14.07-3.69,20.81,3.1-4.08,3.51-9.45,5.32-14.1,4-10.11,9.49-19.53,13.65-29.56.59-1.23.51-4.12-1-4.3Zm-152.77,1-.42.06c-5.16,3.65-7.5,9.89-12.11,14.1-4.61,4.37-9.68,8.25-14.14,12.77-5.2,6.18-11.13,11.81-15.78,18.43-1.9,5.54-1.43,11.62-2.23,17.4,1,6.32.58,12.69,0,19a12.86,12.86,0,0,0,3.33-.19c5.39-9.09,4.51-20.1,3.92-30.22,9.46-18.09,27.28-30.06,37.84-47.47.66-1.15,1.51-4-.41-3.92Zm466.38.35c-4.88-.11-9.57,2.36-14.29,3.3-10,3.16-20.37,4.6-30.72,5.88,2.35,5,8.52,1.95,12.57,2,3.29-3.19,8.88-2,13.06-2.47-1.13,13.94-14.07,24.15-26.65,28-8.46,3.49-17.7,3.27-26.62,4.12-3.11.57-2.51,4.17-2.24,6.47L665,314c-3.17-.15-2.47-4.21.36-4,15.23-.66,29.56-6.09,43.34-12.18,1.31-1,2,.27,2.71,1.23,7.12-6.76,12-15.7,19.88-21.79,2.53-3.49,9.22-5.37,8.08-10.54a13.86,13.86,0,0,0-2.11-.22ZM460.49,285.06a2.79,2.79,0,0,0-1.34.22c-7.27,6.09-15.09,12.63-19.95,20.92,9.28-3.53,19.21-9.09,23.49-18.53.78-1.56-.74-2.52-2.2-2.61Zm-12.95,1a2.11,2.11,0,0,0-1.09.28c-7.3,3.17-11.45,10.09-16.75,15.59-1.44.31-2.83,5.07-.14,3.69a62.9,62.9,0,0,0,19.76-16.37c1.48-1.47-.16-3.16-1.78-3.19Zm30.21,2.86a4.82,4.82,0,0,0-1.32.28c-1.57,1.18-3.47,2.59-3.58,4.73,2,2.19,4.93,4.45,8.08,3.92.13-3.08.62-9.15-3.18-8.93Zm92.13,25.91a10.05,10.05,0,0,0-3.2.75c-8.36,2.35-16.94,1-25.42.46-1,1.66,2.75,2.18,3.92,3,19.14,5.5,37.61,14.53,57.86,14.89,3,.29,5.62-1.75,8.14-3.13-.15-5.05-6.16-6.87-10.15-7.81-5.08-.93-10.53-4.78-15.66-1.75-5.27,3.88-12.17.95-17.6-1.15,1-1.3,2.71-1.62,4-2.46.7-2.11-.35-2.81-1.93-2.77Zm-262.62,9.27c-3.65-.11-1.58,6.92-3.12,9,.22,4.73,3.08,8.81,4.64,13.18,3.27,8.07,2.77,17.09,5.46,25.34,3.92.85,1-6.72,4.66-7.81.22.77.42,1.56.62,2.35-.92-4.35,1.89-6.38,5.78-6.91l-6.05-1c-5.61-10.72-6.53-23.24-11.62-34.11l-.37,0Z"/></svg>