<svg id="svg2" xmlns="http://www.w3.org/2000/svg" xmlns:xlink="http://www.w3.org/1999/xlink" viewBox="0 0 88.07 89.93"><defs><style>.cls-1{fill:none;}.cls-10,.cls-11,.cls-13,.cls-16,.cls-2,.cls-4,.cls-6,.cls-8{fill:#fff;}.cls-15,.cls-17,.cls-18,.cls-2,.cls-6,.cls-8{stroke:#000;}.cls-2{stroke-width:1.17px;}.cls-3{fill:url(#pattern6334);}.cls-13,.cls-14,.cls-4,.cls-5{stroke:red;}.cls-10,.cls-11,.cls-12,.cls-13,.cls-14,.cls-4,.cls-5{stroke-width:0.35px;}.cls-5{fill:url(#pattern5966);}.cls-6,.cls-8{stroke-width:1.06px;}.cls-7{fill:url(#pattern6426);}.cls-18,.cls-8{stroke-linejoin:round;}.cls-9{fill:url(#pattern6242);}.cls-10{stroke:#f0f;}.cls-11,.cls-12{stroke:lime;}.cls-12{fill:url(#pattern6058);}.cls-13,.cls-14{stroke-linejoin:bevel;}.cls-14{fill:url(#pattern6150);}.cls-15{stroke-width:1px;}.cls-16{stroke:#85ff00;stroke-width:0.29px;}.cls-17{fill:url(#pattern6711);}.cls-18{stroke-linecap:round;stroke-width:1.06px;fill:url(#pattern6617);}</style><pattern id="pattern6334" data-name="pattern6334" width="88.07" height="89.93" patternTransform="matrix(0.94, 0, 0, -1.09, 29.46, 566.46)" patternUnits="userSpaceOnUse" viewBox="0 0 88.07 89.93"><rect class="cls-1" width="88.07" height="89.93"/></pattern><pattern id="pattern5966" data-name="pattern5966" width="88.07" height="89.93" patternTransform="matrix(0.85, 0, 0, -0.89, 99.06, 558.39)" patternUnits="userSpaceOnUse" viewBox="0 0 88.07 89.93"><rect class="cls-1" width="88.07" height="89.93"/></pattern><pattern id="pattern6426" data-name="pattern6426" width="88.07" height="89.93" patternTransform="matrix(0.85, 0, 0, -0.91, 103.59, 523.08)" patternUnits="userSpaceOnUse" viewBox="0 0 88.07 89.93"><rect class="cls-1" width="88.07" height="89.93"/></pattern><pattern id="pattern6242" data-name="pattern6242" width="88.07" height="89.93" patternTransform="matrix(0.77, 0, 0, -0.88, 86.42, 538.91)" patternUnits="userSpaceOnUse" viewBox="0 0 88.07 89.93"><rect class="cls-1" width="88.07" height="89.93"/></pattern><pattern id="pattern6058" data-name="pattern6058" width="88.07" height="89.93" patternTransform="matrix(0.81, 0, 0, -1.17, 119.12, 581.71)" patternUnits="userSpaceOnUse" viewBox="0 0 88.07 89.93"><rect class="cls-1" width="88.07" height="89.93"/></pattern><pattern id="pattern6150" data-name="pattern6150" width="88.07" height="89.93" patternTransform="matrix(0.75, 0, 0, -1.28, 151.7, 557.68)" patternUnits="userSpaceOnUse" viewBox="0 0 88.07 89.93"><rect class="cls-1" width="88.07" height="89.93"/></pattern><pattern id="pattern6711" data-name="pattern6711" width="88.07" height="89.93" patternTransform="matrix(0.31, 0, 0, -1.44, 97.15, 661.42)" patternUnits="userSpaceOnUse" viewBox="0 0 88.07 89.93"><rect class="cls-1" width="88.07" height="89.93"/></pattern><pattern id="pattern6617" data-name="pattern6617" width="88.07" height="89.93" patternTransform="matrix(0.37, 0.19, 1.82, -3.46, 35.65, 620.26)" patternUnits="userSpaceOnUse" viewBox="0 0 88.07 89.93"><rect class="cls-1" width="88.07" height="89.93"/></pattern></defs><title>fly 08</title><g id="layer1"><path id="path4180" class="cls-2" d="M46.43,54l-5.14,2.78c-2.61.68-1.65,2.47-1.29,3.5a36.5,36.5,0,0,1,2.5,5.43c.27,1.23-3.71,8.36-3.71,8.36-1,.12-5.06-.9-3.15.35l2.08,1.22-.15,2.43c0,3,1.21-.81,1.93-1.93l4.79-9.07c2.42-1.16.89-3,.07-3.79l-1.5-2.57c-1.09-1.65.29-2.06,1.43-1.86,2.16-.47,2.57-.81,3.21-1.43,1.42-.6,3.36-1.57,4.07-3.07Z"/><path id="path4180-4" class="cls-3" d="M46.41,54.07l-5.15,2.78c-2.61.68-1.64,2.47-1.28,3.5a36.5,36.5,0,0,1,2.5,5.43c.26,1.23-3.72,8.36-3.72,8.36-1,.12-5-.9-3.14.35l2.07,1.22-.14,2.43c0,3,1.2-.81,1.93-1.93l4.78-9.07c2.42-1.16.9-3,.07-3.79l-1.5-2.57c-1.09-1.65.29-2.06,1.43-1.86,2.16-.47,2.58-.81,3.22-1.43,1.42-.6,3.36-1.57,4.07-3.07Z"/><path id="path4168" class="cls-4" d="M24.54,32.05c1.35-1.36,2.48-2.81,5.66-3.44,6.3-4.1,14.17-2.55,17.78,1l8.18,8.09L59.29,57.3c-1.38-.19-3.46.64-4.86-2.16C39,52.27,22.21,37.59,24.54,32.05Z"/><path id="path4168-8" class="cls-5" d="M24.52,32.08c1.35-1.36,2.47-2.81,5.66-3.44,6.29-4.1,14.17-2.55,17.78,1,2.79,2.77,6.1,6,8.18,8.08l3.13,19.6c-1.38-.19-3.47.64-4.87-2.16C39,52.29,22.18,37.62,24.52,32.08Z"/><path id="path4168-9" d="M39.11,25.35c-.45,0-.9,0-1.34,0-2.71.15-6.18.82-7.86,3.09-2.72-.38-4.34,1.32-5.83,3.21-.95,2.65.76,5.26,2.21,7.36,4.39,5.77,10.42,10.13,16.83,13.41,3.31,1.63,7.52,3.54,11.15,3.24.23,2.36,2.26,2.6,4,2.28.52-.48,2.28.61,1.94-.42L56.91,37.05c-3-2.88-5.93-5.86-9-8.69a14.75,14.75,0,0,0-8.82-3Zm-.63,1.45a14.48,14.48,0,0,1,1.74.08,12.7,12.7,0,0,1,8.36,4l6.18,6a4.57,4.57,0,0,0-1.87,1.45c-1.14.8-1,2.39-1.54,3.55a9.15,9.15,0,0,1-4,3,.43.43,0,0,0,.43.72A9.75,9.75,0,0,0,52,42.47c.45-.88.73-2.78,1.07-3.16a6.73,6.73,0,0,1,2.33-1.72l.15.15,3.07,18.78c-1.51.19-2.94,0-3.55-1.79a14.91,14.91,0,0,1-5.31-1.08,50.24,50.24,0,0,1-20.4-13.07c-1.84-2.13-3.88-4.47-4.15-7.38.18-1.51,1.61-2.51,3-3.2-.11.12-.22.25-.33.36a5.08,5.08,0,0,0-1.28,3.43.43.43,0,0,0,.82-.17c.05-1.82,1.42-3.21,2.73-4.3,1.11-.41,2.08-1.14,3.22-1.55a14.57,14.57,0,0,1,5.1-1Zm1,3.14c-2.27.06-4,1.85-4.93,3.81a12.94,12.94,0,0,0-.94,2.44.43.43,0,0,0,.84.07c.73-2.06,1.69-4.44,3.91-5.25.46-.32,1.4.08,1.56-.6a.42.42,0,0,0-.44-.47ZM44,35.72a3.92,3.92,0,0,0-1.66,1.64,4.72,4.72,0,0,0-.61,2.81.4.4,0,0,0,.75-.18,4.18,4.18,0,0,1,1.82-3.6.4.4,0,0,0-.3-.67Zm1.5,1.39c-.62.15-.71,1-.94,1.49-.61,2.3.88,4.38,1.52,6.48a.43.43,0,0,0,.75-.39c-.5-1.93-2-3.77-1.46-5.86,0-.56.87-1.06.44-1.6A.41.41,0,0,0,45.48,37.11Z"/><path id="path4178" class="cls-6" d="M57,56.71a9.69,9.69,0,0,1,1,1.93,10.16,10.16,0,0,1,.15,2.28s1.52,4.82,2,7.22c.29,1.46.92,4.14.92,4.14-1.14,1.08-.59,1,.15,2.29A48.76,48.76,0,0,0,61.16,82c-1.55.58-2.08,1.86-1.43,1.72L62,83.42a19,19,0,0,1,.15,2.93c.36,1.3,1.68-1.59,1.28-2.78a37.53,37.53,0,0,0-.93-8.93c1.33-1.18.32-1.89-.14-2.72L62.58,69a35.67,35.67,0,0,0-1.78-7.92l-.07-3.93c-1-1.79-2.14-2.8-3.72-.43Z"/><path id="path4178-4" class="cls-7" d="M57,56.75a9.82,9.82,0,0,1,1,1.92A10.71,10.71,0,0,1,58.1,61s1.52,4.82,2,7.21c.29,1.46.93,4.15.93,4.15-1.15,1.08-.59,1,.14,2.28A50.22,50.22,0,0,0,61.1,82c-1.54.57-2.07,1.86-1.43,1.72L62,83.46a19.49,19.49,0,0,1,.14,2.93c.36,1.3,1.69-1.59,1.29-2.79a38.16,38.16,0,0,0-.93-8.93c1.33-1.18.31-1.89-.14-2.71L62.53,69a35.16,35.16,0,0,0-1.79-7.93l-.07-3.93c-1-1.78-2.13-2.79-3.71-.42Z"/><path id="path4182" class="cls-8" d="M30.73,52.46c.37,1,.43,2,1.5,2.79.3,1.22-1,2-1.57,2.85A8.71,8.71,0,0,1,26,59.46L28,60.67l.57,1.58a6.68,6.68,0,0,0,3.86-2.72c-.17-1,.49-1.54,1.07-2.14,1.5.35,1.15-.72.78-1.22-.83-1.15-.65-2.51-.57-3.85Z"/><path id="path4182-5" class="cls-9" d="M30.63,52.64c.38,1,.43,2,1.5,2.78.3,1.23-1,2-1.57,2.86a8.71,8.71,0,0,1-4.64,1.36l1.93,1.21.57,1.57a6.61,6.61,0,0,0,3.86-2.71c-.17-1,.49-1.54,1.07-2.14,1.5.35,1.15-.72.78-1.22-.83-1.15-.65-2.51-.57-3.85Z"/><path id="path4172-0" class="cls-10" d="M48.86,48.58c-1.42,0-1.81-.73-1.71-1.85.07-1.51-1.3-1.57-2.29-2-.31-1.43-2-2.63-2.57-4.29-.2-.55-1.53-1.31-2.43-2.29-1.38-1.5-2.76-2.49-4.43-2.57,0,0-2.09-.12-3.14-.14-2.33,0-4.71-.46-7,0A11.53,11.53,0,0,0,22,37.15a20.48,20.48,0,0,0-5.15-.42c-1.95.35-4.71,2.85-4.71,2.85l-4.86,1C2,43.09,2.89,46,8.29,49.3a87.52,87.52,0,0,0,14.43,3.14c4.26.48,8.57.05,12.86.86S41.16,54.7,44,55c3.12.34,9.42.14,9.42.14,1.25-.12,1.76-.49,1.86-1-5.07-1.85-4.81-3.71-6.43-5.57Z"/><path id="path4172" d="M27.69,34.47c-2.13,0-4.53.34-6,2.15-2.19-.4-4-1.28-6-.34a8.92,8.92,0,0,0-4.32,3.13c-1.57-.57-3.21.11-4.78.65-1.92.89-4.2,2.65-3.57,5s3,3.7,4.93,4.87c6.83,2,13.86,3.6,21,3.48,4.3-.09,8.47.95,12.62,1.92a56.18,56.18,0,0,0,12,.45c1.09.32,3.3-1.84,1.81-2.33A8.49,8.49,0,0,1,50,49.23c-.2-1.72-2.51-.91-2.36-2.48.09-2.41-3-2.14-3.44-4.3C43,41,42.38,39.12,40.65,38.14c-1.58-1.75-3.61-3.48-6.13-3.31-2-.1-4-.16-5.94-.31l-.89-.05Zm-.54,1.45c.46,0,.92,0,1.37,0,2.55.28,5.16,0,7.68.52,2,.7,3.11,2.63,4.78,3.8.72,1.26,2.1,2.22,3,3.44a12.76,12.76,0,0,1-1.85-.5c-.36-.07-.72-.12-1.09-.16-1.52-1.3-2.49-3.36-3.46-5.09-.24,1.2.9,2.67,1.28,3.79.43.38,1,1.68,1.51,2a6,6,0,0,1-.28,1.85A6.71,6.71,0,0,1,37.45,43a17.84,17.84,0,0,1-1.77-2.93c0,1.85,1.69,3.5,2.14,4.34a16.38,16.38,0,0,0,1.91,1.77,1.65,1.65,0,0,1-.49.41s-.06-.07-.08-.11a114.25,114.25,0,0,1-10-9c-.22-.21-.7-.62-1-.62.18.78.82.8,1.26,1.57a107.25,107.25,0,0,0,9,8.44c-1,.31-2.33-.57-3.17-.51A33,33,0,0,1,26,41.56a38,38,0,0,1-3.61-3.89A2.12,2.12,0,0,0,23.3,37,6.75,6.75,0,0,1,27.15,35.92Zm-9.6,1.42a4.49,4.49,0,0,1,.9.06c1,0,2,.37,3,.4.1.57,1.19,1.17,1.46,1.77,2.52,3.34,6.3,5.33,10.09,6.87l1.94.77a2.19,2.19,0,0,0,.58.22c2.18.84,4.37,1.63,6.6,2.27,1.72-.13,3-.51,4.12,1.06.73.4,2.43,1.23,2.92.91-1.74-.59-2.85-2.12-4.13-2.91a9.77,9.77,0,0,1-3.24-.08,19.38,19.38,0,0,0-1.95-1.46,4,4,0,0,0,1.26-3.46c1.16-.13,2.66,1.1,3.65,1.17.89.58,2.35.76,1.82,2.26.24,2,2.84,2,3.21,4.07.71,1.61,4.2,2.46,4.77,3.16-.77,0-1.62.06-2.47.08a16.75,16.75,0,0,1-2.34-.85A30.35,30.35,0,0,0,42.91,52,6.3,6.3,0,0,1,39,50.12a13.38,13.38,0,0,1-6.89-.93c-6.5-.47-13.07-.27-19.5-1.46-1.11-.38-2.94-.57-4.05-1.51A6.75,6.75,0,0,0,4.6,45.3a2,2,0,0,1,.61-2.73,7,7,0,0,1,4-1.72c.87-.23,1.35-.21,2-.44.19.83,2,1.34,2.59,2.05A15.17,15.17,0,0,1,19,45.13c3.28,1.62,7,2,10.39,3.34,1.71-1.21,2.88.59,4.78.9a7.91,7.91,0,0,0,4.1,0c-1.11-.26-3.41-.41-4.66-.75A23.9,23.9,0,0,1,31,47.18c-1.26,1.17-2.7-.21-4.07-.5-3.22-1-6.87-1.43-9.44-3.79.84-.22.8-1.47,1.92-1.37.91-.47,2.93-.78,2.93-1.45-1.65.47-4.92.93-5.44,2.44-1.22-.6-2.93-.55-3.87-1.83-.31-.25-.62-.48-1-.7,1.48-1.18,3.54-2.55,5.52-2.64ZM5.91,46.19a2,2,0,0,1,.73.12c1.65.51,2.94,1.8,4.77,2,4.39,1.13,9,1.18,13.5,1.41,2.44.15,4.92.09,7.34.43A13.44,13.44,0,0,0,38.7,51c2.32,2.27,5.8,1.77,8.65,2.79a16.55,16.55,0,0,1,2.26.74,52.61,52.61,0,0,1-7.19-.42C38.1,53.18,33.8,52,29.34,52a59.59,59.59,0,0,1-15.78-2c-2.26-.72-4.84-.83-6.71-2.42A7.07,7.07,0,0,1,5.22,46.2Zm33.52,1.28c.18.17,1.28,1.06,1.47,1.26a3.28,3.28,0,0,1-1.74-.56c-.12,0-.67-.31-.79-.36C38.53,47.78,39.28,47.53,39.43,47.47Z"/><path id="path4170" class="cls-11" d="M48,36.61c-4.74.56-4,2.07-3.71,3.43.44,2.45,1,4.71,2.57,5.29.42,1.72.58,1.06,3,5l1.86,2c1.42.76,3.14,2.1,4.57,1.14,2.35,3,4.31,5.39,6.28,4.57l8.29-11.43C70,44.69,69,42.85,66.3,42,62,37.71,59,37.14,55.43,37.49c-2.88-1.49-5.21-.74-7.42-.88Z"/><path id="path4170-0" class="cls-12" d="M48,36.28c-4.75.56-4,2.07-3.72,3.43.45,2.45,1,4.71,2.57,5.29.43,1.72.59,1.06,3,5l1.86,2c1.43.76,3.14,2.1,4.57,1.14,2.35,3,4.32,5.39,6.29,4.57L70.8,46.28c-.85-1.92-2.67-3.68-4.67-3.76-4.26-4.33-7.2-5.71-10.76-5.36-2.89-1.49-5.22-.74-7.42-.88Z"/><path id="path4170-7" d="M51.05,35.93c-1.12.11-2.24.25-3.37.26-1.53.24-3.53.46-4.2,2.09-.34,1.32.28,2.66.47,4,.35,1.45,1,3.14,2.72,3.45.13,1.93,1.36,3.13,2.15,4.58a19.68,19.68,0,0,0,2.44,2.88,6.07,6.07,0,0,0,4.7.77L56,54l.07,0A7,7,0,0,0,58,56.85c1.18,1.33,3,2.87,4.87,2.1.49-.28.71-.9,1.09-1.32L71.66,47c-.87-2.22-2.38-4.81-5.07-4.9a10.05,10.05,0,0,0-3.44-3.22,10.21,10.21,0,0,0-8.22-1.67,4.76,4.76,0,0,0-3.88-1.23Zm1,1.39a5.65,5.65,0,0,1,1.79.3,16.86,16.86,0,0,0-2.76,4,9.64,9.64,0,0,1-1.8,2.27,3.87,3.87,0,0,1-2.24,1,2.91,2.91,0,0,1-1.29-1.66,19.55,19.55,0,0,1-.94-4.34c.52-1.12,2.41-1.1,3.21-1.3a22.11,22.11,0,0,0,3.13-.22,6.77,6.77,0,0,1,.9,0Zm3.7.54a12.25,12.25,0,0,1,7.59,2.77A9.78,9.78,0,0,1,64.91,42a6.9,6.9,0,0,0-3.26,1.9A16,16,0,0,0,59,47.75c-.72,1.37-1.31,2.73-1.85,3.75a7.18,7.18,0,0,1-.75,1.24,2,2,0,0,1-.28.29,2.11,2.11,0,0,1-2.32-.12,6.25,6.25,0,0,1-2.25-1.6,10.82,10.82,0,0,1-1.89-2.42c-.62-1.13-1.68-2-2-3.29a4.81,4.81,0,0,0,2.22-1.11,10.68,10.68,0,0,0,2-2.46c1-1.68,1.91-3.39,3-4.1A8.24,8.24,0,0,1,55.73,37.86Zm10,4.84a3.24,3.24,0,0,0,.35.27,5.84,5.84,0,0,1,3.85,3.68c.09.45-.5.82-.7,1.23l-7.07,9.76c-1.48.35-2.53-1.16-3.45-2.07-.62-.71-1.21-1.44-1.79-2.18a1.47,1.47,0,0,0,.1-.13,9.18,9.18,0,0,0,.84-1.36c.56-1.07,1.14-2.42,1.84-3.75a15.13,15.13,0,0,1,2.55-3.66,5.85,5.85,0,0,1,3.48-1.79Z"/><path id="path4176-6" class="cls-13" d="M71.58,46.25c-3.7.66-2.65,2.11-2.89,3.11a5.55,5.55,0,0,0-3.45,4.5c-3.82,1.82-3.52,2.66-3.78,4.47a4.9,4.9,0,0,0,3.93,5.48c1.35.35,3.42.56,4.8-.37,1.57.4,2.13,1.31,3.7-.13a2.19,2.19,0,0,0,1.67-1c.58.74,1.14,1.13,2,2.06.57.6,4,2.84,4.81,2.28.51-.34,1.19-1.43.48-2.09a2.32,2.32,0,0,0,1.77-1.67c-.8-1.34-3-.54-3.78-.49C79.65,62.5,77,61.06,77,60.14c.81-1.22.23-1.67-.79-2.1a7.31,7.31,0,0,0,0-1.62c1.79-1,1-1.66,1.42-3.05a7.91,7.91,0,0,0-.78-4c-1.3-2.83-2.86-3.49-5.26-3.12Z"/><path id="path4176-6-9" class="cls-14" d="M71.62,46.15c-3.7.66-2.65,2.1-2.89,3.11a5.53,5.53,0,0,0-3.45,4.49c-3.82,1.83-3.53,2.66-3.78,4.47a4.88,4.88,0,0,0,3.93,5.48c1.34.36,3.41.56,4.8-.37,1.57.4,2.13,1.32,3.7-.12a2.23,2.23,0,0,0,1.67-1c.58.74,1.14,1.14,2,2.06.57.6,4,2.84,4.82,2.28.51-.34,1.19-1.42.48-2.08a2.34,2.34,0,0,0,1.77-1.67c-.8-1.35-3-.55-3.78-.5C79.69,62.39,77.05,61,77,60c.82-1.22.24-1.67-.79-2.09a6.27,6.27,0,0,0,0-1.62c1.79-1,1-1.66,1.42-3a7.74,7.74,0,0,0-.78-4c-1.29-2.83-2.85-3.48-5.25-3.11Z"/><path id="path4176" d="M73.25,45.24a4.46,4.46,0,0,0-2.94,0c-1.26.25-2.08,2.18-2.1,3.64-1.11.61-1.54.37-2.32,1.41a3.41,3.41,0,0,0-.76,3c-1.41.2-3.69,1.35-4.15,3a6.66,6.66,0,0,0,.66,5.66c1.54,2.2,4.51,2.94,7.06,2.55a3.41,3.41,0,0,1,3.15.06c1.16.25,2-.78,3-1.06,1-.92,1.61,1,2.47,1.46a11.39,11.39,0,0,0,4.59,2.34,1.76,1.76,0,0,0,1.45-2.53c.82-.4,1.85-1,1.89-2S84,61.23,83.16,61.2c-1.14-.14-2.28.58-3.37,0-.7-.36-2.51-.83-1.86-1.83.65-1.28-1.24-1.7-1.08-2.71a4.07,4.07,0,0,0,1.34-3.19,8.9,8.9,0,0,0-1.75-6.38,5.7,5.7,0,0,0-3.19-1.9Zm-.17,1.4a4.05,4.05,0,0,1,3.45,3,8.78,8.78,0,0,1,.75,3.24c-.09,1,.12,2.18-.93,2.69a3.78,3.78,0,0,0-.4,2.21c0,.78,1.31,1,.85,1.78s.16,1.33.83,1.78c1.28.93,2.54,1.93,4.15,1.45.67-.26,3.28-.18,1.85.64a2.27,2.27,0,0,0-1.39,1.89c0,.54,0,1.54-1,1A12.14,12.14,0,0,1,77,63.07c-.53-.41-.93-1.11-1.71-.92-.74-.07-.93.37-1.74.33-.8,1-1.92.57-2.89.12s-1.53.52-2.37.5c-2.15.2-4.74-.41-5.79-2.49a5.9,5.9,0,0,1,0-4.18c.68-1.17,2.64-2,3.68-2.68.33-.66-.15-1.16.34-1.83a5,5,0,0,1,2.47-2.19c.84-.56.06-1.74.76-2.35a6,6,0,0,1,3.39-.74Z"/><path id="path4174" class="cls-10" d="M46,37.36c-2.74-1.31-5.89-4.22-9-7-1.37-2.55-3.85-4.36-3.14-8.29-2-3.38-2.91-6.76-1.86-10.14,0-2.65-1.54-4.62.86-8.29C39,3.82,42,5.92,43.6,8.79c2,0,5.43,3.8,6,7.14,1.9,1.81,3.9,3.56,3.57,6.86,1.72,1.35,3.43,2,5.15,7.71,1,.51,2,.95,1.85,2.57,2.26,2.15,1.4,2.92.29,3.57l1.14,1.29-1,.86a12,12,0,0,0-6-.72C52,35.89,49,36.55,46,37.36Z"/><path id="path4174-0" d="M32.49,2.83a8,8,0,0,0-1.61,6.78,10.17,10.17,0,0,0,.84,1.92,6.86,6.86,0,0,0-.83,3.56A11.65,11.65,0,0,0,33.49,22c-1.22,2.43.39,5.11,1.92,7a8.39,8.39,0,0,0,2.29,2.76c2.58,2.27,5.11,4.69,8.24,6.18,2.56-.72,5.67-1.5,8,.33,1.31.91,3.27-.23,4.78.49.85-.06,1.83,1.14,2.48.29l2.07.53c.11-1.09-.3-3.67-1.34-3.67.61-1.1-1-2.6-1.18-4.14a3.34,3.34,0,0,0-2.27-2c0-.78-.18-1.19-.2-1.74-.74-2.38-3.82-6.11-4.59-5.57.8-2.15-2.53-7.16-3.88-7.15.65-.36-.37-3.42-2.1-4.8-.78-1.38-3.21-2.87-4-2.63a3.69,3.69,0,0,1-.63-1C41.07,4.68,36.52,2.88,32.49,2.83Zm1.7,1.26c1.17,0,2.71.82,3.71,1a10.1,10.1,0,0,1,5.07,4,1,1,0,0,0,.24.23c.1.62,1.12,1.44,1.24,2.12,2.12,3.84,3.43,8.08,5.46,12-1.13-1.41-2.23-2.85-3.3-4.3-1.41-2.42-2.5-5-4.09-7.29a52.35,52.35,0,0,0-3-4.6c-.28.25.61,1.28.77,2,1.78,3,3.29,4.88,4.63,8.14,1,2.42,2.72,4.37,4.22,6.48a20.78,20.78,0,0,0,3.39,3.37,1.15,1.15,0,0,1-.18,1.78,14.12,14.12,0,0,0-1-1.54,56.08,56.08,0,0,0-7.52-8.9c-2.58-2.62-5.34-5.31-8.84-6.62,0-.57-1.09-1.13-.78-1.85a12.64,12.64,0,0,0,.3-4.26c-.86,0,0,2.15-.46,2.95a2.86,2.86,0,0,0,0,3l-1.32-.11c-.11-2.12-1-4.3,0-6.37a1.38,1.38,0,0,1,1.52-1.08Zm10.3,5.66a1.78,1.78,0,0,1,1,.7,9.94,9.94,0,0,1,3.4,5.74l.12.11a.75.75,0,0,0,.11.68,12.69,12.69,0,0,0,1.3,3.63c1.87,3.22,4,6.38,4.94,10,0,.12,0,.24,0,.36A5.31,5.31,0,0,0,54,29.86c-1.65-.39.31-1.45-.54-2.59a3.89,3.89,0,0,0-1.26-1.51,5.07,5.07,0,0,1-1.31-1.91c-2.48-4.57-3.73-9.65-6.44-14.1ZM32.86,12.41a5.9,5.9,0,0,1,3,.68A17.49,17.49,0,0,1,38,14.4a3.33,3.33,0,0,0-1.13,3.54,21,21,0,0,1,.52,3.46c-.81-.06-1.63-.09-2.42-.1l-.62-.05c-.42-1-1.29-1.88-1.42-3a10.24,10.24,0,0,1-.34-5.85,1.62,1.62,0,0,0,.3,0Zm5.82,2.49a77.14,77.14,0,0,1,7,6.57,50.38,50.38,0,0,1,6.17,8.25,1.39,1.39,0,0,1,0,.75A69.37,69.37,0,0,0,42.57,23a9.56,9.56,0,0,0-4.38-1.53,5,5,0,0,0-.06-1.17c-.22-1.33-1.08-2.61-.88-4,.17-.58,1.17-1,1.43-1.43Zm11.39,2.39c1.38,1.39,2.61,3,2.4,5.06,0,0,0,.06,0,.08-.16-.27-.52-.5-.68-.77a11,11,0,0,1-1.64-3.32c-.1-.34,0-.71-.06-1.05ZM34.55,22.12a15.53,15.53,0,0,0,1.69.09,10.43,10.43,0,0,1,6.57,2c4.53,3,8.33,7,12.49,10.45.8.39.83,1.5,1.13,2.22.08.18-.11.63-.24.41a18.09,18.09,0,0,0-5.85-5.76c-.12-.08-.56-1-.94-1.4-.24-.26-1.84-1.83-2.19-1.61.21.12,1.79,1.47,1.6,1.78.09.42-.24.5-.54.44-.74-.13-1.57-.21-2.4-.29-1.57.07-2.88.53-4.53-.07a17.25,17.25,0,0,1-2.14-1c-.94.08,1.45,1.28,2.22,1.89a9.62,9.62,0,0,0,4.17,0c1.34.13,3,.17,4,.73a38.37,38.37,0,0,1,6,5.21,4.63,4.63,0,0,1-2.7-1,6.13,6.13,0,0,0-2.48-.49,13.16,13.16,0,0,1-1.36-.83c-.59-.39-1.58-.91-2.05-.57.28.33.9.35,1.45.73a2.51,2.51,0,0,1,.8.8A9.21,9.21,0,0,0,48.1,36c-.06,0-2.2-1.48-2.49-1.75-1.15-.7-2.32-1.15-2.37-.91.26.61,2.91,1.94,2.42,1.69s1.27.88,1.58,1.22c-.41.1-.7.11-1.1.22-3.23-1.73-5.86-4.34-8.6-6.72-1.26-2.21-3.44-4.26-3.07-7a1.79,1.79,0,0,0,.08-.64Zm18.68,1.14a5.26,5.26,0,0,1,1.21,1.34c1.8,1.63,2.57,4,3.26,6.3a2.28,2.28,0,0,1,1.79,2.43c.85.66,2.36,2.56.74,3.09-.09.19-.58-.08-.46-.36a3.83,3.83,0,0,0-2.45-2.73c-.33-.21-.66-1-.94-1.33h0C56.12,29,54.47,26.28,53,23.66c-.25-.54-.15-.66.28-.4ZM38.08,26.53c0,.55,2,.5,2.74.88a42.89,42.89,0,0,1,6.69,2.69c-.06-.6-2.71-1.76-3.43-2.26-1.74-.71-4.3-1.5-6-1.31ZM52.74,30A11.56,11.56,0,0,1,55,31.63a11.51,11.51,0,0,0,2.73,3,3.83,3.83,0,0,1,1.09,1.7c-.37-.09-.27.57-.51.51-.47-.11-.65.12-1.12.09.41-.78-.63-2.26-1.26-2.92-1.13-.95-2.24-1.94-3.35-2.93A1.86,1.86,0,0,0,52.74,30Z"/><path id="path4397" class="cls-15" d="M66.38,54.56c3-.92,4.62,1.75,6.46,4.49.8,1,.84,1.89-.67,2.83a8.09,8.09,0,0,1-5.45.83c-1.07-.15-4.12-.18-4.06-4.49,0-2.5,2.14-3.17,3.72-3.66Z"/><path id="path4399-6" class="cls-16" d="M72,47.11c-1.19.85.4,2.22,1.36,3.79a26.07,26.07,0,0,1,2.85,4.71c2.44.32,1-6.23.5-6.78C75.16,47.15,73.57,46,72,47.11Z"/><path id="path4399" class="cls-17" d="M71.8,47.07c-1.19.84.4,2.21,1.36,3.78A25.92,25.92,0,0,1,76,55.57c2.44.31,1-6.24.5-6.79C75,47.11,73.38,45.93,71.8,47.07Z"/><path id="path4401" class="cls-18" d="M72,58.93A4.85,4.85,0,0,1,67,63.56h0A4.65,4.65,0,1,1,72,58.93Z"/></g></svg>