<svg id="svg2" xmlns="http://www.w3.org/2000/svg" xmlns:xlink="http://www.w3.org/1999/xlink" viewBox="0 0 470.38 779.19"><defs><style>.cls-1{fill:#ded2d2;}.cls-2{fill:#fff;}.cls-3{fill:#aaa;}.cls-4{fill:url(#linear-gradient);}.cls-5{fill:#eda69e;}.cls-6{fill:#ffd3ce;}.cls-7,.cls-9{fill:none;}.cls-7,.cls-8{stroke:#000;}.cls-7,.cls-8,.cls-9{stroke-linejoin:round;}.cls-9{stroke:#fff;}</style><linearGradient id="linear-gradient" x1="186.4" y1="464.79" x2="202.3" y2="464.79" gradientTransform="matrix(1.39, 0, 0, -1.39, -45.28, 877.49)" gradientUnits="userSpaceOnUse"><stop offset="0" stop-color="#c75466" stop-opacity="0.39"/><stop offset="0.45" stop-color="#79ff9b"/></linearGradient></defs><title>cat-05</title><g id="g3658"><path id="path16" class="cls-1" d="M193.7,217c-14.09-.47-16.19-.72-21.21.95a7.07,7.07,0,0,0-4.66,5.42c-.62,3.21.5,8-2.33,10.6-2.05,1.9-4.09,8.34-4.09,11.47,0,3.92,3.41,8.94,2.84,8.55-1.09-.73-2.17,3.82-1.89,6,.32,2.56,2.22,4.45,0,3.48-5.34-2.32-15.93-6.53-25.46-11.29-3.76-1.88-11.07-4.15-12.9-7.54A92.5,92.5,0,0,1,117.11,230a196.13,196.13,0,0,1-9.31-28.33C103.93,185,100.93,165.19,94,150.09c-5.64-12.3-9-19.24-13.33-30.86-2.16-5.84-1.06-8.92-3.43-14.14-1.59-3.52-6.72-9-8.5-13.16-2-4.69-.83-5.43-.79-11.13,0-5.52.8-14.43-1-17.55S59.28,55,55,55C53.16,55,53.94,57.3,53,56c-1.45-1.9-1-4.91-2.36-6.75-2.35-3.28-6.34-5.11-8.77-6.6-1.5-.92-3-5-5.31-6.43-2.06-1.29-4.91,0-5.93,0-3.15.09-3.3,7.87-5.87,11-.69.84-2.34-1-3.92-1.19C19,45.88,17.26,47.37,16,47.7c-2.71.68-4.45,8.69-4.77,11.18-.35,2.81.86,4.16,1.93,8.43.4,1.63-.06,1.75-3.09,3.35-1.26.67-2.59,4.89-1.93,6.28,1.43,3,5,6.5,7,8.91,2.37,2.87,9.42,6.15,9.07,8.45-.58,3.73,2.57,8,4.55,11.27,3.54,5.91,9.65,9.5,12.55,15.55.77,1.62,1,3.16,1.63,4.79,2,4.75-1.12,8.85.27,12.64,1.72,4.67,6.26,8.43,6.26,13.29,0,47.51,7,80.6,21.43,120.39,8.91,24.5,28.78,65.1,46.29,90.88,1.92,2.85,4.43,4.82,6.27,7.28,1.27,1.7-.6,4-1.13,5.92-.69,2.52-.42,4.68-1,7.08-1.48,6.72-1.53,12.8-2.25,18.15-2.29,17.11-2.64,30.14.2,53.87,2,17.13,11.09,38.89,19.61,53.17,2.84,4.77,4.09,5.56,5.38,8,.89,1.68,2.33,1.38,2.14,2.6-1.34,8.71-1.78,13.38-1.68,20.13.24,14.92,2.9,27.76-.13,42.12-4.82,22.81-9.67,44.46-12.83,64.53-3.43,21.8-5.22,39.24-6.68,56.39-.14,1.57-1.06,9.54-1.06,16.12,0,3.8.32,6.48,0,8.59-.62,4.21,1.63,2.15-.21,3.8-1.33,1.19-3.63,1.17-5.46,1.86-3.47,1.29-6.71,2.93-8.58,4.8-4.7,4.68-7.25,9.23-7.21,9.57.83,6.57,0,12.3,4.72,14.53,2.46,1.15,8.51,6,13.15,1.2,1.2-1.23,3.37,2.34,4.67,1.45,1-.68,2.27-.39,3.36-.27,1.49.16,2.8-1.82,4.41-1.24a19.93,19.93,0,0,0,9.49,1.24c5-.68,9.1-4.33,11.12-5.8,3.59-2.62,6-8.5,7.95-12.52,1.41-3,1-5.41,1-9.43,0-5.64-1-8.14,0-14.88.82-5.76,1.37-13.33,2.46-17.7,2.63-10.52,3.28-18.63,4.25-17.21,1.1,1.6,3.77,5.85,6.41,6.29.83.13,13,4,15.68,4.55,1.56.33-5,1-3.42,1.81,6,3,16.06,6.57,20.24,9.55,1.35,1-6.38-.36-4.71.27,4.5,1.7,9.17,5.83,12.72,8.69,3.35,2.69,5.75,4.17,4.78,4.52-3.05,1.11-11.1-.69-15.62.89-5.24,1.83-9.29,3.27-12.44,6s-6.24,7.87-6.58,11c-.26,2.42-.24,4.49.74,6.29.87,1.61,2.73,3.2,4.29,4.78s9.24,1.54,15.08,0c3.5-.92,3.22,0,7.17,0,4.51,0,9.33-2.34,12.63,0,1,.69.44,2.46,1.33,3.41,1.79,1.89,3.34,4.8,6.15,5.79,3,1,8.2-1.14,11.25.54a29.34,29.34,0,0,0,11.69,3.22c8.41.59,18.59-2.09,27.67-1.76,11,.41,25.93,0,37.14,0,10.16,0,14.83.43,24.49.07,20-.74,38.73.84,52.42-1.57,6.33-1.12,12.46-1.2,16.55-2.67,4.52-1.63,7-5.73,8.08-7.82,1.64-3.16,7.52-10.69,8.36-17,.29-2.21,1-2.66,1.61-4.36.72-2.08,1-5.8,2.69-6.26a11.59,11.59,0,0,1,3.49-.59c1,0,2.31.32,3.16-.77,3.38-4.34,4.86-12.64,7.85-17.7,1.42-2.42,3.52-5.6,3.79-7.55a104.68,104.68,0,0,0,1.21-16c0-9.24-4.24-19.82-5.75-29.52-.56-3.59,2.9-7.54,2.15-11.15a265.12,265.12,0,0,0-14.25-46.29c-2.68-6.56-7.78-10.58-12-16.49-5.07-7.15-10.09-12.57-13.86-19.9-1.23-2.4-3.42-4.1-5.06-6.53-3.38-5-6.62-10.63-9.63-14.75-3.53-4.83-4.91-9.38-6.37-13.85-.55-1.7-.54-3.6-1.51-5.2-8.62-14.2-15-23.44-16.42-25-12.64-13.95-25-26.33-35.89-36.45-3.75-3.48-27.33-24.39-33.67-31.75a116,116,0,0,0-11.22-11.62c-4-3.42-3.34-10.7-7.69-12.4-3.74-1.45-4.91-2-7.17-5.16-2.7-3.73-2.87-8.76-3.86-12.47-1.43-5.36.33-11.38,6.12-24.22,3.08-6.84,7.57-18.55,12.6-27.53,12.29-21.95,18.71-42.29,18.71-60.74a183.49,183.49,0,0,0-2.09-27.79c-.59-3.83-.31-6-.51-7.45-.65-4.65,2.58-11.91,3.66-20.3a62.24,62.24,0,0,0,.75-9.84c0-1,.49-2.73,0-3.06-1.49-1-1.11-7.19-2.48-7.61-6.91-2.14-12.77,2.59-21.79,10.62A39.53,39.53,0,0,0,282,210.5c-1.46,2.17-2.58,5-3.11,3.78-2.54-5.67-4-5.14-6.12-7.57-.63-.75,0,6-.5,4.44-1.35-4.44.12-7.49-.28-9.49-.95-4.62-.69-5.06-2.29-9.77a44,44,0,0,1-2.31-8c-1.24-7.39.57-19.64-3.66-16.87-2.48,1.63-1.65-1.16-3.43,7.19-.9,4.23-1,8.53-2.16,12.06-1.76,5.41-1.34,9-1.92,13.07-.4,2.8,1.24,1.45,0,4.06-.77,1.62-5.34-1.76-6.34-.43s-4.68-.6-7.84-.69c-8.27-.23-18.07-1.06-25.44,1-9.25,2.62-15.39,11.35-24.23,13"/><path id="path18" class="cls-2" d="M202.1,593c-2.54,5.93-25.25,58.77-21.68,64.13.4.6.37.1,6.48,1.77,2.77.76,13.07,6.84,16.25,8.86,1.11.7-.44-3.45.68-2.54,5.27,4.28,3.21,3.32,8.5,6.6,7.78,4.84,22.22,12,24.12,13.34,1.27.89,8.88,4,14.47,10.92,1.31,1.61,5.28,4.76,6.67,6.43,3.55,4.27,5.11,8.41,6.63,12.25.52,1.31-2.53-10.25-1.86-9.32,1.66,2.34,4.19,7.08,7.48,10.55,2.12,2.24,3.5,5.93,4.08,5.35,1.06-1.06,23.55-.84,23.15-1.59-1.24-2.29-1.87-1-5.61-2.7-.64-.28-6.78-2.3-7.37-2.86-4-3.73-3.88-3.23-8.68-7.43-2.69-2.37-6.64-8.83-9.18-11.21-7.67-7.14-12.4-19-13.41-24.36-.84-4.5-6.57-14.22-8.09-23.23-.95-5.66-.45-9.1-.69-12.32-.11-1.41.48-4.86-.68-4.93-3.37-.21-7.93-12.15-12.89-15.47-4.63-3.1-5.3-2.51-10-5.86-5.14-3.67-10.33-7.08-12.8-9.78-2.32-2.53-4.54-9.07-5.59-6.6Z"/><path id="path20" class="cls-3" d="M24.52,47.58C19,50,10.92,75.37,11.26,76.65c.57,2.13,31.42,47.64,37.1,44.8,5.4-2.7,22.55-49.77,19.46-58C67.14,61.62,65,60.58,63.9,59s-2.51-3.15-4.7-3.39c-2.71-.3-6.84,5.33-7.71,2.74C50.38,55,37.52,36.7,36.6,36.28A11.17,11.17,0,0,0,30.2,36c-5,1.79-1.77,9.86-5.68,11.56Z"/><path id="path22" class="cls-3" d="M253.53,739.74c-6.61.63-13.21,5.34-14.05,12.07-.31,2.47,1.4,8.25,4.71,8.25,1.56,0-.8-2-.83-5.08,0-2.7,1.39-6,2-7.38,1.09-2.39,3.34-4.1,5.52-5.71C251.07,741.75,255.28,739.57,253.53,739.74Z"/><path id="path24" class="cls-3" d="M209.83,728.28c-5.31,0-13.49,5.34-15.2,10.14-1.93,5.39-.32,11,7.19,13.1,2.44.68,4.66.07,4-.91s-4-2.18-5.43-4a9.27,9.27,0,0,1-1.69-7.85c1.15-4.31,11.24-10.47,11.09-10.47Z"/><path id="path27" class="cls-4" d="M220.8,225.62c-.7,2.72-5.31,1-6.76,4.34-4.57,10.39,15.39,12.87,20.64,7.62,3.49-3.49-6.26-10.07-8.38-11.13C224.64,225.62,221.26,223.82,220.8,225.62Z"/><path id="path29" class="cls-5" d="M274.78,223.7c0-2.68,5.19-10.3,6.37-12.07,5.43-8.15,14.07-15.76,23.51-18.12.61-.15,3.38-1.51,3.87-.53a28,28,0,0,1,3,11.05c.65,11.72-3,27.68-8.51,39C299.33,250.62,295,256.2,289,257.2a11.43,11.43,0,0,1-7.89-1.29,14,14,0,0,1-5.71-7.23,22.41,22.41,0,0,1-1.3-10.25c0-.27.73-14.37.73-14.73Z"/><path id="path32" class="cls-3" d="M301.45,477.17c-25.32-2.67-22.09,44.56-34.55,56.25-10.8,10.13-22.68,20.09-36.08,26.8-1.12.55-16.28,9.56-14.16,11.26,17.58,14.07,64.76-24.84,70.79-41.41,2.58-7.09-4.63-22-.92-26.94,4.53-6,17-4.1,18.58-14.62.56-3.64.81-10.87-3.66-11.34Z"/><path id="path34" class="cls-3" d="M335.75,478.13c-11.95,5,3.2,32.15-2,44.25-8.81,20.54-41.7,19.67-52.18,36.7-11.59,18.84,37.63-3.49,39.9-4.48,26.91-11.66,28.35-27.52,23.53-52.81-1.17-6.12-2.19-26.61-9.27-23.66Z"/><path id="path36" class="cls-3" d="M372.46,553.33c-10.28-4.9,0,12.67-2.94,14.35a3.42,3.42,0,0,1-1.55.22c-3.18,0-35.28-1-17.4,10.2C370.25,590.4,393.51,563.38,372.46,553.33Z"/><path id="path38" class="cls-3" d="M394.3,580.17c-2.36-2.73-3.47,7.62-5.33,9.23-2.07,1.8-15-.24-10.64,6.41,2.91,4.45,23.12,7,24.95,1C405.48,589.58,398.22,584.72,394.3,580.17Z"/><path id="path40" class="cls-3" d="M168.72,565.55c-2.73.33-15.92,8.61-11,10.12,13.11,4,26.8-7.18,34.39,10.54.23.54,1.94,5.81,2.66,5.33,22.39-14.93-14.76-27.36-26.06-26Z"/><path id="path42" class="cls-3" d="M148.6,581.82c-3.33.27.58,10.75,4,11.4a27.57,27.57,0,0,0,5,.21c20,0,18.17-9.24-.34-11.61A44.52,44.52,0,0,0,148.6,581.82Z"/><path id="path44" class="cls-3" d="M178.21,591.72c.66-.13-14.75,6.17-12.78,10.9,1.34,3.21,30-1.43,30.95-3.34C198.3,595.43,175,592.37,178.21,591.72Z"/><path id="path46" class="cls-3" d="M147.81,533.73c2,5.85,12.77-3.72,17.6-.64s.52,12,4.76,13.94c5.87,2.67,16.21.93,22.54.93,28.09,0-15-11.65-18.12-13.71-8.71-5.8-3.92-28.56-21.5-21C146.73,516,146,528.4,147.81,533.73Z"/><path id="path48" class="cls-3" d="M160.12,486.84c-1-1.59.55,4.55.87,5.12,3.1,5.46,8,10.56,14.76,9.76,8.63-1,18.5-11.77,25.21-16.5,3.9-2.75,16.2-7.7,11.51-8.48-8.32-1.39-47.42,17.67-52.35,10.1Z"/><path id="path50" class="cls-3" d="M267.54,748.85c-10.63,1.09,1.87,10,1.73,10.38-2.39,7.19,7.37-3.83,13.7-3.26,5.88.54,27.51,9,32.62,3.92.34-.35-9.46-5.53-10.44-6.31-2.92-2.34-3.59-8.05-7.5-9a16.27,16.27,0,0,0-2.93-.55c-7.58-.44-5,7.54-11.31,8.59-5.44.91-9.32-4.42-15.87-3.75Z"/><path id="path52" class="cls-3" d="M183.24,664.53c1.74.85,1.24.56.17,2.3-.93,1.52-3.79,5.38-2.68,7.46.36.68,5.09,3.21,3.77,4.69a109.41,109.41,0,0,0-7.37,11.57c2.7,4.32,23.43,11.43,27.73,8.21,2.37-1.78-5.7-7.78-5.2-10.31,1-4.76,12.63-2.27,10.31-10.64-1.66-6-9.43-4-12-7.79-.73-1.09,3.77-1.66,3.27-2.93-1.13-2.82-19.32-3.2-18-2.56Z"/><path id="path54" class="cls-3" d="M230.59,685.64c-1.28,0,4.58,8.79,2.92,10.46-1.21,1.2-10.62.22-10.66.51-.27,1.9,4.54,8.12,3,9.23-4.09,3-13,.54-16.45,4-.27.27,3.35,2.4,3.67,2.64,2,1.49,3.94,5.38,6.36,6.19,2.72.9,6.91-4,12.44-2,.06,0,.9.32,1,.17,1.27-2.53-2.84-6.13,1-7.9,1.89-.87,7.87.66,8.94-.41,2.65-2.64-7.43-5.2-6.82-8.88.19-1.11,2.35-1.25,3.16-1.38,13.91-2.14-1.52-12.71-8.6-12.63Z"/><path id="path56" class="cls-3" d="M255.06,702.56c-1-.68,2.75,6.29,2.22,8.06-.43,1.46-8.39-.63-9.44,1.3-.42.76,5.28,3.44,4.95,3.69-2.88,2.11-9.12.3-11.39,2.56,0,0,6.46.75,7.07.77,5.14.12,11.55-1.4,16.55.27.12,0-6.14.7-9.13-2.3-.63-.63,7-1.44,7.29-1.75,1.33-1.33-4.46-.37-5.27-2.07-1.77-3.73,3-6.59-2.85-10.53Z"/><path id="path58" class="cls-3" d="M154,656.85c-6.29-4.55-20.64,23.65,13.53,9.29,2.56-1.07,8.38-2.61,8.65-6.16.47-6-19-.81-22.18-3.13Z"/><path id="path60" class="cls-3" d="M135.19,649.21c.85,1.91-.51,33.11,5.57,29.73,4.9-2.72-3.34-17.41-3.22-22.46.06-2.54-3.38-9.6-2.35-7.27Z"/><path id="path62" class="cls-3" d="M138.74,633.75c-6.47,1.22,28.33,24.74,31.38,16.2C172.16,644.22,143.45,632.86,138.74,633.75Z"/><path id="path64" class="cls-3" d="M167,626.23c-1.25-2.74-6.82,6.76-1.2,10.8,3.86,2.78,8.72-1.86,11.84-3.75,1.33-.81,5.27-2.35,5.48-4.23C183.68,624.28,168,628.27,167,626.23Z"/><path id="path66" class="cls-3" d="M142.33,607.48c3.77,20.8,14.52,6.76,27.08,6,1.33-.08,13.06.59,12.49-1.28C181,609.1,171,609.18,168.55,609c-7-.42-16.1,2.11-22.75.32-1-.27-3.59-2.52-3.47-1.87Z"/><path id="path68" class="cls-3" d="M368.65,625.74c7.51-.63-16.59-.23-24.09.49C331.81,627.44,293,642.85,298,659.8c2.75,9.38,14.42-9.17,18.65-12.37,13.45-10.19,31.14-9.62,47.31-9.62,3,0,18.37-1.89,13.25-6-1-.81-13-5.71-8.59-6.08Z"/><path id="path70" class="cls-3" d="M350.72,592.33c-5.27-6.47-5,10.86-7.77,12.44-1.17.65-26.55,4.18-24,5.82,8.17,5.21,43.42,4.07,41.58-10C359.93,595.79,353.41,595.63,350.72,592.33Z"/><path id="path72" class="cls-3" d="M374,616.42c-3.15,1.26,0,2.31,2.33,4.15,8.56,6.91,35.09.92,44.82-4.92,1.79-1.07-11.89-1.47-13.73-1.56C396.42,613.58,384.41,612.29,374,616.42Z"/><path id="path74" class="cls-3" d="M298.81,684.44c-1.39,1,3.5-6.59,4.7-7.62,7.1-6.09,18.13-5.68,26.77-4.08,3,.57,12.3.89,9.22.89-4.29,0-38.16,9.06-40.69,10.81Z"/><path id="path76" class="cls-3" d="M316,689.41c-9.41-20.16,74.61,7.25,41.92,1.06a121.8,121.8,0,0,0-22.16-1.77C326.23,688.7,319.64,697.2,316,689.41Z"/><path id="path78" class="cls-3" d="M303.07,698.63c-10.37,12.09,40.06,6.91,48.3,6.91,11,0,21.51,2.88,31.38,7.27.15.06,1.94.73,2.13.35,4.31-8.63-22.3-11.57-47.15-13.59-15-1.22-30.84-5.4-34.66-.94Z"/><path id="path80" class="cls-3" d="M364.71,667.92c-13.55-8,17.11,28,27.68,12.1,6-9.06-25.25-10.67-27.68-12.1Z"/><path id="path82" class="cls-3" d="M331.11,667.86c-1.67-.48,11.18,9.26,14,10,3.45.94,9.44-7.37,11.84-9.48.22-.19,5.35-4.16,5.24-4.24C355.58,659.76,339.18,670.2,331.11,667.86Z"/><path id="path84" class="cls-3" d="M353.24,646.73c-.86-2.61-3.33,6.28-3.24,7.35.17,2,38.25,2,40.39-4.48.11-.32-8.44-1.2-9.22-1.25-7.69-.47-15.35-1.87-23.06-1.87-1.47,0-4.48,1.43-4.87.25Z"/><path id="path86" class="cls-3" d="M349,646.48c-5-8.68-27.55,6.69-32.66,12.34-2.68,3-15.22,4.24-11.22,4.24,7.89,0,48.32-8.95,43.88-16.58Z"/><path id="path88" class="cls-3" d="M272.31,571.07c-18.87-7.14-23.83,17-41.44,18.76a14.18,14.18,0,0,1-1.84,0c5,0,10,.11,15,.23C250.06,590.21,281.2,574.43,272.31,571.07Z"/><path id="path90" class="cls-3" d="M263,589.49c-25.45,11.43-32.88,16.45-29.81,20.14,10.55,12.65,15.58-5.49,21.41-11.51C255.51,597.17,265.65,588.29,263,589.49Z"/><path id="path92" class="cls-3" d="M259,610c-2.24,1.74,6.17-10.5,7.36-11.39,9.27-7,18.95-6.46,29.93-8.29,5.38-.9,21.33-3.91,15.88-3.91C304.5,586.38,265.38,605,259,610Z"/><path id="path94" class="cls-3" d="M281.17,576.94c7.51,5.82,17.74-2.13,26.13-5.53,12.84-5.19,33-16.7,19.1,4.15-5.37,8.06-48.77-1.36-45.23,1.38Z"/><path id="path96" class="cls-3" d="M264.35,615c-2.22,7.87-18,5.36-20.11,9.64a.24.24,0,0,0,0,.28c10,10,18.64,2,19.69-9.08C264,614.92,265.1,612.3,264.35,615Z"/><path id="path98" class="cls-3" d="M270.29,626.56c10.28-7.35,14.13-13.18,27.87-14.95,2.4-.3,7.26-.55,7.26-.55s-22.52,6.34-32,12.85c-.79.54-5.08,4-3.14,2.65Z"/><path id="path100" class="cls-3" d="M360.74,528.22c.49-1.41-3.31,7.74-4.92,8.45-7.13,3.14-9.85,2.16,1.09,5.72,4.31,1.4,12.76,3.53,17,1,.53-.32-15.09-9.68-13.2-15.14Z"/><path id="path102" class="cls-3" d="M363.24,506.52c-1.7-.92-1.34-.7-1.34,1.46,0,18.42,17.72,14.14,19.21,29.06,0,0,.13,2.31.37,2.31a1.54,1.54,0,0,0,1-.24c25.39-14.51-28.87-48.87-30-56.55-.15-1-.31-4.46-2.06-4.13-9.81,1.84,15.73,29.63,12.89,28.09Z"/><path id="path104" class="cls-3" d="M403.93,558c-2.3-2.46-2.82-6-5.57-8.15-17.43-13.83,6.35,29.17,15.95,23.1C421.12,568.61,406.6,560.81,403.93,558Z"/><path id="path106" class="cls-3" d="M88.58,152.64C76.23,148.1,74.15,167,63.1,172c-.48.22-12.61,6.49-11.12,7.24,11.42,5.71,47.29-22.72,36.6-26.64Z"/><path id="path108" class="cls-3" d="M107.42,203.12c-11.9,24.41-53.46,3.55-48.89,29.43.37,2.1,2.58,13.47,4.9,14.63C66,248.47,72.81,234.11,74.74,236c2.6,2.6-4.58,10.37-.68,13.29,4.56,3.42,12.58-16.42,13.29-10.77.6,4.76-8.9,13-4.17,13.78,5.22.87,11-10,16.58-11.55.35-.09.54,13.12,7.28,3,4.75-7.13,3.89-47.88.38-40.68Z"/><path id="path110" class="cls-3" d="M132.45,263.32c-19.2-7.88-17.12,19.77-28.29,27.21s-6.31-9.86-15-5.53c-17.74,8.87.73,26.11,13.33,26.9,19.82,1.24,3.94-11.4,12.32-15.59,5.28-2.64,15.2-9.31,21.12-9.8,6.27-.52,3,11.63,6.66,10.18,9.1-3.64,12.79-21.24,10.68-29.67-5.24-21-15.79,19.69-21.24,4.91-1.29-3.51,3.14-7.48.38-8.61Z"/><path id="path112" class="cls-3" d="M159.28,268.54c-2.42-4.56.86,28.8-1.9,34.5-2.68,5.53-27,34.48-18.66,40.43,3.65,2.61,14-21.2,17.51-25.23,9.2-10.61,3.84-16.14,8.87-26.6,1.11-2.32,4.05-3.92,5.87-5.65,7.93-7.55-7.24-9.05-11.69-17.45Z"/><path id="path114" class="cls-3" d="M172.38,314.73c.1,9.71-8.54,21-5.37,30.83,3.94,12.25,16,10,21.48,18.22s-3.55,22.26,9.11,28c7.26,3.3,61.23-3.57,50.45,6.31-7.23,6.63-23.61,5.13-32.7,6.31-28.86,3.72-37.13-13.21-37.13-38.54,0-6.81-15.73-3.94-17.52-10.51-1.66-6.1-.7-13.37-.7-19.62,0-3,12.29-29.44,12.38-21Z"/><path id="path116" class="cls-3" d="M240.3,247.75c-4.12.52.39,13.36-.26,17.94-5.89,41.21,29.69,27.18,11.49,18.55-5.57-2.64-6.79-6.94-7.43-12.9-.54-5.06,2.26-24.36-3.8-23.59Z"/><path id="path118" class="cls-3" d="M286.35,428.48c-.32-5.51-5.61,25.7-6.2,28.78-1.54,8-25.58,19.61-7.06,23.13C296,484.75,287.16,442.28,286.35,428.48Z"/><path id="path120" class="cls-3" d="M301.17,428.34c-7.51,18.65,2.22,20.14,11.7,34,2.89,4.22,1.44,22.92,6.21,21.16,25.4-9.36-5.4-31.59-13.54-40.63-3-3.28-2.45-19.32-4.37-14.53Z"/><path id="path122" class="cls-3" d="M259.73,483.84c1.16-3.94-9.46,10.28-10.73,15-4.23,15.86-10.78,25.47-21.45,40-.87,1.19-4.36,5.81-2.87,7.6,9.32,11.18,35.64-45.22,35.64-57.42,0-2.08-1.08-3.57-.59-5.24Z"/><path id="path124" class="cls-3" d="M186.18,511.11a52.31,52.31,0,0,0,19.76,8.7c10,2,10.72-24.3-11-14.86-3.15,1.37-11.37,4.25-8.78,6.16Z"/><path id="path126" class="cls-3" d="M211.34,494.06c-.48.49,19.24,18.83,9.12,22.21-1.49.49,14.48-15.8,10.81-23.14C227.71,486,215,490.28,211.34,494.06Z"/><path id="path128" class="cls-3" d="M232.7,436.55c-9.49,4.71,4,16.59.93,24.32-2.16,5.42-12.72,10.67-13.17,15.2-.38,3.83,6.56,3.62,8.95,3,13.14-3.15,16.88-49.3,3.29-42.56Z"/><path id="path130" class="cls-3" d="M186.52,422.45c10.56,12.26,19.68,1.38,31.91,6.16.9.36,12.09,8.17,13,5.41,4.12-12.36-28.72-8.41-33.78-8.95C195.45,424.83,185.22,421,186.52,422.45Z"/><path id="path132" class="cls-3" d="M222.15,410.12c-3.66,20.42,21,18,32.43,25.93,4.5,3.13,6.86,21.14,12.49,11.48,11-18.86-15.23-16-24.15-22.12-14.9-10.2-20.73-15.52-20.77-15.29Z"/><path id="path134" class="cls-3" d="M277.71,410c-5.6,6.47.3,11.95-2.7,20.1,0,.05-1.55,4.12-1.35,4.22C279.39,437.22,285.19,401.4,277.71,410Z"/><path id="path136" class="cls-3" d="M266,399.4c-3.38,4.33-25.58,15.19-27.44,9.62-.36-1.06,2.29-.45,3.38-.16C272.39,416.76,268.48,396.19,266,399.4Z"/><path id="path138" class="cls-3" d="M153.58,399.23c-18.85,32.59,44.94,41,37.33,31.75-3.84-4.66-12.45-1.24-15.71-4.9-9.13-10.27-12.68-42.3-21.62-26.85Z"/><path id="path140" class="cls-3" d="M145.9,430.73c4.07-9.72-2.3,25.3,10.72,19.33C167.74,445,143.43,436.63,145.9,430.73Z"/><path id="path142" class="cls-3" d="M151.9,455.47c-6,6,20.92,41.1,32.25,16.55,3.53-7.65-12-.63-14.69-1.69C163.16,467.81,161.88,445.42,151.9,455.47Z"/><path id="path144" class="cls-3" d="M182.21,447.11c-6.88,8.08,29,12.16,26.43-.93-.33-1.65-6.37,0-7.09.34C192.36,451.35,188.91,439.23,182.21,447.11Z"/><path id="path146" class="cls-3" d="M220.54,439.42c-4-1.16-2.52,9.26-3.62,13.18-1.94,6.84-7.2,12.66-14.7,12.66-3.52,0,7.13-.24,10.47-1.35C220.83,461.2,232.56,442.92,220.54,439.42Z"/><path id="path148" class="cls-3" d="M326.43,731.76c-4.58,1.26,9.62,1.34,13.78,3.65,11,6.12,16.16,18.3,31.51,8.07,4.65-3.1-11.56,1.62-16.75-.46C344.52,738.84,339.43,728.19,326.43,731.76Z"/><path id="path150" class="cls-3" d="M354,730.69c-3.06,2,22.56-2.37,24.74-1.67,5.37,1.71,15.2,24.2,18,10.35,1.67-8.38-24.95-30.62-31.36-24.21-1.21,1.21,10.09,10.39,9.74,10.51-6.08,2-12.75-3.85-19.18-1.37C350.92,726.21,355.45,729.72,354,730.69Z"/><path id="path152" class="cls-3" d="M310.05,710.8c-2.5-2.35-7.09,6.71-2.89,8.51,7.77,3.33,16.62-3.82,24.33-.1,3.55,1.72,14.58,13.74,16.43,9.53C356.81,708.53,317.27,717.59,310.05,710.8Z"/><path id="path154" class="cls-3" d="M374,695c-.39-.55,42.71,28.28,33.31,34.54-.95.64-.1-2.27-.1-3.41,0-5.74.22-10.31-4.36-14.52-8.5-7.82-21.7-6.55-28.85-16.61Z"/><path id="path156" class="cls-3" d="M424.07,700.81c-1.42.79-17.56,33.74-3.46,25.38C425.17,723.49,425.07,700.25,424.07,700.81Z"/><path id="path158" class="cls-3" d="M398.5,689c5,3.93,18.79,15.38,18.79,22.59,0,3.87-3,4.54-1.23-.1a56,56,0,0,0,2.08-5.78c.47-1.8.87-4-.28-5.6C415,696.21,397.61,688.29,398.5,689Z"/><path id="path160" class="cls-3" d="M410.88,666c.21,5.56,9.26,30.93,12.29,30.13,11.28-3-4.24-20.57-6.36-24.1C416.34,671.21,410.83,664.57,410.88,666Z"/><path id="path162" class="cls-3" d="M429.48,650c-1.3-1.77-2.13,3-2.13,4.6,0,2.71,22.22,28.8,9.39,30.93-.21,0,4.59-14.65,4.65-16.51C441.68,659.9,433.79,655.81,429.48,650Z"/><path id="path164" class="cls-3" d="M390,645.15c-2.85,2.34,7.4,2.6,9.53,5.6,3,4.26,7.36,26.69,12.25,5.51,1.71-7.43-17.41-14.7-21.78-11.11Z"/><path id="path166" class="cls-3" d="M416.38,626.91c-2,.34,2.58-.15,3.88,1.91,2.32,3.69,1.84,11.91.95,16-.08.38-.68,1.36-.41,1.09C428.71,638.05,433.29,624,416.38,626.91Z"/><path id="path168" class="cls-3" d="M413.46,585.48c-3.12-.31,2.67.65,3.81,1.3,6.93,3.92,11.34,16.85,13.46,24.08.13.43.4,1.64.55,1.22C437.4,595.24,431.15,587.26,413.46,585.48Z"/><path id="path176" class="cls-3" d="M24.57,46.92c-1.62.5-6.34-1.65-9.36,1.15s-4,9.32-4,10.6c0,2.37,4.1,7.52,3,8.64-2,1.94-4.58,1.63-6.16,5.84-.42,1.12,0,5,3.18,9.53,2.42,3.52,10.34,6,12.37,11,2.66,6.51.6,7,3.45,9.94,3.94,4,10.13,12,11.71,13.46,1.3,1.18,1.8,3.07,3.36,6.29,2.06,4.26.08,12.81,1.78,14.26,3,2.56,5.67,1.6,7.93-1.46,2.59-3.5,3.43-10.32,6-15.49,2.4-4.78,7.1-6.22,9-11.41,1.47-4,.44-14.38,1.32-18.13.93-4-.67-1.65,0-5.22,1.36-7.24-1.32-15.39-1.32-18.6,0-4.51-1-6.89-3.7-9.51-1-.95-5.29-1.92-7.21-2.84-2.54-1.21-2.9,3.55-3.25.92-1.22-9.32-9.67-11-11-12.81-2.34-3.35-2.75-6.59-8.4-7.72-5.05-1-6,10.71-8.78,11.57Z"/><path id="path178" class="cls-3" d="M64.5,146.49c-2.31,2.08-14.83,8.87-6.7,12.33C72.08,164.87,68.7,142.69,64.5,146.49Z"/><path id="path180" class="cls-3" d="M57.05,190.21c4.47-6.6,4.74,9.41,5.86,15,.24,1.21,10.36,1.81,6.73,5.14-9,8.21-15.24-16.21-12.59-20.13Z"/><path id="path182" class="cls-3" d="M94.5,172.09c-1.08-.87-.7,4.83-.8,6.17-.32,4.16-11.07,10.43-6.9,10.43C95,188.69,100.45,176.87,94.5,172.09Z"/><path id="path184" class="cls-3" d="M140.71,697.37c-4.24-.41-15.57,8.71-15.35,8.78C129.22,707.43,162,699.44,140.71,697.37Z"/><path id="path186" class="cls-3" d="M143.73,712.07c-2.42-1.43-20.9-2.91-15.72,4.87,1,1.48,11.49-.71,13.53-.2,1.68.42,9.36,7.84,11.29,4,1.35-2.71-7.26-7.57-9.1-8.66Z"/><path id="path188" class="cls-3" d="M123.75,728.68c-3-4.85,28.21-4.49,28.89-1.13.28,1.4-12.75-1.44-13.63-1.17-3.86,1.19-4.89,6.19-8.75,6.7-1.56.21-5.69-3.06-6.51-4.4Z"/><path id="path190" class="cls-3" d="M135,741.76c-4.55-.48-9.13,6.17-10,11.82-.78,5.11,1.66,9.24,6.69,9.69,2.47.23-.46-1.14-2.08-3.72a8,8,0,0,1-1.11-5.59,33.52,33.52,0,0,1,3.65-8c.83-1.36,4.42-4,2.84-4.16Z"/><path id="path192" class="cls-3" d="M122.17,739.23c-4.63-1.86-14.35,23.8-3.9,24.07,5.69.14.65-1.11-.5-5.11-.86-3-.31-7.26.17-9.53a20.21,20.21,0,0,1,3.32-6.92C121.62,741.21,123.39,739.72,122.17,739.23Z"/><path id="path194" class="cls-3" d="M218.39,315.71c-3.68-4,30.71-1.21,36.37-1.5,7.84-.39,17.79-6,22.92-12,7-8.18-6.88,8.3-9.63,10.8-13.21,12-38.16,15.07-49.66,2.66Z"/><path id="path196" class="cls-3" d="M196,339.61c-27.86,13,39,68,58,39.45,8.07-12.1-39.54-.87-45.65-7.86C202.64,364.74,202.72,336.46,196,339.61Z"/><path id="path198" class="cls-3" d="M305.66,276.55c-3,10.18-37.37,32.08-22.78,46.66a16.16,16.16,0,0,0,.49-2.57c1.86-15.82,13.34-15.17,18.12-26.33C303.1,290.55,306.08,275.09,305.66,276.55Z"/><path id="path200" class="cls-3" d="M439.53,610.07c-3.62,2.81,1.14,12.69.36,17.28a19.39,19.39,0,0,0,.33,8.77c2.19,7.19,10.2,14.06,11.09,3.42.46-5.55-1.87-10.09-3.45-15.28-.47-1.55-6.86-15.33-8.33-14.19Z"/><path id="path202" class="cls-3" d="M449.18,665.79c-1,1.4,2,5.6,2.19,12.18.24,8.49-1.94,19.66.25,20.39C458.27,700.58,453.06,660.24,449.18,665.79Z"/><path id="path204" class="cls-3" d="M431.62,700.69c-.91-.93,3.47,3.73,3.79,4.24,2.47,4,4.12,6.76,4.12,11.48,0,.81,1,4.84,2.61,4.21,3.23-1.2,1.43-3.27,1.77-4.87C445.13,710.11,433.68,702.8,431.62,700.69Z"/><path id="path206" class="cls-3" d="M307.64,233.08c-.13-.27-1.06,2.32-1.57,3.17-1.69,2.8-2.87,5.91-4.5,8.76a64.57,64.57,0,0,1-5.37,8.2c-.94,1.17-3.38,2-1.92,2.42,4.21,1.05,7.15-1.81,10.06-6.2C307.92,244,309.67,237.19,307.64,233.08Z"/><path id="path210" class="cls-6" d="M307.73,192.71c-2.56,0-5-.16-7.24,1.06-.84.45-3.26,3-4.09,3.44-5.09,2.85-8.1,6.55-11.68,10.41-4,4.32-8.36,9-10,15.5-.5,1.93,0,3.91-.13,6-.21,3.17-2.12,12.21,1,14,17.53,10,28-17.77,31.05-30.33.32-1.35,3-20.13,1.15-20.1Z"/><path id="path213" d="M180.48,222c-.8-.64-1.76,2-2.77,2.66a15.4,15.4,0,0,0-3.66,2.66c-1.15,1.38-2,2.38-.72,2.41C176.5,229.81,185.35,225.92,180.48,222Z"/><path id="path215" d="M168.32,230.1c1.1.59-2.79,2.47-1.64,3s5.39-1.52,5.75-2.59-5.19-.94-4.11-.36Z"/><path id="path217" class="cls-5" d="M169.69,220.41c-1.61,1.53-1.52,4.26-1.76,6.12-.35,2.63-.16,4.13,1.9,3.57a8.66,8.66,0,0,0,3.63-1.63c.82-.67,1.48-2.06,2.91-3.12s3.88-2,4-3.33c.31-4-9-3.16-10.65-1.61Z"/><path id="path219" d="M220.23,223.92c-.21.44-3.36,2.2-3,2.82s5.3-.19,6.23,0c2.29.43,6.19,3.26,8.12,3.26,1.21,0-1.08-2.22-1.94-3.08-1.85-1.86-3.4-3.58-6.2-3.58-.36,0-2.94.13-3.16.59Z"/><path id="path221" d="M233.54,233.33c.07,1.81-.38,4.6.45,5.11.42.26.91.72,2.46-.52C237.66,237,233.52,233.1,233.54,233.33Z"/><path id="path223" d="M214.18,228.92c-.13.5-5.92,6.81-4.9,7.32a18.79,18.79,0,0,0,3.91.84c.75.16,1.25,1,1.57.34s-1.32-3.5-1.18-4.63S214.46,227.8,214.18,228.92Z"/><path id="path226" class="cls-7" d="M274.15,224.37c0-3.69,4.72-10.69,10.77-17.17,1.86-2,3.83-3.92,5.84-5.7l1-.87c7.59-6.5,15.32-10.51,17.94-6.14,1.4,2.34,2.13,5.78,2.27,9.9,0,1.37,0,2.82,0,4.32-.58,10.9-4.38,24.85-10.07,35.64-5.15,9.76-11.84,16.93-19.09,16.93"/><path id="path228" class="cls-7" d="M256.2,204.16a79.36,79.36,0,0,1,1.22-14.92c.61-3.22,1.14-6.46,1.74-9.68.44-2.32,1.19-13.81,5.5-12.73,1.45.36,1.61,10,1.83,11.6,1.65,11.56,5.75,22.23,5.75,34"/><path id="path230" class="cls-7" d="M272,206.7c1.32,1.32,6.91,5.39,6.91,7.58"/><path id="path232" class="cls-7" d="M237.05,238.83c-1.67-5-6.37-11.51-10.54-14.84-5.46-4.37-17.41,8.88-17.41,13.09"/><path id="path234" class="cls-7" d="M209.1,236.42a24.81,24.81,0,0,1,3.64.55c2.77.54,4.17,2.26,7.23,3a24.15,24.15,0,0,0,7.15.18c2.8-.59,7.17-1.76,9.33-1.76"/><path id="path236" class="cls-7" d="M213.85,235.41c-2.89-12.77,18.45-11,20.11.55.37,2.63-2.68,3-4.79,3-1.08,0-2.81.07-4.73,0a35.38,35.38,0,0,1-5.46-.44c-2.6-.47-4.72-1.39-5.13-3.2Z"/><path id="path238" class="cls-7" d="M165,233.94c-11,16.5,5,28.8,19.4,33.59,3.89,1.3,13.55,2.94,16.49,0"/><path id="path240" class="cls-7" d="M256.2,203.41c-12.63,0-31.13-4.74-43.35,1.37-6.64,3.32-12,10.21-19.38,12.05-5.88,1.47-16.57-1.58-21.82,1-5.91,3-1.5,13.61-6.87,16.29"/><path id="path242" class="cls-7" d="M164,253.52c-10.71,18.7,33.8,37.41,52.13,37.41"/><path id="path244" class="cls-7" d="M307.71,230.1c0,17.1,5.32,44.32.34,60.91-7.32,24.42-24.93,54.46-33.72,78.55-4.35,11.94.7,29.65,10.07,29.65"/><path id="path246" class="cls-7" d="M255,740.27c-11.49,2.29-16.65,19.81-5.4,22.63,10.91,2.73,25.56-.51,36.82-.51H373.1a176.05,176.05,0,0,0,31.63-2.69c.89-.16,8.73-1.05,8.73-1.9"/><path id="path248" class="cls-7" d="M247.28,730.5c-14,0-29.4,17.56-16.05,28.68,3.2,2.67,10.09,1.35,14,1.35"/><path id="path250" class="cls-7" d="M340,599.63c-46.44,0-67.81,51.5-48,91.2,4.43,8.85,8.08,18.14,11.77,27.36,1.74,4.36,10.09,9,6.77,12.36-.7.69-45.07,0-50,0-1.17,0-14.12-.53-14.12.11"/><path id="path252" class="cls-7" d="M284.09,399.21c3.5,1.17,4.79,8.42,6.4,11.09s4.83,4.77,7.11,7.05c5.33,5.32,9.55,11.7,14.95,17.1,2,2,7.94,7.78,10.89,7.78"/><path id="path254" class="cls-7" d="M322.68,442.23c5.73,4.16,11.13,10.32,16.47,15.07a290,290,0,0,1,32.1,33.56c1,1.27,17.9,24.81,17.9,25.71"/><path id="path256" class="cls-7" d="M389.15,516.57c0,16.82,39.64,62.29,49.27,78.32,1.87,3.13,12.06,36.79,12.65,40.91,1.21,8.53-3.35,11.38-1.89,17.22,3.09,12.36,9.39,33.18,3,46a173.27,173.27,0,0,0-9.69,22.07c-.35,1.07-6.31,0-7.26,1.88-2.93,5.86-11.55,35.19-22.67,35.19"/><path id="path258" class="cls-7" d="M211.08,729.15c-6.26-1.71-15.43,10.27-11.66,16.3,5,8,18.77,5.21,26.7,5.21"/><path id="path260" class="cls-7" d="M207.87,750.6c-3.72,1.24-12.52,3.67-17,.49-7.79-5.57-5.57-14.24-.19-20.24,2.14-2.38,5.53-3.82,7.84-5.27,6-3.76,15.2-2.86,21.94-3.2,18.06-.91,36.17-.75,54.28-.75,3.71,0,18.48-4,23.44-.27"/><path id="path262" class="cls-7" d="M212,566c0,20.74,16.81,50.58,30.72,64.49,2.08,2.08,1.44,14.6,2.39,17.76,3.9,13,6.92,26.09,14.31,37.92a108.11,108.11,0,0,0,23.34,27c1.66,1.39,16.2,6.08,15.17,7.35"/><path id="path264" class="cls-7" d="M135.7,742c-4.22,2.63-10.54,14.13-5.34,18.47,12.64,10.53,29-3.79,31.74-16.26,1.65-7.43-.89-15.42-.26-23,.93-11.09,4.44-23,6.64-34,2.85-14.27,11.84-27,13.65-41.49a122,122,0,0,1,7-26.41c.54-1.41,3.79-8.49,3.09-7.27"/><path id="path266" class="cls-7" d="M122.92,739.72c-5.93,2.54-8.11,19.51-2.26,23,3.74,2.25,9.8,1.49,12.14,0"/><path id="path268" class="cls-7" d="M124,731.26c-4.51,0-12.08,4.28-16.37,8.89-5.65,6.07-7,13.43-2,19.47,5.71,6.86,8.56,5.43,15.38,3.11"/><path id="path270" class="cls-7" d="M139.62,405.79c0,26.21,1.35,47.9,7.46,72.36,4.94,19.75-2.8,43.06-2.8,62.54,0,12.64,3.1,29.63,0,42-11.54,46.19-20.53,100.18-20.53,149.23"/><path id="path272" class="cls-7" d="M191.87,612.76c12.79-19.61,29.9-79.35,42.81-105.16,3.16-6.34,8.26-12.21,10.72-18.76.63-1.68,1.46-10.19,2.67-10.19"/><path id="path274" class="cls-7" d="M126.81,357.45c-11.16,39.05-14.83,89,.31,126.86,3.38,8.45,16.65,34.86,19.22,34.86"/><path id="path276" class="cls-7" d="M78.32,109.26c0,11.26,11.91,31,16.15,42,11.38,29.6,12.32,63.23,28.2,91,6,10.47,41.53,17.93,41.53,24.24"/><path id="path278" class="cls-7" d="M49.35,151.84c0,58.34,14,115,42.46,166.16,3.06,5.51,26.35,52.38,31.52,52.38"/><path id="path280" class="cls-7" d="M177.05,277.77c0,4.14,1.21,38.26-.43,39.9"/><path id="path282" class="cls-7" d="M274.15,721.37c-2.53-3.54-9.54-11.32-11.83-16.11-.56-1.18,2.31,10.12,1.9,8.87-8.8-26.41-44.31-32.81-60.39-48.88-.71-.71.19,2.7-.71,2.25-6.32-3.16-16-10.34-23.56-10.34"/><path id="path284" class="cls-7" d="M223.78,722.14c-5.66,0-13-10.6-20.2-13.19-1.15-.41,5.74-.11,4.57-.5-7.16-2.39-11.54-6.15-19.84-9-1.73-.58,3.1-1.73,2.93-1.81-4.65-2.33-22.22-3.86-22.22-12.5"/><path id="path286" class="cls-7" d="M202.1,592.06c3.31,6.63,14.36,14.6,20.51,18.44,1.42.89,5.24,3.87,7.86,4.77"/><path id="path288" class="cls-7" d="M169,220.42c1.92,0,4.85-1.26,6.76-1.12,3.93.28,7.43,4.37,4.76,7.93-.82,1.09-2.86,1.08-5.12,2.05s-5,3-6.4,3.51-4.14,1-4.82,2.66"/><path id="path290" class="cls-7" d="M180.26,221.48c0,3.72-7.42,3.82-7.42,9"/><path id="path292" class="cls-7" d="M167.41,230.89c1.36-1.36,3.66-1.17,5.43-1.17"/><path id="path294" class="cls-8" d="M224.31,230.31c-.6.84-3.72,3-3.58,5.65.09,1.75,1.07,1,1.29,2.32s4.3-6.26,3.95-8.44c-.06-.42-1-.44-1.66.47Z"/><path id="path296" class="cls-2" d="M228.29,233.52c-2.64-.63-2.46,4.24-1.69,4.37,1.78.3,7.94-1.66,4.52-4.22C230.42,233.15,229.07,233.71,228.29,233.52Z"/><path id="path298" class="cls-2" d="M220.38,228.2c-1.71-.48-1.1,2-.12,2.37C221.81,231.23,222.39,228.75,220.38,228.2Z"/><path id="path300" class="cls-2" d="M219.64,231c-1.29.16-5.38,2-2.92,4C218.27,236.16,220.71,230.82,219.64,231Z"/><path id="path302" class="cls-2" d="M218.54,234.66c-1-.27-.91,2.26-.2,2.4C219.58,237.31,219.73,235,218.54,234.66Z"/><path id="path304" d="M173.47,247c.3,1.21,1.91,1,1.37,0C174.62,246.51,173.32,246.35,173.47,247Z"/><path id="path306" d="M177.52,249.49c-.76-.51-.22,2.59.89,1.38C179.26,249.94,177.84,249.71,177.52,249.49Z"/><path id="path308" d="M181.59,252.1c-1.35.53.24,1.43.82,1C183.29,252.56,182.36,251.8,181.59,252.1Z"/><path id="path310" d="M186,254.73c-.33,1,1.47,1.44,1.68.74C188,254.47,186.27,253.93,186,254.73Z"/><path id="path312" d="M173.34,251.93c.13.61.62,1.25,1.15.37S173.24,251.46,173.34,251.93Z"/><path id="path314" d="M176.21,254c-1.28.55,0,1.79,1.08,1.56C178.52,255.33,177.38,253.55,176.21,254Z"/><path id="path316" d="M179.79,255.89c-1,.88.53,2,1.29,1.38C182,256.53,180.49,255.25,179.79,255.89Z"/><path id="path318" d="M183,257.4c-1.23.39.52,1.74,1.15,1.21C184.94,257.93,183.22,257.32,183,257.4Z"/><path id="path320" d="M185.35,250.73c-.42,1,1.06,1.71,1.45.86C187.3,250.47,185.75,249.74,185.35,250.73Z"/><path id="path322" d="M189.31,258.53c.52,1.11,2.3.79,1.68-.23C190.71,257.83,188.93,257.69,189.31,258.53Z"/><path id="path324" d="M175.11,243c-1.41.27,0,2.07,1,1.49C176.91,244.07,175.66,242.93,175.11,243Z"/><path id="path326" d="M192.68,253.32c0,1.87,2.48,1,1.84-.28C194.26,252.51,192.68,252.63,192.68,253.32Z"/><path id="path328" class="cls-7" d="M30.28,36.82c-8.7,8-9.76,36.71,6.82,33.6C53.22,67.39,40.64,27.28,30.28,36.82Z"/><path id="path330" class="cls-7" d="M55.89,55a12.09,12.09,0,0,0-2.7.82C44.53,60.11,36.73,82.92,50.89,85c10.64,1.6,16.59-12.86,15.93-21.48-.22-2.89-4-5.89-6.3-7.26A16.41,16.41,0,0,0,55.89,55Z"/><path id="path332" class="cls-7" d="M24.44,47.3c-5.2-4.16-12,3.09-13,7.85C8.87,67,25,80.11,34.44,70.65"/><path id="path334" class="cls-7" d="M13.65,67.33C8,70.64,6.41,74.49,9.94,80.52c1.23,2.09,11.73,11,12.86,12.07,1.72,1.58.87,2.46,3.46.81,1.87-1.19,2.23-4.28,2.34-6.26.44-7.88-2.88-10.51-8.73-14.83-.93-.68-5.54-5.38-6.22-5Z"/><path id="path336" class="cls-7" d="M78.32,109.74c0-7.87-8.89-13.16-10.11-20.47-.83-5-.49-10.13-.49-15.16,0-1,.13-10.37-.85-10.87"/><path id="path338" class="cls-7" d="M41.18,42.67c3.82,1.43,8.61,5.33,10.35,9a17.22,17.22,0,0,1,1.18,4.25"/><path id="path340" class="cls-7" d="M23.62,93.67c0,11.21,11.2,17.61,17,25.91,3.78,5.41,1.5,12.54,2.83,18.53,1.18,5.32,5.89,9.44,5.89,14.94"/><path id="path343" class="cls-7" d="M186.82,257.45c15.34,11,25.9,20.58,35.76,36.73"/><path id="path345" class="cls-7" d="M182.77,257.92c14.37,7.57,20.36,22.52,29.12,35.47"/><path id="path347" class="cls-7" d="M190.55,254c12.56,0,26.14,9.62,36.1,16.09"/><path id="path349" class="cls-7" d="M187.59,254.65c19.89,7.86,39,21.6,53.84,36.81"/><path id="path351" class="cls-7" d="M187.05,255.45c14.3,8.58,26.29,21.05,37.18,33.51"/><path id="path353" class="cls-9" d="M189.87,254.09c10.53,0,28.51,10.49,36.25,16.62"/><path id="path355" class="cls-9" d="M188.8,254.9c17.46,4.37,40.7,23.81,52.92,36"/><path id="path357" class="cls-9" d="M189.25,256.78c12.34,4.41,27.14,22.37,35.48,31.78"/><path id="path359" class="cls-9" d="M185,257.57c9,6.86,22.17,25.59,27.64,35.44"/><path id="path361" class="cls-9" d="M189.66,258.56c14,10.1,24.48,23.6,34.05,37.75"/></g></svg>