<svg id="Layer_1" data-name="Layer 1" xmlns="http://www.w3.org/2000/svg" viewBox="0 0 512 512"><defs><style>.cls-1{fill:#f0d3a3;}.cls-2{opacity:0.05;}.cls-2,.cls-6,.cls-7,.cls-8{isolation:isolate;}.cls-3{fill:#272f37;}.cls-4{fill:#c39774;}.cls-5{fill:#00a155;}.cls-6{opacity:0.15;}.cls-7{opacity:0.1;}.cls-8{opacity:0.2;}.cls-9{fill:#de2a4e;}.cls-10{fill:#fdd05f;}</style></defs><title>pinocchio-03</title><path class="cls-1" d="M367,360.57a151.44,151.44,0,0,1-302.87,0V288.23a151.44,151.44,0,1,1,302.87,0Z"/><path class="cls-2" d="M174.81,479.16a8.13,8.13,0,0,1-2.85-.51,128.34,128.34,0,0,1-61-48,8.2,8.2,0,1,1,13.58-9.19,111.76,111.76,0,0,0,53.16,41.85,8.2,8.2,0,0,1-2.86,15.89Z"/><path class="cls-2" d="M121.46,375.22a8.21,8.21,0,0,1-8.18-7.65c-.16-2.32-.24-4.68-.24-7a8.21,8.21,0,0,1,16.41,0c0,2,.06,3.94.2,5.89A8.21,8.21,0,0,1,122,375.2Z"/><path class="cls-2" d="M141.93,427.62a8.19,8.19,0,0,1-6.41-3.07,102.07,102.07,0,0,1-17.94-33.8,8.2,8.2,0,1,1,15.67-4.84,85.63,85.63,0,0,0,15.07,28.38,8.2,8.2,0,0,1-6.39,13.33Z"/><path class="cls-2" d="M230.9,500.43A151.43,151.43,0,0,1,79.47,349V276.65a151.09,151.09,0,0,1,53-115,151.29,151.29,0,0,0-68.34,126.6v72.35A151.43,151.43,0,0,0,314,475.6,150.73,150.73,0,0,1,230.9,500.43Z"/><path class="cls-3" d="M103.55,332.26H80.14a21.55,21.55,0,0,1-21.55-21.55V220.62h45Z"/><path class="cls-3" d="M110.23,332.26h0a6.68,6.68,0,0,1-6.68-6.68v-105h49.1v69.23A42.42,42.42,0,0,1,110.23,332.26Z"/><path class="cls-4" d="M412.86,342.55a8.2,8.2,0,0,1-5.8-14L448,287.62a8.2,8.2,0,0,1,11.6,11.6l-40.93,40.93A8.21,8.21,0,0,1,412.86,342.55Z"/><path class="cls-5" d="M476.33,246.31c0,21.8-15.64,40.32-22.13,47.07a3.83,3.83,0,0,1-5.54,0c-6.49-6.75-22.13-25.27-22.13-47.07s15.64-40.32,22.13-47.07a3.85,3.85,0,0,1,5.54,0C460.69,206,476.33,224.52,476.33,246.31Z"/><path class="cls-6" d="M451.43,265.21a8.2,8.2,0,0,1-8.2-8.2V235.62a8.2,8.2,0,1,1,16.4,0V257A8.2,8.2,0,0,1,451.43,265.21Z"/><path class="cls-4" d="M475.88,379a26.76,26.76,0,0,0,0-53.51H292.27a26.76,26.76,0,0,0,0,53.51Z"/><path class="cls-2" d="M321.57,355.75H294.9a8.2,8.2,0,1,1,0-16.4h26.67a8.2,8.2,0,0,1,0,16.4Z"/><path class="cls-2" d="M422.23,364.33H364.51a8.21,8.21,0,0,1,0-16.41h57.72a8.21,8.21,0,0,1,0,16.41Z"/><path class="cls-4" d="M230.9,394.54a9.84,9.84,0,0,0-9.68,11.65,62.65,62.65,0,0,0,123.11,0,9.84,9.84,0,0,0-9.68-11.65Z"/><path class="cls-7" d="M248.92,421.86a91,91,0,0,0-21.22,2.52,62.65,62.65,0,0,0,85.92,24.67A90.35,90.35,0,0,0,248.92,421.86Z"/><path class="cls-4" d="M103.55,283.17A6.7,6.7,0,0,0,96,276.5a58.05,58.05,0,0,0,0,115.13,6.71,6.71,0,0,0,7.51-6.68Z"/><path class="cls-7" d="M103.55,368.77a34.71,34.71,0,1,1,0-69.41v16.4a18.31,18.31,0,0,0,0,36.61Z"/><path class="cls-3" d="M246.25,318.6a8.2,8.2,0,0,1-8.2-8.2,21,21,0,1,0-42,0,8.21,8.21,0,0,1-16.41,0,37.41,37.41,0,0,1,74.82,0A8.2,8.2,0,0,1,246.25,318.6Z"/><path class="cls-3" d="M367,318.6a8.2,8.2,0,0,1-8.2-8.2,21,21,0,0,0-42,0,8.2,8.2,0,0,1-16.4,0,37.41,37.41,0,0,1,74.82,0A8.2,8.2,0,0,1,367,318.6Z"/><path class="cls-8" d="M215.52,136.79A151.43,151.43,0,0,0,80,220.62H58.59v47.86H365.68A151.46,151.46,0,0,0,215.52,136.79Z"/><path class="cls-9" d="M373.65,256.51H58A20.71,20.71,0,0,1,39.91,225.7h0A278.12,278.12,0,0,0,66.64,21.46h0a17.2,17.2,0,0,1,23-20.22l89.81,35.54A413.93,413.93,0,0,1,391.91,226h0A20.71,20.71,0,0,1,373.65,256.51Z"/><path class="cls-7" d="M63.76,235A308.69,308.69,0,0,0,81.85,7.14h0a18.9,18.9,0,0,1-.83-7,17.21,17.21,0,0,0-14.38,21.3h0A278.12,278.12,0,0,1,39.91,225.7h0A20.71,20.71,0,0,0,58,256.51h6.37a22.77,22.77,0,0,1-.6-21.48Zm250.18,21.48h59.71a20.49,20.49,0,0,0,11.77-3.64Z"/><path class="cls-10" d="M78,94c28.83,28.82,42.43,65.76,48.4,88A12.57,12.57,0,0,1,111,197.42c-22.25-6-59.19-19.58-88-48.4-.79-.79-1.57-1.59-2.33-2.39-34.7-36.25,18.71-89.65,55-55C76.37,92.44,77.16,93.22,78,94Z"/><path class="cls-6" d="M84.57,163.83a8.18,8.18,0,0,1-5.8-2.4L45.55,128.21a8.2,8.2,0,1,1,11.6-11.59l33.21,33.21a8.2,8.2,0,0,1-5.79,14Z"/></svg>