<svg id="svg2" xmlns="http://www.w3.org/2000/svg" xmlns:xlink="http://www.w3.org/1999/xlink" viewBox="0 0 691.77 361.11"><defs><style>.cls-1{fill:#020202;}.cls-2{fill:#666;}.cls-3{fill:#333;}.cls-4{fill:url(#linear-gradient);}.cls-5{fill:#f4d7d7;}.cls-6{fill:url(#linear-gradient-2);}.cls-7{fill:url(#linear-gradient-3);}</style><linearGradient id="linear-gradient" x1="-98.72" y1="186.26" x2="-151.04" y2="122.09" gradientTransform="matrix(1, 0, 0, -1, 433.67, 215.2)" gradientUnits="userSpaceOnUse"><stop offset="0"/><stop offset="1" stop-opacity="0"/></linearGradient><linearGradient id="linear-gradient-2" x1="-326.09" y1="349.08" x2="-280.48" y2="287.76" gradientTransform="matrix(1, 0, 0, -1, 443.76, 378.82)" gradientUnits="userSpaceOnUse"><stop offset="0"/><stop offset="1" stop-color="#666" stop-opacity="0"/></linearGradient><linearGradient id="linear-gradient-3" x1="-123.07" y1="-60.55" x2="-49.88" y2="-112.8" gradientTransform="matrix(0.95, 0.05, 0.04, -0.86, 392.86, 171.59)" xlink:href="#linear-gradient"/></defs><title>rat-03</title><g id="layer1"><g id="g3887"><path id="path2998" class="cls-1" d="M149.25,0c-22.14.35-43.34,8.42-55.57,26.5C76.26,53.43,77.76,100.4,90.53,136.32c-6.36,8.32-8.23,20.92-10.41,32.66C65.43,156.48,34.6,136.26,5,146.48c39.57,2,64.17,23.53,71.59,28.78-4.85,2.15-17.52,15.36-20.5,19.53-10.56-15.92-35.93-21.06-56.09-7,6,0,29.54-10.66,54,11.41C26.44,197,20.43,232.48,42.62,243.88c16,24,39.93,42.5,76.78,52.6-1.35,6.33-16.47,25.35-22.72,36.09,9.24-8.34,24.6-25.56,28.82-36,7.46.42,29.76-2.3,38.09-6.41-2,13.12-14.66,37.61-20.31,49.6,8.6-2.3,25.33-40.24,27.78-51.94a95,95,0,0,0,24,16.84c-10.57,22.28-12.66,27.85-18.81,36.85-1.57,4.42.45,7.06,6.34,8.34,2.41.53,30.24-.76,32.13-1.22-6.07,15.14,35.84,6.83,45.31,5.38,26.62,10.66,52.47,6.58,68.69,5,12.61-2,19.75-7.84,28.28-11.53,8-4.39,28.7-1.7,40.87,1.84,7.35,1.43,8.86,1.6,11.41,1.41,23.35-2.47,41.42-30.58,20.25-50.19,4.91-5.22,20.87-28.37,20.87-28.37,9,6.38,21.49,64.43,73.91,67.56,45.95-.38,73.87-65.55,114.59-87.16,28.28-1,25.36,24.11,49.88,24.19,13.07-12.28-19.26-67.36-55.69-58-23.3,7.37-70.26,75.29-100.12,79.56-33.46,3.47-39.87-80.52-75.56-84.37-13.84-53.5-73.51-65.06-110.22-67.88,22.88-31.75,26.67-77.53,4.45-105.47-25.49-32.05-87.3-32.17-126.59-4.19C211.72,13.64,179.57-.43,149.23,0Zm4.53,9.25c21.52,0,44.67,10.24,62.65,33.85-15.49,15.65-32.69,36.33-39.4,68.37-30.12-8.81-57.95-2.53-77.47,16.38-6.47-16.46-13.1-49-7.28-68.25,5.64-30.95,32-50.32,61.5-50.35ZM290.56,26c25.82-.18,48.7,10.82,58.53,32.25,8.25,18,11.08,45.7-6.78,76.91-10.19,14.9-29.47,38.14-56.5,46.44-32.33,9.91-72.22,3.71-73.1,7.87-.93,5,38.24,13.5,71.75,2.69,25.17-8.12,46-25.94,56.35-35.88,45,.66,114.72,24.13,109.38,80.66-1.35,25.88-12.16,41.68-36.81,63.28,11.37,6.35,19.17,12.34,17.12,22.06-1.34,6.35-5.43,16.92-20.53,21.1-9.48-1.46-46.47-13.58-58.44-2.91-8.85,8.9-40.2,15.34-47.44,13.84-18.06-1.7-42.85-3.62-42.93-7.68-.42-19.45,24.67-12.75,46.72-16.16,13.85-2.14,30.85-7.89,40.81-13.31,3.53-1.93,6.11-4.16,5.78-5-2.91-4.81-12.33,7.68-36.56,6.12-35.39-1.19-72.85-36.4-67-61.28,4.48-51.82,94.94-68.65,127.09-37.44,7.82,3.83,8.5,7.67,12.78,7.94,3.93.25,5.52,0,6.93-1.22,4.57-3.84-2.45-11.92-16.56-19.09a99.27,99.27,0,0,0-31.84-10c-6.05-.9-22.22-.9-28.88,0a157.49,157.49,0,0,0-29.22,6.9,106.34,106.34,0,0,0-18.43,9.07c-34.16,18.68-37.38,48-19.38,76.5,3.23,3.95,8.59,10.89,14.56,16.22-4,.43-15.31,40-13.37,40.28-4.89,4.46-32.22,7.11-31.16-1.47,3.93-15.52,11.35-38.36,14.35-54.69.22-1.64-3.77-6.43-7-1-2.47,3-2.33,13-5.22,18.19-22.33-5.33-43.19-20.44-47.78-23.28,10.51-9.5,22.76-16.7,25.75-29.85,4-20.55-5.91-30.15-8.88-27.06s6,11.48,1.88,27.16c-.59,6-15.92,19.59-25.94,26.84-1.36-12.73-4.87-25.65-6.85-28.31-4.72-8-16.34-2.52-10.72,5.31,3,6.87,12.51,16,10.66,26.06-6.76,3.08-31,7.07-35.94,4.91,2.2-10,9.18-25.21,8.32-34.53-1.73-13-19-7.86-14.69,7.75.87,7.27,1,18.33-1.53,26C95.36,284.18,59.53,260.85,53,242.82c12.35-1.75,14.85-4.21,16.91-6.34,7.56-7.26,9.3-21.06,2-30.28-4.49-4.76-5.41-4.6-9.69-6.75,2.55-5.46,18.34-20.95,26.31-23.19.2-14.86.6-27.29,16.19-43.87,18.67-16.53,54.55-21.25,77.38-10.88,6.66-16.66,8.61-29.35,19.75-44.75,22.08-34,57.55-50.5,88.72-50.72Zm-13,53.07c-11.5.36-21.94,7-31,15-8.41,8.79-12.66,19-12.16,29.31.35,7.1,2.32,11.66,7.06,16.4,4.58,4.48,12.85,7.83,20.6,7.32,18.59-.86,36.89-15.9,41.69-34.28A30.36,30.36,0,0,0,302,92.23c-2.77-5.65-7.75-9.72-14.5-11.84a31.29,31.29,0,0,0-9.91-1.29Zm1.47,6.78c10.88.24,19.47,7.72,17.9,26.53-5.2,21.88-39.8,38.07-50.15,22.28C229.23,111.29,258.29,85.43,279.06,85.89ZM111,167a5.73,5.73,0,0,0-3.69,1.78c-4.8,4.67-3.86,15.6,1.63,18.63a5.85,5.85,0,0,0,4.84-.28c2.79-1.7,4.26-5,4.28-9.6,0-6.33-3.36-10.69-7.06-10.53ZM150,179.23a5.7,5.7,0,0,0-3.82,1.91c-3.83,3.94-4,12.67-.25,16.78a8.5,8.5,0,0,0,2.07,1.75,6.79,6.79,0,0,0,4.56-.16A8.56,8.56,0,0,0,156,195.6c.76-1.46.84-2.13.84-5.87s-.07-4.41-1-6.09c-1.58-3-3.71-4.49-5.87-4.41ZM51.69,204c5.29-.16,12.84,1.44,16.62,6.85C71.9,216,71.35,226,66.75,233c-4.9,4.72-16.18,5.92-18.35,5.38s-4.78.29-7.65-1.88S34.57,229,33.43,226c-.75-2-1-17.4,15-21.53a17.68,17.68,0,0,1,3.21-.38Zm407.22,20c15.57,7.84,29.4,48.73,40.18,60.13,45.3,78.4,103.43-52.3,141.62-57.19,21-.41,46.07,36.22,42.94,41.13-12.76-6.55-27.59-28.68-46.4-25.47-24.15,1.47-63.12,84.76-113.84,86.5-29.9,1-48.81-36.1-67.41-67.32,6.35-19.85,4.39-24.75,2.91-37.78Zm-257.38,83.5c7.85,1.49,15.32,4.33,23,6.63-1.72,8.12-4,14.54-7.41,27.56-5.51,1-33.31,2.92-30.81-3,1-5.58,10.82-23.63,15.22-31.19Zm71.12,2.22c10.76,5.88,23.29,12.33,33.5,14-2.68.25-13.76.47-20.17.76l-18.45-6.86a86.8,86.8,0,0,1,5.12-7.93Zm-7.72,13.1,10.55,3.67c-8.45.91-11.28,1.25-12.83,4.67a17.87,17.87,0,0,1,2.28-8.34Z"/><path id="path3840" class="cls-2" d="M153.49,9.55c21.52,0,44.66,10.24,62.65,33.85-15.49,15.66-32.7,36.33-39.4,68.37-30.12-8.81-57.95-2.52-77.47,16.38-6.47-16.46-13.1-49-7.28-68.25C97.63,29,124,9.58,153.49,9.55Z"/><path id="path3838" class="cls-2" d="M290.57,26c25.82-.18,48.7,10.82,58.53,32.25,8.25,18,11.08,45.7-6.78,76.91-10.19,14.9-29.48,38.14-56.5,46.44-32.33,9.91-72.22,3.71-73.1,7.87-.93,5,38.24,13.5,71.75,2.69,25.17-8.12,46-25.94,56.35-35.88,45,.66,114.72,24.13,109.38,80.66-1.35,25.88-12.16,41.68-36.82,63.28,11.38,6.35,19.18,12.34,17.13,22.06-1.34,6.35-5.44,16.92-20.53,21.1-9.49-1.46-46.47-13.58-58.44-2.91-8.85,8.9-40.2,15.34-47.44,13.84-18.06-1.7-42.85-3.62-42.94-7.68-.41-19.45,24.68-12.75,46.72-16.16,13.86-2.14,30.86-7.89,40.82-13.31,3.53-1.93,6.11-4.16,5.78-5-2.91-4.81-12.33,7.68-36.56,6.12-35.39-1.19-72.85-36.4-67-61.28,4.48-51.82,94.94-68.65,127.09-37.44,7.82,3.83,8.49,7.67,12.78,7.94,3.93.25,5.52,0,6.93-1.22,4.57-3.84-2.45-11.92-16.56-19.09a99.27,99.27,0,0,0-31.84-10c-6.05-.9-22.22-.9-28.88,0a157.49,157.49,0,0,0-29.22,6.9,106.34,106.34,0,0,0-18.43,9.07c-34.16,18.68-37.38,48-19.38,76.5,3.23,3.95,8.59,10.89,14.56,16.22-4.05.43-15.31,40-13.37,40.28-4.89,4.46-32.22,7.11-31.16-1.47,3.93-15.52,11.34-38.36,14.35-54.69.22-1.64-3.77-6.43-7-1-2.46,3-2.32,13-5.21,18.19-22.33-5.33-43.19-20.44-47.79-23.28,10.52-9.5,22.77-16.7,25.75-29.85,4-20.55-5.9-30.15-8.87-27.06s6,11.48,1.87,27.16c-.58,6-15.92,19.59-25.93,26.84-1.36-12.73-4.87-25.65-6.85-28.31-4.72-8-16.34-2.52-10.72,5.31,3.05,6.87,12.51,16,10.66,26.06-6.77,3.08-31,7.07-35.94,4.91,2.2-10,9.18-25.21,8.31-34.53-1.72-13-19-7.86-14.68,7.75.86,7.27,1,18.33-1.53,26C95.36,284.18,59.54,260.85,53,242.82c12.35-1.75,14.85-4.21,16.91-6.34,7.56-7.26,9.3-21.06,2-30.28-4.49-4.76-5.41-4.6-9.69-6.75,2.55-5.46,18.34-20.95,26.31-23.19.2-14.86.6-27.29,16.19-43.87,18.67-16.53,54.55-21.25,77.38-10.88,6.66-16.66,8.61-29.35,19.75-44.75,22.07-34,57.55-50.5,88.71-50.72Z"/><path id="path3832" class="cls-1" d="M114.74,166a5.64,5.64,0,0,0-3.69,1.78c-4.81,4.67-3.86,15.59,1.62,18.62a5.83,5.83,0,0,0,4.85-.28c2.79-1.7,4.26-5,4.28-9.59,0-6.33-3.36-10.7-7.06-10.53Z"/><path id="path3830" class="cls-1" d="M153.68,178.19a5.64,5.64,0,0,0-3.82,1.9c-3.83,3.95-4,12.68-.25,16.78a8.22,8.22,0,0,0,2.07,1.75,6.85,6.85,0,0,0,4.56-.15,8.56,8.56,0,0,0,3.44-3.91c.76-1.46.84-2.14.84-5.88s-.07-4.4-1-6.09c-1.58-3-3.71-4.49-5.87-4.41Z"/><path id="path3828" class="cls-3" d="M51.69,204.05c5.29-.17,12.85,1.43,16.62,6.84,3.6,5.14,3,15.07-1.56,22.09-4.9,4.72-16.18,5.92-18.34,5.38s-4.79.29-7.66-1.88S34.58,229,33.44,226c-.76-2-1-17.4,15-21.53a17.86,17.86,0,0,1,3.22-.37Z"/><path id="path3826" class="cls-2" d="M459.08,223.9c15.57,7.84,29.4,48.72,40.18,60.12,45.3,78.4,103.43-52.29,141.62-57.19,21-.41,46.07,36.22,42.94,41.13-12.76-6.55-27.59-28.68-46.4-25.47C613.27,244,574.3,327.25,523.58,329c-29.9,1-48.81-36.1-67.41-67.31,6.35-19.86,4.39-24.75,2.91-37.78Z"/><path id="path3824" class="cls-2" d="M201.53,307.58c7.85,1.48,15.32,4.32,23,6.62-1.71,8.12-4,14.54-7.41,27.56-5.51,1-33.31,2.92-30.81-3,1-5.58,10.82-23.63,15.22-31.19Z"/><path id="path3822" class="cls-2" d="M272.66,309.8c10.75,5.87,23.29,12.32,33.5,14-2.68.24-13.76.46-20.18.76l-18.45-6.87a86.53,86.53,0,0,1,5.13-7.93Z"/><path id="path3873" class="cls-4" d="M291.16,25.45c25.82-.18,48.7,10.81,58.53,32.25,8.25,18,11.08,45.69-6.78,76.9-10.19,14.91-29.48,38.15-56.5,46.44-37.24-53.27-71.92-60.33-103.72-60.12,6.66-16.66,8.61-29.36,19.75-44.75,22.08-34,57.55-50.5,88.72-50.72Z"/><path id="path3834" class="cls-5" d="M278.77,83.51c10.88.24,19.47,7.71,17.9,26.53-5.2,21.88-39.8,38.07-50.15,22.28C228.94,108.91,258,83.05,278.77,83.51Z"/><path id="path3844" class="cls-1" d="M277.31,76.72c-11.5.36-21.95,7-31,15-8.41,8.79-12.67,19-12.16,29.31.35,7.1,2.31,11.66,7.06,16.4,4.58,4.48,12.85,7.83,20.6,7.32,18.59-.86,36.89-15.9,41.68-34.28a30.3,30.3,0,0,0-1.75-20.66C299,84.19,294,80.12,287.21,78a31.2,31.2,0,0,0-9.9-1.29Zm1.47,6.78c10.87.24,19.47,7.72,17.9,26.53-5.2,21.88-39.8,38.07-50.15,22.28C229,108.9,258,83,278.78,83.5Z"/><path id="path3849" class="cls-6" d="M152.15,5.54c21.52,0,44.66,10.24,62.65,33.85-15.49,15.66-32.7,36.33-39.4,68.37-30.12-8.81-57.95-2.52-77.47,16.38-6.47-16.46-13.1-49-7.28-68.25,5.64-30.94,32-50.31,61.5-50.35Z"/><path id="path3859" class="cls-7" d="M421.58,266.33C420,299.91,380,325.2,332.28,322.81s-85.13-31.56-83.54-65.15,41.57-58.87,89.3-56.48,85.13,31.56,83.54,65.15Z"/></g></g></svg>