<svg id="svg2" xmlns="http://www.w3.org/2000/svg" viewBox="0 0 330.48 325.95"><defs><style>.cls-1,.cls-3,.cls-5{fill:#fff;}.cls-1,.cls-3,.cls-4,.cls-6{stroke:#000;}.cls-1,.cls-3{stroke-width:4px;}.cls-2{fill-opacity:0.31;}.cls-3,.cls-4,.cls-6{stroke-linecap:round;}.cls-4{stroke-width:2px;}.cls-6{fill:none;stroke-width:2.86px;}</style></defs><title>rat-16</title><path id="path3264" class="cls-1" d="M227.13,52c-1.89-23.29-78.06-85.62-144.79-22.66S9.94,62.7,3.65,64,9.91,78.85,27.57,76.55C71,70.88,100,16.75,140.25,17.37c40.6.64,62.33,35.89,62.33,35.89L227.13,52Z"/><path id="path2407" class="cls-2" d="M140.19,11.19c-18.06.21-37.59,7.32-56.28,26.06C66.7,54.51,54,64.42,44.56,69.88v1.93c34.53-14.65,60.89-55,95.69-54.43,40.6.63,62.31,35.87,62.31,35.87l9.44-.47C204.72,36.29,175.21,10.78,140.19,11.19Z"/><path id="path2383" class="cls-3" d="M317.15,151.46c0,57-61.82,161.79-103.24,161.79-42.59,0-103.24-104.8-103.24-161.79a103.24,103.24,0,1,1,206.48,0Z"/><path id="path3397" class="cls-2" d="M315.76,134.61c.25,2.92.38,5.86.38,8.84,0,57-61.8,161.81-103.22,161.81-38.84,0-92.73-87.18-101.91-145.75,5.11,58.25,62.26,153.75,102.91,153.75,41.42,0,103.22-104.82,103.22-161.81a103.8,103.8,0,0,0-1.38-16.84Z"/><path id="path2386" class="cls-3" d="M285.67,233a47.52,47.52,0,1,0-52.25-47.28,47,47,0,0,0,.31,5.47"/><path id="path2388" class="cls-3" d="M190.85,191.76a47.51,47.51,0,1,0-50.06,41.44"/><path id="path2390" d="M225.32,291.6c0,6.13-7.33,13.47-11.1,13.47-4.24,0-11.1-7.34-11.1-13.47s5-5.43,11.1-5.43S225.32,285.48,225.32,291.6Z"/><path id="path2397" class="cls-4" d="M191.87,250.61c0,5.74-3.52,10.39-7.87,10.39s-7.87-4.65-7.86-10.39,3.52-10.39,7.86-10.39S191.88,244.87,191.87,250.61Z"/><path id="path2399" class="cls-4" d="M248.53,250.61c0,5.74-3.52,10.39-7.87,10.39s-7.87-4.65-7.87-10.39,3.52-10.39,7.87-10.39S248.53,244.87,248.53,250.61Z"/><path id="path2401" class="cls-5" d="M187.15,248.2c0,2-1,3.56-2.2,3.56s-2.2-1.59-2.2-3.56,1-3.57,2.2-3.57S187.15,246.23,187.15,248.2Z"/><path id="path2403" class="cls-5" d="M242.24,249.14c0,2-1,3.57-2.21,3.57s-2.2-1.6-2.2-3.57,1-3.57,2.2-3.57S242.24,247.17,242.24,249.14Z"/><path id="path2427" class="cls-2" d="M281.07,145c-17.83.25-34.35,14.1-38.62,31.25a55.21,55.21,0,0,1,30.31-8.81c22.94,0,42.24,13.27,47.88,31.25,9-24-11.57-53.86-37.5-53.66Q282.11,145,281.07,145Z"/><g id="g3221"><path id="path2445" class="cls-6" d="M234.72,285.89c45.57-21.25,66.58-1.78,66.58-1.78"/><path id="path2447" class="cls-6" d="M230.34,293.86c33.3-21.24,62.21,13.27,62.21,13.27"/><path id="path2449" class="cls-6" d="M230.34,298.27c35-17.7,41.18,25.67,41.18,25.67"/></g><g id="g3384"><path id="path3386" class="cls-6" d="M193.09,285.89c-45.57-21.25-66.58-1.78-66.58-1.78"/><path id="path3388" class="cls-6" d="M197.47,293.86c-33.3-21.24-62.21,13.27-62.21,13.27"/><path id="path3390" class="cls-6" d="M197.47,298.27c-35-17.7-41.18,25.67-41.18,25.67"/></g><path id="path3405" class="cls-2" d="M145.56,145c17.83.25,34.36,14.1,38.62,31.25a55.21,55.21,0,0,0-30.31-8.81c-22.94,0-42.24,13.27-47.87,31.25-9-24,11.56-53.86,37.5-53.66C144.19,145,144.87,145,145.56,145Z"/></svg>