<svg id="publicdomainvectors.org" xmlns="http://www.w3.org/2000/svg" viewBox="0 0 660 660"><defs><style>.cls-1{fill:#e6e6e6;}.cls-1,.cls-2,.cls-3,.cls-4,.cls-5,.cls-6,.cls-7{fill-rule:evenodd;}.cls-2{fill:#6b564f;}.cls-3{fill:#99948d;}.cls-4{fill:#b0aba4;}.cls-5{fill:#dbd6d0;}.cls-6{fill:#1a1a1a;}.cls-7{fill:#827c75;}</style></defs><title>rat-07</title><path class="cls-1" d="M399.76,528.46c86.63,0,157.29-7.67,157.29-17.08S486.39,494.3,399.76,494.3,242.47,502,242.47,511.38s70.65,17.08,157.29,17.08"/><path class="cls-2" d="M318.37,500.57c-20.14-8.35-30.5-20.67-39.8-31.74-8.58-10.2-16-19-31.29-18.94-15.14.07-20.73,4.16-25.68,7.79-8,5.91-15.07,11.06-34.52,8.25-19.25-2.78-27-9-34.67-15.17-4.66-3.74-9.25-7.43-18.48-9.34-20.16-4.18-47.85,20.06-60.18,33.82,4.94-25.72,42.21-54.83,64.9-50.13,25.26,5.23,32.63,17.14,51.39,19.85,10.94,1.58,14.74-1.21,19.09-4.4,7.52-5.52,16-11.74,38-11.83,25.26-.11,35.63,12.22,47.65,26.51,7.74,9.2,16.36,19.45,31.65,25.79Z"/><path class="cls-3" d="M403.58,146.67c-1.33,28.27,9.36,46.42,29.89,64.85,16.94,15.19,24.82,8.2,44.78,2,15.9-4.9,41.44-11.23,52.19-24.58,5.9-8.66,9-20.09,10.14-30.4,1.43-30.48-.82-71.91-35.85-82.81-10.55-3.29-20.81-2-31.22,1-15.64,4.82-39.85,16.62-50.92,28.08-11.41,11.81-17.25,25.56-19,41.78"/><path class="cls-4" d="M436,175.91c54-.66,108.1,26.47,140.32,69.62,39.61,71.24-76.15,30.1-74.34,86.25C506,387.1,544.51,444,483.84,489c-67.78,46.57-166.67,28.4-194.18-56.44-23.8-73.4,5-183.65,64.83-233,24.8-17.22,52-22,81.51-23.66"/><path class="cls-5" d="M584.47,272.27c-2,21.58-35.93,20.65-59.65,29.56h0c-84.56,4.48,4.59,151.76-70.61,202.75-44.1,17-94.14,11.11-128.81-18,50.16-17.38,43.09-124.95,78.3-179.3,33.68-52,109.05-51.61,180.77-35"/><path class="cls-6" d="M558.47,273.82c2.95-17.83,22.49-20.76,35.81-13.11,26.6,15.28-15.61,51-32.54,26.65a19,19,0,0,1-3.27-13.54"/><path class="cls-6" d="M463.33,211.75a19.32,19.32,0,1,1-20.92,17.58,19.33,19.33,0,0,1,20.92-17.58"/><path class="cls-1" d="M453.82,217.94a6.65,6.65,0,1,1-7.21,6.05,6.65,6.65,0,0,1,7.21-6.05"/><path class="cls-4" d="M516.41,298.37c16-14.67-19.94-16-69-14.05,24.54,1.35,49.75,1.23,69,14.05"/><path class="cls-4" d="M432.43,157.3c-3.58,28.08-17.23,44.11-40.64,58.71-19.31,12-25.87,3.8-44.46-5.71-14.82-7.57-38.88-18.22-47.16-33.23-4.32-9.54-5.42-21.34-4.74-31.69C299.28,115.11,308.65,74.7,345,70c11-1.41,20.85,1.59,30.58,6.41,14.57,7.45,36.37,23.25,45.3,36.45,9.19,13.61,12.57,28.16,11.51,44.44"/><path class="cls-7" d="M420.31,157.38c.58-10.59-1.43-19.66-7.46-28.58-6.58-9.74-25.68-23.11-36.16-28.41-5.12-2.58-10.76-4.76-16.59-4-21.38,2.76-26.39,36.36-28.61,53.65-.31,5.74.12,13,2.25,18.45,5.34,7.83,28.84,18.74,36.57,22.69,3.47,1.77,12.59,7.45,16.59,8.9a28.18,28.18,0,0,0,4.06-2.18c16.94-10.57,26.6-20.43,29.35-40.51"/><path class="cls-3" d="M294.15,476.38c-40.82-63.2,18.66-81.51,39.37-68.75,24.47,15.08,19,55.67,37.44,77.69,6.08,7.24,12.08,6,21.46,4.79,13.56-1.72,20.41,20.64,5.73,23.79-22.23,4.76-46.57,1.8-67.95-5.91-15-5.43-27.38-18.19-36.05-31.61"/><path class="cls-3" d="M524.83,482c39-56.25-1.28-83.24-18.17-73.76-18.83,10.58-32.18,79-43.87,75.91-21.14-5.68-28.79,15.48-7.71,22.61,16.43,5.56,22.3,5.44,38.93,1C505.7,504.7,516.54,494,524.83,482"/><path class="cls-3" d="M368,345.81c-6.16-21.76,19.4-33.15,33.27-24.61,23,14.16-3.54,34.33,23.13,51.28,21.5,13.66,2.87,30.09-22.29,17.59-13.72-6.82-26.49-17.4-34.11-44.26"/><path class="cls-3" d="M511.57,357.1c7.21-20.59-8-35.54-18.4-29.1-17.2,10.66-2.62,34.41-22.67,47.29-16.16,10.38-6.24,29.3,12.17,20.59,10-4.76,20-13.36,28.9-38.78"/></svg>