<svg id="svg2" xmlns="http://www.w3.org/2000/svg" xmlns:xlink="http://www.w3.org/1999/xlink" viewBox="0 0 117.85 106.28"><defs><style>.cls-1{fill:url(#linear-gradient);}.cls-2{fill:#e9afaf;}.cls-3{fill:url(#linear-gradient-2);}.cls-4{fill:#ffb7b9;}.cls-5{fill:#c8beb7;}.cls-6{fill:url(#linear-gradient-3);}.cls-7{fill:#f4d7d7;}.cls-8{fill:url(#linear-gradient-4);}.cls-9{fill:#de8787;opacity:0.66;isolation:isolate;}.cls-10{fill:#fff;stroke:#c8beb7;stroke-width:0.69px;}.cls-11{fill:#6c5353;}</style><linearGradient id="linear-gradient" x1="-2079.38" y1="-1731.93" x2="-1704.76" y2="-1731.93" gradientTransform="matrix(0.15, 0, 0, -0.18, 328.97, -249.76)" gradientUnits="userSpaceOnUse"><stop offset="0" stop-color="#ececec"/><stop offset="1" stop-color="#ccc"/></linearGradient><linearGradient id="linear-gradient-2" x1="-501.07" y1="-1151.23" x2="-381.88" y2="-1151.23" gradientTransform="matrix(0.31, 0, 0, -0.31, 192.86, -302.77)" gradientUnits="userSpaceOnUse"><stop offset="0" stop-color="#f9f9f9"/><stop offset="1" stop-color="#e6e6e6"/></linearGradient><linearGradient id="linear-gradient-3" x1="-880.91" y1="-1216.45" x2="-773.32" y2="-1215.81" gradientTransform="matrix(0.26, 0, 0, -0.26, 254.12, -281.06)" gradientUnits="userSpaceOnUse"><stop offset="0" stop-color="#fff"/><stop offset="1" stop-color="#e6e6e6"/></linearGradient><linearGradient id="linear-gradient-4" x1="-771.94" y1="-1212.36" x2="-839.8" y2="-1212.36" gradientTransform="matrix(0.26, 0, 0, -0.28, 254.27, -290.54)" gradientUnits="userSpaceOnUse"><stop offset="0" stop-color="#ebebeb"/><stop offset="1" stop-color="#fff"/></linearGradient></defs><title>Simple_Farm_Animals</title><g id="g8124"><g id="g8126"><g id="g8128"><path id="path8130" class="cls-1" d="M58.3,43.37c-13.62,0-24.67,9.37-24.67,20.94v10.3H41V70.85c0-4,7.73-7,17.26-7s17.27,3,17.27,7v3.76H83V64.31c0-11.57-11-20.94-24.68-20.94Z"/><path id="path8132" class="cls-2" d="M33.63,73.43V77H41V73.43Zm41.94,0V77H83V73.43Z"/></g><path id="path8134" class="cls-3" d="M58.3,35.26c-16.58,0-30,11.41-30,25.48V75.58h9V73c0-4.86,9.4-6.59,21-6.59s21,1.73,21,6.59v2.55h9V60.74a22.6,22.6,0,0,0-4.57-13.5l.48-.19a6.22,6.22,0,0,0,3.13-3.3,5.49,5.49,0,0,0,.36-2.63,4.57,4.57,0,0,0-1-2.42,3.77,3.77,0,0,0-2.25-1.25A3.24,3.24,0,0,0,82,38,2.9,2.9,0,0,0,80.9,40a2.69,2.69,0,0,0,.61,2,2.55,2.55,0,0,1-.3-2,2.39,2.39,0,0,1,1.15-1.46,2.42,2.42,0,0,1,1.86-.18,2.67,2.67,0,0,1,1.42,1.11,3,3,0,0,1,.44,1.71,3.55,3.55,0,0,1-.51,1.7,3.87,3.87,0,0,1-2.27,1.76,3.64,3.64,0,0,1-1.64.07C76.16,39,67.73,35.26,58.3,35.26Z"/><g id="g8136"><path id="path8138" class="cls-4" d="M28.28,74.15v4.34h9V74.15Zm51,0v4.34h9V74.15Z"/></g><path id="path8142" class="cls-5" d="M58.3,35.27a35.19,35.19,0,0,0-3.58.17A7.48,7.48,0,0,0,57.09,45a7.65,7.65,0,0,0,2.45,1.2A3.62,3.62,0,0,0,61,49a4.08,4.08,0,0,0,5.32-.79,8.49,8.49,0,0,0,13.22-5.44A32.75,32.75,0,0,0,58.3,35.27ZM84.86,48.91a.57.57,0,0,0-.13.08,8,8,0,0,0-3.32,4.86,5.7,5.7,0,0,0-5.16.54,6.06,6.06,0,0,0,4.07,10.93,8.12,8.12,0,0,0,8,6.7V60.75a22.35,22.35,0,0,0-3.44-11.84Zm-55.7,5.73a21.85,21.85,0,0,0-.87,6.11v11a7.85,7.85,0,0,0,1.08-2,6.09,6.09,0,0,0,5.9-10.1,5.68,5.68,0,0,0-5-1.41,8,8,0,0,0-1.12-3.66ZM61,56.6a6,6,0,0,0-2.33.54,5.94,5.94,0,0,0-3.53,4.94,8.23,8.23,0,0,0-3.37.71,7.93,7.93,0,0,0-4.15,4.32,76.53,76.53,0,0,1,10.68-.66,77.8,77.8,0,0,1,10.64.66,8.06,8.06,0,0,0-2.7-1.91,5.74,5.74,0,0,0,.37-5.2A5.91,5.91,0,0,0,61,56.6Z"/></g><g id="g8144"><path id="path8146" class="cls-6" d="M25.3,18.43S22.7,27,24.46,30.78c.75,1.61,2.63,2.57,4.31,3.12a4.84,4.84,0,0,0,1.54.2c-.63,1.18-1.16,2.43-1.67,3.64a17.35,17.35,0,0,0-1.56,6.47,12,12,0,0,0,1.44,6.36,12,12,0,0,0,4.91,4,14.78,14.78,0,0,0,4.8,1.32,15.73,15.73,0,0,0,2,.07,15.8,15.8,0,0,0,2-.07,14.78,14.78,0,0,0,4.8-1.32,12,12,0,0,0,4.91-4,11.9,11.9,0,0,0,1.44-6.36,17.16,17.16,0,0,0-1.56-6.47c-.51-1.21-1-2.46-1.67-3.64a4.8,4.8,0,0,0,1.54-.2c1.69-.55,3.56-1.51,4.32-3.12,1.75-3.74-.85-12.35-.85-12.35S49.86,20.38,48,22.38s-3.51,4.35-3.63,6.88l-.91-.16a19.61,19.61,0,0,0-3.2-.08c-.57,0-1.2,0-1.82,0a11.07,11.07,0,0,0-1.4.1l-.91.16c-.11-2.53-1.89-5-3.63-6.88s-7.19-3.95-7.19-3.95Z"/><path id="path8148" class="cls-7" d="M25.94,20.55s-1.93,6.8-.62,9.75a4.82,4.82,0,0,0,3.22,2.46,4.9,4.9,0,0,0,3.66-.57A3.5,3.5,0,0,0,34,29.83c.26-2.25-1.23-4.5-2.68-6.15s-5.37-3.13-5.37-3.13Zm28.59,0s-4,1.55-5.37,3.13-2.94,3.9-2.68,6.15a3.5,3.5,0,0,0,1.79,2.36,4.9,4.9,0,0,0,3.66.57,4.82,4.82,0,0,0,3.22-2.46c1.31-2.95-.62-9.75-.62-9.75Z"/><g id="g8150"><path id="path8152" class="cls-7" d="M43.6,49c0,1.21-1.51,2.19-3.37,2.19s-3.37-1-3.37-2.19,1.51-2.19,3.37-2.19S43.6,47.79,43.6,49Z"/><g id="g8154"><path id="path8158" class="cls-8" d="M40.24,41.7a6,6,0,0,0-5.82,6.1,6.49,6.49,0,0,0,.18,1.54,21.54,21.54,0,0,0,11.27,0,6.49,6.49,0,0,0,.18-1.54,6,6,0,0,0-5.81-6.1Z"/><path id="path8162" class="cls-9" d="M38.62,44.87a1.28,1.28,0,1,0,1.19,1.27A1.24,1.24,0,0,0,38.62,44.87Zm3.24,0a1.28,1.28,0,1,0,1.19,1.27A1.24,1.24,0,0,0,41.86,44.87Z"/></g></g><g id="g8164"><g id="g8166"><path id="path8168" class="cls-10" d="M48.77,38.34a3.19,3.19,0,1,1-3.19-3.19A3.18,3.18,0,0,1,48.77,38.34Z"/><path id="path8170" class="cls-11" d="M47.52,38.78a1.94,1.94,0,1,1-1.93-1.92A1.92,1.92,0,0,1,47.52,38.78Z"/></g><g id="g8172"><path id="path8178" class="cls-10" d="M38.07,38.34a3.19,3.19,0,1,1-3.19-3.19A3.18,3.18,0,0,1,38.07,38.34Z"/><path id="path8180" class="cls-11" d="M36.83,38.78a1.94,1.94,0,1,1-1.94-1.92A1.93,1.93,0,0,1,36.83,38.78Z"/></g></g></g></g></svg>