<svg id="svg2" xmlns="http://www.w3.org/2000/svg" xmlns:xlink="http://www.w3.org/1999/xlink" viewBox="0 0 117.85 106.28"><defs><style>.cls-1{fill:url(#linear-gradient);}.cls-2{fill:#e9ddaf;}.cls-3{fill:url(#linear-gradient-2);}.cls-4{fill:#f4eed7;}.cls-5{fill:url(#linear-gradient-3);}.cls-6{fill:url(#linear-gradient-4);}.cls-7{fill:#8e4c21;}.cls-8{fill:url(#linear-gradient-5);}.cls-9{fill:#fff;stroke:#a7835c;stroke-width:0.54px;}.cls-10{fill:#520;}</style><linearGradient id="linear-gradient" x1="-698.91" y1="-646.81" x2="-1116.41" y2="-655.88" gradientTransform="matrix(0.17, 0, 0, -0.21, 198.33, -68.3)" gradientUnits="userSpaceOnUse"><stop offset="0" stop-color="#784421"/><stop offset="1" stop-color="#e9ddaf"/></linearGradient><linearGradient id="linear-gradient-2" x1="-195.69" y1="-595.63" x2="-730.02" y2="-588.91" gradientTransform="matrix(0.21, 0, 0, -0.25, 158.09, -87.56)" xlink:href="#linear-gradient"/><linearGradient id="linear-gradient-3" x1="28.47" y1="-483.21" x2="-183.85" y2="-483.21" gradientTransform="matrix(0.3, 0, 0, -0.3, 84.94, -86.41)" gradientUnits="userSpaceOnUse"><stop offset="0" stop-color="#520"/><stop offset="1" stop-color="#a05a2c"/></linearGradient><linearGradient id="linear-gradient-4" x1="-480.43" y1="-584.77" x2="-621.21" y2="-581.78" gradientTransform="matrix(0.28, -0.01, -0.01, -0.25, 194.67, -113.02)" xlink:href="#linear-gradient"/><linearGradient id="linear-gradient-5" x1="-331.15" y1="-562.06" x2="-445.71" y2="-560.51" gradientTransform="matrix(0.27, -0.01, -0.01, -0.25, 143.25, -119.57)" xlink:href="#linear-gradient-3"/></defs><title>Simple_Farm_Animals</title><g id="g8457"><g id="g8459"><path id="path8461" class="cls-1" d="M63.07,41.44c-15.85,0-28.7,10.9-28.7,24.35V90.14H43v-6c0-4.65,9-8.42,20.08-8.42s20.08,3.77,20.08,8.42v6h8.62V65.79c0-13.45-12.85-24.35-28.7-24.35Z"/><path id="path8463" class="cls-2" d="M34.37,88.77v4.14H43V88.77Zm48.78,0v4.14h8.62V88.77Z"/></g><g id="g8465"><path id="path8467" class="cls-3" d="M63.06,32C43.77,32,28.14,45.28,28.14,61.64V91.27H38.62V86.63c0-5.66,10.94-10.25,24.44-10.25S87.49,81,87.49,86.63v4.64H98V61.64C98,45.28,82.34,32,63.06,32Z"/><path id="path8469" class="cls-4" d="M28.14,89.59v5H38.65v-5Zm59.32,0v5H98v-5Z"/></g><g id="g8471"><path id="path8473" class="cls-5" d="M60.28,29.21a4,4,0,0,0-3.76,2.89,3.83,3.83,0,0,0-3-1.49A4,4,0,0,0,49.63,34a3.27,3.27,0,0,0-.45,0,4.06,4.06,0,0,0-3.93,4A3.8,3.8,0,0,0,43,37.2a4,4,0,0,0-3.88,3.39,4,4,0,0,0-1.2-.2A4.08,4.08,0,0,0,34,44.58c0,.14,0,.28,0,.42h-.4a4.06,4.06,0,0,0-3.94,4.19,4.32,4.32,0,0,0,.59,2.21,4.11,4.11,0,0,0-3.61,4.17,4.38,4.38,0,0,0,.51,2,4.31,4.31,0,0,0-.37,7.28,4.38,4.38,0,0,0-.26,6.26,4.27,4.27,0,0,0-1.38,3.18,4.08,4.08,0,0,0,3.95,4.2,3.73,3.73,0,0,0,2.12-.67,4.91,4.91,0,0,0-.05.67,4.07,4.07,0,0,0,3.95,4.19,3.78,3.78,0,0,0,2.41-.88,3.94,3.94,0,0,0,3.6,2.47A4,4,0,0,0,45,80.85a3.73,3.73,0,0,0,1.38.27,3.88,3.88,0,0,0,3.09-1.58,3.8,3.8,0,0,0,2.74,1.18,4,4,0,0,0,3.78-3,3.68,3.68,0,0,0,1.11.17,3.84,3.84,0,0,0,2.84-1.28,4,4,0,0,0,3.74,2.88,3.88,3.88,0,0,0,3.33-2,3.75,3.75,0,0,0,2.5,1A3.82,3.82,0,0,0,71.38,78a4,4,0,0,0,3.75,2.9,3.8,3.8,0,0,0,2.66-1.1A3.88,3.88,0,0,0,81,81.53c.13,0,.26,0,.38,0a3.93,3.93,0,0,0,3.57,2.42A3.84,3.84,0,0,0,88,82.33a3.86,3.86,0,0,0,2.93,1.39A4,4,0,0,0,94.63,81a3.66,3.66,0,0,0,1,.15,4.07,4.07,0,0,0,4-4.19,4.52,4.52,0,0,0-.19-1.29,4.37,4.37,0,0,0,.35-6.27,4.41,4.41,0,0,0,.41-1.82,4.32,4.32,0,0,0-1.18-3,4.22,4.22,0,0,0,2.3-3.81,4.16,4.16,0,0,0-2.89-4,4.37,4.37,0,0,0,.83-2.55,4.18,4.18,0,0,0-2.89-4,4.35,4.35,0,0,0,.81-2.55,4.06,4.06,0,0,0-3.94-4.19,5.46,5.46,0,0,0-.58,0c0-.08,0-.16,0-.24a4.08,4.08,0,0,0-4-4.19,3.76,3.76,0,0,0-2.27.76,4.06,4.06,0,0,0-3.93-4,4.17,4.17,0,0,0-.94.12A4,4,0,0,0,77.77,33a3.68,3.68,0,0,0-1.94.55,4,4,0,0,0-3.7-2.74,3.88,3.88,0,0,0-3.2,1.74,3.9,3.9,0,0,0-3.2-1.74,3.82,3.82,0,0,0-2,.57,3.91,3.91,0,0,0-3.45-2.17Z"/><g id="g8475"><g id="g8477"><path id="path8479" class="cls-6" d="M16.58,19.81s1.88,7.06,4.29,9.33c1.32,1.25,4,2.08,6,2.55,1.29,6.35,2.84,10.37,4.66,16.74.34,1.19,1.3,3.76,2.88,5a5.91,5.91,0,0,0,3,1.26,6,6,0,0,0,3-1.37C41.9,52,42.75,49.41,43,48.21c1.54-6.43,2.89-10.51,3.9-16.9,2-.54,4.62-1.47,5.89-2.77,2.3-2.36,3.85-9.48,3.85-9.48s-5.62.59-7.93,2.17a10,10,0,0,0-2.32,2.27,39.51,39.51,0,0,0-3.73-1.58,19.11,19.11,0,0,0-6-1.37,18.78,18.78,0,0,0-6,1.6A33.81,33.81,0,0,0,27,23.87a9.78,9.78,0,0,0-2.42-2.18c-2.38-1.5-8-1.88-8-1.88Z"/><path id="path8481" class="cls-4" d="M18.1,21s1.31,5.43,3,7.19,5.82,2.34,5.82,2.34a16.8,16.8,0,0,0-.46-4.39,8.13,8.13,0,0,0-2.77-3.69C22,21.28,18.1,21,18.1,21Zm37.11-.7s-3.92.45-5.52,1.66a8,8,0,0,0-2.6,3.79,16.81,16.81,0,0,0-.27,4.4s4.24-.88,5.72-2.55,2.67-7.3,2.67-7.3Z"/></g><path id="path8483" class="cls-7" d="M34.13,47a.28.28,0,0,0-.15,0c-.18.11-.16.4,0,.65s.48.27.68.45c.78.71,1.21,1.84,2,2.4a1.57,1.57,0,0,0,.39.17c.06.29.14,1-.14,1.21s-.58.12-.87.07a6.9,6.9,0,0,1-1.74-.8A14.37,14.37,0,0,0,36,52.58a4.41,4.41,0,0,0,1,.44l.33.06.33-.07a4.54,4.54,0,0,0,1-.48,14.38,14.38,0,0,0,1.66-1.41,6.6,6.6,0,0,1-1.7.86c-.28.06-.66.14-.87,0s-.24-.91-.2-1.21a1.08,1.08,0,0,0,.39-.18c.71-.58,1.09-1.73,1.84-2.46.19-.19.47-.23.65-.48s.19-.55,0-.66a.33.33,0,0,0-.15,0,.66.66,0,0,0-.5.31c-.14.2-.1.36-.21.51A4.43,4.43,0,0,1,38,49.28a2.38,2.38,0,0,1-.74.24,2.69,2.69,0,0,1-.75-.21,4.58,4.58,0,0,1-1.67-1.48c-.12-.15-.08-.31-.23-.5a.68.68,0,0,0-.52-.29Z"/><path id="path8485" class="cls-8" d="M33.83,16.88a4.76,4.76,0,0,0-4.1,2.34,4.1,4.1,0,0,0-4.13,4.06,4.11,4.11,0,0,0,4,3.89,4.27,4.27,0,0,0,4.16,2.59h0a4.57,4.57,0,0,0,6.16-.11h0a4.23,4.23,0,0,0,4-2.75,4.1,4.1,0,0,0,3.82-4A4.16,4.16,0,0,0,43.5,19a4.8,4.8,0,0,0-4.19-2.19,4.91,4.91,0,0,0-2.72.87,4.94,4.94,0,0,0-2.76-.76Z"/><g id="g8487"><g id="g8489"><g id="g8491"><path id="path8493" class="cls-9" d="M34,35.42c.57,2.79-.75,5.39-2.93,5.81s-4.41-1.51-5-4.3.75-5.39,2.94-5.8S33.45,32.63,34,35.42Z"/><path id="path8495" class="cls-10" d="M32.3,37.34c.28,1.39-.28,2.68-1.25,2.86s-2-.79-2.27-2.19.28-2.67,1.25-2.86S32,35.94,32.3,37.34Z"/></g></g><g id="g8498"><g id="g8500"><path id="path8502" class="cls-9" d="M40,35.42c-.56,2.79.75,5.39,2.94,5.81s4.41-1.51,5-4.3-.74-5.39-2.93-5.8S40.52,32.63,40,35.42Z"/><path id="path8504" class="cls-10" d="M41.67,37.34c-.29,1.39.27,2.68,1.24,2.86s2-.79,2.27-2.19-.27-2.67-1.24-2.86S42,35.94,41.67,37.34Z"/></g></g></g></g></g></g></svg>