<svg id="svg2" xmlns="http://www.w3.org/2000/svg" xmlns:xlink="http://www.w3.org/1999/xlink" viewBox="0 0 117.85 106.28"><defs><style>.cls-1{fill:url(#linear-gradient);}.cls-2{fill:#ac9d93;}.cls-3{fill:url(#linear-gradient-2);}.cls-4{fill:#502d16;}.cls-5{fill:#c8beb7;}.cls-6{fill:url(#linear-gradient-3);}.cls-7{fill:#fff;stroke:#c8beb7;stroke-width:0.54px;}</style><linearGradient id="linear-gradient" x1="-388.6" y1="-410.55" x2="-758.85" y2="-408.79" gradientTransform="matrix(0.26, 0, 0, -0.35, 176.39, -81.94)" gradientUnits="userSpaceOnUse"><stop offset="0" stop-color="#ccc"/><stop offset="1" stop-color="#ececec"/></linearGradient><linearGradient id="linear-gradient-2" x1="84.35" y1="-422.53" x2="-256.63" y2="-422.96" gradientTransform="matrix(0.33, 0, 0, -0.43, 91.91, -125.51)" gradientUnits="userSpaceOnUse"><stop offset="0" stop-color="#ccc"/><stop offset="1" stop-color="#f2f2f2"/></linearGradient><linearGradient id="linear-gradient-3" x1="-973.67" y1="-244.19" x2="-1146.94" y2="-244.19" gradientTransform="matrix(0.33, 0, 0, -0.33, 377.22, -55.57)" gradientUnits="userSpaceOnUse"><stop offset="0" stop-color="#e8e8e8"/><stop offset="1" stop-color="#fff"/></linearGradient></defs><title>Simple_Farm_Animals</title><g id="g8296"><g id="g8298"><g id="g8300"><path id="path8302" class="cls-1" d="M57.91,31.23c-20.74,0-37.56,17.16-37.56,38.33V88.43H31.63V80.88c0-7.33,11.77-10.25,26.28-10.25s26.28,2.92,26.28,10.25v7.55H95.47V69.56c0-21.17-16.82-38.33-37.56-38.33Z"/><path id="path8304" class="cls-2" d="M20.36,86.26v6.53H31.67V86.26Zm63.79,0v6.53H95.51V86.26Z"/></g><g id="g8306"><path id="path8308" class="cls-3" d="M57.92,20.07c-25.67,0-46.49,21.24-46.49,47.45V90.88h14v-6.1c0-9.07,14.58-12.69,32.54-12.69s32.54,3.62,32.54,12.69v6.1h14V67.52a47.76,47.76,0,0,0-12.72-32.6,8.22,8.22,0,0,1,3.54-5.18,7.77,7.77,0,0,1,3.86-1.24,8,8,0,0,1,4,.88A10,10,0,0,1,106.86,33a16.56,16.56,0,0,1,2,5.17c.84,3.69.75,7.64,1.1,11.56,0,.37.07.75.11,1.12-.3.6-1.4,1.84-1.51,2.95A7,7,0,0,0,110,58.68c1.31,1.68,5.52,3.06,5.52,3.06a5.15,5.15,0,0,1-.84-1.32c-.5-1.8.56-3.8.1-5.61a6.66,6.66,0,0,0-1.92-3.37,4.78,4.78,0,0,0-2.08-.79c0-.33,0-.65,0-1-.16-3.87.12-7.82-.57-11.77a18.24,18.24,0,0,0-1.94-5.73A11.78,11.78,0,0,0,104,27.72a9.81,9.81,0,0,0-9.88,0,10.6,10.6,0,0,0-3.75,3.72,10.28,10.28,0,0,0-.7,1.41A45.83,45.83,0,0,0,57.92,20.07Z"/><path id="path8310" class="cls-4" d="M56.7,20.08a45.7,45.7,0,0,0-22.4,6.56c-1.79,3.86-.74,8.46,2.59,10.67,3.62,2.4,8.56,1.07,11-3,.11-.19.23-.39.33-.58a5.75,5.75,0,0,0,.95.25,5.09,5.09,0,0,0,6.11-3.9c0-.05,0-.1,0-.15a4.33,4.33,0,0,0,3.42-2.13,5.27,5.27,0,0,0,.74-1.95,4.73,4.73,0,0,0-3-5.45l.15-.35ZM74.79,23.3a8.81,8.81,0,0,0-5.08,5.11,9,9,0,0,0,.69,8.44,11.27,11.27,0,0,0-1.66,2.84A12,12,0,0,0,75,55.08a11.19,11.19,0,0,0,8.29.27,7.41,7.41,0,0,0,3.24,2.76,7.5,7.5,0,0,0,9.87-4.36,8.37,8.37,0,0,0,.6-3.62,10.57,10.57,0,0,0,3.1-2.6A47.09,47.09,0,0,0,74.79,23.3Zm-57.46,21a47.87,47.87,0,0,0-5.68,18.34,7.66,7.66,0,0,0,2.2,3,5,5,0,0,0-.31,2.81,5,5,0,0,0,5.76,4.09,5.08,5.08,0,0,0,2.12-.93,6.34,6.34,0,0,0,4.41.81A7.16,7.16,0,0,0,31.3,64a7.88,7.88,0,0,0-.61-2,4.73,4.73,0,0,0,3-5.44,5.26,5.26,0,0,0-.74-2,4.3,4.3,0,0,0-3.42-2.12s0-.11,0-.16a5.09,5.09,0,0,0-6.11-3.9,5.75,5.75,0,0,0-.95.25c-.11-.19-.21-.38-.33-.58a8.74,8.74,0,0,0-4.75-3.79ZM65,58.2a7.64,7.64,0,0,0-1,.11A7,7,0,0,0,61,59.6a8.91,8.91,0,0,0-6.11-1.13c-5.11.92-8.52,6.14-7.59,11.64a10.41,10.41,0,0,0,.7,2.4c3.12-.28,6.45-.42,9.91-.42a91.88,91.88,0,0,1,17.17,1.43,10.8,10.8,0,0,0-3.59-5.64A7.1,7.1,0,0,0,71.94,64,6.89,6.89,0,0,0,65,58.2Zm39,4.23a6.52,6.52,0,0,0-6.59,5.23c0,.07,0,.14,0,.21a5.61,5.61,0,0,0-4.48,2.78,7,7,0,0,0-1,2.57c-.55,3.25,1.16,6.31,3.88,7.12A10.43,10.43,0,0,0,95,82.93,10,10,0,0,0,97,90.88h7.37V67.52a47.51,47.51,0,0,0-.27-5.09Z"/><path id="path8312" class="cls-5" d="M11.4,88.19v8.09h14V88.19Zm79,0v8.09h14.06V88.19Z"/></g></g><g id="g8314"><g id="g8316"><path id="path8318" class="cls-6" d="M28.23,2.16a9.23,9.23,0,0,0-3.61.59,14.42,14.42,0,0,0-5.74,4.44A18.44,18.44,0,0,0,17,11.62S13.74,7,11.33,6.23C7.8,5.08.37,7.79.37,7.79s4,8.06,7.6,9.88c2.62,1.33,8.7,0,8.7,0s3.23,12.38,3.88,18.74a11.47,11.47,0,0,1,0,2c-.16,2-1.66,3.27-1.26,4.91A2.57,2.57,0,0,0,21,45.15c.76.22,1.1-.22,1.62-.07,1.13.33,1.88,1.56,3,2a7.4,7.4,0,0,0,2.68.6,7.49,7.49,0,0,0,2.69-.6c1.08-.46,1.84-1.69,3-2,.52-.15.86.29,1.62.07a2.57,2.57,0,0,0,1.67-1.8c.4-1.64-1.1-2.94-1.26-4.91a12.51,12.51,0,0,1,0-2c.66-6.36,3.89-18.74,3.89-18.74s6.07,1.33,8.7,0c3.57-1.82,7.59-9.88,7.59-9.88s-7.43-2.71-11-1.56c-2.41.79-5.7,5.39-5.7,5.39a18.44,18.44,0,0,0-1.85-4.43,14.35,14.35,0,0,0-5.74-4.44,9.23,9.23,0,0,0-3.61-.59Z"/><path id="path8320" class="cls-4" d="M21.76,4.39a13.65,13.65,0,0,0-2.88,2.8A18.44,18.44,0,0,0,17,11.62h0c-.14.66-.22,1.34-.31,2-.06.51-.14,1-.15,1.53,0,.66.07,1.31.1,2,0,.21,0,.41,0,.62s3,11.45,3.78,18a7.74,7.74,0,0,0,5.42-5.77,9.23,9.23,0,0,0,.26-2.26c2.23.38,4.46-1.32,5.13-4a6.51,6.51,0,0,0,.14-2.31,5,5,0,0,0-2.34-3.76,1.09,1.09,0,0,0,.05-.17,5.95,5.95,0,0,0-5.14-7c0-.25,0-.49-.06-.73a10.45,10.45,0,0,0-2.16-5.28Z"/><path id="path8324" class="cls-5" d="M9.94,7.48A23.93,23.93,0,0,0,2.86,8.92s3.32,6.68,6.2,8.16c2.17,1.11,6.9.11,7.62,0a16.39,16.39,0,0,1,0-3.43,4.25,4.25,0,0,1-.27-.46c-1.15-2.41-2.53-4.49-4.6-5.33a5.12,5.12,0,0,0-1.87-.33Zm36.64,0a5.17,5.17,0,0,0-1.88.33c-2.06.84-3.45,2.92-4.59,5.33a4.34,4.34,0,0,1-.28.46,14.76,14.76,0,0,1,0,3.43c.72.16,5.46,1.16,7.62,0,2.88-1.48,6.2-8.16,6.2-8.16a23.83,23.83,0,0,0-7.07-1.44Z"/></g><g id="g8326"><path id="path8328" class="cls-4" d="M23.42,38.81a1,1,0,0,0-.39.1,1.87,1.87,0,0,0-.44,2.4c.42,1,1.29,1.56,1.95,1.24a2.26,2.26,0,0,0-1.12-3.74Zm9.64,0a1.9,1.9,0,0,0-1.57,1.33c-.41,1-.22,2.08.44,2.41s1.53-.23,2-1.24a1.88,1.88,0,0,0-.44-2.4,1,1,0,0,0-.38-.1Z"/><path id="path8330" class="cls-5" d="M24.86,45.11c.26.79,1.67,1.4,3.38,1.4s3.11-.61,3.37-1.4a17.78,17.78,0,0,1-3.37.29A17.74,17.74,0,0,1,24.86,45.11Z"/><path id="path8332" class="cls-2" d="M28.23,35.9c-3.66,0-6.63-1.06-6.63,3.38,0,.08,0,.16,0,.23.18-3.69,3.07-2.69,6.62-2.69s6.45-1,6.63,2.69c0-.07,0-.15,0-.23,0-4.44-3-3.38-6.64-3.38Z"/></g><g id="g8334"><g id="g8336"><path id="path8338" class="cls-7" d="M26.29,18c.77,2.76-.29,5.56-2.37,6.26s-4.4-1-5.17-3.76.28-5.57,2.37-6.26S25.51,15.18,26.29,18Z"/><path id="path8340" class="cls-4" d="M25.1,19c.49,1.77-.19,3.56-1.52,4s-2.81-.64-3.31-2.41.19-3.56,1.52-4S24.6,17.23,25.1,19Z"/></g><g id="g8342"><path id="path8344" class="cls-7" d="M30.17,18c-.77,2.76.29,5.56,2.37,6.26s4.4-1,5.17-3.76-.29-5.57-2.37-6.26S31,15.18,30.17,18Z"/><path id="path8346" class="cls-4" d="M31.36,19c-.49,1.77.19,3.56,1.52,4s2.81-.64,3.31-2.41-.19-3.56-1.52-4S31.86,17.23,31.36,19Z"/></g></g></g></g></svg>