<svg id="svg2" xmlns="http://www.w3.org/2000/svg" xmlns:xlink="http://www.w3.org/1999/xlink" viewBox="0 0 117.85 106.28"><defs><style>.cls-1{fill:url(#linear-gradient);}.cls-2{fill:#b3b3b3;}.cls-3{fill:url(#linear-gradient-2);}.cls-4{fill:#333;}.cls-5{fill:#ccc;}.cls-6{fill:url(#linear-gradient-3);}.cls-7{fill:#666;}.cls-8{fill:#fff;stroke:#ccc;stroke-width:0.46px;}</style><linearGradient id="linear-gradient" x1="-1390.87" y1="-1392.04" x2="-1722.27" y2="-1390.46" gradientTransform="matrix(0.26, 0, 0, -0.35, 435.93, -418.4)" gradientUnits="userSpaceOnUse"><stop offset="0" stop-color="#ccc"/><stop offset="1" stop-color="#ececec"/></linearGradient><linearGradient id="linear-gradient-2" x1="-739.77" y1="-1265.25" x2="-1044.98" y2="-1265.64" gradientTransform="matrix(0.33, 0, 0, -0.43, 351.45, -482.55)" gradientUnits="userSpaceOnUse"><stop offset="0" stop-color="#ccc"/><stop offset="1" stop-color="#f2f2f2"/></linearGradient><linearGradient id="linear-gradient-3" x1="-1767.93" y1="-1280.58" x2="-1923.02" y2="-1280.58" gradientTransform="matrix(0.33, 0, 0, -0.33, 636.76, -387.98)" gradientUnits="userSpaceOnUse"><stop offset="0" stop-color="#e8e8e8"/><stop offset="1" stop-color="#fff"/></linearGradient></defs><title>Simple_Farm_Animals</title><g id="g8394"><g id="g8396"><g id="g8398"><path id="path8400" class="cls-1" d="M55.46,39.34c-18.57,0-33.62,14.1-33.62,31.5v15.5h10.1v-6.2c0-6,10.53-8.42,23.52-8.42S79,74.12,79,80.14v6.2H89.08V70.84c0-17.4-15-31.5-33.62-31.5Z"/><path id="path8402" class="cls-2" d="M21.84,84.56v5.37H32V84.56Zm57.11,0v5.37H89.12V84.56Z"/></g><g id="g8404"><path id="path8406" class="cls-3" d="M55.47,30.17c-23,0-41.62,17.45-41.62,39V88.35H26.34v-5c0-7.46,13.05-10.43,29.13-10.43s29.12,3,29.12,10.43v5h12.5V69.16A37.55,37.55,0,0,0,85.7,42.37a6.5,6.5,0,0,1,.71-1.8,6.9,6.9,0,0,1,2.46-2.46,7.38,7.38,0,0,1,3.45-1,7.69,7.69,0,0,1,3.59.73,8.6,8.6,0,0,1,3.37,3A12.85,12.85,0,0,1,101.09,45c.75,3,.68,6.28,1,9.5,0,.31.06.61.1.92-.27.49-1.26,1.51-1.36,2.42a5.47,5.47,0,0,0,1.23,4c1.18,1.39,4.94,2.52,4.94,2.52a4.23,4.23,0,0,1-.75-1.09c-.45-1.47.51-3.12.09-4.61a5.33,5.33,0,0,0-1.72-2.77,4.62,4.62,0,0,0-1.86-.65c0-.26,0-.53,0-.8-.13-3.18.11-6.42-.5-9.67a14.21,14.21,0,0,0-1.74-4.71,10.07,10.07,0,0,0-3.78-3.66,9.35,9.35,0,0,0-4.39-1.11,9.6,9.6,0,0,0-4.45,1.09,9.13,9.13,0,0,0-3.36,3,8.68,8.68,0,0,0-.63,1.16A43,43,0,0,0,55.47,30.17Z"/><path id="path8409" class="cls-4" d="M54.37,30.17a43.62,43.62,0,0,0-20,5.39,6.63,6.63,0,0,0,2.32,8.77,7.42,7.42,0,0,0,9.88-2.44,4.8,4.8,0,0,0,.3-.48,5.86,5.86,0,0,0,.85.21c2.62.43,5.07-1,5.47-3.21,0,0,0-.08,0-.12a3.92,3.92,0,0,0,3.06-1.75,4.22,4.22,0,0,0,.67-1.6,3.85,3.85,0,0,0-2.66-4.48,2.55,2.55,0,0,0,.13-.29Zm16.2,2.65A7.62,7.62,0,0,0,66,37,6.93,6.93,0,0,0,66.64,44a9.76,9.76,0,0,0-1.48,2.34,9.54,9.54,0,0,0,5.58,12.64,10.85,10.85,0,0,0,7.42.23,6.42,6.42,0,0,0,2.91,2.26,6.9,6.9,0,0,0,8.83-3.58,6.25,6.25,0,0,0,.53-3,9.05,9.05,0,0,0,2.78-2.13A40.78,40.78,0,0,0,70.57,32.82ZM19.14,50.1a37.1,37.1,0,0,0-5.09,15.07,6.41,6.41,0,0,0,2,2.43,3.82,3.82,0,0,0-.28,2.3,4.42,4.42,0,0,0,5.16,3.37,4.61,4.61,0,0,0,1.89-.77,6.14,6.14,0,0,0,3.95.67,5.92,5.92,0,0,0,4.9-6.9,5.54,5.54,0,0,0-.55-1.62,3.83,3.83,0,0,0,2.65-4.47,4.22,4.22,0,0,0-.65-1.62A4,4,0,0,0,30,56.82s0-.08,0-.13c-.41-2.2-2.85-3.64-5.48-3.2a5.85,5.85,0,0,0-.85.2c-.09-.16-.19-.31-.29-.47a7.76,7.76,0,0,0-4.25-3.12ZM61.81,61.5a7.65,7.65,0,0,0-.94.09,6.65,6.65,0,0,0-2.64,1.06,8.57,8.57,0,0,0-5.47-.93A8.18,8.18,0,0,0,46.6,73.26c2.79-.23,5.78-.34,8.87-.34a89.17,89.17,0,0,1,15.37,1.17,8.9,8.9,0,0,0-3.21-4.64A5.32,5.32,0,0,0,68,66.26a6,6,0,0,0-6.21-4.76ZM96.69,65c-2.92,0-5.43,1.77-5.89,4.29a1.13,1.13,0,0,0,0,.18,5.12,5.12,0,0,0-4,2.28,5.47,5.47,0,0,0-.86,2.11,5,5,0,0,0,3.47,5.85,7.75,7.75,0,0,0,1.12,8.67h6.59V69.16A38.47,38.47,0,0,0,96.85,65Z"/><path id="path8411" class="cls-5" d="M13.83,86.15v6.64H26.37V86.15Zm70.7,0v6.64H97.11V86.15Z"/></g></g><g id="g8413"><g id="g8415"><g id="g8417"><path id="path8419" class="cls-6" d="M28.9,15.45a8.62,8.62,0,0,0-3.24.48,12.86,12.86,0,0,0-5.14,3.65,14.83,14.83,0,0,0-1.65,3.64s-3-3.78-5.1-4.43C10.61,17.84,4,20.07,4,20.07s3.6,6.63,6.8,8.12c2.35,1.1,7.78,0,7.78,0S21.43,38.36,22,43.6a8.37,8.37,0,0,1,0,1.66c-.14,1.62-1.49,2.69-1.13,4a2.23,2.23,0,0,0,1.5,1.48c.68.17,1-.18,1.45-.06,1,.27,1.68,1.28,2.65,1.65a6.84,6.84,0,0,0,2.41.5,6.83,6.83,0,0,0,2.4-.5C32.27,52,33,51,34,50.72c.47-.12.77.23,1.46.06A2.23,2.23,0,0,0,36.9,49.3c.36-1.35-1-2.42-1.13-4a9.2,9.2,0,0,1,0-1.66c.59-5.24,3.48-15.41,3.48-15.41s5.43,1.1,7.79,0c3.19-1.49,6.79-8.12,6.79-8.12S47.18,17.84,44,18.79c-2.15.65-5.1,4.43-5.1,4.43a14.44,14.44,0,0,0-1.65-3.64,12.86,12.86,0,0,0-5.14-3.65,9,9,0,0,0-3.23-.48Z"/><path id="path8421" class="cls-4" d="M23.1,17.28a12.32,12.32,0,0,0-2.58,2.3,14.83,14.83,0,0,0-1.65,3.64h0c-.13.54-.2,1.1-.28,1.65a10.38,10.38,0,0,0-.13,1.25c0,.54.06,1.08.09,1.62,0,.16,0,.33,0,.5A142.75,142.75,0,0,1,21.94,43a6.62,6.62,0,0,0,4.85-4.73A7.09,7.09,0,0,0,27,36.39a4.24,4.24,0,0,0,4.58-3.28,4.7,4.7,0,0,0,.13-1.89,4.07,4.07,0,0,0-2.09-3.09c0-.05,0-.09,0-.14.65-2.37-1-4.87-3.69-5.6a5.82,5.82,0,0,0-.91-.17c0-.2,0-.4-.05-.6a8.13,8.13,0,0,0-1.94-4.34Z"/><path id="path8425" class="cls-5" d="M12.52,19.82A23,23,0,0,0,6.19,21s3,5.49,5.55,6.71c1.94.91,6.17.09,6.82,0a10.71,10.71,0,0,1-.09-1.42,10.4,10.4,0,0,1,.09-1.4,4.13,4.13,0,0,1-.25-.38c-1-2-2.26-3.69-4.11-4.38a5.06,5.06,0,0,0-1.68-.27Zm32.8,0a5,5,0,0,0-1.68.27c-1.85.69-3.09,2.4-4.11,4.38-.07.12-.17.26-.25.38a12.36,12.36,0,0,1,.09,1.4,12.72,12.72,0,0,1-.09,1.42c.64.13,4.88.95,6.82,0C48.68,26.49,51.65,21,51.65,21a23,23,0,0,0-6.33-1.18Z"/></g><g id="g8433"><path id="path8435" d="M24.59,45.57a.94.94,0,0,0-.36.08,1.47,1.47,0,0,0-.39,2c.38.83,1.16,1.28,1.75,1a1.48,1.48,0,0,0,.39-2,1.65,1.65,0,0,0-1.39-1.08Zm8.62,0a1.67,1.67,0,0,0-1.4,1.08,1.49,1.49,0,0,0,.4,2c.59.26,1.36-.19,1.74-1a1.46,1.46,0,0,0-.39-2,.85.85,0,0,0-.35-.08Z"/><path id="path8437" class="cls-5" d="M25.87,50.74c.24.66,1.5,1.15,3,1.15s2.78-.5,3-1.15a17,17,0,0,1-3,.24A17,17,0,0,1,25.87,50.74Z"/><path id="path8439" class="cls-7" d="M28.9,43.17C25.61,43.17,23,42.3,23,46a1.15,1.15,0,0,0,0,.19c.16-3,2.75-2.21,5.93-2.21s5.77-.82,5.92,2.21a1.15,1.15,0,0,0,0-.19c0-3.65-2.65-2.78-5.93-2.78Z"/></g></g><g id="g8441"><g id="g8443"><path id="path8445" class="cls-8" d="M27.15,28.42c.69,2.27-.26,4.58-2.12,5.14s-3.94-.81-4.63-3.09.26-4.57,2.12-5.14S26.46,26.15,27.15,28.42Z"/><path id="path8447" class="cls-4" d="M26.08,29.28a2.55,2.55,0,0,1-1.35,3.3,2.56,2.56,0,0,1-3-2,2.55,2.55,0,0,1,1.36-3.29A2.54,2.54,0,0,1,26.08,29.28Z"/></g><g id="g8449"><path id="path8451" class="cls-8" d="M30.63,28.42c-.7,2.27.25,4.58,2.12,5.14s3.94-.81,4.63-3.09-.26-4.57-2.12-5.14S31.32,26.15,30.63,28.42Z"/><path id="path8453" class="cls-4" d="M31.69,29.28a2.56,2.56,0,0,0,1.36,3.3,2.55,2.55,0,0,0,3-2,2.54,2.54,0,0,0-1.36-3.29A2.54,2.54,0,0,0,31.69,29.28Z"/></g></g></g></g></svg>