<svg id="svg2" xmlns="http://www.w3.org/2000/svg" xmlns:xlink="http://www.w3.org/1999/xlink" viewBox="0 0 117.85 106.28"><defs><style>.cls-1{fill:url(#linear-gradient);}.cls-2{fill:#2b1100;}.cls-3{fill:url(#linear-gradient-2);}.cls-4{fill:url(#linear-gradient-3);}.cls-5{fill:url(#linear-gradient-4);}.cls-6{fill:url(#linear-gradient-5);}.cls-7{fill:url(#linear-gradient-6);}.cls-8{fill:url(#linear-gradient-7);}.cls-9{fill:#fff;}.cls-10{fill:#b3b3b3;}</style><linearGradient id="linear-gradient" x1="-2030.29" y1="346.5" x2="-2055.28" y2="344.12" gradientTransform="matrix(0.32, 0.03, 0.04, -0.35, 673.72, 218.76)" gradientUnits="userSpaceOnUse"><stop offset="0" stop-color="#ffd42a"/><stop offset="1" stop-color="#ffe680"/></linearGradient><linearGradient id="linear-gradient-2" x1="-3132.59" y1="-1109.18" x2="-3115.68" y2="-1102.71" gradientTransform="matrix(0.19, 0.09, 0.09, -0.19, 727.92, 114.31)" gradientUnits="userSpaceOnUse"><stop offset="0" stop-color="#a00"/><stop offset="1" stop-color="maroon"/></linearGradient><linearGradient id="linear-gradient-3" x1="-3396.84" y1="251.01" x2="-3332.57" y2="247.68" gradientTransform="matrix(0.21, 0.02, 0.02, -0.21, 741.95, 157.23)" xlink:href="#linear-gradient-2"/><linearGradient id="linear-gradient-4" x1="-2796.96" y1="24.2" x2="-2819.52" y2="10.4" gradientTransform="matrix(0.23, 0.03, 0.03, -0.23, 723.48, 161.66)" gradientUnits="userSpaceOnUse"><stop offset="0" stop-color="#d45500"/><stop offset="1" stop-color="#ffb600"/></linearGradient><linearGradient id="linear-gradient-5" x1="-2824.98" y1="41.6" x2="-2836.54" y2="34.15" gradientTransform="matrix(0.23, 0.03, 0.03, -0.23, 723.48, 161.66)" gradientUnits="userSpaceOnUse"><stop offset="0" stop-color="#b3b3b3"/><stop offset="1" stop-color="#d6d6d6"/></linearGradient><linearGradient id="linear-gradient-6" x1="-3295.26" y1="-255.83" x2="-3304.02" y2="-255.83" gradientTransform="matrix(0.21, 0.02, 0.01, -0.11, 745.38, 126.94)" gradientUnits="userSpaceOnUse"><stop offset="0" stop-color="#ffa400"/><stop offset="1" stop-color="#ffd800"/></linearGradient><linearGradient id="linear-gradient-7" x1="-3214.03" y1="149.12" x2="-3406.85" y2="149.12" gradientTransform="matrix(0.21, 0.02, 0.02, -0.21, 741.95, 157.23)" gradientUnits="userSpaceOnUse"><stop offset="0" stop-color="#ccc"/><stop offset="1" stop-color="#f2f2f2"/></linearGradient></defs><title>Simple_Farm_Animals</title><g id="g8612"><g id="g8614"><path id="path8616" class="cls-1" d="M44.64,28.86A49.44,49.44,0,0,0,31,34.06c4.38.4,8.71.9,12.55,2.35Z"/><path id="path8618" class="cls-2" d="M44.48,32.47c-4.53.23-7.94.24-11.56,1.16,4.29-.86,7-.51,11.54-.63Z"/></g><g id="g8620"><g id="g8622"><path id="path8626" class="cls-3" d="M43,38.22c-.77,1.6-2.2,2.5-3.19,2s-1.15-2.16-.38-3.75,2.2-2.51,3.19-2S43.78,36.62,43,38.22Z"/><path id="path8628" class="cls-4" d="M48,22a1.05,1.05,0,0,0-.36,0c-1,.05-1.81,1.35-1.82,2.89a4,4,0,0,0,.11,1v0a2.64,2.64,0,0,0-1.59-1.28,1.4,1.4,0,0,0-1.26.28c-.83.68-.9,2.24-.15,3.48s2,1.67,2.85,1a2.43,2.43,0,0,0,.56-2.49,1.46,1.46,0,0,0,1.27.74c.69,0,1.14.11,1.45-.8-.06,1,.41,1,1,1.3a1.47,1.47,0,0,0,1.46-.21,2.45,2.45,0,0,0-.45,2.52c.51.95,1.86,1,3,.18s1.7-2.32,1.2-3.27a1.41,1.41,0,0,0-1.07-.74,2.65,2.65,0,0,0-1.95.57,4.33,4.33,0,0,0,.47-.85c.58-1.43.32-2.95-.58-3.38s-2.1.37-2.68,1.8l-.09.28c0-.1,0-.2,0-.3,0-1.35-.6-2.44-1.42-2.65Z"/></g><g id="g8630"><path id="path8633" class="cls-5" d="M66.1,69.42,69.65,76c-2.14,2-2.51,4.74-3.55,7,1.53-1.93,2.68-4.13,5-5.53,2.92-1.84,6-1.62,9.07-2-2.24-.28-5.46-.55-7.22,0,1-.7,3.28-1,4.11-1.2-1.86,0-3.74-.34-5.57.45L68,68.39Z"/><path id="path8635" class="cls-6" d="M67.93,65.13l-2.22,1-2.63.36a31.59,31.59,0,0,0,2.54,3.81,7.13,7.13,0,0,0,1.55,1.3l2.13-1a6.15,6.15,0,0,0,0-1.77,20.67,20.67,0,0,0-1.39-3.72Z"/></g><g id="g8637"><path id="path8639" class="cls-7" d="M58.24,71l-.93,7.56c-3,.45-4.86,2.47-7,3.71,2.41-.7,4.65-1.85,7.38-1.66,3.5.18,6,2.18,8.68,3.68-1.69-1.54-4.21-3.65-6-4.22,1.22,0,3.31,1.08,4.11,1.41-1.57-1-2.9-2.47-4.88-2.89l.83-7.34Z"/><path id="path8641" class="cls-8" d="M85.94,27.94c-2,3.63-6.54,8.34-9.36,10.9-3.12,2.26-7.52,5.39-14.28,4.68-3.83-.4-7.39-3.33-9.55-6.52a2.64,2.64,0,0,1-.2-.37,9.19,9.19,0,0,0,.79-2.8c.44-3.9-1.61-7.47-4.61-7.68-4.49-.31-6.72,1.77-7.16,5.67-.27,2.36.91,3.08,1.19,4.1l-1.08,3.76A15.84,15.84,0,0,0,41,42.06s0,0,0,0v0h0q-.14.66-.21,1.32C39.71,52.82,46.7,64.87,57,66.63c-.17,2.77.11,4,1.13,5.62l2.17.25c1.42-1.42,2-2.79,2.41-5.53C74.94,66.56,77,58,78.1,51.43c3.45-.15,6-1.28,7.72-3.5.89-1.13,1.06-4.18,1.06-4.18-1.48,1-2.9,2-4.37,2.92a21.42,21.42,0,0,0,3.17-3.35c1.26-1.71,1-4.86,1-4.86a24.41,24.41,0,0,1-3.61,3.26,17,17,0,0,0,2.45-3.29,9.2,9.2,0,0,0,.74-4.55c-1.1,1-2.79,2.74-3.87,3.77a48.56,48.56,0,0,0,3-4.39c1.19-2.12.49-5.32.49-5.32Z"/><g id="g8643"><path id="path8645" class="cls-9" d="M49.79,32.07A3.13,3.13,0,1,1,47,28.61,3.13,3.13,0,0,1,49.79,32.07Z"/><path id="path8647" d="M47.66,31.9a1.62,1.62,0,0,1-3.22-.37,1.62,1.62,0,1,1,3.22.37Z"/></g><path id="path8649" class="cls-10" d="M52.29,40.59a13.92,13.92,0,0,0-.79,4.57c-.08,7,2,14.36,11,14.1a10.06,10.06,0,0,0,9.5-6,19,19,0,0,1-6.75,1.63c-.31,0-.1-.77.17-.94,2-1.2,5.08-.74,6.8-2.41.76-.74.92-1.52,1.15-3-2.4,2-5.52,2.84-8,3.62-.36.12-.35-.93,0-1.14,2-1.38,6.37-1.26,8.07-3.67.58-.84.21-2.1.24-3.06-2.38,2.11-5.56,4.3-9.08,4.21-5.73-.16-10.54-2.94-12.3-7.92Z"/></g></g></g></svg>