<svg id="svg2" xmlns="http://www.w3.org/2000/svg" xmlns:xlink="http://www.w3.org/1999/xlink" viewBox="0 0 117.85 106.28"><defs><style>.cls-1{fill:url(#linear-gradient);}.cls-2{fill:#141414;}.cls-3,.cls-6,.cls-8,.cls-9{fill:#fff;}.cls-3{opacity:0.39;}.cls-3,.cls-6{isolation:isolate;}.cls-4{fill:url(#linear-gradient-2);}.cls-5{fill:#333;}.cls-6{opacity:0.5;}.cls-7{fill:url(#linear-gradient-3);}.cls-9{stroke:#ccc;stroke-width:0.34px;}.cls-10{fill:#101010;}.cls-11{fill:#ececec;}</style><linearGradient id="linear-gradient" x1="-1443.86" y1="-246.4" x2="-1701.47" y2="-246.82" gradientTransform="matrix(0.25, 0, 0, -0.24, 429.47, 2.82)" gradientUnits="userSpaceOnUse"><stop offset="0"/><stop offset="1" stop-color="#333"/></linearGradient><linearGradient id="linear-gradient-2" x1="-1308.08" y1="-466.73" x2="-1714.24" y2="-464.34" gradientTransform="matrix(0.3, 0, 0, -0.4, 484.56, -129.92)" gradientUnits="userSpaceOnUse"><stop offset="0"/><stop offset="1" stop-color="#666"/></linearGradient><linearGradient id="linear-gradient-3" x1="-1537.55" y1="-371.06" x2="-1583.33" y2="-372.33" gradientTransform="matrix(0.36, 0, 0, -0.38, 594.09, -118.98)" gradientUnits="userSpaceOnUse"><stop offset="0" stop-color="#333"/><stop offset="1" stop-color="gray"/></linearGradient></defs><title>Simple_Farm_Animals</title><g id="g8059"><g id="g8061"><g id="g8063"><path id="path8065" class="cls-1" d="M55.11,34.71c-16.86,0-30.54,4.18-30.54,20.4V89h6.72V68.52c0-5.61,12-8.78,23.82-8.78H56c11.81,0,23.82,3.17,23.82,8.78V89h6.72V55.11c0-16.22-13.67-20.4-30.54-20.4h-.86Z"/><path id="path8067" class="cls-2" d="M24.56,87.37v5h6.75v-5Zm55.19,0v5H86.5v-5Z"/><path id="path8069" class="cls-3" d="M25.29,68.8a2.26,2.26,0,0,0-.74.13V82.31h.16a3.85,3.85,0,0,0,3.6-3.67c.06-1.53-.67-2.11-.81-3.2-.18-1.47.57-3.07,0-4.44-.4-1-1-2.21-2.21-2.21Zm55.18,0a2.34,2.34,0,0,0-.7.12V82.31h.12a3.86,3.86,0,0,0,3.61-3.67c0-1.53-.68-2.11-.81-3.2-.19-1.47.56-3.07,0-4.44-.4-1-1-2.21-2.22-2.21Z"/></g><path id="path8071" d="M79.33,40.14s6-7.61,10.35-8.65c6.32-1.51,10.44.58,13.55,4.14s3.87,10.06,2.26,13.74-6.18,10.51-5.08,16c.42,2.1,4.14,4.9,4.14,4.9s-6.66-1.36-8.28-4c-3.16-5.06,2.11-12.24.19-17.88-1.25-3.64-3.49-7.9-7.16-9-3.07-1-9.22,2.83-9.22,2.83Z"/><g id="g8074"><path id="path8076" class="cls-4" d="M55,26.71c-20,0-36.19,9.71-36.19,28.93V90.46h8V71.05c0-6.66,14.24-9.31,28.23-9.31h1c14,0,28.23,2.65,28.23,9.31V90.46h8V55.64C92.24,36.42,76,26.71,56,26.71H55Z"/><path id="path8078" class="cls-5" d="M18.83,88.48v5.93h8V88.48Zm65.41,0v5.93h8V88.48Z"/><path id="path8080" class="cls-6" d="M28.12,35c-5.77,4.81-9.29,11.69-9.29,20.64v6.68c3.47,0,7.46-2.87,7.28-6-.48-8,.92-10.45,3.19-15.51A7.46,7.46,0,0,0,28.12,35Z"/><path id="path8082" d="M55,26.71c-10.94,0-20.74,2.91-27.38,8.7C29.44,37.16,35.88,39,39.3,37a1.27,1.27,0,0,0,.45-1.08c.07-2.65.21-4.33.91-4.31s1.22,1.32,1.16,4c0,.23,0,.46,0,.69.68-.1,1.54.1,2.06-.36a1.39,1.39,0,0,0,.32-1c.07-2.65.35-4,1-4s1.22,1.33,1.16,4c0,.16,0,.3,0,.46.69-.18,1.51-.1,2-.57a1.15,1.15,0,0,0,.29-.77c.06-2.65.38-3.93,1.08-3.91s1.18,1.24,1.15,3.81c.7-.27,1.24-.31,1.65-.75.89-1,.69-3.69,1.37-3.67s1,.53,1.11,2.4c3.18-1.86,5.42-3.2,5.2-5q-2.07-.15-4.2-.15H55Z"/><path id="path8084" class="cls-6" d="M19.77,71a2.62,2.62,0,0,0-.94.18V86.46h.28a4.4,4.4,0,0,0,4.12-4.19c.06-1.74-.78-2.4-.94-3.65-.21-1.67.65-3.5,0-5.06-.45-1.1-1.12-2.53-2.52-2.53Zm65.34,0a2.54,2.54,0,0,0-.83.15V86.46h.17a4.39,4.39,0,0,0,4.12-4.19c.06-1.74-.77-2.4-.93-3.65-.21-1.67.65-3.5,0-5.06-.45-1.1-1.12-2.53-2.53-2.53Z"/></g></g><g id="g8086"><g id="g8088"><path id="path8090" class="cls-7" d="M20.64,1.29S18.21,7.09,19,9.92c.39,1.39,3,3.37,3,3.37s-2.09,5.14-2.22,7.83a11.88,11.88,0,0,0,.89,5c.79,2,3,3.47,3.55,5.54A7.62,7.62,0,0,1,24.05,36c-.19.6-1,1-1,1.62a2.21,2.21,0,0,0,.45,1.35c.47.82,1.59,1.28,1.93,2.16.26.67-.23,1.47,0,2.16a1.4,1.4,0,0,0,.58.81,8.53,8.53,0,0,0,8.31,0,1.4,1.4,0,0,0,.58-.81c.23-.69-.26-1.49,0-2.16.35-.88,1.46-1.34,1.93-2.16a2.21,2.21,0,0,0,.45-1.35c-.08-.62-.85-1-1-1.62a7.62,7.62,0,0,1-.14-4.31c.58-2.07,2.76-3.53,3.55-5.54a11.88,11.88,0,0,0,.89-5c-.13-2.69-2.22-7.83-2.22-7.83s2.57-2,3-3.37c.8-2.83-1.63-8.63-1.63-8.63s-3,5.62-5.33,8c-.17.16-.5,0-.75,0-1.14,0-2.26-.41-3.41-.41s-2.26.39-3.4.41c-.25,0-.58.16-.75,0-2.3-2.34-5.33-8-5.33-8Z"/><g id="g8092"><path id="path8094" class="cls-8" d="M26.43,41.11a3.9,3.9,0,0,0,7.38,0,6.22,6.22,0,0,1-3.69,1.07A6.2,6.2,0,0,1,26.43,41.11Z"/><path id="path8096" class="cls-9" d="M34.72,19.6c-.73,3,.05,6,1.74,6.75s3.67-1.18,4.4-4.21,0-6-1.74-6.75S35.45,16.57,34.72,19.6Z"/><path id="path8098" d="M35.45,22.15c-.27,1.73.36,3.27,1.41,3.43s2.11-1.11,2.38-2.83-.36-3.27-1.41-3.43S35.72,20.43,35.45,22.15Z"/><path id="path8100" class="cls-9" d="M25.53,19.6c.74,3,0,6-1.74,6.75s-3.66-1.18-4.39-4.21,0-6,1.74-6.75S24.8,16.57,25.53,19.6Z"/><path id="path8102" d="M24.81,22.15c.27,1.73-.36,3.27-1.4,3.43S21.3,24.47,21,22.75s.36-3.27,1.4-3.43S24.54,20.43,24.81,22.15Z"/></g></g><g id="g8104"><g id="g8106"><path id="path8108" class="cls-10" d="M25.75,36.4a.5.5,0,0,0-.24.06c-.57.28-.58,1.31,0,2.3S27,40.31,27.62,40s.57-1.31,0-2.29-1.29-1.41-1.86-1.34Zm8.62,0a2.45,2.45,0,0,0-1.74,1.34c-.58,1-.58,2,0,2.29s1.51-.29,2.09-1.27.59-2,0-2.3a.72.72,0,0,0-.36-.06Z"/><path id="path8110" class="cls-11" d="M20.47,3.85s-1.32,4.08-.67,6c.38,1.1,2.45,2.63,2.45,2.63a4,4,0,0,1,2-2L20.47,3.85Zm19.3,0L36,10.53a4,4,0,0,1,2,2S40.06,11,40.44,9.85c.65-1.92-.67-6-.67-6Z"/><path id="path8112" class="cls-6" d="M30.11,9.06c-1.42,0-4,1.63-4,1.63s2.08,10,2.25,15.09c.1,3-1.56,6.18-.75,9.1.38,1.39,1.16,3.4,2.49,3.4s2.12-2,2.51-3.4c.81-2.92-.85-6.06-.75-9.1.17-5.1,2.25-15.09,2.25-15.09s-2.58-1.63-4-1.63Z"/><path id="path8120" d="M30.13,8.84a32.37,32.37,0,0,0-3.41.24,3.84,3.84,0,0,0-.79.13s-2.42,4.37-1.52,6.36c.29.65,1.89,1,1.89,1,0-2,.37-2.71.83-2.71s.83,2.22.83,4.29c0,.29-.16.59,0,.82.25.45,1.35.73,1.35.73v-.15c0-2.08.38-5.29.84-5.29s.82,3.21.82,5.29v.16s1.11-.28,1.37-.73c.14-.24,0-.54,0-.83,0-2.07.37-4.29.83-4.29s.83.66.83,2.71c0,0,1.6-.36,1.9-1,.89-2-1.52-6.37-1.52-6.37-.55-.08-.53-.09-.8-.12a32.18,32.18,0,0,0-3.4-.24Z"/></g></g></g></g></svg>