<svg id="publicdomainvectors.org" xmlns="http://www.w3.org/2000/svg" viewBox="0 0 553.47 455.98"><defs><style>.cls-1{fill:#c79a6d;}.cls-2{fill:#fce8d3;}.cls-10,.cls-12,.cls-13,.cls-14,.cls-16,.cls-17,.cls-18,.cls-19,.cls-2,.cls-6,.cls-7,.cls-8,.cls-9{fill-rule:evenodd;}.cls-3{fill:#ba8b5d;}.cls-19,.cls-4{fill:#e6c09a;}.cls-5{fill:#dbb188;}.cls-6{fill:#663c12;}.cls-7{fill:#52300d;}.cls-8{fill:#d48e48;}.cls-9{fill:#bf762e;}.cls-10{fill:#261606;}.cls-11{fill:#e8a766;}.cls-12{fill:#96622e;}.cls-13{fill:#b0773d;}.cls-14{fill:#f5d3b1;}.cls-15,.cls-18{fill:#333;}.cls-16{fill:#fff;}.cls-17{fill:#faebdc;}</style></defs><title>turtle6</title><rect class="cls-1" x="349.96" y="316.28" width="72.11" height="105.15" rx="12.62" ry="12.62"/><path class="cls-2" d="M422.07,400.24v8.57a12.66,12.66,0,0,1-12.62,12.62H399.06v-8.32A15.15,15.15,0,0,1,414.17,398h0a15,15,0,0,1,7.9,2.24ZM391.6,421.43h-29q-.6,0-1.2-.06v-8.26A15.15,15.15,0,0,1,376.49,398h0a15.15,15.15,0,0,1,15.11,15.11Z"/><rect class="cls-3" x="349.96" y="355.63" width="72.1" height="25.24"/><rect class="cls-4" x="377.4" y="301.36" width="92.56" height="134.98" rx="16.2" ry="16.2"/><path class="cls-2" d="M470,409.14v11a16.25,16.25,0,0,1-16.2,16.2H440.42V425.66a19.46,19.46,0,0,1,19.4-19.4h0A19.3,19.3,0,0,1,470,409.14Zm-39.11,27.2H393.6c-.52,0-1,0-1.54-.07V425.66a19.45,19.45,0,0,1,19.39-19.4h0a19.46,19.46,0,0,1,19.4,19.4Z"/><rect class="cls-5" x="377.4" y="351.88" width="92.56" height="32.4"/><rect class="cls-1" x="126.26" y="316.28" width="72.1" height="105.15" rx="12.62" ry="12.62"/><path class="cls-2" d="M198.36,400.24v8.57a12.66,12.66,0,0,1-12.62,12.62H175.35v-8.32A15.15,15.15,0,0,1,190.46,398h0a15,15,0,0,1,7.9,2.24Zm-30.47,21.19h-29q-.6,0-1.2-.06v-8.26A15.15,15.15,0,0,1,152.78,398h0a15.15,15.15,0,0,1,15.11,15.11Z"/><rect class="cls-3" x="126.26" y="355.63" width="72.1" height="25.24"/><rect class="cls-4" x="78.37" y="301.36" width="92.56" height="134.98" rx="16.2" ry="16.2"/><path class="cls-2" d="M170.92,409.14v11a16.25,16.25,0,0,1-16.19,16.2H141.39V425.66a19.45,19.45,0,0,1,19.39-19.4h0a19.27,19.27,0,0,1,10.14,2.88Zm-39.11,27.2H94.57c-.53,0-1,0-1.55-.07V425.66a19.46,19.46,0,0,1,19.4-19.4h0a19.45,19.45,0,0,1,19.39,19.4Z"/><rect class="cls-5" x="78.37" y="351.88" width="92.56" height="32.4"/><path class="cls-6" d="M274.16,26.34c127.61,0,231,103.45,231,231.05,0,7.28-.35,14.48-1,21.59A49.68,49.68,0,0,0,486,275.53H62.37A49.64,49.64,0,0,0,44.13,279c-.66-7.11-1-14.31-1-21.59C43.11,129.79,146.56,26.34,274.16,26.34Z"/><path class="cls-7" d="M274.16,26.34a231.53,231.53,0,0,1,57.21,7.15L294.71,76.24H252.2L227.68,31a231.81,231.81,0,0,1,46.48-4.68Zm67,9.88a231,231,0,0,1,90.29,52l0,.11-64.1,18.31L333.26,94.16l7.91-57.94ZM439,95.48l-19.92,41.43L435.87,164l51,3A231.48,231.48,0,0,0,439,95.48Zm57.1,97.39a231.31,231.31,0,0,1,9.14,64.52q0,7-.42,13.83l-38.41-21.89-2.9-25.65,32.59-30.81ZM43.52,271q-.41-6.75-.41-13.61a230.7,230.7,0,0,1,11.57-72.33l.24-.12,23.52,47.95-7,24.61L43.52,271Zm13.11-91.61a231.22,231.22,0,0,1,58.56-89.66h0l11.09,52.8L96.58,180l-39.95-.63Zm65-95.51,52.8,19,39.72-15.89,1.49-53.11a230.61,230.61,0,0,0-94,50.05ZM92.07,241.6l40.05,12.19,30-22.41v-37.6L122.7,170.54,65.91,192.9l26.16,48.7Zm33.18-82.83,59.11,36.4,49.21-30.87-32-62.36-66.25,10.4-10,46.43Zm289,6.06,36.88,3.82,28.8,32.85-32.67,43.86-50-10.86-27.81-51.58,44.77-18.09Zm-54,36.06,1.46,48.3L319,257.91l-50.54-45.19Z"/><path class="cls-8" d="M62.37,270.9H486a50.38,50.38,0,0,1,50.23,50.23h0A50.38,50.38,0,0,1,486,371.35H62.37a50.37,50.37,0,0,1-50.23-50.22h0A50.37,50.37,0,0,1,62.37,270.9Z"/><path class="cls-9" d="M343.48,276.39H490.22a44.87,44.87,0,0,0-44.74,44.74h0a44.87,44.87,0,0,0,44.74,44.73H343.48a44.87,44.87,0,0,0,44.74-44.73h0A44.87,44.87,0,0,0,343.48,276.39Z"/><path class="cls-9" d="M62.19,276.39H165.73A44.87,44.87,0,0,0,121,321.13h0a44.87,44.87,0,0,0,44.74,44.73H62.19a44.86,44.86,0,0,0,44.73-44.73h0A44.87,44.87,0,0,0,62.19,276.39Z"/><path class="cls-10" d="M295.21,371.35H154.06V270.61A70.79,70.79,0,0,1,224.64,200h0a70.78,70.78,0,0,1,70.57,70.58Z"/><path class="cls-11" d="M320.09,284.88h24.3a16.77,16.77,0,0,1,16.77,16.77v0a16.78,16.78,0,0,1-16.78,16.78h-24.3a16.78,16.78,0,0,1-16.78-16.78v0A16.78,16.78,0,0,1,320.09,284.88Z"/><rect class="cls-11" x="467.6" y="284.88" width="43.58" height="33.55" rx="16.78" ry="16.78"/><rect class="cls-11" x="35.86" y="284.88" width="43.58" height="33.55" rx="16.78" ry="16.78"/><path class="cls-12" d="M52.53,191.89l-12.42,6-5.79,62.86,8.93,4.58L67.1,253.83l5.78-20.44-20.35-41.5Zm43.11,45.36L73.27,195.6l49-19.28L157,196.76v32l-25.84,19.28-35.48-10.8Zm-37.1-63L53.6,152.79l1.55-2.7L98.55,91l12.24,3,9.92,47.2L94.1,174.77l-35.56-.56Zm72.58-18L184.34,189l42.42-26.61-28.15-54.76-59,9.26-8.48,39.33Zm-5-76.29,1.4-17.53,64.89-31.9,17.93,4.72L209,83.38,174.31,97.26,126.15,80ZM233,30l5.29-10.63,81.76,2.31,5.6,10.44L292.32,71h-37L233,30ZM346.21,37.8l14-5.33,69,41.65-2.2,10-59.5,17L339,90.7l7.23-52.9Zm96.61,61.68L425,136.6,438.87,159l45.61,2.65,6.83-10.75L451.93,97l-9.11,2.47Zm54.83,99.06,9.86,6.32,7.33,48.2-9.77,12.32-33.81-19.26L469,225.68l28.7-27.14ZM415,170.15l-38.18,15.42,23.91,44.35L445,239.56l28.15-37.79-24.68-28.15L415,170.15Zm-59.78,36.63L356.34,245l-35.87,7.33-40.11-35.87Z"/><path class="cls-13" d="M52.86,218.16l-1.53,16.72,2.82-1.36,2.28-8.08-3.57-7.28Zm53.36-3.25,21.93,6.67,13.38-10V196.14L120.9,184,95.07,194.16l11.15,20.75ZM70.86,149.54l15.88.25,17.38-21.92-4.54-21.62L70.12,146.33l.74,3.21Zm77.64-10.13,35.76,22,22.31-14L190,115.2l-37.53,5.89-3.95,18.32Zm-2.68-78.2L174,71.33l19.87-7.95.73-25.75-.53-.14L145.82,61.21Zm107.6-35.43,11.06,20.39h20.75l16.31-19-48.12-1.36ZM360.06,41,356,71l12.15,4.43L401.46,66l-41.4-25Zm89.84,70-7.35,15.28,5.2,8.38,20.32,1.18L449.9,110.93ZM494.61,213.2l-9.47,9,.57,5L497.78,234l-3.17-20.84Zm-77.43-36.75L398.53,184l12.37,22.94,27.7,6,14.77-19.82L440.9,178.9l-23.72-2.45Zm-76.9,38.37L315.79,218l9.19,8.22L340.53,223Z"/><path class="cls-14" d="M388.92,127.34A28.35,28.35,0,1,0,360.58,99,28.4,28.4,0,0,0,388.92,127.34Z"/><circle class="cls-15" cx="388.92" cy="98.99" r="18.24" transform="translate(-1.15 4.63) rotate(-0.68)"/><path class="cls-16" d="M393.83,101.51a8.1,8.1,0,1,0-8.1-8.1A8.12,8.12,0,0,0,393.83,101.51Z"/><path class="cls-14" d="M354.6,87a69.42,69.42,0,1,1,0,138.83H314.27a57,57,0,0,0-56.85,56.85v15.71a20.81,20.81,0,0,1-20.78,20.77H225a20.81,20.81,0,0,1-20.77-20.77V174.5A87.63,87.63,0,0,1,291.66,87Z"/><path class="cls-17" d="M300,95.33h-8.37a79.33,79.33,0,0,0-79.17,79.17v40.77C220.91,159.1,240.12,111.34,300,95.33Z"/><path class="cls-14" d="M341.49,127.34A28.35,28.35,0,1,0,313.14,99,28.4,28.4,0,0,0,341.49,127.34Z"/><path class="cls-18" d="M341.49,117.24A18.25,18.25,0,1,0,323.25,99,18.28,18.28,0,0,0,341.49,117.24Z"/><path class="cls-16" d="M346.4,101.51a8.1,8.1,0,1,0-8.1-8.1A8.12,8.12,0,0,0,346.4,101.51Z"/><path class="cls-19" d="M405.77,109.55A69.41,69.41,0,0,1,354.6,225.87H314.27a57,57,0,0,0-56.85,56.85v15.71a20.81,20.81,0,0,1-20.78,20.77H225a20.81,20.81,0,0,1-20.77-20.77v-5.65h9.5c11.45,0,21.7-8.27,22.83-18.41l1.55-13.91c3.1-27.75,31.16-50.38,62.47-50.38h40.33c38.34,0,72.49-27.55,76.28-61.52A51.82,51.82,0,0,0,405.77,109.55Z"/><path class="cls-10" d="M393.7,214.65A68.94,68.94,0,0,1,370,224.43c-34.88-.66-58.92-7-61-25,17.4,19.08,49.76,18.81,84.7,15.19Zm4.19-78.73c2,0,3.57,2.29,3.57,5.11s-1.6,5.11-3.57,5.11-3.56-2.29-3.56-5.11,1.59-5.11,3.56-5.11Zm11.48,0c2,0,3.56,2.29,3.56,5.11s-1.59,5.11-3.56,5.11-3.57-2.29-3.57-5.11S407.4,135.92,409.37,135.92Z"/></svg>