<?xml version="1.0" encoding="utf-8"?>
<!-- Generator: Adobe Illustrator 22.1.0, SVG Export Plug-In . SVG Version: 6.00 Build 0)  -->
<svg version="1.1" id="Layer_1" xmlns="http://www.w3.org/2000/svg" xmlns:xlink="http://www.w3.org/1999/xlink" x="0px" y="0px"
	 viewBox="0 0 742.7 1280" style="enable-background:new 0 0 742.7 1280;" xml:space="preserve">
<g transform="translate(0.000000,1280.000000) scale(0.100000,-0.100000)">
	<path d="M1773.6,12564c-3-11-14-74-24-141c-17-110-22-126-56-174c-39-53-42-63-66-234c-7-44-20-107-30-140s-28-115-40-182
		c-16-86-26-120-34-115c-6,4-59,39-116,78c-323,219-618,342-985,410c-108,20-268,22-347,5c-74-16-81-36-44-129
		c57-146,269-482,424-671c32-40,80-110,105-155c71-128,132-202,234-283c51-40,99-86,107-101c7-15,21-63,30-107c11-55,34-116,73-193
		c52-105,57-121,65-210c11-120,28-176,83-267c33-55,45-87,55-150c22-143,56-206,194-359c152-168,247-256,365-335
		c184-123,460-250,631-291c50-12,51-13,48-47c-3-33-6-36-58-53c-248-78-435-250-574-527c-54-109-60-149-42-289c19-144,39-204,88-259
		c50-56,102-76,213-82c76-4,102,0,169,21l78,25l-6-38c-3-20-21-89-41-152c-43-141-46-209-10-315c52-155,82-194,151-194
		c82,0,219,108,480,379l109,113l7-48c14-93,13-406-1-454c-21-75-63-172-94-223c-34-56-62-139-72-217c-3-30-19-82-35-115
		c-28-60-47-137-61-250c-4-33-13-100-19-148c-11-76-10-94,3-127c14-36,13-48-4-147c-29-158-36-486-16-663c35-292,120-669,250-1105
		c37-121,74-252,82-290c20-83,34-343,35-615c1-266,17-578,35-686c20-112,65-311,109-479c120-452,139-564,123-702c-7-66-6-92,7-136
		c22-75,21-77-23-223c-55-181-69-238-87-361c-18-133-14-170,24-180c15-3,33-15,40-25s20-18,29-18c8,0,24-12,36-26c15-20,26-25,47-20
		c22,4,29,1,33-14c7-28,70-28,89-1c14,19,14,19,26,1c6-10,24-21,40-25c71-15,126,46,119,130c-3,28-2,68,2,90l7,40l8-33
		c4-18,7-52,6-75c-5-80,0-98,29-128c37-36,82-39,115-6c22,22,24,23,35,5c17-27,81-25,88,3c5,16,11,19,30,14c17-4,30,1,46,17
		c13,13,35,29,50,35c15,7,30,20,33,28c4,8,14,15,24,15c30,0,41,25,39,92c-3,118-20,213-70,392c-44,155-50,187-44,230
		c4,28,8,134,9,236c1,202-3,176,107,630c64,262,109,495,119,624c6,65,10,340,10,610c0,308,4,512,10,549c6,31,36,148,66,260
		c158,583,219,888,245,1228c14,180,2,388-32,583c-18,101-19,125-9,157c16,47,9,121-31,334c-26,138-32,161-50,187
		c-11,15-26,64-34,110c-20,112-30,141-81,228c-23,41-57,116-73,166c-30,89-31,98-31,267c0,96,3,195,6,221l7,48l121-119
		c195-192,273-262,344-307c146-94,194-72,261,118c40,114,42,214,7,319c-26,76-57,189-53,194c2,1,68-21,147-48c133-46,153-51,235-50
		c144,0,210,34,261,133c29,57,40,110,53,243c13,128,3,177-55,290c-174,338-389,512-714,579c-87,18-78,38,27,60
		c135,27,283,81,448,162c206,101,347,196,464,315c274,275,339,375,357,542c5,47,16,78,46,129c57,96,78,158,78,231
		c0,86,22,162,75,260c32,60,50,109,65,180c23,113,34,133,109,194c137,111,171,151,255,301c30,54,80,129,111,167
		c181,220,410,611,422,718c5,43,4,45-28,57c-58,21-252,24-359,6c-397-68-703-204-1095-484l-150-107l-34,170c-19,93-43,194-52,224
		c-10,29-23,88-28,130c-6,42-15,89-20,105c-6,15-11,40-11,56c0,18-16,52-40,86c-22,31-42,71-44,88c-17,110-39,223-46,235
		c-17,32-20-30-6-120c10-61,12-97,5-105c-9-11,30-91,75-156c11-15,12-25,5-34c-7-8-5-23,5-48c16-38,33-156,22-156c-3,0-15,18-26,39
		c-13,27-38,50-79,76c-33,20-89,67-123,104c-38,42-84,79-115,95c-89,44-100,27-13-20c29-16,75-56,111-98c34-39,84-90,113-112
		c39-32,61-61,93-125c53-107,80-169,86-205c3-16,13-67,22-114c15-73,15-95,5-145c-11-55-18-65-84-126c-62-59-75-67-101-62
		c-49,8-55,11-55,33c0,11-15,37-34,57c-43,49-51,66-66,136c-11,54-23,72-32,45c-2-6-17,5-34,26c-84,109-149,175-161,163
		c-3-3,15-27,39-54c76-83,144-186,162-244c9-31,28-67,42-80c30-28,31-55,2-65c-22-7-22-7,6-30c18-17,39-24,67-24c21,0,39-3,39-7
		s-79-87-176-184c-162-163-176-175-184-154c-9,24-56,45-101,45c-37,0-44,26-35,125c4,46,3,76-3,80c-6,3-13-6-17-20
		c-9-37-41-32-98,15c-27,22-60,43-75,46c-89,20-99,27-196,142c-48,58-73,78-83,68c-6-6,50-96,60-96c4,0,19-21,32-47
		c30-59,58-86,116-111c25-11,69-36,99-56c29-20,59-36,66-36c9,0,13-16,13-50c1-28,4-61,8-73c12-39,45-77,66-77c17,0,20-4,15-29
		c-4-17-13-46-21-65c-11-27-19-33-35-29c-17,4-21,1-21-21c0-15,4-36,10-46c12-22,3-26-79-36c-42-4-61-3-61,4c0,6-19,16-42,23
		c-24,6-91,27-151,45c-59,19-141,39-182,45l-74,11l-7,47c-8,56-33,172-41,184c-3,4-14,1-24-9c-14-13-19-14-19-4c0,8-10,24-22,37
		s-16,23-10,23c7,0,12-5,12-12c0-6,3-9,6-5c4,3-10,29-31,57c-40,55-32,70,10,18c17-22,23-25,15-10c-6,13-29,35-51,50
		c-43,30-60,68-38,83c20,13-6,29-49,29c-28,0-33,4-38,28c-3,16-17,34-35,44c-16,10-29,26-29,36c0,26-31,52-61,51h-24l23-9
		c12-5,22-14,22-19c0-9-39-27-43-19c-31,60-34,63-62,65c-17,0-40,4-52,8c-13,4-23,3-23-1c0-5-46-9-102-8c-60,0-90-2-73-7
		c22-5,9-7-45-9c-48-1-89-8-115-20c-22-10-33-19-25-20c12,0,11-4-4-15c-11-9-42-15-70-15c-37,0-47-3-36-10c8-6,29-8,45-5
		c29,5,29,5-7-15c-20-11-41-26-45-34c-4-7-18-18-31-25c-12-7-20-15-18-20c3-4-22-27-56-51c-88-65-162-159-192-244
		c-32-90-42-141-27-132c7,4,11-1,11-13c0-26-21-37-88-45c-30-4-95-21-145-38c-51-17-117-37-147-44l-55-14l-97,102
		c-87,91-95,103-81,117c27,26,43,78,43,135c0,48,3,54,23,60c13,3,43,21,67,39c25,19,62,40,82,46c36,12,92,66,135,132
		c92,142,94,167,3,68c-115-125-129-138-168-145c-47-8-68-19-116-61c-45-38-85-44-93-13c-3,11-10,20-15,20c-6,0-7-28-3-75
		c10-98,3-125-32-125c-20,0-61,34-187,158c-89,86-160,163-159,171s-8,22-20,32l-22,17l27,29c26,27,58,99,58,129
		c0,15,127,191,154,214c22,17,39,50,28,50c-13,0-95-86-133-140c-36-50-52-64-57-50c-9,24-21,6-27-37c-8-63-28-106-67-147l-32-34
		l-96,82c-52,44-109,91-125,102l-29,22l12,59c7,33,12,71,12,86c0,28,18,88,47,153c9,21,17,41,17,44c1,3,18,37,38,76
		c26,49,50,79,76,97c21,14,67,59,103,102c39,47,84,88,116,106c87,50,81,69-7,24c-28-14-80-57-117-95c-36-39-91-86-121-106
		s-64-53-76-73l-21-36l-3,43c-2,24,4,66,13,93s14,57,11,65c-3,9,15,50,43,97c37,60,47,85,39,94c-7,9-6,43,3,113c9,71,9,104,2,111
		C1782.6,12579,1777.6,12577,1773.6,12564z M443.6,12040c215-39,348-87,424-153c382-326,667-613,761-766l33-54l-28-23
		c-57-49-81-38-313,152c-402,329-621,478-1103,752c-117,66-131,88-70,110C191.6,12073,295.6,12067,443.6,12040z M7315.6,12043
		c23-14,23-15,6-34c-10-11-95-64-189-117c-361-204-578-354-960-666c-236-193-242-197-283-203c-31-4-41,0-62,22l-24,26l22,42
		c31,58,169,221,298,352c121,122,451,420,509,459c47,32,187,77,325,105C7151.6,12069,7267.6,12073,7315.6,12043z M203.6,11931
		c107-51,351-195,505-297c321-211,769-577,815-666c8-16,14-56,14-98c0-64-2-70-20-70c-12,0-105,48-208,107c-260,148-513,270-667,322
		c-71,24-146,55-165,69c-48,34-103,104-213,268c-112,169-177,295-184,357c-5,45-4,47,19,47C112.6,11970,159.6,11953,203.6,11931z
		 M7367.6,11947c0-30-27-111-53-157c-65-119-89-158-171-279c-125-185-161-220-261-255c-176-61-226-82-380-158
		c-88-44-246-129-351-189c-104-60-197-109-206-109c-21,0-28,21-28,78c1,76,27,119,141,222c349,318,782,625,1148,812
		C7331.6,11976,7367.6,11984,7367.6,11947z M1072.6,11830c126-61,277-153,388-236l65-49l-5-46c-7-58,9-133,48-221c17-38,29-71,27-73
		s-23,20-47,48c-105,126-256,275-512,506c-57,52-113,106-123,120l-20,24l30-7C939.6,11892,1006.6,11863,1072.6,11830z M6536.6,11874
		c-13-15-89-86-169-158c-176-160-342-328-492-501c-115-131-147-158-206-170l-33-7l35,64c19,34,37,74,41,88c22,79,80,218,103,247
		c56,71,262,224,442,330c101,59,257,132,284,132C6559.6,11900,6558.6,11898,6536.6,11874z M1727.6,11323c44-63,48-72,32-77
		c-10-4-28-15-40-26l-21-19l-6,32c-4,18-22,66-40,107c-17,41-35,89-39,105l-6,30l35-40C1661.6,11413,1700.6,11363,1727.6,11323z
		 M1801.6,11326c50-43,56-51,40-57c-40-16-54-8-90,48c-20,31-39,64-42,72C1702.6,11408,1710.6,11403,1801.6,11326z M5639.6,11293
		c-5-10-12-35-16-55l-7-37l-24,21l-25,22l32,33C5634.6,11313,5653.6,11320,5639.6,11293z M2077.6,11074l157-155l-29-30l-29-29
		l-97,65c-132,88-142,98-206,197l-56,87l38,6c20,4,42,8,47,10c6,2,12,4,14,4C1918.6,11230,1990.6,11160,2077.6,11074z M726.6,11179
		c240-84,784-389,823-462c12-22,78-216,78-229c0-19-45-2-274,101c-132,60-291,130-353,156c-203,84-327,194-409,359
		c-25,52-43,99-39,106C562.6,11226,622.6,11215,726.6,11179z M6897.6,11201c0-26-36-106-82-177c-71-114-187-203-358-276
		c-58-25-217-96-353-158c-149-67-252-109-258-103c-5,5,5,53,27,118c31,99,39,114,83,155c62,58,268,181,496,296
		c182,92,259,125,350,149C6874.6,11225,6897.6,11224,6897.6,11201z M1833.6,11155c14-25,27-60,28-78c1-26-3-33-22-35
		c-39-6-62,24-62,79C1777.6,11212,1793.6,11222,1833.6,11155z M5535.6,11137c3-52,0-61-37-110c-28-38-67-72-133-114
		c-105-68-195-116-209-111c-20,7,57,102,202,248c83,83,156,149,162,147C5527.6,11195,5533.6,11169,5535.6,11137z M4187.6,11045
		c13-14,21-25,18-25c-2,0-15,11-28,25s-21,25-18,25C4161.6,11070,4174.6,11059,4187.6,11045z M5799.6,11030c21-6,50-26,68-47l32-36
		l-4-116c-5-99-11-132-43-228c-45-137-71-181-221-375c-166-215-277-325-516-514c-327-259-438-337-468-330c-14,3-72,15-130,26
		c-116,22-309,74-346,93l-24,13l78,124c160,253,334,495,527,732l70,86l90,7c149,11,157,15,275,130c65,63,126,113,160,130
		c73,37,180,142,219,214c38,72,45,78,106,89C5740.6,11041,5756.6,11041,5799.6,11030z M1704.6,11008c28-30,51-80,46-95
		c-3-7,0-13,5-13c15,0,133-124,122-128c-6-2-10-10-10-18c0-10,7-13,25-8c40,10,140-54,251-161c72-70,109-98,139-107
		c22-6,112-12,200-14l160-3l53-63c170-201,377-480,541-731l65-99l-25-19c-37-29-162-74-294-108c-212-53-194-55-315,35
		c-314,231-554,427-649,531c-124,135-320,394-357,471c-96,197-129,430-71,502c18,24,59,50,77,50
		C1676.6,11030,1693.6,11020,1704.6,11008z M2061.6,10907l120-72l12-55c7-30,12-56,11-56c-1-1-65,43-142,98
		c-152,107-235,174-235,188C1827.6,11029,1948.6,10976,2061.6,10907z M4277.6,10881c0-32-6-24-14,19c-4,25-3,31,4,20
		C4272.6,10912,4277.6,10894,4277.6,10881z M5187.6,10776c0-8-72-58-77-53c-2,3,12,17,34,31C5185.6,10781,5187.6,10782,5187.6,10776
		z M2372.6,10720c3-5,2-10-4-10c-5,0-13,5-16,10c-3,6-2,10,4,10C2361.6,10730,2369.6,10726,2372.6,10720z M1037.6,10706
		c94-29,535-229,595-269c19-13,112-120,205-237c153-192,181-230,165-230c-2,0-107,49-233,109c-194,92-329,147-631,258
		c-24,8-58,28-75,44c-70,61-136,252-108,313C968.6,10724,976.6,10725,1037.6,10706z M6503.6,10694c12-48-4-135-40-210
		c-55-116-38-105-346-219c-133-49-344-143-523-232c-60-30-115-53-122-51c-14,3,310,422,350,451c32,23,187,100,350,172
		C6452.6,10730,6491.6,10740,6503.6,10694z M2487.6,10625l25-28l-49,8c-73,10-74,11-62,50l10,33l26-18
		C2451.6,10660,2473.6,10640,2487.6,10625z M4522.6,10515c39-7,104-23,145-34c41-12,87-21,103-21c27,0,27-1-36-77
		c-173-213-377-494-526-730l-84-131l-31,19c-34,20-62,54-90,106c-16,32-16,33,19,87c35,55,85,187,85,225c0,11,7,27,15,35
		c18,18,105,213,105,236c0,12,2,12,9,2c12-20,21,8,31,102c5,43,15,84,21,92s9,25,7,39c-3,14-1,25,3,25c5,0,9-4,9-10
		c0-12,53-40,76-40c12,0,15,6,10,24c-4,15,0,28,9,36c8,7,15,19,15,27c0,10,6,13,18,8C4444.6,10532,4484.6,10523,4522.6,10515z
		 M2911.6,10505c9-13,16-33,16-45c0-28,32-26,68,5c30,25,31,25,37,5c4-11,11-18,16-15c5,4,9-15,9-42c0-29,4-43,9-35s10-15,14-60
		c8-83,16-120,26-113c4,2,24-36,45-86c38-88,54-114,42-63c-5,17-3,23,4,19c5-3,10-15,10-25c0-25,45-184,67-235c9-22,32-64,50-93
		s33-56,33-60s-9-22-21-41l-20-33l-121,178c-137,203-240,342-415,561l-122,152l32,10c33,11,160,38,188,40
		C2887.6,10529,2902.6,10519,2911.6,10505z M1223.6,10285c142-41,360-130,584-240c256-127,274-138,540-346c204-159,306-249,284-249
		c-6,0-87,30-180,66s-250,97-349,136c-236,92-529,188-691,227c-197,48-205,51-232,79c-13,15-39,56-55,92c-27,56-31,74-30,147
		c1,77,11,113,33,113C1131.6,10310,1175.6,10299,1223.6,10285z M6362.6,10289c4-11,7-55,7-98c0-84-19-144-68-208
		c-33-43-62-57-163-77c-200-40-546-160-1061-365c-123-50-226-88-229-86c-2,3,6,17,20,32c33,36,462,379,525,419
		c65,42,419,219,549,275c135,58,343,128,382,128C6347.6,10310,6357.6,10305,6362.6,10289z M4147.6,10061c0-6-4-13-10-16
		c-5-3-10,1-10,9c0,9,5,16,10,16C4143.6,10070,4147.6,10066,4147.6,10061z M1429.6,9861c259-67,564-177,1031-371l248-103l-43-24
		c-54-31-113-87-140-134c-19-35-22-36-52-28c-254,76-550,147-811,194c-204,37-222,44-294,120c-72,77-108,136-127,207
		c-21,81-18,134,8,152C1280.6,9896,1299.6,9894,1429.6,9861z M6227.6,9875c8-10,11-38,8-83c-4-86-47-178-120-257
		c-80-88-91-93-269-126c-297-55-760-170-938-234c-24-8-45-14-46-13c-1,2-16,29-34,61c-18,31-53,74-77,94c-24,21-41,40-36,44
		c28,29,792,336,1029,415C6072.6,9885,6197.6,9911,6227.6,9875z M5974.6,9393c5-14-73-103-146-166c-130-113-414-269-616-341
		c-116-40-292-83-302-72c-4,4-13,71-20,149c-6,78-15,151-18,163c-6,18-1,23,32,32c21,5,126,35,233,67c265,77,767,188,819,182
		C5964.6,9406,5972.6,9400,5974.6,9393z M1653.6,9379c181-31,457-94,658-150c99-28,182-52,184-54s-1-12-7-24c-6-11-18-86-25-166
		c-8-81-17-149-20-152c-8-8-195,52-306,99c-224,95-418,216-551,347c-87,84-108,121-70,121C1526.6,9400,1588.6,9391,1653.6,9379z
		 M5087.6,8692c265-94,445-265,577-549c35-77,41-103,20-103c-7,0-88,45-181,101c-175,104-281,155-472,229l-111,43l-7,60
		c-3,33-6,106-6,162v103l63-14C5004.6,8717,5057.6,8702,5087.6,8692z M2440.6,8496l-8-110l-90-36c-135-55-205-90-365-185
		c-79-47-150-85-157-85c-23,0-14,38,27,121c131,259,299,416,530,494l65,23l3-57C2446.6,8630,2444.6,8556,2440.6,8496z M5052.6,8342
		c97-34,248-103,325-147c93-55,249-154,293-188l37-29l-1-96c-1-97-15-172-35-179c-5-2-48,29-95,69c-169,145-251,205-414,304
		c-99,60-112,74-168,171c-15,26-39,63-52,82C4899.6,8387,4919.6,8390,5052.6,8342z M2420.6,8258c-7-55-14-102-15-103
		c-194-111-286-174-443-304c-60-50-114-91-121-91c-36,0-64,228-33,267c53,64,540,330,610,332C2432.6,8360,2432.6,8350,2420.6,8258z
		 M4989.6,8215c15-33,28-69,28-81c0-19-45-73-54-63c-1,2-9,47-15,99c-7,52-15,104-18,115C4918.6,8326,4959.6,8277,4989.6,8215z
		 M4557.6,8132c0-7-4-10-10-7c-5,3-10,16-10,28c0,18,2,19,10,7C4552.6,8152,4557.6,8139,4557.6,8132z M2397.6,8108c0-7-9-82-22-166
		l-22-152l-114-91c-62-50-127-98-143-106c-49-25-159,0-202,45c-41,43-44,74-9,109c115,115,280,245,409,322
		C2386.6,8123,2397.6,8127,2397.6,8108z M2831.6,8063c11-67,7-85-31-134c-20-27-38-48-39-46c-2,2,22,154,31,195
		C2800.6,8113,2824.6,8104,2831.6,8063z M5127.6,8075c143-72,450-316,514-407c30-42-25-116-102-138c-64-17-105-12-153,20
		c-111,75-372,310-393,355c-8,16-17,56-21,87l-7,56l38,26C5052.6,8106,5066.6,8106,5127.6,8075z M4580.6,7995c2-16,1-31-4-33
		s-9-8-9-13c0-6,5-7,10-4c6,3,10,2,10-3s3-24,7-42l6-33l-32,19c-18,10-42,29-53,41c-19,21-20,24-6,40c9,10,19,38,23,62l7,44l18-23
		C4567.6,8036,4577.6,8012,4580.6,7995z M2877.6,7936l28-23l-60-36c-34-20-65-34-70-31c-7,5,60,114,71,114
		C2848.6,7960,2862.6,7949,2877.6,7936z M4541.6,7880c55-43,65-56,71-91c4-22,5-43,2-46s-44,20-91,51c-84,55-86,56-86,96
		C4437.6,7945,4461.6,7943,4541.6,7880z M2925.6,7874c-3-19-176-140-185-130c-15,14,17,50,87,95
		C2907.6,7892,2930.6,7900,2925.6,7874z M5081.6,7781c45-44,122-114,171-156c50-42,92-81,94-87c2-7-9-8-33-4c-39,8-241,73-267,87
		c-11,5-20,33-28,81c-6,40-15,92-20,116c-5,23-6,42-3,42S5037.6,7824,5081.6,7781z M2347.6,7741c0-5-5-32-12-59l-11-50l-61-17
		c-34-9-69-19-78-21c-37-11-15,17,65,85C2332.6,7749,2347.6,7758,2347.6,7741z M2808.6,6240c-6-44-9-50-15-32c-6,19,10,99,19,90
		C2814.6,6296,2812.6,6270,2808.6,6240z M4578.6,6216c-8-18-10-16-10,16c-1,20-3,45-6,55s2,3,11-16
		C4584.6,6246,4586.6,6231,4578.6,6216z M2778.6,6147c-13-13-15,11-4,40c7,16,8,15,11-6C2787.6,6168,2784.6,6153,2778.6,6147z
		 M4607.6,6167c0-18-2-19-10-7c-13,20-13,43,0,35C4603.6,6192,4607.6,6179,4607.6,6167z M4608.6,6067c-16-16-23-3-27,50l-4,48l21-44
		C4613.6,6090,4616.6,6075,4608.6,6067z M2793.6,6064c-3-8-10-14-16-14c-14,0-13,27,2,53l13,22l3-23
		C2797.6,6089,2796.6,6072,2793.6,6064z M2768.6,5980c11,0,12-60,0-78c-11-18-24,32-16,59c4,10,2,19-4,19s-7,8-3,18c6,16,7,16,10,0
		C2757.6,5988,2763.6,5980,2768.6,5980z M4627.6,5958c0-47-15-67-24-33c-8,30,0,65,15,65C4623.6,5990,4627.6,5975,4627.6,5958z
		 M4643.6,5864c-4-18-11-34-16-34c-14,0-12,47,2,73C4644.6,5931,4651.6,5911,4643.6,5864z M2750.6,5883c13-27,8-89-6-67
		c-9,15-21,94-14,94C2734.6,5910,2743.6,5898,2750.6,5883z M3837.6,5345c0,0-7-36-15-80c-27-136-75-614-75-740c0-66,5-172,12-235
		c6-63,12-257,12-430c1-346,14-505,52-679c32-141,33-233,4-366c-14-66-25-163-30-288c-10-193-4-290,25-462c8-49,18-187,21-305
		c7-255-8-401-57-552c-32-96-32-99-19-169c11-56,11-86,2-138c-6-38-8-109-5-168c6-98-10-248-27-258s-33,148-26,259c4,70,2,139-5,182
		c-9,57-8,79,4,128c16,58,15,60-12,140c-36,105-58,203-65,291c-20,256-14,471,19,680c27,165,13,465-30,655c-38,172-40,202-16,327
		c12,61,26,147,32,190c10,67,22,765,22,1193c-1,141-43,506-83,710c-11,58-20,107-20,110s63,6,140,6S3837.6,5346,3837.6,5345z"/>
	<path d="M277.6,12041c0-6,5-13,10-16c6-3,10,1,10,9c0,9-4,16-10,16C282.6,12050,277.6,12046,277.6,12041z"/>
	<path d="M215.6,12023c-21-5-23-14-7-30c8-8,16-6,30,8C267.6,12030,261.6,12035,215.6,12023z"/>
	<path d="M420.6,12000c-3-11-9-20-14-20c-14,0-11-20,6-36c8-9,15-29,15-46c0-19,4-28,13-25c6,2,17-2,22-10c6-8,21-15,34-16
		c12-1,27-9,32-19c12-22,39-24,39-2c0,16,19,15,64-2c12-5,16,0,16,21c0,24-3,27-29,23c-28-4-28-3-24,32c4,31,1,39-20,53
		c-27,17-37,14-37-15s-20-21-26,12c-7,31-24,42-24,15c0-12-3-12-18,3c-10,9-16,25-14,35c3,11-2,17-13,17
		C433.6,12020,423.6,12011,420.6,12000z"/>
	<path d="M337.6,11962l-22-18l25-17c29-19,38-12,35,27C372.6,11985,367.6,11986,337.6,11962z"/>
	<path d="M287.6,11961c0-6,5-13,10-16c6-3,10,1,10,9c0,9-4,16-10,16C292.6,11970,287.6,11966,287.6,11961z"/>
	<path d="M698.6,11858c-40-42-51-71-31-83c6-3,10-1,10,4c0,6,11,11,25,11c17,0,23-4,19-14c-3-7,6-23,20-34s26-25,26-30
		c0-19,20-24,35-8c21,20,19,43-5,49c-20,5-45,51-41,74c1,8-4,10-14,7c-11-5-15,1-15,20c0,18,4,24,15,20c9-4,15,0,15,10
		C757.6,11910,742.6,11903,698.6,11858z"/>
	<path d="M777.6,11820c0-5,5-10,10-10c6,0,10,5,10,10c0,6-4,10-10,10C782.6,11830,777.6,11826,777.6,11820z"/>
	<path d="M882.6,11807c-4-10-5-21-1-24c10-10,18,4,13,24C890.6,11824,890.6,11824,882.6,11807z"/>
	<path d="M867.6,11760c0-5,5-10,10-10c6,0,10,5,10,10c0,6-4,10-10,10C872.6,11770,867.6,11766,867.6,11760z"/>
	<path d="M903.6,11688c3-5-6-6-20-2c-16,4-26,2-26-5c0-6,4-11,10-11c5,0,7-7,4-15c-4-10,0-15,11-15c12,0,15-5,10-21
		c-6-18-3-20,22-17c26,3,28,6,29,45c0,35-3,42-23,46C908.6,11695,900.6,11693,903.6,11688z"/>
	<path d="M1017.6,11640c0-5,5-10,10-10c6,0,10,5,10,10c0,6-4,10-10,10C1022.6,11650,1017.6,11646,1017.6,11640z"/>
	<path d="M967.6,11630c0-5,5-10,10-10c6,0,10,5,10,10c0,6-4,10-10,10C972.6,11640,967.6,11636,967.6,11630z"/>
	<path d="M997.6,11610c0-5,5-10,10-10c6,0,10,5,10,10c0,6-4,10-10,10C1002.6,11620,997.6,11616,997.6,11610z"/>
	<path d="M959.6,11561c4-13,18-16,19-4c0,4-5,9-11,12C960.6,11571,956.6,11567,959.6,11561z"/>
	<path d="M1107.6,11555c0-9,5-15,11-13s11,8,11,13s-5,11-11,13S1107.6,11564,1107.6,11555z"/>
	<path d="M1027.6,11534c0-8,5-12,10-9c6,3,10,10,10,16c0,5-4,9-10,9C1032.6,11550,1027.6,11543,1027.6,11534z"/>
	<path d="M1069.6,11533c2-9,8-18,15-20c7-3,9,3,6,16C1084.6,11554,1064.6,11557,1069.6,11533z"/>
	<path d="M1172.6,11487c-12-9-14-16-7-21c6-3,16,3,22,14C1200.6,11504,1197.6,11505,1172.6,11487z"/>
	<path d="M1227.6,11440c0-5,5-10,11-10c5,0,7,5,4,10c-3,6-8,10-11,10C1229.6,11450,1227.6,11446,1227.6,11440z"/>
	<path d="M1172.6,11430c3-5,8-10,11-10c2,0,4,5,4,10c0,6-5,10-11,10C1171.6,11440,1169.6,11436,1172.6,11430z"/>
	<path d="M1253.6,11345c13-20,19-22,35-12c18,11,18,12-4,24C1247.6,11378,1234.6,11373,1253.6,11345z"/>
	<path d="M1312.6,11300c3-5,8-10,11-10c2,0,4,5,4,10c0,6-5,10-11,10C1311.6,11310,1309.6,11306,1312.6,11300z"/>
	<path d="M1397.6,11261c0-12,6-21,15-21c8,0,15,4,15,9s-7,14-15,21C1399.6,11280,1397.6,11279,1397.6,11261z"/>
	<path d="M7183.6,12043c-12-12-6-33,9-33c8,0,15,6,15,14C7207.6,12041,7193.6,12052,7183.6,12043z"/>
	<path d="M7049.6,12011c-8-5-12-19-10-32l3-24l13,23C7071.6,12006,7067.6,12023,7049.6,12011z"/>
	<path d="M7252.6,12000c3-5,10-10,16-10c5,0,9,5,9,10c0,6-7,10-16,10C7253.6,12010,7249.6,12006,7252.6,12000z"/>
	<path d="M7003.6,11974c-8-22,1-31,16-16c9,9,9,15,1,23C7013.6,11988,7008.6,11986,7003.6,11974z"/>
	<path d="M7103.6,11966c-23-36-21-55,7-49c34,9,47,23,46,52c0,14-3,20-6,13c-3-9-9-10-18-2S7115.6,11984,7103.6,11966z"/>
	<path d="M6914.6,11956c-15-15-33-22-54-21c-22,1-30-2-26-12c3-7,0-14-6-14c-31-4-62-20-56-29c3-5,1-11-5-15c-5-3-10,3-10,14
		c0,12-6,21-14,21c-15,0-26-21-26-50c0-10-6-25-12-32c-7-8-18-23-24-33c-6-11-23-26-37-33c-15-7-27-17-27-22c0-15,20-22,33-11
		c8,6,18,6,27,1c27-17,37-10,44,30c5,31,11,40,26,40c11,0,20-4,20-10c0-5,5-10,11-10s10,15,8,33c-3,52,0,67,16,67c18,0,18-1,5-36
		c-9-22-8-25,2-16c7,5,22,12,33,14c11,1,27,12,37,23c22,27,31,16,13-18c-13-25-12-27,6-27c13,0,18,4,13,13c-6,10-4,10,7,0
		c18-18,39-16,39,2c0,20,33,52,48,47c17-5,11,66-5,73c-7,2-13,11-13,20C6987.6,11988,6941.6,11983,6914.6,11956z"/>
	<path d="M6652.6,11820c-3-5-1-10,4-10c6,0,11,5,11,10c0,6-2,10-4,10C6660.6,11830,6655.6,11826,6652.6,11820z"/>
	<path d="M6587.6,11800c0-5,5-10,10-10c6,0,10,5,10,10c0,6-4,10-10,10C6592.6,11810,6587.6,11806,6587.6,11800z"/>
	<path d="M6567.6,11754c0-8,5-12,10-9c6,3,10,10,10,16c0,5-4,9-10,9C6572.6,11770,6567.6,11763,6567.6,11754z"/>
	<path d="M6577.6,11719c0-5-13-15-30-20c-16-6-27-15-24-20c3-6-2-26-11-45c-18-38-15-51,7-38c7,5,21,7,31,5c15-2,17,2,12,18
		c-4,12-2,21,4,21s11,7,11,15s4,15,10,15c5,0,8,13,7,30C6592.6,11727,6577.6,11744,6577.6,11719z"/>
	<path d="M6418.6,11650c0-17,22-50,33-50c9,0,36,26,36,35c0,4-10,5-22,3c-13-2-28,4-35,12C6419.6,11663,6418.6,11663,6418.6,11650z"
		/>
	<path d="M6359.6,11545c1-26,7-35,20-35c10,0,18,7,18,15c0,9,6,12,18,9c16-5,16-5,0,9c-10,8-18,19-18,26c0,6-9,11-20,11
		C6360.6,11580,6357.6,11574,6359.6,11545z"/>
	<path d="M6507.6,11560c0-5,5-10,10-10c6,0,10,5,10,10c0,6-4,10-10,10C6512.6,11570,6507.6,11566,6507.6,11560z"/>
	<path d="M6277.6,11470c0-5,4-10,9-10c6,0,13,5,16,10c3,6-1,10-9,10C6284.6,11480,6277.6,11476,6277.6,11470z"/>
	<path d="M6213.6,11441c-4-7-5-15-2-18c9-9,19,4,14,18C6221.6,11452,6219.6,11452,6213.6,11441z"/>
	<path d="M6147.6,11390c0-5,5-10,11-10c5,0,7,5,4,10c-3,6-8,10-11,10C6149.6,11400,6147.6,11396,6147.6,11390z"/>
	<path d="M6192.6,11371c-9-15,24-46,36-34c6,6,3,16-10,27C6206.6,11375,6197.6,11378,6192.6,11371z"/>
	<path d="M6112.6,11350c3-5,8-10,11-10c2,0,4,5,4,10c0,6-5,10-11,10C6111.6,11360,6109.6,11356,6112.6,11350z"/>
	<path d="M6127.6,11299c0-5,5-7,10-4c6,3,10,8,10,11c0,2-4,4-10,4C6132.6,11310,6127.6,11305,6127.6,11299z"/>
	<path d="M152.6,11860c3-5,8-10,11-10c2,0,4,5,4,10c0,6-5,10-11,10C151.6,11870,149.6,11866,152.6,11860z"/>
	<path d="M209.6,11834c-16-11-21-11-25-1c-2,6-4-3-3-20c1-18,6-33,12-33s20-12,33-26c12-14,35-30,52-36c34-12,37-24,9-33
		c-16-5-19-12-14-28c3-12,7-22,8-22c0-1,14-6,29-13s36-12,46-12c12,0,17-7,17-22c-1-15,4-22,13-20c11,2,11-1-1-20c-14-22-9-68,8-68
		c3,0,4,6,1,13c-2,7,12,25,33,39l37,27l22-41c15-29,19-44,11-52c-17-17-11-34,13-38c14-2,21-9,21-20c-1-10,7-20,17-23
		c11-4,19-10,19-15c0-4,15-7,33-6c33,1,63,28,52,46c-3,6-1,10,5,10s15,11,20,25c8,21,14,24,36,19c22-6,26-4,21,8c-3,9-1,20,3,24
		c5,5,5,15,0,24c-8,12-10,10-10-7c0-13-6-23-14-23c-20,0-60,70-57,99c2,19-1,22-14,17c-9-3-26,1-38,9c-24,17-41,20-33,6
		c3-5-1-11-9-15c-8-3-15-1-15,5c0,5-6,9-12,8c-32-4-44,3-55,31c-9,25-9,31,5,39c15,9,15,10-3,10c-41,0-100,18-98,29c2,7-4,9-13,5
		c-13-5-15-2-9,15c5,18,2,22-17,22c-15,0-29,10-39,29C285.6,11836,237.6,11854,209.6,11834z M637.6,11508c0-5-6-7-12-5
		c-7,1-12-5-10-15c2-12-3-15-19-11c-16,5-18,8-7,15c10,7,10,11,1,15c-21,8-15,25,7,18c16-5,19-3,14,12c-6,16-5,15,9-2
		C629.6,11524,637.6,11512,637.6,11508z M657.6,11512c0-15-2-15-10-2c-13,20-13,33,0,25C653.6,11532,657.6,11521,657.6,11512z
		 M637.6,11463c0-19-3-24-10-17c-6,6-8,18-4,27C632.6,11497,637.6,11494,637.6,11463z"/>
	<path d="M520.6,11673c-17-6-16-23,1-23c8,0,16,7,20,15C547.6,11680,542.6,11682,520.6,11673z"/>
	<path d="M447.6,11496c0-9,5-16,10-16c6,0,10,4,10,9c0,6-4,13-10,16C452.6,11508,447.6,11504,447.6,11496z"/>
	<path d="M772.6,11457c-12-7-35-23-53-36c-28-22-30-25-15-37c24-17,43-6,43,23c0,18,4,24,15,19c8-3,15-1,15,4c0,6,7,10,15,10
		s15,7,15,15C807.6,11473,799.6,11473,772.6,11457z"/>
	<path d="M477.6,11401c0-11,5-23,11-27c16-9,30,18,17,33C490.6,11426,477.6,11423,477.6,11401z"/>
	<path d="M877.6,11406c0-22,17-28,24-10c9,22,8,24-9,24C884.6,11420,877.6,11414,877.6,11406z"/>
	<path d="M787.6,11398c0-4,1-8,3-8c1,0,16-4,33-9c28-8,31-7,27,9c-4,13-14,18-34,18C800.6,11407,787.6,11403,787.6,11398z"/>
	<path d="M947.6,11390c0-5,5-10,10-10c6,0,10,5,10,10c0,6-4,10-10,10C952.6,11400,947.6,11396,947.6,11390z"/>
	<path d="M882.6,11340c3-5,8-10,11-10c2,0,4,5,4,10c0,6-5,10-11,10C881.6,11350,879.6,11346,882.6,11340z"/>
	<path d="M567.6,11320c0-5,5-10,10-10c6,0,10,5,10,10c0,6-4,10-10,10C572.6,11330,567.6,11326,567.6,11320z"/>
	<path d="M794.6,11323c-12-12-7-19,15-20c13-1,18,1,13,5c-6,4-13,11-16,15S797.6,11327,794.6,11323z"/>
	<path d="M943.6,11301c5-23,2-30-15-36c-32-10-25-32,14-45c37-12,55-7,55,16c0,17-16,19-23,2c-3-8-6-4-8,7c-1,11-3,27-4,35
		s-3,23-4,33c0,9-5,17-11,17C942.6,11330,940.6,11317,943.6,11301z"/>
	<path d="M1043.6,11271c-8-12,10-41,25-41c13,0,11,13-4,35C1054.6,11278,1048.6,11280,1043.6,11271z"/>
	<path d="M777.6,11260c0-5,7-10,16-10c8,0,12,5,9,10c-3,6-10,10-16,10C781.6,11270,777.6,11266,777.6,11260z"/>
	<path d="M1007.6,11196c0-7,9-16,20-19c23-6,26,3,8,21C1019.6,11214,1007.6,11213,1007.6,11196z"/>
	<path d="M1138.6,11194c0-11,3-14,6-6c3,7,2,16-1,19C1140.6,11211,1137.6,11205,1138.6,11194z"/>
	<path d="M1162.6,11190c3-5,8-10,11-10c2,0,4,5,4,10c0,6-5,10-11,10C1161.6,11200,1159.6,11196,1162.6,11190z"/>
	<path d="M1159.6,11148c-9-9-8-16,5-30c21-23,33-23,33,1C1197.6,11145,1174.6,11163,1159.6,11148z"/>
	<path d="M1237.6,11130c0-13,5-18,15-14c12,5,13,10,4,20C1241.6,11155,1237.6,11154,1237.6,11130z"/>
	<path d="M1317.6,11015c0-8,5-15,10-15c6,0,10,7,10,15s-4,15-10,15C1322.6,11030,1317.6,11023,1317.6,11015z"/>
	<path d="M7277.6,11870c0-5,5-10,11-10c5,0,7,5,4,10c-3,6-8,10-11,10C7279.6,11880,7277.6,11876,7277.6,11870z"/>
	<path d="M7178.6,11832c-29-14-90-66-91-77c0-3,0-11,0-17c0-10-2-10-9,0c-6,10-12,7-25-13c-9-14-25-25-34-24c-42,4-53-3-68-41
		c-11-28-24-42-42-47c-16-4-27-2-30,5c-5,17-16,15-46-9c-22-17-25-24-15-36c10-11,10-16,0-23c-9-5-10-10-2-14c6-4,11-4,11,1
		c0,4,10-7,21-24c11-18,19-38,16-45c-3-8-9-1-16,15c-14,36-37,30-33-7c4-27,3-27-22-11c-23,15-26,45-5,45c14,0,10,27-5,33
		c-9,4-16-4-19-23c-4-17-15-31-27-35c-30-10-24-25,10-25c23,0,30-4,30-20c0-13-7-20-19-20c-31,0-33-27-3-38c57-21,63-21,78-3
		c14,16,21,17,47,7c23-8,31-8,34,2c3,6,11,12,19,12c22,0,34,41,19,65c-10,16-10,26,3,53c15,30,19,32,50,26c33-6,35-6,29,18
		c-5,20-2,27,19,37c15,6,29,9,32,6s16,2,30,11c13,9,32,14,43,11c15-4,18,0,17,19c-1,13-10,27-20,30c-22,7-22,22-3,48
		c15,19,15,19,29,1c13-18,14-17,30,14c12,21,22,31,32,27c9-3,17,2,21,12c4,9,11,20,17,24c7,5,6,11-3,20c-11,10-14,10-18,1
		c-6-17-23-16-23,1C7237.6,11846,7213.6,11849,7178.6,11832z"/>
	<path d="M6902.6,11670c3-5,8-10,11-10c2,0,4,5,4,10c0,6-5,10-11,10C6901.6,11680,6899.6,11676,6902.6,11670z"/>
	<path d="M7058.6,11591c-8-6-9-11-3-15c6-3,14-1,17,5C7081.6,11595,7074.6,11601,7058.6,11591z"/>
	<path d="M7087.6,11525c0-8,5-15,10-15c6,0,10,7,10,15s-4,15-10,15C7092.6,11540,7087.6,11533,7087.6,11525z"/>
	<path d="M6637.6,11460c0-5,7-10,16-10c8,0,12,5,9,10c-3,6-10,10-16,10C6641.6,11470,6637.6,11466,6637.6,11460z"/>
	<path d="M6658.6,11421c-17-13-22-23-16-39c3-12,10-22,15-22c14,0,32,38,28,60C6682.6,11438,6681.6,11439,6658.6,11421z"/>
	<path d="M6558.6,11404c0-11,3-14,6-6c3,7,2,16-1,19C6560.6,11421,6557.6,11415,6558.6,11404z"/>
	<path d="M6484.6,11387c-3-8,1-14,9-14c16,0,19,13,5,21C6493.6,11397,6487.6,11394,6484.6,11387z"/>
	<path d="M6984.6,11393c-4-3-7-13-7-21c0-12,3-12,15-2c8,7,15,16,15,21C7007.6,11402,6993.6,11403,6984.6,11393z"/>
	<path d="M6497.6,11320c0-5,5-10,10-10c6,0,10,5,10,10c0,6-4,10-10,10C6502.6,11330,6497.6,11326,6497.6,11320z"/>
	<path d="M6623.6,11314c-3-8,3-23,14-34c25-25,44-27,32-2c-5,9-7,22-5,28C6670.6,11323,6629.6,11330,6623.6,11314z"/>
	<path d="M6897.6,11321c0-6,5-13,10-16c6-3,10,1,10,9c0,9-4,16-10,16C6902.6,11330,6897.6,11326,6897.6,11321z"/>
	<path d="M6495.6,11268c6-22,5-23-22-5c-15,10-35,16-44,12c-13-5-11-10,13-33c30-28,67-35,97-20c14,7,15,13,6,32c-6,15-16,22-24,19
		s-14,0-14,6s-4,11-9,11S6491.6,11280,6495.6,11268z"/>
	<path d="M6382.6,11240c3-5,10-10,16-10c5,0,9,5,9,10c0,6-7,10-16,10C6383.6,11250,6379.6,11246,6382.6,11240z"/>
	<path d="M6403.6,11205c-11-29-7-36,17-33c14,2,22,10,22,23C6442.6,11219,6412.6,11227,6403.6,11205z"/>
	<path d="M6289.6,11170l-23-29l22-22c22-22,49-13,33,13c-5,7-7,25-5,40C6319.6,11206,6318.6,11206,6289.6,11170z"/>
	<path d="M6193.6,11131c-3-5,0-11,8-14c15-6,26,1,26,15C6227.6,11143,6200.6,11142,6193.6,11131z"/>
	<path d="M6168.6,11054c0-11,3-14,6-6c3,7,2,16-1,19C6170.6,11071,6167.6,11065,6168.6,11054z"/>
	<path d="M1177.6,11700c0-5,5-10,10-10c6,0,10,5,10,10c0,6-4,10-10,10C1182.6,11710,1177.6,11706,1177.6,11700z"/>
	<path d="M1293.6,11651c-4-5-2-12,3-15c5-4,12-2,15,3c4,5,2,12-3,15C1303.6,11658,1296.6,11656,1293.6,11651z"/>
	<path d="M1343.6,11573c-6-14-5-15,5-6c7,7,10,15,7,18S1346.6,11583,1343.6,11573z"/>
	<path d="M1347.6,11535c0-8,5-15,10-15c6,0,10,7,10,15s-4,15-10,15C1352.6,11550,1347.6,11543,1347.6,11535z"/>
	<path d="M6177.6,11651c0-5,5-13,10-16c6-3,10-2,10,4c0,5-4,13-10,16C6182.6,11658,6177.6,11657,6177.6,11651z"/>
	<path d="M6097.6,11581c0-6,4-13,10-16s7,1,4,9C6104.6,11592,6097.6,11595,6097.6,11581z"/>
	<path d="M6127.6,11540c0-5,5-10,10-10c6,0,10,5,10,10c0,6-4,10-10,10C6132.6,11550,6127.6,11546,6127.6,11540z"/>
	<path d="M5912.6,11399c-10-15,3-25,16-12c7,7,7,13,1,17C5923.6,11407,5915.6,11405,5912.6,11399z"/>
	<path d="M703.6,11073c-11-11-6-23,9-23c8,0,15,4,15,9C727.6,11072,711.6,11081,703.6,11073z"/>
	<path d="M825.6,11032c-3-10-1-28,4-41c7-20,11-21,24-10c14,12,14,14-1,25c-11,8-12,13-4,16c7,2,9,10,5,16
		C843.6,11055,830.6,11053,825.6,11032z"/>
	<path d="M757.6,11030c0-5,5-10,10-10c6,0,10,5,10,10c0,6-4,10-10,10C762.6,11040,757.6,11036,757.6,11030z"/>
	<path d="M901.6,10976c-7-31,1-46,26-46c24,0,29,9,23,43C943.6,11008,910.6,11010,901.6,10976z"/>
	<path d="M777.6,10965c0-8,5-15,10-15c6,0,10,7,10,15s-4,15-10,15C782.6,10980,777.6,10973,777.6,10965z"/>
	<path d="M997.6,10960c0-5-8-10-17-11c-14,0-15-2-3-6c8-3,24-17,35-30c14-16,26-22,38-18c23,9,22,32-3,40c-11,3-20,13-20,21
		s-7,14-15,14S997.6,10966,997.6,10960z"/>
	<path d="M958.6,10918c1-7-1-21-5-30c-12-26,0-48,24-48c19,0,21,5,18,42c-2,32-8,44-21,46C963.6,10930,957.6,10926,958.6,10918z"/>
	<path d="M1051.6,10831c3-5-1-14-9-21c-19-16-10-30,19-30c16,0,26,7,29,22c8,28,1,38-24,38C1055.6,10840,1048.6,10836,1051.6,10831z
		"/>
	<path d="M1127.6,10820c0-5,5-10,10-10c6,0,10,5,10,10c0,6-4,10-10,10C1132.6,10830,1127.6,10826,1127.6,10820z"/>
	<path d="M1167.6,10805c0-17,5-25,13-22c6,2,12,12,12,22s-6,20-12,23C1172.6,10830,1167.6,10822,1167.6,10805z"/>
	<path d="M1307.6,10750c0-5,5-10,10-10c6,0,10,5,10,10c0,6-4,10-10,10C1312.6,10760,1307.6,10756,1307.6,10750z"/>
	<path d="M1397.6,10694c0-8,5-12,10-9c6,3,10,10,10,16c0,5-4,9-10,9C1402.6,10710,1397.6,10703,1397.6,10694z"/>
	<path d="M6772.6,11060c3-5,8-10,11-10c2,0,4,5,4,10c0,6-5,10-11,10C6771.6,11070,6769.6,11066,6772.6,11060z"/>
	<path d="M6602.6,11040c-3-5,1-10,9-10c9,0,16,5,16,10c0,6-4,10-9,10C6612.6,11050,6605.6,11046,6602.6,11040z"/>
	<path d="M6673.6,11035c-3-9,0-15,9-15c16,0,20,16,6,24C6683.6,11047,6677.6,11043,6673.6,11035z"/>
	<path d="M6643.6,11001c-5-7-6-13-5-14c2-2,12-9,22-16c20-16,23-2,4,24C6654.6,11008,6648.6,11010,6643.6,11001z"/>
	<path d="M6507.6,10985c0-9-9-15-21-15c-36,0-19-34,18-36c46-2,69,16,54,44C6545.6,11003,6507.6,11008,6507.6,10985z"/>
	<path d="M6697.6,10960c0-5,5-10,10-10c6,0,10,5,10,10c0,6-4,10-10,10C6702.6,10970,6697.6,10966,6697.6,10960z"/>
	<path d="M6393.6,10932c-15-14-4-32,19-32c30,0,34,25,6,33C6407.6,10936,6396.6,10935,6393.6,10932z"/>
	<path d="M6457.6,10886c0-14-5-26-11-26s-9-7-5-15c3-9,0-15-8-15c-7,0-19-7-27-16c-10-13-10-17,2-25c21-13,24-12,36,22
		c8,21,17,30,27,26c18-7,25,10,17,42C6479.6,10913,6457.6,10918,6457.6,10886z"/>
	<path d="M6502.6,10900c-3-5,1-10,10-10s13,5,10,10c-3,6-8,10-10,10S6505.6,10906,6502.6,10900z"/>
	<path d="M6513.6,10873c-11-11-6-23,9-23c8,0,15,4,15,9C6537.6,10872,6521.6,10881,6513.6,10873z"/>
	<path d="M6363.6,10831c-3-4-17-6-31-3c-14,2-25,0-25-6c0-14,83-9,88,6C6399.6,10841,6371.6,10845,6363.6,10831z"/>
	<path d="M6265.6,10823c6-2,18-2,25,0c6,3,1,5-13,5S6258.6,10826,6265.6,10823z"/>
	<path d="M6284.6,10803c-4-3-7-11-7-17s5-5,12,2c6,6,9,14,7,17C6293.6,10808,6287.6,10807,6284.6,10803z"/>
	<path d="M6167.6,10750c0-5,5-10,10-10c6,0,10,5,10,10c0,6-4,10-10,10C6172.6,10760,6167.6,10756,6167.6,10750z"/>
	<path d="M6079.6,10708c6-18,28-21,28-4c0,9-7,16-16,16S6077.6,10715,6079.6,10708z"/>
	<path d="M5727.6,10911c0-6,5-13,10-16c6-3,10,1,10,9c0,9-4,16-10,16C5732.6,10920,5727.6,10916,5727.6,10911z"/>
	<path d="M5602.6,10900c-11-17,5-32,21-19c8,6,14,15,14,20C5637.6,10913,5610.6,10912,5602.6,10900z"/>
	<path d="M5783.6,10885c-14-11-17-18-9-26c13-13,56,6,50,24C5819.6,10900,5804.6,10901,5783.6,10885z"/>
	<path d="M5584.6,10856c-3-8,1-17,8-20c20-7,28,9,11,23C5593.6,10868,5588.6,10867,5584.6,10856z"/>
	<path d="M5724.6,10849c-11-15-23-20-48-17c-29,3-34,0-37-21c-3-17,0-22,11-18c9,3,18-6,27-29c11-26,16-31,27-23c7,7,13,9,13,6
		s11,5,25,19c27,26,32,44,14,44c-7,0-9,10-5,24C5759.6,10867,5742.6,10876,5724.6,10849z M5715.6,10786c-7-8-15-12-17-11
		c-5,6,10,25,20,25C5723.6,10800,5722.6,10794,5715.6,10786z"/>
	<path d="M5550.6,10829c-20-25-18-47,6-68c22-19,26-20,40-6s13,17-6,30c-12,8-23,25-25,37C5563.6,10840,5560.6,10841,5550.6,10829z"
		/>
	<path d="M5807.6,10796c0-9,5-16,10-16c6,0,10,4,10,9c0,6-4,13-10,16C5812.6,10808,5807.6,10804,5807.6,10796z"/>
	<path d="M5452.6,10760c-4-6-3-16,3-22s12-6,17,2c4,6,3,16-3,22S5457.6,10768,5452.6,10760z"/>
	<path d="M5622.6,10750c-19-8-19-9,3-9c12-1,22,4,22,9c0,6-1,10-2,9C5643.6,10759,5633.6,10755,5622.6,10750z"/>
	<path d="M5760.6,10748c2-7,10-13,17-13s15,6,18,13c2,7-5,12-18,12S5757.6,10755,5760.6,10748z"/>
	<path d="M5573.6,10712c-12-11-5-21,17-25c19-4,18-4-5-6c-16,0-28-7-28-13c0-7-3-22-6-33c-4-15,2-23,23-31c26-10,29-9,31,10
		c0,11,11,28,23,37c19,14,19,17,5,22c-9,4-16,13-16,21C5617.6,10708,5583.6,10722,5573.6,10712z"/>
	<path d="M5742.6,10710c-3-5-1-10,4-10c6,0,11,5,11,10c0,6-2,10-4,10C5750.6,10720,5745.6,10716,5742.6,10710z"/>
	<path d="M5697.6,10687c0-15,44-39,54-30c11,12,6,20-19,31C5699.6,10703,5697.6,10703,5697.6,10687z"/>
	<path d="M5430.6,10620c0-21,4-26,19-22c10,2,18,9,18,16c0,6-8,16-18,23C5433.6,10647,5430.6,10645,5430.6,10620z"/>
	<path d="M5497.6,10640c0-5,5-10,10-10c6,0,10,5,10,10c0,6-4,10-10,10C5502.6,10650,5497.6,10646,5497.6,10640z"/>
	<path d="M5253.6,10612c-3-6-1-14,5-17c15-10,25,3,12,16C5263.6,10618,5257.6,10618,5253.6,10612z"/>
	<path d="M5627.6,10594c0-8,5-12,10-9c6,3,10,10,10,16c0,5-4,9-10,9C5632.6,10610,5627.6,10603,5627.6,10594z"/>
	<path d="M5464.6,10562c-30-32-18-43,17-17c14,10,17,18,10,25S5475.6,10575,5464.6,10562z"/>
	<path d="M5329.6,10561c2-7,7-12,11-12c12,1,9,15-3,20C5330.6,10571,5326.6,10567,5329.6,10561z"/>
	<path d="M5697.6,10471c0-5,5-13,10-16c6-3,10-2,10,4c0,5-4,13-10,16C5702.6,10478,5697.6,10477,5697.6,10471z"/>
	<path d="M5622.6,10440c3-5,8-10,11-10c2,0,4,5,4,10c0,6-5,10-11,10C5621.6,10450,5619.6,10446,5622.6,10440z"/>
	<path d="M5342.6,10220c-3-5-1-10,4-10c6,0,11,5,11,10c0,6-2,10-4,10C5350.6,10230,5345.6,10226,5342.6,10220z"/>
	<path d="M5247.6,10190c0-5,5-10,10-10c6,0,10,5,10,10c0,6-4,10-10,10C5252.6,10200,5247.6,10196,5247.6,10190z"/>
	<path d="M5277.6,10020c0-5,5-10,10-10c6,0,10,5,10,10c0,6-4,10-10,10C5282.6,10030,5277.6,10026,5277.6,10020z"/>
	<path d="M1684.6,10889c-10-6-25-8-33-5s-14,1-14-4c0-6,4-10,8-10c5,0,19-10,32-22s21-15,18-7s2,19,11,26
		C1728.6,10883,1709.6,10903,1684.6,10889z"/>
	<path d="M1744.6,10830c-3-12-11-20-19-19c-30,4-48-2-48-16c0-8,7-15,16-15c12,0,15-6,10-25c-4-17-2-25,6-26c22-2,43,3,48,11
		c3,4,15,12,27,19c15,7,20,17,16,28s-3,14,5,9c15-9,29,22,16,34c-5,4-23,11-40,14C1755.6,10850,1749.6,10848,1744.6,10830z
		 M1777.6,10769c0-5-4-9-10-9c-5,0-10,7-10,16c0,8,5,12,10,9C1773.6,10782,1777.6,10775,1777.6,10769z"/>
	<path d="M1823.6,10751c-3-5,1-11,9-15c19-7,20-42,1-53c-7-4-16-19-20-33c-3-14-3-19,0-12c10,20,34,13,44-13s24-32,35-15
		c4,6,10,8,15,5c4-2,7,10,5,27c-3,38-19,46-44,24c-10-9-20-13-24-10c-7,8,17,34,32,34c6,0,11,7,11,16c0,10-6,14-15,10
		c-8-3-15-1-15,5C1857.6,10737,1829.6,10761,1823.6,10751z"/>
	<path d="M1783.6,10693c-4-5-12-9-17-9c-5-1-13-2-19-3c-12-1-13-12-1-30c7-11,13-10,35,5c14,11,26,25,26,32
		C1807.6,10701,1794.6,10704,1783.6,10693z"/>
	<path d="M2006.6,10658c-1-2-3-14-4-27c-3-31,20-55,43-46c15,6,14,8-6,24c-15,11-21,23-16,34c3,10,1,17-5,17
		S2006.6,10659,2006.6,10658z"/>
	<path d="M2072.6,10590c3-5,10-10,16-10c5,0,9,5,9,10c0,6-7,10-16,10C2073.6,10600,2069.6,10596,2072.6,10590z"/>
	<path d="M1977.6,10569c0-5,5-7,10-4c6,3,10,8,10,11c0,2-4,4-10,4C1982.6,10580,1977.6,10575,1977.6,10569z"/>
	<path d="M1867.6,10560c0-5,5-10,10-10c6,0,10,5,10,10c0,6-4,10-10,10C1872.6,10570,1867.6,10566,1867.6,10560z"/>
	<path d="M2014.6,10552c-16-18-14-32,5-32c5,0,6,5,2,12s-3,8,4,4c17-10,32,2,25,19C2043.6,10575,2034.6,10574,2014.6,10552z"/>
	<path d="M2112.6,10561c-7-12,12-24,25-16c11,7,4,25-10,25C2122.6,10570,2116.6,10566,2112.6,10561z"/>
	<path d="M1787.6,10460c0-5,5-10,10-10c6,0,10,5,10,10c0,6-4,10-10,10C1792.6,10470,1787.6,10466,1787.6,10460z"/>
	<path d="M1827.6,10434c0-8,5-12,10-9c6,3,10,10,10,16c0,5-4,9-10,9C1832.6,10450,1827.6,10443,1827.6,10434z"/>
	<path d="M1897.6,10296c0-9,5-16,10-16c6,0,10,4,10,9c0,6-4,13-10,16C1902.6,10308,1897.6,10304,1897.6,10296z"/>
	<path d="M2147.6,10210c0-5,5-10,10-10c6,0,10,5,10,10c0,6-4,10-10,10C2152.6,10220,2147.6,10216,2147.6,10210z"/>
	<path d="M2247.6,10190c0-5,5-10,10-10c6,0,10,5,10,10c0,6-4,10-10,10C2252.6,10200,2247.6,10196,2247.6,10190z"/>
	<path d="M1047.6,10580c0-5,5-10,10-10c6,0,10,5,10,10c0,6-4,10-10,10C1052.6,10590,1047.6,10586,1047.6,10580z"/>
	<path d="M1152.6,10580c-3-5-2-10,4-10c5,0,13,5,16,10c3,6,2,10-4,10C1163.6,10590,1155.6,10586,1152.6,10580z"/>
	<path d="M1111.6,10533c2-10,7-17,12-15c13,3,11,25-3,29C1114.6,10549,1110.6,10543,1111.6,10533z"/>
	<path d="M1156.6,10514c-8-10-9-18-2-25c13-13,53,5,53,24C1207.6,10531,1171.6,10531,1156.6,10514z"/>
	<path d="M1277.6,10490c0-5-7-10-15-10s-15-4-15-10c0-14,22-12,43,4s22,26,2,26C1284.6,10500,1277.6,10496,1277.6,10490z"/>
	<path d="M1067.6,10450c0-5,5-10,11-10c5,0,7,5,4,10c-3,6-8,10-11,10C1069.6,10460,1067.6,10456,1067.6,10450z"/>
	<path d="M1197.6,10450c0-5,5-10,11-10c5,0,7,5,4,10c-3,6-8,10-11,10C1199.6,10460,1197.6,10456,1197.6,10450z"/>
	<path d="M1147.6,10400c0-5,7-10,15-10s15,5,15,10c0,6-7,10-15,10S1147.6,10406,1147.6,10400z"/>
	<path d="M1367.6,10387c0-8,7-21,16-28c14-11,15-10,12,11C1392.6,10396,1367.6,10411,1367.6,10387z"/>
	<path d="M6323.6,10553c5-24,2-31-14-35c-10-3-27-1-36,4c-17,10-21,1-7-21c5-7,14-10,21-6c6,4,23,1,36-6c21-11,27-10,42,5
		c14,14,14,17,2,14c-10-2-14,4-13,18c1,12-7,30-17,39C6317.6,10583,6317.6,10583,6323.6,10553z"/>
	<path d="M6165.6,10493c7-3,16-2,19,1c4,3-2,6-13,5C6160.6,10499,6157.6,10496,6165.6,10493z"/>
	<path d="M6223.6,10493c-4-5-13-8-19-8c-7,0-12-7-12-15c0-23,27-18,36,8C6237.6,10501,6235.6,10505,6223.6,10493z"/>
	<path d="M6242.6,10449c-4-6-5-13-2-16c7-7,27,6,27,18S6250.6,10463,6242.6,10449z"/>
	<path d="M6337.6,10399c0-5,5-7,10-4c6,3,10,8,10,11c0,2-4,4-10,4C6342.6,10410,6337.6,10405,6337.6,10399z"/>
	<path d="M6107.6,10390c0-5,7-10,15-10s15,5,15,10c0,6-7,10-15,10S6107.6,10396,6107.6,10390z"/>
	<path d="M5887.6,10300c0-5,5-10,10-10c6,0,10,5,10,10c0,6-4,10-10,10C5892.6,10310,5887.6,10306,5887.6,10300z"/>
	<path d="M1307.6,10190c0-5,5-10,11-10c5,0,7,5,4,10c-3,6-8,10-11,10C1309.6,10200,1307.6,10196,1307.6,10190z"/>
	<path d="M1217.6,10170c0-5,5-10,10-10c6,0,10,5,10,10c0,6-4,10-10,10C1222.6,10180,1217.6,10176,1217.6,10170z"/>
	<path d="M1252.6,10089c-10-15,3-25,16-12c7,7,7,13,1,17C1263.6,10097,1255.6,10095,1252.6,10089z"/>
	<path d="M1397.6,10060c0-19,11-26,23-14c8,8-3,34-14,34C1401.6,10080,1397.6,10071,1397.6,10060z"/>
	<path d="M1345.6,10037c-6-16,1-37,13-37s12,37,0,44C1353.6,10047,1347.6,10044,1345.6,10037z"/>
	<path d="M1237.6,10004c0-8,5-12,10-9c6,3,10,10,10,16c0,5-4,9-10,9C1242.6,10020,1237.6,10013,1237.6,10004z"/>
	<path d="M6177.6,10190c0-5,5-10,10-10c6,0,10,5,10,10c0,6-4,10-10,10C6182.6,10200,6177.6,10196,6177.6,10190z"/>
	<path d="M6084.6,10074c-9-9,16-44,30-44c16,0,17,22,1,38C6102.6,10081,6093.6,10083,6084.6,10074z"/>
	<path d="M6252.6,10010c3-5,8-10,11-10c2,0,4,5,4,10c0,6-5,10-11,10C6251.6,10020,6249.6,10016,6252.6,10010z"/>
	<path d="M1367.6,9740c0-5,5-10,10-10c6,0,10,5,10,10c0,6-4,10-10,10C1372.6,9750,1367.6,9746,1367.6,9740z"/>
	<path d="M1474.6,9706c-7-19,18-42,28-26c8,13-1,40-14,40C1483.6,9720,1477.6,9714,1474.6,9706z"/>
	<path d="M1587.6,9611c0-5,7-11,15-15c9-3,15,0,15,9c0,8-7,15-15,15S1587.6,9616,1587.6,9611z"/>
	<path d="M1457.6,9540c0-5,5-10,11-10c5,0,7,5,4,10c-3,6-8,10-11,10C1459.6,9550,1457.6,9546,1457.6,9540z"/>
	<path d="M1587.6,9516c0-9,7-16,16-16c17,0,14,22-4,28C1592.6,9530,1587.6,9525,1587.6,9516z"/>
	<path d="M6004.6,9704c-4-4-4-11-1-15c8-14,31-10,38,6C6046.6,9710,6017.6,9717,6004.6,9704z"/>
	<path d="M5887.6,9614c0-9,5-14,12-12c18,6,21,28,4,28C5894.6,9630,5887.6,9623,5887.6,9614z"/>
	<path d="M5892.6,9519c-4-6-4-13-1-16c8-8,36,5,36,17C5927.6,9533,5900.6,9533,5892.6,9519z"/>
	<path d="M5517.6,9450c0-5,5-10,10-10c6,0,10,5,10,10c0,6-4,10-10,10C5522.6,9460,5517.6,9456,5517.6,9450z"/>
	<path d="M1847.6,9210c0-5,5-10,11-10c5,0,7,5,4,10c-3,6-8,10-11,10C1849.6,9220,1847.6,9216,1847.6,9210z"/>
	<path d="M5242.6,8499c-4-6-4-13-1-16c8-8,36,5,36,17C5277.6,8513,5250.6,8513,5242.6,8499z"/>
	<path d="M5317.6,8412c0-5,9-17,20-27c16-14,20-15,20-4c0,16-19,39-32,39C5321.6,8420,5317.6,8416,5317.6,8412z"/>
	<path d="M5267.6,8394c0-8,5-12,10-9c6,3,10,10,10,16c0,5-4,9-10,9C5272.6,8410,5267.6,8403,5267.6,8394z"/>
	<path d="M5447.6,8345c0-9,5-15,11-13s11,8,11,13s-5,11-11,13S5447.6,8354,5447.6,8345z"/>
	<path d="M5422.6,8290c-3-5,1-10,10-10s13,5,10,10c-3,6-8,10-10,10S5425.6,8296,5422.6,8290z"/>
	<path d="M5484.6,8253c-12-11-8-23,8-23c8,0,15,7,15,15C5507.6,8261,5495.6,8265,5484.6,8253z"/>
	<path d="M2257.6,8510c0-5,7-10,15-10s15,5,15,10c0,6-7,10-15,10S2257.6,8516,2257.6,8510z"/>
	<path d="M2312.6,8510c3-5,8-10,11-10c2,0,4,5,4,10c0,6-5,10-11,10C2311.6,8520,2309.6,8516,2312.6,8510z"/>
	<path d="M2102.6,8440c-3-5,1-10,10-10s13,5,10,10c-3,6-8,10-10,10S2105.6,8446,2102.6,8440z"/>
	<path d="M2154.6,8444c-8-8,1-24,14-24c5,0,9,7,9,15C2177.6,8450,2165.6,8455,2154.6,8444z"/>
	<path d="M2247.6,8420c0-5,5-10,10-10c6,0,10,5,10,10c0,6-4,10-10,10C2252.6,8430,2247.6,8426,2247.6,8420z"/>
	<path d="M2032.6,8388c11-6,23-16,27-22s14-6,30,1l23,12h-27c-16,1-28,5-28,9s-10,8-22,9C2013.6,8399,2013.6,8399,2032.6,8388z"/>
	<path d="M2022.6,8281c-7-12,12-24,25-16c11,7,4,25-10,25C2032.6,8290,2026.6,8286,2022.6,8281z"/>
	<path d="M5307.6,8114c0-8,5-12,10-9c6,3,10,10,10,16c0,5-4,9-10,9C5312.6,8130,5307.6,8123,5307.6,8114z"/>
	<path d="M5442.6,8059c-4-6-5-12-2-15c7-7,37,7,37,17C5477.6,8074,5450.6,8072,5442.6,8059z"/>
	<path d="M5517.6,8030c0-5,4-10,9-10s7-9,4-20s-9-20-13-20c-5,0-15-3-24-6c-11-4-16-1-16,11c0,11-7,15-22,13c-17-2-23-10-23-28
		c0-22,4-25,34-22c20,1,38-3,43-10c6-10,15-5,33,17c29,35,31,48,9,69C5533.6,8042,5517.6,8045,5517.6,8030z"/>
	<path d="M5412.6,8021c-6-11,9-23,19-14c9,9,7,23-3,23C5422.6,8030,5416.6,8026,5412.6,8021z"/>
	<path d="M5549.6,7928c7-19,35-21,41-3c5,11,0,15-19,15C5555.6,7940,5547.6,7935,5549.6,7928z"/>
	<path d="M5624.6,7914c-3-3-3-12,0-20c5-13-1-13-47-2c-9,2-16-6-18-18c-4-25,31-39,58-24c9,5,26,6,38,3c13-3,22-1,22,6
		c0,6-5,11-11,11s-9,7-5,15C5666.6,7900,5635.6,7925,5624.6,7914z"/>
	<path d="M2207.6,8160c0-5,5-10,10-10c6,0,10,5,10,10c0,6-4,10-10,10C2212.6,8170,2207.6,8166,2207.6,8160z"/>
	<path d="M2027.6,8101c0-10,30-24,37-17c3,3,2,9-2,15C2054.6,8112,2027.6,8114,2027.6,8101z"/>
	<path d="M1992.6,8080c-3-6,1-13,10-16c19-8,30,0,20,15C2014.6,8093,2000.6,8093,1992.6,8080z"/>
	<path d="M2052.6,8060c3-5,15-10,26-10s17,5,14,10c-3,6-15,10-26,10S2049.6,8066,2052.6,8060z"/>
	<path d="M1943.6,8043c-12-12-6-23,13-23c17,0,18-3,8-30c-16-41,0-50,29-17c24,28,50,28,40,1c-3-8-1-14,4-14c6,0,10,5,10,10
		c0,6,7,10,15,10c18,0,20,41,3,58c-14,14-52,16-43,2c8-13-31-13-54,0C1958.6,8045,1947.6,8046,1943.6,8043z"/>
	<path d="M1892.6,8011c-6-11,9-23,19-14c9,9,7,23-3,23C1902.6,8020,1896.6,8016,1892.6,8011z"/>
	<path d="M1866.6,7959c-19-7-26-17-26-37c0-26,4-29,41-30c50-2,71,9,62,34c-6,16-8,16-16,4c-8-13-12-13-27,3c-16,16-16,17,0,17
		c9,0,17,5,17,10C1917.6,7972,1901.6,7972,1866.6,7959z"/>
	<path d="M2273.6,7942c-3-6,1-13,10-16c23-9,28-2,10,13C2285.6,7946,2276.6,7947,2273.6,7942z"/>
	<path d="M2187.6,7905c-7-8-16-12-21-9s-9-6-9-20c0-30,5-32,26-11c8,8,22,19,31,23c9,5,13,14,9,21
		C2213.6,7924,2202.6,7923,2187.6,7905z"/>
	<path d="M2348.6,7904c0-11,3-14,6-6c3,7,2,16-1,19C2350.6,7921,2347.6,7915,2348.6,7904z"/>
	<path d="M2119.6,7878c5-15,28-23,28-10c0,5-7,13-16,16C2121.6,7888,2117.6,7885,2119.6,7878z"/>
	<path d="M2287.6,7880c0-5,5-10,10-10c6,0,10,5,10,10c0,6-4,10-10,10C2292.6,7890,2287.6,7886,2287.6,7880z"/>
	<path d="M2257.6,7850c0-5,5-10,10-10c6,0,10,5,10,10c0,6-4,10-10,10C2262.6,7860,2257.6,7856,2257.6,7850z"/>
	<path d="M2097.6,7840c-8-5-25-10-38-10c-19,0-21-4-16-24c4-16,1-25-10-29c-19-8-17-54,2-62c8-3,21,0,28,6s18,8,24,4
		c14-9,1-28-16-21c-7,3-15,2-18-2c-2-4-19-9-36-10c-31-2-32-1-28,28c3,21,0,30-9,30c-8,0-13-8-12-17c2-10-2-28-9-40
		c-10-18-10-27,0-45c7-13,13-24,14-26c1-1,9,1,19,4c17,7,17,8-1,21c-16,12-13,13,28,13c30,0,53-6,63-16c9-9,19-14,22-10
		c4,3-2,12-12,20c-16,12-14,14,29,25c42,10,46,14,40,34c-6,19-5,20,9,8c9-7,24-11,32-7c12,4,13,10,3,31c-9,20-9,31,0,45
		c14,24,1,34-34,26c-14-4-24-2-24,4s4,9,9,5c5-3,12-1,15,4C2182.6,7846,2121.6,7855,2097.6,7840z"/>
	<path d="M2292.6,7819c-4-6-5-13-2-16c7-7,27,6,27,18S2300.6,7833,2292.6,7819z"/>
	<path d="M5107.6,7975c0-9,5-15,11-13s11,8,11,13s-5,11-11,13S5107.6,7984,5107.6,7975z"/>
	<path d="M5249.6,7891c2-7,7-12,11-12c12,1,9,15-3,20C5250.6,7901,5246.6,7897,5249.6,7891z"/>
	<path d="M5287.6,7860c0-5,7-10,15-10s15,5,15,10c0,6-7,10-15,10S5287.6,7866,5287.6,7860z"/>
	<path d="M5200.6,7819c2-24,32-45,42-28c7,10-21,49-36,49C5202.6,7840,5199.6,7831,5200.6,7819z"/>
	<path d="M5344.6,7834c-13-13-7-20,18-19c14,0,26,5,28,10C5392.6,7837,5354.6,7844,5344.6,7834z"/>
	<path d="M5341.6,7789c-2-4,0-10,6-14c5-3,10-11,10-17c0-7-5-6-15,2c-21,17-32,6-33-35c-1-20-4-41-8-47c-10-16,18-29,35-15
		c11,10,13,8,7-11c-6-18-4-22,13-22c11,0,23-5,26-10c4-6,10-8,15-5c4,3,13-2,20-10c16-19,30-19,30,0c0,25,21,17,57-20
		c19-19,36-35,38-35s5,10,7,23c2,14,11,23,26,25c28,4,29,22,2,22c-11,0-23-7-26-15c-4-8-15-15-25-15c-19,0-19,1,2,30
		c13,16,19,33,15,37c-4,5-13,0-20-10c-17-22-38-22-34,1c2,9,11,17,20,17c10,0,23,6,30,13c9,9,9,12-5,12c-9,0-17,8-17,18
		c-1,11-9,4-23-20c-23-38-54-55-71-38c-10,10,3,14,31,11c6-1,14,3,18,9c3,5,2,10-3,10c-6,0-13,7-16,16c-6,15-4,15,10,3
		c15-12,16-10,9,21c-9,45-34,74-50,60c-9-7-16-6-24,4C5386.6,7799,5349.6,7802,5341.6,7789z"/>
	<path d="M5242.6,7766c-19-14-19-15-2-22c22-8,30-1,25,21C5262.6,7779,5260.6,7779,5242.6,7766z"/>
	<path d="M5397.6,7580c0-5,5-10,11-10c5,0,7,5,4,10c-3,6-8,10-11,10C5399.6,7590,5397.6,7586,5397.6,7580z"/>
	<path d="M5157.6,7640c0-5,5-10,10-10c6,0,10,5,10,10c0,6-4,10-10,10C5162.6,7650,5157.6,7646,5157.6,7640z"/>
</g>
</svg>
