<?xml version="1.0" standalone="no"?>
<!DOCTYPE svg PUBLIC "-//W3C//DTD SVG 20010904//EN"
 "http://www.w3.org/TR/2001/REC-SVG-20010904/DTD/svg10.dtd">
<svg version="1.0" xmlns="http://www.w3.org/2000/svg"
 width="724.000000pt" height="1280.000000pt" viewBox="0 0 724.000000 1280.000000"
 preserveAspectRatio="xMidYMid meet">
<metadata>
Created by potrace 1.15, written by Peter Selinger 2001-2017
</metadata>
<g transform="translate(0.000000,1280.000000) scale(0.100000,-0.100000)"
fill="#000000" stroke="none">
<path d="M3495 12774 c-24 -26 -27 -26 -82 -16 -144 28 -233 21 -331 -23 -99
-45 -211 -175 -283 -329 -27 -57 -35 -66 -57 -66 -15 -1 -72 -23 -127 -51
-116 -57 -109 -57 32 2 56 24 105 40 108 37 4 -3 -3 -24 -14 -47 -27 -52 -27
-65 0 -24 44 69 128 92 254 70 32 -5 35 -5 16 4 -14 5 -67 13 -118 16 -53 3
-93 10 -93 16 0 6 16 44 36 84 53 106 146 203 240 249 68 34 83 38 177 41 64
3 121 -1 152 -9 44 -11 51 -17 61 -47 19 -59 69 -86 105 -58 53 41 61 108 17
154 -28 30 -63 29 -93 -3z"/>
<path d="M5839 12401 c-22 -23 -29 -39 -29 -70 l0 -40 -302 -150 c-421 -208
-717 -386 -1034 -619 -60 -44 -110 -79 -111 -78 -2 2 8 35 22 76 30 90 75 170
159 287 60 84 68 102 121 269 31 98 63 198 70 222 8 23 11 42 9 42 -9 0 -320
-260 -499 -416 -215 -189 -561 -528 -722 -708 -432 -483 -696 -915 -865 -1416
-78 -233 -132 -451 -238 -975 -84 -414 -129 -597 -149 -613 -10 -8 -28 -11
-51 -7 -69 13 -67 7 -51 167 19 192 21 957 3 1153 -20 214 -49 449 -98 790
-92 639 -102 870 -48 1133 54 266 209 555 373 696 84 72 100 91 54 61 -218
-141 -363 -341 -427 -587 -45 -173 -51 -230 -51 -503 0 -311 -3 -272 130
-1390 19 -159 35 -305 35 -324 l0 -35 -25 34 c-14 19 -25 40 -25 47 0 29 -42
95 -73 113 -17 11 -50 22 -73 26 -36 5 -46 12 -73 53 -33 52 -86 93 -141 109
-19 6 -85 14 -146 17 -92 6 -116 4 -143 -9 -30 -16 -32 -16 -40 6 -29 76 -294
699 -372 874 -102 233 -216 466 -320 655 -49 89 -71 141 -75 175 l-6 49 36 1
c48 1 90 33 94 71 2 24 -4 36 -28 57 -17 14 -44 26 -59 26 -24 0 -32 11 -86
120 -43 86 -64 120 -77 120 -10 0 -18 -3 -18 -7 0 -5 16 -66 35 -138 19 -71
35 -145 35 -163 0 -18 7 -44 16 -57 31 -47 8 -46 -26 2 -96 136 -170 203 -224
203 -43 0 -52 -9 -66 -60 -39 -142 62 -501 265 -950 31 -69 70 -149 86 -177
l29 -53 -35 0 c-52 0 -85 -36 -85 -93 0 -34 6 -50 26 -71 15 -14 35 -26 45
-26 13 0 29 -24 57 -84 22 -46 76 -140 120 -208 94 -146 129 -214 170 -328 28
-79 76 -289 69 -297 -2 -2 -25 13 -51 33 -77 59 -151 88 -224 87 -71 -1 -102
-20 -128 -81 -50 -120 -3 -346 119 -575 31 -59 53 -86 85 -108 35 -24 47 -27
58 -18 8 7 16 10 17 8 1 -2 19 -29 40 -60 58 -86 45 -104 -29 -42 -128 107
-255 199 -364 263 -107 63 -78 36 128 -122 73 -55 130 -103 128 -106 -3 -2
-45 19 -95 48 -103 59 -207 104 -221 95 -16 -10 -5 -20 92 -87 88 -61 90 -63
59 -66 -23 -2 -48 -18 -84 -53 -28 -27 -54 -49 -57 -49 -11 0 -64 61 -81 94
-15 27 -15 35 -1 82 10 36 12 70 8 108 -8 62 -20 71 -38 29 l-12 -28 -4 38
c-3 38 -13 46 -29 25 -13 -18 -83 -184 -83 -197 0 -14 -1 -14 -43 4 -48 20
-102 19 -122 -2 -13 -13 -16 -29 -13 -70 4 -46 2 -55 -18 -68 -30 -19 -48 -74
-35 -108 24 -62 88 -84 150 -52 29 15 41 39 41 88 0 32 -56 97 -84 97 -21 0
-33 65 -16 86 15 17 55 12 104 -13 25 -13 27 -17 13 -25 -27 -14 -20 -31 28
-71 67 -56 100 -105 100 -146 0 -31 3 -36 23 -36 13 0 58 -29 105 -68 45 -37
109 -83 142 -103 70 -42 76 -50 64 -80 -12 -33 -161 -254 -391 -582 -110 -156
-218 -318 -241 -360 -38 -71 -42 -84 -45 -169 -6 -121 1 -150 44 -197 33 -36
38 -38 83 -34 66 7 166 56 280 137 82 59 436 281 447 281 10 0 2 -69 -17 -145
-20 -79 -20 -87 -6 -124 9 -21 19 -63 23 -92 6 -42 14 -60 42 -87 19 -20 43
-54 53 -78 11 -23 55 -90 99 -148 43 -58 84 -123 91 -145 7 -25 32 -60 70 -97
33 -32 59 -63 59 -69 0 -5 11 -30 24 -55 25 -48 51 -129 43 -137 -3 -2 -14 1
-25 8 -16 10 -22 9 -39 -8 -24 -24 -41 -117 -24 -128 6 -3 11 -19 11 -35 0
-15 3 -37 7 -47 6 -15 8 -13 13 11 9 51 30 43 31 -11 1 -45 2 -46 12 -20 14
35 24 31 52 -21 12 -23 25 -39 29 -35 12 12 5 -233 -9 -342 -30 -220 -30 -224
-7 -246 12 -11 29 -33 37 -49 8 -15 28 -38 45 -50 16 -12 33 -32 36 -46 4 -16
10 -22 18 -16 16 13 66 21 66 10 0 -5 -13 -52 -29 -106 -43 -144 -72 -302 -82
-437 -4 -66 -11 -137 -15 -157 -3 -21 -1 -51 4 -68 8 -21 8 -45 0 -83 -11 -54
-10 -70 24 -207 18 -73 13 -316 -7 -378 -12 -35 -15 -66 -11 -92 7 -47 106
-310 143 -384 37 -73 73 -184 73 -225 0 -21 11 -53 25 -76 17 -28 24 -55 25
-88 0 -26 6 -63 14 -82 8 -19 15 -52 14 -73 0 -44 9 -80 26 -102 16 -20 36
-90 47 -166 5 -34 18 -82 29 -108 11 -26 20 -65 20 -87 0 -44 23 -109 39 -109
18 0 76 -239 62 -253 -11 -11 30 -140 54 -167 13 -14 20 -44 26 -107 4 -49 13
-101 19 -118 8 -18 14 -90 15 -175 2 -80 6 -163 10 -185 17 -104 17 -101 5
-85 -9 12 -10 8 -6 -20 3 -19 8 -59 12 -89 5 -40 27 -91 85 -199 74 -137 77
-148 73 -196 -3 -34 -1 -44 4 -31 8 17 11 15 22 -20 8 -22 13 -60 12 -85 -2
-41 0 -47 30 -65 67 -41 72 -44 78 -35 10 17 165 -92 186 -130 27 -50 47 -49
83 5 41 60 40 105 -1 198 -30 68 -32 79 -32 192 0 106 16 278 30 328 9 31 24
18 76 -63 52 -83 80 -99 108 -66 8 11 24 13 59 9 56 -6 101 13 128 54 15 23
18 52 18 188 0 119 8 212 29 365 21 151 27 232 24 310 -5 151 -31 193 -105
174 -44 -10 -146 4 -139 21 2 6 0 28 -4 50 -6 29 -8 33 -10 15 -1 -23 -2 -23
-10 -5 -12 28 -12 57 0 50 7 -4 9 2 4 19 -4 16 -2 26 4 26 12 0 7 137 -8 235
-8 48 -7 62 4 70 8 6 17 29 20 50 4 27 3 33 -2 20 -6 -13 -9 13 -8 73 1 62 -3
95 -11 100 -8 5 -11 42 -8 127 4 145 -5 197 -50 294 -19 40 -35 79 -35 86 0 7
-7 19 -16 26 -9 7 -30 42 -46 78 -17 35 -47 82 -66 103 -26 28 -32 41 -24 51
14 16 -1 42 -20 34 -12 -4 -18 14 -28 91 -14 113 -9 143 45 246 19 37 35 76
35 87 0 27 12 49 49 88 32 35 41 61 60 180 7 47 22 93 41 126 17 29 30 65 30
80 0 15 32 95 71 178 250 534 326 789 301 1007 -6 52 -25 142 -41 200 -16 58
-28 106 -27 108 2 1 14 -13 27 -32 22 -33 59 -55 59 -35 0 4 13 24 30 42 16
19 30 42 30 51 0 9 -51 69 -114 134 -102 105 -113 120 -109 147 4 28 -2 34
-81 89 -47 33 -83 63 -80 67 10 17 -54 49 -190 97 -161 57 -267 105 -293 135
-15 16 -18 36 -16 113 1 52 0 94 -2 94 -2 0 -16 -5 -31 -11 -27 -10 -27 -9
-11 9 20 22 12 56 -11 47 -13 -5 -14 8 -9 97 3 57 11 120 17 141 l11 39 367
-363 c202 -199 382 -377 401 -395 31 -29 33 -34 23 -63 -13 -37 1 -86 28 -101
28 -15 73 -12 98 6 51 36 65 120 26 159 -18 18 -85 20 -101 4 -9 -9 -26 1 -70
39 -65 57 -271 262 -262 262 2 0 22 -9 44 -20 46 -24 64 -25 71 -6 22 57 -231
276 -319 276 -14 0 -27 -5 -29 -11 -2 -6 -63 48 -136 119 l-132 130 22 54 c12
29 22 54 22 55 1 1 17 -3 36 -9 25 -8 43 -24 62 -54 32 -52 64 -74 117 -81 35
-5 44 -2 72 26 29 30 31 35 27 89 -3 31 -8 65 -12 74 -6 12 1 20 27 33 57 27
101 80 100 120 -1 19 0 35 1 35 2 0 52 -14 112 -30 140 -39 270 -103 361 -177
39 -32 127 -103 195 -159 67 -55 238 -178 378 -274 422 -286 636 -464 765
-635 62 -82 90 -108 176 -161 37 -23 79 -61 110 -101 28 -36 71 -78 97 -94 48
-30 97 -38 105 -16 2 6 -26 48 -63 92 -81 97 -121 155 -114 167 8 13 62 9 179
-12 60 -11 141 -20 181 -20 68 0 72 -1 78 -25 3 -13 22 -36 41 -50 28 -22 40
-25 67 -20 52 12 88 34 99 62 12 31 4 58 -28 101 -26 34 -24 48 11 62 15 6 0
9 -51 9 -58 1 -74 4 -82 19 -7 13 -3 24 14 45 13 15 30 27 37 27 7 0 8 3 2 9
-5 6 -27 6 -52 2 l-42 -8 -57 81 c-68 98 -199 229 -276 275 -104 61 -174 84
-274 89 l-91 4 -6 33 c-20 103 -188 241 -422 345 -96 42 -97 40 41 65 50 9
212 43 360 75 340 74 386 82 515 82 174 0 327 -47 583 -177 l128 -65 -23 42
c-35 63 -168 199 -250 255 -308 212 -767 313 -1844 403 -207 17 -266 19 -424
10 -171 -9 -202 -8 -188 5 8 8 141 32 273 49 375 49 716 44 1240 -19 733 -87
1175 -41 1625 172 63 30 149 68 190 84 65 26 86 41 155 112 44 45 126 123 183
172 99 86 104 89 147 86 51 -3 85 16 115 64 32 51 27 91 -17 131 -61 56 -137
44 -183 -31 -24 -40 -26 -82 -3 -115 17 -23 16 -24 -38 -73 -103 -94 -202
-177 -211 -177 -4 0 -8 6 -8 14 0 7 -16 26 -36 41 -32 24 -42 27 -89 22 -53
-5 -54 -5 -122 50 -429 345 -979 510 -1552 464 -80 -6 -156 -14 -170 -17 -19
-4 -22 -3 -11 4 8 6 71 20 139 31 142 24 373 28 510 9 83 -11 84 -11 103 12
19 24 19 24 -4 42 -104 83 -226 153 -320 184 -87 29 -238 105 -238 120 0 16
198 129 315 179 170 72 555 261 555 272 -1 29 -17 31 -165 22 -190 -12 -392
-41 -534 -77 -61 -15 -111 -26 -111 -24 0 10 301 145 393 175 245 81 443 111
732 110 214 -1 349 -13 595 -54 156 -27 170 -32 170 -63 0 -15 13 -35 35 -55
30 -26 44 -31 85 -31 45 0 51 3 80 40 19 24 34 57 37 80 5 36 2 43 -31 75 -32
30 -45 35 -84 35 -39 0 -51 -5 -82 -35 l-37 -36 -137 26 c-269 49 -369 59
-616 59 -262 1 -356 -10 -585 -69 -169 -44 -285 -84 -595 -210 -717 -291 -929
-382 -1089 -474 -41 -23 -75 -40 -77 -38 -12 11 298 220 456 308 63 35 144 86
180 113 88 67 234 200 222 204 -5 1 -75 -18 -156 -43 -424 -132 -737 -293
-956 -492 -40 -37 -71 -61 -68 -52 11 27 285 458 363 568 209 298 356 435 609
572 43 23 162 79 263 125 102 45 187 85 190 87 5 5 -96 37 -116 37 -26 0 -5
18 72 62 327 187 740 326 1127 379 99 14 423 19 435 7 4 -4 -8 -29 -28 -55
-71 -98 -117 -220 -117 -310 0 -95 76 -213 156 -243 46 -18 48 -10 3 13 -50
26 -103 97 -120 160 -32 119 14 265 115 371 l55 57 61 -31 c33 -17 60 -28 60
-25 0 2 -22 16 -50 30 -27 14 -50 29 -50 33 0 12 90 69 160 101 81 38 220 75
338 91 l91 13 31 -27 c25 -20 42 -26 80 -26 42 0 52 4 74 31 32 38 34 90 6
137 -49 81 -172 73 -200 -13 -6 -18 -9 -38 -8 -45 2 -9 -35 -20 -117 -35 -210
-40 -345 -92 -455 -174 l-55 -42 -100 8 c-128 10 -302 7 -419 -7 -339 -41
-753 -183 -1095 -374 -131 -74 -116 -74 -249 8 l-89 55 -62 115 c-62 113 -62
116 -83 260 l-21 146 27 162 c18 108 33 169 44 181 26 29 261 203 397 294 299
200 543 335 943 524 l144 67 35 -24 c47 -32 93 -31 132 2 53 44 54 123 1 175
-23 24 -37 29 -75 29 -38 0 -52 -5 -76 -29z m-5440 -727 c34 -31 95 -106 136
-168 70 -103 76 -117 90 -196 47 -270 38 -550 -19 -550 -76 0 -285 525 -315
790 -8 73 -7 99 5 158 7 36 38 26 103 -34z m197 11 c9 -40 -4 -27 -16 15 -6
20 -6 30 -1 24 5 -5 13 -22 17 -39z m220 -680 c118 -242 219 -471 419 -950
129 -306 141 -342 128 -357 -8 -9 -21 -33 -28 -54 l-13 -37 -89 180 c-169 338
-334 593 -560 865 -40 48 -73 90 -73 93 0 3 9 5 21 5 14 0 26 13 42 48 19 41
22 65 22 182 0 74 -4 173 -8 220 l-8 85 22 -35 c12 -19 68 -129 125 -245z
m-61 -737 c63 -147 137 -348 132 -361 -4 -12 -134 207 -197 331 l-42 84 21 19
c12 11 21 24 21 29 0 32 23 -4 65 -102z m88 -793 c27 -14 75 -46 108 -72 l60
-47 -48 -48 c-57 -58 -97 -65 -114 -20 -29 76 -81 172 -94 172 -22 0 -19 -18
20 -126 32 -87 34 -100 23 -130 -11 -30 -9 -37 11 -65 22 -30 23 -36 13 -98
-11 -68 -6 -161 9 -161 11 0 43 -109 34 -118 -3 -4 -9 -2 -13 4 -4 6 -15 13
-24 17 -45 16 -130 174 -174 322 -22 76 -27 110 -28 223 -1 131 -1 133 24 152
48 36 116 34 193 -5z m1308 -875 c-14 -185 -33 -350 -40 -350 -6 0 -84 123
-133 209 l-26 45 48 62 c72 93 93 156 98 294 4 107 6 116 31 142 l26 28 3
-142 c2 -79 -2 -208 -7 -288z m3194 -11 c370 -42 734 -198 1048 -448 l77 -61
-15 -30 c-23 -44 -19 -83 12 -114 l27 -28 -24 -19 c-46 -35 -284 -148 -379
-178 -116 -38 -292 -75 -431 -91 -213 -25 -614 -12 -868 29 -65 10 -91 33
-233 208 -106 131 -114 149 -85 217 12 29 26 38 107 71 144 58 343 124 454
150 80 20 343 60 424 66 49 4 -318 46 -649 74 -264 23 -562 30 -644 16 -37 -7
-70 -10 -73 -8 -6 6 204 63 322 87 345 71 651 90 930 59z m-4424 -6 c13 -16
12 -17 -3 -4 -17 13 -22 21 -14 21 2 0 10 -8 17 -17z m4 -161 c55 -73 110
-142 123 -154 l22 -22 0 22 0 22 65 -25 c85 -32 231 -108 217 -113 -6 -2 -25
4 -42 13 -34 18 -50 13 -50 -15 0 -46 -38 -33 -216 77 -201 123 -256 167 -260
206 -2 25 0 27 39 28 l42 1 -30 10 c-40 14 -55 27 -55 47 0 20 20 42 35 38 5
-2 55 -62 110 -135z m-192 78 c12 -20 14 -30 6 -30 -8 0 -7 -5 2 -17 13 -15
12 -15 -11 -3 -14 7 -37 23 -51 35 l-27 22 27 10 c14 6 28 11 31 12 3 1 14
-12 23 -29z m3312 -36 c-163 -60 -423 -190 -640 -319 -231 -138 -395 -229
-400 -223 -7 6 261 191 412 284 239 147 408 224 615 278 141 38 146 30 13 -20z
m-2120 -95 c26 -33 45 -62 43 -64 -4 -4 -91 99 -96 115 -8 23 9 7 53 -51z m88
-179 c-5 -5 -71 67 -104 115 -12 17 8 -1 44 -40 36 -38 63 -72 60 -75z m-976
-1 c63 -40 112 -73 110 -75 -1 -2 -26 8 -54 21 -28 14 -77 31 -108 40 -32 8
-59 16 -60 17 -6 9 -13 68 -8 68 4 0 58 -32 120 -71z m1023 -39 c0 -5 -2 -10
-4 -10 -3 0 -8 5 -11 10 -3 6 -1 10 4 10 6 0 11 -4 11 -10z m-999 -41 c38 -18
69 -35 69 -38 0 -9 -150 -144 -155 -139 -2 2 -20 30 -40 63 -31 51 -35 66 -30
99 3 22 8 43 12 49 9 15 68 1 144 -34z m-161 -129 c19 -37 19 -42 5 -56 -9 -9
-25 -35 -37 -58 -24 -48 -90 -138 -96 -131 -2 2 7 24 22 49 14 24 26 49 26 55
0 16 -27 2 -33 -17 -21 -67 -64 -151 -89 -175 -26 -24 -29 -25 -23 -6 17 51
190 379 201 379 2 0 13 -18 24 -40z m40 -105 c-10 -18 -17 -22 -26 -14 -8 7
-14 6 -20 -2 -5 -8 -3 -10 7 -4 11 6 11 5 2 -5 -6 -7 -17 -10 -24 -8 -7 2 0
17 21 42 23 25 36 34 43 27 7 -7 6 -18 -3 -36z m-119 -148 c-16 -16 -26 0 -10
19 9 11 15 12 17 4 2 -6 -1 -17 -7 -23z m3429 -850 c158 -55 281 -129 372
-224 47 -50 106 -140 96 -147 -2 -2 -17 -8 -35 -15 -41 -16 -64 -42 -72 -81
-6 -31 -7 -30 -216 187 -116 120 -233 242 -260 271 l-49 54 39 -8 c22 -4 78
-20 125 -37z m-1480 -287 c64 -43 183 -150 176 -157 -7 -8 -150 93 -207 146
-65 61 -50 66 31 11z m2188 -143 c35 -14 88 -40 119 -58 73 -43 216 -185 271
-269 l43 -65 -33 -6 c-70 -14 -138 -18 -138 -9 0 6 9 10 21 10 12 0 35 11 51
25 l30 25 -129 -6 c-103 -6 -139 -4 -184 9 -101 30 -212 99 -328 203 l-55 49
29 5 c34 6 75 60 75 98 l0 25 83 -5 c56 -4 103 -14 145 -31z m-238 6 c0 -25
-40 -63 -66 -63 -38 0 -40 21 -5 52 35 31 71 37 71 11z m705 -464 c11 -16 -2
-22 -32 -14 -26 7 -26 8 -8 15 28 12 33 12 40 -1z m-4035 -49 c0 -5 -7 -7 -15
-4 -8 4 -15 8 -15 10 0 2 7 4 15 4 8 0 15 -4 15 -10z m1341 -2053 c-10 -9 -11
-8 -5 6 3 10 9 15 12 12 3 -3 0 -11 -7 -18z m-1214 -369 c-3 -22 -4 -21 -11 4
-5 16 -5 36 0 45 7 16 8 15 11 -4 3 -13 3 -33 0 -45z m1053 -204 c0 -21 -4
-33 -10 -29 -5 3 -10 22 -10 41 0 21 4 33 10 29 6 -3 10 -22 10 -41z m268
-557 c-3 -29 -5 -25 -24 33 -11 36 -18 69 -15 75 9 17 42 -75 39 -108z m-453
-303 l16 -39 -21 24 c-11 13 -20 32 -20 44 0 26 6 20 25 -29z m482 -61 c-3
-10 -5 -2 -5 17 0 19 2 27 5 18 2 -10 2 -26 0 -35z m-458 -48 c-3 -50 2 -67
20 -72 14 -3 21 -17 26 -50 3 -24 22 -74 41 -110 25 -48 31 -69 23 -79 -7 -9
-6 -21 5 -43 9 -16 16 -43 16 -58 0 -15 3 -46 7 -68 l8 -40 6 45 c3 25 5 -17
5 -92 -1 -76 -4 -138 -8 -138 -5 0 -7 -72 -5 -159 1 -98 6 -159 12 -158 5 1
15 -27 21 -63 l10 -65 -31 -17 c-17 -9 -47 -19 -66 -23 l-36 -7 -7 48 c-3 26
-6 91 -6 145 0 54 -7 145 -15 201 -8 57 -16 164 -18 239 -1 98 -6 141 -16 153
-10 12 -12 30 -6 74 5 31 8 80 8 107 -1 67 -19 255 -28 280 -6 16 -3 15 14 -5
12 -14 21 -34 20 -45z m97 -201 l6 -29 -17 23 c-9 12 -18 39 -21 60 l-4 37 14
-31 c8 -17 18 -44 22 -60z m-119 -1 c-3 -10 -5 -4 -5 12 0 17 2 24 5 18 2 -7
2 -21 0 -30z m480 -105 c-2 -13 -4 -3 -4 22 0 25 2 35 4 23 2 -13 2 -33 0 -45z
m-817 -409 c0 -6 -4 -7 -10 -4 -5 3 -10 11 -10 16 0 6 5 7 10 4 6 -3 10 -11
10 -16z m315 -1369 c3 -5 1 -10 -4 -10 -6 0 -11 5 -11 10 0 6 2 10 4 10 3 0 8
-4 11 -10z"/>
<path d="M3150 12265 c0 -2 18 -14 40 -25 22 -11 40 -18 40 -15 0 2 -18 14
-40 25 -22 11 -40 18 -40 15z"/>
<path d="M2682 12123 c-31 -146 -22 -263 28 -370 34 -74 102 -150 162 -181 24
-13 32 -15 18 -5 -49 33 -120 113 -143 160 -55 108 -76 242 -58 362 13 84 8
107 -7 34z"/>
<path d="M3282 12138 c12 -18 37 -60 55 -93 21 -38 33 -52 33 -39 0 19 -93
164 -106 164 -3 0 5 -15 18 -32z"/>
<path d="M3370 11816 c0 -8 -9 -43 -20 -79 -16 -50 -33 -80 -73 -123 -28 -32
-43 -52 -32 -46 35 19 83 76 104 122 20 46 38 140 27 140 -3 0 -6 -6 -6 -14z"/>
<path d="M6685 10585 c11 -43 44 -119 44 -100 1 11 -10 43 -24 70 -14 28 -23
41 -20 30z"/>
<path d="M6706 10386 c-15 -66 -25 -85 -58 -118 -22 -22 -63 -51 -91 -64 -29
-13 -45 -24 -37 -24 31 1 100 40 139 80 44 45 74 120 69 172 -2 27 -7 18 -22
-46z"/>
<path d="M6438 10173 c12 -2 32 -2 45 0 12 2 2 4 -23 4 -25 0 -35 -2 -22 -4z"/>
<path d="M2291 345 c0 -5 6 -21 14 -35 8 -14 14 -20 14 -15 0 6 -6 21 -14 35
-8 14 -14 21 -14 15z"/>
</g>
</svg>
