<?xml version="1.0" standalone="no"?>
<!DOCTYPE svg PUBLIC "-//W3C//DTD SVG 20010904//EN"
 "http://www.w3.org/TR/2001/REC-SVG-20010904/DTD/svg10.dtd">
<svg version="1.0" xmlns="http://www.w3.org/2000/svg"
 width="872.000000pt" height="1280.000000pt" viewBox="0 0 872.000000 1280.000000"
 preserveAspectRatio="xMidYMid meet">
<metadata>
Created by potrace 1.15, written by Peter Selinger 2001-2017
</metadata>
<g transform="translate(0.000000,1280.000000) scale(0.100000,-0.100000)"
fill="#000000" stroke="none">
<path d="M6555 12750 c133 -930 -271 -1968 -1095 -2814 -363 -374 -750 -658
-1185 -871 -359 -176 -675 -272 -1009 -305 -59 -6 -111 -9 -114 -6 -3 3 0 12
6 19 18 21 42 127 42 183 0 107 -66 288 -124 343 l-23 22 0 -98 c0 -78 -6
-114 -27 -179 -91 -281 -431 -559 -759 -621 -43 -8 -81 -13 -83 -10 -3 3 0 26
7 52 26 104 -10 377 -64 480 l-21 40 -8 -94 c-15 -190 -74 -348 -170 -455 -62
-70 -107 -99 -184 -122 -66 -19 -198 -15 -249 7 -175 77 -211 230 -103 444 97
192 300 406 472 496 98 51 275 172 356 242 80 68 160 163 203 237 35 61 60
160 50 200 l-8 31 -50 -77 c-61 -93 -151 -179 -225 -213 -57 -26 -181 -40
-236 -27 l-27 7 34 25 c19 13 58 48 88 77 212 205 311 603 206 823 l-23 49 -1
-36 c-4 -195 -115 -349 -302 -420 -28 -11 -53 -18 -55 -16 -2 2 7 19 21 39 82
121 124 245 132 389 7 135 -12 227 -73 348 -42 85 -85 142 -71 96 15 -49 28
-194 22 -239 -14 -113 -66 -197 -160 -261 -56 -39 -75 -42 -56 -8 5 11 17 59
27 109 21 113 14 291 -16 414 -30 124 -105 271 -178 350 l-60 65 31 -90 c36
-107 48 -269 27 -364 -39 -179 -182 -362 -393 -506 -68 -45 -89 -55 -124 -55
-81 0 -133 74 -133 190 l0 53 -26 -24 c-57 -54 -113 -231 -97 -310 6 -31 -18
-50 -68 -51 -41 -1 -72 31 -93 99 -21 64 -27 60 -46 -31 -10 -50 -9 -76 5
-165 13 -84 15 -115 6 -148 -14 -52 -61 -103 -94 -103 -39 0 -51 23 -44 86 l6
56 -24 -22 c-39 -36 -59 -101 -52 -168 3 -31 8 -64 12 -73 7 -19 -32 -33 -60
-23 -24 9 -45 58 -45 104 0 57 -14 50 -35 -20 -15 -49 -17 -79 -11 -177 l7
-118 -64 -92 c-71 -102 -108 -178 -132 -268 -22 -84 -19 -144 11 -231 30 -85
29 -124 -5 -254 -24 -88 -19 -98 50 -107 35 -5 53 -16 94 -57 42 -42 57 -68
88 -151 54 -145 67 -167 111 -189 38 -19 40 -19 165 5 176 33 331 33 419 0 89
-34 159 -100 211 -201 93 -177 90 -333 -9 -518 -47 -88 -154 -207 -306 -339
-195 -169 -235 -224 -236 -317 -1 -117 73 -192 437 -441 746 -512 939 -706
1054 -1065 17 -52 46 -156 66 -230 111 -418 214 -622 424 -842 100 -104 169
-161 426 -352 164 -121 254 -196 425 -351 139 -126 487 -476 715 -720 337
-359 535 -563 669 -687 551 -513 1012 -1042 1231 -1413 30 -50 88 -175 129
-279 132 -326 237 -506 296 -506 11 0 27 11 36 25 22 34 15 102 -35 314 -76
322 -77 424 -6 747 28 124 31 178 13 237 -25 83 -63 103 -318 162 -131 30
-252 83 -326 143 -111 88 -224 274 -359 592 -110 260 -205 401 -394 590 -132
132 -230 208 -526 410 -267 182 -356 251 -479 369 -115 112 -190 205 -313 391
-182 273 -357 583 -569 1004 -314 623 -394 711 -780 860 -187 72 -349 190
-564 412 -198 204 -259 309 -260 444 0 171 109 271 262 239 77 -16 127 -49
192 -126 99 -117 267 -282 361 -353 155 -117 335 -204 515 -249 147 -36 432
-73 400 -51 -8 5 -23 10 -32 10 -39 0 -243 76 -363 135 -271 134 -416 295
-417 464 -1 181 130 289 316 260 89 -15 162 -49 313 -146 280 -181 481 -279
902 -439 449 -171 513 -200 618 -278 34 -25 90 -80 125 -122 60 -74 131 -125
149 -107 4 4 -5 37 -21 73 -43 94 -40 124 15 176 57 56 153 86 352 114 318 44
373 56 373 80 0 24 -93 30 -461 28 -434 -3 -461 0 -712 82 -367 121 -820 479
-957 757 -47 94 -56 154 -41 257 39 260 225 409 491 393 149 -8 257 -59 390
-184 42 -40 100 -106 129 -148 89 -129 184 -351 222 -519 27 -121 51 7 55 289
2 121 6 234 9 251 7 38 66 96 125 123 52 24 172 29 217 9 61 -26 115 -72 155
-131 143 -214 452 -398 773 -463 112 -22 354 -30 468 -14 90 12 148 29 101 30
-38 0 -296 69 -376 99 -219 85 -344 183 -378 296 -25 83 26 166 119 194 107
32 275 -3 448 -93 l102 -54 -40 54 c-108 142 -105 249 11 364 90 90 168 126
576 264 383 129 496 172 669 255 245 117 430 244 585 400 179 181 292 372 361
610 10 36 15 60 11 55 -4 -5 -26 -31 -47 -59 -83 -106 -154 -181 -252 -266
-308 -266 -706 -457 -1238 -594 -184 -47 -479 -109 -496 -103 -5 2 30 20 78
41 428 181 883 538 1162 912 235 315 381 671 381 927 l0 73 -35 -83 c-236
-574 -895 -1104 -1754 -1411 -214 -77 -222 -76 -113 6 162 123 323 267 487
434 284 290 482 561 644 879 170 333 253 629 254 905 1 122 -17 275 -31 275
-4 0 -20 -51 -36 -112 -186 -732 -611 -1292 -1192 -1570 -93 -44 -327 -128
-358 -128 -8 0 13 40 49 95 300 454 488 970 567 1555 20 147 17 568 -5 710
-37 238 -103 466 -182 625 -35 70 -44 82 -40 55z"/>
</g>
</svg>
