<?xml version="1.0" encoding="UTF-8" standalone="no"?>
<!-- Created with Inkscape (http://www.inkscape.org/) -->

<svg
   xmlns:dc="http://purl.org/dc/elements/1.1/"
   xmlns:cc="http://creativecommons.org/ns#"
   xmlns:rdf="http://www.w3.org/1999/02/22-rdf-syntax-ns#"
   xmlns:svg="http://www.w3.org/2000/svg"
   xmlns="http://www.w3.org/2000/svg"
   xmlns:sodipodi="http://sodipodi.sourceforge.net/DTD/sodipodi-0.dtd"
   xmlns:inkscape="http://www.inkscape.org/namespaces/inkscape"
   width="23.755989mm"
   height="35.304962mm"
   viewBox="0 0 84.174764 125.09631"
   id="svg5223"
   version="1.1"
   inkscape:version="0.91 r13725"
   sodipodi:docname="mix-and-match-characters9.svg">
  <defs
     id="defs5225" />
  <sodipodi:namedview
     id="base"
     pagecolor="#ffffff"
     bordercolor="#666666"
     borderopacity="1.0"
     inkscape:pageopacity="0.0"
     inkscape:pageshadow="2"
     inkscape:zoom="0.98994949"
     inkscape:cx="48.129154"
     inkscape:cy="61.847353"
     inkscape:document-units="px"
     inkscape:current-layer="layer1"
     showgrid="false"
     fit-margin-top="0"
     fit-margin-left="0"
     fit-margin-right="0"
     fit-margin-bottom="0"
     inkscape:window-width="1615"
     inkscape:window-height="1026"
     inkscape:window-x="1985"
     inkscape:window-y="24"
     inkscape:window-maximized="1" />
  <metadata
     id="metadata5228">
    <rdf:RDF>
      <cc:Work
         rdf:about="">
        <dc:format>image/svg+xml</dc:format>
        <dc:type
           rdf:resource="http://purl.org/dc/dcmitype/StillImage" />
        <dc:title></dc:title>
      </cc:Work>
    </rdf:RDF>
  </metadata>
  <g
     inkscape:label="Layer 1"
     inkscape:groupmode="layer"
     id="layer1"
     transform="translate(-222.20012,-406.89028)">
    <g
       transform="translate(222.20026,102.69065)"
       id="g5588">
      <rect
         id="rect3449-5-9"
         rx="5.6687002"
         ry="4.6244998"
         transform="matrix(0.90081952,0.43419372,-0.43419372,0.90081952,0,0)"
         width="12.829"
         y="350.87738"
         x="173.30244"
         height="9.5473003"
         style="fill:#ab926c;fill-rule:evenodd;stroke:#060000;stroke-width:1.34259999;stroke-linecap:round;stroke-linejoin:round" />
      <rect
         id="rect3449-0-4-3"
         rx="5.6687183"
         ry="4.6245146"
         transform="matrix(-0.90081716,0.43419863,0.43419863,0.90081716,0,0)"
         width="12.829041"
         y="387.26926"
         x="96.770889"
         height="9.5473309"
         style="fill:#ab926c;fill-rule:evenodd;stroke:#060000;stroke-width:1.34259999;stroke-linecap:round;stroke-linejoin:round" />
      <rect
         id="rect3252-4-6-2-2-1-2-7"
         rx="5.9832945"
         ry="17.522984"
         transform="matrix(-0.89930089,-0.43733043,-0.43733043,0.89930089,0,0)"
         width="24.502975"
         y="315.54288"
         x="-193.86224"
         height="39.318962"
         style="fill:#db2944;fill-rule:evenodd;stroke:#000000;stroke-width:1.56710005;stroke-linecap:round;stroke-linejoin:round" />
      <rect
         id="rect3252-6-7-2-7-1-6-3-1-15"
         rx="26.469999"
         ry="9.1274109"
         transform="matrix(1,-7.4216e-5,0.0014835,0.9999989,0,0)"
         width="53.866001"
         y="392.75034"
         x="15.835532"
         height="33.167038"
         style="fill:#241d4a;fill-rule:evenodd;stroke:#000000;stroke-width:1.79009998;stroke-linecap:round;stroke-linejoin:round" />
      <path
         id="path3928-9-81-8-0-49-3-2-8"
         d="m 43.2777,424.55 -0.259,-10.19"
         inkscape:connector-curvature="0"
         style="fill:#ffffff;stroke:#000000;stroke-width:1.13510001;stroke-linecap:round;stroke-linejoin:round" />
      <path
         id="path4010-7-1-8-9-8-8-6-8"
         d="m 45.8507,426.86 c 0,0 0.20132,-8.0789 9.1546,-8.5178 12.044,-0.59047 13.607,7.2787 13.607,7.2787 1.0738,2.3466 -22.857,4.5427 -22.761,1.2391 z"
         inkscape:connector-curvature="0"
         style="fill:#3f432a;stroke:#000000;stroke-width:1.51139998" />
      <path
         id="path4010-1-9-1-1-1-9-9-3-87"
         d="m 40.6607,426.87 c 0,0 -0.20295,-7.7114 -9.2297,-8.1304 -12.143,-0.56361 -13.718,6.9476 -13.718,6.9476 -1.0825,2.2399 23.044,4.3361 22.948,1.1827 z"
         inkscape:connector-curvature="0"
         style="fill:#3f432a;stroke:#000000;stroke-width:1.51139998" />
      <rect
         id="rect3252-71-0-6-4-3-4"
         rx="5.9833002"
         ry="17.523001"
         transform="matrix(0.89929842,-0.43733552,0.43733552,0.89929842,0,0)"
         width="24.503"
         y="351.1748"
         x="-119.94617"
         height="39.319"
         style="fill:#db2944;fill-rule:evenodd;stroke:#000000;stroke-width:1.56710005;stroke-linecap:round;stroke-linejoin:round" />
      <path
         id="path3932-5-3-8-0-8-51-1-3-9"
         d="m 42.5577,350.4 c -0.09941,0 -0.19907,0.009 -0.29828,0.009 l -0.43183,0 0,0.0224 c -6.6554,0.37736 -12.821,4.5148 -16.953,9.7383 -8.8562,11.122 -12.234,25.77 -12.532,39.826 0.23267,3.6052 -0.44717,7.933 1.0195,11.059 5.3293,3.3865 14.727,3.9533 21.133,4.7448 1.7001,0.0788 4.4004,0.1006 7.3322,0.11752 l 0,0.009 0.90372,0 c 0.0299,-9e-5 0.05916,1.8e-4 0.08906,0 2.9318,-0.017 5.6321,-0.0385 7.3322,-0.11752 6.4062,-0.7915 15.804,-1.3583 21.133,-4.7448 1.4667,-3.1261 0.78681,-7.4539 1.0195,-11.059 -0.29814,-14.056 -3.6757,-28.704 -12.532,-39.826 -4.1318,-5.2235 -10.297,-9.3611 -16.953,-9.7383 l 0,-0.0313 -0.26266,0 z"
         inkscape:connector-curvature="0"
         style="fill:#db2944;fill-rule:evenodd;stroke:#000000;stroke-width:1.88510001;stroke-linecap:round;stroke-linejoin:round" />
      <rect
         id="rect4240-8-9-5-7"
         rx="29.983999"
         ry="25.957001"
         height="53.703999"
         width="62.653999"
         y="313.81998"
         x="10.5397"
         style="fill:#ab926c;fill-rule:evenodd;stroke:#000000;stroke-width:1.79009998;stroke-linecap:round;stroke-linejoin:bevel" />
      <path
         id="path3920-8-1-6-7-4-10-3"
         d="m 36.607418,319.60673 c -2.490826,1.48482 -3.139823,4.82563 -1.679581,7.26045 1.711627,2.85391 5.546647,3.59484 8.338327,1.9109 3.25696,-1.96472 4.09994,-6.34949 2.166329,-9.53769 -2.246131,-3.70357 -7.240696,-4.65902 -10.868355,-2.44774 -4.196698,2.55819 -5.276129,8.2271 -2.756835,12.34011 2.903217,4.73976 9.315867,5.95546 13.963688,3.09549 5.336486,-3.28372 6.701525,-10.51446 3.465877,-15.75045 -0.620218,-1.00361 -1.387766,-1.91479 -2.268842,-2.69928"
         inkscape:connector-curvature="0"
         style="fill:#a79151;stroke:#000000;stroke-width:1.40004003;stroke-linecap:round;stroke-linejoin:round" />
      <path
         id="path3920-6-93-3-4-1-7-0-2"
         d="m 22.60413,317.96121 c -1.663006,-0.99793 -2.09631,-3.24325 -1.121376,-4.87967 1.142772,-1.91807 3.703232,-2.41604 5.567104,-1.28429 2.174517,1.32047 2.737334,4.26742 1.446354,6.41017 -1.499634,2.48913 -4.834268,3.13127 -7.256283,1.6451 -2.801935,-1.71933 -3.522619,-5.52934 -1.840607,-8.29364 1.93834,-3.18554 6.21976,-4.0026 9.322889,-2.08044 3.562918,2.20694 4.474289,7.06664 2.314001,10.58568 -0.41409,0.67452 -0.926545,1.28691 -1.514798,1.81416"
         inkscape:connector-curvature="0"
         style="fill:#a79151;stroke:#000000;stroke-width:1.39998651;stroke-linecap:round;stroke-linejoin:round" />
      <path
         id="path3920-7-7-473-9-4-9-2-9-0"
         d="m 41.01727,314.41121 c 1.663006,-0.99793 2.09631,-3.24325 1.121376,-4.87967 -1.142772,-1.91807 -3.703232,-2.41604 -5.567104,-1.28429 -2.174517,1.32047 -2.737334,4.26742 -1.446354,6.41017 1.499634,2.48913 4.834268,3.13127 7.256283,1.6451 2.801935,-1.71933 3.522619,-5.52934 1.840607,-8.29364 -1.93834,-3.18554 -6.21976,-4.0026 -9.322889,-2.08044 -3.562918,2.20694 -4.474289,7.06664 -2.314001,10.58568 0.41409,0.67452 0.926545,1.28691 1.514798,1.81416"
         inkscape:connector-curvature="0"
         style="fill:#a79151;stroke:#000000;stroke-width:1.39998651;stroke-linecap:round;stroke-linejoin:round" />
      <path
         id="path3920-7-6-4-7-8-6-8-7-2-3"
         d="m 71.259868,325.51266 c 1.398136,-0.72643 1.762427,-2.36086 0.942773,-3.55205 -0.96076,-1.39622 -3.113411,-1.75871 -4.68042,-0.93488 -1.828176,0.96121 -2.301353,3.10638 -1.21599,4.66615 1.260785,1.81191 4.064304,2.27935 6.100559,1.19752 2.355665,-1.25155 2.961565,-4.02497 1.54745,-6.03718 -1.629616,-2.31885 -5.229126,-2.91361 -7.838013,-1.51442 -2.995444,1.6065 -3.761659,5.14401 -1.945445,7.70563 0.348137,0.491 0.778973,0.93678 1.273533,1.32058"
         inkscape:connector-curvature="0"
         style="fill:#a79151;stroke:#000000;stroke-width:1.40000618;stroke-linecap:round;stroke-linejoin:round" />
      <path
         id="path3920-7-6-47-3-3-9-9-4-1-4"
         d="m 14.828532,320.68266 c -1.398136,-0.72643 -1.762427,-2.36086 -0.942773,-3.55205 0.96076,-1.39622 3.113411,-1.75871 4.68042,-0.93488 1.828176,0.96121 2.301353,3.10638 1.21599,4.66615 -1.260785,1.81191 -4.064304,2.27935 -6.100559,1.19752 -2.355665,-1.25155 -2.961565,-4.02497 -1.54745,-6.03718 1.629616,-2.31885 5.229126,-2.91361 7.838013,-1.51442 2.995444,1.6065 3.761659,5.14401 1.945445,7.70563 -0.348137,0.491 -0.778973,0.93678 -1.273533,1.32058"
         inkscape:connector-curvature="0"
         style="fill:#a79151;stroke:#000000;stroke-width:1.40000618;stroke-linecap:round;stroke-linejoin:round" />
      <path
         id="path3920-7-7-5-27-8-9-3-5-2-3"
         d="m 48.81413,314.92121 c -1.663006,-0.99793 -2.09631,-3.24325 -1.121376,-4.87967 1.142772,-1.91807 3.703232,-2.41604 5.567104,-1.28429 2.174517,1.32047 2.737334,4.26742 1.446354,6.41017 -1.499634,2.48913 -4.834268,3.13127 -7.256283,1.6451 -2.801935,-1.71933 -3.522619,-5.52934 -1.840607,-8.29364 1.93834,-3.18554 6.21976,-4.0026 9.322889,-2.08044 3.562918,2.20694 4.474289,7.06664 2.314001,10.58568 -0.41409,0.67452 -0.926545,1.28691 -1.514798,1.81416"
         inkscape:connector-curvature="0"
         style="fill:#a79151;stroke:#000000;stroke-width:1.39998651;stroke-linecap:round;stroke-linejoin:round" />
      <path
         id="path3920-7-7-50-9-4-5-7-3-5-9"
         d="m 59.20213,319.99121 c -1.663006,-0.99793 -2.09631,-3.24325 -1.121376,-4.87967 1.142772,-1.91807 3.703232,-2.41604 5.567104,-1.28429 2.174517,1.32047 2.737334,4.26742 1.446354,6.41017 -1.499634,2.48913 -4.834267,3.13127 -7.256283,1.64509 -2.801935,-1.71932 -3.522619,-5.52933 -1.840607,-8.29363 1.93834,-3.18554 6.21976,-4.0026 9.322889,-2.08044 3.562918,2.20694 4.474289,7.06664 2.314001,10.58568 -0.41409,0.67452 -0.926545,1.28691 -1.514798,1.81416"
         inkscape:connector-curvature="0"
         style="fill:#a79151;stroke:#000000;stroke-width:1.39998651;stroke-linecap:round;stroke-linejoin:round" />
      <g
         id="g5029-1-0"
         transform="matrix(0.15556,0,0,0.15556,90.6107,223.98)">
        <path
           id="path3781-5-5-2-9-8-5-8-5"
           transform="matrix(1.3779,0,0,1.6723,107.4,313.76)"
           d="m -232.94,259.59 c 0,5.5748 -4.6931,10.094 -10.482,10.094 -5.7892,0 -10.482,-4.5192 -10.482,-10.094 0,-5.5748 4.6931,-10.094 10.482,-10.094 5.7892,0 10.482,4.5192 10.482,10.094 z"
           inkscape:connector-curvature="0"
           style="fill-rule:evenodd" />
        <path
           id="path3781-5-5-9-9-0-9-4-18-4"
           transform="matrix(1.3779,0,0,1.6723,-36.599,318.26)"
           d="m -232.94,259.59 c 0,5.5748 -4.6931,10.094 -10.482,10.094 -5.7892,0 -10.482,-4.5192 -10.482,-10.094 0,-5.5748 4.6931,-10.094 10.482,-10.094 5.7892,0 10.482,4.5192 10.482,10.094 z"
           inkscape:connector-curvature="0"
           style="fill-rule:evenodd" />
        <path
           id="path4438-6-3-3-1-3"
           d="m -423.59,741.68 71.43,-0.6404"
           inkscape:connector-curvature="0"
           style="fill:none;stroke:#000000;stroke-width:12.64900017;stroke-linecap:round;stroke-linejoin:round" />
        <path
           id="path4438-6-6-0-4-2-9"
           d="m -280.72,737.68 71.43,-0.6404"
           inkscape:connector-curvature="0"
           style="fill:none;stroke:#000000;stroke-width:12.64900017;stroke-linecap:round;stroke-linejoin:round" />
        <path
           id="path4909-9-4-8"
           d="m -377,833.36 42,6"
           inkscape:connector-curvature="0"
           style="fill:none;stroke:#000000;stroke-width:11;stroke-linecap:round;stroke-linejoin:round" />
      </g>
    </g>
  </g>
</svg>
