<?xml version="1.0" encoding="UTF-8"?>
<!DOCTYPE svg PUBLIC "-//W3C//DTD SVG 1.1//EN" "http://www.w3.org/Graphics/SVG/1.1/DTD/svg11.dtd">
<svg version="1.1" xmlns="http://www.w3.org/2000/svg" xmlns:xlink="http://www.w3.org/1999/xlink" x="0" y="0" width="807.873" height="765.354" viewBox="0, 0, 807.873, 765.354">
  <defs>
    <clipPath id="Clip_1">
      <path d="M793.122,3.762 L793.122,765.354 L10.53,765.354 L10.53,3.762 L793.122,3.762 z"/>
    </clipPath>
  </defs>
  <g id="Layer_1">
    <g clip-path="url(#Clip_1)">
      <path d="M634.752,750.822 C634.752,750.822 622.809,761.328 616.11,772.437 L597.888,661.224 L636.252,677.076 z M386.43,750.822 L384.93,677.076 L423.102,661.302 L404.931,772.194 C398.205,761.175 386.43,750.822 386.43,750.822 M736.914,324.132 C736.941,318.084 736.755,312.03 736.374,305.982 C740.214,295.668 788.82,157.455 662.172,88.902 C662.172,88.902 618.522,0.438 438.549,41.991 C415.14,45.015 374.874,47.217 344.868,33.009 C344.868,33.009 339.249,52.791 365.889,68.937 C240.585,142.257 290.121,307.017 290.121,307.017 C290.121,307.017 290.358,305.016 290.949,301.506 C290.43,307.875 290.124,314.259 290.061,320.634 C272.148,325.233 254.514,337.965 254.334,370.317 C254.145,404.184 273.198,422.004 312.384,426.663 C338.475,481.878 387.765,525.567 462.138,539.397 C452.814,541.749 444.882,544.455 439.233,546.939 L439.212,546.672 C439.212,546.672 437.949,547.227 435.051,548.958 C433.779,549.642 432.729,550.29 431.931,550.893 C431.424,551.217 430.92,551.538 430.35,551.91 C410.067,565.107 342.936,619.854 329.229,647.451 C320.139,665.757 334.974,719.913 358.89,765.909 C358.794,766.014 358.701,766.098 358.605,766.206 C342.828,783.66 357.381,801.756 357.381,801.756 C357.381,801.756 359.382,819.756 379.005,821.427 C387.213,822.129 393.495,818.598 398.202,813.264 L386.595,884.094 L394.116,884.094 C391.623,891.057 389.229,898.14 386.943,905.271 L386.595,905.502 C386.697,905.472 386.796,905.433 386.901,905.406 C364.398,975.711 352.245,1050.108 352.245,1050.108 L372.423,1055.988 L366.435,1084.791 L366.075,1084.689 L334.452,1235.607 L337.518,1236.741 C329.475,1236.441 321.339,1237.74 314.433,1242.054 C308.775,1245.591 305.385,1248.798 303.375,1251.558 L303.369,1251.558 C292.308,1261.05 295.467,1267.893 295.467,1267.893 L359.262,1291.119 L361.776,1284.399 L375.597,1247.427 C375.597,1247.427 375.447,1247.349 375.168,1247.205 L426.297,1101.531 L426.291,1101.528 L435.882,1074.483 L452.283,1079.262 L485.928,981.864 L499.674,927.867 L500.064,978.141 L504.537,1081.083 L527.559,1081.212 L529.344,1109.565 L529.338,1109.565 L538.269,1259.262 L538.068,1295.346 L538.029,1302.522 L605.91,1303.485 C605.91,1303.485 611.304,1298.214 604.326,1285.404 C603.426,1282.107 601.398,1277.91 597.366,1272.594 C593.187,1267.08 587.406,1263.282 581.082,1260.678 L591.87,1109.892 L591.495,1109.889 L593.562,1081.581 L608.736,1081.668 C608.736,1081.668 618.297,1006.896 616.779,933.093 C616.866,933.153 616.953,933.21 617.043,933.267 L616.773,932.946 C616.428,916.32 615.525,899.751 613.815,884.094 L634.407,884.094 L622.761,813.027 C627.489,818.499 633.843,822.138 642.177,821.427 C661.8,819.756 663.801,801.756 663.801,801.756 C663.801,801.756 678.351,783.66 662.574,766.206 C662.478,766.098 662.388,766.014 662.289,765.909 C686.205,719.913 701.043,665.757 691.95,647.451 C678.246,619.854 611.112,565.107 590.829,551.91 C590.268,551.541 589.773,551.226 589.269,550.905 C588.459,550.293 587.4,549.636 586.104,548.94 C583.221,547.221 581.967,546.672 581.967,546.672 L581.949,546.936 C576.84,544.692 569.862,542.265 561.681,540.078 C636.819,527.196 686.898,483.735 713.628,428.403 C750.39,423.489 768.507,405.99 768.693,373.197 C768.864,342.9 753.531,329.64 736.914,324.132" fill="#666666"/>
      <path d="M634.752,750.822 C634.752,750.822 622.809,761.328 616.11,772.437 L597.888,661.224 L636.252,677.076 L634.752,750.822 z M386.43,750.822 L384.93,677.076 L423.102,661.302 L404.931,772.194 C398.205,761.175 386.43,750.822 386.43,750.822 z M736.914,324.132 C736.941,318.084 736.755,312.03 736.374,305.982 C740.214,295.668 788.82,157.455 662.172,88.902 C662.172,88.902 618.522,0.438 438.549,41.991 C415.14,45.015 374.874,47.217 344.868,33.009 C344.868,33.009 339.249,52.791 365.889,68.937 C240.585,142.257 290.121,307.017 290.121,307.017 C290.121,307.017 290.358,305.016 290.949,301.506 C290.43,307.875 290.124,314.259 290.061,320.634 C272.148,325.233 254.514,337.965 254.334,370.317 C254.145,404.184 273.198,422.004 312.384,426.663 C338.475,481.878 387.765,525.567 462.138,539.397 C452.814,541.749 444.882,544.455 439.233,546.939 L439.212,546.672 C439.212,546.672 437.949,547.227 435.051,548.958 C433.779,549.642 432.729,550.29 431.931,550.893 C431.424,551.217 430.92,551.538 430.35,551.91 C410.067,565.107 342.936,619.854 329.229,647.451 C320.139,665.757 334.974,719.913 358.89,765.909 C358.794,766.014 358.701,766.098 358.605,766.206 C342.828,783.66 357.381,801.756 357.381,801.756 C357.381,801.756 359.382,819.756 379.005,821.427 C387.213,822.129 393.495,818.598 398.202,813.264 L386.595,884.094 L394.116,884.094 C391.623,891.057 389.229,898.14 386.943,905.271 L386.595,905.502 C386.697,905.472 386.796,905.433 386.901,905.406 C364.398,975.711 352.245,1050.108 352.245,1050.108 L372.423,1055.988 L366.435,1084.791 L366.075,1084.689 L334.452,1235.607 L337.518,1236.741 C329.475,1236.441 321.339,1237.74 314.433,1242.054 C308.775,1245.591 305.385,1248.798 303.375,1251.558 L303.369,1251.558 C292.308,1261.05 295.467,1267.893 295.467,1267.893 L359.262,1291.119 L361.776,1284.399 L375.597,1247.427 C375.597,1247.427 375.447,1247.349 375.168,1247.205 L426.297,1101.531 L426.291,1101.528 L435.882,1074.483 L452.283,1079.262 L485.928,981.864 L499.674,927.867 L500.064,978.141 L504.537,1081.083 L527.559,1081.212 L529.344,1109.565 L529.338,1109.565 L538.269,1259.262 L538.068,1295.346 L538.029,1302.522 L605.91,1303.485 C605.91,1303.485 611.304,1298.214 604.326,1285.404 C603.426,1282.107 601.398,1277.91 597.366,1272.594 C593.187,1267.08 587.406,1263.282 581.082,1260.678 L591.87,1109.892 L591.495,1109.889 L593.562,1081.581 L608.736,1081.668 C608.736,1081.668 618.297,1006.896 616.779,933.093 C616.866,933.153 616.953,933.21 617.043,933.267 L616.773,932.946 C616.428,916.32 615.525,899.751 613.815,884.094 L634.407,884.094 L622.761,813.027 C627.489,818.499 633.843,822.138 642.177,821.427 C661.8,819.756 663.801,801.756 663.801,801.756 C663.801,801.756 678.351,783.66 662.574,766.206 C662.478,766.098 662.388,766.014 662.289,765.909 C686.205,719.913 701.043,665.757 691.95,647.451 C678.246,619.854 611.112,565.107 590.829,551.91 C590.268,551.541 589.773,551.226 589.269,550.905 C588.459,550.293 587.4,549.636 586.104,548.94 C583.221,547.221 581.967,546.672 581.967,546.672 L581.949,546.936 C576.84,544.692 569.862,542.265 561.681,540.078 C636.819,527.196 686.898,483.735 713.628,428.403 C750.39,423.489 768.507,405.99 768.693,373.197 C768.864,342.9 753.531,329.64 736.914,324.132 z" fill-opacity="0" stroke="#666666" stroke-width="24" stroke-linecap="round" stroke-linejoin="round"/>
      <path d="M198.159,266.292 C211.524,257.667 230.592,240.741 230.622,214.302 C230.67,173.583 167.145,168.147 154.734,198.051 C154.734,198.051 132.183,153.867 95.922,167.754 C59.661,181.641 75.15,217.056 75.15,217.056 C75.15,217.056 21.102,217.269 31.398,265.008 C41.697,312.747 75.912,322.212 97.14,312.318 C97.14,312.318 112.515,337.881 138.162,328.944 C147.105,325.827 153.009,320.985 156.909,315.999" fill-opacity="0" stroke="#F3B6C2" stroke-width="18" stroke-linecap="round" stroke-linejoin="round"/>
      <path d="M152.973,276.648 L210.897,324.858" fill-opacity="0" stroke="#F3B6C2" stroke-width="18" stroke-linecap="round" stroke-linejoin="round"/>
      <path d="M590.388,551.865 C584.784,545.955 547.803,533.055 510.807,533.187 C510.771,533.184 510.735,533.184 510.699,533.184 L510.591,533.184 L510.483,533.184 C510.447,533.184 510.414,533.184 510.378,533.187 C473.382,533.055 436.401,545.955 430.797,551.865 L433.977,633.633 L510.591,634.059 L587.205,633.633 z" fill="#FFC46B"/>
      <path d="M590.388,551.865 C584.784,545.955 547.803,533.055 510.807,533.187 C510.771,533.184 510.735,533.184 510.699,533.184 L510.591,533.184 L510.483,533.184 C510.447,533.184 510.414,533.184 510.378,533.187 C473.382,533.055 436.401,545.955 430.797,551.865 L433.977,633.633 L510.591,634.059 L587.205,633.633 L590.388,551.865 z" fill-opacity="0" stroke="#666666" stroke-width="12" stroke-linecap="round" stroke-linejoin="round"/>
      <path d="M581.967,546.672 C581.967,546.672 584.478,547.749 590.829,551.91 C611.112,565.107 678.246,619.854 691.95,647.451 C701.229,666.135 685.59,722.172 660.801,768.756 L634.752,750.822 L636.252,677.076 L574.527,651.57" fill="#FFC46B"/>
      <path d="M581.967,546.672 C581.967,546.672 584.478,547.749 590.829,551.91 C611.112,565.107 678.246,619.854 691.95,647.451 C701.229,666.135 685.59,722.172 660.801,768.756 L634.752,750.822 L636.252,677.076 L574.527,651.57" fill-opacity="0" stroke="#666666" stroke-width="12" stroke-linecap="round" stroke-linejoin="round"/>
      <path d="M634.752,750.822 C634.752,750.822 609.798,772.758 611.799,786.756 C613.8,800.754 622.554,823.101 642.177,821.427 C661.8,819.756 663.801,801.756 663.801,801.756 C663.801,801.756 678.351,783.66 662.574,766.206 C646.8,748.755 634.752,750.822 634.752,750.822" fill="#FFECD0"/>
      <path d="M634.752,750.822 C634.752,750.822 609.798,772.758 611.799,786.756 C613.8,800.754 622.554,823.101 642.177,821.427 C661.8,819.756 663.801,801.756 663.801,801.756 C663.801,801.756 678.351,783.66 662.574,766.206 C646.8,748.755 634.752,750.822 634.752,750.822 z" fill-opacity="0" stroke="#666666" stroke-width="12" stroke-linecap="round" stroke-linejoin="round"/>
      <path d="M439.212,546.672 C439.212,546.672 436.701,547.749 430.35,551.91 C410.067,565.107 342.936,619.854 329.229,647.451 C319.95,666.135 335.589,722.172 360.381,768.756 L386.43,750.822 L384.93,677.076 L446.655,651.57" fill="#FFC46B"/>
      <path d="M439.212,546.672 C439.212,546.672 436.701,547.749 430.35,551.91 C410.067,565.107 342.936,619.854 329.229,647.451 C319.95,666.135 335.589,722.172 360.381,768.756 L386.43,750.822 L384.93,677.076 L446.655,651.57" fill-opacity="0" stroke="#666666" stroke-width="12" stroke-linecap="round" stroke-linejoin="round"/>
      <path d="M386.43,750.822 C386.43,750.822 411.384,772.758 409.383,786.756 C407.382,800.754 398.628,823.101 379.005,821.427 C359.382,819.756 357.381,801.756 357.381,801.756 C357.381,801.756 342.828,783.66 358.605,766.206 C374.382,748.755 386.43,750.822 386.43,750.822" fill="#FFECD0"/>
      <path d="M386.43,750.822 C386.43,750.822 411.384,772.758 409.383,786.756 C407.382,800.754 398.628,823.101 379.005,821.427 C359.382,819.756 357.381,801.756 357.381,801.756 C357.381,801.756 342.828,783.66 358.605,766.206 C374.382,748.755 386.43,750.822 386.43,750.822 z" fill-opacity="0" stroke="#666666" stroke-width="12" stroke-linecap="round" stroke-linejoin="round"/>
      <path d="M510.189,608.058 L538.662,553.674 L482.178,553.359 z" fill="#DEF3FF"/>
      <path d="M510.189,608.058 L538.662,553.674 L482.178,553.359 L510.189,608.058 z" fill-opacity="0" stroke="#666666" stroke-width="12" stroke-linecap="round" stroke-linejoin="round"/>
      <path d="M531.249,530.145 L527.67,489.918 L510.912,478.89 L494.037,489.729 L490.005,529.914 L476.376,536.283 C476.376,536.283 476.874,566.154 510.426,566.34 C543.975,566.529 544.809,536.667 544.809,536.667 z" fill="#FFECD0"/>
      <path d="M531.249,530.145 L527.67,489.918 L510.912,478.89 L494.037,489.729 L490.005,529.914 L476.376,536.283 C476.376,536.283 476.874,566.154 510.426,566.34 C543.975,566.529 544.809,536.667 544.809,536.667 L531.249,530.145 z" fill-opacity="0" stroke="#666666" stroke-width="12" stroke-linecap="round" stroke-linejoin="round"/>
      <path d="M327.546,319.845 C327.546,319.845 254.703,304.389 254.334,370.317 C254.118,409.104 279.126,426.849 330.735,427.875" fill="#FFECD0"/>
      <path d="M327.546,319.845 C327.546,319.845 254.703,304.389 254.334,370.317 C254.118,409.104 279.126,426.849 330.735,427.875" fill-opacity="0" stroke="#666666" stroke-width="12" stroke-linecap="round" stroke-linejoin="round"/>
      <path d="M282.105,374.04 C282.105,374.04 291.69,369.678 300.798,369.789" fill="#FFECD0"/>
      <path d="M282.105,374.04 C282.105,374.04 291.69,369.678 300.798,369.789" fill-opacity="0" stroke="#666666" stroke-width="12" stroke-linecap="round" stroke-linejoin="round"/>
      <path d="M696.051,321.912 C696.051,321.912 769.062,307.269 768.693,373.197 C768.471,411.984 743.271,429.447 691.656,429.897" fill="#FFECD0"/>
      <path d="M696.051,321.912 C696.051,321.912 769.062,307.269 768.693,373.197 C768.471,411.984 743.271,429.447 691.656,429.897" fill-opacity="0" stroke="#666666" stroke-width="12" stroke-linecap="round" stroke-linejoin="round"/>
      <path d="M740.886,376.611 C740.886,376.611 731.346,372.141 722.241,372.147" fill="#FFECD0"/>
      <path d="M740.886,376.611 C740.886,376.611 731.346,372.141 722.241,372.147" fill-opacity="0" stroke="#666666" stroke-width="12" stroke-linecap="round" stroke-linejoin="round"/>
      <path d="M512.241,544.014 C199.335,542.262 232.179,82.938 514.812,84.522 C797.439,86.103 825.144,545.766 512.241,544.014" fill="#FFECD0"/>
      <path d="M512.241,544.014 C199.335,542.262 232.179,82.938 514.812,84.522 C797.439,86.103 825.144,545.766 512.241,544.014 z" fill-opacity="0" stroke="#666666" stroke-width="12" stroke-linecap="round" stroke-linejoin="round"/>
      <path d="M390.357,144.381 C390.357,144.381 430.479,212.106 527.859,233.652 L519.261,161.601 C519.261,161.601 548.799,216.45 640.212,231.963 L631.626,186.231 C631.626,186.231 717.246,229.806 736.134,306.618 C736.134,306.618 793.776,160.14 662.172,88.902 C662.172,88.902 616.191,-4.356 423.912,45.567 C226.857,96.729 290.121,307.017 290.121,307.017 C290.121,307.017 303.072,194.892 390.357,144.381" fill="#997B5C"/>
      <path d="M390.357,144.381 C390.357,144.381 430.479,212.106 527.859,233.652 L519.261,161.601 C519.261,161.601 548.799,216.45 640.212,231.963 L631.626,186.231 C631.626,186.231 717.246,229.806 736.134,306.618 C736.134,306.618 793.776,160.14 662.172,88.902 C662.172,88.902 616.191,-4.356 423.912,45.567 C226.857,96.729 290.121,307.017 290.121,307.017 C290.121,307.017 303.072,194.892 390.357,144.381 z" fill-opacity="0" stroke="#666666" stroke-width="12" stroke-linecap="round" stroke-linejoin="round"/>
      <path d="M457.638,38.796 C457.638,38.796 389.751,54.261 344.868,33.009 C344.868,33.009 337.584,58.584 378.744,75.312" fill="#997B5C"/>
      <path d="M457.638,38.796 C457.638,38.796 389.751,54.261 344.868,33.009 C344.868,33.009 337.584,58.584 378.744,75.312" fill-opacity="0" stroke="#666666" stroke-width="12" stroke-linecap="round" stroke-linejoin="round"/>
      <path d="M617.412,346.887 C617.307,366.069 610.887,381.588 603.072,381.546 C595.266,381.504 589.02,365.913 589.125,346.728 C589.233,327.543 595.656,312.024 603.462,312.066 C611.277,312.111 617.52,327.702 617.412,346.887" fill="#666666"/>
      <path d="M405.615,345.699 C405.51,364.884 411.753,380.475 419.565,380.52 C427.374,380.562 433.797,365.04 433.902,345.858 C434.01,326.673 427.764,311.082 419.955,311.04 C412.143,310.995 405.723,326.517 405.615,345.699" fill="#666666"/>
      <path d="M502.938,403.197 C502.938,403.197 499.626,417.708 512.346,416.973" fill-opacity="0" stroke="#666666" stroke-width="12" stroke-linecap="round" stroke-linejoin="round"/>
      <path d="M430.611,615.468 L386.595,884.094 L634.407,884.094 L590.391,615.468" fill="#FFC46B"/>
      <path d="M430.611,615.468 L386.595,884.094 L634.407,884.094 L590.391,615.468" fill-opacity="0" stroke="#666666" stroke-width="12" stroke-linecap="round" stroke-linejoin="round"/>
      <path d="M545.463,439.053 C540.432,446.04 539.001,460.044 543.441,470.547" fill-opacity="0" stroke="#666666" stroke-width="12" stroke-linecap="round" stroke-linejoin="round"/>
      <path d="M479.586,456.486 C479.586,456.486 489.624,441.504 509.997,441.252" fill-opacity="0" stroke="#666666" stroke-width="12" stroke-linecap="round" stroke-linejoin="round"/>
      <path d="M540.408,456.486 C540.408,456.486 530.373,441.504 509.997,441.252" fill-opacity="0" stroke="#666666" stroke-width="12" stroke-linecap="round" stroke-linejoin="round"/>
      <path d="M404.091,266.16 C411.972,272.265 427.944,273.654 437.565,268.161" fill-opacity="0" stroke="#666666" stroke-width="12" stroke-linecap="round" stroke-linejoin="round"/>
      <path d="M618.933,266.16 C611.049,272.265 595.077,273.654 585.456,268.161" fill-opacity="0" stroke="#666666" stroke-width="12" stroke-linecap="round" stroke-linejoin="round"/>
    </g>
  </g>
</svg>
