<svg width="665" height="321" xmlns="http://www.w3.org/2000/svg">

 <g label="Layer 1" id="imagebot_3">
  <path transform="matrix(1, 0, 0, 1, 72.2369, -373.831)" label="Layer 1" opacity="0.893" stroke-linejoin="round" stroke="#ffffff" stroke-linecap="round" stroke-width="1.9411" fill="none" d="M322.42999,655.34998L321.83283,622.96997" id="imagebot_52"/>
  <path transform="matrix(1, 0, 0, 1, 72.2369, -373.831)" label="Layer 1" opacity="0.893" stroke-linejoin="round" stroke="#ffffff" stroke-linecap="round" stroke-width="1.9411" fill="none" d="M203.05,656.10999L202.45284,623.72998" id="imagebot_51"/>
  <path label="Layer 1" stroke-linejoin="round" fill-rule="evenodd" stroke="#000000" stroke-linecap="round" stroke-width="2" fill="#ffe0bd" d="M440.474,130.008 C457.151,147.726 409.329,167.261 403.924,155.536 S408.091,129.109 408.202,124.07 C407.585,117.462 438.969,98.8547 445.352,108.247 C453.11,116.589 445.89,123.044 440.474,130.008 z" id="imagebot_50"/>
  <path transform="rotate(249.953, 382.86, 155.115) translate(-14, -30)" label="Layer 1" stroke="#000000" stroke-width="1.9411" fill="#aad4ff" d="M424.467,226.019 C422.942,199.347 404.016,132.511 382.172,135.776 C360.329,139.042 371.261,204.422 378.32,229.469 C380.931,238.734 415.044,234.035 424.467,226.018 L424.467,226.019 z" id="imagebot_49"/>
  <path label="Layer 1" stroke-linejoin="round" fill-rule="evenodd" stroke="#000000" stroke-linecap="round" stroke-width="18.542" fill="#ffe0bd" transform="matrix(0.058114, 0.078447, -0.10381, 0.048447, 371.687, 311.719)" d="M-1064,429.35999C-1064,495.08199 -1124.889,548.35999 -1200,548.35999S-1336,495.08199 -1336,429.35999S-1275.111,310.35999 -1200,310.35999S-1064,363.63799 -1064,429.35999z" id="imagebot_48"/>
  <path label="Layer 1" stroke="#000000" stroke-width="1.9411" fill="#aad4ff" d="M236.317,226.329 C237.842,199.657 256.768,132.821 278.612,136.086 C300.455,139.352 289.523,204.732 282.464,229.779 C279.853,239.044 245.74,234.345 236.317,226.328 L236.317,226.329 z" id="imagebot_47"/>
  <path transform="matrix(1, 0, 0, 1, 72.2369, -373.831)" label="Layer 1" stroke-linejoin="round" fill-rule="evenodd" stroke="#000000" stroke-linecap="round" stroke-width="2.0179" fill="#00007f" d="M227.22,583.01 C192.651,583.615 193.304,621.716 194.965,669.02 C194.889,669.177 194.848,669.331 194.851,669.491 C194.854,669.657 194.911,669.829 195.001,669.991 C195.011,670.232 195.022,670.464 195.03,670.705 L195.666,670.689 C199.131,673.268 213.356,675.194 230.338,675.161 C249.619,675.124 265.237,672.585 265.557,669.477 L265.571,669.477 C265.57,669.441 265.57,669.407 265.569,669.37 C265.569,669.361 265.568,669.361 265.569,669.356 C265.569,669.346 265.569,669.346 265.568,669.341 C263.871,621.314 262.765,582.39 227.22,583.01 L227.22,583.01 z" id="imagebot_46"/>
  <path transform="matrix(1, 0, 0, 1, 72.2369, -373.831)" label="Layer 1" stroke-linejoin="round" fill-rule="evenodd" stroke="#000000" stroke-linecap="round" stroke-width="1.9586" fill="#00007f" d="M292.01,583.17 C324.569,582.359 325.61,620.451 326.103,667.779 C326.181,667.932 326.227,668.085 326.231,668.245 C326.235,668.411 326.189,668.585 326.112,668.751 C326.113,668.992 326.112,669.224 326.115,669.465 L325.516,669.475 C322.366,672.193 309.063,674.699 293.08,675.362 C274.933,676.114 260.124,674.217 259.688,671.125 L259.675,671.125 C259.674,671.089 259.673,671.055 259.672,671.019 C259.671,671.009 259.672,671.009 259.671,671.004 C259.671,670.994 259.671,670.994 259.671,670.989 C259.182,622.938 258.531,584.005 292.01,583.171 L292.01,583.17 z" id="imagebot_45"/>
  <path transform="rotate(254.246, 412.772, 141.883) matrix(1.0518, 0, 0, 1.0518, 202.48, -2379.47)" label="Layer 1" fill-rule="evenodd" fill="#ff7f00" d="M183.542,2405.2 C182.675,2405.01 181.246,2404.5 180.37,2404.08 C178.792,2403.32 178.765,2403.27 178.072,2399.62 C177.686,2397.58 177.37,2395.72 177.37,2395.48 C177.37,2395.19 178.018,2395.24 179.36,2395.64 C180.455,2395.96 183.342,2396.32 185.776,2396.44 C196.226,2396.95 209.295,2394.4 217.489,2390.23 C219.217,2389.35 220.698,2388.7 220.78,2388.78 C221.106,2389.08 222.668,2397.03 222.487,2397.47 C222.152,2398.29 215.82,2401.21 211.279,2402.64 C205.114,2404.58 197.769,2405.64 190.775,2405.59 C187.665,2405.57 184.411,2405.39 183.543,2405.2 L183.542,2405.2 z" id="imagebot_44"/>
  <path transform="translate(0.8) matrix(1.0518, 0, 0, 1.0518, 187.157, -2302.93)" label="Layer 1" fill-rule="evenodd" fill="#ff7f00" d="M84.222,2405.2 C85.0393,2405.01 86.3845,2404.5 87.2114,2404.08 C88.6972,2403.32 88.7226,2403.27 89.3757,2399.62 C89.7392,2397.58 90.0366,2395.72 90.0366,2395.48 C90.0366,2395.19 89.4262,2395.24 88.1621,2395.64 C87.1311,2395.96 84.4111,2396.32 82.1176,2396.44 C72.2725,2396.95 59.9606,2394.4 52.2416,2390.23 C50.6141,2389.35 49.219,2388.7 49.1413,2388.78 C48.8341,2389.08 47.3631,2397.03 47.5325,2397.47 C47.8494,2398.29 53.8136,2401.21 58.0915,2402.64 C63.8994,2404.58 70.8185,2405.64 77.4075,2405.59 C80.3377,2405.57 83.4038,2405.39 84.2211,2405.2 L84.222,2405.2 z" id="imagebot_43"/>
  <path transform="rotate(249.301, 393.225, 151.038) matrix(0.97995, 0, 0, 0.97995, 191.043, -2198.08)" label="Layer 1" fill-rule="evenodd" fill="#ff7f00" d="M187.283,2405.2 C186.276,2405.01 184.617,2404.5 183.598,2404.08 C181.767,2403.32 181.735,2403.27 180.93,2399.62 C180.482,2397.58 180.115,2395.72 180.115,2395.48 C180.115,2395.19 180.868,2395.24 182.426,2395.64 C183.697,2395.96 187.05,2396.32 189.876,2396.44 C202.011,2396.95 217.188,2394.4 226.702,2390.23 C228.709,2389.35 230.428,2388.7 230.525,2388.78 C230.903,2389.08 232.716,2397.03 232.507,2397.47 C232.117,2398.29 224.764,2401.21 219.491,2402.64 C212.332,2404.58 203.804,2405.64 195.682,2405.59 C192.07,2405.57 188.291,2405.39 187.284,2405.2 L187.283,2405.2 z" id="imagebot_41"/>
  <path transform="translate(0.8) matrix(0.97995, 0, 0, 0.97995, 196.047, -2153.93)" label="Layer 1" fill-rule="evenodd" fill="#ff7f00" d="M84.222,2405.2 C85.0393,2405.01 86.3845,2404.5 87.2114,2404.08 C88.6972,2403.32 88.7226,2403.27 89.3757,2399.62 C89.7392,2397.58 90.0366,2395.72 90.0366,2395.48 C90.0366,2395.19 89.4262,2395.24 88.1621,2395.64 C87.1311,2395.96 84.4111,2396.32 82.1176,2396.44 C72.2725,2396.95 59.9606,2394.4 52.2416,2390.23 C50.6141,2389.35 49.219,2388.7 49.1413,2388.78 C48.8341,2389.08 47.3631,2397.03 47.5325,2397.47 C47.8494,2398.29 53.8136,2401.21 58.0915,2402.64 C63.8994,2404.58 70.8185,2405.64 77.4075,2405.59 C80.3377,2405.57 83.4038,2405.39 84.2211,2405.2 L84.222,2405.2 z" id="imagebot_40"/>
  <path transform="matrix(1, 0, 0, 1, 72.2369, -373.831)" label="Layer 1" stroke-linejoin="round" fill-rule="evenodd" stroke="#000000" stroke-linecap="round" stroke-width="1.9801" fill="#aad4ff" d="M258.78,485.36 C258.536,485.36 258.292,485.381 258.049,485.381 L257.634,485.381 C257.421,485.381 257.204,485.381 256.99,485.381 L256.99,485.434 C240.674,486.323 225.56,496.07 215.431,508.375 C193.72,534.575 185.44,569.083 184.709,602.195 C185.28,610.688 183.613,620.883 187.208,628.247 C200.273,636.225 223.311,637.56 239.015,639.424 C243.183,639.61 249.803,639.661 256.99,639.701 L256.99,639.722 C257.745,639.722 258.462,639.722 259.206,639.701 C259.279,639.701 259.351,639.701 259.424,639.701 C266.611,639.661 273.231,639.61 277.399,639.424 C293.104,637.56 316.142,636.224 329.206,628.247 C332.802,620.883 331.135,610.688 331.705,602.195 C330.974,569.082 322.694,534.575 300.983,508.375 C290.854,496.07 275.739,486.323 259.424,485.434 L259.424,485.36 C259.211,485.36 258.993,485.36 258.78,485.36 L258.78,485.36 z" id="imagebot_38"/>
  <path transform="matrix(1, 0, 0, 1, 72.2369, -373.831)" label="Layer 1" stroke="#000000" stroke-width="2.0808" fill="#48565e" d="M265.01,677.51 S266.385,654.97 287.895,654.594 C316.829,654.088 319.706,676.21 319.706,676.21 C322.02,682.865 264.417,686.727 265.011,677.51 L265.01,677.51 z" id="imagebot_37"/>
  <rect transform="matrix(1, 0, 0, 1, 72.2369, -373.831)" label="Layer 1" stroke-linejoin="bevel" fill-rule="evenodd" stroke="#000000" stroke-linecap="round" stroke-width="1.9411" fill="#ffe0bd" x="184.26" y="401.18" width="147.6" height="126.51" ry="61.147" rx="70.635" id="imagebot_36"/>
  <path transform="matrix(1, 0, 0, 1, 72.2369, -373.831)" label="Layer 1" stroke="#000000" stroke-width="2.0295" fill="#48565e" d="M250.06,677.84 S249.307,655.35 227.904,654.386 C199.112,653.09 195.643,675.047 195.643,675.047 C193.157,681.612 250.398,687.036 250.06,677.84 L250.06,677.84 z" id="imagebot_35"/>
  <path label="Layer 1" fill-rule="evenodd" fill="#000000" transform="matrix(1.8942, 0, 0, 1.8942, 198.347, -191.841)" d="M55,152.5C55,153.8807 53.8807,155 52.5,155S50,153.8807 50,152.5S51.1193,150 52.5,150S55,151.1193 55,152.5z" id="imagebot_34"/>
  <path label="Layer 1" fill-rule="evenodd" fill="#000000" transform="matrix(1.8942, 0, 0, 1.8942, 259.907, -191.841)" d="M55,152.5C55,153.8807 53.8807,155 52.5,155S50,153.8807 50,152.5S51.1193,150 52.5,150S55,151.1193 55,152.5z" id="imagebot_33"/>
  <path stroke-width="2" stroke="#000000" transform="matrix(1, 0, 0, 1, 72.2369, -373.831)" label="Layer 1" fill-rule="evenodd" fill="#533d32" d="M260.73,380.36 C259.162,387.047 252.06,383.135 249.227,381.613 C245.127,385.693 238.399,391.628 234.545,383.663 C228.809,381.392 226.31,396.869 221.028,387.34 C219.287,396.429 206.001,388.185 206.166,398.49 C201.623,402.792 189.56,401.499 193.274,410.098 C189.121,414.021 180.073,412.621 180.69,419.957 C176.086,423.618 178.122,439.097 178.122,439.097 S174.584,446.98 178.122,450.671 C183.948,455.483 179.824,455.053 178.571,462.325 C180.675,464.765 184.696,470.952 184.994,464.536 C187.641,459.765 195.573,464.83 196.961,457.675 C198.585,451.206 204.198,449.264 209.575,451.529 C213.953,448.069 218.693,444.512 224.184,448.016 C231.397,448.497 227.34,432.674 234.972,439.698 C237.987,443.654 242.584,443.534 245.004,439.226 C251.797,436.748 261.516,448.493 264.589,437.422 C270.281,434.25 273.844,446.119 280.378,441.655 C286.317,443.285 292.249,452.761 297.927,445.037 C305.894,440.521 305.044,456.494 312.57,452.246 C319.053,449.552 322.517,454.562 321.637,460.347 C325.081,463.185 332.684,459.11 332.439,466.514 C340.03,470.093 334.519,453.289 340.157,450.671 C346.537,445.153 344.358,442.831 340.157,439.097 C339.18,435.747 345.441,428.533 339.218,431.908 C330.974,432.596 335.974,423.734 334.902,420.034 C327.911,422.282 328.784,416.733 330.977,412.324 C328.962,404.405 316.818,413.633 315.606,403.577 C310.178,400.553 306.508,393.591 300.199,392.018 C292.129,396.421 285.656,380.929 276.239,385.79 C270.018,390.358 266.287,381.231 260.731,380.359 L260.73,380.36 z" id="imagebot_32"/>
  <g label="Layer 1" fill="#94987d" transform="matrix(0.99457, 0, 0, 0.99457, 502.297, -122.691)" id="imagebot_28">
   <path fill-rule="evenodd" fill="#ff7f00" d="M-334,-11.326 C-342.369,-3.0342 -416.854,-39.737 -428.499,-37.948 C-440.144,-36.1591 -500.177,21.209 -510.65,15.811 C-521.122,10.4136 -509.233,-71.768 -514.532,-82.289 C-519.832,-92.811 -592.943,-132.179 -591.046,-143.806 C-589.149,-155.434 -507.316,-169.521 -498.947,-177.813 C-490.578,-186.105 -475.729,-267.803 -464.085,-269.592 C-452.44,-271.381 -413.754,-197.906 -403.282,-192.509 C-392.81,-187.112 -310.522,-198.236 -305.222,-187.714 C-299.923,-177.192 -357.846,-117.695 -359.743,-106.067 C-361.64,-94.4394 -325.631,-19.6164 -334.001,-11.3254 L-334,-11.326 z" transform="matrix(.18551 0 0 .18551 -92.29 362.59)" id="imagebot_31"/>
   <path fill-rule="evenodd" fill="#ff7f00" d="M-334,-11.326 C-342.369,-3.0342 -416.854,-39.737 -428.499,-37.948 C-440.144,-36.1591 -500.177,21.209 -510.65,15.811 C-521.122,10.4136 -509.233,-71.768 -514.532,-82.289 C-519.832,-92.811 -592.943,-132.179 -591.046,-143.806 C-589.149,-155.434 -507.316,-169.521 -498.947,-177.813 C-490.578,-186.105 -475.729,-267.803 -464.085,-269.592 C-452.44,-271.381 -413.754,-197.906 -403.282,-192.509 C-392.81,-187.112 -310.522,-198.236 -305.222,-187.714 C-299.923,-177.192 -357.846,-117.695 -359.743,-106.067 C-361.64,-94.4394 -325.631,-19.6164 -334.001,-11.3254 L-334,-11.326 z" transform="matrix(-.12762 0 0 .12762 -188.24 342.34)" id="imagebot_30"/>
   <path fill-rule="evenodd" fill="#ff7f00" d="M-334,-11.326 C-342.369,-3.0342 -416.854,-39.737 -428.499,-37.948 C-440.144,-36.1591 -500.177,21.209 -510.65,15.811 C-521.122,10.4136 -509.233,-71.768 -514.532,-82.289 C-519.832,-92.811 -592.943,-132.179 -591.046,-143.806 C-589.149,-155.434 -507.316,-169.521 -498.947,-177.813 C-490.578,-186.105 -475.729,-267.803 -464.085,-269.592 C-452.44,-271.381 -413.754,-197.906 -403.282,-192.509 C-392.81,-187.112 -310.522,-198.236 -305.222,-187.714 C-299.923,-177.192 -357.846,-117.695 -359.743,-106.067 C-361.64,-94.4394 -325.631,-19.6164 -334.001,-11.3254 L-334,-11.326 z" transform="matrix(.080420 0 0 .080420 -100.7 366.51)" id="imagebot_29"/>
  </g>
  <title>Layer 1</title>
  <path id="imagebot_80" d="M310.065,116.059 C330.881,152.059 349.125,116.059 349.395,115.859 L310.065,116.059 z" stroke-opacity="null" stroke-linecap="round" stroke-linejoin="round" stroke-dasharray="null" stroke-width="3.15" stroke="#000000" fill="#000000"/>
 </g>
 <metadata id="imagebot_2">image/svg+xmlOpenclipart</metadata>
</svg>