<svg id="svg14755" xmlns="http://www.w3.org/2000/svg" xmlns:xlink="http://www.w3.org/1999/xlink" viewBox="0 0 230.54 285.48"><defs><style>.cls-1,.cls-17{fill:none;}.cls-2{fill:#f9dec5;}.cls-3{clip-path:url(#clip-path);}.cls-4{opacity:0.2;}.cls-5{fill:#fff;}.cls-6{clip-path:url(#clip-path-2);}.cls-7{clip-path:url(#clip-path-3);}.cls-8{clip-path:url(#clip-path-4);}.cls-9{opacity:0.5;}.cls-10{fill:#f7931e;}.cls-11{fill:#db3c70;}.cls-12{clip-path:url(#clip-path-5);}.cls-13{clip-path:url(#clip-path-6);}.cls-14{clip-path:url(#clip-path-7);}.cls-15{clip-path:url(#clip-path-8);}.cls-16{fill:#f5c384;}.cls-17{stroke:#f5c384;stroke-width:0.5px;}.cls-18{clip-path:url(#clip-path-9);}.cls-19{clip-path:url(#clip-path-10);}.cls-20{clip-path:url(#clip-path-11);}.cls-21{clip-path:url(#clip-path-12);}.cls-22{clip-path:url(#clip-path-13);}.cls-23{clip-path:url(#clip-path-14);}.cls-24{fill:#e83e2e;}.cls-25{fill:#fbb03b;}.cls-26{clip-path:url(#clip-path-15);}.cls-27{clip-path:url(#clip-path-16);}</style><clipPath id="clip-path"><polygon class="cls-1" points="42.13 233.14 72.5 233.14 72.5 260.88 42.13 260.88 42.13 233.14 42.13 233.14"/></clipPath><clipPath id="clip-path-2"><rect class="cls-1" x="3.27" y="172" width="17.26" height="13.16"/></clipPath><clipPath id="clip-path-3"><rect class="cls-1" x="180.79" y="233.14" width="30.36" height="27.74"/></clipPath><clipPath id="clip-path-4"><rect class="cls-1" x="105.22" y="176.08" width="42.01" height="5.64"/></clipPath><clipPath id="clip-path-5"><rect class="cls-1" x="146.76" y="91.54" width="10.85" height="10.54"/></clipPath><clipPath id="clip-path-6"><rect class="cls-1" x="84.43" y="91.54" width="10.85" height="10.54"/></clipPath><clipPath id="clip-path-7"><rect class="cls-1" x="77.23" y="67.18" width="11.41" height="5.65"/></clipPath><clipPath id="clip-path-8"><rect class="cls-1" x="147.88" y="69.89" width="11.41" height="5.65"/></clipPath><clipPath id="clip-path-9"><rect class="cls-1" x="71.88" y="73.79" width="36.29" height="6.09"/></clipPath><clipPath id="clip-path-10"><rect class="cls-1" x="142.73" y="73.79" width="36.29" height="6.09"/></clipPath><clipPath id="clip-path-11"><rect class="cls-1" x="67.78" y="12.64" width="59.51" height="25.69"/></clipPath><clipPath id="clip-path-12"><rect class="cls-1" x="45.01" y="98.09" width="8.07" height="18.87"/></clipPath><clipPath id="clip-path-13"><polygon class="cls-1" points="36.62 125.18 44.69 125.18 44.69 144.05 36.62 144.05 36.62 125.18 36.62 125.18"/></clipPath><clipPath id="clip-path-14"><rect class="cls-1" x="22.61" y="153.07" width="18.48" height="10.93"/></clipPath><clipPath id="clip-path-15"><rect class="cls-1" x="57.72" y="178.88" width="55.27" height="48.69"/></clipPath><clipPath id="clip-path-16"><rect class="cls-1" x="109.13" y="234.45" width="11.34" height="19.38"/></clipPath></defs><title>girl-24</title><g id="layer1"><g id="g7777"><path id="path7779" class="cls-2" d="M197.92,225.08l-6.33-6.33L178.1,231l2.94,8Z"/></g><g id="g7781"><path id="path7783" class="cls-2" d="M74.15,232.73s-17.07,39.84-30.43,28.16-23.24-74.3-24.84-76.44l17.59-5.66s15.7,34.1,17.79,51.71l2.22-11.24Z"/></g><g id="g7785"><g id="g7793"><g class="cls-3"><g id="g7795" class="cls-4"><g id="g7797"><path id="path7799" class="cls-5" d="M72.5,233.14s-12.28,27.71-23.11,27.74-5.82-.13-7.26-8.32,11,10.52,30.37-19.42"/></g></g></g></g></g><g id="g7801"><path id="path7803" class="cls-2" d="M35.35,179.63c0,5.59-7.91,10.11-17.67,10.11S0,185.22,0,179.63s7.92-10.11,17.68-10.11,17.67,4.53,17.67,10.11"/></g><g id="g7805"><g id="g7813"><g class="cls-6"><g id="g7815" class="cls-4"><g id="g7817"><path id="path7819" class="cls-5" d="M20.53,172S5,174.93,9.39,185.16-10.12,173.68,20.53,172"/></g></g></g></g></g><g id="g7821"><g id="g7829"><g class="cls-7"><g id="g7831" class="cls-4"><g id="g7833"><path id="path7835" class="cls-5" d="M180.79,233.14s12.28,27.71,23.11,27.74,5.83-.13,7.26-8.32-11,10.52-30.37-19.42"/></g></g></g></g></g><g id="g7837"><path id="path7839" class="cls-2" d="M105.09,176.61s4.32.75,6.61-1.54h29.4s2.11,2.15,6.21,1.08l3.44,10.18-53.47-3Z"/></g><path id="path7841" class="cls-2" d="M141.09,175.07h-29.4V148.94h29.4Z"/><g id="g7843"><g id="g7851"><g class="cls-8"><g id="g7853" class="cls-9"><g id="g7855"><path id="path7857" class="cls-10" d="M147.15,176.16c-14.45,8.18-30.27,2.93-37.06-.08a10,10,0,0,1-4.87.53,44,44,0,0,0,42-.47l-.08,0"/></g></g></g></g></g><g id="g7859"><path id="path7861" d="M75.73,111.26A17.11,17.11,0,1,1,58.62,94.15a17.11,17.11,0,0,1,17.11,17.11"/></g><g id="g7863"><path id="path7865" d="M67.86,137.5a17.11,17.11,0,1,1-17.11-17.11A17.11,17.11,0,0,1,67.86,137.5"/></g><g id="g7867"><path id="path7869" class="cls-11" d="M53.19,157.08c-.79,2.36-6.16,2.67-12,.71S31.25,152.38,32,150s6.15-2.67,12-.72,9.94,5.44,9.16,7.78"/></g><g id="g7871"><path id="path7873" d="M38.54,151.92s-14.15,7.14-19.7,4.6,7.22,21.31,30,20-4.49-16.93-1.59-20.82a24.45,24.45,0,0,0-8.73-3.78"/></g><g id="g7875"><path id="path7877" d="M173.65,111.26a17.11,17.11,0,1,0,17.11-17.11,17.11,17.11,0,0,0-17.11,17.11"/></g><g id="g7879"><path id="path7881" d="M181.53,137.5a17.11,17.11,0,1,0,17.11-17.11,17.11,17.11,0,0,0-17.11,17.11"/></g><g id="g7883"><path id="path7885" class="cls-11" d="M196.2,157.08c.79,2.36,6.16,2.67,12,.71s9.94-5.41,9.15-7.77-6.15-2.67-12-.72-9.94,5.44-9.16,7.78"/></g><g id="g7887"><path id="path7889" d="M210.85,151.92s14.15,7.14,19.7,4.6-7.22,21.31-30,20,4.49-16.93,1.59-20.82a24.45,24.45,0,0,1,8.73-3.78"/></g><g id="g7891"><path id="path7893" class="cls-2" d="M196.43,79.62c0,44-31.87,79.61-71.18,79.61S54.08,123.59,54.08,79.62,85.94,0,125.25,0s71.18,35.64,71.18,79.61"/></g><g id="g7895"><path id="path7897" d="M165.51,95.74a10.17,10.17,0,1,1-10.17-10.17,10.17,10.17,0,0,1,10.17,10.17"/></g><g id="g7899"><path id="path7901" class="cls-5" d="M156.35,92.65a4.1,4.1,0,1,1-4.09-4.1,4.09,4.09,0,0,1,4.09,4.1"/></g><g id="g7903"><g id="g7911"><g class="cls-12"><g id="g7913" class="cls-4"><g id="g7915"><path id="path7917" class="cls-5" d="M157.62,96.82a5.43,5.43,0,1,1-5.43-5.27,5.36,5.36,0,0,1,5.43,5.27"/></g></g></g></g></g><g id="g7919"><path id="path7921" d="M100.56,95.74A10.17,10.17,0,1,1,90.39,85.57a10.17,10.17,0,0,1,10.17,10.17"/></g><g id="g7923"><path id="path7925" class="cls-5" d="M94,92.65a4.1,4.1,0,1,1-4.1-4.1,4.09,4.09,0,0,1,4.1,4.1"/></g><g id="g7927"><g id="g7935"><g class="cls-13"><g id="g7937" class="cls-4"><g id="g7939"><path id="path7941" class="cls-5" d="M95.28,96.82a5.43,5.43,0,1,1-5.42-5.27,5.36,5.36,0,0,1,5.42,5.27"/></g></g></g></g></g><g id="g7943"><path id="path7945" d="M142.73,78s18-8,36.29-3.61S164.12,60,142.73,78"/></g><g id="g7947"><path id="path7949" d="M108.17,78s-18-8-36.29-3.61S86.78,60,108.17,78"/></g><g id="g7951"><g id="g7959"><g class="cls-14"><g id="g7961" class="cls-4"><g id="g7963"><path id="path7965" class="cls-5" d="M77.23,72.83s4.67-6,11.42-5.64-5,1.41-8.73,5.1-2.22.07-2.69.54"/></g></g></g></g></g><g id="g7967"><g id="g7975"><g class="cls-15"><g id="g7977" class="cls-4"><g id="g7979"><path id="path7981" class="cls-5" d="M147.88,75.55s4.67-5.94,11.42-5.64-5,1.41-8.73,5.11-2.22.06-2.69.53"/></g></g></g></g></g><g id="g7983"><path id="path7985" class="cls-2" d="M205.52,78.66c0,9-5.2,16.38-11.62,16.38s-11.61-7.34-11.61-16.38,5.2-16.37,11.61-16.37,11.62,7.33,11.62,16.37"/></g><g id="g7987"><path id="path7989" class="cls-2" d="M67.09,78c0,9-5.2,16.38-11.62,16.38S43.86,87.05,43.86,78s5.2-16.37,11.61-16.37S67.09,69,67.09,78"/></g><g id="g7991"><path id="path7993" class="cls-16" d="M85.67,114.75c0,4.3-4.45,7.78-9.94,7.78s-9.94-3.48-9.94-7.78S70.24,107,75.73,107s9.94,3.48,9.94,7.77"/></g><g id="g7995"><path id="path7997" class="cls-16" d="M184.73,115.12c0,4.5-4.66,8.15-10.41,8.15s-10.42-3.65-10.42-8.15,4.67-8.14,10.42-8.14,10.41,3.64,10.41,8.14"/></g><g id="g7999"><path id="path8001" class="cls-17" d="M199.48,68.7s-14.7-.78-8.4,13.12"/></g><g id="g8003"><path id="path8005" class="cls-16" d="M198.7,79.61a4.47,4.47,0,1,1-4.47-4.46,4.47,4.47,0,0,1,4.47,4.46"/></g><g id="g8007"><path id="path8009" class="cls-17" d="M50.45,68.7s14.7-.78,8.4,13.12"/></g><g id="g8011"><path id="path8013" class="cls-16" d="M51.23,79.61a4.47,4.47,0,1,0,4.47-4.46,4.47,4.47,0,0,0-4.47,4.46"/></g><g id="g8015"><g id="g8023"><g class="cls-18"><g id="g8025" class="cls-9"><g id="g8027"><path id="path8029" class="cls-10" d="M71.88,75.24s21-5.41,36.29,4.63-18.16-7-36.29-4.63"/></g></g></g></g></g><g id="g8031"><g id="g8039"><g class="cls-19"><g id="g8041" class="cls-9"><g id="g8043"><path id="path8045" class="cls-10" d="M179,75.24s-21-5.41-36.29,4.63,18.17-7,36.29-4.63"/></g></g></g></g></g><g id="g8047"><path id="path8049" d="M55.48,61.63s-4,17.15,0,32.75S59,67,76.94,53.48s-2.62,8.91-2.62,14c0,0,14-15.3,31.49-15.3A33.3,33.3,0,0,0,93.13,64.85s16.18-10.06,30.17-13.12a52.5,52.5,0,0,1,21,13.12s-2.62-10.5-7.43-15.31c0,0,24.47,5.29,31,15.31,0,0-.66-8.53-3.94-11.81C164,53,191.84,66,191.84,93c0,0,4.13-19.85,2.06-30.68,0,0,7.25,10.88,7.25,16.13,0,0-3.53-78.41-75.89-78.41,0,0-70.54.65-76.26,76.26,0,0,3-11.19,6.48-14.63"/></g><g id="g8051"><path id="path8053" class="cls-11" d="M61.42,44.4S121.92-30.76,190,46.46,132.4-9.26,61.42,44.4"/></g><g id="g8055"><g id="g8063"><g class="cls-20"><g id="g8065" class="cls-4"><g id="g8067"><path id="path8069" class="cls-5" d="M67.78,38.34S97.61,9.35,127.29,13s-.53.37-2.17,2.79,1.43,1.39,2.17,2.13c0,0-29-4.83-59.51,20.46"/></g></g></g></g></g><g id="g8071"><g id="g8079"><g class="cls-21"><g id="g8081" class="cls-4"><g id="g8083"><path id="path8085" class="cls-5" d="M52.13,108.38c-1.43,5.19-4,9-5.68,8.54s-1.92-5.06-.49-10.25,4-9,5.69-8.54,1.92,5.06.48,10.25"/></g></g></g></g></g><g id="g8087"><g id="g8095"><g class="cls-22"><g id="g8097" class="cls-4"><g id="g8099"><path id="path8101" class="cls-5" d="M43.74,135.48c-1.43,5.19-4,9-5.68,8.54s-1.92-5.06-.48-10.25,4-9,5.68-8.54,1.92,5.06.48,10.25"/></g></g></g></g></g><g id="g8103"><g id="g8111"><g class="cls-23"><g id="g8113" class="cls-4"><g id="g8115"><path id="path8117" class="cls-5" d="M22.61,159s11.37-2.63,16-5.91l2.52.88S31.14,163.23,25,164s-2.4-3.09-2.4-5"/></g></g></g></g></g><g id="g8119"><path id="path8121" class="cls-24" d="M125.12,144.05a37.42,37.42,0,0,1-16.34-3.52c1.16,4.74,7.89,8.39,16,8.39,8,0,14.59-3.49,16-8.08a37.67,37.67,0,0,1-15.65,3.21"/></g><g id="g8123"><path id="path8125" class="cls-25" d="M149.25,174.43c-5.83,4.4-14.34,7.18-23.84,7.18-9,0-17.08-2.48-22.86-6.46A83.49,83.49,0,0,0,51.4,222.61H203a83.34,83.34,0,0,0-53.7-48.18"/></g><g id="g8127"><path id="path8129" class="cls-25" d="M87,222.6s-5.2,40.29-.2,56.63,42.5,14.08,86.25,0S171.3,242,165.93,222.6"/></g><g id="g8131"><path id="path8133" class="cls-25" d="M51.28,222.6S69.07,227,81,235.74s8.41-21.2,16.19-29"/></g><g id="g8135"><path id="path8137" class="cls-25" d="M202.84,222.6s-18.27,7.86-24.19,20.44-18.51-30.35-21.47-33.31"/></g><g id="g8139"><g id="g8147"><g class="cls-26"><g id="g8149" class="cls-4"><g id="g8151"><path id="path8153" class="cls-5" d="M113,179.91q-1.61-.47-3.12-1c-32.45,9.48-52.14,43.7-52.14,43.7l17,5C89,202.3,105.94,184.86,113,179.91"/></g></g></g></g></g><g id="g8155"><path id="path8157" class="cls-2" d="M197.92,225.08S225,265.76,208,270.78s-75.18-20.2-77.85-20l4.65-17.89s37.21,5,53.19,12.69L181,239Z"/></g><g id="g8159"><path id="path8161" class="cls-2" d="M130.85,228.57A16.58,16.58,0,1,1,108,233.68a16.58,16.58,0,0,1,22.88-5.11"/></g><g id="g8163"><g id="g8171"><g class="cls-27"><g id="g8173" class="cls-4"><g id="g8175"><path id="path8177" class="cls-5" d="M118,253.84s-9.09-13.87,2.51-19-23.74-5-2.51,19"/></g></g></g></g></g></g></svg>