<svg id="Layer_1" data-name="Layer 1" xmlns="http://www.w3.org/2000/svg" viewBox="0 0 741.62 1674.15"><defs><style>.cls-1{fill:#cb466c;stroke:#cb466c;}.cls-2{fill:#ff6c96;stroke:#ff6c96;}.cls-3{fill:#d0436b;stroke:#d0436b;}.cls-4{fill:#3b2019;stroke:#3b2019;}.cls-5{fill:#ad8959;stroke:#ad8959;}.cls-6{fill:#f4cca9;stroke:#f4cca9;}.cls-7{fill:#ce436a;stroke:#ce436a;}.cls-8{fill:#d0d1c1;stroke:#d0d1c1;}.cls-9{fill:#626a6b;stroke:#626a6b;}.cls-10{fill:#b19590;stroke:#b19590;}.cls-11{fill:#717270;stroke:#717270;}.cls-12{fill:#717271;stroke:#717271;}.cls-13{fill:#70736f;stroke:#70736f;}.cls-14{fill:#d7f0f4;stroke:#d7f0f4;}.cls-15{fill:#58b8ce;stroke:#58b8ce;}.cls-16{fill:#d5f1f5;stroke:#d5f1f5;}.cls-17{fill:#d6f1f5;stroke:#d6f1f5;}.cls-18{fill:#f5c2a7;stroke:#f5c2a7;}.cls-19{fill:#f6b8a5;stroke:#f6b8a5;}.cls-20{fill:#e4bc99;stroke:#e4bc99;}.cls-21{fill:#f7b5a5;stroke:#f7b5a5;}.cls-22{fill:#fc6e95;stroke:#fc6e95;}.cls-23{fill:#f5c6a8;stroke:#f5c6a8;}.cls-24{fill:#cf436a;stroke:#cf436a;}.cls-25{fill:#e3cbbe;stroke:#e3cbbe;}.cls-26{fill:#d8cecf;stroke:#d8cecf;}.cls-27{fill:#d7cfc8;stroke:#d7cfc8;}</style></defs><title>girl-27</title><path class="cls-1" d="M416.2,37.52c4.68-.38,9.76-1.25,14,1.42,2.08,3.85,4.4,7.61,5.81,11.78,2.74,8.06,3.81,16.56,6.34,24.68.44,4.89.6,9.81,1.57,14.64,1,5,.87,10.15,1.56,15.19,1.27,7.68,1.15,15.5,2.57,23.16-.37,10.13.41,20.26.79,30.38,1.59.29,3.17.6,4.75,1a99.69,99.69,0,0,1,15,10c3.24,2.45,3.3,8.5,8.31,8.27-3.49,2-2.58,6.34-3.3,9.65-1.8,9.79-8.66,17.69-16.27,23.67,14,15.87,31.12,28.69,48.93,40,10.86,6.61,21.76,13.27,33.49,18.24,8.62,3.55,18,6.61,27.45,5.07,6-.89,10.84-5.16,13.66-10.33,5.62-9.9,6.6-21.57,7-32.72.11-6.65,2.24-13,3.58-19.45,3.14-14.63,6.15-29.31,7.8-44.19.66-6.67,1.08-13.44.2-20.1-.37-2.42-1.12-5.47-3.84-6.16-4.15-1.16-8.53-.62-12.73-.12-7.77,1.26-15.66,1.33-23.41,2.64l-2.14-.75c6.56-1.25,12.8-3.89,19.48-4.54,7-.84,14.45-2.36,21.33.07,3.8,1.34,5,5.76,5.21,9.39a140.48,140.48,0,0,1-1.76,31.47c-.67,5-2.25,9.89-3,14.89-1.44,13.09-6.94,25.46-7.14,38.72-.18,12.8-2.13,26.4-10.13,36.84-3.18,4.4-8.31,6.87-13.53,7.85-6,.45-12-.09-18-.54.13-.41.27-.82.43-1.22-8.82-1.9-17-5.94-25.1-9.72-26.08-14.44-51.11-31.42-71.44-53.42-7.81,1.81-16.55,2.94-23.94-.85-4.88-4.41-6.95-10.95-8.9-17-30.16-5.26-58.28-19.79-81.4-39.67-2.26-2-4.7-3.73-7-5.65-3.87-4.27-7.93-8.46-10.91-13.43-3.59-5.73-3.62-13-2.32-19.4,2.67-10.8,11-18.86,18.59-26.48C342.87,86,348.73,82,354,77.35c3.88-3.18,8.18-5.82,12-9.13,6.37-4.11,12.27-8.88,18.63-13A193.48,193.48,0,0,1,416.2,37.52m2.35,3.56c-8.16,2.56-15.6,6.9-22.81,11.38C382.81,60.15,371,69.48,359,78.53c-10.8,7.82-21.15,16.47-29.52,26.91-5.15,6.7-9.52,15.33-7.18,24,2.75,8.82,9.94,15.2,16.6,21.16,23.07,20.26,51,35.7,81.46,41,.31-5.1,1.11-10.25,3.54-14.8,4.5-8.81,12.1-17.16,22.44-18.38.39-6.08-.28-12.14-.66-18.19a538.56,538.56,0,0,0-9.09-73.47c-1.94-8.39-3.93-17.15-8.91-24.33-2-3.12-6.16-2.07-9.13-1.33m25.38,121.56c-7.15,1.73-12,7.85-15.73,13.79a26.72,26.72,0,0,0-.65,26.89c1.56,2.59,2.83,6.07,6.1,6.88,7.89,2.23,17,1.38,23.66-3.74a37.42,37.42,0,0,0,12.48-17.9c2-6.42-.2-14-5.91-17.81C458,166.68,451.76,160.66,443.93,162.64Z"/><path class="cls-2" d="M418.55,41.08c3-.74,7.13-1.79,9.13,1.33,5,7.18,7,15.94,8.91,24.33a540.13,540.13,0,0,1,9.09,73.47c.38,6,1.05,12.11.66,18.19C436,159.62,428.4,168,423.9,176.78c-2.43,4.54-3.23,9.7-3.54,14.79-30.46-5.3-58.39-20.74-81.46-41-6.66-6-13.85-12.34-16.6-21.16-2.34-8.64,2-17.27,7.18-24C337.85,95,348.2,86.35,359,78.53c12-9,23.8-18.38,36.73-26.07C403,48,410.39,43.64,418.55,41.08m7.66,12.86a16.36,16.36,0,0,0-1.78,5.8c-.72,8,.43,16.07,1.61,24,2.67,16.46,6.95,32.59,11.55,48.6,1.34,4.22,2.23,8.6,4.2,12.59.54-7.8-.53-15.58-1.12-23.35-1.65-17.37-3.81-34.78-8.08-51.73C431,64.38,429.65,58.62,426.21,53.94Z"/><path class="cls-3" d="M426.21,53.94c3.44,4.68,4.77,10.44,6.38,15.91,4.27,17,6.43,34.36,8.08,51.73.59,7.77,1.66,15.55,1.12,23.35-2-4-2.86-8.38-4.2-12.59-4.6-16-8.88-32.14-11.55-48.6-1.18-7.93-2.33-16-1.61-24A16.36,16.36,0,0,1,426.21,53.94Z"/><path class="cls-2" d="M582.82,141.58c4.21-.5,8.59-1,12.74.12,2.71.69,3.46,3.74,3.83,6.16.88,6.66.46,13.43-.2,20.1-1.65,14.88-4.66,29.56-7.79,44.19-1.35,6.45-3.48,12.8-3.59,19.45-.39,11.15-1.37,22.82-7,32.72-2.82,5.17-7.7,9.44-13.66,10.33-9.43,1.54-18.83-1.52-27.45-5.07-11.73-5-22.64-11.63-33.5-18.24-17.81-11.29-34.93-24.11-48.93-40,7.62-6,14.48-13.88,16.27-23.67.72-3.31-.19-7.68,3.3-9.66,23.38-11.65,47.16-22.69,72-31a37.2,37.2,0,0,1,10.57-2.85c7.75-1.31,15.65-1.38,23.41-2.64m-32.51,9.18c-11.43,3.41-22.38,8.17-33.36,12.78-8.18,3.73-16.61,7-24.36,11.59,6.41-.77,12.62-2.66,18.89-4.16,18.89-5,38-9.74,55.73-18.21,3.45-1.67,7.18-3.12,9.81-6C567.93,145.73,558.93,148.1,550.31,150.76Z"/><path class="cls-3" d="M550.31,150.76c8.62-2.66,17.62-5,26.71-4-2.63,2.92-6.35,4.36-9.81,6-17.7,8.47-36.84,13.23-55.73,18.2-6.27,1.51-12.48,3.4-18.89,4.17,7.75-4.58,16.18-7.86,24.36-11.59C527.93,158.93,538.88,154.17,550.31,150.76Z"/><path class="cls-4" d="M197.14,176.41c40.1-17,83.57-27.23,127.29-26a67.2,67.2,0,0,0,7.89-.36c2.3,1.92,4.74,3.67,7,5.66,23.12,19.88,51.24,34.4,81.41,39.66,1.95,6.08,4,12.61,8.89,17,7.39,3.8,16.14,2.66,23.95.85,20.32,22,45.36,39,71.43,53.42.37,2,.8,4.05,1.36,6,5.73,19.63,7.15,40.23,6.85,60.59-.08,24.45-2.82,48.79-5.54,73.05-1,7-1.85,14.07-2.76,21.11-1.64,12.3-3.37,24.59-4.93,36.9q-1.69,13.06-3.18,26.16c-3,26.39-4.83,52.9-5.73,79.45-.29,6.13-.29,12.29-.26,18.44a590.37,590.37,0,0,0,13.77,136.24c3.11,14.12,8.95,27.85,18.25,39.05,10.6,13.36,25.79,22.73,42.15,27.28a75.5,75.5,0,0,0,21.18,3c12,.41,24.32-1.67,34.76-7.75,4.6-2.79,9-6.3,11.74-11a23.93,23.93,0,0,0,3-16c-1.36-8.24-6.16-15.43-11.65-21.52-2.46-3.13-6.2-7-10.54-4.95-5.73,3.55-8.43,10.25-11,16.2q-1.47,3.86-2.87,7.74c-2.66-2.59-3.87-6.19-5.29-9.52-2-6.29-3.73-13.08-2-19.65,1.09-5.16,4.85-9.35,9.3-12,3.86-2.24,8.29-3.12,12.62-4,8.6-1.39,17.53-1.71,26,.4a47.59,47.59,0,0,1,27.05,18.2c10.32,14.1,14.79,31.59,16.53,48.75,1.32,12-1,24.12-4.56,35.59A89.8,89.8,0,0,1,689.93,835,93.24,93.24,0,0,1,673.05,855c-18.54,16.35-42.94,24.26-67,28-21.47,3.48-43.29,3.33-64.93,2.38-13.42-.83-26.73-2.63-40.08-4.12-14-33.48-27.29-67.21-40.42-101-13-32.63-26.2-65.23-42-96.64a305.53,305.53,0,0,0-20.53-35.39,69.46,69.46,0,0,0-13.52-14.66c-9.23-7.9-21.39-11.94-33.42-12.46-6.15-.41-12.27-1.15-18.43-1.29-.05-8.2-.18-16.39.09-24.57,23.15-2.4,46.06-8.5,66.77-19.23,1.19,6.2,1.09,12.59,2.5,18.77,3.38,17.42,10.37,34,19.13,49.33,6.23,10.84,13.32,21.15,20,31.69,19.85,30,40.49,59.49,63.44,87.2,5.7,6.6,11.21,13.4,17.54,19.43-17.35-27.79-30.3-58-43.25-88-7.81-18.91-16.24-37.63-22.21-57.23a375.46,375.46,0,0,1-16.16-91.46,173.67,173.67,0,0,0,15.81-19.07c18.16-25.1,29.15-54.72,35.5-84.86,1.25-5,1.65-10.47,4.55-14.91,3.17-5.35,9-8.75,11.21-14.73,3-6.87,1.35-14.94-2.66-21-1.09-1.67-3.25-1.92-5-2.48a396.92,396.92,0,0,0-56.87-9.45c-12.16-.86-24.39-1.57-36.54-.25-7.39.56-14.61,2.48-22,3-25.5-6.77-50.38-16.89-71.9-32.35-18.53-12.95-33.94-30-45.8-49.2-15.07,25.22-32.52,49.2-53.48,69.88-2.56,2.51-5.22,4.93-7.63,7.57-7.06.53-14.14.41-21.18,1,7.08-6.6,14.89-12.41,21.59-19.44,13.54-13.64,24.77-29.4,34.45-46,5.76-10.26,11.61-20.61,15.52-31.75-12.09,10.11-23.7,20.79-35.71,31-11.47,10.08-23.21,19.84-34.44,30.19A330.55,330.55,0,0,0,150.49,383c-12.56,2-24.88,5.08-37.2,8.18.62-15.14,1.89-30.47,6.94-44.87,3.55-10.9,10.14-20.36,16.36-29.85,16.63-24.94,36.28-48.18,60.1-66.55,15.26-11.75,32.37-21.49,51.09-26.43a219.92,219.92,0,0,0-56.59,12.61c-28.22,10.19-54.7,26.67-73.87,50-19.52,23.84-31.76,54.1-32.21,85.08C84.57,391.63,87.58,412,91.82,432,99,464.75,110,496.59,122.63,527.67a1105,1105,0,0,0,57.59,119,53.27,53.27,0,0,0,3.77,5.8c-1.55-5.57-4.27-10.69-6.42-16a1139.67,1139.67,0,0,1-39.21-107.78c-9.86-32.58-18.16-65.74-22.48-99.55a78.22,78.22,0,0,1-.52-8.24c4.58,1.92,9.76,4.37,11.25,9.58,4.61,15.41,7.87,31.27,13.72,46.29,2.2,5.78,5.8,10.85,9.08,16.05a180.41,180.41,0,0,0,39.81,59.53,142.71,142.71,0,0,0,13.86,12C228,583.6,259,593.89,290.26,596.08c.61,7.89.95,15.78,1.23,23.68-7.2-.56-14.37.14-21.55.64-5.74.32-11.17,2.36-16.59,4.09-6.3,2.25-12.74,4.61-18.06,8.79-6.71,5.49-11.83,12.62-16.07,20.11-10.54,14.05-17.76,30.17-24.75,46.18-9.74-14.27-19.17-28.75-28.12-43.53-4.59-7.74-9.16-15.49-13.64-23.29-5.32-10-10.68-20-15.93-30.11-5.1-10.95-10.51-21.75-15.33-32.82-8.22-18.51-15.45-37.44-21.89-56.64C96.25,502.47,92.77,491.81,90,481c-.47-1.9-.88-3.81-1.32-5.7q-2.37-9-4.15-18.11A370.87,370.87,0,0,1,76,384.87c-.15-6.67,0-13.35.16-20,1.52-33.2,8.61-66.52,23.65-96.31A202.34,202.34,0,0,1,161,195.68c11.26-7.78,23.68-13.71,36.16-19.27m104.19,39.92A631.63,631.63,0,0,1,378.63,268c8.75,6.63,17,13.95,26,20.21a217.9,217.9,0,0,0,48.23,25.74c11.1,4.13,22.53,7.56,34.31,9-3.08-3.7-7.06-6.47-10.54-9.76-24.82-21.64-49-44-73-66.53-13.18-12.2-29.68-20.46-46.93-25.16-18-5.05-36.79-6.37-55.35-5.2m-19.27,62.51a268.3,268.3,0,0,0,34.9,37.9c21.05,18.88,45.27,35.09,72.73,42.77,31.3,8.72,64.32,9.39,96.49,6.27a34.29,34.29,0,0,0,7.44-1.34c-28.67-3.83-56.32-13.74-82-26.95a273.62,273.62,0,0,1-32.51-20.1A226.82,226.82,0,0,0,331,292.59,269.39,269.39,0,0,0,282.06,278.84Z"/><path class="cls-2" d="M443.93,162.64c7.83-2,14.05,4,19.95,8.11,5.71,3.77,8,11.39,5.92,17.81a37.5,37.5,0,0,1-12.49,17.9c-6.64,5.12-15.77,6-23.66,3.74-3.27-.81-4.54-4.29-6.1-6.88a26.72,26.72,0,0,1,.65-26.89C431.89,170.49,436.78,164.37,443.93,162.64Z"/><path class="cls-5" d="M301.33,216.33c18.56-1.17,37.39.15,55.35,5.2,17.24,4.7,33.75,13,46.93,25.16,24,22.56,48.22,44.89,73,66.53,3.48,3.29,7.46,6.06,10.54,9.76-11.78-1.48-23.21-4.91-34.31-9a218.2,218.2,0,0,1-48.24-25.74c-9-6.26-17.26-13.58-26-20.21A632.78,632.78,0,0,0,301.33,216.33Z"/><path class="cls-5" d="M191.18,236.09a220,220,0,0,1,56.6-12.61c-18.72,4.94-35.84,14.68-51.1,26.43-23.81,18.37-43.46,41.61-60.1,66.55-6.21,9.49-12.81,19-16.36,29.85-5,14.4-6.31,29.73-6.93,44.87-1.35,2.38-3,4.64-3.7,7.33-1.25,4.54-.16,9.27,1,13.71a18.8,18.8,0,0,0,4.78,8.61,78.6,78.6,0,0,0,.53,8.25c4.31,33.8,12.61,67,22.47,99.54A1142.46,1142.46,0,0,0,177.56,636.4c2.15,5.33,4.87,10.45,6.42,16a54.8,54.8,0,0,1-3.77-5.8,1108.82,1108.82,0,0,1-57.59-119C110,496.59,99,464.75,91.82,432c-4.24-20-7.26-40.33-6.72-60.78.45-31,12.69-61.24,32.21-85.08C136.49,262.76,163,246.28,191.18,236.09Z"/><path class="cls-5" d="M282.06,278.84A270.17,270.17,0,0,1,331,292.58a227.32,227.32,0,0,1,48.14,24.81,273.62,273.62,0,0,0,32.51,20.1c25.65,13.21,53.3,23.12,82,26.95a34.18,34.18,0,0,1-7.44,1.34c-32.17,3.12-65.19,2.45-96.49-6.27C362.23,351.83,338,335.62,317,316.74A268.3,268.3,0,0,1,282.06,278.84Z"/><path class="cls-5" d="M220.54,312.63c12-10.22,23.61-20.89,35.7-31-3.91,11.14-9.75,21.49-15.52,31.75-9.67,16.56-20.9,32.32-34.44,46-6.7,7-14.51,12.84-21.59,19.44-11.47.89-22.86,2.43-34.21,4.23a331.4,331.4,0,0,1,35.61-40.18C197.32,332.48,209.07,322.71,220.54,312.63Z"/><path class="cls-6" d="M213.49,370.24c21-20.68,38.42-44.66,53.48-69.88,11.87,19.18,27.27,36.25,45.81,49.2,21.51,15.46,46.39,25.58,71.89,32.35-6.83,2.12-13.92,3.14-20.9,4.6-18.43,3.75-37.09,7.16-56,7.12-34.67-.26-67.28-15.17-101.93-15.82C208.27,375.17,210.93,372.75,213.49,370.24Z"/><path class="cls-7" d="M184.69,378.77c7-.55,14.12-.43,21.17-1,34.65.66,67.26,15.56,101.93,15.82,18.89,0,37.55-3.37,56-7.12,7-1.46,14.06-2.48,20.89-4.6,7.4-.49,14.61-2.41,22-3,12.14-1.32,24.38-.61,36.53.25a396.68,396.68,0,0,1,56.87,9.45c1.73.56,3.88.81,5,2.48,4,6.09,5.7,14.16,2.67,21-2.19,6-8.05,9.38-11.21,14.73-2.91,4.44-3.3,9.87-4.55,14.91l-.74-1.11c-3.85,15.4-7.63,31.35-16.58,44.72-5,7.53-12.17,13.19-19.58,18.19-8.57,4.42-17.55,8.45-27.19,9.75-6.2.79-12.46.36-18.68.4-7.31-1.16-14.61-2.43-21.82-4.11-10.76-4.17-21.45-9.14-30-17-8-6.84-13.53-16-18.13-25.3-5.56-11.23-9.65-23.1-14.19-34.76-1.46-3.87-4.52-7.58-8.91-7.93-5.83-.53-13.27-1-17.14,4.29-3.09,4.93-4.15,10.78-6,16.24a115.73,115.73,0,0,1-19.12,38.17c-7.59,10-16.83,19.18-28.52,24.17-6.49,3.07-13.62,4.29-20.53,6.06-9.86.34-19.75.75-29.58-.35-13.23-1.38-26.61-5.09-37.18-13.47-2.86-2.37-5.44-5.09-8.66-7-3.27-5.2-6.88-10.27-9.08-16.05-5.85-15-9.11-30.88-13.71-46.28-1.5-5.22-6.68-7.66-11.26-9.59a18.66,18.66,0,0,1-4.78-8.61c-1.14-4.44-2.23-9.17-1-13.71.68-2.69,2.35-4.95,3.7-7.33,12.31-3.1,24.64-6.17,37.19-8.17,11.35-1.81,22.74-3.35,34.21-4.24m7.8,10.08c-6-.88-12.06.39-18,1.34-3.94.72-8.1,1.14-11.6,3.26-4,0-7.52,2.06-10.87,4-3,1.83-6.22,3.93-7.62,7.36-2.22,2.76-2.71,6.46-3.19,9.86s-1.3,7-.84,10.58l1-.35c-2,1.42-1.12,4.25-1.17,6.36,1.94,15.61,4.22,31.68,11.95,45.65,7.33,13.92,20.93,25.23,36.92,26.95,17.44,2.14,35.69.62,52-6.17,10.78-4.33,19.46-12.59,26.24-21.83a118.27,118.27,0,0,0,18.13-40.13c1.78-9.36,1.48-19.84-4.08-27.95-4.82-7.09-13-10.68-20.83-13.45-17.21-5.65-35.48-7.46-53.52-6.86-4.81.35-10-.48-14.56,1.4m208.13-.5a161.54,161.54,0,0,0-35.22,7.14c-8.45,2.9-17,6.35-23.77,12.33-4.76,4.19-5.41,11-5.57,17a80.76,80.76,0,0,0,13.18,42.66c7.29,11.44,16.61,22.11,28.85,28.36,16.88,8.79,37,12.48,55.58,7.7,10.66-2.66,21.31-7.26,28.94-15.41,6.43-6.73,9.88-15.63,12.58-24.38A171.39,171.39,0,0,0,481,432c.33-7.24,2-14.77-.63-21.78-2-6.27-7.29-11-13.28-13.5-14.42-6.14-30.35-6.05-45.64-7.94A106.92,106.92,0,0,0,400.62,388.35Z"/><path class="cls-8" d="M192.49,388.85c4.52-1.88,9.75-1.05,14.56-1.4,18-.6,36.31,1.21,53.52,6.87,7.8,2.76,16,6.35,20.83,13.44,5.56,8.11,5.86,18.59,4.08,27.95a118.27,118.27,0,0,1-18.13,40.13c-6.78,9.24-15.46,17.5-26.24,21.83-16.33,6.8-34.58,8.31-52,6.17-16-1.72-29.59-13-36.92-26.95-7.73-14-10-30-11.95-45.65.05-2.11-.88-4.94,1.17-6.36a415.91,415.91,0,0,0,51.1-36m12.7,9.7c-.47,9.65.55,19.67,5,28.38l-1.38,1.53c-4.48-1.11-9.14-2.54-12.37-6-4.21-3.84-6.45-9.19-9.86-13.65,1.55,10.6,6.77,21.65,16.89,26.48a14.55,14.55,0,0,0-2.82,5.5l.16-.82c-3.5.24-7.12.81-10.53-.26-5.31-1.57-9.77-4.92-14.56-7.53a36.27,36.27,0,0,0,23.83,15.76,28.13,28.13,0,0,0,15.53,25.14c7.54,3.48,16.74,3.6,24.12-.38A30,30,0,0,0,249.88,463a26.71,26.71,0,0,0,1.66-26.26c-5-11.07-18.17-18-30-14.95l.68-.37c-3.7-2.23-7.61-4.54-9.86-8.38C209.18,408.6,207.91,403.21,205.19,398.55Z"/><path class="cls-8" d="M400.62,388.35a106.92,106.92,0,0,1,20.86.4c15.29,1.89,31.22,1.8,45.64,7.94,6,2.49,11.22,7.23,13.28,13.5,2.65,7,1,14.54.62,21.78a170.55,170.55,0,0,1-5.83,31.77c-2.71,8.75-6.15,17.65-12.59,24.38-7.62,8.15-18.27,12.75-28.93,15.41-18.64,4.78-38.7,1.09-55.58-7.7-12.24-6.25-21.56-16.92-28.85-28.36a80.76,80.76,0,0,1-13.18-42.66c.16-5.95.81-12.8,5.57-17,6.77-6,15.32-9.43,23.77-12.33a161.54,161.54,0,0,1,35.22-7.14m8.51,25.89c-2.16,2.95-5.83,4.12-8.2,6.83-8.9-.76-18.41,1.79-24.58,8.51-6.36,6.18-8.81,15.69-7,24.27,1.2,7,5.85,13,11.51,17.13,10.34,7.28,25.84,5.94,34.5-3.37,5.61-5.25,8.3-13.06,8.06-20.65a35.06,35.06,0,0,0,23.21-15c-4.73,2.09-8.9,5.38-13.92,6.83-3.43,1.07-7.06.5-10.57.27l.17.82a17.22,17.22,0,0,0-2.83-5.48c10.18-4.77,15.35-15.86,16.93-26.46-3.48,4.66-5.9,10.14-10.31,14.07-3.23,3.26-7.75,4.57-12.06,5.7a8.48,8.48,0,0,0-1.84-1.61c2.68-3.26,3.7-7.47,4.56-11.5a74.3,74.3,0,0,0,1.1-16.91C414.72,403.08,413.2,409.37,409.13,414.24Z"/><path class="cls-9" d="M174.51,390.19c5.92-.95,12-2.22,18-1.34a415.91,415.91,0,0,1-51.1,36l-1,.35c-.46-3.56.46-7.06.84-10.58s1-7.1,3.19-9.86c6.26-3.62,12.54-7.22,18.49-11.34C166.41,391.33,170.57,390.91,174.51,390.19Z"/><path class="cls-10" d="M152,397.43c3.35-1.92,6.87-4,10.87-4-5.95,4.12-12.23,7.72-18.49,11.34C145.82,401.36,149,399.26,152,397.43Z"/><path class="cls-11" d="M409.13,414.24c4.06-4.87,5.59-11.16,8.69-16.59a74.34,74.34,0,0,1-1.1,16.91c-.86,4-1.88,8.24-4.56,11.49a68.19,68.19,0,0,0-11.23-5C403.3,418.36,407,417.19,409.13,414.24Z"/><path class="cls-12" d="M205.19,398.55c2.72,4.66,4,10,7.13,14.5,2.25,3.84,6.16,6.15,9.86,8.38l-.68.37c-3.63,2-7.57,3.33-11.29,5.13C205.74,418.22,204.72,408.2,205.19,398.55Z"/><path class="cls-13" d="M426.06,422c4.41-3.93,6.83-9.41,10.31-14.07-1.58,10.6-6.75,21.69-16.93,26.46-1.76-2.27-3.56-4.53-5.44-6.69C418.31,426.53,422.83,425.23,426.06,422Z"/><path class="cls-12" d="M186.6,408.78c3.41,4.46,5.65,9.81,9.86,13.65,3.23,3.5,7.9,4.92,12.37,6q-2.64,3.44-5.34,6.8C193.37,430.44,188.15,419.38,186.6,408.78Z"/><path class="cls-14" d="M221.5,421.8c11.87-3,25.06,3.88,30,14.95A26.71,26.71,0,0,1,249.88,463a30,30,0,0,1-10.66,9.66c-7.38,4-16.58,3.87-24.12.38a28.11,28.11,0,0,1-15.53-25.14,66.36,66.36,0,0,1,1.1-7.15,14.55,14.55,0,0,1,2.82-5.5q2.7-3.37,5.34-6.8l1.38-1.53c3.72-1.8,7.66-3.13,11.29-5.13m5.23,12.61c-8.32,1.56-14.5,9.73-14.1,18.12-.11,9.6,8.79,18.29,18.46,17.49A17.76,17.76,0,0,0,247,457.3a18.55,18.55,0,0,0-3.57-17.06A17.35,17.35,0,0,0,226.73,434.41Z"/><path class="cls-14" d="M376.35,429.58c6.17-6.72,15.68-9.27,24.58-8.51a68.19,68.19,0,0,1,11.23,5,8.81,8.81,0,0,1,1.84,1.62c1.88,2.16,3.68,4.42,5.44,6.69a17.22,17.22,0,0,1,2.83,5.48,71.64,71.64,0,0,1,1.11,7.12c.24,7.59-2.45,15.4-8.06,20.65-8.66,9.31-24.16,10.65-34.5,3.37-5.66-4.1-10.31-10.12-11.51-17.13-1.77-8.58.68-18.09,7-24.27m13,4.82A17.9,17.9,0,0,0,376,446.84,18.38,18.38,0,0,0,381,465.32a17.31,17.31,0,0,0,16.66,4,18,18,0,0,0,12.69-15.88,18.55,18.55,0,0,0-3.45-12.22A17.49,17.49,0,0,0,389.4,434.4Z"/><path class="cls-6" d="M299,428.9c3.87-5.32,11.31-4.83,17.13-4.29,4.4.34,7.46,4.06,8.91,7.93,4.55,11.66,8.64,23.53,14.2,34.76,4.6,9.34,10.15,18.46,18.13,25.3,8.59,7.89,19.28,12.85,30,17,5.46,2.86,11.67,4,16.84,7.48-2,1-5.86.83-5.83,3.89-.16,4.55.74,9,1.17,13.56s2.46,8.35,4.12,12.38a23.53,23.53,0,0,0,7.83,10.61c2.83,2,5.73,3.9,8.53,5.94A151.23,151.23,0,0,1,399.62,576c-20.71,10.73-43.63,16.83-66.77,19.23-.27,8.18-.15,16.37-.09,24.57,6.16.14,12.28.88,18.43,1.29,1.68,7.74,3.82,15.62,2.6,23.61a28.16,28.16,0,0,1-16.44,22.19c-10.66,4.74-22.62,5.58-34.15,5-8.12-.49-16.43-2.75-22.87-7.92C273.77,658.56,270,650.35,269,642c-1-7.2.15-14.43.9-21.6,7.17-.5,14.34-1.2,21.54-.63-.27-7.91-.62-15.8-1.23-23.68C259,593.9,228,583.6,203.07,564.29c.11-.49.32-1.48.43-2,.78.12,1.57.26,2.36.4a26.7,26.7,0,0,1,.22-4.29c.94-.89,2.46-.47,3.65-.64,2.4-4.64,5.44-9.28,5.59-14.65.15-4.26.69-8.48.72-12.72s-2.34-8-4.37-11.62c3.48-3.74,9.08-2.59,13.15-5.26,6.91-1.77,14-3,20.53-6.06,11.69-5,20.93-14.21,28.52-24.17A115.73,115.73,0,0,0,293,445.14c1.82-5.46,2.88-11.31,6-16.24m-8.64,64.46a2.74,2.74,0,0,0-.63,3.15c1.43,3.95,4,7.75,7.95,9.6,5.08,2.62,11,1.94,16.51,1.64,0-.6-.09-1.79-.13-2.38a77.8,77.8,0,0,0-8-1.21,17.61,17.61,0,0,1-12.1-7.27c-1.13-1.22-2-3-3.59-3.53m-3.78,46.26c.93,3.73,2.35,7.55,5.39,10.08,5.83,4.85,13.9,6.17,21.25,5.11,7.89-1.29,15.32-6.72,17.85-14.46-7.27,2.57-14.39,6.2-22.27,6.34C300.73,547.1,293.33,543.46,286.54,539.62Z"/><path class="cls-11" d="M175.74,432.15c4.79,2.61,9.25,6,14.56,7.53,3.41,1.07,7,.51,10.53.27l-.16.81a66.36,66.36,0,0,0-1.1,7.15A36.27,36.27,0,0,1,175.74,432.15Z"/><path class="cls-12" d="M432.67,438.75c5-1.45,9.19-4.74,13.92-6.83a35.06,35.06,0,0,1-23.21,15,71.19,71.19,0,0,0-1.11-7.12l-.17-.82C425.61,439.25,429.24,439.83,432.67,438.75Z"/><path class="cls-15" d="M226.73,434.41a17.35,17.35,0,0,1,16.65,5.83A18.55,18.55,0,0,1,247,457.3,17.76,17.76,0,0,1,231.09,470c-9.67.8-18.57-7.89-18.46-17.49-.4-8.39,5.78-16.56,14.1-18.12m-4.54,6.46c-3.49,1.32-4.22,6.56-1.14,8.72,2.91,2.44,8.08.32,8.12-3.59C229.68,442.34,225.51,439.48,222.19,440.87Z"/><path class="cls-15" d="M389.4,434.4a17.49,17.49,0,0,1,17.46,6.86,18.61,18.61,0,0,1,3.45,12.22,18,18,0,0,1-12.69,15.88,17.31,17.31,0,0,1-16.66-4A18.38,18.38,0,0,1,376,446.84,17.9,17.9,0,0,1,389.4,434.4m7.49,6.51a5.08,5.08,0,0,0-1.63,8.25c2.71,3.08,8.55,1,8.58-3.16C404.39,442.35,400.18,439.43,396.89,440.91Z"/><path class="cls-16" d="M222.19,440.87c3.32-1.39,7.49,1.47,7,5.13,0,3.91-5.21,6-8.12,3.59C218,447.43,218.7,442.19,222.19,440.87Z"/><path class="cls-17" d="M396.89,440.91c3.29-1.48,7.5,1.44,6.95,5.09,0,4.15-5.87,6.24-8.58,3.16C392.66,446.8,393.67,442.15,396.89,440.91Z"/><path class="cls-18" d="M491.22,440.68c.18.27.55.83.74,1.1-6.35,30.15-17.34,59.76-35.5,84.87-1-3-2.47-6.3-.69-9.3a37.69,37.69,0,0,1-6.55-7.66c1.95-2,3.78-4.18,5.84-6.1,7.41-5,14.59-10.66,19.58-18.19C483.59,472,487.37,456.08,491.22,440.68Z"/><path class="cls-19" d="M149.4,492.75c3.23,1.88,5.8,4.6,8.66,7,10.57,8.38,23.95,12.09,37.18,13.47-2.34.86-4.59,1.92-6.86,2.93,8.52,2.82,13.74,12.64,12,21.32-.88,4.25-1.74,8.7-4.14,12.39-1.46,2.46-4.55,2.24-7,2.45A180.3,180.3,0,0,1,149.4,492.75Z"/><path class="cls-20" d="M290.32,493.36c1.64.55,2.46,2.31,3.59,3.53a17.57,17.57,0,0,0,12.1,7.27,77.8,77.8,0,0,1,8,1.21c0,.59.1,1.79.13,2.38-5.51.3-11.43,1-16.51-1.64-3.91-1.85-6.52-5.65-7.95-9.6A2.74,2.74,0,0,1,290.32,493.36Z"/><path class="cls-21" d="M427.87,513.34c9.64-1.3,18.62-5.33,27.19-9.75-2.06,1.92-3.89,4.07-5.84,6.1a37.43,37.43,0,0,0,6.56,7.66c-1.79,3-.36,6.31.68,9.3a173.67,173.67,0,0,1-15.81,19.07c-2.23,2.32-4.63,4.48-7,6.66.16-1.08.35-2.12.54-3.17-2.44-.09-5.3.45-7.24-1.4-5.71-5-11.31-11.46-11.13-19.49-.39-4.54,1.81-8.61,4.45-12.1-3.66-1-7.38-1.71-11.09-2.49C415.41,513.7,421.67,514.12,427.87,513.34Z"/><path class="cls-18" d="M387.37,509.63c7.21,1.68,14.51,3,21.82,4.11,3.71.77,7.43,1.44,11.08,2.48-2.63,3.5-4.83,7.56-4.44,12.1-.18,8,5.41,14.53,11.13,19.49,1.94,1.85,4.8,1.31,7.24,1.4-.19,1-.38,2.1-.54,3.17A142.36,142.36,0,0,1,420,563.49c-2.8-2-5.7-4-8.53-5.94a23.57,23.57,0,0,1-7.83-10.62c-1.66-4-3.69-8-4.12-12.37s-1.33-9-1.17-13.56c0-3.06,3.78-2.88,5.83-3.89C399,513.66,392.83,512.49,387.37,509.63Z"/><path class="cls-18" d="M188.38,516.12c2.27-1,4.52-2.07,6.86-2.93,9.83,1.1,19.72.68,29.58.35-4.07,2.67-9.67,1.52-13.15,5.26,2,3.59,4.36,7.34,4.37,11.62s-.57,8.46-.72,12.71c-.15,5.38-3.19,10-5.58,14.66-1.2.17-2.72-.25-3.66.64a26.64,26.64,0,0,0-.22,4.29c-.79-.14-1.58-.28-2.35-.4-.12.49-.33,1.48-.44,2a141.24,141.24,0,0,1-13.85-12c2.46-.22,5.54,0,7-2.45,2.41-3.69,3.26-8.15,4.14-12.39C202.12,528.76,196.9,518.94,188.38,516.12Z"/><path class="cls-22" d="M286.54,539.62c6.79,3.84,14.19,7.48,22.22,7.07,7.88-.14,15-3.77,22.27-6.34-2.53,7.74-10,13.17-17.85,14.46-7.35,1.06-15.42-.26-21.25-5.11C288.89,547.16,287.47,543.35,286.54,539.62Z"/><path class="cls-5" d="M433.66,552.38c2.36-2.18,4.76-4.34,7-6.66a376,376,0,0,0,16.17,91.46c6,19.6,14.4,38.32,22.21,57.23,13,30,25.9,60.23,43.24,88-6.32-6-11.84-12.83-17.53-19.43-23-27.71-43.6-57.23-63.44-87.2-6.72-10.54-13.82-20.85-20.05-31.69-8.76-15.37-15.75-31.91-19.12-49.33-1.41-6.18-1.31-12.57-2.5-18.77A151.12,151.12,0,0,0,420,563.49,141.26,141.26,0,0,0,433.66,552.38Z"/><path class="cls-2" d="M253.35,624.49c5.41-1.73,10.85-3.77,16.59-4.09-.75,7.17-1.86,14.4-.9,21.6.91,8.35,4.73,16.56,11.29,21.93,6.44,5.17,14.75,7.42,22.87,7.91,11.53.64,23.49-.2,34.15-4.94a28.16,28.16,0,0,0,16.44-22.19c1.22-8-.92-15.87-2.6-23.61,12,.52,24.19,4.56,33.42,12.46a69.46,69.46,0,0,1,13.52,14.66c-1.76,10.16-1.69,20.52-2.79,30.76-1.16,18.65-3,37.26-3.85,55.92-2.42,25.7-3.53,51.49-5.44,77.22-.36,1.1-.69,2.2-1,3.33-7.65-.75-15.18-2.39-22.84-3.13a488.5,488.5,0,0,0-73.76-2.68c-20.55.93-41.17,1.34-61.63,3.62-.84-9.17-1.91-18.32-2.66-27.49-1.27-11-1.3-22.1-2.09-33.15-.48-11.62-1.09-23.22-1.22-34.85-.88-16-.45-32-.6-48-.16-5.46.73-11.06-1-16.34,4.24-7.49,9.36-14.62,16.07-20.11C240.6,629.1,247,626.74,253.35,624.49Z"/><path class="cls-23" d="M395.34,679c1.1-10.24,1-20.6,2.79-30.76a307,307,0,0,1,20.53,35.39c15.77,31.41,29,64,42,96.64,13.13,33.8,26.46,67.53,40.42,101,11.06,27,22.61,53.88,33.65,80.92,2.34,5.42,6,10.11,8.78,15.29A142.75,142.75,0,0,1,555.74,1005c2,6.45,3.15,13.34,2,20.06-.81,4-2.81,8.06-6.37,10.2-3.81,1-7.82-.16-11.34-1.64-9.64-4.24-16.68-12.73-21.68-21.76-3.22-5.64-5.18-11.86-7.73-17.82-1.22,6.36,0,14-4.52,19.2-3.54,1.08-6.79-1.78-9-4.19-5.45-6.63-5-16-3.27-23.93.65-3.85,3.22-7.89,1.16-11.73-12.9-29.25-25.24-58.75-38.3-87.93-1.91-4.82-4-9.59-6.1-14.32-19.67-45.42-39.21-90.9-59.08-136.24C392.3,716.24,394.18,697.63,395.34,679Z"/><path class="cls-23" d="M194.46,699.57c7-16,14.21-32.13,24.76-46.18,1.76,5.29.87,10.89,1,16.34.15,16-.28,32,.6,48,.13,11.63.74,23.24,1.22,34.85-2,4.62-4.16,9.18-6.08,13.84Q171.47,870.29,126.8,974c-1.37,2.66-.12,5.54.59,8.19a42.33,42.33,0,0,1,1.59,18c-.73,5.89-4.41,11.7-10.13,13.8a3.48,3.48,0,0,1-4.51-2.06c-2.58-5.32-2.2-11.41-3-17.13-2.34,4.77-3.89,9.89-6.26,14.67-4,8.35-9.68,16.1-17.26,21.55-4.55,3.2-9.95,5.74-15.64,5.45-2.66,0-4.43-2.42-5.72-4.45-3.4-5.54-3-12.43-1.79-18.55,2.48-11.85,8-22.79,14-33.22,3.1-5.75,7.35-10.82,9.94-16.83q30-75.3,60.26-150.51C164,775.17,179,737.25,194.46,699.57Z"/><path class="cls-4" d="M386.05,812.13c1.91-25.74,3-51.53,5.43-77.22,19.88,45.33,39.42,90.81,59.09,136.23-7-.25-13.65-2.51-20.43-4-5.49-1.34-11-2.75-16.45-4.14-8.72-2-17-5.61-25.75-7.5C384.23,841.3,386.29,826.58,386.05,812.13Z"/><path class="cls-24" d="M226.82,813.26c20.46-2.28,41.08-2.69,61.63-3.62a488.5,488.5,0,0,1,73.76,2.68c7.66.74,15.19,2.38,22.84,3.13.31-1.13.64-2.22,1-3.32.24,14.45-1.82,29.17,1.88,43.37A63.09,63.09,0,0,0,392.11,871c-45.27-6.65-91.29-10.45-137-6.3-11.87.86-23.59,3-35.39,4.48a60.86,60.86,0,0,0,1.48-6.49l1.17.45c.66-4.25,2.1-8.33,2.67-12.6l1.13.68c.12-7.24,1.91-14.35,1.73-21.6C227.9,824.14,227.26,818.71,226.82,813.26Z"/><path class="cls-2" d="M255.11,864.69c45.71-4.15,91.72-.36,137,6.3,1.22,1.58,2.6,3.07,3.92,4.6,4.48,5.35,8.77,10.86,13.18,16.29,8,10.51,15.83,21.08,23.18,32,8.89,13.14,17.28,26.63,26,39.87,2.66,5.18,6,10,9,15,19,30.9,37.15,62.4,54.67,94.2,3.61,6.72,7.14,13.49,10.84,20.17,8,15.74,16.56,31.23,24.45,47.05,3.65,7.19,7.23,14.42,11,21.56,3.66,8.24,8.67,15.77,13.21,23.54,3.19,5.46,6.51,10.85,9.79,16.26,2.67,4.83,5.73,9.41,8.42,14.23-5.83,6.79-13,12.22-20,17.74-2.89-8.87-6.91-17.31-10.29-26C541.65,1141,512,1075.1,478,1011.42Q452.91,965.55,425,921.31c-3-4.46-5.42-9.29-9-13.3,2.34,5.73,5.94,10.8,9,16.18,17.76,31.28,34.27,63.29,49,96.15,33.28,73.15,63.33,147.73,92.86,222.47-16.21,10.08-34.84,14.91-52.88,20.5l-2.31-.57c-20-71.25-40.89-142.29-65-212.25C431,1005.23,413.3,960.77,394.3,916.9c-3.08-6.33-5.12-13.16-9-19.08,1.88,7,5.05,13.66,7.55,20.49Q415.33,976,434,1035.16c23.14,75.75,41.17,153,56.56,230.64-10.76-1.49-21.43,1.29-31.71,4.12-3.53-17-8.28-33.64-12.15-50.52q-36.49-148.86-73-297.72c-2-7.31-3.19-14.86-5.75-22,.67,7.13,2.56,14.07,3.93,21.08q32.91,156.4,62.78,313.43c2.46,13.42,5.45,26.75,7.45,40.26-16.43,4.21-33.54,2.5-50.2,5-2.25.32-4.47.69-6.7,1-2,.31-4.06.66-6.07,1-.17-8-1.66-15.8-2.42-23.72-15.87-130.12-31.3-260.3-47.27-390.4-1,13.28-.14,26.63-.93,39.93q-.24,27.24-.46,54.5c0,25.27-.89,50.52-.86,75.78,0,25.88-.85,51.75-.89,77.64-.2,19.09-.13,38.18-.69,57.27-.44,23.71,0,47.46-.88,71.17,0,12.71-.28,25.43-.25,38.14-2.85,0-5.69,0-8.51-.11-8.24-.49-16.49-.54-24.73-.23-8.72.13-17.35,1.41-26,1.9,1.14-19,3.57-38,5-57,4.09-46,7.64-92,10.35-138.11,3-57.83,1.75-115.86,6.94-173.59.63-10.26,2.16-20.46,2.5-30.74-2,7.81-2.5,15.88-4,23.79Q257.62,1094.29,229.3,1281c-8.73-.32-17.28-2.36-25.73-4.41-.82.7-1.65,1.38-2.46,2.1,3.31-19.64,5.64-39.43,8.54-59.13q23.88-168.87,47.65-337.75c.6-3.85,1.11-7.7,1.33-11.58-5.34,17-9.17,34.47-13.83,51.69-20.33,79.52-39.67,159.32-56,239.76-7.71,36.59-14.57,73.36-21.67,110.07-9.76-2.19-19.5-4.44-29.21-6.83q44.81-177.34,89.61-354.68c2.34-10.26,5.53-20.34,7.21-30.73-11.28,33.76-21.53,67.87-32.24,101.82q-35.92,115.59-70.55,231.58c-4.67,15.75-9.53,31.45-14,47.25a78.41,78.41,0,0,1-16.16-4.34,178.77,178.77,0,0,1-30.87-13.93c21-67.31,48.73-132.27,75.5-197.43,6.69-16.08,13.22-32.23,20.1-48.23a68.35,68.35,0,0,0,2.71-7.66c-3.39,5.86-5.55,12.32-8.39,18.46q-45.28,103.57-90.36,207.25c-3.14,7.15-6.11,14.35-9.53,21.37-7-4.67-11.14-12.39-18-17.16-1.87-1.41-3.67-2.9-5.47-4.36.38-2.2.76-4.4,1.26-6.56q7.14-20.83,16.33-40.86c5.21-10.63,9.88-21.5,15.23-32.06,8-17.22,15.84-34.49,24.44-51.41,15.85-30.69,32.75-60.82,49.87-90.81q6.09-10,11.89-20.21c17-27.94,34-55.92,51.18-83.76,4-6.41,7.61-13.13,12.11-19.24C231.52,867.72,243.24,865.55,255.11,864.69Z"/><path class="cls-24" d="M328.54,907.28c.79-13.3,0-26.65.93-39.93,16,130.1,31.39,260.28,47.26,390.4.77,7.92,2.26,15.75,2.43,23.72-10.42,2.08-21.08,2.08-31.64,1.87a129.47,129.47,0,0,1-16.36-1,59.84,59.84,0,0,0-6.65-.56c0-12.71.29-25.43.25-38.14.85-23.72.44-47.46.88-71.17.56-19.09.49-38.18.69-57.27,0-25.89.91-51.76.88-77.65,0-25.25.84-50.51.87-75.77C328.19,943.61,328.38,925.44,328.54,907.28Z"/><path class="cls-24" d="M244.8,921.87c4.66-17.22,8.48-34.68,13.83-51.69-.23,3.88-.73,7.73-1.33,11.58q-23.81,168.87-47.65,337.75c-2.9,19.7-5.23,39.49-8.54,59.13l-.66.56c-4.11-.36-8.16-1.14-12.25-1.65.23-.42.47-.82.71-1.21-5.89.09-11.46-2.19-17.31-2.48.2-.43.39-.84.59-1.24-1.71-.3-3.41-.59-5.09-.92,7.1-36.71,14-73.48,21.66-110.06C205.12,1081.19,224.47,1001.39,244.8,921.87Z"/><path class="cls-24" d="M202.47,981.28c10.7-33.95,21-68.06,32.24-101.82-1.69,10.39-4.88,20.47-7.21,30.73q-44.91,177.32-89.62,354.68c-6.66-1.59-13.36-3-20-4.76,4.47-15.8,9.33-31.5,14-47.25Q166.64,1096.9,202.47,981.28Z"/><path class="cls-24" d="M286.07,907.65c1.47-7.91,2-16,4-23.79-.34,10.28-1.88,20.48-2.5,30.74-5.19,57.73-3.9,115.75-7,173.59-2.7,46.09-6.25,92.13-10.35,138.11-1.46,19-3.88,38-5,57-9.46.15-19,.14-28.38-1.1-2.54-.31-5.08-.53-7.63-.62l.1-.67Q257.58,1094.28,286.07,907.65Z"/><path class="cls-24" d="M385.3,897.82c3.87,5.92,5.92,12.75,9,19.08,19,43.87,36.73,88.32,52.18,133.59,24.16,70,45.08,141,65,212.25l2.31.57a94.6,94.6,0,0,1-22.69,5l-.6-2.47c-15.39-77.66-33.42-154.89-56.55-230.64q-18.6-59.09-41.14-116.85C390.35,911.48,387.18,904.87,385.3,897.82Z"/><path class="cls-24" d="M368,899.67c2.56,7.15,3.73,14.7,5.75,22q36.54,148.85,73,297.72c3.87,16.89,8.62,33.56,12.14,50.52-5.58,1.49-11.07,3.28-16.71,4.52-2-13.5-5-26.84-7.45-40.26q-30-157-62.77-313.43C370.52,913.74,368.64,906.8,368,899.67Z"/><path class="cls-24" d="M415.94,908c3.6,4,6,8.84,9,13.3q28,44.15,53.06,90.11C512,1075.1,541.65,1141,569.45,1207.51c3.38,8.68,7.4,17.12,10.29,26a130.74,130.74,0,0,1-13,9.31c-29.53-74.74-59.58-149.32-92.87-222.47-14.67-32.86-31.18-64.87-48.94-96.15C421.88,918.81,418.28,913.74,415.94,908Z"/><path class="cls-3" d="M160.8,1007c2.84-6.14,5-12.59,8.4-18.46a70.4,70.4,0,0,1-2.71,7.66c-6.89,16-13.41,32.15-20.1,48.23-26.78,65.16-54.47,130.12-75.5,197.43a81.69,81.69,0,0,1-10-6.24c3.42-7,6.4-14.22,9.53-21.37Q115.6,1110.61,160.8,1007Z"/><path class="cls-23" d="M379.15,1281.47c2-.35,4-.7,6.08-1,0,.43,0,1.28,0,1.7-1.19,8.07-.37,16.24-.6,24.36q-.27,92.43-.14,184.85c.06,5.26-.61,10.65.89,15.81.08.36.25,1.08.35,1.45-1.23,8.86-3.16,17.76-7.11,25.85-3.7,7.78-9.23,15.13-17.14,19-4.31,2.17-9.8,3.79-14.28,1.17-5.31-3.23-8.15-9.1-10.32-14.68a108.65,108.65,0,0,1-6.13-33c.09-.39.25-1.17.34-1.56,1.59-5.48.87-11.22.93-16.83.08-61.62-.08-123.22,0-184.84-.22-6.87.69-13.83-.8-20.6l-.07-.81a129.47,129.47,0,0,0,16.36,1C358.08,1283.55,368.74,1283.55,379.15,1281.47Z"/><path class="cls-23" d="M265.21,1283.34c8.7-.49,17.33-1.77,26.06-1.9.1,49,0,98,0,147.08.12,27.54-.22,55.1.14,82.64-1.75,6-2.49,12.28-4.89,18.11-3.55,9.35-9.19,18.54-18.17,23.52-4.25,2.36-9.52,4.4-14.29,2.42-5.25-2.34-8.28-7.63-10.47-12.65-4.61-11-6.49-22.89-7.19-34.69.09-.38.25-1.15.34-1.53,1.44-4.88.91-10,.91-15q0-93.79,0-187.62c-.19-6.88.63-13.85-.78-20.65l-.08-.85C246.23,1283.48,255.75,1283.49,265.21,1283.34Z"/><path class="cls-25" d="M384.6,1306.52c.23-8.12-.59-16.29.6-24.36.58,20.5,0,41,.31,61.53-.14,54.49.15,109-.16,163.49-1.5-5.16-.83-10.55-.89-15.82Q384.42,1398.95,384.6,1306.52Z"/><path class="cls-26" d="M236.91,1283.09c1.41,6.8.59,13.77.78,20.66q0,93.81,0,187.62c0,5,.53,10.1-.91,15,0-2.85-.16-5.69-.17-8.51q0-75.79,0-151.58C236.79,1325.2,236.24,1304.13,236.91,1283.09Z"/><path class="cls-27" d="M331.23,1283.14c1.49,6.78.58,13.74.8,20.6-.12,61.62.05,123.23,0,184.85-.06,5.61.66,11.35-.93,16.83-.53-21-.08-42-.23-63q0-37.76,0-75.5c.09-7.8,0-15.6.06-23.39C331.12,1323.38,330.49,1303.25,331.23,1283.14Z"/><path class="cls-24" d="M327.79,1520.39a30.4,30.4,0,0,1,2.94-13.42,108.39,108.39,0,0,0,6.12,33c2.17,5.57,5,11.45,10.32,14.68,4.48,2.61,10,1,14.29-1.18,7.9-3.85,13.43-11.2,17.13-19,4-8.1,5.88-17,7.11-25.85,2.81,3.9,3.84,8.65,5.41,13.13a52.87,52.87,0,0,1,2.07,10.6,10.35,10.35,0,0,1,1.16-.68c.46,7.83,2.19,15.56,1.78,23.46.41,8.49-1.32,16.86-1.76,25.32-.41-.26-.8-.51-1.18-.73-.06,5.26-1.77,10.28-2.61,15.43-.36-.21-.7-.38-1-.54a45.27,45.27,0,0,1-4.23,12.94c-3,5.9-5.46,12.14-9.31,17.6-3.51,4.83-7.94,9.26-13.54,11.57-7.63,1.58-15-2.46-20.07-7.89a165.07,165.07,0,0,1-11.7-21.61c-1.29-4.15-2.82-8.31-2.91-12.69a11.51,11.51,0,0,0-1.12.68,186.53,186.53,0,0,1-3.35-50.29,148.6,148.6,0,0,0,1.41-16c.42.22.86.45,1.3.71,0-3.35.23-6.67.45-10C326.89,1519.86,327.33,1520.11,327.79,1520.39Z"/><path class="cls-24" d="M233.13,1513.79c1.08-2,2.25-3.93,3.31-5.92.7,11.8,2.58,23.73,7.19,34.69,2.19,5,5.22,10.31,10.47,12.65,4.78,2,10-.06,14.29-2.42,9-5,14.62-14.17,18.18-23.52,2.39-5.83,3.13-12.11,4.88-18.11l.39-.85a60.4,60.4,0,0,1,1.49,14.19c.37-.87.75-1.71,1.15-2.52.24,7.67,1,15.31,1.72,23,.09,8.46.41,17-.75,25.37-.78,8.42-3.45,16.51-4.69,24.86-.43-.23-.86-.44-1.27-.62-.13,2.07-.28,4.15-.38,6.24-.5-.26-1-.5-1.47-.73-.12,1.76-.25,3.54-.36,5.33-.5-.24-1-.46-1.46-.67-.12,1.69-.25,3.41-.36,5.14-.43-.09-.84-.15-1.25-.21-1.92,6-5.71,11-9.2,16.18-2.75,3.59-5.46,7.53-9.5,9.79-5.19,2.2-11.68,1.91-16.25-1.6a43.09,43.09,0,0,1-12.36-13.46,103.51,103.51,0,0,1-10.55-28.19,131.44,131.44,0,0,1-3.71-29.67,133.45,133.45,0,0,1,2.63-25.92c.53-2.34,1.17-4.64,1.77-6.93A76,76,0,0,1,233.13,1513.79Z"/></svg>