<svg id="girlbigcoffee_Image" data-name="girlbigcoffee Image" xmlns="http://www.w3.org/2000/svg" viewBox="0 0 328.4 320.79"><defs><style>.cls-1{fill:#dce1de;}.cls-2{fill:#fdd8c0;}.cls-3{fill:#ffcb05;}</style></defs><title>girl-15</title><path class="cls-1" d="M195.88,172.27s-20.29,7.61-32.25,8.33-33.69-3.26-33.69-3.26l7.64-40.15,3.95-38.83L141.42,95s4.1-12.9,17.14-14a16.34,16.34,0,0,1,17,10.14l3.62,3.26-2,2.74,6.74,21.9L204.3,84.39l3.84.48,2.23,2.26L189,150.53l6.9,21.75Z"/><path class="cls-2" d="M111.89,142.64l8.75-4.93,9.19.89,4-4.93V120.88l-3.25-5.54-3.48.61-.67-2.24,4.87-.77-.48-4.32-.13-5.23s-1.12-2.47-2-2.69-5.38-4.49-5.38-4.49l-3.81,1.35-3.82,3.14-3.36,1.79-3.32,7.1L100,113v8.75l8.75-1.12,3.12,22Z"/><path class="cls-2" d="M56,98.68s6.05-1.79,11.66-.22,9.65,2.46,9.65,2.46L78,96.44s8.52,1.34,11.66-.23,3.37-3.36,3.37-3.36l-1.13-2,.9-5.16.9-2.47,2.69-1.34-.9-3.59,2.47-2s1.79-2.47-.67-4a25,25,0,0,1-4.49-3.81l.67-7.62s-1.79-5.61-2.69-5.16-8.74,8.07-8.74,8.07L50.22,82.47,55.59,93.3,56,98.69Z"/><path class="cls-3" d="M54.24,90.61l1.5-2.14L57.16,87l2.24-1.57L66.8,85l9.87-9L80,66.16,85.87,61l3-3.25,1.94-2.13,2.62-4.11s.52-4.64-4.86-6.21-7.4-1.12-7.4-1.12l-2.47-2.24s-7.18-.9-9-.23-9.2-2.47-12.56,0-10.77,7.85-11.89,9.87a59.53,59.53,0,0,0-3.81,10.54c-.45,2.25-.67,9-.67,9l-.89,7.54L35,82.31l-1.57,3.81L31,88.23,27.55,92l-3.36,2.47L28.9,96l7.85-1.12L50,91.11l4.26-.5Z"/><path d="M65.58,51.51c.49.07.47.65,1,.72.06,1-.63,1.29-.48,2.4-2.36,1.71-4.2,4-7,5.28-1,1.2-2,2.34-3.12,3.84-.24.33-.82.49-1,.72-.26.4-.37,1.3-.72,1.92-.18.31-.63.72-.72,1-.4,1.05.36,3.13-1.68,3.12a7.9,7.9,0,0,1-.24-2.64c.31-3,2.36-5.47,3.84-7.44,1.1-.66,2.31-1.21,2.88-2.4.75.11.85-.44,1.68-.24,1-1,1.61-.67,2.64-1.68a4.07,4.07,0,0,0,1-1.68c.09-.22.42-.11.48-.24C64.54,53.25,64.5,51.89,65.58,51.51Z"/><path d="M89.82,64c.17,1.37-1.52.88-2.64,1a2.81,2.81,0,0,1-2.16.48A8.76,8.76,0,0,1,87.42,64,3.4,3.4,0,0,1,89.82,64Z"/><path d="M68.94,65c1.6,2.83-1.84,4.47-2.88,6.24a5.62,5.62,0,0,0-3.36,1.92,26.44,26.44,0,0,0-14.64,6.48v1a3.82,3.82,0,0,0-2.4,2.88h-1c-.16,1.12-.5,2.06-1.44,2.4-.47,2.08-1.07,4-2.4,5.28-1,0-.78-1.8,0-1.92-.15-1.75.93-2.28,1-3.84.78.29.18-.78,1-.48,0-2.89,1.67-4.09,1.92-6.72,2.14-1.92,4.89-4.39,8.64-5,1.3-.23,2.4-.59,4.08-1,1.25-.28,2.85-.59,4.08-1,.31-.1,0-.35.24-.48s.89.13,1.2,0a21,21,0,0,0,2.88-1.92c.21-.19-.11-.39.24-.48.85-.23.5-.5,1-1.44.11-.23,1.13-.53,1-1.44.42-.06,1.2.24,1-.48Z"/><path d="M164.22,83.43h1.68c.79,1.37,2.22,2.1,2.88,3.6-.32,1.22-.32.45,0,1.68-1.35.14-1.46-.95-1.92-1.68C166,85.76,164.27,85.45,164.22,83.43Z"/><path d="M37.74,83.91h1.2c.14,1.1-.66,1.26-1.44,1.44C37.32,84.61,37.74,84.47,37.74,83.91Z"/><path d="M53.1,85.83c0,1.08-1.45,1.52-2.4,2.16-.67.44-.8.84-1.68,1.2-.27.11-.71-.13-1,0-.57.28-2.48,1.2-3.84.72V88.47c3.37-.15,6.09-1,7.44-3.12C52.43,85.21,52.86,85.42,53.1,85.83Z"/><path d="M38.94,86.79c.6,0,.75.37,1,.72C39,88.88,37,89.25,37,91.59c-.41.39-1.08.52-1.44,1a4.11,4.11,0,0,1-.24-2.4C35.72,88.4,37.94,87.77,38.94,86.79Z"/><path d="M12.06,102.87c.2,1.88-.86,2.5-1.44,3.6a4.32,4.32,0,0,1-1.92-.24c-.06-.42.24-1.2-.48-1,.49-.63.47-1.77,1-2.4Z"/><path d="M111.66,115.59a3.11,3.11,0,0,1-2.16,2.88c-.36-1.72,1-1.67,1.2-2.88Z"/><path d="M129.9,119.43v1.44c-.78.3-.18-.78-1-.48C129,119.83,129.09,119.26,129.9,119.43Z"/><path d="M129.42,123.27c1.85-.53,1.85,2.38.48,2.4A3.17,3.17,0,0,1,129.42,123.27Z"/><path d="M77.34,162.63c2.45,2.3-.6,6.1-.48,9.12a10.78,10.78,0,0,0-1.68,4.08A29.42,29.42,0,0,0,74,187.11c.26,3.26.66,6.72,1,10.32.31,3.88,1.11,7.81,1.44,11.52.5,5.68-.12,11.28,0,17,0,1.52.56,3.23-.48,4.56-1.44-.93-1.07-3.14-1.2-4.56-.51-5.57-.46-11.24-1.2-17-.93-7.17-2.08-17.31-1.68-25.2.21-4.17,1.7-8,2.16-11.76.88-.24.62-1.62,1.44-1.92.2-2.59,1.26-4.81,1-7.2C76.44,162.65,77.27,162.06,77.34,162.63Z"/><path d="M44.94,103.83c.24-1.12,1.2-1.52,2.16-1.92,1.25-2.27,2.45-4.59,4.8-5.76.87.17,1.29.79,2.16,1,.81-2.71-.65-4.67-2.16-4.8-1.12-.1-1.62,1-2.88,1.44-2,.68-3.71.13-5.52.24-1.37,1.56-5.6,3.85-7.68,1.68-1.84,1.91-6.92,3.1-9.36,1-1.52,1.11.09,3.33-.24,5.28-.18,1-1.12,1.31-1,2.4-1.65.21-4.32,1.08-5.76,0-.07-3.19,3.26-3,2.88-6.48-2.54-.62-3,2.75-5.28,3.12,0,1.21-.84,1.56-1.2,2.4-1.48.2-2.43-.13-2.88-1,1.57-2.27,4.17-3.51,6.72-4.8-.56-2-2.68-1.12-5-1.44-1,0-.46,1.46-1,1.92-.51,1.18-2.89.48-2.64,2.4a3.2,3.2,0,0,0-2.4.48c-.94-1-.31-2.74,0-3.84,1.66-.3,2.12.6,3.36.72.76-.76.79-2.25,1.68-2.88,1.57.18,3.26.26,4.8.48-.76-1.64-2.33-2.47-3.36-3.84-.76-.12-.85.43-1.68.24,0-1.74,1-4.24,2.4-5,.62-.36.64-.44,1.68.24,1.23.81,1.79,2.74,3.12,3.6,1.22.11.54-1.7.72-2.64a20,20,0,0,0,2.4-3.12c2.2-.28,3.57.27,4.08,1.68.14.7-1.13,3.14-1,3.84.85.62.89-1.24,1.92-1.2.32-.07.2-.6.24-1,1.54-.14,1.74-1.61,3.6-1.44,0,1.09-1.11,1-1.68,1.44-.7,1.31-2,2-2.4,3.6-.78.5-2.18.39-1.92,1.92.9,1.13,2.24-.79,3.6,0,1.2-1.12,1.08-3.55,3.84-3.12,0,1.91-2,1.82-1.68,4.08,1.07,1.06,2.81-1.78,3.36.24.41-2.47,4.61-1.15,5.76-2.88.77-.14,1.2.07,1.44.48,1.36-1.33,4.74-2.48,7-1.44,1.36-1.44,3.58-2,5.76-2.64-.3-.2-1.45-.76-.72-1.2.69-.89,4.36-1.77,4.8,0-.15,1.21-2.83-.1-3.36.72-.17,1.23,1.19-.45,1.44.48a1.83,1.83,0,0,1,.48,1.68c-1.21.17-1.34-.74-2.64-.48-.31,1.45,1.38,2.3,1.68,4.08.16,1-.12,1.84,0,3.12a28.12,28.12,0,0,1,5.52-.24c4.58.41,8.71,2.77,13.44,2.88.62-2.81-1.9-3.67-1.2-5.76,1.5-.66,1.8,1,3.12,1.68,4.17,2.15,11,.8,13.68-1.68.48-2.16-1-2.32-1.92-3.12-.2-1.79,1.16-2,1.44-3.36-.45-1.51-2.13-3.26-.48-4.8.77-.14,1.2.07,1.44.48a7.12,7.12,0,0,1,1.44-1.2c.44-.38.73-1.08,1.44-1.2-.24-1.55-1.44-1.85-1.2-3.12s1.93-1.25,2.88-2.16c.37-.35-.17-.83.72-1a5.4,5.4,0,0,0-4.32-3.12c-.24-.64-.4-1.36-1.2-1.44-.43-.45-.08-1.68-1.2-1.44-1-.14-.28,1.32-.48,1.92-.77.59-.34,2.38-1.2,2.88-.14,1,1.29.47,1,1.68-1.09,1-1.59-.62-2.64-1-.1-1,.79-1,.48-2.16-1.63.21-1.64,2-3.6,1.92-.27-1.5,1-2.16,1.68-2.88s1.42-1.61,2.16-2.4c.16-.74-1.47-.9-.72-1.44.34-1.21,2-.08,2.64,0,.56-.64.56-1.83,1.68-1.92.82-2.58.59-7-1.2-8.4-1,.28-.73,1.84-1.44,2.4-2.73,1.35-5.17,3-5.76,6.48h-1a5.72,5.72,0,0,1-2.88,3.84c-.67,3.09-2,5.53-2.88,8.4C74.64,78.6,74.37,81.21,73,83c-.73.93-2,1.19-2.4,2.4A2.38,2.38,0,0,0,68,86.79c-.13.53.46.34.48.72,1.5.94,2.14-1.05,3.84-.72,1,2.37-2.51,1.88-3.36,3.12-1.23-.13-2.11-.61-3.36-.72a3.45,3.45,0,0,0-1-2.16c-2-1-4.41-.77-6-1.68-.13-.07-.62.11-.72,0-.55-.62-.14-.06-1.2-.48-.25-.1-.19-.38-.48-.48s-.68.1-1,0-.17-.43-.48-.48c-1-.17-2,.12-3.12,0-.86.19-1.82,1.53-2.88.72-.68-1,1.2-1.27,1.44-2.16,3.57-.18,7.37-.68,9.12,1.92.79-.08,1.48,0,1.68.48a42.14,42.14,0,0,1,6-1.44c2.3-1.62,5.1-2.74,6.24-5.52.7-.5,1.57-.83,1.68-1.92.73,0,1.58.14,1.44-.72-.68-.29-1.63.22-2.16.48-2.39,1.19-4.55,3.41-8.16,3.36-.76.57-3.39,1.66-4.32.48.75-1,2.3-.31,3.36-.48,1.48-.23,2.68-1,3.84-1.2,2.43-2.21,6.12-3.16,7.2-6.72a22,22,0,0,0-7.44,2.64c-1.36.71-2.49,2.09-4.08,1.92-.15-1,1-1.39,1.68-1.92a14,14,0,0,1,7-3.6c.84-1.16,2.31-1.2,3.36-1.92a16.31,16.31,0,0,0,2.88-2.88c.15-.2.25-.65.48-1,.41-.56.45-.67,1-1.44a3.87,3.87,0,0,0,.72-1.2A15.6,15.6,0,0,0,83.1,58c2.45-1.87,5.64-3,5.76-7.2,2.16-.24,2.37,1.47,2.88,2.88.57-.7,1.08-1.47,1.68-2.16-.79-.66-.84-2.35-1.92-2.64s-.81-1.66-1.92-2.64A5.36,5.36,0,0,0,86.94,45c-1.39-.25-3.06.34-4.8,0-2.16-.42-3.68-2.34-5.28-3.12a16.22,16.22,0,0,0-5.28.24c-3.46.46-7.13-1.22-10.08-.24a12.86,12.86,0,0,0-2.16,1.44c-1.5,1-3.19,1.63-4.32,3.12a9.71,9.71,0,0,0-4.8,2.88H48.78c-.93.75-1.51,1.85-2.64,2.4-.77,5.71-3.87,9.1-3.36,16.08-.3.78.78.18.48,1v3.6c1.11.81,1.08,2.76,1.92,3.84-.24.72-1.11.81-1.2,1.68-1.09.45-.42-.86-1-1a1.56,1.56,0,0,1-1.2.24c-.93.89.85,3.54-.48,4.8-1-.26-1-1.56-1.92-1.92-.59.21-.88.72-1.92.48-1.38,1.5-1.75,4-3.36,5.28-1.27-.93.31-2.87.72-4.32,1.83-.8,3.09-2.19,5-2.88V75.27A5,5,0,0,0,39.42,70c-.64-6.88,1.8-10.68,2.88-15.84,1.36-1,1.86-2.94,2.4-4.8,1-.3,1.42-1.3,2.64-1.44,1.07-1,2.53-2.21,3.84-3.36a35.34,35.34,0,0,1,4.56-2.64,13.7,13.7,0,0,1,7.92-1.68,42.9,42.9,0,0,0,5,.24c2.38-.18,4.45-.71,6.24-.48,2.11.28,3.94,1.36,5.76,1.68-.17.93,0,.67.72,1,.15.06,1,.9,1.2,1,1.75.48,5.08.11,7.44.48a23.85,23.85,0,0,1,3.12,1c.51,1.54,2.09,2.28,2.16,4.32.06,1.8-2.31,4-.24,5.28l.48-.24a6,6,0,0,0,2.16-.24v-2.4c1-.88.63-3,1.68-3.84,1.56.7.24,3.41-.24,4.32v1.92c-1.58,1.8-4,.81-6,1.44.82,2.78,3.94,0,5.52.24-.44,2.2-2.94,2.35-4.32,3.6-.37,2.68-.61,5.47-1,8.16a23.51,23.51,0,0,0,6.24,4.56c.42,3.3-1.25,4.51-2.88,5.76-.07,1.75.83,2.53.48,4.56-1.15.69-1.83,1.85-3.6,1.92,0,1.08,1.08,1,1.2,1.92,0,1.89-1.37,2.32-1.92,3.6-.32,1.36,1,1.13,1,2.16a5.58,5.58,0,0,1-1.44,4.56c-3.28.4-6.17,2.42-9.36,1.92-1.31-.2-2.17-1.27-3.6-.72-.55.26-.09,1.51-.24,2.16,4.27.93,6.58,3.82,7.44,8.16,2,.62,5,.12,7.2.48.59.1,1.73.37,1.92,1,2.34-.66,4.6-2,7.44-1.44.28.76.39,1.69,1.2,1.92,1.82.25,2.78-1.46,4.56-.48-.29-1.88.76-2.43.48-4.32a3.87,3.87,0,0,0,1.92-2.88c2-.49,2.62-2.34,4.56-2.88.19-.85.92-1.16,1.2-1.92,3.57.53,3.08-3,3.6-5.52a34.48,34.48,0,0,1,10.8,2.4,3.47,3.47,0,0,0,2.16,1.44c-.2.59.53,1,1,1.44.83.9,2.35,2.67,4.32,1.92.8-1.44-1.54-1.6-1.92-2.64v-2.4c1.1-1,1.79-2.37,4.08-2.16.93-2.91,2.18-5.5,4.8-6.72.43-2.76,3.63-2.76,4.8-4.8a11.49,11.49,0,0,0,4.08-1,8.66,8.66,0,0,0,1.2-2.16,6.75,6.75,0,0,0-1.92-1.92c-.53-3.41,1.74-4,2.4-6.24,4.26-1.13,5.76,1.9,7.44,4.08,0,1.94-.54,3.31-1.92,3.84.89,2.54,3.84,1.5,5.76,2.4a5.12,5.12,0,0,0,.72.72c1.42,1.07,3.51,3,5.52,3.6a8.71,8.71,0,0,0,2.4,3.36,13,13,0,0,0,.72,3.12c1.9.83,4.53,1,4.8,3.12.23,1.79-1.28,2.46-2.4,3.84,1.7,6,2.39,13,4.32,18.72,1,0,1.93-2,2.4-3.36,2.87-2.17,3.55-6.53,6.24-8.88.55-1.2.83-2.69,1.92-3.36.58-2.58,2.17-4.45,3.36-6.72.32-.61.35-1.68,1.2-1.92-.12-1,.7-1.06.48-2.16,1.36-.55,1.08-2.75,2.4-3.36-.05-2.28,1.06-3.42,1.92-4.8a18.22,18.22,0,0,1,2.4-.72,13.21,13.21,0,0,1,1-3.36,18.56,18.56,0,0,1,.48-1.92c.06-.14.4,0,.48-.24.54-2,2.92-4.42,4.56-5.76.46-.38,1-.66,1.68-1.2a12.49,12.49,0,0,0,1.92-1.44h1.44c.37-.27.59-.69,1-1,1.69-.11,3.21.15,4.8,0,.42,0,.52-.36,1-.48,1.27-.34,2.55,0,3.6-.48,1.47-.71,2.16-2,3.36-3.12.21-.2.75,0,1-.24s.06-.58.24-.72c1.21-.94,2.62-1.56,3.84-2.64a19.24,19.24,0,0,1,2.88-2.4c.25-.16.51-.06.72-.24.39-.34.21-.18,1-.48.24-.1.08-.4.24-.48.72-.37,1.58-.35,2.4-.72A13.6,13.6,0,0,1,248,52.23c1.76-.28,3.81-.23,5.76-.48,1.3-.17,2.67-.9,4.08-1,1,0,2.13.39,3.36.48a48.61,48.61,0,0,0,6.72,0c1.76-.13,3.3-.67,4.8-.48.54.07,1.11.43,1.68.48,2,.19,4.21-.24,6.24,0,1.82.21,3.37.78,6,1s5.17,1.38,8.88,1a17.79,17.79,0,0,0,3.84-2.4c.17-.15.7-.19,1-.48s0-.79.24-1,.85-.17,1-.24c1.2-.77,2-2.76,3.12-4.08-.19-1.07.32-1.44.24-2.4,1.73-2.47,4-8,1.68-11.52a9.31,9.31,0,0,1-6-2.64c-.53-3.23,1.16-5.76,0-8.16-1.27-.17-1.5-1.38-2.16-2.16-1.47,0-2.92-1.38-4.56-1.44-1.43-.05-3.92,1-5.52,1.44A48,48,0,0,1,283,19.83c-1.18.19-3-.1-4.56,0a57.7,57.7,0,0,1-8.64,0c-1.42-.14-2.58-.93-3.84-1.2-.57-.12-1.39.17-1.92,0-1.32-.41-2.41-1.44-3.61-1.92-2.91.48-5.47-1.28-8.15-1.92-.61-.14-1.21.11-1.92,0-.52-.08-.34-.35-.73-.48s-1.38.1-1.92,0-.36-.44-.72-.48c-2.56-.3-5.78-.15-7.44,1a55.94,55.94,0,0,0-12.72,3.6,63.3,63.3,0,0,1-11.52,3.36,33,33,0,0,1-7.68.48c-3.49-.3-7.23.2-10.8-.24-2.07-.26-4.32-1-6.48-1.44-3.55-.66-6.29-.88-9.84-1.44-2.85-.45-7.31-1.55-10.8-1.44-2.39.07-4.79.79-7.2,1-4.75.35-8.17,1.49-12.24,2.64-2.52.72-5,1.11-7.44,1.68-1.46.34-4.58,1.45-6.48,1.68a61.87,61.87,0,0,1-7.44.24,37,37,0,0,1-8.64-1A38,38,0,0,1,115,22a4.89,4.89,0,0,1-2.16-1.68,8.6,8.6,0,0,1-4.32-2.16c-4.79-.22-9.9-1.78-15.12-1-1.56.25-4.55.28-7.2.48-1.52.12-3,.64-4.32.48-.61-.07-1.11-.44-1.68-.48-3.08-.2-7.43,1.48-9.36-.48.26-.84,1.68-.46,2.64-.48,1.91,0,4-.17,5.28.48a53.59,53.59,0,0,1,13.68-1.44c3.67.13,7.59-1,11-.48,1.79.27,3.63,1.37,5.28,1.92l1.44.48c.53.19.77.31,1.2.48,1.32.51,2.08.46,3.84,1,1,.28,2.06,1,3.6,1.44A39.07,39.07,0,0,0,124.61,22c3.16.37,6.58-.19,9.84-.24.91,0,1.91.27,2.88.24,1.84,0,4.06-.75,6-1,.43,0,1.07.3,1.44.24,1.35-.21,2.18-.92,3.36-1.2s2.3-.17,3.36-.48c1.45-.42,3.22-1.31,5.28-1.92a50.17,50.17,0,0,1,18-1.44c1.21.14,2.67.83,4.08,1,1.14.11,2.27-.1,3.36,0,3.61.33,6.91,1.93,10.56,2.4.79.1,1.61-.05,2.4,0,2.12.14,4.27.88,6.24,1,5.23.22,10.41.27,15.84-1.44,3.22.33,4.16-1.6,7.2-1.44a50.41,50.41,0,0,1,12.48-5.28h2.88c.74.18.29-.83,1.2-.48a2.79,2.79,0,0,1,2.16.48c2.54.22,4.58-.28,7.44,0,.45,0,.5.37,1,.48,1.09.27,2.52.16,3.6.48a10.85,10.85,0,0,1,1.68.48c.46.52.27.27,1.44.48.6.11,1.29.53,1.92.72s1.46.25,2.16.48A37,37,0,0,0,266,17c1.45.3,2.82.06,4.32.24,1.34.16,2.71.81,4.08,1a34.34,34.34,0,0,0,10.08-.48c.92-.24,1.62-1.07,2.64-1.44.48-.17,1.35-.08,1.92-.24.84-.24,1.39-.92,2.16-1.2.31-.11,1.07.12,1.44,0s.23-.4.72-.48a10.47,10.47,0,0,1,1.68,0c.47,0,.5.36,1,.48.72.2,1.57-.15,2.16,0a8.4,8.4,0,0,1,6.48,8.88c-.06,1.29-.93,2.38-.72,3.6,1.25,1.68,4.13.26,6,1.2.34,1.34,1.23,2,1.44,3.12,1.21,6.55-3.65,11.29-5,15.84-2.81,2.13-4.18,5.59-7.68,6.72-.44.14-1.07-.09-1.68,0-1.05.16-2.34.93-3.36,1a29.16,29.16,0,0,1-4.08-.48c-.49-.07-.35-.44-.72-.48-1-.11-2.06.14-3.12,0-.88-.11-1.78-.64-2.64-.72-.62-.06-1.41.23-2.16.24-1.75,0-3.41-1-4.8,0-.88.16-.92-.52-1.68-.48-4.8.79-11,.26-15.6,1-2,.3-4.18.17-6,.48-1.05.18-2.08.75-3.12,1-2.12.42-3.1.28-4.56,1.44-.48.39-1.4.9-1.44,1.68a10.85,10.85,0,0,0-3.6,1.92c-.21.2-.26.75-.48,1s-.9.24-1.2.48c-.64.51-1.42,1.47-2.16,2.16,1.95.5,3.34-1.62,4.56-2.64a40,40,0,0,0,11-3.36c2.72-1.41,5.59-3,10.32-1.92,2.25.53,3.86,2.6,7.44,2.16a16.35,16.35,0,0,0,7.2-2.64c3.64-.51,7.18-1.4,10.8-.72a11.71,11.71,0,0,0,1.2,0c.25.06.2.39.48.48,1.46.47,3.87.43,6,.72,1.79.25,3.46.9,5.28.72s3.23-1.35,5.28-1.44c1-.47,1.38-1.5,2.64-1.68-.17-.66.86-1.38,1-1.68.88-2.6.18-5.72.48-8.16a13.17,13.17,0,0,1,1-2.88,22,22,0,0,1,1-2.88c.11-.19.39.09.48-.24.18-.66.89-.82,1.44-1.44.11-.12-.12-.61,0-.72s.78-.22,1-.48c.62-.91.43-2,1.44-2.64-.06-1.64.89-3.17,0-4.8-1.39-2.51-6.93-2.38-8.64-4.32-.66-.75-.59-2.13-1-3.12-1.35-3.58-2.61-5.38-5.76-7.2a3.62,3.62,0,0,0-2.64.48c-1-.83-2.34-.32-3.36-.48a8.36,8.36,0,0,0-3.12-.48c-.53.06-.33.36-.72.48-.89.27-1.14,0-1.92.48-.57.33-.73.11-1.68.48-.26.1-.18.4-.48.48-3.28.87-5.59.5-9.12,1-.68.09-1.34.47-1.92.48-2.07,0-4-.67-6.48-1-2.16-.25-4-1.42-6.24-1.44.37-1-1.34.05-1-1-1.5.22-1.72-.85-3.36-.48.13-.49-.25-.35-.48-.48-.66-.38-.66-.16-1.92-.48a43.12,43.12,0,0,0-13.68-1c-1.32.16-3.75.81-6,.48-.39.41-1.35.25-1.44,1a16.42,16.42,0,0,0-3.84.48c-.46.11-.38.42-.72.48a17.34,17.34,0,0,0-3.12.48c-.25.08-.75-.14-1,0s.09.39-.24.48-.82-.07-1.2,0-.34.36-.72.48-.83-.09-1.2,0-.37.41-.72.48c-3.58.66-8,.29-11.28,1-3.57.72-8.29-.16-12.24-.48-4.69-.38-8,0-13-.48-.5,0-.51-.39-1-.48-.6-.13-1.44.19-2.16,0-.43-.11-.4-.44-.72-.48-.82-.11-1.61.11-2.4,0-.5-.07-.35-.44-.72-.48-1-.11-2,.1-2.88,0-.35,0-.66-.45-1-.48-1.28-.13-2.58.12-3.84,0-.5,0-.51-.37-1-.48-2.6-.61-5.56.46-8.16,0-.6.6-1.9.51-3.12.48a59.06,59.06,0,0,1-13,2.64,43.42,43.42,0,0,1-10.56-.24,30.69,30.69,0,0,0-10.08,0c-1,.2-1.87.81-2.88,1-2.83.41-5.31-.59-7.92-.72-1.33-.07-2.56.41-3.84.24a18.47,18.47,0,0,1-2.4-1c-.49-.13-1.18.08-1.68,0-.26,0-.52-.39-1-.48s-.85.12-1.2,0c-.09,0,0-.42-.24-.48s-.35.06-.48,0a17.93,17.93,0,0,0-2.4-.48,13.92,13.92,0,0,0-5.28-.48c-.78-.3-.18.78-1,.48-1,.27-3.13-.56-3.36.48-.74.18-.29-.83-1.2-.48-1.85,1.19-6.33-.25-8.16,1-1.66.1-1.43-.69-2.64,0a15.68,15.68,0,0,0-6.24-.48c-.41,0-.6.4-1,.48-.63.14-1.32-.09-1.92,0s-.34.39-.72.48c-.54.12-1.16-.09-1.68,0-1.07.19-3.14.72-4.56,1s-2.64-.12-4.08,0c-.53.05-1,.4-1.44.48-3.58.62-7.13-1-10.8-1.44-1.57-.18-3.09.53-4.56-.48-2.44,1.16-5.39.11-7.92.48-3,.44-5.08,2.44-7.2,3.36-.19.86-.91,1.17-1.44,1.68a2.07,2.07,0,0,1-2.16-1c1.71-3.33,5.49-4.59,8.64-6.48,3.21.28,6.13-2.11,9.12-.48.94.22.6-.83,1.68-.48,3.25.39,8.16,1.89,10.8,0h2.88c.78.3.18-.78,1-.48,4.55-.79,9.25,0,13.92-.48.55-.05.89-.39,1.44-.48,2.31-.38,5.32-.21,8.16-.48,3.65-.35,9.57-.75,13.44,0,1,.19,1.75.82,2.64,1,1.55.24,3.11-.19,4.8,0,.39,0,.49.36,1,.48,1.07.28,2.62-.13,3.12,1,.6-1.08,3.43.08,4.08-1,4.5-.59,8.72,1.42,12.48,0a10.61,10.61,0,0,0,6.72-1.44,17.76,17.76,0,0,0,6.48.72c1.77,0,3.5.48,5.28.24.46-.06,1-.43,1.44-.48s1,.32,1.44.24c2.51-.45,4.74-1.76,7.2-2.16,3.87-.63,7.88.08,12-.48a33.7,33.7,0,0,1,7-.48c.51,0,.5.38,1,.48a25.15,25.15,0,0,0,2.88,0c.7.07,1.31.33,2.64.48,2.83.31,5.83,1.65,8.4,1.92a43,43,0,0,0,4.32.24,180.29,180.29,0,0,0,19.44-.72c5.93-.72,12.19-.1,18-1,9.25-1.37,22.18-1.46,30.72.48.45.1.38.43.72.48,1,.15,2.16-.09,3.12,0,2.23.22,4.12,1.09,7.2,1.2A93.38,93.38,0,0,0,282.77,10c2.89-.35,5.79-.24,8.4-.48,2.08-.19,4-1.19,6-1,.46,0,1.84.69,2.64,1s.89.42,1.92,0a9.14,9.14,0,0,1,2.64,1.68,4.61,4.61,0,0,1,1.2,1c.54.58,1.59,1.63,2.4,2.4.28.27.87.59,1,.72.48.7.27,1.56,1,2.16,1.61,1.41,4.75,1.08,6.72,2.64,1.16.93,1.36,2.59,2.88,3.84.38,3,1.47,5.92,1,9.12-.36,2.23-2.28,3.82-2.4,5.76-1.12.24-1.13,1.6-2.4,1.68-.2.68-.32,1.44-1,1.68.24,4.72-1.23,7.73-1.44,12-1.51.12-1.35,1.78-2.4,2.64a16,16,0,0,1-2.4,1,51.24,51.24,0,0,1-5,1.68c-5.9,1.73-13.5-.41-20.16-.72a25.26,25.26,0,0,0-4.08,0c-3.11.4-5.8,2.77-9.12,3.36a25.44,25.44,0,0,1-13.2-1c-4.22.9-9.06,1.18-13,2.4-.9,1-2.55,1.29-4.32,1.44a10,10,0,0,1-5,1.92c-1.06.34,0-1.44-.72-1.44-1.88.28-3.06,1.26-5,1.44-.18.38-.76.36-.72,1a36,36,0,0,0-14.64,5.28c-1.18,1.46-2.07,3.21-3.36,4.56a7.43,7.43,0,0,1-1.92,5c.21.67.84.92,1.44,1.2.75-.37.4-1.84.48-2.88,1.16-.78,1.71-2.12,2.64-3.12s2.14-1.59,2.64-2.88a12.3,12.3,0,0,0,4.08-2.88c3.94-1,6.18-3.74,11.52-3.36.78.3.18-.78,1-.48a47.67,47.67,0,0,0,10.8-1.44c4.2,0,5.48-.07,8.88-1h3.36c.78.3.18-.78,1-.48,4.43.13,9.61-1.34,13.68,0,4.07-1,7.76-2,11.52-2.88,2.64-.62,6.46-1.55,10.32-1,2.29.35,5,1.76,7.92,1.92,2,.11,3.61-.65,5.52-1a52,52,0,0,0,6.48-1c.56-.86,1.34-1,1.92-1.92.07-.11.91-.85,1-1s-.12-.7,0-1a6.78,6.78,0,0,0,.48-1c.08-.21.43-.13.48-.24.14-.34-.14-.85,0-1.2s.43-.17.48-.48c.49-2.75-.54-5.95,0-8.88.59-3.21,3.36-4.72,4.8-6.72.11-1.49.53-2.67,1.68-3.12,2.42-5.81-.15-14.8-4.08-18.24-.4-.35-1-.62-1.44-1a10.2,10.2,0,0,0-3.84-2.16,13.13,13.13,0,0,0-1.92-.48A4.5,4.5,0,0,0,308,12.39c-.9-1.81-3.28-2.15-4.56-3.6-2-.34-4-.65-5.28-1.68-7.07-.55-13.21,0-20.64.48-4.74.29-9.89,1-14.4.24-.72-.12-1.43-.61-2.16-.72-1.78-.27-3.58-.13-5.28-.48A50.91,50.91,0,0,0,242,5.19a3.7,3.7,0,0,0-2.4.72c-6.23.28-11.93-1.06-17.76-1.44a46,46,0,0,0-9.84,1c-1.34.22-2.7,1-4.08,1.2-.94.13-2,0-2.88,0-2.34.12-4.54.56-6.72.48-5-.18-9.43-2-14.88-2.4a56.91,56.91,0,0,0-9.6.24c-2.79.26-5.49,1-8.16,1-.66,0-1-.41-1.68-.48s-1.48.25-2.16.24c-5.29,0-10.5-1.46-15.84-.72-1.48.21-2.94,1-4.56,1.2-.88.12-1.77-.08-2.64,0-1.44.14-2.88.82-4.32,1-3,.29-6.18,0-9.36.48-2.75.4-5.52,1.2-8.4,1.44-2.44.21-5.36-.34-8.4-.48-6.11-.28-11.74-.28-17.76,0a41.93,41.93,0,0,1-8.88-.48c-1.48-.27-2.8-.25-4.32-.48-2.57-.39-5.93.16-9.6.48-4,.35-8.23-.38-11.76,0-4.7.5-12.1.12-17,1-3.73.64-7.27,2.1-10.8,1.92a11,11,0,0,1-4.08,1.44c-1.07,1.31-2.6,1.39-3.84,2.4S18.45,17,17.09,17.91c-.35.23-1.07.06-1,.72-1.08,0-1.85.23-2.16,1C11.16,19.5,9.92,21,8,21.75c0,.77-1.07,1-1.68,1.68-.11.12.12.61,0,.72a2.94,2.94,0,0,0-1,1.44c-.61,2.77-.73,5.27,1.44,6.72.09.37-.12.84,0,1.2s.79.62,1,1-.12.7,0,1,.46.19.48.24c.11.36-.14.85,0,1.2s.41.18.48.48-.13,1.06,0,1.44.39.19.48.48a11.42,11.42,0,0,0,1.44,2.64c.82,1.36.84,2,1.92,2.88a12.79,12.79,0,0,0,1.2.48,9.32,9.32,0,0,0,2.16,1.2,17.28,17.28,0,0,0,2.16,0c2.92.26,5.31.49,7.92-.72a14.91,14.91,0,0,1,2.4-.72c1.2-.35,2.35-1.23,3.36-1.44a15.54,15.54,0,0,1,6.72,0c.8.22,2.81.92,2.4,2.88-7.74-.54-12.22,2.18-17.28,4.32a26.78,26.78,0,0,1-11.52-1.44c-.34-.94-1.28-1.28-2.4-1.44a2.8,2.8,0,0,0-1.92-1.68,6.46,6.46,0,0,0-1.92-2.64c-.46-1.48-.57-3-1-4.32-.19-.62-.77-1.06-1-1.68-.32-1-.1-2.2-.48-3.12C2.81,33,1.79,32.54,1,30.87c-.19-.4-.08-.7-.24-1C0,28.77-.29,24.9.29,22.23c3.23-3.18,6.05-5.77,11-7,1.3-.31,3.36-.08,4.32-1,.37-1.09,1.31-1.55,2.16-2.4a12.32,12.32,0,0,1,3.6-2.64,12,12,0,0,0,2.4-1.2c1-.88,3.78-1.26,5.52-1.92C30,5.91,30.7,5.09,31.49,5a30.2,30.2,0,0,1,6.24-.72,87.57,87.57,0,0,0,10.56-.72,28.84,28.84,0,0,1,6-.48c4.66.28,9.34.18,14.16.48,7.43.46,15.19.31,22.56.24,4.12,0,8.13.67,12.24.48,3.63-.17,7.29-.18,11-.48,6.63-.54,13.28-.28,19-1.44,1.87-1.08,5.92-.76,9.36-1.2a43.93,43.93,0,0,1,5-.72c5,0,10.23,1.33,15.6.72,1.3-.15,2.48-.81,3.84-1,3.09-.33,6.65,0,10.08,0s6.64-.22,9.84,0c2.3.16,4.62.76,7,1s4.78.28,6.72.48a14.79,14.79,0,0,0,2.4,0,119.24,119.24,0,0,1,13-.48c1.71.06,3.44-.21,5.28-.24,3.17-.05,7.68,1.33,12,.72,2.17-.31,3.91-1.26,5.76-1.44,4.12-.39,7.11.54,10.56,1,.66.08,1.41-.12,2.16,0,5.94,1,12.05,2.71,18,2.16,1-.09,1.92-.58,2.88-.72,4.29-.63,9.77,0,14.88,0,2.51,0,5.07-.51,7.2-.24s4.07,1.27,6,1.68c2.21.47,4.77.7,6.72,1.2,1.56.4,2.73,1.12,4.32,1.44.68,1.88,3.19,1.93,3.84,3.84,2.09.07,3,1.32,5.52,1,.53.86,2.4,2.34,3.12,3.6s.66,2.81,1.2,4.32c.22.62.79,1.08,1,1.68.37,1.31.6,3.06,1,4.56.53,2.2-.74,5.94,1,7.68.24,2.72-1.36,3.6-1.44,6-2.4,2.16-4,5.14-6.48,7.2-.88,1.73-.19,5.65-.48,8.16-.56,4.85-3.08,7-6.24,9.6a12.25,12.25,0,0,0-3.36,1.2c-.65.39-1.75.44-2.64,1a28.85,28.85,0,0,1-3.36,1c-.24.08-.75-.14-1,0s.12.42-.24.48a19.75,19.75,0,0,1-4.8,0c-.42,0-.57-.39-1-.48-2-.48-4.23-.22-5.76-1.44h-4.08c-.5.46-1.55.37-1.92,1-.74.07-1.48-.09-2.16,0-.52.07-.33.36-.72.48s-.83-.1-1.2,0c-.67.19-.78.21-1.92.48-.45.11-.37.42-.72.48-1.13.18-2.43-.29-3.12.48A253.2,253.2,0,0,0,242,70.23c-3.59.38-6.61,1.69-10.08,2.4-3.27.67-6.46,1.13-8.88,2.16-3.82,1.62-6,5.16-8.88,7.44A4.27,4.27,0,0,0,211,84.39c1.49,3.5-1.21,6.49-2.4,9.84-1,2.71-1.18,5.5-2.88,7.2a5.81,5.81,0,0,1-1.44,4.32v1.92c-.92,2.62-2.07,5.15-3.12,7.68-.45,1.09-.6,2.5-1.68,3.12-1.47,6.15-3.76,12.19-5.52,18.24-.2.69-.27,1.41-.48,2.16-.37,1.38-1.2,2.74-1.44,4.08-.07.41.1,1,0,1.44-.39,1.63-1.09,3.19-1.44,4.8a3.6,3.6,0,0,0,.48,2.4c.1.25-.14.74,0,1s.38-.08.48.24-.1.83,0,1.2c.42,1.58,1.47,5,1.92,7,.8,3.49.24,7.08,3.12,8.16,1,2.32-.48,3.07-1.2,4.8a9,9,0,0,0-3.36,2.4,5.94,5.94,0,0,0-3.36,1,30.77,30.77,0,0,1-5.76,1.92c-2.6.72-5.26,1.36-8.16,1.92-1.19.23-2.68,0-4.08.24-2.6.37-6.5,1.22-9.84,1.2-7.63,0-17.17.23-24.72-1.44-1.3-.29-2.46-1.16-3.84-1a28,28,0,0,0-3.84-2.4,3.46,3.46,0,0,1,1.44-3.84c.41-2.53.57-5.11,1-7.68.21-1.34.86-2.68.72-4.08-.21-2.16-1.84-3.4-1.68-5.28.06-.67.81-1.05,1-1.68.7-2.94-1.22-4.49-2.88-6.48,0-1.33-.19-2.91.48-3.6-.65-2-2.17-3.11-3.12-4.8-2.22.15-3.21-.95-5.28-1-2.07,2.25-5.43,3.21-7.68,5.28a8.56,8.56,0,0,0,2.4,3.6c.55,1.69,1.06,3.42,2.4,4.32a2.38,2.38,0,0,0,1,2.4,4.79,4.79,0,0,0,1.68,3.84c.64,1.72,1.39,3.35,2.16,5a111.74,111.74,0,0,1,3.84,10.56c.82,2.39,1.41,5.09,2.64,7,.35,4.05,2.1,6.71,3.36,9.84,1.56,1.56,2.25,4,4.32,5,1.67,4.49,5.09,7.24,7,11.52.38.18.36.76,1,.72a111,111,0,0,0,7,11.76,13.48,13.48,0,0,0,2.64,3.36c.84,3.16,2.33,5.68,2.88,9.12.75,2,3.31,3.59,3.36,6.24,0,.8-.74,1.82-1.2,3.12-.71,2-.94,5.56-1.68,7.92,0,.17-.4.21-.48.48a9.87,9.87,0,0,1-2.4,3.84c-1.21,1-2.81.74-3.36,2.4-2,.48-3.58,2-5.28,2.88s-3.7,1.4-5,2.88h-1.2c-.86,1.22-2.74,1.42-3.84,2.4-1.75-.17-2.85.25-4.08,0-1.71-.34-2.88-2.19-5.52-1.44-.74.86-1.87,1.33-2.4,2.4.36,2.13,1.54,3.35,1.44,5.28-.18,3.67-3.85,6-5.76,8.16a3,3,0,0,0,1,2.88c0,1.25-.07,2.47,1,2.64-.09.63-.77.67-.48,1.68.53,1.22,1.4-.67,1.92,0,0,2.23-2.21,2.27-1.92,4.8,1.46.55,5.5,1.52,6.72,0,.23-3.15-3.68-1.87-4.32-3.6,2.21-2.25,5.28.28,6.72,1.68,4,0,7-.81,11.52-.72a5.34,5.34,0,0,1-.24,7.92c-2.2.91-4.86,1.38-7,2.4a23.81,23.81,0,0,0-4.08.48c-.49.1-.34.39-.72.48-.74.18-1.95-.4-2.4.48a4.81,4.81,0,0,0-3.12-.48c-.46,0-.5.35-1,.48-1.39.38-2.25,0-3.36.48a10.73,10.73,0,0,1-2.16.48c-1.39.28-2.84,1.2-4.08,1.44s-2.62-.32-3.84.48c-.3.11-.62-.26-1-.48-1-.66-.71-.72-1.44-1.92-.31-.51-.86-.73-1-1a15,15,0,0,1-1-4.32c0-1.15.78-2.41.72-3.6a14.73,14.73,0,0,0-1.68-3.84c-.5-.93-1.16-2.4-2.4-2.4-.9,0-1,.77-1.92,1a6.29,6.29,0,0,1-.48,1.92c0,.11-.48.23-.48.24-.15.63.19,1.37,0,1.92,0,.14-.41.06-.48.48-.12.79-.77,1.23-1,1.92s-.17.26-1,1c-.21.19-.4.9-.48,1s-.76-.16-1,0c-.44.35-.79.89-1.44,1.44-.33.28-.37.39-.72.72-.17.16-.57.6-.72.72-.51.39-1.29.51-1.92,1-.11.08-.53.59-.72.72-.73.52-.51.4-1.68.72-.41.11-.68.82-1,1s-.7-.12-1,0-.17.45-.24.48c-.29.1-1-.12-1.44,0-.84.23-3.25.63-4.8,1s-3,1.13-4.56,1.44-3.1,0-4.56.48c-2.34-3-1.77-8.91-1-13.44.45-2.49,1-3.67,1-6.48,0-1.35.53-2.75.48-3.84-.09-2-1.35-3.77-1.44-5.76-1-1.32-3.56-1.53-5-.48-.69,1.47-1.69,2.63-2.4,4.08-.36.13-.6.08-1,.24-.54.23-.76.12-1.68.48-.25.1-.17.41-.48.48a12,12,0,0,0-2.4.48,21.77,21.77,0,0,1-2.64.48c-.37.08-.63.44-1,.47-1.38.16-2.7-.12-4.08,0-.45.05-.79.41-1.2.48-1.27.24-2.87-.53-3.84.48-.86-.89-3.56,0-4.32-1-.29.27-.43.69-1.2.48-.06.7.45.83.72,1.2a11.35,11.35,0,0,1,4.08.24c.49.08.36.44.72.48a34.82,34.82,0,0,0,7.44,0c.53-.06.34-.35.72-.48.93-.29,1.77-.18,2.64-.48.25-.08.75.14,1,0s-.1-.4.24-.48a23.77,23.77,0,0,0,3.12-.48c.25-.08.2-.37.48-.48A13.49,13.49,0,0,0,61,281c2.73-1.68,4.06-6.58,8.16-3.36.32,1.19-.74,1-.72,1.92-1.45.06-3.3-.26-4.08.48-.32.4-.93.51-.72,1.43q-1.23-.27-1,1c-1.25,0-1.86,1.2-2.88,1.68s-2.59.53-3.84,1.2a40.51,40.51,0,0,0-3.12,7.44c-.61,2.56-1.21,6.15,1.2,6.72.41,1.92,1.27,3.38,1.44,5.53a5.84,5.84,0,0,1,1.92,3.6A9.37,9.37,0,0,0,61.73,310c1.47,1.73,3.79,2.61,4.8,4.8v2.64a4.94,4.94,0,0,0-1.44,1.44c-.76.2-.91-.21-1.2-.48a8.76,8.76,0,0,1-4.8,1.92c-3.53.5-8.07.28-12,.48a8.78,8.78,0,0,0-3.36-1.44,10,10,0,0,0-2.88-2.88,13.35,13.35,0,0,0-3.36-1.92c-1-.46-3.28-.95-4.08-1.92-1.19-1.46-.67-3.45-1.92-5.28.26-4.38,3.49-5.79,4.8-9.12,0-2-.75-4-1-6.24-.27-2.91.65-6.05-.24-7.92-2.82-1.93-6-1.15-8.88-.24a54.38,54.38,0,0,0-6.48,1.92c-4.3.14-7.45-.87-11-1.44.24-.73-.53-.43-1-.48-.34-.94-1.28-1.28-2.4-1.44-1.18-1.46-2.27-3-3.36-4.56-.1-4.51,2.34-6.47,3.84-9.36v-2.16c1-.17.49-1.75,1.44-1.92a5.65,5.65,0,0,1,1-3.6c.45-2.67.25-6,1.44-7.92A139,139,0,0,1,13,230.79c1,.37,0-1.34,1-1,.38-1.64.31-3.6.72-5.28.16-.65.69-1.07.72-1.68a19,19,0,0,0-.48-2.64c-.18-1.47.15-2.58-1-3.6,1.24-.81,1.35,1.28,2.4,1.44,2.94-3.07,3-9,5-13,.37-3.4,2.2-5.33,2.4-8.88,1,.37,0-1.34,1-1v-1.92c1.24-1.81,1.3-4.79,2.88-6.25.6-3.24,2.33-5.35,3.84-7.67.83-3.22,3-5.89,4.32-8.89.95-2.15,1.31-4.57,2.64-6.47a11.21,11.21,0,0,1,1.44-2.4c.09-3,1.86-4.23,1.92-7.2.73-.16,1.1-.66,1-1.68,1.22-.47,1.41-1.87,2.4-2.64,1.43-1.12,3.72-1.1,4.56-2.88a11.09,11.09,0,0,0-2.64-2.16c-.16-1.49-1-2.27-1.2-3.6-.38-3.06,1.71-6.48,0-9.6-.75,0-.81.79-.72,1.68-1.8,1.89-2.88,4.93-4.32,7.44A47.78,47.78,0,0,0,37,148.71a27,27,0,0,0-1.68,6c-.28,3.42.51,6.59,0,9.6-.59,3.47-2.62,5.35-3.36,8.64-1.3,1.22-1.82,3-2.64,4.56s-2.08,3-2.16,5c-1.89,1.3-1.61,4.79-3.36,6.24.35,1.63-1,2.71-1.44,4.08-.28.8-.2,1.89-.48,2.88a4.92,4.92,0,0,0-.48,1.2c-.8,3.51-3,6.76-3.6,10.56-.23,1.56.07,3.16-.48,4.8-1.31,1.08-2.3,2.5-3.84,3.36a1.1,1.1,0,0,0-1-1c.64-3.12-.66-5.72-1-7.92-.13-1,.17-1.86,0-2.64-.74-3.54-3.61-5-5.76-7v-2.88C7,194,7.05,192.5,8.45,192.39c1.45-2.08,2.92-4.12,5.76-4.8,3.06-3.27,6-6.69,7.2-11.76,2-2.48,2.49-6.47,3.36-10.08,1,.37-.05-1.34,1-1,.79-8.81.08-19.13,3.84-25-1.07-.36-.73.7-1.68.47-.32.08-.2.61-.24,1-2.44.12-2.14,3-3.84,3.84.22,1.81-.92,3.67-1,5.28-.09,3.84,1.78,7,1.44,10.56-.06.68-.31,1.35-.48,2.64-.37,2.8-3.2,6.58-5,7.92-.23.17-.79.13-1,.24-1.08.73-2.88,1.75-4.32,2.64-.38.25-.2.21-.48.48a9.52,9.52,0,0,1-5.28,1.44c-.14-2.38.61-3.87,1.92-4.8-.24-1.76.47-2.57,1-3.6-.89-4.37-.21-8.44,1.92-11,.36.76,1.94.3,2.4,1,.34,1.22-1.1.66-1,1.68.15,2.46.79,3.52.48,5.28-.38,2.22-2.29,3.41-1.92,6.72.21-1,1.52-.88,2.16-1.44,1.27-2,3.67-2.91,4.08-5.28.55-3.12-1.25-6.76-2.88-9.12-2.13-3.09-5.87-4.6-4.8-10.56.21-1.15,1-1.69,1.44-2.64s.42-2.1,1-3.12,1.4-1.2,1.44-2.4a20.74,20.74,0,0,0,3.36-2.4,7.12,7.12,0,0,1,2.16-1.44c5.6-2.62,11.92-5.28,15.36-10.56-3-.29-5.81,2-7.92-1.2-.3,1.54-.37,3.31-.72,4.8-1.91,1.53-3.39,3.5-6.72,3.6a12.74,12.74,0,0,1-4.32-5.52c-.51-1.08-1.47-2.28-.72-4.32.1-.25.66-.34.72-.48s-.15-.76,0-1,.62.12.72,0,.61-1.11,1.2-1.44c.24-.13.74.15,1,0s-.05-.36.24-.48c1.43-.54,2.63,0,2.88,1.92-1.77-.57-1.17,1.23-2.64,1-.39,1.66.23,3.14.72,4.56,1.71-.29.9-3.1,1.44-4.56.94-1.35,2.47-1.75,2.64-3.36.2-1.91-2.3-3.77-2.4-5.76-.11-2.26,1.51-2.43,1.92-5,1.11.23,1.12-.64,1.68-1,3.73,0,6.37-1.15,9.36-1.92.19-.93,1.41-.83,1.92-1.44,3.15-.51,3.83,1.46,6.48,1.44,0,1,1.31.77,1.68,1.44ZM85,59.67c1.64.54,1.91-2,3.84-1.92-.24-1,.72-.73.48-1.68C87.62,55.24,85.52,57.73,85,59.67ZM167.82,83c-2-.5-3.33-1.63-5.52-1.92a2.94,2.94,0,0,1-1.2,1.44c-1.68,0-3.52-.17-4.56.48.23-1.19-.72-1.2-1.44-1.44a23.31,23.31,0,0,0-6.24,4.32c.49,2.72-1.79,3.7-1,6a26.9,26.9,0,0,0,3.36,0c-.46-.75-1.22-1.18-1.44-2.16.5-1.75,1.51-3,1.92-4.8A15.53,15.53,0,0,0,154.38,83c.5.14,1.58-.3,1.68.24-1.06,3.18-4.06,4.42-3.84,8.88,6.89-.28,14.08-.47,21.36-1-.54-4.1-3.93-5.36-5.76-8.16Zm34.08,8.88c-.65-.18-.48.47-1,.48-1.08,3.47-3.67,5.44-3.6,10.08a6,6,0,0,0-1.44,2.4c-.67,1.47-1.64,2.71-1.92,4.32a8.22,8.22,0,0,0-1.92,4.08,14.25,14.25,0,0,0-2.88,5.28c-.78-.3-.18.77-1,.48a19.59,19.59,0,0,1-6.72,9.6c-.43,3.36.92,6.93,1.44,10.32a34.18,34.18,0,0,0,.48,4.32c.16.55.75,1.05,1,1.68.79,2.43,1.13,4.64,2.88,5.76-.14-2.27.93-4.29,1.44-6.24.37-1.43.16-3.19,1.44-4.08v-1.92a51.14,51.14,0,0,0,3.36-11.28c.72-.11.72-1.64,1-2.4s.92-1.44.72-2.4c.9-.78,1.14-2.22,1.2-3.84.45,0,.36-.15.48-.48a97.72,97.72,0,0,0,3.12-9.36c.57-.55,1.32-2.19.72-3.12-1.93,3.15-3.17,7.16-4.56,10.56-.82,2-1.47,4.15-2.64,5.28-1,5.65-3.86,9.42-4.8,15.12-1,.16-.49,1.75-1.44,1.92a8.34,8.34,0,0,1-1.68,5.28c-1.93-1.68,0-3.56.24-4.8a10.68,10.68,0,0,1,.48-1.92,5.39,5.39,0,0,0,.47-2.4c1,.37-.05-1.34,1-1v-1.68c.75.39.35-.91.47-1.2,0-.06.46,0,.48,0a8.28,8.28,0,0,0,.48-2.64c.77.22.43-.78.48-1s.45-.15.48-.24c.65-1.77.71-3.8,1.44-5.52a4.21,4.21,0,0,0,.48-.48,21.55,21.55,0,0,0,1.2-3.12c.48-1.29,1.32-2.33,1.2-3.84,1.63-2.12,2.47-5.37,3.36-7.92.34-1,.85-1.74,1.2-2.64s0-2,1-2.4c.05-1.55.39-2.81,1.44-3.36-.18-2.59,1.66-3.15,1.44-5.76,1.36-.81.7-3.63,2.88-3.6.05,1.57.08,3.12-.48,4.08,1.36-.17.78-2.26,1.92-2.64-.33-2.2,1.61-3,1-4.8-1.53.09-2-.84-3.84-.48-.45,2.82-2.12,4.43-2.4,7.43Zm-56.88,0c1.56,1,2.08-1.79,1.2-2.64C146.1,90.35,144.9,90.43,145,91.83Zm-118.8,0c.7.35.7-1.08,0-.72ZM168.3,93.51c-6.56.29-12.44.16-19.2.72-1.5.12-3.14.21-4.8.24-.86,0-2.2-.44-2.88.48,2,.75,4.37.24,6.72.24,7.25,0,13.8.13,20.4-.24,1.64-.1,3.23-.32,4.8-.48s3.36,0,4.32-1.2c-2.83-.45-6,.09-9.36.24Zm-49.92,5c-1.25,1.06-2,2.66-4.08,2.88-.54,1.09-1.44,1.51-1.92,2.88-.4,1.14-.1,2.74-.48,3.84-.25.7-1,1.06-1.2,1.68a2.08,2.08,0,0,1-1.44.24c-1.22,2.21-5,1.86-7.2,3.12a9.5,9.5,0,0,0-1.2,7.2c2.56-.35,2.73-.14,4.8-1,.89,0,1,.81,2.16.48,1.1,1.22,1.54,3.1,2.64,4.32,1.14-.86,4.11.1,4.32-1.68-1.33-.32-1.79-2.35-1.44-3.6,1.56-.36,1.8.6,3.12.48,1.43-1.25,2.72-2.83,1.68-5.28-.48-.57-1.81-.27-1.92-1.2,1.43-1.46,1.19-4.57,1.92-6.72-.55-.58-.54-1.7-.48-2.88,1.83-.9,2.69-2.75,5.28-2.88.31-1,.61-3.48-.48-3.84a5.36,5.36,0,0,1-4.08,1.91Zm48.24-1.44c-1.3.21-2.88-.17-4.32,0-2.45.29-5.39.41-8.4.48-.83,0-2.09-.44-2.64.48-1-.1-.26,1.49-.48,2.16a14.7,14.7,0,0,0-1,3.36c-.1.85.09,1.69,0,2.64-.17,1.8-.8,3.75-1,5.52s-.39,3-.48,3.84.14,2.09,0,3.12-.76,2-1,3.12c-.25,1.42-.34,2.59-.48,3.36-.4,2.17-.19,4.41-.48,6.72-.45,3.51-1.07,7.18-1.68,10.8s-1.32,7.06-1.92,10.56-.53,7-1,10.56c-.57,4.76-2,8.9-1,13.2a13.14,13.14,0,0,1,4.08.24,26.37,26.37,0,0,0,5.76,0c4.84-.57,10.9-.66,15.6-1,2.27-.93,4.68-.62,7.2-1,.27,0,.58-.4,1-.48s1.26.1,1.68,0,.5-.44,1-.48c1.12-.12,2.2.08,3.36,0,2.13-1.4,5.81-1.24,8.16-2.4.18-1.62-.59-2.29-1-3.36-.31-6-2.89-9.75-2.88-16.08a4.4,4.4,0,0,1-1.2-1.68,52.7,52.7,0,0,1-2.64-6c-.35-1-.11-2.44-1.2-3.12a25.07,25.07,0,0,0,1,8.16c.37,1.65.47,3.15.72,4.8.4,2.6,1.44,5.13,1.92,7.68.44,2.3.92,4.58,0,6.72-1.6-1.32-1.52-3.11-1.92-5.52-.19-1.18-.3-2.42-.48-3.6-.58-4-1.83-8.3-2.4-11.76-.42-2.58-.54-5.21-1-7.68s-1.18-4.68-1.68-7c-.41-1.88-.09-4.06-1.44-5.52-.31,4.42,1.43,8,1,11.76,1.55,2.25,1.2,6.27,1.68,9.6s1.36,7.13,1.92,10.56c.33,2,.4,3.91.72,5.28.59,2.49,2.87,4.78.48,7-1.62-.13-1.1-2-1.44-3.12-.22-.75-.8-1.46-1-2.16-1-4.27-1.19-9.43-1.92-13.92.18-.74-.82-.29-.48-1.2-1.4-11.07-2.8-22.16-5.28-32.16v-2.16c.18-.74-.82-.29-.48-1.2.18-3.3-1.08-5.16-1-8.4-.68-.36-.39-1.69-1-2.16.5-1.94-1.37-3.4.24-4.32.89.55.92,2,1.68,2.64a4.17,4.17,0,0,0,1,3.12c1.18-2.25-2.21-6.32-.47-9.12,1.36,0,1.64,1.07,1.43,2.64.71.89.79,2.42,1,3.84,1.2,1.09.74,2.61,1,4.32.2,1.44.8,2.81,1,4.32a103.18,103.18,0,0,0,3.12,16.32c1.89-3.68.44-6.87-.23-10.08-.51-2.38-.53-5.07-1-7.44-.36-2-1.21-3.86-1.43-5.76-.38-3.1-1.07-5-1.44-7.44-.78-.43-1-1.39-1.44-2.16a42.53,42.53,0,0,0-5.52.47ZM178.14,106c.28-3.56-1.07-5.49-1-8.88-.34-.06-.4-.39-.72-.48-.92,2.85.68,6.87,1.68,9.36Zm-34.8-8.4c-.63,4.06-1,8.21-1.92,11.76a33.67,33.67,0,0,0-1,3.84c-.21,1.56.26,3.52,0,5-.07.4-.44.6-.48,1-.08.67.08,1.48,0,2.16-.36,3-1.51,5.9-1.92,8.88-.31,2.25-.13,4.65-.48,7a29.05,29.05,0,0,0-.48,5c0,.81-.44,2.13.48,2.88.49-1.68.72-3.68,1-4.8.46-2.14.15-4.34.48-6.48.19-1.22.81-2.33,1-3.6.52-4.49,1.62-8,1.92-12a81.13,81.13,0,0,1,1-8.16c.27-1.65.4-3.46.72-5,.12-.62.57-1,.72-1.68.4-1.72.07-4,1.44-5.28,1.22,1.26-1,6.77.72,7.92.16-3,1.07-6.21-.24-8.64a3.61,3.61,0,0,0-2.88.23ZM64.62,99.51a5.93,5.93,0,0,0-1.44-1c-4-.51-4.13,2.75-7.44,2.88a20.86,20.86,0,0,1-3.36,3.6c1.52.46,3.72-1.64,5.52-.24.62-.66,2.26-.31,2.88-1,.26,1,.93.29,1.44.48.06,0,.22.36.48.48a37.09,37.09,0,0,1,5,2.88c.85.51,2,.88,2.88,1.44,1.13.68,1.85,1.44,2.88,1.68s2.42-.29,3.36.24a21.45,21.45,0,0,1,1.44,1.68c2.67,1.72,6.12.89,10.08,1.2a18,18,0,0,1,5.52,4.56c1.08,0,1.76.47,1.92,1.44,1.44-.33,1.44.8,2.88.48.11-1.56-1.45-1.43-1.44-2.88-2.58-.55-3.1-3.15-3.84-5.52-.92.17-1.19-.86-1.44-1-1.51-.61-3.44.09-5.28-.24-.91-.17-1.88-1-2.88-1.2a24.28,24.28,0,0,0-4.08-.48c-3-1.63-6.64-2.21-9.6-3.36-.57-.81-1.66-2.79-.48-3.84h1c2.3,3,6.46,4.1,11,4.8.76-.89.08-2.88-.48-3.84-6.31-.33-10.49-2.8-16.56-3.37Zm138.72-.24c.06-.33-.15-.94-.24-.48S203.25,99.72,203.34,99.27ZM52.14,100c1.13.17,1.43-.49,2.16-.72C53.67,98.16,52.56,99.43,52.14,100Zm72.24.48c-.95,1.1-3.13,2.69-1.44,4.32,1.87.35,2.27-.77,4.08-.48C128.28,101.41,127.13,99.26,124.38,100.47Zm77.52,3.84c-.39-2,.92-2.28,1-3.84C201.69,100.63,201,103.67,201.9,104.31Zm-66.72,3.6c-.14-.34.14-.86,0-1.2-.05-.12-.4,0-.48-.24-.37-.92-.42-.7-1-1.44-.11-.16.09-.55,0-.72s-.83-.49-1-.72.12-.57,0-.72-.76-.28-1-.48c-1-1-.75-1-1.92-1.44h-.48a25.36,25.36,0,0,0-1.2,3.84c-2.42.54-4.6,1.32-5.28,3.6,0,.79,1,.57,1,1.44.21,1.35-1.18,1.48-.48,2.64,2,.25,4.06-.25,6.48,0v-2.88c-2.3-.22-2.67,1.49-5,1.2.68-2,3.76-1.52,5-2.88a7.4,7.4,0,0,0,0-5c.47.07.48-.32.72-.48,1.43,1.17,1.65,4.86.24,6.24a4.3,4.3,0,0,1,.48,4.32c-1,.81-3.5.18-4.08,1.44.78.66,2.13.75,3.36,1,.82,0,.37-1.23,1.2-1.2a1.05,1.05,0,0,1,1,.48c.3.78-.78.18-.48,1,.7.66,1.27,1.45,1.92,2.16a12.23,12.23,0,0,0,1,6.24c-1.07,1.57-.43,1.92-.48,4.32,1.21,1.13-.1,3.26-.48,4.32v2.88a1.1,1.1,0,0,0-1,1q-.12,1.56,1.44,1.44v-3.36c1-.83.63-2.45,1-3.6.11-.39.41-.2.48-.72.16-1.24-.24-2.53,0-3.84a75,75,0,0,0,1.44-11.28c-1.59-.41-2.06-1.94-2.88-3.12a11.6,11.6,0,0,0,1.44-1.68c.26-1-.63-1.59-1-2.4ZM37,103.35c-2,2.5-7.1,2.84-10.32,3.36-.36,1.16-1.09,2-1.44,3.12,1.52,2.4,2.83,5,4.32,7.44a13.52,13.52,0,0,0,.48,3.6c1.8.37,2.16-.71,3.84-.48.14-.74.85-.91,1.2-1.44,2-.54,2.3-2.81,3.84-3.84.17-3.75,3.24-4.6,5.52-6.24,1.39.9,2.44-.15,3.6-.72-.1-1.51.42-3.62-1-3.84-.78-.3-.19.78-1,.48-.25,1,.82,2-.24,2.4-.93-.11-.7-1.39-1.68-1.44-.08.8,0,1.48.48,1.68-.74.06-.58,1-1.2,1.2-2.52-.2-4,.69-6,1-.76,1.27-3.66,4.33-5.52,3.84-1.49-.4-2.84-5.52-.24-5,1.74.32.12,2.5,2.4,3.12.53-.53-.24-1,0-1.92,3.22-.94,4.79-3.53,7.68-4.8A6.26,6.26,0,0,0,37,103.35Zm143.76,17c1.77-1.4.13-3.58-.24-5.28-.56-2.59-.84-5.48-1.44-7.92-1,.37,0-1.24-.72-1.2.12,3.85.85,10.46,2.4,14.4Zm-36.72-3.6c-.67,2.7-1.4,5.41-1.92,8.16-.76,4-.89,8-1.44,12.24-.13,1-.59,1.88-.72,2.88-.11.78.08,1.62,0,2.4-.46,4.41-1.48,8.84-1.92,13.2-.59,5.8-.81,11.29-2.16,16.8-1.24,0-1.11-1.29-2.16-1.44v4.32c1.71-.35,2,.76,3.6.48-.47-2.85.44-4.91.72-7.2s.26-4.64.48-7c.37-4,1.59-7.95,1.92-11.76.11-1.28-.1-2.52,0-3.84.47-6.09,1.41-12.27,2.4-18.24,1.11-6.72,3.3-13.81,2.88-20.88C145.15,110.34,144.73,114.07,144.06,116.79Zm-93.6-8.88c.46-.1,1-.09,1-.72h-1ZM171.66,111v-1.92C170.89,108.84,170.89,111.29,171.66,111Zm-127.92.48c.08.87.77,1.15.48,2.4A12.51,12.51,0,0,0,42.3,118c-1.37.23-.84,2.36-2.4,2.4-2.3,3.78-4.8,7.37-9.36,8.88-1.33,1.23-2.57,2.55-4.8,2.88a8.37,8.37,0,0,1-2.4,1.92c-.57.27-1.42.21-1.92.48-.13.07-.28.6-.48.72a10.29,10.29,0,0,0-1.92,1.2c-1.38,1.19-.9,1.53-1.92,2.88-.17.22-.57.18-.72.48s-.05,1.17-.24,1.44c0,.06-.46-.06-.48,0a19.33,19.33,0,0,0-1.2,5.76c.06,2.91,2,4.19,3.6,6.72a23.5,23.5,0,0,1,2.88,8.16c.13.88-.51,1.83.48,2.88,1.07-3.24.16-6.82-.48-10.08-.44-2.22-1.72-4.43-1.92-6.24a5.5,5.5,0,0,1,.48-3.12c1-1.9,3.54-4.11,4.8-5.28.49-.46.75-.76,1.2-1.2a4.11,4.11,0,0,0,2.4-1.44h1.2c-.05-.6.53-.58.72-1,3.4-1.47,6.5-3.25,8.16-6.48.45,0,.53-.27,1-.24a33.92,33.92,0,0,1,1.44-3.36c.24-.61.72-1.33,1-1.92.08-.2.44-.15.48-.24.14-.33-.11-.85,0-1.2,0-.19.39-.14.48-.72s.42-.32.48-.48c.14-.4-.12-1,0-1.44,0,0,.46,0,.48,0a30.88,30.88,0,0,0,.48-3.36c.06-.34.36-.27.48-.72a9.26,9.26,0,0,1,.48-1.68c.43-.93-.12-.43.48-1,.11-.1-.08-.59,0-.72a3.53,3.53,0,0,0,.72-2.88c-.31,0-.34-.31-.72-.24.51,2-1.32.8-1.44,1.68Zm18-.24a1,1,0,0,0-1,.48c.29,0,.56.07.48.48A18,18,0,0,0,65.1,111C64.55,110,61.84,109.49,61.74,111.27Zm16.56,4.32c-.29-1.2-1.43-1.82-2.4-2.4-1.45-.86-3.59-1.84-5.28-1,1.52.39,2.31,1.4,3.6,1.92.81.33,1.51.81,2.4,1.2.36.16.68.61,1,.72.66.27,2,.19,2.64.48.27.12-.07.4.48.48,1.56.24,3.34-.2,5,0,1.08.13,1.81,1.09,2.88.24C86.09,115.29,81.85,116,78.3,115.59Zm94.08,0c0-.6.46-.75-.24-1C172.18,115,172.05,115.51,172.38,115.59Zm15.36,1.92a1.15,1.15,0,0,0-1,1.44c-.9.28-2.68,2.87-1.68,3.36.92-2.11,2.7-3.38,3.12-6C187.41,116.06,187.84,117.05,187.74,117.51Zm-58.8-1c-1.67,1.77-4.37,2.51-7.92,2.4-.2-.6-1.1-.5-1.92-.48-.16,1.12-.5,2.06-1.44,2.4a16.63,16.63,0,0,1-1.68,5.28c-1.43.55-.87-.89-1.68-1-1.63-.19-2,.86-3.36,1-.41,3.91,1.06,5.45,1.92,7.92.73,2.12,0,3.88,1,6.24,1.85-1.19,4.17-1.91,5.28-3.84,1.6-1.27,2.9.27,4.08.48a8.34,8.34,0,0,0,3.36-.48c.55-.11,1.09.09,1.68,0,2.47-.39,4.2-2,4.56-3.36-1.57-1.88,1.18-5.27-.48-7.2,1-.78.26-3.26.48-4.8-1.19-1.13-.8-3.84-2.4-4.56ZM23.82,119c-1,2,.36,5.93-2.4,6.24.17.73-.25.88-.24,1.44,1.82,1.66,2.25-1.36,3.6-1.68.12-2.68,1.24-4.36,1.44-7-.78.3-.19-.78-1-.48C25.14,118.16,24,118.58,23.82,119Zm81.6,2.88c-.14.78.76,1.27,1,2.16.51,2.26-.13,4.48.24,6.48.31,1.7,1.69,3,2.16,4.8.59,2.19,0,4.15.24,6.72-.48,1.78-1.58,2.86-2.16,4.08-.28.6-.15,1.44-.48,2.16-.16.35-.55.65-.72,1-1.39,2.54-1.22,4.44-3.12,6a12,12,0,0,0-1.68,1.2H98.22a2.44,2.44,0,0,1-1.44,1.44c-.92-.2-2-.19-1.92-1.44-1.8.2-2.26-.94-3.36-1.44a2.44,2.44,0,0,0-1.44,1.44,2.31,2.31,0,0,1,2.4,1.44,36.79,36.79,0,0,0,7.2,1.2,11.57,11.57,0,0,1,3.84-2.16c.56-.24,1-.72,1.68-.48.57-5.75,3.84-8.8,5.76-13.2v-4.56c-1.12-2.51-2.54-5.29-2.88-8.64-.3-3,.36-6.14-1.2-8.64-.5.14-1.67-.39-1.44.48Zm-62.16,6.72h1c-.32-1.07,1.39-2.3,0-2.88C44.18,126.91,42.9,126.9,43.26,128.55ZM41.82,131a20.58,20.58,0,0,0-2.64,2.64c-2.13,1-3.11,3.13-5.52,3.84.22,1.1-.66,1.1-1.2,1.44-1.45,4.33-3.35,8.35-3.84,13.2-.45,4.5-.41,8-1,12.72-.91-.35-.05,1.07-1,.72.15,2.72-1.18,3.94-1,6.72a22,22,0,0,0-1.92,5.52c-2.92,3.82-5.35,8.53-8.88,11.28a31.08,31.08,0,0,0-6.24,6.48A18.2,18.2,0,0,1,14,200.79c.64,2.64.26,6.3.72,9.12-.2-.87.5-.2.72-.72s-.14-1,0-1.44a45,45,0,0,0,1.44-8.88,6.06,6.06,0,0,0,.72-1.44,106.51,106.51,0,0,1,5.28-13.2c.77.21.33-.79,1-.72.39-1.52.8-3,1.92-3.84a1.59,1.59,0,0,1,.48-1.68c.12-.27-.1-.69,0-1,0-.07.41-.08.48-.24.37-.8.18-.92.48-1.44.58-1,.72-2,1.2-2.88a28.68,28.68,0,0,0,1.2-2.88,22.45,22.45,0,0,0,1-2.4c1-3.59.61-7,1-10.56.8-8.23,5.8-14,7.68-20.64,2-1.48,2.88-4.15,4.08-6.48-.46.05-.53-.27-1-.24.22.94-.84.6-.48,1.68Zm6.24,2.64c.87-.92.24-3.08-.48-3.84C46.72,130.73,47.22,132.9,48.06,133.59Zm.24,3.6c.06-.33-.15-.94-.24-.48S48.21,137.64,48.3,137.19Zm.72,6.48c-.59-1.58-1.06-4.87-1.44-6C47.45,140.28,47.73,142.48,49,143.67Zm13.68,2.64c-.1,2.18,1.6,2.56,1.92,4.32,3.47,1.73,7.2,1.87,9.6,4.8.35.11.87-.15,1.2,0,.07,0,.45.85.72,1s.74-.14,1,0c.45.29.89,1.27,1.2,1.44s.52-.08.72,0,.22.47.24.48c.32.11,1.06-.18,1.44,0s-.1.43.48.48a18.4,18.4,0,0,0,2.4-.48,3.92,3.92,0,0,0,1.68-.48,4.73,4.73,0,0,0,1.44-.72c.24-.18,1-.32.72-.72-3.79-.08-5.75.72-9.12,0-2-2.12-4.87-3.29-7-5.28-2.49-.15-3.94-1.34-6.24-1.68-.41-1.11-1.43-1.61-1.44-3.12a4,4,0,0,1-1.92-3.6c-1.62-.3-1.49-2.35-3.84-1.92a60.26,60.26,0,0,0,4.8,5.52Zm74.64,2.4c-.11-.86.25-3.44-.24-3.12C137.21,146.44,136.85,149,137.34,148.71Zm-83.28-1.44v-.72h-.72Q53.28,147.33,54.06,147.27Zm52.8,10.56c-.32.58-1,.42-1.44.72s-.74.92-1.2,1.2-1.32.64-1.92,1c-3.82,2-7.5-.12-12.48-.48-.26-.93-1.38-1-2.16-1.44-2.75,1.72-5.71,2.1-9.84,1.44-1.34-.82-2.34-2-4.56-1.92-.28-1-1.76-.79-1.92-1.92-2.65-.43-4.3-3-7.2-2.4,0,1.25-.45,2.11-.48,3.36-.77-.3-.18.78-1,.48a226.94,226.94,0,0,0-4.32,47.52c0,.38.61.19.48.72-.25,5.62.94,9.79,1,15.12,0,.38.61.19.48.72v3.6c0,.38.61.19.48.72a67,67,0,0,0,2.4,13.92v2.16c1.1,1.43.67,3.26,1,4.8.43,2.22,1.39,3.74,1.92,5.52.42,1.37.5,2.77,1,4.08.2.57.78,1,1,1.44.79,2.08.79,4.33,1.44,6.24.26.77.93,1.42,1.2,2.16C72,270.39,72.33,274.61,73,279c3.25,5.17-.32,12.48.24,19,.07.78,0,1.89.72,2.4,1.06-1.26,3.63-1,4.56-2.4,2.39-.58,4.49-.17,6.24-.72a7.27,7.27,0,0,0,1.68-.72c.42-.32.51-1.11,1-1.44s1.18-.15,1.68-.48c.27-.18.26-.76.48-1,1.53-1.35,3.64-1.43,5.28-2.4-.22-2.22.89-3.11,1-5a4.47,4.47,0,0,0,1.92-2.88c.92.54.85-.65,1.2-1,.19-.16.55-.08.72-.24s.27-.53.48-.72a14.62,14.62,0,0,1,1.92-1.2,13.17,13.17,0,0,1,8.64-2.64c2.42-1.55,6.82-1.6,8.4-3.6a11.79,11.79,0,0,0,2.16-3.84c.14-1.64-1.46-2.62-1.2-4.8a7.93,7.93,0,0,1-1.92-4.32,4.07,4.07,0,0,1-1.44-2.88c-1.43-.65-1.71-2.45-2.88-3.36.31-.95-.79-.49-.48-1.44-2.4-2.51-4.08-5.79-5.76-9.12a33.86,33.86,0,0,1-2.64-6c-.16-.62,0-1.49-.24-2.16-.28-.95-1-1.69-1.2-2.64s-.2-2.39-.48-3.6-.82-2.12-1-3.12c-.08-.6.14-1.29,0-1.92-.19-.89-.77-1.73-1-2.64-.12-.58.08-1.37,0-1.92-.4-2.79-1.43-6.81-1.92-8.88,0-3.89-1.48-6.36-1-10.8-.92-.52-.3-2.58-.48-3.84.3-.78-.77-.18-.48-1,.25-3.37-1.26-5-1-8.4,0-.38-.61-.19-.48-.72a34.8,34.8,0,0,0-.48-4.56c-.68-2.91-2.59-5.52-1.68-8.16,2-.26,1.84,2.19,2.16,3.36.09.33.35,0,.48.24s-.09.71,0,1c.5,1.29,1,2.78,1.44,3.84a4.73,4.73,0,0,0,.48,2.88c.09.37-.11.83,0,1.2s.39.21.48.72a17.94,17.94,0,0,0,.48,1.92c.09.37-.12.84,0,1.2s.41.2.48.72c.21,1.5-.13,3.09,0,4.56.25,2.69.69,5.84,1,8.64.3,3,1.47,6.42,1.92,9.36a38.09,38.09,0,0,0,1,4.08c.7,2.95.78,5.94,1.44,8.64.14.55.54,1.09.72,1.68.52,1.69.82,3.74,1.2,4.8.49,1.36.76,2.08,1.2,3.12a44.5,44.5,0,0,0,2.4,5.52c1.13,1.74,2.32,4.31,3.36,6,.19.3.76.42,1,.72s.25,1,.48,1.44c.09.15.33.21.48.48a10.21,10.21,0,0,0,1.92,2.88,15.06,15.06,0,0,0,2.4,4.32v1.44c1,.55.93,2.27,1.92,2.88,1.63-.89,2.67-2.42,4.8-2.4s3.74,1.5,5.52,1.92c5.39-.82,7.56-4.85,11.28-7,2.38-1.34,5.12-1.51,7.2-2.88v-1.44c1.22-.22.59-2.29,1.92-2.4-.13-1.09.13-1.79,1-1.92,0-2.55,1.39-3.73,1.92-5.76-1.35-2.73-3.8-4.35-4.32-7.92-1-.66-1-1.94-1.44-2.88-.18-.36-.49-.56-.72-1-.78-1.36-1.81-3.37-2.4-4.56s-1-2.69-1.68-3.84c-1.7-3-4.05-5.71-5-9.12-.83,0-.61-1-1.44-1,.05-1.81-1.65-1.87-1.44-3.84a18.75,18.75,0,0,1-5.28-7.92c-2.62-2.23-3.45-5.89-5.52-8.64a35.26,35.26,0,0,1-2.4-2.64c-1.47-2.45-2.23-5.39-4.32-7.44-1.13-3-3-5.27-4.8-7.68-.45-5.07-5-7.35-3.6-13.44,1.42.5,1.56,2.14,2.16,3.36s1.7,2.42,1.92,3.84c2.75,2.54,4,6.53,6.48,9.36-.1-3.59-2-5.11-3.12-7.44-.52-1.09-.54-2.22-1.44-3.12v-1.2c-1.69-1.74-1.88-5-3.36-7-.4-3-1.95-4.92-3.6-6.72-1.57,2.51-2.37,5.79-3.36,8.88ZM44.7,154.47c-.78-.3-.18.78-1,.48v1.44c-1-.37,0,1.33-1,1-.45,3.87-2.64,6-3.36,9.6-.76,0-.47,1-1,1.2.65-.17-.17,1.13.48,1v-1a9.87,9.87,0,0,0,2.88-5.76c1,.37,0-1.33,1-1-.35-1.71.76-2,.48-3.6,1,.37,0-1.33,1-1,.06-3.86,3.87-4,5-6.72C47,150.82,45.1,151.9,44.7,154.47Zm90.48,7.44c1.74-1.7.66-6,1.44-9.12.1-.39.45-.18.48-.72s-.54-1-.24-1.44h-.72c-.58,3.5-.58,7.58-1,11.28Zm54-3.6h.48v-1h-.48Zm1.92,10.32c.2.84-.42,2.45,1,2.4.92-2.58-.78-6-1.44-8.88-.15-.66.42-1.54-.48-1.92a22.52,22.52,0,0,0,1,8.4ZM25.74,196.23c-.53,2-.6,3.76-1.44,5.52.46-.05.53.27,1,.24.18-3.5,2.35-5,2.4-8.64.71.48.32-.67.48-1,0-.07.45.07.48,0s-.15-.82,0-1c1.19-1.08,1.64-4,2.4-5.76.72-.11.88-.91,1.2-1.44a28.32,28.32,0,0,0,3.84-8.88c1-.43,1.18-3,1.2-3.6-4,7.95-9,15.09-11.52,24.48Zm112.8-17.76c2.47.94,7.64.54,11.28.72-.64-1.27-2.9-.07-4.56-.48-.39-.1-.19-.43-.72-.48-2.26-.22-4.75.36-6.48-.48,0,.37,0,.83.48.72ZM19,218.07c-.19,3.38-1.61,6.89-2.4,9.36-.34,1.08-.69,2.17-1,3.36-.5,2.2-1.32,4.47-1.68,6.72-.57,3.57-.46,7.11-1,10.56-.59,4.15-2.77,8-2.16,12,2.2-6.64,3.44-14.28,4.8-21.36.28-1.42.37-3,.72-4.32.46-1.71,1.33-3.33,1.68-5,.57-2.74,1-4.47,1.44-7,.19-1,.67-1.92,1-2.88a78.81,78.81,0,0,1,2.88-8.64c-.14-3.42,1.32-5.24,1.44-8.4-.05-.19-.2-.28-.48-.24-1.85,5.19-2.8,11.27-5.28,15.84Zm39.36,8.64c0-.17-.08-1.4-.24-.72C57.93,226.9,58.27,227.19,58.38,226.71Zm1.92,15.84c.17-1-.49-1.11-.72-1.68C59.61,241.63,59.35,242.7,60.3,242.55Zm5.76,22.8c1,.23.39,2.17,1.44,2.4.49-2.26-.94-4.65-1.68-6.48H65.1c0,1.73,1.22,2.13,1,4.08Zm-56.4-2.64c-.06.16-.46.19-.48.24-.16.45.13,1.08,0,1.68-.07.37-.38.23-.48.72-.21,1.07-.06.59-.48,1-.11.1.08.59,0,.72a8.82,8.82,0,0,0-1,1.92c-.06.22-.45.17-.48.24-.38,1.18.15.89-.48,1.44-.11.1.08.59,0,.72a9,9,0,0,0-1.2,2.4c-.2,2.84,1.88,3.6,3.6,4.56.19.1.49.35.72.48,1.17.68.85.33,2.16.72,0,0,.11.42.24.48s.69-.1,1,0c.07,0,.09.41.24.48.81.37.92.18,1.44.48s1.22.16,1.92.48c.28.12-.07.39.48.48,1.92.31,4.75-.23,6.72,0,2.08-1.6,5.38-2,8.4-2.64-.65-1.27-3.31-.53-5-.72a13.33,13.33,0,0,1-6,1,6.13,6.13,0,0,1-1.44,1c-2.26-.7-5.57-.41-7.68-1.2-1.81-.68-2.68-2.64-4.56-3.12-.13-2.21.2-4,1.44-4.8.21-3.11,2.15-5.64,1.44-8.88.87.23.47-1.08,0-1a5.37,5.37,0,0,0-.48,1.2ZM34.14,279c-.24.81.75.37,1.2.48.17-.83-.84-.86-1.2-.48ZM114.78,281c.12.84-1.17.27-1.2,1-2.13-.3-2.85.83-5,.48-.93,1.43-2.11,1.59-2.16,3.12,0,1.15,1.23,1.91,1.68,3.36.38,1.18-.06,2,.48,3.12a7.23,7.23,0,0,0,4.32.48c.31-2.1,1.37-3.44,1.92-5.28,1.37-.32,2-1.32,2.88-2.16.13-1.33-.84-1.56-.48-3.12-.9-.23-1.23-1-2.4-1Zm-72,5.76a7.25,7.25,0,0,1-2.4,2.4c-.14,1.48.19,2.83,0,4.32-.35,2.86-2.34,6-.24,7.92,3.18-1.46,5-4.32,9.36-4.56-.92-4.4,2.44-6.86,1-9.6-3.07.35-4.81-.63-7.68-.48Zm-2.4,17.52c1.06.14.55-1,.24-1.44a2.07,2.07,0,0,0-.24,1.44Zm4.32,3.36a9.93,9.93,0,0,1,2.88,4.08c2.48-1.28,4.16-3.36,7.44-3.84.18-3-2.41-3.19-3.36-5-4.19-.27-5.49,2.34-7,4.8Zm-1.92,0a3.41,3.41,0,0,0,1.92-2.88C43.13,304.73,42.87,306.07,42.78,307.59Zm-2.4,1.2c1.11-.17,1-1.57,1-2.88a2,2,0,0,0-1.44-.24A7.91,7.91,0,0,0,40.38,308.79Zm22.32,7.68h1.92a2.37,2.37,0,0,0-1.44-1.92C62.58,314.74,62.68,315.64,62.7,316.47ZM45.9,317c-.2-.84-.54-1.53-1.68-1.44C44.12,316.64,44.74,317.07,45.9,317Z"/></svg>