<svg id="Layer_1" data-name="Layer 1" xmlns="http://www.w3.org/2000/svg" viewBox="0 0 779.6 1652.4"><defs><style>.cls-1{fill:#fff;stroke:#fff;}.cls-1,.cls-2,.cls-3,.cls-4,.cls-5,.cls-6{stroke-width:0.09px;}.cls-2{stroke:#000;}.cls-3{fill:#603814;stroke:#603814;}.cls-4{fill:#eacbc8;stroke:#eacbc8;}.cls-5{fill:#c2272d;stroke:#c2272d;}.cls-6{fill:#016938;stroke:#016938;}</style></defs><title>girl-28</title><path class="cls-1" d="M256.37,423.13c12.22-3.67,24.68-6.45,36.87-10.2.75,5.71,1.53,11.55,4,16.82s6.87,9.28,11.59,12.52c4.45,3,9.08,5.92,14.33,7.3,14,4,28.63,5.7,42.54,10.15a19.49,19.49,0,0,0,.37,14.31c-4,7.3-10.73,12.56-17.41,17.29a155.77,155.77,0,0,1-43.26,20.06c-7.77,2.46-16,1.73-24,.54-17.73-3-35-10-49.17-21.14-9.85-7.87-18.27-18.93-19.16-31.91-.75-8,3.69-15.59,9.86-20.39C232.66,430.74,244.67,426.76,256.37,423.13Z"/><path class="cls-1" d="M443.72,417.63c3.17-.55,6.23-2.26,9.45-2.1,16.72,4.56,33.86,8.22,49.63,15.63,7.81,3.84,15.82,8.9,19.7,17,3.71,7.7,1.79,16.76-1.74,24.16-6,12.13-17.16,20.81-28.79,27.26a115.18,115.18,0,0,1-35.56,12.28c-7.83,1.17-16,2-23.69-.37a156.34,156.34,0,0,1-41.54-18.71c-7.44-5-15-10.56-19.52-18.46-2.43-4.1-3.34-9.62-.7-13.83,1.82-1.25,4-1.72,6.1-2.34,11.4-3,23.09-4.88,34.53-7.81,8.56-1.94,16.2-6.8,22.72-12.54C440.17,432.75,442.61,425.07,443.72,417.63Z"/><path class="cls-2" d="M427.59,7.25C448.68-.69,472.37-2.61,494.08,4c19.31,5.63,36.16,17.46,50.6,31.2,23.44,22,40.38,50.31,51.64,80.31,11.83,31.24,18.07,64.28,22.3,97.32l2-.27c1.64,2.82,2.83,5.88,4.42,8.73l-2.35,1.16c10.64,11.52,22.48,22.63,37.2,28.65C679.77,258.56,700.94,262,721,269c9.59,3.38,19,7.66,27.23,13.67,5.68,4,10,9.53,14.18,14.95a85.82,85.82,0,0,1,17.17,52.2c-.18,18.23-4.64,36.65-13.92,52.43-2.91,5-7.77,9.08-13.57,10.16a11.64,11.64,0,0,1-11.62-5.09c-16.13-23.07-37.89-42.83-64.2-53.49a145.82,145.82,0,0,0-32-9c-22.88-4.25-45.21-14.61-60.95-32.11C566.26,345.38,539,372.12,507.53,391A250.2,250.2,0,0,1,461,412.63c16.16,4,32.55,8.18,47.38,16a57.45,57.45,0,0,1,13.15,9.55c12.27,2,24.51,4.19,36.82,6,17.32,1.56,34.48,6.85,49,16.53,16.74,11,29.62,26.89,39.88,43.9,15,25,25.47,52.26,37.26,78.81,5.09,12.06,11.16,23.67,16.12,35.78,5.36,13.11,9.43,27.26,8,41.57-1.48,15.39-8.93,29.4-17.43,42-10.58,15.39-22.36,30.24-37.06,41.92-12.38,9.91-26.72,17-41.28,23.08q19.33,25.8,39.08,51.3c11.21,14.73,23.13,28.9,34.07,43.83,21.86,29.86,38.65,63.66,47.09,99.79a316.27,316.27,0,0,1,6,33.19c1.71,10.24,5.37,20.32,4.32,30.85a39.41,39.41,0,0,1-5.57,24.69c-7.46,12.31-19.19,21.27-31.25,28.75-17.55,10.68-36.73,18.37-56.15,24.91-28.52,9.44-57.88,16.17-87.45,21.4-3.65,4.77-9.87,8.56-10,15.19-.36,11.51,5,22.06,8.33,32.79,3.41,10.08,5.12,21.38,1.24,31.59-11.61,30.3-17.54,62.49-20.24,94.74-2.37,25.26-2.31,50.65-3.68,76-1.1,23.86-1.94,48,2.34,71.61,3.07,1.55,6.43,3.29,7.91,6.61a149.36,149.36,0,0,1,10.4,33.85c.52,2.88,3.13,4.7,4.82,6.93,2.49,3.27,7.08,3.36,10.14,5.91,12.87,9.56,25.76,20.14,33.41,34.53a45.23,45.23,0,0,1,3.42,34.6c-2.37,7.19-7,13.39-12.06,18.92-12.72,13.49-28.8,23.08-42.7,35.23-12.34,10-28.55,13.6-44.08,14.51-22.08,1.15-44.2-2.62-65.17-9.39a165.42,165.42,0,0,1-32.44-14.5c-10.74,11.71-25.36,18.86-39.95,24.58-23.72,8.85-49.2,13.69-74.57,12.25-15.19-1.05-31-4.73-43-14.55-13.39-11.68-28.75-21-41.23-33.72-5.56-5.79-10.67-12.3-13.26-20a44.7,44.7,0,0,1,2.85-34.14c6.61-13,17.76-23,29.18-31.84,3.12-2.4,6.21-5,10-6.28,3.29-10.9,5.77-22,8.84-33,5.69-20.64,11-41.6,11.77-63.11,2.21-50.17-13.26-98.94-14.08-149-.66-25.57-2.76-51.81,4.59-76.69,2.73-9.32,4-19.26,2.08-28.86a92.21,92.21,0,0,0-7.23-20.71c-46.12-3.12-90.66-16.35-135.52-26.58-28.59-5.56-53.78-21.26-77.43-37.53-13.94-9.31-25.19-23.27-29.33-39.7-1.73-5.82-.7-12.07,1.35-17.65,3.37-9.08,9.78-16.69,17-23,1.88-1.58,2.67-4,3.78-6.1,24-48.49,54.39-93.44,85.2-137.8,13.12-18.73,25.15-38.19,37.29-57.55-18.85-7.48-38.1-14.84-54.66-26.8-14-9.9-25.41-22.91-35.57-36.59s-19.74-28.56-23-45.54C36.84,671.48,40,656.86,45,643.5c5.69-15.09,13.32-29.35,19.78-44.11,9.9-21.75,19.46-43.77,32-64.18,8.54-14,18.69-27,30.84-38.05,11.32-10.52,24.6-18.68,38.37-25.58,11.29-4.74,22.74-9.11,34.07-13.75,3.08-1.28,5.65-3.47,8.39-5.31,2.09-11,11.25-18.89,20.73-23.89C247.48,419,268,415,287.71,409.6c-42.71-16.44-81.44-45-106.3-83.78-14.4,10.51-31.66,16.5-49.11,19.53a136.3,136.3,0,0,0-54.06,22.14c-15.42,10.72-28.5,24.6-39.24,40-2.83,4.47-9,6.19-13.83,4.32-5.42-1.69-9.45-6.07-12.08-10.95C3.92,384.44-.33,365.47,0,346.76c.42-20.28,8.6-40.05,22-55.21,6.14-7.8,14.84-13,23.64-17.3,22.08-10.36,46.53-13.63,69.48-21.48a70.5,70.5,0,0,0,18-8.91c1.91-3.77,2.85-8.16,5.71-11.36-3.26-31.63-.56-64,8.85-94.4a162.92,162.92,0,0,1,15.59-35.36c15.9-26.71,35-52,59.1-71.84,18-14.77,40-26.47,63.77-27,20.15-.85,39.79,7.18,55.59,19.31,8.19,5.95,15.91,13,25.63,16.39,5.61,2,12.36,1.31,16.88-2.79,13.27-11.37,26.69-23.41,43.35-29.53m.84,1.69c-16.19,6-29.35,17.52-42.22,28.62-3.54,3.16-8.2,5.29-13,4.95-8.28-.35-15.38-5.22-22-9.77-9.81-7.45-19.5-15.34-30.95-20.17a78.88,78.88,0,0,0-55.52-3.29c-24.06,7.42-44.17,23.77-61.2,41.83C187.6,68.34,174,87.69,162.34,108c-14.73,27.12-21.26,58-22.75,88.66-.36,12.39-.33,24.85,1.49,37.13,25.52,7,50.86,14.6,76.36,21.64,22.12-30.92,49.42-57.69,78-82.57,27.77-24.31,56.3-47.77,83.2-73.05a126.85,126.85,0,0,0,33,41.39c15.54,13,33.44,22.7,51.5,31.65,32.05,15.57,64.7,30.42,94.15,50.68,2.5,1.38,4.76,4.81,8,3.56,17.15-4.69,34.4-9.06,51.54-13.78-4-30.35-9.5-60.66-19.54-89.65-11.17-32.28-28.43-63-53.42-86.65C529.26,23,512.1,10.92,492.37,5.48c-20.94-6.1-43.66-4.12-63.94,3.46M302.67,169.06c-30.19,26.06-59.34,53.8-82.81,86.22-.16,3.9-1.52,7.6-2.35,11.39-.55,1.83-.52,4.15-2.38,5.24a80.47,80.47,0,0,1-29.75,50.93c18.3,28.77,44.63,52,74.41,68.35,74.24,40.7,169.69,39.73,242.87-3C535,369.33,562.94,342,580,308.49a78.32,78.32,0,0,1-11.31-20.32c-5.85-15.24-5.66-31.91-5-48l-2.77.78c-1.38-3.83-2.13-7.85-3.33-11.72l3.11-1.11c-29.93-21.33-63.5-36.67-96.45-52.63-17.42-8.62-34.76-17.75-50.06-29.83a130.25,130.25,0,0,1-36.06-42.82c-24.45,22.86-50.19,44.27-75.47,66.19m310.64,49c-17,4.55-34,9.15-51.1,13.52.31,1.59.61,3.18.93,4.77,7.48-1.76,14.72-4.4,22.13-6.47,11.61-3.65,23.39-6.79,34.91-10.76-1-3.49-4.49-1.55-6.87-1.06m-47.54,21.42c-1,9.38-.4,18.86.23,28.25,1.78,23,15.16,44.32,34.1,57.22,13.84,9.71,30.12,15.55,46.71,18.42a142.83,142.83,0,0,1,38.42,12.41C707.92,367,727,384.81,741.45,405.49a10.12,10.12,0,0,0,10.49,5c5.14-.94,9.38-4.59,12-9,9.59-16.1,14-35,13.75-53.71-.13-19.69-7.82-39.05-20.6-53.95-8.8-11.34-22.23-17.81-35.42-22.64-20.75-7.4-42.72-10.76-63.32-18.65-12.18-5.15-22.55-13.73-31.63-23.21-2.17-2-3.94-4.49-6.4-6.17-18.23,5.22-36.3,11-54.52,16.33m-425.85-2.57-2.48,5.3q38.24,12.74,76.61,25.05c.59-2.89,1.27-5.76,2-8.62-25.37-7.21-50.71-14.53-76.09-21.73m-7.14,9.32a60.56,60.56,0,0,1-11.67,6.36c-13.6,5.3-27.91,8.35-41.95,12.21-15.59,4.13-31.46,8.8-44.88,18.07-7,4.57-12.28,11.23-17.13,17.92A84.54,84.54,0,0,0,1.86,349.7c.21,18,4.56,36.15,13.75,51.7,3.13,5.35,9.08,9.93,15.56,9.06,4.57-.66,6.95-5,9.39-8.36a163.72,163.72,0,0,1,32.65-33.33,138.26,138.26,0,0,1,60.14-25.53c23.74-4.14,47.21-14.76,62.88-33.56,9-11.17,15.73-24.83,16.77-39.28-25.86-8.17-51.55-16.88-77.38-25.13-1.08-.47-2,.47-2.84.94m165.47,167a53.52,53.52,0,0,0,3,13.65c2.11,5.14,6.47,8.91,11,11.89,3.79,2.4,7.62,4.94,12,6.09,12.2,3.46,24.81,5.23,37.05,8.56,3.48,1,7.22,2.44,10.85,1.19,13.91-4.37,28.53-5.95,42.48-10.2a53.39,53.39,0,0,0,16.73-10.47c4.22-3.86,6-9.47,7.13-14.91a261.18,261.18,0,0,1-140.29-5.8m-41.88,10c-11.7,3.63-23.71,7.61-33.42,15.35-6.17,4.8-10.61,12.38-9.86,20.39.89,13,9.31,24,19.16,31.91,14.18,11.16,31.44,18.11,49.17,21.14,7.92,1.19,16.19,1.92,24-.54a155.77,155.77,0,0,0,43.26-20.06c6.68-4.73,13.41-10,17.41-17.29a19.49,19.49,0,0,1-.37-14.31c-13.91-4.45-28.51-6.15-42.54-10.15-5.25-1.38-9.88-4.3-14.33-7.3-4.72-3.24-9.14-7.25-11.59-12.52s-3.23-11.11-4-16.82c-12.19,3.75-24.65,6.53-36.87,10.2m187.35-5.5c-1.11,7.44-3.55,15.12-9.41,20.2-6.52,5.74-14.16,10.6-22.72,12.54-11.44,2.93-23.13,4.77-34.53,7.81-2.08.62-4.28,1.09-6.1,2.34-2.64,4.21-1.73,9.73.7,13.83,4.56,7.9,12.08,13.46,19.52,18.46a156.34,156.34,0,0,0,41.54,18.71c7.7,2.32,15.86,1.54,23.69.37A115.18,115.18,0,0,0,492,499.61c11.63-6.45,22.74-15.13,28.79-27.26,3.53-7.4,5.45-16.46,1.74-24.16-3.88-8.13-11.89-13.19-19.7-17-15.77-7.41-32.91-11.07-49.63-15.63-3.22-.16-6.28,1.55-9.45,2.1m82.16,26.28a27.39,27.39,0,0,1,3.33,16.85c-1.49,14.29-10.9,26.45-22,34.93a112.9,112.9,0,0,1-52.74,21.44c-6.68.78-13.56,1.39-20.17-.22-10-2.26-19.46-6.25-28.73-10.49-13.67-6.85-27.45-14.86-36.87-27.23-5.48,7.87-13.35,13.65-21.32,18.79a164.52,164.52,0,0,1-40.83,18.17c-10.24,3-21.11,1.65-31.4-.39-17.66-3.86-34.9-11.26-48.56-23.28-9.95-8.44-17.44-20.34-18.53-33.55-5.06,3.69-11.2,5.25-16.84,7.78-6.06,2.68-12.53,4.5-18.3,7.8,4.55,3.91,9.29,7.64,13.62,11.77,5,13.76,9.61,27.69,14.27,41.57,3.65,12.52,7,25.13,10.67,37.66,2.44,7.54,2.66,15.53,3.91,23.31,1.94,17,5.17,33.85,5.74,51,.31,6.67,1.18,13.36.81,20-4.09,15.44-8.8,30.73-12.8,46.21,52.54,0,105.08-.11,157.62.06a10.52,10.52,0,0,1-4.44-9.31c-.15-4.27,3.23-9.29,8-8.44,7.4,2.52,7.38,14.07.92,17.75,61.15-.17,122.31-.07,183.47-.05-1.56-8.44-2.83-16.95-4.54-25.35-3.2-9.89-7.18-19.53-10.29-29.43-.38-21.5,0-43-.08-64.54-.11-5,.85-10,1.3-14.94,1.43-12.67,2.75-25.35,4.18-38,2.33-22.79,6.2-45.37,9.18-68.07.61-5.68,3-10.92,4.47-16.4-11-1.73-22-3.66-33-5.38m38,6c-1.28,5.07-3.44,9.9-4.4,15.05-3.82,28.23-8.35,56.37-11,84.74-1.22,15-4.32,29.92-3.8,45v49c0,3.23-.34,6.61,1,9.67,2.38,6.33,4.63,12.7,6.88,19.08,3.86,9.3,4.41,19.5,6.41,29.28a21.64,21.64,0,0,0,5.84,13.37,65.8,65.8,0,0,1,21.88,17.18c8,10.31,15.33,21.1,23.37,31.38,14.29-6.05,28.43-13,40.68-22.6,15.5-12.2,27.75-28,38.57-44.31,7.63-11.71,14-24.88,14.69-39.07.93-22.92-11-43.39-20-63.64C676,576.83,668.93,559.23,661,542c-11.13-24.06-23.62-48.39-43.31-66.66a96.59,96.59,0,0,0-53.88-25.43m-460,83.42C91.18,552.91,81.59,574.25,72,595.44,65.9,609.3,59.16,622.86,53,636.7,46.93,650.9,41.8,666.34,44,682c2.55,17.36,12.38,32.45,22.6,46.28s22,27,36.36,36.8c16,11.2,34.51,18.12,52.55,25.35C167.1,772,178.64,753.6,191.43,736c2.24-3.17,5-6.1,6.18-9.87,6.31-18.57,11-37.62,16.49-56.45,1.16-5,3.52-9.78,3-15-.79-12.32-.94-24.72-2.86-36.94-2.25-15.88-3.85-31.88-6.54-47.69-5.21-17.42-9.31-35.19-15.47-52.31-2.58-8-5.56-15.88-8.08-23.91-.79-2.08-1.22-4.51-3-6-4.41-3.71-8.84-7.38-13.09-11.27-26.62,11.64-48.57,32.42-64.17,56.71M207.32,710.46c-2.19,6.92-4.28,13.89-6.89,20.66C182.64,755,167,780.41,151.24,805.7c-14.14,23-29.26,45.32-44.69,67.44-26.92,39.26-52.93,79.35-73.8,122.22-2,3.84-5.86,6.12-8.61,9.35-7,7.54-13,17.42-12.12,28.09,2.85,15.15,12.47,28.47,24.74,37.53,9,6.49,18.21,12.56,27.7,18.22,14.5,8.37,29.63,16.07,46,19.87,40.78,9.11,81.08,20.9,122.63,26.1,27.88,3.63,56.05,2.24,84.08,2.38,10-.09,20-.61,30.05,0,77,1.45,154.37-3,230.07-17.59,39-7.89,78.07-17.88,113.86-35.7,15.39-8,30.75-17.54,41.1-31.81,4.15-6.18,7.31-13.49,6.79-21.08-.31-5,.38-10.09-.41-15.07-1-6.49-3-12.77-3.92-19.26-1-7.56-2.18-15.1-3.77-22.56-6.66-34.51-20.83-67.36-40.37-96.52-11.5-17.51-25.16-33.44-37.89-50-22.91-29.23-45.14-59-67.06-89a58.66,58.66,0,0,0-22.2-18.78c-3.84-1.6-4.92-6-7.15-9.17q-174.49.15-349,.08m223.53,429.92c4.91,7.1,11,15.23,9.27,24.37-4.39,13.26-9.88,26.15-13.66,39.62-4.57,15.77-6.65,32.46-4.4,48.8,2.23,16.67,7.79,32.78,8.62,49.65.48,8-.69,15.94-.79,23.92-.48,17.38.71,34.75,2.23,52.06.78,9.62,2.29,19.23,1.95,28.92-.23,11.09-2.63,22-5.31,32.74,24-5.11,48.74-1.39,72.62,2.57,11.45,1.28,23.13,1,34.37,3.84-5.28-31.81-1.78-64.08-.9-96.07,1.21-48.91,5-98.73,22.57-144.86,3.52-8.27,2.91-17.64.42-26.09-3.55-12.92-10.47-25.38-9.64-39.13.07-5.21,3.63-9.25,6.87-12.92a1022.71,1022.71,0,0,1-124.22,12.58m-174.61.66c4.37,10,7.89,20.65,7.39,31.68,0,11.35-4.78,21.88-6.34,33-2.34,14.25-2.09,28.76-1.79,43.15.45,13,.58,26,1.72,38.88,3.08,36.14,11.67,71.66,12.9,108a217.49,217.49,0,0,1-7.49,67.68c5.91-3.47,12.79-4.54,19.49-5.34,10-1.28,20.12-1.08,30-3a252.42,252.42,0,0,1,40-4.07c9.76-.1,19.64.44,29.07,3.14-7.61-37.51-12.09-75.89-9.84-114.19,1.11-22.54,5.15-44.79,8.6-67,3.39-21.81,5.45-44,3.58-66-1.63-14.46-9.24-28.41-6.07-43.21,1.91-7.48,4.89-14.66,7-22.09-15.74,0-31.48,0-47.22-.49-27,.24-54,.72-81,0m133.38.43c-2.09,7.47-4.85,14.75-7.09,22.18-3.2,13.3,3.37,26.06,5.4,39,1.43,8.95,1.13,18.08,1.13,27.12-.35,28-6.63,55.49-10.2,83.19-6.57,47.68-2.24,96.28,7.93,143.14,5.68,2.56,11.09,6.75,13.13,12.86,2.49,7.29.5,15.11-2.15,22.07-.71,1.33.68,2.34,1.24,3.47,3.08-6.57,6.5-13,9.63-19.49-2.38-6.93-3.52-15,.12-21.71,3-5.68,8.81-9,14.57-11.27,3.41-13.32,6.48-27,5.93-40.81-2.33-26.09-5.26-52.25-4.13-78.48.4-7.65,1.16-15.32.45-23-1.25-14.2-5.54-27.86-7.78-41.89a115.85,115.85,0,0,1-.43-34.58c2.74-20.41,10.88-39.49,17.71-58.76,1.34-3.4,0-7-1.34-10.19a63,63,0,0,0-9.2-13.81c-11.62.76-23.28.84-34.92.93m29.14,338.64c-.28,2.45-1.55,5-.48,7.48,3.26,8.62,7.93,17.07,15.2,23,11.37,9.15,25.79,13,39.33,17.73,12.3,4.58,26,4,38.48.26,15.13-4.5,29.22-14.16,36.81-28.28-18-10-37.26-18.29-57.68-21.6-23.88-3.53-47.73,3.61-71.66,1.45m-101,11.43c-18.84,2.86-36.64,10.29-53.48,19,4.45,10.2,12.62,18.45,22.13,24.06,14.75,8.63,32.9,12.52,49.65,8.19q10.46-3.16,20.57-7.29c8.06-3.3,16.21-7.74,21-15.31,5.19-8.2,7.54-17.76,10.15-27C364.39,1495.07,341.11,1488.33,317.77,1491.54Z"/><path class="cls-2" d="M310.33,188.28c2.06,1.32,4.47,2.43,5.71,4.66,1.26,2,.91,4.43.89,6.66-1.65-.37-3.62-.42-4.7-1.94C310.22,195,310.58,191.42,310.33,188.28Z"/><path class="cls-2" d="M298.77,200.33c-1.93-2.15-2-5.38-1.15-8,1.48.47,3.18.52,4.52,1.38,2.28,2,1.78,5.29,1.8,8C302.2,201.4,300.08,201.76,298.77,200.33Z"/><path class="cls-2" d="M435.82,204c-.16-4.49,3-8,5.24-11.51C445,196.53,442.17,205.48,435.82,204Z"/><path class="cls-2" d="M449.64,207.84c1.33-4.62,5.85-7.36,10.13-8.88.35,1.77,1.22,3.84-.1,5.44s-3.72,2.13-5.42,3.43c-1.38,1.12-.73,3.18-1,4.7C451.39,211.61,449,210.3,449.64,207.84Z"/><path class="cls-2" d="M284.26,201.29c3.5.38,7.36.79,10.06,3.32,1.69,1.45,2.44,3.6,3.35,5.56-3.82-1.22-8.16-1.14-11.55-3.43C284.31,205.51,284.36,203.22,284.26,201.29Z"/><path class="cls-2" d="M305.06,211.8c6.18-8.49,20.73-7.94,26.89.29.15,6-7.47,9-6.59,15.39-7.14-.58-14.76,1.57-21.49-1.69C302.59,221.22,302.14,215.87,305.06,211.8Z"/><path class="cls-2" d="M457.37,219c.8-6.7,8.38-7.51,13.58-8.82C469.44,216.27,463.18,219.05,457.37,219Z"/><path class="cls-2" d="M418.67,216.34c2.58-1.83,5.35-3.62,8.59-3.93,8-1.07,15.93,3.59,19.74,10.52-5.32,6.57-12.13,13-21.11,13.31A7.25,7.25,0,0,0,420.5,234C417.23,228.69,419,222.2,418.67,216.34Z"/><path class="cls-2" d="M340.55,268.58c5.49,4.52,10.77,9.7,17.64,12.06a30,30,0,0,0,16.84.52c8.62-2.16,12.49-13.07,22.08-12.8-.55,7.53-6.76,13.05-13.28,15.92-10.28,4.46-22.63,5.56-33,.71A18,18,0,0,1,340.55,268.58Z"/><path class="cls-2" d="M367.56,489.19c3.26-1,6.67,1.52,7.6,4.63,2.1,4.88,0,12.44-5.93,13.17C360.67,506.27,359.83,491.93,367.56,489.19Z"/><path class="cls-2" d="M367.59,515.22c4.57-1.38,8.13,3.42,8.27,7.55.64,4.53-2.36,10.86-7.68,10.09C360.41,530.94,360.29,517.8,367.59,515.22Z"/><path class="cls-2" d="M366.47,546c3.53-2,8,.83,8.81,4.58,2,5-.58,13.31-7,12.69C360.89,561.36,360.23,549.54,366.47,546Z"/><path class="cls-2" d="M366.51,576.29a4.91,4.91,0,0,1,4.5-.3c7.14,3.13,6.53,16.59-1.75,17.59C361.07,592.93,359.92,580.06,366.51,576.29Z"/><path class="cls-2" d="M366.6,604.38c5.19-2.54,9.69,3.54,9.32,8.32.38,4.59-3.52,10.45-8.63,8.74C360.75,618.53,360.6,608,366.6,604.38Z"/><path class="cls-2" d="M366.54,628.22c3.88-2.18,8.09,1.46,9,5.22,1.16,4.3-.07,10.39-4.88,11.84-3.22,1.15-6.51-1.51-7.54-4.45C361.39,636.56,362.29,630.65,366.54,628.22Z"/><path class="cls-2" d="M368.5,658c9.6-.14,9.95,17,.69,17.9C360.21,675.32,359.92,659.59,368.5,658Z"/><path class="cls-3" d="M428.43,8.94c20.28-7.58,43-9.56,63.94-3.46C512.1,10.92,529.26,23,543.89,37.05c25,23.62,42.25,54.37,53.42,86.65,10,29,15.54,59.3,19.54,89.65-17.14,4.72-34.39,9.09-51.54,13.78-3.21,1.25-5.47-2.18-8-3.56-29.45-20.26-62.1-35.11-94.15-50.68-18.06-8.95-36-18.69-51.5-31.65a126.85,126.85,0,0,1-33-41.39c-26.9,25.28-55.43,48.74-83.2,73.05-28.59,24.88-55.89,51.65-78,82.57-25.5-7-50.84-14.64-76.36-21.64-1.82-12.28-1.85-24.74-1.49-37.13,1.49-30.63,8-61.54,22.75-88.66C174,87.69,187.6,68.34,203.57,51.11c17-18.06,37.14-34.41,61.2-41.83a78.88,78.88,0,0,1,55.52,3.29c11.45,4.83,21.14,12.72,30.95,20.17,6.58,4.55,13.68,9.42,22,9.77,4.81.34,9.47-1.79,13-4.95C399.08,26.46,412.24,14.89,428.43,8.94Z"/><path class="cls-3" d="M565.77,239.46c18.22-5.29,36.29-11.11,54.52-16.33,2.46,1.68,4.23,4.16,6.4,6.17,9.08,9.48,19.45,18.06,31.63,23.21,20.6,7.89,42.57,11.25,63.32,18.65,13.19,4.83,26.62,11.3,35.42,22.64,12.78,14.9,20.47,34.26,20.6,53.95.24,18.66-4.16,37.61-13.75,53.71-2.59,4.42-6.83,8.07-12,9a10.12,10.12,0,0,1-10.49-5C727,384.81,707.92,367,685.23,355.76a142.83,142.83,0,0,0-38.42-12.41c-16.59-2.87-32.87-8.71-46.71-18.42-18.94-12.9-32.32-34.21-34.1-57.22C565.37,258.32,564.78,248.84,565.77,239.46Z"/><path class="cls-3" d="M132.78,246.21c.86-.47,1.76-1.41,2.84-.94,25.83,8.25,51.52,17,77.38,25.13-1,14.45-7.76,28.11-16.77,39.28-15.67,18.8-39.14,29.42-62.88,33.56a138.26,138.26,0,0,0-60.14,25.53A163.72,163.72,0,0,0,40.56,402.1c-2.44,3.39-4.82,7.7-9.39,8.36-6.48.87-12.43-3.71-15.56-9.06C6.42,385.85,2.07,367.69,1.86,349.7a84.54,84.54,0,0,1,15.29-48.93c4.85-6.69,10.12-13.35,17.13-17.92,13.42-9.27,29.29-13.94,44.88-18.07,14-3.86,28.35-6.91,42-12.21A60.56,60.56,0,0,0,132.78,246.21Z"/><path class="cls-4" d="M302.67,169.06c25.28-21.92,51-43.33,75.47-66.19a130.25,130.25,0,0,0,36.06,42.82c15.3,12.08,32.64,21.21,50.06,29.83,32.95,16,66.52,31.3,96.45,52.63l-3.11,1.11c1.2,3.87,1.95,7.89,3.33,11.72l2.77-.78c-.63,16.06-.82,32.73,5,48A78.32,78.32,0,0,0,580,308.49c-17.1,33.54-45,60.84-77.38,79.72-73.18,42.71-168.63,43.68-242.87,3-29.78-16.37-56.11-39.58-74.41-68.35a80.47,80.47,0,0,0,29.75-50.93c1.86-1.09,1.83-3.41,2.38-5.24.83-3.79,2.19-7.49,2.35-11.39,23.47-32.42,52.62-60.16,82.81-86.22m7.66,19.22c.25,3.14-.11,6.7,1.9,9.38,1.08,1.52,3,1.57,4.7,1.94,0-2.23.37-4.67-.89-6.66-1.24-2.23-3.65-3.34-5.71-4.66m-11.56,12.05c1.31,1.43,3.43,1.07,5.17,1.38,0-2.72.48-6-1.8-8-1.34-.86-3-.91-4.52-1.38-.81,2.63-.78,5.86,1.15,8M435.82,204c6.35,1.48,9.21-7.47,5.24-11.51-2.25,3.55-5.4,7-5.24,11.51m13.82,3.84c-.65,2.46,1.75,3.77,3.57,4.69.31-1.52-.34-3.58,1-4.7,1.7-1.3,4-1.83,5.42-3.43s.45-3.67.1-5.44c-4.28,1.52-8.8,4.26-10.13,8.88m-165.38-6.55c.1,1.93.05,4.22,1.86,5.45,3.39,2.29,7.73,2.21,11.55,3.43-.91-2-1.66-4.11-3.35-5.56-2.7-2.53-6.56-2.94-10.06-3.32m20.8,10.51c-2.92,4.07-2.47,9.42-1.19,14,6.73,3.26,14.35,1.11,21.49,1.69-.88-6.4,6.74-9.34,6.59-15.39-6.16-8.23-20.71-8.78-26.89-.29M457.37,219c5.81.06,12.07-2.72,13.58-8.82-5.2,1.31-12.78,2.12-13.58,8.82m-38.7-2.65c.33,5.86-1.44,12.35,1.83,17.65a7.25,7.25,0,0,1,5.39,2.25c9-.28,15.79-6.74,21.11-13.31-3.81-6.93-11.77-11.59-19.74-10.52-3.24.31-6,2.1-8.59,3.93m-78.12,52.24A18,18,0,0,0,350.86,285c10.34,4.85,22.69,3.75,33-.71,6.52-2.87,12.73-8.39,13.28-15.92-9.59-.27-13.46,10.64-22.08,12.8a30,30,0,0,1-16.84-.52c-6.87-2.36-12.15-7.54-17.64-12.06m-58.44,50.11c4.17,1.62,8.56.32,12.77-.41,1.91,6.24,4.16,12.46,7.84,17.91,8.42,12.94,22.08,21.29,36.07,27.08a260,260,0,0,0,34.56,11.33,117.9,117.9,0,0,0,46.88-18.75,92.55,92.55,0,0,0,31-37.34c3.95.05,9.79.87,11.12-4.07-7.78-2.43-13.52-10.23-22.37-9.1a16.93,16.93,0,0,0-.31,4.92c1.87,1.44,4.37,1.46,6.49,2.37,1.39,1.33.84,3.46-.16,4.84-9.95,15.25-21.09,30.55-36.94,40.14a55.58,55.58,0,0,1-29.91,8.66c-18.7,0-37.23-5.7-53.22-15.26-7.88-4.81-15.62-10.93-19.38-19.63-2.56-5.84-4.1-12.1-7.12-17.74,2.21-3.11,6.21-5.25,6.72-9.31-1.41-.43-2.83-.83-4.25-1.21C296.16,309.38,287.15,311.74,282.11,318.69Z"/><path class="cls-4" d="M298.25,413.17A261.18,261.18,0,0,0,438.54,419c-1.09,5.44-2.91,11-7.13,14.91a53.39,53.39,0,0,1-16.73,10.47c-13.95,4.25-28.57,5.83-42.48,10.2-3.63,1.25-7.37-.15-10.85-1.19-12.24-3.33-24.85-5.1-37.05-8.56-4.4-1.15-8.23-3.69-12-6.09-4.54-3-8.9-6.75-11-11.89A53.52,53.52,0,0,1,298.25,413.17Z"/><path class="cls-4" d="M430.85,1140.38a1022.71,1022.71,0,0,0,124.22-12.58c-3.24,3.67-6.8,7.71-6.87,12.92-.83,13.75,6.09,26.21,9.64,39.13,2.49,8.45,3.1,17.82-.42,26.09-17.53,46.13-21.36,96-22.57,144.86-.88,32-4.38,64.26.9,96.07-11.24-2.79-22.92-2.56-34.37-3.84-23.88-4-48.63-7.68-72.62-2.57,2.68-10.73,5.08-21.65,5.31-32.74.34-9.69-1.17-19.3-1.95-28.92-1.52-17.31-2.71-34.68-2.23-52.06.1-8,1.27-15.94.79-23.92-.83-16.87-6.39-33-8.62-49.65-2.25-16.34-.17-33,4.4-48.8,3.78-13.47,9.27-26.36,13.66-39.62C441.82,1155.61,435.76,1147.48,430.85,1140.38Z"/><path class="cls-4" d="M256.24,1141c27,.75,54,.27,81,0,15.74.46,31.48.53,47.22.49-2.09,7.43-5.07,14.61-7,22.09-3.17,14.8,4.44,28.75,6.07,43.21,1.87,22.05-.19,44.23-3.58,66-3.45,22.26-7.49,44.51-8.6,67-2.25,38.3,2.23,76.68,9.84,114.19-9.43-2.7-19.31-3.24-29.07-3.14a252.42,252.42,0,0,0-40,4.07c-9.9,1.91-20,1.71-30,3-6.7.8-13.58,1.87-19.49,5.34a217.49,217.49,0,0,0,7.49-67.68c-1.23-36.32-9.82-71.84-12.9-108-1.14-12.93-1.27-25.92-1.72-38.88-.3-14.39-.55-28.9,1.79-43.15,1.56-11.11,6.35-21.64,6.34-33C264.13,1161.69,260.61,1151,256.24,1141Z"/><path class="cls-4" d="M418.76,1480.11c23.93,2.16,47.78-5,71.66-1.45,20.42,3.31,39.69,11.61,57.68,21.6-7.59,14.12-21.68,23.78-36.81,28.28-12.44,3.79-26.18,4.32-38.48-.26-13.54-4.74-28-8.58-39.33-17.73-7.27-5.89-11.94-14.34-15.2-23C417.21,1485.14,418.48,1482.56,418.76,1480.11Z"/><path class="cls-4" d="M317.77,1491.54c23.34-3.21,46.62,3.53,70,1.62-2.61,9.24-5,18.8-10.15,27-4.77,7.57-12.92,12-21,15.31q-10.11,4.11-20.57,7.29c-16.75,4.33-34.9.44-49.65-8.19-9.51-5.61-17.68-13.86-22.13-24.06C281.13,1501.83,298.93,1494.4,317.77,1491.54Z"/><path class="cls-5" d="M613.31,218c2.38-.49,5.83-2.43,6.87,1.06-11.52,4-23.3,7.11-34.91,10.76-7.41,2.07-14.65,4.71-22.13,6.47-.32-1.59-.62-3.18-.93-4.77C579.27,227.19,596.29,222.59,613.31,218Z"/><path class="cls-5" d="M139.92,236.89c25.38,7.2,50.72,14.52,76.09,21.73-.69,2.86-1.37,5.73-2,8.62q-38.38-12.3-76.61-25.05Z"/><path class="cls-5" d="M282.11,318.69c5-6.95,14.05-9.31,19.79-15.57,1.42.38,2.84.78,4.25,1.21-.51,4.06-4.51,6.2-6.72,9.31,3,5.64,4.56,11.9,7.12,17.74,3.76,8.7,11.5,14.82,19.38,19.63,16,9.56,34.52,15.27,53.22,15.26a55.58,55.58,0,0,0,29.91-8.66c15.85-9.59,27-24.89,36.94-40.14,1-1.38,1.55-3.51.16-4.84-2.12-.91-4.62-.93-6.49-2.37a16.93,16.93,0,0,1,.31-4.92c8.85-1.13,14.59,6.67,22.37,9.1-1.33,4.94-7.17,4.12-11.12,4.07a92.55,92.55,0,0,1-31,37.34,117.9,117.9,0,0,1-46.88,18.75,260,260,0,0,1-34.56-11.33c-14-5.79-27.65-14.14-36.07-27.08-3.68-5.45-5.93-11.67-7.84-17.91C290.67,319,286.28,320.31,282.11,318.69Z"/><path class="cls-5" d="M525.88,443.91c11,1.72,22,3.65,33,5.38-1.45,5.48-3.86,10.72-4.47,16.4-3,22.7-6.85,45.28-9.18,68.07-1.43,12.66-2.75,25.34-4.18,38-.45,5-1.41,9.92-1.3,14.94.11,21.51-.3,43,.08,64.54,3.11,9.9,7.09,19.54,10.29,29.43,1.71,8.4,3,16.91,4.54,25.35-61.16,0-122.32-.12-183.47.05,6.46-3.68,6.48-15.23-.92-17.75-4.74-.85-8.12,4.17-8,8.44a10.52,10.52,0,0,0,4.44,9.31c-52.54-.17-105.08-.05-157.62-.06,4-15.48,8.71-30.77,12.8-46.21.37-6.67-.5-13.36-.81-20-.57-17.11-3.8-34-5.74-51-1.25-7.78-1.47-15.77-3.91-23.31-3.63-12.53-7-25.14-10.67-37.66-4.66-13.88-9.28-27.81-14.27-41.57-4.33-4.13-9.07-7.86-13.62-11.77,5.77-3.3,12.24-5.12,18.3-7.8,5.64-2.53,11.78-4.09,16.84-7.78,1.09,13.21,8.58,25.11,18.53,33.55,13.66,12,30.9,19.42,48.56,23.28,10.29,2,21.16,3.42,31.4.39A164.52,164.52,0,0,0,347.36,498c8-5.14,15.84-10.92,21.32-18.79,9.42,12.37,23.2,20.38,36.87,27.23,9.27,4.24,18.75,8.23,28.73,10.49,6.61,1.61,13.49,1,20.17.22a112.9,112.9,0,0,0,52.74-21.44c11.12-8.48,20.53-20.64,22-34.93a27.39,27.39,0,0,0-3.33-16.85M367.56,489.19c-7.73,2.74-6.89,17.08,1.67,17.8,5.93-.73,8-8.29,5.93-13.17-.93-3.11-4.34-5.59-7.6-4.63m0,26c-7.3,2.58-7.18,15.72.59,17.64,5.32.77,8.32-5.56,7.68-10.09-.14-4.13-3.7-8.93-8.27-7.55M366.47,546c-6.24,3.58-5.58,15.4,1.76,17.27,6.47.62,9-7.69,7-12.69-.76-3.75-5.28-6.61-8.81-4.58m0,30.33c-6.59,3.77-5.44,16.64,2.75,17.29,8.28-1,8.89-14.46,1.75-17.59a4.91,4.91,0,0,0-4.5.3m.09,28.09c-6,3.57-5.85,14.15.69,17.06,5.11,1.71,9-4.15,8.63-8.74.37-4.78-4.13-10.86-9.32-8.32m-.06,23.84c-4.25,2.43-5.15,8.34-3.46,12.61,1,2.94,4.32,5.6,7.54,4.45,4.81-1.45,6-7.54,4.88-11.84-.87-3.76-5.08-7.4-9-5.22m2,29.76c-8.58,1.61-8.29,17.34.69,17.9C378.45,675,378.1,657.84,368.5,658Z"/><path class="cls-6" d="M563.83,449.9a96.59,96.59,0,0,1,53.88,25.43C637.4,493.6,649.89,517.93,661,542c7.91,17.24,15,34.84,22.84,52.11,9,20.25,21,40.72,20,63.64-.64,14.19-7.06,27.36-14.69,39.07-10.82,16.36-23.07,32.11-38.57,44.31-12.25,9.65-26.39,16.55-40.68,22.6-8-10.28-15.39-21.07-23.37-31.38a65.8,65.8,0,0,0-21.88-17.18,21.64,21.64,0,0,1-5.84-13.37c-2-9.78-2.55-20-6.41-29.28-2.25-6.38-4.5-12.75-6.88-19.08-1.31-3.06-.92-6.44-1-9.67v-49c-.52-15.12,2.58-30,3.8-45,2.66-28.37,7.19-56.51,11-84.74C560.39,459.8,562.55,455,563.83,449.9Z"/><path class="cls-6" d="M103.84,533.32c15.6-24.29,37.55-45.07,64.17-56.71,4.25,3.89,8.68,7.56,13.09,11.27,1.81,1.47,2.24,3.9,3,6,2.52,8,5.5,15.9,8.08,23.91,6.16,17.12,10.26,34.89,15.47,52.31,2.69,15.81,4.29,31.81,6.54,47.69,1.92,12.22,2.07,24.62,2.86,36.94.54,5.21-1.82,10-3,15-5.44,18.83-10.18,37.88-16.49,56.45-1.18,3.77-3.94,6.7-6.18,9.87-12.79,17.58-24.33,36-35.93,54.39-18-7.23-36.5-14.15-52.55-25.35-14.37-9.76-26-22.94-36.36-36.8S46.54,699.34,44,682c-2.19-15.64,2.94-31.08,9-45.28,6.14-13.84,12.88-27.4,19-41.26C81.59,574.25,91.18,552.91,103.84,533.32Z"/><path class="cls-6" d="M207.32,710.46q174.49-.21,349-.08c2.23,3.14,3.31,7.57,7.15,9.17a58.66,58.66,0,0,1,22.2,18.78c21.92,30,44.15,59.73,67.06,89,12.73,16.6,26.39,32.53,37.89,50,19.54,29.16,33.71,62,40.37,96.52,1.59,7.46,2.72,15,3.77,22.56.91,6.49,2.94,12.77,3.92,19.26.79,5,.1,10.05.41,15.07.52,7.59-2.64,14.9-6.79,21.08-10.35,14.27-25.71,23.78-41.1,31.81-35.79,17.82-74.85,27.81-113.86,35.7-75.7,14.61-153.08,19-230.07,17.59-10-.63-20-.11-30.05,0-28-.14-56.2,1.25-84.08-2.38-41.55-5.2-81.85-17-122.63-26.1-16.4-3.8-31.53-11.5-46-19.87-9.49-5.66-18.75-11.73-27.7-18.22C24.49,1061.27,14.87,1048,12,1032.8c-.89-10.67,5.1-20.55,12.12-28.09,2.75-3.23,6.63-5.51,8.61-9.35,20.87-42.87,46.88-83,73.8-122.22C122,851,137.1,828.68,151.24,805.7c15.73-25.29,31.4-50.68,49.19-74.58C203,724.35,205.13,717.38,207.32,710.46Z"/></svg>