<?xml version="1.0" encoding="UTF-8" standalone="no"?>
<!-- Created with Inkscape (http://www.inkscape.org/) -->

<svg
   xmlns:dc="http://purl.org/dc/elements/1.1/"
   xmlns:cc="http://creativecommons.org/ns#"
   xmlns:rdf="http://www.w3.org/1999/02/22-rdf-syntax-ns#"
   xmlns:svg="http://www.w3.org/2000/svg"
   xmlns="http://www.w3.org/2000/svg"
   xmlns:sodipodi="http://sodipodi.sourceforge.net/DTD/sodipodi-0.dtd"
   xmlns:inkscape="http://www.inkscape.org/namespaces/inkscape"
   width="116.92062mm"
   height="156.39265mm"
   viewBox="0 0 414.28567 554.1472"
   id="svg6016"
   version="1.1"
   inkscape:version="0.91 r13725"
   sodipodi:docname="aboy.svg">
  <defs
     id="defs6018">
    <filter
       inkscape:collect="always"
       style="color-interpolation-filters:sRGB"
       id="filter5662-6"
       x="-0.48840001"
       width="1.9768"
       y="-0.48840001"
       height="1.9768">
      <feGaussianBlur
         inkscape:collect="always"
         stdDeviation="3.93125"
         id="feGaussianBlur5664-7" />
    </filter>
  </defs>
  <sodipodi:namedview
     id="base"
     pagecolor="#ffffff"
     bordercolor="#666666"
     borderopacity="1.0"
     inkscape:pageopacity="0.0"
     inkscape:pageshadow="2"
     inkscape:zoom="0.35"
     inkscape:cx="832.14284"
     inkscape:cy="199.93076"
     inkscape:document-units="px"
     inkscape:current-layer="layer1"
     showgrid="false"
     fit-margin-top="0"
     fit-margin-left="0"
     fit-margin-right="0"
     fit-margin-bottom="0"
     inkscape:window-width="1440"
     inkscape:window-height="807"
     inkscape:window-x="260"
     inkscape:window-y="54"
     inkscape:window-maximized="0" />
  <metadata
     id="metadata6021">
    <rdf:RDF>
      <cc:Work
         rdf:about="">
        <dc:format>image/svg+xml</dc:format>
        <dc:type
           rdf:resource="http://purl.org/dc/dcmitype/StillImage" />
        <dc:title></dc:title>
      </cc:Work>
    </rdf:RDF>
  </metadata>
  <g
     inkscape:label="Layer 1"
     inkscape:groupmode="layer"
     id="layer1"
     transform="translate(1132.8571,-178.14574)">
    <g
       id="g6669">
      <path
         style="fill:#ffb380;fill-opacity:1;fill-rule:evenodd;stroke:none;stroke-width:1px;stroke-linecap:butt;stroke-linejoin:miter;stroke-opacity:1"
         d="m -1020.188,536.54129 c 9.0057,4.88221 12.1474,11.74303 7.4774,20.35713 -4.6699,8.6142 -10.2197,13.34854 -19.2254,8.46632 -9.0057,-4.88222 -12.5206,-15.82326 -7.8507,-24.43746 4.67,-8.6142 10.5929,-9.26821 19.5987,-4.38599 z"
         id="path5468"
         inkscape:connector-curvature="0"
         sodipodi:nodetypes="sssss" />
      <path
         sodipodi:nodetypes="sssss"
         inkscape:connector-curvature="0"
         id="path5465"
         d="m -773.02479,539.15185 c -10e-6,10.24399 -4.53424,16.27565 -14.33284,16.27565 -9.7986,0 -16.60558,-2.62257 -16.60558,-12.86656 0,-10.24399 7.94334,-18.54839 17.74194,-18.54839 9.7986,0 13.19648,4.89531 13.19648,15.1393 z"
         style="fill:#ffb380;fill-opacity:1;fill-rule:evenodd;stroke:none;stroke-width:1px;stroke-linecap:butt;stroke-linejoin:miter;stroke-opacity:1" />
      <path
         sodipodi:nodetypes="csscc"
         inkscape:connector-curvature="0"
         id="path5445"
         d="m -947.14286,530.21534 c 0,0 -48.0824,94.77958 -14.2858,108.57142 30.1104,12.28755 98.7346,1.55199 117.1429,-8.57142 32.79116,-18.03312 -28.5714,-108.57143 -28.5714,-108.57143 z"
         style="fill:#0000ff;fill-rule:evenodd;stroke:none;stroke-width:1px;stroke-linecap:butt;stroke-linejoin:miter;stroke-opacity:1" />
      <circle
         r="184.28572"
         cy="368.78677"
         cx="-922.85718"
         id="path5433"
         style="fill:#ffb380;fill-rule:evenodd;stroke:none;stroke-width:1px;stroke-linecap:butt;stroke-linejoin:miter;stroke-opacity:1" />
      <path
         sodipodi:nodetypes="csccsccsc"
         inkscape:connector-curvature="0"
         id="path5435"
         d="m -898.57146,301.64391 c 0,0 -94.7939,78.59296 -134.28574,51.42857 -10.9854,-7.55632 0,-40 0,-40 l -76.6234,35.97403 c -21.8547,-13.90476 44.9728,-175.84313 188.05194,-170.25974 126.11731,4.92149 207.56646,142.98469 181.75329,151.42857 l -78.8961,-28.57143 c 0,0 -9.32671,39.85743 -25.71429,42.85714 -22.6779,4.15114 -54.2857,-42.85714 -54.2857,-42.85714 z"
         style="fill:#000000;fill-rule:evenodd;stroke:#000000;stroke-width:1px;stroke-linecap:butt;stroke-linejoin:miter;stroke-opacity:1" />
      <circle
         r="24.285715"
         cy="385.9296"
         cx="-1108.5714"
         id="path5437"
         style="fill:#ffb380;fill-opacity:1;fill-rule:evenodd;stroke:none;stroke-width:1px;stroke-linecap:butt;stroke-linejoin:miter;stroke-opacity:1" />
      <circle
         style="fill:#ffb380;fill-opacity:1;fill-rule:evenodd;stroke:none;stroke-width:1px;stroke-linecap:butt;stroke-linejoin:miter;stroke-opacity:1"
         id="circle5439"
         cx="-742.85718"
         cy="374.50104"
         r="24.285715" />
      <ellipse
         ry="25.714285"
         rx="12.857142"
         cy="393.07248"
         cx="-962.85718"
         id="path5441"
         style="fill:#000000;fill-rule:evenodd;stroke:#000000;stroke-width:1px;stroke-linecap:butt;stroke-linejoin:miter;stroke-opacity:1" />
      <ellipse
         style="fill:#000000;fill-rule:evenodd;stroke:#000000;stroke-width:1px;stroke-linecap:butt;stroke-linejoin:miter;stroke-opacity:1"
         id="ellipse5443"
         cx="-848.57147"
         cy="390.21533"
         rx="12.857142"
         ry="25.714285" />
      <rect
         transform="matrix(0.94811404,-0.31793045,0.31793045,0.94811404,0,0)"
         y="249.7075"
         x="-996.83862"
         height="25.531916"
         width="68.085106"
         id="rect5447"
         style="opacity:1;fill:#0000ff;fill-opacity:1;stroke:none;stroke-width:3;stroke-linecap:round;stroke-linejoin:miter;stroke-miterlimit:4;stroke-dasharray:none;stroke-opacity:1" />
      <rect
         style="opacity:1;fill:#0000ff;fill-opacity:1;stroke:none;stroke-width:3;stroke-linecap:round;stroke-linejoin:miter;stroke-miterlimit:4;stroke-dasharray:none;stroke-opacity:1"
         id="rect5449"
         width="68.085106"
         height="25.531916"
         x="-787.84125"
         y="-862.08441"
         transform="matrix(0.94811404,0.31793045,0.31793045,-0.94811404,0,0)" />
      <path
         inkscape:connector-curvature="0"
         id="rect5451"
         d="m -972.33066,601.76636 c -2.7273,17.26113 -0.9957,32.16415 10.9023,37.01953 30.1104,12.28755 98.7343,1.5531 117.1426,-8.57031 9.13949,-5.02616 10.95962,-15.6883 8.83789,-28.44922 l -136.88279,0 z"
         style="opacity:1;fill:#550000;fill-opacity:1;stroke:none;stroke-width:3;stroke-linecap:round;stroke-linejoin:miter;stroke-miterlimit:4;stroke-dasharray:none;stroke-opacity:1" />
      <rect
         y="623.04205"
         x="-952.79651"
         height="87.234039"
         width="36.170212"
         id="rect5456"
         style="opacity:1;fill:#550000;fill-opacity:1;stroke:none;stroke-width:3;stroke-linecap:round;stroke-linejoin:miter;stroke-miterlimit:4;stroke-dasharray:none;stroke-opacity:1" />
      <rect
         style="opacity:1;fill:#550000;fill-opacity:1;stroke:none;stroke-width:3;stroke-linecap:round;stroke-linejoin:miter;stroke-miterlimit:4;stroke-dasharray:none;stroke-opacity:1"
         id="rect5458"
         width="36.170212"
         height="87.234039"
         x="-897.47742"
         y="623.16974" />
      <path
         sodipodi:nodetypes="sssss"
         inkscape:connector-curvature="0"
         id="path5460"
         d="m -834.84859,714.77169 c 0,10.57566 -10.50967,17.02126 -28.72337,17.02127 -18.2136,-10e-6 -37.234,-6.44561 -37.234,-17.02127 0,-10.57566 14.7651,-19.14893 32.9787,-19.14894 18.2136,10e-6 32.97867,8.57328 32.97867,19.14894 z"
         style="fill:#000000;fill-rule:evenodd;stroke:#000000;stroke-width:1px;stroke-linecap:butt;stroke-linejoin:miter;stroke-opacity:1" />
      <path
         style="fill:#000000;fill-rule:evenodd;stroke:#000000;stroke-width:1px;stroke-linecap:butt;stroke-linejoin:miter;stroke-opacity:1"
         d="m -891.30016,714.77169 c 0,10.57566 -10.5097,17.02126 -28.7234,17.02127 -18.2136,-10e-6 -37.234,-6.44561 -37.234,-17.02127 0,-10.57566 14.7651,-19.14893 32.9787,-19.14894 18.2136,10e-6 32.9787,8.57328 32.9787,19.14894 z"
         id="path5463"
         inkscape:connector-curvature="0"
         sodipodi:nodetypes="sssss" />
      <path
         d="m -874.96753,479.01404 a 31.25,23.863636 0 0 1 -15.625,20.66651 31.25,23.863636 0 0 1 -31.25,0 31.25,23.863636 0 0 1 -15.625,-20.66651"
         sodipodi:open="true"
         sodipodi:end="3.1415927"
         sodipodi:start="0"
         sodipodi:ry="23.863636"
         sodipodi:rx="31.25"
         sodipodi:cy="479.01404"
         sodipodi:cx="-906.21753"
         sodipodi:type="arc"
         id="path5470"
         style="fill:none;fill-rule:evenodd;stroke:#000000;stroke-width:3;stroke-linecap:butt;stroke-linejoin:miter;stroke-miterlimit:4;stroke-dasharray:none;stroke-opacity:1" />
      <circle
         r="9.659091"
         cy="465.94586"
         cx="-1002.8085"
         id="path5472"
         style="fill:#ff8080;fill-rule:evenodd;stroke:none;stroke-width:1px;stroke-linecap:butt;stroke-linejoin:miter;stroke-opacity:1;filter:url(#filter5662-6)" />
      <circle
         style="fill:#ff8080;fill-rule:evenodd;stroke:none;stroke-width:1px;stroke-linecap:butt;stroke-linejoin:miter;stroke-opacity:1;filter:url(#filter5662-6)"
         id="circle5666"
         cx="-820.9903"
         cy="465.94586"
         r="9.659091" />
    </g>
  </g>
</svg>
