<?xml version="1.0" encoding="UTF-8"?>
<!DOCTYPE svg PUBLIC "-//W3C//DTD SVG 1.1//EN" "http://www.w3.org/Graphics/SVG/1.1/DTD/svg11.dtd">
<svg version="1.1" xmlns="http://www.w3.org/2000/svg" xmlns:xlink="http://www.w3.org/1999/xlink" x="0" y="0" width="585" height="610" viewBox="0, 0, 585, 610">
  <defs>
    <linearGradient id="Gradient_1" gradientUnits="userSpaceOnUse" x1="757.348" y1="411.819" x2="757.02" y2="488.234" gradientTransform="matrix(1, 0, 0, 1, -279, 93)">
      <stop offset="0" stop-color="#00F800"/>
      <stop offset="1" stop-color="#008000"/>
    </linearGradient>
    <linearGradient id="Gradient_2" gradientUnits="userSpaceOnUse" x1="502.685" y1="464.266" x2="501.665" y2="514.849" gradientTransform="matrix(1, 0, 0, 1, -279, 93)">
      <stop offset="0" stop-color="#00F800"/>
      <stop offset="1" stop-color="#008000"/>
    </linearGradient>
    <linearGradient id="Gradient_3" gradientUnits="userSpaceOnUse" x1="397.941" y1="429.641" x2="398.225" y2="473.98" gradientTransform="matrix(1, 0, 0, 1, -279, 93)">
      <stop offset="0" stop-color="#00F800"/>
      <stop offset="1" stop-color="#008000"/>
    </linearGradient>
    <radialGradient id="Gradient_4" gradientUnits="userSpaceOnUse" cx="211.71" cy="221.691" r="41.863" gradientTransform="matrix(1, 0, 0, 0.488, -279, 475.98)">
      <stop offset="0" stop-color="#FFFFFF"/>
      <stop offset="1" stop-color="#9C9C9C"/>
    </radialGradient>
    <linearGradient id="Gradient_5" gradientUnits="userSpaceOnUse" x1="494.253" y1="423.008" x2="521.716" y2="445.265" gradientTransform="matrix(1, 0, 0, 1, -279, 93)">
      <stop offset="0" stop-color="#FFECA3"/>
      <stop offset="1" stop-color="#FFD42A"/>
    </linearGradient>
    <linearGradient id="Gradient_6" gradientUnits="userSpaceOnUse" x1="517.997" y1="418.064" x2="538.04" y2="436.365" gradientTransform="matrix(1, 0, 0, 1, -279, 93)">
      <stop offset="0" stop-color="#FFECA3"/>
      <stop offset="1" stop-color="#FFD42A"/>
    </linearGradient>
    <radialGradient id="Gradient_7" gradientUnits="userSpaceOnUse" cx="345.492" cy="-133.106" r="77.061" gradientTransform="matrix(1.258, -0.12, 0.028, 0.297, -412.02, 675.74)">
      <stop offset="0" stop-color="#FFFFFF"/>
      <stop offset="1" stop-color="#9C9C9C"/>
    </radialGradient>
    <linearGradient id="Gradient_8" gradientUnits="userSpaceOnUse" x1="588.034" y1="456.072" x2="558.945" y2="428.001" gradientTransform="matrix(1, 0, 0, 1, -279, 93)">
      <stop offset="0" stop-color="#FFECA3"/>
      <stop offset="1" stop-color="#FFD42A"/>
    </linearGradient>
    <linearGradient id="Gradient_9" gradientUnits="userSpaceOnUse" x1="617.043" y1="450.82" x2="579.422" y2="422.256" gradientTransform="matrix(1, 0, 0, 1, -279, 93)">
      <stop offset="0" stop-color="#FFECA3"/>
      <stop offset="1" stop-color="#FFD42A"/>
    </linearGradient>
    <radialGradient id="Gradient_10" gradientUnits="userSpaceOnUse" cx="190.67" cy="316.607" r="34.764" gradientTransform="matrix(1, 0, 0, 0.57, -279, 421.49)">
      <stop offset="0" stop-color="#959595"/>
      <stop offset="1" stop-color="#1A1A1A"/>
    </radialGradient>
    <radialGradient id="Gradient_11" gradientUnits="userSpaceOnUse" cx="279.109" cy="-181.532" r="87.08" gradientTransform="matrix(1.04, 0, 0, 0.266, -295.137, 658.86)">
      <stop offset="0" stop-color="#959595"/>
      <stop offset="1" stop-color="#1A1A1A"/>
    </radialGradient>
    <radialGradient id="Gradient_12" gradientUnits="userSpaceOnUse" cx="495.994" cy="423.463" r="44.12" gradientTransform="matrix(1.246, -0.725, 1.147, 1.97, -1031.01, -96.97)">
      <stop offset="0" stop-color="#FFF5CC"/>
      <stop offset="1" stop-color="#FFD42A"/>
    </radialGradient>
    <radialGradient id="Gradient_13" gradientUnits="userSpaceOnUse" cx="329.99" cy="431.886" r="78.125" gradientTransform="matrix(1, 0, 0, 1.079, -279, 44.412)">
      <stop offset="0" stop-color="#ACACFF"/>
      <stop offset="1" stop-color="#2C2CFF"/>
    </radialGradient>
    <radialGradient id="Gradient_14" gradientUnits="userSpaceOnUse" cx="72.376" cy="-276.278" r="133.25" gradientTransform="matrix(0.73, -0.012, 0.005, 0.293, -214.671, 458.79)">
      <stop offset="0" stop-color="#A5A5A5"/>
      <stop offset="1" stop-color="#F2F2F2"/>
    </radialGradient>
    <linearGradient id="Gradient_15" gradientUnits="userSpaceOnUse" x1="337.218" y1="327.916" x2="638.127" y2="190.592" gradientTransform="matrix(1, 0, 0, 1, -279, 93)">
      <stop offset="0" stop-color="#000080"/>
      <stop offset="0.272" stop-color="#00004B"/>
      <stop offset="0.311" stop-color="#000080"/>
      <stop offset="0.348" stop-color="#0000C1"/>
      <stop offset="0.409" stop-color="#000080"/>
      <stop offset="1" stop-color="#0000EA"/>
    </linearGradient>
    <linearGradient id="Gradient_16" gradientUnits="userSpaceOnUse" x1="361.261" y1="220.749" x2="393.638" y2="283.91" gradientTransform="matrix(1, 0, 0, 1, -279, 93)">
      <stop offset="0" stop-color="#EDD1BE"/>
      <stop offset="1" stop-color="#DEAA87"/>
    </linearGradient>
    <linearGradient id="Gradient_17" gradientUnits="userSpaceOnUse" x1="613.113" y1="246.824" x2="623.135" y2="312.838" gradientTransform="matrix(1, 0, 0, 1, -279, 93)">
      <stop offset="0" stop-color="#EDD1BE"/>
      <stop offset="1" stop-color="#DEAA87"/>
    </linearGradient>
    <radialGradient id="Gradient_18" gradientUnits="userSpaceOnUse" cx="214.85" cy="117.637" r="101.35" gradientTransform="matrix(1, 0, 0, 1.036, -279, 78.137)">
      <stop offset="0" stop-color="#EDD1BE"/>
      <stop offset="1" stop-color="#DEAA87"/>
    </radialGradient>
    <linearGradient id="Gradient_19" gradientUnits="userSpaceOnUse" x1="475.771" y1="128.249" x2="477.993" y2="57.347" gradientTransform="matrix(1, 0, 0, 1, -279, 93)">
      <stop offset="0" stop-color="#C2FFFF" stop-opacity="0.5"/>
      <stop offset="1" stop-color="#FFFFFF" stop-opacity="0.5"/>
    </linearGradient>
    <linearGradient id="Gradient_20" gradientUnits="userSpaceOnUse" x1="548.708" y1="128.446" x2="549.708" y2="50.207" gradientTransform="matrix(1, 0, 0, 1, -279, 93)">
      <stop offset="0" stop-color="#C2FFFF" stop-opacity="0.5"/>
      <stop offset="1" stop-color="#FFFFFF" stop-opacity="0.5"/>
    </linearGradient>
    <radialGradient id="Gradient_21" gradientUnits="userSpaceOnUse" cx="429.649" cy="235.442" r="33.507" gradientTransform="matrix(2.107, -0.073, 0.045, 1.308, -836.31, -15.84)">
      <stop offset="0" stop-color="#EDD1BE"/>
      <stop offset="1" stop-color="#DEAA87"/>
    </radialGradient>
    <radialGradient id="Gradient_22" gradientUnits="userSpaceOnUse" cx="236.672" cy="15.135" r="157.9" gradientTransform="matrix(1.095, 0.364, -0.265, 0.797, -244.427, 16.06)">
      <stop offset="0" stop-color="#DEDEDE"/>
      <stop offset="1" stop-color="#000000"/>
    </radialGradient>
  </defs>
  <g id="Layer_1">
    <g>
      <path d="M403.73,562.71 C404.274,561.622 412.432,550.472 412.976,549.384 C413.52,548.296 412.976,534.971 412.976,534.971 C412.976,534.971 402.098,520.83 402.098,519.742 C402.098,518.654 401.01,514.575 402.098,514.031 C403.186,513.487 418.143,505.601 419.231,505.601 C420.319,505.601 426.302,505.057 426.302,505.057 L427.118,510.768 L440.716,509.952 L441.532,514.303 L459.753,512.671 L462.472,515.935 L473.078,515.935 L488.307,524.093 L500.817,522.462 L514.686,517.838 L535.082,514.575 L534.538,521.646 L545.416,520.014 L547.048,522.734 C547.048,522.734 553.284,529.952 555.38,541.09 C556.643,547.804 582.704,555.856 582.722,569.025 C580.606,581.328 521.487,574.98 497.009,579.028 C496.193,581.747 488.306,580.387 487.219,580.387 C486.131,580.387 436.908,567.061 436.908,567.061 L403.73,562.71 z" fill="url(#Gradient_1)"/>
      <path d="M52.37,570.32 L42.083,570.747 C42.083,570.747 31.956,567.316 21.647,570.935 C27.1,593.557 51.826,595.991 54.817,593.979 C58.08,591.532 57.808,597.787 61.072,596.971 C64.335,596.155 73.582,591.26 75.213,593.435 C76.844,595.611 75.213,598.874 75.213,598.874 C75.213,598.874 83.643,592.892 87.179,593.163 C90.714,593.435 89.354,599.69 89.354,599.69 C89.354,599.69 95.881,593.707 100.504,594.251 C105.127,594.795 104.584,600.234 104.584,600.234 C104.584,600.234 107.303,595.339 114.102,595.883 C120.9,596.427 122.804,602.682 122.804,602.682 C122.804,602.682 131.779,595.067 138.305,596.155 C144.832,597.243 145.92,603.769 145.92,603.769 C145.92,603.769 153.262,600.234 159.246,600.234 C165.229,600.234 171.756,607.849 171.756,607.849 C171.756,607.849 182.362,602.41 191.336,602.41 C200.31,602.41 204.662,607.577 204.662,607.577 C204.662,607.577 217.444,602.138 222.611,604.585 C227.778,607.033 241.647,607.577 245.455,605.401 C249.262,603.226 260.14,599.69 263.132,603.498 C266.123,607.305 274.554,607.305 279.177,604.857 C283.8,602.41 286.791,600.234 291.687,602.954 C296.582,605.673 297.67,604.857 302.293,603.77 C306.916,602.682 310.451,594.523 313.171,595.339 C315.89,596.155 313.443,603.498 313.443,603.498 L325.681,604.585 L339.822,601.594 C339.822,601.594 346.348,608.393 352.06,607.305 C357.771,606.217 364.57,601.05 371.64,601.594 C378.71,602.138 382.518,608.665 389.317,606.761 C396.116,604.857 398.019,601.594 406.45,600.234 C414.88,598.874 415.696,605.129 420.048,605.401 C424.399,605.673 430.926,603.226 435.821,601.866 C440.716,600.506 446.699,602.682 451.866,603.769 C457.033,604.857 463.016,604.857 469.543,602.954 C476.07,601.05 483.141,601.322 485.588,597.243 C488.035,593.163 483.412,588.812 487.219,585.821 C491.027,582.829 494.29,580.654 488.579,577.934 C482.868,575.215 479.061,572.495 476.341,568.416 C473.622,564.337 472.806,565.153 466.279,566.784 C459.752,568.416 456.217,568.688 454.041,568.688 C451.866,568.688 437.996,566.24 436.636,566.24 C435.276,566.24 407.266,564.337 407.266,564.337 C407.266,564.337 406.994,561.889 404.003,561.345 C401.011,560.801 395.028,563.793 392.581,564.065 C390.133,564.337 387.686,564.609 387.686,564.609 L393.669,557.538 C393.669,557.538 390.405,556.722 389.317,556.722 C388.23,556.722 372.728,562.977 372.728,562.977 L373.544,557.266 L365.114,559.442 L351.788,567.328 C351.788,567.328 356.411,556.994 355.323,556.994 C354.235,556.994 348.252,561.345 348.252,561.345 L335.47,572.495 C335.47,572.495 330.847,572.767 330.303,571.679 C329.76,570.591 321.873,564.881 320.785,564.881 C319.697,564.881 318.066,565.424 318.066,565.424 L321.873,576.03 L307.46,568.688 L308.004,572.767 L281.353,572.767 C279.177,572.767 253.342,569.504 252.254,569.232 C251.166,568.96 239.744,562.705 239.744,562.705 C239.744,562.705 228.322,563.793 226.146,563.521 C223.97,563.249 214.724,561.345 213.636,561.073 C212.548,560.801 203.03,556.994 203.03,556.994 L204.662,562.705 L205.206,565.152 L194.6,559.985 L191.064,558.898 L190.792,564.88 C190.792,564.88 160.062,564.88 158.974,565.152 C157.886,565.424 133.955,567.056 133.955,567.056 C133.955,567.056 118.454,566.784 118.182,565.696 C117.91,564.609 118.726,561.617 117.366,561.617 C116.007,561.617 102.953,564.608 102.953,564.608 C102.953,564.608 105.401,558.626 104.313,558.354 C103.225,558.082 97.786,558.354 97.786,558.354 L83.917,566.24 C83.917,566.24 70.863,568.416 69.504,568.688 C68.145,568.96 52.371,570.319 52.371,570.319 z" fill="url(#Gradient_2)"/>
      <path d="M200.31,523.27 L186.712,521.638 L178.553,522.726 L174.202,519.191 L161.148,523.542 L148.638,522.998 L140.752,523.542 L137.488,522.454 L124.706,525.989 L126.61,518.919 L114.1,522.182 L101.862,525.989 L95.607,522.998 L88.265,526.261 L86.361,523.542 L70.86,527.893 L73.852,521.91 L71.676,520.007 L55.087,527.893 L60.526,518.647 C60.526,518.647 57.806,516.471 55.631,517.287 C53.455,518.103 43.393,523.27 43.393,523.27 C43.393,523.27 40.401,521.094 39.042,520.822 C37.682,520.55 33.875,524.63 33.875,524.63 L29.795,531.7 C29.795,531.7 31.108,544.035 23.021,543.529 C16.477,543.12 9.946,553.773 9.946,553.773 C-9.028,568.561 18.541,570.741 30.206,571.975 C30.206,571.975 42.306,572.22 44.753,571.676 C47.201,571.132 52.368,569.772 52.368,569.772 L68.957,569.5 L79.019,568.141 L96.152,559.71 L103.222,558.894 L99.415,565.965 L117.364,562.974 L116.82,566.509 L135.584,565.421 L135.04,568.956 L164.682,567.597 L192.421,565.965 L189.43,558.622 L172.841,548.016 L179.911,537.954 L195.412,525.989 L200.307,523.269 z" fill="url(#Gradient_3)"/>
      <path d="M242.71,548.96 L226.264,548.589 C226.264,548.589 214.64,533.379 214.022,533.132 C213.404,532.885 195.35,526.331 195.35,526.331 L216.001,516.438 L258.786,509.143 L260.888,515.326 L278.076,520.766 L260.764,529.299 L249.511,539.81 L242.71,548.96 z" fill="url(#Gradient_4)"/>
      <path d="M247.78,536.72 L236.156,524.478 L222.183,514.586 L209.323,519.779 L219.216,523.983 L234.178,535.359 L237.887,538.945 L247.78,536.72 z" fill="url(#Gradient_5)"/>
      <path d="M256.19,531.9 L232.819,513.228 L245.556,511.249 L264.104,526.706 L256.19,531.9 z" fill="url(#Gradient_6)"/>
      <path d="M402.17,519.98 C402.17,519.98 410.332,524.68 411.816,530.121 C413.301,535.563 413.053,542.736 413.053,542.736 L384.856,551.393 L339.344,557.577 L289.133,559.803 C289.133,559.803 287.896,550.898 279.981,543.725 C272.066,536.552 259.946,530.121 259.946,530.121 C259.946,530.121 273.055,520.474 281.96,518.99 C290.865,517.506 305.21,514.785 305.21,514.785 C305.21,514.785 315.598,521.463 324.503,523.689 C333.408,525.916 358.389,529.131 367.046,529.626 C375.703,530.12 390.544,527.894 395.243,525.916 C399.943,523.937 402.169,519.979 402.169,519.979 z" fill="url(#Gradient_7)"/>
      <path d="M284.16,518.54 C284.16,518.54 297.668,527.413 302.7,531.783 C307.732,536.153 319.386,549.131 319.386,549.131 L306.011,549.926 C306.011,549.926 296.079,538.537 290.65,535.094 C285.221,531.651 271.448,524.103 271.448,524.103 L284.161,518.541 z" fill="url(#Gradient_8)"/>
      <path d="M344.81,544.1 C344.81,544.1 340.97,537.744 338.851,535.095 C336.732,532.446 325.211,523.839 325.211,523.839 L302.301,515.099 L298.725,516.688 C298.725,516.688 313.557,525.693 317.794,529.666 C322.032,533.639 333.685,543.173 333.685,543.173 L344.809,544.1 z" fill="url(#Gradient_9)"/>
      <path d="M243.72,548.27 L239.121,563.218 L218.655,563.908 L203.017,557.009 L203.017,559.079 L205.776,565.058 L185.769,557.929 L175.191,549.19 L177.951,539.762 L197.268,526.424 L211.756,532.173 L221.184,540.911 L227.163,549.88 L243.72,548.27 z" fill="url(#Gradient_10)"/>
      <path d="M413.43,542.29 C412.97,543.9 410.9,553.328 410.9,553.328 L403.312,561.147 L388.594,564.366 L393.883,556.088 L385.144,558.847 L371.806,563.906 L374.336,556.318 L365.137,559.077 L352.489,566.666 L354.789,556.088 L346.28,562.067 L333.172,572.875 L321.214,565.286 L318.685,565.286 L321.214,575.174 L309.486,569.425 L305.347,572.415 L263.034,571.955 C263.034,571.955 241.418,565.746 241.418,564.366 C241.418,562.986 240.268,556.088 240.268,556.088 L252.686,535.851 L261.425,529.872 L273.153,537.46 L288.561,555.167 L289.481,559.766 L329.494,558.387 L379.626,552.638 L413.43,542.29 z" fill="url(#Gradient_11)"/>
      <path d="M353.97,420.83 L376.642,416.394 L399.561,407.769 C399.561,407.769 396.85,398.897 397.343,396.679 C397.836,394.461 404.983,377.95 404.983,377.95 C404.983,377.95 404.243,349.61 404.243,348.624 C404.243,347.638 394.632,321.023 394.632,321.023 C394.632,321.023 379.106,300.322 376.396,299.09 C373.685,297.857 359.392,290.711 359.392,290.711 L350.274,289.479 L351.753,283.81 L345.099,269.516 L317.744,293.174 L330.805,305.742 L337.212,309.932 L345.345,358.727 L353.97,420.829 z" fill="url(#Gradient_12)"/>
      <path d="M402.43,521.35 L389.538,468.751 L400.883,442.709 L400.625,406.611 L379.482,415.377 L359.37,420.019 L353.698,420.276 L358.597,449.412 L350.346,452.249 L246.176,462.047 L264.998,476.744 L261.646,502.528 L259.841,514.389 L274.022,518.256 L291.555,516.451 L307.283,515.936 C307.283,515.936 333.067,528.054 349.053,528.57 C365.039,529.085 381.799,529.085 389.018,527.023 C396.238,524.96 402.426,521.35 402.426,521.35 z" fill="url(#Gradient_13)"/>
      <path d="M333.69,308.67 L322.014,297.828 L316.176,289.766 L303.944,291.99 L298.94,280.592 L251.678,292.268 L217.483,296.994 L195.52,302.554 L167.441,309.504 L144.922,320.069 L137.415,325.073 L133.523,295.048 L128.797,278.367 L119.9,261.686 L102.941,241.947 L102.107,251.399 L92.933,241.669 L75.14,248.897 L68.19,252.789 L95.713,288.096 L119.066,318.677 L123.514,324.237 L122.124,329.52 L141.029,333.134 L146.311,332.856 L153.261,327.573 L224.154,319.511 L283.926,314.507 L333.69,308.669 z" fill="url(#Gradient_14)"/>
      <path d="M338.11,315.23 L263.35,322.005 L192.095,328.547 L163.593,332.285 L152.379,337.191 L137.661,338.359 C137.661,338.359 123.41,336.023 122.475,335.322 C121.54,334.621 114.532,329.481 114.532,329.481 L119.438,323.407 L84.862,280.42 L64.537,254.254 L58.229,247.245 L63.369,247.479 L71.779,257.758 L95.842,287.662 L113.364,311.258 L122.943,323.874 L121.541,327.845 L124.812,329.948 L140.465,331.817 L145.605,332.284 L149.576,329.714 L159.622,327.845 L214.757,320.603 L307.739,311.725 L335.774,308.221 L338.111,315.23 z" fill="#4747FF"/>
      <path d="M219.68,464.11 L355.37,450.663 L358.222,444.958 L351.295,404.616 L337.033,314.968 L297.099,319.043 L228.641,324.748 L173.63,330.453 L156.515,333.713 L151.625,336.565 L138.178,338.602 L126.361,336.158 L118.211,333.305 L114.136,328.823 L119.434,323.525 L99.874,301.521 L68.09,259.549 L58.31,247.324 L56.68,253.437 L66.46,277.071 L84.39,313.338 L128.806,388.316 L140.216,406.653 L164.665,438.845 L184.632,462.887 L194.004,468.184 L209.896,468.184 L219.676,464.109 z" fill="url(#Gradient_15)"/>
      <path d="M123.51,378.54 L127.177,372.02 L116.99,361.425 L118.62,354.09 L113.323,347.57 L106.396,343.903 L107.211,339.013 L98.653,327.603 L81.538,312.526 L77.463,324.751 L80.316,337.383 L88.058,346.348 L86.836,350.015 L92.133,358.573 L94.578,363.87 L102.32,373.242 L115.36,378.54 L123.51,378.54 z" fill="url(#Gradient_16)"/>
      <path d="M353.34,403.8 L360.267,395.65 C360.267,395.65 363.527,391.575 361.897,387.5 C360.267,383.425 357.822,380.981 357.822,380.981 L357.822,371.608 L354.97,365.496 L352.932,361.829 L354.562,352.049 L352.117,344.306 L344.783,337.379 L328.891,340.232 L317.481,347.159 L315.036,352.864 L317.888,360.199 L324.408,365.496 L318.703,372.831 L321.148,381.388 L328.89,387.5 L324.815,393.613 L326.038,401.355 L336.633,408.283 L347.635,406.653 L353.34,403.8 z" fill="url(#Gradient_17)"/>
      <path d="M350.89,261.59 L329.293,284.817 L319.106,293.374 L314.624,289.299 L303.622,290.929 L299.547,281.15 L278.765,287.262 L218.456,297.042 L189.524,277.482 L170.779,255.478 L167.519,243.253 L168.334,232.251 L173.224,218.396 C173.224,218.396 177.299,208.616 176.076,198.429 C174.854,188.242 162.221,162.977 162.221,162.977 L158.961,142.195 L160.999,115.301 L199.711,87.999 L256.76,110.819 L286.914,118.968 L305.251,117.746 L286.506,94.519 L316.253,113.671 L356.187,126.303 L349.259,142.195 L346.407,169.089 L352.519,198.428 L360.669,209.838 L350.889,261.589 z" fill="url(#Gradient_18)"/>
      <path d="M233.13,208.21 C233.13,208.21 235.575,195.578 235.575,193.948 C235.575,192.318 232.315,169.091 232.315,169.091 L222.943,154.014 C222.943,154.014 212.756,149.124 211.126,149.124 C209.496,149.124 187.899,150.754 187.899,150.754 L164.672,162.979 L159.782,173.166 L157.337,191.503 L162.634,206.58 L175.266,219.212 L189.121,222.472 L204.198,220.435 L210.718,218.805 L211.533,212.285 L220.09,208.21 L233.13,208.21 z" fill="url(#Gradient_19)"/>
      <g>
        <path d="M317.07,200.46 L319.107,186.605 L313.403,164.601 L304.03,149.931 L286.508,143.004 L269.801,142.189 L251.871,146.671 L242.499,154.821 L236.387,174.381 L236.794,193.126 L242.906,207.388 L246.166,213.093 L259.613,219.613 L274.283,222.465 L295.065,218.39 L310.55,207.388 L317.07,200.461 z" fill="url(#Gradient_20)"/>
        <path d="M317.07,200.46 L319.107,186.605 L313.403,164.601 L304.03,149.931 L286.508,143.004 L269.801,142.189 L251.871,146.671 L242.499,154.821 L236.387,174.381 L236.794,193.126 L242.906,207.388 L246.166,213.093 L259.613,219.613 L274.283,222.465 L295.065,218.39 L310.55,207.388 L317.07,200.461 z" fill-opacity="0" stroke="#000000" stroke-width="1"/>
      </g>
      <path d="M351.3,262.81 C351.3,262.81 361.08,275.035 367.6,275.442 C374.12,275.849 383.492,271.775 391.642,264.032 C399.792,256.29 413.646,231.84 413.646,231.84 C413.646,231.84 414.868,226.135 414.868,219.615 C414.868,213.095 407.941,194.758 403.458,192.313 C398.976,189.868 387.158,186.608 380.231,190.683 C373.304,194.758 364.339,201.278 359.041,209.427 C353.744,217.577 348.854,231.024 348.854,238.359 C348.854,245.694 351.299,262.808 351.299,262.808 z" fill="url(#Gradient_21)"/>
      <path d="M416.08,224.64 C416.08,224.64 441.444,191.07 441.444,160.485 C441.444,129.899 436.222,89.616 418.318,73.204 C400.414,56.792 375.05,39.634 375.05,39.634 C375.05,39.634 385.494,38.888 392.208,38.888 C398.922,38.888 412.35,44.11 412.35,44.11 C412.35,44.11 392.954,27.698 382.51,24.714 C372.066,21.73 348.194,20.984 348.194,20.984 C348.194,20.984 355.654,13.524 360.876,10.54 C366.098,7.556 372.066,6.064 372.066,6.064 C372.066,6.064 352.67,3.08 344.464,4.572 C336.258,6.064 319.846,12.778 319.846,12.778 C319.846,12.778 266.134,3.08 245.247,3.826 C224.359,4.572 175.87,16.508 163.188,23.222 C150.506,29.936 126.634,55.3 126.634,55.3 C126.634,55.3 140.062,51.57 149.76,48.586 C159.458,45.602 169.156,44.856 169.156,44.856 C169.156,44.856 144.538,69.474 140.808,82.156 C137.078,94.838 128.126,109.758 129.618,120.202 C131.11,130.646 131.856,145.566 131.856,145.566 C131.856,145.566 149.76,123.186 160.95,114.234 C172.14,105.282 198.25,86.632 198.25,86.632 C198.25,86.632 239.28,105.282 250.47,108.266 C261.66,111.25 283.294,118.71 290.754,118.71 L307.166,118.71 L285.532,95.584 C285.532,95.584 313.134,111.996 322.832,116.472 C332.53,120.948 355.656,126.916 355.656,126.916 C355.656,126.916 345.958,156.01 345.958,165.708 C345.958,175.406 347.45,191.072 351.926,197.04 C356.402,203.008 360.878,208.976 360.878,208.976 C360.878,208.976 372.814,191.818 381.766,190.326 C390.718,188.834 405.638,191.072 407.876,196.294 C410.114,201.516 416.082,224.642 416.082,224.642 z" fill="url(#Gradient_22)"/>
      <path d="M251.37,3.16 C223.61,3.005 197.223,7.151 178.776,14.66 C167.14,19.397 150.323,29.311 142.088,36.285 C134.283,42.896 125.776,53.491 125.776,56.597 C125.776,59.513 125.764,59.521 131.557,56.597 C137.596,53.549 154.651,48.09 160.651,47.285 L165.276,46.66 L158.12,54.222 C148.125,64.783 139.149,80.724 133.089,98.66 C130.839,105.32 130.395,108.575 130.089,120.472 C129.727,134.56 131.114,145.941 133.308,146.66 C133.89,146.851 136.807,143.977 139.777,140.254 C142.746,136.53 148.465,130.098 152.496,125.973 L159.839,118.473 L159.058,123.973 C157.889,132.143 158.508,150.821 160.214,159.004 C161.656,165.916 161.602,166.358 159.558,170.348 C156.534,176.251 155.811,191.814 158.214,199.16 C160.262,205.419 166.039,213.975 169.964,216.598 C171.811,217.832 172.553,218.987 172.121,219.973 C167.044,231.539 165.785,241.071 168.214,249.567 C172.72,265.325 190.313,284.553 208.839,294.005 C214.107,296.692 213.834,296.886 199.777,299.474 C178.161,303.453 150.631,313.46 142.215,320.412 L139.184,322.912 L137.934,314.193 C132.726,277.651 128.341,267.532 109.465,248.474 L103.527,242.474 L108.402,248.818 C111.081,252.297 114.922,257.247 116.965,259.818 C123.01,267.426 128.856,278.485 130.871,286.162 C132.974,294.173 133.397,299.372 131.589,294.974 C131.024,293.599 128.112,287.431 125.089,281.255 C120.653,272.189 118.07,268.382 111.683,261.505 C104.538,253.812 103.777,252.591 103.777,248.974 C103.777,244.725 102.128,243.43 101.558,247.224 C101.254,249.25 100.931,249.079 98.246,245.287 C96.004,242.12 94.588,241.065 92.527,241.037 C89.351,240.993 76.652,246.297 72.215,249.537 L69.184,251.755 L66.371,249.318 C64.392,247.615 62.588,246.98 60.403,247.193 C57.56,247.469 57.219,247.819 56.934,251.287 C56.454,257.117 59.823,266.008 71.403,289.631 L81.997,311.225 L79.622,316.287 C76.295,323.4 76.464,331.702 80.059,338.662 C81.531,341.511 83.124,344.104 83.622,344.412 C84.12,344.72 84.824,346.525 85.184,348.443 C85.544,350.362 87.389,353.969 89.278,356.443 C91.167,358.918 92.996,362.069 93.341,363.443 C94.441,367.826 101.51,374.721 108.31,378.068 C113.567,380.657 115.561,381.14 119.248,380.725 C121.729,380.445 123.779,380.5 123.779,380.85 C123.779,381.464 129.437,390.637 144.435,414.194 C151.124,424.7 166.584,444.207 179.685,458.694 C186.118,465.807 191.635,468.692 200.623,469.632 C206.998,470.298 217.395,468.742 221.779,466.475 C223.169,465.757 228.999,464.708 234.748,464.132 L245.186,463.069 L249.217,466.6 C251.436,468.528 255.417,471.491 258.03,473.194 C261.651,475.555 262.78,476.9 262.78,478.85 C262.78,481.454 259.711,506.283 259.342,506.694 C259.132,506.927 255.862,507.433 247.28,508.476 C234.181,510.066 212.965,515.331 206.561,518.601 C204.812,519.493 203.655,519.633 203.249,518.976 C202.904,518.419 202.207,518.216 201.686,518.538 C201.165,518.86 200.992,519.553 201.311,520.069 C202.315,521.694 198.686,522.319 197.155,520.788 C195.978,519.611 194.419,519.516 189.124,520.225 C183.624,520.962 182.247,520.832 180.749,519.475 C178.809,517.72 175.217,517.971 166.78,520.475 C159.876,522.524 147.78,523.065 147.78,521.319 C147.78,520.55 147.152,519.7 146.405,519.413 C145.093,518.91 135.108,520.967 131.53,522.476 C130.2,523.036 129.78,522.713 129.78,521.194 C129.78,520.094 129.217,518.979 128.53,518.726 C127.351,518.291 117.131,520.098 112.592,521.538 C112.281,521.636 112.093,521.654 111.998,521.601 C111.991,521.596 111.973,521.605 111.967,521.601 C111.793,521.668 111.684,521.754 111.498,521.819 C111.344,521.902 111.161,521.915 110.998,521.976 C110.975,521.991 110.959,522.023 110.935,522.038 C110.732,522.134 110.676,522.203 110.435,522.226 C110.337,522.234 110.221,522.193 110.123,522.194 C110.112,522.194 110.141,522.225 110.154,522.226 C110.142,522.233 110.134,522.248 110.123,522.257 C110.026,522.421 109.645,522.476 109.529,522.507 C109.368,522.55 109.58,522.483 109.467,522.538 C109.414,522.563 109.364,522.579 109.31,522.601 C109.35,522.66 108.715,522.802 108.685,522.882 C108.442,523.045 108.156,523.065 107.873,523.038 C107.758,523.099 107.649,523.145 107.529,523.194 C107.468,523.219 107.403,523.265 107.342,523.288 C107.061,523.548 106.936,523.465 106.592,523.476 C106.547,523.477 106.643,523.504 106.717,523.507 C106.691,523.518 106.647,523.557 106.623,523.569 C106.556,523.636 106.557,523.653 106.435,523.694 C106.223,523.767 106.104,523.79 105.967,523.788 C105.957,523.797 105.942,523.811 105.935,523.819 C105.907,523.854 105.873,523.881 105.842,523.913 C105.773,523.983 105.711,524.057 105.623,524.101 C105.337,524.242 105.233,524.259 104.998,524.288 C104.725,524.319 104.459,524.289 104.185,524.288 C103.932,524.296 103.681,524.3 103.435,524.226 C103.327,524.248 103.225,524.257 103.092,524.257 C102.682,524.257 102.679,524.27 102.279,524.194 C102.197,524.179 102.104,524.17 102.029,524.132 C101.968,524.101 101.93,524.045 101.873,524.007 C101.628,523.98 101.279,523.956 101.092,523.851 C100.981,523.788 100.88,523.679 100.779,523.601 C100.692,523.586 100.709,523.562 100.654,523.476 C100.371,523.332 100.467,523.232 100.342,523.319 C100.291,523.288 100.269,523.254 100.217,523.226 C100.208,523.221 100.226,523.259 100.217,523.257 C100.174,523.247 100.134,523.206 100.092,523.194 C99.899,523.138 99.764,523.076 99.592,522.976 C99.429,522.914 99.379,522.872 99.279,522.819 C99.199,522.802 99.106,522.785 99.029,522.757 C98.766,522.655 98.595,522.444 98.373,522.288 C98.245,522.197 98.074,522.173 97.935,522.101 C97.764,522.01 97.712,521.946 97.56,521.882 C97.471,521.927 97.567,521.906 97.31,521.819 C97.153,521.768 96.996,521.696 96.842,521.632 C96.753,521.623 96.676,521.594 96.592,521.569 C96.552,521.583 96.539,521.564 96.498,521.569 C96.091,521.509 96.048,521.505 96.06,521.507 C96.07,521.515 96.04,521.508 96.029,521.507 C96.01,521.497 96.004,521.473 95.904,521.444 C95.817,521.416 95.71,521.411 95.623,521.382 C95.614,521.379 95.6,521.385 95.592,521.382 C95.383,521.432 95.148,521.387 94.935,521.382 C94.811,521.378 94.684,521.381 94.56,521.382 C94.551,521.385 94.541,521.376 94.529,521.382 C94.519,521.382 94.508,521.382 94.498,521.382 C94.455,521.382 94.415,521.37 94.373,521.382 C94.335,521.392 94.459,521.412 94.498,521.413 C94.365,521.527 94.061,521.696 93.967,521.726 C93.915,521.742 93.884,521.748 93.842,521.757 C93.812,521.776 93.79,521.78 93.748,521.819 C93.644,521.938 93.556,522.033 93.435,522.132 C93.363,522.179 93.286,522.237 93.217,522.288 C93.076,522.431 92.978,522.464 92.779,522.569 C92.741,522.59 92.725,522.595 92.717,522.601 C92.516,522.717 92.625,522.674 92.373,522.788 C92.302,522.829 92.257,522.873 92.185,522.913 C92.093,522.965 92.066,522.937 92.092,522.976 C92.072,522.987 92.049,522.996 92.029,523.007 C91.985,523.152 91.52,523.398 91.435,523.444 C91.189,523.484 90.967,523.611 90.717,523.632 C90.558,523.645 90.461,523.615 90.31,523.601 C90.066,523.59 89.87,523.603 89.623,523.507 C89.503,523.46 89.395,523.375 89.279,523.319 C89.267,523.312 89.259,523.296 89.248,523.288 C89.024,523.259 88.808,523.221 88.592,523.163 C88.314,523.103 88.052,523.027 87.779,522.944 C87.738,522.932 87.696,522.924 87.654,522.913 C87.444,522.936 87.186,522.913 86.904,522.788 C86.776,522.731 86.659,522.684 86.529,522.632 C86.491,522.616 86.444,522.612 86.404,522.601 C86.117,522.722 85.954,522.476 85.685,522.476 C85.661,522.476 85.589,522.503 85.56,522.507 C85.327,522.551 85.09,522.419 84.873,522.351 C84.82,522.334 84.924,522.365 84.81,522.382 C84.67,522.401 84.515,522.414 84.373,522.413 C84.372,522.452 84.285,522.431 84.248,522.444 C83.779,522.559 84.352,522.458 83.81,522.538 C83.67,522.59 83.417,522.597 83.31,522.601 C83.064,522.574 82.808,522.597 82.56,522.601 C82.568,522.598 82.532,522.608 82.529,522.601 C82.376,522.654 82.175,522.67 82.029,522.694 C82.001,522.699 81.964,522.721 81.935,522.726 C81.781,522.751 81.708,522.749 81.623,522.757 C81.52,522.766 81.421,522.779 81.248,522.788 C81.228,522.807 81.171,522.822 81.123,522.819 C81.113,522.82 81.102,522.819 81.092,522.819 C81.082,522.818 81.071,522.821 81.06,522.819 L80.779,522.882 C74.322,524.267 74.779,524.325 74.779,521.976 C74.779,519.279 72.156,519.39 64.717,522.413 L58.717,524.851 L60.748,522.288 C63.441,518.865 63.308,517.142 60.28,516.382 C57.157,515.598 53.588,516.47 47.592,519.476 C43.778,521.387 42.818,521.572 42.373,520.413 C41.708,518.68 38.851,518.616 36.654,520.288 C34.123,522.215 29.779,529.07 29.779,531.132 C29.779,533.835 31.43,533.392 32.154,530.507 C32.704,528.314 37.096,522.976 38.342,522.976 C38.606,522.976 38.157,524.274 37.342,525.851 C36.101,528.251 36.074,529.019 37.185,530.538 C38.426,532.235 38.705,532.102 41.779,528.601 C44.922,525.021 51.423,521.094 56.779,519.507 C58.733,518.928 58.006,519.997 53.529,524.382 L47.81,529.976 L50.935,529.976 C52.663,529.976 56.038,528.849 58.435,527.445 C62.771,524.904 71.813,521.697 72.56,522.445 C72.776,522.66 71.343,523.887 69.373,525.164 C67.008,526.696 65.787,528.259 65.779,529.757 L65.779,532.039 L69.529,530.132 C73.097,528.34 80.739,525.741 85.467,524.695 C87.382,524.271 87.506,524.425 86.498,526.039 C84.776,528.797 86.178,529.348 89.936,527.382 C93.892,525.313 99.193,524.94 99.373,526.726 C99.442,527.414 99.586,528.218 99.654,528.507 C99.723,528.797 101.112,528.353 102.748,527.507 C106.076,525.787 123.908,520.793 124.529,521.414 C124.748,521.633 123.117,522.882 120.873,524.164 C118.553,525.489 116.783,527.231 116.779,528.226 C116.77,530.342 116.919,530.347 121.248,528.539 C123.966,527.403 135.97,523.976 137.217,523.976 C137.371,523.976 137.261,525.101 136.998,526.476 C136.462,529.283 137.378,529.604 140.279,527.632 C142.418,526.179 152.405,523.976 156.841,523.976 C158.354,523.976 159.755,524.498 159.966,525.132 C160.237,525.945 161.084,525.844 162.81,524.757 C164.157,523.91 166.99,522.907 169.091,522.538 C171.193,522.169 173.555,521.621 174.341,521.32 C175.364,520.927 175.779,521.534 175.779,523.476 C175.779,525.673 176.112,526.069 177.529,525.476 C179.649,524.588 194.779,523.518 194.779,524.257 C194.779,524.545 192.641,526.16 190.029,527.851 C184.459,531.455 178.807,536.497 176.467,539.945 C175.518,541.342 173.61,542.492 172.029,542.664 C169.415,542.947 169.441,542.905 172.654,541.476 C174.525,540.645 175.821,539.705 175.529,539.414 C174.372,538.256 159.779,542.978 159.779,544.507 C159.779,545.79 167.815,550.079 168.967,549.414 C169.686,548.998 169.912,549.051 169.498,549.507 C168.47,550.64 176.493,555.274 177.936,554.382 C178.649,553.941 178.815,554.105 178.373,554.82 C177.966,555.478 178.248,555.976 179.029,555.976 C181.504,555.976 188.244,559.794 189.529,561.914 C190.709,563.86 190.568,563.976 187.279,563.976 C184.827,563.976 183.779,564.428 183.779,565.476 C183.779,566.643 185.113,566.976 189.779,566.976 C195.113,566.976 195.779,566.754 195.779,564.976 C195.779,563.865 195.113,562.976 194.279,562.976 C193.454,562.976 192.779,562.526 192.779,561.976 C192.779,560.559 193.069,560.636 200.436,563.976 C204.075,565.626 207.205,566.976 207.404,566.976 C208.538,566.976 207.487,563.59 205.779,561.757 C204.679,560.577 203.779,559.233 203.779,558.789 C203.779,557.479 213.231,561.461 217.06,564.382 C219.254,566.056 220.844,566.692 221.248,566.039 C222.085,564.684 241.779,564.625 241.779,565.976 C241.779,570.178 269.447,576.535 284.591,575.82 C288.54,575.633 291.779,575.85 291.778,576.289 C291.777,576.728 293.241,577.73 295.028,578.507 C299.359,580.39 299.853,580.319 300.466,577.976 C300.754,576.876 301.527,575.976 302.185,575.976 C302.842,575.976 305.252,576.876 307.529,577.976 C309.805,579.076 311.914,579.976 312.216,579.976 C313.374,579.976 312.695,575.797 311.154,573.445 C308.769,569.805 310.686,570.419 317.341,575.445 C320.599,577.905 323.616,579.93 324.029,579.945 C325.369,579.992 324.787,577.576 322.279,572.476 C319.291,566.402 319.221,565.626 321.685,566.945 C324.07,568.222 331.779,575.996 331.779,577.133 C331.779,579.089 335.53,577.774 336.591,575.445 C338.22,571.872 346.627,563.097 350.185,561.257 L353.154,559.726 L351.279,562.601 C350.248,564.185 348.765,565.976 347.967,566.57 C346.794,567.441 346.754,568.084 347.717,569.883 L348.904,572.101 L352.748,568.633 C356.419,565.316 371.421,557.306 372.31,558.195 C373.024,558.909 366.624,564.976 365.154,564.976 C363.602,564.976 363.209,569.532 364.685,570.445 C365.197,570.761 366.251,570.135 366.997,569.07 C369.016,566.188 389.997,556.883 391.372,558.258 C392.033,558.918 386.049,563.476 384.529,563.476 C383.101,563.476 381.606,567.783 382.779,568.508 C383.289,568.823 384.744,568.404 385.997,567.601 C388.473,566.014 393.806,564.543 400.559,563.57 C404.649,562.981 404.786,563.034 403.747,564.976 C402.209,567.851 403.37,569.271 406.059,567.789 C408.385,566.507 423.305,566.206 426.371,567.383 C429.209,568.471 443.777,568.865 443.777,567.851 C443.777,565.999 438.243,564.943 425.246,564.32 C413.43,563.753 411.862,563.459 411.434,561.82 C411.149,560.729 410.043,559.976 408.747,559.976 C406.671,559.976 406.728,559.794 409.778,556.32 C414.122,551.372 415.778,547.11 415.778,540.726 C415.778,534.038 412.029,526.104 407.372,522.914 C405.028,521.308 404.083,519.936 404.153,518.164 C404.236,516.051 405.693,514.915 413.372,510.977 C424.371,505.335 427.9,504.797 422.184,509.633 C420.027,511.458 417.941,512.969 417.528,512.977 C416.485,512.997 416.578,516.977 417.622,516.977 C418.088,516.977 419.775,516.335 421.372,515.539 C424.606,513.926 435.326,510.977 437.716,511.039 C438.6,511.062 438.107,511.714 436.529,512.57 C434.701,513.562 433.779,514.874 433.779,516.476 L433.779,518.883 L438.341,516.851 C440.857,515.738 445.403,514.571 448.435,514.258 C453.81,513.703 453.921,513.762 453.591,516.101 C453.319,518.036 453.666,518.429 455.279,518.133 C459.861,517.292 469.065,516.827 471.154,517.351 C472.389,517.662 474.694,519.055 476.31,520.445 C477.926,521.836 480.854,523.249 482.779,523.57 C484.704,523.892 487.779,524.63 489.622,525.195 C494.041,526.549 499.571,525.572 505.467,522.414 C509.258,520.383 511.108,519.955 514.248,520.445 C516.431,520.786 518.54,521.618 518.935,522.258 C519.458,523.103 520.15,522.976 521.466,521.82 C524.062,519.542 529.363,516.99 531.466,517.008 C532.542,517.017 532.827,517.318 532.185,517.758 C530.783,518.718 529.616,521.935 530.279,523.008 C530.565,523.471 532.026,523.198 533.529,522.414 C536.642,520.79 545.779,520.464 545.779,521.976 C545.779,522.526 546.184,522.976 546.716,522.976 C547.301,522.976 547.379,522.087 546.873,520.726 C546.141,518.76 545.45,518.523 541.404,518.82 C537.35,519.118 536.779,518.918 536.779,517.195 C536.779,513.655 534.408,512.672 529.06,513.976 C517.302,516.844 513.883,517.692 514.154,515.914 C513.54,515.893 512.924,515.875 512.31,515.851 C512.284,515.861 512.274,515.873 512.248,515.883 C512.954,515.714 511.179,516.19 509.435,516.57 C509.202,516.624 508.995,516.644 508.748,516.695 C508.551,516.735 508.338,516.786 508.154,516.82 C508.083,516.835 507.96,516.87 507.904,516.883 C507.491,516.978 507.171,517.045 506.873,517.101 C506.407,517.26 505.931,517.429 505.623,517.539 C505.17,517.701 504.678,517.823 504.185,517.914 C502.846,519.106 501.592,520.053 500.592,520.57 C500.021,520.865 499.534,521.092 499.092,521.289 C497.062,522.658 494.951,522.435 487.654,521.32 C485.983,521.065 483.262,517.735 481.529,515.695 C481.167,515.523 480.799,515.365 480.435,515.195 C483.654,518.59 485.561,520.978 484.872,520.976 C483.135,520.972 477.34,517.694 475.091,515.445 C474.796,515.15 474.156,514.193 473.372,512.976 C472.61,512.984 471.853,513.014 471.091,513.008 C470.706,513.005 470.32,513.009 469.935,513.008 L470.404,513.976 L466.341,513.976 C463.482,513.976 461.916,513.435 461.122,512.164 C460.883,511.78 460.67,511.479 460.372,511.258 C460.363,511.254 460.35,511.262 460.341,511.258 C460.312,511.237 460.277,511.215 460.247,511.195 C460.128,511.146 460.028,511.123 459.904,511.07 C459.824,511.037 459.739,510.988 459.654,510.945 C458.678,510.64 457.134,510.726 454.122,511.101 C444.733,512.272 444.04,512.167 443.434,509.851 C442.921,507.888 442.441,507.784 437.153,508.445 C434.008,508.838 430.915,509.376 430.247,509.633 C429.436,509.944 429.164,509.308 429.466,507.727 C429.741,506.286 429.286,504.813 428.278,503.977 C426.16,502.219 420.633,503.61 409.966,508.539 C405.829,510.451 402.335,511.9 402.216,511.758 C401.765,511.216 395.885,489.09 393.841,480.258 L391.716,471.008 L396.216,460.664 C398.693,454.977 401.259,447.894 401.935,444.914 C403.896,436.264 403.389,414.918 400.998,405.602 C399.055,398.032 399.056,397.605 400.748,394.602 C401.715,392.883 403.041,389.227 403.716,386.477 C404.392,383.727 405.373,380.352 405.873,378.977 C407.425,374.703 407.601,359.854 406.216,351.477 C404.736,342.525 400.397,329.133 396.435,321.321 C393.548,315.628 385.539,305.549 379.279,299.727 C373.828,294.657 363.509,289.775 356.998,289.196 C352.293,288.777 351.784,288.517 352.342,286.758 C353.401,283.423 351.766,276.145 349.311,273.227 L346.967,270.446 L349.217,267.665 L351.436,264.852 L353.28,267.634 C357.704,274.386 362.603,277.112 370.749,277.29 C375.892,277.402 377.114,276.988 382.03,273.602 C389.695,268.323 394.661,263.553 400.405,255.977 C407.668,246.396 410.232,242.155 412.842,235.477 C414.133,232.177 416.581,227.893 418.28,225.946 C427.366,215.536 436.593,197.458 439.749,183.884 C440.439,180.915 441.382,177.232 441.843,175.697 C442.304,174.161 443.234,167.371 443.905,160.603 C448.152,117.792 429.314,73.976 397.78,53.383 C395.305,51.766 389.787,48.632 385.53,46.445 C381.274,44.258 377.786,42.066 377.78,41.57 C377.759,39.754 397.149,41.81 404.999,44.445 C413.909,47.436 413.781,47.402 413.781,45.539 C413.781,43.844 400.97,33.755 394.062,30.008 C382.306,23.631 369.918,19.985 359.906,19.977 C353.52,19.972 352.688,19.786 353.749,18.508 C355.677,16.185 365.641,11.824 370.687,11.102 C374.319,10.582 375.281,10.061 375.281,8.539 C375.281,5.642 367.283,3.758 355.062,3.789 C343.533,3.819 336.445,5.495 327.468,10.258 L321.656,13.321 L309.968,10.696 C283.184,4.669 276.792,3.781 256.937,3.258 C255.076,3.209 253.225,3.175 251.374,3.164 z M356.12,6.629 C361.452,6.497 366.038,6.859 366.932,7.754 C367.907,8.729 367.758,8.996 366.213,9.004 C361.475,9.028 349.084,16.628 346.775,20.942 C345.911,22.557 346.397,22.673 352.681,22.223 C366.11,21.262 383.451,26.259 397.15,35.035 C401.473,37.804 404.825,40.236 404.619,40.441 C404.414,40.647 401.782,40.19 398.775,39.41 C389.436,36.987 371.733,38.317 371.369,41.473 C371.307,42.016 375.101,44.642 379.776,47.316 C397.87,57.668 410.642,68.892 419.588,82.285 C429.211,96.691 437.532,118.962 439.182,134.66 C442.263,163.976 435.184,196.309 421.651,214.629 C419.538,217.49 417.419,220.079 416.932,220.379 C416.445,220.68 415.797,218.565 415.494,215.692 C414.273,204.114 409.733,195.181 402.9,190.848 C399.071,188.419 397.327,187.973 391.712,187.973 C383.505,187.973 380.138,189.088 371.493,194.629 C365.885,198.224 363.868,198.973 359.868,198.973 L355.025,198.973 L352.243,190.723 C346.587,173.89 348.149,145.698 355.556,130.754 C357.132,127.574 358.204,124.746 357.931,124.473 C357.657,124.199 356.209,123.973 354.712,123.973 C349.241,123.973 327.29,116.679 314.774,110.692 C303.039,105.077 288.562,95.313 284.43,90.223 C282.76,88.165 279.774,87.123 279.774,88.598 C279.774,89.986 288.91,102.818 293.212,107.473 C295.753,110.223 298.748,113.71 299.868,115.223 L301.899,117.973 L298.868,117.973 C287.893,117.973 252.588,107.977 223.274,96.567 C219.424,95.068 213.914,92.994 211.055,91.973 C208.197,90.952 204.234,89.355 202.243,88.41 C198.718,86.738 198.501,86.754 194.43,89.004 C182.676,95.499 166.452,108.284 152.618,121.973 C144.558,129.948 137.05,138.012 135.93,139.879 L133.899,143.285 L133.211,139.535 C131.961,132.869 133.42,111.036 135.586,103.973 C138.909,93.138 142.55,84.269 146.836,76.692 C152.639,66.433 155.695,62.428 167.024,50.067 C172.392,44.211 172.788,42.973 169.368,42.973 C162.217,42.973 138.807,49.824 132.93,53.629 C126.078,58.067 133.464,49.785 144.461,40.691 C155.712,31.389 169.848,22.825 180.773,18.722 C199.958,11.518 226.473,7.528 254.773,7.597 C273.266,7.643 277.514,8.125 307.273,13.472 C319.538,15.676 322.392,15.584 328.773,12.629 C331.798,11.228 337.198,9.329 340.773,8.41 C344.719,7.396 350.785,6.76 356.117,6.629 z M199.62,89.941 L205.933,92.378 C209.405,93.71 217.002,97.04 222.777,99.785 C228.552,102.529 240.702,107.315 249.777,110.41 C258.852,113.505 266.871,116.234 267.621,116.503 C268.706,116.894 268.753,117.296 267.777,118.472 C266.801,119.648 266.816,120.048 267.902,120.41 C268.651,120.659 273.327,122.296 278.277,124.035 C289.424,127.95 291.777,128.497 291.777,127.191 C291.777,126.626 290.3,124.933 288.527,123.441 L285.308,120.722 L294.558,121.472 C301.108,121.99 304.675,121.843 306.777,120.972 C308.41,120.296 309.777,119.463 309.777,119.128 C309.777,118.794 306.064,114.729 301.527,110.097 C296.989,105.465 294.627,102.604 296.277,103.722 C311.9,114.31 330.869,123.044 345.777,126.534 C349.902,127.5 353.385,128.37 353.527,128.472 C353.669,128.573 352.49,131.541 350.902,135.065 C344.546,149.17 342.508,171.122 346.183,185.971 C347.204,190.096 348.356,193.921 348.746,194.471 C349.135,195.021 349.746,196.259 350.089,197.221 C350.666,198.84 349.526,198.971 335.12,198.971 C320.684,198.971 319.591,198.843 320.245,197.221 C323.151,190.015 320.623,174.457 314.62,162.69 C312.022,157.597 305.208,149.353 302.214,147.69 C301.011,147.022 298.625,145.684 296.933,144.722 C292.191,142.023 283.029,139.984 275.808,140.003 C261.145,140.042 248.878,144.865 243.433,152.753 C240.417,157.123 235.774,167.286 235.683,169.753 C235.636,171.039 235.421,170.901 234.746,169.221 C233.226,165.44 225.98,156.24 222.527,153.69 C217.155,149.723 211.325,147.987 203.496,148.003 C191.057,148.028 176.567,152.619 168.434,159.128 C166.335,160.808 164.434,161.972 164.184,161.722 C163.312,160.85 160.75,147.452 160.121,140.41 C159.773,136.513 159.816,129.82 160.215,125.566 L160.934,117.847 L168.934,111.503 C173.335,108.023 182.039,101.756 188.278,97.565 L199.622,89.94 z M201.714,119.41 C200.688,119.495 199.539,120.089 197.464,121.316 C192.419,124.3 185.776,130.323 185.776,131.878 C185.776,132.491 186.399,132.972 187.182,132.972 C189.165,132.972 207.276,123.427 207.276,122.378 C207.276,121.907 205.997,120.894 204.464,120.159 C203.522,119.708 202.841,119.447 202.151,119.409 C202.007,119.401 201.86,119.397 201.714,119.409 z M271.12,143.566 C272.342,143.553 273.728,143.569 275.276,143.566 C287.766,143.538 288.519,143.668 294.901,146.66 C304.993,151.39 309.777,156.91 313.745,168.441 C317.243,178.609 318.018,185.307 316.62,193.629 C315.383,200.988 315.203,201.267 309.245,206.817 C300.486,214.974 295.652,218.015 288.026,220.129 C281.805,221.854 271.321,222.48 267.776,221.347 C266.951,221.084 263.351,219.928 259.776,218.785 C249.389,215.465 245.806,212.411 241.807,203.316 C238.895,196.692 238.302,194.056 237.932,186.097 C237.447,175.653 238.691,168.47 242.432,160.003 C245.679,152.654 248.075,150.247 255.776,146.628 C261.193,144.082 262.563,143.652 271.12,143.565 z M266.432,148.285 C264.423,148.434 262.858,149.867 262.495,152.316 C261.899,156.337 262.34,157.471 265.057,158.785 C268.142,160.275 268.531,160.217 270.776,157.972 C273.517,155.231 273.328,151.41 270.37,149.472 C269.004,148.577 267.638,148.195 266.432,148.285 z M268.151,150.16 C268.219,150.134 268.287,150.17 268.37,150.253 C268.702,150.586 268.721,151.438 268.432,152.16 C268.113,152.957 267.887,152.731 267.839,151.566 C267.806,150.775 267.947,150.235 268.151,150.16 z M207.339,150.191 C211.395,150.175 212.925,150.762 216.777,152.753 C223.178,156.062 228.58,162.593 231.715,170.784 C234.618,178.372 235.553,196.872 233.308,202.222 C231.843,205.716 231.443,205.967 227.496,205.972 C218.212,205.985 209.777,210.593 209.777,215.629 C209.777,217.486 208.87,218.16 204.871,219.347 C191.374,223.356 177.96,221.092 170.371,213.504 C162.402,205.535 159.572,198.326 159.59,185.942 C159.604,176.013 162.231,168.784 167.84,163.161 C174.637,156.347 188.802,151.079 202.278,150.38 C204.379,150.27 205.988,150.197 207.34,150.192 z M209.839,155.035 C209.283,155.05 208.769,155.158 208.277,155.347 C206.195,156.146 206.322,162.824 208.464,165.191 C210.629,167.583 212.548,167.16 215.089,163.753 C216.784,161.481 216.916,160.623 215.964,158.535 C215.006,156.433 212.247,154.968 209.839,155.035 z M211.152,156.316 C211.51,156.256 211.777,156.473 211.777,156.91 C211.777,157.492 211.327,157.972 210.777,157.972 C210.227,157.972 209.777,157.777 209.777,157.535 C209.777,157.292 210.227,156.812 210.777,156.472 C210.914,156.387 211.032,156.336 211.152,156.316 z M391.372,191.16 C396.855,190.958 401.488,192.699 405.31,196.379 C410.595,201.467 412.708,207.966 412.872,219.66 C412.983,227.535 412.732,228.586 408.903,236.566 C399.059,257.082 383.987,271.051 370.122,272.566 C363.783,273.258 359.53,271.008 354.341,264.128 L350.435,258.941 L349.091,261.691 C346.546,266.861 321.843,290.972 319.091,290.972 C318.729,290.972 317.689,290.33 316.81,289.534 C315.578,288.419 314.316,288.292 311.248,289.003 C305.267,290.389 305.178,290.351 302.904,285.065 C300.505,279.489 299.323,278.725 295.779,280.503 C290.488,283.157 281.273,285.197 252.81,290.003 C236.602,292.739 222.823,294.972 222.216,294.972 C221.609,294.972 216.196,292.51 210.185,289.503 C189.311,279.06 171.21,259.094 169.341,244.472 C168.473,237.682 171.876,222.263 174.622,220.566 C175.114,220.262 176.939,220.726 178.685,221.597 C180.43,222.468 184.495,223.43 187.716,223.722 C193.755,224.27 206.374,222.443 207.341,220.878 C208.355,219.237 209.523,219.96 210.81,223.066 C212.131,226.256 219.992,231.103 221.466,229.628 C221.875,229.219 219.827,226.773 216.903,224.191 C212.429,220.24 211.613,219.007 211.903,216.566 C212.376,212.578 216.068,210.187 223.684,208.847 C231.054,207.55 237.239,208.564 243.122,212.034 C247.693,214.732 248.165,218.905 244.216,221.691 C238.537,225.697 237.291,226.825 237.935,227.472 C238.967,228.509 242.455,227.112 245.778,224.316 C247.992,222.453 248.778,220.945 248.778,218.503 L248.778,215.191 L252.31,217.003 C254.26,217.997 256.431,219.31 257.153,219.909 C259.707,222.029 268.345,223.961 275.278,223.972 C289.268,223.993 299.995,219.254 312.278,207.597 L318.278,201.909 L335.216,202.597 L352.185,203.284 L355.342,206.628 C357.076,208.467 359.113,209.947 359.873,209.909 C360.633,209.871 363.394,207.201 365.998,203.972 C369.573,199.537 372.265,197.384 376.998,195.159 C382.321,192.657 387.108,191.316 391.373,191.159 z M237.092,200.129 C237.121,200.107 237.135,200.104 237.154,200.129 C237.309,200.326 238.889,202.61 240.654,205.222 C244.154,210.402 243.986,210.643 238.685,208.16 C235.3,206.575 235.171,206.32 235.998,203.129 C236.417,201.512 236.882,200.28 237.092,200.129 z M359.782,202.972 C361.093,202.972 361.515,203.457 361.125,204.472 C360.809,205.297 360.214,205.972 359.782,205.972 C359.349,205.972 358.723,205.297 358.407,204.472 C358.017,203.457 358.47,202.972 359.782,202.972 z M384.938,215.034 C381.655,215.139 378.313,215.675 376.469,216.628 C373.016,218.412 371.587,219.925 369.219,224.253 C366.667,228.918 368.712,229.374 372.719,225.034 C374.781,222.801 377.255,220.972 378.219,220.972 C380.663,220.972 385.781,226.728 385.781,229.472 C385.781,236.253 378.656,244.315 371.625,245.503 C368.081,246.102 366.772,247.65 368.438,249.315 C369.317,250.195 375.569,249.063 378.782,247.44 C388.499,242.532 390.847,226.374 382.688,220.659 C380.433,219.08 380.804,218.616 385.063,217.597 C388.852,216.691 393.708,219.139 396.657,223.472 C399.418,227.529 400.782,227.925 400.782,224.659 C400.782,222.299 397.023,218.115 393.095,216.097 C391.456,215.255 388.221,214.929 384.938,215.034 z M300.938,221.503 C300.674,221.521 300.472,221.652 300.313,221.909 C299.956,222.487 301.041,223.795 302.719,224.816 L305.781,226.659 L290.531,241.628 C268.736,263.025 260.429,267.047 240.875,265.659 C224.557,264.501 213.552,258.968 199.844,245.034 C193.716,238.805 193.192,238.397 196.782,242.816 C203.074,250.561 206.331,253.651 212.501,257.597 C218.942,261.717 226.135,264.728 233.782,266.565 C241.473,268.413 254.851,267.737 262.282,265.097 C265.582,263.924 270.982,261.296 274.282,259.284 C281.332,254.985 297.607,241.123 304.657,233.409 C308.992,228.666 310.09,227.977 313.438,227.972 C319.518,227.963 328.137,225.015 326.594,223.472 C326.257,223.134 323.378,223.607 320.188,224.534 C315.347,225.941 313.557,226.031 309.376,225.065 C306.62,224.429 303.59,223.223 302.657,222.378 C301.964,221.75 301.377,221.473 300.938,221.503 z M92.628,243.065 C94.682,243.003 96.259,244.438 98.784,248.19 C100.709,251.05 105.245,256.789 108.878,260.94 C119.543,273.13 128.497,290.636 131.816,305.784 C132.383,308.372 133.072,311.372 133.347,312.472 C133.67,313.763 133.297,313.497 132.285,311.722 C129.737,307.255 129.756,308.547 132.347,315.159 C133.681,318.564 134.777,322.051 134.785,322.909 C134.826,327.087 136.43,327.208 141.378,323.409 C151.905,315.326 174.384,307.145 194.628,304.003 C210.221,301.583 234.862,299.407 256.784,298.503 C275.998,297.711 308.176,293.695 314.378,291.316 C315.261,290.977 316.344,291.302 316.816,292.066 C317.455,293.1 316.735,293.771 313.972,294.691 L310.285,295.941 L315.097,295.566 C321.066,295.118 320.083,296.329 312.785,298.378 L307.285,299.941 L312.785,299.378 C315.81,299.078 319.012,298.63 319.91,298.378 C320.807,298.127 321.769,298.541 322.066,299.316 C322.474,300.38 320.582,301.178 314.253,302.566 C309.648,303.576 306.009,304.571 306.191,304.753 C306.373,304.935 310.328,304.518 314.972,303.847 C325.587,302.312 330.373,303.636 321.284,305.597 L315.284,306.909 L321.784,306.441 C331.118,305.755 332.552,307.383 323.878,308.816 C320.029,309.451 314.904,309.972 312.472,309.972 C310.041,309.972 305.847,310.4 303.16,310.909 C298.707,311.753 261.404,315.163 226.285,317.941 C218.585,318.549 203.51,320.188 192.785,321.566 C182.06,322.943 171.633,323.775 169.629,323.441 C161.867,322.145 147.785,326.526 147.785,330.222 C147.785,331.738 146.882,331.981 141.535,331.909 C135.153,331.824 124.361,329.922 123.097,328.659 C122.711,328.274 122.946,327.404 123.597,326.753 C125.641,324.709 124.927,322.81 119.972,317.066 C117.326,313.998 111.588,306.783 107.222,301.035 C102.855,295.286 97.124,287.861 94.503,284.535 C89.265,277.886 73.02,256.812 70.972,254.004 C69.905,252.541 69.928,252.14 71.097,251.691 C71.9,251.383 73.06,252.083 73.784,253.316 C74.486,254.51 77.579,257.734 80.659,260.472 C84.524,263.908 85.313,264.373 83.19,261.972 C77.901,255.99 73.577,249.972 74.534,249.972 C75.039,249.972 79.218,253.46 83.847,257.722 L92.284,265.472 L86.784,258.972 C83.76,255.397 80.497,251.878 79.534,251.16 C77.343,249.524 77.288,248.38 79.409,247.566 C80.599,247.109 83.842,249.766 91.065,257.191 C101.673,268.094 101.476,267.374 90.409,254.753 C84.134,247.598 82.977,244.972 86.128,244.972 C86.816,244.972 90.269,247.785 93.784,251.222 L100.159,257.472 L94.471,250.847 C89.984,245.608 89.105,244.074 90.346,243.597 C91.196,243.271 91.943,243.087 92.628,243.066 z M61.722,247.971 C63.797,247.971 68.75,253.422 76.503,264.19 C80.566,269.834 85.069,275.755 101.784,297.502 C103.159,299.291 106.933,304.301 110.19,308.627 C113.447,312.954 117.686,318.159 119.627,320.221 C122.375,323.14 122.906,324.255 121.971,325.19 C121.31,325.851 120.784,327.184 120.784,328.159 C120.784,332.232 145.528,335.385 148.253,331.659 C148.928,330.735 150.361,329.972 151.44,329.972 C152.519,329.972 159.911,328.897 167.846,327.565 C185.652,324.578 205.037,322.271 227.284,320.503 C258.94,317.987 290.244,314.906 299.034,313.44 C303.847,312.638 309.331,311.972 311.222,311.972 C313.113,311.972 317.665,311.294 321.347,310.44 C325.029,309.586 329.648,309.024 331.628,309.19 C335.106,309.483 335.261,309.651 336.409,314.847 C338.11,322.54 339.238,337.384 338.066,336.659 C336.521,335.704 326.322,338.471 322.378,340.909 C320.377,342.145 317.606,345.117 316.19,347.534 C312.961,353.043 313.547,356.854 318.409,361.44 L321.878,364.69 L319.69,368.377 C318.054,371.149 317.663,373.067 318.065,376.065 C318.697,380.778 321.219,385.011 323.815,385.69 C325.535,386.139 325.556,386.368 324.096,388.596 C323.232,389.916 322.565,392.857 322.596,395.127 C322.66,399.73 325.929,404.009 331.284,406.533 C334.975,408.273 344.026,409.066 347.846,407.97 C351.278,406.986 351.254,406.905 352.752,420.47 C353.36,425.97 354.582,434.26 355.471,438.876 C356.963,446.62 356.971,447.342 355.471,448.439 C353.498,449.881 313.156,454.396 251.281,460.095 C238.631,461.26 226.481,462.415 224.281,462.657 C220.46,463.079 220.162,462.905 217.718,458.782 C213.233,451.214 203.119,430.805 198.749,420.47 C196.424,414.97 190.09,401.67 184.655,390.908 C179.221,380.145 174.78,370.63 174.78,369.752 C174.78,368.874 174.443,367.998 174.03,367.815 C173.03,367.37 157.78,336.225 157.78,334.627 C157.78,333.375 173.886,330.726 189.28,329.439 C193.13,329.118 203.93,327.983 213.28,326.939 C222.63,325.896 237.255,324.572 245.78,323.971 C254.305,323.369 269.38,322.181 279.28,321.346 C289.18,320.51 302.905,319.426 309.78,318.939 C324.843,317.873 328.78,317.223 328.78,315.814 C328.78,315.132 327.247,314.968 324.53,315.346 C319.299,316.073 269.059,320.399 247.28,322.002 C238.48,322.65 222.46,324.277 211.686,325.596 C200.912,326.914 190.337,327.97 188.186,327.971 C181.625,327.974 156.502,332.675 152.78,334.596 C146.023,338.082 128.854,337.385 120.186,333.252 C115.592,331.061 115.03,328.956 118.343,326.314 C121.466,323.824 121.944,324.815 111.905,312.845 C108.961,309.336 105.823,305.57 104.905,304.47 C100.601,299.312 83.575,277.77 79.061,271.751 C71.913,262.22 63.478,252.211 62.061,251.595 C61.399,251.307 64.33,255.447 68.592,260.783 C72.854,266.118 79.224,274.521 82.748,279.471 C86.273,284.421 89.43,288.696 89.748,288.971 C90.067,289.246 93.766,294.196 97.967,299.971 C102.168,305.746 108.558,313.683 112.155,317.596 L118.686,324.721 L116.28,326.971 L113.874,329.221 L115.874,334.221 C120.045,344.804 130.768,366.106 139.436,380.971 C144.407,389.496 151.626,402.546 155.467,409.971 C159.308,417.396 165.072,428.403 168.279,434.409 C171.486,440.415 173.619,445.011 172.998,444.628 C170.019,442.787 156.108,424.874 146.842,410.972 C136.756,395.84 129.898,385.978 128.78,384.972 C128.474,384.697 127.472,383.312 126.561,381.878 C125.093,379.567 125.081,379.108 126.405,377.784 C127.226,376.963 128.127,374.857 128.405,373.097 C128.838,370.345 128.297,369.302 124.655,365.691 C120.857,361.924 120.468,361.055 120.686,357.253 C120.978,352.151 118.555,348.248 113.342,345.441 C111.204,344.29 109.78,342.78 109.78,341.66 C109.78,336.467 101.852,326.118 93.655,320.598 C88.53,317.146 88.237,316.669 68.249,276.973 C61.092,262.761 58.076,254.119 59.28,251.348 C59.724,250.326 60.023,249.135 59.936,248.723 C59.849,248.31 60.65,247.973 61.717,247.973 z M345.812,272.033 L347.78,275.252 C348.863,277.028 349.747,279.974 349.749,281.783 C349.753,285.124 346.799,292.036 343.999,295.221 C342.599,296.814 342.64,296.987 344.374,296.971 C345.422,296.962 347.329,295.837 348.624,294.471 C355.177,287.563 372.572,295.423 384.936,310.877 C394.848,323.265 400.535,336.381 402.842,352.158 C404.232,361.662 403.491,377.18 401.28,384.627 C399.226,391.543 394.06,397.976 387.811,401.377 C383.231,403.87 381.345,404.24 372.436,404.534 C361.796,404.885 355.275,404.048 357.53,402.627 C359.783,401.207 362.78,394.169 362.78,390.252 C362.78,388.153 362.054,385.398 361.186,384.159 C360.175,382.716 359.546,379.448 359.436,375.034 C359.292,369.266 358.86,367.711 356.842,365.565 C354.714,363.302 354.456,362.212 354.655,356.096 C354.961,346.635 351.287,339.449 345.186,337.596 C343.367,337.044 342.912,335.426 341.373,324.221 C339.582,311.182 338.043,306.99 334.998,306.971 C333.161,306.959 320.743,295.988 320.779,294.409 C320.791,293.895 323.154,291.77 326.029,289.69 C328.905,287.61 334.527,282.792 338.529,278.971 L345.811,272.034 z M299.468,282.314 L301.061,286.658 C301.944,289.04 302.516,290.971 302.343,290.971 C302.169,290.971 299.618,291.461 296.655,292.033 C287.324,293.834 270.674,295.82 259.78,296.439 C254.005,296.768 242.08,297.533 233.28,298.127 C224.48,298.721 216.942,299.409 216.53,299.658 C216.118,299.907 215.78,299.668 215.78,299.158 C215.78,298.648 217.468,297.988 219.53,297.689 C265.996,290.955 284.801,287.525 295.374,283.783 L299.468,282.315 z M117.808,286.971 C117.275,286.971 117.085,287.646 117.401,288.471 C117.718,289.296 118.154,289.971 118.37,289.971 C118.586,289.971 118.776,289.296 118.776,288.471 C118.776,287.646 118.34,286.971 117.808,286.971 z M303.838,297.096 C303.49,297.11 303.191,297.211 303.025,297.377 C302.693,297.709 303.283,297.952 304.338,297.908 C305.503,297.86 305.76,297.602 304.963,297.283 C304.602,297.139 304.185,297.081 303.838,297.096 z M110.278,297.471 L112.684,300.221 C114.017,301.733 115.255,302.971 115.434,302.971 C116.218,302.971 115.598,302.174 113.028,299.908 L110.278,297.471 z M133.153,298.158 C133.221,298.133 133.288,298.169 133.371,298.252 C133.704,298.584 133.723,299.436 133.434,300.158 C133.115,300.956 132.888,300.729 132.84,299.564 C132.808,298.774 132.948,298.233 133.153,298.158 z M212.841,299.096 C213.188,299.081 213.605,299.139 213.966,299.283 C214.763,299.602 214.506,299.86 213.341,299.908 C212.287,299.952 211.696,299.709 212.028,299.377 C212.194,299.211 212.493,299.11 212.841,299.096 z M303.779,300.096 C303.326,300.096 302.872,300.176 302.529,300.314 C301.841,300.592 302.404,300.814 303.779,300.814 C305.154,300.814 305.716,300.592 305.029,300.314 C304.685,300.176 304.232,300.096 303.779,300.096 z M294.841,301.096 C294.494,301.11 294.195,301.211 294.029,301.377 C293.696,301.709 294.287,301.952 295.341,301.908 C296.506,301.86 296.764,301.602 295.966,301.283 C295.605,301.139 295.189,301.081 294.841,301.096 z M115.781,303.971 C115.729,304.022 116.003,304.428 116.625,305.221 C117.931,306.886 118.781,307.419 118.781,306.596 C118.781,306.388 117.994,305.6 117.031,304.846 C116.238,304.224 115.833,303.919 115.781,303.971 z M299.781,305.096 C299.328,305.096 298.875,305.176 298.531,305.314 C297.844,305.592 298.406,305.814 299.781,305.814 C301.156,305.814 301.719,305.592 301.031,305.314 C300.687,305.176 300.234,305.096 299.781,305.096 z M119.251,308.471 C119.205,308.59 119.661,309.403 120.657,310.971 C121.881,312.896 124.082,316.59 125.564,319.158 C127.045,321.726 128.415,323.682 128.595,323.502 C129.083,323.013 125.834,316.951 122.939,312.971 C120.886,310.15 119.584,308.581 119.314,308.471 C119.287,308.46 119.258,308.454 119.251,308.471 z M125.657,309.721 C125.441,309.813 126.268,311.934 128.22,316.158 C130.172,320.385 131.782,324.482 131.782,325.252 C131.782,326.021 132.12,326.989 132.532,327.408 C132.945,327.827 133.417,327.203 133.595,326.033 C133.773,324.863 132.267,320.884 130.251,317.189 C127.485,312.12 125.903,309.616 125.657,309.721 z M181.282,312.158 C180.182,312.142 178.382,312.498 177.282,312.971 C174.734,314.066 177.363,314.066 180.782,312.971 C182.792,312.327 182.89,312.182 181.282,312.158 z M173.376,313.439 C172.842,313.43 172.067,313.509 171.032,313.658 C161.75,314.998 139.966,323.813 139.063,326.596 C138.597,328.034 145.237,327.624 149.282,325.971 C153.392,324.292 160.759,322.177 170.282,319.909 L178.282,318.002 L171.407,318.565 C167.642,318.887 161.591,319.99 157.938,321.002 C154.286,322.015 151.167,322.7 151.001,322.534 C150.417,321.949 163.337,317.091 168.532,315.94 C173.517,314.835 175.689,313.481 173.376,313.44 z M83.032,314.596 C83.323,314.546 83.601,314.727 83.845,315.158 C84.363,316.075 87.147,318.514 90.032,320.596 C96.548,325.297 99.484,328.259 103.563,334.19 C107.394,339.757 107.612,343.234 104.313,346.534 C96.459,354.388 79.855,341.361 79.563,327.128 C79.447,321.45 81.463,314.863 83.032,314.597 z M191.782,317.096 C191.329,317.096 190.876,317.176 190.532,317.314 C189.845,317.592 190.407,317.814 191.782,317.814 C193.157,317.814 193.72,317.592 193.032,317.314 C192.688,317.176 192.235,317.096 191.782,317.096 z M172.782,322.096 C172.329,322.096 171.876,322.176 171.532,322.314 C170.845,322.592 171.407,322.814 172.782,322.814 C174.157,322.814 174.72,322.592 174.032,322.314 C173.688,322.176 173.235,322.096 172.782,322.096 z M165.845,324.096 C166.192,324.081 166.609,324.139 166.97,324.283 C167.767,324.602 167.51,324.86 166.345,324.908 C165.291,324.951 164.7,324.709 165.032,324.377 C165.198,324.211 165.497,324.11 165.845,324.096 z M118.939,334.408 C119.283,334.315 120.1,334.609 121.032,335.22 C126.194,338.602 147.021,340.355 153.376,337.939 C156.801,336.637 157.265,337.159 160.158,345.064 C161.45,348.597 163.896,354.395 165.564,357.97 L168.595,364.47 L164.439,366.407 C159.62,368.641 145.715,369.471 139.158,367.907 C135.699,367.083 134.755,366.278 133.22,362.876 C132.217,360.651 128.568,353.597 125.095,347.188 C121.623,340.779 118.783,335.113 118.783,334.626 C118.783,334.504 118.824,334.438 118.939,334.407 z M336.819,339.533 C345.71,339.463 349.117,341.171 351.475,346.814 C352.821,350.036 352.863,360.207 351.537,361.533 C351.34,361.729 348.263,361.437 344.693,360.845 C339.384,359.965 337.061,360.057 331.912,361.376 C323.964,363.413 324.781,363.497 319.912,359.97 C314.852,356.305 314.371,352.49 318.319,347.314 C322.404,341.958 328.008,339.602 336.819,339.533 z M109.939,346.189 C111.245,346.214 112.541,347.717 115.064,351.064 C118.154,355.164 118.444,357.576 116.22,360.751 C114.957,362.554 113.777,362.955 109.97,362.845 C103.104,362.646 100.646,362.037 97.282,359.658 C93.29,356.833 89.048,352.152 88.469,349.939 C88.033,348.272 88.192,348.275 91.126,350.064 C92.939,351.169 96.109,351.968 98.626,351.97 C102.218,351.973 103.552,351.418 106.282,348.689 C107.905,347.065 108.922,346.169 109.938,346.189 z M339.439,363.001 C340.372,362.99 341.385,362.997 342.501,363.001 C352.691,363.03 353.348,363.165 355.001,365.438 C356.997,368.184 357.529,372.791 356.439,378.219 C355.858,381.11 355.996,381.969 357.064,381.969 C359.131,381.969 360.798,386.519 360.095,390.219 C358.781,397.131 355.081,401.625 348.407,404.375 C344.185,406.115 343.315,406.173 337.063,404.938 C331.305,403.8 329.053,402.426 327.282,399 C325.051,394.687 325.419,392.114 328.719,389.031 C332.423,385.572 338.326,383.885 347.563,383.656 C351.521,383.559 354.746,383.131 354.751,382.719 C354.767,381.414 336.452,382.006 332.439,383.438 C329.083,384.634 328.275,384.587 325.782,383.156 C322.889,381.496 319.782,376.316 319.782,373.156 C319.782,370.248 322.46,367.331 327.22,365.094 C330.501,363.551 332.907,363.075 339.439,363 z M97.379,363.22 C97.742,363.167 98.287,363.246 99.035,363.501 C103.194,364.918 114.511,365.206 116.879,363.938 C118.874,362.871 119.412,363.016 121.441,365.376 C124.172,368.55 125.204,372.058 124.379,375.345 C123.296,379.658 116.823,379.306 107.879,374.438 C101.095,370.746 94.835,363.586 97.379,363.219 z M169.691,368.251 C170.32,368.162 170.784,368.38 170.784,368.813 C170.784,369.383 168.268,370.767 165.222,371.907 C161.189,373.416 157.454,373.953 151.472,373.907 C142.598,373.839 139.994,373.175 137.722,370.407 C136.369,368.759 136.476,368.681 138.784,369.376 C145.928,371.526 162.396,371.017 169.034,368.438 C169.279,368.343 169.481,368.28 169.691,368.251 z M172.097,372.188 C172.142,372.185 172.184,372.202 172.191,372.219 C172.24,372.359 176.643,381.244 181.972,391.969 C187.301,402.694 194.132,417.164 197.16,424.125 C203.079,437.737 212.373,456.499 215.754,461.625 L217.848,464.782 L212.754,465.875 C205.928,467.339 197.118,467.199 192.442,465.532 C190.338,464.782 188.497,464.001 188.348,463.813 C188.199,463.625 184.796,457.394 180.785,449.969 C176.775,442.544 171.132,432.194 168.254,426.969 C165.377,421.744 160.625,412.744 157.692,406.969 C154.759,401.194 149.728,391.82 146.504,386.125 C143.282,380.43 140.812,375.599 141.004,375.406 C141.197,375.213 144.175,375.48 147.629,375.968 C154.571,376.95 164.444,375.765 169.191,373.406 C170.593,372.71 171.784,372.207 172.098,372.187 z M395.627,401.063 C395.696,401.058 395.749,401.051 395.814,401.063 C396.34,401.161 396.755,401.816 397.064,403.001 C397.671,405.319 397.069,405.707 384.783,411.251 C380.123,413.354 372.385,415.958 367.564,417.032 C354.735,419.89 355.149,420.007 353.876,412.782 C353.277,409.381 353.01,406.398 353.251,406.157 C353.493,405.916 356.621,406.526 360.22,407.501 C371.705,410.61 389.233,407.964 393.845,402.407 C394.554,401.553 395.142,401.1 395.626,401.063 z M92.467,407.094 C91.294,407.092 90.129,407.187 88.998,407.376 C90.289,407.443 91.582,407.502 92.873,407.563 C93.027,407.407 93.182,407.275 93.342,407.126 C93.052,407.113 92.757,407.095 92.467,407.094 z M397.747,410.126 C398.134,410.104 398.368,410.156 398.466,410.313 C398.812,410.874 399.307,415.985 399.559,421.657 C400.214,436.37 397.781,447.651 391.184,460.532 C387.506,467.715 387.528,467.685 390.934,484.438 C392.643,492.843 397.099,511.007 399.309,518.563 C399.856,520.433 399.029,520.969 391.591,523.501 C384.208,526.013 381.636,526.375 368.779,526.626 C358.401,526.828 350.966,526.373 342.685,525.063 C330.727,523.171 312.277,517.801 309.935,515.532 C309.201,514.821 308.358,511.579 308.06,508.344 C307.761,505.11 306.991,499.094 306.372,494.969 L305.247,487.469 L301.247,486.313 C299.048,485.674 294.227,484.457 290.497,483.594 C281.636,481.545 272.489,477.839 262.966,472.438 C256.199,468.601 248.497,462.97 249.997,462.97 C253.94,462.97 333.639,455.629 352.117,453.563 C354.234,453.327 357.012,452.152 358.305,450.938 C361.056,448.354 361.019,446.491 357.898,433.969 C355.684,425.084 355.258,420.999 356.523,420.938 C368.482,420.364 380.937,417.334 391.054,412.532 C394.197,411.041 396.582,410.191 397.742,410.126 z M51.247,443.751 C51.289,443.859 51.358,443.956 51.403,444.063 C51.432,444.008 51.467,443.961 51.497,443.907 C51.414,443.854 51.329,443.804 51.247,443.751 z M265.277,477.97 C265.567,477.97 268.402,479.283 271.558,480.876 C278.629,484.445 293.033,488.929 298.496,489.251 C303.063,489.52 302.866,488.975 304.371,505.563 L305.027,512.625 L295.152,514.438 C280.339,517.153 275.206,517.258 268.027,514.938 C264.59,513.827 261.767,512.355 261.777,511.688 C261.788,511.02 262.449,505.969 263.246,500.469 C264.043,494.969 264.697,487.657 264.715,484.219 C264.732,480.781 264.987,477.969 265.277,477.969 z M254.496,512.72 C254.884,512.705 255.219,512.716 255.527,512.72 C257.375,512.741 257.844,513.213 258.183,514.563 C258.471,515.711 259.296,516.686 259.996,516.72 C260.696,516.754 263.859,517.86 267.027,519.188 L272.777,521.595 L269.246,523.282 C264.676,525.461 264.872,525.496 260.777,521.876 C258.852,520.174 255.32,517.51 252.964,515.97 L248.683,513.189 L253.183,512.814 C253.667,512.775 254.108,512.734 254.496,512.72 z M242.184,513.97 C246.89,513.97 251.436,516.745 257.778,523.438 C261.164,527.012 261.187,527.18 259.309,528.563 C256.76,530.441 256.764,530.428 253.278,527.188 C251.628,525.655 247.243,522.413 243.559,520.001 C239.875,517.589 237.092,515.265 237.372,514.813 C237.651,514.362 239.824,513.97 242.184,513.97 z M231.622,515.595 C233.55,515.594 235.091,516.336 238.309,518.438 C241.081,520.249 245.806,523.998 248.809,526.782 L254.278,531.845 L251.372,534.657 C249.785,536.207 248.812,536.879 249.216,536.157 C250.174,534.441 243.777,528.539 233.56,521.719 L225.685,516.469 L229.466,515.813 C230.271,515.67 230.98,515.594 231.622,515.594 z M223.809,516.907 L230.028,521.376 C236.888,526.282 245.778,534.434 245.778,535.845 C245.778,536.34 244.766,537.013 243.528,537.345 C239.851,538.331 238.072,538.061 236.622,536.314 C234.396,533.632 224.713,526.746 218.372,523.345 L212.497,520.189 L218.153,518.564 L223.809,516.907 z M304.028,517.657 C304.523,517.639 305.688,518.095 307.028,518.845 C308.816,519.844 314.553,522.174 319.778,524.032 C329.422,527.463 335.864,532.068 340.934,539.188 L342.903,541.969 L338.091,541.938 C334.036,541.892 332.924,541.429 331.059,539.063 C328.501,535.817 310.254,521.613 306.371,519.844 C304.932,519.188 303.778,518.296 303.778,517.844 C303.778,517.731 303.863,517.663 304.028,517.657 z M293.559,518.438 C295.903,518.327 297.707,518.869 301.184,520.407 C308.207,523.513 317.578,530.179 326.465,538.407 C333.032,544.487 333.747,544.871 339.59,545.532 C344.061,546.038 345.778,545.917 345.778,545.063 C345.778,542.749 342.478,537.402 338.403,533.094 L334.278,528.719 L337.278,529.438 C338.928,529.831 345.788,530.479 352.528,530.876 C364.403,531.574 364.883,531.68 368.028,534.657 C374.091,540.396 378.534,541.3 386.934,538.438 C392.575,536.516 395.654,533.711 396.434,529.813 C396.805,527.959 397.917,526.499 399.309,525.969 C400.549,525.498 401.791,524.505 402.09,523.782 C402.924,521.767 409.461,529.711 411.246,534.907 C412.081,537.338 412.632,539.418 412.496,539.532 C411.034,540.759 402.856,544.184 397.277,545.907 C380.444,551.105 357.367,554.838 326.277,557.407 C289.69,560.43 293.407,560.747 290.246,554.657 C286.494,547.429 278.059,538.232 271.746,534.532 C268.398,532.569 264.898,530.974 263.965,530.969 C263.031,530.964 264.174,529.817 266.527,528.407 C270.359,526.11 271.164,525.952 274.34,527.001 C280.004,528.87 291.723,537.279 298.621,544.407 L304.996,550.969 L321.808,550.969 L320.214,547.875 C316.769,541.213 303.58,529.631 291.276,522.469 L286.276,519.563 L290.964,518.751 C291.945,518.583 292.776,518.475 293.558,518.438 z M114.469,518.657 C114.428,518.681 114.386,518.698 114.344,518.72 C114.326,518.754 114.303,518.778 114.282,518.813 C114.347,518.753 114.397,518.723 114.469,518.657 z M284.529,520.188 L290.404,523.907 C297.234,528.226 314.779,544.552 314.779,546.595 C314.779,547.358 313.992,547.993 313.029,548.001 C312.067,548.009 310.379,548.231 309.279,548.501 C307.783,548.869 305.011,546.774 298.279,540.22 C292.131,534.234 287.14,530.382 282.529,528.064 C278.817,526.198 275.779,524.355 275.779,523.939 C275.779,523.523 277.747,522.509 280.154,521.689 L284.529,520.189 z M92.119,521.22 C92.113,521.222 92.144,521.251 92.151,521.251 C92.166,521.243 92.166,521.216 92.182,521.22 C92.156,521.227 92.158,521.204 92.119,521.22 z M211.839,521.376 C212.061,521.378 212.244,521.399 212.402,521.438 C215.955,522.33 229.21,531.634 233.183,536.032 C237.062,540.326 237.95,540.61 244.089,539.438 L247.901,538.688 L245.276,542.563 C243.832,544.692 242.118,546.772 241.464,547.188 C240.809,547.604 237.264,547.962 233.589,547.97 C227.751,547.983 226.806,547.738 226.245,545.97 C225.207,542.7 215.063,532.37 210.995,530.439 C208.935,529.46 205.251,528.124 202.776,527.47 L198.276,526.251 L204.245,523.564 C207.285,522.196 210.29,521.358 211.839,521.376 z M28.559,525.095 C28.431,525.109 28.205,525.258 27.872,525.563 C27.221,526.161 26.418,528.298 26.091,530.313 C25.7,532.722 25.878,533.969 26.622,533.969 C27.244,533.969 27.778,532.668 27.778,531.063 C27.778,529.458 28.047,527.321 28.403,526.313 C28.706,525.455 28.773,525.071 28.559,525.094 z M463.869,526.063 C462.488,526.022 460.239,526.548 456.807,527.657 L451.619,529.345 L454.932,530.532 C457.897,531.616 462.979,531.518 465.026,530.313 C465.438,530.071 465.776,528.975 465.776,527.907 C465.776,526.697 465.251,526.104 463.87,526.063 z M445.807,527.97 C444.74,527.97 443.616,528.419 443.276,528.97 C442.936,529.52 441.669,529.986 440.464,530.001 C438.842,530.02 439.316,530.518 442.276,531.876 C446.915,534.003 447.776,533.753 447.776,530.407 C447.776,528.657 447.199,527.969 445.807,527.969 z M197.467,528.001 C201.366,527.969 210.307,531.882 214.498,535.47 C216.734,537.383 220.16,541.386 222.123,544.345 C225.622,549.616 225.807,549.725 231.561,550.376 C234.79,550.741 238.269,550.732 239.28,550.344 C240.805,549.759 240.974,549.965 240.28,551.563 C239.82,552.621 239.242,555.157 238.998,557.219 L238.561,560.969 L231.905,561.063 C219.133,561.234 215.626,560.813 210.186,558.407 C207.172,557.074 204.058,555.97 203.248,555.97 C201.477,555.97 201.291,559.106 202.967,560.782 C204.401,562.216 204.825,562.281 196.779,559.751 C188.536,557.158 184.5,555.201 180.185,551.657 C176.13,548.326 175.863,545.63 179.029,540.938 C181.758,536.895 194.393,528.025 197.467,528 z M393.377,528.188 C396.023,528.143 394.942,530.853 390.752,533.626 C384.964,537.456 378.45,537.83 373.283,534.626 C368.697,531.782 368.199,532.023 381.783,530.095 C385.908,529.509 390.521,528.764 392.033,528.407 C392.566,528.281 392.999,528.195 393.377,528.188 z M19.967,528.219 C19.777,528.295 19.78,528.908 19.78,530.126 C19.78,531.514 20.069,532.947 20.436,533.313 C22.815,535.692 23.47,532.51 21.217,529.532 C20.509,528.596 20.157,528.144 19.967,528.219 z M432.277,529.969 C430.469,529.969 430.332,531.149 431.965,532.782 C433.579,534.396 433.777,534.3 433.777,531.969 C433.777,530.858 433.111,529.969 432.277,529.969 z M261.397,533.001 C265.171,532.99 273.826,538.632 278.959,544.47 C282.932,548.987 289.405,559.955 288.116,560.001 C287.651,560.017 287.947,560.388 288.772,560.813 C290.345,561.624 329.247,560.654 341.21,559.501 L348.147,558.813 L342.803,563.657 C336.04,569.755 330.218,570.984 325.928,567.251 C320.512,562.537 315.229,563.332 317.585,568.501 C318.23,569.917 318.772,571.283 318.772,571.532 C318.772,572.378 317.281,571.802 313.272,569.407 C308.703,566.677 305.772,566.313 305.772,568.469 C305.772,570.857 301.804,571.217 282.491,570.688 C269.646,570.336 261.756,569.638 255.772,568.282 C245.448,565.942 242.978,564.686 242.147,561.376 C240.075,553.12 253.707,533.022 261.397,533.001 z M142.367,539.969 C138.84,539.969 137.138,541.17 138.211,542.907 C138.856,543.951 144.381,542.37 145.305,540.876 C145.611,540.38 144.292,539.969 142.367,539.969 z M159.242,540.032 C158.473,540.061 157.416,540.195 156.117,540.438 C153.26,540.974 152.839,541.343 153.774,542.469 C154.75,543.646 155.46,543.604 158.43,542.188 C161.423,540.761 161.551,539.945 159.242,540.032 z M166.836,543.094 C167.184,543.08 167.6,543.138 167.961,543.282 C168.759,543.601 168.501,543.859 167.336,543.907 C166.282,543.95 165.691,543.708 166.024,543.376 C166.19,543.21 166.489,543.109 166.836,543.094 z M163.274,543.969 C164.099,543.969 164.774,544.16 164.774,544.376 C164.774,544.592 164.099,545.028 163.274,545.344 C162.449,545.661 161.774,545.471 161.774,544.938 C161.774,544.405 162.449,543.969 163.274,543.969 z M171.836,545.094 C172.184,545.08 172.6,545.138 172.961,545.282 C173.759,545.601 173.501,545.859 172.336,545.907 C171.282,545.95 170.691,545.708 171.024,545.376 C171.19,545.21 171.489,545.109 171.836,545.094 z M410.676,546.126 C412.469,546.144 412.015,547.608 410.364,550.782 C408.31,554.728 404.893,557.568 399.426,559.907 C393.337,562.512 391.936,562.516 394.269,559.938 C395.988,558.04 396.02,557.814 394.457,556.251 C392.894,554.687 392.306,554.721 385.519,556.719 C381.526,557.895 377.369,559.18 376.269,559.594 C374.576,560.232 374.45,560.124 375.488,558.844 C376.347,557.786 376.382,557.019 375.644,556.282 C374.907,555.544 377.22,554.728 383.332,553.594 C388.132,552.704 396.478,550.442 401.894,548.563 C406.504,546.964 409.281,546.112 410.675,546.126 z M364.582,557.064 C364.87,557.046 365.094,557.05 365.27,557.064 C366.438,557.157 365.116,557.961 361.332,559.532 C354.243,562.475 354.43,562.455 355.676,560.126 C356.254,559.047 358.262,557.989 360.457,557.626 C362.341,557.315 363.719,557.117 364.582,557.064 z M101.022,558.126 C100.83,558.125 100.612,558.139 100.397,558.157 C93.938,558.702 78.772,566.198 78.772,569.126 C78.772,570.476 79.667,570.132 83.116,567.501 C86.751,564.729 95.731,560.62 100.272,559.626 L103.272,558.97 L99.803,561.97 C97.899,563.625 95.761,564.97 95.053,564.97 C94.332,564.97 93.772,566.135 93.772,567.595 C93.772,569.696 94.112,570.04 95.522,569.439 C99.227,567.859 116.662,563.331 116.21,564.064 C115.947,564.489 114.385,565.109 112.741,565.47 C110.781,565.901 109.772,566.765 109.772,567.939 C109.772,569.607 110.161,569.638 115.522,568.376 C118.685,567.632 123.621,567.01 126.491,567.001 C130.723,566.989 131.583,567.254 131.116,568.47 C130.408,570.317 134.443,570.533 138.148,568.845 C140.137,567.939 140.394,567.409 139.554,566.064 C138.668,564.645 137.147,564.452 129.585,564.814 C124.677,565.049 120.747,564.826 120.835,564.345 C121.436,561.056 120.743,560.682 115.022,561.314 C111.86,561.663 108.327,562.213 107.179,562.533 C105.48,563.006 105.108,562.705 105.179,560.814 C105.253,558.838 104.694,558.419 101.554,558.158 C101.381,558.143 101.214,558.128 101.022,558.127 z M177.303,564.001 C176.537,563.994 175.685,564.277 175.334,564.845 C175.042,565.318 175.083,565.969 175.397,566.282 C176.177,567.063 178.772,565.98 178.772,564.876 C178.772,564.305 178.069,564.008 177.303,564.001 z M227.865,566.095 C227.321,566.102 226.829,566.177 226.49,566.314 C225.813,566.588 226.621,566.803 228.271,566.782 C229.921,566.762 230.463,566.536 229.49,566.282 C229.004,566.156 228.409,566.088 227.865,566.095 z M166.177,566.126 C165.768,566.156 165.264,566.221 164.646,566.345 C162.927,566.689 161.015,567.03 160.396,567.095 C159.777,567.16 160.621,567.55 162.271,567.97 C166.988,569.17 167.771,569.081 167.771,567.345 C167.771,566.38 167.404,566.036 166.177,566.126 z M153.583,566.314 C151.081,566.179 146.381,567.575 145.989,568.751 C145.703,569.61 147.112,569.97 150.677,569.97 C154.575,569.97 155.771,569.613 155.771,568.439 C155.771,567.596 155.208,566.709 154.521,566.47 C154.272,566.383 153.941,566.333 153.583,566.314 z M70.427,568.032 C69.506,568.059 68.323,568.244 66.896,568.626 L64.521,569.282 L66.771,570.501 C69.466,571.943 72.771,571.329 72.771,569.376 C72.771,568.448 71.962,567.989 70.427,568.032 z M56.677,568.407 C56.598,568.411 56.507,568.446 56.427,568.47 C55.785,568.664 54.033,569.076 52.521,569.407 C51.008,569.739 49.771,570.462 49.771,571.001 C49.771,572.05 57.019,572.378 58.021,571.376 C58.923,570.474 57.867,568.35 56.677,568.407 z M452.427,568.97 C450.41,568.97 448.771,569.402 448.771,569.939 C448.771,570.499 450.154,570.669 452.021,570.314 C456.578,569.446 456.713,568.97 452.427,568.97 z" fill="#000000"/>
    </g>
  </g>
</svg>
