<?xml version="1.0" encoding="UTF-8" standalone="no"?>
<!-- Generator: Adobe Illustrator 13.0.1, SVG Export Plug-In . SVG Version: 6.00 Build 14948)  -->
<svg
   xmlns:dc="http://purl.org/dc/elements/1.1/"
   xmlns:cc="http://creativecommons.org/ns#"
   xmlns:rdf="http://www.w3.org/1999/02/22-rdf-syntax-ns#"
   xmlns:svg="http://www.w3.org/2000/svg"
   xmlns="http://www.w3.org/2000/svg"
   xmlns:sodipodi="http://sodipodi.sourceforge.net/DTD/sodipodi-0.dtd"
   xmlns:inkscape="http://www.inkscape.org/namespaces/inkscape"
   version="1.0"
   x="0px"
   y="0px"
   width="170"
   height="167"
   viewBox="0 0 170 167"
   enable-background="new 0 0 170 167"
   xml:space="preserve"
   id="svg2"
   sodipodi:version="0.32"
   inkscape:version="0.46"
   sodipodi:docname="tweettweet.svg"
   inkscape:output_extension="org.inkscape.output.svg.inkscape"
   style="display:inline"
   inkscape:export-filename="C:\Users\Valerie\Documents\tweettweet.png"
   inkscape:export-xdpi="132.35294"
   inkscape:export-ydpi="132.35294"><metadata
   id="metadata44"><rdf:RDF><cc:Work
       rdf:about=""><dc:format>image/svg+xml</dc:format><dc:type
         rdf:resource="http://purl.org/dc/dcmitype/StillImage" /></cc:Work></rdf:RDF></metadata><defs
   id="defs42"><inkscape:perspective
   sodipodi:type="inkscape:persp3d"
   inkscape:vp_x="0 : 83.5 : 1"
   inkscape:vp_y="0 : 1000 : 0"
   inkscape:vp_z="170 : 83.5 : 1"
   inkscape:persp3d-origin="85 : 55.666667 : 1"
   id="perspective46" />
	
	
	
	

	
	
	
	
	
	
</defs><sodipodi:namedview
   inkscape:window-height="669"
   inkscape:window-width="1034"
   inkscape:pageshadow="2"
   inkscape:pageopacity="0.0"
   guidetolerance="10.0"
   gridtolerance="10.0"
   objecttolerance="10.0"
   borderopacity="1.0"
   bordercolor="#666666"
   pagecolor="#ffffff"
   id="base"
   showgrid="false"
   inkscape:zoom="2.7664671"
   inkscape:cx="43.430737"
   inkscape:cy="86.334322"
   inkscape:window-x="54"
   inkscape:window-y="81"
   inkscape:current-layer="layer1" />
<g
   inkscape:groupmode="layer"
   id="layer2"
   inkscape:label="Bird"
   style="display:inline"><g
     id="Layer_3">
	<path
   d="M 127.013,110.283 L 130.326,117.463 C 132.535,115.529 137.228,116.358 138.057,117.463 C 138.886,118.567 139.714,120.5 138.333,121.328 C 142.751,122.156 146.342,124.641 145.513,126.299 C 144.684,127.955 142.315,128.547 141.37,128.233 C 140.542,127.956 138.885,127.128 136.676,125.471 C 135.019,125.194 133.363,126.022 131.43,126.575 C 129.497,127.128 127.287,129.614 125.631,129.614 C 123.975,129.614 124.803,127.956 124.803,127.956 L 128.393,124.366 C 124.25,123.815 120.937,122.157 122.041,119.948 C 123.145,117.739 124.803,117.464 126.184,117.739 C 124.803,116.358 123.699,114.149 123.699,114.149"
   id="path5"
   style="fill:#fcd060;stroke:#000000" />
	<path
   d="M 136.953,16.399 C 142.475,10.877 148.274,8.668 149.379,9.496 C 150.484,10.324 149.654,13.638 144.685,21.37 C 139.716,29.102 136.953,16.399 136.953,16.399 z"
   id="path7"
   style="fill:#fcd060;stroke:#000000" />
	<path
   d="M 146.083,23.856 C 154.366,19.162 158.216,17.78 158.768,18.884 C 159.32,19.988 154.902,28.825 149.656,33.243 C 146.065,28.273 146.083,23.856 146.083,23.856 z"
   id="path9"
   style="fill:#fcd060;stroke:#000000" />
	<path
   d="M 138.058,56.162 C 139.162,66.379 139.439,74.111 138.334,81.842 C 137.23,89.574 129.774,105.865 127.013,110.283 C 124.252,114.701 118.178,119.394 116.244,119.947 C 114.31,120.5 114.034,119.119 114.034,119.119 C 114.034,119.119 108.825,124.357 102.75,124.357 C 102.75,124.357 100.5,124.607 97.191,124.918 C 93.878,125.746 81.175,128.232 77.31,128.508 C 73.445,128.784 67.093,130.717 67.093,130.717 C 67.093,130.717 58.258,133.754 54.944,140.106 C 51.63,146.458 48.869,155.844 45.832,160.54 C 45.832,160.54 42.242,165.509 38.929,164.958 C 35.616,164.405 32.578,161.921 31.75,157.778 C 27.056,160.54 21.257,159.159 19.6,156.674 C 17.943,154.188 17.115,151.703 19.048,147.008 C 14.63,147.836 11.868,145.629 11.04,142.867 C 11.04,142.867 11.316,139.277 12.973,138.172 C 14.63,137.068 22.085,133.201 26.779,131.27 C 31.473,129.336 40.586,128.233 46.108,117.739 C 51.63,107.247 51.907,98.411 51.907,98.411 C 50.25,93.716 53.84,82.948 59.638,76.321 C 65.436,69.694 77.31,60.475 88.908,55.507 C 92.168,54.025 96.439,53.566 96.439,53.566 C 96.439,53.566 105.265,49.048 107.133,48.432"
   id="path11"
   style="fill:#a6d6ed;stroke:#231f20" />
	<ellipse
   cx="127.108"
   cy="36.919998"
   rx="23.056999"
   ry="22.09"
   id="ellipse13"
   sodipodi:cx="127.108"
   sodipodi:cy="36.919998"
   sodipodi:rx="23.056999"
   sodipodi:ry="22.09"
   style="fill:#a6d6ed;stroke:#000000" />
	<path
   id="path15"
   style="fill:none;stroke:#231f20" />
	<path
   id="path17"
   style="fill:none;stroke:#231f20" />
</g></g>


<g
   inkscape:groupmode="layer"
   id="layer1"
   inkscape:label="Outlines"><line
     style="fill:none;stroke:#000000"
     id="line29"
     y2="122.156"
     x2="132.535"
     y1="117.463"
     x1="130.326" /><path
     style="fill:none;stroke:#000000"
     id="path31"
     d="M 126.25,117.857 C 126.25,117.857 127.289,118.291 128.394,121.328" /><path
     style="fill:none;stroke:#231f20;stroke-linecap:round"
     id="path33"
     d="M 121.49,71.072 C 101.333,80.461 82.832,107.521 77.862,118.843 C 77.586,120.224 77.862,121.88 79.519,122.156 C 81.176,122.433 88.079,124.365 96.363,121.052 C 99.401,119.947 101.334,116.909 101.334,116.909" /><path
     style="fill:none;stroke:#231f20;stroke-linecap:round"
     id="path35"
     d="M 115.658,115.779 C 115.33,117.125 113.917,119.189 113.917,119.189" /><path
     style="fill:none;stroke:#231f20"
     id="path37"
     d="M 104.646,124.09 C 99.952,125.194 94.705,123.813 96.362,121.053" /><path
     style="fill:none;stroke:#231f20"
     id="path39"
     d="M 51.75,101.189 C 55.598,91.783 62.955,71.369 96.75,53.501" /></g><g
   inkscape:groupmode="layer"
   id="layer3"
   inkscape:label="Eye"><path
     style="fill:#ffffff;stroke:#231f20"
     id="path20"
     d="M 135.042,22.148 C 132.919,22.233 129.488,23.937 129.667,28.735 C 129.833,33.201 133.5,34.69 134.333,34.69 C 136.835,34.69 139.437,33.017 139.542,28.624 C 139.667,23.357 136.083,22.106 135.042,22.148 z" /><path
     style="fill:#231f20;stroke:#231f20"
     id="path22"
     d="M 136.023,30.911 C 136.906,30.802 138.131,29.667 137.809,27.06 C 137.488,24.455 136.107,23.707 135.464,23.843 C 134.708,24.003 133.287,24.524 133.592,27.625 C 133.878,30.498 135.57,30.968 136.023,30.911 z" /><ellipse
     style="fill:#ffffff"
     sodipodi:ry="1.4170001"
     sodipodi:rx="1.25"
     sodipodi:cy="25.523001"
     sodipodi:cx="136.83299"
     id="ellipse24"
     ry="1.4170001"
     rx="1.25"
     cy="25.523001"
     cx="136.83299" /></g></svg>