<svg id="Layer_1" data-name="Layer 1" xmlns="http://www.w3.org/2000/svg" viewBox="0 0 300 300"><defs><style>.cls-1{fill:#e71900;}</style></defs><title>tiger-04</title><path class="cls-1" d="M220.7,113.2c-4.7-2.3-11.3-3.8-12.2-8.9-.6-3.4-5.8-18.4-10.3-24.8-3.2-4.5-6.6-9-11-11.4,2.1-8.2,8-37.2-11.2-45-13.4-5.4-30.6-2-40.9,8.3-8,8-18.5,29.6-22.1,42.8a22.48,22.48,0,0,1-8.6,12.1,5.42,5.42,0,0,0-1.8,7.5,5.36,5.36,0,0,0,4.7,2.6,6,6,0,0,0,2.9-.8A32.57,32.57,0,0,0,123.6,77c3.4-12.5,13.3-32,19.3-37.9,8.1-8.1,21-9.1,29-5.9,4.7,1.9,6.5,7.4,6.8,13.5a58,58,0,0,1-.9,12.6,70.23,70.23,0,0,1-1.7,7.6.37.37,0,0,1-.1.3c-5.5,2.4-9.4,8.9-12.5,13.2a91.76,91.76,0,0,0-7.7,13.4c-5.3,3.5-21.7,15.1-18.7,20,2.3,3.7,6.9,2.3,10,.8-1.6,4-2.9,7.2-4.1,8.9-4,6-11.5,14.8-16.8,23.3S111,171.3,111,171.3a76.43,76.43,0,0,0-21.2,2.4c-.7-6.4-4-20.1-18.5-13.9-15.7,6.7-6.5,19-3.1,22.8-13.4,8.3-16.8,18-18.5,25.3-4.2,18,17.8,28,17.8,28s-5.8-7.6-5.2-13.3c.8-7.8,8.7-7.9,9.3-9.8.9-2.9-5.5-5.2-4-12,2.4-11,30.8-8.2,30.8-8.2h.1L87.2,209.8l19.6,4.2-3.2-20.6.9.1s19.6,4.8,21.8,14.3c1.7,7.5-2.8,6.3-2.8,9.3s9.2,5.3,5.5,16.8S112.6,244,112.6,244s29.8,5.7,38-9.5c4-7.3,4-7.5,4-7.5s30.4,34.8,39.5,30.5C206.7,252,179,215,168,206.3s-10.5-8.7-10.5-8.7,12.8-11,28.3-44.6c9.2-20.1,7.8-26.8,10.6-28.2,4.4-2.3,28.8,20.3,37.2,11.8C239.6,130.5,225.3,115.5,220.7,113.2Z"/><path class="cls-1" d="M74.8,237.8c-2,.3-20.1,16.9-8.6,20.1,6.8,1.9,25.3-8.6,23.8-16C89,237.2,78.8,237.2,74.8,237.8Z"/><path d="M98.5,194.1a26.76,26.76,0,0,0-6.6,6.4,37.37,37.37,0,0,0-3.6,6.5l3.1-.3a45.49,45.49,0,0,1,2-5.2A47.86,47.86,0,0,1,98.5,194.1Z"/><path d="M103.5,195.8s.8,4.1,1.3,7a48.63,48.63,0,0,1,.5,6.8l2.6,1.4s-.8-5.8-1.5-8.3A41.43,41.43,0,0,0,103.5,195.8Z"/><path d="M87.4,210.1s2.5-1.4,7.3-1.3a17.69,17.69,0,0,1,12.3,5.4,18.45,18.45,0,0,0-7,.1,13.64,13.64,0,0,0-5,2.8,11.94,11.94,0,0,0-2.6-4.2A33.35,33.35,0,0,0,87.4,210.1Z"/><path d="M69.7,216.2l2.1,1s-1.5,1.4-1.3,2.2,1.6,3.5,12,4c6.1.3,10.8-3.9,10.8-3.9l1,1.9s-2.8,3.2-9,3.6c-3.8.2-10.6-1-14-3.8S69.7,216.2,69.7,216.2Z"/><path d="M96.4,222.3l1.4-1.9s4.5,6.1,10.3,7.4,11.1-.1,12.1-1c2.6-2.4,2.6-4.4,2.6-4.4l2.6-.8a5.21,5.21,0,0,1-.4,2.3c-.5,1.1-2.9,4.4-9.1,4.9a30,30,0,0,1-13.1-1.7A23.3,23.3,0,0,1,96.4,222.3Z"/><path d="M89.2,238.8l4.2-1.1,3.8,1.7a29.18,29.18,0,0,1-.7,4.8c-.7,1.9-4.2,2.8-4.2,2.8s-2.6-1.4-3.3-2.9S89.2,238.8,89.2,238.8Z"/><path d="M100.8,239.8s14.6,5.4,24.6,5.4c15.7,0,19.9-5.8,19.9-5.8l2.3,1.1a27,27,0,0,1-14.2,5.7c-13.3,1.6-32.6-2-32.6-2Z"/><path d="M56.4,228.3A43.14,43.14,0,0,0,71,236a46.39,46.39,0,0,0,14.1,1.3l-.8,4.2s-9.3-.9-14.2-2.7C59.5,235,56.4,228.3,56.4,228.3Z"/><path d="M75.8,196.2a65.72,65.72,0,0,1,10.4-2.6,28.08,28.08,0,0,1,7.2,0l-1.3,2.2s-3.8-.4-6.1-.4S75.8,196.2,75.8,196.2Z"/><path d="M107.9,197.5a56.21,56.21,0,0,1,5.3,2.2c2.7,1.3,8.2,4.4,8.2,4.4a53.73,53.73,0,0,0-7.3-5.7c-3.3-1.8-6.1-3.2-6.1-3.2v2.3Z"/><polygon points="80.9 197.7 80 200.7 83.2 201.1 84.1 197.8 80.9 197.7"/><path d="M76.1,199s.8,3.5,3.7,4.8c3.4,1.4,7.6-.2,7.6-.2s-4.5,2.6-8.1,1.6-4.9-5.1-4.9-5.1Z"/><polygon points="115.4 203.4 114.3 206.4 117 206.7 117.6 204.1 115.4 203.4"/><path d="M109.7,201.5s1.4,6.7,4.4,8c3.7,1.6,7.6-.6,7.6-.6l1,1a8.65,8.65,0,0,1-8.4.5c-5-2.1-6.1-8.5-6.1-8.5Z"/><path d="M57.8,191.4a24.51,24.51,0,0,0,.9,6.7c1.3,4.2,4.9,7.1,4,8s-4.8.3-6.9-1.6a10.16,10.16,0,0,1-3.3-5,27.19,27.19,0,0,1,2.3-4.3A37.52,37.52,0,0,1,57.8,191.4Z"/><path d="M49.2,211a30.42,30.42,0,0,1,.6-3.5,22.51,22.51,0,0,1,1-3.5s.4,2.2,4.3,5.4c2.8,2.3,7.3,3.4,7.3,4.3s-4.3,2.3-8.3.8S49.2,211,49.2,211Z"/><path d="M49.3,215.2a13.25,13.25,0,0,0,4.6,3.8c4.8,2.6,10,.7,10,2.5,0,1.2-2.5,3.6-6.7,3.8a17.47,17.47,0,0,1-3.8-.2,29,29,0,0,1-2.6-4.3A19.33,19.33,0,0,1,49.3,215.2Z"/><path d="M153.4,204.1a16.06,16.06,0,0,1,1.7,3,20.18,20.18,0,0,1,.9,2.9s-2.7,4.1-6.6,5.8-10.2,1.3-10.5,0c-.3-1.1,5.7-2.7,8.7-5.3A40.81,40.81,0,0,0,153.4,204.1Z"/><path d="M156.2,213.4s.3,1.9.5,4.2a35.53,35.53,0,0,1,0,4.9,15.63,15.63,0,0,1-6.7,4c-3.3.9-11.7.6-11.9-.5-.3-1.4,9-4.4,12.8-6.9A24.55,24.55,0,0,0,156.2,213.4Z"/><path d="M156.1,225.5a52.2,52.2,0,0,1-2.5,6.5,32.11,32.11,0,0,1-3.2,5.2s-4.5-.6-8-1.5-6.6-2.5-6.6-3.1,6.1-1.1,11.7-2.9A38.27,38.27,0,0,0,156.1,225.5Z"/><path d="M96.6,174.3a16.52,16.52,0,0,1,2.5-.5c1.1-.2,3.7-.5,3.7-.5a53.69,53.69,0,0,0-4.4,6.6c-1.9,3.3-3.3,7-4.9,7.3-2.3.4-.4-5.5.5-7.9A30.43,30.43,0,0,1,96.6,174.3Z"/><path d="M106.3,173.1a16.06,16.06,0,0,1,2.4,0c1.3.1,3.2.2,3.2.2s-4.9,6.7-6.2,8.7c-2.7,4.2-4.7,9.3-7.2,9.1-2.3-.2.9-6.5,2.7-9.8S106.3,173.1,106.3,173.1Z"/><path d="M115.1,173.6l2.3.4c1.1.2,2.7.6,2.7.6s-5.1,6.8-7.1,9.7-5.2,8.5-7.2,8.2c-3.1-.4,2-9.1,4.2-12.5A48.49,48.49,0,0,1,115.1,173.6Z"/><path d="M122.7,175.6a12.3,12.3,0,0,1,2.5,1c1.5.8,2.9,1.6,2.9,1.6s-2.6,3.7-4.8,6.2c-1.9,2.3-5.5,5.6-6.6,5.6-2.5,0,1.3-6.6,2.8-9.2S122.7,175.6,122.7,175.6Z"/><path d="M71.8,182.8a11.28,11.28,0,0,1-6.5-9.8c-.5-6.5,4.3-10.1,10.4-10.1s11.1,2.6,11.1,9.6a12.08,12.08,0,0,1-1,5l6.3-2.3a13.58,13.58,0,0,0,.3-2.9c0-10.9-7.3-15.4-16.9-15.2-9.3.2-16.9,6.8-16.9,15.2A14.94,14.94,0,0,0,67,185.4Z"/><path d="M152.8,169c-9.3,0-17.1,6.8-17.4,15.6l6.3,3.3a12.65,12.65,0,0,1-.3-2.8c0-6.8,5.8-11.4,12-11.4,4.8,0,10.2,4.6,10.2,11.4s-3.4,11.5-10.7,12a9.88,9.88,0,0,1-5.1-.9l1.9,5a16.55,16.55,0,0,0,3.2.3c9.5,0,17.1-5.1,17.1-16.2C169.9,176.3,162.2,169,152.8,169Z"/><path d="M87.9,249.8l3.1.9a29.86,29.86,0,0,1-8.9,9,43.89,43.89,0,0,1-10.6,5.5s-.1,1.1-.3,2.7c-.5,3.5-3,8.2-3,8.2s-1.8-4.9-2.2-6.9a30,30,0,0,1-.4-4.8s5.9-1.3,8.6-2.8C81.9,257.6,87.9,249.8,87.9,249.8Z"/><path d="M58.2,263.3l4,1.6s-1.3,3-2,4.4-2.3,4.3-2.3,4.3a19.72,19.72,0,0,1-.4-4.4A37.91,37.91,0,0,1,58.2,263.3Z"/><path d="M56.4,261l-8.1,6.5a32.15,32.15,0,0,1,2.3-6.1,26.34,26.34,0,0,1,4.8-6.7l13.4-13.6,3.4,1.4L59.1,254.6a10.23,10.23,0,0,0-2.6,4.1A4.37,4.37,0,0,0,56.4,261Z"/><path d="M159.1,234v-5.7s10.4,13.3,14.6,17.5S189,259.2,189,259.2l-1.5,1.8a224.28,224.28,0,0,1-17.3-14.8C166.9,242.9,159.1,234,159.1,234Z"/><path d="M189.8,263.8l1.9-1.9,3.3,4.9a3.87,3.87,0,0,0,1.5,1.6,5.46,5.46,0,0,0,2.1.4,11.61,11.61,0,0,1-.3,4.7,17.22,17.22,0,0,1-3.6,6.9s-.1-3.7.1-5.4.3-3.4.3-3.4-1.9-2.7-2.5-3.6S189.8,263.8,189.8,263.8Z"/><path d="M200.6,267.2l1.8-3.9a15.38,15.38,0,0,1,3,6.2,13.47,13.47,0,0,1-.2,8s-1.8-5.5-2.7-7.2A16.13,16.13,0,0,0,200.6,267.2Z"/><path d="M191.8,235.1l2.8-.3.4,2c.8,3,3.2,5.3,5.6,8.9S206,258,206,258a6.44,6.44,0,0,1,3.1,1.7c1.4,1.4,2.7,5.7,2.7,5.7s-2.4-2.6-4.2-2.9a25.91,25.91,0,0,0-3.7-.3,62.51,62.51,0,0,0-2.1-7.4c-.8-1.7-1.8-3.7-2.6-5-1.1-1.8-.5-2.9-1.9-4.2a45.72,45.72,0,0,1-4.8-6.5A12.08,12.08,0,0,1,191.8,235.1Z"/><path d="M166.6,207.5l2.4-3.4a16.18,16.18,0,0,1,3.3,3.3c2.8,3.6,4.3,6.6,6.6,9.5s4.4,5,6.4,7.5a80.48,80.48,0,0,1,5,7.5l-.7,1.2s-8-10.4-11.5-13.9S166.6,207.5,166.6,207.5Z"/><path d="M169.9,197.7s8.5-14,10.8-19.3,4.8-11.3,6.7-15.2,4.3-7.6,5.6-11.1c1.1-2.9,7.1-19.1,7.1-19.1a140.27,140.27,0,0,1-4.5,23.7c-1,3.3-3.5,5.6-6.5,10.3-3.7,5.9-6.8,13.8-9.2,17.9S169.9,197.7,169.9,197.7Z"/><path d="M210.2,105.8l2.2-1.4s.4,3.6,3,4.2a5.8,5.8,0,0,0,4.7-1.1l.6,2.6s-1.7,1.9-5.2,1.3S210.2,105.8,210.2,105.8Z"/><path d="M222.8,114.8a3.44,3.44,0,0,1,2.6-1.4c3.3.3,17.9,18.6,20.9,21.6a2.77,2.77,0,0,1,.8,1.8,14.57,14.57,0,0,1,4.8,3c1.1,1.2,1.4,4.6,1.4,4.6a24.78,24.78,0,0,0-5.3-3.5,23.85,23.85,0,0,0-3.7-1.3s.5-3.4-1-5.4C241,131,222.8,114.8,222.8,114.8Z"/><path d="M244.5,146.5l.7-4.4a13.91,13.91,0,0,1,4.4,4.4c1.9,3,1.9,9.3,1.9,9.3s-3.1-5.9-4.3-7.1A14,14,0,0,0,244.5,146.5Z"/><path d="M227.2,142.7l1.8-3.1s3.5,6.8,6,7.7,7.4.3,7.4.3a11.54,11.54,0,0,1,2.2,3.2c1.7,4,0,10,0,10s-.6-1.4-1.2-3.1c-.6-1.9-.2-3.2-.8-4.4s-2-1.5-3.3-2.7a15.46,15.46,0,0,1-1.8-2.1,12.15,12.15,0,0,1-3.9-.5C230.6,147.2,227.2,142.7,227.2,142.7Z"/><path d="M204.9,125.5s3.9,3.6,9.8,8c3.1,2.4,8.2,5.8,8.2,5.8s-1.1,1-10.5-4.4c-4.5-2.5-7.5-4.1-7.5-4.1a10.54,10.54,0,0,1-.3-2.5A9.87,9.87,0,0,1,204.9,125.5Z"/><path d="M127.5,110.3a21.18,21.18,0,0,1,4.9-3.3,10.62,10.62,0,0,1,3.4-.8,29.51,29.51,0,0,1,3.5-2.9c4.8-3.7,12.2-6.4,12.2-6.4l-.9,2.5s-4.9,2.8-7.8,4.8c-4.8,3.3-6.2,6.4-6.2,6.4a12.78,12.78,0,0,1-4.2.8A15.76,15.76,0,0,1,127.5,110.3Z"/><path d="M130.6,118.8a13.13,13.13,0,0,0-3.9.5,35.14,35.14,0,0,0-4.6,1.8,26.79,26.79,0,0,1,4.7-4.8,14,14,0,0,1,5.1-2.4Z"/><path d="M130.1,121.9a15.57,15.57,0,0,0,5.1-.8,52,52,0,0,0,7.9-4.5v2.9s-2.5,1.4-4.6,2.6c-1.6.9-2.6.9-4.8,2.4a83.38,83.38,0,0,0-7.2,6.5,17.21,17.21,0,0,1,.5-2.7A34.33,34.33,0,0,1,130.1,121.9Z"/><path d="M208,98s-5.5-12-10-17.2c-5.7-6.4-9.5-7.8-9.5-7.8l.8-5.3s5.3,3.3,11.3,11.9A47.32,47.32,0,0,1,208,98Z"/><path d="M118,160.1a34.82,34.82,0,0,1,9,3.1c5.7,3,10.4,9.9,10.4,9.9a13.87,13.87,0,0,1,3-2.8,16.17,16.17,0,0,1,3.3-1.8s-2.3-6.2-6.9-10a33.41,33.41,0,0,0-13.7-6.4Z"/><path d="M128.3,143.7a54.37,54.37,0,0,1,19.1,10.1c9,7.2,8.9,9.9,10.1,10.8.7.6,3-1.1,3.4-2.8s-3.6-11.3-10.5-17.5a42.4,42.4,0,0,0-16.1-9s-1.2,1.6-2.8,3.7C130.3,140.9,128.3,143.7,128.3,143.7Z"/><path d="M145.4,119a43.68,43.68,0,0,1,20.4,11.1c7.7,7.6,9.5,10.5,7.5,19.3-.5,2.3-2.6.9-4-1.3-1.2-1.8-6.8-9.3-13-13.8-8.8-6.4-15.7-7.1-15.7-7.1a34.57,34.57,0,0,0,2.6-3.7C144.3,121.5,145.4,119,145.4,119Z"/><path d="M150.5,111.6s.9-3,1.6-4.6l1.8-4.1s7.8,1.6,16.3,9.4c10.6,9.9,12.4,13.2,11.5,18.1-1.3,7.2-3.8-3.7-15.9-12A42.68,42.68,0,0,0,150.5,111.6Z"/><path d="M154.8,96.1s.8-2,1.8-3.9c1.2-2.2,1.7-3.2,1.7-3.2s12.1,2.7,20,9.1,12.5,17.3,9.1,21.5c-3.2,3.9-4.5-9.3-16.6-16.8A52.47,52.47,0,0,0,154.8,96.1Z"/><path d="M163.7,80.2s1.5-2.2,2.6-3.7,2-2.7,2-2.7,11.2,2.4,17.3,8.5c6.6,6.6,10.2,17.3,7.5,19.2s-6.9-9.5-14.9-15.1C173.3,83,163.7,80.2,163.7,80.2Z"/><path d="M182.8,60.3a25.26,25.26,0,0,0,6.3-2s-.5,3.3-.8,4.7-1.1,5.2-1.1,5.2a14,14,0,0,0-5.6-1.2c-4.6-.3-5.7.3-5.7.3s.6-2.2,1-3.9c.2-.7.6-2.8.6-2.8A42.63,42.63,0,0,0,182.8,60.3Z"/><path d="M183.7,46.1c2.7-1,5.5-4.1,5.5-4.1s.3,2.4.4,4a25.23,25.23,0,0,1,0,3,8.88,8.88,0,0,1-5.5,3.2c-3.9.8-5.5.2-5.5.2s.1-1.2.1-2.5-.1-3.1-.1-3.1A15.51,15.51,0,0,0,183.7,46.1Z"/><path d="M182.1,36.4c-3.2,2.1-5.2,2.1-5.2,2.1s-.9-1.7-1.2-2.1-1.1-1.3-1.1-1.3a14,14,0,0,0,3.4-4,24.17,24.17,0,0,0,1.6-6.1,21.28,21.28,0,0,1,3.7,3.1,29,29,0,0,1,2.6,3.6A12.7,12.7,0,0,1,182.1,36.4Z"/><path d="M168.4,32.3a25.87,25.87,0,0,0-3.4-.5c-1.6-.1-3.1-.1-3.1-.1a14.21,14.21,0,0,0,.7-5.2c-.5-3.3-4.1-5.7-4.1-5.7a49.68,49.68,0,0,1,5.5-.2,39.53,39.53,0,0,1,5.2.6,10,10,0,0,1,.6,4.6A25.87,25.87,0,0,1,168.4,32.3Z"/><path d="M146.2,36.4a21.25,21.25,0,0,0-3.2-4.1,28.66,28.66,0,0,0-4.7-3.7,45.53,45.53,0,0,1,4.4-2.9C145,24.5,146,24,146,24a27.63,27.63,0,0,1,4.5,5,13,13,0,0,1,1.6,4.3s-2.6,1.1-3.4,1.5C147.9,35.4,146.2,36.4,146.2,36.4Z"/><path d="M139.8,43s-1.3,1.9-2,3.1-2.3,3.8-2.3,3.8a6.33,6.33,0,0,0-1.8-3.1c-2.9-2.3-8.9-.3-8.9-.3s1.8-3.1,2.7-4.7c1.9-3.1,3.1-4.7,3.1-4.7a6.06,6.06,0,0,1,4.5.2C139.5,39.4,139.8,43,139.8,43Z"/><path d="M131.3,57.7s-1,2-1.7,3.7-2.1,4.9-2.1,4.9a15.16,15.16,0,0,0-4.4-2.1,12.17,12.17,0,0,0-6.6.1s1.2-2.9,1.8-4.5,2.3-5.2,2.3-5.2a6,6,0,0,1,4.5-.6A12.67,12.67,0,0,1,131.3,57.7Z"/><path d="M124.6,73.9a50.52,50.52,0,0,1-3,8.6,30.08,30.08,0,0,1-3.9,6.3s-.5-3.8-2.1-5.4a17.79,17.79,0,0,0-5-3.6s1.3-2.5,1.9-4,1.1-3.2,1.1-3.2a13.6,13.6,0,0,1,4.4-1.1A9,9,0,0,1,124.6,73.9Z"/><path d="M110.2,87.2c3.1,2,2.5,6.6.7,8.1a5.75,5.75,0,0,1-7.4-.2,5.48,5.48,0,0,1-.7-7.2C104.3,85.9,107.5,85.4,110.2,87.2Z"/></svg>