<?xml version="1.0" encoding="UTF-8" standalone="no"?>
<svg xmlns:rdf="http://www.w3.org/1999/02/22-rdf-syntax-ns#" xmlns="http://www.w3.org/2000/svg" height="606pt" width="588pt" version="1.1" xmlns:cc="http://creativecommons.org/ns#" xmlns:dc="http://purl.org/dc/elements/1.1/" viewBox="0 0 588 606">
<g>
<path d="m426.57 0c-9.91 2.19-15.971 10.48-21.811 18.1-17.17 2.54-32.209 12.191-49.189 15.491-22.83 3.58-46.11 1.5697-68.55-3.4703-4.12-17.414-19.4-26.916-34.95-27.096-11.35-0.1315-22.83 4.7009-30.22 15.045-12.76-1.859-25.66-2.988-38.54-3.029-16.559-0.05289-33.08 1.6916-49.202 5.9891-5.4744-5.5694-12.37-7.9859-19.211-7.9391-16.202 0.11099-32.092 14.041-28.028 32.639-14.83 12.46-24.441 30.78-26.041 50.1-18.27 8.6-36.669 26.25-35.189 47.92-13.74 15.91-22.961 35.45-25.641 56.4v4.5406c3.3 27.15 31.66 38.69 55.05 44.31 16 89.66 32.73 179.2 49.12 268.8 3.47 19.71 6.88 39.479 10.8 59.109 4.78 9.64 17.239 11.671 26.459 14.661 42.61 10.23 86.68 11.62 130.22 14.43h61.741c46.65-2.81 94.31-3.5603 139.43-17.17 7.06-2.71 16.509-5.71 17.809-14.35 14.06-77.82 28.77-155.53 42.55-233.4 5.59-29.75 11.18-59.519 16.28-89.359 20.11-9.18 35.48-27.95 38.54-50.07v-5.3703c-1.15-5.01-2.5006-9.9591-3.6906-14.939 3.98-16.57-2.7387-36.671-21.169-39.631 0.38-11.64-5.8806-22.05-15.141-28.63-0.26-1.05-0.51936-2.1094-0.75936-3.1594-2.46-10.94 2.97-22.68-3.2-32.92-16.42-32.59-51.301-52.49-86.131-59.6-5.62-7.51-11.88-15.11-21.45-17.4z" fill="#fc9f1b"/>
<path fill="#c83737" d="m426.57 0c-9.91 2.19-15.971 10.48-21.811 18.1-4.29 15.96 6.34 36.04 24.3 35.57 7.27-2.31 2.0312 4.74 1.9312 7.5 2.1-4.56 5.4091-8.42 10.739-8.35 13.8-5.66 20.55-21.33 16.18-35.42-5.62-7.51-11.88-15.11-21.45-17.4h-9.8891zm-174.5 3.025c-11.35-0.1315-22.83 4.7009-30.22 15.045-1.67 3.67-3.2106 7.4091-4.6406 11.189-2.45 11.55 0.9306 24.03 8.8906 32.77 3.4 2.55 6.2797 5.7106 8.8297 9.0906 3.09-1.36 6.2406 0.10906 9.2406 0.93906 12.69 3.26 25.63-1.359 34.93-10.059 5.05-7.86 9.3994-16.35 9.2594-25.97-0.43-1.98-0.8591-3.9494-1.3391-5.9094-4.12-17.414-19.4-26.916-34.95-27.096zm174.35 3.0688c9.8835-0.34552 17.131 12.248 11.722 20.686-4.14 8.38-16.7 9.4397-22.65 2.4297-7.24-7.9-1.5712-21.789 8.9188-22.869 0.6794-0.14312 1.3504-0.22384 2.0094-0.24688zm-180.87 4.775c12.208-0.17187 22.112 14.837 15.633 26.002-5.07 12.8-25.07 13.149-31.28 1.0094-6.89-9.96 0.09-24.77 11.8-26.45 1.2966-0.36375 2.584-0.54316 3.8469-0.56094zm-130.65 2.222c-16.204 0.111-32.094 14.041-28.03 32.639 1.45 7.76 6.5294 14.081 12.959 18.411 19.89 10.78 46.09-7.15 40.97-29.8-1.13-4.91-3.8606-9.2209-6.6906-13.311-5.4744-5.5694-12.37-7.9859-19.211-7.9391zm-6.4796 6.0031c9.8835-0.34552 17.131 12.248 11.722 20.686-4.14 8.38-16.7 9.4297-22.65 2.4297-7.24-7.9-1.5712-21.789 8.9188-22.869 0.6794-0.14312 1.3504-0.22384 2.0094-0.24688z"/>
<path fill="#de8787" d="m426.42 6.0938c-0.659 0.023035-1.33 0.10375-2.0094 0.24688-10.49 1.08-16.159 14.969-8.9188 22.869 5.95 7.01 18.51 5.9503 22.65-2.4297 5.41-8.438-1.84-21.032-11.72-20.686zm-180.87 4.775c-1.2629 0.01778-2.5503 0.19719-3.8469 0.56094-11.71 1.68-18.69 16.49-11.8 26.45 6.21 12.14 26.21 11.791 31.28-1.0094 6.4797-11.165-3.4251-26.173-15.633-26.002zm-137.13 8.225c-0.659 0.02304-1.33 0.10375-2.0094 0.24688-10.49 1.08-16.159 14.969-8.9188 22.869 5.95 7 18.51 5.9503 22.65-2.4297 5.4094-8.4375-1.8383-21.031-11.722-20.686z"/>
<path fill="#fcbd50" d="m183.31 15.041c-16.559-0.05289-33.08 1.6916-49.202 5.9891 2.83 4.09 5.5606 8.4009 6.6906 13.311-0.14-4.86 6.7294-3.6906 9.6094-5.0406 22.06-2.87 44.98-5.2006 66.8-0.04063 1.43-3.78 2.9706-7.5191 4.6406-11.189-12.758-1.8594-25.66-2.9886-38.539-3.0297zm274.6 2.359c4.37 14.09-2.3797 29.76-16.18 35.42 2.42 7.68-6.06 14.8-9.25 20.98-8.42 1.26-4.5791-8.8497-1.4891-12.63 0.1-2.76 5.3388-9.81-1.9312-7.5-17.96 0.47-28.59-19.61-24.3-35.57-17.17 2.54-32.209 12.191-49.189 15.491-22.83 3.58-46.11 1.5697-68.55-3.4703 0.48 1.96 0.9091 3.9294 1.3391 5.9094 19.5-0.86 30.91 17.61 41.4 31.33 4.83 9.59-9.8188 2.3312-14.319 2.4312-3.41 5.66-0.5403 22.72-11.12 19.78-0.2-6.85 0.9291-13.65 1.5391-20.45-8.9-2.491-17.84-4.761-26.76-7.121-9.3 8.7-22.24 13.319-34.93 10.059-1.3 6.28-9.8806 5.9409-9.2406-0.93906-2.55-3.38-5.4297-6.5406-8.8297-9.0906-31.84 11.39-63.731 28.781-98.591 25.311-7.19 3.06-19.079-2.2609-22.939-9.0109-5.87-1.83-5.5206-9.3791-4.7406-14.189-6.43-4.33-11.509-10.651-12.959-18.411-14.83 12.46-24.441 30.78-26.041 50.1 0.37 3.07 1.0509 6.1003 1.7109 9.1203 6.01 11.75 18.53 18.271 30.78 21.741 23.69 6.97 49.89 9.6994 73.53 1.1594 20.26-6.78 40.44-15.97 62.18-15.97 38.64-1.16 72.001 23.87 110.31 25.03 32.91 4.12 60.849-20.009 93.469-18.639 26.75 0.01 50.53 16.97 77.5 14.58 14.24-1.31 26.261-11.24 32.731-23.63 0.78-2.42 2.82 0.2 4.2 0.7-2.46-10.94 2.97-22.68-3.2-32.92-16.42-32.59-51.301-52.49-86.131-59.6zm-69.439 22.87c6.92 0.15 11.1 9.8591 15.25 15.139-1.99 12.94-22.85-9.4391-15.25-15.139zm79.875 6.125c7.3082 0.31581 8.945 11.717 12.684 17.675-5.94 12.43-18.629-13.52-13.409-17.67 0.2478-0.01344 0.4893-0.01487 0.725-0.0047zm-113.42 11.255c11.95 1.35 1.3791 15.111-0.6609 21.591-4.66 7.75-11.93-9.7612-5.2-5.7312 1.26-5.54 4.4309-10.379 5.8609-15.859zm145.46 9.3094c12.34 1.26-0.7494 17.79-3.6594 22.82-10.75-2.48 1.6494-16.57 3.6594-22.82zm15.63 0.241c12.01 5.21 23.981 18.811 21.631 33.041-6.45 21.04-35.291 27.819-52.611 19.469-2.16 2.22-7.19 2.6503-7.9-0.87969-10.1-0.6-19.999-2.9191-30.089-3.6891 7.08-4.74 18.359-4.03 27.039-6.45-1.04-3.34-3.9-9.41 1.45-10.4 9.37-2.59 4.0297 9.5688 8.7297 13.619-1.39-8.28 15.471-11.97 20.891-10.15-0.6-1.89-0.2903-4.1591 1.1797-5.5891 9.6-4.45 11.75-18.69 9.6797-28.97zm-127.52 0.04062c6.67 0.37 12.769 5.68 18.809 8.65 4.53 15.11-32.379 0.17-18.809-8.65zm-179 3.1c15.9 1.83-5.4803 17.019-13.07 16.419-7.76-7.3 7.6503-12.879 13.07-16.419zm60.838 7.3516c10.885-0.36159 4.3716 15.922 4.0422 22.548-10.82 7.75-9.54-17.561-5.15-22.461 0.3881-0.04719 0.7567-0.07583 1.1078-0.0875zm-197.08 8.213c9.2466 0.28704 5.4047 15.822 8.6203 21.803-10.75 5.46-11.83-15.58-10.65-21.65 0.7388-0.12375 1.4133-0.17226 2.0297-0.15313zm383.19 0.50313c18.98 3.81-21.311 21.38-17.981 5.15 2.67-6.04 12.281-2.8 17.981-5.15zm-225.08 0.85c5.12 2.16 25.26 9.41 15.55 16.75-4.79-3.36-23.67-8.84-15.55-16.75zm-134.96 1.091c5.97 1.97 22.001 14.59 11.591 20.7-5.71-4.19-20.16-14.02-11.59-20.7zm273.91 1.6906c10.87 1.15 13.7 2.8194 21.65 5.2094 2.02 12.38-11.129 5.1703-16.969 3.8703-5.24 0.69-9.3812-5.7097-4.6812-9.0797zm-191.61 1.6719c10.3-0.43608 2.7438 15.859 1.2344 22.488-12.81 5.04-3.6191-16.07-3.5391-22.17 0.8525-0.18562 1.618-0.28811 2.3047-0.31719zm143.8 1.528c6.72-0.22 26.65 13.639 13.75 16.659-4.93-3.67-24.03-8.9594-13.75-16.659zm95.991 1.0688c15.2 0.46-9.1103 28.22-13.42 15.85 3.43-5.95 9.0703-10.47 13.42-15.85zm-268.07 8.0703c18.17 2.46-19.341 27.911-15.891 9.4609 5.02-3.55 10.331-6.8209 15.891-9.4609zm152.62 8.47c3.5225-0.0125 7.0469 0.004 10.572 0.10938 9.08 13.27-31.63 13.061-21.13-0.0391 3.515-0.015 7.0353-0.0578 10.558-0.0703zm79.522 5.7703c20.5 3.95-25.59 20.14-16.28 2.55 4.58-2.33 11.02-1.1 16.28-2.55zm169.81 6.5891c-9.24 21.2-32.131 32.531-54.491 29.261 15.91 11.34 39.46 7.8091 53.87-4.6109 7.16-6.09 6.4703-20.05 0.6203-24.65zm-517.01 0.94c-4.91 6.71-5.2794 19.201 4.7906 21.791 14.95 6.27 32.23 8.8888 48.13 7.3688-20.73-3.53-34.121-22.28-52.921-29.16zm401.49 13.819c-1.6639-0.0499-3.3925 0.12187-5.2063 0.57187-15.96 1.58-32.391 2.3697-45.631 12.43 27.17 3.85 55.041 2.1094 82.381 1.0594-11.471-2.5112-19.896-13.712-31.544-14.061zm-185.49 0.81c-6.6101 0.008-13.232 0.36813-19.783 0.78438-5.54 1.16-15.12 0.31-18.25 3.3 39.19 3.49 76.861 16.391 115.86 21.111 4.85-1.1 16.65 3.0394 17.8-3.7406-8.84-7.14-21.931-4.4003-32.341-6.8703-11.38 0.13-19.779-8.64-30.709-10.3-10.575-3.3312-21.561-4.2979-32.578-4.2844z"/>
<path fill="#fdcb74" d="m188.1 26.206c-12.604 0.03571-25.285 1.4794-37.694 3.0938-2.88 1.35-9.7494 0.18062-9.6094 5.0406 5.12 22.65-21.08 40.58-40.97 29.8-0.78 4.81-1.1294 12.359 4.7406 14.189 0.1-4.87 11.72-6.1591 7.7-1.0891 5.89 1.99 18.279 0.67 15.239 10.1 34.86 3.47 66.751-13.921 98.591-25.311-7.96-8.74-11.341-21.22-8.8906-32.77-9.5463-2.2575-19.303-3.0809-29.106-3.0531zm102.06 9.7984c-0.5938-0.01014-1.1953-0.0019-1.8047 0.025 0.14 9.621-4.21 18.111-9.26 25.971 8.92 2.36 17.859 4.6303 26.759 7.1203 2.1-3.47 7.9612-3.1097 9.5812 0.67031 4.5-0.1 19.149 7.1588 14.319-2.4312-10.162-13.291-21.188-31.04-39.595-31.355zm-106.84 0.075c7.37 1.08 27.06 1.4006 18.3 12.741-4.6-2.08-26.55-3.4706-18.3-12.741zm-23.59 20.827c10.268 0.32684 1.6547 15.084-0.033 21.834-5.51 6.71-11.8-10.26-4.5703-8.9703 1.06-4.18-0.5694-9.2897 2.2906-12.73 0.86-0.11312 1.628-0.15616 2.3125-0.13438zm356.28 10.294c2.07 10.28-0.08 24.52-9.6797 28.97 7.32-0.25 14.82 0.59969 21.73 3.1297 2.21 14.08-16.779 4.6594-22.909 2.4594-5.42-1.82-22.281 1.87-20.891 10.15 0.34 2.59 0.4803 5.18 0.7703 7.8 17.32 8.35 46.161 1.5712 52.611-19.469 2.35-14.229-9.62-27.83-21.63-33.04zm-41.93 41.491c-8.68 2.42-19.959 1.71-27.039 6.45 10.09 0.77 19.989 3.0891 30.089 3.6891-0.89-3.42-1.8-6.8291-3.05-10.139z"/>
<path fill="#803300" d="m183.32 36.08c-8.25 9.27 13.7 10.661 18.3 12.741 8.76-11.34-10.93-11.661-18.3-12.741zm205.15 4.1906c-7.6 5.7 13.26 28.079 15.25 15.139-4.15-5.28-8.33-14.989-15.25-15.139zm79.875 6.125c-0.2357-0.01019-0.4772-0.0088-0.725 0.0047-5.22 4.15 7.4694 30.1 13.409 17.67-3.7394-5.9578-5.3762-17.359-12.684-17.675zm-26.616 6.425c-5.33-0.07-8.6391 3.79-10.739 8.35-3.09 3.78-6.9309 13.89 1.4891 12.63 3.19-6.18 11.67-13.3 9.25-20.98zm-281.99 4.085c-0.6845-0.02179-1.4525 0.02125-2.3125 0.13438-2.86 3.44-1.2306 8.5497-2.2906 12.73-7.23-1.29-0.9397 15.68 4.5703 8.9703 1.6875-6.75 10.301-21.508 0.033-21.834zm195.19 0.744c-1.43 5.48-4.6009 10.319-5.8609 15.859-6.73-4.03 0.54 13.481 5.2 5.7312 2.04-6.48 12.611-20.241 0.6609-21.591zm-44.816 9.0812c-1.6882 0.08629-3.3266 0.87094-4.2453 2.3891-0.61 6.8-1.7391 13.6-1.5391 20.45 10.58 2.94 7.7103-14.12 11.12-19.78-0.9112-2.1262-3.1654-3.1703-5.3359-3.0594zm190.28 0.22812c-2.01 6.25-14.409 20.34-3.6594 22.82 2.91-5.03 15.999-21.56 3.6594-22.82zm-111.89 0.28125c-13.57 8.82 23.339 23.76 18.809 8.65-6.04-2.97-12.139-8.28-18.809-8.65zm-179 3.1c-5.42 3.54-20.83 9.1188-13.07 16.419 7.59 0.6 28.97-14.589 13.07-16.419zm28.347 0.22812c-0.9709-0.02184-1.9422 0.12656-2.9078 0.55156-0.64 6.88 7.9406 7.2191 9.2406 0.93906-2.0625-0.57062-4.1967-1.4426-6.3328-1.4906zm-127 3.4359c-2.5123-0.02087-6.214 1.5856-6.2703 4.325 3.86 6.75 15.749 12.071 22.939 9.0109 3.04-9.43-9.3491-8.11-15.239-10.1 1.7588-2.2181 0.5244-3.2197-1.4297-3.2359zm159.49 3.6875c-0.3511 0.01166-0.7197 0.04031-1.1078 0.0875-4.39 4.9-5.67 30.211 5.15 22.461 0.3294-6.6262 6.8427-22.91-4.0422-22.548zm-197.08 8.214c-0.6164-0.01914-1.2909 0.02938-2.0297 0.15313-1.18 6.07-0.1 27.11 10.65 21.65-3.2156-5.9812 0.6263-21.516-8.6203-21.803zm383.19 0.50313c-5.7 2.35-15.311-0.89-17.981 5.15-3.33 16.23 36.961-1.34 17.981-5.15zm-225.08 0.85c-8.12 7.91 10.76 13.39 15.55 16.75 9.71-7.34-10.43-14.59-15.55-16.75zm-134.96 1.091c-8.57 6.68 5.8806 16.51 11.591 20.7 10.41-6.11-5.6206-18.73-11.591-20.7zm273.91 1.6906c-4.7 3.37-0.5588 9.7697 4.6812 9.0797 5.84 1.3 18.989 8.5097 16.969-3.8703-7.95-2.39-10.78-4.0594-21.65-5.2094zm-191.61 1.6719c-0.6867 0.02908-1.4522 0.13157-2.3047 0.31719-0.08 6.1-9.2709 27.21 3.5391 22.17 1.5094-6.6281 9.066-22.924-1.2344-22.488zm143.8 1.528c-10.28 7.699 8.82 12.989 13.75 16.659 12.9-3.02-7.03-16.879-13.75-16.659zm95.991 1.0688c-4.35 5.38-9.9903 9.9-13.42 15.85 4.31 12.37 28.62-15.39 13.42-15.85zm90.591 1.8203c-0.9191-0.0043-1.8365 0.0094-2.7515 0.04062-1.47 1.43-1.7797 3.6991-1.1797 5.5891 6.13 2.2 25.119 11.621 22.909-2.4594-6.0463-2.2138-12.544-3.1405-18.978-3.1703zm-31.283 1.8016c-0.6402 0.0024-1.3903 0.11657-2.2687 0.35938-5.35 0.99-2.49 7.06-1.45 10.4 1.25 3.31 2.16 6.7191 3.05 10.139 0.71 3.53 5.74 3.0997 7.9 0.87969-0.29-2.62-0.4303-5.21-0.7703-7.8-4.2594-3.6703-0.2718-14.001-6.461-13.978zm-327.38 4.4484c-5.56 2.64-10.871 5.9109-15.891 9.4609-3.45 18.45 34.061-7.0009 15.891-9.4609zm152.62 8.47c-3.5225 0.0125-7.0428 0.0553-10.558 0.0703-10.5 13.1 30.21 13.309 21.13 0.0391-3.525-0.105-7.0494-0.12188-10.572-0.10938zm79.522 5.7703c-5.26 1.45-11.7 0.22-16.28 2.55-9.31 17.59 36.78 1.4 16.28-2.55z"/>
</g>
<path fill="#ca7f16" d="m110.7 143.31c-20.3-2.24-57.4-10.09-48.16-38.36 6.01 11.75 18.53 18.27 30.78 21.74 23.69 6.97 49.89 9.7 73.53 1.16 20.26-6.78 40.44-15.97 62.18-15.97 38.64-1.16 72 23.87 110.31 25.03 32.91 4.12 60.85-20.01 93.47-18.64 26.75 0.01 50.53 16.97 77.5 14.58 14.24-1.31 26.26-11.24 32.73-23.63 0.78-2.42 2.82 0.2 4.2 0.7 0.24 1.05 0.5 2.11 0.76 3.16-0.31 14.26-13.7 24.07-25.63 29.34-33.52 10.48-65.57-13.27-99.27-8.37-28.42 1.75-54.57 17.7-83.54 14.48-34-1.43-65.3-16.62-98.92-20.3-44.47-3.66-85.2 26.38-129.94 15.08z"/>
<path fill="#784421" d="m563.14 141.71c18.43 2.96 25.15 23.06 21.17 39.63-11.78 16.86-33.61 5.14-49.18 1.57-29.33-10.57-61.19 10.3-89.54-4.5-20.96-9.07-42.56 0.29-62.57 6.72-18.49 6.4-35.97-6.38-54.38-4.72-11.13 2.77-21.05 11.06-33.11 9.31-15.88-2.92-29.54-13.29-45.95-14.14-13.04-1.31-24.42 6.61-37.1 7.78-11.83 1.14-22.34-6.83-34.3-5.35-13.65 0.47-23.84 10.31-35.65 15.67-13.07 4.3-25.07-4.06-36.82-8.3-19.66-8.11-42.63 2.15-61.63-8.37-8.28-3.5-14.39-13.18-10.07-22 26.76 14.32 58.63 15.88 88.3 14.38 31.72-4.04 61.99-18.44 94.47-16.39 42.23 1.13 81.6 21.89 124.15 20.11 33.37 0.88 64.23-17.12 97.72-14.87 29 0.72 56.42 14.52 85.68 11.28 16.34-2.21 32.59-11.98 38.81-27.81m6.4 13.69c-4.85 7.34-12.55 14.64-11.21 24.1 11.3 1.8 17.7-18.77 11.21-24.1m-345.86 11.13c-9.73 1.54-21.39 2.54-29.54 6.25 12.38 5.53 28.59 5.28 39.32-3.54 3-5.85-7.01-2.36-9.78-2.71m-82.29 6.09c-10.18 0.85-20.17 3.13-30.23 4.81 6.51 15.26 28.05 10.1 39.43 2.82 3.1-6.24-4.62-9.17-9.2-7.63m141.17 3.83c-19.78 0.09 16.42 11.09 19.52 4.7-3.3-5.95-13.3-5.07-19.52-4.7z"/>
<path fill="#502d16" d="m0 200.15c2.68-20.95 11.9-40.49 25.64-56.4 2.14 4.18 4.51 8.43 8.37 11.26-4.32 8.82 1.79 18.5 10.07 22 19 10.52 41.97 0.26 61.63 8.37 11.75 4.24 23.75 12.6 36.82 8.3 11.81-5.36 22-15.2 35.65-15.67 11.96-1.48 22.47 6.49 34.3 5.35 12.68-1.17 24.06-9.09 37.1-7.78 16.41 0.85 30.07 11.22 45.95 14.14 12.06 1.75 21.98-6.54 33.11-9.31 18.41-1.66 35.89 11.12 54.38 4.72 20.01-6.43 41.61-15.79 62.57-6.72 28.35 14.8 60.21-6.07 89.54 4.5 15.57 3.57 37.4 15.29 49.18-1.57 1.19 4.98 2.54 9.93 3.69 14.94v5.37c-3.06 22.12-18.43 40.89-38.54 50.07-22.71 5.62-44.98-4.47-66.29-11.14-4.59-1.43-9.18-2.91-13.95-3.6-5.77-0.78-15.86-6.83-17.85 1.68-10.67 23.01 17.08 42.38 6.88 65.52-7.15 7.15-19.22 3.64-25.91-2.44-9.03-11.89-0.97-28.09-6.89-41.23-3.59-11.36-18.02-21.03-29.27-14.28-4.75 1.87-9.58 3.54-14.25 5.58-22.5 8.84-47.61 9.16-70.76 2.73-4.7-1.2-9.42-2.27-14.12-3.44-16.97-5.7-33.4-13.44-50.64-18.01-10.19 10.09-16.6 25.12-13.09 39.52 2.47 11.47 4.67 28.11-9.38 32.96-4.01 0.15-8.02 0.28-12.02 0.36-9.73-0.79-21.63-4.33-24.42-15.06-4.37-16.5 9.55-29.77 10.41-45.64-0.57-8.81-8.44-19.21-18.23-16.66-14.64 3.5-28.71 9.05-42.67 14.62-4.15 1.42-8.26 2.97-12.25 4.81-22.5 7.74-46.93 7.36-69.71 1-23.39-5.62-51.75-17.16-55.05-44.31v-4.54m15.03-22.24c-9.2 15.12-2.84 38.36 15.51 42.49 6.31 3 11.83-3.85 8.86-9.65-4.83-12.9-14.45-23.55-24.37-32.84m555.56 22.56c-5.44 8.47-11.29 18.02-22.03 20.18-23.18 4.19-48.55-8.8-70.53-0.76 26.06 7.11 52.51 20.38 80.08 14.26 14.93-2.73 16.23-24.91 12.48-33.68m-443.02 12.09c-30.42 2.47-59.01 16.62-89.79 15.96 38.21 27.8 81.58-8.19 121.29-11.26-9.92-3.98-20.88-5.56-31.5-4.7m245.02 9c-35.46 4.34-72.26 13.56-107.25 1.57 11.05 10.83 29.19 18.47 45.88 19.74 36.49 0.91 69.92-17.32 106.05-19.49-14.62-3.52-29.81-2.7-44.68-1.82m-168.23 26.8c-6.47 13.53-10.28 30.26-4.51 44.59 2.96 9.46 19.8 7.28 22.61 1.47-19.04-7.37-7.68-35.46-18.1-46.06m238.71 10.65c0.48 9.28 13.78 30.43-2.15 32.75-12.3-5.23 1.29 16.89 8.46 8.96 9.43-11.69 7.79-34.36-6.31-41.71z"/>
<g>
<path fill="#93694d" d="m569.54 155.4c-4.85 7.34-12.551 14.64-11.211 24.1 11.3 1.8 17.701-18.77 11.211-24.1zm-338.81 10.422c-2.4738 0.0975-5.6697 0.88282-7.0547 0.70782-9.73 1.54-21.389 2.54-29.539 6.25 12.38 5.53 28.589 5.2809 39.319-3.5391 1.5-2.925-0.2513-3.5162-2.725-3.4188zm-86.53 6.3953c-0.9875-0.0179-1.9553 0.11438-2.8141 0.40313-10.18 0.85-20.171 3.1294-30.231 4.8094 6.51 15.26 28.051 10.1 39.431 2.8203 2.5188-5.07-2.1067-7.9552-6.3859-8.0328zm144.97 3.961c-2.3622-0.009-4.675 0.15625-6.6187 0.27187-19.78 0.09 16.42 11.09 19.52 4.7-2.2688-4.0906-7.7047-4.9526-12.902-4.9719z"/>
<path fill="#735745" d="m15.03 177.91c-9.2 15.12-2.8391 38.361 15.511 42.491 6.31 3 11.829-3.85 8.8594-9.65-4.83-12.9-14.45-23.551-24.37-32.841zm555.56 22.561c-5.44 8.47-11.291 18.02-22.031 20.18-23.18 4.19-48.55-8.7994-70.53-0.75938 26.06 7.11 52.51 20.379 80.08 14.259 14.93-2.73 16.231-24.91 12.481-33.68zm-437.02 11.863c-2.006-0.0101-4.0087 0.0653-6 0.22656-30.42 2.47-59.011 16.621-89.791 15.961 38.21 27.8 81.581-8.1909 121.29-11.261-8.06-3.2338-16.807-4.883-25.5-4.9266zm258.65 8.4656c-6.5536 0.004-13.119 0.37594-19.625 0.76094-35.46 4.34-72.26 13.56-107.25 1.5703 11.05 10.83 29.19 18.471 45.88 19.741 36.49 0.91 69.92-17.321 106.05-19.491-8.2237-1.98-16.629-2.5859-25.055-2.5812zm-187.86 27.561c-6.47 13.53-10.279 30.261-4.5094 44.591 2.96 9.46 19.799 7.2803 22.609 1.4703-19.04-7.37-7.68-35.461-18.1-46.061zm238.71 10.65c0.48 9.28 13.78 30.43-2.15 32.75-12.3-5.23 1.2894 16.891 8.4594 8.9609 9.43-11.69 7.7906-34.361-6.3094-41.711z"/>
<path fill="#87cdde" d="m182.38 228.18c-0.8796 0.0234-1.7806 0.14843-2.6984 0.38749-14.64 3.5-28.71 9.0503-42.67 14.62 5.9 88.99 15.411 178.01 19.361 266.96-10.58-87.37-21.591-174.71-31.611-262.15-22.5 7.74-46.929 7.36-69.709 1 16 89.66 32.73 179.2 49.12 268.8 88.13 32 189.42 26.61 272.71-16.8 1.38-83.04 6.18-166.23 5.05-249.19-22.5 8.84-47.609 9.1612-70.759 2.7312-6.15 87.8-1.8806 178.41-7.1906 265.47-1.59-89.64-4.35-179.3-6.93-268.91-16.97-5.7-33.401-13.439-50.641-18.009-10.19 10.09-16.599 25.119-13.089 39.519 2.47 11.47 4.6703 28.111-9.3797 32.961 1.37 71.1 3.6288 142.2 5.1688 213.29-7.78-68.75-7.6591-143.45-17.189-212.93-9.73-0.79-21.63-4.3294-24.42-15.059-4.37-16.5 9.5494-29.771 10.409-45.641-0.5166-7.9841-7.0282-17.273-15.531-17.047zm273.99 6c-2.3694 0.14196-4.2537 1.2853-5 4.4766-10.67 23.01 17.08 42.38 6.8797 65.52-7.15 7.15-19.219 3.6409-25.909-2.4391-9.03-11.89-0.9706-28.091-6.8906-41.231-3.59-11.36-18.02-21.03-29.27-14.28-6.35 83.39-11.979 166.88-17.309 250.35-1.19 5.21 6.0294 0.0197 8.2594-0.67031 23.38-13.76 46.86-28.45 65.92-47.93 5.49-70.32 11.22-140.64 16.17-211-3.6062-0.48751-8.901-3.0335-12.85-2.7969zm26.8 6.3969c-10.69 65.94-16.46 132.96-25.37 199.31-1.02 2.89 1.9003 3.0994 3.4703 1.3094 29.54-28.94 53.189-63.37 71.909-100.12 5.59-29.75 11.18-59.519 16.28-89.359-22.71 5.62-44.979-4.4706-66.289-11.141z"/>
<path fill="#37abc8" d="m469.22 236.98c-4.95 70.36-10.68 140.68-16.17 211-19.06 19.48-42.54 34.17-65.92 47.93-2.23 0.69-9.4494 5.8803-8.2594 0.67031 5.33-83.47 10.959-166.96 17.309-250.35-4.75 1.87-9.58 3.5397-14.25 5.5797 1.13 82.96-3.67 166.15-5.05 249.19-83.29 43.41-184.58 48.8-272.71 16.8 3.47 19.71 6.88 39.479 10.8 59.109 4.78 9.64 17.239 11.671 26.459 14.661 42.61 10.23 86.68 11.62 130.22 14.43h61.741c46.65-2.81 94.31-3.5603 139.43-17.17 7.06-2.71 16.509-5.71 17.809-14.35 14.06-77.82 28.77-155.53 42.55-233.4-18.72 36.75-42.369 71.18-71.909 100.12-1.0649 1.2141-2.7483 1.5039-3.4047 0.66562 0.017-0.17908 0.031-0.35867 0.034-0.54531 0.01-0.45351-0.024-0.92969-0.1-1.4297 8.91-66.35 14.68-133.37 25.37-199.31-4.59-1.43-9.18-2.91-13.95-3.6zm-332.21 6.2109c-4.15 1.42-8.26 2.9694-12.25 4.8094 10.02 87.44 21.031 174.78 31.611 262.15-3.95-88.95-13.461-177.97-19.361-266.96zm160.04 7.91c2.58 89.61 5.3397 179.27 6.9297 268.91 5.31-87.06 1.0406-177.67 7.1906-265.47-4.7-1.2-9.4203-2.2706-14.12-3.4406zm-73.109 54.47c-4.01 0.15-8.0203 0.27938-12.02 0.35938 9.53 69.48 9.4091 144.18 17.189 212.93-1.54-71.09-3.7988-142.19-5.1688-213.29z"/>
</g>
</svg>
