<svg id="publicdomainvectors.org" xmlns="http://www.w3.org/2000/svg" viewBox="0 0 631.64 384.96"><defs><style>.cls-1{fill:#ede5db;}.cls-1,.cls-2,.cls-3,.cls-4,.cls-5,.cls-6,.cls-7{fill-rule:evenodd;}.cls-2{fill:#bd6e2e;}.cls-3{fill:#392211;}.cls-4{fill:#e49b63;}.cls-5{fill:#c77a40;}.cls-6{fill:#663e17;}.cls-7{fill:#492b13;}</style></defs><title>cake-02</title><path class="cls-1" d="M289.53,177,51.81,301.76c64.16,24.06,147.11,38.57,237.72,38.57a809.62,809.62,0,0,0,100-6.09L289.53,177Zm71,37.06L621.44,329.37c-44,19.57-99.16,34.22-160.88,41.92Z"/><path class="cls-2" d="M313.78,227.73,413.8,385c61.71-7.7,116.85-22.35,160.87-41.92V181.15L313.78,65.84Z"/><path class="cls-3" d="M574.67,230.64V181.15l-61.2-27.05-81.16,9.68-3.24,4.63c-13.67,22.41-27.34,59.21-41,81.63l22.66,18.2c7.72,6.21,18.81,5.95,27.45-.64l3.33-2.53c6.56-5,14.28-6.41,21.5-3.92l7.54,2.6c8.93,3.08,18.91.06,25.53-7.73l4.5-5.3c6.23-7.33,15.47-10.44,23.92-8.22,8.08,2.11,16.5-.41,22.8-6.83,6.88-7,17.16-9.51,25.77-5.74Z"/><polygon class="cls-4" points="413.8 223.07 413.8 384.96 313.78 227.73 313.78 65.84 413.8 223.07"/><path class="cls-5" d="M413.8,253.66v38l-100-157.56v-38l100,157.57Zm0,57.72-100-157.57v38l100,157.57Z"/><path class="cls-6" d="M313.78,65.84l100,157.23c61.71-7.7,116.85-22.35,160.87-41.92Z"/><path class="cls-2" d="M0,286.65c64.16,24.06,147.12,38.57,237.73,38.57a809.45,809.45,0,0,0,100-6.09V157.24L0,124.76Z"/><path class="cls-5" d="M0,286.65c54.82,20.56,123.37,34.15,198.69,37.66,31.87-12.23,51-31.43,51-55.83,0-56.43-102.12-119.28-228.09-140.39Q10.66,126.26,0,124.94Z"/><path class="cls-7" d="M337.74,207.37V157.24L0,124.76v27.15l6.26,10.31A38.44,38.44,0,0,0,44.94,180.5a37.64,37.64,0,0,1,32.44,10.25A38.21,38.21,0,0,0,116,199.34a37.85,37.85,0,0,1,37.27,7.19,38.22,38.22,0,0,0,40.38,5.78,37.65,37.65,0,0,1,34.41,1.6,38.93,38.93,0,0,0,36.46.64,37.59,37.59,0,0,1,32.94-1A38.38,38.38,0,0,0,337.74,207.37Z"/><path class="cls-3" d="M337.74,207.37V157.24L0,124.76v.18q10.65,1.34,21.58,3.15c82.34,13.8,154.49,45.43,194.59,81.45a39.77,39.77,0,0,1,11.93,4.37,38.93,38.93,0,0,0,36.46.64,37.59,37.59,0,0,1,32.94-1A38.38,38.38,0,0,0,337.74,207.37Z"/><path class="cls-6" d="M237.73,0,0,124.76c64.16,24.06,147.12,38.57,237.73,38.57a811.41,811.41,0,0,0,100-6.09Z"/></svg>