<?xml version="1.0" encoding="UTF-8" standalone="no"?>
<svg xmlns:rdf="http://www.w3.org/1999/02/22-rdf-syntax-ns#" xmlns="http://www.w3.org/2000/svg" height="789pt" width="587pt" version="1.1" xmlns:cc="http://creativecommons.org/ns#" xmlns:dc="http://purl.org/dc/elements/1.1/" viewBox="0 0 587 789">
<g>
<path d="m331.53 0c11.24 13.07 23.14 28.821 21.27 47.141-1.83 12.78-16.23 15.8-26.63 19.1-3.56-10.313-12.5-15.028-21.47-14.891-10.17 0.155-20.38 6.542-22.85 18.07l-0.92-0.02c-17.159 0.06125-34.317-1.156-51.463-1.0594-2.4494 0.01381-4.8981 0.05469-7.3469 0.12969-4.7-9.14-9.14-19.951-20.1-22.641-2.5875-0.94062-5.1756-1.3811-7.7125-1.3937-13.699-0.06854-25.909 12.335-28.508 25.784-30.33 1.45-60.85 23.33-65.32 54.5-2.94 14.35 5.1206 27.13 8.8906 40.32-8.91 1.79-17.03 5.88-25.45 9.1-5.5828-4.9195-11.727-6.9671-17.656-6.8922-19.368 0.24482-36.444 23.14-24.194 42.572-13.16 21.04-23.261 47.81-11.941 71.83-15.78 15.13-26.09 35.43-30.13 56.83v11.841c2.82 16.26 16.57 27.73 31.05 33.92-14.32 20.04 0.29969 41.08 2.5297 62.15 17.24 84.6 33.951 169.3 51.061 253.93 3.42 18.12 7.2597 36.16 10.68 54.28 0.42 13.08 16.47 15.56 26.28 18.78 51.49 11.81 104.65 13.14 157.14 15.62h46.639c54.59-2.61 110.1-3.1203 163.24-17.37 8.03-2.98 19.209-6.0391 19.889-16.289 15.61-77.75 31.451-155.47 46.611-233.31 8.77-37.49 13.25-76.05 24.73-112.83 1.55-10.57-4.3197-19.989-10.03-28.259 7.57-10.15 15.01-20.83 17.18-33.6v-11.64c-1.03-4.12-2.3903-8.1203-3.7703-12.12 6.76-19-6.4503-40.86-27.42-39.63 12.56-24.65 4.5106-53.77-13.659-73.17 5.6794-23.051-14.527-43.48-36.083-43.455-4.9745 0.006-10.021 1.1009-14.837 3.5047-9.66-4.83-19.99-8.0303-30.3-11.17 12.26-29.43 19.56-63.889 4.1297-93.739-21.98-46.87-76.82-63.73-124.84-65.91z" fill="#774a2d"/>
<path d="m331.53 0c11.24 13.07 23.14 28.821 21.27 47.141-1.83 12.78-16.23 15.8-26.63 19.1 0.44 1.93 0.86 3.86 1.25 5.8 13.25-1.43 29.029-5.46 35.389-18.55 5.43-14.89-2.21-29.85-7.75-43.45 27.35 5.33 58.67 26.17 47.67 58.75 16.24 2.44 25.89 22.249 16.27 36.009-7.39 11.88-24.451 12.6-34.841 4.3297-9.95 9.8-23.989 13.4-37.369 15.55 11.51 2.01 20.53 11.61 20.48 23.63 13.48-6.89 22.33-20.629 30.65-31.989 16.86 10.94 12.149 36.39 7.5094 53.08-15.94 39.78-60.49 56.98-99.85 63.17-31.44 3.23-66.13 2.8303-94-14.18-17.56-8.95-37.26-15.511-51.37-29.791-6.8-6.3-3.9594-18.23 5.1906-20.33 20.81-5.32 44.16-6.4697 64.57-2.2797-3.82-15.89 11.149-33.511 27.659-30.931 16.03-0.52 27.06 16.651 24.6 31.541 15.23 1.09 30.33-1.3906 45.48-2.4406-10.25-11.41-7.28-31.37 7.29-37.76-54.67 0.45-108.79-16.159-163.46-8.9094-19.73 2.3-37.341 13.199-48.691 29.369-1.38-29.68 20.11-52.869 46.37-62.889-1.6-4.46-2.5203-9.12-3.4203-13.75-30.33 1.45-60.85 23.33-65.32 54.5-2.94 14.35 5.1206 27.13 8.8906 40.32 0.87 1.27 1.7797 2.5291 2.6797 3.7891 20.35 29.59 50.9 51.261 84.15 64.191 29.74 9.27 60.75 14.23 91.9 14.72 67.07 1.26 139.26-26.931 172.83-88.081 12.26-29.43 19.56-63.889 4.1297-93.739-21.98-46.88-76.82-63.74-124.84-65.92h-8.6906zm102.21 40.25c35.34 28.16 34.42 92.079-1.75 118.66 12.41-38.44 8.91-79.549 1.75-118.66zm-204.27 28.091c-2.4494 0.01381-4.8981 0.05469-7.3469 0.12969-0.16 1.75-0.2203 3.5197-0.4203 5.2797l0.2797 2.6406c19.55-0.32 39.141-0.25062 58.661-1.4906 0.08-1.37 0.2191-4.12 0.2891-5.5-17.159 0.06125-34.317-1.156-51.462-1.0594zm-199.34 213.31c-15.78 15.13-26.09 35.43-30.13 56.83v11.841c2.82 16.26 16.57 27.73 31.05 33.92 7.32-7.74 16.791-13.351 27.541-14.391 33.45-5.44 67.8-23.401 101.58-9.4406-24.48 1.62-46.66 12.65-70.08 18.75 4.79 4.86 8.3694 10.691 11.059 16.931 6.57-0.21 14.921-6.6703 20.091-2.0703 8.28-20.7 33.59-28.96 53.68-21.3 12.57-8.31 25.729 9.08 21.489 21.25 0.46 3.37 1.1112 6.7097 2.0812 9.9797 1.78-4.47 3.6088-8.93 5.6188-13.3 4.98 3.9 2.4112 18.501 10.981 11.091 4.31-36.87 61.089-42.671 76.019-9.7609 6.63 1.85 13.27 3.6206 19.95 5.3406 1.66-3.52 3.4-7.0006 5.1-10.491-18.28-2.92-37.559-7.2303-51.639-20.57 50.3 17.26 101.75-11.989 152.6 0.0906-15.63 1.57-31.12 4.2497-46.2 8.7297 6.6 4.43 11.959 10.391 16.109 17.161 7.39-1.93 16.131-9.8103 23.161-3.2203 13.91-22.23 47.749-25.47 65.759-6.5 10.17 0.62 19.599 5.1791 29.109 8.4391 3.95-6.18 9.0909-11.47 14.961-15.85-14.44-3.08-28.31-8.2491-42.47-12.289 29.31-11.12 77.09 20.23 93.15-20.9 2.69 11.87 1.3697 25.18-7.7203 34 2.34 1.59 4.6206 3.2603 6.8406 5.0203 7.57-10.15 15.01-20.83 17.18-33.6v-11.64c-1.03-4.12-2.3903-8.1203-3.7703-12.12-9.61 17.56-32.41 5.7409-47.33 2.4609-29.08-11.21-60.38 9.9397-88.77-4.1203-16.98-6.9-36.33-4.84-52.83 2.45-18.23 8.87-38.44 3.32-56.97-1.2-15.21-3.39-26.559 11.859-41.589 9.2094-16.85-2.74-31.361-13.98-48.761-14.15-13.75-0.34-25.8 9.0906-39.63 7.6406-10.76-0.32-20.419-7.3903-31.459-4.6703-15.45 0.44-25.421 14.56-40.261 16.57-10.8 0.18-20.05-5.97-29.88-9.42-21.32-8.32-47.19 3.08-66.67-11.35-9.35-6.2-7.9091-18.881-1.9891-27.041-2.33-2.77-4.6909-5.4994-6.9609-8.3094zm-15.88 39.57c10.1 7.7 20.049 19.84 24.309 32.48 3.43 6.34-2.9388 11.689-8.7688 9.3594-17.969-4.12-24.09-26.83-15.54-41.84z" fill="#52280c"/>
<path d="m433.74 40.25c7.16 39.11 10.66 80.219-1.75 118.66 36.17-26.58 37.09-90.499 1.75-118.66zm-35.82 76.07c-8.32 11.36-17.17 25.099-30.65 31.989-0.3 19.62-25.611 29.58-39.561 15.85-15.15 1.05-30.25 3.5306-45.48 2.4406-4.98 27.15-48.529 27.121-52.259-0.60938-20.41-4.19-43.76-3.0403-64.57 2.2797-9.15 2.1-11.991 14.03-5.1906 20.33 14.11 14.28 33.81 20.841 51.37 29.791 27.87 17.01 62.56 17.41 94 14.18 39.36-6.19 83.91-23.39 99.85-63.17 4.64-16.69 9.3506-42.14-7.5094-53.08zm-215.99 254.23c-2.2798-0.0451-4.6572 0.60905-7.0141 2.1672 9.31 4.57 16.669 12.14 21.489 21.25 3.445-9.8881-4.596-23.222-14.475-23.417zm294.02 11.97c5.62 6.4 8.22 14.379 9.7 22.609 4.71-1.07 9.5506-0.35 14.341-0.3 1.74-4.58 3.5488-9.1803 5.0688-13.87-9.51-3.26-18.939-7.8191-29.109-8.4391zm-72.03 3.9188c-5.5702-0.0473-11.579 4.4144-16.891 5.8016 0.92 4.53 1.3497 9.3788 4.0797 13.269 4.86-0.32 9.7106-0.43 14.591-0.55 1.19-5.39 2.2306-10.879 4.4906-15.939-1.9772-1.8534-4.0906-2.5627-6.2703-2.5812zm-112.81 5.5406c1.47 4.55 1.1309 10.181 4.9609 13.541 4.59-0.21 9.1703-0.30093 13.77-0.36093 0.42-2.61 0.8188-5.2291 1.2188-7.8391-6.68-1.72-13.32-3.4906-19.95-5.3406zm-174.27 0.39375c-4.8375-0.11391-10.766 3.5597-15.694 3.7172 0.91 3.19-0.24031 8.3097 3.9297 8.9297 4.58-0.24 9.1597-0.57969 13.73-0.97969 0.59-3.39 1.4112-6.7403 2.4312-10.02-1.2925-1.15-2.7844-1.6089-4.3969-1.6469z" fill="#431b00"/>
<path d="m194.31 44.436c-13.699-0.06854-25.909 12.335-28.508 25.784 0.9 4.63 1.8203 9.29 3.4203 13.75 11.02 24.51 51.62 16.99 52.48-10.22 0.2-1.76 0.2603-3.5297 0.4203-5.2797-4.7-9.14-9.14-19.951-20.1-22.641-2.5875-0.94062-5.1756-1.3811-7.7125-1.3937zm-5.2672 6.5437c7.6344-0.01162 14.45 6.9625 13.05 15.1 0.26 12.32-18.76 17.251-24.8 6.5109-5.63-7.67-0.68-19.391 8.45-21.161 1.1025-0.30375 2.2094-0.44834 3.3-0.45zm115.66 0.37c-10.168 0.15528-20.377 6.5422-22.847 18.07-1.94 12.67 8.0097 26.539 21.48 25.489 13.24 2.33 23.841-10.439 24.091-22.869-0.39-1.94-0.81-3.87-1.25-5.8-3.56-10.312-12.5-15.027-21.47-14.89zm-3.8328 4.3016c12.108 0.16104 14.132 22.438-0.1235 22.919-13.04 1.73-17.39-19.321-3.95-22.211 1.4616-0.50531 2.8209-0.72447 4.0735-0.70781zm95.21 19.473c-0.813 0.01303-1.6653 0.12406-2.5547 0.34531-14.46 1.67-10.191 25.48 3.8594 22.42 14.203-1.1531 10.89-22.961-1.3047-22.766zm-55.248 55.63c-1.2606-0.0408-2.6316 0.14531-4.1063 0.60469-13.12 3.07-8.81 23.871 4.05 22.461 14.128-1.0694 12.242-22.672 0.056-23.066zm-89.456 10.802c-1.4861-0.0171-3.0312 0.25469-4.5906 0.87344-9.86 1.57-12.53 16.931-4.4797 22.411 6.77 6.38 19.211 2.3788 21.191-6.5812 2.2275-8.0747-4.0953-16.611-12.12-16.703z" fill="#8d5fd3"/>
<path d="m189.04 50.98c-1.0906 0.0017-2.1975 0.14625-3.3 0.45-9.13 1.77-14.08 13.491-8.45 21.161 6.04 10.74 25.06 5.8091 24.8-6.5109 1.4-8.1375-5.4156-15.112-13.05-15.1zm111.82 4.6719c-1.2526-0.01666-2.6119 0.2025-4.0735 0.70781-13.44 2.89-9.09 23.941 3.95 22.211 14.255-0.48031 12.232-22.758 0.1235-22.919z" fill="#aa87de"/>
<path d="m399.75 68.655c-19.756 0.37568-30.183 26.416-15.591 40.475 10.39 8.27 27.451 7.5503 34.841-4.3297 9.62-13.76-0.03-33.569-16.27-36.009-1.0149-0.11016-2.0081-0.15441-2.9797-0.13594zm-3.67 6.47c12.195-0.19545 15.508 21.612 1.3047 22.766-14.05 3.06-18.319-20.75-3.8594-22.42 0.8894-0.22125 1.7417-0.33228 2.5547-0.34531zm-49.284 49.555c-3.96 0.41-7.8906 0.95031-11.791 1.7203-14.57 6.39-17.541 26.349-7.2906 37.759 13.95 13.73 39.261 3.77 39.561-15.85 0.05-12.02-8.9697-21.62-20.48-23.63zm-5.964 6.075c12.186 0.39386 14.072 21.996-0.056 23.066-12.86 1.41-17.17-19.391-4.05-22.461 1.4747-0.45938 2.8457-0.64544 4.1063-0.60469zm-86.27 4.0531c-15.234-0.13188-28.167 16.286-24.586 31.183 3.73 27.73 47.279 27.759 52.259 0.60938 2.46-14.89-8.57-32.061-24.6-31.541-1.0319-0.16125-2.0578-0.24277-3.0735-0.25156zm-3.1859 6.7484c8.025 0.0921 14.348 8.6284 12.12 16.703-1.98 8.96-14.421 12.961-21.191 6.5812-8.05-5.48-5.3803-20.841 4.4797-22.411 1.5594-0.61875 3.1045-0.8905 4.5906-0.87344z" fill="#7137c8"/>
<path d="m460.93 159.66c-33.57 61.15-105.76 89.341-172.83 88.081l-6.2 0.76c7.84 3.89 16.22 6.5806 24.08 10.441 13.75-11.13 35.671-8.01 44.311 8.2 27.35-0.42 43.679-30.391 72.059-26.331 11.05-24.93 50.179-19.629 53.909 7.3109 18.9 1.23 39.701 12.12 57.761 1.8 4.52-6.61 2.7391-15.48-0.9609-22.05-12.97 13.41-36.249 13.539-49.869 0.93907-17.62-15.6-13.791-48.11 8.0391-57.98-9.66-4.83-19.99-8.0303-30.3-11.17zm-348.88 9.17c-7.69 3.63-15.32 7.3806-22.87 11.291 11.13 19.03-5.3691 45.289-27.889 41.709-6.54 2.48-2.5912 11.61-2.3812 16.93 4.74 17.91 26.23 21.291 41.92 20.941-1.18-13.47 7.1709-28.3 21.211-30.62 15.01-4.55 30.139 5.9106 34.059 20.391 13.62-4.8 27.48-9.29 40.1-16.45-33.25-12.93-63.8-34.601-84.15-64.191zm-70 92.22c-3.33 6.55-6.3894 16.68 1.9906 20.95 15.26 8.69 34.069 10.171 51.269 9.3906-20.561-4.76-34.92-21.06-53.26-30.34zm501.98 0.82031c-7.69 21.78-31.32 32.56-53.35 29.47 13.92 11.69 36.341 7.9388 50.441-2.0812 9.07-5.29 11.309-20.789 2.9094-27.389z" fill="#fdb249"/>
<path d="m109.37 165.04c-8.91 1.79-17.03 5.88-25.45 9.1 1.84 1.92 3.4894 3.9997 5.2594 5.9797 7.55-3.91 15.18-7.6606 22.87-11.291-0.9-1.26-1.8097-2.5191-2.6797-3.7891zm-67.3 44.78c-13.16 21.04-23.261 47.81-11.941 71.83 2.27 2.81 4.6309 5.5394 6.9609 8.3094 22.51 17.03 52.519 22.121 80.119 20.461 31.18-4.87 57.881-25.5 89.881-27.43 45.86-1.89 83.47 32.479 128.95 33.069 34.01 2.71 61.459-23.959 94.989-24.169 29.94-2.2 55.291 18.79 84.811 18.93 17.41 0.39 31.409-12.95 39.969-26.87 12.56-24.65 4.5106-53.77-13.659-73.17-1.33 6.42-4.5606 12.361-9.0906 17.091 3.7 6.57 5.4809 15.44 0.9609 22.05-18.06 10.32-38.861-0.57-57.761-1.8 2.67 19.05-17.059 36.56-35.489 30.27-16.25-4.04-23.37-22.521-18.42-37.581-28.38-4.06-44.709 25.911-72.059 26.331 9.27 19.85-9.18 45.59-31.35 39.4-21.8-3.46-28.491-33.18-12.961-47.6-7.86-3.86-16.24-6.55-24.08-10.44l6.2-0.75938c-31.15-0.49-62.16-5.4503-91.9-14.72-12.62 7.16-26.48 11.65-40.1 16.45 2.84 15.59-8.1006 32.5-24.341 33.48-14.93 2.38-27.51-9.56-30.93-23.25-15.69 0.35-37.18-3.0306-41.92-20.941-0.21-5.32-4.1588-14.45 2.3812-16.93-7.64-1.53-14.67-5.6094-19.22-12.009zm-0.02 51.23c18.34 9.28 32.699 25.581 53.259 30.341-17.2 0.78-36.008-0.7-51.268-9.39-8.38-4.27-5.321-14.4-1.991-20.95zm501.98 0.82031c8.4 6.6 6.1606 22.099-2.9094 27.389-14.1 10.02-36.521 13.771-50.441 2.0812 22.03 3.09 45.66-7.6903 53.35-29.47z" fill="#fc9f1b"/>
<path d="m66.264 167.25c-19.368 0.24482-36.444 23.14-24.194 42.572 4.55 6.4 11.58 10.479 19.22 12.009 22.52 3.58 39.019-22.679 27.889-41.709-1.77-1.98-3.4194-4.0597-5.2594-5.9797-5.5828-4.9195-11.727-6.9671-17.656-6.8922zm439.8 0.0766c-4.9745 0.006-10.021 1.1009-14.838 3.5047-21.83 9.87-25.659 42.38-8.0391 57.98 13.62 12.6 36.899 12.471 49.869-0.93907 4.53-4.73 7.7606-10.671 9.0906-17.091 5.6794-23.051-14.527-43.48-36.083-43.455zm-445.82 6.47c7.8158 0.2611 14.564 7.7463 12.834 16.108-0.51 12.63-19.979 15.21-25.309 4.75-4.55-7.19-0.74969-18.839 8.0703-20.219 1.4734-0.48749 2.9573-0.68741 4.4047-0.63906zm441.12 2.1438c11.553-0.0234 21.298 14.204 15.661 24.825-3.48 10.37-17.08 14.509-25.87 8.2594-13.5-7.41-9.2688-31.23 6.5812-32.6 1.2188-0.32719 2.433-0.48195 3.6282-0.48438zm-372.33 52.059c-2.3079 0.0199-4.6562 0.36406-7.0016 1.075-14.04 2.32-22.391 17.15-21.211 30.62 3.42 13.69 16 25.63 30.93 23.25 16.24-0.98 27.181-17.89 24.341-33.48-3.3075-12.217-14.595-21.573-27.058-21.466zm314.37 3.7c-1.5327-0.0285-3.0962 0.17656-4.6281 0.63593-9.86 2.59-12.9 17.549-4.4703 23.519 8.73 8.3 24.57-0.62969 22.2-12.28-0.3982-7.2394-6.46-11.751-13.102-11.875zm-319.79 3.2906c9.565-0.10047 17.316 12.417 11.516 20.755-4.14 8.74-18.28 9.4206-23.13 1.0906-4.98-7.51-1.28-20.621 8.6-21.391 1.0153-0.29906 2.0246-0.4443 3.0141-0.45469zm196.98 24.275c-0.7495-0.0102-1.5322 0.0403-2.3469 0.15938-17.76 0.83-15.11 30.641 3.2 27.441 16.032-1.687 14.385-27.393-0.8531-27.6z" fill="#c83737"/>
<path d="m60.245 173.8c-1.4474-0.0483-2.9312 0.15157-4.4047 0.63906-8.82 1.38-12.62 13.029-8.0703 20.219 5.33 10.46 24.799 7.88 25.309-4.75 1.7297-8.3616-5.0186-15.847-12.834-16.108zm441.12 2.1438c-1.1952 0.002-2.4094 0.15719-3.6282 0.48438-15.85 1.37-20.081 25.19-6.5812 32.6 8.79 6.25 22.39 2.1106 25.87-8.2594 5.6369-10.621-4.1082-24.848-15.661-24.825zm-377.75 59.05c-0.98948 0.0104-1.9988 0.15563-3.0141 0.45469-9.88 0.77-13.58 13.881-8.6 21.391 4.85 8.33 18.99 7.6494 23.13-1.0906 5.8-8.3375-1.9506-20.855-11.516-20.755z" fill="#de8787"/>
<path d="m447.66 224.73c-10.268 0.0538-20.476 5.1744-25.311 16.081-4.95 15.06 2.1703 33.541 18.42 37.581 18.43 6.29 38.159-11.22 35.489-30.27-2.0982-15.154-15.397-23.461-28.598-23.392zm-4.2531 6.9766c6.6416 0.12371 12.703 4.6356 13.102 11.875 2.37 11.65-13.47 20.58-22.2 12.28-8.43-5.97-5.3897-20.929 4.4703-23.519 1.5319-0.45937 3.0954-0.66448 4.6281-0.63593zm-118.06 20.648c-6.8445-0.10428-13.78 2.0659-19.366 6.5875-15.53 14.42-8.8391 44.14 12.961 47.6 22.17 6.19 40.62-19.55 31.35-39.4-5.13-9.6247-14.942-14.635-24.945-14.787zm-4.7484 6.9172c15.238 0.20698 16.885 25.913 0.8531 27.6-18.31 3.2-20.96-26.611-3.2-27.441 0.8147-0.11907 1.5974-0.16955 2.3469-0.15938z" fill="#a02c2c"/>
<path d="m569.24 298.18c-4.87 6.92-14.131 16-10.981 24.63 10.52-0.54 17.451-17.22 10.981-24.63zm-340 10.661c-2.5221 0.077-5.2381 0.83563-7.55 0.65-9.42 1.34-18.911 2.73-28.041 5.45 12.09 6.94 30.511 6.0888 40.841-4.2812-1.4437-1.5269-3.2884-1.8786-5.25-1.8188zm-87.32 5.7875c-1.2325 0.0546-2.3797 0.32656-3.2797 0.85156-9.13 1.27-18.201 3.1306-27.331 4.4906 4.7 16.18 28.08 9.3991 38.12 3.3391 4.7612-5.07-2.1686-8.9181-7.5094-8.6812zm146.5 4.4406c-3.0192-0.0281-6.0412 0.21687-8.775 0.34063-13.04 1.56 19.96 11.43 22.5 3.9203-3.6688-3.4062-8.693-4.2141-13.725-4.2609z" fill="#93694d"/>
<path d="m60.705 369.81c-0.70326-0.001-1.4078 0.0125-2.1141 0.0406-10.75 1.04-20.221 6.6506-27.541 14.391-14.32 20.04 0.29969 41.08 2.5297 62.15 17.24 84.6 33.951 169.3 51.061 253.93 96.95 32.03 206.82 27.479 299.03-17.061 2.29-92.55 5.2791-185.17 7.4391-277.75-2.73-3.89-3.1597-8.7388-4.0797-13.269-4.15-6.77-9.5094-12.731-16.109-17.161-18.25-9.19-42.551-5.55-54.761 11.75-1.7 3.49-3.44 6.9706-5.1 10.491-0.4 2.61-0.7988 5.2291-1.2188 7.8391-0.78 100.13-3.6603 200.23-5.1203 300.35-3.68-99.86-7.03-200-8.65-299.99-3.83-3.36-3.4909-8.9906-4.9609-13.541-14.93-32.91-71.709-27.109-76.019 9.7609-0.33 1.43-0.92 2.8197-2.4 3.3797 4.07 96.85 6.3491 194.13 8.3891 291.16-8.58-96.02-15.639-193.84-22.109-290.64-0.12-0.42-0.35969-1.2706-0.47969-1.6906-0.97-3.27-1.6212-6.6097-2.0812-9.9797-4.82-9.11-12.179-16.68-21.489-21.25-20.09-7.66-45.4 0.6-53.68 21.3-1.02 3.28-1.8412 6.6303-2.4312 10.02 7.32 97.07 18.301 196.02 23.411 291.88-11.91-91.02-24.17-182-36.2-273-0.43-5.92-2.9906-12.04-0.94062-17.9-4.17-0.62-3.0197-5.7397-3.9297-8.9297-2.69-6.24-6.2694-12.071-11.059-16.931-8.6625-6.0188-18.837-9.3303-29.386-9.35zm480.96 0.25624c-7.4275-0.001-14.91 1.8138-21.645 5.0438-5.87 4.38-11.011 9.67-14.961 15.85-1.52 4.69-3.3288 9.2903-5.0688 13.87-8.19 74.07-19.39 148.32-28.92 222.43 35.25-28.31 62.4-65.79 84.05-105.23 8.77-37.49 13.25-76.05 24.73-112.83 1.55-10.57-4.3197-19.989-10.03-28.259-2.22-1.76-4.5006-3.4303-6.8406-5.0203-6.515-4.035-13.887-5.8534-21.314-5.8547zm-95.448 0.0406c-14.072-0.0858-28.202 6.4097-36.027 18.914-2.26 5.06-3.3006 10.549-4.4906 15.939-6.43 92.67-13.83 185.29-20.82 277.93 23.63-9.85 45.21-24.151 66.07-38.861 7.05-5.79 17.8-10.659 16.7-21.389 5.78-72.52 12.73-144.97 18-217.51-1.48-8.23-4.08-16.209-9.7-22.609-7.8794-8.2994-18.788-12.347-29.733-12.414z" fill="#abc837"/>
<path d="m118.81 404.04c-4.57 0.4-9.1497 0.73969-13.73 0.97969-2.05 5.86 0.51062 11.98 0.94062 17.9 12.03 91 24.29 181.98 36.2 273-5.11-95.86-16.091-194.81-23.411-291.88zm372.18 0.51094c-1.7934 0.0275-3.5776 0.17688-5.3438 0.57813-5.27 72.54-12.22 144.99-18 217.51 1.1 10.73-9.65 15.599-16.7 21.389-20.86 14.71-42.44 29.011-66.07 38.861 6.99-92.64 14.39-185.26 20.82-277.93-4.88 0.12-9.7306 0.23-14.591 0.55-2.16 92.58-5.1491 185.2-7.4391 277.75-92.21 44.54-202.08 49.091-299.03 17.061 3.42 18.12 7.2597 36.16 10.68 54.28 0.42 13.08 16.47 15.56 26.28 18.78 51.49 11.81 104.65 13.14 157.14 15.62h46.639c54.59-2.61 110.1-3.1203 163.24-17.37 8.03-2.98 19.209-6.0391 19.889-16.289 15.61-77.75 31.451-155.47 46.611-233.31-21.65 39.44-48.8 76.92-84.05 105.23 9.53-74.11 20.73-148.36 28.92-222.43-2.9937-0.0312-6.008-0.32403-8.9968-0.27813zm-278.3 0.56875c-4.58 0.11-9.1503 0.23031-13.72 0.52031 6.47 96.8 13.529 194.62 22.109 290.64-2.04-97.03-4.3191-194.31-8.3891-291.16zm97.15 0.0391c-4.6 0.06-9.1803 0.15093-13.77 0.36093 1.62 99.99 4.97 200.13 8.65 299.99 1.46-100.12 4.3403-200.22 5.1203-300.35z" fill="#89a02c"/>
</g>
</svg>
