<svg id="publicdomainvectors.org" xmlns="http://www.w3.org/2000/svg" viewBox="0 0 600 600"><defs><style>.cls-1{fill:#bad532;}.cls-2{fill:#ac802d;}.cls-2,.cls-3,.cls-4,.cls-5,.cls-6,.cls-7,.cls-8,.cls-9{fill-rule:evenodd;}.cls-3{fill:#98722b;}.cls-4{fill:#c7972c;}.cls-5{fill:#dead2b;}.cls-6{fill:#f0bf48;}.cls-7{fill:#f8cc61;}.cls-8{fill:#ac852d;}.cls-9{fill:#f9df9b;}</style></defs><title>cookies-01</title><ellipse class="cls-1" cx="321.84" cy="396.55" rx="262.49" ry="98"/><path class="cls-2" d="M230.49,243.66l7.73-1.18A88,88,0,0,1,279.73,246c12.59,4.4,21.8,11.54,25.76,20l2.17,4.65,7.67,1.31c14,2.4,25.8,8,33.07,15.58,5.38,5.64,7.91,12,7.42,18.42h17.64v36.66h0c.73,9-4.49,18.2-15.68,25.16l-1.94,1.2V383c.36,6.25-2.18,12.48-7.44,18-7.27,7.62-19.07,13.18-33.06,15.58l-7.68,1.32-2.17,4.64c-4,8.46-13.17,15.6-25.76,20A88,88,0,0,1,238.22,446l-7.73-1.18-5.72,3.36c-21.61,12.71-56.07,12.71-77.68,0l-5.71-3.36L133.64,446a88,88,0,0,1-41.51-3.49c-12.59-4.4-21.79-11.54-25.75-20L64.2,417.9l-7.67-1.32c-14-2.4-25.8-8-33.06-15.58-4.7-4.92-7.22-10.4-7.46-16h0a17.42,17.42,0,0,1,0-1.77V368.94l-1.92-1.19C2.74,360.69-2.47,351.36-1.56,342.22V305.93H16.05c-.5-6.4,2-12.78,7.42-18.42,7.26-7.61,19.07-13.18,33.06-15.58l7.67-1.31L66.38,266c4-8.46,13.16-15.6,25.75-20a88,88,0,0,1,41.51-3.49l7.74,1.18,5.72-3.36c21.6-12.71,56.06-12.71,77.67,0Z"/><path class="cls-3" d="M347.21,286.33c.41.39.81.78,1.19,1.18,5.38,5.64,7.91,12,7.42,18.42h17.64v36.66h0c.73,9-4.49,18.2-15.68,25.16l-1.94,1.2V383c.36,6.25-2.18,12.48-7.44,18-7.27,7.62-19.07,13.18-33.06,15.58l-7.68,1.32-2.17,4.64c-4,8.46-13.17,15.6-25.76,20A88,88,0,0,1,238.22,446l-7.73-1.18c38.14,1.09,64.47-12.91,76.59-45.08-23,10.89-47.76,15.49-76.59,4.68q12-37.86,24-75.72Z"/><path class="cls-4" d="M230.49,203.26l7.73-1.18a88,88,0,0,1,41.51,3.49c12.59,4.39,21.8,11.54,25.76,20l2.17,4.64,7.67,1.32c14,2.39,25.8,8,33.07,15.58s9.34,16.58,5.77,25.11l-1.95,4.68,5.56,3.46c21,13.07,21,33.91,0,47l-5.56,3.46,1.95,4.67c3.57,8.53,1.5,17.5-5.77,25.12s-19.07,13.18-33.06,15.58l-7.68,1.31-2.17,4.65c-4,8.46-13.17,15.6-25.76,20a88.16,88.16,0,0,1-41.51,3.49l-7.73-1.18-5.72,3.36c-21.61,12.71-56.07,12.71-77.68,0l-5.71-3.36-7.74,1.18a88.17,88.17,0,0,1-41.51-3.49c-12.59-4.4-21.79-11.54-25.75-20l-2.18-4.65-7.67-1.31c-14-2.4-25.8-8-33.06-15.58S14.13,344,17.69,335.48l2-4.67-5.56-3.46c-21-13.08-21-33.92,0-47l5.56-3.46-2-4.68c-3.56-8.53-1.49-17.5,5.78-25.11s19.07-13.19,33.06-15.58l7.67-1.32,2.18-4.64c4-8.46,13.16-15.61,25.75-20a88,88,0,0,1,41.51-3.49l7.74,1.18,5.72-3.36c21.6-12.71,56.06-12.71,77.67,0Z"/><path class="cls-5" d="M229.35,199.33l7.53-1.16a85.82,85.82,0,0,1,40.45,3.41c12.27,4.28,21.24,11.24,25.1,19.49l2.11,4.52,7.48,1.28c13.63,2.34,25.14,7.76,32.22,15.19s9.1,16.15,5.63,24.46L348,271.08l5.42,3.37c20.46,12.74,20.46,33.05,0,45.79L348,323.61l1.91,4.56c3.47,8.31,1.45,17.05-5.63,24.47S325.65,365.48,312,367.82l-7.48,1.28-2.11,4.52c-3.86,8.25-12.83,15.21-25.1,19.49a85.82,85.82,0,0,1-40.45,3.41l-7.53-1.16-5.58,3.28c-21.05,12.38-54.62,12.38-75.68,0l-5.57-3.28L135,396.52a85.83,85.83,0,0,1-40.45-3.41c-12.26-4.28-21.23-11.24-25.09-19.49l-2.12-4.52-7.48-1.28c-13.63-2.34-25.13-7.76-32.22-15.18S18.53,336.48,22,328.17l1.9-4.56-5.41-3.37C-2,307.5-2,287.19,18.49,274.45l5.41-3.37L22,266.52c-3.47-8.31-1.46-17,5.62-24.47s18.59-12.84,32.22-15.18l7.48-1.28,2.12-4.52c3.86-8.25,12.83-15.21,25.1-19.49A85.77,85.77,0,0,1,135,198.17l7.54,1.16,5.57-3.28c21.06-12.38,54.63-12.38,75.68,0Z"/><path class="cls-6" d="M217,195.92l9.46,5.57,12.79-2c23.38-3.57,47.25,4.77,53.83,18.8l3.59,7.68,12.7,2.18c23.2,4,37,18.41,31.07,32.56l-3.23,7.73,7.82,4.88c-38,31.85-126.77,54.18-230.2,54.18a673.13,673.13,0,0,1-82.31-4.93l2.12-5.08-9.2-5.73c-16.81-10.45-16.81-27.13,0-37.59l9.2-5.73-3.24-7.73c-5.91-14.15,7.88-28.59,31.08-32.56L75.18,226l3.6-7.68c6.57-14,30.45-22.37,53.82-18.8l12.8,2,9.46-5.57C172.15,185.76,199.72,185.76,217,195.92Z"/><path class="cls-7" d="M212.35,303c7.21,0,13.09-3.55,13.09-7.91s-5.88-7.92-13.09-7.92-13.08,3.56-13.08,7.92S205.15,303,212.35,303Z"/><path class="cls-8" d="M212.35,304c6.49,0,11.78-3.2,11.78-7.12s-5.29-7.12-11.78-7.12-11.77,3.2-11.77,7.12S205.87,304,212.35,304Z"/><path class="cls-7" d="M158.9,303c7.2,0,13.08-3.55,13.08-7.91s-5.88-7.92-13.08-7.92-13.09,3.56-13.09,7.92S151.69,303,158.9,303Z"/><path class="cls-8" d="M158.9,304c6.48,0,11.77-3.2,11.77-7.12s-5.29-7.12-11.77-7.12-11.78,3.2-11.78,7.12S152.41,304,158.9,304Z"/><path class="cls-7" d="M265.06,303c7.21,0,13.08-3.55,13.08-7.91s-5.87-7.92-13.08-7.92S252,290.72,252,295.08,257.85,303,265.06,303Z"/><path class="cls-8" d="M265.06,304c6.48,0,11.77-3.2,11.77-7.12s-5.29-7.12-11.77-7.12-11.78,3.2-11.78,7.12S258.57,304,265.06,304Z"/><path class="cls-7" d="M104,303c7.21,0,13.09-3.55,13.09-7.91s-5.88-7.92-13.09-7.92-13.08,3.56-13.08,7.92S96.75,303,104,303Z"/><path class="cls-8" d="M104,304c6.49,0,11.78-3.2,11.78-7.12s-5.29-7.12-11.78-7.12-11.77,3.2-11.77,7.12S97.48,304,104,304Z"/><path class="cls-7" d="M188.3,282.67c7.2,0,13.08-3.55,13.08-7.91s-5.88-7.92-13.08-7.92-13.09,3.56-13.09,7.92S181.09,282.67,188.3,282.67Z"/><path class="cls-8" d="M188.3,283.63c6.48,0,11.77-3.2,11.77-7.12s-5.29-7.12-11.77-7.12-11.78,3.2-11.78,7.12S181.81,283.63,188.3,283.63Z"/><path class="cls-7" d="M134.84,282.67c7.21,0,13.09-3.55,13.09-7.91s-5.88-7.92-13.09-7.92-13.08,3.56-13.08,7.92S127.64,282.67,134.84,282.67Z"/><path class="cls-8" d="M134.84,283.63c6.49,0,11.78-3.2,11.78-7.12s-5.29-7.12-11.78-7.12-11.77,3.2-11.77,7.12S128.36,283.63,134.84,283.63Z"/><path class="cls-7" d="M241,282.67c7.21,0,13.09-3.55,13.09-7.91s-5.88-7.92-13.09-7.92-13.08,3.56-13.08,7.92S233.8,282.67,241,282.67Z"/><path class="cls-8" d="M241,283.63c6.48,0,11.77-3.2,11.77-7.12s-5.29-7.12-11.77-7.12-11.78,3.2-11.78,7.12S234.52,283.63,241,283.63Z"/><path class="cls-7" d="M214.62,264c7.21,0,13.09-3.55,13.09-7.91s-5.88-7.92-13.09-7.92-13.08,3.56-13.08,7.92S207.42,264,214.62,264Z"/><path class="cls-8" d="M214.62,265c6.49,0,11.78-3.2,11.78-7.12s-5.29-7.12-11.78-7.12-11.77,3.2-11.77,7.12S208.14,265,214.62,265Z"/><path class="cls-7" d="M161.17,264c7.2,0,13.08-3.55,13.08-7.91s-5.88-7.92-13.08-7.92-13.09,3.56-13.09,7.92S154,264,161.17,264Z"/><path class="cls-8" d="M161.17,265c6.48,0,11.77-3.2,11.77-7.12s-5.29-7.12-11.77-7.12-11.78,3.2-11.78,7.12S154.68,265,161.17,265Z"/><path class="cls-7" d="M256.52,258.58c7.2,0,13.08-3.56,13.08-7.92s-5.88-7.91-13.08-7.91-13.09,3.55-13.09,7.91S249.31,258.58,256.52,258.58Z"/><path class="cls-8" d="M256.52,259.54c6.48,0,11.77-3.2,11.77-7.12s-5.29-7.13-11.77-7.13-11.78,3.2-11.78,7.13S250,259.54,256.52,259.54Z"/><path class="cls-7" d="M116.69,260.43c7.21,0,13.08-3.55,13.08-7.91s-5.87-7.92-13.08-7.92-13.08,3.56-13.08,7.92S109.48,260.43,116.69,260.43Z"/><path class="cls-8" d="M116.69,261.4c6.49,0,11.77-3.21,11.77-7.13s-5.28-7.12-11.77-7.12-11.77,3.2-11.77,7.12S110.21,261.4,116.69,261.4Z"/><path class="cls-7" d="M187,246.16c7.2,0,13.08-3.56,13.08-7.92s-5.88-7.91-13.08-7.91S174,233.88,174,238.24,179.83,246.16,187,246.16Z"/><path class="cls-8" d="M187,247.12c6.48,0,11.77-3.2,11.77-7.12s-5.29-7.13-11.77-7.13-11.78,3.2-11.78,7.13S180.55,247.12,187,247.12Z"/><path class="cls-7" d="M188.3,324.2c7.2,0,13.08-3.55,13.08-7.91s-5.88-7.92-13.08-7.92-13.09,3.56-13.09,7.92S181.09,324.2,188.3,324.2Z"/><path class="cls-8" d="M188.3,325.16c6.48,0,11.77-3.2,11.77-7.12s-5.29-7.12-11.77-7.12-11.78,3.2-11.78,7.12S181.81,325.16,188.3,325.16Z"/><path class="cls-7" d="M134.84,324.2c7.21,0,13.09-3.55,13.09-7.91s-5.88-7.92-13.09-7.92-13.08,3.56-13.08,7.92S127.64,324.2,134.84,324.2Z"/><path class="cls-8" d="M134.84,325.16c6.49,0,11.78-3.2,11.78-7.12s-5.29-7.12-11.78-7.12-11.77,3.2-11.77,7.12S128.36,325.16,134.84,325.16Z"/><path class="cls-7" d="M241,324.2c7.21,0,13.09-3.55,13.09-7.91s-5.88-7.92-13.09-7.92-13.08,3.56-13.08,7.92S233.8,324.2,241,324.2Z"/><path class="cls-8" d="M241,325.16c6.48,0,11.77-3.2,11.77-7.12s-5.29-7.12-11.77-7.12-11.78,3.2-11.78,7.12S234.52,325.16,241,325.16Z"/><path class="cls-7" d="M214.62,345.68c7.21,0,13.09-3.55,13.09-7.91s-5.88-7.92-13.09-7.92-13.08,3.56-13.08,7.92S207.42,345.68,214.62,345.68Z"/><path class="cls-8" d="M214.62,346.65c6.49,0,11.78-3.2,11.78-7.13s-5.29-7.12-11.78-7.12-11.77,3.2-11.77,7.12S208.14,346.65,214.62,346.65Z"/><path class="cls-7" d="M161.17,345.68c7.2,0,13.08-3.55,13.08-7.91s-5.88-7.92-13.08-7.92-13.09,3.56-13.09,7.92S154,345.68,161.17,345.68Z"/><path class="cls-8" d="M161.17,346.65c6.48,0,11.77-3.2,11.77-7.13s-5.29-7.12-11.77-7.12-11.78,3.2-11.78,7.12S154.68,346.65,161.17,346.65Z"/><path class="cls-7" d="M267.9,340.26c7.21,0,13.09-3.55,13.09-7.91s-5.88-7.92-13.09-7.92-13.08,3.56-13.08,7.92S260.7,340.26,267.9,340.26Z"/><path class="cls-8" d="M267.9,341.22c6.49,0,11.78-3.2,11.78-7.12S274.39,327,267.9,327s-11.77,3.2-11.77,7.13S261.42,341.22,267.9,341.22Z"/><path class="cls-7" d="M116.69,342.12c7.21,0,13.08-3.56,13.08-7.92s-5.87-7.91-13.08-7.91-13.08,3.55-13.08,7.91S109.48,342.12,116.69,342.12Z"/><path class="cls-8" d="M116.69,343.08c6.49,0,11.77-3.2,11.77-7.13s-5.28-7.12-11.77-7.12S104.92,332,104.92,336,110.21,343.08,116.69,343.08Z"/><path class="cls-7" d="M187,363.4c7.2,0,13.08-3.55,13.08-7.91s-5.88-7.92-13.08-7.92S174,351.13,174,355.49,179.83,363.4,187,363.4Z"/><path class="cls-8" d="M187,364.36c6.48,0,11.77-3.2,11.77-7.12s-5.29-7.12-11.77-7.12-11.78,3.2-11.78,7.12S180.55,364.36,187,364.36Z"/><path class="cls-9" d="M344.24,352.64c-7.11,11.38-23.67,15.62-38.39,18.18-2.45,5.11-5.08,9.53-9.12,13.44-4.26,4.12-10.05,7.62-18.77,10.66a76.65,76.65,0,0,1-24.29,4.46,139.55,139.55,0,0,1-23.95-2c-14.86,8.63-29.54,12.81-44.13,12.75s-29-4.38-43.45-12.75a139.47,139.47,0,0,1-23.95,2,76.65,76.65,0,0,1-24.29-4.46c-8.71-3-14.49-6.54-18.76-10.67-4-3.91-6.68-8.32-9.12-13.43-19-3.3-28.76-4.74-38.4-18.18,11.15,10.76,26.61,12.26,41,14.74,2.46,5.26,4.92,10,9.16,14.11h0c3.87,3.75,9.22,7,17.37,9.8a72.88,72.88,0,0,0,23.1,4.25c7.52.16,15.21-.75,24-2.09l.66-.1.59.35c14,8.25,28,12.51,42.13,12.57s28.31-4.06,42.77-12.57l.59-.35.66.11c8.77,1.34,16.46,2.24,24,2.08a72.78,72.78,0,0,0,23.1-4.25c8.15-2.84,13.49-6.05,17.37-9.81s6.35-8.09,8.74-13.2l.43-.91,1-.17C318.09,364.83,334,362.1,344.24,352.64Z"/><path class="cls-2" d="M475.91,252.75l7.33,2.74a88.12,88.12,0,0,1,34.54,23.3c8.84,10,13.39,20.7,12.72,30l-.36,5.11,6.06,4.89c11,8.92,18.63,19.54,21.26,29.73,1.95,7.55,1,14.36-2.51,19.7l15.41,8.6-17.88,32h0c-3.77,8.24-12.8,13.69-26,14.31l-2.27.11-6.86,12.27c-2.74,5.63-8,9.83-15.27,12.08-10.06,3.1-23.08,2.2-36.46-2.53l-7.35-2.59-4.16,3c-7.58,5.46-19.1,7.2-32.24,4.9A88.08,88.08,0,0,1,384,433.19l-6.17-4.8-6.64.14c-25.06.56-55.14-16.25-67.81-37.88L300,384.92l-7.32-2.73a88.15,88.15,0,0,1-34.54-23.3c-8.85-10-13.4-20.7-12.73-30l.37-5.12-6.06-4.88c-11.05-8.92-18.64-19.54-21.27-29.73-1.69-6.58-1.23-12.6,1.27-17.57h0c.26-.53.55-1.05.86-1.55l7-12.5-1.1-2c-6.46-11.7-6.46-22.39-1.21-29.93L243,193.94l15.38,8.58c2.68-5.82,8-10.16,15.45-12.46,10.06-3.1,23.09-2.21,36.47,2.53l7.34,2.59,4.16-3c7.59-5.46,19.11-7.2,32.24-4.9a88.08,88.08,0,0,1,37.94,17.2l6.18,4.8,6.63-.15c25.06-.55,55.14,16.25,67.81,37.89Z"/><path class="cls-3" d="M557,346.93c.17.54.32,1.07.46,1.61,1.95,7.55,1,14.36-2.51,19.7l15.41,8.6-17.88,32h0c-3.77,8.24-12.8,13.69-26,14.31l-2.27.11-6.86,12.27c-2.74,5.63-8,9.83-15.27,12.08-10.06,3.1-23.08,2.2-36.46-2.53l-7.35-2.59-4.16,3c-7.58,5.46-19.1,7.2-32.24,4.9A88.08,88.08,0,0,1,384,433.19l-6.17-4.8c32.76,19.55,62.58,20.17,88.85-2-25.43-1.73-49.25-9.78-69.15-33.27l57.87-54.4Z"/><path class="cls-4" d="M495.62,217.48l7.32,2.74a88.21,88.21,0,0,1,34.54,23.29c8.85,10,13.4,20.71,12.73,30l-.37,5.11,6.06,4.89c11,8.92,18.64,19.54,21.27,29.73s.06,19-7.21,24.74l-4,3.13,3.17,5.73c12,21.66,1.79,39.85-22.92,41l-6.54.31-.58,5c-1.05,9.18-7.23,16-17.29,19.1s-23.08,2.21-36.46-2.52l-7.34-2.6-4.16,3c-7.59,5.45-19.11,7.2-32.24,4.9a88.14,88.14,0,0,1-37.94-17.2l-6.18-4.8-6.63.14c-25.07.56-55.14-16.25-67.81-37.88l-3.35-5.73-7.33-2.73a88.23,88.23,0,0,1-34.54-23.3c-8.84-10-13.39-20.7-12.73-30l.37-5.12-6.06-4.89c-11-8.91-18.63-19.53-21.26-29.73s-.06-19,7.21-24.73l4-3.13-3.16-5.74c-12-21.65-1.8-39.85,22.92-41l6.54-.31.57-5c1.05-9.19,7.23-16,17.29-19.11s23.08-2.21,36.46,2.52l7.35,2.6,4.16-3c7.58-5.46,19.1-7.21,32.24-4.9a88.23,88.23,0,0,1,37.94,17.19l6.17,4.81,6.64-.15c25.06-.55,55.14,16.25,67.8,37.88Z"/><path class="cls-5" d="M496.54,213.49l7.14,2.67a86,86,0,0,1,33.65,22.7c8.62,9.72,13,20.17,12.4,29.25l-.35,5,5.9,4.76c10.76,8.69,18.16,19,20.72,29s.06,18.54-7,24.1L565.09,334l3.08,5.59c11.66,21.1,1.76,38.83-22.32,40l-6.38.3-.56,4.91c-1,8.95-7,15.59-16.84,18.62s-22.49,2.15-35.53-2.46l-7.16-2.53-4.05,2.91c-7.4,5.32-18.62,7-31.42,4.78a85.77,85.77,0,0,1-37-16.76l-6-4.68-6.47.14c-24.42.54-53.73-15.83-66.07-36.91l-3.27-5.58L318,339.61a85.79,85.79,0,0,1-33.65-22.7c-8.62-9.72-13.05-20.17-12.4-29.25l.36-5-5.91-4.77c-10.76-8.69-18.15-19-20.72-29s-.06-18.54,7-24.1l3.89-3.05-3.08-5.59c-11.66-21.1-1.75-38.83,22.33-40l6.37-.3.56-4.91c1-8.94,7-15.59,16.85-18.61s22.49-2.16,35.53,2.46l7.15,2.52,4.05-2.91c7.4-5.32,18.62-7,31.42-4.78a86,86,0,0,1,37,16.76l6,4.68,6.46-.14c24.42-.54,53.73,15.83,66.07,36.91Z"/><path class="cls-6" d="M487.42,204.5,493,214l12.12,4.53c22.16,8.29,38.93,27.21,37.82,42.67l-.6,8.46,10,8.09c18.31,14.78,23.3,34.11,11.25,43.58l-6.6,5.18,4.46,8.07c-48.73,9.26-137.11-14.53-227.4-65a672.28,672.28,0,0,1-69.45-44.46l4.33-3.4-5.24-9.48c-9.57-17.33-1.44-31.89,18.33-32.82l10.83-.51,1-8.34c1.74-15.23,20.81-21.11,43-13.27l12.14,4.3,6.89-4.95c12.58-9.05,37.49-4.69,56.15,9.83l10.22,8,11-.24C453.22,173.75,477.29,187.19,487.42,204.5Z"/><path class="cls-7" d="M438.86,281.88c6.31,3.52,9.7,9.47,7.56,13.29s-9,4.05-15.28.53-9.69-9.47-7.56-13.29S432.55,278.36,438.86,281.88Z"/><path class="cls-8" d="M437.62,284.1c5.68,3.17,8.72,8.53,6.81,12s-8.08,3.65-13.76.48-8.72-8.53-6.8-12S431.94,280.93,437.62,284.1Z"/><path class="cls-7" d="M392.2,255.81c6.31,3.52,9.69,9.47,7.56,13.29s-9,4-15.28.53-9.7-9.48-7.57-13.29S385.89,252.28,392.2,255.81Z"/><path class="cls-8" d="M391,258c5.67,3.17,8.72,8.53,6.8,12s-8.08,3.65-13.75.48-8.73-8.53-6.81-12S385.28,254.86,391,258Z"/><path class="cls-7" d="M484.88,307.59c6.3,3.52,9.69,9.47,7.56,13.29s-9,4.05-15.29.53-9.69-9.48-7.56-13.29S478.57,304.06,484.88,307.59Z"/><path class="cls-8" d="M483.63,309.81c5.68,3.17,8.73,8.52,6.81,12s-8.08,3.65-13.75.48-8.73-8.53-6.81-12S478,306.64,483.63,309.81Z"/><path class="cls-7" d="M344.24,229c6.31,3.52,9.69,9.47,7.56,13.29s-9,4.05-15.28.53-9.7-9.48-7.56-13.3S337.93,225.49,344.24,229Z"/><path class="cls-8" d="M343,231.24c5.67,3.17,8.72,8.52,6.8,12s-8.07,3.65-13.75.47-8.73-8.52-6.81-12S337.32,228.06,343,231.24Z"/><path class="cls-7" d="M427.77,252.41c6.31,3.53,9.7,9.48,7.57,13.29s-9,4.06-15.29.53-9.69-9.47-7.56-13.29S421.46,248.89,427.77,252.41Z"/><path class="cls-8" d="M426.53,254.63c5.68,3.18,8.73,8.53,6.81,12s-8.08,3.65-13.76.48-8.72-8.53-6.8-12S420.85,251.46,426.53,254.63Z"/><path class="cls-7" d="M381.11,226.34c6.31,3.53,9.69,9.48,7.56,13.29s-9,4.06-15.28.53-9.7-9.47-7.56-13.29S374.8,222.82,381.11,226.34Z"/><path class="cls-8" d="M379.87,228.56c5.67,3.17,8.72,8.53,6.8,12s-8.08,3.65-13.75.48-8.73-8.53-6.81-12S374.19,225.39,379.87,228.56Z"/><path class="cls-7" d="M473.79,278.12c6.3,3.52,9.69,9.47,7.56,13.29s-9,4-15.28.53-9.7-9.48-7.57-13.29S467.48,274.59,473.79,278.12Z"/><path class="cls-8" d="M472.54,280.34c5.68,3.17,8.73,8.53,6.81,12s-8.08,3.65-13.75.48-8.73-8.53-6.81-12S466.87,277.17,472.54,280.34Z"/><path class="cls-7" d="M459.86,249c6.31,3.53,9.69,9.48,7.56,13.29s-9,4.06-15.28.53-9.7-9.47-7.56-13.29S453.55,245.43,459.86,249Z"/><path class="cls-8" d="M458.62,251.17c5.67,3.17,8.72,8.53,6.8,12s-8.07,3.65-13.75.48-8.72-8.53-6.81-12S452.94,248,458.62,251.17Z"/><path class="cls-7" d="M413.19,222.88c6.31,3.52,9.7,9.48,7.57,13.29s-9,4.05-15.29.53-9.69-9.47-7.56-13.29S406.88,219.36,413.19,222.88Z"/><path class="cls-8" d="M412,225.1c5.68,3.17,8.73,8.53,6.81,12s-8.08,3.65-13.76.48-8.72-8.53-6.8-12S406.28,221.93,412,225.1Z"/><path class="cls-7" d="M499.08,264.65c6.31,3.52,9.69,9.47,7.56,13.29s-9,4.05-15.28.53-9.7-9.48-7.56-13.29S492.77,261.12,499.08,264.65Z"/><path class="cls-8" d="M497.84,266.87c5.67,3.17,8.72,8.53,6.8,12s-8.07,3.65-13.75.48-8.72-8.53-6.81-12S492.16,263.7,497.84,266.87Z"/><path class="cls-7" d="M376.11,198.07c6.3,3.53,9.69,9.48,7.56,13.29s-9,4.06-15.29.53-9.69-9.47-7.56-13.29S369.8,194.55,376.11,198.07Z"/><path class="cls-8" d="M374.87,200.29c5.67,3.17,8.72,8.53,6.8,12s-8.08,3.65-13.75.48-8.73-8.53-6.81-12S369.19,197.12,374.87,200.29Z"/><path class="cls-7" d="M444.48,219.92c6.31,3.52,9.69,9.47,7.56,13.29s-9,4-15.28.53-9.69-9.48-7.56-13.29S438.17,216.39,444.48,219.92Z"/><path class="cls-8" d="M443.24,222.14c5.68,3.17,8.72,8.53,6.81,12s-8.08,3.65-13.76.48-8.72-8.53-6.8-12S437.56,219,443.24,222.14Z"/><path class="cls-7" d="M407.52,288.66c6.31,3.53,9.69,9.48,7.56,13.3s-9,4.05-15.28.53-9.7-9.48-7.56-13.3S401.21,285.14,407.52,288.66Z"/><path class="cls-8" d="M406.28,290.89c5.67,3.17,8.72,8.52,6.8,12s-8.07,3.65-13.75.47-8.72-8.52-6.8-12S400.6,287.72,406.28,290.89Z"/><path class="cls-7" d="M360.85,262.59c6.31,3.53,9.7,9.48,7.57,13.3s-9,4.05-15.29.52-9.69-9.47-7.56-13.29S354.54,259.07,360.85,262.59Z"/><path class="cls-8" d="M359.61,264.82c5.68,3.17,8.72,8.52,6.81,12s-8.08,3.64-13.76.47-8.72-8.52-6.8-12S353.94,261.64,359.61,264.82Z"/><path class="cls-7" d="M453.53,314.37c6.31,3.53,9.7,9.48,7.56,13.29s-9,4.06-15.28.53-9.69-9.47-7.56-13.29S447.22,310.85,453.53,314.37Z"/><path class="cls-8" d="M452.29,316.59c5.68,3.18,8.72,8.53,6.8,12s-8.07,3.65-13.75.48-8.72-8.53-6.8-12S446.61,313.42,452.29,316.59Z"/><path class="cls-7" d="M420,320.26c6.31,3.52,9.69,9.47,7.56,13.29s-9,4.05-15.28.53-9.69-9.48-7.56-13.29S413.71,316.73,420,320.26Z"/><path class="cls-8" d="M418.78,322.48c5.68,3.17,8.72,8.53,6.8,12s-8.07,3.65-13.75.48-8.72-8.53-6.8-12S413.1,319.31,418.78,322.48Z"/><path class="cls-7" d="M373.36,294.19c6.3,3.52,9.69,9.47,7.56,13.29s-9,4-15.29.53-9.69-9.48-7.56-13.29S367.05,290.66,373.36,294.19Z"/><path class="cls-8" d="M372.11,296.41c5.68,3.17,8.73,8.53,6.81,12s-8.08,3.65-13.75.48-8.73-8.53-6.81-12S366.44,293.24,372.11,296.41Z"/><path class="cls-7" d="M469.18,341.51c6.31,3.53,9.7,9.48,7.56,13.29s-9,4.05-15.28.53-9.69-9.47-7.56-13.29S462.87,338,469.18,341.51Z"/><path class="cls-8" d="M467.94,343.73c5.68,3.17,8.72,8.53,6.8,12s-8.07,3.65-13.75.48-8.72-8.53-6.8-12S462.26,340.56,467.94,343.73Z"/><path class="cls-7" d="M336.27,269.38c6.31,3.52,9.69,9.47,7.56,13.29s-9,4.05-15.28.53-9.7-9.48-7.56-13.29S330,265.85,336.27,269.38Z"/><path class="cls-8" d="M335,271.6c5.67,3.17,8.72,8.53,6.8,12s-8.07,3.65-13.75.48-8.73-8.53-6.81-12S329.35,268.43,335,271.6Z"/><path class="cls-7" d="M387.3,322.27c6.31,3.53,9.69,9.48,7.56,13.3s-9,4.05-15.28.52-9.7-9.47-7.56-13.29S381,318.75,387.3,322.27Z"/><path class="cls-8" d="M386.06,324.5c5.67,3.17,8.72,8.52,6.8,12s-8.07,3.64-13.75.47-8.73-8.52-6.81-12S380.38,321.32,386.06,324.5Z"/><path class="cls-9" d="M522.07,403.37c-11.76,6.47-28.29,2.09-42.39-2.85-4.63,3.26-9.07,5.84-14.51,7.28-5.73,1.52-12.49,1.75-21.59.15A76.54,76.54,0,0,1,420.21,400a139.58,139.58,0,0,1-19.93-13.44c-17.18.28-32-3.23-44.74-10.4s-23.21-18-31.72-32.32a139.1,139.1,0,0,1-21.89-9.92,76.73,76.73,0,0,1-19-15.73c-6.12-6.91-9.47-12.78-11.18-18.47-1.63-5.39-1.77-10.52-1.41-16.18-15-12.15-22.79-18.16-24.65-34.6,4.48,14.84,17.25,23.69,28.61,32.87-.42,5.8-.59,11.14,1.11,16.79h0c1.55,5.16,4.65,10.57,10.38,17a72.77,72.77,0,0,0,18.1,15c6.48,3.81,13.64,6.77,21.94,9.87l.63.24.34.59c8.23,14.05,18.38,24.59,30.65,31.52s26.69,10.26,43.47,9.89l.68,0,.53.41c7,5.45,13.27,10,19.91,13.51a72.61,72.61,0,0,0,22.23,7.56c8.51,1.49,14.73,1.3,20-.09s9.48-4,14.06-7.26l.82-.59.94.33C493.29,401.26,508.48,406.61,522.07,403.37Z"/></svg>