<svg id="publicdomainvectors.org" xmlns="http://www.w3.org/2000/svg" viewBox="0 0 660 660"><defs><style>.cls-1{fill:#cfc6b0;}.cls-1,.cls-2,.cls-3,.cls-4,.cls-5,.cls-6,.cls-7,.cls-8{fill-rule:evenodd;}.cls-2{fill:#c3942d;}.cls-3{fill:#ac802c;}.cls-4{fill:#d9a728;}.cls-5{fill:#b7872d;}.cls-6{fill:#e8b73c;}.cls-7{fill:#d39f2a;}.cls-8{fill:#fbd573;}</style></defs><title>croissant</title><path class="cls-1" d="M447,555.88A18.05,18.05,0,0,1,415.43,557c-10.21-16-27.2-25.66-45.37-25.74l34.88-76.13,13.87,6.44c16.46,7.65,29,22.56,34.26,40.81A70.84,70.84,0,0,1,447,555.88Z"/><path class="cls-1" d="M447,555.88A18.05,18.05,0,0,1,415.43,557a54.9,54.9,0,0,0-37.31-25.07l-1.86-14.2,6.34-13.84,46.34-25.57-1.25,18.19A108.52,108.52,0,0,1,421.1,527a16.8,16.8,0,0,0,3.76,17.68,14.46,14.46,0,0,0,16.84,2.76A37.17,37.17,0,0,0,454,537.33,72.67,72.67,0,0,1,447,555.88Z"/><path class="cls-1" d="M426.53,446.46c8.85,36.59-4,74.08-30.45,96.35-13.07,11-31.69,9.72-43.41-3a102.46,102.46,0,0,0-54.13-31.26l5.92-102.68C305.69,384.48,420.93,423.32,426.53,446.46Z"/><path class="cls-1" d="M341.42,472.56a77.88,77.88,0,0,0,10,31.58c7.49,13.28,20.71,21.11,35.3,20.31a28.89,28.89,0,0,0,23.9-15.83A178.27,178.27,0,0,0,428.34,456c4.71,33.46-8.08,66.5-32.26,86.84-13.07,11-31.69,9.72-43.41-3a102.46,102.46,0,0,0-54.13-31.26l5.92-102.68C333.5,390.44,340.9,467.62,341.42,472.56Z"/><path class="cls-1" d="M61.35,569.19a18,18,0,0,0,31.53-1.09c9.09-16.68,25.38-27.47,43.5-28.81l-40-73.54-13.39,7.38c-15.9,8.76-27.36,24.5-31.37,43.07A70.85,70.85,0,0,0,61.35,569.19Z"/><path class="cls-1" d="M61.35,569.19a18,18,0,0,0,31.53-1.09,54.91,54.91,0,0,1,35.5-27.58l.88-14.3L122,512.86,74,490.54l2.51,18a108.58,108.58,0,0,0,8.68,30,16.83,16.83,0,0,1-2.53,17.9A14.44,14.44,0,0,1,66,560.43a37.13,37.13,0,0,1-13-9.27A72.76,72.76,0,0,0,61.35,569.19Z"/><path class="cls-1" d="M74.19,458.62c-6.3,37.11,9.08,73.62,37,94,13.8,10.07,32.28,7.51,43.1-6a102.36,102.36,0,0,1,51.84-34.92l-13-102C190.48,388.46,78.18,435.14,74.19,458.62Z"/><path class="cls-1" d="M160.9,478.79a78,78,0,0,1-7.83,32.2c-6.56,13.76-19.22,22.49-33.82,22.69a28.88,28.88,0,0,1-24.93-14.14A178.12,178.12,0,0,1,73,468.23c-2.39,33.7,12.65,65.78,38.18,84.41,13.8,10.07,32.28,7.51,43.1-6a102.36,102.36,0,0,1,51.84-34.92l-13-102C163.14,396.32,161.08,473.83,160.9,478.79Z"/><path class="cls-1" d="M165.15,402.42c-2.83,32.32-2.36,84.06,4.64,117.15A16,16,0,0,0,193,530.41a129.54,129.54,0,0,1,56.31-15.21l3.22-.11,3.23-.12A129.72,129.72,0,0,1,313,526.27a16,16,0,0,0,22.38-12.41c4.71-33.5,1.63-85.15-3.44-117.2C326.69,363.72,168,369.32,165.15,402.42Z"/><path class="cls-1" d="M164.88,404.39c-4.25,32.23-1.94,82.76,4.92,115.18A16,16,0,0,0,193,530.41,129.5,129.5,0,0,1,249.3,515.2l3.22-.11,3.22-.12A129.69,129.69,0,0,1,313,526.27a16,16,0,0,0,22.39-12.41c4.61-32.82,3.43-83.39-3-115.25,1,29.72.66,43-4.78,64.5-2.36,9.34-14.59,16.5-23.72,12-32.82-16.1-73.6-14.68-105.23,3.63-8.8,5.09-20.88,1.68-23.77-7.51C167.86,449.16,167.12,432.46,164.88,404.39Z"/><path class="cls-1" d="M247.93,381.94c32.23-1.12,58.66,7,59.05,18.06s-25.94,6.55-58.17,7.67-58.16,7.44-58.55-3.65S215.7,383.05,247.93,381.94Z"/><path class="cls-1" d="M111.27,433.31c18.77-8.66,39-6.2,42,.25s-13.69,10.31-32.46,19S88.27,471.36,85.3,464.9,92.5,442,111.27,433.31Z"/><path class="cls-1" d="M53.06,522.63c2-13.15,10.57-23.14,15.09-22.43s.65,11-1.39,24.16-1.49,24.16-6,23.45S51,535.77,53.06,522.63Z"/><path class="cls-1" d="M387.8,423.76c-19.32-7.34-39.35-3.49-41.87,3.15s14.37,9.34,33.69,16.68,33.74,16.55,36.27,9.91S407.12,431.11,387.8,423.76Z"/><path class="cls-1" d="M452,508.86c-2.94-13-12.14-22.35-16.6-21.34s.11,11,3.05,24,3.15,24,7.61,23S455,521.83,452,508.86Z"/><path class="cls-1" d="M608.15,460.35a18.05,18.05,0,0,1-29-12.43c-2.43-18.85-13.71-34.8-30.12-42.6l64-54.06L622.8,363c11.65,13.92,16.63,32.75,13.64,51.5A70.85,70.85,0,0,1,608.15,460.35Z"/><path class="cls-1" d="M608.15,460.35a18.05,18.05,0,0,1-29-12.43A54.9,54.9,0,0,0,556,409.36l4.36-13.65L572,385.89l52.83-3.43L616,398.38a108.48,108.48,0,0,1-19,24.85,16.81,16.81,0,0,0-4.12,17.6A14.45,14.45,0,0,0,607,450.5a37.24,37.24,0,0,0,15.44-3.95A72.61,72.61,0,0,1,608.15,460.35Z"/><path class="cls-1" d="M636.2,352.62c-7.55,36.89-35.11,65.35-68.55,74.25-16.5,4.39-32.81-4.69-38-21.17A102.39,102.39,0,0,0,494,354.38L543,264C553.21,245.13,641,329.3,636.2,352.62Z"/><path class="cls-1" d="M548.07,340a78.11,78.11,0,0,0-4.35,32.85c1.13,15.2,9.77,27.92,23.31,33.4a28.9,28.9,0,0,0,28.36-4.16A178.44,178.44,0,0,0,633.8,362c-10,32.28-35.61,56.73-66.15,64.86-16.5,4.39-32.81-4.69-38-21.17A102.39,102.39,0,0,0,494,354.38L543,264C575.84,262.35,549.71,335.35,548.07,340Z"/><path class="cls-1" d="M253.5,308.34a18.06,18.06,0,0,0,29,12.43c15.33-11.23,34.65-14.07,51.62-7.57l-4.95-83.59-15.26,1c-18.12,1.17-35.19,10.53-46.71,25.64A70.88,70.88,0,0,0,253.5,308.34Z"/><path class="cls-1" d="M253.5,308.34a18.06,18.06,0,0,0,29,12.43,54.94,54.94,0,0,1,43.86-9.86l6.88-12.56-.9-15.2L298.4,242.53,293,259.94a109,109,0,0,0-4.92,30.87,16.76,16.76,0,0,1-9.9,15.11,14.42,14.42,0,0,1-16.7-3.52,37.14,37.14,0,0,1-7.79-13.9A72.78,72.78,0,0,0,253.5,308.34Z"/><path class="cls-1" d="M312.17,213.74c-21.5,30.9-23.11,70.49-6.49,100.84,8.2,15,26,20.53,41.54,12.93A102.39,102.39,0,0,1,409,318l31.66-97.86C447.25,199.71,325.77,194.19,312.17,213.74Z"/><path class="cls-1" d="M382.06,268.88a78.12,78.12,0,0,1-20.79,25.81c-11.79,9.66-27,12.17-40.26,6.15a28.9,28.9,0,0,1-16.55-23.41A178.35,178.35,0,0,1,307,221.94c-16.51,29.49-16.54,64.92-1.36,92.64,8.2,15,26,20.53,41.54,12.93A102.39,102.39,0,0,1,409,318l31.66-97.86C419.17,195.2,384.33,264.46,382.06,268.88Z"/><path class="cls-1" d="M418.39,201.57c-16.3,28.05-37.89,75.08-45.64,108a16,16,0,0,0,16.37,19.69,129.42,129.42,0,0,1,57.44,10.18l3,1.27,3,1.27a129.69,129.69,0,0,1,47,34.57A16,16,0,0,0,525,374.83c18.5-28.31,37.7-76.37,46.74-107.52C581.05,235.28,435.09,172.85,418.39,201.57Z"/><path class="cls-1" d="M417.31,203.24c-17.56,27.36-37,74.07-44.55,106.33a16,16,0,0,0,16.37,19.68,129.45,129.45,0,0,1,57.44,10.19l3,1.27,3,1.26a129.85,129.85,0,0,1,47,34.57A16,16,0,0,0,525,374.83c18.13-27.74,38.58-74,46.28-105.59-11.71,27.34-17.68,39.18-31.76,56.34-6.12,7.45-20.23,8.73-26.59.79-22.85-28.52-60.36-44.6-96.78-41.48-10.13.87-19.61-7.35-18.32-16.9C401,245,407.4,229.6,417.31,203.24Z"/><path class="cls-1" d="M502,218.25c29.64,12.71,50.13,31.27,45.75,41.46s-26.25-5.09-55.89-17.79-55.81-18-51.44-28.21S472.38,205.55,502,218.25Z"/><path class="cls-1" d="M356.49,206.6c20.67.15,37.95,11,37.89,18.09s-16.77,3.51-37.44,3.36-37.45,3.21-37.4-3.9S335.82,206.45,356.49,206.6Z"/><path class="cls-1" d="M265.81,262.67c7.44-11,19.41-16.44,23.2-13.88s-4.1,10.25-11.54,21.28-11.62,21.23-15.41,18.67S258.36,273.7,265.81,262.67Z"/><path class="cls-1" d="M610.81,315.61c-14.36-14.86-34.12-19.91-39.24-15s9,14.57,23.4,29.44,23.49,29.32,28.61,24.39S625.17,330.47,610.81,315.61Z"/><path class="cls-1" d="M632.74,420c2.85-13-1.48-25.4-6-26.38s-4.6,10-7.46,23-7.35,23.06-2.89,24S629.88,432.94,632.74,420Z"/><path class="cls-1" d="M445.09,132.3A18,18,0,0,1,418.29,149c-16.84-8.81-36.37-8.71-52.17.27l-7.66-83.4L373.7,64.5c18.08-1.56,36.36,5.14,50,18.34A70.8,70.8,0,0,1,445.09,132.3Z"/><path class="cls-1" d="M445.09,132.3A18,18,0,0,1,418.29,149a54.92,54.92,0,0,0-44.84-3.17l-8.69-11.38-1.39-15.16L390.83,74l8,16.4a108.59,108.59,0,0,1,9.5,29.78,16.79,16.79,0,0,0,12.06,13.45,14.43,14.43,0,0,0,16-6A37.26,37.26,0,0,0,442,112.71,72.54,72.54,0,0,1,445.09,132.3Z"/><path class="cls-1" d="M372.88,47.58c25.9,27.33,33.44,66.22,21.57,98.73-5.86,16-22.64,24.2-39.13,19a102.4,102.4,0,0,0-62.51-.16l-46-92C237.23,54,356.51,30.3,372.88,47.58Z"/><path class="cls-1" d="M312.07,112.6A78.08,78.08,0,0,0,336.5,135c13.11,7.78,28.48,8,40.73,0a28.89,28.89,0,0,0,12.84-25.62,178.08,178.08,0,0,0-10.88-54.47c20.75,26.66,26.1,61.69,15.26,91.38-5.86,16-22.64,24.2-39.13,19a102.4,102.4,0,0,0-62.51-.16l-46-92C264.31,45.33,309.16,108.57,312.07,112.6Z"/><path class="cls-1" d="M117.3,335.85a18.05,18.05,0,0,0,26.81-16.64c-.43-19,8.32-36.46,23.37-46.64L96.13,228.73,88.19,241.8c-9.42,15.51-11.52,34.87-5.75,53A70.85,70.85,0,0,0,117.3,335.85Z"/><path class="cls-1" d="M117.3,335.85a18.05,18.05,0,0,0,26.81-16.64,54.9,54.9,0,0,1,17-41.6l-6.36-12.83-13-8L89.1,261.35l11.16,14.41a108.37,108.37,0,0,0,22.48,21.72,16.82,16.82,0,0,1,6.71,16.78A14.43,14.43,0,0,1,117,325.93a37.22,37.22,0,0,1-15.86-1.58A73.08,73.08,0,0,0,117.3,335.85Z"/><path class="cls-1" d="M73.39,233.57c13,35.32,44.53,59.32,78.92,63.1,17,1.86,31.73-9.56,34.4-26.64a102.44,102.44,0,0,1,27.57-56.1l-62.06-82C139.29,114.82,65.16,211.22,73.39,233.57Z"/><path class="cls-1" d="M158.63,207.88a78.26,78.26,0,0,1,9.23,31.83c1.17,15.2-5.46,29.07-18,36.52a28.89,28.89,0,0,1-28.66.15,178.65,178.65,0,0,1-44-33.9c14.71,30.41,43.73,50.74,75.14,54.19,17,1.86,31.73-9.56,34.4-26.64a102.44,102.44,0,0,1,27.57-56.1l-62.06-82C119.5,135.25,156.31,203.49,158.63,207.88Z"/><path class="cls-1" d="M124.28,139.54c13.64,29.43,39.81,74.07,62.36,99.28a16,16,0,0,0,25.51-2.14,129.59,129.59,0,0,1,41.26-41.24l2.74-1.7,2.74-1.7a129.47,129.47,0,0,1,55.25-18.69,16,16,0,0,0,13.23-21.92c-12.6-31.39-41-74.66-61.34-99.92C245.1,25.55,110.31,109.39,124.28,139.54Z"/><path class="cls-1" d="M125,141.38c12.36,30.07,39.52,72.74,61.61,97.44a16,16,0,0,0,25.51-2.14,129.59,129.59,0,0,1,41.26-41.24l2.74-1.7,2.74-1.7a129.58,129.58,0,0,1,55.25-18.7,16,16,0,0,0,13.24-21.91c-12.35-30.76-38.55-74-60-98.43,15.71,25.26,22,36.93,28,58.31,2.61,9.28-4.43,21.58-14.57,22.24-36.47,2.39-71.14,23.92-89.45,55.55-5.1,8.8-17.27,11.86-24.36,5.33C149.91,178.72,141,164.61,125,141.38Z"/><path class="cls-1" d="M185.87,80.56c27.39-17,54.35-23.17,60.2-13.74s-19.22,18.6-46.62,35.61-46.74,35.42-52.59,26S158.47,97.57,185.87,80.56Z"/><path class="cls-1" d="M92.94,193.15c12-16.85,30.74-24.8,36.54-20.69s-6.75,15.77-18.71,32.62S91.94,237.6,86.15,233.49,81,210,92.94,193.15Z"/><path class="cls-1" d="M86.93,299.6c-4.78-12.42-2.36-25.33,1.92-27s6.05,9.23,10.82,21.65,10.74,21.69,6.47,23.33S91.7,312,86.93,299.6Z"/><path class="cls-1" d="M328,47.19c-20.41,3.25-35.86,16.56-34.74,23.57s17.11.95,37.52-2.3S368.28,66,367.16,59,348.4,43.93,328,47.19Z"/><path class="cls-1" d="M426.07,89c-9-9.79-21.66-13.34-25-10.24s5.58,9.52,14.6,19.31,14.68,19.24,18,16.14S435.08,98.79,426.07,89Z"/><path class="cls-2" d="M411.17,123.38A18.05,18.05,0,0,1,384.36,140c-16.83-8.8-36.37-8.7-52.16.28l-7.66-83.4,15.23-1.32c18.09-1.56,36.37,5.13,50,18.33A70.88,70.88,0,0,1,411.17,123.38Z"/><path class="cls-3" d="M411.17,123.38A18.05,18.05,0,0,1,384.36,140a55,55,0,0,0-44.84-3.16l-8.68-11.39-1.4-15.15L356.9,65.06l8,16.4a108.52,108.52,0,0,1,9.5,29.77,16.79,16.79,0,0,0,12.06,13.46,14.44,14.44,0,0,0,16-6,37.14,37.14,0,0,0,5.6-14.91A72.55,72.55,0,0,1,411.17,123.38Z"/><path class="cls-4" d="M339,38.66c25.9,27.33,33.43,66.22,21.57,98.72-5.86,16.05-22.65,24.2-39.14,19a102.29,102.29,0,0,0-62.5-.16l-46-92C203.31,45.08,322.58,21.38,339,38.66Z"/><path class="cls-5" d="M278.14,103.67a78,78,0,0,0,24.44,22.4c13.1,7.78,28.47,8,40.72,0a28.92,28.92,0,0,0,12.85-25.63A178.21,178.21,0,0,0,345.26,46c20.75,26.67,26.11,61.7,15.27,91.38-5.86,16.05-22.65,24.2-39.14,19a102.29,102.29,0,0,0-62.5-.16l-46-92C230.39,36.4,275.24,99.65,278.14,103.67Z"/><path class="cls-2" d="M83.38,326.93a18.06,18.06,0,0,0,26.81-16.65c-.44-19,8.32-36.45,23.37-46.63L62.21,219.8l-7.94,13.08c-9.42,15.51-11.52,34.87-5.75,53A70.84,70.84,0,0,0,83.38,326.93Z"/><path class="cls-3" d="M83.38,326.93a18.06,18.06,0,0,0,26.81-16.65,54.87,54.87,0,0,1,17-41.59l-6.35-12.84-13-8-52.74,4.54,11.16,14.41a108.87,108.87,0,0,0,22.48,21.72,16.8,16.8,0,0,1,6.72,16.78A14.45,14.45,0,0,1,83.07,317a37.23,37.23,0,0,1-15.86-1.59A72.62,72.62,0,0,0,83.38,326.93Z"/><path class="cls-4" d="M39.46,224.64C52.47,260,84,284,118.39,287.75c17,1.86,31.73-9.57,34.4-26.64A102.44,102.44,0,0,1,180.36,205L118.3,123C105.37,105.9,31.23,202.3,39.46,224.64Z"/><path class="cls-5" d="M124.7,199a78.08,78.08,0,0,1,9.24,31.83c1.16,15.2-5.47,29.07-18,36.52a28.89,28.89,0,0,1-28.66.15,178.51,178.51,0,0,1-44-33.91C58,264,87,284.3,118.39,287.75c17,1.86,31.73-9.57,34.4-26.64A102.44,102.44,0,0,1,180.36,205L118.3,123C85.58,126.33,122.38,194.57,124.7,199Z"/><path class="cls-6" d="M90.35,130.61c13.65,29.44,39.82,74.08,62.36,99.29a16,16,0,0,0,25.51-2.14,129.69,129.69,0,0,1,41.26-41.24l2.74-1.7,2.74-1.7a129.71,129.71,0,0,1,55.25-18.7,16,16,0,0,0,13.24-21.91c-12.6-31.39-41-74.66-61.35-99.92C211.18,16.62,76.38,100.47,90.35,130.61Z"/><path class="cls-7" d="M91.11,132.46c12.35,30.07,39.52,72.74,61.61,97.44a16,16,0,0,0,25.51-2.15,129.56,129.56,0,0,1,41.26-41.23l2.74-1.7,2.74-1.7a129.48,129.48,0,0,1,55.25-18.7,16,16,0,0,0,13.23-21.92c-12.34-30.75-38.54-74-60-98.43,15.7,25.26,22,36.94,28,58.32,2.6,9.27-4.43,21.57-14.58,22.24-36.47,2.39-71.14,23.91-89.45,55.54C152.28,189,140.1,192,133,185.51,116,169.8,107,155.69,91.11,132.46Z"/><path class="cls-8" d="M151.94,71.64c27.4-17,54.35-23.17,60.2-13.75S192.92,76.5,165.53,93.51s-46.75,35.41-52.6,26S124.55,88.65,151.94,71.64Z"/><path class="cls-6" d="M59,184.23c12-16.85,30.74-24.8,36.54-20.69s-6.74,15.76-18.7,32.61S58,228.68,52.22,224.56,47.05,201.08,59,184.23Z"/><path class="cls-4" d="M53,290.68c-4.77-12.42-2.35-25.33,1.92-27s6,9.23,10.83,21.65,10.74,21.69,6.46,23.33S57.78,303.1,53,290.68Z"/><path class="cls-6" d="M294.07,38.26c-20.41,3.26-35.87,16.56-34.75,23.58s17.12.95,37.53-2.3,37.5-2.46,36.38-9.48S314.48,35,294.07,38.26Z"/><path class="cls-4" d="M392.15,80.08c-9-9.79-21.66-13.34-25-10.24s5.59,9.52,14.61,19.3,14.67,19.24,18,16.14S401.16,89.86,392.15,80.08Z"/><path class="cls-2" d="M576.39,442.1a18.06,18.06,0,0,1-29-12.43c-2.43-18.85-13.7-34.8-30.11-42.6l64-54.07,9.81,11.74c11.64,13.92,16.63,32.74,13.64,51.5A70.82,70.82,0,0,1,576.39,442.1Z"/><path class="cls-3" d="M576.39,442.1a18.06,18.06,0,0,1-29-12.43,54.87,54.87,0,0,0-23.1-38.56l4.35-13.65,11.63-9.83,52.82-3.43-8.87,15.93a108.66,108.66,0,0,1-19,24.85,16.79,16.79,0,0,0-4.12,17.6,14.43,14.43,0,0,0,14.07,9.66,36.93,36.93,0,0,0,15.43-3.95A72.38,72.38,0,0,1,576.39,442.1Z"/><path class="cls-4" d="M604.45,334.37c-7.56,36.89-35.12,65.35-68.55,74.25-16.51,4.39-32.81-4.69-38-21.17a102.32,102.32,0,0,0-35.68-51.32l49-90.42C521.46,226.88,609.23,311.05,604.45,334.37Z"/><path class="cls-5" d="M516.32,321.79A78.09,78.09,0,0,0,512,354.64c1.13,15.2,9.77,27.91,23.31,33.4a28.91,28.91,0,0,0,28.36-4.16A178.22,178.22,0,0,0,602,343.75c-10,32.29-35.6,56.74-66.14,64.87-16.51,4.39-32.81-4.69-38-21.17a102.32,102.32,0,0,0-35.68-51.32l49-90.42C544.09,244.1,518,317.1,516.32,321.79Z"/><path class="cls-2" d="M221.75,290.09a18.05,18.05,0,0,0,29,12.43c15.32-11.24,34.65-14.07,51.62-7.57l-4.95-83.6-15.27,1C264,213.5,247,222.87,235.45,238A70.82,70.82,0,0,0,221.75,290.09Z"/><path class="cls-3" d="M221.75,290.09a18.05,18.05,0,0,0,29,12.43,54.85,54.85,0,0,1,43.86-9.86l6.88-12.57-.9-15.19-33.95-40.62-5.41,17.41a108.21,108.21,0,0,0-4.92,30.86,16.8,16.8,0,0,1-9.91,15.12,14.43,14.43,0,0,1-16.7-3.52,37,37,0,0,1-7.78-13.9A72.38,72.38,0,0,0,221.75,290.09Z"/><path class="cls-4" d="M280.42,195.48c-21.5,30.91-23.11,70.5-6.5,100.85,8.2,15,26,20.52,41.55,12.93a102.35,102.35,0,0,1,61.77-9.55l31.66-97.86C415.5,181.46,294,175.94,280.42,195.48Z"/><path class="cls-5" d="M350.3,250.63a78,78,0,0,1-20.79,25.81c-11.78,9.66-26.95,12.17-40.26,6.14a28.88,28.88,0,0,1-16.54-23.4,178.64,178.64,0,0,1,2.57-55.49c-16.5,29.48-16.54,64.91-1.36,92.64,8.2,15,26,20.52,41.55,12.93a102.35,102.35,0,0,1,61.77-9.55l31.66-97.86C387.42,177,352.58,246.21,350.3,250.63Z"/><path class="cls-6" d="M386.64,183.31c-16.31,28.05-37.9,75.08-45.64,108A16,16,0,0,0,357.37,311a129.73,129.73,0,0,1,57.44,10.19l3,1.27,3,1.27a129.49,129.49,0,0,1,47,34.57,16,16,0,0,0,25.54-1.72c18.51-28.3,37.7-76.36,46.74-107.52C549.29,217,403.34,154.59,386.64,183.31Z"/><path class="cls-7" d="M385.56,185c-17.57,27.36-37,74.07-44.56,106.32A16,16,0,0,0,357.38,311a129.68,129.68,0,0,1,57.43,10.19l3,1.27,3,1.27a129.57,129.57,0,0,1,47,34.57,16,16,0,0,0,25.55-1.71c18.13-27.74,38.57-74,46.27-105.59-11.7,27.34-17.68,39.17-31.76,56.34-6.11,7.44-20.22,8.73-26.58.79-22.86-28.52-60.36-44.6-96.78-41.48-10.13.86-19.61-7.36-18.32-16.91C369.2,226.78,375.64,211.35,385.56,185Z"/><path class="cls-8" d="M470.26,200c29.64,12.7,50.13,31.27,45.76,41.46s-26.26-5.09-55.9-17.8-55.81-18-51.44-28.21S440.62,187.29,470.26,200Z"/><path class="cls-6" d="M324.73,188.35c20.67.15,37.95,11,37.9,18.09s-16.78,3.51-37.45,3.36-37.44,3.2-37.39-3.9S304.07,188.2,324.73,188.35Z"/><path class="cls-4" d="M234.05,244.42c7.45-11,19.41-16.44,23.2-13.88s-4.09,10.25-11.53,21.28S234.09,273,230.3,270.48,226.61,255.45,234.05,244.42Z"/><path class="cls-6" d="M579.05,297.36c-14.36-14.87-34.12-19.91-39.23-15s9,14.57,23.39,29.43,23.5,29.33,28.61,24.39S593.41,312.22,579.05,297.36Z"/><path class="cls-4" d="M601,401.7c2.86-13-1.48-25.4-6-26.38s-4.6,10-7.45,23-7.36,23.06-2.89,24S598.13,414.69,601,401.7Z"/><path class="cls-2" d="M422.35,522.38a18,18,0,0,1-31.53,1.09c-10.21-16-27.2-25.66-45.37-25.74l34.88-76.14L394.2,428c16.46,7.64,29,22.55,34.25,40.8A70.81,70.81,0,0,1,422.35,522.38Z"/><path class="cls-3" d="M422.35,522.38a18,18,0,0,1-31.53,1.09,54.92,54.92,0,0,0-37.31-25.07l-1.86-14.2L358,470.36l46.35-25.58L403.08,463a109.14,109.14,0,0,1-6.59,30.55,16.79,16.79,0,0,0,3.76,17.68A14.44,14.44,0,0,0,417.09,514a37.27,37.27,0,0,0,12.29-10.15A72.22,72.22,0,0,1,422.35,522.38Z"/><path class="cls-4" d="M401.92,413c8.85,36.6-4,74.08-30.46,96.35-13.07,11-31.68,9.72-43.41-3a102.39,102.39,0,0,0-54.12-31.27l5.91-102.68C281.08,351,396.32,389.81,401.92,413Z"/><path class="cls-5" d="M316.8,439.05a78.13,78.13,0,0,0,10,31.59c7.49,13.27,20.72,21.11,35.31,20.31A28.9,28.9,0,0,0,386,475.12a178.35,178.35,0,0,0,17.69-52.66c4.71,33.46-8.08,66.5-32.27,86.84-13.07,11-31.68,9.72-43.41-3a102.39,102.39,0,0,0-54.12-31.27l5.91-102.68C308.89,356.94,316.29,434.12,316.8,439.05Z"/><path class="cls-2" d="M36.73,535.69a18.05,18.05,0,0,0,31.54-1.09c9.08-16.69,25.37-27.48,43.49-28.81l-40-73.55-13.4,7.38C42.43,448.39,31,464.13,27,482.7A70.9,70.9,0,0,0,36.73,535.69Z"/><path class="cls-3" d="M36.73,535.69a18.05,18.05,0,0,0,31.54-1.09A54.91,54.91,0,0,1,103.77,507l.87-14.3-7.27-13.37L49.37,457l2.5,18.06a108.78,108.78,0,0,0,8.68,30A16.77,16.77,0,0,1,58,523a14.43,14.43,0,0,1-16.61,3.92,36.94,36.94,0,0,1-13-9.27A72.72,72.72,0,0,0,36.73,535.69Z"/><path class="cls-4" d="M49.58,425.11c-6.31,37.12,9.08,73.63,37,94,13.8,10.07,32.29,7.5,43.1-6a102.49,102.49,0,0,1,51.85-34.92l-13-102C165.86,355,53.57,401.64,49.58,425.11Z"/><path class="cls-5" d="M136.29,445.28a78.12,78.12,0,0,1-7.84,32.21c-6.55,13.75-19.21,22.48-33.82,22.69A28.92,28.92,0,0,1,69.7,486a178.43,178.43,0,0,1-21.27-51.32C46,468.43,61.08,500.51,86.6,519.14c13.8,10.07,32.29,7.5,43.1-6a102.49,102.49,0,0,1,51.85-34.92l-13-102C138.53,362.81,136.47,440.32,136.29,445.28Z"/><path class="cls-6" d="M140.54,368.91c-2.83,32.32-2.36,84.07,4.64,117.15a16,16,0,0,0,23.19,10.85,129.51,129.51,0,0,1,56.31-15.22l3.22-.11,3.22-.11a129.55,129.55,0,0,1,57.23,11.3,16,16,0,0,0,22.39-12.42c4.7-33.49,1.63-85.15-3.45-117.19C302.08,330.22,143.43,335.81,140.54,368.91Z"/><path class="cls-7" d="M140.27,370.88c-4.26,32.24-2,82.76,4.91,115.18a16,16,0,0,0,23.19,10.85,129.56,129.56,0,0,1,56.32-15.22l3.22-.11,3.22-.11a129.58,129.58,0,0,1,57.23,11.3,16,16,0,0,0,22.38-12.42c4.61-32.82,3.43-83.38-3-115.25,1,29.73.67,43-4.78,64.5-2.36,9.34-14.58,16.51-23.71,12C246.39,425.54,205.61,427,174,445.26c-8.81,5.1-20.88,1.69-23.78-7.5C143.25,415.66,142.51,399,140.27,370.88Z"/><path class="cls-8" d="M223.31,348.43c32.23-1.11,58.67,7,59.05,18.06s-25.93,6.56-58.16,7.67-58.17,7.44-58.55-3.64S191.08,349.55,223.31,348.43Z"/><path class="cls-6" d="M86.66,399.8c18.76-8.65,39-6.2,42,.25S115,410.37,96.19,419,63.66,437.85,60.68,431.4,67.89,408.46,86.66,399.8Z"/><path class="cls-4" d="M28.44,489.12C30.49,476,39,466,43.54,466.69s.65,11-1.4,24.17-1.48,24.15-6,23.45S26.4,502.27,28.44,489.12Z"/><path class="cls-6" d="M363.18,390.26c-19.32-7.34-39.34-3.5-41.87,3.14s14.37,9.35,33.69,16.69,33.75,16.55,36.27,9.9S382.5,397.6,363.18,390.26Z"/><path class="cls-4" d="M427.42,475.35c-2.95-13-12.14-22.35-16.61-21.33s.11,11,3.06,24,3.15,24,7.61,23S430.37,488.33,427.42,475.35Z"/></svg>