<svg id="Layer_1" data-name="Layer 1" xmlns="http://www.w3.org/2000/svg" viewBox="0 0 655 697"><defs><style>.cls-1{fill:#ed92b1;}.cls-2{fill:red;}.cls-3{fill:#ff8080;}.cls-4{fill:#e9779d;}.cls-5{fill:#c00;}.cls-6{fill:#e9c0af;}.cls-7{fill:#b1816c;}.cls-8{fill:#dda187;}.cls-9{fill:#ba9a8c;}.cls-10{fill:#d89173;}</style></defs><title>cupcake-05</title><path class="cls-1" d="M307.71,0c-16.6,3.09-33.67,12.05-40.8,28.1-16.93-7-34.57-12.2-52.22-17,20,23.82,14.94,62.06-4.6,86-49.77,66.19-126.44,103.75-185,160.85a7.51,7.51,0,0,0-2.5-.42c-2,.09-2.66,1.68-1.66,4.64C11.25,274.56,1.27,287.88,0,304.07V305c2.23,18.66,18.83,30.05,32.9,40.17C46.43,434.08,59.46,523.08,73,612c1.44,15.09,4.56,30,5.59,45.12,6.81,11,21,13.84,32.36,17.84,9.62,3.67,19.79,5.73,29.92,7.44,14.34,2.53,28.78,4.43,43.15,6.77,10.63,1.17,21.24,2.58,31.94,2.78,13.34,1.58,26.78,2,40.15,3.3,10.28.57,20.59.83,30.89.72,7.72,0,15.45-.08,23.18.08l-.33,1h44.84l.48-.88,2-.07c15.38,0,30.74-.94,46.09-1.72,8.41-.5,17-.29,25.25-2.06,13.64-.52,27.16-2.42,40.72-3.9q14.48-1.62,28.82-4.32c13.78-3,27.7-5.54,41.21-9.64,10.32-3.79,22.43-7.15,28.66-16.79,7.86-61.26,17.38-122.42,26.76-183.52C600.69,431,606.8,387.92,614,345a83.91,83.91,0,0,0,41-69.14v-2.79c-2.55-44.24-29.74-82.64-61.4-111.71-34.21-31-76.54-51.8-120.72-64.41a45.19,45.19,0,0,0,3.38-11,28.39,28.39,0,0,0,0-10.07,37.26,37.26,0,0,0-1.45-6c-6.76-17.64-25.47-28-43.68-29.28-2.84,0-5.64,0-8.45,0l-2.81,0c-16,1.2-32.82,8.82-41.19,23.08a115.49,115.49,0,0,1-12.78-4.67c5.06-8.33,5.88-19,2.91-28.16C362.59,12.93,344,3.24,326.2,0ZM419.87,40.71c3.76-.09,7.48,0,11.26,0a33.34,33.34,0,0,0-4.23-.25c-2.35,0-4.69.16-7,.28Z"/><path class="cls-2" d="M307.71,0c-16.6,3.09-33.67,12.05-40.8,28.1C259.3,45.49,268.17,66.86,285,75c33.66,9.57,77.48-6.36,83.79-44C362.59,12.93,344,3.24,326.2,0Zm-.42,8.59C323.17,8.2,341,19.27,338.85,36.66c-6.52,27.23-51.14,28.73-61.21,3.51-5.71-14.71,8.82-29.36,23-30.7a29.67,29.67,0,0,1,6.63-.88ZM422.68,40.67l-2.82,0c-16,1.2-32.82,8.82-41.19,23.08A44,44,0,0,0,373.87,81c.21,13.77,9,26,20.87,32.27,32.2,8.46,75.09-6.76,80.06-43.34C468,52.32,449.33,42,431.12,40.68c-2.83,0-5.64,0-8.44,0Zm-6.34,8c15.93-.06,33.54,12.16,29.16,29.6-8.05,22.89-44.8,24.28-57.16,4.39-8.46-15.12,6-31.87,21.34-33.19a28.15,28.15,0,0,1,6.65-.8ZM319.88,89.84c-1.32,0-2.64,0-3.94.08-9.46.2-18.51,3.2-26.86,7.46-10.23,6.3-19,16-21.22,28.1-.09,6.67.4,13.43,3.2,19.56,4.4,6.74,9.46,13.54,16.84,17.17,32.1,9.13,75.07-5.92,80.46-42.41-6.6-19.92-28.59-29.7-48.48-30Zm-8.65,8.06c15.72.43,33.17,13.09,28,30.13-9.15,23.56-48.6,23.84-58.37.59-5.59-15.62,9.42-28.74,23.81-30.13a27.31,27.31,0,0,1,6.56-.59Z"/><path class="cls-3" d="M307.29,8.59a29.67,29.67,0,0,0-6.63.88c-14.2,1.34-28.73,16-23,30.7,10.07,25.22,54.69,23.72,61.21-3.51C341,19.27,323.17,8.2,307.29,8.59ZM426.9,40.43c-2.35,0-4.69.16-7,.28,3.76-.09,7.48,0,11.26,0a33.34,33.34,0,0,0-4.23-.25Zm-10.56,8.23a28.24,28.24,0,0,0-6.66.8c-15.33,1.32-29.8,18.07-21.34,33.19,12.36,19.89,49.11,18.5,57.16-4.39,4.39-17.44-13.23-29.66-29.16-29.6Zm59.92,27.26c0,3.35.09,6.72,0,10.07A28.39,28.39,0,0,0,476.26,75.92Zm-165,22a27.4,27.4,0,0,0-6.56.59c-14.39,1.39-29.4,14.51-23.81,30.13,9.77,23.25,49.22,23,58.37-.59,5.17-17-12.28-29.7-28-30.13Z"/><path class="cls-4" d="M214.69,11.1c20,23.82,14.94,62.06-4.6,86-49.77,66.19-126.44,103.75-185,160.85-1.39,1.41-2.76,2.83-4.16,4.22C11.25,274.56,1.27,287.88,0,304.07V305c2.23,18.66,18.83,30.05,32.9,40.17,1,.64,2.09,1.27,3.15,1.9,8.28,4.27,16.93,7.77,25.09,12.28,10.72,1.76,20.93,6,31.88,6.62,13.25,2,26.63.09,39.84-1.22,13.74-2.52,27-6.86,40-11.92,4.47-2.5,8.87-5.46,13.9-6.66,7.48,15.42,23.46,22.93,39.14,27.25,16.14,3.39,32.5,6.33,49.08,5.54,18.5-.53,36.63-4.82,53.83-11.52,14.06-8.11,27.75-16.95,39.26-28.52,4.26,6.16,8.25,12.5,12.94,18.36,13.69,12.54,32.67,18.84,51.12,15.85C447.71,372,463,368.59,478,364.2c16.48-4.75,32.24-25.43,46.08-6.35,9.94,5.26,21.3,8.93,32.66,7.44,12.29-.6,23.93-4.87,35.5-8.71,5.87-2.9,11.89-5.52,17.69-8.6,1.36-1,2.76-2,4.16-2.94a83.91,83.91,0,0,0,41-69.14v-2.79c-2.55-44.24-29.74-82.64-61.4-111.71-34.21-31-76.54-51.8-120.72-64.41-6.65,10.65-17.19,18.13-29,22,32.48,26.37,61.84,59,76.29,98.84C530.9,246,531.17,279,517,306c-16,35.57-58.68,54.5-96.22,49.29-19-2-34-17.74-37.27-36.14,45.44-70.15,29.74-168-25.75-228a109.25,109.25,0,0,1-11.73-14,64.88,64.88,0,0,1-32.32,6.65c2.15,1.09,7.21,5.93,2.22,6.08,20.83-1.08,45.38,8.63,52.42,29.88a33,33,0,0,1-5.14,31.08c19,33,22.69,74.46,15.15,111.51-11.73,56.42-68.05,106.23-127.83,93.07-14.69-2.54-34.17-10.4-36.25-26.9,49.89-38.09,82.85-97.12,87.92-159.82a84.71,84.71,0,0,1-14.31-6.53c-7.38-3.63-12.44-10.43-16.84-17.17,9.28,89.83-58.14,185.87-149.94,197.12C93,345.77,60,341.33,40.6,318.45c-9.12-10.11-10.32-26.76-1.43-37.35C102.8,209,205.72,173.92,248,82.87c10.32,12,14.58,28,19.83,42.61,2.24-12.09,11-21.8,21.22-28.1-6.95-4.74-3.8-14.55-4.09-21.6l0-.82c-16.85-8.1-25.72-29.47-18.11-46.86-16.93-7-34.57-12.2-52.22-17Zm151.21,48A77.27,77.27,0,0,1,352,74c7.5,1.57,14.67,4.34,21.84,7a44,44,0,0,1,4.8-17.24,115.49,115.49,0,0,1-12.78-4.67Zm105.47,56.75a257.21,257.21,0,0,1,123.32,73.44C620,217.17,638,255.92,630.05,294.07c-11.69,34.49-51.94,61.45-88.21,50-4.8-3-16.94-5-15.41-12.49C549.55,304.08,554.09,265,545,231c-10.53-45.37-40.75-84.26-73.66-115.1Z"/><path class="cls-5" d="M368.81,31C362.5,68.6,318.68,84.53,285,75l0,.82c9,4.33,18.57,8.06,28.73,8.06A64.88,64.88,0,0,0,346,77.19c2-1,4-2.12,6-3.15A77.27,77.27,0,0,0,365.9,59.12c5.06-8.33,5.88-19,2.91-28.16Zm106,39c-5,36.58-47.86,51.8-80.06,43.34,14.55,9.13,32.8,11,49.09,5.71,11.85-3.89,22.39-11.37,29-22a45.19,45.19,0,0,0,3.38-11c.09-3.35,0-6.72,0-10.07a37.26,37.26,0,0,0-1.45-6ZM368.36,119.8C363,156.29,320,171.34,287.9,162.21a84.71,84.71,0,0,0,14.31,6.53c21.37,5.79,47,.12,61-17.86a33,33,0,0,0,5.14-31.08Z"/><path class="cls-6" d="M22.55,257.5c-2,.09-2.66,1.68-1.66,4.64,1.4-1.39,2.77-2.81,4.16-4.22a7.55,7.55,0,0,0-2.5-.42ZM32.9,345.17C46.43,434.08,59.46,523.08,73,612c9.77,2.83,19.32,6.45,29.26,8.69C88.58,535.88,74.85,451.08,61.62,366.2c-.1-.41-.31-1.24-.42-1.65-9.9-3-17.77-10.53-25.15-17.48-1.06-.63-2.11-1.26-3.15-1.9Zm162.08,15c-6.22,3.12-12.18,6.87-18.81,9.11,9.92,89.14,21.92,178.23,33.5,267.17,10.7,4,26.5.75,39.17,1.5-7-83.91-14.84-167.78-22.05-251.69-.23-.38-.69-1.15-.91-1.53-14-1.86-24.52-12.63-30.9-24.56Zm304.57,1.53c-7.7,4.12-14.54,9.82-22.69,13.08-10.74,72.73-22.41,145.35-32.93,218.11,14.84-5.56,28.49-14,42.4-21.53.11-.38.34-1.15.46-1.54,10.69-64.58,23.3-128.87,33.18-193.56-7.69-3.56-13.93-9.25-20.42-14.56Zm90.64,2.23a174.25,174.25,0,0,1-34.38,13.91l-.79.33c-8.87,55-20,109.68-29.49,164.61,15.92-9.5,27.65-24.57,41.41-36.76.3-1,.61-2,.93-3,6.41-46.5,17-92.47,22.32-139ZM380.05,374.28c-6.18,82.49-11.48,165.05-17,247.59a192.91,192.91,0,0,0,41.41-12.78c8.39-74,17.14-147.92,25.63-221.89-17.84,3.55-36-1.76-50.05-12.92ZM96.29,378.45c10.34,83.32,27.45,166.22,39.51,249.48l1.25,1.21c12.44,1.69,24.78,4.24,37.3,5.31Q155.5,507.08,135.18,379.84c-12.89,1.94-26.23,1.93-38.89-1.39Zm232.79,2.44C312.83,389.47,294.31,393,276,393.14c2.47,80.88,5.82,161.78,9.17,242.63,13.31-.78,26.68-2.21,39.65-5.38,2.76-83.13,2.3-166.35,4.24-249.5Zm14.35,315c-6.49,0-13,.21-19.48.46-4.62,0-9.21-.36-13.81-.34l-.33,1h44.84l.48-.88q-5.85-.21-11.69-.19Z"/><path class="cls-7" d="M368.05,338.92c-11.51,11.57-25.2,20.41-39.26,28.52.08,4.48.19,8.95.29,13.45,14.26-6.33,25.73-17,36.77-27.75,4,6.59,7.58,13.57,13.25,19,.9-4.91,2-9.81,1.89-14.83-4.69-5.86-8.68-12.2-12.94-18.36ZM609.88,348c-5.8,3.08-11.82,5.7-17.69,8.6-.08,1.6-.12,3.21-.18,4.81A39,39,0,0,0,609.88,348Zm-437,4.85c-13,5.06-26.24,9.4-40,11.92a62.59,62.59,0,0,1,2.32,15.09,120.28,120.28,0,0,0,41-10.59q-1.36-8.28-3.33-16.42Zm351.19,5c-1.41,6.11-2.74,12.24-4.06,18.38,11.12,4.47,23.45,4.45,35,1.91l.79-.33c.49-4.15,2-8.37.88-12.52-11.36,1.49-22.72-2.18-32.66-7.44Zm-462.89,1.5c0,1.73,0,3.46.06,5.2.11.41.32,1.24.42,1.65,10.76,4.67,21.27,10.36,33.15,11.61A110.06,110.06,0,0,0,93,366c-11-.61-21.16-4.86-31.88-6.62ZM478,364.2c-15,4.39-30.24,7.84-45.84,8.93-.64,4.69-1.14,9.41-2,14.07,16.08-1.73,32.08-5.55,46.76-12.45.39-3.51.68-7.05,1.09-10.55Zm-252.07,9.22c0,3.75,0,7.51,0,11.28.22.38.68,1.15.91,1.53,16.06,4.28,32.54,7.3,49.23,6.91-.16-4.74-.45-9.48-1.06-14.18-16.58.79-32.94-2.15-49.08-5.54Z"/><path class="cls-8" d="M614,345c-1.4,1-2.8,1.94-4.16,2.94A39,39,0,0,1,592,361.39c-.61.84-1.22,1.67-1.82,2.51-5.27,46.58-15.91,92.55-22.32,139.05,11.11-7.15,16.61-23.6,26.73-28.85C600.69,431,606.8,387.92,614,345Zm-248.19,8.1c-11,10.71-22.51,21.42-36.77,27.75-1.94,83.15-1.48,166.37-4.24,249.5-13,3.17-26.34,4.6-39.65,5.38-3.35-80.85-6.7-161.75-9.17-242.63-16.69.39-33.17-2.63-49.23-6.91C234,470.14,241.86,554,248.84,637.92c-12.67-.75-28.47,2.46-39.17-1.5-11.58-88.94-23.58-178-33.5-267.17a120.28,120.28,0,0,1-41,10.59Q155.52,507,174.35,634.45c-12.52-1.07-24.86-3.62-37.3-5.31,1.83,16.75,5.49,33.24,7.79,49.92.81,2.54-2.3,2.83-4,3.34,14.34,2.53,28.78,4.43,43.15,6.77-4.65-17.62-6.64-36-8.86-54.12,10.68,4.46,35.81-6.15,35.95,11,1.47,15.3,4.7,30.46,4.85,45.86,13.34,1.58,26.78,2,40.15,3.3-5.95-17.29-4.67-38.33-6.68-56.94,11.71-.91,23.48-1.49,35.22-2,2.31,19.74,2,39.76,2.35,59.62,7.72,0,15.45-.08,23.18.08,4.6,0,9.19.29,13.81.34-1-18.06,1.94-36.16,1-54.25.86-4.32-2.46-13.95,5.57-12.78,10.86-1.15,21.2-5.89,32.12-6.07-1.5,24.23-3.21,48.56-5.59,72.76,15.38,0,30.74-.94,46.09-1.72-3.48-.66-10.94,2.55-7.47-4.79,2.94-26.45,5.55-53,9.14-79.36,12.6-5,24.93-11.66,37.94-15.07-4.05,32.45-10.8,64.62-14.36,97.16,13.64-.52,27.16-2.42,40.72-3.9-1.5-.1-3.45,0-2.57-2,6.4-38.36,13.09-76.67,19.75-115-13.91,7.55-27.56,16-42.4,21.53,10.52-72.76,22.19-145.38,32.93-218.11-14.68,6.9-30.68,10.72-46.76,12.45-8.49,74-17.24,147.91-25.63,221.89a192.91,192.91,0,0,1-41.41,12.78c5.51-82.54,10.81-165.1,17-247.59l-.95-2.17c-5.67-5.4-9.22-12.38-13.25-19ZM61.62,366.2c13.23,84.88,27,169.68,40.6,254.49C92.28,618.45,82.73,614.83,73,612c1.44,15.09,4.56,30,5.59,45.12,6.81,11,21,13.84,32.36,17.84-2.42-17.85-6.23-35.5-8.18-53.4,11.15,1.44,21.83,5.57,33.07,6.37-12.06-83.26-29.17-166.16-39.51-249.48l-1.52-.64c-11.88-1.25-22.39-6.94-33.15-11.61Zm458.35,10c-9.88,64.69-22.49,129-33.18,193.56,14.08-5.89,24.71-17.84,38.12-24.59-8.84,46.29-16,93-26.94,138.85,13.78-3,27.7-5.54,41.21-9.64C545.31,618,558.4,562.2,566.94,506c-13.76,12.19-25.49,27.26-41.41,36.76C535,487.82,546.15,433.17,555,378.14c-11.6,2.54-23.93,2.56-35-1.91Z"/><path class="cls-9" d="M186.74,346.17c-5,1.2-9.43,4.16-13.9,6.66q2,8.15,3.33,16.42c6.63-2.24,12.59-6,18.81-9.11,6.38,11.93,16.9,22.7,30.9,24.56,0-3.77,0-7.53,0-11.28-15.68-4.32-31.66-11.83-39.14-27.25Zm-150.69.9C43.43,354,51.3,361.52,61.2,364.55c-.06-1.74-.05-3.47-.06-5.2-8.16-4.51-16.81-8-25.09-12.28Zm474.48,2.84c-10.26.23-21.25,11-32.58,14.29-.41,3.5-.7,7-1.09,10.55,8.15-3.26,15-9,22.69-13.08,6.49,5.31,12.73,11,20.42,14.56,1.32-6.14,2.65-12.27,4.06-18.38-4.33-6-8.84-8-13.5-7.94Zm81.66,6.67c-11.57,3.84-23.21,8.11-35.5,8.71,1.09,4.15-.39,8.37-.88,12.52a174.25,174.25,0,0,0,34.38-13.91c.6-.84,1.21-1.67,1.82-2.51.06-1.6.1-3.21.18-4.81Zm-211.2.7c.08,5-1,9.92-1.89,14.83l.95,2.17c14.06,11.16,32.21,16.47,50.05,12.92.87-4.66,1.37-9.38,2-14.07-18.45,3-37.43-3.31-51.12-15.85Zm-248.13,7.47C119.65,366.06,106.27,368,93,366a110.06,110.06,0,0,1,1.75,11.84l1.52.64c12.66,3.32,26,3.33,38.89,1.39a62.59,62.59,0,0,0-2.32-15.09Zm195.93,2.69c-17.2,6.7-35.33,11-53.83,11.52.61,4.7.9,9.44,1.06,14.18,18.29-.12,36.81-3.67,53.06-12.25-.1-4.5-.21-9-.29-13.45Z"/><path class="cls-10" d="M594.6,474.1C584.48,479.35,579,495.8,567.87,503c-.32,1-.63,2-.93,3-8.54,56.21-21.63,112-27.76,168.42,10.32-3.79,22.43-7.15,28.66-16.79,7.86-61.26,17.38-122.42,26.76-183.52Zm-69.69,71.1c-13.41,6.75-24,18.7-38.12,24.59-.12.39-.35,1.16-.46,1.54-6.66,38.32-13.35,76.63-19.75,115-.88,2.1,1.07,1.95,2.57,2q14.48-1.62,28.82-4.32c10.89-45.86,18.1-92.56,26.94-138.85Zm-82.12,49.91c-13,3.41-25.34,10.08-37.94,15.07-3.59,26.35-6.2,52.91-9.14,79.36-3.47,7.34,4,4.13,7.47,4.79,8.41-.5,17-.29,25.25-2.06,3.56-32.54,10.31-64.71,14.36-97.16ZM102.73,621.56c2,17.9,5.76,35.55,8.18,53.4,9.62,3.67,19.79,5.73,29.92,7.44,1.71-.51,4.82-.8,4-3.34-2.3-16.68-6-33.17-7.79-49.92l-1.25-1.21c-11.24-.8-21.92-4.93-33.07-6.37Zm260,1.73c-10.92.18-21.26,4.92-32.12,6.07-8-1.17-4.71,8.46-5.57,12.78.9,18.09-2,36.19-1,54.25,10.39-.4,20.78-.66,31.18-.27l2-.07c2.38-24.2,4.09-48.53,5.59-72.76ZM175.12,635.05c2.22,18.09,4.21,36.5,8.86,54.12,10.63,1.17,21.24,2.58,31.94,2.78-.15-15.4-3.38-30.56-4.85-45.86-.14-17.19-25.27-6.58-35.95-11Zm109.49,1.3c-11.74.47-23.51,1-35.22,2,2,18.61.73,39.65,6.68,56.94,10.28.57,20.59.83,30.89.72-.37-19.86,0-39.88-2.35-59.62Z"/></svg>