<svg id="Layer_1" data-name="Layer 1" xmlns="http://www.w3.org/2000/svg" viewBox="0 0 543 740"><defs><style>.cls-1{fill:#fc0;}.cls-2{fill:#520;}.cls-3{fill:#d38d5f;}.cls-4{fill:#ff5351;}.cls-5{fill:#ff8685;}.cls-6{fill:#e90a0b;}.cls-7{fill:#fd5;}.cls-8{fill:#ffe788;}.cls-9{fill:#c87137;}.cls-10{fill:#a05a2c;}</style></defs><title>cupcake-04</title><path class="cls-1" d="M300.52,0C295.64,2.5,292,6.72,288,10.36a182.82,182.82,0,0,0-24.2-1.59A201.74,201.74,0,0,0,211,16a21,21,0,0,0-12.74-4.39c-8.49-.06-16.64,5-18.21,14.64-15.33,6-29.49,14.53-44.21,21.84a17.67,17.67,0,0,0-9-2.91c-10.84-.4-20.91,9.43-18.91,21.41-15,11.84-29.37,24.38-42.22,38.55-.45,0-.89-.06-1.34-.06-13.66-.2-24.12,13.75-18.26,26.62A194.59,194.59,0,0,0,21,193.93c-4,19.49-18.8,38.41-11,58.79A72,72,0,0,0,0,274.43v5.31c1.1,14.38,16.27,25.12,30,19.51.84,11.09,2,22.21,5,33-8.52,12.91-12.18,29.06-4.46,43.3,17.67,92.1,33.35,184.65,51.37,276.69,2.3,18.25,6.46,36.19,9.42,54.34,1,12.88,16.69,15.21,26.34,18.79,42.19,10.41,86,11.59,129.06,14.66H313.4c45.22-2.69,91.2-3.93,135-16.56,7.66-3.11,19.45-6.12,19.91-16.22,14-77.82,28.55-155.55,42.63-233.36,6.81-34,11.3-68.54,19.72-102.12,7.66-14.49.85-30.32-8.76-41.81,3.34-16.76,4.54-33.82,5.09-50.88,12-15.27,18.47-34.82,14.1-54.26a122.51,122.51,0,0,1,1.9-12.36V202.37c-6.45-49-35.61-91.59-70.84-124.78C475.68,66,465.63,55.68,454.76,56a16.77,16.77,0,0,0-7.49,2c-37.65-23.22-80.56-37.13-124.16-43.66C320.3,8.12,316,2.43,309.35,0Z"/><path class="cls-2" d="M300.52,0C295.64,2.5,292,6.72,288,10.36a25.7,25.7,0,0,0,2.68,17.8c7.71,7.72,18.73,8.58,27.49,1.94,2.9-4.75,5.31-10,4.93-15.69C320.29,8.12,316,2.43,309.34,0Zm3.92,2.92c11.21.56,13,20.7.11,21.75-13,2.46-17.25-19.19-3.89-21.25a11.3,11.3,0,0,1,3.78-.5ZM198.23,11.57c-8.5-.06-16.64,5-18.21,14.64-.62,6.08,2,11.52,5.9,15.94,10.29,7.66,25.55,2.51,29.08-9.72.92-5.88-1.12-11.48-4-16.47a21.12,21.12,0,0,0-12.74-4.39Zm-2.36,2.59C207,14,210.62,33,198.24,35.47c-14.58,5.29-18.72-19.75-4.69-21a10.7,10.7,0,0,1,2.32-.3ZM366.3,37.09a30.92,30.92,0,0,0-6.85.6c-14.8,6.48-13.74,31.92,3.4,34.05,14.1,4.44,26.78-12.1,19.86-24.63-2.5-7.07-9.42-9.82-16.41-10Zm-131.65.22a17.52,17.52,0,0,0-5.88,1C207,43.7,216.09,79.42,238.3,72.65c21-4.14,14.2-35.27-3.65-35.34Zm131.19,3.36c12,.38,12.76,22.92-1.7,21.8-11.56.44-14.1-18.78-2.39-21.16a11.76,11.76,0,0,1,4.09-.64Zm-133.67.95c10.34-.32,15.36,17,3.87,20.85-13.22,6-22-16.8-7.24-20.15A10.42,10.42,0,0,1,232.17,41.62ZM126.76,45.13c-10.84-.39-20.91,9.44-18.91,21.42A18.48,18.48,0,0,0,120.66,80,19,19,0,0,0,143,63.82c0-6-2.92-11.65-7.19-15.77a17.69,17.69,0,0,0-9-2.92ZM123.3,48.6c10.69-.3,15.33,18.2,2.9,21.07-13,5-20.12-17.17-6.4-20.34a10.78,10.78,0,0,1,3.5-.74ZM454.76,56a16.81,16.81,0,0,0-7.5,2A19.38,19.38,0,0,0,441,77.71a22.47,22.47,0,0,0,12.13,10.37c8,.76,16.05-2.5,19-10.49C475.67,66,465.62,55.68,454.76,56ZM456,58.83c10.13,0,12.56,18.14,1.4,19.72-12.87,4.54-17.09-17.36-4.78-19.1a10,10,0,0,1,3.38-.62ZM314.31,93c-.43,0-.87,0-1.31.06-13.3.16-21.71,17-13.89,28,7,10.34,22.82,9.9,30.08.14,7.67-11.65-1.45-28.3-14.88-28.18Zm76.9.13A16.56,16.56,0,0,0,375.62,103c-4.59,12.44,6.58,26.25,19.58,22.56,12.86-2.93,15-19.86,7.17-28.91a19.82,19.82,0,0,0-11.16-3.46Zm-1,3.38c9.39.57,12.89,17.08,1.95,19.83-12.21,4.45-18.23-15.75-6.31-19a9.65,9.65,0,0,1,4.36-.82Zm-77.9.39c12.91-.74,14.29,22.66-.32,22-12.39.47-14.7-19.48-2.42-21.52a12.49,12.49,0,0,1,2.74-.49Zm-102.16,6.9a17.51,17.51,0,0,0-4.47.59C179.81,107.86,193.35,150,216.74,138c17-6.94,10.17-34.07-6.58-34.17ZM64.29,105c-13.67-.2-24.13,13.75-18.27,26.62,3.27,6,9.46,8.77,16,9.36a19.08,19.08,0,0,0,17-23.36c-2.93-5.53-7.13-10.79-13.39-12.56-.45,0-.89-.06-1.33-.06Zm144,2.86c10.93.43,13.46,19.84,1,21.59-13.17,3.68-18.38-19-4.66-21.07a11.15,11.15,0,0,1,3.66-.52Zm-147.7.83c11.58.28,13.4,21,0,22.17-12.82,1.73-16.39-18.74-3.93-21.56a11.77,11.77,0,0,1,3.9-.61Zm419.93,28.88a15.32,15.32,0,0,0-4.85.81c-14.47,2.07-18.15,24.56-5.61,31.64,9.18,6.69,24,2.14,27-9.19,4.44-11-5.31-23.29-16.5-23.26Zm-342.2,1.46a15.7,15.7,0,0,0-2.54.14c-13.54-1.48-22,14.67-15.88,25.82,6.32,11.65,24.08,11.88,31.37,1.07,6.51-10.47-.6-26.63-12.95-27Zm339.83,2.54c10.47-.32,16,17.16,3.83,20.89-13.23,5.93-21.15-16.67-7.23-20.18a10.56,10.56,0,0,1,3.4-.71Zm-344,1c10.34-.32,15.36,16.95,3.87,20.85-13.22,6-22-16.8-7.24-20.15a10.42,10.42,0,0,1,3.37-.7Zm190.84,12a15.76,15.76,0,0,0-4.3.73c-14.4,2.47-18.3,24.38-5.61,31.69,10.47,8,27.45-.07,27.92-13.12,1.27-10.3-8-19.57-18-19.3Zm-2.12,4.06c7.22-.16,13.81,7.85,10.33,14.94-2.49,8.56-16.57,8.75-19.65.57-3.23-5.37.21-13.41,6.21-14.92a9.51,9.51,0,0,1,3.11-.59ZM46.91,177a13.75,13.75,0,0,0-3.28.4c-10.74,1.44-17.31,14.95-11.31,24.19,5.64,12.21,26.61,10.28,29.78-2.85C66.24,188.58,57.36,177,46.91,177Zm-1.78,3.62c10.37-.28,14,17.44,2.14,19.81C35,204.69,29.84,184.09,41.7,181.36a10.39,10.39,0,0,1,3.43-.7ZM513,202.19a13.69,13.69,0,0,0-2.35.28c-10.53,1.15-17.66,13.87-12.69,23.3,4.58,12.35,24.24,12.23,29.51.51,5.78-10.53-2.93-24.51-14.48-24.09Zm-1,3.66c10.13,0,12.56,18.14,1.4,19.72-12.87,4.54-17.09-17.36-4.78-19.1a10.08,10.08,0,0,1,3.38-.62Z"/><path class="cls-3" d="M304.44,2.92a11.33,11.33,0,0,0-3.78.5c-13.36,2.06-9.09,23.71,3.89,21.25,12.93-1.05,11.11-21.19-.11-21.75ZM195.87,14.16a10.78,10.78,0,0,0-2.32.3c-14,1.26-9.89,26.3,4.69,21C210.63,33,207,14,195.87,14.16Zm170,26.51a11.79,11.79,0,0,0-4.09.64c-11.71,2.38-9.17,21.6,2.39,21.16,14.47,1.12,13.72-21.42,1.7-21.8Zm-133.67.95a10.42,10.42,0,0,0-3.37.7c-14.72,3.35-6,26.15,7.24,20.15C247.53,58.57,242.51,41.3,232.17,41.62Zm-108.87,7a10.5,10.5,0,0,0-3.5.73c-13.72,3.17-6.65,25.36,6.4,20.34C138.63,66.8,134,48.3,123.3,48.6ZM456,58.83a10,10,0,0,0-3.38.62c-12.31,1.74-8.09,23.64,4.78,19.1,11.15-1.58,8.72-19.71-1.4-19.72ZM390.23,96.55a9.65,9.65,0,0,0-4.36.82c-11.92,3.26-5.9,23.46,6.31,19,10.94-2.75,7.44-19.26-1.95-19.83Zm-77.9.39a12.39,12.39,0,0,0-2.74.49c-12.28,2-10,22,2.42,21.52,14.61.65,13.23-22.75.32-22Zm-104,11a10.65,10.65,0,0,0-3.66.52c-13.72,2-8.51,24.75,4.66,21.07,12.46-1.75,9.93-21.16-1-21.59Zm-147.7.82a11.8,11.8,0,0,0-3.9.62c-12.46,2.82-8.89,23.29,3.93,21.56,13.36-1.19,11.54-21.89,0-22.18Zm417.55,32.89a10.3,10.3,0,0,0-3.4.71c-13.92,3.51-6,26.11,7.23,20.18,12.15-3.74,6.64-21.21-3.83-20.89Zm-344,1a10.16,10.16,0,0,0-3.37.7c-14.72,3.35-6,26.15,7.24,20.15,11.49-3.9,6.47-21.18-3.87-20.85Zm188.72,16.1a9.52,9.52,0,0,0-3.11.6c-6,1.51-9.44,9.55-6.21,14.92,3.08,8.18,17.16,8,19.65-.57,3.48-7.09-3.11-15.1-10.33-14.95ZM45.14,180.63a10.65,10.65,0,0,0-3.43.7c-11.86,2.73-6.67,23.33,5.57,19.11,11.86-2.36,8.24-20.08-2.14-19.81ZM512,205.82a10.35,10.35,0,0,0-3.39.62c-12.31,1.74-8.08,23.64,4.79,19.1,11.15-1.57,8.72-19.71-1.4-19.72Z"/><path class="cls-4" d="M263.8,8.77A201.74,201.74,0,0,0,211,16c2.91,5,4.95,10.59,4,16.47,24.95-4.83,50.36-5.22,75.68-4.27A25.64,25.64,0,0,1,288,10.36,183.08,183.08,0,0,0,263.8,8.77Zm59.3,5.64c.38,5.74-2,10.94-4.93,15.69,13.88,1.76,27.8,3.72,41.28,7.59,8.73-1.76,19.93,0,23.26,9.42,21.21,4.35,40.45,18.35,58.33,30.6a19.38,19.38,0,0,1,6.22-19.64C409.61,34.85,366.7,20.94,323.1,14.41ZM180,26.21c-15.33,6-29.49,14.53-44.21,21.84,4.27,4.12,7.23,9.74,7.19,15.77,14.24-7.3,27.46-17,42.92-21.67-3.91-4.42-6.52-9.86-5.9-15.94ZM107.85,66.55c-15,11.84-29.37,24.38-42.22,38.55,6.26,1.77,10.46,7,13.39,12.56A227.3,227.3,0,0,1,120.66,80,18.48,18.48,0,0,1,107.85,66.55Zm364.31,11c-2.94,8-11,11.25-19,10.49C463.79,99.75,494.91,116.64,477,134c-28.75-2.46-45-35.63-74.6-37.34,7.82,9.05,5.69,26-7.17,28.91-13,3.69-24.17-10.12-19.58-22.56-15.27,6.38-29,19-46.43,18.24-7.26,9.76-23.12,10.2-30.08-.14-14.62.66-30.07-4.38-44.09,1.88s-24.49,17.51-36.32,26.75c-18.6,15-44.17,19.68-67.42,16.39-7.29,10.81-25,10.58-31.37-1.07-19.66,4.17-37.41,18.29-58,16.55-18.75-6.52-6.49-29.3.16-40.56-6.57-.59-12.76-3.33-16-9.36a194.59,194.59,0,0,0-25.09,62.27c-4,19.49-18.8,38.41-11,58.79,18.77,13.57,37.55-8.58,45.11-24.63C69,203.1,95.3,185.48,124,184c19.73-1.56,37.21,12.47,57.05,8.29,17.72-2,32.28-13.45,49.56-16.9,21.89-2.48,45.66,2.34,62,17.95,10.84,9,19,22.67,32.94,27.15,21,2.23,28-22.53,42.52-32.41,23.13-13.84,53.2-8.6,75.78,4,23.25,12.27,29.75,42.77,54.54,52.9,16.95,6.9,36.11-4,42.67-20.21a122.51,122.51,0,0,1,1.9-12.36V202.37c-6.45-49-35.61-91.59-70.84-124.78Zm8.38,60c11.19,0,20.94,12.25,16.5,23.26-3,11.33-17.78,15.88-27,9.19-12.54-7.08-8.86-29.57,5.61-31.64a15.32,15.32,0,0,1,4.85-.81ZM325,154.67c10-.27,19.28,9,18,19.3-.47,13.05-17.45,21.08-27.92,13.12-12.69-7.31-8.79-29.22,5.61-31.69a15.76,15.76,0,0,1,4.3-.73ZM46.92,177c10.45,0,19.33,11.55,15.19,21.74-3.17,13.13-24.14,15.06-29.78,2.85-6-9.24.57-22.75,11.31-24.19a14.85,14.85,0,0,1,3.28-.4Zm466,25.15c11.54-.41,20.25,13.56,14.48,24.09-5.27,11.72-24.93,11.84-29.51-.51-5-9.43,2.16-22.15,12.69-23.3a14.63,14.63,0,0,1,2.34-.28Z"/><path class="cls-5" d="M215,32.43c24.95-4.83,50.36-5.22,75.68-4.27,7.71,7.72,18.73,8.58,27.49,1.94,13.88,1.76,27.8,3.72,41.28,7.59-14.8,6.48-13.74,31.92,3.4,34.05,14.1,4.44,26.78-12.1,19.86-24.63,21.21,4.35,40.45,18.35,58.33,30.6a22.47,22.47,0,0,0,12.13,10.37C463.79,99.75,494.91,116.64,477,134c-28.75-2.46-45-35.63-74.6-37.34-8.94-6.13-22.06-4.19-26.75,6.35-15.27,6.38-29,19-46.43,18.24,7.92-12-2.05-29.38-16.19-28.12-13.3.16-21.71,17-13.89,28-14.62.66-30.07-4.38-44.09,1.88s-24.49,17.51-36.32,26.75c-18.6,15-44.17,19.68-67.42,16.39,6.94-11.17-1.61-28.81-15.49-26.89-13.54-1.48-22,14.67-15.88,25.82-19.66,4.17-37.41,18.29-58,16.55-18.75-6.52-6.49-29.3.16-40.56a19.08,19.08,0,0,0,17-23.36A227.3,227.3,0,0,1,120.66,80,19,19,0,0,0,143,63.82c14.24-7.3,27.46-17,42.92-21.67,10.29,7.66,25.55,2.51,29.08-9.72m13.77,5.92C207,43.7,216.09,79.42,238.3,72.65c23.18-4.57,12.5-42-9.53-34.3M205.7,104.43C179.82,107.86,193.36,150,216.75,138,235.2,130.48,225.59,99.2,205.7,104.43Z"/><path class="cls-6" d="M230.65,175.4c21.89-2.48,45.66,2.34,62,17.95,10.84,9,19,22.67,32.94,27.15,21,2.23,28-22.53,42.52-32.41,23.13-13.84,53.2-8.6,75.78,4,23.25,12.27,29.75,42.77,54.54,52.9,16.95,6.9,36.11-4,42.67-20.21,4.37,19.44-2.11,39-14.1,54.26-21.43,16.27-56.76,15-72.87-8.16-12.27-15-7.81-36.31-15.87-53.12-11.43-30.44-62.74-33.1-77-4.38-3.91,20.45,6.06,46-11.68,62.15-14.57,11-41.89,12.06-51.81-5.45-5.32-18.71-3.63-40.5-16.15-56.71-12.37-16.16-35.42-17.77-54-15.93C205,200,191,224.76,195.48,246.16c2.33,17.47,11.2,39.82-2.9,54.43-17,13.61-57.25,11.4-56.51-16.47,2.32-25,26.12-49.83,10.92-75-12.61-17.8-38.77-8.93-56-4.18-7.34,8.19-12.62,18.34-18.07,27.93-6.16,11.32-2,25.19-7.37,36.75A65.15,65.15,0,0,1,30,299.25c-13.73,5.61-28.9-5.13-30-19.51v-5.31a72,72,0,0,1,10-21.71c18.77,13.57,37.55-8.58,45.11-24.63C69,203.1,95.3,185.48,124,184c19.73-1.56,37.21,12.47,57.05,8.29,17.72-2,32.28-13.45,49.56-16.9Z"/><path class="cls-7" d="M361.29,213.39c14.23-28.72,65.54-26.06,77,4.38,8.06,16.81,3.6,38.09,15.87,53.12,16.11,23.15,51.44,24.43,72.87,8.16-.55,17.06-1.75,34.12-5.09,50.88a54,54,0,0,0-15-7.91c-3.05-14.15-20.44-13.34-30.8-7.85-16.79,9.07-31.82-4.25-48-6.35-15-2.41-29.77,3.22-44.8,2.12-13.1.19-23.9-11.29-37.43-7.34-24.69,3.16-50.89,22.06-75.1,7.66-21.92-9.3-45.28-.21-65.4,9.17-15.86,7.82-30.88-3.17-46.19-5.89-19.89-4.58-36.89,13.62-56.86,7.47-14.37-3.49-33.47-15.74-44.26.13a46.8,46.8,0,0,0-23,11.08c-3-10.76-4.15-21.88-5-33a65.15,65.15,0,0,0,35.56-29.66c5.37-11.56,1.21-25.43,7.37-36.75,5.45-9.59,10.73-19.74,18.07-27.93,17.22-4.75,43.38-13.62,56,4.18,15.2,25.2-8.6,50-10.92,75-.74,27.87,39.52,30.08,56.51,16.47,14.1-14.61,5.23-37,2.9-54.43C191,224.76,205,200,227.64,197.45c18.59-1.84,41.64-.23,54,15.93,12.52,16.21,10.83,38,16.15,56.71,9.92,17.51,37.24,16.44,51.81,5.45,17.74-16.16,7.77-41.7,11.68-62.15m23.41-3c-13.37,1.26-15.21,18.16-10.16,28,6.71,14.62,17.72,34.18,36.75,31.23,15-5.11,20.23-25.17,13.71-38.65-6.47-15.15-24.79-22.19-40.3-20.58m-166.95,2c-16.92,10-13.33,37.91-4.65,53.51,15.12,25.53,67.92,11.76,58.65-20.52-9.34-19.54-31.34-36.72-54-33m-105.3,7.88c-12.34,4.35-35.09,10-30.69,27.76,5.95,13.67,24.68,20.83,38.46,15.33C132.86,252.67,123.19,226.23,112.45,220.26Z"/><path class="cls-8" d="M389.12,210.18a40.37,40.37,0,0,0-4.42.23c-13.37,1.26-15.21,18.16-10.16,28,6.71,14.62,17.72,34.18,36.75,31.23,15-5.11,20.23-25.17,13.71-38.65-5.87-13.73-21.46-20.8-35.88-20.81Zm-165,1.68a39.13,39.13,0,0,0-6.35.52c-16.92,10-13.33,37.91-4.65,53.51,15.12,25.53,67.92,11.76,58.65-20.52-8.46-17.71-27.32-33.48-47.65-33.51Zm-111.65,8.4c-12.34,4.35-35.09,10-30.69,27.76,6,13.67,24.68,20.83,38.46,15.33,12.64-10.68,3-37.13-7.77-43.1Z"/><path class="cls-9" d="M324.2,321c-18.66-.24-36.39,15.68-37.32,35.19-.61,95.78-2.5,193.25-4.73,287.9-4-95.8-5.63-191.78-8.1-287.66-3.79-14.92-12.76-31.26-29.53-34.12-22.12-6.35-43,12.55-45.62,34,2.08,96.23,6.45,195,6.28,289.52-5.93-96.5-14.45-192.9-19-289.45-2.85-14.74-11.48-29.9-27.06-33.6-22-7.46-45.3,11-47.15,33.23,8.77,94.67,15.6,189.79,22.26,284.71-13.25-90.9-22.91-186.27-34.83-278.89-3.44-4.85,1.41-4.95,3.94-5.73-6.38,1.57-6.21-5.68-7.45-10.05C91,330.24,74.36,320,58,321.14a46.8,46.8,0,0,0-23,11.08c-8.52,12.91-12.18,29.06-4.46,43.3C48.2,467.62,63.88,560.17,81.9,652.21c87.62,30.89,187.91,26.36,270.86-16.38,1.61-1.12,1.67-3.42,2.07-5.18,1.3-91.41,4.92-182.79,6.29-274.21-3.29-13.43-9.67-27.92-24-32.5A31.82,31.82,0,0,0,324.2,321Zm87.81.05c-18.74-.31-36.6,15.51-38.12,34.91-4.16,92.41-12.26,185.19-18.36,277.71a250.42,250.42,0,0,0,74.38-52c7.31-74.93,11.6-150.44,18.26-225.54-2.95-13.27-9.75-27.15-23.23-32.19A32.13,32.13,0,0,0,412,321.08Zm86.48,0c-15.14.19-29.91,10.1-34.56,24.82-1.29,4.23-.81,11.75-7.24,10.28,1.67.54,5.3.29,4.24,3q-13.2,109.05-26.52,218.08c33.26-27.11,56.73-65.41,76.54-103.39,6.81-34,11.3-68.54,19.72-102.12,7.66-14.49.85-30.32-8.76-41.81a54,54,0,0,0-15-7.91,34.12,34.12,0,0,0-8.39-.94Z"/><path class="cls-10" d="M373.89,356c-4.27.12-8.52.28-12.77.45-1.37,91.42-5,182.8-6.29,274.21-.4,1.76-.46,4.06-2.07,5.18C269.81,678.57,169.52,683.1,81.9,652.21c2.3,18.25,6.46,36.19,9.42,54.34,1,12.88,16.69,15.21,26.34,18.79,42.19,10.41,86,11.59,129.06,14.66h66.67c45.22-2.69,91.2-3.93,135-16.56,7.66-3.11,19.45-6.12,19.91-16.22,14-77.82,28.55-155.55,42.63-233.36-19.81,38-43.28,76.28-76.54,103.39q13.38-109,26.52-218.08c1.06-2.7-2.57-2.45-4.24-3-2.88,0-5.67,0-8.52,0-6.66,75.1-10.95,150.61-18.26,225.54a250.42,250.42,0,0,1-74.38,52c6.1-92.52,14.2-185.3,18.36-277.71Zm-262,.05c-2.89,0-5.75.06-8.63.09-2.53.78-7.38.88-3.94,5.73,11.92,92.62,21.58,188,34.83,278.89-6.66-94.92-13.49-190-22.26-284.71Zm175,.18c-4.29,0-8.56.08-12.83.24,2.47,95.88,4.13,191.86,8.1,287.66,2.23-94.65,4.12-192.12,4.73-287.9Zm-94.36.12c-2.13,0-4.25,0-6.38.07,4.59,96.55,13.11,193,19,289.45.17-94.55-4.2-193.29-6.28-289.52Z"/></svg>