<svg id="svg2" xmlns="http://www.w3.org/2000/svg" xmlns:xlink="http://www.w3.org/1999/xlink" viewBox="0 0 700.65 1279.9"><defs><style>.cls-1,.cls-101,.cls-103,.cls-106,.cls-114,.cls-12,.cls-19,.cls-22,.cls-3,.cls-30,.cls-34,.cls-53,.cls-56,.cls-58,.cls-6,.cls-60,.cls-63,.cls-66,.cls-68,.cls-70,.cls-73,.cls-75,.cls-78,.cls-81,.cls-84,.cls-86,.cls-9,.cls-90,.cls-93,.cls-95,.cls-98{fill:none;}.cls-2{fill:#f6c482;stroke:#fbbc69;}.cls-3{stroke:#e9a041;}.cls-4{filter:url(#filter4807);}.cls-5{fill:#edb181;}.cls-29,.cls-5,.cls-8{opacity:0.94;}.cls-6{stroke:#e9c4a3;}.cls-7{filter:url(#filter4427);}.cls-8{fill:#e6aa79;}.cls-9{stroke:#d19a73;}.cls-10{filter:url(#filter5937);}.cls-11{fill:#462421;}.cls-12{stroke:#472b2a;}.cls-13{filter:url(#filter5947);}.cls-14{fill:#4f2725;}.cls-15{filter:url(#filter5887);}.cls-16{fill:#4d2422;}.cls-17{filter:url(#filter5927);}.cls-18{fill:#522928;}.cls-19{stroke:#3d2524;}.cls-20{filter:url(#filter5917);}.cls-21{fill:#774639;}.cls-22{stroke:#774639;}.cls-23{filter:url(#filter5897);}.cls-24{fill:#fbbc69;stroke:#ff9e25;}.cls-25{fill:#9b574c;stroke:#5a2424;}.cls-26{clip-path:url(#clip-path);}.cls-27{fill:#58190a;}.cls-28{filter:url(#filter5092);}.cls-29{fill:#efa44f;}.cls-30{stroke:#ecc6b2;}.cls-31{filter:url(#filter5907);}.cls-32{filter:url(#filter4051);}.cls-33{fill:#491716;}.cls-34{stroke:#4f2725;}.cls-35{filter:url(#filter5867);}.cls-36{fill:#55221f;}.cls-37{filter:url(#filter5877);}.cls-38{fill:#5e2f2d;}.cls-39{filter:url(#filter4041);}.cls-40{filter:url(#filter4395);}.cls-41{fill:#481b19;}.cls-42{filter:url(#filter4281);}.cls-43{fill:#602b28;}.cls-44{filter:url(#filter4291);}.cls-45{filter:url(#filter4301);}.cls-46{filter:url(#filter4261);}.cls-47{filter:url(#filter4351);}.cls-48{filter:url(#filter4321);}.cls-49{filter:url(#filter4331);}.cls-50{filter:url(#filter4385);}.cls-51{filter:url(#filter4171);}.cls-52{fill:#d28c21;}.cls-53{stroke:#c27d15;}.cls-54{filter:url(#filter4061);}.cls-55{fill:#daa762;}.cls-56{stroke:#e29936;}.cls-57{filter:url(#filter4211);}.cls-58{stroke:#bb8227;}.cls-59{filter:url(#filter4201);}.cls-60{stroke:#936b2b;}.cls-61{filter:url(#filter4221);}.cls-62{fill:#dfba82;}.cls-63{stroke:#e1a03f;}.cls-64{filter:url(#filter4231);}.cls-65{fill:#e8b16b;}.cls-66{stroke:#eda140;}.cls-67{filter:url(#filter4251);}.cls-68{stroke:#e39736;}.cls-69{filter:url(#filter4071);}.cls-70{stroke:#af8956;}.cls-71{filter:url(#filter4081);}.cls-72{fill:#e8cc9e;}.cls-73{stroke:#eeb14c;}.cls-74{filter:url(#filter4191);}.cls-75{stroke:#e2b264;}.cls-76{filter:url(#filter4241);}.cls-77{fill:#eac086;}.cls-78{stroke:#f0a63f;}.cls-79{filter:url(#filter4341);}.cls-80{fill:#e2ba88;}.cls-81{stroke:#dfa357;}.cls-82{filter:url(#filter4161);}.cls-83{fill:#f1d4a7;}.cls-84{stroke:#e2ad5b;}.cls-85{filter:url(#filter4151);}.cls-86{stroke:#ba843a;}.cls-87{filter:url(#filter4091);}.cls-88{fill:#e2c183;}.cls-89{filter:url(#filter4181);}.cls-90{stroke:#ddad65;}.cls-91{filter:url(#filter4101);}.cls-92{fill:#d8b57e;}.cls-93{stroke:#e19d35;}.cls-94{filter:url(#filter4111);}.cls-95{stroke:#eca750;}.cls-96{filter:url(#filter4121);}.cls-97{fill:#ce9a4d;}.cls-98{stroke:#ab7a32;}.cls-99{filter:url(#filter4131);}.cls-100{fill:#bd7b44;}.cls-101{stroke:#b15e1a;}.cls-102{filter:url(#filter4141);}.cls-103{stroke:#bd7b44;}.cls-104{filter:url(#filter4361);}.cls-105{filter:url(#filter3977);}.cls-106,.cls-114{stroke:#681e13;stroke-linejoin:round;stroke-width:3px;}.cls-106{stroke-linecap:round;}.cls-107{filter:url(#filter3989);}.cls-108{filter:url(#filter3963);}.cls-109{filter:url(#filter3981);}.cls-110{filter:url(#filter4005);}.cls-111{filter:url(#filter4001);}.cls-112{filter:url(#filter4381);}.cls-113{filter:url(#filter3993);}.cls-115{filter:url(#filter3985);}</style><filter id="filter4807" name="filter4807"><feGaussianBlur result="result0" stdDeviation="1" in="SourceGraphic"/><feTurbulence result="result1" baseFrequency="0.02" numOctaves="7"/><feComposite result="result2" operator="out" in="result0" in2="result1"/><feGaussianBlur result="result5" stdDeviation="0.5"/><feSpecularLighting result="result4" surfaceScale="1.5" specularConstant="4" specularExponent="100" in="result5"><feDistantLight result="feDistantLight4819" azimuth="225" elevation="62"/></feSpecularLighting><feComposite result="result91" operator="atop" in="result4" in2="result2"/></filter><filter id="filter4427" name="filter4427"><feGaussianBlur result="result0" stdDeviation="6" in="SourceGraphic"/><feDiffuseLighting result="result5" surfaceScale="10"><feDistantLight result="feDistantLight4433" azimuth="235" elevation="25"/></feDiffuseLighting><feComposite result="fbSourceGraphic" operator="arithmetic" k1="1" k3="0.6" in="result5" in2="SourceGraphic"/><feGaussianBlur result="result0" stdDeviation="1" in="fbSourceGraphic"/><feTurbulence result="result1" baseFrequency="0.02" numOctaves="7"/><feComposite result="result2" operator="out" in="result0" in2="result1"/><feGaussianBlur result="result5" stdDeviation="0.5"/><feSpecularLighting result="result4" surfaceScale="1.5" specularConstant="4" specularExponent="100" in="result5"><feDistantLight result="feDistantLight4507" azimuth="225" elevation="62"/></feSpecularLighting><feComposite result="result91" operator="atop" in="result4" in2="result2"/></filter><filter id="filter5937" name="filter5937"><feGaussianBlur result="result0" stdDeviation="6" in="SourceGraphic"/><feDiffuseLighting result="result5" surfaceScale="10"><feDistantLight result="feDistantLight5943" azimuth="235" elevation="25"/></feDiffuseLighting><feComposite result="result4" operator="arithmetic" k1="1" k3="0.6" in="result5" in2="SourceGraphic"/></filter><filter id="filter5947" name="filter5947"><feGaussianBlur result="result0" stdDeviation="6" in="SourceGraphic"/><feDiffuseLighting result="result5" surfaceScale="10"><feDistantLight result="feDistantLight5953" azimuth="235" elevation="25"/></feDiffuseLighting><feComposite result="result4" operator="arithmetic" k1="1" k3="0.6" in="result5" in2="SourceGraphic"/></filter><filter id="filter5887" name="filter5887"><feGaussianBlur result="result0" stdDeviation="6" in="SourceGraphic"/><feDiffuseLighting result="result5" surfaceScale="10"><feDistantLight result="feDistantLight5893" azimuth="235" elevation="25"/></feDiffuseLighting><feComposite result="result4" operator="arithmetic" k1="1" k3="0.6" in="result5" in2="SourceGraphic"/></filter><filter id="filter5927" name="filter5927"><feGaussianBlur result="result0" stdDeviation="6" in="SourceGraphic"/><feDiffuseLighting result="result5" surfaceScale="10"><feDistantLight result="feDistantLight5933" azimuth="235" elevation="25"/></feDiffuseLighting><feComposite result="result4" operator="arithmetic" k1="1" k3="0.6" in="result5" in2="SourceGraphic"/></filter><filter id="filter5917" name="filter5917"><feGaussianBlur result="result0" stdDeviation="6" in="SourceGraphic"/><feDiffuseLighting result="result5" surfaceScale="10"><feDistantLight result="feDistantLight5923" azimuth="235" elevation="25"/></feDiffuseLighting><feComposite result="result4" operator="arithmetic" k1="1" k3="0.6" in="result5" in2="SourceGraphic"/></filter><filter id="filter5897" name="filter5897"><feGaussianBlur result="result0" stdDeviation="6" in="SourceGraphic"/><feDiffuseLighting result="result5" surfaceScale="10"><feDistantLight result="feDistantLight5903" azimuth="235" elevation="25"/></feDiffuseLighting><feComposite result="result4" operator="arithmetic" k1="1" k3="0.6" in="result5" in2="SourceGraphic"/></filter><clipPath id="clip-path" transform="translate(-91.35 -61.68)"><path class="cls-1" d="M244.59,862.29,316,848l18.57,38.58,82.86-1.43,70-10,100-30L543.16,959.44s-70,7.14-81.42,10S336,972.29,336,972.29l-72.86-22.85Z"/></clipPath><filter id="filter5092" x="-92.3" y="-61.91" width="2.89" height="1.45" name="filter5092"><feGaussianBlur result="feGaussianBlur5094" stdDeviation="27.57"/></filter><filter id="filter5907" name="filter5907"><feGaussianBlur result="result0" stdDeviation="6" in="SourceGraphic"/><feDiffuseLighting result="result5" surfaceScale="10"><feDistantLight result="feDistantLight5913" azimuth="235" elevation="25"/></feDiffuseLighting><feComposite result="result4" operator="arithmetic" k1="1" k3="0.6" in="result5" in2="SourceGraphic"/></filter><filter id="filter4051" name="filter4051"><feGaussianBlur result="result0" stdDeviation="6" in="SourceGraphic"/><feDiffuseLighting result="result5" surfaceScale="10"><feDistantLight result="feDistantLight4057" azimuth="235" elevation="25"/></feDiffuseLighting><feComposite result="result4" operator="arithmetic" k1="1" k3="0.6" in="result5" in2="SourceGraphic"/></filter><filter id="filter5867" name="filter5867"><feGaussianBlur result="result0" stdDeviation="6" in="SourceGraphic"/><feDiffuseLighting result="result5" surfaceScale="10"><feDistantLight result="feDistantLight5873" azimuth="235" elevation="25"/></feDiffuseLighting><feComposite result="result4" operator="arithmetic" k1="1" k3="0.6" in="result5" in2="SourceGraphic"/></filter><filter id="filter5877" name="filter5877"><feGaussianBlur result="result0" stdDeviation="6" in="SourceGraphic"/><feDiffuseLighting result="result5" surfaceScale="10"><feDistantLight result="feDistantLight5883" azimuth="235" elevation="25"/></feDiffuseLighting><feComposite result="result4" operator="arithmetic" k1="1" k3="0.6" in="result5" in2="SourceGraphic"/></filter><filter id="filter4041" name="filter4041"><feGaussianBlur result="result0" stdDeviation="6" in="SourceGraphic"/><feDiffuseLighting result="result5" surfaceScale="10"><feDistantLight result="feDistantLight4047" azimuth="235" elevation="25"/></feDiffuseLighting><feComposite result="result4" operator="arithmetic" k1="1" k3="0.6" in="result5" in2="SourceGraphic"/></filter><filter id="filter4395" name="filter4395"><feGaussianBlur result="result0" stdDeviation="6" in="SourceGraphic"/><feDiffuseLighting result="result5" surfaceScale="10"><feDistantLight result="feDistantLight4401" azimuth="235" elevation="25"/></feDiffuseLighting><feComposite result="result4" operator="arithmetic" k1="1" k3="0.6" in="result5" in2="SourceGraphic"/></filter><filter id="filter4281" name="filter4281"><feGaussianBlur result="result0" stdDeviation="6" in="SourceGraphic"/><feDiffuseLighting result="result5" surfaceScale="10"><feDistantLight result="feDistantLight4287" azimuth="235" elevation="25"/></feDiffuseLighting><feComposite result="result4" operator="arithmetic" k1="1" k3="0.6" in="result5" in2="SourceGraphic"/></filter><filter id="filter4291" name="filter4291"><feGaussianBlur result="result0" stdDeviation="6" in="SourceGraphic"/><feDiffuseLighting result="result5" surfaceScale="10"><feDistantLight result="feDistantLight4297" azimuth="235" elevation="25"/></feDiffuseLighting><feComposite result="result4" operator="arithmetic" k1="1" k3="0.6" in="result5" in2="SourceGraphic"/></filter><filter id="filter4301" name="filter4301"><feGaussianBlur result="result0" stdDeviation="6" in="SourceGraphic"/><feDiffuseLighting result="result5" surfaceScale="10"><feDistantLight result="feDistantLight4307" azimuth="235" elevation="25"/></feDiffuseLighting><feComposite result="result4" operator="arithmetic" k1="1" k3="0.6" in="result5" in2="SourceGraphic"/></filter><filter id="filter4261" name="filter4261"><feGaussianBlur result="result0" stdDeviation="6" in="SourceGraphic"/><feDiffuseLighting result="result5" surfaceScale="10"><feDistantLight result="feDistantLight4267" azimuth="235" elevation="25"/></feDiffuseLighting><feComposite result="result4" operator="arithmetic" k1="1" k3="0.6" in="result5" in2="SourceGraphic"/></filter><filter id="filter4351" name="filter4351"><feGaussianBlur result="result0" stdDeviation="6" in="SourceGraphic"/><feDiffuseLighting result="result5" surfaceScale="10"><feDistantLight result="feDistantLight4357" azimuth="235" elevation="25"/></feDiffuseLighting><feComposite result="result4" operator="arithmetic" k1="1" k3="0.6" in="result5" in2="SourceGraphic"/></filter><filter id="filter4321" name="filter4321"><feGaussianBlur result="result0" stdDeviation="6" in="SourceGraphic"/><feDiffuseLighting result="result5" surfaceScale="10"><feDistantLight result="feDistantLight4327" azimuth="235" elevation="25"/></feDiffuseLighting><feComposite result="result4" operator="arithmetic" k1="1" k3="0.6" in="result5" in2="SourceGraphic"/></filter><filter id="filter4331" name="filter4331"><feGaussianBlur result="result0" stdDeviation="6" in="SourceGraphic"/><feDiffuseLighting result="result5" surfaceScale="10"><feDistantLight result="feDistantLight4337" azimuth="235" elevation="25"/></feDiffuseLighting><feComposite result="result4" operator="arithmetic" k1="1" k3="0.6" in="result5" in2="SourceGraphic"/></filter><filter id="filter4385" name="filter4385"><feGaussianBlur result="result0" stdDeviation="6" in="SourceGraphic"/><feDiffuseLighting result="result5" surfaceScale="10"><feDistantLight result="feDistantLight4391" azimuth="235" elevation="25"/></feDiffuseLighting><feComposite result="result4" operator="arithmetic" k1="1" k3="0.6" in="result5" in2="SourceGraphic"/></filter><filter id="filter4171" name="filter4171"><feGaussianBlur result="result0" stdDeviation="6" in="SourceGraphic"/><feDiffuseLighting result="result5" surfaceScale="10"><feDistantLight result="feDistantLight4177" azimuth="235" elevation="25"/></feDiffuseLighting><feComposite result="result4" operator="arithmetic" k1="1" k3="0.6" in="result5" in2="SourceGraphic"/></filter><filter id="filter4061" name="filter4061"><feGaussianBlur result="result0" stdDeviation="6" in="SourceGraphic"/><feDiffuseLighting result="result5" surfaceScale="10"><feDistantLight result="feDistantLight4067" azimuth="235" elevation="25"/></feDiffuseLighting><feComposite result="result4" operator="arithmetic" k1="1" k3="0.6" in="result5" in2="SourceGraphic"/></filter><filter id="filter4211" name="filter4211"><feGaussianBlur result="result0" stdDeviation="6" in="SourceGraphic"/><feDiffuseLighting result="result5" surfaceScale="10"><feDistantLight result="feDistantLight4217" azimuth="235" elevation="25"/></feDiffuseLighting><feComposite result="result4" operator="arithmetic" k1="1" k3="0.6" in="result5" in2="SourceGraphic"/></filter><filter id="filter4201" name="filter4201"><feGaussianBlur result="result0" stdDeviation="6" in="SourceGraphic"/><feDiffuseLighting result="result5" surfaceScale="10"><feDistantLight result="feDistantLight4207" azimuth="235" elevation="25"/></feDiffuseLighting><feComposite result="result4" operator="arithmetic" k1="1" k3="0.6" in="result5" in2="SourceGraphic"/></filter><filter id="filter4221" name="filter4221"><feGaussianBlur result="result0" stdDeviation="6" in="SourceGraphic"/><feDiffuseLighting result="result5" surfaceScale="10"><feDistantLight result="feDistantLight4227" azimuth="235" elevation="25"/></feDiffuseLighting><feComposite result="result4" operator="arithmetic" k1="1" k3="0.6" in="result5" in2="SourceGraphic"/></filter><filter id="filter4231" name="filter4231"><feGaussianBlur result="result0" stdDeviation="6" in="SourceGraphic"/><feDiffuseLighting result="result5" surfaceScale="10"><feDistantLight result="feDistantLight4237" azimuth="235" elevation="25"/></feDiffuseLighting><feComposite result="fbSourceGraphic" operator="arithmetic" k1="1" k3="0.6" in="result5" in2="SourceGraphic"/><feGaussianBlur result="result0" stdDeviation="6" in="fbSourceGraphic"/><feDiffuseLighting result="result5" surfaceScale="10"><feDistantLight result="feDistantLight4377" azimuth="235" elevation="25"/></feDiffuseLighting><feComposite result="result4" operator="arithmetic" k1="1" k3="0.6" in="result5" in2="fbSourceGraphic"/></filter><filter id="filter4251" name="filter4251"><feGaussianBlur result="result0" stdDeviation="6" in="SourceGraphic"/><feDiffuseLighting result="result5" surfaceScale="10"><feDistantLight result="feDistantLight4257" azimuth="235" elevation="25"/></feDiffuseLighting><feComposite result="result4" operator="arithmetic" k1="1" k3="0.6" in="result5" in2="SourceGraphic"/></filter><filter id="filter4071" name="filter4071"><feGaussianBlur result="result0" stdDeviation="6" in="SourceGraphic"/><feDiffuseLighting result="result5" surfaceScale="10"><feDistantLight result="feDistantLight4077" azimuth="235" elevation="25"/></feDiffuseLighting><feComposite result="result4" operator="arithmetic" k1="1" k3="0.6" in="result5" in2="SourceGraphic"/></filter><filter id="filter4081" name="filter4081"><feGaussianBlur result="result0" stdDeviation="6" in="SourceGraphic"/><feDiffuseLighting result="result5" surfaceScale="10"><feDistantLight result="feDistantLight4087" azimuth="235" elevation="25"/></feDiffuseLighting><feComposite result="result4" operator="arithmetic" k1="1" k3="0.6" in="result5" in2="SourceGraphic"/></filter><filter id="filter4191" name="filter4191"><feGaussianBlur result="result0" stdDeviation="6" in="SourceGraphic"/><feDiffuseLighting result="result5" surfaceScale="10"><feDistantLight result="feDistantLight4197" azimuth="235" elevation="25"/></feDiffuseLighting><feComposite result="result4" operator="arithmetic" k1="1" k3="0.6" in="result5" in2="SourceGraphic"/></filter><filter id="filter4241" name="filter4241"><feGaussianBlur result="result0" stdDeviation="6" in="SourceGraphic"/><feDiffuseLighting result="result5" surfaceScale="10"><feDistantLight result="feDistantLight4247" azimuth="235" elevation="25"/></feDiffuseLighting><feComposite result="result4" operator="arithmetic" k1="1" k3="0.6" in="result5" in2="SourceGraphic"/></filter><filter id="filter4341" name="filter4341"><feGaussianBlur result="result0" stdDeviation="6" in="SourceGraphic"/><feDiffuseLighting result="result5" surfaceScale="10"><feDistantLight result="feDistantLight4347" azimuth="235" elevation="25"/></feDiffuseLighting><feComposite result="result4" operator="arithmetic" k1="1" k3="0.6" in="result5" in2="SourceGraphic"/></filter><filter id="filter4161" name="filter4161"><feGaussianBlur result="result0" stdDeviation="6" in="SourceGraphic"/><feDiffuseLighting result="result5" surfaceScale="10"><feDistantLight result="feDistantLight4167" azimuth="235" elevation="25"/></feDiffuseLighting><feComposite result="result4" operator="arithmetic" k1="1" k3="0.6" in="result5" in2="SourceGraphic"/></filter><filter id="filter4151" name="filter4151"><feGaussianBlur result="result0" stdDeviation="6" in="SourceGraphic"/><feDiffuseLighting result="result5" surfaceScale="10"><feDistantLight result="feDistantLight4157" azimuth="235" elevation="25"/></feDiffuseLighting><feComposite result="result4" operator="arithmetic" k1="1" k3="0.6" in="result5" in2="SourceGraphic"/></filter><filter id="filter4091" name="filter4091"><feGaussianBlur result="result0" stdDeviation="6" in="SourceGraphic"/><feDiffuseLighting result="result5" surfaceScale="10"><feDistantLight result="feDistantLight4097" azimuth="235" elevation="25"/></feDiffuseLighting><feComposite result="result4" operator="arithmetic" k1="1" k3="0.6" in="result5" in2="SourceGraphic"/></filter><filter id="filter4181" name="filter4181"><feGaussianBlur result="result0" stdDeviation="6" in="SourceGraphic"/><feDiffuseLighting result="result5" surfaceScale="10"><feDistantLight result="feDistantLight4187" azimuth="235" elevation="25"/></feDiffuseLighting><feComposite result="result4" operator="arithmetic" k1="1" k3="0.6" in="result5" in2="SourceGraphic"/></filter><filter id="filter4101" name="filter4101"><feGaussianBlur result="result0" stdDeviation="6" in="SourceGraphic"/><feDiffuseLighting result="result5" surfaceScale="10"><feDistantLight result="feDistantLight4107" azimuth="235" elevation="25"/></feDiffuseLighting><feComposite result="result4" operator="arithmetic" k1="1" k3="0.6" in="result5" in2="SourceGraphic"/></filter><filter id="filter4111" name="filter4111"><feGaussianBlur result="result0" stdDeviation="6" in="SourceGraphic"/><feDiffuseLighting result="result5" surfaceScale="10"><feDistantLight result="feDistantLight4117" azimuth="235" elevation="25"/></feDiffuseLighting><feComposite result="result4" operator="arithmetic" k1="1" k3="0.6" in="result5" in2="SourceGraphic"/></filter><filter id="filter4121" name="filter4121"><feGaussianBlur result="result0" stdDeviation="6" in="SourceGraphic"/><feDiffuseLighting result="result5" surfaceScale="10"><feDistantLight result="feDistantLight4127" azimuth="235" elevation="25"/></feDiffuseLighting><feComposite result="result4" operator="arithmetic" k1="1" k3="0.6" in="result5" in2="SourceGraphic"/></filter><filter id="filter4131" name="filter4131"><feGaussianBlur result="result0" stdDeviation="6" in="SourceGraphic"/><feDiffuseLighting result="result5" surfaceScale="10"><feDistantLight result="feDistantLight4137" azimuth="235" elevation="25"/></feDiffuseLighting><feComposite result="result4" operator="arithmetic" k1="1" k3="0.6" in="result5" in2="SourceGraphic"/></filter><filter id="filter4141" name="filter4141"><feGaussianBlur result="result0" stdDeviation="6" in="SourceGraphic"/><feDiffuseLighting result="result5" surfaceScale="10"><feDistantLight result="feDistantLight4147" azimuth="235" elevation="25"/></feDiffuseLighting><feComposite result="result4" operator="arithmetic" k1="1" k3="0.6" in="result5" in2="SourceGraphic"/></filter><filter id="filter4361" name="filter4361"><feGaussianBlur result="result0" stdDeviation="6" in="SourceGraphic"/><feDiffuseLighting result="result5" surfaceScale="10"><feDistantLight result="feDistantLight4367" azimuth="235" elevation="25"/></feDiffuseLighting><feComposite result="result4" operator="arithmetic" k1="1" k3="0.6" in="result5" in2="SourceGraphic"/></filter><filter id="filter3977" name="filter3977"><feGaussianBlur result="feGaussianBlur3979" stdDeviation="3"/></filter><filter id="filter3989" name="filter3989"><feGaussianBlur result="feGaussianBlur3991" stdDeviation="3"/></filter><filter id="filter3963" name="filter3963"><feGaussianBlur result="feGaussianBlur3965" stdDeviation="3"/></filter><filter id="filter3981" name="filter3981"><feGaussianBlur result="feGaussianBlur3983" stdDeviation="3"/></filter><filter id="filter4005" name="filter4005"><feGaussianBlur result="feGaussianBlur4007" stdDeviation="3"/></filter><filter id="filter4001" name="filter4001"><feGaussianBlur result="feGaussianBlur4003" stdDeviation="3"/></filter><filter id="filter4381" name="filter4381"><feGaussianBlur result="feGaussianBlur4383" stdDeviation="3"/></filter><filter id="filter3993" name="filter3993"><feGaussianBlur result="feGaussianBlur3995" stdDeviation="3"/></filter><filter id="filter3985" name="filter3985"><feGaussianBlur result="feGaussianBlur3987" stdDeviation="3"/></filter></defs><title>icecream-02</title><g id="layer1"><path id="path3000" class="cls-2" d="M158.88,524.57s23.44,35,38,50c19.11,19.75,39.48,39.57,64,52,25.81,13.09,55.26,18.52,84,22,43.68,5.29,88.16,1.91,132-2,45.08-4,92.54-3.83,134-22,24.79-10.86,43.72-32.06,64-50,6.11-5.41,17.33-17.33,17.33-17.33s-103,281.94-153.33,423.33c-29.13,81.83-55.23,164.77-86,246-9.19,24.24-17.42,49-29.43,72-6.73,12.87-11.39,28.88-23.72,36.57-4.72,2.94-13,6.24-16.57,2-22.47-26.71-31.74-62.36-43.71-95.14-19.15-52.4-30.38-107.4-44.58-161.4-23.07-87.7-44.72-175.83-66-264-15.41-63.88-29.15-128.16-44.67-192-8.12-33.42-25.33-100-25.33-100Z" transform="translate(-91.35 -61.68)"/><path id="path2998" class="cls-3" d="M157.63,524.67s34,50,57.53,68.19a290.47,290.47,0,0,0,108.29,52.29c52.49,12.74,108,6,162,4.28,22.36-.7,45.09-.81,66.86-6,28.81-6.87,57.46-17.14,82.57-32.86,17.6-11,31.47-27.16,46-42,5-5.06,14-16,14-16l-20,50S647,625,631.54,633.91c-22.76,13.08-46.44,25.89-72,31.9-48.1,11.32-98.73,8.91-148.1,6.67-42.73-1.94-86.74-3.27-127.14-17.33-31.25-10.88-60.15-29.22-85.43-50.58-11.56-9.77-29.33-34.66-29.33-34.66Z" transform="translate(-91.35 -61.68)"/><g class="cls-4"><path class="cls-5" d="M154.59,508c0-37.14-31.43-140-34.29-147.14S98.88,238,98.88,238s57.57,76.51,95.71,104.29c31.35,22.83,69.08,35.86,105.71,48.57,42.12,14.61,85.45,29.91,130,31.43,39,1.33,76.84-13.84,115.43-19.71,29.07-4.43,59.52-2.46,87.43-11.72s52.22-27.23,77.15-42.85c23.57-14.78,68.28-48,68.28-48s-31.75,98.81-48.28,148c-12.53,37.25-38.58,111.42-38.58,111.42s-80.72,63.93-128.57,80c-44.42,14.93-93.15,14-140,12.86-48.07-1.14-98.22-2.11-142.86-20-34.83-14-66.15-38-91.42-65.73C173.65,549.84,154.59,508,154.59,508Z" transform="translate(-91.35 -61.68)"/><path class="cls-6" d="M154.59,508c0-37.14-31.43-140-34.29-147.14S98.88,238,98.88,238s57.57,76.51,95.71,104.29c31.35,22.83,69.08,35.86,105.71,48.57,42.12,14.61,85.45,29.91,130,31.43,39,1.33,76.84-13.84,115.43-19.71,29.07-4.43,59.52-2.46,87.43-11.72s52.22-27.23,77.15-42.85c23.57-14.78,68.28-48,68.28-48s-31.75,98.81-48.28,148c-12.53,37.25-38.58,111.42-38.58,111.42s-80.72,63.93-128.57,80c-44.42,14.93-93.15,14-140,12.86-48.07-1.14-98.22-2.11-142.86-20-34.83-14-66.15-38-91.42-65.73C173.65,549.84,154.59,508,154.59,508Z" transform="translate(-91.35 -61.68)"/></g><g class="cls-7"><path class="cls-8" d="M101.74,250.86c-6.13-17.59-9.57-37.85-4.29-55.71,3.56-12.06,11.17-25.37,22.86-30,8.07-3.21,18,8.22,25.71,4.28,5.69-2.9,5.19-11.72,8.57-17.14,5.4-8.65,10.76-17.74,18.57-24.29,23-19.3,50.16-38,80-41.43,17.1-1.94,32.81,13.6,50,12.86,7.47-.32,14.9-3.33,21.15-7.43,7.6-5,9.91-17.2,18.57-20,16.72-5.41,34.67,14.57,51.71,10.29,10.17-2.56,14-18.23,24.29-20,5.49-.95,10.26,4.54,15.71,5.71,6.07,1.31,12.37,1.19,18.57,1.43,5.71.22,11.44-.31,17.14,0a342.25,342.25,0,0,1,38.58,4.29A289.66,289.66,0,0,1,546,82.29c13.68,4.24,27.27,9.15,40,15.71,11.62,6,20.52,17.09,32.86,21.43,13.54,4.77,29.48-.93,42.85,4.29,11.09,4.32,19.15,14.15,28.57,21.43,16.37,12.63,33.14,24.81,48.57,38.57,10.56,9.41,21.74,18.52,30,30a78.62,78.62,0,0,1,11.43,22.85c4.81,15.71,8.57,32.57,6.43,48.86-2.38,18.19-8.64,37.31-21,50.86-26.38,28.92-67.41,40.63-104,54.57-45.86,17.48-94,31.34-142.85,35.71-49.91,4.46-100.42-2.71-150-10-46.4-6.82-95.05-10.74-137.14-31.43-34.31-16.86-62.85-44.57-88.57-72.86-16.61-18.27-33.31-38.1-41.43-61.43Z" transform="translate(-91.35 -61.68)"/><path class="cls-9" d="M101.74,250.86c-6.13-17.59-9.57-37.85-4.29-55.71,3.56-12.06,11.17-25.37,22.86-30,8.07-3.21,18,8.22,25.71,4.28,5.69-2.9,5.19-11.72,8.57-17.14,5.4-8.65,10.76-17.74,18.57-24.29,23-19.3,50.16-38,80-41.43,17.1-1.94,32.81,13.6,50,12.86,7.47-.32,14.9-3.33,21.15-7.43,7.6-5,9.91-17.2,18.57-20,16.72-5.41,34.67,14.57,51.71,10.29,10.17-2.56,14-18.23,24.29-20,5.49-.95,10.26,4.54,15.71,5.71,6.07,1.31,12.37,1.19,18.57,1.43,5.71.22,11.44-.31,17.14,0a342.25,342.25,0,0,1,38.58,4.29A289.66,289.66,0,0,1,546,82.29c13.68,4.24,27.27,9.15,40,15.71,11.62,6,20.52,17.09,32.86,21.43,13.54,4.77,29.48-.93,42.85,4.29,11.09,4.32,19.15,14.15,28.57,21.43,16.37,12.63,33.14,24.81,48.57,38.57,10.56,9.41,21.74,18.52,30,30a78.62,78.62,0,0,1,11.43,22.85c4.81,15.71,8.57,32.57,6.43,48.86-2.38,18.19-8.64,37.31-21,50.86-26.38,28.92-67.41,40.63-104,54.57-45.86,17.48-94,31.34-142.85,35.71-49.91,4.46-100.42-2.71-150-10-46.4-6.82-95.05-10.74-137.14-31.43-34.31-16.86-62.85-44.57-88.57-72.86-16.61-18.27-33.31-38.1-41.43-61.43Z" transform="translate(-91.35 -61.68)"/></g><g class="cls-10"><path class="cls-11" d="M113.17,275.14s1.53,22.16,4.28,32.86C124,333.26,131,359.55,146,380.85c5.46,7.72,12,17.66,21.43,18.57,3.82.38,6.26-4.83,10-5.71,7.9-1.85,16.47,3.61,24.29,1.43,8.9-2.48,22.85-15.71,22.85-15.71-2.07,3.1-57-36.55-77.14-67.15-8.9-13.51-34.29-37.14-34.29-37.14Z" transform="translate(-91.35 -61.68)"/><path class="cls-12" d="M113.17,275.14s1.53,22.16,4.28,32.86C124,333.26,131,359.55,146,380.85c5.46,7.72,12,17.66,21.43,18.57,3.82.38,6.26-4.83,10-5.71,7.9-1.85,16.47,3.61,24.29,1.43,8.9-2.48,22.85-15.71,22.85-15.71-2.07,3.1-57-36.55-77.14-67.15-8.9-13.51-34.29-37.14-34.29-37.14Z" transform="translate(-91.35 -61.68)"/></g><g class="cls-13"><path class="cls-14" d="M276,403.72s23.75,46.17,42.85,62.86c4,3.5,9.29,5.29,14.29,7.14,7.36,2.72,15.67,2.54,22.86,5.71,6.28,2.78,10.27,11.4,17.14,11.43,13.07.07,20.66-16.7,32.86-21.43,16.64-6.44,37.37.31,52.85-8.57C471.2,453.8,486,428,486,428s-90.48-10.49-135.72-15.72L276,403.72Z" transform="translate(-91.35 -61.68)"/><path class="cls-12" d="M276,403.72s23.75,46.17,42.85,62.86c4,3.5,9.29,5.29,14.29,7.14,7.36,2.72,15.67,2.54,22.86,5.71,6.28,2.78,10.27,11.4,17.14,11.43,13.07.07,20.66-16.7,32.86-21.43,16.64-6.44,37.37.31,52.85-8.57C471.2,453.8,486,428,486,428s-90.48-10.49-135.72-15.72L276,403.72Z" transform="translate(-91.35 -61.68)"/></g><g class="cls-15"><path class="cls-16" d="M527.68,414.91c-4.18,11.74,18.09,17.34,25.48,27.38,4.55,6.19,5.41,15.24,11.43,20,6.62,5.23,15.86,7.65,24.29,7.14,14.48-.86,27.84-9.23,40-17.14,7.62-5,12.41-13.55,20-18.57,12.61-8.36,30.29-8.32,41.43-18.57,11.6-10.68,22.85-41.43,22.85-41.43s-70.51,16-105.71,24.29c-19.59,4.58-58.71,14-58.71,14s-18.67-3.77-21,2.9Z" transform="translate(-91.35 -61.68)"/><path class="cls-12" d="M527.68,414.91c-4.18,11.74,18.09,17.34,25.48,27.38,4.55,6.19,5.41,15.24,11.43,20,6.62,5.23,15.86,7.65,24.29,7.14,14.48-.86,27.84-9.23,40-17.14,7.62-5,12.41-13.55,20-18.57,12.61-8.36,30.29-8.32,41.43-18.57,11.6-10.68,22.85-41.43,22.85-41.43s-70.51,16-105.71,24.29c-19.59,4.58-58.71,14-58.71,14s-18.67-3.77-21,2.9Z" transform="translate(-91.35 -61.68)"/></g><g class="cls-17"><path class="cls-18" d="M123.17,370.86s36.55,30.4,45.71,51.43c4,9.21-.26,20.45,2.86,30,4.63,14.21,16,25.31,22.85,38.57C204.22,509.4,208.25,531,220.31,548c8.74,12.38,20.46,22.71,32.85,31.43,7.84,5.52,17,16.81,25.72,12.86,8.52-3.86,1.57-19.63,7.14-27.14,4.33-5.84,11.3-11.5,18.57-11.43,15.85.15,29.16,14.15,40,25.71,3.36,3.58,2.34,11.89,7.14,12.86,8.32,1.67,11.93-13.13,20-15.72,10-3.2,22.43-3.94,31.43,1.43,7.16,4.27,6.59,16,12.86,21.43,10.93,9.54,25.69,19.49,40,17.14,12-2,15.66-20.36,27.14-24.28,12.65-4.32,27.36-1.47,40,2.86,8.13,2.77,13,13,21.43,14.28,13.7,2.14,28.38-3.86,40-11.43,6.24-4.06,7.1-15.24,14.29-17.14,7.87-2.08,14.82,9.88,22.86,8.57,9.68-1.58,15.26-12.35,22.85-18.57,13.86-11.37,28.17-22.22,41.43-34.29,7.47-6.8,21.43-21.42,21.43-21.42l-15.71,45.71S648,603.2,621.74,618a314,314,0,0,1-100,35.72c-41.76,7.23-84.92,3.62-127.14,0-39-3.35-79.06-6.27-115.71-20-29.22-11-57.74-26.72-80-48.57-19.71-19.35-44.29-70-44.29-70s-8.85-60.33-15.71-90c-4.25-18.36-15.72-54.29-15.72-54.29Z" transform="translate(-91.35 -61.68)"/><path class="cls-19" d="M123.17,370.86s36.55,30.4,45.71,51.43c4,9.21-.26,20.45,2.86,30,4.63,14.21,16,25.31,22.85,38.57C204.22,509.4,208.25,531,220.31,548c8.74,12.38,20.46,22.71,32.85,31.43,7.84,5.52,17,16.81,25.72,12.86,8.52-3.86,1.57-19.63,7.14-27.14,4.33-5.84,11.3-11.5,18.57-11.43,15.85.15,29.16,14.15,40,25.71,3.36,3.58,2.34,11.89,7.14,12.86,8.32,1.67,11.93-13.13,20-15.72,10-3.2,22.43-3.94,31.43,1.43,7.16,4.27,6.59,16,12.86,21.43,10.93,9.54,25.69,19.49,40,17.14,12-2,15.66-20.36,27.14-24.28,12.65-4.32,27.36-1.47,40,2.86,8.13,2.77,13,13,21.43,14.28,13.7,2.14,28.38-3.86,40-11.43,6.24-4.06,7.1-15.24,14.29-17.14,7.87-2.08,14.82,9.88,22.86,8.57,9.68-1.58,15.26-12.35,22.85-18.57,13.86-11.37,28.17-22.22,41.43-34.29,7.47-6.8,21.43-21.42,21.43-21.42l-15.71,45.71S648,603.2,621.74,618a314,314,0,0,1-100,35.72c-41.76,7.23-84.92,3.62-127.14,0-39-3.35-79.06-6.27-115.71-20-29.22-11-57.74-26.72-80-48.57-19.71-19.35-44.29-70-44.29-70s-8.85-60.33-15.71-90c-4.25-18.36-15.72-54.29-15.72-54.29Z" transform="translate(-91.35 -61.68)"/></g><g class="cls-20"><path class="cls-21" d="M184.59,466.57c1.76-5.95,9.57-9.06,15.71-10,12.67-1.94,26,3.58,37.14,10s15.81,21.2,27.15,27.14c14.14,7.42,32,3.43,47.14,8.57,15.72,5.36,28.78,16.9,44.28,22.86,17.47,6.71,39.27,3.13,54.29,14.29,13.9,10.33,15.14,31.81,27.14,44.28,9.53,9.9,33.56,9.14,34.29,22.86.4,7.43-9.77,13.35-17.14,14.29-18.81,2.39-38.7-10.24-51.43-24.29-4.76-5.24-1.11-16.3-7.15-20-12.69-7.78-29.71,8.76-44.28,5.71-13.59-2.84-25.46-12.07-35.72-21.42-6.54-6-8.55-16.22-15.71-21.43C290.57,532.33,278,527.05,266,528c-13.37,1.06-31,6-35.71,18.57-1.78,4.81,10.19,11.77,5.71,14.28-10.37,5.84-15.35-18.33-21.42-28.57-12.3-20.7-36.84-42.62-30-65.71Z" transform="translate(-91.35 -61.68)"/><path class="cls-22" d="M184.59,466.57c1.76-5.95,9.57-9.06,15.71-10,12.67-1.94,26,3.58,37.14,10s15.81,21.2,27.15,27.14c14.14,7.42,32,3.43,47.14,8.57,15.72,5.36,28.78,16.9,44.28,22.86,17.47,6.71,39.27,3.13,54.29,14.29,13.9,10.33,15.14,31.81,27.14,44.28,9.53,9.9,33.56,9.14,34.29,22.86.4,7.43-9.77,13.35-17.14,14.29-18.81,2.39-38.7-10.24-51.43-24.29-4.76-5.24-1.11-16.3-7.15-20-12.69-7.78-29.71,8.76-44.28,5.71-13.59-2.84-25.46-12.07-35.72-21.42-6.54-6-8.55-16.22-15.71-21.43C290.57,532.33,278,527.05,266,528c-13.37,1.06-31,6-35.71,18.57-1.78,4.81,10.19,11.77,5.71,14.28-10.37,5.84-15.35-18.33-21.42-28.57-12.3-20.7-36.84-42.62-30-65.71Z" transform="translate(-91.35 -61.68)"/></g><g class="cls-23"><path class="cls-21" d="M731.45,443S706.1,459.71,696,470.86c-8.33,9.21-9.61,24.64-20,31.42-5.25,3.43-12.58,1-18.57,2.86-16.1,4.9-29.61,16.56-45.72,21.43-9.22,2.79-21.27,10.57-28.57,4.29-3.25-2.8,3.58-10.51,0-12.86-10-6.55-21,12.91-32.86,14.28-5.29.62-10.52-4-15.71-2.85-6.32,1.44-9.26,11.93-15.71,11.43-5.38-.42-6.13-12.4-11.43-11.43-10.28,1.88-15.25,18.4-12.86,28.57,3.1,13.17,18,24.21,31.43,25.71,10.58,1.18,18-15.07,28.57-14.28,11.59.85,17,19.35,28.57,20,6,.33,9.77-8.1,15.71-8.57,8.56-.69,15.82,10,24.29,8.57,11.37-1.89,28.71-10,27.14-21.43-.84-6.14-16.4-1-17.14-7.15-1-8.79,14.41-10.3,21.43-15.71,10.19-7.85,17.51-27.38,30-24.29,3.52.88.77,9.12,4.28,10,7.43,1.88,18-14.28,18-14.28Z" transform="translate(-91.35 -61.68)"/><path class="cls-22" d="M731.45,443S706.1,459.71,696,470.86c-8.33,9.21-9.61,24.64-20,31.42-5.25,3.43-12.58,1-18.57,2.86-16.1,4.9-29.61,16.56-45.72,21.43-9.22,2.79-21.27,10.57-28.57,4.29-3.25-2.8,3.58-10.51,0-12.86-10-6.55-21,12.91-32.86,14.28-5.29.62-10.52-4-15.71-2.85-6.32,1.44-9.26,11.93-15.71,11.43-5.38-.42-6.13-12.4-11.43-11.43-10.28,1.88-15.25,18.4-12.86,28.57,3.1,13.17,18,24.21,31.43,25.71,10.58,1.18,18-15.07,28.57-14.28,11.59.85,17,19.35,28.57,20,6,.33,9.77-8.1,15.71-8.57,8.56-.69,15.82,10,24.29,8.57,11.37-1.89,28.71-10,27.14-21.43-.84-6.14-16.4-1-17.14-7.15-1-8.79,14.41-10.3,21.43-15.71,10.19-7.85,17.51-27.38,30-24.29,3.52.88.77,9.12,4.28,10,7.43,1.88,18-14.28,18-14.28Z" transform="translate(-91.35 -61.68)"/></g><path id="path5038" class="cls-24" d="M649.54,619.91s-18.55,38.62-30,56.67c-12.49,19.7-27.18,38-42,56-15.19,18.47-31.53,36-48,53.33-12.11,12.77-24.4,25.39-37.33,37.33s-27.28,22.92-40.67,34.67c-9.45,8.31-28,25.33-28,25.33l29.33-8.67s21.52-18.46,32-28c17-15.44,34.07-30.81,50-47.33,15.41-16,29.93-32.82,44-50,16.27-19.88,32.39-40,46.66-61.33,10.3-15.4,19.07-31.78,28-48,6.52-11.84,18.67-36,18.67-36Z" transform="translate(-91.35 -61.68)"/><path id="path5040" class="cls-24" d="M602.88,651.24s-29.83,32.85-44.67,49.33c-17.17,19.07-33,39.4-51.33,57.34-19,18.63-39.94,35.28-60.67,52-13.46,10.85-41.33,31.33-41.33,31.33l5.33,14.66s40-27.31,58.67-42.66a683.73,683.73,0,0,0,54.67-50.67c24.85-25.46,48.35-52.29,70.66-80,12.27-15.23,34.67-47.33,34.67-47.33Z" transform="translate(-91.35 -61.68)"/><path id="path5042" class="cls-24" d="M516.88,687.24c-11.62,11.3-23.34,22.56-36,32.67-17.59,14-36.63,26.17-55.34,38.66q-22.68,15.15-46,29.34c-22.18,13.54-67.33,39.33-67.33,39.33l5.33,17.33s31.79-20.22,48-29.81c14.93-8.83,30.6-16.37,45.34-25.52,14.39-9,28.19-18.84,42-28.67,17.87-12.72,36.05-25.13,52.85-39.24,15.88-13.32,30.7-27.89,45.15-42.76,3.94-4.06,11.33-12.66,11.33-12.66l-29.33,4.67s-10.48,11.29-16,16.66Z" transform="translate(-91.35 -61.68)"/><path id="path5044" class="cls-24" d="M510.88,870.57s27.92-33.48,41.33-50.67q17.14-22,33.33-44.66c4.82-6.78,9.31-13.8,14-20.67,7.3-10.69,15-21.15,22-32,8.8-13.55,25.33-41.33,25.33-41.33l-14.66,40s-18.12,34.38-28.67,50.66c-10.8,16.68-23.45,32.08-35.33,48-13.66,18.31-41.33,54.66-41.33,54.66Z" transform="translate(-91.35 -61.68)"/><path id="path5046" class="cls-24" d="M494.2,673.91c5.58.8-57.31,44.59-88.66,62.67-34.11,19.67-71.41,33.21-107.33,49.33-23.24,10.43-70,30.67-70,30.67l-3.33-16.67s47.34-18.57,70.67-28.67c22.9-9.92,45.67-20.17,68-31.33,16.71-8.36,33.5-16.72,49.33-26.67,13.47-8.47,25.75-18.71,38.67-28,4.65-3.35,14-10,14-10Z" transform="translate(-91.35 -61.68)"/><path id="path5048" class="cls-24" d="M382.88,671.91l39.33,1.33S378,695.49,355.54,705.91c-23.55,10.93-47.11,22-71.33,31.33-22.08,8.55-67.33,22.67-67.33,22.67l-4.67-16.67s44.72-14.82,66.67-23.33c16.9-6.55,33.4-14.07,50-21.33,12.94-5.66,26.17-10.76,38.67-17.34,5.29-2.79,15.33-9.33,15.33-9.33Z" transform="translate(-91.35 -61.68)"/><path id="path5050" class="cls-24" d="M198.88,689.24s41.69-14.49,62.66-21.33c10.63-3.47,32-10,32-10l24.67,6s-31.62,11.82-47.33,18c-22.55,8.86-67.34,27.33-67.34,27.33Z" transform="translate(-91.35 -61.68)"/><path id="path5052" class="cls-24" d="M182.88,619.24c8,0,28.66-2,28.66-2l16.67,11.33-40.67,10Z" transform="translate(-91.35 -61.68)"/><path id="path5054" class="cls-24" d="M612.21,645.91s11,3.57,16.66,4c10.45.79,31.34-2.67,31.34-2.67l-9.33,20.67s-14.72.88-22,0c-8.41-1-16.5-3.79-24.67-6-6-1.63-18-5.33-18-5.33Z" transform="translate(-91.35 -61.68)"/><path id="path5056" class="cls-24" d="M512.88,672.57s19.18,4.16,28.66,6.67c18.15,4.79,35.54,12.6,54,16,14.47,2.66,44,3.33,44,3.33l-6,20s-35.85-4.32-53.33-8.67c-14.8-3.68-29-9.43-43.33-14.66-13.69-5-27-10.94-40.67-16-5.08-1.88-15.34-5.33-15.34-5.33,11.78,1,20.22,1.22,32-1.34Z" transform="translate(-91.35 -61.68)"/><path id="path5058" class="cls-24" d="M412.88,672.57S436.3,692,449.54,699.24s27.7,12,42,16.66c21.4,7.06,43.34,12.47,65.34,17.34,16.08,3.56,32.34,6.37,48.66,8.66,6.42.91,19.34,2,19.34,2l-7.34,20s-40.08-9.47-60-14.66c-22.54-5.88-45.12-11.67-67.33-18.67-18.44-5.81-37.24-11-54.67-19.33-9.9-4.75-19.12-10.88-28-17.34-9.43-6.86-26.67-22.66-26.67-22.66Z" transform="translate(-91.35 -61.68)"/><path id="path5060" class="cls-24" d="M339.55,666.57s28.08,30,44.66,42c18.23,13.14,38.76,23,59.34,32,18.08,7.94,37.33,12.88,56,19.33,17.33,6,34.38,12.87,52,18,18.42,5.37,56,13.34,56,13.34l-5.34,14s-37.91-8.83-56.67-14c-26.42-7.29-52.86-14.74-78.66-24-24-8.62-48.33-17-70.67-29.34-16.91-9.3-32.62-20.84-47.34-33.33-15.22-12.91-42-42.66-42-42.66Z" transform="translate(-91.35 -61.68)"/><path id="path5062" class="cls-24" d="M263.55,647.24s24.72,33.35,39.33,48c21.38,21.45,45.53,40.09,70.09,57.81a366.55,366.55,0,0,0,38.57,24.19,673.89,673.89,0,0,0,68,32c26.15,10.7,80,28,80,28l-3.33,17.33s-41.93-16.05-62.67-24.66c-37.41-15.52-76.82-27.47-111.34-48.66-29.19-17.92-54.8-41.42-79.33-65.33-20.64-20.13-41.06-41.1-56.66-65.34-3.18-4.93-7.34-16-7.34-16Z" transform="translate(-91.35 -61.68)"/><path id="path5064" class="cls-24" d="M218.88,621.91s10,32.74,18.66,47.33c12.39,20.9,29.83,38.48,46.67,56,20.87,21.72,43.12,42.28,67.05,60.57,18.34,14,39.2,24.43,58.28,37.43,20.39,13.9,60,43.34,60,43.34l-16,8s-21.47-21.55-34-30c-9.06-6.12-19.87-9.2-29.33-14.67a444.37,444.37,0,0,1-49.34-32.66c-20.06-15.48-38.76-32.74-56.67-50.67-19.35-19.38-40.11-38.13-54.67-61.33-16.36-26.08-35.33-85.34-35.33-85.34a307.16,307.16,0,0,0,24.67,22Z" transform="translate(-91.35 -61.68)"/><path id="path5066" class="cls-24" d="M196.68,679.43s26.53,29.46,40.2,43.81c20.05,21,40.44,41.79,61.33,62,17.63,17.06,35.26,34.17,54,50,11.14,9.41,34.67,26.67,34.67,26.67l-6.67,12s-31.8-21.31-46.67-33.33c-13.57-11-26.08-23.24-38.66-35.34-19.14-18.41-37.54-37.57-56-56.67-11.69-12.09-34.67-36.66-34.67-36.66Z" transform="translate(-91.35 -61.68)"/><path id="path5068" class="cls-24" d="M214.21,750.57s31.07,33.07,46.38,49.81c11.55,12.63,34.29,38.19,34.29,38.19l-5.34,12.67s-18.25-22.15-28-32.67c-8.54-9.22-18.36-17.23-26.66-26.67-5.76-6.53-16-20.66-16-20.66Z" transform="translate(-91.35 -61.68)"/><path id="path5070" class="cls-24" d="M226.88,811.24c2.66,3.33,44.66,44,44.66,44l-6.66,6c-9-8.57-18.44-17.77-32.67-33.33Z" transform="translate(-91.35 -61.68)"/><path id="path3004" class="cls-25" d="M238.88,859.43s30.22-3.74,42.85-11.43c12.1-7.36,14.58-33.58,28.57-31.43,13.48,2.08,9.89,25.6,17.15,37.14,7.56,12,12.95,33.54,27.14,32.86,19.52-.93,18.35-35.46,32.86-48.57,5.21-4.71,11.72-11.59,18.57-10,16,3.71,13.3,34.06,28.57,40,15,5.82,31.09-9.23,47.14-10,21.06-1,44.85,18.11,62.86,7.14,9.14-5.56,4.42-21.91,11.43-30,3.21-3.7,8.07-6,12.85-7.14,7.91-1.8,24.29,1.43,24.29,1.43S548,953.09,526,1015.14c-26.23,74.11-49.8,149.16-77.15,222.86-9.44,25.45-16.86,52-30,75.71-4.28,7.76-8.94,15.72-15.71,21.43-3.26,2.75-7.35,6.95-11.43,5.72-28.39-8.57-32.81-49.81-44.29-77.15-37.52-89.3-54.11-186.2-78.58-280-10.76-41.24-30-124.29-30-124.29Z" transform="translate(-91.35 -61.68)"/><g class="cls-26"><path id="path3849" class="cls-27" d="M284.34,865.56a30.37,30.37,0,0,0-8.21,1.15,23.87,23.87,0,0,0-9.11,4.81,21.39,21.39,0,0,0-5.9,8.08,17.57,17.57,0,0,0-1.45,8,15.8,15.8,0,0,0,5.86,11.12,25.54,25.54,0,0,0,5.43,3l-10.87,7.9a37,37,0,0,1-9.38,5.37,15.56,15.56,0,0,1-8,.43l-1.19,1,33.86,14.3,1.18-1a14.89,14.89,0,0,1-3.26-2.6A4.8,4.8,0,0,1,272,924.6a5.59,5.59,0,0,1,.47-2.89,13.9,13.9,0,0,1,4.14-4.89q2.67-2.21,5.27-4l28.75-21.05a30.13,30.13,0,0,1,7.32-4.06,13.38,13.38,0,0,1,6.4-.73l1.2-1a48.82,48.82,0,0,1-4.79-2.53q-1.75-1.11-4.85-3.53l-5.5-4.49a47.16,47.16,0,0,0-11.29-6.85,37.23,37.23,0,0,0-11.86-2.93c-1-.07-1.95-.11-2.91-.1Zm0,.93c.92,0,1.86,0,2.81.12a37.45,37.45,0,0,1,11.53,2.93c.71.3,1.8.82,3.24,1.56a41.12,41.12,0,0,1,3.92,2.26,36.58,36.58,0,0,1,3.35,2.46l5.41,4.35a51.58,51.58,0,0,0,8.33,5.6,15.24,15.24,0,0,0-6,1.15,32,32,0,0,0-6.73,4l-29,21.11a6,6,0,0,0-.6.43l-.79.62L277,915.19c-2.82,2.1-4.67,4.18-5.52,6.2q-1.73,4.07,2.17,7.54l-28.94-12.22a19.54,19.54,0,0,0,5.17-.45,19.25,19.25,0,0,0,4.63-1.8,62.92,62.92,0,0,0,6.4-4.16l11.28-8.2a36.16,36.16,0,0,0,4.83.7,15.71,15.71,0,0,0,3.69-.2,42.6,42.6,0,0,0,4.53-1.13l-11.4,8.24q-6.81,4.9-8,7.62a4.81,4.81,0,0,0,.29,4.24,18.85,18.85,0,0,0,4.54,5.14,10.07,10.07,0,0,1-.71-3.16,6.55,6.55,0,0,1,.59-2.64,12.46,12.46,0,0,1,2.81-3.86,62.8,62.8,0,0,1,7.05-5.6l29.34-21.52a44.4,44.4,0,0,1,5.74-3.43,15.61,15.61,0,0,1,4.55-1.5,32.38,32.38,0,0,0-11-.68l-1.43.06a2.34,2.34,0,0,1-1.19.08c-.08,0-.13-.05-.15-.08a1.45,1.45,0,0,1-.14-.41c-.07-.26-.15-.52-.2-.77a13.19,13.19,0,0,0-3.29-6.34,19.14,19.14,0,0,0-6.83-4.61,21.11,21.11,0,0,0-7.88-1.72l1.11.47a15.92,15.92,0,0,1,6.71,5.39l1.27.53c2.68,1.13,3.64,2.63,2.85,4.49a4,4,0,0,1-1,1.47,2,2,0,0,0-.51.55c-.13.3-.06.5.21.62a19.42,19.42,0,0,0,3.05,0,8.21,8.21,0,0,1,3.31.18.79.79,0,0,1,.57.61,1.62,1.62,0,0,1-.16.95q-.58,1.4-3.86,3.74l-6.65,4.79a19,19,0,0,0,1.66-3,14.87,14.87,0,0,0,1-8.31l.34-.34a4.65,4.65,0,0,0,1.09-1.42,1.89,1.89,0,0,0-.08-1.81A3.93,3.93,0,0,0,297,878a9.36,9.36,0,0,0-1.78-.46,15.64,15.64,0,0,0-6.71-5.78,13.83,13.83,0,0,0-6.32-1,12.74,12.74,0,0,0-5.92,1.8,8.84,8.84,0,0,0-3.64,4.1,6.07,6.07,0,0,0,1.05,6.5c-.6,3.26.63,5.52,3.72,6.83a8.67,8.67,0,0,0,6.45.22,7.19,7.19,0,0,0,4.46-4,5.76,5.76,0,0,0,.18-4.34,5.54,5.54,0,0,0-6.87-3.15,4.8,4.8,0,0,0-2.7,2.79,5.54,5.54,0,0,0-.31,2.58,5.15,5.15,0,0,1-2.52-.38,4.65,4.65,0,0,1-2.71-2.73,5.14,5.14,0,0,1,.16-3.92,7.34,7.34,0,0,1,2.26-3,10.39,10.39,0,0,1,3.64-1.88,12.52,12.52,0,0,1,4.37-.5,13.78,13.78,0,0,1,11.68,8.18q2.65,5.08.08,11.15a16.22,16.22,0,0,1-6.09,7.16,20.84,20.84,0,0,1-9.59,3.49,19.69,19.69,0,0,1-9.94-1.39,15.21,15.21,0,0,1-6.41-4.89,14.28,14.28,0,0,1-2.83-7.28,16.44,16.44,0,0,1,1.31-8.2,20.37,20.37,0,0,1,5.72-7.8,23,23,0,0,1,8.73-4.55,28.62,28.62,0,0,1,7.88-1Zm289.2,2a8.92,8.92,0,0,0-2.83.67,16.06,16.06,0,0,0-5.48,3.92,30.15,30.15,0,0,0-4.73,6.79c-1.55-3.79-4.2-4.94-8-3.4q-5,2-9.76,8.65l-.58.81.89-5.6a16,16,0,0,0-2.33.75,26.1,26.1,0,0,0-4.24,2.2,57.41,57.41,0,0,0-5,3.74,27.36,27.36,0,0,1-5.88,4,5.23,5.23,0,0,1-3.15.22,5.77,5.77,0,0,0-.06,3.72q1.57,3.84,6.74,2l-5.45,36.67,11.64-6a119.57,119.57,0,0,1,2.2-13.35,89.24,89.24,0,0,1,3.66-11.6,64.22,64.22,0,0,1,3.29-7.22c.92-1.65,1.67-2.59,2.28-2.84.41-.16.69-.09.83.24.36.88.15,3.83-.6,8.85l-.18.95-3.56,22.91L555,919.63l.2-1.66a106.49,106.49,0,0,1,2.3-12.62,81.15,81.15,0,0,1,3.6-10.86,46.93,46.93,0,0,1,3.7-7.23c1.28-2,2.39-3.14,3.33-3.52a.64.64,0,0,1,1,.37q.42,1-.93,5.72l-2,6.83c-2.16,7-2.71,11.76-1.64,14.38a5.11,5.11,0,0,0,3,3,5.75,5.75,0,0,0,4.4-.1,21.05,21.05,0,0,0,7-5.27,51.65,51.65,0,0,0,6.89-9.42l-.89-.73a14.31,14.31,0,0,1-4.61,3.16c-1.71.7-2.82.41-3.35-.89a4.18,4.18,0,0,1-.22-1.94,30.82,30.82,0,0,1,.79-3.92c1.56-6.25,2.52-10.63,2.85-13.1a19.81,19.81,0,0,0,.22-5,14.31,14.31,0,0,0-.89-4.28,6.14,6.14,0,0,0-3.5-3.62,6,6,0,0,0-2.54-.38Zm.4,1.11a5.35,5.35,0,0,1,1.68.34,5.12,5.12,0,0,1,3.11,3.08,14.84,14.84,0,0,1,.81,6.34,53.07,53.07,0,0,1-1.72,9.8l-1.45,5.7c-.79,3-.92,5.16-.39,6.46q1.11,2.72,4.65,1.26a13.63,13.63,0,0,0,2.91-1.7,41.44,41.44,0,0,1-5.82,7.52,19.26,19.26,0,0,1-6.1,4.56,5,5,0,0,1-3.72.12,4.13,4.13,0,0,1-2.49-2.4,11.3,11.3,0,0,1-.26-5.72,91.19,91.19,0,0,1,2.67-11.05l1.64-5.38c.73-2.39.92-4,.54-5s-1.13-1.23-2.2-.8-2.21,1.6-3.5,3.51a45.72,45.72,0,0,0-3.94,7.4,71.9,71.9,0,0,0-2.75,7.27,66.6,66.6,0,0,0-1.94,7.62c-.54,2.74-1,5.94-1.49,9.62l-.14.93-9.38,4.74,3.24-21.33c.92-5.31,1.09-8.65.54-10a1.25,1.25,0,0,0-1.82-.8q-2.68,1.1-6.69,11.78a93.16,93.16,0,0,0-3.21,10.2,115.68,115.68,0,0,0-2.08,11.86l-.26,1.36-9.36,5,5.4-36.78c-.89.49-1.38.76-1.46.79a5.16,5.16,0,0,1-3.45.32,3.08,3.08,0,0,1-2.12-1.8,3.63,3.63,0,0,1-.06-2.14,7.06,7.06,0,0,0,2.76-.5,24,24,0,0,0,4.93-3.13l3.3-2.73a29.73,29.73,0,0,1,6.24-3.8c.19-.08.4-.15.61-.22l.72-.21-1.07,7.8a49.32,49.32,0,0,1,6.17-8.06,18.1,18.1,0,0,1,5.9-4.14c3.17-1.29,5.4-.28,6.74,3a8.46,8.46,0,0,1,.57,2.12,30,30,0,0,1,4.87-7.76,16.17,16.17,0,0,1,5.78-4.48,7.42,7.42,0,0,1,3.09-.61Zm3.15,3.68a1.21,1.21,0,0,0-.46.12,3,3,0,0,0-1.25,1.07,9.65,9.65,0,0,1-2.35,2.75,1.83,1.83,0,0,1-.81.14,4.86,4.86,0,0,1,1.34,1.6c.63,1.54.7,3.72.2,6.52q-.24,1.63-1.74,7.88a61.3,61.3,0,0,0-1.37,7.72,9.26,9.26,0,0,0,.42,4.22c.76,1.87,2.39,2.28,4.89,1.26a14.82,14.82,0,0,0,4.73-3.13c-2.78,1.14-4.64.53-5.6-1.84a7.16,7.16,0,0,1-.32-3.72,21.45,21.45,0,0,1,.42-2.65c.22-1,.66-2.74,1.32-5.13a47.79,47.79,0,0,0,2-11.46,11.49,11.49,0,0,0-.43-4.48c-.24-.57-.56-.88-1-.87ZM283,874.59a8.17,8.17,0,0,0-3.8,1.13,5.71,5.71,0,0,0-2.42,2.73,4.1,4.1,0,0,0,1.07,4.79,4.49,4.49,0,0,1,.3-2.44,5.53,5.53,0,0,1,3.22-3.1,5.88,5.88,0,0,1,4.6.08q3.81,1.61,3.8,6.33a2.38,2.38,0,0,0,.41-.1,1.22,1.22,0,0,1,.32-.06c1-.18,1.63-.53,1.84-1q.72-1.68-.95-4.09a9.68,9.68,0,0,0-4.29-3.53,9.17,9.17,0,0,0-4.1-.71Zm-11,1.34a8.82,8.82,0,0,0-3.13,4,10.32,10.32,0,0,0-.85,4.6c.08,1.53.5,2.47,1.27,2.79a2.23,2.23,0,0,0,1.14-.1,4.89,4.89,0,0,1,2.36-.42,8.46,8.46,0,0,1-.2-3.32,7,7,0,0,1-1.42-3.31,6.2,6.2,0,0,1,.41-3.44,3.81,3.81,0,0,1,.42-.76Zm298.16,1.65a5.86,5.86,0,0,0-2.12.47,10.26,10.26,0,0,0-3.07,2.18,20.54,20.54,0,0,0-3,3.86,37.17,37.17,0,0,0-2.67,5.25l.08-1.23c.3-3.27.22-5.49-.26-6.67s-1.28-1.66-2.29-1.25a9.26,9.26,0,0,0-2.5,2.71,8,8,0,0,1-2.34,2.54,2.21,2.21,0,0,1-.61.16,4.62,4.62,0,0,1,2,2.21,10.67,10.67,0,0,1,.63,4.18,66.15,66.15,0,0,1-.89,8.16l-1.94,13.2a9,9,0,0,0-.16,3.23c.19.47,1,.83,2.42,1.09q1.79-16.5,8.28-28.53a32.34,32.34,0,0,1,3.1-4.95,7.51,7.51,0,0,1,2.78-2.36,2.68,2.68,0,0,1,2.75.38,3.24,3.24,0,0,1,.89-1.56l1-.8a1,1,0,0,0,.37-1.16,1.86,1.86,0,0,0-1.68-1.07,3.71,3.71,0,0,0-.67,0Zm-274.35,1a4.21,4.21,0,0,1,1,.27,2.91,2.91,0,0,1,1.23.92,1.09,1.09,0,0,1,.19,1.1,4.32,4.32,0,0,1-1,1,10.6,10.6,0,0,0-1.42-3.26Zm-12.16.89a3.62,3.62,0,0,1,1.47.3,4.2,4.2,0,0,1,2.33,5.78,6.36,6.36,0,0,1-3.92,3.72,7.81,7.81,0,0,1-5.74-.3,4.59,4.59,0,0,1-3.15-5,4.57,4.57,0,0,0,1.19.74,5.11,5.11,0,0,0,4.14,0,4.52,4.52,0,0,1,0-3,3.61,3.61,0,0,1,2.14-2,4.09,4.09,0,0,1,1.5-.3Zm9.51,3.13a17.94,17.94,0,0,1-1.21,5.62,12.09,12.09,0,0,1-4.26,5.32,13,13,0,0,1-6.47,2.36,14.91,14.91,0,0,1-7.25-1.19,10.47,10.47,0,0,1-4.59-3.46,13.71,13.71,0,0,1-2.18-5.82,3.76,3.76,0,0,1-2.63,1.34,5.66,5.66,0,0,0-1.84.46,1.66,1.66,0,0,0-.7.83,5,5,0,0,0,.38,3.37,13.94,13.94,0,0,0,8,8,17.87,17.87,0,0,0,7.15,1.38,20.63,20.63,0,0,0,7.2-1.31,19.12,19.12,0,0,0,6.06-3.66,15.13,15.13,0,0,0,4-5.44,10.6,10.6,0,0,0,.77-6.79.69.69,0,0,0-.39-.66,3.87,3.87,0,0,0-.86-.16,2.47,2.47,0,0,1-1.16-.19Zm247.7.51a37.58,37.58,0,0,0-2.74,3,33.8,33.8,0,0,1-4.13,4.24,16.34,16.34,0,0,1-4.16,2.41,7.85,7.85,0,0,1-5.66.44,2.12,2.12,0,0,0,.09.93,2.08,2.08,0,0,0,1.75,1.21,5.51,5.51,0,0,0,3-.46,16.24,16.24,0,0,0,5.2-3.6,4.05,4.05,0,0,1,.85-.64c.34-.13.57-.07.68.2a17.48,17.48,0,0,1-.2,2.73l-4.3,27.58a8.85,8.85,0,0,0-.17,3.45c.14.36.76.71,1.84,1.07a1.68,1.68,0,0,1,.31.1l.44.12a92.5,92.5,0,0,1,5-21.64,76.52,76.52,0,0,1,4.35-9.84q1.68-2.88,3.37-3.57a2.2,2.2,0,0,1,2.75.75,4.14,4.14,0,0,1,.36-1.26,9.67,9.67,0,0,1,1.31-1.49c.76-.89,1.06-1.55.87-2a1.48,1.48,0,0,0-1.27-.85,4.14,4.14,0,0,0-2.12.34,13.51,13.51,0,0,0-5.27,4.41,19.47,19.47,0,0,0-2.09,3.45c-.64,1.31-1.41,3.23-2.34,5.76l-.71,1.88,3-18.69Zm-29.54,10.47a18,18,0,0,0-5.68,1.07,31.84,31.84,0,0,0-10.93,6.54,45.25,45.25,0,0,0-9.05,11.26,48.5,48.5,0,0,0-5.9,14.69,23.61,23.61,0,0,0,.37,12.4,8,8,0,0,0,4.06,4.77,7.66,7.66,0,0,0,6.16.37,16.31,16.31,0,0,0,6.38-4.51,27.43,27.43,0,0,0,4.05-4.81,5.46,5.46,0,0,0,2.84,3.17,5.6,5.6,0,0,0,4.25.12q6.24-2.13,14.63-14.16l-.73-.5c-1.21.88-2.26,1.59-3.15,2.12a12.25,12.25,0,0,1-2.37,1.17c-1.44.49-2.36.12-2.78-1.09a8.3,8.3,0,0,1,.26-3.94L516.4,910l-2.29.59.79-.71a12.09,12.09,0,0,0,2.75-3.43A11.42,11.42,0,0,0,519,902.4a8.52,8.52,0,0,0-.36-3.9,6.69,6.69,0,0,0-4.59-4.53,9.55,9.55,0,0,0-2.79-.38Zm-.2,1a9.36,9.36,0,0,1,2.55.28,5.69,5.69,0,0,1,4.14,3.9,8.24,8.24,0,0,1-.51,6.42A14.23,14.23,0,0,1,512,910.9l-.28,1.36,3.43-1L512.76,922a9.18,9.18,0,0,0-.29,4.54,2.67,2.67,0,0,0,1.56,1.74,3.63,3.63,0,0,0,2.59-.06,12.59,12.59,0,0,0,3.27-1.76,48.5,48.5,0,0,1-6.43,7.27,18.52,18.52,0,0,1-5.94,4,5,5,0,0,1-3.61,0,4,4,0,0,1-2.21-2.56,7.32,7.32,0,0,1-.22-3,29.57,29.57,0,0,1-5.33,7.37,16.72,16.72,0,0,1-6.23,4.27,6.63,6.63,0,0,1-5.37-.33,7,7,0,0,1-3.52-4.16c-1.14-3.35-1.21-7.37-.24-12a47.91,47.91,0,0,1,5.66-14.27,44.21,44.21,0,0,1,8.73-10.83,31.11,31.11,0,0,1,10.75-6.48,17.23,17.23,0,0,1,5.15-1Zm3.82,2.16a1.84,1.84,0,0,0-.38.08,5.62,5.62,0,0,0-1.18.77,6.42,6.42,0,0,1-1.49.79,6.34,6.34,0,0,1,1.72,2.42,8.23,8.23,0,0,1,.08,4.71,11,11,0,0,1-2.49,4.67,11.05,11.05,0,0,0,5.17-4.91,7.69,7.69,0,0,0,.69-6.25c-.54-1.6-1.26-2.35-2.12-2.28ZM508,898.37a6.93,6.93,0,0,0-1.62.35,21.08,21.08,0,0,0-5.9,3.25,35.73,35.73,0,0,0-5.78,5.56,44.89,44.89,0,0,0-5,7.19,42,42,0,0,0-3.21,6.89,25.66,25.66,0,0,0-1.39,5.88,11.13,11.13,0,0,0,.4,4.65,3.49,3.49,0,0,0,1.42,1.92,2.33,2.33,0,0,0,2.08.24,6.11,6.11,0,0,0,2-1.52c.45-.44,1.2-1.08,2.26-1.94a3.77,3.77,0,0,1-3.68-2.82,10.32,10.32,0,0,1,.29-6.15,34.76,34.76,0,0,1,3.81-8.22,38.38,38.38,0,0,1,5.64-7.19,15.26,15.26,0,0,1,5.5-3.64,3.94,3.94,0,0,1,4.48,1,2.67,2.67,0,0,1,.81-1.88c1-1.09,1.41-1.81,1.29-2.18-.22-.64-.84-1.06-1.87-1.27a5.42,5.42,0,0,0-1.56-.09Zm-1.68,5.12a4.17,4.17,0,0,0-1.25.24,12.18,12.18,0,0,0-3.82,2.26,26.9,26.9,0,0,0-3.88,4,37.53,37.53,0,0,0-3.53,5.42q-4.51,8-3.14,12c.72,2.14,2.13,2.86,4.21,2.16a9.61,9.61,0,0,0,3.33-2.24,20.89,20.89,0,0,0,3.11-3.72,36.33,36.33,0,0,0,2.73-5.25q-4.61.86-5.5-1.8a4.14,4.14,0,0,1-.06-2.1,6.7,6.7,0,0,0,3-.35,12.64,12.64,0,0,0,4-2.34,11.11,11.11,0,0,0,2.83-3.47,4.09,4.09,0,0,0,.49-3.14,2.43,2.43,0,0,0-1.44-1.53,3,3,0,0,0-1.11-.2Zm-.1,1a2,2,0,0,1,.73.1,1.45,1.45,0,0,1,.95.95q.56,1.65-1.68,4.2a11.83,11.83,0,0,1-5.11,3.52,5,5,0,0,1-3.29,0,6.52,6.52,0,0,0-.23,3.57A3.57,3.57,0,0,0,499.3,919a7.24,7.24,0,0,0,3.21.61,23.06,23.06,0,0,1-3.75,5.9,10.52,10.52,0,0,1-4.23,3.17c-1.38.47-2.33,0-2.83-1.53q-1.2-3.49,3-11.32a33.45,33.45,0,0,1,5.2-7.25,14.65,14.65,0,0,1,5.55-3.92,3,3,0,0,1,.83-.18ZM578.79,906a13.68,13.68,0,0,1-2.71,1.58,6.11,6.11,0,0,1-2.28.46l-.47.47c-.85.83-1.29,1.26-1.33,1.31-.58.55-.82,1-.69,1.29s.67.4,1.52.06c1.79-.73,3.77-2.45,6-5.17Zm-256.39.16a41.64,41.64,0,0,0-6.69.43A46.23,46.23,0,0,0,307,908.7a34.52,34.52,0,0,0-7.72,4.08,30.74,30.74,0,0,0-6.16,5.58,20.57,20.57,0,0,0-3.68,6.28,12.51,12.51,0,0,0-.64,6.22,10.82,10.82,0,0,0,2.44,5.38,11,11,0,0,0,4.89,3.39,18.24,18.24,0,0,0,5.18,1,23.48,23.48,0,0,0,5.57-.44,34.35,34.35,0,0,0,6.18-1.92,44.66,44.66,0,0,0,10.63-6.67l-.4-.85a31.41,31.41,0,0,1-5.13,1.4,21.76,21.76,0,0,1-5,.2,17.53,17.53,0,0,1-4.67-.83A6.21,6.21,0,0,1,305,928.9a4.46,4.46,0,0,1-.22-3.91,11.63,11.63,0,0,1,3-4.31,21.13,21.13,0,0,1,5.17-3.66,19.53,19.53,0,0,1,5.56-1.94,11.08,11.08,0,0,1,4.89.06,7.35,7.35,0,0,0-2.47,3.38,4.75,4.75,0,0,0,0,3.5,3.73,3.73,0,0,0,2.33,2.24l1.31.46.43-.7a8,8,0,0,1,1.71-2.47,19.51,19.51,0,0,1,3.48-2.32l2.75-1.52a37.88,37.88,0,0,0,5.82-3.84l.82-.66.77-.63a28.58,28.58,0,0,0-3.84-2.89,23.4,23.4,0,0,0-4.2-1.9,29.44,29.44,0,0,0-7.74-1.54c-.7-.06-1.42-.09-2.14-.1Zm-2,1c1.15,0,2.31,0,3.44.06a29.82,29.82,0,0,1,8.08,1.54,21.79,21.79,0,0,1,6.87,3.82,48.46,48.46,0,0,1-6.39,4.3l-2.77,1.52a20.09,20.09,0,0,0-3.55,2.36,11.07,11.07,0,0,0-2,2.75,1.61,1.61,0,0,1-.53-.1,2.91,2.91,0,0,1-1.82-1.74,4,4,0,0,1,0-2.85,4.94,4.94,0,0,1,1-1.76c.36-.4,1.2-1.17,2.53-2.34l-.77-.28q-4.58-1.62-11,1.27a22.1,22.1,0,0,0-6.14,3.94,12.64,12.64,0,0,0-3.56,5,5.39,5.39,0,0,0,.32,4.63,7,7,0,0,0,4,3.17,18.48,18.48,0,0,0,6.09,1,23.27,23.27,0,0,0,6.56-1,36.73,36.73,0,0,1-8.3,4.93,27.54,27.54,0,0,1-8.45,2.12,18.37,18.37,0,0,1-7.61-.87,9.84,9.84,0,0,1-6-5.41,10.85,10.85,0,0,1-.16-8.31,17.28,17.28,0,0,1,2.18-4.18,28.17,28.17,0,0,1,3.5-4.1,28.65,28.65,0,0,1,4.61-3.64,34.17,34.17,0,0,1,5.15-2.74,40.14,40.14,0,0,1,8.85-2.55,40.56,40.56,0,0,1,5.84-.59Zm147.54.43a14.35,14.35,0,0,0-3,.52,21.18,21.18,0,0,0-4.53,1.78,32.7,32.7,0,0,0-4.4,2.79,45.72,45.72,0,0,0-4.41,3.84,41.23,41.23,0,0,0-4.2,4.81,36.65,36.65,0,0,0-4.93,8.24,30.66,30.66,0,0,0-2.36,8.65,20.87,20.87,0,0,0,.48,7.84,12.35,12.35,0,0,0,3,5.46,11.05,11.05,0,0,0,11,3.11,18,18,0,0,0,4.83-2.11,23.58,23.58,0,0,0,4.33-3.53,34.1,34.1,0,0,0,4-5.09,44.32,44.32,0,0,0,5-11.52l-.81-.47a30.77,30.77,0,0,1-3.45,4.05,21.47,21.47,0,0,1-4,3,17,17,0,0,1-4.33,1.94,6,6,0,0,1-4.36-.21,4.7,4.7,0,0,1-2.39-3.15,10.5,10.5,0,0,1,.23-5.82,4.65,4.65,0,0,0,2.95,2.71,8.49,8.49,0,0,0,5,0,17.22,17.22,0,0,0,6.26-3.21,24,24,0,0,0,5.07-5.36,20,20,0,0,0,2.93-6.42,12.36,12.36,0,0,0,.08-6.21,7,7,0,0,0-3.84-4.89,8.6,8.6,0,0,0-4.16-.72Zm.08,1a7.42,7.42,0,0,1,3.58.64,6,6,0,0,1,3.33,4.13,11.53,11.53,0,0,1,0,5.86,19.42,19.42,0,0,1-2.73,6,21.89,21.89,0,0,1-4.77,5.13,16.71,16.71,0,0,1-5.86,3,7.76,7.76,0,0,1-4.56,0,3.53,3.53,0,0,1-2.47-2.5,4.46,4.46,0,0,1,0-1.84,7.55,7.55,0,0,0,3.56-.14,12.84,12.84,0,0,0,4.44-2.21,11.81,11.81,0,0,0,3.18-3.51,4.58,4.58,0,0,0,.66-3.48,2.15,2.15,0,0,0-1.17-1.49,3.43,3.43,0,0,0-2.28,0,10.23,10.23,0,0,0-4,2.54,21.38,21.38,0,0,0-3.88,4.85,22.15,22.15,0,0,0-2.51,6.47,12.41,12.41,0,0,0-.06,5.84,5.47,5.47,0,0,0,2.89,3.67,7,7,0,0,0,5.11.33,18.06,18.06,0,0,0,5.58-2.63,23,23,0,0,0,4.87-4.49,36.86,36.86,0,0,1-4.06,8.75,27.24,27.24,0,0,1-5.76,6.53,18.32,18.32,0,0,1-6.77,3.58,9.78,9.78,0,0,1-8-1.07,10.77,10.77,0,0,1-4.85-6.75,22,22,0,0,1,0-10.23A30.29,30.29,0,0,1,446,925a49.22,49.22,0,0,1,9.34-10.51A27.31,27.31,0,0,1,465.49,909a12.31,12.31,0,0,1,2.55-.42Zm-146,1.64a32.57,32.57,0,0,0-5.07.58,27.49,27.49,0,0,0-6.47,2.06,30.4,30.4,0,0,0-8.52,5.21,15.79,15.79,0,0,0-4.63,6.37,8,8,0,0,0-.3,4.47c.32,1.5.93,2.42,1.82,2.74a3.45,3.45,0,0,0,2.2-.5,4.27,4.27,0,0,1,2.68-.47,6.48,6.48,0,0,1-.84-6.3,14,14,0,0,1,4-5.62A24.88,24.88,0,0,1,314,914.4q6.27-2.5,11.11-.79l1.46.52a5,5,0,0,1,2.7-1.07q1.32-.15,1.5-.66c.14-.39-.36-.78-1.5-1.18a18.62,18.62,0,0,0-5.63-1c-.53,0-1.07,0-1.62,0Zm149.38.22-.18,0a2.57,2.57,0,0,0-1.11.89,10.5,10.5,0,0,1-1.54,1.25,5.27,5.27,0,0,1,2.43,3.13q1.14,4.26-2.17,8.91a14.88,14.88,0,0,1-8.4,6,6.56,6.56,0,0,1-5.13-.52,2.16,2.16,0,0,0,.1.66,2.65,2.65,0,0,0,2,1.82,7.39,7.39,0,0,0,4-.12,16.14,16.14,0,0,0,7.05-4.24,20.66,20.66,0,0,0,4.93-7.3,11.52,11.52,0,0,0,.73-7.27,6,6,0,0,0-1.25-2.46,1.86,1.86,0,0,0-1.4-.79Zm39.38.48a30.69,30.69,0,0,1-3.41,3.21,10.46,10.46,0,0,1-2.91,1.48q-3.19,1.1-5.09-.44a2.17,2.17,0,0,0,.08,1,2.08,2.08,0,0,0,1.73,1.35,5.74,5.74,0,0,0,3.06-.3,7.67,7.67,0,0,0,2.26-1.22,5.11,5.11,0,0,0,.93-.8.34.34,0,0,1,.48.22,5,5,0,0,1-.48,1.25q-1.63,3.48-3.38,6.51-5.72,10.32-12,12.44a6.16,6.16,0,0,1-3,.33,5.19,5.19,0,0,1-2.67-1.48,3.52,3.52,0,0,1-.48,1.9,11,11,0,0,1-2.24,1.72,1.84,1.84,0,0,0-.93,2.14,4,4,0,0,0,2.72,2.53,6.64,6.64,0,0,0,4.37-.1q5.66-1.92,12.12-13.38a98.67,98.67,0,0,0,6.73-14.51c.25-.93.52-1.46.83-1.57s.3,0,.38.26a8,8,0,0,1-.18,2.42l-2,8.57c-.67,2.92-.82,4.89-.48,5.9a2.49,2.49,0,0,0,1.85,1.62,5.23,5.23,0,0,0,3.14-.22,17.24,17.24,0,0,0,4.64-2.83,6.31,6.31,0,0,1-3.57,0,3,3,0,0,1-1.78-2,8.65,8.65,0,0,1,.16-4.39l2.16-9.86a11.62,11.62,0,0,1-2.58.43.81.81,0,0,1-.85-.53,1.33,1.33,0,0,1,.06-.71c.09-.33.18-.64.26-.95Zm-173.61,1.7a26.35,26.35,0,0,1-2.44,1.19c-.57.22-1.68.59-3.34,1.11a30.62,30.62,0,0,0-3.78,1.46,6.74,6.74,0,0,0-2.14,1.53,6.79,6.79,0,0,0-1.53,4.71,1.86,1.86,0,0,0,.1-.36,1.84,1.84,0,0,0,0-.26q.72-2,4.83-4.29l2.87-1.57a27.46,27.46,0,0,0,5.41-3.52Zm129,0a6.64,6.64,0,0,0-1.35.24,18.7,18.7,0,0,0-7,4.1,31.44,31.44,0,0,0-6.39,7.42,30.37,30.37,0,0,0-4.08,9.11,15.92,15.92,0,0,0-.2,7.9,8.16,8.16,0,0,0,2.28,3.86c1.11,1.05,2.13,1.45,3.05,1.21.43-.12.95-.68,1.54-1.67a4.33,4.33,0,0,1,1.94-1.9,6.44,6.44,0,0,1-4.25-4.71,13.42,13.42,0,0,1-.06-6,22.09,22.09,0,0,1,2.49-6.75,22.91,22.91,0,0,1,4.14-5.47,11,11,0,0,1,4.63-2.83,5,5,0,0,1,3.49.46,21.36,21.36,0,0,1,1.3-2.16c.66-.64.94-1.19.81-1.68a1.48,1.48,0,0,0-1.2-1.07,3.92,3.92,0,0,0-1.11-.08Zm-22,2.49a29.79,29.79,0,0,0-3.19.28,27.31,27.31,0,0,0-8.13,2.48,29.84,29.84,0,0,0-7.25,5.12l2.3-5.6a20,20,0,0,0-2.89.24,23.3,23.3,0,0,0-4.34,1.07c-1.45.51-3.42,1.35-5.86,2.51a27.35,27.35,0,0,1-6.29,2.22,7.16,7.16,0,0,1-1.27.08c-.39-.15-.78-.29-1.13-.4a23.89,23.89,0,0,0-4.51-.83,29.54,29.54,0,0,0-7.9.32,40.8,40.8,0,0,0-8.48,2.41,47,47,0,0,0-8,4.14,35.07,35.07,0,0,0-6.55,5.78,31.18,31.18,0,0,0-4.63,6.89,20.88,20.88,0,0,0-2.1,7,12.5,12.5,0,0,0,.85,6.18,11,11,0,0,0,3.64,4.67,11.11,11.11,0,0,0,5.57,2.14,17.71,17.71,0,0,0,5.26-.28,22.92,22.92,0,0,0,5.31-1.74,34,34,0,0,0,5.54-3.33,44.33,44.33,0,0,0,8.75-9l-.59-.74a32.88,32.88,0,0,1-4.65,2.58,22.15,22.15,0,0,1-4.79,1.4A17,17,0,0,1,384,951a6.22,6.22,0,0,1-4-1.7,4.5,4.5,0,0,1-1.12-3.75,11.47,11.47,0,0,1,1.88-4.89,21.81,21.81,0,0,1,4.15-4.81,20,20,0,0,1,4.95-3.18,11.1,11.1,0,0,1,4.76-1.09,7.38,7.38,0,0,0-1.61,3.86,4.87,4.87,0,0,0,.83,3.42,3.75,3.75,0,0,0,2.8,1.61l1.36.14.26-.8a7.86,7.86,0,0,1,1.07-2.79,19.16,19.16,0,0,1,2.85-3.07l2.32-2.14c.81-.74,1.56-1.48,2.25-2.21a6.37,6.37,0,0,0,3.47.51l-14.81,35.1,13.16-3.3.58-1.66c1.39-3.66,2.8-6.93,4.25-9.84a72.8,72.8,0,0,1,4.78-8.22,50.33,50.33,0,0,1,5.26-6.63,41.66,41.66,0,0,1,5.82-5.05,16.63,16.63,0,0,0,0,2.65c.42,2.85,2,4.06,4.78,3.66.2,0,.77-.16,1.7-.41l-.1-.58a8.43,8.43,0,0,1,.08-3.24,10.21,10.21,0,0,1,1.48-3.15l2.08-3.05a28.41,28.41,0,0,0,4.79-11.23Zm-1.23,1a19.84,19.84,0,0,1-1.42,4.34,45.94,45.94,0,0,1-3.15,5.52l-1.94,3.07a11.88,11.88,0,0,0-1.6,3.33,8.9,8.9,0,0,0-.14,3.27l-.79.11a3.28,3.28,0,0,1-2.42-.49,2.91,2.91,0,0,1-1.19-2.1,10.87,10.87,0,0,1,.46-4.51,30,30,0,0,0-8.28,6.43,57.13,57.13,0,0,0-7.52,10.49,104.35,104.35,0,0,0-6.67,14.28l-.38,1.15-10.69,2.67L411.78,929l-1.09.16a6.47,6.47,0,0,1-3.28-.25l.71-.82a5.78,5.78,0,0,0,2.33.08,24.64,24.64,0,0,0,6.14-2.33,3.06,3.06,0,0,1,.68-.28c.5-.07.78.06.83.42a4.83,4.83,0,0,1-.62,1.66l-11.72,27.76a14.59,14.59,0,0,0-.79,2.33c.06.38.79,1,2.22,2a103.92,103.92,0,0,1,5.66-12.33,65.74,65.74,0,0,1,6.2-9.59,50.9,50.9,0,0,1,5.74-6.21,31.43,31.43,0,0,1,6.22-4.16,7.07,7.07,0,0,1,2.67-3.9c.55-.35.8-.66.77-.89s-.22-.31-.57-.26a11.55,11.55,0,0,0-4.28,2,47.14,47.14,0,0,0-5.76,4.59,52.42,52.42,0,0,0-5.57,5.94l6.56-15.26a7.11,7.11,0,0,0-2.16,1.27c-1.6,1.19-2.62,1.93-3.07,2.25a12.25,12.25,0,0,1-1.68,1,22.67,22.67,0,0,1-6.34,2.22,10.54,10.54,0,0,1-2.19.12c.16-.21.31-.42.45-.59s.41-.52.61-.8c-.55-.28-1.08-.54-1.58-.77a27.54,27.54,0,0,0,6.24-2.16c2.53-1.17,4.48-2,5.82-2.49a19.54,19.54,0,0,1,4-1,7.75,7.75,0,0,1,1.34-.1l-3.74,9a32.83,32.83,0,0,1,5.47-5.39,30.06,30.06,0,0,1,6.29-3.82,26.2,26.2,0,0,1,6.87-2,14.15,14.15,0,0,1,1.66-.16Zm-83.29.16a32.88,32.88,0,0,0-3.92.22,45,45,0,0,0-5.74,1.11,41.12,41.12,0,0,0-6.06,2,36.73,36.73,0,0,0-8.39,4.67,30.57,30.57,0,0,0-6.4,6.28,21.06,21.06,0,0,0-3.52,7,12.61,12.61,0,0,0-.16,6.24,10.82,10.82,0,0,0,2.83,5.19,11.15,11.15,0,0,0,5.15,3,17.65,17.65,0,0,0,5.23.59,23.11,23.11,0,0,0,5.52-.85,33.83,33.83,0,0,0,6-2.38A44.15,44.15,0,0,0,360.23,942l-.48-.81a31,31,0,0,1-5,1.76,22,22,0,0,1-5,.6,17.35,17.35,0,0,1-4.71-.5,6,6,0,0,1-3.66-2.38,4.67,4.67,0,0,1-.48-3.92,10.52,10.52,0,0,1,3.13-4.91,4.59,4.59,0,0,0,1.17,3.83,8.52,8.52,0,0,0,4.31,2.47,17.55,17.55,0,0,0,7.05.36,24.11,24.11,0,0,0,7.07-2.1,19.67,19.67,0,0,0,5.74-4.08A12.24,12.24,0,0,0,372.6,927a7,7,0,0,0-.87-6.15,10.35,10.35,0,0,0-6.08-3.77,22.49,22.49,0,0,0-4.81-.73c-.42,0-.86,0-1.29,0Zm-94.3.12a34.61,34.61,0,0,1-8.11,1.57,33.38,33.38,0,0,1-8.16-.7l19.48,8.22a10.67,10.67,0,0,1-3.39-4.16,5.24,5.24,0,0,1-.23-4.2,3,3,0,0,1,.41-.73Zm93.43.87a25.19,25.19,0,0,1,6.95.81,9,9,0,0,1,5.21,3.27,6,6,0,0,1,.79,5.25,11.66,11.66,0,0,1-3,5.05,19.31,19.31,0,0,1-5.39,3.84,21.88,21.88,0,0,1-6.71,2,16.57,16.57,0,0,1-6.57-.34,7.68,7.68,0,0,1-3.92-2.28,3.52,3.52,0,0,1-.91-3.4,4.91,4.91,0,0,1,.95-1.61,7.64,7.64,0,0,0,3.15,1.69,12.71,12.71,0,0,0,4.95.31,11.68,11.68,0,0,0,4.51-1.42,4.61,4.61,0,0,0,2.32-2.69,2.17,2.17,0,0,0-.28-1.89,3.35,3.35,0,0,0-1.94-1.16,10.21,10.21,0,0,0-4.69.19,21.34,21.34,0,0,0-5.8,2.26,22.19,22.19,0,0,0-5.43,4.32,12.54,12.54,0,0,0-3,5,5.43,5.43,0,0,0,.68,4.61,7,7,0,0,0,4.23,2.85,18.07,18.07,0,0,0,6.16.55,22.64,22.64,0,0,0,6.45-1.46,36,36,0,0,1-7.9,5.54,27.4,27.4,0,0,1-8.25,2.76,18.34,18.34,0,0,1-7.66-.32,9.81,9.81,0,0,1-6.36-4.93,10.85,10.85,0,0,1-.81-8.28,22,22,0,0,1,5.17-8.81,30.45,30.45,0,0,1,9.12-7,49.13,49.13,0,0,1,13.37-4.37,32.47,32.47,0,0,1,4.59-.44Zm82.84,0a28.69,28.69,0,0,1-2.52,2.83,34.59,34.59,0,0,0-5.36,6.91,8.65,8.65,0,0,0-1.15,5.31,5.76,5.76,0,0,0,1.09,2.53,10,10,0,0,1,.49-3.62,23.19,23.19,0,0,1,2.2-4l1.8-2.75a27.21,27.21,0,0,0,3.45-7.25Zm109,.6a1.76,1.76,0,0,0-.56.13,5.34,5.34,0,0,0-1.26.94,24,24,0,0,0-1.75,1.82q-.91,1.05-1,1.14l6.81-3.54a11.39,11.39,0,0,0-1.61-.45,2.11,2.11,0,0,0-.61,0ZM464,919a1.34,1.34,0,0,1,1.43,1.08c.35,1.32-.3,2.82-1.93,4.5a11.94,11.94,0,0,1-5.58,3.36,7.69,7.69,0,0,1-3,.16,22,22,0,0,1,3.8-5.86,10,10,0,0,1,4.44-3.13A3.27,3.27,0,0,1,464,919Zm-104.61,1.74a25.81,25.81,0,0,0-4.47.45,31.45,31.45,0,0,0-9.27,3.19,30.5,30.5,0,0,0-8.1,5.84,16,16,0,0,0-4.14,6.73,8.12,8.12,0,0,0,0,4.48c.44,1.47,1.11,2.34,2,2.59a3.51,3.51,0,0,0,2.16-.67,4.26,4.26,0,0,1,2.63-.66,6.51,6.51,0,0,1-1.32-6.23,13.4,13.4,0,0,1,3-5.19A24,24,0,0,1,353.76,924a11,11,0,0,1,5.42-.11A4.91,4.91,0,0,1,362,926a20.11,20.11,0,0,1,2.22-1.2c.89-.22,1.41-.57,1.54-1.05a1.49,1.49,0,0,0-.51-1.53,5.09,5.09,0,0,0-2.2-1.11,14,14,0,0,0-3.64-.43Zm10.18,1.54a3.42,3.42,0,0,0-1.13.26,12.17,12.17,0,0,1-2,.3,5.37,5.37,0,0,1,.55,3.94q-1.15,4.25-6.35,6.61a15,15,0,0,1-10.3,1,6.52,6.52,0,0,1-4.16-3,2.34,2.34,0,0,0-.25.61,2.6,2.6,0,0,0,.79,2.58,7.29,7.29,0,0,0,3.48,1.88,16.26,16.26,0,0,0,8.24-.12,20.69,20.69,0,0,0,7.94-3.84,11.51,11.51,0,0,0,4.27-5.92,5.7,5.7,0,0,0,.16-2.75c-.17-.84-.5-1.32-1-1.45a1.17,1.17,0,0,0-.27,0Zm28.94,1a27.52,27.52,0,0,1,2.91.12,24.6,24.6,0,0,1,3.37.6,5.19,5.19,0,0,0-.46,2.61,3.57,3.57,0,0,0,.5,1.38c-.56.37-1.34.85-2.52,1.55a29.47,29.47,0,0,0-3.32,2.34,6.85,6.85,0,0,0-1.73,2,6.75,6.75,0,0,0-.37,5c0-.17,0-.3,0-.37s0-.17,0-.26c.14-1.42,1.35-3.18,3.66-5.3L403,930.6c.85-.77,1.57-1.48,2.21-2.14a3.9,3.9,0,0,0,.68.59c-.67.7-1.34,1.4-2.06,2.08l-2.32,2.14a19.87,19.87,0,0,0-2.89,3.13,11.35,11.35,0,0,0-1.33,3.15,2,2,0,0,1-.55,0,3,3,0,0,1-2.18-1.29,4,4,0,0,1-.63-2.77,5.17,5.17,0,0,1,.51-1.94c.26-.47.89-1.42,1.9-2.87l-.79-.08q-4.83-.5-10.37,3.82a22.15,22.15,0,0,0-5,5.28,12.81,12.81,0,0,0-2.3,5.71,5.46,5.46,0,0,0,1.41,4.45,7,7,0,0,0,4.65,2.12,18.14,18.14,0,0,0,6.16-.48,22.91,22.91,0,0,0,6.14-2.47,36.82,36.82,0,0,1-6.89,6.75,27.39,27.39,0,0,1-7.71,4.06,18.33,18.33,0,0,1-7.6,1A9.83,9.83,0,0,1,366.9,957a10.85,10.85,0,0,1-2.13-8,17.92,17.92,0,0,1,1.12-4.57,28.09,28.09,0,0,1,2.46-4.81,29.06,29.06,0,0,1,3.6-4.64,34.94,34.94,0,0,1,4.36-3.88,41.25,41.25,0,0,1,16.89-7.28,34,34,0,0,1,5.3-.54Zm7.17,1.11c.31,0,.61.1.91.12a17.55,17.55,0,0,1,2.39,1c-.23.3-.47.59-.71.89a4.83,4.83,0,0,1-1-.34h0a3.94,3.94,0,0,1-1.11-.77,3.2,3.2,0,0,0,0,1,2.08,2.08,0,0,0,.18.6l-.73.59a3.28,3.28,0,0,1-.34-1.07,4.49,4.49,0,0,1,.44-2Zm-48.87,1.17a6.2,6.2,0,0,1,1.77.2c1.23.33,1.71,1,1.44,2-.36,1.32-1.67,2.29-3.92,2.93a12.12,12.12,0,0,1-6.51.12,8,8,0,0,1-2.67-1.39,21.9,21.9,0,0,1,6.23-3.15,13,13,0,0,1,3.66-.67Zm173.87.59a1,1,0,0,0-.41.08,7.58,7.58,0,0,0-1.78,1.6c-.88,1-1.55,1.72-2,2.3l6.65-3.49a8.32,8.32,0,0,0-2.44-.49ZM398,926.32a20,20,0,0,0-4.37.47,30.31,30.31,0,0,0-6.38,2.14,28.19,28.19,0,0,0-5.8,3.52,30.53,30.53,0,0,0-7,7.07,15.77,15.77,0,0,0-3,7.31,8.09,8.09,0,0,0,.75,4.43c.66,1.38,1.47,2.12,2.41,2.22a3.5,3.5,0,0,0,2-1,4.22,4.22,0,0,1,2.48-1.09,6.45,6.45,0,0,1-2.3-5.92,14,14,0,0,1,2.59-6.43,24.91,24.91,0,0,1,5.82-5.92q5.5-3.92,10.6-3.41l1.56.16a5,5,0,0,1,2.36-1.68c.83-.3,1.27-.64,1.3-1s-.53-.67-1.74-.79a11.11,11.11,0,0,0-1.31-.08Zm8.42.77a2.09,2.09,0,0,0,.67.57l-.65.76a3.21,3.21,0,0,1-.65-.62Zm-109.76,3.27a5.74,5.74,0,0,1-2.4,1.28c-1.3.2-2.06.61-2.27,1.23s.09,1.65,1.07,2.67a9.51,9.51,0,0,0,3.82,2.36,17.86,17.86,0,0,0,9.06.47,26.08,26.08,0,0,0,9.59-3.64,44.75,44.75,0,0,1-8,1,16.13,16.13,0,0,1-5.64-.87c-2.8-1-4.56-2.51-5.25-4.55Zm217.74,1.4c-.53.21-.91.38-1.17.5l-.75.35a11.31,11.31,0,0,1-3,.46,4.27,4.27,0,0,1-1,1.25c-.79.54-1.12,1-1,1.28.17.51.69.62,1.56.32a10.34,10.34,0,0,0,2.3-1.43,27.38,27.38,0,0,0,3.11-2.73Zm-46.55,7.8a44.74,44.74,0,0,1-6,5.39,16.35,16.35,0,0,1-5.14,2.49c-2.87.77-5.17.5-6.89-.79a5.92,5.92,0,0,1-1.25,2.42c-1,.9-1.36,1.66-1.19,2.29s1,1.3,2.38,1.59a9.61,9.61,0,0,0,4.49-.2A18,18,0,0,0,462,948a26,26,0,0,0,5.84-8.44ZM333.2,942.85a5.72,5.72,0,0,1-2.27,1.46c-1.29.3-2,.76-2.18,1.39s.19,1.65,1.25,2.59a9.53,9.53,0,0,0,4,2.06,17.78,17.78,0,0,0,9.07-.2,26,26,0,0,0,9.29-4.37,44.75,44.75,0,0,1-7.88,1.66,16.21,16.21,0,0,1-5.68-.43c-2.87-.78-4.74-2.18-5.59-4.16Zm58.41,9.62a43.34,43.34,0,0,1-7.51,2.91,16.38,16.38,0,0,1-5.7.5c-2.95-.3-5-1.37-6.15-3.19a5.86,5.86,0,0,1-2,1.8c-1.22.5-1.86,1.09-1.92,1.74s.47,1.58,1.66,2.34a9.47,9.47,0,0,0,4.26,1.4,17.91,17.91,0,0,0,8.92-1.7,26.09,26.09,0,0,0,8.46-5.8Zm12.49,6.79-.28,0a4.38,4.38,0,0,0-1.54.66c-.62.37-1.7,1.09-3.23,2.15l7.51-1.62a17.63,17.63,0,0,0-1.61-1,2,2,0,0,0-.85-.22Z" transform="translate(-91.35 -61.68)"/></g><g class="cls-28"><path class="cls-29" d="M307.45,956.57s14.28,97.14,21.42,105.71,48.58,187.14,48.58,187.14-2.86-72.86-2.86-80S341.73,1008,341.73,1008Z" transform="translate(-91.35 -61.68)"/><path class="cls-30" d="M307.45,956.57s14.28,97.14,21.42,105.71,48.58,187.14,48.58,187.14-2.86-72.86-2.86-80S341.73,1008,341.73,1008Z" transform="translate(-91.35 -61.68)"/></g><g class="cls-31"><path class="cls-21" d="M439.55,548.57c-3.07-3.4-9.95-6.27-8.67-10.67.78-2.7,5.21-3,8-2.66,5.94.67,10.36,6,15.33,9.33,6,4,15.06,5.88,17.33,12.67.74,2.2-1.19,4.49-2,6.66s-.6,5.26-2.66,6c-4.68,1.68-9.37-3.67-13.34-6.66-2.88-2.18-4.83-5.39-7.33-8-2.17-2.27-4.56-4.34-6.67-6.67Z" transform="translate(-91.35 -61.68)"/><path class="cls-22" d="M439.55,548.57c-3.07-3.4-9.95-6.27-8.67-10.67.78-2.7,5.21-3,8-2.66,5.94.67,10.36,6,15.33,9.33,6,4,15.06,5.88,17.33,12.67.74,2.2-1.19,4.49-2,6.66s-.6,5.26-2.66,6c-4.68,1.68-9.37-3.67-13.34-6.66-2.88-2.18-4.83-5.39-7.33-8-2.17-2.27-4.56-4.34-6.67-6.67Z" transform="translate(-91.35 -61.68)"/></g><g class="cls-32"><path class="cls-33" d="M147.45,172.29c9,6,11.79,19.4,21.42,24.29,4.7,2.37,10.47,1.71,15.72,1.42,7.27-.38,14.4-2.37,21.43-4.28,12.64-3.44,24-13.33,37.14-12.86,3.62.13,10.34.68,10,4.29-.41,4.37-9.09.6-12.86,2.85s-5.77,6.62-8.57,10c-3.89,4.7-6.31,11-11.43,14.29-11.14,7.22-25.94,5.9-38.57,10-13.62,4.43-26.14,12.09-40,15.71-13.49,3.53-30.51,14.39-41.43,5.72-12.35-9.82-8.75-32-4.28-47.14,3.93-13.34,12.39-28.85,25.71-32.86,8.65-2.61,18.18,3.58,25.71,8.57Z" transform="translate(-91.35 -61.68)"/><path class="cls-34" d="M147.45,172.29c9,6,11.79,19.4,21.42,24.29,4.7,2.37,10.47,1.71,15.72,1.42,7.27-.38,14.4-2.37,21.43-4.28,12.64-3.44,24-13.33,37.14-12.86,3.62.13,10.34.68,10,4.29-.41,4.37-9.09.6-12.86,2.85s-5.77,6.62-8.57,10c-3.89,4.7-6.31,11-11.43,14.29-11.14,7.22-25.94,5.9-38.57,10-13.62,4.43-26.14,12.09-40,15.71-13.49,3.53-30.51,14.39-41.43,5.72-12.35-9.82-8.75-32-4.28-47.14,3.93-13.34,12.39-28.85,25.71-32.86,8.65-2.61,18.18,3.58,25.71,8.57Z" transform="translate(-91.35 -61.68)"/></g><g class="cls-35"><path class="cls-36" d="M118.88,279.43s23.89,6.38,35.71,10c13,4,25.38,16,38.57,12.86,5.9-1.4,9.71-7.68,12.86-12.86,4.92-8.11,2.79-19.62,8.57-27.14,11.34-14.77,31-20.72,47.14-30,14.4-8.28,27.87-25.42,44.29-22.86,4,.62,4.84,7,8.57,8.57,6.6,2.73,14.31-.54,21.43,0,6.24.48,13.32-.55,18.57,2.86,6.65,4.32,14.47,12.24,12.86,20-3.51,16.81-30.3,16.86-42.86,28.57-9.68,9-16,21.12-24.29,31.43-9.75,12.1-18.62,25.12-30,35.71-12.48,11.62-30.11,17.25-41.43,30-3.25,3.67-7.14,12.86-7.14,12.86s-38.59-24.53-55-40.24c-18.44-17.65-47.86-59.76-47.86-59.76Z" transform="translate(-91.35 -61.68)"/><path class="cls-34" d="M118.88,279.43s23.89,6.38,35.71,10c13,4,25.38,16,38.57,12.86,5.9-1.4,9.71-7.68,12.86-12.86,4.92-8.11,2.79-19.62,8.57-27.14,11.34-14.77,31-20.72,47.14-30,14.4-8.28,27.87-25.42,44.29-22.86,4,.62,4.84,7,8.57,8.57,6.6,2.73,14.31-.54,21.43,0,6.24.48,13.32-.55,18.57,2.86,6.65,4.32,14.47,12.24,12.86,20-3.51,16.81-30.3,16.86-42.86,28.57-9.68,9-16,21.12-24.29,31.43-9.75,12.1-18.62,25.12-30,35.71-12.48,11.62-30.11,17.25-41.43,30-3.25,3.67-7.14,12.86-7.14,12.86s-38.59-24.53-55-40.24c-18.44-17.65-47.86-59.76-47.86-59.76Z" transform="translate(-91.35 -61.68)"/></g><g class="cls-37"><path class="cls-38" d="M272.58,401.14s46.88-.46,66.29-11.71c6.44-3.74,12.57-9.91,14.29-17.15,3.38-14.27-11.42-28.25-10-42.85,1-10.4,6.81-20.06,12.85-28.57,7.6-10.72,18.31-18.95,28.58-27.15,4-3.21,7.89-7.19,12.85-8.57,9.65-2.67,20.53-1.81,30,1.43,5.5,1.88,8.74,8.25,14.29,10,6.81,2.15,14.3.44,21.43,0,3.83-.24,8.35-3.72,11.43-1.43,7,5.19,3.57,17.05,4.28,25.71,1.22,14.72-.46,29.54,0,44.29.24,7.63,2.21,15.26,1.43,22.86-1.1,10.8-2.88,22.18-8.57,31.43-3.36,5.45-13.76,6.47-14.29,12.85-.51,6.08,11.42,14.28,11.42,14.28s-60.67,5.64-90.71,2.15C342,424.5,272.58,401.14,272.58,401.14Z" transform="translate(-91.35 -61.68)"/><path class="cls-34" d="M272.58,401.14s46.88-.46,66.29-11.71c6.44-3.74,12.57-9.91,14.29-17.15,3.38-14.27-11.42-28.25-10-42.85,1-10.4,6.81-20.06,12.85-28.57,7.6-10.72,18.31-18.95,28.58-27.15,4-3.21,7.89-7.19,12.85-8.57,9.65-2.67,20.53-1.81,30,1.43,5.5,1.88,8.74,8.25,14.29,10,6.81,2.15,14.3.44,21.43,0,3.83-.24,8.35-3.72,11.43-1.43,7,5.19,3.57,17.05,4.28,25.71,1.22,14.72-.46,29.54,0,44.29.24,7.63,2.21,15.26,1.43,22.86-1.1,10.8-2.88,22.18-8.57,31.43-3.36,5.45-13.76,6.47-14.29,12.85-.51,6.08,11.42,14.28,11.42,14.28s-60.67,5.64-90.71,2.15C342,424.5,272.58,401.14,272.58,401.14Z" transform="translate(-91.35 -61.68)"/></g><g class="cls-39"><path class="cls-38" d="M577.73,419.72c-18.21,5.95-57.14,6.14-57.14,6.14s17.91-30,16.86-46.43-16.12-29.1-22.86-44.28c-6.6-14.88-7.93-32.3-17.14-45.72-3.25-4.72-10.51-6.19-12.86-11.43-4.29-9.55-7.94-24.59,0-31.42,7.3-6.29,19.23,1.94,28.57,4.28,6.87,1.73,13.37,9.62,20,7.14,8.19-3.06,6.61-16.74,12.86-22.85,5.79-5.66,13.34-11.74,21.43-11.43,12.41.48,22.47,11.4,31.43,20,9.62,9.24,16.28,21.25,22.85,32.86,10.3,18.17,22.47,36.5,25.72,57.14,1.34,8.52-6.84,18.06-2.86,25.71,5.52,10.59,19.75,14.7,31.43,17.15,10.75,2.26,32.85-2.85,32.85-2.85S663,384.59,640.3,390.87c-8.92,2.46-18.08,4.36-26.57,8.05-12.72,5.51-22.83,16.5-36,20.81Z" transform="translate(-91.35 -61.68)"/><path class="cls-34" d="M577.73,419.72c-18.21,5.95-57.14,6.14-57.14,6.14s17.91-30,16.86-46.43-16.12-29.1-22.86-44.28c-6.6-14.88-7.93-32.3-17.14-45.72-3.25-4.72-10.51-6.19-12.86-11.43-4.29-9.55-7.94-24.59,0-31.42,7.3-6.29,19.23,1.94,28.57,4.28,6.87,1.73,13.37,9.62,20,7.14,8.19-3.06,6.61-16.74,12.86-22.85,5.79-5.66,13.34-11.74,21.43-11.43,12.41.48,22.47,11.4,31.43,20,9.62,9.24,16.28,21.25,22.85,32.86,10.3,18.17,22.47,36.5,25.72,57.14,1.34,8.52-6.84,18.06-2.86,25.71,5.52,10.59,19.75,14.7,31.43,17.15,10.75,2.26,32.85-2.85,32.85-2.85S663,384.59,640.3,390.87c-8.92,2.46-18.08,4.36-26.57,8.05-12.72,5.51-22.83,16.5-36,20.81Z" transform="translate(-91.35 -61.68)"/></g><g class="cls-40"><path class="cls-41" d="M770.88,327.57s-20.86-20.83-33-29c-9.28-6.24-19.84-10.34-30-15-20.37-9.35-41.87-16.16-62-26-11-5.38-25.06-7.92-32-18-3.83-5.55-7-14.61-3-20,7.47-9.95,24.69-3.14,37-5,4-.6,8-2.91,12-2,12.34,2.84,20.93,14.3,31,22,5.83,4.46,10.18,11.27,17,14,8.37,3.36,18.15,3.82,27,2,9.2-1.89,16.63-8.73,25-13,6-3,18-9,18-9s11.6,17.11,13,27c2.5,17.74-2.92,36.14-9,53C779.39,315.45,770.88,327.57,770.88,327.57Z" transform="translate(-91.35 -61.68)"/><path class="cls-34" d="M770.88,327.57s-20.86-20.83-33-29c-9.28-6.24-19.84-10.34-30-15-20.37-9.35-41.87-16.16-62-26-11-5.38-25.06-7.92-32-18-3.83-5.55-7-14.61-3-20,7.47-9.95,24.69-3.14,37-5,4-.6,8-2.91,12-2,12.34,2.84,20.93,14.3,31,22,5.83,4.46,10.18,11.27,17,14,8.37,3.36,18.15,3.82,27,2,9.2-1.89,16.63-8.73,25-13,6-3,18-9,18-9s11.6,17.11,13,27c2.5,17.74-2.92,36.14-9,53C779.39,315.45,770.88,327.57,770.88,327.57Z" transform="translate(-91.35 -61.68)"/></g><g class="cls-42"><path class="cls-43" d="M564.88,216.57c-6.71-.72-14.27.55-20-3-3.46-2.14-7.55-6-7-10,1-7.27,13.16-7.74,17-14,3.21-5.24-1.82-16,4-18,7.39-2.52,10.6,12.47,18,15,8.83,3,19,1.31,28-1,7.22-1.84,12.59-10.83,20-10,9.41,1.05,15.72,10.9,22,18,5,5.61,15.61,12.44,12,19-6.92,12.55-30-6-43,0-2.8,1.28-3.17,5.81-6,7C596,225.39,579.82,218.19,564.88,216.57Z" transform="translate(-91.35 -61.68)"/><path class="cls-34" d="M564.88,216.57c-6.71-.72-14.27.55-20-3-3.46-2.14-7.55-6-7-10,1-7.27,13.16-7.74,17-14,3.21-5.24-1.82-16,4-18,7.39-2.52,10.6,12.47,18,15,8.83,3,19,1.31,28-1,7.22-1.84,12.59-10.83,20-10,9.41,1.05,15.72,10.9,22,18,5,5.61,15.61,12.44,12,19-6.92,12.55-30-6-43,0-2.8,1.28-3.17,5.81-6,7C596,225.39,579.82,218.19,564.88,216.57Z" transform="translate(-91.35 -61.68)"/></g><g class="cls-44"><path class="cls-41" d="M626.88,132.57s14.06.85,21,2a208.67,208.67,0,0,1,21,5c5.38,1.48,10.9,2.71,16,5a194.62,194.62,0,0,1,40,24c9.28,7.25,25,25,25,25s-35.94-8.31-54-12c-19.61-4-40.39-3.66-59-11-4-1.59-9.39-3-11-7-2.55-6.38,5.35-13.14,5-20C630.67,139.67,626.88,132.57,626.88,132.57Z" transform="translate(-91.35 -61.68)"/><path class="cls-34" d="M626.88,132.57s14.06.85,21,2a208.67,208.67,0,0,1,21,5c5.38,1.48,10.9,2.71,16,5a194.62,194.62,0,0,1,40,24c9.28,7.25,25,25,25,25s-35.94-8.31-54-12c-19.61-4-40.39-3.66-59-11-4-1.59-9.39-3-11-7-2.55-6.38,5.35-13.14,5-20C630.67,139.67,626.88,132.57,626.88,132.57Z" transform="translate(-91.35 -61.68)"/></g><g class="cls-45"><path class="cls-43" d="M626.88,134.57s-4-5.36-6-8c-2.62-3.37-8-10-8-10s14,2.22,21,3c8.3.92,25,2,25,2l38,27s-19.83-7.26-30-10c-9.54-2.57-19.13-5.88-29-6C634.15,132.53,626.88,134.57,626.88,134.57Z" transform="translate(-91.35 -61.68)"/><path class="cls-34" d="M626.88,134.57s-4-5.36-6-8c-2.62-3.37-8-10-8-10s14,2.22,21,3c8.3.92,25,2,25,2l38,27s-19.83-7.26-30-10c-9.54-2.57-19.13-5.88-29-6C634.15,132.53,626.88,134.57,626.88,134.57Z" transform="translate(-91.35 -61.68)"/></g><g class="cls-46"><path class="cls-41" d="M309.88,103.57s-6.21,12.85-11,18c-3.91,4.2-8.39,8.86-14,10-9,1.84-17.78-6-27-6-10.92,0-21.15,5.83-32,7-10.28,1.11-21.63,4.35-31,0-5.15-2.39-11-13-11-13s29.51-20.34,46-27c9.22-3.72,19.06-7.51,29-7C276.88,86.49,309.88,103.57,309.88,103.57Z" transform="translate(-91.35 -61.68)"/><path class="cls-34" d="M309.88,103.57s-6.21,12.85-11,18c-3.91,4.2-8.39,8.86-14,10-9,1.84-17.78-6-27-6-10.92,0-21.15,5.83-32,7-10.28,1.11-21.63,4.35-31,0-5.15-2.39-11-13-11-13s29.51-20.34,46-27c9.22-3.72,19.06-7.51,29-7C276.88,86.49,309.88,103.57,309.88,103.57Z" transform="translate(-91.35 -61.68)"/></g><g class="cls-47"><path class="cls-43" d="M281.88,133.57s20.35,10.1,31,14c6.83,2.5,13.79,5,21,6a60.44,60.44,0,0,0,9,0s3.71-9.47,6-14c2.08-4.14,7-12,7-12s-28.65,2.5-43,3c-7.33.26-22,0-22,0Z" transform="translate(-91.35 -61.68)"/><path class="cls-34" d="M281.88,133.57s20.35,10.1,31,14c6.83,2.5,13.79,5,21,6a60.44,60.44,0,0,0,9,0s3.71-9.47,6-14c2.08-4.14,7-12,7-12s-28.65,2.5-43,3c-7.33.26-22,0-22,0Z" transform="translate(-91.35 -61.68)"/></g><g class="cls-48"><path class="cls-41" d="M481.88,71.57c-11.41.39-22.71,2.35-34,4-13.4,2-26.88,3.69-40,7-4.09,1-12,4-12,4s9.93,13.22,17,17a54.18,54.18,0,0,0,30,6c5.36-.49,9.64-5.4,15-6,10.4-1.15,21,1.79,31,5,10.64,3.43,19.05,17.29,30,15,5.09-1.06,7.3-7.54,10-12,2.24-3.7,1.35-9.66,5-12,7.86-5,19,3.63,28,1,5-1.48,13-9,13-9s-34-14.51-52-18C509.44,71,495.55,71.11,481.88,71.57Z" transform="translate(-91.35 -61.68)"/><path class="cls-34" d="M481.88,71.57c-11.41.39-22.71,2.35-34,4-13.4,2-26.88,3.69-40,7-4.09,1-12,4-12,4s9.93,13.22,17,17a54.18,54.18,0,0,0,30,6c5.36-.49,9.64-5.4,15-6,10.4-1.15,21,1.79,31,5,10.64,3.43,19.05,17.29,30,15,5.09-1.06,7.3-7.54,10-12,2.24-3.7,1.35-9.66,5-12,7.86-5,19,3.63,28,1,5-1.48,13-9,13-9s-34-14.51-52-18C509.44,71,495.55,71.11,481.88,71.57Z" transform="translate(-91.35 -61.68)"/></g><g class="cls-49"><path class="cls-43" d="M432.88,140.57c-5.18.6-8.44-6.21-12-10a71.48,71.48,0,0,1-11-15c-3.2-5.95-7-19-7-19s16.57,10.52,26,12c10.94,1.72,21.92-4.49,33-4a99.85,99.85,0,0,1,33,7c6.93,2.82,12.05,9.18,19,12,6,2.43,13.12,1.28,19,4,11.86,5.49,19.61,17.58,31,24,17.73,10,57,22,57,22s-16.26,7.79-25,8c-10.35.25-19.82-6.17-30-8-6.93-1.24-14.11-.64-21-2-7.87-1.55-15-7.77-23-7-6.39.61-11.24,11.8-17,9-10.06-4.88.92-24.22-6-33-5.64-7.15-16.31-8.31-25-11-5.19-1.6-10.59-3.33-16-3-6.63.4-13.59,2.16-19,6C436.16,134.5,436.19,140.18,432.88,140.57Z" transform="translate(-91.35 -61.68)"/><path class="cls-34" d="M432.88,140.57c-5.18.6-8.44-6.21-12-10a71.48,71.48,0,0,1-11-15c-3.2-5.95-7-19-7-19s16.57,10.52,26,12c10.94,1.72,21.92-4.49,33-4a99.85,99.85,0,0,1,33,7c6.93,2.82,12.05,9.18,19,12,6,2.43,13.12,1.28,19,4,11.86,5.49,19.61,17.58,31,24,17.73,10,57,22,57,22s-16.26,7.79-25,8c-10.35.25-19.82-6.17-30-8-6.93-1.24-14.11-.64-21-2-7.87-1.55-15-7.77-23-7-6.39.61-11.24,11.8-17,9-10.06-4.88.92-24.22-6-33-5.64-7.15-16.31-8.31-25-11-5.19-1.6-10.59-3.33-16-3-6.63.4-13.59,2.16-19,6C436.16,134.5,436.19,140.18,432.88,140.57Z" transform="translate(-91.35 -61.68)"/></g><g class="cls-50"><path class="cls-43" d="M254.88,186.57s17.26,6.27,26,5c10-1.46,22.74-4.8,27-14,3.13-11.06-10.12-10.81,3-13,0,0,5.58,10.08,4,15-2.92,9-13,15-22,18-9.17,3.09-20.24,3.09-29-1C259.81,194.68,254.88,186.57,254.88,186.57Z" transform="translate(-91.35 -61.68)"/><path class="cls-34" d="M254.88,186.57s17.26,6.27,26,5c10-1.46,22.74-4.8,27-14,3.13-11.06-10.12-10.81,3-13,0,0,5.58,10.08,4,15-2.92,9-13,15-22,18-9.17,3.09-20.24,3.09-29-1C259.81,194.68,254.88,186.57,254.88,186.57Z" transform="translate(-91.35 -61.68)"/></g><g class="cls-51"><path class="cls-52" d="M453.88,313.57c5.82-4.1,14.9-7.69,21-4,6.85,4.14,4.13,15.52,7,23,2,5.15,8.44,9.67,7,15-1.38,5.09-7.73,8.95-13,9-6,.05-9.87-6.88-15-10-6.51-3.95-18-3.66-20-11C438.63,327.35,446.91,318.47,453.88,313.57Z" transform="translate(-91.35 -61.68)"/><path class="cls-53" d="M453.88,313.57c5.82-4.1,14.9-7.69,21-4,6.85,4.14,4.13,15.52,7,23,2,5.15,8.44,9.67,7,15-1.38,5.09-7.73,8.95-13,9-6,.05-9.87-6.88-15-10-6.51-3.95-18-3.66-20-11C438.63,327.35,446.91,318.47,453.88,313.57Z" transform="translate(-91.35 -61.68)"/></g><g class="cls-54"><path class="cls-55" d="M639.88,306.57c.47-6.18,10.5-6.73,15-11,3.43-3.26,4.54-9.38,9-11,5.09-1.86,12.28-.95,16,3,5.52,5.87,3.87,16,3,24-.55,4.93-1.28,10.73-5,14s-9.81.72-14,3c-3.32,1.8-4.33,8.87-8,8-7.19-1.7-3.13-14.72-7-21C646.64,312,639.55,310.8,639.88,306.57Z" transform="translate(-91.35 -61.68)"/><path class="cls-56" d="M639.88,306.57c.47-6.18,10.5-6.73,15-11,3.43-3.26,4.54-9.38,9-11,5.09-1.86,12.28-.95,16,3,5.52,5.87,3.87,16,3,24-.55,4.93-1.28,10.73-5,14s-9.81.72-14,3c-3.32,1.8-4.33,8.87-8,8-7.19-1.7-3.13-14.72-7-21C646.64,312,639.55,310.8,639.88,306.57Z" transform="translate(-91.35 -61.68)"/></g><g class="cls-57"><path class="cls-52" d="M236.88,356.57s-10.2-6.06-13-11c-3-5.29-4.38-12.07-3-18,.64-2.79,2.23-6.24,5-7,11.22-3.09,20.6,11.62,32,14,5.22,1.09,16,0,16,0s-13.73,9.78-21,14C247.72,351.56,236.88,356.57,236.88,356.57Z" transform="translate(-91.35 -61.68)"/><path class="cls-58" d="M236.88,356.57s-10.2-6.06-13-11c-3-5.29-4.38-12.07-3-18,.64-2.79,2.23-6.24,5-7,11.22-3.09,20.6,11.62,32,14,5.22,1.09,16,0,16,0s-13.73,9.78-21,14C247.72,351.56,236.88,356.57,236.88,356.57Z" transform="translate(-91.35 -61.68)"/></g><g class="cls-59"><path class="cls-52" d="M270.88,270.57c-3-6.32-.58-14.17,1-21,.56-2.47.92-5.54,3-7,4.64-3.26,11.54-2.57,17-1s9.53,6.4,14,10c3.85,3.11,11.19,5.05,11,10-.15,3.8-5.41,5.77-9,7-5.36,1.84-11.83-2.31-17,0-4.1,1.82-4.55,9.53-9,10S272.84,274.66,270.88,270.57Z" transform="translate(-91.35 -61.68)"/><path class="cls-60" d="M270.88,270.57c-3-6.32-.58-14.17,1-21,.56-2.47.92-5.54,3-7,4.64-3.26,11.54-2.57,17-1s9.53,6.4,14,10c3.85,3.11,11.19,5.05,11,10-.15,3.8-5.41,5.77-9,7-5.36,1.84-11.83-2.31-17,0-4.1,1.82-4.55,9.53-9,10S272.84,274.66,270.88,270.57Z" transform="translate(-91.35 -61.68)"/></g><g class="cls-61"><path class="cls-62" d="M261.88,320.57c-5.21-3.73-9.22-9.24-12-15-1.94-4-4.23-8.73-3-13,.9-3.17,3.92-5.8,7-7,7.15-2.78,15.74,3.51,23,1,5.8-2,8.17-10.05,14-12,5.06-1.7,10.76-.09,16,1,3.81.8,10.42.14,11,4,1.46,9.89-17.8,10.16-24,18-3.62,4.56-3.44,11.4-7,16s-8.14,10.06-14,11C269,325.19,265,322.84,261.88,320.57Z" transform="translate(-91.35 -61.68)"/><path class="cls-63" d="M261.88,320.57c-5.21-3.73-9.22-9.24-12-15-1.94-4-4.23-8.73-3-13,.9-3.17,3.92-5.8,7-7,7.15-2.78,15.74,3.51,23,1,5.8-2,8.17-10.05,14-12,5.06-1.7,10.76-.09,16,1,3.81.8,10.42.14,11,4,1.46,9.89-17.8,10.16-24,18-3.62,4.56-3.44,11.4-7,16s-8.14,10.06-14,11C269,325.19,265,322.84,261.88,320.57Z" transform="translate(-91.35 -61.68)"/></g><g class="cls-64"><path class="cls-65" d="M248.88,183.57c-2-4.5,4.06-9,7-13,3.93-5.29,8.08-11.08,14-14,4.52-2.23,10-2.24,15-2,4.44.21,9.36.43,13,3a18.73,18.73,0,0,1,7,11c1.08,4.93,1.34,11.22-2,15-6.17,7-17.71,7-27,7-6.55,0-12.66-3.37-19-5C254.21,184.89,250,186.08,248.88,183.57Z" transform="translate(-91.35 -61.68)"/><path class="cls-66" d="M248.88,183.57c-2-4.5,4.06-9,7-13,3.93-5.29,8.08-11.08,14-14,4.52-2.23,10-2.24,15-2,4.44.21,9.36.43,13,3a18.73,18.73,0,0,1,7,11c1.08,4.93,1.34,11.22-2,15-6.17,7-17.71,7-27,7-6.55,0-12.66-3.37-19-5C254.21,184.89,250,186.08,248.88,183.57Z" transform="translate(-91.35 -61.68)"/></g><g class="cls-67"><path class="cls-65" d="M276.88,124.57c-4-1.41-6.19-6.08-10-8-5.86-2.94-18.12,1.49-19-5-.63-4.59,7.38-6.56,12-7,6-.57,11.07,5,17,6,4.27.73,9.09-1.88,13,0s9.25,5.92,8,10c-1.34,4.33-8.52,3.33-13,4C282.24,125,279.39,125.45,276.88,124.57Z" transform="translate(-91.35 -61.68)"/><path class="cls-68" d="M276.88,124.57c-4-1.41-6.19-6.08-10-8-5.86-2.94-18.12,1.49-19-5-.63-4.59,7.38-6.56,12-7,6-.57,11.07,5,17,6,4.27.73,9.09-1.88,13,0s9.25,5.92,8,10c-1.34,4.33-8.52,3.33-13,4C282.24,125,279.39,125.45,276.88,124.57Z" transform="translate(-91.35 -61.68)"/></g><g class="cls-69"><path class="cls-55" d="M571.54,221.91c-.69-2.9,1.63-6.2,4-8,3.79-2.87,9.31-3.42,14-2.67,9,1.46,19.36,5.45,24,13.34,1.92,3.25,1,7.68,0,11.33-.8,3-1.72,7.06-4.66,8-6.73,2.16-13.24-5.1-19.33-8.67-6.45-3.77-16.27-6.07-18-13.33Z" transform="translate(-91.35 -61.68)"/><path class="cls-70" d="M571.54,221.91c-.69-2.9,1.63-6.2,4-8,3.79-2.87,9.31-3.42,14-2.67,9,1.46,19.36,5.45,24,13.34,1.92,3.25,1,7.68,0,11.33-.8,3-1.72,7.06-4.66,8-6.73,2.16-13.24-5.1-19.33-8.67-6.45-3.77-16.27-6.07-18-13.33Z" transform="translate(-91.35 -61.68)"/></g><g class="cls-71"><path class="cls-72" d="M567.54,216.57c-3.38-3.4-.61-11.28,3.34-14,2.77-1.9,6.66,1.73,10,1.33,3.07-.36,5.59-3.67,8.66-3.33,2.39.26,4.31,2.3,6,4s5,3.82,4,6c-1.69,3.65-8,.65-12,1.33C580.8,213.06,572.38,221.42,567.54,216.57Z" transform="translate(-91.35 -61.68)"/><path class="cls-73" d="M567.54,216.57c-3.38-3.4-.61-11.28,3.34-14,2.77-1.9,6.66,1.73,10,1.33,3.07-.36,5.59-3.67,8.66-3.33,2.39.26,4.31,2.3,6,4s5,3.82,4,6c-1.69,3.65-8,.65-12,1.33C580.8,213.06,572.38,221.42,567.54,216.57Z" transform="translate(-91.35 -61.68)"/></g><g class="cls-74"><path class="cls-72" d="M406.88,267.07c-5.56-2.14-12.88-1.21-17-5.5-3.85-4-4.21-10.47-4.5-16-.37-6.92-.75-15,3.5-20.5,2.23-2.89,6.65-3,10-4.5,2.66-1.18,5.09-3.7,8-3.5,4.47.3,10.84,2.56,11.5,7,.32,2.22-3.7,2.91-4.5,5-1,2.49-1.45,5.76,0,8,2.18,3.39,9.11,1.44,11,5s-1.76,7.62-2,11.5c-.22,3.5,1.64,7.19.5,10.5-1.09,3.13-3.27,6.79-6.5,7.5C413.31,272.36,410.29,268.38,406.88,267.07Z" transform="translate(-91.35 -61.68)"/><path class="cls-75" d="M406.88,267.07c-5.56-2.14-12.88-1.21-17-5.5-3.85-4-4.21-10.47-4.5-16-.37-6.92-.75-15,3.5-20.5,2.23-2.89,6.65-3,10-4.5,2.66-1.18,5.09-3.7,8-3.5,4.47.3,10.84,2.56,11.5,7,.32,2.22-3.7,2.91-4.5,5-1,2.49-1.45,5.76,0,8,2.18,3.39,9.11,1.44,11,5s-1.76,7.62-2,11.5c-.22,3.5,1.64,7.19.5,10.5-1.09,3.13-3.27,6.79-6.5,7.5C413.31,272.36,410.29,268.38,406.88,267.07Z" transform="translate(-91.35 -61.68)"/></g><g class="cls-76"><path class="cls-77" d="M347.38,189.57c-6.71,3-14.27-4.13-20.5-8a43,43,0,0,1-11.5-10.5c-1.35-1.78-3.36-3.79-3-6,.75-4.65,5.61-8.27,10-10s9.33.29,14,.5c3.16.14,6.8-1.17,9.5.5,4.88,3,8.05,9.27,8.5,15C354.88,177.64,353.4,186.89,347.38,189.57Z" transform="translate(-91.35 -61.68)"/><path class="cls-78" d="M347.38,189.57c-6.71,3-14.27-4.13-20.5-8a43,43,0,0,1-11.5-10.5c-1.35-1.78-3.36-3.79-3-6,.75-4.65,5.61-8.27,10-10s9.33.29,14,.5c3.16.14,6.8-1.17,9.5.5,4.88,3,8.05,9.27,8.5,15C354.88,177.64,353.4,186.89,347.38,189.57Z" transform="translate(-91.35 -61.68)"/></g><g class="cls-79"><path class="cls-80" d="M343.38,151.07c-2.28-1-1.49-5.2-.5-7.5,3-7,11.67-9.66,17.5-14.5,2-1.66,3.41-4.66,6-5,5.47-.71,10.84,3.37,15,7,2.08,1.83,5.18,4.31,4.5,7-.94,3.69-6.21,5.69-10,5.5-3.24-.16-4.8-5.07-8-5.5-4.55-.61-8.95,2.36-13,4.5C350.66,144.79,347.7,153.07,343.38,151.07Z" transform="translate(-91.35 -61.68)"/><path class="cls-81" d="M343.38,151.07c-2.28-1-1.49-5.2-.5-7.5,3-7,11.67-9.66,17.5-14.5,2-1.66,3.41-4.66,6-5,5.47-.71,10.84,3.37,15,7,2.08,1.83,5.18,4.31,4.5,7-.94,3.69-6.21,5.69-10,5.5-3.24-.16-4.8-5.07-8-5.5-4.55-.61-8.95,2.36-13,4.5C350.66,144.79,347.7,153.07,343.38,151.07Z" transform="translate(-91.35 -61.68)"/></g><g class="cls-82"><path class="cls-83" d="M506.88,247.07c-5.66-5.24-10-13.94-8.5-21.5.92-4.74,6.17-7.55,10-10.5,3-2.32,6.2-5.19,10-5.5,6.51-.54,13,3,18.5,6.5,2.79,1.76,5.73,4,7,7a12.19,12.19,0,0,1,0,8c-1.66,5.39-7.17,8.87-9.5,14-1.36,3,.34,7.88-2.5,9.5-3.17,1.8-7-2-10.5-3C516.53,250.12,510.59,250.51,506.88,247.07Z" transform="translate(-91.35 -61.68)"/><path class="cls-84" d="M506.88,247.07c-5.66-5.24-10-13.94-8.5-21.5.92-4.74,6.17-7.55,10-10.5,3-2.32,6.2-5.19,10-5.5,6.51-.54,13,3,18.5,6.5,2.79,1.76,5.73,4,7,7a12.19,12.19,0,0,1,0,8c-1.66,5.39-7.17,8.87-9.5,14-1.36,3,.34,7.88-2.5,9.5-3.17,1.8-7-2-10.5-3C516.53,250.12,510.59,250.51,506.88,247.07Z" transform="translate(-91.35 -61.68)"/></g><g class="cls-85"><path class="cls-55" d="M494.38,221.07c-4.54-.75-8.92-5-10-9.5-1-3.94,1.78-8.1,4-11.5,1.74-2.67,6.26-3.4,7-6.5.32-1.39-2-2.65-1.5-4,2.42-7,12.55-7.86,19-11.5,3.11-1.76,7-2.44,9.5-5,2.08-2.13,1-7.67,4-8,8.12-.9,16.44,10.88,15.5,19-.32,2.72-6,2.32-6.5,5-.7,3.36,5.47,5.6,5,9-.56,4-4.91,6.74-8.5,8.5s-8.18.24-12,1.5c-4.54,1.49-8.25,4.83-12.5,7S499.08,221.85,494.38,221.07Z" transform="translate(-91.35 -61.68)"/><path class="cls-86" d="M494.38,221.07c-4.54-.75-8.92-5-10-9.5-1-3.94,1.78-8.1,4-11.5,1.74-2.67,6.26-3.4,7-6.5.32-1.39-2-2.65-1.5-4,2.42-7,12.55-7.86,19-11.5,3.11-1.76,7-2.44,9.5-5,2.08-2.13,1-7.67,4-8,8.12-.9,16.44,10.88,15.5,19-.32,2.72-6,2.32-6.5,5-.7,3.36,5.47,5.6,5,9-.56,4-4.91,6.74-8.5,8.5s-8.18.24-12,1.5c-4.54,1.49-8.25,4.83-12.5,7S499.08,221.85,494.38,221.07Z" transform="translate(-91.35 -61.68)"/></g><g class="cls-87"><path class="cls-88" d="M374.38,199.57c-7.36-7-10.56-17.37-15-26.5-2.69-5.51-7.28-10.88-7-17,.2-4.69,2.95-9.42,6.5-12.5,2.26-2,5.8-4.34,8.5-3,3.91,2,2.95,8.25,4,12.5.92,3.78.3,8,2,11.5,2.61,5.42,7.86,9.12,12,13.5,1.94,2.06,4.91,3.39,6,6,1.84,4.47,3.1,10.79,0,14.5s-9.31,3.18-14,2.5A5.64,5.64,0,0,1,374.38,199.57Z" transform="translate(-91.35 -61.68)"/></g><g class="cls-89"><path class="cls-83" d="M428.38,235.57c-4.05-1.32-4.1-7.49-6.5-11-2.29-3.33-4.31-7-7.5-9.5-4.32-3.32-11.58-2.26-15-6.5-3.74-4.63-4.19-11.59-3.5-17.5.51-4.37,3.28-8.2,5.5-12,1.86-3.2,2.93-8,6.5-9,6.47-1.78,13.78,3.22,18.5,8,3,3.08,2.9,8.21,5,12,2.65,4.82,7.27,8.47,9.5,13.5,1.86,4.22,2.08,9,3,13.5.73,3.65,3.76,7.72,2,11C442.87,233.66,434.41,237.54,428.38,235.57Z" transform="translate(-91.35 -61.68)"/><path class="cls-90" d="M428.38,235.57c-4.05-1.32-4.1-7.49-6.5-11-2.29-3.33-4.31-7-7.5-9.5-4.32-3.32-11.58-2.26-15-6.5-3.74-4.63-4.19-11.59-3.5-17.5.51-4.37,3.28-8.2,5.5-12,1.86-3.2,2.93-8,6.5-9,6.47-1.78,13.78,3.22,18.5,8,3,3.08,2.9,8.21,5,12,2.65,4.82,7.27,8.47,9.5,13.5,1.86,4.22,2.08,9,3,13.5.73,3.65,3.76,7.72,2,11C442.87,233.66,434.41,237.54,428.38,235.57Z" transform="translate(-91.35 -61.68)"/></g><g class="cls-91"><path class="cls-92" d="M397.38,174.57c-5.44-2.56-12.29-2.28-17-6s-10-9.35-10-15.5c0-2.77,2.37-5.22,4.5-7,3.32-2.78,7.8-3.93,12-5,4.7-1.2,11.48-5.31,14.5-1.5,2.51,3.18-4.2,7.45-4,11.5.23,4.77,6.44,8.25,6,13-.27,2.85-4.54,4.17-5,7-.29,1.72,2.87,3.93,1.5,5C399.11,176.67,398.25,175,397.38,174.57Z" transform="translate(-91.35 -61.68)"/><path class="cls-93" d="M397.38,174.57c-5.44-2.56-12.29-2.28-17-6s-10-9.35-10-15.5c0-2.77,2.37-5.22,4.5-7,3.32-2.78,7.8-3.93,12-5,4.7-1.2,11.48-5.31,14.5-1.5,2.51,3.18-4.2,7.45-4,11.5.23,4.77,6.44,8.25,6,13-.27,2.85-4.54,4.17-5,7-.29,1.72,2.87,3.93,1.5,5C399.11,176.67,398.25,175,397.38,174.57Z" transform="translate(-91.35 -61.68)"/></g><g class="cls-94"><path class="cls-80" d="M425.88,175.07c-7.45,2.05-14.34-6.76-19.5-12.5-3.49-3.88-7-8.78-7-14,0-4.25,1.74-9.51,5.5-11.5,5.95-3.16,14.75-1.23,20,3s6.72,11.91,7,18.5c.15,3.64-1.69,7.11-3,10.5C428.06,171.15,428,174.48,425.88,175.07Z" transform="translate(-91.35 -61.68)"/><path class="cls-95" d="M425.88,175.07c-7.45,2.05-14.34-6.76-19.5-12.5-3.49-3.88-7-8.78-7-14,0-4.25,1.74-9.51,5.5-11.5,5.95-3.16,14.75-1.23,20,3s6.72,11.91,7,18.5c.15,3.64-1.69,7.11-3,10.5C428.06,171.15,428,174.48,425.88,175.07Z" transform="translate(-91.35 -61.68)"/></g><g class="cls-96"><path class="cls-97" d="M452.38,194.07c-3.41-5.72-7.25-11.85-7.5-18.5-.17-4.37,1.1-9.22,4-12.5a9.3,9.3,0,0,1,6.5-3c4.48-.12,8.07,4.28,12.5,5,2.8.45,5.92-1.69,8.5-.5,5.51,2.54,8.1,9.17,11,14.5,2.11,3.89,5.41,8.17,4.5,12.5-1.05,5-7.92,6.64-10.5,11-1.7,2.86.05,8.2-3,9.5-6.53,2.76-13.47-5.09-19-9.5A30.72,30.72,0,0,1,452.38,194.07Z" transform="translate(-91.35 -61.68)"/><path class="cls-98" d="M452.38,194.07c-3.41-5.72-7.25-11.85-7.5-18.5-.17-4.37,1.1-9.22,4-12.5a9.3,9.3,0,0,1,6.5-3c4.48-.12,8.07,4.28,12.5,5,2.8.45,5.92-1.69,8.5-.5,5.51,2.54,8.1,9.17,11,14.5,2.11,3.89,5.41,8.17,4.5,12.5-1.05,5-7.92,6.64-10.5,11-1.7,2.86.05,8.2-3,9.5-6.53,2.76-13.47-5.09-19-9.5A30.72,30.72,0,0,1,452.38,194.07Z" transform="translate(-91.35 -61.68)"/></g><g class="cls-99"><path class="cls-100" d="M442.38,154.57c-4.57-4.6-9.24-12.88-6-18.5,2.38-4.13,9.24-3.42,14-3s10.31,1.83,13.5,5.5,2.91,9.23,3.5,14c.28,2.32,1.77,5.48,0,7-4.88,4.17-12.78-1.48-19-3C446.33,156.07,443.86,156.07,442.38,154.57Z" transform="translate(-91.35 -61.68)"/><path class="cls-101" d="M442.38,154.57c-4.57-4.6-9.24-12.88-6-18.5,2.38-4.13,9.24-3.42,14-3s10.31,1.83,13.5,5.5,2.91,9.23,3.5,14c.28,2.32,1.77,5.48,0,7-4.88,4.17-12.78-1.48-19-3C446.33,156.07,443.86,156.07,442.38,154.57Z" transform="translate(-91.35 -61.68)"/></g><g class="cls-102"><path class="cls-65" d="M469.88,141.57c2.91-4.51,9.14-7.29,14.5-7,4.7.26,9.45,3.53,12,7.5,2.81,4.39,1.82,10.29,2,15.5s1.4,11.23-1,16c-1.87,3.7-5.46,8.89-9.5,8-5.39-1.19-3.26-10.95-7-15-3-3.23-9.34-2.67-11.5-6.5A19.06,19.06,0,0,1,469.88,141.57Z" transform="translate(-91.35 -61.68)"/><path class="cls-103" d="M469.88,141.57c2.91-4.51,9.14-7.29,14.5-7,4.7.26,9.45,3.53,12,7.5,2.81,4.39,1.82,10.29,2,15.5s1.4,11.23-1,16c-1.87,3.7-5.46,8.89-9.5,8-5.39-1.19-3.26-10.95-7-15-3-3.23-9.34-2.67-11.5-6.5A19.06,19.06,0,0,1,469.88,141.57Z" transform="translate(-91.35 -61.68)"/></g><g class="cls-104"><path class="cls-43" d="M208.21,189.91s3.83-9.31,8-11.33c3.8-1.85,8.67,2,12.66.66,4.47-1.54,6.92-6.46,10.67-9.33s8.38-4.84,12-8c3.79-3.31,5.34-9.42,10-11.33,6-2.46,19.33,1.33,19.33,1.33s-13.77.47-19.33,4-7.74,10.87-12,16c-2.31,2.78-4.27,6.07-7.33,8-7.08,4.46-16,5-24,7.33-3.32.95-10,2.67-10,2.67Z" transform="translate(-91.35 -61.68)"/><path class="cls-34" d="M208.21,189.91s3.83-9.31,8-11.33c3.8-1.85,8.67,2,12.66.66,4.47-1.54,6.92-6.46,10.67-9.33s8.38-4.84,12-8c3.79-3.31,5.34-9.42,10-11.33,6-2.46,19.33,1.33,19.33,1.33s-13.77.47-19.33,4-7.74,10.87-12,16c-2.31,2.78-4.27,6.07-7.33,8-7.08,4.46-16,5-24,7.33-3.32.95-10,2.67-10,2.67Z" transform="translate(-91.35 -61.68)"/></g><g class="cls-105"><path class="cls-106" d="M234.88,368.57s38.13-25.62,54-42c12.61-13,18-32.41,32-44,11.92-9.91,30.52-9.57,42-20,5.75-5.23,7.08-14,12-20,6.86-8.41,24-22,24-22" transform="translate(-91.35 -61.68)"/></g><g class="cls-107"><path class="cls-106" d="M468.88,412.57s20.07-22.12,24-36c4.89-17.33.64-36.18-2-54-1.93-13-10-38-10-38s13.36,9.45,18,16c11.22,15.87,14,36.29,22,54,4.3,9.51,14,28,14,28h0" transform="translate(-91.35 -61.68)"/></g><g class="cls-108"><path class="cls-106" d="M734.88,332.57s-21.35-30.81-36-42c-11.14-8.51-25.74-11.22-38-18-15.22-8.4-44-28-44-28" transform="translate(-91.35 -61.68)"/></g><g class="cls-109"><path class="cls-106" d="M110.88,252.57s40.5-10.53,60-18c11.69-4.48,21.77-13.27,34-16,7.15-1.6,15.61,3.61,22,0,10.14-5.75,18-30,18-30l32,22" transform="translate(-91.35 -61.68)"/></g><g class="cls-110"><path class="cls-106" d="M173.88,132.57s21.08,6.66,32,8c11.24,1.39,22.92,2.4,34,0,7.87-1.7,14-9.58,22-10,8.42-.44,24,8,24,8" transform="translate(-91.35 -61.68)"/></g><g class="cls-111"><path class="cls-106" d="M306.88,118.57s15.61-13.82,22-22c4.78-6.13,5.23-16.17,12-20,6.38-3.61,14.91-1.88,22,0,10.39,2.76,28,16,28,16" transform="translate(-91.35 -61.68)"/></g><g class="cls-112"><path class="cls-106" d="M524.88,124.57s4.8-22.49,14-26c7.29-2.78,14.2,8.31,22,8,8-.31,14-11,22-10,12.7,1.59,21.73,14.22,30,24,4.42,5.24,10,18,10,18" transform="translate(-91.35 -61.68)"/></g><g class="cls-113"><path class="cls-114" d="M635.88,184.57s26.72,2.2,40,4c23.45,3.18,49,1.12,70,12,5.86,3,11.47,7.9,14,14,2.29,5.55,0,18,0,18" transform="translate(-91.35 -61.68)"/></g><g class="cls-115"><path class="cls-106" d="M366.88,236.57s5.05-12.11,10-16,18-6,18-6" transform="translate(-91.35 -61.68)"/></g></g></svg>