<svg id="svg2" xmlns="http://www.w3.org/2000/svg" xmlns:xlink="http://www.w3.org/1999/xlink" viewBox="0 0 796.16 1451.3"><defs><style>.cls-1,.cls-5{fill:#a86b55;}.cls-1,.cls-19{stroke:#000;}.cls-2{fill:#f6c482;stroke:#fbbc69;}.cls-12,.cls-15,.cls-19,.cls-3,.cls-8{fill:none;}.cls-3{stroke:#f6c482;}.cls-4{fill:#fbbc69;stroke:#ff9e25;}.cls-5{stroke:#6d3624;}.cls-6{filter:url(#filter4963);}.cls-7{fill:#8a432b;}.cls-8{stroke:#a86b55;}.cls-9{fill:#fdf5cb;stroke:#ebe1a3;stroke-width:0.99px;}.cls-10{filter:url(#filter4951);}.cls-11{fill:#ffe181;}.cls-12{stroke:#ffe181;}.cls-13{filter:url(#filter6953);}.cls-14{fill:#f7f7f6;}.cls-15{stroke:#faf9f9;}.cls-16{fill:#61271d;stroke:#552424;}.cls-17{filter:url(#filter4577);}.cls-18{fill:#471910;}</style><filter id="filter4963" x="-0.46" y="-0.21" width="1.93" height="1.42" name="filter4963"><feGaussianBlur result="feGaussianBlur4965" stdDeviation="31.5"/></filter><filter id="filter4951" x="-0.41" y="-0.14" width="1.81" height="1.29" name="filter4951"><feGaussianBlur result="feGaussianBlur4953" stdDeviation="19.76"/></filter><filter id="filter6953" x="-0.93" y="-0.27" width="2.86" height="1.55" name="filter6953"><feGaussianBlur result="feGaussianBlur6955" stdDeviation="37.51"/></filter><filter id="filter4577" x="-0.27" y="-0.18" width="1.54" height="1.36" name="filter4577"><feGaussianBlur result="feGaussianBlur4579" stdDeviation="20.15"/></filter></defs><title>icecream-01</title><g id="layer1"><path id="path4865" class="cls-1" d="M232.1,613.48c-.41-77.67,124.22-125.64,201.43-117.14,59.29,6.52,120.71,62.75,131.43,121.43,1.15,6.28-3.48,13.28-8.57,17.14-35.93,27.27-87.77,24.18-132.86,25.72C377,662.21,329.14,658.11,285,643.48c-19.23-6.36-52.75-9.74-52.86-30Z"/><path id="path3000" class="cls-2" d="M129.24,517.19s23.44,35,38,50c19.12,19.75,39.49,39.57,64,52,25.82,13.09,55.27,18.52,84,22,43.69,5.29,88.17,1.91,132-2,45.09-4,92.54-3.83,134-22,24.8-10.86,43.73-32.06,64-50,6.12-5.41,17.34-17.33,17.34-17.33s-103,281.94-153.33,423.33c-29.13,81.83-55.23,164.77-86,246-9.19,24.24-17.42,49-29.43,72-6.73,12.87-11.39,28.88-23.72,36.57-4.72,2.94-13,6.24-16.57,2-22.47-26.7-31.74-62.36-43.71-95.14-19.15-52.4-30.38-107.4-44.58-161.4-23.07-87.7-44.72-175.83-66-264-15.41-63.88-29.16-128.15-44.67-192-8.12-33.42-25.33-100-25.33-100Z"/><path id="path2998" class="cls-3" d="M128,517.29s34,50,57.53,68.19a290.4,290.4,0,0,0,108.29,52.29c52.49,12.74,108,6,162,4.28,22.36-.7,45.09-.81,66.85-6,28.82-6.87,57.47-17.14,82.58-32.86,17.59-11,31.47-27.16,46-42,5-5.06,14-16,14-16l-20,50s-27.88,22.46-43.34,31.34c-22.76,13.08-46.45,25.89-72,31.9-48.1,11.32-98.73,8.91-148.1,6.67-42.73-1.94-86.75-3.27-127.14-17.33-31.25-10.88-60.15-29.22-85.43-50.58-11.56-9.77-29.33-34.66-29.33-34.66Z"/><path id="path5052" class="cls-4" d="M153.24,611.86c8,0,28.67-2,28.67-2l16.67,11.33-40.67,10Z"/><path id="path4861" class="cls-5" d="M48.58,542C28.6,498.17,17.73,444.49,32,398.53,47.82,347.6,90.42,303.66,137.15,278c42.37-23.31,95.06-21.53,143.43-22,39.26-.38,85.91-8.68,116.76,15.62C439.85,305.07,456,368.88,455.91,423c-.06,83.47-16.71,194.73-90.67,233.43-10.29,5.38-22.49-10.45-33.87-8.15C317.73,651,311.61,674.53,297.78,673c-12.61-1.37-12.43-27.56-25.07-28.62-13.86-1.16-18.44,27.27-32.33,26.4-12.59-.79-14.19-23.24-26.1-27.42-9.55-3.35-23.76-3.81-30.09,4.09-9.84,12.28,18.42,40.73,4,47C125.06,722.19,77.2,604.67,48.58,542Z"/><g class="cls-6"><path class="cls-7" d="M174.57,242.53l188,59.33S410,406.7,409.91,462.53c-.1,47.32-6.31,103.47-40.67,136-33.2,31.42-102.82,66-133.33,32-37.35-41.65,56.67-158,56.67-158l-50-145.33Z"/><path class="cls-8" d="M174.57,242.53l188,59.33S410,406.7,409.91,462.53c-.1,47.32-6.31,103.47-40.67,136-33.2,31.42-102.82,66-133.33,32-37.35-41.65,56.67-158,56.67-158l-50-145.33Z"/></g><path id="path4863" class="cls-9" d="M393.62,309.21c24.06-25.13,62.19-35.25,96.76-39.06,49.93-5.5,105.43-.93,148.68,24.62,51,30.12,91.33,83.29,110,139.49,11.29,34,8.27,73.42-2.86,107.49-9.46,29-30.28,53.78-52,75.17-32.44,32-78.27,105-113.51,76.13-13.3-10.9,27.08-32.1,19.77-47.66-3.15-6.7-13.91-7.69-21.22-6.55-19.12,3-28.29,31.9-47.59,33.24-10.9.76-18.58-12.34-29.21-14.85-22.3-5.26-47.44,8.92-68.75.5-27.05-10.71-48.64-35-63.23-60.17C347.82,558.46,336,511,338.2,465.9c2.76-55.33,17.12-116.66,55.43-156.68Z"/><g class="cls-10"><path class="cls-11" d="M533.24,313.86l170.67,51.33,19.33,132.67S616.57,660.53,619.91,647.19s-3.33-189.33-3.33-202.67-83.33-130.67-83.33-130.67Z"/><path class="cls-12" d="M533.24,313.86l170.67,51.33,19.33,132.67S616.57,660.53,619.91,647.19s-3.33-189.33-3.33-202.67-83.33-130.67-83.33-130.67Z"/></g><g class="cls-13"><path class="cls-14" d="M257.24,837.18c8,5.62,64,50.57,64,50.57s8.28,132.82,18.75,207.91c21.57,154.66,12.25,126.43,11.25,132-2,11.24,6,89.91-4,67.43s-64-222-64-222Z"/><path class="cls-15" d="M257.24,837.18c8,5.62,64,50.57,64,50.57s8.28,132.82,18.75,207.91c21.57,154.66,12.25,126.43,11.25,132-2,11.24,6,89.91-4,67.43s-64-222-64-222Z"/></g><path id="path4867" class="cls-16" d="M202.57,321.24c-64.64-40.69,4-166.75,56.67-222,39.18-41.1,106.18-53.51,162.86-50,40.64,2.52,80.74,23.25,111.43,50,33.87,29.52,66.28,69.66,71.43,114.29,5.91,51.18,1.37,141.2-49.9,146.29-7.27.72-4.3-16.07-11-18.95-11.15-4.76-23.61,11.48-35.37,8.51-9.72-2.45-12.48-18.66-22.41-20.05-16.19-2.28-28.62,16.26-44.16,21.35a211.13,211.13,0,0,1-52.7,9.7c-9,.55-18-.41-26.94-1.61-13.47-1.82-26.3-8.49-39.89-8.47-14.49,0-28.47,12.74-42.51,9.14-10.75-2.75-16.1-15.38-25.15-21.78-5.69-4-13-5.69-18.15-10.34-6.61-5.92-6.82-20.47-15.63-21.56-8-1-11.72,19.84-18.55,15.54Z"/><g class="cls-17"><path class="cls-18" d="M418.57,73.86s127.22,71,117.33,56C484.77,52.34,595,239.07,596.57,240.53c-16.83,29.88-83.22,102.38-95,101.59s21.18-92.9,7-116.25Z"/><path class="cls-19" d="M418.57,73.86s127.22,71,117.33,56C484.77,52.34,595,239.07,596.57,240.53c-16.83,29.88-83.22,102.38-95,101.59s21.18-92.9,7-116.25Z"/></g></g></svg>