<svg id="Layer_1" data-name="Layer 1" xmlns="http://www.w3.org/2000/svg" viewBox="0 0 147.07 421.14"><defs><style>.cls-1{fill:#fff;}.cls-2{fill:#a16121;}.cls-10,.cls-2,.cls-5,.cls-6,.cls-8{stroke:#000;stroke-miterlimit:10;stroke-width:0.04px;}.cls-3{fill:#804000;}.cls-4{fill:#ffc080;}.cls-6{fill:#f0d4a8;}.cls-7{fill:#e0c699;}.cls-8{fill:#ffabbc;}.cls-9{fill:#edbac4;}.cls-10{fill:#80ff80;}.cls-11{fill:#00c200;}</style></defs><title>icecream-03</title><g id="Layer_1-2" data-name="Layer 1"><path class="cls-1" d="M33.33,177.58c17.8,0,32.25,9.71,32.25,21.67s-14.45,21.67-32.25,21.67-32.26-9.7-32.26-21.67,14.45-21.67,32.26-21.67"/><path class="cls-2" d="M79.58,419.8l51.59-197.24-103.64-.4L79.58,419.8Z"/><path class="cls-3" d="M77.71,247.14c-.47-5.4,0-9.29,1.36-12.2s4.75-6.2,6.77-5,2.56,9.39,5,12.2,7.92,2,9.46,4.5-1.69,6.77-.9,10.41,4.14,7.09,5,10.4c.61,3.27-1.76,4.54-.9,9s4.61,12.38,5.87,17.17c1.15,4.64,1.4,8.31.9,10.87l-5.44,19c-1.33-6.19-2.34-12.27-3.16-18.54-.9-6.44-.58-13.14-1.8-19-1.44-5.8-4.32-11.52-5.87-15.37s-.51-4.32-3.13-8.14a138.76,138.76,0,0,0-13.14-15.36Z"/><path class="cls-4" d="M54.2,222.73c1.4,8.1,2.8,19.87,4.06,36.14s2.85,44.25,3.64,60.59c.76,16.1,1,27.9.9,35.71l1.8,6.77c1.3-7.2,1.91-18.39,1.84-33.87-.07-15.66-.83-41-2.27-58.79a410.51,410.51,0,0,0-6.34-47c-1.18.16-2.41.3-3.63.48Z"/><path class="cls-4" d="M41.09,221.83c3.17,16.88,5.44,31.72,6.81,45.18s1.83,24.81,1.33,34.81L52,310.43c1.4-11.27,1.54-23.91.43-38.88a437.34,437.34,0,0,0-7.24-50.19c-1.33.15-2.7.29-4.07.47Z"/><path class="cls-4" d="M70.94,227.7c1.83,19.73,3,38.7,3.6,58.32s.5,40.61,0,57.85S73,375.55,71.41,388.19l1.33,6.3a358.35,358.35,0,0,0,5-43.38c1-17.32,1.87-38.09,1.36-59.69S77,246.85,74.54,221.83l-3.6,5.87Z"/><path class="cls-4" d="M89.91,272.88c.79,5.19.9,14.26.47,28s-2,36.8-3.17,53.79-2.38,32.36-3.64,47l5-15.34h0c3.38-31.36,5.58-56.16,6.3-75.53s.18-32.36-1.8-39.78c-.18-2.16-.58-3.71-1.34-4.5s-1.8-1-3.16-.47c.43,2.24.86,4.51,1.33,6.78Z"/><path class="cls-4" d="M82.67,257.54c-6.19,1.62-13.14,1.77-21.24.43a119.08,119.08,0,0,1-27.11-8.6l1.8,5A74,74,0,0,0,52,259.77a131,131,0,0,0,19.88,2.74,48.27,48.27,0,0,0,14.47-1.37c-1.19-1.19-2.41-2.38-3.64-3.61Z"/><path class="cls-4" d="M39.29,266.58a186.51,186.51,0,0,0,27.15,5,207.15,207.15,0,0,0,28.44.9l.93,3.17A153.44,153.44,0,0,1,70,275.15a265.71,265.71,0,0,1-30.32-5c-.14-1.19-.28-2.38-.43-3.6Z"/><path class="cls-4" d="M43.36,282.38A156.66,156.66,0,0,0,69.14,286a217.14,217.14,0,0,0,28.9-.47v2.7a151.8,151.8,0,0,1-24.83.94A282,282,0,0,1,42.89,286c.15-1.19.29-2.41.47-3.64Z"/><path class="cls-4" d="M46.06,296.39c3.31,2,9.15,3.1,17.64,3.64s19.3.07,33-.9l.44,3.16c-15,1.7-26.53,2.45-34.81,2.27s-13.22-1.47-14.91-3.63c-.43-1.52-.9-3-1.37-4.54Z"/><path class="cls-4" d="M52,313.56c3.88,1.37,9.32,2.23,16.7,2.73s16.23.4,27.14,0v4.07c-5.11,1.41-11.19,1.77-18.54,1.37A153.91,153.91,0,0,1,52,317.63v-4.08Z"/><path class="cls-4" d="M56.47,333a44.5,44.5,0,0,0,10.4,2.74A131.7,131.7,0,0,0,84,337.54a112.41,112.41,0,0,0,18.07-1.37l-.9,3.63h0A114.31,114.31,0,0,1,80,341.17a140.18,140.18,0,0,1-22.6-2.73c-.29-1.8-.58-3.6-.9-5.44Z"/><path class="cls-4" d="M62.33,353.81c3.67,2.05,8.21,3.2,14,3.6a91.6,91.6,0,0,0,20.34-1.33l-2.27,4.5A97.69,97.69,0,0,1,75,362.41c-5-.25-8.42-1.26-10.4-3.16-.65-1.8-.9-2.81-.9-2.74s1,3.1.9,2.74c-.25-.47-1-2.24-2.27-5.44Z"/><path class="cls-4" d="M69.57,378.68a60.33,60.33,0,0,0,8.14.43c3.45,0,7.34-.14,12.2-.43l-1.33,4.5a108.32,108.32,0,0,1-12.67.47c-3-.15-4.65-.65-5-1.37-.43-1.18-.9-2.37-1.37-3.6Z"/><path class="cls-4" d="M29.36,229.5c2,1.08,6.55,2.23,14,3.6s17.35,2.85,30.28,4.54l.9,4.53C65.11,241.16,57,240,49.7,239s-13.36-2.19-18.54-3.16c-.58-2.09-1.19-4.22-1.8-6.34Z"/><path class="cls-4" d="M79.11,240.08c3.56-.47,8.89-2,16.38-5s16.67-7.27,28-12.89l4.07.29c-8.57,4.75-16.67,8.89-24.88,12.56a227.08,227.08,0,0,1-23.94,9c.12-1.29.23-2.62.33-4Z"/><path class="cls-4" d="M83.82,253c.83,1,4.72-.11,11.81-3.46s17-8.89,30.42-16.7l-1.58,5.36c-13,6.95-22.5,11.88-28.84,14.94s-9.28,4-9,3.17L83.82,253Z"/><path class="cls-4" d="M100.74,292.64a81.11,81.11,0,0,0,8.6-3.64,62.06,62.06,0,0,0,7.24-4.5l-3.6,7.2c-3.35,1.88-6.12,3.1-8.17,4.11a15.27,15.27,0,0,1-4.5,1.33c.15-1.46.29-3,.43-4.49Z"/><path class="cls-4" d="M84.47,222.73c2.38,7.27,5.3,15.12,8.61,23.94s7.74,21,11.3,28.48,6.34,12.6,9,15.84l1.83-5a185.07,185.07,0,0,1-14.5-28.48A288.08,288.08,0,0,1,89,222.26c-1.52.15-3,.29-4.54.47Z"/><path class="cls-4" d="M99.67,222.59c.07,1.55,1.62,6.52,4.5,14.9s7,20.06,12.74,35.36l1.58-6a272,272,0,0,1-10.69-27.11c-2.37-7.38-3.38-12.81-3.17-16.7-1.64-.14-3.3-.28-4.95-.46Z"/><path class="cls-4" d="M94.23,265.61c.72-.32,3.42-1.8,8.49-4.43s12-6.51,21.42-11.63l-1.58,5.37c-8.42,4.24-15,7.7-19.66,10.22s-7.59,4.11-8.67,4.9v-4.43Z"/><path class="cls-4" d="M97.36,280.08c1.91-.79,4.57-2.3,8.53-4.39s8.53-5,14.47-8.5l-2.19,6c-4.64,2.45-8.64,4.5-12.13,6.44s-6.34,3.46-8.68,4.9c0-1.48,0-2.95,0-4.43Z"/><path class="cls-4" d="M113.52,221.94c1.37,4.46,2.77,9.4,4.5,14.94s3.49,11.41,5.51,18l1.87-8.21c-1.44-1.05-2.56-3.57-3.74-7.56a122.45,122.45,0,0,1-3.17-16.74c-1.65-.15-3.31-.29-5-.47Z"/><path class="cls-5" d="M24.53,221.51l3,7.89.54,5.14L30,237l3,11.7a16.74,16.74,0,0,0,.54,5.69c.36,1.15,1,1.65,1.91,1.37l2.45,9.5a10.63,10.63,0,0,0-.79,3,1.51,1.51,0,0,0,.25,1.37,6.36,6.36,0,0,0,1.37,1.62l3,10c-.82,1.3-1.19,2.2-1.08,3s.83.79,1.37,1.37L43.29,287l2.16,8.68a2.25,2.25,0,0,0-.83,2.2A14.52,14.52,0,0,0,46,301.65a4.18,4.18,0,0,0,1.08,1.65l3.53,10.87a7.23,7.23,0,0,0-.25,2.45,4.38,4.38,0,0,0,.54,2.16,1.84,1.84,0,0,0,1.36.83l2.42,12.49h0c.1.86.25,4.1.82,5.44A3.56,3.56,0,0,0,57.65,340l2.74,13.32q-1.78,1.08-1.08,2.7c.43,1.08,1.69,2.31,3.78,3.82l3.81,17.64a2.23,2.23,0,0,0-.54,2.45,12.49,12.49,0,0,0,1.91,4.1c-.29-1.76.29-.32,1.33,4.32s3.64,18,5.19,23.37c1.33,5.14,1.65,6.94,3.06,7.92s2.73,3.81,5-2.2c2.23-6.26,5.76-24.95,8.21-34.24,2.27-9.28,4-16.3,5.43-21.2a5,5,0,0,0,1.91-3.53,18.12,18.12,0,0,0-.54-6.26c1.48-5.47,2.56-9.22,3.53-11.67s1.55-1.44,1.87-2.7a14.58,14.58,0,0,0,.29-4.89c2.19-6.81,4.28-13.28,6-19.84s3.6-16,4.35-19.29h0c.69.1,1.37-.76,1.91-2.74s1-7,1.33-9,.18-2.67,0-2.45l1.94-6.81a32.38,32.38,0,0,0,2.2-5c.76-2.38,2-6.38,2.52-8.5s.4-3.42,0-4.1l9.11-34.53h-2.7a94.15,94.15,0,0,0-3.57,11.41c-1.4,5.08-2.16,9-4.6,19-2.7,10.08-6.56,24.77-10.59,41-4.21,16.2-9.61,40.14-13.57,55.44s-6.59,25.17-9.79,35.35c-3.38,10.12-6.91,24.34-9.61,24.74-2.7,0-2.81-10.44-6.45-23.66-3.88-13.46-11.62-38.16-16-55.18S50.81,301,46,282.93s-11.12-38.16-19-61.42H24.53Z"/><path class="cls-5" d="M33,241.52l5.32-5.44a39.07,39.07,0,0,1-8.81-6.15c-2.53-2.38-3.32-5.73-5.84-7.67-2.7-2-8.35-.43-9.32-4.1S15.82,204,18.16,199.8s6.66-4,9.72-6.92c2.95-3.06,2.67-6.69,7.74-11,4.9-4.57,10.62-13.43,22-15.48s35.14-.36,46.19,3.53,15.41,13.75,19.19,19.84c3.67,5.9,4.46,11.08,2.66,15.69,5.69,3.06,9.69,5.83,12,8.61,2.23,2.62.54,5,1.59,7.66s3.45,4.11,4.24,8.07c.69,3.78,1.69,11.95-.18,14.94-2.09,2.95-6,4.71-11.66,2.81-5.83-2.09-13.18-7-22.57-14.94-5.87,7.7-10.62,12.38-14.26,14.58-3.67,2-4.35-3.24-7.74-2.06-3.6,1.19-8.17,6.59-12.89,9-4.86,2.23-10.65,2.48-15.15,4.5s-8.89,7.74-11.27,7.27-3.42-4.14-3-10.66c-5.61-.07-9.29-1-11.3-3.34s-2.17-5.68-.55-10.29Z"/><path class="cls-6" d="M40.19,235a39.63,39.63,0,0,1-8.46-6.16c-2.77-2.59-5.11-7.3-7.56-9s-6.26,1.16-7.41-1.29-.69-9.87.72-13.47c1.26-3.56,4.86-5.9,7.05-7.84,2.09-2.13,3.57-1.77,5.8-4.32,2.16-2.74,3.27-7,7.24-11.06,3.81-4.1,9.61-10.44,15.84-12.88s14-1.95,21-1.66a133.5,133.5,0,0,1,20.13,2.59c5.33.87,8,.15,12.13,3s9.4,9.83,12.35,14,4.79,7.06,5.11,10.48a12.73,12.73,0,0,1-4.25,9.72c-3,2.3-11.73,3.92-13.21,4.85s1,1.37,4.43.94c3.2-.65,10.83-4.71,15-4.28s7.7,4.53,9.5,6.91c1.62,2.27,0,4.46.72,6.73.68,2.05,2.95,4,3.89,6.55s2.27,6.34,1.73,9.36-1.37,8.1-4.94,8c-3.81-.18-12.67-5.87-17.42-8.6a54.21,54.21,0,0,1-10.94-8c-6.2,7.7-10.88,12.56-14.44,14.58-3.49,1.87-2.66-4-6.55-2.63-4.11,1.4-12.17,8.42-17.25,11s-9.54,2.23-13.06,4.11-6.41,7.23-8.1,6.73c-1.88-.65-2.67-3.89-2.67-10.12-4.71.07-8-.5-10.22-1.87a5.61,5.61,0,0,1-2.81-6.34c.63-2.79,2.86-6,6.68-10.1Z"/><path class="cls-7" d="M26.62,211.61c2.74,3.35,8.6,11.34,13.57,14.94,4.79,3.56,6.59,8,15.52,6.37,9-1.83,30.71-11.84,37.91-16.27,6.95-4.46,6.95-10.55,4-9.9s-14,10.91-21.67,13.82c-7.85,2.78-15.59,5.55-24.34,3.17C42.89,221.15,28.17,208.3,24,206.17c-4.1-2-.21,1.87,2.63,5.44Z"/><path class="cls-7" d="M52.36,248.83c2.23-2.05,9-4.54,12-5.08s2.09,3.35,5.83,1.34c3.67-2.2,13.21-12,16.38-13.86s-.54,3,2.12,2.63,13.9-5.58,13.58-4.86c-.51.68-10.44,5-16.06,8.78S73,248.65,68.74,250.7c-4.39,1.88-5.4-2-8.46-1.15s-8.6,6.16-9.86,6.19c-1.34-.2-.51-5,1.94-6.9Z"/><path class="cls-7" d="M103.3,200c1.94-3.28,8.35-9.22,11.45-9.76,2.88-.43,5.15,4.22,5.83,6.74a7.45,7.45,0,0,1-2.63,7.66c-3,2.09-11.77,5.37-14.29,4.68-2.41-.9-2.3-6.08-.36-9.32Z"/><path class="cls-5" d="M64.46,198.83c-5.47-3.35-10.41-5.33-15.34-5.94s-9.11,3-13.89,2.12A29.78,29.78,0,0,1,20,186.84c-5.5-5.18-17.35-17.53-16.92-22.61s7-7.88,19.8-8.17c-4.6-5.61-4.82-11.55-.65-18.36s12.78-18.5,25.42-22S84.33,114,97,117.25c12.49,3.06,19.76,12,25.56,17.21s8.6,9.72,8.78,13.72c4.43-.94,7.31-.61,8.64,1.11s1,4.72-.79,9c7,3.74,9.18,8.5,7,14.4-2.38,5.87-9.07,12.64-20.63,20.59-4-2.09-9.14-3-15.62-2.95s-17.28,2.09-23,3.38-7.52,3.14-11.2,4.11a43.37,43.37,0,0,1-11.3,1Z"/><path class="cls-8" d="M26.08,157.32a22.65,22.65,0,0,0-9.58.43c-3.42.72-8.13,2.45-9.72,4.36s-2.3,2.3.8,6.8,12,16,17.57,19.91c5.43,3.82,10.58,2.63,14.86,3.1,4.11.28,5.66-1.62,9.9-.72s10.8,5.4,15.48,6.08c4.47.5,7.49-1,12-2.27s9.15-3.78,15.19-4.93a96.6,96.6,0,0,1,20.78-1.84c5.54.29,9.64,1.52,12.45,3.68,6.88-4.9,11.88-9.36,15.16-13.54s4.75-8.1,4.32-11.3-3.1-5.76-7.53-7.64a12.73,12.73,0,0,0,1.15-5.65c-.14-1.65-.61-3.35-1.94-4s-5-1.08-6.37.18-1.3,5.22-2.56,7.45c-1.47,2.09-5.33,6.56-5.29,5.22,0-1.54,5.11-9.9,5.76-13.53s1-4.07-2.09-7.92c-3.27-4.11-10-11.74-16.41-15.81s-11.38-6.66-21.1-8.17c-10-1.65-26.5-4.35-37.22-1.29S29.9,128.23,25.61,135.29s-4.07,14.12.47,22Z"/><path class="cls-9" d="M64.13,191.77c-4-1.37-15.08-10.73-18.68-11.7s-.47,5.62-2.88,6.05c-2.56.25-7.52-1.3-11.84-4.5-4.4-3.39-14-14.11-13.72-15.12s12.24,9.36,15.34,9c2.84-.54-3.82-13.28,2.23-11.3s28.91,18.83,34,23.58c4.86,4.42-.61,5.32-4.47,3.95Z"/><path class="cls-9" d="M80.4,131.51c3-2.09,14.59-4.43,20.78-4,6,.5,11.55,3.78,15.51,6.77,3.82,2.81,7.2,6.19,7.81,10.44s-4,11.19-4.46,15,4.79,3.06,1.12,7.06c-3.85,3.82-22,17.14-23.48,16.24s13.43-17.43,14.84-21.75-7.13-1.15-6.7-4,10-9.65,9.11-13.25c-1.08-3.78-9.22-7.77-14.54-8.49s-13.61,4.75-16.93,4.25c-3.43-.77-6-6.28-3.07-8.33Z"/><path class="cls-9" d="M134.58,161.28c2.63.25,8.53,6.05,8,9.76-.83,3.6-7.41,9.68-11.84,12.13s-12.21,2.81-14,2.12c-1.87-.9.39-4.46,3.2-6.51s12.06-4,13.25-5.51c1-1.62-6.77-2-6.55-4s5.19-8.27,8-8Z"/><path class="cls-9" d="M55.49,144.22C51,146.16,36,154.88,37.28,154.8s23-9.86,26.21-11.59c2.91-1.8-3.64-1-8,1Z"/><path class="cls-9" d="M71.15,147.6c-3.92,2-16.38,10.69-15.15,10.58,1.26-.36,20.16-10.18,22.82-12,2.49-1.76-4-.64-7.67,1.41Z"/><path class="cls-9" d="M88.72,151.81c-2.84,1.87-12.67,13.57-12,14.26.8.36,14-8.54,16.17-11,1.83-2.45-1.41-5.11-4.18-3.28Z"/><path class="cls-5" d="M62.44,143.06c-5.4-3.28-10.47-5.29-15.37-5.9s-9.11,3.06-13.9,2.08c-5-1-9.79-3.13-15.15-8.17s-17.43-17.53-17-22.61,7-7.88,19.84-8.17c-4.61-5.61-4.83-11.55-.65-18.36S33,63.32,45.67,59.9,82.31,58.24,95,61.48c12.49,3.06,19.76,12,25.56,17.21s8.6,9.72,8.78,13.72c4.43-.94,7.31-.61,8.64,1.11s1,4.72-.82,9c7,3.74,9.28,8.5,7,14.4s-9.07,12.64-20.62,20.59c-4.11-2.09-9.19-3-15.66-3s-17.32,2.09-23,3.38-7.45,3.14-11.16,4.11a43,43,0,0,1-11.33,1Z"/><path class="cls-2" d="M24.1,101.56a22.79,22.79,0,0,0-9.61.43c-3.42.79-8.14,2.49-9.72,4.39-1.55,1.7-2.31,2.38.79,6.77s12,15.95,17.57,19.91c5.43,3.82,10.58,2.63,14.87,3.1,4,.36,5.72-1.62,9.9-.69s10.8,5.4,15.51,6.05c4.5.5,7.42-1,12-2.27s9.14-3.78,15.19-4.93a96.2,96.2,0,0,1,20.73-1.84c5.51.29,9.72,1.52,12.49,3.68,6.95-5,11.88-9.4,15.2-13.58s4.71-8.13,4.28-11.26-3-5.66-7.49-7.64a13.4,13.4,0,0,0,1.08-5.61c-.14-1.66-.57-3.35-1.87-4-1.4-.76-4.93-1.19-6.41.11s-1.29,5.29-2.55,7.48c-1.48,2.09-5.33,6.56-5.3,5.22,0-1.54,5.11-9.9,5.76-13.53s.94-4-2-7.89c-3.2-4.06-10.19-11.8-16.49-15.84S96.57,63,86.85,61.49c-9.94-1.69-26.5-4.25-37.19-1.26S27.88,72.51,23.6,79.56s-4.17,14.14.51,22Z"/><path class="cls-3" d="M62.12,136c-4-1.37-15.09-10.73-18.69-11.7s-.46,5.62-2.88,6.05c-2.55.25-7.52-1.3-11.84-4.5-4.39-3.39-14-14.11-13.72-15.12s12.24,9.36,15.34,9c2.84-.54-3.82-13.28,2.23-11.3s28.91,18.83,34,23.58c4.86,4.42-.61,5.32-4.46,3.95Z"/><path class="cls-3" d="M78.39,75.74c3-2.08,14.58-4.42,20.77-4,6,.51,11.56,3.78,15.52,6.77,3.81,2.81,7.2,6.16,7.81,10.48s-4,11.23-4.46,14.94,4.78,3.06,1.11,7c-3.85,3.82-22,17.14-23.47,16.24s13.43-17.42,14.83-21.74-7.13-1.23-6.69-3.93c.35-2.88,10-9.75,9.1-13.28-1.08-3.71-9.21-7.78-14.54-8.46s-13.61,4.79-16.92,4.21c-3.44-.77-6-6.28-3.08-8.33Z"/><path class="cls-3" d="M132.57,105.52c2.63.32,8.53,5.94,8,9.76-.83,3.6-7.41,9.68-11.84,12.13s-12.21,2.81-14,2.12c-1.84-.9.32-4.46,3.17-6.51s12.06-4,13.28-5.51c1-1.66-6.77-2-6.55-3.93s5.18-8.35,8-8.06Z"/><path class="cls-3" d="M53.48,88.45C49,90.4,34,99.11,35.26,99c1.44-.22,23-9.87,26.21-11.6C64.39,85.64,57.83,86.44,53.48,88.45Z"/><path class="cls-3" d="M69.14,91.84c-4,2-16.42,10.69-15.2,10.58,1.34-.36,20.2-10.19,22.87-12C79.29,88.67,72.85,89.78,69.14,91.84Z"/><path class="cls-3" d="M86.71,96.08C83.86,98,74,109.58,74.72,110.3c.65.36,14.07-8.53,16.13-11s-1.48-5-4.14-3.23Z"/><path class="cls-5" d="M61.36,84.89C55.89,81.54,51,79.56,46,79s-9.11,3-13.9,2.12c-5-1-9.79-3.13-15.16-8.21S-.45,55.4,0,50.29s7-7.88,19.83-8.17c-4.57-5.62-4.78-11.56-.64-18.36,4.21-7,12.67-18.5,25.37-22C57.18-1.62,81.23,0,93.94,3.28c12.49,3.13,19.73,12,25.6,17.24,5.72,5.18,8.6,9.65,8.78,13.68,4.47-1,7.24-.54,8.61,1.15s1,4.72-.8,9c6.91,3.78,9.26,8.42,7,14.36S134,71.35,122.56,79.38c-4.1-2.09-9.18-3-15.66-2.95s-17.32,2.09-23,3.38-7.53,3.13-11.2,4.11a43.52,43.52,0,0,1-11.34,1Z"/><path class="cls-10" d="M23,43.38a22.65,22.65,0,0,0-9.58.43c-3.38.72-8.2,2.45-9.75,4.36s-2.3,2.3.79,6.8,12,15.91,17.57,19.87c5.44,3.78,10.58,2.7,14.87,3.14,4,.21,5.72-1.52,9.9-.72s10.8,5.4,15.51,6.08c4.47.5,7.49-1,12-2.27s9.07-3.78,15.16-4.93a96.5,96.5,0,0,1,20.77-1.84c5.54.29,9.65,1.52,12.45,3.68,7-5,11.88-9.4,15.2-13.58s4.75-8.13,4.31-11.26-3.09-5.66-7.52-7.64a12.79,12.79,0,0,0,1.12-5.65c-.11-1.65-.65-3.35-1.91-4s-5-1.15-6.37.15c-1.59,1.22-1.33,5.29-2.59,7.48-1.52,2.09-5.26,6.56-5.26,5.22,0-1.54,5.11-9.9,5.76-13.53s1-4.07-2.09-7.92c-3.24-4.11-10.11-11.74-16.45-15.81S95.52,4.9,85.8,3.28C75.79,1.58,59.31-1,48.58,2s-21.75,12.27-26,19.33-4.08,14.11.46,22Z"/><path class="cls-11" d="M61,77.83C57,76.5,46,67,42.35,66.1s-.47,5.72-2.88,6.08c-2.59.25-7.45-1.26-11.81-4.54S13.73,53.57,13.91,52.56s12.31,9.36,15.34,9c2.84-.54-3.82-13.29,2.23-11.31,6.08,2.13,28.91,18.83,34,23.58C70.36,78.3,64.89,79.2,61,77.83Z"/><path class="cls-11" d="M77.35,17.53c3-2.09,14.58-4.46,20.77-3.92s11.48,3.78,15.48,6.77c3.89,2.8,7.2,6.19,7.84,10.44s-4,11.19-4.46,15,4.79,3.06,1.12,7.06c-3.93,3.81-22,17.13-23.51,16.23s13.46-17.42,14.87-21.74-7.13-1.15-6.7-4,10-9.65,9.11-13.25c-1-3.78-9.29-7.77-14.55-8.49s-13.6,4.86-16.95,4.24c-3.48-.79-6-6.3-3.05-8.35Z"/><path class="cls-11" d="M131.49,47.34c2.63.29,8.53,6,8,9.72-.75,3.67-7.41,9.72-11.81,12.17S115.47,72,113.6,71.32c-1.87-.83.39-4.47,3.2-6.48s12.06-4,13.25-5.51c1-1.62-6.73-2-6.52-4s5.12-8.28,8-8Z"/><path class="cls-11" d="M52.43,30.24C48,32.15,32.92,41,34.22,40.86s23-9.86,26.2-11.59C63.34,27.5,56.79,28.15,52.43,30.24Z"/><path class="cls-11" d="M68.06,33.66C64.13,35.6,51.68,44.46,52.9,44.24c1.33-.39,20.2-10.18,22.86-12C78.25,30.46,71.84,31.54,68.06,33.66Z"/><path class="cls-11" d="M85.66,37.87c-2.84,1.87-12.67,13.57-12,14.26.65.39,14.08-8.61,16.13-11S88.33,36.07,85.66,37.87Z"/></g></svg>