<?xml version="1.0" encoding="iso-8859-1"?>
<!-- Generator: Adobe Illustrator 18.1.1, SVG Export Plug-In . SVG Version: 6.00 Build 0)  -->
<svg version="1.1" id="Capa_1" xmlns="http://www.w3.org/2000/svg" xmlns:xlink="http://www.w3.org/1999/xlink" x="0px" y="0px"
	 viewBox="0 0 27.346 27.346" style="enable-background:new 0 0 27.346 27.346;" xml:space="preserve">
<g>
	<g id="c157_bold">
		<path style="fill:#030104;" d="M25.17,0.624H2.175C0.972,0.624,0,1.598,0,2.8v21.747c0,1.199,0.972,2.175,2.175,2.175H25.17
			c1.199,0,2.176-0.976,2.176-2.175V2.8C27.346,1.598,26.369,0.624,25.17,0.624z M25.213,22.867c0,1.011-0.824,1.837-1.838,1.837
			H3.937c-1.018,0-1.838-0.826-1.838-1.837V4.48c0-1.013,0.82-1.837,1.838-1.837h19.438c1.014,0,1.838,0.824,1.838,1.837V22.867z"/>
		<path style="fill:#030104;" d="M17.465,12.859v-0.048c1.832-0.712,2.684-2.052,2.684-3.495c0-1.514-0.803-2.639-1.951-3.249
			C17,5.356,15.607,5.14,13.335,5.14c0,0-3.836,0.078-4.812,0.273v16.239c0.829,0.123,2.198,0.245,4.03,0.245
			c3.276,0,5.278-0.538,6.475-1.492c1.025-0.801,1.711-1.978,1.711-3.491C20.74,14.786,19.346,13.347,17.465,12.859z M12.21,7.972
			c0.295-0.074,0.76-0.123,1.587-0.123c1.689,0,2.642,0.661,2.642,1.905c0,1.225-1.027,2.029-3.005,2.029H12.21V7.972z
			 M13.653,19.161c-0.636,0-1.075,0-1.442-0.072v-4.642h1.271c1.856,0,3.348,0.66,3.348,2.321
			C16.83,18.502,15.338,19.161,13.653,19.161z"/>
	</g>
</g>
<g>
</g>
<g>
</g>
<g>
</g>
<g>
</g>
<g>
</g>
<g>
</g>
<g>
</g>
<g>
</g>
<g>
</g>
<g>
</g>
<g>
</g>
<g>
</g>
<g>
</g>
<g>
</g>
<g>
</g>
</svg>
