<?xml version="1.0" encoding="iso-8859-1"?>
<!-- Generator: Adobe Illustrator 19.0.0, SVG Export Plug-In . SVG Version: 6.00 Build 0)  -->
<svg version="1.1" id="Layer_1" xmlns="http://www.w3.org/2000/svg" xmlns:xlink="http://www.w3.org/1999/xlink" x="0px" y="0px"
	 viewBox="0 0 512 512" style="enable-background:new 0 0 512 512;" xml:space="preserve">
<path style="fill:#46B8BE;" d="M265,181.65c13.333,24.063,0,21.889,0,49.5c0,36.438,8,95.563,8,132
	c0,24.196-5.693,48.882-10.288,64.862c-1.657,5.764-9.768,5.764-11.425,0C246.693,412.032,241,387.347,241,363.15
	c0-36.438,8-95.563,8-132c0-27.611-13.333-25.438,0-49.5H265z"/>
<g>
	<path style="fill:#4691BE;" d="M271.989,381.65H242.01c0.566,5.473,1.347,10.834,2.248,16h25.483
		C270.643,392.484,271.423,387.123,271.989,381.65z"/>
	<path style="fill:#4691BE;" d="M243.325,317.65c-0.427,5.446-0.821,10.802-1.16,16h29.67c-0.339-5.198-0.733-10.554-1.16-16
		H243.325z"/>
	<path style="fill:#4691BE;" d="M241,363.15c0,0.833,0.057,1.666,0.07,2.5h31.86c0.013-0.834,0.07-1.667,0.07-2.5
		c0-4.211-0.117-8.753-0.306-13.5h-31.389C241.117,354.397,241,358.939,241,363.15z"/>
	<path style="fill:#4691BE;" d="M265.617,221.65h-17.233c0.374,2.74,0.617,5.846,0.617,9.5c0,2.089-0.033,4.271-0.083,6.5h16.165
		c-0.049-2.229-0.083-4.411-0.083-6.5C265,227.496,265.243,224.391,265.617,221.65z"/>
	<path style="fill:#4691BE;" d="M245.954,285.65c-0.436,5.313-0.883,10.658-1.329,16h24.75c-0.446-5.342-0.893-10.687-1.329-16
		H245.954z"/>
	<path style="fill:#4691BE;" d="M248.266,253.65c-0.289,5.154-0.652,10.521-1.056,16h19.58c-0.404-5.479-0.767-10.846-1.056-16
		H248.266z"/>
</g>
<ellipse style="fill:#46D7A5;" cx="256" cy="147.999" rx="24" ry="36"/>
<ellipse style="fill:#9F8076;" cx="256" cy="95.999" rx="24" ry="16"/>
<g>
	<path style="fill:#F0EBE1;" d="M192,136c-37.07,5.853-114,2-144,8c-25.795,5.159-40,26.667-40,32s59.333,24,88,24s136-32,136-32
		v-16C232,152,217.333,132,192,136z"/>
	<path style="fill:#F0EBE1;" d="M128,216c-27.333,7.333-81.024,25.096-96,48c-11.333,17.333,3.286,24,8,24c13.333,0,94.667,0,120-8
		s54.333-9.674,85-49.007l-1-51L232,168C232,168,155.333,208.667,128,216z"/>
	<path style="fill:#F0EBE1;" d="M504,176c0-5.333-14.205-26.841-40-32c-30-6-106.93-2.147-144-8c-25.333-4-40,16-40,16v16
		c0,0,107.333,32,136,32S504,181.333,504,176z"/>
	<path style="fill:#F0EBE1;" d="M352,280c25.333,8,106.667,8,120,8c4.714,0,19.333-6.667,8-24c-14.976-22.904-68.667-40.667-96-48
		s-104-48-104-48l-11,13.993L262,232C292.667,271.333,326.667,272,352,280z"/>
</g>
<path d="M465.569,136.155c-15.9-3.18-43.082-3.689-71.859-4.229c-26.9-0.504-54.716-1.025-72.462-3.828
	c-14.771-2.333-26.434,2.114-34.535,7.313c-0.139-0.664-0.29-1.321-0.451-1.971l22.176-14.784c2.226-1.483,3.563-3.981,3.563-6.656
	V84.944l11.578-5.789c3.952-1.976,5.554-6.781,3.578-10.733c-1.975-3.95-6.78-5.553-10.733-3.577l-16,8
	c-2.71,1.355-4.422,4.125-4.422,7.155v27.719L279.9,118.453c-0.954-1.462-1.982-2.829-3.072-4.101
	C283.699,109.983,288,103.439,288,96c0-13.458-14.056-24-32-24s-32,10.542-32,24c0,7.439,4.301,13.983,11.174,18.353
	c-1.09,1.271-2.118,2.639-3.072,4.101L216,107.719V80c0-3.03-1.712-5.8-4.422-7.155l-16-8c-3.953-1.976-8.758-0.374-10.733,3.577
	c-1.976,3.952-0.374,8.758,3.578,10.733L200,84.944V112c0,2.675,1.337,5.173,3.563,6.656l22.176,14.784
	c-0.161,0.65-0.312,1.309-0.451,1.974c-8.102-5.199-19.766-9.647-34.535-7.316c-17.746,2.803-45.562,3.324-72.462,3.828
	c-28.778,0.54-55.959,1.05-71.859,4.229C18.082,141.825,0,165.508,0,176c0,6.736,6.928,10.176,14.646,13.387
	c6.318,2.628,14.976,5.574,24.378,8.298C61.33,204.144,82.629,208,96,208c11.404,0,34.003-4.638,57.688-10.401
	c-11.099,4.907-21.052,8.875-27.761,10.675c-24.448,6.559-83.193,24.691-100.623,51.349c-7.653,11.704-5.97,20.243-3.21,25.345
	c3.876,7.166,12.119,11.033,17.906,11.033c35.815,0,99.344-1.088,122.409-8.371c3.875-1.225,7.681-2.26,11.71-3.355
	c20.213-5.499,41.062-11.188,65.578-39.334c-0.633,15.185-2.168,33-3.667,50.372c-1.981,22.948-4.03,46.678-4.03,64.688
	c0,40.386,15.879,81.211,16.556,82.929c1.204,3.06,4.157,5.071,7.444,5.071c3.287,0,6.241-2.012,7.444-5.071
	C264.12,441.212,280,400.387,280,360.001c0-18.011-2.048-41.74-4.03-64.688c-1.5-17.372-3.035-35.188-3.667-50.372
	c24.517,28.146,45.365,33.835,65.578,39.334c4.029,1.096,7.834,2.131,11.71,3.355c23.065,7.283,86.594,8.371,122.409,8.371
	c5.787,0,14.029-3.867,17.906-11.033c2.76-5.102,4.443-13.641-3.21-25.345c-17.43-26.657-76.175-44.79-100.623-51.349
	c-6.707-1.8-16.659-5.767-27.758-10.675C382,203.363,404.597,208,416.001,208c13.371,0,34.67-3.856,56.975-10.315
	c9.402-2.724,18.06-5.67,24.378-8.298C505.072,186.176,512,182.737,512,176C512,165.508,493.918,141.825,465.569,136.155z M96,192
	c-22.97,0-65.096-12.488-78.346-18.696c3.985-6.255,14.702-18.017,31.915-21.459c14.495-2.899,42.215-3.419,69.021-3.922
	c27.443-0.515,55.821-1.047,74.657-4.021c12.916-2.04,22.414,3.637,27.663,8.098H192c-0.527,0-1.052,0.052-1.569,0.155l-40,8
	c-4.333,0.866-7.142,5.081-6.276,9.414c0.761,3.803,4.101,6.433,7.836,6.433c0.52,0,1.048-0.052,1.577-0.157L192.791,168H203.1
	C166.405,178.278,113.476,192,96,192z M192.421,261.468c-7.55,3.297-14.949,5.313-22.502,7.367
	c-4.004,1.089-8.146,2.216-12.329,3.536c-15.116,4.773-59.022,7.625-117.463,7.629c-0.857-0.128-3.25-1.123-4.038-2.799
	c-0.84-1.789,0.109-5.005,2.606-8.823c11.786-18.024,56.59-35.318,91.377-44.651c24.603-6.601,85.567-38.113,101.765-46.601
	c1.734,2.729,3.712,5.153,5.896,7.209c-0.443,0.132-0.883,0.296-1.311,0.51l-16,8c-1.806,0.903-3.204,2.456-3.913,4.347l-24,64
	C192.475,261.282,192.452,261.376,192.421,261.468z M233.691,227.081c-6.62,8.49-12.869,15.037-18.876,20.196l15.573-41.527
	l3.876-1.938c0.377,3.046,1.269,5.97,2.377,9.182c1.054,3.053,2.199,6.385,2.843,11.032
	C237.285,224.169,235.153,225.206,233.691,227.081z M256,413.63c-3.952-14.7-8-34.444-8-53.63c0-17.322,2.019-40.702,3.97-63.312
	C253.951,273.74,256,250.01,256,232c0-11.962-2.448-19.052-4.235-24.229c-1.942-5.625-2.821-8.188,1.109-15.976
	c1.027,0.132,2.069,0.204,3.125,0.204s2.098-0.072,3.125-0.204c3.93,7.787,3.051,10.351,1.109,15.976
	c-1.787,5.177-4.235,12.267-4.235,24.229c0,18.011,2.048,41.74,4.03,64.688c1.952,22.609,3.97,45.989,3.97,63.312
	C264,379.186,259.952,398.93,256,413.63z M256,176c-7.568,0-16-11.499-16-28s8.432-28,16-28s16,11.499,16,28S263.568,176,256,176z
	 M256,104c-9.767,0-16-4.738-16-8s6.233-8,16-8s16,4.738,16,8S265.767,104,256,104z M278.309,227.081
	c-1.462-1.875-3.594-2.913-5.793-3.057c0.644-4.646,1.789-7.979,2.843-11.031c1.109-3.212,2-6.136,2.377-9.182l3.876,1.938
	l15.573,41.527C291.178,242.118,284.929,235.571,278.309,227.081z M381.927,223.727c34.787,9.333,79.591,26.627,91.377,44.651
	c2.497,3.818,3.446,7.034,2.606,8.823c-0.787,1.676-3.18,2.671-4.038,2.799c-58.441-0.004-102.348-2.855-117.463-7.629
	c-4.183-1.32-8.324-2.447-12.329-3.536c-7.553-2.055-14.952-4.07-22.502-7.367c-0.031-0.092-0.054-0.186-0.088-0.276l-24-64
	c-0.709-1.891-2.107-3.443-3.913-4.347l-16-8c-0.428-0.214-0.868-0.378-1.311-0.51c2.184-2.056,4.162-4.479,5.896-7.209
	C296.36,185.613,357.325,217.126,381.927,223.727z M416,192c-17.476,0-70.405-13.722-107.101-24h10.309l39.223,7.845
	c0.53,0.105,1.057,0.157,1.577,0.157c3.735-0.001,7.076-2.63,7.836-6.433c0.866-4.333-1.943-8.548-6.276-9.414l-40-8
	c-0.517-0.104-1.042-0.155-1.569-0.155h-28.913c5.239-4.447,14.747-10.138,27.665-8.098c18.836,2.974,47.214,3.506,74.657,4.021
	c26.807,0.503,54.526,1.022,69.021,3.922c17.213,3.442,27.929,15.204,31.915,21.459C481.096,179.512,438.97,192,416,192z"/>
<g>
</g>
<g>
</g>
<g>
</g>
<g>
</g>
<g>
</g>
<g>
</g>
<g>
</g>
<g>
</g>
<g>
</g>
<g>
</g>
<g>
</g>
<g>
</g>
<g>
</g>
<g>
</g>
<g>
</g>
</svg>
