<?xml version="1.0" encoding="iso-8859-1"?>
<!-- Generator: Adobe Illustrator 19.0.0, SVG Export Plug-In . SVG Version: 6.00 Build 0)  -->
<svg version="1.1" id="Layer_1" xmlns="http://www.w3.org/2000/svg" xmlns:xlink="http://www.w3.org/1999/xlink" x="0px" y="0px"
	 viewBox="0 0 512 512" style="enable-background:new 0 0 512 512;" xml:space="preserve">
<g>
	
		<rect x="200.357" y="31.235" transform="matrix(-0.5547 -0.8321 0.8321 -0.5547 303.5159 259.6678)" style="fill:#FFDB2D;" width="41.776" height="34.756"/>
	<rect x="238.622" y="316.644" style="fill:#FFDB2D;" width="34.754" height="173.771"/>
</g>
<path style="fill:#B7E4F8;" d="M267.658,175.771c-2.678,0.824-5.321,1.636-7.944,2.442
	c-81.787-33.749-178.474-72.907-194.936-76.342C35.752,95.81,7.199,114.504,1.14,143.536c-6.058,29.032,12.633,57.58,41.664,63.64
	l0,0c10.185,2.125,53.959,3.997,106.802,5.535c-41.974,13.519-66.536,22.115-73.322,25.675
	c-26.264,13.777-36.424,46.352-22.648,72.615c6.674,12.724,17.902,22.086,31.617,26.365c5.286,1.649,10.695,2.465,16.077,2.465
	c8.585,0,17.1-2.079,24.919-6.18c11.293-5.922,62.425-44.708,151.978-115.277l4.415-3.479v-43.727L267.658,175.771z"/>
<path style="fill:#93D6F4;" d="M510.86,143.536c-6.059-29.033-34.611-47.72-63.64-41.666
	c-16.461,3.436-113.148,42.595-194.934,76.342c-2.624-0.806-5.265-1.618-7.945-2.442l-14.987-4.604v43.727l4.415,3.479
	c89.553,70.57,140.685,109.355,151.978,115.276c7.82,4.102,16.334,6.182,24.92,6.182c5.382,0,10.793-0.817,16.077-2.465
	c13.715-4.277,24.944-13.64,31.617-26.363c13.777-26.265,3.617-58.84-22.648-72.617c-6.786-3.56-31.347-12.156-73.322-25.675
	c52.844-1.538,96.618-3.411,106.802-5.535l0,0C498.227,201.115,516.918,172.568,510.86,143.536z"/>
<path style="fill:#60DD4D;" d="M316.206,100.728c0-28.745-23.386-52.131-52.131-52.131H248.63
	c-27.368,0-50.501,21.037-52.667,47.892c-1.165,14.457,3.814,28.871,13.661,39.546c1.269,1.375,2.607,2.67,4.001,3.891
	c-6.133,8.547-9.758,19.011-9.758,30.31v99.362c0,27.367,21.037,50.5,47.891,52.667c1.386,0.112,2.771,0.169,4.152,0.169
	c13.034,0,25.742-4.926,35.394-13.83c10.693-9.866,16.825-23.824,16.825-38.299V170.236c0-11.296-3.623-21.756-9.752-30.303
	C309.294,130.371,316.206,116.346,316.206,100.728z"/>
<rect x="273.387" y="27.716" transform="matrix(-0.8321 -0.5547 0.5547 -0.8321 505.7405 250.3271)" style="fill:#FFAE33;" width="34.756" height="41.776"/>
<path style="fill:#00C47A;" d="M316.206,100.728c0-28.745-23.386-52.131-52.131-52.131h-8.073v273.833
	c13.003-0.023,25.675-4.943,35.304-13.826c10.693-9.866,16.825-23.824,16.825-38.299V170.235c0-11.296-3.623-21.756-9.752-30.303
	C309.294,130.371,316.206,116.346,316.206,100.728z"/>
<g>
</g>
<g>
</g>
<g>
</g>
<g>
</g>
<g>
</g>
<g>
</g>
<g>
</g>
<g>
</g>
<g>
</g>
<g>
</g>
<g>
</g>
<g>
</g>
<g>
</g>
<g>
</g>
<g>
</g>
</svg>
