<?xml version="1.0" encoding="iso-8859-1"?>
<!-- Generator: Adobe Illustrator 19.0.0, SVG Export Plug-In . SVG Version: 6.00 Build 0)  -->
<svg version="1.1" id="Layer_1" xmlns="http://www.w3.org/2000/svg" xmlns:xlink="http://www.w3.org/1999/xlink" x="0px" y="0px"
	 viewBox="0 0 512 512" style="enable-background:new 0 0 512 512;" xml:space="preserve">
<g>
	<g>
		<path d="M475.447,71.099c-45.233-7.971-122.668,28.583-159.684,55.892c4.185-8.733,6.515-18.48,6.515-28.68
			c0-36.576-29.757-66.333-66.333-66.333c-36.576,0-66.333,29.757-66.333,66.333c0,10.198,2.33,19.946,6.516,28.681
			C158.646,99.339,81.387,63.171,36.442,71.099c-41.402,7.3-69.341,66.939,41.624,107.328c7.573,2.756,15.512,5.304,23.59,7.612
			c-15.286,6.155-27.522,13.035-36.43,20.504c-32.066,26.889-17.736,66.323,24.117,66.323c0.008,0,0.017,0,0.025,0
			c33.348-0.012,81.233-21.902,108.868-41.032c4.548,21.5,20.841,38.703,41.825,44.579v187.725c0,8.772,7.112,15.884,15.884,15.884
			c8.772,0,15.884-7.112,15.884-15.884V276.413c20.984-5.876,37.277-23.08,41.825-44.579c27.635,19.131,75.518,41.02,108.868,41.032
			c0.01,0,0.016,0,0.025,0c46.48,0,68.907-54.124-12.312-86.828C548.807,146.446,519.483,78.863,475.447,71.099z M87.78,241.069
			c-9.709-0.362-10.629-2.544-3.335-9.144c19.824-17.94,74.07-32.787,104.548-32.874C165.217,218.891,114.132,242.06,87.78,241.069z
			 M42.844,124.802c-16.753-13.594-13.72-23.385,8.4-23.044c42.076,0.698,118.809,38.875,142.097,64.77
			C158.994,171.375,75.637,151.413,42.844,124.802z M229.115,192.707c0.235-1.693,0.169,0.777,0.169-33.613
			c16.673,7.291,36.228,7.477,53.322,0c0,34.39-0.066,31.92,0.17,33.616C265.288,197.625,246.627,197.629,229.115,192.707z
			 M427.446,231.925c7.293,6.6,6.376,8.782-3.335,9.144c-26.691,1.007-77.809-22.487-101.214-42.018
			C353.937,199.141,407.919,214.255,427.446,231.925z M469.046,124.802c-32.707,26.539-116.032,46.582-150.497,41.727
			c23.207-25.802,99.88-64.069,142.097-64.77C482.451,101.407,486.042,111.012,469.046,124.802z"/>
	</g>
</g>
<g>
</g>
<g>
</g>
<g>
</g>
<g>
</g>
<g>
</g>
<g>
</g>
<g>
</g>
<g>
</g>
<g>
</g>
<g>
</g>
<g>
</g>
<g>
</g>
<g>
</g>
<g>
</g>
<g>
</g>
</svg>
