<?xml version="1.0" encoding="iso-8859-1"?>
<!-- Generator: Adobe Illustrator 19.0.0, SVG Export Plug-In . SVG Version: 6.00 Build 0)  -->
<svg xmlns="http://www.w3.org/2000/svg" xmlns:xlink="http://www.w3.org/1999/xlink" version="1.1" id="Layer_1" x="0px" y="0px" viewBox="0 0 421.246 421.246" style="enable-background:new 0 0 421.246 421.246;" xml:space="preserve" width="512" height="512">
<g>
	<g>
		<path style="fill:#77BC1F;" d="M210.623,95.301c-14.606,0-26.448,11.842-26.448,26.448v251.813    c0,14.608,11.842,26.448,26.448,26.448s26.448-11.841,26.448-26.448V121.75C237.071,107.143,225.23,95.301,210.623,95.301z"/>
		<path style="opacity:0.2;fill:#222222;" d="M184.175,121.75v251.813c0,14.608,11.842,26.448,26.448,26.448V95.301    C196.017,95.301,184.175,107.143,184.175,121.75z"/>
		<rect x="184.175" y="306.623" style="fill:#218649;" width="52.896" height="15"/>
		<rect x="184.175" y="329.923" style="fill:#218649;" width="52.896" height="15"/>
		<rect x="184.175" y="353.223" style="fill:#218649;" width="52.896" height="15"/>
		<path style="opacity:0.5;fill:#218649;" d="M210.623,95.301c-14.606,0-26.448,11.842-26.448,26.448v76.03    c7.048,6.228,16.304,10.015,26.448,10.015s19.4-3.787,26.448-10.015v-76.03C237.071,107.143,225.23,95.301,210.623,95.301z"/>
	</g>
	<g>
		<circle style="fill:#77BC1F;" cx="210.623" cy="78.365" r="57.131"/>
		<path style="opacity:0.2;fill:#222222;" d="M210.623,21.235c-31.553,0-57.131,25.579-57.131,57.13    c0,31.552,25.578,57.13,57.131,57.13V21.235z"/>
		<path style="opacity:0.5;fill:#218649;" d="M210.623,71.155c-22.071,0-39.967,17.894-39.967,39.967v8.052    c10.303,10.092,24.404,16.322,39.967,16.322s29.664-6.23,39.967-16.322v-8.052C250.59,89.049,232.696,71.155,210.623,71.155z"/>
		<circle style="fill:#333E48;" cx="257.818" cy="54.473" r="9.587"/>
		<circle style="fill:#333E48;" cx="163.429" cy="54.473" r="9.587"/>
	</g>
	<g>
		<path style="fill:#218649;" d="M210.623,84.188c-17.861,0-32.342,14.479-32.342,32.343v45.888    c0,17.863,14.48,32.343,32.342,32.343s32.342-14.48,32.342-32.343v-45.888C242.965,98.668,228.485,84.188,210.623,84.188z"/>
		<path style="opacity:0.3;fill:#222222;" d="M210.623,84.188c-17.861,0-32.342,14.479-32.342,32.343v45.888    c0,17.863,14.48,32.343,32.342,32.343V84.188z"/>
	</g>
	<g>
		<path style="fill:#229CD2;" d="M193.19,160.164L49.721,203.002c-13.42,4.006-27.546-3.624-31.553-17.042    c-4.006-13.419,3.623-27.545,17.043-31.552c1.864-0.557,3.877-0.892,5.74-1.015l149.462-8.94c4.428-0.264,8.23,3.11,8.496,7.537    C199.136,155.785,196.684,159.121,193.19,160.164z"/>
		<path style="opacity:0.2;fill:#222222;" d="M18.168,185.96c4.007,13.419,18.133,21.049,31.553,17.042l143.469-42.838    c3.494-1.043,5.946-4.379,5.72-8.174L18.168,185.96z"/>
	</g>
	<g>
		<path style="fill:#67CFE3;" d="M190.483,140.638L23.734,130.143c-13.958-0.879-24.562-12.907-23.683-26.865    c0.878-13.959,12.906-24.562,26.865-23.683c1.728,0.109,3.534,0.429,5.145,0.862l161.06,44.447    c4.27,1.179,6.775,5.594,5.598,9.864C197.69,138.493,194.193,140.874,190.483,140.638z"/>
		<path style="opacity:0.2;fill:#222222;" d="M0.051,103.278c-0.879,13.958,9.725,25.986,23.683,26.865l166.749,10.496    c3.71,0.235,7.207-2.145,8.235-5.871L0.051,103.278z"/>
	</g>
	<g>
		<path style="fill:#229CD2;" d="M228.057,160.164l143.469,42.838c13.42,4.006,27.546-3.624,31.553-17.042    c4.006-13.419-3.623-27.545-17.043-31.552c-1.864-0.557-3.877-0.892-5.74-1.015l-149.462-8.94c-4.428-0.264-8.23,3.11-8.496,7.537    C222.111,155.785,224.563,159.121,228.057,160.164z"/>
		<path style="opacity:0.2;fill:#222222;" d="M403.078,185.96c-4.007,13.419-18.133,21.049-31.553,17.042l-143.469-42.838    c-3.494-1.043-5.946-4.379-5.72-8.174L403.078,185.96z"/>
	</g>
	<g>
		<path style="fill:#67CFE3;" d="M230.764,140.638l166.749-10.496c13.958-0.879,24.562-12.907,23.683-26.865    c-0.878-13.959-12.906-24.562-26.865-23.683c-1.728,0.109-3.534,0.429-5.145,0.862l-161.06,44.447    c-4.27,1.179-6.775,5.594-5.598,9.864C223.557,138.493,227.054,140.874,230.764,140.638z"/>
		<path style="opacity:0.2;fill:#222222;" d="M421.196,103.278c0.879,13.958-9.725,25.986-23.683,26.865l-166.749,10.496    c-3.71,0.235-7.207-2.145-8.235-5.871L421.196,103.278z"/>
	</g>
</g>















</svg>
