<?xml version="1.0" encoding="iso-8859-1"?>
<!-- Generator: Adobe Illustrator 19.0.0, SVG Export Plug-In . SVG Version: 6.00 Build 0)  -->
<svg version="1.1" id="Layer_1" xmlns="http://www.w3.org/2000/svg" xmlns:xlink="http://www.w3.org/1999/xlink" x="0px" y="0px"
	 viewBox="0 0 512 512" style="enable-background:new 0 0 512 512;" xml:space="preserve">
<path style="fill:#F3B73F;" d="M509.458,97.021c-21.388-58.747-137.829-9.177-189.073,26.631
	c-20.312,14.193-45.798,36.288-34.347,58.2c-5.892,10.577-1.834,21.901,5.916,31.138c27.25,32.475,150.012,92.801,170.414,36.747
	c11.046-30.355-22.138-51.576-52.086-63.714C457.118,172.657,526.128,142.823,509.458,97.021z"/>
<path style="fill:#7EC60F;" d="M256.001,480.179c-8.778,0-15.895-7.117-15.895-15.895V262.726c0-8.778,7.117-15.895,15.895-15.895
	s15.895,7.117,15.895,15.895v201.557C271.896,473.062,264.779,480.179,256.001,480.179z"/>
<path style="fill:#77BC1F;" d="M256.001,246.831v233.348c8.778,0,15.895-7.117,15.895-15.895V262.726
	C271.896,253.948,264.779,246.831,256.001,246.831z"/>
<path style="fill:#FFC843;" d="M225.962,181.852c11.453-21.911-14.039-44.008-34.347-58.2
	C140.366,87.841,23.928,38.277,2.542,97.021c-16.666,45.79,52.304,75.625,99.176,89.001c-29.936,12.133-63.135,33.353-52.086,63.714
	c20.386,56.01,143.121-4.22,170.414-36.747C227.805,203.743,231.849,192.422,225.962,181.852z"/>
<path style="fill:#95D600;" d="M256.001,278.619c-32.55,0-59.031-26.481-59.031-59.031v-95.15c0-16.001,21.134-21.948,29.471-8.27
	c13.501,22.164,45.65,22.113,59.121,0c8.325-13.665,29.471-7.748,29.471,8.27v95.15C315.031,252.139,288.55,278.619,256.001,278.619
	z"/>
<g>
	<path style="fill:#7EC60F;" d="M285.56,116.169c-6.737,11.061-18.148,16.601-29.561,16.604v145.846
		c32.55,0,59.031-26.481,59.031-59.031v-95.15C315.031,108.422,293.885,102.505,285.56,116.169z"/>
	<path style="fill:#7EC60F;" d="M199.29,132.709c-6.323-10.362-9.669-22.298-9.669-34.508c0-36.601,29.778-66.379,66.379-66.379
		S322.38,61.599,322.38,98.2c0,12.21-3.345,24.147-9.675,34.519C286.809,175.225,225.137,175.135,199.29,132.709z"/>
</g>
<path style="fill:#77BC1F;" d="M256.001,31.821v132.742c21.878,0.005,43.761-10.598,56.704-31.844
	c6.329-10.372,9.675-22.308,9.675-34.519C322.379,61.599,292.602,31.821,256.001,31.821z"/>
<g>
</g>
<g>
</g>
<g>
</g>
<g>
</g>
<g>
</g>
<g>
</g>
<g>
</g>
<g>
</g>
<g>
</g>
<g>
</g>
<g>
</g>
<g>
</g>
<g>
</g>
<g>
</g>
<g>
</g>
</svg>
