<svg id="svg2" xmlns="http://www.w3.org/2000/svg" viewBox="0 0 216.77 566.93"><defs><style>.cls-1{fill:#7ee03c;}.cls-2{fill:#cfa;}.cls-3{fill:#dbe2e3;}.cls-4{fill:#71c837;}.cls-5{fill:#aade87;}.cls-6{fill:#bec8b7;}.cls-7{fill:#8a916f;}</style></defs><title>trees</title><g id="g5426"><circle id="circle5288" class="cls-1" cx="97.29" cy="56.14" r="44.34"/><path id="path5303" class="cls-2" d="M133.16,64a37.25,37.25,0,1,0-73.62-8,37.9,37.9,0,0,0,.9,7.94,37.22,37.22,0,0,1,72.72.09Z"/><circle id="path5284" class="cls-1" cx="113.97" cy="277.3" r="102.8"/><circle id="circle5286" class="cls-1" cx="124.13" cy="144.85" r="73.56"/><path id="path4475-4" class="cls-3" d="M101.53,93.53s11.16-30.38,12.36-46.91c.44-6.07,8.72-28.56,8.72-28.56s-9.45,18.28-10.35,27.44c-.8,8.17-5.58,18.82-5.58,18.82s-6.58-24.48-14.83-39c-4.43-7.79-8.17-13.17-8.17-13.17s14.61,31,15.92,38.5,7.59,14.53-2.11,41.14c-.49,1.35,4,1.78,4,1.78Z"/><path id="path5305" class="cls-4" d="M64,136.41a66.83,66.83,0,1,0,130.39.16A66.74,66.74,0,0,1,64,136.41Z"/><path id="path5301" class="cls-5" d="M182.61,172.3A62.19,62.19,0,1,0,69.18,123.09a62.5,62.5,0,0,0-2.49,13.13A62.13,62.13,0,0,1,182.61,172.3Z"/><circle id="circle5290" class="cls-1" cx="78.53" cy="189.02" r="73.56"/><path id="circle5296" class="cls-4" d="M13.66,255.13a102.83,102.83,0,1,0,200.62.24,102.68,102.68,0,0,1-200.62-.24Z"/><path id="path5292" class="cls-3" d="M89.85,544c1.06-12.52,7.07-50.3,5.27-99.21-1.51-41-3.59-81.1-3.59-81.1a15.79,15.79,0,0,0,12.33-1.5s3.13,37.7,5.36,49.78,2.38,15.65,3.54,31.21,16.09-69.58,18.21-82.28a135.19,135.19,0,0,1,4.55-19.74,3.81,3.81,0,0,0,5,1.51c-6.45,20.45-18.82,76.5-19.72,93.78s-1.77,30.33-2.17,57.09a340.54,340.54,0,0,0,2.84,45.81l12.66,21.09-24.2-6.32L90.44,565.92l3.22-12.08-23.59-.61Z"/><path id="path5299" class="cls-5" d="M105.14,182a45.76,45.76,0,1,0-89.27-.11,45.69,45.69,0,0,1,89.27.11Z"/><path id="path5307" class="cls-4" d="M11.27,173.94a73.4,73.4,0,0,0-1,15.74A72.66,72.66,0,1,0,152.9,167.09a72.57,72.57,0,0,1-141.62,6.85Z"/><path id="path4516-2" class="cls-4" d="M91.77,340.77c-4.83,5.14-10.15,2.45-15.3-2.38s-8.17-10-3.34-15.11,12-.32,20.83-3.53c-3.34,8.09,2.64,15.87-2.19,21Z"/><path id="path4518-8" class="cls-4" d="M70.83,321.84c.29,5.7-4.27,7.29-10,7.58s-10.39-.82-10.68-6.53,6.51-7.14,9.63-14.12c2.84,6.49,10.72,7.37,11,13.07Z"/><path id="path4520-8" class="cls-4" d="M85.56,316.19c-2.12,5-6.71,4.51-11.75,2.38s-8.62-5-6.49-10.08,8.59-3.44,14.19-8.16c-.26,6.78,6.18,10.82,4,15.86Z"/><path id="path5330" class="cls-1" d="M200.7,232.83c-6.88,1.56-9.78-3.65-11.34-10.53s-1.19-12.84,5.7-14.4,10.08,6.43,19.23,8.75c-7.3,4.83-6.7,14.62-13.59,16.18Z"/><path id="path5332" class="cls-1" d="M194,205.42c-2.95,4.89-7.61,3.66-12.5.71s-8.15-6.51-5.19-11.4,9.4-2.27,15.88-6.3c-1.28,7,4.77,12.11,1.81,17Z"/><path id="path5334" class="cls-1" d="M209.33,209c-4.59,3-8.09,0-11.08-4.61s-4.31-9,.27-12,9,2,16.33,1.19c-4,5.47-.94,12.42-5.52,15.41Z"/><g id="g5342"><path id="path5336" class="cls-2" d="M104.8,14.68c.46,4.94-3.44,6.49-8.38,7s-9.07-.33-9.53-5.28,5.4-6.45,7.85-12.62c2.71,5.53,9.59,6,10.06,11Z"/><path id="path5338" class="cls-2" d="M85.06,16.9c3.14,2.5,1.86,5.64-.64,8.78s-5.28,5.1-8.42,2.59-.73-6.76-3-11.65c4.74,1.52,8.88-2.23,12,.28Z"/><path id="path5340" class="cls-2" d="M89,6.5c1.66,3.46-.75,5.64-4.22,7.3s-6.67,2.2-8.34-1.27S78.58,6.39,78.7,1.25C82.15,4.54,87.28,3,89,6.5Z"/></g><g id="g5347"><path id="path5349" class="cls-4" d="M40.78,217.09c-4.3,2.49-7.34-.4-9.83-4.69s-3.5-8.37.79-10.86,8.12,2.2,14.76,1.83c-3.89,4.78-1.43,11.22-5.72,13.72Z"/><path id="path5351" class="cls-4" d="M30.48,200.11c-.95,3.9-4.34,4-8.24,3.09s-6.84-2.65-5.89-6.55,5.84-3.5,9.34-7.57c.61,4.94,5.75,7.12,4.79,11Z"/><path id="path5353" class="cls-4" d="M41.55,199.27c-2.45,3-5.43,1.68-8.4-.76s-4.79-5.14-2.34-8.11,6.49-.58,11.21-2.64c-1.54,4.52,2,8.54-.47,11.51Z"/></g><path id="path4469-3" class="cls-3" d="M0,147.75s26.46,14.79,34.79,29.36,8.51,1.41,5.32-3.22S20.42,155.85,0,147.75Z"/><path id="path5385" class="cls-6" d="M135.52,341.13A135.19,135.19,0,0,0,131,360.87c-2,12-15.42,88.56-17.89,83.92a34.56,34.56,0,0,0-.45,6.25c.36,5.67,1.46,66.68,1.41,77.62s-5.43,14.81-3.15,23.66c.19.74.34,1.45.47,2.15l22.74,5.94-12.66-21.09a340.54,340.54,0,0,1-2.84-45.81c.4-26.76,1.28-39.8,2.17-57.09s13.27-73.33,19.72-93.79a3.8,3.8,0,0,1-5-1.5Zm-31.66,21a15.83,15.83,0,0,1-12.33,1.49s.5,11.39,1.25,27.6c8.26.33,17.88,53.09,20.18,52.52-1.42-13.75-9.1-81.61-9.1-81.61Z"/><path id="path5398" class="cls-7" d="M95.13,426.42c1.91-2,2.29-2.29,4.33-2.45,1.42-.11,8.2-.54,6.27,2.5-1.09,1.71-8.47-.84-10.6-.05Z"/><path id="path5402" class="cls-7" d="M109.49,438.26c0,.46-12.44-.78-12.4-.56.5,2.91,9.55,3.91,12,3.79,3.77-.19-3-5,2.76-2"/><path id="path5404" class="cls-7" d="M104.93,458.64c4.64-4.95,18,1.74,7.53,2.33C110.61,461.08,107.22,458.79,104.93,458.64Z"/><path id="path5406" class="cls-7" d="M98.94,463.36c3.59-1.14,18.57,1.74,5.69,1.74C101.59,465.1,103,469.46,98.94,463.36Z"/><path id="path5408" class="cls-7" d="M98.3,478.38c13.82-3.09,7.81,7.37,3.65,5.13C100.49,482.72,99.17,479.55,98.3,478.38Z"/><path id="path5410" class="cls-7" d="M107.41,491.32c8.4-7.25,12,7,5.15,5-3.79-1.1-2.49-5.75-7.65-4.33"/><path id="path5412" class="cls-7" d="M94.69,515c.7.51,16.06-2.29,16.07-2.29,1.41,1,3.75,6.21.13,6-5.79-.27-10.52-4-16.2-3.74Z"/><path id="path5418" class="cls-7" d="M106.65,69.1c-8.78-1.66-6.22,7.23.45,3.8C109.3,71.77,108.13,71.16,106.65,69.1Z"/><path id="path5422" class="cls-7" d="M103.81,448.73c4.12-4,14.64,1.9,6.19,1.9C107.94,450.63,105.78,449,103.81,448.73Z"/></g></svg>