<?xml version="1.0" encoding="utf-8"?>
<!-- Generator: Adobe Illustrator 22.1.0, SVG Export Plug-In . SVG Version: 6.00 Build 0)  -->
<svg version="1.1"
	 id="svg2" inkscape:version="0.91 r13725" sodipodi:docname="tree_14042015.svg" xmlns:cc="http://creativecommons.org/ns#" xmlns:dc="http://purl.org/dc/elements/1.1/" xmlns:inkscape="http://www.inkscape.org/namespaces/inkscape" xmlns:rdf="http://www.w3.org/1999/02/22-rdf-syntax-ns#" xmlns:sodipodi="http://sodipodi.sourceforge.net/DTD/sodipodi-0.dtd" xmlns:svg="http://www.w3.org/2000/svg"
	 xmlns="http://www.w3.org/2000/svg" xmlns:xlink="http://www.w3.org/1999/xlink" x="0px" y="0px" viewBox="0 0 518.2 711.7"
	 style="enable-background:new 0 0 518.2 711.7;" xml:space="preserve">
<style type="text/css">
	.st0{fill:url(#path3510_1_);}
	.st1{fill:#6B8E23;}
	.st2{opacity:0.1;enable-background:new    ;}
</style>
<defs>
	
	
		<inkscape:path-effect  cusp_linecap_type="round" effect="powerstroke" end_linecap_type="zerowidth" id="path-effect3471" interpolator_beta="0.2" interpolator_type="Linear" is_visible="true" linejoin_type="round" miter_limit="4" offset_points="0,-6.3287728" sort_points="true" start_linecap_type="zerowidth">
		</inkscape:path-effect>
	
		<inkscape:path-effect  cusp_linecap_type="round" effect="powerstroke" end_linecap_type="zerowidth" id="path-effect3467" interpolator_beta="0.2" interpolator_type="Linear" is_visible="true" linejoin_type="round" miter_limit="4" offset_points="0.04038775,6.6730584" sort_points="true" start_linecap_type="zerowidth">
		</inkscape:path-effect>
	
		<inkscape:path-effect  cusp_linecap_type="round" effect="powerstroke" end_linecap_type="zerowidth" id="path-effect3462" interpolator_beta="0.2" interpolator_type="Linear" is_visible="true" linejoin_type="round" miter_limit="4" offset_points="0.0060258543,6.5861937" sort_points="true" start_linecap_type="zerowidth">
		</inkscape:path-effect>
	
		<inkscape:path-effect  cusp_linecap_type="round" effect="powerstroke" end_linecap_type="zerowidth" id="path-effect3458" interpolator_beta="0.2" interpolator_type="Linear" is_visible="true" linejoin_type="round" miter_limit="4" offset_points="0,-8.9589956" sort_points="true" start_linecap_type="zerowidth">
		</inkscape:path-effect>
	
		<inkscape:path-effect  cusp_linecap_type="round" effect="powerstroke" end_linecap_type="zerowidth" id="path-effect3453" interpolator_beta="0.2" interpolator_type="Linear" is_visible="true" linejoin_type="round" miter_limit="4" offset_points="0.011615784,-13.082369" sort_points="true" start_linecap_type="zerowidth">
		</inkscape:path-effect>
	
		<inkscape:path-effect  cusp_linecap_type="round" effect="powerstroke" end_linecap_type="zerowidth" id="path-effect3449" interpolator_beta="0.2" interpolator_type="Linear" is_visible="true" linejoin_type="round" miter_limit="4" offset_points="0.011200777,-5.2100869" sort_points="true" start_linecap_type="zerowidth">
		</inkscape:path-effect>
	
		<inkscape:path-effect  cusp_linecap_type="round" effect="powerstroke" end_linecap_type="zerowidth" id="path-effect3445" interpolator_beta="0.2" interpolator_type="Linear" is_visible="true" linejoin_type="round" miter_limit="4" offset_points="0.00068360826,6.1559162" sort_points="true" start_linecap_type="zerowidth">
		</inkscape:path-effect>
	
		<inkscape:path-effect  cusp_linecap_type="round" effect="powerstroke" end_linecap_type="zerowidth" id="path-effect3441" interpolator_beta="0.2" interpolator_type="Linear" is_visible="true" linejoin_type="round" miter_limit="4" offset_points="0,-6.0348342" sort_points="true" start_linecap_type="zerowidth">
		</inkscape:path-effect>
	
		<inkscape:path-effect  cusp_linecap_type="round" effect="powerstroke" end_linecap_type="zerowidth" id="path-effect3437" interpolator_beta="0.2" interpolator_type="Linear" is_visible="true" linejoin_type="round" miter_limit="4" offset_points="0.025834462,4.2723829" sort_points="true" start_linecap_type="zerowidth">
		</inkscape:path-effect>
	
		<inkscape:path-effect  cusp_linecap_type="round" effect="powerstroke" end_linecap_type="zerowidth" id="path-effect3358" interpolator_beta="0.2" interpolator_type="Linear" is_visible="true" linejoin_type="round" miter_limit="4" offset_points="0.0070523716,16.71677" sort_points="true" start_linecap_type="zerowidth">
		</inkscape:path-effect>
	
		<inkscape:path-effect  cusp_linecap_type="round" effect="powerstroke" end_linecap_type="zerowidth" id="path-effect3354" interpolator_beta="0.2" interpolator_type="Linear" is_visible="true" linejoin_type="round" miter_limit="4" offset_points="0.0075598305,-13.000929" sort_points="true" start_linecap_type="zerowidth">
		</inkscape:path-effect>
	
		<inkscape:path-effect  cusp_linecap_type="round" effect="powerstroke" end_linecap_type="zerowidth" id="path-effect3350" interpolator_beta="0.2" interpolator_type="Linear" is_visible="true" linejoin_type="round" miter_limit="4" offset_points="0.0024066022,11.182025" sort_points="true" start_linecap_type="zerowidth">
		</inkscape:path-effect>
	
		<inkscape:path-effect  cusp_linecap_type="round" effect="powerstroke" end_linecap_type="zerowidth" id="path-effect3346" interpolator_beta="0.2" interpolator_type="Linear" is_visible="true" linejoin_type="round" miter_limit="4" offset_points="0.01626388,-13.184416" sort_points="true" start_linecap_type="zerowidth">
		</inkscape:path-effect>
	
		<inkscape:path-effect  cusp_linecap_type="round" effect="powerstroke" end_linecap_type="zerowidth" id="path-effect3338" interpolator_beta="0.2" interpolator_type="Linear" is_visible="true" linejoin_type="round" miter_limit="4" offset_points="0,40.657962" sort_points="true" start_linecap_type="zerowidth">
		</inkscape:path-effect>
</defs>
<sodipodi:namedview  bordercolor="#666666" borderopacity="1.0" id="base" inkscape:current-layer="g4362" inkscape:cx="372.04724" inkscape:cy="526.1811" inkscape:document-units="px" inkscape:pageopacity="0.0" inkscape:pageshadow="2" inkscape:window-height="968" inkscape:window-maximized="1" inkscape:window-width="1280" inkscape:window-x="-4" inkscape:window-y="-4" inkscape:zoom="0.72883651" pagecolor="#ffffff" showgrid="false" showguides="false">
	</sodipodi:namedview>
<g id="layer1" inkscape:groupmode="layer" inkscape:label="Camada 1">
	<g id="g4362">
		<g id="g4638">
			<path id="path3336" d="M170.1,28.5c-14.3,19.3-15.6,43.7-7,65.5c8.3,21,25.8,39.6,49,47.4c1,9.1,2.9,18.5,5.4,28.1
				c7.6,29.1,21.9,64,30.7,93.1c3.8,12.6,6.8,24.5,8.3,35.6c-8.1-5.3-16.6-9.3-25.1-12.5c-17.2-6.4-37.1-10.2-52.4-14.9
				c-16.2-4.9-30.7-11.4-41.4-24.5c-10.9-13.3-18.2-33.6-19-66.2c-0.7,32.4,5,53.8,15.4,68.9c9.4,13.6,22.4,21.8,36.8,28.1
				c-11.2,5.5-20.3,13.6-29.2,20c-5.8,4.1-11.8,7.8-18.8,10c-7,2.2-15,3-24.8,1.4c9.6,2.2,17.8,2,25.2,0.3c7.4-1.7,14-5,20.3-8.8
				c12.1-7.2,22.3-15.5,36.1-19.3c15.9,6.1,30.7,10,46.5,17.4c11.5,5.4,22,12.1,31.2,21.6c-0.5,6.3-1.7,11.9-3.8,16.7
				c-13.1,35-25.3,63.9-36.5,92.3c-2,5-3.9,9.9-5.7,14.9c-19.1-11-36.8-17.7-52.8-22.3c10.3-13.3,15.1-27.5,16.5-42.1
				c1.6-16.8-1.4-34.4-6.1-52.1c2.5,18.4,2.8,35.5-1,50.9c-3.7,15.2-11.4,28.3-24.7,39.3c-17.5-4.2-31.2-6.3-44-10.7
				c-7.2-2.5-13.6-5.6-19.3-10c-5.7-4.4-10.8-10.4-15.2-18.8C56,360.8,50.5,334.6,49.4,293c-1.1,41.2,2,68.5,9.3,87.5
				c3.7,9.6,8.5,17.2,14.5,23.5c6,6.3,13,11,20.8,14.9c5.2,2.7,11.1,5,17.2,7.3c-8.2,11.5-18.9,18-31.1,20.1
				c-13.5,2.4-28.7-0.7-42.9-8.5c13.1,9.1,28.4,14.5,43.5,13.7c14.6-0.8,29.1-7.4,40.5-21.8c8.3,2.9,16.8,5.7,25.4,9
				c17.2,6.6,35.7,15.2,55.6,29.6c-4.9,14.2-9.2,28.3-12.8,42.8c-7,27.9-11.2,57-11.4,90c-0.2,32.9,3.6,69.1,12.4,111.5l72-0.9
				C252,673.4,237.3,627.2,235,599c-2.4-28.3-1.3-53.5,2.4-78.6c3.6-24.5,9.8-49,17.7-76.3c12.9-5.9,26.3-8.7,40-9
				c15.4-0.3,31.2,2.6,47.1,7.6c32.7,10.3,64,29,91.5,44.6c-25.1-18.2-55.4-40.5-87.8-54.5c-0.5-0.2-1-0.4-1.5-0.6
				c9.1-1.4,17.7-3.7,25.4-7.1c13.6-6,24.2-15.5,31-30c-8.3,13.6-19.7,21.2-32.8,25.2c-13.1,4.1-28.5,4.7-45.1,3.7l0,0.4
				c-8.9-2.5-17.9-4.3-27.1-5.1c-11-1-22.3-0.5-33.8,1.9c3.6-11.9,7.2-23.4,11-35.9c22-13.3,41.6-19.7,59-23.6
				c10.9-2.5,20.9-3.9,30.4-5.5c9.3-1.6,18.1-3.3,26-6.4c3.4-1.3,6.5-2.9,9.5-4.7c10.3,8.5,19.9,13.1,29,14.6
				c9.3,1.5,17.7-0.2,25.5-3.9c15.6-7.4,29.3-23,42.9-37.5c-14.9,13.9-29.1,27.9-44.6,33.7c-7.4,2.8-14.9,3.5-22.6,1.6
				c-7.2-1.8-15-6-23.5-13.6c1.5-1.4,3-3,4.4-4.6c5.7-6.9,10-15.9,13.3-28c6.5-24.1,9.1-61.9,8.2-121.8
				c-0.9,60.2-5.4,97.3-13.3,120.3c-4,11.4-8.7,19-14,24.2c-5.2,5.1-11.2,7.9-18.1,9.7c-6.9,1.8-14.9,2.6-24.2,3.3
				c-6.7,0.5-14.2,1-22.3,1.8c5.8-7.4,9.8-15.9,12.5-24.8c5.2-17.3,5.8-36.8,4.9-55.5c-0.9,18.9-3.4,37.7-10.1,53.6
				c-5.1,11.9-12.3,21.8-22.8,28.8C310,349,296,352.6,280.8,359c1.2-4,2.4-8,3.7-12.3c4.3-15,3.7-30.8,0.9-45.9
				c-2.8-15.1-8-30.6-14.1-45.9c10.1-10.6,20.6-20.2,31.2-29.7c14-12.5,28-24.8,40.3-38.8c7.3-8.3,14-17.1,19.9-26.8
				c15.3,3.8,27.4,0.9,37-5.2c9.6-6.1,16.9-15.5,22.8-24.9c-7.4,8.5-15.6,16.3-25.1,20.6c-8.7,3.9-18.4,4.8-29.9,1
				c2.4-4.6,4.6-9.3,6.6-14.4c7.8-19.6,12.6-42.8,13.4-72c-2.5,29.1-9,51.6-18.1,69.9c-9.1,18.2-20.8,32.2-34,44.5
				c-13,12.1-27.5,22.6-42.7,34c-9.5,7.1-19.4,14.5-29.2,22.8c-10.7-24.8-22-47.7-30.4-71.2c-5-14-8.4-26.9-9.3-38.5
				c-0.9-11.5,0.7-21.9,6.1-30.7c5.4-9,14.8-16.8,30.2-22.7c15.4-5.8,36.2-9.4,64-10.1c-3.4-0.1-6.8-0.1-10.1-0.1
				c-22.8,0-40.9,2.2-55.2,6.3c-16.3,4.7-27.9,12-35.6,21.9c-7.7,10-11.2,22.1-11.6,35.6c0,1.5-0.1,3.1,0,4.6
				c-19.1-6.1-35.1-20.8-43.8-39C158.2,72.3,157.2,48.6,170.1,28.5z"/>
			
				<linearGradient id="path3510_1_" gradientUnits="userSpaceOnUse" x1="307.4082" y1="-93.2626" x2="378.7548" y2="279.935" gradientTransform="matrix(0.8 0 0 -0.8 -32.3041 537.4752)">
				<stop  offset="0" style="stop-color:#8B4513"/>
				<stop  offset="1" style="stop-color:#8B4513;stop-opacity:0"/>
			</linearGradient>
			<path id="path3510" class="st0" d="M170.1,28.5c-14.3,19.3-15.6,43.7-7,65.5c8.3,21,25.8,39.6,49,47.4c1,9.1,2.9,18.5,5.4,28.1
				c7.6,29.1,21.9,64,30.7,93.1c3.8,12.6,6.8,24.5,8.3,35.6c-8.1-5.3-16.6-9.3-25.1-12.5c-17.2-6.4-37.1-10.2-52.4-14.9
				c-16.2-4.9-30.7-11.4-41.4-24.5c-10.9-13.3-18.2-33.6-19-66.2c-0.7,32.4,5,53.8,15.4,68.9c9.4,13.6,22.4,21.8,36.8,28.1
				c-11.2,5.5-20.3,13.6-29.2,20c-5.8,4.1-11.8,7.8-18.8,10c-7,2.2-15,3-24.8,1.4c9.6,2.2,17.8,2,25.2,0.3c7.4-1.7,14-5,20.3-8.8
				c12.1-7.2,22.3-15.5,36.1-19.3c15.9,6.1,30.7,10,46.5,17.4c11.5,5.4,22,12.1,31.2,21.6c-0.5,6.3-1.7,11.9-3.8,16.7
				c-13.1,35-25.3,63.9-36.5,92.3c-2,5-3.9,9.9-5.7,14.9c-19.1-11-36.8-17.7-52.8-22.3c10.3-13.3,15.1-27.5,16.5-42.1
				c1.6-16.8-1.4-34.4-6.1-52.1c2.5,18.4,2.8,35.5-1,50.9c-3.7,15.2-11.4,28.3-24.7,39.3c-17.5-4.2-31.2-6.3-44-10.7
				c-7.2-2.5-13.6-5.6-19.3-10c-5.7-4.4-10.8-10.4-15.2-18.8C56,360.8,50.5,334.6,49.4,293c-1.1,41.2,2,68.5,9.3,87.5
				c3.7,9.6,8.5,17.2,14.5,23.5c6,6.3,13,11,20.8,14.9c5.2,2.7,11.1,5,17.2,7.3c-8.2,11.5-18.9,18-31.1,20.1
				c-13.5,2.4-28.7-0.7-42.9-8.5c13.1,9.1,28.4,14.5,43.5,13.7c14.6-0.8,29.1-7.4,40.5-21.8c8.3,2.9,16.8,5.7,25.4,9
				c17.2,6.6,35.7,15.2,55.6,29.6c-4.9,14.2-9.2,28.3-12.8,42.8c-7,27.9-11.2,57-11.4,90c-0.2,32.9,3.6,69.1,12.4,111.5l72-0.9
				C252,673.4,237.3,627.2,235,599c-2.4-28.3-1.3-53.5,2.4-78.6c3.6-24.5,9.8-49,17.7-76.3c12.9-5.9,26.3-8.7,40-9
				c15.4-0.3,31.2,2.6,47.1,7.6c32.7,10.3,64,29,91.5,44.6c-25.1-18.2-55.4-40.5-87.8-54.5c-0.5-0.2-1-0.4-1.5-0.6
				c9.1-1.4,17.7-3.7,25.4-7.1c13.6-6,24.2-15.5,31-30c-8.3,13.6-19.7,21.2-32.8,25.2c-13.1,4.1-28.5,4.7-45.1,3.7l0,0.4
				c-8.9-2.5-17.9-4.3-27.1-5.1c-11-1-22.3-0.5-33.8,1.9c3.6-11.9,7.2-23.4,11-35.9c22-13.3,41.6-19.7,59-23.6
				c10.9-2.5,20.9-3.9,30.4-5.5c9.3-1.6,18.1-3.3,26-6.4c3.4-1.3,6.5-2.9,9.5-4.7c10.3,8.5,19.9,13.1,29,14.6
				c9.3,1.5,17.7-0.2,25.5-3.9c15.6-7.4,29.3-23,42.9-37.5c-14.9,13.9-29.1,27.9-44.6,33.7c-7.4,2.8-14.9,3.5-22.6,1.6
				c-7.2-1.8-15-6-23.5-13.6c1.5-1.4,3-3,4.4-4.6c5.7-6.9,10-15.9,13.3-28c6.5-24.1,9.1-61.9,8.2-121.8
				c-0.9,60.2-5.4,97.3-13.3,120.3c-4,11.4-8.7,19-14,24.2c-5.2,5.1-11.2,7.9-18.1,9.7c-6.9,1.8-14.9,2.6-24.2,3.3
				c-6.7,0.5-14.2,1-22.3,1.8c5.8-7.4,9.8-15.9,12.5-24.8c5.2-17.3,5.8-36.8,4.9-55.5c-0.9,18.9-3.4,37.7-10.1,53.6
				c-5.1,11.9-12.3,21.8-22.8,28.8C310,349,296,352.6,280.8,359c1.2-4,2.4-8,3.7-12.3c4.3-15,3.7-30.8,0.9-45.9
				c-2.8-15.1-8-30.6-14.1-45.9c10.1-10.6,20.6-20.2,31.2-29.7c14-12.5,28-24.8,40.3-38.8c7.3-8.3,14-17.1,19.9-26.8
				c15.3,3.8,27.4,0.9,37-5.2c9.6-6.1,16.9-15.5,22.8-24.9c-7.4,8.5-15.6,16.3-25.1,20.6c-8.7,3.9-18.4,4.8-29.9,1
				c2.4-4.6,4.6-9.3,6.6-14.4c7.8-19.6,12.6-42.8,13.4-72c-2.5,29.1-9,51.6-18.1,69.9c-9.1,18.2-20.8,32.2-34,44.5
				c-13,12.1-27.5,22.6-42.7,34c-9.5,7.1-19.4,14.5-29.2,22.8c-10.7-24.8-22-47.7-30.4-71.2c-5-14-8.4-26.9-9.3-38.5
				c-0.9-11.5,0.7-21.9,6.1-30.7c5.4-9,14.8-16.8,30.2-22.7c15.4-5.8,36.2-9.4,64-10.1c-3.4-0.1-6.8-0.1-10.1-0.1
				c-22.8,0-40.9,2.2-55.2,6.3c-16.3,4.7-27.9,12-35.6,21.9c-7.7,10-11.2,22.1-11.6,35.6c0,1.5-0.1,3.1,0,4.6
				c-19.1-6.1-35.1-20.8-43.8-39C158.2,72.3,157.2,48.6,170.1,28.5z"/>
			<g id="g3395" transform="matrix(0.43054612,0,0,0.43054612,559.41357,245.54102)">
				<path id="path3361" inkscape:connector-curvature="0" inkscape:transform-center-y="-75.46274" class="st1" d="M-474.6-37.4
					c-10.8,7.7-17.6,22.6-17.6,38.9c0,16.2,6.7,31.2,17.5,38.9c10.8-7.7,17.6-22.6,17.6-38.9C-457-14.8-463.8-29.7-474.6-37.4z"/>
				
					<path id="path3381" inkscape:connector-curvature="0" inkscape:transform-center-x="53.360215" inkscape:transform-center-y="-53.360215" class="st1" d="
					M-544.8-8.4c-2.2,13.1,3.6,28.4,15.1,39.9c11.5,11.5,26.8,17.3,39.9,15.1c2.2-13.1-3.6-28.4-15.1-39.9
					C-516.3-4.8-531.7-10.6-544.8-8.4z"/>
				<path id="path3383" inkscape:connector-curvature="0" inkscape:transform-center-x="75.46274" class="st1" d="M-573.9,61.8
					c7.7,10.8,22.6,17.6,38.9,17.6c16.2,0,31.2-6.7,38.9-17.5c-7.7-10.8-22.6-17.6-38.9-17.6C-551.2,44.3-566.1,51-573.9,61.8z"/>
				
					<path id="path3385" inkscape:connector-curvature="0" inkscape:transform-center-x="53.360215" inkscape:transform-center-y="53.360215" class="st1" d="
					M-544.8,132c13.1,2.2,28.4-3.6,39.9-15.1c11.5-11.5,17.3-26.8,15.1-39.9c-13.1-2.2-28.4,3.6-39.9,15.1
					C-541.2,103.6-547,118.9-544.8,132z"/>
				<path id="path3387" inkscape:connector-curvature="0" inkscape:transform-center-y="75.46274" class="st1" d="M-474.6,161.1
					c10.8-7.7,17.6-22.6,17.6-38.9c0-16.2-6.7-31.2-17.5-38.9c-10.8,7.7-17.6,22.6-17.6,38.9C-492.1,138.4-485.4,153.4-474.6,161.1z
					"/>
				
					<path id="path3389" inkscape:connector-curvature="0" inkscape:transform-center-x="-53.360215" inkscape:transform-center-y="53.360215" class="st1" d="
					M-404.4,132c2.2-13.1-3.6-28.4-15.1-39.9C-431,80.6-446.3,74.8-459.4,77c-2.2,13.1,3.6,28.4,15.1,39.9
					C-432.8,128.4-417.5,134.2-404.4,132z"/>
				<path id="path3391" inkscape:connector-curvature="0" inkscape:transform-center-x="-75.462739" class="st1" d="M-375.3,61.9
					C-383,51-398,44.3-414.2,44.3c-16.2,0-31.2,6.7-38.9,17.5c7.7,10.8,22.6,17.6,38.9,17.6C-398,79.4-383,72.7-375.3,61.9z"/>
				
					<path id="path3393" inkscape:connector-curvature="0" inkscape:transform-center-x="-53.360216" inkscape:transform-center-y="-53.360215" class="st1" d="
					M-404.4-8.3c-13.1-2.2-28.4,3.6-39.9,15.1c-11.5,11.5-17.3,26.8-15.1,39.9c13.1,2.2,28.4-3.6,39.9-15.1
					C-408,20.1-402.2,4.8-404.4-8.3z"/>
			</g>
			<g id="use3405" transform="matrix(0.39632202,0.64998383,-0.64998383,0.39632202,295.82089,-155.96502)">
				<g id="g3395_1_" transform="matrix(0.43054612,0,0,0.43054612,559.41357,245.54102)">
					<path id="path3361_1_" inkscape:connector-curvature="0" inkscape:transform-center-y="-75.46274" class="st1" d="
						M-958.9-177.9c-9.3-4-21.7-2.4-32.3,4c-10.6,6.4-17.6,16.7-18.3,26.8c9.3,4,21.7,2.4,32.3-4
						C-966.6-157.5-959.6-167.8-958.9-177.9z"/>
					
						<path id="path3381_1_" inkscape:connector-curvature="0" inkscape:transform-center-x="53.360215" inkscape:transform-center-y="-53.360215" class="st1" d="
						M-1005.6-212c-9.4,3.8-17.1,13.6-20,25.6c-2.9,12-0.6,24.3,6,31.9c9.4-3.8,17.1-13.6,20-25.6
						C-996.7-192.1-999-204.4-1005.6-212z"/>
					<path id="path3383_1_" inkscape:connector-curvature="0" inkscape:transform-center-x="75.46274" class="st1" d="
						M-1062.7-203.1c-4,9.3-2.4,21.7,4,32.3c6.4,10.6,16.7,17.6,26.8,18.3c4-9.3,2.4-21.7-4-32.3
						C-1042.3-195.4-1052.6-202.4-1062.7-203.1z"/>
					
						<path id="path3385_1_" inkscape:connector-curvature="0" inkscape:transform-center-x="53.360215" inkscape:transform-center-y="53.360215" class="st1" d="
						M-1096.8-156.4c3.8,9.4,13.6,17.1,25.6,20c12,2.9,24.3,0.6,31.9-6c-3.8-9.4-13.6-17.1-25.6-20
						C-1076.9-165.3-1089.2-163-1096.8-156.4z"/>
					<path id="path3387_1_" inkscape:connector-curvature="0" inkscape:transform-center-y="75.46274" class="st1" d="M-1087.9-99.3
						c9.3,4,21.7,2.4,32.3-4c10.6-6.4,17.6-16.7,18.3-26.8c-9.3-4-21.7-2.4-32.3,4C-1080.2-119.6-1087.2-109.4-1087.9-99.3z"/>
					
						<path id="path3389_1_" inkscape:connector-curvature="0" inkscape:transform-center-x="-53.360215" inkscape:transform-center-y="53.360215" class="st1" d="
						M-1041.2-65.2c9.4-3.8,17.1-13.6,20-25.6c2.9-12,0.6-24.3-6-31.9c-9.4,3.8-17.1,13.6-20,25.6
						C-1050.1-85.1-1047.8-72.8-1041.2-65.2z"/>
					<path id="path3391_1_" inkscape:connector-curvature="0" inkscape:transform-center-x="-75.462739" class="st1" d="
						M-984.1-74.1c4-9.3,2.4-21.7-4-32.3c-6.4-10.6-16.7-17.6-26.8-18.3c-4,9.3-2.4,21.7,4,32.3C-1004.4-81.8-994.1-74.8-984.1-74.1
						z"/>
					
						<path id="path3393_1_" inkscape:connector-curvature="0" inkscape:transform-center-x="-53.360216" inkscape:transform-center-y="-53.360215" class="st1" d="
						M-950-120.8c-3.8-9.4-13.6-17.1-25.6-20c-12-2.9-24.3-0.6-31.9,6c3.8,9.4,13.6,17.1,25.6,20
						C-969.9-111.9-957.6-114.2-950-120.8z"/>
				</g>
			</g>
			<g id="use3407" transform="matrix(0.57098512,-0.25798824,0.25798824,0.57098512,-130.68684,404.10442)">
				<g id="g3395_2_" transform="matrix(0.43054612,0,0,0.43054612,559.41357,245.54102)">
					<path id="path3361_2_" inkscape:connector-curvature="0" inkscape:transform-center-y="-75.46274" class="st1" d="
						M-919.8,159.7c-4.2,7.2-4.2,17.5,0,26.7c4.2,9.3,11.9,16.1,20,17.7c4.2-7.2,4.2-17.5,0-26.7
						C-904,168.1-911.7,161.3-919.8,159.7z"/>
					
						<path id="path3381_2_" inkscape:connector-curvature="0" inkscape:transform-center-x="53.360215" inkscape:transform-center-y="-53.360215" class="st1" d="
						M-952.4,194.4c2.1,8,9.4,15.3,18.9,18.9c9.5,3.6,19.8,3,26.7-1.7c-2.1-8-9.4-15.3-18.9-18.9
						C-935.2,189.2-945.5,189.8-952.4,194.4z"/>
					<path id="path3383_2_" inkscape:connector-curvature="0" inkscape:transform-center-x="75.46274" class="st1" d="M-950.9,242
						c7.2,4.2,17.5,4.2,26.7,0c9.3-4.2,16.1-11.9,17.7-20c-7.2-4.2-17.5-4.2-26.7,0C-942.5,226.1-949.3,233.8-950.9,242z"/>
					
						<path id="path3385_2_" inkscape:connector-curvature="0" inkscape:transform-center-x="53.360215" inkscape:transform-center-y="53.360215" class="st1" d="
						M-916.2,274.6c8-2.1,15.3-9.4,18.9-18.9c3.6-9.5,3-19.8-1.7-26.7c-8,2.1-15.3,9.4-18.9,18.9
						C-921.5,257.4-920.8,267.7-916.2,274.6z"/>
					<path id="path3387_2_" inkscape:connector-curvature="0" inkscape:transform-center-y="75.46274" class="st1" d="M-868.6,273.1
						c4.2-7.2,4.2-17.5,0-26.7c-4.2-9.3-11.9-16.1-20-17.7c-4.2,7.2-4.2,17.5,0,26.7C-884.5,264.7-876.8,271.5-868.6,273.1z"/>
					
						<path id="path3389_2_" inkscape:connector-curvature="0" inkscape:transform-center-x="-53.360215" inkscape:transform-center-y="53.360215" class="st1" d="
						M-836,238.4c-2.1-8-9.4-15.3-18.9-18.9c-9.5-3.6-19.8-3-26.7,1.7c2.1,8,9.4,15.3,18.9,18.9C-853.2,243.7-843,243-836,238.4z"/>
					<path id="path3391_2_" inkscape:connector-curvature="0" inkscape:transform-center-x="-75.462739" class="st1" d="
						M-837.5,190.8c-7.2-4.2-17.5-4.2-26.7,0c-9.3,4.2-16.1,11.9-17.7,20c7.2,4.2,17.5,4.2,26.7,0
						C-845.9,206.7-839.2,199-837.5,190.8z"/>
					
						<path id="path3393_2_" inkscape:connector-curvature="0" inkscape:transform-center-x="-53.360216" inkscape:transform-center-y="-53.360215" class="st1" d="
						M-872.2,158.2c-8,2.1-15.3,9.4-18.9,18.9c-3.6,9.5-3,19.8,1.7,26.7c8-2.1,15.3-9.4,18.9-18.9
						C-867,175.4-867.6,165.1-872.2,158.2z"/>
				</g>
			</g>
			<g id="use3409" transform="matrix(0.65934186,-0.43521401,0.43521401,0.65934186,-409.34853,408.02176)">
				<g id="g3395_3_" transform="matrix(0.43054612,0,0,0.43054612,559.41357,245.54102)">
					<path id="path3361_3_" inkscape:connector-curvature="0" inkscape:transform-center-y="-75.46274" class="st1" d="
						M-1225.6,69.9c-3.8,9.8-1.7,22.6,5.3,33.3c7.1,10.7,18,17.6,28.5,18c3.8-9.8,1.7-22.6-5.3-33.3
						C-1204.1,77.2-1215.1,70.3-1225.6,69.9z"/>
					
						<path id="path3381_3_" inkscape:connector-curvature="0" inkscape:transform-center-x="53.360215" inkscape:transform-center-y="-53.360215" class="st1" d="
						M-1259.2,119.6c4.2,9.6,14.7,17.2,27.3,19.8c12.6,2.6,25.2-0.3,32.9-7.4c-4.2-9.6-14.7-17.2-27.3-19.8
						C-1238.9,109.6-1251.5,112.5-1259.2,119.6z"/>
					<path id="path3383_3_" inkscape:connector-curvature="0" inkscape:transform-center-x="75.46274" class="st1" d="
						M-1247.8,178.6c9.8,3.8,22.6,1.7,33.3-5.3c10.7-7.1,17.6-18,18-28.5c-9.8-3.8-22.6-1.7-33.3,5.3
						C-1240.5,157.1-1247.4,168.1-1247.8,178.6z"/>
					
						<path id="path3385_3_" inkscape:connector-curvature="0" inkscape:transform-center-x="53.360215" inkscape:transform-center-y="53.360215" class="st1" d="
						M-1198.1,212.2c9.6-4.2,17.2-14.7,19.8-27.3c2.6-12.6-0.3-25.2-7.4-32.9c-9.6,4.2-17.2,14.7-19.8,27.3
						C-1208.1,191.9-1205.3,204.5-1198.1,212.2z"/>
					<path id="path3387_3_" inkscape:connector-curvature="0" inkscape:transform-center-y="75.46274" class="st1" d="
						M-1139.2,200.8c3.8-9.8,1.7-22.6-5.3-33.3c-7.1-10.7-18-17.6-28.5-18c-3.8,9.8-1.7,22.6,5.3,33.3
						C-1160.6,193.5-1149.7,200.4-1139.2,200.8z"/>
					
						<path id="path3389_3_" inkscape:connector-curvature="0" inkscape:transform-center-x="-53.360215" inkscape:transform-center-y="53.360215" class="st1" d="
						M-1105.5,151.1c-4.2-9.6-14.7-17.2-27.3-19.8c-12.6-2.6-25.2,0.3-32.9,7.4c4.2,9.6,14.7,17.2,27.3,19.8
						C-1125.9,161.1-1113.2,158.3-1105.5,151.1z"/>
					<path id="path3391_3_" inkscape:connector-curvature="0" inkscape:transform-center-x="-75.462739" class="st1" d="
						M-1116.9,92.2c-9.8-3.8-22.6-1.7-33.3,5.3c-10.7,7.1-17.6,18-18,28.5c9.8,3.8,22.6,1.7,33.3-5.3
						C-1124.2,113.6-1117.3,102.7-1116.9,92.2z"/>
					
						<path id="path3393_3_" inkscape:connector-curvature="0" inkscape:transform-center-x="-53.360216" inkscape:transform-center-y="-53.360215" class="st1" d="
						M-1166.6,58.5c-9.6,4.2-17.2,14.7-19.8,27.3c-2.6,12.6,0.3,25.2,7.4,32.9c9.6-4.2,17.2-14.7,19.8-27.3
						C-1156.6,78.9-1159.5,66.2-1166.6,58.5z"/>
				</g>
			</g>
			<g id="use3411" transform="matrix(0.91726442,-0.10809985,0.10809985,0.91726442,-402.83381,301.57447)">
				<g id="g3395_4_" transform="matrix(0.43054612,0,0,0.43054612,559.41357,245.54102)">
					<path id="path3361_4_" inkscape:connector-curvature="0" inkscape:transform-center-y="-75.46274" class="st1" d="M-1219,362.7
						c-9.1,8.2-13.7,22.7-11.9,37.6c1.8,14.9,9.5,27.9,20.3,33.8c9.1-8.2,13.7-22.7,11.9-37.6
						C-1200.4,381.5-1208.2,368.6-1219,362.7z"/>
					
						<path id="path3381_4_" inkscape:connector-curvature="0" inkscape:transform-center-x="53.360215" inkscape:transform-center-y="-53.360215" class="st1" d="
						M-1280.2,396.9c-0.6,12.3,6.4,25.7,18.1,35c11.8,9.3,26.5,13,38.2,9.5c0.6-12.3-6.4-25.7-18.1-35
						C-1253.8,397.2-1268.4,393.5-1280.2,396.9z"/>
					<path id="path3383_4_" inkscape:connector-curvature="0" inkscape:transform-center-x="75.46274" class="st1" d="
						M-1299.3,464.4c8.2,9.1,22.7,13.7,37.6,11.9c14.9-1.8,27.9-9.5,33.8-20.3c-8.2-9.1-22.7-13.7-37.6-11.9
						C-1280.4,445.9-1293.4,453.7-1299.3,464.4z"/>
					
						<path id="path3385_4_" inkscape:connector-curvature="0" inkscape:transform-center-x="53.360215" inkscape:transform-center-y="53.360215" class="st1" d="
						M-1265.1,525.7c12.3,0.6,25.7-6.4,35-18.1c9.3-11.8,13-26.5,9.5-38.2c-12.3-0.6-25.7,6.4-35,18.1
						C-1264.8,499.2-1268.5,513.9-1265.1,525.7z"/>
					<path id="path3387_4_" inkscape:connector-curvature="0" inkscape:transform-center-y="75.46274" class="st1" d="
						M-1197.5,544.8c9.1-8.2,13.7-22.7,11.9-37.6c-1.8-14.9-9.5-27.9-20.3-33.8c-9.1,8.2-13.7,22.7-11.9,37.6
						C-1216.1,525.9-1208.3,538.9-1197.5,544.8z"/>
					
						<path id="path3389_4_" inkscape:connector-curvature="0" inkscape:transform-center-x="-53.360215" inkscape:transform-center-y="53.360215" class="st1" d="
						M-1136.3,510.5c0.6-12.3-6.4-25.7-18.1-35c-11.8-9.3-26.5-13-38.2-9.5c-0.6,12.3,6.4,25.7,18.1,35
						C-1162.8,510.3-1148.1,513.9-1136.3,510.5z"/>
					<path id="path3391_4_" inkscape:connector-curvature="0" inkscape:transform-center-x="-75.462739" class="st1" d="
						M-1117.2,443c-8.2-9.1-22.7-13.7-37.6-11.9c-14.9,1.8-27.9,9.5-33.8,20.3c8.2,9.1,22.7,13.7,37.6,11.9
						C-1136.1,461.5-1123.1,453.8-1117.2,443z"/>
					
						<path id="path3393_4_" inkscape:connector-curvature="0" inkscape:transform-center-x="-53.360216" inkscape:transform-center-y="-53.360215" class="st1" d="
						M-1151.4,381.8c-12.3-0.6-25.7,6.4-35,18.1c-9.3,11.8-13,26.5-9.5,38.2c12.3,0.6,25.7-6.4,35-18.1
						C-1151.7,408.2-1148,393.5-1151.4,381.8z"/>
				</g>
			</g>
			<g id="use3413" transform="matrix(0.89054863,-0.56765233,0.56765233,0.89054863,-234.95379,227.53971)">
				<g id="g3395_5_" transform="matrix(0.43054612,0,0,0.43054612,559.41357,245.54102)">
					<path id="path3361_5_" inkscape:connector-curvature="0" inkscape:transform-center-y="-75.46274" class="st1" d="
						M-591.7-215.9c-5.3,13-2.8,30.1,6.4,44.6c9.2,14.5,23.7,23.9,37.7,24.7c5.3-13,2.8-30.1-6.4-44.6
						C-563.2-205.6-577.7-215.1-591.7-215.9z"/>
					
						<path id="path3381_5_" inkscape:connector-curvature="0" inkscape:transform-center-x="53.360215" inkscape:transform-center-y="-53.360215" class="st1" d="
						M-637.7-150.1c5.5,12.9,19.3,23.3,36.1,27c16.7,3.7,33.7,0.2,44.1-9.2c-5.5-12.9-19.3-23.3-36.1-27
						C-610.3-163-627.3-159.5-637.7-150.1z"/>
					<path id="path3383_5_" inkscape:connector-curvature="0" inkscape:transform-center-x="75.46274" class="st1" d="M-623.8-71.1
						c13,5.3,30.1,2.8,44.6-6.4c14.5-9.2,23.9-23.7,24.7-37.7c-13-5.3-30.1-2.8-44.6,6.4C-613.5-99.6-623-85.1-623.8-71.1z"/>
					
						<path id="path3385_5_" inkscape:connector-curvature="0" inkscape:transform-center-x="53.360215" inkscape:transform-center-y="53.360215" class="st1" d="
						M-558-25.1c12.9-5.5,23.3-19.3,27-36.1c3.7-16.7,0.2-33.7-9.2-44.1c-12.9,5.5-23.3,19.3-27,36.1
						C-570.9-52.5-567.4-35.5-558-25.1z"/>
					<path id="path3387_5_" inkscape:connector-curvature="0" inkscape:transform-center-y="75.46274" class="st1" d="M-479-39
						c5.3-13,2.8-30.1-6.4-44.6c-9.2-14.5-23.7-23.9-37.7-24.7c-5.3,13-2.8,30.1,6.4,44.6C-507.5-49.2-493-39.8-479-39z"/>
					
						<path id="path3389_5_" inkscape:connector-curvature="0" inkscape:transform-center-x="-53.360215" inkscape:transform-center-y="53.360215" class="st1" d="
						M-433-104.8c-5.5-12.9-19.3-23.3-36.1-27c-16.7-3.7-33.7-0.2-44.1,9.2c5.5,12.9,19.3,23.3,36.1,27
						C-460.4-91.8-443.4-95.4-433-104.8z"/>
					<path id="path3391_5_" inkscape:connector-curvature="0" inkscape:transform-center-x="-75.462739" class="st1" d="
						M-446.9-183.8c-13-5.3-30.1-2.8-44.6,6.4c-14.5,9.2-23.9,23.7-24.7,37.7c13,5.3,30.1,2.8,44.6-6.4
						C-457.1-155.3-447.7-169.8-446.9-183.8z"/>
					
						<path id="path3393_5_" inkscape:connector-curvature="0" inkscape:transform-center-x="-53.360216" inkscape:transform-center-y="-53.360215" class="st1" d="
						M-512.6-229.8c-12.9,5.5-23.3,19.3-27,36.1c-3.7,16.7-0.2,33.7,9.2,44.1c12.9-5.5,23.3-19.3,27-36.1
						C-499.7-202.4-503.3-219.4-512.6-229.8z"/>
				</g>
			</g>
			<g id="use3415" transform="matrix(0.59609305,0.48876454,-0.48876454,0.59609305,512.44264,-157.94522)">
				<g id="g3395_6_" transform="matrix(0.43054612,0,0,0.43054612,559.41357,245.54102)">
					<path id="path3361_6_" inkscape:connector-curvature="0" inkscape:transform-center-y="-75.46274" class="st1" d="M-254-181.6
						c-10.2-0.7-21.5,4.9-29.5,14.6c-7.9,9.7-11.2,21.9-8.6,31.8c10.2,0.7,21.5-4.9,29.5-14.6C-254.7-159.6-251.4-171.8-254-181.6z"
						/>
					
						<path id="path3381_6_" inkscape:connector-curvature="0" inkscape:transform-center-x="53.360215" inkscape:transform-center-y="-53.360215" class="st1" d="
						M-310.1-198.6c-7.7,6.7-11.8,18.7-10.5,31.2c1.2,12.5,7.5,23.4,16.4,28.5c7.7-6.7,11.8-18.7,10.5-31.2
						C-294.9-182.6-301.2-193.5-310.1-198.6z"/>
					<path id="path3383_6_" inkscape:connector-curvature="0" inkscape:transform-center-x="75.46274" class="st1" d="M-361.7-171
						c-0.7,10.2,4.9,21.5,14.6,29.5c9.7,7.9,21.9,11.2,31.8,8.6c0.7-10.2-4.9-21.5-14.6-29.5C-339.7-170.4-351.8-173.7-361.7-171z"
						/>
					
						<path id="path3385_6_" inkscape:connector-curvature="0" inkscape:transform-center-x="53.360215" inkscape:transform-center-y="53.360215" class="st1" d="
						M-378.7-115c6.7,7.7,18.7,11.8,31.2,10.5c12.5-1.2,23.4-7.5,28.5-16.4c-6.7-7.7-18.7-11.8-31.2-10.5
						C-362.7-130.1-373.6-123.8-378.7-115z"/>
					<path id="path3387_6_" inkscape:connector-curvature="0" inkscape:transform-center-y="75.46274" class="st1" d="M-351.1-63.3
						c10.2,0.7,21.5-4.9,29.5-14.6c7.9-9.7,11.2-21.9,8.6-31.8c-10.2-0.7-21.5,4.9-29.5,14.6C-350.5-85.4-353.8-73.2-351.1-63.3z"/>
					
						<path id="path3389_6_" inkscape:connector-curvature="0" inkscape:transform-center-x="-53.360215" inkscape:transform-center-y="53.360215" class="st1" d="
						M-295.1-46.3c7.7-6.7,11.8-18.7,10.5-31.2c-1.2-12.5-7.5-23.4-16.4-28.5c-7.7,6.7-11.8,18.7-10.5,31.2
						C-310.2-62.4-303.9-51.4-295.1-46.3z"/>
					<path id="path3391_6_" inkscape:connector-curvature="0" inkscape:transform-center-x="-75.462739" class="st1" d="
						M-243.4-73.9c0.7-10.2-4.9-21.5-14.6-29.5c-9.7-7.9-21.9-11.2-31.8-8.6c-0.7,10.2,4.9,21.5,14.6,29.5
						C-265.5-74.6-253.3-71.3-243.4-73.9z"/>
					
						<path id="path3393_6_" inkscape:connector-curvature="0" inkscape:transform-center-x="-53.360216" inkscape:transform-center-y="-53.360215" class="st1" d="
						M-226.4-130c-6.7-7.7-18.7-11.8-31.2-10.5c-12.5,1.2-23.4,7.5-28.5,16.4c6.7,7.7,18.7,11.8,31.2,10.5
						C-242.5-114.8-231.5-121.1-226.4-130z"/>
				</g>
			</g>
			<g id="use3417" transform="matrix(0.73588771,-0.0123316,0.0123316,0.73588771,141.97002,222.16705)">
				<g id="g3395_7_" transform="matrix(0.43054612,0,0,0.43054612,559.41357,245.54102)">
					<path id="path3361_7_" inkscape:connector-curvature="0" inkscape:transform-center-y="-75.46274" class="st1" d="
						M-443.7,168.8c-7.9,5.8-12.7,16.9-12.5,28.8c0.2,12,5.3,22.9,13.4,28.4c7.9-5.8,12.7-16.9,12.5-28.8
						C-430.5,185.2-435.7,174.3-443.7,168.8z"/>
					
						<path id="path3381_7_" inkscape:connector-curvature="0" inkscape:transform-center-x="53.360215" inkscape:transform-center-y="-53.360215" class="st1" d="
						M-495,191c-1.5,9.7,3,20.9,11.6,29.2c8.6,8.3,19.9,12.4,29.6,10.6c1.5-9.7-3-20.9-11.6-29.2C-474.1,193.3-485.4,189.2-495,191z
						"/>
					<path id="path3383_7_" inkscape:connector-curvature="0" inkscape:transform-center-x="75.46274" class="st1" d="M-515.6,243
						c5.8,7.9,16.9,12.7,28.8,12.5c12-0.2,22.9-5.3,28.4-13.4c-5.8-7.9-16.9-12.7-28.8-12.5C-499.1,229.8-510,235-515.6,243z"/>
					
						<path id="path3385_7_" inkscape:connector-curvature="0" inkscape:transform-center-x="53.360215" inkscape:transform-center-y="53.360215" class="st1" d="
						M-493.3,294.3c9.7,1.5,20.9-3,29.2-11.6c8.3-8.6,12.4-19.9,10.6-29.6c-9.7-1.5-20.9,3-29.2,11.6
						C-491,273.4-495.1,284.7-493.3,294.3z"/>
					<path id="path3387_7_" inkscape:connector-curvature="0" inkscape:transform-center-y="75.46274" class="st1" d="M-441.3,314.9
						c7.9-5.8,12.7-16.9,12.5-28.8c-0.2-12-5.3-22.9-13.4-28.4c-7.9,5.8-12.7,16.9-12.5,28.8C-454.5,298.4-449.4,309.3-441.3,314.9z
						"/>
					
						<path id="path3389_7_" inkscape:connector-curvature="0" inkscape:transform-center-x="-53.360215" inkscape:transform-center-y="53.360215" class="st1" d="
						M-390,292.6c1.5-9.7-3-20.9-11.6-29.2c-8.6-8.3-19.9-12.4-29.6-10.6c-1.5,9.7,3,20.9,11.6,29.2
						C-411,290.3-399.6,294.4-390,292.6z"/>
					<path id="path3391_7_" inkscape:connector-curvature="0" inkscape:transform-center-x="-75.462739" class="st1" d="
						M-369.5,240.6c-5.8-7.9-16.9-12.7-28.8-12.5c-12,0.2-22.9,5.3-28.4,13.4c5.8,7.9,16.9,12.7,28.8,12.5
						C-385.9,253.8-375,248.6-369.5,240.6z"/>
					
						<path id="path3393_7_" inkscape:connector-curvature="0" inkscape:transform-center-x="-53.360216" inkscape:transform-center-y="-53.360215" class="st1" d="
						M-391.7,189.3c-9.7-1.5-20.9,3-29.2,11.6c-8.3,8.6-12.4,19.9-10.6,29.6c9.7,1.5,20.9-3,29.2-11.6
						C-394,210.3-389.9,198.9-391.7,189.3z"/>
				</g>
			</g>
			<g id="use3419" transform="matrix(0.64343967,0.30512522,-0.30512522,0.64343967,253.60257,-249.68958)">
				<g id="g3395_8_" transform="matrix(0.43054612,0,0,0.43054612,559.41357,245.54102)">
					<path id="path3361_8_" inkscape:connector-curvature="0" inkscape:transform-center-y="-75.46274" class="st1" d="
						M-555.8-485.4c-9.3,1.7-18.2,9.2-23.2,19.7c-5,10.5-5.2,22.1-0.6,30.4c9.3-1.7,18.2-9.2,23.2-19.7
						C-551.4-465.5-551.2-477.1-555.8-485.4z"/>
					
						<path id="path3381_8_" inkscape:connector-curvature="0" inkscape:transform-center-x="53.360215" inkscape:transform-center-y="-53.360215" class="st1" d="
						M-609.8-488.1c-5.4,7.8-6.4,19.4-2.5,30.3c3.9,10.9,12,19.3,21.1,21.9c5.4-7.8,6.4-19.4,2.5-30.3
						C-592.6-477.1-600.7-485.5-609.8-488.1z"/>
					<path id="path3383_8_" inkscape:connector-curvature="0" inkscape:transform-center-x="75.46274" class="st1" d="M-650-451.8
						c1.7,9.3,9.2,18.2,19.7,23.2c10.5,5,22.1,5.2,30.4,0.6c-1.7-9.3-9.2-18.2-19.7-23.2C-630-456.2-641.7-456.4-650-451.8z"/>
					
						<path id="path3385_8_" inkscape:connector-curvature="0" inkscape:transform-center-x="53.360215" inkscape:transform-center-y="53.360215" class="st1" d="
						M-652.7-397.8c7.8,5.4,19.4,6.4,30.3,2.5c10.9-3.9,19.3-12,21.9-21.1c-7.8-5.4-19.4-6.4-30.3-2.5
						C-641.7-415-650.1-406.9-652.7-397.8z"/>
					<path id="path3387_8_" inkscape:connector-curvature="0" inkscape:transform-center-y="75.46274" class="st1" d="M-616.4-357.7
						c9.3-1.7,18.2-9.2,23.2-19.7c5-10.5,5.2-22.1,0.6-30.4c-9.3,1.7-18.2,9.2-23.2,19.7C-620.8-377.6-621-365.9-616.4-357.7z"/>
					
						<path id="path3389_8_" inkscape:connector-curvature="0" inkscape:transform-center-x="-53.360215" inkscape:transform-center-y="53.360215" class="st1" d="
						M-562.4-355c5.4-7.8,6.4-19.4,2.5-30.3c-3.9-10.9-12-19.3-21.1-21.9c-5.4,7.8-6.4,19.4-2.5,30.3
						C-579.5-366-571.5-357.5-562.4-355z"/>
					<path id="path3391_8_" inkscape:connector-curvature="0" inkscape:transform-center-x="-75.462739" class="st1" d="
						M-522.2-391.2c-1.7-9.3-9.2-18.2-19.7-23.2c-10.5-5-22.1-5.2-30.4-0.6c1.7,9.3,9.2,18.2,19.7,23.2
						C-542.2-386.9-530.5-386.6-522.2-391.2z"/>
					
						<path id="path3393_8_" inkscape:connector-curvature="0" inkscape:transform-center-x="-53.360216" inkscape:transform-center-y="-53.360215" class="st1" d="
						M-519.5-445.3c-7.8-5.4-19.4-6.4-30.3-2.5c-10.9,3.9-19.3,12-21.9,21.1c7.8,5.4,19.4,6.4,30.3,2.5
						C-530.5-428.1-522.1-436.2-519.5-445.3z"/>
				</g>
			</g>
			<g id="use3421" transform="matrix(0.05501268,-0.89595648,0.89595648,0.05501268,-88.004763,779.49872)">
				<g id="g3395_9_" transform="matrix(0.43054612,0,0,0.43054612,559.41357,245.54102)">
					<path id="path3361_9_" inkscape:connector-curvature="0" inkscape:transform-center-y="-75.46274" class="st1" d="M-841.6-109
						c6.3,10.1,19.3,17,33.9,17.9c14.6,0.9,28.3-4.3,35.8-13.6c-6.3-10.1-19.3-17-33.9-17.9C-820.4-123.5-834.1-118.3-841.6-109z"/>
					
						<path id="path3381_9_" inkscape:connector-curvature="0" inkscape:transform-center-x="53.360215" inkscape:transform-center-y="-53.360215" class="st1" d="
						M-819.5-44.6c11.6,2.7,25.7-1.6,36.6-11.3c10.9-9.7,17-23.1,15.7-34.9c-11.6-2.7-25.7,1.6-36.6,11.3
						C-814.7-69.8-820.7-56.4-819.5-44.6z"/>
					<path id="path3383_9_" inkscape:connector-curvature="0" inkscape:transform-center-x="75.46274" class="st1" d="M-758.2-14.6
						c10.1-6.3,17-19.3,17.9-33.9c0.9-14.6-4.3-28.3-13.6-35.8c-10.1,6.3-17,19.3-17.9,33.9C-772.6-35.9-767.4-22.1-758.2-14.6z"/>
					
						<path id="path3385_9_" inkscape:connector-curvature="0" inkscape:transform-center-x="53.360215" inkscape:transform-center-y="53.360215" class="st1" d="
						M-693.7-36.8c2.7-11.6-1.6-25.7-11.3-36.6c-9.7-10.9-23.1-17-34.9-15.7c-2.7,11.6,1.6,25.7,11.3,36.6
						C-718.9-41.6-705.5-35.6-693.7-36.8z"/>
					<path id="path3387_9_" inkscape:connector-curvature="0" inkscape:transform-center-y="75.46274" class="st1" d="M-663.8-98.1
						c-6.3-10.1-19.3-17-33.9-17.9c-14.6-0.9-28.3,4.3-35.8,13.6c6.3,10.1,19.3,17,33.9,17.9C-685-83.6-671.3-88.8-663.8-98.1z"/>
					
						<path id="path3389_9_" inkscape:connector-curvature="0" inkscape:transform-center-x="-53.360215" inkscape:transform-center-y="53.360215" class="st1" d="
						M-685.9-162.6c-11.6-2.7-25.7,1.6-36.6,11.3c-10.9,9.7-17,23.1-15.7,34.9c11.6,2.7,25.7-1.6,36.6-11.3
						C-690.7-137.3-684.7-150.7-685.9-162.6z"/>
					<path id="path3391_9_" inkscape:connector-curvature="0" inkscape:transform-center-x="-75.462739" class="st1" d="
						M-747.2-192.5c-10.1,6.3-17,19.3-17.9,33.9c-0.9,14.6,4.3,28.3,13.6,35.8c10.1-6.3,17-19.3,17.9-33.9
						C-732.8-171.2-738-185-747.2-192.5z"/>
					
						<path id="path3393_9_" inkscape:connector-curvature="0" inkscape:transform-center-x="-53.360216" inkscape:transform-center-y="-53.360215" class="st1" d="
						M-811.7-170.3c-2.7,11.6,1.6,25.7,11.3,36.6c9.7,10.9,23.1,17,34.9,15.7c2.7-11.6-1.6-25.7-11.3-36.6
						C-786.4-165.5-799.9-171.6-811.7-170.3z"/>
				</g>
			</g>
			<g id="use3423" transform="matrix(0.83890945,-0.04083613,0.04083613,0.83890945,146.90463,354.42582)">
				<g id="g3395_10_" transform="matrix(0.43054612,0,0,0.43054612,559.41357,245.54102)">
					<path id="path3361_10_" inkscape:connector-curvature="0" inkscape:transform-center-y="-75.46274" class="st1" d="M-319,464.6
						c-8.8,6.9-13.8,19.7-13.2,33.3c0.7,13.6,6.9,25.9,16.3,31.9c8.8-6.9,13.8-19.7,13.2-33.3C-303.4,482.9-309.7,470.6-319,464.6z"
						/>
					
						<path id="path3381_10_" inkscape:connector-curvature="0" inkscape:transform-center-x="53.360215" inkscape:transform-center-y="-53.360215" class="st1" d="
						M-376.8,491.8c-1.3,11.1,4.2,23.7,14.3,32.9c10.1,9.2,23.2,13.4,34.1,11c1.3-11.1-4.2-23.7-14.3-32.9
						C-352.8,493.7-365.9,489.5-376.8,491.8z"/>
					<path id="path3383_10_" inkscape:connector-curvature="0" inkscape:transform-center-x="75.46274" class="st1" d="
						M-398.3,551.9c6.9,8.8,19.7,13.8,33.3,13.2c13.6-0.7,25.9-6.9,31.9-16.3c-6.9-8.8-19.7-13.8-33.3-13.2
						C-380,536.2-392.3,542.5-398.3,551.9z"/>
					
						<path id="path3385_10_" inkscape:connector-curvature="0" inkscape:transform-center-x="53.360215" inkscape:transform-center-y="53.360215" class="st1" d="
						M-371,609.6c11.1,1.3,23.7-4.2,32.9-14.3c9.2-10.1,13.4-23.2,11-34.1c-11.1-1.3-23.7,4.2-32.9,14.3
						C-369.2,585.6-373.4,598.7-371,609.6z"/>
					<path id="path3387_10_" inkscape:connector-curvature="0" inkscape:transform-center-y="75.46274" class="st1" d="M-311,631.1
						c8.8-6.9,13.8-19.7,13.2-33.3c-0.7-13.6-6.9-25.9-16.3-31.9c-8.8,6.9-13.8,19.7-13.2,33.3C-326.6,612.8-320.4,625.1-311,631.1z
						"/>
					
						<path id="path3389_10_" inkscape:connector-curvature="0" inkscape:transform-center-x="-53.360215" inkscape:transform-center-y="53.360215" class="st1" d="
						M-253.3,603.9c1.3-11.1-4.2-23.7-14.3-32.9c-10.1-9.2-23.2-13.4-34.1-11c-1.3,11.1,4.2,23.7,14.3,32.9
						C-277.3,602-264.2,606.2-253.3,603.9z"/>
					<path id="path3391_10_" inkscape:connector-curvature="0" inkscape:transform-center-x="-75.462739" class="st1" d="
						M-231.7,543.8c-6.9-8.8-19.7-13.8-33.3-13.2c-13.6,0.7-25.9,6.9-31.9,16.3c6.9,8.8,19.7,13.8,33.3,13.2
						C-250,559.4-237.8,553.2-231.7,543.8z"/>
					
						<path id="path3393_10_" inkscape:connector-curvature="0" inkscape:transform-center-x="-53.360216" inkscape:transform-center-y="-53.360215" class="st1" d="
						M-259,486.1c-11.1-1.3-23.7,4.2-32.9,14.3c-9.2,10.1-13.4,23.2-11,34.1c11.1,1.3,23.7-4.2,32.9-14.3
						C-260.9,510.1-256.6,497-259,486.1z"/>
				</g>
			</g>
			<g id="use3425" transform="matrix(0.76130887,-0.01370879,0.01370879,0.76130887,-121.3688,-185.02021)">
				<g id="g3395_11_" transform="matrix(0.43054612,0,0,0.43054612,559.41357,245.54102)">
					<path id="path3361_11_" inkscape:connector-curvature="0" inkscape:transform-center-y="-75.46274" class="st1" d="
						M-908.7-570.3c-8.1,6-13.1,17.5-12.9,29.9c0.2,12.4,5.6,23.6,13.9,29.4c8.1-6,13.1-17.5,12.9-29.9
						C-895.1-553.3-900.4-564.6-908.7-570.3z"/>
					
						<path id="path3381_11_" inkscape:connector-curvature="0" inkscape:transform-center-x="53.360215" inkscape:transform-center-y="-53.360215" class="st1" d="
						M-961.8-547.2c-1.5,10,3.1,21.6,12,30.2c8.9,8.6,20.6,12.8,30.6,11c1.5-10-3.1-21.6-12-30.2
						C-940.1-544.9-951.8-549.1-961.8-547.2z"/>
					<path id="path3383_11_" inkscape:connector-curvature="0" inkscape:transform-center-x="75.46274" class="st1" d="
						M-982.9-493.4c6,8.1,17.5,13.1,29.9,12.9c12.4-0.2,23.6-5.6,29.4-13.9c-6-8.1-17.5-13.1-29.9-12.9
						C-965.9-507-977.2-501.7-982.9-493.4z"/>
					
						<path id="path3385_11_" inkscape:connector-curvature="0" inkscape:transform-center-x="53.360215" inkscape:transform-center-y="53.360215" class="st1" d="
						M-959.9-440.3c10,1.5,21.6-3.1,30.2-12c8.6-8.9,12.8-20.6,11-30.6c-10-1.5-21.6,3.1-30.2,12
						C-957.5-462-961.7-450.3-959.9-440.3z"/>
					<path id="path3387_11_" inkscape:connector-curvature="0" inkscape:transform-center-y="75.46274" class="st1" d="M-906-419.2
						c8.1-6,13.1-17.5,12.9-29.9c-0.2-12.4-5.6-23.6-13.9-29.4c-8.1,6-13.1,17.5-12.9,29.9C-919.7-436.2-914.4-424.9-906-419.2z"/>
					
						<path id="path3389_11_" inkscape:connector-curvature="0" inkscape:transform-center-x="-53.360215" inkscape:transform-center-y="53.360215" class="st1" d="
						M-853-442.2c1.5-10-3.1-21.6-12-30.2c-8.9-8.6-20.6-12.8-30.6-11c-1.5,10,3.1,21.6,12,30.2C-874.7-444.6-862.9-440.4-853-442.2
						z"/>
					<path id="path3391_11_" inkscape:connector-curvature="0" inkscape:transform-center-x="-75.462739" class="st1" d="
						M-831.8-496.1c-6-8.1-17.5-13.1-29.9-12.9c-12.4,0.2-23.6,5.6-29.4,13.9c6,8.1,17.5,13.1,29.9,12.9
						C-848.8-482.4-837.5-487.7-831.8-496.1z"/>
					
						<path id="path3393_11_" inkscape:connector-curvature="0" inkscape:transform-center-x="-53.360216" inkscape:transform-center-y="-53.360215" class="st1" d="
						M-854.9-549.1c-10-1.5-21.6,3.1-30.2,12c-8.6,8.9-12.8,20.6-11,30.6c10,1.5,21.6-3.1,30.2-12
						C-857.2-527.4-853-539.2-854.9-549.1z"/>
				</g>
			</g>
			<g id="use3429" transform="matrix(0.57489781,0.42316589,-0.42316589,0.57489781,442.06524,-271.37176)">
				<g id="g3395_12_" transform="matrix(0.43054612,0,0,0.43054612,559.41357,245.54102)">
					<path id="path3361_12_" inkscape:connector-curvature="0" inkscape:transform-center-y="-75.46274" class="st1" d="
						M-355.7-468.2c-9.5-0.1-19.7,5.6-26.6,14.9c-6.9,9.3-9.3,20.8-6.4,29.8c9.5,0.1,19.7-5.6,26.6-14.9
						C-355.2-447.7-352.8-459.2-355.7-468.2z"/>
					
						<path id="path3381_12_" inkscape:connector-curvature="0" inkscape:transform-center-x="53.360215" inkscape:transform-center-y="-53.360215" class="st1" d="
						M-408.4-481.2c-6.8,6.6-10,17.9-8.2,29.3c1.7,11.5,8.1,21.3,16.6,25.6c6.8-6.6,10-17.9,8.2-29.3
						C-393.6-467.1-399.9-476.9-408.4-481.2z"/>
					<path id="path3383_12_" inkscape:connector-curvature="0" inkscape:transform-center-x="75.46274" class="st1" d="
						M-454.8-453.2c-0.1,9.5,5.6,19.7,14.9,26.6c9.3,6.9,20.8,9.3,29.8,6.4c0.1-9.5-5.6-19.7-14.9-26.6
						C-434.4-453.6-445.8-456.1-454.8-453.2z"/>
					
						<path id="path3385_12_" inkscape:connector-curvature="0" inkscape:transform-center-x="53.360215" inkscape:transform-center-y="53.360215" class="st1" d="
						M-467.8-400.5c6.6,6.8,17.9,10,29.3,8.2c11.5-1.7,21.3-8.1,25.6-16.6c-6.6-6.8-17.9-10-29.3-8.2
						C-453.7-415.3-463.5-409-467.8-400.5z"/>
					<path id="path3387_12_" inkscape:connector-curvature="0" inkscape:transform-center-y="75.46274" class="st1" d="
						M-439.8-354.1c9.5,0.1,19.7-5.6,26.6-14.9c6.9-9.3,9.3-20.8,6.4-29.8c-9.5-0.1-19.7,5.6-26.6,14.9
						C-440.3-374.5-442.7-363.1-439.8-354.1z"/>
					
						<path id="path3389_12_" inkscape:connector-curvature="0" inkscape:transform-center-x="-53.360215" inkscape:transform-center-y="53.360215" class="st1" d="
						M-387.1-341.1c6.8-6.6,10-17.9,8.2-29.3c-1.7-11.5-8.1-21.3-16.6-25.6c-6.8,6.6-10,17.9-8.2,29.3
						C-401.9-355.2-395.6-345.4-387.1-341.1z"/>
					<path id="path3391_12_" inkscape:connector-curvature="0" inkscape:transform-center-x="-75.462739" class="st1" d="
						M-340.7-369.1c0.1-9.5-5.6-19.7-14.9-26.6c-9.3-6.9-20.8-9.3-29.8-6.4c-0.1,9.5,5.6,19.7,14.9,26.6
						C-361.1-368.6-349.7-366.2-340.7-369.1z"/>
					
						<path id="path3393_12_" inkscape:connector-curvature="0" inkscape:transform-center-x="-53.360216" inkscape:transform-center-y="-53.360215" class="st1" d="
						M-327.7-421.8c-6.6-6.8-17.9-10-29.3-8.2c-11.5,1.7-21.3,8.1-25.6,16.6c6.6,6.8,17.9,10,29.3,8.2
						C-341.8-407-332-413.3-327.7-421.8z"/>
				</g>
			</g>
			<g id="use3431" transform="matrix(0.72566196,-0.16744906,0.16744906,0.72566196,-238.88475,254.73411)">
				<g id="g3395_13_" transform="matrix(0.43054612,0,0,0.43054612,559.41357,245.54102)">
					<path id="path3361_13_" inkscape:connector-curvature="0" inkscape:transform-center-y="-75.46274" class="st1" d="M-1046,79.5
						c-6.6,7.4-9,19.4-6.2,31.2c2.7,11.8,10.1,21.5,19.2,25.3c6.6-7.4,9-19.4,6.2-31.2C-1029.5,93-1036.9,83.3-1046,79.5z"/>
					
						<path id="path3381_13_" inkscape:connector-curvature="0" inkscape:transform-center-x="53.360215" inkscape:transform-center-y="-53.360215" class="st1" d="
						M-1092.1,112.4c0.6,9.9,7.4,20,17.6,26.5c10.3,6.4,22.3,8.1,31.5,4.3c-0.6-9.9-7.4-20-17.6-26.5
						C-1070.9,110.2-1083,108.6-1092.1,112.4z"/>
					<path id="path3383_13_" inkscape:connector-curvature="0" inkscape:transform-center-x="75.46274" class="st1" d="
						M-1101.5,168.2c7.4,6.6,19.4,9,31.2,6.2c11.8-2.7,21.5-10.1,25.3-19.2c-7.4-6.6-19.4-9-31.2-6.2
						C-1088,151.7-1097.7,159.1-1101.5,168.2z"/>
					
						<path id="path3385_13_" inkscape:connector-curvature="0" inkscape:transform-center-x="53.360215" inkscape:transform-center-y="53.360215" class="st1" d="
						M-1068.6,214.3c9.9-0.6,20-7.4,26.5-17.6c6.4-10.3,8.1-22.3,4.3-31.5c-9.9,0.6-20,7.4-26.5,17.6
						C-1070.8,193-1072.4,205.1-1068.6,214.3z"/>
					<path id="path3387_13_" inkscape:connector-curvature="0" inkscape:transform-center-y="75.46274" class="st1" d="
						M-1012.8,223.6c6.6-7.4,9-19.4,6.2-31.2c-2.7-11.8-10.1-21.5-19.2-25.3c-6.6,7.4-9,19.4-6.2,31.2
						C-1029.4,210.1-1022,219.8-1012.8,223.6z"/>
					
						<path id="path3389_13_" inkscape:connector-curvature="0" inkscape:transform-center-x="-53.360215" inkscape:transform-center-y="53.360215" class="st1" d="
						M-966.8,190.8c-0.6-9.9-7.4-20-17.6-26.5c-10.3-6.4-22.3-8.1-31.5-4.3c0.6,9.9,7.4,20,17.6,26.5
						C-988,192.9-975.9,194.5-966.8,190.8z"/>
					<path id="path3391_13_" inkscape:connector-curvature="0" inkscape:transform-center-x="-75.462739" class="st1" d="
						M-957.4,135c-7.4-6.6-19.4-9-31.2-6.2c-11.8,2.7-21.5,10.1-25.3,19.2c7.4,6.6,19.4,9,31.2,6.2
						C-970.9,151.5-961.2,144.1-957.4,135z"/>
					
						<path id="path3393_13_" inkscape:connector-curvature="0" inkscape:transform-center-x="-53.360216" inkscape:transform-center-y="-53.360215" class="st1" d="
						M-990.2,88.9c-9.9,0.6-20,7.4-26.5,17.6c-6.4,10.3-8.1,22.3-4.3,31.5c9.9-0.6,20-7.4,26.5-17.6
						C-988.1,110.1-986.5,98-990.2,88.9z"/>
				</g>
			</g>
			<g id="use3433" transform="matrix(0.69090336,-0.30018941,0.30018941,0.69090336,183.42917,349.59134)">
				<g id="g3395_14_" transform="matrix(0.43054612,0,0,0.43054612,559.41357,245.54102)">
					<path id="path3361_14_" inkscape:connector-curvature="0" inkscape:transform-center-y="-75.46274" class="st1" d="M-195,108.4
						c-5.2,8.6-5.3,20.9-0.5,32.2c4.9,11.2,14,19.5,23.8,21.6c5.2-8.6,5.3-20.9,0.5-32.2C-176.1,118.8-185.3,110.5-195,108.4z"/>
					
						<path id="path3381_14_" inkscape:connector-curvature="0" inkscape:transform-center-x="53.360215" inkscape:transform-center-y="-53.360215" class="st1" d="
						M-234.8,149.6c2.4,9.7,11,18.6,22.4,23.1c11.4,4.5,23.7,3.9,32.1-1.5c-2.4-9.7-11-18.6-22.4-23.1
						C-214.1,143.5-226.4,144.1-234.8,149.6z"/>
					<path id="path3383_14_" inkscape:connector-curvature="0" inkscape:transform-center-x="75.46274" class="st1" d="
						M-233.9,206.8c8.6,5.2,20.9,5.3,32.2,0.5c11.2-4.9,19.5-14,21.6-23.8c-8.6-5.2-20.9-5.3-32.2-0.5
						C-223.5,187.9-231.8,197-233.9,206.8z"/>
					
						<path id="path3385_14_" inkscape:connector-curvature="0" inkscape:transform-center-x="53.360215" inkscape:transform-center-y="53.360215" class="st1" d="
						M-192.7,246.6c9.7-2.4,18.6-11,23.1-22.4c4.5-11.4,3.9-23.7-1.5-32.1c-9.7,2.4-18.6,11-23.1,22.4
						C-198.7,225.9-198.1,238.2-192.7,246.6z"/>
					<path id="path3387_14_" inkscape:connector-curvature="0" inkscape:transform-center-y="75.46274" class="st1" d="
						M-135.5,245.6c5.2-8.6,5.3-20.9,0.5-32.2c-4.9-11.2-14-19.5-23.8-21.6c-5.2,8.6-5.3,20.9-0.5,32.2
						C-154.4,235.2-145.3,243.5-135.5,245.6z"/>
					
						<path id="path3389_14_" inkscape:connector-curvature="0" inkscape:transform-center-x="-53.360215" inkscape:transform-center-y="53.360215" class="st1" d="
						M-95.7,204.5c-2.4-9.7-11-18.6-22.4-23.1c-11.4-4.5-23.7-3.9-32.1,1.5c2.4,9.7,11,18.6,22.4,23.1
						C-116.4,210.5-104.1,209.9-95.7,204.5z"/>
					<path id="path3391_14_" inkscape:connector-curvature="0" inkscape:transform-center-x="-75.462739" class="st1" d="
						M-96.7,147.2c-8.6-5.2-20.9-5.3-32.2-0.5c-11.2,4.9-19.5,14-21.6,23.8c8.6,5.2,20.9,5.3,32.2,0.5
						C-107.1,166.2-98.8,157-96.7,147.2z"/>
					
						<path id="path3393_14_" inkscape:connector-curvature="0" inkscape:transform-center-x="-53.360216" inkscape:transform-center-y="-53.360215" class="st1" d="
						M-137.8,107.5c-9.7,2.4-18.6,11-23.1,22.4c-4.5,11.4-3.9,23.7,1.5,32.1c9.7-2.4,18.6-11,23.1-22.4
						C-131.8,128.2-132.4,115.9-137.8,107.5z"/>
				</g>
			</g>
			<g id="g3474" transform="matrix(0.33102991,0,0,0.33102991,597.63086,452.28451)">
				<path id="path3476" inkscape:connector-curvature="0" inkscape:transform-center-y="-75.46274" class="st1" d="M-603.4-258.8
					c-10.8,7.7-17.6,22.6-17.6,38.9c0,16.2,6.7,31.2,17.5,38.9c10.8-7.7,17.6-22.6,17.6-38.9C-585.8-236.1-592.6-251-603.4-258.8z"
					/>
				
					<path id="path3478" inkscape:connector-curvature="0" inkscape:transform-center-x="53.360215" inkscape:transform-center-y="-53.360215" class="st1" d="
					M-673.6-229.7c-2.2,13.1,3.6,28.4,15.1,39.9c11.5,11.5,26.8,17.3,39.9,15.1c2.2-13.1-3.6-28.4-15.1-39.9
					C-645.2-226.1-660.5-231.9-673.6-229.7z"/>
				<path id="path3480" inkscape:connector-curvature="0" inkscape:transform-center-x="75.46274" class="st1" d="M-702.7-159.5
					c7.7,10.8,22.6,17.6,38.9,17.6c16.2,0,31.2-6.7,38.9-17.5c-7.7-10.8-22.6-17.6-38.9-17.6C-680-177-694.9-170.3-702.7-159.5z"/>
				
					<path id="path3482" inkscape:connector-curvature="0" inkscape:transform-center-x="53.360215" inkscape:transform-center-y="53.360215" class="st1" d="
					M-673.6-89.3c13.1,2.2,28.4-3.6,39.9-15.1c11.5-11.5,17.3-26.8,15.1-39.9c-13.1-2.2-28.4,3.6-39.9,15.1
					C-670-117.7-675.8-102.4-673.6-89.3z"/>
				<path id="path3484" inkscape:connector-curvature="0" inkscape:transform-center-y="75.46274" class="st1" d="M-603.4-60.2
					c10.8-7.7,17.6-22.6,17.6-38.9c0-16.2-6.7-31.2-17.5-38.9c-10.8,7.7-17.6,22.6-17.6,38.9C-621-82.9-614.2-67.9-603.4-60.2z"/>
				
					<path id="path3486" inkscape:connector-curvature="0" inkscape:transform-center-x="-53.360215" inkscape:transform-center-y="53.360215" class="st1" d="
					M-533.2-89.3c2.2-13.1-3.6-28.4-15.1-39.9c-11.5-11.5-26.8-17.3-39.9-15.1c-2.2,13.1,3.6,28.4,15.1,39.9
					C-561.6-92.9-546.3-87.1-533.2-89.3z"/>
				<path id="path3488" inkscape:connector-curvature="0" inkscape:transform-center-x="-75.462739" class="st1" d="M-504.1-159.5
					c-7.7-10.8-22.6-17.6-38.9-17.6c-16.2,0-31.2,6.7-38.9,17.5c7.7,10.8,22.6,17.6,38.9,17.6C-526.8-141.9-511.9-148.7-504.1-159.5
					z"/>
				
					<path id="path3490" inkscape:connector-curvature="0" inkscape:transform-center-x="-53.360216" inkscape:transform-center-y="-53.360215" class="st1" d="
					M-533.2-229.7c-13.1-2.2-28.4,3.6-39.9,15.1c-11.5,11.5-17.3,26.8-15.1,39.9c13.1,2.2,28.4-3.6,39.9-15.1
					C-536.8-201.2-531-216.6-533.2-229.7z"/>
			</g>
			<g id="g3492" transform="matrix(0.32373042,0.06913334,-0.06913334,0.32373042,659.75176,126.13027)">
				<path id="path3494" inkscape:connector-curvature="0" inkscape:transform-center-y="-75.46274" class="st1" d="M-701.5,54.1
					c-10.8,7.7-17.6,22.6-17.6,38.9c0,16.2,6.7,31.2,17.5,38.9c10.8-7.7,17.6-22.6,17.6-38.9C-684,76.7-690.7,61.8-701.5,54.1z"/>
				
					<path id="path3496" inkscape:connector-curvature="0" inkscape:transform-center-x="53.360215" inkscape:transform-center-y="-53.360215" class="st1" d="
					M-771.7,83.1c-2.2,13.1,3.6,28.4,15.1,39.9c11.5,11.5,26.8,17.3,39.9,15.1c2.2-13.1-3.6-28.4-15.1-39.9
					C-743.3,86.8-758.6,81-771.7,83.1z"/>
				<path id="path3498" inkscape:connector-curvature="0" inkscape:transform-center-x="75.46274" class="st1" d="M-800.8,153.3
					c7.7,10.8,22.6,17.6,38.9,17.6c16.2,0,31.2-6.7,38.9-17.5c-7.7-10.8-22.6-17.6-38.9-17.6C-778.2,135.8-793.1,142.5-800.8,153.3z
					"/>
				
					<path id="path3500" inkscape:connector-curvature="0" inkscape:transform-center-x="53.360215" inkscape:transform-center-y="53.360215" class="st1" d="
					M-771.8,223.5c13.1,2.2,28.4-3.6,39.9-15.1c11.5-11.5,17.3-26.8,15.1-39.9c-13.1-2.2-28.4,3.6-39.9,15.1
					C-768.1,195.1-773.9,210.4-771.8,223.5z"/>
				<path id="path3502" inkscape:connector-curvature="0" inkscape:transform-center-y="75.46274" class="st1" d="M-701.6,252.6
					c10.8-7.7,17.6-22.6,17.6-38.9c0-16.2-6.7-31.2-17.5-38.9c-10.8,7.7-17.6,22.6-17.6,38.9C-719.1,230-712.4,244.9-701.6,252.6z"
					/>
				
					<path id="path3504" inkscape:connector-curvature="0" inkscape:transform-center-x="-53.360215" inkscape:transform-center-y="53.360215" class="st1" d="
					M-631.4,223.6c2.2-13.1-3.6-28.4-15.1-39.9c-11.5-11.5-26.8-17.3-39.9-15.1c-2.2,13.1,3.6,28.4,15.1,39.9
					C-659.8,219.9-644.5,225.7-631.4,223.6z"/>
				<path id="path3506" inkscape:connector-curvature="0" inkscape:transform-center-x="-75.462739" class="st1" d="M-602.3,153.4
					c-7.7-10.8-22.6-17.6-38.9-17.6c-16.2,0-31.2,6.7-38.9,17.5c7.7,10.8,22.6,17.6,38.9,17.6C-624.9,170.9-610,164.2-602.3,153.4z"
					/>
				
					<path id="path3508" inkscape:connector-curvature="0" inkscape:transform-center-x="-53.360216" inkscape:transform-center-y="-53.360215" class="st1" d="
					M-631.3,83.2c-13.1-2.2-28.4,3.6-39.9,15.1c-11.5,11.5-17.3,26.8-15.1,39.9c13.1,2.2,28.4-3.6,39.9-15.1
					C-635,111.6-629.2,96.3-631.3,83.2z"/>
			</g>
			<g id="use3534" transform="matrix(0.05501268,-0.89595648,0.89595648,0.05501268,-163.4675,665.61859)">
				<g id="g3395_15_" transform="matrix(0.43054612,0,0,0.43054612,559.41357,245.54102)">
					<path id="path3361_15_" inkscape:connector-curvature="0" inkscape:transform-center-y="-75.46274" class="st1" d="
						M-981.9-320.7c6.3,10.1,19.3,17,33.9,17.9c14.6,0.9,28.3-4.3,35.8-13.6c-6.3-10.1-19.3-17-33.9-17.9
						C-960.6-335.1-974.3-329.9-981.9-320.7z"/>
					
						<path id="path3381_15_" inkscape:connector-curvature="0" inkscape:transform-center-x="53.360215" inkscape:transform-center-y="-53.360215" class="st1" d="
						M-959.7-256.2c11.6,2.7,25.7-1.6,36.6-11.3c10.9-9.7,17-23.1,15.7-34.9c-11.6-2.7-25.7,1.6-36.6,11.3
						C-954.9-281.4-960.9-268-959.7-256.2z"/>
					<path id="path3383_15_" inkscape:connector-curvature="0" inkscape:transform-center-x="75.46274" class="st1" d="
						M-898.4-226.2c10.1-6.3,17-19.3,17.9-33.9c0.9-14.6-4.3-28.3-13.6-35.8c-10.1,6.3-17,19.3-17.9,33.9
						C-912.9-247.5-907.7-233.7-898.4-226.2z"/>
					
						<path id="path3385_15_" inkscape:connector-curvature="0" inkscape:transform-center-x="53.360215" inkscape:transform-center-y="53.360215" class="st1" d="
						M-833.9-248.4c2.7-11.6-1.6-25.7-11.3-36.6c-9.7-10.9-23.1-17-34.9-15.7c-2.7,11.6,1.6,25.7,11.3,36.6
						C-859.2-253.2-845.8-247.2-833.9-248.4z"/>
					<path id="path3387_15_" inkscape:connector-curvature="0" inkscape:transform-center-y="75.46274" class="st1" d="M-804-309.7
						c-6.3-10.1-19.3-17-33.9-17.9c-14.6-0.9-28.3,4.3-35.8,13.6c6.3,10.1,19.3,17,33.9,17.9C-825.2-295.2-811.5-300.4-804-309.7z"
						/>
					
						<path id="path3389_15_" inkscape:connector-curvature="0" inkscape:transform-center-x="-53.360215" inkscape:transform-center-y="53.360215" class="st1" d="
						M-826.1-374.2c-11.6-2.7-25.7,1.6-36.6,11.3c-10.9,9.7-17,23.1-15.7,34.9c11.6,2.7,25.7-1.6,36.6-11.3
						C-831-348.9-824.9-362.3-826.1-374.2z"/>
					<path id="path3391_15_" inkscape:connector-curvature="0" inkscape:transform-center-x="-75.462739" class="st1" d="
						M-887.4-404.1c-10.1,6.3-17,19.3-17.9,33.9c-0.9,14.6,4.3,28.3,13.6,35.8c10.1-6.3,17-19.3,17.9-33.9
						C-873-382.8-878.2-396.6-887.4-404.1z"/>
					
						<path id="path3393_15_" inkscape:connector-curvature="0" inkscape:transform-center-x="-53.360216" inkscape:transform-center-y="-53.360215" class="st1" d="
						M-951.9-381.9c-2.7,11.6,1.6,25.7,11.3,36.6c9.7,10.9,23.1,17,34.9,15.7c2.7-11.6-1.6-25.7-11.3-36.6
						C-926.7-377.1-940.1-383.2-951.9-381.9z"/>
				</g>
			</g>
			<g id="use3536" transform="matrix(0.05501268,-0.89595648,0.89595648,0.05501268,-1.5656224,1066.2571)">
				<g id="g3395_16_" transform="matrix(0.43054612,0,0,0.43054612,559.41357,245.54102)">
					<path id="path3361_16_" inkscape:connector-curvature="0" inkscape:transform-center-y="-75.46274" class="st1" d="M-681,423.8
						c6.3,10.1,19.3,17,33.9,17.9c14.6,0.9,28.3-4.3,35.8-13.6c-6.3-10.1-19.3-17-33.9-17.9C-659.8,409.3-673.5,414.5-681,423.8z"/>
					
						<path id="path3381_16_" inkscape:connector-curvature="0" inkscape:transform-center-x="53.360215" inkscape:transform-center-y="-53.360215" class="st1" d="
						M-658.9,488.3c11.6,2.7,25.7-1.6,36.6-11.3c10.9-9.7,17-23.1,15.7-34.9c-11.6-2.7-25.7,1.6-36.6,11.3
						C-654,463-660.1,476.4-658.9,488.3z"/>
					<path id="path3383_16_" inkscape:connector-curvature="0" inkscape:transform-center-x="75.46274" class="st1" d="
						M-597.6,518.2c10.1-6.3,17-19.3,17.9-33.9c0.9-14.6-4.3-28.3-13.6-35.8c-10.1,6.3-17,19.3-17.9,33.9
						C-612,496.9-606.8,510.7-597.6,518.2z"/>
					
						<path id="path3385_16_" inkscape:connector-curvature="0" inkscape:transform-center-x="53.360215" inkscape:transform-center-y="53.360215" class="st1" d="
						M-533.1,496c2.7-11.6-1.6-25.7-11.3-36.6c-9.7-10.9-23.1-17-34.9-15.7c-2.7,11.6,1.6,25.7,11.3,36.6
						C-558.3,491.2-544.9,497.3-533.1,496z"/>
					<path id="path3387_16_" inkscape:connector-curvature="0" inkscape:transform-center-y="75.46274" class="st1" d="
						M-503.1,434.7c-6.3-10.1-19.3-17-33.9-17.9c-14.6-0.9-28.3,4.3-35.8,13.6c6.3,10.1,19.3,17,33.9,17.9
						C-524.4,449.2-510.7,444-503.1,434.7z"/>
					
						<path id="path3389_16_" inkscape:connector-curvature="0" inkscape:transform-center-x="-53.360215" inkscape:transform-center-y="53.360215" class="st1" d="
						M-525.3,370.2c-11.6-2.7-25.7,1.6-36.6,11.3c-10.9,9.7-17,23.1-15.7,34.9c11.6,2.7,25.7-1.6,36.6-11.3
						C-530.1,395.5-524.1,382.1-525.3,370.2z"/>
					<path id="path3391_16_" inkscape:connector-curvature="0" inkscape:transform-center-x="-75.462739" class="st1" d="
						M-586.6,340.3c-10.1,6.3-17,19.3-17.9,33.9c-0.9,14.6,4.3,28.3,13.6,35.8c10.1-6.3,17-19.3,17.9-33.9
						C-572.1,361.6-577.3,347.8-586.6,340.3z"/>
					
						<path id="path3393_16_" inkscape:connector-curvature="0" inkscape:transform-center-x="-53.360216" inkscape:transform-center-y="-53.360215" class="st1" d="
						M-651.1,362.5c-2.7,11.6,1.6,25.7,11.3,36.6c9.7,10.9,23.1,17,34.9,15.7c2.7-11.6-1.6-25.7-11.3-36.6
						C-625.8,367.3-639.2,361.3-651.1,362.5z"/>
				</g>
			</g>
			<g id="use3538" transform="matrix(0.04239719,-0.69049605,0.69049605,0.04239719,249.70253,771.66102)">
				<g id="g3395_17_" transform="matrix(0.43054612,0,0,0.43054612,559.41357,245.54102)">
					<path id="path3361_17_" inkscape:connector-curvature="0" inkscape:transform-center-y="-75.46274" class="st1" d="
						M-377.6,55.4c4.9,7.8,14.9,13.1,26.1,13.8c11.2,0.7,21.8-3.3,27.6-10.5c-4.9-7.8-14.9-13.1-26.1-13.8
						C-361.3,44.2-371.9,48.2-377.6,55.4z"/>
					
						<path id="path3381_17_" inkscape:connector-curvature="0" inkscape:transform-center-x="53.360215" inkscape:transform-center-y="-53.360215" class="st1" d="
						M-360.6,105.1c9,2.1,19.8-1.3,28.2-8.7c8.4-7.4,13.1-17.8,12.1-26.9c-9-2.1-19.8,1.3-28.2,8.7
						C-356.9,85.6-361.5,95.9-360.6,105.1z"/>
					<path id="path3383_17_" inkscape:connector-curvature="0" inkscape:transform-center-x="75.46274" class="st1" d="
						M-313.3,128.1c7.8-4.9,13.1-14.9,13.8-26.1c0.7-11.2-3.3-21.8-10.5-27.6c-7.8,4.9-13.1,14.9-13.8,26.1
						C-324.5,111.8-320.5,122.3-313.3,128.1z"/>
					
						<path id="path3385_17_" inkscape:connector-curvature="0" inkscape:transform-center-x="53.360215" inkscape:transform-center-y="53.360215" class="st1" d="
						M-263.6,111.1c2.1-9-1.3-19.8-8.7-28.2c-7.4-8.4-17.8-13.1-26.9-12.1c-2.1,9,1.3,19.8,8.7,28.2
						C-283.1,107.3-272.8,112-263.6,111.1z"/>
					<path id="path3387_17_" inkscape:connector-curvature="0" inkscape:transform-center-y="75.46274" class="st1" d="M-240.6,63.8
						c-4.9-7.8-14.9-13.1-26.1-13.8c-11.2-0.7-21.8,3.3-27.6,10.5c4.9,7.8,14.9,13.1,26.1,13.8C-256.9,75-246.3,71-240.6,63.8z"/>
					
						<path id="path3389_17_" inkscape:connector-curvature="0" inkscape:transform-center-x="-53.360215" inkscape:transform-center-y="53.360215" class="st1" d="
						M-257.6,14.1c-9-2.1-19.8,1.3-28.2,8.7c-8.4,7.4-13.1,17.8-12.1,26.9c9,2.1,19.8-1.3,28.2-8.7
						C-261.3,33.6-256.7,23.3-257.6,14.1z"/>
					<path id="path3391_17_" inkscape:connector-curvature="0" inkscape:transform-center-x="-75.462739" class="st1" d="
						M-304.9-8.9c-7.8,4.9-13.1,14.9-13.8,26.1c-0.7,11.2,3.3,21.8,10.5,27.6c7.8-4.9,13.1-14.9,13.8-26.1
						C-293.7,7.4-297.7-3.2-304.9-8.9z"/>
					
						<path id="path3393_17_" inkscape:connector-curvature="0" inkscape:transform-center-x="-53.360216" inkscape:transform-center-y="-53.360215" class="st1" d="
						M-354.6,8.1c-2.1,9,1.3,19.8,8.7,28.2c7.4,8.4,17.8,13.1,26.9,12.1c2.1-9-1.3-19.8-8.7-28.2C-335.1,11.8-345.4,7.2-354.6,8.1z"
						/>
				</g>
			</g>
			<g id="use3540" transform="matrix(0.57577015,-0.65476777,0.65476777,0.57577015,-231.87675,277.27263)">
				<g id="g3395_18_" transform="matrix(0.43054612,0,0,0.43054612,559.41357,245.54102)">
					<path id="path3361_18_" inkscape:connector-curvature="0" inkscape:transform-center-y="-75.46274" class="st1" d="M-810-436.1
						c-1.2,11.5,4.7,24.5,15.3,33.9c10.6,9.4,24.3,13.5,35.6,10.9c1.2-11.5-4.7-24.5-15.3-33.9C-785.1-434.5-798.8-438.7-810-436.1z
						"/>
					
						<path id="path3381_18_" inkscape:connector-curvature="0" inkscape:transform-center-x="53.360215" inkscape:transform-center-y="-53.360215" class="st1" d="
						M-831.4-373.4c7.3,9,20.7,14,34.8,13.1c14.1-0.9,26.8-7.6,32.9-17.4c-7.3-9-20.7-14-34.8-13.1
						C-812.7-389.9-825.3-383.2-831.4-373.4z"/>
					<path id="path3383_18_" inkscape:connector-curvature="0" inkscape:transform-center-x="75.46274" class="st1" d="
						M-802.2-313.9c11.5,1.2,24.5-4.7,33.9-15.3c9.4-10.6,13.5-24.3,10.9-35.6c-11.5-1.2-24.5,4.7-33.9,15.3
						C-800.7-338.9-804.8-325.2-802.2-313.9z"/>
					
						<path id="path3385_18_" inkscape:connector-curvature="0" inkscape:transform-center-x="53.360215" inkscape:transform-center-y="53.360215" class="st1" d="
						M-739.5-292.5c9-7.3,14-20.7,13.1-34.8c-0.9-14.1-7.6-26.8-17.4-32.9c-9,7.3-14,20.7-13.1,34.8
						C-756-311.3-749.4-298.6-739.5-292.5z"/>
					<path id="path3387_18_" inkscape:connector-curvature="0" inkscape:transform-center-y="75.46274" class="st1" d="
						M-680.1-321.7c1.2-11.5-4.7-24.5-15.3-33.9c-10.6-9.4-24.3-13.5-35.6-10.9c-1.2,11.5,4.7,24.5,15.3,33.9
						C-705-323.3-691.3-319.1-680.1-321.7z"/>
					
						<path id="path3389_18_" inkscape:connector-curvature="0" inkscape:transform-center-x="-53.360215" inkscape:transform-center-y="53.360215" class="st1" d="
						M-658.7-384.4c-7.3-9-20.7-14-34.8-13.1c-14.1,0.9-26.8,7.6-32.9,17.4c7.3,9,20.7,14,34.8,13.1
						C-677.4-367.9-664.8-374.6-658.7-384.4z"/>
					<path id="path3391_18_" inkscape:connector-curvature="0" inkscape:transform-center-x="-75.462739" class="st1" d="
						M-687.9-443.9c-11.5-1.2-24.5,4.7-33.9,15.3c-9.4,10.6-13.5,24.3-10.9,35.6c11.5,1.2,24.5-4.7,33.9-15.3
						C-689.4-419-685.3-432.6-687.9-443.9z"/>
					
						<path id="path3393_18_" inkscape:connector-curvature="0" inkscape:transform-center-x="-53.360216" inkscape:transform-center-y="-53.360215" class="st1" d="
						M-750.6-465.3c-9,7.3-14,20.7-13.1,34.8c0.9,14.1,7.6,26.8,17.4,32.9c9-7.3,14-20.7,13.1-34.8
						C-734.1-446.5-740.7-459.2-750.6-465.3z"/>
				</g>
			</g>
			<g id="use3542" transform="matrix(0.05343574,-0.87027393,0.87027393,0.05343574,-125.02722,864.95812)">
				<g id="g3395_19_" transform="matrix(0.43054612,0,0,0.43054612,559.41357,245.54102)">
					<path id="path3361_19_" inkscape:connector-curvature="0" inkscape:transform-center-y="-75.46274" class="st1" d="
						M-930.9,72.1c6.1,9.8,18.8,16.5,32.9,17.4c14.1,0.9,27.5-4.2,34.8-13.2c-6.1-9.8-18.8-16.5-32.9-17.4
						C-910.2,58.1-923.6,63.1-930.9,72.1z"/>
					
						<path id="path3381_19_" inkscape:connector-curvature="0" inkscape:transform-center-x="53.360215" inkscape:transform-center-y="-53.360215" class="st1" d="
						M-909.3,134.8c11.3,2.6,24.9-1.6,35.6-11c10.6-9.4,16.5-22.4,15.3-33.9c-11.3-2.6-24.9,1.6-35.6,11
						C-904.7,110.2-910.5,123.2-909.3,134.8z"/>
					<path id="path3383_19_" inkscape:connector-curvature="0" inkscape:transform-center-x="75.46274" class="st1" d="
						M-849.8,163.8c9.8-6.1,16.5-18.8,17.4-32.9c0.9-14.1-4.2-27.5-13.2-34.8c-9.8,6.1-16.5,18.8-17.4,32.9
						C-863.9,143.2-858.8,156.5-849.8,163.8z"/>
					
						<path id="path3385_19_" inkscape:connector-curvature="0" inkscape:transform-center-x="53.360215" inkscape:transform-center-y="53.360215" class="st1" d="
						M-787.2,142.3c2.6-11.3-1.6-24.9-11-35.6c-9.4-10.6-22.4-16.5-33.9-15.3c-2.6,11.3,1.6,24.9,11,35.6
						C-811.7,137.6-798.7,143.5-787.2,142.3z"/>
					<path id="path3387_19_" inkscape:connector-curvature="0" inkscape:transform-center-y="75.46274" class="st1" d="M-758.1,82.8
						c-6.1-9.8-18.8-16.5-32.9-17.4c-14.1-0.9-27.5,4.2-34.8,13.2c6.1,9.8,18.8,16.5,32.9,17.4C-778.7,96.8-765.4,91.8-758.1,82.8z"
						/>
					
						<path id="path3389_19_" inkscape:connector-curvature="0" inkscape:transform-center-x="-53.360215" inkscape:transform-center-y="53.360215" class="st1" d="
						M-779.6,20.1c-11.3-2.6-24.9,1.6-35.6,11c-10.6,9.4-16.5,22.4-15.3,33.9c11.3,2.6,24.9-1.6,35.6-11
						C-784.3,44.7-778.4,31.6-779.6,20.1z"/>
					<path id="path3391_19_" inkscape:connector-curvature="0" inkscape:transform-center-x="-75.462739" class="st1" d="
						M-839.2-8.9C-849-2.8-855.7,9.8-856.5,24c-0.9,14.1,4.2,27.5,13.2,34.8c9.8-6.1,16.5-18.8,17.4-32.9
						C-825.1,11.7-830.2-1.7-839.2-8.9z"/>
					
						<path id="path3393_19_" inkscape:connector-curvature="0" inkscape:transform-center-x="-53.360216" inkscape:transform-center-y="-53.360215" class="st1" d="
						M-901.8,12.6c-2.6,11.3,1.6,24.9,11,35.6c9.4,10.6,22.4,16.5,33.9,15.3c2.6-11.3-1.6-24.9-11-35.6
						C-877.3,17.3-890.3,11.4-901.8,12.6z"/>
				</g>
			</g>
			<g id="use3544" transform="matrix(0.78622335,0.08940049,-0.08940049,0.78622335,-222.72999,175.38196)">
				<g id="g3395_20_" transform="matrix(0.43054612,0,0,0.43054612,559.41357,245.54102)">
					<path id="path3361_20_" inkscape:connector-curvature="0" inkscape:transform-center-y="-75.46274" class="st1" d="
						M-1150.5,212.3c-9.2,5.1-15.8,16.2-17.3,29c-1.4,12.8,2.5,25.1,10.3,32.2c9.2-5.1,15.8-16.2,17.3-29
						C-1138.7,231.7-1142.7,219.3-1150.5,212.3z"/>
					
						<path id="path3381_20_" inkscape:connector-curvature="0" inkscape:transform-center-x="53.360215" inkscape:transform-center-y="-53.360215" class="st1" d="
						M-1208.3,228.9c-2.9,10.1,0.3,22.7,8.3,32.7c8,10.1,19.5,16,30,15.4c2.9-10.1-0.3-22.7-8.3-32.7
						C-1186.2,234.2-1197.8,228.3-1208.3,228.9z"/>
					<path id="path3383_20_" inkscape:connector-curvature="0" inkscape:transform-center-x="75.46274" class="st1" d="
						M-1237.4,281.4c5.1,9.2,16.2,15.8,29,17.3c12.8,1.4,25.1-2.5,32.2-10.3c-5.1-9.2-16.2-15.8-29-17.3
						C-1218,269.7-1230.4,273.6-1237.4,281.4z"/>
					
						<path id="path3385_20_" inkscape:connector-curvature="0" inkscape:transform-center-x="53.360215" inkscape:transform-center-y="53.360215" class="st1" d="
						M-1220.8,339.2c10.1,2.9,22.7-0.3,32.7-8.3c10.1-8,16-19.5,15.4-30c-10.1-2.9-22.7,0.3-32.7,8.3
						C-1215.4,317.2-1221.4,328.7-1220.8,339.2z"/>
					<path id="path3387_20_" inkscape:connector-curvature="0" inkscape:transform-center-y="75.46274" class="st1" d="
						M-1168.3,368.4c9.2-5.1,15.8-16.2,17.3-29c1.4-12.8-2.5-25.1-10.3-32.2c-9.2,5.1-15.8,16.2-17.3,29
						C-1180,349-1176.1,361.3-1168.3,368.4z"/>
					
						<path id="path3389_20_" inkscape:connector-curvature="0" inkscape:transform-center-x="-53.360215" inkscape:transform-center-y="53.360215" class="st1" d="
						M-1110.5,351.8c2.9-10.1-0.3-22.7-8.3-32.7c-8-10.1-19.5-16-30-15.4c-2.9,10.1,0.3,22.7,8.3,32.7
						C-1132.5,346.4-1121,352.4-1110.5,351.8z"/>
					<path id="path3391_20_" inkscape:connector-curvature="0" inkscape:transform-center-x="-75.462739" class="st1" d="
						M-1081.3,299.2c-5.1-9.2-16.2-15.8-29-17.3c-12.8-1.4-25.1,2.5-32.2,10.3c5.1,9.2,16.2,15.8,29,17.3
						C-1100.7,311-1088.4,307-1081.3,299.2z"/>
					
						<path id="path3393_20_" inkscape:connector-curvature="0" inkscape:transform-center-x="-53.360216" inkscape:transform-center-y="-53.360215" class="st1" d="
						M-1097.9,241.4c-10.1-2.9-22.7,0.3-32.7,8.3c-10.1,8-16,19.5-15.4,30c10.1,2.9,22.7-0.3,32.7-8.3
						C-1103.3,263.5-1097.3,251.9-1097.9,241.4z"/>
				</g>
			</g>
			<path id="path4348" inkscape:connector-curvature="0" class="st2" d="M248.1,700.2c-17.3-16.5-16.4-39.3-23.1-59.3
				c-18.1-54.4,7.7-107.4,7.7-155.9c0-7.5,10.8-27.3,5.5-22C199.5,501.8,176.6,695.5,248.1,700.2z"/>
			<g id="use4350" transform="matrix(0.78754574,-0.03833587,0.03833587,0.78754574,103.39398,336.5895)">
				<g id="g3395_21_" transform="matrix(0.43054612,0,0,0.43054612,559.41357,245.54102)">
					<path id="path3361_21_" inkscape:connector-curvature="0" inkscape:transform-center-y="-75.46274" class="st1" d="
						M-448.8,395.7c-8.2,6.5-13,18.5-12.4,31.3c0.6,12.8,6.5,24.3,15.3,30c8.2-6.5,13-18.5,12.4-31.3
						C-434.1,412.9-440,401.4-448.8,395.7z"/>
					
						<path id="path3381_21_" inkscape:connector-curvature="0" inkscape:transform-center-x="53.360215" inkscape:transform-center-y="-53.360215" class="st1" d="
						M-503,421.3c-1.2,10.4,3.9,22.3,13.4,30.9c9.5,8.6,21.8,12.6,32,10.4c1.2-10.4-3.9-22.3-13.4-30.9
						C-480.5,423.1-492.8,419.1-503,421.3z"/>
					<path id="path3383_21_" inkscape:connector-curvature="0" inkscape:transform-center-x="75.46274" class="st1" d="
						M-523.2,477.7c6.5,8.2,18.5,13,31.3,12.4c12.8-0.6,24.3-6.5,30-15.3c-6.5-8.2-18.5-13-31.3-12.4
						C-506,463-517.5,468.9-523.2,477.7z"/>
					
						<path id="path3385_21_" inkscape:connector-curvature="0" inkscape:transform-center-x="53.360215" inkscape:transform-center-y="53.360215" class="st1" d="
						M-497.6,531.9c10.4,1.2,22.3-3.9,30.9-13.4c8.6-9.5,12.6-21.8,10.4-32c-10.4-1.2-22.3,3.9-30.9,13.4
						C-495.9,509.4-499.9,521.6-497.6,531.9z"/>
					<path id="path3387_21_" inkscape:connector-curvature="0" inkscape:transform-center-y="75.46274" class="st1" d="
						M-441.2,552.1c8.2-6.5,13-18.5,12.4-31.3c-0.6-12.8-6.5-24.3-15.3-30c-8.2,6.5-13,18.5-12.4,31.3
						C-455.9,534.9-450.1,546.4-441.2,552.1z"/>
					
						<path id="path3389_21_" inkscape:connector-curvature="0" inkscape:transform-center-x="-53.360215" inkscape:transform-center-y="53.360215" class="st1" d="
						M-387.1,526.5c1.2-10.4-3.9-22.3-13.4-30.9c-9.5-8.6-21.8-12.6-32-10.4c-1.2,10.4,3.9,22.3,13.4,30.9
						C-409.6,524.8-397.3,528.7-387.1,526.5z"/>
					<path id="path3391_21_" inkscape:connector-curvature="0" inkscape:transform-center-x="-75.462739" class="st1" d="
						M-366.9,470.1c-6.5-8.2-18.5-13-31.3-12.4c-12.8,0.6-24.3,6.5-30,15.3c6.5,8.2,18.5,13,31.3,12.4
						C-384,484.8-372.5,478.9-366.9,470.1z"/>
					
						<path id="path3393_21_" inkscape:connector-curvature="0" inkscape:transform-center-x="-53.360216" inkscape:transform-center-y="-53.360215" class="st1" d="
						M-392.4,416c-10.4-1.2-22.3,3.9-30.9,13.4c-8.6,9.5-12.6,21.8-10.4,32c10.4,1.2,22.3-3.9,30.9-13.4
						C-394.2,438.5-390.2,426.2-392.4,416z"/>
				</g>
			</g>
			<g id="use4352" transform="matrix(0.3526224,0.36294646,-0.36294646,0.3526224,506.68232,-72.727394)">
				<g id="g3395_22_" transform="matrix(0.43054612,0,0,0.43054612,559.41357,245.54102)">
					<path id="path3361_22_" inkscape:connector-curvature="0" inkscape:transform-center-y="-75.46274" class="st1" d="
						M-394.8-318.7c-6.6-1.2-14.4,1.6-20.3,7.3c-5.9,5.7-8.9,13.4-7.9,20.1c6.6,1.2,14.4-1.6,20.3-7.3
						C-396.9-304.3-393.8-312-394.8-318.7z"/>
					
						<path id="path3381_22_" inkscape:connector-curvature="0" inkscape:transform-center-x="53.360215" inkscape:transform-center-y="-53.360215" class="st1" d="
						M-430.1-333.9c-5.5,3.8-9.1,11.3-9.2,19.6c-0.1,8.2,3.2,15.8,8.6,19.8c5.5-3.8,9.1-11.3,9.2-19.6
						C-421.4-322.3-424.7-329.9-430.1-333.9z"/>
					<path id="path3383_22_" inkscape:connector-curvature="0" inkscape:transform-center-x="75.46274" class="st1" d="
						M-465.9-319.7c-1.2,6.6,1.6,14.4,7.3,20.3c5.7,5.9,13.4,8.9,20.1,7.9c1.2-6.6-1.6-14.4-7.3-20.3
						C-451.5-317.7-459.2-320.7-465.9-319.7z"/>
					
						<path id="path3385_22_" inkscape:connector-curvature="0" inkscape:transform-center-x="53.360215" inkscape:transform-center-y="53.360215" class="st1" d="
						M-481.1-284.4c3.8,5.5,11.3,9.1,19.6,9.2c8.2,0.1,15.8-3.2,19.8-8.6c-3.8-5.5-11.3-9.1-19.6-9.2
						C-469.5-293.1-477.1-289.8-481.1-284.4z"/>
					<path id="path3387_22_" inkscape:connector-curvature="0" inkscape:transform-center-y="75.46274" class="st1" d="
						M-466.9-248.7c6.6,1.2,14.4-1.6,20.3-7.3c5.9-5.7,8.9-13.4,7.9-20.1c-6.6-1.2-14.4,1.6-20.3,7.3
						C-464.9-263-467.9-255.3-466.9-248.7z"/>
					
						<path id="path3389_22_" inkscape:connector-curvature="0" inkscape:transform-center-x="-53.360215" inkscape:transform-center-y="53.360215" class="st1" d="
						M-431.6-233.4c5.5-3.8,9.1-11.3,9.2-19.6c0.1-8.2-3.2-15.8-8.6-19.8c-5.5,3.8-9.1,11.3-9.2,19.6
						C-440.3-245-437-237.4-431.6-233.4z"/>
					<path id="path3391_22_" inkscape:connector-curvature="0" inkscape:transform-center-x="-75.462739" class="st1" d="
						M-395.9-247.6c1.2-6.6-1.6-14.4-7.3-20.3c-5.7-5.9-13.4-8.9-20.1-7.9c-1.2,6.6,1.6,14.4,7.3,20.3
						C-410.2-249.7-402.5-246.6-395.9-247.6z"/>
					
						<path id="path3393_22_" inkscape:connector-curvature="0" inkscape:transform-center-x="-53.360216" inkscape:transform-center-y="-53.360215" class="st1" d="
						M-380.7-282.9c-3.8-5.5-11.3-9.1-19.6-9.2c-8.2-0.1-15.8,3.2-19.8,8.6c3.8,5.5,11.3,9.1,19.6,9.2
						C-392.2-274.2-384.6-277.5-380.7-282.9z"/>
				</g>
			</g>
			<g id="use4354" transform="matrix(0.46001093,0.47347911,-0.47347911,0.46001093,580.44369,116.52197)">
				<g id="g3395_23_" transform="matrix(0.43054612,0,0,0.43054612,559.41357,245.54102)">
					<path id="path3361_23_" inkscape:connector-curvature="0" inkscape:transform-center-y="-75.46274" class="st1" d="
						M-241.1,213.7c-8.6-1.6-18.8,2.1-26.5,9.6c-7.7,7.5-11.7,17.5-10.3,26.2c8.6,1.6,18.8-2.1,26.5-9.6
						C-243.8,232.4-239.8,222.4-241.1,213.7z"/>
					
						<path id="path3381_23_" inkscape:connector-curvature="0" inkscape:transform-center-x="53.360215" inkscape:transform-center-y="-53.360215" class="st1" d="
						M-287.2,193.8c-7.2,5-11.8,14.8-12,25.5c-0.2,10.7,4.1,20.6,11.2,25.8c7.2-5,11.8-14.8,12-25.5
						C-275.8,209-280.1,199-287.2,193.8z"/>
					<path id="path3383_23_" inkscape:connector-curvature="0" inkscape:transform-center-x="75.46274" class="st1" d="
						M-333.8,212.3c-1.6,8.6,2.1,18.8,9.6,26.5c7.5,7.7,17.5,11.7,26.2,10.3c1.6-8.6-2.1-18.8-9.6-26.5
						C-315,215-325.1,211-333.8,212.3z"/>
					
						<path id="path3385_23_" inkscape:connector-curvature="0" inkscape:transform-center-x="53.360215" inkscape:transform-center-y="53.360215" class="st1" d="
						M-353.6,258.4c5,7.2,14.8,11.8,25.5,12c10.7,0.2,20.6-4.1,25.8-11.2c-5-7.2-14.8-11.8-25.5-12
						C-338.5,247-348.4,251.3-353.6,258.4z"/>
					<path id="path3387_23_" inkscape:connector-curvature="0" inkscape:transform-center-y="75.46274" class="st1" d="M-335.1,305
						c8.6,1.6,18.8-2.1,26.5-9.6c7.7-7.5,11.7-17.5,10.3-26.2c-8.6-1.6-18.8,2.1-26.5,9.6C-332.5,286.3-336.4,296.3-335.1,305z"/>
					
						<path id="path3389_23_" inkscape:connector-curvature="0" inkscape:transform-center-x="-53.360215" inkscape:transform-center-y="53.360215" class="st1" d="
						M-289.1,324.9c7.2-5,11.8-14.8,12-25.5c0.2-10.7-4.1-20.6-11.2-25.8c-7.2,5-11.8,14.8-12,25.5
						C-300.4,309.8-296.1,319.7-289.1,324.9z"/>
					<path id="path3391_23_" inkscape:connector-curvature="0" inkscape:transform-center-x="-75.462739" class="st1" d="
						M-242.5,306.4c1.6-8.6-2.1-18.8-9.6-26.5c-7.5-7.7-17.5-11.7-26.2-10.3c-1.6,8.6,2.1,18.8,9.6,26.5
						C-261.2,303.7-251.1,307.7-242.5,306.4z"/>
					
						<path id="path3393_23_" inkscape:connector-curvature="0" inkscape:transform-center-x="-53.360216" inkscape:transform-center-y="-53.360215" class="st1" d="
						M-222.6,260.3c-5-7.2-14.8-11.8-25.5-12c-10.7-0.2-20.6,4.1-25.8,11.2c5,7.2,14.8,11.8,25.5,12
						C-237.7,271.7-227.8,267.4-222.6,260.3z"/>
				</g>
			</g>
			<g id="use4356" transform="matrix(0.3526224,0.36294646,-0.36294646,0.3526224,158.18167,330.65525)">
				<g id="g3395_24_" transform="matrix(0.43054612,0,0,0.43054612,559.41357,245.54102)">
					<path id="path3361_24_" inkscape:connector-curvature="0" inkscape:transform-center-y="-75.46274" class="st1" d="
						M-1042.4,430.9c-6.6-1.2-14.4,1.6-20.3,7.3c-5.9,5.7-8.9,13.4-7.9,20.1c6.6,1.2,14.4-1.6,20.3-7.3
						C-1044.4,445.2-1041.4,437.5-1042.4,430.9z"/>
					
						<path id="path3381_24_" inkscape:connector-curvature="0" inkscape:transform-center-x="53.360215" inkscape:transform-center-y="-53.360215" class="st1" d="
						M-1077.7,415.6c-5.5,3.8-9.1,11.3-9.2,19.6c-0.1,8.2,3.2,15.8,8.6,19.8c5.5-3.8,9.1-11.3,9.2-19.6
						C-1069,427.2-1072.3,419.6-1077.7,415.6z"/>
					<path id="path3383_24_" inkscape:connector-curvature="0" inkscape:transform-center-x="75.46274" class="st1" d="
						M-1113.4,429.8c-1.2,6.6,1.6,14.4,7.3,20.3c5.7,5.9,13.4,8.9,20.1,7.9c1.2-6.6-1.6-14.4-7.3-20.3
						C-1099.1,431.9-1106.8,428.8-1113.4,429.8z"/>
					
						<path id="path3385_24_" inkscape:connector-curvature="0" inkscape:transform-center-x="53.360215" inkscape:transform-center-y="53.360215" class="st1" d="
						M-1128.7,465.1c3.8,5.5,11.3,9.1,19.6,9.2c8.2,0.1,15.8-3.2,19.8-8.6c-3.8-5.5-11.3-9.1-19.6-9.2
						C-1117.1,456.4-1124.7,459.7-1128.7,465.1z"/>
					<path id="path3387_24_" inkscape:connector-curvature="0" inkscape:transform-center-y="75.46274" class="st1" d="
						M-1114.5,500.9c6.6,1.2,14.4-1.6,20.3-7.3c5.9-5.7,8.9-13.4,7.9-20.1c-6.6-1.2-14.4,1.6-20.3,7.3
						C-1112.4,486.5-1115.5,494.2-1114.5,500.9z"/>
					
						<path id="path3389_24_" inkscape:connector-curvature="0" inkscape:transform-center-x="-53.360215" inkscape:transform-center-y="53.360215" class="st1" d="
						M-1079.2,516.1c5.5-3.8,9.1-11.3,9.2-19.6c0.1-8.2-3.2-15.8-8.6-19.8c-5.5,3.8-9.1,11.3-9.2,19.6
						C-1087.9,504.5-1084.6,512.1-1079.2,516.1z"/>
					<path id="path3391_24_" inkscape:connector-curvature="0" inkscape:transform-center-x="-75.462739" class="st1" d="
						M-1043.4,501.9c1.2-6.6-1.6-14.4-7.3-20.3c-5.7-5.9-13.4-8.9-20.1-7.9c-1.2,6.6,1.6,14.4,7.3,20.3
						C-1057.8,499.9-1050.1,502.9-1043.4,501.9z"/>
					
						<path id="path3393_24_" inkscape:connector-curvature="0" inkscape:transform-center-x="-53.360216" inkscape:transform-center-y="-53.360215" class="st1" d="
						M-1028.2,466.6c-3.8-5.5-11.3-9.1-19.6-9.2c-8.2-0.1-15.8,3.2-19.8,8.6c3.8,5.5,11.3,9.1,19.6,9.2
						C-1039.8,475.3-1032.2,472-1028.2,466.6z"/>
				</g>
			</g>
			<g id="use4358" transform="matrix(0.3526224,0.36294646,-0.36294646,0.3526224,211.69161,86.430384)">
				<g id="g3395_25_" transform="matrix(0.43054612,0,0,0.43054612,559.41357,245.54102)">
					<path id="path3361_25_" inkscape:connector-curvature="0" inkscape:transform-center-y="-75.46274" class="st1" d="M-943-22.9
						c-6.6-1.2-14.4,1.6-20.3,7.3c-5.9,5.7-8.9,13.4-7.9,20.1c6.6,1.2,14.4-1.6,20.3-7.3C-945-8.6-942-16.3-943-22.9z"/>
					
						<path id="path3381_25_" inkscape:connector-curvature="0" inkscape:transform-center-x="53.360215" inkscape:transform-center-y="-53.360215" class="st1" d="
						M-978.3-38.2c-5.5,3.8-9.1,11.3-9.2,19.6c-0.1,8.2,3.2,15.8,8.6,19.8c5.5-3.8,9.1-11.3,9.2-19.6
						C-969.6-26.6-972.9-34.2-978.3-38.2z"/>
					<path id="path3383_25_" inkscape:connector-curvature="0" inkscape:transform-center-x="75.46274" class="st1" d="M-1014-24
						c-1.2,6.6,1.6,14.4,7.3,20.3c5.7,5.9,13.4,8.9,20.1,7.9c1.2-6.6-1.6-14.4-7.3-20.3C-999.6-21.9-1007.4-25-1014-24z"/>
					
						<path id="path3385_25_" inkscape:connector-curvature="0" inkscape:transform-center-x="53.360215" inkscape:transform-center-y="53.360215" class="st1" d="
						M-1029.2,11.3c3.8,5.5,11.3,9.1,19.6,9.2c8.2,0.1,15.8-3.2,19.8-8.6c-3.8-5.5-11.3-9.1-19.6-9.2
						C-1017.6,2.6-1025.2,5.9-1029.2,11.3z"/>
					<path id="path3387_25_" inkscape:connector-curvature="0" inkscape:transform-center-y="75.46274" class="st1" d="M-1015,47.1
						c6.6,1.2,14.4-1.6,20.3-7.3c5.9-5.7,8.9-13.4,7.9-20.1c-6.6-1.2-14.4,1.6-20.3,7.3C-1013,32.7-1016.1,40.4-1015,47.1z"/>
					
						<path id="path3389_25_" inkscape:connector-curvature="0" inkscape:transform-center-x="-53.360215" inkscape:transform-center-y="53.360215" class="st1" d="
						M-979.7,62.3c5.5-3.8,9.1-11.3,9.2-19.6c0.1-8.2-3.2-15.8-8.6-19.8c-5.5,3.8-9.1,11.3-9.2,19.6
						C-988.5,50.7-985.2,58.3-979.7,62.3z"/>
					<path id="path3391_25_" inkscape:connector-curvature="0" inkscape:transform-center-x="-75.462739" class="st1" d="M-944,48.1
						c1.2-6.6-1.6-14.4-7.3-20.3c-5.7-5.9-13.4-8.9-20.1-7.9c-1.2,6.6,1.6,14.4,7.3,20.3C-958.4,46.1-950.7,49.1-944,48.1z"/>
					
						<path id="path3393_25_" inkscape:connector-curvature="0" inkscape:transform-center-x="-53.360216" inkscape:transform-center-y="-53.360215" class="st1" d="
						M-928.8,12.8c-3.8-5.5-11.3-9.1-19.6-9.2c-8.2-0.1-15.8,3.2-19.8,8.6c3.8,5.5,11.3,9.1,19.6,9.2
						C-940.4,21.5-932.8,18.2-928.8,12.8z"/>
				</g>
			</g>
			<g id="use4360" transform="matrix(0.49580711,0.51032332,-0.51032332,0.49580711,243.26701,132.9554)">
				<g id="g3395_26_" transform="matrix(0.43054612,0,0,0.43054612,559.41357,245.54102)">
					<path id="path3361_26_" inkscape:connector-curvature="0" inkscape:transform-center-y="-75.46274" class="st1" d="
						M-862.1,304.5c-9.3-1.7-20.3,2.3-28.6,10.3c-8.3,8.1-12.6,18.9-11.2,28.2c9.3,1.7,20.3-2.3,28.6-10.3
						C-864.9,324.7-860.6,313.8-862.1,304.5z"/>
					
						<path id="path3381_26_" inkscape:connector-curvature="0" inkscape:transform-center-x="53.360215" inkscape:transform-center-y="-53.360215" class="st1" d="
						M-911.7,283.1c-7.8,5.4-12.7,15.9-12.9,27.5c-0.2,11.6,4.5,22.2,12.1,27.9c7.8-5.4,12.7-15.9,12.9-27.5
						C-899.4,299.4-904.1,288.7-911.7,283.1z"/>
					<path id="path3383_26_" inkscape:connector-curvature="0" inkscape:transform-center-x="75.46274" class="st1" d="M-961.9,303
						c-1.7,9.3,2.3,20.3,10.3,28.6c8.1,8.3,18.9,12.6,28.2,11.2c1.7-9.3-2.3-20.3-10.3-28.6C-941.7,305.9-952.6,301.6-961.9,303z"/>
					
						<path id="path3385_26_" inkscape:connector-curvature="0" inkscape:transform-center-x="53.360215" inkscape:transform-center-y="53.360215" class="st1" d="
						M-983.3,352.7c5.4,7.8,15.9,12.7,27.5,12.9c11.6,0.2,22.2-4.5,27.9-12.1c-5.4-7.8-15.9-12.7-27.5-12.9
						C-967,340.4-977.7,345-983.3,352.7z"/>
					<path id="path3387_26_" inkscape:connector-curvature="0" inkscape:transform-center-y="75.46274" class="st1" d="
						M-963.4,402.9c9.3,1.7,20.3-2.3,28.6-10.3c8.3-8.1,12.6-18.9,11.2-28.2c-9.3-1.7-20.3,2.3-28.6,10.3
						C-960.5,382.7-964.8,393.6-963.4,402.9z"/>
					
						<path id="path3389_26_" inkscape:connector-curvature="0" inkscape:transform-center-x="-53.360215" inkscape:transform-center-y="53.360215" class="st1" d="
						M-913.8,424.3c7.8-5.4,12.7-15.9,12.9-27.5c0.2-11.6-4.5-22.2-12.1-27.9c-7.8,5.4-12.7,15.9-12.9,27.5
						C-926,408-921.4,418.7-913.8,424.3z"/>
					<path id="path3391_26_" inkscape:connector-curvature="0" inkscape:transform-center-x="-75.462739" class="st1" d="
						M-863.5,404.4c1.7-9.3-2.3-20.3-10.3-28.6c-8.1-8.3-18.9-12.6-28.2-11.2c-1.7,9.3,2.3,20.3,10.3,28.6
						C-883.7,401.5-872.9,405.8-863.5,404.4z"/>
					
						<path id="path3393_26_" inkscape:connector-curvature="0" inkscape:transform-center-x="-53.360216" inkscape:transform-center-y="-53.360215" class="st1" d="
						M-842.1,354.7c-5.4-7.8-15.9-12.7-27.5-12.9c-11.6-0.2-22.2,4.5-27.9,12.1c5.4,7.8,15.9,12.7,27.5,12.9
						C-858.4,367-847.7,362.3-842.1,354.7z"/>
				</g>
			</g>
		</g>
	</g>
</g>
</svg>
