<?xml version="1.0" encoding="utf-8"?>
<!-- Generator: Adobe Illustrator 22.1.0, SVG Export Plug-In . SVG Version: 6.00 Build 0)  -->
<svg version="1.1"
	 id="svg2" inkscape:version="0.91 r13725" sodipodi:docname="tree_15042015_5.svg" xmlns:cc="http://creativecommons.org/ns#" xmlns:dc="http://purl.org/dc/elements/1.1/" xmlns:inkscape="http://www.inkscape.org/namespaces/inkscape" xmlns:rdf="http://www.w3.org/1999/02/22-rdf-syntax-ns#" xmlns:sodipodi="http://sodipodi.sourceforge.net/DTD/sodipodi-0.dtd" xmlns:svg="http://www.w3.org/2000/svg"
	 xmlns="http://www.w3.org/2000/svg" xmlns:xlink="http://www.w3.org/1999/xlink" x="0px" y="0px" viewBox="0 0 543.2 614.2"
	 style="enable-background:new 0 0 543.2 614.2;" xml:space="preserve">
<style type="text/css">
	.st0{fill:#0EF0BE;}
	.st1{fill:#DA3424;}
	.st2{fill:#A2645C;}
	.st3{fill:#85738B;}
	.st4{fill:#D600FE;}
	.st5{fill:#FF69B4;}
	.st6{fill:#2BD3C9;}
	.st7{fill:#10EE82;}
	.st8{fill:#8F9767;}
	.st9{fill:#DB23CF;}
	.st10{fill:#837B7B;}
	.st11{fill:#1F6FDF;}
	.st12{fill:#01FDBB;}
	.st13{fill:#C914EA;}
	.st14{fill:#C93582;}
	.st15{fill:#887676;}
	.st16{fill:#D2772C;}
	.st17{fill:#BD415C;}
	.st18{fill:#15E94C;}
	.st19{fill:#0313FB;}
	.st20{fill:#7E7B83;}
	.st21{fill:#7F807E;}
	.st22{fill:#708E7C;}
	.st23{fill:#5BEA14;}
	.st24{fill:#CDA431;}
	.st25{fill:#80807E;}
	.st26{fill:#05F9A0;}
	.st27{fill:#9B6385;}
	.st28{fill:#826F8F;}
	.st29{fill:#24DAA3;}
	.st30{fill:#867978;}
	.st31{fill:#718D88;}
	.st32{fill:#AE6F50;}
	.st33{fill:#4E7BB0;}
	.st34{fill:#CE24DA;}
	.st35{fill:#28D651;}
	.st36{fill:#5225D9;}
	.st37{fill:#17D0E7;}
	.st38{fill:#8E8C70;}
	.st39{fill:#083CF6;}
	.st40{fill:#62EC12;}
	.st41{fill:#DFA61F;}
	.st42{fill:#AC5258;}
	.st43{fill:#348ACA;}
	.st44{fill:#80817D;}
	.st45{fill:#ACDC22;}
	.st46{fill:#0AA6F4;}
	.st47{fill:#EC1279;}
	.st48{fill:#8C34CA;}
	.st49{fill:#80EA14;}
	.st50{fill:#321EE0;}
	.st51{fill:#1D6DE1;}
	.st52{fill:#2BD3A2;}
	.st53{fill:#63A757;}
	.st54{fill:#A39A5B;}
	.st55{fill:#C13D42;}
	.st56{fill:#DB23D2;}
	.st57{fill:#8F6F81;}
	.st58{fill:#F4350A;}
	.st59{fill:#8B649A;}
	.st60{fill:#5E3AC4;}
	.st61{fill:#E1BB1D;}
	.st62{fill:#7D3EC0;}
	.st63{fill:#CDFD01;}
	.st64{fill:#392DD1;}
	.st65{fill:#F68B08;}
	.st66{fill:#7F7F7F;}
	.st67{fill:#174BE7;}
	.st68{fill:#A99555;}
	.st69{fill:#B19D4D;}
	.st70{fill:#798876;}
	.st71{fill:#DB8E23;}
	.st72{fill:#37C73F;}
	.st73{fill:#73888B;}
	.st74{fill:#0FEFD8;}
	.st75{fill:#7B837C;}
	.st76{fill:#5F999F;}
	.st77{fill:#B44A9A;}
	.st78{fill:#41BD46;}
	.st79{fill:#D7A127;}
	.st80{fill:#1AE816;}
	.st81{fill:#575EA7;}
	.st82{fill:#738C72;}
	.st83{fill:#BC42AA;}
	.st84{fill:#9DA856;}
	.st85{fill:#A77857;}
	.st86{fill:#5AA497;}
	.st87{fill:#A79557;}
	.st88{fill:#28E41A;}
	.st89{fill:#827E7C;}
	.st90{fill:#4758B7;}
	.st91{fill:#E1D81D;}
	.st92{fill:#3F43BF;}
	.st93{fill:#DA2C24;}
	.st94{fill:#56A894;}
	.st95{fill:#7E7E80;}
	.st96{fill:#817D7D;}
	.st97{fill:#B04E62;}
	.st98{fill:#7A7985;}
	.st99{fill:#35C0C9;}
	.st100{fill:#1B6DE3;}
	.st101{fill:#21BFDD;}
	.st102{fill:#B02FCF;}
	.st103{fill:#D32BCB;}
	.st104{fill:#A0845E;}
	.st105{fill:#B44A8E;}
	.st106{fill:#72758C;}
	.st107{fill:#CFFB03;}
	.st108{fill:#8A8674;}
	.st109{fill:#5FB747;}
	.st110{fill:#57FA04;}
	.st111{fill:#2BD3B8;}
	.st112{fill:#618D9D;}
	.st113{fill:#94906A;}
	.st114{fill:#EFF40A;}
	.st115{fill:#F10DE8;}
	.st116{fill:#586EA6;}
	.st117{fill:#C43A43;}
	.st118{fill:#1BDDE3;}
	.st119{fill:#20DEC2;}
	.st120{fill:#53AB77;}
	.st121{fill:#A23CC2;}
	.st122{fill:#A4D826;}
	.st123{fill:#B8D02E;}
	.st124{fill:#EF0F6A;}
	.st125{fill:#DA24A9;}
	.st126{fill:#A25C8C;}
	.st127{fill:#F3300B;}
	.st128{fill:#2964D5;}
	.st129{fill:#71788D;}
	.st130{fill:#06F824;}
	.st131{fill:#ED6B11;}
	.st132{fill:#F2E90C;}
	.st133{fill:#E64418;}
	.st134{fill:#886E90;}
	.st135{fill:#47B74F;}
	.st136{fill:#8D906E;}
	.st137{fill:#A935C9;}
	.st138{fill:#450DF1;}
	.st139{fill:#34A5CA;}
	.st140{fill:#1258EC;}
	.st141{fill:#C637C7;}
	.st142{fill:#0531F9;}
	.st143{fill:#E2DE1C;}
	.st144{fill:#A05E7A;}
	.st145{fill:#CC8B32;}
	.st146{fill:#A95595;}
	.st147{fill:#1045EE;}
	.st148{fill:#66A25C;}
	.st149{fill:#A99F55;}
	.st150{fill:#B55E49;}
	.st151{fill:#B96745;}
	.st152{fill:#7952AC;}
	.st153{fill:#2AD446;}
	.st154{fill:#718D86;}
	.st155{fill:#827C7E;}
	.st156{fill:#3FBF81;}
	.st157{fill:#8C8572;}
	.st158{fill:#4725D9;}
	.st159{fill:#25D9BC;}
	.st160{fill:#FB03D6;}
	.st161{fill:#61709D;}
	.st162{fill:#FAA204;}
	.st163{fill:#B88846;}
	.st164{fill:#B66248;}
	.st165{fill:#FC02CD;}
	.st166{fill:#30CE38;}
	.st167{fill:#898375;}
	.st168{fill:#8BB945;}
	.st169{fill:#946A86;}
	.st170{fill:#1635E8;}
	.st171{fill:#9FBB43;}
	.st172{fill:#A55976;}
	.st173{fill:#768877;}
	.st174{fill:#04FA5F;}
	.st175{fill:#C1673D;}
	.st176{fill:#AE4CB2;}
	.st177{fill:#4960B5;}
	.st178{fill:#2AD4B1;}
	.st179{fill:#68B44A;}
	.st180{fill:#9F9F5F;}
	.st181{fill:#5988A5;}
	.st182{fill:#8F6F8B;}
	.st183{fill:#76B648;}
	.st184{fill:#3D86C1;}
	.st185{fill:#89757A;}
	.st186{fill:#C93539;}
	.st187{fill:#9029D5;}
	.st188{fill:#A75F57;}
	.st189{fill:#CF7D2F;}
	.st190{fill:#7D7C82;}
</style>
<sodipodi:namedview  bordercolor="#666666" borderopacity="1.0" id="base" inkscape:current-layer="layer1" inkscape:cx="372.04724" inkscape:cy="526.1811" inkscape:document-units="px" inkscape:pageopacity="0.0" inkscape:pageshadow="2" inkscape:window-height="968" inkscape:window-maximized="1" inkscape:window-width="1280" inkscape:window-x="-4" inkscape:window-y="-4" inkscape:zoom="0.72883651" pagecolor="#ffffff" showgrid="false" showguides="false">
	</sodipodi:namedview>
<defs>
	
	
		<inkscape:path-effect  cusp_linecap_type="round" effect="powerstroke" end_linecap_type="zerowidth" id="path-effect6525" interpolator_beta="0.2" interpolator_type="Linear" is_visible="true" linejoin_type="round" miter_limit="4" offset_points="0,6.3568824" sort_points="true" start_linecap_type="zerowidth">
		</inkscape:path-effect>
	
		<inkscape:path-effect  cusp_linecap_type="round" effect="powerstroke" end_linecap_type="zerowidth" id="path-effect6521" interpolator_beta="0.2" interpolator_type="Linear" is_visible="true" linejoin_type="round" miter_limit="4" offset_points="0.010972662,7.2552626" sort_points="true" start_linecap_type="zerowidth">
		</inkscape:path-effect>
	
		<inkscape:path-effect  cusp_linecap_type="round" effect="powerstroke" end_linecap_type="zerowidth" id="path-effect6516" interpolator_beta="0.2" interpolator_type="Linear" is_visible="true" linejoin_type="round" miter_limit="4" offset_points="0,6.5679895" sort_points="true" start_linecap_type="zerowidth">
		</inkscape:path-effect>
	
		<inkscape:path-effect  cusp_linecap_type="round" effect="powerstroke" end_linecap_type="zerowidth" id="path-effect6512" interpolator_beta="0.2" interpolator_type="Linear" is_visible="true" linejoin_type="round" miter_limit="4" offset_points="0,-7.5642102" sort_points="true" start_linecap_type="zerowidth">
		</inkscape:path-effect>
	
		<inkscape:path-effect  cusp_linecap_type="round" effect="powerstroke" end_linecap_type="zerowidth" id="path-effect5985" interpolator_beta="0.2" interpolator_type="Linear" is_visible="true" linejoin_type="round" miter_limit="4" offset_points="0,5.4706216" sort_points="true" start_linecap_type="zerowidth">
		</inkscape:path-effect>
	
		<inkscape:path-effect  cusp_linecap_type="round" effect="powerstroke" end_linecap_type="zerowidth" id="path-effect3478" interpolator_beta="0.2" interpolator_type="Linear" is_visible="true" linejoin_type="round" miter_limit="4" offset_points="0,5.9074047" sort_points="true" start_linecap_type="zerowidth">
		</inkscape:path-effect>
	
		<inkscape:path-effect  cusp_linecap_type="round" effect="powerstroke" end_linecap_type="zerowidth" id="path-effect3474" interpolator_beta="0.2" interpolator_type="Linear" is_visible="true" linejoin_type="round" miter_limit="4" offset_points="0,-6.7775141" sort_points="true" start_linecap_type="zerowidth">
		</inkscape:path-effect>
	
		<inkscape:path-effect  cusp_linecap_type="round" effect="powerstroke" end_linecap_type="zerowidth" id="path-effect3470" interpolator_beta="0.2" interpolator_type="Linear" is_visible="true" linejoin_type="round" miter_limit="4" offset_points="0,5.4706216" sort_points="true" start_linecap_type="zerowidth">
		</inkscape:path-effect>
	
		<inkscape:path-effect  cusp_linecap_type="round" effect="powerstroke" end_linecap_type="zerowidth" id="path-effect3466" interpolator_beta="0.2" interpolator_type="Linear" is_visible="true" linejoin_type="round" miter_limit="4" offset_points="0,-7.3786346" sort_points="true" start_linecap_type="zerowidth">
		</inkscape:path-effect>
	
		<inkscape:path-effect  cusp_linecap_type="round" effect="powerstroke" end_linecap_type="zerowidth" id="path-effect3462" interpolator_beta="0.2" interpolator_type="Linear" is_visible="true" linejoin_type="round" miter_limit="4" offset_points="0.02115919,-6.366871" sort_points="true" start_linecap_type="zerowidth">
		</inkscape:path-effect>
	
		<inkscape:path-effect  cusp_linecap_type="round" effect="powerstroke" end_linecap_type="zerowidth" id="path-effect3458" interpolator_beta="0.2" interpolator_type="Linear" is_visible="true" linejoin_type="round" miter_limit="4" offset_points="0.0047969949,-3.6781594" sort_points="true" start_linecap_type="zerowidth">
		</inkscape:path-effect>
	
		<inkscape:path-effect  cusp_linecap_type="round" effect="powerstroke" end_linecap_type="zerowidth" id="path-effect3454" interpolator_beta="0.2" interpolator_type="Linear" is_visible="true" linejoin_type="round" miter_limit="4" offset_points="0,4.5834098" sort_points="true" start_linecap_type="zerowidth">
		</inkscape:path-effect>
	
		<inkscape:path-effect  cusp_linecap_type="round" effect="powerstroke" end_linecap_type="zerowidth" id="path-effect3450" interpolator_beta="0.2" interpolator_type="Linear" is_visible="true" linejoin_type="round" miter_limit="4" offset_points="0.012153128,5.7437065" sort_points="true" start_linecap_type="zerowidth">
		</inkscape:path-effect>
	
		<inkscape:path-effect  cusp_linecap_type="round" effect="powerstroke" end_linecap_type="zerowidth" id="path-effect3446" interpolator_beta="0.2" interpolator_type="Linear" is_visible="true" linejoin_type="round" miter_limit="4" offset_points="0,-4.3752731" sort_points="true" start_linecap_type="zerowidth">
		</inkscape:path-effect>
	
		<inkscape:path-effect  cusp_linecap_type="round" effect="powerstroke" end_linecap_type="zerowidth" id="path-effect3442" interpolator_beta="0.2" interpolator_type="Linear" is_visible="true" linejoin_type="round" miter_limit="4" offset_points="0,7.794948" sort_points="true" start_linecap_type="zerowidth">
		</inkscape:path-effect>
	
		<inkscape:path-effect  cusp_linecap_type="round" effect="powerstroke" end_linecap_type="zerowidth" id="path-effect3438" interpolator_beta="0.2" interpolator_type="Linear" is_visible="true" linejoin_type="round" miter_limit="4" offset_points="0,7.0660087" sort_points="true" start_linecap_type="zerowidth">
		</inkscape:path-effect>
	
		<inkscape:path-effect  cusp_linecap_type="round" effect="powerstroke" end_linecap_type="zerowidth" id="path-effect3434" interpolator_beta="0.2" interpolator_type="Linear" is_visible="true" linejoin_type="round" miter_limit="4" offset_points="0,14.853881" sort_points="true" start_linecap_type="zerowidth">
		</inkscape:path-effect>
	
		<inkscape:path-effect  cusp_linecap_type="round" effect="powerstroke" end_linecap_type="zerowidth" id="path-effect3430" interpolator_beta="0.2" interpolator_type="Linear" is_visible="true" linejoin_type="round" miter_limit="4" offset_points="0,-10.508652" sort_points="true" start_linecap_type="zerowidth">
		</inkscape:path-effect>
	
		<inkscape:path-effect  cusp_linecap_type="round" effect="powerstroke" end_linecap_type="zerowidth" id="path-effect3426" interpolator_beta="0.2" interpolator_type="Linear" is_visible="true" linejoin_type="round" miter_limit="4" offset_points="0,-9.1222595" sort_points="true" start_linecap_type="zerowidth">
		</inkscape:path-effect>
	
		<inkscape:path-effect  cusp_linecap_type="round" effect="powerstroke" end_linecap_type="zerowidth" id="path-effect3422" interpolator_beta="0.2" interpolator_type="Linear" is_visible="true" linejoin_type="round" miter_limit="4" offset_points="0,11.359128" sort_points="true" start_linecap_type="zerowidth">
		</inkscape:path-effect>
	
		<inkscape:path-effect  cusp_linecap_type="round" effect="powerstroke" end_linecap_type="zerowidth" id="path-effect3418" interpolator_beta="0.2" interpolator_type="Linear" is_visible="true" linejoin_type="round" miter_limit="4" offset_points="0.010953818,20.783203" sort_points="true" start_linecap_type="zerowidth">
		</inkscape:path-effect>
	
		<inkscape:path-effect  cusp_linecap_type="round" effect="powerstroke" end_linecap_type="zerowidth" id="path-effect3414" interpolator_beta="0.2" interpolator_type="Linear" is_visible="true" linejoin_type="round" miter_limit="4" offset_points="0,-23.165981" sort_points="true" start_linecap_type="zerowidth">
		</inkscape:path-effect>
	
		<inkscape:path-effect  cusp_linecap_type="round" effect="powerstroke" end_linecap_type="zerowidth" id="path-effect3410" interpolator_beta="0.2" interpolator_type="Linear" is_visible="true" linejoin_type="round" miter_limit="4" offset_points="0.046550675,41.512007" sort_points="true" start_linecap_type="zerowidth">
		</inkscape:path-effect>
	
		<inkscape:path-effect  cusp_linecap_type="round" effect="powerstroke" end_linecap_type="zerowidth" id="path-effect3406" interpolator_beta="0.2" interpolator_type="Linear" is_visible="true" linejoin_type="round" miter_limit="4" offset_points="0,5.9074047" sort_points="true" start_linecap_type="zerowidth">
		</inkscape:path-effect>
	
		<inkscape:path-effect  cusp_linecap_type="round" effect="powerstroke" end_linecap_type="zerowidth" id="path-effect3402" interpolator_beta="0.2" interpolator_type="Linear" is_visible="true" linejoin_type="round" miter_limit="4" offset_points="0,-6.7775141" sort_points="true" start_linecap_type="zerowidth">
		</inkscape:path-effect>
	
		<inkscape:path-effect  cusp_linecap_type="round" effect="powerstroke" end_linecap_type="zerowidth" id="path-effect3398" interpolator_beta="0.2" interpolator_type="Linear" is_visible="true" linejoin_type="round" miter_limit="4" offset_points="0,5.4706216" sort_points="true" start_linecap_type="zerowidth">
		</inkscape:path-effect>
	
		<inkscape:path-effect  cusp_linecap_type="round" effect="powerstroke" end_linecap_type="zerowidth" id="path-effect3394" interpolator_beta="0.2" interpolator_type="Linear" is_visible="true" linejoin_type="round" miter_limit="4" offset_points="0,-7.3786346" sort_points="true" start_linecap_type="zerowidth">
		</inkscape:path-effect>
	
		<inkscape:path-effect  cusp_linecap_type="round" effect="powerstroke" end_linecap_type="zerowidth" id="path-effect3390" interpolator_beta="0.2" interpolator_type="Linear" is_visible="true" linejoin_type="round" miter_limit="4" offset_points="0.02115919,-6.366871" sort_points="true" start_linecap_type="zerowidth">
		</inkscape:path-effect>
	
		<inkscape:path-effect  cusp_linecap_type="round" effect="powerstroke" end_linecap_type="zerowidth" id="path-effect3386" interpolator_beta="0.2" interpolator_type="Linear" is_visible="true" linejoin_type="round" miter_limit="4" offset_points="0.0047969949,-3.6781594" sort_points="true" start_linecap_type="zerowidth">
		</inkscape:path-effect>
	
		<inkscape:path-effect  cusp_linecap_type="round" effect="powerstroke" end_linecap_type="zerowidth" id="path-effect3382" interpolator_beta="0.2" interpolator_type="Linear" is_visible="true" linejoin_type="round" miter_limit="4" offset_points="0,4.5834098" sort_points="true" start_linecap_type="zerowidth">
		</inkscape:path-effect>
	
		<inkscape:path-effect  cusp_linecap_type="round" effect="powerstroke" end_linecap_type="zerowidth" id="path-effect3378" interpolator_beta="0.2" interpolator_type="Linear" is_visible="true" linejoin_type="round" miter_limit="4" offset_points="0.012153128,5.7437065" sort_points="true" start_linecap_type="zerowidth">
		</inkscape:path-effect>
	
		<inkscape:path-effect  cusp_linecap_type="round" effect="powerstroke" end_linecap_type="zerowidth" id="path-effect3374" interpolator_beta="0.2" interpolator_type="Linear" is_visible="true" linejoin_type="round" miter_limit="4" offset_points="0,-4.3752731" sort_points="true" start_linecap_type="zerowidth">
		</inkscape:path-effect>
	
		<inkscape:path-effect  cusp_linecap_type="round" effect="powerstroke" end_linecap_type="zerowidth" id="path-effect3370" interpolator_beta="0.2" interpolator_type="Linear" is_visible="true" linejoin_type="round" miter_limit="4" offset_points="0,7.794948" sort_points="true" start_linecap_type="zerowidth">
		</inkscape:path-effect>
	
		<inkscape:path-effect  cusp_linecap_type="round" effect="powerstroke" end_linecap_type="zerowidth" id="path-effect3366" interpolator_beta="0.2" interpolator_type="Linear" is_visible="true" linejoin_type="round" miter_limit="4" offset_points="0,7.0660087" sort_points="true" start_linecap_type="zerowidth">
		</inkscape:path-effect>
	
		<inkscape:path-effect  cusp_linecap_type="round" effect="powerstroke" end_linecap_type="zerowidth" id="path-effect3362" interpolator_beta="0.2" interpolator_type="Linear" is_visible="true" linejoin_type="round" miter_limit="4" offset_points="0,14.853881" sort_points="true" start_linecap_type="zerowidth">
		</inkscape:path-effect>
	
		<inkscape:path-effect  cusp_linecap_type="round" effect="powerstroke" end_linecap_type="zerowidth" id="path-effect3358" interpolator_beta="0.2" interpolator_type="Linear" is_visible="true" linejoin_type="round" miter_limit="4" offset_points="0,-10.508652" sort_points="true" start_linecap_type="zerowidth">
		</inkscape:path-effect>
	
		<inkscape:path-effect  cusp_linecap_type="round" effect="powerstroke" end_linecap_type="zerowidth" id="path-effect3354" interpolator_beta="0.2" interpolator_type="Linear" is_visible="true" linejoin_type="round" miter_limit="4" offset_points="0,-9.1222595" sort_points="true" start_linecap_type="zerowidth">
		</inkscape:path-effect>
	
		<inkscape:path-effect  cusp_linecap_type="round" effect="powerstroke" end_linecap_type="zerowidth" id="path-effect3350" interpolator_beta="0.2" interpolator_type="Linear" is_visible="true" linejoin_type="round" miter_limit="4" offset_points="0,11.359128" sort_points="true" start_linecap_type="zerowidth">
		</inkscape:path-effect>
	
		<inkscape:path-effect  cusp_linecap_type="round" effect="powerstroke" end_linecap_type="zerowidth" id="path-effect3346" interpolator_beta="0.2" interpolator_type="Linear" is_visible="true" linejoin_type="round" miter_limit="4" offset_points="0.010953818,20.783203" sort_points="true" start_linecap_type="zerowidth">
		</inkscape:path-effect>
	
		<inkscape:path-effect  cusp_linecap_type="round" effect="powerstroke" end_linecap_type="zerowidth" id="path-effect3342" interpolator_beta="0.2" interpolator_type="Linear" is_visible="true" linejoin_type="round" miter_limit="4" offset_points="0,-23.165981" sort_points="true" start_linecap_type="zerowidth">
		</inkscape:path-effect>
	
		<inkscape:path-effect  cusp_linecap_type="round" effect="powerstroke" end_linecap_type="zerowidth" id="path-effect3338" interpolator_beta="0.2" interpolator_type="Linear" is_visible="true" linejoin_type="round" miter_limit="4" offset_points="0.046550675,41.512007" sort_points="true" start_linecap_type="zerowidth">
		</inkscape:path-effect>
</defs>
<g id="layer1" inkscape:groupmode="layer" inkscape:label="Camada 1">
	<g id="g10671" transform="translate(904.83907,0.05601236)">
		<path id="path4047" inkscape:connector-curvature="0" d="M-595.4,18.5c10.9,29,12.3,52.7,8.5,73.2c-1.3,7.1-3.3,13.9-5.9,20.4
			c-9.1-7.6-16.7-15.8-22.4-25c-6.6-10.7-10.8-23-11.5-37.4c-0.8,14.4,1.9,27.5,7.5,39.6c5.3,11.3,13.1,21.7,22.9,31.4
			c-4.1,9-9.2,17.5-14.7,25.9c-0.1,0.2-0.2,0.3-0.3,0.5c-10.5-2.7-19.3-6.9-26.8-12.5c-8.2-6.1-14.8-13.8-20.3-22.7
			c-10.9-18-16.5-40.6-19.2-63.5c0.3,22.8,3.4,46.7,12.8,67c2.6,5.6,5.7,11,9.3,16c-13.7,1-25.4-2.7-36.3-9.1
			c-13-7.7-24.6-19.1-36.8-30.7c11.4,12.1,22.5,24.4,35.2,33.2c11.8,8.1,25.3,13.2,42.1,11.9c1.9,2.2,4,4.4,6.1,6.4
			c7,6.6,15.5,12.1,25.6,16.3c-9.2,13-17.1,22.7-28.5,39.9c-7.4,11-14.5,22.9-20.4,36.1c-11.6-6-22-13.3-31-21.9
			c5.3-9.6,6.5-19.6,5.9-29.1c-0.7-11-4-22.1-7.3-32.6c1.3,11.1,2.5,22.1,1.2,32.4c-1,8-3.3,15-7.7,21.1c-2.9-3.2-5.6-6.6-8.1-10.1
			c-14-19.5-22.7-43.6-24.6-71c-2,27.3,2.7,53.6,14.4,77.1c10.7,21.4,27.1,40.4,49.1,55.4c-0.8,2.6-1.6,5.3-2.3,8
			c-4.5,18.5-4.9,37.1-2.8,55.6c-13.1-4.8-25.3-11.7-36.6-20.3c-9.2-7-17.8-15.2-25.7-24.4c3-3.4,5.3-7.1,6.9-10.9
			c2.2-5.2,3.1-10.5,3.4-15.8c0.6-10.7-1.5-22-3.2-31.9c-0.3,10.4-0.2,21.3-2.6,31c-1.2,4.7-2.9,8.9-5.4,12.6
			c-1.6,2.4-3.6,4.6-6,6.6c-4-5.1-7.8-10.5-11.4-16.1c-10.3-16-18.8-33.5-25.4-51.6c10.1-9,18.8-20.1,24.8-31.8
			c6.2-12,9.6-24.6,8.8-36c-0.8,11.2-5.7,22.9-12.9,33.6c-6.5,9.5-14.8,18.2-24,25.1c-7.8-23.7-12.6-48.3-14-71.5
			c-2.3,35.8,3.2,76.7,17,114.8c-5.6,0.2-10.5-0.3-14.7-1.4c-5.9-1.5-11-4.2-15.5-7.9c-9.3-7.6-16.1-19-24.1-32
			c6.2,13.4,11.7,26.5,20.4,35.9c4.4,4.8,9.8,8.9,16.7,11.7c6,2.4,13,3.8,21.3,3.9c2.2,5.2,4.5,10.4,6.9,15.5
			c7.9,16.3,17.7,31.8,29.4,45.7c-9.2,4.5-18.1,7.3-26.8,8.6c-10.5,1.6-20.9,1.1-31.3-0.9c-21.1-4-41.7-13.8-63.9-23.7
			c20.9,11.6,41.2,23.6,62.5,29.8c10.7,3.1,21.9,4.8,33.7,4.2c11-0.6,22.4-3.2,34.4-8.4c1.4,1.5,2.9,3,4.4,4.4
			c16.6,16.2,36.5,29.4,59.9,37.7c0.6,2.2,1.1,4.4,1.7,6.5c8.1,29.7,21.9,65.6,29.9,92.3c4.4,14.6,7.7,28.3,9.4,41.3
			c1.7,13,1.8,24.7,0,35.4c-1.5,8.6-4.2,16.7-8.3,24.4c-3.6,6.8-40.8,46.9-54.9,61.5h98.4c6.7-11.4,9-23.7,13.8-35.5
			c6.1-14.8,9.2-29.6,10.1-44.3c1.1-17.9-1-35.3-4.9-51.8c-3.8-16.4-9.5-32.5-15.6-47.9c-7.4-18.4-14.5-34-21.4-49.4
			c19.7-4.6,38.3-12.5,55.3-22.8c15.4-9.3,29.6-20.5,42.2-33.2c22.2,10,44.9,11.7,66.5,8.3c23-3.6,45.1-13.2,64.7-25.2
			c-20.6,10.5-42.9,17.9-65.3,19.6c-19.9,1.5-39.6-1.6-58-11c3.7-4.1,7.3-8.4,10.7-12.8c11.1-14.3,20.4-29.9,27.5-46.1
			c12-3.1,22-10.9,29.9-19.5c8.7-9.4,15.5-20.2,20-28.1c-5.9,7.2-13.6,16.8-23.1,24.9c-7.2,6.1-14.9,11-23.1,13.3
			c1.9-5,3.5-10,5-15.1c7.1-25.1,8.8-50.9,3.9-75.7c1.8,25.2-3.1,49.9-12.7,72.7c-6.9,16.5-16.4,32-27.7,46
			c-4.3-7.7-7.3-15.7-9.3-24.1c-2.6-10.8-3.4-22.3-3-34.6c-2.4,12-3.5,23.8-2.8,35.4c0.7,10.8,2.9,21.5,7.4,32.3
			c-2,2.2-3.9,4.3-6,6.3c-17.5,17.7-38,32.1-59.8,41.8c-0.3,0.1-0.6,0.3-0.9,0.4c-2.3-6.9-3.2-15.1-2.5-22.9c1-9.7,4.7-19,12.4-24.5
			c-8.8,4.1-14.5,13-17.4,23.5c-2.4,8.7-2.7,18.5-1.2,27.3c-15.4,5.8-31.2,9.3-46.9,10.1c-0.7-1.9-1.5-3.8-2.2-5.7
			c-7.9-21.2-13.2-41.2-13.8-60.3c14.8,1.7,28.4,0.6,40.8-2.6c15.1-3.9,28.3-10.7,39.7-19.2c22.7-16.8,38.7-40.2,48.6-60.4
			c-12.5,19-30.3,39.8-53.3,53.4c-7.4,4.4-15.3,8-23.6,10.5c-1.6-9-1.3-16.3,0.7-22.9c2.3-7.6,6.8-14.4,13.6-21.7
			c-7.8,5.9-14.1,11.9-18.4,19.7c-4.1,7.4-6.1,16.2-5.7,27.5c-1.4,0.3-2.8,0.5-4.2,0.8c-11.6,1.8-24.2,1.6-37.6-1.3
			c0.1-0.7,0.2-1.5,0.3-2.2c2.8-21.1,10.1-40.1,19.5-59.2c0.3-0.5,0.6-1.1,0.9-1.7c23.7-4.7,44.7-12.1,62.9-22.3
			c14.1,6,28,6.6,40.6,3.3c13.3-3.5,25.1-11.4,34.4-21.9c-10.6,9.4-22.9,15.3-35.4,16.9c-9.9,1.3-20-0.1-29.7-4.4
			c10.3-6.8,19.6-14.7,27.7-23.6c24.5-27,37.7-63,39.2-107.8c-4.5,44.9-20.7,78.3-45.6,101.4c-0.6,0.5-1.1,1-1.7,1.5
			c-6-12.1-9.7-26-10.6-39.6c-1-15,1.6-29.6,8.5-40.4c-8,10.2-11.8,24.8-12,40.5c-0.2,14.7,2.9,30.2,8.8,44
			c-20.4,16.4-46.2,27.1-76.7,32.6c6.6-12.2,13.6-24.9,18.7-35.6c9.3-19.5,16.5-39.7,17.7-62.2c0.3-5,0.2-10-0.1-15.2
			c13.4-4.6,21.3-13,26.9-22.6c5.7-9.9,9.2-21.7,13.4-33.1c-5.4,11.1-9.9,22.1-16.5,31.1c-6,8.2-13.4,14.3-24.5,17.4
			C-581.3,54.3-586.4,37.2-595.4,18.5L-595.4,18.5z"/>
		<path id="path4049" inkscape:connector-curvature="0" class="st0" d="M-492.1,342.2c-7.2,6.2-10.8,15.6-9.5,25.1
			c1.3,9.4,7.4,17.5,16,21.5c7.2-6.2,10.8-15.6,9.5-25.1C-477.4,354.4-483.5,346.3-492.1,342.2L-492.1,342.2z"/>
		<path id="path4051" inkscape:connector-curvature="0" class="st1" d="M-464.7,343.5c-5.4,7.3-6.8,16.9-3.6,25.5
			c3.2,8.6,10.5,14.9,19.4,16.9c5.4-7.3,6.8-16.9,3.6-25.5C-448.5,351.8-455.8,345.5-464.7,343.5z"/>
		<path id="path4053" inkscape:connector-curvature="0" class="st2" d="M-440.1,339.7c-3.9,6.8-4,15.2-0.3,22.1
			c3.7,7,10.6,11.6,18.4,12.3c3.9-6.8,4-15.2,0.3-22.1C-425.3,345.1-432.2,340.4-440.1,339.7z"/>
		<path id="path4055" inkscape:connector-curvature="0" class="st3" d="M-419.9,333.8c-2.3,6.7-1.1,14.1,3.2,19.7
			c4.3,5.6,11.2,8.6,18.3,8c2.3-6.7,1.1-14.1-3.2-19.7C-406,336.2-412.8,333.2-419.9,333.8L-419.9,333.8z"/>
		<path id="path4057" inkscape:connector-curvature="0" class="st4" d="M-361.7,295c-6.1-2.1-12.9-1-18,3c-5.1,4-7.9,10.3-7.3,16.7
			c6.1,2.1,12.9,1,18-3C-363.9,307.7-361.2,301.4-361.7,295z"/>
		<path id="path4059" inkscape:connector-curvature="0" class="st5" d="M-489.6,330.9c-5-8.8-5.1-19.6-0.4-28.6
			c4.7-9,13.7-15,23.8-15.9c5,8.8,5.1,19.6,0.4,28.6C-470.5,324-479.5,330-489.6,330.9z"/>
		<path id="path4061" inkscape:connector-curvature="0" class="st6" d="M-459.9,333.9c-4.5-8-4.6-17.6-0.4-25.7
			c4.2-8.1,12.3-13.5,21.4-14.3c4.5,8,4.6,17.6,0.4,25.7C-442.8,327.7-450.8,333-459.9,333.9L-459.9,333.9z"/>
		<path id="path4063" inkscape:connector-curvature="0" class="st7" d="M-429.6,329.5c-3.9-6.8-4-15.2-0.3-22.1
			c3.7-7,10.6-11.6,18.4-12.3c3.9,6.8,4,15.2,0.3,22.1C-414.9,324.1-421.8,328.8-429.6,329.5z"/>
		<path id="path4065" inkscape:connector-curvature="0" class="st8" d="M-421.9,218c-2.1-3.7-2.2-8.3-0.2-12.1c2-3.8,5.8-6.3,10-6.7
			c2.1,3.7,2.2,8.3,0.2,12.1C-413.8,215.1-417.6,217.6-421.9,218z"/>
		<path id="path4067" inkscape:connector-curvature="0" class="st9" d="M-451.4,255.1c0.1,6.2,3.3,11.9,8.6,15.2
			c5.3,3.3,11.8,3.7,17.4,1c-0.1-6.2-3.3-11.9-8.6-15.2C-439.3,252.9-445.8,252.5-451.4,255.1z"/>
		<path id="path4069" inkscape:connector-curvature="0" class="st10" d="M-439.6,244.6c1.6,4.6,5.3,8.2,10.1,9.4
			c4.7,1.2,9.8-0.1,13.4-3.4c-1.6-4.6-5.3-8.2-10.1-9.4C-431,240-436,241.3-439.6,244.6L-439.6,244.6z"/>
		<path id="path4071" inkscape:connector-curvature="0" class="st11" d="M-427.9,229.8c1.3,3.9,4.5,6.8,8.4,7.8
			c3.9,1,8.1,0,11.1-2.8c-1.3-3.9-4.5-6.8-8.4-7.8C-420.7,226-424.9,227.1-427.9,229.8z"/>
		<path id="path4073" inkscape:connector-curvature="0" class="st12" d="M-451.4,243.8c-4.8-3.9-7.3-10-6.6-16.1
			c0.7-6.2,4.4-11.5,10-14.3c4.8,3.9,7.3,10,6.6,16.1C-442.1,235.6-445.9,241-451.4,243.8z"/>
		<path id="path4075" inkscape:connector-curvature="0" class="st13" d="M-434.7,226.7c-4.1-2.6-6.6-7.2-6.6-12.1
			c0-4.9,2.4-9.4,6.5-12.1c4.1,2.6,6.6,7.2,6.6,12.1C-428.1,219.4-430.6,224-434.7,226.7z"/>
		<path id="path4077" inkscape:connector-curvature="0" class="st14" d="M-460.7,164.6c-3.9-1.2-6.9-4.3-8-8.2
			c-1.1-3.9-0.1-8.1,2.6-11.2c3.9,1.2,6.9,4.3,8,8.2C-457.1,157.3-458,161.6-460.7,164.6L-460.7,164.6z"/>
		<path id="path4079" inkscape:connector-curvature="0" class="st15" d="M-475.5,240.5c-6.7,0-12.9-3.3-16.5-8.9
			c-3.6-5.6-4.2-12.6-1.5-18.7c6.7,0,12.9,3.3,16.5,8.9C-473.3,227.3-472.8,234.4-475.5,240.5z"/>
		<path id="path4081" inkscape:connector-curvature="0" class="st16" d="M-468.4,217.9c-5.2,0-10.1-2.6-12.9-7
			c-2.8-4.4-3.3-9.9-1.2-14.7c5.2,0,10.1,2.6,12.9,7C-466.8,207.6-466.3,213.2-468.4,217.9z"/>
		<path id="path4083" inkscape:connector-curvature="0" class="st17" d="M-463.9,197.6c-4.3,0-8.3-2.1-10.6-5.7
			c-2.3-3.6-2.7-8.1-1-12c4.3,0,8.3,2.1,10.6,5.7C-462.5,189.2-462.1,193.7-463.9,197.6L-463.9,197.6z"/>
		<path id="path4085" inkscape:connector-curvature="0" class="st18" d="M-462.7,179.6c-4.3,0-8.3-2.1-10.6-5.7
			c-2.3-3.6-2.7-8.1-1-12c4.3,0,8.3,2.1,10.6,5.7C-461.3,171.2-461,175.7-462.7,179.6L-462.7,179.6z"/>
		<path id="path4087" inkscape:connector-curvature="0" class="st19" d="M-456.7,207.1c5.1,1.2,10.4-0.3,14.2-3.9
			c3.7-3.6,5.4-8.9,4.4-14c-5.1-1.2-10.4,0.3-14.2,3.9C-456,196.7-457.7,202-456.7,207.1z"/>
		<path id="path4089" inkscape:connector-curvature="0" class="st20" d="M-455.9,189.2c4,0.9,8.2-0.2,11.2-3.1
			c3-2.9,4.3-7.1,3.5-11.1c-4-0.9-8.2,0.2-11.2,3.1C-455.4,181-456.7,185.2-455.9,189.2L-455.9,189.2z"/>
		<path id="path4091" inkscape:connector-curvature="0" class="st21" d="M-457.5,174.8c3.8,0.9,7.8-0.2,10.6-2.9
			c2.8-2.7,4.1-6.7,3.3-10.5c-3.8-0.9-7.8,0.2-10.6,2.9C-457,167-458.2,170.9-457.5,174.8L-457.5,174.8z"/>
		<path id="path4093" inkscape:connector-curvature="0" class="st22" d="M-767.6,323.2c5.2,8.7,5.7,19.5,1.3,28.6
			c-4.4,9.1-13.2,15.4-23.3,16.6c-5.2-8.7-5.7-19.5-1.3-28.6C-786.5,330.7-777.7,324.4-767.6,323.2L-767.6,323.2z"/>
		<path id="path4095" inkscape:connector-curvature="0" class="st23" d="M-798.4,322c3.2,8.6,1.8,18.1-3.6,25.5
			c-5.5,7.3-14.2,11.4-23.4,10.8c-3.2-8.6-1.8-18.1,3.6-25.5C-816.3,325.5-807.5,321.5-798.4,322L-798.4,322z"/>
		<path id="path4097" inkscape:connector-curvature="0" class="st24" d="M-826.6,313.5c2.7,7.4,1.6,15.6-3.1,21.9
			c-4.7,6.3-12.3,9.8-20.1,9.3c-2.7-7.4-1.6-15.6,3.1-21.9C-842,316.5-834.5,313-826.6,313.5L-826.6,313.5z"/>
		<path id="path4099" inkscape:connector-curvature="0" class="st25" d="M-849.2,303.3c0.5,7.1-2.5,13.9-8.2,18.2
			c-5.6,4.3-13.1,5.5-19.8,3.1c-0.5-7.1,2.5-13.9,8.2-18.2C-863.3,302.1-855.9,300.9-849.2,303.3L-849.2,303.3z"/>
		<path id="path4101" inkscape:connector-curvature="0" class="st26" d="M-900.7,272.4c5.6-3.2,12.5-3.3,18.3-0.3
			c5.7,3,9.6,8.7,10.2,15.2c-5.6,3.2-12.5,3.3-18.3,0.3C-896.3,284.6-900.2,278.9-900.7,272.4L-900.7,272.4z"/>
		<path id="path4103" inkscape:connector-curvature="0" class="st27" d="M-774.2,312.4c5.7-7.2,7.3-16.7,4.4-25.4
			c-2.9-8.7-10.1-15.2-18.9-17.5c-5.7,7.2-7.3,16.7-4.4,25.4C-790.2,303.6-783,310.2-774.2,312.4z"/>
		<path id="path4105" inkscape:connector-curvature="0" class="st28" d="M-804.6,311.2c4.9-6.2,6.3-14.4,3.8-21.8
			c-2.5-7.4-8.7-13.1-16.3-15c-4.9,6.2-6.3,14.4-3.8,21.8C-818.4,303.6-812.2,309.2-804.6,311.2L-804.6,311.2z"/>
		<path id="path4107" inkscape:connector-curvature="0" class="st29" d="M-832.2,302.4c4.1-5.2,5.3-12.1,3.2-18.4
			c-2.1-6.3-7.3-11.1-13.7-12.7c-4.1,5.2-5.3,12.1-3.2,18.4C-843.8,296-838.6,300.8-832.2,302.4z"/>
		<path id="path4109" inkscape:connector-curvature="0" class="st30" d="M-855.9,292.1c3.6-4.6,4.7-10.7,2.8-16.3
			c-1.9-5.5-6.5-9.8-12.1-11.2c-3.6,4.6-4.7,10.7-2.8,16.3C-866.1,286.5-861.6,290.7-855.9,292.1L-855.9,292.1z"/>
		<path id="path4111" inkscape:connector-curvature="0" class="st31" d="M-867.5,295.5c-0.7,5.7-4.2,10.7-9.4,13.3
			c-5.2,2.5-11.3,2.3-16.3-0.7c0.7-5.7,4.2-10.7,9.4-13.3C-878.6,292.3-872.4,292.6-867.5,295.5L-867.5,295.5z"/>
		<path id="path4113" inkscape:connector-curvature="0" class="st32" d="M-803.7,242c1,6.9-1.5,13.9-6.8,18.5
			c-5.2,4.6-12.5,6.3-19.2,4.4c-1-6.9,1.5-13.9,6.8-18.5C-817.6,241.7-810.4,240.1-803.7,242z"/>
		<path id="path4115" inkscape:connector-curvature="0" class="st33" d="M-818.8,233.5c-1.5,6.1-5.9,11.1-11.8,13.1
			c-5.9,2.1-12.5,1-17.5-2.8c1.5-6.1,5.9-11.1,11.8-13.1C-830.3,228.6-823.8,229.6-818.8,233.5z"/>
		<path id="path4117" inkscape:connector-curvature="0" class="st34" d="M-832,216.6c-1.3,5.3-5.1,9.5-10.2,11.3
			c-5.1,1.8-10.8,0.9-15-2.4c1.3-5.3,5.1-9.5,10.2-11.3C-842,212.4-836.3,213.3-832,216.6L-832,216.6z"/>
		<path id="path4119" inkscape:connector-curvature="0" class="st35" d="M-838.3,203.3c-2.4,4.2-6.8,7-11.7,7.3
			c-4.9,0.3-9.6-1.9-12.4-5.8c2.4-4.2,6.8-7,11.7-7.3C-845.8,197.1-841.1,199.3-838.3,203.3L-838.3,203.3z"/>
		<path id="path4121" inkscape:connector-curvature="0" class="st36" d="M-854.2,170.2c4.4,0.4,8.4,2.9,10.5,6.9
			c2.1,3.9,2.1,8.7,0,12.6c-4.4-0.4-8.4-2.9-10.5-6.9C-856.4,178.8-856.4,174.1-854.2,170.2L-854.2,170.2z"/>
		<path id="path4123" inkscape:connector-curvature="0" class="st37" d="M-821,219.2c4.8-1.5,8.6-5.4,9.9-10.3
			c1.3-4.9,0.1-10.1-3.3-13.9c-4.8,1.5-8.6,5.4-9.9,10.3C-825.6,210.2-824.4,215.5-821,219.2L-821,219.2z"/>
		<path id="path4125" inkscape:connector-curvature="0" class="st38" d="M-831.9,205.1c4.3-1.4,7.7-4.9,8.9-9.3
			c1.2-4.4,0.1-9.1-3-12.5c-4.3,1.4-7.7,4.9-8.9,9.3C-836.1,197-834.9,201.7-831.9,205.1L-831.9,205.1z"/>
		<path id="path4127" inkscape:connector-curvature="0" class="st39" d="M-499.5,124.9c0.7-6.1,4.5-11.5,10-14.2
			c5.5-2.7,12.1-2.5,17.4,0.7c-0.7,6.1-4.5,11.5-10,14.2C-487.6,128.4-494.1,128.1-499.5,124.9L-499.5,124.9z"/>
		<path id="path4129" inkscape:connector-curvature="0" class="st40" d="M-485.2,49.3c-3.6-1.9-6-5.5-6.4-9.5
			c-0.4-4.1,1.3-8,4.5-10.5c3.6,1.9,6,5.5,6.4,9.5C-480.3,42.8-482,46.8-485.2,49.3L-485.2,49.3z"/>
		<path id="path4131" inkscape:connector-curvature="0" class="st41" d="M-509.7,122.5c-6.7-0.1-12.8-3.6-16.3-9.3
			c-3.5-5.7-3.9-12.7-1.1-18.8c6.7,0.1,12.8,3.6,16.3,9.3C-507.3,109.4-506.9,116.5-509.7,122.5z"/>
		<path id="path4133" inkscape:connector-curvature="0" class="st42" d="M-499.9,103.1c-5.2,0.4-10.2-1.9-13.4-6.1
			c-3.1-4.2-4-9.6-2.2-14.5c5.2-0.4,10.2,1.9,13.4,6.1C-498.9,92.8-498.1,98.2-499.9,103.1L-499.9,103.1z"/>
		<path id="path4135" inkscape:connector-curvature="0" class="st43" d="M-493.4,83.9c-4.2,0.5-8.5-1.1-11.2-4.4
			c-2.8-3.3-3.7-7.7-2.4-11.8c4.2-0.5,8.5,1.1,11.2,4.4C-493.1,75.4-492.1,79.8-493.4,83.9L-493.4,83.9z"/>
		<path id="path4137" inkscape:connector-curvature="0" class="st44" d="M-491.7,67.7c-4.2-0.7-7.7-3.6-9.4-7.5
			c-1.7-3.9-1.2-8.4,1.2-12c4.2,0.7,7.7,3.6,9.4,7.5C-488.9,59.6-489.3,64.1-491.7,67.7z"/>
		<path id="path4139" inkscape:connector-curvature="0" class="st45" d="M-492.4,103.1c4.4,2.7,10,3,14.7,0.8
			c4.7-2.2,8-6.7,8.6-11.9c-4.4-2.7-10-3-14.7-0.8C-488.5,93.5-491.7,98-492.4,103.1z"/>
		<path id="path4141" inkscape:connector-curvature="0" class="st46" d="M-486.5,83.2c3.4,2.3,7.8,2.8,11.6,1.2
			c3.8-1.6,6.6-5,7.3-9.1c-3.4-2.3-7.8-2.8-11.6-1.2C-483,75.7-485.8,79.1-486.5,83.2z"/>
		<path id="path4143" inkscape:connector-curvature="0" class="st47" d="M-484.6,67.3c3.6,1.5,7.7,1.2,11-1c3.2-2.2,5.2-5.9,5.1-9.8
			c-3.6-1.5-7.7-1.2-11,1C-482.7,59.8-484.6,63.4-484.6,67.3z"/>
		<path id="path4145" inkscape:connector-curvature="0" class="st48" d="M-488.1,168.6c-0.4-3.2,0.9-6.4,3.4-8.5
			c2.5-2.1,5.9-2.7,9-1.8c0.4,3.2-0.9,6.4-3.4,8.5C-481.6,169-485,169.6-488.1,168.6z"/>
		<path id="path4147" inkscape:connector-curvature="0" class="st49" d="M-547.2,124.8c-0.8-5.3-4.3-9.7-9.1-11.9
			c-4.9-2.2-10.5-1.7-15,1.2c0.8,5.3,4.3,9.7,9.1,11.9C-557.3,128.2-551.7,127.7-547.2,124.8z"/>
		<path id="path4149" inkscape:connector-curvature="0" class="st50" d="M-534.9,73c3.5-0.1,6.7-2,8.5-4.9c1.8-3,2-6.7,0.5-9.9
			c-3.5,0.1-6.7,2-8.5,4.9C-536.2,66.2-536.4,69.9-534.9,73L-534.9,73z"/>
		<path id="path4151" inkscape:connector-curvature="0" class="st51" d="M-507.4,137.4c3.4,5.4,9.3,8.7,15.6,8.8
			c6.4,0.1,12.4-3,15.9-8.3c-3.4-5.4-9.3-8.7-15.6-8.8C-497.9,128.9-503.9,132.1-507.4,137.4z"/>
		<path id="path4153" inkscape:connector-curvature="0" class="st52" d="M-538.6,138.5c4.9,1.9,10.5,1.1,14.7-2
			c4.2-3.1,6.6-8.2,6.3-13.4c-4.9-1.9-10.5-1.1-14.7,2C-536.5,128.2-538.9,133.3-538.6,138.5z"/>
		<path id="path4155" inkscape:connector-curvature="0" class="st53" d="M-542,96.2c3.1,2,7,2.3,10.3,0.8c3.4-1.5,5.7-4.6,6.3-8.2
			c-3.1-2-7-2.3-10.3-0.8C-539,89.5-541.4,92.6-542,96.2z"/>
		<path id="path4157" inkscape:connector-curvature="0" class="st54" d="M-537.5,85.4c3.5,1,7.3,0.2,10.1-2.3
			c2.8-2.4,4.1-6.1,3.6-9.7c-3.5-1-7.3-0.2-10.1,2.3C-536.7,78.1-538,81.8-537.5,85.4L-537.5,85.4z"/>
		<path id="path4159" inkscape:connector-curvature="0" class="st55" d="M-548.4,109.2c-4.2,1.7-8.9,1.2-12.6-1.4
			c-3.7-2.6-5.8-6.8-5.7-11.3c4.2-1.7,8.9-1.2,12.6,1.4C-550.4,100.5-548.2,104.7-548.4,109.2z"/>
		<path id="path4161" inkscape:connector-curvature="0" class="st56" d="M-547.4,95.4c-3.5,0.5-7.1-0.8-9.4-3.4
			c-2.4-2.7-3.2-6.3-2.2-9.8c3.5-0.5,7.1,0.8,9.4,3.4C-547.3,88.3-546.4,92-547.4,95.4z"/>
		<path id="path4163" inkscape:connector-curvature="0" class="st57" d="M-543,82.4c-3.4-0.2-6.4-2-8.1-4.9
			c-1.7-2.9-1.8-6.5-0.3-9.5c3.4,0.2,6.4,2,8.1,4.9C-541.5,75.9-541.4,79.4-543,82.4z"/>
		<path id="path4165" inkscape:connector-curvature="0" class="st58" d="M-544.1,146.5c-1.1-6.6-5.4-12.3-11.5-15
			c-6.1-2.7-13.2-2.1-18.8,1.5c1.1,6.6,5.4,12.3,11.5,15C-556.8,150.8-549.7,150.2-544.1,146.5L-544.1,146.5z"/>
		<path id="path4167" inkscape:connector-curvature="0" class="st59" d="M-524.6,185.7c-2.8-3.7-3.5-8.4-1.9-12.7
			c1.6-4.3,5.2-7.5,9.7-8.5c2.8,3.7,3.5,8.4,1.9,12.7C-516.5,181.5-520.1,184.7-524.6,185.7L-524.6,185.7z"/>
		<path id="path4169" inkscape:connector-curvature="0" class="st60" d="M-509.8,181.8c-2.3-3-2.8-6.9-1.6-10.4
			c1.3-3.5,4.3-6.2,7.9-7c2.3,3,2.8,6.9,1.6,10.4C-503.2,178.3-506.2,180.9-509.8,181.8z"/>
		<path id="path4171" inkscape:connector-curvature="0" class="st61" d="M-497.4,173.5c-2.3-3-2.8-6.9-1.6-10.4
			c1.3-3.5,4.3-6.2,7.9-7c2.3,3,2.8,6.9,1.6,10.4C-490.8,170-493.7,172.7-497.4,173.5L-497.4,173.5z"/>
		<path id="path4173" inkscape:connector-curvature="0" class="st62" d="M-508.9,186.9c0.6,3.7,3,6.9,6.4,8.4
			c3.4,1.5,7.4,1.2,10.5-0.8c-0.6-3.7-3-6.9-6.4-8.4C-501.8,184.5-505.7,184.8-508.9,186.9z"/>
		<path id="path4175" inkscape:connector-curvature="0" class="st63" d="M-495.9,179.4c0.6,3.7,3,6.9,6.4,8.4
			c3.4,1.5,7.4,1.2,10.5-0.8c-0.6-3.7-3-6.9-6.4-8.4C-488.8,177-492.7,177.3-495.9,179.4L-495.9,179.4z"/>
		<path id="path4177" inkscape:connector-curvature="0" class="st64" d="M-517.7,206.1c-0.4-3.2,0.9-6.4,3.4-8.5
			c2.5-2.1,5.9-2.7,9-1.8c0.4,3.2-0.9,6.4-3.4,8.5C-511.2,206.5-514.6,207.1-517.7,206.1z"/>
		<path id="path4179" inkscape:connector-curvature="0" class="st65" d="M-564.2,254.8c-4.8-2.9-7.8-8-8-13.6
			c-0.2-5.6,2.5-10.9,7.1-14.2c4.8,2.9,7.8,8,8,13.6C-556.9,246.3-559.6,251.6-564.2,254.8z"/>
		<path id="path4181" inkscape:connector-curvature="0" class="st66" d="M-549.1,243.1c-4.2-1.5-7.3-5.1-8.3-9.4
			c-1-4.3,0.3-8.9,3.4-12c4.2,1.5,7.3,5.1,8.3,9.4C-544.7,235.4-546,240-549.1,243.1L-549.1,243.1z"/>
		<path id="path4183" inkscape:connector-curvature="0" class="st67" d="M-537.4,231.6c-3.9-1.4-6.8-4.7-7.8-8.7
			c-0.9-4,0.2-8.3,3.1-11.3c3.9,1.4,6.8,4.7,7.8,8.7C-533.4,224.4-534.6,228.6-537.4,231.6L-537.4,231.6z"/>
		<path id="path4185" inkscape:connector-curvature="0" class="st68" d="M-528.9,219.5c-3.1-1.7-5.2-4.9-5.5-8.4
			c-0.3-3.6,1.2-7,4.1-9.2c3.1,1.7,5.2,4.9,5.5,8.4C-524.6,213.9-526.1,217.3-528.9,219.5z"/>
		<path id="path4187" inkscape:connector-curvature="0" class="st69" d="M-565.9,268.6c1.4,5.7,5.7,10.4,11.2,12.3
			c5.6,1.9,11.8,0.9,16.4-2.8c-1.4-5.7-5.7-10.4-11.2-12.3C-555,264-561.2,265-565.9,268.6z"/>
		<path id="path4189" inkscape:connector-curvature="0" class="st70" d="M-551.3,256.3c0.8,4.4,3.8,8,7.9,9.7
			c4.1,1.7,8.8,1.2,12.4-1.4c-0.8-4.4-3.8-8-7.9-9.7C-543,253.2-547.7,253.7-551.3,256.3L-551.3,256.3z"/>
		<path id="path4191" inkscape:connector-curvature="0" class="st71" d="M-540.8,245.5c0.7,4.1,3.5,7.5,7.3,9.1
			c3.8,1.6,8.2,1.2,11.6-1.2c-0.7-4.1-3.5-7.5-7.3-9.1C-533,242.7-537.4,243.1-540.8,245.5z"/>
		<path id="path4193" inkscape:connector-curvature="0" class="st72" d="M-564.4,294.5c3,1.9,6.8,2.2,10,0.8c3.3-1.5,5.6-4.5,6.1-8
			c-3-1.9-6.8-2.2-10-0.8C-561.6,287.9-563.9,290.9-564.4,294.5L-564.4,294.5z"/>
		<path id="path4195" inkscape:connector-curvature="0" class="st73" d="M-511.4,226.7c-2.4-2.2-3.4-5.5-2.9-8.7
			c0.6-3.2,2.8-5.9,5.8-7.2c2.4,2.2,3.4,5.5,2.9,8.7C-506.2,222.8-508.4,225.5-511.4,226.7L-511.4,226.7z"/>
		<path id="path4197" inkscape:connector-curvature="0" class="st74" d="M-580.3,225.7c3.3,1.3,7.1,0.8,10-1.3
			c2.9-2.1,4.5-5.5,4.3-9.1c-3.3-1.3-7.1-0.8-10,1.3C-578.9,218.7-580.5,222.2-580.3,225.7L-580.3,225.7z"/>
		<path id="path4199" inkscape:connector-curvature="0" class="st75" d="M-589.2,231.9c3-2.9,4.4-7.2,3.6-11.3
			c-0.8-4.1-3.6-7.6-7.5-9.2c-3,2.9-4.4,7.2-3.6,11.3C-595.9,226.9-593.1,230.4-589.2,231.9L-589.2,231.9z"/>
		<path id="path4201" inkscape:connector-curvature="0" class="st76" d="M-597.1,242c2.1-4,2.1-8.7,0-12.7
			c-2.2-3.9-6.2-6.5-10.7-6.9c-2.1,4-2.1,8.7,0,12.7C-605.6,239.1-601.6,241.7-597.1,242L-597.1,242z"/>
		<path id="path4203" inkscape:connector-curvature="0" class="st77" d="M-602.6,253.8c1-4.9-0.6-10-4.2-13.5
			c-3.6-3.5-8.7-4.9-13.6-3.8c-1,4.9,0.6,10,4.2,13.5C-612.5,253.5-607.4,254.9-602.6,253.8L-602.6,253.8z"/>
		<path id="path4205" inkscape:connector-curvature="0" class="st78" d="M-593.9,256.2c3.4,2.9,8,3.8,12.2,2.5
			c4.2-1.3,7.6-4.6,8.8-8.9c-3.4-2.9-8-3.8-12.2-2.5C-589.3,248.6-592.6,251.9-593.9,256.2L-593.9,256.2z"/>
		<path id="path4207" inkscape:connector-curvature="0" class="st79" d="M-589.9,244.3c3.1,1.7,6.9,1.7,10.1,0
			c3.1-1.7,5.2-4.9,5.4-8.5c-3.1-1.7-6.9-1.7-10.1,0C-587.6,237.6-589.6,240.8-589.9,244.3L-589.9,244.3z"/>
		<path id="path4209" inkscape:connector-curvature="0" class="st80" d="M-404.7,326.3c0,6,3,11.5,8,14.8c5,3.3,11.3,3.8,16.8,1.3
			c0-6-3-11.5-8-14.8C-393,324.4-399.3,323.9-404.7,326.3L-404.7,326.3z"/>
		<path id="path4211" inkscape:connector-curvature="0" class="st81" d="M-696.3,213c1.3-6.1,5.5-11.1,11.3-13.3
			c5.8-2.2,12.3-1.4,17.3,2.2c-1.3,6.1-5.5,11.1-11.3,13.3C-684.8,217.5-691.3,216.6-696.3,213L-696.3,213z"/>
		<path id="path4213" inkscape:connector-curvature="0" class="st82" d="M-595.7,17.6c-4.1-0.3-7.7-2.6-9.7-6.2
			c-2-3.6-2-7.9-0.1-11.5c4.1,0.3,7.7,2.6,9.7,6.2C-593.8,9.7-593.8,14-595.7,17.6L-595.7,17.6z"/>
		<path id="path4215" inkscape:connector-curvature="0" class="st83" d="M-676.5,48.1c-4.2-2.6-6.8-7.1-6.9-12.1
			c-0.1-4.9,2.3-9.6,6.4-12.4c4.2,2.6,6.8,7.1,6.9,12.1C-670.1,40.7-672.5,45.3-676.5,48.1z"/>
		<path id="path4217" inkscape:connector-curvature="0" class="st84" d="M-586.2,61.9c-4.6,2.4-10.1,2.3-14.7-0.2
			c-4.5-2.6-7.5-7.3-7.8-12.5c4.6-2.4,10.1-2.3,14.7,0.2C-589.4,52-586.5,56.7-586.2,61.9z"/>
		<path id="path4219" inkscape:connector-curvature="0" class="st85" d="M-589.5,40.7c-3.4,3.8-8.5,5.7-13.6,5
			c-5.1-0.8-9.4-4-11.6-8.7c3.4-3.8,8.5-5.7,13.6-5C-596,32.8-591.6,36.1-589.5,40.7L-589.5,40.7z"/>
		<path id="path4221" inkscape:connector-curvature="0" class="st86" d="M-594.5,26.1c-3.1,2.9-7.5,4-11.7,3c-4.1-1-7.5-4.1-8.9-8.1
			c3.1-2.9,7.5-4,11.7-3C-599.3,18.9-595.9,22-594.5,26.1z"/>
		<path id="path4223" inkscape:connector-curvature="0" class="st87" d="M-586.7,36.2c5.2,0.7,10.3-1.2,13.8-5.1
			c3.4-3.9,4.6-9.3,3.2-14.3c-5.2-0.7-10.3,1.2-13.8,5.1C-587,25.8-588.2,31.2-586.7,36.2L-586.7,36.2z"/>
		<path id="path4225" inkscape:connector-curvature="0" class="st88" d="M-538.1,21.1c4.1,0.8,8.2-0.5,11.1-3.5
			c2.9-3,4-7.2,3.1-11.2c-4.1-0.8-8.2,0.5-11.1,3.5C-537.9,12.8-539.1,17-538.1,21.1z"/>
		<path id="path4227" inkscape:connector-curvature="0" class="st89" d="M-591.9,21.8c3.9,0,7.5-2,9.7-5.3c2.1-3.3,2.4-7.4,0.8-11
			c-3.9,0-7.5,2-9.7,5.3C-593.2,14.1-593.5,18.2-591.9,21.8L-591.9,21.8z"/>
		<path id="path4229" inkscape:connector-curvature="0" class="st90" d="M-628.7,138.9c5.3-2.2,9.1-7,10.1-12.6
			c1-5.6-0.9-11.4-5.1-15.3c-5.3,2.2-9.1,7-10.1,12.6C-634.8,129.3-632.9,135-628.7,138.9z"/>
		<path id="path4231" inkscape:connector-curvature="0" class="st91" d="M-543.5,40.9c2.2,3.3,5.9,5.3,9.8,5.3c4,0,7.7-2,9.8-5.4
			c-2.2-3.3-5.9-5.3-9.8-5.3C-537.7,35.5-541.3,37.5-543.5,40.9z"/>
		<path id="path4233" inkscape:connector-curvature="0" class="st92" d="M-540.6,32c2.8,2.3,6.7,3.1,10.2,2c3.5-1.1,6.2-3.9,7.2-7.5
			c-2.8-2.3-6.7-3.1-10.2-2C-536.9,25.6-539.6,28.4-540.6,32z"/>
		<path id="path4235" inkscape:connector-curvature="0" class="st93" d="M-549.7,53c2.3,3.6,6.3,5.7,10.6,5.7
			c4.3,0,8.2-2.2,10.5-5.8c-2.3-3.6-6.3-5.7-10.6-5.7C-543.4,47.2-547.4,49.4-549.7,53z"/>
		<path id="path4237" inkscape:connector-curvature="0" class="st94" d="M-546.3,34.8c-3.6,0.9-7.3,0-10.1-2.4
			c-2.7-2.5-4-6.2-3.4-9.8c3.6-0.9,7.3,0,10.1,2.4C-547,27.5-545.7,31.1-546.3,34.8z"/>
		<path id="path4239" inkscape:connector-curvature="0" class="st95" d="M-541.8,24.7c-3.7-0.1-7-2.1-8.9-5.3
			c-1.9-3.2-2-7.1-0.4-10.4c3.7,0.1,7,2.1,8.9,5.3C-540.4,17.5-540.2,21.4-541.8,24.7L-541.8,24.7z"/>
		<path id="path4241" inkscape:connector-curvature="0" class="st96" d="M-551.9,47.2c-4.2,1.1-8.6,0-11.8-2.8
			c-3.2-2.9-4.7-7.2-4-11.4c4.2-1.1,8.6,0,11.8,2.8C-552.8,38.6-551.3,42.9-551.9,47.2L-551.9,47.2z"/>
		<path id="path4243" inkscape:connector-curvature="0" class="st97" d="M-579.7,61.2c4,1.4,8.5,0.6,11.9-2
			c3.4-2.6,5.1-6.8,4.8-11.1c-4-1.4-8.5-0.6-11.9,2C-578.3,52.8-580.1,56.9-579.7,61.2L-579.7,61.2z"/>
		<path id="path4245" inkscape:connector-curvature="0" class="st98" d="M-643.4,128.3c4.8-2,8.3-6.3,9.2-11.5
			c0.9-5.1-0.8-10.4-4.6-14c-4.8,2-8.3,6.3-9.2,11.5C-648.9,119.5-647.2,124.7-643.4,128.3L-643.4,128.3z"/>
		<path id="path4247" inkscape:connector-curvature="0" class="st99" d="M-657,110.4c4.4-0.3,8.3-2.9,10.5-6.9
			c2.2-4,2.3-8.8,0.3-12.7c-4.4,0.3-8.3,2.9-10.5,6.9C-658.9,101.6-659,106.4-657,110.4z"/>
		<path id="path4249" inkscape:connector-curvature="0" class="st100" d="M-666.7,92.3c4.4,0.5,8.8-1.2,11.7-4.7
			c2.9-3.5,4-8.1,2.8-12.4c-4.4-0.5-8.8,1.2-11.7,4.7C-666.8,83.4-667.9,88-666.7,92.3z"/>
		<path id="path4251" inkscape:connector-curvature="0" class="st101" d="M-671.6,73.4c4.3,0.9,8.8-0.5,12-3.8
			c3.2-3.2,4.6-7.8,3.8-12.2c-4.3-0.9-8.8,0.5-12,3.8C-671,64.4-672.5,69-671.6,73.4z"/>
		<path id="path4253" inkscape:connector-curvature="0" class="st102" d="M-626.2,48c-3.2-2-5.2-5.4-5.3-9.2
			c-0.1-3.8,1.7-7.3,4.9-9.5c3.2,2,5.2,5.4,5.3,9.2C-621.3,42.3-623.1,45.8-626.2,48z"/>
		<path id="path4255" inkscape:connector-curvature="0" class="st103" d="M-606.2,97.4c4.8,1.2,9.9-0.1,13.5-3.5
			c3.6-3.4,5.3-8.4,4.4-13.2c-4.8-1.2-9.9,0.1-13.5,3.5C-605.5,87.6-607.1,92.5-606.2,97.4z"/>
		<path id="path4257" inkscape:connector-curvature="0" class="st104" d="M-614.1,86.5c4.6,1.1,9.4-0.1,12.9-3.4
			c3.5-3.2,5-8,4.2-12.7c-4.6-1.1-9.4,0.1-12.9,3.4C-613.3,77.1-614.9,81.8-614.1,86.5z"/>
		<path id="path4259" inkscape:connector-curvature="0" class="st105" d="M-620.4,74.2c3.6,0.9,7.3-0.1,10-2.6
			c2.7-2.5,3.9-6.2,3.3-9.8c-3.6-0.9-7.3,0.1-10,2.6C-619.8,66.8-621,70.5-620.4,74.2L-620.4,74.2z"/>
		<path id="path4261" inkscape:connector-curvature="0" class="st106" d="M-624.3,62.8c3.6,0.9,7.3-0.1,10-2.6
			c2.7-2.5,3.9-6.2,3.3-9.8c-3.6-0.9-7.3,0.1-10,2.6C-623.7,55.5-624.9,59.2-624.3,62.8L-624.3,62.8z"/>
		<path id="path4263" inkscape:connector-curvature="0" class="st107" d="M-612.5,103.7c-3,3.4-7.4,5-11.9,4.4
			c-4.4-0.7-8.3-3.5-10.1-7.6c3-3.4,7.4-5,11.9-4.4C-618.2,96.8-614.4,99.6-612.5,103.7L-612.5,103.7z"/>
		<path id="path4265" inkscape:connector-curvature="0" class="st108" d="M-625.8,73.1c-2.8,3.2-6.9,4.7-11,4.1
			c-4.1-0.6-7.7-3.3-9.4-7.1c2.8-3.2,6.9-4.7,11-4.1C-631.1,66.6-627.5,69.3-625.8,73.1L-625.8,73.1z"/>
		<path id="path4267" inkscape:connector-curvature="0" class="st109" d="M-620.7,89.3c-2.9,3.4-7.2,5-11.4,4.4
			c-4.3-0.7-8-3.5-9.8-7.6c2.9-3.4,7.2-5,11.4-4.4C-626.2,82.3-622.5,85.2-620.7,89.3L-620.7,89.3z"/>
		<path id="path4269" inkscape:connector-curvature="0" class="st110" d="M-628.5,61.7c-3.7,2-8.1,2.1-11.8,0.1
			c-3.7-2-6.1-5.7-6.4-9.9c3.7-2,8.1-2.1,11.8-0.1C-631.2,53.8-628.8,57.5-628.5,61.7z"/>
		<path id="path4271" inkscape:connector-curvature="0" class="st111" d="M-506.3,271.3c4.6,1,9.5-0.3,12.9-3.7
			c3.4-3.3,4.9-8.2,3.9-12.8c-4.6-1-9.5,0.3-12.9,3.7C-505.8,261.8-507.3,266.6-506.3,271.3L-506.3,271.3z"/>
		<path id="path4273" inkscape:connector-curvature="0" class="st112" d="M-512.2,241.5c3.6,0.6,7.3-0.6,9.8-3.3
			c2.5-2.7,3.5-6.5,2.6-10c-3.6-0.6-7.3,0.6-9.8,3.3C-512.1,234.2-513.1,238-512.2,241.5L-512.2,241.5z"/>
		<path id="path4275" inkscape:connector-curvature="0" class="st113" d="M-510.3,255.3c3.8,0.9,7.8-0.3,10.5-3.2
			c2.8-2.9,4-7,3.2-11.1c-3.8-0.9-7.8,0.3-10.5,3.2C-509.8,247.1-511.1,251.3-510.3,255.3L-510.3,255.3z"/>
		<path id="path4277" inkscape:connector-curvature="0" class="st114" d="M-571.4,193.8c0.1,6.2,3.3,11.9,8.6,15.2
			c5.3,3.3,11.8,3.7,17.4,1c-0.1-6.2-3.3-11.9-8.6-15.2C-559.2,191.6-565.7,191.2-571.4,193.8z"/>
		<path id="path4279" inkscape:connector-curvature="0" class="st115" d="M-517.7,241.9c-3.6,0.6-7.3-0.6-9.8-3.3
			c-2.5-2.7-3.5-6.5-2.6-10c3.6-0.6,7.3,0.6,9.8,3.3C-517.8,234.6-516.8,238.4-517.7,241.9L-517.7,241.9z"/>
		<path id="path4281" inkscape:connector-curvature="0" class="st116" d="M-513.8,280.7c-3.4,3.3-8.3,4.6-12.9,3.4
			c-4.6-1.1-8.4-4.5-9.9-9c3.4-3.3,8.3-4.6,12.9-3.4C-519.2,272.8-515.4,276.2-513.8,280.7L-513.8,280.7z"/>
		<path id="path4283" inkscape:connector-curvature="0" class="st117" d="M-515.8,263.7c-2.4,2.1-5.8,2.9-9,2.2
			c-3.2-0.7-5.8-2.9-6.9-5.8c2.4-2.1,5.8-2.9,9-2.2C-519.5,258.6-516.9,260.8-515.8,263.7z"/>
		<path id="path4285" inkscape:connector-curvature="0" class="st118" d="M-576.4,316.7c2.7,2.5,6.5,3.4,10.1,2.5
			c3.6-0.9,6.4-3.6,7.6-7.1c-2.7-2.5-6.5-3.4-10.1-2.5C-572.3,310.5-575.2,313.2-576.4,316.7L-576.4,316.7z"/>
		<path id="path4287" inkscape:connector-curvature="0" class="st119" d="M-576.8,334.9c3.6,1.4,7.7,0.7,10.9-1.8
			c3.1-2.5,4.9-6.5,4.6-10.6c-3.6-1.4-7.7-0.7-10.9,1.8C-575.3,326.8-577.1,330.8-576.8,334.9L-576.8,334.9z"/>
		<path id="path4289" inkscape:connector-curvature="0" class="st120" d="M-570.9,305c2.7,2.5,6.5,3.4,10.1,2.5
			c3.6-0.9,6.4-3.6,7.6-7.1c-2.7-2.5-6.5-3.4-10.1-2.5C-566.9,298.8-569.7,301.5-570.9,305L-570.9,305z"/>
		<path id="path4291" inkscape:connector-curvature="0" class="st121" d="M-463.3,263.1c-2,6.4-0.8,13.5,3.2,18.8
			c4,5.3,10.3,8,16.7,7.3c2-6.4,0.8-13.5-3.2-18.8C-450.6,265.2-456.9,262.4-463.3,263.1z"/>
		<path id="path4293" inkscape:connector-curvature="0" class="st122" d="M-691.5,120.9c-3.3-2.7-5.1-6.8-4.7-11.1
			c0.4-4.2,3-8,6.7-9.9c3.3,2.7,5.1,6.8,4.7,11.1C-685.2,115.1-687.8,118.9-691.5,120.9L-691.5,120.9z"/>
		<path id="path4295" inkscape:connector-curvature="0" class="st123" d="M-694.1,85.7c4.5-2,9.7-1.5,13.8,1.2
			c4.1,2.7,6.6,7.4,6.5,12.3c-4.5,2-9.7,1.5-13.8-1.2C-691.7,95.2-694.1,90.6-694.1,85.7z"/>
		<path id="path4297" inkscape:connector-curvature="0" class="st124" d="M-695.5,69c4-1.7,8.8-1.2,12.5,1.3
			c3.8,2.5,6.1,6.7,6.1,11.2c-4,1.7-8.8,1.2-12.5-1.3C-693.1,77.6-695.4,73.4-695.5,69L-695.5,69z"/>
		<path id="path4299" inkscape:connector-curvature="0" class="st125" d="M-698.5,53.7c3.8-2.3,8.5-2.4,12.6-0.5
			c4.1,2,7,5.8,7.6,10.2c-3.8,2.3-8.5,2.4-12.6,0.5C-695,61.9-697.8,58.1-698.5,53.7z"/>
		<path id="path4301" inkscape:connector-curvature="0" class="st126" d="M-745.8,77.4c4.2-1.1,8.8,0,12.2,3c3.4,3,5.1,7.5,4.5,11.9
			c-4.2,1.1-8.8,0-12.2-3C-744.7,86.3-746.4,81.8-745.8,77.4L-745.8,77.4z"/>
		<path id="path4303" inkscape:connector-curvature="0" class="st127" d="M-805.6,97.8c3.2,2,5.2,5.6,5.3,9.5
			c0.1,3.9-1.8,7.7-4.9,9.9c-3.2-2-5.2-5.6-5.3-9.5C-810.6,103.8-808.7,100.1-805.6,97.8L-805.6,97.8z"/>
		<path id="path4305" inkscape:connector-curvature="0" class="st128" d="M-753.7,108.4c3.7,2.3,6,6.5,6.1,11
			c0.1,4.5-2,8.8-5.6,11.4c-3.7-2.3-6-6.5-6.1-11C-759.4,115.3-757.3,111-753.7,108.4L-753.7,108.4z"/>
		<path id="path4307" inkscape:connector-curvature="0" class="st129" d="M-737.3,193.6c3.7,2.3,6,6.5,6.1,11
			c0.1,4.5-2,8.8-5.6,11.4c-3.7-2.3-6-6.5-6.1-11C-743,200.5-740.9,196.2-737.3,193.6L-737.3,193.6z"/>
		<path id="path4309" inkscape:connector-curvature="0" class="st130" d="M-705.7,128.6c4.1,1.6,7.1,5.3,8,9.8
			c0.9,4.4-0.4,9-3.5,12.2c-4.1-1.6-7.1-5.3-8-9.8C-710.1,136.4-708.8,131.7-705.7,128.6z"/>
		<path id="path4311" inkscape:connector-curvature="0" class="st131" d="M-741.4,276c4.1,4.2,10,6.1,15.8,4.9
			c5.8-1.1,10.6-5.1,12.8-10.6c-4.1-4.2-10-6.1-15.8-4.9C-734.4,266.5-739.2,270.5-741.4,276L-741.4,276z"/>
		<path id="path4313" inkscape:connector-curvature="0" class="st132" d="M-732.3,242.3c2.7,2.5,6.5,3.5,10,2.6
			c3.6-0.9,6.5-3.5,7.7-7c-2.7-2.5-6.5-3.5-10-2.6C-728.3,236.2-731.1,238.8-732.3,242.3L-732.3,242.3z"/>
		<path id="path4315" inkscape:connector-curvature="0" class="st133" d="M-734.2,258.7c3.1,3.2,7.6,4.6,12,3.6
			c4.4-1,8.2-4.2,10-8.5c-3.1-3.2-7.6-4.6-12-3.6C-728.7,251.1-732.4,254.3-734.2,258.7z"/>
		<path id="path4317" inkscape:connector-curvature="0" class="st134" d="M-732.5,231.2c3.3,1.6,7.2,1.4,10.4-0.5
			c3.1-1.9,5.1-5.3,5.2-9c-3.3-1.6-7.2-1.4-10.4,0.5C-730.4,224.1-732.4,227.5-732.5,231.2L-732.5,231.2z"/>
		<path id="path4319" inkscape:connector-curvature="0" class="st135" d="M-582.2,311.9c-3.4,1.4-7.3,1.1-10.3-1
			c-3-2.1-4.9-5.5-4.8-9.2c3.4-1.4,7.3-1.1,10.3,1C-583.9,304.7-582.1,308.2-582.2,311.9L-582.2,311.9z"/>
		<path id="path4321" inkscape:connector-curvature="0" class="st136" d="M-586.7,326.9c-4.1,1.7-8.9,1-12.5-1.7
			c-3.7-2.8-5.8-7.3-5.6-12c4.1-1.7,8.9-1,12.5,1.7C-588.7,317.7-586.6,322.2-586.7,326.9L-586.7,326.9z"/>
		<path id="path4323" inkscape:connector-curvature="0" class="st137" d="M-578.3,303.8c-3.7-0.2-7-2.3-8.8-5.5
			c-1.8-3.2-1.9-7.1-0.2-10.4c3.7,0.2,7,2.3,8.8,5.5C-576.6,296.6-576.6,300.5-578.3,303.8L-578.3,303.8z"/>
		<path id="path4325" inkscape:connector-curvature="0" class="st138" d="M-584.9,341.4c-4.3,3.4-10,4.2-15.2,2.2
			c-5.2-2-9.2-6.6-10.6-12.1c4.3-3.4,10-4.2,15.2-2.2C-590.2,331.3-586.3,335.8-584.9,341.4L-584.9,341.4z"/>
		<path id="path4327" inkscape:connector-curvature="0" class="st139" d="M-573.4,295.9c-2.8-2.4-4.2-6-3.7-9.7
			c0.5-3.6,2.8-6.8,6.1-8.4c2.8,2.4,4.2,6,3.7,9.7C-567.8,291.2-570.1,294.3-573.4,295.9L-573.4,295.9z"/>
		<path id="path4329" inkscape:connector-curvature="0" class="st140" d="M-604.9,267.5c-0.9-5.2-4.3-9.6-9.2-11.7
			c-4.9-2.1-10.4-1.6-14.9,1.3c0.9,5.2,4.3,9.6,9.2,11.7C-614.9,271-609.3,270.5-604.9,267.5L-604.9,267.5z"/>
		<path id="path4331" inkscape:connector-curvature="0" class="st141" d="M-511.3,291.7c-2.5,5.3-7.6,8.9-13.4,9.6
			c-5.8,0.7-11.6-1.5-15.4-6c2.5-5.3,7.6-8.9,13.4-9.6C-520.9,285-515.1,287.2-511.3,291.7z"/>
		<path id="path4333" inkscape:connector-curvature="0" class="st142" d="M-796,172.2c5,2.7,11,2.6,16-0.1c5-2.7,8.2-7.8,8.6-13.5
			c-5-2.7-11-2.6-16,0.1C-792.3,161.4-795.6,166.5-796,172.2z"/>
		<path id="path4335" inkscape:connector-curvature="0" class="st143" d="M-799.3,155.3c4.2,2.2,9.2,2.2,13.3-0.1
			c4.1-2.3,6.8-6.5,7.2-11.2c-4.2-2.2-9.2-2.2-13.3,0.1C-796.3,146.3-799,150.6-799.3,155.3L-799.3,155.3z"/>
		<path id="path4337" inkscape:connector-curvature="0" class="st144" d="M-802,141.1c3.9,2.1,8.5,2,12.4-0.1
			c3.9-2.1,6.4-6.1,6.7-10.5c-3.9-2.1-8.5-2-12.4,0.1C-799.2,132.8-801.7,136.7-802,141.1L-802,141.1z"/>
		<path id="path4339" inkscape:connector-curvature="0" class="st145" d="M-802.6,128.3c3.2,1.7,7.1,1.7,10.4-0.1
			c3.2-1.8,5.3-5.1,5.6-8.7c-3.2-1.7-7.1-1.7-10.4,0.1C-800.2,121.3-802.3,124.6-802.6,128.3L-802.6,128.3z"/>
		<path id="path4341" inkscape:connector-curvature="0" class="st146" d="M-757.2,141.4c-3.6,0.9-7.3,0-10.1-2.4
			c-2.7-2.5-4-6.2-3.4-9.8c3.6-0.9,7.3,0,10.1,2.4C-757.9,134.1-756.6,137.8-757.2,141.4L-757.2,141.4z"/>
		<path id="path4343" inkscape:connector-curvature="0" class="st147" d="M-739.9,124.2c-2.7-2.5-3.9-6.2-3.2-9.8
			c0.7-3.6,3.1-6.7,6.5-8.1c2.7,2.5,3.9,6.2,3.2,9.8C-734.1,119.8-736.5,122.8-739.9,124.2z"/>
		<path id="path4345" inkscape:connector-curvature="0" class="st148" d="M-761.7,154.9c-4.2,1.1-8.6,0-11.8-2.8
			c-3.2-2.9-4.7-7.2-4-11.4c4.2-1.1,8.6,0,11.8,2.8C-762.5,146.4-761,150.7-761.7,154.9z"/>
		<path id="path4347" inkscape:connector-curvature="0" class="st149" d="M-724.9,177.8c4.7,1.5,9.9,0.5,13.7-2.7
			c3.8-3.2,5.8-8,5.2-12.9c-4.7-1.5-9.9-0.5-13.7,2.7C-723.5,168-725.4,172.9-724.9,177.8L-724.9,177.8z"/>
		<path id="path4349" inkscape:connector-curvature="0" class="st150" d="M-730.8,164.9c4.5,1.4,9.4,0.5,13.1-2.6
			c3.6-3,5.5-7.7,5-12.4c-4.5-1.4-9.4-0.5-13.1,2.6C-729.5,155.5-731.4,160.2-730.8,164.9L-730.8,164.9z"/>
		<path id="path4351" inkscape:connector-curvature="0" class="st151" d="M-735.3,150.5c4.2,1.3,8.7,0.4,12.1-2.4
			c3.4-2.8,5.1-7.1,4.6-11.4c-4.2-1.3-8.7-0.4-12.1,2.4C-734.1,141.9-735.8,146.2-735.3,150.5z"/>
		<path id="path4353" inkscape:connector-curvature="0" class="st152" d="M-738,136.3c3.5,1.1,7.3,0.4,10.2-2c2.8-2.3,4.3-6,3.9-9.6
			c-3.5-1.1-7.3-0.4-10.2,2C-737,129.1-738.4,132.7-738,136.3L-738,136.3z"/>
		<path id="path4355" inkscape:connector-curvature="0" class="st153" d="M-692.3,194c4,2.6,9,2.9,13.3,1c4.3-2,7.4-6,8.1-10.7
			c-4-2.6-9-2.9-13.3-1C-688.5,185.2-691.6,189.3-692.3,194z"/>
		<path id="path4357" inkscape:connector-curvature="0" class="st154" d="M-695.4,167.3c3.2,1.8,7.1,2,10.4,0.3
			c3.3-1.7,5.5-4.9,5.9-8.5c-3.2-1.8-7.1-2-10.4-0.3C-692.8,160.4-695,163.6-695.4,167.3L-695.4,167.3z"/>
		<path id="path4359" inkscape:connector-curvature="0" class="st155" d="M-693.4,179.8c3.3,2.2,7.4,2.4,11,0.7
			c3.6-1.7,6.2-5.2,6.8-9.3c-3.3-2.2-7.4-2.4-11-0.7C-690.1,172.2-692.7,175.7-693.4,179.8L-693.4,179.8z"/>
		<path id="path4361" inkscape:connector-curvature="0" class="st156" d="M-697.7,157.3c3.6,0.8,7.3-0.3,10-2.8
			c2.6-2.6,3.8-6.3,3-9.9c-3.6-0.8-7.3,0.3-10,2.8C-697.2,149.9-698.4,153.7-697.7,157.3L-697.7,157.3z"/>
		<path id="path4363" inkscape:connector-curvature="0" class="st157" d="M-803.8,177.8c-4.1,3.9-9.9,5.5-15.4,4.2
			c-5.5-1.3-10-5.3-11.9-10.6c4.1-3.9,9.9-5.5,15.4-4.2C-810.2,168.4-805.7,172.4-803.8,177.8L-803.8,177.8z"/>
		<path id="path4365" inkscape:connector-curvature="0" class="st158" d="M-806.3,159.4c-3.4,3.3-8.3,4.6-12.9,3.5
			c-4.6-1.1-8.3-4.4-9.9-8.9c3.4-3.3,8.3-4.6,12.9-3.5C-811.6,151.6-807.9,155-806.3,159.4z"/>
		<path id="path4367" inkscape:connector-curvature="0" class="st159" d="M-806.8,141.1c-3.2,3-7.7,4.3-12,3.3
			c-4.3-1-7.8-4.1-9.2-8.3c3.2-3,7.7-4.3,12-3.3C-811.7,133.9-808.2,137-806.8,141.1L-806.8,141.1z"/>
		<path id="path4369" inkscape:connector-curvature="0" class="st160" d="M-806.1,127.5c-2.7,2.5-6.4,3.6-10,2.7
			c-3.6-0.8-6.5-3.4-7.7-6.9c2.7-2.5,6.4-3.6,10-2.7C-810.3,121.4-807.3,124-806.1,127.5L-806.1,127.5z"/>
		<path id="path4371" inkscape:connector-curvature="0" class="st161" d="M-801.5,231c4.4-3.1,6.9-8.3,6.7-13.7
			c-0.2-5.4-3.2-10.3-7.9-13c-4.4,3.1-6.9,8.3-6.7,13.7C-809.1,223.4-806.2,228.3-801.5,231z"/>
		<path id="path4373" inkscape:connector-curvature="0" class="st162" d="M-740.9,316.7c8.1,7.4,11.9,18.4,10,29.2
			c-1.9,10.8-9.1,19.9-19.2,24.3c-8.1-7.4-11.9-18.4-10-29.2C-758.2,330.2-751,321.1-740.9,316.7L-740.9,316.7z"/>
		<path id="path4375" inkscape:connector-curvature="0" class="st163" d="M-742.6,252.8c-4.1,2.4-9.1,2.6-13.4,0.4
			c-4.2-2.1-7.1-6.3-7.7-11c4.1-2.4,9.1-2.6,13.4-0.4C-746,243.9-743.1,248.1-742.6,252.8L-742.6,252.8z"/>
		<path id="path4377" inkscape:connector-curvature="0" class="st164" d="M-737.5,238.1c-3.7,2-8.2,1.9-11.9-0.2
			c-3.7-2.1-6.1-5.9-6.3-10.1c3.7-2,8.2-1.9,11.9,0.2C-740.2,230.1-737.8,233.9-737.5,238.1L-737.5,238.1z"/>
		<path id="path4379" inkscape:connector-curvature="0" class="st165" d="M-659.4,44.2c0.7,3.8-0.7,7.7-3.7,10.4
			c-3,2.6-7.2,3.6-11.2,2.7c-0.7-3.8,0.7-7.7,3.7-10.4C-667.6,44.3-663.4,43.3-659.4,44.2z"/>
		<path id="path4381" inkscape:connector-curvature="0" class="st166" d="M-738.8,226.4c-3.6,0.7-7.3-0.6-9.8-3.2
			c-2.5-2.7-3.5-6.5-2.6-10c3.6-0.7,7.3,0.6,9.8,3.2C-738.9,219.1-737.9,222.8-738.8,226.4L-738.8,226.4z"/>
		<path id="path4383" inkscape:connector-curvature="0" class="st167" d="M-761.1,184.5c3.6-4.5,9.2-6.8,14.9-6.3
			c5.7,0.6,10.7,4,13.4,9.1c-3.6,4.5-9.2,6.8-14.9,6.3C-753.5,193-758.5,189.6-761.1,184.5L-761.1,184.5z"/>
		<path id="path4385" inkscape:connector-curvature="0" class="st168" d="M-759.9,164.8c4.1-2.7,9.4-3.1,13.9-1
			c4.5,2,7.7,6.2,8.4,11.1c-4.1,2.7-9.4,3.1-13.9,1.1C-756,173.9-759.2,169.7-759.9,164.8z"/>
		<path id="path4387" inkscape:connector-curvature="0" class="st169" d="M-754.6,146.5c3.7-0.5,7.4,0.9,10,3.8
			c2.5,2.9,3.5,6.8,2.6,10.5c-3.7,0.5-7.4-0.9-10-3.8C-754.5,154.1-755.5,150.2-754.6,146.5z"/>
		<path id="path4389" inkscape:connector-curvature="0" class="st170" d="M-754,144c2.9,0.9,6.1,0.3,8.5-1.7c2.4-2,3.6-5,3.2-8
			c-2.9-0.9-6.1-0.3-8.5,1.7C-753.1,137.9-754.4,140.9-754,144z"/>
		<path id="path4391" inkscape:connector-curvature="0" class="st171" d="M-763,210.1c-4.9,1.7-8.7,5.8-9.9,10.8
			c-1.3,5.1,0.1,10.4,3.7,14.2c4.9-1.7,8.7-5.8,9.9-10.8C-758.1,219.3-759.4,214-763,210.1L-763,210.1z"/>
		<path id="path4393" inkscape:connector-curvature="0" class="st172" d="M-776.2,190c2.4,2.1,5.6,2.8,8.6,1.9
			c3-0.9,5.4-3.2,6.3-6.2c-2.4-2.1-5.6-2.8-8.6-1.9C-772.9,184.7-775.2,187-776.2,190z"/>
		<path id="path4395" inkscape:connector-curvature="0" class="st173" d="M-786.1,199.9c2.5,4.4,7.1,7.2,12.2,7.4
			c5.1,0.2,9.9-2.1,12.9-6.2c-2.5-4.4-7.1-7.2-12.2-7.4C-778.2,193.4-783.1,195.8-786.1,199.9L-786.1,199.9z"/>
		<path id="path4397" inkscape:connector-curvature="0" class="st174" d="M-790.3,243.5c4.2,5.6,5.2,12.9,2.8,19.5
			c-2.4,6.5-8,11.4-14.8,12.9c-4.2-5.6-5.2-12.9-2.8-19.5C-802.7,249.8-797.2,245-790.3,243.5L-790.3,243.5z"/>
		<path id="path4399" inkscape:connector-curvature="0" class="st175" d="M-706.9,200.9c-4.7-1.7-8.2-5.6-9.4-10.5
			c-1.1-4.9,0.3-10,3.7-13.6c4.7,1.7,8.2,5.6,9.4,10.5C-702,192.2-703.4,197.3-706.9,200.9z"/>
		<path id="path4401" inkscape:connector-curvature="0" class="st176" d="M-517,334.4c-8.9,4.9-14.6,14-15.3,24.2
			c-0.7,10.1,3.8,19.9,12,26c8.9-4.9,14.6-14,15.3-24.2C-504.3,350.3-508.8,340.5-517,334.4L-517,334.4z"/>
		<path id="path4403" inkscape:connector-curvature="0" class="st109" d="M-398.4,319.3c-4.1-2.6-6.6-7.2-6.6-12.1
			c0-4.9,2.4-9.4,6.5-12.1c4.1,2.6,6.6,7.2,6.6,12.1C-391.9,312.1-394.3,316.6-398.4,319.3z"/>
		<path id="path4405" inkscape:connector-curvature="0" class="st177" d="M-652.8,138c3.9,4.4,4.7,10.1,2.3,15.2
			c-2.4,5.1-7.8,8.8-14.4,9.8c-3.9-4.4-4.7-10.1-2.3-15.2C-664.8,142.8-659.4,139.1-652.8,138L-652.8,138z"/>
		<path id="path4407" inkscape:connector-curvature="0" class="st178" d="M-667.1,136.7c1,4.1-0.1,8.5-3.1,11.6
			c-2.9,3.1-7.2,4.5-11.4,3.7c-1-4.1,0.1-8.5,3.1-11.6C-675.6,137.4-671.3,136-667.1,136.7L-667.1,136.7z"/>
		<path id="path4409" inkscape:connector-curvature="0" class="st179" d="M-704.5,117c0.9,3.6-0.1,7.3-2.6,10
			c-2.5,2.7-6.2,3.9-9.8,3.2c-0.9-3.6,0.1-7.3,2.6-10C-711.8,117.5-708.1,116.3-704.5,117L-704.5,117z"/>
		<path id="path4411" inkscape:connector-curvature="0" class="st180" d="M-714,109c-0.2,3.8-2.2,7.2-5.4,9.1
			c-3.2,1.9-7.2,2.1-10.6,0.4c0.2-3.8,2.2-7.2,5.4-9.1C-721.3,107.5-717.3,107.4-714,109z"/>
		<path id="path4413" inkscape:connector-curvature="0" class="st181" d="M-722.1,101.2c-1.9,2.7-5,4.3-8.3,4.2
			c-3.3-0.1-6.3-1.8-8-4.7c1.9-2.7,5-4.3,8.3-4.2C-726.8,96.6-723.8,98.4-722.1,101.2z"/>
		<path id="path4415" inkscape:connector-curvature="0" class="st182" d="M-706.5,110.8c4.7-0.4,8.9-3.1,11.2-7.3
			c2.3-4.2,2.3-9.2,0-13.3c-4.7,0.4-8.9,3.1-11.2,7.3C-708.7,101.7-708.7,106.7-706.5,110.8L-706.5,110.8z"/>
		<path id="path4417" inkscape:connector-curvature="0" class="st183" d="M-716.3,101.9c3.7-0.3,6.9-2.4,8.7-5.6
			c1.8-3.2,1.7-7.1,0-10.4c-3.7,0.3-6.9,2.4-8.7,5.6C-718.1,94.8-718.1,98.7-716.3,101.9L-716.3,101.9z"/>
		<path id="path4419" inkscape:connector-curvature="0" class="st184" d="M-724.8,93.2c3.7-0.3,6.9-2.4,8.7-5.6
			c1.8-3.2,1.7-7.1,0-10.4c-3.7,0.3-6.9,2.4-8.7,5.6C-726.6,86.1-726.6,90-724.8,93.2L-724.8,93.2z"/>
		<path id="path4421" inkscape:connector-curvature="0" class="st185" d="M-577.3,79c0.6,3.7,3,6.9,6.4,8.4
			c3.4,1.5,7.4,1.2,10.5-0.8c-0.6-3.7-3-6.9-6.4-8.4C-570.2,76.6-574.2,76.9-577.3,79L-577.3,79z"/>
		<path id="path4423" inkscape:connector-curvature="0" class="st186" d="M-539,124.8c4.1-0.8,7.6-3.6,9.1-7.4
			c1.5-3.8,0.9-8-1.6-11.3c-4.1,0.8-7.6,3.6-9.1,7.4C-542.1,117.3-541.5,121.5-539,124.8L-539,124.8z"/>
		<path id="path4425" inkscape:connector-curvature="0" class="st187" d="M-583.2,46.2c3,1.3,6.5,1,9.2-0.9c2.7-1.8,4.3-4.9,4.3-8.2
			c-3-1.3-6.5-1-9.2,0.9C-581.7,39.8-583.3,42.9-583.2,46.2L-583.2,46.2z"/>
		<path id="path4427" inkscape:connector-curvature="0" class="st188" d="M-679,135.4c-1.9,2.7-5,4.3-8.3,4.2
			c-3.3-0.1-6.3-1.8-8-4.7c1.9-2.7,5-4.3,8.3-4.2C-683.7,130.8-680.7,132.6-679,135.4L-679,135.4z"/>
		<path id="path4429" inkscape:connector-curvature="0" class="st189" d="M-819.1,185.9c0.7,4.1,3.5,7.5,7.3,9.1
			c3.8,1.6,8.2,1.2,11.6-1.2c-0.7-4.1-3.5-7.5-7.3-9.1C-811.3,183.1-815.6,183.5-819.1,185.9L-819.1,185.9z"/>
		<path id="path4431" inkscape:connector-curvature="0" class="st190" d="M-685.5,116c0.9,5.2,4.4,9.5,9.2,11.5
			c4.8,2,10.4,1.5,14.7-1.5c-0.9-5.2-4.4-9.5-9.2-11.5C-675.6,112.5-681.1,113-685.5,116z"/>
	</g>
</g>
</svg>
