<?xml version="1.0" encoding="UTF-8" standalone="no"?>
<!-- Generator: Adobe Illustrator 15.1.0, SVG Export Plug-In . SVG Version: 6.00 Build 0)  -->

<svg
   xmlns:dc="http://purl.org/dc/elements/1.1/"
   xmlns:cc="http://creativecommons.org/ns#"
   xmlns:rdf="http://www.w3.org/1999/02/22-rdf-syntax-ns#"
   xmlns:svg="http://www.w3.org/2000/svg"
   xmlns="http://www.w3.org/2000/svg"
   xmlns:sodipodi="http://sodipodi.sourceforge.net/DTD/sodipodi-0.dtd"
   xmlns:inkscape="http://www.inkscape.org/namespaces/inkscape"
   version="1.1"
   id="Calque_1"
   viewBox="0 0 259.10083 298.17833"
   xml:space="preserve"
   inkscape:version="0.48.5 r10040"
   sodipodi:docname="2m6m.svg"><title
   id="title3224">2 mètres - 6 mètres</title><metadata
   id="metadata247"><rdf:RDF><cc:Work
       rdf:about=""><dc:format>image/svg+xml</dc:format><dc:type
         rdf:resource="http://purl.org/dc/dcmitype/StillImage" /><dc:title>2 mètres - 6 mètres</dc:title><dc:date>2014-10-01</dc:date><dc:creator><cc:Agent><dc:title>Enolynn</dc:title></cc:Agent></dc:creator><dc:rights><cc:Agent><dc:title>Enolynn</dc:title></cc:Agent></dc:rights><dc:publisher><cc:Agent><dc:title>MEDDE France</dc:title></cc:Agent></dc:publisher><dc:language>fr-FR</dc:language><dc:subject><rdf:Bag><rdf:li>arbre</rdf:li><rdf:li>elagage</rdf:li><rdf:li>coupe</rdf:li><rdf:li>incendie</rdf:li><rdf:li>debroussailleent</rdf:li><rdf:li>tree</rdf:li><rdf:li>pruning</rdf:li><rdf:li>cutting</rdf:li><rdf:li>burning</rdf:li><rdf:li>clearing</rdf:li></rdf:Bag></dc:subject><dc:description>Exemple d'élagage sur les arbres</dc:description><cc:license
         rdf:resource="http://creativecommons.org/licenses/by-sa/3.0/" /></cc:Work><cc:License
       rdf:about="http://creativecommons.org/licenses/by-sa/3.0/"><cc:permits
         rdf:resource="http://creativecommons.org/ns#Reproduction" /><cc:permits
         rdf:resource="http://creativecommons.org/ns#Distribution" /><cc:requires
         rdf:resource="http://creativecommons.org/ns#Notice" /><cc:requires
         rdf:resource="http://creativecommons.org/ns#Attribution" /><cc:permits
         rdf:resource="http://creativecommons.org/ns#DerivativeWorks" /><cc:requires
         rdf:resource="http://creativecommons.org/ns#ShareAlike" /></cc:License></rdf:RDF></metadata><defs
   id="defs245" /><sodipodi:namedview
   pagecolor="#ffffff"
   bordercolor="#666666"
   borderopacity="1"
   objecttolerance="10"
   gridtolerance="10"
   guidetolerance="10"
   inkscape:pageopacity="0"
   inkscape:pageshadow="2"
   inkscape:window-width="933"
   inkscape:window-height="794"
   id="namedview243"
   showgrid="false"
   inkscape:zoom="1.1771479"
   inkscape:cx="128.319"
   inkscape:cy="142.61353"
   inkscape:window-x="36"
   inkscape:window-y="79"
   inkscape:window-maximized="0"
   inkscape:current-layer="g3"
   fit-margin-top="0"
   fit-margin-left="0"
   fit-margin-right="0"
   fit-margin-bottom="0" />
<g
   id="g3"
   transform="translate(0,13.800815)">
	<g
   id="g5"
   transform="translate(0,-4)">
		<path
   d="m 205.263,277.778 -2.25,0.555 -3.25,-1.75 -4.5,0.25 -0.5,-2.5 -3.25,2.25 -1.166,-4.416 c 0,0 -0.167,1.167 -0.417,1.917 -0.25,0.75 -1.167,2.499 -1.167,2.499 0,0 -0.416,-1.666 -0.583,-2.249 -0.167,-0.583 -1.167,-2.001 -1.167,-2.001 0,0 -0.083,2.668 -3.416,2.584 -3.333,-0.084 -0.834,-5.334 -0.834,-5.334 0,0 -1.083,-0.166 -1.833,-0.332 -0.75,-0.166 -2.667,0.082 -2.667,0.082 l 1.75,-3.25 c 0,0 -1.083,0.251 -1.916,0.584 -0.833,0.333 -1.834,1.916 -1.834,1.916 l -1,-5 c 0,0 -1.083,1.251 -1.583,2.418 -0.5,1.167 -0.75,3.666 -0.75,3.666 l 7.583,7.75 2.5,0.667 c 0,0 -0.75,-1.417 -0.083,-1.583 0.666,-0.166 2.417,1.75 2.417,1.75 0,0 -1,-2 -0.25,-1.584 0.75,0.416 1.666,2.334 1.666,2.334 l 0.084,-3.584 c 0,0 0,-0.666 0.083,0.75 0.083,1.416 2,3.334 2,3.334 l 1.417,-2.334 c 0,0 -0.5,1.584 1.916,2.5 2.417,0.916 2.584,-1.25 2.584,-1.25 l 0.833,0.25 0.417,-1 1.083,1.75 1.667,-1.25 -0.167,2.167 c 0,0 1.083,-0.667 3.25,-1.083 2.166,-0.416 5.25,1.166 5.25,1.166 l 2.083,-0.889 0.5,2.125 c 0,0 9.125,-2.375 12.125,-1 3,1.375 4,2.875 4,2.875 l 1,-3.375 0.75,2.25 1.75,-2.5 1,1.375 1.875,-2 4.25,1.75 c 0,0 3.875,-2.25 5.75,-1.5 1.875,0.75 3,2 3,2 0,0 1.25,-2.875 0.75,-3.5 -0.5,-0.625 1.375,3 1.375,3 l 2.125,-2 -0.125,1.375 2.125,-1.5 c 0,0 -0.5,-0.25 -0.5,-1.375 0,-1.125 0.125,-2.25 0.125,-2.25 l -1.875,1.875 -3.25,-1.375 c 0,0 -5.75,3.125 -8.5,2.125 -2.75,-1 -5.625,-2 -6.875,-1.875 -1.25,0.125 -4.5,0.125 -5.625,1.625 l -0.5,-1.625 -2.5,1.875 -1.375,-2.375 c 0,0 -1,2.25 -3.75,2.25 -2.75,0 -4,0.125 -4,0.125 0,0 1.5,-2.125 0.75,-2.25 -0.75,-0.125 -6,2.25 -6,2.25 l -1.5,-3 -0.875,2.875 z"
   id="path7"
   inkscape:connector-curvature="0"
   style="fill:#adbe56" />
		<path
   d="m 150.347,272.5 c 0,0 -0.834,-2.083 -1.834,-4 -1,-1.917 -2.25,-3.5 -2.25,-3.5 l -0.333,6.083 c 0,0 -2.833,-4.834 -3.417,-4.667 -0.583,0.167 -0.833,4.334 -0.833,4.334 0,0 -2.5,-0.416 -3.083,-1.5 l 1.583,5.833 c 0,0 -2.25,-3.917 -3.083,-5 -0.833,-1.083 -1.25,-1.417 -1.25,-1.417 l 0.417,3.5 -3.917,-1.666 0.75,2.5 -3.917,-0.834 c 0,0 -1.916,1.583 -2.833,1.25 -0.917,-0.333 -1.492,-0.75 -2.805,-1.563 -1.072,-0.664 -2,-1.125 -2,-1.125 l -2.529,2.188 -2.833,0.167 -2.472,1.417 c 0,0 2.389,-10e-4 2.722,0.916 l 1,-1.25 c 0,0 1.008,0.625 2.175,0.625 1.167,0 1.25,-0.25 1.25,-0.25 0,0 0.826,-0.959 1.992,-0.625 1.166,0.334 0.667,1.5 0.667,1.5 0,0 1.25,-1 1.75,-0.583 0.5,0.417 0.5,1.417 0.5,1.417 0,0 2.583,-1.334 3.833,-1.334 1.25,0 2.583,1.417 2.583,1.417 l -0.333,-1.667 c 0,0 0.922,0.861 1.288,1.526 0.06,0.109 0.105,0.214 0.128,0.308 0.167,0.666 0.583,-2.417 0.583,-2.417 l 0.5,2.417 c 0,0 0.417,-1.083 1.167,-1.75 0,0 -0.583,1.999 0,3.666 0,0 0.417,-1.583 1.25,-2.583 0,0 -0.176,2.058 0.014,2.914 0.036,0.163 0.086,0.282 0.153,0.336 0.417,0.333 2.25,0 2.917,-1.75 l 0.083,2.667 1.5,-3.334 0.167,2.834 2.244,-0.874 c 0,0 0.339,-1.542 1.172,-1.876 0.834,-0.334 3.334,0.166 3.834,-0.667 0.5,-0.833 1.5,-3.583 1.5,-3.583 z"
   id="path9"
   inkscape:connector-curvature="0"
   style="fill:#adbe56" />
		<path
   d="m 150.263,272.333 c 0,0 -2.25,-5.5 -4,-7.5 l -0.25,6.5 c 0,0 -2.75,-4.5 -3.5,-4.75 -0.75,-0.25 -0.75,4.25 -0.75,4.25 0,0 -3.25,-0.75 -3.25,-2 l 1.75,6.5 c 0,0 -2.75,-5.5 -4.5,-6.75 l 0.5,3.75 -4,-2 0.75,2.75 -3.75,-1 c 0,0 -2.25,2.25 -4,1 -1.75,-1.25 -3.559,-2.441 -3.559,-2.441 l -2.691,2.441 h -3"
   id="path11"
   inkscape:connector-curvature="0"
   style="fill:none;stroke:#201d21;stroke-width:0.5" />
		<path
   d="m 173.013,269.333 c 0,0 0.25,-4.75 2.25,-5.75 l 1,5 c 0,0 1.5,-2.5 3.75,-2.5 l -1.75,3.25 c 0,0 2.25,-0.25 4.5,0.25 0,0 -2,3.75 -0.25,4.75 1.75,1 4.75,0.75 4.5,-2 0,0 2,2.75 1.75,4.25 0,0 1.75,-3.5 1.5,-4.75 l 1.25,4.75 3.25,-2.25 0.5,2.5 4.5,-0.25 3.25,1.75 2,-0.5 c 0,0 1.5,-1.805 1,-3.43 l 1.625,3.5 c 0,0 3.125,-1.75 5.25,-2.25 2.125,-0.5 -0.125,2.25 -0.125,2.25 l 5.125,-0.125 c 0,0 2.375,-0.75 2.625,-2.375 l 1.375,2.375 2.625,-1.875 0.5,1.75 c 0,0 1.25,-1.5 5.5,-1.625 4.25,-0.125 5,2.25 8.875,1.875 3.875,-0.375 6.375,-2 6.375,-2 l 3.375,1.125 2.125,-1.75"
   id="path13"
   inkscape:connector-curvature="0"
   style="fill:none;stroke:#201d21;stroke-width:0.5" />
		<g
   id="g15">
			<path
   d="m 90.228,48.658 c 0,0 0.524,-13.29 6.73,-18.504 6.094,-5.117 16.195,-2.383 16.563,-2.287 -0.119,-0.359 -3.293,-9.49 4.469,-18.391 11.396,-13.072 28.505,-6.62 28.505,-6.62 0,0 10.669,-3.972 17.776,-0.82 6.19,2.748 10.234,8.249 10.234,8.249 0,0 16.968,-1.92 22.147,3.526 5.178,5.448 7.038,12.943 7.038,12.943 0,0 9.889,0.683 12.971,10.016 1.489,4.503 1.522,16.607 -10.512,18.679 0,0 3.543,2.869 2.88,13.135 -0.016,0.175 -0.028,0.341 -0.044,0.518 2.89,0.494 13.981,3.01 17.71,12.693 4.305,11.17 3.345,15.005 3.345,15.005 0,0 12.569,1.316 14.104,9.965 1.86,10.468 -9.895,15.616 -9.895,15.616 0,0 3.857,9.68 -1.625,14.101 -4.305,3.474 -12.829,1.759 -16.289,0.863 -0.941,-0.237 -1.505,-0.423 -1.505,-0.423 -10.255,14.071 -23.125,0.983 -22,1.771 l 0.23,-0.193 c 0.794,-0.369 1.528,-0.782 2.163,-1.275 3.414,-2.62 5.574,-5.873 7.624,-7.833 -0.18,-0.037 -0.354,-0.096 -0.54,-0.173 -1.737,-0.69 -2.936,-1.85 -3.747,-3.009 l -0.141,0.097 c 0,0 -2.222,4.074 -4.737,5.426 -1.088,0.589 -3.022,1.208 -5.131,1.691 l -0.057,-0.232 c -0.238,-0.261 -4.028,-4.5 -5.344,-9.214 0,0 -8.164,3.786 -16.245,1.127 -7.706,-2.534 -11.039,-7.338 -11.33,-7.781 4.602,-5.25 14.636,-13.378 15.534,-14.813 1.2,-1.913 4.06,-9.117 4.06,-9.117 v -0.022 c -1.224,0.125 -2.58,-0.057 -4.072,-0.679 -0.363,-0.148 -0.698,-0.323 -1.003,-0.506 l -0.026,0.046 c 0,0 -1.052,6.667 -4.146,9.281 -3.102,2.613 -13.782,8.041 -13.782,8.041 0,0 -6.773,6.49 -8.731,5.967 -1.958,-0.533 -6.528,-2.171 -6.528,-2.171 0,0 -10.624,-21.132 -11.353,-22.955 -0.727,-1.815 0.832,-9.916 0.832,-9.916 l -2.242,-6.697 c 0,0 -1.93,1.643 -4.663,3.239 0.115,0.374 1.85,6.283 0.768,9.911 -0.532,1.783 1.397,6.523 3.737,11.661 2.58,5.682 5.676,11.846 6.5,15.053 0.277,1.086 0.896,2.49 1.74,4.097 l -0.494,0.265 c 0,0 -10.639,3.379 -16.131,-4.563 -4.062,-5.878 0.489,-14.047 0.489,-14.047 0,0 -7.133,1.465 -16.814,-3.016 C 89.565,91.9 89.678,77.87 89.678,77.87 c 0,0 -7.58,-0.028 -10.787,-12.011 C 75.686,53.875 90.228,48.658 90.228,48.658 z"
   id="path17"
   inkscape:connector-curvature="0"
   style="fill:#b8c260" />
			<path
   d="m 90.102,65.09 c 0.676,0.979 6.298,7.796 6.298,7.796 0,0 -2.705,9.853 3.197,17.287 4.425,5.576 18.063,8.141 18.063,8.141 0,0 -2.449,7.188 0.369,13.501 2.817,6.315 13.206,4.193 13.206,4.193 0,0 -0.556,-1.112 -0.773,-2.362 -0.22,-1.252 -3.357,-7.808 -5.328,-12.141 -1.968,-4.33 -5.16,-13.281 -5.062,-13.917 0.097,-0.636 0.394,-2.419 0.573,-4.068 0.174,-1.651 -1.188,-6.499 -1.188,-6.499 0,0 -6.117,4.308 -11.254,2.522 -6.2,-2.153 -8.809,-10.208 -8.809,-10.208 l -6.966,-5.87 1.044,-4.722 c 0,10e-4 -4.049,5.367 -3.37,6.347 z m 81.009,37.42 c -1.146,1.227 -15.534,14.813 -15.534,14.813 0,0 5.461,6.228 10.309,7.576 8.957,2.492 17.267,-0.922 17.267,-0.922 0,0 2.94,7.379 5.4,9.446 0,0 3.97,-0.78 6.05,-2.268 2.078,-1.485 3.959,-4.946 3.959,-4.946 l -1.587,-3.88 -2.653,-0.005 -4.213,-0.942 -2.367,-2.04 -0.479,-2.125 c 0,0 -5.039,5.79 -11.629,5.337 -6.59,-0.456 -11.109,-7.953 -11.109,-7.953 0,0 8.558,-8.986 8.908,-9.634 0.348,-0.648 3.332,-7.229 3.332,-7.229 0,0 4.681,0.164 7.002,-1.587 2.318,-1.748 2.519,-2.895 2.519,-2.895 0,0 5.057,2.8 7.398,1.554 2.345,-1.244 3.594,-4.334 2.956,-7.213 0,0 11.442,-3.936 9.448,-11.552 0,0 -6.907,6.383 -11.517,7.857 0,0 1.19,5.44 -2.723,6.696 -5.976,1.918 -9.224,-2.733 -9.224,-2.733 0,0 -2.797,5.186 -7.454,5.526 0.001,0.002 -2.912,7.891 -4.059,9.119 z M 125.237,90.004 c 0.438,1.243 11.143,22.481 11.544,22.969 0.399,0.486 5.938,2.526 6.629,2.548 0.688,0.022 7.875,-4.849 8.731,-5.967 0.855,-1.118 13.01,-6.102 14.76,-9.213 1.753,-3.115 3.168,-8.109 3.168,-8.109 0,0 -2.077,-1.164 -2.974,-4.154 -0.896,-2.992 -0.256,-5.549 -0.256,-5.549 0,0 -5.271,0.748 -7.847,-3.051 -2.105,-3.1 -1.688,-6.492 -1.688,-6.492 0,0 -6.987,1.965 -5.478,7.328 1.511,5.362 4.914,5.207 4.914,5.207 0,0 -2.014,2.874 -2.096,6.541 -0.062,2.542 1.164,3.931 1.919,4.546 -1.822,-1.205 -7.673,-4.769 -11.744,-3.842 -4.875,1.109 -7.578,2.75 -7.578,2.75 0,0 -4.258,-7.385 -7.938,-7.721 0,0 2.902,-5.567 2.605,-6.563 -0.302,-0.998 7.931,2.161 10.221,-2.999 2.289,-5.16 0.919,-7.495 0.919,-7.495 0,0 7.445,2.563 10.015,-1.978 2.572,-4.542 -0.399,-8.701 -0.399,-8.701 0,0 -1.474,3.607 -5.126,3.899 -3.652,0.295 -5.428,0.126 -5.428,0.126 0,0 1.306,9.162 -2.683,10.357 -3.987,1.195 -11.068,0.686 -15.309,-0.66 l 2.242,6.697 c 0.001,0.001 -1.56,8.283 -1.123,9.526 z m 70.635,46.781 c -1.6,0.958 -2.811,1.716 -2.811,1.716 0,0 5.705,5.308 10.88,4.797 7.297,-0.714 10.89,-6.375 10.89,-6.375 0,0 13.5,3.628 17.794,-0.44 5.326,-5.046 1.487,-14.347 1.487,-14.347 0,0 4.962,-1.997 7.092,-5.127 2.129,-3.131 3.097,-6.84 3.097,-6.84 0,0 -4.832,7.551 -12.216,9.154 -4.934,1.072 -8.343,-0.12 -8.343,-0.12 0,0 1.136,2.726 0.22,4.791 -0.913,2.064 -3.027,5.571 -5.297,5.677 -3.532,0.164 -8.571,-5.04 -8.571,-5.04 0,0 -3.532,6.112 -7.245,4.762 0,-0.001 -5.38,6.435 -6.977,7.392 z"
   id="path19"
   inkscape:connector-curvature="0"
   style="fill:#96a23d" />
			<path
   d="m 145.542,203.588 c -0.746,-0.195 -3.275,-1.729 -4.273,-2.158 -1.002,-0.422 -7.148,-0.613 -7.148,-0.613 l -0.309,-1.396 5.164,0.229 3.705,0.537 c 0,0 4.25,1.689 6.277,3.015 1.365,0.886 3.836,1.622 5.305,2.005 -0.129,-2.209 -0.248,-4.171 -0.279,-4.828 -0.049,-1.092 -0.252,-5.491 -0.43,-10.592 l -0.057,0.003 c -1.27,-0.885 -5.787,-8.452 -5.787,-8.452 0,0 -2.051,-1.792 -3.551,-2.429 -1.504,-0.642 -7.628,-0.36 -7.628,-0.36 l 0.203,-0.952 c 0,0 0.449,-0.964 1.182,-0.997 0.733,-0.033 3.225,0.794 4.219,0.986 0.99,0.19 2.916,-0.604 2.916,-0.604 l 0.041,-4.48 1.693,-0.552 c 0,0 -0.416,1.667 -0.129,2.597 0.291,0.93 -0.371,2.609 0.664,3.743 0.986,1.075 5.594,5.019 6.045,5.402 -0.154,-6.282 -0.18,-12.106 0.23,-12.999 0.893,-1.928 -2.202,-21.569 -5.729,-28.199 -2.897,-5.453 -11.734,-17.304 -15.666,-24.75 -0.844,-1.606 -1.463,-3.011 -1.74,-4.097 -0.824,-3.207 -3.92,-9.371 -6.5,-15.053 -2.339,-5.138 -4.269,-9.878 -3.737,-11.661 1.083,-3.628 -0.652,-9.537 -0.768,-9.911 2.733,-1.597 4.663,-3.239 4.663,-3.239 l 2.242,6.697 c 0,0 -1.559,8.101 -0.832,9.916 0.729,1.823 11.353,22.955 11.353,22.955 0,0 4.57,1.638 6.528,2.171 1.958,0.523 8.731,-5.967 8.731,-5.967 0,0 10.681,-5.428 13.782,-8.041 3.094,-2.614 4.146,-9.281 4.146,-9.281 l 0.026,-0.046 c 0.305,0.183 0.64,0.357 1.003,0.506 1.492,0.622 2.849,0.804 4.072,0.679 v 0.022 c 0,0 -2.859,7.204 -4.06,9.117 -0.898,1.436 -10.933,9.563 -15.534,14.813 -1.518,1.739 -2.447,3.161 -2.253,3.919 0.783,3.05 0.983,7.36 2.347,9.156 1.26,1.64 6.637,6.312 7.505,7.06 l 3.137,0.478 5.108,-0.85 c 0,0 6.272,-3.382 9.518,-2.91 1.833,0.266 4.868,-0.116 7.614,-0.752 2.108,-0.483 4.043,-1.103 5.131,-1.691 2.516,-1.352 4.737,-5.426 4.737,-5.426 l 0.141,-0.097 c 0.812,1.159 2.01,2.318 3.747,3.009 0.187,0.077 0.36,0.136 0.54,0.173 -2.05,1.96 -4.21,5.213 -7.624,7.833 -0.635,0.493 -1.369,0.906 -2.163,1.275 -3.473,1.601 -8.002,2.196 -9.527,3.274 -1.866,1.32 -9.795,3.847 -9.795,3.847 l 1.075,2.423 c 0,0 -1.028,18.651 -2.218,19.417 -0.367,0.231 -0.498,0.382 -0.879,1.041 l 0.004,0.053 c 1.418,-0.105 2.918,-0.319 3.834,-0.762 2.156,-1.041 7.023,-1.972 8.25,-2.027 1.223,-0.057 5.154,-0.001 5.887,-0.035 0.734,-0.033 1.57,2.046 1.57,2.046 l -2.184,0.575 c 0,0 -4.207,-0.75 -6.402,-0.411 -2.193,0.333 -6.258,2.643 -6.258,2.643 l -4.83,1.634 c 0,0 -0.932,0.656 -1.936,1.339 -0.205,1.468 -0.391,12.497 -0.559,13.864 -0.061,0.467 0,1.898 0.068,4.123 l 0.018,0.033 c 0.965,-0.541 2.352,-1.346 3.209,-1.952 1.422,-1.009 7.16,-4.333 8.373,-4.627 1.213,-0.294 4.631,-0.682 5.578,-1.437 0.951,-0.75 1.527,1.109 1.527,1.109 l -4.637,0.688 -1.666,1.02 0.395,3.279 c 0,0 4.982,1.658 5.721,1.623 0.734,-0.033 2.994,1.043 4.996,1.895 2.002,0.844 3.816,2.885 3.816,2.885 l -1.693,0.552 c 0,0 -4.805,-3.083 -7.545,-3.899 -2.738,-0.817 -6.477,-2.056 -6.477,-2.056 0,0 -0.797,-1.381 -2.512,-1.302 -1.715,0.078 -5.09,1.414 -6.508,2.66 -1.012,0.891 -1.604,2.857 -2.574,4.018 0.143,3.713 0.387,7.041 0.404,7.393 0.01,0.237 0.086,1.727 0.143,3.117 l -0.037,0.03 c 0.633,0.822 1.443,1.722 2.09,1.94 1.244,0.412 3.234,1.026 3.234,1.026 l -0.178,1.425 -1.465,0.067 -1.775,-1.098 c 0,0 -0.955,-1.148 -1.791,-1.729 0.059,2.063 0.096,5.1 0.02,5.82 -0.158,1.599 -0.584,8.682 -0.613,9.192 0.777,-0.104 1.648,-0.278 2.484,-0.56 2.416,-0.818 7.059,-1.269 7.059,-1.269 l 2.949,0.102 c 0,0 0.098,2.118 -0.916,1.453 -1.008,-0.658 -6.832,0.788 -8.752,1.821 -0.885,0.475 -2.031,0.818 -3.018,1.041 -0.008,0.191 -0.07,1.867 -0.404,4.539 -0.072,0.557 -0.158,1.197 -0.248,1.879 l 0.086,0.014 c 0,0 5.328,-1.658 6.061,-1.691 0.734,-0.035 1.531,1.341 1.531,1.341 0,0 -6.9,2.026 -8.227,5.153 l -0.041,-0.005 c -0.133,1.377 -0.205,2.682 -0.158,3.726 l 0.23,4.978 c 2.18,-0.504 4.611,-1.605 5.799,-1.957 1.941,-0.558 4.881,-0.693 4.881,-0.693 l 2.043,1.793 c 0,0 -3.387,1.096 -5.834,1.207 -1.352,0.063 -4.289,1.197 -6.656,2.209 -0.383,1.963 1.602,15.94 1.602,15.94 l 1.705,5.104 c 0,0 3.451,0.316 5.992,2.084 2.535,1.771 3.264,6.922 3.264,6.922 -2.809,2.959 -7.861,-0.113 -7.861,-0.113 l -5.986,-2.078 -4.52,-2.146 -5.277,2.597 c 0,0 -4.68,4.931 -7.111,5.511 -2.426,0.588 -7.348,0.341 -7.348,0.341 0,0 0,0 1.297,-3.833 1.299,-3.826 4.389,-0.672 5.727,-3.563 1.34,-2.891 1.189,-6.181 0.547,-9.455 -0.643,-3.268 0.723,-5.686 3.018,-9.096 1.133,-1.678 1.33,-8.473 1.338,-14.924 -3.773,0.06 -11.553,1.019 -11.553,1.019 l -0.055,-1.177 c 0,0 1.963,-0.092 5.381,-0.486 1.824,-0.206 4.307,-1.112 6.236,-1.919 -0.012,-2.508 -0.039,-4.986 -0.023,-7.027 0,0 -6.053,-3.553 -7.299,-3.963 -1.246,-0.417 -0.336,-1.871 -0.336,-1.871 0,0 4.752,1.899 7.906,1.048 0.324,-1.109 0.285,-4.839 0.115,-9.199 l -0.047,0.002 c -2.232,-5.786 -10.154,-7.308 -10.154,-7.308 l -1.484,-0.168 c 0,0 1.172,-1.234 2.654,-1.066 1.477,0.17 8.773,3.959 8.773,3.959 l 0.047,-0.002 c -0.102,-1.939 -0.209,-3.873 -0.307,-5.645 l 0.004,-0.018 c -0.166,-0.062 -0.258,-0.086 -0.258,-0.086 0,0 -7.785,-3.89 -8.527,-4.094 z"
   id="path21"
   inkscape:connector-curvature="0"
   style="fill:#d0c49d" />
			<path
   d="m 125.529,90.395 0.832,-9.916 -2.539,-6.078 -4.366,2.62 1.188,6.499 -0.42,3.412 c 0,0 0.582,0.116 1.715,0.065 1.136,-0.053 3.59,3.398 3.59,3.398 z m 45.582,12.115 4.06,-9.14 -2.542,-0.37 -2.56,-0.769 -3.168,8.109 c 0,0 1.495,3.657 -1.554,7.399 l 5.764,-5.229 z m 31.198,26.709 -1.702,-0.739 -2.045,-2.27 -1.72,2.822 -3.158,2.7 c 0,0 -0.673,4.679 -1.418,4.902 -0.75,0.224 -7.291,2.229 -9.894,3.299 -2.605,1.066 -12.93,3.249 -12.93,3.249 1.73,0.487 4.297,2.438 4.297,2.438 l 9.124,-3.247 c 0,0 0.978,-0.659 1.848,-1.031 1.487,-0.64 8.397,-2.852 10.514,-4.118 2.119,-1.263 7.084,-8.005 7.084,-8.005 z m -31.607,42.114 c 0,0 -2.229,1.838 -3.232,2.029 -1.006,0.191 -2.049,-0.484 -2.049,-0.484 0,0 -0.701,0.467 -1.416,0.645 -0.715,0.178 -1.744,-0.209 -1.744,-0.209 l 0.531,2.145 2.5,0.897 1.674,-1.379 4.623,-2.759 3.654,-1.238 2.125,-0.965 4.115,-1.709 1.568,-0.506 2.686,0.238 3.342,0.314 2.184,-0.575 -0.672,-1.121 c 0,0 -4.467,0.351 -6.783,0.313 -2.314,-0.038 -6.428,1.742 -7.838,2.529 -1.41,0.79 -5.268,1.835 -5.268,1.835 z m 9.578,17.445 c 0.105,0.188 1.68,0.879 1.68,0.879 0,0 -0.5,-2.476 -0.426,-2.961 0.074,-0.485 1.697,-1.338 1.697,-1.338 0,0 -3.377,0.451 -3.547,0.941 -0.17,0.49 0.493,2.291 0.596,2.479 z m 9.826,3.983 c -0.871,-0.499 -6.063,-1.413 -8.117,-1.761 1.955,0.559 5.709,1.643 6.779,2.016 1.471,0.511 6.031,3.595 6.031,3.595 l 0.863,-0.44 c 0.001,-0.001 -4.466,-2.785 -5.556,-3.41 z M 181.989,191 c -0.729,-0.209 -1.211,-0.345 -1.211,-0.345 l 0.369,0.204 c 0,0.001 0.323,0.053 0.842,0.141 z m -12.804,5.032 c 0.131,-0.383 1.533,-3.438 3.123,-4.477 1.592,-1.036 2.969,-1.871 5.959,-2.201 0,0 -1.756,-0.787 -4.768,0.798 -3.014,1.585 -5.1,4.477 -5.768,4.604 -0.67,0.127 -0.908,1.199 -0.908,1.199 0,0 -2.531,1.563 -1.141,2.463 0,0 0.428,-1.176 1.477,-1.418 1.049,-0.24 1.895,-0.583 2.026,-0.968 z m -15.688,-6.243 -0.061,-3.919 c -2.35,-0.761 -5.818,-4.939 -5.818,-4.939 l 2.92,4.783 2.959,4.075 z m 19.865,20.424 -1.783,-0.979 -1.385,-0.803 1.406,1.501 1.775,1.098 1.465,-0.067 0.064,-0.724 -1.542,-0.026 z m -11.832,-1.478 c -1.002,-0.822 -3.373,0.059 -3.768,-0.116 -0.393,-0.175 -3.158,-1.591 -3.941,-1.843 -0.783,-0.254 -5.426,-2.644 -6.129,-3.287 -0.705,-0.642 -5.316,-2.357 -6.295,-2.697 -0.98,-0.342 -7.267,-0.727 -7.267,-0.727 l -0.01,0.752 7.148,0.613 3.92,2.175 2.85,1.122 4.344,2.211 2.363,1.049 1.881,1.07 c 0,0 2.367,1.144 3.049,1.306 0.682,0.162 1.855,-1.628 1.855,-1.628 z m -18.025,1.745 c 0,0 8.393,0.606 11.291,7.533 l -0.16,-2.983 c 0,0 -6.612,-5.336 -11.131,-4.55 z m 35.141,12.411 1.438,-0.211 0.957,0.391 0.553,-0.532 -1.244,-0.377 c 0,0 -5.477,0.47 -8.457,1.692 -2.98,1.222 -4.703,1.518 -5.434,1.335 -0.732,-0.184 -1.877,0.086 -1.877,0.086 0,0 0.043,0.938 0.342,1.141 0.299,0.204 2.014,-0.236 2.014,-0.236 l 3.365,-0.733 1.738,-0.682 3.234,-1.283 3.371,-0.591 z m -10.372,10.386 -0.494,3.758 c 0,0 1.721,-2.296 3.412,-3.241 1.693,-0.945 4.855,-1.907 4.855,-1.907 l -0.404,-0.395 c 0.001,0 -4.451,2.301 -7.369,1.785 z m -14.033,-3.259 c 0,0 -4.449,-0.808 -5.854,-1.465 l 5.861,3.201 -0.007,-1.736 z m 10.393,19.986 c 0,0 5.654,-2.86 7.225,-3.298 1.572,-0.434 4.666,-0.791 5.666,-1.057 1,-0.263 3.051,-0.77 3.051,-0.77 l -0.873,-0.631 c 0,0 -5.016,1.457 -7.613,1.146 -0.873,-0.105 -6.713,3.418 -7.662,3.244 -0.947,-0.172 -0.764,0.686 -0.764,0.686 l 0.97,0.68 z m -21.766,-7.82 0.049,0.422 4.289,-0.476 c 0,0 7.488,-0.707 9.016,-0.487 1.529,0.219 2.119,-1.111 2.119,-1.111 -0.135,-1.367 -4.967,0.518 -6.826,0.965 -1.859,0.447 -8.647,0.687 -8.647,0.687 z m 12.028,29.819 c 0.52,-1.277 0.285,-6.376 -1.406,-5.43 -1.691,0.945 -3.592,-2.632 -3.592,-2.632 0,0 0.369,3.843 0.654,5.854 0.287,2.011 3.824,3.488 4.344,2.208 z m -2.409,8.407 c -1.779,1.142 -2.596,1.707 -2.596,1.707 0,0 3.576,-2.074 5.564,-4.256 1.928,-2.113 6.824,-3.852 6.824,-3.852 l 0.021,-0.32 3.951,2.037 6.072,2.034 c 0,0 -2.613,-4.413 -5.549,-5.337 -2.936,-0.927 -3.119,-6.992 -4.945,-6.907 -1.83,0.085 -2.949,7.173 -5.105,8.526 -2.156,1.353 -2.455,5.225 -4.237,6.368 z"
   id="path23"
   inkscape:connector-curvature="0"
   style="fill:#9f9578" />
			<path
   d="m 97.234,48.524 c 0,0 8.687,-8.928 16.267,-13.067 7.58,-4.141 19.463,-1.275 19.463,-1.275 0,0 -6.89,-5.558 -4.189,-16.864 2.7,-11.307 19.268,-9.605 19.268,-9.605 14.411,-8.055 23.666,11.798 23.666,11.798 4.596,-3.055 11.869,-1.495 16.463,3.6 3.373,3.741 0.676,10.924 -0.998,14.48 0.822,-1.102 2.247,-2.463 4.72,-3.659 11.056,-5.353 22.806,9.564 22.806,9.564 0,0 0.97,-3.646 -0.935,-7.918 -1.901,-4.271 -13.099,-8.683 -13.099,-8.683 0,0 -1.671,-7.504 -6.05,-12.042 -4.379,-4.536 -20.023,-2.678 -20.023,-2.678 0,0 -12.459,-15.346 -27.603,-6.689 0,0 -17.308,-5.458 -24.271,3.771 -6.966,9.229 -5.347,19.767 -5.347,19.767 0,0 -20.524,2.842 -20.138,19.5 z m 88.859,-8.829 c 0,0 0.474,-0.819 1.08,-2.105 -0.905,1.208 -1.08,2.105 -1.08,2.105 z m 23.701,61.956 c 0,0 0.025,-0.024 0.066,-0.063 -0.05,0.04 -0.066,0.063 -0.066,0.063 z m 0.066,-0.064 c 0.303,-0.256 1.948,-1.29 9.893,-3.176 9.248,-2.195 21.257,11.655 21.257,11.655 0,0 0.593,-3.564 -2.856,-7.195 -3.455,-3.631 -11.673,-6.538 -11.673,-6.538 -1.249,-16.116 -11.959,-23.709 -11.959,-23.709 0,0 3.122,7.438 3.675,13.982 0.529,6.231 -7.558,14.229 -8.337,14.981 z"
   id="path25"
   inkscape:connector-curvature="0"
   style="fill:#d3da73" />
			<g
   id="g27">
				<path
   d="m 164.606,249.855 c 0,0 7.686,-3.654 10.135,-3.767 2.449,-0.111 5.838,-1.21 5.838,-1.21 l -2.049,-1.792 c 0,0 -2.939,0.135 -4.877,0.694 -1.938,0.563 -7.217,3.162 -9.242,1.843"
   id="path29"
   inkscape:connector-curvature="0"
   style="fill:none;stroke:#201d21;stroke-width:0.5" />
				<path
   d="m 167.858,245.876 c 0,0 -0.105,-2.293 -0.234,-5.117 -0.131,-2.823 0.633,-7.571 0.992,-10.415 0.359,-2.848 0.404,-4.558 0.404,-4.558"
   id="path31"
   inkscape:connector-curvature="0"
   style="fill:none;stroke:#201d21;stroke-width:0.5" />
				<path
   d="m 166.952,226.176 c 0,0 3.172,-0.383 5.09,-1.412 1.916,-1.032 7.738,-2.479 8.752,-1.818 1.012,0.66 0.914,-1.455 0.914,-1.455 l -2.949,-0.102 c 0,0 -4.645,0.451 -7.061,1.269 -2.416,0.818 -5.121,0.707 -5.121,0.707 l -1.77,-1.097"
   id="path33"
   inkscape:connector-curvature="0"
   style="fill:none;stroke:#201d21;stroke-width:0.5" />
				<path
   d="m 198.421,126.307 c 0,0 -2.224,4.076 -4.734,5.429 -2.511,1.349 -9.516,2.906 -12.753,2.438 -3.234,-0.469 -9.513,2.91 -9.513,2.91 l -5.108,0.852 -15.547,-2.372"
   id="path35"
   inkscape:connector-curvature="0"
   style="fill:none;stroke:#201d21;stroke-width:0.5" />
				<path
   d="m 171.72,168.502 c 0.379,-0.656 0.51,-0.811 0.873,-1.043 1.191,-0.762 2.225,-19.413 2.225,-19.413 l -1.075,-2.42 c 0,0 7.924,-2.527 9.794,-3.852 1.869,-1.32 8.274,-1.924 11.69,-4.552 3.415,-2.628 5.577,-5.89 7.632,-7.836"
   id="path37"
   inkscape:connector-curvature="0"
   style="fill:none;stroke:#201d21;stroke-width:0.5" />
				<path
   d="m 169.161,191.543 c -0.066,-2.225 -0.127,-3.658 -0.066,-4.123 0.18,-1.422 0.369,-13.275 0.584,-13.992"
   id="path39"
   inkscape:connector-curvature="0"
   style="fill:none;stroke:#201d21;stroke-width:0.5" />
				<path
   d="m 169.21,223.244 c 0,0 0.449,-7.563 0.619,-9.222 0.072,-0.725 0.035,-3.828 -0.025,-5.891"
   id="path41"
   inkscape:connector-curvature="0"
   style="fill:none;stroke:#201d21;stroke-width:0.5" />
				<path
   d="m 154.468,241.542 c -0.01,6.463 -0.203,13.29 -1.336,14.97 -2.297,3.406 -3.658,5.826 -3.018,9.098 0.643,3.271 0.793,6.563 -0.545,9.453 -1.342,2.891 -4.434,-0.267 -5.729,3.564 -1.297,3.831 -1.297,3.831 -1.297,3.831 0,0 4.922,0.245 7.35,-0.341 2.426,-0.582 7.109,-5.512 7.109,-5.512 l 5.279,-2.6 4.518,2.149 5.986,2.081 c 0,0 5.049,3.068 7.859,0.108 0,0 -0.729,-5.151 -3.264,-6.921 -2.537,-1.768 -5.986,-2.082 -5.986,-2.082 l -1.709,-5.105 c 0,0 -1.996,-14.051 -1.594,-15.955"
   id="path43"
   inkscape:connector-curvature="0"
   style="fill:none;stroke:#201d21;stroke-width:0.5" />
				<path
   d="m 154.323,207.784 c 0.416,7.347 0.982,17.475 0.404,19.427 -0.361,1.218 -0.275,6.478 -0.25,11.916"
   id="path45"
   inkscape:connector-curvature="0"
   style="fill:none;stroke:#201d21;stroke-width:0.5" />
				<path
   d="m 168.458,232.237 c 0,0 5.324,-1.66 6.057,-1.693 0.736,-0.034 1.535,1.343 1.535,1.343 0,0 -6.902,2.026 -8.23,5.153"
   id="path47"
   inkscape:connector-curvature="0"
   style="fill:none;stroke:#201d21;stroke-width:0.5" />
				<path
   d="m 154.456,231.998 c 0,0 -6.055,-3.554 -7.301,-3.968 -1.246,-0.413 -0.33,-1.869 -0.33,-1.869 0,0 4.75,1.901 7.902,1.05"
   id="path49"
   inkscape:connector-curvature="0"
   style="fill:none;stroke:#201d21;stroke-width:0.5" />
				<path
   d="m 157.419,237.694 c 0,0 -5.76,2.857 -9.178,3.252 -3.418,0.392 -5.377,0.483 -5.377,0.483 l 0.055,1.175 c 0,0 12.201,-1.504 13.459,-0.855"
   id="path51"
   inkscape:connector-curvature="0"
   style="fill:none;stroke:#201d21;stroke-width:0.5" />
				<path
   d="m 154.583,213.429 c 0,0 -7.293,-3.79 -8.773,-3.958 -1.48,-0.166 -2.648,1.066 -2.648,1.066 l 1.479,0.166 c 0,0 7.924,1.521 10.154,7.312"
   id="path53"
   inkscape:connector-curvature="0"
   style="fill:none;stroke:#201d21;stroke-width:0.5" />
				<path
   d="m 153.399,183.724 c 0,0 -5.045,-4.306 -6.08,-5.435 -1.033,-1.132 -0.375,-2.813 -0.662,-3.742 -0.289,-0.93 0.125,-2.599 0.125,-2.599 l -1.693,0.55 -0.037,4.48 c 0,0 -1.928,0.795 -2.918,0.605 -0.992,-0.19 -3.484,-1.019 -4.219,-0.984 -0.736,0.033 -1.182,0.998 -1.182,0.998 l -0.201,0.951 c 0,0 6.123,-0.282 7.625,0.356 1.502,0.638 3.549,2.429 3.549,2.429 0,0 4.521,7.57 5.789,8.455"
   id="path55"
   inkscape:connector-curvature="0"
   style="fill:none;stroke:#201d21;stroke-width:0.5" />
				<path
   d="m 167.981,168.616 c 0,0 5.412,0.223 7.572,-0.82 2.16,-1.043 7.025,-1.975 8.252,-2.029 1.225,-0.057 5.154,-0.003 5.889,-0.037 0.734,-0.033 1.568,2.051 1.568,2.051 l -2.184,0.572 c 0,0 -4.209,-0.75 -6.402,-0.413 -2.193,0.337 -6.258,2.645 -6.258,2.645 l -4.834,1.637 c 0,0 -3.566,2.521 -4.289,2.791 -0.725,0.269 -1.16,1.468 -2.15,1.277 -0.992,-0.19 -2.26,-1.075 -2.26,-1.075 l -0.82,-1.848"
   id="path57"
   inkscape:connector-curvature="0"
   style="fill:none;stroke:#201d21;stroke-width:0.5" />
				<path
   d="m 169.729,206.543 c -0.055,-1.393 -0.133,-2.881 -0.145,-3.116 -0.016,-0.354 -0.264,-3.721 -0.404,-7.466"
   id="path59"
   inkscape:connector-curvature="0"
   style="fill:none;stroke:#201d21;stroke-width:0.5" />
				<path
   d="m 119.456,77.003 c 0,0 1.883,6.176 0.77,9.933 -1.115,3.757 8.666,20.604 10.235,26.708 1.566,6.105 13.886,22.216 17.411,28.85 3.519,6.632 6.618,26.271 5.726,28.198 -0.892,1.927 0.256,26.86 0.387,29.682 0.029,0.668 0.152,2.649 0.285,4.879"
   id="path61"
   inkscape:connector-curvature="0"
   style="fill:none;stroke:#201d21;stroke-width:0.5" />
				<path
   d="m 170.067,92.235 c 0,0 -1.052,6.66 -4.146,9.274 -3.094,2.614 -13.779,8.048 -13.779,8.048 0,0 -6.776,6.49 -8.731,5.963 -1.952,-0.529 -6.531,-2.172 -6.531,-2.172 0,0 -10.623,-21.13 -11.347,-22.949 -0.729,-1.819 0.827,-9.923 0.827,-9.923 l -2.237,-6.692"
   id="path63"
   inkscape:connector-curvature="0"
   style="fill:none;stroke:#201d21;stroke-width:0.5" />
				<path
   d="m 163.293,137.562 c 0,0 -6.25,-5.376 -7.619,-7.165 -1.369,-1.79 -1.568,-6.104 -2.352,-9.157 -0.784,-3.053 16.594,-16.826 17.792,-18.732 1.2,-1.91 4.059,-9.117 4.059,-9.117"
   id="path65"
   inkscape:connector-curvature="0"
   style="fill:none;stroke:#201d21;stroke-width:0.5" />
				<path
   d="m 168.683,205.12 c 0,0 1.854,2.978 3.1,3.391 1.246,0.414 3.24,1.031 3.24,1.031 l -0.182,1.422 -1.469,0.067 -1.77,-1.097 c 0,0 -2.078,-2.498 -2.791,-1.992 -0.713,0.504 -0.713,0.504 -0.713,0.504"
   id="path67"
   inkscape:connector-curvature="0"
   style="fill:none;stroke:#201d21;stroke-width:0.5" />
				<path
   d="m 159.847,210.475 c 0,0 -1.725,-0.156 -3.004,-1.276 -1.279,-1.119 -2.77,-1.521 -2.77,-1.521 0,0 -7.787,-3.884 -8.533,-4.086 -0.746,-0.202 -3.271,-1.735 -4.273,-2.159 -1,-0.426 -7.144,-0.615 -7.144,-0.615 l -0.311,-1.399 5.164,0.233 3.709,0.536 c 0,0 4.248,1.689 6.273,3.011 2.023,1.322 6.488,2.295 6.488,2.295 l 1.938,-0.562"
   id="path69"
   inkscape:connector-curvature="0"
   style="fill:none;stroke:#201d21;stroke-width:0.5" />
				<path
   d="m 165.929,198.645 c 0,0 -0.064,-1.41 1.885,-1.736 1.949,-0.326 2.531,-3.652 3.947,-4.896 1.414,-1.243 4.789,-2.578 6.502,-2.656 1.717,-0.079 2.516,1.298 2.516,1.298 0,0 3.738,1.241 6.477,2.06 2.738,0.816 7.543,3.896 7.543,3.896 l 1.693,-0.55 c 0,0 -1.813,-2.037 -3.814,-2.889 -2.004,-0.851 -4.262,-1.924 -4.996,-1.891 -0.734,0.033 -5.721,-1.623 -5.721,-1.623 l -0.396,-3.281 1.67,-1.02 4.633,-0.686 c 0,0 -0.576,-1.857 -1.523,-1.107 -0.947,0.75 -4.365,1.144 -5.58,1.435 -1.213,0.292 -6.951,3.62 -8.377,4.628 -1.426,1.01 -4.299,2.557 -4.299,2.557 l -1.971,-0.146"
   id="path71"
   inkscape:connector-curvature="0"
   style="fill:none;stroke:#201d21;stroke-width:0.5" />
				<path
   d="m 223.691,119.271 c 0,0 2.116,4.636 -2.478,9.146 -4.594,4.511 -11.084,-3.88 -11.084,-3.88 0,0 -3.243,6.521 -7.824,4.683 -4.583,-1.835 -5.387,-6.852 -5.387,-6.852 0,0 -5.489,1.053 -8.42,-2.251 -2.933,-3.302 1.998,-8.896 1.998,-8.896"
   id="path73"
   inkscape:connector-curvature="0"
   style="fill:none;stroke:#201d21;stroke-width:0.5" />
				<path
   d="m 193.254,79.922 c 0,0 4.199,8.903 -1.405,10.678 -5.604,1.773 -9.216,-2.607 -9.216,-2.607 0,0 -4.191,7.772 -11.534,4.699 -5.968,-2.498 -4.254,-10.037 -4.254,-10.037 0,0 -7.724,1.013 -9.44,-7.525 -0.985,-4.883 6.58,-5.23 6.58,-5.23"
   id="path75"
   inkscape:connector-curvature="0"
   style="fill:none;stroke:#201d21;stroke-width:0.5" />
				<path
   d="m 148.291,50.152 c 0,0 7.792,4.57 4.632,10.021 -3.161,5.453 -10.813,3.911 -10.813,3.911 0,0 1.553,9.024 -3.294,10.765 -4.847,1.74 -14.695,-1.065 -14.695,-1.065 0,0 -7.79,6.649 -14.255,6.188 C 103.399,79.511 99.524,69.455 99.524,69.455 l -7.086,-5.736"
   id="path77"
   inkscape:connector-curvature="0"
   style="fill:none;stroke:#201d21;stroke-width:0.5" />
				<path
   d="m 194.569,83.842 c 0,0 13.794,-4.996 14.46,-15.259 0.663,-10.266 -2.88,-13.135 -2.88,-13.135 12.034,-2.071 12.001,-14.173 10.512,-18.679 -3.082,-9.333 -12.971,-10.016 -12.971,-10.016 0,0 -1.86,-7.495 -7.038,-12.943 -5.18,-5.446 -22.147,-3.526 -22.147,-3.526 0,0 -4.044,-5.501 -10.234,-8.249 -7.102,-3.15 -17.776,0.82 -17.776,0.82 0,0 -17.108,-6.452 -28.505,6.62 -7.92,9.081 -4.458,18.397 -4.458,18.397 0,0 -10.37,-2.933 -16.573,2.28 -6.206,5.214 -6.73,18.504 -6.73,18.504 0,0 -14.542,5.218 -11.336,17.2 3.207,11.982 10.787,12.011 10.787,12.011 0,0 -0.112,14.029 9.572,18.513 9.682,4.48 16.814,3.016 16.814,3.016 0,0 -4.551,8.169 -0.489,14.047 5.487,7.943 16.689,4.349 16.689,4.349"
   id="path79"
   inkscape:connector-curvature="0"
   style="fill:none;stroke:#201d21;stroke-width:0.5" />
				<path
   d="m 209.055,69.086 c 0,0 13.336,1.534 17.641,12.708 4.304,11.171 3.344,15.006 3.344,15.006 0,0 12.569,1.316 14.104,9.965 1.857,10.464 -9.895,15.616 -9.895,15.616 0,0 3.857,9.68 -1.625,14.101 -5.481,4.422 -17.794,0.44 -17.794,0.44 0,0 -8.387,13.367 -21.81,1.761"
   id="path81"
   inkscape:connector-curvature="0"
   style="fill:none;stroke:#201d21;stroke-width:0.5" />
				<path
   d="m 188.504,133.207 c 0,0 -3.989,-4.364 -5.352,-9.229 0,0 -8.164,3.786 -16.245,1.127 -8.085,-2.66 -11.354,-7.816 -11.354,-7.816"
   id="path83"
   inkscape:connector-curvature="0"
   style="fill:none;stroke:#201d21;stroke-width:0.5" />
			</g>
		</g>
		
	</g>
	<g
   id="g101"
   transform="translate(0,-4)">
		<g
   id="g103">
			<path
   d="m 32.46,280.417 c 0,0 3.083,-1.582 5.25,-1.166 2.166,0.416 3.25,1.083 3.25,1.083 l -0.168,-2.167 1.668,1.25 1.082,-1.75 0.418,1 0.832,-0.25 c 0,0 0.168,2.166 2.584,1.25 2.416,-0.916 1.916,-2.5 1.916,-2.5 l 1.418,2.334 c 0,0 1.916,-1.918 2,-3.334 0.082,-1.416 0.082,-0.75 0.082,-0.75 L 52.876,279 c 0,0 1.833,-1.918 2.583,-2.334 0.75,-0.416 1,1 1,1 0,0 1.167,-2.333 3.333,-2.667 2.329,-0.359 1.334,2.334 1.334,2.334 l 2.5,-2.5 3.084,-5.167 c 0,0 -0.25,-2.499 -0.75,-3.666 -0.5,-1.167 -1.584,-2.418 -1.584,-2.418 l -1,5 c 0,0 -1,-1.583 -1.834,-1.916 -0.832,-0.333 -1.916,-0.584 -1.916,-0.584 l 1.75,3.25 c 0,0 -1.916,-0.248 -2.666,-0.082 -0.75,0.166 -1.834,0.332 -1.834,0.332 0,0 2.5,5.25 -0.834,5.334 -3.332,0.084 -3.416,-2.584 -3.416,-2.584 0,0 -1,1.418 -1.166,2.001 -0.168,0.583 -0.584,2.249 -0.584,2.249 0,0 -0.916,-1.749 -1.166,-2.499 -0.25,-0.75 -0.418,-1.917 -0.418,-1.917 l -1.166,4.416 -3.25,-2.25 -0.5,2.5 -4.5,-0.25 -3.25,1.75 -2.084,-0.5 c 0,0 -1.042,-1.416 -1.042,-1.958 0,-0.542 -0.042,-0.833 -0.042,-0.833 l -1.166,2.625 c 0,0 -1.375,-1.792 -1.875,-2.292 -0.5,-0.5 -0.959,-0.833 -0.959,-0.833 l 0.209,3.25 c 0,0 -1.209,-3.293 -1.667,-4.584 -0.458,-1.291 -1.125,-2.958 -1.125,-2.958 0,0 -0.041,5.417 0.042,5.5 0.083,0.083 -2.125,-2.166 -2.25,-1.833 -0.125,0.333 0.25,1.875 0.25,1.875 l -2.334,-1.125 v 0.833 l -2.791,-0.333 -4,-1.125 -1.75,1.375 -2.542,-0.875 -0.542,-0.709 v -0.416 l -1.041,0.75 -0.875,0.042 -1.5,-0.292 c 0,0 -0.959,0.708 -1.584,1.458 l -0.541,1.25 c 0,0 1.291,-0.999 2.791,-0.916 1.5,0.083 1.75,0.957 1.75,1.291 0,0.334 0.917,-1.333 0.917,-1.333 l 0.042,1.917 c 0,0 2.708,-0.75 3.041,-0.792 C 14.292,276.75 14.75,278 14.75,278 l 2.292,-1.083 3.25,1.708 c 0,0 -0.125,-0.75 0.709,0.042 0,0 -0.5,-1.626 0.416,-1.417 0.916,0.209 0.709,1.75 0.709,1.75 0,0 0.582,-1.959 1.916,-1.5 1.334,0.459 -0.041,1.834 -0.041,1.834 0,0 1.875,-1.5 2.375,-0.792 0.5,0.708 -0.168,1.167 -0.168,1.167 l 1.459,-0.25 0.375,0.5 c 0,0 0.5,-0.625 0.25,-0.875 -0.25,-0.25 0.25,0.875 0.25,0.875 0,0 0.875,-0.375 0.709,-0.75 -0.168,-0.375 1.082,1.041 1.082,1.041 0,0 0.918,-0.584 0.793,-1.125 -0.125,-0.541 0.793,1.208 1.334,1.292 z"
   id="path105"
   inkscape:connector-curvature="0"
   style="fill:#adbe56" />
			<path
   d="m 89.292,272.5 c 0,0 0.834,-2.083 1.834,-4 1,-1.917 2.25,-3.5 2.25,-3.5 l 0.334,6.083 c 0,0 2.832,-4.834 3.416,-4.667 0.584,0.167 0.834,4.334 0.834,4.334 0,0 2.499,-0.416 3.082,-1.5 l -1.582,5.833 c 0,0 2.249,-3.917 3.082,-5 0.834,-1.083 1.25,-1.417 1.25,-1.417 l -0.416,3.5 3.916,-1.666 -0.75,2.5 3.918,-0.834 c 0,0 1.916,1.583 2.832,1.25 0.918,-0.333 3,-1.416 4.25,-1.583 1.25,-0.167 1.25,-0.167 1.25,-0.167 l 1.834,1.25 2.833,0.167 1.208,0.896 c 0,0 -1.124,0.521 -1.458,1.438 l -1,-1.25 c 0,0 -1.583,1.5 -2.75,1.5 -1.168,0 -1.584,-0.833 -1.584,-0.833 0,0 0.083,-1.251 -1.084,-0.917 -1.166,0.334 -1.25,0.584 -1.25,0.584 0,0 -0.666,-0.084 -1.166,0.333 -0.5,0.417 -0.5,1.417 -0.5,1.417 0,0 -2.584,-1.334 -3.834,-1.334 -1.25,0 -2.582,1.417 -2.582,1.417 l 0.332,-1.667 c 0,0 -0.922,0.861 -1.287,1.526 -0.061,0.109 -0.105,0.214 -0.129,0.308 -0.166,0.666 -0.584,-2.417 -0.584,-2.417 l -0.5,2.417 c 0,0 -0.416,-1.083 -1.166,-1.75 0,0 0.584,1.999 0,3.666 0,0 -0.416,-1.583 -1.25,-2.583 0,0 0.177,2.058 -0.014,2.914 -0.036,0.163 -0.086,0.282 -0.152,0.336 -0.418,0.333 -2.251,0 -2.918,-1.75 L 99.71,280 l -1.5,-3.334 -0.168,2.834 -2.244,-0.874 c 0,0 -0.338,-1.542 -1.172,-1.876 -0.834,-0.334 -3.334,0.166 -3.834,-0.667 -0.5,-0.833 -1.5,-3.583 -1.5,-3.583 z"
   id="path107"
   inkscape:connector-curvature="0"
   style="fill:#adbe56" />
			<path
   d="m 89.376,272.333 c 0,0 2.25,-5.5 4,-7.5 l 0.25,6.5 c 0,0 2.75,-4.5 3.5,-4.75 0.75,-0.25 0.75,4.25 0.75,4.25 0,0 3.25,-0.75 3.25,-2 l -1.75,6.5 c 0,0 2.75,-5.5 4.5,-6.75 l -0.5,3.75 4,-2 -0.75,2.75 3.75,-1 c 0,0 2.25,2.25 4,1 1.75,-1.25 4.5,-1.5 4.5,-1.5 l 1.229,0.584"
   id="path109"
   inkscape:connector-curvature="0"
   style="fill:none;stroke:#201d21;stroke-width:0.5" />
			<path
   d="m 5.917,275.417 1.625,-1.5 2,0.375 c 0,0 1.875,-1.375 1.5,-0.625 -0.375,0.75 3,1.75 3,1.75 l 1.75,-1.375 c 0,0 4.75,1.375 6.125,1.5 1.375,0.125 0.375,-1.125 0.375,-1.125 l 2.625,1.375 c 0,0 -0.625,-2.125 -0.25,-1.875 0.375,0.25 2.375,2.125 2.375,2.125 l -0.125,-6.875 c -0.375,0.875 3,9.25 3,9.25 l -0.625,-4.125 c 0.875,0.5 3,3.375 3,3.375 l 1.25,-3.125 c -0.5,1.5 1.084,3.291 1.084,3.291 l 2,0.5 3.25,-1.75 4.5,0.25 0.5,-2.5 3.25,2.25 1.25,-4.75 c -0.25,1.25 1.5,4.75 1.5,4.75 -0.25,-1.5 1.75,-4.25 1.75,-4.25 -0.25,2.75 2.75,3 4.5,2 1.75,-1 -0.25,-4.75 -0.25,-4.75 2.25,-0.5 4.5,-0.25 4.5,-0.25 l -1.75,-3.25 c 2.25,0 3.75,2.5 3.75,2.5 l 1,-5 c 2,1 2.25,5.75 2.25,5.75"
   id="path111"
   inkscape:connector-curvature="0"
   style="fill:none;stroke:#201d21;stroke-width:0.5" />
		</g>
		<g
   id="g113">
			<path
   d="m 113.274,131.386 c 0,0 -0.26,-6.798 -3.336,-9.464 -3.021,-2.617 -8.028,-1.219 -8.211,-1.17 0.06,-0.183 1.633,-4.854 -2.215,-9.406 -5.648,-6.686 -14.129,-3.386 -14.129,-3.386 0,0 -5.289,-2.032 -8.813,-0.42 -3.068,1.406 -5.072,4.22 -5.072,4.22 0,0 -8.411,-0.981 -10.979,1.804 -2.566,2.786 -3.489,6.619 -3.489,6.619 0,0 -4.901,0.349 -6.429,5.123 -0.738,2.303 -0.754,8.495 5.21,9.553 0,0 -1.756,1.469 -1.427,6.719 0.008,0.088 0.014,0.173 0.021,0.265 -1.432,0.254 -6.931,1.54 -8.779,6.492 -2.133,5.713 -1.656,7.674 -1.656,7.674 0,0 -6.231,0.675 -6.992,5.097 -0.922,5.354 4.904,7.988 4.904,7.988 0,0 -1.912,4.95 0.805,7.213 2.135,1.775 6.36,0.898 8.075,0.44 0.466,-0.121 0.746,-0.217 0.746,-0.217 5.083,7.197 11.464,0.503 10.904,0.906 l -0.114,-0.1 c -0.393,-0.188 -0.756,-0.399 -1.072,-0.651 -1.691,-1.34 -2.762,-3.006 -3.778,-4.006 0.089,-0.02 0.175,-0.048 0.268,-0.089 0.861,-0.353 1.456,-0.945 1.857,-1.539 l 0.069,0.05 c 0,0 1.102,2.084 2.348,2.774 0.539,0.302 1.499,0.617 2.544,0.866 l 0.028,-0.119 c 0.117,-0.134 1.996,-2.303 2.648,-4.713 0,0 4.047,1.938 8.053,0.576 3.82,-1.297 5.472,-3.752 5.617,-3.979 -2.281,-2.686 -7.256,-6.843 -7.701,-7.576 -0.595,-0.979 -2.012,-4.663 -2.012,-4.663 v -0.012 c 0.606,0.063 1.279,-0.029 2.019,-0.347 0.181,-0.077 0.346,-0.166 0.497,-0.26 l 0.012,0.024 c 0,0 0.522,3.409 2.056,4.748 1.538,1.335 6.832,4.111 6.832,4.111 0,0 3.357,3.318 4.328,3.052 0.97,-0.273 3.235,-1.11 3.235,-1.11 0,0 5.266,-10.809 5.629,-11.741 0.359,-0.928 -0.413,-5.071 -0.413,-5.071 l 1.112,-3.426 c 0,0 0.955,0.841 2.311,1.657 -0.058,0.191 -0.918,3.214 -0.381,5.069 0.264,0.911 -0.693,3.336 -1.852,5.963 -1.28,2.907 -2.814,6.06 -3.223,7.7 -0.137,0.555 -0.443,1.274 -0.863,2.096 l 0.245,0.136 c 0,0 5.274,1.728 7.996,-2.336 2.013,-3.006 -0.242,-7.184 -0.242,-7.184 0,0 3.535,0.75 8.335,-1.543 4.8,-2.292 4.744,-9.469 4.744,-9.469 0,0 3.757,-0.014 5.348,-6.142 1.59,-6.127 -5.618,-8.796 -5.618,-8.796 z"
   id="path115"
   inkscape:connector-curvature="0"
   style="fill:#b8c260" />
			<path
   d="m 111.665,136.545 0.518,2.414 -3.452,3.003 c 0,0 -1.293,4.12 -4.366,5.221 -2.546,0.913 -5.578,-1.29 -5.578,-1.29 0,0 -0.676,2.479 -0.59,3.323 0.09,0.846 0.236,1.757 0.285,2.082 0.048,0.325 -1.534,4.903 -2.51,7.118 -0.977,2.216 -2.531,5.569 -2.641,6.209 -0.107,0.64 -0.383,1.209 -0.383,1.209 0,0 5.148,1.085 6.545,-2.146 1.397,-3.229 0.184,-6.905 0.184,-6.905 0,0 6.76,-1.312 8.953,-4.164 2.926,-3.802 1.584,-8.842 1.584,-8.842 0,0 2.787,-3.484 3.123,-3.985 0.336,-0.502 -1.672,-3.247 -1.672,-3.247 z m -40.496,17.722 c -2.309,-0.176 -3.695,-2.828 -3.695,-2.828 0,0 -1.609,2.38 -4.572,1.399 -1.939,-0.643 -1.35,-3.426 -1.35,-3.426 -2.285,-0.754 -5.709,-4.018 -5.709,-4.018 -0.987,3.896 4.684,5.908 4.684,5.908 -0.315,1.472 0.303,3.053 1.465,3.688 1.161,0.64 3.668,-0.793 3.668,-0.793 0,0 0.1,0.586 1.248,1.479 1.15,0.896 3.472,0.812 3.472,0.812 0,0 1.479,3.367 1.651,3.698 0.174,0.332 4.416,4.927 4.416,4.927 0,0 -2.24,3.835 -5.507,4.069 -3.267,0.23 -5.765,-2.73 -5.765,-2.73 l -0.236,1.087 -1.174,1.043 -2.089,0.483 H 60.36 l -0.786,1.985 c 0,0 0.933,1.771 1.962,2.53 1.031,0.761 2.999,1.16 2.999,1.16 1.22,-1.059 2.677,-4.832 2.677,-4.832 0,0 4.119,1.746 8.56,0.472 2.402,-0.689 5.11,-3.875 5.11,-3.875 0,0 -7.133,-6.95 -7.701,-7.576 -0.569,-0.627 -2.012,-4.662 -2.012,-4.662 z m 24.194,-6.605 1.112,-3.426 c -2.104,0.688 -5.613,0.949 -7.59,0.338 -1.977,-0.611 -1.33,-5.298 -1.33,-5.298 0,0 -0.881,0.087 -2.689,-0.063 -1.811,-0.149 -2.541,-1.994 -2.541,-1.994 0,0 -1.473,2.127 -0.199,4.45 1.274,2.322 4.965,1.012 4.965,1.012 0,0 -0.68,1.194 0.455,3.834 1.136,2.638 5.217,1.022 5.066,1.532 -0.146,0.51 1.293,3.358 1.293,3.358 -1.825,0.171 -3.936,3.948 -3.936,3.948 0,0 -1.34,-0.841 -3.757,-1.407 -2.019,-0.475 -4.919,1.348 -5.821,1.965 0.375,-0.314 0.982,-1.025 0.951,-2.324 -0.041,-1.876 -1.039,-3.347 -1.039,-3.347 0,0 1.688,0.08 2.436,-2.662 0.749,-2.743 -2.715,-3.748 -2.715,-3.748 0,0 0.207,1.735 -0.836,3.319 -1.277,1.943 -3.891,1.562 -3.891,1.562 0,0 0.318,1.309 -0.127,2.837 -0.443,1.53 -1.475,2.126 -1.475,2.126 0,0 0.703,2.554 1.571,4.146 0.867,1.592 6.892,4.142 7.316,4.713 0.424,0.571 3.987,3.063 4.328,3.052 0.343,-0.012 3.088,-1.055 3.285,-1.303 0.199,-0.249 5.507,-11.112 5.723,-11.748 0.22,-0.637 -0.555,-4.872 -0.555,-4.872 z m -37.914,25.017 c -1.841,0.69 -3.592,-2.436 -3.592,-2.436 0,0 -2.497,2.661 -4.247,2.577 -1.127,-0.054 -2.174,-1.847 -2.627,-2.903 -0.454,-1.056 0.109,-2.449 0.109,-2.449 0,0 -1.689,0.608 -4.136,0.062 -3.66,-0.822 -6.055,-4.684 -6.055,-4.684 0,0 0.479,1.898 1.534,3.499 1.056,1.601 3.516,2.622 3.516,2.622 0,0 -1.903,4.757 0.736,7.339 2.129,2.079 8.821,0.224 8.821,0.224 0,0 1.781,2.895 5.397,3.263 2.565,0.259 5.393,-2.456 5.393,-2.456 0,0 -0.6,-0.387 -1.393,-0.876 -0.789,-0.491 -3.456,-3.782 -3.456,-3.782 z"
   id="path117"
   inkscape:connector-curvature="0"
   style="fill:#96a23d" />
			<path
   d="m 61.005,203.397 c 1.969,-0.659 4.654,-1.658 4.654,-1.658 0,0 0.571,-1.114 1.804,-1.051 1.232,0.064 3.656,1.142 4.675,2.146 0.728,0.719 1.152,2.306 1.85,3.242 -0.103,2.994 -0.277,5.678 -0.291,5.962 -0.006,0.191 -0.061,1.393 -0.102,2.515 l 0.026,0.023 c -0.454,0.665 -1.036,1.389 -1.501,1.565 -0.895,0.334 -2.323,0.828 -2.323,0.828 l 0.128,1.149 1.053,0.055 1.274,-0.886 c 0,0 0.687,-0.926 1.286,-1.396 -0.042,1.665 -0.068,4.114 -0.014,4.695 0.113,1.29 0.42,7.003 0.441,7.415 -0.559,-0.084 -1.186,-0.225 -1.785,-0.45 -1.736,-0.661 -5.072,-1.024 -5.072,-1.024 l -2.118,0.082 c 0,0 -0.07,1.709 0.658,1.172 0.724,-0.531 4.909,0.636 6.288,1.47 0.636,0.382 1.459,0.659 2.168,0.839 0.005,0.154 0.049,1.506 0.29,3.661 0.052,0.449 0.113,0.966 0.179,1.517 l -0.063,0.011 c 0,0 -3.828,-1.337 -4.354,-1.365 -0.527,-0.028 -1.101,1.083 -1.101,1.083 0,0 4.958,1.634 5.911,4.156 l 0.028,-0.004 c 0.095,1.11 0.147,2.162 0.113,3.005 l -0.165,4.015 c -1.565,-0.406 -3.313,-1.295 -4.166,-1.579 -1.395,-0.449 -3.506,-0.56 -3.506,-0.56 l -1.469,1.448 c 0,0 2.434,0.883 4.192,0.974 0.97,0.051 3.081,0.965 4.78,1.781 0.275,1.582 -1.686,14.56 -1.686,14.56 l -1.428,4.271 c 0,0 -2.888,0.266 -5.014,1.744 -2.122,1.48 -2.732,5.792 -2.732,5.792 2.352,2.476 6.579,-0.095 6.579,-0.095 l 5.01,-1.739 3.782,-1.796 4.416,2.173 c 0,0 3.916,4.126 5.951,4.611 2.029,0.492 6.148,0.286 6.148,0.286 0,0 0,0 -1.086,-3.208 -1.087,-3.201 -3.672,-0.562 -4.792,-2.98 -1.121,-2.419 -0.995,-5.173 -0.458,-7.913 0.538,-2.734 -1.604,-4.758 -3.525,-7.611 -0.947,-1.404 -2.377,-8.303 -2.383,-13.507 2.71,0.049 8.299,0.822 8.299,0.822 l 0.039,-0.949 c 0,0 -1.41,-0.075 -3.865,-0.393 -1.311,-0.167 -3.095,-0.897 -4.48,-1.548 0.009,-2.023 0.027,-4.022 0.018,-5.669 0,0 4.349,-2.865 5.242,-3.196 0.896,-0.337 0.242,-1.509 0.242,-1.509 0,0 -3.414,1.531 -5.68,0.844 -0.233,-0.894 -0.642,-3.021 -0.52,-6.539 l -0.094,-0.313 c 1.604,-4.667 7.859,-6.46 7.859,-6.46 l 1.066,-0.136 c 0,0 -0.842,-0.997 -1.908,-0.859 -1.061,0.136 -6.303,3.193 -6.303,3.193 l -0.746,0.574 c 0.072,-1.565 0.086,-3.353 0.156,-4.781 l 0.774,-0.363 c 0.119,-0.049 0.186,-0.069 0.186,-0.069 0,0 5.595,-3.137 6.127,-3.301 0.536,-0.157 2.353,-1.394 3.071,-1.74 0.719,-0.34 5.135,-0.495 5.135,-0.495 l 0.221,-1.126 -3.709,0.184 -2.662,0.435 c 0,0 -3.053,1.361 -4.51,2.431 -0.98,0.715 -3.766,1.55 -4.82,1.858 0.092,-1.781 0.165,-8.126 0.188,-8.656 0.035,-0.882 -0.063,-2.063 -0.063,-2.75 l 1.435,-1.27 c 0.912,-0.714 4.157,-6.818 4.157,-6.818 0,0 1.474,-1.445 2.551,-1.959 1.081,-0.517 5.481,-0.291 5.481,-0.291 l -0.146,-0.768 c 0,0 -0.323,-0.777 -0.85,-0.805 -0.525,-0.026 -2.316,0.642 -3.031,0.796 -0.711,0.154 -2.094,-0.487 -2.094,-0.487 l -0.03,-3.613 -1.216,-0.445 c 0,0 0.299,1.346 0.092,2.095 -0.209,0.749 0.268,2.104 -0.477,3.02 -0.709,0.867 -5.549,5.081 -5.873,5.39 0.111,-5.067 -0.17,-10.554 0,-11.313 0.344,-1.531 2.347,-6.608 4.094,-10 1.437,-2.79 3.603,-5.313 5.551,-9.119 0.42,-0.821 0.727,-1.541 0.863,-2.096 0.408,-1.641 1.942,-4.793 3.223,-7.7 1.158,-2.627 2.115,-5.052 1.852,-5.963 -0.537,-1.855 0.323,-4.878 0.381,-5.069 -1.355,-0.816 -2.311,-1.657 -2.311,-1.657 l -1.112,3.426 c 0,0 0.772,4.144 0.413,5.071 -0.363,0.933 -5.629,11.741 -5.629,11.741 0,0 -2.266,0.837 -3.235,1.11 -0.971,0.267 -4.328,-3.052 -4.328,-3.052 0,0 -5.294,-2.776 -6.832,-4.111 -1.533,-1.339 -2.056,-4.748 -2.056,-4.748 l -0.012,-0.024 c -0.151,0.094 -0.316,0.183 -0.497,0.26 -0.739,0.317 -1.412,0.41 -2.019,0.347 v 0.012 c 0,0 1.417,3.684 2.012,4.663 0.445,0.733 5.42,4.891 7.701,7.576 0.752,0.89 1.213,1.617 1.115,2.006 -0.389,1.559 -0.486,3.763 -1.162,4.682 -0.625,0.839 -3.291,3.229 -3.721,3.611 l -1.555,0.245 -2.532,-0.436 c 0,0 -3.109,-1.73 -4.718,-1.488 -0.908,0.135 -2.412,-0.061 -3.774,-0.385 -1.045,-0.249 -2.005,-0.564 -2.544,-0.866 -1.246,-0.69 -2.348,-2.774 -2.348,-2.774 l -0.069,-0.05 c -0.401,0.594 -0.996,1.187 -1.857,1.539 -0.093,0.041 -0.179,0.069 -0.268,0.089 1.017,1 2.087,2.666 3.778,4.006 0.316,0.252 0.68,0.463 1.072,0.651 1.723,0.82 3.967,1.125 4.723,1.676 0.926,0.675 4.855,1.969 4.855,1.969 l 1.352,1.422 c 0,0 0.313,0.875 0.425,2.088 l -0.069,2.44 c 0,0 -0.655,0.464 0.066,1.014 0.146,1.185 0.279,10.081 0.401,11.185 0.042,0.376 0,1.53 -0.05,3.324 l -0.014,0.028 c -0.691,-0.438 -1.688,-1.086 -2.304,-1.575 -1.022,-0.813 -5.145,-3.495 -6.017,-3.732 -0.871,-0.238 -3.326,-0.55 -4.007,-1.158 -0.683,-0.604 -1.097,0.895 -1.097,0.895 l 3.33,0.555 1.197,0.821 -0.283,2.646 c 0,0 -3.58,1.339 -4.11,1.311"
   id="path119"
   inkscape:connector-curvature="0"
   style="fill:#d0c49d" />
			<path
   d="m 97.556,151.058 c 0.563,0.026 0.85,-0.033 0.85,-0.033 l -0.209,-1.746 0.59,-3.323 -2.164,-1.341 -1.259,3.109 0.413,5.071 c -0.001,0 1.214,-1.765 1.779,-1.737 z m -21.519,10.609 c -1.511,-1.914 -0.77,-3.785 -0.77,-3.785 l -1.571,-4.146 -1.268,0.395 -1.26,0.188 2.012,4.675 2.857,2.673 z m -14.809,15.081 c 1.05,0.648 4.517,1.697 5.212,2.106 1.603,0.944 4.395,1.903 5.603,2.319 l 1.417,2 c 0,0 0.292,-2.166 3.208,-2.666 0,0 -7.777,-1.829 -9.067,-2.374 -1.291,-0.546 -4.532,-1.572 -4.905,-1.688 -0.369,-0.113 -0.703,-2.507 -0.703,-2.507 l -1.564,-1.38 -0.853,-1.444 -1.014,1.162 -0.844,0.377 c -0.001,0 2.461,3.448 3.51,4.095 z m 5.216,21.539 c -0.123,-0.395 -2.549,-0.759 -2.549,-0.759 0,0 1.166,0.688 1.219,1.08 0.055,0.391 -0.305,2.387 -0.305,2.387 0,0 1.131,-0.558 1.207,-0.708 0.074,-0.152 0.549,-1.604 0.428,-2 z m -1.656,3.792 m 0.606,-0.113 0.266,-0.165 c 0,0 -0.348,0.109 -0.871,0.277 0.372,-0.072 0.605,-0.112 0.605,-0.112 z m 10.048,4.952 c 0.754,0.195 1.061,1.144 1.061,1.144 0.999,-0.727 -0.818,-1.986 -0.818,-1.986 0,0 -0.172,-0.864 -0.652,-0.967 -0.48,-0.104 -1.979,-2.436 -4.145,-3.714 -2.163,-1.278 -3.425,-0.645 -3.425,-0.645 2.148,0.267 3.138,0.94 4.28,1.775 1.143,0.839 2.15,3.304 2.244,3.612 0.094,0.311 0.701,0.587 1.455,0.781 z m 10.942,-9.104 2.098,-3.857 c 0,0 -2.492,3.37 -4.18,3.983 l -0.044,3.162 2.126,-3.288 z m -16.506,19.783 0.047,0.584 1.053,0.055 1.274,-0.886 1.011,-1.21 -0.996,0.647 -1.281,0.789 -1.108,0.021 z m 9.941,0.1 c 0.49,-0.13 2.189,-1.053 2.189,-1.053 l 1.352,-0.864 1.699,-0.845 3.119,-1.783 2.049,-0.905 2.816,-1.755 5.135,-0.495 -0.007,-0.606 c 0,0 -4.517,0.311 -5.222,0.588 -0.703,0.273 -4.016,1.657 -4.521,2.175 -0.506,0.519 -3.842,2.446 -4.404,2.65 -0.563,0.203 -2.549,1.346 -2.832,1.486 -0.283,0.142 -1.986,-0.569 -2.706,0.093 0,-0.001 0.844,1.446 1.333,1.314 z m 3.62,3.765 -0.115,2.405 c 2.062,-4.746 8.112,-6.076 8.112,-6.076 -3.246,-0.633 -7.997,3.671 -7.997,3.671 z m -13.827,6.817 2.324,1.035 1.248,0.549 2.418,0.592 c 0,0 1.231,0.355 1.447,0.191 0.213,-0.163 0.245,-0.922 0.245,-0.922 0,0 -0.822,-0.216 -1.349,-0.068 -0.525,0.147 -1.763,-0.091 -3.904,-1.077 -2.141,-0.986 -6.074,-1.364 -6.074,-1.364 l -0.895,0.304 0.396,0.43 0.688,-0.315 1.033,0.171 2.423,0.474 z m -0.264,6.461 -0.291,0.319 c 0,0 2.272,0.774 3.487,1.537 1.217,0.763 2.452,2.615 2.452,2.615 l -0.354,-3.031 c -2.098,0.416 -5.294,-1.44 -5.294,-1.44 z m 14.37,0.212 4.211,-2.582 c -1.01,0.529 -4.206,1.181 -4.206,1.181 l -0.005,1.401 z m -5.764,14.173 c 0,0 0.133,-0.69 -0.549,-0.552 -0.682,0.14 -4.877,-2.702 -5.505,-2.617 -1.866,0.25 -5.469,-0.925 -5.469,-0.925 l -0.628,0.51 c 0,0 1.474,0.408 2.191,0.62 0.719,0.214 2.941,0.502 4.072,0.852 1.127,0.354 5.189,2.66 5.189,2.66 l 0.699,-0.548 z m 7.729,-6.315 c -1.336,-0.36 -4.808,-1.88 -4.904,-0.777 0,0 0.424,1.072 1.521,0.896 1.098,-0.178 6.478,0.393 6.478,0.393 l 3.081,0.385 0.035,-0.341 c 0,-0.001 -4.877,-0.195 -6.211,-0.556 z m 3.42,24.697 c 0.238,-1.684 0.547,-4.899 0.547,-4.899 0,0 -1.59,2.994 -3.006,2.203 -1.415,-0.793 -1.611,3.475 -1.176,4.543 0.434,1.07 3.394,-0.165 3.635,-1.847 z m -5.166,3.553 c -1.805,-1.133 -2.741,-7.063 -4.273,-7.135 -1.527,-0.07 -1.682,5.005 -4.138,5.78 -2.456,0.772 -4.644,4.467 -4.644,4.467 l 5.082,-1.703 3.306,-1.705 0.019,0.269 c 0,0 4.098,1.454 5.711,3.223 1.663,1.826 4.656,3.562 4.656,3.562 0,0 -0.684,-0.474 -2.173,-1.428 -1.491,-0.958 -1.743,-4.197 -3.546,-5.33 z"
   id="path121"
   inkscape:connector-curvature="0"
   style="fill:#9f9578" />
			<path
   d="m 99.819,121.345 c 0,0 0.803,-5.391 -2.65,-10.11 -3.452,-4.722 -12.031,-1.93 -12.031,-1.93 -7.507,-4.427 -13.682,3.421 -13.682,3.421 0,0 -7.756,-0.951 -9.926,1.37 -2.171,2.32 -2.999,6.157 -2.999,6.157 0,0 -5.55,2.258 -6.492,4.443 -0.944,2.185 -0.463,4.048 -0.463,4.048 0,0 5.823,-7.629 11.304,-4.891 1.225,0.612 1.932,1.309 2.34,1.87 -0.83,-1.817 -2.167,-5.492 -0.496,-7.405 2.277,-2.605 5.884,-3.404 8.162,-1.84 0,0 4.588,-10.155 11.73,-6.034 0,0 8.213,-0.871 9.551,4.911 1.338,5.784 -2.076,8.627 -2.076,8.627 0,0 5.89,-1.467 9.646,0.65 3.758,2.119 8.063,6.685 8.063,6.685 0.192,-8.52 -9.981,-9.972 -9.981,-9.972 z m -34.599,4.379 c 0.301,0.659 0.535,1.077 0.535,1.077 0,0 -0.086,-0.457 -0.535,-1.077 z m -11.246,32.734 c 0.021,0.021 0.033,0.033 0.033,0.033 0,0 -0.008,-0.013 -0.033,-0.033 z m -4.133,-7.662 c 0.275,-3.348 1.822,-7.152 1.822,-7.152 0,0 -5.309,3.884 -5.928,12.126 0,0 -4.074,1.488 -5.786,3.344 -1.71,1.857 -1.416,3.682 -1.416,3.682 0,0 5.952,-7.085 10.537,-5.961 3.938,0.963 4.753,1.493 4.903,1.623 -0.385,-0.384 -4.394,-4.475 -4.132,-7.662 z"
   id="path123"
   inkscape:connector-curvature="0"
   style="fill:#d3da73" />
			<g
   id="g125">
				<path
   d="m 77.276,249.491 c 0,0 -5.521,-2.948 -7.28,-3.039 -1.761,-0.09 -4.194,-0.976 -4.194,-0.976 l 1.471,-1.447 c 0,0 2.113,0.11 3.505,0.561 1.392,0.455 5.185,2.552 6.64,1.486"
   id="path127"
   inkscape:connector-curvature="0"
   style="fill:none;stroke:#201d21;stroke-width:0.5" />
				<path
   d="m 74.94,246.282 c 0,0 0.076,-1.851 0.169,-4.129 0.093,-2.277 -0.456,-6.106 -0.714,-8.401 -0.258,-2.296 -0.29,-3.676 -0.29,-3.676"
   id="path129"
   inkscape:connector-curvature="0"
   style="fill:none;stroke:#201d21;stroke-width:0.5" />
				<path
   d="m 75.591,230.39 c 0,0 -2.278,-0.309 -3.656,-1.139 -1.377,-0.833 -5.559,-2 -6.287,-1.467 -0.728,0.532 -0.657,-1.174 -0.657,-1.174 l 2.118,-0.083 c 0,0 3.338,0.365 5.073,1.024 1.735,0.66 3.679,0.57 3.679,0.57 l 1.271,-0.885"
   id="path131"
   inkscape:connector-curvature="0"
   style="fill:none;stroke:#201d21;stroke-width:0.5" />
				<path
   d="m 59.644,171.101 c 0,0 1.104,2.084 2.348,2.776 1.244,0.69 4.717,1.486 6.32,1.248 1.604,-0.239 4.716,1.487 4.716,1.487 l 2.532,0.438 7.707,-1.216"
   id="path133"
   inkscape:connector-curvature="0"
   style="fill:none;stroke:#201d21;stroke-width:0.5" />
				<path
   d="m 57.444,172.676 c 1.019,0.996 2.09,2.663 3.782,4.009 1.694,1.344 4.869,1.651 5.796,2.327 0.927,0.677 4.854,1.97 4.854,1.97 0,0 1.54,0.983 1.567,2.393 0.021,1.104 0.098,3.147 0.189,4.469 0.041,0.596 0.289,10.138 0.419,11.286 0.042,0.374 0,1.53 -0.049,3.324"
   id="path135"
   inkscape:connector-curvature="0"
   style="fill:none;stroke:#201d21;stroke-width:0.5" />
				<path
   d="m 73.97,228.024 c 0,0 -0.322,-6.1 -0.445,-7.438 -0.052,-0.584 -0.025,-3.087 0.018,-4.751"
   id="path137"
   inkscape:connector-curvature="0"
   style="fill:none;stroke:#201d21;stroke-width:0.5" />
				<path
   d="m 83.561,242.785 c 0.007,5.213 1.435,12.138 2.382,13.543 1.923,2.851 4.063,4.876 3.525,7.612 -0.537,2.738 -0.663,5.493 0.457,7.912 1.122,2.419 3.709,-0.225 4.793,2.981 1.086,3.207 1.086,3.207 1.086,3.207 0,0 -4.119,0.204 -6.15,-0.286 -2.029,-0.486 -5.949,-4.611 -5.949,-4.611 l -4.418,-2.177 -3.78,1.799 -5.01,1.741 c 0,0 -4.225,2.568 -6.577,0.091 0,0 0.609,-4.311 2.731,-5.791 2.124,-1.479 5.01,-1.742 5.01,-1.742 l 1.431,-4.272 c 0,0 1.97,-13.036 1.681,-14.571"
   id="path139"
   inkscape:connector-curvature="0"
   style="fill:none;stroke:#201d21;stroke-width:0.5" />
				<path
   d="m 82.833,216.111 c -0.3,5.926 0.125,13.538 0.541,15.112 0.26,0.983 0.197,5.226 0.18,9.612"
   id="path141"
   inkscape:connector-curvature="0"
   style="fill:none;stroke:#201d21;stroke-width:0.5" />
				<path
   d="m 74.509,235.279 c 0,0 -3.824,-1.34 -4.351,-1.366 -0.528,-0.027 -1.103,1.084 -1.103,1.084 0,0 4.959,1.634 5.912,4.156"
   id="path143"
   inkscape:connector-curvature="0"
   style="fill:none;stroke:#201d21;stroke-width:0.5" />
				<path
   d="m 83.569,235.085 c 0,0 4.35,-2.866 5.244,-3.2 0.896,-0.334 0.238,-1.508 0.238,-1.508 0,0 -3.413,1.533 -5.678,0.846"
   id="path145"
   inkscape:connector-curvature="0"
   style="fill:none;stroke:#201d21;stroke-width:0.5" />
				<path
   d="m 81.439,239.68 c 0,0 4.138,2.305 6.595,2.623 2.455,0.315 3.862,0.391 3.862,0.391 l -0.04,0.948 c 0,0 -8.766,-1.214 -9.668,-0.69"
   id="path147"
   inkscape:connector-curvature="0"
   style="fill:none;stroke:#201d21;stroke-width:0.5" />
				<path
   d="m 82.854,220.59 c 0,0 5.863,-3.538 6.926,-3.674 1.064,-0.134 1.902,0.859 1.902,0.859 l -1.062,0.134 c 0,0 -6.164,2.073 -7.767,6.743"
   id="path149"
   inkscape:connector-curvature="0"
   style="fill:none;stroke:#201d21;stroke-width:0.5" />
				<path
   d="m 82.854,197.059 c 0,0 5.098,-4.385 5.842,-5.295 0.742,-0.913 0.269,-2.271 0.475,-3.02 0.209,-0.75 -0.09,-2.096 -0.09,-2.096 l 1.218,0.442 0.026,3.615 c 0,0 1.385,0.642 2.096,0.488 0.714,-0.154 2.504,-0.822 3.031,-0.794 0.529,0.026 0.85,0.805 0.85,0.805 l 0.144,0.767 c 0,0 -4.398,-0.227 -5.478,0.288 -1.08,0.515 -2.549,1.959 -2.549,1.959 0,0 -2.721,5.934 -5.502,7.965"
   id="path151"
   inkscape:connector-curvature="0"
   style="fill:none;stroke:#201d21;stroke-width:0.5" />
				<path
   d="M 74.852,183.959"
   id="path153"
   inkscape:connector-curvature="0"
   style="fill:none;stroke:#201d21;stroke-width:0.5" />
				<path
   d="m 73.597,214.553 c 0.039,-1.123 0.095,-2.323 0.104,-2.513 0.011,-0.287 0.188,-3.002 0.289,-6.022"
   id="path155"
   inkscape:connector-curvature="0"
   style="fill:none;stroke:#201d21;stroke-width:0.5" />
				<path
   d="m 98.786,145.884 c 0,0 -0.934,3.157 -0.383,5.079 0.553,1.922 -4.295,10.54 -5.072,13.662 -0.777,3.121 -5.041,8.195 -6.789,11.59 -1.744,3.393 -3.707,9.511 -3.708,9.563 -0.167,5.833 0.093,21.605 0,23.833 -0.021,0.538 -0.072,2.203 -0.167,4"
   id="path157"
   inkscape:connector-curvature="0"
   style="fill:none;stroke:#201d21;stroke-width:0.5" />
				<path
   d="m 73.698,153.674 c 0,0 0.521,3.406 2.055,4.743 1.534,1.337 6.831,4.116 6.831,4.116 0,0 3.358,3.319 4.328,3.049 0.968,-0.27 3.237,-1.109 3.237,-1.109 0,0 5.266,-10.808 5.625,-11.737 0.361,-0.931 -0.41,-5.076 -0.41,-5.076 l 1.109,-3.423"
   id="path159"
   inkscape:connector-curvature="0"
   style="fill:none;stroke:#201d21;stroke-width:0.5" />
				<path
   d="m 77.056,176.857 c 0,0 3.1,-2.749 3.777,-3.664 0.679,-0.916 0.777,-3.122 1.166,-4.685 0.389,-1.561 -8.225,-8.605 -8.819,-9.581 -0.595,-0.977 -2.013,-4.661 -2.013,-4.661"
   id="path161"
   inkscape:connector-curvature="0"
   style="fill:none;stroke:#201d21;stroke-width:0.5" />
				<path
   d="m 74.349,213.406 c 0,0 -1.332,2.401 -2.228,2.734 -0.896,0.335 -2.327,0.832 -2.327,0.832 l 0.131,1.146 1.055,0.055 1.271,-0.886 c 0,0 1.492,-2.014 2.004,-1.606 0.513,0.406 0.513,0.406 0.513,0.406"
   id="path163"
   inkscape:connector-curvature="0"
   style="fill:none;stroke:#201d21;stroke-width:0.5" />
				<path
   d="m 79.696,217.725 c 0,0 1.238,-0.126 2.158,-1.029 0.919,-0.903 1.99,-1.228 1.99,-1.228 0,0 5.594,-3.133 6.129,-3.295 0.537,-0.164 2.352,-1.4 3.07,-1.742 0.719,-0.343 5.133,-0.497 5.133,-0.497 l 0.223,-1.128 -3.709,0.188 -2.664,0.432 c 0,0 -3.053,1.363 -4.508,2.429 -1.453,1.067 -4.661,1.852 -4.661,1.852 l -1.392,-0.453"
   id="path165"
   inkscape:connector-curvature="0"
   style="fill:none;stroke:#201d21;stroke-width:0.5" />
				<path
   d="m 76.192,202.851 -1.416,0.118 c 0,0 -2.064,-1.248 -3.089,-2.063 -1.024,-0.813 -5.146,-3.497 -6.019,-3.732 -0.873,-0.235 -3.328,-0.553 -4.008,-1.157 -0.681,-0.604 -1.096,0.894 -1.096,0.894 l 3.329,0.553 1.199,0.822 -0.284,2.646 c 0,0 -3.582,1.337 -4.11,1.311 l 0.306,1.156 c 1.969,-0.661 4.654,-1.663 4.654,-1.663 0,0 0.572,-1.109 1.807,-1.046 1.23,0.063 3.655,1.14 4.671,2.142 1.017,1.004 1.436,3.688 2.836,3.95 1.399,0.263 1.354,1.4 1.354,1.4"
   id="path167"
   inkscape:connector-curvature="0"
   style="fill:none;stroke:#201d21;stroke-width:0.5" />
				<path
   d="m 47.118,167.503 c 0,0 -1.049,2.37 1.229,4.677 2.276,2.307 5.494,-1.984 5.494,-1.984 0,0 1.606,3.335 3.877,2.395 2.273,-0.939 2.67,-3.504 2.67,-3.504 0,0 2.723,0.538 4.174,-1.151 1.454,-1.688 -0.99,-4.551 -0.99,-4.551"
   id="path169"
   inkscape:connector-curvature="0"
   style="fill:none;stroke:#201d21;stroke-width:0.5" />
				<path
   d="m 62.205,147.376 c 0,0 -2.082,4.555 0.696,5.462 2.778,0.907 4.568,-1.334 4.568,-1.334 0,0 2.078,3.976 5.718,2.404 2.958,-1.278 2.108,-5.134 2.108,-5.134 0,0 3.828,0.518 4.68,-3.85 0.488,-2.497 -3.262,-2.675 -3.262,-2.675"
   id="path171"
   inkscape:connector-curvature="0"
   style="fill:none;stroke:#201d21;stroke-width:0.5" />
				<path
   d="m 84.493,132.151 c 0,0 -3.863,2.336 -2.297,5.125 1.566,2.79 5.359,2 5.359,2 0,0 -0.77,4.616 1.633,5.505 2.403,0.891 7.285,-0.544 7.285,-0.544 0,0 3.861,3.4 7.065,3.166 3.206,-0.235 5.126,-5.38 5.126,-5.38"
   id="path173"
   inkscape:connector-curvature="0"
   style="fill:none;stroke:#201d21;stroke-width:0.5" />
				<path
   d="m 61.554,149.381 c 0,0 -6.839,-2.556 -7.168,-7.804 -0.329,-5.25 1.427,-6.719 1.427,-6.719 -5.964,-1.058 -5.948,-7.249 -5.21,-9.553 1.527,-4.774 6.429,-5.123 6.429,-5.123 0,0 0.923,-3.833 3.489,-6.619 2.567,-2.785 10.979,-1.804 10.979,-1.804 0,0 2.004,-2.813 5.072,-4.22 3.521,-1.61 8.813,0.42 8.813,0.42 0,0 8.48,-3.3 14.129,3.386 3.926,4.645 2.21,9.41 2.21,9.41 0,0 5.14,-1.501 8.216,1.166 3.076,2.666 3.336,9.464 3.336,9.464 0,0 7.208,2.669 5.619,8.798 -1.591,6.128 -5.348,6.142 -5.348,6.142 0,0 0.056,7.177 -4.744,9.469 -4.8,2.293 -8.335,1.543 -8.335,1.543 0,0 2.255,4.178 0.242,7.184 -2.72,4.063 -8.272,2.226 -8.272,2.226"
   id="path175"
   inkscape:connector-curvature="0"
   style="fill:none;stroke:#201d21;stroke-width:0.5" />
				<path
   d="m 54.372,141.834 c 0,0 -6.609,0.785 -8.744,6.5 -2.133,5.713 -1.656,7.674 -1.656,7.674 0,0 -6.231,0.675 -6.992,5.097 -0.922,5.354 4.904,7.988 4.904,7.988 0,0 -1.912,4.95 0.805,7.213 2.719,2.261 8.821,0.224 8.821,0.224 0,0 4.157,6.838 10.812,0.9"
   id="path177"
   inkscape:connector-curvature="0"
   style="fill:none;stroke:#201d21;stroke-width:0.5" />
				<path
   d="m 64.56,174.631 c 0,0 1.979,-2.234 2.652,-4.722 0,0 4.047,1.938 8.053,0.576 4.008,-1.359 5.629,-3.998 5.629,-3.998"
   id="path179"
   inkscape:connector-curvature="0"
   style="fill:none;stroke:#201d21;stroke-width:0.5" />
			</g>
			<g
   id="g181">
				<path
   d="m 67.212,271.089 c 1.237,-0.991 5.682,-0.029 5.682,-0.029 l 0.067,0.06 c 0.948,-0.992 1.939,-1.768 2.454,-1.768 0,0 6.958,0 8.203,1.491 1.238,1.492 2.982,3.483 2.483,4.721 -0.499,1.246 -2.237,3.237 -2.983,3.237 -0.745,0 -5.72,-0.5 -6.711,-0.5 -0.545,0 -2.082,-0.604 -3.424,-1.356 l -0.06,0.111 c 0,0 -3.729,1.745 -4.721,1.491 -0.478,-0.119 -0.612,-0.925 -0.56,-1.805 -0.23,-0.067 -1.7,-0.492 -1.924,-1.179 -0.252,-0.744 0.248,-3.474 1.494,-4.474 z"
   id="path183"
   inkscape:connector-curvature="0"
   style="fill:#bb9866" />
				<path
   d="m 68.577,278.509 c -0.226,0.025 -0.374,0.038 -0.374,0.038 0.09,0.064 0.221,0.04 0.374,-0.038 z m 0,0 c 0.545,-0.062 1.586,-0.211 2.422,-0.519 1.181,-0.436 1.988,-0.994 1.988,-0.994 0.918,0.473 2.717,1.246 3.42,1.305 1.118,0.093 5.966,0.72 6.711,0.5 0.746,-0.221 2.424,-2.059 2.983,-3.237 0,0 -0.187,-0.805 -0.652,-0.433 -0.466,0.373 -2.704,1.679 -3.449,1.865 -0.745,0.186 -5.313,0.372 -5.966,0.187 -0.652,-0.187 -3.356,-0.84 -3.543,-0.56 l -1.182,-0.87 -0.559,-0.249 c 0,0 0.123,0.685 -0.311,1.181 -0.344,0.395 -1.274,1.526 -1.862,1.824 z m -2.86,-3.626 0.062,1.119 1.865,0.74 0.311,-1.922 c 0,0 -0.87,0.684 -1.43,0.56 -0.559,-0.124 -0.808,-0.497 -0.808,-0.497 z"
   id="path185"
   inkscape:connector-curvature="0"
   style="fill:#987c54" />
				<path
   d="m 67.208,272.397 c 0.436,0.312 4.352,0.497 4.352,0.497 0,0 -0.188,0.622 0.186,1.181 0.373,0.56 6.961,0.467 7.893,0.187 0.933,-0.279 1.523,-1.46 2.455,-1.739 0.933,-0.28 2.331,-1.025 1.025,-2.052 -1.305,-1.025 -7.703,-1.118 -7.703,-1.118 -0.74,0.222 -1.65,1.037 -2.4,1.829 0,0 -1.58,-0.399 -2.141,-0.399 -0.559,0 -2.92,-0.062 -3.355,0.187 -0.436,0.246 -0.747,1.116 -0.312,1.427 z m 1.057,1.74 c 0,0 -0.809,1.554 -0.373,1.802 0.435,0.25 1.74,-1.305 1.615,-1.491 -0.124,-0.187 -1.242,-0.311 -1.242,-0.311 z"
   id="path187"
   inkscape:connector-curvature="0"
   style="fill:#cdb896" />
				<path
   d="m 75.413,269.352 c 0,0 6.96,0 8.203,1.491 1.243,1.492 2.984,3.48 2.486,4.724 -0.498,1.244 -2.237,3.231 -2.983,3.231 -0.745,0 -5.717,-0.497 -6.712,-0.497 -0.994,0 -5.221,-1.989 -5.718,-3.231 -0.497,-1.243 3.48,-5.718 4.724,-5.718 z"
   id="path189"
   inkscape:connector-curvature="0"
   style="fill:none;stroke:#1f1e21;stroke-width:0.5" />
				<path
   d="m 72.896,271.061 c 0,0 -4.443,-0.964 -5.687,0.031 -1.242,0.994 -1.741,3.729 -1.491,4.475 0.249,0.745 1.957,1.181 1.957,1.181"
   id="path191"
   inkscape:connector-curvature="0"
   style="fill:none;stroke:#1f1e21;stroke-width:0.5" />
				<path
   d="m 70.689,275.07 c 0,0 -1.988,-1.491 -2.485,-0.746 -0.498,0.746 -0.994,3.977 0,4.226 0.994,0.249 4.723,-1.491 4.723,-1.491"
   id="path193"
   inkscape:connector-curvature="0"
   style="fill:none;stroke:#1f1e21;stroke-width:0.5" />
			</g>
		</g>
		
	</g>
	
</g>
</svg>
