<svg id="svg4136" xmlns="http://www.w3.org/2000/svg" viewBox="0 0 758 761"><title>spider 11</title><path id="path4146" d="M294,759.13c0-2,4.67-11,6.57-12.63s15.76-19.48,21-27.09c2.7-3.91,7.05-10.12,9.66-13.8a64.75,64.75,0,0,0,4.75-7.27,63.35,63.35,0,0,1,4.34-7.2c2.39-3.65,7-11.08,10.18-16.52a145.73,145.73,0,0,1,8.09-12.57c2.56-3,3.81-6.19,8.34-21,5.85-19.16,7.39-23.43,11.37-31.5,4.28-8.66,9.65-21.38,9.71-23a24.72,24.72,0,0,1,2-5,21.07,21.07,0,0,0,2-5.52,8,8,0,0,1,1.38-3.5,85.71,85.71,0,0,0,4.54-10,85.26,85.26,0,0,1,5.65-11.72c2.49-3.77,3.26-8.33,1.51-8.94-1.19-.41-7.05-35.55-7.05-42.26a115.38,115.38,0,0,0-2-15.52c-1.08-5.81-2.64-15.06-3.46-20.56s-2.22-13.82-3.12-18.5-2.19-13-2.86-18.5c-1.22-10.08-2.16-11.59-5-8.05-12,14.83-12.1,15.19-7.63,23.91,12.05,23.58,6.73,51.46-16.44,86.14-43.26,64.75-139.67,84.07-151,30.27a72.37,72.37,0,0,0-3.79-10.27c-4.72-10.66-4.45-46.27.42-55.73a10.6,10.6,0,0,0,.89-4c0-2.72.69-4.34,8.09-19.15C219,455.83,225.94,445,231.55,439.4a48.22,48.22,0,0,0,6.1-7.39c1.81-3.06,18.88-17.64,23.52-20.07a9.44,9.44,0,0,0,3.13-2.58,2.75,2.75,0,0,1,2-1.36c.66,0,4-1.34,7.49-3,5.88-2.79,11.86-4.17,30.21-7,7.1-1.1,14.58-.7,29,1.56,5.64.88,11.42-4.44,10.69-9.85-.66-5-1.76-6.06-5.9-6a53,53,0,0,1-10.29-1.81c-5.66-1.5-11.77-1.93-32-2.25-17.23-.27-27.33-.88-32.5-1.94-17.91-3.69-19.7-3.56-31.73,2.27-11.56,5.6-19.68,9.68-28,14a124.63,124.63,0,0,1-13,5.52,76.2,76.2,0,0,0-8.83,3.56,106.14,106.14,0,0,1-10.5,4.23C160.89,411,147.16,416.75,145.5,418a58,58,0,0,1-7.2,3c-5.37,2-7.89,3.92-19,14.74-7,6.85-16.06,15.19-20,18.53S92,460.64,92,461.08s-1.91,2.78-4.25,5.19c-13.64,14.07-36.32,38.45-50,53.73-5.17,5.78-11.55,12.08-14.2,14a128.09,128.09,0,0,0-10.74,9.25c-6,5.85-7.21,6.43-9.76,4.81-2.28-1.44-.64-3.72,13.1-18.2,7-7.35,14.61-15.77,17-18.73,7.25-9,14.54-17.12,25.18-28.14C63.93,477.22,71,469.64,74,466.17s11.58-11.73,19-18.35,14.64-13.9,16-16.18c8.41-13.71,9.16-14.56,16.35-18.67,3.91-2.23,10.26-6,14.11-8.34,6.44-3.94,22.84-12.95,30-16.48a76.33,76.33,0,0,0,7.3-4.39,65,65,0,0,1,12.5-5.69,125.14,125.14,0,0,0,13.2-5.3c2.75-1.38,8.21-3.67,12.14-5.08a68.68,68.68,0,0,0,16.49-8c7.8-5.22,51.87-5.6,74.05-.63a86.1,86.1,0,0,0,15.32,2,37.52,37.52,0,0,1,9.2,1c8.8,2.83,11.17-9.35,2.55-13.13-2.61-1.15-6.1-2.71-7.75-3.47s-6.6-2.49-11-3.84-12.57-4.31-18.15-6.56S284.6,331,283.87,331c-1.27,0-4.93-1.67-18.26-8.33-6.64-3.31-16.48-3.4-25.48-.22a26.64,26.64,0,0,1-6.69,1.55,77.61,77.61,0,0,0-10.62,2c-6.9,1.68-13.09,2.13-36.31,2.64-20.33.45-28.73,1-30.65,1.95-4.4,2.22-12.74,3.83-38.35,7.39-3.3.46-11,1.76-17,2.9a122.58,122.58,0,0,1-17,2.09c-14.46,0-60.52,7.19-64,9.94-5.49,4.31-18.82,3.5-19.36-1.18-.4-3.42,1.7-4.36,14.31-6.34C29.62,343,36.3,341.91,41,341c2.47-.5,9.21-1.43,15-2.08s11.91-1.78,13.68-2.52a40.47,40.47,0,0,1,9-2c3.21-.35,12.35-2.12,20.33-3.93s16.07-3.61,18-4c7.3-1.42,18.61-5.91,21.5-8.53,2.09-1.9,6.38-3.67,14.21-5.87,12.09-3.4,14.31-3.71,33.29-4.57,6.87-.31,16.55-1,21.5-1.52s13.18-1,18.29-1c10.71,0,22.59-2.21,28.38-5.22,3.44-1.8,4.59-1.95,8.17-1,5.75,1.47,21.7,7,23.05,8.06.61.46,6.51,2.76,13.11,5.1l20.5,7.28c4.67,1.65,10,3.64,11.78,4.41A25.82,25.82,0,0,0,339,325H344l4-6.25c3.91-6.1,5.18-10.75,2.93-10.75-.61,0-4.58-3.38-8.82-7.5s-8.47-7.5-9.42-7.5c-3.52,0-9.22-3.26-22.26-12.74-7.38-5.37-16.9-12.13-21.15-15-11.52-7.86-15.62-14.1-16.9-25.72-.24-2.2-1.18-9.18-2.08-15.5s-1.72-14.43-1.81-18c-.32-13.32-2.49-44.89-3.85-56.1-1.46-12-.91-26.26,1.25-32.4,1.49-4.21,7.17-40.67,7.17-46a24.49,24.49,0,0,1,1.09-7.21c.6-1.54,1.51-7.54,2-13.31s1.81-16.58,2.9-24,2-15.67,2-18.32c0-8.76,3.86-11.68,6.63-5C289,6.8,289,9.22,288,21.4c-.63,7.76-1.33,21.76-1.55,31.11s-1.07,21.05-1.91,26-2.4,14.4-3.48,21-2.5,15.07-3.16,18.82c-1,5.84-1,7.57.42,12A142.06,142.06,0,0,1,281.6,146c.91,5.77,2.29,14.1,3.06,18.5s1.8,12.27,2.28,17.5,1.5,11.3,2.27,13.5a18.35,18.35,0,0,1,.8,8.15c-3.07,20.93.13,38.31,7.74,42a123,123,0,0,1,11.58,6.58c3.2,2.09,6,3.81,6.15,3.81,1.42,0,25.59,16.21,29.74,19.95,2.89,2.61,16.87,13.94,20.33,16.49.87.64,2.34.13,4.62-1.6a53.37,53.37,0,0,1,6.59-4.22L380,285l0-9.23c0-12.2-1.67-32.87-3-37.81-1.43-5.33-1.41-38.06,0-42.43,1.13-3.43,13.5-14.12,20.5-17.73,1.65-.85,5.4-3.17,8.35-5.15s5.71-3.6,6.16-3.6,5.24-2.51,10.65-5.57,13-6.95,16.84-8.62a74.18,74.18,0,0,0,8.1-3.93c.6-.48,3.49-1.33,6.42-1.89,6.71-1.27,13.56-5.63,19.32-12.3,2.46-2.86,13.78-14.61,25.14-26.12,15.3-15.5,21.4-22.37,23.49-26.5a90.29,90.29,0,0,1,7.4-11.57L539,60c2.74-3.58,5.63-7.4,6.43-8.5,1.09-1.5,1.75-1.72,2.63-.87C549.37,52,547.45,56.27,543,62a23.79,23.79,0,0,0-3.49,6c-.41,1.37-3.41,6.43-6.68,11.24s-6.39,10.4-6.95,12.42-3.39,6.64-6.29,10.26a83,83,0,0,0-6.81,9.58,26.83,26.83,0,0,1-4.88,6c-1.84,1.68-6.89,7.18-11.23,12.24-14.3,16.66-22.86,24-37.12,31.63a53.66,53.66,0,0,0-5.5,3.75c-1.92,1.47-8.67,5-15,7.86s-13.35,6-15.61,7.08a26.36,26.36,0,0,1-4.93,1.89c-.45,0-2.2,1.5-3.89,3.34-2.44,2.65-4.14,3.48-8.22,4-7.3,1-7.26.84-6.32,19.64.45,9.07,1.09,25.47,1.43,36.44s1,20.46,1.58,21.1a23.1,23.1,0,0,1,2.3,5c1.49,4.29,3.24,5.16,10.78,5.32,6,.13,6.51-.68,7.35-10.9.68-8.39,2.76-15.1,8.28-26.76,6.66-14.06,29.38-22,40-13.94,4.21,3.19-4.6,13.67-13.1,15.58-8.86,2-13.94,10.05-14.88,23.61-.27,4-.21,4,5.63,6.94a24.07,24.07,0,0,1,10,8.66c10.13,14.12,33.76,7.33,37-10.63,2.26-12.5,8-20.47,14.76-20.47,9.71,0,9.24,26.91-.68,38.92-9.23,11.18-17.34,16.8-26,18-4.83.67-10,9-9.12,14.56,2.68,16,4.73,19.34,9.44,15.19a53.63,53.63,0,0,1,7.7-4.48c3.31-1.66,9.84-6.49,14.5-10.74s10.72-8.82,13.47-10.15,6.8-3.51,9-4.83c5.32-3.2,18-9.5,19.08-9.5.48,0,3.36-2.45,6.4-5.44,10.48-10.33,34.78-27.57,41.44-29.41,4-1.1,20.17-9.67,21.1-11.17.33-.53,4.49-3.27,9.25-6.08a134.91,134.91,0,0,0,12.7-8.39,55.21,55.21,0,0,1,8.15-5.34,44.43,44.43,0,0,0,7.11-4.59c4-3.33,13.34-8.25,29.86-15.65,12.72-5.7,42.76-20.76,53.92-27,13.42-7.55,16.5-8.12,16.5-3.08,0,4-11.69,10.88-34.5,20.29a94.34,94.34,0,0,0-11.5,5.55,45.62,45.62,0,0,1-8,3.84,30.58,30.58,0,0,0-9,5.9,63,63,0,0,1-10,7.49c-6.62,3.82-14.76,9.39-17.5,12-2.33,2.19-22,15-24.4,15.92a24.92,24.92,0,0,0-4.1,2.3c-1.38.93-6.38,4.2-11.13,7.26a74.45,74.45,0,0,0-14.33,12.08,71.87,71.87,0,0,1-10.88,10c-2.84,1.93-7.41,5.1-10.16,7-9.19,6.51-14,9.81-21.32,14.78a94.81,94.81,0,0,0-13,10.94A87.85,87.85,0,0,1,534.47,331a34,34,0,0,0-6.4,4.69c-2.68,2.87-13.9,9.12-17.78,9.89a15.75,15.75,0,0,0-6.14,3.43,16.5,16.5,0,0,1-6.1,3.47c-1.66.37-3.31,1.13-3.67,1.71s-3.5,2.34-7,3.92c-4.46,2-6.8,3.77-7.89,5.88-.86,1.65-2,3-2.49,3-1.22,0-2.58,2.7-3.31,6.58l-.59,3.08,7.32,1.14c9.85,1.53,16.84.58,23.57-3.2l5.5-3.09,16,.08c12.86.06,16.62.41,19.2,1.74a18.35,18.35,0,0,0,7,1.71,66.85,66.85,0,0,1,16.38,3.4c.87.35,2.33,2.22,3.25,4.13s2.45,3.74,3.41,4,5.59,2.32,10.27,4.47,9.1,3.92,9.8,3.92a18.37,18.37,0,0,1,5,1.86c8.59,4.32,10.41,5.14,11.34,5.14a39.58,39.58,0,0,1,6.67,2.6c9.94,4.54,11.62,5.23,14.45,5.93a7,7,0,0,1,3.29,1.56c.5.8,9.89,6.47,16.43,9.91a33.26,33.26,0,0,1,6.48,5.25c2,2.06,4.24,3.75,5,3.75s3.3,2.52,5.7,5.61a95.31,95.31,0,0,0,7.71,8.75,27.9,27.9,0,0,1,4.74,5.83c.77,1.47,4,5.36,7.16,8.63s9.49,10.45,14.06,16,14.7,16.26,22.52,23.87,15.24,15.5,16.49,17.54a21.11,21.11,0,0,0,5.64,5.77c5.62,3.48,10.89,9.91,9.49,11.6-1.74,2.09-7.92,1.74-11.88-.67-4.56-2.78-50.3-49.84-56-57.56-.34-.46-3.76-3.52-7.61-6.8s-9.2-8.07-11.89-10.65c-3.75-3.61-6.84-5.41-13.36-7.75a85.78,85.78,0,0,1-15.12-7.44C632.35,437.88,620.6,431,619.51,431c-.48,0-3.6-1.73-6.94-3.84C606,423,583.09,410.5,571,404.49a68.33,68.33,0,0,1-9.2-5.23c-2.7-2.38-13.45-2.78-22.24-.82-4.23.94-8.45,1.37-9.37,1-3.73-1.64-50.09-1.42-51,.24-1,1.84-12.75,2.34-23.16,1-7.64-1-20,4.66-18,8.22,2.08,3.73,17.69,18.4,25.65,24.12,2.68,1.93,7.12,5.55,9.87,8s6.8,5.87,9,7.48a90.07,90.07,0,0,1,8.08,7c2.24,2.21,5.95,5.72,8.25,7.79s4.17,4.13,4.17,4.59a6.29,6.29,0,0,0,2,2.64,7.14,7.14,0,0,1,2,5.41c0,3.31,2.64,11.71,5,15.86,1.66,2.94,8.16,19.59,8.68,22.23a27.08,27.08,0,0,0,1.34,4.5c.47,1.1,2.51,5.83,4.54,10.5s4.8,11.88,6.16,16c3,9.2,6.62,19.39,9.89,28a41.69,41.69,0,0,1,2.55,11c0,2.48,1.38,8.76,3,14S551,608.68,551,610.25a40.91,40.91,0,0,0,.93,7c.51,2.31,1.45,8.92,2.1,14.69s1.57,12.41,2.07,14.75c2.21,10.35,5.23,34.8,6.55,53,.49,6.68.29,8.71-1,10.75-3.85,5.88-6.17.5-6.92-16-.36-7.82-1.17-14.41-2-16.5-1.46-3.5-3.93-16.05-7.65-38.84-1.1-6.75-2.66-13.55-3.47-15.11-1.33-2.59-3.85-15.46-3.44-17.62s-.18-3.38-2.43-6.08A19.4,19.4,0,0,1,532.5,595c-.42-1.37-3.18-5.86-6.13-10s-6.1-9.51-7-12-3.34-8.58-5.44-13.53a300,300,0,0,1-12.86-38.1,72.1,72.1,0,0,0-3.56-11,13.7,13.7,0,0,1-1.51-4,34.85,34.85,0,0,0-2.46-6.5,36.69,36.69,0,0,1-2.83-9.1c-.45-4.44-2-6.23-10.37-12.41-3.5-2.57-6.36-5-6.36-5.43s-1.91-2.16-4.25-3.88a129.85,129.85,0,0,1-10.25-8.88c-3.3-3.17-7.57-7-9.5-8.55s-8-7.14-13.5-12.46c-23.78-23-25.29-24.22-28.25-22.34-2.21,1.4.83,28.71,3.81,34.27,1,1.81,3.26,11.6,6.91,29.44,1,5,3.31,14,5.09,20,3.79,12.8,4.56,34.07,1.42,38.86-.84,1.29-2.18,6.34-3,11.23A100.3,100.3,0,0,1,418.66,566c-2.49,6.74-9.06,22.25-10.67,25.17-.51.92-3.23,7.22-6.05,14-5.25,12.6-19.55,41.85-22.82,46.66l-4.52,6.67c-1.48,2.2-5.14,7.37-8.13,11.5-8.71,12-14.75,21-19.32,28.65a131.41,131.41,0,0,1-11,15,94.94,94.94,0,0,0-10,13.85A62.51,62.51,0,0,1,318,738.74c-2.74,2.9-5,5.64-5,6.11a10.06,10.06,0,0,1-2.25,3.37c-1.23,1.39-4.18,4.83-6.55,7.64-4.69,5.56-10.2,7.31-10.2,3.24ZM400,583.06c0-1.41,1.36-4.54,3-7,2.18-3.21,3-5.57,3-8.75,0-6.19-1.45-5.38-3.43,1.9a90,90,0,0,1-4.19,11.64c-2.66,5.76-2.53,10.36.19,6.67a9,9,0,0,0,1.45-4.5ZM271.93,566.88c7.27-2.28,10.81-4.23,8.4-4.64-1.2-.2-4.1.57-6.44,1.7a20.9,20.9,0,0,1-6.08,2.06c-1,0-1.81.45-1.81,1,0,1.29,1.52,1.26,5.93-.12Zm-19.43-3.82,4-.83-4-.12c-8.24-.25-11.3-1.79-13.69-6.91-1.59-3.41-2.3-4.19-2.59-2.84a3.55,3.55,0,0,0,.69,2.95,5.49,5.49,0,0,1,1.09,3.36c0,4.28,6.09,6.13,14.5,4.39ZM232,558.8c0-.66-1.21-2.46-2.69-4-4.89-5.1-7.32-37.76-3.66-49.16,6.72-20.94,14.43-35.64,23.47-44.74.89-.9,3.53-4.17,5.87-7.27s4.68-5.63,5.2-5.63c1.75,0-.39,4.27-3.91,7.8a26.91,26.91,0,0,0-5,7.1,39,39,0,0,1-4.58,7.49c-7.41,9.37-17.88,32.83-17.89,40.11,0,5.88,1.36,20.41,2.21,23.47a33,33,0,0,1,1,7.2,19.4,19.4,0,0,0,.61,5.25c1.13,3,2.39,1.6,2.39-2.55a36.36,36.36,0,0,1,1-7.75c.52-2,1.2-4.85,1.51-6.37s1-2.75,1.44-2.75,1.1,1.24,1.39,2.75c2.6,13.62,7.51,20.84,7,10.23-.9-17.62-.05-23,3.66-23,2.29,0,3.26,4.32,2.4,10.62-.45,3.25-.25,4.81.68,5.39,1.9,1.17,6-1,6-3.22,0-6.28,5.13-10.81,9-7.95,3.38,2.5,5.51,2.66,9,.66,3-1.7,7-1.94,7-.42,0,1.7-5.33,6.58-8,7.35-5.44,1.56-13,4.85-13,5.69,0,2.29,11.44-.07,16.2-3.33,2.27-1.55,3-1.65,4.72-.6s2.39.9,4.8-1.39c2.8-2.68,12.12-7.8,14.18-7.8,2.47,0,.83,3.13-3.54,6.7-2.55,2.09-5.75,4.8-7.11,6a15.77,15.77,0,0,1-4.54,2.87c-3,.95-10.28,6.41-8.57,6.41a18.94,18.94,0,0,0,5.36-2,18.37,18.37,0,0,1,5.65-2,3,3,0,0,0,2.3-.92c.31-.51,2.7-1.72,5.31-2.69,7.46-2.77,18.95-12.74,27.22-23.61,3.23-4.24,7-9,8.48-10.5a15.05,15.05,0,0,0,3.18-5c.58-2.25,2.36-3.17,2.36-1.22,0,1.54-4.84,10.84-8.31,16l-4.86,7.21a13.34,13.34,0,0,0-1.83,3.33c0,.35-2,3.21-4.5,6.36-4.79,6.09-5.39,8.11-3,10.09,1.24,1,1.78.67,3.25-2.06a23.82,23.82,0,0,1,4.07-5.36,90,90,0,0,0,15-16.88c7.2-10.5,8.87-13.58,10.66-19.61a62.91,62.91,0,0,1,3.79-9.58c1.88-3.53,2.19-6.2,2.71-23,.7-22.7,2.75-22.7,4,0,1.16,21.06,4.59,25,6.48,7.5.77-7.1-.6-14-5.23-26.46l-3.74-10-.31,4.75c-.35,5.47-1.27,6-2.89,1.75-2.07-5.49-8.22-3.47-6.5,2.14,2.88,9.41,3.58,16.76,2.25,23.61-2.38,12.2-4.16,9.95-3.36-4.25.54-9.65-1.39-17.35-4-15.88-3.16,1.79-4.72,3.93-4.72,6.45,0,2.27-.35,2.66-2,2.21-2.6-.68-6.8,3.81-20.11,21.47-12.92,17.16-14,17.46-24.64,6.53-4.21-4.34-5.15-5.89-4.61-7.61.62-2,5-8.41,6.5-9.67.34-.27,3-3.42,6-7s5.88-6.95,6.51-7.5a73.12,73.12,0,0,0,5.37-6.8,137.5,137.5,0,0,1,11.88-13.44c12.6-12.52,13-13.54,6.65-16.27-7.35-3.15-15.71-3.51-24.91-1.08a74.37,74.37,0,0,1-9.72,2.09c-1.94,0-8.46,2.75-10.84,4.57-4.54,3.47-11,3.52-7.14.06,4.95-4.48,14.82-7.92,33.34-11.6,4.75-.95,13.74.47,18.54,2.92,8.61,4.39,17.7,1.87,9.51-2.64-16.49-9.07-46-6.55-66.31,5.66C261.24,421,246,433.48,246,436c0,.47-2.64,3.47-5.86,6.66-8.2,8.11-20.93,35.86-13.28,28.93A21,21,0,0,0,230.5,466c1-2.18,2.18-4,2.64-4s.86-.79.87-1.75c0-3.24,1.62-4.79,3.4-3.31a4.93,4.93,0,0,1,0,7.15,11.32,11.32,0,0,0-2.55,3.37,61.67,61.67,0,0,1-5.05,8.54c-3.1,4.64-5.68,13.46-6.24,21.32-.31,4.3-1.1,8.8-1.75,10a20.37,20.37,0,0,0-1.45,6.68c-.15,2.48-.75,7.14-1.34,10.36-1.59,8.62,2.64,24.32,8,29.64a22.72,22.72,0,0,1,1.92,3.25c1.46,2.84,3.08,3.66,3.08,1.56Zm111.66-69.56c-.81-1.31.43-11.18,1.49-11.84s1.09,9.68,0,11.45c-.5.79-1.11.95-1.46.39ZM239,456.06a8.74,8.74,0,0,1-1-2.92c0-1.49,9.52-12.37,12.81-14.65C270.25,425.05,275,422.4,275,425a1,1,0,0,1-.93,1c-.51,0-1.21.88-1.55,1.94s-2.15,2.45-4,3.07a15.35,15.35,0,0,0-5.86,4,91.42,91.42,0,0,1-8.28,7.84,63.51,63.51,0,0,0-9.35,10c-3.92,5.66-4.49,6-6,3.21ZM267.87,441c2.59-2.17,4.13-2.52,4.13-.95,0,.57-1.16,1.47-2.57,2-3.78,1.44-4.22,1.15-1.57-1.05Zm10.78-8.49c.68-1.77,3.52-3.47,5.79-3.47,2.53,0,1.8,1.82-1.38,3.47-3.75,1.94-5.15,1.94-4.41,0ZM294,424c1.93-1,4.55-2.37,5.82-2.95,2.94-1.34,11.18-1.38,11.18-.06,0,.55-.89,1-2,1-2.58,0-11,2-13.25,3.12-3.6,1.83-5.26.78-1.76-1.12ZM276.56,557.55c2.71-1.35,4.45-2.47,3.87-2.5-1.8-.09-11.87,3.07-12.89,4-2,1.89,4.23.83,9-1.54Zm14.87-5.61c.51-.5.71-1.13.43-1.41-.73-.74-6.86,1.75-6.86,2.79s5.07-.05,6.44-1.38Zm-33.9-9.07c.73-2.29-.78-3.83-3.78-3.86-1.19,0-1.75.76-1.75,2.4,0,3.79,4.43,5,5.53,1.46Zm157.63-8.46a109.77,109.77,0,0,0-1.88-15.92,64.42,64.42,0,0,1-1.51-9.5c0-2.23-4.41-28.59-5.34-31.75a2,2,0,0,0-1.79-1.25c-3.15,0-2.64,11.82,1.45,33.7a119,119,0,0,1,1.9,13.12,20,20,0,0,0,1.41,6.31,42.74,42.74,0,0,1,2.13,8.37c1.56,10.83,4.07,8.7,3.63-3.09Zm-142.68,6c2.06-.86,3.48-1.81,3.17-2.12-.76-.77-9.65,1.91-9.65,2.9,0,1.21,2.41.92,6.49-.78ZM211,514.7a24.2,24.2,0,0,1,2.09-5.39,38.35,38.35,0,0,0,2.81-9.56,29.05,29.05,0,0,1,1.92-7.44,12.06,12.06,0,0,0,1.19-4.88c0-4.06-2.23-1.62-3.88,4.22-.74,2.66-2,6.76-2.74,9.12a29.77,29.77,0,0,0-1.38,7.34c0,2.22-.55,3.2-2,3.58-1.88.49-2.73,3.24-1.4,4.56.86.86,3.4-.29,3.4-1.56Zm10.2-37.18c-.63-1.39-1.83-2.53-2.67-2.53-2,0-1.93,1.58.23,4.48s4,1.56,2.44-2Zm85-1.81c2.59-3.42,6.33-8,8.31-10.22a95.29,95.29,0,0,0,6.17-7.75c1.41-2.06,2.9-3.75,3.3-3.75s4.7-4.8,9.57-10.66S345,430.1,348.2,427s5.8-6.2,5.8-6.79c0-1.14-3.88-4.17-5.34-4.17-1.87,0-30.2,30.1-37.18,39.5a106.07,106.07,0,0,1-7.19,9c-6,4.87-9,12.15-6.12,15.18s2.64,3.18,8-4ZM372,452.53c0-2.72-1.93-7.55-3-7.55-.38,0-.25,2.25.29,5,1,5.22,2.72,6.8,2.72,2.55Zm76-15.93c0-1.71-6.77-8.4-9.33-9.22-3-.94-4.18,1.11-1.92,3.26,6.59,6.25,11.25,8.72,11.25,6Zm207.45-2.52c.71-1.15-5.62-6.21-12.05-9.63-2.69-1.44-7.15-3.9-9.9-5.48-5.84-3.35-6.48-3.46-9.06-1.54-1.87,1.39-1.82,1.55,1.56,4.54,7.79,6.9,27.63,15,29.45,12.11Zm-288.56-12a2.74,2.74,0,0,0,.84-3c-.72-2.73,1.77-7.71,4.86-9.73,4.35-2.86-1-12.16-8-13.92-7.17-1.81-13,7.53-7.4,11.9,2.48,1.94,3.15,3.21,3.09,5.82-.18,7.72,2.62,11.48,6.64,8.93ZM430.58,419c1.44,0,.05-4-1.57-4.5-2.53-.8-4,.11-4,2.48,0,2,1.71,3.11,3.83,2.44a9.6,9.6,0,0,1,1.75-.42Zm-32-20.75c-1-3.71-2-8.1-2.32-9.75a22,22,0,0,0-3.43-6.95c-3.72-5.12-3.67-6.55.25-6.55,2.49,0,4.07-1,7.75-5.12,2.54-2.81,8.9-8.77,14.13-13.24S431.09,342,439.16,334s17.37-16.39,20.68-18.7c9.47-6.59,9.05-12.29-.91-12.3-8,0-18.93-6.7-18.93-11.59,0-.83-1.18-2.69-2.62-4.13a22.39,22.39,0,0,1-4-6c-2.15-5.14-6.47-4.42-7,1.18-.46,4.52-3.63,12.9-10.05,26.55a101.73,101.73,0,0,0-5.4,13.41,26.45,26.45,0,0,1-4.76,8.5,71.06,71.06,0,0,0-7,10.59A161.5,161.5,0,0,1,390,356c-6.87,9.73-6.69,9.15-3.82,13,3.65,4.94-1.38,3.78-11.18-2.58-1.93-1.25-6.88-3.06-11-4a65.72,65.72,0,0,1-10.2-3.09c-5.21-2.6-7.12-1.87-6.34,2.4,1.83,10,8.52,16.93,13.64,14.2,1.57-.85,3-.73,6,.48s4.47,1.32,6,.52c3.74-2,11.46,6.49,8.81,9.68-1.48,1.79-3.34,1.74-4.89-.13s-5-2-5-.17c0,.72,1.13,2.38,2.51,3.68a35.82,35.82,0,0,1,5,6.66c2.72,4.64,3.92,5.51,10.59,7.72,10.2,3.37,10.85,2.9,8.49-6.13ZM402,352.87a9.16,9.16,0,0,1,2-4.16,12.63,12.63,0,0,0,2-3.08c0-.83,12.33-19.39,17.36-26.15,4.78-6.43,9.65-15,9.65-17,0-4.05,3-3.6,7.55,1.14,6,6.25,1.34,19.44-6.83,19.38-.67,0-8.08,7.08-16.47,15.75S402,353.75,402,352.86Zm22.5,50.6c1.65-.73,5.09-2.22,7.63-3.3,10.88-4.64,25.88-19.73,32-32.19l4.17-8.5.33-13.5c.52-21.35-.86-26.47-6.14-22.61-1.89,1.39-2.25,3.31-2.53,13.61a30.83,30.83,0,0,0,.6,5.71c.5,2.41.1,4.12-1.63,6.92l-2.29,3.71,2.19,1.45c3.34,2.22,2.94,6.77-.77,8.68s-4.05,1.89-4.05.13c0-2.46-2.78-2.58-4.35-.19-1.85,2.83-20,18-24.72,20.58-11.66,6.5-16,7.82-18.21,5.58-3.87-3.87-3.69,1.44.35,10.08l3.07,6.56,5.68-.69a39.25,39.25,0,0,0,8.68-2Zm8.17-16.16c-1.41-1.41-.56-3.42,1.83-4.33,1.38-.53,2.5-1.36,2.5-1.86,0-1.33,5.72-3.46,7.48-2.79,3.4,1.31,1.65,4.68-3.73,7.18s-7,2.9-8.08,1.8Zm-264,11.29c4.31-1.86,9.19-4.06,10.84-4.89l17.75-8.86c12.89-6.43,16.76-8.88,14-8.87-1,0-19.2,7.7-21.75,9.2-2.3,1.35-6.65,3.5-14.5,7.17-18.09,8.46-23.23,13.53-6.34,6.25ZM470,391.49c1.65-2,.56-4.51-1.94-4.51S458,390,458,391c0,2.27,10.17,2.68,12,.49Zm76.79-4a19.08,19.08,0,0,1,7.27-1.25c4.64.37,5-3.12.45-4.48-4.32-1.3-23.44-1.85-21.23-.61,2.42,1.35,2.16,2.71-.76,4.05-7,3.2,6.54,5.38,14.27,2.29Zm-129.5-5.59c-1.08-1.08-6.28.52-6.28,1.93,0,1.86,1.39,2,4.25.56,1.89-1,2.63-1.89,2-2.49ZM350,381.1c0-1-1.12-2.83-2.5-4.12l-2.5-2.35v3.11c0,3.22,2.48,6.68,4.09,5.69a3,3,0,0,0,.92-2.33Zm-14.58-8.73c2.37-.9,1.92-4.06-.67-4.76-6.63-1.78-13.46.59-10.84,3.76,1.35,1.63,8.31,2.23,11.51,1ZM254,369c0-1.17-7.76-3.61-8.65-2.72-.35.35-.06,1.32.63,2.16,1.38,1.66,8,2.13,8,.56Zm57.81.11c5.17-1.45,2.28-2.67-7.81-3.29-25.38-1.56-47-2.07-47-1.11,0,2.69,47.38,6.5,54.81,4.4Zm45.8-15.91c.61-.41,1.42-3.61,1.81-7.12,2.25-20.2,24.13-44.51,44.58-49.55,17.43-4.28,18.41-9.94,1.75-10-22.13-.08-41.41,11.93-50.43,31.43-5.37,11.6-6.61,15-7.33,20.11a36.81,36.81,0,0,1-1.4,6.76c-1.65,2.66.68,7,4.27,8,4.7,1.25,5.42,1.29,6.75.41Zm-1-25c-1.12-1.8,1.7-9.37,3.78-10.14,5.15-1.92,5.72.47,1.55,6.52-3,4.34-4.32,5.25-5.33,3.62ZM384,297.1c0-1.57,2.75-3.2,6.41-3.8,5.13-.83,5,2.2-.16,3.63-4.59,1.27-6.25,1.32-6.25.17ZM483.5,351c.74-2.35-.08-4-2-4-1.56,0-3,3.46-2,5,1.05,1.69,3.34,1.13,4-1ZM339,339.9c0-3.28-5.46-8.12-8.74-7.74-4,.46-4.37,4.8-.68,7.7s9.42,2.91,9.42,0ZM316.48,331c-.85-1.38-14.63-7.61-23-10.41-9.06-3-14.13-5.82-11.95-6.58,1.85-.65,1.84-.7-.1-1.74-6.34-3.39-24.48-5.63-26-3.2-1.23,2,.15,2.92,15.53,10.53a69.36,69.36,0,0,0,21.5,5.75c4.1.34,8.64,1.42,11,2.62a18.14,18.14,0,0,0,6.19,2.06,3.8,3.8,0,0,1,2.85,1,3.41,3.41,0,0,0,2.61,1c1.12,0,1.72-.46,1.37-1Zm208.61-8.57c1.24-1.31,2.88-2.39,3.64-2.39s4.55-2.07,8.44-4.61c4.09-2.67,8.69-4.83,11-5.13,6.75-.91,5.4-4.26-1.72-4.26-9.61,0-35.5,15.57-31.89,19.17,1.26,1.27,8.59-.64,10.58-2.77ZM192.5,320.51c15.24-.48,27.84-2.15,27-3.56-1.83-3-51.08-3.06-63.18-.12-15.86,3.86-13.85,5.58,5.58,4.79,8-.33,21.83-.83,30.63-1.11Zm166.8-19.86c.5-1.31-2.71-9.66-3.71-9.66-5.2,0-7.25,4.51-3.67,8.08,3.09,3.09,6.52,3.82,7.38,1.58ZM473,298.44c0-3-3-5.1-10-7.09-7.72-2.2-9.33-3.45-12.37-9.68-1.95-4-3.39-5.65-5.3-6.13-3.8-1-5.17.9-2.73,3.69a28.46,28.46,0,0,1,3.62,5.89c2.58,5.74,7.26,10.38,12,11.9,2.37.76,6.06,2.14,8.21,3.08,4.63,2,6.6,1.53,6.6-1.66Zm18.6-5.06a31.22,31.22,0,0,0,17-23.39c1.11-8.35-1.65-16.61-3.09-9.25-3.16,16.15-9.42,25.48-19.66,29.31-6.23,2.33-7.38,3.26-6.27,5.05.91,1.49,7.12.6,12-1.72ZM580.05,284c9.72-6.51,11.52-7.84,13.37-9.91,2.85-3.19.82-4.71-3.54-2.64-6.73,3.19-9.16,4.81-13,8.63-6.67,6.67-4.67,9.16,3.16,3.92Zm-187-7.45c0-1.66-2.46-2.72-4.5-1.93-1.82.69-2,4-.25,4.64s4.75-1.08,4.75-2.71Zm42.09-10.37a13.19,13.19,0,0,1,2.15-5c1.57-1.81,3.31-13.21,2-13.21C437,248,431,263.41,431,269.11c0,2.56,3.48.08,4.1-2.92ZM319,267a1,1,0,0,0-1-1c-.55,0-1-.63-1-1.4s-2.81-2.86-6.25-4.65-7.83-4.22-9.75-5.42a60.82,60.82,0,0,0-8-3.93,27,27,0,0,1-6-3.09c-1.43-1.26-4-1.88-6.75-1.62s-1,3.76,3,6.37c2.34,1.5,6.72,4.71,9.75,7.12,7.3,5.81,26,11.29,26,7.62Zm69.33-35.8c.18-30.56-.13-33-3.66-28.5-3.29,4.19-3,38.11.45,55.23C387.23,268.38,388.15,260.71,388.33,231.19Zm65.37,5.6c7.92-3.42,12.41-9.07,8.05-10.12-5.26-1.27-20.75,6.2-20.75,10,0,1.71,8.8,1.8,12.7.12ZM277.55,193.26c-.4-6.46-1.36-13.27-2.14-15.13a29.85,29.85,0,0,1-1.41-9.2c0-3.2-.46-6.1-1-6.45-1.61-1,.37,29.78,2.59,40.27,1.49,7,2.66,1.44,2-9.49Z"/></svg>