<svg id="Publicdomainvectors.org" xmlns="http://www.w3.org/2000/svg" viewBox="0 0 600 600"><defs><style>.cls-1{fill:#231f20;}</style></defs><title>spider 14</title><path class="cls-1" d="M376.32,410.54l-53-5.55,32,9.08,22.24,120.56-3.93.86-25.1-115-27.21-7.72c14.45,7.95,24.73,28.18,24.73,51.89,0,30.64-17.17,55.49-38.34,55.49s-38.35-24.85-38.35-55.49c0-23.85,10.39-44.18,25-52l0-.12-29.81,8.46L239.39,536l-3.94-.86,22.24-120.56,32-9.08-53,5.54L173,546.92l-1.82-1.06,60-142.32,56.29-5.89-51.64-19-10.79-63.44,2.5-1.17,15.19,58.63,47.75,17.53L254,361.9,269.05,308l2.33.69-8.63,49.89,31.65,24.5c.34-1.09.71-2.14,1.11-3.14A13.61,13.61,0,0,1,291,370c0-6.71,5.13-12.34,12.06-13.92a10.88,10.88,0,0,0-4.72,9.31,11.82,11.82,0,0,0,2,6.7,10.27,10.27,0,0,1,7.36-3.57,9.77,9.77,0,0,1,6.47,2.72,12,12,0,0,0,1.48-5.85,10.88,10.88,0,0,0-4.73-9.31C317.86,357.61,323,363.24,323,370a13.42,13.42,0,0,1-3.52,9c.32.74.63,1.5.92,2.29l29.85-23.11-8.63-49.89,2.34-.68,15.09,53.88L322.51,389.7v0l47.68-17.51,15.2-58.63,2.5,1.17L377.1,378.2l-51.65,19,56.29,5.89,60.05,142.32L440,546.44Z"/><path class="cls-1" d="M459.86,190.58c.56-1.09.94-2.57.14-3.51-13.79-16.07-23.2-34.84-29.63-54.92-5.16-16.08-8.08-32.72-12.56-49L446.5,53.11l-1.75-2.93L414.51,80c-37.31-10.55-73.62-25.62-107-45.45a2.87,2.87,0,0,0-1.57-.43L305.2.83,301.89,0l-.24,36.59a187.25,187.25,0,0,1-45.56,24.73c-18.31,6.9-37.46,11.37-56.51,15.66l-.11,0L172.21,47.74l-3,1.58,27.21,31a.43.43,0,0,1,0,0c-6.13,40.5-24,77.84-44.84,112.74l-44.32,1-.83,3.31,44,.3c.06.12.12.24.19.36,6.19,9.91,12.53,19.69,18.2,29.91a321.65,321.65,0,0,1,23,51.88c1.77,5.18,3.38,10.41,4.88,15.67.48,1.68.75,3.9,1.36,5.77l-31.44,32.95,1.75,2.92,33-32.57c.71.2,1.43.35,2,.52,6.92,2.14,13.92,4,20.88,6.06,18.87,5.5,37.52,11.81,55.3,20.24a202.45,202.45,0,0,1,23.39,13,2.67,2.67,0,0,0,1.35.44l1,42.56,3.31.83.3-45.35c30.58-16.63,63.6-28,97.15-37l32.24,34.63,3-1.58-31.37-35.78a3.34,3.34,0,0,0,.33-1A209.72,209.72,0,0,1,429.28,240c7.63-15.78,17.16-30.49,27.3-44.74l46.61-1.09.83-3.31ZM424,135.66c6.27,19.89,15.57,38.72,28.94,54.78l-.07.1-48.19-.32c-11.13-14.83-24.78-50.41-23.54-66.65l.16-2.13,30.82-32.3c4.12,15.48,7.07,31.22,11.88,46.52m-107.77,54,20.35-21.32a48.67,48.67,0,0,0,8.79,21.51ZM341.94,198c-.22.43-.44.85-.68,1.29a78.29,78.29,0,0,0-7.34,17.42L318,198.51Zm9.5-10.27c-7.36-9.61-8.44-17.55-9.4-24.56l-.06-.48,31.53-33c1.42,17.74,11.74,44.75,21.77,60.55l-43.16-.28.28-.94ZM336.2,157.3c-10.87-3.55-17.56-7.2-27.65-13.14l-1.09-47a479.91,479.91,0,0,0,61.9,27.4Zm-27.48-5.89a124.06,124.06,0,0,0,22.56,10.75l-21.8,21.51Zm-42,39,.51-1c2.69-5.51,5.26-10.79,6.77-20.49l18.35,20.93Zm29.15,8.3-18.69,19.59a96,96,0,0,0-8.78-19.77Zm-16.51-35.89c8.95-2,15.47-4.35,21.46-8.91l-.21,31.73Zm21.52-17.11c-7.05,6.87-14.2,9.47-26.44,11.82l-32.26-34.63c24-6.73,42.29-14.24,59-24.28Zm-32.33,17c-1.18,12.35-3.82,17.77-6.87,24-.61,1.26-1.23,2.55-1.86,3.92l-46.56,1.08c6.8-10.84,23.09-37,25.7-62.73Zm-7.52,35.81a85.59,85.59,0,0,1,11.23,25l-30.52,32c-4.41-22-17-44.75-26.19-57.26Zm17.45,30c.6-.06,1.22-.09,1.85-.09,7.71,0,16.79,4.2,21.3,8.41l1,43.74c-13-9.49-31.21-16.5-55.37-21.28Zm23,.45a43.29,43.29,0,0,0-16.94-6.41L301,206.33Zm26.28-6.87a56,56,0,0,0-18.21,7.3l.17-26.67Zm-18.26,14.77a52.06,52.06,0,0,1,23.23-9.43l30.13,32.35a172.34,172.34,0,0,0-53.65,20.71Zm29.42-14.45c1.64-8.72,4.75-14.57,7.77-20.24.78-1.47,1.54-2.9,2.26-4.35l47.11-1.1c-15.52,20.64-23.91,38.44-27.85,59.11ZM408.4,86.05l-32.94,32.51a476.21,476.21,0,0,1-68.21-30.21l-1.07-45.72A454,454,0,0,0,408.4,86.05M258.1,67.35A194.89,194.89,0,0,0,301.6,44l-.3,45.6c-18.08,11.49-37.74,19.66-65,27L204.69,82.62C222.75,78.5,240.77,74,258.1,67.35M201.7,86.41l29.93,34.13v.34c.63,26.09-18.06,55.88-25.09,67.09-1.2,1.91-1.94,3.09-2.39,3.95L158.36,193c19.57-33.11,36.46-68.54,43.34-106.58M179.05,231.64c-6-11.66-12.91-22.71-19.85-33.8l46.55.31c8.16,9.56,25.88,38,29.35,64l0,.3-31.29,32.78a332.32,332.32,0,0,0-24.8-63.59m70.34,79.64c-13.84-4.72-28-8.31-41.95-12.65l33.21-32.78c28.83,5.15,49.13,13.17,62,24.52l.29.25L304,336.18c-17.08-10.54-35.63-18.43-54.61-24.9M308.86,336l.31-46.47C332.33,275,352.11,269.77,369,266.34l31.89,34.24c-31.75,8.76-63,19.83-92.05,35.42m115.26-98.82a214.62,214.62,0,0,0-19.49,60.13l-29.83-34,.11-.73c3.47-23.34,12.45-42.46,31-66l.09-.11,43.39-1a326.79,326.79,0,0,0-25.27,41.74"/></svg>