<svg id="svg2" xmlns="http://www.w3.org/2000/svg" viewBox="0 0 931.71 636.39"><defs><style>.cls-1{fill:none;stroke:#000;}</style></defs><title>web</title><g id="layer1"><path id="path3026" class="cls-1" d="M110.33,3.75,335.69,189.24l101.69,95.19L448.77,273,343.82,195.75l74-6.51,39.86,101.69-7.32,2.44-14.64-9.76-3.26,14.64-.81,13,5.7,21.15,11.39,21.15L471.55,356l18.71.81h25.22l22-8.14,13-17.89"/><path id="path3028" class="cls-1" d="M481.32,312.09l8.95-2.44,6.5.81,9,3.26,79.73,26.84L714,373.92l100.88,20.34,96.82,15.46"/><path id="path3030" class="cls-1" d="M474,299.08l139.12-3.25,109-8.95L929.6,257.59"/><path id="path3032" class="cls-1" d="M923.08,259.21l-35,146.44"/><path id="path3034" class="cls-1" d="M895.42,262.47l-26,53.7-29.29,81.35"/><path id="path3036" class="cls-1" d="M869.39,313.72l-4.89-29.29L832,251.08"/><path id="path3038" class="cls-1" d="M866.13,282.81l9-17.9"/><path id="path3040" class="cls-1" d="M839.28,400l-30.11,61-17.89,11.39"/><path id="path3042" class="cls-1" d="M809.18,461.79l-2.44,16.27"/><path id="path3044" class="cls-1" d="M888.91,408.91l-61.84,61.83-15.45,8.95"/><path id="path3046" class="cls-1" d="M823.83,473.18l6.5,26"/><path id="path3048" class="cls-1" d="M898.67,541.52l-108.2-70L539.89,348.7l-35-23.59-14.64-12.2"/><path id="path3050" class="cls-1" d="M481.32,315.35,496,330l85.42,105.76,91.12,88.68L692,539.89l73.22,71.59"/><path id="path3052" class="cls-1" d="M552.91,296.64,558.6,330"/><path id="path3054" class="cls-1" d="M577.32,335.69l3.25-37.42-17.08-33.36-35-16.27-17.9-11.39"/><path id="path3056" class="cls-1" d="M528.5,249.45l26,47.19"/><path id="path3058" class="cls-1" d="M478.88,289.31l13.83-4.88,118.78-68.34"/><path id="path3060" class="cls-1" d="M556.17,247l6.5,5.69,3.26-8.94"/><path id="path3062" class="cls-1" d="M562.67,251.89v13"/><path id="path3064" class="cls-1" d="M578.94,236.43l33.35,57.76"/><path id="path3066" class="cls-1" d="M593.59,228.3l-4.07,23.59"/><path id="path3068" class="cls-1" d="M612.3,295.82l9.76,43.93-7.32,8.14,4.06,10.57,8.14-11.39-4.88-8.95"/><path id="path3070" class="cls-1" d="M684.71,291.75l-56.14,53.7"/><path id="path3072" class="cls-1" d="M635.89,293.38l3.25,39.86,8.14,22"/><path id="path3074" class="cls-1" d="M640,338.13,657,330.81,664.36,308l-2.44-11.39-4.07-5.7"/><path id="path3076" class="cls-1" d="M657.05,331.62l8.13,28.48"/><path id="path3078" class="cls-1" d="M691.22,289.31l-7.33,74.85"/><path id="path3080" class="cls-1" d="M705.86,290.13l-41.5,69.15"/><path id="path3082" class="cls-1" d="M718.88,289.31v68.34l3.25,15.46"/><path id="path3084" class="cls-1" d="M718.06,356.84l-13.83,13.83"/><path id="path3086" class="cls-1" d="M744.1,286.87l-6.51,88.68"/><path id="path3088" class="cls-1" d="M743.28,304.77,761.17,282"/><path id="path3090" class="cls-1" d="M782.33,277.92l8.95,28.48,17.89,13L801.85,356,764.43,384.5"/><path id="path3092" class="cls-1" d="M782.33,386.94,801.85,356l.81,26.85L788,395.07Z"/><path id="path3094" class="cls-1" d="M804.3,381.25l9,11.39-24.41,30.92-20.34.81L788,393.45"/><path id="path3096" class="cls-1" d="M769.32,458.53,788,421.92"/><path id="path3098" class="cls-1" d="M770.13,419.48l-18.72,20.34-3.25,10.57"/><path id="path3100" class="cls-1" d="M738.4,446.33l13-8.14"/><path id="path3102" class="cls-1" d="M744.1,441.45,762,382.87"/><path id="path3104" class="cls-1" d="M707.49,430.87l49.62-37.42"/><path id="path3106" class="cls-1" d="M722.13,374.74,723.75,391,708.3,430.88"/><path id="path3108" class="cls-1" d="M724.57,391l13-16.27"/><path id="path3110" class="cls-1" d="M644.84,347.08V352l-9.77,43.12"/><path id="path3112" class="cls-1" d="M644,398.33l19.52-37.42L655.42,404"/><path id="path3114" class="cls-1" d="M666,409.72l4.88-5.69,1.62-40.68"/><path id="path3116" class="cls-1" d="M672.5,373.92l9.76-8.14"/><path id="path3118" class="cls-1" d="M670.88,400.77v10.58"/><path id="path3120" class="cls-1" d="M622.88,388.57l4.88-35.8"/><path id="path3122" class="cls-1" d="M619.62,356l-17.9,41.49-29.29,27.66"/><path id="path3124" class="cls-1" d="M556.17,403.21l18.71-22.78,4.07-12.2,6.5-5.7,4.07,9.76-13,10.58"/><path id="path3126" class="cls-1" d="M585.45,361.72l.81-19.52"/><path id="path3128" class="cls-1" d="M587.08,351.14l9.76-8.95-9-45.56"/><path id="path3130" class="cls-1" d="M471.56,283.62,630.2,79.42l48-75.66"/><path id="path3132" class="cls-1" d="M475.62,290.13,509,236.43l61-48.81,18.71-22.78,70.78-131"/><path id="path3134" class="cls-1" d="M611.49,216.91,692,163.21,813.25,72.09,888.09,4.56l22,69.16"/><path id="path3136" class="cls-1" d="M928.78,254.33,910.06,78.6V68.84"/><path id="path3138" class="cls-1" d="M860.44,2.13l-5.7,95.19,40.68,165.15"/><path id="path3140" class="cls-1" d="M830.1,56.78,854.93,98.6"/><path id="path3142" class="cls-1" d="M810.05,74.44l-13.88,39.15,9,58.58,32.54,96"/><path id="path3144" class="cls-1" d="M787.22,93.25,796,114"/><path id="path3146" class="cls-1" d="M767.69,108.7l31.73,24.41"/><path id="path3148" class="cls-1" d="M791.28,85.92,731.89,2.13"/><path id="path3150" class="cls-1" d="M668.24,18.59l12.4,29.1L727,91.62l24.41,26"/><path id="path3152" class="cls-1" d="M729.45,90.81,776.63,99"/><path id="path3154" class="cls-1" d="M640.78,62.33l30.91,23.59,4.88,22,41.49,37.42"/><path id="path3156" class="cls-1" d="M671.49,85.31,678.4,42.4"/><path id="path3158" class="cls-1" d="M611.28,104.84l38.44,29.09,23.59,34.16L672.5,177l11.39,3.26-4.88-13-5.7-2.44"/><path id="path3160" class="cls-1" d="M626.13,84.3,636.7,98.13l11.39,33.36"/><path id="path3162" class="cls-1" d="M624.1,115.42l51.66-9.56"/><path id="path3164" class="cls-1" d="M631.83,76.57l4.47,20.34"/><path id="path3166" class="cls-1" d="M703.42,153.86l-1.63,41.08L736,274.67"/><path id="path3168" class="cls-1" d="M736,282.81V271.42l13,11.39"/><path id="path3170" class="cls-1" d="M718.06,145.31l26,22.78,6.51-48.81"/><path id="path3172" class="cls-1" d="M736.78,131.48l-.82-.81"/><path id="path3174" class="cls-1" d="M746.54,142.06l-11.39-12.2"/><path id="path3176" class="cls-1" d="M744.91,166.47l37.42,113.08"/><path id="path3178" class="cls-1" d="M792.91,277.11l13,15.46,4.07,26,25.22-60.2"/><path id="path3180" class="cls-1" d="M812.44,273l-6.51,18.71"/><path id="path3182" class="cls-1" d="M688,165.65l3.25,18.71"/><path id="path3184" class="cls-1" d="M683.08,178.67l19.52,15.46"/><path id="path3186" class="cls-1" d="M647.28,194.13l32.54,64.27,4.88,30.1"/><path id="path3188" class="cls-1" d="M681.45,256.77l31.73,30.1"/><path id="path3190" class="cls-1" d="M626.13,208l.81,18.71,29.28,65.9"/><path id="path3192" class="cls-1" d="M615.56,215.28,627,227.48"/><path id="path3194" class="cls-1" d="M616.37,213.65l-1.63-13,12.2,7.33"/><path id="path3196" class="cls-1" d="M613.93,199l-22.78-23.59-16.27-22.78"/><path id="path3198" class="cls-1" d="M561.86,171.35l30.92,7.32"/><path id="path3200" class="cls-1" d="M551.28,182.74l9.76.81,12.21-9.76"/><path id="path3202" class="cls-1" d="M561.86,181.92l.81,21.15,14.64,33.36"/><path id="path3204" class="cls-1" d="M562.67,203.08l-21.16-7.32"/><path id="path3206" class="cls-1" d="M545.59,189.25l-62.65-21.16"/><path id="path3208" class="cls-1" d="M479.69,197.38l48.81,13.83"/><path id="path3210" class="cls-1" d="M475.62,225.86l30.91,13"/><path id="path3212" class="cls-1" d="M469.93,271.42,507.35,4.57"/><path id="path3214" class="cls-1" d="M523.62,2.13l88.67,65.09,37.43-16.28"/><path id="path3216" class="cls-1" d="M610.67,67.21,576.5,116.84l-2.44,7.32,10.57,11.39"/><path id="path3218" class="cls-1" d="M600.91,115.21l-27.66,9-67.53-5.69"/><path id="path3220" class="cls-1" d="M410.54,121.72l82.16-13.83h-.81l14.65,9"/><path id="path3222" class="cls-1" d="M510.61,119.28l-17.9,3.25-29.29,13.83-35,1.63-18.72-16.27L430.06,112,500,48.5"/><path id="path3224" class="cls-1" d="M350.33,5.38l61.84,122.85,57.76,146.44"/><path id="path3226" class="cls-1" d="M410.54,122.53l-2.44,33.36-63.46,31.73H334.06"/><path id="path3228" class="cls-1" d="M344.64,188.43l-4.07,3.25"/><path id="path3230" class="cls-1" d="M382.88,169.72l31.73,6.51,4.06-31.73,8.14-7.32"/><path id="path3232" class="cls-1" d="M464.23,137.18l22,4.07"/><path id="path3234" class="cls-1" d="M405.66,159.14l12.2,30.92"/><path id="path3236" class="cls-1" d="M386.13,237.25l8.13-6.51,30.1-6.51,17.9-19.52"/><path id="path3240" class="cls-1" d="M442.27,206.33l38.23-9.76"/><path id="path3242" class="cls-1" d="M475.62,229.92,456.9,244.56H438.19"/><path id="path3244" class="cls-1" d="M435.76,234.81l-25.22,8.95-9,7.32"/><path id="path3246" class="cls-1" d="M421.93,269.79l13-8.14,10.58-2.44"/><path id="path3248" class="cls-1" d="M524.44,215.28l25.22,35"/><path id="path3250" class="cls-1" d="M604.17,395.89l18.71-7.32"/><path id="path3252" class="cls-1" d="M630.82,393.11c-9.22,14.86-24.61,26.64-38.05,39.39l-13.07,1.1"/><path id="path3254" class="cls-1" d="M593.59,432.5l-4.89,8.14L579.47,443l1-8.9"/><path id="path3256" class="cls-1" d="M579.76,443.08,570,448l-26,4.88-21.15-5.69"/><path id="path3258" class="cls-1" d="M605,458.53l48-33.36,4.88-17.89"/><path id="path3260" class="cls-1" d="M653,421.11l26-3.25"/><path id="path3262" class="cls-1" d="M656.23,411.35l11.39,7.32"/><path id="path3264" class="cls-1" d="M665.18,410.53l-3.25,8.14"/><path id="path3266" class="cls-1" d="M628.57,480.5l56.94-59.39"/><path id="path3268" class="cls-1" d="M677.39,431.69l25.22-1.63"/><path id="path3270" class="cls-1" d="M574.06,422.74,759.55,468.3"/><path id="path3272" class="cls-1" d="M784.78,468.3l-26-.81-23.59,8.95-38.24,30.91-12.2,11.39-4.07,8.14"/><path id="path3274" class="cls-1" d="M661.93,512.23l37.42-9.76"/><path id="path3276" class="cls-1" d="M738.4,475.62l-4.07-32.54"/><path id="path3278" class="cls-1" d="M737.59,467.48l8.95-17.09"/><path id="path3280" class="cls-1" d="M765.25,458.53l-6.51,9.76"/><path id="path3282" class="cls-1" d="M759.56,455.28v11.39"/><path id="path3284" class="cls-1" d="M805.93,479.69l-4.07,14.64-76.48,32.55-86.23-20.34"/><path id="path3286" class="cls-1" d="M704.23,548l19.52-23.59,175.73,17.89"/><path id="path3288" class="cls-1" d="M831.15,500.84l-78.92,38.24-34.17,24.4"/><path id="path3290" class="cls-1" d="M722.94,525.25l80.54,30.92,117.15,41.49"/><path id="path3292" class="cls-1" d="M931.22,526.87l-33.36,14.64-29.29,35-53.69,18.71L807.55,609"/><path id="path3294" class="cls-1" d="M807.56,613.11l-41.5-3.25"/><path id="path3296" class="cls-1" d="M750.61,596.84l64.27-47.19,35-17.89,5.7-17.08"/><path id="path3298" class="cls-1" d="M849.86,530.94l27.66-3.25"/><path id="path3300" class="cls-1" d="M482.13,312.91l2.44,25.22,13,47.19,22,100.88,27.66,26L618,619.62"/><path id="path3302" class="cls-1" d="M496.78,385.31l40.67,85.42,10,41"/><path id="path3304" class="cls-1" d="M555.35,522.81,592,529.32l30.1-9,25.22-21.15"/><path id="path3306" class="cls-1" d="M622.06,520.36l44.74-.81"/><path id="path3308" class="cls-1" d="M648.91,517.92l5.69-13"/><path id="path3310" class="cls-1" d="M626.13,479.69l-13-1.63-57.76,12.21-35.8-13"/><path id="path3312" class="cls-1" d="M554.59,490.5,545,502"/><path id="path3314" class="cls-1" d="M472.78,399.75l35.39,1.83,36.61-9.76,17.08,4.88-1.63,8.95-13.83,8.13-19.53,4.88-22.78-3.25-22.78,12.2"/><path id="path3316" class="cls-1" d="M473.18,321l-.82,100.88L458.53,591.14"/><path id="path3318" class="cls-1" d="M460.17,325.11l-9.77,49.63-17.08,76.47-28.2,136.52"/><path id="path3320" class="cls-1" d="M399,584.71l25.41-112.35L439,416.22l15.46-65.89"/><path id="path3322" class="cls-1" d="M448.78,325.11l-7.33,36.61-5.69,73.22"/><path id="path3324" class="cls-1" d="M452,351.14,384.5,507.34l-35.79,47.09"/><path id="path3326" class="cls-1" d="M383.64,507.73l-25,55.7"/><path id="path3328" class="cls-1" d="M408.91,456.91l-21.16,75.66-17.62,37.92"/><path id="path3330" class="cls-1" d="M389.39,528.5,390.2,580"/><path id="path3332" class="cls-1" d="M379.62,229.92l-31.73,49.63,3.25,10.57L349.51,321l-4.88,10.57,8.14,25.22,10.57,27.67,13.83,22,9.77-1.63,32.74,20.75,23.39-19.12,29.29-6.71"/><path id="path3334" class="cls-1" d="M377.18,405.65,373.35,414"/><path id="path3336" class="cls-1" d="M446.33,347.89l-91.12,82.17-19.53,24.41-45.56,22.78-57,41.49"/><path id="path3338" class="cls-1" d="M386.13,466.67l24.4,21.15L468.3,500l19.52-17.9,30.92-4.88"/><path id="path3340" class="cls-1" d="M473.18,424.36l9.76,2.44,4.88,16.27,11.39,35.8"/><path id="path3342" class="cls-1" d="M408.1,454.47l15.45,10.58,16.28-2.44,17.08,5.69,40.68-8.14,15.46-6.5,2.44-10.58-.82-16.27h9.77l8.13-8.95,39,6.51"/><path id="path3344" class="cls-1" d="M469.93,443.08l12.2-16.27"/><path id="path3346" class="cls-1" d="M471.56,456.09l15.45-13,21.16-4.88,14.64,3.26V426"/><path id="path3348" class="cls-1" d="M472.37,410.74l22.17-9.56"/><path id="path3350" class="cls-1" d="M491.08,422.74,514.67,426"/><path id="path3352" class="cls-1" d="M514.67,444.7l9.76.81"/><path id="path3354" class="cls-1" d="M516.3,461.79l16.27-1.63,12.2-9.76"/><path id="path3356" class="cls-1" d="M570.81,448,596,450.4"/><path id="path3358" class="cls-1" d="M605,457.72l-65.9,13"/><path id="path3360" class="cls-1" d="M642.4,399.14l-27.66,78.92-26,51.25L578.13,557"/><path id="path3362" class="cls-1" d="M559.46,531.52l16.23,4.31L585.3,528"/><path id="path3364" class="cls-1" d="M574.88,535.82l-5,11.49"/><path id="path3366" class="cls-1" d="M463.42,557.79l63.45-21.15,88.68-45.56,13-12.21"/><path id="path3368" class="cls-1" d="M403.22,252.7l-17.9,30.92,8.13,32.54"/><path id="path3370" class="cls-1" d="M391.83,269h.81l-22,16.27"/><path id="path3372" class="cls-1" d="M363.35,283.62l.81,36.61"/><path id="path3374" class="cls-1" d="M463.42,531.75l47.18-43.12v-5.69l6.51-4.89"/><path id="path3376" class="cls-1" d="M500.84,478.87l9,4.88"/><path id="path3378" class="cls-1" d="M509.79,488.64l8.95-3.25"/><path id="path3380" class="cls-1" d="M465.24,505.15l12.82,12.25"/><path id="path3382" class="cls-1" d="M461,530.94l-56.14-10.58-8.95-18.71"/><path id="path3384" class="cls-1" d="M390.2,524.43l16.27-4.88-28.72-3.44"/><path id="path3386" class="cls-1" d="M383.69,509.79l2.44-7.32-9.77-18.71L360.91,468.3l-10.58-4.88-35,2.44"/><path id="path3388" class="cls-1" d="M329.18,459.35l15.12,4.26"/><path id="path3390" class="cls-1" d="M337.27,452.26l15.64,12"/><path id="path3392" class="cls-1" d="M369.52,417.57l40.2,31.2"/><path id="path3394" class="cls-1" d="M415.42,434.94l55.32,1.63"/><path id="path3396" class="cls-1" d="M362.54,469.11l39.86-3.25,20.34-1.63"/><path id="path3398" class="cls-1" d="M455.19,468l12.3,15.79,17.76.53"/><path id="path3400" class="cls-1" d="M298.27,472.36l65.08,41.49,15.46,2.44"/><path id="path3402" class="cls-1" d="M360.1,511.42l17.47,62"/><path id="path3404" class="cls-1" d="M348.71,202.26l-23.6,50.44-5.69,17.9L317,303.14l-.82,12.2,3.26,4.07.81,9.76,4.07,7.33.81,13.83,6.51,10.57,30.67,21.63"/><path id="path3406" class="cls-1" d="M384.84,346l-8.14-21,.91-8"/><path id="path3408" class="cls-1" d="M357.66,317.79c-2.67,10.49,1.33,23.54,3.25,35.8"/><path id="path3410" class="cls-1" d="M448.78,323.48l-13,8.95-144,39.86L234,382.06"/><path id="path3412" class="cls-1" d="M452,312.91l-178.17,8.95-40.68-5.7"/><path id="path3414" class="cls-1" d="M455.28,304.77,282.81,263.28,234,244.57,37.93,150.2"/><path id="path3416" class="cls-1" d="M209.59,229.92l26.84-30.1,20.34-45.56-4.88-32.54"/><path id="path3420" class="cls-1" d="M256,153.45l21.15-10.58"/><path id="path3422" class="cls-1" d="M236.44,201.45l-4.89,43.93,16.28,20.34v34.17l7.32,19.53v18.71l8.13,15.46,6.51,22.78"/><path id="path3424" class="cls-1" d="M247.92,300.08l-6.61,14.45,3.26,14.65,10.57,9.76"/><path id="path3426" class="cls-1" d="M225.86,316.64l3.25,7.65,18.71,6.51"/><path id="path3428" class="cls-1" d="M243.71,324.35,208,287.69l-4.06-23.59,1.62-12.21,4.07-19.52"/><path id="path3430" class="cls-1" d="M215.28,225.86l4.06,8.95-10.57,8.13-4.88-13Z"/><path id="path3432" class="cls-1" d="M191.69,225l12.2,33.36"/><path id="path3434" class="cls-1" d="M248.64,264.91l13.83-9.76"/><path id="path3436" class="cls-1" d="M252.71,261.65,242.94,247"/><path id="path3438" class="cls-1" d="M261.66,256l10.57,21.15.82,30.92-11.88,11.82"/><path id="path3440" class="cls-1" d="M273.05,319.42v-12.2l11.39,24.4,13.83,38.24"/><path id="path3442" class="cls-1" d="M308,366.6,301.52,356l-11.39-26.84L294.2,321"/><path id="path3444" class="cls-1" d="M290.18,329l-1.68-7.13"/><path id="path3446" class="cls-1" d="M293.67,320.57l3-5.22,4.07,5.7"/><path id="path3448" class="cls-1" d="M296.31,315.54l2-10-5.7-27.66-4.88-15.45"/><path id="path3450" class="cls-1" d="M294.2,278.74l4.88-11.39"/><path id="path3452" class="cls-1" d="M272.23,259.21V276.3l7.32-15.46"/><path id="path3454" class="cls-1" d="M339.76,275.48l-6.56,42.89"/><path id="path3456" class="cls-1" d="M330.81,319.42l.81,10.58-7.42,7.08"/><path id="path3458" class="cls-1" d="M320,328.75l-9.62-8.52"/><path id="path3460" class="cls-1" d="M364.17,352l10,5.64"/><path id="path3462" class="cls-1" d="M379.43,348l-5.27,9.8,20.11,38.11"/><path id="path3464" class="cls-1" d="M294.2,372.3l61,58.58"/><path id="path3466" class="cls-1" d="M237.25,382.87l4.06,26,45.56,67.53"/><path id="path3468" class="cls-1" d="M269,451.21l-3.26,22,20.34,2.44"/><path id="path3470" class="cls-1" d="M250.27,464.23l17.89,10.58,4.07,13-11.39-1.62Z"/><path id="path3472" class="cls-1" d="M250.55,464.61l-32-35.36L198.19,400l5.7-9.77"/><path id="path3474" class="cls-1" d="M259.22,483.75l3.25,12.2,49.63,38.24,32.54,8.95,26-3.25L389.39,544,413,561l44.74,13.83"/><path id="path3476" class="cls-1" d="M461,561l34.17,10.58"/><path id="path3480" class="cls-1" d="M493.52,570.81,522,574.88l30.1-1.63,22-19.52"/><path id="path3482" class="cls-1" d="M163.22,242.13l12.2,56.14-7.32,8.13,8.13,17.9,7.32,35.8,6,26"/><path id="path3484" class="cls-1" d="M175.32,297.88l6.6,11.78-6,13.54"/><path id="path3486" class="cls-1" d="M207.58,286.44l-10.2,25.65,11.39,17.09,6.51,43.12v13.83"/><path id="path3488" class="cls-1" d="M216.91,373.92,228.3,384.5"/><path id="path3490" class="cls-1" d="M208.78,330V288.5L225.86,317,221,355.21l11.39,26.85-126.92,12.2-56.95.81"/><path id="path3492" class="cls-1" d="M39.55,289.31,50.13,395.89v39.86l-12.21,35.8"/><path id="path3494" class="cls-1" d="M328.37,458.53l-310-26.84"/><path id="path3496" class="cls-1" d="M327.56,596l-108.2-66.71.81-17.9L143.69,400,125,391,68.85,282l.81-15.46L52.58,223.41"/><path id="path3498" class="cls-1" d="M152.64,524.43l-4.07-70.78L108.7,394.26"/><path id="path3500" class="cls-1" d="M98.13,393.45l8.13-10.58L95.69,330l-13-50.44-12.2-12.2"/><path id="path3502" class="cls-1" d="M38.74,289.31l35.79-10.58,62.65,22L233.56,316"/><path id="path3504" class="cls-1" d="M234,518.74l-122,87"/><path id="path3506" class="cls-1" d="M50.94,436.57,272.23,626.13"/><path id="path3508" class="cls-1" d="M220.69,431.78l-41.21-20.43-24.4-29.29-1.49-48.43-20.48-33.74"/><path id="path3510" class="cls-1" d="M118.47,292.57l-1.63-35.8-8.14-71.59"/><path id="path3512" class="cls-1" d="M163.22,47.69l4.88,30.1-26,96-24.4,13.83"/><path id="path3514" class="cls-1" d="M142.06,174.6l2.44,13.83,29.28,4.07,8.95,26"/><path id="path3516" class="cls-1" d="M155.08,205.52l16.27-3.25,13.83-48.82-2.44-68.34-17.09-22"/><path id="path3518" class="cls-1" d="M172.17,68l17.89,3.25-7.32,14.65,18.71-9"/><path id="path3520" class="cls-1" d="M212.84,88.36l-4.07,21.15,17.08-11.39"/><path id="path3522" class="cls-1" d="M208,107.08l-23.6,47.19"/><path id="path3524" class="cls-1" d="M131.49,194.94l15.45-8.14"/><path id="path3526" class="cls-1" d="M83.49,171.35l1.62-8.14,9.77,13"/><path id="path3528" class="cls-1" d="M84.3,162.4l-4.07-15.46L77.79,14.33,93.25.5"/><path id="path3530" class="cls-1" d="M67.22,164l13-17.08"/><path id="path3532" class="cls-1" d="M52.57,224.23l14.64-41.49L68,163.21"/><path id="path3534" class="cls-1" d="M51.76,156.7l7.32,18.71,4.35,17.14"/><path id="path3536" class="cls-1" d="M111.15,212.84l6.5-6.51.82-15.46"/><path id="path3538" class="cls-1" d="M129.86,195.75l9.76,10.58v-6.51"/><path id="path3540" class="cls-1" d="M139.62,206.33,151,237.25l10.57,3.25.82-16.27-10.58-18.71"/><path id="path3542" class="cls-1" d="M165.66,204.7l-3.26,24.41,15.46-12.21"/><path id="path3544" class="cls-1" d="M203.08,265.72,59.89,177.86"/><path id="path3546" class="cls-1" d="M39.12,151.16,16.38,132.49"/><path id="path3548" class="cls-1" d="M.5,56.64,38.74,291.75"/><path id="path3550" class="cls-1" d="M10.11,115,52.57,225.86"/><path id="path3552" class="cls-1" d="M151,239.69l-4.07,60.2,34.79,52"/><path id="path3554" class="cls-1" d="M117.66,283.62l-9,6.51"/><path id="path3556" class="cls-1" d="M365.79,220.16l.81,27.66"/><path id="path3558" class="cls-1" d="M258.5,319.75l4.78,17.56L258.4,378"/><path id="path3560" class="cls-1" d="M263.09,337l10-18"/><path id="path3562" class="cls-1" d="M217.72,384.5l24.4,22.78"/><path id="path3564" class="cls-1" d="M203.89,390.2l11.39-4.88"/><path id="path3566" class="cls-1" d="M189.25,386.13l13,9.76"/><path id="path3568" class="cls-1" d="M177.05,387.75,198.2,400"/><path id="path3572" class="cls-1" d="M408.91,167.28l7.32-14.64"/><path id="path3574" class="cls-1" d="M557.79,121.72,577.31,116"/><path id="path3576" class="cls-1" d="M310.47,535l27.66,47.19"/><path id="path3578" class="cls-1" d="M295,635.89l56.13-77.29-11.39-15.46"/><path id="path3580" class="cls-1" d="M351.15,559.42l61-.81,51.26-17.9-17.9-13"/><path id="path3582" class="cls-1" d="M458.54,585.45l30.91-14.64"/><path id="path3584" class="cls-1" d="M582.2,562.67,641.59,557l40.67,4.88,12.21-20.34"/><path id="path3586" class="cls-1" d="M689.59,549.65l10.57-.81"/><path id="path3588" class="cls-1" d="M645.66,518.74,631,538.27,634.27,557"/><path id="path3590" class="cls-1" d="M629.39,537.45l-18.91-13.78"/><path id="path3592" class="cls-1" d="M620.44,558.6,635.89,583"/><path id="path3594" class="cls-1" d="M593.59,582.2l41.49-.81,57.76-9.77,9.76.82,13.83-9"/><path id="path3596" class="cls-1" d="M683.89,561.86l30.91,26L740,600.1l12.2-4.07"/><path id="path3598" class="cls-1" d="M701,619.62l21.15-28.47"/><path id="path3600" class="cls-1" d="M731.08,592.77l4.88-8.14,22.78,5.7"/><path id="path3602" class="cls-1" d="M751.42,597.65,702.6,618.8"/><path id="path3604" class="cls-1" d="M634.27,583,589.52,606.6l-59.39-32.54"/><path id="path3606" class="cls-1" d="M578.13,557.79l-18.72,63.46"/><path id="path3608" class="cls-1" d="M460.17,568.36l153,56.14"/><path id="path3610" class="cls-1" d="M457.72,590.33l-4.07,42.3"/><path id="path3612" class="cls-1" d="M349.52,558.6,456.1,616.36"/><path id="path3614" class="cls-1" d="M466.13,265.47l-17.55,7.77,24.45,4L491.44,285l1.72,6.9,13.23,22.15-.86,11.22-7.76,8.34-14.67,2.59-9.78,4H457.21l-4.89-6.33-6-7.48,2.59-12.66,7.48-11.5"/><path id="path3616" class="cls-1" d="M445.71,340.83l7.76-5.75,6-12.08"/><path id="path3618" class="cls-1" d="M473,327l-19.85.58-4.6-2.88L440.25,317h7.47"/><path id="path3620" class="cls-1" d="M440.82,317l-8.63-2.59"/><path id="path3622" class="cls-1" d="M449.45,310.34l-4.32-6.62,4.32-11.21,9.49,10.93"/><path id="path3624" class="cls-1" d="M474.47,239.3l-19.28,60.4"/><path id="path3626" class="cls-1" d="M457.5,291.36l9.2,8.63"/><path id="path3628" class="cls-1" d="M450.89,273.52,471,300"/><path id="path3630" class="cls-1" d="M471.6,283l-12.09,13.52"/><path id="path3632" class="cls-1" d="M476.2,289.63l-9.5,8.92"/><path id="path3634" class="cls-1" d="M479.36,290.21l-3.46.58L471,304"/><path id="path3636" class="cls-1" d="M486.56,300l4.31,13.23,2-13.52"/><path id="path3638" class="cls-1" d="M494.9,299.7l10.06,25"/><path id="path3640" class="cls-1" d="M499.21,314.08l-2.31,5.47-9.49,5.17-3.45,4"/><path id="path3642" class="cls-1" d="M476.78,329.33l11.5-13.24"/><path id="path3644" class="cls-1" d="M487.13,317.25l10.06-9.2"/><path id="path3646" class="cls-1" d="M480.51,288.77l12.65,11.51"/><path id="path3648" class="cls-1" d="M488,295.67l5.17-4-13.8-2.3"/><path id="path3650" class="cls-1" d="M482.82,287.33l-21-6.9"/><path id="path3652" class="cls-1" d="M469.87,270.65l-6,19.85"/><path id="path3654" class="cls-1" d="M469.58,273.52l8.05,13.23"/><path id="path3656" class="cls-1" d="M473.61,321.85l-3.74-18.12"/><path id="path3658" class="cls-1" d="M467,299.7l8.63,7.19,6,5.75"/><path id="path3660" class="cls-1" d="M481.09,316.09l-10.64-11.5"/><path id="path3662" class="cls-1" d="M472.75,327l11.5,1.15L503.81,327"/><path id="path3664" class="cls-1" d="M475.34,327.31l8.63,8.92"/><path id="path3666" class="cls-1" d="M482,316.67,473,327"/><path id="path3668" class="cls-1" d="M476.49,319.55,471,305.17l-10.93,21"/><path id="path3670" class="cls-1" d="M458.65,323.86l11.21-18.12-19,7.48"/><path id="path3672" class="cls-1" d="M458.37,303.15,469.3,306"/><path id="path3674" class="cls-1" d="M466.42,298.84l-8.63,11.22,2.87,11.22,11.8-1.15,8.05-8.63,2.3-12.66L474.18,294Z"/><path id="path3676" class="cls-1" d="M474.19,299.12l1.43,8.05-3.16,3.74-6,2-2.3-3.74,1.44-10.07Z"/><path id="path3678" class="cls-1" d="M456.07,303.15l4.31-6v-1.44"/><path id="path3680" class="cls-1" d="M449.16,325l8.63-14.09"/><path id="path3682" class="cls-1" d="M451.18,313.51l1.15,5.18,8.91,2.59"/><path id="path3684" class="cls-1" d="M476.78,319.55l1.15,10.07"/><path id="path3686" class="cls-1" d="M481.38,313.79l1.72-14.67"/><path id="path3688" class="cls-1" d="M487.13,301.43l-8.92-11.5"/><path id="path3690" class="cls-1" d="M514.46,239.3l28.47.86"/><path id="path3692" class="cls-1" d="M285.21,150.13h19.55l1.16,15"/><path id="path3694" class="cls-1" d="M303.62,149l52.92-92,9.21-19.56"/><path id="path3696" class="cls-1" d="M354.24,54.63,373.79,50"/><path id="path3698" class="cls-1" d="M388.76,76.49l115.05-38"/><path id="path3317" class="cls-1" d="M153.62,333.21l19.55,5.9"/><path id="path3319" class="cls-1" d="M155.49,381.39l-7.19,2.3,2.87,6"/><path id="path3321" class="cls-1" d="M148.44,383.26l-42.28-29.2"/><path id="path3323" class="cls-1" d="M338.28,318.4l6.32,13.52"/></g></svg>