<svg id="svg5894" xmlns="http://www.w3.org/2000/svg" viewBox="0 0 675.9 870.81"><defs><style>.cls-1{stroke:#000;stroke-linejoin:round;stroke-width:0.6px;}.cls-2{fill:#fff;}.cls-3{fill:#999;}</style></defs><title>father-daughter</title><g id="layer1"><path id="path6135" class="cls-1" d="M261.92,21c5.56.6,12,2.86,18,4.06,10.08,5.56,26,.75,32.94,11-.6,6.92-6.17,11.73-10.38,17.14,4.51,8,7.37,15,12.33,23a252.32,252.32,0,0,0,29-19.55L354.1,60.4c.91,3.76-4.06,3.15-6,2.25-2.41-3.46-5.42.45-7.67,1.66-1.66,5-8.27,3.3-11.43,7.22-2.56,2.55-7.67,4.51-11.28,6.16-1.35.9-2.56,3-1.35,4.36l1.2,1.36C330,75.28,346,68.07,361.32,72.88c3,2,4.21,4.06,6.92,6.76l-.6.31c5.71,11,9.47,21.5,6.46,35.18-8.72,14.14-19.85,28.87-36.84,32.94-3.61,0-7.82-.15-9.62-2.86-2.86,27.67-6.62,55-25.57,75.18-22.1,19.55-54.88,17.3-82.25,20.3-1.81,3.61.15,8.88.15,13.69,1.35,8,1.5,18.8.75,27.67,7.22,3.31,16.54,6.76,16.84,15.34,6.76,7.51,3.91,20.75,15.94,24.05,14.13,10.38,28.12,20,40,32.49,18.8,18.79,41.65,28.72,62.56,42.55,13.68-4.81,28.41,2,41.5,6a3.65,3.65,0,0,1,4.06.15c4.66-7.22,8.27-21.35,20.15-19.1,6.46-1.5,13.68,2.11,18.94,7.07,1.51,4.36,5,7.67,6.17,11.88,16.09-15.64,33.23-35.64,57.89-32.63,9.77-.3,19.7,5.56,29.63,2.85-.15,3.16,3.9,2.56,5.86,3.61,19.25-1.05,30.83,13.84,42.26,28.12,3-11.73,4.06-31.28,21.2-32.78a18.45,18.45,0,0,1,16.54,6.62c10.83,18.49,10.68,39.55,11.73,62.26.91,2.25,3.91,1.65,5.11,1.05,12.79-7.37,13.69-20.61,20.61-31,14.13,7.06,7.07,23,6.46,35.19-.3,7.36-2.4,15.64-6.76,22.25a31.36,31.36,0,0,1-21.51,4.36c-17.29-4.81-23.76-22.25-39.25-31.42,0,22.7,6.17,51.42-9.32,70.67-2.86,6.92-11.13,13.23-17.29,15C558.16,535.88,546,543.4,531.84,546c11.13,14.28,20.45,30.37,28.43,46.31,13.53,3.61,19.09,18.05,27.36,27.52,11.43,18.2,19,39,29,57.3,2.4-2.86,1.05-7.37,1.5-10.83,3.46-6.92,8.72-16.54,17.59-15.49,2.41.3,2.86,3.76,4.06,5.71,7.22-8.11,12.78-22.4,26.17-20.75,10.53,8.27,7.37,19.7,9.62,31.28-1.65,6-4.81,12.48-11.43,15-1,10.22,4.06,23.76-6.91,31.28-1.81,4.06-6.47,2.71-8.58,3.76,5.12,5,2.71,14.13,1.05,20-5.41,7.37-14.43,16.69-24.5,14.13-5.87-7.37-4.37,4.51-8.42,6-5.27,8.27-14.44,5.26-20.91,3.61-7.22-3.76-9.17-12.79-9.62-20.91,3-11.88,6.76-23.61,14.89-33.08-5.27-8.72-5.57-20.3-15.19-26.46-1.21,9.47,6.91,21.05-1.21,29.47l-27.37,6.31-1.35,2.56a351.09,351.09,0,0,0,8,45.57c18.65,2.86,43.76,4.81,50.08,26.31,2.25,8.27-5.42,13.39-8.58,19.85-17.74,17.74-45.26,14.89-66.76,6.32-19.25-11.13-3.91-37.89-7.37-56.39-.15-15.64-.75-25.57,2-40.61-3.75-1.8-7.67.16-11.42.16,7.37,28.72,3.91,62.4-5,90.82-2.1,4.66-8.72,3.91-11.73,7.37-19.84,8.42-43.45,12.33-62.1-1.65a25.22,25.22,0,0,1,7.67-45c13.38-1.21,25.86,3.45,38.34,6.16l1.36-1.5c.75-18.05,3.61-34.89,5.41-52.79C492,720.7,486,723,481,722.8c-7.67.45-16.69-1.5-23.91-2.1l.6-.6a10,10,0,0,1-5.86-8c4.81-28.42,12.93-55.34,23-81.21-29.63-28.87-67.07-55.79-91.58-92.18-14.89-15.94-21.35-35.64-18.8-57.29-9.32-.45-21.05,2.71-28.27-5.86-4.06-4.36-5.11-11-3.3-16.7,5.86-4.51-4.07-6.16-3.31-11.27-1.66-11.73,3.31-22,9.47-31.13-14-10.83-31.73-14-46.32-23.16-15.34-2.25-23-17.74-37.89-21.05,5.86,45.41,11.27,93.68,8.27,138.8l-7.22,15.79c1.65,49.92,13.08,99.55,23.46,147.67,4.06,16.39,13.23,31.73,15,48.27C302.06,740,307.78,758.75,307,778.3c-.6,5.41-1.5,14.13-5.26,19.69,5.11,2.26,6.47-6,11.43-6.46,19.25-11.43,40.9-15.79,64.66-10.53,8.12,1.35,12.93,10.53,15,17.29,5.56,19.1-10.68,30.38-20.15,42.71-25.27,13.38-52.48,17.9-82.71,13.54C277.1,851.08,266,841,256.65,832.43a43.12,43.12,0,0,1-8.72,25.71c-2.41,0-4.06,1.66-6.62.76-6.16-9-9-19.25-9.77-30.53-1.06-4.21,2.55-6.77,2.25-9.63-12.48-13.83-10.82-34.13-13.53-52.17.9-41.36.75-81.81-6.32-121.05-3.16,15-6.76,32.93-8.27,48.72-12.48,37.74-18,78.64-45.56,109.47,1.95,3.76,4.51,8.72,1.5,12.93-2.26,6-9.62,5-14.59,6.46L140.1,821l-23.75,26.16C89.73,867.77,53,878.14,20,864,4,855-.95,836.49.56,819.5c1.2-13.69,10.37-23.16,22.25-28.88,23-8.87,49.47-2.25,70.23,7.82-4.06-7.36-5.57-19.7-1.51-28.42,15.34-41.95,31.58-83.16,47.52-124.81,2.1-8,4.66-17.59,8.87-25.71,4.36-29,19.25-52.93,24.36-83C143.41,507.77,126.57,469.73,132,426c.91-11.88,2-19.39,3-30.22-16.54,15.94-31.43,33.38-48.57,50.37,6.16,17.75,38,23,28.72,45-3.31,3.61-9.47,5.57-8.87,11.28-2.86,4.52-6.47,9-11.88,9.93-4.52-.75-9-1.2-12.18-4.81-3.61,2.71-8.42,6.31-13.84,4.51-10.07-3.76-12.18-14.89-16.54-23.31-5.71,4.66-15,9.18-22.86,7.07-9.77-3.16-4.66-12.33-5.71-18.95l5-7.67c-4.21-2.1-10.53-3.76-11.13-9.47,0-13.53,13.69-18.95,22.26-27.07,7.82-9.47,24.06-2.55,28.87-14.43,26.47-15.94,50.38-36.7,71.88-58.35,3-18.2,4.36-37,9.48-54,8.11-16.24,22.55-27.81,41.5-26l5.11-1.35c.75-10.38.75-23.61-2.41-34.29-18.64,3.16-41.05,5.41-59.4-5C99.2,226.26,92.13,188.52,92,156.79c-18.35,15.49-43.61,22-65.27,11.13-11.87-5.11-10.22-18.8-11.12-27.52,4.66-14.13,9.92-32.63,25.71-36.39,9-4.51,19.25-9.47,29-6.76,7.22.9,16.09,1.2,22.26,6C95.29,97.55,94.84,90,97.39,84c-5.71-5.26-12.33-8.72-19.1-11.73-2.85,1.8-2.25,6.17-6.16,6.32-2-5.27,3.91-8.88,5.57-12.78,3.6.45,8,6.46,11.57,8.27L98,78.15c10.08-24.21,26.32-50.83,52.79-60.46C177,10.18,210.34-10.42,237.86,7.32c8.27,3.91,16.54,9,24.06,13.68Z"/><path id="path6137" class="cls-2" d="M249,16.79c15.79,13.83,37.44,14.14,56.39,19-1.8,3.15,2.26,5.71-1.95,9.77C282.82,60.7,255,60.7,230.19,54.84c-25-9.48-47.37-26.32-72.33-33.69l-.6-2.25c15.94-7.52,32.93-10.83,49.17-14.59,15.79.75,27.82,6.62,42.56,12.48Z"/><path id="path6139" class="cls-2" d="M228.69,60C252,65.81,276.21,64.61,298,55.59c5.27,6.92,7.52,15.34,11.43,23-11.73,4.82-20.3,9-31,16.4-5.26-11.73-16.24-24.67-29.92-26.47-15.64,2.11-30.83,12.18-39.25,25.72-2.26,3.76,4.51,5.11.9,8.87l-4.66,2.41c-1.2-11-3-23.76-14.29-29.63-7.36-2.1-14.73-.45-22.4-1.35-13.08,1.35-22.71,12.33-28.12,23.3l-3,8.28c-13.83-8-21.2-20.46-35-27.07a120.35,120.35,0,0,1,31-47.37c5.87-3.31,11-4.36,16.39-9,29.18,8.72,51.88,25.26,78.65,37.29Z"/><path id="path6141" class="cls-2" d="M361.77,78.6c7.52,10.83,10.68,23.76,7.67,36.39-8.12,13.08-19.85,28-36.69,28.58-.45-3.46-3.16-1.36-5-3-.45-17.75-3.75-34.59-7.22-51.28,2-6.32,10.83-9.17,15.34-10.53,7.07-3.91,18.65-4.81,25.87-.15Z"/><path id="path6143" class="cls-2" d="M271.84,94.08c3.91,9.17.6,20.3-6.16,27.22C253,130.77,237,137.09,223,128.07c-2.86-3.46-8.87-5.27-8.72-10.53l1.05-10.23c.45.3,1-.15,1.21-.75-2-6.77,1.65-14.43,5.56-20.3,9.77-5.57,18.65-16.54,31.43-12.48a47,47,0,0,1,18.34,20.3Z"/><path id="path6145" class="cls-2" d="M303.72,212.28c-26,28.57-67.37,20.6-101.8,25.11-26.92,10.53-63,5.41-84.06-15-28.27-25.56-16.24-66.91-22.56-100.9l5-35.49c13.09,5.87,25.57,18.35,36,29.33-.46,8,3.3,17.14,10.67,21.8,9.63,6.92,27.37,6.92,38.19.75,10.68-6,14.89-15.94,21.51-24.36-.15-.45-.9-.9-.6-1.35.75-.61,1.5-1.66,2.55-1.06-3.91,9.63,4.81,17,10.23,20.91,10.07,7.22,25.11,7.36,36.69,2s23-17.89,23.46-32c9.77-9.47,21.35-13.68,32.33-20,15,39.55,16.09,93.23-7.52,130.37Z"/><path id="path6147" class="cls-2" d="M194.85,84.46c.15,5,3.46,8.72,5.26,13.08,2.41,8.42.6,18-4.81,24.51-7.22,10.53-17.89,13.69-28.87,15-7.82-.15-13.83-3.16-20-6.62L140.56,118c1.21-.45,2.11-1.5,3.31-2.4-3.91-10.08,4.66-22,11.58-30.53,11.28-7.07,28.42-9.92,39.4-.6Z"/><path id="path6149" d="M258.61,94.23A17.38,17.38,0,0,1,252,110.17c-6,3.16-12.78,6.77-19.55,4.81-6.46-2.4-7.52-10.07-9.77-15.94-.6-5.56,3.46-10.07,7.52-13.23,7.82-2.56,17-5,23.91.9l4.51,7.52Z"/><path id="path6151" class="cls-2" d="M251.39,90.63a16.13,16.13,0,0,1,2.11,11.58c-2,2.56-4.52,6.31-8,6.16-.15-1.8,5.11-9.32.44-13.38-3.45-4.81-10.22-5.56-14.43-5.11,5.57-4.81,15-1.36,19.85.75Z"/><path id="path6153" d="M348.09,100.7c3.31,8.27-7.52,9.32-12.18,11.88a6.62,6.62,0,0,1-5.71-2.26,4.93,4.93,0,0,1,2.25-5.11c1.66-.3,2.41,1.05,3.61,2.26l-1.2,1.2a8.65,8.65,0,0,0,9-3.46c.75-4.51-1.95-9.92-6.62-10.22-.75,1.05-1.95,1.05-2.7,2.1v2a3.13,3.13,0,0,1-3.16-2.71c-.15-3.15,3.46-5,6-5,4.5.15,9,4.36,10.67,9.32Z"/><path id="path6155" d="M194.4,99.5c0,3,1.5,6.16.75,9.47C187.33,120.4,172,118.6,160,116.34c-3.3-3.46-7.06-5.56-8-10.07-1.35-6.92,5-13.24,10.38-16.39,11.13-7.37,25.11.45,32,9.62Z"/><path id="path6157" class="cls-2" d="M169.89,95.14c-.9,3.46-7.07,10.38-1.35,16.24.9.75,1.5,2,2.55,2-4.21,1.65-9-.61-12-3.76-2.25-2.86-3.6-7.82-1.2-11.13,1.66-2.56,4.81-4.21,7.52-5.26l1.8,3.15,2.71-1.2Z"/><path id="path6159" class="cls-2" d="M91.69,109.57c-2.86,12-2.11,25.11-.15,37.44-9.32,16.09-27.07,22.71-45.41,21.66-9.78-2.11-18.8-3.16-24.07-12.48C16.8,138,24.92,121.45,37.4,108.82c16.4-6.77,40.15-14.14,54.29.75Z"/><path id="path6161" d="M75.76,119.35a22,22,0,0,1-10.38,17.74c-3.75-.45-8.57-1.65-7.36-6.76-.15-6.17,4.66-10.53,9.32-13.84,3.91.9,7.67-1.95,8.42,2.86Z"/><path id="path6163" class="cls-2" d="M71.24,120.4c1.2,5.56-2.56,8.87-4.81,12.93L63,133.18c-2.1-4.66,1.51-8.27,3.91-11.73a18.45,18.45,0,0,1,4.36-1Z"/><path id="path6165" d="M226.73,144.46a16.74,16.74,0,0,1-9,15.94c-7.52,2.71-19.55,7.52-26.47-.45-3.15-4.66-5.11-9.93-3.75-16.24-6.32.15-5.87,7.37-9.63,11.88l-3.46-.15c.45-9.32,9.63-14.58,16.54-20.15,5.27-1.2,10.83-4.36,16.25-5.71,8.56.3,17.13,7.36,19.54,14.88Z"/><path id="path6167" class="cls-2" d="M220.26,141c3,3.76,2.41,8.12.45,11.73-5.11,5.11-12.78,7.22-20.3,7.67a12.49,12.49,0,0,1-8.12-8.12c-1.8-4.51.75-9.92,3.16-14,.75-.29,2.4.61,3.15-.6.61-2.86,5.27-1.95,8-3.15,6.76-1.51,8.87,3.46,13.68,6.46Z"/><path id="path6169" d="M249.44,177.09c.45,6.77-10.07,10.83-14.13,15.64-19.26,9.32-42.26,9.92-60.76-.9-2.7-6-11.28-4.06-11.28-11.13,5-4.81,7.22,6,12.64,6.47,16.54,9,44.21,14.28,60.6.44,5.41-3.45,6.77-9,12.93-10.52Z"/><path id="path6171" class="cls-2" d="M214,241.6c.45,13.38,2.41,27.67,2.41,39.4-4.67-2.86-14.74.45-15.19-6.32-.45-11.27.3-20.9-2-31.72L214,241.6Z"/><path id="path6173" class="cls-2" d="M230.64,291.83c17.74,26.62,8.87,60.3,20.6,88.87,4.21,34.74,8,66.47,9,100.45-.45,12.48-.15,29.93-7.37,41.66C241,537.54,224.63,542.65,207,543.11c-29.77-.16-50.22-29.63-61.5-52-14.29-31.88-8.42-63.3-5.11-97.74.9-4.36,9.47-6.46,4.06-11.58l-2.56,1.35c7.82-31.72.75-68.87,25.57-93.68,19.69-10.82,43.9-5.86,63.15,2.41Z"/><path id="path6175" class="cls-2" d="M295.45,361.75c6,3.16,10.07,7.22,15.64,12.48,14,6.77,27.07,15.64,40.3,24.66l-8.87,12.48c-26.17-15.94-57.14-21.2-81.2-41.8-14.29-.15-8.73-18.8-12.94-28.42l-.74-18c15.19,13.23,33.23,22.55,47.82,38.64Z"/><path id="path6177" class="cls-2" d="M626.28,424.91c1.65,7.07-3.16,16.09,3.61,22.1,16.09.45,23.46-16.84,29-28.57,4.22,7.37,1.36,20.15.91,28.42C657.71,454.08,658,463,650.49,467c-25.56,6.62-36.39-23.3-55-34.73-1.51-9-8-16.39-10.53-25.12,2.26,0,3.61-2.25,4.66-3.61-4.21-.6-.15-7.52-.15-11.12,2.11-6.77,5.11-13.84,12.78-15.49,6.17-2.56,11.58,1.8,15.49,5,4.66,8.72,5.41,19.1,6.92,29.33l1.65,13.68Z"/><path id="path6179" class="cls-2" d="M538.16,380.7c14.44-3.16,24.06,8.87,33.69,17.44-6.47,1.05-15.94-2.4-22.71-4.21-30.08-.75-48.42,5.26-77.59,6.32-7.82,1.5-15.19,6.16-22.41,7.67,16.24-16.39,32.78-39.7,58.65-33.69,9.62,3.31,20,3.61,30.37,6.47Z"/><path id="path6181" class="cls-2" d="M135.15,390.62c-14.59,12.78-26.62,25.57-38.95,38.95L84,442.35c-7.67-1.05-11-11.73-13.38-18.8,5.56-5.56,9.62-11.88,17.14-13.08,19.1-13.08,34-29.32,50.22-42.56l-2.85,22.71Z"/><path id="path6183" class="cls-2" d="M440.42,399.05c.9,4.51,3.76,11.28-3.16,13.38-6.31.3-.9,5.87-5.41,8.27-18.05,13.84-15,40.76-10.83,58.95-5.26,4.81-12.48,12.48-20.3,12.18-2.55-8.72.45-18.35,1.66-27.07-.45-20,6.16-40.3,5-60,1.05-6.76,4.81-13.68,11-17,9.77-3.31,18.34,3.61,22.1,11.28Z"/><path id="path6185" class="cls-2" d="M577.41,406.26c18.05,20.15,11.88,45.86,16.39,70.53-.9,14.88-6.77,28.27-15,39.25-14.28,7.21-26.61,19.84-42.25,23.45-27.07,8.88-50.68-7.82-75-14.28-19.85-12.78-34.89-35-37.74-58.35-3.46-18.35,5-39.7,19.24-51.58,23.92-12,52.19-9.93,79.4-14.89,17.14-3.3,37.9,2.26,55,5.87Z"/><path id="path6187" class="cls-2" d="M391.24,404.76l.45,5.27c2.25,1.05,3.16-1.21,5.11-1.66,2.11,2.41-1.2,5-2.4,7.67a15.69,15.69,0,0,1-9.63,1.51c-1.65-1.06-2.7-3.46-5.11-2.71-2.71,4.21-.15,12.63-5.11,16.69-3.46,2-6.77,6.47-11,4.66a4.69,4.69,0,0,0-3.16-5.26c-4.66,4.06-3.76,11.73-9,16.24-2.56,2.86-9.32,3.91-13.08,5-4.21-3.16-4.06-7.67-4.66-11.88,2.7-15.64,14-26,22.85-38,2.56.15,3.16-.15,5.12-2.26,11-4.36,19.69,3.31,29.62,4.81Z"/><path id="path6189" d="M553.35,407.32c3.46,8.12-8.87,17.74.3,22.56,6-5.12,8.72-14.29,16.84-16.25-.75,6.77-9.47,12.34-13.08,18.95a4.62,4.62,0,0,0,1.8,3.91c4.66-5.26,12.79-7.37,17.9-14.13,2.4.3,3,2.11,2.1,4.06-7.67,7.37-18.79,10.23-21.8,20.9-3.31,6.92-10.38,7.22-16.84,7.07A11,11,0,0,1,529.74,447c-2.25-6.32,2.11-11,4.36-15.94,2.41-3.46,7.07-4.36,10.68-5.56,4.66-5,4.36-12.34,6.46-18.35l2.11.15Z"/><path id="path6191" d="M489.74,428.22c6,.45,15.19-1.35,20,4.36,3.31,3.76,3.76,11,1.21,15.64a27.65,27.65,0,0,1-27.68,11.88c-4.06-4.36-8-8.12-7.81-14.43-7.22-4.52-15.94-7.23-17.45-16.84,4.66.29,7.67,6.31,12.48,8.87.91,2.86,3.91,3,5.72,4.66,3.76-10.38-9.63-17.75-5.87-28,4.36.75,1.66,6,4.06,8.42L480,432.88c11-5-.91-17,3.45-24.51h1.21l5.11,19.85Z"/><path id="path6193" class="cls-2" d="M395.75,448.82c-4.36,5.26-6.77,12.93-13.38,15.19-8.88,12.18-22.26,13.68-36.54,12-3.61-2.86-8.42-4.66-8.73-10.08,0-10.53,11.28-10.53,17.6-16.09,4.81-4.36,5.11-10.53,13.08-8.27,7.07-2.86,15-9.77,14.89-18.19,6.16,1.2,11.73-1.21,15.79-4.67,3,8.57,1.05,20.6-2.71,30.08Z"/><path id="path6195" class="cls-2" d="M552.29,436.34c2.86.45,1.8,4.21,2.71,6.46-.91,6.77-8.42,5.72-13.09,7.22-3.3,1.51-6.76-2.4-7.52-5.41-.9-5.11,2.86-9,5.57-12-.3.6.45,1.05.6,1.21,2.71.3.45-2.41,1.2-3,4.21.45,9-.15,10.53,5.56Z"/><path id="path6197" class="cls-2" d="M508.08,437.24c1.5,3.61-.75,8-1.05,10.83-4.66,4.81-10.38,7.06-16.39,8.42-5.57,1.05-7.67-4.52-10.08-8.13,1.51-6,1.81-13.53,8.57-15.78,1.21,1.2,3.46,2.25,5,1.5l-2-2.1c5.41.15,12.48,0,15.94,5.26Z"/><path id="path6199" d="M551.39,440.85c-1.2,4.66-4.51,7.67-8.72,8.12-3.16,1-5.11-2.4-5.11-5.41,0-4.81,5.56-3,6.16-7.07,3.76-3.46,6.32,1.2,7.67,4.36Z"/><path id="path6201" d="M504.17,443.41c-.15,4.66-4.36,8.57-8.12,9.92-3.91.46-6.76-2.7-7.52-6-.3-4.66,4.51-7.82,7.37-10.53,3.31.45,6.32,3.46,8.27,6.62Z"/><path id="path6203" class="cls-2" d="M66.43,430c2.11,7.67,8.72,15,14.29,20.45,3.15.75,5.26,5.71,7.37,8,8.57,7.37,17.14,12.18,24.21,21.8,3,6.62-2.71,10.53-7.52,12.94-5,.15-1.51,6.61-3.61,9-2,4.06-6.77,6.16-10.38,4.81-4.06-.75-6.32-6.17-10.07-6.62-2.86,2.56-3.16,8-8.12,7.82-11.13-3.46-14.44-15-15.94-25.56-1.06-1.66-2.86-3-4.51-1.81-2.26,4.52-4.67,8.88-9.78,9.93-4.06.3-8.12,2.1-11.88.45-7.37-8.57.9-18.35,4.81-25.72-4.66-4.36-12.78.45-13.83-7.52.75-6.61,6-9.92,9-14.73L31,444c10.37-8.87,23.15-17.29,35.48-14Z"/><path id="path6205" d="M528.08,470.78c-.15,4.66-5.11,7.82-8.72,9.32-2.56,1.21-6.17.3-9,.3-7.37-6.31-1.36-16.23.9-23,7.67,1.05,15.33,5,16.84,13.38Z"/><path id="path6207" class="cls-2" d="M393.05,487l-5-18.2c1.5-5,8.27-8.42,9.62-14A251.88,251.88,0,0,1,393.05,487Z"/><path id="path6209" d="M561.92,464.31c.15,3.91-3.46,4.66-4.81,8.27-6.32,18.35-19.85,38.35-41.5,39.7-25.87.15-27.82-29.32-45.42-43.61v-2c8.72,2.11,15.19,13.24,20.45,20.76,4.06,8.42,9.93,18.34,19.85,20.14,10.68,2.41,19-4.36,26.77-8.11,9.32-10.53,15.79-23.46,20.9-36.39,1.5,0,3.16-.3,3.76,1.2Z"/><path id="path6211" class="cls-2" d="M523.72,470.62c-.15,2.86-2.41,4.81-4.81,5.72-2.56-1.36-5.57,2.85-7.22-1.51l2.41-12.33c4.66,1.2,8,3.91,9.62,8.12Z"/><path id="path6213" class="cls-2" d="M396.81,508.52c21.65,25.26,45.27,52.93,69.47,78l18.2,13.08c4.81,8.12-4.66,14.89-6.77,22.26l-3.3,1.81C437,592,400.42,558.14,373.36,515.89c-4.51-10.83-4.66-24.06-3.61-36.09,4.51-1.81,8.57-5.27,12.93-8,3.91,12.33,8.12,25,14.14,36.69Z"/><path id="path6215" class="cls-2" d="M423,487c9,21.2,28.72,45.11,52.93,49.47,10.83,4.36,19.85,8.87,31.28,10.38-6,14.43-8.12,31.12-15.34,45.41-3.61,6-8.87-1-12.93-2.71-24.66-21.65-46.62-47.81-67.07-72.93l-11.13-9.77c2-4.06-4.66-5-3.45-9.33C407,501.75,414.55,489.42,423,487Z"/><path id="path6217" class="cls-2" d="M252,532.58c1.5,46.77,14.13,91.43,21.65,138.5,9.48,39.25,33.54,75,26.62,118.5-2.1,15.94-20.15,22.71-32.63,26.77-9.93,3.15-23.61,2.71-32.33-3.16l-4.66-10.08c-9.78-40.3-.91-88.26-8.72-128.27-2-25.71-6-49-4.22-75-1.65-4.81,2.26-13.69-5.26-14-2.26,1.81-1.66,3.61-1,5.87.45,12.17.3,23,.6,36.84-6.92,44.21-14.89,88-30.08,128.12-4.81,14.74-15.48,26.76-22.1,40.45-12.48,13.38-30.37,20.75-48.57,13.83-10.23-6.76-16.84-19.25-16.69-30.37,2.25-17.6,13.08-31.13,15.19-48.72,17.44-36.4,28.42-78.2,44.06-116.39,3.45-15,7.21-31.13,14-45.42,2.41-10.53,6.47-19.1,8.12-30.82,23.61,12,54.89,12,76.09-6.62Z"/><path id="path6219" class="cls-2" d="M525.83,546.41c26.46,32.48,43.31,72.93,49.92,114.88-3.75,3.46,1.51,6.47,2.11,9.63,1.95,11.12,6,22.4,4.66,33.83-13.83,5.11-30.37,6.62-45.71,9.17-27.67.91-53.54,8.73-79.4-.45-1.51-11.57,5-21.8,5.26-32.48l2-2.25c6.31-25.87,14.28-48.88,27.36-71.88,4.22-12.18,11.43-26.77,13.09-40.6,2.85-4.21,2.85-9.63,5.56-13.54.45-.3-.45,3.31.6,4.66,2.86-1.5,3-5.11,2.86-8.42l-1.05-1.2c4.21-.45,8.57-1,12.78-1.36Z"/><path id="path6221" class="cls-2" d="M608.38,672.88l5.41,9.78C609,687,607,693.78,604,699.2c-2.56-14-17-21.36-22-34.29-5-22.41-9.47-45-18-66.17,23.61,19.25,31.43,48.58,44.36,74.14Z"/><path id="path6223" class="cls-2" d="M669.13,649.87c.6,7.82,3.91,17.29-1.5,23.91-3.16,3.46-11.73,2.4-10.68,8,7.37,6.92,1.35,15.34,1.65,24.06-2,2.56-3.45,4.81-6.46,5.57-3.16-.45-8.58-2.41-11,.75.9,5.71,7.67,9.92,5.87,15.94,1.65,9.92-9,15-15.64,18.64-5.87,1.36-8-5.26-12.78-5.56-2.86,6.46-2.71,15-11,17.59-5.87-.9-13.39-1.65-14.44-8.87-5.56-10.22,2.71-17.29,3.61-26.92.75-1.65,3.61-3.46,2.71-6.61,3.61-1.21,5-5.87,7.52-8.58,3.31-7.22,3.91-17.44,12.93-19.55,3.91-11.88,1.51-26.31,14.14-32.48,2.55,3.61-.6,7.22,2.1,11.28l3.31-2.1c-.15.75.45,1.05.6,1.35,6.77-9,11-21.5,22.56-26.32,3.76,1.66,4.81,6.62,6.46,9.93Z"/><path id="path6225" class="cls-2" d="M550.34,717.69c2.86,14.89,5.57,31,7.37,46.92-3.61,5-5.71,12.63-12.33,13.68-3.91-.3-6.17,1.66-9.63-1-.75-19.25-1.5-40.3,3.46-57.89a84.2,84.2,0,0,0,11.13-1.66Z"/><path id="path6227" class="cls-2" d="M516.66,721c6.62,18.5,3.46,38.2,2.25,57a19.47,19.47,0,0,1-8.87,9.93c-4.51,1.5-9.77,0-12-4.36-.15-.45.45-.6.76-1l-3.16-2.11c-1.06-21.35,4.51-37.74,5.41-57.44,4.81-1.66,10.38-1.36,15.64-2Z"/><path id="path6229" class="cls-2" d="M608.83,792.88c-.6,6.62-4.81,11.28-8.27,16.54-18.35,11.89-44.36,10.83-62.71.3-7.66-6.31-.75-18.49-2.25-26.46,6,2.86,11,1,16.69-1.36L561.91,770c17.15,2.86,42,2.11,46.92,22.86Z"/><path id="path6231" class="cls-2" d="M490.34,783.26a23.66,23.66,0,0,0,10.68,11c5.11-.15,11.43,1.5,14.89-3.31l-3.31,17.14c-17.75,12-44.51,18.49-64.21,6-5.87-4.07-8.57-10.83-9.63-17-.15-6.77,2.56-16.7,11.13-19.85,14-2.71,26.92,4.2,40.45,6Z"/><path id="path6233" class="cls-2" d="M384.17,789c4.81,8.12,5.71,17.15,2.71,26.62-17.45,35.78-60.76,37-96.7,33.68-12.93-3-25-14.13-31.27-24.81,13.23-2.86,26.91-7.37,38-17.29,1.35,2.55,3.76,2.1,6.47,1.35-2.11-8.87,9.62-9.77,14-15,17.9-10.53,42-12,61.66-7.82l5.11,3.31Z"/><path id="path6235" class="cls-2" d="M106.58,814.53c9,4.06,18.79,4.36,28.42,3.61-17,30.22-50.83,46.46-83.91,48.42-14.28-.6-30.37-3.46-38.79-15.64-6.62-11.58-10.23-26.62-5-40.3-.45-3.91,5-6.32,6.92-10.68,15.64-11.42,39-13.68,55.79-5.56,12,6.47,27.82,7.52,36.54,20.15Z"/><path id="path6237" class="cls-3" d="M157.26,807.31c1.5,3.61.3,9-3.46,9.63-2.71-.3-8.27,3.3-10.22-1.05,2.85-2,9.17-5.72,13.68-8.58Z"/><path id="path6239" class="cls-2" d="M252.3,824.46c-1.35,10.37-.75,20.6-7.07,29.47-4.66-.45-3.46-6.62-5.11-9.77-2.26-7.37-5.56-14.89-1.35-22.71l13.53,3Z"/></g></svg>