<svg id="svg2" xmlns="http://www.w3.org/2000/svg" viewBox="0 0 300 300"><defs><style>.cls-1{fill:#709d2a;}.cls-2{fill:#fab139;}.cls-3{fill:#dc7c22;}.cls-4{fill:#86672c;}.cls-5{fill:#fff;}.cls-6{fill:#ab8027;}.cls-7{fill:#775425;}.cls-8{fill:#7bb82d;}.cls-9{fill:#ffe52f;}.cls-10{fill:#feca55;}.cls-11{fill:#c6da7f;}</style></defs><title>mum-02</title><g id="layer2"><g id="g3103"><path id="path3080" class="cls-1" d="M88.36,236.75s1.25-24.91,40.18-42.31c-.49-2.32-4.7-5.43,7.26-6.76a27.41,27.41,0,0,1-.8,3.92s8.93,7.86,22.86.54a14.27,14.27,0,0,1-1.16-4.29s9.82,2.24,9.46,6.7c1.7,2,16.16,11.52,17.41,11.52s18.22,11.78,15.89,40c-9.45,1.69-53.4,62.22-111.11-9.32Z"/><path id="path4074" class="cls-2" d="M101.59,78c0,1.55.09,4.06.06,7.22s-.16,7-.44,11.09c-.18,2.79-.44,5.74-.81,8.72s-.81,6-1.4,9a83.07,83.07,0,0,1-2.22,8.66c-.45,1.38-.91,2.7-1.44,4s-1.1,2.54-1.72,3.71l-.53,1c0,.62.14,1.6.34,2.87a46.46,46.46,0,0,0,1,4.56,44.1,44.1,0,0,0,2,5.69c.44,1,.95,2.07,1.5,3.13s1.16,2.14,1.85,3.21a42.15,42.15,0,0,0,6.25,7.63,42.22,42.22,0,0,0,4.18,3.53,45.81,45.81,0,0,0,5,3.25,52.42,52.42,0,0,0,6,2.78,58.22,58.22,0,0,0,6.94,2.28,72.79,72.79,0,0,0,8,1.57,90.25,90.25,0,0,0,9.16.78h0a21.63,21.63,0,0,0,2.87-.07,30.94,30.94,0,0,0,3.25-.46c1.13-.23,2.27-.52,3.47-.88s2.44-.78,3.69-1.28,2.53-1.08,3.81-1.72,2.57-1.34,3.85-2.12,2.55-1.64,3.81-2.57,2.5-1.9,3.72-3,2.41-2.22,3.56-3.43a49,49,0,0,0,3.31-3.82,53.45,53.45,0,0,0,5.63-9,50.85,50.85,0,0,0,2.22-5.15,56,56,0,0,0,1.69-5.63,57.17,57.17,0,0,0,1.09-6.09,59.52,59.52,0,0,0,.47-6.53v-.19l.06-.19a9.74,9.74,0,0,1,.5-1,7.76,7.76,0,0,1,1.69-2,7.3,7.3,0,0,1,2.28-1.28,7.9,7.9,0,0,1,1.47-.37,9.73,9.73,0,0,1,1.75-.13,12.67,12.67,0,0,1,2.69.41c-.73.24-1.72.5-2.57.81a7,7,0,0,0-1.09.5,1.23,1.23,0,0,0-.59.59,8.58,8.58,0,0,1,1.25,1,3.42,3.42,0,0,1,.93,1.41,2.27,2.27,0,0,1,0,1.41,3.6,3.6,0,0,1-.81,1.34,7.15,7.15,0,0,1-1.5,1.19,5.14,5.14,0,0,1,.37-1.28c.15-.31.31-.49.38-.69a.83.83,0,0,0-.06-.66,5.42,5.42,0,0,0-.82-1.12,5.63,5.63,0,0,0-1.18-.82,11.59,11.59,0,0,0-1.13-.53,5.36,5.36,0,0,0-1,1.19,3.63,3.63,0,0,0-.37.66c0,1.32-.09,2.6-.19,3.87a4.05,4.05,0,0,1,.84-.12,3.83,3.83,0,0,1,1.44.12,3.78,3.78,0,0,1,1.22.69,3.65,3.65,0,0,1,1.12,1.53,5.16,5.16,0,0,1,1.6.25,4.31,4.31,0,0,1,1.28.66,3.88,3.88,0,0,1,.94,1,4.06,4.06,0,0,1,.53,1.25c0,.12.05.25.06.37.09-1.3.17-2.49.28-3.53l0-.5.41-.28a27.8,27.8,0,0,0,2.22-1.78A17.39,17.39,0,0,0,207.4,123a13,13,0,0,0,1.22-1.66,9.7,9.7,0,0,0,.78-1.59,8.73,8.73,0,0,0,.44-1.56,9.43,9.43,0,0,0,.13-1.47,9.77,9.77,0,0,0-.41-2.69,11.72,11.72,0,0,0-.78-1.94,13.63,13.63,0,0,0-.94-1.59,14.28,14.28,0,0,0-1.56-1.88,10.21,10.21,0,0,0-2.66-.43,8.11,8.11,0,0,0-2.25.28,8,8,0,0,0-1.9.72,11,11,0,0,0-1.63,1,12.76,12.76,0,0,0-2.22,2.15,10,10,0,0,0-.75,1.07l-1.22,2.09-.81-2.28a4.16,4.16,0,0,0-1.28-1.66,12.12,12.12,0,0,0-2.72-1.68,35.37,35.37,0,0,0-4.16-1.57c-1.58-.5-3.37-1-5.31-1.47l-.37-.09a12.29,12.29,0,0,1,1.06,1.69,10.5,10.5,0,0,1,.72,1.81,14.39,14.39,0,0,1,.62,3.81A15.56,15.56,0,0,1,181,118a14.51,14.51,0,0,1-1.32,3.62,11.07,11.07,0,0,1-2.25,3,2.63,2.63,0,0,1,.66.6,3.54,3.54,0,0,1,.53.87,4.11,4.11,0,0,1,.28,1.16,4.83,4.83,0,0,1,0,1.37,20.42,20.42,0,0,0-1.93-1.65,17.18,17.18,0,0,0-2-1.28,16.74,16.74,0,0,0-4-1.53,18,18,0,0,0-3.91-.54,21.7,21.7,0,0,0-3.66.25,25.56,25.56,0,0,0-3.18.69,26,26,0,0,0-2.5.88,20.75,20.75,0,0,0-2.25,1,23.94,23.94,0,0,1,.62-2.75,8.84,8.84,0,0,1-1.22-1.5,11.45,11.45,0,0,1-1.22-2.56,10.78,10.78,0,0,1-.53-3.07,9.53,9.53,0,0,1,.1-1.68,9.84,9.84,0,0,1,.43-1.72,10.31,10.31,0,0,1,.75-1.72,11.84,11.84,0,0,1,1.16-1.69,13.69,13.69,0,0,1,1.56-1.59,16.55,16.55,0,0,1,2-1.53,19.73,19.73,0,0,1,2.47-1.38,30,30,0,0,1,3-1.16c.28-.09.57-.2.85-.28-4.71-1-9.75-2.06-14.94-3.31-4.27-1-8.62-2.19-13-3.53-2.17-.67-4.35-1.36-6.5-2.13s-4.28-1.58-6.38-2.46a7.86,7.86,0,0,1,1.19,1.06A8.94,8.94,0,0,1,127,94.78a11.27,11.27,0,0,1,.88,1.66,14.18,14.18,0,0,1,.72,2l.65,2.31-2.18-1c-1.67-.76-3.17-1.51-4.66-2.13-.74-.3-1.51-.58-2.25-.81a15.65,15.65,0,0,0-2.25-.53,14.44,14.44,0,0,0-2.41-.19,15.71,15.71,0,0,0-2.62.28,21.3,21.3,0,0,0-3.06.82,31.12,31.12,0,0,0-3.47,1.5,5.29,5.29,0,0,1,.59-1.28,7.17,7.17,0,0,1,.88-1.19,13.87,13.87,0,0,1,2.34-2,21.86,21.86,0,0,1,2.53-1.53c.81-.43,1.56-.77,2.1-1a16.36,16.36,0,0,1,4-.79,10.69,10.69,0,0,1,2.94.19q-2.79-1.27-5.47-2.72c-1.78-1-3.53-2-5.22-3.06s-3.33-2.23-4.9-3.44A56.8,56.8,0,0,1,101.59,78ZM80.65,109.69a4.26,4.26,0,0,0-.5.06,4.91,4.91,0,0,0-2,.81,8.81,8.81,0,0,0-2.09,2.1,16.46,16.46,0,0,0-.5,3.12,18.63,18.63,0,0,0,.09,3,20.85,20.85,0,0,0,.47,2.81,26.44,26.44,0,0,0,.78,2.6,31.7,31.7,0,0,0,3.63,6.87,4.73,4.73,0,0,1,1.87-.53,5.63,5.63,0,0,1,1.35.06,2,2,0,0,1-.13-.34,4.2,4.2,0,0,1-.16-1.34,2.78,2.78,0,0,1,.29-1.19,2.88,2.88,0,0,1,.75-.91,3.29,3.29,0,0,1,1-.56,4.72,4.72,0,0,1,2.15-.19,6.75,6.75,0,0,1,2.78,1,39.09,39.09,0,0,1-1.18-5A15,15,0,0,0,88,120.91a3.16,3.16,0,0,0-1-.07,2.24,2.24,0,0,0-.81.29A2.86,2.86,0,0,0,85,122.38a6.83,6.83,0,0,0-.6,1.87,12.43,12.43,0,0,0-.25,1.94A6.26,6.26,0,0,1,83,124.31a3.59,3.59,0,0,1-.22-1.78,3.41,3.41,0,0,1,.62-1.47,4.63,4.63,0,0,1,1-1,7.46,7.46,0,0,1,1-.59,2.37,2.37,0,0,0-.68-.91,5.73,5.73,0,0,0-1.13-.68c-.88-.43-2-.81-3.15-1.29a8.51,8.51,0,0,1,1-.06,12.16,12.16,0,0,1,3.13.35,12.73,12.73,0,0,1,2,.68,13.85,13.85,0,0,1,2.19,1.22c-.17-1.57-.3-3.1-.35-4.47A15.31,15.31,0,0,0,87,112.75a14.29,14.29,0,0,0-2.91-2.16,7.5,7.5,0,0,0-1.69-.71,5.66,5.66,0,0,0-1.78-.19Zm74.69,63.78a38,38,0,0,1-5.31,1.19,26.81,26.81,0,0,1-4.82.22,92.53,92.53,0,0,1-9.43-.82,28.9,28.9,0,0,1,.9,2.94,27.39,27.39,0,0,1,.69,4,25.31,25.31,0,0,1,0,4.69,23.93,23.93,0,0,1-.37,2.56,25.45,25.45,0,0,1-.69,2.66,15.52,15.52,0,0,0,2.22,1.4,16.42,16.42,0,0,0,4.75,1.56,16.3,16.3,0,0,0,2.53.22,20.67,20.67,0,0,0,2.59-.12,25.42,25.42,0,0,0,2.66-.44,36.17,36.17,0,0,0,5.53-1.69,14.9,14.9,0,0,1-1-2.81,22.17,22.17,0,0,1-.56-3.09,38.48,38.48,0,0,1-.22-6.32c.1-2.43.35-4.6.56-6.12Z"/><path id="path3046" class="cls-3" d="M100,76.25c3,9.84,17.85,21,51.78,27.44,23.19,2.23,34.37,6.46,42.16,9.87-1.43-5.89-8.93-7-23.75-10.34C130.9,100,100,76.25,100,76.25Zm101.34,39.91c-3,.8-4.2,1-4.38,2.25a5.63,5.63,0,0,0,2.07,1.31A3.94,3.94,0,0,1,201.34,116.16Zm-120,.56a6.74,6.74,0,0,1,2.78,4.4,19.81,19.81,0,0,1,2.84-1.81,10,10,0,0,0-5.62-2.59Zm-6.25.56c.57,6.5,2.85,13.2,5.44,15.1a31.89,31.89,0,0,1,4.4-.63s-.92-3.4.72-4.16S91.4,129,91.4,129l-.5-2.28s-7.43-4.11-8.06,3.34c-1.89-.57-2.28,0-2.28,0s-4.68-7.19-5.5-12.75Zm91,5.5a23.53,23.53,0,0,0-10.16,2.84c6,.93,12.23-3,22.57,2.16a15.66,15.66,0,0,0-12.41-5Zm-47.78.41A31.19,31.19,0,0,0,106.06,126c11.11-2.53,15.41.74,23.87,1.37a16.68,16.68,0,0,0-11.65-4.19Zm77.06,1a5.12,5.12,0,0,0-2.12.47,2.06,2.06,0,0,0-.29,1.78c1.79-.54,3.42.72,5.47,2,2,0,3.75,2.93,3.75,2.93s1.88-1.07,1.25-2.59-2.69-2.34-4.65-2.16a3.59,3.59,0,0,0-3.41-2.4Zm-44.5,16.47c-2.46,1.51-9.5.56-9.5.56-.06,1.51.72,2.07,4.19,4.72s3.34-3.19,5.31-5.28ZM140,160.22c3.78,9.09,8.38,4.17,10.28,0C143.81,164.13,140,160.22,140,160.22ZM156.59,172c-7.68,3.75-21.76.89-22,2.5C145.72,182.41,157,173.93,156.59,172Z"/><path id="path4122" class="cls-4" d="M143.12,29.59c-2.06,0-4.06.12-6,.29s-3.73.4-5.5.71-3.46.69-5.09,1.13-3.2.92-4.69,1.47S119,34.34,117.59,35s-2.67,1.32-3.91,2-2.44,1.43-3.56,2.19-2.18,1.54-3.19,2.34q-2.21,1.76-4.06,3.56c-1.24,1.21-2.36,2.44-3.37,3.63s-1.94,2.35-2.75,3.47-1.54,2.18-2.16,3.19a48.71,48.71,0,0,0-2.72,4.9,19.06,19.06,0,0,0-.81,1.94l-.22.59-.66.1a11.6,11.6,0,0,0-1.12.31A20.12,20.12,0,0,0,86,64.47a49.57,49.57,0,0,0-4.1,3.19,46,46,0,0,0-3.53,3.43,43.67,43.67,0,0,0-3.06,3.69,40,40,0,0,0-2.56,3.88,43.84,43.84,0,0,0-2.1,4.09C70,84.14,69.45,85.55,69,87s-.87,2.94-1.22,4.44-.65,3-.87,4.56-.34,3.11-.44,4.69-.14,3.2-.12,4.81.09,3.23.22,4.88.32,3.3.56,5a97,97,0,0,0,2,10c.84,3.37,1.84,6.77,3,10.13s2.48,6.72,3.9,10,2.94,6.57,4.57,9.78,3.34,6.37,5.12,9.44,3.65,6.07,5.53,8.94,3.82,5.62,5.75,8.25,3.86,5.13,5.78,7.47,3.85,4.5,5.72,6.5,3.69,3.82,5.44,5.43c3.31-2.33,6.27-4.21,8.56-5.59s3.9-2.25,4.5-2.56a5.18,5.18,0,0,1-.25-1.07,3.52,3.52,0,0,1,.13-1.34,3.31,3.31,0,0,1,.53-1.12,4.53,4.53,0,0,1,.81-.88,7.2,7.2,0,0,1,1-.66,14.11,14.11,0,0,1,3.28-1.28,21.5,21.5,0,0,1,2.66-.5,22.19,22.19,0,0,0,.15-4.34,23,23,0,0,0-.53-3.72,23.33,23.33,0,0,0-.78-2.84,15.75,15.75,0,0,0-.75-1.75c-2.37-.42-4.57-.95-6.69-1.53s-4.12-1.27-6-2a55.4,55.4,0,0,1-5.25-2.41,49.73,49.73,0,0,1-4.62-2.72,47,47,0,0,1-4-3,42.38,42.38,0,0,1-3.44-3.19,44.07,44.07,0,0,1-2.9-3.34c-.88-1.13-1.69-2.28-2.41-3.41a44.87,44.87,0,0,1-2.63-4.78c-.74-1.56-1.38-3.08-1.9-4.53a3.33,3.33,0,0,1-.25.28,4.15,4.15,0,0,1-1.41,1,4.36,4.36,0,0,1-1.81.35,4.47,4.47,0,0,1-1.53-.35,5.62,5.62,0,0,1-1.5-.87,3.49,3.49,0,0,1-.53.22,3.33,3.33,0,0,1-1.16.12,3.68,3.68,0,0,1-1.09-.25A5.91,5.91,0,0,1,82.15,142a6.09,6.09,0,0,1-1.34-1.81,4,4,0,0,1-.35-1.06,3.76,3.76,0,0,1,0-1.16c0-.08.05-.15.07-.22a5.59,5.59,0,0,1-1.19-1.19,4.15,4.15,0,0,1-.66-1.31,3.41,3.41,0,0,1,.28-2.62,28.79,28.79,0,0,1-1.87-2.79,30.17,30.17,0,0,1-2.25-4.71,26.66,26.66,0,0,1-.91-2.94A23.51,23.51,0,0,1,73.4,119a21.05,21.05,0,0,1-.06-3.47,19.5,19.5,0,0,1,.59-3.62l0-.19.13-.16a12.88,12.88,0,0,1,1.37-1.59,10.12,10.12,0,0,1,1.41-1.19,7.71,7.71,0,0,1,1.44-.81,6.83,6.83,0,0,1,1.5-.41,7.27,7.27,0,0,1,1.47-.06,8.32,8.32,0,0,1,2.06.37,10.19,10.19,0,0,1,1.84.82A13.61,13.61,0,0,1,87,109.81a18.37,18.37,0,0,1,1.5,1.25c0-1.88.1-3.15.1-3.15a6.42,6.42,0,0,1,.59,1.5,17.28,17.28,0,0,1,.38,2c.22,1.44.39,3.15.59,4.93a52.89,52.89,0,0,0,.84,5.47c.21.91.43,1.8.72,2.66a17,17,0,0,0,1.07,2.47,58.46,58.46,0,0,0,2.5-7.1c.71-2.5,1.31-5.11,1.81-7.78s.9-5.38,1.22-8.06.55-5.32.72-7.84c.18-2.76.31-5.38.37-7.75s.07-4.5.06-6.29c0-3.56-.12-5.75-.12-5.75a31.73,31.73,0,0,1-2.63-4.28,17.93,17.93,0,0,1-1.18-2.84,8.23,8.23,0,0,1-.41-2.78c.68,1.14,1.41,2.27,2.19,3.34s1.63,2.1,2.5,3.1,1.77,1.94,2.72,2.87,1.91,1.83,2.93,2.69A64,64,0,0,0,112,83.22a77.39,77.39,0,0,0,7.16,4.12c2.49,1.26,5.07,2.41,7.69,3.47s5.3,2,8,2.94,5.43,1.74,8.15,2.5,5.44,1.45,8.13,2.09c5.38,1.3,10.62,2.42,15.5,3.44s9.38,2,13.31,2.94c2,.49,3.79,1,5.44,1.5a35.83,35.83,0,0,1,4.4,1.66,15.94,15.94,0,0,1,2.47,1.37,8.27,8.27,0,0,1,1.78,1.63,15,15,0,0,1,2.5-2.47,11.63,11.63,0,0,1,1.79-1.13,11.5,11.5,0,0,1,2.15-.87,10.81,10.81,0,0,1,2.47-.41,11.4,11.4,0,0,1,2.81.19c0-.29,0-.49.1-.88.19-1.38.44-3.42.62-5.93a79.92,79.92,0,0,0,.19-8.88c-.06-1.68-.18-3.45-.38-5.28s-.47-3.71-.84-5.66-.8-3.92-1.37-5.93-1.25-4.07-2.07-6.13a58.85,58.85,0,0,0-6.65-12.31,59.74,59.74,0,0,0-4.82-6,63.66,63.66,0,0,0-6-5.69,70,70,0,0,0-7.19-5.37c-1.32-.86-2.73-1.66-4.16-2.47s-2.91-1.61-4.47-2.38c-2.4-.65-4.73-1.22-7-1.69s-4.46-.86-6.59-1.15-4.19-.52-6.19-.66-3.94-.19-5.81-.19ZM119.68,93l-.84,0a15,15,0,0,0-3.44.69,3.54,3.54,0,0,0-.34.16,16.24,16.24,0,0,1,3.15.15,20.35,20.35,0,0,1,3.72,1c1.19.44,2.32,1,3.47,1.5a7.47,7.47,0,0,0-1.56-2.06A5.53,5.53,0,0,0,122,93.41a7,7,0,0,0-2.28-.38Zm83.06,38.88a4.05,4.05,0,0,1-.56,1.37,4.45,4.45,0,0,1-1.06,1.16,5.12,5.12,0,0,1,.56,1.25,4.31,4.31,0,0,1,.16,1.22,3.75,3.75,0,0,1-.16,1.12,3.08,3.08,0,0,1-.5,1,3.56,3.56,0,0,1-.75.75,3.45,3.45,0,0,1-.94.47,3.61,3.61,0,0,1-1,.25,4.5,4.5,0,0,1-1.09-.09,2.33,2.33,0,0,1-.44.59,3,3,0,0,1-.87.62,4,4,0,0,1-1,.32,6.12,6.12,0,0,1-2.13-.1,6.87,6.87,0,0,1-1.4-.43,4.49,4.49,0,0,1-1.22-.79A54.75,54.75,0,0,1,187.4,147a54.18,54.18,0,0,1-3.59,5.75,52.63,52.63,0,0,1-4.07,5.06,56.11,56.11,0,0,1-4.46,4.41c-1.41,1.24-2.86,2.39-4.32,3.44s-3,2-4.43,2.87-3,1.66-4.44,2.35-2.94,1.3-4.38,1.81a59.48,59.48,0,0,0-.72,7c0,1.13-.05,2.3,0,3.47a34,34,0,0,0,.35,3.43,34.21,34.21,0,0,1,3.31,1,24,24,0,0,1,2.22.93,16.93,16.93,0,0,1,2.12,1.22,8.86,8.86,0,0,1,1.1.91,5.2,5.2,0,0,1,.84,1.09,3.83,3.83,0,0,1,.41,1,3.37,3.37,0,0,1,0,1.1,13.14,13.14,0,0,0,1.66,1.68,22.6,22.6,0,0,0,2,1.57c1.45,1,3.14,2,4.9,3s3.63,2.08,5.53,3.29a48,48,0,0,1,5.69,4.15,34.79,34.79,0,0,1,2.72,2.6,32.69,32.69,0,0,1,4.84,6.56,36.76,36.76,0,0,1,2,4.12,43.07,43.07,0,0,1,1.65,4.78,53.32,53.32,0,0,1,1.22,5.5c.33,2,.6,4.07.75,6.32s.2,4.64.16,7.18c3.17-.51,6.17-1.16,9-1.9s5.53-1.58,8.06-2.5a76.46,76.46,0,0,0,7.06-3,60.48,60.48,0,0,0,6-3.35,46.47,46.47,0,0,0,4.78-3.43,37.34,37.34,0,0,0,3.72-3.47,25.57,25.57,0,0,0,2.66-3.35,14.6,14.6,0,0,0,1.56-3,75.78,75.78,0,0,1-7.44-4.78,73.36,73.36,0,0,1-16.93-17.4c-1.48-2.13-2.83-4.27-4.07-6.47s-2.36-4.46-3.37-6.72-1.91-4.54-2.72-6.81-1.53-4.55-2.16-6.82c-.53-1.93-1-3.87-1.4-5.78s-.78-3.77-1.1-5.62c-.62-3.72-1-7.32-1.31-10.72s-.39-6.62-.4-9.56.05-5.64.18-8Z"/><path id="path4086" class="cls-5" d="M117.86,103.64a8.75,8.75,0,0,0-2.28.24,8.27,8.27,0,0,0-2.2.89,20.79,20.79,0,0,0-2.27,1.5,14.7,14.7,0,0,0-1.72,1.51,11.63,11.63,0,0,0-1.19,1.5,9.64,9.64,0,0,0-.78,1.48,7.31,7.31,0,0,0-.4,1.45,6.48,6.48,0,0,0-.11,1.38,8.61,8.61,0,0,0,.5,2.71,12.75,12.75,0,0,0,1.09,2.33,15.72,15.72,0,0,0,1.27,1.88,18.45,18.45,0,0,0,1.65,1.84l.85-.21a26.52,26.52,0,0,1,4.54-.59,22.76,22.76,0,0,1,2.73,0,21.74,21.74,0,0,1,2.83.37,21.6,21.6,0,0,1,5.85,2.05,13.23,13.23,0,0,0,1-1.76,11.49,11.49,0,0,0,.65-1.77,12,12,0,0,0,.43-3.54,12.53,12.53,0,0,0-.56-3.4,14,14,0,0,0-1.39-3.11,15.12,15.12,0,0,0-2-2.7,14.65,14.65,0,0,0-2.54-2.13,12.09,12.09,0,0,0-2.84-1.4,9.94,9.94,0,0,0-3-.56Z"/><path id="path4090" class="cls-5" d="M170.74,105.19a14.19,14.19,0,0,0-2.48.24,19.85,19.85,0,0,0-2.9.76,27.86,27.86,0,0,0-2.78,1.09,20.57,20.57,0,0,0-2.26,1.18,16.21,16.21,0,0,0-1.75,1.28,11,11,0,0,0-1.32,1.33,8.81,8.81,0,0,0-.94,1.37,7.36,7.36,0,0,0-.59,1.37,8,8,0,0,0-.39,2.68,8.64,8.64,0,0,0,.44,2.47,8.51,8.51,0,0,0,.95,2,6.24,6.24,0,0,0,.75.93,2.94,2.94,0,0,0,1,.66v.21a26.76,26.76,0,0,1,4.66-1.13,22.75,22.75,0,0,1,4-.24,20.27,20.27,0,0,1,4.09.52,19.31,19.31,0,0,1,4.2,1.51,9.06,9.06,0,0,0,2-2.46,13.3,13.3,0,0,0,1.28-3.2,14.22,14.22,0,0,0,.44-3.5,11.75,11.75,0,0,0-.48-3.38,9.84,9.84,0,0,0-.61-1.57,7.49,7.49,0,0,0-.89-1.37,6.83,6.83,0,0,0-1.15-1.13,6.75,6.75,0,0,0-1.42-.87,8.07,8.07,0,0,0-1.74-.57,10,10,0,0,0-2.11-.19Z"/><path id="path3060" class="cls-6" d="M142.94,28.16c-19.07,0-40.86,7.14-53.28,33.62C76.8,70,53.21,82.15,70,136.44c13.57,35.36,43.94,66.41,43.94,66.41l3.22-2.13S27.87,106.79,91.44,65c8.21-10.71,23.92-44.65,76.78-28.94,37.5,19.65,37.86,56.81,35.72,70.38-.23,1.45,3.52,1.74,5.81,5.15a29.45,29.45,0,0,0-2.59-4.81c1.43-16.43,2.85-56.41-38.22-74.62a89.36,89.36,0,0,0-26-4Zm66.81,83.43a11.61,11.61,0,0,1,.94,7.1c.25-.6.5-1.2.72-1.81a10.59,10.59,0,0,0-1.66-5.29Zm.94,7.1a37.49,37.49,0,0,1-1.88,3.81A9.34,9.34,0,0,0,210.69,118.69Zm-99.5-56.06c-8.67,0-12.81,2.43-12.81,2.43,32.7,33.61,68.15,19.8,95.65,40.28-41.37-35.93-68.4-42.69-82.84-42.71Zm97.59,59.93a42.32,42.32,0,0,1-4.84,4.6v2.12A34,34,0,0,0,208.78,122.56Zm-4.84,6.72c-1.1,1.15-2,1.77-2.22,1.53-1.95,28.69.61,73,39.34,90.63-7.5,8.21-18.21,19.27-42.5,22.12l1.1,3.6s37.09-8.63,44.59-26.85c-10.26-8.84-40.16-15.53-40.31-91Z"/><path id="path3062" class="cls-7" d="M115.53,61.16c-11.93.25-17.15,4.18-17.15,4.18C134.72,95,168.32,77.21,198,94.41,157.3,66.55,130.87,60.83,115.53,61.16ZM95.72,68.69S107.08,93.94,171,103.28c15.4,3.79,22.21,6.06,23,9.6,4.29-3.29,4-5.57,8.84-5.32-4.29-3.53-7.83,0-8.84.75C180.06,94.93,125.28,98,95.73,68.69Zm2,4.28c.76,20.45-4.53,49.5-4.53,49.5-2-1.52-2.27-6.58-4-11.63a69.37,69.37,0,0,0,3,19.19c10.1-18.18,8.81-54,8.81-54l-3.28-3Zm103,65.44a9.4,9.4,0,0,1-3.94.87s-4.11,3.22-7,0c-1.61,3.39-10.53,25.36-33.75,32.5a11.88,11.88,0,0,1,.38,2.69s19.8.17,35.15-31.44c3.75,1.07,5.38.71,6.63-.72a3.79,3.79,0,0,0,2.5-3.9Zm-119.91.34c-1,3.78,2.27,6.31,5.81,6.18a6,6,0,0,0,5.53,1.47c4,7.79,16.63,27.23,42.44,28.85-.25-3-.25-2.78-.25-2.78s-27.3,0-40.81-31c0-.23,0-.16,0-.4,0,.06-.08.12-.13.19-.08-.2-.16-.37-.25-.57a18.94,18.94,0,0,0-2.34,2.28,12.27,12.27,0,0,1-4-.78c-3,1.39-4.29-1.38-6.06-3.4Z"/><path id="path3082" class="cls-8" d="M128,193.56s-34.64,17.16-39.28,40.38c0,0,16.6-27,41.78-36.63A27.59,27.59,0,0,0,128,193.56Zm38.12,1.38s-2.52.51-3.28,1.78c2.91,4.79,10.11,7.17,18.19,11.34,17.43,10.48,15.67,27.78,17.94,37.5,4.17-22.35-13.89-40-18.94-42s-13.9-8.59-13.9-8.59Zm-29.5,50.46c-.51,0-1,0-1.56,0,0,0,13.14,3,18.19,15.28.68-1.64,1.89-3.65.25-8.19,3.91,3.91,3.81,5.94,3.81,5.94s2.18-3.41-2-6.72a30.7,30.7,0,0,0-18.65-6.35Z"/><path id="path4130" class="cls-8" d="M195,131.06a2.51,2.51,0,0,0-.91.19,2,2,0,0,0-.71.47,2,2,0,0,0-.47.72,2.23,2.23,0,0,0-.19.9,2.17,2.17,0,0,0,.19.88,2.14,2.14,0,0,0,.47.72,2.4,2.4,0,0,0,.71.5,2.49,2.49,0,0,0,.91.15,2.33,2.33,0,0,0,.88-.15,2.4,2.4,0,0,0,.71-.5,2.22,2.22,0,0,0,.5-.72,2.15,2.15,0,0,0,.16-.88,2.22,2.22,0,0,0-.16-.9,2,2,0,0,0-.5-.72,2,2,0,0,0-.71-.47A2.35,2.35,0,0,0,195,131.06ZM88.35,132.81a2.3,2.3,0,0,0-.91.16,2.22,2.22,0,0,0-.72.5,2.07,2.07,0,0,0-.46.72,2.23,2.23,0,0,0-.19.9,2.14,2.14,0,0,0,.19.88,2,2,0,0,0,1.18,1.18,2.32,2.32,0,0,0,.91.19,2.09,2.09,0,0,0,.87-.19,2.07,2.07,0,0,0,.72-.46,2.22,2.22,0,0,0,.5-.72,2.12,2.12,0,0,0,.16-.88,2.22,2.22,0,0,0-.16-.9A2.47,2.47,0,0,0,89.22,133,2.08,2.08,0,0,0,88.35,132.81Z"/><path id="path3088" class="cls-1" d="M197.34,132.09c-1.23,2.9-5.13,2-5.13,2C196.57,138.64,197.59,134.74,197.34,132.09ZM90.72,133.5c-1.58,3.91-5,2.66-5,2.66C89.92,140.58,91.41,135.65,90.72,133.5Z"/><path id="path2997" d="M142.59,27.42c-16.69.21-28.7,5.78-37,12.38A54,54,0,0,0,89.21,60.87,18.28,18.28,0,0,0,85,62.46C32,96.42,88,182.32,112,202.61c-1.59,1.17-3.22,2.41-4.85,3.74a70.16,70.16,0,0,0-13.58,14.19c-3.59,5.28-5.83,11.08-5.19,17,1.45-8,3.84-11,7-15.78a67.92,67.92,0,0,1,13.15-13.73,128.68,128.68,0,0,1,19.48-13,18,18,0,0,0,3.08,2.91c-.82-2.16-2.84-4.27-2.26-6.13a1.21,1.21,0,0,1,.26-.94,3.46,3.46,0,0,1,1.09-.91,14.51,14.51,0,0,1,4.38-1.31,5.78,5.78,0,0,1-1.13,3c7,5.85,16.36,5.41,25.08,1.74l1.24-.52-.74-1.12a10,10,0,0,1-1.21-2.76,24,24,0,0,1,5.87,2.53,4.4,4.4,0,0,1,1.29,1.26.9.9,0,0,1,.1.93c-.3.72-2,2.22-6.17,3.75,2,.74,5.44-.45,7.33-1.53,9.69,10.61,33.43,9.46,32.07,49.86l-.06,1.33,1.31-.2c13.58-2,24.49-6.33,32.33-11.29s12.67-10.48,14-15.3l.22-.85-.75-.42C224.33,207.64,213.92,189,208.94,171a124.12,124.12,0,0,1-3.65-43.06c6.69-5.06,7.57-10.5,6.4-14.5a14.38,14.38,0,0,0-3.86-6.35c0-.32.11-.8.2-1.46.19-1.4.46-3.47.65-6a79.37,79.37,0,0,0-1.07-20.39c-3-16.05-12.44-35.41-38-47.94l-.11,0-.09,0a101.8,101.8,0,0,0-21.48-3.61c-1.83-.1-3.6-.13-5.33-.11Zm.54,2.18a96.35,96.35,0,0,1,25.6,3.67C193.6,45.5,202.5,64,205.42,79.56a76.88,76.88,0,0,1,1,19.81c-.19,2.52-.44,4.54-.63,5.93-.05.38-.07.6-.11.88a11.46,11.46,0,0,0-9.21,2.22,14.6,14.6,0,0,0-2.5,2.46,11.86,11.86,0,0,0-4.24-3,56.54,56.54,0,0,0-9.84-3.17c-7.87-2-18.07-3.77-28.83-6.36-21.51-5.19-45-13.54-56-31.9-.17,3.44,3,8.22,4.21,9.9A186.23,186.23,0,0,1,99,96.12c-.68,10.1-2.42,22-6.26,30.79-3.32-6.22-2.32-15.74-4.2-19,0,0-.07,1.26-.09,3.15a16.41,16.41,0,0,0-3.27-2.41,9.25,9.25,0,0,0-3.93-1.18,7.25,7.25,0,0,0-1.46.07,8.92,8.92,0,0,0-5.7,4l-.13.17,0,.2c-2.6,9.84,3.32,18.51,5,20.74a3.6,3.6,0,0,0-.28,2.63,4.87,4.87,0,0,0,1.85,2.48,1.74,1.74,0,0,0,0,.22A4.56,4.56,0,0,0,82.16,142a4.37,4.37,0,0,0,4.17,1.37,2.7,2.7,0,0,0,.53-.22,5.13,5.13,0,0,0,3,1.22A4.16,4.16,0,0,0,93.1,143c.09-.1.18-.19.26-.29A45.28,45.28,0,0,0,97.89,152c5.79,9.07,16.37,18.28,35.32,21.61a23.88,23.88,0,0,1,1.89,12.67,17.08,17.08,0,0,0-5.94,1.76,5.67,5.67,0,0,0-1.82,1.56,3.62,3.62,0,0,0-.64,2.46,4,4,0,0,0,.26,1,132.32,132.32,0,0,0-13.07,8.16C85.82,175.55,39.73,97.12,86,64.46a16.31,16.31,0,0,1,4.2-1.55l.65-.1.22-.61a52.18,52.18,0,0,1,15.88-20.66c8.07-6.41,19.71-11.87,36.19-11.94ZM101.59,78a72.84,72.84,0,0,0,20.07,13,10.33,10.33,0,0,0-2.94-.18,17,17,0,0,0-4,.79c-2.15.94-7.35,3.49-8.43,7,5-2.47,8.51-2.89,11.58-2.4s5.81,1.94,9.14,3.46l2.18,1-.64-2.32a10.93,10.93,0,0,0-3.85-6,170.67,170.67,0,0,0,25.86,8.14c5.19,1.25,10.21,2.33,14.92,3.31l-.84.26c-8.76,2.93-11.65,8.07-11.54,12.47a10.85,10.85,0,0,0,1.76,5.63,8.39,8.39,0,0,0,1.22,1.5,24.41,24.41,0,0,0-.61,2.75,24.72,24.72,0,0,1,7.93-2.59,17.65,17.65,0,0,1,15.49,4.76,4,4,0,0,0-1.46-4c3.56-3.44,4.84-9.45,3.35-14.36a11.09,11.09,0,0,0-1.78-3.47l.37.09a56.07,56.07,0,0,1,9.46,3c2.33,1.09,3.64,2.26,4,3.33l.81,2.28,1.21-2.09a12.3,12.3,0,0,1,3-3.22,9,9,0,0,1,8.43-1.59,13.26,13.26,0,0,1,3.3,5.42c1,3.36.6,7.67-6,12.45l-.4.3,0,.5c-.1,1-.21,2.21-.3,3.51a2.35,2.35,0,0,0-.05-.37,4.18,4.18,0,0,0-4.33-3.14,3.81,3.81,0,0,0-1.15-1.56,3.76,3.76,0,0,0-2.66-.81,3.91,3.91,0,0,0-.83.15c.1-1.28.17-2.57.2-3.89a4.68,4.68,0,0,1,1.39-1.85,8.17,8.17,0,0,1,2.31,1.35c1.73,2,.51,1.47.13,3.75,2.38-1.47,3.3-3.52,1.41-5.36a7.65,7.65,0,0,0-1.24-.94c.25-.87,2.79-1.45,4.23-1.93a13,13,0,0,0-2.68-.39,8.15,8.15,0,0,0-5.51,1.76,7.63,7.63,0,0,0-2.19,3l-.05.17v.18c-.34,18.09-8.26,31.16-18,39.69S152.53,173,145.35,172.66h0c-26.1-1-39-11.54-45.57-21.83a43.32,43.32,0,0,1-6.66-19.47l.54-1c4.93-9.41,6.85-22.89,7.6-34.06.55-8.24.44-15.2.35-18.3ZM119.68,93a7.15,7.15,0,0,1,2.3.37,6.25,6.25,0,0,1,3.44,3.14,27.4,27.4,0,0,0-7.2-2.48,17.16,17.16,0,0,0-3.16-.16c.13-.05.24-.11.37-.15a14.35,14.35,0,0,1,3.42-.7,7.73,7.73,0,0,1,.83,0ZM114,99.56a1.87,1.87,0,0,0-.67,2.76c-.35.15-.69.32-1,.51s-.63.4-.94.6c0,0-3.48-.2-4.48-2-1.26,1.8.06,3.38,1.93,3.92l-.23.21a8.36,8.36,0,0,1-1.92.24,3.39,3.39,0,0,1-2.77-1c-1.05,1.93,1.17,3,2.55,3.2a10.75,10.75,0,0,0-1.06,2,10.23,10.23,0,0,0,0,7.07,17.61,17.61,0,0,0,3.7,6c-1.74.69-3.55,2.67-5.05,4.81a27.82,27.82,0,0,1,8.79-3.57A20.74,20.74,0,0,1,131,128.44a5.13,5.13,0,0,0-.83-3.33c7-11.06-3.39-24.63-13.51-23.68-1,.15-2.25-1.15-2.66-1.87Zm3.88,4.07c8.07.19,16.32,11.12,10.36,20.37a22.55,22.55,0,0,0-11.41-2.46,26.52,26.52,0,0,0-4.54.59l-.85.21a16.52,16.52,0,0,1-4-6,7.78,7.78,0,0,1,0-5.54c.76-1.93,2.49-4,6-6a8.43,8.43,0,0,1,4.48-1.13Zm52.88,1.55a9.16,9.16,0,0,1,3.85.76,7.6,7.6,0,0,1,4.07,4.94c1.3,4.26-.15,10-3.24,12.55a19.7,19.7,0,0,0-8.29-2,23.74,23.74,0,0,0-4,.24,26.76,26.76,0,0,0-4.66,1.13v-.2a4.19,4.19,0,0,1-1.72-1.59,8.73,8.73,0,0,1-1.39-4.48c-.08-3.45,1.83-7.57,10-10.31a17.43,17.43,0,0,1,5.38-1Zm-90.09,4.5a6.6,6.6,0,0,1,3.48.91,16.07,16.07,0,0,1,4.35,3.72c.05,1.36.17,2.88.33,4.45a12.82,12.82,0,0,0-7.34-2.23,5.82,5.82,0,0,0-1,.07c2.35,1,4.4,1.5,5,2.85a6.8,6.8,0,0,0-1,.59,3.75,3.75,0,0,0-1.65,2.5,4.72,4.72,0,0,0,1.35,3.64c.09-2.44.85-5.93,3.83-5.27A13.6,13.6,0,0,1,89.27,122a39,39,0,0,0,1.16,5,6.46,6.46,0,0,0-2.77-1,4.8,4.8,0,0,0-2.17.21,3,3,0,0,0-1.72,1.46,3.49,3.49,0,0,0-.13,2.52c0,.11.09.23.13.35a5.63,5.63,0,0,0-1.35-.08,4.73,4.73,0,0,0-1.87.54c-1.64-2.26-6.6-10-4.49-18.41a6.45,6.45,0,0,1,4.1-2.9l.5-.06Zm84.13.39a4.05,4.05,0,1,0,4.43,4A4.22,4.22,0,0,0,164.79,110.07Zm-43.2.29a4,4,0,1,0,4.4,4A4.22,4.22,0,0,0,121.59,110.36ZM194.77,127a1.66,1.66,0,0,1,1.13.39,1.79,1.79,0,0,1,.61,1.71,4.42,4.42,0,0,0-1.54-.28,4.58,4.58,0,0,0-1.66.31c.07-.51.15-1,.22-1.55a2.33,2.33,0,0,1,1.24-.58Zm-108,1.21a3,3,0,0,1,.66,0A4,4,0,0,1,90,129.57a2.12,2.12,0,0,1,.51,1.57,4.39,4.39,0,0,0-2.14-.55,4.62,4.62,0,0,0-1.89.42,5.55,5.55,0,0,1-.66-1.39,1.25,1.25,0,0,1,0-.92.71.71,0,0,1,.46-.35,1.83,1.83,0,0,1,.52-.11Zm111.92,1.22a1.71,1.71,0,0,1,1.9,1.39,1.76,1.76,0,0,1-1.14,2.05,4.54,4.54,0,0,0-1-2.42,4.93,4.93,0,0,0,.26-1Zm-3.7,1.61a2.27,2.27,0,0,1,0,4.53,2.27,2.27,0,1,1,0-4.53Zm7.79.83a125.69,125.69,0,0,0,4,39.65c5,18.12,15.59,37.12,36.67,49-1.37,3.8-5.6,8.81-12.71,13.31-7.3,4.61-17.52,8.69-30.2,10.73.77-40.77-25.4-41.17-33.17-50.7a3.45,3.45,0,0,0-.42-2.11,6.47,6.47,0,0,0-2-2,25.88,25.88,0,0,0-7.66-3.18,37.12,37.12,0,0,1-.33-6.92,59.23,59.23,0,0,1,.72-7,55.33,55.33,0,0,0,32.6-32.1,5.63,5.63,0,0,0,2.61,1.2,4.33,4.33,0,0,0,4-.83,2.39,2.39,0,0,0,.42-.6,3.74,3.74,0,0,0,3.81-1.37,4.08,4.08,0,0,0-.05-4.57,4.31,4.31,0,0,0,1.63-2.53Zm-120.15.8a3.71,3.71,0,0,1,1.72.35,4.36,4.36,0,0,0-.5,2v.11a5.5,5.5,0,0,0-1.93.71l0,0a2.61,2.61,0,0,1-1-1.29,1.24,1.24,0,0,1,.26-1.22,2.14,2.14,0,0,1,1.54-.72Zm5.73.11a2.27,2.27,0,1,1-2.27,2.27A2.24,2.24,0,0,1,88.35,132.81ZM199,135.27c1,1.15.77,1.91.41,2.4a1.49,1.49,0,0,1-2,.39,5.87,5.87,0,0,0-.35-.78,4.56,4.56,0,0,0,1.9-2Zm-63.94,1.09c-.49,1.25.45,3.33,2.26,4.2a23.71,23.71,0,0,0,9.89,6.27c-1.47-1.57-3.49-3.39-4.86-4.9a21.36,21.36,0,0,0,9.36-1.26c-5.77-1-12,.3-16.65-4.31Zm57,.44a4.49,4.49,0,0,0,2.7,1,3.3,3.3,0,0,1,.63,1.24c0,.26,0,.24-.07.31a2.92,2.92,0,0,1-2,.24,2.86,2.86,0,0,1-1.91-1.12.88.88,0,0,1,0-.76,3.46,3.46,0,0,1,.63-.95Zm-107.72.55s0,0,.06,0a4.51,4.51,0,0,0,2.11,1.89,4.29,4.29,0,0,1-.34,1.48c-.2.4-.35.48-.53.54a2.7,2.7,0,0,1-2-.85,3,3,0,0,1-1-2.06.73.73,0,0,1,.43-.57,3.52,3.52,0,0,1,1.31-.43Zm6.94,1.06a2.28,2.28,0,0,1,.09,3.13,1.88,1.88,0,0,1-1.48.62,2.79,2.79,0,0,1-1.65-.66,6.28,6.28,0,0,0,.47-1.93,4.48,4.48,0,0,0,2.57-1.16Zm40.14,11.3c1.43,1.91,1,5.81-.69,8A6.72,6.72,0,0,0,133,155c3.81,2,14.36,6.1,24.83-.93.45.74,2.25,1.45,3.25,1.74-2.4-1.94-3.6-3.4-4.27-6.46a6.39,6.39,0,0,0,.11,2.67c-10.75,7.5-21.43,1.94-23.7.59.09-1.39-1.08-2.25-1.73-2.85Zm19.18,10a9.54,9.54,0,0,1-10.94.17C140.56,164.21,149.21,164.55,150.65,159.7Zm4.7,13.79a61,61,0,0,0-.56,6.1c-.17,4.06.08,8.71,1.81,12.22-7.55,2.95-14.52,3.4-20.29-.93a25.68,25.68,0,0,0-.54-16.8,90.21,90.21,0,0,0,9.46.81,31.29,31.29,0,0,0,10.12-1.4Zm-22.56,72.42a40.17,40.17,0,0,1,9.62.94c4.86,1.45,8.48,5.72,11.11,9.07-.69-2.37-1.64-5-3.91-6.8A30.3,30.3,0,0,1,157.4,254c-1.09-2.77-12.6-12.38-24.61-8.1Z"/><path id="path4150" class="cls-9" d="M194.75,127a2.39,2.39,0,0,0-1.22.59c-.06.52-.17,1-.25,1.53a4.74,4.74,0,0,1,1.69-.31,4.56,4.56,0,0,1,1.53.28,1.92,1.92,0,0,0-.09-1,1.74,1.74,0,0,0-.54-.68,1.57,1.57,0,0,0-1.12-.41Zm-108,1.22a2.42,2.42,0,0,0-.53.09.76.76,0,0,0-.47.38,1.22,1.22,0,0,0,0,.9,5.62,5.62,0,0,0,.66,1.41,4.49,4.49,0,0,1,1.9-.44,4.39,4.39,0,0,1,2.13.56,2,2,0,0,0-.1-.87,2.55,2.55,0,0,0-.4-.72,3.32,3.32,0,0,0-1.13-.87,4.23,4.23,0,0,0-1.43-.44,2.91,2.91,0,0,0-.66,0Zm111.91,1.22a4.58,4.58,0,0,1-.25,1,4.56,4.56,0,0,1,.69,1.12,4.47,4.47,0,0,1,.31,1.32,2.12,2.12,0,0,0,1.06-1,1.75,1.75,0,0,0,.1-1.1,1.69,1.69,0,0,0-.54-1,2.09,2.09,0,0,0-1.37-.4ZM82.6,132.69a2.26,2.26,0,0,0-.91.25,2,2,0,0,0-.62.5,1.1,1.1,0,0,0-.28.53,1.36,1.36,0,0,0,0,.69,1.69,1.69,0,0,0,.31.59,3.43,3.43,0,0,0,.72.69s0,0,.06,0a5.28,5.28,0,0,1,1.91-.72v-.1a4.48,4.48,0,0,1,.5-2,3.74,3.74,0,0,0-1.72-.37ZM199,135.28a4.71,4.71,0,0,1-.81,1.12,4.49,4.49,0,0,1-1.1.88,4.46,4.46,0,0,1,.35.78,1.61,1.61,0,0,0,1.15.15,1.42,1.42,0,0,0,1.1-1.5,2.63,2.63,0,0,0-.69-1.43Zm-6.91,1.53a3.3,3.3,0,0,0-.62.94.86.86,0,0,0,0,.75,1.82,1.82,0,0,0,.69.65,3.58,3.58,0,0,0,1.21.5,3.65,3.65,0,0,0,1.32,0,1.39,1.39,0,0,0,.68-.25c.08-.08.14-.05.1-.31a3.74,3.74,0,0,0-.66-1.25,4.63,4.63,0,0,1-1.44-.31,4.85,4.85,0,0,1-1.25-.72Zm-107.69.53a3.49,3.49,0,0,0-1.31.44c-.33.21-.4.35-.44.56a2,2,0,0,0,.22.94,3.79,3.79,0,0,0,.78,1.12,3.68,3.68,0,0,0,1.16.72,1.59,1.59,0,0,0,.87.13c.19-.06.34-.14.54-.54a4.55,4.55,0,0,0,.34-1.5,4.51,4.51,0,0,1-1.22-.75,5.19,5.19,0,0,1-.91-1.12Zm6.94,1.06a4.54,4.54,0,0,1-1.19.78,4.4,4.4,0,0,1-1.4.38,6.68,6.68,0,0,1-.44,1.94,3.48,3.48,0,0,0,.88.5,2.38,2.38,0,0,0,.75.15,2.09,2.09,0,0,0,.84-.15,2,2,0,0,0,.66-.47,2.21,2.21,0,0,0,.56-1.35,2.3,2.3,0,0,0-.13-.87,3.1,3.1,0,0,0-.53-.91Z"/><path id="path4181" class="cls-5" d="M124.21,113.07a1.42,1.42,0,1,1-1.42-1.42,1.43,1.43,0,0,1,1.42,1.42Z"/><path id="path4183" class="cls-5" d="M167.42,112.77a1.42,1.42,0,1,1-1.42-1.42,1.43,1.43,0,0,1,1.42,1.42Z"/><path id="path3048" class="cls-10" d="M165.91,127c-4.88,0-8.81,1.83-8.81,4.06s3.93,4,8.81,4,8.84-1.8,8.84-4S170.79,127,165.91,127Zm-49.37.53c-5.1,0-9.19,1.91-9.19,4.28s4.09,4.28,9.19,4.28,9.21-1.91,9.21-4.28S121.63,127.53,116.54,127.53Zm23.12,5c-1.26,0-2.28.53-2.28,1.16s1,1.12,2.28,1.12,2.28-.49,2.28-1.12S140.92,132.56,139.66,132.56Zm8,26.06c-.61,0-1.13.39-1.13.85s.52.84,1.13.84a.87.87,0,1,0,0-1.69Z"/><path id="path3092" class="cls-11" d="M195.22,131.62a.63.63,0,0,0,0,1.25.63.63,0,1,0,0-1.25Zm-107,1.94a.65.65,0,0,0-.63.66.63.63,0,0,0,.63.62.65.65,0,0,0,.66-.62A.68.68,0,0,0,88.25,133.56Z"/></g></g></svg>