<svg id="Layer_1" data-name="Layer 1" xmlns="http://www.w3.org/2000/svg" viewBox="0 0 200.62 527.79"><defs><style>.cls-1,.cls-2{fill:purple;}.cls-1{fill-opacity:0.92;}.cls-1,.cls-10,.cls-2,.cls-3,.cls-4,.cls-5,.cls-6,.cls-7,.cls-8{opacity:0.75;isolation:isolate;}.cls-3{fill:#d45500;}.cls-4{fill:#803300;}.cls-5{fill:#fca;}.cls-6{fill:#d40000;}.cls-7{fill:#fa0000;}.cls-9{fill:none;stroke:#000;}.cls-10{fill:#241f1c;}</style></defs><title>girl-17</title><g id="g3557"><g id="g3559"><path id="path3561" d="M144.5,23.76C137.2,15.55,129,6.94,118.67,2.69c-10.9-4.48-21.16-2.85-31.92,1.1C67.9,10.71,43,13.1,29.79,30A197.42,197.42,0,0,0,8.44,63.71,80.26,80.26,0,0,0,0,102.05c.29,14.64,3.06,29.18,5.56,43.57,2.63,15.08,2.54,29.22.87,44.41s-3.72,30.16-1.58,45.32c.89,6.35,3.4,12.13,4.9,18.31a95.79,95.79,0,0,1,2.06,16.53c1.23,19.06.69,43.18,20.65,52.87,1.73.84,3.25-1.75,1.51-2.59-20-9.69-18-35.07-19.41-53.83a102.9,102.9,0,0,0-1.68-12.73c-1.22-6-3.72-11.62-4.86-17.67-2.77-14.61-.45-29.87,1.21-44.47,1.61-14.05,2.46-27.77.11-41.79C6.8,134.66,3.8,119.4,3.07,103.84s3-29.41,10.31-43.17a190.6,190.6,0,0,1,10.7-17.35C27.69,38,31.17,32.17,35.91,27.75,49.43,15.12,70.72,12.65,87.54,6.69,98.19,2.91,108,1.16,118.7,6c9.45,4.26,16.91,12.31,23.68,19.92,1.28,1.45,3.4-.68,2.12-2.12Z"/></g></g><g id="g5065"><g id="g3431"><g id="g3433"><path id="path3435" d="M30.92,91.41c-8.77,17.12-1.52,37.38,7.48,52.84,9.33,16,23.4,31.75,41.21,38.19,20.08,7.27,41.27,4,56-12,7.25-7.91,12-18,16.37-27.74a180.73,180.73,0,0,0,11.54-33.83,70.43,70.43,0,0,0,2-19.66c-.1-1.64-.38-7.84-3.68-5.24-1.52,1.2.62,3.31,2.12,2.12-1.83-.55-2.35.12-1.54,2,.05,1.13.17,2.27.2,3.41a54.91,54.91,0,0,1-.39,7.47,103.82,103.82,0,0,1-3.74,17.6,193,193,0,0,1-13,33c-5,10-11,19.56-20.25,26.2C116.41,182,105.76,184,95.22,183c-21.68-2-38-16.54-50-33.69C34.48,134,24.13,111.22,33.51,92.93c.88-1.72-1.71-3.24-2.59-1.52Z"/></g></g><g id="g3437"><g id="g3439"><path id="path3441" d="M79.7,106.46a24.6,24.6,0,0,1-.83,2.83,5.82,5.82,0,0,0,1,4,1.52,1.52,0,0,0,2.36.3c1.2-1.18,2.89-2.16,3.85-3.54s.67-3.18.67-4.66l-1.5,1.5h.16a1.5,1.5,0,0,0,0-3H83.08a1.5,1.5,0,0,0,0,3h.16L81.79,105l-.63,4.41c-.18,1.32-.88,3.36,0,4.5,2.18,2.71,4.85-4.51,5.37-5.71.6-1.42-1.2-3.27-2.36-1.82l-4.08,5.1,2.35,1.82a57.18,57.18,0,0,0,4.09-6.12l-2.8-.76v4.08a1.51,1.51,0,0,0,1.9,1.45c1.59-.6,2.86-1.46,3-3.26.15-1.58-1.45-2.91-2.67-3.56-1.7-.92-3.22,1.67-1.52,2.59a2.89,2.89,0,0,1,1.1.82c.19.25-.3.35-.74.52l1.9,1.44v-4.08A1.51,1.51,0,0,0,84,105.7a57.23,57.23,0,0,1-4.08,6.13c-1,1.4,1.28,3.15,2.35,1.81l4.08-5.1L84,106.72q-.55,1.27-1.14,2.52c-.32.66-.64,1.31-1,1.94-.12.21-.25.42-.39.62.09-.11.09-.12,0,0l2.22.63c0,.56,0,.73,0,.51q.5-3.56,1-7.09a1.53,1.53,0,0,0-1.45-1.9h-.16a1.5,1.5,0,0,0,0,3h2.36a1.5,1.5,0,0,0,0-3h-.16a1.52,1.52,0,0,0-1.5,1.5c0,.85,0,1.69,0,2.54a2.83,2.83,0,0,1-.1.47c0-.1,0,0-.06,0-1,1.11-2.36,2-3.43,3l2.36.31a2.78,2.78,0,0,1-.44-2.81,8.45,8.45,0,0,0,.64-2.56c.09-1.94-2.91-1.93-3,0Z"/></g></g><g id="g3443"><g id="g3445"><path id="path3447" d="M106.23,105.43c-.09,1.23-1.43,2.19-1.53,3.53-.15,2,1.65,3.18,3.29,3.89a1.53,1.53,0,0,0,2.21-.9c.85-2.68,1.18-5.48,2-8.16a1.51,1.51,0,0,0-1.45-1.9h-1a1.53,1.53,0,0,0-1.5,1.5,11.3,11.3,0,0,1-2.62,5.06,1.52,1.52,0,0,0,.3,2.36c1.43.7,6.34,3.09,6.34-.3v-6.2a1.5,1.5,0,0,0-3,0v.1h3a1.67,1.67,0,0,0-.23-.85,1.52,1.52,0,0,0-1.3-.75c-1.29.11-1.77,1.38-2.29,2.4l-1,2c-.14.29-.29.58-.45.86-.53,1-.45.15.75,0l1.29.74.18.66-3,.4c.53,2.61,6.45,2.61,7,0l-1.05,1c2.6-.53.83-3.74,0-5-.43-.68.23,1.18,0-.11a1.62,1.62,0,0,0-1.12-1.15,2,2,0,0,0-2,.86,19.44,19.44,0,0,0-2.54,4.51c-.3.71-.71,1.57-.25,2.32a1.59,1.59,0,0,0,2.52.24l-1.06.44c1.93,0,6.42-.7,4.12-3.58L110.39,112c4.91,2,2.35-9.62-1.38-6.83l2.26,1.3a1.85,1.85,0,0,0-.24-.89,1.55,1.55,0,0,0-1.69-.69c-1.27.19-1.78,2.39-2.07,3.37-.38,1.25-.65,3.37,1.08,3.74a1.53,1.53,0,0,0,1.7-.69l2-4.08a1.52,1.52,0,0,0-1.3-2.26,3,3,0,0,1,.43.08c-.22-1.45-2.07-1.24-2.74-.36-1,1.24-.18,3-1,4.08-1.17,1.54,1.44,3,2.6,1.52.94-1.24.17-3,1-4.08l-2.75-.36a2.5,2.5,0,0,0,2.47,2.12l-1.29-2.25-2,4.08,1.69-.69c1.22.25.67,1.5.88.47a10.27,10.27,0,0,1,.29-1,8.36,8.36,0,0,1,.32-.83c.36-.82.34,0-.5.09l-1.7-.69c-.06-.21-.11-.42-.17-.63.1,1,1.25,2,2.26,1.3-.89.66-1.42-.68-.88.29a4.4,4.4,0,0,1,.33.85,3.27,3.27,0,0,1,.18.81c.06.66,1.72-.33,1-.61-1.56-.65-2.27,1.49-1.46,2.5-1.29-1.62,1.19-1.94-.22-1.65a7.46,7.46,0,0,1-1.16.1h-.59a1.59,1.59,0,0,0-.43.06l-.36.15c-.58.4-.37.36.62-.12l1.29.74c.49.78,0,1.36.31.5.1-.25.25-.56.38-.83a26.49,26.49,0,0,1,1.37-2.51,4.37,4.37,0,0,1,.44-.62c.39-.45-3-1.87-1.86-.18q.27.42.51.84a8.73,8.73,0,0,1,.42.8c.52,1-.74-.46,1-.81a1.44,1.44,0,0,0-1,1c.52-.43.58-.57.16-.4a3.21,3.21,0,0,1-.76.07q-.3,0-.6,0c-.69-.06-.15-.41,0,.36-.34-1.64-3.13-1.28-3,.4a1.73,1.73,0,0,0,.23.86,1.49,1.49,0,0,0,1.3.74c1.29-.11,1.77-1.37,2.29-2.39l1-2c.14-.29.29-.58.45-.86.53-1,.45-.15-.75,0l-1.29-.74-.18-.66c.2,1.88,3,2,3,0v-.1a1.5,1.5,0,0,0-3,0v6.06c0,.76,0-.91,1.11-1.05a1.75,1.75,0,0,1-.54-.12,12.77,12.77,0,0,1-2.39-1l.3,2.35a13.8,13.8,0,0,0,3.5-7.18l-1.5,1.5h1l-1.45-1.9c-.85,2.68-1.18,5.49-2,8.16l2.21-.89a4,4,0,0,1-1.85-1.11,8.37,8.37,0,0,1,.45-.84,6.46,6.46,0,0,0,1.12-2.88c.14-1.93-2.86-1.92-3,0Z"/></g></g><g id="g3449"><g id="g3451"><path id="path3453" d="M62.56,124.56c7.69,16.65,23,32.15,43,29.15,15.89-2.38,25-19.68,32.05-32.21A1.5,1.5,0,0,0,135,120c-6.63,11.8-14.14,26.22-28.07,30.35-8.71,2.58-18.23-1.2-25.51-5.85-7.79-5-12.51-13.28-16.28-21.43C64.34,121.29,61.75,122.82,62.56,124.56Z"/></g></g><g id="g3455"><g id="g3457"><path id="path3459" d="M128.68,50.33c-4.57,47.19-68.81,22.78-96.2,41.56C30.9,93,32.4,95.58,34,94.49c7.67-5.26,17.5-6.42,26.53-7.32C71.24,86.11,82,85.8,92.69,84.3c9.31-1.31,18.88-3.71,26.53-9.4,7.93-5.91,11.53-15,12.46-24.57.19-1.92-2.82-1.91-3,0Z"/></g></g><g id="g3461"><g id="g3463"><path id="path3465" d="M126.69,49.93C118,70.79,149.51,99.21,168,83c1.46-1.28-.67-3.4-2.12-2.13-8.09,7.1-19.48,2.77-26.87-3.15-8-6.37-13.58-17-9.4-27C130.33,49,127.42,48.17,126.69,49.93Z"/></g></g><g id="g3467"><g id="g3469"><path id="path3471" d="M128.62,50.33c1.31-13.56-3-27-16.89-31.61-14.4-4.8-30.5,3.09-42.92,9.77C55.21,35.82,38.51,47,32.48,61.93A85.58,85.58,0,0,0,27.19,83c-.83,6.46-1.65,14.19,1.69,20.13a1.51,1.51,0,0,0,2.6-1.52c-2.85-5-2.07-11.79-1.46-17.31A88,88,0,0,1,34.7,64.45c5.15-14.33,20.57-24.69,33.12-32C79.2,25.89,92.69,19.3,106.18,20.6c15.58,1.5,20.77,16,19.44,29.73-.19,1.93,2.82,1.91,3,0Z"/></g></g><g id="g3473"><g id="g3475"><path id="path3477" d="M127.6,55.43c-1.08-10,10.55-18,18.06-22.14,8.65-4.76,19.7-7.24,26.53,1.67,5.62,7.34,5.36,18.2,3.79,26.82-1.48,8.19-4.95,17.79-11.86,23-1.53,1.15,0,3.75,1.51,2.59,8.23-6.17,12-17.08,13.61-26.88,1.61-10,.78-21.63-6.41-29.35-7.88-8.45-19.75-5.05-28.68-.41-8.49,4.42-20.74,13.81-19.55,24.74C124.81,57.34,127.81,57.36,127.6,55.43Z"/></g></g><g id="g3479"><g id="g3481"><path id="path3483" d="M127.87,55.71C146.62,43.25,161,63.49,167.5,79.3c.72,1.77,3.63,1,2.9-.79-7.19-17.61-23.46-39.07-44.05-25.39C124.75,54.18,126.25,56.78,127.87,55.71Z"/></g></g><g id="g3485"><g id="g3487"><path id="path3489" d="M126.5,52c-9.32-3.32-16.56,4.64-23,10.24-3.2,2.76-6.22,5.73-9.78,8-4.14,2.67-9.08,3.54-13.9,4-9.59.93-18.92,1-28.16,4.07s-17.28,8.44-25.26,13.6c-1.61,1-.11,3.65,1.52,2.6,7.81-5.06,15.7-10.2,24.53-13.3s18.15-3.29,27.37-4A33.51,33.51,0,0,0,98.7,70.29c7.31-5.69,16.77-19.09,27-15.45,1.83.65,2.61-2.25.8-2.89Z"/></g></g><g id="g3491"><g id="g3493"><path id="path3495" d="M125.08,42.65a1.5,1.5,0,0,0,0-3A1.5,1.5,0,0,0,125.08,42.65Z"/></g></g><g id="g3497"><g id="g3499"><path id="path3501" d="M125.83,39.85c-19.25-9-31.38,10.39-47.63,16.8-9.64,3.8-19.92,3.08-29,8.73-9.52,6-18.53,13.7-23.41,24-.83,1.74,1.76,3.26,2.59,1.52C33.23,80.73,41.75,74.21,50.74,68c8.34-5.77,19-5.17,28.26-8.43,15.27-5.36,27.46-25.43,45.31-17.1,1.75.82,3.27-1.77,1.52-2.59Z"/></g></g><g id="g3503"><g id="g3505"><path id="path3507" d="M114.25,24.4C98.51,19.46,82.73,36.3,70.77,43.93c-7.77,5-16.91,7.44-24.85,12.16A37.28,37.28,0,0,0,29.75,75.44c-.69,1.82,2.21,2.59,2.89.8C39.49,58,57.49,55.6,72.28,46.52c6.61-4.06,12.63-9.05,19.17-13.24,6.35-4.07,14.28-8.41,22-6,1.85.58,2.63-2.32.79-2.89Z"/></g></g><g id="g3509"><g id="g3511"><path id="path3513" d="M126.72,61C138.1,62.87,148.81,74.43,155.65,83c1.2,1.51,3.31-.63,2.12-2.13a92,92,0,0,0-15-14.73c-4.42-3.49-9.59-7.15-15.27-8.1C125.63,57.75,124.81,60.64,126.72,61Z"/></g></g><g id="g3515"><g id="g3517"><path id="path3519" d="M130.22,51.39c5.12-5.48,13.65-7.82,20.72-9.44,6.74-1.54,17.63-3.27,23.08,2.3,1.35,1.39,3.47-.74,2.12-2.12-5.87-6-16.14-4.82-23.61-3.55C144.31,40,134,43,128.1,49.27,126.78,50.68,128.9,52.81,130.22,51.39Z"/></g></g><g id="g3521"><g id="g3523"><path id="path3525" d="M134.66,50.76C146.08,47.69,165,43,174,53.43c1.27,1.47,3.38-.66,2.12-2.12-9.86-11.34-29.77-6.8-42.28-3.44A1.5,1.5,0,0,0,134.66,50.76Z"/></g></g><g id="g3527"><g id="g3529"><path id="path3531" d="M110,27.14a41.36,41.36,0,0,0,9.54,4.23c1.84.61,2.62-2.28.8-2.89a38.16,38.16,0,0,1-8.83-3.93C109.91,23.49,108.41,26.09,110,27.14Z"/></g></g><g id="g3533"><g id="g3535"><path id="path3537" d="M160.79,103.87a1.5,1.5,0,0,0,0-3A1.5,1.5,0,0,0,160.79,103.87Z"/></g></g><g id="g3539"><g id="g3541"><path id="path3543" d="M163.11,105.17c1.77-3.52,3.42-7,7.89-7.42l-1.5-1.5c1,10.13,3.94,25.87-9.11,29.17l1.85,1c-.87-2.29-.72-4.69-1-7.08-.19-1.88-3-2-3,0v.34a1.5,1.5,0,0,0,3,0v-.34h-3c.28,2.64.12,5.35,1.08,7.88a1.53,1.53,0,0,0,1.84,1c14.74-3.72,12.52-20.33,11.31-32.06a1.52,1.52,0,0,0-1.5-1.5c-5.61.46-8.1,4.18-10.48,8.91-.87,1.72,1.72,3.24,2.59,1.51Z"/></g></g><g id="g3545"><g id="g3547"><path id="path3549" d="M30.6,101A29.09,29.09,0,0,0,21,84a1.52,1.52,0,0,0-2.12,0c-5.91,6.59-6.24,17.82-4.15,26,1.5,5.88,10.79,16.8,14.82,7.11.75-1.78-2.16-2.55-2.89-.79-2.2,5.28-8-4.36-8.71-6.08a24.85,24.85,0,0,1-1.28-8c-.21-5.32.64-12,4.33-16.11H18.91a26.55,26.55,0,0,1,8.8,15.67C28.08,103.64,31,102.84,30.6,101Z"/></g></g><g id="g3551"><g id="g3553"><path id="path3555" d="M127.39,40.89c4.18-8.47,16.19-13.49,24.47-16.64,9.2-3.5,19.18-5.09,26.44,3,6.49,7.22,7.63,18.8,8.24,28a216.43,216.43,0,0,1-1.17,37.49c-1.59,14.89-2.16,29.27,2,43.8,1.76,6.08,4.17,11.88,5.28,18.13,1.46,8.22-1.28,16.25-3.92,23.91-2.16,6.27-4,12.36-4.61,19a89.1,89.1,0,0,0,.93,20.76c1.94,13.91,6,27.4,5.89,41.57-.09,11.16-6.57,21.15-8.76,31.9-2.24,11,1.35,22,1.57,33,0,1.93,3,1.94,3,0-.13-6.44-1.36-12.8-2-19.2a50.59,50.59,0,0,1,2.83-22c2.11-6.11,4.59-12,5.81-18.39,1.16-6.13.5-12.71-.34-18.84-1.94-14-5.9-27.66-6.2-41.87-.32-14.94,7.28-27.47,9.05-42,.73-6-.92-12.2-2.71-17.86-2.35-7.41-4.73-14.56-5.76-22.32-2-15.39,1.55-31,2.33-46.35a156.44,156.44,0,0,0-1.27-30.28c-1.21-8.26-3.88-17-10.21-22.76-7.78-7.09-18.35-4.88-27.27-1.65s-21.75,8.87-26.27,18c-.86,1.73,1.73,3.25,2.59,1.52Z"/></g></g><g id="g3563"><g id="g3565"><path id="path3567" d="M70,179.38a1.5,1.5,0,0,0,0-3A1.5,1.5,0,0,0,70,179.38Z"/></g></g><g id="g3569"><g id="g3571"><path id="path3573" d="M67.51,176.47C62.64,191,82.32,198,93.13,199.32c13.17,1.58,32.41-2.23,30.39-19.39-.23-1.9-3.23-1.92-3,0,1.73,14.71-14.44,17.56-25.74,16.57-9.14-.8-28.68-6.39-24.38-19.23.62-1.84-2.28-2.62-2.89-.8Z"/></g></g><g id="g3575"><g id="g3577"><path id="path3579" d="M67.51,178.51C64.17,197.56,55.66,215.65,54.19,235,54,237,57,237,57.19,235c1.45-19.09,9.92-36.95,13.21-55.72C70.73,177.42,67.84,176.61,67.51,178.51Z"/></g></g><g id="g3581"><g id="g3583"><path id="path3585" d="M118.55,184.43c5.59,2,9.08,10.45,12.19,15.29,2.44,3.8,4.64,7.76,6.78,11.73,2.54,4.69,5,9.47,7,14.39a47.88,47.88,0,0,1,2,5.53,10.47,10.47,0,0,1,.38,2.07c.08,1,.43.27,0,.14-1.85-.59-2.64,2.31-.8,2.89,9,2.85-2.3-19.41-3.2-21.2-2.93-5.82-6.09-11.56-9.57-17.06s-7.36-14.3-14-16.67c-1.83-.66-2.61,2.24-.8,2.89Z"/></g></g><g id="g3587"><g id="g3589"><path id="path3591" d="M54.27,235.45c16.89,2.57,34.77,5,51.56.69,6.82-1.73,13.58-3.65,20.49-5,4.7-.92,15.59-3.55,18.89,1.6,1,1.62,3.64.12,2.59-1.52-2.55-4-7.54-4.36-11.86-4.28-7.52.14-15.07,2.21-22.3,4.07-8.06,2.07-15.59,4-24,4.35-11.56.42-23.2-1.05-34.6-2.78-1.9-.29-2.71,2.6-.8,2.89Z"/></g></g><g id="g3593"><g id="g3595"><path id="path3597" d="M52.89,234.75c-3,2.25.77,11.13,1.35,13.94a1.51,1.51,0,0,0,1.45,1.1c30.59.77,60.3-8,90.81-8.16a1.54,1.54,0,0,0,1.3-.75c1.78-3.24,2.5-6.79,1.17-10.34-.67-1.79-3.57-1-2.89.8a9.24,9.24,0,0,1,.25,5.58c-.52,2.46-3.57,1.75-5.2,1.8-4.12.11-8.24.44-12.34.82-7.69.71-15.35,1.84-23,3-16.65,2.45-33.26,4.72-50.12,4.29l1.44,1.1c-.38-1.82-.79-3.63-1.21-5.44-.17-.76-1-5.52-1.52-5.11,1.54-1.14.05-3.74-1.51-2.59Z"/></g></g><g id="g3599"><g id="g3601"><path id="path3603" d="M68.69,185.77c-9-4.75-19.83-8.05-29.36-3-7.39,4-10.88,12.35-11.86,20.26-2.37,19.21,11.1,37.68,31.28,36.51,1.92-.12,1.93-3.12,0-3-18.39,1.07-29.5-14.88-28.41-32.12.46-7.27,3.62-14.76,10-18.74,8.33-5.23,19-1.55,26.88,2.63,1.71.9,3.23-1.68,1.52-2.59Z"/></g></g><g id="g3605"><g id="g3607"><path id="path3609" d="M123.31,186.81c4.51-6.44,16.89-6.4,23.79-6.22,9.14.24,17.46,2.69,20.67,12.07,5.08,14.88-6.78,38.8-24.33,36.79-1.92-.22-1.9,2.78,0,3,20.54,2.36,33.17-25.56,26.56-42.37-3.68-9.38-12.54-11.83-21.76-12.43-8.39-.56-22.11-.08-27.52,7.64-1.12,1.59,1.49,3.09,2.59,1.52Z"/></g></g><g id="g3611"><g id="g3613"><path id="path3615" d="M55.65,245.19c-4.41,4.66-5.77,11.42-6.65,17.56-1.37,9.45-1.24,19.1-1,28.61.44,17.12,2.7,34.42.29,51.47-2.71,19.08-6.94,37.89-9.27,57-1.12,9.17-1.89,18.49-1.19,27.73.45,5.82,1.59,12.15,5.57,16.66,1.29,1.45,3.4-.68,2.12-2.12-4.26-4.82-4.68-12.35-4.91-18.44-.33-8.77.62-17.6,1.71-26.29,2.31-18.33,6.39-36.37,9-54.65,2.18-15.37.45-30.94-.14-46.37a242.53,242.53,0,0,1,.21-27.89c.53-6.92,1.37-15.86,6.4-21.18,1.33-1.4-.79-3.53-2.12-2.12Z"/></g></g><g id="g3617"><g id="g3619"><path id="path3621" d="M146.08,240.53c.65,4,5,8.52,7.19,11.85,4.21,6.5,7.18,12.65,8.65,20.3,3.77,19.59.12,40.54.21,60.35.08,18.25,3.27,36.12,11.1,52.68,4.15,8.8,9.72,17,14.13,25.66a147.42,147.42,0,0,1,10.76,28.14c.43,1.6,3.07,1.32,2.95-.4a15.72,15.72,0,0,0-2.25-6.88c-.91-1.7-3.5-.19-2.59,1.52a11.36,11.36,0,0,1,1.84,5.36l2.94-.4c-5-18.48-14-35-23.62-51.38-10-17.1-12.34-38.34-12.26-57.76.07-19.15,2.87-38.67-.32-57.69-1.18-7.05-3.89-12.88-7.61-18.91-1.65-2.67-3.4-5.27-5.13-7.89-1-1.51-2.8-3.51-3.1-5.35s-3.2-1.09-2.89.8Z"/></g></g><g id="g3623"><g id="g3625"><path id="path3627" d="M45.44,442.13l-1.18.79,1.85,1.84c0-.24,8.12-2.25,8.94-2.6,3.8-1.62,7.46-3.55,11.19-5.33a30.55,30.55,0,0,1,13.9-3.43c4.47.09,8.42,2.86,12.16,5C98.75,442,104,442.2,111,439.79c4.45-1.55,8.93-3.46,13.52-1.26,2.71,1.3,4.53,4.08,6.67,6.1,3.65,3.44,9.11,3.85,13.76,2.55,6.3-1.75,10.11-7.94,16.68-9.45,7.27-1.67,15.18,4.89,21.94,6.85,6.6,1.91,12.33-1,17.07-5.43,1.41-1.33-.71-3.45-2.12-2.12-7.63,7.18-14.31,5.07-22.84,1.12-6-2.77-11.95-4.82-18.34-2.21s-10,8.5-17.38,8.89c-6.73.36-9.48-6.75-14.9-9.36-6.22-3-13.17,1.12-19.14,2.78-8.33,2.3-15.05-5.4-22.65-7.41-7.3-1.93-14.94,1.61-21.32,4.75a80.78,80.78,0,0,1-12.36,5.32c-2,.59-6,.12-6.35,3.06-.15,1,.63,2.24,1.84,1.84a7.26,7.26,0,0,0,2.5-1.56c1.48-1.25-.65-3.36-2.12-2.12Z"/></g></g><g id="g3629"><g id="g3631"><path id="path3633" d="M61.77,252.33c-7.66,8.22-8.55,19.94-8.6,30.65a1.5,1.5,0,0,0,3,0c0-9.85.64-20.94,7.72-28.53C65.21,253,63.09,250.91,61.77,252.33Z"/></g></g><g id="g3635"><g id="g3637"><path id="path3639" d="M99.57,247.81c-8.76.29-15.9,5.18-21.47,11.66-1.25,1.46.86,3.59,2.12,2.12,5-5.85,11.37-10.52,19.35-10.78,1.93-.06,1.93-3.06,0-3Z"/></g></g><g id="g3641"><g id="g3643"><path id="path3645" d="M73,267.64c-9.29,7.52-11.5,21.52-12.68,32.69-.21,1.93,2.79,1.91,3,0,1.1-10.41,3.17-23.58,11.8-30.57C76.62,268.54,74.48,266.43,73,267.64Z"/></g></g><g id="g3647"><g id="g3649"><path id="path3651" d="M42.38,428.94c7,6.43,16.34,5.54,24.27,1.25,1.7-.92.18-3.51-1.52-2.59-6.68,3.62-14.64,4.71-20.63-.78C43.08,425.51,41,427.63,42.38,428.94Z"/></g></g><g id="g3653"><g id="g3655"><path id="path3657" d="M52.23,422.19c10.34,1.83,20.23,0,30.39-2,1.9-.38,1.09-3.27-.8-2.89-9.58,1.92-19,3.76-28.79,2C51.14,419,50.33,421.85,52.23,422.19Z"/></g></g><g id="g3659"><g id="g3661"><path id="path3663" d="M129.42,429.18c3.63,1.86,7.29,4.24,9.66,7.63,1.11,1.57,3.71.07,2.6-1.52a29,29,0,0,0-10.75-8.7C129.22,425.71,127.7,428.3,129.42,429.18Z"/></g></g><g id="g3665"><g id="g3667"><path id="path3669" d="M170.24,430.2c6.8,3.78,15.29,8,23.2,8.37,1.94.09,1.93-2.91,0-3-7.38-.34-15.37-4.45-21.69-8-1.69-.94-3.2,1.65-1.51,2.59Z"/></g></g><g id="g3671"><g id="g3673"><path id="path3675" d="M61.19,187.66a10.2,10.2,0,0,0-9.32,1.17c-1.63,1-.12,3.64,1.51,2.59a7.36,7.36,0,0,1,7-.87C62.24,191.14,63,188.25,61.19,187.66Z"/></g></g><g id="g3677"><g id="g3679"><path id="path3681" d="M35,209.78a17.61,17.61,0,0,0-1.17,12.38c.45,1.88,3.34,1.08,2.9-.8a14.2,14.2,0,0,1,.87-10.07C38.42,209.56,35.84,208,35,209.78Z"/></g></g><g id="g3683"><g id="g3685"><path id="path3687" d="M38.94,220.34a11.46,11.46,0,0,0,4.77,11.9c1.58,1.12,3.07-1.48,1.51-2.59a8.33,8.33,0,0,1-3.39-8.51C42.23,219.25,39.34,218.45,38.94,220.34Z"/></g></g><g id="g3689"><g id="g3691"><path id="path3693" d="M49.09,226.86c.15,5.39,4.14,9.47,9.26,10.63,1.89.42,2.69-2.47.8-2.89-3.81-.86-6.95-3.65-7.06-7.74C52,224.93,49,224.92,49.09,226.86Z"/></g></g><g id="g3695"><g id="g3697"><path id="path3699" d="M130.77,185.43C132,189,132.94,192.75,135,196c1,1.63,3.63.13,2.59-1.51-1.92-3-2.82-6.47-3.93-9.85-.6-1.83-3.5-1-2.89.8Z"/></g></g><g id="g3701"><g id="g3703"><path id="path3705" d="M137.32,186.53c6.31-.05,13.2-1.06,18.63,2.86,1.57,1.13,3.07-1.47,1.52-2.59-5.9-4.26-13.29-3.32-20.15-3.27a1.5,1.5,0,0,0,0,3Z"/></g></g><g id="g3707"><g id="g3709"><path id="path3711" d="M67.66,197.53a20.19,20.19,0,0,0-3.27,11c0,1.94,3,1.93,3,0A17.2,17.2,0,0,1,70.25,199c1-1.63-1.54-3.13-2.59-1.51Z"/></g></g><g id="g3713"><g id="g3715"><path id="path3717" d="M71.74,201.62a43.33,43.33,0,0,0-4.29,17.08c0,1.94,3,1.93,3,0a40.12,40.12,0,0,1,3.88-15.57c.83-1.73-1.76-3.26-2.59-1.51Z"/></g></g><g id="g3719"><g id="g3721"><path id="path3723" d="M39.09,233.25c-3.88,6.78-5.57,14.87-7,22.46A170.4,170.4,0,0,0,29.2,287.9c.05,14.69,1.55,40.4,19,45.51,1.86.55,2.65-2.35.8-2.89-16.45-4.83-16.8-31.31-16.75-44.8a165.15,165.15,0,0,1,3-30.17c1.33-7,3-14.54,6.52-20.79A1.5,1.5,0,0,0,39.09,233.25Z"/></g></g><g id="g3725"><g id="g3727"><path id="path3729" d="M158.47,228.64c4.85,7.2,6.39,16,7.42,24.42,1,8,2,15.84,3.61,23.75,1.31,6.61,2.59,13.22,2.16,20-.51,7.9-4.49,14.93-9.11,21.14-1.16,1.56,1.45,3.05,2.59,1.52,4.49-6,8-12.5,9.21-20,1.07-6.52,0-13.16-1.2-19.58-1.78-9.55-3.3-19-4.47-28.61-1-8.38-2.83-17.06-7.62-24.16C160,225.53,157.38,227,158.47,228.64Z"/></g></g><g id="g3731"><g id="g3733"><path id="path3735" d="M187.6,327.13c-3-5.31-7.33-6.07-11.82-2-1.94,1.74-3.49,3.86-5.41,5.62-2.48,2.27-2.72-2.42-3-4.25s-3.21-1.1-2.89.8c.84,5,3.41,9.82,8.35,5.29,3.73-3.43,8.1-11.23,12.21-3.92a1.5,1.5,0,0,0,2.59-1.51Z"/></g></g><g id="g3737"><g id="g3739"><path id="path3741" d="M29.42,321a33.64,33.64,0,0,0,6.48,2.19c1.88.47,2.67-2.42.8-2.89a30.67,30.67,0,0,1-5.77-1.89c-1.73-.84-3.25,1.75-1.51,2.59Z"/></g></g><g id="g3743"><g id="g3745"><path id="path3747" d="M129.58,35.65c-2.36-9.33-6.16-22.87-17.37-24.52-1.9-.28-2.71,2.61-.8,2.89,10.06,1.48,13.17,14.1,15.28,22.43.47,1.87,3.36,1.07,2.89-.8Z"/></g></g><g id="g3749"><g id="g3751"><path id="path3753" d="M100,14.19c-12.37-1.68-23.28-.75-34.66,4.62C55.05,23.64,45.71,29.92,38.86,39.1,32.34,47.85,28,57.88,23.1,67.58c-2.53,5-5.28,9.91-8.24,14.69A21.75,21.75,0,0,0,11.21,92c-.48,5.2,1.24,10.68,2,15.76a138.27,138.27,0,0,1,1.16,20.54c0,14.48,0,29,.42,43.42.89,29.58,6.71,58.8,7,88.38.16,19-2.17,40,4.92,58,.6,1.5,2.95,1.4,2.95-.4V313.6a1.5,1.5,0,0,0-3,0v4.08l2.95-.4c-4.4-11.16-4.69-23.57-4.85-35.41-.17-12.11.23-24.19-.53-36.29-1-15.91-3.38-31.71-4.87-47.58-1.37-14.6-1.72-29.29-1.87-43.94-.15-13.56.54-27.27-.59-40.79-.51-6.1-2-12-2.63-18.13-.46-4.8,1.32-8.32,3.77-12.28,12.11-19.57,18.24-43,38.65-56A76.25,76.25,0,0,1,76.91,17.6c7.25-2,14.89-1.51,22.25-.51,1.9.25,2.71-2.64.8-2.89Z"/></g></g><g id="g3755"><g id="g3757"><path id="path3759" d="M33.5,126.59c-3.33,1.94-4.27,6.92-5,10.34a126.15,126.15,0,0,0-2.31,21.77A199.53,199.53,0,0,0,26.45,181c.28,4,.28,9.39,2.43,13a1.5,1.5,0,0,0,2.59-1.52c-1.87-3.12-1.76-8-2-11.45a193.13,193.13,0,0,1-.36-20.13,154.15,154.15,0,0,1,1.66-19.79c.51-3.18,1.09-10,4.27-11.88a1.5,1.5,0,0,0-1.52-2.59Z"/></g></g><g id="g3761"><g id="g3763"><path id="path3765" d="M42.69,155.16c-3.69,2.62-5.3,6.6-5.75,11-.46,4.59,1,9.94,0,14.37-.45,1.88,2.44,2.67,2.89.79,1.81-7.53-3.36-18.07,4.41-23.59C45.77,156.64,44.27,154,42.69,155.16Z"/></g></g><g id="g3767"><g id="g3769"><path id="path3771" d="M53.91,168.43a12.81,12.81,0,0,0-4.77,12.92c.4,1.89,3.29,1.09,2.89-.8A9.73,9.73,0,0,1,55.42,171C57,169.89,55.48,167.29,53.91,168.43Z"/></g></g><g id="g3773"><g id="g3775"><path id="path3777" d="M92,11c9.52,2.18,18.11,5.54,24.85,12.88,1.31,1.43,3.42-.7,2.12-2.12C111.93,14,102.82,10.35,92.82,8.07,90.93,7.64,90.13,10.53,92,11Z"/></g></g><g id="g3779"><g id="g3781"><path id="path3783" d="M117.89,9.56c5.84,7.26,9.9,15.89,14,24.18.87,1.73,3.45.21,2.59-1.51C130.25,23.68,126,14.92,120,7.44,118.8,5.93,116.69,8.06,117.89,9.56Z"/></g></g><g id="g3785"><g id="g3787"><path id="path3789" d="M168.91,25.88c21.42,17.1.84,40.41,4,61.92.89,6,2.69,11.83,2.65,18,0,7.65-4.18,14.42-7.49,21-5.65,11.3-5.59,22.37-2.93,34.54,3,13.5,8.45,26.31,8.49,40.34,0,15-1.91,30.08-1.94,45.15A235.24,235.24,0,0,0,175,284c1.89,12.05,4,25.91-2.26,37.05a1.5,1.5,0,0,0,2.59,1.52c5.67-10.06,4.91-21.91,3.49-33-1.67-13-3.84-25.72-4.13-38.9-.34-15.77,1-31.53,1.86-47.26.7-13.6-4.39-26.64-7.76-39.58a71.12,71.12,0,0,1-2.57-21c.33-7.93,4.69-14.86,8.07-21.8a38,38,0,0,0,4.25-16.82c0-6.18-2.19-12.15-2.87-18.26-1.26-11.28,4.1-22.48,5.9-33.45,1.67-10.14-.55-19.37-8-26.63-.81-.75-1.65-1.45-2.53-2.12-1.5-1.19-3.63.92-2.12,2.12Z"/></g></g><g id="g3791"><g id="g3793"><path id="path3795" d="M149.14,140.75c-2.55,6.62-1.47,10.42,3.26,15.31,3.46,3.57,3.17,7.82,2.66,12.44-.35,3.27-1.82,7.54-.82,10.8.56,1.85,3.46,1.06,2.89-.79-.9-3,.55-7,.94-10,.43-3.44.74-7-.59-10.3a17.58,17.58,0,0,0-4.1-5.43c-3.44-3.48-3-6.84-1.35-11.22.7-1.81-2.2-2.59-2.89-.8Z"/></g></g><g id="g3803"><g id="g3805"><path id="path3807" d="M84.69,435.65c-.24-.58-.46-1.5-1.11-1.78-.93-.4-2.35,0-2.25,1.3.22,2.78,1.51,5.68,2.26,8.34,1.06,3.77,1.56,7.68,2.6,11.4,2.84,10.19.34,24.06,7,32.92,1.15,1.52,3.75,0,2.59-1.52-3.29-4.39-3.68-10.66-4.29-15.92-.64-5.45-1.09-10.93-2.39-16.27-.84-3.48-1.39-7-2.33-10.46-.72-2.61-2.23-6-2.42-8.49l-2.26,1.3c-.46-.52-.55-.52-.27,0,.72,1.76,3.62,1,2.89-.8Z"/></g></g><g id="g3809"><g id="g3811"><path id="path3813" d="M117.45,439.11c0,12.52-.4,25.1.21,37.61.08,1.77.89,14.44,5.41,9.37,1.28-1.44-.83-3.57-2.12-2.12q1.1.48.51-.48c-.12-.47-.22-.95-.3-1.43a36.42,36.42,0,0,1-.44-4.3c-.22-3-.25-6-.27-9-.06-9.89,0-19.78,0-29.66a1.5,1.5,0,0,0-3,0Z"/></g></g><g id="g3815"><g id="g3817"><path id="path3819" d="M151.18,440.75c-2.25,15.45-5.69,30.77-7.2,46.32-.18,1.92,2.82,1.9,3,0,1.48-15.28,4.89-30.34,7.09-45.52.28-1.9-2.61-2.71-2.89-.8Z"/></g></g><g id="g3821"><g id="g3823"><path id="path3825" d="M69.35,494.64a152.7,152.7,0,0,1,27.8-5.35c8.46-.93,17.24-1.93,25.75-1.69,14.2.4,30.73,5.59,44.41-.11,1.76-.73,1-3.63-.8-2.89-13.67,5.69-30.83.36-45.09,0-8.59-.24-17.54,1-26.06,1.93a147.33,147.33,0,0,0-26.81,5.26c-1.85.55-1.06,3.45.8,2.89Z"/></g></g><g id="g3827"><g id="g3829"><path id="path3831" d="M83.67,517.28c-2.68-8.88,5.22-13.79,13.08-14.51a22.62,22.62,0,0,1,23,13.62c.73,1.68,3,.39,2.74-1.15-1.86-11.24,5.73-17.66,16.61-15.61a25.4,25.4,0,0,1,20.3,21.51c.26,1.91,3.15,1.09,2.89-.8-1.75-12.92-12.44-22.49-25.21-24-12.49-1.5-19.41,8.06-17.48,19.73l2.75-1.16C117.62,504.15,106.47,498.5,95,500c-9.31,1.19-17.2,8.21-14.22,18.12.55,1.84,3.45,1.06,2.89-.8Z"/></g></g><g id="g3833"><g id="g3835"><path id="path3837" d="M117.45,484c-.06,10.32-1.16,21.73,3.27,31.37.8,1.76,3.39.23,2.59-1.52-4.17-9.06-2.91-20.14-2.86-29.85a1.5,1.5,0,0,0-3,0Z"/></g></g><g id="g3839"><g id="g3841"><path id="path3843" d="M80.8,519.13c6.09,1.6,13.44.41,19.64.23a176.77,176.77,0,0,1,21.47.31c8.18.75,16.31,1.89,24.5,2.53,4.6.36,10.92,1.28,15.14-1.18a1.5,1.5,0,0,0-1.52-2.59c-4.17,2.43-11.39,1-15.91.59-7.42-.63-14.8-1.64-22.21-2.35a156.33,156.33,0,0,0-18.87-.39c-6.69.17-14.89,1.68-21.44,0a1.5,1.5,0,0,0-.8,2.89Z"/></g></g><g id="g3845"><g id="g3847"><path id="path3849" d="M78.18,514.66c-.34.42.85.35,1.09.33a1.52,1.52,0,0,0,1.07-2.56c-2.32-2.73-8.36-.14-9.36,3-1.34,4.18,4.13,6.76,7.09,8.19,12.54,6.06,27.4,3.82,40.89,3.76,9.77,0,19.53.66,29.3.35,6.4-.21,12.05-1,17.58-4.42,2.5-1.53,5.48-4.19,4-7.34-.77-1.58-3.17-2.09-4.66-2.42a14.14,14.14,0,0,0-3.88-.35l-1.2.16c-1.8.24-2.21-.33-1.48.83l-.54,2.06.45-.3c1.62-1,.11-3.64-1.52-2.59l-.45.3a1.52,1.52,0,0,0-.54,2c1,1.65,3.73.69,5.28.49.32,0,6.22.13,6,1.6-.24,1.77-3.35,3.19-4.7,3.94-4.5,2.5-9.29,2.75-14.32,3-6.74.32-13.52,0-20.27-.18-10.65-.31-21.29.33-31.94,0a41.15,41.15,0,0,1-13.85-2.38,41.62,41.62,0,0,1-5.43-2.6,12,12,0,0,1-2.54-1.94c-1.33-1.31,3-4.17,4-3L79.28,512c-1.23.1-2.29-.62-3.22.55-1.2,1.49.91,3.63,2.12,2.12Z"/></g></g><g id="g3851"><g id="g3853"><path id="path3855" d="M65.13,495.51c7.17,4.36,10.41,12.83,17.35,17.35,1.62,1.06,3.12-1.54,1.51-2.59-3.21-2.1-5.53-5.51-7.92-8.44-2.75-3.38-5.67-6.63-9.43-8.91-1.65-1-3.16,1.58-1.51,2.59Z"/></g></g><g id="g3857"><g id="g3859"><path id="path3861" d="M166.49,484.63c-2.35,10.17-8.88,19.31-9.24,30-.06,1.94,2.94,1.93,3,0,.35-10.35,6.85-19.32,9.13-29.19.44-1.89-2.46-2.69-2.89-.8Z"/></g></g><g id="g3863"><g id="g3865"><path id="path3867" d="M120,518.74c.79-1,1.25-2.11,2-3.06l-2.56-1.06c.06,3.77,1,7.45,1,11.22a1.5,1.5,0,0,0,3,0c.15-3.17,1.88-6,2-9.18h-3c0,1.49-.19,3-.34,4.45-.08.85-.18,1.69-.29,2.53,0,.28-.08.55-.13.83-.14.89-.22-.11.89-.48l1.84,1c.17.44,0,0,0-.22a1.5,1.5,0,0,0-3,0,3.1,3.1,0,0,0,.1,1,1.52,1.52,0,0,0,1.85,1c1.51-.5,1.38-2.74,1.54-4a58.7,58.7,0,0,0,.53-6.2c0-1.95-2.91-1.92-3,0-.15,3.17-1.88,6-2,9.18h3c-.06-3.77-1-7.45-1-11.22,0-1.21-1.69-2.12-2.56-1.06s-1.26,2.1-2,3.06c-1.23,1.48.89,3.61,2.12,2.12Z"/></g></g><path id="path3877" class="cls-1" d="M131.19,439.2c-6.94-5.53-12-6.26-21.08-3.06-7.19,2.54-8.63,2.37-18-2.07-11.33-5.35-16.26-5.15-31.17,1.24-6.55,2.81-12.67,5.11-13.61,5.11-2.35,0-4-2.34-5-7.14-.86-4-.85-4.06,2-2.23,6.73,4.34,21.88,2.9,22.86-2.17.36-1.86-.08-2.1-2.44-1.39-7.35,2.21-13.15,2.19-18.16-.06l-5.09-2.29L42,411.69c.32-7.4,2.85-27,5.62-43.55l5-30.09-.32-38.38c-.36-43.43.26-47.8,6.85-48.56l3.5-.4-2.53,2.71c-3.6,3.87-6.34,12.6-7.17,22.85-.6,7.53-.42,8.87,1.21,8.87,1.46,0,2.12-2,2.79-8.26,1-9.31,3.33-16.88,6.22-20.06,1.07-1.19,1.63-3,1.23-4-.87-2.27.93-2.7,15.66-3.73l11-.77-6,4.11C78,257.27,76,260,77.88,262c1,1,2.89,0,7-3.54,5.52-4.78,6.52-5.29,13.34-6.81,2.13-.47,3.36-1.54,3.36-2.93,0-1.84,1.88-2.41,12.19-3.7,6.7-.83,16.74-1.81,22.31-2.18l10.13-.66,6.38,10.81c9.69,16.41,10.57,21.64,9.62,57.26-.84,31.54.1,44.16,4.36,58.69,3,10.09,8.55,22.57,15.38,34.33,5.28,9.09,11.84,23.48,13.21,28.94.81,3.26.71,3.34-3.27,2.63A68,68,0,0,1,180,430.51c-8.62-3.92-11.18-4.35-11.18-1.89,0,1.84,14.09,8.63,20.79,10,3.64.76,3.91,1,1.83,1.83-3.09,1.18-6.55.46-16.43-3.38-10.11-3.93-15.76-3.36-25.32,2.54-4,2.45-8.36,4.45-9.77,4.45s-5.33-2.2-8.71-4.89Zm10.67-2.75c-.05-2.05-3.49-5.94-7.56-8.56-7.5-4.84-8-1-.65,5.42,5.35,4.69,8.28,5.82,8.21,3.14ZM77,421.66c3.65-.78,6.88-2.18,7.19-3.13.47-1.42-.85-1.53-7.85-.63A164.59,164.59,0,0,1,59.78,419c-8.36,0-10.43.72-9,3,1.05,1.7,17.65,1.49,26.25-.34Zm-12.74-124c2.1-13.17,5.59-22.52,9.68-25.91,2.34-1.94,2.53-5,.3-5-2.06,0-6.08,4.39-8.63,9.42-2.31,4.57-5.6,17.84-5.62,22.68,0,5.25,3.39,4.27,4.27-1.22Z"/><path id="path3879" class="cls-1" d="M75.88,234.27c-2.35-.27-7.17-.81-10.7-1.19-7.47-.81-7.44-.72-4.43-14.4,1.71-7.78,2.31-9,4.28-8.45,1.74.46,2.29,1.74,2.29,5.35,0,7.49,3.05,6,4.85-2.28.83-3.87,1.8-8.27,2.14-9.78.45-2,.08-2.76-1.35-2.76A1.88,1.88,0,0,1,71,199a3.6,3.6,0,0,0-1.73-2.75c-1.11-.63-1.5-2.16-1.09-4.27l.63-3.29,2.62,2.53c8.41,8.1,30.07,11.24,42.47,6.17a20.25,20.25,0,0,0,6.26-5l3.1-3.68,7.36,12.44c8,13.56,12.52,22.12,12.52,23.83,0,.61-4,1.41-8.87,1.79a181.43,181.43,0,0,0-22,3.81c-13,3.1-28.12,4.62-36.39,3.68Z"/><path id="path3881" class="cls-1" d="M146.37,221.25c-1.56-3.53-5.13-10.46-7.93-15.39s-5.09-9.15-5.09-9.37,1.1-.1,2.44.26c3,.78,3,.08.38-7.29-1.23-3.43-2.86-5.84-4-5.89-1.35-.07-1.19-.39.55-1.14,3.62-1.56,17.36-1.43,22.84.21,11.75,3.52,15.54,16,9.3,30.65-2.57,6-10.61,14.38-13.82,14.38-1.05,0-3.07-2.77-4.69-6.42ZM159,188.57c0-2.81-6.28-5.15-14.28-5.34-7-.16-8.33.14-8.69,2s.59,2.14,7.29,2.16c4.26,0,8.56.55,9.57,1.2,2.38,1.54,6.11,1.56,6.11,0Z"/><path id="path3885" class="cls-2" d="M47.52,234.17a1.72,1.72,0,0,1-1.38-2.35c.38-1-.15-2.75-1.18-3.9a11.32,11.32,0,0,1-2.29-5.14c-.61-4.43-4.39-4.72-5.08-.39-.3,1.89-.34-.6-.09-5.53.35-6.76.09-8.84-1.06-8.46-.84.27-2.13,2.34-2.87,4.59l-1.36,4.09-.87-4.64c-3.09-16.49,8-30.34,22.53-28.15l5.5.83L54.74,187c-4.58,1.83-5.65,4.71-1.68,4.51,8.57-.43,9.37-.63,9.37-2.34,0-1,.59-1.84,1.3-1.84s1,1,.65,2.14c-3.22,10.43-9.29,34.32-9.29,36.59,0,1.56-.55,2.85-1.22,2.85s-1.22-.83-1.22-1.84a1.84,1.84,0,0,0-1.84-1.83c-2.12,0-2.42,3.94-.56,7.41,1.27,2.39,1,2.53-2.73,1.54Z"/><path id="path4655" class="cls-2" d="M131.63,438.84c-4.79-3.41-6.46-3.91-12.84-3.82a87.94,87.94,0,0,0-12.47,1.07c-4.24.8-6.61.38-13.45-2.39-8.23-3.32-17.58-4.36-23.21-2.57-2.21.7-2.53.44-2-1.66.63-2.39.28-2.46-8.41-1.72-7.29.61-9.87.35-13.16-1.35L42,424.28l.79-12.06c.81-12.33,3.85-34.68,8.15-60,1.89-11.12,2.42-19.91,2.42-40.52,0-20.23.36-26.47,1.56-26.93.85-.33,2.24-4.65,3.06-9.61a82.14,82.14,0,0,1,4.86-16.5l3.35-7.49,6.12-.75c3.36-.41,8-.74,10.39-.74l4.28,0-5.2,4.35c-5.11,4.3-6.37,7-4,8.44.67.41,4.28-1.45,8-4.13s8.42-5.24,10.39-5.67a9.79,9.79,0,0,0,5.18-3.08c1.74-2.48,10-4.14,27.13-5.43,5.38-.41,11.43-1,13.45-1.3,3.52-.54,3.94-.09,10,10.75,3.48,6.21,7,13.78,7.85,16.81,1,3.75,1.6,17.32,1.74,42.79.28,49,2,56.67,19.73,90.32,9.91,18.77,14.63,30.73,12.11,30.73-1,0-6-1.65-11.27-3.67S171.62,427,170.38,427c-6.22,0,3.71,7.1,15.66,11.19,9.62,3.29,2.31,2.58-8.3-.81-12.94-4.13-17.32-3.93-27.24,1.24-4.52,2.35-9.37,4.25-10.79,4.22s-5.06-1.82-8.08-4Zm11-2.56c0-2.46-9.37-10.53-12.23-10.53-3.93,0-2.83,3.14,2.76,7.82,5.36,4.5,9.47,5.68,9.47,2.72ZM79,421.68c3-.79,5.67-2.21,6-3.16.47-1.44-1.43-1.59-11.53-.92-6.65.44-14,.81-16.37.83-5,0-8,1.58-6.81,3.52s21.62,1.61,28.73-.27Zm-12.46-131c1.71-6.73,4.21-13,6.45-16.23,4.28-6.12,4.53-7.6,1.28-7.6-5.24,0-12.4,14.51-14.18,28.75-.79,6.34-.67,6.91,1.4,6.51,1.73-.34,2.91-3,5-11.43Z"/><path id="path4657" class="cls-2" d="M66.58,232.65c-3.17-.44-6.13-1.18-6.59-1.63-1-1,1.63-15.14,3.36-18.37s3.48-1.37,3.48,3.56c0,3.43.43,4.22,2.14,3.89,1.55-.29,2.74-2.86,4.28-9.2l2.13-8.8-3-3.29c-1.68-1.81-3-4.27-3-5.47,0-1.92.83-1.75,7,1.46,14.42,7.43,33.78,7.32,42.4-.25,2.23-2,4.35-3.57,4.7-3.57.71,0,15.32,25.53,17.54,30.65l1.39,3.2-16.06,2.72c-8.83,1.5-20.19,3.5-25.23,4.43a125.81,125.81,0,0,1-34.49.67Z"/><path id="path4659" class="cls-2" d="M146,218.8c-5.11-9.2-10.64-20.15-10.64-21.05,0-.36.88-.65,2-.65,1.3,0,1.71-.67,1.22-1.95-3.31-8.62-3.38-8.58,10.88-6.46,9.81,1.46,11.7,1.06,9.19-2s.66-2.07,4.06,1.33c5.26,5.26,5.81,16.31,1.25,25.36-2.36,4.69-10.16,13-12.2,13-.81,0-3.39-3.44-5.72-7.64Z"/><path id="path4661" class="cls-2" d="M45,226.55c-1.77-4.45-3.75-7.46-5.14-7.83-1.73-.45-2.23-1.65-2.11-5,.22-5.84-1.09-6.86-4.06-3.15l-2.44,3,.47-6.84c.92-13.46,8.87-21.92,20.47-21.8,4.12,0,4.88.31,3,1.06a12.11,12.11,0,0,0-4,2.88c-2.26,2.73.15,3.71,6.72,2.72,5-.75,5.46-.61,4.83,1.4-.39,1.23-2.61,9.66-4.93,18.74s-4.26,15.82-4.3,15-1.25-1.53-2.68-1.53c-2.3,0-2.52.51-1.91,4.28,1,6.46-.68,5.15-3.9-2.95Z"/><path id="path4663" class="cls-2" d="M130.41,437.76c-6.53-3.56-7-3.65-18-2.84-9.87.73-12.31.48-19.56-2a54.28,54.28,0,0,0-16.55-2.8c-5.92,0-8.25-.47-8.25-1.61s-2.45-1.58-9-1.58c-4.94,0-10.74-.61-12.88-1.36l-3.9-1.36.76-7.51c1.84-18.4,4.51-39.21,6.75-52.74,1.54-9.29,2.87-25.9,3.63-45.24.79-20.29,1.79-32.42,3-36.07,1-3,2.36-8,3.09-11a124,124,0,0,1,4-12.58c3-7.72,3-7.77,14.69-8.55l7.08-.47-4.33,4.43c-7.25,7.43-5.23,11.28,3,5.78,2.34-1.56,8.46-5.11,13.6-7.91,8.89-4.82,10.26-5.17,27.78-7.13,14.43-1.6,18.82-1.73,20.21-.58,1,.81,4.64,7.15,8.15,14.09l6.39,12.62,1,40.2c1.3,53.22,1.68,55.05,18.44,89.61,13,26.84,15,31.89,12.8,31.89-.87,0-5.61-1.37-10.56-3.06-14.54-4.94-18-3.5-7.64,3.23,3.76,2.45,4.73,3.5,2.75,3a85,85,0,0,0-10.39-1.48c-6.4-.58-8.41-.18-15.71,3.13-4.6,2.08-9.55,3.73-11,3.67s-5.66-1.75-9.36-3.77Zm12.23-1.09c0-2.65-2.53-5.89-6.55-8.37-8.78-5.42-11-1.78-3.23,5.25,4.69,4.24,9.78,5.86,9.78,3.12ZM82.42,421c6.17-3.35,3-4.18-13.79-3.61-16.17.55-20.2,1.58-18.28,4.69,1.19,1.93,28.19,1,32.07-1.08Zm-15-131c2.1-6.39,5.15-13.91,6.79-16.73,3.25-5.6,2.83-7.18-1.61-6.06-5.23,1.31-13.11,20-13.11,31.09,0,3.19.46,4,2.06,3.71,1.4-.27,3.27-4.1,5.87-12Z"/><path id="path4665" class="cls-2" d="M41.65,440.14c-2-4.39-2.31-8-2.21-23.54s.92-23.21,5.19-48.93c2.79-16.81,5.08-31.49,5.08-32.62a3.42,3.42,0,0,0-2.45-2.84c-3.22-1-9.77-6.57-9.77-8.28,0-.74,1.51.07,3.36,1.79a34.37,34.37,0,0,0,6.07,4.53l2.7,1.39-.26-35.17c-.24-33.81-.15-35.47,2.51-42.82,2.55-7,2.62-8,1-11.92-1.13-2.71-2.62-4.28-4.06-4.28a9,9,0,0,1-4.65-1.93c-2.34-1.91-2.34-1.92.07-1.14,1.35.44,4,1.12,5.95,1.51,3.15.63,3.42.43,2.67-1.92-.65-2.05-.41-2.46,1.09-1.88s1.91-.05,1.91-2.32c0-1.69,1.7-9.58,3.79-17.56,6.88-26.36,6.63-25,4.69-26.18-1.45-.92-1.39-1.12.33-1.13,1.42,0,2.35-1.42,2.9-4.39.7-3.71.39-4.66-2.08-6.38-4.78-3.33-13.3-11.49-13.3-12.74,0-.64,3.17,1.67,7,5.12,14.59,13,27.82,17.92,45.55,16.79,6.11-.38,9.38-.23,8,.37s-7.13,1.06-12.84,1.09c-8,0-12.34-.63-18.95-3-4.71-1.66-9.11-3.16-9.79-3.33s-1.1,1.72-.94,4.33-.22,4.33-.86,3.94-1.76,1.65-2.53,4.53S63.86,202,62,208.72a183.77,183.77,0,0,0-4.27,18.54l-.87,6.31,8.36,1c16.34,1.9,33.07,1,46.86-2.44,15.91-4,28-5.26,31.58-3.32,2.27,1.21,2.67,1.1,2.7-.76,0-2,.13-2,1.24-.11,1,1.69,1.85,1.84,4.78.82a13.6,13.6,0,0,0,5-3A4.69,4.69,0,0,1,160.1,224c2.37,0-3.12,4.86-7.13,6.31-5.81,2.1-6.36,7.13-1.62,14.94,2,3.28,3.34,6.24,3,6.58s-2.14-1.92-4-5c-3.25-5.36-3.67-5.62-9-5.66-3.09,0-18.77,1.58-34.84,3.55s-34.29,4-40.49,4.44L54.69,250l-1.46,4.43c-2.3,7-3.07,25.74-2,49.67,1.14,26.62.86,30.05-5.42,67.25-4.05,23.92-5,32.51-5.09,46.46-.11,14.12.24,17.8,2,21,2,3.74,2.29,3.83,6.72,2.61a57.94,57.94,0,0,0,9.14-3.57c5.53-2.81,9.17-3,4-.22-2.89,1.57-17.52,7.69-18.38,7.69a48.14,48.14,0,0,1-2.52-5.17ZM107.7,243c12.73-1.69,26.31-3.07,30.19-3.07,7,0,8.93-1,9-4.89.05-2.42-5.93-6.11-9.88-6.11-1.73,0-10.38,1.78-19.23,4-15.49,3.82-17,4-39.94,3.87-13.11-.06-22.46.3-20.78.8,2.91.86,2.93.91.3,1-3.08.14-3.3,1-1.49,5.73l1.27,3.33,13.71-.79c7.55-.43,24.13-2.16,36.86-3.85Z"/><path id="path4667" class="cls-2" d="M131.61,437.86c-6.76-3.2-8.79-3.56-20-3.58-7.16,0-15.28-.78-19.15-1.84a111.33,111.33,0,0,0-15.59-2.61c-4.87-.43-8.86-1.25-8.86-1.82s-2.68-1.05-6-1.05c-5.15,0-18.38-1.9-19.22-2.76-.45-.45,3.86-37.09,6.78-57.76,1.43-10.09,3.13-29.35,3.78-42.8,1.49-30.67,2.77-40.19,7.43-55.24s6.06-16.58,16-17.26l7.69-.52-4,4.17c-4,4.24-5.23,8.33-2.43,8.33.85,0,5.39-2.27,10.09-5.05s10.93-6.12,13.85-7.44c6.29-2.84,24.44-5.8,35.77-5.83l8.07,0,6.81,13.14,6.82,13.15,1.35,41c1.31,40,2.55,51.92,6.54,63,1,2.69,7.06,16.2,13.54,30s11.77,25.76,11.77,26.52q0,1.38-8.26-1.05C168,425.62,165,426,172.28,432.13l4,3.32-8.06-.73c-6.59-.59-9.38-.23-15.29,2-13.19,5-13.13,5-21.31,1.14Zm11-1.2c0-2.65-2.53-5.88-6.55-8.36-8.77-5.43-11-1.79-3.23,5.25,4.69,4.23,9.78,5.86,9.78,3.11Zm-62.45-15c2.31-.81,4.44-2.22,4.74-3.14.45-1.37-2.4-1.58-16.08-1.18-16.19.47-20.48,1.53-18.59,4.59,1.12,1.81,24.56,1.6,29.93-.27ZM64,300.11c.41-1.18,3.18-8.19,6.14-15.59,7.36-18.36,7.21-17.73,4.29-17.73-5.64,0-13.34,15-14.6,28.43-.57,6-.37,7,1.38,7A3.28,3.28,0,0,0,64,300.11Z"/><path id="path4669" class="cls-2" d="M129.8,437.28c-5.07-2.44-8-2.95-17.24-3a129.14,129.14,0,0,1-22.62-2.44c-6.32-1.34-13.47-2.44-15.88-2.45s-4.79-.43-5.29-.93-6.38-1.52-13-2.25-12.34-1.56-12.58-1.84c-.51-.58,2.79-29.79,6.48-57.36,1.4-10.42,3.1-29.4,3.78-42.18s1.81-27.77,2.49-33.31c1.38-11.2,7-31.55,10-36.14,2-3.07,6.55-4.52,14.12-4.52h4.37l-3.91,4c-3.92,4.05-5.17,8.19-2.46,8.19.8,0,6.85-3.05,13.44-6.78,13.67-7.74,21.82-9.93,41.39-11.12l12.87-.78,6.89,13.32,6.89,13.31.81,29.35c1,37.77,2.53,58.08,4.93,67.24,1.06,4,7.19,18.88,13.62,33,14,30.76,14.21,31.21,12.48,31.21-.73,0-5.92-1.21-11.55-2.69s-10.65-2.24-11.18-1.71.95,2.55,3.26,4.49l4.2,3.53-7.87-.71c-6.57-.59-9.31-.18-16.58,2.47-10.55,3.85-13.94,3.85-21.86,0Zm12.84-.61c0-2.66-2.53-5.89-6.55-8.37-8.77-5.42-11-1.78-3.23,5.25,4.69,4.24,9.78,5.86,9.78,3.12ZM82.42,421c6.17-3.36,3-4.18-13.79-3.61-16.17.55-20.2,1.58-18.28,4.68,1.2,1.94,28.19,1,32.07-1.07ZM69.94,285.14c3.62-9.08,6.61-16.92,6.63-17.42s-1-.92-2.34-.92c-5.34,0-13,15.05-14.34,28.33-.69,6.57-.54,7.33,1.34,6.95,1.44-.3,4.22-5.69,8.71-16.94Z"/><path id="path4673" class="cls-3" d="M35,74.1c0-1.95,5-8.7,8.27-11.1a155.4,155.4,0,0,1,15.06-8.39c6.33-3.18,18-10.09,25.9-15.36,18.2-12.12,21.22-13,30.74-9.15,10.45,4.25,12.74,8.47,3.94,7.27-7.23-1-13,1.05-24.61,8.81C82.27,54.22,76.15,57,64.39,59.61c-10.73,2.41-14.23,4-22.93,10.51-3.53,2.63-6.42,4.42-6.42,4Z"/><path id="path4675" class="cls-3" d="M35,82.68C39.87,77.08,48.75,69.86,54,67.16c2-1,9.33-3.29,16.19-5,11-2.7,14-4.07,24.45-11.13,12.91-8.67,19.76-10.91,26.92-8.77,3.36,1,4,1.73,3.67,4.31-.27,2.33-1.27,3.28-4,3.85-5.58,1.15-10.25,4-18.75,11.5-4.26,3.75-9.29,7.63-11.19,8.61S81.16,73.16,73,74.17C54.78,76.42,50,77.66,40.57,82.59c-4,2.11-7.91,4.07-8.59,4.36s.67-1.64,3-4.27Z"/><path id="path4677" class="cls-3" d="M50.5,82.94c5-2.28,14.42-4.06,26.72-5,11.84-1,18.22-3.6,26-10.78,12.32-11.47,20.28-14.81,21.39-9,.74,3.88-.53,6.87-4.68,11-7.77,7.75-18.8,11.06-43.27,13-9.08.71-19.53,1.59-23.23,2-6.63.64-6.67.62-2.88-1.12Z"/><path id="path4679" class="cls-3" d="M158.53,81.71c0-2.47-17-18.19-22.74-21-7-3.47-5.36-7.8,3-7.84,8.73,0,18.95,8.34,25.18,20.62l3.14,6.19-3.62,1.87c-4.43,2.29-4.95,2.31-4.95.19Z"/><path id="path4683" class="cls-3" d="M167.16,70.46c-3.56-6.77-12-16.4-16.39-18.77-4.66-2.49-2.8-3.76,5.53-3.76,5.75,0,8.78.74,13.52,3.33l6.11,3.32-.69,5.81a44.53,44.53,0,0,1-2.89,10.79l-2.2,5-3-5.7Z"/><path id="path4685" class="cls-3" d="M124.82,65.66c1.09-2.75,1.17-3.44.9-8.41-.19-3.44-.33-3.51-5.81-2.89-3.65.41-5.19.21-4.41-.57s3-1.28,5.3-1.39c4.37-.2,5.72-1.83,5.86-7.07.07-2.73-.61-3.39-4.5-4.34a33.47,33.47,0,0,0-10.66-.21c-7.72,1.16-8.59.4-1.69-1.46a20.54,20.54,0,0,1,10.52-.25c6.18,1.41,6.67,0,2.75-7.65-3.06-6-3-6.93,0-3.22,2.89,3.46,3,2.76.55-3.12-1-2.43-1.57-4.7-1.24-5,.69-.68,3.71,6.08,5,11.14.45,1.82,1.33,3.3,2,3.3s.59,1-.14,2.36a12.79,12.79,0,0,0-1.26,5c0,2.24.3,2.43,1.83,1.16,2.39-2,2.34-.68-.14,3.1s-1.72,3.79,4-.07A49.7,49.7,0,0,1,145,41c8.57-2.56,25-2.87,27.24-.53,1.33,1.4,1.09,1.51-1.47.7-8.78-2.77-31.07,1.66-37.58,7.47-2.05,1.83-2.54,2.72-1.24,2.27s2.14-1.15,2.14-1.64c0-1.57,13.6-4,22.56-4.07,8.74-.06,14.44,1.8,17.72,5.75,2.25,2.71.6,2.38-3.57-.7-2.06-1.52-6.1-2.86-9.66-3.2-7.45-.72-19.71.68-19.71,2.24,0,.62,1,1.14,2.14,1.15a8.64,8.64,0,0,1,4,1.24c1.29.86.31,1-3.3.45-8.11-1.23-13.43.23-14.13,3.86-.38,2,.1,3.45,1.39,4.21,1.66,1,1.53,1.16-.79,1.19s-2.68.54-2.14,3.4c.36,1.85.31,2.65-.09,1.78-.6-1.29-1.09-1.29-2.68,0s-1.82,1.26-1-.86Z"/><path id="path4687" class="cls-3" d="M146.82,81.65c-5.55-2.42-12.55-9-15.29-14.35-1.32-2.59-1.94-4.7-1.39-4.7,2.32,0,12.34,7.51,18.57,13.91,7,7.21,6.43,8.76-1.89,5.14Z"/><path id="path4689" class="cls-3" d="M137.14,40c7.61-6.19,15.63-9.72,22.23-9.78,5.39-.05,6.9.48,10.09,3.53,4.76,4.56,4.75,5.8,0,4.14s-17.06-.47-27.1,2.68c-9.61,3-9.6,3-5.19-.57Z"/><path id="path4691" class="cls-3" d="M40.14,67.59c1.56-2,8.35-6.62,15.07-10.34S74.59,46,83.33,40.62C103.67,28,106,27.27,114.25,30.82c3.47,1.49,6.93,3.47,7.71,4.4,1.17,1.42.29,1.71-5.29,1.71-7.17,0-10.53,1.43-29.67,12.67-5.38,3.16-12.81,6.59-16.51,7.63l-13,3.62a50.35,50.35,0,0,0-12.5,6c-7.59,5.22-8.56,5.37-4.86.72Z"/><path id="path4693" class="cls-3" d="M37.49,60.29c0-2.49,14-16.18,21.84-21.42,21.51-14.3,41.29-20.75,50.91-16.62,1.87.81,1.15,1.08-3.06,1.17-7.3.15-13.45,3.1-27.8,13.32A173.16,173.16,0,0,1,56.53,50.28c-6,2.77-12.75,6.42-15,8.13S37.49,61,37.49,60.29Z"/><path id="path4697" class="cls-3" d="M35.05,53.42c0-2.17,8.05-13.23,14.07-19.29,3.7-3.72,9.65-7.72,16.35-11,8.74-4.24,12-5.18,19.09-5.49l8.56-.38-8.46,3.09c-15.5,5.67-36.72,19.25-44.81,28.68-2.64,3.08-4.8,5-4.8,4.36Z"/><path id="path4705" class="cls-3" d="M45.43,64.29c3.21-2.49,47.43-28.75,54.06-32.1,6.36-3.22,9.24-3.23,16.21-.07,4.27,1.94,5.08,2.74,3.67,3.63a13.7,13.7,0,0,1-5.74,1.16c-2.51,0-10.74,3.53-22.62,9.69C80.73,51.92,68.75,57.2,64.38,58.32a85.1,85.1,0,0,0-13.86,5c-6.74,3.38-8.65,3.74-5.09,1Z"/><path id="path4715" class="cls-3" d="M128.4,19.15c-2.79-5-4.67-9.13-4.18-9.13,1.23,0,16,13.45,16,14.58,0,.74-5.49,3.89-6.48,3.72-.13,0-2.53-4.15-5.31-9.17Z"/><path id="path4717" class="cls-3" d="M189.69,272.3c2.25-13.24,2-20.07-1.28-38.52-4.51-25.24-4.51-37.34,0-52,6.63-21.38,6.63-21.13,0-45.24-3.34-12.16-3.35-12.35-2.34-36.07,1.32-30.94.85-51.41-1.38-60.4-2.36-9.48-1.28-10.33,1.48-1.17,2.52,8.33,3,33.22,1.17,63.47-1.17,19.58-1,21.32,4.91,42,3.85,13.52,3.7,17.71-1.35,35.7-5.27,18.77-5.47,27.19-1.21,50.73,3.57,19.67,4,33.2,1.23,40.29-1.55,4-1.79,4.2-1.28,1.22Z"/><path id="path4719" class="cls-3" d="M180.19,294.31c-3.1-14-4.63-40-4.32-73.3l.32-35.52-4-12.84a109.18,109.18,0,0,1-4.7-23.23c-.7-10.38-.7-10.4,5-23.14,6.36-14.12,6.86-18,5-38.77-.87-9.71-.63-12.65,1.81-22.54,3-12.11,3.58-19.52,2.16-27.43l-.87-4.89,1.92,4.28c2.8,6.22,3.86,26,2.57,47.69-1.73,28.92-.71,44.49,3.94,59.91,4.43,14.71,4.37,16-1.51,35.46-5,16.45-5.05,27.42-.35,54.41C191.13,257,190.93,264,186,277.74a100.75,100.75,0,0,0-4.13,14.63c-.82,5.34-.9,5.43-1.67,1.94Z"/><path id="path4721" class="cls-3" d="M173.52,99.89c0-2.69.22-3.94.53-2.77a13.31,13.31,0,0,1,0,4.89c-.3,1.53-.55.57-.56-2.12Z"/><path id="path4725" class="cls-3" d="M162.16,184.42c-4.89-4.57-22.19-6-31.78-2.59-5.95,2.1-8.27,1.44-2.89-.82,1.94-.82,8.83-1.71,15.3-2l11.76-.49.76-6.31c1.2-10,1-11-3.1-17.25l-3.87-5.85L146,153.67c-4.54,8.86-3.32,3.28,1.7-7.75,5.47-12,7.5-14.09,3.93-4L149.45,148l4.1,5.71c4.08,5.68,4.1,5.75,3.31,15.94s-.74,10.25,2.19,11a12.09,12.09,0,0,1,5.09,3.08c2.4,2.65.75,3.21-2,.66Z"/><path id="path4727" class="cls-3" d="M134.69,172a69.77,69.77,0,0,0,9.85-13.21l3.74-7,3,4c2.56,3.42,2.95,5.16,2.74,12.37-.13,4.62-.41,8.55-.61,8.73s-5.87.56-12.6.83l-12.22.5,6.11-6.22Z"/><path id="path4729" class="cls-3" d="M167.9,185.3a20.14,20.14,0,0,0-6.37-5l-4.11-2,.74-9.62c.72-9.36.64-9.75-3.11-15-2.12-3-3.85-5.87-3.85-6.48,0-1.52,6.12-16.63,7.14-17.62a15.08,15.08,0,0,1,4.76-1.62l4-.83-1.81,5.14c-3,8.45-2.3,22.33,1.9,38.62,4.05,15.7,4.22,19,.76,14.32Z"/><path id="path4731" class="cls-3" d="M153.72,134.26c0-.6,1.54-6.15,3.52-12.33,3.9-12.17,5.35-19.89,5.49-29.25l.08-6-7.36-.11c-6.16-.1-8.42-.8-13.76-4.22-3.51-2.26-6.39-4.58-6.39-5.15s2.77.68,6.16,2.78c7.13,4.43,17.3,6,22.1,3.29,2.73-1.52,3.39-1.78,5.61-2.17.47-.09.2-.82-.61-1.62a5.36,5.36,0,0,1-1.43-3.36c0-1.55.27-1.5,1.3.27.69,1.19,1.78,1.84,2.41,1.45,2.45-1.51,1,2-2.52,6-2.8,3.18-3.67,5.36-3.67,9.18,0,4.9.06,5,3.06,3.62,1.69-.77,3.4-1.06,3.82-.64s.8,5,.85,10.28c.07,6.77-.5,10.66-2,13.43-3.45,6.49-10.54,10.16-10.75,5.58-.06-1.18-1.4.61-3,4s-2.91,5.62-2.95,5Zm13.47-12.45c2.55-2.72,3-4.57,3.39-13.45.36-8.47.11-10.3-1.38-10.3-2.87,0-4.43,2.74-6.72,11.76-3.49,13.8-1.58,18.68,4.71,12Z"/><path id="path4733" class="cls-3" d="M180.08,289.38c-2.17-10.22-3.17-30.57-3.19-65.06l0-38.2L173.1,173a126,126,0,0,1-4.41-23.55c-.63-10.13-.51-10.72,4.66-23.23l5.31-12.84-.32-19.57c-.23-13.92.23-22.2,1.57-28.73,1-5,2.36-11.92,3-15.28l1.07-6.12.33,7.34c.18,4,.38,23.84.44,44,.12,36,.18,36.91,3.48,49.13,1.85,6.84,3.36,13.73,3.36,15.31s-1.75,9.45-3.89,17.5c-4.86,18.31-5.11,32.24-1.05,58.06,3.31,21.09,2.91,29.64-2.22,46.42-3.09,10.12-3.63,11.12-4.3,7.95Z"/><path id="path4737" class="cls-3" d="M165.87,91.8c0-1.86,1.36-4.93,3-6.82,2.82-3.21,3-3.26,3.05-.83a43.26,43.26,0,0,0,.78,6.26c.67,3.37.42,3.71-3.06,4.22s-3.79.26-3.79-2.83Z"/><path id="path4741" class="cls-3" d="M176.38,313.26c1.26-8.38.8-19.27-1.5-35.13-1.61-11.11-2-20.24-1.6-40.07.82-43.33.66-45.81-4.23-64.8-3.45-13.43-4.36-19.23-4.22-26.9l.19-9.78.85,11a158.59,158.59,0,0,0,5,25.68L175,187.93l0,41c0,33.52.45,43.63,2.29,55.64,2.27,14.83,2,28.18-.55,32.3-.86,1.35-1,.29-.39-3.57Z"/><path id="path4743" class="cls-3" d="M169.25,251.59c-1.11-7-3.18-15.44-4.59-18.72l-2.56-6,4.28-7.1c2.35-3.91,4.56-9.38,4.92-12.15,1.46-11.4,1.68-10.39,1,4.73-.38,8.74-.72,24-.75,33.93s-.11,18-.17,18-1-5.74-2.14-12.76Z"/><path id="path4745" class="cls-3" d="M181.15,325.51c-2.52-.47-3.17-1-2.08-1.69a4.36,4.36,0,0,1,3.44-.29c1.62.63,1.73-.58.86-9.36-1.4-14.1-.84-22.17,2.17-31.19,1.42-4.28,2.8-7.57,3.07-7.3s-.72,5.14-2.19,10.82c-2.41,9.35-2.56,11.67-1.53,24.17.63,7.61.87,14.21.54,14.68s-2.26.54-4.28.16Z"/><path id="path4751" class="cls-3" d="M174,320c.9-2.35,1.66-2.35,1.66,0,0,1-.53,1.83-1.18,1.83S173.6,321,174,320Z"/><path id="path4759" class="cls-3" d="M24,68c0-.39,2.87-6.31,6.37-13.14,4.65-9.09,8.53-14.65,14.41-20.69,4.43-4.54,8.64-8.25,9.36-8.25s-2.6,4-7.38,8.88c-6.52,6.66-10.32,12-15.19,21.39C25.72,67.51,24,70.14,24,68Z"/><path id="path4763" class="cls-3" d="M20,302.64c-2.84-9-3.13-10.94-4.51-29.21-.71-9.53-2.4-21.06-3.82-26.2C7.29,231.49,7,225.37,9.5,195.88c2.51-30,2.4-32.89-2.19-61.75-3.73-23.5-4.1-41.71-1.07-53.19,3.82-14.48,18-39.34,29.26-51.15,6.88-7.24,15.2-11.18,39.41-18.7C92,5.8,97.2,4.67,105,4.6c9.75-.08,11.14.49,12.54,5.12.78,2.59.62,2.67-2.62,1.44-2.7-1-3.68-.94-4.53.41s-2.21,1.25-8-1.11c-3.77-1.55-7.79-2.83-8.92-2.85-2.8,0-4.16,2.43-2.07,3.76,1.4.88,1.37,1.07-.15,1.11-14.5.34-33.38,7.65-44.37,17.19-7.79,6.76-13.08,14.86-25.74,39.4C10,90.66,9.3,93.38,11.88,103.56c.68,2.69,1.73,23.88,2.33,47.08.7,27.33,2,50.79,3.69,66.64,2.12,19.81,5.36,89.38,4.23,90.86-.16.21-1.12-2.26-2.14-5.5Z"/><path id="path4765" class="cls-3" d="M22.55,85.21l-3.3-2.84,6.8-13c3.74-7.16,7-12.81,7.25-12.56s-.64,3.34-2,6.88a100.7,100.7,0,0,0-4,15.4l-1.51,9-3.3-2.84Z"/><path id="path4767" class="cls-3" d="M30.7,316.18a31.39,31.39,0,0,0-1.93-4.54c-2.05-3.83-3.49-21.4-3.52-43a490.88,490.88,0,0,0-3.15-50.13c-2.28-21.32-3.32-39.2-3.82-65.41-.67-35.76-.66-36.05,1.72-33.93a9.08,9.08,0,0,0,5.08,2.14c3.77,0,5.68,5.32,4,11.08-3.7,12.41-4.75,51.24-1.63,59.7.61,1.63.55,5.62-.14,9.41-1.59,8.78.59,18.23,6.08,26.39,4.23,6.29,4.24,6.32,2.31,11.13-5.82,14.56-8.59,53.6-5,70.58,1.59,7.53,1.61,11.59,0,6.6Z"/><path id="path4769" class="cls-3" d="M30.36,163.75c.29-13.63,1-25.52,1.53-26.41.71-1.16,1.94.07,4.27,4.3,1.8,3.27,4.18,7.31,5.29,9,1.93,2.92,1.9,3.18-.83,5.81-3.41,3.27-4.62,8.8-4.23,19.37.22,6.11-.21,8.34-2,10.27-1.22,1.35-2.76,2.46-3.41,2.46s-1-9.22-.67-24.79Z"/><path id="path4771" class="cls-3" d="M40.57,172.33c0-7.27.54-9.64,2.62-12.28l2.58-3.28,4.47,4.94,4.47,4.95-3.11,3.7c-1.71,2-3.11,5-3.11,6.66s-.69,3-1.53,3a20.67,20.67,0,0,0-4,.67c-2.29.62-2.45.08-2.41-8.34Z"/><path id="path4777" class="cls-4" d="M60.72,181.62a29.17,29.17,0,0,0-6.42-1.57c-2.7-.09-2.71-1.79,0-6.3s3.1-4.39,8.36-.19c6.65,5.3,5.4,10.62-1.9,8.06Z"/><path id="path4779" class="cls-4" d="M38.71,80.38c7.17-8,15.23-12.58,29.7-16.91A105.64,105.64,0,0,0,95.16,51.71c6.87-4.11,14.46-8,16.86-8.66,5.73-1.54,11.56,0,12,3.22.28,1.93-.68,2.77-4.45,3.9-2.65.8-10.19,5.57-16.76,10.61C89.74,70.84,88.5,71.32,68.05,74.24c-7.86,1.12-17.29,3.34-21.39,5S38.5,82.64,37.49,83s-.46-.79,1.22-2.66Z"/><path id="path4781" class="cls-4" d="M168.42,71.51c-2.56-5.64-10.2-15-15.33-18.79l-4.82-3.57h7.61c5.67,0,9.14.77,13.54,3l5.92,3-1.12,6.16a59.79,59.79,0,0,1-2.69,9.88L170,74.91l-1.54-3.4Z"/><path id="path4783" class="cls-4" d="M163.77,181.32l-5.16-3.17,0-10.12c0-8.64-.48-10.81-3.09-14.95-3.68-5.83-3.67-5.63-.61-13.71,3.24-8.53,3.73-9.18,7.6-10.16,3.24-.81,3.28-.75,2.13,3.26-2.08,7.24-1.27,24.15,1.82,38.33,1.62,7.39,2.84,13.5,2.72,13.57a49.47,49.47,0,0,1-5.37-3.05Z"/><path id="path4789" class="cls-4" d="M38.71,48.44c0-.67,3.61-5.18,8-10,6.43-7,10.06-9.8,18.21-13.84C71.17,21.5,77.44,19.33,81.07,19L87,18.46l-8,3.55C65.71,28,52.84,36.3,43.91,44.74c-2.86,2.71-5.2,4.37-5.2,3.7Z"/><path id="path4791" class="cls-4" d="M28.45,308.67c-.42-1.85-1.57-19.87-2.57-40s-2.65-45.21-3.7-55.64c-1.81-18.12-4.06-92.92-2.79-92.92a33.27,33.27,0,0,1,4.47,1.34c5,1.74,5.77,5,3.7,15.48C26.56,142,26,153.55,26,167.14c.09,49.07.28,50.73,7.29,61.83,3.28,5.21,3.29,5.3,1.38,11.45-4,12.77-5.1,23.37-5.1,47.46,0,13.29-.08,24.15-.17,24.15a19.94,19.94,0,0,1-.92-3.36Z"/><path id="path4795" class="cls-4" d="M45.57,226.78A26.75,26.75,0,0,0,41,219.56a8.11,8.11,0,0,1-2.29-5.23c0-4.91-1.79-7.06-4.17-5.08-1.7,1.4-1.93,1-1.93-3.06,0-10.27,8.34-20.1,17-20.1,3.57,0,3.74.17,2,1.93-2.83,2.84-1.25,4.19,4.89,4.19,3,0,5.43.42,5.43.94,0,.91-3.11,12.63-6.81,25.65-1.38,4.86-2.38,6.42-4.15,6.42s-2.44,1-2.72,3.36c-.37,3.21-.48,3.14-2.69-1.8Z"/><path id="path4797" class="cls-4" d="M56.44,183.49a29.74,29.74,0,0,0-9.78-.54c-4.16.43-5.53.26-4.28-.53a10.13,10.13,0,0,1,4.58-1.2c2.23,0,2.75-.7,2.75-3.61,0-2,.59-4,1.3-4.4.88-.54,1,.59.5,3.47-.78,4.19-.71,4.29,3.92,5.07,5,.85,10.06,3.17,6.51,3a29,29,0,0,1-5.5-1.26Z"/><path id="path4799" class="cls-4" d="M41.16,172.34c0-5.31.68-8.67,2.22-11L45.59,158l4,4.17,4,4.18-2.35,3.45a49.2,49.2,0,0,0-3.79,6.82c-.9,2.08-2.39,3.36-3.92,3.36-2.22,0-2.47-.78-2.46-7.64Z"/><path id="path4801" class="cls-4" d="M170.15,46.39c-3.61-1.84-7.29-2.5-14.06-2.52-7.13,0-8.36-.26-5.5-1.07,6.84-1.94,17.12-1.48,21.22.94,2.11,1.25,3.84,3,3.84,3.84s-.14,1.51-.3,1.44-2.51-1.26-5.2-2.63Z"/><path id="path4805" class="cls-5" d="M129.19,39.55c0-1.52,7.87-7.74,13.34-10.54,7.07-3.62,17.38-6.76,22.19-6.76,3.77,0,4.49.38,4,2.14s-2,2.15-9.36,2.2c-9.78.08-15.74,2.45-25,10-2.85,2.32-5.19,3.68-5.19,3Z"/><path id="path4807" class="cls-5" d="M166.72,290.42c-.89-21.4-2.29-26.71-10.58-40.28-7.1-11.61-7.89-16.41-3-18.61a16,16,0,0,1,4.34-1.42c2.62,0,5.94,11.19,9.07,30.57,4.25,26.26,5,38.48,2.72,43.8-1.65,3.84-1.79,3.06-2.5-14.06Z"/><path id="path4809" class="cls-5" d="M43,325.79c-9.71-9.59-12.68-34.14-7.89-65.11,1.47-9.5,5.78-24.48,7-24.39a29.08,29.08,0,0,1,5.08,2.13c5.12,2.54,6.9,7.57,4.39,12.42C48.17,257.43,47,273.74,47.9,302c.56,17.45.44,27.2-.33,27.2s-2.72-1.51-4.59-3.36Z"/><path id="path4811" class="cls-5" d="M83.92,179.72c-11.12-3.89-19.57-9.65-28.49-19.43-9.14-10-19.78-27.09-19.44-31.19.14-1.6-.26-2.91-.87-2.91-2.92,0-5.15-16.18-3.38-24.46.36-1.68.7-3.65.75-4.37.16-2,10-6.49,17.34-7.88C53.46,88.79,63,87.69,71.1,87c30.76-2.54,41.35-5.45,50.54-13.88,4.11-3.78,5.62-4.58,6.06-3.2.31,1,3.67,4.89,7.46,8.62,7.49,7.39,14.76,10.42,22.7,9.5l4.34-.51v5.17c0,2.89-.78,6-1.78,7-1.19,1.19-1.56,3.17-1.1,6,.8,5-4.51,21.37-12.44,38.48-12.45,26.84-24.66,37.1-45.2,38-7.81.34-11.4-.14-17.76-2.37ZM112.68,152a37.48,37.48,0,0,0,9-6.39c5.51-5.55,16-21.62,16-24.49,0-4.62-3.2-2-8.56,7.06-10.13,17.07-21.67,24.36-33.77,21.31a58.16,58.16,0,0,1-10.16-3.72c-5.49-2.8-13.72-11.55-17.1-18.18-3-5.78-4.73-7.2-5.74-4.57-.4,1,.78,4.48,2.64,7.64,8.65,14.76,21.94,23.65,35.28,23.6A32.68,32.68,0,0,0,112.68,152ZM86.09,112.81c4.83-4,2.33-11-3.31-9.26a6.32,6.32,0,0,0-3.88,8.73C80.49,115.75,82.39,115.89,86.09,112.81Zm27.44-1.69c1-1.62,0-7-1.65-8.75-.72-.78-1.81-.75-3.12.08-3.29,2.08-4.44,4.8-3.54,8.38.73,2.94,1.27,3.26,4.14,2.54,1.81-.46,3.69-1.47,4.17-2.25Z"/><path id="path4819" class="cls-5" d="M20.35,112.43c-3.86-6.33-3.07-25,.95-22.49,3,1.82,5.18,9.47,5.18,17.78,0,10-2,11.51-6.13,4.71Z"/><path id="path4821" class="cls-5" d="M162,120.92c-.56-3.81,4.25-20.73,6.07-21.34,2.22-.74,2,14.77-.28,19.18-2.37,4.59-5.27,5.67-5.79,2.16Z"/><path id="path4823" class="cls-5" d="M162.92,121.47c-.89-1.44-.18-5.25,2.63-14.19,1.68-5.34,2-5.74,2.91-3.35,2,5.54-3,21.61-5.54,17.54Z"/><path id="path4825" class="cls-5" d="M85.37,193.83c-7-2.14-14.87-8.49-14.87-12,0-2.32-.36-2.38,11.5,1.75,7.77,2.7,23.79,3.44,30.84,1.42,2.09-.6,4.48-.66,5.31-.15,2.12,1.31-1.39,6.49-5.79,8.55-5.28,2.49-19.51,2.72-27,.43Z"/><path id="path4827" class="cls-5" d="M95,483.33c-.7-1.31-2.14-8.33-3.2-15.61a230.22,230.22,0,0,0-6.21-30.13c-.57-1.93.17-1.8,5.82,1.06s7.48,3.18,13.25,2.58a74.67,74.67,0,0,0,9.48-1.5l2.69-.8.36,21.65c.2,11.91.09,22.06-.25,22.57s-5.12,1.28-10.64,1.73c-9.14.75-10.14.61-11.3-1.55Z"/><path id="path4829" class="cls-5" d="M128.93,484.53c-3.17-.44-6.19-1.24-6.71-1.76s-1.16-10.87-1.42-23l-.45-22,2.89,1.52a46.44,46.44,0,0,1,6.9,5c3.34,2.9,6.2,3.85,11.27,3.76.34,0,2.33-.37,4.42-.81l3.81-.81-1.53,8.93c-.84,4.91-2.19,13.74-3,19.62l-1.5,10.7-4.46-.16c-2.45-.09-7-.53-10.21-1Z"/><path id="path4833" class="cls-6" d="M57.16,243.26c-.82-2.2-.57-2.83,1.26-3.14,1.26-.22,2.29-.77,2.29-1.23s9.5-.83,21.1-.83c18.93,0,22.34-.34,33.32-3.26,6.72-1.78,14.56-3.62,17.41-4.07,6.67-1.06,12.78,1.37,12.28,4.89-.3,2-1.42,2.5-7.08,2.78-3.69.19-19.81,2-35.8,4S69.55,246,65.52,246c-6.48,0-7.45-.32-8.36-2.75Z"/><path id="path4835" class="cls-6" d="M57.94,243.23c-1.2-3.13,2.22-3.74,26-4.6,18.52-.67,25-1.41,35.46-4.06,7.06-1.77,14.52-3.23,16.58-3.23,4.54,0,9,2.94,7.27,4.74-1.38,1.39-51.71,7.25-71.64,8.34-11,.61-13.06.43-13.68-1.19Z"/><path id="path4839" class="cls-6" d="M76.13,500.87c-2.57-3.07-4.47-5.74-4.23-5.93,1.79-1.47,35.3-6.83,42.67-6.83,2.14,0,2.39.89,2.39,8.5v8.5l-6.42-3c-9.44-4.4-21.07-3.56-26,1.88-1.21,1.34-2.56,2.44-3,2.44s-2.88-2.51-5.44-5.58Z"/><path id="path4841" class="cls-6" d="M84.65,512.92c2.07-9.12,15.85-12.14,25.85-5.66,2.77,1.8,5.57,4.44,6.22,5.88,1.18,2.59,1.06,2.61-15.83,2.9l-17,.3.78-3.42Z"/><path id="path4843" class="cls-6" d="M134.19,517.45c-11.5-1.3-14.46-6.62-7.54-13.54,4.39-4.39,11.23-4.81,18.46-1.12,5,2.53,10.67,9,10,11.4-.22.73.58,2,1.76,2.91,1.83,1.33.87,1.55-6.33,1.4-4.67-.09-12-.56-16.33-1Z"/><path id="path4849" class="cls-7" d="M154.14,503.87c-8.11-9-26.34-10.79-31.67-3.17-1.72,2.45-1.84,2.13-1.84-5V488l9.48,1c5.21.53,15,1,21.74,1h12.27l-3.1,8.24c-1.7,4.53-3.42,8.24-3.82,8.25s-1.78-1.14-3.06-2.56Z"/><path id="path4851" class="cls-7" d="M129.92,515.64c-6-2.13-7.11-3.92-5-7.95,2.38-4.6,6.87-6.58,13.28-5.86a19.45,19.45,0,0,1,15.52,10.83l2.45,4.79-10.73-.06c-5.91,0-12.86-.81-15.49-1.75Z"/><path id="path4853" class="cls-7" d="M154.93,503.47c-5.71-6.88-24.87-10.18-30.35-5.23-2.34,2.12-2.45,2.1-3.17-.61a28.57,28.57,0,0,1-.77-5.95c0-2.74.43-3.09,3.35-2.68,1.85.25,11.42.85,21.27,1.31l17.9.85-3.24,7.2c-2.95,6.54-3.41,7-5,5.11Z"/><path id="path4855" class="cls-7" d="M77.1,500.89c-2-2.68-2.87-4.77-2.17-5.48,1.45-1.45,28.33-6.08,35.29-6.08h5.24l.85,6.83c.47,3.75.64,7,.38,7.3s-3.48-.66-7.14-2c-8.54-3.26-19-2.76-24.33,1.14A21.35,21.35,0,0,1,81,505.22c-.33,0-2.09-2-3.91-4.33Z"/><path id="path4857" class="cls-7" d="M85.17,513.84c0-6,10.26-10.79,18.31-8.62,4.73,1.27,13.58,7.71,12.26,8.92-.34.31-7.35.82-15.59,1.15C86.74,515.82,85.17,515.66,85.17,513.84Z"/><path id="path4859" class="cls-8" d="M88,526c-4.94-1-13.28-4.75-10.77-4.82a32.79,32.79,0,0,1,6.11,1.73c3.3,1.19,10.19,1.78,21.1,1.82l16.2,0v-6.23l-15.59.12c-26.79.22-24.28.69-24.21-4.58.17-13,20.13-18.07,32.83-8.38l5.26,4-.51-11.11c-.29-6.12-.7-11.33-.93-11.58-1.22-1.33-37.66,3.83-47.6,6.74-1.68.5-2.06.32-1.22-.56.67-.7,6.18-2.25,12.23-3.45s11.2-2.3,11.45-2.46-.16-2-.9-4.16a99.73,99.73,0,0,1-2.64-14.43c-.71-5.81-2.42-15.38-3.79-21.26s-2.28-11.34-2-12.12c.76-2.26,5.65,19.18,7.68,33.63,2.64,18.81,2.06,18.17,15.65,17.18,6.19-.45,11.47-1,11.74-1.24s.48-11,.47-24l0-23.55.87,22.94c.49,12.62,1.25,23.31,1.7,23.76,1,1,11.9,2.61,18.59,2.73l5,.09,2.75-18.64c1.51-10.26,3.07-20.23,3.45-22.15l.69-3.5-3.26,2.14c-4.16,2.72-12.5,2.79-15.16.13-1.18-1.17-1.42-2-.59-2a2.84,2.84,0,0,1,2.17,1.23c1.6,2.58,8.64,1.14,15.71-3.23,4.94-3,9-4.57,12.87-4.84,5.55-.4,5.57-.39,1,.59-6.93,1.49-10.47,3.8-11.22,7.35-.79,3.7-6.77,41.87-6.77,43.23s8.69,1.06,15.62-.74c3.51-.91,6.38-1.22,6.38-.7a107.36,107.36,0,0,1-3.51,10.52c-1.93,5.26-3.9,11.35-4.38,13.54-.76,3.51-.56,4,1.76,4,3.61,0,7.36,2.18,7.36,4.27,0,1-2.62,3.28-5.81,5.16l-5.81,3.41-32.4.22C107.7,527,90.81,526.59,88,526Zm74.25-4c6.3-3.17,6.82-4.65,2.1-5.92-3-.79-3.36-.56-3.36,2,0,3.92-4.21,4.65-17.79,3.1-16.47-1.89-18.9-1.74-18.9,1.17,0,2.32.82,2.44,16.25,2.44,14.42,0,16.86-.31,21.7-2.75Zm-2.49-2.77a15.32,15.32,0,0,0-1.41-3.36c-4-7.81-4.42-9.32-1.81-7.15,1.34,1.12,2.39-.66,5.5-9.35,2.11-5.9,3.84-11.11,3.84-11.56s-1.73-.23-3.83.5c-3.72,1.3-17.51.91-35-1l-7.65-.83v7.41c0,10.66.64,11.67,4.78,7.54,4.58-4.58,10.62-5.59,18.29-3,3.35,1.11,6.75,2.82,7.56,3.79,1.92,2.32,1.38,2.24-4.34-.68A26.12,26.12,0,0,0,135,499.11c-5,0-6.55.6-9.58,3.62s-3.57,4.51-3.34,8.56c.33,5.54,1,6,12,7.41,8.12,1,25.68,1.44,25.68.57Zm-40.7-3.81c.71-2.13-5.83-9.16-10.25-11-5.85-2.44-16.15-2.12-20.7.66-3.39,2.06-5.38,6.27-5.38,11.35,0,1.7,35.76.72,36.33-1Z"/><path id="path4863" class="cls-8" d="M105.63,524a7,7,0,0,1,3.67-.05c1.19.31.51.59-1.51.61s-3-.23-2.16-.56Z"/><path id="path4867" class="cls-8" d="M84,521.73c-3.88-1.5-2.43-1.66,15.59-1.74,16.89-.08,19.87.18,19.87,1.74s-2.51,1.82-15.59,1.74C93.89,523.41,86.67,522.78,84,521.73Z"/><path id="path4869" class="cls-8" d="M88,526c-6.41-1.33-15-5.66-15.9-8-1-2.73,1.9-5.43,6-5.43,2.36,0,3.43-.53,3.09-1.53-.82-2.34,5.68-7.93,11.12-9.56,7.29-2.18,15.09-.55,21.79,4.57,5.3,4,5.62,4.14,4.9,1.45a71.57,71.57,0,0,1-.79-11.89v-9l-9.48.85c-10.45.95-35,4.92-38.85,6.27-1.7.6-2,.47-1.19-.46.67-.73,6.17-2.3,12.22-3.5s11.21-2.3,11.45-2.46-.15-2-.9-4.15a101.73,101.73,0,0,1-2.64-14.43c-.71-5.82-2.41-15.39-3.78-21.27s-2.28-11.34-2-12.12c.75-2.26,5.65,19.18,7.68,33.64,2.64,18.8,2,18.16,15.65,17.18,6.18-.45,11.45-1,11.69-1.21s.46-11,.48-24l0-23.6.87,22.95c.47,12.61,1.24,23.32,1.71,23.78.92.93,12.34,2.53,19.18,2.69l4.36.1,2.75-18.64c1.52-10.26,3.07-20.22,3.45-22.15l.7-3.5-3.27,2.14c-3.82,2.5-12.1,2.82-14.81.57-1-.86-1.61-1.83-1.27-2.17s1.45.09,2.48.94c2.77,2.3,9.67.75,16.68-3.74a25,25,0,0,1,11.81-4.3c5.57-.4,5.61-.38,1.14.58-6.93,1.49-10.46,3.8-11.22,7.35-.79,3.71-6.77,41.87-6.77,43.23s8.7,1.06,15.63-.74c3.5-.91,6.38-1.22,6.38-.69a109.82,109.82,0,0,1-3.52,10.52c-1.93,5.26-3.9,11.35-4.37,13.53-.77,3.52-.57,4,1.76,4,3.6,0,7.35,2.18,7.35,4.28,0,1-2.61,3.27-5.81,5.15l-5.81,3.41-32.4.23C107.7,527,90.83,526.59,88,526Zm32.59-4.34v-3.12l-15.59.13c-25.17.2-24.51.26-24.32-2.15.23-2.87-5.06-3.65-6.11-.91-2.16,5.62,9,9,29.82,9.11l16.2.06v-3.12Zm41.62.36c6.3-3.17,6.82-4.65,2.09-5.91-3-.8-3.36-.57-3.36,2,0,3.92-4.2,4.66-17.78,3.1-16.48-1.89-18.9-1.74-18.9,1.17,0,2.32.82,2.45,16.25,2.45,14.42,0,16.86-.31,21.7-2.76Zm-2.49-2.76a15.66,15.66,0,0,0-1.41-3.37c-4-7.75-4.42-9.31-1.9-7.22,1.24,1,2.43-1,5.52-9.32,2.16-5.86,3.92-11,3.91-11.5s-1.73-.25-3.83.48c-3.72,1.3-17.52.91-35-1l-7.64-.83v7.41c0,10.66.64,11.68,4.77,7.54,4.59-4.58,10.63-5.58,18.29-3,3.35,1.12,6.76,2.82,7.56,3.79,1.93,2.32,1.38,2.24-4.33-.68A26.13,26.13,0,0,0,135,499.11c-5,0-6.55.6-9.57,3.63s-3.58,4.5-3.34,8.55c.33,5.62,1.09,6.06,12.65,7.41,9,1.06,25.07,1.42,25.07.57Zm-40.69-3.85c.7-2.11-5.88-9.14-10.26-11-5.85-2.44-16.16-2.11-20.71.66-3.38,2.06-5.37,6.27-5.37,11.35,0,1.67,35.78.65,36.34-1Z"/><path id="path4871" class="cls-8" d="M125.52,522.25c0-.91,3.53-1,11.31-.46,6.22.47,11.54,1.07,11.82,1.32s-4.81.45-11.31.45C129.72,523.56,125.52,523.1,125.52,522.25Z"/><path id="path4877" class="cls-8" d="M87.76,526c-6.42-1.32-13.57-4.86-15.27-7.57s1.12-5.83,5.59-5.83c2.37,0,3.44-.53,3.09-1.53-.81-2.35,5.69-7.93,11.12-9.56a24.08,24.08,0,0,1,21.37,4.24l5.26,4-.51-11.11c-.28-6.12-.69-11.31-.9-11.54-1.1-1.23-37.62,3.94-47.62,6.74-1.61.44-2,.27-1.23-.51,1.49-1.46,16.43-5.2,20.73-5.2,3.42,0,3.69-.77,2-5.36-.65-1.69-1.79-7.92-2.55-13.83S86.32,453.33,85,447.45s-2.24-11.34-2-12.12c.72-2.17,5.55,18.78,7.66,33.21,2.76,18.95,2.41,18.56,15.83,17.59A112.83,112.83,0,0,0,118,485c.23-.18.45-11,.51-24l.1-23.64.86,20.17c.47,11.1.93,21.65,1,23.46.2,3.89,1.2,4.27,14.29,5.35l9.85.81,2.77-18.78c1.53-10.33,3.09-20.36,3.47-22.28l.69-3.51-3.26,2.14c-4.31,2.83-12.53,2.81-15.2,0-1.93-2.05-1.9-2.11.4-1.14,5.06,2.16,11.11,1.11,17.57-3,4.39-2.81,8.14-4.19,12.12-4.46,3.17-.21,4.39-.12,2.71.2-6.88,1.32-12.1,4.46-12.79,7.69-2.18,10.24-6.6,42.23-6,43.24.83,1.34,13.5.25,18.27-1.57,3.74-1.42,3.71-1-.57,10.66-1.93,5.26-3.9,11.35-4.38,13.54-.76,3.51-.56,4,1.76,4,3.61,0,7.36,2.17,7.36,4.27,0,1-2.62,3.28-5.81,5.15l-5.81,3.42-32.4.22c-17.82.12-34.81-.27-37.76-.88Zm32.87-4.32V518.5l-15.59.18c-24.92.29-24.92.29-24.51-2.15.26-1.56-.46-2.14-2.68-2.14-4.72,0-4.59,3.75.2,6.23,6.81,3.52,9.6,4,26.38,4.06l16.2.1v-3.14Zm41.26.73c5.8-2.63,7-6.15,2.14-6.15-2.2,0-3.05.66-3.05,2.35,0,3.37-4.71,4-18.34,2.59-17-1.79-18.35-1.71-18.35,1.18,0,2.32.81,2.44,16.21,2.42,13.35,0,17.11-.45,21.39-2.39Zm-3-3.22c.74-.75.41-1.67-3.09-8.43-3.23-6.25-10.86-10.77-19.2-11.37-6.82-.5-7.54-.29-11,3.19-6.43,6.42-4.47,14.07,4,15.46,10,1.64,28.13,2.35,29.34,1.15Zm-39.72-3.49c1-1-2.49-5.65-6.63-8.81-5.58-4.26-17.45-5.47-23.41-2.38-4.56,2.36-4.71,2.57-5.84,8.59l-.89,4.77,18.16-.85c10-.48,18.36-1.07,18.61-1.32Zm46.11-25.12c.5-1.57-1.39-1.85-12.55-1.84-7.22,0-17.67-.44-23.22-1l-10.08-1v8c0,8.36,1.11,10.57,3.74,7.4,2.25-2.71,7.87-5.41,11.26-5.41,5.53,0,14.27,3.89,18.88,8.4l4.63,4.54,3.37-8.61c1.86-4.74,3.64-9.44,4-10.45Z"/><path id="path4885" class="cls-8" d="M87.76,526c-6.42-1.32-13.57-4.86-15.27-7.57s1.12-5.83,5.59-5.83c2.37,0,3.44-.53,3.09-1.53-.81-2.35,5.69-7.93,11.12-9.56a24.08,24.08,0,0,1,21.37,4.24l5.26,4-.51-11.11c-.28-6.12-.69-11.31-.9-11.54-1.1-1.23-37.62,3.94-47.62,6.74-1.68.46-2.07.28-1.23-.6,1.39-1.44,16.35-5.11,20.86-5.11,3.29,0,3.55-.79,1.82-5.36-.65-1.69-1.79-7.92-2.55-13.83S86.32,453.33,85,447.45s-2.24-11.34-2-12.12c.71-2.13,5.53,18.63,7.69,33.18,2.39,16,4,18.93,10.2,17.91a85.2,85.2,0,0,1,10.88-.75h6.42l.22-24.15.23-24.15.83,20.17c.45,11.1.9,21.66,1,23.46.2,3.89,1.2,4.27,14.29,5.35l9.85.81,2.77-18.78c1.53-10.33,3.09-20.36,3.47-22.28l.69-3.5-3.26,2.14c-4.31,2.82-12.53,2.8-15.21,0-1.92-2.05-1.9-2.11.41-1.14,5.06,2.16,11.11,1.11,17.57-3,4.35-2.8,8.17-4.21,12.12-4.49,5.37-.39,5.46-.35,1.28.55-5.55,1.21-10.41,4.3-11.24,7.17-.91,3.14-5.46,33.08-5.91,38.85l-.37,4.89,7.22-.25a47.53,47.53,0,0,0,10.7-1.47c1.91-.66,3.47-.72,3.47-.13a99.75,99.75,0,0,1-3.51,10.63c-1.93,5.26-3.9,11.35-4.38,13.54-.76,3.51-.56,4,1.76,4,3.61,0,7.36,2.17,7.36,4.27,0,1-2.62,3.28-5.81,5.15l-5.81,3.42-32.4.22c-17.82.12-34.81-.27-37.76-.88Zm32.87-4.32V518.5l-15.59.18c-25.26.29-24.76.34-24.76-2.54,0-1.92-.66-2.44-2.74-2.14-4.37.62-4.08,4.24.52,6.64,6.34,3.3,10.27,3.88,27,4l15.59.12v-3.14Zm41.26.73c5.8-2.63,7-6.15,2.14-6.15-2.2,0-3.05.66-3.05,2.35,0,3.37-4.71,4-18.34,2.59-17-1.79-18.35-1.71-18.35,1.18,0,2.32.81,2.44,16.21,2.42,13.35,0,17.11-.45,21.39-2.39Zm-3.09-3.15c.37-.37-.59-3.29-2.13-6.48a23.21,23.21,0,0,0-19.42-13.37c-7.21-.6-10.75.76-13.7,5.28-2.42,3.68-1.41,10.92,1.7,12.22,4.8,2,32,3.91,33.55,2.35Zm-39.49-3.72c1.13-1.12-4.6-7.33-9.19-9.95-9-5.17-24.33-2.44-26.33,4.69-2.22,7.92-2.91,7.65,17,6.68,9.91-.48,18.26-1.12,18.56-1.41Zm42-14.87c1.76-4.53,3.51-9.08,3.88-10.09.58-1.58-1.26-1.85-12.49-1.84-7.24,0-17.7-.44-23.25-1l-10.08-1v7.12c0,8.49,1.24,11.24,3.67,8.31,2.31-2.77,7.89-5.48,11.32-5.48,5.3,0,13.85,3.7,18.09,7.83a32.58,32.58,0,0,0,4.92,4.23c.4.09,2.17-3.55,3.93-8.08Z"/><path id="path4891" class="cls-8" d="M76.86,518.43c-2-1.95-1.85-3,.28-3a2.86,2.86,0,0,1,2.33,2.24c.67,2.58-.47,2.92-2.61.78Z"/><path id="path4895" class="cls-8" d="M88,526c-6.41-1.33-15-5.66-15.9-8-1-2.53,1.63-5.22,5.48-5.66,1.8-.21,3.2-.93,3.11-1.61-.31-2.22,6.63-7.77,11.57-9.25a24.65,24.65,0,0,1,20.88,3.81,59.33,59.33,0,0,0,5.3,3.61c.45,0-.47-21.31-.94-21.81-.76-.82-27.52,2.47-38.1,4.68-5.93,1.23-11,2-11.25,1.77-.9-.88,5.52-2.74,14.92-4.32,5.17-.87,9.4-2,9.4-2.49A17.61,17.61,0,0,0,91.42,483c-.59-1.57-2-9.17-3.12-16.89s-2.86-17.26-3.87-21.19-1.65-8.06-1.44-9.17c.59-2.94,5.48,17.93,7.7,32.81,2.38,16,4,18.92,10.19,17.9a85.51,85.51,0,0,1,10.89-.75h6.42l.22-24.15.22-24.15.83,20.18c.46,11.09.91,21.65,1,23.45.2,3.9,1.21,4.27,14.3,5.35l9.84.82,2.77-18.79c1.53-10.33,3.09-20.36,3.47-22.28l.7-3.5-3.27,2.14c-4.31,2.82-12.53,2.8-15.2,0-1.93-2-1.9-2.11.4-1.13,5.07,2.15,11.11,1.11,17.58-3,4.35-2.79,8.16-4.21,12.11-4.49,5.38-.38,5.46-.35,1.29.56-5.56,1.2-10.42,4.29-11.25,7.16-.91,3.14-5.46,33.09-5.9,38.85l-.38,4.9,7.22-.26a48.12,48.12,0,0,0,10.7-1.46c1.91-.67,3.48-.73,3.48-.14a99,99,0,0,1-3.52,10.64c-1.93,5.25-3.9,11.34-4.37,13.53-.77,3.52-.56,4,1.76,4,3.61,0,7.35,2.18,7.35,4.27,0,1-2.61,3.28-5.81,5.16l-5.81,3.41-32.4.22C107.7,527,90.83,526.59,88,526Zm32.59-4.34v-3.12l-15.59.13c-25.88.2-24.76.32-24.76-2.54,0-1.92-.66-2.43-2.74-2.14-4.36.63-4.08,4.24.53,6.64,6.33,3.3,10.27,3.89,27,4l15.59.13v-3.12Zm41.27.7c5.8-2.63,7-6.14,2.14-6.14-2.2,0-3.06.66-3.06,2.35,0,3.36-4.71,4-18.34,2.58-17-1.79-18.34-1.7-18.34,1.18,0,2.32.81,2.44,16.2,2.42,13.35,0,17.11-.44,21.4-2.39Zm-3.07-3.18c1.5-1.5-5.68-12.75-10.08-15.8-5.37-3.73-16.38-5.42-20.58-3.16-6.8,3.63-8.33,14.8-2.3,16.73,6.65,2.12,31.4,3.8,33,2.23Zm-39.52-3.68c1.13-1.13-4.6-7.34-9.19-10-9.3-5.32-23.46-2.69-26.08,4.84-2.68,7.68-3.13,7.5,16.71,6.54,9.91-.48,18.26-1.12,18.56-1.42Zm42-14.87c1.77-4.54,3.51-9.09,3.89-10.11.58-1.59-1.16-1.86-11.88-1.84-6.9,0-17.37-.41-23.25-.95l-10.7-1,0,7.09c0,8.48,1.23,11.22,3.67,8.29,2.3-2.77,7.89-5.48,11.31-5.48,5.3,0,13.85,3.7,18.1,7.83a33.09,33.09,0,0,0,4.91,4.24c.4.09,2.17-3.55,3.93-8.09Z"/><path id="path4901" class="cls-8" d="M88,526c-6.4-1.32-15-5.65-15.9-8-1-2.55,1.81-5.43,5.23-5.43,1.6,0,2.91-.63,2.91-1.4,0-2.52,7-8.2,12-9.69a24.65,24.65,0,0,1,20.88,3.81,62,62,0,0,0,5.3,3.61c.17,0,.14-4.95-.08-11-.35-9.82-.64-11-2.68-11-7,0-36.27,4.46-45.83,7-1.76.46-2.09.26-1.17-.72.71-.74,6.21-2.38,12.23-3.64,7.68-1.61,10.88-2.8,10.73-4-.37-2.84-2.89-16.76-6.12-33.86-1.69-9-2.8-16.56-2.47-16.9.91-.9,5.38,19,7.59,33.76,2.39,16,4,18.93,10.2,17.91a85.51,85.51,0,0,1,10.89-.75h6.42l.22-24.15.22-24.15.83,19.56c.46,10.76.91,21.06,1,22.89.21,4.39,2.59,5.46,14.31,6.49l9.82.85,2.77-18.78c1.53-10.33,3.09-20.36,3.47-22.28l.7-3.5-3.27,2.14c-4.31,2.82-12.53,2.8-15.2,0-1.93-2.05-1.9-2.11.4-1.14,4.72,2,11,.86,17.58-3.16A27.41,27.41,0,0,1,163.21,436c5.37-.38,5.44-.35,1.24.56-6,1.3-10.62,4.47-11.43,7.83-1.47,6.11-6.42,41.93-5.9,42.78.8,1.31,4.81,1.09,13.55-.74,4.21-.88,7.65-1.24,7.65-.79s-1.92,6.27-4.26,12.94c-5,14.24-5.1,15.18-1.78,15.18,3.53,0,7.26,2.2,7.26,4.27,0,1-2.61,3.28-5.81,5.15l-5.81,3.42-32.4.21C107.7,527,90.83,526.58,88,526Zm32.59-4.33v-3.12l-15.59.12c-25.77.21-24.76.31-24.76-2.45,0-2.55-1-2.94-4.18-1.7-2.78,1.07-2.38,3.82.82,5.54,6.36,3.43,13.26,4.56,28.12,4.64l15.59.08v-3.11Zm42.49.3c4.78-2.57,5.28-5.75.92-5.75-2.19,0-3.06.67-3.06,2.32,0,3.47-4.43,4-20.28,2.46-14.2-1.38-17.86-.79-15.78,2.57,1.49,2.41,33.22,1.09,38.2-1.6Zm-4.58-3.53c0-3.08-5-11.65-8.25-14-7.42-5.44-18.43-6.95-23.1-3.17-6,4.85-6.72,13.94-1.28,15.71,7.92,2.57,32.63,3.68,32.63,1.46Zm-39.3-2.88c.24-.23-.73-2-2.15-4-7.92-11.12-29.58-11.58-33.17-.7-2.24,6.78-1.52,7,17.62,6.05,9.49-.48,17.45-1.07,17.7-1.3Zm42.1-14.92c1.76-4.54,3.36-8.95,3.56-9.79.27-1.15-3.61-1.66-15.53-2-8.75-.27-19.06-.89-22.93-1.39l-7-.9,0,7.2c0,8.58,1.23,11.34,3.67,8.4,2.3-2.77,7.89-5.48,11.31-5.48,5.3,0,13.85,3.7,18.1,7.83a32.73,32.73,0,0,0,4.91,4.23c.4.09,2.17-3.55,3.92-8.08Z"/><path id="path4903" class="cls-8" d="M88,526c-6.4-1.32-15-5.65-15.9-8-1-2.55,1.81-5.43,5.23-5.43,1.6,0,2.91-.63,2.91-1.4,0-2.52,7-8.2,12-9.69a24.65,24.65,0,0,1,20.88,3.81,62,62,0,0,0,5.3,3.61c.17,0,0-4.81-.29-10.7l-.62-10.7-8.56.39c-7.75.36-30.91,3.89-38.51,5.87-2.33.61-2.74.45-1.7-.66.74-.8,6.24-2.46,12.22-3.68,7.63-1.57,10.81-2.73,10.64-3.91C90.9,480.15,87.27,460,85,448.62c-1.44-7.26-2.32-13.48-2-13.84.92-.91,5.31,18.5,7.73,34.13,2.74,17.67,3.09,18,16.7,17.12l10.7-.72.21-24,.22-24,.85,18.95c.46,10.43.91,20.72,1,22.89.21,5.06,2.18,6,14.24,7.09l9.76.85,2.84-18.78c1.56-10.32,3.15-20.35,3.53-22.27l.7-3.51-3.27,2.14c-4.31,2.83-12.53,2.81-15.2,0-1.92-2.05-1.9-2.12.4-1.23,5.59,2.15,7.79,1.77,17.12-3,6.17-3.13,11.36-4.93,14.06-4.89,4.07.08,4,.16-1.78,1.71-3.34.89-7,2.73-8.05,4.08-1.65,2-6.31,28.56-7.68,43.65-.2,2.21.41,2.41,6.5,2.06a67.79,67.79,0,0,0,10.7-1.43c2.19-.58,4-.65,4-.15s-1.57,5.53-3.48,11.21c-5.43,16.16-5.57,17-2.58,17,3.54,0,7.28,2.19,7.28,4.27,0,1-2.61,3.28-5.81,5.15l-5.81,3.42-32.4.21C107.7,527,90.83,526.58,88,526Zm32.59-4.33v-3.12l-15.59.12c-25.93.21-24.76.33-24.76-2.58,0-1.84-.55-2.36-1.93-1.83a11.16,11.16,0,0,1-3.06.74c-2.57,0-.85,3.74,2.51,5.48,6,3.13,12.18,4,27.85,4.18l15,.12v-3.11Zm42.49.1c4.73-2.86,5.18-5.55.92-5.55-2.2,0-3.06.66-3.06,2.35,0,3.48-4.95,4.07-20.73,2.5-13.77-1.38-17.37-.79-15.33,2.5.63,1,5.67,1.32,17.56,1,13.92-.35,17.32-.81,20.64-2.82Zm-4.58-3.14a23.83,23.83,0,0,0-1.7-5.33c-4.5-10.76-19.47-17.22-28.76-12.42-6.5,3.37-7.94,14.23-2.13,16.11,7.4,2.4,32.59,3.67,32.59,1.64Zm-40-3.22c1.84-1.13-4.08-7.57-9.28-10.09-10-4.84-22.43-2.09-25.36,5.61-2.5,6.58-1.52,6.93,16.91,5.95,9.23-.48,17.21-1.15,17.73-1.47Zm43.05-15.48c1.7-4.52,3.09-8.89,3.09-9.72,0-1.08-3.32-1.5-11.92-1.5-6.56,0-16.74-.44-22.62-1l-10.7-1,0,7.1c0,8.47,1.24,11.22,3.67,8.29,2.3-2.77,7.89-5.48,11.31-5.48,5.08,0,13.57,3.59,18.62,7.86,2.69,2.28,5,4,5.17,3.88s1.66-3.95,3.36-8.47Z"/><path id="path4907" class="cls-8" d="M88,526c-6.39-1.31-15-5.64-15.9-8-1-2.55,1.81-5.44,5.23-5.44,1.69,0,2.91-.72,2.91-1.72,0-2.56,6.77-7.79,12.16-9.41,6.61-2,14.8-.45,20.75,3.87l5,3.61V498.57c0-5.68-.53-10.65-1.18-11.05-1.5-.93-30,2.56-40.17,4.91-9.12,2.11-9.13,2.11-8.22.64.39-.63,5-2.05,10.16-3.16,12.85-2.75,13.85-3.06,13.17-4.18-.59-1-7.86-41.29-8.72-48.37-1-7.86,3.25,7.64,5.64,20.78,4.29,23.66,5,26.26,7.09,27.36,1.13.59,6.59.79,12.14.45l10.09-.61.21-24,.22-24,.85,18.34c.46,10.09.92,20.38,1,22.88.2,5.73,1.76,6.56,14.22,7.65l9.78.84,2.84-18.74c1.56-10.31,3.15-20.32,3.53-22.25l.7-3.5-3.27,2.14c-4.31,2.83-12.53,2.81-15.2,0-1.93-2.05-1.9-2.12.4-1.16,4.52,1.88,10.12.77,18.41-3.63,5.28-2.8,9.83-4.35,12.65-4.29,4.34.08,4.32.1-1.51,1.67-3.25.87-6.69,2.37-7.66,3.34-1.79,1.79-4.05,12.94-7,34.34l-1.63,11.92h6.81a49.1,49.1,0,0,0,10.78-1.14c2.18-.63,4-.73,4-.23s-1.62,5.69-3.6,11.53c-5.14,15.21-5.14,15.53-.09,17.18,6.34,2.07,6.08,4.88-.83,8.94l-5.88,3.45-32.4.21c-17.82.12-34.69-.26-37.48-.83Zm32.59-4.33v-3.11l-15.59.12c-25.1.2-24.4.27-25.09-2.37-.45-1.71-1.34-2.18-3.2-1.69-2.75.72-3.08,1.42-1.65,3.57,2.91,4.35,12.27,6.29,31.16,6.47l14.37.13v-3.12Zm37.3,1.77c7.94-2.17,11.74-7.21,5.42-7.21a2.13,2.13,0,0,0-2.37,2.35c0,3.48-4.95,4.07-20.73,2.49-13.63-1.36-17.36-.78-15.4,2.39,1.08,1.76,26.61,1.75,33.07,0Zm.61-4.68c0-8.51-12.88-19.55-22.87-19.62-7.37-.05-13.81,5.26-13.81,11.39,0,4.44,4.18,7.06,12.84,8.06,12.25,1.42,23.84,1.5,23.84.17Zm-40-3.34c1.84-1.13-4.08-7.57-9.28-10.09-9.59-4.64-21.59-2.17-25.07,5.17-3.28,6.89-2,7.38,16.62,6.39,9.24-.49,17.21-1.15,17.73-1.47ZM164,492.81l.78-3.1-16.9-.78c-9.29-.42-19.51-1.14-22.7-1.58l-5.81-.81V494c0,4.08.51,7.74,1.14,8.13s3.18-.68,5.67-2.37,6-3.08,7.82-3.08c5.41,0,13.8,3.46,19,7.84l4.88,4.12,2.68-6.35a89.07,89.07,0,0,0,3.46-9.46Z"/><path id="path4909" class="cls-8" d="M88,526c-6.34-1.26-15-5.59-15.9-8-1-2.54,1.81-5.43,5.23-5.43,1.69,0,2.91-.72,2.91-1.73,0-2.55,6.77-7.78,12.16-9.4,6.63-2,14.79-.46,20.8,3.9l5,3.65-.35-10.74-.36-10.75-7.33.36c-7.22.35-33.88,4.35-39.63,5.94-2,.55-2.67.38-2.11-.52.45-.74,5.08-2.25,10.28-3.36,12.82-2.73,13.85-3.06,13.18-4.15s-8-41.87-8.75-48.4c-.89-7.69,3.25,7.5,5.66,20.79,4.31,23.74,5,26.26,7.09,27.3,1.13.56,6.59.77,12.14.48l10.08-.53.22-24,.21-24,.86,17.73c.47,9.75.92,20.08,1,23,.18,6.26,1.44,6.95,14.87,8.21l9.12.85,2.86-19.37c1.57-10.66,3.16-20.67,3.53-22.26.67-2.87.65-2.87-2.59-.75-4,2.62-12.5,2.8-15,.31-1.62-1.63-1.15-1.77,4.19-1.25,5.17.49,7.17,0,14.33-3.84,5.35-2.84,9.9-4.39,12.73-4.34,4.34.08,4.32.11-1.51,1.67-3.25.88-6.7,2.38-7.67,3.35-1.81,1.82-5.77,22.27-7.29,37.62l-.85,8.63h6.59a48.44,48.44,0,0,0,10.55-1.13c2.18-.63,4-.73,4-.23s-1.65,5.79-3.67,11.76c-4.75,14-4.72,15.69.3,17.17,6.22,1.83,5.27,5.26-2.58,9.36l-6.56,3.42-31.35-.13C107.22,527,90.83,526.51,88,526Zm32.59-4.29v-3.12l-15.59.13c-25.1.2-24.4.26-25.09-2.37-.45-1.73-1.33-2.18-3.25-1.68-3.18.83-2.79,2.52,1.29,5.57s12.18,4.27,28.89,4.44l13.75.15v-3.12Zm37.3,1.77c7.94-2.18,11.74-7.21,5.42-7.21a2.13,2.13,0,0,0-2.37,2.35c0,3.45-4.82,4-20.75,2.54-13.62-1.28-17.28-.73-15.38,2.34,1.08,1.76,26.61,1.74,33.07,0Zm0-4.71c1.28-2.08-2.53-9.16-7.09-13.15-4.34-3.81-11-6.45-16.35-6.46-9.26,0-15.95,11.78-9.65,17,3.08,2.56,31.72,4.8,33.09,2.59ZM118,515.58c1.3-1.22-1.73-5.62-5.82-8.46-9.55-6.61-24.1-4.86-28,3.37-3.27,6.87-2,7.35,16.62,6.37,9.24-.49,17-1.06,17.21-1.28Zm46.6-24.53c0-.87-5.8-1.61-16.75-2.11-9.25-.43-19.43-1.14-22.62-1.58l-5.81-.81,0,6.59c0,9.48,1,10.5,6.69,6.67,2.55-1.73,6.11-3.14,7.92-3.14,5.42,0,13.8,3.46,19,7.85l4.89,4.13,3.3-8.13a72.72,72.72,0,0,0,3.37-9.47Z"/><path id="path4911" class="cls-8" d="M88,526c-6.34-1.26-15-5.59-15.9-8-1-2.54,1.81-5.43,5.23-5.43,1.69,0,2.91-.72,2.91-1.73,0-2.55,6.77-7.78,12.16-9.4,6.63-2,14.79-.46,20.8,3.9l5,3.65-.35-10.74-.36-10.75-7.94.42c-7.38.39-31.39,4-38.73,5.86-2.16.54-2.94.37-2.39-.52.45-.72,5.07-2.23,10.27-3.34,12.82-2.73,13.85-3.06,13.18-4.15s-8-41.87-8.75-48.4c-1-9,3.5,8.71,6.82,26.61,2,10.59,3.91,19.81,4.32,20.48s5.94,1.21,12.29,1.21h11.55l.21-24.15.21-24.15.86,17.12c.48,9.42.93,19.75,1,23,.18,6.95,1.17,7.54,14.87,8.82l9.12.85,3.19-21.2c1.75-11.67,3.1-21.32,3-21.46a23.76,23.76,0,0,0-5,1.42c-5.23,1.8-10.73,1.31-12.76-1.12-1-1.19,0-1.4,4.6-1,5,.48,7.08-.09,14.16-3.85,5.41-2.87,9.88-4.38,12.8-4.33l4.48.09L163,437.28c-3.24.88-6.67,2.36-7.61,3.3-1.71,1.71-5.83,23-7.38,38.16l-.84,8.14,6,0a58.08,58.08,0,0,0,10.56-1.1c2.52-.58,4.59-.67,4.59-.2s-1.65,5.75-3.67,11.72c-4.75,14-4.72,15.69.3,17.17,6.26,1.84,5.69,4.77-1.75,9l-6.5,3.72-31.79-.12C107.43,527,90.83,526.51,88,526Zm32.59-4.29v-3.12l-15.59.13c-24.73.19-24.76.19-24.76-1.84,0-1.16-1.16-1.83-3.16-1.83-7.22,0,1,7,10,8.48a178.71,178.71,0,0,0,19.8,1.15l13.75.15v-3.12Zm41.61,0c4.61-2.69,5.3-4.55,1.93-5.2-1.33-.26-2.38.52-2.79,2.07-.93,3.56-5.35,4.11-21.15,2.62-9.91-.93-14.27-.93-15.21,0-2.78,2.78,2.42,3.77,17.66,3.37,12.7-.33,16-.82,19.56-2.87Zm-4.66-5.4c-.43-3.83-6.07-10.93-11-13.8a30.4,30.4,0,0,0-9.77-2.9c-5.46-.65-6.42-.38-9.86,2.79-4.89,4.52-6,8.92-3,12.48,1.73,2.1,4.23,2.92,11.38,3.76a139.8,139.8,0,0,0,15.9.9c6.41-.17,6.71-.32,6.38-3.23Zm-39.49-.75c1.15-1.08-2.74-6.19-6.86-9-5.94-4.07-18-4.36-23.13-.55-4.23,3.15-6.41,8.88-4,10.51,1.55,1,32.78.18,34-.94Zm43.37-15.77a71.14,71.14,0,0,0,3.19-9c0-.56-7.57-1.37-16.81-1.79s-19.43-1.14-22.62-1.58l-5.81-.81,0,6.59c0,9.47,1,10.5,6.69,6.67,2.55-1.73,6.11-3.15,7.91-3.15,5.16,0,13.71,3.42,18.39,7.35,2.36,2,4.64,3.61,5.07,3.63s2.22-3.55,4-7.93Z"/><path id="path4915" class="cls-8" d="M88,526c-6.34-1.26-15-5.59-15.9-8-1-2.54,1.81-5.43,5.23-5.43,1.69,0,2.91-.72,2.91-1.73,0-2.55,6.77-7.78,12.16-9.4,6.61-2,14.8-.46,20.75,3.86l5,3.62V498.58c0-5.68-.44-10.6-1-10.93C115.86,486.82,89,490,78,492.36c-5,1-9.32,1.63-9.65,1.3-.94-.94,5.12-2.91,13.93-4.54,4.45-.82,8.32-2.1,8.61-2.86s-1.19-11-3.28-22.69-4-23.24-4.31-25.6c-1.13-9.64,3.24,6.94,6.29,23.85,4.6,25.46,3.43,23.84,17.17,23.84h11.47l.18-24.15.18-24.15,1,20.79c.55,11.43,1.29,22,1.64,23.4.72,3,2.69,3.62,15,4.8l8.86.85.06-3.52c0-1.94,1.34-11.5,2.89-21.25s2.75-17.84,2.65-18a23.76,23.76,0,0,0-5,1.42c-5.25,1.8-10.73,1.31-12.78-1.16-1-1.23-.15-1.42,4.15-.94,4.53.51,6.95-.13,14.41-3.81,5.55-2.75,10.58-4.38,13.23-4.31l4.27.13-4.13,1c-10.48,2.47-11.08,3.59-14.79,27.73-3.57,23.2-3.69,22.4,3.33,22.36a56.27,56.27,0,0,0,10.39-1.09c2.52-.59,4.59-.68,4.59-.2s-1.65,5.75-3.67,11.72c-4.75,14-4.72,15.69.3,17.17,6.25,1.84,5.69,4.77-1.75,9l-6.5,3.73-31.79-.12C107.43,527,90.83,526.51,88,526Zm32.59-4.29v-3.12l-15.59.13c-24.91.2-24.76.21-24.76-1.93,0-1.29-.9-1.79-2.75-1.52-6.9,1,.6,6.73,10.7,8.19a191,191,0,0,0,19.87,1.22l12.53.15v-3.12Zm41.72-.11c4.51-2.63,5.16-4.49,1.82-5.13-1.34-.26-2.38.53-2.8,2.11-.92,3.54-6,4.19-20.82,2.68-12-1.24-16.25-.94-16.25,1.15s3.4,2.37,18.49,2c12.68-.32,16.16-.82,19.56-2.8Zm-4.77-5.33c-.43-3.83-6.07-10.93-11-13.8a30.4,30.4,0,0,0-9.77-2.9c-5.46-.65-6.42-.38-9.86,2.79-4.89,4.52-6,8.92-3,12.48,1.73,2.1,4.23,2.92,11.38,3.76a139.8,139.8,0,0,0,15.9.9c6.41-.17,6.71-.32,6.38-3.23Zm-44.71,0c6.5,0,6.84-1.75,1.34-7-9.9-9.38-28.16-7.69-30.8,2.84-1.21,4.79,1,5.57,13.26,4.79,6-.37,13.28-.68,16.2-.68Zm48.59-16.52a71.14,71.14,0,0,0,3.19-9c0-.56-8.05-1.39-17.89-1.83s-20-1.16-22.62-1.57l-4.73-.76,0,6.58c0,9.46,1,10.49,6.69,6.66,2.55-1.73,6.11-3.14,7.92-3.14,5.23,0,14,3.45,18.48,7.33,2.3,2,4.54,3.59,5,3.62s2.22-3.53,4-7.91Z"/><path id="path4917" class="cls-8" d="M88,526c-6.34-1.26-15-5.59-15.9-8s1.68-5.43,4.39-5.43c1.14,0,3.33-1.71,4.87-3.79,6.47-8.75,21-10.72,30.84-4.19a31.66,31.66,0,0,0,5.31,3.09c1,0,.71-17.56-.3-19.07-1.3-1.92-31.69,1.49-46.62,5.24-2,.49-2.67.29-2.11-.61s5.19-2.29,10.52-3.43,10.29-2.46,11-2.93c1-.6.26-7.14-2.46-22.73-2.11-12-4.06-23.81-4.35-26.17-1.18-9.77,3.25,7,6.28,23.85,4.6,25.46,3.43,23.84,17.17,23.84h11.46l.21-24.15.21-24.15.87,15.9c.49,8.74.94,18.77,1,22.29.18,8.1,2.24,9.56,15.12,10.7l9.47.84.06-3.46c0-1.91,1.34-11.45,2.89-21.2s2.75-17.84,2.65-18a23.6,23.6,0,0,0-5,1.42c-5.25,1.81-10.74,1.31-12.78-1.16-1-1.22-.15-1.42,4.15-.94,4.53.51,6.95-.13,14.41-3.81,5.6-2.77,10.56-4.38,13.23-4.29,2.35.08,3.17.38,1.82.67-6.84,1.48-11.57,4.54-12.71,8.22-1.35,4.42-4.52,23.59-5.73,34.68l-.83,7.64,6,0a58.06,58.06,0,0,0,10.55-1.1c2.52-.58,4.59-.67,4.59-.2s-1.65,5.75-3.67,11.72c-4.69,13.85-4.65,14.84.61,17,2.35,1,4.28,2.63,4.28,3.66s-2.89,3.52-6.42,5.55l-6.42,3.68-31.79-.12C107.43,527,90.83,526.51,88,526Zm32.59-4.29v-3.12l-15.59.13c-24.73.19-24.76.19-24.76-1.84s-4.29-2.56-5.4-.78c-.76,1.24,2.49,4.27,6,5.62,4.15,1.59,15.35,2.78,27.82,3l11.92.16v-3.12Zm41.83-.17c4.4-2.57,5-4.43,1.71-5.07-1.33-.26-2.38.52-2.78,2a5.46,5.46,0,0,1-3.76,3.24c-2.89.72-18.06,0-26.6-1.23-2-.29-4.5,0-5.51.67q-6.22,4.08,17.37,3.26c12.44-.44,16.34-1,19.57-2.9Zm-5.29-2.71c2.61-1.65-3-10.83-9.35-15.28-6.6-4.64-16.71-5.28-21.08-1.34-5.56,5-5.55,12.91,0,14.67,7,2.24,27.85,3.57,30.41,1.95Zm-39.59-4c1.89-1.79-7-9.2-12.94-10.81-5.21-1.4-12-.79-16.18,1.46-1.25.67-3.09,3.17-4.09,5.57-1.5,3.59-1.54,4.55-.2,5.43,2.06,1.37,31.77-.1,33.41-1.65Zm43.86-15.23c1.72-4.47,2.9-8.51,2.61-9s-8.38-1.24-18-1.69-19.52-1.17-22.06-1.57l-4.6-.74v6.17c0,9.92.57,10.52,6.65,7,2.85-1.67,6.55-3,8.22-3,5,0,13.79,3.53,18.24,7.34,2.3,2,4.54,3.59,5,3.62s2.21-3.61,3.94-8.07Z"/><path id="path4919" class="cls-8" d="M88,526c-6.34-1.26-15-5.59-15.9-8s1.68-5.43,4.39-5.43c1.14,0,3.33-1.71,4.87-3.79,6.47-8.75,21-10.72,30.84-4.19a30,30,0,0,0,5.36,3.09c.38,0,.53-4.27.33-9.48l-.36-9.47-10.39.19c-9,.16-27,2.6-36.56,4.95-2,.48-2.66.27-2.1-.63s5.19-2.29,10.52-3.43,10.27-2.45,11-2.9c.92-.57.17-7.53-2.46-22.73-2.08-12.06-4-23.84-4.35-26.2-1.43-10.77,2.33,3,6.3,23.11,2.31,11.7,4.82,22,5.57,22.93,1,1.16,4.6,1.65,12.23,1.65h10.86l.18-24.15.19-24.15,1.11,22c.76,14.85,1.62,22.53,2.68,23.61.85.87,5.08,2.1,9.39,2.72,12.52,1.81,13.34,1.68,13.4-2.18,0-1.85,1.34-11.34,2.89-21.09s2.75-17.84,2.65-18a23.76,23.76,0,0,0-5,1.42c-5.25,1.81-10.73,1.31-12.78-1.16-1-1.22-.18-1.42,4-.95,4.34.49,7-.21,14.39-3.82,5.5-2.66,10.8-4.37,13.38-4.31,2.36.05,3.46.36,2.45.69-11.22,3.63-12.17,4.27-13.42,8.9-1.47,5.44-6.11,34.93-6.13,38.91,0,2.44.59,2.75,5.19,2.7a69.19,69.19,0,0,0,10.39-1.06c2.86-.55,5.2-.72,5.2-.38s-1.65,5.78-3.67,12.08S161,509.73,161,510.73s1.93,2.6,4.28,3.59,4.28,2.63,4.28,3.66-2.89,3.52-6.42,5.55l-6.42,3.68-31.79-.12C107.43,527,90.83,526.51,88,526Zm32.59-4.29v-3.12l-15.59.13c-24.91.2-24.76.21-24.76-1.93,0-1.29-.9-1.79-2.75-1.52-7.3,1,2.16,7.13,13,8.37,4.12.47,12.58.93,18.8,1l11.31.17v-3.12Zm41.92-.23c4.32-2.52,4.92-4.38,1.62-5-1.33-.26-2.38.52-2.78,2a5.43,5.43,0,0,1-3.76,3.23c-2.89.73-18.06,0-26.6-1.22-2-.29-4.5,0-5.51.67-4.19,2.75,1.61,3.82,17.47,3.2C155.29,523.87,159.46,523.25,162.55,521.44Zm-5.43-2.62c2.33-1.48-2.23-10.09-7.44-14-4.87-3.69-13.39-6.1-18-5.09-8,1.75-12.23,13.27-6.13,16.54,4.43,2.37,28.75,4.35,31.56,2.57Zm-39.62-4c1.36-1.26-3.39-6.69-7.91-9.05-8-4.19-20.38-3-23.68,2.2-3.11,4.93-3.49,8-1.09,8.61,3.42.93,31.4-.57,32.68-1.76Zm44-15.39c2.09-5.4,2.73-8.46,1.87-9s-8.82-1.17-18-1.63S126.52,487.7,124,487.3l-4.58-.73,0,6c0,9,1.23,10.15,7.11,6.84,2.65-1.49,6.16-2.71,7.8-2.71,5,0,13.75,3.55,18.18,7.34,2.3,2,4.54,3.59,5,3.62s2.22-3.64,4-8.14Z"/><path id="path4921" class="cls-8" d="M88,526c-6.34-1.26-15-5.59-15.9-8s1.68-5.43,4.39-5.43c1.14,0,3.33-1.71,4.87-3.79,6.47-8.75,21-10.72,30.84-4.19a31.66,31.66,0,0,0,5.31,3.09c1.09,0,.66-16.42-.49-18.23-1.6-2.53-22.25-.61-45.95,4.28-2.57.53-3.3.37-2.44-.54.68-.72,5.84-2.4,11.46-3.74a96,96,0,0,0,10.73-2.94c.27-.27-1.21-10.34-3.28-22.37s-4-23.8-4.35-26.16c-1.43-10.77,2.34,3,6.3,23.11,2.31,11.7,4.82,22,5.57,22.93,1,1.16,4.6,1.65,12.23,1.65h10.86l.19-24.15.19-24.15,1.13,22c.76,14.89,1.63,22.54,2.69,23.63,1.89,2,20.08,4.59,21.43,3.1.52-.58,2.3-10.29,4-21.58,2.64-18,2.77-20.44,1.07-19.74-7.36,3-13.45,3-16-.07-1-1.22-.19-1.43,3.94-1s7-.27,14.36-3.82c5.47-2.63,10.86-4.36,13.45-4.3l4.31.08-5.6,1.72c-3.07.95-6.5,2.74-7.62,4-2,2.17-5.75,20.93-7.64,37.85l-.85,7.64,5.35-.05a71.29,71.29,0,0,0,10.55-1.06c2.86-.55,5.2-.72,5.2-.38s-1.65,5.78-3.67,12.08S161,509.73,161,510.73s1.93,2.6,4.28,3.59,4.28,2.59,4.28,3.58-2.76,3.49-6.13,5.56l-6.13,3.77-32.08-.13C107.56,527,90.83,526.51,88,526Zm32.59-4.29v-3.12l-15.59.13c-24.91.2-24.76.21-24.76-1.93,0-1.29-.9-1.79-2.75-1.52-7.59,1.07,1.91,6.93,13.43,8.27,4.55.53,13.09,1,19,1.13,10.7.16,10.7.16,10.7-3Zm41.59.05c2-1,3.65-2.7,3.65-3.69,0-2.69-3.8-2.18-4.53.61-.87,3.33-5.89,4-20.54,2.83-12.85-1-16.5-.85-16.5.87,0,1.94,4.24,2.34,19.27,1.81,10.23-.37,16.15-1.14,18.65-2.43Zm-5.78-2.86c2-.81,2-1.21-.7-6.33-6.44-12.2-23.62-17.26-30.2-8.88-3.28,4.16-3.27,10.84,0,12.6,4.27,2.28,26.87,4.2,30.88,2.61Zm-48.16-2.65c10.21,0,11.54-1.5,6-6.65-10-9.29-26.64-8.35-30.15,1.69-1.77,5.09.72,6.48,10.06,5.63,4-.36,10.29-.66,14.06-.67Zm53-16.79c2.16-5.82,2.65-8.48,1.67-9-.77-.41-9.31-1.13-19-1.59s-19.16-1.14-21.1-1.53c-3.48-.7-3.51-.66-3.49,5.26,0,9,1.23,10.14,7.11,6.83,2.65-1.49,6.16-2.71,7.8-2.71,5,0,13.76,3.55,18.18,7.34,2.3,2,4.53,3.59,5,3.62s2.16-3.67,3.84-8.2Z"/><path id="path4923" class="cls-8" d="M87.85,525.93a43.27,43.27,0,0,1-10.39-3.86c-6.2-3.42-6.76-6.86-1.54-9.36a23.39,23.39,0,0,0,6.46-5.13c6.57-7.81,20.51-9.18,29.93-2.95a31,31,0,0,0,5.24,3c1.09,0,.65-16.41-.49-18.22-1.54-2.44-21.11-.61-45.95,4.3-2.57.51-3.3.34-2.44-.57.68-.72,5.84-2.4,11.46-3.74s10.45-2.66,10.71-2.93S89.39,474.92,87,461.34,82.76,436,82.8,435.18c.2-3.83,2.91,6.54,6.77,25.95,2.33,11.73,4.84,22,5.57,22.93.92,1.1,4.72,1.6,12.19,1.6h10.85l.19-24.14.18-24.15,1,20.17c.58,11.1,1.34,21.43,1.69,23,.81,3.58,4.12,4.79,14.59,5.33l8.44.44,2.79-17.73c3.79-24.1,3.81-23.65-1.11-22.48-5.57,1.33-10.85.84-12.89-1.2-1.49-1.49-1-1.65,3.59-1.14,4.34.48,7-.22,14.46-3.8,5.48-2.64,10.86-4.36,13.45-4.31l4.32.08-5.6,1.73c-3.08.95-6.5,2.73-7.62,3.95-1.92,2.13-5.74,21.16-7.68,38.24l-.82,7.27,5.36-.06a71.42,71.42,0,0,0,10.55-1.05c2.86-.56,5.18-.67,5.17-.26s-1.66,6-3.67,12.31S161,510.09,161,511s1.92,2.38,4.28,3.36,4.28,2.58,4.28,3.56-2.66,3.47-5.92,5.56l-5.91,3.8-32.3-.14c-17.76-.07-34.66-.6-37.56-1.17Zm32.78-4.26v-3.11l-15.59.12c-24.74.2-24.76.19-24.76-1.84,0-1-1.09-1.83-2.45-1.83-3.76,0-2.89,3.37,1.45,5.61s16.11,3.75,31.26,4c10,.17,10.09.15,10.09-3Zm41,.13c2.34-1,4.26-2.63,4.26-3.67,0-2.72-3.78-2.35-4.51.43-.88,3.39-4.08,3.83-21.47,3-10.84-.54-15.59-.37-15.59.55,0,2.22,3.69,2.63,18.66,2.06,8.62-.33,16.09-1.26,18.65-2.33Zm-5.7-3q1.67-1,.76-4c-2.68-8.6-11.73-14.85-21.78-15-5-.09-6.35.41-8.86,3.32-3.82,4.44-4,11.19-.43,13.12,1.39.75,7,1.79,12.54,2.33,14.18,1.37,15.91,1.39,17.77.21Zm-48.86-2.6c10.75,0,12.66-1.25,8.66-5.53-4.52-4.83-9.59-7-16.45-7.08-7.75-.07-13.42,2.83-15.13,7.76-1.18,3.36-1,3.88,1.39,4.91,1.49.64,5.12.89,8.08.56s9-.61,13.45-.62Zm54.27-16.79c2.74-7.41,2.85-8.33,1.05-9-1.1-.41-9.68-1.13-19.06-1.61s-18.6-1.17-20.48-1.55c-3.37-.67-3.42-.6-3.4,5.28,0,8.81,1,9.77,7.1,6.68,2.75-1.4,6.31-2.55,7.9-2.55,4.88,0,13.7,3.57,18.09,7.33,2.3,2,4.53,3.59,5,3.62s2.15-3.66,3.84-8.2Z"/><path id="path4925" class="cls-8" d="M87.85,525.93a43.27,43.27,0,0,1-10.39-3.86c-6.2-3.42-6.76-6.86-1.54-9.36a23.39,23.39,0,0,0,6.46-5.13c6.57-7.81,20.51-9.18,29.93-2.95a31,31,0,0,0,5.24,3c.9,0,.76-13.47-.18-17-.76-2.85-1-2.9-10.77-2.15a320,320,0,0,0-34.76,5.22q-4.16.84-3.38-.43c.43-.7,5.75-2.5,11.81-4s11-2.79,11-2.89S89.35,475.05,87,461.33,82.76,435.78,82.8,435c.21-3.59,2.87,6.64,6.77,26.08,2.9,14.44,5,22,6.31,23s5.89,1.53,12.15,1.53h10.15l.19-24.14.19-24.15,1.06,20.17c.58,11.1,1.34,21.43,1.68,23,.79,3.58,4.11,4.79,14.59,5.33l8.44.44,2.74-17.73c3.76-24.39,3.8-23.64-1.07-22.48-5.6,1.34-10.86.83-12.93-1.24-1.55-1.55-1.15-1.69,3.13-1.11,3.91.52,6.88-.24,14.69-3.77,5.41-2.44,11.63-4.38,13.91-4.33,4,.08,3.92.15-1.68,1.87-3.35,1-6.6,3-7.68,4.66-1.83,2.78-5.51,21.56-7.28,37.1l-.87,7.64,4.7-.07a91.09,91.09,0,0,0,10.52-1c3.19-.53,5.8-.61,5.8-.18s-1.64,6-3.64,12.34S161,510.19,161,511s1.9,2.32,4.26,3.3,4.28,2.58,4.28,3.56-2.66,3.47-5.92,5.56l-5.91,3.8-32.3-.14c-17.76-.07-34.66-.6-37.56-1.17Zm32.78-4.22v-3.08l-19.77.11c-16.79.1-19.93-.18-20.85-1.81-1.36-2.43-4.62-2.52-4.62-.12,0,4.53,13.14,7.45,35.15,7.81,10,.17,10.09.14,10.09-2.91Zm41.15,0c2.25-.94,4.09-2.56,4.09-3.6,0-2.72-3.78-2.35-4.51.44-.87,3.35-4.7,3.93-19.82,3-13.88-.85-20.75.14-14.8,2.12,4.47,1.48,30.25,0,35-2Zm-7.22-2.6c3.29-.88,3.38-1.82.73-7.41-4-8.45-17.46-14.21-25.41-10.89-4.78,2-6.8,5.09-6.8,10.39,0,4.91,2.4,6,15.55,7.31,5.9.57,11.28,1.1,12,1.19a14.92,14.92,0,0,0,4-.59Zm-40.35-3.63c2.19-.33,4-1,4-1.54,0-1.28-6.17-6.94-9.18-8.41C98.69,500.48,84,504.91,84,513.08c0,1.81.84,3.18,2.14,3.51,2.38.6,21.94-.16,28.12-1.09Zm46.46-14.58c4.7-11.53,5.4-11.06-18-12.18-8.41-.4-17.07-1-19.26-1.43l-4-.7,0,5.95c0,8.79,1,9.75,7.1,6.66,2.75-1.4,6.31-2.55,7.89-2.55,4.89,0,13.7,3.57,18.1,7.33a30.24,30.24,0,0,0,4.79,3.62c.34,0,1.85-3,3.36-6.7Z"/><path id="path4929" class="cls-8" d="M87.85,525.93a43.27,43.27,0,0,1-10.39-3.86c-6.2-3.42-6.76-6.86-1.54-9.36a23.39,23.39,0,0,0,6.46-5.13c6.63-7.88,19.69-9.12,30.36-2.86l5.44,3.18v-7.14a54.54,54.54,0,0,0-.8-10.05c-.76-2.86-.94-2.9-11.29-2.06a313.93,313.93,0,0,0-34.24,5.11q-4.16.84-3.38-.43c.43-.7,5.75-2.5,11.81-4s11-2.79,11-2.89S89.35,475.05,87,461.33c-4.46-26-4.88-29.53-3-24.75.9,2.24,9.7,42.89,9.7,44.8a9.39,9.39,0,0,0,1.92,2.36c1.44,1.44,4.49,1.92,12.23,1.92h10.31l.18-24.15.19-24.14,1.08,20.78c.59,11.43,1.57,22,2.19,23.45,1.15,2.76,5,3.75,17.06,4.39l5.43.28,2.74-17.72c3.77-24.39,3.81-23.64-1.06-22.48-5.6,1.34-10.86.83-12.93-1.24-1.55-1.55-1.15-1.69,3.13-1.12,3.91.53,6.88-.23,14.69-3.76,5.41-2.44,11.63-4.38,13.91-4.33,4,.08,3.93.14-1.68,1.87-3.25,1-6.6,3-7.62,4.56-1.7,2.59-5.46,21.83-7.4,37.81l-.85,7,4.72-.08a87,87,0,0,0,10.54-1c3.19-.52,5.81-.5,5.81.06s-1.68,6.26-3.74,12.66-3.39,12.2-3,12.86a14.61,14.61,0,0,0,4.34,3.08c2,1,3.59,2.61,3.59,3.53s-2.66,3.38-5.92,5.47l-5.91,3.8-32.3-.14c-17.76-.07-34.66-.6-37.56-1.17Zm32.78-4.22v-3.08l-19.77.11c-16.79.1-19.93-.18-20.85-1.81-1.36-2.43-4.62-2.52-4.62-.12,0,4.53,13.14,7.4,35.76,7.81,9.36.17,9.48.13,9.48-2.91Zm41.31-.25c3.86-1.81,4.66-4,1.82-4.92-.74-.24-1.69.63-2.11,1.94-1.09,3.45-4.41,3.93-21.15,3-10.42-.54-15-.38-15,.54,0,2.11,4.56,2.57,19,1.9,8.37-.38,15-1.33,17.47-2.51Zm-7.38-2.33c1.51-.41,2.75-1.28,2.75-1.94,0-3.34-4.57-10.08-8.67-12.8-12.32-8.15-25.56-4.71-25.56,6.64,0,5,2.62,6.21,16.5,7.58,5.38.52,10.33,1,11,1.11a14.92,14.92,0,0,0,4-.59ZM116.35,515c2.27-.85,2.11-1.23-2.12-5.24-6.75-6.41-16.2-7.85-25.73-3.92-4.91,2-6.26,10-1.8,10.61s27-.45,29.65-1.45Zm44.06-13.75c1.65-3.53,3-7.36,3-8.5,0-2.53-2.84-3.05-22-4-7.74-.4-15.85-1-18-1.41l-4-.69,0,5.95c0,8.79,1,9.75,7.1,6.66,2.75-1.4,6.31-2.55,7.89-2.55,4.88,0,13.7,3.57,18.1,7.33a48.7,48.7,0,0,0,4.54,3.62c.2,0,1.71-2.84,3.35-6.37Z"/><path id="path4935" class="cls-4" d="M175.65,323.81a10.69,10.69,0,0,1,1.25-3.28,56.92,56.92,0,0,0,2.94-10c1.56-7.12,1.69-7.32,1.81-2.77a85.54,85.54,0,0,0,.9,9.48c.65,4,.44,4.58-1.61,4.58a6.16,6.16,0,0,0-3.82,1.47c-.81.81-1.47,1-1.47.53Z"/><path id="path4939" class="cls-8" d="M168.32,327.93c0-1.35-.55-2.45-1.22-2.45-2.43,0-1.15-6.15,2.47-11.86A35,35,0,0,0,174,303.09c1-6.22,2.75-3.34,2,3.29a55.61,55.61,0,0,1-2.45,10.34c-1.32,3.7-1.51,5.69-.61,6.59s.71,2.15-.61,4.17c-2.32,3.54-4.06,3.73-4.06.45Z"/><path id="path4953" class="cls-8" d="M171.13,107.84c0-3.7.23-5.21.51-3.36a27,27,0,0,1,0,6.72c-.28,1.85-.51.34-.51-3.36Z"/><path id="path4963" class="cls-8" d="M163.81,116.05a43.86,43.86,0,0,1,2.54-9.67l1.76-4,.1,4.28c.11,5.3-2,13.08-3.8,14.21-1,.6-1.15-.77-.6-4.77Z"/><path id="path5027" class="cls-8" d="M188.27,234.09c-1.27-4.06-1.23-4.31.31-2.21s2.47,6.79,1.43,6.79a21.51,21.51,0,0,1-1.74-4.58Z"/><path id="path5029" class="cls-8" d="M190.42,244.28c0-1.29.23-2,.64-1.61a2.47,2.47,0,0,1,.1,2.35c-.39,1-.68.68-.74-.74Z"/><path id="path5037" class="cls-9" d="M166.64,99.77c10.58-14.92,14.2,30.14-6.11,22"/><path id="path5051" class="cls-10" d="M162.3,119.56c-.05-1.29.23-2,.64-1.61a2.47,2.47,0,0,1,.1,2.35c-.39,1-.68.68-.74-.74Z"/></g></svg>