<svg id="svg2" xmlns="http://www.w3.org/2000/svg" viewBox="0 0 908 1901"><defs><style>.cls-1{fill:#fef1b4;}.cls-2{fill:#191919;}.cls-3{fill:#feef01;}.cls-4{fill:#fa7460;}.cls-5{fill:#fca99c;}.cls-6{fill:#ff7daf;}.cls-7{fill:#fcfcfc;}</style></defs><title>girl-25</title><g id="g4283"><path id="rect4280" class="cls-1" d="M542.6,8.59c-11.81-.07-23.54.26-35.08.92-34.41,2.36-69.84,10.86-97.4,32.61-20.83,15.42-32,39.95-50.63,57.31-11.75,12.55-30.11,2.68-44.14,9.9-34.14,12.91-51.46,48.15-62.3,80.74-20.2,65.81-22.4,135.46-22.06,203.77,3.36,81.65,9.68,165.2,33.58,243.44C297,652.54,332.51,663,367.93,669c-4.69,4.93-13.74,7.53-19.16,12.91-39.72-7.84-75.19-30.86-102.94-59.78C182.77,554,161.4,458.4,157,368.26c4.2-34.06,42.92-46.83,65.61-66.55,10.42-6.52,9-23.63-3.08-27.49-20.81-9.38-34.62,14.56-52.75,19.63.92-32.72,4.74-65.82-.26-98.35-1.61-10.61-15.5-13.66-23.43-7.62C130,204,133,228.12,120,244.14c-9.15-19.65-8.73-42.67-16.14-62.91-8.36-11.4-27.84-5.39-31.3,7.36-7.85,21.85,9.28,43.53,4.81,65.49-.91,2.39-3.65,2.42-5.41.95-10.94-7.87-19.13-18.95-25.8-30.5-11-4.13-18.61,8.83-17.15,18.26,1.23,18.94,11.93,35.36,20.68,51.43-13.62,5.15-31.74-14.39-44.93-3-3.66,21.32,22.91,31,37.31,40.61C58.49,345.6,73.31,362,92.86,371.42c5.62,117.13,34.61,239.94,116.55,328.16,31.37,35.41,71.12,61.61,111.35,85.53-45.49,177.55-83.71,357.33-106.39,539.33-7.86,73.68-15.83,147.66-14.16,221.86,3.79,8.11,12.67,12.19,20.26,16.21,46.27,21.94,97.39,32.09,146.61,43.41-2.55,53.65-10.19,108-12.44,162.14-31.19,29.27-62.15,60.42-84.58,97.1-9.36,15.24,8.48,30.1,23.2,25.27,44.39-8.77,80.95-38,120.12-59,19.84-13,12.8-39.37,4.91-57.46,16.9-50.47,21.83-103.94,30.82-156.1A973.19,973.19,0,0,0,640.43,1621c2.78,1.31,2.78,4.71,3.33,7.32,6.17,41.25,13,82.46,20.9,123.36-9,15.17-14.72,34.36-6.56,51.2,11.31,22.49,36.13,31.52,56.78,43.21,22,10.66,44.38,21.25,68.36,26.74,20.6,5,46.63-9.84,45.68-32.82-2.2-26.68-25-43.82-41.64-62.35-12.19-14.44-30.07-22.24-45.17-31.87-11.23-45.39-8.48-93.33-14-139.65,42.85-11.93,84.86-29.37,120.17-56.9,3.84-3.51,9-6.81,9.6-12.48,3.87-29.79-1.59-59.64-3.25-89.38-19.73-173.67-50-346-81-518-1.45-11.9-6.2-23.62-5.08-35.68,25.2,94.72,42.68,191.37,60,287.8,3.08,25.82,2.43,52.94,12.48,77.35,2.86,9.7,16.67,13,22.09,3.51,2.57-15.11-2.19-30.46.66-45.62,7.07,2.74,4.44,12.26,5.36,18.14,1.77,18.6-5.62,36.67-18.74,49.56-.72,10,13.22,8.47,20,6.11,17.53,3.59,28.7-15,31.39-29.85,5.35-36.59-6.46-72.37-15.12-107.46-18.27-91.06-37.63-181.93-53.54-273.45-7.35-35.84-13.72-72.13-26.4-106.59-10.4-30.38-28.44-59.84-56.78-76.36-7.33-2.58,1-5.29,3.82-6.16,22-8.87,46.67-24.92,48-51,12.78-88.52,19.42-177.78,27.21-266.82,1.84-48.76,9.69-97.92,1.6-146.51-6.79-49.28-26.77-97.78-61.07-134.63C712.05,29,625.28,9.27,542.6,8.82ZM419.33,716.28c-.51.5-1,1-1.46,1.53.47-.52.95-1,1.46-1.53Z"/><path id="path4" class="cls-2" d="M0,0V.78C.19.58.58.19.78,0ZM542.61,8.59c-11.82-.07-23.55.26-35.09.92-34.41,2.36-69.83,10.86-97.39,32.61-20.84,15.42-32,39.95-50.63,57.31-11.75,12.55-30.12,2.68-44.15,9.9-34.14,12.91-51.45,48.15-62.29,80.74-20.2,65.81-22.4,135.46-22.06,203.77,3.36,81.65,9.67,165.2,33.57,243.44C297,652.54,332.51,663,367.94,669c-4.69,4.93-13.74,7.53-19.16,12.91-39.72-7.84-75.19-30.86-102.94-59.78C182.78,554,161.41,458.4,157,368.26c4.2-34.06,42.92-46.83,65.61-66.55,10.42-6.52,9-23.63-3.08-27.49-20.81-9.38-34.62,14.56-52.75,19.63.92-32.72,4.74-65.82-.26-98.35-1.61-10.61-15.5-13.66-23.43-7.62C130,204,133.05,228.12,120,244.14c-9.15-19.65-8.73-42.67-16.14-62.91-8.36-11.4-27.84-5.39-31.3,7.36-7.85,21.85,9.28,43.53,4.81,65.49-.91,2.39-3.65,2.42-5.41.95-10.94-7.87-19.13-18.95-25.8-30.5-11-4.13-18.61,8.83-17.15,18.26,1.23,18.94,11.93,35.36,20.68,51.43-13.62,5.15-31.74-14.39-44.93-3-3.66,21.32,22.91,31,37.31,40.61C58.5,345.6,73.32,362,92.87,371.42c5.62,117.13,34.61,239.94,116.55,328.16,31.37,35.41,71.12,61.61,111.35,85.53-45.49,177.53-83.71,357.37-106.39,539.37-7.86,73.68-15.83,147.6-14.16,221.84,3.79,8.08,12.67,12.16,20.26,16.16,46.27,22,97.39,32.16,146.61,43.44-2.55,53.68-10.19,108-12.44,162.16-31.19,29.28-62.15,60.4-84.58,97-9.36,15.28,8.48,30.16,23.2,25.28,44.39-8.72,81-38,120.12-59,19.84-13,12.8-39.36,4.91-57.44,16.9-50.48,21.83-104,30.82-156.16a967.84,967.84,0,0,0,191.32,3.2c2.78,1.28,2.78,4.72,3.33,7.28,6.17,41.28,13,82.48,20.9,123.44-9,15.12-14.72,34.32-6.56,51.2,11.31,22.48,36.13,31.44,56.78,43.2,22,10.64,44.38,21.2,68.36,26.72,20.59,5,46.59-9.84,45.71-32.8-2.24-26.72-25-43.84-41.67-62.4-12.19-14.4-30.07-22.24-45.17-31.84-11.23-45.44-8.48-93.36-14-139.68,42.85-11.92,84.88-29.36,120.16-56.88,3.84-3.52,9-6.8,9.6-12.48,3.92-29.76-1.6-59.6-3.28-89.36-19.68-173.68-49.92-346-81-518-1.45-11.92-6.2-23.6-5.08-35.68,25.2,94.72,42.72,191.36,60,287.84,3.12,25.76,2.48,52.88,12.48,77.36,2.88,9.68,16.64,13,22.08,3.52,2.56-15.12-2.16-30.48.72-45.68,7,2.8,4.4,12.24,5.28,18.16,1.84,18.56-5.6,36.64-18.72,49.6-.72,10,13.28,8.4,20.08,6.08,17.52,3.6,28.72-15,31.36-29.84,5.36-36.64-6.48-72.4-15.12-107.44-18.24-91.12-37.6-182-53.52-273.52-7.36-35.84-13.68-72.08-26.4-106.56-10.4-30.38-28.44-59.84-56.78-76.36-7.33-2.58,1-5.29,3.82-6.16,22-8.87,46.64-24.92,48-51C814.56,551.21,821.12,462,829,372.91c1.84-48.76,9.68-97.92,1.6-146.51-6.8-49.51-26.8-98-61.09-134.86C712.06,28.8,625.28,9,542.61,8.59ZM496.1,79.9c3.58.14,7.17,2.47,7,6.47,2.64,15.42-4.24,30.21-7.64,45-1,6.43-9.92,5-14.39,3.84-12-17.29-14.49-49.29,11.53-54.68a8,8,0,0,1,3.45-.6Zm-70.47,29.27c17.24.7,30.44,14.85,43.28,24.91,7.61,5.21-6.83,9.06-7.72,14.66-16.16.12-29.59-12.73-36.64-26.32-1.78-4.22-4.6-10.91,1.08-13.25Zm117.6,16.55c10.09.11,20.19,2.39,27.09,10.1,4.57,5.52-3.22,11.76-8.18,13.5a506.45,506.45,0,0,1-57.39.11c-12.3-15.75,14.45-19.34,25-22.83a98.19,98.19,0,0,1,13.46-.88Zm-57.7,13.58c11.76.33,20.05,12.16,14.4,24.44-5.53,14-28.49,15-35.24,1.3-4.84-9.9,4.18-22.24,14-24.67a19.66,19.66,0,0,1,6.82-1.07Zm-45.35,11.77c9.27-.08,21.63,1.58,17.67,10.76-14.91-2.71-29.93,6.47-44.77.85.09-8.49,12.87-9.65,19.58-11.16a73.11,73.11,0,0,1,7.52-.45Zm66,5c13,4.2,26.27,11.82,34.26,23.41,3.75,5.27,4.41,15.27-3.52,16.76-16.28,2.61-31.56-8.65-41.84-20.11C503.4,172.28,504.76,164,506.2,156.1Zm-48.57,12.58c4.59,1.19,21.06,8,14.39,16.19-9.51,12.92-26.87,18.46-42.43,17.11-4.38-.52-7.36-5.9-4.32-9.55C433.55,181.93,445.26,173.72,457.63,168.68Zm27.6,9.95c10.11.43,13.39,14.68,16.31,23.09,6.7,14.52-10.49,35.42-24.55,23.35-10-13.68-3.39-33.19,5-46.12a13.52,13.52,0,0,1,2.28-.31C484.58,178.62,484.9,178.62,485.23,178.63ZM90.8,180.24c3.45,0,7.53.86,8.59,4.49,6.48,20.15,7.47,41.75,15.17,61.57,1.28,3.61,5.66,6.39,9,3.44,11.56-15.82,12-36.46,20.47-53.6,2.84-8.07,17.76-8.29,17.56,1.56-.37,33,2.76,66.57-1.49,99.36-5,6.69-23.33,13.82-17.09,23.78,14.28-18.68,39.77-27.7,58.92-41.95,9.29-7.29,30,5.07,19.77,15.77-23,22-62.17,34.1-69.36,68.91,1,69.2,15.09,139.4,46.63,201.44,30,57.12,81.47,106.72,145.72,121.28-7.54,30.46-14.84,61.6-23.3,92.05-83.3-42.73-152.35-119.21-185-208.68-24.08-61.74-34.67-128.27-36.77-194.19-1.15-3.06-.28-7.89-4-9.14C76.09,358,62,341.3,45.87,328.09,33.28,319.72,18,313.44,9.94,299.94c-3.31-4.23,2.71-10.33,7.26-7.23,11.73,5,24.39,8.78,37.31,7.21,1.9-1.2,3.26-4.22,1.81-6.24-10.42-17.6-24-36.25-21-57.92.16-3.87,3.66-8.27,8-6.34a92.16,92.16,0,0,0,24.74,29.5c4.73,3.61,13,3.19,14.62-3.4,5.5-21.23-10.87-41.29-6-62.63,1.48-6,6.19-11.75,12.62-12.58.45,0,.93-.06,1.43-.07Zm368.69,21.19c-12.08,12.89-33.19,26.31-48.81,39.29-5.47,7.31-18.52-1-15-8.75,11.3-8.29,21.34-18.45,33.17-25.89a66.13,66.13,0,0,0,30.61-4.65Zm-85.42,21.83c15.2,2,18.58,33.81,37.82,24.05,55.4,37.45,121.08,58.28,187.39,64.6,19.48,2.51,49.42-2.73,48.73-27.94,28.9,9.56,57.77,22.74,88.9,20.22,5.21,1.74-3.69-8.37,5.84-1.81,7.2,69.58,6.55,143-22.25,208.13-22.68,54.94-70.27,98.56-127.23,115.76-11.66,4.15-27.72,4.72-33,18.16-5.14,15,10.7,29.6,25.37,27.63.46,36.6-23,71.85-56.38,86.55-46.46.9-90.21-44.11-83.73-90.9,15.17-3.7,28.49-18.41,23.75-34.82-1.63-6.89-9.07-8.59-15.16-9-37.09-4.19-67.71-29.34-91.39-56.61-27.73-34.09-49.28-73-64.95-114-1.44-2.82-1.36-8.61-6.6-6,1.12,15,11.59,27.8,15.41,41.92-14.88-.07-31.55-3.07-41.37-15.43-12.8-21.65.63-53.5,25.16-59.32C297.94,413,299.94,404.32,304,399c32.74-53.78,64.95-112,70.1-175.69Zm246.65,91.07c-1.1,0-2.18.06-3.28.14-13,.55-26.3,4.53-36.85,12.21-5,3.35,4.15,8.2,6.32,3.4,21.73-13.58,52.46-12.31,71.47,5.56,2.27,3.22,8.18,2.77,6.39-2.12a60,60,0,0,0-44-19.19ZM420.38,327.54a73.39,73.39,0,0,0-11.63,1,77.5,77.5,0,0,0-34.17,17.27c-2.53,3.51,2.3,7.12,5.17,4,17.07-14,41.92-21.34,62.61-11.07,3.34,2.26,11.48,1.62,7.42-3.5a53.77,53.77,0,0,0-27.73-7.73ZM614.91,402a15.76,15.76,0,0,0-6,1.37c-18.49,6-8.23,37.5,10.91,29C637.1,427.8,630.17,401.78,614.91,402Zm-193,.14a12.72,12.72,0,0,0-5,1.15c-7.22,2.54-12.62,11.64-9.74,19.19,2.07,12.43,22,15.36,27.82,4.31,9-9.41-1.49-24.92-13.09-24.65Zm83.57,52.14c-14.53,9.9-10.05,40.09,9,41.23,11.71,2.24,26.23,3.44,35.17-5.93,7-7.4,11.09-24.45.32-29.69-5.07,4.85,3,11.37-.88,17-4.35,18.46-29.8,16.75-42.28,8.22-7.56-9.67,3-24.32-1.37-30.88Zm-59.15,54.1c-9.63,2.81-17.91,12-16.4,22.52-1.37,24,18.95,43.58,41.35,47.86,40.27,8.8,85.71,10.59,122.27-11.29,14.73-5.17,22.86-19.85,27.5-33.89,3.51-12.1-6.38-23.23-18.06-23.71-13.76-2-23.45,9-35.12,13.93-39.77,18.5-85.64,4.84-121.54-15.42Zm-1.12,6.08c31.22,13.93,64.89,30.41,100.43,23.09,18.45-3.68,35.12-13.42,52.3-20.83,11-3.36,24.36,8.47,17.35,19.45-5.56,7.2-6.75,21.83-18.3,20.87-45.33-12.88-99.58-18.72-141.62,7.37-12.31.4-18.83-14.61-19.59-25.18-.89-8.73-2.19-23.2,9.43-24.77Zm91.28,37.33c19.49,0,38.94,1.63,56.91,9-36.08,23.69-82.66,20.17-123.15,12-3.78-1.54-9.46-1.71-11.4-5.64,12.54-8.86,27.94-12.19,42.83-14.7,11.41-.17,23.12-.7,34.81-.67ZM410.68,665.08c7.68-.3-10.31,4.43-12.8,9.41-5,19.28,16.83,31.77,33.31,33.07-8.76,5.45-20.92,13.37-17.49,25.55,8.13,18.73,32.35,22.84,50.47,19.95-6.05,15.41-4.69,36.82,12,44.85,20.75,7.05,39.61-9.57,51.12-25.12,2.59,27.77,43,33.61,57.67,12.16,8-12.19.2-26.39-8-36,14.13,4,31.52,9.85,44.85.9,12.25-10.68,3.34-28.79-5.7-38.36,9.28-.85,23.09.33,26-11.54,1.93-13.09-9.84-22.14-19.42-28.56,22.7-.36,45,4.53,67,9.89-2.74,7.53-19.27,9.15-17.68,20.79.35,12.3,17.14,12.53,24.73,16.94-4.44,3.6-14.42,7.82-11.42,16.44,3.94,10.19,18.17,8.55,25.51,11.47-8.62,7.23-25.62,15.36-22.07,30.13,4.6,9.62,17.75,8.74,25.48,12.71-8.52,4.28-19.68,16.79-9,25.11,12.66,8.08,28.64,4.88,42.73,7.12,31.37,160,59.66,320.56,83.42,481.68,4.64,19.52,4.32,43.92,8.88,59.44,5,58.8,17.84,118.08,11.44,177.44-79.67,63.92-186.79,78.8-285.61,78.48-84.79,1.92-169.12-10.72-251.73-30.32-33.81-9-68.42-17.52-99.23-34.72-20.66-8.4-5.36-36.64-10.08-53,9.78-232.16,57.74-460.64,113.12-685.92,12-1.2,31.42,8.64,40.67-4.64,4.07-11.68-6.35-20.58-13.74-27.88,8.44-1.36,19.77-.51,25.19-8.78,4.36-11.78-9.54-17.45-15.14-24.93,9.5-1.57,26.27-5.13,23.37-18.23-2.28-8.77-10.43-14.34-17.69-18.86,8.51-5.47,23.26-3.45,27.25-15.42.93-11.74-12.91-14.36-19-21.31,10-7.55,24.78-6.4,36.71-9.54,2.27-.26,3.89-.41,5-.45ZM437,668a1.67,1.67,0,0,1,1.72,1.62c-.44,11.13,2.35,21.95,5.22,32.6-16.21,3.49-42.42-4.47-42.46-24.36,6.84-8.81,20-7.26,30-9.28,1,.67,3.36-.49,5.11-.58Zm163.07,3.59c16.88-.21,36.74,9.35,37.92,27.66-12.29,14.8-33.93,4.16-49.45,1-.28-9-2.32-22.4,6.4-28.28a40.72,40.72,0,0,1,5.13-.38ZM361.76,678.3c7.84,3.92,19.6,7.69,21.24,17.41-7.67,11.94-26.4,6.67-36.22,14.32,9.86,6.5,29.79,11.36,26.42,26.88-7.72,8-20.82,7-31.06,8.16-10.63,2.58-4-8.86-3.37-13.32,6-18.37,3.48-42.7,23-53.45Zm332.63,9.22c8.05.87,18.27-.44,24.33,5.84,5.88,15,8,31.26,12.31,46.77-12.94.24-31,5.41-40.92-5.78,1.47-13.25,20-14,30.55-13.43,3.49-8.86-9.41-4.34-13.61-6-10.44-1.25-26.14-1.7-30.93-13C678.57,694.35,686.52,688.55,694.39,687.52Zm31.78,7.59c34.07,4.39,57.24,36.34,70,65.74,24.1,59.63,31.38,124.35,44,187,13.52,71,27.92,141.68,42.64,212.32,8,30.48,17.44,61.44,14.88,93.36-1.84,11.76-5.92,25.12-17.28,31.2-7.92,2.72-5.52-7.44-4.4-11.6,7.76-18.72-1-38.16-4.16-56.64-10.48-4,2.72-16.8-5.84-20.64-10.24,18.72-8.4,40.24-7.92,61,1,5.92-8.48,8.32-10.56,2.56-11.28-22.72-10.48-49.36-12.72-74-20.32-111.68-40.61-223.52-71.3-332.88-1-5.76-4.25-10.48-7.25-15.28-8.55-47.66-20.15-94.87-30.08-142.17ZM585.49,706.2c11.06.95,23.3,3.5,30.19,13.09,8.72,6.81,10.48,24.32-.55,29.56-19.42,1.43-32.81-.83-49-10.12C572.74,728.49,580.77,718,585.49,706.2Zm-141,2.15c4.82.16,5.24,8.56,8.45,11.75,4,9.29,14.45,14.49,18,23.6-16,11.77-46.42,5.67-53.5-14,1.61-12.23,15.71-17.51,26-21.31A4.65,4.65,0,0,1,444.46,708.35Zm116,35c14.51,5.43,34.13,30.48,15.67,43.74-17.58,14.94-50.89,1-42.94-24.44,10.13-4.85,19-11.75,27.27-19.3Zm170.78,2.78a1.72,1.72,0,0,1,1.77,2c4.32,23.06,10.7,45.84,13.59,69.12-13.74-.56-30,1.6-41.19-8.08-.35-17,22.89-17.59,32.49-22.66-11.49-4.74-38.94,3.57-45.42-13.66,4.72-15.28,22.52-24.29,37.69-26.55a3.33,3.33,0,0,1,1.07-.15Zm-256.66.3c15,6.43,31.56,17.09,49.42,17.49,4.47.4-.23,5.94-1.74,7.36C512,784,496.66,799.21,478.66,793.54,460.43,785.55,462.86,759.38,474.6,746.48Zm-137.53,3.46c12.32.08,24.28,8.36,29.8,19.09-6.46,14.07-26.87,5.67-38.65,8.1A197.89,197.89,0,0,1,334.6,750C335.42,750,336.25,749.93,337.07,749.94Zm-10,30.22c12.73,3.8,28.55,13.27,27.81,28.24-8.66,8.88-23.69,3.76-34.33,1C320.37,799.69,324.59,789.71,327.09,780.16Zm546.27,471c5,8.88-5.44,21.52-3.6,32.88-3.28,3-11.6,5-13.6,1.44C866,1276.08,871,1264,873.36,1251.12ZM374.18,1607c19.75,2,39.05,7.36,58.92,8.8,2.95.88,11.42-.64,9.76,5.12-7.9,49.6-13.27,100.16-28.64,148.24-8.78,17.2-40.19,27-53,10.08,0-57.52,6.31-115.52,13-172.24Zm346.68.8c2.31,0,4,1.28,2.71,4.16,3.15,42.48,5.89,85,10,127.28,2.82,10.72,16.18,26.08,4.55,34.8-23.94,2-47.42-6-67-19.44-9.15-44.64-16.91-89.84-22.67-135,23.32-.8,46.3-6.08,69.08-11a7.22,7.22,0,0,1,3.3-.8Zm26.07,148.4c18.93,4.24,32.06,21.52,45.83,34,14.68,16.32,36.44,35.36,29.48,59.92-9.84,23.36-39.43,21.12-58.74,12.32-29.27-12.8-59.25-25.12-85.58-43.44-18.5-10.08-19.58-33.44-15.35-51.44,1.79-2.88,2.79-10.72,7.59-7.84,21.4,14.32,48.73,23.6,73.91,16.32,7.18-3.92,1.38-13.28,2.86-19.84Zm-392.81,17.84c5.76,27.44,43.87,20.8,60,6,7.81,11.6,11.48,33.36-.05,45-32.49,18.64-64,39.84-98.88,53.92-11.37,3.2-24.19,7.76-35.91,4-8.84-5.36-3.52-15.92-.07-23,20.55-32.16,48.71-58.64,74.95-86Z"/><path id="path8" class="cls-3" d="M496.1,79.9a8,8,0,0,0-3.45.6c-26,5.39-23.49,37.39-11.53,54.68,4.47,1.16,13.41,2.59,14.39-3.84,3.4-14.76,10.28-29.55,7.64-45C503.27,82.37,499.68,80,496.1,79.9Zm-70.47,29.27c-5.68,2.34-2.86,9-1.08,13.25C431.6,136,445,148.86,461.19,148.74c.89-5.6,15.33-9.45,7.72-14.66-12.84-10.06-26-24.21-43.28-24.91Zm117.6,16.55a98.19,98.19,0,0,0-13.46.88c-10.57,3.49-37.32,7.08-25,22.83a506.45,506.45,0,0,0,57.39-.11c5-1.74,12.75-8,8.18-13.5-6.9-7.71-17-10-27.09-10.1Zm-103,25.35a73.11,73.11,0,0,0-7.52.45c-6.71,1.51-19.49,2.67-19.58,11.16,14.84,5.62,29.86-3.56,44.77-.85,4-9.18-8.4-10.84-17.67-10.76Zm66,5c-1.44,7.89-2.8,16.18-11.1,20.06,10.28,11.46,25.56,22.72,41.84,20.11,7.93-1.49,7.27-11.49,3.52-16.76C532.47,167.92,519.22,160.3,506.2,156.1Zm-48.57,12.58c-12.37,5-24.08,13.25-32.36,23.75-3,3.65-.06,9,4.32,9.55,15.56,1.35,32.92-4.19,42.43-17.11,6.67-8.18-9.8-15-14.39-16.19Zm26.6,10A13.52,13.52,0,0,0,482,179c-8.35,12.93-14.92,32.44-5,46.12,14.06,12.07,31.25-8.83,24.55-23.35-3-8.68-6.4-23.58-17.31-23.08ZM436.65,668c-1.75.09-4.08,1.25-5.11.58-10,2-23.19.47-30,9.28,0,19.89,26.25,27.85,42.46,24.36-2.87-10.65-5.66-21.47-5.22-32.6a1.75,1.75,0,0,0-2.1-1.62Zm163.45,3.59a40.72,40.72,0,0,0-5.13.38c-8.72,5.88-6.68,19.31-6.4,28.28,15.52,3.16,37.16,13.8,49.45-1-1.18-18.31-21-27.87-37.92-27.66ZM361.76,678.3c-19.51,10.75-17,35.08-23,53.45-.6,4.46-7.26,15.9,3.37,13.32,10.24-1.13,23.34-.14,31.06-8.16,3.37-15.52-16.56-20.38-26.42-26.88,9.82-7.65,28.55-2.38,36.22-14.32-1.64-9.72-13.4-13.49-21.24-17.41Zm332.63,9.22c-7.87,1-15.82,6.83-18.27,14.37,4.79,11.32,20.49,11.77,30.93,13,4.2,1.67,17.1-2.85,13.61,6-10.54-.54-29.08.18-30.55,13.43,9.94,11.19,28,6,40.92,5.78-4.35-15.51-6.43-31.76-12.31-46.77C712.66,687.08,702.44,688.39,694.39,687.52ZM585.49,706.2c-4.72,11.8-12.75,22.29-19.37,32.53,16.2,9.29,29.59,11.55,49,10.12,11-5.24,9.27-22.75.55-29.56C608.79,709.7,596.55,707.15,585.49,706.2Zm-141,2.15a4.65,4.65,0,0,0-1,.08c-10.32,3.8-24.42,9.08-26,21.31,7.08,19.63,37.47,25.73,53.5,14-3.54-9.11-14-14.31-18-23.6C449.7,716.91,449.28,708.51,444.46,708.35Zm116,35c-8.24,7.55-17.14,14.45-27.27,19.3-8,25.44,25.36,39.38,42.94,24.44,18.46-13.26-1.16-38.31-15.67-43.74Zm170.78,2.78a3.33,3.33,0,0,0-1.07.15c-15.17,2.26-33,11.27-37.69,26.55,6.48,17.23,33.93,8.92,45.42,13.66-9.6,5.07-32.84,5.7-32.49,22.66,11.22,9.68,27.45,7.52,41.19,8.08-2.89-23.28-9.27-46.06-13.59-69.12A1.72,1.72,0,0,0,731.26,746.18Zm-256.66.3c-11.74,12.9-14.17,39.07,4.06,47.06,18,5.67,33.33-9.53,43.62-22.21,1.51-1.42,6.21-7,1.74-7.36-17.86-.4-34.38-11.06-49.42-17.49Zm-137.53,3.46c-.82,0-1.65,0-2.47.09a197.89,197.89,0,0,0-6.38,27.1c11.78-2.43,32.19,6,38.65-8.1C361.35,758.3,349.39,750,337.07,749.94Zm-10,30.22c-2.5,9.55-6.72,19.53-6.52,29.28,10.64,2.72,25.67,7.84,34.33-1C355.64,793.43,339.82,784,327.09,780.16Zm419.84,976.08c-1.48,6.56,4.32,15.92-2.86,19.84-25.18,7.28-52.51-2-73.91-16.32-4.8-2.88-5.8,5-7.59,7.84-4.23,18-3.15,41.36,15.35,51.44,26.33,18.32,56.31,30.64,85.58,43.44,19.31,8.8,48.9,11,58.74-12.32,7-24.56-14.8-43.6-29.48-59.92-13.77-12.48-26.9-29.76-45.83-34Zm-392.81,17.84c-26.24,27.36-54.4,53.84-74.95,86-3.45,7-8.77,17.6.07,23,11.72,3.76,24.54-.8,35.91-4C350,1865,381.54,1843.76,414,1825.12c11.53-11.68,7.86-33.44.05-45-16.09,14.8-54.2,21.44-60-6Z"/><path id="path14" class="cls-4" d="M485.53,139.3a19.66,19.66,0,0,0-6.82,1.07c-9.84,2.43-18.86,14.77-14,24.67,6.75,13.71,29.71,12.67,35.24-1.3,5.65-12.28-2.64-24.11-14.4-24.44Zm-26,62.13a66.13,66.13,0,0,1-30.61,4.65c-11.83,7.44-21.87,17.6-33.17,25.89-3.55,7.74,9.5,16.06,15,8.75,15.62-13,36.73-26.4,48.81-39.29Zm77,350.38c-11.69,0-23.4.5-34.81.67-14.89,2.51-30.29,5.84-42.83,14.7,1.94,3.93,7.62,4.1,11.4,5.64,40.49,8.19,87.07,11.71,123.15-12-18-7.4-37.42-9-56.91-9Z"/><path id="path42" class="cls-5" d="M445.16,514.48c31.22,13.93,64.89,30.41,100.43,23.09,18.45-3.68,35.12-13.42,52.3-20.83,11-3.36,24.36,8.47,17.35,19.45-5.56,7.2-6.75,21.83-18.3,20.87-45.33-12.88-99.58-18.72-141.62,7.37-12.31.4-18.83-14.61-19.59-25.18C434.84,530.52,433.54,516.05,445.16,514.48Z"/><path id="path46" class="cls-6" d="M405.69,665.53c18.13-2.09-5,3.27-7.81,9-5,19.28,16.83,31.77,33.31,33.07-8.76,5.45-20.92,13.37-17.49,25.55,8.13,18.73,32.35,22.84,50.47,19.95-6.05,15.41-4.69,36.82,12,44.85,20.75,7.05,39.61-9.57,51.12-25.12,2.59,27.76,43,33.59,57.67,12.16,8-12.19.2-26.39-8-36,14.13,4,31.52,9.85,44.85.9,12.25-10.68,3.34-28.79-5.7-38.36,9.28-.85,23.09.33,26-11.54,1.93-13.09-9.84-22.14-19.42-28.56,22.7-.36,45,4.53,67,9.89-2.74,7.53-19.27,9.15-17.68,20.79.35,12.3,17.14,12.53,24.73,16.94-4.44,3.6-14.42,7.82-11.42,16.44,3.94,10.19,18.17,8.55,25.51,11.47-8.62,7.23-25.62,15.36-22.07,30.13,4.6,9.62,17.75,8.74,25.48,12.71-8.52,4.28-19.68,16.75-9,25.13,12.66,8.06,28.64,4.86,42.73,7.13,31.37,160,59.68,320.57,83.45,481.67,4.58,19.5,4.25,43.9,8.86,59.4,5,58.8,17.82,118.1,11.41,177.4-79.65,64-186.77,78.9-285.59,78.5-84.79,1.9-169.12-10.7-251.73-30.2-33.81-9.1-68.42-17.6-99.23-34.8-20.66-8.4-5.36-36.6-10.08-53,9.78-232.1,57.74-460.6,113.12-685.85,12-1.22,31.42,8.62,40.67-4.7,4.07-11.65-6.35-20.55-13.74-27.85,8.44-1.36,19.77-.51,25.19-8.78,4.36-11.78-9.54-17.45-15.14-24.93,9.5-1.57,26.27-5.13,23.37-18.23-2.28-8.77-10.43-14.34-17.69-18.86,8.51-5.47,23.26-3.45,27.25-15.42.93-11.74-12.91-14.36-19-21.31,10-7.55,24.78-6.4,36.71-9.54m258.09,99.89c-14.38,2.4-8.57,26.37,5.65,22.13,15-1.17,9-27.87-5.65-22.13m-220.28,64c-12.87,1.51-12.3,23.39,1.32,22.7,18,3.32,15.5-27.42-1.32-22.7M325.93,853.24c-13.85,5.2-5.06,28.18,9.32,21.41,14.23-4.83,5.46-28.68-9.32-21.41m307.38,68.12c-9.11.42-14.3,13.46-7.09,19.54,5.71,8.41,21.73,2.3,19.81-7.79,1.12-7.18-6.23-12.41-12.72-11.75M485.56,983.45c-8.74,1.6-13.21,13.23-7,19.85,6,7.3,19.52,2.8,20.4-6.52,1.69-7.72-6.33-14.1-13.44-13.33m271.93-.07c-15.44,1.29-11.72,27.32,3.71,23.22,14.49-1.9,10-25.44-3.71-23.22m-437.57,12c-13.64,4.18-7.43,29.39,8.22,22.29,13.17-4.9,5.8-27.87-8.22-22.29m337,99.19c-15.16,2.2-8.17,29.3,7.28,22,13.52-4,6.82-27.2-7.28-22m-181.71,39.2c-13.6,6.6-4.36,28.3,9.44,22,14.6-5.2,5.35-28.8-9.44-22m-152.84,40.5c-12.6,1.7-13.68,22.4,0,23.5,17,2.7,16-25,0-23.5m427.46,44.2c-13.66,1.7-10.9,25.5,3,22.6,16.77,1,12.06-26.5-3-22.6m-121.91,30.9c-14.44,4.4-5.21,29,8.91,21.8,13.88-4.9,5.85-28.2-8.91-21.8m-175.28,91c-15.07,2.6-9.73,28,5.54,23,14.49-3.1,8.21-26.3-5.54-23m-179,28c-17.42,1.3-8.75,29,5.85,22.3,13.44-4.1,7.92-25.7-5.85-22.3m527.25,3c-13,3.7-7.58,26.1,6.49,22.2,15.16-2.3,9.57-29.7-6.49-22.2m-194,31.8c-13.27,5.1-5.48,27.9,8.32,22.1,15.07-3.4,6.26-28.5-8.32-22.1m-379,92c-5.44,3.3-10.12,10-6.69,16.4,4.17,11.4,24.47,6.9,21.95-5.6.82-7.9-8.07-13.5-15.26-10.8m262.08,21.2c-13.49,4.1-5.81,27.5,7.84,21.7,15.08-3.3,6.75-28.1-7.84-21.7m-151,25c-8,2-10.05,12.5-6.14,18.7,5.86,6.9,19.51,4.7,21-4.6,2.36-8.3-6.7-17-14.82-14.1m388,19c-7.65,2-9,12.6-4.67,18.3,5.77,7.5,20.41,4.1,20.79-6C744.64,1563.9,735.06,1556.9,726.91,1560.4Z"/><path id="path70" class="cls-7" d="M667.66,764.62a10.85,10.85,0,0,0-3.88.8c-14.38,2.4-8.57,26.37,5.65,22.13C683,786.49,679.38,764.46,667.66,764.62ZM447.18,829a10.2,10.2,0,0,0-3.68.48c-12.87,1.52-12.3,23.36,1.32,22.72C461.42,855.2,460.58,829.28,447.18,829Zm-116,22.88a12.52,12.52,0,0,0-5.23,1.44c-13.85,5.2-5.06,28.16,9.32,21.36C347.7,870.4,342.54,851.6,331.16,851.84Zm303.38,69.44a6.31,6.31,0,0,0-1.23.08c-9.11.4-14.3,13.44-7.09,19.52,5.71,8.4,21.73,2.32,19.81-7.76C647.08,926.4,640.69,921.36,634.54,921.28Zm124.2,62a6.72,6.72,0,0,0-1.25.08c-15.44,1.28-11.72,27.36,3.71,23.28C775.24,1004.8,771.42,982.64,758.74,983.28Zm-271.84.08c-.44,0-.9.08-1.34.08-8.74,1.6-13.21,13.2-7,19.84,6,7.28,19.52,2.8,20.4-6.48C500.58,989.52,493.63,983.52,486.9,983.36Zm-163.22,11.2a11.36,11.36,0,0,0-3.76.88c-13.64,4.16-7.43,29.36,8.22,22.24C340.07,1013.28,335.14,994,323.68,994.56Zm337,99.28a11,11,0,0,0-3.76.72c-15.16,2.24-8.17,29.36,7.28,22.08,12.25-3.68,7.9-23-3.52-22.8Zm-180.22,38.72a12,12,0,0,0-5.25,1.2c-13.6,6.56-4.36,28.32,9.44,22.08C497.38,1151.28,491.89,1132.64,480.41,1132.56Zm-156.63,41.68c-.47,0-1,.08-1.46.08-12.6,1.68-13.68,22.32,0,23.44C338.79,1200.4,338.42,1174.48,323.78,1174.24Zm428.7,43.92a11,11,0,0,0-2.7.4c-13.66,1.6-10.9,25.44,3,22.56C768.48,1242.08,765.33,1217.92,752.48,1218.16Zm-119.42,30.16a10.71,10.71,0,0,0-5.19,1.12c-14.44,4.4-5.21,29,8.91,21.76C648.93,1267,644.3,1248.56,633.06,1248.32Zm-178,91.76a13.93,13.93,0,0,0-2.49.32c-15.07,2.56-9.73,28,5.54,23C471.71,1360.48,467,1339.92,455.08,1340.08Zm-179,28a9.13,9.13,0,0,0-2.48.32c-17.42,1.36-8.75,29,5.85,22.32C292.05,1386.88,288,1367.6,276.08,1368.08Zm530.32,2a13.72,13.72,0,0,0-5.52,1.28c-13.06,3.76-7.61,26.16,6.48,22.24,13.28-2,10.64-23.2-1-23.52ZM612,1402.16a11.39,11.39,0,0,0-5.16,1c-13.27,5.12-5.48,27.92,8.32,22.08C628.34,1422.32,623.24,1402.72,612,1402.16Zm-380,92.4a10.58,10.58,0,0,0-4.15.64c-5.44,3.28-10.12,10-6.69,16.4,4.17,11.36,24.47,6.88,21.95-5.6C243.73,1499.6,238,1494.72,232,1494.56ZM495,1515.36a11.34,11.34,0,0,0-5.14,1c-13.49,4.08-5.81,27.52,7.84,21.68C510.91,1535.2,506.18,1515.84,495,1515.36ZM342,1540.8a10.45,10.45,0,0,0-3.07.64c-8,1.92-10.05,12.48-6.14,18.64,5.86,6.88,19.51,4.72,21-4.64,2.06-7.2-4.61-14.8-11.75-14.64Zm389.58,18.72a10.65,10.65,0,0,0-4.65.88c-7.65,2-9,12.64-4.67,18.32,5.77,7.44,20.41,4.08,20.79-6,1.31-7.2-4.77-13.12-11.47-13.2Z"/></g></svg>