<?xml version="1.0" standalone="no"?>
<!DOCTYPE svg PUBLIC "-//W3C//DTD SVG 20010904//EN"
 "http://www.w3.org/TR/2001/REC-SVG-20010904/DTD/svg10.dtd">
<svg version="1.0" xmlns="http://www.w3.org/2000/svg"
 width="1280.000000pt" height="935.000000pt" viewBox="0 0 1280.000000 935.000000"
 preserveAspectRatio="xMidYMid meet">
<metadata>
Created by potrace 1.15, written by Peter Selinger 2001-2017
</metadata>
<g transform="translate(0.000000,935.000000) scale(0.100000,-0.100000)"
fill="#000000" stroke="none">
<path d="M0 8373 l0 -977 45 44 c24 24 47 42 49 39 3 -3 -2 -27 -10 -54 -25
-82 -30 -232 -9 -298 16 -53 35 -68 35 -28 0 9 12 33 26 52 14 19 37 57 50 84
56 113 76 111 49 -3 -10 -42 -19 -96 -19 -120 0 -41 -1 -42 -31 -36 -24 4 -35
0 -57 -23 -32 -34 -51 -101 -42 -147 9 -50 0 -57 -46 -41 l-40 14 0 -965 0
-964 36 15 c20 8 38 15 40 15 1 0 -2 -15 -7 -32 -6 -18 -13 -87 -16 -153 -5
-107 -3 -131 20 -220 15 -55 33 -129 42 -165 29 -117 47 -174 75 -232 l26 -57
-30 14 c-144 62 -176 75 -180 75 -4 0 -6 -259 -6 -575 l0 -576 47 32 c27 18
58 41 71 52 31 28 28 12 -7 -32 -15 -20 -47 -72 -70 -115 l-41 -79 0 -327 0
-327 38 -7 c55 -9 112 -7 156 5 37 10 126 82 126 101 0 6 15 31 34 57 18 25
45 80 60 121 15 41 33 91 40 110 7 19 26 87 41 150 30 124 51 168 40 85 -8
-55 15 -210 45 -312 l18 -61 -35 5 c-29 5 -39 1 -68 -27 -48 -46 -68 -112 -59
-191 7 -62 7 -62 -17 -56 -134 34 -163 34 -199 -6 -13 -14 -19 -30 -16 -43 8
-32 -13 -44 -75 -42 -30 1 -71 -4 -91 -11 l-38 -13 0 -958 c0 -786 2 -959 13
-963 9 -3 18 -41 26 -106 l13 -101 1135 0 1135 0 -4 48 c-3 26 -8 55 -12 65
-7 15 -2 17 39 17 40 0 54 -6 94 -39 25 -21 55 -43 67 -49 42 -22 158 -42 247
-42 l92 0 80 50 c44 27 86 50 93 50 8 0 12 -17 12 -50 l0 -50 405 0 405 0 0
28 c0 61 -32 203 -66 290 -34 88 -38 122 -14 122 5 0 10 -10 10 -21 0 -18 3
-19 15 -9 21 18 30 7 43 -52 12 -58 41 -262 45 -318 l2 -35 348 -3 c191 -1
347 -1 347 2 0 2 -7 23 -15 46 -8 23 -15 61 -15 84 0 51 -31 154 -60 201 -26
43 -22 52 17 32 15 -8 52 -22 82 -32 29 -9 65 -24 80 -31 36 -19 58 -17 88 6
14 11 32 20 40 20 32 0 91 56 117 110 40 85 35 106 -45 181 -41 38 -49 51 -49
82 0 19 -4 39 -10 42 -5 3 -10 26 -10 51 0 31 -6 50 -21 65 -32 32 -141 100
-171 106 -38 8 -27 19 36 37 36 11 71 31 105 62 28 25 51 40 51 32 0 -7 3 -23
6 -35 5 -17 2 -23 -10 -23 -26 0 -18 -17 16 -34 35 -18 64 -21 72 -7 3 5 16
11 28 14 13 2 30 8 39 11 13 6 22 -4 39 -38 29 -61 99 -120 225 -191 105 -58
229 -115 252 -115 7 0 13 -4 13 -8 0 -5 -24 -9 -52 -10 -90 -2 -181 -30 -275
-86 -72 -43 -94 -62 -128 -112 -22 -33 -78 -105 -124 -159 -122 -146 -162
-209 -154 -248 3 -18 10 -38 16 -44 7 -10 494 -13 2374 -13 2248 0 2363 1
2354 17 -5 10 -21 31 -36 47 -14 15 -25 29 -23 31 2 1 26 6 55 10 l52 7 11
-39 c22 -80 -29 -73 587 -71 l550 3 -33 105 c-19 58 -34 108 -34 111 0 3 24
-2 53 -12 101 -35 154 -19 149 45 -4 41 0 43 54 17 21 -10 60 -24 86 -32 38
-11 48 -18 53 -40 6 -26 39 -47 103 -64 16 -5 22 -14 22 -33 0 -15 3 -44 6
-65 l7 -37 828 0 829 0 0 890 c0 723 -2 890 -13 890 -7 0 -19 17 -26 38 -36
100 -142 144 -210 86 l-30 -25 -20 33 c-61 103 -101 130 -164 114 -36 -9 -169
-112 -185 -143 -8 -15 -16 -29 -17 -31 -2 -2 -33 26 -69 61 -40 40 -83 72
-110 82 -44 17 -46 17 -79 -4 -24 -14 -43 -39 -61 -81 l-27 -61 -57 32 c-31
18 -61 35 -67 39 -5 4 -36 13 -67 20 -49 11 -60 11 -81 -3 -36 -24 -57 -77
-57 -147 0 -60 -1 -62 -22 -55 -13 4 -48 9 -78 12 -61 6 -85 -9 -92 -57 -3
-22 -8 -25 -53 -28 -27 -1 -86 -11 -130 -21 -44 -11 -110 -27 -147 -35 -37 -9
-109 -16 -161 -16 l-94 0 -6 60 c-4 34 -12 71 -19 83 -16 30 -121 151 -162
187 -37 33 -95 41 -115 16 -6 -8 -42 -28 -79 -46 -92 -43 -173 -124 -198 -197
-11 -31 -25 -58 -31 -60 -7 -3 -26 7 -43 21 -67 56 -147 58 -218 6 l-41 -29
-57 19 c-61 21 -156 26 -197 11 -14 -5 -43 -27 -66 -48 -37 -34 -43 -46 -54
-108 -17 -102 -14 -210 6 -233 26 -28 21 -36 -34 -60 -39 -16 -49 -18 -45 -7
4 12 -4 15 -39 15 -69 0 -144 -19 -223 -57 -54 -26 -76 -32 -86 -24 -9 8 -20
3 -41 -19 -37 -39 -49 -38 -41 4 5 24 3 35 -7 39 -11 4 -12 17 -7 52 10 69 -4
181 -34 255 -21 54 -26 61 -32 43 -10 -34 -24 -28 -18 7 9 44 0 37 -35 -24
-17 -29 -38 -59 -46 -66 -13 -10 -15 -9 -15 10 0 13 7 32 17 42 27 30 8 31
-49 2 -59 -30 -95 -66 -135 -137 -14 -26 -30 -47 -34 -47 -4 0 -13 17 -19 37
-33 106 -72 158 -127 169 -29 6 -32 4 -39 -27 l-7 -34 -10 38 c-5 20 -12 37
-16 37 -11 0 -44 -39 -76 -87 l-27 -43 -27 38 c-54 74 -152 141 -207 142 -12
0 -27 7 -34 15 -18 22 -32 7 -25 -26 4 -18 3 -29 -4 -29 -6 0 -11 5 -11 10 0
6 -4 10 -9 10 -13 0 -41 -94 -41 -139 0 -32 -4 -41 -17 -41 -16 0 -18 -13 -21
-103 -1 -59 3 -132 12 -174 7 -40 13 -73 12 -73 -1 0 -40 14 -87 31 -76 28
-91 31 -163 25 -64 -4 -82 -10 -97 -27 -21 -25 -26 -100 -9 -144 l10 -26 -78
7 c-57 5 -101 16 -169 45 -51 21 -99 39 -106 39 -25 0 -24 10 12 98 34 81 36
94 36 192 0 105 0 105 -40 172 -33 54 -46 67 -70 71 -16 2 -70 19 -120 37 -82
30 -97 32 -170 27 -134 -10 -259 -74 -362 -186 l-42 -46 -1 67 c0 94 -16 160
-61 257 -35 76 -37 83 -18 78 18 -5 20 -2 15 18 -3 13 -2 27 4 30 17 11 -17
61 -50 75 l-31 13 31 32 c21 22 31 40 28 56 -3 21 -8 24 -43 21 -23 -2 -51 1
-63 5 -21 8 -19 11 27 38 27 17 54 40 60 52 6 12 22 29 36 39 14 9 25 25 25
35 0 10 4 20 9 24 17 10 5 54 -20 73 -41 32 -192 103 -234 111 l-40 7 53 17
c38 13 58 15 72 7 28 -15 37 -12 14 4 -18 14 -18 15 10 39 20 18 26 30 22 45
-12 37 -32 44 -123 44 -82 0 -86 1 -65 15 13 9 22 26 22 40 0 25 0 25 -72 18
l-73 -6 30 19 c51 33 73 65 101 144 27 75 27 78 9 98 -10 11 -26 20 -36 20
-10 0 -55 -30 -100 -66 -45 -36 -79 -62 -77 -57 3 4 13 27 23 50 13 31 31 50
70 74 44 26 75 62 75 84 0 2 -17 9 -39 15 -31 8 -49 6 -97 -9 -32 -11 -60 -18
-62 -16 -2 2 19 15 46 29 31 16 53 35 57 48 4 13 16 33 28 45 31 34 3 38 -71
9 -57 -23 -64 -23 -68 -8 -11 36 -22 47 -57 61 -20 7 -47 11 -61 7 -27 -7
-109 -114 -195 -256 -67 -110 -72 -114 -47 -38 12 35 45 98 74 140 29 42 52
88 52 102 0 14 9 41 21 60 18 31 19 36 5 36 -9 0 -16 8 -16 20 0 25 -22 26
-42 3 -20 -23 -61 -103 -88 -173 -22 -56 -60 -124 -66 -118 -2 2 4 36 12 77
14 66 14 77 -1 122 -9 27 -27 62 -41 78 -13 15 -26 48 -30 72 -11 68 -57 103
-109 82 -27 -10 -95 -122 -96 -157 0 -17 -4 -39 -8 -50 -6 -15 -11 -9 -26 30
-19 51 -80 144 -95 144 -5 0 -13 -7 -18 -16 -8 -14 -14 -13 -51 11 -22 15 -41
30 -41 34 0 3 27 25 59 49 53 38 62 50 80 105 27 78 26 112 -1 164 l-22 42 22
39 c47 85 52 98 52 158 0 70 -40 222 -70 264 -14 19 -44 37 -95 55 -87 32
-136 31 -288 -4 -53 -13 -122 -21 -176 -21 l-88 0 -6 66 c-8 79 -12 86 -123
208 -103 115 -129 124 -202 77 -26 -16 -72 -40 -102 -54 -73 -33 -143 -106
-174 -182 -27 -66 -46 -78 -80 -46 -23 22 -96 51 -128 51 -22 0 -95 -35 -121
-58 -16 -14 -23 -14 -73 2 -126 40 -217 30 -280 -29 -20 -19 -40 -35 -44 -35
-7 0 -63 82 -58 84 2 1 21 10 43 20 57 26 187 120 224 161 40 46 71 107 71
141 0 15 9 41 20 59 l20 32 -23 20 c-52 48 -85 57 -219 57 -71 1 -128 4 -128
8 0 3 32 29 70 58 138 102 183 178 184 310 1 111 -12 180 -38 202 -53 46 -75
51 -186 44 -58 -3 -122 -11 -143 -17 -22 -6 -40 -9 -42 -7 -2 2 -10 35 -19 75
-29 139 -72 206 -164 253 -23 12 -45 26 -48 31 -3 5 -15 2 -27 -6 -12 -8 -31
-15 -42 -15 -48 0 -141 -33 -189 -66 -88 -62 -143 -154 -170 -283 l-12 -55
-33 52 c-44 68 -128 144 -198 178 -47 23 -72 29 -141 30 -83 2 -86 3 -110 34
-29 37 -23 45 47 55 67 10 147 60 182 115 16 24 15 29 -1 72 l-17 46 38 47
c56 68 58 83 13 155 -39 63 -116 140 -141 140 -7 0 -18 12 -23 26 -8 21 -5 33
21 71 61 89 71 179 25 222 -13 12 -67 37 -122 57 -80 28 -112 34 -169 33 -38
-1 -73 -1 -77 0 -4 1 6 26 23 57 60 114 19 224 -83 224 -33 0 -40 4 -48 28
-38 109 -136 157 -196 97 -14 -14 -27 -25 -29 -25 -3 0 -16 21 -29 48 -29 56
-69 102 -91 102 -8 0 -15 7 -15 16 0 11 18 3 65 -31 87 -62 122 -75 199 -75
47 0 74 -6 98 -20 l34 -20 28 72 c21 54 28 90 28 145 1 46 5 73 12 73 6 0 34
-9 61 -19 28 -11 86 -24 129 -30 65 -9 82 -8 107 4 16 9 29 21 29 28 0 26 -70
94 -128 125 -33 18 -66 39 -73 48 -13 16 -9 17 51 10 36 -3 133 -9 216 -13
118 -5 153 -3 159 7 10 16 -20 40 -50 40 -12 0 -45 7 -73 15 l-52 16 0 62 c0
44 -6 74 -21 102 -17 31 -19 43 -10 58 9 14 8 23 -7 45 -10 15 -24 42 -32 60
-7 18 -26 47 -41 63 -16 17 -29 33 -29 34 0 2 26 7 58 11 91 11 174 56 216
118 55 79 55 80 -87 97 -136 16 -170 23 -174 35 -2 5 43 25 99 44 143 47 250
89 271 108 17 15 17 17 -9 30 -26 14 -50 13 -129 -4 -59 -13 -11 15 60 34 43
12 70 24 70 33 0 16 -74 44 -170 63 -38 8 -95 21 -125 30 -30 9 -79 16 -108
16 -48 0 -53 2 -47 20 8 24 -10 58 -43 86 l-26 21 46 64 c65 92 85 136 91 207
5 59 4 62 -17 62 -13 0 -50 -11 -84 -25 -79 -32 -92 -32 -60 3 34 37 68 88 68
101 0 31 -175 -2 -272 -52 -57 -29 -70 -32 -80 -20 -9 12 -18 8 -50 -24 l-40
-38 4 39 c1 22 -2 41 -8 43 -7 2 -9 36 -6 102 3 62 0 111 -8 135 l-12 36 -146
-2 -146 -3 -21 -31 c-11 -18 -28 -47 -39 -65 l-18 -34 -15 35 c-9 19 -21 50
-29 68 l-14 32 -124 0 c-108 0 -126 -2 -135 -17 -10 -17 -12 -17 -25 0 -12 15
-33 17 -185 17 l-171 0 0 -977z m870 -1224 c0 -5 -4 -9 -10 -9 -5 0 -10 7 -10
16 0 8 5 12 10 9 6 -3 10 -10 10 -16z m668 -2061 c16 -35 50 -88 76 -118 38
-45 44 -55 29 -58 -73 -10 -136 -29 -182 -53 -30 -16 -64 -29 -77 -29 -12 0
-49 -8 -82 -19 -47 -14 -59 -15 -55 -5 3 8 12 14 20 14 16 0 62 49 63 66 0 14
33 24 85 24 50 1 80 25 94 76 14 49 14 120 1 145 -6 10 -8 19 -5 19 2 0 18
-28 33 -62z m-389 -281 c68 -15 101 -27 71 -27 -31 0 -244 -153 -303 -219 -21
-23 -43 -53 -49 -67 -17 -37 -25 -29 -32 32 -3 30 -16 74 -27 96 l-20 40 20
-6 c12 -3 30 -9 41 -12 30 -8 112 74 144 146 l27 60 27 -14 c15 -8 61 -21 101
-29z m427 -774 c-3 -21 -6 -47 -6 -58 0 -19 -5 -20 -72 -17 -44 2 -79 10 -87
18 -13 11 -6 17 45 39 32 15 70 33 84 40 38 22 43 18 36 -22z m824 -109 c0
-14 -4 -34 -10 -44 -5 -10 -15 -62 -22 -115 l-12 -97 -54 5 c-30 3 -56 8 -59
11 -3 2 2 17 11 33 8 15 24 48 36 73 58 123 88 172 100 165 6 -4 10 -17 10
-31z m578 -56 c13 -15 13 -20 1 -34 -8 -10 -26 -22 -40 -28 -58 -25 -128 -81
-129 -103 0 -12 -16 -62 -36 -113 l-37 -91 -21 19 c-12 11 -28 22 -37 25 -12
4 -20 28 -29 92 -7 47 -11 88 -9 89 19 17 114 55 151 60 37 6 51 13 65 36 24
38 97 93 102 77 2 -7 10 -20 19 -29z m-1453 -488 c64 -11 137 -20 161 -20 42
0 46 -2 78 -52 35 -55 115 -142 156 -169 l24 -16 -58 -17 -58 -17 -55 43
c-116 91 -211 159 -290 208 -74 46 -93 60 -79 60 2 0 57 -9 121 -20z m-346
-491 c113 -132 221 -209 331 -239 l44 -12 -48 -24 c-82 -42 -193 -131 -221
-179 -24 -43 -45 -58 -45 -34 0 6 -25 37 -56 70 l-57 59 7 77 c7 95 -14 248
-48 342 -13 36 -27 75 -31 86 -4 11 8 -1 26 -26 19 -26 63 -80 98 -120z m3121
-131 c0 -9 5 -20 10 -23 6 -4 1 -14 -12 -25 -23 -18 -23 -18 -34 13 -28 80
-28 77 6 64 17 -7 30 -19 30 -29z m38 -104 c12 -8 27 -24 33 -36 13 -24 -1
-38 -38 -38 -17 0 -24 9 -32 38 -6 20 -11 40 -11 45 0 12 24 8 48 -9z m-2288
-9 c0 -12 -32 -67 -36 -63 -9 10 9 68 22 68 8 0 14 -2 14 -5z m-328 -36 c11
-6 52 -20 92 -31 39 -10 92 -33 118 -49 25 -17 62 -33 82 -36 43 -7 47 -27 9
-46 -25 -13 -30 -12 -66 14 -68 50 -138 51 -183 2 -30 -32 -45 -26 -73 28 -12
23 -38 62 -58 86 l-35 43 46 0 c26 0 57 -5 68 -11z m1238 -243 c68 -61 120
-89 195 -106 53 -13 71 -21 175 -80 36 -20 101 -51 145 -69 l80 -33 0 -96 c0
-63 6 -118 17 -156 10 -33 16 -61 14 -63 -4 -5 -104 126 -163 212 -99 147
-250 245 -376 245 -21 0 -48 5 -59 11 -14 8 -23 8 -31 0 -21 -21 -35 -11 -42
32 -4 23 -16 62 -26 86 -39 89 -16 94 71 17z m-680 16 c0 -15 -10 -56 -21 -91
l-22 -63 -22 28 -23 28 31 63 c33 67 57 82 57 35z m1905 -60 c12 -8 35 -48 35
-60 0 -5 -15 -13 -33 -19 -29 -9 -38 -6 -78 22 l-46 32 41 15 c48 18 67 21 81
10z m-475 -81 c0 -16 -28 -20 -34 -5 -4 9 1 14 14 14 11 0 20 -4 20 -9z
m-1380 -209 c0 -4 -6 -14 -12 -21 -10 -11 -10 -14 0 -18 25 -9 12 -33 -18 -33
-35 0 -36 5 -10 48 18 30 40 43 40 24z m-102 -68 c-2 -1 -15 -5 -31 -9 -32 -8
-36 8 -11 43 l16 23 14 -27 c8 -15 13 -28 12 -30z m554 -197 l10 -27 21 32
c12 17 27 33 32 35 7 2 16 -31 23 -80 7 -46 19 -105 28 -131 9 -26 14 -50 11
-53 -3 -3 -27 3 -52 13 -51 19 -125 23 -194 11 -43 -8 -44 -7 -28 10 9 10 28
45 43 77 23 51 26 66 20 121 -3 34 -3 71 1 81 6 15 11 12 41 -22 19 -21 39
-51 44 -67z m1428 -233 c0 -6 -48 -67 -97 -122 -28 -33 -34 -36 -59 -27 -42
15 -40 32 12 67 26 18 59 45 72 61 22 23 72 38 72 21z m1399 -169 c13 -32 24
-125 14 -125 -5 0 -19 7 -31 16 -19 13 -22 23 -20 67 1 29 -1 66 -6 82 l-8 30
22 -25 c11 -14 25 -34 29 -45z m-1272 -392 c24 -3 46 -9 48 -13 5 -8 -86 -43
-137 -54 -36 -8 -44 8 -13 28 14 9 25 26 25 37 0 16 4 19 17 15 9 -4 37 -10
60 -13z m-1150 -27 c-3 -7 1 -24 10 -35 8 -12 13 -24 11 -26 -2 -2 -37 8 -78
23 l-74 26 54 12 c77 16 83 16 77 0z m6193 -128 c30 -13 84 -40 120 -60 36
-20 82 -41 103 -48 57 -18 47 -34 -15 -25 -29 4 -97 6 -151 5 -96 -2 -99 -1
-92 19 7 24 -9 59 -41 84 -20 15 -22 21 -11 38 6 10 16 17 22 15 5 -3 35 -15
65 -28z m-2367 -545 c70 -10 127 -21 127 -25 0 -4 -21 -10 -47 -13 -27 -4 -61
-11 -77 -16 -25 -8 -39 -3 -93 26 -93 53 -93 53 90 28z"/>
</g>
</svg>
