<?xml version="1.0" encoding="UTF-8" standalone="no"?>
<!-- Created with Inkscape (http://www.inkscape.org/) -->
<svg xmlns:inkscape="http://www.inkscape.org/namespaces/inkscape" xmlns:rdf="http://www.w3.org/1999/02/22-rdf-syntax-ns#" xmlns="http://www.w3.org/2000/svg" xmlns:xlink="http://www.w3.org/1999/xlink" xmlns:ns1="http://sozi.baierouge.fr" xmlns:cc="http://creativecommons.org/ns#" xmlns:sodipodi="http://sodipodi.sourceforge.net/DTD/sodipodi-0.dtd" xmlns:dc="http://purl.org/dc/elements/1.1/" id="svg2" xml:space="preserve" viewBox="0 0 59.05 55.679" version="1.1" inkscape:version="0.91 r13725">
  <defs id="defs6">
    <radialGradient id="radialGradient24" gradientUnits="userSpaceOnUse" cy="17.28" cx="23.957" gradientTransform="matrix(.8 .00432 -.00432 .8 .14992 16.894)" r="30.038">
      <stop id="stop26" style="stop-color:#91ffe1" offset="0"/>
      <stop id="stop28" style="stop-color:#7ae8c7" offset=".1373"/>
      <stop id="stop30" style="stop-color:#4ebe95" offset=".41960"/>
      <stop id="stop32" style="stop-color:#2f9f70" offset=".6706"/>
      <stop id="stop34" style="stop-color:#1b8c5a" offset=".87060"/>
      <stop id="stop36" style="stop-color:#148552" offset="1"/>
    </radialGradient>
    <clipPath id="clipPath44">
      <path id="path46" d="m22 9.5432h12v28h-12v-28z" inkscape:connector-curvature="0"/>
    </clipPath>
    <mask id="mask48">
      <g id="g50">
        <g id="g52" clip-path="url(#clipPath44)">
          <path id="path54" style="fill:#000000;fill-opacity:.23830" d="m22 9.5432h12v28h-12v-28z" inkscape:connector-curvature="0"/>
        </g>
      </g>
    </mask>
    <clipPath id="clipPath60">
      <path id="path62" d="m22 9.5432h12v28h-12v-28z" inkscape:connector-curvature="0"/>
    </clipPath>
    <clipPath id="clipPath64">
      <path id="path66" d="m22 10h12v28h-12v-28z" inkscape:connector-curvature="0"/>
    </clipPath>
    <radialGradient id="radialGradient94" gradientUnits="userSpaceOnUse" cy="13.835" cx="-52.64" gradientTransform="matrix(-.15864 .78408 -.14536 -.02944 12.859 47.144)" r="77.885">
      <stop id="stop96" style="stop-color:#91ffe1" offset="0"/>
      <stop id="stop98" style="stop-color:#74e4c4" offset=".149"/>
      <stop id="stop100" style="stop-color:#42b792" offset=".42750"/>
      <stop id="stop102" style="stop-color:#1e966d" offset=".67450"/>
      <stop id="stop104" style="stop-color:#088257" offset=".87450"/>
      <stop id="stop106" style="stop-color:#007b4f" offset="1"/>
    </radialGradient>
    <radialGradient id="radialGradient120" gradientUnits="userSpaceOnUse" cy="31.015" cx="-5.5493" gradientTransform="matrix(.6592 .45328 -.34464 .5012 24.746 8.5528)" r="47.588">
      <stop id="stop122" style="stop-color:#91ffe1" offset="0"/>
      <stop id="stop124" style="stop-color:#74e4c4" offset=".149"/>
      <stop id="stop126" style="stop-color:#42b792" offset=".42750"/>
      <stop id="stop128" style="stop-color:#1e966d" offset=".67450"/>
      <stop id="stop130" style="stop-color:#088257" offset=".87450"/>
      <stop id="stop132" style="stop-color:#007b4f" offset="1"/>
    </radialGradient>
    <clipPath id="clipPath140">
      <path id="path142" d="m28 6.5432h14v17h-14v-17z" inkscape:connector-curvature="0"/>
    </clipPath>
    <mask id="mask144">
      <g id="g146">
        <g id="g148" clip-path="url(#clipPath140)">
          <path id="path150" style="fill:#000000;fill-opacity:.26170" d="m28 6.5432h14v17h-14v-17z" inkscape:connector-curvature="0"/>
        </g>
      </g>
    </mask>
    <clipPath id="clipPath156">
      <path id="path158" d="m28 6.5432h14v17h-14v-17z" inkscape:connector-curvature="0"/>
    </clipPath>
    <clipPath id="clipPath160">
      <path id="path162" d="m28 7h14v17h-14v-17z" inkscape:connector-curvature="0"/>
    </clipPath>
    <radialGradient id="radialGradient190" gradientUnits="userSpaceOnUse" cy="43.95" cx="55.15" gradientTransform="matrix(-.74016 .30352 .21384 .52152 75.542 -30.279)" r="29.167">
      <stop id="stop192" style="stop-color:#91ffe1" offset="0"/>
      <stop id="stop194" style="stop-color:#75e5cc" offset=".1451"/>
      <stop id="stop196" style="stop-color:#43b8a7" offset=".42750"/>
      <stop id="stop198" style="stop-color:#1e978c" offset=".6706"/>
      <stop id="stop200" style="stop-color:#08827b" offset=".87060"/>
      <stop id="stop202" style="stop-color:#007b75" offset="1"/>
    </radialGradient>
    <radialGradient id="radialGradient216" gradientUnits="userSpaceOnUse" cy="19.5" cx="65.4" gradientTransform="matrix(-.74016 .30352 .21384 .52144 96.56 -1.076)" r="66.282">
      <stop id="stop218" style="stop-color:#91ffe1" offset="0"/>
      <stop id="stop220" style="stop-color:#75e5cc" offset=".1451"/>
      <stop id="stop222" style="stop-color:#43b8a7" offset=".42750"/>
      <stop id="stop224" style="stop-color:#1e978c" offset=".6706"/>
      <stop id="stop226" style="stop-color:#08827b" offset=".87060"/>
      <stop id="stop228" style="stop-color:#007b75" offset="1"/>
    </radialGradient>
    <clipPath id="clipPath236">
      <path id="path238" d="m10 4.5432h22v20h-22v-20z" inkscape:connector-curvature="0"/>
    </clipPath>
    <mask id="mask240">
      <g id="g242">
        <g id="g244" clip-path="url(#clipPath236)">
          <path id="path246" style="fill:#000000;fill-opacity:.26170" d="m10 4.5432h22v20h-22v-20z" inkscape:connector-curvature="0"/>
        </g>
      </g>
    </mask>
    <clipPath id="clipPath252">
      <path id="path254" d="m10 4.5432h22v20h-22v-20z" inkscape:connector-curvature="0"/>
    </clipPath>
    <clipPath id="clipPath256">
      <path id="path258" d="m10 5h22v20h-22v-20z" inkscape:connector-curvature="0"/>
    </clipPath>
  </defs>
  <g id="g10" transform="matrix(1.25 0 0 -1.25 0 55.679)">
    <g id="g12">
      <g id="g14">
        <g id="g16">
          <g id="g22">
            <path id="path38" style="fill-rule:evenodd;fill:url(#radialGradient24)" d="m32.602 18.02c-0.668-0.852-2.043-2.84-4.122-5.957-1.199-1.762-2.015-2.602-2.441-2.52-0.586 0.133-1.144 0.426-1.68 0.879-0.558 0.535-1.199 1.36-1.918 2.481-2.8 4.402-3.148 7.839-1.043 10.32 0.907 1.066 2.387 2.441 4.442 4.121 1.625 1.52 2.492 3.055 2.601 4.598-0.16 2.507-0.269 4.32-0.32 5.441-0.082 1.922 0.387 3.387 1.399 4.399 1.042 1.042 2.187 1.816 3.441 2.32 0.613 0.242 1.133 0.387 1.559 0.441-0.665-0.426-1.332-0.945-2-1.558-1.282-1.282-1.829-2.442-1.641-3.485 0.133-0.746 0.801-2.199 2-4.359s1.922-3.895 2.16-5.199c0.402-2.028 0.441-4.028 0.121-6-0.398-2.266-1.254-4.239-2.558-5.922z" inkscape:connector-curvature="0"/>
          </g>
        </g>
      </g>
      <g id="g40">
        <g id="g56" mask="url(#mask48)">
          <g id="g68">
            <g id="g70" clip-path="url(#clipPath60)">
              <g id="g72" transform="translate(0 -.45677)">
                <g id="g76">
                  <g id="g78" clip-path="url(#clipPath64)">
                    <g id="g80">
                      <path id="path82" style="fill-rule:evenodd;fill:#147a54" d="m26.719 25.277c1.496 1.575 2.375 2.575 2.64 3 0.563 0.907 0.946 1.977 1.161 3.2 0.187 1.175 0.175 2.175-0.04 3-0.32 1.066-0.64 1.976-0.96 2.722 0.613-0.562 1.253-1.336 1.921-2.32 1.305-1.973 2.051-4.016 2.239-6.121 0.398-4.055-0.719-7.707-3.36-10.961-1.359-1.68-2.785-4.277-4.281-7.797l-1.16 1.84c-0.801 0.773-1.371 2.16-1.719 4.16-0.398 2.238-0.226 4.039 0.52 5.398 0.613 1.122 1.625 2.414 3.039 3.879z" inkscape:connector-curvature="0"/>
                    </g>
                  </g>
                </g>
              </g>
            </g>
          </g>
        </g>
      </g>
      <g id="g84">
        <g id="g86">
          <g id="g92">
            <path id="path108" style="fill-rule:evenodd;fill:url(#radialGradient94)" d="m23.961 39.02c0.773-0.774 1.238-1.957 1.398-3.559 0.106-0.879 0.215-2.187 0.321-3.918l0.121-0.883c0.023 0.11 0.039 0.801 0.039 2.082 0.027 1.012 0.199 1.641 0.519 1.879 0.586 0.453 1.039 0.243 1.36-0.64 0.293-0.774 0.359-1.465 0.199-2.078-0.184-0.75-0.691-1.829-1.52-3.243-0.531-1.277-0.386-2.371 0.442-3.277 0.348-0.402 0.894-1 1.64-1.801 0.641-0.746 1.067-1.441 1.282-2.082 0.211-0.664 0.504-2.183 0.879-4.558 0.05-0.239 0.011-0.493-0.121-0.762-0.161-0.293-0.211-0.813-0.161-1.559 0.028-1.066 0-1.718-0.078-1.957-0.215-0.457-0.734-0.121-1.562 0.996-0.293 0.403-0.598 0.95-0.918 1.641-0.453 0.988-0.723 1.563-0.801 1.719-0.215 0.402-0.508 0.773-0.879 1.121-0.082 0.055-0.469 0.348-1.16 0.879-1.176 0.883-1.961 1.535-2.359 1.961-0.829 0.906-1.227 1.812-1.204 2.718 0.028 0.563 0.243 1.282 0.641 2.161 0.453 1.066 0.723 1.789 0.801 2.16 0.558 2.215 0.601 4.562 0.121 7.043-0.16 0.851-0.309 1.41-0.441 1.679-0.293 0.504-0.735 0.598-1.321 0.278-0.371-0.344-0.652-0.598-0.84-0.758-0.347-0.293-0.625-0.293-0.839 0-0.239 0.375-0.145 0.961 0.281 1.758 0.344 0.722 0.707 1.215 1.078 1.48 0.508 0.348 1.043 0.469 1.601 0.364 0.532-0.11 1.028-0.387 1.481-0.844z" inkscape:connector-curvature="0"/>
          </g>
        </g>
      </g>
      <g id="g110">
        <g id="g112">
          <g id="g118">
            <path id="path134" style="fill-rule:evenodd;fill:url(#radialGradient120)" d="m47.238 26.543c-0.05-0.347-0.199-0.746-0.437-1.203-0.481-0.906-1.16-1.652-2.039-2.238-0.617-0.426-1.453-0.906-2.524-1.442-0.797-0.371-1.398-0.773-1.797-1.199-0.75-0.801-1.187-1.441-1.32-1.918-0.215-0.64-0.066-1.402 0.441-2.281 0.637-1.094 0.973-2.469 1-4.121 0.024-1.813-0.347-3.359-1.121-4.641-1.121-1.758-2.879-3.332-5.281-4.718-0.215-0.106-0.613 0.066-1.199 0.519-0.719 0.586-1.52 0.867-2.399 0.84-1.253-0.027-2.136 0.133-2.64 0.48-1.016 0.774-1.684 2.508-2 5.2-0.32 2.91 0.277 5.601 1.801 8.082 1.382 2.238 3.172 3.8 5.355 4.679 1.762 0.719 3.496 1.215 5.203 1.481 0.508 0.078 1.934 0.199 4.281 0.359 2.239 0.133 3.637 0.602 4.2 1.399l0.476 0.722z" inkscape:connector-curvature="0"/>
          </g>
        </g>
      </g>
      <g id="g136">
        <g id="g152" mask="url(#mask144)">
          <g id="g164">
            <g id="g166" clip-path="url(#clipPath156)">
              <g id="g168" transform="translate(0 -.45677)">
                <g id="g172">
                  <g id="g174" clip-path="url(#clipPath160)">
                    <g id="g176">
                      <path id="path178" style="fill-rule:evenodd;fill:#005754" d="m41.039 22.879c-1.812-0.559-3-1.16-3.559-1.801-0.558-0.613-0.867-1.094-0.921-1.441-0.079-0.426 0.109-1.094 0.562-2 0.824-1.625 1.117-3.383 0.879-5.278-0.215-1.629-1.078-2.867-2.602-3.722-0.746-0.453-1.476-0.731-2.199-0.84-2.133-0.453-3.32-0.41-3.558 0.121-0.055 1.336-0.403 2.695-1.039 4.082-1.149 2.531-0.602 4.973 1.636 7.32-0.316-0.777-0.453-1.336-0.398-1.683 0-0.399 0.082-0.774 0.238-1.117 0.027-0.082 0.094-0.2 0.203-0.36 0.016-0.035 0.031-0.07 0.039-0.101-0.008 0.203 0.004 0.461 0.039 0.781 0 0.558 0.067 1.039 0.2 1.437 0.269 0.883 0.789 1.707 1.562 2.481 0.293 0.293 0.891 0.68 1.801 1.16 0.957 0.453 1.558 0.707 1.797 0.762 0.48 0.132 1.269 0.277 2.359 0.437l1.281 0.121c0.403 0.028 0.961-0.093 1.68-0.359z" inkscape:connector-curvature="0"/>
                    </g>
                  </g>
                </g>
              </g>
            </g>
          </g>
        </g>
      </g>
      <g id="g180">
        <g id="g182">
          <g id="g188">
            <path id="path204" style="fill-rule:evenodd;fill:url(#radialGradient190)" d="m33.238 6.422c0.696-0.265 1.082-0.734 1.16-1.402 0.161-0.957 0.309-1.543 0.442-1.758 0.238-0.375 0.734-0.707 1.48-1 0.602-0.262 1.125-0.41 1.582-0.441-0.761 0.027-1.34 0.027-1.742 0-0.719-0.024-1.305-0.118-1.758-0.278 0.106-0.082 0.453-0.269 1.039-0.562-0.906 0.109-1.906 0.054-3-0.16-1.253-0.317-2.242-0.532-2.961-0.641-1.464-0.266-2.785-0.238-3.957 0.082-0.777 0.242-1.386 0.332-1.843 0.281-1.2 0-1.813-0.015-1.84-0.039 0.082 0.078 0.293 0.266 0.64 0.559-0.613 0.187-1.304 0.105-2.078-0.242 0.211 0.347 0.703 0.75 1.477 1.199-0.344 0.215-0.613 0.387-0.797 0.523-0.32 0.239-0.496 0.477-0.52 0.719-0.082 0.773 0.52 1.441 1.797 2 0.586 0.238 1.536 0.508 2.84 0.801 2.028 0.453 3.375 0.719 4.043 0.801 1.52 0.156 2.852 0.011 3.996-0.442z" inkscape:connector-curvature="0"/>
          </g>
        </g>
      </g>
      <g id="g206">
        <g id="g208">
          <g id="g214">
            <path id="path230" style="fill-rule:evenodd;fill:url(#radialGradient216)" d="m7.238 25.5c3.309 0.375 5.321 0.574 6.043 0.602 2.481 0.078 5.051-0.133 7.719-0.641 3.332-0.664 6.332-2.304 9-4.918 2.961-2.91 4.707-6.347 5.238-10.32 0.508-3.629 0.043-6.149-1.398-7.559-0.719-0.722-2.028-1.242-3.918-1.562-1.895-0.293-3.961-0.188-6.203 0.32-2.586 0.613-4.586 1.641-6 3.078-1.574 1.574-2.692 3.414-3.36 5.52-0.64 2.027-0.707 3.816-0.199 5.359 0.399 1.309 0.36 2.363-0.121 3.16-0.371 0.614-1.211 1.348-2.519 2.203-0.692 0.454-1.653 0.84-2.879 1.161-1.68 0.449-3.016 0.879-4 1.277-1.414 0.586-2.614 1.43-3.602 2.519l-1.039 1.442 0.922-0.84c0.504-0.453 1.183-0.746 2.039-0.879 1.039-0.16 2.465-0.133 4.277 0.078z" inkscape:connector-curvature="0"/>
          </g>
        </g>
      </g>
      <g id="g232">
        <g id="g248" mask="url(#mask240)">
          <g id="g260">
            <g id="g262" clip-path="url(#clipPath252)">
              <g id="g264" transform="translate(0 -.45677)">
                <g id="g268">
                  <g id="g270" clip-path="url(#clipPath256)">
                    <g id="g272">
                      <path id="path274" style="fill-rule:evenodd;fill:#005754" d="m27.281 17.438c0.078 0.242 0.117 0.414 0.117 0.519 0.082 0.535 0.067 1.043-0.039 1.52-0.05 0.562-0.425 1.281-1.121 2.16 1.762-1.145 3.055-2.465 3.883-3.957 0.957-1.68 1.25-3.469 0.879-5.36-0.398-2-0.441-3.894-0.121-5.683-0.106-0.774-1.719-1.117-4.84-1.039-1.039-0.028-2.16 0.148-3.359 0.519-2.399 0.774-4.028 2.215-4.879 4.321-0.961 2.48-1.149 4.906-0.563 7.281 0.321 1.304 0.364 2.238 0.121 2.801-0.187 0.425-0.773 0.984-1.757 1.679-0.989 0.719-2.84 1.211-5.563 1.481 0.906 0.531 1.641 0.824 2.199 0.879 0.457 0.027 1.067 0.093 1.84 0.199 1.496 0.054 2.629 0.054 3.402 0 0.747-0.055 1.665-0.254 2.758-0.598 1.282-0.32 2.242-0.683 2.883-1.082 1.332-0.824 2.332-1.785 3-2.879 0.293-0.453 0.559-1.082 0.801-1.879 0.144-0.574 0.238-0.972 0.277-1.203 0.012 0.09 0.039 0.195 0.082 0.321z" inkscape:connector-curvature="0"/>
                    </g>
                  </g>
                </g>
              </g>
            </g>
          </g>
        </g>
      </g>
    </g>
  </g>
<metadata><rdf:RDF><cc:Work><dc:format>image/svg+xml</dc:format><dc:type rdf:resource="http://purl.org/dc/dcmitype/StillImage"/><cc:license rdf:resource="http://creativecommons.org/licenses/publicdomain/"/><dc:publisher><cc:Agent rdf:about="http://openclipart.org/"><dc:title>Openclipart</dc:title></cc:Agent></dc:publisher></cc:Work><cc:License rdf:about="http://creativecommons.org/licenses/publicdomain/"><cc:permits rdf:resource="http://creativecommons.org/ns#Reproduction"/><cc:permits rdf:resource="http://creativecommons.org/ns#Distribution"/><cc:permits rdf:resource="http://creativecommons.org/ns#DerivativeWorks"/></cc:License></rdf:RDF></metadata></svg>
