<?xml version="1.0" ?><svg width="52.43px" height="52.43px" viewBox="-5.23 0 52.43 52.43" xmlns="http://www.w3.org/2000/svg"><defs><style>.cls-1{fill:#ff6368;}.cls-2{fill:#d34a5b;}.cls-3{fill:#354251;}</style></defs><g data-name="Layer 2" id="Layer_2"><g data-name="Layer 1" id="Layer_1-2"><g id="bbg"><path class="cls-1" d="M21,34.71a16,16,0,0,0,16-15.94H5A15.94,15.94,0,0,0,21,34.71Z"/><path class="cls-2" d="M15.51,18.77H5c-.2,10.77,11.11,18.74,21.18,15.06A15.93,15.93,0,0,1,15.51,18.77Z"/><path class="cls-3" d="M21,36.07a17.32,17.32,0,0,1-17.3-17.3A1.36,1.36,0,0,1,5,17.41H36.93a1.36,1.36,0,0,1,1.36,1.36A17.33,17.33,0,0,1,21,36.07ZM6.47,20.13c2.12,17.53,26.91,17.52,29,0Z"/><path class="cls-3" d="M40.63,23.85H1.34a1.36,1.36,0,0,1,0-2.72H40.63A1.36,1.36,0,0,1,40.63,23.85Z"/><path class="cls-3" d="M5.31,52.43a1.37,1.37,0,0,1-1.2-2l9.22-17.6a1.36,1.36,0,0,1,2.41,1.26L6.52,51.7A1.38,1.38,0,0,1,5.31,52.43Z"/><path class="cls-3" d="M36.66,52.43a1.37,1.37,0,0,1-1.21-.73L26.22,34.1a1.36,1.36,0,0,1,2.41-1.26l9.23,17.6A1.37,1.37,0,0,1,36.66,52.43Z"/><path class="cls-3" d="M30.62,42.28H11.35a1.36,1.36,0,0,1,0-2.72H30.62A1.36,1.36,0,0,1,30.62,42.28Z"/><path class="cls-3" d="M13.29,15.29a1.36,1.36,0,0,1-1.36-1.36c0-.24,0-.3-.36-.65a3.43,3.43,0,0,1,0-5c.32-.35.36-.41.36-.65s0-.29-.36-.64a3.43,3.43,0,0,1,0-5c.32-.35.36-.41.36-.65A1.36,1.36,0,0,1,13.29,0c2.32.21,1.16,3.18.28,3.86-.33.34-.37.4-.37.64s0,.3.37.65a3.44,3.44,0,0,1,0,5c-.33.35-.37.41-.37.65s0,.29.37.64C14.44,12.1,15.61,15.08,13.29,15.29Z"/><path class="cls-3" d="M21.71,15.29a1.36,1.36,0,0,1-1.36-1.36c0-.24,0-.3-.37-.65a3.44,3.44,0,0,1,0-5c.33-.35.37-.41.37-.65s0-.29-.37-.64a3.44,3.44,0,0,1,0-5c.33-.35.37-.41.37-.65A1.36,1.36,0,0,1,21.71,0C24,.21,22.86,3.18,22,3.86c-.32.34-.36.4-.36.64s0,.3.36.65a3.42,3.42,0,0,1,0,5c-.32.35-.36.41-.36.65s0,.29.36.64C22.86,12.1,24,15.08,21.71,15.29Z"/><path class="cls-3" d="M30.13,15.29a1.36,1.36,0,0,1-1.36-1.36c0-.24,0-.3-.37-.65a3.44,3.44,0,0,1,0-5c.33-.35.37-.41.37-.65s0-.29-.37-.64a3.44,3.44,0,0,1,0-5c.33-.35.37-.41.37-.65A1.36,1.36,0,0,1,30.13,0c2.31.21,1.15,3.18.27,3.86-.32.34-.36.4-.36.64s0,.3.36.65a3.44,3.44,0,0,1,0,5c-.32.35-.36.41-.36.65s0,.29.36.64C31.28,12.1,32.44,15.08,30.13,15.29Z"/></g></g></g></svg>