<svg id="Layer_1" data-name="Layer 1" xmlns="http://www.w3.org/2000/svg" viewBox="0 0 176.69 150.17"><defs><style>.cls-1,.cls-2,.cls-3,.cls-4{stroke:#000;stroke-miterlimit:10;stroke-width:0.04px;}.cls-2{fill:#f2c802;}.cls-3{fill:#e4e877;}.cls-4{fill:#2161a1;}</style></defs><title>cupcake-03</title><path class="cls-1" d="M55.87,16.58c-.29.72-1.91,1.76-4.72,2.84S43,20.86,38.84,23.24s-8.5,7.85-12.31,10.4-8.21,2-10.44,4.72-.47,8.1-2.85,11.84S3.7,56.47,1.9,60.14c-1.9,3.49-3.27,7.41.47,11.37s10.87,8,21.78,12.32c4,17.13,7.13,30.16,9.94,39.78q4,14.14,6.15,17.06c0,2.84,4.61,5,14.22,6.62s30.64,3,43.1,2.85c12.34-.44,22.17-1.84,30.31-4.76,4.68-5.58,8.89-13,12.78-23.18s7.31-22.28,10.4-36.94A28,28,0,0,0,163.36,81c3.06-2.27,4.4-6.51,6.63-9s6.15-3.81,6.66-6.15c.21-2.56-2.38-6-4.29-8.54s-4.6-4.39-6.62-6.62a43.15,43.15,0,0,1-5.22-7.09c-1.66-2.74-.18-7-3.78-9s-12.46-.51-17.53-3.31S130.68,20.47,126,17.51s-11-2.16-15.16-4.24c-4.14-2.24-6-6.38-9.46-8.54S94.42.16,90,0C85.21-.09,78.55,2.79,73.87,3.8S65,3,62,5.24,57,11,55.87,16.58Z" transform="translate(0.01 0)"/><path class="cls-2" d="M69.69,6.17c-2.55.29-4.28-.57-6,.72s-3.56,4.29-4.61,6.7.58,5.36-1.76,7.09c-2.49,1.59-9.25,1.84-12.39,2.85-3.24.86-3.42.9-6.37,3.16-3.17,2.24-8,8-11.66,10.37s-8.5.83-9.94,3.53S19.33,49.3,18,52.54s-10,5-8.85,7.09,7.66,2.7,15.58,5.3,20.92,7.48,31.5,9.9c10.41,2.3,31,2.91,30.78,3.92-.5.86-22.53,2.3-32.9,1.4s-20.81-5-29-7.45c-8.43-2.63-16.82-7.63-20.16-7.78s-3.82,3.78.72,6.74,14.68,7.56,26.17,10.62a244.23,244.23,0,0,0,42.12,7.09,266.64,266.64,0,0,0,46-1.44c14.76-1.84,36.69-8.06,41.76-9.54,4.83-1.58-6-.22-12.38.36s-26.07,3.31-25.85,2.81,18.9-3.64,27.25-6,18.8-5.94,22-8.5-1.69-4.57-3.56-7.42c-2-3-6.16-6.15-8.14-9.93s-.28-10.05-3.88-12.39c-3.82-2.37-12.64.8-17.72-1.76s-7.67-10.87-12-13.82c-4.54-3-9.65-1.55-14.51-3.89-5-2.52-10.4-8.14-14.51-10.62S91.29,3.33,88.12,3,82,4.59,78.91,5.09s-6.66.69-9.22,1.08Z" transform="translate(0.01 0)"/><path class="cls-3" d="M44.2,136.1c-2.88-9-13.21-44-13.79-48.17S39.45,111,40.67,112c1,.75-4.42-19.16-3.52-18.76S44.42,114.21,46,114.5c1.33.07-1.19-19.22-.36-19.84.83-.46,3.57,16.56,5.29,16.64,1.62-.18,3.39-17.46,4.61-17S56.69,114,58,114.14c1.19-.11,3.6-24.91,5.29-19.84,1.62,5.26,5.33,45.72,4.61,50.3-.87,4.21-7.67-24.16-9.18-24.45s.9,22.32,0,22.65c-1,0-4.9-21-5.69-21.57s1.26,18.07.72,18.4c-.76,0-4.1-17.32-4.61-17.35s2.77,17.53,1.77,17.35c-1.16-.51-7.56-19.19-8.14-19.12s4.25,17.46,4.61,20.16-.43,4.17-3.21-4.58Z" transform="translate(0.01 0)"/><path class="cls-3" d="M136.62,104.56c-1.4,6.62-9.11,29.7-10.62,32.58-1.62,2.63,2.41-15.91,1.4-15.91-1.22.07-6.73,15.91-7.77,16.27-1,.18,2.73-15,1.76-14.51-1.12.54-7.92,22-7.78,17.68.11-4.68,7.21-40.54,8.5-44.25,1.23-3.52-2,22.93-1.08,23,.9-.08,5.29-23,6.37-23,.83-.07-1.73,22.43-.72,22.65,1.12,0,5.3-19,7.09-21.57s4,.36,2.86,7.06Z" transform="translate(0.01 0)"/><path class="cls-3" d="M114.66,101.4c-1.69-5.58-3.35-7.81-5-7.09s-3.24,4.61-4.93,11.7c-1.94-8.9-3.67-13.36-5.33-13.83s-3.17,3.32-4.57,11.34c-3-6.55-5.22-9.57-7.09-9.21s-3.17,4-3.89,11.34c-2.23-7.78-4.14-11.77-6-12.39s-4.9.9-5,8.86,2.84,32.62,4.61,38.2c1.62,5.32,3.38,3.16,5.29-6.34,1.94,7.2,3.71,10.87,5.29,11.3s2.81-2.73,3.92-9.18c1.7,6.41,3.28,9.61,4.61,9.9s2.56-2.56,3.53-8.49c1.69,5.25,3.2,7.56,4.93,7.05s3.28-3.06,5-10.22,3.06-18.11,4.61-32.94Z" transform="translate(0.01 0)"/><path class="cls-1" d="M109.69,42.35c2.63.47,4.57,1,5.69,1.8a2.23,2.23,0,0,1,1,2.81A21.5,21.5,0,0,1,124.2,42a10.4,10.4,0,0,1,7.09,0c-.75-4-2.45-6.52-4.93-7.81a13.32,13.32,0,0,0-10.26,0c-2.81,1.33-4.9,4-6.41,8.13Z" transform="translate(0.01 0)"/><path class="cls-4" d="M112.17,41.31a7.61,7.61,0,0,1,3.56.36,2.89,2.89,0,0,1,1.77,1.76,31.14,31.14,0,0,1,6.69-3.2,6.54,6.54,0,0,1,4.29-.32,10.56,10.56,0,0,0-5-3.93,8.65,8.65,0,0,0-6.37,0,11.34,11.34,0,0,0-5,5.33Z" transform="translate(0.01 0)"/><path class="cls-1" d="M58.39,46.24a5.1,5.1,0,0,0-4.93,3.21c-.83,2-1.08,4.86-.36,8.85-5.51-3.56-8.46-6.59-8.86-9.21s4-5.84,6.37-6.38S55.54,43.43,58.39,46.24Z" transform="translate(0.01 0)"/><path class="cls-4" d="M55.22,44.84c-2.52-.72-4.28-1-5.69-.36A3.27,3.27,0,0,0,47.05,48c.25,1.72,1.51,3.92,3.92,6.73a9.8,9.8,0,0,1,.36-6A7.44,7.44,0,0,1,55.22,44.84Z" transform="translate(0.01 0)"/><path class="cls-1" d="M127,19.35a11.18,11.18,0,0,1,6.73-1.76c2.09.1,5,0,6,2.84s.83,7.27-.36,13.79a56.76,56.76,0,0,1-7-7.09,48.2,48.2,0,0,1-5.32-7.78Z" transform="translate(0.01 0)"/><path class="cls-4" d="M129.52,21.11l7.09,7.82c1.44-2.63,2-4.61,1.77-6.38a4.9,4.9,0,0,0-3.21-3.92c-1.5-.29-3.33.54-5.64,2.48Z" transform="translate(0.01 0)"/><path class="cls-1" d="M19.11,38.07a11.17,11.17,0,0,1-1.26-6.8c.22-2.24.43-5,3.28-5.8s7.27-.36,13.71,1.37a60.42,60.42,0,0,1-7.56,6.55A50.7,50.7,0,0,1,19.11,38.07Z" transform="translate(0.01 0)"/><path class="cls-4" d="M21.06,35.77l8.27-6.52A10.36,10.36,0,0,0,23.11,27,4.45,4.45,0,0,0,19,29.93Q18.46,32.09,21.06,35.77Z" transform="translate(0.01 0)"/><path class="cls-1" d="M67.89,24.39c2.77-8.42,5.62-12.53,8.68-12.6s6.22,4,9.61,12.42a39,39,0,0,0-9.9-1.33A22.52,22.52,0,0,0,67.89,24.39Z" transform="translate(0.01 0)"/><path class="cls-4" d="M71.46,21.11q.21-5.07,2.48-6.37c1.51-.9,4.93-.07,6.37,1.08s1.77,2.81,1.44,5.29a23.13,23.13,0,0,0-4.61-.36A42,42,0,0,0,71.46,21.11Z" transform="translate(0.01 0)"/><path class="cls-1" d="M119.91,68.27c2.74-8.38,5.69-12.63,8.71-12.6s6.16,4.07,9.58,12.46a36.22,36.22,0,0,0-9.9-1.37,22.73,22.73,0,0,0-8.39,1.51Z" transform="translate(0.01 0)"/><path class="cls-4" d="M123.51,65c.14-3.42,1-5.44,2.48-6.34s4.94-.14,6.38,1.05c1.26,1,1.72,2.8,1.4,5.29a23.75,23.75,0,0,0-4.61-.33,41.19,41.19,0,0,0-5.64.33Z" transform="translate(0.01 0)"/><path class="cls-1" d="M76.42,58.66c2.63.4,4.57.94,5.69,1.77a2.21,2.21,0,0,1,1,2.8,21.63,21.63,0,0,1,7.78-4.93,10.4,10.4,0,0,1,7.09,0c-.82-4-2.48-6.51-5-7.81a13.34,13.34,0,0,0-10.27,0C80,51.89,77.86,54.52,76.42,58.66Z" transform="translate(0.01 0)"/><path class="cls-4" d="M78.91,57.58a7.78,7.78,0,0,1,3.56.36,2.88,2.88,0,0,1,1.77,1.77,34.27,34.27,0,0,1,6.69-3.17,7,7,0,0,1,4.25-.36,10.15,10.15,0,0,0-4.93-3.93,8.68,8.68,0,0,0-6.38,0A11.29,11.29,0,0,0,78.91,57.58Z" transform="translate(0.01 0)"/></svg>