<?xml version="1.0" ?><svg width="54.33px" height="54.33px" viewBox="-8.39 0 54.33 54.33" xmlns="http://www.w3.org/2000/svg"><defs><style>.cls-1{fill:#ff6368;}.cls-2{fill:#d34a5b;}.cls-3{fill:#354251;}.cls-4{fill:#e5c97a;}.cls-5{fill:#ffe48d;}</style></defs><g data-name="Layer 2" id="Layer_2"><g data-name="Layer 1" id="Layer_1-2"><g data-name="french fries" id="french_fries"><path class="cls-1" d="M27.76,14.82V20a2.19,2.19,0,0,1-2.18,2.18H12A2.19,2.19,0,0,1,9.78,20V14.82H1.36L5.9,53H31.64l4.54-38.15Z"/><path class="cls-2" d="M12,22.16A2.19,2.19,0,0,1,9.78,20V14.82H1.36L5.9,53h8.45l-2.3-30.81Z"/><path class="cls-3" d="M31.64,54.33H5.9a1.36,1.36,0,0,1-1.35-1.2L0,15a1.36,1.36,0,0,1,.33-1.06,1.37,1.37,0,0,1,1-.46H9.78a1.36,1.36,0,0,1,1.36,1.36V20a.83.83,0,0,0,.82.82H25.58A.84.84,0,0,0,26.4,20V14.82a1.36,1.36,0,0,1,1.36-1.36h8.42A1.37,1.37,0,0,1,37.53,15L33,53.13A1.36,1.36,0,0,1,31.64,54.33ZM7.11,51.61H30.43l4.21-35.43H29.12V20a3.55,3.55,0,0,1-3.54,3.54H12A3.55,3.55,0,0,1,8.42,20v-3.8H2.89Z"/><path class="cls-4" d="M9.78,14.82V20a2.17,2.17,0,0,0,.53,1.42V7A2.18,2.18,0,0,0,8.14,4.83H6.93A2.18,2.18,0,0,0,4.76,7v7.82Z"/><path class="cls-4" d="M12,22.16H16V11.67a2.18,2.18,0,0,0-2.17-2.18H12.64a2.18,2.18,0,0,0-2.17,2.18v9.89A2.15,2.15,0,0,0,12,22.16Z"/><path class="cls-5" d="M21.66,22.16V5.4a2.19,2.19,0,0,0-2.18-2.18h-1.2A2.19,2.19,0,0,0,16.1,5.4V22.16Z"/><path class="cls-5" d="M25.58,22.16a2.18,2.18,0,0,0,1.64-.76V10.15A2.18,2.18,0,0,0,25,8h-1.2a2.18,2.18,0,0,0-2.18,2.17v12Z"/><path class="cls-5" d="M27.76,20V14.82h5V3.54A2.19,2.19,0,0,0,30.6,1.36H29.4a2.19,2.19,0,0,0-2.18,2.18V21.4A2.17,2.17,0,0,0,27.76,20Z"/><path class="cls-3" d="M10.31,22.76C9,22.7,8.44,21.09,8.42,20v-3.8H4.76a1.36,1.36,0,0,1-1.37-1.36V7A3.55,3.55,0,0,1,6.93,3.46H8.14A3.54,3.54,0,0,1,11.67,7V21.4A1.36,1.36,0,0,1,10.31,22.76Zm-4.19-9.3H9V7a.82.82,0,0,0-.81-.81H6.93A.82.82,0,0,0,6.12,7Z"/><path class="cls-3" d="M16,23.52H12c-1.15,0-2.78-.64-2.86-2V11.67a3.55,3.55,0,0,1,3.54-3.54h1.21a3.54,3.54,0,0,1,3.53,3.54V22.16A1.36,1.36,0,0,1,16,23.52Zm-4.19-2.74.13,0h2.7V11.67a.82.82,0,0,0-.81-.82H12.64a.82.82,0,0,0-.81.82Z"/><path class="cls-3" d="M21.66,23.52H16.1a1.36,1.36,0,0,1-1.36-1.36V5.4a3.55,3.55,0,0,1,3.54-3.54h1.2A3.54,3.54,0,0,1,23,5.4V22.16A1.36,1.36,0,0,1,21.66,23.52Zm-4.2-2.72H20.3V5.4a.83.83,0,0,0-.82-.82h-1.2a.84.84,0,0,0-.82.82Z"/><path class="cls-3" d="M25.58,23.52H21.66a1.36,1.36,0,0,1-1.36-1.36v-12a3.54,3.54,0,0,1,3.54-3.53H25a3.54,3.54,0,0,1,3.54,3.53V21.4C28.46,22.78,26.8,23.5,25.58,23.52ZM23,20.8c.14,0,2.82,0,2.84-.06V10.15A.82.82,0,0,0,25,9.34h-1.2a.83.83,0,0,0-.82.81Z"/><path class="cls-3" d="M27.22,22.76a1.37,1.37,0,0,1-1.36-1.36V3.54A3.55,3.55,0,0,1,29.4,0h1.2a3.55,3.55,0,0,1,3.54,3.54V14.82a1.36,1.36,0,0,1-1.36,1.36H29.12V20C29.09,21.09,28.52,22.71,27.22,22.76Zm1.36-9.3h2.84V3.54a.84.84,0,0,0-.82-.82H29.4a.83.83,0,0,0-.82.82Z"/><path class="cls-3" d="M31.64,54.33H5.9a1.36,1.36,0,0,1-1.35-1.2L3.41,43.62A1.37,1.37,0,0,1,4.77,42.1h28a1.36,1.36,0,0,1,1.35,1.52L33,53.13A1.36,1.36,0,0,1,31.64,54.33ZM7.11,51.61H30.43l.81-6.79H6.3Z"/></g></g></g></svg>