<?xml version="1.0" ?><svg width="48.53px" height="48.53px" viewBox="-5.38 0 48.53 48.53" xmlns="http://www.w3.org/2000/svg"><defs><style>.cls-1{fill:#c6c5c4;}.cls-2{fill:#354251;}.cls-3{fill:#9ad7d2;}.cls-4{fill:#74c1b9;}.cls-5{fill:#ffe48d;}.cls-6{fill:#e5c97a;}</style></defs><g data-name="Layer 2" id="Layer_2"><g data-name="Layer 1" id="Layer_1-2"><g id="juice"><polygon class="cls-1" points="8.58 7.44 1.36 7.44 15.75 29.79 19.36 24.18 8.58 7.44"/><path class="cls-2" d="M15.75,31.15a1.37,1.37,0,0,1-1.15-.62L.22,8.17A1.37,1.37,0,0,1,1.36,6.08H30.14a1.37,1.37,0,0,1,1.14,2.09L16.89,30.53A1.35,1.35,0,0,1,15.75,31.15ZM3.86,8.8,15.75,27.28,27.64,8.8Z"/><path class="cls-2" d="M21.13,48.53H9.38a1.36,1.36,0,0,1,0-2.72h5V30.3a1.36,1.36,0,0,1,2.72,0V45.81h4A1.36,1.36,0,0,1,21.13,48.53Z"/><polygon class="cls-3" points="5.73 14.15 15.75 29.72 25.77 14.15 5.73 14.15"/><polygon class="cls-4" points="12.95 14.15 5.73 14.15 15.75 29.72 19.36 24.11 12.95 14.15"/><path class="cls-2" d="M15.75,31.08a1.38,1.38,0,0,1-1.15-.63l-10-15.56a1.37,1.37,0,0,1,1.14-2.1h20a1.36,1.36,0,0,1,1.14,2.1l-10,15.56A1.36,1.36,0,0,1,15.75,31.08ZM8.22,15.51,15.75,27.2l7.52-11.69Z"/><path class="cls-5" d="M30.09,1.37A6.78,6.78,0,0,0,23,7.44h7.18L26,13.81A6.76,6.76,0,1,0,30.09,1.37Z"/><path class="cls-6" d="M33.06,2.26A6.81,6.81,0,0,0,23,7.44h6.75A6.76,6.76,0,0,1,33.06,2.26Z"/><path class="cls-6" d="M32.78,13.81,36.45,8.1a4.86,4.86,0,0,0,0-.66H30.14L26,13.81a6.84,6.84,0,0,0,7,.18Z"/><path class="cls-2" d="M29.69,16.25c-1.57,0-6-.85-4.8-3.18L27.64,8.8H23a1.36,1.36,0,0,1-1-.45,1.39,1.39,0,0,1-.34-1A8.12,8.12,0,0,1,30.16,0h0C40.61,1,40.16,15.89,29.69,16.25Zm-1.68-3c7.82,2.09,10.05-9.6,2-10.53h0a5.39,5.39,0,0,0-5.32,3.35h5.45a1.36,1.36,0,0,1,1.14,2.09Z"/></g></g></g></svg>