<?xml version="1.0" ?><svg width="47px" height="47px" viewBox="-0.03 0 47 47" xmlns="http://www.w3.org/2000/svg"><defs><style>.cls-1{fill:#ffe48d;}.cls-2{fill:#e5c97a;}.cls-3{fill:#354251;}.cls-4{fill:#c6c5c4;}</style></defs><g data-name="Layer 2" id="Layer_2"><g data-name="Layer 1" id="Layer_1-2"><g data-name="checken leg" id="checken_leg"><path class="cls-1" d="M17.67,29.18h0A11.14,11.14,0,0,1,17.17,14l7.44-8.5a12,12,0,0,1,17.46-.57h0a12,12,0,0,1-.68,17.55L32.8,29.77A11.15,11.15,0,0,1,17.67,29.18Z"/><path class="cls-2" d="M22.84,19.62l7.45-8.49A12,12,0,0,1,44.42,8.2a11.91,11.91,0,0,0-2.35-3.32h0a12,12,0,0,0-17.46.57L17.17,14a11.14,11.14,0,0,0,.5,15.23h0A11.09,11.09,0,0,0,21,31.49,11.16,11.16,0,0,1,22.84,19.62Z"/><path class="cls-3" d="M25.56,33.81C14.93,33.91,9.08,21,16.14,13.05l7.45-8.5A13.18,13.18,0,0,1,33.17,0a13.32,13.32,0,0,1,9.1,23.44L33.69,30.8A12.48,12.48,0,0,1,25.56,33.81ZM33.62,2.73a10.55,10.55,0,0,0-8,3.62l-7.44,8.49a9.79,9.79,0,0,0,13.73,13.9l8.58-7.35C48,15.08,43.38,2.7,33.62,2.73Z"/><path class="cls-3" d="M20,20.65c-2.92-.29-.43-5.29.73-6.48l6.8-7.76a1.36,1.36,0,0,1,2.05,1.8L22.75,16a5.81,5.81,0,0,0-1.42,3.42A1.36,1.36,0,0,1,20,20.65Z"/><path class="cls-4" d="M19.65,31l.17-.16-.54-.34C19.4,30.69,19.52,30.86,19.65,31Z"/><path class="cls-4" d="M5.5,37.21a4.14,4.14,0,0,1,6.14.33l7.28-7.29a9.69,9.69,0,0,1-1.25-1.07h0a11.35,11.35,0,0,1-1.58-2L8.7,34.6a4.14,4.14,0,1,0-4.27,6.6A4.13,4.13,0,0,1,5.5,37.21Z"/><path class="cls-4" d="M8.59,44.28a4.2,4.2,0,0,1-2.33-.61A4.14,4.14,0,0,0,8.72,45.5,4.19,4.19,0,0,1,8.59,44.28Z"/><path class="cls-3" d="M9.78,47A5.53,5.53,0,0,1,4.4,42.59a5.54,5.54,0,0,1-2.81-9.28,5.51,5.51,0,0,1,7.07-.6l6.47-6.47a1.38,1.38,0,0,1,1.12-.39c1.19.21,1.48,1.7,2.38,2.37.7.94,2.35,1.31,2.54,2.47a1.35,1.35,0,0,1-.39,1.13l-6.51,6.51A5.53,5.53,0,0,1,9.78,47ZM5.65,40A1.36,1.36,0,0,1,7,41.39a2.78,2.78,0,1,0,4.74-1.85,1.44,1.44,0,0,1-.32-2.22L17.71,31a12.27,12.27,0,0,1-1.78-1.75L9.66,35.56a1.38,1.38,0,0,1-2-.11,2.78,2.78,0,1,0-2,4.53Z"/></g></g></g></svg>