<?xml version="1.0" ?><svg width="49.37px" height="49.37px" viewBox="-2.57 0 49.37 49.37" xmlns="http://www.w3.org/2000/svg"><defs><style>.cls-1{fill:#ff6368;}.cls-2{fill:#ffe48d;}.cls-3{fill:#e5c97a;}.cls-4{fill:#d34a5b;}.cls-5{fill:#354251;}</style></defs><g data-name="Layer 2" id="Layer_2"><g data-name="Layer 1" id="Layer_1-2"><g id="pizza"><path class="cls-1" d="M37,27.21a3.53,3.53,0,1,1-3.52-6.11L22.11,1.36l-7.51,13c5,3.07.75,10.45-4.44,7.68l-4.62,8c9.43,6.62,23.72,6.62,33.14,0Z"/><path class="cls-2" d="M42.87,37.3l-4.19-7.24c-9.42,6.62-23.71,6.62-33.14,0L1.36,37.3a37.8,37.8,0,0,0,6,3.19v4.77a2.75,2.75,0,0,0,5.5,0V42.31a39.1,39.1,0,0,0,5.66.95,2.3,2.3,0,1,0,4.51.15A38,38,0,0,0,42.87,37.3Z"/><path class="cls-3" d="M7.4,44.19l6-10.41a29.86,29.86,0,0,1-7.86-3.72L1.36,37.3a37.8,37.8,0,0,0,6,3.19Z"/><path class="cls-4" d="M27.12,10l-5-8.67-7.51,13c5,3.07.75,10.45-4.44,7.68l-4.62,8a29.86,29.86,0,0,0,7.86,3.72Z"/><path class="cls-5" d="M22.11,36.43A31.08,31.08,0,0,1,4.79,31.19a1.35,1.35,0,0,1-.42-1.81l4.62-8a1.37,1.37,0,0,1,1.86-.5,3,3,0,0,0,1.53.41,3.09,3.09,0,0,0,1.54-5.74,1.35,1.35,0,0,1-.5-1.85l7.51-13A1.38,1.38,0,0,1,22.11,0a1.36,1.36,0,0,1,1.18.68l11.4,19.74a1.38,1.38,0,0,1-.52,1.88,2.16,2.16,0,0,0,1,4.06A2.14,2.14,0,0,0,36.33,26a1.36,1.36,0,0,1,1.88.49l1.65,2.85a1.36,1.36,0,0,1-.42,1.81A31.11,31.11,0,0,1,22.11,36.43ZM7.37,29.61a28.62,28.62,0,0,0,29.48,0l-.4-.69a4.9,4.9,0,0,1-4.71-8.17L22.11,4.08,16.38,14a5.81,5.81,0,0,1-5.64,9.76Z"/><path class="cls-5" d="M10.15,49.37A4.12,4.12,0,0,1,6,45.26V41.38A39.78,39.78,0,0,1,.62,38.45a1.37,1.37,0,0,1-.44-1.83l4.19-7.24a1.35,1.35,0,0,1,.86-.65,1.39,1.39,0,0,1,1.07.2,28.55,28.55,0,0,0,31.63,0,1.36,1.36,0,0,1,1.93.45L44,36.62a1.37,1.37,0,0,1-.43,1.83,39.52,39.52,0,0,1-19.27,6.27,3.64,3.64,0,0,1-7.09-.23c-1-.12-2-.29-3-.49v1.26A4.12,4.12,0,0,1,10.15,49.37ZM3.2,36.85a37.23,37.23,0,0,0,4.72,2.38,1.36,1.36,0,0,1,.84,1.26v4.77a1.39,1.39,0,1,0,2.78,0V42.31A1.38,1.38,0,0,1,13.23,41a36,36,0,0,0,5.46.93,1.35,1.35,0,0,1,1.23,1.35v.64a.85.85,0,0,0,1,.81c.74,0,.87-.68.81-1.3A1.36,1.36,0,0,1,23,42.05a36.83,36.83,0,0,0,18-5.2L38.21,32A31.36,31.36,0,0,1,6,32Z"/><path class="cls-5" d="M15.77,31.43a2.63,2.63,0,0,1,0-5.25A2.63,2.63,0,0,1,15.77,31.43Zm0-2.72a.1.1,0,0,0,0,.19A.1.1,0,1,0,15.77,28.71Z"/><path class="cls-5" d="M23.93,19.58a2,2,0,0,1,0-4A2,2,0,0,1,23.93,19.58Zm0-2.72a.73.73,0,0,0,0,1.45A.73.73,0,0,0,23.93,16.86Z"/><path class="cls-5" d="M27.53,30.8a2,2,0,0,1,0-4A2,2,0,0,1,27.53,30.8Zm0-2.72a.73.73,0,0,0,0,1.45A.73.73,0,0,0,27.53,28.08Z"/></g></g></g></svg>