<?xml version="1.0" ?><svg width="42.51px" height="42.51px" viewBox="0 -0.9 42.51 42.51" xmlns="http://www.w3.org/2000/svg"><defs><style>.cls-1{fill:#ffe48d;}.cls-2{fill:#e5c97a;}.cls-3{fill:#354251;}</style></defs><g data-name="Layer 2" id="Layer_2"><g data-name="Layer 1" id="Layer_1-2"><g id="toost"><path class="cls-1" d="M30.91,7.08H3.21A1.85,1.85,0,0,0,1.36,8.93v4a1.85,1.85,0,0,0,1.85,1.85H4.83V37.5a1.85,1.85,0,0,0,1.85,1.84H27.44a1.85,1.85,0,0,0,1.85-1.84V14.78h1.62a1.85,1.85,0,0,0,1.85-1.85v-4A1.85,1.85,0,0,0,30.91,7.08Z"/><path class="cls-2" d="M13.22,37.5V14.78H11.6a1.85,1.85,0,0,1-1.85-1.85v-4A1.85,1.85,0,0,1,11.6,7.08H3.21A1.85,1.85,0,0,0,1.36,8.93v4a1.85,1.85,0,0,0,1.85,1.85H4.83V37.5a1.85,1.85,0,0,0,1.85,1.84h8.39A1.85,1.85,0,0,1,13.22,37.5Z"/><path class="cls-3" d="M27.44,40.71H6.68A3.21,3.21,0,0,1,3.47,37.5V16.14A3.23,3.23,0,0,1,0,12.93v-4A3.21,3.21,0,0,1,3.21,5.72h27.7a3.21,3.21,0,0,1,3.21,3.21v4a3.23,3.23,0,0,1-3.47,3.21V37.5A3.21,3.21,0,0,1,27.44,40.71ZM3.21,8.44a.5.5,0,0,0-.49.49v4a.5.5,0,0,0,.49.49H4.83a1.36,1.36,0,0,1,1.36,1.36V37.5a.49.49,0,0,0,.49.48H27.44a.49.49,0,0,0,.49-.48V14.78a1.36,1.36,0,0,1,1.36-1.36h1.62a.49.49,0,0,0,.49-.49v-4a.49.49,0,0,0-.49-.49Z"/><path class="cls-2" d="M39.3,1.36H11.6A1.85,1.85,0,0,0,9.75,3.21V7.08H30.91a1.85,1.85,0,0,1,1.85,1.85v4a1.85,1.85,0,0,1-1.85,1.85H29.29V33.63h6.54a1.85,1.85,0,0,0,1.85-1.85V9.06H39.3a1.85,1.85,0,0,0,1.85-1.85v-4A1.85,1.85,0,0,0,39.3,1.36Z"/><path class="cls-3" d="M35.83,35H29.29a1.36,1.36,0,0,1-1.36-1.36V14.78a1.36,1.36,0,0,1,1.36-1.36h1.62a.49.49,0,0,0,.49-.49v-4a.49.49,0,0,0-.49-.49H9.75A1.36,1.36,0,0,1,8.39,7.08V3.21A3.21,3.21,0,0,1,11.6,0H39.3a3.21,3.21,0,0,1,3.21,3.21v4A3.23,3.23,0,0,1,39,10.42V31.78A3.21,3.21,0,0,1,35.83,35Zm-5.18-2.72h5.18a.5.5,0,0,0,.49-.49V9.06A1.36,1.36,0,0,1,37.68,7.7H39.3a.49.49,0,0,0,.49-.49v-4a.5.5,0,0,0-.49-.49H11.6a.5.5,0,0,0-.49.49V5.72h19.8a3.21,3.21,0,0,1,3.21,3.21v4a3.23,3.23,0,0,1-3.47,3.21Z"/><path class="cls-3" d="M10.11,21.32a1.55,1.55,0,0,1,0-3.1A1.55,1.55,0,0,1,10.11,21.32Zm0-2.72a1.17,1.17,0,0,0,0,2.34A1.17,1.17,0,0,0,10.11,18.6Z"/><path class="cls-3" d="M17.06,17.33a1.55,1.55,0,0,1,0-3.1A1.55,1.55,0,0,1,17.06,17.33Zm0-2.72a1.17,1.17,0,0,0,0,2.34A1.17,1.17,0,0,0,17.06,14.61Z"/><path class="cls-3" d="M13.08,32.17a1.55,1.55,0,0,1,0-3.1A1.55,1.55,0,0,1,13.08,32.17Zm0-2.73a1.18,1.18,0,0,0,0,2.35A1.18,1.18,0,0,0,13.08,29.44Z"/><path class="cls-3" d="M16.87,25.39a1.55,1.55,0,0,1,0-3.1A1.55,1.55,0,0,1,16.87,25.39Zm0-2.73a1.18,1.18,0,0,0,0,2.35A1.18,1.18,0,0,0,16.87,22.66Z"/><path class="cls-3" d="M24.45,32.54a1.55,1.55,0,0,1,0-3.1A1.55,1.55,0,0,1,24.45,32.54Zm0-2.72a1.18,1.18,0,0,0,0,2.35A1.18,1.18,0,0,0,24.45,29.82Z"/><path class="cls-3" d="M23,22.09A1.55,1.55,0,0,1,23,19,1.55,1.55,0,0,1,23,22.09Zm0-2.72a1.17,1.17,0,0,0,0,2.34A1.17,1.17,0,0,0,23,19.37Z"/><path class="cls-3" d="M19.59,36.94a1.55,1.55,0,0,1,0-3.09A1.55,1.55,0,0,1,19.59,36.94Zm0-2.72a1.18,1.18,0,0,0,0,2.35A1.18,1.18,0,0,0,19.59,34.22Z"/></g></g></g></svg>