<svg id="publicdomainvectors.org" xmlns="http://www.w3.org/2000/svg" viewBox="0 0 500 414.73"><defs><style>.cls-1{fill:#364a3a;}.cls-1,.cls-10,.cls-2,.cls-3,.cls-4,.cls-5,.cls-6,.cls-7,.cls-8,.cls-9{fill-rule:evenodd;}.cls-2{fill:#59785f;}.cls-3{fill:#6e8c74;}.cls-4{fill:#8ca891;}.cls-5{fill:#bad9c0;}.cls-6{fill:#9eb8a3;}.cls-7{fill:#abc4b0;}.cls-8{fill:#58785e;}.cls-9{fill:#7e9e85;}.cls-10{fill:#2d3d30;}.cls-11{fill:#fff;}</style></defs><title>turtle8</title><path class="cls-1" d="M294.47,264.93h0a34.47,34.47,0,0,1,34.36,34.37v71.61a15.29,15.29,0,0,1-15.25,15.25H262.3a15.3,15.3,0,0,1-15.25-15.25V335.43c10.25,0,16.54-4.95,26.07-15.43a40.58,40.58,0,0,0,9.07-25.34,108.64,108.64,0,0,1,3.68-28.06L286,266A34,34,0,0,1,294.47,264.93Z"/><path class="cls-1" d="M128.34,264.93h0a34.48,34.48,0,0,1,34.37,34.37v71.61a15.3,15.3,0,0,1-15.26,15.25H96.17a15.3,15.3,0,0,1-15.25-15.25V335.43c10.25,0,16.54-4.95,26.07-15.43a40.58,40.58,0,0,0,9.07-25.34,108.64,108.64,0,0,1,3.68-28.06l.17-.61A34,34,0,0,1,128.34,264.93Z"/><path class="cls-2" d="M249.35,133.17c107.44,0,194.54,87.1,194.54,194.55H54.8C54.8,220.27,141.9,133.17,249.35,133.17Z"/><path class="cls-3" d="M249.35,133.17a193.66,193.66,0,0,1,94,24.21H343c-136.22,0-249.73,73.24-275.1,170.34H54.8C54.8,220.27,141.9,133.17,249.35,133.17Z"/><path class="cls-4" d="M125.14,290.18,152,243.72l35-9.39,5.22,19.5h2.14v7.95l-10.17,38h-64.6v-8l5.55-1.66Zm317.27,13.46v-8L441,294.36a193.72,193.72,0,0,0-9.61-35.28L416,255.25v8l9.63,35.94,16.75,4.49ZM418.76,232H423v8l-14.25,3.82-20.46-35.44v-8l6-2.42a195.69,195.69,0,0,1,24.45,34Zm-35.92-53.77h-8v.84q-6.17-5.22-12.78-9.93l-13.4-4.37v8l26.57,26.57,7.57-13.11v-8Zm-36.25-19.06v-8l-17.3-.92a191.76,191.76,0,0,0-31.19-11L285.81,152v8l7.66,13.47,53.12-14.23Zm-205.89,80v-8l-4.39.36L121.4,205.77l-19.32-5.18A193.75,193.75,0,0,0,58.2,291.4l-1.4.44v8h48.91l35-60.6ZM280.48,135.66v-8l-27.63,5.5h0c-1.16,0-2.33,0-3.5,0a195.3,195.3,0,0,0-32.57,2.72H185v8.2l37.61,10.07H269.8l10.68-18.5ZM123.59,179.29v-8l6.29,2.84a194.75,194.75,0,0,1,28.48-18.44l55.19,14.78v41.26l-61.67,16.52-28.29-49ZM224.9,200.35V164.22l43.74,5.24v8Z"/><polygon class="cls-1" points="188.98 327.72 206.53 299.93 213.06 252.58 249.35 207.28 314.29 189.31 373.88 217.89 397.97 277.89 412.66 319.52 403.27 327.72 188.98 327.72"/><path class="cls-5" d="M54.8,335.43a7.72,7.72,0,0,1,0-15.43h121a24.86,24.86,0,0,0,17.57-7.54,25.39,25.39,0,0,0,7.51-17.8,123.9,123.9,0,0,1,16.61-61.91,100.94,100.94,0,0,1,188.34,50.48A36.7,36.7,0,0,0,442.57,320v0h1.32a7.72,7.72,0,1,1,0,15.43ZM207.19,320H405.56a52,52,0,0,1-15.2-36.77,85.51,85.51,0,0,0-159.59-42.76,108.21,108.21,0,0,0-14.5,54.19A40.53,40.53,0,0,1,207.19,320Z"/><path class="cls-6" d="M119.59,291.84,152,235.76l35-9.39,7.36,27.46-10.17,38ZM249.35,125.21a196.06,196.06,0,0,1,31.13,2.49L269.8,146.2H222.57L185,136.13a194.17,194.17,0,0,1,64.39-10.92Zm48.75,6.16a193,193,0,0,1,48.49,19.86l-53.12,14.23L285.81,152l12.29-20.62Zm64,29.83a194.92,194.92,0,0,1,20.74,17.05l-7.57,13.11L348.7,164.79l13.4-3.59ZM394.31,190A195.2,195.2,0,0,1,423,232l-14.25,3.82L388.32,200.4l6-10.38Zm37.12,61.1a193.35,193.35,0,0,1,11,44.56l-16.75-4.49L416,255.25l15.4-4.13ZM56.8,291.84h48.91l35-60.6-19.3-33.43-19.32-5.18A193.84,193.84,0,0,0,56.8,291.84Zm66.79-120.51a194.84,194.84,0,0,1,34.77-23.56l55.19,14.78v41.26l-61.67,16.52-28.29-49ZM224.9,192.39V156.26H261l7.62,13.2Z"/><path class="cls-7" d="M345.46,150.57q-5.1-.13-10.24-.13a370.68,370.68,0,0,0-48.5,3.16l-.91-1.61,12.29-20.62a193.76,193.76,0,0,1,47.36,19.2Zm-83.58,7.19a343.5,343.5,0,0,0-37,9.68V156.26H261l.86,1.5Zm-48.33,13.56a297.73,297.73,0,0,0-69.32,35.76l-20.64-35.75a194.84,194.84,0,0,1,34.77-23.56l55.19,14.78v8.77ZM132,216.18l-10.6-18.37-19.32-5.18A193.84,193.84,0,0,0,56.8,291.84H70.57C83.84,263.34,105,237.62,132,216.18Zm117.35-91a196.06,196.06,0,0,1,31.13,2.49L269.8,146.2H222.57L185,136.13A194.17,194.17,0,0,1,249.35,125.21Z"/><path class="cls-3" d="M272.09,204.2v26.24a50.3,50.3,0,1,0,100.6,0V93.09H305.06v104.6C293.82,197.64,282.86,200.08,272.09,204.2Z"/><path class="cls-8" d="M372.69,130.39V93.09H305.06v48.55a50.64,50.64,0,0,1,39.87-19.76A49.55,49.55,0,0,1,372.69,130.39Z"/><path class="cls-9" d="M315.56,280.28a51.43,51.43,0,0,0,6.83.46,50.3,50.3,0,0,0,50.3-50.3v-65.1a28.65,28.65,0,0,0-28.56-28.57h0a28.66,28.66,0,0,0-28.57,28.57Z"/><path class="cls-3" d="M293.26,60.73h91.23V88.4a27.75,27.75,0,0,1-27.67,27.67H320.93A27.75,27.75,0,0,1,293.26,88.4Z"/><path class="cls-9" d="M288.57,84.87,310.06,78,338.88,88.4,367.7,78l21.48,6.83V54.36a30.6,30.6,0,0,0-30.51-30.51H319.08a30.6,30.6,0,0,0-30.51,30.51Z"/><path class="cls-10" d="M318.65,39.17h0A7.37,7.37,0,0,1,326,46.52v6.86a7.37,7.37,0,0,1-7.34,7.35h0a7.37,7.37,0,0,1-7.35-7.35V46.52A7.37,7.37,0,0,1,318.65,39.17Z"/><rect class="cls-11" x="318.65" y="43.81" width="4.9" height="7.19" rx="2.45" ry="2.45"/><path class="cls-10" d="M359.11,39.17h0a7.37,7.37,0,0,1,7.34,7.35v6.86a7.37,7.37,0,0,1-7.34,7.35h0a7.37,7.37,0,0,1-7.35-7.35V46.52A7.37,7.37,0,0,1,359.11,39.17Z"/><rect class="cls-11" x="359.11" y="43.81" width="4.9" height="7.19" rx="2.45" ry="2.45"/><path class="cls-10" d="M335.4,66.82c1.15.53,1.39,2.46.53,4.3s-2.48,2.89-3.63,2.36-1.39-2.46-.53-4.3,2.48-2.9,3.63-2.36Zm7,0c-1.15.53-1.39,2.46-.53,4.3s2.48,2.89,3.63,2.36,1.39-2.46.53-4.3S343.5,66.28,342.35,66.82Z"/><path class="cls-3" d="M228.55,264.93h0a34.47,34.47,0,0,1,34.36,34.37v71.61a15.29,15.29,0,0,1-15.25,15.25H196.38a15.29,15.29,0,0,1-15.25-15.25V335.43c10.25,0,16.54-4.95,26.06-15.43a40.53,40.53,0,0,0,9.08-25.34A108.64,108.64,0,0,1,220,266.6l.17-.61A34,34,0,0,1,228.55,264.93Z"/><path class="cls-3" d="M383.86,264.93h0A34.47,34.47,0,0,0,349.5,299.3v71.61a15.3,15.3,0,0,0,15.25,15.25H416a15.3,15.3,0,0,0,15.25-15.25V335.43a23.75,23.75,0,0,1-13.2-3.72,40.32,40.32,0,0,1-10.43-9.07c-.79-.84-1.6-1.72-2.44-2.64-.47-.59-.93-1.19-1.38-1.81a52,52,0,0,1-13.48-35,85.61,85.61,0,0,0-1.9-18A34.84,34.84,0,0,0,383.86,264.93Z"/></svg>