<svg id="_ÎÓÈ_1" data-name="—ÎÓÈ_1" xmlns="http://www.w3.org/2000/svg" viewBox="0 0 450 386.22"><title>SpeechBubble</title><path d="M349.55,20.56l-206.8-.35-25.85,0-12.92,0h-2l-.8,0L98,20.33c-2.09.15-4.45.12-6.31.41a91.36,91.36,0,0,0-22.23,5.72c-7.13,3.13-14.18,6.73-20.24,11.72a82.71,82.71,0,0,0-16.41,16.7c-2.51,3-4.35,6.51-6.45,9.81-.93,1.72-1.72,3.52-2.6,5.27a33.21,33.21,0,0,0-2.3,5.39C18.38,82.58,17,90.36,16,98.11c-.57,7.47-.39,16.52-.45,25l-.08,51.7,0,25.85v4.44c0-.78,0-.1,0-.22v.2l.08,1.62.31,6.45c.09,2.19.56,3.78.79,5.7a40.21,40.21,0,0,0,1.05,5.59c1.61,7.7,4.75,15,8.28,22a94.84,94.84,0,0,0,14,18.91c11,11.16,25,19.66,40.27,23.5a83.9,83.9,0,0,0,11.57,2.27c4,.39,7.68.6,12,.68l25.84.12,51.7.23,103.4.48,5.19,0,1.69,5.11h0l2.49,7.51,3,7.27,3.51,7c1.36,2.2,2.64,4.47,4.06,6.64s2.95,4.26,4.6,6.24,3.24,4,5.12,5.8a76.46,76.46,0,0,0,5.62,5.33,69,69,0,0,0,6.07,4.82,67.52,67.52,0,0,0,6.49,4.3,65.85,65.85,0,0,0,6.84,3.79,67,67,0,0,0,7.15,3.28,70.62,70.62,0,0,0,7.39,2.8c2.51.86,5,1.73,7.6,2.36s5.11,1.46,7.76,1.93,5.22,1.16,7.88,1.55l8,1.2-6.7,11.31-6-9c-2-3-3.66-6.28-5.51-9.4a102.32,102.32,0,0,1-4.86-9.85,52,52,0,0,1-2.17-5.08L358,342.33a44.25,44.25,0,0,1-1.68-5.31l-1.3-5.48A36.47,36.47,0,0,1,354,326l-.66-5.63c-.58-3.74-.15-7.59-.25-11.38a43.74,43.74,0,0,1,.58-5.68l.76-5.67h0l.66-4.85,5.47-.88A92.43,92.43,0,0,0,382,286.29a86.24,86.24,0,0,0,19.31-10.82A88.59,88.59,0,0,0,429,241.41c3.27-6.66,5.17-13.87,6.64-21.09,1.29-7.39,1.41-14.42,1.36-22.69.08-16-.18-32-.33-48l-.24-24-.13-12-.07-6V106c0,.78,0,.16,0,.31v-.19l0-.37-.05-.75-.18-3c-.15-2-.17-4.1-.44-5.89l-.89-5.15c-.4-3.4-1.78-7-2.59-10.52-2.54-6.82-5.26-13.66-9.39-19.7-1.77-3.2-4.23-5.93-6.36-8.88a104.37,104.37,0,0,0-7.52-7.93A89,89,0,0,0,391.2,31.09,84.76,84.76,0,0,0,371,23.23C364,21.25,356.76,20.79,349.55,20.56Zm0-18.45c8.77.39,17.57,1.21,26,3.74a102,102,0,0,1,24.19,10,95.2,95.2,0,0,1,20.63,15.92A116.73,116.73,0,0,1,429,41.52c2.46,3.57,5.18,6.94,7.18,10.79,4.58,7.34,7.58,15.5,10.18,23.65.86,4.25,2.17,8.22,2.59,12.67l.8,6.56c.2,2.13.12,4,.2,6.07l.06,3,0,1.8-.05,1.5-.18,6-.3,12-.38,24c-.22,16-.62,32-.44,48,.07,7.82,0,16.5-1.48,24.72-1.62,8.21-3.8,16.4-7.47,24a50.94,50.94,0,0,1-2.77,5.65c-1,1.84-1.92,3.74-3,5.54a105.09,105.09,0,0,1-7.2,10.35,95.84,95.84,0,0,1-17.95,17.76A107.76,107.76,0,0,1,387,298.72a105.92,105.92,0,0,1-24.6,7.42l6.13-5.72h0l-.6,4.66a31.59,31.59,0,0,0-.48,4.66c.13,3.14-.31,6.27.21,9.41l.56,4.71a27,27,0,0,0,.89,4.68l1.1,4.66a34.58,34.58,0,0,0,1.46,4.6l1.59,4.58a43.82,43.82,0,0,0,1.93,4.48,88.86,88.86,0,0,0,4.35,8.81c1.69,2.84,3.12,5.81,5,8.56l5.57,8.29,9.18,13.7-15.89-2.39-8.6-1.3c-2.87-.43-5.71-1.13-8.56-1.68s-5.68-1.39-8.51-2.12-5.63-1.66-8.42-2.61A83.55,83.55,0,0,1,341,373a118.51,118.51,0,0,1-15.9-8,78.62,78.62,0,0,1-7.47-5,82.18,82.18,0,0,1-7.06-5.6,89,89,0,0,1-6.54-6.2c-2.18-2.08-4-4.52-6-6.77s-3.56-4.83-5.34-7.25-3.12-5.11-4.68-7.67l-4-8-3.38-8.24-2.79-8.41h0l6.87,5.13L233,306.19l-51.71-.28-51.7-.19-25.84-.09c-4.32-.07-9.08-.31-13.56-.76a97.54,97.54,0,0,1-13.46-2.61,96.52,96.52,0,0,1-25.23-10.43c-8.06-4.34-15.09-10.31-21.66-16.62A109,109,0,0,1,13.4,253.35c-4.23-8.1-7.92-16.59-9.9-25.59a52.16,52.16,0,0,1-1.36-6.89c-.31-2.29-.86-4.79-1-6.92L.81,207.5l-.09-1.62,0-1.13v-.81l0-3.23L.47,174.86l-.38-51.7c0-8.68-.34-17,.29-26.49,1-9.18,2.67-18.42,6.18-27A45.14,45.14,0,0,1,9.23,63.2c1-2.08,2-4.21,3-6.26,2.41-4,4.62-8.08,7.53-11.71a99.47,99.47,0,0,1,19.31-20c7.18-6,15.51-10.37,24-14.13A106.09,106.09,0,0,1,90.55,4c2.37-.33,4.36-.3,6.56-.47l3.23-.18.81,0,1.21,0H104l12.92-.06,25.85-.13Z"/></svg>