<svg id="_ÎÓÈ_1" data-name="—ÎÓÈ_1" xmlns="http://www.w3.org/2000/svg" viewBox="0 0 450 415.38"><title>SpeechBubble</title><path d="M437 170.37l-.54-10.14c-.53-3-.9-6-1.48-9-.85-3-1.47-6.16-2.48-9.15-1.17-2.93-2-6-3.43-8.84s-2.54-5.8-4.34-8.43a71.57 71.57.0 00-5.19-7.93 63 63 0 00-6-7.35L410.38 106l-3.52-3.18a66.06 66.06.0 00-7.37-6 74.55 74.55.0 00-7.95-5.16c-2.63-1.78-5.64-2.84-8.44-4.31s-5.91-2.23-8.84-3.4c-3-1-6.1-1.63-9.15-2.49L355.75 80l-9.16-.5-10.16.5-4.17.21-2-3.9h0a129.76 129.76.0 00-8.78-13.79c-1.65-2.16-3.24-4.35-5.1-6.34a69 69 0 00-5.57-5.9A102.45 102.45.0 00298.59 39.7c-2.18-1.58-4.46-3-6.69-4.51-2.36-1.29-4.62-2.74-7-3.91A110 110 0 00270.05 25l-3.8-1.26-3.89-1a72.83 72.83.0 00-7.85-1.61 102.61 102.61.0 00-15.95-1.47h-1 .14-.27-.54l-2.18.1-4.36.2a68.19 68.19.0 00-7.93.87c-1.27.18-2.53.29-3.81.52l-3.91.88A58.93 58.93.0 00207 24.34a109 109 0 00-15 5.88c-2.35 1.28-4.77 2.45-7.1 3.79l-6.78 4.35-6.41 4.91c-2.11 1.67-4 3.58-6.05 5.36A99.13 99.13.0 00154.9 60.72a61.29 61.29.0 00-4.66 6.67L148 70.82l-1.92 3.59a62.47 62.47.0 00-3.68 7.31 71.55 71.55.0 00-3.09 7.6c-.82 2.61-1.83 5.18-2.51 7.85l-2 8-1.46 5.9-5.34-1.44h0l-9.1-1.39-8.83-.16a64.32 64.32.0 00-9.46 1.08A70.31 70.31.0 0092 111.34c-2.76 1.17-5.65 2-8.27 3.49A75.64 75.64.0 0076 119.31a68.15 68.15.0 00-7 5.61 74.08 74.08.0 00-6.22 6.43 64.24 64.24.0 00-5.15 7.32 71.13 71.13.0 00-4.19 7.91 63.92 63.92.0 00-2.91 8.49 74.74 74.74.0 00-1.89 8.82l-.36 4.52-.1 1.14v.28V170c0-.16.0.43.0-.36v.71l.09 2.5.16 5 .64 4.32A50.73 50.73.0 0050.94 191c.75 3 2.15 5.75 3.14 8.71l1.31 3.95L53 205.74h0a53.84 53.84.0 00-4.86 5.5 23.09 23.09.0 00-2.09 3 26.78 26.78.0 00-1.85 3.15c-.52 1.1-1.11 2.17-1.59 3.28l-1.27 3.41a42 42 0 00-1.66 7.07 51.42 51.42.0 00-.56 7.23l.25 3.79a26.31 26.31.0 00.52 3.53 19.73 19.73.0 00.77 3.41 25.8 25.8.0 001.06 3.44 40.2 40.2.0 007 12.49 25.21 25.21.0 002.36 2.7 21.68 21.68.0 002.57 2.5 42.68 42.68.0 005.69 4.33l3.07 1.81 3.24 1.5a42.24 42.24.0 006.76 2.17 40.43 40.43.0 007 1.08l3.55.13 3.64-.31 2-.17 1.62-.37 3.19-.67 5.09-1.08 2.64 4.64v0a88.44 88.44.0 005.23 9 74.7 74.7.0 006.41 8.25 41.61 41.61.0 003.59 3.81 50.15 50.15.0 003.83 3.6 98.34 98.34.0 008.28 6.51 102.55 102.55.0 009.06 5.45 85.54 85.54.0 009.63 4.44c3.27 1.38 6.68 2.37 10.06 3.43 3.46.83 6.89 1.74 10.42 2.24a99.12 99.12.0 0010.6 1.23l5.35.2c.1.0.71.0.4.0h.7l1.42-.06 2.83-.11c1.84-.11 3.86-.06 5.57-.3l5.14-.66c3.41-.26 6.93-1.38 10.4-2 3.42-1 6.85-2 10.18-3.18a94.16 94.16.0 009.75-4.29c1.57-.83 3.18-1.6 4.73-2.46l4.5-2.85c3.09-1.77 5.69-4.2 8.58-6.26v0l4.6-3.65 4.08 4.84c2.87 3.41 5.3 7.17 8.66 10.11a76.2 76.2.0 0010.09 8.64c1.74 1.36 3.76 2.32 5.6 3.54a34.4 34.4.0 005.82 3.15l6 2.73 6.31 2a35.33 35.33.0 006.43 1.5c2.17.32 4.31.93 6.51 1.05l6.59.39 1.65.11h.41.11l.89-.05 3.59-.19 3.58-.19 3.12-.51a46.75 46.75.0 006.28-1.19 84.32 84.32.0 0012.52-4.07l5.93-2.88c1.93-1.05 3.76-2.28 5.65-3.39a76 76 0 0010.4-8.08 44.66 44.66.0 004.66-4.67 42.62 42.62.0 004.24-5.05 75.6 75.6.0 007.14-11.09c.94-2 2-3.92 2.89-5.95l2.35-6.18a84.9 84.9.0 003-12.9 52.33 52.33.0 00.69-6.61l.25-3.32v-.21c0-.09.0.58.0.27v-.17-.44-.9l-.05-1.8a63.78 63.78.0 00-.4-7l-.88-6.37h0l-.6-3.49 2.9-2.39 8.47-6.94c2.51-2.65 5.09-5.22 7.56-7.89l3.33-4.32c1.09-1.46 2.29-2.83 3.29-4.35l2.8-4.67c.9-1.58 2-3.07 2.74-4.71l2.22-5c.71-1.67 1.59-3.27 2.15-5l1.61-5.2c.49-1.74 1.17-3.43 1.53-5.2l1-5.36c.29-1.78.71-3.55.91-5.35L437 170zm13-.33-.84 12.38c-.26 2-.74 4.06-1.11 6.1l-1.19 6.08c-.44 2-1.21 4-1.81 5.93l-1.92 5.89c-.68 2-1.68 3.77-2.51 5.66L438 217.69c-.92 1.85-2.11 3.54-3.16 5.31l-3.27 5.26c-1.16 1.7-2.52 3.25-3.78 4.89L423.94 238c-2.87 3-5.86 5.79-8.79 8.67l-9.74 7.56 2.31-5.88h0l1.4 7.8a73.13 73.13.0 01.71 7.32l.14 1.79.06.89v.45.56.23l-.11 3.85a52 52 0 01-.53 7.69 98 98 0 01-3.1 15.14l-2.58 7.31c-.95 2.39-2.14 4.69-3.21 7.05a86.9 86.9.0 01-8.25 13.1 53.26 53.26.0 01-4.93 6 54.65 54.65.0 01-5.43 5.54 89.56 89.56.0 01-12.16 9.62c-2.22 1.33-4.4 2.74-6.67 4l-7 3.36a97.43 97.43.0 01-14.78 4.74 60.58 60.58.0 01-7.83 1.44l-4 .56-3.59.18-3.58.17h-.9-.8-.48l-1.93-.12-7.74-.52c-2.58-.21-5.09-.91-7.64-1.36a44 44 0 01-7.5-1.88L288 350.77l-7-3.29a43.75 43.75.0 01-6.74-3.79 73.11 73.11.0 01-6.41-4.3A88.25 88.25.0 01256.44 329c-3.74-3.55-6.5-7.94-9.62-12l8.67 1.18c-3.21 2.38-6.18 5.14-9.62 7.19l-5 3.25c-1.74 1-3.53 1.89-5.29 2.83a106.05 106.05.0 01-10.92 4.94c-3.74 1.41-7.57 2.57-11.4 3.68-3.94.79-7.67 2-11.8 2.4l-6.1.81c-2 .27-3.81.23-5.73.36l-2.83.14-1.41.07h-.71-1l-6-.17a111.07 111.07.0 01-11.91-1.26c-4-.53-7.85-1.5-11.74-2.41-3.84-1.14-7.69-2.24-11.41-3.75a98.22 98.22.0 01-11-4.94 115.56 115.56.0 01-10.4-6.12 112 112 0 01-9.59-7.38c-1.59-1.26-3-2.71-4.47-4.12a49.8 49.8.0 01-4.21-4.38 88.52 88.52.0 01-7.57-9.56 100.28 100.28.0 01-6.27-10.52v0l7.73 3.56-4.84.87-2.4.39-2 .11-4.51.23-4.62-.28a53.63 53.63.0 01-9.09-1.64 55.49 55.49.0 01-8.7-3.08l-4.13-2.05L52.54 285a56.67 56.67.0 01-7.15-5.76 31 31 0 01-3.2-3.28 36.56 36.56.0 01-2.93-3.53 62 62 0 01-4.94-7.69 60.31 60.31.0 01-3.53-8.43 35 35 0 01-1.23-4.4 30.56 30.56.0 01-.89-4.57 39.45 39.45.0 01-.51-4.59L28 238.38a60.62 60.62.0 01.93-9 53.17 53.17.0 012.31-8.77l1.7-4.2c.64-1.36 1.39-2.68 2.09-4a33.52 33.52.0 012.38-3.83 30.82 30.82.0 012.67-3.63 61.69 61.69.0 016.15-6.57h0l-1 6.06c-1.6-3.2-3.58-6.28-4.76-9.69a63.11 63.11.0 01-3.31-10.53c-.41-1.83-.85-3.75-1.13-5.54l-.46-5-.23-2.5-.06-.62v-1.08-1.37l.13-5.48c.48-3.63.68-7.33 1.69-10.88a76.65 76.65.0 013.25-10.56 69.65 69.65.0 014.92-9.9 81.14 81.14.0 016.26-9.14 73.12 73.12.0 017.65-8 83.21 83.21.0 018.68-6.88 77.51 77.51.0 019.7-5.33A72.56 72.56.0 0187.9 98a80.65 80.65.0 0111-2.12 77.68 77.68.0 0110.48-.62c4.23.26 7.44.79 11.16 1.2 3.55.8 7 1.83 10.49 2.83h0l-6.88 4.42 1.26-9.1c.49-3 1.38-6 2.07-9a89.77 89.77.0 012.79-8.8 74 74 0 013.49-8.57L135.69 64 138 60a72.06 72.06.0 014.92-7.88A114.49 114.49.0 01154.59 37.6c2.22-2.17 4.34-4.48 6.67-6.54l7.23-6 7.73-5.31c2.66-1.64 5.43-3.12 8.15-4.67a109.65 109.65.0 0117.34-7.24 72.46 72.46.0 019.06-2.55l4.58-1.09c1.57-.3 3.21-.5 4.81-.75a77.87 77.87.0 019.38-1l4.36-.2 2.17-.1h1.51 1.18a118.82 118.82.0 0118.73 1.73 89.65 89.65.0 019.19 2l4.55 1.23 4.45 1.54a104.91 104.91.0 0117.13 7.7c2.76 1.49 5.35 3.26 8 4.89 2.54 1.82 5.1 3.6 7.56 5.53A119.36 119.36.0 01322 39.57a85.11 85.11.0 015.92 7.2c1.95 2.42 3.62 5 5.32 7.62s3.13 5.35 4.7 8 2.63 5.59 3.94 8.37h0l-6.16-3.68 10.15-.58h.67.34.68l1.35.06 2.71.13 5.42.26c3.57.55 7.17 1 10.73 1.66 3.5.92 7.05 1.67 10.5 2.77 3.38 1.3 6.87 2.34 10.14 3.91s6.64 2.94 9.66 5a85.3 85.3.0 019.09 5.92A79.09 79.09.0 01415.62 93l4 3.66 3.66 4a75.75 75.75.0 016.84 8.42 83.78 83.78.0 015.92 9.09c2 3 3.3 6.43 4.95 9.65s2.6 6.76 3.91 10.13c1.15 3.43 1.88 7 2.83 10.48.7 3.62 1.16 7.37 1.72 11.05l.53 10.18z"/><path d="M97 339.15s0 .76-.08 2.18a30.24 30.24.0 01-1.43 7.26 32.12 32.12.0 01-5.52 9.7 36.7 36.7.0 01-11 8.93A43.44 43.44.0 0163 372.05c-1.55.06-2.8.19-4.64.16a40.4 40.4.0 01-4.26-.25 42.08 42.08.0 01-9.45-2A38.78 38.78.0 0128 358.79a29.54 29.54.0 01-7.44-20.2 31.31 31.31.0 012.28-10.29 30.46 30.46.0 015.72-8.82 38 38 0 0116.56-10.35 43.87 43.87.0 0133.16 2.63 37.61 37.61.0 0111 8.31 31.49 31.49.0 015.79 9.27 28.65 28.65.0 011.7 7l.2 2.56zm-8.48-.26s0-.62-.06-1.79a20.53 20.53.0 00-1-5 23.34 23.34.0 00-4-7.05 26.51 26.51.0 00-8.53-6.76 32.86 32.86.0 00-12.53-3.46 36.88 36.88.0 00-14.69 1.95 28.94 28.94.0 00-12.44 8.57 21.28 21.28.0 00-3.75 6.4 20.55 20.55.0 00-1.21 7.42 21.1 21.1.0 005.52 12.73 28.38 28.38.0 0012.31 7.78A36.28 36.28.0 0055 361.24a34.63 34.63.0 003.83.27c.83.0 2.21-.07 3.27-.1a34 34 0 0012.2-3.15 24.83 24.83.0 0012.74-12.74 19.36 19.36.0 001.23-4.72c.13-1.41.19-2.17.19-2.17z"/><path d="M40.42 398s0 .34-.07 1a10.19 10.19.0 01-.64 3.47 15.39 15.39.0 01-3 5.38A19.85 19.85.0 0131 412.53a21.26 21.26.0 01-8.12 2.6l-1.13.15-.58.06h-.29-.66l-1.87-.08a22.45 22.45.0 01-5-.88 20.44 20.44.0 01-9.12-5.72A16.51 16.51.0 010 397.53l.05-.67v0-.07-.13l.05-.25.09-.52.19-1a6.49 6.49.0 01.39-1.39l.64-1.67A10 10 0 013 389a12.57 12.57.0 011.83-2.17 20.13 20.13.0 018.93-5 24.82 24.82.0 019-.58c.62.09 1.13.11 1.82.26l2.15.57a17.83 17.83.0 013.72 1.51 21.44 21.44.0 015.59 4.16 15.35 15.35.0 013.14 4.71 11.25 11.25.0 011 3.66l.2 1.36zM33 397.53l-.06-.64a4.46 4.46.0 00-.29-1.82 8.33 8.33.0 00-5.08-5.25 10.59 10.59.0 00-2.41-.74l-1.19-.26c-.46-.07-1.14-.06-1.72-.09a14.1 14.1.0 00-5.9 1 11.65 11.65.0 00-4.66 3.43 4 4 0 00-.7 1.09 1.72 1.72.0 00-.39.91.81.81.0 01-.12.29c-.06.0-.14.17-.14.62l-.08 1v.53.26.23c0-.27.0.66.0-.6a7.22 7.22.0 002 3.87c1 1.26 2.9 2 4.47 2.7.85.1 1.06.56 2.6.62l1.86.23h.11.09-.4 1.18a13.43 13.43.0 004.88-.83 10.8 10.8.0 003.5-2 8.77 8.77.0 001.65-2.05c.38-.19.57-1.38.67-2s.19-1 .19-1z"/></svg>