<svg id="_ÎÓÈ_1" data-name="—ÎÓÈ_1" xmlns="http://www.w3.org/2000/svg" viewBox="0 0 450 450"><title>SpeechBubble</title><path d="M450 165.31s-.27 4.63-.79 13.3a39.1 39.1.0 01-1.08 7.56c-.56 2.85-1.19 6-1.86 9.32-.49 3.47-2 6.66-3.13 10.32-.63 1.8-1.27 3.67-1.94 5.58l-1 2.92c-.46.93-.92 1.88-1.38 2.84-6.67 15.8-18.74 33.11-35.74 49.39s-39.4 31.13-65.83 42.42-57 19-89.69 21.34l-12.37.49-6.25.25-3.14.12-3.4-.11-12.31-.49a117.68 117.68.0 01-12.68-.89c-8.67-1-17.55-1.74-26.1-3.63l-13-2.5-12.94-3.46c-8.75-2-17.13-5.58-25.77-8.45-4.25-1.67-8.4-3.64-12.62-5.47l-6.32-2.8c-2.09-1-4.08-2.17-6.13-3.25-16.64-8.2-32-19.48-46.12-32.26C20.23 242.16-.14 205.33.0 164.32l1.06-13.85a43.9 43.9.0 011.23-7.29l1.59-7.44c.84-5.1 2.9-9.48 4.48-14.14.87-2.29 1.61-4.63 2.58-6.87l3.34-6.49A153 153 0 0149.41 63c3.31-3.42 7.17-6.14 10.84-9.08a116.45 116.45.0 0111.32-8.3l11.72-7.57 12.2-6.51c2-1.05 4-2.22 6.11-3.16l6.29-2.71c4.2-1.77 8.32-3.69 12.55-5.3 8.59-2.75 16.92-6.21 25.61-8.12C180.31 3 215.15.74 247.1 2.82a283.13 283.13.0 0189 20.58c26.24 10.93 48.53 25.3 65.69 41.09S431.15 97.33 438 112.91c.48 1 1 1.88 1.42 2.81s.71 1.93 1.05 2.87l2 5.53c1.2 3.6 2.76 6.84 3.27 10.14q1.05 4.88 2 9a39.67 39.67.0 011.22 7.56c.68 9.15 1.05 14 1.05 14zm-13.16-.46s-.28-4.35-.81-12.53a32.18 32.18.0 00-1-6.76c-.5-2.47-1.06-5.17-1.65-8.09-.39-3-1.81-5.9-2.84-9.15l-1.75-5c-.29-.86-.6-1.73-.9-2.62s-.85-1.68-1.27-2.55c-6-14.19-17.1-29.94-32.89-44.95S356.84 44.33 331.74 34a272.49 272.49.0 00-85.05-19.8 288.45 288.45.0 00-97.36 10C141 26.06 133.17 29.49 125 32.2c-4 1.58-7.89 3.47-11.85 5.19L107.22 40c-2 .92-3.81 2-5.73 3.07L90 49.39l-10.9 7.25a105.42 105.42.0 00-10.47 7.89c-3.38 2.79-7 5.35-10 8.56A139.09 139.09.0 0027.19 114.7l-2.93 5.84c-.84 2-1.45 4.1-2.2 6.14-1.31 4.11-3.21 8.2-3.74 12.3l-1.27 6.15A32.32 32.32.0 0016 151.51l-.88 13.88c.05-.93.0.0.05-.13v.4l.07.81.13 1.62.26 3.23.5 6.47c.34 4.3 1.72 8.47 2.5 12.7s2.58 8.25 3.95 12.34c.77 2 1.41 4.08 2.27 6.06l3 5.77a137.91 137.91.0 0031.86 40.82c3 3.13 6.62 5.62 10 8.33a104.57 104.57.0 0010.48 7.67l10.87 7.07 11.4 6.11c1.91 1 3.75 2.09 5.71 3l5.9 2.56c4 1.66 7.81 3.49 11.78 5 8.12 2.6 15.93 5.92 24.16 7.73l12.15 3.16 12.25 2.26c8.14 1.76 16.15 2.3 24.08 3.21a108.89 108.89.0 0012.19.78l12.32.41c7.42.08 15.6-.44 23.21-.61a277.76 277.76.0 0084.39-19c24.89-10 45.87-23.39 61.81-37.93s27.13-30 33.36-44l1.31-2.52.94-2.58c.63-1.69 1.23-3.34 1.82-4.93 1.08-3.2 2.57-6.18 3-9 .63-2.8 1.22-5.38 1.76-7.76a31.61 31.61.0 001.16-6.76c.69-8.66 1.07-13.28 1.07-13.28z"/><path d="M414.27 351s0 .78-.06 2.23a31.31 31.31.0 01-1.46 7.6 35.56 35.56.0 01-17.19 19.49A42.78 42.78.0 01379 385.13c-1.61.06-2.88.2-4.82.15a42.76 42.76.0 01-4.38-.35 45.48 45.48.0 01-9.73-2.25A39.05 39.05.0 01343 371.09 29.62 29.62.0 01343.9 331a39.44 39.44.0 0116.83-10.52 48.2 48.2.0 0118-1.94 46.94 46.94.0 0115.95 4.29 38 38 0 0111.46 8.35 32.66 32.66.0 016.11 9.54 30.89 30.89.0 011.84 7.26l.23 2.67zm-9.62-.3s0-.62.0-1.79a21.78 21.78.0 00-.9-5 25.72 25.72.0 00-12.53-14.22 33.28 33.28.0 00-12.82-3.84 36.27 36.27.0 00-15.19 2 29.32 29.32.0 00-12.95 8.82 21.94 21.94.0 00-3.84 6.68 20.88 20.88.0 00-1.17 7.39 20.59 20.59.0 005.91 13.3 30.09 30.09.0 0012.68 7.77 34.24 34.24.0 007 1.39 37.56 37.56.0 003.91.18l3.29-.11a37.89 37.89.0 0012.27-3.28 25.39 25.39.0 0012.9-12.64 20.38 20.38.0 001.27-4.67c.14-1.45.21-2.23.21-2.23z"/><path d="M414.32 425.26s0 .52-.09 1.49a17.45 17.45.0 01-.73 4.78 22.64 22.64.0 01-1.34 3.94c-.64 1.22-1.32 2.57-2.16 3.95-1 1.24-2.05 2.59-3.26 3.93a46.13 46.13.0 01-4.44 3.46 26.78 26.78.0 01-11.88 4l-1.67.15-.85.08h-.43-.65-.09-.17l-2.76-.32-1.42-.18-1.9-.51c-1.27-.35-2.57-.73-3.81-1.18a28.45 28.45.0 01-11.7-9.28 26.28 26.28.0 01-4.46-14.81v-.58V424v-.19l.07-.39.12-.76.23-1.54a17.81 17.81.0 011.07-3.74c.86-2.85 2.38-4.71 3.77-6.8a29.33 29.33.0 0111.48-8.25 29.84 29.84.0 0112.84-1.46 23.73 23.73.0 015.83 1.18 32.09 32.09.0 015.32 2.22 50.59 50.59.0 014.37 3c1.23 1.16 2.34 2.35 3.4 3.46a24.25 24.25.0 013.84 7 19 19 0 011.17 5.13c.15 1.21.24 1.86.24 1.86zm-9.74-.53s0-.39-.08-1.11a9.91 9.91.0 00-.42-3.12 17 17 0 00-1.92-4.65l-2-2.53c-.91-.69-1.77-1.58-2.84-2.28-1.13-.5-2.3-1.54-3.53-1.73a14.24 14.24.0 00-4.31-.94c-3.05-.56-6.19.36-9.22 1.35a18.83 18.83.0 00-7.47 6c-.69 1.4-1.69 2.91-1.84 4.12a6.7 6.7.0 00-.49 2.26l-.17 2.58a16 16 0 003.4 8.28 19.65 19.65.0 007.24 5c.61.14 1.19.26 1.76.44l.84.28 1.39.1 2.77.19h.17H388c.14.0-1-.05-.52.0h.25l.51-.06 1-.09a19.8 19.8.0 007.12-2.08c1-.53 1.84-1.26 2.77-1.79l2.14-2.06 1.48-2.13a16.68 16.68.0 00.79-1.67c.61-.67.68-2.64.87-3.46.14-1 .22-1.48.22-1.48z"/></svg>