<svg id="_ÎÓÈ_1" data-name="—ÎÓÈ_1" xmlns="http://www.w3.org/2000/svg" viewBox="0 0 445.07 450"><title>SpeechBubble</title><path d="M445.07,187.21l-56.86,42.32,2.5-7,15.08,59.94,2.08,8.27-8.53.09-62.19.69,6.37-4.78-17.91,59.45-2.29,7.62-7.13-3.53-55.82-27.58,8.07-1.62-40.76,47-5.08,5.86-5.09-5.86-40.75-47,10,.15L84.5,432.35,68.26,450,73,426.48l28.55-143,6.52,8-62.18-.69-8.67-.1,2.22-8.27,16.06-59.69,2.13,6L7.37,192.6,0,187.3l7.37-5.49L57,144.88l-2.51,7L39.41,92,37.33,83.7l8.53-.09L108,82.92l-6.37,4.79,17.91-59.46,2.29-7.61L129,24.16l55.82,27.58-8.06,1.63,40.75-47L222.6.49l5.08,5.87,40.76,47-8.07-1.63,55.82-27.58,7.13-3.52,2.29,7.61,17.92,59.46-6.37-4.79,62.18.7,8.53.09L405.79,92l-15.08,59.93-2.5-7Zm-22.53,0-42.37-31.53-3.6-2.68,1.1-4.36L392.75,88.7l6.44,8.37L337,96.38l-4.94-.06-1.43-4.73L312.73,32.13l9.42,4.09L266.33,63.8l-4.65,2.31-3.41-3.93-40.76-47h10.17l-40.76,47-3.4,3.93-4.66-2.31L123,36.22l9.42-4.09-17.9,59.46-1.43,4.73-4.94.06L46,97.06l6.45-8.36,12.61,60.56.55,2.66-2.11,1.71-48.09,39V181.81l49,37.73,3,2.31-.87,3.68-14.1,60.18L46,277.35l62.18.69,8.12.09-1.59,7.95-28.56,143L74.6,423.24,176.89,312.08l5.1-5.54,4.93,5.69,40.76,47H217.51l40.76-47,3.41-3.93,4.65,2.3,55.82,27.58-9.42,4.09,17.91-59.45,1.42-4.73L337,278l62.18-.69-6.45,8.37-15.07-59.94-1.1-4.36,3.6-2.68Z"/></svg>