<svg id="_ÎÓÈ_1" data-name="—ÎÓÈ_1" xmlns="http://www.w3.org/2000/svg" viewBox="0 0 450 333.2"><title>SpeechBubble</title><path d="M365.64,82.05l-11.13.8-4.55.32-1.39-4.85h0l-1.44-5.91c-.36-2-1.41-3.8-2.11-5.7-.41-.93-.76-1.89-1.21-2.81l-1.61-2.59c-1.14-1.68-1.93-3.62-3.39-5.08l-3.95-4.69a54.53,54.53,0,0,0-4.64-4.21,47,47,0,0,0-4.86-3.52,48.46,48.46,0,0,0-5.41-2.9,52.91,52.91,0,0,0-23.82-4.76,51.67,51.67,0,0,0-6.09.6,43.74,43.74,0,0,0-6,1.27,54.12,54.12,0,0,0-5.72,2.07c-1.9.72-3.65,1.76-5.46,2.66h0l-4,1.89-3.1-3.32c-2.21-2.37-4.37-5.22-6.59-7.23l-3.94-3.61a49,49,0,0,0-3.88-3,71.74,71.74,0,0,0-8.22-5.35,47.38,47.38,0,0,0-4.45-2.23,40.93,40.93,0,0,0-4.56-2,67.74,67.74,0,0,0-9.52-3,77.16,77.16,0,0,0-9.82-1.81c-1.65-.19-3.32-.21-5-.32a32,32,0,0,0-5-.07l-5,.26-4.95.75a30.06,30.06,0,0,0-4.89,1c-1.61.42-3.24.77-4.84,1.24-3.11,1.19-6.35,2.06-9.3,3.63-1.49.73-3,1.36-4.48,2.17l-4.28,2.57a32.75,32.75,0,0,0-4.1,2.82c-1.32,1-2.7,1.94-4,3l-3.68,3.36L153.69,35l-1.77,2-3.55,4c-1.13,1.33-1.88,2.64-2.84,3.94a62.89,62.89,0,0,0-5.1,8.36c-1.68,2.86-2.67,6.06-4.07,9.06v0l-2.06,5.23-5.38-2a87.22,87.22,0,0,0-27.17-5.06l-3.45-.11-.86,0h-.09l-.47,0L95,60.63c-2.45.19-5,.29-7.36.56l-6.49,1.14c-2.17.4-4.41,1.18-6.6,1.73A86.5,86.5,0,0,0,50,75.73a88.55,88.55,0,0,0-19.6,19,82.87,82.87,0,0,0-12.78,24.11,88.82,88.82,0,0,0-4.18,26.87l.31,7.43,1,6.56a63.58,63.58,0,0,0,1.49,6.67,44.55,44.55,0,0,0,2,6.6,82.94,82.94,0,0,0,13.23,24.19A87.42,87.42,0,0,0,51.9,215.74a79.32,79.32,0,0,0,25.47,11.08c9.17,2.27,18.13,2.85,28.31,2.62l29.77,0,59.54,0c19.85.07,39.69-.25,59.54-.42h3.29l1.49,2.62,5.67,10c1.55,3.48,3.19,6.94,4.65,10.46l1.87,5.41c.59,1.81,1.31,3.59,1.78,5.43l1.37,5.53c.42,1.85,1,3.68,1.28,5.55l.92,5.6c.26,1.87.7,3.74.82,5.62l.49,5.63c.13,1.88.4,3.76.42,5.64.05,3.75.17,7.51.15,11.26l-.48,11.21-9.63-4.4,8.6-8.95c2.85-3,5.47-6.16,8.22-9.24s5.18-6.38,7.79-9.56,4.85-6.59,7.23-9.92c1.17-1.68,2.4-3.32,3.4-5.08l3.16-5.22a53.09,53.09,0,0,0,3-5.29l2.73-5.41a40.94,40.94,0,0,0,2.47-5.5l2.24-5.58a47.8,47.8,0,0,0,1.82-5.7l1.69-5.73,1.27-4.35h43.21l1.12-.06,4.48-.23a25,25,0,0,0,4.2-.45l3.95-.61c2.66-.51,5.38-1.33,8.05-2,2.58-1,5.27-1.78,7.77-3a66.2,66.2,0,0,0,7.39-3.83l3.57-2.16c1.16-.77,2.23-1.66,3.36-2.47a74.69,74.69,0,0,0,12.11-11.4c1.75-2.15,3.4-4.4,5-6.66,1.37-2.42,3.05-4.66,4.18-7.21a61.31,61.31,0,0,0,3.34-7.62l1.44-3.91,1-4a72.56,72.56,0,0,0,2.2-16.48l.06-1v-.26c0-.28,0,.31,0,.22v-.21l0-.56-.11-2.24-.23-4.49c-.35-2.77-.77-5.3-1.23-8a75.8,75.8,0,0,0-5.32-15.74L430,120.79c-.66-1.21-1.43-2.38-2.14-3.57a58.32,58.32,0,0,0-4.73-6.85c-1.57-2.3-3.67-4.17-5.46-6.29-2-1.94-4.06-3.81-6.17-5.61a74.58,74.58,0,0,0-14.05-8.9l-3.75-1.8-3.92-1.42a62.47,62.47,0,0,0-8-2.35c-2.67-.77-5.47-.92-8.2-1.43-2.76-.3-5.55-.32-8.32-.5Zm-.39-11.29c3.19.19,6.4.23,9.58.58A94.18,94.18,0,0,1,384.3,73a71.81,71.81,0,0,1,9.23,2.71L398,77.35l4.35,2.07a86.1,86.1,0,0,1,16.2,10.27c2.44,2.07,4.83,4.23,7.11,6.47,2.09,2.42,4.47,4.61,6.3,7.25a68.54,68.54,0,0,1,5.46,7.9c.83,1.38,1.7,2.73,2.47,4.13l2.09,4.33A87.18,87.18,0,0,1,448.16,138c.57,3.2,1.09,6.6,1.46,9.75l.22,4.48.12,2.25,0,.56,0,.57v.3l-.06,1.19a83.57,83.57,0,0,1-2.54,19l-1.2,4.66-1.65,4.52a70.91,70.91,0,0,1-3.86,8.8,95.45,95.45,0,0,1-4.82,8.31c-1.84,2.62-3.75,5.21-5.77,7.69a86.13,86.13,0,0,1-14,13.15c-1.29.94-2.54,1.95-3.88,2.83l-4.1,2.51A81.1,81.1,0,0,1,399.6,233c-2.9,1.37-6,2.29-9,3.44-3.12.8-6.16,1.7-9.38,2.32l-4.91.74a32,32,0,0,1-4.72.5l-4.48.23-1.12.05-.85,0H326.46l5.5-4.35-1.86,6.38a58.51,58.51,0,0,1-2,6.3l-2.45,6.12a49,49,0,0,1-2.7,6L320,266.57a62.07,62.07,0,0,1-3.21,5.69l-3.38,5.57c-1.08,1.89-2.37,3.62-3.6,5.39-2.51,3.51-4.87,7.16-7.62,10.45s-5.23,6.86-8.14,10-5.6,6.5-8.55,9.59l-8.88,9.24-10.28,10.7.66-15.1.46-10.59c0-3.53-.11-7-.15-10.56,0-1.76-.27-3.5-.4-5.25l-.45-5.23c-.1-1.76-.51-3.45-.75-5.18l-.85-5.17c-.24-1.73-.79-3.38-1.17-5.08L262.42,266c-.43-1.69-1.1-3.29-1.63-4.94l-1.68-4.91c-1.33-3.19-2.82-6.31-4.22-9.47l-5.11-9,4.76,2.61h0c-19.85-.17-39.69-.49-59.54-.41l-59.54,0H98.24c-2.49,0-5.2-.17-7.8-.25a54.24,54.24,0,0,1-7.83-.79,56.45,56.45,0,0,1-7.75-1.4,90.77,90.77,0,0,1-29.12-11.9,99.4,99.4,0,0,1-23.81-20.72A94.3,94.3,0,0,1,6.12,177.31a53.28,53.28,0,0,1-2.48-7.58,77.39,77.39,0,0,1-1.89-7.81L.47,153.76,0,146.33a101.25,101.25,0,0,1,4.26-31.78A97.32,97.32,0,0,1,18.73,86a92.08,92.08,0,0,1,23-22.27A99.36,99.36,0,0,1,70.76,50.39c2.64-.58,5.14-1.35,7.87-1.76l8.23-1.1c2.58-.19,5-.19,7.49-.3l1.86-.06.46,0h.84l1,.07,4,.25a97,97,0,0,1,30.69,7.73l-7.43,3.28v0c1.46-3.5,2.55-7.21,4.38-10.58A72.48,72.48,0,0,1,136,37.77c1.11-1.61,2.23-3.44,3.4-4.83l3.48-4,1.74-2,.49-.53.26-.24.53-.5,1.05-1,4.23-4c1.46-1.25,3-2.37,4.56-3.57a42.35,42.35,0,0,1,4.75-3.35l5-3c1.7-1,3.49-1.7,5.24-2.55,3.45-1.8,7.21-2.87,10.85-4.23,1.86-.55,3.75-1,5.63-1.46a39.85,39.85,0,0,1,5.71-1.16l5.77-.86,5.82-.31a41.88,41.88,0,0,1,5.82.07c1.94.13,3.89.17,5.81.39a91.91,91.91,0,0,1,11.45,2.1,81.1,81.1,0,0,1,11.09,3.5,48.55,48.55,0,0,1,5.29,2.42A54.37,54.37,0,0,1,249,11.31a82.25,82.25,0,0,1,9.72,6.58,47,47,0,0,1,4.5,3.74L267,25.4l.95.94.7.71.46.55L271,29.82l3.62,4.43-7.1-1.43,0,0A54.82,54.82,0,0,1,274,29.22a67.68,67.68,0,0,1,6.95-2.8,53.62,53.62,0,0,1,7.3-1.79,65,65,0,0,1,7.49-.95,66.1,66.1,0,0,1,7.58,0,59.86,59.86,0,0,1,7.54,1,64.41,64.41,0,0,1,7.38,1.9,63.34,63.34,0,0,1,7.12,2.74,58,58,0,0,1,6.74,3.6L335.31,35c1.06.78,2.11,1.66,3.16,2.5a67.65,67.65,0,0,1,5.45,5l4.87,5.85c1.68,1.9,2.68,4.3,4,6.43l1.84,3.3c.52,1.15.94,2.34,1.41,3.51s.87,2.35,1.28,3.53a17.88,17.88,0,0,1,1,3.61c.51,2.45,1,4.89,1.34,7.32h0l-5.94-4.53,11.13-.79Z"/></svg>