<?xml version="1.0" encoding="UTF-8" standalone="no"?>
<!-- Created with Inkscape (http://www.inkscape.org/) -->
<svg xmlns:inkscape="http://www.inkscape.org/namespaces/inkscape" xmlns:rdf="http://www.w3.org/1999/02/22-rdf-syntax-ns#" xmlns="http://www.w3.org/2000/svg" xmlns:xlink="http://www.w3.org/1999/xlink" xmlns:ns1="http://sozi.baierouge.fr" xmlns:cc="http://creativecommons.org/ns#" xmlns:sodipodi="http://sodipodi.sourceforge.net/DTD/sodipodi-0.dtd" xmlns:dc="http://purl.org/dc/elements/1.1/" id="svg2" xml:space="preserve" viewBox="0 0 101.69 93.956" version="1.1" inkscape:version="0.91 r13725">
  <defs id="defs6">
    <linearGradient id="linearGradient24" y2="-45.209" gradientUnits="userSpaceOnUse" x2="33.196" gradientTransform="matrix(-.796 -.08016 -.08016 .796 .0012540 75.165)" y1="-45.209" x1="-52.636">
      <stop id="stop26" style="stop-color:#1b3021" offset="0"/>
      <stop id="stop28" style="stop-color:#2d5852" offset="1"/>
    </linearGradient>
    <clipPath id="clipPath38">
      <path id="path40" d="m16 33.165h26v20h-26v-20z" inkscape:connector-curvature="0"/>
    </clipPath>
    <mask id="mask42">
      <g id="g44">
        <g id="g46" clip-path="url(#clipPath38)">
          <path id="path48" style="fill:#000000;fill-opacity:.30860" d="m16 33.165h26v20h-26v-20z" inkscape:connector-curvature="0"/>
        </g>
      </g>
    </mask>
    <clipPath id="clipPath54">
      <path id="path56" d="m16 33.165h26v20h-26v-20z" inkscape:connector-curvature="0"/>
    </clipPath>
    <clipPath id="clipPath58">
      <path id="path60" d="m16 34h26v20h-26v-20z" inkscape:connector-curvature="0"/>
    </clipPath>
    <linearGradient id="linearGradient88" y2="16.655" gradientUnits="userSpaceOnUse" x2="91.883" gradientTransform="matrix(.79968 .02168 .02168 -.79968 .0012016 75.165)" y1="16.655" x1="37.363">
      <stop id="stop90" style="stop-color:#1c3030" offset="0"/>
      <stop id="stop92" style="stop-color:#2e6753" offset="1"/>
    </linearGradient>
    <clipPath id="clipPath102">
      <path id="path104" d="m25 59.165h11v9h-11v-9z" inkscape:connector-curvature="0"/>
    </clipPath>
    <mask id="mask106">
      <g id="g108">
        <g id="g110" clip-path="url(#clipPath102)">
          <path id="path112" style="fill:#000000;fill-opacity:.35940" d="m25 59.165h11v9h-11v-9z" inkscape:connector-curvature="0"/>
        </g>
      </g>
    </mask>
    <clipPath id="clipPath118">
      <path id="path120" d="m25 59.165h11v9h-11v-9z" inkscape:connector-curvature="0"/>
    </clipPath>
    <clipPath id="clipPath122">
      <path id="path124" d="m25 60h11v9h-11v-9z" inkscape:connector-curvature="0"/>
    </clipPath>
    <linearGradient id="linearGradient152" y2="68.602" gradientUnits="userSpaceOnUse" x2="98.405" gradientTransform="matrix(.8 0 0 -.8 .0011455 75.165)" y1="56.478" x1="48.83">
      <stop id="stop154" style="stop-color:#1b3029" offset="0"/>
      <stop id="stop156" style="stop-color:#2d6453" offset=".72940"/>
      <stop id="stop158" style="stop-color:#2c7353" offset="1"/>
    </linearGradient>
    <linearGradient id="linearGradient178" y2="68.976" gradientUnits="userSpaceOnUse" x2="5.6475" gradientTransform="matrix(.44376 .66568 .66568 -.44376 .0010922 75.165)" y1="68.976" x1="-5.2593">
      <stop id="stop180" style="stop-color:#1c3030" offset="0"/>
      <stop id="stop182" style="stop-color:#2e6753" offset="1"/>
    </linearGradient>
    <clipPath id="clipPath192">
      <path id="path194" d="m40 40.165h17v14h-17v-14z" inkscape:connector-curvature="0"/>
    </clipPath>
    <mask id="mask196">
      <g id="g198">
        <g id="g200" clip-path="url(#clipPath192)">
          <path id="path202" style="fill:#000000;fill-opacity:.5" d="m40 40.165h17v14h-17v-14z" inkscape:connector-curvature="0"/>
        </g>
      </g>
    </mask>
    <clipPath id="clipPath208">
      <path id="path210" d="m40 40.165h17v14h-17v-14z" inkscape:connector-curvature="0"/>
    </clipPath>
    <clipPath id="clipPath212">
      <path id="path214" d="m40 41h17v14h-17v-14z" inkscape:connector-curvature="0"/>
    </clipPath>
    <linearGradient id="linearGradient242" y2="35.23" gradientUnits="userSpaceOnUse" x2="29.204" gradientTransform="matrix(-.24064 .76296 .76296 .24064 .0012413 75.164)" y1="35.23" x1="-68.104">
      <stop id="stop244" style="stop-color:#1c3030" offset="0"/>
      <stop id="stop246" style="stop-color:#2e6753" offset="1"/>
    </linearGradient>
    <linearGradient id="linearGradient262" y2="97.376" gradientUnits="userSpaceOnUse" x2="101.71" gradientTransform="matrix(.8 0 0 -.8 .0011455 75.165)" y1="63.722" x1="60.893">
      <stop id="stop264" style="stop-color:#1b302c" offset="0"/>
      <stop id="stop266" style="stop-color:#2d5852" offset=".68240"/>
      <stop id="stop268" style="stop-color:#2a9852" offset="1"/>
    </linearGradient>
    <clipPath id="clipPath278">
      <path id="path280" d="m46 4.1647h32v22h-32v-22z" inkscape:connector-curvature="0"/>
    </clipPath>
    <mask id="mask282">
      <g id="g284">
        <g id="g286" clip-path="url(#clipPath278)">
          <path id="path288" style="fill:#000000;fill-opacity:.30860" d="m46 4.1647h32v22h-32v-22z" inkscape:connector-curvature="0"/>
        </g>
      </g>
    </mask>
    <clipPath id="clipPath294">
      <path id="path296" d="m46 4.1647h32v22h-32v-22z" inkscape:connector-curvature="0"/>
    </clipPath>
    <clipPath id="clipPath298">
      <path id="path300" d="m46 5h32v22h-32v-22z" inkscape:connector-curvature="0"/>
    </clipPath>
    <linearGradient id="linearGradient328" y2="-70.053" gradientUnits="userSpaceOnUse" x2="6.4507" gradientTransform="matrix(-.79904 .03888 .03888 .79904 .00091293 75.165)" y1="-70.053" x1="-47.513">
      <stop id="stop330" style="stop-color:#1c3030" offset="0"/>
      <stop id="stop332" style="stop-color:#2d5852" offset="1"/>
    </linearGradient>
    <linearGradient id="linearGradient350" y2="-44.561" gradientUnits="userSpaceOnUse" x2="-46.224" gradientTransform="matrix(-.69672 .39312 .41568 .684 .0010836 75.164)" y1="-44.561" x1="-92.009">
      <stop id="stop352" style="stop-color:#1b302c" offset="0"/>
      <stop id="stop354" style="stop-color:#2d5852" offset=".68240"/>
      <stop id="stop356" style="stop-color:#2a9852" offset="1"/>
    </linearGradient>
    <clipPath id="clipPath366">
      <path id="path368" d="m24 4.1647h24v21h-24v-21z" inkscape:connector-curvature="0"/>
    </clipPath>
    <mask id="mask370">
      <g id="g372">
        <g id="g374" clip-path="url(#clipPath366)">
          <path id="path376" style="fill:#000000;fill-opacity:.30860" d="m24 4.1647h24v21h-24v-21z" inkscape:connector-curvature="0"/>
        </g>
      </g>
    </mask>
    <clipPath id="clipPath382">
      <path id="path384" d="m24 4.1647h24v21h-24v-21z" inkscape:connector-curvature="0"/>
    </clipPath>
    <clipPath id="clipPath386">
      <path id="path388" d="m24 5h24v21h-24v-21z" inkscape:connector-curvature="0"/>
    </clipPath>
  </defs>
  <g id="g10" transform="matrix(1.25 0 0 -1.25 0 93.956)">
    <g id="g12">
      <g id="g14">
        <g id="g16">
          <g id="g22">
            <path id="path30" style="fill-rule:evenodd;fill:url(#linearGradient24)" d="m41.121 36.446c-0.16-0.109-0.441-1.055-0.84-2.84-0.375-1.629-1.547-2.719-3.519-3.281-1.735-0.508-3.43-0.32-5.082 0.558-1.84 0.934-3.184 2.508-4.039 4.719-1.227 3.176-2.758 5.602-4.598 7.281-1.844 1.68-3.523 2.2-5.043 1.559-1.465-0.613-2.453-0.371-2.957 0.723-0.481 1.093-0.281 2.371 0.598 3.84 1.015 1.652 3.066 2.96 6.16 3.918 3.574 1.093 7.293 1.187 11.16 0.281 4.16-0.985 7.668-2.946 10.519-5.879 2.801-2.906 3.762-5.453 2.879-7.641-0.531-1.308-1.382-2.148-2.558-2.519-1.281-0.215-2.172-0.453-2.68-0.719z" inkscape:connector-curvature="0"/>
          </g>
        </g>
      </g>
      <path id="path32" style="fill-rule:evenodd;fill:#2e6a53" d="m46 42.723c-0.613 2-2.133 3.973-4.559 5.922-2.586 2.051-5.441 3.453-8.558 4.199-3.789 0.907-7.469 0.813-11.043-0.281-1.414-0.426-2.68-1.012-3.797-1.758-0.988-0.64-1.695-1.308-2.121-2-0.723-1.199-0.934-2.281-0.641-3.242 0.321-0.933 1.051-1.238 2.199-0.918l0.403 0.121c0.023 0 0.133 0.039 0.316 0.117 1.656 0.508 3.403-0.117 5.242-1.878 1.786-1.707 3.293-4.133 4.52-7.282 0.828-2.105 2.105-3.613 3.84-4.519 1.574-0.801 3.199-0.973 4.879-0.52l0.203 0.082c1.012 0.321 1.773 0.758 2.277 1.321 0.375 0.425 0.629 0.984 0.762 1.679 0.105 0.774 0.187 1.332 0.238 1.68 0.133 0.613 0.402 1.055 0.801 1.32l0.641 0.278c0.453 0.136 1.132 0.296 2.039 0.484 1.121 0.344 1.906 1.117 2.359 2.316 0.375 0.829 0.375 1.786 0 2.879zm-4.68-6.597c-0.211-0.082-0.359-0.375-0.437-0.883-0.055-0.289-0.149-0.852-0.281-1.68-0.321-1.73-1.469-2.89-3.442-3.476l-0.039-0.043-0.238-0.039c-1.84-0.532-3.629-0.348-5.363 0.558-1.918 0.988-3.321 2.613-4.2 4.883-1.144 2.984-2.597 5.32-4.359 7-1.68 1.625-3.199 2.211-4.559 1.758l-0.242-0.117-0.437-0.161c-0.723-0.242-1.387-0.23-2 0.039-0.508 0.266-0.883 0.719-1.121 1.36-0.348 1.199-0.094 2.492 0.757 3.879 0.481 0.801 1.254 1.547 2.321 2.242 1.093 0.719 2.402 1.32 3.922 1.797 3.652 1.176 7.453 1.281 11.398 0.32 3.281-0.797 6.227-2.238 8.84-4.32 2.535-2.024 4.148-4.133 4.84-6.317 0.375-1.281 0.375-2.414 0-3.402-0.559-1.414-1.492-2.32-2.797-2.719-0.988-0.187-1.684-0.347-2.082-0.48l-0.481-0.199z" inkscape:connector-curvature="0"/>
      <g id="g34">
        <g id="g50" mask="url(#mask42)">
          <g id="g62">
            <g id="g64" clip-path="url(#clipPath54)">
              <g id="g66" transform="translate(0 -.83529)">
                <g id="g70">
                  <g id="g72" clip-path="url(#clipPath58)">
                    <g id="g74">
                      <path id="path76" style="fill-rule:evenodd;fill:#2e6a53" d="m41.641 46.199c0.214-0.613 0.281-1.105 0.199-1.48-0.133-0.426-0.504-0.481-1.117-0.16 0.078-0.184 0.254-0.547 0.519-1.079 0.16-0.48 0.012-0.734-0.441-0.761-0.239-0.024-0.625 0.203-1.16 0.679-0.559 0.536-0.918 0.868-1.079 1l-4.722 3.481c0.215-0.774 1-1.84 2.363-3.199 0.106-0.106 0.504-0.453 1.199-1.039 0.532-0.426 0.879-0.801 1.039-1.121-1.972 1.199-3.253 2-3.839 2.402-0.989 0.824-1.829 1.476-2.52 1.957-1.281 0.933-2.148 1.254-2.602 0.961 0.133-0.375 0.481-0.801 1.043-1.281 0.293-0.266 0.731-0.614 1.317-1.039 1.281-1.067 2.23-1.918 2.84-2.559 0.59-0.563 0.988-1.027 1.203-1.402 0.293-0.504 0.453-1.079 0.48-1.719 0-2.16-0.242-3.535-0.722-4.121-1.012-1.199-2.481-1.254-4.399-0.16-0.988 0.562-1.945 1.828-2.879 3.8-1.043 2.426-1.883 4.243-2.523 5.442-0.774 1.492-1.586 2.625-2.438 3.398l-1.082 0.723c-1.144 0.719-2.277 0.945-3.398 0.68-0.32-0.082-0.801-0.43-1.442-1.043-0.48-0.504-0.707-0.653-0.679-0.438 0.054 0.344 0.347 0.879 0.879 1.598 0.617 0.828 1.226 1.402 1.843 1.722 0.957 0.532 1.637 0.864 2.039 1 0.692 0.266 1.653 0.465 2.879 0.598 1.575 0.188 2.895 0.242 3.961 0.16 1.493-0.078 3.254-0.414 5.278-1 2.453-0.664 4.523-1.867 6.203-3.597 0.984-1.094 1.574-1.895 1.758-2.403z" inkscape:connector-curvature="0"/>
                    </g>
                  </g>
                </g>
              </g>
            </g>
          </g>
        </g>
      </g>
      <g id="g78">
        <g id="g80">
          <g id="g86">
            <path id="path94" style="fill-rule:evenodd;fill:url(#linearGradient88)" d="m35.723 57.126c-0.856-0.403-1.735-0.453-2.641-0.161-0.988 0.321-1.762 1.012-2.32 2.079-0.828 1.546-1.762 2.668-2.801 3.359-1.039 0.723-1.918 0.855-2.641 0.402-0.718-0.453-1.238-0.414-1.558 0.121-0.321 0.532-0.309 1.227 0.039 2.079 0.426 0.933 1.398 1.773 2.922 2.519 1.757 0.879 3.636 1.254 5.636 1.121 2.188-0.16 4.094-0.879 5.723-2.16 1.598-1.254 2.254-2.492 1.961-3.719-0.188-0.722-0.574-1.226-1.16-1.523-0.641-0.211-1.082-0.41-1.321-0.598-0.082-0.082-0.175-0.586-0.281-1.519-0.082-0.883-0.601-1.547-1.558-2z" inkscape:connector-curvature="0"/>
          </g>
        </g>
      </g>
      <path id="path96" style="fill-rule:evenodd;fill:#2e6a53" d="m37.961 67.044c1.625-1.145 2.453-2.387 2.48-3.719l-0.082-0.641c-0.211-0.824-0.652-1.414-1.316-1.758-0.695-0.242-1.121-0.429-1.281-0.562-0.028 0-0.067-0.426-0.121-1.277-0.106-1.043-0.707-1.817-1.801-2.321-0.504-0.242-1.051-0.363-1.641-0.363-1.652 0-2.906 0.828-3.758 2.48-0.613 1.176-1.332 2.122-2.16 2.84-0.746 0.668-1.426 1-2.039 1-0.265 0-0.519-0.078-0.762-0.238-0.371-0.215-0.707-0.32-1-0.32-0.398 0-0.718 0.172-0.96 0.519-0.211 0.293-0.321 0.668-0.321 1.121 0 0.481 0.094 0.918 0.281 1.321 0.454 0.984 1.387 1.851 2.801 2.597 1.574 0.856 3.332 1.297 5.281 1.321 0.372 0 0.653-0.012 0.84-0.039 2.106-0.161 3.957-0.813 5.559-1.961zm0.762-5.438c0.476 0.238 0.797 0.664 0.957 1.277l0.043 0.442c0.05 1.012-0.668 2.051-2.161 3.121-1.546 1.117-3.281 1.73-5.203 1.84l-0.797 0.039c-1.761 0-3.414-0.426-4.96-1.281-1.336-0.719-2.161-1.454-2.481-2.2-0.16-0.398-0.238-0.746-0.238-1.039 0.023-0.586 0.226-0.894 0.597-0.922 0.161 0 0.375 0.082 0.641 0.243 0.293 0.211 0.652 0.32 1.078 0.32h0.043c0.824-0.027 1.664-0.414 2.52-1.16 0.824-0.746 1.586-1.762 2.281-3.043 0.746-1.383 1.797-2.078 3.156-2.078 0.535 0 0.989 0.093 1.363 0.281 0.532 0.238 0.907 0.519 1.118 0.84 0.136 0.211 0.226 0.504 0.281 0.879v0.879c0.027 0.375 0.16 0.679 0.398 0.921 0.321 0.211 0.774 0.426 1.364 0.641z" inkscape:connector-curvature="0"/>
      <g id="g98">
        <g id="g114" mask="url(#mask106)">
          <g id="g126">
            <g id="g128" clip-path="url(#clipPath118)">
              <g id="g130" transform="translate(0 -.83529)">
                <g id="g134">
                  <g id="g136" clip-path="url(#clipPath122)">
                    <g id="g138">
                      <path id="path140" style="fill-rule:evenodd;fill:#2e6a53" d="m34.762 67.238c0.48-0.476 0.531-0.797 0.16-0.957-0.137-0.054-0.375 0-0.723 0.16-0.586 0.321-0.906 0.493-0.957 0.52 0.024-0.027 0.41-0.32 1.16-0.879 0.586-0.43 0.973-0.949 1.16-1.562-0.535 0.562-1.175 1.027-1.921 1.402-0.719 0.371-1.266 0.531-1.641 0.476 0.133-0.238 0.453-0.586 0.961-1.039 0.586-0.504 0.934-0.824 1.039-0.961 0.668-0.824 0.934-1.746 0.801-2.757-0.16-1.067-0.84-1.375-2.039-0.922-0.453 0.16-0.934 0.64-1.442 1.441-0.558 0.985-1 1.719-1.32 2.199-0.641 0.934-1.215 1.442-1.719 1.52-0.265 0.137-0.586 0.203-0.961 0.203-0.293-0.027-0.535-0.082-0.718-0.16-0.454-0.242-0.747-0.442-0.883-0.602-0.051 0.133 0.015 0.348 0.203 0.641 0.16 0.293 0.371 0.574 0.64 0.84 0.692 0.613 1.653 1.078 2.879 1.398 1.2 0.293 2.239 0.348 3.121 0.16 0.958-0.214 1.692-0.586 2.2-1.121z" inkscape:connector-curvature="0"/>
                    </g>
                  </g>
                </g>
              </g>
            </g>
          </g>
        </g>
      </g>
      <g id="g142">
        <g id="g144">
          <g id="g150">
            <path id="path160" style="fill-rule:evenodd;fill:url(#linearGradient152)" d="m71.242 33.204c-0.375-1.653-1.469-2.16-3.281-1.52-1.895 0.668-3.746-0.332-5.559-3-1.84-2.64-3.187-6.281-4.043-10.918-0.586-3.199-1.851-5.601-3.797-7.199-1.761-1.441-3.695-1.961-5.8-1.562-2.375 0.48-3.922 1.828-4.641 4.039-0.266 1.121-0.469 1.91-0.601 2.363-0.239 0.773-0.547 1.25-0.918 1.437-1.387 0.215-2.469 0.414-3.243 0.602-1.382 0.348-2.504 1.387-3.359 3.121-1.414 2.934-0.758 6.637 1.961 11.117 2.801 4.559 6.519 7.856 11.16 9.879 4.32 1.922 8.641 2.387 12.961 1.402 3.758-0.855 6.359-2.359 7.797-4.519 1.281-1.895 1.734-3.641 1.363-5.242z" inkscape:connector-curvature="0"/>
          </g>
        </g>
      </g>
      <g id="g162" transform="matrix(1 0 0 -1 0 75.165)">
        <path id="path164" style="stroke:#2e6a53;stroke-width:0.8;fill:none" d="m71.242 41.961c0.371-1.602-0.082-3.348-1.359-5.242-1.442-2.16-4.043-3.664-7.801-4.52-4.32-0.984-8.641-0.519-12.961 1.403-4.641 2.023-8.359 5.32-11.16 9.878-2.719 4.481-3.375 8.188-1.961 11.122 0.855 1.73 1.977 2.773 3.359 3.117 0.774 0.187 1.856 0.386 3.243 0.601 0.375 0.188 0.679 0.668 0.918 1.442 0.132 0.449 0.335 1.238 0.601 2.359 0.719 2.211 2.266 3.559 4.641 4.039 2.105 0.399 4.039-0.121 5.8-1.558 1.946-1.602 3.211-4 3.797-7.204 0.856-4.636 2.203-8.277 4.043-10.918 1.813-2.668 3.664-3.668 5.559-3 1.812 0.641 2.906 0.133 3.281-1.519z" inkscape:connector-curvature="0"/>
      </g>
      <path id="path166" style="fill-rule:evenodd;fill:#2e6a53" d="m66.121 37.606c-1.387 0.16-2.652-0.348-3.801-1.519-0.293-0.188-0.668-0.586-1.121-1.2-0.851-1.23-1.597-2.933-2.238-5.121-0.508-1.761-1.149-4.426-1.918-8-0.75-2.906-1.641-4.828-2.684-5.761-1.25-1.145-2.398-1.641-3.437-1.481-1.043 0.16-1.906 0.961-2.602 2.402-0.531 1.145-0.812 2.172-0.84 3.079-0.027 0.933 0.215 1.972 0.719 3.121 0.348 0.828 0.883 1.851 1.602 3.078 0.984 1.683 1.558 2.683 1.719 3l2.121 3.601c0.507 0.746 1.05 1.696 1.64 2.84-1.093-0.187-2.254-1.117-3.48-2.801-0.696-0.906-1.586-2.183-2.68-3.839 0.051 0.828 0.227 1.601 0.52 2.32s0.797 1.64 1.519 2.762c-0.16 0.023-0.336-0.028-0.519-0.161-0.215-0.16-0.602-0.535-1.161-1.121l-1.16-1.32c-1.011-1.199-2.011-2.641-3-4.32-0.586-0.961-1.332-0.762-2.238 0.601-0.883 1.305-1.281 2.504-1.203 3.598 0.269 2.879 2.496 5.402 6.683 7.562 2.239 1.145 4.227 1.891 5.958 2.239 1.226 0.265 2.761 0.386 4.601 0.359 1.441 0 2.586-0.121 3.441-0.359 0.504-0.133 1.348-0.492 2.52-1.078 0.773-0.375 1.586-1.082 2.438-2.122 0.773-0.906 1.214-1.613 1.32-2.121 0.082-0.265-0.215-0.093-0.879 0.52-0.852 0.773-1.469 1.187-1.84 1.242z" inkscape:connector-curvature="0"/>
      <g id="g168">
        <g id="g170">
          <g id="g176">
            <path id="path184" style="fill-rule:evenodd;fill:url(#linearGradient178)" d="m44.52 37.766c-1.254 0.293-2.028 0.985-2.321 2.078-0.316 1.227-0.531 1.868-0.637 1.922-0.722 0.133-1.296 0.266-1.722 0.399-0.746 0.215-1.305 0.746-1.68 1.601-0.64 1.465-0.105 3.239 1.602 5.321 1.73 2.132 3.906 3.613 6.519 4.437 2.426 0.801 4.801 0.879 7.117 0.242 2-0.535 3.336-1.347 4-2.441 0.618-0.988 0.778-1.856 0.481-2.602-0.266-0.773-0.879-0.972-1.84-0.597-0.984 0.371-2.039-0.055-3.16-1.282-1.117-1.226-2.024-2.945-2.719-5.16-0.48-1.547-1.281-2.664-2.398-3.359-1.012-0.641-2.094-0.828-3.242-0.559z" inkscape:connector-curvature="0"/>
          </g>
        </g>
      </g>
      <path id="path186" style="fill-rule:evenodd;fill:#2e6a53" d="m41.043 50.165c-1.496-1.414-2.414-2.828-2.762-4.239-0.16-0.828-0.133-1.523 0.078-2.082 0.403-0.879 1-1.386 1.801-1.519l0.883-0.16 0.637-0.2c0.269-0.16 0.453-0.453 0.562-0.878 0.051-0.243 0.117-0.629 0.199-1.161 0.239-1.015 0.961-1.668 2.161-1.961h0.121c1.039-0.214 2.023-0.015 2.957 0.598 1.043 0.668 1.785 1.735 2.242 3.203 0.691 2.16 1.558 3.852 2.598 5.078 1.066 1.254 2.148 1.786 3.242 1.602l0.718-0.242c0.614-0.106 1.028 0.148 1.243 0.761 0.156 0.719-0.016 1.465-0.524 2.239-0.316 0.508-0.863 0.988-1.637 1.441-0.855 0.481-1.816 0.84-2.882 1.078-2.078 0.403-4.2 0.27-6.36-0.398-1.945-0.613-3.707-1.668-5.277-3.16zm5.156 3.601c2.27 0.719 4.453 0.852 6.563 0.399 1.148-0.239 2.16-0.614 3.039-1.121 0.828-0.481 1.426-1.012 1.801-1.598 0.586-0.934 0.773-1.801 0.558-2.602-0.078-0.375-0.281-0.679-0.598-0.918-0.296-0.187-0.695-0.242-1.203-0.16l-0.679 0.199c-0.852 0.211-1.77-0.265-2.758-1.441-1.067-1.199-1.906-2.828-2.52-4.879-0.48-1.574-1.293-2.734-2.441-3.48-1.066-0.692-2.184-0.922-3.359-0.68l-0.161 0.039c-1.386 0.32-2.214 1.082-2.48 2.281-0.106 0.559-0.172 0.946-0.199 1.16-0.082 0.344-0.188 0.547-0.321 0.598l-0.519 0.16-0.879 0.121c-1.016 0.215-1.723 0.829-2.121 1.84-0.293 0.719-0.32 1.492-0.078 2.321 0.371 1.519 1.332 3.015 2.879 4.48 1.597 1.52 3.425 2.613 5.476 3.281z" inkscape:connector-curvature="0"/>
      <g id="g188">
        <g id="g204" mask="url(#mask196)">
          <g id="g216">
            <g id="g218" clip-path="url(#clipPath208)">
              <g id="g220" transform="translate(0 -.83529)">
                <g id="g224">
                  <g id="g226" clip-path="url(#clipPath212)">
                    <g id="g228">
                      <path id="path230" style="fill-rule:evenodd;fill:#2e6a53" d="m56.121 52c0.348-0.453 0.547-0.812 0.598-1.078 0.027-0.137-0.117-0.043-0.438 0.277-0.453 0.403-0.773 0.629-0.961 0.68-0.691 0.16-1.414-0.039-2.16-0.598-0.16-0.082-0.375-0.254-0.64-0.519-0.532-0.59-1.024-1.403-1.481-2.442-0.344-0.851-0.812-2.121-1.398-3.8-0.536-1.387-1.106-2.293-1.719-2.719-1.52-1.067-2.602-0.856-3.242 0.64-0.504 1.145-0.465 2.278 0.121 3.399 0.215 0.426 0.574 0.945 1.078 1.558 0.297 0.348 0.617 0.723 0.961 1.122 0.16 0.242 0.082 0.308-0.238 0.199-0.321-0.133-0.735-0.438-1.243-0.918-0.398-0.375-0.906-0.989-1.519-1.84-0.426-0.613-0.625-0.856-0.598-0.723 0.024 0.082 0.238 0.59 0.637 1.524 0.32 0.718 0.363 0.972 0.121 0.758l-1.078-1.2c-0.508-0.535-0.883-0.8-1.121-0.8-0.613 0.027-1.016 0.253-1.199 0.679-0.243 0.586-0.082 1.481 0.48 2.68 0.957 1.976 2.547 3.375 4.758 4.199 1.281 0.481 2.402 0.777 3.359 0.883 0.641 0.105 1.481 0.133 2.52 0.078 0.777-0.051 1.386-0.16 1.843-0.32 0.211-0.051 0.653-0.254 1.317-0.598 0.402-0.215 0.816-0.586 1.242-1.121z" inkscape:connector-curvature="0"/>
                    </g>
                  </g>
                </g>
              </g>
            </g>
          </g>
        </g>
      </g>
      <g id="g232">
        <g id="g234">
          <g id="g240">
            <path id="path248" style="fill-rule:evenodd;fill:url(#linearGradient242)" d="m42.359 73.606c0.508 0.133 0.977 0.172 1.403 0.117 0.613-0.105 1.011-0.398 1.199-0.879 0.187-0.507-0.106-0.746-0.879-0.718-0.48 0.05-0.922-0.039-1.32-0.282-0.16-0.078-0.309-0.199-0.442-0.359-0.16-0.187-0.226-0.348-0.199-0.48 0.055-0.161 0.281-0.239 0.68-0.239 0.508 0.024 0.785 0.024 0.84 0 0.32-0.109 0.613-0.308 0.882-0.601 0.293-0.375 0.344-0.68 0.157-0.922-0.028-0.024-0.118-0.106-0.278-0.238-0.136-0.079-0.214-0.161-0.242-0.239-0.027-0.187 0.176-0.375 0.602-0.562 0.426-0.453 0.613-1.211 0.558-2.278-0.054-0.562-0.226-1.043-0.519-1.441-0.321-0.398-0.746-0.586-1.281-0.559-0.532 0.024-0.731 0.227-0.598 0.598 0.027 0.027 0.211 0.32 0.558 0.879 0.266 0.43 0.293 0.828 0.082 1.203-0.214 0.371-0.546 0.547-1 0.52-0.402 0-0.789-0.243-1.16-0.723-0.562-0.719-1.015-2.023-1.359-3.918l-0.281-1.801c-0.219-1.32-0.356-2.687-0.403-4.097-0.144-0.469-0.226-0.852-0.238-1.141 0-0.293 0.078-0.668 0.238-1.121 0.004 0.055 0.012 0.105 0.024 0.16l0.34-3.559c-0.106 0.411-0.184 0.813-0.243 1.2 0.239-2.903 0.868-5.875 1.879-8.922 0.59-1.735 1.536-4.321 2.84-7.758 1.043-3.359 1.668-7.066 1.883-11.121 0-0.027 0.371-4.082 1.117-12.16 0.321-3.68 0.203-6.293-0.359-7.84-0.211-0.559-0.891-1.039-2.039-1.438-1.36-0.375-2.266-0.629-2.719-0.761-0.641 0.132-1.242 0.265-1.801 0.398-1.093 0.242-1.894 0.149-2.398-0.281 0.211 0.508 0.73 1.656 1.558 3.441 0.586 1.254 1.051 2.469 1.399 3.641 0.613 2.348 1.055 5.16 1.32 8.441 0.535 6.532-0.078 12.121-1.84 16.758-1.679 4.43-2.8 8.949-3.359 13.563-0.719 5.785-0.68 10.398 0.121 13.839 0.184 0.907 0.48 1.895 0.879 2.961l0.879 2.52c0.187 0.637 0.293 1.078 0.32 1.32 0 0.477-0.183 0.879-0.558 1.199-0.879 0.801-1.387 1.68-1.52 2.641-0.105 0.902 0.012 1.559 0.359 1.957 0.239 0.215 0.52 0.309 0.84 0.281 0.293-0.027 0.559-0.148 0.801-0.359 0.266-0.242 0.426-0.586 0.48-1.043 0-0.184-0.015-0.598-0.042-1.238-0.024-0.774 0.203-1.465 0.679-2.078 0.137 1.464 0.442 2.41 0.922 2.839 0.32 0.293 0.734 0.52 1.238 0.68zm-2.238-15.121c0.078 0.16 0.215 0.801 0.399 1.918 0.16 0.855 0.414 1.414 0.761 1.684 0.559 0.425 0.973 0.316 1.239-0.321 0.242-0.59 0.226-1.136-0.04-1.64-0.214-0.403-0.574-0.895-1.082-1.481-0.558-0.64-0.933-1.121-1.117-1.441-0.496-0.793-0.797-1.699-0.902-2.719l-0.02 0.16c-0.015 0.656-0.015 1.301 0 1.942 0.172 0.519 0.426 1.156 0.762 1.898z" inkscape:connector-curvature="0"/>
          </g>
        </g>
      </g>
      <path id="path250" style="fill-rule:evenodd;fill:#2e6a53" d="m44.641 72.606c0.082 0.078 0 0.211-0.239 0.399-0.269 0.214-0.507 0.332-0.722 0.359l-0.321 0.039c-0.449 0-0.785-0.023-1-0.078-0.371-0.106-0.707-0.332-1-0.68-0.449-0.535-0.73-1.402-0.839-2.601l-0.079-0.879-0.519 0.679c-0.508 0.614-0.762 1.332-0.762 2.161l0.039 1.039c0 0.535-0.117 0.906-0.359 1.121-0.184 0.187-0.399 0.281-0.641 0.281-0.156 0-0.332-0.066-0.519-0.203-0.184-0.184-0.278-0.52-0.278-1l0.039-0.598c0.055-0.535 0.2-0.988 0.442-1.359 0.183-0.321 0.504-0.68 0.957-1.082 0.43-0.321 0.64-0.785 0.64-1.399 0-0.375-0.105-0.879-0.32-1.519l-0.879-2.563c-0.293-0.746-0.586-1.703-0.879-2.879-0.425-1.972-0.64-4.078-0.64-6.32 0-1.973 0.172-4.437 0.519-7.398 0.586-4.536 1.707-9.028 3.36-13.481 1.359-3.547 2.039-7.746 2.039-12.601 0-2.957-0.239-5.973-0.719-9.039-0.266-1.547-0.52-2.801-0.758-3.762-0.137-0.481-0.508-1.371-1.121-2.68-0.453-1.199-0.586-2.105-0.398-2.719l0.277-0.402c0.586-0.637 1.641-0.918 3.16-0.84 1.52 0.11 2.414 0.524 2.68 1.242 0.207 0.539 0.387 1.09 0.543 1.661 0.133-0.125 0.218-0.211 0.258-0.262 0.851-0.906 1.425-1.438 1.718-1.598 1.176-0.746 1.973-1.359 2.403-1.84-0.321-0.132-0.813-0.175-1.481-0.121-0.242 0.028-0.762 0.121-1.562 0.281-0.664 0.161-1.2 0.227-1.598 0.2-0.508-0.055-0.172-0.348 1-0.879 1.066-0.481 1.238-0.707 0.52-0.684-1.309-0.051-2.375-0.066-3.2-0.039-0.136 0-0.867 0.121-2.203 0.36-0.933 0.132-1.679 0.132-2.238 0-1.199-0.559-2.106-0.868-2.719-0.918-0.613-0.028-0.789 0.082-0.519 0.32 0.476 0.316 0.757 0.558 0.839 0.719l-0.082 0.039c-0.453 0.132-1.066 0.16-1.839 0.082-0.985-0.11-1.598-0.16-1.84-0.16-0.375 0-1 0.093-1.879 0.281-0.801 0.156-1.426 0.226-1.879 0.199h-1.723c-0.691 0.105-0.48 0.293 0.641 0.559 1.519 0.398 2.359 0.707 2.519 0.921-0.214 0.211-0.531 0.344-0.96 0.399-0.344 0.078-0.758 0.066-1.239-0.039l-1.238-0.281c-1.496-0.454-2.563-0.625-3.203-0.52-0.371 0.082-0.199 0.32 0.519 0.719 0.883 0.43 1.442 0.711 1.684 0.844l2.238 1.117c0.028 0 0.281 0.176 0.762 0.519 0.293 0.188 0.57 0.321 0.84 0.403 1.277 0.425 2.383 0.597 3.316 0.519 0.481-0.055 1.149-0.148 2-0.281 0.75-0.055 1.414 0.105 2 0.48 1.844 1.172 3.016 3.508 3.524 7 0.183 1.387 0.277 4.121 0.277 8.2 0 4.746-0.664 8.855-2 12.32-1.68 4.48-2.812 9.039-3.398 13.68-0.348 2.961-0.52 5.453-0.52 7.48 0 2.481 0.211 4.641 0.641 6.481 0.293 1.253 0.597 2.253 0.918 3l0.839 2.519c0.215 0.641 0.321 1.066 0.321 1.281 0 0.321-0.133 0.598-0.399 0.84-0.988 0.852-1.535 1.813-1.64 2.879l-0.039 0.719c0 0.695 0.16 1.215 0.476 1.562 0.297 0.239 0.629 0.36 1 0.36 0.43 0 0.789-0.145 1.082-0.442 0.426-0.398 0.641-0.957 0.641-1.679l-0.039-1.039c0-0.321 0.039-0.602 0.117-0.84 0.133 0.906 0.426 1.586 0.883 2.039 0.664 0.613 1.492 0.922 2.476 0.922l0.442-0.039c0.426-0.082 0.773-0.254 1.039-0.524 0.32-0.265 0.496-0.586 0.519-0.957 0-0.297-0.117-0.508-0.359-0.641-0.184-0.132-0.465-0.199-0.84-0.199h-0.16c-0.453 0-0.824-0.082-1.117-0.242-0.188-0.105-0.321-0.281-0.403-0.519 0.696 0.082 1.282 0 1.762-0.239 0.531-0.242 0.824-0.629 0.879-1.16 0.027-0.586-0.16-0.816-0.559-0.68 0.079-0.109 0.227-0.281 0.438-0.523 0.215-0.211 0.363-0.398 0.441-0.559 0.161-0.32 0.243-0.746 0.243-1.281l-0.043-0.68c-0.024-0.585-0.2-1.105-0.52-1.558-0.398-0.508-0.891-0.762-1.48-0.762h-0.121c-0.266 0-0.493 0.067-0.68 0.203-0.215 0.133-0.305 0.321-0.281 0.559 0.027 0.265 0.121 0.535 0.281 0.801 0.082 0.132 0.199 0.304 0.359 0.519 0.055 0.051 0.11 0.199 0.16 0.442-0.05 0.453-0.293 0.679-0.718 0.679h-0.039c-0.375 0-0.68-0.203-0.922-0.601-0.504-0.641-0.934-1.879-1.282-3.719l-0.558-3.68c0.027 0.051 0.148 0.653 0.359 1.797 0.16 0.856 0.442 1.469 0.84 1.84 0.27 0.187 0.535 0.281 0.801 0.281 0.402-0.027 0.707-0.226 0.922-0.597 0.16-0.321 0.238-0.696 0.238-1.122 0-0.425-0.066-0.773-0.199-1.039-0.215-0.402-0.586-0.906-1.121-1.523-0.532-0.637-0.891-1.105-1.078-1.398-0.801-1.282-1.094-2.985-0.883-5.122 0.082-1.039 0.429-2.785 1.043-5.238 0.347-1.414 0.664-2.519 0.957-3.32 0.59-1.707 1.519-4.293 2.801-7.762 1.066-3.387 1.707-7.117 1.921-11.199l0.079-3.481c0-1.039-0.028-2.058-0.079-3.058-0.386 2.738-0.625 4.906-0.722 6.5-0.211 4.027-0.836 7.691-1.879 11-1.278 3.414-2.211 6-2.797 7.762-1.043 3.199-1.684 6.343-1.922 9.437-0.133 1.68-0.187 2.746-0.16 3.199 0.027 1.575 0.172 3.254 0.441 5.043l0.321 1.797c0.371 1.922 0.839 3.281 1.398 4.082 0.426 0.508 0.895 0.801 1.399 0.879h0.121c0.402 0 0.734-0.148 1-0.437 0.269-0.27 0.402-0.602 0.402-1 0-0.321-0.094-0.618-0.281-0.883l-0.52-0.84 0.281-0.078h0.118c0.375 0 0.679 0.172 0.921 0.519 0.211 0.293 0.348 0.68 0.399 1.16l0.039 0.598c-0.023 0.402-0.078 0.695-0.16 0.883-0.106 0.266-0.305 0.504-0.598 0.719-0.801 0.375-1.199 0.679-1.199 0.922 0 0.156 0.117 0.211 0.359 0.156 0.106-0.024 0.266-0.067 0.481-0.117 0.238-0.028 0.41 0.027 0.519 0.16 0.078 0.16 0.051 0.347-0.082 0.558-0.16 0.321-0.465 0.52-0.918 0.602-0.562 0.16-0.988 0.144-1.281-0.043-0.082-0.051-0.215-0.172-0.398-0.359-0.215-0.211-0.321-0.348-0.321-0.399 0.051 1.281 0.438 2.121 1.16 2.52 0.293 0.187 0.774 0.304 1.438 0.359l0.082-0.039 0.078 0.039c0.16-0.027 0.293-0.012 0.402 0.039l0.079 0.043zm-4.598-15.121c0.211 0.348 0.598 0.84 1.156 1.48 0.481 0.559 0.817 1.012 1 1.36 0.082 0.105 0.121 0.32 0.121 0.64 0 0.239-0.054 0.493-0.16 0.758-0.105 0.16-0.211 0.242-0.32 0.242-0.106 0-0.227-0.054-0.36-0.16-0.265-0.16-0.464-0.652-0.597-1.48-0.188-1.067-0.336-1.735-0.442-2l-0.398-0.84zm5.957-44.359c0.215 1.511 0.363 3.082 0.441 4.699 0.153-1.067 0.325-2.223 0.52-3.461 0.328-3.27 0.121-6.223-0.621-8.859-0.145 0.132-0.348 0.312-0.617 0.539-0.403 0.347-0.657 0.64-0.762 0.882-0.211 0.641-0.133 1.653 0.242 3.039 0.531 2.051 0.797 3.106 0.797 3.161z" inkscape:connector-curvature="0"/>
      <g id="g252">
        <g id="g254">
          <g id="g260">
            <path id="path270" style="fill-rule:evenodd;fill:url(#linearGradient262)" d="m75.359 24.005c3.203-2.375 5.043-4.762 5.52-7.161 0.453-2.132 0.176-3.773-0.84-4.918-1.012-1.175-2.25-1.093-3.719 0.239-1.492 1.359-3.64 1.375-6.441 0.039-2.797-1.36-5.531-3.746-8.199-7.16-1.868-2.371-4.039-3.786-6.52-4.239-2.265-0.398-4.305 0.039-6.117 1.321-2.055 1.441-2.961 3.226-2.723 5.359 0.188 1.039 0.321 1.773 0.403 2.199 0.105 0.746 0.011 1.281-0.282 1.602-1.226 0.773-2.16 1.414-2.8 1.918-1.2 0.906-1.852 2.254-1.961 4.039-0.133 3.015 1.988 5.75 6.363 8.203 4.48 2.508 9.316 3.574 14.519 3.199 4.825-0.375 9.09-1.922 12.797-4.64z" inkscape:connector-curvature="0"/>
          </g>
        </g>
      </g>
      <path id="path272" style="fill-rule:evenodd;fill:#2e6a53" d="m81.199 16.723c0.27-1.437 0.188-2.718-0.238-3.84-0.453-1.117-1.149-1.785-2.082-2-0.906-0.16-1.824 0.188-2.758 1.043-0.879 0.852-2.121 1.133-3.719 0.84-1.547-0.32-3.242-1.148-5.082-2.48-1.894-1.414-3.707-3.227-5.441-5.442-1.84-2.375-4.012-3.8-6.52-4.281-2.398-0.453-4.558-0.012-6.48 1.32-1.598 1.122-2.531 2.415-2.797 3.879-0.133 0.774-0.094 1.723 0.117 2.84 0.215 1.094 0.293 1.762 0.242 2-0.027 0.137-0.109 0.297-0.242 0.485-1.039 0.691-1.879 1.25-2.519 1.679-1.172 0.824-1.891 1.957-2.16 3.399l-0.118 1.039c-0.109 2.426 1.25 4.722 4.078 6.883 2.719 2.132 6.082 3.597 10.082 4.398 2.348 0.453 4.68 0.602 7 0.441 4.907-0.402 9.227-1.972 12.961-4.722 3.227-2.371 5.106-4.813 5.637-7.317l0.043-0.164h-0.004zm-0.597 0.043c-0.454 2.321-2.254 4.653-5.403 7-3.679 2.719-7.906 4.239-12.679 4.559-2.266 0.187-4.547 0.051-6.84-0.399-3.891-0.773-7.172-2.203-9.84-4.281-2.692-2.082-3.985-4.215-3.879-6.402l0.121-0.957c0.238-1.281 0.895-2.293 1.961-3.043 1.68-1.145 2.547-1.746 2.598-1.801 0.187-0.184 0.308-0.426 0.359-0.719 0.055-0.371-0.023-1.117-0.238-2.238-0.215-1.066-0.254-1.934-0.121-2.602 0.242-1.332 1.093-2.507 2.558-3.519 1.844-1.254 3.856-1.664 6.043-1.238 2.371 0.48 4.438 1.839 6.199 4.078 1.786 2.242 3.641 4.082 5.559 5.519 1.867 1.387 3.629 2.254 5.281 2.602 1.762 0.348 3.172 0.027 4.242-0.961 0.825-0.746 1.586-1.051 2.278-0.918 0.695 0.16 1.226 0.707 1.601 1.641 0.399 1.011 0.481 2.183 0.239 3.519l-0.039 0.16z" inkscape:connector-curvature="0"/>
      <g id="g274">
        <g id="g290" mask="url(#mask282)">
          <g id="g302">
            <g id="g304" clip-path="url(#clipPath294)">
              <g id="g306" transform="translate(0 -.83529)">
                <g id="g310">
                  <g id="g312" clip-path="url(#clipPath298)">
                    <g id="g314">
                      <path id="path316" style="fill-rule:evenodd;fill:#2e6a53" d="m71.84 18.398c-0.344 0-0.852-0.144-1.52-0.437-1.304-0.613-2.691-1.68-4.16-3.199-1.172-1.227-2.851-3.137-5.039-5.723-1.894-2.027-3.519-3.199-4.879-3.519-1.656-0.375-2.933-0.266-3.84 0.32-0.933 0.586-1.425 1.625-1.48 3.121-0.055 1.387 0.144 2.559 0.601 3.519 0.372 0.774 1 1.559 1.879 2.36 0.641 0.586 1.641 1.254 3 2 0.692 0.375 1.481 0.801 2.36 1.281 0.48 0.293 0.398 0.438-0.239 0.438-0.695 0.027-1.64-0.184-2.843-0.637-0.957-0.375-2.266-1.11-3.918-2.203-1.176-0.774-1.68-1.051-1.52-0.84 0.078 0.133 0.801 0.867 2.16 2.199 0.985 1.016 1.211 1.442 0.68 1.281-0.055-0.027-0.961-0.464-2.719-1.32-1.226-0.586-2.054-0.801-2.48-0.641-1.094 0.457-1.668 1.137-1.723 2.043-0.078 1.2 0.801 2.653 2.641 4.36 2.961 2.773 6.707 4.121 11.242 4.039 2.586-0.078 4.758-0.348 6.519-0.801 1.254-0.344 2.747-0.934 4.481-1.758 1.359-0.64 2.387-1.254 3.078-1.84 0.375-0.32 1.039-0.988 2-2 0.559-0.64 1.027-1.574 1.402-2.8 0.344-1.094 0.477-1.879 0.399-2.36-0.027-0.242-0.242 0.039-0.641 0.84-0.48 1.012-0.894 1.625-1.238 1.84-1.148 0.746-2.547 0.894-4.203 0.437z" inkscape:connector-curvature="0"/>
                    </g>
                  </g>
                </g>
              </g>
            </g>
          </g>
        </g>
      </g>
      <g id="g318">
        <g id="g320">
          <g id="g326">
            <path id="path334" style="fill-rule:evenodd;fill:url(#linearGradient328)" d="m21.48 30.926c5.282-0.16 9.922-1.574 13.922-4.242 3.946-2.64 5.559-5.32 4.84-8.039-0.426-1.601-1.32-2.746-2.68-3.441-0.722-0.375-1.773-0.867-3.16-1.481-0.347-0.265-0.535-0.734-0.562-1.398-0.024-0.402-0.039-1.082-0.039-2.039-0.16-1.922-1.399-3.43-3.719-4.524-2.055-0.957-4.176-1.144-6.359-0.558-2.403 0.64-4.309 2.105-5.723 4.398-2.051 3.336-4.359 5.75-6.918 7.242-2.562 1.493-4.707 1.692-6.441 0.598-1.707-1.062-2.961-1.023-3.758 0.121-0.801 1.121-0.789 2.629 0.039 4.524 0.933 2.132 3.226 4.105 6.879 5.918 4.215 2.082 8.773 3.054 13.679 2.921z" inkscape:connector-curvature="0"/>
          </g>
        </g>
      </g>
      <path id="path336" style="fill-rule:evenodd;fill:#2e6a53" d="m4.441 17.645c0.375 0.242 0.829 0.426 1.36 0.559 1.894 0.453 3.988-0.094 6.281-1.641 2.266-1.547 4.332-3.812 6.199-6.797 1.199-1.949 2.762-3.293 4.68-4.043 1.734-0.664 3.519-0.758 5.359-0.281 0.535 0.109 1.082 0.297 1.641 0.563 1.305 0.613 2.238 1.32 2.801 2.121 0.398 0.613 0.64 1.343 0.718 2.199 0 0.933 0.016 1.598 0.04 2 0.027 0.719 0.253 1.25 0.679 1.598 1.442 0.64 2.524 1.148 3.242 1.519 1.254 0.641 2.094 1.723 2.52 3.242 0.16 0.719 0.148 1.442-0.039 2.16-0.586 2.371-2.668 4.547-6.242 6.52-3.731 2.078-7.813 3.172-12.239 3.277-2.613 0.11-5.281-0.172-8-0.84-3.066-0.773-5.785-1.957-8.16-3.558-2.105-1.442-3.465-2.852-4.082-4.238-0.558-1.282-0.703-2.415-0.437-3.403 0.347-1.332 1.144-1.84 2.398-1.519 0.402 0.082 0.828 0.269 1.281 0.562zm0.36-0.441c-0.453-0.293-0.946-0.504-1.481-0.641-0.851-0.211-1.558-0.133-2.121 0.242-0.504 0.348-0.863 0.895-1.078 1.641-0.266 1.172-0.094 2.414 0.52 3.719 0.668 1.492 2.105 2.988 4.32 4.48 2.398 1.653 5.187 2.879 8.359 3.68 2.586 0.668 5.321 0.961 8.2 0.879 4.562-0.133 8.734-1.25 12.523-3.36 3.68-2.023 5.852-4.304 6.519-6.839 0.211-0.801 0.211-1.598 0-2.399-0.429-1.652-1.374-2.867-2.839-3.641-0.774-0.398-1.817-0.878-3.121-1.441-0.266-0.16-0.414-0.559-0.442-1.199 0-0.371-0.012-1.039-0.039-2-0.16-2.082-1.453-3.68-3.879-4.801-0.562-0.266-1.148-0.48-1.762-0.637h-0.039c-1.972-0.484-3.894-0.363-5.761 0.356-2.051 0.777-3.703 2.176-4.957 4.203-1.789 2.906-3.817 5.133-6.082 6.68-2.188 1.492-4.094 2.011-5.719 1.558-0.375-0.078-0.746-0.238-1.121-0.48z" inkscape:connector-curvature="0"/>
      <path id="path338" style="fill-rule:evenodd;fill:#2e6a53" d="m19.359 28.723c2.856-0.078 5.336-0.414 7.442-1 2.508-0.691 3.414-1.558 2.719-2.597-0.184-0.27-1.211-0.133-3.079 0.398-1.945 0.613-3.054 0.949-3.32 1-1.414 0.215-1.973-0.051-1.68-0.801 0.321-0.851 0.039-1.293-0.839-1.32-2.879-0.078-4.614-0.145-5.2-0.199 1.653-0.692 3.575-1.891 5.758-3.598 0.801-0.668 1.774-1.48 2.922-2.441 0.879-0.746 1.586-1.399 2.117-1.961 0.696-0.719 1.176-1.531 1.442-2.438 0.265-0.961 0.265-1.91 0-2.84-0.348-1.175-1.028-1.91-2.039-2.203-0.989-0.293-2.176-0.117-3.559 0.52-1.203 0.562-2.535 1.844-4 3.844-1.629 2.425-2.922 4.238-3.883 5.437-1.199 1.469-2.387 2.52-3.558 3.16l-1.442 0.559c-1.547 0.586-2.972 0.574-4.277-0.039-0.375-0.16-0.906-0.668-1.602-1.52-0.535-0.64-0.801-0.851-0.801-0.64 0.028 0.425 0.309 1.109 0.84 2.043 0.614 1.039 1.266 1.824 1.961 2.355 1.067 0.777 1.961 1.348 2.68 1.723 1.016 0.558 2.254 1.05 3.719 1.48 2.562 0.801 5.121 1.16 7.679 1.078z" inkscape:connector-curvature="0"/>
      <g id="g340">
        <g id="g342">
          <g id="g348">
            <path id="path358" style="fill-rule:evenodd;fill:url(#linearGradient350)" d="m31.199 26.286c3.684 0.051 7.16-0.883 10.442-2.801 3.519-2.027 6.121-4.785 7.8-8.281 1.625-3.442 1.653-6.051 0.082-7.84-0.933-1.066-2-1.613-3.203-1.641-1.254 0.133-2.16 0.149-2.718 0.039-0.215-0.05-0.801-0.851-1.758-2.398-0.883-1.414-2.336-2.106-4.364-2.078-1.785 0.023-3.292 0.652-4.519 1.879-1.387 1.359-2.106 3.172-2.16 5.437-0.051 3.281-0.653 5.949-1.801 8-1.145 2.055-2.531 2.988-4.156 2.801-1.574-0.184-2.403 0.309-2.481 1.48-0.109 1.149 0.504 2.282 1.84 3.403 1.465 1.277 3.797 1.945 6.996 2z" inkscape:connector-curvature="0"/>
          </g>
        </g>
      </g>
      <path id="path360" style="fill-rule:evenodd;fill:#2e6a53" d="m22.602 19.766c-0.508 0.532-0.625 1.239-0.36 2.117 0.266 0.883 0.824 1.707 1.68 2.481l0.121 0.082c1.547 1.305 3.934 1.984 7.156 2.039 3.707 0.055 7.227-0.879 10.563-2.801 1.547-0.879 2.972-2 4.281-3.359 2.184-2.238 3.637-4.613 4.359-7.121 0.746-2.559 0.508-4.559-0.722-6l-0.559-0.598c-0.879-0.75-1.894-1.121-3.039-1.121-1.172 0.16-1.988 0.188-2.441 0.078-0.133-0.023-0.254-0.09-0.36-0.199-0.133-0.133-0.398-0.586-0.801-1.359-0.398-0.774-0.839-1.36-1.32-1.762-0.906-0.797-2.133-1.184-3.68-1.156-1.839 0-3.437 0.679-4.796 2.039-1.336 1.332-2.043 3.16-2.122 5.48-0.027 2.106-0.308 4.012-0.839 5.719-0.508 1.629-1.188 2.867-2.039 3.719-0.856 0.91-1.789 1.293-2.801 1.16-1.043-0.106-1.801 0.082-2.281 0.562zm1.64 4.278c-0.828-0.746-1.347-1.493-1.562-2.239-0.211-0.773-0.118-1.347 0.281-1.718 0.371-0.403 1-0.547 1.879-0.442 1.176 0.133 2.226-0.293 3.16-1.281 0.906-0.934 1.629-2.238 2.16-3.918 0.535-1.707 0.828-3.641 0.883-5.801 0.023-2.16 0.691-3.906 2-5.242 1.227-1.25 2.719-1.879 4.477-1.879 1.363-0.027 2.468 0.309 3.32 1 0.402 0.375 0.801 0.934 1.203 1.68 0.398 0.773 0.707 1.269 0.918 1.48 0.215 0.16 0.414 0.254 0.601 0.281 0.559 0.106 1.399 0.094 2.52-0.039 1.039 0 1.945 0.332 2.719 1l0.558 0.559c1.121 1.281 1.321 3.148 0.602 5.602-0.719 2.48-2.133 4.8-4.242 6.957-1.199 1.254-2.598 2.347-4.199 3.281-3.227 1.894-6.665 2.801-10.321 2.719-3.144-0.051-5.437-0.692-6.879-1.918l-0.078-0.082z" inkscape:connector-curvature="0"/>
      <g id="g362">
        <g id="g378" mask="url(#mask370)">
          <g id="g390">
            <g id="g392" clip-path="url(#clipPath382)">
              <g id="g394" transform="translate(0 -.83529)">
                <g id="g398">
                  <g id="g400" clip-path="url(#clipPath386)">
                    <g id="g402">
                      <path id="path404" style="fill-rule:evenodd;fill:#2e6a53" d="m42 21.602c2.934-1.895 4.68-4.348 5.242-7.364 0.344-1.863 0.211-3.16-0.402-3.879-0.481-0.531-1.188-0.691-2.121-0.48-0.344 0.082-0.758 0.574-1.239 1.48-0.535 1.016-0.906 1.68-1.121 2-0.265 0.348-0.32-0.011-0.16-1.078 0.215-1.441 0.321-2.203 0.321-2.281-0.024-0.238-0.227 0.145-0.598 1.16-0.563 1.414-1.043 2.442-1.442 3.078-0.558 0.801-1.054 1.348-1.48 1.641-0.426 0.266-0.559 0.199-0.398-0.199 0.105-0.215 0.414-0.813 0.918-1.801 0.48-1.039 0.789-1.879 0.921-2.52 0.188-0.879 0.211-1.652 0.079-2.32-0.161-0.773-0.598-1.574-1.321-2.398-0.746-0.907-1.558-1.336-2.437-1.282-0.883 0.055-1.762 0.563-2.641 1.52-0.719 0.773-1.187 2.199-1.402 4.281-0.133 2.535-0.293 4.442-0.477 5.719-0.215 1.574-0.601 2.84-1.16 3.801l-0.762 0.961c-0.773 0.933-1.734 1.453-2.879 1.558-0.32 0.028-0.894-0.172-1.722-0.597-0.614-0.321-0.864-0.403-0.758-0.243 0.16 0.321 0.613 0.746 1.359 1.282 0.856 0.586 1.614 0.945 2.282 1.078 1.039 0.242 1.785 0.375 2.238 0.402 0.695 0.051 1.64-0.027 2.84-0.242 1.547-0.266 2.8-0.574 3.761-0.918 1.36-0.481 2.879-1.266 4.559-2.359z" inkscape:connector-curvature="0"/>
                    </g>
                  </g>
                </g>
              </g>
            </g>
          </g>
        </g>
      </g>
    </g>
  </g>
<metadata><rdf:RDF><cc:Work><dc:format>image/svg+xml</dc:format><dc:type rdf:resource="http://purl.org/dc/dcmitype/StillImage"/><cc:license rdf:resource="http://creativecommons.org/licenses/publicdomain/"/><dc:publisher><cc:Agent rdf:about="http://openclipart.org/"><dc:title>Openclipart</dc:title></cc:Agent></dc:publisher></cc:Work><cc:License rdf:about="http://creativecommons.org/licenses/publicdomain/"><cc:permits rdf:resource="http://creativecommons.org/ns#Reproduction"/><cc:permits rdf:resource="http://creativecommons.org/ns#Distribution"/><cc:permits rdf:resource="http://creativecommons.org/ns#DerivativeWorks"/></cc:License></rdf:RDF></metadata></svg>
