<?xml version="1.0" ?><svg width="48px" height="48px" viewBox="0 0 48 48" xmlns="http://www.w3.org/2000/svg"><defs><style>.cls-1{fill:#fc663d;}.cls-2{fill:#f7cc94;}.cls-3{fill:#f4b392;}.cls-4{fill:#3f1400;}.cls-5{fill:none;stroke:#3f1400;stroke-linecap:round;stroke-linejoin:round;stroke-width:0.5px;}</style></defs><title/><g id="hair"><path class="cls-1" d="M43.91,44.5H4.09c0-6.87,3.08-12.44,10-12.44H34c6.88,0,10,5.57,10,12.44Z"/><path class="cls-2" d="M27.73,22.1V33.3a3.73,3.73,0,0,1-7.46,0V22.1Z"/><path class="cls-3" d="M31.39,18.37a10.33,10.33,0,0,1-3.66,7.37v2.48a5.83,5.83,0,0,1-7.46,0V25.74a10.33,10.33,0,0,1-3.66-7.37c.45-4.9,3.58-8.71,7.39-8.71S30.94,13.47,31.39,18.37Z"/><path class="cls-2" d="M31.47,17.13a10.06,10.06,0,0,1-.08,1.24,10.33,10.33,0,0,1-3.66,7.37,5.86,5.86,0,0,1-7.46,0,10.33,10.33,0,0,1-3.66-7.37,10.06,10.06,0,0,1-.08-1.24c0-5.5,3.34-10,7.47-10S31.47,11.63,31.47,17.13Z"/><path class="cls-2" d="M34,17.13a2.48,2.48,0,0,1-2.48,2.48c-1.38,0,0-1.11,0-2.48s-1.38-2.49,0-2.49A2.48,2.48,0,0,1,34,17.13Z"/><path class="cls-2" d="M14.05,17.13a2.48,2.48,0,0,0,2.48,2.48c1.38,0,0-1.11,0-2.48s1.38-2.49,0-2.49A2.48,2.48,0,0,0,14.05,17.13Z"/><circle class="cls-4" cx="21.01" cy="14.89" r="0.5"/><circle class="cls-4" cx="26.99" cy="14.89" r="0.5"/><path class="cls-5" d="M19.27,13.39s1.69-2,3.49-1"/><path class="cls-5" d="M28.73,13.39s-1.69-2-3.49-1"/><path class="cls-5" d="M23.5,15.38s-2,5-1,5h1"/><path class="cls-5" d="M23.5,22.35s3,0,4-1"/><path class="cls-4" d="M25.7,25.45c0,.94-.76,3.16-1.7,3.16s-1.7-2.22-1.7-3.16.76-.72,1.7-.72S25.7,24.52,25.7,25.45Z"/><path class="cls-4" d="M32.74,11.27a7.59,7.59,0,0,1-1.05,3.88c-1.33-2.32-4.82-3.88-7.69-3.88s-6.36,1.56-7.69,3.88a7.59,7.59,0,0,1-1-3.88C15.26,7,19.71,3.5,24,3.5S32.74,7,32.74,11.27Z"/></g></svg>