<svg width="301" height="342" xmlns="http://www.w3.org/2000/svg">

 <g label="Layer 1" id="imagebot_13">
  <g label="Layer 1" id="imagebot_43" transform="matrix(1.496, 0, 0, 1.073, -3804.01, 851.9)"/>
  <g label="Layer 1" id="imagebot_42" transform="matrix(1.496, 0, 0, 1.073, -4212.1, 845.9)"/>
  <title label="Layer 1"/>
  <rect label="Layer 1" fill="#685f8e" stroke="#000000" stroke-width="3.18" stroke-miterlimit="4" id="imagebot_41" width="95.94" height="122.8" x="3887" y="-740.5" rx="47.01" ry="7.629" transform="translate(-3.95412, -37.9084) matrix(0.754251, 0.00579052, -0.00565688, 0.77207, -2791.24, 821.139)"/>
  <rect label="Layer 1" fill="#685f8e" stroke="#000000" stroke-width="3.1793" stroke-miterlimit="4" transform="translate(-3.95412, -37.9084) matrix(0.754025, -0.0202282, 0.0197614, 0.771839, -2791.24, 821.139)" ry="7.628" rx="47" y="-605.9" x="3833" height="122.8" width="95.91" id="imagebot_40"/>
  <path label="Layer 1" fill="#ffaa56" stroke="#000000" stroke-width="3.6999" stroke-miterlimit="4" d="M245.41,171.006 C245.682,169.779 261.954,172.552 272.225,174.326 C308.607,173.84 270.471,245.124 256.894,246.9 L211.639,243.58 C205.605,243.117 171.08,187.448 188.834,189.381 L225.588,195.815 C235.342,190.826 243.376,172.62 245.41,171.006 z" id="imagebot_39"/>
  <path label="Layer 1" fill="#bc987c" fill-rule="evenodd" stroke="#000000" stroke-width="3.5" stroke-linecap="round" stroke-linejoin="round" stroke-miterlimit="4" stroke-dashoffset="0" id="imagebot_38" d="M244.209,210.42101C245.562,220.618 254.82201,229.537 264.85699,230.332C286.892,231.127 300.95599,200.50101 294.60199,186.304C285.24899,153.108 272.98901,203.189 261.95401,184.394C251.91901,183.599 242.855,200.22501 244.209,210.42101z" transform="translate(-3.95412, -37.9084) matrix(0.754251, 0, 0, 0.77207, 70.267, 47.1065)"/>
  <path label="Layer 1" fill="#ffaa56" fill-rule="evenodd" stroke="#000000" stroke-width="3.6279" stroke-linecap="round" stroke-linejoin="round" stroke-miterlimit="4" stroke-dashoffset="0" d="M153.172,138.553 C153.172,138.553 153.172,138.553 152.418,138.553 C152.418,138.553 152.418,138.553 151.664,138.553 C151.664,138.553 151.664,138.553 151.664,138.553 L151.664,138.553 C135.07,140.097 119.985,150.134 109.426,164.031 C87.5524,191.826 78.5014,228.885 78.5014,264.4 C78.5014,273.665 76.9929,284.474 80.7642,292.967 C94.3407,301.46 117.723,302.232 132.808,304.548 C137.333,304.548 144.121,304.548 151.664,305.32 L151.664,305.32 C152.418,305.32 153.172,305.32 153.927,305.32 C153.927,305.32 153.927,305.32 153.927,305.32 C161.469,304.548 168.257,304.548 172.029,304.548 C187.868,302.232 211.25,301.46 224.826,292.967 C228.598,284.474 227.089,273.665 227.089,264.4 C226.335,228.885 218.038,191.826 196.165,164.031 C185.605,150.134 170.52,140.097 153.927,138.553 L153.927,138.553 C153.927,138.553 153.927,138.553 153.172,138.553 z" id="imagebot_37"/>
  <rect label="Layer 1" transform="translate(-3.95412, -37.9084) matrix(0.754251, 0, 0, 0.77207, -2791.24, 821.139)" fill="#bc987c" fill-rule="evenodd" stroke="#000000" stroke-width="3.7367" stroke-linecap="round" stroke-linejoin="round" stroke-miterlimit="4" stroke-dashoffset="0" id="imagebot_36" width="242.9" height="186.8" x="3785" y="-943" ry="93.42" rx="121.4"/>
  <path label="Layer 1" fill="#bc987c" fill-rule="evenodd" stroke="#000000" stroke-width="3" stroke-linecap="round" stroke-linejoin="round" stroke-miterlimit="4" stroke-dashoffset="0" d="M42.1533,224.545C49.259,219.912 56.6348,200.481 53.6541,192.72701C50.6734,184.97301 42.9003,180.46899 35.7945,185.10201C28.6888,189.735 15.1557,184.575 10.1364,187.32899C-3.88288,193.08299 35.0475,229.177 42.1533,224.545z" id="imagebot_35" transform="rotate(268, 26.9983, 157.632) matrix(-0.936144, -0.000753588, 0.000753588, 0.914591, 55.6071, -29.006)"/>
  <path label="Layer 1" transform="translate(-3.95412, -37.9084) matrix(0.754251, 0, 0, 0.77207, -2797.49, 821.14)" fill="#cccccc" stroke="#000000" stroke-width="3.7367" stroke-miterlimit="4" d="M4002,-578C4001,-590 3994,-603 3982,-606C3971,-609 3958,-608 3947,-605C3938,-603 3928,-597 3923,-587C3922,-584 3920,-581 3922,-578C3924,-576 3928,-576 3930,-576C3953,-575 3975,-575 3997,-577C3999,-577 4000,-578 4002,-578z" id="imagebot_34"/>
  <path label="Layer 1" transform="translate(-3.95412, -37.9084) matrix(0.754251, 0, 0, 0.77207, -2797.49, 821.14)" fill="#cccccc" stroke="#000000" stroke-width="3.7367" stroke-miterlimit="4" d="M3915,-578C3914,-591 3906,-603 3894,-608C3882,-611 3869,-609 3857,-606C3847,-603 3836,-598 3831,-588C3831,-584 3828,-581 3829,-578C3832,-575 3836,-576 3839,-575C3863,-574 3887,-574 3911,-576C3912,-576 3914,-577 3915,-578z" id="imagebot_33"/>
  <path label="Layer 1" fill="#000000" fill-rule="evenodd" id="imagebot_32" d="M55,152.5C55,153.89999 53.88,155 52.5,155C51.12,155 50,153.89999 50,152.5C50,151.10001 51.12,150 52.5,150C53.88,150 55,151.10001 55,152.5z" transform="translate(-3.95412, -37.9084) matrix(2.25446, 0, 0, 2.30772, 34.9362, -187.956)"/>
  <path label="Layer 1" fill="#000000" fill-rule="evenodd" id="imagebot_31" d="M55,152.5C55,153.89999 53.88,155 52.5,155C51.12,155 50,153.89999 50,152.5C50,151.10001 51.12,150 52.5,150C53.88,150 55,151.10001 55,152.5z" transform="translate(-3.95412, -37.9084) matrix(2.25446, 0, 0, 2.30772, 83.9626, -185.64)"/>
  <path label="Layer 1" fill="#7f3f00" fill-rule="evenodd" stroke="#958f8f" stroke-width="12.7636" stroke-miterlimit="4" id="imagebot_30" d="M-334,-11.33C-342.39999,-3.036 -416.79999,-39.72 -428.5,-37.93C-440.10001,-36.14 -500.20001,21.21 -510.60001,15.81C-521.09998,10.42 -509.20001,-71.72 -514.5,-82.24C-519.79999,-92.76 -592.90002,-132.10001 -591,-143.8C-589.09998,-155.39999 -507.29999,-169.5 -499,-177.8C-490.60001,-186.10001 -475.70001,-267.70001 -464.10001,-269.5C-452.39999,-271.29999 -413.79999,-197.89999 -403.29999,-192.5C-392.79999,-187.10001 -310.60001,-198.2 -305.29999,-187.7C-299.89999,-177.2 -357.79999,-117.7 -359.70001,-106.1C-361.60001,-94.45 -325.60001,-19.62 -334,-11.33z" transform="translate(-3.95412, -37.9084) matrix(0.13771, 0, 0, 0.210072, 243.055, 325.64)" stroke-opacity="0"/>
  <path label="Layer 1" fill="#7f0000" fill-rule="evenodd" stroke="#958f8f" stroke-width="18.5539" stroke-miterlimit="4" id="imagebot_29" d="M-334,-11.33C-342.39999,-3.036 -416.79999,-39.72 -428.5,-37.93C-440.10001,-36.14 -500.20001,21.21 -510.60001,15.81C-521.09998,10.42 -509.20001,-71.72 -514.5,-82.24C-519.79999,-92.76 -592.90002,-132.10001 -591,-143.8C-589.09998,-155.39999 -507.29999,-169.5 -499,-177.8C-490.60001,-186.10001 -475.70001,-267.70001 -464.10001,-269.5C-452.39999,-271.29999 -413.79999,-197.89999 -403.29999,-192.5C-392.79999,-187.10001 -310.60001,-198.2 -305.29999,-187.7C-299.89999,-177.2 -357.79999,-117.7 -359.70001,-106.1C-361.60001,-94.45 -325.60001,-19.62 -334,-11.33z" transform="translate(-3.95412, -37.9084) matrix(-0.0947507, 0, 0, 0.14454, 171.457, 302.732)" stroke-opacity="0"/>
  <path label="Layer 1" fill="#ffffaa" fill-rule="evenodd" stroke="#958f8f" stroke-width="29.4429" stroke-miterlimit="4" id="imagebot_28" d="M-334,-11.33C-342.39999,-3.036 -416.79999,-39.72 -428.5,-37.93C-440.10001,-36.14 -500.20001,21.21 -510.60001,15.81C-521.09998,10.42 -509.20001,-71.72 -514.5,-82.24C-519.79999,-92.76 -592.90002,-132.10001 -591,-143.8C-589.09998,-155.39999 -507.29999,-169.5 -499,-177.8C-490.60001,-186.10001 -475.70001,-267.70001 -464.10001,-269.5C-452.39999,-271.29999 -413.79999,-197.89999 -403.29999,-192.5C-392.79999,-187.10001 -310.60001,-198.2 -305.29999,-187.7C-299.89999,-177.2 -357.79999,-117.7 -359.70001,-106.1C-361.60001,-94.45 -325.60001,-19.62 -334,-11.33z" transform="translate(-3.95412, -37.9084) matrix(0.0596958, 0, 0, 0.0910643, 236.546, 330.109)" stroke-opacity="0"/>
  <path label="Layer 1" transform="translate(-3.95412, -37.9084) matrix(0.754251, 0, 0, 0.77207, -2791.24, 821.139)" fill="#2e2321" fill-rule="evenodd" d="M3916,-987C3923,-987 3930,-983 3933,-975C3933,-975 3933,-975 3935,-975C3937,-980 3942,-983 3947,-983C3958,-983 3965,-975 3965,-966C3965,-966 3965,-966 3965,-966C3969,-971 3972,-971 3977,-971C3986,-971 3993,-963 3993,-954C3993,-954 3993,-954 3993,-951C3996,-954 3998,-954 4000,-954C4010,-954 4017,-946 4017,-937C4017,-934 4017,-932 4017,-929C4017,-929 4021,-929 4023,-929C4028,-929 4035,-924 4035,-917C4035,-917 4035,-917 4035,-915C4035,-915 4035,-912 4035,-910C4035,-908 4035,-905 4035,-903L4035,-903C4035,-903 4035,-903 4035,-903C4040,-903 4042,-898 4042,-891C4042,-888 4042,-886 4040,-883C4042,-881 4042,-878 4042,-876C4042,-869 4037,-861 4030,-861C4023,-861 4017,-869 4017,-876C4017,-876 4017,-876 4017,-876C4017,-876 4017,-876 4017,-876C4008,-876 4000,-883 4000,-893C4000,-893 3998,-895 3998,-898C3996,-895 3993,-895 3991,-895C3989,-895 3986,-895 3984,-898C3977,-898 3969,-905 3969,-912C3969,-912 3969,-912 3967,-912C3967,-905 3960,-900 3952,-900C3945,-900 3937,-905 3935,-912C3935,-905 3928,-898 3918,-898C3914,-898 3909,-900 3904,-908C3904,-898 3897,-891 3889,-891C3884,-891 3879,-891 3877,-893C3877,-886 3870,-878 3863,-878C3858,-878 3853,-881 3851,-881C3851,-881 3851,-881 3851,-881C3851,-881 3851,-878 3851,-878C3851,-869 3843,-861 3834,-861C3832,-861 3829,-861 3826,-864C3826,-864 3826,-864 3826,-864C3829,-861 3832,-857 3832,-852C3832,-845 3826,-840 3819,-840C3819,-840 3819,-840 3819,-840C3816,-840 3814,-837 3811,-837C3809,-837 3807,-840 3804,-840C3802,-832 3795,-825 3788,-825C3778,-825 3771,-832 3771,-842C3771,-847 3773,-852 3776,-854C3776,-857 3776,-857 3776,-859C3776,-859 3776,-859 3776,-859C3769,-859 3766,-866 3766,-871C3766,-876 3769,-878 3769,-881C3769,-883 3766,-886 3766,-888C3766,-893 3769,-898 3773,-900C3773,-900 3776,-903 3776,-903C3773,-905 3773,-910 3773,-912C3773,-920 3778,-924 3785,-924C3785,-924 3788,-924 3790,-924C3788,-927 3788,-929 3788,-932C3788,-941 3795,-949 3804,-949C3807,-949 3809,-946 3811,-946C3811,-946 3811,-946 3811,-946C3811,-946 3811,-949 3811,-951C3811,-961 3819,-968 3829,-968C3834,-968 3836,-966 3841,-963C3841,-973 3848,-980 3858,-980C3863,-980 3867,-978 3872,-971C3872,-973 3872,-973 3872,-973C3874,-980 3882,-985 3889,-985C3895,-985 3899,-983 3902,-978C3904,-983 3911,-987 3916,-987zM3819,-881C3819,-881 3819,-881 3819,-881C3819,-881 3819,-881 3819,-881C3819,-881 3819,-881 3819,-881z" id="imagebot_27"/>
  <path label="Layer 1" id="imagebot_26" d="M214,183C145,229 128,167 127,166.5L214,183z" stroke-opacity="null" stroke-linecap="null" stroke-linejoin="null" stroke-dasharray="null" stroke-width="null" fill="#000000" transform="translate(-3.95412, -37.9084) matrix(0.754251, 0, 0, 0.77207, 49.267, 59.1065)"/>
  <path label="Layer 1" fill="#ffaa56" stroke="#000000" stroke-width="3.7364px" d="M94.184,287.23801C68.4952,305.19601 28.0298,248.153 12.016,225.88699C3.95412,213.93401 54.5645,178.356 62.2505,189.75101C66.3584,195.472 72.0137,203.30299 77.7846,212.112L86.0123,224.342C121.583,208.97501 129.83701,241.45399 126.342,249.64799C128.84801,261.841 100.606,282.74899 94.184,287.23801z" id="imagebot_25" transform="translate(-3.95412, -37.9084) matrix(0.914564, 0, 0, 0.936171, 0.337823, 15.9429)"/>
  <path stroke-width="5" stroke="#000000" transform="matrix(0.709353, 0, 0, 0.501888, 34.5476, -39.6003)" label="Layer 1" fill-rule="evenodd" fill="#7f0000" d="M330.64001,292.84C307.24002,275.51 297.65001,255.08 271.87001,240.02C310.74001,232.58 317.99001,234.56 342.39001,248.06C366.93001,261.64 378.25001,317.39 330.64001,292.84z" id="imagebot_49"/>
  <path stroke-width="4.5" stroke="#000000" transform="matrix(0.709353, 0, 0, 0.501888, 34.5476, -39.6003)" label="Layer 1" fill-rule="evenodd" fill="#bf0000" d="M289.67999,209.96001C215.55,174.37001 128.46999,196.94001 56.06999,236.44001C41.93599,244.16001 28.35899,252.52001 15.54799,261.21001C17.48199,260.75001 18.07599,234.28001 19.13199,228.37001C16.93199,163.04 39.43399,115.56001 102.29999,92.40001C134.33999,89.00001 171.47999,79.10101 203.23999,87.21201C225.63999,97.69901 230.69,103.92001 255.57999,128.96001C259.91999,138.07001 288.71999,209.86001 289.67999,209.96001z" id="imagebot_48"/>
  <path stroke="#000000" stroke-width="4.5" transform="matrix(0.709353, 0, 0, 0.501888, 34.5476, -39.6003)" label="Layer 1" fill-rule="evenodd" fill="#bf0000" d="M346.98001,251.25C309.60001,225.57 276.49001,192.16 237.42001,189.19C179.99001,185.26 112.12001,205.14 52.28001,237.93C80.83801,276.1 91.27102,309.45 149.43002,289.44C208.40002,269.14 290.02001,210.02 346.98002,251.25z" id="imagebot_47"/>
  <path stroke="#000000" stroke-width="4" transform="matrix(0.709353, 0, 0, 0.501888, 34.5476, -39.6003)" label="Layer 1" fill-rule="evenodd" fill="#ffffff" d="M290.23,209.5 C217.9,175.06 146.2,201.8 71.67,229.72 C80.9,115.63 76.459,84.56 194.96,85.79 C218.5,88.822 232.28,103.07 257.16,128.11 C261.51,137.23 285.67,192.01 290.23,209.5 L290.23,209.5 z" id="imagebot_46"/>
  <metadata>image/svg+xmlOpenclipartBaseball Cap2011-08-31T09:45:06Baseball Caphttps://openclipart.org/detail/158683/baseball-cap-by-tuxwrenchtuxwrenchbaseballcapgreyhead</metadata>
  <g transform="translate(-203, -142) matrix(0.509279, 0, 0, 0.509279, 341.9, 149.415)" id="imagebot_97">
   <title/>

   <metadata id="imagebot_96">image/svg+xmlRawr DinosaurTavintavinsorigami.comdinsosaurgreencomicthick outline</metadata>
   <g transform="matrix(0.120339, 0, 0, 0.120339, -2.67551, -2.49324)" id="imagebot_54" label="Layer 1">
    <g transform="matrix(1.067461,0,0,1.067461,44.967152,-30.54076)" id="imagebot_55">
     <g id="imagebot_56">
      <path fill="#8fc34b" fill-rule="evenodd" stroke="#000000" stroke-width="11.14011" stroke-linejoin="round" stroke-miterlimit="4" id="imagebot_95" d="M132.02124,739.32306C128.1691,704.58698 143.35477,613.54431 106.75681,628.67578C84.76579,644.4964 78.23331,683.43463 86.07166,714.47662C53.07652,718.12494 40.26603,751.07357 40.14606,746.09433C55.96611,746.29524 111.40635,744.00284 132.02124,739.32305z"/>
      <path fill="#1c8449" fill-rule="evenodd" stroke="#000000" stroke-width="7.62448" stroke-linejoin="round" stroke-miterlimit="4" id="imagebot_94" d="M391.78888,198.16624L422.22405,255.30901C462.95079,253.90099 454.46157,180.98191 391.78888,198.16624z"/>
      <path fill="#1c8449" fill-rule="evenodd" stroke="#000000" stroke-width="7.62448" stroke-linejoin="round" stroke-miterlimit="4" id="imagebot_93" d="M424.3909,264.84827L438.22227,313.35705C473.00591,316.16086 480.09045,251.81303 424.3909,264.84827z"/>
      <path fill="#1c8449" fill-rule="evenodd" stroke="#000000" stroke-width="5.67187" stroke-linejoin="round" stroke-miterlimit="4" id="imagebot_92" d="M442.3342,326.79193L451.51641,366.66671C486.30004,369.47052 498.03375,313.75669 442.3342,326.79193z"/>
      <path fill="#1c8449" fill-rule="evenodd" stroke="#000000" stroke-width="3.9982" stroke-linejoin="round" stroke-miterlimit="4" id="imagebot_91" d="M353.9906,148.6214L388.41068,180.52633C430.6626,185.96983 382.69083,97.75582 353.9906,148.6214z"/>
      <path fill="#1c8449" fill-rule="evenodd" stroke="#000000" stroke-width="7.90343" stroke-linejoin="round" stroke-miterlimit="4" id="imagebot_90" d="M264.21899,123.89948L333.83927,136.54395C347.06849,138.51962 326.51735,106.29909 315.81471,103.71381C309.24789,102.12754 287.1593,109.37784 264.21899,123.89948z"/>
      <path fill="#1c8449" fill-rule="evenodd" stroke="#000000" stroke-width="8.74026" stroke-linejoin="round" stroke-miterlimit="4" id="imagebot_89" d="M197.35303,134.245L247.04867,124.97239C260.27789,126.94806 238.02453,108.51025 227.36374,105.75739C216.81647,103.03385 212.18748,117.40739 197.35303,134.245z"/>
      <path fill="#1c8449" fill-rule="evenodd" stroke="#000000" stroke-width="5.67187" stroke-linejoin="round" stroke-miterlimit="4" id="imagebot_88" d="M471.64801,553.00543L468.15032,591.47132C499.98161,597.0307 513.0907,553.27657 471.64801,553.00543z"/>
      <path fill="#1c8449" fill-rule="evenodd" stroke="#000000" stroke-width="4.92802" stroke-linejoin="round" stroke-miterlimit="4" id="imagebot_87" d="M476.9725,622.27185L525.60341,641.48301C541.52352,642.46302 516.79099,620.72077 512.35336,614.77179C505.63377,605.76385 482.31708,611.43373 476.9725,622.27185z"/>
      <path fill="#1c8449" fill-rule="evenodd" stroke="#000000" stroke-width="4.09119" stroke-linejoin="round" stroke-miterlimit="4" id="imagebot_86" d="M540.92529,639.61249L584.39034,656.47551C579.1208,650.46942 570.57803,626.3967 565.71519,626.52482C560.42556,630.02034 546.1688,634.77995 540.92529,639.61249z"/>
      <path fill="#1c8449" fill-rule="evenodd" stroke="#000000" stroke-width="4.09119" stroke-linejoin="round" stroke-miterlimit="4" id="imagebot_85" d="M587.58136,657.10144L634.33385,667.38967C629.06431,661.38358 608.31121,636.37161 603.44828,636.49973C598.15875,639.99525 592.82486,652.2689 587.58136,657.10144z"/>
      <path fill="#1c8449" fill-rule="evenodd" stroke="#000000" stroke-width="4.09119" stroke-linejoin="round" stroke-miterlimit="4" id="imagebot_84" d="M653.77802,675.32257L697.24306,682.79304C688.28029,660.05323 673.68052,650.30361 653.77802,675.32257z"/>
      <path fill="#000000" fill-rule="evenodd" stroke="#000000" stroke-width="0.92982px" id="imagebot_83" d="M329.58835,459.81036C310.91655,437.49334 289.22545,466.05324 273.13537,447.19145C275.3978,469.71812 256.17861,468.8267 248.56166,453.50091L233.95027,482.39159C275.7197,484.75454 298.89441,468.52285 329.58835,459.81036z"/>
      <path fill="#8fc34b" fill-rule="evenodd" stroke="#000000" stroke-width="13.76126" stroke-linejoin="round" stroke-miterlimit="4" id="imagebot_82" d="M80.0688,327.323 C74.1413,280.653 88.6407,241.969 111.886,211.23 C135.032,184.647 163.11,157.078 192.329,141.834 C264.404,104.739 355.205,132.576 405.43,202.064 C445.426,314.157 481.862,442.628 421.488,491.223 C449.985,481.854 451.136,413.783 502.734,392.602 C528.525,423.652 517.344,475.776 452.014,541.004 C466.314,551.88 478.489,567.616 475.495,618.023 L463.285,627.415 L494.28,630.233 L711.248,695.042 C622.879,716.698 440.329,772.054 428.532,707.252 L433.229,724.628 L438.864,738.717 L327.563,739.187 C336.417,721.946 332.349,705.418 353.392,704.434 C356.166,604.292 390.749,629.924 401.764,614.266 C401.764,614.266 371.898,611.807 355.271,663.107 L348.696,697.859 C339.068,706.939 327.66,705.332 321.457,734.96 L111.534,739.656 C112.478,681.912 127.064,668.975 116.673,558.974 C113.433,524.678 114.015,492.901 110.76,463.286 C105.136,412.127 94.5798,367.419 80.0688,327.323 L80.0688,327.323 z"/>
      <path fill="#000000" fill-rule="evenodd" stroke="#000000" stroke-width="0.92982px" id="imagebot_81" d="M134.984,349.724 C152.078,392.406 165.086,435.081 160.554,484.547 C226.3,491.887 306.613,486.61 377.068,449.015 C385.571,456.319 389.621,452.336 392.562,445.119 C394.536,440.273 396.374,433.422 397.358,429.6 C410.534,377.861 389.726,308.538 369.762,283.973 C161.872,308.973 181.18,321.223 136.312,350.056 L134.984,349.724 z"/>
      <path fill="#cb1d3b" fill-rule="evenodd" stroke="#cb1d3b" stroke-width="12.92443" stroke-miterlimit="4" id="imagebot_80" d="M383.71689,357.19864L383.16672,420.72948C355.52379,462.47379 305.90746,469.78745 256.74962,475.67353C261.39535,431.5468 230.87715,367.64491 383.71689,357.19864z"/>
      <path fill="#ffffff" fill-rule="evenodd" stroke="#000000" stroke-width="2.66113" stroke-miterlimit="4" id="imagebot_79" d="M147.19676,342.58478C188.41323,323.32978 220.80715,300.67582 307.91232,295.6835C301.47809,308.74213 305.62525,322.27652 299.27368,330.23663C294.7877,326.66353 291.72358,322.3795 289.10541,317.87247C286.29002,313.49938 280.00745,311.6374 278.40101,314.51676C276.17717,318.50297 278.80325,328.83473 275.10398,329.57437C249.18045,299.31126 242.89518,328.86205 242.09647,346.08177C226.23048,338.22739 223.93523,331.41691 225.21159,324.88118C225.21159,324.88118 206.52026,321.34377 209.2528,345.99624C203.17144,346.69908 197.18436,347.07239 193.70704,338.66138C181.0026,322.45021 164.20986,360.96457 168.93853,376.97418C147.53763,377.1758 148.21927,354.73365 147.19676,342.58478z"/>
      <path fill="#000000" fill-rule="evenodd" stroke="#000000" stroke-width="1.30174" stroke-linejoin="round" stroke-miterlimit="4" id="imagebot_78" d="M116.50711,310.18439C113.75682,290.75779 134.86987,233.67564 171.33466,284.98638C188.98432,307.80572 149.02515,337.90749 116.50711,310.18439z"/>
      <path fill="#ffffff" fill-rule="evenodd" stroke="#ffffff" stroke-width="1.4877" stroke-linejoin="round" stroke-miterlimit="4" id="imagebot_77" d="M141.95743,293.60269C173.61429,294.42597 149.30772,269.39688 142.77549,280.14707C141.62484,282.30122 141.95743,286.5366 141.95743,293.60269z"/>
      <path fill="#000000" fill-rule="evenodd" stroke="#000000" stroke-width="0.92982px" id="imagebot_76" d="M331.36188,192.93619C319.94738,177.59263 301.46749,170.96077 282.82758,177.40539C274.42596,180.39311 267.73129,186.59998 262.03022,194.93814C255.55378,204.6347 253.01176,216.34513 254.21168,227.70171C257.66418,252.45548 276.33198,267.76762 299.8577,268.32225C316.8775,266.90606 333.37335,253.8317 337.343,228.02848C338.49448,214.94686 336.07324,201.46169 331.36187,192.93619z"/>
      <path fill="#ffffff" fill-rule="evenodd" stroke="#ffffff" stroke-width="1.85963" stroke-linejoin="round" stroke-miterlimit="4" id="imagebot_75" d="M295.37692,210.74953C311.90782,212.96539 314.71373,191.81726 309.47403,186.20083C304.59883,183.03875 295.9827,184.5435 291.2239,189.50843C284.88619,195.48222 286.13409,202.46935 289.39961,206.10047C295.0063,204.54238 296.93092,205.98327 295.37692,210.74953z"/>
      <path fill="none" fill-rule="evenodd" stroke="#000000" stroke-width="3.25435" stroke-miterlimit="4" id="imagebot_74" d="M337.81378,178.45142C317.49835,147.33524 277.70143,148.83932 265.49109,164.3626"/>
      <path fill="#ffffff" fill-rule="evenodd" stroke="#000000" stroke-width="8.01315" stroke-miterlimit="4" id="imagebot_73" d="M360.70749,284.76227C364.66376,319.09366 358.18816,358.0276 340.07546,368.50396C327.27479,339.55757 319.58531,310.89973 290.61934,298.1124C312.77582,284.0125 336.68077,283.90025 360.70749,284.76227z"/>
      <path fill="#000000" fill-rule="evenodd" stroke="#000000" stroke-width="4.27715" stroke-linejoin="round" stroke-miterlimit="4" id="imagebot_72" d="M127.014,356.365 C193.547,300.314 276.908,278.97 371.755,281.316 L369.098,285.965 C287.328,289.885 207.022,309.278 127.014,356.365 L127.014,356.365 z"/>
      <path fill="#000000" fill-rule="evenodd" stroke-width="1px" id="imagebot_71" d="M370.688,283.648 C402.83,378.903 401.381,407.469 389.285,444.979 C389.232,439.376 384.265,446.502 384.247,440.963 C384.074,387.725 378.895,336.29 362.234,288.344 L370.688,283.648 z"/>
      <path fill="#ffffff" fill-rule="evenodd" stroke="#000000" stroke-width="3.02023" stroke-linejoin="round" stroke-miterlimit="4" id="imagebot_70" d="M194.123,486.556 C191.301,473.819 181.299,462.97 172.916,453.41 C174.409,475.372 162.598,473.948 159.223,485.005 L194.123,486.556 z"/>
      <path fill="#ffffff" fill-rule="evenodd" stroke="#000000" stroke-width="2.38545" stroke-linejoin="round" stroke-miterlimit="4" id="imagebot_69" d="M234.225,482.785 C227.217,479.072 222.668,475.299 223.725,472.187 C224.564,469.718 223.277,467.513 221.409,465.334 C212.843,450.923 207.034,479.126 206.94,486.887 L234.225,482.785 z"/>
      <path fill="#ffffff" fill-rule="evenodd" stroke="#000000" stroke-width="2.38545" stroke-linejoin="round" stroke-miterlimit="4" id="imagebot_68" d="M265.857,477.129 C259.365,471.772 255.305,464.833 250.384,459.013 C235.007,467.305 240.705,474.753 240.897,481.563 L265.857,477.129 z"/>
      <path fill="#000000" fill-rule="evenodd" stroke="#000000" stroke-width="4.27715" stroke-linejoin="round" stroke-miterlimit="4" id="imagebot_67" d="M159.5367,484.20621C243.16827,487.57743 299.27786,491.87706 380.25639,449.33476L378.23163,442.08634C306.26645,481.10911 252.36526,483.01498 159.5367,484.20621z"/>
      <path fill="#ffffff" fill-rule="evenodd" stroke="#000000" stroke-width="5.17535" stroke-linejoin="round" stroke-miterlimit="4" id="imagebot_66" d="M375.55542,451.78625C364.24069,388.60366 342.21095,398.67638 342.49994,459.47421C348.71705,454.90747 369.33831,452.15731 375.55542,451.78625z"/>
      <path fill="#000000" fill-rule="evenodd" stroke="#000000" stroke-width="0.92982px" id="imagebot_65" d="M351.173,463.463 C321.19,445.999 316.075,461.495 278.781,445.531 L269.483,484.052 L351.173,463.463 z"/>
      <path fill="#ffffff" fill-rule="evenodd" stroke="#000000" stroke-width="2.38545" stroke-linejoin="round" stroke-miterlimit="4" id="imagebot_64" d="M294.18277,473.95712C295.32839,465.61122 285.95549,462.65801 281.03444,456.8373C265.65753,465.12906 267.37016,469.58905 267.5617,476.39859C273.77881,471.83186 287.96575,474.32817 294.18277,473.95712z"/>
      <path fill="#009143" fill-rule="evenodd" stroke="#000000" stroke-width="8.20934" stroke-linejoin="round" stroke-miterlimit="4" id="imagebot_63" d="M320.208,726.218 L310.35,726.781 L194.958,733.375 C191.11,689.991 174.446,659.562 179.489,630.407 C192.08,557.616 285.979,541.143 317.705,609.707 C328.667,633.399 330.608,667.199 330.888,704.752 C330.932,710.624 314.188,715.929 317.006,725.161 L320.208,726.218 z"/>
      <path fill="none" fill-rule="evenodd" stroke="#000000" stroke-width="4.27715" stroke-linejoin="round" stroke-miterlimit="4" id="imagebot_62" d="M220.40686,605.81244L290.85095,591.72362"/>
      <path fill="none" fill-rule="evenodd" stroke="#000000" stroke-width="4.27715" stroke-linejoin="round" stroke-miterlimit="4" id="imagebot_61" d="M258.44672,698.3291L328.89081,684.24023"/>
      <path fill="none" fill-rule="evenodd" stroke="#000000" stroke-width="5.16791" stroke-linejoin="round" stroke-miterlimit="4" id="imagebot_60" d="M190.71555,645.49304L313.02826,631.87976"/>
      <path fill="none" fill-rule="evenodd" stroke="#000000" stroke-width="4.27715" stroke-linejoin="round" stroke-miterlimit="4" id="imagebot_59" d="M252.32304,672.61597L323.74326,664.86915"/>
      <path fill="none" fill-rule="evenodd" stroke="#000000" stroke-width="4.27715" stroke-linejoin="round" stroke-miterlimit="4" id="imagebot_58" d="M216.18021,722.74976L286.6243,708.66089"/>
      <path fill="#8fc34b" fill-rule="evenodd" stroke="#000000" stroke-width="11.14011" stroke-linejoin="round" stroke-miterlimit="4" id="imagebot_57" d="M114.73974,526.85254L112.3159,513.95142C111.63721,465.41842 105.75548,542.2318 111.003,453.29802C113.49735,411.02439 74.05112,384.45386 28.1771,391.25545C20.73178,455.66757 125.52613,489.97382 114.73974,526.85254z"/>
     </g>
    </g>
   </g>
  </g>
 </g>
 <metadata id="imagebot_5">image/svg+xmlOpenclipart</metadata>
</svg>