<svg id="svg4156" xmlns="http://www.w3.org/2000/svg" viewBox="0 0 868 1052"><title>fly 10</title><path id="path4168" d="M100.63,1049.8c-2.77-4.28-2-27.53,1-31.11s3-6.38.15-9.49l-2.25-2.41,3.71-3.22c4.75-4.13,6-7.35,4.22-10.62-1.92-3.48-1.79-4.23,1.5-8.37,4.36-5.49,4.86-9.13,1.66-12.09-3.58-3.32-3.32-4.36,2.5-10,6.41-6.25,7.28-8.34,5.35-13-1.75-4.2-1.27-5.39,4.48-11,4.75-4.61,5-5.73,1.58-8s-3.28-6,.1-8.29c10.76-7.46,10.88-8.86,4.87-57.3-4.72-38-6-56.47-4.68-64.62.64-3.78,1.64-14.08,2.23-22.88s1.53-18.93,2.09-22.5,1.64-11.79,2.41-18.26,1.59-12.11,1.85-12.53c.45-.73,4.79-20,6.14-27.21.7-3.76,8.12-28.2,9.56-31.5.48-1.1,2.28-6.5,4-12s4.27-12.48,5.66-15.5,4.06-9.33,5.92-14,4.24-10.08,5.28-12a80.64,80.64,0,0,0,4-9.39,34.31,34.31,0,0,1,3.42-7.5c1.58-1.88,5.68-11.38,5.72-13.3a22.08,22.08,0,0,1,2-5.31,23.39,23.39,0,0,0,2-5.13,4.44,4.44,0,0,1,1.63-2.45c.88-.73,3-4.27,4.65-7.87a85.37,85.37,0,0,1,4.79-9c1-1.38,3.07-5,4.71-8,6.58-12.11,17.2-28.85,21.43-33.79,1.55-1.8,2.82-4.09,2.82-5.09s1.15-3.12,2.56-4.71,5.85-7,9.87-11.91,8.27-9.86,9.44-10.91,2.13-2.51,2.13-3.25c0-1.85,16.2-17.95,18.93-18.82,6.62-2.1-1.08-8.79-16.14-14-2.6-.9-7.37-2.92-10.61-4.49a71.83,71.83,0,0,0-9.92-3.94c-2.21-.6-4.56-1.73-5.21-2.51s-4.64-2.86-8.87-4.6c-7.48-3.1-18-8.86-21.32-11.68a49.94,49.94,0,0,0-7-4.09,45.3,45.3,0,0,1-7.64-4.69c-7-6.25-11.28-11.09-11.77-13.39-.9-4.24-12.51-38.58-14.4-42.61-1.41-3-5-14.25-5-15.72,0-.7-1.6-5.11-3.55-9.78A141.49,141.49,0,0,1,143,308c-1-4.13-2.84-10.2-4-13.5-4.09-11.61-6-20.1-6.9-30.5-1.34-15.73-3.79-21.43-9.87-23-7.09-1.79-8.61-3.51-5.69-6.44,1.55-1.57-.37-6.63-2.5-6.63a9.25,9.25,0,0,1-3-2,9.78,9.78,0,0,0-6.58-2c-6.57,0-10.24-3.14-6.43-5.5,4.79-3-4.71-10.5-13.22-10.5-6.56,0-9.65-3.27-6.28-6.64,2.12-2.12,1.87-5.11-.5-5.86-1.1-.35-2-1.05-2-1.55,0-1.55-7-3.95-11.46-3.95-5.44,0-8.41-2.79-6.78-6.37S52,175,45.23,175c-8.34,0-9.22-.59-9.25-5.86,0-6-6.13-9.61-13-7.77C17,162.91,12.06,157.61,17,155c4.2-2.25-.5-5-8.53-5-8.45,0-11.61-7-3.52-7.82,3-.3,3.18-.54,2.53-3-1.29-4.88-1.07-5.67,1.65-6S17,139.55,17,143.38c0,.86.45,1.57,1,1.57a.94.94,0,0,0,1-.88c0-4.52,8.81-.87,10.58,4.38.73,2.2,2.07,4.45,3,5a39.3,39.3,0,0,1,3.71,2.77c1.51,1.28,3,1.59,5.42,1.13,4.08-.76,5.79.5,8.5,6.26,2.58,5.48,9.42,9.81,13.94,8.82,3.76-.83,6.4,1.31,9,7.23,2.07,4.81,8.23,9.29,12.75,9.29,3.41,0,5.94,2.08,9.13,7.5,4.39,7.44,7,9.5,11.78,9.5,4.4,0,8.16,4.57,8.24,10,0,2.38,3.71,4.23,6,3,3.44-1.84,5.91-.65,12.84,6.19,2.11,2.08,8.2,11.88,8.2,13.19a28.36,28.36,0,0,0,2.34,6.15A174.1,174.1,0,0,1,155,273c1.22,4.68,3.7,13,5.51,18.5s3.61,11.58,4,13.5a45.76,45.76,0,0,0,2.5,7.5,116.14,116.14,0,0,1,3.9,11.5c1.18,4.13,2.61,8.85,3.19,10.5s1.71,5.43,2.53,8.39a37.64,37.64,0,0,0,2.8,7.5,20.63,20.63,0,0,1,2,6.11,68.94,68.94,0,0,0,1.59,7,61,61,0,0,1,1.51,8.76c.61,5.88,4.95,9.74,10.93,9.74,1.74,0,12.47,4.2,16.68,6.53a11.57,11.57,0,0,0,4.09,1.47A8.5,8.5,0,0,1,220.1,392c1.32,1.14,5.25,4.18,8.73,6.75s8.88,6.61,12,9,9.65,6.85,14.51,10,11,7.21,13.76,9c9.19,6.1,13.9,4.4,13.9-5,0-1.27,2.7-7.16,6-13.09s6-11,6-11.24a92,92,0,0,1,6-7.85c7.52-9.26,7.58-8.66-2.07-18.69-4.45-4.61-9.28-10-10.75-12.08s-6.47-8.7-11.11-14.81c-13.41-17.69-24.06-36.85-25.56-46a34,34,0,0,0-2.66-8.3c-5.5-10.85-4.19-19.84,3.36-23.17,2.81-1.24,13-10.52,31.56-28.68,31.09-30.45,38.3-36.62,50.09-42.9,11.06-5.89,12.55-9.16,6.11-13.48-4.8-3.23-5.78-7-2.58-9.94a13.05,13.05,0,0,0,2.62-2.92c0-1.74-2.29-5.78-5.39-9.48-4.14-5-4.72-9.2-1.61-11.87,4.29-3.66,2.49-12.18-4.53-21.53-5.29-7-5.59-9.71-1.46-13,4.78-3.73,3.49-10.63-3.14-16.85-5.7-5.33-6.36-8.82-2.38-12.51,3.2-3,2.6-7-2.11-13.93-3.93-5.83-4.13-7.63-1.3-11.61a7.93,7.93,0,0,0,1.54-6.65c-.3-2.05-.56-4.23-.58-4.84s-2.06-3.21-4.54-5.76c-4.79-4.93-5.42-6.81-3-8.87,4.62-3.89,4.53-3.54,2.31-9.08-4.5-11.21-4.3-14.29,1-14.9,2-.23,2.76-.94,3-2.81,1.27-9.91,7.18-5,7.18,6,0,8,.24,9.18,2.5,11.86,3,3.62,3.13,6.42.41,13.68-2.13,5.69-1.61,8.5,1.56,8.5,4.51,0,5.34,7.14,2.49,21.53a10.75,10.75,0,0,0,3,9.63c3.53,3.69,4,9.56,1.43,16.39-2.15,5.63-.9,10.21,3.63,13.27,4.92,3.31,5.23,4.39,3.41,11.67s-.22,15.28,3.92,18.62c1.9,1.55,2.06,2.56,1.77,11.68-.23,7.38,0,10.28,1,11.11.73.62,2.61,2.09,4.18,3.26,2.75,2.07,2.83,2.37,2.2,8.27-.79,7.34.52,13.95,3.37,17,2.48,2.65,2.71,6.82.47,8.69a32.63,32.63,0,0,0-4.54,6.52c-1.61,2.85-6.62,9-11.14,13.74s-9.8,10.27-11.75,12.36a62.64,62.64,0,0,1-9.25,7.6c-7.59,5-17.66,13.16-19.41,15.67-.78,1.1-1.84,2-2.37,2-1.72,0-20,13.46-26.74,19.7-4.21,3.9-2.09,11.34,5.36,18.79,2.45,2.45,4.45,5.11,4.45,5.9a2.07,2.07,0,0,0,.79,1.78c.44.18,1.83,2,3.09,4.08s2.68,3.75,3.17,3.75,2.54,2.59,4.55,5.75a42.9,42.9,0,0,0,4.57,6.33c1.34.86,11.91,23,12.4,25.89,1.78,10.83,5.31,20.38,7.71,20.85,3.07.59,3.2-2.87.3-8-3.76-6.69-4.17-21-.73-25.33,1.18-1.51,2.15-3.32,2.15-4,0-5.91,14.93-11.75,30.44-11.91l13-.14-.28-5.93c-.15-3.26-.51-6.31-.8-6.78a50.89,50.89,0,0,1-1.94-6.91c-.77-3.33-4.49-12.27-8.26-19.85-7.61-15.26-8.92-18.91-6.79-18.91,1.63,0,11.16,10.25,14.57,15.67,10.26,16.31,13.07,23.3,14.06,34.92,1.27,14.86,10.95,22.17,13.57,10.25.88-4,15.5-18.68,21.46-21.54,8.09-3.89,15.46-7.08,18-7.8a40.45,40.45,0,0,0,7-3.34c4-2.31,12.66-4.92,17-5.09.91,0,.31,1-1.5,2.47C448,288.31,442.21,292,440.71,292c-5.43,0-30.41,22.81-37.18,34-4.38,7.22-4.23,8,3,14.94,3,2.93,6.23,6.75,7.13,8.47,5.34,10.18,7.39,15,7.39,17.19a20.15,20.15,0,0,0,1.5,6.11c4.91,11.73-4.86,19-18,13.34-8.64-3.7-9.59-2.34-3.45,4.94a40.78,40.78,0,0,1,5.9,9.68c2.9,7.63,4.76,6.39,28.9-19.24,17.45-18.53,26.84-30,30.22-37a24.76,24.76,0,0,1,5.26-7c1.75-1.45,7.55-6.66,12.89-11.59s11.39-10.1,13.45-11.5c5.7-3.86,25.73-22.08,35.83-32.59,14.25-14.82,20.8-21.87,23.69-25.52,1.48-1.87,11.3-12.34,21.82-23.27s20.29-21.56,21.69-23.63a72.76,72.76,0,0,1,6.42-7.79c2.12-2.21,6.37-6.92,9.44-10.47,7.3-8.44,8.6-9.32,11.93-8,7.14,2.71,14-.24,18.52-8,3.15-5.39,7-7.22,9.79-4.68,4.53,4.1,8.28,1.83,12.88-7.79,4-8.36,8.67-10.45,11.17-5,1.71,3.77,4,3,6.2-2.17q6.38-14.86,13.05-8.8c2.45,2.22,5.23,1,7.18-3.05,2.45-5.13,6.19-7.33,8.67-5.09,3.34,3,6.25,1.62,9.57-4.64,3.84-7.22,3.31-6.86,8.3-5.74,5.27,1.19,7.58.11,9.1-4.25,2.54-7.29,7.58-9.77,10.57-5.2,1.49,2.27,2.23,2.55,5.56,2.1,9.29-1.24,8.74,6.11-.7,9.33-8.74,3-10.37,3.89-11.26,6.23-1.24,3.25-2.94,4.4-8,5.39-3.83.75-4.55,1.3-5.24,4-.74,2.85-1.22,3.14-6.06,3.71-5.18.6-8.76,3.1-8.76,6.12,0,2.1-3.44,4.49-8.77,6.07-3.2.95-5.32,2.2-5.69,3.36-.87,2.73-3.95,5.18-7.71,6.13-10,2.54-11.76,3.87-18.36,14-1.66,2.55-7.4,6-10,6a3.28,3.28,0,0,0-2.36,1.7c-1,1.83-8.88,2.19-18.15.83-5.76-.84-17.94,8.67-18,14,0,.59-1.2,2.16-2.65,3.5a67.18,67.18,0,0,0-7,8.92c-6.34,9.36-9.16,13.2-11.57,15.76a42.16,42.16,0,0,0-4.18,5.7,156.81,156.81,0,0,1-33.2,38.2c-2.4,2-9.39,8.59-15.53,14.71-11.42,11.4-17.35,16.24-26.59,21.71-2.88,1.71-5.25,3.41-5.26,3.77s-2.5,3.35-5.53,6.65a57.67,57.67,0,0,0-8.12,11.5c-5.7,12-15.52,25.91-23.84,33.78-3.3,3.13-8.26,8-11,10.82a44.65,44.65,0,0,1-8,6.66,28.48,28.48,0,0,0-6.24,5.14c-1.8,2-3.92,3.6-4.72,3.6s-2.92,1.27-4.72,2.81a73.77,73.77,0,0,1-7.79,5.57c-2.47,1.51-6.75,4.32-9.5,6.25a114.27,114.27,0,0,1-13.25,7.49c-4.53,2.19-8.28,4.07-8.32,4.18s-.27,5.38-.51,11.7-.94,12.76-1.56,14.31c-2.26,5.54,2.9,6.18,25.08,3.11,6.36-.88,13.59-1.34,16.06-1,3,.39,19.81-1.67,51.5-6.33,45.94-6.76,50.76-7.78,55.8-11.88a53.73,53.73,0,0,1,7.7-3.6c6.82-2.75,9-3.74,23.27-10.46,4.82-2.27,9.32-4.13,10-4.13a14.18,14.18,0,0,0,4.23-1.59,68.34,68.34,0,0,1,6.5-2.86c19.72-7.28,27.53-10,33.41-11.68a73,73,0,0,0,8.68-2.91,9.28,9.28,0,0,1,3.72-1,4.75,4.75,0,0,0,3.19-1.5,4.46,4.46,0,0,1,3-1.5,8.85,8.85,0,0,0,4.12-1.8c1.31-1,5.76-3.06,9.89-4.59,6.83-2.55,12.18-4.84,19-8.13a48.14,48.14,0,0,1,7.47-2.41,71.19,71.19,0,0,0,11.8-4.64c3.76-1.89,7.88-3.43,9.16-3.43a23.8,23.8,0,0,0,7-2.07c6.45-2.85,11-2.33,11.41,1.32s4.54,3.74,9.29.25c8.41-6.16,13.75-6.62,16.46-1.39,1.72,3.34,7.89,4,12.44,1.41,1.37-.79,3.62-1.92,5-2.52s3.81-1.69,5.41-2.45c3.65-1.72,4.71-1.28,6.59,2.69,2.38,5.05,6.74,5.61,14,1.81,6.82-3.55,11-3.05,11,1.31,0,4.61,4.76,4.81,11.55.49,8.55-5.45,14.37-5.65,13.06-.46-.74,3-.26,3,9.39,1.68,7.06-1,11,.25,11,3.52,0,1.32-.57,2.41-1.25,2.42-2.89,0-4,1.61-2.66,3.77,2.21,3.54-.35,5.38-7,5.05-4.68-.24-6,.08-7.83,1.94-2.91,2.92-2.44,3-12.22-3.29-9.28-6-11.34-6.39-11.82-2.23-.2,1.72-.94,2.79-2,2.86-4.07.26-6.78-.46-9.63-2.59-7.21-5.4-14.27-7.35-13.09-3.63,1.76,5.53-4,6.25-12.89,1.61-8.27-4.31-15.48-4.81-11.46-.79,3.58,3.58-3.76,4.27-13.23,1.25-8.23-2.63-10.48-2.35-10.1,1.26s-3.32,4.6-10.25,2.42c-8-2.54-12.51-1.77-10.28,1.75,1.32,2.09-4.11,4.68-8.54,4.07-4-.56-5.23-.34-7,1.31-1.41,1.29-7.08,3.11-16.17,5.19-15.81,3.62-23.32,6-32,10.3-9.23,4.54-19.58,8.8-24,9.87-3.47.84-15.34,5.78-25,10.41-1.65.78-5,2.12-7.42,3a27.77,27.77,0,0,0-5.5,2.42c-.59.5-5.07,2.28-9.94,4a219,219,0,0,0-27.62,12c-4.41,2.37-6.07,4.81-4.09,6.05s-.33,4-3.3,4.06-10.76,2.31-21.63,6.46c-41.16,15.71-67,18-113.88,10-17.6-3-19.22-2.39-20.73,7.88a37.49,37.49,0,0,1-2.44,8.19c-1,2.2-3.24,7.78-5,12.41s-4.26,10.55-5.63,13.17c-2.43,4.66-2.47,5-1.44,15.59,2.51,26.09,2.63,26.61,9.56,43.13a80.44,80.44,0,0,1,4,13.5c1.47,7.87,3.75,17.41,6,25.2,3.82,13,4.5,16.22,4.52,20.93a48.61,48.61,0,0,0,1,9.07c.94,3.92,3.18,20.69,5,37.5a124.18,124.18,0,0,0,3.53,17.5c1.43,4.95,3.66,13.5,5,19,5.06,21.54,7.56,32.37,9.52,41.31a89.27,89.27,0,0,0,2.92,11c.83,1.61,6.16,18.44,9.57,30.19a108.12,108.12,0,0,0,5.47,13.5c2.13,4.4,5.23,10.92,6.89,14.5,3.2,6.88,11.86,17.46,15.17,18.51,2.77.88,2.45,3.33-.53,4.08-3.3.83-3.3,4.3,0,8.22a13.45,13.45,0,0,1,2.5,3.74c0,1.93,5.61,7.8,8.67,9.08,3.44,1.44,3.72,1.81,4.7,6.38.68,3.11,4.72,5.53,10.68,6.39,3.59.52,4.91,1.27,6.25,3.54a68.8,68.8,0,0,0,5.16,7c3.4,4.08,3.77,7.06.87,7.06-1.05,0-1.28.64-.81,2.25.66,2.27,1.35,3,7.88,8,4.41,3.42,4.55,5.18.52,6.58-2.94,1-3.26,3.13-.48,3.13.73,0,2,1.07,2.89,2.38s3.58,3.36,6,4.55c6.83,3.31,9,8.07,3.72,8.07-4.8,0-1.87,6.08,3.59,7.45,7.21,1.81,12,7,8.82,9.55-3.93,3.26-1.33,6.27,10.31,12,8.48,4.15,9.69,5.79,6.06,8.21-3.06,2-1.74,5.48,2.42,6.38,3.68.79,12.71,5.16,12.71,6.14a7.09,7.09,0,0,1-1.66,2.48c-1.93,2.13-.5,6.83,2.07,6.83,1.85,0,5.36,1.53,8.64,3.76,1.4,1,4.21,2.79,6.25,4.09s3.7,2.66,3.7,3.05c0,1.5-2.52,3.1-4.88,3.1a20.94,20.94,0,0,0-5.75,1.18c-3.15,1.14-3.45,1-8.28-3.5-3.15-2.95-5.91-4.68-7.47-4.68-4.39,0-5.47-1.07-8.11-8-3.11-8.14-5.41-10.52-9.89-10.21-4.23.28-6.09-1.85-7.52-8.67-1.47-7-6.91-13.84-11.77-14.75-3.67-.67-5.32-3.17-5.32-8.06,0-3.89-4.07-10.52-6-9.72-6.1,2.59-7.71,1.21-9.71-8.35-1.71-8.19-4-11-7.4-9.22-3.21,1.72-5.3-1.07-6.89-9.22s-4.48-11.85-5.23-6.57c-.37,2.57-3.24,3.49-5.36,1.72-1.5-1.24-3-5.71-4-12.18-.63-4-4.81-9.78-7.12-9.78-1.15,0-1.22.42-.35,2,1.44,2.69.85,7.45-.92,7.45-1.61,0-2.09-.86-5.07-9-1.2-3.3-3.06-7.85-4.11-10.11a22.41,22.41,0,0,1-1.93-5.29c0-.65-2-3.33-4.46-6-5.58-6-13.42-22.27-20.5-42.65-2.86-8.25-7.59-20.18-10.5-26.5a130.1,130.1,0,0,1-7-18.5c-2.18-9.17-6.66-23.71-7.73-25.1a22.74,22.74,0,0,1-1.83-6c-.54-2.7-2.13-9-3.54-13.9s-4.06-14.63-5.92-21.5c-4.27-15.86-9.77-31.5-11.06-31.5-.56,0-1.25,4.2-1.56,9.5-.61,10.66-4.24,41.06-6.43,54-.79,4.67-1.71,11.4-2,14.94s-1.49,10.51-2.57,15.5-2.39,11.76-2.9,15.06c-1.62,10.42-5.56,29.2-8.93,42.5-1,4.12-3.93,15.6-6.41,25.5-18.55,74-46.85,124.21-64.81,114.92a54.89,54.89,0,0,0-7.78-3c-5.56-1.65-10.36-6-7.74-7,.89-.34,3.15.32,5,1.48,7.09,4.38,19.67,2.72,24.63-3.25,1.39-1.67,4.21-4.77,6.28-6.89s3.75-4.39,3.74-5.06c0-1.15,2.11-5.93,6.14-13.91a17.58,17.58,0,0,0,1.87-5.15c0-.81,2.25-7,5-13.75s5-13.43,5-14.84,1.36-5.21,3-8.45,3-6.61,3-7.5a64.38,64.38,0,0,1,2.45-9.23,81,81,0,0,0,3-12.5c1.47-13.53,2.72-22.12,3.54-24.38a43.74,43.74,0,0,0,1.56-7c.36-2.47,2.19-10.9,4.06-18.74s3.42-15.7,3.43-17.5a43,43,0,0,1,1.42-8.54,96,96,0,0,0,2.09-13,126.87,126.87,0,0,1,2.05-13.72c.74-3.3,2.06-13.37,2.92-22.39s1.77-16.72,2-17.12c2.14-3.46,5.31-44.36,3.53-45.47-1.22-.75-1.86,2.09-2.45,11-.26,3.85-.93,10.6-1.5,15s-1.3,12-1.63,17-1,9.9-1.42,11c-1,2.37-3.49,17.34-5.05,30-1.27,10.31-6.07,32.15-9,41a41.19,41.19,0,0,0-2,7.93,21.43,21.43,0,0,1-1,5c-2,6.3-6.32,22.21-7.1,26.07a179.45,179.45,0,0,1-5.89,22.73,36.31,36.31,0,0,0-2,7.6,14.09,14.09,0,0,1-1.43,4.77c-.88,1.8-1.63,7.65-2,15.4-.57,13.07-1.25,17.67-2.72,18.58-.49.3-.88,2.09-.88,4S332.54,919,332,919s-.81-2.54-.36-7.5c1-10.52-.8-9.7-4.59,2.15-1.7,5.31-3.92,11.5-4.94,13.75a44,44,0,0,0-2.54,7.6c-.77,3.85-4.23,11.7-5.51,12.48-2.3,1.43-2.6-5.87-.4-10s9-25.15,9.78-30.24a35,35,0,0,1,2.06-7.5c2.17-5,9.55-29.15,9.55-31.34a13.86,13.86,0,0,1,1.54-4.86,35.69,35.69,0,0,0,2.42-6.5c.5-2,1.83-6.94,3-11.06s3.18-11.69,4.55-16.81,2.73-9.72,3-10.21,1.67-6.21,3-12.69S355.92,791.56,357,788a78.39,78.39,0,0,0,2.47-11c.27-2.48,1-6.53,1.54-9s1.46-7.65,2-11.5,1.56-10.38,2.34-14.5,1.45-8.18,1.48-9c.17-4.17,3.31-31.09,4.09-35a184.14,184.14,0,0,0,1.41-18.5c.41-11,.32-12.61-.41-7.5-.51,3.57-1.37,8.41-1.9,10.76a50.27,50.27,0,0,0-1,9.32,72.5,72.5,0,0,1-2,13.24c-1.07,4.5-2.09,9.27-2.25,10.6s-.86,2.6-1.54,2.83c-1.57.52-1.67-6.71-.23-15.25.56-3.3,1.24-8.48,1.51-11.5s1-10.45,1.53-16.5c1.92-20.12,3.05-39.87,3-52-.1-21.51-1.3-48.5-2.15-48.5-.46,0-.77,2.13-.69,4.75.25,8.15-1.25,55-2.28,71.25-2.32,36.46-3.91,47.9-10.19,73.5-1.62,6.6-3.31,14-3.75,16.5s-1.79,8.32-3,13-2.78,11-3.5,14c-3.57,15.14-4.76,19.7-5.72,22-1.14,2.73-2.81,15.33-3.18,24-.89,21.27-9.56,64.16-15.76,78-3.83,8.53-4.75,11.46-8.56,27-2,8-3.75,15.17-4,16-.32,1.15-.83.94-2.22-.9-1.8-2.37-4.09-2.2-4.09.3a5.7,5.7,0,0,1-1.94,3,10.46,10.46,0,0,0-2.6,4.72c-.35,1.63-1.26,3.2-2,3.49a4.19,4.19,0,0,0-2,2.43c-.33,1-1,1.91-1.54,1.91-1.2,0-1.21-3.71,0-4.45.51-.32,1.21-1.88,1.56-3.47a25,25,0,0,1,3.92-7.24c3.16-4.19,5.56-9.64,9.83-22.34a92.09,92.09,0,0,1,3.81-9.55c1.78-3.53,8.47-24.28,10-30.95.44-1.92,1.74-8,2.89-13.5s2.58-11.57,3.18-13.5a23.42,23.42,0,0,0,.71-7.5l-.36-4-2.31,5c-1.26,2.75-3.58,8.83-5.15,13.5-6.4,19.13-7,20.63-13.52,34.5a92.29,92.29,0,0,0-4,9.5,13.06,13.06,0,0,1-1.91,4c-.67.83-3.39,5.33-6.05,10a123,123,0,0,1-9.16,13.84c-2.39,2.94-4.34,5.75-4.34,6.25s-.67.91-1.5.91c-1.86,0-1.95-2.4-.17-4.19a10.13,10.13,0,0,0,2-4,10.7,10.7,0,0,1,2.17-4.17,5,5,0,0,0,1.5-2.32c0-.45,1.76-3.29,3.91-6.32,4.64-6.53,13.1-22.41,13.1-24.58,0-.84,1.53-4.42,3.41-8a93.17,93.17,0,0,0,5.64-13.69c1.23-4,3.29-9.69,4.59-12.64s2.37-6.33,2.39-7.5a8.22,8.22,0,0,1,1.5-4.07,7.87,7.87,0,0,0,1.46-4c0-2.12,4.14-15.52,6.61-21.34a17.37,17.37,0,0,0,1.4-5,24.73,24.73,0,0,1,1.43-5.71c2.69-7.58,6.47-21,9.57-34,1.7-7.15,3.49-14.57,4-16.5,1.33-5.23,4.07-17.36,6.54-29,.88-4.12,2.25-10.42,3-14s1.88-10,2.42-14.32,1.67-12.06,2.5-17.24c2.07-12.85,2-29.2-.05-31.51-1.27-1.41-1.63-5.11-1.9-19.58-.19-9.81-.43-20.54-.54-23.84l-.21-6-1.3,7.1c-.71,3.9-1.53,10.88-1.81,15.5-.72,12-2.51,28.82-4.3,40.4-.84,5.5-1.94,12.7-2.43,16-2,13.67-11.79,57.22-15.92,71-1.16,3.85-3.42,12-5,18.09s-3.46,12.4-4.13,14-1.74,4.71-2.4,6.91c-7.36,24.76-13.27,41.83-18,52-3.29,7-6.46,15.16-6.46,16.53a10.37,10.37,0,0,1-1.88,3.81,19.18,19.18,0,0,0-2.56,5.84,9.35,9.35,0,0,1-2.06,4.32,8.65,8.65,0,0,0-2,4.07c-.35,1.61-1.29,2.93-2.08,2.93-1.63,0-1.09-3.58,1.24-8.2a13.76,13.76,0,0,0,1.39-4,21.61,21.61,0,0,1,2-5.3,21.57,21.57,0,0,0,2-5.39c0-1.21,2.38-6.85,5.12-12.29,1.68-3.33,7.92-19.81,7.92-20.9a17.27,17.27,0,0,1,1.35-4.27c2.41-5.59,11.49-33.95,13-40.65,1.74-7.64,4.5-18,8.12-30.5,1.44-5,3-11,3.51-13.5s2-8.55,3.34-13.5c4.56-16.83,10-46.24,12.11-66,.78-7.15,1.73-15.56,2.11-18.68.59-4.78.37-6.2-1.41-9.07-2-3.26-2.09-4.58-2-32.33.07-15.91-.22-31.95-.64-35.66-.79-7.09.59-9.57,3.83-6.88,1.68,1.39,2.65.45,2.65-2.55,0-1.35.63-2.38,1.5-2.46s1.91-.18,2.41-.25a18.69,18.69,0,0,0,4.25-2.62A45.44,45.44,0,0,1,362,536.9c3.7-1.69,6.67-4.57,5.71-5.54-1.13-1.12-7.34,1.71-15.62,7.13-4.63,3-9.14,5.5-10,5.5a7.93,7.93,0,0,0-3.61,1.39c-2.68,1.88-13.25,4.46-22.53,5.5-9,1-13.27,2.78-10.47,4.34,1,.54,3.49.71,5.6.38,3-.48,4-.24,4.76,1s1.13,1.28,1.61.51S320.29,556,323,556a18.17,18.17,0,0,0,7.91-1.75c9.33-5.36,9.65,23.51,1,92.25-1.11,8.8-2.41,20-2.89,25-1.08,11-3.9,28.45-7.51,46.5-1.48,7.42-3.28,16.42-4,20-2.62,13.08-9.79,40.1-15.4,58-4.16,13.28-5.84,18.1-10.78,31-1.37,3.57-3.36,9.15-4.42,12.39a74.53,74.53,0,0,1-3.84,9.5c-2.2,4.12-15.65,34.78-17.59,40.09-2.39,6.49-5.41,11.83-7.75,13.68a10.88,10.88,0,0,0-3,3.59c-.37,1-1.08,1.75-1.59,1.75-1.31,0-2.15-5.38-.95-6.12a2.44,2.44,0,0,0,.51-2.5c-.44-1.7-.56-1.67-1.21.37-.73,2.26-2.9,3-3.93,1.36-.3-.5.12-2.8.94-5.13a26.4,26.4,0,0,0,1.5-6.11c0-3-2-2.16-2.65,1.13-.7,3.49-1.84,3.82-3.37,1-.88-1.64-.47-3.26,2.11-8.52,2.89-5.86,3.31-10.61.54-6.11-5.26,8.57-9.49,9.68-5.3,1.4,4.05-8,3-11.23-1.38-4.17-3.27,5.3-4.5,3-2.41-4.45.94-3.37,2.1-6.12,2.58-6.12s.87-1.15.87-2.56-.43-2.3-1-1.95a3.35,3.35,0,0,0-1,2.56c0,1.49-.69,1.94-3,1.94-3.63,0-3.63.54,0-6.6,1.64-3.24,3-6.4,3-7,.05-4.63,4.22-10.38,7.54-10.38,2.92,0,3.53-.41,4.1-2.75a37,37,0,0,1,2.52-6.46,17.63,17.63,0,0,0,1.85-6.13,5.38,5.38,0,0,1,1.5-3.66,6.24,6.24,0,0,0,1.5-4.24c0-2.56-.22-2.82-1.5-1.76a4.67,4.67,0,0,0-1.5,3.12c0,1-.45,1.88-1,1.88-1.68,0-1.11-5.86,1-10.23a22.32,22.32,0,0,0,2-5.3c0-.64,1.75-6.52,3.88-13.07s4.19-13.84,4.59-16.17c.82-4.9,3.65-7.21,6.21-5.09,1.88,1.57,4.32-1.13,4.32-4.79a27.06,27.06,0,0,1,1.87-7.06,56.49,56.49,0,0,0,2.56-8.79c.39-2.2,1.58-6.86,2.64-10.35,2.24-7.35,2.67-18.56.68-17.9-.68.23-1.63,2.52-2.1,5.08-2.19,11.89-3.42,2.71-1.49-11.09,1.61-11.54-.41-13.39-2.71-2.49-.66,3.17-1.93,8.68-2.8,12.25-5.3,21.68-8,33.15-8.8,38-.52,3-1.38,5.93-1.9,6.45a5.07,5.07,0,0,0-1,3c0,1.13-2.07,7.9-4.55,15.05s-5.21,15-6,17.5-1.93,5.4-2.4,6.5-1.53,4-2.34,6.5c-2.83,8.55-6.67,19.12-7.56,20.81C237,844.61,235,849.26,235,850.61a2.54,2.54,0,0,1-2,2.08,2.7,2.7,0,0,0-2,2.41c0,1-.45,1.88-1,1.88-1.25,0-1.28-1.5-.07-3.76a84.92,84.92,0,0,0,3.11-8.74c1.2-3.85,2.81-8.48,3.57-10.28,2-4.75,1.82-4.75-2.64-.07l-4,4.24-2.42-2.44a11.65,11.65,0,0,1-2.88-4.95,34.72,34.72,0,0,0-1.38-4.88c-.66-1.76-.27-4.13,1.48-9A35.39,35.39,0,0,0,227,803.29c-.08-5.73.5-8.77,2.88-15,1.64-4.29,3.56-9.7,4.26-12,.81-2.64,2.14-4.59,3.6-5.25,3-1.35,6.17-8.37,6.22-13.56.08-9.46,3.52-17.07,7.2-15.93,3.24,1,5.56-7.56,3.25-12A12.77,12.77,0,0,1,253,725c0-9.15-7.42-4.24-8.48,5.61a69.77,69.77,0,0,1-2.59,12.23,37.9,37.9,0,0,0-1.9,7.92,13.92,13.92,0,0,1-1.45,5.05,85.87,85.87,0,0,0-3.62,9.7,129.5,129.5,0,0,1-5.08,13.09,53,53,0,0,0-2.91,7,7.4,7.4,0,0,1-1.46,2.74c-2.19,2.9-1-15,1.52-22.7a39.8,39.8,0,0,0,2-9.39A16.26,16.26,0,0,1,230.5,750a10.85,10.85,0,0,0,.86-7c-.63-4-2.38-6.59-2.38-3.56,0,.86-.5,1.56-1.12,1.56s-.85-.84-.4-2.25a65,65,0,0,0,1.46-6.75c.41-2.48,1.69-7.88,2.84-12s2.6-10.11,3.24-13.31c1.53-7.73,4.42-7.83,4.59-.16.15,7.4.12,7.33,3.89,8,1.93.36,3.5,1.08,3.5,1.6s.39.71.87.41c1.4-.87,2.32-6.27,3.24-19.08.47-6.6,1.13-14.59,1.47-17.75.41-3.86.25-5.75-.49-5.75s-1.09,1.48-1.09,3.3-.44,3.74-1,4.28-1.33,3.4-1.76,6.36-1.28,5.56-1.9,5.77c-1.76.59-2.34-4.9-.86-8.21a37.08,37.08,0,0,0,1.9-9c.3-3.3.84-7.69,1.18-9.75,1-6.22-1-4.22-3.54,3.5a83,83,0,0,1-4.63,11.25,54.45,54.45,0,0,0-3.78,9.51,136.74,136.74,0,0,1-4.7,13C226.43,717.09,221,733.24,221,736.43a27.53,27.53,0,0,1-1.06,6.57c-1.47,4.84-4.72,25.49-6.91,44-2,17.12-1.47,36,1.51,51,1.2,6,2.77,12.45,4.42,18,1.05,3.57,2.91,10.1,4.11,14.5,3.22,11.75,9.49,26.25,13.44,31.08,1.91,2.32,5.53,8.65,8,14.07,7,14.94,4.67,11.64,22.09,31.75,3.38,3.9,7.77,8.82,9.75,10.92,3.68,3.9,5.08,7.33,1.77,4.33a6.52,6.52,0,0,0-2.63-1.65c-.44,0-2.43-1.53-4.42-3.41-14.67-13.82-12.74-13.42-21.61-4.48-3.85,3.88-7.81,7.5-8.81,8s-7.06,4.92-13.5,9.74A213.12,213.12,0,0,1,209.49,983c-3.3,1.83-6.68,3.85-7.5,4.47a36.2,36.2,0,0,1-7,3,30.23,30.23,0,0,0-7.07,3.2c-2,1.68-11.81,3-18.59,2.55S159.66,992.14,155,979a143.3,143.3,0,0,0-5.69-13.9C148,962.68,147,959.92,147,959a13.24,13.24,0,0,0-1.5-4.6,13.71,13.71,0,0,1-1.5-5c0-3.87-2.53-8.23-6.19-10.72-5.41-3.67-7.7-.19-4.25,6.47,2.58,5,1.6,8.32-2.56,8.72-6.35.6-7.62,5.11-3.92,13.94,1.61,3.84.48,6.54-3,7.05-3.93.58-5.29,4.09-4,10.26,2,9.65,1.81,11.15-1.88,12.12-3.91,1-4.17,3.17-1.18,9.77,2.69,5.94,1.94,8.75-2.58,9.59-2.43.46-3.49,1.2-3.49,2.43,0,2.85,2.79,8.71,4.46,9.35,2.43.94,1.8,4.59-1.42,8.26a21.64,21.64,0,0,0-4,7.63c-2,7.89-6.25,10.43-9.39,5.58Zm88.62-61.36c2.06-1.36,3.75-2.91,3.75-3.46s1.16-1,2.57-1,4.45-1.28,6.75-2.83a40.86,40.86,0,0,1,6-3.51,21.62,21.62,0,0,0,4.5-2.72c10.21-7.86,14.67-10.94,15.82-10.94,2.82,0,22-18.69,22.88-22.34.48-1.94-.17-4.17-2.48-8.4-1.73-3.17-4.09-7.89-5.24-10.51-4.78-10.81-7.17-4.46-4.78,12.71,1,7.2.67,11.54-.89,11.54-2,0-4.92-18.81-4.56-29.33l.37-10.83-4-3.57a37.37,37.37,0,0,0-10.61-7.14c-1.34-.62-2.31-2.24-2.68-4.47a11.86,11.86,0,0,0-2.64-5.58,7.1,7.1,0,0,1-2.07-4c0-1.07-1.17-4.78-2.61-8.25s-3-7.22-3.41-8.32-1.69-4-2.77-6.5-2.3-5.4-2.71-6.5c-.48-1.31-.9-1.56-1.21-.71s.18,3,1,5a50.25,50.25,0,0,1,2.19,7.7c.65,3.6,5.36,16.39,7.63,20.75,1.22,2.33,1.15,5.76-.11,5.76-.56,0-1.53-1.23-2.14-2.75-2.4-5.88-4.12-9.87-5.5-12.75-3.48-7.23-10.41-31.86-10.83-38.5a82.39,82.39,0,0,0-1.38-9c-.81-3.81-.9-9.26-.3-18,.47-6.9.9-15.46,1-19,.17-10.89.76-17.81,3-34.5,1.15-8.8,2.41-18.9,2.8-22.45a46.83,46.83,0,0,1,2.63-11c1.07-2.49,2.56-9.48,3.32-15.55s2.12-14.63,3-19c6.15-30.2,8.82-42.3,10.48-47.5a85.38,85.38,0,0,0,2.51-9.72,47.65,47.65,0,0,1,2.43-8.28c1-2.47,3-8.32,4.4-13s4.15-13.45,6-19.5,3.74-12.57,4.08-14.5c2.11-11.9,5.37-23.81,8.16-29.83,1.51-3.27,1.36-4.9-.37-3.83-.48.3-2.13,3.16-3.67,6.35s-3.65,7.45-4.69,9.45a17.24,17.24,0,0,0-1.9,4.93,21.16,21.16,0,0,1-1.92,5.37c-4.58,9.72-16.36,42.31-18,49.77a22,22,0,0,1-2.45,6.22,11.62,11.62,0,0,0-1.66,5.29A23.16,23.16,0,0,1,206.9,637a45.61,45.61,0,0,0-2.88,9c-.45,2.48-2,8.87-3.38,14.22S196.71,677,195,685.72s-3.45,17.36-3.94,19.28-1.38,7.78-2,13-1.83,15.13-2.72,22c-2.6,20.09-3.82,59.8-2.3,75,1.6,16,5.52,46,6.77,52,.52,2.48,1.67,8.13,2.55,12.56,1.34,6.72,10.41,35,13.48,41.94,1.23,2.8,3.58,8.81,6.64,17,2.27,6.08,5.94,14.58,8.41,19.5.89,1.78.3,4-1.06,4s-5.87-5-5.87-6.58c0-.71-1.22-1.88-2.71-2.6-2-1-3-2.48-3.76-5.65a13.36,13.36,0,0,0-3.43-6.28c-2.59-2.09-4.1-1.78-2.24.46,1,1.19,3.58,16.62,2.89,17.22-4.13,3.57-9-13.86-12.64-45.56-.55-4.67-1.93-13-3.08-18.5s-2.51-14-3-19-1.41-11.25-2-14c-4.8-22-7.48-119.06-3.46-125.56.25-.41,1.13-7,2-14.59s1.73-14.88,2-16.15,1.21-6.21,2-11a134.85,134.85,0,0,1,2.9-13.2c.77-2.47,2.18-8.55,3.12-13.5a119.36,119.36,0,0,1,3.13-13,83,83,0,0,0,2.31-8c3.08-13.77,6-24.59,7.7-28.5a112.11,112.11,0,0,0,4.11-12.54c1.19-4.42,3.32-11,4.75-14.5s3-8,3.61-10a16.65,16.65,0,0,1,2.3-5c1.68-2,3-8,1.71-8-.52,0-1.66,1-2.53,2.25-1.54,2.22-1.57,2.2-1.62-1.5-.05-3.89-1.42-5-2.35-2-.29,1-2.18,5.8-4.2,10.75-7,17.2-14.18,36.13-16.66,44a23.15,23.15,0,0,1-2.41,5.5c-.64.83-2.3,5.1-3.69,9.5s-3.69,11.38-5.1,15.5c-9.55,27.82-13.46,42-15.12,54.64-.35,2.67-1.49,10.26-2.53,16.86-8.16,51.85-8.33,113.39-.44,157,1.88,10.38,4.4,25.06,5.08,29.5a84.53,84.53,0,0,0,2.39,9.5,194.22,194.22,0,0,1,6.11,23.5,41.91,41.91,0,0,0,2.4,8.65,16.29,16.29,0,0,1,1.47,4.26,18.58,18.58,0,0,0,2,4.83,16.83,16.83,0,0,1,2,6.13,14.18,14.18,0,0,0,2.1,5.8c1.39,2.24,1.89,4.23,1.48,5.86-.9,3.6-2.35,3-3.55-1.41-.57-2.14-1.72-4.44-2.54-5.12a5.25,5.25,0,0,1-1.5-3.64,18.23,18.23,0,0,0-2-6.34,19.66,19.66,0,0,1-2-7.34c0-1.88-.67-4-1.5-4.66a4.19,4.19,0,0,1-1.5-2.6,65.47,65.47,0,0,0-2.58-9c-1.42-4.24-3.25-10.88-4.06-14.78S168.47,914.94,168,913a410.05,410.05,0,0,1-13.23-101.75c-.07-11.69-.5-21.25-1-21.25-1.9,0-4.21,10.32-5.83,26-.48,4.68-1.33,12.63-1.9,17.68a72.46,72.46,0,0,0-.1,16.5c.51,4,1.41,12.27,2,18.32,1.1,11.1,4.12,33.51,6.13,45.5.6,3.58,1.43,8.75,1.85,11.5a42.27,42.27,0,0,0,2.48,8.9c1.65,3.72,1.49,8.61-.28,8.61-1.15,0-3.14-4.65-3.14-7.35a5.63,5.63,0,0,0-.89-3.21c-1.22-1.29-4.76-17.63-6.61-30.45-.84-5.77-2.16-13.2-2.94-16.5-6-25.28-4.16-73.26,3.59-94.5,1.1-3,2.63-7.75,3.4-10.5a53.11,53.11,0,0,1,2.39-7c.9-1.79,2.41-13.69,5.07-40,.51-4.95,1.6-12.15,2.43-16A68,68,0,0,0,163,706.84a21.73,21.73,0,0,1,1-6.27,100.71,100.71,0,0,0,2.48-12.31c2.25-14.6,7.08-30.58,11.29-37.35,1.24-2,2.25-4.31,2.25-5.14,0-1.65,7.3-23.25,9.59-28.4a16.53,16.53,0,0,0,1.41-4.26,8,8,0,0,1,.91-2.85c.5-1,2.51-6,4.46-11.24,4.88-13,8.36-21.74,10.68-26.61a20.47,20.47,0,0,0,1.95-5.78,9.8,9.8,0,0,1,1.59-4.11c.88-1.34,1.4-3,1.16-3.71-.48-1.39-22.75,42.41-22.75,44.74a23.19,23.19,0,0,1-1.89,5.69c-1,2.36-2.91,7-4.14,10.28s-4.06,10.28-6.27,15.5-5.55,13.78-7.42,19c-7,19.64-10.49,29.68-12.25,35.57a78.5,78.5,0,0,1-3.75,10,66.61,66.61,0,0,0-3.5,9.43c-.85,3-3.16,10.9-5.12,17.5-3.29,11.07-4.38,16.82-9.4,49.5-2.07,13.5-2.25,70.2-.27,85,.62,4.68,1.52,14.69,2,22.25.56,9,1.41,14.85,2.43,16.9.92,1.84,1.58,5.72,1.58,9.3a56.3,56.3,0,0,0,1.41,11.59,86.12,86.12,0,0,1,2,11.46c.45,5.15,5,19.08,16.81,51.69,2.72,7.5,19.31,10,28.07,4.25ZM165,962.5a7.45,7.45,0,0,0-2-4.5c-2.11-2.11-2.73-6-.95-6,1.33,0,4.9,7.78,4.93,10.75,0,1.24-.43,2.25-1,2.25s-1-1.12-1-2.5Zm89.88-97.14c1.19-3.11,2-5.83,1.76-6.06-.59-.58-5.64,8.68-5.64,10.33,0,3.07,1.85,1,3.88-4.28Zm10-22.86c1.3-3.3,3.22-7.93,4.28-10.29,5.46-12.23,16.06-44,18.92-56.71.62-2.75,1.53-6.39,2-8.08,1.18-3.95,1.17-6.7,0-6-.51.32-1.46,3.13-2.11,6.25a37.79,37.79,0,0,1-2.07,7.24,65.44,65.44,0,0,0-2.83,9.56c-1.68,6.93-9.48,30.41-12.9,38.81a15.11,15.11,0,0,0-1.15,4.21c0,.77-1.13,3.42-2.5,5.88s-2.5,5-2.5,5.64a16.32,16.32,0,0,1-1.46,4.3c-1.86,4-4.52,11.86-4.48,13.15s3.85-6.49,6.79-14Zm-5.78-5.74c1.46-4,3.84-10.41,5.29-14.26,2.76-7.31,3.18-9.51,1.83-9.51-.84,0-4.35,9.09-6.66,17.23a39.15,39.15,0,0,1-3.31,8,26.51,26.51,0,0,0-2.66,6.28c-1.32,5.68,2.61.17,5.51-7.74Zm-26.61-6.83a1,1,0,0,1,.38-1.34c.49-.3,1.48-2.69,2.2-5.32,1.52-5.48,4.49-10,7.15-10.84,4-1.28,5.78-8.11,3.6-14.15-1.93-5.33-3.94-3.76-7.3,5.72a106.57,106.57,0,0,1-4.25,10.68,11.28,11.28,0,0,0-1.24,4.69c0,1.38-.45,2.78-1,3.12a3.35,3.35,0,0,0-1,2.56c0,1.31-.69,1.94-2.11,1.94-1.61,0-1.94.41-1.39,1.75.4,1,1,2.56,1.24,3.54.48,1.68.63,1.69,2.36.12,1-.92,1.63-2,1.36-2.47ZM196.34,817c-.47-8.43-1.29-12.14-2.53-11.38s-.51,19.48.88,22.88c1.11,2.73,2.06-4,1.65-11.5ZM277,784.57a39.69,39.69,0,0,1,2.11-7.78c1.14-3.21,1.87-6.39,1.62-7.07s-.73-.43-1.15.78a31.68,31.68,0,0,1-1.62,3.74A9.52,9.52,0,0,0,277,778a18.14,18.14,0,0,1-2,6,18.13,18.13,0,0,0-2,6.71l0,2.79L275,790a16.4,16.4,0,0,0,2-5.43Zm-28-.12a5.38,5.38,0,0,1,.84-3,19.75,19.75,0,0,0,2-5c3.88-13.36,4.33-14.32,7.29-15.54a5.6,5.6,0,0,0,3.5-3.84c.32-1.44,1.16-4.87,1.88-7.62a108.15,108.15,0,0,0,1.88-16.18C267,721.1,269.77,705,271.24,705c.5,0,.63-1.46.28-3.25s-.88-4.58-1.2-6.2c-.78-4.08-3.31-.77-3.34,4.39a43.85,43.85,0,0,1-1.12,8.06,58.49,58.49,0,0,0-1.34,8.5,59.65,59.65,0,0,1-1.74,9.5c-.82,3-2,8.42-2.73,12s-2.12,9.42-3.21,13-2.4,8.07-2.9,10c-1.66,6.36-4.11,14.44-5.54,18.27-1.64,4.42-2,11.13-.4,8.73a7.89,7.89,0,0,0,1-3.55Zm-33.59-65c1.11-2.91,1.87-12.27,1.14-14.1-.91-2.27-4.74,11.3-3.94,13.94.67,2.18,2,2.26,2.8.16Zm81.88-21.65c.28-1.8,1.5-8.44,2.71-14.76s2.59-14.54,3.05-18.25a51.41,51.41,0,0,1,1.28-7.5,54.36,54.36,0,0,0,1.07-8.25l.64-7.5-2.09,4.5-2.09,4.5-1.4-3.32c-1.67-3.94-3.45-3.36-3.45,1.13,0,4.23-1.84,10.69-3,10.69s-1.27-.69-1-10.5c.17-7.49.68-11.53,3.06-24,1.53-8,2.07-17.54.82-14.5-2.74,6.69-5.83,20.88-6.85,31.5-1.15,11.84-2.33,17.16-4.32,19.35-3,3.33-1.33,14.14,2.2,14.14,2.54,0,5.17-3.15,5.17-6.19s3.55-5.49,5.37-3.79c.95.89.29,11.33-1.27,20-1.92,10.65-2.47,17.35-1.37,16.67.58-.36,1.28-2.12,1.55-3.91Zm114,0c.71-3,.09-29.41-.77-33.25-3.68-16.34-5.53-19.56-5.58-9.75,0,6.68-1.59,9.42-4.85,8.57-2.92-.77-2.18,6.1,2,18.68a78.89,78.89,0,0,1,2.85,9.88c0,4.55,5.45,9.56,6.33,5.87Zm-196-4.17c1.37.52,3.26-5.6,4.67-15.08,1.26-8.53,4.69-23.08,6-25.58a29.57,29.57,0,0,0,2-5.4c.44-1.66,2.2-6.85,3.92-11.52a115.12,115.12,0,0,0,4.57-17.5c2-12.3,4.18-23.48,6.48-32.94,3.85-15.78-.81-11-5.16,5.31a75.86,75.86,0,0,1-3.54,10.63c-2.34,4.66-4.93,12.88-8.34,26.5-1.73,6.87-4,15.42-5.05,19-5.7,19.44-11.39,53.74-7.92,47.79a2.13,2.13,0,0,1,2.29-1.21Zm44.19-4.32c.12-3.17,1.23-12.51,2.47-20.76s2.47-16.53,2.74-18.39c.8-5.36-1.26-2.86-2.55,3.09a168.82,168.82,0,0,0-3.08,18.8c-.42,3.57-1.34,9.2-2.05,12.5-1,4.57-1,6.69-.15,8.89,1.56,4,2.34,2.71,2.62-4.12ZM279,677.49c0-2.82-.66-5.84-1.49-6.94A9.13,9.13,0,0,1,276,665.8c0-3.24-1.56-3.75-2.5-.81-.83,2.62-2.19,2.55-3.05-.16-.94-3-2.13-.77-3.62,6.65-1.39,6.95,1.14,10.87,6.36,9.83,2.44-.49,3-.22,3.51,1.63.93,3.56,2.27.32,2.25-5.45ZM231,664.18c0-1.61,2.67-10.1,4.67-14.84,1.69-4,1.73-7.65.08-7.11s-6.47,14.95-7.26,21.8c-.58,5.07-.51,5.32.94,3.52a6.89,6.89,0,0,0,1.57-3.37ZM375.48,637c1-20.38,1-20.76.06-26-.63-3.46-1-4-1.52-2.52a13.88,13.88,0,0,0,.22,6,24.58,24.58,0,0,1,.26,8A176.91,176.91,0,0,0,373,652c.34,9,1.74.64,2.52-15Zm-116.62,9.69C260.3,645,261.58,634,260.35,634S256,642.65,256,645.75c0,2.52,1.21,2.91,2.86.93Zm-17.29-12c5.81-11.52,7.25-19.79,5.6-32.22l-.66-5-2.4,6.5c-1.31,3.58-2.29,7.85-2.16,9.5.63,8.3.54,8.86-3,18s-1.51,11.44,2.64,3.21Zm73-17.56c1.32-3.08,4.39-37.4,3.49-39-1-1.84-1.87.93-5.06,16.77a102.18,102.18,0,0,1-2.92,12c-1.41,2.78-2,9.3-1.06,11.13,1.13,2.1,4.49,1.56,5.55-.9ZM355,581c0-10.73-.36-16-1.07-16-1.05,0-1.16,24.33-.14,29.68.93,4.89,1.21,1.78,1.21-13.68Zm-55.95-20.63c1.24-3.25,1.22-3.37-.55-3.37a1.44,1.44,0,0,0-1.5,1.37,4.2,4.2,0,0,1-1.5,2.63,4.15,4.15,0,0,0-1.5,2.65c0,2.25,3.91-.3,5.05-3.28Zm-13-4.94c2.35-2.12,1.49-4.52-2.61-7.33a10.65,10.65,0,0,1-4.47-6.19c-1.35-5-2.38-5.5-4.9-2.29-2.38,3-2.82,6.59-.71,5.78,1.6-.61,4.63,2.1,4.63,4.14,0,.78,1.13,1.7,2.5,2,1.8.45,2.5,1.3,2.5,3,0,2.79.69,3,3.06.83ZM268,523.06c2-3.81.38-11.07-2.52-11.07-.46,0-.3.54.36,1.2,1.68,1.68,1.5,6.31-.3,7.8a4.2,4.2,0,0,0-1.5,2.63c0,2,2.78,1.66,4-.56Zm59.54-23.2a113.3,113.3,0,0,0,8.33-10.53,36.51,36.51,0,0,1,5-6.1l3.67-3.69.33,2.8a5.12,5.12,0,0,1-2,4.82c-1.28,1.11-2.21,2.6-2.06,3.3s-.81,2-2.12,2.84c-2.41,1.59-4.07,5.31-2.73,6.14.76.47,8.08-7.75,8.08-9.06a5.66,5.66,0,0,1,1.4-2.31c9-10.16,18.87-40.64,20.34-62.83.46-7-.89-10.1-2.36-5.5-2.85,8.92-5.75,14.13-6.15,11a13.16,13.16,0,0,1,1.15-6c1.85-4,3.31-18.78,1.86-18.78-.55,0-1.27.78-1.59,1.75a18.89,18.89,0,0,1-1.51,3.25,33.46,33.46,0,0,0-2,4.25c-3.28,8.31-4.71-.95-1.57-10.21s3.1-11.29-.06-6.64a25.72,25.72,0,0,0-2.5,4.18c0,.94-4.37,6.42-5.12,6.42-2,0-1.76-4.37.57-9.3a32.65,32.65,0,0,0,2.56-6.55,1.09,1.09,0,0,1,1-1.15c.55,0,1-.68,1-1.5,0-2.41-1.29-1.68-4.5,2.53-4.43,5.83-8.38,10-9.51,10-1.67,0-1.09-4.33,1-7.5,3.85-5.82,1.31-7.81-3-2.37-8.28,10.44-9.41,11.28-10.49,7.87-.79-2.48-3.11-2.6-4.39-.21-1.74,3.25-5.81,4.79-7.85,3-3.46-3.1-17,17.18-14.36,21.46,1.51,2.42,1.38,5.31-.3,6.7-.77.64-1.61,2.84-1.88,4.88a83.45,83.45,0,0,1-3,11.21c-7,20.88-8.4,29.47-3.29,19.7C291.42,464,293,460,293,458.88c0-1.39.55-1.92,1.75-1.7,2.37.45,2.81,5.83.8,9.72-3.95,7.64-8.38,36-5.76,36.86.68.23,1.21-.47,1.21-1.59,0-2.12,4-13.33,5-14.17a9.52,9.52,0,0,0,1.52-2.5c1.39-3.06,1.8,7.64.53,13.59-1.87,8.71-.13,8.69,4.09-.06,4.38-9.11,6.36-9.73,5.34-1.67l-.64,5.14,2.64-3.25c2.19-2.7,3.32-3.25,6.71-3.25h4.07l-.63,6c-.8,7.66-.53,7.59,7.84-2.13Zm38.12,5.38c3-4.11,7.59-13.38,7-14-.77-.77-3.58,1.77-3.58,3.25a3.9,3.9,0,0,1-1.43,2.44C366,498.25,362,505.48,362,507c0,1.78,1.61,1,3.61-1.78ZM494.52,462c15.37-2.93,21.37-4.32,26-6,2.75-1,7.92-2.71,11.5-3.78,5.84-1.75,9.75-5.22,5.82-5.17-3,0-31.67,3.94-35.82,4.88-2.48.56-9.5,1.43-15.6,1.93-7.56.63-11.93,1.47-13.73,2.65-2.17,1.43-3.2,1.54-5.81.63-5.82-2-40.82-.1-37.36,2.06,1.14.72,12.5,3.54,17,4.22,5.46.83,41.89-.23,48-1.4ZM270,438.17c0-.45-3.66-2.33-8.14-4.17s-9.3-4.34-10.75-5.54a76.43,76.43,0,0,0-9.45-5.86c-8.87-4.77-12-6.77-13-8.34a12,12,0,0,0-4-2.81c-4.59-2.18-7.42-3.9-9.52-5.8a6.34,6.34,0,0,0-2.87-1.66,9,9,0,0,1-3.42-1.81c-4.42-3.35-13.16-5-18.63-3.56-3.46.93-2.71,2.78,2.5,6.15,2.61,1.7,7.32,4.91,10.47,7.15a50.92,50.92,0,0,0,6.25,4.07c.45,0,10.88,4.51,22.26,9.62,1.77.8,4.92,2.06,7,2.8s6.33,2.53,9.45,4a50.73,50.73,0,0,0,6.35,2.62,20.52,20.52,0,0,1,3.82,1.41c5.87,2.63,11.65,3.51,11.65,1.77Zm172.64-46.06c2.82-2.54,9.07-8,13.87-12.12s9.86-9.17,11.23-11.22,3.22-4,4.12-4.27c7.24-2.47,20-20.58,17-24.17a5.91,5.91,0,0,1-1-4c.19-1.46-.19-2.35-1-2.33-2.45.06-5.64,3.49-20.93,22.47-3.55,4.4-8.3,10-10.57,12.5-19.49,21.29-23.5,26.11-22.94,27.56q1.38,3.57,10.26-4.44ZM308,368c0-2-3.51-9.41-10.9-23-2.24-4.13-4.54-8.57-5.12-9.89-2-4.52-10.19-16-12.56-17.57a13.88,13.88,0,0,1-3.9-4.5C273.1,308.3,264.66,301,261.65,301c-1.59,0-.23,6,2.39,10.5,1.59,2.75,4.29,7.76,6,11.13a43.61,43.61,0,0,0,6.54,9.45c1.89,1.82,3.43,3.88,3.43,4.57s1,2.38,2.25,3.77c3.1,3.46,5,5.82,14.75,18.53,8.33,10.83,11,13,11,9.08Zm82.6-4.78a48.11,48.11,0,0,0-1.16-7c-.39-1.28-.26-2.25.31-2.25s1.56-1.35,2.24-3,1.64-3,2.12-3c1.35,0,1.05-3.79-.37-4.7a3.46,3.46,0,0,1-1.25-2.67c0-8.3-8.76-3.24-12.93,7.45S376.3,365,382,365a12.6,12.6,0,0,1,5.05,1.46c3.8,2.17,4.11,1.89,3.61-3.25Zm-21.44-1c.81-.8.86-2.12.17-4.43-1.64-5.59,3.21-19.69,8.21-23.83,2.41-2,1.72-4-1.39-4a7.1,7.1,0,0,1-4.66-2c-1.74-1.92-7.38-2.78-8.82-1.34-.36.36-4,.55-8.17.43-7.76-.22-10.18,1.17-4.27,2.47a19.9,19.9,0,0,1,5.56,2.23l2.33,1.53-4.81,2.33a23.58,23.58,0,0,1-7.82,2.36c-3,0-6.38,1.47-5.47,2.33.26.24,4.64.76,9.72,1.16l9.26.72.61-3c.54-2.67,5-6.17,7.79-6.17,1.41,0,.39,3-2.29,6.68a21.33,21.33,0,0,0-4.23,15.07c.23,3.21-.11,4.4-1.36,4.88-2.62,1-4-1.3-4.18-6.93-.09-2.86-.21-5.54-.25-5.95-.11-.92-4.51-1-5.42-.09-.36.36-.15,1.26.46,2,.82,1,.81,1.34,0,1.34-2,0-1.19,2.75,1,3.32,3.1.81,1.78,3.05-2.43,4.11-3.81,1-5,2.55-1.92,2.6a19.86,19.86,0,0,1,5.75,2c4.39,2.18,14.55,2.29,16.67.17Zm-199.64-4a119.09,119.09,0,0,0-5-17.25c-1.93-5-7.79-24-10.46-34-1.26-4.67-2.83-9.4-3.5-10.5a35.28,35.28,0,0,1-2.49-6c-.7-2.2-1.83-5.35-2.52-7s-2.07-5.83-3.06-9.3c-4.61-16.16-4.52-5.65.11,12.41,7.43,29,9,34.36,11,38.89.73,1.65,2.73,6.38,4.45,10.5,11.17,26.82,13.08,30.49,11.56,22.25Zm351.87-52.5c14.42-9.15,32.25-24.45,40.28-34.54,2.06-2.59,6.06-7,8.89-9.86,14-14.07,25-30.35,20.39-30.35-1.6,0-3.23,1.61-14.17,14a213.51,213.51,0,0,1-14.9,15.5,84.22,84.22,0,0,0-9.18,9.51,121.86,121.86,0,0,1-11.6,11.85c-20.29,18-31.17,31.19-19.71,23.9Zm-246.08-46.9c2.14-1.12,11.94-9.38,24.38-20.53,3.4-3.05,7.75-6.61,9.65-7.91a17.67,17.67,0,0,0,3.82-3.13c.18-.43,3.61-3.42,7.61-6.66C331.72,211.76,335.3,207,331,207c-4.14,0-11.41,5-25.5,17.45-4.95,4.39-10.12,8.95-11.5,10.14-18,15.63-28.76,29.58-18.68,24.26ZM264,906.18c0-1,2.11-5.83,4.68-10.75s5.6-10.85,6.75-13.18,2.64-4.25,3.32-4.25c2,0,1.47,5.49-.69,7.44a10.12,10.12,0,0,0-2.56,4.59,8.54,8.54,0,0,1-2,3.94,8.06,8.06,0,0,0-2,3.65c-1.46,5.83-7.56,12.73-7.56,8.57Z"/></svg>