<svg id="svg1923" xmlns="http://www.w3.org/2000/svg" xmlns:xlink="http://www.w3.org/1999/xlink" viewBox="0 0 509.5 398.97"><defs><style>.cls-1{fill:#795b51;}.cls-2{fill:#e8cdba;}.cls-3{fill:url(#radial-gradient);}.cls-4{fill:url(#radial-gradient-2);}.cls-5{fill:#eebb46;}</style><radialGradient id="radial-gradient" cx="424.66" cy="-99.51" r="65.64" gradientTransform="matrix(0.58, 0, 0, -0.58, 70.32, 157.59)" gradientUnits="userSpaceOnUse"><stop offset="0" stop-color="#da9283"/><stop offset="1" stop-color="#da9283" stop-opacity="0"/></radialGradient><radialGradient id="radial-gradient-2" cx="424.65" cy="-99.51" r="65.64" gradientTransform="matrix(0.58, 0, 0, -0.58, -48.83, 155.23)" xlink:href="#radial-gradient"/></defs><title>girl-07</title><g id="g2916"><path id="path2015" d="M65.35,382.16A47.24,47.24,0,0,1,49.5,362.1c-3.23-4.22-4.38-9.54-5.9-14.51a80.23,80.23,0,0,1,2.33-34.28c2.15-2.73.31-5.68-1-8.3-2-4-4.34-8-5-12.52-3.12-6-6.26-12-7.59-18.71-3.11-12.1-4.77-25-1.42-37.26,1.65-7.86,2.4-16.12,6.46-23.23,3-6.47,4.28-13.6,7.34-20a74.16,74.16,0,0,0-.45-19.63c-1.41-5.82-4.35-11.09-6.14-16.78-3.47-4.33-3-10.28-5.49-15.09-4-9.51-8.79-18.82-10.56-29.07-1.86-9.9-.67-20-.95-30A76.73,76.73,0,0,1,25,57.72a122.37,122.37,0,0,1,9.68-30c5.15-6.05,10.87-12.7,19-14.42,3.95-.69,8,.1,12,.22a35.55,35.55,0,0,1,12.09,3.06c4.54.93,8.56,3.34,12.91,4.82,9.92,6.5,19,15.23,23.21,26.55.41,3.83,4.21,5.78,7.59,6.49,4.48,1.33,9.18,2,13.42,4,3.77,1.72,7.47,3.65,11.56,4.5A36,36,0,0,1,157,67.79c3.73.75,6.48-2.58,9.12-4.63,3.55-1.26,1.81-5.06,3.26-7.86C172.1,48,179.18,43,186.72,41.82c6.41-1.34,13.34-1.35,19.33,1.6,6,2.64,10.46,7.76,13.39,13.49.56,1.72,3.08,3.88,3.34.73.62-3,2.48-5.51,3.88-8.16a66.05,66.05,0,0,1,9.26-12.33,63.27,63.27,0,0,1,11-5.59c9.65.26,19.52-.91,28.93,1.77,6,1.25,12,3.48,16.25,8.09,1.92,2.2,4.77,2.89,7.48,3.24,9.27,3.63,18.28,8.56,25.27,15.76,3,3.36,5.95,7.53,5.49,12.28,3.78-.41,7.46.55,11.08,1.14,4.4.36,8.43,4.26,12.94,2.53,5.49-3,12.09-3.48,17.24-7.18,5.73-2.1,11.16-4.9,16.81-7.2,3.35-.43,7.62-.4,9.65-3.6.92-3.28.7-6.84,2.36-10,3.72-9.83,10.9-18,19.29-24.15,3.83-3.5,9.13-4.5,13.67-6.69,5.27-1.49,10.36-4,16-4,6.57-.87,14-1.07,19.47,3.35A55.07,55.07,0,0,1,480,28.21c4.69,9.6,7.52,20,9.7,30.41,3.81,10.51,3.77,21.85,3.72,32.88.18,9.37.34,19-2.63,28-2.62,10.1-8.62,19-11.08,29.12-.48,4.71-3.85,8.41-5,12.9-3.26,6.85-5.7,14.33-5.26,22-.31,5.08-.09,10.47,2.49,15A145.16,145.16,0,0,0,479.63,219c2.51,7,2.94,14.45,4.83,21.58,2.59,13.7-.48,27.68-4.47,40.8-2,5-5.25,9.41-6.36,14.71-1.56,4.75-4.41,8.92-6.13,13.6.46,3.83,2.72,7.21,2.85,11.12,1.56,9.73,2.26,19.86-.15,29.52a60.12,60.12,0,0,1-6.14,13.86c-3.55,7.21-8.64,13.89-15.52,18.2-4.77,2-9.61-1.31-12.67-4.78-4.23-4.49-6.32-10.5-7.7-16.4.63-7.6-3.09-14.54-4.93-21.71a40.4,40.4,0,0,1-2.34-15c-.42-19.83.5-39.71-1.17-59.5-.45-12.77,1.14-25.53.09-38.28A79.56,79.56,0,0,0,413,198.07c-3.56-9.28-3.69-20.2,1.23-29,3.43-7.3,5.39-15.16,8-22.76,1.21-7.74.66-15.64.17-23.41-.84-5.31-4.95-9.54-9.66-11.8-3-3.44-8.06-3.67-12-2-7.67,3.29-15.84,5.22-23.83,7.59-1.81.51-5.36.78-2.47,3.09A32.47,32.47,0,0,1,383,133c1,3.75,3.34,7.2,3.19,11.2.07,4-1.58,8.32-5.11,10.52-2.92,4-2.71,9.45-5.8,13.36,1.88,3.61,6.88,5.4,7,9.94-.51,6.53-.32,13.44-3.4,19.44-1.65,3.36-4.4,6.3-8.12,7.31-2.6.71-5.41,2.76-4.77,5.83-.11,3.9-1.06,7.79-1.74,11.64-5.8,28.52-19.94,55.87-42.14,75a103,103,0,0,1-32.92,19.66c-24.18,8.82-51.83,8.08-75.25-2.77-10.85-4.73-20.5-11.83-29.27-19.7-20.8-19.2-33.64-45.84-39.2-73.34a118.13,118.13,0,0,1-2.16-17.88c-4-2.83-9.7-4.13-11.68-9.12-3.3-5.5-3.2-12.29-1.82-18.36,1.4-5.29,5.66-10.4,11.39-10.88,2.15.1,5.62-1.68,2-3-2.84-2-4.28-5.52-5.74-8.61-2.8-6.95-6.54-13.74-7.31-21.31a36.31,36.31,0,0,1,5.13-19.74c-9.52-1.95-19.54-.74-28.83-3.92-5,3-11.3,5.47-13.42,11.4-2.29,7.47-1.32,15.37-1.33,23.06.63,6.2,3.68,11.77,5.12,17.77,2.92,8.28,8.11,16.27,7.35,25.38-.82,11.33-7.67,21.15-8.64,32.44-2.4,16-.27,32.22-.83,48.31-1.68,18.93-.67,38-1.06,56.92a45.28,45.28,0,0,1-2.5,16.34c-1.75,6.85-5.35,13.41-4.84,20.67a34.17,34.17,0,0,1-7,16.26c-3.06,3.6-7.7,7.31-12.73,5.72l-.57-.19-.58-.24Z"/><path id="path2013" class="cls-1" d="M72.45,380c2.46-3,6.74-4.73,7.84-8.72.62-2.07-3-3.26-2.26-.27-3.12-.24-5.07,3.21-8.07,3.36-1.9-3.05,4.07-3.62,5.47-5.76-.08-1.73-1.79-7.64,1.62-5.84-1.22,1.7,1.13,3.89,1.14,1.05-.57-2.73.78-5.22,2-7.54,1.21-1.45-.08-6.58,2.33-3.51.57,3.41-1,6.7-1.42,10.05-1.27,1.36-.3,7.08,1.34,3.33,3.47-6.73,1.63-14.77,4.86-21.59a68.84,68.84,0,0,0,4.53-29.92,337.33,337.33,0,0,1,.65-42.3c1.08-19.72-1.25-39.6,1.46-59.24,1.66-8,6.08-15.12,7.29-23.16.15-5.66,1.32-11.87-1.83-17-2.4-5.73-5.36-11.35-6.36-17.56-2.2-4.88-4.26-10.16-3.51-15.62.16-7-.69-14.2,1.25-21,1.7-4.23,5.51-7.28,9.38-9.41,2.75-.41,2.95-4-.26-3.46-4.14-1.62-4.83-6.54-5-10.42,0-1.38-.39-5-.74-1.69.18,1.55-.06,6.14-1.75,2.66-.09-2.79-2.7-4.35-4.48-1.65-4.43,3.33-9.16,7.55-9.92,13.35-.44,8.36,1.17,16.62,3,24.72a119.5,119.5,0,0,1,1.78,15.3c.57,5,1.48,9.89,1.91,14.88a145.09,145.09,0,0,0,4.15,16.55c1.33,3.6,3.22,7.84,1,11.51-1.23,5.84-5.8,10.25-7.26,16-2,5.16-4.66,10.17-5.77,15.62-.8,4.43-1.29,9.24.88,13.37,1.31,4.88,1.57,10,2.67,14.9.28,8.28.87,16.67-.43,24.89-1.38,5.91-.81,12.1-2.27,18-.73,7.8-1.89,15.58-1.73,23.44-.33,13.8-.46,27.61-.68,41.42-1.66,3.24-3.54,7.51-7.69,7.88-3.67-.67,1.47-3.23,2.76-4.12,2.31-1.71,2.89-4.74,3.28-7.42q.15-17.79.5-35.61c.21-6,.19-12,.82-17.91.8-5.34.94-10.78,2-16.07.4-4.62.52-9.31,1.78-13.81.27-8.42.7-17-1.21-25.26a55.91,55.91,0,0,0-2.93-12.92c-1.13-4.85.27-9.77.91-14.57,1.62-5.28,4.35-10.12,6-15.37,2.21-5,5.5-9.56,7-14.85.65-5-2.44-9.46-3.39-14.23a75.33,75.33,0,0,1-2.88-15.68,116.72,116.72,0,0,1-1.63-14.67,141.38,141.38,0,0,0-2.83-16.24,95,95,0,0,1-1.65-21.67c1-6.18,5.93-10.71,11.19-13.52,2.15-1.17,4.37-3.54,3.26-6.18.06-2.73-2.92.65-2.95-2.27-.14-2.18,4.81-2.5,2.22-4.74-1.64.1-5.91-.39-2.65-2,3.65-.46,6.07-5,4.9-8.37-1.94-2.78-6.16-2.09-9.11-3.08a16.16,16.16,0,0,0-11.91,2.11C64.22,72,58.35,78.9,57.93,87.07c-1.19,9-.82,18.39,2.07,27.09,1.76,5.61,4.94,10.65,6.74,16.25a82.15,82.15,0,0,0,5.57,12.71c1,5.8,5.45,10.3,6.68,16,.31,8.13.63,16.57-2.44,24.27-2.27,7.24-6.5,13.72-8.35,21.11a105.64,105.64,0,0,0-4.53,15c-.86,8.34-3.05,16.95-.53,25.2,1.37,5,3.43,9.81,3.62,15,.52,6.08.5,12.21,1.57,18.24.42,6,0,11.95.12,17.92a72.29,72.29,0,0,1-5.2,22.67c-1.61,5-3.28,10.17-3.13,15.52.13,4.28,0,8.56.1,12.83.32,2.78,4,4.51,3.09,7.53-2.87-.35-3.7-4.24-5-6.47-.51-3.27,0-6.65-.1-10,0-6.5.23-13.2,2.8-19.28a96.5,96.5,0,0,0,4.92-17.49c1.13-7.16,1-14.46.69-21.69-.3-4.71-1.29-9.33-1.25-14.07a43.33,43.33,0,0,0-2.93-15.4A47.27,47.27,0,0,1,61,226.36a71.34,71.34,0,0,1,3.91-18.74c2.18-6.24,4.2-12.54,7.08-18.51,3.08-6.58,5.44-13.64,5.51-21-.07-3.38.29-7-1-10.19-2.42-4.6-5-9.18-6.42-14.2C66.23,137,64.5,129.4,61,122.55a56.44,56.44,0,0,1-5.37-26.48,131.15,131.15,0,0,1,.94-13.88c1.27-5.53,5.38-9.74,9.33-13.53,6.26-5.17,15-5.39,22.59-3.72,2.55,1.08,5.69.76,5.73-2.7.86-2.17,2.3-7.12,5.08-6.05-.89,1.4-.43,2.55.87,1,2.31-2.5.16-5-2.46-5.66-4.33-2.7-7.77-6.5-11.34-10.09a25.93,25.93,0,0,0-11.61-6.47,52.09,52.09,0,0,0-11.88-2.4c-6,1-9.93,6.45-12.06,11.75-2.51,5.21-4.93,10.66-5,16.55-.93,12.77-.37,25.58-.14,38.37A57.5,57.5,0,0,0,48,114.72c1.46,7.8,5.86,14.59,8.09,22.13,3.55,4.79,4.61,10.91,8,15.79a62.49,62.49,0,0,1,4.44,14.62c-.24,4.74-2.87,8.88-4.3,13.29a73.14,73.14,0,0,0-7.15,24.79c-.9,4.78-2.49,9.4-3.27,14.19-2.1,5.91-5.07,11.63-5.44,18-.56,7.71-.13,15.44-.32,23.15.09,2.88-.25,5.86.33,8.65a100.27,100.27,0,0,1,6.17,15.57c2.39,6.76,5.47,14.07,3.31,21.32-2.08,8.32-3.47,16.79-5.45,25.14-1.15,5.18-.69,10.51-.86,15.77,0,2.78,1.93,5.11,3,7.57.68,2.61,4.42,3.39,4.58,5.71-2.55,1-5.19-2-6.68-3.93-1.28-3.21-2.67-6.55-2.83-10.1-.3-7.54.17-15.22,2.43-22.47.88-6.72,2.76-13.24,4.08-19.87,1-4.25,0-8.59-1.56-12.57s-2.94-8.09-4.24-12.16a38.1,38.1,0,0,1-4.14-20.12c0-9.71-.73-19.6,1.41-29.15,1-4.24,3.21-8.11,4.49-12.24,1-5.87,3.23-11.47,3.78-17.42a82.77,82.77,0,0,1,7.77-24.11c1.15-3.9,4.13-8,2.14-12.15a40,40,0,0,0-4.21-11,58.6,58.6,0,0,1-4-9.24c-1.82-3.64-4.34-7-5.28-11-3-6.86-5.91-13.81-7.24-21.21C43.42,104.1,44,96.25,43.7,88.51c0-11.54-.71-23.18,1-34.63C46.15,48.31,49,43.23,51.35,38c2.78-3.84,6.82-7.87,12-7.34,6.36.25,12.56,2.13,18.46,4.39,6,3.18,10,8.92,15.15,13.27,2.46,1.38,4.08,4.14,7.06,4.52s5.84-.46,8.73-.9c-1.8-8.68-7.57-16-14-21.78A56.87,56.87,0,0,0,87.2,22.27C80.26,19.74,73.46,16.49,66,15.72c-3.5-.29-7-1.73-10.48-.77C47.7,16.62,42,22.78,37.07,28.71,33.35,34.58,31.69,41.42,29.63,48c-1.33,6.47-3.22,12.81-4.93,19.18-1,5.26-1.05,10.64-1.87,15.92-.34,8.82-.58,17.7.64,26.46,2.68,5.37,1.68,12,5.16,17,1.34,5,4.86,9.12,5.86,14.23,3.19,4.74,1.51,11.64,6.15,15.58,1.69,7.48,6.15,14.18,6.54,22a123,123,0,0,1,.09,14,153.89,153.89,0,0,0-5.75,16.53c-1.32,4.25-3.4,8.22-5,12.35-2.59,9.15-4.08,18.57-5.69,27.92-.37,6.47.94,12.89,2.53,19.12.69,8.25,5,15.52,8.17,23,1.63,5.4,4.35,10.38,6.65,15.48,1.66,6.05-2,11.74-2.67,17.65-1.16,6.94-1,14-.49,21,2,5.24,3.24,10.79,6.21,15.6,3.53,7.33,8.11,14.61,15.07,19.1A5.37,5.37,0,0,0,72.45,380Z"/><path id="path2011" class="cls-1" d="M447.85,380.15c7-4.27,11.53-11.38,15.06-18.55,3.07-4.68,4.16-10.25,6.34-15.33a82.22,82.22,0,0,0-.54-23.7c-.91-4.52-3.12-8.92-2.86-13.6,1.5-6.29,5.57-11.58,7.11-17.86,2.38-5.79,5.74-11.21,7.12-17.38,1-4.5,1.78-9,2.85-13.51a47.21,47.21,0,0,0-1-20.81c-1.76-8.78-2.79-18-7.32-25.89-2.13-5.53-3.42-11.4-5.72-16.84-3-4.86-1.46-10.76-1.8-16.13.22-8.27,3.94-15.86,7-23.4,1.94-4.4,4-8.84,4.67-13.65,2.21-4.6,3.19-9.79,6.21-14A99,99,0,0,0,490.18,112c2.63-9.19,1.58-18.85,1.49-28.26-.56-5.57-1.07-11.17-1.91-16.68-2.11-6.9-3.69-13.93-5.42-20.92-1.72-5.31-3.3-10.73-5.88-15.69a34.58,34.58,0,0,0-18.31-15.12c-3.95-1.6-8,0-11.9.45-7.82,1.14-15.28,4.07-22.42,7.38-4.93,2.43-9.09,6.15-13,9.92a41.12,41.12,0,0,0-10.3,16.16c-1.14,2.82-1.63,5.88-2.49,8.74-1.87,3.74,4.94,7.15,6.85,3.44.9-3.25,3.35-5.83,5.24-8.57a72.5,72.5,0,0,1,11.82-12.68c2.76-2.41,5.44-4.93,8.69-6.67,3.78-2.42,8.08-4.57,12.71-4.11,4.23-.05,8.47-.14,12.71.12,5.55,2.6,11.52,5.12,15.42,10.07,3.13,6.11,6.43,12.36,7.27,19.27,3.51,12.2,3.81,25,3.19,37.63-1.45,10.9-6.85,20.63-11.21,30.55-1.06,3.06-3.27,5.52-4.26,8.62-1.13,3.39-2.71,6.59-4,9.91-1.54,5-2.53,10.08-4.1,15-1,4.69-1.86,9.45-2.72,14.15-.1,12.1.3,24.38,3.63,36.09,2.52,4.78,3.27,10.23,5.28,15.21,1.68,5.89,2.25,12,2.8,18.11.28,8.36,0,16.72-.11,25.08-2.81,5.7-5.91,11.26-9.08,16.75-2.51,5.76-5.85,11.49-5.83,18,.23,4.18,2.27,8,2.92,12.08,3.3,5.12,1.25,11.36,1.53,17a64.65,64.65,0,0,1-2.25,13.72c-3.76,5-5,11.46-9,16.24-2,2.21-1.56,6.43-1.88,8.07-3.31-.68-2.09-4.95-1.11-7.1,1.29-3.23,3.74-5.79,5-9A86.55,86.55,0,0,1,455,344.47a72.4,72.4,0,0,0,2.25-15.89c1-6.56-2.35-12.66-3.87-18.85a21.91,21.91,0,0,1-.06-12.25c.81-5.5,4.06-10.15,6.06-15.22a44.56,44.56,0,0,0,8-16.9c.75-5.46.05-11,.38-16.49a102.57,102.57,0,0,0-3.12-22.05c-1.29-4.25-3.2-8.32-4-12.72-3.75-6.48-3.43-14.22-4.3-21.43-.41-7.4-1-14.88-.05-22.27,1.14-5.23,1.75-10.59,3.57-15.65a82.55,82.55,0,0,1,5.8-18.34c4.58-10.87,10.93-21,14.25-32.38a35.87,35.87,0,0,0,2.39-13.89,97.29,97.29,0,0,0-3.15-28.89,50.47,50.47,0,0,0-8.31-20.76c-5.69-6.86-14.88-10.11-23.64-9.62-6.14-.29-11.47,3.38-16.45,6.48-3.31,2.53-6.1,5.68-9.46,8.13a176.5,176.5,0,0,0-11.08,13.8c-1.51,3.14-5.08,6.1-3.79,9.92a29.11,29.11,0,0,1,3.08,6.73c1.95,5.47,3.56,11.06,5.75,16.43a2.78,2.78,0,0,0,4.84-2.62c.7-2.62-3.84-4.29-.81-6.19-.71-.92-2.65.29-1.67-1.86.39-3.71-.19-7.87-2.9-10.65-.54,1.86-5.2,3.85-3.55.39,2.94-1.12,1.05-5.78,2.94-7,2.2,3,4.7-1.15,6.61-2.46a29.87,29.87,0,0,1,9-3.56c6-1.1,12.13-.91,18.19-1.17,4.43,0,9.38,1.18,11.93,5.15,3.25,3.87,5,8.71,7.33,13.14a51.8,51.8,0,0,1,.26,22.91,80.61,80.61,0,0,1-5,14.12c-2.53,8.47-7.93,15.69-10.92,24-2.2,5.61-5.06,10.93-7.38,16.47-3.69,9.48-3.26,19.77-3.73,29.75-.14,6.56-.37,13.19.86,19.65.5,5.16.21,10.5,2.09,15.42,1.06,5.63,1.68,11.37,3.18,16.91.69,5.62,2.22,11.2,1.63,16.92,0,9.22.66,18.77-2.87,27.51-1.49,4.49-4,8.65-5.09,13.25a52.94,52.94,0,0,0,0,16.62c1.6,6.36,4.18,12.44,5.92,18.75,1,4.64-.07,9.42.4,14.06.69,1.68-1,6.19-2.72,4.81.39-3,1.09-6.06,1-9.16a58.68,58.68,0,0,0-.52-9.29c-2.49-6.58-5-13.23-6.29-20.17-.46-4.93.31-9.88.08-14.81.44-6.72,5.19-12.06,6.43-18.55a42.71,42.71,0,0,0,1.67-14.17c.1-6.8.85-13.73-.92-20.39-.52-6.1-2.56-11.94-3.16-18-1.17-5.44-2.64-10.89-2.59-16.51-.67-11.47-1.36-23-.76-34.45,1.58-5.9.53-12.32,3.19-17.95,1.51-5.41,4.82-10.09,6.54-15.42,4.14-10,10-19.28,13.38-29.63,2.8-6.8,5.36-13.93,5.18-21.4-.15-9-4.7-17.31-10.21-24.17-4.24-4.48-10.94-3.68-16.52-3.34-6.31.23-13,1.05-18.2,4.9-3.22,1.3-6.09,5.14-4.26,8.6,1.18,1.6,1.08,5,4,3.08,1.23-1.45,3.68-.25,1.68,1-2.9,1.07-2.76,6.81.83,4.13,2.08-2.54,6.24,0,2,1.52-2.58.9-5.37,2.14-4.42,5.47-.49,3.4-.41,7.12,2.91,9,3.13,3.29,5.94,6.89,8.81,10.39,2.41,4,3.25,8.68,5.36,12.81,1.69,5.13.44,10.58.81,15.86-.41,5.36-3.23,10.12-4.86,15.15-2.31,5.44-4.94,10.78-6.47,16.49a60.44,60.44,0,0,0-4.77,17.51,70,70,0,0,0,3.28,30.24c.87,3.49,1.87,7,2.66,10.44.1,5,1.88,9.79,1.39,14.78,0,10.65.69,21.38-1,31.94-.78,8.49-.43,17-.58,25.56,0,8.35-.25,16.73.76,25a83.87,83.87,0,0,1,3.44,16.32c1.45.88,1.75,7.28-.43,5-2.61-6.07-2.1-13-4.51-19.12-1.3-5.58-.63-11.37-1-17-.06-14.38-.79-28.85,1.17-43.15,1.25-12.91.34-25.91-1-38.77-1.89-4.69-2.19-9.87-4.18-14.53a90.78,90.78,0,0,1-1.05-32.94c1.49-5.21,2.61-10.59,5.05-15.47,1.63-5.61,4.59-10.72,6.54-16.22,2.43-5.28,4.22-11,4-16.88.58-5.75-1.74-11.19-4.05-16.3-1.24-3.49-2.69-7.13-5.79-9.41-3.12-3-5.22-7.25-9.24-9.27-3.13-.28-4.25,3.17-5,5.54-.35,2.67-2.94,4.17-4.28,5.77,2.28,1.45,4.72,2.76,6.9,4.44,3.34,2.28,6.71,5.26,7.37,9.46,1.81,7.44.7,15.13,1,22.68-.35,5.85-3.76,10.94-4.7,16.68-1.79,6.54-5.65,12.34-7.35,18.89A41.83,41.83,0,0,0,416.63,201c2.56,6.58,4.82,13.45,4.87,20.58,1.49,15.26-.6,30.58.31,45.86.59,13.37,1.65,26.75,1.06,40.14,0,7.61-.36,15.24.28,22.83,1.86,6.17,3.31,12.47,5.46,18.56,1.2,4.15,1.06,8.55,1.78,12.75,1.93,4.45,2.31,10.2,6.67,13.13,1.35-1.4-.36-6.29-1.78-3-1.25-4.52-1.94-9.17-3.1-13.71,1.28-3.8,2.42,2,2.79,3.49.21,1.65,1,2.79,1.48.54.19-2.32,2.72-2,1.59.25-.6,1.55-.43,7.85,1.7,4.19-.38-2.66,4.28-3.67,3-.5-1.57,2-3.77,5.47-.44,7,2.26,1.79.36,5-1.72,2.13-3.91-.51.06,4.35,1.79,5,1.78,1.42,3.79,1.06,5.5-.16Z"/><path id="path2009" class="cls-2" d="M272.3,319.26a101.77,101.77,0,0,0,39.08-16.33,121.93,121.93,0,0,0,35-39.11,134,134,0,0,0,16-44.86c.9-4.89,1.39-9.85,2.25-14.74,4.38-1,9.74-2.13,11.8-6.64,1.3-3.22,2.87-6.45,3-10A64.85,64.85,0,0,0,379.6,177c-1.11-4.75-7.49-7.5-11.55-4.57-7.65,1.52-15.43-2.68-19.83-8.83-3-3.46-4.27-8-6.82-11.78-7.85-6.35-18.18-8.85-25.55-15.86a13.51,13.51,0,0,1-6.75-9.5c-6.39.15-12.63-2-18.26-4.83-5.15-3.52-6.32-10.1-8.28-15.61-.63-4.28-5.91-2.34-8.73-4.21-6.55-2.37-12.4-6.29-18.15-10.15-4.1,1.66-8.91,2.41-13,.48-7.17-1.84-12.15-7.75-18.48-11.21-1.83-1.44-6.54-4.12-6.54.09,0,2.43-1.38,4.65-2.25,6.88-3.41,7-8.13,13.51-14.68,17.81a31.83,31.83,0,0,0-9.59,9.5A34.09,34.09,0,0,1,172.62,127c.23,5.43.22,11.14-2.32,16.1-2.64,6.63-5.27,13.61-10.3,18.83-3.64,2.85-9.22.57-12.52,4-4.32,1-9.75.8-12.56,4.89-4,5.3-4.63,12.62-2.79,18.86,1.67,4.39,4.8,9,9.81,9.77,3.42.75,4.09,4.68,4.06,7.63-.18,4,.95,7.87,1.52,11.82,2.8,15.81,7.91,31.32,16.1,45.18,6.68,12.12,15.8,22.79,26,32,17.65,14.87,40.21,24.69,63.52,24.54a96.46,96.46,0,0,0,19.12-1.39Z"/><path id="path2005" d="M217.68,310.49c-2.31-2-5.85-2.39-7.62-5-.07-3,4,.49,5.56,1,1.82,1.47,5.64,2.45,6.24,4.07C220.61,311.38,219,310.45,217.68,310.49Z"/><path id="path2912" class="cls-3" d="M352.41,214.86A37.76,37.76,0,1,1,342,188.81a37.87,37.87,0,0,1,10.42,26.05Z"/><path id="path2017" class="cls-4" d="M233.26,212.5a37.76,37.76,0,1,1-10.42-26.05,37.87,37.87,0,0,1,10.42,26.05Z"/><path id="path2001" d="M241.41,293c-5.45-2.75-11.14-5.19-15.91-9.08-5.3-3.47-10.38-7.77-13-13.66-6.4-7.94-8.84-18-12.09-27.48-1.86-6.62-5.23-13-4.93-20.05-.19-3.4-.33-6.82-.49-10.22-2.48,2-5.45,6.3-8.1,6.24,1.61-4.42,6.42-6.48,8.62-10.53.51-1.24,3.43-5.08,2.92-1.55-1.15,3.33-2.18,6.85-1.75,10.46.63,5.63.8,11.4,2.78,16.76,1.26,3.27,2.07,6.7,3.21,10,2.21,5.16,3.07,10.81,5.63,15.85,2.82,6.87,7.4,12.83,12.34,18.3,5.18,3.68,10.09,7.78,15.84,10.55,4.57,2.58,9.64,4.85,15,4.44,11.26.66,23.19-3.54,30.27-12.6,10.47-10.84,20.38-22.74,26-36.88,2.59-8,5-16.17,5.52-24.61,1.81-3.39-.67-6.81-2.47-9.58-1.52-1.82-1.94-5.21.82-2.27,2.34,2.59,3.71,6,6.51,8.21,2.13,3.11,6.19,4.58,7.67,8.15-4.53-.2-6.11-5.82-10.39-6.54-1.45,14.9-5.37,29.92-14,42.36a110.4,110.4,0,0,1-16.11,19.45c-4.45,4.57-8.75,9.59-14.47,12.6-8.29,3.57-17.64,4.21-26.49,2.87a26.45,26.45,0,0,1-2.94-1.17Z"/><path id="path1999" d="M363.53,196.77c-3.35,0-1.78-6.88.24-2.81,1.94,3,6,1.47,6.72-1.59,1.48-3.33,2.17-8.08-1.11-10.61-1.77-2.2-5.57,2.89-5-1,2-1.75,5.76-2.59,7.73-.45.8,2.65,1.88,5.43,1.4,8.31s-1.13,6-2.95,8.29C368.6,198.69,365.57,198,363.53,196.77Z"/><path id="path1997" d="M141.73,192.28c-4.25-2.94-4-9.05-2.3-13.36.82-3.41,5-5.2,8.27-4.46,1.77.35,2.57,3.65.08,2.08-3.63-.75-6.27,2.26-7.34,5.34-1.53,3.94,1.41,9.49,5.87,9.47.39-.85,3.2-4.47,3.36-1.3-.11,4.53-5.2,3.82-7.94,2.23Z"/><path id="path1995" d="M265.89,167.15c-4.61-3.11-1.93-11.21,3.42-11.56,4.31-.69,8.22,3.46,7.62,7.69-.58,3.31-4.07,6.4-7.51,6A6.35,6.35,0,0,1,265.89,167.15Z"/><path id="path1993" d="M343.71,166.92c-1.09-2.45-4.83-5.25-2.92-8,1.49.72,3,4,4.43,5.86,1.21,1.8,1,5.16-1.51,2.18Z"/><path id="path1991" d="M248.24,161.35c-5.25-2.12-4.65-11.15.95-12.36a7,7,0,0,1,8.41,4c1.83,3.33-.65,6.65-3.41,8.4a4.77,4.77,0,0,1-5.95,0Z"/><path id="path1989" d="M284.35,151.42c-2.46-4.6-7.3-7-11.63-9.56,0-4.17,5.23-1.38,7.06,0,2.66,2.26,5.73,4.46,7.07,7.82,1,1.62-1.92,3.95-2.5,1.7Z"/><path id="path1987" d="M234,144.81c-1.06-3.42,1.82-6.46,4.87-7.44,3.37-.91,6.88-2.12,10.35-1.59,3.81,2-2.56,3.23-4.33,3.27a19.21,19.21,0,0,0-10.24,6.13l-.65-.37Z"/><path id="path1985" d="M296.12,130.89c-3.2-1.48-7.35-1.16-9.84-3.95-1.11-2.41,3.47-.14,4.83,0,3.77,1.23,7.53,2.94,11.58,2.87C304.18,132.65,297.25,131.11,296.12,130.89Z"/><path id="path1983" d="M179.56,129.42c3.52-1.58,6.38-5.23,10.51-5,2.09.66-2.29,2.72-3.25,3.67C184.77,129.27,181.85,131,179.56,129.42Z"/><path id="path1979" d="M240.55,98.59c-4.79-1.14-8.63-4.48-12.39-7.42-1.79-1.12-6.67-3.15-4.91-5.1,5.29,1,8.48,5.87,13.12,8.13a17.54,17.54,0,0,0,12.13,3.06c2-.34,3.86,2.2.7,1.86-2.88-.07-5.86.42-8.65-.53Z"/><path id="path1977" class="cls-1" d="M369.8,168.74c1.89-1.33,6-4,4.28-6.47.07,2.17-2.52,3.53-3.15,3.81-.56,1.27-3.35.29-1.07-.34,0-3-3.82-.32-3-3.9-.61-3.31,2.35-5.79,5.31-4.19,2.44-.69,4.92,1.51,3.46,3.95A21.52,21.52,0,0,1,383,149.11c2.41-5.85-1.07-11.74-2.76-17.26-2.7-6.31-7.58-11.28-12.33-16.08-3.05-1.2-2.45-4.9-1.33-7.26,1.52-3,1.26-6.39,1-9.65-.4-5.9-2.86-12.3-8.51-15-6.55-3.8-13.44-7.66-21.12-8.37-3-.41-6-.65-9.05-.76-.11-7.43-5.54-13.37-11.16-17.58-7.82-5.58-16.37-10.73-26-12.36-3.54-6-10.7-8.11-17.07-9.57a64.65,64.65,0,0,0-21.8-1.92,15.57,15.57,0,0,0-9.65,2.32c-3.25,1.45-6.91,3.06-8.45,6.52-5.14,5.18-8.43,11.8-11.24,18.44-2.26,3.51-5.51-.86-6.54-3.15-2-3.76-4.18-7.68-8.11-9.71a51,51,0,0,0-10.36-4.55c-6.14-1.17-12.25,1-18,3-4.84,2.46-9,7.05-9.59,12.61,1.09,3.13-1.59,5.7-4.2,6.84A23.08,23.08,0,0,0,158,73.31a27,27,0,0,0-3.65,8.38c-3.62,3.4-7.63,6.71-9.54,11.44-2.45,4.34-2.1,9.5-3.25,14.22-3.27,5.06-7.85,9.86-8.27,16.18-2.46,5.13-1.43,11.17,1,16.1,1.7,6,4.84,11.48,7.43,17.11a12.35,12.35,0,0,0,11.17,5.38c5.63-1,9.54-5.88,11.36-11,3.64-7.27,7.19-15.16,6.38-23.5.12-3.2,3.79-4,6.26-4.8,3-.83,5.32-3,7.94-4.62,3.67-2.81,5.91-6.91,8.71-10.46,3.42-3.35,8.29-4.94,11.18-8.9,3.21-3.5,6.41-7.2,8.13-11.69,2.67-3.15,1.83-8,4.69-11,2.89-1.83,5.52,2,8.21,2.86a59.84,59.84,0,0,1,10.33,7.33A25.59,25.59,0,0,0,248.77,91c5-2.34,11-.87,14.93,2.83A67.85,67.85,0,0,0,279.39,101c3.33-.8,5.48,2.5,5.95,5.36.84,3.39,1.64,6.9,3.49,9.89,3,3.92,7.94,5.54,12.47,6.91,3.37.75,6.85.7,10.28,1,.22,3.62,1.72,7.52,5.12,9.25,5.65,4.9,12.31,8.42,18.94,11.75,4,2.14,9.07,4.31,10.07,9.28,1.9,5.85,6.63,10.21,11.35,13.88,3.83,2.18,8.88,2.85,12.74.38Z"/><path id="path1973" d="M360.55,154.47c-6.14-1.44-9.86-7.25-12.4-12.58-1.95-4.85-3.63-9.83-6.42-14.29-2.29-4.34-5.31-9.44-10.67-10.1-5.84-1.31-11.68.63-17.51.89-3.34,0-4.42-3.68-4.6-6.37-.41-3.85-.54-8.47-4.09-10.89-2.76-2.12-6.27-2.87-9.67-3.12-4.84-1.23-7-6.24-9.3-10.19-2.45-4.32-7.75-5.28-12.09-6.72-4.93-1.11-9,4.41-14,2.37-6.69-2.2-13.79-5-18.11-10.84-1.69-2.44,1.57-3.8,2.31-1a27,27,0,0,0,10.48,7.49c4,3.44,9.66,2.21,14.2.7,5.65-2,11.29,1.11,16.41,3.21,4,3.46,4.69,9.81,9.63,12.28,4.73,1.58,10.65,1.62,13.83,6,2.78,4.19.88,9.93,3.92,14,2.63,2.31,6.28.46,9.26,0s6.18.18,9.29.2c4,.3,8,2.22,9.8,6a78.07,78.07,0,0,1,8.8,18.35c2.61,5,5.65,10.77,11.5,12.38,1.54.05,4.9-3.4,4.09.2A3,3,0,0,1,360.55,154.47Z"/><path id="path1971" d="M153.67,149.49c2.55-4.28,6.6-7.72,8.15-12.54,1.07-5.62-1.6-11.13-1.06-16.76,2.9-4,8.85-5.26,10.21-10.39.86-4.11,2.25-9.31,6.83-10.6,3.54-.38,7.2-.46,10.6-1.76,3.31-1,5.68-3.53,8.66-5.07a32.27,32.27,0,0,0,11.22-12c1.5-5,4.95-9.18,6.06-14.31,3.15,1.85.09,5.88-.92,8.28-2.74,5.18-4.26,11.35-9.09,15.13A57.74,57.74,0,0,1,188.16,100c-4.24.53-9.32,0-12.53,3.35-2.06,2.67-1.39,6.45-3.39,9.22a16.35,16.35,0,0,1-7.58,6.89c-3.07,1.94-2,6-1.27,8.86a20.45,20.45,0,0,1-.12,10.59c-1.39,4.37-4.42,8-7.78,11.07a1,1,0,0,1-1.82-.51Z"/><path id="path1969" d="M377.88,146.88c-1.18-6-3-12.4-7.58-16.78a122.85,122.85,0,0,0-13.16-8.89c-3.35-3-2.26-8-1.11-11.81,1-2.78,2.55-5.55,2-8.63-.45-4.15-2.52-8.37-6.47-10.2-5.06-2.44-10.77-2.85-16.17-4.15s-11.79-2.3-15.68-6.83a17.26,17.26,0,0,1-4.07-9.77c-1-4.3-4.83-7.17-8.73-8.71a16,16,0,0,0-12.69-2.94c-4.82.26-10.69.58-14.05-3.61-3.29-3.26-5.47-8.19-10.33-9.39-4.44-1.64-10-3-14.09.14A40.21,40.21,0,0,0,240.62,55c-1.68,1.55-3.07,6.08-5.82,4.56,1.88-5,6.35-8.36,10.33-11.65a60.09,60.09,0,0,1,14.13-6.27c6.05-.42,12.47,1,17.31,4.73,2.57,2.47,4,6.26,7.42,7.7,2.25,3.38,6.81,2.66,10.23,2.06a13.33,13.33,0,0,1,9,.75,86.52,86.52,0,0,1,10.87,5.5c3.56,3,3.08,8.22,5.23,12.07,2.11,5.53,8.21,7.75,13.44,9.26,6,1.51,12.3,2.15,18.24,4.07,3.83,1.32,7.64,4.31,8,8.64,2.56,4.43.74,9.76-1.14,14.07-2.63,4.34.22,10.45,5.08,11.55a83.28,83.28,0,0,1,7.59,5.11c4.47,3.11,6.47,8.42,8.16,13.37.67,2.84,1.89,6.9.39,9.22-1.14-.33-.89-2-1.15-2.88Z"/><path id="path1967" d="M145.76,143.09a24.18,24.18,0,0,1-2.46-17.25c1.79-5.61,7.15-8.77,10.64-13.15a48.67,48.67,0,0,0,6.89-17.9c1.44-5.54,4.32-11.62,10.21-13.46,2.82-1.09,6.65-2.29,7-5.83a20.27,20.27,0,0,1,3.54-11.16c2.36-3.43,6.07-5.56,9.52-7.72a11.79,11.79,0,0,1,11.1-.3c4.15,1.65,8,5.46,7.79,10.2-2.75,1.39-2.64-4-4.36-5.36-2.58-2-5.71-4.11-9.23-3.8-4.62.13-8.08,3.59-11.27,6.53a16.94,16.94,0,0,0-5,10.8c-.45,3.08-1.61,7-5.15,7.58-7,1.51-11.81,8.42-12.57,15.33-1.61,6.85-3.92,13.94-8.81,19.17-3.87,3.65-8.5,7.6-9.06,13.23a18.84,18.84,0,0,0,3.1,11.35c1.84-.76,5.37,2.28,1.68,2.08A15.19,15.19,0,0,1,145.76,143.09Z"/><path id="path1963" d="M347.74,118.85c-3.23-3.34-3.06-9.34-7.69-11.41-4.08-.9-8.34-1.08-12.33-2.44a24.19,24.19,0,0,1-13-9c-3.56-4.5-6.71-9.53-11.58-12.75-3.65-3.41-8.48-6-13.62-5.47-5.91-.39-8.6-6.94-14.06-8.38a85,85,0,0,0-21-5.23c-1.4,2.48-6.11-.46-2.31-1.42,7.18-1.2,14.06,1.94,20.91,3.54,4.6,1.21,9.21,3.29,12.17,7.16,3.87,3.73,9.94,1.54,14.24,4.41C307.12,82,312.56,89,317.75,95.77A21.55,21.55,0,0,0,328.33,103c4.83,2.3,10.65.9,15.3,3.71a66.49,66.49,0,0,1,6.08,12.17c-.42.72-1.44.35-2,0Z"/><path id="path1957" class="cls-5" d="M378.06,114.16c10.63-3,21.25-6.18,31.37-10.58,4.45-2.85,4.54-9.15,2.78-13.6-3.35-8.09-4.87-17-9.69-24.45C399.26,62,394,63,389.78,63.94c-4.61,1.26-8.72,3.91-13.21,5.53-3.56.94-6.4,3.34-9.87,4.5-3.76,1.45-7.68,2.48-11.34,4.18,2.74,3.45,7.74,4.42,10,8.35,4.37,6,4.44,13.76,3.85,20.81-2,2.2-1.66,6.24,1.28,7.44,2.5,1.22,5-.36,7.54-.59Z"/><path id="path1953" d="M380.36,109.26c4.93-3.8,11.41-4,17.11-5.86,3.5-1.38,6.48-4.48,10.45-4.33-1.36,3.63-5.65,4.51-8.88,5.77-4.68,1.64-9.56,2.68-14.25,4.3-1.22.11-3.89,2-4.43.12Z"/><path id="path1951" d="M399.35,73.89c-1.2-1.54-3.78-5.09-2-6.57,2.07,1,4.58,5,3.18,6.9a2.83,2.83,0,0,1-1.14-.33Z"/><path id="path1949" class="cls-5" d="M138.14,108.67c3.46-5.64,1.87-13,5.72-18.48,2.38-3.9,5.75-7.07,9.15-10.07,0-3.57,2.76-7.41,3.74-9.89-4-1.79-7.38-5-11.88-5.48C138,63,131.78,59,124.77,57.48c-6.06-1.92-12.63-4.17-19-2.38-5.1,2-6.53,8-6.68,12.9C99,75.14,96,82,96.8,89.21c.11,4.49-1.09,9.92,2.46,13.45,2.77,2.06,6.31,2.66,9.45,4a36.44,36.44,0,0,0,13.83,2.3A61.53,61.53,0,0,1,133,110.07c1.76.07,3.9.15,5.11-1.4Z"/><path id="path1947" d="M120.33,104.83c-4.69.11-9.21-1.28-13.69-2.5-2.39,1.15-5.7-3.84-1.82-3a89.75,89.75,0,0,0,10,2.95c4.48,1.06,9.13.49,13.65,1.15,2.32.12,1.52,2.86-.54,1.83C125.4,105.13,122.87,105,120.33,104.83Z"/><path id="path1943" d="M102.05,62.87c-.17-2.69,2.74-5.54,5.35-5.48.44,2.25-3,4-3.64,6.5C102.45,66.41,101.89,64.63,102.05,62.87Z"/><path id="path1941" d="M95,86.15c1.21-1.9-1.6-5-2.39-1.84-1.47,1.64.9,8.24,2.26,4.17A12.06,12.06,0,0,0,95,86.15Z"/><path id="path1939" d="M95.73,77.74c1-2.44,1.87-5.54.63-8-3.15-.19-2.79,4.55-1.91,6.64.26.94-4,2.6-1.27,4.37C94.8,80.94,95.36,79,95.73,77.74Z"/><path id="path1932" d="M97.38,64.1c.92-2.26-.8-3.19-1.42-.51-1.45,1.42.5,5.5,1.27,2.45C97.31,65.39,97.32,64.74,97.38,64.1Z"/></g></svg>