<svg id="svg3582" xmlns="http://www.w3.org/2000/svg" viewBox="0 0 416.55 821.14"><title>girl-03</title><g id="layer1"><path id="path3346" d="M259.14,13.11a206.54,206.54,0,0,0-22.28.89c-2.49.28-6.72.66-9.41.84a47.26,47.26,0,0,0-6.77.86,64.32,64.32,0,0,1-7,1.12c-2.79.32-6,.83-7.21,1.13a65.34,65.34,0,0,1-9,.76A38.89,38.89,0,0,0,187.18,20c-1.86.59-5.16,1.57-7.33,2.18l-11,3.11c-3.88,1.1-7.39,2-7.8,2-1.08,0-14,4.41-21.87,7.47C130.08,38.31,126,40.46,120,44.87c-2.8,2.06-6.1,4.4-7.33,5.2-3.12,2-11.28,10-15,14.54-1.7,2.11-4.1,5-5.34,6.42C88.05,76,81.19,84.79,79.66,87.35a18.93,18.93,0,0,1-3.59,4.23c-1.29,1-2.06,2.15-2.06,3a11,11,0,0,1-2,4.1,17.29,17.29,0,0,0-2,3.25,16.66,16.66,0,0,1-2,3.15,13.45,13.45,0,0,0-2,3.35,10.37,10.37,0,0,1-1.74,3c-1.46,1.94-2.06,2.32-3.67,2.32-2.86,0-4.36,1.71-4.05,4.62.21,2.07-.94,6.23-2.93,10.6-.48,1-4.11,10.25-7.86,19.93-2.55,6.59-7.31,19.91-8.8,24.63-1.74,5.52-8.31,22-13,32.66-13.13,29.71-16.95,43.76-22,80.82C.11,301.38-.63,329,.6,342c.67,7.14,3.19,22.32,5.14,31,2.45,10.94,7.8,29,9.56,32.32.26.49,1.42,3.14,2.56,5.88s2.77,6.22,3.62,7.75c3,5.46,4.7,8.33,5.94,10.24.7,1.06,1.93,3.06,2.73,4.43a130.29,130.29,0,0,0,11,14c.82.84,3.78,3.45,6.57,5.8s5.21,4.4,5.37,4.56,1.5,1.17,3,2.23,3.89,2.87,5.35,4a13.69,13.69,0,0,0,3.17,2.08,3,3,0,0,1,1.42.77,51.69,51.69,0,0,0,6,3.28c4.87,2.4,8.9,3.69,17.49,5.59,3.88.85,9,1.59,19.48,2.8,1.71.19,4.95.74,7.2,1.21,4.62,1,6.27.75,7.57-1.06-.26-.15-.53-.29-.6-.55,0-.08.4.09.81.26v0a13.45,13.45,0,0,1-1.44-.65c.88.39-.21-.08-1.48-1.59a1.49,1.49,0,0,1-.19-.51c-.16-.42-.33-.84-.46-1.28-.08-.28,0-.59-.15-.85-.21-.58-.46-1.15-.63-1.75a10.73,10.73,0,0,1,.13-3.19s.13,0,.14,0c.06-.29-.38-.88-.4-1-.7-3.93-.87-2.67,2.48-4.91h3a31.26,31.26,0,0,1,3.75.07,5.85,5.85,0,0,1,.73,0c.12,0,.11.08.06.14.65-.42,1.62-1.09,2.19-.78-.17-.85-.43-1.63-.7-2.52-1.59-5.36,4.4-7.23,5.58-1.78,0,.14.07.29.11.43a4.75,4.75,0,0,1,3.13,2.94,1.43,1.43,0,0,0,1.13,1c.44,0,2,1.74,3.4,3.87a24.75,24.75,0,0,1,4.2,13.66,75.54,75.54,0,0,1-1.91,11.53,56.61,56.61,0,0,1-3.5,9.79,12.18,12.18,0,0,0-1.36,3.8c0,2.75-4.15,8.56-10.48,14.68s-11,9.42-38.07,26.61c-8.09,5.14-10.3,7-19.76,16.26-7.63,7.51-9.78,10.17-16,19.87-2.83,4.39-4.83,7.84-4.83,8.36A15.25,15.25,0,0,1,51,594a28.36,28.36,0,0,0-2.31,4.87c-.39,1.2-1.35,3.81-2.14,5.78a62.91,62.91,0,0,0-3.86,13.51c-.44,3.43-.47,3.58-1.92,10.85-.63,3.2-1.66,7.93-2.28,10.52a39.78,39.78,0,0,0-1.12,6.68,34,34,0,0,1-.56,5c-.31,1.65-.81,4.75-1.12,6.88S34.58,665.56,34,670a404.64,404.64,0,0,0-4.26,48.72c-.14,5.33-.39,11.18-.54,13s-.39,7.93-.54,13.56c-.36,13.48-.82,21.15-1.5,25-.74,4.24-.53,10.8.41,12.56a6.63,6.63,0,0,1,.77,2.06c0,.84,1.94,2,5.36,3.26a31.68,31.68,0,0,1,4,1.71,16.62,16.62,0,0,0,4,1.26c1.55.31,4,.82,5.36,1.13,3.29.73,15.58,2.67,23.14,3.65,16.08,2.09,26.45,3.93,31.3,5.54,4.26,1.42,17,3,33.05,4.13,3.88.27,11,.84,15.8,1.27s9.64.79,10.73.81,8.07.26,15.52.54c24.88.91,38.55.35,56.44-2.32,3.11-.46,8.57-1.22,12.13-1.7a44.64,44.64,0,0,0,7.94-1.57c1.55-.76,5.43-1.74,15.78-4,3.57-.78,8-1.79,9.88-2.24s5.79-1.18,8.74-1.62a74.64,74.64,0,0,0,9-1.95c2-.63,6.46-1.85,9.91-2.7a136.46,136.46,0,0,0,20.5-6.86c3.32-1.33,6.79-2.59,7.73-2.81a59,59,0,0,0,6.2-2.27,71.39,71.39,0,0,1,7.62-2.69,77.68,77.68,0,0,0,7.91-2.82c3.49-1.46,5.31-1.93,6.69-1.73,2.09.31,8.15-1,10.05-2.18a4.5,4.5,0,0,0,1.62-3.14,16.67,16.67,0,0,1,1.22-4c.71-1.35.74-2.86.18-10.49-.36-4.91-.74-9-.84-9.21s-.35-3-.54-6.39-.61-8.64-.92-11.75-.54-6.48-.5-7.48c.12-3.11-.66-11.15-1.22-12.62a33.16,33.16,0,0,1-.75-6.64c-.12-2.88-.51-8.35-.88-12.16s-.74-8.29-.81-10a17.2,17.2,0,0,0-.49-3.88,78.23,78.23,0,0,1-1-9.13c-.32-4.57-.83-11.05-1.13-14.39-.56-6.19-.89-10.33-1.44-18.27a62.51,62.51,0,0,0-.8-6.65c-.26-1.21-.66-3.83-.88-5.81a29.8,29.8,0,0,0-1.56-8c-.46-1.53-1.29-5.24-1.83-8.25a37.31,37.31,0,0,0-1.74-6.92,6.38,6.38,0,0,1-.78-2.13c0-1.33-2.95-8.25-6.3-14.81-4.39-8.6-8.89-15.82-11.9-19.1-1.32-1.44-3.22-3.62-4.22-4.84-1.7-2.1-4.92-4.11-14-8.72a131.92,131.92,0,0,1-13.44-7.53,10.12,10.12,0,0,0-2.87-1.61c-.94,0-8.89-6-14-10.61a47.73,47.73,0,0,0-6.38-5c-2.28-1.16-5.7-5-6.2-6.92a16.15,16.15,0,0,0-2.05-3.84c-2.13-3-3-5.07-4.37-10.22-1.59-6-1.8-9.46-1-16.26.41-3.35.78-9.08.83-12.73.09-6.13.28-8.52.95-11.73a3.4,3.4,0,0,1,1.64-1.94,40.14,40.14,0,0,0,3.55-2.24c2.76-1.95,8.18-3.11,9.5-2,1.65,1.35,1.85,2.95.93,7.58-.75,3.82-.77,4.64-.12,5.41,1,1.16,4.53.7,6.78-.87,2.44-1.7,2.84-1.4,2,1.46-.82,2.67-.67,3.74.73,5.34s2.48,1.21,7.87-1.66c11.09-5.9,11.53-5.95,9.14-1s-2.14,6.64,1.59,8.53c1.81.92,4.36-.46,7.19-3.88a87.31,87.31,0,0,1,9.2-9.48,96.85,96.85,0,0,0,7.41-8.3c6.61-8.14,6.67-8.2,7.51-7.89.41.15,1.55-1,2.68-2.64s2.56-3.64,3.28-4.52a39.85,39.85,0,0,0,3.26-5.26c1.07-2,2.19-4,2.48-4.48,2.36-3.71,5.18-8.93,5.39-10a6,6,0,0,1,1.42-2.49,9.46,9.46,0,0,0,1.76-3.38,9.36,9.36,0,0,1,1.48-3.12c.48-.53.69-1,.46-1s.12-.65.76-1.46a5.18,5.18,0,0,0,1.17-2.5,13.74,13.74,0,0,1,1.52-3.94,21.72,21.72,0,0,0,1.71-4,16,16,0,0,1,1.58-3.53,10.74,10.74,0,0,0,1.4-3.46,1.72,1.72,0,0,1,.57-1.34,1.87,1.87,0,0,0,.56-1.44,5.36,5.36,0,0,1,.9-2.43c.49-.74.76-1.56.59-1.82s.19-.89.79-1.39a1.86,1.86,0,0,0,.76-1.74c-.18-.45.37-2.25,1.21-4a24.15,24.15,0,0,0,1.79-4.87,8.62,8.62,0,0,1,1-2.8,15.79,15.79,0,0,0,1.82-5.52,20.62,20.62,0,0,1,1.34-3.87,37.34,37.34,0,0,0,2-5.28c0-.15.22-.65.39-1.11s.75-2.45,1.28-4.43,1.53-5.46,2.24-7.75,1.59-5.77,2-7.75a17.6,17.6,0,0,1,1.15-4.15,1.36,1.36,0,0,0,.4-.83,22.88,22.88,0,0,1,.65-3c.39-1.53.94-3.64,1.21-4.71s.79-3.93,1.15-6.37.79-5.05.94-5.81.36-2,.47-2.77.35-2.38.52-3.59a74.88,74.88,0,0,1,2-10.25c.47-1.25,3-15.18,3.65-19.92.14-1.07.49-3.68.79-5.82s.68-5.47.87-7.42a25.75,25.75,0,0,1,.54-3.88,45.31,45.31,0,0,0,.56-5.25,36.21,36.21,0,0,1,.63-5.37,31.29,31.29,0,0,0,.58-5c.17-2.53.65-7,1.05-9.86s.75-5.63.75-6.09.18-2.2.37-3.87.52-7.63.7-13.24A106.38,106.38,0,0,0,415,182c-.28-1.52-.8-4.38-1.16-6.36s-.9-5-1.2-6.64-.65-4-.76-5.26-.5-3.46-.84-5-.85-4-1.11-5.53-.87-4.51-1.35-6.64-1.29-6.74-1.8-10.24a63.92,63.92,0,0,0-1.44-7.64,8.39,8.39,0,0,1-.51-2.6,2.29,2.29,0,0,0-.5-1.63,5,5,0,0,1-.89-2.38c-.21-1.15-1.38-5.08-2.6-8.75a75.72,75.72,0,0,1-2.22-7.42,38,38,0,0,0-2.52-5.9,53.75,53.75,0,0,1-2.89-6.7,17.54,17.54,0,0,0-1.65-3.76c-.71-1.22-2.12-3.83-3.14-5.81a97,97,0,0,0-7.84-12.37,36.57,36.57,0,0,1-2.28-3.48,34.78,34.78,0,0,0-3.06-3.4c-4-4.15-7.09-8-7.09-8.85a.67.67,0,0,0-.63-.69c-.34,0-2.59-1.93-5-4.29-8.22-8.06-21-17.14-30.18-21.39-9.52-4.42-29-10.82-39-12.79-2.48-.49-6.17-1.25-8.18-1.68-4.93-1.05-15.41-1.65-26-1.71ZM76,144.65c.4,0,1.69,1.23,2.88,2.72,2.65,3.34,5,4.74,10.53,6.11a38,38,0,0,1,5.26,1.62c3.11,1.66,14.2,6.71,14.74,6.71a26.35,26.35,0,0,1,4.48,1.89,30.24,30.24,0,0,0,6,2.27,5.42,5.42,0,0,1,2.43.88,1.66,1.66,0,0,0,1.26.5c1.56,0,7,2.72,7.87,3.9a6.89,6.89,0,0,0,2.58,1.83c1.46.6,1.94,1.24,2.51,3.36,1.47,5.38,6.13,8.77,12.07,8.77,2.2,0,4.1-1,3.55-1.87a4.25,4.25,0,0,1,.64-2.42c.82-1.7.85-2.4.24-5.57a17.16,17.16,0,0,1-.49-3.76c1-.64,5.83-1.41,6.34-1a7.52,7.52,0,0,0,2.18.85,3.65,3.65,0,0,1,2.14,1.46,2,2,0,0,0,1.42,1.1c.45,0,2.23,1.25,4,2.79l3.14,2.79,4.45-.16c4.36-.16,4.5-.12,6.35,1.64,1.61,1.53,2.31,1.8,4.65,1.8a7.17,7.17,0,0,1,3.64.76c1,.87,7.92,1.69,8.82,1,1.15-.82,3.64-5.62,3.64-7,0-2.6,3.32-1.14,3.37,1.48,0,1.3,1.53,1.23,2.25-.1s3.61-1.42,5.45-.29a12.07,12.07,0,0,0,3.33,1.12,13.29,13.29,0,0,1,4.18,1.76,21.81,21.81,0,0,0,3.36,1.86c1.65.64,3.83,2.23,7.6,5.56,4.92,4.36,10,5.45,12.48,2.72.93-1,.91-1.06-.23-1.24s-1.13-.29-.42-1.24.86-1,2.39.69a6.92,6.92,0,0,0,2,1.75,7.54,7.54,0,0,0,2.11-1.38,6.64,6.64,0,0,1,2.25-1.39c.79,0,5.19,4.08,5.19,4.81s4.3,1.84,7.32,1.84c1.88,0,2.39-.24,2.79-1.27a5.7,5.7,0,0,1,1.4-2c1-.84,1.18-2.93.32-4.51-1-1.9,1.49-1.28,2.94.73s6.62,7.06,7.26,7.06c.25,0,1,1.12,1.67,2.49.89,1.78,1.66,2.58,2.74,2.81.82.18,2.13.5,2.91.72,2.36.65,3.88.09,5.68-2.11,1.63-2,1.81-2.07,3.52-1.48a16.55,16.55,0,0,1,2.53,1.08,1.35,1.35,0,0,0,1.48-.15c.56-.45.93-.4,1.45.22.39.46.9.71,1.14.57.93-.57,3.84,1,4.54,2.38a5.57,5.57,0,0,1,.66,1.86c0,.2.29.66.75,1a2.24,2.24,0,0,1,.83,1.37c0,.38.77.85,1.72,1a6.07,6.07,0,0,1,2.58,1.18c1.2,1.17,4.32,1,6.73-.29a14,14,0,0,1,3.55-1.37c4.31-.73,5.23-1,4.64-1.36a4.44,4.44,0,0,1-1-2.42c-.4-2.42.56-2.73,2.33-.73a7.15,7.15,0,0,0,2,1.62c.68.25.65.33-.14.36-1.46.07-1.2,1.15.28,1.16,1,0,1.11.11.43.54a7.16,7.16,0,0,1-2.93.55,3.91,3.91,0,0,0-2.43.56,1.91,1.91,0,0,1-1.45.56c-.6,0-1.09.26-1.09.58s.29.41.66.19.53-.09.27.6c-.34.84-.26.89.46.3.48-.39.87-.49.88-.22s.46,0,1-.62a4.21,4.21,0,0,1,2.38-1.24c1.21-.11,1.27,0,.43.44a5.14,5.14,0,0,0-1.61,1.72c-.47.86-.46,1.05,0,.75a1.62,1.62,0,0,1,1.61.41c1.1,1,4.06,1.59,4.06.88a.53.53,0,0,0-.57-.47.59.59,0,0,1-.56-.62c0-.35.49-.49,1.13-.33s1,.09.85-.15.6-.55,1.68-.67,2,0,2.11.17,1.3.16,2.69-.14,3.05-.59,3.67-.65a2.41,2.41,0,0,0,1.62-.86c.66-1,2.34,2.72,3.25,7.24a23.85,23.85,0,0,0,1.41,4.81,2.61,2.61,0,0,1,.43,1.81c-.15.25,0,.46.38.46s.54.47.34,1.21a2.56,2.56,0,0,0,.1,1.8,11,11,0,0,1,1.44,6.74,108.53,108.53,0,0,0-1,11.56,24.46,24.46,0,0,1-.6,4.84c-.25.61-.15,1,.29,1s.54.19.05.76c-.35.42-.78,2.84-1,5.38a24.49,24.49,0,0,1-.78,5.46,23.07,23.07,0,0,0-.85,4.95,29.52,29.52,0,0,1-.94,5.53c-.63,1.62-1.12,6.43-1.34,13.13a16.59,16.59,0,0,1-1.08,6.24,3.62,3.62,0,0,0-.6,2.29,2.13,2.13,0,0,1-.31,1.71c-.81,1.48-1.09,3.76-.51,4.11.42.25.23,1.81-.44,3.58-.39,1-.48,1.65-.93,6.3a24.66,24.66,0,0,1-.63,4.21,10.18,10.18,0,0,0-.52,2.29,24,24,0,0,1-.8,3.53c-.3.92-1.08,3.31-1.75,5.33a21.19,21.19,0,0,0-1.1,4.15c.18.74-.6,3.52-1.8,6.4a14,14,0,0,0-1.09,3.76,9.93,9.93,0,0,1-1.12,3.34,9.92,9.92,0,0,0-1.13,3,18.2,18.2,0,0,1-1.52,4,25,25,0,0,0-1.72,4.44,10.91,10.91,0,0,1-1.25,3.05,19.88,19.88,0,0,0-1.7,4.16,17,17,0,0,1-2,4.37,7.73,7.73,0,0,0-1.39,3.28,5.33,5.33,0,0,1-1.48,2.83,16.4,16.4,0,0,0-2.56,4,10.71,10.71,0,0,1-1.84,3.05,4.61,4.61,0,0,0-1.13,2.16,15.45,15.45,0,0,1-2.61,4.34,13.6,13.6,0,0,0-2.23,3.37,3,3,0,0,1-.85,1.48c-2.43,2.49-5.36,6.5-5.36,7.32,0,.51-.2,1-.44,1.12a22.82,22.82,0,0,0-2.68,2.93c-1.23,1.52-3.58,4.1-5.21,5.74s-3,3.33-3,3.75-.22.77-.49.77-1.13.93-1.92,2.08a48.26,48.26,0,0,1-3.74,4.54,12.94,12.94,0,0,0-2.32,2.94c0,.26-3.05,3.45-6.77,7.09S275,434.3,275,434.45a50.06,50.06,0,0,1-3.49,4.49c-3.33,4-5.78,7.9-5.3,8.37.12.13-.28.72-.9,1.33a2.18,2.18,0,0,0-.79,2c.49,1.26-1.2,3.47-2.66,3.5a6.79,6.79,0,0,0-2.67.81,9.45,9.45,0,0,1-3.74.81,4.58,4.58,0,0,0-3,.85,2.56,2.56,0,0,1-1.7.83,2.49,2.49,0,0,0-1.67.81c-1.11,1.31-5.36,3.44-7.72,3.86a11.91,11.91,0,0,0-3.37,1.14,18.48,18.48,0,0,1-4.8,1.42c-2,.37-5.38,1.16-7.55,1.77a34.14,34.14,0,0,1-7.79,1.27,4.78,4.78,0,0,1-2.24.34c-1-.15-2-.63-1.15-.22a.08.08,0,0,1,0,.05s.07,0,.06,0c-.07.2-.4.2-.61.28a7.29,7.29,0,0,1-1.13.32,11.36,11.36,0,0,1-1.3.09,20.78,20.78,0,0,0-4-.15c-1.43,0-2.86,0-4.29,0H182a7.4,7.4,0,0,1-4.39-1.24h0a7.23,7.23,0,0,1-3.27-.26c-2-1-1.66-1.11-3-1.5-.05,0-.08.06-.13.06a3.23,3.23,0,0,1-.44,0c-2.59.12-5.06-1.23-7.12-2.58-.87-.09.42.07-1.2-.38-.07,0-.14.06-.22,0a8.11,8.11,0,0,1-2.65-1.21,5.47,5.47,0,0,1-2.89-2.12c-.66,0-2.82-1.64-3.51-2-.08,0,.13.12.2.17l-1.46-1.08.19.25c.08.11-.2-.22-.29-.32l.1.07c-.31-.4-.63-.8-.93-1.2-.06-.08-.35-.58-.48-.58s.1.2.15.3c-1.5-.71.78.48-1.63-.49-.5-.2-1-.48-1.45-.71a3,3,0,0,1-.57-.27c-.49-.4-.92-.87-1.38-1.3,2.32,2.31-2.14-1.17-2.34-.87.12.06.49.19.36.16-2.1-.4-1.4-.31-3.28-2.05-.26-.25-.56-.32-.67-.67a2.59,2.59,0,0,0-.21-.18l-1.26-1.31c0,.22.05.12-.29-.12s-.35-.29-.44-.36a5.82,5.82,0,0,1-1.63-1.23,6.34,6.34,0,0,1-1.66-1.27c-.5-.51-1-1-1.44-1.56.1,0,.14,0,.15-.06a.82.82,0,0,1-.25-.22,13.62,13.62,0,0,1-1.49-1,4.17,4.17,0,0,1-1.15-2.24c-.56-1.1-1-3-.52-1.09-.54-.58-.67-1.38-1.16-2a6.88,6.88,0,0,0-1.15-.93c1.09.73-.18-.4-.94-1.21-.49-.14-1.17-1.31-1.57-2.05,0,0,0,0,0,0-.27-.18-.36-.52-.55-.77a19,19,0,0,1-1.45-1.78A10.84,10.84,0,0,1,122,428l-.17-.12a7,7,0,0,1-1.41-2.8c-.06-.06-.19-.24-.18-.16s.35.61.22.49a7.43,7.43,0,0,1-1.91-2.87,1.23,1.23,0,0,1-.25-.36c-.24-.53-.33-1.11-.54-1.65-.13-.32.12.56-.15.25a7.65,7.65,0,0,1-.78-1c-.27-.43-.47-.9-.71-1.34a15.68,15.68,0,0,1-1.73-3,3.41,3.41,0,0,1-.1-.46.93.93,0,0,0-.05-.1,5.37,5.37,0,0,1-.21-.56c-.25,0-.43-.45-.66-.63l-1-1.81c.09.24.49.86.28.71a2.12,2.12,0,0,1-.58-1.24l0,0c-.29.17-.42-.5-.64-.76a7.22,7.22,0,0,1-1.77-3.46,18.54,18.54,0,0,1-2.5-3c-.22-.39-.33-.82-.56-1.2-.1-.18.13.39.19.59a6.34,6.34,0,0,1-2-3.31l0-.09,0,0v0a5.71,5.71,0,0,1-1.46-1.89c-.5-1.57-.13-2.57-.47-1.47-.09-.13-.33-.48-.54-.81a3.55,3.55,0,0,1-.44-.65,3.62,3.62,0,0,1-.56-2.6c-.15-.28-.29-.56-.44-.83a1.55,1.55,0,0,0-.35-.33c-1.49-2.32.18.48-1.1-2.53,0-.06-.11.05-.17.07a7.46,7.46,0,0,1-.51-.92,5.07,5.07,0,0,1-.31-1.33c-1.4-.28-1.84-.69-2.12-1.93a4.72,4.72,0,0,0-1.17-2.26,2.91,2.91,0,0,1-.81-2,1.84,1.84,0,0,0-.88-1.67.88.88,0,0,1-.57-1.11.88.88,0,0,0-.56-1.1,1.26,1.26,0,0,1-.77-1.23c0-.33,0-.63,0-.9a3.43,3.43,0,0,1-.1-1.14c-.13-.54-.41-.79-.84-.79a.92.92,0,0,1-.93-.7c0-.38-.13-1.06-.2-1.52l-.2-1.52c0-.38-.62-.69-1.27-.69-.87,0-1.09-.25-.83-.91s-.24-1.65-1.12-2.79c-1.23-1.58-1.41-2.23-1.09-4.08s.23-2.13-.45-1.88-.95-.18-1.22-1.23-.16-1.62.2-1.73.1-.7-.5-1.34c-1-1.05-1.59-3.6-1.63-7a3.91,3.91,0,0,0-.87-2.24A5.81,5.81,0,0,1,79.9,340a1.05,1.05,0,0,0-.21-1.28,1.77,1.77,0,0,1-.6-1.39,1.38,1.38,0,0,0-.71-1.27c-.53-.19-.46-.65.27-1.9,1-1.68.55-2.93-1-2.93-.85,0-1.36-3.22-.77-4.77a1.69,1.69,0,0,0-.17-1.8c-.35-.33-.69-2.24-.75-4.23a12.26,12.26,0,0,0-.66-4.3,16.36,16.36,0,0,1-1-4.83c-.21-2.28-.5-5.27-.64-6.64s-.34-5.61-.46-9.41a53,53,0,0,0-.62-7.89,2.68,2.68,0,0,1-.13-1.7,10,10,0,0,0-.25-3.46,68.26,68.26,0,0,1-.8-7.61,23.92,23.92,0,0,0-.81-5.92,6,6,0,0,1-.56-2.45c0-.78-.22-1.42-.5-1.42-.59,0-1.62-2.39-2-4.66a3.89,3.89,0,0,0-.75-1.94c-.76-.51-2-3.8-1.6-4.38.19-.29,0-.66-.47-.83s-.79-1-.76-1.87a8.58,8.58,0,0,0-.93-3.41,16.39,16.39,0,0,1-1.21-5.25c-.13-1.87-.38-5.52-.56-8.1a78.57,78.57,0,0,1-.29-9.41c0-1.07,0-2.32,0-2.77a31.3,31.3,0,0,1,.34-3.88c.22-1.67.5-4.29.62-5.81a69.08,69.08,0,0,1,1.12-7.2c1.25-6.06,1.87-9.51,2.25-12.45.17-1.37.58-4.48.89-6.92s.65-5.55.75-6.92a60.44,60.44,0,0,1,2.2-11.44A39.32,39.32,0,0,0,70.28,162c.17-1.48.59-4,1-5.62s.69-3.23.75-3.58a13.22,13.22,0,0,1,1.11-2.5,4.43,4.43,0,0,0,.67-2.71c-.38-.95,1.15-2.91,2.27-2.91Zm135.74,34.4a.51.51,0,0,0-.41.1.82.82,0,0,0,.07.89c.46.73,1.44.78,1.44.07,0-.49-.62-1-1.1-1.06Zm89.12,17.63a1.21,1.21,0,0,1,.88.56c.19.3,0,.55-.53.55s-.88-.25-.88-.55A.55.55,0,0,1,300.89,196.68Zm4.34,4.62a.33.33,0,0,0-.14,0,.57.57,0,0,0-.22.09,1.21,1.21,0,0,0-.56.9c0,.3.25.4.56.21a1.22,1.22,0,0,0,.57-.9.27.27,0,0,0-.21-.3Zm20.26,3.18c.49-.07.83.18.83.78a.82.82,0,0,1-.8.83,6.43,6.43,0,0,0-1.83.38c-1,.35-1,.3,0-.83a3.26,3.26,0,0,1,1.76-1.16Zm10.58,3.39a.32.32,0,0,1,.24.09c.23.22.05.64-.41.92-1.37.86-2,.6-1-.4a1.82,1.82,0,0,1,1.13-.61Zm-183.68,56.7-4.34,1c-2.38.54-5,1.1-5.74,1.25a29.73,29.73,0,0,0-4.87,1.85c-2.7,1.24-4.28,2.53-7.25,5.91-4.1,4.67-6.25,8.56-6.85,12.42a14.85,14.85,0,0,1-.87,3.36c-1,2-1.15,9-.23,12.92a47,47,0,0,0,1.37,5,19,19,0,0,0,4.29,6.65c1.85,2,2.7,2.48,4.18,2.48a26.13,26.13,0,0,1,5.9,1.34c2.23.74,4.56,1.46,5.18,1.6a21.67,21.67,0,0,0,12-1.28c7.55-2.85,12.28-6.5,16.16-12.45a30.18,30.18,0,0,0,4.56-11.86c.67-3.45.63-3.71-1.3-9.41a35.19,35.19,0,0,0-7-12.79c-1.65-2.05-4.9-3.88-11.37-6.42l-3.85-1.52Zm113.53,3.36c-6.26,0-8.69.62-11.59,2.82-.92.69-3.21,2.34-5.1,3.66a27.17,27.17,0,0,0-9.87,14.72c-.25,1.06-.72,2.93-1.05,4.15-1,3.82-.84,9.84.38,12.54a11.09,11.09,0,0,0,2,3.17,2.43,2.43,0,0,1,.93,1.49c0,.4.78,1.18,1.72,1.72a9.13,9.13,0,0,1,2.76,2.74c.78,1.29,1.89,2,4.36,2.86a22.35,22.35,0,0,0,5.56,1.17c3.7.07,12.29-1.5,15.27-2.78,6.38-2.75,12.5-8,14.95-12.75a20.34,20.34,0,0,1,2.1-3.37c1.54-1.73,2.29-8.67,1.45-13.56-1.28-7.4-3.5-10.53-10.64-14.95-5.18-3.21-6.81-3.66-13.26-3.63Zm-116.52.75c.44,0,1,.06,1.65.12,3.29.34,7.66,2.24,11.58,5a14,14,0,0,1,4.48,5.65,27.12,27.12,0,0,0,2.37,4.12c.42.28,1.18,2.92,2.19,7.54,1.18,5.39-.36,10.57-4.8,16.24-4.7,6-8.83,8.79-15.09,10.24-4.82,1.12-6.77.93-13.8-1.3-7.94-2.53-10-4.33-12.31-10.67-2.68-7.45-.48-19.47,4.76-26,4.66-5.79,8.26-8.15,12.56-8.23a4.87,4.87,0,0,0,3.58-1.5,3.24,3.24,0,0,1,2.83-1.28Zm114.4,2.24c.61,0,1.28,0,2.08.05,4.64.28,9.84,2.6,14,6.27a18.94,18.94,0,0,1,4.72,22.57c-4.37,9.33-10.57,14-21.22,15.85-4.37.77-6.76.7-10.13-.31A19.3,19.3,0,0,1,241.38,305c-1.92-4.52-.5-15.63,2.87-22.42,1.15-2.31,2.28-3.49,5.39-5.63a53,53,0,0,1,8.23-4.47C260.65,271.37,262,271,263.8,270.92Zm1.11,6a17,17,0,0,0-18,16.6c-.29,3.41-.15,4.25,1.23,7.32,2.46,5.45,5.48,8.19,10.54,9.52,6.37,1.68,12.05.67,16.77-3,6.21-4.82,8.37-13.83,4.94-20.7-1.94-3.88-6.23-7.72-10-9a18.5,18.5,0,0,0-5.44-.79Zm-118.1.31a14.56,14.56,0,0,0-5.79,1,23,23,0,0,0-9.25,9.05,13,13,0,0,0-1.56,7.12c0,3.46.25,4.48,2,7.72,2.34,4.47,6.11,7.83,10,8.9a22.69,22.69,0,0,0,12.65-.76,17.14,17.14,0,0,0,9-22.72,19.89,19.89,0,0,0-10.33-9.33,21.74,21.74,0,0,0-6.65-1ZM264.46,335.4a3.47,3.47,0,0,0-1.25.43,17.83,17.83,0,0,1-3,1.11c-1.05.25-1.43.62-1.21,1.18s0,.83-.61.83-2.37,1.4-4.13,3.11c-3.26,3.17-5.22,6.48-5.22,8.82a2.26,2.26,0,0,1-.44,1.56c-.55.33-.35,4.53.25,5.47a2.5,2.5,0,0,1,.3,1.55c-.19,1.16,1.31,4.59,2.4,5.48a2.37,2.37,0,0,1,.88,1.48.83.83,0,0,0,.88.76c.63,0,.78.32.52,1.12-.2.62-.15,1.06.11,1,.75-.21,3,1.42,3,2.17s1,.94,1.24.12c.11-.33.65-.42,1.21-.21s.9.66.76,1c-.28.72,2.74.8,4.27.11a2.7,2.7,0,0,1,1.77-.14,1.36,1.36,0,0,0,1.27-.16,29.84,29.84,0,0,1,4.89-1.88,32.28,32.28,0,0,0,5.63-2.28c1.25-.85,2-1,2-.51l1.69-.28.26-.13h0a1.45,1.45,0,0,1-.25.12c.11,0,.21,0,.32-.06l-.05-.07c-.6-1.09-.06-2.11,2.11-4.3a12.44,12.44,0,0,0,3.64-9.74c-.41-6.27-.83-7.22-5.22-11.75-.7-.73-1.18-1.5-1.06-1.71.27-.47-2-2.53-3-2.75a80.85,80.85,0,0,0-11.9-.83,1.33,1.33,0,0,1-1.37-.34.62.62,0,0,0-.65-.28Zm17.16,31.83h0a.71.71,0,0,1-.15.08l.16-.08Zm-16-28.58c.13,0,.15.13,0,.3a1.19,1.19,0,0,1-.88.55c-.81,0-.63-.39.35-.76a1.21,1.21,0,0,1,.32-.09ZM199,340.45c-1,0-4.1,2.61-5.76,4.86-2.56,3.5-2.71,7-.37,8.71a2.89,2.89,0,0,0,1.42.42c1,0,4.16-2.66,4.67-3.9.27-.67.46-.64,1.11.14.53.63,1.8,1,3.85,1.11,2.8.15,3.08.06,3.24-1.08.21-1.47.32-1.5,2-.4,2,1.28,3.21.58,2.5-1.44-.32-.89-.78-1.62-1-1.62a25,25,0,0,1-4-3.36c-3.22-3.05-3.73-3.33-5.37-3-1.09.2-1.9.09-2-.26a.22.22,0,0,0-.26-.15Zm-53.83,2.93a.55.55,0,1,0,0,1.1.55.55,0,1,0,0-1.1Zm-4.56,0c-.06,0-.28.16-.69.48a2.65,2.65,0,0,0-1,1.78c0,1.33-3.32,2.3-4.37,1.27s-.89-1.17.7-1.26c2.8-.16,3.11-.25,3.11-.92,0-1.13-2.07-1.28-3.64-.26a4.64,4.64,0,0,1-2.88.7c-1-.19-1.38,0-1.38.63a.87.87,0,0,0,.7.94c.57,0,.57.1,0,.33-1.35.53-.69,1.21,1,1,.93-.11,1.86.07,2.07.4s.12.45-.33.18a.84.84,0,0,0-1.17.28,3,3,0,0,1-2.24.66c-1.33,0-1.71.15-1.48.74.35.89.25.94-1,.46-.7-.27-.76-.52-.26-1.11s.46-.77-.2-.77c-1,0-1.84,1-2.27,2.68-.24,1-.12,1.21.48,1s.81.07.81.79-.39,1.09-1.15,1.09a2,2,0,0,0-1.69,1.42c-.72,1.86-.73,1.84.57,1.51a4,4,0,0,1,2,0c.68.26.51.67-.83,2a5.54,5.54,0,0,0-1.65,2.37c0,.51.11.5.33,0a1.24,1.24,0,0,1,1.08-.69c.44,0,.77-.19.73-.41-.18-1.17.22-1.54,1.76-1.61.94,0,1.7.16,1.7.42s.51.49,1.13.49,1.13-.24,1.13-.53-.39-.39-.86-.22-.75.07-.51-.55.62-.82,1-.75.71-.3.83-.81c.16-.72-.09-.86-1.1-.61a6.61,6.61,0,0,0-2,.81c-.39.3-.78.29-1,0a.62.62,0,0,1,.38-.86c.39-.18.13-.23-.56-.1s-1.27,0-1.27-.29.69-.65,1.55-.82c1.89-.37,3.87-1.72,3.32-2.26-.22-.22-1.19-.11-2.15.25-1.69.62-1.71.61-.7-.33,1.33-1.24,3.62-1.48,3.62-.38,0,.6.43.73,1.61.5s1.71-.08,2,.56.05.89-.46.89a2.14,2.14,0,0,0-1.45,1.17c-.52.95-.5,1.09.12.74.42-.24.32.06-.23.67-1.21,1.35-1.27,2.07-.14,1.65.47-.18.85-.1.85.17s-.32.6-.71.74,0,.55.94.9c1.3.51,1.5.78,1,1.31s-.86.46-1.44-.32a1.83,1.83,0,0,0-2.22-.63c-1.17.29-1.47.7-1.47,2,0,1.55.09,1.62,1.76,1.26,1.34-.29,1.7-.2,1.5.37s-1,.71-2,.65c-1.34-.07-1.79.13-1.78.83s.11.78.5.17.63-.54,1.14.4.5,1.12-.32.81c-.64-.24-.82-.15-.54.29s0,.65-.51.65-.76.23-.58.52-.12.77-.67,1.09c-.75.43-.29.49,1.8.27a17.24,17.24,0,0,0,3.25-.57c.24-.15.44,0,.44.3s-.61.73-1.36.91c-1.18.3-2.39,2.29-1.76,2.9a7,7,0,0,0,2.24.22,3.52,3.52,0,0,1,2.43.68,6.46,6.46,0,0,0,3,1.27,13.43,13.43,0,0,0,12.29-3.17,9.48,9.48,0,0,1,2.88-2.21c.34,0,.76-.68.94-1.52a11.25,11.25,0,0,1,.86-2.49c.72-1.3.67-1.53-.32-1.53-1.36,0-1-1,.71-1.77.85-.4,1.57-1.1,1.58-1.55a5.32,5.32,0,0,1,.41-1.66,12.81,12.81,0,0,0,.53-3c.12-1.65-.13-2.47-1-3.21a17.23,17.23,0,0,1-2.54-3.53,6.39,6.39,0,0,0-4.23-3.57c-3.38-1.24-3.11-1.22-3.11-.21a.84.84,0,0,1-.84.83c-.47,0-.85-.26-.85-.58s.32-.42.71-.2.53.21,0-.37a4.78,4.78,0,0,0-3-.71c-1.53,0-2.25-.18-2.25-.68s-.35-.61-.93-.39-.82.16-.46-.43c.21-.34.29-.51.22-.51Zm9.92,4.44c.32,0,.19.24-.28.54a3.49,3.49,0,0,1-1.41.54c-.31,0-.18-.25.28-.54A3.4,3.4,0,0,1,150.49,347.82Zm-11.6,8.84a1.21,1.21,0,0,1,.88.56c.19.3-.05.55-.53.55s-.88-.25-.88-.55a.55.55,0,0,1,.53-.56Zm-2.69.07a.63.63,0,0,1,.39.21c.35.35.27.8-.22,1.24-.94.83-1.52.13-.82-1,.21-.32.42-.48.65-.46Zm98.87.47h-.16l0,0h.2l0,0Zm-77.52.57a.56.56,0,1,1-.56.55A.56.56,0,0,1,157.55,357.77ZM232.33,359v0h0Zm-105.57,3.09a2,2,0,0,0-1.73,1.85c0,.61.26.81,1,.63,1.59-.41,2.35-1.55,1.5-2.24A1.08,1.08,0,0,0,126.76,362.08Zm104.77.31c-.74,0-1.4.5-2.16.44h-.08l-.11,0a5.71,5.71,0,0,1-.71.19l-1.16.47a3.93,3.93,0,0,1-.66.22,10,10,0,0,1-1.46,1.21c-.05,0-.05.11-.1.14a4.78,4.78,0,0,1-.71.49h0a5.53,5.53,0,0,1-2.06,1.8c.07,0,.24-.11.21,0a4.77,4.77,0,0,1-1.3,1.27c-.87.58-.65.19-.84.58a4,4,0,0,1-1.13.68c0,.13-.29.26-.41.39s-.16.09-.24.14h0c-.36.35-.7.71-1.07,1s-.66.49-1,.74l-.1.12-.18,0,0,0a.74.74,0,0,1-.35.39l-.05,0-.06,0s0,0-.13.07h0a1.14,1.14,0,0,1-.25.18h0l0,0,0,0a.3.3,0,0,1-.17.12c-.24.08-.11,0-.2.05l0,0-.18,0-.36.23c-.06,0,.28-.14.22-.09a2.36,2.36,0,0,1-.59.35l-.27.06h0c.16.12-.3.27-.47.37a4.9,4.9,0,0,1-.52.24h0c-.13.25-1.18.69-1.27.74l-.43.08a1,1,0,0,1-.19.12,2.8,2.8,0,0,1-1.14.51l-.18.16a4.52,4.52,0,0,1-1.16.64,1.67,1.67,0,0,1-.5.06,5.81,5.81,0,0,1-2.69.19s.15.06.11.08a1.74,1.74,0,0,1-.5.17,5.32,5.32,0,0,1-2.28.09c-.63,0-1.27,0-1.9,0h-5.83c-.1,0-.25.06-.33.05a2.71,2.71,0,0,1-.37-.05h-.53c-.62-.1-1.29.11-1.91,0-.37-.07-.73-.18-1.1-.27a3,3,0,0,1-.53-.16,6,6,0,0,1-.53-.34c-.14.05-.56-.3-.8-.36a2.69,2.69,0,0,1-1.72-.38c-1-.53-.41-.36-.82-.48l-.51-.31c-.09,0,.18.16.13.16a4.34,4.34,0,0,1-1.62-.37,11.09,11.09,0,0,1-2.17-1.48,2.91,2.91,0,0,1-.5-.6c.14,0,.24,0,.15,0a16.22,16.22,0,0,1-1.72-.5c-.22-.12-.87-1.32-.29-.29l-.53-.25a7.65,7.65,0,0,1-1.44-.77l-.25-.1c-.42-.22-.67-.43-.38-.2-.33-.27-.65-.56-1-.81-.09-.06.3.2.2.25a6.58,6.58,0,0,1-.75-.6,9.42,9.42,0,0,0-1-.56,7.46,7.46,0,0,1-1.25-1.11l-.34-.12a7.32,7.32,0,0,0-1-.82l-.29-.31s0,.05,0,.06-.16-.09-.24-.15l-.51-.38c-.25,0,.15.12.1.12a4.5,4.5,0,0,1-.73-.15,3.69,3.69,0,0,1-1.36-.56c0,.23,0,.45-.06.68a3.14,3.14,0,0,0-.17,1.13c-.11.39-.21.77-.31,1.16a3.41,3.41,0,0,0-.17.33s.08,0,.08,0a2.45,2.45,0,0,1,0,.38c0,.17,0,.34,0,.51,0,.82,0,1.65,0,2.47.08,0,.13.2.2.28a5.8,5.8,0,0,1,1.31,2.1l-.37-.68c-.27-.49-.46-.67-.6-.66l.39.49a3.38,3.38,0,0,1,.34.62c.11,0,.17.17.24.31a4.87,4.87,0,0,1,1.26,1.26c.15.24.25.51.42.74,0,0,0-.14,0-.11a1.66,1.66,0,0,1,.26.27,11.24,11.24,0,0,1,1.22.89c.19.13.43.19.62.32s.37.28.56.42c0,0-.05-.07,0-.07s.3.19.46.27,0-.05,0,0a5.43,5.43,0,0,1,1.41.63,8.07,8.07,0,0,1,.73.58l.17.08c1.13.76.09.08.18.11a1.79,1.79,0,0,1,.6.26,3.81,3.81,0,0,1,.35.32c.16,0,.46.23.67.29a2.7,2.7,0,0,1,1,.5,1.59,1.59,0,0,1,.39.35,4.31,4.31,0,0,1,1.4.73s0-.05,0,0a6.28,6.28,0,0,1,.57.31c.35.15,0-.06,0-.05,1.57.64.73.16,1.74,1.28.06.06-.11-.13-.11-.21s.09,0,.13,0c.56.22,1,.34,1.45.57.21,0,.58.28.84.36.16-1.16.6.77.93.59,0,0-.17-.13-.12-.1.31.12.58.31.89.43.08,0-.16-.1-.21-.17s0,0,.06,0a6.77,6.77,0,0,1,3.83,1l.22,0h0a4.41,4.41,0,0,1,1.17-.16c.75.05,1.49.06,2.24.05h11.54a3.49,3.49,0,0,1,.66-.3c3.48-1.21.46.22,1.36-.21a6.23,6.23,0,0,1,.63-.32,2.11,2.11,0,0,1,1.32-.59l.21-.1c.08-.13.42-.38.48-.25a.57.57,0,0,0-.09.08l.11,0,.16-.13a3.7,3.7,0,0,1,1.34-1c1.34-.63.52-.25,2.47-1.12.52-.22,1.06-.41,1.58-.65.26-.13.5-.3.75-.44a.39.39,0,0,1,.1-.08l.14-.08,0,0s0,0,0,0,0,0,0,0l.12-.12a1.08,1.08,0,0,1,.3-.11.15.15,0,0,1,0-.07c0-.08.35-.09.38-.16s.19-.18.29-.11,0,0,0,0l0,0h0c.32-.33.79-.82.88-.88a11,11,0,0,1,1-.6c.28-.05.56-.12.85-.15a7.24,7.24,0,0,0,.91-.83c-.86,1.06.16-.21.25-.28s-.5.67-.36.51c.45-.5.64-.73.74-.86-.46.36.33-.43,0,0,.13-.1.2-.15.59-.5.28.08,0,0,.62-.38.08-.05.16-.17.25-.13s0,0,0,0c.28-.33.14-.36.43-.31a5.88,5.88,0,0,1,2.56-2.19,2.61,2.61,0,0,1,.42-.16.7.7,0,0,1,.16-.14l1-1.16a5.39,5.39,0,0,1,1-.58c.06,0-.15.18-.1.14a13.09,13.09,0,0,0,1-1c.26-.28.53-.53.81-.78-.1-.49.16-1,1-1.4h0s.77-1.87.92-1.62c0-.63,0-1.26,0-1.89a4.79,4.79,0,0,1,.09-1.42c0-.1.28.83.2.27a1.38,1.38,0,0,1-.17-.25l-.12-.39-.07,0a1.3,1.3,0,0,1-.44-.9,3.64,3.64,0,0,1-.74,0,10.51,10.51,0,0,0-1.25-.09ZM136.17,365c.4,0,.5.29.5.79s-.25.83-.55.83-.4.37-.22.83c.24.62-.1.83-1.39.83-.93,0-1.8.3-1.93.66s-.33.5-.62,0,.09-.77.75-1,1.13-.6,1.13-.9-.23-.41-.52-.23a.63.63,0,0,1-.85-.19c-.17-.28.48-.78,1.46-1.12a7.23,7.23,0,0,1,2.24-.56Zm32.56.28s0,0,0,0l0,0Zm55.61.31-.09,0s-.18.16-.13.13a1.74,1.74,0,0,0,.22-.18Zm-96.83.9c-.19,0-.44.32-.79,1a2.91,2.91,0,0,0-.46,2c.87,1.38,2.22-.91,1.55-2.62-.09-.22-.18-.33-.3-.33Zm9.28,5.7a.24.24,0,0,1,.17.07c.18.17-.14.48-.69.69-.81.3-.87.23-.32-.31A1.37,1.37,0,0,1,136.79,372.2Zm77.44.06,0,0Zm2,.05,0,0h0l0,0Zm-35.25.24.1.05.37.06-.17.06-.3-.17Zm187.68.17c.63,0,1.13.19,1.13.43s-.5.44-1.13.44-1.12-.2-1.12-.44S368,372.72,368.65,372.72Zm-139.84.46s-.23.19-.36.31l.07,0c.06,0,0,.08-.05.19h0a1.88,1.88,0,0,0,.31-.48Zm-.39.59h0c0,.05-.09.14-.06.11l.08-.12Zm-.37.13,0,0C228,374.09,228,374,228.05,373.9Zm-58.18.67h0c0,.06.19.22.14.17l-.14-.18Zm196.87.38a2.36,2.36,0,0,1,1.17.41c.44.28.21.62-.71,1.05-1.19.55-1.37.5-1.37-.43,0-.67.35-1,.91-1ZM209.3,376h-.08s0,.06,0,.06l.1-.07Zm159.84.77c.07.06-.18.33-.69.88-1,1.09-1,1.11.15.81,1.55-.39,1.55.77,0,3.69h0c-.65,1.23-1.35,2.2-1.55,2.17-1.56-.28-2.35-.66-2.35-1.15,0-.31-.39-.42-.87-.24s-.73.1-.53-.22.93-.4,1.65-.23c1,.26,1.37.06,1.64-1a5.7,5.7,0,0,0,0-2.43c-.22-.84.1-1.3,1.28-1.83.78-.35,1.17-.52,1.24-.47Zm-147.36,2.08a1.13,1.13,0,0,0-.22.08s-.09.11-.05.09l.27-.17Zm-3.36,1.93s-.18.08-.11.1l.1,0a.11.11,0,0,1,0-.05Zm0,.14-.06,0c0,.09,0,.19,0,.14a.28.28,0,0,0,0-.18Zm-39.92,0c.17.26.2.37.16.09Zm1.71.72c.1.15,0,.18.24.13Zm30.86,3.11c-.35.29-.14.12,0,0Zm153.53.72c.46,0,.69.3.46.88s-.11.8.54.56c1.53-.58.72,2-.88,2.82-.77.38-1.09.7-.7.7a.79.79,0,0,1,.7.84c0,.46-.27.83-.59.83s-.45.25-.25.55c.44.71-1.13,2.94-2.18,3.09-.43.06-1.58.29-2.55.5-2,.43-2.57-.72-.62-1.22.78-.2,1.05-.6.83-1.26s.24-1.32,1.54-2.14c1-.64,1.63-1.17,1.36-1.17s-.19-.37.18-.82a1.33,1.33,0,0,0,.32-1.38c-.2-.32-.08-.58.27-.58s.47-.25.28-.56a.81.81,0,0,0-1-.24c-.37.18-.18-.06.42-.54a3.43,3.43,0,0,1,1.89-.86Zm-6.3,2.2c.46,0,.69.25.5.55a1.55,1.55,0,0,1-1.2.56c-.47,0-.69-.25-.5-.56a1.57,1.57,0,0,1,1.2-.55Zm-2.09,3.94a.74.74,0,0,1,.46.15c.19.19-.15.32-.74.3s-.79-.16-.34-.34A1.69,1.69,0,0,1,356.19,391.6Zm5.46,1.89a2.24,2.24,0,0,0-.76.12c-.38.14-.7.48-.7.75,0,.65,2.1.64,2.51,0C363,393.9,362.38,393.51,361.65,393.49Zm-.58,3.58c.48,0,.72.25.53.55s0,.56.36.56.51.19.17.49c-1.21,1.12-4.77,1.16-4.77.06,0-.8,1.33-1.35,1.57-.65.32.94,1.26.8,1.26-.18a.86.86,0,0,1,.88-.83ZM358.83,400c.17,0,.23.16.23.61s-.27.94-.6.94-.45.23-.28.51,0,.63-.39.78c-.55.22-.54.29,0,.33,1.28.07.11,1.15-1.26,1.15-1.1,0-1.25.22-1,1.46.2,1,.09,1.35-.36,1.08a.69.69,0,0,0-1,.47,1.43,1.43,0,0,1-1.2.86c-.68,0-.72-.16-.17-.8a2.28,2.28,0,0,0,.31-1.94c-.22-.68-.11-1.13.26-1.13a4.17,4.17,0,0,0,1.82-1.09c1.06-1,1.09-1.13.26-1.45-.52-.19-.94-.54-.94-.78,0-.75,1.8-1.16,2.51-.58a.9.9,0,0,0,1.34-.1,1.33,1.33,0,0,1,.44-.32Zm-253.93.29v0c.43.43,1.25,1.26.95.91s-.56-.54-.95-.93Zm248.83,2.37c.14,0,.25.25.25.55a.57.57,0,0,1-.6.55c-.33,0-.44-.24-.25-.55S353.59,402.61,353.73,402.61Zm-243.88,4.76c.1.14.23.26.34.4C110.08,407.63,110,407.5,109.85,407.37Zm247.33,1c.12,0,.18,0,.18.16,0,.32-.38.73-.84.9a1.6,1.6,0,0,0-.85,1.44c0,.62-.23,1.13-.51,1.13-.8,0-.06-2,1.13-3.1a2.09,2.09,0,0,1,.89-.53Zm-5.16.46a4.68,4.68,0,0,1,.83,0c.93.06,1.69.28,1.69.47s-.76.63-1.69.94c-1.5.52-1.69.46-1.69-.47,0-.63.2-.89.86-.95Zm-.69,3.17c1.33,0,1.59.15,1.09.64-1,1-3.52,1.11-3.14.15.17-.45,1.06-.79,2.05-.79Zm-237.62,1.46s-.07,0,0,.07a.73.73,0,0,0,.16.21c0-.09-.07-.19-.11-.28ZM336,427.56a.24.24,0,0,1,.17.06c.18.17-.14.48-.69.69-.81.3-.87.24-.32-.31A1.35,1.35,0,0,1,336,427.56Zm-8,7.15a.56.56,0,1,1,0,1.11.56.56,0,1,1,0-1.11Zm-38.58,4.06c.14,0,.2.09.2.3a.57.57,0,0,1-.5.63c-.27,0-.63.49-.79,1.1s-.64,1.09-1,1.07c-.58,0-.59-.12-.06-.33a1.17,1.17,0,0,0,.71-1,2.27,2.27,0,0,1,.84-1.41,1.47,1.47,0,0,1,.65-.37ZM285,442.54a.39.39,0,0,1,.15,0c.34.11-.15.76-1.1,1.45s-1.73,1-1.73.77c0-.72,1.87-2.24,2.68-2.24Zm62.3,5.91s-.28.14-.67.48a15.88,15.88,0,0,0-2.44,3c-1.54,2.56-.37,1.61,1.89-1.52.92-1.29,1.31-1.9,1.22-1.95ZM182,459.39h-.23l-.17.05a2.29,2.29,0,0,0,1,.33,1.13,1.13,0,0,0-.63-.38Zm125.57.53a.56.56,0,0,1,.3.07c.31.19.21.53-.23.8a3.61,3.61,0,0,1-1.61.47c-.65,0-.6-.19.22-.81A2.67,2.67,0,0,1,307.54,459.92Zm-175.8,2.8c0,.09,0,.15,0,.24s.07-.1.06-.15,0-.06,0-.09Zm-.48,0-.14.08c-.16.11-.53.54-.39.42A6.26,6.26,0,0,0,131.26,462.72Zm130.13.39c.52,0,.55.58.5,2.56,0,1.67-.39,3.06-.86,3.45s-.64.75-.13,1.06.64,2,.55,5.3a50.28,50.28,0,0,0,.23,9c.14,1.37.34,4.91.45,7.85.13,3.33.49,5.69.94,6.24a3.55,3.55,0,0,1,.43,2.74,4.39,4.39,0,0,0,.41,2.9,14.86,14.86,0,0,1,1.4,3.06,7.25,7.25,0,0,0,1.49,2.7,2.18,2.18,0,0,1,.82,1.35c0,.78-6.54,3.85-9.88,4.64-1.24.29-4.29,1.07-6.77,1.73-15.2,4-20.21,4.56-35.56,3.62-2.65-.17-3.67-.07-3.1.29s.57.49-.42.36a5,5,0,0,1-1.41-.41l-1-.15-.31.11s0,0,0,.06c.19.31.1.55-.21.55a.83.83,0,0,1-.64-.4,7.86,7.86,0,0,1-1.33.11h-1a2.49,2.49,0,0,1-2.28,0H195.1c-1.45,0-2.9,0-4.35,0a21.65,21.65,0,0,0-3.51.13,6.2,6.2,0,0,1-2.29-.39c-.17,0-.59-.08-.51-.2-.43,0-.86,0-1.32,0s-.72-.19-1.08-.31c-.11,0-.35,0-.31-.15a.19.19,0,0,1,.15,0,11.35,11.35,0,0,1-3.08-.44c-.05-.06-.08-.17-.15-.17-2.63-.11.78.49-2.36.08a9.53,9.53,0,0,1-2.09-.64l-1.27-.49a22.58,22.58,0,0,0-2.22-1,15.23,15.23,0,0,1-2.3-.78l-.34-.22-.22-.07a1.79,1.79,0,0,1-.55-.28s.14-.07.1-.09a18.55,18.55,0,0,0-3.12-.48l-2-1c.07,0,.27.14.21.09l-.26-.21c-.87,0-1.74,0-2.61,0-1.57.06-1.78-.18-3.56-1.12a1.19,1.19,0,0,1-.34-.29c.07,0,.13.07.15,0,.15-.42.27-.85.38-1.29-2.48.1-4.39-.38-3.35-1,1.23-.75.7-1.57-.78-1.21s-1.43.29-1.07-1.74a16.73,16.73,0,0,1,1.16-3.7,11.79,11.79,0,0,0,.78-4.24,15.87,15.87,0,0,1,1.15-5.27,9,9,0,0,0,1-3.51,5.47,5.47,0,0,1,1-2.81c1.5-2.41,2.14-4.8,1.39-5.26-.38-.23-.38-.68,0-1.38a7.79,7.79,0,0,0,.56-3,3.66,3.66,0,0,1,.36-1.8v-.91a6.16,6.16,0,0,1,.33-2.05,1.07,1.07,0,0,1-.87-.35c-.77-.75-.38-3.94.52-4.28a2.21,2.21,0,0,1,.77-.14c.71,0,1.19.41.85,1-.18.29.05.52.52.52a1.49,1.49,0,0,1,1.16.51.71.71,0,0,1-.06.68,2.55,2.55,0,0,1,1.51.76,1.94,1.94,0,0,1,.58-.08.75.75,0,0,1,.59.4c.22.35.13.63-.39.92a4.43,4.43,0,0,1,.28,1c.85-.82,2.44-1.25,4.55-.69h0c2.23.58,4.21,1.76,6.38,2.46l.83.13c.06,0,.11-.13.18-.13.47,0,.93.05,1.4.07a22.71,22.71,0,0,1,4.18.56c.59.15.9.46,1.42.27a26.2,26.2,0,0,1,3.07-.17,3,3,0,0,1,.6,0c.66.19,1.28.46,1.91.69a3.29,3.29,0,0,0,.46.23c.09,0-.31-.22-.21-.2.54.11,1.08.23,1.62.38.79.2.37.25.73.19a5,5,0,0,1,3,.36c.83.24.5.52.79.23,1.4-.12,2.69-.48,4,.36a70,70,0,0,1,11.42-1.5,10.71,10.71,0,0,0,5.18-1.06,16.66,16.66,0,0,1,5.85-1.38c3.25-.3,4.53-.66,5.1-1.43a4.12,4.12,0,0,1,2.9-1.18c2.81-.2,5.94-.81,6.64-1.31.31-.22,3.61-1.36,7.34-2.53a55.3,55.3,0,0,0,8.27-3.13,6.09,6.09,0,0,1,2.75-1,7.55,7.55,0,0,0,3-1,17.11,17.11,0,0,1,3-1.42,2.3,2.3,0,0,1,.7-.14Zm-84.72,3.52c-1.4.2.38.39.86.51ZM214,467.82s-.06,0,0,0,.19,0,.31,0l-.27,0Zm-87.26.6-1,0c0,.32,0,.64,0,1-.22.21-.06,3.5-.11,1.66,1,2.67.08,0,.69,2.37l.18.16-.17-.11h0c.32.21.72.48,1.07.74a2.83,2.83,0,0,0-.31-1.73c-.62-1.62-.54-1.84,1.34-3.58.14-.13.28-.29.42-.43l-.35,0a15.74,15.74,0,0,0-1.68-.08Zm31.77,17.4a.49.49,0,0,0-.06.32l.06-.08v-.24Zm-1.93,25.32-.4.22.38.05s0,0,0,0a1.93,1.93,0,0,1,0-.24Zm-1.18,2.19a1.9,1.9,0,0,1,.4.4,2,2,0,0,0-.22-.16C155.48,513.49,155.28,513.27,155.36,513.33Zm-12.62,9.77,2.61,1.5a12.76,12.76,0,0,1,3.51,2.85c1.33,2,5.76,4.45,14.61,8.12,13.35,5.53,15.54,6.12,29.14,7.85a114.13,114.13,0,0,0,21.67,1.08c17.43-.38,25.1-2.19,40.64-9.58,3.1-1.48,7.8-3.61,10.44-4.74a32.68,32.68,0,0,0,6.92-3.92,7.26,7.26,0,0,1,3.43-1.87c.77,0,3.52,1.67,6.63,4,2.92,2.22,6.2,4.57,7.29,5.22a27.39,27.39,0,0,1,4.21,3.45c1.23,1.23,2.57,2.25,3,2.25a4.13,4.13,0,0,1,2,1.26c2.19,2.23,7.07,5.34,13.56,8.63,3.47,1.77,7.57,4,9.11,5.08,4.18,2.79,12.1,11,15,15.54s5.59,9.81,5.62,11a2.31,2.31,0,0,0,.55,1.38,18.74,18.74,0,0,1,1.37,4.68c.47,2.28,1.36,5.9,2,8a137.14,137.14,0,0,1,4,18.82c1.56,10.15,2.92,15.32,5.43,20.64a26.08,26.08,0,0,1,1.13,6.91c.16,2.81.52,6.46.81,8.11a10.23,10.23,0,0,1,.29,3.24c-.13.13,0,.85.28,1.6a42,42,0,0,1,1.11,6.41,22.65,22.65,0,0,0,1.14,5.71c.37.43.33,1.62-.11,3.49-.62,2.64-.58,2.94.56,4.12a4.66,4.66,0,0,1,1.22,2.68c0,1.6,1.77,8.41,3.14,12.1,1.05,2.82,2.09,13.4,1.36,13.84s-1.74,3.32-1.21,3.32a2.23,2.23,0,0,0,1.11-.67c.48-.46.68-.48.68,0a5,5,0,0,0,.34,1.48c.22.57-.13,1.07-1,1.47l-1.36.61.82,3.42a28.37,28.37,0,0,0,1.58,4.87c.57,1.09.67,2.95.41,7.53-.29,4.84-.15,6.89.65,10.09A24.42,24.42,0,0,1,367,751.19c-1.55,3.24-1.69,3.89-1.07,5,1.23,2.27-1.44,5-3.3,3.33-.95-.83-1.16-.78-3,.71l-1.95,1.62h3.12l-1.68,2.38c-2.33,3.33-8.17,7-11.1,7a16.19,16.19,0,0,0-3.82,1.31,27.12,27.12,0,0,1-5.47,1.72,45.89,45.89,0,0,0-5.77,1.45c-3.89,1.27-5,1.32-5,.22s-.43-1-2.2-.05c-1.24.67-1.27.78-.35,1.28s.77.63-.85,1.18a11.82,11.82,0,0,1-3.05.63,28.47,28.47,0,0,0-6.21,2.5,28.63,28.63,0,0,1-6.2,2.49,57.14,57.14,0,0,0-6.82,1.4c-3.1.78-6.79,1.62-8.18,1.87s-5,1-7.91,1.63-7.77,1.54-10.72,2c-4.89.77-8.17,1.52-20.89,4.76a106.78,106.78,0,0,1-11.85,1.9c-4.19.46-8.17.95-8.84,1.1s-2.31.42-3.62.58-3.44.52-4.7.79a69.2,69.2,0,0,1-8.8.62c-3.57.07-10.3.57-15,1.12-6.91.82-34.37,1.76-34.93,1.2-.07-.07-2.27-.14-4.9-.17-4.69,0-17.09-1.48-74.38-8.6-27.09-3.36-34.17-4.59-36.5-6.35A57,57,0,0,0,45,785.62c-4.52-1.47-6.08-2.27-8.12-4.18-2.35-2.22-2.49-2.51-2.13-4.47a203.08,203.08,0,0,0,2.67-32.82c0-3.2.18-9.17.52-13.28s.71-9,.83-10.8.36-4.44.54-5.81.4-4.11.48-6.09c.27-6.51,1.08-13.55,1.63-14.23a3.36,3.36,0,0,0,.17-2.29,21.92,21.92,0,0,1,.48-6c.46-2.4.86-4.73.88-5.19A82.34,82.34,0,0,1,44.08,670a61.19,61.19,0,0,0,.88-6.08c.37-4.1,1.33-7.72,2.29-8.7,1.14-1.14,2.24-12.07,1.34-13.18-.44-.53.63-6.19,1.4-7.41.64-1,2.26-11.55,3.62-23.53a23.77,23.77,0,0,1,2.23-8.3A119.94,119.94,0,0,0,61.62,590a22,22,0,0,1,2.16-4.43,52.07,52.07,0,0,0,2.68-4.8c3.14-6.53,13.92-17.9,20.82-22,7.72-4.55,12.62-7.6,13.64-8.49.57-.5,6-3.83,12-7.4s12-7.18,13.26-8,4.17-2.44,6.49-3.59a24.15,24.15,0,0,0,7.13-5.15l2.9-3.06Zm-7.06,3c.25,0,.23.38-.14,1.07s-.83,1.1-1.11,1.1a2.5,2.5,0,0,0-1.25.71c-.41.38-1.48,1.26-2.38,1.94a5.93,5.93,0,0,1-2.82,1.22c-.87,0-.5-.41,1.42-1.52a24.91,24.91,0,0,0,4.17-3c1-1,1.79-1.51,2.11-1.48Z"/></g></svg>