<svg id="svg5223" xmlns="http://www.w3.org/2000/svg" viewBox="0 0 62.62 96.29"><defs><style>.cls-1,.cls-10,.cls-8{fill:#cfc0a1;}.cls-1,.cls-10,.cls-11,.cls-12,.cls-2,.cls-3,.cls-4,.cls-5,.cls-6,.cls-7,.cls-8,.cls-9{stroke:#000;}.cls-1,.cls-10,.cls-11,.cls-12,.cls-4,.cls-5,.cls-6,.cls-8{stroke-linecap:round;}.cls-1,.cls-11,.cls-12,.cls-4,.cls-5,.cls-6,.cls-8{stroke-linejoin:round;}.cls-1{stroke-width:1.79px;}.cls-13,.cls-2{fill:#41311c;}.cls-2{stroke-width:0.85px;}.cls-3,.cls-6,.cls-9{fill:#83cdd1;}.cls-3{stroke-width:1.43px;}.cls-4{fill:#7b7e8e;stroke-width:1.71px;}.cls-11,.cls-5{fill:#fff;}.cls-5{stroke-width:1.14px;}.cls-6{stroke-width:1.72px;}.cls-7{fill:#2e2e2e;}.cls-10,.cls-7{stroke-width:1.79px;}.cls-8{stroke-width:1.79px;}.cls-9{stroke-width:1.56px;}.cls-10{stroke-linejoin:bevel;}.cls-11{stroke-width:1.55px;}.cls-12{fill:none;stroke-width:1.39px;}</style></defs><title>girl-10</title><g id="layer1"><g id="g5494"><path id="path3954-8-5-3-0-1-4-1-0-3-16-1" class="cls-1" d="M59.31,70.65a5.51,5.51,0,0,1-6,2.92,3.39,3.39,0,0,1-2.25-5,5.51,5.51,0,0,1,6-2.91A3.38,3.38,0,0,1,59.31,70.65Z"/><path id="path3804-6" class="cls-2" d="M62.27,49.87C62.42,37,61.18.76,30.13.34-2,.51.65,43.19.34,49.43c3.31,10.25,58.25,9,61.93.44Z"/><path id="path4553-8-2-8-8-9-0-6-2-9" class="cls-3" d="M45.81,70.35c.68,1.82,13.81-3,13.15-5.07C52.77,38.6,46.72,40.94,44.4,41.46,41,44.13,42,53.34,45.81,70.35Z"/><path id="rect3252-6-7-2-7-1-6-3-5-6-7-4" class="cls-4" d="M33.85,67.84h.7c11,0,20,3.16,20,7.07V86.46c0,3.91-8.93,7.08-20,7.08h-.7c-11,0-20-3.17-20-7.07V74.91C13.88,71,22.82,67.84,33.85,67.84Z"/><path id="path3928-9-81-8-0-49-3-5-5-5-6" class="cls-5" d="M42.92,92.26l-.21-8.15"/><path id="path3932-5-3-3-6-1-5-5-0-2-8-4" class="cls-6" d="M36.13,37.2h-.52v0c-4.77.17-9.26,3.13-12.32,6.94C16.72,52.25,14,63.07,13.49,73.5c.09,2.68-.48,5.89.5,8.23,3.74,2.61,10.44,3.19,15,3.88,1.22.09,3.15.15,5.24.22h0l.65,0h.06c2.1,0,4,.06,5.25,0,4.59-.48,11.32-.74,15.2-3.16,1.12-2.3.72-5.52,1-8.19.09-10.45-2-21.38-8.12-29.79-2.84-4-7.16-7.13-11.91-7.52v0h-.19Z"/><path id="path4010-7-3-7-4-8-5-4-5-9-3-6" class="cls-7" d="M61.69,91.55s-1.11-5.24-8-4.62c-9.27.82-9.53,6.1-9.53,6.1C43.63,94.66,62.15,93.68,61.69,91.55Z"/><path id="path3954-8-5-7-3-4-8-9-1-79-80" class="cls-8" d="M11.41,76.3a5.5,5.5,0,0,0,6.42,1.86,3.38,3.38,0,0,0,1.38-5.29A5.51,5.51,0,0,0,12.79,71,3.39,3.39,0,0,0,11.41,76.3Z"/><path id="path4553-7-9-8-3-7-1-72-6" class="cls-9" d="M21.52,73.21C21,75.21,5.59,71.77,6.1,69.5c4-28.76,11.06-27,13.73-26.78,4.31.94,4.09,12.17,1.69,30.49Z"/><path id="rect4240-8-4-1-9-9-9" class="cls-10" d="M31.36,3.76h2.15c13.25,0,24,9.29,24,20.76V26c0,11.46-10.74,20.76-24,20.76H31.36c-13.25,0-24-9.3-24-20.76V24.52C7.38,13.05,18.11,3.76,31.36,3.76Z"/><path id="path4010-1-9-2-6-6-6-8-1-7-3-9-7" class="cls-7" d="M17.31,93.26S18.09,86.7,28,87.15c13.3.59,14.47,7.14,14.47,7.14,1,2-25.46,1.66-25.13-1Z"/><path id="path3831-2-0-3-22-0-7-8-3-6" class="cls-11" d="M41.65,36.19l4.54-1"/><g id="g456-8-2-1-1-8-2-4-3"><path id="path458-3-6-8-7-6-4-2-0" d="M36.4,28.1a2.15,2.15,0,1,1-2.34-1.93A2.15,2.15,0,0,1,36.4,28.1"/></g><g id="g456-1-7-8-4-8-6-5-5"><path id="path458-9-9-9-5-6-0-1-4" d="M54.91,24.67a2.15,2.15,0,1,1-2.35-1.93,2.14,2.14,0,0,1,2.35,1.93"/></g><path id="path4494-63-0-50-4-4" class="cls-12" d="M12.65,32.18a2,2,0,0,1-2.65-.4,2.31,2.31,0,0,1-.06-3.34,2.63,2.63,0,0,1,2-.57"/><path id="rect4240-2-7-3" class="cls-13" d="M28.59,1.32c-14,1.1-24.54,11.59-24,23.66a30.1,30.1,0,0,1,3.84-.57l49.78-3.9C56.78,8.64,44.8.05,30.91,1.14l-2.32.18Z"/><path id="path3804-6-6" class="cls-13" d="M15.63,41.06C18.31,32,25.46,6.48,19,3.41,12.16.66,4,30.87,2.64,35.23c-1.4,7.49,10.47,11.48,13,5.83Z"/></g></g></svg>