<?xml version="1.0" ?><svg width="48px" height="48px" viewBox="0 0 48 48" xmlns="http://www.w3.org/2000/svg"><defs><style>.cls-1{fill:#fc663d;}.cls-2{fill:#f7cc94;}.cls-3{fill:#f4b392;}.cls-4{fill:#3f1400;}.cls-5,.cls-6{fill:none;stroke-linecap:round;stroke-linejoin:round;stroke-width:0.5px;}.cls-5{stroke:#3f1400;}.cls-6{stroke:#fff;}</style></defs><title/><g id="complite"><path class="cls-1" d="M44.5,44.11H3.5C3.5,37,6.67,31.3,13.75,31.3h20.5C41.33,31.3,44.5,37,44.5,44.11Z"/><path class="cls-2" d="M27.84,21.05V32.58a3.84,3.84,0,0,1-7.68,0V21.05Z"/><path class="cls-3" d="M31.61,17.2a10.64,10.64,0,0,1-3.77,7.59v2.56a6,6,0,0,1-7.68,0V24.79a10.64,10.64,0,0,1-3.77-7.59c.46-5,3.69-9,7.61-9S31.15,12.15,31.61,17.2Z"/><path class="cls-2" d="M31.69,15.92a10.6,10.6,0,0,1-.08,1.28,10.64,10.64,0,0,1-3.77,7.59,6,6,0,0,1-7.68,0,10.64,10.64,0,0,1-3.77-7.59,10.6,10.6,0,0,1-.08-1.28c0-5.66,3.44-10.25,7.69-10.25S31.69,10.26,31.69,15.92Z"/><path class="cls-2" d="M34.25,15.92a2.56,2.56,0,0,1-2.56,2.56c-1.42,0,0-1.14,0-2.56s-1.42-2.56,0-2.56A2.56,2.56,0,0,1,34.25,15.92Z"/><path class="cls-2" d="M13.75,15.92a2.56,2.56,0,0,0,2.56,2.56c1.42,0,0-1.14,0-2.56s1.42-2.56,0-2.56A2.56,2.56,0,0,0,13.75,15.92Z"/><circle class="cls-4" cx="20.93" cy="13.62" r="0.51"/><circle class="cls-4" cx="27.08" cy="13.62" r="0.51"/><path class="cls-5" d="M19.13,12.08s1.74-2.05,3.59-1"/><path class="cls-5" d="M28.87,12.08s-1.74-2.05-3.59-1"/><path class="cls-5" d="M23.49,14.13s-2,5.12-1,5.12h1"/><path class="cls-4" d="M17,14.89s3-5,3-6c0,0,1,2,7,0s6-5,6-5-5,2-8,1-7,0-6,2c0,0-2-1-2,0S15,13.89,17,14.89Z"/><path class="cls-4" d="M30,6.89s3,7,1,8c0,0-3-6-3-7S30,6.89,30,6.89Z"/><path class="cls-4" d="M25.75,24.5c0,1-.78,3.25-1.75,3.25s-1.75-2.29-1.75-3.25.78-.75,1.75-.75S25.75,23.53,25.75,24.5Z"/><path class="cls-6" d="M23.49,21.3s3.07,0,4.1-1"/></g></svg>