<svg id="Layer_1" data-name="Layer 1" xmlns="http://www.w3.org/2000/svg" viewBox="0 0 1000 1000"><defs><style>.cls-1{fill:#26120b;}.cls-2{fill:#cce70b;}.cls-3{fill:#80c41c;}.cls-4{fill:#40a629;}.cls-5{fill:#63300f;}.cls-6{fill:#a0642f;}.cls-7{fill:#be894a;}.cls-8,.cls-9{fill:none;}.cls-8{stroke:#63300f;stroke-miterlimit:10;stroke-width:1.68px;}.cls-10{fill:#fff;}.cls-11{fill:#c2000b;}</style></defs><title>monkey 14</title><path class="cls-1" d="M-21.38,549.6l6.84-2.38c4.48-1.56,11-3.84,19.35-6.86C36.2,530.83,31.42,487,47.53,461.73c2.19-5.63,8.78-10.51,15-10.46,56.75,2.62,114.25,31.37,169.7,10,4.93-1.71,9.88-3.42,14.89-5.13l45.06-15.69c5.39-1.87,10.79-3.75,16.24-5.49,28.36-10.27,59.12,6.95,87.32,10.73C439,451,444.43,389,481.68,375.16c4.7-2.18,9.51-3.92,14.27-5.58l174.61-60.76L499,378.54a126.79,126.79,0,0,0-14,6.45c-31.85,17.45-36.22,64.72-66.61,78.58C386.24,478.11,350,439,314.87,453.66c-5.38,1.94-10.68,4.1-16,6.25l-29.61,12c-5,2-9.91,4-14.85,5.92-59.32,33.89-127.82-26.73-180.9,5.29-22.33,13.22-5.47,74.09-43.29,85.73-4.88,2.22-9.44,4.08-13.56,5.75L-9.13,585.12Z"/><path class="cls-1" d="M443.65,416.72l5.19,1.24c3.38.8,8.36,2,14.68,3.42,23.35,6.37,33.18-17.48,51.18-24.52,3.1-2.07,8.86-2.19,12.92.06,36.35,21.54,65.48,56.56,108.06,65.53l11.25,2.71,34.12,8.13c4.08,1,8.16,1.95,12.24,3,21.59,4.91,36.63,24.58,54,36.54,26.7,18.08,48.63-11.36,77.07-5.06,3.72.58,7.38,1.41,11,2.27l132.18,31.5L834.68,515.69a108.18,108.18,0,0,0-11-1.72c-26-2.53-42.82,19.81-66.8,16C731.46,525.83,719.3,493.11,692,488c-4.09-.93-8.2-1.73-12.29-2.53L656.77,481c-3.85-.77-7.65-1.52-11.46-2.3-48.83-4-75.73-59.06-119.92-61.78-18.52-1.28-25.47,35.51-53.66,27.91-3.84-.61-7.38-1.3-10.57-1.92l-20-3.9Z"/><path class="cls-1" d="M320.67,433.38l3.9-3.67c2.54-2.39,6.27-5.91,11-10.43,18.09-16,7.67-41,13.49-61.61a15.79,15.79,0,0,1,7.64-11.22c36.06-16.79,77-17.95,108.18-48.88l8.47-7.94,25.62-24.12c3.06-2.88,6.13-5.77,9.25-8.59,16.06-15.43,38.28-14.94,56.61-21.77,28-10.77,20.92-50.26,42-70.7,2.58-2.85,5.3-5.47,8-8L714,63l-95.8,97.92c-2.62,2.67-5.24,5.41-7.68,8.44-17,20.92-11.77,51.06-28.48,69.32-17.75,19.27-47.14,7.23-66.68,27.53-3,2.92-6,5.95-9,9L489.89,292c-2.79,2.82-5.54,5.62-8.31,8.41-31.49,39.8-84.73,25.16-112.61,61.81-11.77,15.27,9.12,46.78-12.64,66.11-2.68,2.92-5.23,5.53-7.53,7.88L334.38,451Z"/><path class="cls-2" d="M619.25,88.48c4.18,51.25-26.44,95.58-26.44,95.58s-37.41-38.78-41.59-90S577.67-1.56,577.67-1.56,615.08,37.22,619.25,88.48Z"/><path class="cls-3" d="M677.16,234.55c-46,22.93-98.57,11-98.57,11s22.09-49.14,68.12-72.08,98.57-11,98.57-11S723.19,211.61,677.16,234.55Z"/><path class="cls-4" d="M483.56,250.54c-16.65,48.66-62.44,77-62.44,77S402.33,277.1,419,228.44s62.44-77.05,62.44-77.05S500.22,201.89,483.56,250.54Z"/><path class="cls-4" d="M829,478.44c-40.42,31.8-94.28,30.75-94.28,30.75s11.66-52.6,52.08-84.4S881.05,394,881.05,394,869.39,446.64,829,478.44Z"/><path class="cls-2" d="M952.12,516.78c-20.87,16.42-50.83,13.16-50.83,13.16s3.88-29.89,24.75-46.32,50.83-13.15,50.83-13.15S973,500.36,952.12,516.78Z"/><path class="cls-3" d="M380.57,295.33c2,26.48-17.42,49.53-17.42,49.53S340.5,325,338.51,298.5,355.92,249,355.92,249,378.57,268.84,380.57,295.33Z"/><path class="cls-2" d="M809.84,573.41c-21.71-15.29-27.16-44.93-27.16-44.93s29.75-4.85,51.46,10.45,27.16,44.94,27.16,44.94S831.55,588.71,809.84,573.41Z"/><path class="cls-4" d="M563.57,319.49C555,344.61,528,358.14,528,358.14s-13-27.21-4.36-52.33,35.55-38.65,35.55-38.65S572.19,294.37,563.57,319.49Z"/><path class="cls-4" d="M891.84,590.26c-23.1-29.13-22.16-68.35-22.16-68.35s38.4,8,61.5,37.17,22.15,68.34,22.15,68.34S914.94,619.4,891.84,590.26Z"/><path class="cls-3" d="M658.3,384.43c-34.34-14.26-52.56-49-52.56-49s37.46-11.63,71.8,2.62,52.56,49,52.56,49S692.64,398.68,658.3,384.43Z"/><path class="cls-4" d="M736.37,121.66c-36.63,6.41-70.65-13.12-70.65-13.12s25.37-29.92,62-36.33,70.65,13.12,70.65,13.12S773,115.25,736.37,121.66Z"/><path class="cls-5" d="M759.57,615.84c-16.75,18.69-38.06,27-47.59,18.56S708.3,604,725.06,585.26s38.06-27,47.59-18.55S776.33,597.15,759.57,615.84Z"/><path class="cls-6" d="M754.37,611.23c-12,13.42-27.19,19.52-33.84,13.63s-2.29-21.56,9.74-35,27.18-19.53,33.83-13.63S766.4,597.8,754.37,611.23Z"/><path class="cls-7" d="M408.6,426.65c-1.83.24-4.3-2.37-5.51-5.83h0c-1.21-3.45-.7-6.44,1.13-6.67l21.92-2.81c1.84-.23,4.31,2.38,5.51,5.83h0c1.21,3.46.71,6.45-1.13,6.68Z"/><path class="cls-7" d="M404.12,442.43c-1.84.24-4.31-2.37-5.52-5.83h0c-1.21-3.45-.7-6.44,1.14-6.68l21.91-2.8c1.84-.23,4.31,2.38,5.52,5.83h0c1.21,3.46.7,6.45-1.13,6.68Z"/><path class="cls-7" d="M425.32,413.54c-1.84.24-4.31-2.37-5.52-5.83h0c-1.21-3.45-.7-6.44,1.13-6.68l21.92-2.8c1.84-.23,4.31,2.38,5.52,5.83h0c1.21,3.46.7,6.45-1.14,6.68Z"/><path class="cls-7" d="M447.15,407.49c-1.84.24-4.31-2.37-5.52-5.83h0c-1.21-3.45-.7-6.44,1.14-6.68l21.92-2.8c1.83-.23,4.3,2.38,5.51,5.83h0c1.21,3.46.7,6.45-1.13,6.68Z"/><path class="cls-5" d="M521.19,719.48c-1.68,1.68-3.36,3.36-6.73,0,0-1.68,0-3.37,1.68-5.05,28.61-30.28,70.67-47.11,112.73-43.74,35.33,3.36,70.66,23.55,82.44,57.2,6.73,20.19,6.73,40.38,20.19,57.2,42.06,50.48,116.08,38.7,163.19,0,3.37-1.68,6.73-6.73,11.78-5v5c-15.14,18.51-35.33,28.6-57.2,35.33-23.56,6.73-47.11,10.1-72.35,5.05-21.87-6.73-42.06-16.82-57.2-38.69-5.05-8.42-10.1-15.15-13.46-25.24-5-18.51-8.41-38.7-21.87-53.84-15.14-15.14-35.33-25.24-57.2-26.92-38.7-1.68-77.4,11.78-106,38.7Z"/><path class="cls-8" d="M521.19,719.48c-1.68,1.68-3.36,3.36-6.73,0,0-1.68,0-3.37,1.68-5.05,28.61-30.28,70.67-47.11,112.73-43.74,35.33,3.36,70.66,23.55,82.44,57.2,6.73,20.19,6.73,40.38,20.19,57.2,42.06,50.48,116.08,38.7,163.19,0,3.37-1.68,6.73-6.73,11.78-5v5c-15.14,18.51-35.33,28.6-57.2,35.33-23.56,6.73-47.11,10.1-72.35,5.05-21.87-6.73-42.06-16.82-57.2-38.69-5.05-8.42-10.1-15.15-13.46-25.24-5-18.51-8.41-38.7-21.87-53.84-15.14-15.14-35.33-25.24-57.2-26.92-38.7-1.68-77.4,11.78-106,38.7Z"/><path class="cls-7" d="M390.6,809.88c-16.7-5-36.43-7.76-53.07-10.16-24.64-2.77-36.15,5.34-8.86,17.29-13.28,11-8.26,16.31,8.55,26.57-10.26,8.77,7.09,15.42,18.16,16.15,12.92.41,24.42-7.7,34.15-12.87,13.34-8.43,33.87-26,4.15-36.63"/><path class="cls-7" d="M391.71,805.83c-12.91-3.75-26.12-6.11-39.39-8.16-10.41-1.6-21.44-4-32-2.09-4.26.76-12.4,3.24-11.64,9.21,1.09,8.61,10.92,12.69,17.85,15.86-.28-2.2-.56-4.41-.85-6.61-4.29,3.75-10.6,9.81-8.52,16.34,2.59,8.11,11.13,12.63,17.92,16.83-.28-2.2-.57-4.4-.85-6.6-9.09,9-1.29,16.83,8.1,20.62,16,6.46,31.06-.47,45-8.37,9.19-5.2,21-12.41,24.71-23,4.38-12.63-7.07-19.71-17.3-23.67-5.06-2-7.24,6.17-2.23,8.11,6.82,2.64,15.11,6.69,10.52,14.93-3.1,5.56-9.2,9.72-14.36,13.16-7.92,5.28-17.14,10.13-26.35,12.5-3.46.89-29.1-1.49-22.17-8.33a4.26,4.26,0,0,0-.85-6.6,77.38,77.38,0,0,1-11.79-8.33c-4.87-4.45.54-8.53,4.09-11.63,1.91-1.67,1.54-5.51-.85-6.61a89.36,89.36,0,0,1-9.66-5c-1.43-.88-4.74-2.6-3.33-3.44,5.4-3.2,15.5-1.57,21.25-.74,17,2.44,33.94,5,50.42,9.77,5.22,1.52,7.43-6.6,2.23-8.11Z"/><path class="cls-7" d="M430.09,466.64c-1.83,1.08-4.43-.37-5.79-3.24h0c-1.37-2.88-1-6.1.85-7.19l21.92-13c1.84-1.09,4.43.36,5.8,3.24h0c1.36,2.88,1,6.09-.86,7.18Z"/><path class="cls-5" d="M525.67,502.75c-2-5-7.69-6.93-12.78-4.3l-1.42.73c-5.1,2.63-7.64,8.81-5.68,13.81l31,78.93c2,5,7.68,6.92,12.78,4.3l1.42-.73c5.1-2.63,7.64-8.81,5.68-13.82Z"/><path class="cls-5" d="M474.2,431c-3.16-4.2-9.33-4.55-13.79-.77l-1.24,1.05c-4.46,3.78-5.51,10.25-2.36,14.45l49.81,66.29c3.16,4.2,9.33,4.54,13.79.77l1.23-1.05c4.46-3.78,5.52-10.25,2.36-14.45Z"/><path class="cls-7" d="M456.84,399a6.91,6.91,0,0,1,4.66-7.67h0a5.2,5.2,0,0,1,6.92,4l7.44,38.35a6.93,6.93,0,0,1-4.67,7.67h0a5.2,5.2,0,0,1-6.92-4Z"/><path class="cls-7" d="M423,420.24c-2.11-2.29-1.82-6.16.66-8.63h0c2.47-2.47,6.2-2.62,8.32-.33l25.29,27.35c2.12,2.29,1.83,6.16-.65,8.63h0c-2.48,2.47-6.2,2.62-8.32.33Z"/><path class="cls-7" d="M435.32,408c-1.6-2.72-.59-6.54,2.26-8.52h0c2.84-2,6.44-1.37,8,1.35l19.05,32.59c1.59,2.72.58,6.54-2.26,8.52h0c-2.85,2-6.44,1.38-8-1.35Z"/><path class="cls-7" d="M415.44,438.34c-2.87-1.25-3.93-4.81-2.38-7.94h0c1.56-3.13,5.14-4.65,8-3.4l34.21,15c2.86,1.25,3.92,4.8,2.37,7.93h0c-1.55,3.13-5.14,4.65-8,3.4Z"/><path class="cls-7" d="M442.5,454.68c-7.59-9.49-5.64-24.38,4.34-33.28s24.24-8.42,31.83,1.06,5.64,24.38-4.34,33.27S450.09,464.16,442.5,454.68Z"/><path class="cls-5" d="M402,737.13c-3.58,4.48.3,10.67,8.65,13.8l2.32.88c8.35,3.14,18,2,21.59-2.44L491,678.59c3.58-4.48-.29-10.66-8.65-13.8l-2.32-.87c-8.35-3.14-18-2-21.59,2.43Z"/><path class="cls-5" d="M375.42,822.37c-1.41,5.12,4.73,10.84,13.7,12.78l2.49.54c9,1.94,17.39-.64,18.8-5.76l22.23-80.79c1.41-5.12-4.72-10.84-13.69-12.78l-2.5-.54c-9-1.94-17.39.64-18.8,5.76Z"/><path class="cls-7" d="M532.77,906.22c-17.19,2.92-36.08,9.22-52.06,14.46-23.31,8.45-30,20.83-.26,19.42-7,15.8-.16,18.28,19.46,20-5.31,12.41,13.19,10.67,23.44,6.41,11.75-5.37,18.46-17.75,24.88-26.7,8.21-13.47,18.82-38.3-12.55-34.66"/><path class="cls-7" d="M531.65,902.16c-14,2.51-27.53,6.54-41,10.86-10.27,3.29-20.57,6.45-29.2,13.16-3.89,3-6.53,8-3.81,12.66,4,6.73,16.58,5.67,22.84,5.47L476.4,939c-2.7,6.41-4.54,13.27.41,19s16.24,5.7,23.1,6.33c-1.36-1.77-2.71-3.55-4.06-5.32-4.43,12.54,8,16,18,14.43,17-2.75,26.36-14.43,35.55-28,5.94-8.75,12.27-19.59,11.49-30.58C560,901.8,546.13,900,535.68,901c-5.35.5-5.4,8.92,0,8.41,7-.66,16.94-1.34,16.91,8,0,6.27-3.63,12.72-6.61,18-4.64,8.27-10.66,16.62-17.66,23-4.18,3.82-9.4,5.52-14.82,6.64-3.63.74-11.59,2-9.54-3.78,1-2.79-1.53-5.09-4-5.33-5.31-.49-11.28-.68-16.13-3.14-4-2-.45-8.75.73-11.54,1.06-2.52-1.57-5.4-4.06-5.32a92.77,92.77,0,0,1-10.28-.16,22.5,22.5,0,0,1-4.06-.83c-1.82-.5-1.59.2-.7-.91,3.75-4.69,11.06-7.24,16.42-9.26a298.63,298.63,0,0,1,52.06-14.46c5.33-1,3.06-9.07-2.24-8.12Z"/><path class="cls-5" d="M510.69,836c-1.21,5.61,5,9.43,13.88,8.53l2.47-.25c8.87-.89,17.05-6.16,18.26-11.77L564.41,744c1.22-5.6-5-9.42-13.88-8.53l-2.46.25c-8.88.9-17.06,6.17-18.27,11.77Z"/><path class="cls-5" d="M524.71,924.14c1,5.22,9,7.62,17.95,5.37l2.47-.62c8.91-2.25,15.3-8.3,14.29-13.51l-15.95-82.26c-1-5.21-9.05-7.62-18-5.37l-2.47.63c-8.9,2.24-15.3,8.29-14.29,13.51Z"/><path class="cls-7" d="M618.25,788.83c-2.13.31-3.24,3.06-2.49,6.13h0c.75,3.07,3.09,5.3,5.21,5l25.41-3.76c2.12-.32,3.24-3.06,2.49-6.13h0c-.76-3.07-3.09-5.31-5.22-5Z"/><path class="cls-5" d="M672,709.83c1.62,5.08-1.64,10.16-7.3,11.34l-1.57.33c-5.66,1.18-11.56-2-13.19-7.06L624.3,634.3c-1.63-5.08,1.64-10.15,7.29-11.33l1.58-.33c5.65-1.18,11.56,2,13.19,7.05Z"/><path class="cls-5" d="M677.08,797.31c.18,5.22-4.44,9.36-10.32,9.25l-1.63,0c-5.89-.1-10.81-4.41-11-9.63l-2.92-82.26c-.19-5.21,4.43-9.35,10.32-9.25l1.63,0c5.88.1,10.8,4.41,11,9.63Z"/><path class="cls-7" d="M689.61,842.23a7,7,0,0,0,8.51,3h0a5.18,5.18,0,0,0,2.92-7.4l-18.45-34.16a7,7,0,0,0-8.51-3h0a5.17,5.17,0,0,0-2.91,7.4Z"/><path class="cls-7" d="M645.13,848.06c-.21,3.09,2.46,5.88,6,6.22h0c3.51.35,6.52-1.88,6.73-5l2.51-36.92c.21-3.09-2.46-5.88-6-6.23h0c-3.5-.34-6.52,1.88-6.73,5Z"/><path class="cls-7" d="M667.26,850c.48,3.1,3.68,5.4,7.16,5.14h0c3.49-.27,5.92-3,5.44-6.09l-5.69-37c-.48-3.1-3.68-5.4-7.16-5.14h0c-3.49.26-5.92,3-5.44,6.09Z"/><path class="cls-7" d="M618,834.57c-1.45,2.76,0,6.16,3.16,7.59h0c3.2,1.43,7,.35,8.42-2.41l17.34-33c1.45-2.76,0-6.17-3.16-7.6h0c-3.2-1.43-7-.35-8.42,2.42Z"/><path class="cls-7" d="M637.29,799c.05,12.06,11,22.29,24.45,22.86s24.32-8.74,24.27-20.8-11-22.29-24.45-22.86S637.24,787,637.29,799Z"/><path class="cls-5" d="M614.17,704.69c-49.52,80.5-101.67,55.67-137.28,24.13C409.36,669,447,633.14,485.24,590.48c40.21-44.86,101.67-55.66,137.28-24.12S645.88,653.15,614.17,704.69Z"/><path class="cls-5" d="M732.49,597.34a91,91,0,0,1-32.38,23.1,92.64,92.64,0,0,1-11.91,4.13c-30.3,8.31-64.93,1.83-92.38-19.67-1.78-1.39-3.52-2.85-5.24-4.36s-3.36-3.08-5-4.67c-24.11-24.11-34.63-56.67-30.55-87a93.13,93.13,0,0,1,3-14.23,90.62,90.62,0,0,1,45.6-54.85A94.94,94.94,0,0,1,629.47,431c30.35-5.71,63.95,2.81,89.92,25.81s38.33,55.2,36.11,85.84a93.72,93.72,0,0,1-5.81,26.43A90.33,90.33,0,0,1,732.49,597.34Z"/><path class="cls-9" d="M642.55,544.51a55.58,55.58,0,0,1-16,4.06,54.14,54.14,0,0,1-2.21,16.25,55.58,55.58,0,0,1,16-4.06A54.46,54.46,0,0,1,642.55,544.51Z"/><path class="cls-7" d="M726.77,583.35a63.21,63.21,0,0,0,8.35-11.75,57.21,57.21,0,0,0,7.26-25.9c.39-13.29-4.34-25.94-14.25-34.73-13.31-11.79-32.53-13.55-49.85-6.32,5.23-17.94,1.26-36.71-12-48.5-9.91-8.78-23.1-12-36.34-10.09a58.25,58.25,0,0,0-25,10.15,63.87,63.87,0,0,0-10.79,9.6c-10.65,11.88-15.88,26.45-15.62,40.12a56,56,0,0,0-20,5.93,98.37,98.37,0,0,0,27.76,84.5q2.28,2.29,4.72,4.46c1.64,1.45,3.3,2.83,5,4.16a99.78,99.78,0,0,0,89.55,17.16,54.91,54.91,0,0,0,3-18.75C702.15,602.08,716.11,595.24,726.77,583.35ZM624.36,564.81c.17-.61.34-1.23.5-1.85a55.59,55.59,0,0,0,1.23-6.3c.23-1.69.37-3.39.44-5.07,0-.34,0-.68,0-1q0-1,0-2c.67-.07,1.34-.14,2-.23l1-.15q2.52-.39,5-1a57.46,57.46,0,0,0,7.95-2.65,54.42,54.42,0,0,0-2.21,16.25c-1,.1-2,.22-3,.38s-2,.34-3,.55l-1,.23a54.41,54.41,0,0,0-6,1.75h0l-.95.34-1,.4Z"/><path class="cls-7" d="M666.15,563.24c-10.09,11.25-30,10-44.52-2.88s-18.07-32.37-8-43.63,30-10,44.51,2.88S676.24,552,666.15,563.24Z"/><path class="cls-5" d="M589.61,470.78c-16.76,18.69-38.07,27-47.6,18.56s-3.67-30.45,13.08-49.14,38.07-27,47.6-18.55S606.37,452.09,589.61,470.78Z"/><path class="cls-5" d="M642,519.69c-16.76,18.69-38.07,27-47.6,18.56s-3.68-30.45,13.08-49.14,38.07-27,47.6-18.55S658.71,501,642,519.69Z"/><path class="cls-6" d="M642,519.69c-10.59,11.81-24.32,16.81-30.68,11.17s-2.95-19.77,7.64-31.58,24.31-16.81,30.68-11.17S652.54,507.88,642,519.69Z"/><path class="cls-1" d="M640.82,518.68c-6.91,7.71-16.12,10.76-20.57,6.82s-2.46-13.39,4.45-21.1,16.12-10.76,20.57-6.81S647.73,511,640.82,518.68Z"/><path class="cls-5" d="M699.07,570.28c-16.76,18.69-38.07,27-47.6,18.55s-3.68-30.44,13.08-49.13,38.06-27,47.59-18.56S715.82,551.59,699.07,570.28Z"/><path class="cls-6" d="M688.86,558.7c-10.59,11.8-24.32,16.8-30.68,11.17s-2.95-19.78,7.64-31.58,24.31-16.81,30.68-11.18S699.44,546.89,688.86,558.7Z"/><path class="cls-6" d="M584.4,466.16c-12,13.43-27.18,19.53-33.84,13.64s-2.29-21.56,9.74-35,27.18-19.53,33.84-13.64S596.43,452.74,584.4,466.16Z"/><path class="cls-1" d="M683.08,553.57c-6.91,7.71-16.12,10.76-20.57,6.82S660,547,667,539.29s16.12-10.76,20.57-6.81S690,545.87,683.08,553.57Z"/><path class="cls-10" d="M642.9,506.1c-1.91,2.13-4.77,2.69-6.39,1.26s-1.38-4.32.53-6.46,4.77-2.69,6.39-1.26S644.81,504,642.9,506.1Z"/><path class="cls-10" d="M684.66,541.53c-1.91,2.14-4.77,2.7-6.39,1.27s-1.38-4.33.53-6.46,4.77-2.69,6.39-1.26S686.57,539.4,684.66,541.53Z"/><path class="cls-5" d="M686.63,466.65c11.73-4.59,17.9-12.36,13.91-26.71a21,21,0,0,1,1-2l3.86-7.42s0,3.94-.09,9.51c0,.79,0,1.62,0,2.51,6.08,14.39,10.23,28.61-1.45,33.33-2,.4-9.45-4.86-14.3-7.64Z"/><path class="cls-5" d="M693.11,475.44c12.48-4,20.52-11.22,20.65-25.25.47-.66,1-1.27,1.45-1.86l5.73-7s-1.11,3.79-2.7,9.17c-.22.77-.46,1.57-.65,2.44,1.84,14.13,1.88,28-10.58,32.13-2,.31-7.69-5.07-11.55-7.95Z"/><path class="cls-5" d="M690.94,462.59c20.18,6.36,33.67,5.35,35.37-9.72a23.08,23.08,0,0,1,2.49-.78l9.82-2.7L733.38,457a19.34,19.34,0,0,0-1.3,2.07c1.42,16.89,0,32-20.15,25.79-3.18-1.35-11.64-12.05-17.45-18.47Z"/><path class="cls-7" d="M663.6,599.58c-5.05,12.72-4.78,23.93,5.64,33,.19.81.33,1.61.46,2.38.92,5.37,1.56,9.17,1.56,9.17s-2.12-3.35-5.14-8.09c-.43-.68-.87-1.39-1.39-2.1-11.78-7.57-22.22-16.47-17.28-29.25,1-1.82,8.75-3,13.39-4.31Z"/><path class="cls-7" d="M652,594.78c-5,12.72-4.78,23.93,5.64,33,.19.81.33,1.61.46,2.38.92,5.37,1.56,9.17,1.56,9.17l-5.14-8.1c-.43-.67-.88-1.38-1.4-2.09-11.77-7.58-22.22-16.47-17.27-29.25,1-1.82,8.74-3,13.39-4.32Z"/><path class="cls-7" d="M659.85,601.72c-12.71,7.75-18.38,16.73-11.05,28.68-.2.72-.47,1.42-.72,2.08l-3.07,8s-.7-3.61-1.7-8.73c-.14-.73-.28-1.5-.51-2.3-9.74-11.34-17.23-23.12-4.61-31,2.19-1,11.84,1.6,18,2.68Z"/><path class="cls-7" d="M585.81,540.62C573.08,546,561.72,546,552.18,536c-.82-.17-1.64-.28-2.42-.39l-9.33-1.27,8.34,4.83c.7.4,1.43.82,2.17,1.32,8,11.39,17.33,21.44,30.13,16.18,1.82-1.08,2.8-8.71,4-13.33C585.51,541.72,585.81,540.62,585.81,540.62Z"/><path class="cls-7" d="M591,551.91c-12.73,5.36-24.1,5.42-33.64-4.59-.82-.17-1.63-.28-2.41-.39l-9.34-1.27,8.35,4.83c.7.41,1.42.83,2.16,1.32,8,11.39,17.33,21.44,30.14,16.18,1.81-1.08,2.79-8.71,4-13.32Z"/><path class="cls-7" d="M583.76,544.39C576.28,557.14,567.35,563,555,556.12c-.73.22-1.43.5-2.1.77l-8,3.26,8.9,1.42c.75.12,1.52.24,2.34.44,11.77,9.28,23.93,16.32,31.51,3.64.91-2.19-2-11.63-3.24-17.64C584,545.83,583.76,544.39,583.76,544.39Z"/><path class="cls-7" d="M577.56,711.13c-6.13,39.64-66,28.92-91.08,5.6s-37-78.64.33-90.06c58.92-18,69.64-25.55,91.08-5.6S585.4,660.5,577.56,711.13Z"/><path class="cls-11" d="M630.94,592.17c-4.37,3.45-10.56,4.14-16.92,2.43a35.38,35.38,0,0,1-16.32-10.12,31.19,31.19,0,0,1-8.37-16.41c-.87-6.05.8-11.59,5.17-15a14.24,14.24,0,0,1,3.11-1.88l.28-.12c.35,7.64,4.19,16.36,11.23,23.93,7.28,7.81,16.4,12.7,24.77,14q-.25.39-.54.75A13.4,13.4,0,0,1,630.94,592.17Z"/><path class="cls-10" d="M634.52,588.78c-4,1.76-8.84,1.88-13.8.55a35.3,35.3,0,0,1-16.32-10.12,31.16,31.16,0,0,1-8.37-16.4c-.69-4.77.2-9.21,2.74-12.58l.28-.12c.35,7.64,4.19,16.36,11.23,23.93,7.28,7.81,16.41,12.7,24.77,14C634.88,588.29,634.7,588.53,634.52,588.78Z"/></svg>