<svg id="Layer_1" data-name="Layer 1" xmlns="http://www.w3.org/2000/svg" viewBox="0 0 1000 1000"><defs><style>.cls-1{fill:#ff0;}.cls-2{fill:#ffe610;}.cls-3{fill:#4d1f03;stroke:#be894a;}.cls-3,.cls-6{stroke-miterlimit:10;stroke-width:2.61px;}.cls-4{fill:#63300f;}.cls-5{fill:#be894a;}.cls-6,.cls-7{fill:none;}.cls-6{stroke:#63300f;}.cls-8{fill:#a0642f;}.cls-9{fill:#26120b;}.cls-10{fill:#fff;}.cls-11{fill:#c2000b;}.cls-12{fill:#80c41c;}.cls-13{fill:#ff8000;}</style></defs><title>monkey 14</title><path class="cls-1" d="M115.53,520.72c13.49-14.12,53.93,5.46,84.05,30.84s46.93,48.63,38.31,57.64S211,590.84,177.65,569C139.23,543.89,106.91,529.74,115.53,520.72Z"/><path class="cls-2" d="M118.27,517.85c13.49-14.12,59.9-.78,90,24.6s38.22,57.74,29.6,66.75-18.21-27.46-51.53-49.28C147.94,534.78,109.66,526.87,118.27,517.85Z"/><path class="cls-3" d="M118.27,517.85c3.38-3.54,7.36-5.37,8.87-4.09s0,5.19-3.37,8.73-7.35,5.37-8.87,4.09S114.89,521.39,118.27,517.85Z"/><path class="cls-3" d="M107.88,509.1c1.52-1.59,3.64-2.11,4.75-1.17s.79,3-.72,4.56-3.64,2.11-4.75,1.17S106.37,510.68,107.88,509.1Z"/><path class="cls-4" d="M110.12,510.56c1-1.06,4.33.18,7.4,2.77s4.74,5.54,3.73,6.6-4.32-.18-7.4-2.77S109.11,511.62,110.12,510.56Z"/><path class="cls-1" d="M101.35,518.3c19.76-1.11,31.41,40.48,31.78,79.3s-6.41,67.08-19,67.79-3.66-31.56-8.89-70C99.18,551.16,88.72,519,101.35,518.3Z"/><path class="cls-2" d="M105.36,518.07c19.76-1.11,40.16,40,40.52,78.82s-19.16,67.79-31.78,68.5,9.1-32.28,3.87-70.67C111.93,550.45,92.74,518.78,105.36,518.07Z"/><path class="cls-3" d="M105.36,518.07c5-.28,9,1.09,9,3s-4,3.78-8.93,4-9-1.08-9-3S100.41,518.35,105.36,518.07Z"/><path class="cls-3" d="M101.42,509.36c3-.09,5.55,1.38,5.63,3.28s-2.33,3.54-5.37,3.63-5.55-1.37-5.62-3.28S98.38,509.46,101.42,509.36Z"/><path class="cls-4" d="M102,512.8c2-.06,3.83,4.16,4,9.44s-1.28,9.61-3.31,9.67-3.84-4.16-4-9.44S100,512.87,102,512.8Z"/><path class="cls-5" d="M127.29,723.85c-21.05-19.55-48.2-37.9-71.05-53.52-34.38-22-57.21-18.25-25.51,19.26-27.56,6.78-23.93,18.24-6.48,45.64-21.46,5.59-.64,28,15.2,37.13,18.77,10,41.59,6.26,59.67,5.62,25.76-2.85,68.69-14,32.47-51.39"/><path class="cls-5" d="M131.9,719.23C116,704.68,98.63,691.84,81,679.45c-15.5-10.88-31.14-22.88-49.67-28-7.33-2-18.83-1.87-21.49,7.12-3.83,13,8.89,26.64,16.3,35.65L29,683.3c-10.32,2.75-22.23,7-24.6,18.73-2.55,12.64,8,26.61,14.21,36.49l3.9-9.58c-21.24,7.2-13.3,25.76-1,38,20.34,20.29,47.27,19.23,73.94,17.71,16.85-1,35.31-4.51,48.6-15.55,16.79-13.93,3.39-35-7.84-47.14-5.72-6.18-14.93,3.07-9.23,9.23,8,8.6,18.35,21.37,5.58,30.42-8.65,6.13-20.76,8.17-31,9.55-14.35,1.92-30.32,2.56-44.61.27-9-1.45-16.66-5.68-23.62-11.41C29.52,757,15.65,745,26,741.52c3.85-1.3,6.26-5.84,3.9-9.58-4.78-7.58-10-15.26-12.44-24-2.37-8.38,9.29-10.56,15-12.09,5.1-1.36,5.89-7.24,2.88-10.9a116.72,116.72,0,0,1-10.48-14.66c-1.71-2.88-4.38-6.84-1.59-7C33.39,662.86,44.82,670.93,53,676a480.53,480.53,0,0,1,69.72,52.49c6.21,5.65,15.46-3.55,9.23-9.24Z"/><path class="cls-4" d="M196.47,624.08c-8.5,4.07-7.23,16,2.85,26.76l2.79,3c10.08,10.71,25.14,16.09,33.64,12l134.19-64.25c8.5-4.07,7.23-16.06-2.84-26.77l-2.8-3c-10.07-10.71-25.13-16.09-33.64-12Z"/><path class="cls-4" d="M95.91,731.4c-5.77,6.58-.82,19.52,11,28.89l3.29,2.61c11.86,9.38,26.15,11.64,31.91,5.06L233.07,664.1c5.77-6.59.82-19.53-11-28.9l-3.29-2.61c-11.86-9.37-26.15-11.64-31.91-5.06Z"/><path class="cls-5" d="M80.59,549.28c.47,2.83-3.44,6.8-8.73,8.86h0c-5.29,2.06-10,1.43-10.42-1.4l-5.53-33.82c-.46-2.83,3.45-6.8,8.74-8.86h0c5.29-2.06,9.95-1.43,10.42,1.4Z"/><path class="cls-5" d="M105.29,555.38c.46,2.83-3.45,6.8-8.74,8.86h0c-5.29,2.06-10,1.44-10.41-1.39L80.61,529c-.46-2.84,3.45-6.81,8.74-8.87h0c5.29-2.06,10-1.43,10.41,1.4Z"/><path class="cls-5" d="M59.37,524.08c.46,2.84-3.45,6.8-8.74,8.86h0c-5.29,2.07-10,1.44-10.41-1.39l-5.53-33.82c-.46-2.83,3.45-6.8,8.74-8.86h0c5.29-2.06,10-1.44,10.41,1.39Z"/><path class="cls-5" d="M48.81,490.57c.46,2.83-3.45,6.8-8.74,8.86h0c-5.29,2.06-9.95,1.44-10.41-1.39l-5.53-33.82c-.46-2.84,3.45-6.8,8.74-8.87h0c5.29-2.06,10-1.43,10.42,1.4Z"/><path class="cls-5" d="M141.4,513.81c1.79,2.78-.32,6.88-4.71,9.15h0c-4.38,2.27-9.39,1.85-11.18-.93l-21.34-33.27c-1.78-2.79.32-6.89,4.71-9.16h0c4.39-2.27,9.39-1.85,11.18.94Z"/><path class="cls-4" d="M192.21,363.72c-7.65,3.32-10.33,12.29-6,20l1.21,2.16c4.35,7.76,14.07,11.36,21.72,8.05L329.8,341.73c7.65-3.31,10.33-12.28,6-20l-1.21-2.16c-4.35-7.76-14.07-11.36-21.72-8Z"/><path class="cls-4" d="M83.85,447.38c-6.34,5.12-6.55,14.7-.45,21.41l1.7,1.86c6.09,6.71,16.17,8,22.51,2.87l100.06-80.77c6.34-5.12,6.54-14.71.44-21.41l-1.69-1.87c-6.1-6.7-16.18-8-22.52-2.87Z"/><path class="cls-5" d="M35.18,476A10.74,10.74,0,0,1,23,469.2h0a8.07,8.07,0,0,1,5.77-10.94l59-13.59A10.74,10.74,0,0,1,100,451.49h0a8.07,8.07,0,0,1-5.77,10.94Z"/><path class="cls-5" d="M69.87,527.24c-3.44,3.41-9.44,3.16-13.41-.54h0c-4-3.71-4.4-9.48-1-12.89l41-40.67c3.43-3.41,9.44-3.17,13.4.54h0c4,3.71,4.4,9.47,1,12.88Z"/><path class="cls-5" d="M50.22,508.88c-4.15,2.62-10.12,1.26-13.34-3h0c-3.22-4.3-2.48-9.91,1.67-12.53L88,462c4.15-2.62,10.12-1.26,13.34,3h0c3.22,4.3,2.48,9.91-1.67,12.53Z"/><path class="cls-5" d="M98.33,538.05c-1.78,4.51-7.23,6.35-12.17,4.11h0c-4.93-2.24-7.48-7.71-5.7-12.22l21.34-53.83c1.79-4.51,7.24-6.35,12.18-4.11h0c4.93,2.24,7.48,7.72,5.69,12.22Z"/><path class="cls-5" d="M122.19,495.22c-14.28,12.28-37.48,10.07-51.8-4.93s-14.37-37.1-.08-49.38,37.47-10.07,51.8,4.93S136.47,483,122.19,495.22Z"/><path class="cls-4" d="M448.09,591.46l-5.22,5.22c-2.61,2.6-7.83,0-10.44-5.22-7.82-67.84,31.31-133.07,80.89-177.42,28.7-23.49,60-39.14,96.53-44.36,49.58-5.22,91.32,18.26,133.07,44.36,5.22,2.61,13.05,5.21,18.26,7.82,47,18.27,99.15,2.61,138.29-26.09C951.65,354,975.13,291.41,983,226.18c7.83,0,15.66,7.83,15.66,15.65,0,33.92-13,65.23-26.1,93.93-5.21,7.83-7.82,15.66-13,23.48-33.92,57.41-96.54,96.54-161.77,93.93-44.35,0-88.71-18.26-122.63-49.57-47-18.26-99.14-7.83-140.89,20.87-36.53,28.7-60,65.23-75.67,107-2.6,10.43-2.6,18.26-7.82,28.7-2.61,10.43-2.61,20.87-2.61,31.31Z"/><path class="cls-6" d="M448.09,591.46l-5.22,5.22c-2.61,2.6-7.83,0-10.44-5.22-7.82-67.84,31.31-133.07,80.89-177.42,28.7-23.49,60-39.14,96.53-44.36,49.58-5.22,91.32,18.26,133.07,44.36,5.22,2.61,13.05,5.21,18.26,7.82,47,18.27,99.15,2.61,138.29-26.09C951.65,354,975.13,291.41,983,226.18c7.83,0,15.66,7.83,15.66,15.65,0,33.92-13,65.23-26.1,93.93-5.21,7.83-7.82,15.66-13,23.48-33.92,57.41-96.54,96.54-161.77,93.93-44.35,0-88.71-18.26-122.63-49.57-47-18.26-99.14-7.83-140.89,20.87-36.53,28.7-60,65.23-75.67,107-2.6,10.43-2.6,18.26-7.82,28.7-2.61,10.43-2.61,20.87-2.61,31.31Z"/><path class="cls-5" d="M720.82,718.62c19.16-21.4,44.5-42.18,65.82-59.83,32.22-25,55.28-23.44,27.17,16.83,28.07,4.21,25.51,16,10.66,44.85,21.89,3.59,3.22,27.86-11.71,38.38-17.78,11.64-40.85,10-58.91,11.08-25.91-.46-69.68-7.64-37.06-48.18"/><path class="cls-5" d="M725.43,723.23c19.08-20.94,40.82-39.11,62.59-57.15,8.74-7.23,18.82-14.53,30-17.2,3.69-.88,1.69,1.86.54,5.39-2.13,6.47-6.63,12.49-10.41,18.06-2.21,3.27-.13,8.9,3.9,9.58,5.28.9,16.23,1.65,16.78,8.71.68,8.8-6.24,19.11-10,26.55-1.84,3.61-.4,8.57,3.9,9.58,16.79,4-17.39,29.12-22.94,31.33-15,6-34.52,5.81-50.55,5.17-10.08-.4-20.72-1.78-29.84-6.35-14.75-7.39-4-22.73,3-31.86,5.14-6.67-6.21-13.15-11.26-6.59-10.58,13.75-19.48,33.22-3.25,46.42,12.84,10.44,33.74,12.16,49.62,11.4,27.2-1.29,51.84-2.37,71.6-23.35,11.63-12.36,19-33.59-2.92-38.75q1.95,4.79,3.89,9.58c5.26-10.34,14.06-24.45,11.43-36.7s-15-15.88-26-17.72l3.9,9.58c6-8.93,17.2-23.81,12.51-35.56-3.61-9.05-13.93-8.3-21.66-5.87-15.88,5-29,17.24-41.46,27.64-18.42,15.34-36.47,31.15-52.63,48.89-5.65,6.2,3.54,15.46,9.22,9.22Z"/><path class="cls-4" d="M641.67,626.34c8.75,3.39,8.87,15.11.27,26.17l-2.39,3.07c-8.59,11.07-22.65,17.29-31.39,13.9L470.2,616c-8.74-3.39-8.86-15.11-.27-26.17l2.39-3.07c8.6-11.07,22.65-17.29,31.4-13.9Z"/><path class="cls-4" d="M751.78,723.84c6.36,6,3,18.89-7.46,28.78l-2.92,2.75c-10.48,9.89-24.13,13-30.49,7L610.58,667.61c-6.36-6-3-18.89,7.46-28.78l2.91-2.75c10.48-9.88,24.14-13,30.5-7Z"/><path class="cls-5" d="M549.67,577.45c-3.3,1.27-4.07,6.09-1.73,10.75h0c2.34,4.67,6.91,7.41,10.21,6.14l39.4-15.18c3.3-1.28,4.08-6.09,1.74-10.75h0c-2.34-4.67-6.92-7.42-10.22-6.15Z"/><path class="cls-4" d="M606.89,431.15c4.49,7.58,1.11,16.91-7.53,20.84l-2.4,1.1c-8.65,3.93-19.3,1-23.78-6.6L502.37,326.91c-4.49-7.58-1.12-16.91,7.53-20.84l2.4-1.1c8.65-3.93,19.3-1,23.78,6.6Z"/><path class="cls-4" d="M647.26,569.94c2.22,8.32-3.66,16.64-13.15,18.58l-2.64.54c-9.48,2-19-3.21-21.19-11.53l-35-131.17c-2.22-8.31,3.66-16.63,13.15-18.58l2.64-.54c9.48-1.95,19,3.22,21.19,11.53Z"/><path class="cls-5" d="M684,637.63a11.54,11.54,0,0,0,14.76,1.71h0c4.61-3.1,5.48-8.89,1.95-12.93l-42.23-48.28a11.54,11.54,0,0,0-14.76-1.71h0c-4.61,3.1-5.48,8.89-2,12.93Z"/><path class="cls-5" d="M614.7,663c.8,5,6.12,8.57,11.88,7.86h0c5.76-.7,9.78-5.37,9-10.41L626,600.19c-.81-5-6.13-8.56-11.88-7.86h0c-5.76.71-9.78,5.37-9,10.41Z"/><path class="cls-5" d="M650.93,658.11c1.91,4.81,7.91,7.36,13.4,5.68h0c5.49-1.67,8.39-6.93,6.48-11.74L648,594.6c-1.91-4.82-7.91-7.36-13.4-5.69h0c-5.5,1.68-8.4,6.94-6.49,11.75Z"/><path class="cls-5" d="M566.11,651.07c-1.31,5,2.21,9.92,7.88,11.07h0c5.66,1.15,11.32-1.94,12.63-6.9L602.28,596c1.32-5-2.21-9.92-7.88-11.07h0c-5.66-1.15-11.32,1.94-12.63,6.9Z"/><path class="cls-5" d="M584,587c4.54,19.36,25.89,31.88,47.71,28s35.82-22.79,31.29-42.15-25.89-31.88-47.7-28S579.48,567.67,584,587Z"/><path class="cls-4" d="M558.92,448.64C586.69,602,495.39,628.31,417,628.31c-148.64,0-141.89-85.31-141.89-179.67C275.14,349.42,338.67,269,417,269S541.14,350.47,558.92,448.64Z"/><path class="cls-4" d="M586,187.08a149.3,149.3,0,0,1-14.32,63.84A152.28,152.28,0,0,1,561.63,269c-28,43.33-77.65,73.17-135,76.64-3.71.22-7.45.34-11.22.34s-7.51-.12-11.22-.34c-56.1-3.4-104.8-32.05-133.13-73.88a154.22,154.22,0,0,1-11.91-20.86A149.42,149.42,0,0,1,254.8,133.5a154.9,154.9,0,0,1,21.94-38.94c31-40.2,81.55-66.39,138.7-66.39s107.74,26.19,138.7,66.39a154.9,154.9,0,0,1,21.94,38.94A149,149,0,0,1,586,187.08Z"/><path class="cls-7" d="M417.59,220.17a90.3,90.3,0,0,1-15.16,22.45,90.67,90.67,0,0,1,15.16,22.45,90.64,90.64,0,0,1,15.15-22.45A90.54,90.54,0,0,1,417.59,220.17Z"/><path class="cls-5" d="M563.62,176.08A104.88,104.88,0,0,0,561,152.47a95,95,0,0,0-19.58-39.86C527.23,95.8,507.51,85.36,485.7,85.36c-29.3,0-54.81,18.82-68.11,46.64-13.31-27.82-38.82-46.64-68.11-46.64-21.81,0-41.53,10.44-55.67,27.25a94.9,94.9,0,0,0-19.58,39.86,104.31,104.31,0,0,0-2.68,23.61c0,26.3,9.61,50,25,66.54a91.57,91.57,0,0,0-18,29.16,163.26,163.26,0,0,0,127,73.88c3.54.22,7.11.34,10.7.34s7.16-.12,10.7-.34A163.2,163.2,0,0,0,555.58,269a91.07,91.07,0,0,0-16.92-26.4C554,226.05,563.62,202.38,563.62,176.08Zm-146,89c-.46-.95-.93-1.9-1.42-2.83a90.76,90.76,0,0,0-5.42-9.11q-2.37-3.51-5-6.74l-1.08-1.29c-.72-.84-1.46-1.67-2.21-2.48.75-.81,1.49-1.64,2.21-2.48l1.08-1.28q2.65-3.24,5-6.75a93,93,0,0,0,6.84-11.93,90.67,90.67,0,0,0,15.15,22.44q-1.69,1.83-3.28,3.77c-1.07,1.29-2.1,2.61-3.09,4-.34.44-.66.91-1,1.36a92.64,92.64,0,0,0-5.42,8.7h0l-.79,1.46-.81,1.6C418.09,264,417.84,264.55,417.59,265.07Z"/><ellipse class="cls-5" cx="409.36" cy="217.49" rx="57.78" ry="45.06"/><ellipse class="cls-4" cx="233.57" cy="187.08" rx="37.99" ry="74.86"/><ellipse class="cls-4" cx="351.58" cy="190.21" rx="37.99" ry="74.86"/><ellipse class="cls-8" cx="364.21" cy="190.21" rx="25.36" ry="47.28"/><ellipse class="cls-9" cx="369.32" cy="190.21" rx="17.74" ry="30.86"/><ellipse class="cls-4" cx="477.27" cy="190.21" rx="37.99" ry="74.86"/><ellipse class="cls-8" cx="464.64" cy="187.08" rx="25.36" ry="47.28"/><ellipse class="cls-4" cx="601.61" cy="180.31" rx="37.99" ry="74.86"/><ellipse class="cls-8" cx="601.61" cy="180.31" rx="26.52" ry="53.76"/><ellipse class="cls-8" cx="233.57" cy="187.08" rx="26.52" ry="53.76"/><ellipse class="cls-9" cx="459.52" cy="187.08" rx="17.74" ry="30.86"/><ellipse class="cls-10" cx="369.32" cy="172.43" rx="6.45" ry="8.54"/><ellipse class="cls-10" cx="459.52" cy="170.51" rx="6.45" ry="8.54"/><path class="cls-4" d="M386,76c9.35-18.47,8.38-34.78-12.31-48.11-.41-1.18-.71-2.34-1-3.46l-3.41-13.35,10.35,11.81c.87,1,1.77,2,2.81,3,23.28,11.1,44,24.11,34.87,42.68-2,2.64-16.94,4.33-25.94,6.19Z"/><path class="cls-4" d="M403.67,79.8c10.94-18.52,12.81-36.24-2.44-53.68-.15-1.33-.21-2.63-.27-3.88-.39-8.73-.67-14.9-.67-14.9s2.81,5.9,6.78,14.26c.57,1.2,1.16,2.44,1.87,3.72,17.81,15.41,33.15,32.51,22.36,51.17-2.09,2.55-15,2.15-22.91,2.81Z"/><path class="cls-4" d="M386.88,66.33c31.74-14.2,47.19-30.18,32.7-50.62A38.38,38.38,0,0,1,421.77,12l9.08-14s.81,6.27,2,15.14a34.31,34.31,0,0,0,.69,4c20.32,19.27,35.22,39.43,3.65,53.8-5.39,1.8-27.54-2.16-41.73-3.72Z"/><path class="cls-5" d="M504,265.07c7.78,21.19,20.44,34.72,43.24,34.58,1.13.78,2.18,1.62,3.18,2.42l12,9.6-15.2-4.36c-1.27-.37-2.6-.75-4-1.06-22.77,3.53-45.37,4-53.36-17.2-.72-3.38,7.42-13.26,11.68-19.93Z"/><path class="cls-5" d="M484.47,271.81c7.79,21.19,20.45,34.72,43.25,34.58,1.13.78,2.18,1.62,3.18,2.42l12,9.6-15.2-4.36c-1.28-.37-2.6-.75-4-1.06-22.77,3.52-45.37,4-53.36-17.2-.72-3.38,7.41-13.26,11.68-19.93C483.49,273.43,484.47,271.81,484.47,271.81Z"/><path class="cls-5" d="M501.72,271.81c-7.06,23.42-4.14,40.69,18,47.41.55,1.12,1,2.27,1.4,3.37,2.93,7.71,5,13.16,5,13.16l-11.68-8.92c-1-.75-2-1.53-3.16-2.26-24.43-3.35-46.56-9.71-39.71-33.17,1.63-3.58,16.29-11,25-16.31Z"/><path class="cls-5" d="M343.7,277.34c-9.73,20.5-23.61,33-46.31,31.06-1.2.69-2.32,1.44-3.4,2.17l-12.85,8.62L296.7,316c1.3-.26,2.65-.54,4.1-.74,22.36,5.3,44.84,7.51,54.77-13,1-3.32-6.15-13.8-9.78-20.78C344.54,279,343.7,277.34,343.7,277.34Z"/><path class="cls-5" d="M362.51,285.58c-9.74,20.5-23.61,33-46.32,31.06-1.2.69-2.32,1.44-3.39,2.17l-12.86,8.62,15.56-3.16c1.3-.26,2.66-.54,4.1-.74,22.36,5.3,44.84,7.51,54.77-12.95,1-3.32-6.15-13.8-9.78-20.78Z"/><path class="cls-5" d="M345.33,284.22c4.85,23.9.33,40.87-22.34,45.83-.66,1.07-1.2,2.18-1.72,3.24L315.07,346l12.48-8c1-.67,2.13-1.36,3.35-2,24.65-1.42,47.31-6,42.67-29.93-1.29-3.7-15.21-12.19-23.39-18.21Z"/><path class="cls-11" d="M476.49,285.52c0,13.75-7.59,26.13-19.71,34.77-10.89,7.76-25.44,12.51-41.4,12.51s-30.52-4.75-41.41-12.51c-12.11-8.64-19.69-21-19.69-34.77a36.78,36.78,0,0,1,1.05-8.79l.18-.72c14.24,12.25,35.38,20,59,20,24.4,0,46.17-8.3,60.4-21.27.21.73.41,1.47.58,2.22A36.81,36.81,0,0,1,476.49,285.52Z"/><path class="cls-10" d="M475.48,277c-2.48,10.18-9.18,19.2-18.64,25.94-10.89,7.76-25.43,12.51-41.41,12.51s-30.51-4.75-41.4-12.51c-9.53-6.8-16.27-15.92-18.7-26.19l.18-.72c14.23,12.25,35.37,20,59,20,24.4,0,46.17-8.3,60.39-21.27C475.11,275.49,475.31,276.23,475.48,277Z"/><path class="cls-5" d="M521.09,496.56c36.06,55.56-49.2,107.76-105.59,106.38s-131.84-56.57-98.63-111.39C369.32,405,374.2,384,422.46,385.17S475,425.58,521.09,496.56Z"/><path class="cls-1" d="M608.07,723.82c11.68,29.25-39.12,66.79-92,86s-94.87,22.57-102.33,3.89S455,793,504.74,766.7C562.08,736.35,600.62,705.15,608.07,723.82Z"/><path class="cls-2" d="M610.44,729.77c11.68,29.25-34,79.72-86.79,98.93s-102.41,3.69-109.86-15,48.74-1.79,98.48-28.13C569.62,755.23,603,711.09,610.44,729.77Z"/><path class="cls-3" d="M610.44,729.77c2.93,7.33,3.14,14.06.48,15s-7.2-4.19-10.12-11.52-3.14-14.06-.48-15S607.52,722.44,610.44,729.77Z"/><path class="cls-3" d="M628.66,723.15c1.31,3.28.79,6.51-1.16,7.22s-4.58-1.38-5.89-4.66-.8-6.51,1.15-7.22S627.35,719.87,628.66,723.15Z"/><path class="cls-4" d="M625.33,724.92c.88,2.2-2.78,5.56-8.17,7.52s-10.47,1.77-11.34-.42,2.78-5.56,8.17-7.52S624.45,722.73,625.33,724.92Z"/><path class="cls-1" d="M199.65,774c8.95-21.53,63.28-10.18,108.54,11.53s74.55,44.94,68.84,58.69-38.53-14.09-85.82-30.41C236.69,795,193.94,787.76,199.65,774Z"/><path class="cls-2" d="M201.47,769.64c8.95-21.52,67.23-19.69,112.5,2s68.77,58.83,63.06,72.58-32.76-28-80-44.31C242.47,781.12,195.76,783.39,201.47,769.64Z"/><path class="cls-3" d="M201.47,769.64c2.25-5.39,5.92-8.88,8.2-7.79s2.32,6.36.07,11.76-5.91,8.88-8.19,7.78S199.23,775,201.47,769.64Z"/><ellipse class="cls-3" cx="193.51" cy="770.72" rx="6.47" ry="4.47" transform="translate(-589 632.41) rotate(-65.88)"/><ellipse class="cls-4" cx="205.01" cy="775.28" rx="4.33" ry="12.36" transform="translate(-586.37 645.61) rotate(-65.88)"/><ellipse class="cls-11" cx="404.84" cy="732.97" rx="43.89" ry="39.97" transform="translate(-283.35 255.96) rotate(-26.36)"/><path class="cls-12" d="M409,689.59c-7.84,11.31-21.7,14.31-21.7,14.31s-1.14-15.34,6.69-26.65,21.7-14.3,21.7-14.3S416.84,678.29,409,689.59Z"/><path class="cls-12" d="M371.14,712.82c-9.89.29-18.63-6.62-18.63-6.62s7.29-7.38,17.17-7.66,18.63,6.62,18.63,6.62S381,712.54,371.14,712.82Z"/><path class="cls-13" d="M692.19,868.33c-6.3,29.54-37.48,48.37-69.64,42s-53.13-35.4-46.83-65,37.48-48.37,69.64-42S698.48,838.78,692.19,868.33Z"/><path class="cls-12" d="M674.93,813.27c-17.88,5.76-35.13-2.47-35.13-2.47s11.74-17.57,29.62-23.33,35.12,2.47,35.12,2.47S692.81,807.51,674.93,813.27Z"/><path class="cls-12" d="M615.1,807.08c-10.74-7.87-14.19-22.6-14.19-22.6s14-2,24.71,5.92S639.81,813,639.81,813,625.85,815,615.1,807.08Z"/><path class="cls-9" d="M998.62,549.6l6.84-2.38c4.48-1.56,11-3.84,19.35-6.86,31.39-9.53,26.61-53.35,42.72-78.63,2.19-5.63,8.78-10.51,15-10.46,56.75,2.62,114.25,31.37,169.7,10,4.93-1.71,9.88-3.42,14.89-5.13l45.06-15.69c5.39-1.87,10.79-3.75,16.24-5.49,28.36-10.27,59.12,6.95,87.32,10.73,43.21,5.32,48.68-56.77,85.93-70.56,4.7-2.18,9.51-3.92,14.27-5.58l174.61-60.76L1519,378.54a126.79,126.79,0,0,0-14,6.45c-31.85,17.45-36.22,64.72-66.61,78.58-32.22,14.54-68.48-24.61-103.59-9.91-5.38,1.94-10.68,4.1-16,6.25l-29.61,12c-5,2-9.91,4-14.85,5.92-59.32,33.89-127.82-26.73-180.9,5.29-22.33,13.22-5.47,74.09-43.29,85.73-4.88,2.22-9.44,4.08-13.56,5.75l-25.82,10.49Z"/></svg>