<svg id="publicdomainvectors.org" xmlns="http://www.w3.org/2000/svg" viewBox="0 0 660 540.66"><defs><style>.cls-1{fill:#87b8e3;}.cls-2{fill:#fff;}.cls-10,.cls-11,.cls-12,.cls-13,.cls-14,.cls-18,.cls-19,.cls-2,.cls-21,.cls-22,.cls-23,.cls-24,.cls-25,.cls-26,.cls-27,.cls-3,.cls-4,.cls-7,.cls-8,.cls-9{fill-rule:evenodd;}.cls-3{fill:#bad532;}.cls-4,.cls-5{fill:#fedd30;}.cls-6{fill:#cfdf61;}.cls-7{fill:#a09ea5;}.cls-15,.cls-8{fill:#938e97;}.cls-9{fill:#7d7a81;}.cls-10,.cls-29{fill:#6e6a71;}.cls-11{fill:#c4c1c7;}.cls-12{fill:#b2adb6;}.cls-13{fill:#69666c;}.cls-14{fill:#232026;}.cls-16{fill:#7c7580;}.cls-17{fill:#d3d0da;}.cls-18{fill:#b6b4be;}.cls-19{fill:#a64724;}.cls-20{fill:#c5c2cb;}.cls-21{fill:#a6a3ad;}.cls-22{fill:#f1edf6;}.cls-23{fill:#8a3b1d;}.cls-24{fill:#605b64;}.cls-25{fill:#504b55;}.cls-26,.cls-28{fill:#492c13;}.cls-27{fill:#663e17;}.cls-30{fill:#58555a;}</style></defs><title>castle-cartoon-publicdomainvectors.org</title><circle class="cls-1" cx="342.39" cy="262.5" r="243.95" transform="translate(-85.33 318.99) rotate(-45)"/><path class="cls-2" d="M286.81,252.85H83.31l41.65-6.4,3-11.32a20.33,20.33,0,0,1,39.31,0l2.67-10.33a30.1,30.1,0,0,1,58.3,0l4.67-5.75a24.34,24.34,0,0,1,42.93,11.51Z"/><path class="cls-2" d="M313.43,176.52H609.87l-60.66-9.33-4.37-16.5a29.62,29.62,0,0,0-57.27,0l-3.89-15.05a43.86,43.86,0,0,0-84.93,0L392,127.27A35.46,35.46,0,0,0,329.41,144Z"/><path class="cls-3" d="M79.13,529.53A60.19,60.19,0,0,1,119,437.76a92.78,92.78,0,0,1,119.8-60.68A74.74,74.74,0,0,1,366.34,359.3,85.22,85.22,0,0,1,492.93,429a74.77,74.77,0,0,1,83.85,100.56H437.54a73.74,73.74,0,0,1-4-14.54,85.31,85.31,0,0,1-99.72-39.15A75,75,0,0,1,299.17,480a92.52,92.52,0,0,1-25.38,49.55Z"/><path class="cls-4" d="M401.26,287.35h73.88c1,99.1,9.08,181.11,27.71,240.11H373.56C392.18,468.46,400.29,386.45,401.26,287.35Z"/><path class="cls-4" d="M456.4,287.35h18.74c1,99.1,9.08,181.11,27.71,240.11H470C460.87,468.46,456.88,386.45,456.4,287.35Z"/><path class="cls-4" d="M401.26,287.35h73.88q.24,24.54,1.08,47.65h0c-4.26-45.21-74.38-35.88-75.48-17.73h0Q401.12,302.59,401.26,287.35Z"/><path class="cls-4" d="M456.4,287.35h18.74c0,1.53,0,3,.05,4.57v.15c0,1.41,0,2.82.05,4.22v.6c0,1.39,0,2.77.07,4.15v.29c0,1.34.05,2.68.07,4l0,.82c0,1.1,0,2.2.07,3.3l0,1.57c0,.92,0,1.84.07,2.76l.05,2.15.05,2.15c0,.82.05,1.64.07,2.46l0,1.33,0,.73c0,.9.05,1.79.08,2.68v.26l0,.73v.18c0,1.16.07,2.31.11,3.46l0,.73v.11l.12,3.5h0l0,.72h0c-1.35-14.36-9.35-23.21-19.68-28Q456.45,297.27,456.4,287.35Z"/><polygon class="cls-4" points="390.7 224.65 485.7 224.65 489.92 289.29 386.49 289.29 390.7 224.65"/><polygon class="cls-4" points="461.12 224.65 485.7 224.65 489.92 289.29 464.16 289.29 461.12 224.65"/><path class="cls-4" d="M437.42,351.36h0a8.54,8.54,0,0,1,8.52,8.51v25.37h-17V359.87A8.54,8.54,0,0,1,437.42,351.36Z"/><path class="cls-4" d="M439,351.36h0a8.54,8.54,0,0,1,8.52,8.51v25.37h-17V359.87A8.54,8.54,0,0,1,439,351.36Z"/><path class="cls-4" d="M438.25,351.36h0a8.54,8.54,0,0,1,8.52,8.51v25.37h-17V359.87A8.54,8.54,0,0,1,438.25,351.36Z"/><path class="cls-4" d="M405.54,401.69h15.92v5H405.54v-5Zm13.51-59.19H435v5H419.05v-5Zm18-24.67H453v5H437v-5Zm-28.19,8.68h15.92v5H408.84v-5ZM389.62,506h15.92v5H389.62v-5Zm11.11-28.38h15.92v5H400.73v-5ZM437,451.12H453v5H437v-5Zm-44.11-8.57h15.92v5H392.92v-5Zm37.32-22h15.92v5H430.24Z"/><path class="cls-4" d="M398.41,236.59h15.91v5H398.41v-5Zm42.27,32.16H456.6v5H440.68v-5Zm-31.84,6.12h15.92v5H408.84v-5Zm15.92-28.13h15.92v5H424.76Z"/><rect class="cls-5" x="465.95" y="253.86" width="15.92" height="4.98"/><rect class="cls-5" x="460.3" y="368.3" width="15.92" height="4.98"/><rect class="cls-5" x="465.34" y="438.88" width="15.92" height="4.98"/><rect class="cls-5" x="406.37" y="170.1" width="63.67" height="54.55"/><path class="cls-4" d="M406.37,170.1H470v27C466,172.6,411.43,174,406.37,184.67Z"/><polygon class="cls-4" points="438.2 113.05 458.01 141.57 477.81 170.1 438.2 170.1 398.59 170.1 418.4 141.57 438.2 113.05"/><rect class="cls-5" x="452.06" y="170.1" width="17.98" height="54.55"/><path class="cls-4" d="M452.06,170.1h18v27c-1.39-8.4-8.74-13.75-18-16.72Z"/><path class="cls-4" d="M437.57,183.62h0a6.93,6.93,0,0,1,6.91,6.92v20.58H430.65V190.54A6.94,6.94,0,0,1,437.57,183.62Z"/><path class="cls-4" d="M438.84,183.62h0a6.93,6.93,0,0,1,6.91,6.92v20.58H431.93V190.54A6.93,6.93,0,0,1,438.84,183.62Z"/><path class="cls-4" d="M438.24,183.62h0a6.93,6.93,0,0,1,6.91,6.92v20.58H431.33V190.54A6.93,6.93,0,0,1,438.24,183.62Z"/><polygon class="cls-4" points="438.2 113.05 452.06 170.1 477.81 170.1 438.2 113.05"/><rect class="cls-5" x="408.85" y="214.33" width="15.92" height="4.98"/><rect class="cls-5" x="412" y="189.72" width="15.92" height="4.98"/><path class="cls-4" d="M179.21,303.3h69c.91,92.52,8.48,169.08,25.87,224.16H153.34C170.73,472.38,178.3,395.82,179.21,303.3Z"/><path class="cls-4" d="M230.68,303.3h17.5c.91,92.52,8.48,169.08,25.87,224.16H243.42C234.86,472.38,231.13,395.82,230.68,303.3Z"/><path class="cls-4" d="M179.21,303.3h69q.23,22.9,1,44.49h0c-4-42.21-69.44-33.5-70.47-16.56h0Q179.07,317.52,179.21,303.3Z"/><path class="cls-4" d="M230.68,303.3h17.5c0,1.42,0,2.85,0,4.26v.15c0,1.31,0,2.63.05,3.94v.56l.06,3.87v.27l.06,3.75,0,.77.06,3.08,0,1.47c0,.86,0,1.72.05,2.58l0,2,.06,2c0,.76,0,1.53.06,2.3l0,1.24,0,.68c0,.84.05,1.67.08,2.5V339l0,.68v.18c0,1.07.07,2.15.11,3.22l0,.68v.1l.12,3.27h0l0,.68h0c-1.26-13.41-8.74-21.68-18.38-26.18Q230.72,312.56,230.68,303.3Z"/><polygon class="cls-4" points="169.35 244.76 258.04 244.76 261.98 305.11 165.41 305.11 169.35 244.76"/><polygon class="cls-4" points="235.09 244.76 258.04 244.76 261.98 305.11 237.93 305.11 235.09 244.76"/><path class="cls-4" d="M213,363.05h0a8,8,0,0,1,8,8v23.68H205V371A8,8,0,0,1,213,363.05Z"/><path class="cls-4" d="M214.43,363.05h0a8,8,0,0,1,7.95,8v23.68h-15.9V371A8,8,0,0,1,214.43,363.05Z"/><path class="cls-4" d="M213.74,363.05h0a8,8,0,0,1,7.95,8v23.68h-15.9V371A8,8,0,0,1,213.74,363.05Z"/><path class="cls-4" d="M183.21,410h14.86v4.65H183.21V410Zm12.6-55.25h14.86v4.65H195.81v-4.65Zm16.79-23h14.86v4.65H212.6v-4.65Zm-26.32,8.1h14.86v4.65H186.28v-4.65ZM168.34,507.41h14.87v4.65H168.34v-4.65Zm10.38-26.49h14.86v4.65H178.72v-4.65Zm33.88-24.73h14.86v4.65H212.6v-4.65Zm-41.18-8h14.86v4.65H171.42V448.2Zm34.84-20.53h14.87v4.65H206.26Z"/><path class="cls-4" d="M176.54,255.91H191.4v4.65H176.54v-4.65Zm39.47,30h14.86v4.65H216v-4.65Zm-29.73,5.71h14.86v4.65H186.28v-4.65Zm14.86-26.26H216V270H201.14Z"/><rect class="cls-5" x="239.6" y="272.04" width="14.86" height="4.65"/><rect class="cls-5" x="234.33" y="378.87" width="14.86" height="4.65"/><rect class="cls-5" x="239.03" y="444.76" width="14.86" height="4.65"/><rect class="cls-5" x="183.98" y="193.84" width="59.44" height="50.93"/><path class="cls-4" d="M184,193.84h59.44V219c-3.79-22.84-54.72-21.55-59.44-11.57Z"/><polygon class="cls-4" points="213.69 140.58 232.19 167.21 250.67 193.84 213.69 193.84 176.72 193.84 195.21 167.21 213.69 140.58"/><rect class="cls-5" x="226.63" y="193.84" width="16.78" height="50.93"/><path class="cls-4" d="M226.63,193.84h16.79V219c-1.3-7.84-8.16-12.84-16.79-15.61Z"/><path class="cls-4" d="M213.1,206.46h0a6.47,6.47,0,0,1,6.45,6.46v19.21h-12.9V212.92A6.47,6.47,0,0,1,213.1,206.46Z"/><path class="cls-4" d="M214.29,206.46h0a6.47,6.47,0,0,1,6.45,6.46v19.21h-12.9V212.92A6.47,6.47,0,0,1,214.29,206.46Z"/><path class="cls-4" d="M213.73,206.46h0a6.48,6.48,0,0,1,6.46,6.46v19.21H207.28V212.92A6.47,6.47,0,0,1,213.73,206.46Z"/><polygon class="cls-4" points="213.69 140.58 226.63 193.84 250.67 193.84 213.69 140.58"/><rect class="cls-5" x="186.29" y="235.13" width="14.86" height="4.65"/><rect class="cls-5" x="189.24" y="212.16" width="14.86" height="4.65"/><path class="cls-4" d="M273.39,221.86h94C368.66,348,379,452.37,402.69,527.46H238.13C261.83,452.37,272.16,348,273.39,221.86Z"/><path class="cls-4" d="M318.33,442.71h0A21.37,21.37,0,0,1,339.64,464v63.44H297V464A21.37,21.37,0,0,1,318.33,442.71Z"/><path class="cls-4" d="M343.56,221.86h23.87C368.66,348,379,452.37,402.69,527.46H360.93C349.26,452.37,344.18,348,343.56,221.86Z"/><path class="cls-4" d="M322.26,442.71h0A21.36,21.36,0,0,1,343.56,464v63.44H301V464A21.37,21.37,0,0,1,322.26,442.71Z"/><path class="cls-4" d="M273.39,221.86h94q.3,31.23,1.37,60.65h0c-5.42-57.55-94.67-45.67-96.08-22.57h0Q273.2,241.25,273.39,221.86Z"/><path class="cls-4" d="M343.56,221.86h23.87l.06,5.81v.2c0,1.79.05,3.59.07,5.37V234q0,2.66.09,5.28v.37c0,1.71.06,3.41.1,5.11l0,1.05c0,1.4.05,2.8.08,4.2l.05,2c0,1.17,0,2.35.08,3.52l.06,2.72.08,2.74c0,1.05.05,2.1.08,3.14l.05,1.69,0,.94c0,1.13.07,2.27.11,3.4v.33l0,.92v.24l.15,4.4,0,.93v.13c.05,1.5.1,3,.16,4.46v0l0,.92h0c-1.72-18.28-11.91-29.55-25.05-35.69Q343.63,234.49,343.56,221.86Z"/><polygon class="cls-4" points="259.95 142.05 380.87 142.05 386.23 224.33 254.59 224.33 259.95 142.05"/><polygon class="cls-4" points="349.58 142.05 380.87 142.05 386.23 224.33 353.45 224.33 349.58 142.05"/><rect class="cls-5" x="279.89" y="72.61" width="81.05" height="69.44"/><path class="cls-4" d="M279.89,72.61h81v34.33c-5.16-31.15-74.6-29.38-81-15.77Z"/><polygon class="cls-4" points="320.41 0 345.62 36.31 370.83 72.61 320.41 72.61 269.99 72.61 295.2 36.31 320.41 0"/><rect class="cls-5" x="338.04" y="72.61" width="22.89" height="69.44"/><path class="cls-4" d="M338,72.61h22.89v34.33c-1.77-10.69-11.11-17.5-22.89-21.29Z"/><path class="cls-4" d="M320.41,442.71h0A21.37,21.37,0,0,1,341.72,464v63.44H299.1V464A21.37,21.37,0,0,1,320.41,442.71Z"/><path class="cls-4" d="M324.65,450.6h0a17.12,17.12,0,0,1,17.07,17.07v59.79H307.58V467.67A17.12,17.12,0,0,1,324.65,450.6Z"/><rect class="cls-5" x="312.53" y="448.9" width="1.24" height="78.57"/><path class="cls-4" d="M323.57,448.9h-1.24v78.56h1.24Z"/><rect class="cls-5" x="332.13" y="448.9" width="1.24" height="78.57"/><path class="cls-4" d="M319.41,303.32h0a10.87,10.87,0,0,1,10.84,10.84v32.29H308.57V314.16A10.87,10.87,0,0,1,319.41,303.32Z"/><path class="cls-4" d="M321.41,303.32h0a10.87,10.87,0,0,1,10.84,10.84v32.29H310.57V314.16A10.87,10.87,0,0,1,321.41,303.32Z"/><path class="cls-4" d="M320.47,303.32h0a10.87,10.87,0,0,1,10.84,10.84v32.29H309.63V314.16A10.87,10.87,0,0,1,320.47,303.32Z"/><path class="cls-4" d="M319.6,89.83h0a8.83,8.83,0,0,1,8.8,8.8v26.2H310.8V98.63A8.83,8.83,0,0,1,319.6,89.83Z"/><path class="cls-4" d="M321.22,89.83h0a8.83,8.83,0,0,1,8.8,8.8v26.2h-17.6V98.63A8.83,8.83,0,0,1,321.22,89.83Z"/><path class="cls-4" d="M320.46,89.83h0a8.83,8.83,0,0,1,8.8,8.8v26.2h-17.6V98.63A8.83,8.83,0,0,1,320.46,89.83Z"/><polygon class="cls-4" points="320.41 0 338.05 72.61 370.83 72.61 320.41 0"/><rect class="cls-5" x="283.04" y="271.7" width="20.26" height="6.34"/><rect class="cls-5" x="318.92" y="260.66" width="20.26" height="6.34"/><rect class="cls-5" x="296.03" y="292.05" width="20.26" height="6.34"/><rect class="cls-5" x="278.84" y="367.38" width="20.26" height="6.34"/><rect class="cls-5" x="310.28" y="391.41" width="20.26" height="6.34"/><rect class="cls-5" x="262.78" y="419.4" width="20.26" height="6.34"/><rect class="cls-5" x="318.92" y="430.3" width="20.26" height="6.34"/><rect class="cls-5" x="272.72" y="464.02" width="20.26" height="6.34"/><rect class="cls-5" x="258.58" y="500.13" width="20.26" height="6.34"/><rect class="cls-5" x="269.76" y="157.25" width="20.26" height="6.34"/><rect class="cls-5" x="303.3" y="170.18" width="20.26" height="6.34"/><rect class="cls-5" x="283.04" y="205.97" width="20.26" height="6.34"/><rect class="cls-5" x="323.56" y="198.18" width="20.26" height="6.34"/><rect class="cls-5" x="283.04" y="128.92" width="20.26" height="6.34"/><rect class="cls-5" x="287.06" y="97.6" width="20.26" height="6.34"/><rect class="cls-5" x="355.73" y="179.24" width="20.26" height="6.34"/><rect class="cls-5" x="348.54" y="324.88" width="20.26" height="6.34"/><rect class="cls-5" x="354.95" y="414.71" width="20.26" height="6.34"/><ellipse class="cls-6" cx="330.28" cy="529.53" rx="286.43" ry="11.13"/><path class="cls-7" d="M403.45,289.41h73.88c1,99.11,9.08,181.11,27.7,240.12H375.74C394.37,470.52,402.47,388.52,403.45,289.41Z"/><path class="cls-8" d="M458.58,289.41h18.75c1,99.11,9.08,181.11,27.7,240.12h-32.8C463.05,470.52,459.06,388.52,458.58,289.41Z"/><path class="cls-9" d="M403.45,289.41h73.88q.24,24.54,1.08,47.66h0c-4.27-45.22-74.38-35.89-75.49-17.74h0Q403.3,304.65,403.45,289.41Z"/><path class="cls-10" d="M458.58,289.41h18.75c0,1.53,0,3,.05,4.57v.15c0,1.42,0,2.82.05,4.23V299c0,1.39,0,2.77.07,4.15v.29c0,1.34.05,2.68.08,4v.82c0,1.1,0,2.2.07,3.3l0,1.57c0,.92,0,1.85.06,2.77l.05,2.14.06,2.15.06,2.46,0,1.33,0,.74c0,.89.06,1.78.08,2.67v.26l0,.73v.19c0,1.15.07,2.3.11,3.45l0,.73v.11l.12,3.5h0l0,.73h0c-1.36-14.37-9.36-23.22-19.69-28Q458.63,299.34,458.58,289.41Z"/><polygon class="cls-11" points="392.88 226.71 487.89 226.71 492.11 291.36 388.67 291.36 392.88 226.71"/><polygon class="cls-12" points="463.3 226.71 487.89 226.71 492.11 291.36 466.34 291.36 463.3 226.71"/><path class="cls-13" d="M439.6,353.42h0a8.54,8.54,0,0,1,8.52,8.52V387.3h-17V361.94A8.55,8.55,0,0,1,439.6,353.42Z"/><path class="cls-7" d="M441.17,353.42h0a8.54,8.54,0,0,1,8.52,8.52V387.3h-17V361.94A8.55,8.55,0,0,1,441.17,353.42Z"/><path class="cls-14" d="M440.43,353.42h0a8.54,8.54,0,0,1,8.52,8.52V387.3h-17V361.94A8.54,8.54,0,0,1,440.43,353.42Z"/><path class="cls-8" d="M407.73,403.75h15.91v5H407.73v-5Zm13.5-59.19h15.92v5H421.23v-5Zm18-24.66h15.92v5H439.21v-5ZM411,328.57h15.92v5H411v-5ZM391.81,508.05h15.92v5H391.81v-5Zm11.11-28.38h15.92v5H402.92v-5Zm36.29-26.49h15.92v5H439.21v-5Zm-44.1-8.56H411v5H395.11v-5Zm37.32-22h15.92v5H432.43Z"/><path class="cls-12" d="M400.59,238.65h15.92v5H400.59v-5Zm42.27,32.16h15.92v5H442.86v-5ZM411,276.93h15.92v5H411v-5Zm15.92-28.12h15.92v5H426.94Z"/><rect class="cls-15" x="468.14" y="255.93" width="15.92" height="4.98"/><rect class="cls-16" x="462.49" y="370.36" width="15.91" height="4.98"/><rect class="cls-16" x="467.53" y="440.94" width="15.92" height="4.98"/><rect class="cls-17" x="408.55" y="172.16" width="63.67" height="54.55"/><path class="cls-18" d="M408.55,172.16h63.67v27c-4.05-24.46-58.61-23.08-63.67-12.38Z"/><polygon class="cls-19" points="440.39 115.12 460.19 143.64 480 172.16 440.39 172.16 400.77 172.16 420.58 143.64 440.39 115.12"/><rect class="cls-20" x="454.24" y="172.16" width="17.98" height="54.55"/><path class="cls-21" d="M454.24,172.16h18v27c-1.39-8.39-8.73-13.74-18-16.72Z"/><path class="cls-21" d="M439.75,185.69h0a6.93,6.93,0,0,1,6.91,6.91v20.58H432.84V192.6A6.93,6.93,0,0,1,439.75,185.69Z"/><path class="cls-22" d="M441,185.69h0a6.93,6.93,0,0,1,6.91,6.91v20.58H434.11V192.6A6.93,6.93,0,0,1,441,185.69Z"/><path class="cls-14" d="M440.43,185.69h0a6.93,6.93,0,0,1,6.91,6.91v20.58H433.51V192.6A6.93,6.93,0,0,1,440.43,185.69Z"/><polygon class="cls-23" points="440.39 115.12 454.24 172.16 480 172.16 440.39 115.12"/><rect class="cls-20" x="411.03" y="216.4" width="15.92" height="4.98"/><rect class="cls-20" x="414.19" y="191.79" width="15.92" height="4.98"/><path class="cls-7" d="M181.39,305.36h69c.9,92.52,8.48,169.08,25.86,224.17H155.53C172.91,474.44,180.49,397.88,181.39,305.36Z"/><path class="cls-8" d="M232.86,305.36h17.51c.9,92.52,8.48,169.08,25.86,224.17H245.6C237,474.44,233.31,397.88,232.86,305.36Z"/><path class="cls-9" d="M181.39,305.36h69q.23,22.92,1,44.49h0c-4-42.21-69.45-33.5-70.48-16.56h0Q181.26,319.58,181.39,305.36Z"/><path class="cls-10" d="M232.86,305.36h17.51c0,1.43,0,2.85,0,4.26v.15l.06,3.94v.56c0,1.3,0,2.59.07,3.87v.27c0,1.26.05,2.51.07,3.75v.77c0,1,0,2.06.07,3.08l0,1.47.06,2.58.05,2,0,2,.06,2.3,0,1.24,0,.69c0,.83.05,1.66.07,2.49V341l0,.68v.18c0,1.08.07,2.15.11,3.22l0,.68v.1c0,1.1.07,2.19.11,3.28h0l0,.68h0c-1.27-13.41-8.74-21.68-18.38-26.17Q232.91,314.62,232.86,305.36Z"/><polygon class="cls-11" points="171.53 246.82 260.22 246.82 264.16 307.18 167.6 307.18 171.53 246.82"/><polygon class="cls-12" points="237.27 246.82 260.22 246.82 264.16 307.18 240.11 307.18 237.27 246.82"/><path class="cls-13" d="M215.15,365.12h0a8,8,0,0,1,7.95,7.95v23.68H207.19V373.07A8,8,0,0,1,215.15,365.12Z"/><path class="cls-7" d="M216.61,365.12h0a8,8,0,0,1,7.95,7.95v23.68h-15.9V373.07A8,8,0,0,1,216.61,365.12Z"/><path class="cls-14" d="M215.92,365.12h0a8,8,0,0,1,8,7.95v23.68H208V373.07A8,8,0,0,1,215.92,365.12Z"/><path class="cls-8" d="M185.39,412.11h14.86v4.65H185.39v-4.65ZM198,356.85h14.86v4.65H198v-4.65Zm16.79-23h14.86v4.65H214.79v-4.65Zm-26.32,8.1h14.86v4.65H188.47v-4.65ZM170.53,509.47h14.86v4.66H170.53v-4.66ZM180.9,483h14.86v4.65H180.9V483Zm33.89-24.74h14.86v4.66H214.79v-4.66Zm-41.18-8h14.86v4.65H173.61v-4.65Zm34.84-20.53h14.86v4.65H208.45Z"/><path class="cls-12" d="M178.73,258h14.86v4.65H178.73V258Zm39.46,30h14.86v4.65H218.19V288Zm-29.72,5.71h14.86v4.65H188.47v-4.65Zm14.86-26.26h14.86v4.65H203.33Z"/><rect class="cls-15" x="241.79" y="274.1" width="14.86" height="4.65"/><rect class="cls-16" x="236.52" y="380.93" width="14.86" height="4.65"/><rect class="cls-16" x="241.22" y="446.82" width="14.86" height="4.65"/><rect class="cls-17" x="186.16" y="195.9" width="59.44" height="50.93"/><path class="cls-18" d="M186.16,195.9H245.6v25.17c-3.79-22.84-54.72-21.55-59.44-11.56Z"/><polygon class="cls-19" points="215.88 142.64 234.37 169.27 252.86 195.9 215.88 195.9 178.9 195.9 197.39 169.27 215.88 142.64"/><rect class="cls-20" x="228.81" y="195.9" width="16.78" height="50.93"/><path class="cls-21" d="M228.81,195.9H245.6v25.17c-1.3-7.84-8.15-12.83-16.79-15.61Z"/><path class="cls-21" d="M215.28,208.53h0a6.47,6.47,0,0,1,6.46,6.45V234.2H208.83V215A6.47,6.47,0,0,1,215.28,208.53Z"/><path class="cls-22" d="M216.47,208.53h0a6.47,6.47,0,0,1,6.46,6.45V234.2H210V215A6.47,6.47,0,0,1,216.47,208.53Z"/><path class="cls-14" d="M215.91,208.53h0a6.47,6.47,0,0,1,6.46,6.45V234.2H209.46V215A6.47,6.47,0,0,1,215.91,208.53Z"/><polygon class="cls-23" points="215.88 142.64 228.81 195.9 252.86 195.9 215.88 142.64"/><rect class="cls-20" x="188.47" y="237.2" width="14.86" height="4.65"/><rect class="cls-20" x="191.42" y="214.22" width="14.86" height="4.65"/><path class="cls-9" d="M275.58,223.92h94c1.24,126.13,11.56,230.51,35.26,305.61H240.31C264,454.43,274.34,350.05,275.58,223.92Z"/><path class="cls-13" d="M320.51,444.77h0a21.37,21.37,0,0,1,21.31,21.31v63.45H299.2V466.08A21.37,21.37,0,0,1,320.51,444.77Z"/><path class="cls-10" d="M345.75,223.92h23.86c1.24,126.13,11.56,230.51,35.26,305.61H363.12C351.44,454.43,346.36,350.05,345.75,223.92Z"/><path class="cls-7" d="M324.44,444.77h0a21.37,21.37,0,0,1,21.31,21.31v63.45H303.13V466.08A21.37,21.37,0,0,1,324.44,444.77Z"/><path class="cls-24" d="M275.58,223.92h94q.3,31.23,1.37,60.65h0C365.56,227,276.32,238.9,274.91,262h0Q275.4,243.31,275.58,223.92Z"/><path class="cls-25" d="M345.75,223.92h23.86l.06,5.81v.2c0,1.8.05,3.59.08,5.38v.75c0,1.77.05,3.53.08,5.29v.36l.09,5.11,0,1.05c0,1.4.06,2.81.09,4.2l0,2c0,1.18.05,2.35.08,3.52l.07,2.72.07,2.75c0,1,.05,2.09.08,3.13l.05,1.69,0,.94c0,1.13.07,2.27.1,3.4v.33l0,.93v.24c0,1.47.09,2.93.14,4.4l0,.92v.14c.06,1.49.11,3,.16,4.46h0l0,.92h0c-1.72-18.28-11.91-29.55-25.05-35.68Q345.81,236.55,345.75,223.92Z"/><polygon class="cls-7" points="262.14 144.12 383.05 144.12 388.42 226.4 256.77 226.4 262.14 144.12"/><polygon class="cls-8" points="351.76 144.12 383.05 144.12 388.42 226.4 355.63 226.4 351.76 144.12"/><rect class="cls-17" x="282.07" y="74.67" width="81.05" height="69.44"/><path class="cls-18" d="M282.07,74.67h81.05V109C358,77.86,288.51,79.62,282.07,93.23Z"/><polygon class="cls-19" points="322.59 2.06 347.8 38.37 373.02 74.67 322.59 74.67 272.17 74.67 297.38 38.37 322.59 2.06"/><rect class="cls-20" x="340.23" y="74.67" width="22.88" height="69.44"/><path class="cls-21" d="M340.23,74.67h22.89V109C361.35,98.31,352,91.5,340.23,87.71Z"/><path class="cls-26" d="M322.59,444.77h0a21.37,21.37,0,0,1,21.31,21.31v63.45H301.28V466.08A21.37,21.37,0,0,1,322.59,444.77Z"/><path class="cls-27" d="M326.83,452.66h0a17.12,17.12,0,0,1,17.07,17.07v59.8H309.76v-59.8A17.12,17.12,0,0,1,326.83,452.66Z"/><rect class="cls-28" x="314.71" y="450.96" width="1.24" height="78.57"/><ellipse class="cls-28" cx="325.14" cy="490.24" rx="0.87" ry="55.55"/><rect class="cls-28" x="334.32" y="450.96" width="1.24" height="78.57"/><path class="cls-13" d="M321.59,305.38h0a10.88,10.88,0,0,1,10.85,10.85v32.28H310.75V316.23A10.88,10.88,0,0,1,321.59,305.38Z"/><path class="cls-7" d="M323.59,305.38h0a10.88,10.88,0,0,1,10.84,10.85v32.28H312.75V316.23A10.88,10.88,0,0,1,323.59,305.38Z"/><path class="cls-14" d="M322.65,305.38h0a10.88,10.88,0,0,1,10.84,10.85v32.28H311.81V316.23A10.88,10.88,0,0,1,322.65,305.38Z"/><path class="cls-21" d="M321.78,91.9h0a8.82,8.82,0,0,1,8.8,8.79V126.9H313V100.69A8.82,8.82,0,0,1,321.78,91.9Z"/><path class="cls-22" d="M323.4,91.9h0a8.82,8.82,0,0,1,8.8,8.79V126.9H314.6V100.69A8.82,8.82,0,0,1,323.4,91.9Z"/><path class="cls-14" d="M322.64,91.9h0a8.82,8.82,0,0,1,8.8,8.79V126.9h-17.6V100.69A8.82,8.82,0,0,1,322.64,91.9Z"/><polygon class="cls-23" points="322.59 2.06 340.23 74.67 373.02 74.67 322.59 2.06"/><rect class="cls-29" x="285.22" y="273.76" width="20.26" height="6.34"/><rect class="cls-29" x="321.1" y="262.72" width="20.26" height="6.34"/><rect class="cls-29" x="298.21" y="294.11" width="20.26" height="6.34"/><rect class="cls-29" x="281.02" y="369.44" width="20.26" height="6.34"/><rect class="cls-29" x="312.46" y="393.47" width="20.26" height="6.34"/><rect class="cls-29" x="264.96" y="421.46" width="20.26" height="6.34"/><rect class="cls-29" x="321.1" y="432.36" width="20.26" height="6.34"/><rect class="cls-29" x="274.9" y="466.08" width="20.26" height="6.34"/><rect class="cls-29" x="260.76" y="502.19" width="20.26" height="6.34"/><rect class="cls-15" x="271.94" y="159.31" width="20.26" height="6.34"/><rect class="cls-15" x="305.48" y="172.24" width="20.26" height="6.34"/><rect class="cls-15" x="285.22" y="208.03" width="20.26" height="6.34"/><rect class="cls-15" x="325.74" y="200.25" width="20.26" height="6.34"/><rect class="cls-20" x="285.22" y="130.99" width="20.26" height="6.34"/><rect class="cls-20" x="289.24" y="99.66" width="20.26" height="6.34"/><rect class="cls-16" x="357.91" y="181.3" width="20.26" height="6.34"/><rect class="cls-30" x="350.72" y="326.95" width="20.26" height="6.34"/><rect class="cls-30" x="357.13" y="416.78" width="20.26" height="6.34"/></svg>