<?xml version="1.0" encoding="UTF-8" standalone="no"?>
<svg xmlns:rdf="http://www.w3.org/1999/02/22-rdf-syntax-ns#" xmlns="http://www.w3.org/2000/svg" height="1814pt" width="340pt" version="1.1" xmlns:cc="http://creativecommons.org/ns#" xmlns:dc="http://purl.org/dc/elements/1.1/" viewBox="0 0 340 1814">
<path fill="#a99c85" d="m170.93 0h8.08c0.43 8.18-1.11 16.57 0.51 24.66 4.28 0.57 8.8-0.34 12.99 0.87 1.08 2.75 1.67 7.14-1.41 8.8 0.86-4.27 2.4-10.95-5.4-8.2-18.35 5.09 0.37-26.49-13.53-25.31-3.1 7.62 0 16.79-1.4 25.01-4.53 0.86-10.02-1.42-14.03 1.37-2.99 10.31 8.45 5.7 14.13 7 0.14 10.79 0.55 21.61 0.04 32.38-0.95 0.59-1.91 1.13-2.9 1.63 4.97-8.18 0.7-18.97 2.01-28.02 3.59-11.37-16.1 0.05-15.11-9.16-2.71-9.92 9.78-4.6 14.63-6.41 1.52-8.11-0.69-16.56 1.39-24.62z"/>
<path fill="#f4a202" d="m172.17 0.82c13.9-1.18-4.82 30.4 13.53 25.31 7.8-2.75 6.26 3.93 5.4 8.2-3.76 1.48-8.13 0.09-12.04 0.75-4.8 6.84-1.22 22.23-1.87 32.24 12.51 5.47 10.15 21.65-0.92 27.17-1.82 0.04-3.64-0.08-5.45-0.09-13.1-2.13-15.47-21.76-2.81-26.19 0.99-0.5 1.95-1.04 2.9-1.63 0.51-10.77 0.1-21.59-0.04-32.38-5.68-1.3-17.12 3.31-14.13-7 4.01-2.79 9.5-0.51 14.03-1.37 1.4-8.22-1.7-17.39 1.4-25.01z"/>
<path fill="#b79e6d" d="m177.19 67.32c0.65-10.01-2.93-25.4 1.87-32.24 2.25 12.13-5.82 28.78 5.72 37.52 6.41 7.41 0.54 18.92-7.73 21.91l-0.78-0.02c11.07-5.52 13.43-21.7 0.92-27.17z"/>
<path fill="#9f3583" d="m170.82 94.4c1.81 0.01 3.63 0.13 5.45 0.09l0.78 0.02c-0.14 1.36-0.26 2.72-0.34 4.08-0.53 4.48-0.69 9.02 0.15 13.48 7.86 67.53 17.79 134.84 24.56 202.48 7.78 63.44 15.79 126.86 23.67 190.29 1.13 16.84 2.7 33.71 5.71 50.32-1.44 7.03-2.7 14.13-4.78 21.02-18.2-40.55-35.78-81.44-54.35-121.81-0.73-2.45-2.87-0.05-3.05 1.44-14.68 40.33-29.73 80.56-43.88 121.05-1.79 0.25-3.48-0.41-5.08-1.11 0.09-1.5 0.18-2.98 0.18-4.47 0.01 2.55 1.49 7.38 3.25 3.73 16.68-150.11 28.94-300.61 46.32-450.66 0.31-6.5 2.25-13.07 1.1-19.58 0-3.47 0.25-6.91 0.31-10.37z"/>
<path fill="#650164" d="m176.86 112.07c-0.84-4.46-0.68-9-0.15-13.48 24.32 124.2 47.71 248.72 70.55 373.35 0.57 3.24 0.52 6.55-0.54 9.72-5.6 24.43-10.47 49.03-15.92 73.5-3.01-16.61-4.58-33.48-5.71-50.32-7.88-63.43-15.89-126.85-23.67-190.29-6.77-67.64-16.7-134.95-24.56-202.48z"/>
<path fill="#650164" d="m170.51 104.77c1.15 6.51-0.79 13.08-1.1 19.58-17.38 150.05-29.64 300.55-46.32 450.66-1.76 3.65-3.24-1.18-3.25-3.73-3.82-34.51-12.71-68.3-16.12-102.86 2.75-11.22 4.8-22.59 6.74-33.97 8.76-58.74 22.15-116.71 30.76-175.48 9.51-51.44 19.41-102.87 29.29-154.2z"/>
<path fill="#d5657e" d="m97.76 455.8c3.37-8.63 4.51 9.78 5.96 12.62 3.41 34.56 12.3 68.35 16.12 102.86 0 1.49-0.09 2.97-0.18 4.47-0.29 1.12-0.58 2.25-0.86 3.38-6.54-28.57-13.22-57.12-20.52-85.5-7.47 27.39-12.6 55.38-20.38 82.67-1.07-1.35-1.93-2.84-2.36-4.51 7.28-38.69 14.98-77.3 22.22-115.99z"/>
<path fill="#d7657a" d="m168.62 455.81c0.18-1.49 2.32-3.89 3.05-1.44 18.57 40.37 36.15 81.26 54.35 121.81-7.77-0.63-12.51 2.29-11.05 10.04-14.25-23.52-25.93-48.57-40.16-72.09-3.11 0.46-4.51 4.14-6.62 6.09-12.82 20.55-21.79 43.22-34.12 64.05 3.23-7.24-2.33-10.04-9.33-7.41 14.15-40.49 29.2-80.72 43.88-121.05z"/>
<path fill="#d5657d" d="m251.9 452.69c2.34 1.72 2.63 4.8 3.2 7.42 5.33 36.48 11.6 72.85 17.3 109.29 2.09 7.39 3.31 14.93 2.45 22.65-8.34-32.11-15.92-64.46-22.94-96.89-0.41 0.04-1.24 0.12-1.65 0.17-6.15 27.71-13.53 55.15-19.87 82.83-1.45-0.68-2.91-1.34-4.37-1.98 2.08-6.89 3.34-13.99 4.78-21.02 5.45-24.47 10.32-49.07 15.92-73.5 1.06-3.17 1.11-6.48 0.54-9.72 4.22-4.96 1.57-13.37 4.64-19.25z"/>
<g fill="#650164">
<path d="m98.28 493.63c7.3 28.38 13.98 56.93 20.52 85.5 2.47 9.49 2.74 19.36 2.25 29.11-0.7 2.25-3.44 2.08-5.22 2.94-1.99-0.01-1.93 1.72-1.96 3.23-1.72-5.55-6.64-9.45-6.86-15.71-1.71-12.07-3.61-24.49-7.97-35.94-4.06 1.71-3.38 7.19-4.78 10.55-0.92 7.89-5.65 15.62-4.19 23.67-1.88 4.82-2.86 9.93-4.55 14.82 0.01-1.97-2.22-4.06-3.62-1.76-0.43 0.06-1.28 0.2-1.71 0.26-2.12-1.17-4.34-2.14-6.61-2.99-2.53-4.92-0.88-10.28 0.45-15.31 2.14-4.99 2.89-10.4 3.87-15.7 7.78-27.29 12.91-55.28 20.38-82.67z"/>
<path d="m250.26 495.33c0.41-0.05 1.24-0.13 1.65-0.17 7.02 32.43 14.6 64.78 22.94 96.89 1.73 5.23 3.15 11.03 0.72 16.31-2.16 1.11-4.37 2.14-6.59 3.11-1.06-0.36-2.11-0.73-3.15-1.1-4.53-2.44-5.02-8.09-6.7-12.41 0.93-9.72-4.36-19-5.37-28.62-0.3-2.14-2.46-8-4.48-4.02-1.64 10.82-6.83 21.56-6.6 32.57-1.92 4.96-3.31 10.08-4.73 15.21-3.09 0.94-0.65-6.15-3.03-2.94-1.64-0.49-3.31-0.84-4.95-1.26-7.68-7.2-1.39-21.25 0.42-30.74 6.34-27.68 13.72-55.12 19.87-82.83z"/>
<path d="m168.19 520.22c2.11-1.95 3.51-5.63 6.62-6.09 14.23 23.52 25.91 48.57 40.16 72.09 0.1 7.61 0.05 15.23-0.03 22.86-5.55 0.98-8.78-3.78-10.89-8.1-2.72-7.03-6.55-13.52-10.25-20.06-0.5-1.02-1.01-2.03-1.56-3.01-6.41-10.86-12.52-21.89-18.39-33.05-5.92 6.52-8.52 15.42-13.13 22.89-5.83 10.53-10.88 21.47-16.64 32.03-1.37 2.73-2.7 5.48-3.84 8.31-1.86 1.38-4.07 1.97-6.35 2.07 0.32-8.63-0.36-17.28 0.18-25.89 12.33-20.83 21.3-43.5 34.12-64.05z"/>
</g>
<path fill="#d6697c" d="m160.72 567.75c4.61-7.47 7.21-16.37 13.13-22.89 5.87 11.16 11.98 22.19 18.39 33.05-6.41-2.32-10.84-17.99-20.75-17.43-3.86 1.99-7.24 4.77-10.77 7.27z"/>
<path fill="#7c017c" d="m171.49 560.48c9.91-0.56 14.34 15.11 20.75 17.43 0.55 0.98 1.06 1.99 1.56 3.01 2.44 15.65 14.43 32.06 10.49 47.95-2.88-11.33-5.63-23.49-14.55-31.75-12.87 4.13-12.31 21.51-17.9 30.58-2.77-8.96-5.04-23.06-15.02-28.58-9.48 2.32-10.62 14.32-14.49 21.73-0.88-7.08 0.9-14.08 1.75-21.07 5.76-10.56 10.81-21.5 16.64-32.03 3.53-2.5 6.91-5.28 10.77-7.27z"/>
<path fill="#7b017a" d="m94.26 573.31c1.4-3.36 0.72-8.84 4.78-10.55 4.36 11.45 6.26 23.87 7.97 35.94-9.94 1.53-3.34 16.63-8.98 21.47-3.69-6.75-0.64-19.2-7.96-23.19-1.46-8.05 3.27-15.78 4.19-23.67z"/>
<path fill="#7b017b" d="m249.28 565.32c2.02-3.98 4.18 1.88 4.48 4.02 1.01 9.62 6.3 18.9 5.37 28.62-8.01 5.07-4.55 16.88-8.07 24.19-1.28-8.36-2.35-16.88-5.36-24.83-1.01 0.16-2.02 0.35-3.02 0.57-0.23-11.01 4.96-21.75 6.6-32.57z"/>
<path fill="#d8a4c3" d="m74.03 592c0.04-6.77-0.18-13.61 1.51-20.21 0.43 1.67 1.29 3.16 2.36 4.51-0.98 5.3-1.73 10.71-3.87 15.7z"/>
<path fill="#e2a6b6" d="m118.8 579.13c0.28-1.13 0.57-2.26 0.86-3.38 1.6 0.7 3.29 1.36 5.08 1.11 7-2.63 12.56 0.17 9.33 7.41-0.54 8.61 0.14 17.26-0.18 25.89 0.26 51.61 0.02 103.23 0.13 154.84 0.12 12.64-0.38 25.29 0.12 37.93 8.48 0.22 16.96 0.1 25.44 0.12l0.09 0.97c-8.53-0.04-17.07-0.29-25.59 0.15-0.25 7.05-0.15 14.11-0.15 21.18 0.04 9.63 0.03 19.27-0.02 28.92 0.08 16.82 0.15 33.65 0.01 50.49 1.12 3.41-2.04 9.35 2.13 11.47 0.07 1.27 0.12 2.55 0.15 3.84-0.7-0.25-2.08-0.75-2.78-1 0.38 10.21 0.64 20.43 1.01 30.66-1.05 46.67-0.03 93.37-0.53 140.07 0.29 2.6-1.15 11 4.2 9.3 3.96-0.1 7.92-0.1 11.88-0.1 5.34 0 10.68 0.1 16.02 0h20 16 7.99c2.88-0.3 8.47 1.4 5.06-5.1-0.58-48.4 0.94-96.78-0.79-145.11 3.23-6.95-11.28-1.4-14.42-3.43 5.01-0.21 10.07 0.08 15.05-0.59-0.58-26.84 0.33-53.67 0.04-80.53 0-4.29 0.15-8.52 0.11-12.76-0.09-10.72 0.02-21.43 0.08-32.13 1.14-8.59 1.82-18.4-9.16-15.59l-0.9-0.01c-4.62 0.02-9.23 0.12-13.84 0.31v-0.99c7.89-0.47 15.81 0.34 23.7-0.18 0.29-12.64 0.04-25.27 0.06-37.89 0-51.98 0.1-103.95-0.04-155.92 0.08-7.63 0.13-15.25 0.03-22.86-1.46-7.75 3.28-10.67 11.05-10.04 1.46 0.64 2.92 1.3 4.37 1.98-1.81 9.49-8.1 23.54-0.42 30.74 2.14 1.53 5.51 2.44 3.09 6.57-0.12 49.84-0.05 99.69-0.05 149.54 0.91 12.93-1.82 26.36 0.94 39.06-2.17 35.18-0.46 70.63-0.83 105.91 0.5 5.03 0.94 10.23-6.04 8.34-0.13 60.18-0.15 120.38 0.01 180.58 2.56-0.1 7.68-0.1 10.23-0.1 1.52-0.1 3.03-0.2 4.55-0.1 3.21 0.1 6.46 0.5 9.7 0.3 1.7 6.5 0.78 13.3 0.59 20-52.39 0-104.78 0.1-157.16-0.1 0.14-6.9-0.51-13.8 0.92-20.5 3.94-0.2 8.36 1.8 11.99-0.4 1.2 0.3 2.4 0.6 3.62 0.8 3.1 0.3 6.29 0.5 9.39 0 0.14-62.9 0.14-125.86-0.01-188.81-1.51-4.66 4.23-15.92-4.78-14.49-1.01-30.53 1.23-61.4-0.94-91.72 1.13-12.86 0.06-25.82 0.78-38.73-0.03-51.29 0.23-102.58-0.14-153.87 1.78-0.86 4.52-0.69 5.22-2.94 0.49-9.75 0.22-19.62-2.25-29.11z"/>
<path fill="#fcb8af" d="m204.29 628.87c3.94-15.89-8.05-32.3-10.49-47.95 3.7 6.54 7.53 13.03 10.25 20.06 0.44 6.27 2.47 12.22 3.6 18.37-1.51 45.5-0.13 91.06-0.75 136.58-22.61 0.08-45.24 0.25-67.84-0.05 0.67-49.23-1.67-98.7 1.18-147.79 1.14-2.83 2.47-5.58 3.84-8.31-0.85 6.99-2.63 13.99-1.75 21.07 3.87-7.41 5.01-19.41 14.49-21.73 9.98 5.52 12.25 19.62 15.02 28.58 5.59-9.07 5.03-26.45 17.9-30.58 8.92 8.26 11.67 20.42 14.55 31.75m-15.98-28.58c-7.5 6.53-10.24 16.84-13.09 26.05-1.02 42.61 0.9 85.39-0.94 128 9.88-0.42 19.77-0.28 29.67-0.38-0.13-38.5 0.53-77.03-0.34-115.51-2.17-13.11-5.8-29.54-15.3-38.16m-32.86 1.98c-7.22 6.15-9.51 16.4-12.1 25.23-0.8 41.77-0.18 83.61-0.31 125.41 9.28 0.37 18.58 0.07 27.87 0.05 0.16-37.56 0.16-75.15-0.01-112.71-1.22-13.01-4.17-26.46-12.24-37.04-0.64-1.13-2.06-1.52-3.21-0.94z"/>
<path fill="#fdbeaa" d="m90.07 596.98c7.32 3.99 4.27 16.44 7.96 23.19 5.64-4.84-0.96-19.94 8.98-21.47 0.22 6.26 5.14 10.16 6.86 15.71 0.22 47.17 0.19 94.34 0.04 141.51-10.27 0.23-20.56 0.27-30.83-0.01 0.45-48.65-0.86-97.24-1.18-145.87 1.4-2.3 3.63-0.21 3.62 1.76 1.69-4.89 2.67-10 4.55-14.82m0.23 5.44c-11.83 47.95-0.87 97.86-4.51 146.59-3.55 9.37 7.45 1.51 11.09 3.82 0.31-35.57 0.01-71.15 0.14-106.72-0.96-14.82-1.48-29.94-6.07-44.19l-0.65 0.5m14.74 0.31c-4.35 12.81-5.78 26.7-5.05 40.21 0.07 36.67-0.08 73.35 0.05 110.02 2.73 0 8.17 0.01 10.89 0.01 0.07-40.56 0.22-81.13-0.07-121.68-1.12-9.57-0.99-19.97-5.82-28.56z"/>
<path fill="#febeb3" d="m242.68 597.89c1-0.22 2.01-0.41 3.02-0.57 3.01 7.95 4.08 16.47 5.36 24.83 3.52-7.31 0.06-19.12 8.07-24.19 1.68 4.32 2.17 9.97 6.7 12.41 2.75 45.43 0.29 91.04 1.28 136.54-1.18 2.44 1.41 7.03-0.98 9.17-9.96-0.1-19.91 0.15-29.85-0.28-3.05-48.36-0.32-97.13-1.36-145.64 2.38-3.21-0.06 3.88 3.03 2.94 1.42-5.13 2.81-10.25 4.73-15.21m14.49 6.36c-2.01 11.15-4.58 22.33-4.21 33.74 0.13 38.32-0.07 76.63 0.09 114.95 3.94 0.2 7.88 0.21 11.84 0.02-0.73-45.56 2.65-91.41-3.08-136.74-2.05-3.04-0.3-11.6-4.64-11.97m-14.95 0.81c-1.5 9.25-3.76 18.47-3.26 27.93 0.13 39.99-0.07 79.98 0.09 119.97 2.47 0.01 7.43 0.01 9.9 0.02-1.48-49.22 3.57-98.88-3.21-147.78-1.17-0.19-2.34-0.24-3.52-0.14z"/>
<path fill="#7c007c" d="m188.31 600.29c9.5 8.62 13.13 25.05 15.3 38.16 0.87 38.48 0.21 77.01 0.34 115.51-9.9 0.1-19.79-0.04-29.67 0.38 1.84-42.61-0.08-85.39 0.94-128 2.85-9.21 5.59-19.52 13.09-26.05z"/>
<path fill="#d66779" d="m204.05 600.98c2.11 4.32 5.34 9.08 10.89 8.1 0.14 51.97 0.04 103.94 0.04 155.92h-80.96c-0.11-51.61 0.13-103.23-0.13-154.84 2.28-0.1 4.49-0.69 6.35-2.07-2.85 49.09-0.51 98.56-1.18 147.79 22.6 0.3 45.23 0.13 67.84 0.05 0.62-45.52-0.76-91.08 0.75-136.58-1.13-6.15-3.16-12.1-3.6-18.37z"/>
<path fill="#7c017a" d="m90.3 602.42l0.65-0.5c4.59 14.25 5.11 29.37 6.07 44.19-0.13 35.57 0.17 71.15-0.14 106.72-3.64-2.31-14.64 5.55-11.09-3.82 3.64-48.73-7.32-98.64 4.51-146.59z"/>
<path fill="#7c007c" d="m155.45 602.27c1.15-0.58 2.57-0.19 3.21 0.94 8.07 10.58 11.02 24.03 12.24 37.04 0.17 37.56 0.17 75.15 0.01 112.71-9.29 0.02-18.59 0.32-27.87-0.05 0.13-41.8-0.49-83.64 0.31-125.41 2.59-8.83 4.88-19.08 12.1-25.23z"/>
<path fill="#7c017b" d="m105.04 602.73c4.83 8.59 4.7 18.99 5.82 28.56 0.29 40.55 0.14 81.12 0.07 121.68-2.72 0-8.16-0.01-10.89-0.01-0.13-36.67 0.02-73.35-0.05-110.02-0.73-13.51 0.7-27.4 5.05-40.21z"/>
<path fill="#7c017a" d="m257.17 604.25c4.34 0.37 2.59 8.93 4.64 11.97 5.73 45.33 2.35 91.18 3.08 136.74-3.96 0.19-7.9 0.18-11.84-0.02-0.16-38.32 0.04-76.63-0.09-114.95-0.37-11.41 2.2-22.59 4.21-33.74z"/>
<path fill="#7c017b" d="m242.22 605.06c1.18-0.1 2.35-0.05 3.52 0.14 6.78 48.9 1.73 98.56 3.21 147.78-2.47-0.01-7.43-0.01-9.9-0.02-0.16-39.99 0.04-79.98-0.09-119.97-0.5-9.46 1.76-18.68 3.26-27.93z"/>
<path fill="#e1a6b8" d="m73.58 607.31c2.27 0.85 4.49 1.82 6.61 2.99-0.42 51.57-0.09 103.14-0.18 154.71 0.9 12.93-1.79 26.35 0.93 39.06-2.26 30.38-0.26 61.02-0.92 91.51-2.44 0.33-4.83 0.9-7.16 1.7 1.59-6.29 1.16-12.87 1.21-19.27-0.45-90.23 0.54-180.48-0.49-270.7z"/>
<path fill="#dfa7b9" d="m268.98 611.47c2.22-0.97 4.43-2 6.59-3.11-1.29 95.73-0.27 191.55-0.51 287.31-1.47 0.03-4.4 0.08-5.87 0.11-0.55-30.52 0.08-61.06-0.28-91.58 0.7-0.19 2.1-0.58 2.8-0.78 0.47-12.72 0.58-25.49 0.19-38.2-0.72-0.16-2.16-0.48-2.87-0.64 0.04-0.72 0.13-2.18 0.17-2.9 0.12-1.93 0.17-3.85 0.18-5.76-0.87-48.14-0.12-96.3-0.4-144.45z"/>
<path fill="#d0717e" d="m229.97 608.9c1.64 0.42 3.31 0.77 4.95 1.26 1.04 48.51-1.69 97.28 1.36 145.64-2.74 1.59-3.9 8.2 0.46 7.78 10.32-1.27 23.58 4.52 32.46-1.9-0.04 0.72-0.13 2.18-0.17 2.9-12 0.6-24.01 0.42-36.02 0.43 0-49.85-0.07-99.7 0.05-149.54 2.42-4.13-0.95-5.04-3.09-6.57z"/>
<path fill="#d56879" d="m80.19 610.3c0.43-0.06 1.28-0.2 1.71-0.26 0.32 48.63 1.63 97.22 1.18 145.87 10.27 0.28 20.56 0.24 30.83 0.01 0.15-47.17 0.18-94.34-0.04-141.51 0.03-1.51-0.03-3.24 1.96-3.23 0.37 51.29 0.11 102.58 0.14 153.87-11.99-0.06-23.97-0.08-35.96-0.04 0.09-51.57-0.24-103.14 0.18-154.71z"/>
<path fill="#d26a78" d="m265.83 610.37c1.04 0.37 2.09 0.74 3.15 1.1 0.28 48.15-0.47 96.31 0.4 144.45-2.5 2.08-8.46 3.98-3.25 0.16 2.39-2.14-0.2-6.73 0.98-9.17-0.99-45.5 1.47-91.11-1.28-136.54z"/>
<path fill="#d76679" d="m236.28 755.8c9.94 0.43 19.89 0.18 29.85 0.28-5.21 3.82 0.75 1.92 3.25-0.16-0.01 1.91-0.06 3.83-0.18 5.76-8.88 6.42-22.14 0.63-32.46 1.9-4.36 0.42-3.2-6.19-0.46-7.78z"/>
<path fill="#fccbca" d="m80.01 765.01c11.99-0.04 23.97-0.02 35.96 0.04-0.72 12.91 0.35 25.87-0.78 38.73-11.42 0.32-22.84 0.18-34.25 0.29-2.72-12.71-0.03-26.13-0.93-39.06z"/>
<path fill="#fccbca" d="m134.02 765h80.96c-0.02 12.62 0.23 25.25-0.06 37.89-7.89 0.52-15.81-0.29-23.7 0.18-0.69 0.24-2.08 0.72-2.77 0.96-3.64-0.11-7.28-0.26-10.91-0.45-1.4 0.01-2.78-0.29-4.17-0.06-3.34 0.22-6.66 0.52-10.01 0.7-0.61-2.59-1.84-2.95-3.78-1.17-8.48-0.02-16.96 0.1-25.44-0.12-0.5-12.64 0-25.29-0.12-37.93z"/>
<path fill="#fccaca" d="m233.01 765.01c12.01-0.01 24.02 0.17 36.02-0.43 0.71 0.16 2.15 0.48 2.87 0.64 0.39 12.71 0.28 25.48-0.19 38.2-0.7 0.2-2.1 0.59-2.8 0.78-11.66-0.28-23.31-0.27-34.96-0.13-2.76-12.7-0.03-26.13-0.94-39.06z"/>
<path fill="#650164" d="m159.58 803.05c1.94-1.78 3.17-1.42 3.78 1.17 0.76 6.19-2.31 14.39 0.37 19.81 2.76-7.06 7.93-13.06 9.64-20.51 1.39-0.23 2.77 0.07 4.17 0.06 2.74 7.35 6.82 14.13 10.98 20.75 1.05-6.74 0.8-13.58-0.07-20.3 0.69-0.24 2.08-0.72 2.77-0.96v0.99c-0.14 7.78-0.84 15.68 0.19 23.42 4.67-7.84 8.75-16.02 13.65-23.73l0.9 0.01c2.84 5.31 5.42 10.82 9.16 15.59-0.06 10.7-0.17 21.41-0.08 32.13-4.8-3.32-8.03-22.5-13.58-10.84-2.3 5.68-4.56 11.47-10.5 14.42-0.22 20.25 0.4 40.5-0.16 60.76-1.41 9.64-0.41 19.39-0.87 29.09-2.57-7.09-0.14-18.78-0.66-27.71-0.64-20.86 0.06-41.75-0.33-62.59-8.24-3.75-6.96-15.16-13.78-19.73-1.83 3.32-3.6 6.71-5.42 10.06-1.16 2.08-1.88 4.37-2.4 6.7-1.37 1.17-2.73 2.35-4.05 3.58-0.92 1.43-2.34 0.86-3.66 0.46-1.47-1.37-3.05-2.61-4.61-3.86-1.48-3.95-3.85-7.48-6.07-11.02-0.84-1.45-1.59-3.04-3.01-3.99-4.46 5.49-6.23 13.05-12.03 17.46 0.05-9.65 0.06-19.29 0.02-28.92 4.34-6.69 8.29-13.61 12.24-20.53 5.49 6.69 8.78 14.97 13.38 22.32 1.49-7.33 0.42-15.49 0.12-23.12l-0.09-0.97z"/>
<path fill="#d7657b" d="m80.02 895.58c0.66-30.49-1.34-61.13 0.92-91.51 11.41-0.11 22.83 0.03 34.25-0.29 2.17 30.32-0.07 61.19 0.94 91.72 9.01-1.43 3.27 9.83 4.78 14.49-7.31-0.23-15 1.4-21.91-1.67-8.07 3.41-17.34 1.17-25.95 1.69-0.14-4.25-0.34-8.52-0.19-12.73 2.33-0.8 4.72-1.37 7.16-1.7m17.33-80.31c-4.45 4.14-8.51 9.45-8.2 15.91-0.37 23.78-0.07 47.58-0.16 71.38 6.08 2.88 13.46 3.62 20.17 5.35-2.32-28.88 5.31-59.65-7.12-86.93-1.41-1.54-2.24-6.18-4.69-5.71z"/>
<path fill="#d6657c" d="m134.08 804.17c8.52-0.44 17.06-0.19 25.59-0.15 0.3 7.63 1.37 15.79-0.12 23.12-4.6-7.35-7.89-15.63-13.38-22.32-3.95 6.92-7.9 13.84-12.24 20.53 0-7.07-0.1-14.13 0.15-21.18z"/>
<path fill="#d6657c" d="m163.36 804.22c3.35-0.18 6.67-0.48 10.01-0.7-1.71 7.45-6.88 13.45-9.64 20.51-2.68-5.42 0.39-13.62-0.37-19.81z"/>
<path fill="#d5647c" d="m177.54 803.58c3.63 0.19 7.27 0.34 10.91 0.45 0.87 6.72 1.12 13.56 0.07 20.3-4.16-6.62-8.24-13.4-10.98-20.75z"/>
<path fill="#d6657b" d="m191.22 804.06c4.61-0.19 9.22-0.29 13.84-0.31-4.9 7.71-8.98 15.89-13.65 23.73-1.03-7.74-0.33-15.64-0.19-23.42z"/>
<path fill="#d7657d" d="m205.96 803.76c10.98-2.81 10.3 7 9.16 15.59-3.74-4.77-6.32-10.28-9.16-15.59z"/>
<path fill="#d7657b" d="m233.12 909.98c0.37-35.28-1.34-70.73 0.83-105.91 11.65-0.14 23.3-0.15 34.96 0.13 0.36 30.52-0.27 61.06 0.28 91.58 1.47-0.03 4.4-0.08 5.87-0.11 1.64 4.94 1.07 10.18 1.11 15.32-7.34-1.28-14.8-0.94-22.2-1.28 3.21-1.34 6.57-2.22 9.85-3.34 0.46-19.77 0.08-39.56 0.19-59.34 0.43-9.5-1.78-19.6-8.41-26.71-0.77-1.4-3.51-2.06-3.63 0.55-3.53 5.39-7.21 11.1-7.59 17.75-1.03 23.73 0.07 47.5-0.51 71.25-3.59 0.15-7.16 0.23-10.75 0.11z"/>
<path fill="#970197" d="m97.35 815.27c2.45-0.47 3.28 4.17 4.69 5.71 12.43 27.28 4.8 58.05 7.12 86.93-6.71-1.73-14.09-2.47-20.17-5.35 0.09-23.8-0.21-47.6 0.16-71.38-0.31-6.46 3.75-11.77 8.2-15.91z"/>
<path fill="#970097" d="m251.97 820.87c0.12-2.61 2.86-1.95 3.63-0.55 6.63 7.11 8.84 17.21 8.41 26.71-0.11 19.78 0.27 39.57-0.19 59.34-3.28 1.12-6.64 2-9.85 3.34-3.37-0.34-6.74-0.23-10.1 0.16 0.58-23.75-0.52-47.52 0.51-71.25 0.38-6.65 4.06-12.36 7.59-17.75z"/>
<path fill="#d66288" d="m175.16 834.88c6.82 4.57 5.54 15.98 13.78 19.73 0.39 20.84-0.31 41.73 0.33 62.59-0.65-0.36-1.95-1.07-2.6-1.43-1.26-24.53 6.22-52.69-9.38-74.12-3.49-3.74-5.8 9.33-7.55 3.29 1.82-3.35 3.59-6.74 5.42-10.06z"/>
<path fill="#d56287" d="m201.46 840.64c5.55-11.66 8.78 7.52 13.58 10.84 0.04 4.24-0.11 8.47-0.11 12.76-4.2-7.68-4.37-19.9-13.47-23.6z"/>
<path fill="#d46587" d="m133.91 854.27c5.8-4.41 7.57-11.97 12.03-17.46 1.42 0.95 2.17 2.54 3.01 3.99-7.24 4.24-9.68 12.64-12.2 20.07-1.7 18.37-0.38 36.91-0.7 55.36-4.17-2.12-1.01-8.06-2.13-11.47 0.14-16.84 0.07-33.67-0.01-50.49z"/>
<g fill="#970198">
<path d="m136.75 860.87c2.52-7.43 4.96-15.83 12.2-20.07 2.22 3.54 4.59 7.07 6.07 11.02 1.84 6.61 2.47 13.54 5.14 19.94 0.27 3.4 0.55 6.87-0.2 10.25-2.42 20.86-0.03 41.97-1.09 62.92-7.59 0.14-15.22 0.5-22.8-0.06-0.41-8.29 0.06-16.54 0.13-24.8-0.03-1.29-0.08-2.57-0.15-3.84 0.32-18.45-1-36.99 0.7-55.36z"/>
<path d="m169.74 844.94c1.75 6.04 4.06-7.03 7.55-3.29 15.6 21.43 8.12 49.59 9.38 74.12 0.03 9.71 0.87 19.46 0.21 29.18-7.6 0.12-15.23 0.44-22.81-0.04-0.21-8.39-0.02-16.74-0.25-25.1 0.81-22.78-1.91-45.91 3.52-68.17 0.52-2.33 1.24-4.62 2.4-6.7z"/>
<path d="m190.96 855.06c5.94-2.95 8.2-8.74 10.5-14.42 9.1 3.7 9.27 15.92 13.47 23.6 0.29 26.86-0.62 53.69-0.04 80.53-4.98 0.67-10.04 0.38-15.05 0.59-2.58-0.09-5.14-0.28-7.68-0.57-0.49-9.66-0.9-19.32-1.36-28.97 0.56-20.26-0.06-40.51 0.16-60.76z"/>
</g>
<path fill="#d4618a" d="m155.02 851.82c1.56 1.25 3.14 2.49 4.61 3.86 0.23 5.34 0.29 10.71 0.53 16.08-2.67-6.4-3.3-13.33-5.14-19.94z"/>
<path fill="#d56288" d="m167.34 851.64c-5.43 22.26-2.71 45.39-3.52 68.17-1.74 7.97 0.56 18.56-1.82 25.11 0.3-29.91 1.27-59.79 1.29-89.7 1.32-1.23 2.68-2.41 4.05-3.58z"/>
<path fill="#700753" d="m159.63 855.68c1.32 0.4 2.74 0.97 3.66-0.46-0.02 29.91-0.99 59.79-1.29 89.7-0.5 0.02-1.49 0.06-1.98 0.08-0.1-21 0.01-42-0.06-62.99 0.75-3.38 0.47-6.85 0.2-10.25-0.24-5.37-0.3-10.74-0.53-16.08z"/>
<path fill="#fdcacc" d="m158.87 944.93c1.06-20.95-1.33-42.06 1.09-62.92 0.07 20.99-0.04 41.99 0.06 62.99 0.49-0.02 1.48-0.06 1.98-0.08 2.38-6.55 0.08-17.14 1.82-25.11 0.23 8.36 0.04 16.71 0.25 25.1 7.58 0.48 15.21 0.16 22.81 0.04 0.66-9.72-0.18-19.47-0.21-29.18 0.65 0.36 1.95 1.07 2.6 1.43 0.52 8.93-1.91 20.62 0.66 27.71 0.46-9.7-0.54-19.45 0.87-29.09 0.46 9.65 0.87 19.31 1.36 28.97 2.54 0.29 5.1 0.48 7.68 0.57 3.14 2.03 17.65-3.52 14.42 3.43-4.37 2.61-2.47 11.84-9.3 10.17-5.7 0.97-2.15-8.75-6.98-10.01-5.02-4.83-12.76 1.02-12.14 7.07-6.56-0.05-13.12-0.06-19.68 0.06 0.58-9.29-14.04-12.31-16.09-2.82-2.12 4.56-7.82 2.17-11.73 3-0.8-2.46-2.26-4.58-3.91-6.53-0.37-10.23-0.63-20.45-1.01-30.66 0.7 0.25 2.08 0.75 2.78 1-0.07 8.26-0.54 16.51-0.13 24.8 7.58 0.56 15.21 0.2 22.8 0.06z"/>
<path fill="#650164" d="m99 908.32c6.91 3.07 14.6 1.44 21.91 1.67 0.15 62.95 0.15 125.91 0.01 188.81-3.1 0.5-6.29 0.3-9.39 0-1.25-45.5-0.14-91.2-0.54-136.78h-2.99c-0.09 45.28 0.14 90.68-0.09 135.98-3.63 2.2-8.05 0.2-11.99 0.4-1.23-0.9-2.66-1.4-4.12-1.7 0.39-44.9 0.19-89.8 0.15-134.68h-2.98c-0.01 44.98 0.13 89.98-0.04 134.88-4.99 0.1-9.99 0.3-14.96-0.1 0.13-51.8-0.11-103.65 0.14-155.46-0.18-1.38 0.29-3.34-1.21-4.1-1.14-8.22 1.15-18.42 0.15-27.23 8.61-0.52 17.88 1.72 25.95-1.69m0.38 22.02c-6.2 3.13-8.07 8.56-0.38 11.73 6.71-2.82 8.96-10.18 0.38-11.73z"/>
<path fill="#640164" d="m243.87 909.87c3.36-0.39 6.73-0.5 10.1-0.16 7.4 0.34 14.86 0 22.2 1.28 0.23 61.48-0.6 123.01-0.04 184.51-5.46 1.8-11.3 1.9-16.96 1.4-0.5-44.6 0.08-89.3-0.23-133.88-0.5 0-1.49-0.01-1.99-0.01 0.06 43.89 0.07 87.79 0.06 131.69 0.23 2.9-3.68 2.8-5.44 4.3-3.24 0.2-6.49-0.2-9.7-0.3-2.05-45.5-0.25-91.1-0.88-136.68h-2.99c-0.49 45.58 0.93 91.18-0.68 136.78-2.55 0-7.67 0-10.23 0.1-0.16-60.2-0.14-120.4-0.01-180.58 6.98 1.89 6.54-3.31 6.04-8.34 3.59 0.12 7.16 0.04 10.75-0.11m4.51 20.47c-6.2 3.13-8.07 8.56-0.38 11.73 6.71-2.82 8.96-10.18 0.38-11.73z"/>
<path fill="#e1a4b9" d="m99.38 930.34c8.58 1.55 6.33 8.91-0.38 11.73-7.69-3.17-5.82-8.6 0.38-11.73z"/>
<path fill="#e2a6ba" d="m248.38 930.34c8.58 1.55 6.33 8.91-0.38 11.73-7.69-3.17-5.82-8.6 0.38-11.73z"/>
<path fill="#692f8e" d="m72.9 937.24c1.5 0.76 1.03 2.72 1.21 4.1-0.25 51.81-0.01 103.66-0.14 155.46l-0.94-0.1c-0.13-53.1 0.12-106.3-0.13-159.46z"/>
<path fill="#650164" d="m150.07 953.26c2.05-9.49 16.67-6.47 16.09 2.82 0.41 5.17 19.44 5.26 19.68-0.06-0.62-6.05 7.12-11.9 12.14-7.07 4.83 1.26 1.28 10.98 6.98 10.01 6.83 1.67 4.93-7.56 9.3-10.17 1.73 48.33 0.21 96.71 0.79 145.11 3.41 6.5-2.18 4.8-5.06 5.1-0.12-30 0.25-60-0.1-90-2.63-0.2-5.25-0.2-7.86 0.1-0.14 29.9 0.03 59.9-0.03 89.9h-16c-0.11-30.3 0.21-60.6-0.11-90.9-6.6-0.3-13.19-0.3-19.78 0-0.32 30.3 0 60.6-0.11 90.9-5.34 0.1-10.68 0-16.02 0-0.12-30.3 0.31-60.6-0.17-90.9-3.87-0.3-7.74-0.2-11.59 0.3-5.52 1.2-1.93-8.3-2.78-12.01-1.15-8.78 11.5-0.35 14.5-4.42 1.14-9.3 2.45-22.2-11.52-16.99-5.86 6.05-2.37-8.29-3.4-11.72-0.91-9.27 13.11 2.43 14.77-4.67 0.14-1.78 0.18-3.56 0.28-5.33m16.03 21.79c-0.45 5.93-0.13 11.89-0.02 17.87 6.6 0.21 13.21 0.22 19.82 0.03 0.45-5.95 0.12-11.94 0.02-17.87-6.61-0.23-13.21-0.24-19.82-0.03m35.97-0.01c0.71 6.93-4.41 21.26 7.86 16.92-0.71-6.97 4.41-21.26-7.86-16.92z"/>
<path fill="#660559" d="m133.9 1089.8c0.5-46.7-0.52-93.4 0.53-140.07 1.65 1.95 3.11 4.07 3.91 6.53-0.45 5.77 7.96 1.34 11.45 2.33-1.66 7.1-15.68-4.6-14.77 4.67 1.03 3.43-2.46 17.77 3.4 11.72-0.29 5.59-0.63 11.22-0.36 16.86 3.96 0.11 7.92 0.15 11.88 0.13-3 4.07-15.65-4.36-14.5 4.42 0.85 3.71-2.74 13.21 2.78 12.01-0.42 30.2-0.25 60.4-0.12 90.7-5.35 1.7-3.91-6.7-4.2-9.3z"/>
<path fill="#d16586" d="m138.34 956.26c3.91-0.83 9.61 1.56 11.73-3-0.1 1.77-0.14 3.55-0.28 5.33-3.49-0.99-11.9 3.44-11.45-2.33z"/>
<path fill="#d26786" d="m166.16 956.08c6.56-0.12 13.12-0.11 19.68-0.06-0.24 5.32-19.27 5.23-19.68 0.06z"/>
<path fill="#e7a0c8" d="m88.97 962.02h2.98c0.04 44.88 0.24 89.78-0.15 134.68-0.72 0.1-2.15 0.2-2.87 0.2 0.17-44.9 0.03-89.9 0.04-134.88z"/>
<path fill="#e39ac4" d="m108 962.02h2.99c0.4 45.58-0.71 91.28 0.54 136.78-1.22-0.2-2.42-0.5-3.62-0.8 0.23-45.3 0-90.7 0.09-135.98z"/>
<path fill="#e3a0c2" d="m238 962.02h2.99c0.63 45.58-1.17 91.18 0.88 136.68-1.52-0.1-3.03 0-4.55 0.1 1.61-45.6 0.19-91.2 0.68-136.78z"/>
<path fill="#fccbcb" d="m256.95 963.01c0.5 0 1.49 0.01 1.99 0.01 0.31 44.58-0.27 89.28 0.23 133.88 5.66 0.5 11.5 0.4 16.96-1.4 2.39 2.1 2.65 5.4 3.02 8.4-0.12 1.2-0.24 2.3-0.36 3.5-1.9 17.7-0.04 35.6-0.92 53.3-0.48 0.1-1.43 0.4-1.91 0.5-7.65-0.2-15.3-0.2-22.94-0.2-0.6-14 1.15-28.2-0.86-42 0.19-6.7 1.11-13.5-0.59-20 1.76-1.5 5.67-1.4 5.44-4.3 0.01-43.9 0-87.8-0.06-131.69z"/>
<path fill="#d6657c" d="m138.42 974.98c13.97-5.21 12.66 7.69 11.52 16.99-3.96 0.02-7.92-0.02-11.88-0.13-0.27-5.64 0.07-11.27 0.36-16.86z"/>
<path fill="#d7647a" d="m166.1 975.05c6.61-0.21 13.21-0.2 19.82 0.03 0.1 5.93 0.43 11.92-0.02 17.87-6.61 0.19-13.22 0.18-19.82-0.03-0.11-5.98-0.43-11.94 0.02-17.87z"/>
<path fill="#d7657d" d="m202.07 975.04c12.27-4.34 7.15 9.95 7.86 16.92-12.27 4.34-7.15-9.99-7.86-16.92z"/>
<path fill="#d7657b" d="m138.22 1008.4c3.85-0.5 7.72-0.6 11.59-0.3 0.48 30.3 0.05 60.6 0.17 90.9-3.96 0-7.92 0-11.88 0.1-0.13-30.3-0.3-60.5 0.12-90.7z"/>
<path fill="#d7657a" d="m166.11 1008.1c6.59-0.3 13.18-0.3 19.78 0 0.32 30.3 0 60.6 0.11 90.9h-20c0.11-30.3-0.21-60.6 0.11-90.9z"/>
<path fill="#d6647d" d="m202.03 1009.1c2.61-0.3 5.23-0.3 7.86-0.1 0.35 30-0.02 60 0.1 90h-7.99c0.06-30-0.11-60 0.03-89.9z"/>
<path fill="#fccbca" d="m64.84 1117.9c2.92-7 5.58-14.3 8.19-21.2l0.94 0.1c4.97 0.4 9.97 0.2 14.96 0.1 0.72 0 2.15-0.1 2.87-0.2 1.46 0.3 2.89 0.8 4.12 1.7-1.43 6.7-0.78 13.6-0.92 20.5-0.62 14.1 1.26 28.4-0.86 42.4-7.43-0.3-14.86-0.3-22.28 0-2.25-16.8 0.26-33.7-1.24-50.6-1.73 3.1-3.36 6.2-4.87 9.3-0.23-0.5-0.68-1.6-0.91-2.1z"/>
<path fill="#edc7e2" d="m279.15 1103.9c9.3 19 16.06 39.2 24.33 58.6 1.5 2.9-0.7 2.4-2.77 1.6-0.31-1.1-0.61-2.1-0.91-3.2-6.35-18.1-14.71-35.4-21.01-53.5 0.12-1.2 0.24-2.3 0.36-3.5z"/>
<path fill="#b43c8b" d="m277.87 1160.7c0.88-17.7-0.98-35.6 0.92-53.3 6.3 18.1 14.66 35.4 21.01 53.5-1.71 30.3-0.52 60.7-0.66 91 1.56 15.2 10.75 28.8 10.87 44.4 0.9 20.7-1.55 42.1 0.78 62.6l0.28 0.8c-0.5 0.4-1.51 1.1-2.02 1.4 2.95 12 6.72 23.8 10.12 35.7-13.2 4.3-27.31-0.2-40.86 1-1.27-5.2 1.49-11.7-2.21-16.1-0.07-30.8-0.38-61.6 0.16-92.4 3.04-5 3.53-13.8-0.17-18.6-0.24-36.5 0.02-73-0.13-109.5 0.48-0.1 1.43-0.4 1.91-0.5z"/>
<path fill="#b43c8b" d="m70.62 1110.7c1.5 16.9-1.01 33.8 1.24 50.6 0.24 36.8 0.21 73.7 0.04 110.5-1.1 5.4-1.46 11.1-0.07 16.6 0.36 31.4 0.13 62.9 0.12 94.4-0.55 5-1 10-1.33 15.1-15.84 0-31.68 0.2-47.49 1.1 3.36-12.3 8.67-24 12.48-36.2-3.61-22.6-0.4-45.9-1.97-68.8 3.81-12.3 8.6-24.3 13.07-36.3 0.64-2.2 2.21-4.9-0.48-6.2-0.72-28.4 0.27-56.8-0.5-85.2 3.73-16.5 15.17-30.1 20.02-46.3 1.51-3.1 3.14-6.2 4.87-9.3z"/>
<path fill="#eac4e5" d="m44.29 1160.3c7.31-13.9 12.89-28.7 20.55-42.4 0.23 0.5 0.68 1.6 0.91 2.1-4.85 16.2-16.29 29.8-20.02 46.3-3.85 0.3-2.68-3.9-1.44-6z"/>
<path fill="#d8657a" d="m95 1118.9c52.38 0.2 104.77 0.1 157.16 0.1 2.01 13.8 0.26 28 0.86 42 0.14 36.9-0.37 73.9 0.22 110.8-0.45 1.5-0.53 3.1-1.04 4.6-52.35-0.7-104.72-0.5-157.07-0.1-0.42-1.6-0.86-3.1-1.28-4.6 0.46-36.8-0.16-73.6 0.29-110.4 2.12-14 0.24-28.3 0.86-42.4m72.47 34.7c-25.85 0.1-47.32 26.2-45.56 51.3-1.42 24.6 19.49 46.1 42.87 50.4 34.99 4.4 64.92-35.3 51.62-67.7-5.33-21.2-27.54-35.7-48.93-34z"/>
<path fill="#690653" d="m167.47 1153.6c21.39-1.7 43.6 12.8 48.93 34 13.3 32.4-16.63 72.1-51.62 67.7-23.38-4.3-44.29-25.8-42.87-50.4-1.76-25.1 19.71-51.2 45.56-51.3m-5.85 2.8c-17.08 3-29.62 17.1-35.48 32.7-7.25 23 4.26 50.6 27.2 59.5 11.9 6.8 26.26 4.5 37.89-1.4 21.24-10.6 31.52-38.9 22.24-60.7-6.38-21.4-30.52-33.5-51.85-30.1z"/>
<path fill="#da92ab" d="m161.62 1156.4c21.33-3.4 45.47 8.7 51.85 30.1 9.28 21.8-1 50.1-22.24 60.7-11.63 5.9-25.99 8.2-37.89 1.4-22.94-8.9-34.45-36.5-27.2-59.5 5.86-15.6 18.4-29.7 35.48-32.7m3.62 3.9c-3.9 0.7-3.17 7.1 0.65 7.8 1.99-2.6 5.18-8.8-0.65-7.8m7.05-0.1c-4.74 0.9-1.45 8.1 2.35 6.3 4.81-0.4 1.52-8.3-2.35-6.3m-33.97 36.3c-4.7 19.2 9.98 39.5 29.16 42.1 17.87 1.5 34.17-14 35.47-31.5 3.25-2.2 7.68-1.6 10.87-2.8-3.71-0.7-6.55-3.7-10.58-3.3-2.46-15.2-14.42-31.7-31.29-31.1-16.04-1.9-29.8 12-33.63 26.6m-6.99 4.7c-3.82 1.6-2.66 7.7 1.54 7.6 4.68-1.1 3.47-9.2-1.54-7.6z"/>
<path fill="#62045e" d="m165.24 1160.3c5.83-1 2.64 5.2 0.65 7.8-3.82-0.7-4.55-7.1-0.65-7.8z"/>
<path fill="#63035d" d="m172.29 1160.2c3.87-2 7.16 5.9 2.35 6.3-3.8 1.8-7.09-5.4-2.35-6.3z"/>
<path fill="#e1a6b6" d="m71.86 1161.3c7.42-0.3 14.85-0.3 22.28 0-0.45 36.8 0.17 73.6-0.29 110.4-7.32 0.2-14.64 0.3-21.95 0.1 0.17-36.8 0.2-73.7-0.04-110.5z"/>
<path fill="#e1a6b6" d="m253.02 1161c7.64 0 15.29 0 22.94 0.2 0.15 36.5-0.11 73 0.13 109.5-7.41 2.2-15.25 1.2-22.85 1.1-0.59-36.9-0.08-73.9-0.22-110.8z"/>
<path fill="#875bb2" d="m299.14 1251.9c0.14-30.3-1.05-60.7 0.66-91 0.3 1.1 0.6 2.1 0.91 3.2-1.88 28.8-0.02 58.3-0.79 87.3l-0.78 0.5z"/>
<path fill="#fec0d7" d="m138.32 1196.5c3.83-14.6 17.59-28.5 33.63-26.6 16.87-0.6 28.83 15.9 31.29 31.1-1.1 0.4-2.2 0.8-3.31 1.1-0.59-14.5-12.21-29.2-27.42-29.2-15.64-2-31.08 12-31.49 27.5-3.76 18.8 14.94 39 34.12 35 14.12-2.1 24.1-15.6 25.54-29.3 0.57 0.3 1.7 0.7 2.27 1-1.3 17.5-17.6 33-35.47 31.5-19.18-2.6-33.86-22.9-29.16-42.1z"/>
<path fill="#970198" d="m141.02 1200.4c0.41-15.5 15.85-29.5 31.49-27.5 15.21 0 26.83 14.7 27.42 29.2-10.61-0.8-21.9 2-32.02-2.2-2.35 2.4-3.47 7.5 0.88 8 5.99 7 7.28 19 16.32 23-2.72-9.3-11.38-16.2-12.86-25.6 9.47 0.1 18.94 1.9 28.43 0.8-1.44 13.7-11.42 27.2-25.54 29.3-19.18 4-37.88-16.2-34.12-35z"/>
<path fill="#e291b5" d="m167.91 1199.9c10.12 4.2 21.41 1.4 32.02 2.2-10.03 1.8-20.28 0.1-30.35 1.5-0.38 1.4-0.6 2.8-0.79 4.3-4.35-0.5-3.23-5.6-0.88-8z"/>
<path fill="#630361" d="m131.33 1201.2c5.01-1.6 6.22 6.5 1.54 7.6-4.2 0.1-5.36-6-1.54-7.6z"/>
<path fill="#fdc6a2" d="m199.93 1202.1c1.11-0.3 2.21-0.7 3.31-1.1 4.03-0.4 6.87 2.6 10.58 3.3-3.19 1.2-7.62 0.6-10.87 2.8-0.57-0.3-1.7-0.7-2.27-1-9.49 1.1-18.96-0.7-28.43-0.8 1.48 9.4 10.14 16.3 12.86 25.6-9.04-4-10.33-16-16.32-23 0.19-1.5 0.41-2.9 0.79-4.3 10.07-1.4 20.32 0.3 30.35-1.5z"/>
<path fill="#e1b7dc" d="m46.23 1251.5c2.69 1.3 1.12 4 0.48 6.2-4.47 12-9.26 24-13.07 36.3-0.18 0.4-0.54 1.2-0.71 1.7-1.47-1.1-2.25-2.6-1.36-4.3 4.71-13.4 9.79-26.6 14.66-39.9z"/>
<path fill="#f3c4e3" d="m299.14 1251.9l0.78-0.5c5.49 11.8 8.14 24.8 12.36 37.1-3.06 23.2-0.24 47-1.49 70.4-2.33-20.5 0.12-41.9-0.78-62.6-0.12-15.6-9.31-29.2-10.87-44.4z"/>
<path fill="#ca6597" d="m253.24 1271.8c7.6 0.1 15.44 1.1 22.85-1.1 3.7 4.8 3.21 13.6 0.17 18.6-7.5-2-15.3-1.5-22.93-0.8-0.91-1.6-1.89-3-2.84-4.5 0.91-2.6 1-5.1 1.71-7.6 0.51-1.5 0.59-3.1 1.04-4.6z"/>
<path fill="#ca6597" d="m71.83 1288.4c-1.39-5.5-1.03-11.2 0.07-16.6 7.31 0.2 14.63 0.1 21.95-0.1 0.42 1.5 0.86 3 1.28 4.6-0.08 2.5-0.6 5.5 1.21 7.7-0.69 1.6-1.54 3.1-2.53 4.5-7.32-0.5-14.66-0.5-21.98-0.1z"/>
<path fill="#970194" d="m95.13 1276.3c52.35-0.4 104.72-0.6 157.07 0.1-0.71 2.5-0.8 5-1.71 7.6h-154.15c-1.81-2.2-1.29-5.2-1.21-7.7z"/>
<path fill="#d86579" d="m96.34 1284h154.15c0.95 1.5 1.93 2.9 2.84 4.5-0.98 31.1 0.36 62.3-0.72 93.4 2.32 5.5-4.63 14.7 0.57 18.5-0.26 31.4-0.36 62.9 0.02 94.4-0.38 1.5-0.79 3-1.22 4.4-52.29-0.4-104.58-0.3-156.87 0-0.41-1.5-0.84-3-1.26-4.5 0.32-31.5 0.08-62.9 0.14-94.4 4.08-4.8 2.64-13.2 0.36-18.7-0.93-31 0.12-62.1-0.54-93.1 0.99-1.4 1.84-2.9 2.53-4.5m73.95 35.3c-17.36 12.8-25.69 35.7-26.28 56.9-0.01 38.2-0.06 76.5 0.03 114.7 18.32-0.5 37.36 0.9 55.28 0.6 1.76-35.7 0.06-72.5 0.72-108.6 1.55-17.5-4.86-34.5-13.65-49.3-4.11-5.6-8.73-13.2-16.1-14.3z"/>
<path fill="#e2a6b6" d="m71.83 1288.4c7.32-0.4 14.66-0.4 21.98 0.1 0.66 31-0.39 62.1 0.54 93.1-7.27 2.2-14.94 1.3-22.4 1.2 0.01-31.5 0.24-63-0.12-94.4z"/>
<path fill="#e1a6b6" d="m253.33 1288.5c7.63-0.7 15.43-1.2 22.93 0.8-0.54 30.8-0.23 61.6-0.16 92.4-7.57 1.7-15.98 2.6-23.49 0.2 1.08-31.1-0.26-62.3 0.72-93.4z"/>
<path fill="#f8c6de" d="m32.93 1295.7c0.17-0.5 0.53-1.3 0.71-1.7 1.57 22.9-1.64 46.2 1.97 68.8-3.81 12.2-9.12 23.9-12.48 36.2-0.39 1.1-0.79 2.2-1.21 3.3-1.02-0.8-2.57-1.7-1.83-3.2 3.83-12.7 9.43-24.7 12.71-37.5 0.56-22 0.07-44 0.13-65.9z"/>
<path fill="#febfa7" d="m170.29 1319.3c7.37 1.1 11.99 8.7 16.1 14.3 8.79 14.8 15.2 31.8 13.65 49.3-0.66 36.1 1.04 72.9-0.72 108.6-17.92 0.3-36.96-1.1-55.28-0.6-0.09-38.2-0.04-76.5-0.03-114.7 0.59-21.2 8.92-44.1 26.28-56.9m0.09 3.1c-13.88 11.3-21.72 30.3-23.46 47.9 5.27-1.2 4.58-16.1 12.65-15.1 7.64 6 9.6 16.4 12.31 24.8 2.95-9.4 4.26-20.2 12.23-27 8.12 5.9 10.87 16.6 13.08 25.9 2.63-9.2-2.52-20.7-6.03-30.1-4.41-9.9-10.01-22.8-20.78-26.4m13.11 34.9c-6.36 9-8.19 20.5-10.26 31.1-0.61 33.1 0.05 66.2-0.33 99.3 7.86 1.9 15.98 1.4 23.98 1.3 0.25-31.9 0.13-63.8 0.06-95.7-1.67-12-3.9-24.4-10.49-34.8-0.41-1.2-1.9-2.1-2.96-1.2m-25.2 1c-8.28 9.1-12.01 22.5-11.33 34.7 0.13 31.5-0.06 63.1 0.08 94.7 7.85 1.3 15.87 1.5 23.81 1.2 0-33.1 0.76-66.2-0.37-99.3-2.4-10.7-3.33-24.6-12.19-31.3z"/>
<path fill="#7c017b" d="m170.38 1322.4c10.77 3.6 16.37 16.5 20.78 26.4 3.51 9.4 8.66 20.9 6.03 30.1-2.21-9.3-4.96-20-13.08-25.9-7.97 6.8-9.28 17.6-12.23 27-2.71-8.4-4.67-18.8-12.31-24.8-8.07-1-7.38 13.9-12.65 15.1 1.74-17.6 9.58-36.6 23.46-47.9z"/>
<path fill="#7c017b" d="m183.49 1357.3c1.06-0.9 2.55 0 2.96 1.2 6.59 10.4 8.82 22.8 10.49 34.8 0.07 31.9 0.19 63.8-0.06 95.7-8 0.1-16.12 0.6-23.98-1.3 0.38-33.1-0.28-66.2 0.33-99.3 2.07-10.6 3.9-22.1 10.26-31.1z"/>
<path fill="#7c017c" d="m158.29 1358.3c8.86 6.7 9.79 20.6 12.19 31.3 1.13 33.1 0.37 66.2 0.37 99.3-7.94 0.3-15.96 0.1-23.81-1.2-0.14-31.6 0.05-63.2-0.08-94.7-0.68-12.2 3.05-25.6 11.33-34.7z"/>
<path fill="#f4c4de" d="m309.05 1361.1c0.51-0.3 1.52-1 2.02-1.4 4.46 12.9 7.34 26.3 11.45 39.4 0.87 1.5-0.59 2.2-1.72 2.9-0.53-1.8-1.05-3.5-1.63-5.2-3.4-11.9-7.17-23.7-10.12-35.7z"/>
<path fill="#ca6597" d="m94.35 1381.6c2.28 5.5 3.72 13.9-0.36 18.7-7.3-0.3-14.6-0.6-21.89-0.2-0.16 31.6-0.24 63.2 0.04 94.8 7.24 0.3 14.48 0.1 21.71-0.2 0.42 1.5 0.85 3 1.26 4.5 0.21 2.3 0.58 4.6 1.1 6.8-0.73 1.9-1.48 3.7-2.24 5.5-7.12-1.8-15.02-2.7-22.03-0.1 0.2 46.8-0.17 93.8 0.24 140.7-22.85 2.3-45.86-1.1-68.79 0.8 4.52-17.6 17.38-32.8 19.91-50.6-1.43-66.6 1.35-133.5-1.38-200 0.42-1.1 0.82-2.2 1.21-3.3 15.81-0.9 31.65-1.1 47.49-1.1 0.33-5.1 0.78-10.1 1.33-15.1 7.46 0.1 15.13 1 22.4-1.2z"/>
<path fill="#ca6597" d="m253.18 1400.4c-5.2-3.8 1.75-13-0.57-18.5 7.51 2.4 15.92 1.5 23.49-0.2 3.7 4.4 0.94 10.9 2.21 16.1 13.55-1.2 27.66 3.3 40.86-1 0.58 1.7 1.1 3.4 1.63 5.2l-0.6 0.5c-2.02 32.5-2.05 66.5 0.03 99.2-0.1 33.6-0.87 67.4 0.31 101 1.87 17 12.99 32.2 15.94 49.3-20.21 1.3-40.13-2.5-60.47-1-0.07-46.6 0.07-93.2-0.03-139.8-6.97-2-14.91-2.2-21.89 0-0.99-1.9-2.15-3.7-3.5-5.3 0.5-2.3 0.97-4.5 1.39-6.7 0.43-1.4 0.84-2.9 1.22-4.4 7.56 0.1 15.14 0.5 22.7 0.1 0.16-31.6 0.24-63.2-0.04-94.8-7.57-0.4-15.14-0.2-22.68 0.3z"/>
<path fill="#e1a6b6" d="m72.1 1400.1c7.29-0.4 14.59-0.1 21.89 0.2-0.06 31.5 0.18 62.9-0.14 94.4-7.23 0.3-14.47 0.5-21.71 0.2-0.28-31.6-0.2-63.2-0.04-94.8z"/>
<path fill="#e1a6b6" d="m253.18 1400.4c7.54-0.5 15.11-0.7 22.68-0.3 0.28 31.6 0.2 63.2 0.04 94.8-7.56 0.4-15.14 0-22.7-0.1-0.38-31.5-0.28-63-0.02-94.4z"/>
<path fill="#a374b6" d="m320.23 1501.7c-2.08-32.7-2.05-66.7-0.03-99.2-0.35 33.1-0.36 66.2 0.03 99.2z"/>
<path fill="#970194" d="m95.11 1499.2c52.29-0.3 104.58-0.4 156.87 0-0.42 2.2-0.89 4.4-1.39 6.7-51.46 0.3-102.92-0.1-154.38 0.1-0.52-2.2-0.89-4.5-1.1-6.8z"/>
<path fill="#d7657a" d="m96.21 1506c51.46-0.2 102.92 0.2 154.38-0.1 1.35 1.6 2.51 3.4 3.5 5.3-2.52 91.4-0.42 183-1.05 274.5-1.58 2.4-0.85 5.1 0.1 7.6 1.37 6.5-3.38 15.1 0.24 20.7h-40.7c3.12-0.6 6.3-0.8 9.44-1.2 3.26 0 6.56 0.3 9.84 0.2 1.74 0 5.22-0.1 6.96-0.1 0.35-59.4-0.23-118.8 0.02-178.2-21.1-39.6-42.46-79.1-64.17-118.4-1.1-1.8-3.43-6.2-5.21-2.7-20.13 37.7-41.15 74.9-61.27 112.5-2.61 3.6-5.06 7.5-4.2 12.2-0.16 58.2-0.14 116.3-0.01 174.5 1.48 0.1 4.44 0.2 5.92 0.3l0.49 0.9h-11.85c-0.69-0.3-2.07-0.8-2.76-1-1.11-7.1 0.43-14.3-0.9-21.2-0.24-1.6-0.73-4.8-0.97-6.3-0.04-91.3 0.03-182.7-0.04-274 0.76-1.8 1.51-3.6 2.24-5.5z"/>
<path fill="#e2a6b6" d="m71.94 1511.4c7.01-2.6 14.91-1.7 22.03 0.1 0.07 91.3 0 182.7 0.04 274-7.32 0.4-14.66 0.5-21.99 0.5 0.06-44.6-0.23-89.3 0.16-133.9-0.41-46.9-0.04-93.9-0.24-140.7m9.61-0.1c-7.25 1.2-0.53 9.3-3.57 13.7-3.22 5 3.04 9.6 0.95 14.8-1.71 14.8-4.65 30-0.72 44.7 2.32 3.6 8.08-0.7 11.51 0.1 1.3-6.8-0.03-13.7-2.65-20 1.56-12.6 5.1-25.6 2.66-38.2-5.43-4.1 2.3-17.7-8.18-15.1m-0.1 157.9c-7.19 1.5-0.15 10.3-3.64 14.6-2.87 4 1.64 8.1 1.2 12.2-1.85 16.3-4.85 32.9 0.21 48.9 3.6 0 7.17-0.4 10.69-1.2 2.2-10.4-4.99-20.2-1.47-30.2 3.31-9.1 1.75-18.9 1.99-28.3-5.93-3.7 1.28-17.2-8.98-16z"/>
<path fill="#e2a6b7" d="m254.09 1511.2c6.98-2.2 14.92-2 21.89 0 0.1 46.6-0.04 93.2 0.03 139.8-0.05 44.9 0.05 89.9-0.04 134.8-7.65 0.2-15.3 0.2-22.93-0.1 0.63-91.5-1.47-183.1 1.05-274.5m7.51 1c-5.77 2-1.88 7.4-1.62 11.5-8.47 7-5.31 22-2.28 31.6 4.41 7.7-3 15.5-1.76 23.6-3.44 8.6 11.26 10.7 12.31 3.3 6.01-16-3.5-33-0.23-49.2 3.06-4.6-2.38-9.3-0.04-13.9 2.3-3.7-2.25-8.8-6.38-6.9m-0.22 157.8c-3.87 3.2-1.62 8.3-1.43 12.5-7.22 4.3-4.89 13.1-4.89 20.1-1.02 8.4 7.51 15.4 2.8 23.9-2.79 5.9-1.92 12.3-0.53 18.4 4.94 0.4 13.08 1.7 11.31-6.3 4.91-17.7-5.67-36.2 1.05-53.4-5.95-4.5 2.93-17.3-8.31-15.2z"/>
<path fill="#b33d80" d="m81.55 1511.3c10.48-2.6 2.75 11 8.18 15.1 2.44 12.6-1.1 25.6-2.66 38.2 2.62 6.3 3.95 13.2 2.65 20-3.43-0.8-9.19 3.5-11.51-0.1-3.93-14.7-0.99-29.9 0.72-44.7 2.09-5.2-4.17-9.8-0.95-14.8 3.04-4.4-3.68-12.5 3.57-13.7z"/>
<path fill="#e4a5b7" d="m169.56 1513.6c1.78-3.5 4.11 0.9 5.21 2.7 21.71 39.3 43.07 78.8 64.17 118.4-0.25 59.4 0.33 118.8-0.02 178.2-1.74 0-5.22 0.1-6.96 0.1-0.05-37.2 0.53-74.6-0.73-111.8 4.1-48-16.02-99.8-56.62-127.2-6.72-3.5-12.52 2.6-17.56 6.1-25.82 21.3-41.94 52.7-46.27 85.7-0.18 6-3.49 12.4-0.68 18.2-0.22 43-0.04 86.1-0.1 129.1-1.48-0.1-4.44-0.2-5.92-0.3-0.13-58.2-0.15-116.3 0.01-174.5-0.86-4.7 1.59-8.6 4.2-12.2 20.12-37.6 41.14-74.8 61.27-112.5m2.59 6.6c-17.44 30.9-34.9 62.1-51.22 93.7 14.9-17.4 25.96-39.9 48.57-48.8 14.38-0.1 22.96 14.1 32.77 22.6 12.39 16 23.99 33.4 29.01 53.2 4.01-8.7-3.5-18.8-7.26-26.9-17.45-31.1-33.18-64.1-51.87-93.8m-53.68 97.9c-3.87 5-9.25 11.2-5.8 17.7 1.23-5 3.1-9.9 6.17-14.1 0.81-1.1 2.16-4.1-0.37-3.6z"/>
<path fill="#b33d80" d="m261.6 1512.2c4.13-1.9 8.68 3.2 6.38 6.9-2.34 4.6 3.1 9.3 0.04 13.9-3.27 16.2 6.24 33.2 0.23 49.2-1.05 7.4-15.75 5.3-12.31-3.3-1.24-8.1 6.17-15.9 1.76-23.6-3.03-9.6-6.19-24.6 2.28-31.6-0.26-4.1-4.15-9.5 1.62-11.5z"/>
<path fill="#c93366" d="m172.15 1520.2c18.69 29.7 34.42 62.7 51.87 93.8 3.76 8.1 11.27 18.2 7.26 26.9-5.02-19.8-16.62-37.2-29.01-53.2-9.81-8.5-18.39-22.7-32.77-22.6-22.61 8.9-33.67 31.4-48.57 48.8 16.32-31.6 33.78-62.8 51.22-93.7m-1.76 20.2c-8.27 1.5-12.71 14.3-4.41 18.6 7.03 8.3 19.59-4.6 14.81-12.6-2.4-3.2-6.3-6.1-10.4-6z"/>
<path fill="#e2a6b6" d="m170.39 1540.4c4.1-0.1 8 2.8 10.4 6 4.78 8-7.78 20.9-14.81 12.6-8.3-4.3-3.86-17.1 4.41-18.6z"/>
<path fill="#960196" d="m157.05 1580.1c5.04-3.5 10.84-9.6 17.56-6.1 40.6 27.4 60.72 79.2 56.62 127.2 1.26 37.2 0.68 74.6 0.73 111.8-3.28 0.1-6.58-0.2-9.84-0.2-0.37-45.8 0.13-91.7-0.22-137.6-5.37-30.8-17.65-61.5-40.1-83.9-4-3.5-9.23-7.8-14.92-5.7-29.36 21.1-42.92 57.6-49 91.9-0.64 44.5 1.46 89.3-0.74 133.7-2.23 0.5-4.88 1.7-6.19-1-0.6-42 1.35-84.4-0.85-126.2-2.81-5.8 0.5-12.2 0.68-18.2 4.33-33 20.45-64.4 46.27-85.7z"/>
<path fill="#e2a6b7" d="m166.88 1585.6c5.69-2.1 10.92 2.2 14.92 5.7 22.45 22.4 34.73 53.1 40.1 83.9 0.35 45.9-0.15 91.8 0.22 137.6-3.14 0.4-6.32 0.6-9.44 1.2h-0.97l0.03-1c1.21-34.7-1.17-69.5 1.28-104.1-1.79-33.3-11.99-67.9-35.92-92.1-2.32-1.5-5.09-5.2-8.04-2.9-7.08 5.5-14.57 11.3-19.02 19.2-8.21 17.6-16.87 35.3-19.27 54.7-2.06 41.3 0.22 82.8-1.07 124.1-4.19 0.2-8.47 0.4-12.56-0.7 2.2-44.4 0.1-89.2 0.74-133.7 6.08-34.3 19.64-70.8 49-91.9z"/>
<path fill="#f0c7dd" d="m0 1651.7c8.29-16.2 13.81-33.8 23.3-49.4-2.53 17.8-15.39 33-19.91 50.6-0.89 0.6-1.78 1.3-2.67 1.9l-0.72 0.6v-3.7z"/>
<path fill="#e3bddc" d="m336.48 1652c-2.95-17.1-14.07-32.3-15.94-49.3 8.56 15.3 12.11 33 19.46 48.9v2.9c-0.46-0.1-1.39-0.3-1.86-0.4-0.41-0.5-1.24-1.6-1.66-2.1z"/>
<path fill="#7c007c" d="m169.06 1613.9c2.95-2.3 5.72 1.4 8.04 2.9 23.93 24.2 34.13 58.8 35.92 92.1-2.45 34.6-0.07 69.4-1.28 104.1-26.6 0-53.2-0.2-79.8 0.2-2.37-41.7 0-83.6-1.17-125.4 2.4-19.4 11.06-37.1 19.27-54.7 4.45-7.9 11.94-13.7 19.02-19.2z"/>
<path fill="#c35d7d" d="m118.47 1618.1c2.53-0.5 1.18 2.5 0.37 3.6-3.07 4.2-4.94 9.1-6.17 14.1-3.45-6.5 1.93-12.7 5.8-17.7z"/>
<path fill="#c24e9b" d="m276.01 1651c20.34-1.5 40.26 2.3 60.47 1 0.42 0.5 1.25 1.6 1.66 2.1-2.56 37.7-0.63 75.8-0.95 113.7-0.31 15-0.13 30.1-0.23 45.2-19.62 0.2-39.25-0.1-58.87 0-0.06-6.7-0.01-13.3-0.1-19.9-0.38-2.8 1.65-7.2-2.02-7.3 0.09-44.9-0.01-89.9 0.04-134.8z"/>
<path fill="#c24e9b" d="m3.39 1652.9c22.93-1.9 45.94 1.5 68.79-0.8-0.39 44.6-0.1 89.3-0.16 133.9-0.03 2-0.02 4 0.03 6 1.74 6.8-2.15 15.8 0.17 21.3-23 0.4-46.67-1.9-69.32 0.7h-0.96c-0.38-51.8 0.28-103.5-0.12-155.3 0.06-1.4-0.11-2.8-1.1-3.9 0.89-0.6 1.78-1.3 2.67-1.9z"/>
<path fill="#b33d80" d="m81.45 1669.2c10.26-1.2 3.05 12.3 8.98 16-0.24 9.4 1.32 19.2-1.99 28.3-3.52 10 3.67 19.8 1.47 30.2-3.52 0.8-7.09 1.2-10.69 1.2-5.06-16-2.06-32.6-0.21-48.9 0.44-4.1-4.07-8.2-1.2-12.2 3.49-4.3-3.55-13.1 3.64-14.6z"/>
<path fill="#b23d80" d="m261.38 1670c11.24-2.1 2.36 10.7 8.31 15.2-6.72 17.2 3.86 35.7-1.05 53.4 1.77 8-6.37 6.7-11.31 6.3-1.39-6.1-2.26-12.5 0.53-18.4 4.71-8.5-3.82-15.5-2.8-23.9 0-7-2.33-15.8 4.89-20.1-0.19-4.2-2.44-9.3 1.43-12.5z"/>
<path fill="#820e77" d="m110.1 1684c2.2 41.8 0.25 84.2 0.85 126.2 1.31 2.7 3.96 1.5 6.19 1 4.09 1.1 8.37 0.9 12.56 0.7 1.29-41.3-0.99-82.8 1.07-124.1 1.17 41.8-1.2 83.7 1.17 125.4-7.32-0.1-14.63-0.2-21.94-0.1 0.06-43-0.12-86.1 0.1-129.1z"/>
<path fill="#e4b4d3" d="m337.19 1767.8c0.87 14.7 2.03 32-0.23 45.2 0.1-15.1-0.08-30.2 0.23-45.2z"/>
<path fill="#960295" d="m72.02 1786c7.33 0 14.67-0.1 21.99-0.5 0.24 1.5 0.73 4.7 0.97 6.3-7.65 0.1-15.29 0.2-22.93 0.2-0.05-2-0.06-4-0.03-6z"/>
<path fill="#960294" d="m253.04 1785.7c7.63 0.3 15.28 0.3 22.93 0.1 3.67 0.1 1.64 4.5 2.02 7.3-8.29-0.1-16.58-0.3-24.85 0.2-0.95-2.5-1.68-5.2-0.1-7.6z"/>
<path fill="#fccbcb" d="m72.05 1792c7.64 0 15.28-0.1 22.93-0.2 1.33 6.9-0.21 14.1 0.9 21.2-7.89-0.2-15.78 0.1-23.66 0.3-2.32-5.5 1.57-14.5-0.17-21.3z"/>
<path fill="#fccacb" d="m253.14 1793.3c8.27-0.5 16.56-0.3 24.85-0.2 0.09 6.6 0.04 13.2 0.1 19.9-0.42 0.2-1.27 0.7-1.69 1h-23.02c-3.62-5.6 1.13-14.2-0.24-20.7z"/>
<path fill="#f5b5f4" d="m110 1813.1c7.31-0.1 14.62 0 21.94 0.1 26.6-0.4 53.2-0.2 79.8-0.2l-0.03 1h-101.22l-0.49-0.9z"/>
<path d="m170.93 0h8.08c0.43 8.18-1.11 16.57 0.51 24.66 4.28 0.57 8.8-0.34 12.99 0.87 1.08 2.75 1.67 7.14-1.41 8.8 0.86-4.27 2.4-10.95-5.4-8.2-18.35 5.09 0.37-26.49-13.53-25.31-3.1 7.62 0 16.79-1.4 25.01-4.53 0.86-10.02-1.42-14.03 1.37-2.99 10.31 8.45 5.7 14.13 7 0.14 10.79 0.55 21.61 0.04 32.38-0.95 0.59-1.91 1.13-2.9 1.63 4.97-8.18 0.7-18.97 2.01-28.02 3.59-11.37-16.1 0.05-15.11-9.16-2.71-9.92 9.78-4.6 14.63-6.41 1.52-8.11-0.69-16.56 1.39-24.62z" fill="#a99c85"/>
<path d="m172.17 0.82c13.9-1.18-4.82 30.4 13.53 25.31 7.8-2.75 6.26 3.93 5.4 8.2-3.76 1.48-8.13 0.09-12.04 0.75-4.8 6.84-1.22 22.23-1.87 32.24 12.51 5.47 10.15 21.65-0.92 27.17-1.82 0.04-3.64-0.08-5.45-0.09-13.1-2.13-15.47-21.76-2.81-26.19 0.99-0.5 1.95-1.04 2.9-1.63 0.51-10.77 0.1-21.59-0.04-32.38-5.68-1.3-17.12 3.31-14.13-7 4.01-2.79 9.5-0.51 14.03-1.37 1.4-8.22-1.7-17.39 1.4-25.01z" fill="#f4a202"/>
<path d="m177.19 67.32c0.65-10.01-2.93-25.4 1.87-32.24 2.25 12.13-5.82 28.78 5.72 37.52 6.41 7.41 0.54 18.92-7.73 21.91l-0.78-0.02c11.07-5.52 13.43-21.7 0.92-27.17z" fill="#b79e6d"/>
<path d="m170.82 94.4c1.81 0.01 3.63 0.13 5.45 0.09l0.78 0.02c-0.14 1.36-0.26 2.72-0.34 4.08-0.53 4.48-0.69 9.02 0.15 13.48 7.86 67.53 17.79 134.84 24.56 202.48 7.78 63.44 15.79 126.86 23.67 190.29 1.13 16.84 2.7 33.71 5.71 50.32-1.44 7.03-2.7 14.13-4.78 21.02-18.2-40.55-35.78-81.44-54.35-121.81-0.73-2.45-2.87-0.05-3.05 1.44-14.68 40.33-29.73 80.56-43.88 121.05-1.79 0.25-3.48-0.41-5.08-1.11 0.09-1.5 0.18-2.98 0.18-4.47 0.01 2.55 1.49 7.38 3.25 3.73 16.68-150.11 28.94-300.61 46.32-450.66 0.31-6.5 2.25-13.07 1.1-19.58 0-3.47 0.25-6.91 0.31-10.37z" fill="#9f3583"/>
<path d="m176.86 112.07c-0.84-4.46-0.68-9-0.15-13.48 24.32 124.2 47.71 248.72 70.55 373.35 0.57 3.24 0.52 6.55-0.54 9.72-5.6 24.43-10.47 49.03-15.92 73.5-3.01-16.61-4.58-33.48-5.71-50.32-7.88-63.43-15.89-126.85-23.67-190.29-6.77-67.64-16.7-134.95-24.56-202.48z" fill="#650164"/>
<path d="m170.51 104.77c1.15 6.51-0.79 13.08-1.1 19.58-17.38 150.05-29.64 300.55-46.32 450.66-1.76 3.65-3.24-1.18-3.25-3.73-3.82-34.51-12.71-68.3-16.12-102.86 2.75-11.22 4.8-22.59 6.74-33.97 8.76-58.74 22.15-116.71 30.76-175.48 9.51-51.44 19.41-102.87 29.29-154.2z" fill="#650164"/>
<path d="m97.76 455.8c3.37-8.63 4.51 9.78 5.96 12.62 3.41 34.56 12.3 68.35 16.12 102.86 0 1.49-0.09 2.97-0.18 4.47-0.29 1.12-0.58 2.25-0.86 3.38-6.54-28.57-13.22-57.12-20.52-85.5-7.47 27.39-12.6 55.38-20.38 82.67-1.07-1.35-1.93-2.84-2.36-4.51 7.28-38.69 14.98-77.3 22.22-115.99z" fill="#d5657e"/>
<path d="m168.62 455.81c0.18-1.49 2.32-3.89 3.05-1.44 18.57 40.37 36.15 81.26 54.35 121.81-7.77-0.63-12.51 2.29-11.05 10.04-14.25-23.52-25.93-48.57-40.16-72.09-3.11 0.46-4.51 4.14-6.62 6.09-12.82 20.55-21.79 43.22-34.12 64.05 3.23-7.24-2.33-10.04-9.33-7.41 14.15-40.49 29.2-80.72 43.88-121.05z" fill="#d7657a"/>
<path d="m251.9 452.69c2.34 1.72 2.63 4.8 3.2 7.42 5.33 36.48 11.6 72.85 17.3 109.29 2.09 7.39 3.31 14.93 2.45 22.65-8.34-32.11-15.92-64.46-22.94-96.89-0.41 0.04-1.24 0.12-1.65 0.17-6.15 27.71-13.53 55.15-19.87 82.83-1.45-0.68-2.91-1.34-4.37-1.98 2.08-6.89 3.34-13.99 4.78-21.02 5.45-24.47 10.32-49.07 15.92-73.5 1.06-3.17 1.11-6.48 0.54-9.72 4.22-4.96 1.57-13.37 4.64-19.25z" fill="#d5657d"/>
<g fill="#650164">
<path d="m98.28 493.63c7.3 28.38 13.98 56.93 20.52 85.5 2.47 9.49 2.74 19.36 2.25 29.11-0.7 2.25-3.44 2.08-5.22 2.94-1.99-0.01-1.93 1.72-1.96 3.23-1.72-5.55-6.64-9.45-6.86-15.71-1.71-12.07-3.61-24.49-7.97-35.94-4.06 1.71-3.38 7.19-4.78 10.55-0.92 7.89-5.65 15.62-4.19 23.67-1.88 4.82-2.86 9.93-4.55 14.82 0.01-1.97-2.22-4.06-3.62-1.76-0.43 0.06-1.28 0.2-1.71 0.26-2.12-1.17-4.34-2.14-6.61-2.99-2.53-4.92-0.88-10.28 0.45-15.31 2.14-4.99 2.89-10.4 3.87-15.7 7.78-27.29 12.91-55.28 20.38-82.67z"/>
<path d="m250.26 495.33c0.41-0.05 1.24-0.13 1.65-0.17 7.02 32.43 14.6 64.78 22.94 96.89 1.73 5.23 3.15 11.03 0.72 16.31-2.16 1.11-4.37 2.14-6.59 3.11-1.06-0.36-2.11-0.73-3.15-1.1-4.53-2.44-5.02-8.09-6.7-12.41 0.93-9.72-4.36-19-5.37-28.62-0.3-2.14-2.46-8-4.48-4.02-1.64 10.82-6.83 21.56-6.6 32.57-1.92 4.96-3.31 10.08-4.73 15.21-3.09 0.94-0.65-6.15-3.03-2.94-1.64-0.49-3.31-0.84-4.95-1.26-7.68-7.2-1.39-21.25 0.42-30.74 6.34-27.68 13.72-55.12 19.87-82.83z"/>
<path d="m168.19 520.22c2.11-1.95 3.51-5.63 6.62-6.09 14.23 23.52 25.91 48.57 40.16 72.09 0.1 7.61 0.05 15.23-0.03 22.86-5.55 0.98-8.78-3.78-10.89-8.1-2.72-7.03-6.55-13.52-10.25-20.06-0.5-1.02-1.01-2.03-1.56-3.01-6.41-10.86-12.52-21.89-18.39-33.05-5.92 6.52-8.52 15.42-13.13 22.89-5.83 10.53-10.88 21.47-16.64 32.03-1.37 2.73-2.7 5.48-3.84 8.31-1.86 1.38-4.07 1.97-6.35 2.07 0.32-8.63-0.36-17.28 0.18-25.89 12.33-20.83 21.3-43.5 34.12-64.05z"/>
</g>
<path d="m160.72 567.75c4.61-7.47 7.21-16.37 13.13-22.89 5.87 11.16 11.98 22.19 18.39 33.05-6.41-2.32-10.84-17.99-20.75-17.43-3.86 1.99-7.24 4.77-10.77 7.27z" fill="#d6697c"/>
<path d="m171.49 560.48c9.91-0.56 14.34 15.11 20.75 17.43 0.55 0.98 1.06 1.99 1.56 3.01 2.44 15.65 14.43 32.06 10.49 47.95-2.88-11.33-5.63-23.49-14.55-31.75-12.87 4.13-12.31 21.51-17.9 30.58-2.77-8.96-5.04-23.06-15.02-28.58-9.48 2.32-10.62 14.32-14.49 21.73-0.88-7.08 0.9-14.08 1.75-21.07 5.76-10.56 10.81-21.5 16.64-32.03 3.53-2.5 6.91-5.28 10.77-7.27z" fill="#7c017c"/>
<path d="m94.26 573.31c1.4-3.36 0.72-8.84 4.78-10.55 4.36 11.45 6.26 23.87 7.97 35.94-9.94 1.53-3.34 16.63-8.98 21.47-3.69-6.75-0.64-19.2-7.96-23.19-1.46-8.05 3.27-15.78 4.19-23.67z" fill="#7b017a"/>
<path d="m249.28 565.32c2.02-3.98 4.18 1.88 4.48 4.02 1.01 9.62 6.3 18.9 5.37 28.62-8.01 5.07-4.55 16.88-8.07 24.19-1.28-8.36-2.35-16.88-5.36-24.83-1.01 0.16-2.02 0.35-3.02 0.57-0.23-11.01 4.96-21.75 6.6-32.57z" fill="#7b017b"/>
<path d="m74.03 592c0.04-6.77-0.18-13.61 1.51-20.21 0.43 1.67 1.29 3.16 2.36 4.51-0.98 5.3-1.73 10.71-3.87 15.7z" fill="#d8a4c3"/>
<path d="m118.8 579.13c0.28-1.13 0.57-2.26 0.86-3.38 1.6 0.7 3.29 1.36 5.08 1.11 7-2.63 12.56 0.17 9.33 7.41-0.54 8.61 0.14 17.26-0.18 25.89 0.26 51.61 0.02 103.23 0.13 154.84 0.12 12.64-0.38 25.29 0.12 37.93 8.48 0.22 16.96 0.1 25.44 0.12l0.09 0.97c-8.53-0.04-17.07-0.29-25.59 0.15-0.25 7.05-0.15 14.11-0.15 21.18 0.04 9.63 0.03 19.27-0.02 28.92 0.08 16.82 0.15 33.65 0.01 50.49 1.12 3.41-2.04 9.35 2.13 11.47 0.07 1.27 0.12 2.55 0.15 3.84-0.7-0.25-2.08-0.75-2.78-1 0.38 10.21 0.64 20.43 1.01 30.66-1.05 46.67-0.03 93.37-0.53 140.07 0.29 2.6-1.15 11 4.2 9.3 3.96-0.1 7.92-0.1 11.88-0.1 5.34 0 10.68 0.1 16.02 0h20 16 7.99c2.88-0.3 8.47 1.4 5.06-5.1-0.58-48.4 0.94-96.78-0.79-145.11 3.23-6.95-11.28-1.4-14.42-3.43 5.01-0.21 10.07 0.08 15.05-0.59-0.58-26.84 0.33-53.67 0.04-80.53 0-4.29 0.15-8.52 0.11-12.76-0.09-10.72 0.02-21.43 0.08-32.13 1.14-8.59 1.82-18.4-9.16-15.59l-0.9-0.01c-4.62 0.02-9.23 0.12-13.84 0.31v-0.99c7.89-0.47 15.81 0.34 23.7-0.18 0.29-12.64 0.04-25.27 0.06-37.89 0-51.98 0.1-103.95-0.04-155.92 0.08-7.63 0.13-15.25 0.03-22.86-1.46-7.75 3.28-10.67 11.05-10.04 1.46 0.64 2.92 1.3 4.37 1.98-1.81 9.49-8.1 23.54-0.42 30.74 2.14 1.53 5.51 2.44 3.09 6.57-0.12 49.84-0.05 99.69-0.05 149.54 0.91 12.93-1.82 26.36 0.94 39.06-2.17 35.18-0.46 70.63-0.83 105.91 0.5 5.03 0.94 10.23-6.04 8.34-0.13 60.18-0.15 120.38 0.01 180.58 2.56-0.1 7.68-0.1 10.23-0.1 1.52-0.1 3.03-0.2 4.55-0.1 3.21 0.1 6.46 0.5 9.7 0.3 1.7 6.5 0.78 13.3 0.59 20-52.39 0-104.78 0.1-157.16-0.1 0.14-6.9-0.51-13.8 0.92-20.5 3.94-0.2 8.36 1.8 11.99-0.4 1.2 0.3 2.4 0.6 3.62 0.8 3.1 0.3 6.29 0.5 9.39 0 0.14-62.9 0.14-125.86-0.01-188.81-1.51-4.66 4.23-15.92-4.78-14.49-1.01-30.53 1.23-61.4-0.94-91.72 1.13-12.86 0.06-25.82 0.78-38.73-0.03-51.29 0.23-102.58-0.14-153.87 1.78-0.86 4.52-0.69 5.22-2.94 0.49-9.75 0.22-19.62-2.25-29.11z" fill="#e2a6b6"/>
<path d="m204.29 628.87c3.94-15.89-8.05-32.3-10.49-47.95 3.7 6.54 7.53 13.03 10.25 20.06 0.44 6.27 2.47 12.22 3.6 18.37-1.51 45.5-0.13 91.06-0.75 136.58-22.61 0.08-45.24 0.25-67.84-0.05 0.67-49.23-1.67-98.7 1.18-147.79 1.14-2.83 2.47-5.58 3.84-8.31-0.85 6.99-2.63 13.99-1.75 21.07 3.87-7.41 5.01-19.41 14.49-21.73 9.98 5.52 12.25 19.62 15.02 28.58 5.59-9.07 5.03-26.45 17.9-30.58 8.92 8.26 11.67 20.42 14.55 31.75m-15.98-28.58c-7.5 6.53-10.24 16.84-13.09 26.05-1.02 42.61 0.9 85.39-0.94 128 9.88-0.42 19.77-0.28 29.67-0.38-0.13-38.5 0.53-77.03-0.34-115.51-2.17-13.11-5.8-29.54-15.3-38.16m-32.86 1.98c-7.22 6.15-9.51 16.4-12.1 25.23-0.8 41.77-0.18 83.61-0.31 125.41 9.28 0.37 18.58 0.07 27.87 0.05 0.16-37.56 0.16-75.15-0.01-112.71-1.22-13.01-4.17-26.46-12.24-37.04-0.64-1.13-2.06-1.52-3.21-0.94z" fill="#fcb8af"/>
<path d="m90.07 596.98c7.32 3.99 4.27 16.44 7.96 23.19 5.64-4.84-0.96-19.94 8.98-21.47 0.22 6.26 5.14 10.16 6.86 15.71 0.22 47.17 0.19 94.34 0.04 141.51-10.27 0.23-20.56 0.27-30.83-0.01 0.45-48.65-0.86-97.24-1.18-145.87 1.4-2.3 3.63-0.21 3.62 1.76 1.69-4.89 2.67-10 4.55-14.82m0.23 5.44c-11.83 47.95-0.87 97.86-4.51 146.59-3.55 9.37 7.45 1.51 11.09 3.82 0.31-35.57 0.01-71.15 0.14-106.72-0.96-14.82-1.48-29.94-6.07-44.19l-0.65 0.5m14.74 0.31c-4.35 12.81-5.78 26.7-5.05 40.21 0.07 36.67-0.08 73.35 0.05 110.02 2.73 0 8.17 0.01 10.89 0.01 0.07-40.56 0.22-81.13-0.07-121.68-1.12-9.57-0.99-19.97-5.82-28.56z" fill="#fdbeaa"/>
<path d="m242.68 597.89c1-0.22 2.01-0.41 3.02-0.57 3.01 7.95 4.08 16.47 5.36 24.83 3.52-7.31 0.06-19.12 8.07-24.19 1.68 4.32 2.17 9.97 6.7 12.41 2.75 45.43 0.29 91.04 1.28 136.54-1.18 2.44 1.41 7.03-0.98 9.17-9.96-0.1-19.91 0.15-29.85-0.28-3.05-48.36-0.32-97.13-1.36-145.64 2.38-3.21-0.06 3.88 3.03 2.94 1.42-5.13 2.81-10.25 4.73-15.21m14.49 6.36c-2.01 11.15-4.58 22.33-4.21 33.74 0.13 38.32-0.07 76.63 0.09 114.95 3.94 0.2 7.88 0.21 11.84 0.02-0.73-45.56 2.65-91.41-3.08-136.74-2.05-3.04-0.3-11.6-4.64-11.97m-14.95 0.81c-1.5 9.25-3.76 18.47-3.26 27.93 0.13 39.99-0.07 79.98 0.09 119.97 2.47 0.01 7.43 0.01 9.9 0.02-1.48-49.22 3.57-98.88-3.21-147.78-1.17-0.19-2.34-0.24-3.52-0.14z" fill="#febeb3"/>
<path d="m188.31 600.29c9.5 8.62 13.13 25.05 15.3 38.16 0.87 38.48 0.21 77.01 0.34 115.51-9.9 0.1-19.79-0.04-29.67 0.38 1.84-42.61-0.08-85.39 0.94-128 2.85-9.21 5.59-19.52 13.09-26.05z" fill="#7c007c"/>
<path d="m204.05 600.98c2.11 4.32 5.34 9.08 10.89 8.1 0.14 51.97 0.04 103.94 0.04 155.92h-80.96c-0.11-51.61 0.13-103.23-0.13-154.84 2.28-0.1 4.49-0.69 6.35-2.07-2.85 49.09-0.51 98.56-1.18 147.79 22.6 0.3 45.23 0.13 67.84 0.05 0.62-45.52-0.76-91.08 0.75-136.58-1.13-6.15-3.16-12.1-3.6-18.37z" fill="#d66779"/>
<path d="m90.3 602.42l0.65-0.5c4.59 14.25 5.11 29.37 6.07 44.19-0.13 35.57 0.17 71.15-0.14 106.72-3.64-2.31-14.64 5.55-11.09-3.82 3.64-48.73-7.32-98.64 4.51-146.59z" fill="#7c017a"/>
<path d="m155.45 602.27c1.15-0.58 2.57-0.19 3.21 0.94 8.07 10.58 11.02 24.03 12.24 37.04 0.17 37.56 0.17 75.15 0.01 112.71-9.29 0.02-18.59 0.32-27.87-0.05 0.13-41.8-0.49-83.64 0.31-125.41 2.59-8.83 4.88-19.08 12.1-25.23z" fill="#7c007c"/>
<path d="m105.04 602.73c4.83 8.59 4.7 18.99 5.82 28.56 0.29 40.55 0.14 81.12 0.07 121.68-2.72 0-8.16-0.01-10.89-0.01-0.13-36.67 0.02-73.35-0.05-110.02-0.73-13.51 0.7-27.4 5.05-40.21z" fill="#7c017b"/>
<path d="m257.17 604.25c4.34 0.37 2.59 8.93 4.64 11.97 5.73 45.33 2.35 91.18 3.08 136.74-3.96 0.19-7.9 0.18-11.84-0.02-0.16-38.32 0.04-76.63-0.09-114.95-0.37-11.41 2.2-22.59 4.21-33.74z" fill="#7c017a"/>
<path d="m242.22 605.06c1.18-0.1 2.35-0.05 3.52 0.14 6.78 48.9 1.73 98.56 3.21 147.78-2.47-0.01-7.43-0.01-9.9-0.02-0.16-39.99 0.04-79.98-0.09-119.97-0.5-9.46 1.76-18.68 3.26-27.93z" fill="#7c017b"/>
<path d="m73.58 607.31c2.27 0.85 4.49 1.82 6.61 2.99-0.42 51.57-0.09 103.14-0.18 154.71 0.9 12.93-1.79 26.35 0.93 39.06-2.26 30.38-0.26 61.02-0.92 91.51-2.44 0.33-4.83 0.9-7.16 1.7 1.59-6.29 1.16-12.87 1.21-19.27-0.45-90.23 0.54-180.48-0.49-270.7z" fill="#e1a6b8"/>
<path d="m268.98 611.47c2.22-0.97 4.43-2 6.59-3.11-1.29 95.73-0.27 191.55-0.51 287.31-1.47 0.03-4.4 0.08-5.87 0.11-0.55-30.52 0.08-61.06-0.28-91.58 0.7-0.19 2.1-0.58 2.8-0.78 0.47-12.72 0.58-25.49 0.19-38.2-0.72-0.16-2.16-0.48-2.87-0.64 0.04-0.72 0.13-2.18 0.17-2.9 0.12-1.93 0.17-3.85 0.18-5.76-0.87-48.14-0.12-96.3-0.4-144.45z" fill="#dfa7b9"/>
<path d="m229.97 608.9c1.64 0.42 3.31 0.77 4.95 1.26 1.04 48.51-1.69 97.28 1.36 145.64-2.74 1.59-3.9 8.2 0.46 7.78 10.32-1.27 23.58 4.52 32.46-1.9-0.04 0.72-0.13 2.18-0.17 2.9-12 0.6-24.01 0.42-36.02 0.43 0-49.85-0.07-99.7 0.05-149.54 2.42-4.13-0.95-5.04-3.09-6.57z" fill="#d0717e"/>
<path d="m80.19 610.3c0.43-0.06 1.28-0.2 1.71-0.26 0.32 48.63 1.63 97.22 1.18 145.87 10.27 0.28 20.56 0.24 30.83 0.01 0.15-47.17 0.18-94.34-0.04-141.51 0.03-1.51-0.03-3.24 1.96-3.23 0.37 51.29 0.11 102.58 0.14 153.87-11.99-0.06-23.97-0.08-35.96-0.04 0.09-51.57-0.24-103.14 0.18-154.71z" fill="#d56879"/>
<path d="m265.83 610.37c1.04 0.37 2.09 0.74 3.15 1.1 0.28 48.15-0.47 96.31 0.4 144.45-2.5 2.08-8.46 3.98-3.25 0.16 2.39-2.14-0.2-6.73 0.98-9.17-0.99-45.5 1.47-91.11-1.28-136.54z" fill="#d26a78"/>
<path d="m236.28 755.8c9.94 0.43 19.89 0.18 29.85 0.28-5.21 3.82 0.75 1.92 3.25-0.16-0.01 1.91-0.06 3.83-0.18 5.76-8.88 6.42-22.14 0.63-32.46 1.9-4.36 0.42-3.2-6.19-0.46-7.78z" fill="#d76679"/>
<path d="m80.01 765.01c11.99-0.04 23.97-0.02 35.96 0.04-0.72 12.91 0.35 25.87-0.78 38.73-11.42 0.32-22.84 0.18-34.25 0.29-2.72-12.71-0.03-26.13-0.93-39.06z" fill="#fccbca"/>
<path d="m134.02 765h80.96c-0.02 12.62 0.23 25.25-0.06 37.89-7.89 0.52-15.81-0.29-23.7 0.18-0.69 0.24-2.08 0.72-2.77 0.96-3.64-0.11-7.28-0.26-10.91-0.45-1.4 0.01-2.78-0.29-4.17-0.06-3.34 0.22-6.66 0.52-10.01 0.7-0.61-2.59-1.84-2.95-3.78-1.17-8.48-0.02-16.96 0.1-25.44-0.12-0.5-12.64 0-25.29-0.12-37.93z" fill="#fccbca"/>
<path d="m233.01 765.01c12.01-0.01 24.02 0.17 36.02-0.43 0.71 0.16 2.15 0.48 2.87 0.64 0.39 12.71 0.28 25.48-0.19 38.2-0.7 0.2-2.1 0.59-2.8 0.78-11.66-0.28-23.31-0.27-34.96-0.13-2.76-12.7-0.03-26.13-0.94-39.06z" fill="#fccaca"/>
<path d="m159.58 803.05c1.94-1.78 3.17-1.42 3.78 1.17 0.76 6.19-2.31 14.39 0.37 19.81 2.76-7.06 7.93-13.06 9.64-20.51 1.39-0.23 2.77 0.07 4.17 0.06 2.74 7.35 6.82 14.13 10.98 20.75 1.05-6.74 0.8-13.58-0.07-20.3 0.69-0.24 2.08-0.72 2.77-0.96v0.99c-0.14 7.78-0.84 15.68 0.19 23.42 4.67-7.84 8.75-16.02 13.65-23.73l0.9 0.01c2.84 5.31 5.42 10.82 9.16 15.59-0.06 10.7-0.17 21.41-0.08 32.13-4.8-3.32-8.03-22.5-13.58-10.84-2.3 5.68-4.56 11.47-10.5 14.42-0.22 20.25 0.4 40.5-0.16 60.76-1.41 9.64-0.41 19.39-0.87 29.09-2.57-7.09-0.14-18.78-0.66-27.71-0.64-20.86 0.06-41.75-0.33-62.59-8.24-3.75-6.96-15.16-13.78-19.73-1.83 3.32-3.6 6.71-5.42 10.06-1.16 2.08-1.88 4.37-2.4 6.7-1.37 1.17-2.73 2.35-4.05 3.58-0.92 1.43-2.34 0.86-3.66 0.46-1.47-1.37-3.05-2.61-4.61-3.86-1.48-3.95-3.85-7.48-6.07-11.02-0.84-1.45-1.59-3.04-3.01-3.99-4.46 5.49-6.23 13.05-12.03 17.46 0.05-9.65 0.06-19.29 0.02-28.92 4.34-6.69 8.29-13.61 12.24-20.53 5.49 6.69 8.78 14.97 13.38 22.32 1.49-7.33 0.42-15.49 0.12-23.12l-0.09-0.97z" fill="#650164"/>
<path d="m80.02 895.58c0.66-30.49-1.34-61.13 0.92-91.51 11.41-0.11 22.83 0.03 34.25-0.29 2.17 30.32-0.07 61.19 0.94 91.72 9.01-1.43 3.27 9.83 4.78 14.49-7.31-0.23-15 1.4-21.91-1.67-8.07 3.41-17.34 1.17-25.95 1.69-0.14-4.25-0.34-8.52-0.19-12.73 2.33-0.8 4.72-1.37 7.16-1.7m17.33-80.31c-4.45 4.14-8.51 9.45-8.2 15.91-0.37 23.78-0.07 47.58-0.16 71.38 6.08 2.88 13.46 3.62 20.17 5.35-2.32-28.88 5.31-59.65-7.12-86.93-1.41-1.54-2.24-6.18-4.69-5.71z" fill="#d7657b"/>
<path d="m134.08 804.17c8.52-0.44 17.06-0.19 25.59-0.15 0.3 7.63 1.37 15.79-0.12 23.12-4.6-7.35-7.89-15.63-13.38-22.32-3.95 6.92-7.9 13.84-12.24 20.53 0-7.07-0.1-14.13 0.15-21.18z" fill="#d6657c"/>
<path d="m163.36 804.22c3.35-0.18 6.67-0.48 10.01-0.7-1.71 7.45-6.88 13.45-9.64 20.51-2.68-5.42 0.39-13.62-0.37-19.81z" fill="#d6657c"/>
<path d="m177.54 803.58c3.63 0.19 7.27 0.34 10.91 0.45 0.87 6.72 1.12 13.56 0.07 20.3-4.16-6.62-8.24-13.4-10.98-20.75z" fill="#d5647c"/>
<path d="m191.22 804.06c4.61-0.19 9.22-0.29 13.84-0.31-4.9 7.71-8.98 15.89-13.65 23.73-1.03-7.74-0.33-15.64-0.19-23.42z" fill="#d6657b"/>
<path d="m205.96 803.76c10.98-2.81 10.3 7 9.16 15.59-3.74-4.77-6.32-10.28-9.16-15.59z" fill="#d7657d"/>
<path d="m233.12 909.98c0.37-35.28-1.34-70.73 0.83-105.91 11.65-0.14 23.3-0.15 34.96 0.13 0.36 30.52-0.27 61.06 0.28 91.58 1.47-0.03 4.4-0.08 5.87-0.11 1.64 4.94 1.07 10.18 1.11 15.32-7.34-1.28-14.8-0.94-22.2-1.28 3.21-1.34 6.57-2.22 9.85-3.34 0.46-19.77 0.08-39.56 0.19-59.34 0.43-9.5-1.78-19.6-8.41-26.71-0.77-1.4-3.51-2.06-3.63 0.55-3.53 5.39-7.21 11.1-7.59 17.75-1.03 23.73 0.07 47.5-0.51 71.25-3.59 0.15-7.16 0.23-10.75 0.11z" fill="#d7657b"/>
<path d="m97.35 815.27c2.45-0.47 3.28 4.17 4.69 5.71 12.43 27.28 4.8 58.05 7.12 86.93-6.71-1.73-14.09-2.47-20.17-5.35 0.09-23.8-0.21-47.6 0.16-71.38-0.31-6.46 3.75-11.77 8.2-15.91z" fill="#970197"/>
<path d="m251.97 820.87c0.12-2.61 2.86-1.95 3.63-0.55 6.63 7.11 8.84 17.21 8.41 26.71-0.11 19.78 0.27 39.57-0.19 59.34-3.28 1.12-6.64 2-9.85 3.34-3.37-0.34-6.74-0.23-10.1 0.16 0.58-23.75-0.52-47.52 0.51-71.25 0.38-6.65 4.06-12.36 7.59-17.75z" fill="#970097"/>
<path d="m175.16 834.88c6.82 4.57 5.54 15.98 13.78 19.73 0.39 20.84-0.31 41.73 0.33 62.59-0.65-0.36-1.95-1.07-2.6-1.43-1.26-24.53 6.22-52.69-9.38-74.12-3.49-3.74-5.8 9.33-7.55 3.29 1.82-3.35 3.59-6.74 5.42-10.06z" fill="#d66288"/>
<path d="m201.46 840.64c5.55-11.66 8.78 7.52 13.58 10.84 0.04 4.24-0.11 8.47-0.11 12.76-4.2-7.68-4.37-19.9-13.47-23.6z" fill="#d56287"/>
<path d="m133.91 854.27c5.8-4.41 7.57-11.97 12.03-17.46 1.42 0.95 2.17 2.54 3.01 3.99-7.24 4.24-9.68 12.64-12.2 20.07-1.7 18.37-0.38 36.91-0.7 55.36-4.17-2.12-1.01-8.06-2.13-11.47 0.14-16.84 0.07-33.67-0.01-50.49z" fill="#d46587"/>
<g fill="#970198">
<path d="m136.75 860.87c2.52-7.43 4.96-15.83 12.2-20.07 2.22 3.54 4.59 7.07 6.07 11.02 1.84 6.61 2.47 13.54 5.14 19.94 0.27 3.4 0.55 6.87-0.2 10.25-2.42 20.86-0.03 41.97-1.09 62.92-7.59 0.14-15.22 0.5-22.8-0.06-0.41-8.29 0.06-16.54 0.13-24.8-0.03-1.29-0.08-2.57-0.15-3.84 0.32-18.45-1-36.99 0.7-55.36z"/>
<path d="m169.74 844.94c1.75 6.04 4.06-7.03 7.55-3.29 15.6 21.43 8.12 49.59 9.38 74.12 0.03 9.71 0.87 19.46 0.21 29.18-7.6 0.12-15.23 0.44-22.81-0.04-0.21-8.39-0.02-16.74-0.25-25.1 0.81-22.78-1.91-45.91 3.52-68.17 0.52-2.33 1.24-4.62 2.4-6.7z"/>
<path d="m190.96 855.06c5.94-2.95 8.2-8.74 10.5-14.42 9.1 3.7 9.27 15.92 13.47 23.6 0.29 26.86-0.62 53.69-0.04 80.53-4.98 0.67-10.04 0.38-15.05 0.59-2.58-0.09-5.14-0.28-7.68-0.57-0.49-9.66-0.9-19.32-1.36-28.97 0.56-20.26-0.06-40.51 0.16-60.76z"/>
</g>
<path d="m155.02 851.82c1.56 1.25 3.14 2.49 4.61 3.86 0.23 5.34 0.29 10.71 0.53 16.08-2.67-6.4-3.3-13.33-5.14-19.94z" fill="#d4618a"/>
<path d="m167.34 851.64c-5.43 22.26-2.71 45.39-3.52 68.17-1.74 7.97 0.56 18.56-1.82 25.11 0.3-29.91 1.27-59.79 1.29-89.7 1.32-1.23 2.68-2.41 4.05-3.58z" fill="#d56288"/>
<path d="m159.63 855.68c1.32 0.4 2.74 0.97 3.66-0.46-0.02 29.91-0.99 59.79-1.29 89.7-0.5 0.02-1.49 0.06-1.98 0.08-0.1-21 0.01-42-0.06-62.99 0.75-3.38 0.47-6.85 0.2-10.25-0.24-5.37-0.3-10.74-0.53-16.08z" fill="#700753"/>
<path d="m158.87 944.93c1.06-20.95-1.33-42.06 1.09-62.92 0.07 20.99-0.04 41.99 0.06 62.99 0.49-0.02 1.48-0.06 1.98-0.08 2.38-6.55 0.08-17.14 1.82-25.11 0.23 8.36 0.04 16.71 0.25 25.1 7.58 0.48 15.21 0.16 22.81 0.04 0.66-9.72-0.18-19.47-0.21-29.18 0.65 0.36 1.95 1.07 2.6 1.43 0.52 8.93-1.91 20.62 0.66 27.71 0.46-9.7-0.54-19.45 0.87-29.09 0.46 9.65 0.87 19.31 1.36 28.97 2.54 0.29 5.1 0.48 7.68 0.57 3.14 2.03 17.65-3.52 14.42 3.43-4.37 2.61-2.47 11.84-9.3 10.17-5.7 0.97-2.15-8.75-6.98-10.01-5.02-4.83-12.76 1.02-12.14 7.07-6.56-0.05-13.12-0.06-19.68 0.06 0.58-9.29-14.04-12.31-16.09-2.82-2.12 4.56-7.82 2.17-11.73 3-0.8-2.46-2.26-4.58-3.91-6.53-0.37-10.23-0.63-20.45-1.01-30.66 0.7 0.25 2.08 0.75 2.78 1-0.07 8.26-0.54 16.51-0.13 24.8 7.58 0.56 15.21 0.2 22.8 0.06z" fill="#fdcacc"/>
<path d="m99 908.32c6.91 3.07 14.6 1.44 21.91 1.67 0.15 62.95 0.15 125.91 0.01 188.81-3.1 0.5-6.29 0.3-9.39 0-1.25-45.5-0.14-91.2-0.54-136.78h-2.99c-0.09 45.28 0.14 90.68-0.09 135.98-3.63 2.2-8.05 0.2-11.99 0.4-1.23-0.9-2.66-1.4-4.12-1.7 0.39-44.9 0.19-89.8 0.15-134.68h-2.98c-0.01 44.98 0.13 89.98-0.04 134.88-4.99 0.1-9.99 0.3-14.96-0.1 0.13-51.8-0.11-103.65 0.14-155.46-0.18-1.38 0.29-3.34-1.21-4.1-1.14-8.22 1.15-18.42 0.15-27.23 8.61-0.52 17.88 1.72 25.95-1.69m0.38 22.02c-6.2 3.13-8.07 8.56-0.38 11.73 6.71-2.82 8.96-10.18 0.38-11.73z" fill="#650164"/>
<path d="m243.87 909.87c3.36-0.39 6.73-0.5 10.1-0.16 7.4 0.34 14.86 0 22.2 1.28 0.23 61.48-0.6 123.01-0.04 184.51-5.46 1.8-11.3 1.9-16.96 1.4-0.5-44.6 0.08-89.3-0.23-133.88-0.5 0-1.49-0.01-1.99-0.01 0.06 43.89 0.07 87.79 0.06 131.69 0.23 2.9-3.68 2.8-5.44 4.3-3.24 0.2-6.49-0.2-9.7-0.3-2.05-45.5-0.25-91.1-0.88-136.68h-2.99c-0.49 45.58 0.93 91.18-0.68 136.78-2.55 0-7.67 0-10.23 0.1-0.16-60.2-0.14-120.4-0.01-180.58 6.98 1.89 6.54-3.31 6.04-8.34 3.59 0.12 7.16 0.04 10.75-0.11m4.51 20.47c-6.2 3.13-8.07 8.56-0.38 11.73 6.71-2.82 8.96-10.18 0.38-11.73z" fill="#640164"/>
<path d="m99.38 930.34c8.58 1.55 6.33 8.91-0.38 11.73-7.69-3.17-5.82-8.6 0.38-11.73z" fill="#e1a4b9"/>
<path d="m248.38 930.34c8.58 1.55 6.33 8.91-0.38 11.73-7.69-3.17-5.82-8.6 0.38-11.73z" fill="#e2a6ba"/>
<path d="m72.9 937.24c1.5 0.76 1.03 2.72 1.21 4.1-0.25 51.81-0.01 103.66-0.14 155.46l-0.94-0.1c-0.13-53.1 0.12-106.3-0.13-159.46z" fill="#692f8e"/>
<path d="m150.07 953.26c2.05-9.49 16.67-6.47 16.09 2.82 0.41 5.17 19.44 5.26 19.68-0.06-0.62-6.05 7.12-11.9 12.14-7.07 4.83 1.26 1.28 10.98 6.98 10.01 6.83 1.67 4.93-7.56 9.3-10.17 1.73 48.33 0.21 96.71 0.79 145.11 3.41 6.5-2.18 4.8-5.06 5.1-0.12-30 0.25-60-0.1-90-2.63-0.2-5.25-0.2-7.86 0.1-0.14 29.9 0.03 59.9-0.03 89.9h-16c-0.11-30.3 0.21-60.6-0.11-90.9-6.6-0.3-13.19-0.3-19.78 0-0.32 30.3 0 60.6-0.11 90.9-5.34 0.1-10.68 0-16.02 0-0.12-30.3 0.31-60.6-0.17-90.9-3.87-0.3-7.74-0.2-11.59 0.3-5.52 1.2-1.93-8.3-2.78-12.01-1.15-8.78 11.5-0.35 14.5-4.42 1.14-9.3 2.45-22.2-11.52-16.99-5.86 6.05-2.37-8.29-3.4-11.72-0.91-9.27 13.11 2.43 14.77-4.67 0.14-1.78 0.18-3.56 0.28-5.33m16.03 21.79c-0.45 5.93-0.13 11.89-0.02 17.87 6.6 0.21 13.21 0.22 19.82 0.03 0.45-5.95 0.12-11.94 0.02-17.87-6.61-0.23-13.21-0.24-19.82-0.03m35.97-0.01c0.71 6.93-4.41 21.26 7.86 16.92-0.71-6.97 4.41-21.26-7.86-16.92z" fill="#650164"/>
<path d="m133.9 1089.8c0.5-46.7-0.52-93.4 0.53-140.07 1.65 1.95 3.11 4.07 3.91 6.53-0.45 5.77 7.96 1.34 11.45 2.33-1.66 7.1-15.68-4.6-14.77 4.67 1.03 3.43-2.46 17.77 3.4 11.72-0.29 5.59-0.63 11.22-0.36 16.86 3.96 0.11 7.92 0.15 11.88 0.13-3 4.07-15.65-4.36-14.5 4.42 0.85 3.71-2.74 13.21 2.78 12.01-0.42 30.2-0.25 60.4-0.12 90.7-5.35 1.7-3.91-6.7-4.2-9.3z" fill="#660559"/>
<path d="m138.34 956.26c3.91-0.83 9.61 1.56 11.73-3-0.1 1.77-0.14 3.55-0.28 5.33-3.49-0.99-11.9 3.44-11.45-2.33z" fill="#d16586"/>
<path d="m166.16 956.08c6.56-0.12 13.12-0.11 19.68-0.06-0.24 5.32-19.27 5.23-19.68 0.06z" fill="#d26786"/>
<path d="m88.97 962.02h2.98c0.04 44.88 0.24 89.78-0.15 134.68-0.72 0.1-2.15 0.2-2.87 0.2 0.17-44.9 0.03-89.9 0.04-134.88z" fill="#e7a0c8"/>
<path d="m108 962.02h2.99c0.4 45.58-0.71 91.28 0.54 136.78-1.22-0.2-2.42-0.5-3.62-0.8 0.23-45.3 0-90.7 0.09-135.98z" fill="#e39ac4"/>
<path d="m238 962.02h2.99c0.63 45.58-1.17 91.18 0.88 136.68-1.52-0.1-3.03 0-4.55 0.1 1.61-45.6 0.19-91.2 0.68-136.78z" fill="#e3a0c2"/>
<path d="m256.95 963.01c0.5 0 1.49 0.01 1.99 0.01 0.31 44.58-0.27 89.28 0.23 133.88 5.66 0.5 11.5 0.4 16.96-1.4 2.39 2.1 2.65 5.4 3.02 8.4-0.12 1.2-0.24 2.3-0.36 3.5-1.9 17.7-0.04 35.6-0.92 53.3-0.48 0.1-1.43 0.4-1.91 0.5-7.65-0.2-15.3-0.2-22.94-0.2-0.6-14 1.15-28.2-0.86-42 0.19-6.7 1.11-13.5-0.59-20 1.76-1.5 5.67-1.4 5.44-4.3 0.01-43.9 0-87.8-0.06-131.69z" fill="#fccbcb"/>
<path d="m138.42 974.98c13.97-5.21 12.66 7.69 11.52 16.99-3.96 0.02-7.92-0.02-11.88-0.13-0.27-5.64 0.07-11.27 0.36-16.86z" fill="#d6657c"/>
<path d="m166.1 975.05c6.61-0.21 13.21-0.2 19.82 0.03 0.1 5.93 0.43 11.92-0.02 17.87-6.61 0.19-13.22 0.18-19.82-0.03-0.11-5.98-0.43-11.94 0.02-17.87z" fill="#d7647a"/>
<path d="m202.07 975.04c12.27-4.34 7.15 9.95 7.86 16.92-12.27 4.34-7.15-9.99-7.86-16.92z" fill="#d7657d"/>
<path d="m138.22 1008.4c3.85-0.5 7.72-0.6 11.59-0.3 0.48 30.3 0.05 60.6 0.17 90.9-3.96 0-7.92 0-11.88 0.1-0.13-30.3-0.3-60.5 0.12-90.7z" fill="#d7657b"/>
<path d="m166.11 1008.1c6.59-0.3 13.18-0.3 19.78 0 0.32 30.3 0 60.6 0.11 90.9h-20c0.11-30.3-0.21-60.6 0.11-90.9z" fill="#d7657a"/>
<path d="m202.03 1009.1c2.61-0.3 5.23-0.3 7.86-0.1 0.35 30-0.02 60 0.1 90h-7.99c0.06-30-0.11-60 0.03-89.9z" fill="#d6647d"/>
<path d="m64.84 1117.9c2.92-7 5.58-14.3 8.19-21.2l0.94 0.1c4.97 0.4 9.97 0.2 14.96 0.1 0.72 0 2.15-0.1 2.87-0.2 1.46 0.3 2.89 0.8 4.12 1.7-1.43 6.7-0.78 13.6-0.92 20.5-0.62 14.1 1.26 28.4-0.86 42.4-7.43-0.3-14.86-0.3-22.28 0-2.25-16.8 0.26-33.7-1.24-50.6-1.73 3.1-3.36 6.2-4.87 9.3-0.23-0.5-0.68-1.6-0.91-2.1z" fill="#fccbca"/>
<path d="m279.15 1103.9c9.3 19 16.06 39.2 24.33 58.6 1.5 2.9-0.7 2.4-2.77 1.6-0.31-1.1-0.61-2.1-0.91-3.2-6.35-18.1-14.71-35.4-21.01-53.5 0.12-1.2 0.24-2.3 0.36-3.5z" fill="#edc7e2"/>
<path d="m277.87 1160.7c0.88-17.7-0.98-35.6 0.92-53.3 6.3 18.1 14.66 35.4 21.01 53.5-1.71 30.3-0.52 60.7-0.66 91 1.56 15.2 10.75 28.8 10.87 44.4 0.9 20.7-1.55 42.1 0.78 62.6l0.28 0.8c-0.5 0.4-1.51 1.1-2.02 1.4 2.95 12 6.72 23.8 10.12 35.7-13.2 4.3-27.31-0.2-40.86 1-1.27-5.2 1.49-11.7-2.21-16.1-0.07-30.8-0.38-61.6 0.16-92.4 3.04-5 3.53-13.8-0.17-18.6-0.24-36.5 0.02-73-0.13-109.5 0.48-0.1 1.43-0.4 1.91-0.5z" fill="#b43c8b"/>
<path d="m70.62 1110.7c1.5 16.9-1.01 33.8 1.24 50.6 0.24 36.8 0.21 73.7 0.04 110.5-1.1 5.4-1.46 11.1-0.07 16.6 0.36 31.4 0.13 62.9 0.12 94.4-0.55 5-1 10-1.33 15.1-15.84 0-31.68 0.2-47.49 1.1 3.36-12.3 8.67-24 12.48-36.2-3.61-22.6-0.4-45.9-1.97-68.8 3.81-12.3 8.6-24.3 13.07-36.3 0.64-2.2 2.21-4.9-0.48-6.2-0.72-28.4 0.27-56.8-0.5-85.2 3.73-16.5 15.17-30.1 20.02-46.3 1.51-3.1 3.14-6.2 4.87-9.3z" fill="#b43c8b"/>
<path d="m44.29 1160.3c7.31-13.9 12.89-28.7 20.55-42.4 0.23 0.5 0.68 1.6 0.91 2.1-4.85 16.2-16.29 29.8-20.02 46.3-3.85 0.3-2.68-3.9-1.44-6z" fill="#eac4e5"/>
<path d="m95 1118.9c52.38 0.2 104.77 0.1 157.16 0.1 2.01 13.8 0.26 28 0.86 42 0.14 36.9-0.37 73.9 0.22 110.8-0.45 1.5-0.53 3.1-1.04 4.6-52.35-0.7-104.72-0.5-157.07-0.1-0.42-1.6-0.86-3.1-1.28-4.6 0.46-36.8-0.16-73.6 0.29-110.4 2.12-14 0.24-28.3 0.86-42.4m72.47 34.7c-25.85 0.1-47.32 26.2-45.56 51.3-1.42 24.6 19.49 46.1 42.87 50.4 34.99 4.4 64.92-35.3 51.62-67.7-5.33-21.2-27.54-35.7-48.93-34z" fill="#d8657a"/>
<path d="m167.47 1153.6c21.39-1.7 43.6 12.8 48.93 34 13.3 32.4-16.63 72.1-51.62 67.7-23.38-4.3-44.29-25.8-42.87-50.4-1.76-25.1 19.71-51.2 45.56-51.3m-5.85 2.8c-17.08 3-29.62 17.1-35.48 32.7-7.25 23 4.26 50.6 27.2 59.5 11.9 6.8 26.26 4.5 37.89-1.4 21.24-10.6 31.52-38.9 22.24-60.7-6.38-21.4-30.52-33.5-51.85-30.1z" fill="#690653"/>
<path d="m161.62 1156.4c21.33-3.4 45.47 8.7 51.85 30.1 9.28 21.8-1 50.1-22.24 60.7-11.63 5.9-25.99 8.2-37.89 1.4-22.94-8.9-34.45-36.5-27.2-59.5 5.86-15.6 18.4-29.7 35.48-32.7m3.62 3.9c-3.9 0.7-3.17 7.1 0.65 7.8 1.99-2.6 5.18-8.8-0.65-7.8m7.05-0.1c-4.74 0.9-1.45 8.1 2.35 6.3 4.81-0.4 1.52-8.3-2.35-6.3m-33.97 36.3c-4.7 19.2 9.98 39.5 29.16 42.1 17.87 1.5 34.17-14 35.47-31.5 3.25-2.2 7.68-1.6 10.87-2.8-3.71-0.7-6.55-3.7-10.58-3.3-2.46-15.2-14.42-31.7-31.29-31.1-16.04-1.9-29.8 12-33.63 26.6m-6.99 4.7c-3.82 1.6-2.66 7.7 1.54 7.6 4.68-1.1 3.47-9.2-1.54-7.6z" fill="#da92ab"/>
<path d="m165.24 1160.3c5.83-1 2.64 5.2 0.65 7.8-3.82-0.7-4.55-7.1-0.65-7.8z" fill="#62045e"/>
<path d="m172.29 1160.2c3.87-2 7.16 5.9 2.35 6.3-3.8 1.8-7.09-5.4-2.35-6.3z" fill="#63035d"/>
<path d="m71.86 1161.3c7.42-0.3 14.85-0.3 22.28 0-0.45 36.8 0.17 73.6-0.29 110.4-7.32 0.2-14.64 0.3-21.95 0.1 0.17-36.8 0.2-73.7-0.04-110.5z" fill="#e1a6b6"/>
<path d="m253.02 1161c7.64 0 15.29 0 22.94 0.2 0.15 36.5-0.11 73 0.13 109.5-7.41 2.2-15.25 1.2-22.85 1.1-0.59-36.9-0.08-73.9-0.22-110.8z" fill="#e1a6b6"/>
<path d="m299.14 1251.9c0.14-30.3-1.05-60.7 0.66-91 0.3 1.1 0.6 2.1 0.91 3.2-1.88 28.8-0.02 58.3-0.79 87.3l-0.78 0.5z" fill="#875bb2"/>
<path d="m138.32 1196.5c3.83-14.6 17.59-28.5 33.63-26.6 16.87-0.6 28.83 15.9 31.29 31.1-1.1 0.4-2.2 0.8-3.31 1.1-0.59-14.5-12.21-29.2-27.42-29.2-15.64-2-31.08 12-31.49 27.5-3.76 18.8 14.94 39 34.12 35 14.12-2.1 24.1-15.6 25.54-29.3 0.57 0.3 1.7 0.7 2.27 1-1.3 17.5-17.6 33-35.47 31.5-19.18-2.6-33.86-22.9-29.16-42.1z" fill="#fec0d7"/>
<path d="m141.02 1200.4c0.41-15.5 15.85-29.5 31.49-27.5 15.21 0 26.83 14.7 27.42 29.2-10.61-0.8-21.9 2-32.02-2.2-2.35 2.4-3.47 7.5 0.88 8 5.99 7 7.28 19 16.32 23-2.72-9.3-11.38-16.2-12.86-25.6 9.47 0.1 18.94 1.9 28.43 0.8-1.44 13.7-11.42 27.2-25.54 29.3-19.18 4-37.88-16.2-34.12-35z" fill="#970198"/>
<path d="m167.91 1199.9c10.12 4.2 21.41 1.4 32.02 2.2-10.03 1.8-20.28 0.1-30.35 1.5-0.38 1.4-0.6 2.8-0.79 4.3-4.35-0.5-3.23-5.6-0.88-8z" fill="#e291b5"/>
<path d="m131.33 1201.2c5.01-1.6 6.22 6.5 1.54 7.6-4.2 0.1-5.36-6-1.54-7.6z" fill="#630361"/>
<path d="m199.93 1202.1c1.11-0.3 2.21-0.7 3.31-1.1 4.03-0.4 6.87 2.6 10.58 3.3-3.19 1.2-7.62 0.6-10.87 2.8-0.57-0.3-1.7-0.7-2.27-1-9.49 1.1-18.96-0.7-28.43-0.8 1.48 9.4 10.14 16.3 12.86 25.6-9.04-4-10.33-16-16.32-23 0.19-1.5 0.41-2.9 0.79-4.3 10.07-1.4 20.32 0.3 30.35-1.5z" fill="#fdc6a2"/>
<path d="m46.23 1251.5c2.69 1.3 1.12 4 0.48 6.2-4.47 12-9.26 24-13.07 36.3-0.18 0.4-0.54 1.2-0.71 1.7-1.47-1.1-2.25-2.6-1.36-4.3 4.71-13.4 9.79-26.6 14.66-39.9z" fill="#e1b7dc"/>
<path d="m299.14 1251.9l0.78-0.5c5.49 11.8 8.14 24.8 12.36 37.1-3.06 23.2-0.24 47-1.49 70.4-2.33-20.5 0.12-41.9-0.78-62.6-0.12-15.6-9.31-29.2-10.87-44.4z" fill="#f3c4e3"/>
<path d="m253.24 1271.8c7.6 0.1 15.44 1.1 22.85-1.1 3.7 4.8 3.21 13.6 0.17 18.6-7.5-2-15.3-1.5-22.93-0.8-0.91-1.6-1.89-3-2.84-4.5 0.91-2.6 1-5.1 1.71-7.6 0.51-1.5 0.59-3.1 1.04-4.6z" fill="#ca6597"/>
<path d="m71.83 1288.4c-1.39-5.5-1.03-11.2 0.07-16.6 7.31 0.2 14.63 0.1 21.95-0.1 0.42 1.5 0.86 3 1.28 4.6-0.08 2.5-0.6 5.5 1.21 7.7-0.69 1.6-1.54 3.1-2.53 4.5-7.32-0.5-14.66-0.5-21.98-0.1z" fill="#ca6597"/>
<path d="m95.13 1276.3c52.35-0.4 104.72-0.6 157.07 0.1-0.71 2.5-0.8 5-1.71 7.6h-154.15c-1.81-2.2-1.29-5.2-1.21-7.7z" fill="#970194"/>
<path d="m96.34 1284h154.15c0.95 1.5 1.93 2.9 2.84 4.5-0.98 31.1 0.36 62.3-0.72 93.4 2.32 5.5-4.63 14.7 0.57 18.5-0.26 31.4-0.36 62.9 0.02 94.4-0.38 1.5-0.79 3-1.22 4.4-52.29-0.4-104.58-0.3-156.87 0-0.41-1.5-0.84-3-1.26-4.5 0.32-31.5 0.08-62.9 0.14-94.4 4.08-4.8 2.64-13.2 0.36-18.7-0.93-31 0.12-62.1-0.54-93.1 0.99-1.4 1.84-2.9 2.53-4.5m73.95 35.3c-17.36 12.8-25.69 35.7-26.28 56.9-0.01 38.2-0.06 76.5 0.03 114.7 18.32-0.5 37.36 0.9 55.28 0.6 1.76-35.7 0.06-72.5 0.72-108.6 1.55-17.5-4.86-34.5-13.65-49.3-4.11-5.6-8.73-13.2-16.1-14.3z" fill="#d86579"/>
<path d="m71.83 1288.4c7.32-0.4 14.66-0.4 21.98 0.1 0.66 31-0.39 62.1 0.54 93.1-7.27 2.2-14.94 1.3-22.4 1.2 0.01-31.5 0.24-63-0.12-94.4z" fill="#e2a6b6"/>
<path d="m253.33 1288.5c7.63-0.7 15.43-1.2 22.93 0.8-0.54 30.8-0.23 61.6-0.16 92.4-7.57 1.7-15.98 2.6-23.49 0.2 1.08-31.1-0.26-62.3 0.72-93.4z" fill="#e1a6b6"/>
<path d="m32.93 1295.7c0.17-0.5 0.53-1.3 0.71-1.7 1.57 22.9-1.64 46.2 1.97 68.8-3.81 12.2-9.12 23.9-12.48 36.2-0.39 1.1-0.79 2.2-1.21 3.3-1.02-0.8-2.57-1.7-1.83-3.2 3.83-12.7 9.43-24.7 12.71-37.5 0.56-22 0.07-44 0.13-65.9z" fill="#f8c6de"/>
<path d="m170.29 1319.3c7.37 1.1 11.99 8.7 16.1 14.3 8.79 14.8 15.2 31.8 13.65 49.3-0.66 36.1 1.04 72.9-0.72 108.6-17.92 0.3-36.96-1.1-55.28-0.6-0.09-38.2-0.04-76.5-0.03-114.7 0.59-21.2 8.92-44.1 26.28-56.9m0.09 3.1c-13.88 11.3-21.72 30.3-23.46 47.9 5.27-1.2 4.58-16.1 12.65-15.1 7.64 6 9.6 16.4 12.31 24.8 2.95-9.4 4.26-20.2 12.23-27 8.12 5.9 10.87 16.6 13.08 25.9 2.63-9.2-2.52-20.7-6.03-30.1-4.41-9.9-10.01-22.8-20.78-26.4m13.11 34.9c-6.36 9-8.19 20.5-10.26 31.1-0.61 33.1 0.05 66.2-0.33 99.3 7.86 1.9 15.98 1.4 23.98 1.3 0.25-31.9 0.13-63.8 0.06-95.7-1.67-12-3.9-24.4-10.49-34.8-0.41-1.2-1.9-2.1-2.96-1.2m-25.2 1c-8.28 9.1-12.01 22.5-11.33 34.7 0.13 31.5-0.06 63.1 0.08 94.7 7.85 1.3 15.87 1.5 23.81 1.2 0-33.1 0.76-66.2-0.37-99.3-2.4-10.7-3.33-24.6-12.19-31.3z" fill="#febfa7"/>
<path d="m170.38 1322.4c10.77 3.6 16.37 16.5 20.78 26.4 3.51 9.4 8.66 20.9 6.03 30.1-2.21-9.3-4.96-20-13.08-25.9-7.97 6.8-9.28 17.6-12.23 27-2.71-8.4-4.67-18.8-12.31-24.8-8.07-1-7.38 13.9-12.65 15.1 1.74-17.6 9.58-36.6 23.46-47.9z" fill="#7c017b"/>
<path d="m183.49 1357.3c1.06-0.9 2.55 0 2.96 1.2 6.59 10.4 8.82 22.8 10.49 34.8 0.07 31.9 0.19 63.8-0.06 95.7-8 0.1-16.12 0.6-23.98-1.3 0.38-33.1-0.28-66.2 0.33-99.3 2.07-10.6 3.9-22.1 10.26-31.1z" fill="#7c017b"/>
<path d="m158.29 1358.3c8.86 6.7 9.79 20.6 12.19 31.3 1.13 33.1 0.37 66.2 0.37 99.3-7.94 0.3-15.96 0.1-23.81-1.2-0.14-31.6 0.05-63.2-0.08-94.7-0.68-12.2 3.05-25.6 11.33-34.7z" fill="#7c017c"/>
<path d="m309.05 1361.1c0.51-0.3 1.52-1 2.02-1.4 4.46 12.9 7.34 26.3 11.45 39.4 0.87 1.5-0.59 2.2-1.72 2.9-0.53-1.8-1.05-3.5-1.63-5.2-3.4-11.9-7.17-23.7-10.12-35.7z" fill="#f4c4de"/>
<path d="m94.35 1381.6c2.28 5.5 3.72 13.9-0.36 18.7-7.3-0.3-14.6-0.6-21.89-0.2-0.16 31.6-0.24 63.2 0.04 94.8 7.24 0.3 14.48 0.1 21.71-0.2 0.42 1.5 0.85 3 1.26 4.5 0.21 2.3 0.58 4.6 1.1 6.8-0.73 1.9-1.48 3.7-2.24 5.5-7.12-1.8-15.02-2.7-22.03-0.1 0.2 46.8-0.17 93.8 0.24 140.7-22.85 2.3-45.86-1.1-68.79 0.8 4.52-17.6 17.38-32.8 19.91-50.6-1.43-66.6 1.35-133.5-1.38-200 0.42-1.1 0.82-2.2 1.21-3.3 15.81-0.9 31.65-1.1 47.49-1.1 0.33-5.1 0.78-10.1 1.33-15.1 7.46 0.1 15.13 1 22.4-1.2z" fill="#ca6597"/>
<path d="m253.18 1400.4c-5.2-3.8 1.75-13-0.57-18.5 7.51 2.4 15.92 1.5 23.49-0.2 3.7 4.4 0.94 10.9 2.21 16.1 13.55-1.2 27.66 3.3 40.86-1 0.58 1.7 1.1 3.4 1.63 5.2l-0.6 0.5c-2.02 32.5-2.05 66.5 0.03 99.2-0.1 33.6-0.87 67.4 0.31 101 1.87 17 12.99 32.2 15.94 49.3-20.21 1.3-40.13-2.5-60.47-1-0.07-46.6 0.07-93.2-0.03-139.8-6.97-2-14.91-2.2-21.89 0-0.99-1.9-2.15-3.7-3.5-5.3 0.5-2.3 0.97-4.5 1.39-6.7 0.43-1.4 0.84-2.9 1.22-4.4 7.56 0.1 15.14 0.5 22.7 0.1 0.16-31.6 0.24-63.2-0.04-94.8-7.57-0.4-15.14-0.2-22.68 0.3z" fill="#ca6597"/>
<path d="m72.1 1400.1c7.29-0.4 14.59-0.1 21.89 0.2-0.06 31.5 0.18 62.9-0.14 94.4-7.23 0.3-14.47 0.5-21.71 0.2-0.28-31.6-0.2-63.2-0.04-94.8z" fill="#e1a6b6"/>
<path d="m253.18 1400.4c7.54-0.5 15.11-0.7 22.68-0.3 0.28 31.6 0.2 63.2 0.04 94.8-7.56 0.4-15.14 0-22.7-0.1-0.38-31.5-0.28-63-0.02-94.4z" fill="#e1a6b6"/>
<path d="m320.23 1501.7c-2.08-32.7-2.05-66.7-0.03-99.2-0.35 33.1-0.36 66.2 0.03 99.2z" fill="#a374b6"/>
<path d="m95.11 1499.2c52.29-0.3 104.58-0.4 156.87 0-0.42 2.2-0.89 4.4-1.39 6.7-51.46 0.3-102.92-0.1-154.38 0.1-0.52-2.2-0.89-4.5-1.1-6.8z" fill="#970194"/>
<path d="m96.21 1506c51.46-0.2 102.92 0.2 154.38-0.1 1.35 1.6 2.51 3.4 3.5 5.3-2.52 91.4-0.42 183-1.05 274.5-1.58 2.4-0.85 5.1 0.1 7.6 1.37 6.5-3.38 15.1 0.24 20.7h-40.7c3.12-0.6 6.3-0.8 9.44-1.2 3.26 0 6.56 0.3 9.84 0.2 1.74 0 5.22-0.1 6.96-0.1 0.35-59.4-0.23-118.8 0.02-178.2-21.1-39.6-42.46-79.1-64.17-118.4-1.1-1.8-3.43-6.2-5.21-2.7-20.13 37.7-41.15 74.9-61.27 112.5-2.61 3.6-5.06 7.5-4.2 12.2-0.16 58.2-0.14 116.3-0.01 174.5 1.48 0.1 4.44 0.2 5.92 0.3l0.49 0.9h-11.85c-0.69-0.3-2.07-0.8-2.76-1-1.11-7.1 0.43-14.3-0.9-21.2-0.24-1.6-0.73-4.8-0.97-6.3-0.04-91.3 0.03-182.7-0.04-274 0.76-1.8 1.51-3.6 2.24-5.5z" fill="#d7657a"/>
<path d="m71.94 1511.4c7.01-2.6 14.91-1.7 22.03 0.1 0.07 91.3 0 182.7 0.04 274-7.32 0.4-14.66 0.5-21.99 0.5 0.06-44.6-0.23-89.3 0.16-133.9-0.41-46.9-0.04-93.9-0.24-140.7m9.61-0.1c-7.25 1.2-0.53 9.3-3.57 13.7-3.22 5 3.04 9.6 0.95 14.8-1.71 14.8-4.65 30-0.72 44.7 2.32 3.6 8.08-0.7 11.51 0.1 1.3-6.8-0.03-13.7-2.65-20 1.56-12.6 5.1-25.6 2.66-38.2-5.43-4.1 2.3-17.7-8.18-15.1m-0.1 157.9c-7.19 1.5-0.15 10.3-3.64 14.6-2.87 4 1.64 8.1 1.2 12.2-1.85 16.3-4.85 32.9 0.21 48.9 3.6 0 7.17-0.4 10.69-1.2 2.2-10.4-4.99-20.2-1.47-30.2 3.31-9.1 1.75-18.9 1.99-28.3-5.93-3.7 1.28-17.2-8.98-16z" fill="#e2a6b6"/>
<path d="m254.09 1511.2c6.98-2.2 14.92-2 21.89 0 0.1 46.6-0.04 93.2 0.03 139.8-0.05 44.9 0.05 89.9-0.04 134.8-7.65 0.2-15.3 0.2-22.93-0.1 0.63-91.5-1.47-183.1 1.05-274.5m7.51 1c-5.77 2-1.88 7.4-1.62 11.5-8.47 7-5.31 22-2.28 31.6 4.41 7.7-3 15.5-1.76 23.6-3.44 8.6 11.26 10.7 12.31 3.3 6.01-16-3.5-33-0.23-49.2 3.06-4.6-2.38-9.3-0.04-13.9 2.3-3.7-2.25-8.8-6.38-6.9m-0.22 157.8c-3.87 3.2-1.62 8.3-1.43 12.5-7.22 4.3-4.89 13.1-4.89 20.1-1.02 8.4 7.51 15.4 2.8 23.9-2.79 5.9-1.92 12.3-0.53 18.4 4.94 0.4 13.08 1.7 11.31-6.3 4.91-17.7-5.67-36.2 1.05-53.4-5.95-4.5 2.93-17.3-8.31-15.2z" fill="#e2a6b7"/>
<path d="m81.55 1511.3c10.48-2.6 2.75 11 8.18 15.1 2.44 12.6-1.1 25.6-2.66 38.2 2.62 6.3 3.95 13.2 2.65 20-3.43-0.8-9.19 3.5-11.51-0.1-3.93-14.7-0.99-29.9 0.72-44.7 2.09-5.2-4.17-9.8-0.95-14.8 3.04-4.4-3.68-12.5 3.57-13.7z" fill="#b33d80"/>
<path d="m169.56 1513.6c1.78-3.5 4.11 0.9 5.21 2.7 21.71 39.3 43.07 78.8 64.17 118.4-0.25 59.4 0.33 118.8-0.02 178.2-1.74 0-5.22 0.1-6.96 0.1-0.05-37.2 0.53-74.6-0.73-111.8 4.1-48-16.02-99.8-56.62-127.2-6.72-3.5-12.52 2.6-17.56 6.1-25.82 21.3-41.94 52.7-46.27 85.7-0.18 6-3.49 12.4-0.68 18.2-0.22 43-0.04 86.1-0.1 129.1-1.48-0.1-4.44-0.2-5.92-0.3-0.13-58.2-0.15-116.3 0.01-174.5-0.86-4.7 1.59-8.6 4.2-12.2 20.12-37.6 41.14-74.8 61.27-112.5m2.59 6.6c-17.44 30.9-34.9 62.1-51.22 93.7 14.9-17.4 25.96-39.9 48.57-48.8 14.38-0.1 22.96 14.1 32.77 22.6 12.39 16 23.99 33.4 29.01 53.2 4.01-8.7-3.5-18.8-7.26-26.9-17.45-31.1-33.18-64.1-51.87-93.8m-53.68 97.9c-3.87 5-9.25 11.2-5.8 17.7 1.23-5 3.1-9.9 6.17-14.1 0.81-1.1 2.16-4.1-0.37-3.6z" fill="#e4a5b7"/>
<path d="m261.6 1512.2c4.13-1.9 8.68 3.2 6.38 6.9-2.34 4.6 3.1 9.3 0.04 13.9-3.27 16.2 6.24 33.2 0.23 49.2-1.05 7.4-15.75 5.3-12.31-3.3-1.24-8.1 6.17-15.9 1.76-23.6-3.03-9.6-6.19-24.6 2.28-31.6-0.26-4.1-4.15-9.5 1.62-11.5z" fill="#b33d80"/>
<path d="m172.15 1520.2c18.69 29.7 34.42 62.7 51.87 93.8 3.76 8.1 11.27 18.2 7.26 26.9-5.02-19.8-16.62-37.2-29.01-53.2-9.81-8.5-18.39-22.7-32.77-22.6-22.61 8.9-33.67 31.4-48.57 48.8 16.32-31.6 33.78-62.8 51.22-93.7m-1.76 20.2c-8.27 1.5-12.71 14.3-4.41 18.6 7.03 8.3 19.59-4.6 14.81-12.6-2.4-3.2-6.3-6.1-10.4-6z" fill="#c93366"/>
<path d="m170.39 1540.4c4.1-0.1 8 2.8 10.4 6 4.78 8-7.78 20.9-14.81 12.6-8.3-4.3-3.86-17.1 4.41-18.6z" fill="#e2a6b6"/>
<path d="m157.05 1580.1c5.04-3.5 10.84-9.6 17.56-6.1 40.6 27.4 60.72 79.2 56.62 127.2 1.26 37.2 0.68 74.6 0.73 111.8-3.28 0.1-6.58-0.2-9.84-0.2-0.37-45.8 0.13-91.7-0.22-137.6-5.37-30.8-17.65-61.5-40.1-83.9-4-3.5-9.23-7.8-14.92-5.7-29.36 21.1-42.92 57.6-49 91.9-0.64 44.5 1.46 89.3-0.74 133.7-2.23 0.5-4.88 1.7-6.19-1-0.6-42 1.35-84.4-0.85-126.2-2.81-5.8 0.5-12.2 0.68-18.2 4.33-33 20.45-64.4 46.27-85.7z" fill="#960196"/>
<path d="m166.88 1585.6c5.69-2.1 10.92 2.2 14.92 5.7 22.45 22.4 34.73 53.1 40.1 83.9 0.35 45.9-0.15 91.8 0.22 137.6-3.14 0.4-6.32 0.6-9.44 1.2h-0.97l0.03-1c1.21-34.7-1.17-69.5 1.28-104.1-1.79-33.3-11.99-67.9-35.92-92.1-2.32-1.5-5.09-5.2-8.04-2.9-7.08 5.5-14.57 11.3-19.02 19.2-8.21 17.6-16.87 35.3-19.27 54.7-2.06 41.3 0.22 82.8-1.07 124.1-4.19 0.2-8.47 0.4-12.56-0.7 2.2-44.4 0.1-89.2 0.74-133.7 6.08-34.3 19.64-70.8 49-91.9z" fill="#e2a6b7"/>
<path d="m0 1651.7c8.29-16.2 13.81-33.8 23.3-49.4-2.53 17.8-15.39 33-19.91 50.6-0.89 0.6-1.78 1.3-2.67 1.9l-0.72 0.6v-3.7z" fill="#f0c7dd"/>
<path d="m336.48 1652c-2.95-17.1-14.07-32.3-15.94-49.3 8.56 15.3 12.11 33 19.46 48.9v2.9c-0.46-0.1-1.39-0.3-1.86-0.4-0.41-0.5-1.24-1.6-1.66-2.1z" fill="#e3bddc"/>
<path d="m169.06 1613.9c2.95-2.3 5.72 1.4 8.04 2.9 23.93 24.2 34.13 58.8 35.92 92.1-2.45 34.6-0.07 69.4-1.28 104.1-26.6 0-53.2-0.2-79.8 0.2-2.37-41.7 0-83.6-1.17-125.4 2.4-19.4 11.06-37.1 19.27-54.7 4.45-7.9 11.94-13.7 19.02-19.2z" fill="#7c007c"/>
<path d="m118.47 1618.1c2.53-0.5 1.18 2.5 0.37 3.6-3.07 4.2-4.94 9.1-6.17 14.1-3.45-6.5 1.93-12.7 5.8-17.7z" fill="#c35d7d"/>
<path d="m276.01 1651c20.34-1.5 40.26 2.3 60.47 1 0.42 0.5 1.25 1.6 1.66 2.1-2.56 37.7-0.63 75.8-0.95 113.7-0.31 15-0.13 30.1-0.23 45.2-19.62 0.2-39.25-0.1-58.87 0-0.06-6.7-0.01-13.3-0.1-19.9-0.38-2.8 1.65-7.2-2.02-7.3 0.09-44.9-0.01-89.9 0.04-134.8z" fill="#c24e9b"/>
<path d="m3.39 1652.9c22.93-1.9 45.94 1.5 68.79-0.8-0.39 44.6-0.1 89.3-0.16 133.9-0.03 2-0.02 4 0.03 6 1.74 6.8-2.15 15.8 0.17 21.3-23 0.4-46.67-1.9-69.32 0.7h-0.96c-0.38-51.8 0.28-103.5-0.12-155.3 0.06-1.4-0.11-2.8-1.1-3.9 0.89-0.6 1.78-1.3 2.67-1.9z" fill="#c24e9b"/>
<path d="m81.45 1669.2c10.26-1.2 3.05 12.3 8.98 16-0.24 9.4 1.32 19.2-1.99 28.3-3.52 10 3.67 19.8 1.47 30.2-3.52 0.8-7.09 1.2-10.69 1.2-5.06-16-2.06-32.6-0.21-48.9 0.44-4.1-4.07-8.2-1.2-12.2 3.49-4.3-3.55-13.1 3.64-14.6z" fill="#b33d80"/>
<path d="m261.38 1670c11.24-2.1 2.36 10.7 8.31 15.2-6.72 17.2 3.86 35.7-1.05 53.4 1.77 8-6.37 6.7-11.31 6.3-1.39-6.1-2.26-12.5 0.53-18.4 4.71-8.5-3.82-15.5-2.8-23.9 0-7-2.33-15.8 4.89-20.1-0.19-4.2-2.44-9.3 1.43-12.5z" fill="#b23d80"/>
<path d="m110.1 1684c2.2 41.8 0.25 84.2 0.85 126.2 1.31 2.7 3.96 1.5 6.19 1 4.09 1.1 8.37 0.9 12.56 0.7 1.29-41.3-0.99-82.8 1.07-124.1 1.17 41.8-1.2 83.7 1.17 125.4-7.32-0.1-14.63-0.2-21.94-0.1 0.06-43-0.12-86.1 0.1-129.1z" fill="#820e77"/>
<path d="m337.19 1767.8c0.87 14.7 2.03 32-0.23 45.2 0.1-15.1-0.08-30.2 0.23-45.2z" fill="#e4b4d3"/>
<path d="m72.02 1786c7.33 0 14.67-0.1 21.99-0.5 0.24 1.5 0.73 4.7 0.97 6.3-7.65 0.1-15.29 0.2-22.93 0.2-0.05-2-0.06-4-0.03-6z" fill="#960295"/>
<path d="m253.04 1785.7c7.63 0.3 15.28 0.3 22.93 0.1 3.67 0.1 1.64 4.5 2.02 7.3-8.29-0.1-16.58-0.3-24.85 0.2-0.95-2.5-1.68-5.2-0.1-7.6z" fill="#960294"/>
<path d="m72.05 1792c7.64 0 15.28-0.1 22.93-0.2 1.33 6.9-0.21 14.1 0.9 21.2-7.89-0.2-15.78 0.1-23.66 0.3-2.32-5.5 1.57-14.5-0.17-21.3z" fill="#fccbcb"/>
<path d="m253.14 1793.3c8.27-0.5 16.56-0.3 24.85-0.2 0.09 6.6 0.04 13.2 0.1 19.9-0.42 0.2-1.27 0.7-1.69 1h-23.02c-3.62-5.6 1.13-14.2-0.24-20.7z" fill="#fccacb"/>
<path d="m110 1813.1c7.31-0.1 14.62 0 21.94 0.1 26.6-0.4 53.2-0.2 79.8-0.2l-0.03 1h-101.22l-0.49-0.9z" fill="#f5b5f4"/>
</svg>
