<svg id="svg2" xmlns="http://www.w3.org/2000/svg" viewBox="0 0 325.27 202"><defs><style>.cls-1{fill:#f8f8f8;}.cls-2{fill:#3b3532;}</style></defs><title>bear 09</title><g id="layer1"><g id="g3054"><g id="g3151"><g id="g3298"><g id="g3496"><g id="g3540"><g id="g3994"><g id="g4115"><g id="g4136"><g id="g4313"><g id="g4527"><path id="path4531" class="cls-1" d="M.26,101V0h325V202H.26Z"/><path id="path4529" class="cls-2" d="M166.9,200a28.23,28.23,0,0,1-6.75-3.61l-1.88-1.71v-4.91c0-6.08,1-8.17,6.6-13.42l4.4-4.14v-4.05c0-5.47-1.36-5.93-3.5-1.18a25.63,25.63,0,0,1-5.12,7,29.9,29.9,0,0,0-5.49,7.28c-2.82,5.63-4.61,7.54-9.39,10.07l-4,2.11-8.5-.07-8.5-.07L119,191.06c-3.29-1.27-6.46-3.28-7.37-4.67L110,184l.5-5.18.5-5.17,2.88-2.36c1.58-1.3,4.9-3.82,7.38-5.61l4.5-3.24,1.41-5.28,1.41-5.27-1.68-12.18A171.77,171.77,0,0,0,123,120l-2.2-7.5-4-4c-2.22-2.21-9-6.61-15-9.77a180.25,180.25,0,0,1-20.5-12.88,134.46,134.46,0,0,0-21-12.54c-6.33-3-12.63-6.47-14-7.76a62.31,62.31,0,0,0-6.39-4.94L36,58H17.54L14.9,55.92l-2.63-2.07V47c0-8,.8-8.89,5.4-6,3.88,2.4,6.35,1.87,7.21-1.55l.61-2.4L23.86,34.5c-4.08-6.23-7.76-6.52-11.41-.89l-2.32,3.57L8.05,35.34c-3.27-2.91-7-12.27-7.54-19.06L0,10.07l2.38-.92C8.29,6.85,16.31,5,20.35,5A26.07,26.07,0,0,0,29.27,2.9l4.5-2,7.5.05C52.25,1,62.5,4,76.54,11.31L88.8,17.72l11,2.57c18.3,4.29,33.72,6.62,48.2,7.27l13.77.62,15,3.1,15,3.1,21.5-.19c34.51-.3,50.14,1.92,65.55,9.31l9,4.34,7.06,6.53c9.12,8.44,17.78,19.07,20.44,25.07l2.1,4.76-.63,3.34-.63,3.35,2.76,6.3,2.76,6.3.14,21.5.14,21.5,1.6,9.35,1.61,9.34-1.45,6.16a56.18,56.18,0,0,0-1.47,9.83l0,3.67-2.44,2.9c-1.34,1.6-5.73,4.42-9.75,6.28l-7.31,3.37-8.56.42-8.57.41-4.14-2.11a27.16,27.16,0,0,1-6.19-4.31l-2-2.18v-7.33l2.47-3.4,4.13-5.67,1.66-2.27-1.62-4.23c-5.4-14.15-17.64-7.35-17.64,9.81,0,6.21-1.17,8-7.28,11.16l-5.22,2.69-9.5.05-9.5.06L226,188.66c-9.51-3.67-10.57-11.84-2.58-19.83,4.67-4.67,2.11-23.66-3.42-25.42-2.95-.93-3.54.31-4.73,10.08-1.56,12.74-2.53,15.7-6.89,21a32.81,32.81,0,0,0-5.17,8.85,76.28,76.28,0,0,1-3.69,9l-2.37,4.82-5.2,2.42-5.2,2.42-7.5,0-7.5,0L166.9,200Zm22-5.64c3.73-1.77,5.14-4,7.83-12.21a29.4,29.4,0,0,1,4.5-8.5c6.33-7.27,7.53-12.42,9.19-39.55l1.23-20.1-2.3-5.25a60.58,60.58,0,0,1-2.82-7.5L206,99h1.48c1.94,0,6.44,3.57,8,6.32.69,1.24,1.44,8,1.74,15.67l.54,13.5,3.88,1.9c8.79,4.3,39,10.92,40.9,9,.93-.93-8.94-20.14-13.43-26.15L245.18,114l1.45-.56c4.21-1.62,10.05,4.43,16,16.58l3.68,7.5,7.61,8.5c7.89,8.82,11.68,15.56,12.71,22.62l.6,4.12-2.47,3.38a62.33,62.33,0,0,0-4.15,6.59l-1.69,3.2,1.37,1.65,1.37,1.65,1.7-2.1c2.32-2.87,3.5-2.65,4.73.89.58,1.65,1.48,3,2,3s1.43-1.35,2-3c1.28-3.65,2.88-3.84,4.15-.5,1.46,3.83,11.41,2,16.2-3l2.25-2.33,1.71-9.7,1.71-9.71-1.93-11.62-1.92-11.62.64-14,.63-14-1.67-5.77a124.51,124.51,0,0,0-5.15-13.38c-4-8.8-3.91-8.35-2-8.35,5.07,0-1.43-9.87-15.12-22.94l-10.49-10L274,47.56a81.4,81.4,0,0,0-15.2-5.22l-8-1.73-28-.28-28-.27-16-3.08c-8.8-1.7-23.87-3.73-33.5-4.52-41.06-3.37-52.29-5.72-71.5-15-13-6.23-18.19-8.08-26.71-9.42l-6.29-1-4,1.06C27,10.69,20.49,12,17,12A23.43,23.43,0,0,0,9.6,13.5L6,15l.55,3.25a37,37,0,0,0,1.63,6.07l1.09,2.82,2.63-2.07c4.85-3.82,11.38-1.89,15.84,4.67l2.52,3.72V43.72l-2.07,2.64L26.12,49H17l1.18,1.43,1.18,1.42,9.69-.1,9.69-.1L41.26,53A69.41,69.41,0,0,1,50.1,60.1l6.33,5.78,7.17,2.71c10.63,4,13.15,5.45,24.74,14.13A161.71,161.71,0,0,0,109.46,95.8L120,101l3.51,3.89c6.41,7.09,10.93,25.21,11.14,44.64l.11,10-2.51,4.5c-1.49,2.66-3.73,5-5.5,5.78-6.5,2.82-8,3.89-8.87,6.39a7.62,7.62,0,0,0-.24,4.38l.69,1.79,1.17-1.17c1.66-1.67,2.46-1.45,3,.83.53,2,2.71,2.84,2.71,1,0-2.09,2.82-.88,3.4,1.46l.62,2.46,3.49.65c7.84,1.47,11-.27,15.83-8.75a25.15,25.15,0,0,1,5.5-6.7c3.64-2.59,9-12.64,9.78-18.34l.61-4.42-2-3.93c-1.11-2.16-5.88-9.29-10.61-15.84-10.6-14.7-11.07-16.91-2.71-12.64l3.81,1.94,8,12.31c17.79,27.26,19.73,38,8.73,48.39-5.26,5-8,13.63-3,9.47,2-1.63,3.56-.51,3.56,2.5s2.05,3.2,3.77.45,2.86-2.51,4.08,1l1,3h3.15a18.64,18.64,0,0,0,6.6-1.64ZM66.23,31c-2.4-2.4-1.79-4,1.53-4,3.1,0,3.79-1.25,2-3.61-3.35-4.43.1-6.08,4.87-2.32l2.64,2.07v3.27a6.35,6.35,0,0,1-11,4.55ZM33.51,18.86c-3.44-3.49-.93-5.9,5-4.82,6.24,1.14,5.8,4.2-.78,5.5l-3,.59-1.25-1.27ZM252.26,182.24l3.5-1.75.71-5.68a45.35,45.35,0,0,1,4.25-12.73c4.47-8.88,4.48-8.83-1.21-9.63-2.61-.36-9.84-1.74-16.08-3.06S231.88,147,231.6,147s-.18,4.42.2,9.81l.69,9.81-4.11,4.75c-3.89,4.5-5.13,7.89-3.29,9,.45.28,1.67-.48,2.71-1.69l1.9-2.2,1,2.75c1.09,3.07,2.72,3.51,4.59,1.25s2.92-1.86,4,1l1,2.5h4.27a20.69,20.69,0,0,0,7.77-1.75Z"/></g></g></g></g></g></g></g></g></g></g></g></svg>