<svg id="Publicdomainvectors.org" xmlns="http://www.w3.org/2000/svg" viewBox="0 0 660 660"><defs><style>.cls-1{fill:#bcdaf3;}.cls-2{fill:#fff;}.cls-10,.cls-11,.cls-12,.cls-13,.cls-2,.cls-3,.cls-4,.cls-5,.cls-6,.cls-7,.cls-8,.cls-9{fill-rule:evenodd;}.cls-3{fill:#94ac3c;}.cls-4{fill:#9f5b26;}.cls-5{fill:#80431c;}.cls-6{fill:#82983b;}.cls-7{fill:#a7bf39;}.cls-8{fill:#bad532;}.cls-9{fill:#cfdf61;}.cls-10{fill:#56652d;}.cls-11{fill:#febb12;}.cls-12{fill:#677934;}.cls-13{fill:#2e3418;}</style></defs><title>green-landscape</title><rect class="cls-1" x="0.41" width="660.96" height="660.96"/><path class="cls-2" d="M661.37,150.4V502.69L.41,474.85V238.72a71.21,71.21,0,0,1,63.62,22,72.2,72.2,0,0,0,123.51-33.1,81.65,81.65,0,0,1,139.68-37.42,120.16,120.16,0,0,0,176.67,0,148.61,148.61,0,0,1,147.72-42.81Q656.56,148.74,661.37,150.4Z"/><path class="cls-3" d="M46.3,263.56c15.23,0,28,19.25,31.53,45.21,6-5.59,13.21-8.84,20.93-8.84,14.51,0,27.14,11.47,33.69,28.39,7.8-17.27,20-28.39,33.68-28.39,21.31,0,39,26.87,42.13,62,4.47-4.52,9.75-7.14,15.41-7.14,16.13,0,29.21,21.23,29.21,47.4s-13.08,47.4-29.21,47.4c-11.52,0-21.48-10.82-26.24-26.53-7.78,14.48-18.92,23.55-31.3,23.55-19.25,0-35.53-22-40.81-52.14-6.91,9.4-16.26,15.18-26.56,15.18-16.37,0-30.35-14.6-35.9-35.16-4.85,5.29-10.51,8.33-16.56,8.33-17.95,0-32.5-26.7-32.5-59.62s14.55-59.63,32.5-59.63Zm615.07-24.42V346.42A37.85,37.85,0,0,1,638,354.78c-15.25,0-28.77-9.77-37.26-24.88-7.81,15.24-19.34,24.88-32.2,24.88-10.33,0-19.81-6.22-27.19-16.57-7.81,13.39-19.71,21.94-33,21.94-23.54,0-42.63-26.69-42.63-59.62s19.09-59.62,42.63-59.62c8.17,0,15.8,3.21,22.28,8.79,7.08-23.28,21.41-39.2,37.94-39.2,16.1,0,30.11,15.11,37.37,37.4,8.34-10.61,19.64-17.13,32.09-17.13a37.86,37.86,0,0,1,23.33,8.37ZM413,292.78c23.54,0,42.63,24.49,42.63,54.7s-19.09,54.7-42.63,54.7-42.63-24.49-42.63-54.7S389.42,292.78,413,292.78Z"/><path class="cls-4" d="M367.68,389.18,381.3,380c42.21-28.4,65-79.74,61-137.35-1.38-20-13.45-39.27-31-49.49-33.18-19.32-56-55.74-58.61-93.54l5.32.53,2,7.65c6.72,25.35,24.63,46.91,46.89,57.76,4.12,2,8.13,2.18,11.82.49a12,12,0,0,0,6.86-9c5.06-25.53,2-53.49-8.68-79.87l8.46-1.84c10,17.35,15.65,41.69,16.85,60a9.17,9.17,0,0,0,4.71,7.39c2.72,1.51,5.6,1.31,7.6-.55,19.5-18,26.85-38.38,26-68.47l5.12.92.84,18.85c-.14,26.09-10.41,49.21-28.43,64-9.46,7.76-11.58,22.39-5.13,35.43,25.15,50.89,31.17,107.23,16.67,155.94Z"/><path class="cls-5" d="M473.32,140.39a73.81,73.81,0,0,1-15.17,17.08c-9.46,7.76-11.58,22.39-5.13,35.43,25.15,50.89,31.17,107.23,16.67,155.94l-20,7.92a290.2,290.2,0,0,1,10.06-49.12c9.17-30.73,5.36-66.28-10.52-98.39a127.34,127.34,0,0,1-10.32-29.32c-2.22-10.19,2-19.63,10.29-23.16A65,65,0,0,0,465,147.21Z"/><path class="cls-5" d="M360.58,133.66a113.28,113.28,0,0,1-7.86-34l5.32.52q1,3.84,2,7.66a90,90,0,0,0,7.65,19.38c-4.1-2.29-6.84-1.08-7.14,6.46Zm66.63-16.26A150.4,150.4,0,0,0,417,77.15l8.46-1.84c6.71,11.63,11.46,26.4,14.22,40.4-4.36-5.23-8.52-5.25-12.43,1.69Zm49.27-8.6c3.24-10.2,4.5-21.68,4.14-35.09l5.12.92.84,18.85A95.22,95.22,0,0,1,484.69,112C482.59,107.75,479.7,107.47,476.48,108.8Z"/><path class="cls-6" d="M367.07,98v.15c-.6,11.71-17.4,21.25-37.52,21.3S293.61,110,294.21,98.29c.48-9.37,11.33-17.35,26-20.19A20.44,20.44,0,0,1,318,68c.86-16.71,22.17-30.31,47.61-30.37H367c5.94-15.43,25.59-26.93,48.33-27,19.43-.05,35.75,8.27,42.8,20.3a53.65,53.65,0,0,1,18.67-3.33c19.07-.05,34.4,9.54,36.78,22.15,22.2.83,39.21,11.18,38.56,23.88-.67,13.27-20.41,24.08-44.07,24.13-16.24,0-30.12-5-37-12.45-7.24,11.52-25.55,19.81-46.58,19.86-15.63,0-29.29-4.48-37.77-11.52A65.62,65.62,0,0,1,367.07,98Z"/><path class="cls-3" d="M406.37,78.66a12.16,12.16,0,0,1,1.27,6.89c-1.38,9.48-17,12.35-34.9,6.4S341.44,73.5,342.81,64s16.62-12.28,34.25-6.62a18.19,18.19,0,0,1-1.94-10.54c1.65-11.41,16.39-16.2,32.92-10.71a49.2,49.2,0,0,1,14.37,7.58c4.85-6.19,19.43-7.13,35.86-1.67,9.92,3.29,18.58,8.28,24.48,13.62A42.06,42.06,0,0,1,496.1,58c13.81,4.59,24.11,14.51,23,22.17s-13.21,10.15-27,5.56A50.72,50.72,0,0,1,483.61,82c3,3.59,4.53,7.15,4.08,10.27-1.3,9-18.34,10.91-38.07,4.36-12.57-4.18-23.2-10.8-28.92-17.38A36.37,36.37,0,0,1,406.37,78.66Z"/><path class="cls-7" d="M661.37,277.63V661H.41V302.76A235,235,0,0,1,114,348.23a239.47,239.47,0,0,0,287.37,0A364.43,364.43,0,0,1,661.37,277.63Z"/><path class="cls-8" d="M612.17,661h-146A346.91,346.91,0,0,0,294.19,413.27L263.72,396h0A239.66,239.66,0,0,0,349,378c145.36.14,263.15,118,263.15,263.41Z"/><path class="cls-3" d="M661.37,350.12V661H.41V370.5C40.64,374.36,79.9,386.65,114,407.36c85.14,51.79,202.22,51.79,287.37,0C477.76,360.88,571.08,341.81,661.37,350.12Z"/><path class="cls-9" d="M56.72,644.68a97,97,0,0,1,43.93-142,97,97,0,0,1-43.93,142Z"/><path class="cls-10" d="M151.94,661H.41V516.31a40,40,0,0,1,19.31,1.82c26.07,8.75,48.14,40.49,55.51,76.48,8.07-5.41,17.8-6.89,28.26-3.38C126.3,598.89,145.58,627.87,151.94,661Z"/><path class="cls-7" d="M612.17,661h-146A347,347,0,0,0,330.6,437a263.27,263.27,0,0,0,70.74-29.62q14.43-8.78,29.63-16.25c105.21,34.54,181.2,133.55,181.2,250.32Z"/><path class="cls-11" d="M463.12,623.64A100.29,100.29,0,0,1,372.2,499.8a100.28,100.28,0,0,1,90.92,123.84Z"/><path class="cls-9" d="M515.65,561.72A74.31,74.31,0,0,1,448.29,470a74.3,74.3,0,0,1,67.36,91.76Z"/><path class="cls-9" d="M564.58,516.53A77.71,77.71,0,0,1,599.76,402.8a77.71,77.71,0,0,1-35.18,113.73Z"/><path class="cls-9" d="M535,494.3a58.6,58.6,0,0,1-7.91-89.44A58.62,58.62,0,0,1,535,494.3Z"/><path class="cls-10" d="M661.37,446.15V661H338.27c-14.83-82.33,24.46-125.22,79.68-77.25,9.95-58.93,41.86-83.08,85.09-27.29-28.13-86.4,29-166.06,89.2-84,10.87-63,43-81.81,69.13-26.31ZM296,661H181.55C200.09,550.91,273.76,544,296,661Z"/><path class="cls-12" d="M661.37,550V661H495.78c0-1,0-2.09,0-3.14,0-41.82,22.69-75.72,50.68-75.72,10.47,0,20.19,4.74,28.26,12.86,7.38-33.52,29.44-57.85,55.51-57.85C641.66,537.11,652.36,541.83,661.37,550Z"/><path class="cls-13" d="M33.19,0H79.3L74.74,25.06c32.63,7.33,65.72-1.7,94.15-25.06h27.36C162.19,42.67,122.39,74.41,79.4,93.05L63,100.17A1948.44,1948.44,0,0,0,9.49,394.73L.41,481.86V119.62Q14.68,58.69,33.19,0Z"/></svg>