<svg id="publicdomainvectors.org" xmlns="http://www.w3.org/2000/svg" viewBox="0 0 600 600"><defs><style>.cls-1{fill:#b2d6ff;}.cls-2{fill:#fff;}.cls-10,.cls-11,.cls-12,.cls-13,.cls-15,.cls-2,.cls-4,.cls-5,.cls-6,.cls-7,.cls-8{fill-rule:evenodd;}.cls-3,.cls-4{fill:#84a7cf;}.cls-5{fill:#70675e;}.cls-6{fill:#635b52;}.cls-7{fill:#6c9c84;}.cls-8,.cls-9{fill:#785e43;}.cls-10{fill:#4d821f;}.cls-11{fill:#abde7e;}.cls-12{fill:#6ca33c;}.cls-13,.cls-16{fill:#bd7b38;}.cls-14{fill:#cf8d4b;}.cls-15{fill:#d5ff87;}</style></defs><title>LANDSCAPE8</title><rect class="cls-1" x="-0.6" y="2.5" width="599.1" height="599.08"/><path class="cls-2" d="M525.8,202a12.9,12.9,0,0,0-7.7,2.5,1.3,1.3,0,0,0,.1-.6,15.3,15.3,0,0,0-25.3-11.6,19.5,19.5,0,0,0-16.8-9.4,19.8,19.8,0,0,0-19.5,16.5,19.1,19.1,0,0,0-31.7,10.2H537.5A12.8,12.8,0,0,0,525.8,202Z"/><path class="cls-2" d="M20.2,195.8a23.5,23.5,0,0,1-.6-5.4,26.8,26.8,0,0,1,48.3-15.8,22.2,22.2,0,0,1,40.4,8.8,26.5,26.5,0,0,1,5.6,5.5,21.4,21.4,0,0,1,29.7-1,17.8,17.8,0,0,1,35.6.8,17.1,17.1,0,0,1-1.5,7.1Z"/><path class="cls-2" d="M243.2,56.8a12.9,12.9,0,0,1,7.7,2.5v-.6a15.2,15.2,0,0,1,15.2-15.3,15.9,15.9,0,0,1,10,3.6,19.7,19.7,0,0,1,36.3,7.2,18.9,18.9,0,0,1,13-5.1,19.2,19.2,0,0,1,18.7,15.3H231.5A12.8,12.8,0,0,1,243.2,56.8Z"/><path class="cls-2" d="M536.8,97.2a30.7,30.7,0,0,0,.5-5.3A26.8,26.8,0,0,0,489,76a22.4,22.4,0,0,0-18.5-9.9,22.1,22.1,0,0,0-21.8,18.7,27.5,27.5,0,0,0-5.7,5.6,21.6,21.6,0,0,0-29.7-1.1,17.8,17.8,0,0,0-35.6.8,17.1,17.1,0,0,0,1.5,7.1Z"/><circle class="cls-3" cx="184.7" cy="97.3" r="65" transform="translate(-13.3 31.2) rotate(-9.3)"/><path class="cls-4" d="M236.7,201.2a21.8,21.8,0,1,0-21.8-21.8A21.9,21.9,0,0,0,236.7,201.2Z"/><path class="cls-5" d="M184.7,99.6h0A11.4,11.4,0,0,1,196.1,111V269.7H173.2V111A11.4,11.4,0,0,1,184.7,99.6Z"/><path class="cls-6" d="M196.1,214.6a5.4,5.4,0,1,1,0-10.8h24.3a10.6,10.6,0,0,0,7.4-3.1,10.3,10.3,0,0,0,3-7.4v-4.5a5.5,5.5,0,0,1,10.9,0v4.5a21.2,21.2,0,0,1-6.3,15.1,20.9,20.9,0,0,1-15,6.2Z"/><path class="cls-4" d="M442.9,172.7a50.6,50.6,0,1,0-50.6-50.6A50.7,50.7,0,0,0,442.9,172.7Z"/><path class="cls-5" d="M442.9,124.2h0a11.5,11.5,0,0,1,11.5,11.4V294.3h-23V135.6A11.5,11.5,0,0,1,442.9,124.2Z"/><path class="cls-4" d="M393.7,214.7a25.6,25.6,0,1,0-25.6-25.6A25.6,25.6,0,0,0,393.7,214.7Z"/><path class="cls-6" d="M433.8,233.7a5.4,5.4,0,0,0,0-10.8H409.6a10.6,10.6,0,0,1-10.5-10.5V192a5.4,5.4,0,0,0-10.8,0v20.4a21.3,21.3,0,0,0,21.3,21.3Z"/><path class="cls-4" d="M41.9,271.1a26.1,26.1,0,0,1,3.2,10.7,24.8,24.8,0,0,1,20.4-10.6,23.7,23.7,0,0,1,6.5.9,17.6,17.6,0,0,1,16.8-12.4,17.8,17.8,0,0,1,6.1,1.1,31.7,31.7,0,0,1,24-11,31.2,31.2,0,0,1,19.5,6.8,17.3,17.3,0,0,1,16.5-11.9,17.1,17.1,0,0,1,10.4,3.4,14.1,14.1,0,0,1,8.7-8.8,14.4,14.4,0,0,1,28.7.7,14,14,0,0,1-2.7,8.3h1.3a16.3,16.3,0,0,1,15.1,10.1A19.9,19.9,0,0,1,234,247.7h2.1a15,15,0,0,1-.2-2.2,14.2,14.2,0,0,1,9.8-13.5,7.1,7.1,0,0,1-1.4-4.3,7.9,7.9,0,0,1,7.9-7.9,7.8,7.8,0,0,1,7.8,7.9,8,8,0,0,1-2.4,5.7,14.2,14.2,0,0,1,6.8,12.1,13.8,13.8,0,0,1-2.3,7.8,24.3,24.3,0,0,1,10.5,4.6,15,15,0,0,1,20.5-5.2,29,29,0,0,1,21.4-10.5c0-.5-.1-1-.1-1.5a16.1,16.1,0,1,1,32.2,0,26.4,26.4,0,0,1-.2,2.9,18.5,18.5,0,0,1,5.4-.9,16.6,16.6,0,0,1,15.7,11.5l2.5-.2a15.1,15.1,0,0,1,13.8,9.1,20.7,20.7,0,0,1,15.5,9.9,26.7,26.7,0,0,1,13-11.6,12.4,12.4,0,1,1,24.1-3.9,11.8,11.8,0,0,1-1.1,5,27.6,27.6,0,0,1,12.8,14.9,12.7,12.7,0,0,1,5.2-1,13.2,13.2,0,0,1,7.6,2.4,29.7,29.7,0,0,1,12.9-19.1,16.7,16.7,0,0,1-2.1-8,16.3,16.3,0,0,1,32.5,0,17,17,0,0,1-1.3,6.4,29.4,29.4,0,0,1,14.9,17.5l1.7,1.6a20.7,20.7,0,0,1,38.9-4,19.6,19.6,0,0,1,10-5.4,16.6,16.6,0,0,1-2.6-8.9,17,17,0,0,1,6.7-13.4v-1.3a19.5,19.5,0,0,1,25.9-18.4V601.6H-.6V256.2a23.9,23.9,0,1,1,42.5,14.9Z"/><path class="cls-7" d="M8.8,299.1a36.5,36.5,0,0,1,17.6,5.3c32.3-49.2,89.4-9.2,77,23.5A25.4,25.4,0,0,1,124.2,352h2.4a22.4,22.4,0,0,1,7.1,1.3,29.4,29.4,0,0,1,58.3-.5c.5,0-1.7-.1,1.4-.1s11.1,2.2,15.1,5.8a26.4,26.4,0,0,1,52.4,0c20.4-11.2,42.2,11.3,34,31.9,2.4-1.1,3-1.7,7.8-1.7s13,3.7,16.2,9.3c-15.3-31.2,13.1-63.4,42.5-42.1,1.7-16,21.8-28.4,31.5-28.4s6,.4,8.8,1.2a35.2,35.2,0,0,1,35.2-28.7c18.1,0,34.3,14.6,35.8,33.1,1.1-.2-3.4-.2,3.5-.2s23.3,8.3,26.7,19.8c3.9-2.4,4.1-3.8,13.5-3.8s25,11,25.5,24.7c2.1-.4-.6-.6,6.4-.6s22.2,5.9,28.5,15a33.2,33.2,0,0,1,9-10.7c-5.2-5.7-8.3-10.5-8.3-21.5s8.7-25.6,20.9-30.1v276H-.6v-301A23.3,23.3,0,0,1,8.8,299.1Z"/><path class="cls-8" d="M188.2,316.1h0a16.5,16.5,0,0,1,16.5,16.5V498.1h-33V332.6A16.5,16.5,0,0,1,188.2,316.1Z"/><rect class="cls-9" x="443.2" y="328" width="32.1" height="166.62"/><path class="cls-10" d="M208.4,252.4a40.8,40.8,0,0,1,40.3,34.4,48.4,48.4,0,0,1-20.1,92.5,47.9,47.9,0,0,1-18.6-3.7,46.3,46.3,0,0,1-88-19.9,14.8,14.8,0,0,1,.1-2.1,53.3,53.3,0,0,1,57.7-89.5A41,41,0,0,1,208.4,252.4Z"/><path class="cls-10" d="M437.6,350.4a25.2,25.2,0,1,1-34-32.9,53.9,53.9,0,0,1-3.5-19.4,55.2,55.2,0,0,1,110.3,0,52.1,52.1,0,0,1-2.1,14.9,35.9,35.9,0,1,1-50.2,40.2h-2.9A54.1,54.1,0,0,1,437.6,350.4Z"/><path class="cls-11" d="M-.6,411a31.4,31.4,0,0,1,22.5,16.1,37.5,37.5,0,0,1,44.3-28.7,27.9,27.9,0,0,1,55.8,1.7A35.3,35.3,0,0,1,147.5,425a43.2,43.2,0,0,1,10.8-1.4,42.2,42.2,0,0,1,36.5,20.9,29.3,29.3,0,0,1,23.9-1.4,37.5,37.5,0,0,1,72.2,14.2v1.2a31.2,31.2,0,0,1,11.1-2,30.3,30.3,0,0,1,20.7,8A32.9,32.9,0,0,1,352,446.6a33.3,33.3,0,0,1,11.4,2,49.5,49.5,0,0,1,39.7-37.2,21.1,21.1,0,0,1-3.7-11.8,20.7,20.7,0,1,1,41.3,0,20.3,20.3,0,0,1-7.6,15.9A49.7,49.7,0,0,1,461.3,460a34.9,34.9,0,0,1,23.3,15.1,44.3,44.3,0,0,1,84.5-13,23.4,23.4,0,0,1,3.8-.3A31.1,31.1,0,0,1,598.4,475V601.6H-.6Z"/><path class="cls-12" d="M598.4,502.3v99.3H-.6V569.4a30.7,30.7,0,0,1,11-2.1,30,30,0,0,1,4.3.3,26,26,0,0,1,23.8-23.1,39.2,39.2,0,1,1,72-21.3,38.2,38.2,0,0,1-2,12.3,34.1,34.1,0,0,1,13.1,26.8,29.7,29.7,0,0,1-1,8,41.7,41.7,0,0,1,7.1-.7,34.4,34.4,0,0,1,30.1,17.8,28.6,28.6,0,0,1,7.7-1h2.7a41.6,41.6,0,0,1,27.9-26.1,31.9,31.9,0,0,1,38.6-49.5A38.9,38.9,0,0,1,245.9,490a24.5,24.5,0,1,1,46.9-9.8c0,1.1-.1,2.2-.2,3.2a39.9,39.9,0,0,1,20.8,35c0,1.6-.1,3.1-.2,4.6a62.4,62.4,0,0,1,25.2,44.8,43.6,43.6,0,0,1,23.4,11,43.5,43.5,0,0,1,33.1-38.5,22.5,22.5,0,0,1-1.2-7.4,22.9,22.9,0,0,1,45.7-2.6,17.5,17.5,0,0,1,4-.4,19.4,19.4,0,0,1,13,4.9,44.2,44.2,0,0,1,38.1-21.7,43.6,43.6,0,0,1,27,9.2,30.8,30.8,0,0,1,3.3-5.9,17.6,17.6,0,1,1,27.1-14.8,7.6,7.6,0,0,1-.1,1.5,31.6,31.6,0,0,1,22.3,10.6A50.7,50.7,0,0,1,598.4,502.3Z"/><path class="cls-13" d="M43.6,315.2H60.5a51.4,51.4,0,0,0,51.2-51.3V2.5h28.9V263.9a80.4,80.4,0,0,1-80.1,80.2H43.6Z"/><rect class="cls-14" x="-0.6" y="2.5" width="47.7" height="599.08"/><path class="cls-13" d="M590.3,333.9H573.5a51.2,51.2,0,0,1-51.3-51.3V21.2H493.3V282.6a80.2,80.2,0,0,0,80.2,80.2h16.8Z"/><rect class="cls-14" x="550.7" y="2.5" width="47.7" height="599.08"/><path class="cls-15" d="M-.6,2.5h599V66.7h-1.6a46.1,46.1,0,0,1-44.1-32.9H550a41,41,0,0,1-74-.4,39.3,39.3,0,0,1-18.1,4.3A38.8,38.8,0,0,1,439.3,33a56.7,56.7,0,0,1-33.4,10.8,56.6,56.6,0,0,1-39.8-16.3l-3.7.2a34,34,0,0,1-29-16.2,32.2,32.2,0,0,1-28.7,17.7A32,32,0,0,1,275.2,9.9a44.1,44.1,0,0,1-8.9,1A39.4,39.4,0,0,1,242,2.6a40.4,40.4,0,0,1-25.6,9.1,40.5,40.5,0,0,1-13.1-2.2,27.1,27.1,0,0,1-26.8,23.4,25.9,25.9,0,0,1-10-2,41.3,41.3,0,0,1-19.8,5,41.5,41.5,0,0,1-35.3-19.6,32.2,32.2,0,0,1-20,6.8,31.7,31.7,0,0,1-12.3-2.4A36.2,36.2,0,0,1,46.3,41.5a35.6,35.6,0,0,1-24.7-9.8A31.9,31.9,0,0,1,10,33.8,31.1,31.1,0,0,1-.6,32Z"/><rect class="cls-16" x="9.6" y="100.3" width="7.6" height="71.85" rx="3.8" ry="3.8"/><rect class="cls-16" x="34.3" y="80.1" width="7.6" height="45.86" rx="3.8" ry="3.8"/><path class="cls-13" d="M6.8,202h0a3.8,3.8,0,0,1,3.8,3.8V223a3.8,3.8,0,0,1-3.8,3.8h0A3.9,3.9,0,0,1,2.9,223V205.8A3.9,3.9,0,0,1,6.8,202Z"/><rect class="cls-16" x="27.8" y="230.6" width="7.6" height="12.42" rx="3.8" ry="3.8"/><rect class="cls-16" x="10.2" y="252.4" width="7.6" height="45.86" rx="3.8" ry="3.8"/><path class="cls-13" d="M30.5,281.5h0a3.8,3.8,0,0,1,3.8,3.8v17.2a3.8,3.8,0,0,1-3.8,3.8h0a3.8,3.8,0,0,1-3.8-3.8V285.3A3.8,3.8,0,0,1,30.5,281.5Z"/><path class="cls-13" d="M7.9,317h0a3.8,3.8,0,0,1,3.8,3.8v4.8a3.8,3.8,0,0,1-3.8,3.8h0a3.8,3.8,0,0,1-3.8-3.8v-4.8A3.8,3.8,0,0,1,7.9,317Z"/><path class="cls-13" d="M32,326.2h0a3.8,3.8,0,0,1,3.8,3.8v65a3.8,3.8,0,0,1-3.8,3.8h0a3.8,3.8,0,0,1-3.8-3.8V330A3.8,3.8,0,0,1,32,326.2Z"/><rect class="cls-16" x="10.6" y="349.5" width="7.6" height="24.84" rx="3.8" ry="3.8"/><path class="cls-13" d="M35,167.6h0a3.9,3.9,0,0,1,3.9,3.8v17.2a3.9,3.9,0,0,1-3.9,3.8h0a3.8,3.8,0,0,1-3.8-3.8V171.4A3.8,3.8,0,0,1,35,167.6Z"/><rect class="cls-16" x="17.8" y="56.4" width="7.6" height="12.42" rx="3.8" ry="3.8"/><path class="cls-13" d="M14.5,435.1h0a3.8,3.8,0,0,1,3.8,3.9v17.1a3.8,3.8,0,0,1-3.8,3.9h0a3.9,3.9,0,0,1-3.9-3.9V439A3.9,3.9,0,0,1,14.5,435.1Z"/><rect class="cls-16" x="28.9" y="467.2" width="7.6" height="40.13" rx="3.8" ry="3.8"/><path class="cls-13" d="M12.1,481.7h0a3.8,3.8,0,0,1,3.8,3.8v17.2a3.9,3.9,0,0,1-3.8,3.9h0a3.9,3.9,0,0,1-3.8-3.9V485.5A3.8,3.8,0,0,1,12.1,481.7Z"/><path class="cls-13" d="M27.1,539.7h0a3.8,3.8,0,0,1,3.8,3.8v4.8a3.8,3.8,0,0,1-3.8,3.8h0a3.8,3.8,0,0,1-3.8-3.8v-4.8A3.8,3.8,0,0,1,27.1,539.7Z"/><path class="cls-13" d="M570.1,96.5h0a3.8,3.8,0,0,1,3.8,3.8v50.1a3.8,3.8,0,0,1-3.8,3.8h0a3.9,3.9,0,0,1-3.9-3.8V100.3A3.9,3.9,0,0,1,570.1,96.5Z"/><rect class="cls-16" x="588" y="82.4" width="7.6" height="12.42" rx="3.8" ry="3.8"/><rect class="cls-16" x="582.3" y="111" width="7.6" height="24.84" rx="3.8" ry="3.8"/><rect class="cls-16" x="583.1" y="194" width="7.6" height="72.61" rx="3.8" ry="3.8"/><path class="cls-13" d="M582.4,158.4h0a3.9,3.9,0,0,1,3.8,3.9v17.2a3.8,3.8,0,0,1-3.8,3.8h0a3.9,3.9,0,0,1-3.9-3.8V162.3A4,4,0,0,1,582.4,158.4Z"/><path class="cls-13" d="M562,174.5h0a3.9,3.9,0,0,1,3.9,3.8v38.2a3.9,3.9,0,0,1-3.9,3.8h0a3.8,3.8,0,0,1-3.8-3.8V178.3A3.8,3.8,0,0,1,562,174.5Z"/><path class="cls-13" d="M567.8,264.7h0a3.8,3.8,0,0,1,3.8,3.8v17.2a3.8,3.8,0,0,1-3.8,3.8h0a3.8,3.8,0,0,1-3.8-3.8V268.5A3.8,3.8,0,0,1,567.8,264.7Z"/><path class="cls-13" d="M584.2,288.5h0a3.9,3.9,0,0,1,3.8,3.9v4.7a3.9,3.9,0,0,1-3.8,3.9h0a3.9,3.9,0,0,1-3.8-3.9v-4.7A3.9,3.9,0,0,1,584.2,288.5Z"/><path class="cls-13" d="M564.7,307.8h0a3.9,3.9,0,0,1,3.8,3.9v64.9a3.8,3.8,0,0,1-3.8,3.8h0a3.8,3.8,0,0,1-3.8-3.8V311.7A3.9,3.9,0,0,1,564.7,307.8Z"/><path class="cls-13" d="M584.5,341.2h0a3.9,3.9,0,0,1,3.9,3.8v65a3.9,3.9,0,0,1-3.9,3.8h0a3.8,3.8,0,0,1-3.8-3.8V345A3.8,3.8,0,0,1,584.5,341.2Z"/><rect class="cls-16" x="563.2" y="407.6" width="7.6" height="24.84" rx="3.8" ry="3.8"/><path class="cls-13" d="M585.7,434h0a3.9,3.9,0,0,1,3.9,3.8v32.5a3.9,3.9,0,0,1-3.9,3.8h0a3.8,3.8,0,0,1-3.8-3.8V437.8A3.8,3.8,0,0,1,585.7,434Z"/><path class="cls-13" d="M567,461.1h0a3.8,3.8,0,0,1,3.8,3.8v17.2a3.8,3.8,0,0,1-3.8,3.8h0a3.8,3.8,0,0,1-3.8-3.8V464.9A3.8,3.8,0,0,1,567,461.1Z"/><rect class="cls-16" x="577.4" y="513.7" width="7.6" height="12.42" rx="3.8" ry="3.8"/><path class="cls-13" d="M564.1,500h0a3.8,3.8,0,0,1,3.8,3.8v33.3a3.9,3.9,0,0,1-3.8,3.9h0a4,4,0,0,1-3.9-3.9V503.8A3.9,3.9,0,0,1,564.1,500Z"/><rect class="cls-16" x="576.9" y="560.4" width="7.6" height="24.84" rx="3.8" ry="3.8"/></svg>