<svg id="Publicdomainvectors.org" xmlns="http://www.w3.org/2000/svg" viewBox="0 0 600 600"><defs><style>.cls-1{fill:#eef6fc;}.cls-2{fill:#fff;}.cls-10,.cls-11,.cls-12,.cls-2,.cls-3,.cls-4,.cls-6,.cls-7,.cls-8,.cls-9{fill-rule:evenodd;}.cls-3{fill:#c3dcf3;}.cls-4{fill:#97bee5;}.cls-5{fill:#c8d670;}.cls-6{fill:#e2ea99;}.cls-7{fill:#dde78f;}.cls-8{fill:#6f4d2b;}.cls-9{fill:#94ac3c;}.cls-10{fill:#82983b;}.cls-11{fill:#a3b05a;}.cls-12{fill:#7c8639;}</style></defs><title>LANDSCAPE22</title><rect class="cls-1" x="-0.2" y="0.6" width="599.4" height="599.39"/><path class="cls-2" d="M599.1,103.5V381.1L374.7,427.4-.2,366.5V140.4l21,12.3a34.7,34.7,0,0,0,26.9,3.6,35.4,35.4,0,0,0,21.5-16.5,78.3,78.3,0,0,1,136.3,0,83.9,83.9,0,0,0,145.8,0,78.8,78.8,0,0,1,108.5-29.1,127.3,127.3,0,0,0,97.1,13A125.8,125.8,0,0,0,599.1,103.5Z"/><path class="cls-3" d="M599.1,342v71H-.2V302a98.2,98.2,0,0,1,72.6-21.6,96.9,96.9,0,0,0,98.7-57,59,59,0,0,1,107.8,0,113.1,113.1,0,0,0,170,45.6,70.5,70.5,0,0,1,105.9,28.4A88.7,88.7,0,0,0,599.1,342Z"/><path class="cls-4" d="M599.1,377.4V413H-.2V357.3c19.9-8.1,45.9-12.3,72.6-10.8,41.8,2.2,81.6-9.4,98.7-28.6,9.4-10.7,30.6-17.6,53.9-17.6s44.4,6.9,53.9,17.6c13.8,15.7,41.1,27.3,74.1,31.8s68.2,1.1,95.9-9c17.2-6.2,39.1-8.3,59.7-5.5s37.5,10,46.2,19.8S579.5,372.9,599.1,377.4Z"/><rect class="cls-5" x="-0.2" y="413" width="599.4" height="186.97"/><polygon class="cls-6" points="599.1 436.6 20.8 413 599.1 413 599.1 436.6"/><path class="cls-7" d="M599.1,453.3,35.3,446.5l563.8,66.6V453.3ZM81.5,513.1l478.9,62-325,3.6Z"/><path class="cls-8" d="M371.6,600H86.7L35.3,563.3l1.8-7.2,90.8-179.3,81.8,17-3.3,24.7a128.5,128.5,0,0,0,25.4,94.8l143.8,44.3L372.1,586A94.1,94.1,0,0,0,371.6,600Z"/><path class="cls-9" d="M342.8,600H-.2V333.6l17.1-1.5c68.8-5.8,130.7,1.5,179.9,21.1,12,4.8,18.3,13.9,17.6,25.4s-8.5,24.3-21.6,35.6c-15.7,13.6-25,29.1-25.9,42.9s6.7,24.8,21.2,30.6c26,10.4,58.9,14.3,95.3,11.2,48.7-4.1,85.5,10.9,96.9,39.4,7.2,18.1-7.7,43.2-36.4,61Z"/><path class="cls-10" d="M223.7,600H-.2V490.1c12.2-1.9,26.7-4.7,43.1-6.9,60.3-8,108,29.5,64.6,53.4-30.7,16.9-2.5,24.9,69.3,22.6C202.9,558.4,223.9,574.7,223.7,600Z"/><path class="cls-10" d="M342.8,600H279.7c49.2-20,94.5-52.2,89.6-69.5a38.1,38.1,0,0,0-5.2-13.6,51.8,51.8,0,0,1,16.2,21.4c7.2,18.1-7.7,43.2-36.4,61l-1.1.7ZM212.2,366.5a25.4,25.4,0,0,1,2.2,12.1c-.8,11.4-8.5,24.3-21.6,35.6-15.7,13.6-25,29.1-25.9,42.9s6.7,24.8,21.2,30.6l8.5,3.1c-20.7-1-39.5-3.7-51.6-9-14.4-6.3-20-18.4-15.6-33.5s40.2-37.1,60.8-52.1C207.3,383.8,212.1,375.9,212.2,366.5Z"/><polygon class="cls-11" points="426.7 356.7 432.3 383.6 427.1 382.9 433.1 387.2 435.2 397.5 436.3 402.6 427.1 400.1 437.2 407.1 440.9 424.8 432.2 423.8 441.8 428.9 443.7 438.3 426.7 438.3 409.6 438.3 412 426.7 422.1 420.6 413.1 421.7 417.4 401.1 427.1 393.2 418.5 396 422.3 377.4 427.1 373.4 423 374.1 426.7 356.7"/><polygon class="cls-6" points="520.4 366.5 523.9 383.4 520.6 382.9 524.3 385.6 525.7 392.1 526.4 395.3 520.6 393.7 527 398.1 529.3 409.1 523.8 408.6 529.8 411.7 531 417.6 520.4 417.6 509.7 417.6 511.2 410.4 517.5 406.6 511.8 407.2 514.5 394.3 520.6 389.4 515.2 391.1 517.6 379.5 520.6 377 518.1 377.4 520.4 366.5"/><polygon class="cls-6" points="542.1 376.8 544.7 389.1 542.3 388.8 545 390.7 546 395.4 546.5 397.7 542.3 396.6 546.9 399.8 548.6 407.8 544.6 407.4 549 409.7 549.9 414 542.1 414 534.3 414 535.4 408.8 540 406 535.9 406.5 537.9 397.1 542.3 393.5 538.4 394.7 540.1 386.3 542.3 384.4 540.5 384.8 542.1 376.8"/><polygon class="cls-6" points="567.2 384.3 569.4 394.8 567.4 394.5 569.7 396.2 570.6 400.2 571 402.2 567.4 401.2 571.4 403.9 572.8 410.8 569.4 410.5 573.1 412.4 573.9 416.1 567.2 416.1 560.6 416.1 561.5 411.6 565.5 409.2 562 409.6 563.6 401.6 567.4 398.5 564 399.6 565.6 392.4 567.4 390.8 565.8 391.1 567.2 384.3"/><polygon class="cls-6" points="505.4 367.1 509 384 505.7 383.5 509.4 386.3 510.8 392.7 511.5 395.9 505.7 394.3 512 398.7 514.4 409.8 508.9 409.2 514.9 412.4 516.1 418.3 505.4 418.3 494.8 418.3 496.3 411 502.6 407.2 496.9 407.9 499.6 394.9 505.7 390 500.3 391.7 502.7 380.1 505.7 377.6 503.2 378 505.4 367.1"/><polygon class="cls-6" points="495.4 379.4 498 391.7 495.7 391.3 498.4 393.3 499.3 398 499.8 400.3 495.7 399.1 500.3 402.4 501.9 410.4 498 410 502.3 412.3 503.2 416.6 495.4 416.6 487.7 416.6 488.8 411.3 493.4 408.5 489.3 409 491.2 399.6 495.7 396 491.7 397.3 493.5 388.8 495.7 387 493.8 387.3 495.4 379.4"/><polygon class="cls-12" points="554.8 356.8 566.9 414.4 555.8 412.7 568.4 422 573 443.9 575.3 454.8 555.8 449.5 577.3 464.5 585.2 502.1 566.5 500.1 587 510.9 591.2 531 554.8 531 518.4 531 523.6 506.3 545 493.3 525.8 495.6 535 451.6 555.8 434.9 537.3 440.7 545.6 401.1 555.8 392.5 547.1 394 554.8 356.8"/><polygon class="cls-12" points="516.1 379.4 525.8 425.9 516.9 424.6 527.1 432 530.8 449.8 532.7 458.6 516.9 454.3 534.3 466.4 540.7 496.8 525.6 495.3 542.2 504 545.6 520.2 516.1 520.2 486.7 520.2 490.9 500.3 508.2 489.7 492.7 491.6 500.1 456 516.9 442.5 502 447.2 508.6 415.2 516.9 408.2 509.8 409.4 516.1 379.4"/><polygon class="cls-11" points="316.3 373.4 320.2 392.1 316.6 391.6 320.7 394.6 322.2 401.7 322.9 405.2 316.6 403.5 323.6 408.4 326.1 420.6 320.1 420 326.7 423.5 328.1 430 316.3 430 304.5 430 306.1 422 313.1 417.8 306.9 418.5 309.9 404.2 316.6 398.8 310.6 400.6 313.3 387.8 316.6 385 313.8 385.5 316.3 373.4"/><polygon class="cls-6" points="282.3 364.8 285.8 381.7 282.6 381.2 286.3 383.9 287.7 390.4 288.3 393.6 282.6 392 288.9 396.4 291.2 407.4 285.8 406.9 291.8 410 293 415.9 282.3 415.9 271.6 415.9 273.2 408.7 279.4 404.9 273.8 405.6 276.5 392.6 282.6 387.7 277.2 389.4 279.6 377.8 282.6 375.3 280 375.7 282.3 364.8"/><polygon class="cls-6" points="267.4 365.4 270.9 382.3 267.7 381.9 271.4 384.6 272.8 391 273.4 394.2 267.7 392.6 274 397 276.3 408.1 270.9 407.5 276.9 410.7 278.1 416.6 267.4 416.6 256.7 416.6 258.2 409.3 264.5 405.5 258.9 406.2 261.6 393.3 267.7 388.3 262.3 390.1 264.7 378.4 267.7 375.9 265.1 376.4 267.4 365.4"/><polygon class="cls-6" points="293.1 382.8 295.7 395.1 293.3 394.7 296 396.7 297 401.4 297.5 403.7 293.3 402.6 297.9 405.8 299.6 413.8 295.6 413.4 300 415.7 300.9 420 293.1 420 285.3 420 286.4 414.7 291 412 286.9 412.4 288.9 403 293.3 399.5 289.4 400.7 291.1 392.3 293.3 390.4 291.4 390.7 293.1 382.8"/></svg>