<svg id="publicdomainvectors.org" xmlns="http://www.w3.org/2000/svg" viewBox="0 0 660 660"><defs><style>.cls-1{fill:#f2f6da;}.cls-2{fill:#ffcd05;}.cls-10,.cls-11,.cls-2,.cls-3,.cls-4,.cls-5,.cls-6,.cls-7,.cls-8,.cls-9{fill-rule:evenodd;}.cls-3{fill:#fefef7;}.cls-4{fill:#cfdf61;}.cls-5{fill:#bad532;}.cls-6{fill:#ecee9f;}.cls-7{fill:#a7bf39;}.cls-8{fill:#e6ea92;}.cls-9{fill:#94ac3c;}.cls-10{fill:#fff;}.cls-11{fill:#788d39;}</style></defs><title>LANDSCAPE13</title><rect class="cls-1" x="0.6" width="659" height="659.02"/><path class="cls-2" d="M403.7,178.3A63.6,63.6,0,1,0,340,114.7,63.8,63.8,0,0,0,403.7,178.3Z"/><path class="cls-3" d="M659.6,163.8V393.4A76.6,76.6,0,0,1,619,380.8a46.3,46.3,0,0,0-39.9-6.1,77.6,77.6,0,0,1-21.2,3,75.8,75.8,0,0,1-21.9-3.2,46.1,46.1,0,0,0-35.8,3.4,66.1,66.1,0,0,1-51.5,3.6,46.9,46.9,0,0,0-44,6.5,58.8,58.8,0,0,1-34.4,11,57.9,57.9,0,0,1-33.1-10.2,47.1,47.1,0,0,0-39.9-6.7,73,73,0,0,1-19.9,2.7,75.7,75.7,0,0,1-58.9-28.1,32.6,32.6,0,0,0-33.8-11.5l-3.7.8a46.8,46.8,0,0,0-31.9,21.3A80.6,80.6,0,0,1,7,355.2a47.4,47.4,0,0,0-6.4-11V86.2a60,60,0,0,1,49,58.9h0a33.4,33.4,0,0,0,45.7,31,51.4,51.4,0,0,1,19.3-3.7,52,52,0,0,1,44.7,25.4,46.1,46.1,0,0,0,28.1,21.7,63.8,63.8,0,0,1,21.3,10.7,47.1,47.1,0,0,0,44.6,7.4c1.6-.6,3.2-1,4.9-1.5a46.8,46.8,0,0,0,30.6-24.3,54.2,54.2,0,0,1,22-22.5,46.7,46.7,0,0,0,18.5-18.1A43.9,43.9,0,0,1,411,188.9a46.3,46.3,0,0,0,11.8,27.2,60.2,60.2,0,0,1,7.9,11.5A47.3,47.3,0,0,0,472,253.3h2.6a46.3,46.3,0,0,0,34.2-11.1,75.6,75.6,0,0,1,36.7-16.8,46.8,46.8,0,0,0,34.6-24.7,73.6,73.6,0,0,1,79.5-37ZM542.2,38.8a26.4,26.4,0,0,0-15.9,5.3,20.4,20.4,0,0,1-18,3.6,21.2,21.2,0,0,0-4.4-.5h-.2A20.8,20.8,0,0,1,490,42.3a29.9,29.9,0,0,0-35.9-1.9,20.3,20.3,0,0,1-16.7,3,23.3,23.3,0,0,0-5.3-.6,22.5,22.5,0,0,0,0,44.9,23.3,23.3,0,0,0,5.3-.6,20.3,20.3,0,0,1,16.7,3.1A30.3,30.3,0,0,0,490,88.3a20.2,20.2,0,0,1,13.7-4.9h.2a16.1,16.1,0,0,0,4.4-.6,20.7,20.7,0,0,1,18,3.7,26.5,26.5,0,1,0,15.9-47.7ZM110.7,78.2a16.7,16.7,0,0,0,0,33.4h.5a18.8,18.8,0,0,1,12.1,3.6,25,25,0,0,0,27.9.5,19.7,19.7,0,0,1,16.7-2.4,17.9,17.9,0,0,0,5.7.9l2.6-.2a19.4,19.4,0,0,1,14.7,3.8,28.5,28.5,0,0,0,32.1,1.6,19.2,19.2,0,0,1,14.6-2.5,24.2,24.2,0,0,0,4.7.5,22.5,22.5,0,0,0,0-45,18.3,18.3,0,0,0-4.7.5A19.2,19.2,0,0,1,223,70.4a27.9,27.9,0,0,0-14.9-4.2A28.5,28.5,0,0,0,190.9,72a19.8,19.8,0,0,1-14.7,3.8,11,11,0,0,0-2.6-.2,21.2,21.2,0,0,0-5.7.8,19.4,19.4,0,0,1-16.7-2.3,24.6,24.6,0,0,0-27.9.5,19.4,19.4,0,0,1-12.1,3.6Z"/><path class="cls-4" d="M659.6,333.6c-56.7-32.7-117.3-37.8-176.8-8.4S362.6,355.3,303,329c-44.6-19.7-94.6-29.6-138.1-10.6C107.4,343.5,55.8,350,.6,318.2V498.4h659Z"/><path class="cls-5" d="M380.3,361.1a27.8,27.8,0,0,1-40.6-24.6,30.7,30.7,0,0,0-8.2-20.9,28.1,28.1,0,0,1,3.5-41,30,30,0,0,0,11.1-16.9,20.5,20.5,0,0,1,7.5-11.3,29.9,29.9,0,0,0,11-16.6,18.4,18.4,0,0,1,35.6.4,29.6,29.6,0,0,0,9.1,15.5,18.4,18.4,0,0,1,5.7,11.8,29.8,29.8,0,0,0,6.7,17.1,33.2,33.2,0,0,1,.9,40.1,29.8,29.8,0,0,0-6,18.4,24.6,24.6,0,0,1-23.4,24.5A29.3,29.3,0,0,0,380.3,361.1Z"/><path class="cls-6" d="M383.7,216.2v56.7l29.1-22.8c.4.9.8,1.7,1.1,2.6l-30.2,23.7v45.5l44.8-32.3c.1,1.1.3,2.1.3,3.1l-45.1,32.6V433H381V353.2l-56.4-51.6c-.2-1.3-.3-2.6-.4-4L381,349.5V308.7l-40.2-39.8,1.5-2.2L381,304.9V276.3l-28.4-29.2,1-.7,1.2-1L381,272.3V216.2Z"/><path class="cls-5" d="M.6,422.7l77.9-20.9c103.6-27.7,199-28.4,302.2-2,54.9,14,105,14,159.9-.1,42.2-10.8,77.3-9.3,119,1.9V659H.6Z"/><path class="cls-7" d="M565.2,384.7a34.2,34.2,0,0,0,49.9-30.1,36.2,36.2,0,0,1,10-25.6,34.3,34.3,0,0,0-4.3-50.3,37.1,37.1,0,0,1-13.6-20.8,25.5,25.5,0,0,0-9.1-13.9,35.8,35.8,0,0,1-13.6-20.4,22.6,22.6,0,0,0-43.7.6,36.5,36.5,0,0,1-11.1,19,22.2,22.2,0,0,0-7,14.4,36,36,0,0,1-8.3,21,40.9,40.9,0,0,0-8.8,25.3,40.2,40.2,0,0,0,7.8,23.9,37.3,37.3,0,0,1,7.4,22.6,30,30,0,0,0,28.6,30A36.2,36.2,0,0,1,565.2,384.7Z"/><path class="cls-8" d="M561,207v69.5l-35.6-27.9c-.5,1-1,2.1-1.4,3.1l37,29.1v55.9l-54.8-39.6a23.2,23.2,0,0,0-.5,3.8L561,340.8V472.9h3.4V375l69.1-63.2a27.3,27.3,0,0,0,.5-5l-69.6,63.7v-50l49.4-48.8a28.3,28.3,0,0,1-2-2.8l-47.4,46.9V280.7l34.8-35.8-1.1-.9-1.5-1.2-32.2,33.1V207Z"/><path class="cls-7" d="M.6,450.6l65.7,17.6c119.1,31.9,228.5,31.9,347.6,0l24.3-6.5c69.7-18.7,133.7-18.7,203.4,0l18,4.8V659H.6Z"/><path class="cls-9" d="M111.8,442.2a43.4,43.4,0,0,1-19.7,4.7,42.7,42.7,0,0,1-42.7-42.5,46.4,46.4,0,0,0-12.6-32.1,43,43,0,0,1,5.4-62.9,45.8,45.8,0,0,0,17-26A31.6,31.6,0,0,1,70.7,266a45.8,45.8,0,0,0,17-25.6,28.3,28.3,0,0,1,54.7.7A45.8,45.8,0,0,0,156.3,265a27.3,27.3,0,0,1,8.7,18,45.8,45.8,0,0,0,10.4,26.3A50.9,50.9,0,0,1,186.5,341a50,50,0,0,1-9.8,29.9,46.5,46.5,0,0,0-9.2,28.3,37.6,37.6,0,0,1-35.9,37.6A45.8,45.8,0,0,0,111.8,442.2Z"/><path class="cls-4" d="M117.1,219.6v87.1l44.5-35a28.7,28.7,0,0,1,1.8,4L117.1,312v70l68.7-49.6c.2,1.6.4,3.2.5,4.8l-69.2,50V552.6h-4.2V430.1L26.3,350.9a45,45,0,0,1-.7-6.3l87.3,79.8V361.7L51,300.6c.9-1.1,1.7-2.3,2.5-3.5l59.4,58.7V311.9L69.3,267.1l1.4-1.1,1.8-1.5,40.4,41.3V219.6Z"/><path class="cls-9" d="M.6,538.8C57.3,508,117.9,505,177.4,536.4s120.2,34.3,179.8,10.1c44.6-18.2,94.6-26.4,138.1-5.9,57.5,27.1,109.1,35.4,164.3,5.4V659H.6Z"/><path class="cls-4" d="M483.2,659c-.4-33.8,3.5-64.9,11.5-93.6a276.5,276.5,0,0,1,35.8-78.8l3.6,2.4a273.5,273.5,0,0,0-35.2,77.6q-11.8,42.3-11.3,92.4Z"/><path class="cls-10" d="M533.8,493.8c12.5,6.5,81.3,25.1,68.1,45s-57.2-36.1-68.1-45Zm-2.9-1c-11.1,1.6-56.5,27.9-68.9-.5s56.3-1.3,68.9.5Zm2.9,0c12.6,1.8,81.3,28.9,68.9.5s-57.8-2.1-68.9-.5Zm-2.1,1c-6.8,6.3-59.9,24-29.2,44.2s26-35.5,29.2-44.2Zm1.3-2c3.2-8.7-1.4-64.5,29.2-44.2s-22.4,37.9-29.2,44.2Zm0,2.4c2.8,10.8-3.5,62.8,27.4,63.1S539.5,505,533,494.2Zm-1.2-2.8c-2.9-10.8,3.5-62.8-27.5-63.1s20.9,52.3,27.5,63.1Zm-.9.4c-10.9-8.9-55-64.9-68.1-45S518.4,485.3,530.9,491.8Z"/><path class="cls-2" d="M542.5,477.5c12.9,8.6,19,22.4,13.4,30.8s-20.6,8.4-33.6-.2-19-22.4-13.5-30.8S529.5,468.9,542.5,477.5Z"/><path class="cls-11" d="M429.4,532.3a51.6,51.6,0,0,1,59.2,67.5,51.6,51.6,0,0,1-59.2-67.5Z"/><path class="cls-7" d="M429.4,532.3l1.9-.3,23.5,26.8,6.9-22.7a26.4,26.4,0,0,1,2.9,1.5l-7.4,24L471,577.2l7.1-29,.5.6a25.2,25.2,0,0,1,2.1,2.5l-7.2,28.9L489.2,598l-.6,1.8-1.8.3-8.1-9.2-27,2.6a30.7,30.7,0,0,1-4.2-2.8l28.6-2.7L464,574.2l-30.1,1.6c-.6-1.1-1.2-2.1-1.7-3.2l29.1-1.5-13.5-15.4-20.7.9a31.1,31.1,0,0,1-.4-3.2l18.4-.8-16.3-18.5Z"/><path class="cls-11" d="M532.7,592.8a39.8,39.8,0,0,0-45.6,52,39.8,39.8,0,0,0,45.6-52Z"/><path class="cls-7" d="M532.7,592.8l-1.4-.3-18.1,20.6-5.4-17.4-2.2,1.1,5.7,18.5-10.6,12.1L495.2,605l-.4.5a14.6,14.6,0,0,0-1.6,1.9l5.5,22.2-12,13.8c.1.5.3.9.4,1.4l1.4.2,6.2-7,20.9,2a36.2,36.2,0,0,0,3.2-2.2l-22.1-2.1,9.4-10.7,23.2,1.3c.5-.8.9-1.6,1.3-2.4l-22.5-1.2,10.5-11.9,15.9.7a19,19,0,0,0,.3-2.5l-14.2-.6,12.6-14.3C533,593.7,532.9,593.2,532.7,592.8Z"/><path class="cls-4" d="M189.2,659c.3-26-2.7-49.9-8.8-72a213.9,213.9,0,0,0-27.6-60.6l-2.8,1.8a208.6,208.6,0,0,1,27.1,59.7c6.1,21.8,9.1,45.4,8.7,71.1Z"/><path class="cls-10" d="M150.3,532c-9.6,5-62.5,19.2-52.4,34.6s44-27.8,52.4-34.6Zm2.2-.8c8.6,1.2,43.5,21.4,53-.4s-43.3-1-53,.4Zm-2.2,0c-9.7,1.4-62.5,22.3-53,.4s44.5-1.6,53-.4Zm1.6.7c5.2,4.9,46,18.5,22.5,34.1s-20.1-27.3-22.5-34.1Zm-1-1.4c-2.4-6.8,1.1-49.6-22.5-34.1s17.3,29.2,22.5,34.1Zm.1,1.8c-2.3,8.3,2.6,48.3-21.2,48.5s16.1-40.2,21.2-48.5Zm.9-2.1c2.2-8.3-2.7-48.4,21.1-48.6s-16.1,40.2-21.1,48.6Zm.6.3c8.4-6.9,42.3-50,52.4-34.6S162.1,525.4,152.5,530.5Z"/><path class="cls-2" d="M143.6,519.5c-9.9,6.6-14.6,17.2-10.3,23.7s15.9,6.4,25.9-.2,14.6-17.3,10.3-23.7S153.6,512.9,143.6,519.5Z"/><path class="cls-11" d="M230.6,561.6a39.7,39.7,0,0,0-45.5,51.9,39.7,39.7,0,0,0,45.5-51.9Z"/><path class="cls-7" d="M230.6,561.6l-1.5-.3-18,20.6-5.4-17.4-2.2,1.1,5.7,18.5-10.6,12-5.5-22.3-.4.5c-.5.6-1.1,1.2-1.6,1.9l5.5,22.2-12,13.7c.2.4.3.9.5,1.4l1.4.2,6.2-7,20.8,2,3.2-2.2-22-2.1,9.2-10.6,23.2,1.2c.5-.8.9-1.6,1.3-2.4L206,591.4l10.4-11.8,15.9.7a10.1,10.1,0,0,0,.3-2.5l-14.1-.6L231,563C230.9,562.5,230.7,562,230.6,561.6Z"/><path class="cls-11" d="M151.1,608.1a30.5,30.5,0,0,1,35.1,40,30.6,30.6,0,0,1-35.1-40Z"/><path class="cls-7" d="M151.1,608.1l1.1-.2,13.9,15.8,4.2-13.4,1.7.9-4.4,14.2,8.1,9.3,4.3-17.2.3.3,1.2,1.5-4.2,17.1,9.2,10.6-.3,1.1-1.1.2-4.8-5.5-16,1.6a22,22,0,0,1-2.5-1.7l17-1.6-7.2-8.2-17.8.9-1.1-1.8,17.3-.9-8-9.2-12.3.6c-.1-.6-.1-1.3-.2-1.9l10.9-.5-9.6-11Z"/><path class="cls-4" d="M304.5,659c.5-34.3-3.5-65.8-11.6-94.9a280.2,280.2,0,0,0-36.3-79.9l-3.7,2.4a275.7,275.7,0,0,1,35.7,78.7c8,28.7,11.9,59.8,11.5,93.7Z"/><path class="cls-10" d="M253.2,491.5c-12.6,6.6-82.4,25.4-69,45.6s58-36.6,69-45.6Zm3-1c11.2,1.6,57.3,28.2,69.8-.6s-57.1-1.2-69.8.6Zm-3,0c-12.7,1.8-82.3,29.3-69.8.5s58.6-2.1,69.8-.5Zm2.2,1c6.9,6.4,60.7,24.3,29.6,44.8s-26.4-35.9-29.6-44.8Zm-1.3-2c-3.2-8.9,1.4-65.4-29.7-44.8s22.8,38.4,29.7,44.8Zm0,2.4c-2.9,10.9,3.6,63.7-27.8,64s21.2-53,27.8-64Zm1.2-2.8c2.9-10.9-3.5-63.7,27.9-64s-21.2,53-27.9,64Zm.9.4c11.1-9,55.7-65.8,69.1-45.6S268.8,482.9,256.2,489.5Z"/><path class="cls-2" d="M244.5,475c-13.2,8.7-19.3,22.7-13.6,31.3s20.9,8.4,34.1-.3,19.2-22.7,13.6-31.3S257.7,466.3,244.5,475Z"/><path class="cls-11" d="M359.1,530.6a52.3,52.3,0,0,0-60,68.3,52.3,52.3,0,0,0,60-68.3Z"/><path class="cls-7" d="M359.1,530.6l-1.9-.4-23.8,27.2-7.1-23-2.9,1.5,7.5,24.3L317,576.1l-7.3-29.4-.5.6-2.1,2.5,7.3,29.3-15.9,18,.6,1.8,1.9.4,8.1-9.3,27.4,2.6,4.3-2.8L311.7,587,324,573l30.6,1.6a32.4,32.4,0,0,0,1.7-3.2l-29.6-1.5,13.7-15.6,21,.9c.2-1.1.3-2.1.4-3.2l-18.6-.9,16.5-18.8Z"/><path class="cls-11" d="M254.3,591.8a40.4,40.4,0,0,1,46.3,52.8,40.4,40.4,0,0,1-46.3-52.8Z"/><path class="cls-7" d="M254.3,591.8l1.5-.2,18.3,20.9,5.5-17.7,2.3,1.1-5.8,18.8L286.8,627l5.6-22.7c.2.1.3.3.4.4l1.6,2-5.6,22.5,12.2,14a10.3,10.3,0,0,1-.4,1.4l-1.4.2-6.3-7.1-21.2,2-3.3-2.2,22.4-2.2-9.4-10.7-23.6,1.2c-.5-.8-.9-1.6-1.3-2.4l22.8-1.2-10.6-12.1-16.2.7-.3-2.4,14.4-.7-12.7-14.5C254,592.8,254.2,592.3,254.3,591.8Z"/></svg>