<svg id="Layer_1" data-name="Layer 1" xmlns="http://www.w3.org/2000/svg" xmlns:xlink="http://www.w3.org/1999/xlink" viewBox="0 0 549.8 322"><defs><style>.cls-1{fill:none;}.cls-2{fill:#80e5ff;}.cls-3{clip-path:url(#clip-path);}.cls-4{fill:url(#linear-gradient);}.cls-5{fill:url(#linear-gradient-2);}.cls-6{fill:url(#linear-gradient-3);}.cls-7{fill:url(#linear-gradient-4);}.cls-8{fill:url(#linear-gradient-5);}.cls-9{fill:url(#linear-gradient-6);}.cls-10{opacity:0.27;isolation:isolate;}.cls-11{fill:#a40;}.cls-12,.cls-13,.cls-14,.cls-15,.cls-16,.cls-17,.cls-18,.cls-19,.cls-20,.cls-21,.cls-22,.cls-23,.cls-24{stroke:green;}.cls-12,.cls-13,.cls-14,.cls-15,.cls-16,.cls-17,.cls-18{stroke-width:0.69px;}.cls-12{fill:url(#linear-gradient-7);}.cls-13{fill:url(#linear-gradient-8);}.cls-14{fill:url(#linear-gradient-9);}.cls-15{fill:url(#linear-gradient-10);}.cls-16{fill:url(#linear-gradient-11);}.cls-17{fill:url(#linear-gradient-12);}.cls-18{fill:url(#linear-gradient-13);}.cls-19,.cls-20,.cls-21{stroke-width:0.83px;}.cls-19{fill:url(#linear-gradient-14);}.cls-20{fill:url(#linear-gradient-15);}.cls-21{fill:url(#linear-gradient-16);}.cls-22,.cls-23{stroke-width:0.42px;}.cls-22{fill:url(#linear-gradient-17);}.cls-23{fill:url(#linear-gradient-18);}.cls-24{stroke-width:1.33px;fill:url(#linear-gradient-19);}.cls-25{fill:url(#linear-gradient-20);}.cls-26{fill:url(#linear-gradient-21);}.cls-27{fill:url(#linear-gradient-22);}.cls-28{fill:url(#linear-gradient-23);}.cls-29{fill:url(#linear-gradient-24);}.cls-30{fill:url(#linear-gradient-25);}.cls-31{fill:red;}.cls-32{fill:url(#linear-gradient-26);}.cls-33{fill:url(#linear-gradient-27);}.cls-34{fill:url(#linear-gradient-28);}.cls-35{fill:url(#linear-gradient-29);}.cls-36{fill:url(#linear-gradient-30);}.cls-37{fill:url(#linear-gradient-31);}.cls-38{fill:url(#linear-gradient-32);}.cls-39{fill:url(#linear-gradient-33);}.cls-40{fill:url(#linear-gradient-34);}.cls-41{fill:url(#linear-gradient-35);}.cls-42{fill:url(#linear-gradient-36);}.cls-43{fill:url(#linear-gradient-37);}.cls-44{fill:url(#linear-gradient-38);}.cls-45{fill:url(#linear-gradient-39);}.cls-46{fill:url(#linear-gradient-40);}.cls-47{fill:url(#linear-gradient-41);}.cls-48{fill:url(#linear-gradient-42);}.cls-49{fill:url(#linear-gradient-43);}.cls-50{fill:url(#linear-gradient-44);}.cls-51{fill:url(#linear-gradient-45);}.cls-52{fill:url(#linear-gradient-46);}.cls-53{fill:url(#linear-gradient-47);}.cls-54{fill:url(#linear-gradient-48);}.cls-55{fill:url(#linear-gradient-49);}.cls-56{fill:url(#linear-gradient-50);}.cls-57{fill:url(#linear-gradient-51);}.cls-58{fill:url(#linear-gradient-52);}.cls-59{fill:url(#linear-gradient-53);}.cls-60{fill:url(#linear-gradient-54);}.cls-61{fill:url(#linear-gradient-55);}</style><clipPath id="clip-path"><rect class="cls-1" width="549.9" height="321.92"/></clipPath><linearGradient id="linear-gradient" x1="-155.67" y1="458.03" x2="-155.67" y2="457.08" gradientTransform="matrix(275.81, 0, 0, -119.04, 43013.81, 54638.02)" gradientUnits="userSpaceOnUse"><stop offset="0" stop-color="#fff"/><stop offset="1" stop-color="#fff" stop-opacity="0"/></linearGradient><linearGradient id="linear-gradient-2" x1="-155.86" y1="457.26" x2="-155.82" y2="458.16" gradientTransform="matrix(549.11, 0, 0, -129.42, 85850.24, 59496.57)" gradientUnits="userSpaceOnUse"><stop offset="0" stop-color="#00d400"/><stop offset="1" stop-color="lime"/></linearGradient><linearGradient id="linear-gradient-3" x1="-155.52" y1="457.55" x2="-155.52" y2="456.6" gradientTransform="matrix(194.23, 0, 0, -83.83, 30697.35, 38474.74)" xlink:href="#linear-gradient"/><linearGradient id="linear-gradient-4" x1="-155.64" y1="457.42" x2="-155.65" y2="458.14" gradientTransform="matrix(261.09, 0, 0, -131.53, 41057.93, 60427.8)" xlink:href="#linear-gradient-2"/><linearGradient id="linear-gradient-5" x1="-154.91" y1="455.57" x2="-154.91" y2="454.62" gradientTransform="matrix(87.4, 0, 0, -37.73, 13921.52, 17223.67)" xlink:href="#linear-gradient"/><linearGradient id="linear-gradient-6" x1="-155.15" y1="456.33" x2="-155.14" y2="455.38" gradientTransform="matrix(110.71, 0, 0, -47.79, 17355.38, 21833.95)" xlink:href="#linear-gradient"/><linearGradient id="linear-gradient-7" x1="-153.05" y1="458.06" x2="-153.07" y2="456.75" gradientTransform="matrix(32.82, 0, 0, -112.94, 5068.13, 51808.69)" gradientUnits="userSpaceOnUse"><stop offset="0" stop-color="lime"/><stop offset="1" stop-color="green"/></linearGradient><linearGradient id="linear-gradient-8" x1="-153.05" y1="458.06" x2="-153.07" y2="456.75" gradientTransform="matrix(32.82, 0, 0, -112.94, 5167.29, 51856.56)" xlink:href="#linear-gradient-7"/><linearGradient id="linear-gradient-9" x1="-152.33" y1="457.76" x2="-152.35" y2="456.46" gradientTransform="matrix(26.37, 0, 0, -90.76, 4264.64, 41644.33)" xlink:href="#linear-gradient-7"/><linearGradient id="linear-gradient-10" x1="-151.61" y1="457.47" x2="-151.63" y2="456.16" gradientTransform="matrix(22.05, 0, 0, -75.88, 3737.18, 34889.21)" xlink:href="#linear-gradient-7"/><linearGradient id="linear-gradient-11" x1="-148.42" y1="456.17" x2="-148.44" y2="454.86" gradientTransform="matrix(12.79, 0, 0, -44.01, 2413.99, 20196.36)" xlink:href="#linear-gradient-7"/><linearGradient id="linear-gradient-12" x1="-148.42" y1="456.17" x2="-148.44" y2="454.86" gradientTransform="matrix(12.79, 0, 0, -44.01, 2363.38, 20210.72)" xlink:href="#linear-gradient-7"/><linearGradient id="linear-gradient-13" x1="-148.42" y1="456.17" x2="-148.44" y2="454.86" gradientTransform="matrix(12.79, 0, 0, -44.01, 2431.08, 20255.86)" xlink:href="#linear-gradient-7"/><linearGradient id="linear-gradient-14" x1="-153.34" y1="452.09" x2="-153.36" y2="450.82" gradientTransform="matrix(36.35, 0, 0, -18.59, 5837.89, 8604.29)" xlink:href="#linear-gradient-7"/><linearGradient id="linear-gradient-15" x1="-153.34" y1="452.09" x2="-153.36" y2="450.81" gradientTransform="matrix(36.34, 0, 0, -18.58, 5736.77, 8655.88)" xlink:href="#linear-gradient-7"/><linearGradient id="linear-gradient-16" x1="-153.34" y1="452.09" x2="-153.36" y2="450.82" gradientTransform="matrix(36.35, 0, 0, -18.59, 5968.78, 8669.99)" xlink:href="#linear-gradient-7"/><linearGradient id="linear-gradient-17" x1="-150.71" y1="444.87" x2="-150.73" y2="443.59" gradientTransform="matrix(18.29, 0, 0, -9.35, 3223.52, 4346.69)" xlink:href="#linear-gradient-7"/><linearGradient id="linear-gradient-18" x1="-150.71" y1="444.87" x2="-150.73" y2="443.59" gradientTransform="matrix(18.3, 0, 0, -9.35, 3184.8, 4331.72)" xlink:href="#linear-gradient-7"/><linearGradient id="linear-gradient-19" x1="-154.35" y1="454.85" x2="-154.37" y2="453.58" gradientTransform="matrix(58.41, 0, 0, -29.86, 9098.99, 13787.89)" xlink:href="#linear-gradient-7"/><linearGradient id="linear-gradient-20" x1="-120.56" y1="399.85" x2="-120.4" y2="400.74" gradientTransform="matrix(2.72, 0, 0, -2.33, 598.69, 1142.44)" gradientUnits="userSpaceOnUse"><stop offset="0" stop-color="#a00"/><stop offset="1" stop-color="red"/></linearGradient><linearGradient id="linear-gradient-21" x1="-125.54" y1="398.13" x2="-124.79" y2="398.5" gradientTransform="matrix(3.13, 0, 0, -2.25, 664.24, 1108.86)" xlink:href="#linear-gradient-20"/><linearGradient id="linear-gradient-22" x1="-122.07" y1="400.11" x2="-121.29" y2="399.66" gradientTransform="matrix(2.82, 0, 0, -2.3, 616.18, 1134.16)" xlink:href="#linear-gradient-20"/><linearGradient id="linear-gradient-23" x1="-118.41" y1="404.71" x2="-118.31" y2="403.87" gradientTransform="matrix(2.57, 0, 0, -2.49, 575.79, 1222.25)" xlink:href="#linear-gradient-20"/><linearGradient id="linear-gradient-24" x1="-122.36" y1="402.75" x2="-122.96" y2="402.12" gradientTransform="matrix(2.92, 0, 0, -2.41, 627.96, 1184.77)" xlink:href="#linear-gradient-20"/><linearGradient id="linear-gradient-25" x1="-119.8" y1="398.87" x2="-120.69" y2="399.18" gradientTransform="matrix(2.71, 0, 0, -2.28, 594.91, 1122.5)" xlink:href="#linear-gradient-20"/><linearGradient id="linear-gradient-26" x1="-120.56" y1="399.85" x2="-120.4" y2="400.74" gradientTransform="matrix(2.72, 0, 0, -2.33, 500.56, 1198.18)" xlink:href="#linear-gradient-20"/><linearGradient id="linear-gradient-27" x1="-125.54" y1="398.13" x2="-124.79" y2="398.5" gradientTransform="matrix(3.13, 0, 0, -2.25, 566.11, 1164.6)" xlink:href="#linear-gradient-20"/><linearGradient id="linear-gradient-28" x1="-122.07" y1="400.11" x2="-121.29" y2="399.66" gradientTransform="matrix(2.82, 0, 0, -2.3, 518.05, 1189.9)" xlink:href="#linear-gradient-20"/><linearGradient id="linear-gradient-29" x1="-118.41" y1="404.71" x2="-118.31" y2="403.87" gradientTransform="matrix(2.57, 0, 0, -2.49, 477.66, 1277.99)" xlink:href="#linear-gradient-20"/><linearGradient id="linear-gradient-30" x1="-122.36" y1="402.75" x2="-122.96" y2="402.12" gradientTransform="matrix(2.92, 0, 0, -2.41, 529.83, 1240.51)" xlink:href="#linear-gradient-20"/><linearGradient id="linear-gradient-31" x1="-119.8" y1="398.87" x2="-120.69" y2="399.18" gradientTransform="matrix(2.71, 0, 0, -2.28, 496.78, 1178.24)" xlink:href="#linear-gradient-20"/><linearGradient id="linear-gradient-32" x1="-120.56" y1="399.85" x2="-120.4" y2="400.74" gradientTransform="matrix(2.72, 0, 0, -2.33, 734.08, 1208.4)" xlink:href="#linear-gradient-20"/><linearGradient id="linear-gradient-33" x1="-125.54" y1="398.13" x2="-124.79" y2="398.5" gradientTransform="matrix(3.13, 0, 0, -2.25, 799.63, 1174.82)" xlink:href="#linear-gradient-20"/><linearGradient id="linear-gradient-34" x1="-122.07" y1="400.11" x2="-121.29" y2="399.66" gradientTransform="matrix(2.82, 0, 0, -2.3, 751.57, 1200.12)" xlink:href="#linear-gradient-20"/><linearGradient id="linear-gradient-35" x1="-118.41" y1="404.71" x2="-118.31" y2="403.87" gradientTransform="matrix(2.57, 0, 0, -2.49, 711.18, 1288.21)" xlink:href="#linear-gradient-20"/><linearGradient id="linear-gradient-36" x1="-122.36" y1="402.75" x2="-122.96" y2="402.12" gradientTransform="matrix(2.92, 0, 0, -2.41, 763.35, 1250.73)" xlink:href="#linear-gradient-20"/><linearGradient id="linear-gradient-37" x1="-119.8" y1="398.87" x2="-120.69" y2="399.18" gradientTransform="matrix(2.71, 0, 0, -2.28, 730.3, 1188.46)" xlink:href="#linear-gradient-20"/><linearGradient id="linear-gradient-38" x1="-120.56" y1="399.85" x2="-120.4" y2="400.74" gradientTransform="matrix(2.72, 0, 0, -2.33, 759.22, 1108.79)" xlink:href="#linear-gradient-20"/><linearGradient id="linear-gradient-39" x1="-125.54" y1="398.13" x2="-124.79" y2="398.5" gradientTransform="matrix(3.13, 0, 0, -2.25, 824.77, 1075.21)" xlink:href="#linear-gradient-20"/><linearGradient id="linear-gradient-40" x1="-122.07" y1="400.11" x2="-121.29" y2="399.66" gradientTransform="matrix(2.82, 0, 0, -2.3, 776.71, 1100.51)" xlink:href="#linear-gradient-20"/><linearGradient id="linear-gradient-41" x1="-118.41" y1="404.71" x2="-118.31" y2="403.87" gradientTransform="matrix(2.57, 0, 0, -2.49, 736.32, 1188.6)" xlink:href="#linear-gradient-20"/><linearGradient id="linear-gradient-42" x1="-122.36" y1="402.75" x2="-122.96" y2="402.12" gradientTransform="matrix(2.92, 0, 0, -2.41, 788.49, 1151.12)" xlink:href="#linear-gradient-20"/><linearGradient id="linear-gradient-43" x1="-119.8" y1="398.87" x2="-120.69" y2="399.18" gradientTransform="matrix(2.71, 0, 0, -2.28, 755.44, 1088.85)" xlink:href="#linear-gradient-20"/><linearGradient id="linear-gradient-44" x1="-120.56" y1="399.85" x2="-120.4" y2="400.74" gradientTransform="matrix(2.72, 0, 0, -2.33, 795.98, 1119.43)" xlink:href="#linear-gradient-20"/><linearGradient id="linear-gradient-45" x1="-125.54" y1="398.13" x2="-124.79" y2="398.5" gradientTransform="matrix(3.13, 0, 0, -2.25, 861.53, 1085.85)" xlink:href="#linear-gradient-20"/><linearGradient id="linear-gradient-46" x1="-122.07" y1="400.11" x2="-121.29" y2="399.66" gradientTransform="matrix(2.82, 0, 0, -2.3, 813.47, 1111.15)" xlink:href="#linear-gradient-20"/><linearGradient id="linear-gradient-47" x1="-118.41" y1="404.71" x2="-118.31" y2="403.87" gradientTransform="matrix(2.57, 0, 0, -2.49, 773.08, 1199.24)" xlink:href="#linear-gradient-20"/><linearGradient id="linear-gradient-48" x1="-122.36" y1="402.75" x2="-122.96" y2="402.12" gradientTransform="matrix(2.92, 0, 0, -2.41, 825.25, 1161.76)" xlink:href="#linear-gradient-20"/><linearGradient id="linear-gradient-49" x1="-119.8" y1="398.87" x2="-120.69" y2="399.18" gradientTransform="matrix(2.71, 0, 0, -2.28, 792.2, 1099.49)" xlink:href="#linear-gradient-20"/><linearGradient id="linear-gradient-50" x1="-120.56" y1="399.85" x2="-120.4" y2="400.74" gradientTransform="matrix(2.72, 0, 0, -2.33, 398.48, 1155.21)" xlink:href="#linear-gradient-20"/><linearGradient id="linear-gradient-51" x1="-125.54" y1="398.13" x2="-124.79" y2="398.5" gradientTransform="matrix(3.13, 0, 0, -2.25, 464.03, 1121.63)" xlink:href="#linear-gradient-20"/><linearGradient id="linear-gradient-52" x1="-122.07" y1="400.11" x2="-121.29" y2="399.66" gradientTransform="matrix(2.82, 0, 0, -2.3, 415.97, 1146.93)" xlink:href="#linear-gradient-20"/><linearGradient id="linear-gradient-53" x1="-118.41" y1="404.71" x2="-118.31" y2="403.87" gradientTransform="matrix(2.57, 0, 0, -2.49, 375.59, 1235.02)" xlink:href="#linear-gradient-20"/><linearGradient id="linear-gradient-54" x1="-122.36" y1="402.75" x2="-122.96" y2="402.12" gradientTransform="matrix(2.92, 0, 0, -2.41, 427.75, 1197.54)" xlink:href="#linear-gradient-20"/><linearGradient id="linear-gradient-55" x1="-119.8" y1="398.87" x2="-120.69" y2="399.18" gradientTransform="matrix(2.71, 0, 0, -2.28, 394.7, 1135.27)" xlink:href="#linear-gradient-20"/></defs><title>LANDSCAPE4</title><g id="imagebot_2" data-name="imagebot 2"><rect id="imagebot_151" data-name="imagebot 151" class="cls-2" width="549.9" height="321.92"/><g class="cls-3"><path id="imagebot_148" data-name="imagebot 148" class="cls-4" d="M80.9,100.8a49.1,49.1,0,0,0-48.2,40.1,44.9,44.9,0,0,0-22.2-5.7c-21.6,0-39,14.2-39,31.8a24.7,24.7,0,0,0,1.5,8.6c-19.4,4-32.5,11.8-32.5,20.8,0,12.9,27.4,23.4,61.2,23.4a137.5,137.5,0,0,0,36.6-4.6c10.2,2.9,23.3,4.6,37.6,4.6,22.9,0,42.9-4.5,53-11.1,9.3,3.2,21.9,5.3,35.8,5.3,28.5,0,51.6-8.5,51.6-18.9,0-8.6-15.9-15.9-37.5-18.1a39.4,39.4,0,0,0-37.1-52.7,38.7,38.7,0,0,0-16.9,3.8,48.9,48.9,0,0,0-43.9-27.3Z"/></g><path id="imagebot_146" data-name="imagebot 146" class="cls-5" d="M.7,260.5c0-48.7.2-61.6,1-61.6l8.2-.9c17.7-2.1,53.3-4.2,81.7-4.9,121.3-3.2,236.1,13.6,348.8,50.9,31.8,10.5,75.9,28.6,102.5,42l6.9,3.4v32.7H.7V260.5Z"/><g class="cls-3"><path id="imagebot_143" data-name="imagebot 143" class="cls-6" d="M492.1,110a34.7,34.7,0,0,0-34,28.2,31.7,31.7,0,0,0-15.6-4c-15.2,0-27.5,10.1-27.5,22.5a19.9,19.9,0,0,0,1,6c-13.6,2.8-22.8,8.3-22.8,14.6,0,9.2,19.3,16.5,43.1,16.5a97.5,97.5,0,0,0,25.7-3.2,102.8,102.8,0,0,0,26.5,3.2c16.2,0,30.3-3.1,37.4-7.8,6.5,2.3,15.4,3.7,25.2,3.7,20.1,0,36.3-5.9,36.3-13.3s-11.2-11.2-26.4-12.7a29.4,29.4,0,0,0,1.6-9.4A27.8,27.8,0,0,0,523,129.2,34.4,34.4,0,0,0,492.1,110Z"/></g><path id="imagebot_141" data-name="imagebot 141" class="cls-7" d="M532,278.9c-66.8-31.7-146-56.6-226.2-71.2l-17.1-3.2c-1.3-.4,36.6-11.6,61.8-18.2,49.2-13,99.5-22.7,140.6-27.3,14-1.5,44.7-3.7,53-3.7h5.7v65.8c0,36.2-.3,65.8-.6,65.7s-8.1-3.6-17.2-7.9Z"/><path id="imagebot_139" data-name="imagebot 139" class="cls-8" d="M383.2,31.2a15.7,15.7,0,0,0-15.3,12.7,14.5,14.5,0,0,0-7-1.8c-6.8,0-12.4,4.5-12.4,10.1a8.1,8.1,0,0,0,.5,2.7c-6.1,1.3-10.3,3.7-10.3,6.6s8.7,7.4,19.4,7.4a45,45,0,0,0,11.6-1.4,45.7,45.7,0,0,0,11.9,1.4c7.3,0,13.6-1.4,16.8-3.5a36.1,36.1,0,0,0,11.4,1.7c9,0,16.3-2.7,16.3-6s-5-5-11.9-5.8a11.6,11.6,0,0,0,.7-4.2,12.5,12.5,0,0,0-12.4-12.5,13.4,13.4,0,0,0-5.4,1.2,15.5,15.5,0,0,0-13.9-8.6Z"/><path id="imagebot_137" data-name="imagebot 137" class="cls-9" d="M180.4,21.1a19.7,19.7,0,0,0-19.3,16.1,18.3,18.3,0,0,0-8.9-2.2c-8.7,0-15.7,5.7-15.7,12.7a10.3,10.3,0,0,0,.6,3.5c-7.7,1.6-13,4.7-13,8.3,0,5.2,11,9.4,24.5,9.4a57.4,57.4,0,0,0,14.7-1.8,60.7,60.7,0,0,0,15.1,1.8c9.2,0,17.3-1.8,21.3-4.4a45.2,45.2,0,0,0,14.4,2.1c11.4,0,20.7-3.4,20.7-7.6s-6.4-6.4-15.1-7.3a15.1,15.1,0,0,0,1-5.3,15.8,15.8,0,0,0-15.9-15.8,15,15,0,0,0-6.7,1.5,19.7,19.7,0,0,0-17.7-11Z"/><g id="imagebot_132" data-name="imagebot 132"><path id="imagebot_136" data-name="imagebot 136" class="cls-10" d="M65,228.7c0,2-7.8,3.6-17.3,3.6s-17.3-1.6-17.3-3.6,7.8-3.5,17.3-3.5S65,226.8,65,228.7Z"/><path id="imagebot_135" data-name="imagebot 135" class="cls-11" d="M45.3,181.4V229h3.1V201.8l4.4-6.1-.8-1.2-3.6,4.2V181.4Z"/><path id="imagebot_133" data-name="imagebot 133" class="cls-12" d="M36.6,182.6c-10-11-3-20-3-20s-7.7-5.7-3.4-13.7-5-17,.7-23,7.7-21,7.7-21-4.7-3-1.7-10,11.7-15,11.7-17.3,8-2.4,8,.9-8,16.7-4,20,7.6,18.7,5,26,3,21.1,3,21.1,3.3,13-1.4,19.6-4.3,18.7-4.3,18.7S55.9,195.9,36.6,182.6Z"/></g><g id="imagebot_127" data-name="imagebot 127"><path id="imagebot_131" data-name="imagebot 131" class="cls-10" d="M164.1,276.6c0,2-7.7,3.6-17.2,3.6s-17.3-1.6-17.3-3.6,7.7-3.6,17.3-3.6S164.1,274.6,164.1,276.6Z"/><path id="imagebot_130" data-name="imagebot 130" class="cls-11" d="M144.5,229.2v47.6h3.1V249.7l4.3-6.2-.8-1.1-3.5,4.2V229.2Z"/><path id="imagebot_128" data-name="imagebot 128" class="cls-13" d="M135.7,230.4c-10-11-3-20-3-20s-7.6-5.6-3.3-13.6-5-17,.7-23,7.6-21,7.6-21-4.6-3-1.6-10,11.6-15,11.6-17.4,8-2.3,8,1-8,16.7-4,20,7.7,18.7,5,26,3,21,3,21,3.4,13-1.3,19.7-4.3,18.7-4.3,18.7S155.1,243.8,135.7,230.4Z"/></g><g id="imagebot_122" data-name="imagebot 122"><path id="imagebot_126" data-name="imagebot 126" class="cls-10" d="M263,219.9c0,1.6-6.2,2.9-13.9,2.9s-13.9-1.3-13.9-2.9,6.3-2.9,13.9-2.9S263,218.3,263,219.9Z"/><path id="imagebot_125" data-name="imagebot 125" class="cls-11" d="M247.2,181.8v38.3h2.5V198.2l3.5-4.9-.6-.9-2.9,3.3V181.8Z"/><path id="imagebot_123" data-name="imagebot 123" class="cls-14" d="M240.2,182.8c-8.1-8.9-2.4-16.1-2.4-16.1s-6.2-4.6-2.7-11-4-13.7.5-18.5,6.2-16.9,6.2-16.9-3.8-2.4-1.4-8,9.4-12.1,9.4-13.9,6.4-1.9,6.4.8-6.4,13.4-3.2,16,6.2,15.1,4.1,20.9,2.4,16.9,2.4,16.9,2.6,10.5-1.1,15.8-3.5,15-3.5,15S255.7,193.5,240.2,182.8Z"/></g><g id="imagebot_117" data-name="imagebot 117"><path id="imagebot_121" data-name="imagebot 121" class="cls-10" d="M407.3,276.4c0,1.3-5.2,2.4-11.6,2.4s-11.6-1.1-11.6-2.4,5.2-2.4,11.6-2.4S407.3,275.1,407.3,276.4Z"/><path id="imagebot_120" data-name="imagebot 120" class="cls-11" d="M394.1,244.6v32h2.1V258.3l2.9-4.1-.5-.8-2.4,2.8V244.6Z"/><path id="imagebot_118" data-name="imagebot 118" class="cls-15" d="M388.2,245.4c-6.7-7.4-2-13.5-2-13.5s-5.1-3.8-2.2-9.1-3.4-11.5.4-15.5,5.2-14.1,5.2-14.1-3.2-2-1.2-6.7,7.9-10.1,7.9-11.7,5.4-1.5,5.4.7-5.4,11.2-2.7,13.4,5.1,12.6,3.3,17.5,2,14.1,2,14.1,2.3,8.8-.8,13.2-3,12.6-3,12.6S401.2,254.3,388.2,245.4Z"/></g><g id="imagebot_112" data-name="imagebot 112"><path id="imagebot_116" data-name="imagebot 116" class="cls-10" d="M523.6,179.6c0,.8-3.1,1.4-6.8,1.4s-6.7-.6-6.7-1.4,3-1.4,6.7-1.4S523.6,178.9,523.6,179.6Z"/><path id="imagebot_115" data-name="imagebot 115" class="cls-11" d="M515.9,161.2v18.5h1.2V169.2l1.7-2.4-.3-.5-1.4,1.6v-6.7Z"/><path id="imagebot_113" data-name="imagebot 113" class="cls-16" d="M512.5,161.6c-3.9-4.2-1.2-7.7-1.2-7.7s-3-2.3-1.3-5.4-1.9-6.6.3-8.9,3-8.2,3-8.2-1.8-1.2-.7-3.9,4.6-5.9,4.6-6.8,3.1-.9,3.1.4-3.1,6.5-1.6,7.8,3,7.3,2,10.1,1.1,8.2,1.1,8.2,1.3,5.1-.5,7.7-1.7,7.3-1.7,7.3S520,166.8,512.5,161.6Z"/></g><g id="imagebot_107" data-name="imagebot 107"><path id="imagebot_111" data-name="imagebot 111" class="cls-10" d="M472.9,194c0,.8-3,1.4-6.7,1.4s-6.7-.6-6.7-1.4,3-1.4,6.7-1.4S472.9,193.2,472.9,194Z"/><path id="imagebot_110" data-name="imagebot 110" class="cls-11" d="M465.3,175.5v18.6h1.2V183.5l1.7-2.4-.3-.4-1.4,1.6v-6.8Z"/><path id="imagebot_108" data-name="imagebot 108" class="cls-17" d="M461.9,176c-3.9-4.3-1.2-7.8-1.2-7.8s-3-2.2-1.3-5.3-1.9-6.6.3-9,3-8.2,3-8.2-1.9-1.1-.7-3.9,4.6-5.8,4.6-6.7,3.1-.9,3.1.4-3.1,6.5-1.6,7.8,3,7.2,2,10.1,1.1,8.2,1.1,8.2,1.3,5.1-.5,7.7-1.7,7.2-1.7,7.2S469.4,181.2,461.9,176Z"/></g><g id="imagebot_102" data-name="imagebot 102"><path id="imagebot_106" data-name="imagebot 106" class="cls-10" d="M540.6,239.1c0,.8-3,1.4-6.7,1.4s-6.7-.6-6.7-1.4,3-1.4,6.7-1.4S540.6,238.4,540.6,239.1Z"/><path id="imagebot_105" data-name="imagebot 105" class="cls-11" d="M533,220.7v18.5h1.2V228.7l1.7-2.4-.3-.5-1.4,1.6v-6.7Z"/><path id="imagebot_103" data-name="imagebot 103" class="cls-18" d="M529.6,221.1c-3.9-4.2-1.2-7.7-1.2-7.7s-3-2.3-1.3-5.4-1.9-6.6.3-8.9,3-8.2,3-8.2-1.9-1.2-.7-3.9,4.6-5.9,4.6-6.8,3.1-.9,3.1.4-3.1,6.5-1.6,7.8,3,7.3,2,10.1,1.1,8.2,1.1,8.2,1.3,5.1-.5,7.7-1.7,7.3-1.7,7.3S537.1,226.3,529.6,221.1Z"/></g><path id="imagebot_100" data-name="imagebot 100" class="cls-19" d="M250.3,222.8c-6.7-7.5-4.2-15.5-.7-15s5.8,4.2,5.8,4.2.5-7.7,5.2-6.9,5.8,6.2,5.8,6.2,2.1-7.5,5.3-6.6,2.6,7.4,2.6,7.4,5.5-5.1,7.7-.4-4.7,11.5-4.7,11.5l-27-.5Z"/><path id="imagebot_98" data-name="imagebot 98" class="cls-20" d="M149.8,278.1c-6.8-7.5-4.2-15.4-.7-15s5.8,4.3,5.8,4.3.5-7.8,5.2-6.9,5.8,6.1,5.8,6.1,2-7.4,5.3-6.5,2.5,7.4,2.5,7.4,5.6-5.1,7.8-.4-4.7,11.5-4.7,11.5l-27-.5Z"/><path id="imagebot_96" data-name="imagebot 96" class="cls-21" d="M381,287.7c-6.8-7.5-4.3-15.5-.8-15s5.8,4.2,5.8,4.2.5-7.7,5.2-6.8,5.8,6.1,5.8,6.1,2.1-7.5,5.4-6.5,2.5,7.4,2.5,7.4,5.6-5.1,7.7-.4-4.7,11.5-4.7,11.5l-26.9-.5Z"/><path id="imagebot_94" data-name="imagebot 94" class="cls-22" d="M459.3,196.5c-3.4-3.8-2.1-7.8-.3-7.5a4.8,4.8,0,0,1,2.9,2.1s.2-3.9,2.6-3.5a4.1,4.1,0,0,1,2.9,3.1s1.1-3.7,2.7-3.2,1.3,3.7,1.3,3.7,2.8-2.6,3.9-.2-2.4,5.8-2.4,5.8l-13.6-.3Z"/><path id="imagebot_92" data-name="imagebot 92" class="cls-23" d="M420.4,180.8c-3.4-3.8-2.2-7.8-.4-7.5a4.5,4.5,0,0,1,2.9,2.1s.3-3.9,2.6-3.5,3,3.1,3,3.1,1-3.8,2.6-3.3,1.3,3.7,1.3,3.7,2.8-2.5,3.9-.1-2.4,5.7-2.4,5.7Z"/><path id="imagebot_90" data-name="imagebot 90" class="cls-24" d="M61,239.3c-10.9-12-6.8-24.9-1.2-24.1s9.4,6.8,9.4,6.8.7-12.4,8.3-11.1,9.3,9.9,9.3,9.9,3.3-12,8.6-10.5,4.1,11.9,4.1,11.9,8.9-8.2,12.4-.6-7.6,18.5-7.6,18.5L61,239.3Z"/><g id="imagebot_76" data-name="imagebot 76"><path id="imagebot_88" data-name="imagebot 88" class="cls-25" d="M270.1,212.2c-1-1.4-.9-2.2-.5-2a1.1,1.1,0,0,0,1.1-.1c.3-.3,1.3-.1,1.3.1a9.3,9.3,0,0,1-.9,2s-.7.2-1,0Z"/><path id="imagebot_86" data-name="imagebot 86" class="cls-26" d="M271,212.1c.9-1.5,1.7-1.9,1.8-1.5s.4.6.7.7.8.9.6,1l-2.5.4S271,212.4,271,212.1Z"/><path id="imagebot_84" data-name="imagebot 84" class="cls-27" d="M271.6,212.7c2-.4,2.9-.1,2.5.2a.8.8,0,0,0-.2.9c.1.3-.4,1-.6,1l-1.9-1.4s-.1-.6.2-.7Z"/><path id="imagebot_82" data-name="imagebot 82" class="cls-28" d="M271.3,213.2c1.5,1.1,1.6,1.9,1.2,1.8a1.1,1.1,0,0,0-1.1.4c-.2.3-1.2.3-1.3.2a11.8,11.8,0,0,1,.3-2.1s.6-.4.9-.3Z"/><path id="imagebot_80" data-name="imagebot 80" class="cls-29" d="M270.4,213.3c0,1.6-.6,2.3-.8,1.9a1.5,1.5,0,0,0-1.1-.4c-.4.1-1.1-.5-1-.7l2.1-1.2s.7.1.8.4Z"/><path id="imagebot_78" data-name="imagebot 78" class="cls-30" d="M270,212.8c-1.9.7-2.8.4-2.5.1s.2-.6,0-.9.1-1.1.4-1.1l2.2,1.2s.1.5-.1.7Z"/><path id="imagebot_77" data-name="imagebot 77" class="cls-31" d="M271.6,212.8a.9.9,0,0,1-1,.8,1,1,0,0,1-1-.8.9.9,0,0,1,1-.8C271.2,212,271.6,212.3,271.6,212.8Z"/></g><g id="imagebot_62" data-name="imagebot 62"><path id="imagebot_74" data-name="imagebot 74" class="cls-32" d="M172,267.9c-1.1-1.3-.9-2.2-.5-2a1.1,1.1,0,0,0,1.1-.1c.3-.2,1.3-.1,1.3.1a18.6,18.6,0,0,1-1,2s-.6.2-.9,0Z"/><path id="imagebot_72" data-name="imagebot 72" class="cls-33" d="M172.9,267.9c.8-1.5,1.7-1.9,1.8-1.5s.3.6.7.7.8.8.6,1l-2.5.4S172.9,268.1,172.9,267.9Z"/><path id="imagebot_70" data-name="imagebot 70" class="cls-34" d="M173.5,268.4c1.9-.4,2.8,0,2.5.2a.7.7,0,0,0-.2,1c.1.3-.4,1-.6.9a17.3,17.3,0,0,1-2-1.4s0-.6.3-.7Z"/><path id="imagebot_68" data-name="imagebot 68" class="cls-35" d="M173.1,268.9c1.5,1.1,1.7,1.9,1.2,1.9a1.1,1.1,0,0,0-1,.3c-.2.3-1.2.4-1.3.2a12.5,12.5,0,0,1,.2-2.1s.6-.4.9-.3Z"/><path id="imagebot_66" data-name="imagebot 66" class="cls-36" d="M172.3,269c0,1.7-.6,2.3-.9,2s-.6-.4-1-.4-1.1-.5-1-.7a15.7,15.7,0,0,1,2.1-1.2s.7.1.8.3Z"/><path id="imagebot_64" data-name="imagebot 64" class="cls-37" d="M171.8,268.6c-1.8.6-2.8.4-2.5.1a.8.8,0,0,0,.1-1c-.2-.3.1-1,.3-1a15,15,0,0,1,2.2,1.1s.2.6-.1.8Z"/><path id="imagebot_63" data-name="imagebot 63" class="cls-31" d="M173.5,268.5a1,1,0,0,1-1,.9.9.9,0,1,1,0-1.7A1,1,0,0,1,173.5,268.5Z"/></g><g id="imagebot_48" data-name="imagebot 48"><path id="imagebot_60" data-name="imagebot 60" class="cls-38" d="M405.5,278.2c-1.1-1.4-.9-2.2-.5-2.1a1.1,1.1,0,0,0,1.1-.1c.3-.2,1.3,0,1.3.2s-.9,1.9-.9,1.9-.7.3-1,.1Z"/><path id="imagebot_58" data-name="imagebot 58" class="cls-39" d="M406.4,278.1c.8-1.5,1.7-1.9,1.8-1.5s.4.6.7.7.8.9.6,1l-2.5.4S406.4,278.4,406.4,278.1Z"/><path id="imagebot_56" data-name="imagebot 56" class="cls-40" d="M407,278.6c2-.4,2.8,0,2.5.3a.8.8,0,0,0-.2.9c.1.3-.4,1-.6.9a15.6,15.6,0,0,1-1.9-1.3s-.1-.6.2-.8Z"/><path id="imagebot_54" data-name="imagebot 54" class="cls-41" d="M406.7,279.2c1.5,1.1,1.6,1.9,1.1,1.8a1,1,0,0,0-1,.4c-.2.2-1.2.3-1.3.1a13.3,13.3,0,0,1,.3-2.1s.5-.4.9-.2Z"/><path id="imagebot_52" data-name="imagebot 52" class="cls-42" d="M405.8,279.3c0,1.6-.6,2.2-.9,1.9a1.2,1.2,0,0,0-1-.4c-.4,0-1.1-.5-1-.7a15.7,15.7,0,0,1,2.1-1.2s.7.1.8.4Z"/><path id="imagebot_50" data-name="imagebot 50" class="cls-43" d="M405.4,278.8c-1.9.6-2.8.4-2.5.1a.9.9,0,0,0,0-1c-.2-.3.1-1,.4-1a22.5,22.5,0,0,1,2.2,1.1s.1.6-.1.8Z"/><path id="imagebot_49" data-name="imagebot 49" class="cls-31" d="M407,278.8a.9.9,0,0,1-1,.8.9.9,0,1,1,0-1.7A.9.9,0,0,1,407,278.8Z"/></g><g id="imagebot_34" data-name="imagebot 34"><path id="imagebot_46" data-name="imagebot 46" class="cls-44" d="M430.7,178.6c-1.1-1.4-1-2.2-.6-2.1a1.3,1.3,0,0,0,1.2-.1,1.5,1.5,0,0,1,1.2.1,9.3,9.3,0,0,1-.9,2s-.7.3-.9.1Z"/><path id="imagebot_44" data-name="imagebot 44" class="cls-45" d="M431.6,178.5c.8-1.5,1.7-1.9,1.7-1.5a1,1,0,0,0,.8.7,1,1,0,0,1,.6,1l-2.6.4S431.5,178.8,431.6,178.5Z"/><path id="imagebot_42" data-name="imagebot 42" class="cls-46" d="M432.2,179c1.9-.4,2.8,0,2.4.3s-.3.5-.2.9-.3,1-.6.9a15.6,15.6,0,0,1-1.9-1.3s0-.7.3-.8Z"/><path id="imagebot_40" data-name="imagebot 40" class="cls-47" d="M431.8,179.6c1.5,1,1.7,1.9,1.2,1.8a.9.9,0,0,0-1,.4c-.3.2-1.3.3-1.3.1a13.6,13.6,0,0,1,.2-2.1s.6-.4.9-.2Z"/><path id="imagebot_38" data-name="imagebot 38" class="cls-48" d="M431,179.7c0,1.6-.7,2.2-.9,1.9s-.6-.4-1-.4-1.1-.5-1-.7a15.7,15.7,0,0,1,2.1-1.2s.7.1.8.3Z"/><path id="imagebot_36" data-name="imagebot 36" class="cls-49" d="M430.5,179.2c-1.8.6-2.8.4-2.5.1a.8.8,0,0,0,0-1c-.2-.3.2-1,.4-1a22.5,22.5,0,0,1,2.2,1.1s.2.6-.1.8Z"/><path id="imagebot_35" data-name="imagebot 35" class="cls-31" d="M432.1,179.1a.9.9,0,0,1-1,.9.9.9,0,0,1-.9-.9.9.9,0,0,1,.9-.8A.9.9,0,0,1,432.1,179.1Z"/></g><g id="imagebot_20" data-name="imagebot 20"><path id="imagebot_32" data-name="imagebot 32" class="cls-50" d="M467.4,189.2c-1.1-1.4-.9-2.2-.5-2a.9.9,0,0,0,1.1-.2c.3-.2,1.3,0,1.3.2a19.5,19.5,0,0,1-.9,2s-.7.2-1,0Z"/><path id="imagebot_30" data-name="imagebot 30" class="cls-51" d="M468.3,189.1c.8-1.5,1.7-1.9,1.8-1.5s.4.6.7.7.8.9.6,1l-2.5.4S468.3,189.4,468.3,189.1Z"/><path id="imagebot_28" data-name="imagebot 28" class="cls-52" d="M468.9,189.6c2-.3,2.8,0,2.5.3a.8.8,0,0,0-.2.9c.1.3-.4,1-.6,1l-1.9-1.4s-.1-.6.2-.8Z"/><path id="imagebot_26" data-name="imagebot 26" class="cls-53" d="M468.6,190.2c1.5,1.1,1.6,1.9,1.1,1.8a1,1,0,0,0-1,.4c-.2.3-1.2.3-1.3.2a13,13,0,0,1,.3-2.2,1.4,1.4,0,0,1,.9-.2Z"/><path id="imagebot_24" data-name="imagebot 24" class="cls-54" d="M467.7,190.3c0,1.6-.6,2.3-.9,1.9a1.2,1.2,0,0,0-1-.4c-.4.1-1.1-.5-1-.7l2.1-1.2s.7.1.8.4Z"/><path id="imagebot_22" data-name="imagebot 22" class="cls-55" d="M467.3,189.8c-1.9.7-2.8.4-2.5.1a.8.8,0,0,0,0-.9c-.2-.3.1-1.1.4-1.1l2.2,1.1s.1.6-.1.8Z"/><path id="imagebot_21" data-name="imagebot 21" class="cls-31" d="M468.9,189.8a.9.9,0,0,1-1,.8,1,1,0,0,1-1-.8.9.9,0,0,1,1-.8C468.5,189,468.9,189.3,468.9,189.8Z"/></g><g id="imagebot_6" data-name="imagebot 6"><path id="imagebot_18" data-name="imagebot 18" class="cls-56" d="M69.9,225c-1.1-1.4-.9-2.2-.5-2a1.4,1.4,0,0,0,1.1-.2c.3-.2,1.3,0,1.3.2l-.9,1.9s-.7.3-1,.1Z"/><path id="imagebot_16" data-name="imagebot 16" class="cls-57" d="M70.8,224.9c.8-1.5,1.7-1.9,1.8-1.5s.4.6.7.7.8.9.6,1l-2.5.4S70.8,225.2,70.8,224.9Z"/><path id="imagebot_14" data-name="imagebot 14" class="cls-58" d="M71.4,225.4c2-.4,2.9,0,2.5.3a.8.8,0,0,0-.2.9c.1.3-.4,1-.6,1l-1.9-1.4s-.1-.6.2-.8Z"/><path id="imagebot_12" data-name="imagebot 12" class="cls-59" d="M71.1,226c1.5,1.1,1.6,1.9,1.2,1.8a1.1,1.1,0,0,0-1.1.4c-.2.3-1.2.3-1.3.1a13.3,13.3,0,0,1,.3-2.1s.6-.4.9-.2Z"/><path id="imagebot_10" data-name="imagebot 10" class="cls-60" d="M70.2,226.1c0,1.6-.6,2.2-.9,1.9a1.2,1.2,0,0,0-1-.4c-.4,0-1.1-.5-1-.7l2.1-1.2s.7.1.8.4Z"/><path id="imagebot_8" data-name="imagebot 8" class="cls-61" d="M69.8,225.6c-1.9.6-2.8.4-2.5.1a.9.9,0,0,0,0-1c-.2-.2.1-1,.4-1l2.2,1.1s.1.6-.1.8Z"/><path id="imagebot_7" data-name="imagebot 7" class="cls-31" d="M71.4,225.6a.9.9,0,0,1-1,.8.9.9,0,1,1,0-1.7A.9.9,0,0,1,71.4,225.6Z"/></g></g></svg>