<svg id="publicdomainvectors.org" xmlns="http://www.w3.org/2000/svg" viewBox="0 0 660 660"><defs><style>.cls-1{fill:#dbedff;}.cls-2{fill:#bfdaf5;}.cls-10,.cls-11,.cls-12,.cls-13,.cls-14,.cls-15,.cls-16,.cls-2,.cls-3,.cls-4,.cls-5,.cls-6,.cls-7,.cls-8{fill-rule:evenodd;}.cls-3{fill:#fff;}.cls-4{fill:#afcae6;}.cls-5{fill:#a4bfa6;}.cls-6{fill:#fafafa;}.cls-7{fill:#919e47;}.cls-8{fill:#94ab13;}.cls-9{fill:#a7bf1c;}.cls-10{fill:#828768;}.cls-11{fill:#71755c;}.cls-12{fill:#656955;}.cls-13{fill:#5d614c;}.cls-14{fill:#cfe35d;}.cls-15{fill:#748707;}.cls-16{fill:#f2f9ff;}</style></defs><title>LANDSCAPE15</title><rect class="cls-1" x="-1.9" y="1.5" width="661.9" height="656.92"/><polygon class="cls-2" points="-1.9 264.9 137.2 204.6 166.4 213 216.9 191.3 228.7 194 291.7 165 330.4 177.3 360.2 162.8 450.1 200.7 477.7 190.7 559.7 224.2 587.2 219.1 660 257.1 660 431 -1.9 399.8 -1.9 264.9"/><polygon class="cls-3" points="231.9 192.6 291.7 165 330.4 177.3 360.2 162.8 415.9 186.3 415.9 186.3 360.8 177 337.2 187 310.2 182 295.6 186.5 279.3 178.7 231.9 192.6"/><path class="cls-4" d="M220.3,301.1l-1.1-17.3,30.9-23.4,15.2-25.1,27-13.4-18,16.2,12.3,23.4-15.7,18.4,9,39.6-84.3,7ZM41.1,292.4l52.8-32.3,38.8-2.8,38.2-20.1,18-3.9-13.5,9L140.5,269,113,275.7l-9.5,45.2Z"/><polygon class="cls-4" points="547.4 283.8 489.5 244.2 457.4 240.9 418.7 217.4 431 245.3 422.1 268.8 501.8 322.3 547.4 283.8"/><path class="cls-5" d="M125.4,365.6a12.3,12.3,0,0,1-8.8-19.4,12.7,12.7,0,0,1-.1-2,30.5,30.5,0,0,1,30.6-30.4,30.8,30.8,0,0,1,23.4,10.7,22.4,22.4,0,0,1,18.4-9.6,23.2,23.2,0,0,1,6.5,1,14.7,14.7,0,0,1,16,2,15.6,15.6,0,0,1,11.6-5.2,13.9,13.9,0,0,1,4.6.7,17.3,17.3,0,0,1,6.9-8.6v-.6a14.9,14.9,0,0,1,6.6-12.4,13.6,13.6,0,0,1,11.7-20.9,13.6,13.6,0,0,1,13.7,13.6,13.5,13.5,0,0,1-5,10.6,20.1,20.1,0,0,1,1.7,2.9,14.3,14.3,0,0,1,5-.9,14.6,14.6,0,0,1,6.3,1.4,11,11,0,0,1,10.3-7,10.9,10.9,0,0,1,10.9,10.8h0a13.2,13.2,0,0,1,7.8-2.5h1a6.4,6.4,0,0,1-.3-2,7.5,7.5,0,0,1,15,0,7.6,7.6,0,0,1-.3,2.1,5.1,5.1,0,0,1,2.5,1,14.1,14.1,0,0,1,18.2,13.4,13.8,13.8,0,0,1-2.1,7.2,12.9,12.9,0,0,1,1.6,5.8,14,14,0,0,1,8.4-7.4,15.1,15.1,0,0,1,11.7-24.6,16.4,16.4,0,0,1,5,.8,11.8,11.8,0,0,1,22.9.8l.5.3a15.4,15.4,0,0,1,12.9-6.9h.3a12,12,0,0,1,21.8,6.9,11.3,11.3,0,0,1-2.3,7,22,22,0,0,1,6.6,33,25.4,25.4,0,0,1,1.5,8.3c0,11.7-29.4,44.9-41.8,44.9a19.9,19.9,0,0,1-4.9-.6,24.3,24.3,0,0,1-16.6,6.4,21.1,21.1,0,0,1-3.5-.2,21.9,21.9,0,0,1-35.8-3.2,22,22,0,0,1-9.6,2.9,33.3,33.3,0,0,1-66.4-3.4,35.5,35.5,0,0,1,.8-7.3,16.9,16.9,0,0,1-9.4,2.9,16.5,16.5,0,0,1-6.3-1.3,8,8,0,0,1-6.6,3.5c-37.7,0-1.7,9.5-33.1,9.5l-2.8-.2a28.7,28.7,0,0,1-54.7-12.1,27.8,27.8,0,0,1,3.4-13.4,30.5,30.5,0,0,1-15.7-8.4"/><path class="cls-6" d="M105.7,330.1H451.3v31.2a20.4,20.4,0,0,0-20.4-20.2h0a20.4,20.4,0,0,0-20.3,20.2v20.5H397.4V361.3a20.3,20.3,0,0,0-20.3-20.2h0a20.3,20.3,0,0,0-20.3,20.2v20.5H343.6V361.3a20.3,20.3,0,0,0-20.3-20.2h0A20.3,20.3,0,0,0,303,361.3v20.5H289.8V361.3a20.4,20.4,0,0,0-20.3-20.2h0a20.4,20.4,0,0,0-20.4,20.2v20.5H235.9V361.3a20.3,20.3,0,0,0-20.3-20.2h0a20.3,20.3,0,0,0-20.3,20.2v20.5H182.1V361.3a20.3,20.3,0,0,0-20.3-20.2h0a20.3,20.3,0,0,0-20.3,20.2v20.5H105.7Z"/><path class="cls-7" d="M195.2,361a14.1,14.1,0,0,1,4,8.5,14.2,14.2,0,0,1,4.2-.6,13.3,13.3,0,0,1,6,1.4,10.9,10.9,0,0,1,9.4-5.3,10.7,10.7,0,0,1,9.3,5.3,16.1,16.1,0,0,1,5.2-5.2,8.3,8.3,0,0,1-1.2-4.2,7.9,7.9,0,0,1,8-7.9h1.1a12,12,0,0,1,20.7,2.2,13.4,13.4,0,0,1,12.8,10.6h1a10.9,10.9,0,1,1,0,21.7,11.2,11.2,0,0,1-5.8-1.6,11.6,11.6,0,0,1-10.1,5.8,11.8,11.8,0,0,1-7.9-3.1,15.2,15.2,0,0,1-25.1-5.7,10.8,10.8,0,0,1-8,3.5,7.5,7.5,0,0,1-2.1-.2,13.8,13.8,0,0,1-27-2.2,13.3,13.3,0,0,1-4.5.8,14.8,14.8,0,0,1-5.6-1.2,12.6,12.6,0,0,1-24.7-3.6,12.1,12.1,0,0,1,3.1-8.2,12,12,0,0,1-1.5-5.6,11.7,11.7,0,0,1,11.7-11.6,10.9,10.9,0,0,1,5.4,1.4,11.1,11.1,0,0,1,21.7,3.2,10.3,10.3,0,0,1-.1,1.8"/><path class="cls-8" d="M660,178.7v44.9a23.1,23.1,0,0,1-8.3,1.5,19.6,19.6,0,0,1,8.3,5.8V354.8a23.8,23.8,0,0,1-33.6-9.8,20.1,20.1,0,0,1-2.5,1.4,13.1,13.1,0,0,1,4.4,9.8,13.4,13.4,0,0,1-13.5,13.4,13.2,13.2,0,0,1-4.4-.8,33.2,33.2,0,1,1-43.7-31.5,26.1,26.1,0,0,1-1.1-43,16.2,16.2,0,0,1-.1-2.2,20.6,20.6,0,0,1,13.3-19.3,17.2,17.2,0,0,1-2.1-8.2,16.5,16.5,0,0,1,6.5-13.1,28.9,28.9,0,0,1,21-23.7,20.4,20.4,0,0,1,4.9-9.3A23.2,23.2,0,0,1,607,209a23.5,23.5,0,0,1,14.8-21.8,13.9,13.9,0,1,1,20.6-12.3,15.4,15.4,0,0,1-.6,4.3,23.6,23.6,0,0,1,9.6-2,24.3,24.3,0,0,1,8.6,1.5"/><rect class="cls-9" x="-1.9" y="381.8" width="661.9" height="276.6"/><path class="cls-10" d="M276.8,381.8h95.5C241.5,431,320.3,492.1,660,568.1v90.3H210.5C100.8,572.7,17.4,434.5,276.8,381.8"/><path class="cls-11" d="M289.8,381.8H303v9.7c0,7.6,9.1,13.9,20.3,13.9h0a27.3,27.3,0,0,0,4.1-.3,50.9,50.9,0,0,0-8.1,7.9H177.6c7.7-3.7,16.1-7.3,25.2-10.7a27.2,27.2,0,0,0,12.8,3.1h0c11.1,0,20.2-6.2,20.3-13.8l13.2-3.5v3.4c0,7.6,9.2,13.9,20.4,13.9h0c11.1,0,20.3-6.3,20.3-13.9Zm53.8,0h13.2v6.4c-5.1,2.2-9.7,4.5-13.9,6.8a8.4,8.4,0,0,0,.7-3.5Z"/><path class="cls-12" d="M106.5,519.3c-5.6-33.6,6.6-66.1,47-92.8a11.2,11.2,0,0,1,.5,3.6v1h1.1a6.7,6.7,0,0,1,1.5,13.2A18.2,18.2,0,0,1,144.4,470c0,.3.1.6.1,1a10.6,10.6,0,0,1-5.2,9.1A20.1,20.1,0,0,1,122,510.6a20.9,20.9,0,0,1-6.7-1.1,23.2,23.2,0,0,1-8.8,9.8"/><path class="cls-12" d="M381.9,487.3c31.1,13.7,72.9,28,125.9,43a18.6,18.6,0,0,1-3.1,7.2,14.3,14.3,0,1,1-19.3,21,17.3,17.3,0,0,1-6.9,4.7,13.4,13.4,0,0,1,.4,3.5,15.8,15.8,0,0,1-15.8,15.8l-2.1-.2v.2a13.8,13.8,0,0,1-27.6,0,13.2,13.2,0,0,1,1.7-6.6,17.8,17.8,0,0,1-3.9-11.3v-1a15.9,15.9,0,0,1-11.3-15.2,15.7,15.7,0,0,1,5.4-11.8l-1.9-1a16.5,16.5,0,1,1-16.5-28.5,18.3,18.3,0,0,1-7.7-10.9h-1.6a18.1,18.1,0,0,1-15.7-9"/><path class="cls-11" d="M468.4,518.6q48.1,15,112,30.8a28.7,28.7,0,0,1-7.9,8.4,21.3,21.3,0,0,1,2.3,30,22.8,22.8,0,0,1-15.9,39.4h-2.8a8.9,8.9,0,0,1-3.7,5.2,16.4,16.4,0,0,1,.8,5,16.3,16.3,0,1,1-25.1-13.6,27,27,0,0,1-23.6-23.8h-.4a23.2,23.2,0,0,1-23.3-23.2,24.6,24.6,0,0,1,1.1-7.2,18.7,18.7,0,0,1-8.4-15.6,20.1,20.1,0,0,1,.1-2.5,19,19,0,0,1-4.5-28.6,13.5,13.5,0,0,1-.7-4.1Z"/><path class="cls-8" d="M463.1,264.6a15.7,15.7,0,0,1,15.8,15.7,14.2,14.2,0,0,1-.4,3.6,18.2,18.2,0,0,1,6.9,4.6,14.6,14.6,0,0,1,10.1-4.1,14.2,14.2,0,0,1,9.2,25.1A18.6,18.6,0,0,1,489.3,339a17.6,17.6,0,0,1-7.6-1.6,16.2,16.2,0,0,1-4.2,15.9,15.6,15.6,0,0,1,2,7.8,16.3,16.3,0,0,1-1.7,7.3,20.1,20.1,0,0,1,13.6,18.9,17.3,17.3,0,0,1-.8,5.6,16.5,16.5,0,0,1,1.3,6.3,16.9,16.9,0,0,1-24.3,15,12.6,12.6,0,0,1-10.9,11.1,15.3,15.3,0,0,1-15.1,12.4,15.5,15.5,0,0,1-15.4-13.3h-.1a16.9,16.9,0,0,1-10.8-3.8A19.7,19.7,0,0,1,384,404.8a19.2,19.2,0,0,1,1.4-7.2,16.6,16.6,0,0,1-15.5-16.5,16.3,16.3,0,0,1,9.8-14.9,17.9,17.9,0,0,1,17.9-15.4h1.6a18.1,18.1,0,0,1,7.7-10.8,16.5,16.5,0,1,1,16.5-28.5l1.9-1a15.8,15.8,0,0,1,5.9-27.1v-1a17.7,17.7,0,0,1,3.9-11.2,13.5,13.5,0,0,1-1.7-6.6,13.8,13.8,0,0,1,27.6,0h2.1"/><path class="cls-13" d="M546.9,540.9c33.9,8.8,71.5,17.9,113.1,27.2v52.6h-2.2a28.3,28.3,0,0,1-9.7-1.7,6.6,6.6,0,0,1,.1,1.4,17.2,17.2,0,0,1-34.3,0,16.7,16.7,0,0,1,4.8-11.7,26.2,26.2,0,0,1-6.3-11.4,20.3,20.3,0,0,1-12.8,4.5,20.6,20.6,0,0,1-16.6-8.5,18.1,18.1,0,0,1-9.1-3.5,16.4,16.4,0,1,1-20.3-25.2,23.3,23.3,0,0,1-7.7-17.2,23.9,23.9,0,0,1,1-6.6"/><path class="cls-14" d="M528.2,456a27.4,27.4,0,0,1-48.8-3.4h-1.7A30.9,30.9,0,0,1,469,392a11.5,11.5,0,0,1-.6-3.7,13.5,13.5,0,0,1,.7-4.1,18.6,18.6,0,0,1-4.6-12.4,18.9,18.9,0,0,1,9.1-16.2,20.1,20.1,0,0,1-.1-2.5,18.7,18.7,0,0,1,8.4-15.6,24.6,24.6,0,0,1-1.1-7.2,23.2,23.2,0,0,1,23.3-23.2h.4a27,27,0,0,1,23.6-23.8,16.1,16.1,0,0,1,8.8-29.7,16.2,16.2,0,0,1,16.3,16.1,16.4,16.4,0,0,1-.8,5,9.3,9.3,0,0,1,3.7,5.2h2.8a22.8,22.8,0,0,1,15.9,39.4,21.3,21.3,0,0,1-2.3,30,28.7,28.7,0,0,1-10.9,51.6,6.1,6.1,0,0,1,.1,1.4,25.2,25.2,0,0,1-4.8,14.8,31,31,0,0,1,1.4,9.2A29.9,29.9,0,0,1,528.2,456Z"/><path class="cls-15" d="M660,340.7V521.3h-.3a23.4,23.4,0,0,1-19-9.8,30.5,30.5,0,0,1-40.6-11.3,25.9,25.9,0,0,1-16.5,6,25,25,0,0,1-17.2-6.7H565a27.3,27.3,0,0,1-22.2-11.3l-2.5.2a26.8,26.8,0,0,1-12-50.8A19.5,19.5,0,0,1,545.7,427a19.7,19.7,0,0,1,4.8.6,22.6,22.6,0,0,1-4.6-13.7,23.3,23.3,0,0,1,7.7-17.2,16.3,16.3,0,0,1,8.2-30.5,16.6,16.6,0,0,1,12.1,5.3A18.1,18.1,0,0,1,583,368a20.6,20.6,0,0,1,16.6-8.5,20.3,20.3,0,0,1,12.8,4.5,26.2,26.2,0,0,1,6.3-11.4,16.7,16.7,0,0,1-4.8-11.7,17.2,17.2,0,0,1,34.3,0,6.6,6.6,0,0,1-.1,1.4,28.3,28.3,0,0,1,9.7-1.7H660"/><path class="cls-8" d="M-1.9,443.6V217.9a20.4,20.4,0,0,1,9.2-2.1A21.2,21.2,0,0,1,21,220.7a23,23,0,0,1,22.8-20,21.5,21.5,0,0,1,8,1.5,17.4,17.4,0,1,1,24.9,20,19.4,19.4,0,0,1,1.5,7.3,18.6,18.6,0,0,1-8.7,15.7,15.3,15.3,0,0,1-14,10.2,8.6,8.6,0,0,1,.1,1.6,11,11,0,0,1-7.3,10.4v.3h.5a20.1,20.1,0,0,1,20.3,20v.4a15.9,15.9,0,0,1,2.7,1.2,13.7,13.7,0,0,1,11.9-6.6,14,14,0,0,1,14,14,13.9,13.9,0,0,1-1.7,6.7,23.4,23.4,0,0,1,19.2,13.3,20.9,20.9,0,0,1,6.7-1.1,20.1,20.1,0,0,1,17.3,30.5,10.6,10.6,0,0,1,5.2,9.1c0,.4-.1.7-.1,1A18.2,18.2,0,0,1,156.6,382a6.7,6.7,0,0,1-1.5,13.2H154v1a14.3,14.3,0,0,1-14.3,14.2,13.9,13.9,0,0,1-6.5-1.6,26.8,26.8,0,0,1-23.9,14.5,26.2,26.2,0,0,1-13.9-3.9,28.1,28.1,0,0,1-35.9,4.5,32.7,32.7,0,0,1-24.4,11,31.8,31.8,0,0,1-10.8-1.9A35,35,0,0,1-.9,443.6h-1"/><path class="cls-16" d="M513.1,181.8c43.3,0,78.6-35.1,78.6-78.1s-35.3-78.1-78.6-78.1-78.7,35.1-78.7,78.1,35.3,78.1,78.7,78.1"/><path class="cls-14" d="M234.9,658.4H-1.9V372.5c35.9,5.9,64.5,33.7,71.2,69.1a63,63,0,0,1,28.8-6.8c34.8,0,63,28,63,62.5a61.1,61.1,0,0,1-6,26.7l3.2,1a62.4,62.4,0,0,1,44.6-18.7c34.4,0,62.4,27.7,62.4,61.9a62,62,0,0,1-42.6,58.7,84.5,84.5,0,0,1,12.2,31.5"/></svg>