<svg id="svg4136" xmlns="http://www.w3.org/2000/svg" viewBox="0 0 841.9 595.3"><defs><style>.cls-1{fill:#afe9dd;stroke-width:1.88px;}.cls-1,.cls-2,.cls-3,.cls-4,.cls-5,.cls-6,.cls-7{stroke:#000;}.cls-1,.cls-2{stroke-linecap:round;stroke-linejoin:round;}.cls-2,.cls-4{fill:#d3bc5f;}.cls-2{stroke-width:1.32px;}.cls-3{fill:#5fd35f;}.cls-5{fill:#aad400;}.cls-6{fill:#71c837;}.cls-7{fill:#cdde87;}.cls-8{fill:none;}</style></defs><title>LANDSCAPE3</title><g id="g4144"><rect id="rect4770" class="cls-1" x="0.9" y="0.9" width="840" height="593.4"/><rect id="rect4770-9" class="cls-2" x="0.7" y="303.6" width="840.6" height="290.98"/><g id="g4763"><path id="path5730" class="cls-3" d="M1,76.6S55.2,63.8,80.9,59.7c37.2-6,74.9-7.8,112.4-10,39.6-2.3,79.3-3.6,119-3.3,24.6.2,49.2.4,73.6,3.3,20.7,2.5,41.1,7.1,61.4,12.2,14.3,3.6,28.3,8.6,42.4,13s25.8,8.7,38.9,12.4c15.9,4.5,32,8.7,48.1,12.1s29.7,5.6,44.6,7.6c26.9,3.5,44.5,1.5,81,7.9,28.7,5,85,22,85,22L543.7,152.4,307.6,191,30.9,238.5,1,221.9Z"/><path id="path5728" class="cls-4" d="M313.2,185.5s93.5-11.7,139.8-21c28.2-5.6,55.7-16.1,84.1-20.9,22.8-4,45.9-4.9,68.9-6.7,33.3-2.5,66.7-4.6,100.1-5.5,29-.8,57.9-.7,86.9,0,15.7.4,47.2,2.2,47.2,2.2V273.3l-95.5,13.8-125.6,5.5L402.9,238.5Z"/><path id="path5722" class="cls-5" d="M44.1,237.4s47.6-18,71.8-25.4c28-8.6,56.4-16.1,84.9-22.1,16-3.3,32-6.4,48.2-7.7a267.6,267.6,0,0,1,48.2,0,184.3,184.3,0,0,1,38.7,7.7c17,5.7,32.5,16.1,49.1,23.2,13.4,5.7,26.7,12.2,40.6,15.5s31.1,1.2,46.3,4.4c20.6,4.3,40.3,13.2,60.4,19.8l103,34.3L490.8,304.7,350.1,308l-56.7,16.6Z"/><path id="path5714" class="cls-6" d="M226.1,379.6c95.7-95.1,119.4-80.8,185-102.9,40.4-13.6,83.4-13.3,125.3-17.1,57.4-5.3,115.1-6.6,172.8-7.9,27.9-.7,56.2-5.9,83.7,0,16.6,3.5,47.3,20.8,47.3,20.8l.7,106.9s-39.5,19.2-210.5,19.7c-33.9.1-404.3-19.5-404.3-19.5Z"/><path id="path5712" class="cls-7" d="M1,220.5s114.8,35.2,171.5,54.4c46.2,15.7,92.1,34,137.9,51.1s186.3,59.2,139.9,70.3C337,423.5,1.3,381.5,1.3,381.5Z"/></g><path id="path4188" class="cls-8" d="M320,468.6l-40.4-16.5h0"/></g></svg>