<svg id="svg8925" xmlns="http://www.w3.org/2000/svg" xmlns:xlink="http://www.w3.org/1999/xlink" viewBox="0 0 3402.2 1690.3"><defs><style>.cls-1{fill:url(#linear-gradient);}.cls-2{fill:#a9ccff;}.cls-3{fill:#eff;}.cls-4{fill:#ce5542;}.cls-5{fill:#b74a38;}.cls-6{fill:#c665ad;}.cls-7{fill:#b68;}.cls-8{fill:#bdbcde;}.cls-9{fill:#ffbbed;}.cls-10{fill:#bb88ab;}.cls-11{fill:#daaeca;}.cls-12{fill:#ffdfef;}.cls-13{fill:#efaada;}</style><linearGradient id="linear-gradient" x1="733.04" y1="2080.81" x2="721.54" y2="505.48" gradientTransform="matrix(1, 0, 0, -1, 975.97, 2140.4)" gradientUnits="userSpaceOnUse"><stop offset="0" stop-color="#bdbcde"/><stop offset="1" stop-color="#bdbcde" stop-opacity="0"/></linearGradient></defs><title>LANDSCAPE6</title><g id="layer1"><rect id="rect9635" class="cls-1" x="7.2" width="3392.2" height="1690.3" rx="49.5" ry="49.5"/><g id="Berg"><path id="path9570" class="cls-2" d="M2230.8,757.8s-22.9,42.4-155,109.3-612,329.6-675.6,350.8-461.8,282.3-577.6,300.3-177.9,50.6-177.9,50.6l1532.2,1.6,1068.8-6.5s24.5-47.4-80-143.6-34.2-99.6-203.9-208.9-287.2-235-352.5-275.8S2433.1,810,2403.7,788.8s-60.4-35.9-94.6-35.9-78.4,4.9-78.4,4.9Z"/><path id="path9572" class="cls-3" d="M2281.4,733.3c-24.5-1.6-31-14.7-57.1,4.9s-40.8,31-63.7,50.6-75,58.7-75,58.7l79.9-40.8s-13,27.8-6.5,22.9,44-39.2,44-39.2l-9.7,42.4,29.3-39.1-4.9,32.6,19.6-24.5-6.5,68.6s26.1-44.1,29.4-55.5,19.5,9.8,19.5,19.6,11.5,44,11.5,44l-1.7-76.7s18,3.3,21.2,21.2,27.8,60.4,27.8,60.4l24.5,24.5s-24.5-42.4-24.5-63.6-1.6-39.2-1.6-39.2l29.3,26.1,37.6,39.2-32.7-58.8-1.6-19.6s26.1,14.7,29.4,22.9,21.2,35.9,21.2,35.9l-8.2-52.2,44.1,34.2s21.2,1.7-24.5-35.9-31-48.9-71.8-58.7-78.3-4.9-78.3-4.9Z"/></g><g id="g10098"><path id="path9538" class="cls-4" d="M2461.2,1267.9l6,305.9,39.6-.7-17.5-308.6s20.8-4,41.6-6.7,32.9-6,32.9-6l8.7-16.8s-40.2,18.8-71.7,21.5-83.9,6-99.3,6h-18.2v10.1Z"/><path id="path9540" class="cls-4" d="M2383.3,1290.7l136.8-.7.7,24.2-138.9-5.4Z"/><path id="path9542" class="cls-5" d="M2571.2,1235.7l-10.8-8.1a482.7,482.7,0,0,1-73.8,11.4c-38.9,2.7-103.3,6-103.3,6v17.5a687.4,687.4,0,0,0,101.3-3.4c59.9-6.7,86.6-23.5,86.6-23.5Z"/><path id="path9544" class="cls-6" d="M2568.3,1233.1l4.3-16.9s-.5,16.7-51.5,21.4-137.1,8.1-137.1,8.1,110.1-13.4,128.2-24.8,26.8-9.4,26.8-12.1-1.3-14.8-1.3-14.8l34.2,22.9Z"/><path id="path9546" class="cls-7" d="M2536.3,1192.7a371.8,371.8,0,0,1-73.2,16.8c-39.5,4.7-72.4,9.4-86.5,9.4s-11.4,23.5-11.4,23.5l17.4,3.3s87.9-8.7,109.4-11.4,53-8.7,57.7-11.4,20.1-6.7,20.1-6.7Z"/><path id="path9548" class="cls-4" d="M2310.2,1267.9l-6.1,305.9-39.6-.7,17.5-308.6s-20.8-4-41.6-6.7-32.9-6-32.9-6l-8.7-16.8s40.3,18.8,71.8,21.5,83.9,6,99.3,6H2388v10.1Z"/><path id="path9550" class="cls-4" d="M2388.1,1290.7l-136.9-.7-.7,24.2,138.9-5.4Z"/><path id="path9552" class="cls-5" d="M2200.2,1235.7l10.7-8.1a482.7,482.7,0,0,0,73.8,11.4c38.9,2.7,103.3,6,103.3,6v17.5a687.5,687.5,0,0,1-101.3-3.4c-59.9-6.7-86.5-23.5-86.5-23.5Z"/><path id="path9554" class="cls-6" d="M2203.2,1233.1l-4.3-16.9s.5,16.7,51.4,21.4,137.1,8.1,137.1,8.1-110-13.4-128.1-24.8-26.9-9.4-26.9-12.1,1.4-14.8,1.4-14.8l-34.2,22.9Z"/><path id="path9556" class="cls-7" d="M2235.1,1192.7a369.6,369.6,0,0,0,73.1,16.8c39.6,4.7,72.5,9.4,86.6,9.4s11.4,23.5,11.4,23.5l-17.5,3.3s-87.9-8.7-109.3-11.4-53-8.7-57.7-11.4-20.2-6.7-20.2-6.7Z"/></g><path id="Ferne" class="cls-8" d="M3400,1690.3V1541.6H3193.7c.9-5.8,2.3-14.7,3.2-18.4a46.5,46.5,0,0,0,1.1-8.7s8.7,4.1,12.2,1.8,6.9-10.4,6.9-10.4,1.1,6.9,7.5,7.5,15.6.5,15.6.5-6.4,5.8.5,4.1,9.3-9.2,9.3-9.2a119.1,119.1,0,0,0,13.8,0c4.6-.6,4.6-2.9,4.6-2.9s1.2-1.8-.6-7,10.4-5.2,13.9-13.2,13.8-17.3,3.5-17.9-7.5-11.5-11-10.4,6.3-4.6-4-10.4-4.1-11.5-15-9.2-16.2,4-16.2,6.9-6.9-3.5-11,.6-6.3,4-6.3,4,4-6.3,2.3-12.7-10.4-12.7-15.6-9.8-8.6-6.4-11.9-6.4a1.9,1.9,0,0,0-1.3.7c-3.5,3.4-12.8-2.9-15.6,3.4s-13.3.6-13.3,9.8a31.2,31.2,0,0,0,3.5,15s-6.4-1.7-16.2,2.3-27.7,8.1-17.3,20.8-6.9,17.9,5.2,25.4-3.5,13.8,13.3,13.8,11.5,9.3,20.7,7a57.3,57.3,0,0,0,16.8-7.5,9.2,9.2,0,0,1-1.8,10.3c-3.2,3.7-10.8,14.1-15.2,20.2h-93c-5.5-5.5-12.1-12.3-15-15.5a9.2,9.2,0,0,1-1.7-10.4,57.5,57.5,0,0,0,16.7,7.5c9.2,2.3,4-6.9,20.8-6.9s1.1-6.4,13.2-13.9-5.2-12.7,5.2-25.4-7.5-16.7-17.3-20.7-16.1-2.4-16.1-2.4,3.4-5.7,3.4-15-10.4-3.4-13.2-9.7-12.2,0-15.6-3.5a2.2,2.2,0,0,0-1.4-.6c-3.3-.1-7.3,8.9-11.9,6.3s-13.9,3.5-15.6,9.9,2.3,12.6,2.3,12.6-2.3.1-6.3-4-11,2.3-11-.6-5.2-4.6-16.1-6.9-4.7,3.5-15,9.3-.6,11.5-4.1,10.3-.6,9.8-10.9,10.4,0,9.8,3.4,17.9,15.6,8.1,13.9,13.3-.6,6.9-.6,6.9,0,2.3,4.6,2.9,13.8,0,13.8,0,2.4,7.5,9.3,9.2.6-4,.6-4,9.2,0,15.6-.6,7.5-7.5,7.5-7.5,3.4,8.1,6.9,10.4,12.1-1.8,12.1-1.8a46.5,46.5,0,0,0,1.1,8.7c.7,2.8,2.7,8.8,4.6,13.8h-89.9c4.7-6,8-13.5.5-17.3-13.8-6.9-19.6-9.2-19.6-9.2s19.6-5.8,0-12.7-23.1-5.8-30-15,2.3-12.7-15-20.8-10.4-20.7-35.7-18.4-30,6.9-39.3,20.7-38.1-1.1-38.1,10.4-17.3,2.3-16.1,15c.6,6.6-4.7,9.1-10,10.9.5-11.7-16.2-3.1-16.2-14.4s-28.9,3.5-38.1-10.4-13.8-18.4-39.2-20.7-18.5,10.4-35.8,18.4-8,11.6-15,20.8-10.4,8.1-30,15,0,12.7,0,12.7-5.7,2.3-19.6,9.2c-7.5,3.8-4.1,11.3.5,17.3h-89.8c1.8-5,3.9-11,4.5-13.8a54,54,0,0,0,1.2-8.7s8.6,4.1,12.1,1.8,6.9-10.4,6.9-10.4,1.1,6.9,7.5,7.5,15.6.6,15.6.6-6.4,5.7.5,4,9.3-9.2,9.3-9.2,9.2.6,13.8,0,4.6-2.9,4.6-2.9,1.2-1.7-.5-6.9,10.3-5.2,13.8-13.3,13.9-17.3,3.5-17.9-7.5-11.5-11-10.4,6.4-4.6-4-10.3-4.1-11.6-15-9.3-16.2,4.1-16.2,6.9-6.9-3.4-10.9.6-6.4,4-6.4,4,4.1-6.3,2.3-12.6-10.4-12.7-15.6-9.9-8.6-6.4-11.9-6.3a1.9,1.9,0,0,0-1.3.6c-3.5,3.5-12.7-2.9-15.6,3.5s-13.3.5-13.3,9.7,3.5,15,3.5,15-6.4-1.7-16.2,2.4-27.7,8-17.3,20.7-6.9,17.9,5.2,25.4-3.5,13.9,13.3,13.9,11.5,9.2,20.8,6.9a57.5,57.5,0,0,0,16.7-7.5,9.2,9.2,0,0,1-1.7,10.4c-2.9,3.2-9.6,10-15.1,15.5h-85.7c-4.6-2-9.2-3.9-11.6-5.8l-1.6-2.3a3.6,3.6,0,0,0-1.5-2c-3-4.1-6.1-8.1-7.8-10.1-4.6-5.2-1.7-10.3-1.7-10.3a57.5,57.5,0,0,0,16.7,7.5c9.2,2.3,4.1-7,20.8-7s1.1-6.3,13.2-13.8-5.2-12.7,5.2-25.4-7.5-16.7-17.3-20.8-16.1-2.3-16.1-2.3a31.9,31.9,0,0,0,3.4-15c0-9.2-10.3-3.4-13.2-9.8s-12.2,0-15.6-3.4a2.3,2.3,0,0,0-1.4-.7c-3.2,0-7.3,8.9-11.9,6.4s-13.8,3.5-15.6,9.8,2.3,12.7,2.3,12.7-2.3,0-6.3-4-11,2.3-11-.6-5.2-4.6-16.1-6.9-4.6,3.5-15,9.2-.6,11.6-4.1,10.4-.5,9.8-10.9,10.4c-4.1.2-4.9,1.8-4.3,4l-6-.6c-25.4-2.3-18.5,10.4-35.8,18.4s-8.1,11.6-15,20.8-10.4,8.1-30,15,0,12.7,0,12.7l-7.9,3.5h-46.5a16.9,16.9,0,0,0,3.1-5.2s9.2.6,13.8,0,4.6-2.9,4.6-2.9,1.2-1.7-.6-6.9,10.4-5.2,13.9-13.3,13.8-17.3,3.5-17.9-7.5-11.5-11-10.4,6.3-4.6-4-10.3-4.1-11.6-15-9.3-16.2,4.1-16.2,6.9-6.9-3.4-11,.6-6.3,4-6.3,4,4-6.3,2.3-12.6-10.4-12.7-15.6-9.9-8.6-6.4-11.9-6.3a1.8,1.8,0,0,0-1.3.6c-3.5,3.5-12.8-2.9-15.6,3.5s-13.3.5-13.3,9.7,3.5,15,3.5,15-6.4-1.7-16.2,2.4-27.7,8-17.3,20.7-6.9,17.9,5.2,25.4-3.5,13.9,13.3,13.9c5.6,0,8.7,1,10.8,2.3h-78.9c3.6-1.3,3.3-7,16.4-7,16.7,0,1.1-6.3,13.2-13.8s-5.2-12.7,5.2-25.4-7.5-16.7-17.3-20.8-16.1-2.3-16.1-2.3a31.9,31.9,0,0,0,3.4-15c0-9.2-10.4-3.4-13.2-9.8s-12.2,0-15.6-3.4a2.3,2.3,0,0,0-1.4-.7c-3.3,0-7.3,8.9-11.9,6.4s-13.9,3.5-15.6,9.8,2.3,12.7,2.3,12.7-2.3,0-6.3-4-11,2.3-11-.6-5.2-4.6-16.1-6.9-4.7,3.5-15,9.2-.6,11.6-4.1,10.4-.6,9.8-10.9,10.4,0,9.8,3.4,17.9,15.6,8.1,13.9,13.2-.6,7-.6,7,0,2.3,4.6,2.9a119.1,119.1,0,0,0,13.8,0s2.4,7.4,9.3,9.2.6-4.1.6-4.1,9.2.1,15.6-.5,7.5-7.5,7.5-7.5,3.4,8,6.9,10.4,12.1-1.8,12.1-1.8a28.7,28.7,0,0,0,.4,4.1H1548.9c-4.2-1.1-7.6-2.9-7.6-6.3,0-9.1-28.9-14.4-30.2-21s-25-3.9-23.7-18.4-18.3-3.9-18.3-17-32.9,3.9-43.4-11.8-15.7-21.1-44.6-23.7-21,11.8-40.7,21-9.2,13.2-17.1,23.7-11.8,9.2-34.1,17.1,0,14.4,0,14.4-6.6,2.6-22.4,10.5c-8.5,4.3-4.7,12.8.6,19.7H1165.1c2.1-5.8,4.5-12.6,5.2-15.8a50.4,50.4,0,0,0,1.3-9.8s9.8,4.6,13.8,2,7.8-11.8,7.8-11.8,1.4,7.9,8.6,8.5,17.7.6,17.7.6-7.2,6.6.7,4.6,10.5-10.5,10.5-10.5,10.5.7,15.8,0,5.2-3.2,5.2-3.2,1.3-2-.6-7.9,11.8-6,15.7-15.2,15.8-19.6,3.9-20.3-8.5-13.1-12.4-11.8,7.2-5.3-4.6-11.8-4.6-13.1-17.1-10.5-18.4,4.6-18.4,7.9-7.9-4-12.5.6-7.2,4.6-7.2,4.6,4.6-7.2,2.7-14.5-11.9-14.4-17.8-11.1-9.8-7.3-13.6-7.3a2.6,2.6,0,0,0-1.5.7c-3.9,4-14.5-3.2-17.7,4s-15.1.6-15.1,11.1,3.9,17.1,3.9,17.1-7.2-2-18.4,2.6-31.5,9.2-19.7,23.7-7.8,20.3,5.9,28.9-3.9,15.7,15.1,15.7,13.2,10.5,23.7,7.9a64.8,64.8,0,0,0,19-8.5,10.5,10.5,0,0,1-1.9,11.8c-3.3,3.7-10.9,11.4-17.2,17.7H1040.1c-5-7-13.6-18.8-17.3-23-5.3-5.9-2-11.8-2-11.8a64.8,64.8,0,0,0,19,8.5c10.5,2.7,4.7-7.8,23.7-7.8s1.3-7.3,15.1-15.8-6-14.4,5.9-28.9-8.5-19.1-19.7-23.7-18.4-2.6-18.4-2.6,3.9-6.5,3.9-17-11.8-3.9-15.1-11.2-13.8,0-17.7-3.9a2.8,2.8,0,0,0-1.5-.8c-3.8,0-8.4,10.2-13.6,7.3s-15.7,4-17.7,11.2,2.6,14.4,2.6,14.4-2.6,0-7.2-4.6-12.5,2.7-12.5-.6-5.9-5.3-18.4-7.9-5.3,4-17.1,10.5-.6,13.2-4.5,11.8-.7,11.2-12.5,11.9,0,11.1,3.9,20.3,17.7,9.2,15.8,15.1-.7,7.9-.7,7.9,0,2.6,5.3,3.3,15.7,0,15.7,0,2.7,8.5,10.6,10.5.6-4.6.6-4.6,10.5,0,17.7-.7,8.6-8.5,8.6-8.5,3.9,9.2,7.8,11.8,13.8-2,13.8-2a47.5,47.5,0,0,0,1.4,9.9c.9,4.2,2.5,14.3,3.6,21H44.1c-27.6,0-44.1-.4-44.1-.4v129.4H1040.7M3259,1460.9c6.9.6,19.6,9.8,15.5,8.7l-12.1-3.5Zm-260.6,4.6-3.5,5.2-12.1,3.5c-4,1.1,8.7-8.1,15.6-8.7Zm-2054,3.9-3.9,5.9-13.8,4c-4.6,1.3,9.8-9.2,17.7-9.9Zm1350.7,3-3.5,5.2-12.1,3.5c-4,1.1,8.7-8.1,15.6-8.7Zm-1054.2,2.3c7.9.7,22.3,11.2,17.7,9.8l-13.7-3.9Zm1314.7,2.3c6.9.6,19.6,9.8,15.6,8.7l-12.1-3.5Zm-680.3,18.4-3.4,5.2-12.1,3.5c-4.1,1.1,8.6-8.1,15.5-8.7Zm260.6,4.6c6.9.6,19.6,9.8,15.5,8.7l-12-3.5Zm1072.1,2.7a60.3,60.3,0,0,1,7.6.3s4.6,3.5-6.4,5.2-13.8-3.4-13.8-3.4l4.6-1.2a36.3,36.3,0,0,1,8-.9Zm-158.8,4.6a36.1,36.1,0,0,1,7.9.9l4.7,1.2s-2.9,5.1-13.9,3.4-6.3-5.2-6.3-5.2a58.8,58.8,0,0,1,7.6-.3Zm-703.3,6.9a37,37,0,0,1,8,.9l4.6,1.2s-2.9,5.1-13.9,3.4-6.3-5.2-6.3-5.2a60.3,60.3,0,0,1,7.6-.3Zm-1343.7,2.7a48.1,48.1,0,0,1,9.1,1.1l5.2,1.3s-3.3,5.9-15.7,3.9-7.3-5.9-7.3-5.9a65.6,65.6,0,0,1,8.7-.4Zm1334.9.5.5,1-.6-.7v-.3Zm167.6,1.4a57.9,57.9,0,0,1,7.5.3s4.7,3.5-6.3,5.2-13.8-3.4-13.8-3.4l4.6-1.2a36.3,36.3,0,0,1,8-.9Zm-1321.8,3.4a63.3,63.3,0,0,1,8.6.4s5.3,3.9-7.2,5.9-15.8-3.9-15.8-3.9l5.3-1.3A40.4,40.4,0,0,1,1182.9,1522.2Zm1173.2,3.8a46.5,46.5,0,0,0,1.1,8.7c.2.8.4,2,.7,3.3-3.6-1.8-6.2-4.4-5.8-9.2a5.7,5.7,0,0,0,0-1.3c2.2-.7,4-1.5,4-1.5Zm-430,11.2a36.1,36.1,0,0,1,7.9.9l4.6,1.2s-2.8,5.1-13.8,3.4-6.3-5.2-6.3-5.2a58.8,58.8,0,0,1,7.6-.3Zm158.8,4.6a60.3,60.3,0,0,1,7.6.3s4.6,3.5-6.4,5.2-13.8-3.4-13.8-3.4l4.6-1.2a36.3,36.3,0,0,1,8-.9Zm8.7,3.2s1.2,7,7.5,7.5,15.6.6,15.6.6H2089a46.6,46.6,0,0,0,4.6-8.2Zm-151.5.6a57.5,57.5,0,0,0,16.7,7.5H1942a9.2,9.2,0,0,1,.1-7.6Zm126.7,4.6a7.3,7.3,0,0,1,.8,3h-5.8C2066.9,1551.5,2068.8,1550.2,2068.8,1550.2Z"/><g id="g10078"><path id="path9591" class="cls-9" d="M3122.7,1375.4c4.7-8.1,12.7-11.4,14.1-6.7s12.7-14.1,14.1-5.4,6-3.3,9.3,6.7,8.1-.6,12.8,8.1,6,.6,16.1,10,21.5-12.7,16.8-12.7-2-29.5-4.7-27.5,6-45.6,6-45.6l-3.3-13.5s-4.7-6.7-8.8-.6-9.4-2-10.7,2,4.7-22.8-.7-20.8-2.7-29.5-6-28.2-10.7-4.7-10.7-4.7-2.1-11.4-6.8-4-10.7-6.1-10.7-6.1-.7-22.8-4.7-17.4-7.4-18.1-12.7-12.1-21.5-18.8-26.2-14.1-18.8-11.4-18.8-11.4-14.1-12.1-17.4-8-12.8-10.1-12.8-5.4-10-.7-10,3.4-45-12.1-45-8.1-22.8-.7-22.8,5.4-11.4,14.1-11.4,14.1-19.5,4-20.1,8.7-23.5-2.7-22.2,6-34.9-14.1-34.2-8-35.6,0-32.2,7.4-6.7,22.8-6.7,22.8l20.8,21.4s-31.6,10.1-23.5,12.1-7.4,0-3.4,3.4-14.7,3.3-6,7.3-18.8,0-2,3.4,6,11.4,10.7,8.7-6,12.8-3.3,10.8-12.1,5.3-1.4,5.3-.6,3.4-7.3,9.4-77.2,17.5-68.5,18.8-16.1,12.8-2,17.5.7,14.7,11.4,20.1-14.1,13.4,12.1,24.1,3.3,30.9,28.8,26.9,22.8,20.8,31.6,10,21.4,14.1,26.8,8.1-7.4,24.1,0,18.8-2.7,22.1,10.1,8.7,8,8,12,4.7-3.3,14.1,7.4.7,9.4,8,15.5,3.3,17.4,14.1,20.1,10.8-2.7,14.7,6.7,8,4.7,18.1,14.8,8.7,4.7,12.1,17.4,2,7.4,14.1,22.1-4.7,30.2,5.4,34.9-2,26.2-35.5,26.2-35.5,6,35.5,10.1,18.8,9.4,3.3,12.7-3.4-3.3,30.2,4,11.4,2.7,9.4,6.7-2,6.8,18.1,12.8,6,14.1,16.1,14.1,2,12.7-3.3,10-16.1,4.1.7,4.7-11.4,26.2,16.8,26.2,0,.7-6,2-12.7,19.5,3.3,15.5-6,.6,2,0-11.5,10-18.1,4.7-18.1-.7-18.8-5.4-14.1-14.1-23.4-20.1-16.7-3.4-13.5-9.4-4.7-10.8-9.4-14.8,2-15.4,11.4-15.4,11.4Z"/><path id="path9593" class="cls-10" d="M3185.2,1586.2s26.9-21.5,13.4-32.3-17.5-14.8-17.5-14.8.2-18-25.4-43.5-60.7-2.2-59.3-19.7,4-35-4-40.3-29.6-4.1-29.6-4.1,10.1,1.4,10.1-17.5-4.8-39-4.8-39,1.4,22.9-2.6,33.7-22.9,44.3-35,17.4-13.5-24.2,1.3-32.2,29.6-31,29.6-31-24.2,26.2-39,23.6-13.4,3.3-13.4,8.7a27.9,27.9,0,0,1-2.7,10.8s5.3,9.4-8.1-2.7-18.8-32.3-18.8-32.3l-12.8-9.4s9.4,31.6,18.8,39.7l19.5,16.8,12.1,17.5s-21.5,2.7-37.6-13.5-47.1,0-53.8-12.1-14.8-47.1-14.8-47.1-2.7,22.9,2.6,32.3,6.8,21.5,6.8,21.5-20.2,14.8-29.6,1.4-20.2-32.3-20.2-32.3,1.3,23.5,12.1,31.6,5.3,21,39,7.4c41.7-16.8,63.2,16.8,87.4,19.5,16.9,1.9,33.7-11.4,43.1.7s4,29.6,20.2,39,52.4-4,43,24.2-25.5,35-36.3,35-21.5,10.7-35,20.2,0-13.5-24.2,2.6-64.5,22.9-64.5,22.9Z"/><path id="path9595" class="cls-11" d="M3175.8,1578.2c21.5-16.1,34.9-13.4,25.5-28.2s-18.1-6.5-22.2-30.7-1-31.6-30.5-34.2-17.2-9.1-26.6-13.1-8.4,9-20.2-12.2c-10.7-19.1-17.9-36.5-36.7-33.9s1.7,4.4,11.1,24.5,9.4,28.3,32.3,37.7,51.1,18.8,25.6,43-51.1,28.3-55.2,36.4,31-21.6,43.1-16.2-8.1,26.9-8.1,26.9,0-20.2,29.6-17.5,8.1,14.8,8.1,14.8Z"/><path id="path9597" class="cls-12" d="M2950.3,1247.1c-5.4.7-10.1,4.7-3.4,10.7s-10-3.3-4,4.1-12.1,2-6.7,11.4-9.4,0-5.4,8-12.1,3.4-8,9.4-12.1,9.4-7.4,13.4-18.1,12.1-3.4,12.8,4.1,5.3,14.1,6,12.8-8.7,12.8-8.7,2,13.4,2.6,3.3,6.1,6.1,6.8,0,6,8.8,8,.7,9.4,11.4,9.4,4,10.1,10.8,10.1,4.7,10,12.8,10,5.4,4.7-8,4.7-8,6.1-16.8-3.3-12.1-14.8-14.1-16.1-8.1-2-14.1-2-11.4-4.1-12.7-6.8-6-8.7-11.4-8.7-7.4-1.3-20.8,0-16.1-3.3-16.1-3.3-16.1Z"/><path id="path9599" class="cls-13" d="M2946.3,1233c24.1-3.4,41.6-15.4,39.6,1.3s14.7,3.4,13.4,14.1,17.4-3.3,16.1,7.4,15.4,9.4,12.7,16.8,8.1,10.7,4,20.1,15.5,8.7,9.4,17.5-4.7,22.1-8.7,27.5,4.7,1.3-1.3,12-.7,20.8-3.4,24.9-1.3,4.7,3.4,9.4,8.7-.7,8.7,3.3,18.1-11.4,12.7,1.4,10.1,3.3,8.1,12.7,3.4,11.4,3.4,16.1,36.9-14.1,36.9-4.7,17.4-20.8,23.4-11.4,16.1-12.7,24.2-5.4,12.1-26.8,18.8-19.4-1.4-15.5,10-9.4-1.3-16.1,4.7-13.4-8-6.1-.6-6.1-8.1-8-2-14.1-11.4,12.1-5.4-6-3.4-6.7-2-20.8,1.3-40.9,1.3-40.9-15.4,13.4-15.4-2.7-8.7,9.4-10.1-6,20.8,12,19.5-10.1-3.4-31.5-3.4-31.5-2-17.5-4-10.1-2-5.4-4.7,0-7.4-4-11.4.7-5.4-5.4-10.1,2.6-14.7-8.7-21.4-.6-22.8-8.7-22.8-5.4-18.2-11.4-19.5-6.7-20.1-5.4-20.1-5.4-10.8-3.3-14.1,2-16.8,0-20.8,5.4-10.1,4-12.1,7.4-6-.7-9.4,4.7-2.7,1.3-6.7,7.4-12.1,6.7-12.1,6.7-7.4-2.7-10.7-.7-.7-4-6.1,0-12,9.4-12,9.4Z"/><path id="path9601" class="cls-13" d="M2912.8,1206.2c6.7,5.3,12-9.4,14.7-3.4s11.4-8,18.1,2.7,25.5,1.3,24.9,10.7,11.4,18.1,2,18.1-14.1-19.4-16.1-12-6.1-3.4-8.7,1.3-8.1-9.4-8.1-5.4-6.7-9.3-6.7-4-7.4-6.7-7.4-1.3-.7-1.4-2.7,2.7-10-9.4-10-9.4Z"/><path id="path9603" class="cls-12" d="M3137.5,1298.1c0,3.3,4.7-2.7,4.7.7a3.9,3.9,0,0,0,2.7,4l2,3.3,10-4s4.7-2,4.7.7-5.3,2.7-5.3,5.4-1.4-.7-1.4,2-1.3,2-1.3,2l-2.7,2-.7.7s-1.3,0-1.3,2.6a19.6,19.6,0,0,1-1.4,6.1l-3.3,2-1.4-7.4-4-1.3h-6l-4.1-4,4.7-4.7-.6-9.4Z"/><path id="path9605" class="cls-12" d="M3026,1250.3c0,5.4-12.8-17.4-11.4-6.7s-16.1-.7-12.8,9.4-8.7,5.4-6,11.4-24.2,9.4-14.1,12.7,3.3,17.5,6.7,12.1-6.7,14.8,1.3,8.1,10.1,11.4,10.1.6,5.4,2,5.4-5.3,9.4,5.3,8.7-.7,8.7,3.4,7.4-3.4,8.7,0,6.7-5.3,8.7-14.8-1.4-17.5-.6-3.3-6.7-8.7,6.1-6.7,6.1-6.7Z"/></g><g id="g10008"><path id="path9720" class="cls-9" d="M321.2,1360.1c-4.1-9.8-13.7-13.6-16.5-7.7s-13.1-16.9-16.9-6.1-7-3.9-13.7,8.7-10.2-.5-18.4,10.4-7.9,1.1-23.1,13.1-24.7-14.9-18.6-15.1,9.6-36.5,12.6-34.2,3.1-56.1,3.1-56.1l7.5-16.7s7.7-8.5,11.4-1.2,12.6-2.8,13.4,2.1-.6-28,5.8-25.7,10.5-36.6,14.5-35.1,15-6.2,15-6.2,5.3-14.2,9.6-5.3,15.3-7.9,15.3-7.9,6.3-28.2,10.2-21.7,13.9-22.7,19.3-15.4,32.2-24.1,37.1-18.5,27-14.8,27-14.8,21-15.5,24.4-10.7,18.8-12.9,17.7-7.1,13.2-1.3,12.2,3.7,60.8-16.7,59.9-11.7,29.5-1.8,28.1,5.7,11.3,16.9,11.3,16.9,24.2,4.2,23.9,10,30.9-4.3,27.1,6.6,48.4-18.8,46.1-11.4,45.8-1.4,39.7,7.9,3.2,27.9,3.2,27.9l-31.9,27.3s38.2,11.2,27.4,14,9.5-.3,3.5,4,18.2,3.6,6,8.9,24.2-.8,1.8,4.1-10.5,14.3-15.9,11.2,4.7,15.5,1.8,13.1,14.2,6.1.4,6.6.1,4.1,7.3,11.3,95.3,18.4,83.7,20.4,17.7,15.1-1.5,21.5-4.4,18.3-19.6,25.3,15,16.1-21.3,30.4-11.7,38.2-43.6,34.3-34.4,26.6-43.1,13.7-31,18.2-36.5,11,3.8,29.5-4.5,23.2-1.8,27.3-15,11.2-12.3,10.3-16.7,6.3.9,17.3-9.7,1.1-14,10.3-20.7,4.8-25.8,18.1-28.5,14-.1,18.2-10.6,10.3-10.4,22.5-21.1,11.3-8.9,15.1-23,3.2-12.8,17.7-27.4-4.9-40.2,7.8-44.5-1.1-25.2-42.9-25.2-42.9-16.3,44.2-17.5,23.6-12.9,4.6-15.6-3.6-2.9,37.2-7.9,14.3-5.8,11.7-8.2-2.2-13,22.6-17.9,7.9-22,20.5-18.6,3.1-15.7-3.7-9.2-19.5-5.3,1-3.3-13.9-37.7,21.8-33.7,1,.5-7.4.4-15.6-25.9,4.9-18.5-6.9-1.3,2.5,2.8-14.1-8.7-21.9-1.8-22.2,5.4-23.2,10.3-17.6,23.8-29.6,30-21.5,7.5-16.7,13.2-6.2,16.1-12,18.6,1.9,17.1,13.5,17.1,13.5Z"/><path id="path9722" class="cls-10" d="M190.3,1623.1s-29.5-25.5-9.6-39.3,26.1-19,26.1-19,4.1-22.3,43.1-54.9,78.8-5.1,81.2-26.6,3.2-43.1,14.8-50,39.2-6.2,39.2-6.2-13.4,2-8.9-21.2,15.4-48.4,15.4-48.4-7.2,28.3-4.5,41.5,18.8,53.9,40.9,20.1,23.1-30.4,5.9-39.8-30.7-37-30.7-37,24.9,31.4,44.7,27.5,16.5,3.6,15.2,10.3a28.8,28.8,0,0,0,.9,13.1s-9.2,11.9,11.1-3.6S507,1349,507,1349l18.8-12.1s-19.7,39.3-33.7,49.7-29.2,21.6-29.2,21.6l-19.8,22s27.1,2.5,51.7-18.1,60.7-1.9,72.3-17.1,30.3-58.8,30.3-58.8-1.9,28.2-11.1,40-13.9,26.9-13.9,26.9,22.5,17.5,37.9.5,33.7-40.7,33.7-40.7-7.3,29.1-23.1,39.5-11.9,26.1-52.1,10.7c-49.8-19-85.5,23.3-117.3,27.6-22.3,3-40.7-12.8-55.8,2.6s-12.2,36.7-35.3,49-66.7-2.9-61.3,31.6,24.6,42.2,38.5,41.8,25.2,12.4,40.3,23.5,3.2-16.6,30.5,2.3,77.8,25.7,77.8,25.7Z"/><path id="path9724" class="cls-11" d="M204.4,1612.7c-23.9-19.1-41.9-15.2-26.2-33.9s24.9-8.6,35.9-38.7,8.8-39.1,47.6-43.6,24.3-11.9,37.4-17.2,8.7,10.9,28.9-15.8c18.4-24.1,31.8-45.9,55.5-43.4s-3.3,5.4-20.3,30.7-18.9,35.3-50.6,47.9-70.4,25.3-43.2,54.2,59.1,32.8,62.4,42.6-34.7-25.3-51.6-18.2,4,32.9,4,32.9,4.8-24.9-34-20.4-14,18.6-14,18.6Z"/><path id="path9726" class="cls-12" d="M574.2,1194.7c6.7.6,11.8,5.4,1.7,13.1s13.8-4.6,4.3,4.8,15.1,2,5.9,13.8,12.1-.3,5,9.8,14.8,3.6,8.1,11.2,13.4,11.2,6.3,16.3,20.5,14.2,1.3,15.6-6.5,6.8-19.6,8.1-14.3-10.3-14.3-10.3-5.8,16.7-4.3,4.3-9.2,7.7-8.7.2-9.8,11-10.5,1.2-14.8,14.4-13.1,5.3-15.5,13.7-14.1,6.2-16,16.2-14.2,7.1-4.2-9.8-4.2-9.8-3.7-20.5,7.3-15,22.3-18,22.6-10.6,6-17.5,5.4-14.2,8.2-15.9,10-7.7,14-14.5,13.1-9.5,6.7-25.8,3.8-19.9,8.2-20,8.2-20Z"/><path id="path9728" class="cls-13" d="M582.8,1177.1c-30.4-3.2-50-17.4-51.4,3.2s-19.8,4.8-20.6,18-21.7-3.5-22.6,9.7-22.1,12.3-20.4,21.3-12.9,13.6-10,25-22,11.4-16.3,21.9.8,27.2,4.7,33.7-6.4,1.8-1.1,14.8-4.1,25.7-1.6,30.6.6,5.7-6.6,11.7-11.1-.5-12.1,4.5-20.6-13.4-16.7,2.2-13.8,4.5-13.4,16-7.1,14.3-8.2,20.1-44.2-15.9-46.5-4.3-17.5-25-27.5-13.2-17.7-15.1-29.9-5.7-9.1-32.6-19.6-23.2,5.5-19.2-10.7-11.2,5.6-20-2.8-16.4,11.8-7.8,2.3-7.5,12.3-10.3,5.9-17.5,11.8,14.5,8.4-7.7,5.9-8.4,7.5-25.7,8.1-50.6,8.1-50.6,16.7,16,20.5-3.9,9,11.3,14.4-7.9-29.7,15.8-22.6-11.6,11.8-39.1,11.8-39.1,6.8-21.6,7.6-12.6,3.9-6.7,6.1-.2,10.4-5.3,14.5.4,8.2-6.9,12.3,2.9,21.2-11.4,27.9-1.7,31.5-11.7,30.7-7.5,26.1-14.9,26.7-9.1,27.2-7.5,27.2-7.5,14.6-4.5,17.7,2,21.6-.7,25.5,5.8,12,4.5,13.8,8.6,8-1.1,11,5.4,3.2,1.6,6.9,8.9,14,7.8,14,7.8,10.1-3.6,14-1.3,1.8-5,7.8-.2,13.3,11.1,13.3,11.1Z"/><path id="path9730" class="cls-13" d="M632.4,1142.6c-9.9,6.9-13.3-11.1-18.2-3.6s-12.8-9.4-24,4.1-33.2,2.7-34.6,14.3-19,22.8-6.9,22.4,22.8-24.6,23.6-15.6,8.6-4.3,10.9,1.4,12.7-12,11.7-7,10.9-11.9,9.6-5.2,11.1-8.6,9.9-2,1.1-1.7,2.8,3.2,15.2-12,15.2-12Z"/><path id="path9732" class="cls-12" d="M320.6,1265.2c-.8,4.1-5.4-3.1-6.2,1a6.4,6.4,0,0,1-4.4,5.1l-3.4,4.2-12-4.6s-5.6-2.3-6.2,1.1,6.3,3.1,5.6,6.4,1.9-.9,1.3,2.4,1.2,2.4,1.2,2.4l3,2.4.7.8s1.7,0,1.1,3.3a22.4,22.4,0,0,0,.3,7.4l3.8,2.3,3.5-9.1,5.5-1.8,7.8-.3,6.2-5.1-5-5.6,3.1-11.7Z"/><path id="path9734" class="cls-12" d="M475.9,1201.7c-1.3,6.6,20.6-22.1,16.3-8.8s20.9-1.5,14.2,11.1,9.9,6.3,5,13.9,28.9,10.6,15.2,15.1-8.5,21.7-11.6,15.2,5.2,18-3.6,10-15.7,14.5-13.2,1.3-7.4,2.7-5.6-6.5-13.4,7.1-11.1-.4-12,4.5-8.7-3.9-11.2.4-7.4-6.3-7.7-17.9,5.9-21.6,1.7-4.2,10.8-11.1-6.2-8-6.2-8Z"/></g><g id="g10026"><path id="path9766" class="cls-9" d="M989.2,1286.5c7.1-13,16.4-18,16.6-10.3s17.1-22.4,16.2-8.1,7.2-5.1,8.1,11.5,8.7-.7,11.3,13.8,6.2,1.4,14.3,17.3,25.9-19.7,21-20,5.6-48.4,2.2-45.2,18.3-74.4,18.3-74.4V1149s-3.2-11.3-9-1.6-9.4-3.8-11.8,2.8,10.9-37.1,4.7-34.1,4.9-48.5,1-46.4-10.1-8.3-10.1-8.3.9-18.7-6-6.9-9.7-10.4-9.7-10.4,5.3-37.4-.3-28.8-3.1-30-10.3-20.4-17.7-31.9-23.8-24.4-16.8-19.6-16.8-19.6-11.7-20.5-16.2-14.1-10.8-17.1-12.1-9.4-10.4-1.7-11.4,4.9-44.1-22-45.2-15.4-23.8-2.3-25.4,7.6S879.2,947,879.2,947s-21.5,5.6-23.5,13.2-24-5.6-24.8,8.8-33-24.9-33.9-14.9-37.4-1.8-35.8,10.4-13,37-13,37l16.3,36.2s-35.8,14.9-27.9,18.6-7.8-.4-4.4,5.3-16.4,4.7-8.3,11.8-19.7-1-3,5.3,3.4,19,9,14.9-9.6,20.5-6.3,17.4-14.1,8.1-2.8,8.7-1.6,5.4-10.2,15-85.7,24.6-76.9,27.2-20.2,20.1-6.7,28.5-3.1,24.2,6.8,33.5-18.3,21.3,6.4,40.2-4.6,50.6,23.3,45.4,18.6,35.2,30.5,18,18.9,24.2,26.2,14.6-14.1,39.1-5,30.7-8.6,36.1,8.4,14.8,6.3,13.6,11.4,8.3-7.2,22.9,7.6,1.5,7.8,13.6,15.4,6.3,14.6,23.9,18.3,18.5-6.7,24.1,5,13.6.2,29.9,13.2,15,1.8,20,17.8,4.2,4.1,23.4,24.5-6.6,30.4,10.3,37.3-1.5,36.8-56.9,36.8-56.9-3,58.5,5.6,31.3,9,6,14.3-4.9-11.4,49.3,1.3,18.9.3,15.5,7.5-2.9,2.4,30,11.9,10.5,10.6,27.1,14.3,4,14.2-4.8,14.7-25.8,4.1,1.3,8-18.5,23.1,28.8,27.5,1.4,2.3-9.9,5.4-20.8,19.6,6.5,17.8-9.1.2,3.3,3-18.7,15.3-29.1,9.7-29.4,4.2-30.8-2-23.3-8.7-39.2-16.8-28.5,0-22.1-8.6-8.1-8.9-16-16.1,2.5-19.2,17.9-19.2,17.9Z"/><path id="path9768" class="cls-10" d="M999.9,1634.7s33.9-33.8,22.5-52.1-14.5-25.1-14.5-25.1,4.9-29.5-15.3-72.7-63.3-6.6-57.3-35.1,13.4-57.1,6.3-66.3-30-8.1-30-8.1,10.2,2.7,15.1-28.1,5.3-64.1,5.3-64.1-4.6,37.5-11.6,54.9-35.7,71.5-41.4,26.9-7.8-40.3,9.9-52.8,39.2-49.1,39.2-49.1-32.3,41.7-47.2,36.5-15,4.8-16.4,13.6a70.9,70.9,0,0,1-5.7,17.5s3.2,15.7-7.8-4.8-11.3-53.8-11.3-53.8l-11-16s1.6,52.2,9.4,65.8l16.2,28.6,8.1,29.2s-23.3,3.3-36.1-23.9-49.5-2.4-53.4-22.6-3.3-77.8-3.3-77.8-8.8,37.3-5.6,53,1.5,35.5,1.5,35.5-25.1,23.2-31.5.7-12.8-53.8-12.8-53.8-4.7,38.6,4.5,52.3.1,34.7,39.1,14.2c48.2-25.4,62,30.7,86.8,36.3,17.3,3.9,38.4-17,45.1,3.3s-3.5,48.6,11.1,64.9,56.2-4,38.9,41.8-36,55.9-47.3,55.4-25.5,16.5-42.1,31.2,3.5-22-26.1,3.2-73.9,34.1-73.9,34.1Z"/><path id="path9770" class="cls-11" d="M992.1,1621.1c26.8-25.3,40.3-20.2,34.2-44.9s-17.4-11.5-15.3-51.3,7.2-51.7-23.2-57.6-15.7-15.8-24.5-22.8-11.2,14.4-18.1-20.9c-6.2-31.9-9.3-60.8-29.8-57.3s.8,7.1,5.4,40.6,2.5,46.7,24.1,63.3,48.8,33.4,15.6,71.7-61.1,43.7-67.4,56.7,38.1-33.7,49.4-24.2S927,1618,927,1618s5.3-33.1,35.7-27.1,4.6,24.6,4.6,24.6Z"/><path id="path9772" class="cls-12" d="M841.4,1067.8c-5.8.8-11.8,7.1-6.3,17.3s-9.7-6-5.3,6.4-13.2,2.7-10,18.4-9.9-.5-7.8,12.9-13.5,4.8-10.9,14.9-15.1,14.8-11.3,21.6-22.2,18.9-6.8,20.7,2.8,9,13.2,10.6,15.7-13.6,15.7-13.6-1.4,22,2,5.6,4.7,10.2,7,.3,4.1,14.6,8.3,1.6,6.9,19.1,8.8,7,7.8,18.1,9.4,8.2,7.2,21.4,9.2,9.3,7-12.9,7-12.9,10.7-27.2-.4-20-11.8-23.8-14.8-14,1.6-23.1.9-18.7-.9-21.1-5.5-10.2-6.2-19.2-7.3-12.6,4.1-34.1,4.2-26.3.7-26.5.7-26.5Z"/><path id="path9774" class="cls-13" d="M840.8,1044.5c26.3-4.3,47.8-23.2,41.3,4.2s14.6,6.2,10.4,23.7,19.2-4.6,15,12.9,13.8,16.2,9.1,28.1,5.6,18-1.1,33.2,14,15,5.4,29-10.8,36-16.4,44.6,4.6,2.4-4.6,19.7-6.1,34-10,40.4-2.6,7.6,1.1,15.6,9.3-.7,8.3,5.9,22-17.7,13,2.9,9.8,6,5.2,21.2.5,18.9-.7,26.6,42.5-21.2,40-5.9,23.8-33.1,27.7-17.4,20.3-20.1,26.8-7.6,19.7-43.3,24.8-30.9,2.7-25.3,13.1-14.8,2.8-26.5,8.4-21.8-6.9-10.3.9-9.9-6.4-13.6,1.5-23.1-15.1,19.1-4-10.2-1.8-11.1,3.3-34.1,12.1-67,12.1-67-19.7,21.2-15.5-5.1-11.7,14.9-9-10.4,18.7,20.8,23.1-15.5,4.7-51.8,4.7-51.8,2.4-28.6-1.6-16.7-.8-8.9-5-.2-6.7-7-12.2.5-4.2-9-11.2,3.9-13.3-15-22.4-2.2-21.7-15.4-22.6-9.9-16.1-19.6-18.7-12-19.8-9.8-19.8-9.8-10.4-6.1-15.3,2.6-17.7-.9-23.3,7.7S911,997,908,1002.3s-6.2-1.4-11.1,7.3-3.2,2-9,11.7-14.5,10.4-14.5,10.4-7-4.8-11.1-1.7.4-6.6-6.3-.3-15.2,14.8-15.2,14.8Z"/><path id="path9776" class="cls-13" d="M812.6,998.8c5.7,9.2,15.2-14.7,16.4-4.7s14.1-12.6,18.3,5.3,26.5,3.5,23.3,18.9,7.3,30.2-2.6,29.7-9.7-32.6-13.7-20.6-5.5-5.8-9.6,1.8-6-15.8-7-9.2-4.6-15.7-6-6.9-6-11.4-7.4-2.6-.4-2.3-3.6,4.2-8.1-15.9-8.1-15.9Z"/><path id="path9778" class="cls-12" d="M1024.9,1160.7c-.8,5.5,5.7-4.1,4.8,1.4s1.8,6.7,1.8,6.7l1.2,5.6,11.6-6.1s5.5-3.1,4.8,1.3-6.3,4.2-7,8.5-1.3-1.1-2,3.3-1.9,3.2-1.9,3.2l-3.4,3.2-.8,1s-1.5,0-2.2,4.3a56.4,56.4,0,0,1-2.9,9.9l-4.1,3.1.5-12.2-3.9-2.4-6.3-.3-3.2-6.8,6.2-7.4,1.7-15.4Z"/><path id="path9780" class="cls-12" d="M920.1,1076.8c-1.4,8.8-8.8-29.2-10.2-11.5s-16.8-1.9-15.9,14.7-10.5,8.3-9.3,18.4-27.9,14.1-18.1,20.1-1.1,28.7,3.9,20.1-11,23.8-.7,13.3,7.6,19.1,10.4,1.6,5.1,3.5,7-8.5,8.5,9.2,9.4-.7,8.3,5.9,8.6-5.1,9.2.4,8.5-8.5,13-23.7,3.1-28.6.2-5.5-4.8-14.6,8.1-10.7,8.1-10.7Z"/></g><g id="g10052"><path id="path9619" class="cls-9" d="M1603.1,1366.2c6-10.1,16.1-14.3,17.8-8.4s16-17.7,17.7-6.8,7.6-4.2,11.8,8.5,10.2-.9,16.1,10.1,7.6.9,20.2,12.7,27-16.1,21.1-16.1-2.5-37.1-5.9-34.6,7.6-57.4,7.6-57.4l-4.2-16.9s-5.9-8.4-11-.8-11.8-2.6-13.5,2.5,5.9-28.7-.8-26.2-3.4-37.1-7.6-35.4-13.5-5.9-13.5-5.9-2.6-14.4-8.5-5.1-13.5-7.6-13.5-7.6-.8-28.7-5.9-21.9-9.3-22.8-16-15.2-27-23.7-33-17.8-23.6-14.3-23.6-14.3-17.7-15.2-21.9-10.1-16.1-12.7-16.1-6.8-12.6-.8-12.6,4.2-56.6-15.2-56.6-10.1-28.7-.9-28.7,6.7-14.4,17.8-14.4,17.8-24.4,5-25.3,11-29.5-3.4-27.9,7.5-43.9-17.7-43-10.1-44.8,0-40.5,9.3-8.5,28.7-8.5,28.7l26.2,27s-39.7,12.7-29.5,15.2-9.3,0-4.3,4.2-18.5,4.3-7.6,9.3-23.6,0-2.5,4.2,7.6,14.4,13.5,11-7.6,16.1-4.2,13.5-15.2,6.8-1.7,6.8-.8,4.2-9.3,11.8-97.1,22-86.1,23.6-20.3,16.1-2.5,22,.8,18.6,14.3,25.3-17.7,16.9,15.2,30.4,4.2,38.8,36.3,33.8,28.7,26.1,39.7,12.6,27,17.8,33.8,10.2-9.3,30.4,0,23.6-3.4,27.9,12.6,11,10.2,10.1,15.2,5.9-4.2,17.7,9.3.8,11.8,10.2,19.4,4.3,22,17.7,25.4,13.5-3.4,18.5,8.4,10.1,5.9,22.8,18.6,11,5.9,15.2,21.9,2.5,9.3,17.7,27.9-5.9,38,6.8,43.9-2.5,32.9-44.8,32.9-44.8,7.6,44.8,12.7,23.7,11.8,4.2,16-4.3-4.2,38,5.1,14.4,3.3,11.8,8.4-2.5,8.5,22.8,16.1,7.6,17.7,20.2,17.7,2.5,16-4.2,12.6-20.3,5.1.9,6-14.3,32.9,21.1,32.9,0,.8-7.6,2.5-16.1,24.5,4.3,19.4-7.6.9,2.6,0-14.3,12.7-22.8,5.9-22.8-.8-23.6-6.7-17.7-17.7-29.6-25.3-21.1-4.3-16.9-11.9-6-13.5-11.8-18.5,2.6-19.5,14.3-19.5,14.3Z"/><path id="path9621" class="cls-10" d="M1681.8,1631.5s33.8-27.1,16.9-40.6-22-18.6-22-18.6.2-22.7-32-54.9-76.3-2.7-74.6-24.7,5.1-44-5.1-50.7-37.2-5.1-37.2-5.1,12.7,1.7,12.7-22-6-49.1-6-49.1,1.7,28.8-3.3,42.3-28.8,55.9-44.1,22-16.9-30.5,1.7-40.6,37.3-38.9,37.3-38.9-30.5,33-49.1,29.6-16.9,4.2-16.9,11-3.4,13.5-3.4,13.5,6.7,11.9-10.2-3.4-23.7-40.6-23.7-40.6l-16-11.8s11.8,39.7,23.6,49.9S1455,1420,1455,1420l15.2,22s-27.1,3.3-47.4-17-59.2,0-67.7-15.2-18.6-59.2-18.6-59.2-3.4,28.7,3.4,40.6,8.5,27.1,8.5,27.1-25.4,18.6-37.3,1.7-25.4-40.7-25.4-40.7,1.7,29.6,15.2,39.8,6.7,26.4,49.1,9.3c52.5-21.1,79.5,21.2,110,24.6,21.3,2.3,42.4-14.4,54.2.8s5.1,37.2,25.4,49.1,66-5.1,54.2,30.5-32.2,44-45.7,44-27.1,13.5-44,25.3,0-16.9-30.5,3.4-81.2,28.8-81.2,28.8Z"/><path id="path9623" class="cls-11" d="M1669.9,1621.4c27.1-20.3,44-16.9,32.2-35.5s-22.8-8.1-27.9-38.6-1.3-39.7-38.5-43.1-21.6-11.4-33.5-16.5-10.5,11.4-25.4-15.2c-13.4-24.2-22.5-46.1-46.2-42.7s2.2,5.4,14.1,30.8,11.8,35.6,40.6,47.4,64.3,23.7,32.2,54.2-64.3,35.5-69.4,45.7,38.9-27.1,54.1-20.3-10.1,33.8-10.1,33.8,0-25.4,37.2-22,10.2,18.6,10.2,18.6Z"/><path id="path9625" class="cls-12" d="M1386.2,1204.8c-6.8.9-12.7,5.9-4.2,13.5s-12.7-4.2-5.1,5.1-15.2,2.5-8.4,14.3-11.8,0-6.8,10.2-15.2,4.2-10.1,11.8-15.2,11.8-9.3,16.9-22.8,15.2-4.2,16,5,6.8,17.7,7.6,16-11,16-11,2.6,16.9,3.4,4.3,7.6,7.6,8.5,0,7.6,10.9,10.1.8,11.8,14.3,11.8,5.1,12.7,13.5,12.7,5.9,12.6,16,12.6,6.7,6-10.1,6-10.1,7.6-21.1-4.3-15.2-18.5-17.7-20.2-10.1-2.6-17.8-2.6-14.4-5-16-8.4-7.6-11-14.3-11-9.3-1.7-26.1,0-20.2-4.2-20.3-4.2-20.3Z"/><path id="path9627" class="cls-13" d="M1381.1,1187.1c30.4-4.3,52.3-19.4,49.8,1.7s18.6,4.2,16.9,17.7,21.9-4.2,20.2,9.3,19.4,11.8,16.1,21.1,10.1,13.5,5,25.3,19.4,11,11.8,22-5.9,27.8-10.9,34.6,5.9,1.7-1.7,15.2-.9,26.1-4.2,31.2-1.7,5.9,4.2,11.8,11-.8,11,4.2,22.8-14.3,16,1.7,12.7,4.3,10.1,16.1,4.3,14.3,4.3,20.2,46.4-17.7,46.4-5.9,21.9-26.1,29.5-14.3,20.3-16.1,30.4-6.8,15.2-33.8,23.7-24.5-1.7-19.4,12.6-11.8-1.7-20.2,5.9-16.9-10.1-7.6-.8-7.6-10.1-10.1-2.5-17.7-14.4,15.2-6.8-7.6-4.2-8.4-2.5-26.2,1.7-51.5,1.7-51.5-19.5,16.9-19.5-3.3-10.9,11.8-12.6-7.6,26.2,15.2,24.5-12.7-4.3-39.7-4.3-39.7-2.5-21.9-5-12.6-2.6-6.8-5.9,0-9.3-5.1-14.4.8-6.7-6.8-12.6,3.4-18.6-11-27.1-.9-28.7-10.9-28.7-6.7-22.8-14.4-24.5-8.5-25.3-6.7-25.3-6.7-13.5-4.2-17.7,2.5-21.1,0-26.2,6.8-12.6,5-15.2,9.3-7.6-.9-11.8,5.9-3.4,1.7-8.4,9.3-15.2,8.4-15.2,8.4-9.3-3.4-13.5-.8-.9-5.1-7.6,0-15.2,11.8-15.2,11.8Z"/><path id="path9629" class="cls-13" d="M1338.9,1153.3c8.5,6.8,15.2-11.8,18.6-4.2s14.3-10.1,22.8,3.4,32.1,1.7,31.2,13.5,14.4,22.8,2.6,22.8-17.8-24.5-20.3-15.2-7.6-4.2-11,1.7-10.1-11.9-10.1-6.8-8.5-11.8-8.5-5.1-9.2-8.4-9.2-1.6-.9-1.7-3.4,3.3-12.7-11.8-12.7-11.8Z"/><path id="path9631" class="cls-12" d="M1621.7,1269c0,4.2,5.9-3.4,5.9.8a5,5,0,0,0,3.4,5.1l2.5,4.2,12.7-5.1s5.9-2.5,5.9.9-6.7,3.4-6.7,6.7-1.7-.8-1.7,2.6-1.7,2.5-1.7,2.5l-3.4,2.5-.8.9s-1.7,0-1.7,3.4a25.5,25.5,0,0,1-1.7,7.6l-4.2,2.5-1.7-9.3-5.1-1.7h-7.6l-5-5.1,5.9-5.9-.9-11.8Z"/><path id="path9633" class="cls-12" d="M1481.4,1208.8c0,6.8-16.1-21.9-14.4-8.4s-20.2-.9-16,11.8-11,6.8-7.6,14.4-30.4,11.8-17.7,16,4.2,21.9,8.4,15.2-8.4,18.6,1.7,10.1,12.6,14.4,12.6.9,6.8,2.5,6.8-6.8,11.8,6.8,11-.8,10.9,4.2,9.3-4.2,10.9,0,8.4-6.8,11-18.6-1.7-22-.8-4.2-8.4-10.9,7.6-8.5,7.6-8.5Z"/><path id="path9014" class="cls-10" d="M1650.8,1634.4s-27-26.7-13.5-40,17.5-18.4,17.5-18.4-29.6-25-4.1-56.7,90.2,0,88.8-21.7-4-43.4,4.1-50.1,29.6-5,29.6-5-10.1,1.6-10.1-21.7,4.7-48.4,4.7-48.4-1.4,28.4,2.7,41.7,22.8,55.1,34.9,21.7,13.5-30-1.3-40.1-29.6-38.3-29.6-38.3,24.2,32.5,39,29.2,13.5,4.1,13.5,10.8a41.3,41.3,0,0,0,2.7,13.4s-5.4,11.7,8-3.4,18.9-40,18.9-40l12.7-11.7s-9.4,39.2-18.8,49.2l-19.5,20.9-12.1,21.7s21.5,3.3,37.7-16.7,47,0,53.8-15,14.8-58.4,14.8-58.4,2.7,28.3-2.7,40-6.8,26.7-6.8,26.7,20.2,18.4,29.6,1.7,20.2-40.1,20.2-40.1-1.3,29.2-12.1,39.2-5.3,26.1-39,9.3c-41.7-20.9-63.2,20.8-87.4,24.1-16.9,2.4-33.7-14.1-43.1.9s-4,36.7-20.2,48.4-52.4-5-43,30,25.6,43.4,36.3,43.4,21.5,13.4,35,25,0-16.6,24.2,3.4,64.6,28.4,64.6,28.4Z"/><path id="path9020" class="cls-12" d="M1885.7,1213.6c5.3.8,10,5.8,3.3,13.3s10.1-4.2,4.1,5,12,2.5,6.7,14.1,9.4,0,5.3,10,12.1,4.2,8.1,11.7,12.1,11.6,7.4,16.6,18.1,15,3.3,15.9-4,6.6-14.1,7.5-12.7-10.9-12.7-10.9-2,16.7-2.7,4.2-6,7.5-6.7,0-6,10.8-8.1.8-9.4,14.2-9.4,5-10,13.3-10,5.8-10.1,15.9-10.1,6.7-4.7-10-4.7-10-6-20.8,3.4-15,14.7-17.5,16.1-10,2-17.4,2-14.1,4-15.8,6.7-7.5,8.7-14.2,8.7-9.2,1.4-25.8,0-19.9,3.4-20,3.4-20Z"/><path id="path9532" class="cls-13" d="M1879,1158.6c-24.2-4.1-41.6-19.1-39.6,1.7s-14.8,4.2-13.4,17.5-17.5-4.2-16.1,9.1-15.5,11.7-12.8,20.8-8,13.4-4,25-15.4,10.8-9.4,21.7,4.7,27.4,8.7,34.1-4.7,1.7,1.4,15,.6,25.8,3.3,30.8,1.4,5.8-3.3,11.6-8.8-.8-8.8,4.2-18.1-14.1-12.7,1.7-10.1,4.1-8.1,15.8-3.3,14.1-3.3,20-36.9-17.5-36.9-5.9-17.5-25.8-23.5-14.1-16.1-15.8-24.2-6.7-12-33.3-18.7-24.1,1.3-19.2-10.1-11.7,1.3-20-4.7-16.6,8-7.5.7-7.5,8-10,2-17.5,11.4,15,5.3-7.5,3.4-8.3,2.1-25.8-1.4-50.8-1.4-50.8,15.5,16.7,15.5-3.3,8.7,11.6,10-7.5-20.8,15-19.4-12.5,3.3-39.1,3.3-39.1,2-21.7,4-12.5,2.1-6.7,4.7,0,7.4-5,11.4.8,5.4-6.6,10.1,3.4,14.8-10.9,21.5-.9,22.8-10.8,22.8-6.6,18.1-14.2,19.4-8.4,20.2-6.6,20.2-6.6,10.7-4.2,14.1,2.5,16.7,0,20.8,6.6,10,5,12,9.2,6.1-.8,9.4,5.8,2.7,1.7,6.7,9.2a16.7,16.7,0,0,0,12.1,8.3s7.4-3.3,10.8-.8.6-5,6,0,12.1,11.6,12.1,11.6Z"/><path id="path9534" class="cls-13" d="M1923.2,1162.8c-6.7,6.7-12-11.7-14.7-4.2s-11.4-10-18.1,3.4-25.5,1.6-24.9,13.3-11.4,22.5-2,22.5,14.1-24.2,16.1-15,6.1-4.2,8.8,1.6,8-11.6,8-6.6,6.7-11.7,6.7-5,7.4-8.3,7.4-1.7.7-1.6,2.7,3.4,10-11.7,10-11.7Z"/><path id="path9536" class="cls-12" d="M1698.5,1276.8c0,4.2-4.7-3.3-4.7.9s-2.7,5-2.7,5l-2,4.1-10.1-5s-4.7-2.5-4.7.9,5.4,3.3,5.4,6.6,1.3-.8,1.3,2.5,1.4,2.5,1.4,2.5l2.7,2.5.6.9s1.4,0,1.4,3.3a30.9,30.9,0,0,0,1.3,7.5l3.4,2.5,1.3-9.2,4-1.6h6.1l4-5-4.7-5.9.7-11.6Z"/><path id="path9018" class="cls-9" d="M1791.8,1380.8c4.7-10,12.7-14.2,14.1-8.3s12.7-17.5,14.1-6.7,6-4.2,9.3,8.3,8.1-.8,12.8,10,6,.8,16.1,12.5,21.5-15.8,16.8-15.8-2-36.6-4.7-34.2,6-56.6,6-56.6l-3.3-16.6s-4.7-8.3-8.8-.8-9.4-2.5-10.7,2.5,4.7-28.4-.7-25.9-2.7-36.6-6-34.9-10.7-5.8-10.7-5.8-2.1-14.2-6.8-5-10.7-7.5-10.7-7.5-.7-28.3-4.7-21.7-7.4-22.5-12.7-15-21.5-23.3-26.2-17.4-18.8-14.2-18.8-14.2-14.1-15-17.4-10-12.8-12.5-12.8-6.6-10-.9-10,4.1-45-15-45-10-22.8-.8-22.8,6.7-11.4,17.5-11.4,17.5-19.5,5-20.1,10.8-23.5-3.3-22.2,7.5-34.9-17.5-34.2-10-35.6,0-32.2,9.2-6.7,28.3-6.7,28.3l20.8,26.6s-31.6,12.5-23.5,15-7.4,0-3.4,4.1-14.7,4.2-6,9.2-18.8,0-2,4.2,6,14.1,10.7,10.8-6,15.8-3.3,13.3-12.1,6.7-1.4,6.7-.6,4.1-7.4,11.6-77.1,21.7-68.4,23.3-16.1,15.8-2,21.7.7,18.3,11.4,25-14.1,16.6,12.1,29.9,3.3,38.3,28.8,33.3,22.8,25.8,31.6,12.5,21.4,17.5,26.8,10-7.4,30,0,23.3-2.7,27.5,10.1,10.8,8,10,12,5.9-3.3,17.4,7.4.8,9.4,10,15.5,4.1,17.4,17.5,20.1,13.4-2.7,18.3,6.7,10,4.7,22.4,14.8,10.8,4.7,15,17.4,2.5,7.4,17.5,22.1-5.8,30.2,6.6,34.9-2.5,26.2-44.2,26.2-44.2,6,44.2,10.1,23.3,9.4,4.2,12.7-4.1-3.3,37.4,4,14.1,2.7,11.7,6.7-2.5,6.8,22.5,12.8,7.5,14.1,20,14.1,2.5,12.7-4.1,10-20,4.1.9,4.7-14.1,26.2,20.8,26.2,0,.7-7.5,2-15.8,19.5,4.1,15.5-7.5.6,2.5,0-14.2,10-22.4,4.7-22.4-.7-23.4-5.4-17.5-14.1-29.2-20.1-20.8-3.4-16.7-9.4-5.9-10.8-11.6-14.8,2.5-15.4,14.2-15.4,14.2Z"/><path id="path9022" class="cls-12" d="M1736.7,1145.3c0,6.7,12.8-21.6,11.4-8.3s16.1-.8,12.8,11.6,8.7,6.7,6,14.2,24.2,11.6,14.1,15.8-3.3,21.7-6.7,15,6.7,18.3-1.3,10-10.1,14.1-10.1.8-5.4,2.5-5.4-6.6-9.4,6.6-8.7-.9-8.7,4.2-7.4-4.1-8.7,0-6.7-6.7-8.7-18.3,1.4-21.6.6-4.2,6.7-10.9-6.1-8.3-6.1-8.3Z"/><path id="path9016" class="cls-11" d="M1660.2,1624.4c-21.6-20-35-16.7-25.6-35s-2.7-13.4,1.4-43.4-4.1-40.1,25.5-43.4,43.1-5,52.5-10,18.8,15,20.2-15.1-9.5-40,9.4-36.7,25.5,0,16.1,25.1-9.4,35-32.3,46.7-51.1,23.4-25.5,53.4,51.1,35.1,55.1,45.1-30.9-26.7-43-20.1,8,33.4,8,33.4,0-25-29.5-21.7-8.1,18.4-8.1,18.4Z"/></g></g></svg>