<svg id="publicdomainvectors.org" xmlns="http://www.w3.org/2000/svg" viewBox="0 0 660 660"><defs><style>.cls-1{fill:#f0eddd;}.cls-2{fill:#fffef4;}.cls-3{fill:#e1d8b1;}.cls-10,.cls-11,.cls-3,.cls-4,.cls-5,.cls-6,.cls-7,.cls-8{fill-rule:evenodd;}.cls-4{fill:#e6c08f;}.cls-5{fill:#b9b492;}.cls-6{fill:#625b38;}.cls-7{fill:#f7911e;}.cls-8{fill:#ee7d22;}.cls-9{fill:#807a4f;}.cls-10{fill:#67613a;}.cls-11{fill:#fff;opacity:0.17;}</style></defs><title>LANDSCAPE16</title><rect class="cls-1" width="659.9" height="659.93"/><circle class="cls-2" cx="315.7" cy="213" r="168.9" transform="translate(-58.1 285.6) rotate(-45)"/><path class="cls-3" d="M659.9,218.7V427.6a65.2,65.2,0,0,1-26.5,5.6,78.9,78.9,0,0,1-8.4-.5,85.4,85.4,0,0,1-122.5-1.4,85.7,85.7,0,0,1-97.9-14.6A79.8,79.8,0,0,1,291.8,404a75.2,75.2,0,0,1-89.2-9.3,87.8,87.8,0,0,1-96.2-.1A73.2,73.2,0,0,1,0,418.2V184.8a32.1,32.1,0,0,1,20.3,29.8c0,1.3-.1,2.5-.2,3.7a55.7,55.7,0,0,1,44.2,36.4l4.1-.2a36.4,36.4,0,0,1,21.3,6.9,87.9,87.9,0,0,1,64.9-28.5c2.7,0,5.3.1,7.9.3a44.5,44.5,0,0,1,88.3-2.6,41.4,41.4,0,0,1,57.8,37.9,41.9,41.9,0,0,1-3.3,16.2l3.9,4a79,79,0,0,1,45.3-14.1c2.3,0,4.7.1,7,.3a47.6,47.6,0,0,1,90.3-5.1,81.1,81.1,0,0,1,12.1-.9,85.9,85.9,0,0,1,22.8,3.1,44.6,44.6,0,0,1,71-29.8,53.3,53.3,0,0,1,78.4-4.7A61.7,61.7,0,0,1,659.9,218.7Z"/><path class="cls-4" d="M659.9,411.2V523.6a60.9,60.9,0,0,1-24.2,5,61.7,61.7,0,0,1-31.6-8.8,52.6,52.6,0,0,1-77,5.5,68.7,68.7,0,0,1-38,14.7,60.5,60.5,0,0,1-74.9-2.9,73.9,73.9,0,0,1-122.4-40.6,72.5,72.5,0,0,1-30.2,6.6,71.4,71.4,0,0,1-35.3-9.2,75.6,75.6,0,0,1-121.4-4,52,52,0,0,1-15.3,2.3,50,50,0,0,1-24.4-6.3A61.2,61.2,0,0,1,7.3,527.3a58.5,58.5,0,0,1-7.3-.4V405.5a58.4,58.4,0,0,1,7.3-.5,59.8,59.8,0,0,1,14.1,1.7,53.2,53.2,0,0,1-1.4-12A51.4,51.4,0,0,1,122,386a75.8,75.8,0,0,1,85.9-3,71.9,71.9,0,0,1,92.3-12.7c2.2-1.6,4.4-3.1,6.7-4.5a25.2,25.2,0,0,1-8.4-18.9,25.4,25.4,0,1,1,49.5,8.3,75.3,75.3,0,0,1,72.7,75.2c0,1.3-.1,2.7-.1,4s2,2.4,2.9,3.7a69.1,69.1,0,0,1,93.2-28,48,48,0,0,1,86.6,5.5,61.6,61.6,0,0,1,56.6-4.4Z"/><path class="cls-5" d="M482.3,0H460l2.6,4.2,9.7,16.2c5.4,8.9,8,18,7.8,27.2s-3.5,19-9.8,28.6L468.4,79a77.7,77.7,0,0,0-13.1,36.4c-1.1,13.1,1.3,26.7,7.5,40.8a78.5,78.5,0,0,1,7,33.5c-.2,11.3-3.1,23.2-8.9,35.5A120.8,120.8,0,0,0,449.5,271c-.7,16.5,1.8,33.6,7.9,51.4,5.3,15.5,10.7,31.7,16.3,48.3a148,148,0,0,1,8.2,43.7A169.5,169.5,0,0,1,476,462c-6.7,25.8-13.7,52.7-21.1,80.9,5.9,1.6,11.7,3.3,17.6,4.8l17.7,4.6c6.6-28.4,12.8-55.5,18.8-81.6a203.7,203.7,0,0,0,5.4-58.7,183.8,183.8,0,0,0-11.2-52.6c-6-16.1-11.8-31.9-17.4-47.2s-8-28.3-7.7-41.6a97.5,97.5,0,0,1,8.2-37.3c6.6-15.1,9.7-29.7,9.6-44a97.9,97.9,0,0,0-9.5-40.3c-5.4-11.5-7.7-22.6-7.1-33.2a61.3,61.3,0,0,1,9.8-29.7l1.8-2.9C498.4,71.3,502,59.5,502,47.8s-3.5-22.3-10.3-33c-3.1-5-6.3-9.9-9.4-14.8ZM153.9,0h17.9L180,17a84.7,84.7,0,0,1,8.8,35.8,89.4,89.4,0,0,1-8.6,38.9c-.5,1-.9,2.1-1.4,3.1a86.3,86.3,0,0,0-7.8,33.1q-.6,17.8,6.3,37.8a151.6,151.6,0,0,1,8.4,46.7,165.4,165.4,0,0,1-7.5,51.6,157.6,157.6,0,0,0-6.6,44.5,199.5,199.5,0,0,0,7.1,51.3q7.7,28.9,15.9,59.8A340,340,0,0,1,205.5,488a396.8,396.8,0,0,1-3.6,77.6q-6.5,44.9-13.5,94.3H153.7c6.5-38.1,12.5-74.1,18.3-108.2a317.8,317.8,0,0,0,4.6-62.4,286.3,286.3,0,0,0-7.6-56.7c-5.1-21.3-10-41.9-14.7-61.4a244.3,244.3,0,0,1-7-63.2,189.1,189.1,0,0,1,9.4-54.4,132.5,132.5,0,0,0,7.1-41.4,123.7,123.7,0,0,0-6-38.8c-5.2-16.2-7.3-31.6-6.5-46.4a105.5,105.5,0,0,1,10.5-40.3l1.5-3c5-10.5,7.6-21,7.7-31.2a67.8,67.8,0,0,0-6.6-29.6L156.5,5.6,153.9,0Zm165,0h22.3l-2.6,4.2-9.7,16.2c-5.4,8.9-8,18-7.8,27.2s3.5,19,9.8,28.6l1.9,2.8a77.7,77.7,0,0,1,13.1,36.4c1.1,13.1-1.3,26.7-7.5,40.8a78.5,78.5,0,0,0-7,33.5c.2,11.3,3.1,23.2,8.9,35.5A120.8,120.8,0,0,1,351.7,271c.7,16.5-1.8,33.6-7.9,51.4-5.3,15.5-10.7,31.7-16.3,48.3a148,148,0,0,0-8.2,43.7,169.5,169.5,0,0,0,5.9,47.6c6.7,25.8,13.7,52.7,21.1,80.9-5.9,1.6-11.7,3.3-17.6,4.8L311,552.3c-6.6-28.4-12.8-55.5-18.8-81.6a203.7,203.7,0,0,1-5.4-58.7A183.8,183.8,0,0,1,298,359.4c6-16.1,11.8-31.9,17.4-47.2s8-28.3,7.7-41.6a97.5,97.5,0,0,0-8.2-37.3c-6.6-15.1-9.7-29.7-9.6-44a97.9,97.9,0,0,1,9.5-40.3c5.4-11.5,7.7-22.6,7.1-33.2a61.3,61.3,0,0,0-9.8-29.7l-1.8-2.9c-7.5-11.9-11.1-23.7-11.1-35.4s3.5-22.3,10.3-33C312.6,9.8,315.8,4.9,318.9,0Z"/><path class="cls-6" d="M88.7,189.8c-54-22.3-61.2-56.4-47.8-95.7,1.3,48.4,9.7,59.6,59.8,75.3C98.1,172,91.3,187.3,88.7,189.8Z"/><path class="cls-6" d="M110.5,388.7c64.8-7.4,83-41.8,80.7-88.2-16.2,51.6-28.7,61-87.3,62.6C105.9,366.6,108.5,385.1,110.5,388.7Z"/><path class="cls-6" d="M94.9,227.2c64.8-7.4,83-41.9,80.7-88.2-16.2,51.6-28.7,61-87.3,62.5C90.3,205.1,92.9,223.6,94.9,227.2Z"/><path class="cls-6" d="M234.5,133.2c45.7-5.2,58.6-29.5,57-62.2-11.5,36.4-20.3,43-61.7,44.1C231.3,117.6,233.1,130.7,234.5,133.2Z"/><path class="cls-6" d="M229.9,321.9c64.8-7.4,83-41.8,80.7-88.2-16.2,51.6-28.7,61.1-87.3,62.6C225.3,299.8,227.9,318.4,229.9,321.9Z"/><path class="cls-6" d="M412,417.3c64.8-7.4,83-41.9,80.7-88.2-16.2,51.6-28.7,61-87.3,62.5C407.4,395.2,410,413.7,412,417.3Z"/><path class="cls-6" d="M404.6,259.6c-64.7-7.4-83-41.8-80.7-88.2,16.3,51.6,28.8,61.1,87.4,62.6C409.3,237.5,406.6,256.1,404.6,259.6Z"/><path class="cls-6" d="M393.8,134.3c-52.7-6-67.5-34-65.6-71.7,13.1,41.9,23.3,49.6,71,50.8C397.5,116.3,395.4,131.4,393.8,134.3Z"/><path class="cls-6" d="M428.2,89.6c43-4.9,55.1-27.8,53.6-58.6-10.8,34.3-19.1,40.6-58,41.6C425.2,74.9,426.9,87.2,428.2,89.6Z"/><path class="cls-6" d="M548.9,333.1c64.7-7.4,83-41.9,80.7-88.2-16.3,51.6-28.8,61-87.4,62.5C544.2,311,546.9,329.5,548.9,333.1Z"/><path class="cls-6" d="M563.9,204.5c-64.8-7.4-83-41.8-80.7-88.2,16.2,51.6,28.7,61.1,87.3,62.6C568.5,182.4,565.9,201,563.9,204.5Z"/><path class="cls-6" d="M553.6,117.4c45.2-5.1,58-29.2,56.4-61.5-11.4,36-20.1,42.6-61,43.6C550.4,102,552.2,114.9,553.6,117.4Z"/><path class="cls-6" d="M88.1,0h31.3l-5.9,8.4C109,14.8,104.4,21.3,99.8,28c-7.6,10.8-11.3,21.9-11,33s4.9,23.1,13.9,34.7c.8,1.2,1.7,2.3,2.6,3.4,10.7,13.9,16.9,28.7,18.5,44.1s-1.9,32.4-10.7,49.5c-6.8,13.4-10.1,27-9.8,40.6s4.4,28.2,12.6,43.1a128.6,128.6,0,0,1,16,55.6c1.1,20-2.5,40.7-11,62.4-7.5,18.8-15.2,38.4-23.1,58.5a156.3,156.3,0,0,0-11.5,52.9c-.7,18.3,2.1,37.4,8.3,57.9q14,45.9,29.1,96.2H71q-12-44.4-23-85.7c-6.7-24.9-9.2-48.5-7.6-71.2a198.5,198.5,0,0,1,15.8-63.9l24.6-57.2c7.6-17.6,11.2-34.3,10.8-50.4S87.4,301,80,286.3c-9.3-18.4-13.7-36.1-13.5-53.4s4.7-33,13.4-48.9c7.6-14,10.9-27.4,10-40.2S84.4,119.2,76,107.7l-2.5-3.5C63,89.7,57.9,75.4,57.9,61.2s5-27,14.5-39.9L86.5,2.1,88.1,0ZM391.3,0H423l11.4,13.7C444,25.2,449,37.2,449,49.5s-5.2,25.7-16,38.8c-.9,1-1.7,2.2-2.6,3.2-8.7,10.4-13.6,21.5-14.5,33.1s2.3,24.5,10.1,37.7c9,15.2,13.7,30.7,13.9,46.7s-4.6,34-14.5,51.7c-8,14.3-12.3,29.1-12.7,44.5s3.2,33.1,11.3,51.2,17.5,39.3,26.7,59.8a206.9,206.9,0,0,1,17.6,68.5c1.9,24.6-.8,50.4-8.3,77.5q-12.7,46.3-27,97.7H383.4l-10.8-3,34.9-108.5c7.1-22.1,10.3-42.7,9.7-62.5A165.9,165.9,0,0,0,405,429.2c-8.5-21.2-16.6-41.8-24.4-61.3-8.8-22.2-12.3-43.2-10.9-63.3s7.5-37.3,17.8-54.3c8.7-14.3,13.3-28.2,13.7-41.5s-2.9-25.9-9.8-38.7c-8.8-16.2-12.1-31.7-10.3-46.4s8.3-27.7,19.4-40.3l2.7-3.1Q417,64.6,417.6,49.1c.4-9.9-3.3-19.9-10.9-29.5-4.6-6-9.1-11.7-13.6-17.3L391.3,0ZM559.1,0H590c0,14.1-5.1,28.3-15.6,42.7-.9,1.1-1.7,2.3-2.5,3.5-8.5,11.5-13.2,23.6-14,36.1s2.5,26.3,10.1,40.2c8.6,15.9,13.2,32.1,13.4,48.9s-4.3,35.1-13.5,53.4c-7.4,14.7-11.4,29.7-11.7,45.2s3.3,32.8,10.9,50.5,16.1,37.6,24.6,57.2a194.6,194.6,0,0,1,15.7,63.8c1.6,22.8-.8,46.4-7.5,71.3q-12.6,47.3-26.6,98.9l-24.9-5.6c-8.3-1.8-16.6-3.9-24.8-5.8,10.4-34.2,20.2-66.9,29.7-98.1,6.2-20.5,8.9-39.6,8.3-57.8a157.7,157.7,0,0,0-11.5-52.9c-7.9-20.2-15.6-39.8-23.1-58.6-8.5-21.6-12.1-42.4-11-62.4a129,129,0,0,1,16-55.6c8.1-14.9,12.3-29.3,12.6-43.1s-3-27.1-9.9-40.5c-8.7-17.1-12.1-33.7-10.6-49.6s7.8-30.2,18.5-44.1c.9-1.1,1.8-2.2,2.6-3.4,8.9-11.4,13.4-22.9,13.9-34.2ZM238.3,0h30.6a55.5,55.5,0,0,1,2.3,14.5c.2,10-2.2,20.2-7.4,30.9s-10.6,21.8-16,33.1-7.9,22.4-7.3,33.4,4.4,22.4,11.6,33.8c9.4,14.9,14.8,30.5,15.9,47.1s-2.2,34.7-10.3,53.3-10.6,34.7-9,52.2,8.1,36,19.8,54.1l3.6,5.6c15.8,24.5,25.2,51.1,27.8,79.4s-1.9,60.8-14.4,93.7c-6.7,17.7-13.5,35.5-20.6,54s-14.6,38-22.2,57.4l-23.8-8.9c-7.8-3-15.7-6-23.4-9.1,8-19.5,15.8-38.2,23.6-56.7s14.8-35.3,21.9-52.4c11.2-26.6,15.8-52.2,14.4-76.2S247,394.5,234.7,374c-1.2-1.9-2.4-3.8-3.5-5.7-13.7-22.7-21-45.4-22.3-67.7s3.1-42.7,12.8-63.3c7.2-15.3,10.5-29.5,10-43.3s-4.5-26.1-11.9-38.6c-8.3-14.1-12.6-28.1-12.9-42.2s3.1-27.1,10-40.5l16.9-32.6c4.6-8.8,6.9-17.2,7-25.2A45.7,45.7,0,0,0,238.3,0Z"/><path class="cls-7" d="M659.9,506.2V647.1a69.8,69.8,0,0,1-15.4-10.2,71.3,71.3,0,0,1-12.5,23H520.7a71.4,71.4,0,0,1-15.8-44.8,2.5,2.5,0,0,1,.1-.8,72.1,72.1,0,0,1-85.3-4.8,62.4,62.4,0,0,1-114-11A78.9,78.9,0,0,1,264,610.3a80,80,0,0,1-39.5-10.4,62.3,62.3,0,0,1-71.3-4.3A57,57,0,0,1,46.9,606.2a74.1,74.1,0,0,1-35.4,8.9A72.4,72.4,0,0,1,0,614.2V467.1a72.4,72.4,0,0,1,11.5-.9,73.1,73.1,0,0,1,34.3,8.4,64.2,64.2,0,0,1,118.3,16.3,61.8,61.8,0,0,1,27.8-6.5c2.2,0,4.4.1,6.5.3a79.9,79.9,0,0,1,144.9,36.2,63.4,63.4,0,0,1,55.5,6,72,72,0,0,1,120.7-20.7,75.1,75.1,0,0,1,140.4,0ZM104.7,323.1A28.2,28.2,0,1,1,70.2,295c-.1-1.1-.2-2.1-.2-3.2a31.5,31.5,0,0,1,31.5-31.4,31.9,31.9,0,0,1,12.4,2.5,35.7,35.7,0,1,1,8,52.9,31.1,31.1,0,0,1-17.2,7.3Zm5.9-283A48.7,48.7,0,1,1,61.9,88.8a48.7,48.7,0,0,1,48.7-48.7Zm100.3-5.6a31.1,31.1,0,1,1-31.1,31.1,31.1,31.1,0,0,1,31.1-31.1ZM530,23.6A29.4,29.4,0,1,1,500.7,53,29.4,29.4,0,0,1,530,23.6Zm59.1,98.7A27.9,27.9,0,0,1,601.7,175a39.4,39.4,0,0,1-53,55.2,32.7,32.7,0,1,1-23.2-55.8,32.4,32.4,0,0,1,9.4,1.3,39.3,39.3,0,0,1,27.3-18.4,28.3,28.3,0,0,1-1-7.1,27.9,27.9,0,0,1,27.9-27.9ZM573.4,290.6a37.5,37.5,0,0,1,1.9,75,34.8,34.8,0,1,1-39.1-43.1,37.7,37.7,0,0,1,37.2-31.9ZM432,302.2a24.2,24.2,0,1,1-30,23.5,26.6,26.6,0,0,1,1.5-8.5h-.3a35.2,35.2,0,1,1,35.1-35.2,34.8,34.8,0,0,1-6.3,20.1Zm4.2-130.3a26.4,26.4,0,1,1-26.3,26.4,26.4,26.4,0,0,1,26.3-26.4ZM391.4,87.2A35.4,35.4,0,1,1,356,122.6a35.3,35.3,0,0,1,35.4-35.4Zm-122,56.9a37.6,37.6,0,1,1,0,75.1,38.1,38.1,0,0,1-13.1-2.4,27.9,27.9,0,1,1-27.4-32.7H232a21.7,21.7,0,0,1-.1-2.6,37.5,37.5,0,0,1,37.5-37.5Zm18.5,194.3a22.1,22.1,0,0,1,9.2,42.2,28.3,28.3,0,0,1,1.4,8.7,27.3,27.3,0,1,1-32.6-26.7,14.8,14.8,0,0,1-.1-2.1A22.1,22.1,0,0,1,287.9,338.4Z"/><path class="cls-8" d="M659.9,537v88.8a47.1,47.1,0,0,1-7-5.5,42.6,42.6,0,0,1-75.6-9.2,39.7,39.7,0,0,1-7,.6,42.9,42.9,0,0,1-23.2-6.8,45.9,45.9,0,0,1-20.3,4.7,44,44,0,0,1-10.9-1.3,43.6,43.6,0,0,1-68.8,3.4,45,45,0,0,1-31.9,13.2,47.5,47.5,0,0,1-5.4-.3,48.6,48.6,0,0,1-91.8,4.8,54,54,0,0,1-28.4,8,52.1,52.1,0,0,1-19.8-3.8,64.8,64.8,0,0,1-17.5,26.3H166.1a63.4,63.4,0,0,1-18.4-29,55.2,55.2,0,0,1-9.2.8A51,51,0,0,1,107.2,621a46.3,46.3,0,0,1-70.1,2A40.9,40.9,0,0,1,4.5,639.1a34,34,0,0,1-4.5-.3V557a34,34,0,0,1,4.5-.3,41.2,41.2,0,0,1,27.7,10.7,46.2,46.2,0,0,1,63.2-14.8,51.3,51.3,0,0,1,87.1,1.4,64.3,64.3,0,0,1,26.7-5.8,63.4,63.4,0,0,1,32.7,9,54.3,54.3,0,0,1,99.8,10.7,48.1,48.1,0,0,1,21.4-4.9,45.9,45.9,0,0,1,9.8,1,45.2,45.2,0,0,1,77.7-12.3,43.5,43.5,0,0,1,29.6-11.6,45.6,45.6,0,0,1,7.5.6,45.6,45.6,0,0,1,67.1-12.6,44.4,44.4,0,0,1,15.5-2.8,43.2,43.2,0,0,1,41,29.4,40.8,40.8,0,0,1,6.1-.4,41.9,41.9,0,0,1,22.5,6.4A53.2,53.2,0,0,1,659.9,537Z"/><rect class="cls-9" y="592.1" width="659.9" height="67.81"/><path class="cls-10" d="M617.4,603.6a5.6,5.6,0,1,1-5.6,5.6,5.6,5.6,0,0,1,5.6-5.6ZM41,601.5a3.8,3.8,0,0,1,0,7.5,3.8,3.8,0,1,1,0-7.5Zm-26.2-3.6a7.4,7.4,0,1,1,0,14.8,7.4,7.4,0,0,1,0-14.8Zm46.7,1.5a3.4,3.4,0,0,1,0,6.7,3.4,3.4,0,1,1,0-6.7Zm41,.3a4.7,4.7,0,1,1-4.7,4.7,4.7,4.7,0,0,1,4.7-4.7Zm55.8,3.9a5.2,5.2,0,1,1-5.1,5.2,5.1,5.1,0,0,1,5.1-5.2Zm16.8,28.2a4.4,4.4,0,0,1,0,8.8,4.4,4.4,0,1,1,0-8.8Zm8.1-24.4a5.9,5.9,0,1,1-5.8,5.8,5.8,5.8,0,0,1,5.8-5.8Zm-23.4,37.7a5.8,5.8,0,1,1-5.9,5.8,5.8,5.8,0,0,1,5.9-5.8Zm-1.9-17.9a6.3,6.3,0,1,1-6.2,6.3,6.3,6.3,0,0,1,6.2-6.3ZM129,638.4a4,4,0,0,1,3.9,4,4,4,0,0,1-7.9,0,4,4,0,0,1,4-4ZM126.4,616a6,6,0,1,1-5.9,6,5.9,5.9,0,0,1,5.9-6ZM96.7,630.3a8.9,8.9,0,1,1-8.9,8.9,8.9,8.9,0,0,1,8.9-8.9ZM85.4,613.9a4.6,4.6,0,0,1,4.5,4.6,4.5,4.5,0,0,1-4.5,4.5,4.6,4.6,0,0,1-4.6-4.5,4.7,4.7,0,0,1,4.6-4.6ZM64.9,635.6a8.7,8.7,0,1,1-8.7,8.7,8.6,8.6,0,0,1,8.7-8.7Zm-9.3-17.1a4.1,4.1,0,1,1-4.1,4.1,4,4,0,0,1,4.1-4.1Zm-17.1,13a6.1,6.1,0,1,1-6.1,6,6,6,0,0,1,6.1-6ZM27.1,614.3a4.2,4.2,0,0,1,0,8.4,4.2,4.2,0,1,1,0-8.4Zm-10,9.3a4.4,4.4,0,1,1-4.4,4.4,4.4,4.4,0,0,1,4.4-4.4ZM8.3,639.1a3.7,3.7,0,0,1,3.8,3.7,3.8,3.8,0,1,1-7.6,0,3.7,3.7,0,0,1,3.8-3.7Zm193.2-6a9.3,9.3,0,1,1-9.3,9.3,9.3,9.3,0,0,1,9.3-9.3Zm39.6-24.3a4.7,4.7,0,1,1-4.7,4.7,4.7,4.7,0,0,1,4.7-4.7Zm-1.7,30.4a5.7,5.7,0,0,1,5.7,5.7,5.7,5.7,0,1,1-11.4,0,5.7,5.7,0,0,1,5.7-5.7Zm-26.7-35a8.9,8.9,0,1,1-8.8,8.8,8.8,8.8,0,0,1,8.8-8.8Zm89-5.4a3.2,3.2,0,1,1-3.2,3.2,3.1,3.1,0,0,1,3.2-3.2Zm-3.4,45.7a4.1,4.1,0,0,1,4.1,4.1,4.1,4.1,0,1,1-8.1,0,4,4,0,0,1,4-4.1Zm-30.8,1.2a3.4,3.4,0,0,1,3.4,3.4,3.4,3.4,0,1,1-6.8,0,3.4,3.4,0,0,1,3.4-3.4Zm20-20.3a6,6,0,1,1-6,6,6,6,0,0,1,6-6Zm-4.7-20.6a2.9,2.9,0,1,1,0,5.7,2.9,2.9,0,0,1,0-5.7Zm-23,16.3a8.8,8.8,0,0,1,0,17.5,8.8,8.8,0,1,1,0-17.5Zm-1.5-19.9a3.4,3.4,0,1,1-3.4,3.4,3.4,3.4,0,0,1,3.4-3.4Zm62.4,36.6a4.4,4.4,0,0,1,4.4,4.4,4.3,4.3,0,0,1-4.4,4.4,4.4,4.4,0,0,1-4.4-4.4,4.4,4.4,0,0,1,4.4-4.4Zm6.5-36.6a6.7,6.7,0,1,1-6.6,6.7,6.7,6.7,0,0,1,6.6-6.7Zm-19.5,16.4a4.1,4.1,0,1,1,0,8.1,4.1,4.1,0,1,1,0-8.1Zm93,27.5a3.8,3.8,0,1,1-3.8,3.8,3.8,3.8,0,0,1,3.8-3.8Zm-30.9-26.3a4.7,4.7,0,1,1-4.7,4.7,4.7,4.7,0,0,1,4.7-4.7Zm-19.4,15.4a7.4,7.4,0,1,1-7.4,7.4,7.4,7.4,0,0,1,7.4-7.4Zm3.5-33.3a6.1,6.1,0,1,1-6.1,6.1,6,6,0,0,1,6.1-6.1Zm51.6-2.1a4.7,4.7,0,1,1-4.7,4.7,4.7,4.7,0,0,1,4.7-4.7Zm42.7,11.5a6.9,6.9,0,1,1-6.8,6.8,6.8,6.8,0,0,1,6.8-6.8Zm-58,16.6a5.8,5.8,0,0,1,5.8,5.8,5.7,5.7,0,0,1-5.8,5.7,5.6,5.6,0,0,1-5.7-5.7,5.7,5.7,0,0,1,5.7-5.8Zm-4.1-20.2a2.8,2.8,0,0,1,2.9,2.8,2.9,2.9,0,0,1-2.9,2.9,2.8,2.8,0,0,1-2.8-2.9,2.7,2.7,0,0,1,2.8-2.8Zm39.8,29.6a7,7,0,1,1-6.9,7,7,7,0,0,1,6.9-7Zm-1.7-26.8a4.5,4.5,0,1,1-4.5,4.5,4.5,4.5,0,0,1,4.5-4.5Zm215,6.5a3.2,3.2,0,0,1,3.2,3.2,3.2,3.2,0,1,1-6.4,0,3.2,3.2,0,0,1,3.2-3.2Zm-46.9,27.9a4.1,4.1,0,0,1,4.1,4.1,4.2,4.2,0,0,1-4.1,4.1,4.1,4.1,0,0,1-4.1-4.1,4.1,4.1,0,0,1,4.1-4.1Zm-10.5-40.3a3.4,3.4,0,1,1,0,6.7,3.4,3.4,0,0,1,0-6.7Zm-36.9,37.9a3.9,3.9,0,1,1-3.9,3.9,3.8,3.8,0,0,1,3.9-3.9Zm-46.8,0a4.3,4.3,0,0,1,4.4,4.4,4.4,4.4,0,0,1-4.4,4.4,4.4,4.4,0,0,1-4.4-4.4,4.4,4.4,0,0,1,4.4-4.4Zm-42-3.7a4.1,4.1,0,0,1,4,4.1,4.1,4.1,0,1,1-8.1,0,4.1,4.1,0,0,1,4.1-4.1Zm50.1-34.2a4.3,4.3,0,1,1-4.3,4.3,4.2,4.2,0,0,1,4.3-4.3Zm-26.7,5.8a10,10,0,1,1-10,10,10,10,0,0,1,10-10Zm40.4,27.8a3.8,3.8,0,1,1-3.8,3.8,3.8,3.8,0,0,1,3.8-3.8Zm53.9-10.9a5,5,0,0,1,5,5,5,5,0,0,1-5,5,5,5,0,0,1-5-5,5.1,5.1,0,0,1,5-5Zm-27.5-22.7a8.7,8.7,0,1,1-8.7,8.7,8.7,8.7,0,0,1,8.7-8.7Zm87.1,33.8a3.2,3.2,0,1,1-3.2,3.2,3.2,3.2,0,0,1,3.2-3.2Zm-22.7-12.3a5.6,5.6,0,0,1,0,11.2,5.6,5.6,0,0,1,0-11.2Z"/><path class="cls-7" d="M197.9,433.6a35.3,35.3,0,0,1,0,55.8,35.4,35.4,0,0,1,0-55.8Z"/><path class="cls-7" d="M93.2,415.3a35.3,35.3,0,0,1,25.2,49.6,35.1,35.1,0,0,1-25.2-49.6Z"/><path class="cls-7" d="M153.5,399.8a46.8,46.8,0,0,1-35.1,65.1,46.8,46.8,0,0,1,35.1-65.1Z"/><path class="cls-7" d="M434.4,458.6a22.9,22.9,0,0,1,16.4,32.3,23,23,0,0,1-16.4-32.3Z"/><path class="cls-7" d="M473.7,448.5a30.6,30.6,0,0,1-22.9,42.4,30.6,30.6,0,0,1,22.9-42.4Z"/><path class="cls-7" d="M587.7,433.8A23,23,0,0,1,604.2,466a22.8,22.8,0,0,1-16.5-32.2Z"/><path class="cls-7" d="M627,423.7A30.3,30.3,0,0,1,604.2,466,30.4,30.4,0,0,1,627,423.7Z"/><path class="cls-7" d="M365,487.6a35.2,35.2,0,0,1-36.5,42.2,35.1,35.1,0,0,1,7.9-30A35.5,35.5,0,0,1,365,487.6Z"/><path class="cls-7" d="M518.6,442.6a35.3,35.3,0,0,0,36.5,42.2,35.2,35.2,0,0,0-36.5-42.2Z"/><path class="cls-7" d="M504.8,307.1a22.9,22.9,0,0,1,27.6,23.5,22.9,22.9,0,0,1-27.6-23.5Z"/><path class="cls-7" d="M537.3,282.7a30.4,30.4,0,0,1-4.9,47.9,30.4,30.4,0,0,1,4.9-47.9Z"/><path class="cls-7" d="M442,254a22.7,22.7,0,0,1-2.7,20,23,23,0,0,1-17.4,10.2,22.7,22.7,0,0,1,2.7-20A23,23,0,0,1,442,254Z"/><path class="cls-7" d="M470,283.4a30.4,30.4,0,0,1-23.9,12.2,30.7,30.7,0,0,1-24.2-11.4,30.4,30.4,0,0,1,48.1-.8Z"/><path class="cls-7" d="M284.7,128.1a22.9,22.9,0,0,1-20.1,30.1,22.9,22.9,0,0,1,20.1-30.1Z"/><path class="cls-7" d="M312.8,157.4a30.5,30.5,0,0,1-48.2.8,30.5,30.5,0,0,1,48.2-.8Z"/><path class="cls-7" d="M50.5,88.3a22.9,22.9,0,0,0,20.1,30.1A22.9,22.9,0,0,0,50.5,88.3Z"/><path class="cls-7" d="M22.5,117.7a30.5,30.5,0,0,0,48.1.7,30.4,30.4,0,0,0-23.9-12.1A30,30,0,0,0,22.5,117.7Z"/><path class="cls-7" d="M388.8,65.3a22.8,22.8,0,0,0-3.1,36,22.8,22.8,0,0,0,3.1-36Z"/><path class="cls-7" d="M348.6,70.6a30.4,30.4,0,0,0,37.1,30.7,30.6,30.6,0,0,0-11-24.4A30.9,30.9,0,0,0,348.6,70.6Z"/><path class="cls-7" d="M124.1,228.1a23.3,23.3,0,0,1,10.4,17.3,23,23,0,0,1-7.3,18.8,22.8,22.8,0,0,1-10.4-17.3A23.2,23.2,0,0,1,124.1,228.1Z"/><path class="cls-7" d="M164.3,233.5a30.5,30.5,0,0,1-37.1,30.7,30.5,30.5,0,0,1,37.1-30.7Z"/><path class="cls-7" d="M566.3,26.8a22.8,22.8,0,0,1-20.1,30.1,22.9,22.9,0,0,1,20.1-30.1Z"/><path class="cls-7" d="M594.4,56.2a30.6,30.6,0,0,1-48.2.7,30.6,30.6,0,0,1,48.2-.7Z"/><path class="cls-11" d="M529.9,0h130V86.1L0,423.5V270.9L529.9,0Zm130,124.8L0,462.2v70.3L659.9,195.1V124.8Zm0,130.8L0,593v66.9H124.9l535-273.5Z"/></svg>