<svg id="publicdomainvectors.org" xmlns="http://www.w3.org/2000/svg" viewBox="0 0 660 660"><defs><style>.cls-1{fill:#c2def4;}.cls-2{fill:#a7bf39;}.cls-10,.cls-11,.cls-13,.cls-14,.cls-15,.cls-16,.cls-17,.cls-2,.cls-3,.cls-4,.cls-5,.cls-6,.cls-7,.cls-8,.cls-9{fill-rule:evenodd;}.cls-3{fill:#d8eaf8;}.cls-4{fill:#1d9747;}.cls-5{fill:#4d3318;}.cls-6{fill:#ee7d22;}.cls-7{fill:#f7911e;}.cls-8{fill:#fff48d;}.cls-9{fill:#fff;}.cls-10{fill:#94ac3c;}.cls-11,.cls-12{fill:#13793d;}.cls-13{fill:#febb12;}.cls-14{fill:#ffd526;}.cls-15{fill:#fee346;}.cls-16{fill:#bad532;}.cls-17{fill:#a8c338;}</style></defs><title>LANDSCAPE18</title><rect class="cls-1" width="661" height="661"/><path class="cls-2" d="M0,456V389.5c11.3-13.9,27.3-16,39.3,4,21.7-54.3,82.9-38.7,86.3,24.9,1.4,25.8-20.9,46.8-46.8,46.8a46.3,46.3,0,0,1-29.9-10.9,36.7,36.7,0,0,1-25.2,9.9A38.9,38.9,0,0,1,0,456Zm355.4,11c1.5,18.9-15.4,34.3-34.3,34.3A34.2,34.2,0,0,1,286.9,467a27.1,27.1,0,0,1,.1-2.9,43.7,43.7,0,0,1-30.6,12.4A43.2,43.2,0,0,1,228,466a37.2,37.2,0,0,1-29.5,14.5c-20.4,0-39.8-16.7-37-37,6.2-46,42.7-74.8,56.5-31.6,19.9-61.5,86.1-40.1,81.5,28.6C318.7,407.5,351.1,414.8,355.4,467Z"/><path class="cls-3" d="M152.1,0H332.2L0,188.1V108.3L152.1,0ZM583.3,0,0,256.7v29.7L661,31.3V0ZM661,135,0,333.3v38.4L661,219.9Z"/><path class="cls-4" d="M112.2,494.3c15.8,0,28.7-56.2,28.7-125.2S128,243.9,112.2,243.9,83.5,300.1,83.5,369.1,96.4,494.3,112.2,494.3Z"/><path class="cls-4" d="M161.8,510c19.2,0,34.9-67.3,34.9-149.7S181,210.5,161.8,210.5s-35,67.3-35,149.8S142.5,510,161.8,510Z"/><path class="cls-5" d="M64.9,387.5l2.9,5.5a98.9,98.9,0,0,1,11.8,43.9l8.9-1.1.4-4a158.2,158.2,0,0,1,13.5-50.5l-1.4-.6-3.1,4.6c-6.2,9.3-9.8,17.5-14.8,27.6-4.8-12-7-19.2-16.9-27Z"/><path class="cls-6" d="M42.5,375.9C18,394.9-.6,363.2,30.9,354.7c-9.1-24.3,8.5-36.3,28.5-20.9-6-41.6,43.4-29.6,36.3,10.6,8.9-21.9,30.5-15.5,25.2,5.3,23.6-20.8,35,23.4,4.4,16.4,12.1,18.6,5.5,34.9-20.1,17.3,10,28.2-27,26-27.9,1.7C73.6,415.4,34.9,406.9,42.5,375.9Z"/><path class="cls-7" d="M58.9,366.9c-13.4,10.5-23.7-7-6.4-11.7-5-13.4,4.7-19.9,15.7-11.5-3.3-22.9,23.9-16.3,20,5.8,4.9-12,16.8-8.5,13.9,3,13-11.5,19.2,12.9,2.4,9,6.7,10.2,3,19.2-11.1,9.6,5.5,15.5-14.8,14.3-15.3.9C76.1,388.7,54.7,384,58.9,366.9Z"/><path class="cls-8" d="M0,425.2V661H661V620.5c-117.6-97.4-326.7-172.4-565.2-191C63.3,427,31.3,425.6,0,425.2Z"/><path class="cls-9" d="M466.8,170.5l-29.2,15.3,102.9-29.6,102.9-29.7-28.8,1.4c-3.7-25.1-24.8-37.9-28.8-10.8-10.2-53.3-53.4-42.2-51.2,13.9-5.2-18.5-17.4-15.1-28.1,7.3C502.7,97.8,471,124,466.8,170.5Z"/><path class="cls-10" d="M366.8,421.4c.4-124.2,108.3-119.8,110,1.8.4,30.3-24.6,55-55,55a54.7,54.7,0,0,1-27.5-7.4A36.6,36.6,0,0,1,360,494.3c-20.3,0-39.5-16.6-36.8-36.7,7.1-52.4,31.7-84.2,43.6-36.2ZM661,343V457.7a48.6,48.6,0,0,1-60.4-27.8A50.2,50.2,0,0,1,551.1,472c-27.7,0-51.2-22.5-50.2-50.1,3-87.3,80.7-110.8,96.8-18.5C603.5,350.2,635.4,331.5,661,343Z"/><path class="cls-11" d="M455.7,515.7c14.3,0,25.9-72.2,25.9-160.6S470,194.4,455.7,194.4s-25.8,72.2-25.8,160.7S441.5,515.7,455.7,515.7Z"/><ellipse class="cls-12" cx="500.9" cy="328.6" rx="33" ry="181.3"/><path class="cls-11" d="M600.6,494.3c15.8,0,28.7-67.3,28.7-149.9s-12.9-150-28.7-150-28.7,67.4-28.7,150S584.8,494.3,600.6,494.3Z"/><path class="cls-5" d="M502.8,366.6l4.6,8.4a151.6,151.6,0,0,1,17.9,67.1l13.7-1.6.6-6.2a240.1,240.1,0,0,1,20.6-77.1l-2.2-1-4.7,7c-9.5,14.3-15,26.8-22.6,42.3-7.3-18.4-10.7-29.3-25.8-41.2Z"/><path class="cls-13" d="M468.7,348.9c-37.4,29.1-66-19.4-17.9-32.5-13.8-37.1,13-55.4,43.7-31.8-9.1-63.7,66.3-45.4,55.5,16.1,13.6-33.5,46.5-23.6,38.4,8.2,36.1-31.9,53.5,35.7,6.8,25,18.5,28.4,8.4,53.4-30.8,26.5,15.3,43.1-41.2,39.7-42.6,2.5C516.2,409.3,457,396.3,468.7,348.9Z"/><path class="cls-14" d="M493.8,335.2c-20.6,16-36.3-10.7-9.9-17.9-7.6-20.5,7.2-30.5,24.1-17.6-5.1-35,36.5-24.9,30.5,8.9,7.5-18.4,25.6-13,21.2,4.5,19.8-17.5,29.4,19.7,3.7,13.8,10.2,15.6,4.6,29.4-16.9,14.6,8.4,23.7-22.7,21.9-23.5,1.4C519.9,368.4,487.3,361.3,493.8,335.2Z"/><path class="cls-15" d="M661,425.2V661H0V620.5c117.6-97.4,326.7-172.4,565.2-191C597.7,427,629.7,425.6,661,425.2Z"/><path class="cls-8" d="M404.3,451.2c44.4-8.6,90.5-15.3,137.9-19.7A358.4,358.4,0,0,0,398.4,602.7l-120.5,6.1,17.8-31.4A431.9,431.9,0,0,1,404.3,451.2Z"/><path class="cls-16" d="M661,493.9V661H0V632.3c117.6-69,326.7-122.2,565.2-135.4C597.7,495.1,629.7,494.1,661,493.9Z"/><path class="cls-17" d="M661,524.6V661H0V637.6c117.6-56.4,326.7-99.8,565.2-110.5C597.7,525.6,629.7,524.8,661,524.6Z"/><path class="cls-9" d="M186.3,185.8,499.8,69.4l-32.7,4.2c-16.4-58.1-66.7-30.6-68.4,17-13.1-76.7-75.4-47.9-100.3,37.3-4.1-65.5-50.1-37.8-78.1,34.9Z"/><path class="cls-9" d="M198.7,106.4l22.5-5.7L142,143.3,62.7,185.8l22.2-18.2c2.8-25.9,19.1-52.3,22.2-29.7,7.8-56.6,41.1-75.7,39.4-22,4-20.8,13.4-26,21.6-12.4C171,63.2,195.4,66,198.7,106.4Z"/><path class="cls-10" d="M558.8,615.5c9.3,0,16.9,2.2,16.9,5s-7.6,4.9-16.9,4.9-16.9-2.2-16.9-4.9,7.6-5,16.9-5ZM556,572.9c6,0,10.8,1.4,10.8,3.2s-4.8,3.1-10.8,3.1-10.8-1.4-10.8-3.1,4.8-3.2,10.8-3.2Zm37.5-13c6,0,10.8,1.4,10.8,3.1s-4.8,3.2-10.8,3.2-10.8-1.4-10.8-3.2,4.8-3.1,10.8-3.1ZM561.8,589c3.1,0,5.7.9,5.7,1.9s-2.6,1.8-5.7,1.8-5.8-.8-5.8-1.8,2.6-1.9,5.8-1.9ZM529,585.4c2.2,0,4.1.8,4.1,1.8s-1.9,1.8-4.1,1.8-4.1-.8-4.1-1.8,1.8-1.8,4.1-1.8Zm-32.1-6.2c6,0,10.9,1.4,10.9,3.2s-4.9,3.1-10.9,3.1-10.8-1.4-10.8-3.1,4.9-3.2,10.8-3.2Zm91.2,2.5c3.9,0,7,.8,7,1.8s-3.1,1.9-7,1.9-7.1-.8-7.1-1.9,3.2-1.8,7.1-1.8ZM419.5,623.8c-9.3,0-16.9-2.3-16.9-5s7.6-4.9,16.9-4.9,16.9,2.2,16.9,4.9-7.5,5-16.9,5ZM361,644.1c-9.3,0-16.9-2.2-16.9-5s7.6-4.9,16.9-4.9,16.9,2.2,16.9,4.9-7.5,5-16.9,5Zm49.6-45.6c-5,0-9-1.3-9-2.8s4-2.9,9-2.9,8.9,1.3,8.9,2.9-4,2.8-8.9,2.8Zm51.2,5.7c-3.5,0-6.4-1.2-6.4-2.8s2.9-2.9,6.4-2.9,6.4,1.3,6.4,2.9-2.9,2.8-6.4,2.8Zm50.1,9.7c-9.4,0-16.9-2.2-16.9-5s7.5-4.9,16.9-4.9,16.9,2.2,16.9,4.9-7.6,5-16.9,5ZM369.5,610c-6.1,0-11.1-1.3-11.1-2.9s5-2.9,11.1-2.9,11,1.3,11,2.9-4.9,2.9-11,2.9Zm247.8-14.8c9.3,0,16.9,2.2,16.9,5s-7.6,4.9-16.9,4.9-16.9-2.2-16.9-4.9,7.6-5,16.9-5Zm-49.5,45.6c4.9,0,8.9,1.2,8.9,2.8s-4,2.9-8.9,2.9-9-1.3-9-2.9,4-2.8,9-2.8ZM516.5,635c3.5,0,6.4,1.3,6.4,2.9s-2.9,2.9-6.4,2.9-6.4-1.3-6.4-2.9,2.9-2.9,6.4-2.9Zm-50.1-9.6c9.4,0,17,2.2,17,5s-7.6,4.9-17,4.9-16.9-2.2-16.9-4.9,7.6-5,16.9-5Zm142.5,3.9c6.1,0,11,1.3,11,2.9s-4.9,2.8-11,2.8-11.1-1.2-11.1-2.8S602.8,629.3,608.9,629.3Z"/><path class="cls-10" d="M129.4,616.2c-9.3,0-16.9-2.2-16.9-4.9s7.6-5,16.9-5,16.9,2.3,16.9,5-7.5,4.9-16.9,4.9ZM490.1,563c-6,0-10.8-1.4-10.8-3.1s4.8-3.2,10.8-3.2,10.8,1.4,10.8,3.2S496,563,490.1,563Zm-45.2,17.6c-5.9,0-10.8-1.4-10.8-3.2s4.9-3.1,10.8-3.1,10.8,1.4,10.8,3.1-4.8,3.2-10.8,3.2ZM126.5,642.7c-3.2,0-5.8-.8-5.8-1.8s2.6-1.8,5.8-1.8,5.7.8,5.7,1.8-2.6,1.8-5.7,1.8Zm32.8,3.7c-2.3,0-4.1-.8-4.1-1.8s1.8-1.9,4.1-1.9,4,.8,4,1.9-1.8,1.8-4,1.8Zm32,6.1c-6,0-10.8-1.4-10.8-3.1s4.8-3.2,10.8-3.2,10.8,1.4,10.8,3.2-4.8,3.1-10.8,3.1ZM35.7,653.6c-3.9,0-7.1-.8-7.1-1.9s3.2-1.8,7.1-1.8,7.1.8,7.1,1.8-3.2,1.9-7.1,1.9Zm233-45.6c9.3,0,16.9,2.2,16.9,4.9s-7.6,5-16.9,5-16.9-2.2-16.9-5,7.6-4.9,16.9-4.9Zm58.5-20.3c9.3,0,16.9,2.2,16.9,4.9s-7.6,5-16.9,5-16.9-2.2-16.9-5,7.6-4.9,16.9-4.9Zm-49.5,45.5c4.9,0,8.9,1.3,8.9,2.9s-4,2.9-8.9,2.9-9-1.3-9-2.9,4-2.9,9-2.9Zm-51.3-5.7c3.5,0,6.4,1.3,6.4,2.9s-2.9,2.8-6.4,2.8-6.4-1.3-6.4-2.8,2.9-2.9,6.4-2.9Zm-50.1-9.6c9.4,0,17,2.2,17,4.9s-7.6,5-17,5-16.9-2.2-16.9-5,7.6-4.9,16.9-4.9Zm142.5,3.9c6.1,0,11,1.3,11,2.8s-4.9,2.9-11,2.9-11.1-1.3-11.1-2.9,5-2.8,11.1-2.8ZM70.9,636.5c-9.3,0-16.9-2.2-16.9-4.9s7.6-4.9,16.9-4.9,16.9,2.2,16.9,4.9-7.5,4.9-16.9,4.9Zm360.4-73.8c-4.9,0-9-1.2-9-2.8s4.1-2.9,9-2.9,9,1.3,9,2.9-4,2.8-9,2.8Zm-259.6,34c-3.5,0-6.4-1.3-6.4-2.8s2.9-2.9,6.4-2.9,6.4,1.3,6.4,2.9-2.9,2.8-6.4,2.8Zm50.1,9.6c-9.4,0-16.9-2.2-16.9-4.9s7.5-4.9,16.9-4.9,16.9,2.2,16.9,4.9-7.6,4.9-16.9,4.9Zm153.4-26c-6.1,0-11-1.3-11-2.9s4.9-2.8,11-2.8,11.1,1.2,11.1,2.8S381.3,580.3,375.2,580.3Z"/></svg>