<svg id="publicdomainvectors.org" xmlns="http://www.w3.org/2000/svg" viewBox="0 0 660 660"><defs><style>.cls-1{fill:#ebf5b3;}.cls-2{fill:#cfe35d;}.cls-3,.cls-4{fill:#bad526;}.cls-3,.cls-5,.cls-6,.cls-7{fill-rule:evenodd;}.cls-5{fill:#a7bf1c;}.cls-6{fill:#819416;}.cls-7,.cls-8{fill:#5f6e0a;}</style></defs><title>LANDSCAPE9</title><rect class="cls-1" y="1.4" width="658.6" height="658.61"/><rect class="cls-2" y="363.6" width="658.6" height="296.43"/><path class="cls-3" d="M341,200.4a45,45,0,0,1,31.5-6.6,46.2,46.2,0,0,1,28.2,15.6,45.9,45.9,0,0,1-59.7-9Z"/><path class="cls-3" d="M316.7,203.6a46.1,46.1,0,0,1,0,60.5,46.5,46.5,0,0,1,0-60.5Z"/><path class="cls-3" d="M358.7,196.2a46.2,46.2,0,0,1,48.5,36,45.9,45.9,0,0,1-48.5-36Z"/><path class="cls-3" d="M309.1,215.6a46.1,46.1,0,0,1,25.5-19.7,45.6,45.6,0,0,1,32.2,1.9,45.6,45.6,0,0,1-25.5,19.6A46.1,46.1,0,0,1,309.1,215.6Z"/><path class="cls-3" d="M455,201.4a45.4,45.4,0,0,1,31,8.9,46.2,46.2,0,0,1,17.5,27.1,46.2,46.2,0,0,1-48.5-36Z"/><path class="cls-3" d="M520.7,206.9a46.2,46.2,0,0,1-59.8-9.1,46.2,46.2,0,0,1,59.8,9.1Z"/><path class="cls-3" d="M478.3,195.6a45.6,45.6,0,0,1-26.7,18.1,45,45,0,0,1-32-3.8,46.1,46.1,0,0,1,58.7-14.3Z"/><path class="cls-3" d="M291.7,234.4a46.1,46.1,0,0,1-39.6-45.6,46.1,46.1,0,0,1,39.6,45.6Z"/><path class="cls-3" d="M434.2,253.1a46,46,0,0,1,0-60.4,46.3,46.3,0,0,1,0,60.4Z"/><path class="cls-3" d="M441.8,241.2a46.1,46.1,0,0,1-25.5,19.7,45.6,45.6,0,0,1-32.2-1.9,46,46,0,0,1,57.7-17.8Z"/><path class="cls-3" d="M457.7,262.8a45.6,45.6,0,0,0,30.9-8.9,46.2,46.2,0,0,0,17.6-27.1,46.2,46.2,0,0,0-48.5,36Z"/><path class="cls-3" d="M444.9,272.4a46.2,46.2,0,0,1-60.4-2.5,46.2,46.2,0,0,1,60.4,2.5Z"/><path class="cls-3" d="M470.1,236.4a46.2,46.2,0,0,1,37,47.8,46.2,46.2,0,0,1-37-47.8Z"/><path class="cls-3" d="M478.3,260.4a46,46,0,0,1,23.6-55.6,46,46,0,0,1-23.6,55.6Z"/><path class="cls-3" d="M436.5,285.9a45.9,45.9,0,0,1-5.3-60.1,45.9,45.9,0,0,1,5.3,60.1Z"/><path class="cls-3" d="M401.5,243.8a46,46,0,0,1,0,60.4,46.3,46.3,0,0,1,0-60.4Z"/><ellipse class="cls-4" cx="506.2" cy="293.4" rx="11.3" ry="30.2"/><path class="cls-3" d="M473.1,213.2a46.2,46.2,0,0,1,37,47.8,46.2,46.2,0,0,1-37-47.8Z"/><path class="cls-3" d="M481.2,294a46.1,46.1,0,0,1-39.6-45.6A46.1,46.1,0,0,1,481.2,294Z"/><path class="cls-3" d="M322.3,282.2a46.3,46.3,0,0,1,7.5-60,46.3,46.3,0,0,1-7.5,60Z"/><path class="cls-3" d="M409.2,220.1a46.1,46.1,0,0,1-57.8,17.8,46.1,46.1,0,0,1,57.8-17.8Z"/><path class="cls-3" d="M332,247.2a45.6,45.6,0,0,1-26.7,18.1,45,45,0,0,1-32-3.8A46.1,46.1,0,0,1,332,247.2Z"/><path class="cls-3" d="M372.8,203.2a45.8,45.8,0,0,1-10.1,30.7,46.3,46.3,0,0,1-27.6,16.6,46.1,46.1,0,0,1,37.7-47.3Z"/><path class="cls-3" d="M412.3,251.3a45.8,45.8,0,0,1-30.7,10,46.4,46.4,0,0,1-29.7-12.5,46.2,46.2,0,0,1,60.4,2.5Z"/><path class="cls-3" d="M335.8,222.1a45.7,45.7,0,0,0-16-28,46.7,46.7,0,0,0-30.5-10.6,46.2,46.2,0,0,0,46.5,38.6Z"/><path class="cls-3" d="M403.9,264.8a46.1,46.1,0,0,1-5.3-60.2,46.1,46.1,0,0,1,5.3,60.2Z"/><path class="cls-3" d="M293.8,206.3a46.1,46.1,0,0,1,59.7,9.1,46,46,0,0,1-59.7-9.1Z"/><path class="cls-3" d="M368.9,222.7a46,46,0,0,1,0,60.4,46,46,0,0,1,0-60.4Z"/><path class="cls-3" d="M336.1,217.6a46.1,46.1,0,0,1,58.7-14.3,46.1,46.1,0,0,1-58.7,14.3Z"/><path class="cls-3" d="M295.3,261.6A46.3,46.3,0,0,1,333,214.3a46.1,46.1,0,0,1-37.7,47.3Z"/><path class="cls-3" d="M365.5,236.6a46.5,46.5,0,0,0-31,8.9A46,46,0,0,0,317,272.6a46.3,46.3,0,0,0,48.5-36Z"/><path class="cls-3" d="M448.6,272.8a46.1,46.1,0,0,1-39.7-45.6,46.1,46.1,0,0,1,39.7,45.6Z"/><path class="cls-3" d="M316.6,289.1a46.2,46.2,0,0,1-48.5-36,45.9,45.9,0,0,1,48.5,36Z"/><path class="cls-3" d="M256.8,298.5a46,46,0,0,0,7.3-60,46.3,46.3,0,0,0-7.3,60Z"/><path class="cls-3" d="M255.1,281.9a46.1,46.1,0,0,1,31.5-6.6A45.3,45.3,0,0,1,314.8,291a46.2,46.2,0,0,1-31.6,6.6A45.4,45.4,0,0,1,255.1,281.9Z"/><path class="cls-3" d="M278.5,248.2a46.2,46.2,0,0,1,7.6-60,46.7,46.7,0,0,1,7.4,31.4A45.8,45.8,0,0,1,278.5,248.2Z"/><path class="cls-3" d="M211.6,212.8a46.1,46.1,0,0,1-48.4-36.1,46.1,46.1,0,0,1,48.4,36.1Z"/><path class="cls-3" d="M151.9,222.1a46.1,46.1,0,0,0,7.2-60,46.3,46.3,0,0,0-14.8,28.7A45.8,45.8,0,0,0,151.9,222.1Z"/><path class="cls-3" d="M288.2,213.2a46,46,0,0,1-58.7,14.4,46,46,0,0,1,58.7-14.4Z"/><path class="cls-3" d="M292.1,188.1a46.2,46.2,0,0,0-46.5-38.6,45.7,45.7,0,0,0,16,28A46.2,46.2,0,0,0,292.1,188.1Z"/><path class="cls-3" d="M150.1,205.6a46.2,46.2,0,0,1,59.7,9,45.6,45.6,0,0,1-31.5,6.7A46.8,46.8,0,0,1,150.1,205.6Z"/><path class="cls-3" d="M251.6,227.6a46.1,46.1,0,0,1,37.7-47.3,46.3,46.3,0,0,1-10,30.7A46.9,46.9,0,0,1,251.6,227.6Z"/><path class="cls-3" d="M182.4,324.2a46.5,46.5,0,0,1-7.4-31.4,45.8,45.8,0,0,1,15-28.6,46.2,46.2,0,0,1-7.6,60Z"/><path class="cls-3" d="M272.9,255.1a46.2,46.2,0,0,1-48.5-36,46,46,0,0,1,31,8.9A46.5,46.5,0,0,1,272.9,255.1Z"/><path class="cls-3" d="M213.1,264.5a46.3,46.3,0,0,0,7.3-60,45.9,45.9,0,0,0-14.9,28.6A46.6,46.6,0,0,0,213.1,264.5Z"/><path class="cls-3" d="M192.1,289.2a46.1,46.1,0,0,1-58.7,14.3,46.1,46.1,0,0,1,58.7-14.3Z"/><path class="cls-3" d="M232.9,245.2a46.1,46.1,0,0,1-37.7,47.3,45.8,45.8,0,0,1,10.1-30.7A46.3,46.3,0,0,1,232.9,245.2Z"/><path class="cls-3" d="M211.3,247.9a46.5,46.5,0,0,1,31.6-6.6A45.9,45.9,0,0,1,271.1,257a46.5,46.5,0,0,1-31.6,6.6A45.9,45.9,0,0,1,211.3,247.9Z"/><path class="cls-3" d="M153.9,248.3a46.3,46.3,0,0,1,31.6-6.6,45.4,45.4,0,0,1,28.1,15.7,46.1,46.1,0,0,1-59.7-9.1Z"/><path class="cls-3" d="M229.1,264.7a46.3,46.3,0,0,1,0,60.4,46,46,0,0,1,0-60.4Z"/><path class="cls-3" d="M155.5,303.6a45.6,45.6,0,0,1,10-30.7,46.3,46.3,0,0,1,27.6-16.6,46.1,46.1,0,0,1-37.6,47.3Z"/><path class="cls-3" d="M225.6,278.6a45.4,45.4,0,0,0-31,8.9,46.2,46.2,0,0,0-17.5,27.1,46.2,46.2,0,0,0,48.5-36Z"/><path class="cls-3" d="M438.9,261.4a46.1,46.1,0,0,1,48.4,36.1,46.1,46.1,0,0,1-48.4-36.1Z"/><path class="cls-3" d="M504.5,266.9a45,45,0,0,1-31.5,6.6,45.7,45.7,0,0,1-28.2-15.6,45.7,45.7,0,0,1,31.6-6.7A46.3,46.3,0,0,1,504.5,266.9Z"/><path class="cls-3" d="M503,211.7a46.3,46.3,0,0,1-37.7,47.2A46.1,46.1,0,0,1,503,211.7Z"/><path class="cls-3" d="M441.5,322.9A46.1,46.1,0,0,0,490,286.8a46.3,46.3,0,0,0-48.5,36.1Z"/><path class="cls-3" d="M454,296.4a46.2,46.2,0,0,1,37,47.8,46.2,46.2,0,0,1-37-47.8Z"/><path class="cls-3" d="M534.6,258.4a46.2,46.2,0,0,1-16.8,58,46.2,46.2,0,0,1,16.8-58Z"/><path class="cls-3" d="M462.2,320.5a46.1,46.1,0,0,1,23.5-55.6,46.1,46.1,0,0,1-23.5,55.6Z"/><path class="cls-3" d="M482.4,335.2a46.1,46.1,0,0,1,57.7-17.8,46,46,0,0,1-57.7,17.8Z"/><path class="cls-3" d="M457,273.2A46,46,0,0,1,493.9,321a45.7,45.7,0,0,1-27.4-17A46.2,46.2,0,0,1,457,273.2Z"/><path class="cls-3" d="M513,246.2a46.1,46.1,0,0,1-16.7,58.1A46.1,46.1,0,0,1,513,246.2Z"/><path class="cls-3" d="M484.3,323.1a46.4,46.4,0,0,1,57.8-17.8,46.1,46.1,0,0,1-57.8,17.8Z"/><ellipse class="cls-4" cx="553.5" cy="307" rx="11.3" ry="30.2"/><path class="cls-3" d="M126.2,385.8a45.7,45.7,0,0,1-7.4-31.4,46.2,46.2,0,0,1,14.9-28.6,46,46,0,0,1-7.5,60Z"/><path class="cls-3" d="M216.7,316.7a46.1,46.1,0,0,1-48.5-36.1,46.3,46.3,0,0,1,48.5,36.1Z"/><path class="cls-3" d="M135.9,350.8a46.1,46.1,0,0,1-58.7,14.3,46.1,46.1,0,0,1,58.7-14.3Z"/><path class="cls-3" d="M176.7,306.8a46.4,46.4,0,0,1-10,30.7A45.9,45.9,0,0,1,139,354a46.1,46.1,0,0,1,37.7-47.2Z"/><path class="cls-3" d="M155.1,309.5a46.2,46.2,0,0,1,59.8,9.1,46.2,46.2,0,0,1-59.8-9.1Z"/><path class="cls-3" d="M97.7,309.9a46.2,46.2,0,0,1,31.6-6.6A45.4,45.4,0,0,1,157.4,319a46.1,46.1,0,0,1-59.7-9.1Z"/><ellipse class="cls-4" cx="172.8" cy="356.5" rx="11.3" ry="30.2"/><path class="cls-3" d="M99.3,365.1a46.1,46.1,0,0,1,37.6-47.2,46.1,46.1,0,0,1-37.6,47.2Z"/><path class="cls-3" d="M169.4,340.1a46.1,46.1,0,0,0-48.5,36.1,46.1,46.1,0,0,0,48.5-36.1Z"/><path class="cls-3" d="M605.4,17H474.5c5.5,26.4,12.4,51.4,15.8,64.9,6.9,27.7,3.6,68.1,4.8,98.4,1.1,26.9,2.6,53.9,3.8,80.8,2.4,55.4.7,110.5-42.2,151.1-26.2,23.6-33.4.6-57.8,6.1-22.3,5.1-28.6,11-54.6,11.3-34.1.3-39.2-3.3-67.1-21-49.9-31.7-86.2,53.9-124.1-51.2-9.9-27.5-13-62.6-9.7-91.6,5.7-46.4,7-53.4,23.5-96.8,12.8-33.6,8-80.4,12.3-117.8l.5-4c.7-6.2,1.4-12.5,2.2-18.7.3-3.2.7-7.1,1.1-11.5H50.1V500.9c7.7,7.4,16.8,14,27.5,20.7,48,30.1,110.6,45.1,170.4,50.6H355.2c74.6-6.8,157.3-28.6,205.6-79.4,12.7-13.5,29.2-20.7,44.6-27.5V109.5a31.2,31.2,0,0,1,0-11.4Z"/><path class="cls-5" d="M93.4,248a46.3,46.3,0,0,1,31.6-6.6,45.4,45.4,0,0,1,28.1,15.7,46.1,46.1,0,0,1-31.5,6.6A45.3,45.3,0,0,1,93.4,248Z"/><path class="cls-5" d="M113.7,186.4a46,46,0,0,1-16.7,58,46,46,0,0,1,16.7-58Z"/><path class="cls-5" d="M151.2,205.2a46.1,46.1,0,0,1,30.6,52.1,46,46,0,0,1-30.6-52.1Z"/><path class="cls-5" d="M111.2,243.8a46.1,46.1,0,0,1,48.4,36.1,46.1,46.1,0,0,1-48.4-36.1Z"/><path class="cls-5" d="M96.4,224.8a46.1,46.1,0,0,1,31.5-6.6,45.3,45.3,0,0,1,28.2,15.7,46.1,46.1,0,0,1-31.5,6.6A45.3,45.3,0,0,1,96.4,224.8Z"/><path class="cls-5" d="M165.3,228.9a46,46,0,0,1,0,60.4,46.3,46.3,0,0,1,0-60.4Z"/><path class="cls-5" d="M163,196a46.6,46.6,0,0,1,13.9,29.1,46,46,0,0,1-8.6,31.1A46.1,46.1,0,0,1,163,196Z"/><path class="cls-5" d="M132.7,265.2a46.1,46.1,0,0,1,0-60.5,46.5,46.5,0,0,1,0,60.5Z"/><path class="cls-5" d="M209.5,176.8a46,46,0,0,1,0,60.4,46,46,0,0,1,0-60.4Z"/><path class="cls-5" d="M178.6,175.8a46.2,46.2,0,0,1,48.5,36,46.1,46.1,0,0,1-31-9A45.5,45.5,0,0,1,178.6,175.8Z"/><path class="cls-5" d="M244.3,181.3a46.5,46.5,0,0,1-31.6,6.6,45.9,45.9,0,0,1-28.2-15.7,46.5,46.5,0,0,1,31.6-6.6A45.9,45.9,0,0,1,244.3,181.3Z"/><path class="cls-5" d="M181.3,237.3a46.3,46.3,0,0,0,48.5-36.1,46.1,46.1,0,0,0-48.5,36.1Z"/><path class="cls-5" d="M193.7,210.8a46.2,46.2,0,0,1,37,47.8,46.2,46.2,0,0,1-37-47.8Z"/><path class="cls-5" d="M274.3,172.7a46.1,46.1,0,0,1-16.7,58.1,46.1,46.1,0,0,1,16.7-58.1Z"/><path class="cls-5" d="M201.9,234.9a46.2,46.2,0,0,1,23.5-55.7,45.4,45.4,0,0,1-1.3,32.2A46.3,46.3,0,0,1,201.9,234.9Z"/><path class="cls-5" d="M222.1,249.6a46.1,46.1,0,0,1,57.8-17.8,46.4,46.4,0,0,1-57.8,17.8Z"/><path class="cls-5" d="M196.7,187.6a46.2,46.2,0,0,1,37,47.8,46.2,46.2,0,0,1-37-47.8Z"/><path class="cls-5" d="M252.7,160.6a45.3,45.3,0,0,1,2.5,32.1A45.8,45.8,0,0,1,236,218.6a46,46,0,0,1,16.7-58Z"/><path class="cls-5" d="M224.1,237.5a46,46,0,0,1,57.7-17.8,46.1,46.1,0,0,1-57.7,17.8Z"/><path class="cls-5" d="M293.3,251.5a46,46,0,0,1,0-60.4,46,46,0,0,1,0,60.4Z"/><path class="cls-5" d="M204.8,268.4A45.8,45.8,0,0,1,176.5,253a46.4,46.4,0,0,1-11.4-30.2,46.1,46.1,0,0,1,39.7,45.6Z"/><path class="cls-5" d="M291.7,134.3a46.1,46.1,0,0,1,48.4,36,45.2,45.2,0,0,1-30.9-8.9A45.7,45.7,0,0,1,291.7,134.3Z"/><path class="cls-5" d="M357.3,139.8a46.1,46.1,0,0,1-31.5,6.6,45.3,45.3,0,0,1-28.2-15.7,46,46,0,0,1,59.7,9.1Z"/><path class="cls-5" d="M294.3,195.8a46.1,46.1,0,0,0,48.5-36.1,46.3,46.3,0,0,0-48.5,36.1Z"/><path class="cls-5" d="M306.8,169.3a46.2,46.2,0,0,1,37,47.8,46.2,46.2,0,0,1-37-47.8Z"/><path class="cls-5" d="M387.4,131.2a46.3,46.3,0,0,1-16.8,58.1,46.3,46.3,0,0,1,16.8-58.1Z"/><path class="cls-5" d="M315,193.4a46.3,46.3,0,0,1,23.5-55.7A46.2,46.2,0,0,1,315,193.4Z"/><path class="cls-5" d="M335.2,208.1a46,46,0,0,1,25.6-19.7,45.3,45.3,0,0,1,32.1,1.9,46,46,0,0,1-57.7,17.8Z"/><path class="cls-5" d="M309.8,146.1a46.2,46.2,0,0,1,27.4,17,45.7,45.7,0,0,1,9.5,30.8,46,46,0,0,1-36.9-47.8Z"/><path class="cls-5" d="M365.8,119.1a46,46,0,0,1-16.7,58,46,46,0,0,1,16.7-58Z"/><path class="cls-5" d="M337.1,196a46.1,46.1,0,0,1,57.8-17.8A46.1,46.1,0,0,1,337.1,196Z"/><path class="cls-5" d="M406.3,210a46.3,46.3,0,0,1,0-60.4,46,46,0,0,1,0,60.4Z"/><path class="cls-5" d="M317.9,226.9a46.1,46.1,0,0,1-39.7-45.6,45.8,45.8,0,0,1,28.3,15.4A46.4,46.4,0,0,1,317.9,226.9Z"/><path class="cls-5" d="M365.6,175.2a46,46,0,0,1,0-60.4,46.3,46.3,0,0,1,0,60.4Z"/><path class="cls-5" d="M389.1,184.9a45.4,45.4,0,0,0,31-8.9,46.2,46.2,0,0,0,17.5-27.1,46.2,46.2,0,0,0-48.5,36Z"/><path class="cls-5" d="M461.8,182.1a46,46,0,0,1,31.6-6.7,46.8,46.8,0,0,1,28.2,15.7,45.4,45.4,0,0,1-31.6,6.6A46.2,46.2,0,0,1,461.8,182.1Z"/><path class="cls-5" d="M401.5,158.5a46.2,46.2,0,0,1,37,47.8,46.2,46.2,0,0,1-37-47.8Z"/><path class="cls-5" d="M482.1,120.4a46,46,0,0,1-16.7,58,46,46,0,0,1,16.7-58Z"/><path class="cls-5" d="M519.6,139.2a46.3,46.3,0,0,1,30.6,52.1,46.1,46.1,0,0,1-30.6-52.1Z"/><path class="cls-5" d="M409.7,182.5a46,46,0,0,1,23.6-55.6,46,46,0,0,1-23.6,55.6Z"/><path class="cls-5" d="M367.9,208a45.9,45.9,0,0,1-5.3-60.1,45.9,45.9,0,0,1,5.3,60.1Z"/><path class="cls-5" d="M437.6,185.3a46.1,46.1,0,0,1,0,60.5,46.1,46.1,0,0,1,0-60.5Z"/><path class="cls-5" d="M479.6,177.9a46,46,0,0,1,31,8.9,46.5,46.5,0,0,1,17.5,27.1,46.2,46.2,0,0,1-48.5-36Z"/><path class="cls-5" d="M464.8,158.9a45.9,45.9,0,0,1,59.7,9,45,45,0,0,1-31.5,6.6A45.9,45.9,0,0,1,464.8,158.9Z"/><path class="cls-5" d="M430,197.2a46.3,46.3,0,0,1,57.7-17.8,46,46,0,0,1-25.6,19.7A45.3,45.3,0,0,1,430,197.2Z"/><path class="cls-5" d="M404.5,135.3a46.2,46.2,0,0,1,37,47.8,46.2,46.2,0,0,1-37-47.8Z"/><path class="cls-5" d="M460.6,108.2a46.3,46.3,0,0,1-16.8,58.1,45.6,45.6,0,0,1-2.4-32.2A46.1,46.1,0,0,1,460.6,108.2Z"/><path class="cls-5" d="M533.8,162.9a46.3,46.3,0,0,1,0,60.4,46,46,0,0,1,0-60.4Z"/><path class="cls-5" d="M431.9,185.2a46,46,0,0,1,57.7-17.8,46,46,0,0,1-57.7,17.8Z"/><path class="cls-5" d="M531.4,130.1a46.1,46.1,0,0,1,5.3,60.2,46.1,46.1,0,0,1-5.3-60.2Z"/><path class="cls-5" d="M501.1,199.2a46,46,0,0,1,0-60.4,46,46,0,0,1,0,60.4Z"/><path class="cls-5" d="M412.6,216.1A46.1,46.1,0,0,1,373,170.5a46.1,46.1,0,0,1,39.6,45.6Z"/><path class="cls-5" d="M555,234.8a46,46,0,0,1,0-60.4,46,46,0,0,1,0,60.4Z"/><path class="cls-5" d="M562.7,222.9a46.1,46.1,0,0,1-57.8,17.8,46.1,46.1,0,0,1,57.8-17.8Z"/><path class="cls-5" d="M565.8,254.1a46.2,46.2,0,0,1-60.4-2.5,45.8,45.8,0,0,1,30.7-10A46.4,46.4,0,0,1,565.8,254.1Z"/><path class="cls-5" d="M557.4,267.6a45.9,45.9,0,0,1-5.3-60.1,45.9,45.9,0,0,1,5.3,60.1Z"/><path class="cls-5" d="M522.4,225.5a46,46,0,0,1,0,60.4,46,46,0,0,1,0-60.4Z"/><path class="cls-5" d="M329.6,150.6a46,46,0,0,0,0-60.4,46,46,0,0,0,0,60.4Z"/><path class="cls-5" d="M306.1,160.4a46.1,46.1,0,0,1-48.5-36.1,46.1,46.1,0,0,1,48.5,36.1Z"/><path class="cls-5" d="M233.4,157.5a46,46,0,0,0-31.6-6.7,46.8,46.8,0,0,0-28.2,15.7,45.4,45.4,0,0,0,31.6,6.6A46.2,46.2,0,0,0,233.4,157.5Z"/><path class="cls-5" d="M293.6,133.9a45.7,45.7,0,0,0-27.4,17,46.2,46.2,0,0,0-9.5,30.8,46,46,0,0,0,36.9-47.8Z"/><path class="cls-5" d="M213.1,95.8a45.6,45.6,0,0,0-2.5,32.2,46.1,46.1,0,0,0,19.2,25.9,46.1,46.1,0,0,0-16.7-58.1Z"/><path class="cls-5" d="M175.6,114.6a45.8,45.8,0,0,0-25,20.4,45.3,45.3,0,0,0-5.6,31.7,45.2,45.2,0,0,0,25-20.3A46.1,46.1,0,0,0,175.6,114.6Z"/><path class="cls-5" d="M285.5,157.9a46,46,0,0,0-23.6-55.6,46,46,0,0,0,1.4,32.2A45.4,45.4,0,0,0,285.5,157.9Z"/><path class="cls-5" d="M327.2,183.5a46.1,46.1,0,0,0,13.9-29.1,45.5,45.5,0,0,0-8.5-31.1,46.2,46.2,0,0,0-5.4,60.2Z"/><path class="cls-5" d="M257.6,160.7a46.1,46.1,0,0,0,0,60.5,46.1,46.1,0,0,0,0-60.5Z"/><path class="cls-5" d="M215.6,153.3a45.9,45.9,0,0,0-48.5,36,46.2,46.2,0,0,0,48.5-36Z"/><path class="cls-5" d="M230.4,134.3a46,46,0,0,0-31.6-6.7,46.8,46.8,0,0,0-28.2,15.7,45.4,45.4,0,0,0,31.6,6.6A46.2,46.2,0,0,0,230.4,134.3Z"/><path class="cls-5" d="M265.2,172.7a46.1,46.1,0,0,0-57.7-17.9,46.1,46.1,0,0,0,57.7,17.9Z"/><path class="cls-5" d="M290.7,110.7a46.2,46.2,0,0,0-37,47.8,46.2,46.2,0,0,0,37-47.8Z"/><path class="cls-5" d="M234.6,83.6a46.3,46.3,0,0,0,16.8,58.1,46.3,46.3,0,0,0-16.8-58.1Z"/><path class="cls-5" d="M161.4,138.3a46,46,0,0,0,0,60.4,46,46,0,0,0,0-60.4Z"/><path class="cls-5" d="M263.3,160.6a46,46,0,0,0-57.7-17.8,46,46,0,0,0,57.7,17.8Z"/><path class="cls-5" d="M163.8,105.5a46.1,46.1,0,0,0-5.3,60.2,46.6,46.6,0,0,0,13.9-29.1A46,46,0,0,0,163.8,105.5Z"/><path class="cls-5" d="M194.1,174.6a46,46,0,0,0,0-60.4,46,46,0,0,0,0,60.4Z"/><path class="cls-5" d="M282.6,191.5a46.1,46.1,0,0,0,39.6-45.6,46.1,46.1,0,0,0-39.6,45.6Z"/><path class="cls-5" d="M140.2,210.2a46.3,46.3,0,0,0,0-60.4,46,46,0,0,0,0,60.4Z"/><path class="cls-5" d="M132.5,198.3a46.1,46.1,0,0,0,57.7,17.8,46,46,0,0,0-57.7-17.8Z"/><path class="cls-5" d="M129.4,229.5a46.2,46.2,0,0,0,60.4-2.5,45.8,45.8,0,0,0-30.7-10A46.4,46.4,0,0,0,129.4,229.5Z"/><path class="cls-5" d="M137.8,243a45.9,45.9,0,0,0,5.3-60.1,45.9,45.9,0,0,0-5.3,60.1Z"/><path class="cls-5" d="M172.8,200.9a46,46,0,0,0,0,60.4,46,46,0,0,0,0-60.4Z"/><path class="cls-5" d="M0,1.4H155.2c-6.5,31.3-14.7,61-18.8,77.1-8.1,32.8-4.2,80.7-5.6,116.6-1.3,32-3.1,64-4.5,95.9-2.9,65.7-.9,131.1,50,179.2,31.1,28,39.6.8,68.6,7.3,26.4,5.9,33.9,13,64.8,13.4,40.4.3,46.5-4,79.6-25,59.2-37.6,102.2,63.9,147.1-60.7,11.8-32.6,15.4-74.3,11.6-108.6-6.8-55.1-8.4-63.4-27.9-114.9-15.2-39.8-9.5-95.4-14.6-139.7l-.6-4.7c-.9-7.4-1.7-14.8-2.6-22.2-.4-3.8-.9-8.4-1.3-13.7H658.6V575.5c-9.2,8.7-19.9,16.5-32.6,24.4-56.9,35.8-131.2,53.6-202.2,60.1H296.7c-88.5-8.1-186.6-33.9-243.8-94.2-15.2-16-34.7-24.5-52.9-32.6v-422A41.4,41.4,0,0,0,0,97.6Z"/><path class="cls-6" d="M275.6,139.2a46,46,0,0,1,0-60.4,46.3,46.3,0,0,1,0,60.4Z"/><path class="cls-6" d="M233.5,119.1A46.1,46.1,0,0,1,185,83a46.1,46.1,0,0,1,48.5,36.1Z"/><path class="cls-6" d="M196.3,189.4a45.4,45.4,0,0,1-7.4-31.4,45.9,45.9,0,0,1,14.9-28.5,45.9,45.9,0,0,1-7.5,59.9Z"/><path class="cls-6" d="M283.2,127.3a46,46,0,0,1-57.7,17.8,46,46,0,0,1,57.7-17.8Z"/><path class="cls-6" d="M299.1,148.9a46.2,46.2,0,0,0,48.5-36,45.9,45.9,0,0,0-48.5,36Z"/><path class="cls-6" d="M129.4,154a46.1,46.1,0,0,1-48.5-36.1A46.1,46.1,0,0,1,129.4,154Z"/><path class="cls-6" d="M69.6,163.3a45.7,45.7,0,0,0,14.9-28.6,46.6,46.6,0,0,0-7.6-31.4,46.3,46.3,0,0,0-7.3,60Z"/><path class="cls-6" d="M206,154.4a46,46,0,0,1-58.7,14.4A46,46,0,0,1,206,154.4Z"/><path class="cls-6" d="M246.8,110.5a46.1,46.1,0,0,1-37.7,47.2,45.9,45.9,0,0,1,37.7-47.2Z"/><path class="cls-6" d="M286.3,158.5A46.1,46.1,0,0,1,226,156a46.1,46.1,0,0,1,60.3,2.5Z"/><path class="cls-6" d="M209.8,129.3a45.7,45.7,0,0,0-16-28,46.7,46.7,0,0,0-30.5-10.6,46.2,46.2,0,0,0,46.5,38.6Z"/><path class="cls-6" d="M371.8,146a46.5,46.5,0,0,1,31.6-6.6,45.9,45.9,0,0,1,28.2,15.7,46.5,46.5,0,0,1-31.6,6.6A45.9,45.9,0,0,1,371.8,146Z"/><path class="cls-6" d="M311.5,122.4a46.2,46.2,0,0,1,37,47.8,46.2,46.2,0,0,1-37-47.8Z"/><path class="cls-6" d="M392.1,84.4a46,46,0,0,1-16.7,58,46,46,0,0,1,16.7-58Z"/><path class="cls-6" d="M429.6,103.2a45.7,45.7,0,0,1,25,20.3,46.2,46.2,0,0,1,5.6,31.8,46.1,46.1,0,0,1-30.6-52.1Z"/><path class="cls-6" d="M319.7,146.5a46,46,0,0,1,23.6-55.6,46,46,0,0,1-23.6,55.6Z"/><path class="cls-6" d="M277.9,172a46.1,46.1,0,0,1-5.3-60.2,46.1,46.1,0,0,1,5.3,60.2Z"/><path class="cls-6" d="M67.9,146.8a46.1,46.1,0,0,1,59.7,9.1,46,46,0,0,1-59.7-9.1Z"/><path class="cls-6" d="M167.8,113.6a45.9,45.9,0,0,1,59.7,9,46.2,46.2,0,0,1-59.7-9Z"/><path class="cls-6" d="M242.9,129.9a46,46,0,0,1,0,60.4,46.3,46.3,0,0,1,0-60.4Z"/><path class="cls-6" d="M210.2,124.8a45.4,45.4,0,0,1,26.6-18.1,45.8,45.8,0,0,1,32.1,3.8,46.1,46.1,0,0,1-58.7,14.3Z"/><path class="cls-6" d="M169.4,168.8A46.1,46.1,0,0,1,207,121.5a45.6,45.6,0,0,1-10,30.7A46.3,46.3,0,0,1,169.4,168.8Z"/><path class="cls-6" d="M347.6,149.3a46,46,0,0,1,0,60.4,46,46,0,0,1,0-60.4Z"/><path class="cls-6" d="M389.6,141.8a46.1,46.1,0,0,1,48.5,36.1,46.1,46.1,0,0,1-48.5-36.1Z"/><path class="cls-6" d="M374.8,122.8a46.3,46.3,0,0,1,31.6-6.6,45.4,45.4,0,0,1,28.1,15.7,46.1,46.1,0,0,1-59.7-9.1Z"/><path class="cls-6" d="M340,161.2a46,46,0,0,1,57.7-17.8A46.1,46.1,0,0,1,340,161.2Z"/><path class="cls-6" d="M314.5,99.2a46.2,46.2,0,0,1,37,47.8,46.2,46.2,0,0,1-37-47.8Z"/><path class="cls-6" d="M370.6,72.2a46.3,46.3,0,0,1-16.8,58.1,46.3,46.3,0,0,1,16.8-58.1Z"/><path class="cls-6" d="M239.5,143.8a46.2,46.2,0,0,0-48.5,36,46,46,0,0,0,31-8.9A46.5,46.5,0,0,0,239.5,143.8Z"/><path class="cls-6" d="M443.8,126.9a46.3,46.3,0,0,1,0,60.4,46,46,0,0,1,0-60.4Z"/><path class="cls-6" d="M485.9,147a46.1,46.1,0,0,1,48.4,36.1A46.1,46.1,0,0,1,485.9,147Z"/><path class="cls-6" d="M471,100.4a46.1,46.1,0,0,1,59.7,9.1,46,46,0,0,1-59.7-9.1Z"/><path class="cls-6" d="M341.9,149.2a46.1,46.1,0,0,1,57.7-17.9,46.1,46.1,0,0,1-57.7,17.9Z"/><path class="cls-6" d="M472.5,155.6A46.1,46.1,0,0,1,482.6,125a45.4,45.4,0,0,1,27.6-16.6,46.1,46.1,0,0,1-37.7,47.2Z"/><path class="cls-6" d="M433,107.6a46.2,46.2,0,0,1,60.4,2.5,45.8,45.8,0,0,1-30.7,10A46.4,46.4,0,0,1,433,107.6Z"/><path class="cls-6" d="M441.4,94a46.1,46.1,0,0,1,5.3,60.2A46.1,46.1,0,0,1,441.4,94Z"/><path class="cls-6" d="M551.5,152.5a46.1,46.1,0,0,1-59.7-9.1,46,46,0,0,1,59.7,9.1Z"/><path class="cls-6" d="M411.1,163.2a46,46,0,0,1,0-60.4,46,46,0,0,1,0,60.4Z"/><path class="cls-6" d="M509.2,141.3a46.1,46.1,0,0,1-58.7,14.3,46.1,46.1,0,0,1,58.7-14.3Z"/><path class="cls-6" d="M550,97.3a46.3,46.3,0,0,1-37.7,47.2A46.1,46.1,0,0,1,550,97.3Z"/><path class="cls-6" d="M322.6,180A46.1,46.1,0,0,1,283,134.4,46.1,46.1,0,0,1,322.6,180Z"/><path class="cls-6" d="M465,198.8a46,46,0,0,1,0-60.4,46,46,0,0,1,0,60.4Z"/><path class="cls-6" d="M472.7,186.9a46.4,46.4,0,0,1-57.8,17.8,46.1,46.1,0,0,1,57.8-17.8Z"/><path class="cls-6" d="M488.5,208.5A46.1,46.1,0,0,0,537,172.4a46.3,46.3,0,0,0-48.5,36.1Z"/><path class="cls-6" d="M475.8,218.1a45.8,45.8,0,0,1-30.7,10,46.4,46.4,0,0,1-29.7-12.5,46.2,46.2,0,0,1,60.4,2.5Z"/><path class="cls-6" d="M501,182a46.2,46.2,0,0,1,37,47.8A46.2,46.2,0,0,1,501,182Z"/><path class="cls-6" d="M581.6,143.9A46.3,46.3,0,0,1,564.8,202a46.4,46.4,0,0,1,16.8-58.1Z"/><path class="cls-6" d="M509.2,206.1a46.1,46.1,0,0,1,23.5-55.6,46.1,46.1,0,0,1-23.5,55.6Z"/><path class="cls-6" d="M467.4,231.6a46.1,46.1,0,0,1-5.3-60.2A46.6,46.6,0,0,1,476,200.5,46,46,0,0,1,467.4,231.6Z"/><path class="cls-6" d="M432.4,189.5a46,46,0,0,1,0,60.4,46,46,0,0,1,0-60.4Z"/><path class="cls-6" d="M537.1,208.9a46.3,46.3,0,0,1,0,60.4,46,46,0,0,1,0-60.4Z"/><path class="cls-6" d="M529.4,220.8A46.1,46.1,0,0,1,587.2,203a46.1,46.1,0,0,1-57.8,17.8Z"/><path class="cls-6" d="M504,158.8a46.2,46.2,0,0,1,27.4,17,45.3,45.3,0,0,1,9.5,30.8A46,46,0,0,1,504,158.8Z"/><path class="cls-6" d="M560,131.8a46,46,0,0,1-16.7,58,46,46,0,0,1,16.7-58Z"/><path class="cls-6" d="M531.3,208.7a46.4,46.4,0,0,1,57.8-17.8,46.1,46.1,0,0,1-57.8,17.8Z"/><path class="cls-6" d="M600.5,222.8a46.5,46.5,0,0,1,0-60.5,46.1,46.1,0,0,1,0,60.5Z"/><path class="cls-6" d="M512.1,239.6a46.3,46.3,0,0,1-28.4-15.4A45.8,45.8,0,0,1,472.4,194a46.3,46.3,0,0,1,39.7,45.6Z"/><path class="cls-6" d="M100.2,265.4a46.3,46.3,0,0,1,7.5-60,46.3,46.3,0,0,1-7.5,60Z"/><path class="cls-6" d="M190.6,196.3a46.1,46.1,0,0,1-48.4-36,46.1,46.1,0,0,1,48.4,36Z"/><path class="cls-6" d="M130.9,205.7a46.1,46.1,0,0,0,7.2-60,46.1,46.1,0,0,0-7.2,60Z"/><path class="cls-6" d="M109.9,230.4a45.6,45.6,0,0,1-26.7,18.1,45,45,0,0,1-32-3.8,46.1,46.1,0,0,1,58.7-14.3Z"/><path class="cls-6" d="M150.7,186.4a45.8,45.8,0,0,1-10.1,30.7A46.3,46.3,0,0,1,113,233.7a46.1,46.1,0,0,1,37.7-47.3Z"/><path class="cls-6" d="M129.1,189.1a46.3,46.3,0,0,1,31.6-6.6,45.4,45.4,0,0,1,28.1,15.7,46.1,46.1,0,0,1-31.5,6.6A45.6,45.6,0,0,1,129.1,189.1Z"/><path class="cls-6" d="M71.7,189.5a46.1,46.1,0,0,1,59.7,9.1,46,46,0,0,1-59.7-9.1Z"/><path class="cls-6" d="M146.8,205.9a46,46,0,0,1,0,60.4,46,46,0,0,1,0-60.4Z"/><path class="cls-6" d="M73.2,244.8a45.8,45.8,0,0,1,10.1-30.7,46.3,46.3,0,0,1,27.6-16.6,46.1,46.1,0,0,1-37.7,47.3Z"/><path class="cls-6" d="M143.4,219.8a45.9,45.9,0,0,0-48.5,36,46.3,46.3,0,0,0,48.5-36Z"/><path class="cls-6" d="M557.9,44c-2.9,1.4-.9,3,.2,7.4,2,8.1,17.1,52.5,1.7,54.7S522.2,54.7,517,43.8s-9.6-20.8-14.6-31c-1.9-3.8-3.8-7.6-5.6-11.4H475.9c1.5,10.3,2.7,20.2,2.2,31,7.6,4.9,7.8,1.6,14.9,11.8,15.4,22.3,21.1,46.8,38,69.1,2.7,3.4,5,6.5,7.4,10.1,4.8,7.3,7.6,16.5,11.2,24.5l.9,1.9c7.6,15.7,8.7,23.9,10.5,41.1l.3,2.3c1.8,17.3-1,21.8-17.2,11.5-40.2-27.1-50.8-44.2-74.8-84.9-16.2-27.4-29.7-54.9-46.4-82.2C415.8,26,410.5,18.5,406.5,5.4c-.4-1.3-.8-2.7-1.3-4H386.3c15,28.6,33.2,55.7,48.3,84.5,19.7,37.3,39.4,76.9,67.5,108.7,8.2,9.3,15,17.5,21.5,28.2l26.1,44.5c5.9,10.2,11.9,19.6,12.6,31.6a254.6,254.6,0,0,0,6,43.4c9.2,41,16.2,81.6,9.2,123.6-23.8,112.4-100.3,83.6-198.1,73.7-57.6-6-94.5-17.8-152-7.2-32.2,5.7-90.8,5.3-112.3-23.2-13.8-18.1-14.1-45.7-15.5-67.8-1.5-20.4-5-37-7.9-56.9-4.8-33.3,11.7-93.1,21.1-123.8,6-19.4,16.7-36.8,23.5-56.9,11.9-34.8,18-55.4,49.1-78.1,42.2-30.7,71.7-45.1,94.7-95.1,10.2-22.1-2.9-12-8.7.3-22.1,47-53.1,61-92.2,89.5-19.4,14.2-29.7,28.3-40.2,50.2-1.4,2.9-2.6,5.7-3.8,8.6-7.9,20.1-12.1,30.8-22.8,49.5-7.3,12.7-18,36.5-36.1,33.1S68.6,234,71.9,223c5.9-19.9,10.2-29.2,6.8-50.2-2.3-13.9,2.3-21.9,11.1-32.2,15.3-17.8,31.9-2,51.4-15.2C170,105.7,194.3,93.6,220.6,69c21.8-20.4,39.3-42.5,53.1-67.6H259.1c-27.8,45.5-72.7,80.6-121,101.9L128,107.7c-10.6,4.5-17.2,6.6-29,7.7-27.9.6-5.9-26.7,2.1-37,16-20.5,42.8-46.5,52.6-69.9.5-1.5,1.6-4,3-7.1H125.2c-5,4.9-9.7,8.8-12.6,9.4-5.6,1.1-10.2-2.9-14.3-9.4H61.8C57.7,22.6,50,44.2,36.6,50.8,28.4,54.8,9.8,53.1,0,53V608.4H658.6q0-187.2.1-374.5h-.1V128.4h0V1.4H581.3C580.8,19.4,574.8,35.2,557.9,44Z"/><path class="cls-7" d="M0,1.4H60.8c-.5,3.1-1,6.3-1.4,9.5-2,15.7-7.2,24.3-10.5,37.9-2.8,11.6,6.2,22.6,18.6,10.6s19.4-21,29-32.7a157.2,157.2,0,0,1,12.6-13.2L113,10l3.8-3.5c1.4-1.4,3.1-3.1,4.9-5.1h22.2c-10.5,16.4-25.4,30.2-36,47.4C99.5,62.7,89.5,72.4,81.3,84.9c-5.7,8.6-8.9,19.5-13.3,29l-1.1,2.2c-9,18.7-10.2,28.4-12.4,48.9l-.3,2.6c-2.2,20.6,1.2,25.9,20.3,13.7,26.2-17.5,59.9-45.6,74.8-73.5,18.6-34.6,32.9-71.4,50.6-106.4h16.8c-2.1,4-4.1,8-5.9,12C194.6,48.6,179,85,161.9,119.7c-15.5,31.3-44.9,52.4-63.1,83C88.6,220.4,78.2,237.9,68,255.5c-7,12.1-14.2,23.2-15,37.5-3.7,69.8-31,119.7-18.1,198.1,3.8,17.6,9.8,36.5,15.2,53.6,21.2,65.5,162.9,39.5,219.8,33.8,68.3-7.2,112-21.2,180.2-8.5,38.3,6.7,107.8,6.1,133.3-27.6,16.3-21.5,16.7-54.2,18.3-80.4,1.7-24.2,5.4-44,9.4-67.5,5.6-37.1-13.4-72.8-24.9-107.2-6-17.9-15.9-33.8-22-52.9-3.4-10.5-10.1-39.7-7-49.6,5,1.7,11.6,27.3,13.8,33.3,4.5,12.2,17.6,45.3,29.7,49.1,14.5,4.5,19.7-14.7,20.2-25.1.8-15.7-.8-24.3,2-41.1,4.5-27.4,10.4-32.3-9.6-56.1-10.5-12-22.6-24-33.7-35.7-19.8-20.6-40.4-29.1-64.2-43.9C496,53.1,476.5,40.2,458.8,25.6A149,149,0,0,1,435.9,1.4h19.2a202.7,202.7,0,0,0,27,20.3c30.7,19.8,52.7,30.4,85.9,44.5,12.7,5.4,20.4,7.8,34.4,9.2s19.8-5.3,14.8-19c-10-27.4-24.9-37.1-38-55h79.4V660H0Z"/><path class="cls-7" d="M246.1,104.6a46.3,46.3,0,0,1,0,60.4,46,46,0,0,1,0-60.4Z"/><path class="cls-7" d="M288.2,124.8a45.9,45.9,0,0,1,48.4,36,46.1,46.1,0,0,1-48.4-36Z"/><path class="cls-7" d="M273.3,78.1A46.1,46.1,0,0,1,333,87.2a46.3,46.3,0,0,1-31.6,6.6A45.4,45.4,0,0,1,273.3,78.1Z"/><path class="cls-7" d="M238.4,116.5A46.4,46.4,0,0,1,264,96.8a45.9,45.9,0,0,1,32.1,1.9,46,46,0,0,1-57.7,17.8Z"/><path class="cls-7" d="M213,54.5a46.2,46.2,0,0,1,27.4,17,45.3,45.3,0,0,1,9.5,30.8,45.7,45.7,0,0,1-27.4-17A46.2,46.2,0,0,1,213,54.5Z"/><path class="cls-7" d="M269,27.5a46.1,46.1,0,0,1-16.7,58.1A46.1,46.1,0,0,1,269,27.5Z"/><path class="cls-7" d="M222.5,94.9A46.1,46.1,0,0,0,174.1,131a46.1,46.1,0,0,0,48.4-36.1Z"/><path class="cls-7" d="M350.1,69.7a46,46,0,0,1,0,60.4,46.3,46.3,0,0,1,0-60.4Z"/><path class="cls-7" d="M392.2,89.8a46.1,46.1,0,0,1,48.5,36.1,46.1,46.1,0,0,1-48.5-36.1Z"/><path class="cls-7" d="M377.3,43.2a46.5,46.5,0,0,1,31.6-6.6,45.9,45.9,0,0,1,28.2,15.7,46.5,46.5,0,0,1-31.6,6.6A45.9,45.9,0,0,1,377.3,43.2Z"/><path class="cls-7" d="M342.5,81.6a46,46,0,0,1,57.7-17.8,46,46,0,0,1-57.7,17.8Z"/><path class="cls-7" d="M317.1,19.6A46,46,0,0,1,354,67.4a45.7,45.7,0,0,1-27.4-17A45.2,45.2,0,0,1,317.1,19.6Z"/><path class="cls-7" d="M376.1,1.4a46.1,46.1,0,0,1-.5,23.3,46.2,46.2,0,0,1-19.2,25.9,45.3,45.3,0,0,1-2.5-32.1,44.9,44.9,0,0,1,9.2-17.1Z"/><path class="cls-7" d="M326.6,60a46.2,46.2,0,0,0-48.5,36,45.9,45.9,0,0,0,48.5-36Z"/><path class="cls-7" d="M475.2,70.1a46.4,46.4,0,0,1,29.7,12.6,45.9,45.9,0,0,1,14.1,29,46.2,46.2,0,0,1-43.8-41.6Z"/><path class="cls-7" d="M518.8,53.5a46.1,46.1,0,0,1,59.5-10.4,45.8,45.8,0,0,1-27.8,16.3A46,46,0,0,1,518.8,53.5Z"/><path class="cls-7" d="M474.8,32.1A45.6,45.6,0,0,1,491.7,4.7a52.5,52.5,0,0,1,4.9-3.3h24.1a45,45,0,0,1-15.2,21.1A45.7,45.7,0,0,1,474.8,32.1Z"/><path class="cls-7" d="M478.6,83.9a46.2,46.2,0,0,1,26.8-54.2,46.2,46.2,0,0,1-26.8,54.2Z"/><path class="cls-7" d="M416.1,59.6a46.3,46.3,0,0,1,60.1,6.1A45.5,45.5,0,0,1,445,73.9,46.2,46.2,0,0,1,416.1,59.6Z"/><path class="cls-7" d="M437.8,1.4a46.1,46.1,0,0,1,27.9,51.1,45.4,45.4,0,0,1-25-20.4,46,46,0,0,1-5.8-30.7Z"/><path class="cls-7" d="M452,80.5a45.3,45.3,0,0,0-14.8,28.6,46,46,0,0,0,7.5,31.4,45.9,45.9,0,0,0,14.9-28.7A46.4,46.4,0,0,0,452,80.5Z"/><path class="cls-7" d="M315.6,89.4a45.6,45.6,0,0,1,26.7-18.1,45,45,0,0,1,32,3.8,46.1,46.1,0,0,1-58.7,14.3Z"/><path class="cls-7" d="M325.2,43.7a46,46,0,0,1,1.4-32.2,47.8,47.8,0,0,1,5.9-10.1H351a45.1,45.1,0,0,1-3.6,18.9A45.7,45.7,0,0,1,325.2,43.7Z"/><path class="cls-7" d="M283.5,69.2a45.3,45.3,0,0,1-13.9-29.1A45.5,45.5,0,0,1,278.1,9a46.2,46.2,0,0,1,5.4,60.2Z"/><path class="cls-7" d="M329,94a46.4,46.4,0,0,1-31-51.9,45.6,45.6,0,0,1,25.2,20.1A46.2,46.2,0,0,1,329,94Z"/><path class="cls-7" d="M274.8,133.4a46.3,46.3,0,0,1,10-30.7,46.9,46.9,0,0,1,27.7-16.6,46.1,46.1,0,0,1-37.7,47.3Z"/><path class="cls-7" d="M235.3,85.3a45.7,45.7,0,0,1,30.6-10,46.4,46.4,0,0,1,29.8,12.5,46.2,46.2,0,0,1-60.4-2.5Z"/><path class="cls-7" d="M311.8,114.5a45.7,45.7,0,0,0,16,28,46.7,46.7,0,0,0,30.5,10.6,46.2,46.2,0,0,0-46.5-38.6Z"/><path class="cls-7" d="M568,75.1a46.1,46.1,0,0,1,58.7-14.3A46.1,46.1,0,0,1,568,75.1Z"/><path class="cls-7" d="M577.6,29.5a46.4,46.4,0,0,1-.2-28.1h24A25.4,25.4,0,0,1,599.7,6,46.2,46.2,0,0,1,577.6,29.5Z"/><path class="cls-7" d="M535.8,55a46.1,46.1,0,0,1-9.3-53.6h9.7a46.7,46.7,0,0,1,8.2,22.5A46,46,0,0,1,535.8,55Z"/><path class="cls-7" d="M581.4,79.7a46,46,0,0,1-31-51.8,46,46,0,0,1,31,51.8Z"/><path class="cls-7" d="M527.2,119.1a46.1,46.1,0,0,1,37.7-47.2,46.1,46.1,0,0,1-10.1,30.6A45.4,45.4,0,0,1,527.2,119.1Z"/><path class="cls-7" d="M487.7,71.1A46.1,46.1,0,0,1,548,73.6a46.1,46.1,0,0,1-60.3-2.5Z"/><path class="cls-7" d="M564.1,100.3a46.2,46.2,0,0,0,46.5,38.5,46,46,0,0,0-46.5-38.5Z"/><path class="cls-7" d="M561.1,187.5a46.1,46.1,0,0,1,58.7-14.3,46.1,46.1,0,0,1-58.7,14.3Z"/><path class="cls-7" d="M583.5,128.6A46.3,46.3,0,0,1,607,72.9a46.2,46.2,0,0,1-23.5,55.7Z"/><path class="cls-7" d="M541.7,154.1a46.1,46.1,0,0,1-5.3-60.2,46.1,46.1,0,0,1,5.3,60.2Z"/><path class="cls-7" d="M587.3,178.9a46.2,46.2,0,0,1-31-51.9,46,46,0,0,1,31,51.9Z"/><path class="cls-7" d="M533.1,218.3a45.6,45.6,0,0,1,10-30.7A46.3,46.3,0,0,1,570.8,171a46.3,46.3,0,0,1-37.7,47.3Z"/><path class="cls-7" d="M493.5,170.2a46.2,46.2,0,0,1,60.4,2.5,46.2,46.2,0,0,1-60.4-2.5Z"/><path class="cls-7" d="M570,199.4A46.2,46.2,0,0,0,616.5,238a45.7,45.7,0,0,0-16-28A46.2,46.2,0,0,0,570,199.4Z"/><path class="cls-7" d="M239,16.2a45.4,45.4,0,0,1-31-8.9,46.1,46.1,0,0,1-6.5-5.9h31.4A47.8,47.8,0,0,1,239,16.2Z"/><path class="cls-7" d="M253.9,62.9a46.2,46.2,0,0,1-59.8-9.1,46.2,46.2,0,0,1,59.8,9.1Z"/><path class="cls-7" d="M177,71.3a46,46,0,0,1,0-60.4,46,46,0,0,1,0,60.4Z"/><path class="cls-7" d="M134.9,51.2a46.1,46.1,0,0,1-31-9A46.2,46.2,0,0,1,86.4,15.1a46.1,46.1,0,0,1,48.5,36.1Z"/><path class="cls-7" d="M149.8,97.8a46.3,46.3,0,0,1-31.6,6.6A45.4,45.4,0,0,1,90.1,88.7a46.1,46.1,0,0,1,31.5-6.6A45.6,45.6,0,0,1,149.8,97.8Z"/><path class="cls-7" d="M184.6,59.4a45.8,45.8,0,0,1-25.5,19.7,46.2,46.2,0,0,1-32.2-1.9,46.1,46.1,0,0,1,57.7-17.8Z"/><path class="cls-7" d="M210.1,121.4a46.2,46.2,0,0,1-37-47.8,46.2,46.2,0,0,1,37,47.8Z"/><path class="cls-7" d="M154,148.4a46.3,46.3,0,0,1,16.8-58.1A46.3,46.3,0,0,1,154,148.4Z"/><path class="cls-7" d="M200.5,81A46.2,46.2,0,0,0,249,45a46,46,0,0,0-31,8.9A46.5,46.5,0,0,0,200.5,81Z"/><path class="cls-7" d="M111,81.4a46.3,46.3,0,0,1-60.1-6.1A46,46,0,0,1,111,81.4Z"/><path class="cls-7" d="M92,140.6a46,46,0,0,1-25-20.3,46.7,46.7,0,0,1-5.6-31.8A46,46,0,0,1,92,140.6Z"/><path class="cls-7" d="M75.2,60.5A46.1,46.1,0,0,0,83,1.4H81.5A45.3,45.3,0,0,0,67.6,29.2,45.9,45.9,0,0,0,75.2,60.5Z"/><path class="cls-7" d="M211.5,51.6a45.3,45.3,0,0,1-26.7,18.1,45,45,0,0,1-32-3.8,46.1,46.1,0,0,1,58.7-14.3Z"/><path class="cls-7" d="M201.9,97.3a46.1,46.1,0,0,1-23.5,55.6,45.4,45.4,0,0,1,1.3-32.2A46.5,46.5,0,0,1,201.9,97.3Z"/><path class="cls-7" d="M243.7,71.8A46.1,46.1,0,0,1,249,132a46.1,46.1,0,0,1-5.3-60.2Z"/><path class="cls-7" d="M198.1,47a46.2,46.2,0,0,1,31,51.9,45.6,45.6,0,0,1-25.2-20.1A46.2,46.2,0,0,1,198.1,47Z"/><path class="cls-7" d="M252.3,7.6a45.7,45.7,0,0,1-10,30.7,46.3,46.3,0,0,1-27.7,16.6A46.3,46.3,0,0,1,252.3,7.6Z"/><path class="cls-7" d="M215.4,26.5A46.4,46.4,0,0,0,202.5,1.4H173.3a44.5,44.5,0,0,0,11.6,14.5A46,46,0,0,0,215.4,26.5Z"/><ellipse class="cls-8" cx="121" cy="52.5" rx="11.3" ry="30.2"/><path class="cls-7" d="M163.1,42.5a45.9,45.9,0,0,1,48.5,36,46.2,46.2,0,0,1-48.5-36Z"/><path class="cls-7" d="M204.6,1.4c1.2,1.1,2.3,2.3,3.4,3.5a45.9,45.9,0,0,1-31.6,6.6A46.2,46.2,0,0,1,153.8,1.4Z"/><path class="cls-7" d="M113.4,34.2a45.6,45.6,0,0,1,25.5-19.6,46.1,46.1,0,0,1,32.2,1.8,45.8,45.8,0,0,1-25.5,19.7A45.6,45.6,0,0,1,113.4,34.2Z"/><path class="cls-7" d="M122.1,1.4A45.8,45.8,0,0,1,124.9,20,45.7,45.7,0,0,1,97.5,3L96.3,1.4Z"/><path class="cls-7" d="M130,1.4l-2.8,1.9a15.4,15.4,0,0,0-.8-1.9Z"/><path class="cls-7" d="M233.4,1.4a45.8,45.8,0,0,1-8.3,46.4,45.8,45.8,0,0,1-8.3-46.4Z"/><path class="cls-7" d="M249,1.4a46.5,46.5,0,0,1-25.9,0Z"/><path class="cls-7" d="M157.7,1.4a47,47,0,0,0-4.6,12.3,45.4,45.4,0,0,0,31-8.9l4-3.4Z"/><path class="cls-7" d="M190.6,7.1a42.6,42.6,0,0,1,4.8-5.7h46a47.1,47.1,0,0,1-18.8,9.5A46.1,46.1,0,0,1,190.6,7.1Z"/><path class="cls-7" d="M204,11.7A46.4,46.4,0,0,1,186.7,1.4h18A51,51,0,0,1,204,11.7Z"/><path class="cls-7" d="M149.8,51.1A46.1,46.1,0,0,1,187.5,3.8a45.8,45.8,0,0,1-10.1,30.7A46.3,46.3,0,0,1,149.8,51.1Z"/><path class="cls-7" d="M110.3,3l2.2-1.6h53.1a64,64,0,0,1,5,4.1A46.1,46.1,0,0,1,140,15.6,45.7,45.7,0,0,1,110.3,3Z"/><path class="cls-7" d="M186.7,32.2a46.3,46.3,0,0,0,16.1,28,46,46,0,0,0,30.5,10.6,46.2,46.2,0,0,0-46.6-38.6Z"/><path class="cls-7" d="M127.5,1.4a45.2,45.2,0,0,1,5,17.2A45.5,45.5,0,0,1,124,49.7a45.8,45.8,0,0,1-13.9-29.1,47.3,47.3,0,0,1,2.3-19.2Z"/><path class="cls-7" d="M274,33.4a46.3,46.3,0,0,1,0,60.4,46,46,0,0,1,0-60.4Z"/><path class="cls-7" d="M316.1,53.6a46.1,46.1,0,0,1,48.4,36,46.1,46.1,0,0,1-48.4-36Z"/><path class="cls-7" d="M301.2,7a44.5,44.5,0,0,1,12.6-5.6h24A46.4,46.4,0,0,1,360.9,16a45.3,45.3,0,0,1-31.6,6.6A45.7,45.7,0,0,1,301.2,7Z"/><path class="cls-7" d="M266.3,45.3a46.4,46.4,0,0,1,57.8-17.8,46,46,0,0,1-25.6,19.7A45.6,45.6,0,0,1,266.3,45.3Z"/><path class="cls-7" d="M269.1,1.4a45.9,45.9,0,0,1,8.7,29.8,46.7,46.7,0,0,1-27.4-17,48.2,48.2,0,0,1-6.9-12.8Z"/><path class="cls-7" d="M293.4,1.4a46.7,46.7,0,0,1-13.2,13,48.8,48.8,0,0,1-3.9-13Z"/><path class="cls-7" d="M380.3,1.4a45.4,45.4,0,0,1,9,27.3A45.5,45.5,0,0,1,378,58.9a46.3,46.3,0,0,1-2.3-57.5Z"/><path class="cls-7" d="M370.4,10.4a45,45,0,0,1,7.3-9H421a44.9,44.9,0,0,1-18.4,10.9A45.6,45.6,0,0,1,370.4,10.4Z"/><path class="cls-7" d="M319.3,1.4A46,46,0,0,0,306,24.9a46.1,46.1,0,0,0,31-9A44.8,44.8,0,0,0,349.7,1.4Z"/><path class="cls-7" d="M343.5,18.2A45.4,45.4,0,0,1,365.8,1.4h30.7a36.4,36.4,0,0,1,5.7,2.5A46.3,46.3,0,0,1,375.6,22,46.4,46.4,0,0,1,343.5,18.2Z"/><path class="cls-7" d="M356.9,22.8A45.6,45.6,0,0,1,331.8,2.6L331,1.4h24.7A45.7,45.7,0,0,1,356.9,22.8Z"/><path class="cls-7" d="M302.7,62.2a46.3,46.3,0,0,1,37.7-47.3,45.6,45.6,0,0,1-10,30.7A46.3,46.3,0,0,1,302.7,62.2Z"/><path class="cls-7" d="M263.2,14.1a46.2,46.2,0,0,1,60.4,2.5,46.4,46.4,0,0,1-30.7,10.1A45.9,45.9,0,0,1,263.2,14.1Z"/><path class="cls-7" d="M339.7,43.3a45.7,45.7,0,0,0,16,28,46.2,46.2,0,0,0,30.5,10.6,46.2,46.2,0,0,0-46.5-38.6Z"/><path class="cls-7" d="M228.4,9.8a46,46,0,0,0,30.3-8.4H231.2A51.7,51.7,0,0,0,228.4,9.8Z"/><path class="cls-7" d="M272.4,1.4a46.1,46.1,0,0,1,4.5,59.4A46.1,46.1,0,0,1,271,1.4Z"/><path class="cls-7" d="M555.1,11a45.4,45.4,0,0,1-31.6,6.6A46.2,46.2,0,0,1,495.3,2l1-.6h47.4A45.8,45.8,0,0,1,555.1,11Z"/><path class="cls-7" d="M615.4,34.6a45.5,45.5,0,0,1-27.4-17,44.9,44.9,0,0,1-8.1-16.2h23.9l2,2.4A45.9,45.9,0,0,1,615.4,34.6Z"/><path class="cls-7" d="M559.3,61.6a46.2,46.2,0,0,1,16.8-58,45.8,45.8,0,0,1,2.4,32.1A45.8,45.8,0,0,1,559.3,61.6Z"/><path class="cls-7" d="M478.2,19.5a45.2,45.2,0,0,1-9.6-18.1h19.3A46.7,46.7,0,0,1,478.2,19.5Z"/><path class="cls-7" d="M485.9,7.5a46,46,0,0,1-25.6,19.7,46.1,46.1,0,0,1-32.2-1.8A46.3,46.3,0,0,1,485.9,7.5Z"/><path class="cls-7" d="M511.3,69.5a45.7,45.7,0,0,1-27.4-17,45.8,45.8,0,0,1-9.6-30.8,46.2,46.2,0,0,1,37,47.8Z"/><path class="cls-7" d="M455.3,96.6A46.1,46.1,0,0,1,472,38.5a46.1,46.1,0,0,1-16.7,58.1Z"/><path class="cls-7" d="M501.7,29.2a46.1,46.1,0,0,0,31-9A45.7,45.7,0,0,0,547.6,1.4H520.2l-1,.7A46.2,46.2,0,0,0,501.7,29.2Z"/><path class="cls-7" d="M511.5,1.4A45.9,45.9,0,0,1,486,17.9a46.1,46.1,0,0,1-32-3.8A45.8,45.8,0,0,1,467.6,1.4Z"/><path class="cls-7" d="M503.1,45.5a46.1,46.1,0,0,1-23.5,55.6,46.1,46.1,0,0,1,23.5-55.6Z"/><path class="cls-7" d="M544.9,20a45.9,45.9,0,0,1,5.3,60.1A45.9,45.9,0,0,1,544.9,20Z"/><path class="cls-7" d="M511.6,1.4a45.9,45.9,0,0,1,18.7,45.7,46.6,46.6,0,0,1-25.2-20.2,46.9,46.9,0,0,1-6.5-25.5Z"/><path class="cls-7" d="M522.2,1.4A46.1,46.1,0,0,1,515.8,3V1.4Z"/><path class="cls-7" d="M593,3.8a45.5,45.5,0,0,1-30.6,10A45.3,45.3,0,0,1,532.8,1.4h57.4Z"/><path class="cls-7" d="M627.8,8.1a46.1,46.1,0,0,0-48.5,36.1,46.1,46.1,0,0,0,31-9A45.7,45.7,0,0,0,627.8,8.1Z"/><path class="cls-7" d="M584.7,17.4a47.6,47.6,0,0,1-10.8-16h18.2A46.8,46.8,0,0,1,584.7,17.4Z"/><path class="cls-7" d="M576,81.5a46.1,46.1,0,0,1,10.1-30.6,45.4,45.4,0,0,1,27.6-16.6,45.5,45.5,0,0,1-10,30.6A45.3,45.3,0,0,1,576,81.5Z"/><path class="cls-7" d="M474.4,9.9a46.2,46.2,0,0,1-18.9-8.5H474A48.4,48.4,0,0,1,474.4,9.9Z"/><path class="cls-7" d="M418.3,36.9a45.8,45.8,0,0,1-2.5-32.1L417,1.4h22.2a46.1,46.1,0,0,1-1.7,9.6A45.8,45.8,0,0,1,418.3,36.9Z"/><path class="cls-7" d="M322.5,1.4l-3.2,1.1a45.8,45.8,0,0,1-30.4-1.1Z"/><path class="cls-7" d="M370.3,44.8a45.5,45.5,0,0,1-27.4-17,45.5,45.5,0,0,1-9.6-26.4h12.4a46.2,46.2,0,0,1,24.6,43.4Z"/><path class="cls-7" d="M314.2,71.8a46.2,46.2,0,0,1,16.8-58,46.2,46.2,0,0,1-16.8,58Z"/><path class="cls-7" d="M360.7,4.5a46.2,46.2,0,0,0,20.4-3.1H361.5C361.2,2.4,361,3.4,360.7,4.5Z"/><path class="cls-7" d="M362.1,20.7a46.2,46.2,0,0,1-23.5,55.7,45.4,45.4,0,0,1,1.3-32.2A46.3,46.3,0,0,1,362.1,20.7Z"/><path class="cls-7" d="M409.2,1.4a45.9,45.9,0,0,1,0,54,45.8,45.8,0,0,1-13.9-29.1,45.5,45.5,0,0,1,4.8-24.9Z"/><path class="cls-7" d="M388.2,1.4a46.4,46.4,0,0,1,1.1,20.9A45.6,45.6,0,0,1,364.1,2.2l-.4-.8Z"/><path class="cls-7" d="M446.7,1.4a46.1,46.1,0,0,0-8.4,18.1,46.1,46.1,0,0,0,31-9,46.7,46.7,0,0,0,9.2-9.1Z"/><path class="cls-7" d="M435,56.8A46.1,46.1,0,0,1,472.7,9.6a46,46,0,0,1-10,30.6A45.8,45.8,0,0,1,435,56.8Z"/><path class="cls-7" d="M549,191.3a46,46,0,0,1-16.7,58,46,46,0,0,1,16.7-58Z"/><path class="cls-7" d="M577.7,275.6a46.2,46.2,0,0,1,27.4,17,45.3,45.3,0,0,1,9.5,30.8,45.7,45.7,0,0,1-27.4-17A46.2,46.2,0,0,1,577.7,275.6Z"/><path class="cls-7" d="M619.7,183.8a46.2,46.2,0,0,1-16.8,58,46.2,46.2,0,0,1,16.8-58Z"/><path class="cls-7" d="M612.3,279a46.1,46.1,0,0,1-5.3-60.2,46.1,46.1,0,0,1,5.3,60.2Z"/><path class="cls-7" d="M597.8,161.7a46.2,46.2,0,0,1,60.4,2.5,46.2,46.2,0,0,1-60.4-2.5Z"/><path class="cls-7" d="M529.4,290.8a46.2,46.2,0,0,0,48.5-36,46.1,46.1,0,0,0-31,9A45.5,45.5,0,0,0,529.4,290.8Z"/><path class="cls-7" d="M581.2,217.4a46.1,46.1,0,0,1-10,30.7,46.9,46.9,0,0,1-27.7,16.6,46.1,46.1,0,0,1,37.7-47.3Z"/><path class="cls-7" d="M384.6,59.2a45.2,45.2,0,0,1,27.4,17,45.8,45.8,0,0,1,9.6,30.8,46.7,46.7,0,0,1-27.4-17A45.9,45.9,0,0,1,384.6,59.2Z"/><path class="cls-7" d="M440.7,32.1a46.3,46.3,0,0,1-16.8,58.1,46.3,46.3,0,0,1,16.8-58.1Z"/><path class="cls-7" d="M392.8,83.2a46,46,0,0,1,23.6-55.6,46,46,0,0,1-23.6,55.6Z"/><path class="cls-7" d="M481,70.5a45.3,45.3,0,0,1-11.3-30.2A45.7,45.7,0,0,1,481,10.1a46.3,46.3,0,0,1,0,60.4Z"/><path class="cls-7" d="M438.9,50.4a46.1,46.1,0,0,1-31-9,45.7,45.7,0,0,1-17.5-27.1,46.1,46.1,0,0,1,48.5,36.1Z"/><path class="cls-7" d="M453.8,97a45.4,45.4,0,0,1-31.6,6.6A46.2,46.2,0,0,1,394,88a46,46,0,0,1,31.6-6.7A46.8,46.8,0,0,1,453.8,97Z"/><path class="cls-7" d="M488.6,58.6a46.1,46.1,0,0,1-25.5,19.7,45.6,45.6,0,0,1-32.2-1.9,45.6,45.6,0,0,1,25.5-19.6A46.1,46.1,0,0,1,488.6,58.6Z"/><path class="cls-7" d="M376.9,105.5a46,46,0,0,1,0-60.4,46,46,0,0,1,0,60.4Z"/><path class="cls-7" d="M452.2,41.8a46,46,0,0,1-10,30.6A45.3,45.3,0,0,1,414.5,89a46.1,46.1,0,0,1,37.7-47.2Z"/><path class="cls-7" d="M491.7,89.8a46.3,46.3,0,0,1-30.6,10.1,45.5,45.5,0,0,1-29.7-12.6,45.5,45.5,0,0,1,30.6-10A46.1,46.1,0,0,1,491.7,89.8Z"/><path class="cls-7" d="M415.2,60.6a46,46,0,0,0-46.5-38.5A45.8,45.8,0,0,0,384.8,50,45.4,45.4,0,0,0,415.2,60.6Z"/><path class="cls-7" d="M483.3,103.4a46.6,46.6,0,0,1-13.9-29.1A46,46,0,0,1,478,43.2a46.1,46.1,0,0,1,5.3,60.2Z"/><path class="cls-7" d="M340.8,65.4a46.2,46.2,0,0,1-16.8,58,45.9,45.9,0,0,1,16.8-58Z"/><path class="cls-7" d="M292.9,116.5a46.3,46.3,0,0,1,23.5-55.7,46.3,46.3,0,0,1-23.5,55.7Z"/><path class="cls-7" d="M338.9,83.6a45.9,45.9,0,0,1-48.4-36,46.1,46.1,0,0,1,48.4,36Z"/><path class="cls-7" d="M353.8,130.3a46.1,46.1,0,0,1-59.7-9.1,46.1,46.1,0,0,1,59.7,9.1Z"/><path class="cls-7" d="M277,138.7a46,46,0,0,1,0-60.4,46.3,46.3,0,0,1,0,60.4Z"/><path class="cls-7" d="M311.5,119a46.1,46.1,0,0,1-58.7,14.3A46.1,46.1,0,0,1,311.5,119Z"/><path class="cls-7" d="M352.3,75a46.3,46.3,0,0,1-37.7,47.3A46.1,46.1,0,0,1,352.3,75Z"/><path class="cls-7" d="M315.3,93.9a46.2,46.2,0,0,0-46.5-38.6,46.2,46.2,0,0,0,46.5,38.6Z"/><path class="cls-7" d="M120.2,46.3a45.6,45.6,0,0,1,16.9-27.4,46.4,46.4,0,0,1,30.8-9.7,45.7,45.7,0,0,1-17,27.5A45.5,45.5,0,0,1,120.2,46.3Z"/><path class="cls-7" d="M15.8,24.6A46,46,0,0,1,73.5,6.8,45.8,45.8,0,0,1,48,26.5,46.2,46.2,0,0,1,15.8,24.6Z"/><path class="cls-7" d="M123.6,33.6A45.9,45.9,0,0,1,112.4,3.4v-2h22.5v2A45.5,45.5,0,0,1,123.6,33.6Z"/><path class="cls-7" d="M131.3,21.7a46,46,0,0,1-25.6,19.7,46.2,46.2,0,0,1-32.2-1.9,46.1,46.1,0,0,1,57.8-17.8Z"/><path class="cls-7" d="M147.1,43.3a46,46,0,0,0,31-8.9A46,46,0,0,0,195.6,7.3a46.3,46.3,0,0,0-48.5,36Z"/><path class="cls-7" d="M158.1,14a46.2,46.2,0,0,1-26.7,18.1,46.1,46.1,0,0,1-32-3.8,45.6,45.6,0,0,1,26.7-18.1A45,45,0,0,1,158.1,14Z"/><path class="cls-7" d="M58,1.4A46.3,46.3,0,0,1,27.9,7.1,46.7,46.7,0,0,1,11.7,1.4Z"/><path class="cls-7" d="M119.8,24.1a45.9,45.9,0,0,1-27.4-17,47,47,0,0,1-3.8-5.7h26.6A46.3,46.3,0,0,1,119.8,24.1Z"/><path class="cls-7" d="M63.7,51.1a46.1,46.1,0,0,1-2.4-32.2A45.1,45.1,0,0,1,70.8,1.4H83.4a45.9,45.9,0,0,1-.5,23.8A45.8,45.8,0,0,1,63.7,51.1Z"/><path class="cls-7" d="M6.1,18.6a46.1,46.1,0,0,0,31-9,44.2,44.2,0,0,0,8.5-8.2H13.9A47,47,0,0,0,6.1,18.6Z"/><path class="cls-7" d="M26.7,1.4c.7,1.1,1.5,2.2,2.2,3.4a45.9,45.9,0,0,1,5.8,31.7A46,46,0,0,1,9.5,16.4a48.3,48.3,0,0,1-5.7-15Z"/><path class="cls-7" d="M82,1.4A47.7,47.7,0,0,1,66.8,3.3,47.7,47.7,0,0,1,55.4,1.4Z"/><path class="cls-7" d="M110.1,1.4a50.3,50.3,0,0,0-8.9,5.2,46.3,46.3,0,0,0-17.5,27,46,46,0,0,0,31-8.9A46.4,46.4,0,0,0,131.2,1.4Z"/><path class="cls-7" d="M89.1,6.8a40.4,40.4,0,0,1-4.8-5.4h8.1A48.6,48.6,0,0,1,89.1,6.8Z"/><path class="cls-7" d="M133.1,587.7a119,119,0,0,0,4.8-42,65.2,65.2,0,0,1,5,29.5,166.2,166.2,0,0,0,12.7-50.1c6.8,17.3,8.9,35.6,7.9,54.5,1.9-8.8,4.1-17.4,9.3-24.5a64.6,64.6,0,0,0,5.4,28.4c-.3-11.6,1.9-21.7,6.9-30.4-.8,12.7,1.2,24,6.3,33.8l-17.3,14.8-34.7,6.7Z"/><path class="cls-7" d="M564,584.9c-3.9-13.7-10.1-37-9.2-51.3-3.9,9.4-9,33-8.3,43.2a163.4,163.4,0,0,1-12.8-50.1c-6.8,17.3-8.9,35.6-7.9,54.5-1.8-8.8-4.1-23.3-9.3-30.5.3,10.2-1.5,25.6-5.4,34.4.3-11.6-1.9-21.8-6.9-30.4.9,12.7-1.2,24-6.3,33.8l17.3,14.7,34.7,6.7C552,603.1,561.9,591.8,564,584.9Z"/><path class="cls-6" d="M251.7,537.6a79.6,79.6,0,0,0,3.1-27.9,42.3,42.3,0,0,1,3.3,19.5,111,111,0,0,0,8.5-33.2c4.5,11.5,5.9,23.6,5.2,36.2,1.2-5.9,2.7-11.6,6.2-16.3a41.6,41.6,0,0,0,3.5,18.9c-.1-7.7,1.3-14.5,4.6-20.2-.5,8.4.8,15.9,4.2,22.4l-11.5,9.8-23,4.5C254.4,546.7,253,542.1,251.7,537.6Z"/><path class="cls-6" d="M387.6,546.9a77.4,77.4,0,0,0,3.2-27.9,43.9,43.9,0,0,1,3.3,19.6,111.7,111.7,0,0,0,8.5-33.3c4.5,11.5,5.9,23.6,5.2,36.2,1.2-5.8,2.7-11.5,6.2-16.3a41.4,41.4,0,0,0,3.5,18.9c-.2-7.7,1.3-14.4,4.6-20.2-.5,8.5.8,15.9,4.2,22.4-3.8,3.3-7.6,6.6-11.5,9.8l-23,4.5Z"/><path class="cls-5" d="M213.2,487a82.1,82.1,0,0,1-3.2-27.9,43.8,43.8,0,0,0-3.2,19.6,111.8,111.8,0,0,1-8.5-33.2c-4.5,11.4-5.9,23.6-5.2,36.1-1.2-5.8-2.7-11.5-6.2-16.3a42.5,42.5,0,0,1-3.6,18.9c.2-7.7-1.2-14.4-4.5-20.2.5,8.5-.9,15.9-4.2,22.4l11.4,9.8,23.1,4.5Z"/><path class="cls-5" d="M484.7,472.3a82.1,82.1,0,0,1-3.2-27.9,43.6,43.6,0,0,0-3.2,19.5,108.1,108.1,0,0,1-8.5-33.2c-4.5,11.5-5.9,23.6-5.2,36.2-1.2-5.9-2.7-11.6-6.2-16.3a43.1,43.1,0,0,1-3.6,18.9c.2-7.7-1.2-14.5-4.5-20.2.5,8.4-.9,15.9-4.2,22.4l11.4,9.8,23.1,4.5C482,481.4,483.3,476.8,484.7,472.3Z"/></svg>