<svg id="publicdomainvectors.org" xmlns="http://www.w3.org/2000/svg" viewBox="0 0 660 660"><defs><style>.cls-1{fill:#f1f2b2;}.cls-2{fill:#dde681;}.cls-10,.cls-11,.cls-12,.cls-13,.cls-14,.cls-2,.cls-3,.cls-5,.cls-6,.cls-7,.cls-8,.cls-9{fill-rule:evenodd;}.cls-3{fill:#d2e063;}.cls-4{fill:#a7bf39;}.cls-5{fill:#485424;}.cls-6{fill:#bad532;}.cls-7{fill:#94ac3c;}.cls-8{fill:#e0c765;}.cls-9{fill:#be5b28;}.cls-10{fill:#82341a;}.cls-11{fill:#fafbe9;}.cls-12{fill:#82983b;}.cls-13{fill:#cadb37;}.cls-14{fill:#2c3117;}</style></defs><title>LANDSCAPE24</title><rect class="cls-1" width="658.7" height="658.72"/><path class="cls-2" d="M658.7,293.5v101H0V295.6c12.4-11.2,25.8-17.7,38.6-17.7,10.4,0,19.4,4.2,26.7,11.7,19.8-29,44.2-47.3,67.4-47.3,29.4,0,49,29.5,53.1,72.8,11.8-30.8,32.6-53,51.8-53s29.1,18.9,30.4,46c12.6-11.6,26.1-18.3,39.1-18.3a31.5,31.5,0,0,1,4.4.3c13.4-20.7,30.3-34,46.4-34,11.8,0,21.2,7.3,27.4,19.3,13.9-11,28.6-17.3,42.8-17.3,29.4,0,49.9,26.8,56.7,67.5,13.1-26.8,32.5-45,50.6-45,14.8,0,25.6,12.3,30.3,31.5,17.4-24.5,38.6-39.9,58.6-39.9C638.7,272.2,650.4,280.1,658.7,293.5Z"/><path class="cls-3" d="M650.5,394.5c3.9-25.7-6.4-45.1-25.4-45.1-14.7,0-31,11.6-42.7,28.8-1.8-17.8-11.6-29.7-26.8-29.7a37.7,37.7,0,0,0-17.3,4.6c-5.4-12.5-15.5-20.2-29.1-20.2-18.6,0-39,14.3-54,35.6-1.1-19-11-32.1-26.8-32.1-11.8,0-24.6,7.3-35.4,18.9-2.4-9.1-8.4-15-17.2-15-10.7,0-22.4,8.7-30.7,21.4-3.3-19.3-14.8-32-32.1-32-8.4,0-17.2,3-25.6,8.2-3.4-5.7-8.8-9.2-15.8-9.2-9.4,0-19.7,6.3-28,16.2l-2.6-.2c-7.7,0-15.8,3.2-23.4,8.7-.2-12.8-6.6-21.8-17.1-21.8s-24,10.5-31.6,25.1c-1.5-20.5-12.5-34.5-29.8-34.5-13.7,0-28.4,8.7-40.7,22.4a23.4,23.4,0,0,0-15.5-5.5c-21.5,0-46.2,24.7-55.5,55.4Z"/><rect class="cls-4" y="394.5" width="658.7" height="264.22"/><polygon class="cls-5" points="0 537 274.1 542.4 96.4 557.8 363.1 563.3 75.5 576 354 598.6 481.9 544.2 594.3 440.8 658.7 240.4 658.7 658.7 0 658.7 0 537"/><path class="cls-6" d="M75.5,576l226.3,27.5c39.4,4.7,74.1.2,110.9-14.5l43.2-17.3c30.3-12.1,54-27.9,76.9-51.2L568,484.7c27.9-28.2,45.5-58.6,56.3-96.8l34.4-122.1V188.7L601.8,371.3C589,412,568.5,444,536.6,472.4l-39.4,35.1a212.2,212.2,0,0,1-50.4,33.9l-42.4,20.9c-35.4,17.5-69.6,24.7-109.1,23Z"/><polygon class="cls-7" points="0 410.9 482.5 415.4 56.2 428.1 529.7 442.6 190.4 463.5 476.1 475.3 0 494.3 0 410.9"/><path class="cls-8" d="M90.2,0,68.4,427.2H112L102.9,0ZM367,427.2,347.8,0H329.4l-4.2,427.2ZM208.7,426,213.6,0h24.2l13.9,427.2-43-1.2ZM137.4,0l-7.6,427.2h37.5L152,0Z"/><polygon class="cls-9" points="66.5 0 69.8 62 112.8 2.7 70.3 72.1 78.1 219.3 164.7 43.1 174.2 44.9 80.3 260.8 90.1 445.3 7.6 445.3 22.1 0 66.5 0"/><polygon class="cls-10" points="7.6 445.3 22.1 0 44.3 0 53.8 445.3 7.6 445.3"/><path class="cls-11" d="M68.7,0l3.1,58.3L68.1,66,64.4,0Zm46.1,6.9-4-1.6L68.2,75.1l8.2,149.2,3.6-9.6L72.5,75.8,114.8,6.9Zm61.4,38.7L82.5,261.1l9.7,184.1-4.2.2L78.2,260.5l94-216.3Z"/><polygon class="cls-9" points="214.1 445.3 204.2 287.6 291.9 103.4 290.1 89.8 201.8 249.8 192.3 98.8 240.2 0 233.9 0 190.5 70.3 186 0 161.5 0 142.4 445.3 214.1 445.3"/><path class="cls-11" d="M212,445.5,202,287.2l88-184.7,3.8,1.8L206.3,288l10,157.2-4.3.3ZM199.9,253.7l3.8-7.4-9.3-147L242.7,0h-4.9L190.1,98.4l9.8,155.3ZM188.8,73.1,183.9,0h4.3l4.2,67.2Z"/><polygon class="cls-10" points="173.8 0 178.3 445.3 142.4 445.3 152 0 173.8 0"/><polygon class="cls-9" points="323.8 0 327.1 62 349.6 18.1 327.6 72.1 333.4 181.2 397.7 24.9 407.2 26.8 335.6 222.7 347.3 445.3 264.8 445.3 279.3 0 323.8 0"/><polygon class="cls-10" points="264.8 445.3 279.3 0 301.5 0 311.1 445.3 264.8 445.3"/><path class="cls-11" d="M325.9,0,329,58.3,325.4,66,321.6,0Zm25.7,22.3-4-1.6L325.4,75.1l6.2,111.1,3.7-9.6L329.7,75.8l21.9-53.5Zm57.6,5.2L337.7,223l11.8,222.2-4.3.2L333.4,222.3,405.2,26Z"/><path class="cls-12" d="M658.7,41.8V153.7c-21,14.6-55.5,26.9-94.6,32.1C500,194.3,448,180.2,448,154.4c0-18,25.5-37.1,62.7-49.7-40.1-.1-69-11.6-69-29.7,0-22.6,44.8-46.8,100.2-54.1,52.3-6.9,95.2,3.8,99.8,24A149.8,149.8,0,0,1,657.1,42Z"/><path class="cls-5" d="M353.5,0H658.7V101.5c-45.4,3.3-80.9-7.2-85.1-25.5a149.8,149.8,0,0,1-15.4,2.9c-39,5.2-72.1-6.4-83.8-27a213.8,213.8,0,0,1-38.6,8.7c-54.9,7.2-99.3-7.4-99.3-32.7C336.5,18.4,342.7,8.7,353.5,0Z"/><path class="cls-13" d="M34.3,423.9A42.3,42.3,0,0,1,54.8,418c6.1,0,11.1,1.8,14.7,4.9a51,51,0,0,1,21.7-16.3c-3.2-4.9-3.7-11.9-.6-19.5,5.9-14.9,22.8-27,37.7-27s22,11.8,16.4,26.5c5.6,3.7,7.4,11,4.1,19.5a32.7,32.7,0,0,1-8,11.6,14.8,14.8,0,0,1,5.6,5.2c9.7-8.9,22.3-14.7,34-14.7,8.6,0,15.2,3.1,19.1,8.4,5.8-13,20.6-23.4,33.8-23.4s20.1,11,14.7,24.5a8.9,8.9,0,0,1-.8,1.7,35.4,35.4,0,0,1,10.5-1.7c9,0,15.3,4.2,17.8,10.8,9.8-13.2,26-22.8,40.8-23.5,8.1-9.4,20.2-15.9,31.3-15.9,15,0,22.4,12,16.7,26.9a16.8,16.8,0,0,1,5.2,10.1c7.9-8,18.8-13.4,28.8-13.4,15,0,22.4,12.2,16.4,27.2a45.3,45.3,0,0,1-2.7,5.4H0V420.4C12.4,416.8,27.9,416.1,34.3,423.9Z"/><path class="cls-14" d="M658.7,587.9l-61.2,26.3c-8.9-59.9-14.9-103.6,5.9-167.3-25.2,35.5-26.9,115-24.1,178.6-14-57-22.2-110.3-19-167.3-14.1,42.4-13.2,89.5-8.2,136-15.4-44-34-136.9-68.5-162.3,26,64.5,40.6,130.3,35.4,194.5-2.8-56.4-18.3-102-45.3-137.9,21.1,46.9,30.2,95.9,16.3,148.8-9.7-34.5-29.4-75.3-75.4-94.7,36.5,34.9,49.4,59.3,50.9,93.3-50.9,14.9-111.4,11.7-173.2,5.9-1.4-37.7,8.3-66.8,33.5-84-31.9,6-49.2,34.7-59.4,74.5-.2-51.7,10.7-93.8,39.5-120.2-30.7,17.1-48.6,52.4-56.3,102.1-.8-49.7-5-99.3-16.7-149a452.2,452.2,0,0,1-6.4,145.3c-7.3-43.4-20.8-77.9-42.6-100.2,12.1,28.8,17.6,61.9,15.8,99.8a375.8,375.8,0,0,1-151.4-25c11.3-33.2,27.6-60.6,58.9-70.2-30.4-1.7-53,19.8-72.5,50.7,14.3-40.7,31.6-76.3,59.8-93.4C64.1,476.6,41,506,23.8,555.7c-1.6-30,1.6-57,10.9-80.3C17.5,491.8,6.3,518.6,0,554.3V658.7H658.7Z"/></svg>