<svg id="svg4152" xmlns="http://www.w3.org/2000/svg" viewBox="0 0 744.95 1296.8"><defs><style>.cls-1,.cls-2,.cls-3,.cls-4,.cls-7{fill:#a0892c;}.cls-1,.cls-10,.cls-13,.cls-14,.cls-2,.cls-4,.cls-5,.cls-6,.cls-7,.cls-8{stroke:#000;}.cls-1{stroke-width:1.03px;}.cls-4{stroke-width:1.1px;}.cls-5,.cls-6{fill:#fc0;}.cls-5{stroke-width:0.73px;}.cls-7{stroke-width:0.89px;}.cls-8{stroke-width:1.26px;}.cls-9{fill-opacity:0.23;}.cls-10{fill:none;stroke-width:5.04px;}.cls-11,.cls-14,.cls-16{fill:#fff;}.cls-11{stroke:#615110;}.cls-12{fill:#ffd42a;stroke:#c5a420;}.cls-15{fill:#463c13;stroke:#473c13;stroke-linecap:round;stroke-linejoin:round;}.cls-16{fill-opacity:0.3;}</style></defs><title>monkey 15</title><g id="layer1"><g id="g6178"><g id="g6167"><g id="g4207"><path id="path4002" class="cls-1" d="M378,14.38l-40.81,9.84C352.69,45,374.92,98.28,323,149.44c-74.27,73.14-94.28,143.24,2.84,216.37,5.71,9.15,28.58,27.41,45.72,15.22s17.12-48.75,17.12-48.75S323,277.43,325.81,231.72,394,123.47,402.56,93c4.19-14.91-3.25-36.4-11.72-54.37l.31-.13C399,34.94,403.84,28.87,402.06,25s-9.57-4.19-17.38-.62c-.29.13-.58.29-.87.43-2.12-3.93-4.11-7.48-5.78-10.4Z"/><path id="path4006" class="cls-2" d="M371.7.49c-3.76,0-6.84,6.12-6.84,13.66s3.08,13.62,6.84,13.62,6.82-6.09,6.82-13.62S375.47.49,371.7.49ZM358.05,4.55c-3.77,0-6.82,6.1-6.82,13.63s3,13.62,6.82,13.62,6.81-6.09,6.81-13.62S361.81,4.55,358.05,4.55Zm-13.13,9.07c-3.76,0-6.81,6.12-6.81,13.65s3.05,13.63,6.81,13.63,6.81-6.1,6.81-13.63S348.69,13.62,344.92,13.62Z"/></g><g id="g4211"><path id="path4004" class="cls-2" d="M605.41,64.3c-9.85,16.14-15.38,33.94-9.66,53a57.29,57.29,0,0,0,5.59,11.93c-.41-.16-.84-.32-1.28-.47-7.15-2.36-13.91-1.38-15.09,2.19s3.66,8.38,10.81,10.75c5.63,1.87,11,1.67,13.63-.25,21.88,30.77,60.9,73,63.09,105.91,2.86,42.86-62.84,94.28-62.84,94.28s0,34.29,17.12,45.72,40-5.71,45.72-14.28c97.14-68.57,77.16-134.3,2.88-202.87-44.09-40.69-41.24-69.25-32-89.91l-38-16Z"/><path id="path4023" class="cls-2" d="M611,52.48c3.77,0,6.85,6.12,6.85,13.66S614.77,79.76,611,79.76s-6.81-6.09-6.81-13.62S607.24,52.48,611,52.48Zm13.66,4.06c3.76,0,6.81,6.1,6.81,13.63s-3.05,13.62-6.81,13.62-6.81-6.09-6.81-13.62S620.89,56.54,624.66,56.54Zm13.12,9.07c3.77,0,6.82,6.12,6.82,13.65s-3.05,13.63-6.82,13.63S631,86.79,631,79.26,634,65.61,637.78,65.61Z"/></g><path id="path4097" class="cls-3" d="M50.46,810.32C21.34,848-8.81,932.18,2.38,1012.71c7.88,62.81,46.37,150.41,102.55,178.58,88.65,47.86,228.09,46.55,294.19,9.53s109-132.26,130-174c6.05-19.27-20-3.41-34.22-15.17-34.59,50-31.86,93.39-95,148s-209.66,53.43-299.14-3.81c-96.16-85-112.86-245.95-35.53-349.66,25.53-27.85,98.11-25.12,117.15-9.68s-46.54,42.4-68.28,49.12c32.34-2.35,97.16-32.6,75-50.3-35.4-30-109.58-22.74-138.7,15Z"/><path id="path3998" class="cls-2" d="M306.63,950.68c-97.15,68.57-77.15,134.29-2.86,202.86s5.71,120,5.71,120c-2,3.57-5.35,6.91,1.22,10.9s16.46-19.36,21.64-16.24-22.62,15.15-12.59,20.57c15.21,8.2,16.65-10.28,20-9.3s-11.67,11.74-3.45,15.84,16.08-5.55,20.27-13c2.85-11.42,35.39-47.32,26.81-75.89s-73.9-87.22-76.76-130.07,62.86-94.29,62.86-94.29,0-34.28-17.15-45.71-40,5.71-45.71,14.29Z"/><path id="path4000" class="cls-2" d="M678.56,930.47c97.15,68.57,77.15,134.29,2.86,202.86s-5.71,120-5.71,120c2,3.57,5.35,6.91-1.22,10.9S658,1244.87,652.85,1248s22.62,15.15,12.59,20.57c-15.21,8.2-16.65-10.28-20-9.3s11.67,11.74,3.45,15.84-16.08-5.55-20.27-12.95c-2.85-11.42-35.39-47.32-26.81-75.89s73.9-87.22,76.76-130.07S615.7,961.9,615.7,961.9s0-34.28,17.15-45.71,40,5.71,45.71,14.29Z"/></g><g id="g6153"><path id="path3985" class="cls-4" d="M485.12,547.68c-36.1-3.25-75.46,18.22-83.74,55.2-10.84,39.49-8.44,82.16-26.82,119.64-15.63,38-42.74,69.36-65.28,103.17-17.44,27-21,60.88-11.2,91.26C310.72,966.31,349,1008.18,398,1023c76.38,25.57,168.59,14.33,229.64-40.76,41.45-38.13,54.1-106.72,21.6-154.4-17.52-26.21-35.52-53.12-41.15-84.79-12.44-50.75-2.43-108.34-33.58-153.28-20.48-27.65-55.4-42.78-89.44-42.11Z"/><path id="path3993" class="cls-5" d="M488.48,606.1c-21-1.88-38.54-4.15-51.27,57-.64,3.08-6,25.15-6.72,28.36-7.23,26.33-5.62,54.78-17.89,79.78-10.42,25.36-28.5,46.26-43.53,68.81-11.63,18-14,40.59-7.47,60.86,8.43,32.91,33.95,60.84,66.67,70.73,50.93,17.06,112.43,9.56,153.15-27.18,27.63-25.43,36.08-71.17,14.4-103C584.14,824,572.13,806.09,568.38,785c-8.29-33.84-5.18-74.39-11-110.79-6.52-45.47-9.23-28.53-13.11-39.79-20.11-58.55-36.49-28.68-55.82-28.3Z"/></g><g id="g6115"><g id="g6040"><g id="g6036"><path id="path3977" class="cls-2" d="M522.64,473.57c32.58,22.1,79.48,9.8,104.76-27.48s19.37-85.4-13.21-107.49-79.48-9.79-104.76,27.48S490.07,451.48,522.64,473.57Z"/><path id="path3975" class="cls-2" d="M459.64,475.59c-32.57,22.1-79.48,9.8-104.76-27.48s-19.36-85.4,13.22-107.49,79.47-9.79,104.75,27.48S492.22,453.5,459.64,475.59Z"/></g><g id="g6032"><path id="path3979" class="cls-6" d="M538,450.92c21.64,14.69,52.81,6.51,69.61-18.25s12.87-56.75-8.78-71.43-52.81-6.51-69.61,18.25S516.35,436.24,538,450.92Z"/><path id="path3981" class="cls-6" d="M443.28,450.92c-21.65,14.69-52.82,6.51-69.62-18.25s-12.87-56.75,8.78-71.43,52.82-6.51,69.61,18.25S464.92,436.24,443.28,450.92Z"/></g></g><g id="g6085"><path id="path3962" class="cls-7" d="M493.12,332.29c-34.53,1.87-64.81,29.8-70.87,63.65-3.5,16.24-5.93,32.69-8.95,49-11.63,11.67-26.1,21.27-34.84,35.82-16.33,24-12.49,55.47-3.43,81.42,12.26,35.72,49,57,85.05,61.27,23,2.69,46.14-1.37,69.08-3.15,19.12-3.35,35.78-14.38,51.72-24.84,21.27-17.39,27.78-46.65,29.35-72.84,1.53-28.32-9.56-57.43-32-75.44-5.09-10.11,1.8-23.44-1.85-34.85-4.24-34.46-27.09-68.89-62.07-77.75a75.52,75.52,0,0,0-21.23-2.31Z"/><g id="g6057"><g id="g6052"><path id="path3965" class="cls-8" d="M450.16,525.64a29,29,0,0,0-22.61,12.5A31.14,31.14,0,0,0,422,556.61a34.35,34.35,0,0,0,6.67,19.13,47.54,47.54,0,0,0,8.5,9.08,45.47,45.47,0,0,0,13.66,7.88,29.12,29.12,0,0,0,17.5,1.28,26.57,26.57,0,0,0,14.28-9.41,39,39,0,0,0,8.17-21,32.07,32.07,0,0,0-6.68-22.89,42.33,42.33,0,0,0-33.94-15.08Z"/><path id="path4219" class="cls-9" d="M453.47,526.72a32.34,32.34,0,0,0-25.2,13.93,34.79,34.79,0,0,0-6.19,20.59,38.24,38.24,0,0,0,7.45,21.33A52.84,52.84,0,0,0,439,592.69a50.84,50.84,0,0,0,15.23,8.79,32.54,32.54,0,0,0,19.5,1.42,29.62,29.62,0,0,0,15.92-10.49,43.42,43.42,0,0,0,9.1-23.36,35.77,35.77,0,0,0-7.44-25.52c-5.68-7.12-13.76-12-22.38-14.79a46.76,46.76,0,0,0-15.46-2Z"/><path id="path3967" class="cls-10" d="M457.86,609.87c-15.43,3.81-30.84-8-42.06-22.43"/></g><g id="g6012"><g id="g4275"><path id="path3971" class="cls-11" d="M492.71,411.11c0,16.49-10,29.85-22.28,29.85s-22.28-13.36-22.28-29.85,10-29.85,22.28-29.85S492.71,394.63,492.71,411.11Z"/><g id="g4267"><path id="path4223" class="cls-12" d="M487.07,418.79c0,11-6.65,19.9-14.85,19.9s-14.85-8.91-14.85-19.9,6.65-19.9,14.85-19.9S487.07,407.8,487.07,418.79Z"/><path id="path4241" class="cls-9" d="M473.74,401.39a1.26,1.26,0,0,0-1,1.09.89.89,0,0,1,0,.28c-.11.27-.16.27-.18.25s0-.06-.07.38c0,.21,0,.43,0,.65a2.61,2.61,0,0,1,0,.28s.06,0,0,.1a.21.21,0,0,0,0,.12.9.9,0,0,0,.06.22c0,.08.12.14.1.22s-.15.12-.22.19c.1.26.08.22.06.18a.74.74,0,0,0,0,.19c0,.09.08.16.1.25a1.34,1.34,0,0,1,0,.66l-.12.15c0,.06-.18.09-.16.16.08.24.47.07.41.44-.11.67-.18.54-.22.37a.52.52,0,0,0,0,.13c.24.25-.13.27-.12.5s.46.13-.16.53c0,.22.26.23.31.37s-.12.17-.09.25.27.2.31.35-.1.27-.09.4a2.1,2.1,0,0,0,.09.5c0,.16,0,.32-.09.47s-.15.26-.19.41a1,1,0,0,0,0,.25,2.13,2.13,0,0,0,0,.25c0,.45.14-.06,0,.34l.06.13-.22,0a1.34,1.34,0,1,0,2.47,1,1.5,1.5,0,0,0,.19-.25c.14-.3.2-.64.34-.94s.05-.11-.22-.34c0-.1.2-.15.19-.25s-.2-.14-.25-.25c-.14-.33,0-.57.13-.88-.09-.16-.27-.31-.28-.5s.36-.64.37-.75-.14-.15-.16-.25.2-.23.16-.37-.11-.15.09-.38c0-.08-.19-.07-.21-.15s.11-.09.12-.16-.16-.31-.19-.34c.13-.41.37-.89,0-1.25a1.11,1.11,0,0,0,.07-.16c0-.16-.09-.34,0-.5s.15-.17.18-.28-.09-.26,0-.38-.15-.05-.19-.12.21-.19.19-.31-.19-.15-.19-.25.12-.21.19-.32v-.4l-.15-.16a1.12,1.12,0,0,1,.09.47s-.13,0-.16,0a.53.53,0,0,1,0-.53s.08,0,.1,0,0,0-.07-.06.17-.32.28-.5a1.28,1.28,0,0,0-1.46-1.6Zm-1.34,3s0-.07,0-.1,0,0-.22.1C472.25,404.42,472.37,404.48,472.4,404.42Zm-3.62-2.53a1.16,1.16,0,0,0-.94,1l-.19.56a1.16,1.16,0,1,0,2.28.37l.16-.5a1.14,1.14,0,0,0-1.31-1.43Zm9.31,3.31a1.3,1.3,0,0,0-.88.56l-.37.5a1.19,1.19,0,1,0,2,1.22c.09-.1.19-.19.28-.28a1.22,1.22,0,0,0-1.06-2Zm-13.56.65a1.13,1.13,0,0,0-1,1.63s.08.89.34,1c.06,0,0-.13,0-.19.11.21.26.4.38.6a1.41,1.41,0,0,0-.07.28l-.12,0a.69.69,0,0,0,.15.15.52.52,0,0,0,.25.06.53.53,0,0,0,0-.12.79.79,0,0,0-.22-.06.49.49,0,0,1,.16-.1,1,1,0,0,1,.06.16l.16.06a1.47,1.47,0,0,0,0,.66c0,.09.21,0,.31,0s.14-.27.16-.19a2.23,2.23,0,0,1-.06.56l.59.35a2.33,2.33,0,0,0-.25.06c1.56.13.75.61.31.69,0,.2,0,.31.13.06a1.25,1.25,0,1,0,2.15-1.28c0,.14,0,.27,0,.25s-.18-.24-.22-.41c0,.08,0,.15-.09.16s0-.35-.06-.57-.07-.16-.1-.21l.06.06a3,3,0,0,0-.43-1s-.05.06-.1.06l0,.59a4.49,4.49,0,0,1,0-.84s0,0,0,0,0-.07,0-.09a.46.46,0,0,0,.1.18h0a3.38,3.38,0,0,0-.13-.53c0-.07,0,.11,0,.22v.09a2.16,2.16,0,0,0-.18-.56,1.27,1.27,0,0,0-.44-.28c.06.12.14.25.19.38s-.3-.29-.41-.44a.33.33,0,0,1-.06-.1l.12.07a.83.83,0,0,0,.16.09l0-.06c0-.07-.09-.13-.13-.19a.07.07,0,0,1,0,.06s-.07,0-.09,0a1.07,1.07,0,0,0-.1-.22,2.44,2.44,0,0,0-.31-.22,1.15,1.15,0,0,0-1.09-.78Zm2.43,2.66v-.16s-.07.13,0,.16Zm0-.16s.08.06.1.1a.39.39,0,0,0-.1-.16S467,408.34,467,408.35Zm.54,1.1a.32.32,0,0,0,0,.09s0,0,0,.06l.09.16a1.53,1.53,0,0,1,.06.25,1.34,1.34,0,0,0,0-.34s0,0,0,0a.33.33,0,0,1,0-.1s-.07-.05-.06,0l-.07-.06Zm-1.85,1.94a.66.66,0,0,0-.22-.5c-.11-.12-.05.32,0,.46S465.55,411.4,465.65,411.39Zm-.66-1.1c0-.13,0-.29-.06-.37h0s0,.07,0,.09S465,410.2,465,410.29Zm-.53-.94h-.12c.07,0,.13.08.12,0S464.47,409.36,464.46,409.35Zm.53,1a.55.55,0,0,0,.16.5c.05,0,0-.12-.06-.18a1.08,1.08,0,0,1,.19,0C465.14,410.7,465.08,410.6,465,410.35Zm16.66.63a1.23,1.23,0,0,0-.47,2.31c.4.22.49.2.66.53h-.25l-.1.13s.11.05.19.25a.41.41,0,0,1,0,.22,1.27,1.27,0,1,0,2.53,0c.32-.28,0-.11.25-.35a1.07,1.07,0,0,0,0-.25,2.8,2.8,0,0,0-.06-.28,4.47,4.47,0,0,0-.25-.81,3.37,3.37,0,0,0-.47-.53,3.93,3.93,0,0,0-.41-.57,4.2,4.2,0,0,0-.78-.43,1.35,1.35,0,0,0-.81-.22Zm-20.87.9a1.36,1.36,0,0,0-1,.91,7,7,0,0,1-.19,1.63,4,4,0,0,0-.19.68c0,.18.14.35.13.53,0,.62-.32.17,0,.54.05.06.13.13.13.21,0,.31-.22.09-.16.38,0,0,.45,1.39.5,1.44a2.55,2.55,0,0,0,.82.37l.34.13a1.36,1.36,0,0,0,1.19-2.44.42.42,0,0,0-.07-.31c0-.12-.07-.23-.12-.35a.75.75,0,0,1-.09-.25c0-.08.12-.17.09-.25s-.31-.23-.38-.4c-.21-.55.1-.66.44-1a1.31,1.31,0,0,0-1.41-1.85Zm21.34,11.85a1.26,1.26,0,0,0-1.19.87c0,.17-.08.31-.12.47a1.29,1.29,0,1,0,2.31,1.16l.12-.72A1.24,1.24,0,0,0,482.12,423.73Zm-19.75.9a1.32,1.32,0,0,0-.34,0,1.23,1.23,0,0,0-.79.65c-.06,0-.14,0-.18-.06s.05-.12,0-.09c-.52.64.11.13-.81.68a1.22,1.22,0,1,0,1.46,1.94c.18,0,.39.19.54.09s.07-.37.18-.53a6.26,6.26,0,0,1,.53-.5,4,4,0,0,0,.32-.4,1.18,1.18,0,0,0-.94-1.82Zm16.84,7.94a1.44,1.44,0,0,0-.72.41s-.13.2-.21.34l-.07,0c-.19,0-.27.14-.43.19-.86.26-.59-.05-.88.37a1.21,1.21,0,1,0,1,2.19h0c.06,0,.11,0,.16,0s0,0,0-.06l0,0a7.28,7.28,0,0,0,1.32-.22c.11,0,.57-1.06.72-1.09a1.21,1.21,0,0,0-1-2.1Zm-1.09,1.06a1.1,1.1,0,0,1-.31.38c-.1,0-.35-.14-.25-.19A3.35,3.35,0,0,1,478.12,433.63Z"/></g><g id="g4271"><path id="path4221" class="cls-13" d="M481,422.85c0,6.6-4,11.94-8.91,11.94s-8.9-5.34-8.9-11.94,4-11.93,8.9-11.93S481,416.26,481,422.85Z"/><path id="path4225" class="cls-14" d="M473.13,417.14c0,2.11-1.27,3.81-2.84,3.81s-2.85-1.7-2.85-3.81,1.28-3.81,2.85-3.81S473.13,415,473.13,417.14Z"/></g></g><g id="g4284"><path id="path4286" class="cls-11" d="M503.72,411.11c0,16.49,10,29.85,22.28,29.85s22.27-13.36,22.27-29.85-10-29.85-22.27-29.85S503.72,394.63,503.72,411.11Z"/><g id="g4288"><path id="path4290" class="cls-12" d="M509.36,418.79c0,11,6.64,19.9,14.85,19.9s14.84-8.91,14.84-19.9-6.64-19.9-14.84-19.9S509.36,407.8,509.36,418.79Z"/><path id="path4292" class="cls-9" d="M522.68,401.39a1.24,1.24,0,0,1,1,1.09,1.33,1.33,0,0,0,0,.28c.11.27.17.27.19.25s0-.06.06.38a4.64,4.64,0,0,1,0,.65,2.61,2.61,0,0,1,0,.28s0,0,0,.1a.16.16,0,0,1,0,.12.94.94,0,0,1-.07.22c0,.08-.11.14-.09.22s.15.12.22.19c-.11.26-.08.22-.06.18a1.21,1.21,0,0,1,0,.19c0,.09-.07.16-.09.25a1.34,1.34,0,0,0,0,.66l.13.15c0,.06.18.09.15.16-.07.24-.46.07-.4.44.1.67.18.54.22.37,0,.05,0,0,0,.13-.24.25.13.27.12.5s-.47.13.16.53c0,.22-.27.23-.32.37s.13.17.1.25-.28.2-.31.35.09.27.09.4a2.75,2.75,0,0,1-.09.5,3.55,3.55,0,0,0,.09.47c.05.14.15.26.19.41a1,1,0,0,1,0,.25,2.13,2.13,0,0,1,0,.25c0,.45-.14-.06,0,.34a.76.76,0,0,1-.07.13l.22,0a1.34,1.34,0,1,1-2.47,1,2.27,2.27,0,0,1-.18-.25c-.14-.3-.2-.64-.35-.94,0-.26,0-.11.22-.34,0-.1-.2-.15-.19-.25s.21-.14.25-.25c.15-.33,0-.57-.12-.88.09-.16.27-.31.28-.5s-.37-.64-.37-.75.14-.15.15-.25-.19-.23-.15-.37.1-.15-.1-.38c0-.08.2-.07.22-.15s-.11-.09-.12-.16.16-.31.18-.34c-.12-.41-.37-.89,0-1.25,0-.06-.06-.1-.06-.16s.09-.34,0-.5-.15-.17-.19-.28.09-.26,0-.38.16-.05.19-.12-.2-.19-.19-.31.2-.15.19-.25-.11-.21-.19-.32v-.4c.05-.06.11-.1.16-.16a1,1,0,0,0-.09.47s.13,0,.15,0a.51.51,0,0,0,0-.53s-.07,0-.09,0,0,0,.06-.06a5.39,5.39,0,0,0-.28-.5,1.28,1.28,0,0,1,1.47-1.6Zm1.34,3s0-.07,0-.1,0,0,.22.1C524.17,404.42,524.06,404.48,524,404.42Zm3.63-2.53a1.16,1.16,0,0,1,.94,1l.18.56a1.16,1.16,0,1,1-2.28.37l-.15-.5a1.14,1.14,0,0,1,1.31-1.43Zm-9.31,3.31a1.26,1.26,0,0,1,.87.56l.38.5a1.19,1.19,0,1,1-2,1.22c-.09-.1-.2-.19-.29-.28a1.22,1.22,0,0,1,1.07-2Zm13.56.65a1.14,1.14,0,0,1,1,1.63s-.09.89-.34,1c-.06,0,0-.13,0-.19-.11.21-.26.4-.38.6a.88.88,0,0,1,.06.28l.13,0a.8.8,0,0,1-.16.15.52.52,0,0,1-.25.06l0-.12a.9.9,0,0,1,.22-.06.56.56,0,0,0-.15-.1,1.11,1.11,0,0,0-.07.16l-.15.06c0,.23.09.45,0,.66s-.22,0-.32,0-.14-.27-.15-.19a1.85,1.85,0,0,0,.06.56l-.59.35c.1,0,.18.05.25.06-1.57.13-.76.61-.32.69,0,.2.05.31-.12.06a1.26,1.26,0,1,1-2.16-1.28c0,.14,0,.27,0,.25s.19-.24.22-.41c0,.08,0,.15.1.16s0-.35.06-.57a1.65,1.65,0,0,0,.09-.21s0,0-.06.06a3.26,3.26,0,0,1,.44-1s0,.06.09.06l0,.59a3.74,3.74,0,0,0,0-.84s0,0,0,0a.19.19,0,0,0,0-.09.61.61,0,0,1-.09.18h0a3.25,3.25,0,0,1,.12-.53c0-.07,0,.11,0,.22a.27.27,0,0,1,0,.09,1.85,1.85,0,0,1,.19-.56,1.18,1.18,0,0,1,.44-.28,2.69,2.69,0,0,0-.19.38c-.06.18.29-.29.41-.44l.06-.1-.13.07a.75.75,0,0,1-.15.09l0-.06.12-.19s0,.05,0,.06.06,0,.09,0a1,1,0,0,1,.09-.22,2.57,2.57,0,0,1,.32-.22,1.15,1.15,0,0,1,1.09-.78Zm-2.44,2.66v-.16s.08.13,0,.16Zm0-.16s-.07.06-.09.1a.37.37,0,0,1,.09-.16S529.47,408.34,529.46,408.35Zm-.53,1.1,0,.09s0,0,0,.06a1.46,1.46,0,0,0-.09.16.91.91,0,0,0-.07.25c0-.1,0-.23,0-.34s0,0,0,0a.33.33,0,0,1,0-.1s.07-.05.06,0l.06-.06Zm1.84,1.94a.74.74,0,0,1,.22-.5c.11-.12.06.32,0,.46S530.88,411.4,530.77,411.39Zm.66-1.1c0-.13,0-.29.06-.37h0s0,.07,0,.09S531.46,410.2,531.43,410.29Zm.53-.94h.13c-.08,0-.14.08-.13,0Zm-.53,1a.55.55,0,0,1-.15.5s0-.12.06-.18a1.08,1.08,0,0,0-.19,0C531.29,410.7,531.35,410.6,531.43,410.35Zm-16.65.63a1.23,1.23,0,0,1,.46,2.31c-.4.22-.49.2-.65.53h.25a.59.59,0,0,1,.09.13s-.1.05-.19.25,0,.14,0,.22a1.27,1.27,0,1,1-2.53,0c-.32-.28,0-.11-.25-.35l0-.25a2.86,2.86,0,0,1,.07-.28,3.8,3.8,0,0,1,.25-.81,3.37,3.37,0,0,1,.47-.53,3.24,3.24,0,0,1,.4-.57,4.55,4.55,0,0,1,.78-.43,1.39,1.39,0,0,1,.82-.22Zm20.87.9a1.36,1.36,0,0,1,1,.91,7,7,0,0,0,.19,1.63,5.27,5.27,0,0,1,.19.68c0,.18-.14.35-.13.53,0,.62.31.17,0,.54,0,.06-.12.13-.12.21,0,.31.22.09.15.38,0,0-.45,1.39-.5,1.44a2.49,2.49,0,0,1-.81.37l-.34.13a1.36,1.36,0,0,1-1.19-2.44.47.47,0,0,1,.06-.31c.05-.12.08-.23.13-.35a.75.75,0,0,0,.09-.25c0-.08-.13-.17-.09-.25s.31-.23.37-.4c.22-.55-.09-.66-.43-1a1.3,1.3,0,0,1,1.4-1.85Zm-21.34,11.85a1.25,1.25,0,0,1,1.18.87c0,.17.09.31.13.47a1.29,1.29,0,1,1-2.31,1.16c0-.24-.09-.48-.13-.72A1.25,1.25,0,0,1,514.31,423.73Zm19.75.9a1.32,1.32,0,0,1,.34,0,1.24,1.24,0,0,1,.78.65c.06,0,.14,0,.19-.06s0-.12,0-.09c.52.64-.11.13.81.68a1.22,1.22,0,1,1-1.47,1.94c-.17,0-.38.19-.53.09s-.08-.37-.19-.53a5,5,0,0,0-.53-.5c-.12-.12-.2-.27-.31-.4a1.17,1.17,0,0,1,.94-1.82Zm-16.85,7.94a1.44,1.44,0,0,1,.72.41s.14.2.22.34l.06,0c.2,0,.28.14.44.19.85.26.59-.05.87.37a1.21,1.21,0,1,1-1,2.19h0c-.06,0-.1,0-.15,0s0,0,0-.06l0,0a7.17,7.17,0,0,1-1.31-.22c-.12,0-.57-1.06-.72-1.09a1.21,1.21,0,0,1,1-2.1Zm1.09,1.06a1.09,1.09,0,0,0,.32.38c.1,0,.35-.14.25-.19A3.81,3.81,0,0,0,518.3,433.63Z"/></g><g id="g4294"><path id="path4296" class="cls-13" d="M515.45,422.85c0,6.6,4,11.94,8.9,11.94s8.91-5.34,8.91-11.94-4-11.93-8.91-11.93S515.45,416.26,515.45,422.85Z"/><path id="path4298" class="cls-14" d="M523.29,417.14c0,2.11,1.28,3.81,2.85,3.81s2.84-1.7,2.84-3.81-1.27-3.81-2.84-3.81S523.29,415,523.29,417.14Z"/></g></g><path id="path5956" class="cls-15" d="M435.1,398.05l9.41,3.37c2.47-8.75,5.41-17.3,11-24a18.67,18.67,0,0,1,7.21-5.77h0a11.79,11.79,0,0,1,8.38,0A127,127,0,0,0,484.26,376h0a21.4,21.4,0,0,0,2.38.5h0l.49.05h.11l-.11,0-.47-.13h0a23.66,23.66,0,0,1-2.26-.84h0a128,128,0,0,1-12.24-6.24,15.16,15.16,0,0,0-10.65-1.53h0a23.28,23.28,0,0,0-10.12,5.71C444,380.19,439,389.19,435.1,398Z"/><path id="path5960" class="cls-15" d="M550.6,399.91l9.41-3.38c-3.84-8.85-8.86-17.85-16.29-24.6a23.38,23.38,0,0,0-10.12-5.71A15.22,15.22,0,0,0,523,367.75h0A123.49,123.49,0,0,1,510.71,374l-2.88,1h0l3-.55A128.53,128.53,0,0,0,524,370.1h0a11.77,11.77,0,0,1,8.39,0,18.8,18.8,0,0,1,7.21,5.76c5.56,6.71,8.5,15.26,11,24Z"/></g><g id="g6048"><path id="path3969" d="M492.54,453.88a18.26,18.26,0,0,0-14.43,7.71c-3.29,4.73-4.54,10.6-4.56,16.28a28.06,28.06,0,0,0,5.08,16.28,18.16,18.16,0,0,0,14.62,7,31,31,0,0,0,19.2-6.71,17.64,17.64,0,0,0,6.74-12,22.37,22.37,0,0,0-3-12.47,36.8,36.8,0,0,0-9.49-11.17c-4.06-3-9-5.15-14.19-4.91Z"/><path id="path5966" class="cls-16" d="M508.49,460.29a34.78,34.78,0,0,1,4.69,6.66,22.37,22.37,0,0,1,3,12.47,17.65,17.65,0,0,1-6.72,12,31,31,0,0,1-19.22,6.71,18.16,18.16,0,0,1-11.5-3.87,18.22,18.22,0,0,0,14.53,6.91,31.05,31.05,0,0,0,19.22-6.72,17.72,17.72,0,0,0,6.72-12,22.19,22.19,0,0,0-3-12.44,36.39,36.39,0,0,0-7.72-9.69Z"/></g></g></g></g></g></g></svg>