<svg id="svg2" xmlns="http://www.w3.org/2000/svg" viewBox="0 0 707.17 718.45"><defs><style>.cls-1,.cls-13,.cls-15,.cls-17,.cls-2,.cls-4,.cls-5,.cls-6{fill:#deaa87;}.cls-1,.cls-13,.cls-14,.cls-15,.cls-17,.cls-18,.cls-2,.cls-5,.cls-6{stroke:#deaa87;}.cls-1,.cls-11,.cls-13,.cls-14,.cls-17,.cls-2,.cls-3,.cls-5,.cls-6,.cls-7,.cls-9{stroke-opacity:0.67;}.cls-1{stroke-width:1.5px;}.cls-2{stroke-width:1.58px;}.cls-11,.cls-12,.cls-14,.cls-3,.cls-7,.cls-8,.cls-9{fill:#e9c6af;}.cls-3,.cls-7{stroke:#e9c6af;}.cls-11,.cls-13,.cls-3{stroke-width:1.5px;}.cls-5{stroke-width:1.58px;}.cls-6{stroke-width:1.58px;}.cls-7{stroke-width:1.86px;}.cls-9{stroke:#333;stroke-width:2.37px;}.cls-10{fill:#666;}.cls-11{stroke:#4d4d4d;}.cls-12,.cls-16{stroke:#666;}.cls-12{stroke-width:1.7px;}.cls-14{stroke-width:1.03px;}.cls-16,.cls-18{fill:none;}.cls-16{stroke-width:2.33px;}.cls-17{stroke-width:1.41px;}.cls-18{stroke-width:14.77px;}</style></defs><title>monkey 06</title><g id="layer1"><g id="g4153"><g id="g4633"><polygon id="rect4108" class="cls-1" points="130.27 602.72 302.44 516.09 328.85 597.72 156.68 684.35 130.27 602.72"/><path id="rect3821" class="cls-2" d="M168.5,382.75H289.09A34.89,34.89,0,0,1,324,417.64h0a34.89,34.89,0,0,1-34.89,34.89H168.5a34.89,34.89,0,0,1-34.89-34.89h0A34.89,34.89,0,0,1,168.5,382.75Z"/><rect id="rect3823" class="cls-2" x="115.79" y="336.12" width="149.27" height="71.15" rx="34.21" ry="34.21" transform="translate(-227.21 374.15) rotate(-63.21)"/><path id="path3825" class="cls-3" d="M268,327.46c-21.92,21.91-54.49,24.88-72.75,6.61s-15.31-50.84,6.61-72.75,54.49-24.88,72.75-6.62S289.9,305.54,268,327.46Z"/><path id="path3801" class="cls-4" d="M232.22,186.85c0,26.87-19.63,48.65-43.85,48.65s-43.85-21.78-43.85-48.65,19.63-48.65,43.85-48.65h0c24.22,0,43.85,21.78,43.85,48.65Z"/><path id="rect3821-5" class="cls-5" d="M584.56,379.91H464a34.89,34.89,0,0,0-34.89,34.89h0A34.89,34.89,0,0,0,464,449.69H584.56a34.9,34.9,0,0,0,34.9-34.89h0A34.9,34.9,0,0,0,584.56,379.91Z"/><rect id="rect3823-6" class="cls-6" x="527.06" y="294.23" width="71.15" height="149.27" rx="34.21" ry="34.21" transform="translate(-105.86 293.18) rotate(-26.79)"/><ellipse id="path3825-8" class="cls-7" cx="518.15" cy="291.55" rx="46.77" ry="56.12" transform="translate(-54.39 451.78) rotate(-45)"/><path id="path2995" class="cls-4" d="M557.09,215.52c0,98.47-82.87,178.3-185.08,178.3h0c-102.22,0-185.08-79.83-185.08-178.3h0c0-98.47,82.86-178.29,185.08-178.29S557.09,117.05,557.09,215.52Z"/><path id="path2997" class="cls-8" d="M525.05,278.16c0,52.8-69,95.61-154,95.61h0c-85.07,0-154-42.81-154-95.61h0c0-52.8,69-95.61,154-95.61h0c85.07,0,154,42.81,154,95.61Z"/><path id="path2999" class="cls-8" d="M408.25,168c0,39.07-34.86,70.74-77.86,70.74h0c-43,0-77.85-31.67-77.85-70.74h0c0-39.06,34.86-70.73,77.85-70.73h0c43,0,77.86,31.67,77.86,70.73Z"/><path id="path3787" class="cls-9" d="M401.74,248.87c0-8.44-11.34-15.59-26.54-16.72s-29.57,4.11-33.63,12.25"/><path id="path3001" class="cls-8" d="M491.68,168c0,39.07-28.66,70.74-64,70.74h0c-35.35,0-64-31.67-64-70.74h0c0-39.06,28.66-70.73,64-70.73h0c35.34,0,64,31.67,64,70.73Z"/><path id="path3003" class="cls-10" d="M336.16,183.55c0,10.71-4.34,19.38-9.69,19.38s-9.69-8.67-9.69-19.38,4.34-19.38,9.69-19.38S336.16,172.85,336.16,183.55Z"/><path id="path3005" class="cls-10" d="M423,182.58c0,10.7-4.34,19.38-9.69,19.38s-9.69-8.68-9.69-19.38,4.34-19.38,9.69-19.38S423,171.87,423,182.58Z"/><path id="path3779" class="cls-10" d="M361.16,245.56c0,2.14-.87,3.88-1.94,3.88h0c-1.07,0-1.94-1.74-1.94-3.88h0c0-2.14.87-3.88,1.94-3.88S361.16,243.42,361.16,245.56Z"/><path id="path3781" class="cls-10" d="M385.58,245.56c0,2.14-.87,3.88-1.94,3.88h0c-1.07,0-1.94-1.74-1.94-3.88h0c0-2.14.87-3.88,1.94-3.88S385.58,243.42,385.58,245.56Z"/><path id="path3785" class="cls-11" d="M461.48,300.59C454.9,308,423.56,313.42,386,313.76S314.7,309.24,304.74,302"/><path id="path3797" class="cls-8" d="M188.53,222.73c-11.87.77-22.95-7.09-28-19.84s-3-27.85,5.19-38.09,20.76-13.58,31.82-8.43l-10.65,32Z"/><path id="path3803" class="cls-4" d="M598.5,186.85c0,26.87-19.63,48.65-43.85,48.65s-43.86-21.78-43.86-48.65,19.64-48.65,43.86-48.65h0c24.22,0,43.85,21.78,43.85,48.65Z"/><path id="path3805" class="cls-8" d="M582.28,188.38c0,19-13,34.4-29.07,34.4h0c-16.05,0-29.07-15.4-29.07-34.4h0c0-19,13-34.4,29.07-34.4h0c16.06,0,29.07,15.4,29.07,34.4Z"/><path id="path3807" class="cls-12" d="M180.7,195c-1.6-3.34,2.57-4.49,4.19-3.44,4.12,2.68,3.51,10.18.93,14.08-4.52,6.83-12.69,5.32-17.14-.77-6.42-8.8-4.65-23,2.07-30.58,5.61-6.34,13.69-7.68,20.52-4.15"/><path id="path3809" class="cls-4" d="M510.8,186.85c0,26.87,19.63,48.65,43.85,48.65s43.85-21.78,43.85-48.65-19.63-48.65-43.85-48.65h0c-24.22,0-43.85,21.78-43.85,48.65Z"/><path id="path3811" class="cls-8" d="M554.49,222.73c11.87.77,22.94-7.09,28-19.84s2.95-27.85-5.2-38.09-20.75-13.58-31.81-8.43l10.65,32Z"/><path id="path3813" class="cls-12" d="M562.31,195c1.61-3.34-2.57-4.49-4.18-3.44-4.12,2.68-3.51,10.18-.93,14.08,4.51,6.83,12.69,5.32,17.13-.77,6.42-8.8,4.66-23-2.06-30.58-5.61-6.34-13.69-7.68-20.52-4.15"/><rect id="rect3815" class="cls-13" x="262.36" y="375.82" width="220.62" height="238.45" rx="79.94" ry="79.94"/><rect id="rect3819" class="cls-14" x="303.16" y="399.72" width="137.68" height="193.32" rx="51.72" ry="51.72"/><path id="path3864" class="cls-15" d="M314.84,84.51c2.64-6.21,8.48-10.71,9.93-17.49-13.21-4.87-23.74-16.95-25.94-31-2.93-5.88-5.61-12.94-2.94-19.42,4.72-6.25,15.37-6.23,20.16-.07,6.38,4.5,13.05,9.09,20.81,10.74,3.06,7.08,15.63,4.83,16-2.87-2.23-6.55-3-13.88-.7-20.51C357-1.47,367.05.14,369.9,6.74c5,5.84,9.31,12.25,14.3,18.12,8.06-1.71,11.7-10.77,19.58-12.85a18.12,18.12,0,0,1,12.87,17.73c5.55,13.1,9.71,27.93,5.69,42.05A27.71,27.71,0,0,1,409.8,86.45"/><path id="path3998" class="cls-16" d="M368.2,564.06c-.88-1.27,1.25-1.81,2.1-1.43,2.17,1,2,3.9.72,5.48-2.21,2.77-6.45,2.36-8.84.08-3.46-3.3-2.79-8.88.54-12a10.47,10.47,0,0,1,10.5-2.08"/><polygon id="rect4112" class="cls-17" points="609.92 610.46 459.5 523.77 436.42 605.47 586.84 692.16 609.92 610.46"/><g id="g4126"><path id="path4114" class="cls-3" d="M198.56,611.85c0,40.13-24.73,72.67-55.24,72.67S88.09,652,88.09,611.85s24.73-72.68,55.23-72.68S198.56,571.71,198.56,611.85Z"/><path id="path4118" class="cls-3" d="M199.06,539.32c0,17.51-7.25,31.7-16.2,31.7h0c-8.94,0-16.19-14.19-16.19-31.7h0c0-17.5,7.25-31.69,16.19-31.69h0c8.95,0,16.2,14.19,16.2,31.69Z"/><path id="path4120" class="cls-3" d="M166.5,550.18c0,17.5-7.25,31.69-16.19,31.69h0c-8.95,0-16.2-14.19-16.2-31.69h0c0-17.51,7.25-31.7,16.2-31.7h0c8.94,0,16.19,14.19,16.19,31.7Z"/><path id="path4122" class="cls-3" d="M136.65,555.6c0,17.51-7.25,31.7-16.19,31.7h0c-8.94,0-16.19-14.19-16.19-31.7h0c0-17.5,7.25-31.69,16.19-31.69h0c8.94,0,16.19,14.19,16.19,31.69Z"/><path id="path4124" class="cls-3" d="M106.27,569.23c0,17.64-4.75,31.94-10.62,31.94h0c-5.86,0-10.62-14.3-10.62-31.94h0c0-17.64,4.76-31.94,10.62-31.94h0c5.87,0,10.62,14.3,10.62,31.94Z"/></g><g id="g4133"><path id="path4135" class="cls-3" d="M521.82,619.6c0,40.14,24.73,72.67,55.23,72.67s55.23-32.53,55.23-72.67-24.72-72.68-55.23-72.68S521.82,579.46,521.82,619.6Z"/><path id="path4137" class="cls-3" d="M521.32,547.08c0,17.5,7.25,31.69,16.19,31.69h0c8.94,0,16.19-14.19,16.19-31.69h0c0-17.51-7.25-31.7-16.19-31.7h0c-8.94,0-16.19,14.19-16.19,31.7Z"/><path id="path4139" class="cls-3" d="M553.88,557.93c0,17.5,7.25,31.7,16.19,31.7h0c8.94,0,16.19-14.2,16.19-31.7h0c0-17.51-7.25-31.7-16.19-31.7h0c-8.94,0-16.19,14.19-16.19,31.7Z"/><path id="path4141" class="cls-3" d="M583.72,563.36c0,17.5,7.25,31.69,16.19,31.69h0c9,0,16.2-14.19,16.2-31.69h0c0-17.51-7.25-31.7-16.2-31.7h0c-8.94,0-16.19,14.19-16.19,31.7Z"/><path id="path4143" class="cls-3" d="M614.1,577c0,17.64,4.76,31.94,10.62,31.94h0c5.87,0,10.62-14.3,10.62-31.94h0c0-17.64-4.75-31.94-10.62-31.94h0c-5.86,0-10.62,14.3-10.62,31.94Z"/></g><path id="path4631" class="cls-18" d="M140.76,263.24h0s0,0,0,0-.13-.19-.23-.2c-.57-.1-.92.54-1,.93-.29,2,2.39,3.09,4.17,3.21,7.41.51,11.41-7.31,11.59-12.74.65-19.77-25.45-29.86-44.18-29.64-61.1.71-90.83,63.52-88.19,109.7C29.66,451.14,167.8,520,286,526.52"/></g></g></g></svg>