<svg xmlns="http://www.w3.org/2000/svg" xmlns:xlink="http://www.w3.org/1999/xlink" viewBox="0 0 176.21 293.6"><defs><style>.cls-1{isolation:isolate;}.cls-2{fill:#a15023;}.cls-3{fill:#7d2a00;}.cls-4{fill:#8f3508;}.cls-5{fill:#6b1900;}.cls-6{fill:url(#_ÂÁ_Ï_ÌÌ_È_ËÂÌÚ_26);}.cls-7{mix-blend-mode:screen;fill:url(#_ÂÁ_Ï_ÌÌ_È_ËÂÌÚ_30);}.cls-8{fill:#d66811;}</style><radialGradient id="_ÂÁ_Ï_ÌÌ_È_ËÂÌÚ_26" cx="24" cy="312.25" r="13.78" gradientTransform="translate(110.27 -90.25) scale(0.86 0.81)" gradientUnits="userSpaceOnUse"><stop offset="0" stop-color="#fba746"/><stop offset="1" stop-color="#de731f"/></radialGradient><linearGradient id="_ÂÁ_Ï_ÌÌ_È_ËÂÌÚ_30" x1="134.37" y1="163.57" x2="132.05" y2="170.01" gradientUnits="userSpaceOnUse"><stop offset="0" stop-color="#a17745"/><stop offset="0.13" stop-color="#9c7343"/><stop offset="0.3" stop-color="#8d683d"/><stop offset="0.47" stop-color="#755732"/><stop offset="0.66" stop-color="#533e24"/><stop offset="0.85" stop-color="#291e11"/><stop offset="1"/></linearGradient></defs><title>doors</title><g class="cls-1"><g id="layer_1" data-name="layer 1"><polygon class="cls-2" points="30.17 293.6 16.56 293.6 16.14 17.27 30.59 17.27 30.17 293.6"/><polygon class="cls-2" points="159.88 293.6 146.26 293.6 145.84 17.27 160.3 17.27 159.88 293.6"/><polygon class="cls-2" points="172.08 18.12 1.15 17.27 1.15 1.28 172.08 0.43 172.08 18.12"/><polygon class="cls-3" points="16.14 17.27 160.3 18.12 160.29 19.58 35.7 19.58 35.28 293.6 30.17 293.6 30.59 19.28 16.14 19.16 16.14 17.27"/><polygon class="cls-3" points="159.88 293.6 160.3 18.12 164.21 18.08 165.23 293.6 159.88 293.6"/><polygon class="cls-3" points="172.08 18.12 172.08 0.43 177.15 0.43 175.79 18.08 172.08 18.12"/><path class="cls-3" d="M58.17,7.89s-9.15.44-20.43.36-20.42-.63-20.42-.63,9.15-.44,20.43-.37S58.17,7.89,58.17,7.89Z"/><path class="cls-3" d="M145.32,13.88s-13,.31-29.11.07S87.11,13,87.11,13s13-.3,29.12-.06S145.32,13.88,145.32,13.88Z"/><path class="cls-3" d="M164,7.08a47.25,47.25,0,0,1-6.78.84,46.53,46.53,0,0,1-6.83-.16,47.25,47.25,0,0,1,6.78-.84A46.53,46.53,0,0,1,164,7.08Z"/><path class="cls-3" d="M172.87,11.18c-3.48.27-12.56,1.48-12.56,1.48s9.16-.21,12.64-.48Z"/><path class="cls-3" d="M1.33,13.27c4.7-.14,17-1,17-1s-12.33-.13-17,0Z"/><path class="cls-3" d="M23.44,18.3c.33,10.63,1.7,38.47,1.7,38.47s-.37-27.87-.7-38.5Z"/><path class="cls-3" d="M156.84,19c.43,7.71,2.08,27.89,2.08,27.89s-.65-20.24-1.08-27.95Z"/><path class="cls-3" d="M150.64,19.68c.3,14.28,1.58,51.73,1.58,51.73s-.28-37.47-.58-51.76Z"/><path class="cls-3" d="M153.81,169.45s-.41-15.85-.3-35.4.7-35.41.7-35.41.41,15.86.3,35.41S153.81,169.45,153.81,169.45Z"/><path class="cls-3" d="M155.7,279.4s-.88-8-1.34-17.85-.35-17.89-.35-17.89.88,8,1.34,17.85S155.7,279.4,155.7,279.4Z"/><path class="cls-3" d="M20.79,203.83s-.4-15.09-.27-33.7.72-33.7.72-33.7.4,15.09.28,33.71S20.79,203.83,20.79,203.83Z"/><path class="cls-3" d="M26.85,259s-.53-9.52-.57-21.27.43-21.28.43-21.28.53,9.53.57,21.28S26.85,259,26.85,259Z"/><polygon class="cls-4" points="35.28 293.6 35.7 19.58 145.84 18.98 146.26 293.6 35.28 293.6"/><path class="cls-5" d="M45.43,165.59v-1L44.57,32.1h90v1l1.35,131.73ZM46.58,34.1l.83,129.47,86.46-.73L132.55,34.1Z"/><path class="cls-5" d="M45.7,207.28l-.2-30.51,90.53.77.28,27.27Zm1.81-28.49.17,26.44,86.61-2.37-.24-23.34Z"/><path class="cls-5" d="M137.14,285.54H46.2l-.43-66.05,90.68-.53Zm-89-2h86.94L134.47,221l-86.69.5Z"/><path class="cls-5" d="M117.94,33c.4,10.62,1.94,38.44,1.94,38.44s-.55-27.86-.94-38.48Z"/><path class="cls-5" d="M67,163.32c-.12-10.53-.93-38.12-.93-38.12s-.19,27.6-.07,38.13Z"/><path class="cls-3" d="M90,164.35c0-1.88-.5-6.81-.5-6.81s-.5,4.93-.5,6.81Z"/><path class="cls-5" d="M98,178.31c.07,5.17.76,18.72.76,18.72s.31-13.56.24-18.73Z"/><path class="cls-3" d="M57.09,206.94c.19-2.63.18-9.56.18-9.56s-1,6.86-1.18,9.49Z"/><path class="cls-5" d="M116,178.32c.09,3.29.82,11.9.82,11.9s.27-8.64.18-11.93Z"/><path class="cls-5" d="M115.31,220.21c.45,5.55,2.14,20,2.14,20s-.69-14.58-1.15-20.13Z"/><path class="cls-5" d="M70.14,284.53c.19-7.33.21-26.57.21-26.57s-1,19.21-1.21,26.54Z"/><path class="cls-5" d="M98.36,284.84c-.18-3.67-1.15-13.25-1.15-13.25s0,9.63.15,13.3Z"/><path class="cls-5" d="M82.18,220.18c0,4.23.5,15.32.5,15.32s.5-11.09.5-15.32Z"/><path class="cls-3" d="M55.41,221.25c.14,2,1,7.1,1,7.1s.13-5.2,0-7.17Z"/><path class="cls-5" d="M77.51,100.35s-1-11.64-1.64-26-.65-26.07-.65-26.07,1,11.64,1.65,26S77.51,100.35,77.51,100.35Z"/><path class="cls-5" d="M102.45,137.8s-.63-12.5-.78-27.91.21-27.92.21-27.92.63,12.49.79,27.91S102.45,137.8,102.45,137.8Z"/><path class="cls-5" d="M76.27,190.56s-.57-4.72-.67-10.55.33-10.56.33-10.56.58,4.72.67,10.55S76.27,190.56,76.27,190.56Z"/><path class="cls-5" d="M56.61,48.6s-.62-5.48-.77-12.25.23-12.26.23-12.26.62,5.47.77,12.24S56.61,48.6,56.61,48.6Z"/><path class="cls-5" d="M98.74,249.45a80.82,80.82,0,0,1-.67-9,83.14,83.14,0,0,1,.33-9,80.82,80.82,0,0,1,.67,9A83.14,83.14,0,0,1,98.74,249.45Z"/><path class="cls-5" d="M59.26,263.41a10.63,10.63,0,0,1-.27-6.47,10.82,10.82,0,0,1,.27,6.47Z"/><path class="cls-3" d="M138.7,164.77a14.64,14.64,0,0,1,1.07,4.08,6.15,6.15,0,0,1-1,4,4.38,4.38,0,0,1-3.77,1.87,4.75,4.75,0,0,0,4.56.94c3.49-.92,3.63-5.61,2.58-8.25A4.56,4.56,0,0,0,138.7,164.77Z"/><path class="cls-6" d="M129.76,167.9a6.32,6.32,0,0,1,3.19-4.27,5.37,5.37,0,0,1,5.4.24c1.64,1.14,2.25,3.17,2.55,5.07a6.26,6.26,0,0,1-.4,4.06,5.3,5.3,0,0,1-4.79,2.27C131,175.11,128.8,172.24,129.76,167.9Z"/><path class="cls-7" d="M130.64,168.07a1.56,1.56,0,0,0,.83,1.64,1.85,1.85,0,0,0,1.49-.26,5.93,5.93,0,0,0,2-1.74,2.31,2.31,0,0,0,.49-2.18,1.58,1.58,0,0,0-1.07-.91C132.45,164.14,130.73,166.55,130.64,168.07Z"/><path class="cls-8" d="M132.61,174.13a7.28,7.28,0,0,0,5.43.07,3.87,3.87,0,0,0,2-1.51,4,4,0,0,0,.43-2.06,9.72,9.72,0,0,0-1.76-5.38,13.09,13.09,0,0,1,.46,3.88,4.51,4.51,0,0,1-1.66,3.43,6.83,6.83,0,0,1-2.33,1C134.38,173.78,133.39,173.94,132.61,174.13Z"/></g></g></svg>