<svg id="layer" xmlns="http://www.w3.org/2000/svg" viewBox="0 0 525 28.9"><defs><style>.cls-1{fill:#73562e;}.cls-2{fill:#684109;}.cls-3{fill:#4a6218;}.cls-4{fill:#5d801c;}.cls-5{fill:#5a3800;}.cls-6{fill:#492b00;}</style></defs><title>41524 [Converted]</title><path class="cls-1" d="M420,19.78c.57,1.23,1.89,4.06,2.17,4.53-1.79-.28-3.58-1-3.68-2,.19,1.7,2,2.46,4.06,3.31a1.21,1.21,0,0,1,.73.74h1.66a1.59,1.59,0,0,1,.07-.84c.56-1.23,2.55-.66,3.77-1.32s3.5-4.16,5-3.78c-1.89-.66-3.12.95-4.35,2.08a4.4,4.4,0,0,1-2.73,1.13s2.64-2.92,2.45-4.15,5.38-1.13,5.67-1a6.92,6.92,0,0,0-4.72-.28c-.85-.95-2.36-2.84-1.89-3.87-.66,1.22.94,4,.94,4-.66.38-.85.57-.85,1.23s-.66,2.36-3.49,4.62c.09-2.07,3.11-4.43.94-6.42.29,1,.47,1.42,0,2.36S424.44,23,424,23.94s-.66-.38-1.51-1.42-2.08-2.46-1-2.83,2.27-1.7,1.89-2c-.57.76-1.89,1.8-2.65,1.51-2.26-1.32-3.21-1.69-5.57,0C416.51,18.93,419.44,18.55,420,19.78Z"/><path class="cls-2" d="M290.67,17.28c.57,1.23,1.89,4.06,2.17,4.53-1.79-.28-3.59-1-3.68-2,.19,1.7,2,2.46,4.06,3.31a1.21,1.21,0,0,1,.73.74h1.66a1.71,1.71,0,0,1,.06-.84c.57-1.23,2.55-.66,3.78-1.32s3.49-4.16,5-3.78c-1.88-.66-3.11.95-4.34,2.08a4.43,4.43,0,0,1-2.74,1.13S300,18.23,299.83,17s5.38-1.13,5.66-1a6.92,6.92,0,0,0-4.72-.28c-.85-.95-2.36-2.84-1.89-3.87-.66,1.22.95,4,.95,4-.66.38-.85.57-.85,1.23s-.66,2.36-3.49,4.62c.09-2.07,3.11-4.43.94-6.42.28,1,.47,1.42,0,2.36s-1.32,2.93-1.79,3.88-.67-.38-1.52-1.42-2.07-2.46-1-2.83,2.26-1.7,1.88-2c-.56.76-1.88,1.8-2.64,1.51-2.27-1.32-3.21-1.69-5.57,0C287.18,16.43,290.1,16.05,290.67,17.28Z"/><path class="cls-2" d="M256.54,13.77c-.41.89-1.36,2.94-1.57,3.28,1.3-.21,2.6-.75,2.67-1.44-.14,1.23-1.44,1.78-2.94,2.39a.91.91,0,0,0-.53.54H253a1.19,1.19,0,0,0,0-.61c-.41-.88-1.85-.47-2.73-.95s-2.53-3-3.62-2.73c1.36-.48,2.25.68,3.14,1.5a3.2,3.2,0,0,0,2,.82s-1.91-2.12-1.78-3-3.89-.82-4.09-.76a5,5,0,0,1,3.41-.2c.61-.68,1.71-2,1.37-2.8.47.89-.69,2.87-.69,2.87.48.27.62.41.62.89s.47,1.7,2.52,3.34c-.07-1.5-2.25-3.21-.68-4.64-.2.75-.34,1,0,1.7s1,2.12,1.3,2.8.47-.27,1.09-1,1.5-1.78.75-2.05-1.64-1.23-1.37-1.43c.41.54,1.37,1.3,1.92,1.09,1.63-1,2.32-1.23,4,0C259.07,13.16,257,12.88,256.54,13.77Z"/><path class="cls-2" d="M225.79,15.84c-.55,1.2-1.84,4-2.12,4.43,1.75-.28,3.51-1,3.6-1.94-.18,1.66-1.94,2.4-4,3.23a1.22,1.22,0,0,0-.71.73H221a1.51,1.51,0,0,0-.07-.82c-.55-1.2-2.49-.65-3.69-1.29s-3.41-4.06-4.89-3.69c1.84-.65,3,.92,4.24,2a4.34,4.34,0,0,0,2.68,1.1s-2.58-2.86-2.4-4.06-5.26-1.1-5.54-1a6.82,6.82,0,0,1,4.62-.28c.83-.92,2.31-2.77,1.84-3.78.65,1.2-.92,3.87-.92,3.87.65.37.83.56.83,1.2s.65,2.31,3.42,4.53c-.1-2-3.05-4.34-.93-6.28-.27,1-.46,1.38,0,2.31s1.3,2.86,1.76,3.78.64-.37,1.47-1.38,2-2.4,1-2.77-2.22-1.66-1.85-1.94c.56.74,1.85,1.75,2.59,1.48,2.21-1.3,3.14-1.66,5.44,0C229.21,15,226.35,14.64,225.79,15.84Z"/><path class="cls-1" d="M202.41,16.54c.35.77,1.19,2.55,1.37,2.85-1.13-.18-2.26-.65-2.32-1.25.11,1.07,1.25,1.55,2.55,2.08a.79.79,0,0,1,.46.47h1.05a1,1,0,0,1,0-.53c.36-.77,1.61-.41,2.38-.83s2.2-2.62,3.15-2.38c-1.19-.41-2,.6-2.73,1.31a2.81,2.81,0,0,1-1.73.71s1.67-1.84,1.55-2.61,3.39-.72,3.57-.66a4.5,4.5,0,0,0-3-.18c-.53-.59-1.48-1.78-1.19-2.44-.41.78.6,2.5.6,2.5-.42.24-.54.36-.54.78s-.41,1.48-2.2,2.91c.06-1.31,2-2.79.6-4,.18.65.29.89,0,1.48s-.84,1.85-1.13,2.44-.42-.24-1-.89-1.3-1.55-.65-1.78,1.43-1.08,1.19-1.25c-.36.47-1.19,1.13-1.67.95-1.42-.83-2-1.07-3.51,0C200.21,16,202.05,15.76,202.41,16.54Z"/><path class="cls-1" d="M191.91,20c.35.77,1.19,2.55,1.37,2.85-1.13-.18-2.26-.65-2.32-1.25.11,1.07,1.25,1.55,2.55,2.08a.79.79,0,0,1,.46.47H195a1,1,0,0,1,0-.53c.36-.77,1.61-.41,2.38-.83s2.2-2.62,3.15-2.38c-1.19-.41-2,.6-2.73,1.31a2.81,2.81,0,0,1-1.73.71s1.67-1.84,1.55-2.61,3.39-.72,3.57-.66a4.5,4.5,0,0,0-3-.18c-.53-.59-1.48-1.78-1.19-2.44-.41.78.6,2.5.6,2.5-.42.24-.54.36-.54.78s-.41,1.48-2.2,2.91c.06-1.31,2-2.79.6-4,.18.65.29.89,0,1.48s-.84,1.85-1.13,2.44-.42-.24-1-.89-1.3-1.55-.65-1.78,1.43-1.08,1.19-1.25c-.36.47-1.19,1.13-1.67.95-1.42-.83-2-1.07-3.51,0C189.71,19.5,191.55,19.26,191.91,20Z"/><path class="cls-1" d="M162.66,19.52c.61,1.32,2,4.36,2.33,4.87-1.93-.3-3.85-1.12-4-2.13.2,1.83,2.13,2.64,4.36,3.55a1.36,1.36,0,0,1,.78.8H168a1.81,1.81,0,0,1,.07-.9c.61-1.32,2.74-.71,4.06-1.42s3.75-4.46,5.38-4.06c-2-.71-3.35,1-4.67,2.23a4.74,4.74,0,0,1-2.94,1.22s2.84-3.14,2.64-4.46,5.78-1.22,6.08-1.12a7.46,7.46,0,0,0-5.07-.3c-.91-1-2.53-3-2-4.16-.71,1.32,1,4.26,1,4.26-.71.41-.92.61-.92,1.32s-.71,2.53-3.75,5c.1-2.23,3.35-4.77,1-6.9.3,1.12.5,1.52,0,2.54S167.43,23,166.92,24s-.71-.4-1.62-1.52-2.24-2.63-1.12-3,2.43-1.82,2-2.13c-.61.81-2,1.93-2.84,1.62-2.44-1.42-3.45-1.82-6,0C158.91,18.61,162.05,18.2,162.66,19.52Z"/><path class="cls-2" d="M158.6,22.5c-.4.87-1.34,2.88-1.54,3.21,1.27-.2,2.54-.73,2.61-1.4-.14,1.2-1.41,1.74-2.88,2.34a.91.91,0,0,0-.51.53H155.1a1.15,1.15,0,0,0,0-.6c-.4-.87-1.81-.46-2.68-.93s-2.47-2.94-3.54-2.68c1.34-.47,2.21.67,3.08,1.47a3.08,3.08,0,0,0,1.93.81s-1.87-2.08-1.74-2.95-3.8-.8-4-.73a5,5,0,0,1,3.35-.2c.6-.67,1.67-2,1.33-2.74.47.87-.67,2.8-.67,2.8.47.27.61.41.61.87s.46,1.68,2.47,3.28c-.07-1.47-2.21-3.14-.67-4.55-.2.74-.33,1,0,1.67s.94,2.08,1.27,2.75.47-.27,1.07-1,1.47-1.74.74-2S156,21.23,156.26,21c.4.54,1.34,1.27,1.87,1.07,1.6-.93,2.27-1.2,3.94,0C161.07,21.9,159,21.63,158.6,22.5Z"/><path class="cls-2" d="M127.74,18.27c.61,1.32,2,4.36,2.34,4.87-1.93-.3-3.86-1.12-4-2.13.2,1.83,2.13,2.64,4.36,3.55a1.33,1.33,0,0,1,.78.8h1.79a1.61,1.61,0,0,1,.07-.9c.61-1.32,2.74-.71,4-1.42s3.76-4.46,5.38-4.06c-2-.71-3.35,1-4.67,2.23a4.72,4.72,0,0,1-2.94,1.22s2.84-3.14,2.64-4.46,5.78-1.22,6.09-1.12a7.49,7.49,0,0,0-5.08-.3c-.91-1-2.53-3-2-4.16-.71,1.32,1,4.26,1,4.26-.71.41-.91.61-.91,1.32s-.71,2.53-3.76,5c.11-2.23,3.35-4.77,1-6.9.3,1.12.51,1.52,0,2.54s-1.42,3.14-1.93,4.15-.71-.4-1.62-1.52-2.23-2.63-1.12-3,2.44-1.82,2-2.13c-.61.81-2,1.93-2.84,1.62-2.43-1.42-3.45-1.82-6,0C124,17.36,127.13,17,127.74,18.27Z"/><path class="cls-2" d="M89.59,19.73c.51,1.09,1.69,3.62,1.94,4-1.6-.25-3.2-.93-3.28-1.77.17,1.52,1.76,2.19,3.62,2.95a1.11,1.11,0,0,1,.65.66H94a1.6,1.6,0,0,1,.06-.75c.51-1.09,2.27-.59,3.37-1.18s3.11-3.7,4.46-3.36c-1.68-.59-2.78.84-3.87,1.85a4,4,0,0,1-2.44,1s2.35-2.61,2.19-3.7,4.79-1,5-.93a6.19,6.19,0,0,0-4.2-.25c-.76-.84-2.11-2.52-1.69-3.45-.59,1.09.85,3.53.85,3.53-.59.34-.76.51-.76,1.1s-.59,2.1-3.12,4.12c.09-1.85,2.78-4,.85-5.72.25.92.42,1.26,0,2.1s-1.18,2.61-1.6,3.45-.59-.33-1.35-1.26-1.85-2.19-.92-2.52,2-1.52,1.68-1.77c-.51.67-1.68,1.6-2.36,1.35-2-1.18-2.86-1.52-5,0C86.48,19,89.09,18.64,89.59,19.73Z"/><path class="cls-1" d="M52.22,18.6c.5,1.1,1.68,3.62,1.93,4-1.59-.25-3.19-.92-3.28-1.76.17,1.51,1.77,2.18,3.62,2.94a1.11,1.11,0,0,1,.65.66h1.48a1.33,1.33,0,0,1,.06-.74c.5-1.1,2.27-.59,3.36-1.18s3.12-3.7,4.46-3.37c-1.68-.59-2.77.85-3.87,1.86a4,4,0,0,1-2.44,1s2.36-2.6,2.19-3.7,4.8-1,5.05-.92a6.23,6.23,0,0,0-4.21-.26c-.76-.84-2.1-2.52-1.68-3.45-.59,1.1.84,3.54.84,3.54-.59.34-.76.5-.76,1.09s-.59,2.11-3.11,4.13c.08-1.86,2.78-4,.84-5.73.25.93.42,1.27,0,2.11s-1.18,2.61-1.6,3.45-.59-.34-1.34-1.26-1.85-2.19-.93-2.53,2-1.51,1.68-1.77c-.5.68-1.68,1.6-2.35,1.35-2-1.18-2.86-1.51-5,0C49.11,17.85,51.71,17.51,52.22,18.6Z"/><path class="cls-2" d="M71.66,18.16c.31.67,1,2.22,1.19,2.48-1-.16-2-.57-2-1.08.1.92,1.08,1.34,2.22,1.8a.7.7,0,0,1,.4.41h.9a1,1,0,0,1,0-.46c.31-.67,1.4-.36,2.07-.72s1.91-2.27,2.74-2.07c-1-.36-1.71.52-2.38,1.14a2.42,2.42,0,0,1-1.5.62s1.45-1.6,1.34-2.27,3-.62,3.1-.57a3.81,3.81,0,0,0-2.58-.16c-.46-.51-1.29-1.55-1-2.12-.36.68.51,2.17.51,2.17-.36.21-.46.31-.46.68s-.36,1.29-1.91,2.53c0-1.14,1.7-2.43.51-3.52.16.57.26.78,0,1.3s-.72,1.6-1,2.11-.36-.2-.82-.77-1.14-1.34-.57-1.55,1.24-.93,1-1.09c-.31.42-1,1-1.45.83-1.24-.72-1.75-.93-3,0C69.75,17.7,71.35,17.49,71.66,18.16Z"/><path class="cls-2" d="M33,18.79c.31.67,1,2.22,1.19,2.48-1-.16-2-.57-2-1.09.1.93,1.09,1.34,2.22,1.81a.65.65,0,0,1,.4.41h.91a.83.83,0,0,1,0-.46c.31-.67,1.39-.37,2.06-.73s1.91-2.27,2.74-2.06c-1-.36-1.7.51-2.38,1.13a2.4,2.4,0,0,1-1.49.62s1.44-1.6,1.34-2.27,2.94-.62,3.1-.57a3.8,3.8,0,0,0-2.58-.15c-.47-.52-1.3-1.55-1-2.12-.36.67.52,2.17.52,2.17-.36.21-.47.31-.47.67s-.36,1.29-1.91,2.53c0-1.13,1.71-2.43.52-3.51.15.57.26.77,0,1.29s-.72,1.6-1,2.12-.36-.21-.83-.78-1.14-1.34-.57-1.55,1.24-.93,1-1.08c-.31.41-1,1-1.45.83-1.24-.73-1.76-.93-3,0C31.13,18.32,32.73,18.11,33,18.79Z"/><path class="cls-1" d="M26.66,17c-.41.88-1.35,2.9-1.55,3.23,1.28-.2,2.55-.74,2.62-1.41-.13,1.21-1.41,1.75-2.89,2.36a.85.85,0,0,0-.52.53H23.14a1.24,1.24,0,0,0-.05-.6c-.41-.88-1.82-.47-2.69-.94s-2.5-3-3.57-2.7c1.34-.47,2.22.68,3.09,1.48a3.17,3.17,0,0,0,2,.81s-1.89-2.08-1.75-3-3.84-.81-4-.74a4.94,4.94,0,0,1,3.36-.2c.61-.68,1.69-2,1.35-2.76.47.87-.67,2.83-.67,2.83.47.26.6.4.6.87s.47,1.68,2.49,3.3c-.07-1.48-2.22-3.16-.67-4.58-.2.74-.34,1,0,1.68s.94,2.09,1.28,2.76.47-.27,1.07-1,1.49-1.75.75-2S24,15.71,24.3,15.51c.4.54,1.35,1.28,1.88,1.08,1.62-.94,2.29-1.21,4,0C29.15,16.39,27.06,16.12,26.66,17Z"/><path class="cls-1" d="M123.68,21.25c-.4.87-1.33,2.88-1.53,3.21,1.26-.2,2.53-.73,2.6-1.4-.13,1.2-1.4,1.74-2.87,2.34a.9.9,0,0,0-.52.53h-1.17a1.14,1.14,0,0,0,0-.6c-.4-.87-1.8-.46-2.67-.93s-2.48-2.94-3.55-2.68c1.34-.47,2.21.67,3.08,1.47a3.11,3.11,0,0,0,1.94.81s-1.88-2.08-1.74-2.95-3.81-.8-4-.73a4.94,4.94,0,0,1,3.34-.2c.6-.67,1.67-2,1.34-2.74.46.87-.67,2.8-.67,2.8.47.27.6.41.6.87s.47,1.68,2.47,3.28c-.06-1.47-2.2-3.14-.67-4.55-.2.74-.33,1,0,1.67s.94,2.08,1.28,2.75.46-.27,1.06-1,1.47-1.74.74-2-1.61-1.21-1.34-1.41c.4.54,1.34,1.27,1.87,1.07,1.61-.93,2.28-1.2,4,0C126.15,20.65,124.08,20.38,123.68,21.25Z"/><path class="cls-1" d="M269.2,17.47c-.35.76-1.16,2.52-1.34,2.81,1.11-.18,2.22-.65,2.28-1.23-.12,1.05-1.23,1.52-2.51,2a.75.75,0,0,0-.45.46h-1a.93.93,0,0,0,0-.51c-.35-.76-1.58-.41-2.34-.82s-2.16-2.57-3.09-2.34c1.17-.41,1.92.59,2.68,1.29a2.75,2.75,0,0,0,1.7.7s-1.64-1.81-1.52-2.57-3.33-.7-3.5-.64a4.33,4.33,0,0,1,2.92-.18c.52-.58,1.46-1.75,1.16-2.39.41.76-.58,2.45-.58,2.45.41.23.52.35.52.76s.41,1.46,2.17,2.86c-.06-1.28-1.93-2.74-.59-4-.17.64-.29.88,0,1.46s.82,1.81,1.11,2.39.41-.23.94-.87,1.28-1.52.64-1.75-1.4-1.06-1.17-1.23c.35.47,1.17,1.11,1.63.93,1.41-.81,2-1.05,3.45,0C271.36,17,269.55,16.72,269.2,17.47Z"/><path class="cls-1" d="M286,19.72c-.35.76-1.16,2.52-1.34,2.81,1.11-.18,2.22-.65,2.28-1.23-.12,1.05-1.23,1.52-2.51,2a.75.75,0,0,0-.45.46h-1a.93.93,0,0,0,0-.51c-.35-.76-1.58-.41-2.34-.82s-2.16-2.57-3.09-2.34c1.17-.41,1.92.59,2.68,1.29a2.75,2.75,0,0,0,1.7.7s-1.64-1.81-1.52-2.57-3.33-.7-3.5-.64a4.33,4.33,0,0,1,2.92-.18c.52-.58,1.46-1.75,1.16-2.39.41.76-.58,2.45-.58,2.45.41.23.52.35.52.76s.41,1.46,2.17,2.86c-.06-1.28-1.93-2.74-.59-4-.17.64-.29.88,0,1.46s.82,1.81,1.11,2.39.41-.23.94-.87,1.28-1.52.64-1.75-1.4-1.06-1.17-1.23c.35.47,1.17,1.11,1.63.93,1.41-.81,2-1.05,3.45,0C288.11,19.2,286.3,19,286,19.72Z"/><path class="cls-1" d="M359.75,17.69c.48,1,1.59,3.42,1.83,3.82-1.51-.24-3-.88-3.1-1.67.16,1.43,1.67,2.06,3.42,2.78a1,1,0,0,1,.61.62h1.4a1.3,1.3,0,0,1,0-.7c.48-1,2.15-.56,3.18-1.11s2.94-3.5,4.22-3.18c-1.59-.56-2.63.79-3.66,1.75a3.73,3.73,0,0,1-2.31.95s2.23-2.47,2.07-3.5,4.53-.95,4.77-.87a5.82,5.82,0,0,0-4-.24c-.72-.8-2-2.39-1.59-3.26-.56,1,.79,3.34.79,3.34-.56.32-.71.47-.71,1s-.56,2-2.95,3.9c.08-1.75,2.63-3.74.8-5.41.24.88.4,1.19,0,2s-1.11,2.46-1.51,3.26-.56-.32-1.27-1.19-1.75-2.07-.88-2.39,1.91-1.43,1.59-1.67c-.47.64-1.59,1.51-2.22,1.27-1.91-1.11-2.71-1.43-4.69,0C356.81,17,359.27,16.66,359.75,17.69Z"/><path class="cls-2" d="M333.17,17.6c.4.88,1.35,2.91,1.56,3.25-1.29-.2-2.58-.75-2.65-1.42.14,1.22,1.43,1.76,2.92,2.37a.9.9,0,0,1,.52.53h1.19a1.14,1.14,0,0,1,.05-.6c.41-.88,1.83-.47,2.71-.95s2.51-3,3.59-2.71c-1.36-.47-2.24.68-3.12,1.49a3.14,3.14,0,0,1-2,.82s1.9-2.1,1.76-3,3.86-.81,4.06-.74a4.94,4.94,0,0,0-3.38-.2c-.61-.68-1.7-2-1.36-2.78-.47.88.68,2.84.68,2.84-.47.27-.61.41-.61.88s-.47,1.7-2.51,3.32c.07-1.49,2.24-3.18.68-4.6.2.74.34,1,0,1.69s-.95,2.1-1.29,2.78-.47-.27-1.08-1-1.49-1.76-.75-2,1.63-1.22,1.36-1.42c-.41.54-1.36,1.28-1.9,1.08-1.62-1-2.3-1.22-4,0C330.66,17,332.76,16.72,333.17,17.6Z"/><path class="cls-2" d="M324.17,18.5c-.41.88-1.36,2.91-1.56,3.25,1.29-.2,2.57-.74,2.64-1.42-.13,1.22-1.42,1.76-2.91,2.37a.92.92,0,0,0-.53.53h-1.19a1.15,1.15,0,0,0,0-.6c-.41-.88-1.83-.47-2.71-.95s-2.51-3-3.59-2.71c1.35-.47,2.23.68,3.11,1.49a3.16,3.16,0,0,0,2,.82s-1.9-2.1-1.76-3-3.87-.82-4.07-.75a5,5,0,0,1,3.39-.2c.61-.68,1.69-2,1.35-2.78.48.88-.67,2.85-.67,2.85.47.27.61.4.61.88s.47,1.69,2.5,3.32c-.07-1.49-2.23-3.19-.68-4.61-.2.74-.33,1,0,1.69s1,2.1,1.29,2.78.48-.27,1.09-1,1.49-1.76.74-2-1.62-1.22-1.35-1.42c.4.54,1.35,1.29,1.89,1.08,1.63-.95,2.31-1.22,4,0C326.67,17.89,324.57,17.62,324.17,18.5Z"/><path class="cls-1" d="M352.46,17.24c-.29.62-1,2.07-1.11,2.31.92-.15,1.83-.53,1.88-1-.1.86-1,1.25-2.07,1.68a.63.63,0,0,0-.37.38h-.85a.75.75,0,0,0,0-.43c-.29-.62-1.3-.34-1.92-.67s-1.78-2.12-2.55-1.93c1-.33,1.58.48,2.21,1.06a2.23,2.23,0,0,0,1.39.58s-1.34-1.49-1.25-2.12-2.74-.57-2.88-.53a3.52,3.52,0,0,1,2.4-.14c.44-.48,1.2-1.44,1-2,.34.62-.48,2-.48,2,.34.19.44.29.44.62s.33,1.21,1.78,2.36c-.05-1.06-1.59-2.26-.48-3.27-.15.53-.25.72,0,1.2s.67,1.49.91,2,.34-.19.77-.72,1.06-1.25.53-1.44-1.16-.87-1-1c.28.38,1,.91,1.34.77,1.16-.68,1.64-.87,2.84,0C354.24,16.8,352.75,16.61,352.46,17.24Z"/><path class="cls-1" d="M452.8,20.36c.4.87,1.34,2.88,1.54,3.22-1.27-.2-2.54-.74-2.61-1.41.13,1.21,1.41,1.74,2.88,2.35a.89.89,0,0,1,.52.52h1.18a1.1,1.1,0,0,1,.05-.59c.4-.87,1.81-.47,2.68-.94s2.48-3,3.55-2.68c-1.34-.47-2.21.67-3.08,1.47a3.15,3.15,0,0,1-1.95.81s1.88-2.08,1.74-2.95,3.83-.81,4-.74a5,5,0,0,0-3.35-.2c-.61-.67-1.68-2-1.35-2.75-.46.87.67,2.82.67,2.82-.46.27-.6.4-.6.87s-.47,1.67-2.48,3.28c.07-1.47,2.21-3.15.67-4.55.2.73.34,1,0,1.67s-.94,2.08-1.27,2.75-.47-.27-1.07-1-1.48-1.74-.74-2,1.61-1.2,1.34-1.4c-.4.53-1.34,1.27-1.88,1.07-1.61-.94-2.28-1.21-3.95,0C450.32,19.76,452.4,19.49,452.8,20.36Z"/><path class="cls-1" d="M482.55,17.48c.4.88,1.34,2.89,1.54,3.22-1.27-.2-2.54-.73-2.61-1.41.13,1.21,1.41,1.75,2.88,2.35a.9.9,0,0,1,.52.53h1.18a1.26,1.26,0,0,1,0-.6c.41-.87,1.81-.47,2.69-.93s2.48-2.95,3.55-2.69c-1.34-.47-2.21.67-3.08,1.48a3.17,3.17,0,0,1-1.95.8s1.88-2.07,1.74-2.95,3.83-.8,4-.73a4.88,4.88,0,0,0-3.36-.2c-.6-.68-1.67-2-1.34-2.75-.47.87.67,2.81.67,2.81-.46.27-.6.4-.6.87S488,19,486,20.57c.07-1.48,2.21-3.15.67-4.56.2.74.34,1,0,1.68s-.94,2.07-1.27,2.74-.47-.26-1.08-1-1.47-1.74-.73-2,1.61-1.21,1.34-1.41c-.4.54-1.34,1.27-1.88,1.07-1.61-.94-2.28-1.2-3.95,0C480.07,16.88,482.15,16.61,482.55,17.48Z"/><path class="cls-3" d="M524.75,29.41V12.52h-.17a29.16,29.16,0,0,0-12.11,2.63c-5.91-2.69-16.5-3.91-15.91,3.95-.67-3.81-9.11-2.58-6.39,5.4-1.5-2.41-12-10.72-16.84-3.21-1.8-2.42-13.53-5.9-12,3.75-2.71-4.56-8-3.1-10.09.09,6.34-11.44-14.33-16.23-11.57-.9-1.5-3.75-8.47-2.49-9.35,2.85.4-4-6.87-4-11.34.17-1.67-4.22-8.07-6.36-8.8-4.62-2.33-6.74-11.43-3.21-9.32.27-1.19-1.06-7.12-1.62-10,1.82a2.62,2.62,0,0,0-1.13,2.09,7.89,7.89,0,0,0-.33,1.45c0-3.75-4.81-8.31-9.32-3.75-.29-8.11-16.54-10.46-16.24-2.15-1.8-3.49-7.85-1.3-4.29,4.22a46.55,46.55,0,0,0-4.37-3.24,5.12,5.12,0,0,0,0-.56,4.34,4.34,0,0,0-4.11-4.54,3.92,3.92,0,0,0-2.95,1.38c-4.61-1.8-9.24-2.13-11.67,1.67-1.81-2.42-13.53-5.9-12,3.75-2.71-4.56-8-3.1-10.09.09,5.39-10-14.15-15.45-11.56-.9A5.34,5.34,0,0,0,293.45,23c.5-5-11-3.75-14,4.1,4.9-13.22-14.58-14-4.9-3.45-2.81-2.93-9-3.68-12.82-2.19-.45-4.26-4.29-7-7.79-3.52-1.5-3.75-20.44-9.33-19.66,1.11-.67-3.81-9.12-2.58-6.39,5.4-1.5-2.41-12-10.72-16.84-3.21-1.8-2.42-13.53-5.9-12,3.75-2.7-4.56-8-3.1-10.08.09,6.33-11.44-14.33-16.23-11.57-.9-1.5-3.75-8.47-2.49-9.36,2.85.4-4-6.86-4-11.34.17-1.66-4.22-8.06-6.36-8.79-4.62-2.33-6.74-11.43-3.21-9.32.27-1.2-1.06-7.13-1.62-10,1.82a2.62,2.62,0,0,0-1.14,2.09,7.9,7.9,0,0,0-.32,1.45c0-3.75-4.81-8.31-9.32-3.75-.3-8.11-16.54-10.46-16.24-2.15-1.81-3.49-7.85-1.3-4.3,4.22a44,44,0,0,0-4.37-3.24,5.09,5.09,0,0,0,0-.56,4.34,4.34,0,0,0-4.11-4.54,3.94,3.94,0,0,0-3,1.38c-4.61-1.8-9.23-2.13-11.67,1.67-1.8-2.42-13.53-5.9-12,3.75-2.71-4.56-8-3.1-10.09.09,5.39-10-14.15-15.45-11.56-.9A5.34,5.34,0,0,0,31.16,23c.36-3.59-5.47-3.95-9.91-1A29.23,29.23,0,0,0-.25,12.52V29.41Z"/><path class="cls-4" d="M280.53,28A10.49,10.49,0,0,1,289.68,22a3.35,3.35,0,0,1,2.46.77,1.14,1.14,0,0,1,.25.44l.06-.6a1.34,1.34,0,0,0-.31-1.11,3.35,3.35,0,0,0-2.46-.76,10.48,10.48,0,0,0-9.31,6.43l-1.51-.57C278.76,26.91,280.53,28,280.53,28Z"/><path class="cls-4" d="M292.11,27.25l2.13-2.7a4.55,4.55,0,0,1,3.59-1.88,4.39,4.39,0,0,1,4.05,2.82s1.79-1.38,1.75-1.77l-1.75.5a4.39,4.39,0,0,0-4.05-2.82,4.55,4.55,0,0,0-3.59,1.88Z"/><path class="cls-4" d="M243.53,21.84l2.12-2.71a4.58,4.58,0,0,1,3.6-1.87,4.39,4.39,0,0,1,4.05,2.81s1.79-1.37,1.75-1.76l-1.75.5A4.4,4.4,0,0,0,249.25,16a4.59,4.59,0,0,0-3.6,1.88Z"/><path class="cls-4" d="M426.53,26a3.41,3.41,0,0,1,2.46.76,1.36,1.36,0,0,1,.31,1.12l1.3.17h.71A4.9,4.9,0,0,1,436.1,24a2.69,2.69,0,0,1,2.63,1.53s1.78-1.38,1.74-1.77l-1.74.5a2.71,2.71,0,0,0-2.63-1.53,4.91,4.91,0,0,0-4.82,4.16l-2-.26a1.34,1.34,0,0,0-.31-1.11,3.36,3.36,0,0,0-2.46-.76,10.77,10.77,0,0,0-6.89,2.88S424.62,26,426.53,26Z"/><path class="cls-4" d="M164.24,26a3.36,3.36,0,0,1,2.45.76,1.4,1.4,0,0,1,.32,1.12l1.3.17h.7a4.91,4.91,0,0,1,4.8-4.07,2.68,2.68,0,0,1,2.62,1.53s1.79-1.38,1.75-1.77l-1.75.5a2.7,2.7,0,0,0-2.62-1.53A4.91,4.91,0,0,0,169,26.85l-2-.26a1.37,1.37,0,0,0-.32-1.11,3.32,3.32,0,0,0-2.45-.76c-2.31,0-7.36,3.31-7.36,3.31S162.32,26,164.24,26Z"/><path class="cls-4" d="M200.67,21.68a4.19,4.19,0,0,1,3.21-1.16c2.67,0,5.7,1.36,6.36,2.25l.86,1.15.78-1.21a5.16,5.16,0,0,1,4.6-2.61c4.47,0,9.65,4.36,10.55,5.81,0,0,1.57-1.61,1.49-2l-1.49.7c-.9-1.44-6.08-5.81-10.55-5.81a5.16,5.16,0,0,0-4.6,2.61l-.78,1.21-.86-1.15c-.66-.88-3.69-2.25-6.36-2.25a4.19,4.19,0,0,0-3.21,1.16,4.46,4.46,0,0,0-.74,3.31A3.57,3.57,0,0,1,200.67,21.68Z"/><path class="cls-4" d="M274.4,18.31a4.89,4.89,0,0,1,3.83,2.16,5.86,5.86,0,0,1,1,2.81,6.25,6.25,0,0,0-1-4.08A4.89,4.89,0,0,0,274.4,17c-.36,0-1.22.07-1.5.7a1.8,1.8,0,0,0,0,1.24C273.21,18.38,274,18.31,274.4,18.31Z"/><path class="cls-4" d="M336.49,23.76c2.43-2.62,7.06-2.39,11.67-1.15a4.78,4.78,0,0,1,2.95-1c2.27,0,4.11,1.41,4.11,3.15a2.56,2.56,0,0,1,0,.39c1.75.8,3.27,1.6,4.37,2.24a3.93,3.93,0,0,1-1-1.7c-.95-.75-2.08-1.58-3.34-2.41a5.12,5.12,0,0,0,0-.56,4.35,4.35,0,0,0-4.11-4.55,3.93,3.93,0,0,0-2.95,1.39c-4.61-1.8-9.24-2.13-11.67,1.66-1.78-2.37-13.13-5.77-12.08,3.29C325.32,20.19,334.87,22.27,336.49,23.76Z"/><path class="cls-4" d="M314.37,26.43c2.08-2.21,7.38-3.22,10.09-.07a4.4,4.4,0,0,1-.1-1.5c-2.39-3.79-6.63-3.18-9-.88A3.93,3.93,0,0,1,314.37,26.43Z"/><path class="cls-4" d="M315.14,23.11c2-8.41-13.84-12.22-12.47.05C303.69,17.85,313.71,19.17,315.14,23.11Z"/><path class="cls-4" d="M489.79,23c1-2.78,6.25-2.85,6.77-.79-.59-5.44,10-4.6,15.91-2.74,1.39-3.36,7.16-5.08,10.69-6.09-2.6-.63-8.62.76-10.69,1.7-5.91-2.68-16.5-3.91-15.91,4C495.93,15.51,488.49,16.36,489.79,23Z"/><path class="cls-4" d="M451.22,26.43c2.07-2.21,7.38-3.22,10.09-.07a4.43,4.43,0,0,1-.11-1.5c-2.3-3.66-6.33-3.22-8.78-1.1A5,5,0,0,1,451.22,26.43Z"/><path class="cls-4" d="M452.24,22.46c2-9.15-14.12-12.15-12.75.56C440.51,17.42,450.73,18.34,452.24,22.46Z"/><path class="cls-4" d="M74.19,23.76c2.44-2.62,7.06-2.39,11.67-1.15a4.81,4.81,0,0,1,3-1c2.27,0,4.11,1.41,4.11,3.15a2.58,2.58,0,0,1,0,.39,48.76,48.76,0,0,1,4.37,2.24,3.89,3.89,0,0,1-1-1.7c-.95-.75-2.08-1.58-3.35-2.41a5.09,5.09,0,0,0,0-.56,4.35,4.35,0,0,0-4.11-4.55,4,4,0,0,0-3,1.39c-4.61-1.8-9.23-2.13-11.67,1.66-1.77-2.37-13.13-5.77-12.08,3.29C63,20.19,72.58,22.27,74.19,23.76Z"/><path class="cls-4" d="M52.08,26.43c2.07-2.21,7.38-3.22,10.09-.07a4.43,4.43,0,0,1-.11-1.5c-2.38-3.79-6.63-3.18-9-.88A3.86,3.86,0,0,1,52.08,26.43Z"/><path class="cls-4" d="M190,22.46c2-9.15-14.13-12.15-12.75.56C178.21,17.42,188.43,18.34,190,22.46Z"/><path class="cls-4" d="M188.93,26.43c2.07-2.21,7.38-3.22,10.08-.07a4.4,4.4,0,0,1-.1-1.5c-2.3-3.66-6.34-3.22-8.79-1.1A4.93,4.93,0,0,1,188.93,26.43Z"/><path class="cls-5" d="M93.32,8.42c0-.65,1.69-1.19,3.77-1.19s3.77.54,3.77,1.19-1.69,1.19-3.77,1.19S93.32,9.08,93.32,8.42Z"/><path class="cls-5" d="M128.77,7.75c0-.35.9-.64,2-.64s2,.29,2,.64-.9.63-2,.63S128.77,8.1,128.77,7.75Z"/><path class="cls-5" d="M165.4,6.8c0-.67,1.73-1.22,3.86-1.22s3.86.55,3.86,1.22S171.39,8,169.26,8,165.4,7.47,165.4,6.8Z"/><ellipse class="cls-5" cx="261.65" cy="5.88" rx="2.64" ry="0.83"/><path class="cls-6" d="M271.34,12.66c0-.46,1.18-.83,2.64-.83s2.64.37,2.64.83-1.18.84-2.64.84S271.34,13.12,271.34,12.66Z"/><ellipse class="cls-6" cx="253.63" cy="9.37" rx="2.64" ry="0.83"/><path class="cls-6" d="M286.09,11.76c0-.22.55-.39,1.24-.39s1.24.17,1.24.39-.56.39-1.24.39S286.09,12,286.09,11.76Z"/><ellipse class="cls-6" cx="382.69" cy="16.98" rx="2.39" ry="0.76"/><path class="cls-6" d="M394.17,13.6c0-.58,1.49-1,3.33-1s3.33.47,3.33,1-1.49,1.05-3.33,1.05S394.17,14.18,394.17,13.6Z"/><ellipse class="cls-6" cx="389.38" cy="11.25" rx="1.75" ry="0.55"/><path class="cls-6" d="M413.81,14c0-.42,1.07-.75,2.39-.75s2.39.33,2.39.75-1.07.76-2.39.76S413.81,14.39,413.81,14Z"/><ellipse class="cls-6" cx="435.31" cy="13.05" rx="2.86" ry="0.9"/><path class="cls-6" d="M473.33,15.45c0-.37.94-.67,2.11-.67s2.12.3,2.12.67-.95.67-2.12.67S473.33,15.82,473.33,15.45Z"/><path class="cls-6" d="M449.65,12.81c0-.57,1.47-1,3.27-1s3.28.47,3.28,1-1.47,1-3.28,1S449.65,13.38,449.65,12.81Z"/><path class="cls-6" d="M409.34,9.18c0-.32.83-.58,1.85-.58s1.84.26,1.84.58-.83.58-1.84.58S409.34,9.5,409.34,9.18Z"/><ellipse class="cls-6" cx="282.76" cy="15.22" rx="1.24" ry="0.39"/><path class="cls-6" d="M261.53,9.74c0-.22.55-.39,1.24-.39s1.24.17,1.24.39-.56.39-1.24.39S261.53,10,261.53,9.74Z"/><path class="cls-6" d="M235.69,8.76c0-.21.55-.39,1.24-.39s1.24.18,1.24.39-.56.39-1.24.39S235.69,9,235.69,8.76Z"/><path class="cls-6" d="M230.45,13.37c0-.22.55-.39,1.24-.39s1.24.17,1.24.39-.56.39-1.24.39S230.45,13.59,230.45,13.37Z"/><path class="cls-6" d="M210,11.44c0-.43,1.11-.78,2.48-.78s2.48.35,2.48.78-1.11.79-2.48.79S210,11.88,210,11.44Z"/><path class="cls-6" d="M188.74,10.35c0-.43,1.11-.78,2.48-.78s2.48.35,2.48.78-1.11.78-2.48.78S188.74,10.78,188.74,10.35Z"/><path class="cls-6" d="M161.2,14.37c0-.43,1.11-.78,2.47-.78s2.48.35,2.48.78-1.11.78-2.48.78S161.2,14.8,161.2,14.37Z"/><path class="cls-6" d="M139.26,14.61c0-.43,1.11-.78,2.48-.78s2.47.35,2.47.78-1.11.79-2.47.79S139.26,15.05,139.26,14.61Z"/><path class="cls-6" d="M115,13.64c0-.43,1.11-.78,2.48-.78s2.48.35,2.48.78-1.11.78-2.48.78S115,14.07,115,13.64Z"/><path class="cls-6" d="M52.11,14.86c0-.43,1.11-.79,2.48-.79s2.48.36,2.48.79-1.11.78-2.48.78S52.11,15.29,52.11,14.86Z"/><path class="cls-6" d="M84.56,14.9c0-.23.59-.41,1.31-.41s1.3.18,1.3.41-.58.41-1.3.41S84.56,15.13,84.56,14.9Z"/><ellipse class="cls-6" cx="66.41" cy="14.49" rx="1.3" ry="0.41"/><path class="cls-6" d="M32.56,15c0-.23.59-.41,1.31-.41s1.3.18,1.3.41-.58.41-1.3.41S32.56,15.21,32.56,15Z"/><path class="cls-6" d="M27.69,14.13c0-.23.58-.42,1.3-.42s1.31.19,1.31.42-.59.41-1.31.41S27.69,14.35,27.69,14.13Z"/><path class="cls-6" d="M195.5,13.49c0-.26.65-.46,1.45-.46s1.45.2,1.45.46-.65.46-1.45.46S195.5,13.74,195.5,13.49Z"/><ellipse class="cls-6" cx="154.56" cy="12.13" rx="1.45" ry="0.46"/><ellipse class="cls-6" cx="200.36" cy="9.37" rx="1.45" ry="0.46"/><path class="cls-5" d="M160.45,5.35c0-.35.9-.64,2-.64s2,.29,2,.64-.9.64-2,.64S160.45,5.7,160.45,5.35Z"/><path class="cls-5" d="M68.31,5.45c0-.35.9-.64,2-.64s2,.29,2,.64-.91.64-2,.64S68.31,5.8,68.31,5.45Z"/><path class="cls-5" d="M60.58,11.2c0-.35.9-.64,2-.64s2,.29,2,.64-.91.63-2,.63S60.58,11.55,60.58,11.2Z"/><path class="cls-5" d="M201.32,4.26c0-.35.9-.64,2-.64s2,.29,2,.64-.9.64-2,.64S201.32,4.61,201.32,4.26Z"/><path class="cls-5" d="M311.73,4.26c0-.35.9-.64,2-.64s2,.29,2,.64-.9.64-2,.64S311.73,4.61,311.73,4.26Z"/><path class="cls-5" d="M296.53,8.3c0-.59,1.53-1.08,3.42-1.08s3.42.49,3.42,1.08S301.84,9.38,300,9.38,296.53,8.9,296.53,8.3Z"/><path class="cls-5" d="M470.56,9.18c0-.6,1.53-1.08,3.42-1.08s3.41.48,3.41,1.08-1.53,1.08-3.41,1.08S470.56,9.77,470.56,9.18Z"/><path class="cls-5" d="M508.94,10.32c0-.42,1.06-.75,2.37-.75s2.38.33,2.38.75-1.07.75-2.38.75S508.94,10.73,508.94,10.32Z"/><path class="cls-5" d="M493.75,7.14c0-.68,1.73-1.22,3.86-1.22s3.86.54,3.86,1.22-1.73,1.21-3.86,1.21S493.75,7.81,493.75,7.14Z"/><path class="cls-5" d="M378.14,7.83c0-.28.72-.51,1.61-.51s1.61.23,1.61.51-.72.51-1.61.51S378.14,8.11,378.14,7.83Z"/><path class="cls-6" d="M355.35,5.48c0-.36.93-.65,2.07-.65s2.07.29,2.07.65-.92.66-2.07.66S355.35,5.84,355.35,5.48Z"/><ellipse class="cls-6" cx="422.5" cy="2.75" rx="1.59" ry="0.5"/><ellipse class="cls-6" cx="364" cy="1.25" rx="1.59" ry="0.5"/><ellipse class="cls-6" cx="335.88" cy="4.88" rx="1.59" ry="0.5"/><path class="cls-6" d="M280,1.11c0-.36.93-.66,2.08-.66s2.07.3,2.07.66-.93.65-2.07.65S280,1.47,280,1.11Z"/><ellipse class="cls-6" cx="260.5" cy="0.5" rx="1.59" ry="0.5"/><ellipse class="cls-6" cx="385.28" cy="1.94" rx="3.29" ry="1.04"/><path class="cls-6" d="M193.3,1.2c0-.28.73-.51,1.62-.51s1.61.23,1.61.51-.72.51-1.61.51S193.3,1.48,193.3,1.2Z"/><path class="cls-6" d="M137.64,2c0-.28.72-.51,1.61-.51s1.61.23,1.61.51-.72.51-1.61.51S137.64,2.32,137.64,2Z"/><path class="cls-6" d="M214.82,1.49c0-.57,1.47-1,3.29-1s3.3.47,3.3,1-1.48,1-3.3,1S214.82,2.07,214.82,1.49Z"/><path class="cls-6" d="M123.63,2.71c0-.57,1.47-1,3.29-1s3.29.47,3.29,1-1.47,1-3.29,1S123.63,3.28,123.63,2.71Z"/><path class="cls-6" d="M35.29,6.71c0-.57,1.48-1,3.29-1s3.3.47,3.3,1-1.48,1-3.3,1S35.29,7.28,35.29,6.71Z"/><path class="cls-6" d="M20.29,2.42c0-.58,1.48-1,3.29-1s3.3.46,3.3,1-1.48,1-3.3,1S20.29,3,20.29,2.42Z"/><path class="cls-6" d="M54.66,2.38c0-.46,1.16-.82,2.59-.82s2.59.36,2.59.82-1.16.82-2.59.82S54.66,2.83,54.66,2.38Z"/><ellipse class="cls-6" cx="458.41" cy="1.82" rx="1.41" ry="0.44"/><path class="cls-6" d="M479,4.14c0-.52,1.32-.94,3-.94s3,.42,3,.94-1.33.93-3,.93S479,4.65,479,4.14Z"/><path class="cls-6" d="M500.28,1.5c0-.33.85-.59,1.9-.59s1.89.26,1.89.59-.85.6-1.89.6S500.28,1.83,500.28,1.5Z"/><path class="cls-5" d="M517.37,6.27c0-.28.72-.51,1.61-.51s1.61.23,1.61.51-.72.51-1.61.51S517.37,6.56,517.37,6.27Z"/><path class="cls-5" d="M485.79,9.72c0-.28.72-.51,1.61-.51s1.62.23,1.62.51-.72.51-1.62.51S485.79,10,485.79,9.72Z"/><path class="cls-5" d="M460.93,8.09c0-.28.72-.51,1.61-.51s1.62.23,1.62.51-.73.51-1.62.51S460.93,8.37,460.93,8.09Z"/><path class="cls-5" d="M344.29,10.5c0-.28.72-.51,1.61-.51s1.61.23,1.61.51-.72.51-1.61.51S344.29,10.78,344.29,10.5Z"/><path class="cls-5" d="M224.51,6.44c0-.21.55-.39,1.22-.39s1.23.18,1.23.39-.55.39-1.23.39S224.51,6.65,224.51,6.44Z"/><path class="cls-5" d="M281.4,4.67c0-.22.55-.39,1.22-.39s1.23.17,1.23.39-.55.38-1.23.38S281.4,4.88,281.4,4.67Z"/><ellipse class="cls-5" cx="325.64" cy="11.21" rx="1.23" ry="0.39"/></svg>