<svg id="layer" xmlns="http://www.w3.org/2000/svg" viewBox="0 0 525 20.02"><defs><style>.cls-1{fill:#7da316;}</style></defs><title>41524 [Converted]</title><path class="cls-1" d="M513.28,12c.4-1.29,1.76-.78,2.51-.63-1.49-2.8-3.74-1.31-5-.19-1.31-3.74-1.12-5.61-.74-7.29-2.06,0-1.88,4.3-1.5,6.92-.38-.94-2.62-3.74-5.24-3.93,1.31.19,2.43,2.62,3.18,3.74a5.32,5.32,0,0,0-6.73-.18c1.6-.62,3.2.63,4.11,1.56H485.23c-12.73,0-29.91.32-48.34.73.3-1.57,1.77-1,2.57-.86-1.5-2.8-3.74-1.31-5-.19-1.31-3.74-1.12-5.61-.75-7.29-2.06,0-1.87,4.3-1.49,6.92-.38-.94-2.62-3.74-5.24-3.93,1.31.19,2.43,2.62,3.18,3.74a5.33,5.33,0,0,0-6.74-.18c1.89-.73,3.76,1.12,4.52,2-14.73.34-29.89.71-44,1,.27-.85,1.17-.52,1.68-.42-1-1.87-2.5-.87-3.37-.13a8,8,0,0,1-.5-4.86c-1.37,0-1.25,2.87-1,4.62a5,5,0,0,0-3.49-2.62c.88.12,1.62,1.74,2.12,2.49a3.54,3.54,0,0,0-4.49-.12c1.15-.45,2.3.55,2.87,1.17-12.5.24-23.9.41-33,.41-8.71,0-19.4-.05-31.35-.16.18-1.11,1.18-.74,1.72-.63-1-1.87-2.5-.88-3.37-.13a8,8,0,0,1-.5-4.86c-1.37,0-1.25,2.87-1,4.61a5,5,0,0,0-3.49-2.62c.88.13,1.62,1.75,2.12,2.5a3.55,3.55,0,0,0-4.49-.13c1.17-.44,2.33.58,2.89,1.2-11.07-.11-23.06-.27-35.45-.48.11-1.64,1.44-1.13,2.14-1-1.23-2.3-3.07-1.07-4.14-.16-1.07-3.06-.92-4.59-.61-6-1.69,0-1.53,3.52-1.23,5.67-.3-.77-2.14-3.07-4.29-3.22,1.08.15,2,2.15,2.61,3.06a4.37,4.37,0,0,0-5.52-.15c1.54-.59,3.07.91,3.69,1.63-13.94-.25-28.26-.56-42.26-.93.18-1.11,1.18-.75,1.72-.64-1-1.87-2.5-.87-3.37-.12a8,8,0,0,1-.5-4.86c-1.37,0-1.25,2.86-1,4.61a5,5,0,0,0-3.49-2.62c.88.13,1.62,1.75,2.12,2.49a3.56,3.56,0,0,0-4.49-.12c1.1-.42,2.2.47,2.79,1.09l-15.51-.47c.19-2.06,1.91-1.4,2.81-1.22-1.61-3-4-1.41-5.43-.2-1.41-4-1.21-6-.81-7.85-2.21,0-2,4.63-1.61,7.44-.4-1-2.82-4-5.64-4.22,1.41.2,2.62,2.82,3.43,4a5.74,5.74,0,0,0-7.25-.2c1.85-.71,3.7.89,4.62,1.89-10.83-.39-21.06-.83-30.31-1.31.46-1.25,1.87-.73,2.67-.57-1.61-3-4-1.41-5.44-.2-1.41-4-1.21-6-.8-7.85-2.22,0-2,4.63-1.61,7.44-.41-1-2.82-4-5.64-4.22,1.41.2,2.62,2.82,3.42,4a5.72,5.72,0,0,0-7.24-.2,3.73,3.73,0,0,1,3.62,1l-5-.33c-5.3-.37-11.15-.52-17.35-.54.23-1,1.18-.63,1.7-.52-1-1.87-2.49-.88-3.36-.13a7.87,7.87,0,0,1-.5-4.86c-1.37,0-1.25,2.87-1,4.61a5,5,0,0,0-3.49-2.62c.87.13,1.62,1.75,2.12,2.5a3.55,3.55,0,0,0-4.49-.13c1.15-.44,2.3.56,2.87,1.18q-3.47,0-7,.12c.26-.89,1.18-.55,1.69-.45-1-1.87-2.5-.87-3.37-.12a8,8,0,0,1-.5-4.87c-1.37,0-1.24,2.87-1,4.62A5,5,0,0,0,107,5.66c.88.12,1.62,1.74,2.12,2.49A3.55,3.55,0,0,0,104.66,8a2,2,0,0,1,1.73.23,4.09,4.09,0,0,0-3.19,1.15l-.48,0c-1.29-3.82-1.1-5.79-.71-7.56-2.21,0-2,4.63-1.61,7.45-.4-1-2.82-4-5.64-4.22,1.41.2,2.62,2.81,3.43,4a5.74,5.74,0,0,0-7.25-.2,3.64,3.64,0,0,1,3.48.84C73.26,10.67,51.69,12,35.23,12H14.73c.44-1.36,1.89-.82,2.7-.66-1.61-3-4-1.41-5.43-.2-1.41-4-1.21-6-.81-7.85-2.21,0-2,4.63-1.61,7.45-.4-1-2.82-4-5.63-4.23,1.4.2,2.61,2.82,3.42,4a5.74,5.74,0,0,0-7.25-.21C1.84,9.68,3.55,11,4.53,12H-.77v4.53h32c34,0,115.5-.55,149.5-.55,43.13,0,116.88,4,160,4,35.5,0,109-3.45,144.5-3.45h39V12Z"/></svg>