<?xml version="1.0" encoding="utf-8"?>
<!-- Generator: Adobe Illustrator 22.1.0, SVG Export Plug-In . SVG Version: 6.00 Build 0)  -->
<svg version="1.1" id="Publicdomainvectors.org" xmlns="http://www.w3.org/2000/svg" xmlns:xlink="http://www.w3.org/1999/xlink"
	 x="0px" y="0px" viewBox="0 0 600 600" style="enable-background:new 0 0 600 600;" xml:space="preserve">
<style type="text/css">
	.st0{fill-rule:evenodd;clip-rule:evenodd;fill:#7CB64B;}
	.st1{fill-rule:evenodd;clip-rule:evenodd;fill:#F7911E;}
	.st2{fill-rule:evenodd;clip-rule:evenodd;fill:#CE6A28;}
	.st3{fill-rule:evenodd;clip-rule:evenodd;fill:#EB7923;}
	.st4{fill-rule:evenodd;clip-rule:evenodd;fill:#FFD7A3;}
	.st5{fill-rule:evenodd;clip-rule:evenodd;fill:#75491D;}
	.st6{fill-rule:evenodd;clip-rule:evenodd;fill:#D97D27;}
	.st7{fill-rule:evenodd;clip-rule:evenodd;fill:#FFFFFF;}
</style>
<g>
	<path class="st0" d="M312.6,518.7c133.6,0,242.6-6.3,242.6-14c0-7.7-109-14-242.6-14C179,490.6,70,497,70,504.7
		C70,512.4,179,518.7,312.6,518.7z"/>
	<g>
		<polygon class="st1" points="229.9,88.4 235.4,19.8 289.7,112.8 		"/>
		<polygon class="st2" points="235.4,102.8 239.8,47.2 261.8,95.5 		"/>
		<polygon class="st1" points="421.9,88.4 397.5,6.3 367.3,104.1 		"/>
		<polygon class="st2" points="414.6,90.5 401,41.7 393.5,89.6 		"/>
		<path class="st3" d="M180.5,444.6c13.2,5.3,19.3,20.4,13.6,33.7c-5.7,13.3-21,19.9-34.2,14.6l-37.7-15.1
			c-19.1-7.6-35.6-19.6-48.6-34.7c-13-15.1-22.4-33.3-27.1-53.3c-4.7-20-4.6-40.6,0.1-60.4c4.7-19.9,13.9-38.7,27.3-55
			c11.2-13.6,17-30,17.5-46.5c0.5-16.5-4.4-32.9-14.7-46.5c-8.6-11.2-6.2-27.5,5.3-36.5c11.5-8.9,27.8-7.1,36.3,4.2
			c17.6,23.1,26,51,25.1,78.8c-0.8,27.8-10.8,55.7-29.9,78.8c-8.1,9.8-13.7,21.2-16.5,33c-2.8,11.9-2.9,24.5,0,36.7
			c2.9,12.1,8.6,23.1,16.4,32.2c7.8,9.1,17.8,16.3,29.3,20.9L180.5,444.6z"/>
		<path class="st4" d="M90.2,211.9c-2-10.9-6.5-21.4-13.5-30.5c-8.6-11.2-6.2-27.5,5.3-36.5c11.5-8.9,27.8-7.1,36.3,4.2
			c11.3,14.9,18.8,31.7,22.5,49.2C133.1,179,88,195.6,90.2,211.9z"/>
		<path class="st1" d="M229.9,88.4c49-26.8,150-32.5,192,0c38.7,136.8,57.4,275.2,40,416.3H152h-16.4
			C185.7,381.6,220.5,245.7,229.9,88.4z"/>
		<path class="st3" d="M177.6,504.7H152h-16.4c47.8-117.5,81.7-246.8,92.8-395.3l0,0l3.3,54.7C238.9,280.9,220.1,397.1,177.6,504.7z
			"/>
		<path class="st5" d="M190.3,340.4c2.2-8.3,4.3-16.7,6.3-25.2l10.5,2.8c6.9,1.9,11,9,9.2,15.9c-1.9,6.9-9,11-15.9,9.2L190.3,340.4
			L190.3,340.4z M199.7,302.1c1.9-8.4,3.7-16.9,5.5-25.4l6.1,1.1c7.1,1.2,11.8,8,10.6,15c-1.2,7.1-8,11.8-15,10.6L199.7,302.1
			L199.7,302.1z M207.9,263.1c1.6-8.5,3.2-17,4.7-25.6l2.8,0.3c7.1,0.6,12.4,6.9,11.8,14c-0.6,7.1-6.9,12.4-14,11.8L207.9,263.1z"/>
		<path class="st6" d="M344.6,173.3L344.6,173.3L344.6,173.3c0-0.1,0-0.2,0-0.2l0,0l0,0l0,0l0,0l0,0l0-0.1l0,0l0,0l0,0l0,0l0,0l0,0
			l0,0l0,0l0,0l0,0l0,0l0,0l0,0l0,0l0,0c0.1-0.2,0.1-0.3,0.2-0.4l0,0l0,0l0,0l0,0l0,0l0,0l0,0l0,0l0,0l0,0l0,0l0,0l0,0l0,0l0,0l0,0
			l0,0l0,0l0,0l0,0l0,0l0,0l0,0l0,0l0,0l0,0l0.1,0l0,0l0,0c0.1-0.1,0.3-0.2,0.4-0.2l0,0l0,0l0,0l0,0l0,0l0,0l0,0l0,0l0,0l0,0l0,0
			l0,0l0,0l0,0l0,0l0.1,0h0l0,0l0,0l0,0l0,0c0,0,0.1,0,0.1,0h0l0.1,0l0,0l0.1,0h0l0.1,0h0h0.1h0l0.1,0h0l0.1,0l0,0l0.1,0h0
			c0,0,0.1,0,0.1,0l0,0l0,0l0,0l0,0h0l0.1,0l0,0l0,0l0,0l0,0l0,0l0,0l0,0l0,0l0,0l0,0l0,0l0,0l0,0l0,0l0,0c0.2,0.1,0.3,0.1,0.4,0.2
			l0,0l0,0l0.1,0l0,0l0,0l0,0l0,0l0,0l0,0l0,0l0,0l0,0l0,0l0,0l0,0l0,0l0,0l0,0l0,0l0,0l0,0l0,0l0,0l0,0l0,0l0,0l0,0l0,0l0,0
			c0.1,0.1,0.2,0.3,0.2,0.4l0,0l0,0l0,0l0,0l0,0l0,0l0,0l0,0l0,0l0,0l0,0l0,0l0,0l0,0l0,0l0,0.1l0,0l0,0l0,0l0,0l0,0
			c0,0,0,0.1,0,0.1l0,0l0,0.1v0v0c0.1,0.8,0.1,1.7,0,2.5c0.3,3.1,1.5,6,3.5,8.3c2.4,2.8,5.9,4.6,9.9,4.9c4,0.3,7.7-1.1,10.5-3.5
			c2.8-2.4,4.6-5.9,4.9-9.9c0.1-1.4,1.3-2.5,2.8-2.4c1.4,0.1,2.5,1.3,2.4,2.8c-0.4,5.4-2.9,10.1-6.7,13.4c-3.8,3.3-8.8,5.1-14.2,4.8
			c-5.4-0.4-10.1-2.9-13.4-6.7c-0.8-0.9-1.6-2-2.2-3c-0.6,1.1-1.4,2.1-2.2,3c-3.3,3.8-8,6.3-13.4,6.7c-5.4,0.4-10.4-1.5-14.2-4.8
			c-3.8-3.3-6.3-8-6.7-13.4c-0.1-1.4,1-2.7,2.4-2.8c1.4-0.1,2.7,1,2.8,2.4c0.3,4,2.1,7.4,4.9,9.9c2.8,2.4,6.5,3.8,10.5,3.5
			c4-0.3,7.4-2.1,9.9-4.9c2-2.3,3.2-5.1,3.5-8.3C344.5,175,344.5,174.2,344.6,173.3L344.6,173.3L344.6,173.3z"/>
		<path class="st4" d="M394.1,504.7H274c-4.8-26.1-5.9-57.5-2.4-91.1c9.5-91.5,49.4-165.7,89.1-165.7c39.7,0,64.2,74.2,54.7,165.7
			C412,447.2,404.3,478.5,394.1,504.7z"/>
		<path class="st7" d="M257.2,455.3c9.1,0,17.1,4.5,21.9,11.4c11.3,1.9,19.7,11.7,19.3,23.6c-0.2,5.4-2.1,10.3-5.2,14.3h-74.9
			c-2.9-4-4.5-9-4.3-14.3c0.4-11.9,9.3-21.7,20.7-23.6C239.8,459.8,248,455.3,257.2,455.3z"/>
		<path class="st7" d="M404.1,455.3c9.1,0,17.1,4.5,21.9,11.4c11.3,1.9,19.7,11.7,19.3,23.6c-0.2,5.4-2.1,10.3-5.2,14.3h-74.9
			c-2.9-4-4.5-9-4.3-14.3c0.4-11.9,9.3-21.7,20.7-23.6C386.7,459.8,395,455.3,404.1,455.3z"/>
		<path class="st5" d="M314.5,118c5.8,0,10.5,7.5,10.5,16.6c0,9.2-4.7,16.6-10.5,16.6c-5.8,0-10.5-7.5-10.5-16.6
			C304,125.4,308.7,118,314.5,118z"/>
		<path class="st5" d="M373.9,118c5.8,0,10.5,7.5,10.5,16.6c0,9.2-4.7,16.6-10.5,16.6c-5.8,0-10.5-7.5-10.5-16.6
			C363.4,125.4,368.1,118,373.9,118z"/>
		<path class="st5" d="M347.2,175.3c-5.8,0-16-13-12.2-22.1c3-7.2,20.2-6.8,23.4,0.3C362.3,162.3,353,175.3,347.2,175.3z"/>
	</g>
</g>
</svg>
