<svg id="Layer_1" data-name="Layer 1" xmlns="http://www.w3.org/2000/svg" viewBox="0 0 422.04 228.92"><defs><style>.cls-1{fill:#ff7f00;}.cls-2,.cls-9{fill:none;stroke:#000;stroke-linecap:square;stroke-miterlimit:10;}.cls-2{stroke-width:0.75px;}.cls-3{fill:#963d2a;}.cls-4{fill:#7b3222;}.cls-5{fill:#ffffc9;}.cls-6{fill:#fddc8e;}.cls-7{fill:#ff6500;}.cls-8{fill:#fc6522;}.cls-9{stroke-width:1.5px;}.cls-10{fill:#ffff06;}.cls-11{fill:#5a241e;}.cls-12{fill:#fdff98;}.cls-13{fill:#c76300;}</style></defs><title>tiger-02</title><path id="path3" class="cls-1" d="M128,20.91c31.29,2.85,67.16,5.92,95.65-8.32,31.85-15.92,68,5.85,93,23.23,7.78,5.4,14.93,11,21.94,15.78,3.08,2.11,22.82,11.35,22.82,14,0,4.23,17.64,6.13,21.06,6.13,7.43,0,15.88-11.11,19.31-15.78,4.32-5.87,10.78-19.28,17.55-10.52,5.76,7.45-2.42,16.22-5.7,22.8C406.34,82.88,390.84,93.81,372,88.42c-31.08-8.86-51.2-35.48-79-49.09,7.19,16.83,1.64,34.23,18.43,44.71,3.45,2.15,12.56,2.36,14,4.38s-.49,10.15-.88,12.28a164.86,164.86,0,0,1-7,25.42c-4.94,14.12-6.79,33.34-20.18,42.08-10.65,7-43.9-9.44-31.59-21.91,5.72-5.81,15.46-3.54,21.93-11.4,2.51-3,11.54-16.11,8.78-21-2-3.55-20.44-5.58-24.57-6.14-4.32-.58-10.36-.35-14-2.19-5.79-2.89-5.37.09-8.78,3.07-5.73,5-12.18,15.56-15.36,21.92-4.56,9.12-10,12.22-17.11,19.28-13.16,13.15-39.92-10.65-21.06-21.92,3.89-2.32,8.51.57,12.29-1.31,4.46-2.23,7-7.88,10.53-9.64,4.93-2.47,7.08-20.76,9.65-25.87-9.37,12.18-31.59,22.1-45.63,28.06-15.17,6.44-31.13,8-43,18.41-6.22,5.44-11,13-19.31,17.09-6,3-16.68,9.23-19.74,15.35-3.28,6.54-13.61,12.91-13.61,21,0,3.89-11.38,17.14-14.92,21-4.5,5-17.44,13.69-19.3.88-4,7-19.88,10.71-21.06,0-8.16,8.68-19.37-5-9.66-11.4-14.14-9.19,7.76-9.53,12.29-11.4,9.46-3.9,17.18-13.61,26.33-18.41,16.33-8.58,27.27-27.41,26.32-47.34-13.75,6-26.31,12.68-35.1,25.86-4.8,7.2,5.27,14.91-3.51,19.29-5.93,3-16.58-2-20.18-4.82-13.7-10.89-.4-28.43,9.65-39.45,6.19-6.8,12.91-10.73,6.14-19.29-5.31-6.73-15.32-6.07-21.06-12.28,1.45.14,2.94-.15,4.39,0a18.18,18.18,0,0,1-8.78-5.26c1.44.73,2.91,1.15,4.39,1.76a42.6,42.6,0,0,1-7-7.89c-1.23-.76,3.49.87,3.51.87C17,81.3,15.78,79,13.91,77a19.69,19.69,0,0,0,3.52.87c-3.16-1.81-2.82-3-4.39-6.13.64.21,2.15.75,2.63.87-2.6-6.49,3.23-19.87,7-25.42-7.42-1.45-7.12-12.33-14.92-14.91,20.69,1.32,40.71-8.73,60.55-9.64,10.18-.47,16.19,7.54,27.21,5.26C106.37,25.68,117,23,128,20.91"/><path id="path5" class="cls-2" d="M128,20.91c16.16,1.47,33.1,1.76,50,1.76,18.22,0,29.68-6.05,46.51-10.52"/><path id="path7" class="cls-2" d="M224.53,12.15c7.08-1.08,14.41-4.18,21.94-4.39,7.37-.2,14.52,2.63,21.06,2.63,12.36,0,37.22,12.8,43.88,22.8"/><path id="path9" class="cls-2" d="M311.41,33.19c15.69,3.49,28.52,21.26,43,28.49,13.14,6.56,24.9,17.07,39.49,3.07"/><path id="path11" class="cls-2" d="M393.9,64.75c5.58-4.3,21.18-34.16,27.2-16.66,3.79,11-12.62,27.1-17.55,33.32"/><path id="path13" class="cls-2" d="M403.55,81.41a28.15,28.15,0,0,1-22.82,8.77c-8.2-.66-16-7.9-23.69-7.9-3.28,0-18.91-8.85-20.62-12.27-1.93-3.84-15.75-13.34-19.75-14.9"/><path id="path15" class="cls-2" d="M316.67,55.11C310.84,48.4,300.46,43,293,39.33c4.2,9.82,1.74,22.32,6.14,31.56.94,2,7.92,11.39,10.53,11.39,1.4,0,15.44,6.72,15.8,7"/><path id="path17" class="cls-2" d="M325.45,89.3c.5,15.65-6.23,31.28-10.53,45.59-3.75,12.49-8.74,34.35-23.69,36.82"/><path id="path19" class="cls-2" d="M291.22,171.71c-7.22-.47-17-5-21.94-9.64-2.52-2.38-10.69-16.66-1.75-16.66,16.81,0,24.09-15.49,29-28.93"/><path id="path21" class="cls-2" d="M296.49,116.48c0-5.68-37-13.55-43-12.27-9.85,2.11-20.06,29.62-26.33,37.7"/><path id="path23" class="cls-2" d="M227.16,141.9c-5,5.67-12.85,10.6-20.18,10.52-6.88-.07-16.68-2.73-16.68-9.64,0-8.21,2.15-12.73,9.66-15.78,3.5-1.43,6.56.25,10.53-1.76,3.39-1.72,6.54-6.32,8.77-8.76"/><path id="path25" class="cls-2" d="M219.26,116.48c3.89-7.89,4.87-17.66,8.78-25.42-11.69,15.17-37.94,24.66-55.29,32.43"/><path id="path27" class="cls-2" d="M172.75,123.49c-6.45,3-14.18,1.82-20.18,4.82-7.07,3.53-12.39,9.31-17.56,14.47-11.07,11.07-25.58,20.48-37.73,29.81"/><path id="path29" class="cls-2" d="M97.28,172.59c-7.21,10.81-12,20.47-19.3,30.69-3.94,5.5-22.73,28.35-25.45,9.64-4.63,8.1-13.19,7.92-20.19,3.51"/><path id="path31" class="cls-2" d="M32.34,216.42c-.2-1.35-1.07-2-.88-3.51-8.15,8.68-19.36-5-9.65-11.39C7.4,192.15,30.52,191.91,35,189.68c10.19-5.09,16-15.15,27.21-18.85"/><path id="path33" class="cls-2" d="M62.18,170.83c15.61-6.26,25.4-29.14,24.57-46.47-9.21,4-20.74,8.91-28.08,16.66"/><path id="path35" class="cls-2" d="M58.67,141c-6.35,4.31-8.08,11.27-8.78,18.41-.37,3.9,5.3,4.32,0,8.77-4.24,3.56-6.3-.62-10.53.44-6.67,1.66-14.5-3.29-16.67-8.33-3.87-9,1.24-16.53,6.14-22.8"/><path id="path37" class="cls-2" d="M28.83,137.52c4.33-4.21,18.76-19.26,18.43-25.43C46.66,100.73,29,100.5,22.69,93.68c1.45.14,2.94-.15,4.39,0a18.18,18.18,0,0,1-8.78-5.26c1.44.73,2.91,1.14,4.39,1.76-2-2-4-4.24-6.14-6.14"/><path id="path39" class="cls-2" d="M16.55,84c.5-.29-1.24-1.77-1.76-1.76a20.22,20.22,0,0,0,4.39.88C17,81.3,15.78,79,13.91,77a19,19,0,0,0,3.51.88c-3.15-1.81-2.81-3-4.38-6.14.64.22,2.15.76,2.63.88-2.6-6.49,3.23-19.88,7-25.42-7.42-1.45-7.12-12.33-14.92-14.91a37.82,37.82,0,0,1,4.39,0"/><path id="path41" class="cls-2" d="M12.16,32.31c16.19-1,31.6-7,47.39-7,9.33,0,11.76-2.08,21.06.88,8.76,2.78,16.55,2.91,25.45-1.76"/><path id="path43" class="cls-2" d="M106.06,24.42c6.84-2.32,14.81-2.16,21.94-3.51"/><path id="path45" class="cls-2" d="M128,20.91c31.29,2.85,67.16,5.92,95.65-8.32,31.85-15.92,68,5.85,93,23.23,7.78,5.4,14.93,11,21.94,15.78,3.08,2.11,22.82,11.35,22.82,14,0,4.23,17.64,6.13,21.06,6.13,7.43,0,15.88-11.11,19.31-15.78,4.32-5.87,10.78-19.28,17.55-10.52,5.76,7.45-2.42,16.22-5.7,22.8C406.34,82.88,390.84,93.81,372,88.42c-31.08-8.86-51.2-35.48-79-49.09,7.19,16.83,1.64,34.23,18.43,44.71,3.45,2.15,12.56,2.36,14,4.38s-.49,10.15-.88,12.28a164.86,164.86,0,0,1-7,25.42c-4.94,14.12-6.79,33.34-20.18,42.08-10.65,7-43.9-9.44-31.59-21.91,5.72-5.81,15.46-3.54,21.93-11.4,2.51-3,11.54-16.11,8.78-21-2-3.55-20.44-5.58-24.57-6.14-4.32-.58-10.36-.35-14-2.19-5.79-2.89-5.37.09-8.78,3.07-5.73,5-12.18,15.56-15.36,21.92-4.56,9.12-10,12.22-17.11,19.28-13.16,13.15-39.92-10.65-21.06-21.92,3.89-2.32,8.51.57,12.29-1.31,4.46-2.23,7-7.88,10.53-9.64,4.93-2.47,7.08-20.76,9.65-25.87-9.37,12.18-31.59,22.1-45.63,28.06-15.17,6.44-31.13,8-43,18.41-6.22,5.44-11,13-19.31,17.09-6,3-16.68,9.23-19.74,15.35-3.28,6.54-13.61,12.91-13.61,21,0,3.89-11.38,17.14-14.92,21-4.5,5-17.44,13.69-19.3.88-4,7-19.88,10.71-21.06,0-8.16,8.68-19.37-5-9.66-11.4-14.14-9.19,7.76-9.53,12.29-11.4,9.46-3.9,17.18-13.61,26.33-18.41,16.33-8.58,27.27-27.41,26.32-47.34-13.75,6-26.31,12.68-35.1,25.86-4.8,7.2,5.27,14.91-3.51,19.29-5.93,3-16.58-2-20.18-4.82-13.7-10.89-.4-28.43,9.65-39.45,6.19-6.8,12.91-10.73,6.14-19.29-5.31-6.73-15.32-6.07-21.06-12.28,1.45.14,2.94-.15,4.39,0a18.18,18.18,0,0,1-8.78-5.26c1.44.73,2.91,1.15,4.39,1.76a42.6,42.6,0,0,1-7-7.89c-1.23-.76,3.49.87,3.51.87C17,81.3,15.78,79,13.91,77a19.69,19.69,0,0,0,3.52.87c-3.16-1.81-2.82-3-4.39-6.13.64.21,2.15.75,2.63.87-2.6-6.49,3.23-19.87,7-25.42-7.42-1.45-7.12-12.33-14.92-14.91,20.69,1.32,40.71-8.73,60.55-9.64,10.18-.47,16.19,7.54,27.21,5.26C106.37,25.68,117,23,128,20.91"/><path id="path47" d="M84.12,27.93c4,8.61,18.14,1.75,26.33,1.75-.18,0,16,20,16.67,21.92-1.46-6.87-7.56-19.62-14-23.67-9.84-6.15-19.3,3.87-29,0"/><path id="path49" class="cls-2" d="M84.12,27.93c4,8.61,18.14,1.75,26.33,1.75-.18,0,16,20,16.67,21.92-2.7-12.72-10.61-23.22-23.7-26.3"/><path id="path51" class="cls-2" d="M103.42,25.3C98.55,28.11,89.36,30,84.11,27.93"/><path id="path53" class="cls-2" d="M84.12,27.93c4,8.61,18.14,1.75,26.33,1.75-.18,0,16,20,16.67,21.92-1.46-6.87-7.56-19.62-14-23.67-9.84-6.15-19.3,3.87-29,0"/><path id="path55" class="cls-2" d="M84.12,27.93a7.7,7.7,0,0,0,4.39,4.38"/><path id="path57" class="cls-2" d="M84.12,27.93a7.7,7.7,0,0,0,4.39,4.38"/><path id="path59" class="cls-2" d="M88.51,32.31c3.28-.25,6.38-.53,9.65-.87"/><path id="path61" class="cls-2" d="M88.51,32.31c3.28-.25,6.38-.53,9.65-.87"/><path id="path63" class="cls-2" d="M98.16,31.44a29.53,29.53,0,0,1,12.29-1.76"/><path id="path65" class="cls-2" d="M98.16,31.44a29.53,29.53,0,0,1,12.29-1.76"/><path id="path67" class="cls-3" d="M59.55,73.52C54.78,83,53.08,89.19,56.48,99.38c1.7,5.11.47,10.82,7.45,11.84,2.12.3,13.44-5.18,14.05-6.14,1.57-2.51,0-10.9,0-14,0-4.18,6-9.29,5.26-14C81,63.42,66.66,69.52,59.55,73.52"/><path id="path69" class="cls-4" d="M81.49,84.92c5.59-16.53-14.67-22.59-22.82-9.65C50,89,74.15,90.3,81.49,84.92"/><path id="path71" d="M78.85,69.13c-3.9-3.16-9.93-3.82-14,0,3.25,3.27,13.68,3.68,14,0"/><path id="path73" class="cls-2" d="M78.85,69.13c-3.9-3.16-9.93-3.82-14,0,3.25,3.27,13.68,3.68,14,0"/><path id="path75" class="cls-2" d="M78.85,69.13c-3.9-3.16-9.93-3.82-14,0,3.25,3.27,13.68,3.68,14,0"/><path id="path77" class="cls-2" d="M78,103.32c-1.2-1.57-7.5-4.31-6.59-6.14a31,31,0,0,0,3.07-9.64c-3.38,1.25-12.44-1.43-13.6.88-1.86,3.72-4.69,9.91-2.63,14,2.88,5.76,5.29,5.91,11,6.14s10.63-3.92,8.78-5.26"/><path id="path79" class="cls-2" d="M78,103.32c-1.2-1.57-7.5-4.31-6.59-6.14a31,31,0,0,0,3.07-9.64c-3.38,1.25-12.44-1.43-13.6.88-1.86,3.72-4.69,9.91-2.63,14,2.88,5.76,5.29,5.91,11,6.14s10.63-3.92,8.78-5.26"/><path id="path81" class="cls-2" d="M73.59,102.45c-3.32-2.93-7.34-3-10.53,0"/><path id="path83" class="cls-2" d="M73.59,102.45c-3.32-2.93-7.34-3-10.53,0"/><path id="path85" class="cls-5" d="M62.18,72.64a153.2,153.2,0,0,0,.88,16.66c0-5.67,1.52-11.29,2.63-16.66,2.53.7.53,0,1.75,1.75,3.42-.78,1.27-.77,5.27,0V72.64c1.74.11,1.47,1.31,2.63,1.75-.57.07,1.22-1.61,1.76-1.75.8.61.47,2,.87,2.63.72-1.93,0-1.46,1.76-2.63,2.4,5,3,10.18,2.63,15.78,2.79-5.23,2.53-24.77-6.14-16.66-2.11-2.45-1.35-2-2.63,0-2.21-1.18-8-3.38-11.41.88"/><path id="path87" class="cls-2" d="M62.18,72.64a153.2,153.2,0,0,0,.88,16.66c0-5.67,1.52-11.29,2.63-16.66,2.53.7.53,0,1.75,1.75,3.42-.78,1.27-.77,5.27,0V72.64c1.74.11,1.47,1.31,2.63,1.75-.57.07,1.22-1.61,1.76-1.75.8.61.47,2,.87,2.63.55-2,.08-1.5,1.76-2.63A17.82,17.82,0,0,0,81.48,77"/><path id="path89" class="cls-2" d="M81.49,77a33.76,33.76,0,0,1,.87,11.4c2.79-5.23,2.53-24.77-6.14-16.66-2.11-2.45-1.35-2-2.63,0-2.21-1.18-8-3.38-11.41.88"/><path id="path91" class="cls-2" d="M62.18,72.64a153.2,153.2,0,0,0,.88,16.66c0-5.67,1.52-11.29,2.63-16.66,2.53.7.53,0,1.75,1.75,3.42-.78,1.27-.77,5.27,0V72.64c1.74.11,1.47,1.31,2.63,1.75-.57.07,1.22-1.61,1.76-1.75.8.61.47,2,.87,2.63.72-1.93,0-1.46,1.76-2.63,2.4,5,3,10.18,2.63,15.78,2.79-5.23,2.53-24.77-6.14-16.66-2.11-2.45-1.35-2-2.63,0-2.21-1.18-8-3.38-11.41.88"/><path id="path93" d="M81.49,106.83c1.52,7.58-4.88,4-10.1,5.7-8.2,2.73-9.32,3.34-13.6-5.7,4.54.78,5.46,2.49,9.65,2.63,4.55.15,8.67-3.32,14-2.63"/><path id="path95" class="cls-2" d="M81.49,106.83c1.52,7.58-4.88,4-10.1,5.7-8.2,2.73-9.32,3.34-13.6-5.7,4.54.78,5.46,2.49,9.65,2.63,4.55.15,8.67-3.32,14-2.63"/><path id="path97" class="cls-2" d="M81.49,106.83c1.52,7.58-4.88,4-10.1,5.7-8.2,2.73-9.32,3.34-13.6-5.7,4.54.78,5.46,2.49,9.65,2.63,4.55.15,8.67-3.32,14-2.63"/><path id="path99" class="cls-5" d="M80.61,91.93c4,6.7,1.31,20.36-7.9,15.78-1.32,1.67-2.1,1.5-4.39,3.51l-.87-1.76c-.27.8-.67,2-.88,2.63l-1.76-1.75c-4.35,5.62-7.15-12.41-4.38-17.53.73,5.44,1.41,11.43,4.38,15.78.25-.32.57-2.11.88-2.63.59.87,1.17,1.75,1.76,2.63V106c3.08.91,1.75-1.23,5.26.87V104.2l2.63,2.63c2.88-4.67,3.13-10,5.27-14.92"/><path id="path101" class="cls-2" d="M80.61,91.93c4,6.7,1.31,20.36-7.9,15.78-1.32,1.67-2.1,1.5-4.39,3.51l-.87-1.76c-.27.8-.67,2-.88,2.63l-1.76-1.75c-4.35,5.62-7.15-12.41-4.38-17.53a87,87,0,0,0,1.75,8.76"/><path id="path103" class="cls-2" d="M62.18,101.57c.31,2.82.71,4.94,2.63,7,.25-.31.57-2.1.88-2.63l1.75,2.63V106c3.09.92,1.76-1.22,5.27.88V104.2l2.63,2.63c2.88-4.65,3.14-10,5.27-14.9"/><path id="path105" class="cls-2" d="M80.61,91.93c4,6.7,1.31,20.36-7.9,15.78-1.32,1.67-2.1,1.5-4.39,3.51l-.87-1.76c-.27.8-.67,2-.88,2.63l-1.76-1.75c-4.35,5.62-7.15-12.41-4.38-17.53.73,5.44,1.41,11.43,4.38,15.78.25-.32.57-2.11.88-2.63.59.87,1.17,1.75,1.76,2.63V106c3.08.91,1.75-1.23,5.26.87V104.2l2.63,2.63c2.88-4.67,3.13-10,5.27-14.92"/><path id="path107" class="cls-6" d="M15.67,72.64c-1.14-.29-1.11-1.27-2.63-.88,1.57,3.13,1.23,4.33,4.38,6.14A19.8,19.8,0,0,1,13.91,77c1.87,2,3.12,4.27,5.27,6.13,0,0-4.74-1.63-3.51-.87a42.6,42.6,0,0,0,7,7.89c-1.48-.62-3-1-4.39-1.76a18.18,18.18,0,0,0,8.78,5.26c-1.45-.15-2.94.14-4.39,0,5.5,5.72,14.32,6,20.18,11.4C49.3,111,48.14,119.36,51.65,127c.18-1.54.71-2.8.88-4.39a18.13,18.13,0,0,0,2.63,9.65c.29-2.29,1.2-3.18,1.76-5.26.44,4.2,1,4,3.51,7,0-1.89.75-4.51.87-7,.75,4.52,1.48,8.66,4.39,12.27-.37-3.46.81-5.17,1.76-7.89.85,3,2.11,3,3.51,5.26A51.89,51.89,0,0,1,72.71,127c.09,1.95.65,3.5.88,5.26.82-2.82,2.45-5.25,3.51-7.89-.06,1.45,0,2.92,0,4.38,2-5.35,5.51-11,5.26-16.66-5.56,5.27-13.83,4.39-21.06,4.39-5.38,0-8.12-13.37-11.41-16.66s-16.83-5.59-18-7.89c-3.2-6.39-12-12.74-16.23-19.28"/><path id="path109" class="cls-2" d="M15.67,72.64c-1.14-.29-1.11-1.27-2.63-.88,1.57,3.13,1.23,4.33,4.38,6.14A19.8,19.8,0,0,1,13.91,77c1.87,2,3.12,4.27,5.27,6.13,0,0-4.74-1.63-3.51-.87a42.6,42.6,0,0,0,7,7.89c-1.48-.62-3-1-4.39-1.76a18.18,18.18,0,0,0,8.78,5.26c-1.45-.15-2.94.14-4.39,0,5.24,5.44,13.72,7.34,20.18,11.4"/><path id="path111" class="cls-2" d="M42.87,105.08c6.27,6.1,5.23,14.19,8.78,21.92.18-1.54.71-2.8.88-4.39a18.13,18.13,0,0,0,2.63,9.65c.29-2.29,1.2-3.18,1.76-5.26.44,4.2,1,4,3.51,7,0-1.89.75-4.51.87-7,.75,4.52,1.48,8.66,4.39,12.27-.37-3.46.81-5.17,1.76-7.89.85,3,2.11,3,3.51,5.26.11-3.11,1.39-5.69,1.75-8.77"/><path id="path113" class="cls-2" d="M72.71,127.87c.05-1.5.43,3,.88,4.39.82-2.83,2.45-5.25,3.51-7.9-.06,1.46,0,2.93,0,4.39,2-5.36,5.51-11,5.26-16.66-4,3.82-14.54,6.47-20.18,4.38-6.58-2.42-7.12-9.44-10.53-14.9"/><path id="path115" class="cls-2" d="M51.65,101.57C46,95.51,38.29,96.26,32.34,92.8c-6.41-3.72-12.65-13.89-16.67-20.16"/><path id="path117" class="cls-2" d="M15.67,72.64c-1.14-.29-1.11-1.27-2.63-.88,1.57,3.13,1.23,4.33,4.38,6.14A19.8,19.8,0,0,1,13.91,77c1.87,2,3.12,4.27,5.27,6.13,0,0-4.74-1.63-3.51-.87a42.6,42.6,0,0,0,7,7.89c-1.48-.62-3-1-4.39-1.76a18.18,18.18,0,0,0,8.78,5.26c-1.45-.15-2.94.14-4.39,0,5.5,5.72,14.32,6,20.18,11.4C49.3,111,48.14,119.36,51.65,127c.18-1.54.71-2.8.88-4.39a18.13,18.13,0,0,0,2.63,9.65c.29-2.29,1.2-3.18,1.76-5.26.44,4.2,1,4,3.51,7,0-1.89.75-4.51.87-7,.75,4.52,1.48,8.66,4.39,12.27-.37-3.46.81-5.17,1.76-7.89.85,3,2.11,3,3.51,5.26A51.89,51.89,0,0,1,72.71,127c.09,1.95.65,3.5.88,5.26.82-2.82,2.45-5.25,3.51-7.89-.06,1.45,0,2.92,0,4.38,2-5.35,5.51-11,5.26-16.66-5.56,5.27-13.83,4.39-21.06,4.39-5.38,0-8.12-13.37-11.41-16.66s-16.83-5.59-18-7.89c-3.2-6.39-12-12.74-16.23-19.28"/><path id="path119" class="cls-7" d="M72.71,67.38c6.65,2.46,9.48,9.64,18,9.64s8-11.39,5.7-17.53c-3.57-9.35-8.71-9.67-15.35-7.45-7.4,2.46-18.29,8.14-21.5-3.07C47.94,56.77,42,61.93,42,76.15c0,13.31,28.91-8.33,30.71-8.77"/><path id="path121" class="cls-6" d="M42.87,63.87c-7.38,17,8.46,18,19.31,10.52,8.1-5.56,7.21-7.88,15.8-3.5C81.47,72.67,88.73,80.8,94.65,77c3-1.94,3.89-16.65,1.75-16.65-7.63,0-11.21-2.21-18.42-.88C69.84,61,48.05,73.66,42.87,63.87"/><path id="path123" d="M78,51.6c13.44-1.24,3,20.33-7,15.34-2.26-1.12-8.95-9.36-7-12.71s11.23-1.39,14-2.63"/><path id="path125" class="cls-2" d="M78,51.6c13.44-1.24,3,20.33-7,15.34-2.26-1.12-8.95-9.36-7-12.71s11.23-1.39,14-2.63"/><path id="path127" class="cls-2" d="M78,51.6c13.44-1.24,3,20.33-7,15.34-2.26-1.12-8.95-9.36-7-12.71s11.23-1.39,14-2.63"/><path id="path129" class="cls-8" d="M78,52.48c9.86-1.49,2,5.42,1.75,6.13-2,6.31-2.57,8.72-7.9,6.14.43.21-6.63-10.25-7-8.77,1.43-5.44,8.9-2.38,13.17-3.5"/><path id="path131" class="cls-2" d="M78,52.48c9.86-1.49,2,5.42,1.75,6.13-2,6.31-2.57,8.72-7.9,6.14.43.21-6.63-10.25-7-8.77,1.43-5.44,8.9-2.38,13.17-3.5"/><path id="path133" class="cls-2" d="M78,52.48c9.86-1.49,2,5.42,1.75,6.13-2,6.31-2.57,8.72-7.9,6.14.43.21-6.63-10.25-7-8.77,1.43-5.44,8.9-2.38,13.17-3.5"/><path id="path135" class="cls-9" d="M73.59,60.37V66.5"/><path id="path137" class="cls-9" d="M73.59,60.37V66.5"/><line id="line139" class="cls-9" x1="0.75" y1="0.75" x2="0.75" y2="0.75"/><path id="path141" d="M97.28,67.38c1.72,10.59-8.42.9-10.53-.88a20.17,20.17,0,0,0,10.53.88"/><path id="path143" d="M97.28,61.24c.25,6.09-6.79,3.07-10.53.88a27.43,27.43,0,0,0,10.53-.88"/><path id="path145" d="M96.4,60.37c-4.13.89-8,1-9.65-2.63,4.37-1,9.06-2.24,9.65,2.63"/><path id="path147" d="M89.39,50.72l1.75,1.76c-2.82,1.15-3.08,1.62-6.14.87a30,30,0,0,0,4.39-2.63"/><path id="path149" d="M52.53,54.23c2.77-2.1,3.84-2.41,4.38,2.63-.38-2.94-2.09-1.39-4.38-2.63"/><path id="path151" d="M46.38,59.49c2.22-1.92,2.72-3.93,6.15-1.75a36.82,36.82,0,0,1-6.15,1.75"/><path id="path153" d="M42.87,63.87c2.81-2.61,7.82-3,9.66.88-2.45-3.25-5.82-1.08-9.66-.88"/><path id="path155" d="M41.12,71.76c-.65-6.23,6.15-4.3,10.53-5.26-3.66,1.18-6.8,3.93-10.53,5.26"/><path id="path157" d="M43.75,78.78c-.58-.59-1.17-1.17-1.75-1.75,3.64-1.25,6.28-4.56,9.65-7-2.2,3.93-2.77,8.33-7.9,8.77"/><line id="line159" class="cls-2" x1="84.12" y1="67.38" x2="83.24" y2="67.38"/><line id="line161" class="cls-2" x1="84.12" y1="67.38" x2="83.24" y2="67.38"/><line id="line163" class="cls-2" x1="82.36" y1="65.63" x2="81.49" y2="66.5"/><line id="line165" class="cls-2" x1="82.36" y1="65.63" x2="81.49" y2="66.5"/><line id="line167" class="cls-2" x1="84.12" y1="63.87" x2="82.36" y2="63"/><line id="line169" class="cls-2" x1="84.12" y1="63.87" x2="82.36" y2="63"/><line id="line171" class="cls-2" x1="63.06" y1="61.24" x2="61.3" y2="60.37"/><line id="line173" class="cls-2" x1="63.06" y1="61.24" x2="61.3" y2="60.37"/><line id="line175" class="cls-2" x1="60.42" y1="58.61" x2="58.67" y2="58.61"/><line id="line177" class="cls-2" x1="60.42" y1="58.61" x2="58.67" y2="58.61"/><line id="line179" class="cls-2" x1="63.06" y1="62.12" x2="61.3" y2="62.12"/><line id="line181" class="cls-2" x1="63.06" y1="62.12" x2="61.3" y2="62.12"/><line id="line183" class="cls-2" x1="59.55" y1="62.12" x2="58.67" y2="62.12"/><line id="line185" class="cls-2" x1="59.55" y1="62.12" x2="58.67" y2="62.12"/><line id="line187" class="cls-2" x1="56.91" y1="62.12" x2="56.04" y2="62.12"/><line id="line189" class="cls-2" x1="56.91" y1="62.12" x2="56.04" y2="62.12"/><line id="line191" class="cls-2" x1="57.79" y1="58.61" x2="57.79" y2="59.49"/><line id="line193" class="cls-2" x1="57.79" y1="58.61" x2="57.79" y2="59.49"/><line id="line195" class="cls-2" x1="61.3" y1="64.75" x2="60.42" y2="65.63"/><line id="line197" class="cls-2" x1="61.3" y1="64.75" x2="60.42" y2="65.63"/><line id="line199" class="cls-2" x1="57.79" y1="65.63" x2="56.91" y2="66.5"/><line id="line201" class="cls-2" x1="57.79" y1="65.63" x2="56.91" y2="66.5"/><line id="line203" class="cls-2" x1="55.16" y1="65.63" x2="54.28" y2="67.38"/><line id="line205" class="cls-2" x1="55.16" y1="65.63" x2="54.28" y2="67.38"/><line id="line207" class="cls-2" x1="58.67" y1="67.38" x2="57.79" y2="69.13"/><line id="line209" class="cls-2" x1="58.67" y1="67.38" x2="57.79" y2="69.13"/><line id="line211" class="cls-2" x1="63.94" y1="64.75" x2="63.06" y2="65.63"/><line id="line213" class="cls-2" x1="63.94" y1="64.75" x2="63.06" y2="65.63"/><line id="line215" class="cls-2" x1="56.04" y1="70.01" x2="55.16" y2="70.89"/><line id="line217" class="cls-2" x1="56.04" y1="70.01" x2="55.16" y2="70.89"/><line id="line219" class="cls-2" x1="52.53" y1="70.89" x2="52.53" y2="71.76"/><line id="line221" class="cls-2" x1="52.53" y1="70.89" x2="52.53" y2="71.76"/><line id="line223" class="cls-2" x1="57.79" y1="58.61" x2="56.04" y2="59.49"/><line id="line225" class="cls-2" x1="57.79" y1="58.61" x2="56.04" y2="59.49"/><path id="path227" d="M82.36,52.48c2.46-3.58,3-1.27,5.27-3.51s2.45-6.71,4.39-9.64c-2.58.39-9.45-1.41-11.41.87-.81.94,2.3,8.7,1.75,12.28"/><path id="path229" class="cls-2" d="M82.36,52.48c2.46-3.58,3-1.27,5.27-3.51s2.45-6.71,4.39-9.64c-2.58.39-9.45-1.41-11.41.87-.81.94,2.3,8.7,1.75,12.28"/><path id="path231" class="cls-2" d="M82.36,52.48c2.46-3.58,3-1.27,5.27-3.51s2.45-6.71,4.39-9.64c-2.58.39-9.45-1.41-11.41.87-.81.94,2.3,8.7,1.75,12.28"/><path id="path233" class="cls-10" d="M80.61,42c12-5.51,1.58,15.07,0,0"/><path id="path235" class="cls-2" d="M80.61,42c12-5.51,1.58,15.07,0,0"/><path id="path237" class="cls-2" d="M80.61,42c12-5.51,1.58,15.07,0,0"/><path id="path239" d="M82.36,42c.12,1.44,0,2.93,0,4.38,3.44-2.47.91-2.79,0-4.38"/><path id="path241" class="cls-2" d="M82.36,42c.12,1.44,0,2.93,0,4.38,3.44-2.47.91-2.79,0-4.38"/><path id="path243" class="cls-2" d="M82.36,42c.12,1.44,0,2.93,0,4.38,3.44-2.47.91-2.79,0-4.38"/><path id="path245" class="cls-9" d="M78.85,42A8.15,8.15,0,0,0,78,47.22"/><path id="path247" class="cls-9" d="M78.85,42A8.15,8.15,0,0,0,78,47.22"/><path id="path249" class="cls-9" d="M78,38.45a8.44,8.44,0,0,0-2.64,7"/><path id="path251" class="cls-9" d="M78,38.45a8.44,8.44,0,0,0-2.64,7"/><path id="path253" class="cls-9" d="M69.2,46.34a9.79,9.79,0,0,0-10.53-5.26"/><path id="path255" class="cls-9" d="M69.2,46.34a9.79,9.79,0,0,0-10.53-5.26"/><path id="path257" class="cls-9" d="M67.44,49.85a14.73,14.73,0,0,1-4.38-2.63"/><path id="path259" class="cls-9" d="M67.44,49.85a14.73,14.73,0,0,1-4.38-2.63"/><path id="path261" class="cls-9" d="M63.06,47.22a3.76,3.76,0,0,0-4.39-2.63"/><path id="path263" class="cls-9" d="M63.06,47.22a3.76,3.76,0,0,0-4.39-2.63"/><path id="path265" class="cls-7" d="M80.61,40.2c1.67-9.55,13-7,20.18-7-4.83,8.53-12.5,5.62-20.18,7"/><path id="path267" class="cls-7" d="M52.53,42a11.78,11.78,0,0,0-11.41-8.77c-5.88,0-3.44,6.52-3.51,10.52,5.07-.24,9.73-1.6,14.92-1.75"/><path id="path269" d="M56.91,44.59c-8.59-4.42-10.32-2-19.3-1.76,4.77,7.41,13,10.48,19.3,1.76"/><path id="path271" class="cls-2" d="M56.91,44.59c-8.59-4.42-10.32-2-19.3-1.76,4.77,7.41,13,10.48,19.3,1.76"/><path id="path273" class="cls-2" d="M56.91,44.59c-8.59-4.42-10.32-2-19.3-1.76,4.77,7.41,13,10.48,19.3,1.76"/><path id="path275" class="cls-10" d="M49.89,42c3.51,3.11.5,8.13-4.38,5.69C40.1,45,46.06,40.5,49.89,42"/><path id="path277" class="cls-2" d="M49.89,42c3.51,3.11.5,8.13-4.38,5.69C40.1,45,46.06,40.5,49.89,42"/><path id="path279" class="cls-2" d="M49.89,42c3.51,3.11.5,8.13-4.38,5.69C40.1,45,46.06,40.5,49.89,42"/><path id="path281" d="M47.26,42c-.37,2-1.47,3,0,5.26,3.2-2.85,1.09-3.27,0-5.26"/><path id="path283" class="cls-2" d="M47.26,42c-.37,2-1.47,3,0,5.26,3.2-2.85,1.09-3.27,0-5.26"/><path id="path285" class="cls-2" d="M47.26,42c-.37,2-1.47,3,0,5.26,3.2-2.85,1.09-3.27,0-5.26"/><path id="path287" class="cls-11" d="M102.55,53.35C107,68,110.41,77.86,99.92,92.81c-4.34,6.17-12.13,8.29-15.8,14-3.13,4.89-5.36,15.73-7,21,12.34-3.86,31-18.05,37.3-30.68,6.14-12.27-.66-37.37-11.85-43.83"/><path id="path289" d="M106.06,51.6c17.8,7.79,21.87,29.09,17.55,46.46-3.27,13.15-28.33,30.26-41.24,28.94,4-6.14,12-7.45,17.55-10.52,6.71-3.73,11.68-9.57,17.55-14C114.33,94.74,119.22,85,119.22,77c0-10-7.12-18.13-13.17-25.42"/><path id="path291" class="cls-2" d="M106.06,51.6c17.34,7.58,18.43,23.2,18.43,39.89,0,20.88-22.71,18.3-28.08,34.63"/><path id="path293" class="cls-2" d="M96.4,126.12c-4.72.14-9.25,1.37-14,.88,4-6.15,12-7.45,17.55-10.52,6.72-3.73,11.69-9.57,17.56-14-4.87-12,8.54-29.93-3.51-40.33"/><path id="path295" class="cls-2" d="M114,62.12a91.7,91.7,0,0,0-7.9-10.52"/><path id="path297" class="cls-2" d="M106.06,51.6c17.8,7.79,21.87,29.09,17.55,46.46-3.27,13.15-28.33,30.26-41.24,28.94,4-6.14,12-7.45,17.55-10.52,6.71-3.73,11.68-9.57,17.55-14C114.33,94.74,119.22,85,119.22,77c0-10-7.12-18.13-13.17-25.42"/><path id="path299" d="M47.26,52.48c-12,2.88-14.92-.76-14.92-12.28.17,8.76,6.55,12.25,14.92,12.28"/><path id="path301" class="cls-2" d="M47.26,52.48c-12,2.88-14.92-.76-14.92-12.28.17,8.76,6.55,12.25,14.92,12.28"/><path id="path303" class="cls-2" d="M47.26,52.48c-12,2.88-14.92-.76-14.92-12.28.17,8.76,6.55,12.25,14.92,12.28"/><path id="path305" d="M46.38,58.61c-11.19-3.24-20.73-3-14.91-17.53-10.39,7.91,4,29.51,14.91,17.53"/><path id="path307" class="cls-2" d="M46.38,58.61c-11.19-3.24-20.73-3-14.91-17.53-10.39,7.91,4,29.51,14.91,17.53"/><path id="path309" class="cls-2" d="M46.38,58.61c-11.19-3.24-20.73-3-14.91-17.53-10.39,7.91,4,29.51,14.91,17.53"/><path id="path311" d="M42,77c-9.81-8.56-20-16-14-30.68-3.45,4.4-5.54,17.26-.87,21.92C28.65,69.83,30.5,77,33.22,77,37,77,42.35,81.37,42,77"/><path id="path313" class="cls-2" d="M42,77c-9.81-8.56-20-16-14-30.68-3.45,4.4-5.54,17.26-.87,21.92C28.65,69.83,30.5,77,33.22,77,37,77,42.35,81.37,42,77"/><path id="path315" class="cls-2" d="M42,77c-9.81-8.56-20-16-14-30.68-3.45,4.4-5.54,17.26-.87,21.92C28.65,69.83,30.5,77,33.22,77,37,77,42.35,81.37,42,77"/><path id="path317" d="M40.24,92.81C38,85.5,29.24,81.35,25.76,74.4,22,66.91,22.69,58.14,22.69,49.85c-2,7.61-2.36,18.41,0,25.42,1.09,3.24,5.27,7.61,5.27,11C28,88,38.07,90.8,40.24,92.81"/><path id="path319" class="cls-2" d="M40.24,92.81C38,85.5,29.24,81.35,25.76,74.4,22,66.91,22.69,58.14,22.69,49.85c-2.4,9.27-2.6,38.2,9.65,38.57"/><path id="path321" class="cls-2" d="M32.34,88.42a19.83,19.83,0,0,1,7.9,4.39"/><path id="path323" class="cls-2" d="M40.24,92.81C38,85.5,29.24,81.35,25.76,74.4,22,66.91,22.69,58.14,22.69,49.85c-2,7.61-2.36,18.41,0,25.42,1.09,3.24,5.27,7.61,5.27,11C28,88,38.07,90.8,40.24,92.81"/><path id="path325" d="M102.55,56.86c0,14.07-4.19,22.31-17.55,28.06,16.38-2.07,24.3-12.14,17.55-28.06"/><path id="path327" class="cls-2" d="M102.55,56.86c0,14.07-4.19,22.31-17.55,28.06,16.38-2.07,24.3-12.14,17.55-28.06"/><path id="path329" class="cls-2" d="M102.55,56.86c0,14.07-4.19,22.31-17.55,28.06,16.38-2.07,24.3-12.14,17.55-28.06"/><path id="path331" d="M102.55,79.65c-2.94,3.95-4.53,6.59-7.9,9.65-3.87,3.51-7.93,2.75-9.65,8.77,5.5-8,16.82-5.54,17.55-18.42"/><path id="path333" class="cls-2" d="M102.55,79.65c-2.94,3.95-4.53,6.59-7.9,9.65-3.87,3.51-7.93,2.75-9.65,8.77,5.5-8,16.82-5.54,17.55-18.42"/><path id="path335" class="cls-2" d="M102.55,79.65c-2.94,3.95-4.53,6.59-7.9,9.65-3.87,3.51-7.93,2.75-9.65,8.77,5.5-8,16.82-5.54,17.55-18.42"/><path id="path337" d="M49,120c-1.55-.1-2.59-1.15-4.39-.88a29.16,29.16,0,0,1,2.63-9.64c.6,3.6,1.54,6.88,1.76,10.52"/><path id="path339" class="cls-2" d="M49,120c-1.55-.1-2.59-1.15-4.39-.88a29.16,29.16,0,0,1,2.63-9.64c.6,3.6,1.54,6.88,1.76,10.52"/><path id="path341" class="cls-2" d="M49,120c-1.55-.1-2.59-1.15-4.39-.88a29.16,29.16,0,0,1,2.63-9.64c.6,3.6,1.54,6.88,1.76,10.52"/><path id="path343" d="M51.65,127c-4.39-4.32-9.86-8.9-14-1.75,4.87.25,9.25,1.5,14,1.75"/><path id="path345" class="cls-2" d="M51.65,127c-4.39-4.32-9.86-8.9-14-1.75,4.87.25,9.25,1.5,14,1.75"/><path id="path347" class="cls-2" d="M51.65,127c-4.39-4.32-9.86-8.9-14-1.75,4.87.25,9.25,1.5,14,1.75"/><path id="path349" d="M59.55,139.27c-2.59-.05-5.63-4.69-9.66-6.14-3.49-1.25-8.59,0-12.28-.87,3,4.15,19.47,10.82,21.94,7"/><path id="path351" class="cls-2" d="M59.55,139.27c-2.59-.05-5.63-4.69-9.66-6.14-3.49-1.25-8.59,0-12.28-.87,3,4.15,19.47,10.82,21.94,7"/><path id="path353" class="cls-2" d="M59.55,139.27c-2.59-.05-5.63-4.69-9.66-6.14-3.49-1.25-8.59,0-12.28-.87,3,4.15,19.47,10.82,21.94,7"/><path id="path355" d="M129.75,56.86c3.39,3.64,12.66,20.79,11,25.86-1.37,4.1-3.95,8.56-3.95,12.72,0,3.88,1.3,10.55-.44,14-4.71,9.42-12.94,14.14-22.38,18.85-8.23,4.12-20.32,4.66-27.2,11.84.36-9.21,19.35-7.7,25.45-12.28,4-3,4-6.36,7-9.64,3.5-3.76,9-5.91,11.41-10.52s3.83-18.34,4.38-24.55c.75-8.21-1-18.82-5.27-26.3"/><path id="path357" class="cls-2" d="M129.75,56.86c3.17,3.4,10.53,16.87,10.53,21.92,0,7.9-2.77,14.91-3.51,23.67-1.18,14-19.24,31.41-34.22,29.81"/><path id="path359" class="cls-2" d="M102.55,132.26c-5.12-.09-12.72,4.68-15.8,7.89.35-8.89,13.24-6.66,19.31-8.77,7.59-2.63,8.47-8.11,13.17-13.15,6.25-6.71,9.82-7.73,12.28-15.78,2.06-6.71,2.26-13.75,4.39-20.16"/><path id="path361" class="cls-2" d="M135.9,82.28c.58-7.83-2.49-19-6.14-25.42"/><path id="path363" class="cls-2" d="M129.75,56.86c3.39,3.64,12.66,20.79,11,25.86-1.37,4.1-3.95,8.56-3.95,12.72,0,3.88,1.3,10.55-.44,14-4.71,9.42-12.94,14.14-22.38,18.85-8.23,4.12-20.32,4.66-27.2,11.84.36-9.21,19.35-7.7,25.45-12.28,4-3,4-6.36,7-9.64,3.5-3.76,9-5.91,11.41-10.52s3.83-18.34,4.38-24.55c.75-8.21-1-18.82-5.27-26.3"/><path id="path365" d="M81.49,150.67c3.9-11.3,14.47-8.28,23.69-9.64,7.83-1.16,13.55-4.39,21.94-4.39-8.84.53-12.91,9.65-21.5,9.65-9.3,0-14.2,6-24.13,4.39"/><path id="path367" class="cls-2" d="M81.49,150.67c3.9-11.3,14.47-8.28,23.69-9.64,7.83-1.16,13.55-4.39,21.94-4.39-8.84.53-12.91,9.65-21.5,9.65-9.3,0-14.2,6-24.13,4.39"/><line id="line369" class="cls-2" x1="0.75" y1="0.75" x2="0.75" y2="0.75"/><path id="path371" class="cls-2" d="M81.49,150.67c3.9-11.3,14.47-8.28,23.69-9.64,7.83-1.16,13.55-4.39,21.94-4.39-8.84.53-12.91,9.65-21.5,9.65-9.3,0-14.2,6-24.13,4.39"/><path id="path373" d="M69.2,163.82c2.32-2.07,6-8.77,8.78-8.77,3.75,0,7.44,1.46,11.4.88,7.56-1.11,14.76-6.82,18.43,5.26-7.14-12.48-29.11,3.6-38.61,2.63"/><path id="path375" class="cls-2" d="M69.2,163.82c2.32-2.07,6-8.77,8.78-8.77,3.75,0,7.44,1.46,11.4.88,7.56-1.11,14.76-6.82,18.43,5.26-7.14-12.48-29.11,3.6-38.61,2.63"/><path id="path377" class="cls-2" d="M69.2,163.82c2.32-2.07,6-8.77,8.78-8.77,3.75,0,7.44,1.46,11.4.88,7.56-1.11,14.76-6.82,18.43,5.26-7.14-12.48-29.11,3.6-38.61,2.63"/><path id="path379" d="M57.79,172.59c10.6-6.29,25.54-10.94,35.11,0-6.17-1.17-10.88-3.51-16.68-3.51-5.63,0-11.93,3.69-18.43,3.51"/><path id="path381" class="cls-2" d="M57.79,172.59c10.6-6.29,25.54-10.94,35.11,0-6.17-1.17-10.88-3.51-16.68-3.51-5.63,0-11.93,3.69-18.43,3.51"/><path id="path383" class="cls-2" d="M57.79,172.59c10.6-6.29,25.54-10.94,35.11,0-6.17-1.17-10.88-3.51-16.68-3.51-5.63,0-11.93,3.69-18.43,3.51"/><path id="path385" class="cls-9" d="M147.3,114.72c1.91,5.39.3,15.3-3.51,18.41"/><path id="path387" class="cls-9" d="M147.3,114.72c1.91,5.39.3,15.3-3.51,18.41"/><line id="line389" class="cls-9" x1="0.75" y1="0.75" x2="0.75" y2="0.75"/><path id="path391" class="cls-2" d="M35.85,158.56a13.44,13.44,0,0,0,3.51,8.77"/><path id="path393" class="cls-2" d="M35.85,158.56a13.44,13.44,0,0,0,3.51,8.77"/><line id="line395" class="cls-2" x1="0.75" y1="0.75" x2="0.75" y2="0.75"/><path id="path397" class="cls-2" d="M29.71,156.81A9.88,9.88,0,0,0,28,164.7"/><path id="path399" class="cls-2" d="M29.71,156.81A9.88,9.88,0,0,0,28,164.7"/><line id="line401" class="cls-2" x1="0.75" y1="0.75" x2="0.75" y2="0.75"/><path id="path403" class="cls-12" d="M42.87,165.57c-1.16,0-2.34,0-3.51,0,.68,4.54,5.42,6.92,10.53,7a8,8,0,0,1-7-7"/><path id="path405" class="cls-2" d="M42.87,165.57c-1.16,0-2.34,0-3.51,0,.68,4.54,5.42,6.92,10.53,7a8,8,0,0,1-7-7"/><path id="path407" class="cls-2" d="M42.87,165.57c-1.16,0-2.34,0-3.51,0,.68,4.54,5.42,6.92,10.53,7a8,8,0,0,1-7-7"/><path id="path409" class="cls-12" d="M32.34,167.33c-2.44,5.23,4.31,7.63,8.78,7.89a17.69,17.69,0,0,1-8.78-7.89"/><path id="path411" class="cls-2" d="M32.34,167.33c-2.44,5.23,4.31,7.63,8.78,7.89a17.69,17.69,0,0,1-8.78-7.89"/><path id="path413" class="cls-2" d="M32.34,167.33c-2.44,5.23,4.31,7.63,8.78,7.89a17.69,17.69,0,0,1-8.78-7.89"/><path id="path415" class="cls-13" d="M42,219.05c-1-7.27,10.86-13.79,15.79-17.53-2.09,9.89-7.33,13.54-15.79,17.53"/><path id="path417" class="cls-13" d="M94.65,174.34C87.2,179.65,79.07,184.73,72.71,191c-3.18,3.14-15,22.53-12.72,27.18,2.89,5.77,17.64-14.07,19.74-17.54,4.9-8.09,10.07-19.06,14.92-26.31"/><path id="path419" class="cls-2" d="M37.61,191.88a61.46,61.46,0,0,1-15.8,8.77"/><path id="path421" class="cls-2" d="M37.61,191.88a61.46,61.46,0,0,1-15.8,8.77"/><path id="path423" class="cls-12" d="M61.3,213.79c-7.95-.23-6.87,8.14-3.51,13.15-1.55-6.26,3.57-8.76,3.51-13.15"/><path id="path425" class="cls-2" d="M61.3,213.79c-7.95-.23-6.87,8.14-3.51,13.15-1.55-6.26,3.57-8.76,3.51-13.15"/><path id="path427" class="cls-2" d="M61.3,213.79c-7.95-.23-6.87,8.14-3.51,13.15-1.55-6.26,3.57-8.76,3.51-13.15"/><path id="path429" class="cls-12" d="M42,214.67c-5.57,1-7.21,7-6.15,12.27,2.41-4.63,7.53-6.36,6.15-12.27"/><path id="path431" class="cls-2" d="M42,214.67c-5.57,1-7.21,7-6.15,12.27,2.41-4.63,7.53-6.36,6.15-12.27"/><path id="path433" class="cls-2" d="M42,214.67c-5.57,1-7.21,7-6.15,12.27,2.41-4.63,7.53-6.36,6.15-12.27"/><path id="path435" class="cls-13" d="M36.73,205c-6.22,2.51-14.1,1-14.92,9.64,7.47,3.47,11.4-4.68,14.92-9.64"/><path id="path437" class="cls-12" d="M21.81,213.79a7.51,7.51,0,0,0,.88-7c-6.2,1.76-10.14,8-4.39,13.15-.7-4.07,1.51-4,3.51-6.14"/><path id="path439" class="cls-2" d="M21.81,213.79a7.51,7.51,0,0,0,.88-7c-6.2,1.76-10.14,8-4.39,13.15-.7-4.07,1.51-4,3.51-6.14"/><path id="path441" class="cls-2" d="M21.81,213.79a7.51,7.51,0,0,0,.88-7c-6.2,1.76-10.14,8-4.39,13.15-.7-4.07,1.51-4,3.51-6.14"/><path id="path443" class="cls-12" d="M18.3,197.14A14.73,14.73,0,0,0,13,200.65c1.34,1.65,3.47,4.19,5.26,5.26-.37-4.91,0-2.08,2.63-5.26a23.34,23.34,0,0,0-2.63-3.51"/><path id="path445" class="cls-2" d="M18.3,197.14A14.73,14.73,0,0,0,13,200.65c1.34,1.65,3.47,4.19,5.26,5.26-.37-4.91,0-2.08,2.63-5.26a23.34,23.34,0,0,0-2.63-3.51"/><path id="path447" class="cls-2" d="M18.3,197.14A14.73,14.73,0,0,0,13,200.65c1.34,1.65,3.47,4.19,5.26,5.26-.37-4.91,0-2.08,2.63-5.26a23.34,23.34,0,0,0-2.63-3.51"/><path id="path449" d="M168.37,91.05c-1.77,5.91-4.58,11.1-6.58,17.1-2.47,7.4-11.77,9.95-10.1,19.73C160.2,116,170,108,168.36,91.05"/><path id="path451" class="cls-2" d="M168.37,91.05c-1.77,5.91-4.58,11.1-6.58,17.1-2.47,7.4-11.77,9.95-10.1,19.73C160.2,116,170,108,168.36,91.05"/><path id="path453" class="cls-2" d="M168.37,91.05c-1.77,5.91-4.58,11.1-6.58,17.1-2.47,7.4-11.77,9.95-10.1,19.73C160.2,116,170,108,168.36,91.05"/><path id="path455" d="M162.22,126.12c-1.43.54-2.51,1.3-4.39.88,3.89-5.36,9.37-8.49,14-13.15,4.19-4.19,3-11.18,5.71-16.66,7.14-14.28.82-21.86.43-36.82.22,13.12,9.38,21.13,6.15,35.07-3,12.86-12.45,21.34-21.93,30.68"/><path id="path457" class="cls-2" d="M162.22,126.12c-1.43.54-2.51,1.3-4.39.88,3.89-5.36,9.37-8.49,14-13.15,4.19-4.19,3-11.18,5.71-16.66,7.14-14.28.82-21.86.43-36.82.1,5.7,3.21,12.46,5.27,17.53"/><path id="path459" class="cls-2" d="M183.28,77.9c10,17.08-10.23,37.54-21.06,48.22"/><path id="path461" class="cls-2" d="M162.22,126.12c-1.43.54-2.51,1.3-4.39.88,3.89-5.36,9.37-8.49,14-13.15,4.19-4.19,3-11.18,5.71-16.66,7.14-14.28.82-21.86.43-36.82.22,13.12,9.38,21.13,6.15,35.07-3,12.86-12.45,21.34-21.93,30.68"/><path id="path463" d="M153.45,107.71C153,93.11,157,78.84,157,64.31c0-5.31-3.62-6.61-5.27-11s-.88-7.11-.87-11.39c0-6.78-.14-14.73-7-19.29,14.11-3.36,17.37,30.15,18.43,39.45,1.51,13.39-1.3,34.44-8.78,45.59"/><path id="path465" class="cls-2" d="M153.45,107.71C153,93.11,157,78.84,157,64.31c0-5.31-3.62-6.61-5.27-11s-.88-7.11-.87-11.39c0-6.78-.14-14.73-7-19.29a33,33,0,0,1,5.26,0"/><path id="path467" class="cls-2" d="M149.06,22.67c19.22,15.72,17.18,66,4.39,85"/><path id="path469" class="cls-2" d="M153.45,107.71C153,93.11,157,78.84,157,64.31c0-5.31-3.62-6.61-5.27-11s-.88-7.11-.87-11.39c0-6.78-.14-14.73-7-19.29,14.11-3.36,17.37,30.15,18.43,39.45,1.51,13.39-1.3,34.44-8.78,45.59"/><path id="path471" d="M157,22.67c14.38.44,14.77,8.36,15.8,20.16.66,7.66,5.57,19.14,0,25.43,0-8.92-5.27-18-5.27-25.43,0-3,1.44-10.24-1.75-11.83-4.06-2-7.86-3.43-8.78-8.33"/><path id="path473" class="cls-2" d="M157,22.67c14.38.44,14.77,8.36,15.8,20.16.66,7.66,5.57,19.14,0,25.43,0-12.85-5.27-22.62-5.27-35.07"/><path id="path475" class="cls-2" d="M167.49,33.19c-3.27-4.1-9.39-4.45-10.53-10.52"/><path id="path477" class="cls-2" d="M157,22.67c14.38.44,14.77,8.36,15.8,20.16.66,7.66,5.57,19.14,0,25.43,0-8.92-5.27-18-5.27-25.43,0-3,1.44-10.24-1.75-11.83-4.06-2-7.86-3.43-8.78-8.33"/><path id="path479" d="M114,22.67c9.41.83,12.92-1.86,20.18,4.38,7.81,6.7,7,12.44,8.78,21.92,2.68,14.15,5.62,27.19,3.51,43,1.68-15.54-5.38-26-9.65-39.45-1.85-5.8.36-14.86-4.39-19.29-4.95-4.62-13.24-6.3-18.43-10.52"/><path id="path481" class="cls-2" d="M114,22.67c9.41.83,12.92-1.86,20.18,4.38,7.81,6.7,7,12.44,8.78,21.92,2.68,14.15,5.62,27.19,3.51,43,0-1.45-.1-2.94,0-4.39"/><path id="path483" class="cls-2" d="M146.43,87.55c-1.88-14.39-5.66-24-10.09-37.27-1.59-4.75.5-14.87-4.83-17.53C124.4,29.2,119.76,27.38,114,22.67"/><path id="path485" class="cls-2" d="M114,22.67c9.41.83,12.92-1.86,20.18,4.38,7.81,6.7,7,12.44,8.78,21.92,2.68,14.15,5.62,27.19,3.51,43,1.68-15.54-5.38-26-9.65-39.45-1.85-5.8.36-14.86-4.39-19.29-4.95-4.62-13.24-6.3-18.43-10.52"/><path id="path487" class="cls-12" d="M199.08,147.16c-3.83.74-3.3,4.74-1.76,8.77-1.54-6.74,7.66-5.35,1.76-8.77"/><path id="path489" class="cls-2" d="M199.08,147.16c-3.83.74-3.3,4.74-1.76,8.77-1.54-6.74,7.66-5.35,1.76-8.77"/><path id="path491" class="cls-2" d="M199.08,147.16c-3.83.74-3.3,4.74-1.76,8.77-1.54-6.74,7.66-5.35,1.76-8.77"/><path id="path493" class="cls-12" d="M190.3,143.66c-1.93,2.12-3.18,3.27-1.75,7,2.84-2.4,4.31-4.64,1.75-7"/><path id="path495" class="cls-2" d="M190.3,143.66c-1.93,2.12-3.18,3.27-1.75,7,2.84-2.4,4.31-4.64,1.75-7"/><path id="path497" class="cls-2" d="M190.3,143.66c-1.93,2.12-3.18,3.27-1.75,7,2.84-2.4,4.31-4.64,1.75-7"/><path id="path499" d="M171,22.67c17.94-3.25,17.55,15.67,17.55,26.3,0,2.89,3.51,4.5,3.51,7.89s-1.33,5.7-1.75,8.77c-.82,5.85.23,13.44-1.76,19.29.7-5.47-1.47-11.42-3.07-16.22-1.81-5.43,2.09-12.93,0-17.1-2.86-5.7-.28-11-2.19-16.66-2.39-7-8-7.2-12.29-12.27"/><path id="path501" class="cls-2" d="M171,22.67c17.94-3.25,17.55,15.67,17.55,26.3,0,2.89,3.51,4.5,3.51,7.89s-1.33,5.7-1.75,8.77c-.82,5.85.23,13.44-1.76,19.29.9-7-2.37-14.62-4.39-21.05"/><path id="path503" class="cls-2" d="M184.16,63.87c-.06-3.7,1.76-7,1.76-10.52,0-4.19-2.64-7.58-2.64-12.27,0-11.61-5.88-10.84-12.28-18.41"/><path id="path505" class="cls-2" d="M171,22.67c17.94-3.25,17.55,15.67,17.55,26.3,0,2.89,3.51,4.5,3.51,7.89s-1.33,5.7-1.75,8.77c-.82,5.85.23,13.44-1.76,19.29.7-5.47-1.47-11.42-3.07-16.22-1.81-5.43,2.09-12.93,0-17.1-2.86-5.7-.28-11-2.19-16.66-2.39-7-8-7.2-12.29-12.27"/><path id="path507" d="M184.16,22.67c22.4-4.73,16.7,29,20.62,40.77,4.36,13-10.36,40.14-19.74,48.65,11.05-28.94,29.09-66.14-.87-89.42"/><path id="path509" class="cls-2" d="M184.16,22.67c20.39-4.3,18.27,26,20.19,37.7,2.84,17.38-6.84,29.9-14,45.59"/><path id="path511" class="cls-2" d="M190.3,106A37.86,37.86,0,0,1,185,112.1c9.88-25.92,28.9-64.61,2.63-86.8"/><path id="path513" class="cls-2" d="M187.67,25.3a8.37,8.37,0,0,0-3.51-2.63"/><path id="path515" class="cls-2" d="M184.16,22.67c22.4-4.73,16.7,29,20.62,40.77,4.36,13-10.36,40.14-19.74,48.65,11.05-28.94,29.09-66.14-.87-89.42"/><path id="path517" d="M198.2,21.79c7.79-6.86,10.44,5.69,14,11.4,4.5,7.14,3.58,12.38,5.27,21,1.44,7.39,5.51,13.54,1.31,21.92-3.62,7.24-1.91,16.37-6.58,23.67V79.22c0-7.89,6.49-12,2.19-20.61-2.36-4.72-2.19-13.92-2.19-19.29,0-4.67-11.34-14-14-17.53"/><path id="path519" class="cls-2" d="M198.2,21.79c7.79-6.86,10.44,5.69,14,11.4,4.5,7.14,3.58,12.38,5.27,21,1.44,7.39,5.51,13.54,1.31,21.92-3.62,7.24-1.91,16.37-6.58,23.67"/><path id="path521" class="cls-2" d="M212.24,99.82V79.22c0-7.89,6.49-12,2.19-20.61-2.36-4.72-2.19-13.92-2.19-19.29,0-4.68-11.34-14-14-17.53"/><path id="path523" class="cls-2" d="M198.2,21.79c7.79-6.86,10.44,5.69,14,11.4,4.5,7.14,3.58,12.38,5.27,21,1.44,7.39,5.51,13.54,1.31,21.92-3.62,7.24-1.91,16.37-6.58,23.67V79.22c0-7.89,6.49-12,2.19-20.61-2.36-4.72-2.19-13.92-2.19-19.29,0-4.67-11.34-14-14-17.53"/><path id="path525" d="M209.61,18.28c26.13-10.52,26.09,30.17,15.8,43.84,3.62-6.7,1.75-17,1.75-24.55,0-12.5-9.37-14.26-17.55-19.29"/><path id="path527" class="cls-2" d="M209.61,18.28c26.13-10.52,26.09,30.17,15.8,43.84,4.47-8.28,2.94-27.35-1.76-35.07"/><path id="path529" class="cls-2" d="M223.65,27.05c-2.91-5.77-9.29-5.85-14-8.77"/><path id="path531" class="cls-2" d="M209.61,18.28c26.13-10.52,26.09,30.17,15.8,43.84,3.62-6.7,1.75-17,1.75-24.55,0-12.5-9.37-14.26-17.55-19.29"/><path id="path533" d="M222.77,13c19.4-5.09,25.45,18.79,25.45,33.32,0,10.17-.83,15.74-7.9,22.79-5.16,5.16-12.23,13.54-12.28,21-4.73-15.58,12.35-25.54,14-40.32,2-17.52-1.24-29.7-19.3-36.83"/><path id="path535" class="cls-2" d="M222.77,13c19.4-5.09,25.45,18.79,25.45,33.32,0,10-1.11,14.56-7,21.92C236.14,74.56,229,81,228,89.3"/><path id="path537" class="cls-2" d="M228,89.3c-7.81-9,14-27,14-38.58,0-18.09.63-29.83-19.31-37.69"/><path id="path539" class="cls-2" d="M222.77,13c19.4-5.09,25.45,18.79,25.45,33.32,0,10.17-.83,15.74-7.9,22.79-5.16,5.16-12.23,13.54-12.28,21-4.73-15.58,12.35-25.54,14-40.32,2-17.52-1.24-29.7-19.3-36.83"/><path id="path541" d="M246.47,8.64c7.4-1.41,17.51,11.27,19.75,18,2.68,8,.43,20.22.43,29.37,0,12.25-4.93,14.24-10.09,24.55-2.31,4.62-15.12,23.37-20.62,13.15,13.14,4,24.57-27.88,24.57-39,0-18.17,2.53-33.95-14-46"/><path id="path543" class="cls-2" d="M246.47,8.64c7.09-1.35,12.8,7.16,15.36,12.27,4.73,9.46,4.82,13.3,4.82,24.55,0,5.8,1.73,14.68,0,20.17-1.84,5.86-9.63,12.51-12.28,19.29"/><path id="path545" class="cls-2" d="M254.37,84.92c-3,4.29-13.86,17.25-18.43,8.76,10.77,3.27,19.12-17.57,21.94-25.42,3.78-10.52,3.51-22.57,3.51-34.19"/><path id="path547" class="cls-2" d="M261.39,34.07c-2.59-9.9-5.6-18.64-14.92-25.43"/><path id="path549" class="cls-2" d="M246.47,8.64c7.4-1.41,17.51,11.27,19.75,18,2.68,8,.43,20.22.43,29.37,0,12.25-4.93,14.24-10.09,24.55-2.31,4.62-15.12,23.37-20.62,13.15,13.14,4,24.57-27.88,24.57-39,0-18.17,2.53-33.95-14-46"/><path id="path551" class="cls-9" d="M252.61,104.2c-7.05-2.27-20.11-9.17-23.69-17.53"/><path id="path553" class="cls-9" d="M252.61,104.2c-7.05-2.27-20.11-9.17-23.69-17.53"/><path id="path555" d="M221.9,108.59c-.91-8,10.45-10.61,16.67-10.52-2,3.63-12.58,9.24-16.68,10.52"/><path id="path557" class="cls-2" d="M221.9,108.59c-.91-8,10.45-10.61,16.67-10.52-2,3.63-12.58,9.24-16.68,10.52"/><path id="path559" class="cls-2" d="M221.9,108.59c-.91-8,10.45-10.61,16.67-10.52-2,3.63-12.58,9.24-16.68,10.52"/><path id="path561" d="M251.73,104.2c-1.82-.21-20.36,2.48-22.82,5.26,9.58-4.17,16.88,7.82,22.81-5.26"/><path id="path563" class="cls-2" d="M251.73,104.2c-1.82-.21-20.36,2.48-22.82,5.26,9.58-4.17,16.88,7.82,22.81-5.26"/><path id="path565" class="cls-2" d="M251.73,104.2c-1.82-.21-20.36,2.48-22.82,5.26,9.58-4.17,16.88,7.82,22.81-5.26"/><path id="path567" d="M240.33,121.74c-5,6.51-10.08,3.56-15.8,0h15.8"/><path id="path569" class="cls-2" d="M240.33,121.74c-5,6.51-10.08,3.56-15.8,0h15.8"/><path id="path571" class="cls-2" d="M240.33,121.74c-5,6.51-10.08,3.56-15.8,0h15.8"/><path id="path573" d="M217.51,118.23c1.77-13.21,16.29-.8,21.06-3.51-4.13,4.33-14.87.45-21.06,3.51"/><path id="path575" class="cls-2" d="M217.51,118.23c1.77-13.21,16.29-.8,21.06-3.51-4.13,4.33-14.87.45-21.06,3.51"/><path id="path577" class="cls-2" d="M217.51,118.23c1.77-13.21,16.29-.8,21.06-3.51-4.13,4.33-14.87.45-21.06,3.51"/><path id="path579" d="M262.26,9.52c7.94-.53,4.11,3.35,7,7.89,2.57,4,8.05,8.19,10.09,12.27,3.18,6.34,3.88,20.83,3.07,27.18-.65,5.1-3.91,8.41-5.26,13.15-1.21,4.22.71,10.85-1.32,14.91-3,6-11.14,23.54-18.87,20.16,1.89-9.45,12.43-12.7,15.36-21.48,2.57-7.71,2.4-18.12,3.95-26.74,1.38-7.7,2.33-18.15-1.32-25.42-1.85-3.71-6.76-5.63-8.77-9.65-2.24-4.52,1.22-9.61-3.94-12.27"/><path id="path581" class="cls-2" d="M262.26,9.52c6.68-.45,4,2.26,6.14,5.26s6.77,9.14,8.34,12.27c3.15,6.29,4.09,12.45,4.83,20.17.91,9.58-1.67,13.25-4.39,22.79-2.4,8.41-.11,15.95-5.27,23.67"/><path id="path583" class="cls-2" d="M271.92,93.68c-4.41,4.47-8.89,14-14.92,11.4,1.37-6.9,7.89-9.48,11.41-14,4.71-6.09,5.27-11.21,5.27-18.41,0-12,3.51-22.7,3.51-35.07"/><path id="path585" class="cls-2" d="M277.18,37.57c-1.2-6.45-5.36-8.86-9.65-13.15-4.9-4.89.72-11.82-5.27-14.9"/><path id="path587" class="cls-2" d="M262.26,9.52c7.94-.53,4.11,3.35,7,7.89,2.57,4,8.05,8.19,10.09,12.27,3.18,6.34,3.88,20.83,3.07,27.18-.65,5.1-3.91,8.41-5.26,13.15-1.21,4.22.71,10.85-1.32,14.91-3,6-11.14,23.54-18.87,20.16,1.89-9.45,12.43-12.7,15.36-21.48,2.57-7.71,2.4-18.12,3.95-26.74,1.38-7.7,2.33-18.15-1.32-25.42-1.85-3.71-6.76-5.63-8.77-9.65-2.24-4.52,1.22-9.61-3.94-12.27"/><path id="path589" d="M273.67,13c8.6-1.66,13.48,11.73,10.53,19.29C285.32,21,276.74,21.16,273.67,13"/><path id="path591" class="cls-2" d="M273.67,13c8.6-1.66,13.48,11.73,10.53,19.29C285.32,21,276.74,21.16,273.67,13"/><path id="path593" class="cls-2" d="M273.67,13c8.6-1.66,13.48,11.73,10.53,19.29C285.32,21,276.74,21.16,273.67,13"/><path id="path595" d="M293,20c5.62,3,7,11.2,3.51,16.66C297,30.33,294.92,25.35,293,20"/><path id="path597" class="cls-2" d="M293,20c5.62,3,7,11.2,3.51,16.66C297,30.33,294.92,25.35,293,20"/><path id="path599" class="cls-2" d="M293,20c5.62,3,7,11.2,3.51,16.66C297,30.33,294.92,25.35,293,20"/><path id="path601" class="cls-12" d="M279.82,162.06c-3.83.74-3.3,4.74-1.75,8.77a46.79,46.79,0,0,0,1.76-8.77"/><path id="path603" class="cls-2" d="M279.82,162.06c-3.83.74-3.3,4.74-1.75,8.77a46.79,46.79,0,0,0,1.76-8.77"/><path id="path605" class="cls-2" d="M279.82,162.06c-3.83.74-3.3,4.74-1.75,8.77a46.79,46.79,0,0,0,1.76-8.77"/><path id="path607" class="cls-12" d="M271,156.81c-3.94,1.39-4.75,4.33-1.75,7.89a26.51,26.51,0,0,1,1.75-7.89"/><path id="path609" class="cls-2" d="M271,156.81c-3.94,1.39-4.75,4.33-1.75,7.89a26.51,26.51,0,0,1,1.75-7.89"/><path id="path611" class="cls-2" d="M271,156.81c-3.94,1.39-4.75,4.33-1.75,7.89a26.51,26.51,0,0,1,1.75-7.89"/><path id="path613" class="cls-2" d="M57.79,201.52c0,4.66-2.46,8.74-5.26,12.27"/><path id="path615" class="cls-2" d="M57.79,201.52c0,4.66-2.46,8.74-5.26,12.27"/><line id="line617" class="cls-2" x1="0.75" y1="0.75" x2="0.75" y2="0.75"/><path id="path619" class="cls-2" d="M47.26,198.89c-5,2.92-12.69,8.19-14.92,13.15"/><path id="path621" class="cls-2" d="M47.26,198.89c-5,2.92-12.69,8.19-14.92,13.15"/><path id="path623" class="cls-13" d="M32.34,194.5c-3.35,1.25-12.9.6-14,3.51-2.4,6.13,12.64-2.52,14-3.51"/><path id="path625" class="cls-2" d="M193.81,148.92a7,7,0,0,1,2.63-7"/><path id="path627" class="cls-2" d="M193.81,148.92a7,7,0,0,1,2.63-7"/><path id="path629" class="cls-2" d="M196.45,141.9A21.74,21.74,0,0,0,207,136.64"/><path id="path631" class="cls-2" d="M196.45,141.9A21.74,21.74,0,0,0,207,136.64"/><path id="path633" class="cls-2" d="M205.22,132.26a61.42,61.42,0,0,1-10.53-.88"/><path id="path635" class="cls-2" d="M205.22,132.26a61.42,61.42,0,0,1-10.53-.88"/><line id="line637" class="cls-2" x1="0.75" y1="0.75" x2="0.75" y2="0.75"/><path id="path639" class="cls-2" d="M202.59,135.76A61.54,61.54,0,0,0,191.18,141"/><path id="path641" class="cls-2" d="M202.59,135.76A61.54,61.54,0,0,0,191.18,141"/><line id="line643" class="cls-2" x1="0.75" y1="0.75" x2="0.75" y2="0.75"/><path id="path645" class="cls-2" d="M288.59,149.79c-4,2.59-8.28,4.8-12.29,7"/><path id="path647" class="cls-2" d="M288.59,149.79c-4,2.59-8.28,4.8-12.29,7"/><path id="path649" class="cls-2" d="M276.3,156.81a8.27,8.27,0,0,0-1.76,7"/><path id="path651" class="cls-2" d="M276.3,156.81a8.27,8.27,0,0,0-1.76,7"/><line id="line653" class="cls-2" x1="0.75" y1="0.75" x2="0.75" y2="0.75"/><path id="path655" class="cls-2" d="M274.55,148.92c-3.83.21-7.36.72-9.65,3.51"/><path id="path657" class="cls-2" d="M274.55,148.92c-3.83.21-7.36.72-9.65,3.51"/><path id="path659" d="M294.73,42.83c-4.75,15.55-1.22,33.83-12.29,47.35,7-2.24,6.4-12.79,9.22-18.42.78-1.57,3.33-1.75,3.95-3.5s-.41-4,.44-6.58c1.87-5.59-.61-13.25-1.32-18.85"/><path id="path661" class="cls-2" d="M294.73,42.83c-4.75,15.55-1.22,33.83-12.29,47.35,7-2.24,6.4-12.79,9.22-18.42.78-1.57,3.33-1.75,3.95-3.5s-.41-4,.44-6.58c1.87-5.59-.61-13.25-1.32-18.85"/><path id="path663" class="cls-2" d="M294.73,42.83c-4.75,15.55-1.22,33.83-12.29,47.35,7-2.24,6.4-12.79,9.22-18.42.78-1.57,3.33-1.75,3.95-3.5s-.41-4,.44-6.58c1.87-5.59-.61-13.25-1.32-18.85"/><path id="path665" d="M306.14,27.93c7.6,4.31,5.64,13.82-1.76,17.53,4.72-6.13,4.67-10.2,1.76-17.53"/><path id="path667" class="cls-2" d="M306.14,27.93c7.6,4.31,5.64,13.82-1.76,17.53,4.72-6.13,4.67-10.2,1.76-17.53"/><path id="path669" class="cls-2" d="M306.14,27.93c7.6,4.31,5.64,13.82-1.76,17.53,4.72-6.13,4.67-10.2,1.76-17.53"/><path id="path671" d="M316.67,36.7c9.72.93,4.17,13.72-1.75,15.78,3.63-5.18,3.91-9.79,1.75-15.78"/><path id="path673" class="cls-2" d="M316.67,36.7c9.72.93,4.17,13.72-1.75,15.78,3.63-5.18,3.91-9.79,1.75-15.78"/><path id="path675" class="cls-2" d="M316.67,36.7c9.72.93,4.17,13.72-1.75,15.78,3.63-5.18,3.91-9.79,1.75-15.78"/><path id="path677" d="M299.12,71.76c-6.12,3-4.31,15.63-7.46,21.92-1.66,3.31-17.78,18.18-4,17.54-1.37-7.89,5.2-13,7.46-19.73,1.41-4.23,3.9-19.82,3.95-19.73"/><path id="path679" class="cls-2" d="M299.12,71.76c-6.12,3-4.31,15.63-7.46,21.92-1.66,3.31-17.78,18.18-4,17.54-1.37-7.89,5.2-13,7.46-19.73,1.41-4.23,3.9-19.82,3.95-19.73"/><path id="path681" class="cls-2" d="M299.12,71.76c-6.12,3-4.31,15.63-7.46,21.92-1.66,3.31-17.78,18.18-4,17.54-1.37-7.89,5.2-13,7.46-19.73,1.41-4.23,3.9-19.82,3.95-19.73"/><path id="path683" d="M304.39,77.9c4.84,4.81,7,3.9,7,10.52,0,3-.53,9.2-2.63,11.4-2.72,2.83-8.11,1.09-10.53,3.51-3,3-4.72,6.71-7,8.76-.7-7.79,5.31-11.42,11.41-14.46,6.65-3.33,3.59-13.35,1.75-19.73"/><path id="path685" class="cls-2" d="M304.39,77.9c4.84,4.81,7,3.9,7,10.52,0,3-.53,9.2-2.63,11.4-2.72,2.83-8.11,1.09-10.53,3.51-3,3-4.72,6.71-7,8.76-.7-7.79,5.31-11.42,11.41-14.46,6.65-3.33,3.59-13.35,1.75-19.73"/><path id="path687" class="cls-2" d="M304.39,77.9c4.84,4.81,7,3.9,7,10.52,0,3-.53,9.2-2.63,11.4-2.72,2.83-8.11,1.09-10.53,3.51-3,3-4.72,6.71-7,8.76-.7-7.79,5.31-11.42,11.41-14.46,6.65-3.33,3.59-13.35,1.75-19.73"/><path id="path689" d="M289.47,134c2-10,16.31-6.59,24.57-10.52-5.07,7.59-17,10-24.57,10.52"/><path id="path691" class="cls-2" d="M289.47,134c2-10,16.31-6.59,24.57-10.52-5.07,7.59-17,10-24.57,10.52"/><path id="path693" class="cls-2" d="M289.47,134c2-10,16.31-6.59,24.57-10.52-5.07,7.59-17,10-24.57,10.52"/><path id="path695" d="M295.61,120c-.13-8.08,17.64-14.36,22.82-20.17-1.07,6.85-8.05,7.46-10.1,13.59-2.67,8-7.28,1.49-12.73,6.58"/><path id="path697" class="cls-2" d="M295.61,120c-.13-8.08,17.64-14.36,22.82-20.17-1.07,6.85-8.05,7.46-10.1,13.59-2.67,8-7.28,1.49-12.73,6.58"/><path id="path699" class="cls-2" d="M295.61,120c-.13-8.08,17.64-14.36,22.82-20.17-1.07,6.85-8.05,7.46-10.1,13.59-2.67,8-7.28,1.49-12.73,6.58"/><path id="path701" d="M325.45,62.12a12.52,12.52,0,0,1-3.51-4.38c8.51,1.73,10.91-8.89,5.27-14,8.59,2.68,8.69,18.08-1.76,18.41"/><path id="path703" class="cls-2" d="M325.45,62.12a12.52,12.52,0,0,1-3.51-4.38c8.51,1.73,10.91-8.89,5.27-14,8.59,2.68,8.69,18.08-1.76,18.41"/><path id="path705" class="cls-2" d="M325.45,62.12a12.52,12.52,0,0,1-3.51-4.38c8.51,1.73,10.91-8.89,5.27-14,8.59,2.68,8.69,18.08-1.76,18.41"/><path id="path707" d="M337.73,50.72c15.43,5.2,1.65,26.28-3.51,17.54,10.52.12,6.53-12.63,3.51-17.54"/><path id="path709" class="cls-2" d="M337.73,50.72c15.43,5.2,1.65,26.28-3.51,17.54,10.52.12,6.53-12.63,3.51-17.54"/><path id="path711" class="cls-2" d="M337.73,50.72c15.43,5.2,1.65,26.28-3.51,17.54,10.52.12,6.53-12.63,3.51-17.54"/><path id="path713" d="M348.27,56.86c7.77,5.83,10.41,27.34-2.63,19.29,9.4-3.8,4.9-12,2.63-19.29"/><path id="path715" class="cls-2" d="M348.27,56.86c7.77,5.83,10.41,27.34-2.63,19.29,9.4-3.8,4.9-12,2.63-19.29"/><path id="path717" class="cls-2" d="M348.27,56.86c7.77,5.83,10.41,27.34-2.63,19.29,9.4-3.8,4.9-12,2.63-19.29"/><path id="path719" d="M361.43,64.75c5.13,4,6.55,14.68.87,20.17-1.52-.58-4.68-1.89-6.14-2.64,5.9-4.9,6.72-10.38,5.27-17.53"/><path id="path721" class="cls-2" d="M361.43,64.75c5.13,4,6.55,14.68.87,20.17-1.52-.58-4.68-1.89-6.14-2.64,5.9-4.9,6.72-10.38,5.27-17.53"/><path id="path723" class="cls-2" d="M361.43,64.75c5.13,4,6.55,14.68.87,20.17-1.52-.58-4.68-1.89-6.14-2.64,5.9-4.9,6.72-10.38,5.27-17.53"/><path id="path725" d="M372,70.89c8.35.84,4.39,11.83,4.39,18.41-8.61.21-7.16-13.69-4.39-18.41"/><path id="path727" class="cls-2" d="M372,70.89c8.35.84,4.39,11.83,4.39,18.41-8.61.21-7.16-13.69-4.39-18.41"/><path id="path729" class="cls-2" d="M372,70.89c8.35.84,4.39,11.83,4.39,18.41-8.61.21-7.16-13.69-4.39-18.41"/><path id="path731" d="M381.61,71.76a47.06,47.06,0,0,1,5.27-2.63c-2.11,3.59,13.14,24.42-5.27,21.05,6.46-6.6-3.93-10.71,0-18.42"/><path id="path733" class="cls-2" d="M381.61,71.76a47.06,47.06,0,0,1,5.27-2.63c-2.11,3.59,13.14,24.42-5.27,21.05,6.46-6.6-3.93-10.71,0-18.42"/><path id="path735" class="cls-2" d="M381.61,71.76a47.06,47.06,0,0,1,5.27-2.63c-2.11,3.59,13.14,24.42-5.27,21.05,6.46-6.6-3.93-10.71,0-18.42"/><path id="path737" d="M393,65.63a21.13,21.13,0,0,1,6.14-6.14c-.36,8.22,7.25,6.62,8.78,13.15,1.21,5.17-5.28,8.28-7.9,11.4,4.41-8.76-7.79-9.11-7-18.41"/><path id="path739" class="cls-2" d="M393,65.63a21.13,21.13,0,0,1,6.14-6.14c-.36,8.22,7.25,6.62,8.78,13.15,1.21,5.17-5.28,8.28-7.9,11.4,4.41-8.76-7.79-9.11-7-18.41"/><path id="path741" class="cls-2" d="M393,65.63a21.13,21.13,0,0,1,6.14-6.14c-.36,8.22,7.25,6.62,8.78,13.15,1.21,5.17-5.28,8.28-7.9,11.4,4.41-8.76-7.79-9.11-7-18.41"/><path id="path743" d="M401.8,56c.74-1.92,2.38-3.56,3.51-5.26,3.45,3.29,8,0,12.29,2.19,4.87,2.44-2.29,11.68-3.51,14.47,2.28-9.44-9.36-3.68-12.29-11.4"/><path id="path745" class="cls-2" d="M401.8,56c.74-1.92,2.38-3.56,3.51-5.26,3.45,3.29,8,0,12.29,2.19,4.87,2.44-2.29,11.68-3.51,14.47,2.28-9.44-9.36-3.68-12.29-11.4"/><path id="path747" class="cls-2" d="M401.8,56c.74-1.92,2.38-3.56,3.51-5.26,3.45,3.29,8,0,12.29,2.19,4.87,2.44-2.29,11.68-3.51,14.47,2.28-9.44-9.36-3.68-12.29-11.4"/><path id="path749" d="M407.06,48.09c5.4-7.18,14.34-7.84,14,3.51-2.75-6.62-8.4-3.21-14-3.51"/><path id="path751" class="cls-2" d="M407.06,48.09c5.4-7.18,14.34-7.84,14,3.51-2.75-6.62-8.4-3.21-14-3.51"/><path id="path753" class="cls-2" d="M407.06,48.09c5.4-7.18,14.34-7.84,14,3.51-2.75-6.62-8.4-3.21-14-3.51"/><path id="path755" d="M110.45,30.56c-9.35,4.14-13.4,23-13.16,33.31C105,59.53,99,53.24,100.8,47.22,101.49,45,105,44,106.06,42c1.89-3.77,2.13-7.88,4.38-11.4"/><path id="path757" class="cls-2" d="M110.45,30.56c-9.35,4.14-13.4,23-13.16,33.31C105,59.53,99,53.24,100.8,47.22,101.49,45,105,44,106.06,42c1.89-3.77,2.13-7.88,4.38-11.4"/><path id="path759" class="cls-2" d="M110.45,30.56c-9.35,4.14-13.4,23-13.16,33.31C105,59.53,99,53.24,100.8,47.22,101.49,45,105,44,106.06,42c1.89-3.77,2.13-7.88,4.38-11.4"/><path id="path761" d="M80.61,36.7c.12-2.33.83-3.45,1.75-5.26,4.16,2.1,6.44,2.39,9.66,6.13-4.28-2.34-8.12-4.82-11.41-.87"/><path id="path763" class="cls-2" d="M80.61,36.7c.12-2.33.83-3.45,1.75-5.26,4.16,2.1,6.44,2.39,9.66,6.13-4.28-2.34-8.12-4.82-11.41-.87"/><path id="path765" class="cls-2" d="M80.61,36.7c.12-2.33.83-3.45,1.75-5.26,4.16,2.1,6.44,2.39,9.66,6.13-4.28-2.34-8.12-4.82-11.41-.87"/><path id="path767" d="M52.53,38.45c-3.21-2.81-7-2.36-10.53-.88,1.53-6.09,9.86-5,10.53.88"/><path id="path769" class="cls-2" d="M52.53,38.45c-3.21-2.81-7-2.36-10.53-.88,1.53-6.09,9.86-5,10.53.88"/><path id="path771" class="cls-2" d="M52.53,38.45c-3.21-2.81-7-2.36-10.53-.88,1.53-6.09,9.86-5,10.53.88"/><path id="path773" d="M49.89,33.19a5.2,5.2,0,0,1,2.64-.88C49.62,27.83,44.59,26,42,31.44c3.72-1.77,5.49-.22,7.89,1.75"/><path id="path775" class="cls-2" d="M49.89,33.19a5.2,5.2,0,0,1,2.64-.88C49.62,27.83,44.59,26,42,31.44c3.72-1.77,5.49-.22,7.89,1.75"/><path id="path777" class="cls-2" d="M49.89,33.19a5.2,5.2,0,0,1,2.64-.88C49.62,27.83,44.59,26,42,31.44c3.72-1.77,5.49-.22,7.89,1.75"/><path id="path779" d="M69.2,35.82c-3.22-3.94-5.28-1.51-6.14,2.63,2.15-2.78,3.28-1.81,6.14-2.63"/><path id="path781" class="cls-2" d="M69.2,35.82c-3.22-3.94-5.28-1.51-6.14,2.63,2.15-2.78,3.28-1.81,6.14-2.63"/><path id="path783" class="cls-2" d="M69.2,35.82c-3.22-3.94-5.28-1.51-6.14,2.63,2.15-2.78,3.28-1.81,6.14-2.63"/><path id="path785" d="M66.57,28.81c-5.7-.68-10.34,4.74-6.15,8.76a9.2,9.2,0,0,1,6.15-8.76"/><path id="path787" class="cls-2" d="M66.57,28.81c-5.7-.68-10.34,4.74-6.15,8.76a9.2,9.2,0,0,1,6.15-8.76"/><path id="path789" class="cls-2" d="M66.57,28.81c-5.7-.68-10.34,4.74-6.15,8.76a9.2,9.2,0,0,1,6.15-8.76"/><path id="path791" d="M63.06,27.05c-5.32-2.69-8.55,1-6.15,6.14,0-4.13,1.93-6.32,6.15-6.14"/><path id="path793" class="cls-2" d="M63.06,27.05c-5.32-2.69-8.55,1-6.15,6.14,0-4.13,1.93-6.32,6.15-6.14"/><path id="path795" class="cls-2" d="M63.06,27.05c-5.32-2.69-8.55,1-6.15,6.14,0-4.13,1.93-6.32,6.15-6.14"/><path id="path797" d="M25.32,45.46c-4-1.12-7.28-4.26-10.53-7,2.45,4.18,5.33,11.68,10.53,7"/><path id="path799" class="cls-2" d="M25.32,45.46c-4-1.12-7.28-4.26-10.53-7,2.45,4.18,5.33,11.68,10.53,7"/><path id="path801" class="cls-2" d="M25.32,45.46c-4-1.12-7.28-4.26-10.53-7,2.45,4.18,5.33,11.68,10.53,7"/><path id="path803" d="M75.34,34.94c-2.33-3-5.15-3.95-7.9-5.26,4.59-2.43,9.57.17,7.9,5.26"/><path id="path805" class="cls-2" d="M75.34,34.94c-2.33-3-5.15-3.95-7.9-5.26,4.59-2.43,9.57.17,7.9,5.26"/><path id="path807" class="cls-2" d="M75.34,34.94c-2.33-3-5.15-3.95-7.9-5.26,4.59-2.43,9.57.17,7.9,5.26"/><path id="path809" d="M77.1,30.56c-1.87-2.88-5.13-4-8.78-3.51,2-5.72,8.15-1.17,8.78,3.51"/><path id="path811" class="cls-2" d="M77.1,30.56c-1.87-2.88-5.13-4-8.78-3.51,2-5.72,8.15-1.17,8.78,3.51"/><path id="path813" class="cls-2" d="M77.1,30.56c-1.87-2.88-5.13-4-8.78-3.51,2-5.72,8.15-1.17,8.78,3.51"/><path id="path815" d="M37.61,28.81c-5.91,6.28-21.4,5-29.84,3.5,10.44,0,19.52-4.68,29.84-3.5"/><path id="path817" class="cls-2" d="M37.61,28.81c-5.91,6.28-21.4,5-29.84,3.5,10.44,0,19.52-4.68,29.84-3.5"/><path id="path819" class="cls-2" d="M37.61,28.81c-5.91,6.28-21.4,5-29.84,3.5,10.44,0,19.52-4.68,29.84-3.5"/><path id="path821" d="M92,40.2c6.23,3.2,5,10.23.87,14.91C90.42,51,95,45.29,92,40.2"/><path id="path823" class="cls-2" d="M92,40.2c6.23,3.2,5,10.23.87,14.91C90.42,51,95,45.29,92,40.2"/><path id="path825" class="cls-2" d="M92,40.2c6.23,3.2,5,10.23.87,14.91C90.42,51,95,45.29,92,40.2"/><path id="path827" class="cls-12" d="M191.18,133.14a25.93,25.93,0,0,0-4.39,3.51c3.91.75,3-1,4.39-3.51"/><path id="path829" class="cls-2" d="M191.18,133.14a25.93,25.93,0,0,0-4.39,3.51c3.91.75,3-1,4.39-3.51"/><path id="path831" class="cls-2" d="M191.18,133.14a25.93,25.93,0,0,0-4.39,3.51c3.91.75,3-1,4.39-3.51"/></svg>