<svg id="publicdomainvectors.org" xmlns="http://www.w3.org/2000/svg" viewBox="0 0 549.17 589.48"><defs><style>.cls-1{fill:#f79421;}.cls-2{fill:#ec2227;}.cls-3{fill:#010101;}.cls-4{fill:#fff;}</style></defs><title>tiger-05</title><path class="cls-1" d="M145.72,347.28l14.68,8.61-2.11,2.52c-.81-.39-1.63-.77-2.44-1.13-2.8-1.25-5.63-2.38-8.47-3.43s-5.72-2-8.59-2.92c-2.33-.73-4.68-1.4-7-2l-7.88-9.55c-3-3.53-5.94-7.1-9-10.6s-6-7-9.09-10.49c-2.8-3.21-5.65-6.38-8.5-9.54-.26-2-.53-4.07-.81-6.11l11.62,6.29.14.47.42.51c2.23,2.73,4.52,5.42,6.83,8.1s4.66,5.32,7,7.93c4.8,5.21,9.69,10.36,15,15.19-1-2-2-3.95-3-5.89Zm300.39-37.41c-2.24,2.73-4.53,5.42-6.83,8.1s-4.66,5.32-7,7.93c-4.8,5.21-9.69,10.36-15,15.19,1-2,2-3.93,3-5.87l-12.35,13.33-13.18,7.73,1.78,2.13c.81-.39,1.62-.77,2.44-1.13,2.8-1.25,5.63-2.38,8.47-3.43s5.71-2,8.59-2.92c2.33-.73,4.68-1.4,7-2l7.88-9.55c3-3.53,5.93-7.1,9-10.6s6-7,9.09-10.49c2.8-3.21,5.65-6.38,8.49-9.54.24-1.81.47-3.61.72-5.42l-12,6.51ZM212.93,347.28c-21.23-10.63-8.82-46.8-8.82-46.8s-11.2-13.68-21.66-26.85l15.46,18.9,8.3-15.61-30.67-12.08c-4.86-6.25-8.81-11.51-10.23-13.87-3.12-5.19-.15-16.37,2.34-23.64q2.68.4,6.06,1c0,.51,0,1.05.08,1.61a13.23,13.23,0,0,0-.73,2.62,22.56,22.56,0,0,0-.4,3.56,31,31,0,0,0,.59,7.18,29.85,29.85,0,0,0,6.27,13.27A25.48,25.48,0,0,0,192,264.7a25.88,25.88,0,0,0,8.75.95A89.7,89.7,0,0,0,218,271.93c-.36,11.8-.71,26.92,5.89,39.41a26.36,26.36,0,0,0-2.83-1.27,24.48,24.48,0,0,0-10.28-1.54,23.63,23.63,0,0,1,9.58,3,29.23,29.23,0,0,1,7.53,6.33,43.86,43.86,0,0,1,5.49,8.14c.76,1.45,1.46,2.93,2.08,4.43a8.25,8.25,0,0,0,.8,1.43q.13.38.3.75a8.48,8.48,0,0,0,1.42,2.22l0,.08h0a5.94,5.94,0,0,0,.57.55l.13.11h0c2.59,1.69,5.19,3.37,7.85,5l-.25.27,5.47,4.43c-2.17,3.46,7.88,9.85,7.88,9.85s-27.51,1.83-46.81-7.83m-6.72-16.76a2.11,2.11,0,1,0-2.1,2.1,2.1,2.1,0,0,0,2.1-2.1m2.1-17.06a2.1,2.1,0,1,0-2.1,2.11,2.1,2.1,0,0,0,2.1-2.11m7.51,29.74a2.11,2.11,0,1,0-2.1,2.1,2.1,2.1,0,0,0,2.1-2.1m3.43-11.83a2.11,2.11,0,1,0-2.11,2.1,2.11,2.11,0,0,0,2.11-2.1m2.1-13.7a2.11,2.11,0,1,0-2.1,2.11,2.1,2.1,0,0,0,2.1-2.11m5.19,11.6a2.11,2.11,0,1,0-2.11-2.11,2.11,2.11,0,0,0,2.11,2.11m4.36,11.82a2.11,2.11,0,1,0-2.1,2.11,2.1,2.1,0,0,0,2.1-2.11m12.38,9.4a2.1,2.1,0,1,0-2.1,2.1,2.11,2.11,0,0,0,2.1-2.1m111.17-32.62c-.07,20.67-2.69,37.88-47.3,37.45,5-.15,7.17-1.77,7.85-3.88a2.1,2.1,0,0,0-.13-4.13,16.09,16.09,0,0,0-1-2.67l3.7-5.17-.8-.71c.5-.58,1-1.16,1.5-1.75,2-2.36,3.9-4.78,5.79-7.2l.06-.08.09-.18a7,7,0,0,0,.31-.81c.6-1,1.36-1.51,2-2.71a43.81,43.81,0,0,1,5.48-8.14,29.27,29.27,0,0,1,7.54-6.33,23.63,23.63,0,0,1,9.58-3,24.45,24.45,0,0,0-10.28,1.54,31.88,31.88,0,0,0-9.14,5.46,46.92,46.92,0,0,0-5.18,5.18c-.1-.63-.2-1.25-.32-1.87-.57-3.12-1.33-6.15-2.14-9.15-1.61-6-3.49-11.84-5.41-17.65l-5.81-17.36c-1-2.89-1.84-5.79-2.67-8.71a46.42,46.42,0,0,1-1.67-9,19.72,19.72,0,0,0-.88,4.64,37.56,37.56,0,0,0-.11,4.74,75.05,75.05,0,0,0,.93,9.38,162,162,0,0,0,4.12,18.16c1.66,5.95,3.54,11.81,5.42,17.6.93,2.9,1.86,5.79,2.7,8.65.4,1.43.81,2.85,1.09,4.23.14.69.27,1.37.33,2s0,1.2.06,1.25l.14-.26c-1.46,2.71-2.91,5.43-4.26,8.21-.3.58-.57,1.18-.86,1.77l-4.31-3.85-25,4L289,324.78,277.74,235l-2.22,89.77,6.05,12.94L251.85,335l-3.3,3.55c-2.29-2.21-4.64-4.34-7-6.48l.13.11a3.61,3.61,0,0,1-.57-1.27,7.83,7.83,0,0,0-.33-2.62,34.37,34.37,0,0,1,.12-3.62c.28-3.05.82-6.18,1.41-9.32,1.2-6.28,2.64-12.61,3.91-19s2.45-12.87,3.13-19.47a79,79,0,0,0,.46-10,36.8,36.8,0,0,0-.41-5,17.48,17.48,0,0,0-1.34-4.84,36.88,36.88,0,0,1-.93,9.63c-.66,3.16-1.41,6.29-2.22,9.42-1.61,6.27-3.33,12.53-4.9,18.88s-3,12.75-4,19.36c-.3,2.11-.55,4.23-.69,6.4a46,46,0,0,0-5.13-5.13,35.44,35.44,0,0,0-5.62-3.82c-2.07-10.89,7.46-43.89,11.59-57.4,1.12-3.64,1.84-5.86,1.84-5.86s-5.66-13.48-20.78-24.17c-12.44-8.79-37-3.85-37-3.85L174,204.49a49.49,49.49,0,0,1,11-2.9c-2.21,1.46-3.77,2.68-3.66,3.14,0,0,23.49-3.56,32.67,7.11a15.76,15.76,0,0,0,1-7.73,45.06,45.06,0,0,1,10.82,4.67l-.76-1.32,47.55-21.57s1.87-15.83,0-20.27c-1.75-4.14-40.5,33.11-46.36,38.21a8.52,8.52,0,0,1-.73.6l-.75,2.53-2.34-4,6-14.27,17.27-9.53s-4.34-6.91-5.13-7.31c-.33-.16-4.12,3.61-8.44,8.08l8.76-20.71c3.68-1.09,6.19-1.94,6.64-2.42.79-.83-.4-4.18-2.36-7.7l4.58-10.83h25.76l-3.34-12.64s-13.39,5.8-21.12,9.58l1.37-3.26L240.7,121.78c3.76-4.12,6.85-8,8.26-9.59.31-.34.29-.63,0-.86L271,90.74l4.48,1.3-.92-4.62,5-4.63L280.88,84,279.28,92l8.07-2.36,23.45,20.74c-3.68.18-5.93.68-5,1.77,1.48,1.67,4.81,5.86,8.82,10.21l-11,9.54,1.71,4.05c-7.29-3.68-22.73-10.37-22.73-10.37l-3.34,12.64h27l4.05,9.56c-2.4,4-4,8-3.11,9,.52.54,3.63,1.55,8.1,2.84l9.58,22.65c-5.19-5.41-10.33-10.63-10.71-10.44-.79.4-5.14,7.31-5.14,7.31L328,189.59,333.67,203l-.34.59a48.55,48.55,0,0,1,7.73-4.64c-1.56,4.37-1.92,8.87-.27,12.94,9.18-10.67,32.67-7.11,32.67-7.11.23-.91-6.08-4.76-11-7.6A76.2,76.2,0,0,1,381,203.22l.06.62-6.58,16.59s-24.52-4.94-37,3.85c-15.13,10.69-20.78,24.17-20.78,24.17s.89,2.73,2.21,7.07c4.57,15.08,14.38,49.66,10.7,57.94,10.53-17.24,6.27-40.48,7-52.69a46.31,46.31,0,0,0,12.75,3.64l-.85.27a25.36,25.36,0,0,0,26.69-8.15,30.07,30.07,0,0,0,6.27-13.27,31,31,0,0,0,.59-7.18,22.56,22.56,0,0,0-.4-3.56,9.5,9.5,0,0,0-1.16-3.38l0-.77c2.47-.41,4.69-.76,6.63-1.06,4.3,6.08,7.57,15.71-1.44,27-2.78,3.49-5.69,7.32-8.57,11.31l-28.64,11.28,8.29,15.61,12.06-14.74c-10.16,15.87-17.75,32-14.49,40.08m-75-206.58h22.91s-18.34-18-18.74-14.47-4.17,14.47-4.17,14.47m-4.12,0s-3.78-10.92-4.17-14.47-18.74,14.47-18.74,14.47Zm-2.76,33.63-17.39,18.23,16.55-2ZM241.42,248.51a49.38,49.38,0,0,0-8.13-16.57,47.58,47.58,0,0,0-13.95-12.35,49.06,49.06,0,0,0-17.59-6.11c-6.13-.87-12.56-.78-18.36,1.37a46.58,46.58,0,0,1,18,.41,55,55,0,0,1,16.74,6.34,52.92,52.92,0,0,1,13.7,11.48,63.29,63.29,0,0,1,5.27,7.35,81.78,81.78,0,0,1,4.28,8.08m32-42.63s3.71-10,2.11-14.19c-1.44-3.71-31.73,21.5-38.66,27.49-.82.7-1.33,1.16-1.42,1.25l1.81-.69Zm-16.87,59.94a7.71,7.71,0,0,0-.05-.87c-.06-.55-.15-1.08-.24-1.61-.18-1-.39-2.08-.61-3.11-.88-4.12-1.91-8.19-3-12.24s-2.15-8.11-3.33-12.14c1.7,8.21,3.46,16.42,4.93,24.65.18,1,.35,2.05.48,3.08.07.51.13,1,.16,1.51a5.78,5.78,0,0,1,0,.7.7.7,0,0,1,0,.16,1.28,1.28,0,0,1-.07.21l-.06.22c-.51,2.1-.91,4.13-1.34,6.2-.79,4.12-1.59,8.24-2.29,12.37q-2.19,12.41-3.91,24.87c-.55,4.16-1.1,8.32-1.51,12.5-.1,1.05-.2,2.1-.27,3.16a13.28,13.28,0,0,0,0,1.69,6,6,0,0,0,.64,1.59,26,26,0,0,0,3.86,5.05,34.09,34.09,0,0,1-3.11-5.4,5.68,5.68,0,0,1-.38-1.37,12.75,12.75,0,0,1,.17-1.45c.14-1,.3-2.06.47-3.09l2.14-12.38q2.15-12.37,4.14-24.79l2-12.41c.32-2.06.63-4.16,1-6.16l0-.16,0-.15a2.12,2.12,0,0,0,.08-.63m19.38-52.44c-.42-2.67-25.25,15.74-25.25,15.74l22.74,1.14s2.93-14.22,2.51-16.88m6.3-68.46.84,16.27,16.54,2Zm0,41,46.64,21.16,1.42.64-.44-1.47-.53-1.79a8.52,8.52,0,0,1-.73-.6c-5.86-5.1-44.61-42.35-46.36-38.21-1.87,4.44,0,20.27,0,20.27m21.91,43.23s-24.83-18.41-25.25-15.74,2.51,16.88,2.51,16.88ZM306,241.61a4.17,4.17,0,0,0-.07-.71c-.05-.21-.11-.5-.35-.57.23.09.26.37.29.58a5.3,5.3,0,0,1,0,.69,12.7,12.7,0,0,1-.18,1.38c-.15.92-.34,1.83-.54,2.74-.41,1.81-.89,3.61-1.38,5.41q-1.5,5.38-3.07,10.75l-1.55,5.39L299,268l-.09.37a1.6,1.6,0,0,0,0,.25,1.13,1.13,0,0,0,0,.31,14.47,14.47,0,0,0,.18,1.52c.16.94.33,1.87.52,2.79q1.17,5.51,2.51,10.94,2.67,10.88,5.68,21.67T314,327.05c-1.41,1.77-2.85,3.51-4.21,5.31,1.75-1.58,3.43-3.24,5.14-4.86l.18-.17L315,327q-2.49-10.92-5.23-21.77c-1.81-7.24-3.69-14.46-5.56-21.67-.92-3.62-1.91-7.21-2.76-10.83-.21-.9-.44-1.8-.63-2.69-.08-.43-.18-.92-.21-1.25,0-.06,0-.06,0,0s0,0,0-.09l.06-.31.16-.67,1.32-5.43c.87-3.64,1.74-7.27,2.46-10.95.36-1.83.71-3.67,1-5.52.14-.93.27-1.86.34-2.8,0-.46,0-.93,0-1.4m10.62-22.22,2.72,1c-.11-.11-.86-.78-2.06-1.81-8-6.85-36.63-30.53-38-26.93-1.6,4.15,2.11,14.19,2.11,14.19ZM312,244.12c.66-1.26,1.34-2.49,2.09-3.69a63.29,63.29,0,0,1,5.27-7.35A52.92,52.92,0,0,1,333,221.6a55.1,55.1,0,0,1,16.74-6.34,46.58,46.58,0,0,1,18-.41c-5.79-2.15-12.22-2.24-18.35-1.37a49,49,0,0,0-17.6,6.11,47.83,47.83,0,0,0-13.95,12.35,53,53,0,0,0-4.86,7.93c-.51,1.08-1,2.17-1.42,3.27a51.52,51.52,0,0,0-1.84,5.37c.71-1.48,1.42-2.95,2.18-4.39M329,340a2.1,2.1,0,1,0-2.1,2.11A2.1,2.1,0,0,0,329,340m2.26-13.93a2.11,2.11,0,1,0-2.1,2.11,2.1,2.1,0,0,0,2.1-2.11m5.19-7.38a2.11,2.11,0,1,0-2.11-2.11,2.1,2.1,0,0,0,2.11,2.11m2.1,13.69a2.1,2.1,0,1,0-2.1-2.1,2.1,2.1,0,0,0,2.1,2.1m5.53,9.73a2.1,2.1,0,1,0-2.1,2.1,2.11,2.11,0,0,0,2.1-2.1m5.41-27.63a2.11,2.11,0,1,0-2.11-2.11,2.1,2.1,0,0,0,2.11,2.11m2.1,12.85a2.11,2.11,0,1,0,2.1,2.1,2.1,2.1,0,0,0-2.1-2.1M98.76,245.52a19.56,19.56,0,0,1-.2-3.64c0-1.19.09-2.36.19-3.51a63.1,63.1,0,0,1,1-6.79,80.61,80.61,0,0,1,3.83-12.88,82.42,82.42,0,0,1,5.83-12.09,52.44,52.44,0,0,1,8.46-11.07,39.76,39.76,0,0,1,0,4.63l16.45-26.6-3.59,3.9L133.2,152l16.37-12.15-.61,8.6,6.91-13.14-.22.1,10-20.79,10-7.27,29-34.23c-2.43.72-4.88,1.42-7.38,2.07-.15.43-.35.91-.6,1.47-.08.1-.15.16-.23.25l-1.29,3.76L192,79.6a6.6,6.6,0,0,1-4.33-.75c-.33-.2-.5-.35-.43-.35-.9-.7-.56-.46-.64-.52l0,0-.12-.12-.13-.14c-19-6.35-63.58-21-83.8-25l-.93,2.09-4-2.72a2.22,2.22,0,0,0-1.18,1.05c-1.5,2.3-2.17,6.35-2.19,11.53,1.12,10.65,3.48,25.16,5.64,37.36,4.92,10.15,10.22,19.77,12.35,19.2,4.44-1.19-7.55-51.74,0-51.14l.34.06a60.46,60.46,0,0,0-5.08-3.94A30.08,30.08,0,0,0,99,61.83a27,27,0,0,1,9.08,3.36,56,56,0,0,1,8,5.57c1.71,1.39,3.34,2.87,4.95,4.38,7.48,5.82,17.28,15.17,23.8,20.18-1.29-3.34-2.71-6.63-4.29-9.83a71.69,71.69,0,0,0-7.19-11.88,38.47,38.47,0,0,0-10.24-9.51,29.25,29.25,0,0,1,12.36,7.64,46.5,46.5,0,0,1,4.81,5.59,60.14,60.14,0,0,1,4,6.16,84.68,84.68,0,0,1,6.06,13.3c.23.64.44,1.29.65,1.93a.87.87,0,0,0,.54-.21c3.26-3.26-9.08-27.7-9.08-27.7,13.74,3,38.92,13,38.92,13C172,88.4,161,102.67,152.43,115.45l-.29.44h0c-8,12-13.91,22.54-14.27,22.37-.19-.09-.1-1.66.09-4-4,6.1-7.89,12.21-11.54,18.11a79.37,79.37,0,0,1-3.16,13.51,119,119,0,0,1-6,15,118.94,118.94,0,0,1-7.88,14A72.43,72.43,0,0,1,99,207.69a62.37,62.37,0,0,1,2.11-11.64c-8.08,16-9.17,59-9.26,77.05.28,1.5.54,3,.81,4.51l7.09-33.14c-.32.35-.63.7-1,1.05M197.44,71.58v0l.68.23,0,.1.47-.34-1.76-.21.61.21Zm17.86,35-42.76,48.51c6.69-4,14.07-8.14,14.07-8.14s-2,18.87-3.42,25.47l32.26-35c-11.23,3-25.83,6-25.83,6s24.29-32.11,27.85-32.11c1.08,0,4.74-.25,9.19-.49,2.51-.13,5.26-.27,8-.36L260,87.5l-2-.59,4.45-1.59,13.45-12.17L277,61.24l-.52,0L270.6,73.15l-14.74-6.39,15.71-4.26-.36-.66-1-1.77-1.93-3.53-2.25-4.12-29.4,6.66a37.2,37.2,0,0,1,4.94.47A22.43,22.43,0,0,1,248.87,62a73.77,73.77,0,0,0-14.29,2.2c-4.47,1.07-8.88,2.38-13.32,3.73l18,3.23.56,0a60.13,60.13,0,0,1,9.2.42l1.14.12,1.14.21c.75.15,1.5.29,2.25.47,1.5.33,3,.67,4.45,1.1-3,.63-6,.85-8.95,1.33l-.57.1L233.28,90c8.29-.71,15.59-1.15,15.59-1.15s-14.3,8.44-25.27,13.93c-3.2,1.6-6.11,3-8.3,3.77M137.53,250.4c0,.12,0,.09,0,.07a.08.08,0,0,1,0,0v0M167.12,197q2.94-6,6.19-11.95l2.06-5.43c-5.81,4.17-13.6,9.87-17.42,12.68-2.64,8.54-5.55,17-8.52,25.35q-3,8.3-6,16.51l-3.05,8.21-1.49,4.09-.71,2c-.24.67-.4,1.26-.6,1.89l0,.06s0,0,0,.06h0a4.5,4.5,0,0,0,.07.5l.2.76.3.87a40.12,40.12,0,0,0,1.65,3.67c1.24,2.5,2.68,5,4.14,7.47.21.37.43.73.65,1.09l-.16-.63,2.05-34.77Zm13.4-21c-1.09.75-2.54,1.78-4.2,3l-.45,4.33Zm2.89,162.87c1.85.87,3.64,1.79,5.42,2.73l-8-6.74c.14.51.28,1,.44,1.5a9.52,9.52,0,0,0,.78,1.85l.08.11.08,0Zm23,18.33a21.8,21.8,0,0,1-5.79-3.75,12,12,0,0,1-1.31-1.44c-.32-.45-.68-.9-1-1.36-.46-.7-.89-1.41-1.29-2.12l-1.63-1.38c-1.43-.47-2.85-.95-4.24-1.49-3.09-1.15-6.12-2.49-9.08-3.81l-1.07-.45a4.64,4.64,0,0,1-.44-.2,2.64,2.64,0,0,1-.59-.42,4.33,4.33,0,0,1-.66-.8,9.87,9.87,0,0,1-1.08-2.7,30.22,30.22,0,0,1-.85-5.06c0-.1,0-.2,0-.3l-8-6.76,2.66,4.17-14.91-14.52h0l-14.91-14.52,1.19-15.8,10,15.74L148.7,281.3c-3.52-4.62-6.91-9.35-10.11-14.27-1.62-2.51-3.17-5.08-4.62-7.79a44.69,44.69,0,0,1-2-4.34l-.43-1.2-.36-1.36a13,13,0,0,1-.23-1.64,6.43,6.43,0,0,1,.06-1.12,5.35,5.35,0,0,1,.17-1c.25-.76.49-1.59.75-2.3l.76-2.12c.52-1.41,1.05-2.78,1.58-4.16,1.1-2.74,2.18-5.48,3.32-8.19q3.41-8.15,7.05-16.16c3.6-7.86,7.3-15.66,11.3-23.34.8-4.28,3-16.1,4.57-23.62L150.61,180l-2.22,12.91-14.16,30.81v-5.44l-5.94,22.22v.31c0,3.16-6.85,49.15-6.85,49.15l-.12-.63-1.08,10.37,9.62,9.82L127.5,306l5.23-37.33,4.84,32.78,18.08,32.4L172,335.58l-11.63,5.06,6.89,7,4.35-5.21s-.15,3.6-.22,7.47l22.8,5c0-.15,0-.3.05-.44a12.6,12.6,0,0,1,1.27-4.49,17.76,17.76,0,0,0,.54,4.41c.08.33.18.65.26,1l12,2.64-.13-.11c-.61-.24-1.22-.5-1.82-.78M138.49,128c.52-6.53.91-14.2-.46-16.68-2.5-4.55-16.8-21.37-16.46-19.25s11.44,38,11.69,38.88ZM459.3,208c-.85-1.59-2.49-4.59-4.74-8.63a58.12,58.12,0,0,1,1.27,8.28,72.43,72.43,0,0,1-10.44-12.81,122.32,122.32,0,0,1-13.85-29A87.08,87.08,0,0,1,429,156c-3.82-6.14-7.83-12.43-11.92-18.64,0,.57,0,.91-.1.95-.27.13-3.79-6-9-14.31-1.45-2.29-3-4.74-4.71-7.26l-.45,1.78-.54-.77a2.09,2.09,0,0,0-.14.17l-.22.29.18-.32.13-.21-1.95-2.78a10.81,10.81,0,0,1-1.06-1.9c-.27-.58-.51-1.16-.72-1.75-.31-.85-.56-1.71-.8-2.58C390,98,381.14,87.6,373.46,83.85c0,0,25.18-10.08,38.92-13,0,0-12.34,24.44-9.08,27.7a.91.91,0,0,0,.5.21,85,85,0,0,1,5.93-13,60.14,60.14,0,0,1,4-6.16A46.5,46.5,0,0,1,418.55,74a29.25,29.25,0,0,1,12.36-7.64,38.47,38.47,0,0,0-10.24,9.51,71.69,71.69,0,0,0-7.19,11.88q-1.8,3.66-3.34,7.46C419.38,88.09,435,72.47,441.5,70.3a49,49,0,0,1,4.43-2.84A27.23,27.23,0,0,1,455,64.1a30.21,30.21,0,0,0-8.48,4.33c-.94.64-1.86,1.33-2.76,2,5,4.91-5.34,49.59-1.16,50.71,2.15.57,7.5-9.18,12.45-19.4,1.7-7,3.12-14,4.09-20.5.37-2.8.71-5.56,1-8.2.86-9.2.48-16.54-1.76-20A2,2,0,0,0,456,52c-19.18,2.92-74.46,21.28-91.31,27-3,1-4.82,1.64-4.93,1.68l-1.2-3.5A8.7,8.7,0,0,1,357,75.63l-2.84-.47.22-.84c-2.16-.6-4.29-1.24-6.41-1.88a2.93,2.93,0,0,0-.39.16l27,32-.16-.66,14.64,10.67,10,20.79-1.44-.61L406,150.5l-.76-10.66L421.6,152,424,177.47l-7.54-8.18,20.58,33.27a41.83,41.83,0,0,1-.17-7,52.44,52.44,0,0,1,8.46,11.07,82.42,82.42,0,0,1,5.83,12.09A80.61,80.61,0,0,1,455,231.58a65.7,65.7,0,0,1,1,6.79c.1,1.15.18,2.32.19,3.51a20.46,20.46,0,0,1-.2,3.64l-.6-.65,6.86,32c.22-1.29.45-2.57.69-3.86l.06-.31,1.21-46.3c-1-7.32-2.53-13.83-5-18.39m-42.05,42.3c-.2-.63-.36-1.22-.6-1.89l-.71-2-1.49-4.09-3.05-8.21q-3.06-8.22-6-16.51c-3-8.39-5.88-16.81-8.53-25.35-3.82-2.81-11.61-8.51-17.41-12.68l2.06,5.43c3.64,6.59,6.95,13.32,10.05,20.16l17.93,28.15,1.76,29.85c1.34-2.3,2.66-4.6,3.81-6.91a40.12,40.12,0,0,0,1.65-3.67l.3-.87.2-.76a4.5,4.5,0,0,0,.07-.5h0s0-.06,0-.06l0-.06m0,.06v0s0,0,0,0,.05.05,0-.07m-22.4,83.87,7.63-6.45,14.73-26.41,4.84-32.78L427.3,306l-1.33,2,3.65-3.08.77-35.13c-1.85-12.79-3.88-27.23-3.88-29v-.57L420.57,218v5.7l-14.16-30.81-1.66-9.63L395,172.15c1.45,7.3,3.19,16.53,3.88,20.2,4,7.68,7.7,15.48,11.3,23.34q3.64,8,7,16.16c1.15,2.71,2.23,5.45,3.33,8.19.53,1.38,1.06,2.75,1.57,4.16l.77,2.12c.26.71.5,1.54.74,2.3a4.41,4.41,0,0,1,.18,1,6.43,6.43,0,0,1,.06,1.12,13,13,0,0,1-.23,1.64l-.36,1.36-.44,1.2a40.38,40.38,0,0,1-2,4.34c-1.44,2.71-3,5.28-4.61,7.79-2.81,4.33-5.78,8.5-8.85,12.58l-7.22,20.05,9.72-15.23,1.19,15.8-23.46,22.85-10.7,12.78c-.1.45-.2.9-.32,1.36a9.92,9.92,0,0,1-1.09,2.7,4.23,4.23,0,0,1-.65.8,2.89,2.89,0,0,1-.59.42,4.64,4.64,0,0,1-.44.2l-1.07.45-1.28.57L360.62,355.3c0,.2,0,.39,0,.58l3.17,4.68,19.39-16.42c0-1-.06-1.69-.06-1.69l.85,1,5.74-4.86-7-3Zm21.9-223c-1.62,2.94-.78,13.13-.17,20.11l7.47,4.22a17.81,17.81,0,0,1-2.55-4.66S432.88,94.17,433.23,92s-14,14.7-16.46,19.25M284.92,521.57c3.48-29.63-12.1-42.49-12.1-42.49s-15.55,15.62,1.93,43c-10.82-2.81-21-32.5-20.94-40.52,0,0-16.69,20.63,2.2,46.47-16.83-10.82-18.89-27.41-18.89-38.48-5.61,1.9-9.27,11.72-11.17,18.55l2.24,9.92c.42-1.68,5.08-12.29,5.08-12.29s5.29,8.42,11,17l-.16-6.32,3.4,8.27c0,.09,1.47,3.56,3.65,8.18,3.09,4.36,5.62,7.61,6.57,8,.66.28,1-1.18,1.07-3.64-.18-.94-.37-1.87-.54-2.81-.71-3.89-1.32-7.8-1.74-11.73a57.68,57.68,0,0,1-.28-11.82,57.5,57.5,0,0,0,1.1,11.71c.35,2,.77,4,1.22,6.05-.68-10.77-2.42-24.72-2.42-24.72l19.37,23.38.14-40.1s9.89,40.41,10.1,42.69c.17,1.85,9.44-21.92,12.86-30.77A64.11,64.11,0,0,0,292,483.08s1.89,29.63-7.05,38.49m38.21-36.45-.61-.79c-1.49,8.08-4.71,23.59-7.49,24.41.38-13.71-6.25-25.77-11-32.65l-1.73-.45v1.08c3.17,8.42,6.72,23.43-.71,37.22l1.83,19.48a13.13,13.13,0,0,1,.67-3.34,3.09,3.09,0,0,1,1.21-1.43l5.94-28.23,4.85,17.12c-.13-1.17-.25-2.33-.41-3.5.5,2.16.91,4.35,1.27,6.54l3,10.69,7.55-25.39c-.09-9.05-2.21-18.83-3.38-23.53ZM330,512.29l.64,9.65a10.11,10.11,0,0,1,.95,1.48l5.35-14.26c.12-1.14.24-2.27.33-3.41,0,.83,0,1.67,0,2.5l4.78-12.77c-1.41-8-4.05-16-8.93-20.72,5.07,5.39,3.39,24.83-3.13,37.53M274.34,54l.18-3.49-2.86.65,1.66,1.76Zm1.14,7.31,0,.15.64-.18Zm47.6,49.25c3.6.16,7.11.37,9.78.52,2.18.13,3.81.22,4.47.22,3.56,0,27.85,32.11,27.85,32.11s-17.74-3.6-29.16-6.86l38.1,41.29,5.08,8-.72-6.9c-3.15-2.25-5.56-3.94-6.14-4.24-1.26-.67-4.15-27.71-4.15-27.71s4.25,2.38,9.22,5.28L335.81,105l-.54-.25c-11.07-5.13-29.35-15.9-29.35-15.9s9.3.56,18.82,1.43L309.85,75.47c-1.35-.2-2.71-.4-4.07-.66-2.93-.48-5.9-.7-8.94-1.33,1.46-.43,3-.77,4.45-1.1.75-.18,1.5-.32,2.25-.47l1.14-.21,1.14-.12a60.13,60.13,0,0,1,9.2-.42c1.54.06,3.09.09,4.63.23,1.24.15,2.48.34,3.73.52L337.9,69.3l-4-1.24c-4.56-1.39-9.11-2.74-13.71-3.84A73.54,73.54,0,0,0,305.92,62a22.57,22.57,0,0,1,7.28-2.47c1.16-.19,2.33-.32,3.51-.41l-29.57-6.69-.83,3.82-.76,3.64-.36,1.81-.17.89L285,63l14,3.79L284.2,73.15l-1.35-2.72.39,4.09ZM282,51.29l-1-.23.17,1.8Z"/><path class="cls-2" d="M303.29,461.45l-1,.1v-1.08H256.07v4.41c-2.37-7.59-3.71-11.5-4.59-13.54-.29-11.29-1.94-26.52-2.8-33.82a131.11,131.11,0,0,0,3-13.52,9.83,9.83,0,0,0-1.06-3.52c1.12-.57,2.29-1.17,3.54-1.78.61,0,1.24.11,1.89.17v13.74h25l-4.79.2L282.24,457l2.32-44.43h17.7v-15c1.53,1.06,2.93,2.09,4.15,3-.35.72-.73,1.48-1.14,2.34l-.28.6.2.63c3.83,11.64,5.29,15.38,6.2,16.64-.27,10-.83,21.24-1.89,30.58-.59-1.1-.95-1.17-1.41-1.26l-1-.16-.61.79c-.57.74-2.06,6.18-3.16,10.7M308,339.7c-1.13-.05-2.29-.07-3.49,0-.92,0-1.84,0-2.82,0l-18.21,2.92-26.68-2.48c-.44,0-.89,0-1.31,0a3.5,3.5,0,0,0-1.42.36,1.27,1.27,0,0,0-.36.26l4.35,3.51c1.78.13,5.8.22,9.14.24h2.14l1.39,1.63c4.6,5.39,9.62,11.16,13,14.94-.1-1-.19-2-.22-3a46.22,46.22,0,0,1,.08-4.85,26.42,26.42,0,0,1,.72-4.86,26.39,26.39,0,0,1,1.09,4.8,45.91,45.91,0,0,1,.44,4.82c0,.72,0,1.45,0,2.18,3.06-4.21,7.33-10.37,11.05-15.9l1.19-1.77,12.6-1.55.52-.73h0a11.48,11.48,0,0,0-3.21-.54"/><path class="cls-3" d="M365.18,143.4s-17.74-3.6-29.16-6.86a68.65,68.65,0,0,1-6.79-2.23c-4.61-1.88-10-7-14.57-11.91-4-4.35-7.34-8.54-8.82-10.21-1-1.09,1.28-1.59,5-1.77,3.35-.16,7.89,0,12.28.13,3.6.16,7.11.37,9.78.52,2.18.13,3.81.22,4.47.22,3.56,0,27.85,32.11,27.85,32.11M283.63,96.82c-.39,3.55-4.17,14.47-4.17,14.47h22.91s-18.34-18-18.74-14.47m60.61-3.59c-2.41-1.12-11-2.14-19.5-2.92-9.52-.87-18.82-1.43-18.82-1.43s18.28,10.77,29.35,15.9l.54.25a46.51,46.51,0,0,0,5.08,2,225.92,225.92,0,0,0,22.17,5.13s-13.68-16.59-18.82-19m18.82,19s2.91,17.38,4.1,20.54,24.49,17,24.49,17-9.09-19.75-11.46-22.37-17.13-15.16-17.13-15.16m20.56,165.39a224.77,224.77,0,0,1-24.37,23.83l20.36-27.1c3.35-4.51,6.68-9,9.83-13.6,1.57-2.3,3.12-4.59,4.53-6.92a51.16,51.16,0,0,0,3.74-7,10,10,0,0,0,.86-2.94,1.5,1.5,0,0,1,0-.22s0-.26,0-.38l-.14-.88-.13-.88-.23-1-.43-1.94-.54-2c-.35-1.32-.75-2.65-1.15-4-.61-2.08-1.26-4.16-1.92-6.25-1.62.21-3.9.52-6.77,1-1.94.29-4.16.64-6.63,1.05l-4.37.75c-8.69,21.34-27,20.45-36.05,23.61-2.36.82-3.24,3.75-3.5,8-.76,12.21,3.5,35.45-7,52.69,3.67-8.28-6.14-42.86-10.71-57.94-1.32-4.34-2.21-7.07-2.21-7.07s5.65-13.48,20.78-24.17c12.44-8.79,37-3.85,37-3.85l6.58-16.59-.06-.62L379.2,185.8l-.72-6.9c-3.15-2.25-5.56-3.93-6.14-4.24-1.26-.67-4.15-27.71-4.15-27.71s4.25,2.38,9.22,5.28c6.8,4,14.95,8.89,15.41,10,.28.7,1.14,4.83,2.15,9.89,1.45,7.3,3.19,16.53,3.88,20.2,4,7.68,7.7,15.48,11.3,23.34q3.64,8,7,16.16c1.15,2.71,2.23,5.45,3.33,8.19.53,1.38,1.06,2.75,1.57,4.16l.77,2.12c.26.71.5,1.54.74,2.3a4.41,4.41,0,0,1,.18,1,6.43,6.43,0,0,1,.06,1.12,13,13,0,0,1-.23,1.64l-.36,1.36-.44,1.2a40.38,40.38,0,0,1-2,4.34c-1.44,2.71-3,5.28-4.61,7.79-2.81,4.33-5.78,8.5-8.85,12.59-.47.63-.94,1.27-1.43,1.9-3.56,4.7-7.3,9.25-11.08,13.76s-7.72,8.89-11.69,13.25c5.75-10.34,12.3-20.09,18.53-30,3.13-4.93,6.27-9.84,9.21-14.81l.33-.56c1.34-2.3,2.66-4.6,3.81-6.91a40.12,40.12,0,0,0,1.65-3.67l.3-.87.2-.76a4.5,4.5,0,0,0,.07-.5s.05.05,0-.07v0s0,0,0,0h0s0-.06,0-.06l0-.06c-.2-.63-.37-1.22-.6-1.89l-.71-2-1.49-4.09-3.05-8.21q-3.06-8.22-6-16.51c-3-8.39-5.88-16.81-8.53-25.35-3.82-2.81-11.6-8.51-17.41-12.68l2.06,5.43c3.64,6.59,6.95,13.32,10.05,20.16q2.16,4.77,4.21,9.59c2.2,5.23,4.26,10.53,6.12,15.95.48,1.35.92,2.72,1.33,4.12l.63,2.09.56,2.17.27,1.09c.07.39.13.8.2,1.21l.19,1.22a3.71,3.71,0,0,1,.07.66v.84a7,7,0,0,1-.05.82l-.13.7a11.06,11.06,0,0,1-.31,1.34l-.38,1.22-.45,1.12a54.17,54.17,0,0,1-4.31,7.92q-2.39,3.67-5,7.11c-3.46,4.59-7.1,9-10.89,13.23m-34.1-46.52a2.91,2.91,0,1,0,2.91-2.91,2.9,2.9,0,0,0-2.91,2.91m12.59-5.1a17.37,17.37,0,0,1-2.56,10,15.07,15.07,0,0,1-17.15,6.27,17.21,17.21,0,0,1-8.38-6,13.75,13.75,0,0,0,7.44,8.35,15.4,15.4,0,0,0,20.35-7.43,13.79,13.79,0,0,0,.3-11.19m13.17,30.57a30.07,30.07,0,0,0,6.27-13.27,31,31,0,0,0,.59-7.18,22.56,22.56,0,0,0-.4-3.56,9.5,9.5,0,0,0-1.16-3.38l0,0a29.66,29.66,0,0,1-1.61,6.54c-.7,2.09-1.47,4.12-2.33,6.07a43.5,43.5,0,0,1-6.38,10.57,31.89,31.89,0,0,1-9.33,7.6,62.43,62.43,0,0,1-11.47,4.51l-.85.27a25.36,25.36,0,0,0,26.69-8.15M399.15,135.4l-10-20.79-14.64-10.67.16.66,5.54,22.75,17.52,7.44Zm6.08,4.44L406,150.5l.57,8,9.94,10.78,7.54,8.18L421.6,152Zm-31.77,64.89c.23-.91-6.08-4.76-11-7.6-3.07-1.78-5.6-3.17-5.6-3.17s5.34-10.76,5.14-16.49c-6.43,1.05-17.2,10.85-21,21.43-1.55,4.37-1.92,8.87-.27,12.94,9.18-10.67,32.67-7.11,32.67-7.11m-55.78-64.89c-2.27.85-5.14,4.36-7.32,8-2.4,4-4,8-3.11,9,.52.54,3.63,1.55,8.1,2.84,10.25,3,27.68,7.44,37.58,11.22,0,0-30.51-32.78-35.25-31M426.51,240.21v.57c0,1.72,2,16.16,3.88,29,1.55,10.68,3,20.2,3,20.2l9.26-47.18-16.1-46.32Zm-21.76-57,1.66,9.63,14.16,30.81V187.25l-18.7-20.74Zm12.48,118.16L402.5,327.82l-3.35,6-4.28.46-12.1,1.31,7,3,12.12,5.27L426,307.94l1.33-2-5.23-37.33ZM456,245.52a20.46,20.46,0,0,0,.2-3.64c0-1.19-.09-2.35-.19-3.51a65.7,65.7,0,0,0-1-6.79,80.92,80.92,0,0,0-3.83-12.88,82.42,82.42,0,0,0-5.83-12.09,52.44,52.44,0,0,0-8.46-11.07,41.83,41.83,0,0,0,.17,7,66.93,66.93,0,0,0,1.08,6.85,85.71,85.71,0,0,0,9.62,25,60.65,60.65,0,0,0,7.66,10.51l.6.65m-3.64-54a118.17,118.17,0,0,0-6-14.94,120.46,120.46,0,0,0-7.89-14,73.24,73.24,0,0,0-10.43-12.82A56.63,56.63,0,0,0,429,156a89.19,89.19,0,0,0,2.58,9.93,120.53,120.53,0,0,0,6,15,118.94,118.94,0,0,0,7.88,14,72.43,72.43,0,0,0,10.44,12.81,58.12,58.12,0,0,0-1.27-8.28c-.6-2.69-1.35-5.3-2.16-7.89m-8.48,88.73c-1.26,4.27-2.3,8.59-3.26,12.92-.9,4.11-1.62,8.26-2.23,12.44-1.75,2.59-3.48,5.21-5.19,7.83q-2.87,4.46-5.64,9c-2.53,4.2-5,8.45-7.34,12.79-1,1.94-2.06,3.89-3,5.87,5.31-4.83,10.2-10,15-15.19,2.39-2.61,4.73-5.26,7-7.93s4.59-5.37,6.83-8.1l.06-.07.36-.44.36-1.18c1.28-4.26,2.43-8.56,3.39-12.89s1.82-8.69,2.47-13.1,1.14-8.84,1.41-13.33a87.87,87.87,0,0,0-.1-13.66,88.71,88.71,0,0,0-5.82,12.35c-1.64,4.19-3.06,8.43-4.32,12.7m-46.3-171.63c-.08-.32-.18-.64-.26-1a34.81,34.81,0,0,1-1-7.23,32.27,32.27,0,0,1,.51-7.22A27.27,27.27,0,0,1,399,86.43a39.85,39.85,0,0,0-.58,6.93,41.29,41.29,0,0,0,.62,6.78,45.67,45.67,0,0,0,1.72,6.5l.3.79c.74-2.83,1.6-5.61,2.58-8.37,0-.12.09-.23.13-.34a.91.91,0,0,1-.5-.21c-3.26-3.26,9.08-27.7,9.08-27.7-13.74,3-38.92,13-38.92,13C381.14,87.6,390,98,397.62,108.62m6.27,5.36-.29,1.14q4-6.83,8.59-13.27,5.58-7.89,11.93-15.22A117.59,117.59,0,0,1,437.94,73q1.72-1.43,3.56-2.73c-6.47,2.17-22.12,17.79-31.36,24.92-.73,1.79-1.43,3.59-2.09,5.42-1.57,4.37-3,8.9-4.16,13.34M305.78,74.81c1.36.26,2.72.46,4.07.66,1.55.23,3.1.47,4.62.84l4.28.82c1.41.37,2.82.69,4.22,1s2.79.71,4.18,1.12,2.79.69,4.14,1.22l4.1,1.34,4,1.52c2.68,1.06,5.35,2.17,8,3.4a141.69,141.69,0,0,1,15.65,8.41A45.93,45.93,0,0,0,350,82.27c-1.3-.84-2.57-1.74-3.94-2.46s-2.69-1.54-4.11-2.17-2.83-1.27-4.25-1.89l-4.39-1.54a20.18,20.18,0,0,0-2.23-.65L328.79,73a39.49,39.49,0,0,0-4.55-.94l-.86-.13c-1.25-.18-2.49-.37-3.73-.52-1.54-.14-3.09-.17-4.63-.23a60.13,60.13,0,0,0-9.2.42l-1.14.12-1.14.21c-.75.15-1.5.29-2.25.47-1.5.33-3,.67-4.45,1.1,3,.63,6,.85,8.94,1.33m.53,63.45h2.77c0-.28-1.48-1.13-3.73-2.27-7.29-3.68-22.73-10.37-22.73-10.37l-3.34,12.64Zm-6.71,24.89-17.38-18.23.84,16.27Zm-20.72,50.23c-.42,2.66,2.51,16.88,2.51,16.88l22.74-1.14s-24.83-18.41-25.25-15.74m40.48,7.05c-.11-.12-.86-.78-2.06-1.81-8-6.85-36.63-30.53-38-26.93-1.6,4.15,2.11,14.19,2.11,14.19l35.25,13.51Zm-37.14-34.54,46.64,21.16,1.42.64-.44-1.47-.53-1.79c-.05,0-.3-.23-.74-.6-5.85-5.1-44.6-42.35-46.35-38.21-1.87,4.44,0,20.27,0,20.27M280.88,84,279.28,92l8.07-2.36,9.49-2.77-15.45-5.53Zm76,208.57,12.06-14.74,10.73-13.11-2.44,1-28.64,11.28ZM324.93,182.28c-5.18-5.41-10.33-10.63-10.71-10.44-.79.4-5.14,7.31-5.14,7.31L328,189.59,336,194s-5.54-6-11-11.68m-90.3-71.84c-2.71.09-5.46.23-8,.36-4.45.24-8.11.49-9.19.49-3.56,0-27.85,32.11-27.85,32.11s14.6-3,25.83-6a90.78,90.78,0,0,0,10.12-3.14c4.8-2,10.48-7.43,15.13-12.53,3.76-4.12,6.85-8,8.26-9.59.31-.34.29-.63,0-.86-1.24-1-7.61-1.11-14.33-.89m40.71.85s-3.78-10.92-4.17-14.47-18.74,14.47-18.74,14.47Zm-60-4.71c2.19-.82,5.1-2.17,8.3-3.77,11-5.49,25.27-13.93,25.27-13.93s-7.3.44-15.59,1.15c-9.37.8-20,1.94-22.72,3.2-5.14,2.37-18.82,19-18.82,19a225.92,225.92,0,0,0,22.17-5.13c.42-.13.89-.3,1.39-.48m-27.66,26.15c1.19-3.16,4.1-20.54,4.1-20.54S177,124.72,174.61,127.35s-11.46,22.37-11.46,22.37,23.31-13.83,24.49-17m4.32,132a25.88,25.88,0,0,0,8.75.95,25.46,25.46,0,0,0,5.5-1,66.41,66.41,0,0,1-12.32-4.78,31.89,31.89,0,0,1-9.33-7.6,43.5,43.5,0,0,1-6.38-10.57c-.87-1.95-1.63-4-2.33-6.07a30.24,30.24,0,0,1-1.62-6.54,6,6,0,0,0-.44.78,13.23,13.23,0,0,0-.73,2.62,22.56,22.56,0,0,0-.4,3.56,31,31,0,0,0,.59,7.18,29.94,29.94,0,0,0,6.26,13.27A25.5,25.5,0,0,0,192,264.7M175.64,107.34l-10,7.27-10,20.79.23-.1,18.74-8,5.7-23.41Zm-27.4,51.17.72-10.07.61-8.6L133.2,152l-2.44,25.48,3.59-3.9Zm33.1,46.22s23.49-3.56,32.67,7.11a15.76,15.76,0,0,0,1-7.73c-1.35-12.35-14.71-25.42-22.19-26.64-.2,5.73,5.13,16.49,5.13,16.49s-8,4.4-12.91,7.63c-2.21,1.46-3.77,2.68-3.66,3.14m66.2-47.94c.79-.83-.39-4.18-2.36-7.7-2.25-4-5.53-8.3-8.06-9.25-4.74-1.77-35.26,31-35.26,31,10.39-4,29.06-8.69,39-11.64,3.68-1.09,6.19-1.94,6.64-2.42M121.32,289.3l.12.63s6.85-46,6.85-49.15V196.43l-16.1,46.32ZM150.61,180l2.31-13.46-18.69,20.74v36.44l14.16-30.81Zm-17.88,88.66L127.5,306l2.36,3.53,23.06,34.39,7.48-3.24L172,335.58l-16.39-1.77-18.07-32.4ZM98.56,241.88a19.56,19.56,0,0,0,.2,3.64l1-1a60.73,60.73,0,0,0,7.3-10.12,83.83,83.83,0,0,0,5.79-12.1,84.59,84.59,0,0,0,3.83-12.85,61.91,61.91,0,0,0,1.26-9.24,39.76,39.76,0,0,0,0-4.63,52.44,52.44,0,0,0-8.46,11.07,83.51,83.51,0,0,0-5.84,12.09,81.94,81.94,0,0,0-3.82,12.88,63.1,63.1,0,0,0-1,6.79c-.1,1.16-.18,2.32-.19,3.51m17.72-79.34a120.46,120.46,0,0,0-7.89,14,118.17,118.17,0,0,0-6,14.94q-.7,2.25-1.32,4.53A62.37,62.37,0,0,0,99,207.69a72.43,72.43,0,0,0,10.44-12.81,118.94,118.94,0,0,0,7.88-14,119,119,0,0,0,6-15,79.16,79.16,0,0,0,3.17-13.51c.11-.88.21-1.76.28-2.65a73.24,73.24,0,0,0-10.43,12.82M102.05,282.19c.64,4.41,1.51,8.76,2.46,13.1s2.11,8.63,3.4,12.89l.22.71.14.47.42.51c2.23,2.73,4.53,5.42,6.83,8.1s4.66,5.32,7,7.93c4.8,5.21,9.69,10.36,15,15.19-1-2-2-3.95-3-5.89-2.33-4.34-4.81-8.57-7.34-12.77q-2.76-4.53-5.63-9c-1.71-2.62-3.44-5.24-5.19-7.83-.61-4.18-1.33-8.33-2.23-12.44-1-4.33-2-8.65-3.27-12.92s-2.67-8.51-4.31-12.7a87.65,87.65,0,0,0-5.83-12.35,89.11,89.11,0,0,0-.09,13.66c.27,4.49.76,8.92,1.41,13.33M144.79,95.32c-6.52-5-16.32-14.36-23.81-20.18,3.12,2.93,6.06,6,8.88,9.23a192.45,192.45,0,0,1,11.93,15.22q4.59,6.43,8.59,13.26l-.29-1.14c-1.14-4.44-2.59-9-4.16-13.34-.37-1-.75-2-1.14-3.05m36.55-11.47s-25.18-10.08-38.92-13c0,0,12.34,24.44,9.08,27.7a.87.87,0,0,1-.54.21c.72,2.13,1.36,4.27,1.92,6.44.11-.26.21-.52.31-.79a45.67,45.67,0,0,0,1.72-6.5,41.29,41.29,0,0,0,.62-6.78,39.85,39.85,0,0,0-.58-6.93,27.27,27.27,0,0,1,2.18,6.78,32.23,32.23,0,0,1,.51,7.22,34.81,34.81,0,0,1-1,7.23c-.3,1.19-.64,2.37-1.06,3.54-.22.59-.45,1.17-.72,1.76a11.73,11.73,0,0,1-1.05,1.89l-2,2.78.31.53.29-.44c8.6-12.78,19.59-27,28.91-31.6m58.44-12.69-.55,0c-1.36,0-2.72.09-4.08.21-1.53.19-3.06.43-4.59.65A39.06,39.06,0,0,0,226,73l-2.26.58a19.57,19.57,0,0,0-2.23.65l-4.39,1.54c-1.42.62-2.85,1.24-4.25,1.89s-2.76,1.43-4.11,2.17-2.65,1.62-3.94,2.46a45.93,45.93,0,0,0-13.09,12.89,141.69,141.69,0,0,1,15.65-8.41c2.63-1.23,5.3-2.34,8-3.4l4-1.52,4.1-1.34c1.34-.53,2.77-.8,4.14-1.22s2.76-.83,4.18-1.12,2.81-.65,4.22-1l4.27-.82c2.67-.64,5.39-.91,8.12-1.4l.57-.1c2.94-.48,5.91-.7,8.95-1.33-1.46-.43-2.95-.77-4.45-1.1-.75-.18-1.5-.32-2.25-.47l-1.14-.21L249,71.58a60.13,60.13,0,0,0-9.2-.42m5.93,67.1h29.81l-3.34-12.64s-13.39,5.8-21.13,9.58c-3.13,1.52-5.34,2.72-5.34,3.06m26.87,6.66L255.2,163.15l16.54-2Zm3.34,68.46c-.42-2.67-25.25,15.74-25.25,15.74l22.74,1.14s2.93-14.22,2.51-16.88m-2.51-7.5s3.71-10,2.11-14.19c-1.44-3.71-31.73,21.5-38.66,27.49-.82.7-1.33,1.16-1.42,1.25l1.81-.69Zm-.83-20s1.87-15.83,0-20.27c-1.75-4.14-40.5,33.11-46.36,38.21a8.52,8.52,0,0,1-.73.6l-.75,2.53-.22.73.51-.23ZM275.52,92l-.92-4.62-1.19-6-11,3.94L258,86.91l2,.59L271,90.74ZM255.86,66.76l15.71-4.26-.36-.66-1-1.77-1.93-3.53-2.25-4.12-1.59-2.94L256.8,35.35l11,11.71,3.85,4.09,1.66,1.76,1,1.08.18-3.49,1.81-34.9,4.82,37.33,0-.07.84-1.57,2-3.75L287.65,41l1.86-3.26c.32-.54.64-1.08,1-1.61.17-.27.34-.53.53-.79a1.91,1.91,0,0,1,.34-.37c.08-.06.18.06.16.09s0,.09,0,.13a2,2,0,0,1-.06.23.87.87,0,0,0,0-.23.3.3,0,0,0,0-.1,2.27,2.27,0,0,0-.17.38c-.11.28-.2.58-.29.88-.18.59-.34,1.19-.5,1.79l-.89,3.62L287.9,49l-.76,3.47-.83,3.82-.76,3.64-.36,1.81-.17.89L285,63l14,3.79L284.2,73.15l-1.35-2.72-4.39-8.89-1.16-.31H277l-.52,0L270.6,73.15Zm19.62-5.46,0,.15.64-.17ZM197.91,292.53l8.3-15.61-30.67-12.08-.41-.16,7.32,8.95Zm47.8-113.38s-4.34-6.91-5.13-7.31c-.33-.16-4.12,3.61-8.44,8.08-6.11,6.32-13.29,14-13.29,14l9.59-5.28ZM215,331.37a2.11,2.11,0,1,0,2.1-2.1,2.1,2.1,0,0,0-2.1,2.1m-13-.85a2.11,2.11,0,1,0,2.11-2.1,2.1,2.1,0,0,0-2.11,2.1m24.69,10.57a2.11,2.11,0,1,0,2.11-2.1,2.11,2.11,0,0,0-2.11,2.1m-15.08,2.11a2.11,2.11,0,1,0,2.11-2.11,2.1,2.1,0,0,0-2.11,2.11m14.93-18.14a2.11,2.11,0,1,0,2.1,2.1,2.1,2.1,0,0,0-2.1-2.1m-18.23-11.6a2.1,2.1,0,1,0-2.1,2.11,2.1,2.1,0,0,0,2.1-2.11m13,4.21a2.11,2.11,0,1,0-2.1,2.11,2.1,2.1,0,0,0,2.1-2.11m-12.63,46.95a2.11,2.11,0,1,0,2.1-2.1,2.11,2.11,0,0,0-2.1,2.1m19.56.8a2.1,2.1,0,1,0,2.1,2.1,2.1,2.1,0,0,0-2.1-2.1M224.07,386a2.11,2.11,0,1,0,2.11-2.11,2.1,2.1,0,0,0-2.11,2.11m17.11-3.25a2.11,2.11,0,1,0,2.1,2.11,2.11,2.11,0,0,0-2.1-2.11m14.8,0a2.1,2.1,0,1,0-2.1-2.1,2.1,2.1,0,0,0,2.1,2.1m-11.07-14a2.11,2.11,0,1,0,2.11-2.1,2.1,2.1,0,0,0-2.11,2.1m-1.63-18.34a2.11,2.11,0,1,0-2.1,2.1,2.1,2.1,0,0,0,2.1-2.1m95.31-22.33a2.1,2.1,0,1,0,2.11,2.1,2.1,2.1,0,0,0-2.11-2.1m10.93,1.25a2.11,2.11,0,1,0,2.11-2.1,2.11,2.11,0,0,0-2.11,2.1M324.84,340a2.1,2.1,0,1,0,2.1-2.1,2.1,2.1,0,0,0-2.1,2.1M342,344.19a2.11,2.11,0,1,0-2.1-2.1,2.1,2.1,0,0,0,2.1,2.1M331.3,326.05a2.11,2.11,0,1,0-2.1,2.11,2.1,2.1,0,0,0,2.1-2.11m16.12-13.7a2.11,2.11,0,1,0,2.1-2.1,2.1,2.1,0,0,0-2.1,2.1m-10.93,2.11a2.11,2.11,0,1,0,2.1,2.1,2.11,2.11,0,0,0-2.1-2.1m6.32,49.05a2.11,2.11,0,1,0,2.1-2.1,2.11,2.11,0,0,0-2.1,2.1m-17.46,2.9a2.11,2.11,0,1,0,2.11-2.1,2.11,2.11,0,0,0-2.11,2.1m6.31,18.52a2.1,2.1,0,1,0-2.1,2.1,2.11,2.11,0,0,0,2.1-2.1m-15-1.14a2.11,2.11,0,1,0-2.1,2.1,2.11,2.11,0,0,0,2.1-2.1m-19-4.21a2.1,2.1,0,1,0,2.1-2.1,2.1,2.1,0,0,0-2.1,2.1m9-11.86a2.1,2.1,0,1,0,2.1-2.1,2.1,2.1,0,0,0-2.1,2.1M315,351.44a2.1,2.1,0,0,0-.13-4.13,1.55,1.55,0,0,0-.31,0,2.1,2.1,0,1,0,0,4.2,2.18,2.18,0,0,0,.44,0M157.12,314.75,172,329.27l-2.66-4.17-15.92-24.93-10-15.74-1.19,15.8,14.91,14.52Zm253.93-14.52-1.19-15.8-9.72,15.23-18.91,29.61,6.36-6.19Zm-239.41-8.52s14.85,26.13,19.86,34.81a51.14,51.14,0,0,0,1.05,9.47,46.49,46.49,0,0,0,2.9,9.27c-1.08-.64-2.16-1.28-3.26-1.88s-2.24-1.24-3.36-1.84c-1.78-.94-3.57-1.86-5.42-2.73l-1.18-.52-.08,0-.08-.11a9.52,9.52,0,0,1-.78-1.85c-.16-.48-.3-1-.44-1.5-.28-1-.55-2-.81-3.07-.76-3.15-1.48-6.36-2.47-9.57a43.71,43.71,0,0,0-.21,9.7c0,.1,0,.2,0,.3a29.2,29.2,0,0,0,.84,5.06,9.87,9.87,0,0,0,1.08,2.7,4.77,4.77,0,0,0,.66.8,2.89,2.89,0,0,0,.59.42c.34.17.33.15.43.2l1.08.45c3,1.32,6,2.66,9.08,3.81,1.39.54,2.81,1,4.24,1.49l.45.15.63.18c.06.12.11.25.17.37s.25.45.38.68c.4.71.82,1.42,1.29,2.12.29.46.65.91,1,1.36a12,12,0,0,0,1.31,1.44,21.91,21.91,0,0,0,5.78,3.75q.91.42,1.83.78a56.47,56.47,0,0,0,10.09,2.85,89.12,89.12,0,0,0,12,1.46,92.71,92.71,0,0,0,12-.1c2-.19,4-.39,6-.76a16.07,16.07,0,0,0,5.73-1.89,10.18,10.18,0,0,1-2.91.24c-1,0-1.94-.06-2.92-.15-1.94-.17-3.87-.35-5.8-.63q-5.79-.75-11.49-1.8c-3.8-.69-7.56-1.48-11.24-2.42a62.53,62.53,0,0,1-10.5-3.53,17,17,0,0,1-4.11-2.55,6.65,6.65,0,0,1-.69-.72c-.26-.33-.54-.64-.79-1-.5-.7-1-1.44-1.44-2.2a53.25,53.25,0,0,1-4.53-10.08,69.72,69.72,0,0,1-2.78-11c-.15-.8-.25-1.6-.34-2.41.39-4.39.67-8.93.67-8.93Zm185.42,20.57s.92,15.09,1.77,16.88c-.47,1.86-1,3.68-1.62,5.48a52.63,52.63,0,0,1-4.53,10.08c-.45.76-.94,1.5-1.45,2.2-.24.36-.52.67-.78,1a7.77,7.77,0,0,1-.69.72,17,17,0,0,1-4.11,2.55,62.53,62.53,0,0,1-10.5,3.53c-3.68.94-7.44,1.73-11.24,2.42s-7.63,1.3-11.49,1.8c-1.93.28-3.86.46-5.8.63-1,.09-1.95.14-2.92.15a10.18,10.18,0,0,1-2.91-.24,16.13,16.13,0,0,0,5.73,1.89c2,.37,4,.57,6,.76a92.54,92.54,0,0,0,12,.1,89.12,89.12,0,0,0,12-1.46,52.36,52.36,0,0,0,11.91-3.63,21.8,21.8,0,0,0,5.79-3.75,12,12,0,0,0,1.31-1.44c.32-.45.68-.9,1-1.36a29.94,29.94,0,0,0,1.67-2.8c.06-.12.11-.25.17-.37l.63-.18c1.58-.51,3.16-1,4.69-1.64,2.65-1,5.24-2.11,7.8-3.24l1.28-.57,1.07-.45a4.64,4.64,0,0,0,.44-.2,2.89,2.89,0,0,0,.59-.42,4.23,4.23,0,0,0,.65-.8,10.25,10.25,0,0,0,1.09-2.7c.12-.46.22-.91.32-1.36a33.93,33.93,0,0,0,.52-3.7,42.89,42.89,0,0,0-.18-10c-1,3.21-1.71,6.42-2.47,9.57-.39,1.56-.78,3.13-1.25,4.57a9.52,9.52,0,0,1-.78,1.85l-.08.11-.08,0-1.18.52c-3,1.42-5.92,2.93-8.78,4.57-1.1.6-2.18,1.24-3.26,1.88a46.49,46.49,0,0,0,2.9-9.27,49.06,49.06,0,0,0,1-12.2q0-.77-.12-1.53c6.24-10.88,17.41-30.55,17.41-30.55Zm192.11,18.24c-10.69-1.62-21.24-3.16-31.78-3.5a152.3,152.3,0,0,0-31.3,2.05,221.05,221.05,0,0,0-30.61,7.76c-4.49,1.43-9,3-13.45,4.54-1.18,1.43-2.36,2.85-3.53,4.29l-6,7.1a165.86,165.86,0,0,1,26.94-1.36,113.21,113.21,0,0,1,27.18,4,67.67,67.67,0,0,1,12.85,5.16,41.08,41.08,0,0,1,11,8.24c-7.91-4.49-16.39-6.79-25-8.36A196,196,0,0,0,459.22,358c-8.82-.3-17.69-.26-26.6,0l-7,.21c-2.53.51-5.06,1-7.61,1.4l-3.67.55a181,181,0,0,1,21.83.94c2.44.24,4.87.58,7.3.9s4.85.78,7.26,1.29A116.23,116.23,0,0,1,465.05,367a87.11,87.11,0,0,1,13.61,5.86,47.42,47.42,0,0,1,11.76,8.85,71.92,71.92,0,0,0-13.09-5.9A124.81,124.81,0,0,0,463.66,372c-4.61-1.06-9.29-1.87-14-2.59s-9.41-1.31-14.15-1.79c-9.47-1-19-1.62-28.57-2.06-4.31-.19-8.63-.37-13-.45l-6.3,9-39.13,9-.38.81c-.39.75-.82,1.48-1.27,2.21a1.4,1.4,0,0,1,1,1.11c.07.32.15,1,.26,1.87l2.18-.66c4.82-1.41,9.66-2.6,14.53-3.64a272.37,272.37,0,0,1,28.82-4.53c4.66-2.26,9.4-4.37,14.26-6.28,2.58-1,5.22-2,7.88-2.86s5.38-1.68,8.18-2.33c-2,2-4.17,3.89-6.34,5.67s-4.38,3.5-6.63,5.14c-4.49,3.3-9.11,6.37-13.82,9.27l-.54.33-1,.2a270.07,270.07,0,0,1-26.87,3.78c13.31,5.42,36,14.14,36,14.14s-41.63-3.48-40-2.59,30.72,25.28,31.31,26S363,415,361.32,415s34.82,51.32,34.82,51.32L354.9,423.79s18.39,52.48,18.52,56c.06,1.84-8.35-13.74-16.48-29.21.26,1.61.51,3.21.75,4.82q1.63,10.69,2.64,21.49c.71,7.18,1.1,14.4,1.09,21.62s-.38,14.5-2.36,21.42c1.17-7.08.65-14.24-.1-21.29s-2-14.07-3.51-21q-1.63-7.68-3.58-15.28c0,8.74-.21,17.3-.73,25.1a90.49,90.49,0,0,1-1.32,18c-.24,3.25-.52,6.49-.84,9.74-.61,6.27-1.47,12.53-2.66,18.73S343.67,546.36,341,552c2.06-5.93,2.79-12.16,3.31-18.35q.36-4.61.49-9.23c-2.58,6.87-6.27,14.16-9.54,15.48a2.05,2.05,0,0,1-1.76-.1c-1.31-.72-1.67-2.64-2.32-6.13-.6-3.23-1.55-8.28-3.4-10.12-.11.68-.21,1.56-.3,2.37-.65,5.78-1.84,16.21-10.13,25.11l-.06.4-.27-.06c-.47.49-1,1-1.47,1.46l-3,2.81.24-4.1c.54-9.23-3.75-17.86-5.79-19.68-.4,1.84-.7,6.79-1,11.59-.78,12.71-2,31.92-6.35,43.83l-.8,2.16L297,588c-12.06-9.75-20.85-36.14-24.45-48.54-4.1,18.14-5.9,18.88-6.62,19.17a1.89,1.89,0,0,1-1.8-.17c-5.74-3.83-12.39-16.54-16.31-24.9l.38,14.44-2.49-1.31c-16.85-8.87-23.08-25.54-24.84-36.17-.32-.54-.63-1.12-.93-1.72,0,2.06-.08,4.12-.07,6.18a184.07,184.07,0,0,0,1,18.62,130.6,130.6,0,0,0,3.42,18.4A133,133,0,0,1,218.84,534c-1.33-6.16-2.41-12.41-3.13-18.7s-1.17-12.62-1.4-19c-.13-3.95-.17-7.85-.11-11.81-.76-8.28-.58-15.69.06-18.64a34.15,34.15,0,0,0,0-6.82q-2.46,9.24-4.46,18.62c-1.5,6.94-2.7,13.95-3.5,21S205,512.89,206.21,520c-2-6.92-2.3-14.23-2.36-21.42s.39-14.44,1.09-21.62,1.55-14.36,2.64-21.49c.6-3.95,1.24-7.86,1.93-11.79-8.68,16.64-19,36.05-18.93,34,.13-3.56,15.63-53.85,15.63-53.85L165,466.34S201.42,415,199.79,415,164.38,431.53,165,430.79s31.11-26.48,32.74-27.37-37.73-.88-37.73-.88,15.94-5.4,26.93-9.23a270.87,270.87,0,0,1-27.8-3.87l-1-.2-.53-.33c-4.72-2.9-9.33-6-13.82-9.27-2.25-1.64-4.46-3.37-6.63-5.14s-4.3-3.65-6.34-5.67c2.8.65,5.51,1.45,8.18,2.33s5.3,1.83,7.88,2.86c4.86,1.91,9.6,4,14.26,6.28a272.78,272.78,0,0,1,28.82,4.53c4.87,1,9.71,2.23,14.53,3.64,2.25.66,4.5,1.36,6.75,2.12a31.43,31.43,0,0,1-4.56-6.65c-.14-.27-.27-.54-.4-.81l-39.12-9-6.24-8.94q-4.73.15-9.45.36c-9.57.44-19.1,1.07-28.57,2.06q-7.11.72-14.15,1.79c-4.69.72-9.36,1.53-14,2.59A124.81,124.81,0,0,0,81,375.78,71.92,71.92,0,0,0,68,381.68a47.42,47.42,0,0,1,11.76-8.85A87.11,87.11,0,0,1,93.32,367a116.7,116.7,0,0,1,14.28-3.74c2.41-.51,4.84-.88,7.26-1.29s4.86-.66,7.3-.9a176.89,176.89,0,0,1,18.11-1c-1.18-.17-2.35-.34-3.52-.53-3-.48-5.94-1-8.89-1.65l-.31-.07-9.31-.21c-9.1-.16-18.16-.18-27.18.17a208.14,208.14,0,0,0-26.8,2.55c-8.79,1.61-17.49,3.88-25.55,8.49A41.42,41.42,0,0,1,50,360.49a70.88,70.88,0,0,1,13.13-5.19,118.83,118.83,0,0,1,27.72-4.09,173.08,173.08,0,0,1,27.8,1.27c1.3.17,2.59.35,3.89.54l-6.2-7.36-1.23-1.5c-7.16-2.52-14.24-5.06-21.38-7.33a220.83,220.83,0,0,0-30.62-7.76A152.3,152.3,0,0,0,31.77,327c-10.53.34-21.08,1.88-31.77,3.5a118.13,118.13,0,0,1,31.34-8.66,111.22,111.22,0,0,1,32.83.72A140.44,140.44,0,0,1,95.48,332q8.16,3.5,15.93,7.72-2-2.39-3.92-4.8-4.38-5.39-8.68-10.84c-2.88-3.62-5.7-7.29-8.53-10.95l-.9-1.16,0-1.13q-.25-6.24-.4-12.5c-.1-4.16-.17-8.34-.19-12.51,0-.89,0-1.78,0-2.67-8.75,5.32-33,20-32.06,18.16,1.18-2.24,27.55-39.7,27.55-39.7l-28.44,7L80,245.52l-41.25,4.14s43.95-22.51,42-23.7-39.61-5.53-39.61-5.53l45.24-12.64L59.65,195.54h25.9c.42-2.49,1-4.92,1.64-7.32a96.36,96.36,0,0,1,4.92-13.58A94,94,0,0,1,99,161.92c1.16-1.77,2.37-3.51,3.68-5.21l-26.46-6.35,23.19-1.77-29.94-15,25.73,5.92L48.59,84.16l50.55,47.91a286.8,286.8,0,0,1-9.23-31.46c-4.27-18.37-8-42.4-1.34-52.61a14.33,14.33,0,0,1,1-1.37L70.91,34,93,39.34l-4.1-12.28,13.8,11L105.13,31l6.65,14.24c18.18,4.43,45.62,13.13,64.7,19.39l-5.88-7.9L155,35.62l20.4,16.51,10.2,8.25,1.36,1.09L181.34,0,197.2,57.13l3.39-9.37c1.39-3.75,2.78-7.49,4.23-11.22.72-1.86,1.45-3.72,2.21-5.57.38-.93.77-1.85,1.18-2.77.21-.46.42-.91.66-1.36a2.67,2.67,0,0,1,.45-.66s.14-.08.19,0a.16.16,0,0,1,.08.13.45.45,0,0,1,0,.2c0,.13,0,.25,0,.37,0-.12,0-.24-.07-.36a.53.53,0,0,0-.05-.15,3.22,3.22,0,0,0-.2.64c-.1.47-.18,1-.25,1.45-.15,1-.27,1.95-.38,2.94q-.33,3-.6,5.92c-.37,4-.69,7.91-1,11.87l-.86,11.88L205.8,67l0,.27a78.23,78.23,0,0,1,13.16-5.48,59.27,59.27,0,0,1,15-2.69c.92,0,1.84,0,2.76,0a35.6,35.6,0,0,1,4.94.47A22.43,22.43,0,0,1,248.87,62a73.77,73.77,0,0,0-14.29,2.2c-4.47,1.07-8.88,2.38-13.32,3.73l-.38.11-13.79,4.29c-.83.26-1.67.51-2.5.75-2.43.73-4.88,1.43-7.38,2.08-.15.43-.35.91-.6,1.47-.08.1-.15.16-.23.25l-1.29,3.76L192,79.6a6.6,6.6,0,0,1-4.33-.75c-.33-.2-.5-.35-.43-.35-.9-.7-.56-.47-.64-.52l0,0-.12-.12-.13-.14c-19-6.35-63.58-21-83.8-25l-.93,2.09-4-2.72a2.18,2.18,0,0,0-1.18,1.05c-1.5,2.3-2.17,6.35-2.19,11.53,0,9.73,2.21,23.45,5.53,37.15l.11.21c4.92,10.15,10.22,19.77,12.35,19.2,4.45-1.19-7.55-51.74,0-51.14a2,2,0,0,1,.34.06c.78.67,1.56,1.35,2.32,2A167.2,167.2,0,0,1,128.1,85.9c4.22,4.79,8.25,9.77,12.24,14.77q5.21,6.61,10.34,13.31l.56,2.21.55-.76.35.46c-8,12-13.91,22.54-14.27,22.37-.19-.09-.1-1.66.09-4,.14-1.76.34-3.95.53-6.29.52-6.53.9-14.2-.46-16.68-2.5-4.55-16.8-21.37-16.46-19.25s11.43,38,11.69,38.88a.14.14,0,0,1,0,0s-2.82,9.33-17.16,16.24h0l-7.8,5A62.93,62.93,0,0,1,106,165.1a95,95,0,0,1-4.92,13.57,97.09,97.09,0,0,1-6.87,12.72,69.6,69.6,0,0,1-6.62,8.75l3.65,70.19c.17.9.35,1.81.53,2.72v.05c.28,1.5.54,3,.81,4.51.46,2.59.91,5.19,1.33,7.79q1,6.18,1.88,12.37c.24,1.61.45,3.22.67,4.83.28,2,.55,4.07.81,6.11,2.85,3.17,5.7,6.33,8.5,9.54q4.59,5.21,9.09,10.49c3,3.5,6,7.07,9,10.6l7.88,9.55c2.35.64,4.69,1.31,7,2,2.87.91,5.74,1.85,8.59,2.92s5.67,2.18,8.47,3.43c.81.36,1.63.74,2.44,1.13l2.11-2.52,6.89-8.23,4.35-5.21s-.15,3.6-.23,7.47a62.14,62.14,0,0,0,.23,8.78c.39,1.8,14.92,6.78,25,10a1.14,1.14,0,0,1-.1-.19,26.62,26.62,0,0,1-2.38-9.33,23.53,23.53,0,0,1,0-4.28c0-.15,0-.29.05-.44a12.6,12.6,0,0,1,1.27-4.49,17.76,17.76,0,0,0,.54,4.41c.08.33.18.65.26,1,.29,1.08.61,2.14,1,3.16A32.53,32.53,0,0,0,201,366a12.89,12.89,0,0,0,2.42,2.7,8.36,8.36,0,0,0,2.95,1.28c2.56.72,5.44,1.26,8.27,1.77,5.71,1,11.51,1.82,17.32,2.52,2.91.34,5.83.69,8.76.9a54.93,54.93,0,0,0,8.9.13c-.65.38-1.34.72-2,1.09s-1.43.55-2.17.83a19.57,19.57,0,0,1-2.23.65c-.75.2-1.5.4-2.26.53a61.5,61.5,0,0,1-9.15,1.05,87.47,87.47,0,0,1-18.27-1.22c-2.15-.41-4.28-.85-6.44-1.48l.58,3.3c.53.73,1.07,1.45,1.63,2.14A32.38,32.38,0,0,0,218,390a22.9,22.9,0,0,0,5.06,2.22c.83.23,1.68.33,2.51.53a10.32,10.32,0,0,1,5.86-1.89h.1a12.14,12.14,0,0,1,5.84,1.54c.93-.14,1.87-.3,2.8-.47a180.68,180.68,0,0,0,23.62-6.41l2.94-1,.5-.17c2.62-1,5.17-2.09,7.51-3.2-.56-.5-1.14-1-1.68-1.52-.76-.75-1.51-1.53-2.2-2.36a8.43,8.43,0,0,1-1.66-2.75,9,9,0,0,0,2.34,2c.84.59,1.73,1.13,2.63,1.64s2.07,1.15,3.11,1.7a27.17,27.17,0,0,0,6.27-4.34c-.16-3.48-.2-6-.15-7.9-4.1-4.28-16.19-18.44-16.19-18.44s-10.39,0-11-.49c-.29-.2-2.22-1.75-4.3-3.43l-5.47-4.43.25-.27c-2.66-1.59-5.26-3.27-7.85-5h0l-.13-.11a5.94,5.94,0,0,1-.57-.55h0l0-.08a8.48,8.48,0,0,1-1.42-2.22q-.16-.37-.3-.75a8.25,8.25,0,0,1-.8-1.43c-.62-1.5-1.32-3-2.08-4.43a43.86,43.86,0,0,0-5.49-8.14,29.23,29.23,0,0,0-7.53-6.33,23.63,23.63,0,0,0-9.58-3,24.63,24.63,0,0,1,10.28,1.53,28.58,28.58,0,0,1,2.83,1.28c-6.6-12.49-6.25-27.61-5.88-39.41.31-10.12.63-17.79-3.45-19.2-9.08-3.16-27.35-2.27-36-23.61l-4.85-.83q-3.37-.56-6.06-1c-2.92-.44-5.22-.76-6.87-1-.65,2.09-1.3,4.17-1.92,6.25-.39,1.34-.79,2.67-1.14,4l-.54,2-.44,1.94-.22,1-.13.88-.14.88c0,.12-.07.34,0,.38s0,.14,0,.22a10,10,0,0,0,.86,2.94,52.19,52.19,0,0,0,3.73,7c1.42,2.33,3,4.62,4.54,6.92,3.15,4.58,6.48,9.09,9.83,13.6l20.35,27.1a226.6,226.6,0,0,1-24.37-23.83c-3.78-4.25-7.42-8.64-10.88-13.23q-2.59-3.44-5-7.11a53.24,53.24,0,0,1-4.31-7.92l-.45-1.12-.38-1.22a11.06,11.06,0,0,1-.31-1.34l-.13-.7a7,7,0,0,1-.05-.82v-.84a3.71,3.71,0,0,1,.07-.66l.19-1.22c.06-.41.12-.82.2-1.21l.27-1.09.56-2.17.63-2.09c.4-1.4.85-2.77,1.33-4.12,1.86-5.42,3.92-10.72,6.12-15.95,2.55-6,5.22-11.94,8.07-17.8q2.94-6,6.19-11.95l2.06-5.43c-5.81,4.17-13.59,9.87-17.42,12.68-2.64,8.54-5.55,17-8.52,25.35q-3,8.3-6,16.51l-3.05,8.21-1.5,4.09-.71,2c-.23.67-.39,1.26-.59,1.89l0,.06s0,0,0,.06h0a.08.08,0,0,1,0,0v0c0,.12,0,.09,0,.07a4.5,4.5,0,0,0,.07.5l.2.76.3.87a40.12,40.12,0,0,0,1.65,3.67c1.24,2.5,2.68,5,4.14,7.47l.65,1.09c2.75,4.59,5.65,9.15,8.56,13.72,6.23,9.89,12.78,19.64,18.53,30-4-4.36-7.87-8.76-11.69-13.25s-7.52-9.06-11.09-13.76l-.16-.22c-3.52-4.62-6.91-9.35-10.11-14.27-1.62-2.51-3.17-5.08-4.62-7.79a44.69,44.69,0,0,1-2-4.34l-.43-1.2-.36-1.36a13,13,0,0,1-.23-1.64,6.43,6.43,0,0,1,.06-1.12,5.35,5.35,0,0,1,.17-1c.25-.76.49-1.59.75-2.3l.76-2.12c.52-1.41,1.05-2.78,1.58-4.16,1.1-2.74,2.18-5.48,3.33-8.19q3.39-8.15,7-16.16c3.6-7.86,7.3-15.66,11.3-23.34.8-4.28,3-16.1,4.57-23.62.69-3.41,1.25-5.94,1.46-6.47.35-.87,5.23-4,10.56-7.17,6.69-4,14.07-8.14,14.07-8.14s-2,18.87-3.42,25.47a5.44,5.44,0,0,1-.73,2.24c-.28.14-1,.6-1.94,1.28s-2.54,1.78-4.2,3l-.45,4.33-2.14,20.61.26.65,6.32,15.94s24.52-4.94,37,3.85c15.12,10.69,20.78,24.17,20.78,24.17s-.72,2.22-1.84,5.86c-4.13,13.51-13.66,46.51-11.59,57.4a35.44,35.44,0,0,1,5.62,3.82,45.19,45.19,0,0,1,5.13,5.13c.14-2.17.39-4.29.69-6.4,1-6.61,2.41-13,4-19.36s3.29-12.61,4.9-18.88c.81-3.13,1.56-6.26,2.22-9.42a36.88,36.88,0,0,0,.93-9.63,17.48,17.48,0,0,1,1.34,4.84,36.8,36.8,0,0,1,.41,5,80.86,80.86,0,0,1-.45,10c-.69,6.6-1.86,13.07-3.14,19.47s-2.71,12.74-3.91,19c-.59,3.14-1.13,6.27-1.41,9.32a34.37,34.37,0,0,0-.12,3.62,7.83,7.83,0,0,1,.33,2.62,3.61,3.61,0,0,0,.57,1.27l-.13-.11c2.34,2.14,4.69,4.27,7,6.48l3.3-3.55,29.72,2.77-6.05-12.94L277.74,235,289,324.78l-3.19,12.71,25-4,4.31,3.85c.29-.59.56-1.19.86-1.77,1.35-2.78,2.8-5.5,4.26-8.21l-.14.26c0-.06,0-.65-.06-1.25s-.19-1.29-.33-2c-.28-1.38-.69-2.8-1.09-4.23-.84-2.86-1.77-5.75-2.7-8.65-1.88-5.79-3.76-11.65-5.42-17.6a162,162,0,0,1-4.12-18.16,75.05,75.05,0,0,1-.93-9.38,37.36,37.36,0,0,1,.11-4.73,20.22,20.22,0,0,1,.88-4.65,46.42,46.42,0,0,0,1.67,9c.83,2.92,1.71,5.82,2.67,8.71L316.6,292c1.92,5.81,3.8,11.66,5.41,17.65.81,3,1.57,6,2.14,9.15.12.62.22,1.24.32,1.87a46.07,46.07,0,0,1,5.18-5.18,32.13,32.13,0,0,1,9.14-5.47,24.6,24.6,0,0,1,10.28-1.53,23.58,23.58,0,0,0-9.58,3,29.27,29.27,0,0,0-7.54,6.33,43.81,43.81,0,0,0-5.48,8.14c-.63,1.2-1.39,1.71-2,2.71a7,7,0,0,1-.31.81l-.09.18-.06.08c-1.89,2.42-3.79,4.84-5.79,7.2-.49.59-1,1.17-1.5,1.75l.8.71-3.7,5.17-.51.71-12.52,1.54s-9.71,14.48-14.08,19.91c-.07,2.17,0,5.46.15,9l.13.27c.4.54,13.8,9.25,22.19,14.67,1.82.43,3.63.81,5.45,1.15,2.05.38,4.11.68,6.14.88a11.72,11.72,0,0,1,5.22-1.61,9.73,9.73,0,0,1,5.18,1.14l.57-.12h0c2.62-1.54,5.47-3.11,8-4.28a34.23,34.23,0,0,0,5.69-5.72c.56-.69,1.1-1.41,1.63-2.14l.58-3.3c-2.16.63-4.29,1.07-6.44,1.48A87.47,87.47,0,0,1,323,379.44a61.5,61.5,0,0,1-9.15-1.05c-.76-.13-1.52-.33-2.26-.53a19.57,19.57,0,0,1-2.23-.65c-.74-.28-1.46-.53-2.18-.83s-1.38-.71-2-1.09a55,55,0,0,0,8.91-.13c2.93-.21,5.85-.56,8.75-.9,5.82-.7,11.62-1.56,17.33-2.52,2.83-.51,5.71-1.05,8.27-1.77a8.36,8.36,0,0,0,2.95-1.28,13.18,13.18,0,0,0,2.42-2.7,32.53,32.53,0,0,0,3.71-7.44,36,36,0,0,0,1.25-4.14,17.3,17.3,0,0,0,.53-4.41,12.41,12.41,0,0,1,1.28,4.49c0,.27.06.54.09.81s0,.39,0,.58a27.36,27.36,0,0,1-2.42,12.66,1.14,1.14,0,0,1-.1.19c10.1-3.25,24.63-8.23,25-10,.46-2.16.2-10.86.06-14.56,0-1-.06-1.69-.06-1.69l.85,1,10.72,12.81,1.78,2.13c.81-.39,1.62-.77,2.44-1.13,2.8-1.25,5.63-2.38,8.47-3.43s5.71-2,8.59-2.92c2.33-.73,4.68-1.4,7-2l7.88-9.55c3-3.53,5.93-7.1,9-10.6s6-7,9.09-10.49c2.8-3.21,5.65-6.37,8.49-9.54.24-1.81.47-3.61.72-5.42s.5-3.68.77-5.52q.89-6.19,1.88-12.37.69-4.26,1.46-8.5c.22-1.29.45-2.57.69-3.85l.06-.32,1.21-46.3.76-28.82c-1.62-2-3.08-4.1-4.48-6.22a98.22,98.22,0,0,1-6.86-12.72,96.27,96.27,0,0,1-4.93-13.57,63.61,63.61,0,0,1-2.27-12.9l-7.8-5h0c-7.84-3.78-12.23-8.27-14.61-11.58a17.81,17.81,0,0,1-2.55-4.66S432.88,94.17,433.23,92s-14,14.7-16.46,19.25c-1.62,2.94-.78,13.13-.17,20.11.22,2.6.41,4.75.43,5.91,0,.57,0,.91-.1.95-.27.13-3.79-6-9-14.31-1.45-2.29-3-4.74-4.71-7.26l.11-.44q5.13-6.7,10.34-13.31c4-5,8-10,12.24-14.77a167.2,167.2,0,0,1,13.25-13.76c1.5-1.37,3-2.69,4.64-3.94,5,4.91-5.34,49.59-1.16,50.71,2.15.57,7.5-9.18,12.45-19.4,1.7-7,3.12-14,4.09-20.5.43-2.85.78-5.6,1-8.2.86-9.2.48-16.54-1.76-20A2,2,0,0,0,456,52c-19.18,2.92-74.46,21.28-91.31,27-3,1-4.82,1.64-4.93,1.68l-1.2-3.5A8.7,8.7,0,0,1,357,75.63l-2.84-.47.22-.84c-2.16-.6-4.29-1.24-6.41-1.88l-.28-.09-9.81-3-4-1.24c-4.56-1.39-9.11-2.74-13.71-3.84A73.54,73.54,0,0,0,305.92,62a22.57,22.57,0,0,1,7.28-2.47c1.16-.19,2.33-.32,3.51-.41a41.88,41.88,0,0,1,4.19-.06,59.27,59.27,0,0,1,15,2.69,77.35,77.35,0,0,1,13.85,5.83l.94.53-.09-1-.6-6-1.29-12c-.45-4-.91-8-1.43-11.94-.26-2-.53-4-.83-6-.16-1-.32-2-.51-2.95-.1-.49-.2-1-.33-1.45a2.21,2.21,0,0,0-.24-.61.43.43,0,0,0-.08.18c0,.11,0,.24-.07.36,0-.12,0-.25,0-.38a.71.71,0,0,1,0-.2.18.18,0,0,1,.24-.16,1.81,1.81,0,0,1,.53.64c.27.44.51.89.74,1.35.45.91.88,1.82,1.3,2.74.84,1.85,1.64,3.7,2.44,5.56,1.58,3.72,3.11,7.45,4.63,11.19L358.82,57l14.6-57-4.85,60.05,10.07-7,20.47-14.31-16,19.17-6,7.1c23.51-7.73,60.82-19.54,76.95-22.11L459.64,31l2.42,7.11,13.8-11-4.1,12.28L493.86,34,467.94,51.54c4.16,11.52.79,32.58-3.05,49.07a286.6,286.6,0,0,1-9.23,31.45l50.54-47.9-46.56,55.38,25.72-5.92-30.91,15.46,18.17,1.28L452.42,157c1.21,1.6,2.34,3.23,3.42,4.88a94,94,0,0,1,6.85,12.72,96.36,96.36,0,0,1,4.92,13.58c.61,2.31,1.17,4.64,1.59,7l25.09-1.78-26,23.37,43.06,3.59s-33.18,9.48-35.16,10.67,37.53,18.56,37.53,18.56l-43-5.23,25.89,24.2L468,261.46s23.51,33.46,24.7,35.69c.95,1.79-18.81-12-26.62-17.52,0,2.07,0,4.13,0,6.2,0,4.17-.09,8.35-.19,12.51s-.24,8.34-.4,12.5l0,1.13-.9,1.16c-2.83,3.66-5.65,7.33-8.54,10.95s-5.72,7.21-8.62,10.77c2.09-1,4.19-1.94,6.32-2.85A140.68,140.68,0,0,1,485,322.58a111.2,111.2,0,0,1,32.83-.72,118.23,118.23,0,0,1,31.34,8.66M447.55,151.45l-.09-.73-.25.41.34.32M206.6,231.65a2.9,2.9,0,1,0,2.9-2.9,2.9,2.9,0,0,0-2.9,2.9m12.93,4.58a17.21,17.21,0,0,1-8.38,6,15,15,0,0,1-9.63-.24,15.21,15.21,0,0,1-7.52-6,17.36,17.36,0,0,1-2.55-10,13.75,13.75,0,0,0,.29,11.19,15.4,15.4,0,0,0,20.35,7.43,13.7,13.7,0,0,0,7.44-8.35M196.8,71.38l.61.21h0v0l.68.23,0,.1.47-.34Zm-9.32-3.6-.43.31.48.16ZM251.7,404a131.11,131.11,0,0,1-3,13.52c.86,7.3,2.51,22.53,2.8,33.82.88,2,2.22,6,4.59,13.54v-4.41h46.19v1.08l1-.1c1.1-4.52,2.59-10,3.16-10.7l.61-.79,1,.16c.46.09.82.16,1.41,1.26,1.06-9.34,1.62-20.55,1.89-30.58-.91-1.26-2.37-5-6.2-16.64l-.2-.63.28-.6c.41-.86.79-1.62,1.14-2.34-1.22-.91-2.62-1.94-4.15-3v15h-17.7L282.24,457l-5.92-44.23,4.79-.2h-25V398.87c-.65-.06-1.28-.13-1.89-.17-1.24.61-2.42,1.21-3.54,1.78A9.83,9.83,0,0,1,251.7,404m11.93-9.78h28.9c1.24-.21,2.5-.4,3.76-.57l-1.33-.8q-3-1.22-5.86-2.55c-1-.45-1.92-.91-2.87-1.39l-.93-.47a11,11,0,0,0-1.68-.3c-4.07-.38-12.07,2.55-20,6.08m53.56,15.51c-1,4.59-2.49,10.35-3.07,11.11l-.42.57a324.55,324.55,0,0,1-2.45,34.28c.59,1.66,1.31,3.84,2.22,6.69l1.13-.92c1.3-8.17,3.57-22.6,5.44-35.67-.19-1-.38-2-.58-3.05s-1.34-7.24-2.27-13M308,456.42c-1.15,4.17-2.65,10.26-2.69,11.22s1.84,4.61,3.07,6.57c.89-1.49,2.23-4,3.39-6.28-1.29-4.16-2.72-8.53-3.77-11.51m7-52.48c-.07-1-1.92-4.58-3.18-6.52-.87,1.5-2.17,4-3.29,6.34,1.36,4.13,2.86,8.48,4,11.44,1.08-4.19,2.48-10.3,2.51-11.26m-21.53,5.38H299V397.51h-5.49Zm-5.89-11.81h-5.49v11.81h5.49Zm-16.84,11.81h5.5V397.51h-5.5Zm-11.38,0h5.5V397.51h-5.5Zm34.11,66.25H299V463.76h-5.49Zm-11.38,0h5.49V463.76h-5.49Zm-11.35,0h5.5V463.76h-5.5Zm-11.38,0h5.5V463.76h-5.5Zm-9.91-20.26c-1.15,4.17-2.65,10.26-2.69,11.22s1.84,4.61,3.07,6.57c.89-1.48,2.23-4,3.39-6.28-1.29-4.16-2.72-8.52-3.77-11.51m-1-51.37c-.06-1-1.92-4.58-3.18-6.52-.87,1.5-2.16,4-3.29,6.34,1.37,4.13,2.86,8.48,4,11.44,1.08-4.19,2.48-10.3,2.5-11.26m-7,8.66c-.12,2.06-.24,4-.34,5.56,1.29,12.49,3.06,27.69,4.88,37.41a33,33,0,0,1,1.93-5.93l.61-.78.54.08c-.37-9-1.46-20-2.26-27.32l-.89-.12c-.93-.15-1.46-.25-4.47-8.9m-13,39.41,9.34,26.31,6.62-8.59a9.35,9.35,0,0,1-.91-3.32,16.43,16.43,0,0,1,.32-1.86Zm93.63,26.31L331.39,452,314.8,465.54l-.55-.67.85,2.72.2.63-.3.59-.11.22Zm-2.83-79-.05.18c-.1,3.82,4.66,29.8,7.13,39.95,1.81-7.46,4.85-24.07,7.36-39.36-1.66-3.86-4.25-5.79-7.48-5.62-3.41.19-6.35,2.66-7,4.85M284,363a27.26,27.26,0,0,0,1.08,4.7,23.49,23.49,0,0,0,.66-4.1c0-.26.05-.51.07-.77.06-.89.09-1.77.1-2.66,3.06-4.21,7.33-10.37,11.05-15.9l1.19-1.77,12.6-1.55.52-.73a4.26,4.26,0,0,1,1.37.71,2.38,2.38,0,0,1,.56.58,2.48,2.48,0,0,1,.36.84,2.18,2.18,0,0,0,.09-1.86c0-.07-.05-.15-.08-.22a4.3,4.3,0,0,0-1.44-1.66,7.58,7.58,0,0,0-3.94-1.26,11.39,11.39,0,0,0-3.92.48,10.81,10.81,0,0,0-3.47,1.75l.94.06-18.21,2.92-26.68-2.48,2,0c1.15,0,2.34.12,3.54.11a20.85,20.85,0,0,0,3.73-.26,13.25,13.25,0,0,0-3.46-1.56,15.39,15.39,0,0,0-3.72-.61,9.46,9.46,0,0,0-3.92.58,3.66,3.66,0,0,0-1.76,1.34,1.92,1.92,0,0,0-.06,2.08,2.09,2.09,0,0,1,.53-1l4.35,3.5c1.78.14,5.8.23,9.14.25h2.14l1.39,1.63c4.6,5.39,9.62,11.16,13,14.94.07.61.13,1.22.22,1.83,0,0,0,.06,0,.1m-59.76,37.62c4.21,14.91,9.09,31.09,11.72,38.3,1-8,2.35-25.55,2.65-34.86l-.18-.55.21-.44a42.12,42.12,0,0,0,0-4.42l-.15-.59c-.52-1.89-3.58-4-7-4s-6.06,2.34-7.24,6.52m119.37,117a116.41,116.41,0,0,0-1.53-22.13c-1.41-8-4.05-16-8.93-20.72,5.07,5.39,3.39,24.83-3.13,37.53a30.38,30.38,0,0,1-4.71,6.91c1.7-3.56,2.26-8.33,2.21-13.32-.09-9.05-2.21-18.83-3.38-23.53l-1,2.77-.61-.79c-1.49,8.08-4.71,23.59-7.49,24.4.38-13.7-6.25-25.76-11-32.64-.4-.59-.8-1.14-1.18-1.65l-.55.2v2.08c3.17,8.42,6.72,23.43-.71,37.22a37.09,37.09,0,0,1-2.13,3.49,40.17,40.17,0,0,0-.82-18.26A64.11,64.11,0,0,0,292,483.08s1.89,29.63-7.05,38.49c3.48-29.63-12.1-42.49-12.1-42.49s-15.55,15.62,1.93,43c-10.81-2.81-21-32.5-20.94-40.52,0,0-16.69,20.63,2.2,46.47-16.83-10.82-18.89-27.41-18.89-38.47-5.61,1.89-9.27,11.71-11.17,18.54-.56,2-1,3.78-1.23,5,2,8.39,6.82,19.62,17.17,27.32-.68-1-1.31-2-1.89-3a52.46,52.46,0,0,1-3.77-8.48,64.07,64.07,0,0,1-2.38-8.89c-.15-.75-.28-1.5-.37-2.26s-.2-1.52-.25-2.28a11.25,11.25,0,0,1,.34-4.55,11,11,0,0,0,.07,4.5c.11.74.26,1.48.44,2.22s.36,1.46.57,2.18a61.28,61.28,0,0,0,3.11,8.47,50.64,50.64,0,0,0,4.34,7.8,37.16,37.16,0,0,0,2.59,3.37l-.43-16.69-.16-6.32,3.4,8.27c0,.09,1.47,3.56,3.66,8.18,2.81,5.94,6.86,13.8,10.79,18.82-.47-1.88-.91-3.75-1.34-5.64-.65-2.92-1.25-5.86-1.82-8.8-.18-.94-.37-1.87-.54-2.81-.71-3.89-1.32-7.8-1.74-11.73a58.4,58.4,0,0,1-.28-11.82,57.5,57.5,0,0,0,1.1,11.71q.54,3,1.22,6.05c.41,1.82.85,3.63,1.3,5.44,1.65,6.43,3.53,12.84,5.63,19.11,1.48-4.35,3.65-13.17,5.29-21l1.48-7.1,1.73,7c.09.36,8.15,32.72,20.33,48.31l-.15-.75c-.5-2.59-.86-5.19-1.15-7.79-.58-5.19-.92-10.38-1.15-15.57s-.31-10.38-.26-15.57c0-2.59.08-5.19.21-7.78.08-1.29.16-2.59.29-3.88.06-.64.15-1.29.24-1.93a5.71,5.71,0,0,1,.55-1.86,5.69,5.69,0,0,0-.45,1.87c-.06.65-.11,1.29-.14,1.93-.06,1.3-.07,2.59-.07,3.88,0,2.59.07,5.18.19,7.76.23,5.16.6,10.33,1.08,15.47s1.11,10.27,2,15.34c.41,2.54.9,5,1.51,7.52.24,1,.52,2,.83,3,3.18-11.5,4.17-27.67,4.85-38.79.28-4.51.48-7.69.73-9.87a13.13,13.13,0,0,1,.67-3.34,3.09,3.09,0,0,1,1.21-1.43,2.56,2.56,0,0,1,1.95-.28c3.18.76,7,7.83,8.32,15.74q.21-1.17.36-2.34a85,85,0,0,0,.75-9.18,113.07,113.07,0,0,0-.59-15.05c-.13-1.17-.25-2.33-.41-3.5.5,2.16.91,4.35,1.27,6.54a117.12,117.12,0,0,1,1.38,12,90,90,0,0,1,.06,9.44c0,.89-.1,1.79-.18,2.68,4.62-7,5.45-14.29,6-19.09.36-3.16.56-4.91,1.85-5.7l.55-.33.63.12a5.74,5.74,0,0,1,3.44,2.26,10.11,10.11,0,0,1,.95,1.48,26.88,26.88,0,0,1,2.25,6.92l0-.19,1.31-8.11c.66-4.28,1.29-8.57,1.76-12.88.12-1.14.24-2.27.33-3.41,0,.83,0,1.67,0,2.5,0,4.65-.22,9.31-.47,14L336,534.76a55,55,0,0,0,6.14-12.88c.49-1.38,1-2.81,1.4-4.27"/><path class="cls-4" d="M235.93,438.94c-2.63-7.21-7.51-23.39-11.72-38.3,1.18-4.18,3.74-6.49,7.24-6.52s6.46,2.07,7,4l.15.59a42.12,42.12,0,0,1,0,4.42l-.21.44.18.55c-.31,9.31-1.63,26.86-2.65,34.86m90.25-44.48c-3.41.19-6.35,2.66-7,4.85l-.05.18c-.1,3.82,4.66,29.8,7.13,39.95,1.81-7.46,4.85-24.07,7.36-39.36-1.66-3.86-4.25-5.79-7.48-5.62m-81,3c-.87,1.5-2.16,4-3.29,6.34,1.37,4.13,2.87,8.47,4,11.44,1.08-4.19,2.48-10.3,2.5-11.26s-1.92-4.58-3.18-6.52m66.59,0c-.87,1.5-2.17,4-3.29,6.34,1.36,4.13,2.86,8.47,4,11.44,1.08-4.19,2.48-10.3,2.5-11.26s-1.91-4.58-3.17-6.52m-52.46,11.9h5.5V397.51h-5.5Zm11.38,0h5.5V397.51h-5.5Zm11.35,0h5.49V397.51h-5.49Zm11.38,0H299V397.51h-5.49Zm-34.11,66.25h5.5V463.76h-5.5Zm11.38,0h5.5V463.76h-5.5Zm11.35,0h5.49V463.76h-5.49Zm11.38,0H299V463.76h-5.49Zm-49.68-11L228.42,452l9.34,26.31,6.62-8.59a9.35,9.35,0,0,1-.91-3.32,16.43,16.43,0,0,1,.32-1.86m70.46.32c.27.85.55,1.75.85,2.72l.2.63-.3.59-.11.21,7.16,9.3L331.39,452,314.8,465.54Zm-8.95,2.77c.05,1,1.84,4.61,3.07,6.57.89-1.49,2.23-4,3.39-6.28-1.29-4.16-2.72-8.52-3.77-11.51-1.15,4.17-2.65,10.26-2.69,11.22m-58.54-1.11c.05,1,1.84,4.61,3.07,6.57.89-1.49,2.23-4,3.4-6.28-1.3-4.16-2.73-8.52-3.78-11.51-1.15,4.17-2.65,10.26-2.69,11.22M211.15,242.2a15,15,0,0,1-9.63-.24,15.21,15.21,0,0,1-7.52-6,17.36,17.36,0,0,1-2.55-10,13.75,13.75,0,0,0,.29,11.19,15.4,15.4,0,0,0,20.35,7.43,13.72,13.72,0,0,0,7.44-8.35,17.27,17.27,0,0,1-8.38,6m148.4-6.27a15.07,15.07,0,0,1-17.15,6.27,17.27,17.27,0,0,1-8.38-6,13.75,13.75,0,0,0,7.44,8.35,15.4,15.4,0,0,0,20.35-7.43,13.79,13.79,0,0,0,.3-11.19,17.37,17.37,0,0,1-2.56,10M283.74,361.09c.07.61.13,1.22.22,1.83,0,0,0,.06,0,.1a27.26,27.26,0,0,0,1.08,4.7,23.49,23.49,0,0,0,.66-4.1c0-.26.05-.51.07-.77.06-.89.09-1.78.1-2.66s0-1.46,0-2.18a45.91,45.91,0,0,0-.44-4.82,26.68,26.68,0,0,0-1.09-4.81,26.65,26.65,0,0,0-.72,4.87,46.22,46.22,0,0,0-.08,4.85c0,1,.12,2,.22,3M155,84.16a39.85,39.85,0,0,1,.58,6.93,41.29,41.29,0,0,1-.62,6.78,45.67,45.67,0,0,1-1.72,6.5c-.1.27-.21.53-.31.79-.56-2.17-1.2-4.31-1.92-6.44-.21-.64-.42-1.29-.65-1.93a84.68,84.68,0,0,0-6.06-13.3,60.14,60.14,0,0,0-4-6.16,46.5,46.5,0,0,0-4.81-5.59,29.25,29.25,0,0,0-12.36-7.64,38.63,38.63,0,0,1,10.24,9.51,71.69,71.69,0,0,1,7.19,11.88c1.58,3.2,3,6.49,4.29,9.83.39,1,.77,2,1.14,3.05,1.57,4.38,3,8.9,4.16,13.34l.29,1.14q-4-6.82-8.59-13.27-5.58-7.89-11.93-15.21c-2.82-3.2-5.76-6.3-8.87-9.23-1.61-1.51-3.24-3-4.95-4.38a56,56,0,0,0-8-5.57A27,27,0,0,0,99,61.83a30.35,30.35,0,0,1,8.48,4.33,58.44,58.44,0,0,1,5.08,3.94c.78.67,1.56,1.35,2.32,2A167.2,167.2,0,0,1,128.1,85.9c4.22,4.79,8.25,9.77,12.24,14.77q5.21,6.61,10.34,13.31l.56,2.21.54-.76.36.46h0l-.31-.53,1.95-2.78a10.81,10.81,0,0,0,1.06-1.9c.27-.58.5-1.16.72-1.75.42-1.17.76-2.35,1.06-3.54a34.81,34.81,0,0,0,1-7.23,32.27,32.27,0,0,0-.51-7.22A26.87,26.87,0,0,0,155,84.16m291-16.7a49,49,0,0,0-4.43,2.84q-1.83,1.31-3.56,2.73a116.9,116.9,0,0,0-13.82,13.61q-6.35,7.31-11.93,15.21-4.59,6.45-8.59,13.27l.29-1.14c1.14-4.44,2.59-9,4.16-13.34.66-1.83,1.36-3.63,2.09-5.42q1.55-3.8,3.34-7.46a71.69,71.69,0,0,1,7.19-11.88,38.63,38.63,0,0,1,10.24-9.51A29.25,29.25,0,0,0,418.55,74a46.5,46.5,0,0,0-4.81,5.59,60.14,60.14,0,0,0-4,6.16,84.59,84.59,0,0,0-5.93,13c0,.11-.09.22-.13.34-1,2.76-1.84,5.54-2.57,8.37-.11-.26-.21-.52-.31-.79a45.67,45.67,0,0,1-1.72-6.5,41.29,41.29,0,0,1-.62-6.78,39.77,39.77,0,0,1,.58-6.93,26.87,26.87,0,0,0-2.18,6.78,32.23,32.23,0,0,0-.51,7.22,34.81,34.81,0,0,0,1,7.23c.08.32.18.64.26,1,.24.87.49,1.73.8,2.58.21.59.45,1.17.72,1.76a11.13,11.13,0,0,0,1.06,1.89l1.95,2.78-.13.21-.18.32.22-.29a2.09,2.09,0,0,1,.14-.17l.54.77.45-1.78.11-.44q5.13-6.7,10.34-13.31c4-5,8-10,12.24-14.77a167.2,167.2,0,0,1,13.25-13.76c1.5-1.37,3-2.69,4.64-3.94.9-.71,1.82-1.4,2.76-2A30.21,30.21,0,0,1,455,64.1a27,27,0,0,0-9.08,3.36M246.08,328.76a26.32,26.32,0,0,0,3.85,5.05,34.44,34.44,0,0,1-3.1-5.41,5.49,5.49,0,0,1-.38-1.36c0-.37.1-1,.17-1.45.14-1,.3-2,.47-3.09l2.14-12.38q2.15-12.37,4.14-24.79l2-12.41c.32-2.06.63-4.16,1-6.15l0-.17,0-.15a2.12,2.12,0,0,0,.08-.63,7.71,7.71,0,0,0-.05-.87c-.06-.55-.15-1.08-.24-1.61-.18-1-.39-2.08-.61-3.11-.88-4.12-1.91-8.18-3-12.24s-2.16-8.11-3.33-12.14c1.7,8.21,3.46,16.42,4.93,24.65.18,1,.35,2.05.48,3.08.07.51.13,1,.16,1.51a5.7,5.7,0,0,1,0,.7.7.7,0,0,1,0,.16,1.28,1.28,0,0,1-.07.21l-.06.22c-.51,2.1-.91,4.13-1.34,6.19-.79,4.13-1.59,8.25-2.3,12.38q-2.16,12.41-3.9,24.87c-.55,4.16-1.1,8.32-1.51,12.5-.1,1.05-.2,2.1-.27,3.16a13.28,13.28,0,0,0,0,1.69,6.36,6.36,0,0,0,.64,1.59M218.17,221.6a52.92,52.92,0,0,1,13.7,11.48,64,64,0,0,1,5.27,7.34,83.08,83.08,0,0,1,4.28,8.09,49.62,49.62,0,0,0-8.13-16.57,47.71,47.71,0,0,0-13.95-12.35,49.06,49.06,0,0,0-17.59-6.11c-6.13-.86-12.56-.78-18.36,1.37a46.58,46.58,0,0,1,18,.41,55,55,0,0,1,16.74,6.34m40.77,116.2a9.63,9.63,0,0,0-3.92.59,3.73,3.73,0,0,0-1.76,1.34,1.92,1.92,0,0,0-.06,2.08,2.09,2.09,0,0,1,.53-1,1.27,1.27,0,0,1,.36-.26,3.5,3.5,0,0,1,1.42-.36c.42,0,.87,0,1.31,0l2,0c1.15,0,2.34.12,3.54.11a20.85,20.85,0,0,0,3.73-.26,13.25,13.25,0,0,0-3.46-1.56,15.9,15.9,0,0,0-3.72-.62m48.8-32q2.94,10.67,6.26,21.24c-1.41,1.77-2.85,3.51-4.21,5.31,1.75-1.58,3.43-3.24,5.14-4.86l.18-.17L315,327q-2.49-10.92-5.23-21.77c-1.81-7.24-3.69-14.46-5.56-21.67-.92-3.62-1.91-7.21-2.76-10.83-.21-.9-.44-1.8-.63-2.69-.08-.43-.18-.91-.21-1.25,0-.06,0-.06,0,0s0,0,0-.09l.06-.31.16-.67,1.32-5.43c.87-3.64,1.74-7.27,2.46-10.95.36-1.83.71-3.67,1-5.52.14-.93.27-1.86.34-2.8,0-.46,0-.93,0-1.4a4.17,4.17,0,0,0-.07-.71c-.05-.21-.11-.5-.35-.57.23.09.26.37.29.58a5.3,5.3,0,0,1,0,.69,12.38,12.38,0,0,1-.18,1.38c-.15.92-.34,1.83-.54,2.74-.41,1.81-.89,3.61-1.38,5.41q-1.5,5.38-3.07,10.75l-1.55,5.39L299,268l-.09.37a1.6,1.6,0,0,0,0,.25,1.13,1.13,0,0,0,0,.31,14.8,14.8,0,0,0,.18,1.52c.16.94.33,1.87.52,2.79q1.17,5.51,2.51,10.94,2.67,10.88,5.68,21.67m41.72-92.33a49,49,0,0,0-17.6,6.11,47.83,47.83,0,0,0-13.95,12.35,52.59,52.59,0,0,0-4.86,7.94c-.51,1.07-1,2.16-1.42,3.26a51.52,51.52,0,0,0-1.84,5.37c.71-1.48,1.42-2.95,2.18-4.39.66-1.26,1.34-2.49,2.09-3.7a64,64,0,0,1,5.27-7.34A52.92,52.92,0,0,1,333,221.6a55.1,55.1,0,0,1,16.74-6.34,46.58,46.58,0,0,1,18-.41c-5.79-2.15-12.22-2.23-18.35-1.37M308,339.7a11.48,11.48,0,0,1,3.21.54h0a4.26,4.26,0,0,1,1.37.71,2.58,2.58,0,0,1,.56.58,2.48,2.48,0,0,1,.36.84,2.18,2.18,0,0,0,.09-1.86c0-.07-.05-.15-.08-.22a4.22,4.22,0,0,0-1.44-1.66,7.58,7.58,0,0,0-3.94-1.26,11.39,11.39,0,0,0-3.92.48,10.81,10.81,0,0,0-3.47,1.75l.94.06c1,0,1.9,0,2.82,0,1.2,0,2.36,0,3.49,0m-101.42-108a2.9,2.9,0,1,0,2.9-2.9,2.9,2.9,0,0,0-2.9,2.9m148.73-.59a2.9,2.9,0,1,0-2.9,2.9,2.9,2.9,0,0,0,2.9-2.9"/></svg>