<?xml version="1.0" encoding="UTF-8" standalone="no"?>
<!-- Created with Inkscape (http://www.inkscape.org/) -->

<svg
   xmlns:dc="http://purl.org/dc/elements/1.1/"
   xmlns:cc="http://creativecommons.org/ns#"
   xmlns:rdf="http://www.w3.org/1999/02/22-rdf-syntax-ns#"
   xmlns:svg="http://www.w3.org/2000/svg"
   xmlns="http://www.w3.org/2000/svg"
   xmlns:xlink="http://www.w3.org/1999/xlink"
   xmlns:sodipodi="http://sodipodi.sourceforge.net/DTD/sodipodi-0.dtd"
   xmlns:inkscape="http://www.inkscape.org/namespaces/inkscape"
   width="141.28659mm"
   height="134.58569mm"
   viewBox="0 0 500.62178 476.87844"
   id="svg2"
   version="1.1"
   inkscape:version="0.91 r13725"
   sodipodi:docname="fox.svg">
  <defs
     id="defs4">
    <linearGradient
       inkscape:collect="always"
       id="linearGradient4183">
      <stop
         style="stop-color:#ffffff;stop-opacity:1;"
         offset="0"
         id="stop4185" />
      <stop
         style="stop-color:#ffffff;stop-opacity:0;"
         offset="1"
         id="stop4187" />
    </linearGradient>
    <linearGradient
       inkscape:collect="always"
       xlink:href="#linearGradient4183"
       id="linearGradient4195"
       x1="205.08665"
       y1="416.73904"
       x2="183.26894"
       y2="321.46829"
       gradientUnits="userSpaceOnUse" />
  </defs>
  <sodipodi:namedview
     id="base"
     pagecolor="#ffffff"
     bordercolor="#666666"
     borderopacity="1.0"
     inkscape:pageopacity="0"
     inkscape:pageshadow="2"
     inkscape:zoom="1.3750285"
     inkscape:cx="245.58301"
     inkscape:cy="232.62117"
     inkscape:document-units="px"
     inkscape:current-layer="layer2"
     showgrid="false"
     inkscape:window-width="1237"
     inkscape:window-height="776"
     inkscape:window-x="43"
     inkscape:window-y="24"
     inkscape:window-maximized="1"
     fit-margin-top="5"
     fit-margin-left="5"
     fit-margin-right="5"
     fit-margin-bottom="5" />
  <metadata
     id="metadata7">
    <rdf:RDF>
      <cc:Work
         rdf:about="">
        <dc:format>image/svg+xml</dc:format>
        <dc:type
           rdf:resource="http://purl.org/dc/dcmitype/StillImage" />
        <dc:title></dc:title>
      </cc:Work>
    </rdf:RDF>
  </metadata>
  <g
     inkscape:groupmode="layer"
     id="layer2"
     inkscape:label="color"
     transform="translate(-98.109165,-208.37945)">
    <path
       style="fill:#ff5502;fill-opacity:1;fill-rule:evenodd;stroke:none;stroke-width:1px;stroke-linecap:butt;stroke-linejoin:miter;stroke-opacity:1"
       d="m 119.99751,253.10606 32.72659,102.54333 11.63613,44.36272 -5.09081,51.63529 -0.72726,39.99917 -13.09063,54.54432 0,40.72643 10.90886,38.54465 12.36338,19.63596 18.18144,1.45451 21.81773,-0.72725 73.45302,-2.90903 26.90854,-7.99984 21.09047,-0.72726 58.18061,7.99984 73.45302,7.99983 33.45385,2.90903 1.45452,-15.99967 -5.09081,-7.27257 10.18161,-9.45435 3.63629,-8.72709 12.36338,-7.99984 5.81806,-10.90886 -15.99967,-2.18177 -23.27224,3.63628 -89.45269,2.90903 -67.63496,10.90887 -13.09064,-7.99983 -13.8179,-32.7266 -23.9995,-87.27091 -26.18127,-107.63413 10.90886,-15.99967 26.90853,-22.54499 -31.99933,6.54532 -8.72709,-5.0908 26.18127,-23.27225 -16.72692,-2.90903 -34.18111,8.72709 7.27257,21.81773 -5.0908,1.45452 -21.09047,-33.45385 -27.63579,-13.09064 -21.09047,-29.81756 -11.63613,-32.7266 -17.45418,13.8179 z"
       id="path4200"
       inkscape:connector-curvature="0" />
    <path
       style="fill:url(#linearGradient4195);fill-opacity:1;fill-rule:evenodd;stroke:none;stroke-width:1px;stroke-linecap:butt;stroke-linejoin:miter;stroke-opacity:1"
       d="m 156.36039,364.37648 17.45418,85.8164 10.18161,17.45418 6.54532,0.72726 5.0908,-13.09064 12.36338,0.72726 13.8179,-15.99967 6.54532,-10.90886 -5.81806,-25.45402 14.54515,-15.27241 13.81789,-17.45418 -18.18144,-24.72676 -6.54532,-7.99984 -5.81806,-1.45451 -5.81806,16.72692 -18.9087,-33.45385 6.54532,43.63546 -18.9087,-14.54515 -7.99983,25.45401 -10.90886,-14.54515 z"
       id="path4165-6"
       inkscape:connector-curvature="0" />
    <path
       style="fill:#ffffff;fill-opacity:1;fill-rule:evenodd;stroke:none;stroke-width:1px;stroke-linecap:butt;stroke-linejoin:miter;stroke-opacity:1"
       d="m 525.80727,591.28086 -17.45418,18.18144 -7.99984,7.27258 0,5.0908 -6.54532,5.81807 -2.90903,6.54531 5.09081,7.99984 0,10.18161 15.99967,2.90903 39.27191,-4.36355 22.54498,-21.81773 3.63629,-16.72692 -9.45435,-15.27242 -12.36338,-6.54531 z"
       id="path4197"
       inkscape:connector-curvature="0" />
  </g>
  <g
     inkscape:label="Layer 1"
     inkscape:groupmode="layer"
     id="layer1"
     sodipodi:insensitive="true"
     style="display:inline"
     transform="translate(-98.109165,-208.37945)">
    <path
       style="fill:#000000"
       d="m 248.68435,665.78373 c -10.13662,-8.03269 -12.041,-21.12799 -23.2753,-5.95966 -15.22812,9.25049 -34.42931,-0.73992 -21.15263,-18.05013 0.24526,-29.62402 -5.27644,-59.12667 -9.83442,-88.3499 -7.5302,-42.78178 -22.41383,-83.79072 -28.86037,-126.7657 -1.70672,-9.42463 -1.04484,15.64473 -1.96768,19.29225 -0.0723,17.61351 1.04527,35.00448 -4.02465,53.76719 -6.77913,32.31391 -16.05315,65.45052 -7.96102,98.5374 6.78714,14.35919 8.20552,49.18227 27.07424,42.04539 34.48488,1.67302 -3.01523,35.75404 -19.07749,20.2712 -17.0074,-7.41215 -2.37272,-17.59318 2.51841,-20.19291 -24.73811,-36.18756 -24.06561,-83.2279 -12.80528,-124.00924 11.00871,-40.93175 5.57159,-83.72061 8.51757,-125.46602 -11.22314,-47.24251 -28.46601,-92.88695 -42.01003,-139.46808 9.76691,-7.84158 21.04585,-35.21621 35.62038,-21.60225 3.65483,22.01051 9.38962,45.91633 26.83756,61.34174 11.48318,4.88209 23.90049,12.67204 32.34762,3.3496 14.71185,15.11246 26.94701,37.26251 23.55114,58.92571 -10.26254,3.51857 -1.10912,-17.21349 -12.09162,-8.74694 -12.14559,-14.79724 -16.06928,-39.84647 -37.6447,-43.66618 -26.02329,-6.41623 -28.72226,-37.78287 -41.60773,-57.12183 -17.7176,-4.90133 2.78616,27.25803 4.00324,37.10063 8.44474,17.85434 -6.30994,11.91823 -7.57489,-1.73034 -1.44147,-8.60332 -16.42148,-43.88032 -13.35779,-18.07719 16.65701,55.86043 37.45597,110.68842 47.13469,168.40539 1.74209,11.96537 10.42733,32.22331 16.40248,36.28634 -0.99507,-13.56208 9.89106,-15.22037 18.47157,-10.00361 3.86947,-15.97376 24.21658,-16.94739 12.49558,-36.05512 -4.52015,-11.5154 -1.76642,-24.39067 7.03286,-25.74898 7.85488,-8.71885 18.11091,-18.5166 24.07615,-31.07043 10.33038,14.99375 6.75668,40.76387 14.00754,59.61325 11.53442,54.11601 28.27781,106.95498 44.58886,159.74522 1.89739,30.37437 31.68972,19.48423 51.59667,15.95487 45.82377,-7.26128 92.59391,-1.63686 138.48078,-8.29241 5.18038,-14.92296 28.84912,3.23106 42.67716,-3.02406 20.31548,-3.61017 47.40923,18.51975 35.01351,39.56388 -13.54839,30.06562 -50.74916,31.87555 -79.27901,31.1408 -41.42311,-2.82963 -82.8375,-6.96577 -123.97146,-12.68244 -26.3158,-3.77203 -53.82863,-9.94482 -80.0201,-2.48736 9.24877,18.49807 -19.2506,14.03397 -25.77893,16.05635 -3.59024,6.57104 -13.13486,11.79415 -20.15291,7.17357 z m 273.76787,-15.23071 c 22.86958,0.22144 54.93067,-14.51126 50.90095,-41.26694 -8.65087,-16.31949 -27.87802,-17.38724 -44.11331,-15.8394 -6.36055,3.65983 -11.29857,17.5156 -21.78823,19.98092 3.94103,11.88859 -25.97824,17.75932 -5.3649,24.67872 -9.73805,21.17093 6.80487,12.30436 20.36549,12.4467 z m -29.25613,-4.41715 c -1.75058,-7.46753 -12.99101,-17.70111 3.75,-26.1009 -27.6543,-3.15247 12.31158,-15.19158 20.41777,-21.56613 -8.25196,-7.79399 -35.3911,3.42631 -50.9012,1.47935 -44.2237,1.75502 -88.88969,-0.15635 -132.36113,9.72511 -27.60337,8.01495 -29.40935,-27.42865 -36.93425,-45.02876 -15.57228,-53.87391 -32.45077,-107.4606 -42.95448,-162.65256 -2.94335,-7.17987 -1.88359,-32.17355 -8.98713,-13.31964 -11.92029,10.16303 -26.48764,19.91185 -15.81562,37.70435 5.69732,18.30337 -13.19704,24.4456 -21.21205,36.55282 -16.68607,-12.86404 -7.55042,14.18406 -21.54773,12.33443 -11.22648,-11.25885 3.85038,20.52211 2.81655,27.49195 6.06521,23.86249 12.0112,47.77048 16.22982,72.01617 6.32273,2.91188 7.77015,13.99833 13.51266,6.98332 11.70473,-11.39613 -6.72389,-39.3065 -8.24406,-56.55362 1.41226,-13.6097 -19.38639,-37.82634 -6.54165,-42.2557 7.21961,19.95198 10.85701,41.54617 18.19006,61.65837 2.69251,11.86378 7.08867,42.72405 20.83244,28.41763 5.41517,-18.98615 -9.66195,-40.48708 -9.78046,-60.95463 -5.5039,-10.53457 2.60952,-20.85447 4.97386,-4.79954 4.50448,38.41368 18.09551,75.44556 18.00338,114.40762 0.54132,27.01326 25.03582,17.11104 42.75688,12.73688 41.0867,-7.10579 81.75556,7.9414 122.74886,9.72548 22.75338,1.2204 45.48917,6.2145 68.14018,6.12699 l 1.15913,-0.89291 1.74817,-3.23608 z M 226.50652,333.34778 c -1.82592,-7.22705 -10.28728,-25.08033 -6.99294,-6.63501 2.596,3.09725 9.91918,20.22127 6.99294,6.63501 z m 31.511,25.10285 c -4.11524,-10.03873 39.05733,-24.93451 10.12236,-17.60826 -15.90679,10.54206 -37.38169,-4.59078 -14.76606,-16.07494 9.74167,-6.87386 22.97985,-16.62338 3.22547,-10.84901 -9.40781,4.39087 -40.58312,7.83371 -16.38197,-3.15377 9.51314,-1.59408 49.61138,-14.77986 37.8999,4.01633 -7.55811,5.30629 -41.69699,27.30271 -13.53755,20.06861 8.73993,-3.82274 42.65803,-10.56685 23.58448,6.43771 -9.63546,3.78326 -21.38485,18.12328 -30.14663,17.16333 z"
       id="path3347-3"
       inkscape:connector-curvature="0"
       sodipodi:nodetypes="ccccccccccccccccccccccccccccccccccccccccccccccccccccccccccccccccccccccccccccccccccccccc" />
  </g>
</svg>
