<svg id="svg2" xmlns="http://www.w3.org/2000/svg" xmlns:xlink="http://www.w3.org/1999/xlink" viewBox="0 0 610.94 394.87"><defs><style>.cls-1{opacity:0.95;}.cls-2{fill:#5b2f1f;}.cls-3{filter:url(#filter5293);}.cls-4{fill:#f5c59a;}.cls-5{filter:url(#filter4883-9);}.cls-6{fill:#e09e82;}.cls-7{filter:url(#filter5206);}.cls-8{fill:#cd8560;}.cls-9{opacity:0.94;filter:url(#filter4367);}.cls-11,.cls-18,.cls-22,.cls-9{isolation:isolate;}.cls-10{fill:#e6e6e6;}.cls-11{opacity:0.66;filter:url(#filter4947);}.cls-12{fill:url(#linear-gradient);}.cls-13{filter:url(#filter4635-4);}.cls-14{fill:url(#radial-gradient);}.cls-15{fill:#833a19;}.cls-16{filter:url(#filter4639-9);}.cls-17{fill:url(#radial-gradient-2);}.cls-18{opacity:0.7;filter:url(#filter3916-5-1);}.cls-19{fill:url(#linear-gradient-2);}.cls-20{filter:url(#filter4929);}.cls-21{fill:#92603a;}.cls-22{opacity:0.97;filter:url(#filter5065);}.cls-23{fill:#8b5a37;}.cls-24{filter:url(#filter3829-8);}.cls-25{fill:#8e4a30;}.cls-26{filter:url(#filter4987);}.cls-27{fill:#77412a;}.cls-28{filter:url(#filter5169);}.cls-29{fill:#c28562;}.cls-30{filter:url(#filter5001);}.cls-31{fill:#76422c;}.cls-32{filter:url(#filter5045);}</style><filter id="filter5293" name="filter5293"><feGaussianBlur result="feGaussianBlur5295" stdDeviation="1.97"/></filter><filter id="filter4883-9" x="-0.38" y="-0.26" width="1.76" height="1.53" name="filter4883-9"><feGaussianBlur result="feGaussianBlur4885-9" stdDeviation="7.32"/></filter><filter id="filter5206" name="filter5206"><feGaussianBlur result="feGaussianBlur5208" stdDeviation="0.44"/></filter><filter id="filter4367" name="filter4367"><feGaussianBlur result="feGaussianBlur4369" stdDeviation="3.27"/></filter><filter id="filter4947" name="filter4947"><feGaussianBlur result="feGaussianBlur4949" stdDeviation="0.6"/></filter><linearGradient id="linear-gradient" x1="120.65" y1="258.96" x2="147.24" y2="250.75" gradientTransform="matrix(1, 0, 0, -1, -74.21, 368.85)" gradientUnits="userSpaceOnUse"><stop offset="0" stop-color="#e1b5b5"/><stop offset="1" stop-color="#d08a8a"/></linearGradient><filter id="filter4635-4" name="filter4635-4"><feGaussianBlur result="feGaussianBlur4637-6" stdDeviation="0.11"/></filter><radialGradient id="radial-gradient" cx="234.08" cy="5.66" r="4.23" gradientTransform="matrix(0.21, 0.63, 0.64, -0.21, -3.4, -24.67)" gradientUnits="userSpaceOnUse"><stop offset="0" stop-color="#fdffff"/><stop offset="1" stop-color="#b34f1e"/></radialGradient><filter id="filter4639-9" name="filter4639-9"><feGaussianBlur result="feGaussianBlur4641-3" stdDeviation="0.13"/></filter><radialGradient id="radial-gradient-2" cx="250.92" cy="-7.22" r="4.23" gradientTransform="matrix(0.22, 0.56, 0.59, -0.19, -28.5, -17.08)" xlink:href="#radial-gradient"/><filter id="filter3916-5-1" name="filter3916-5-1"><feGaussianBlur result="feGaussianBlur3918-0-1" stdDeviation="0.27"/></filter><linearGradient id="linear-gradient-2" x1="135.04" y1="260.22" x2="161.63" y2="252.01" gradientTransform="translate(167.96 367.81) rotate(180)" gradientUnits="userSpaceOnUse"><stop offset="0" stop-color="#e6c8c8"/><stop offset="1" stop-color="#d49e9e"/></linearGradient><filter id="filter4929" x="-0.12" y="-0.13" width="1.24" height="1.26" name="filter4929"><feGaussianBlur result="feGaussianBlur4931" stdDeviation="5.59"/></filter><filter id="filter5065" name="filter5065"><feGaussianBlur result="feGaussianBlur5067" stdDeviation="2.06"/></filter><filter id="filter3829-8" name="filter3829-8"><feGaussianBlur result="fbSourceGraphic" stdDeviation="3.89"/><feTurbulence result="result91" baseFrequency="0.04" numOctaves="3"/><feDisplacementMap result="feDisplacementMap3837-6" scale="6.6" xChannelSelector="R" yChannelSelector="G" in="fbSourceGraphic" in2="result91"/></filter><filter id="filter4987" x="-0.09" y="-0.1" width="1.17" height="1.21" name="filter4987"><feGaussianBlur result="feGaussianBlur4989" stdDeviation="3.38"/></filter><filter id="filter5169" name="filter5169"><feGaussianBlur result="feGaussianBlur5171" stdDeviation="2.16"/></filter><filter id="filter5001" x="-0.13" y="-0.08" width="1.26" height="1.16" name="filter5001"><feGaussianBlur result="feGaussianBlur5003" stdDeviation="4.55"/></filter><filter id="filter5045" name="filter5045"><feGaussianBlur result="feGaussianBlur5047" stdDeviation="0.77"/></filter></defs><title>monkey 10</title><g id="layer1" class="cls-1"><g id="g5236"><g id="g4371"><path id="path3187-2" class="cls-2" d="M282.17,12.35c-33,4-50.13,16-71.75,25.67S172.56,58.22,158,71.22c-13.57-5.57-27.11,18.55-40.87,7-17-3.28-43-24.65-63.84-12.49C35,77.59,23.28,92.86,14,111.86c-5.7,4.55,1.89,26.17.43,32.08-1.9,7.73-8.8,41.44,21.51,41.86,18.67-5.45,30.65,14.39,50,4.34,11.52-20.7,21.31.3,23.62,8.23,2.62,12,6,42.53.59,60.36-9.9,24.78-27.34,48.11-56.49,44.07C40.9,302,5.26,334.63,35.05,326.65c7.49-3.94,12.13-5.81,17.45-6.27,10.81-.95,9.73,2.69,30.17.49,5.32-.57-25,20.22-35.39,14.1-16-4.67-44.62,20.32-35.13,27,25.32-22.83,19.9-11.72,9.59,2.57-8.26,2.27-9.52,29.14,3,7.88,4.73-10.3,33.2-34.23,6.55-3.4-1.41,8.37-2.41,19.27-.16,18.13,3.44-1.75,10.64-19,13.9-22.53,2.62,5-8.34,26.93-2.11,22.63,1-.7,4.22-9.36,6.16-11.16C53.3,353.62,82,367.14,97,355.66c23.16-8.55,42.18-20,58.91-38.48,19.83-14.71,29.68-37.54,43.48-57.35,5.39-15.49-2.61-32.26-3.77-48-7.69-22.81,24.47-3.36,35.31-17.51,15.67-2.61,29.85-10.72,40.61-21,13.13-6,27.9-15.34,38.25-25.94-.91,24.6,4,46.41,8.18,70.4,4.49,25.46,20.14,52.16,37.09,73-6,7.21-48.52,13.78-56.94,17.74-22.31,7-26.81,7.56-43.72,24.77-3.79,4.34,4,0,7.56,2.18,1,.58-2.4,5.8-1.25,6.33,2.4,1.1,2-.39,5.25-.24,1.23.06.23,2.62,1.59,2.6s3.93-3.5,4.13-2c.28,2-3.33,7.39.49,7.54,4.95.19,9.45-11.73,17.52-15.94-14.77,26.31,23.58-2.69,37.71.89,27.48-7.1,79-12,81.65-41.48,9.18,4.87,16.55,11.19,31.29,2,20.64-7.63,12.78-3.33,24.13-17.23,13-19.4,25.07-42.16,28-65.11-8.14-19.34-41-25.37-45.75-43.06-10.5-12.26-7-32.36,5.47-46.89,6.85-10.07,8.6-28,16.58-34.21,18.58,12.8,36.41,26.1,50.91,43.08,20.09,15.73,26.9,41.62,35.84,64.35,8.5,28.46,14.41,71.89-6.6,97-23,19.92-42.47-33.15-13-37.77,35.6-10.22-3.61-41.4-23.36-21.57-26.44,12.8-22.91,37.41-14.85,61.82,6.57,15.82,22.66,26.6,35.48,29.87s23.77.92,38.24-5.78,20.41-13.15,29.36-47.13-2.46-99.66-24.24-145.23c-19.78-40.68-61.34-69.91-101.3-89.69-20-10.51-44.67-23-66.77-28-43.18-5-93.26-1-126.29,2.94ZM393.35,210.63c12.32,19.25,42.29,10.87,54.35,24.56-2.2,16.81-3.55,41.06-39.91,48.94-3,.64-2.82-8.8-4.5-13.25-1.37-20.83-13.37-41.12-14.72-62.64Z"/><g class="cls-3"><path class="cls-4" d="M24.15,94.26A140.42,140.42,0,0,0,14,111.89c-5.7,4.55,1.89,26.19.44,32.09-1.91,7.73-8.81,41.43,21.5,41.84,18.66-5.45,27.05,9,32.32,5.54-18-11.13,6.23-20.19,15.32-27.79,5-4.23,12.32-11.72,13-21.93s-3.81-19.86-14-33-13.79-8.37-23.59-11-34.77-3.29-34.77-3.29Z"/></g><g class="cls-5"><path class="cls-6" d="M42,132.23l1.06,9.5L51.69,151l8,4.44L68,161.58l5.49,3.8s8-4,12.25-15.2.21-31.46-5.28-37.38S67.74,99.08,63.1,98.66s-8.45,4.43-8.45,4.43-12.46,6.13-13.3,15.84.63,13.3.63,13.3Z"/></g><g class="cls-7"><path class="cls-8" d="M16.21,123.06s2.31-3.73,5.52-3.88,3.81-.45,5.53.89,2.83,2.09,1.86,4.71-3.36,5.67-4.7,5.75-5.67-1.27-6.72-3.29-1.57-2.16-1.49-4.18Z"/></g><g class="cls-9"><path class="cls-10" d="M20.63,99.19s6.56-10.72,8-12.66c2.14-3,7-6.83,7-6.83s6.77-1.45,8.14-1.65c4.1-2.22,20.21-1.29,36.74,6.42a85.06,85.06,0,0,0,13-5.88,26,26,0,0,1,14.07-3.8c3.92,0,5,1.33,9.4,3.39,3.61,1.68,5.78,4.33,15.42,1.06,5.83-2,7.76-6.18,12.81-6.69,2.45-.25,9.82-3.88,12.72-1.4,6.53,5.58,3.71,1.77,3.71,1.77l1.79,1.79L161.92,79l3.57,4.64-8.93,5.72,10.72,4.28-2.5,2.5,1.78,6.79-8.21-2.14,11.07,6.78-2.14,4.65-6.79-5,5.71,8.21-8.57-2.14-.35,8.21-2.5,1.43,5.35,3.57-2.85,5,7.14,14.29-7.5-5.72,3.93,12.5L163,162.92l-1.43,5.36-9.28-10,6.42,12.85s8.14,13.39,3.56,27.48c-1.53,4.71-10.89,37.69-14.73,44.9-2.8,5.26-7.12,15.85-22.55,9.15-5.88-2.56-9.48-8-12.25-11.14-2-2.25.31-24.66-1.24-26.85-1.31-10-.43-14.29-7.37-26.91-3.54-5.64-5.46-7.33-8.18-6.44-7.14,7.5-5.4,9.87-18.57,11.37-7.45.84-24.85-3-19.13-9.44S62.68,169,69.47,166.47s11.4-9.49,17.47-15.92S90,136.3,89.67,131.3s-8.47-21.24-17.4-26.24-17.54-6-27.54-6.36-20.17-2-24.1.49Z"/></g><g class="cls-11"><path class="cls-12" d="M39,111.86s4-4.7,7.69-5.45a20.23,20.23,0,0,1,7.84-.37c3.13.3,7.17,2.31,8.66,3.95s4.27,4.09,5.82,6.35A18.14,18.14,0,0,1,71.73,124c.24,2.27-8.13-9.85-14-10.9a50.48,50.48,0,0,0-16.72.3c-3,.75-2.09-1.49-2.09-1.49Z"/></g><g class="cls-13"><path id="path3023-7" class="cls-14" d="M54.9,122.51A4.58,4.58,0,1,1,50.32,118,4.56,4.56,0,0,1,54.9,122.51Z"/><path id="path3021-1" class="cls-15" d="M51.05,122.48a1.34,1.34,0,1,1-1.33-1.17A1.26,1.26,0,0,1,51.05,122.48Z"/></g><g class="cls-16"><path id="path3023-6-7" class="cls-17" d="M27.65,124.54a4,4,0,0,1-4.15,4,4.37,4.37,0,0,1-4.47-4,4,4,0,0,1,4.15-4A4.38,4.38,0,0,1,27.65,124.54Z"/><path id="path3021-4-8" class="cls-15" d="M24,124.52a1.1,1.1,0,0,1-1.21,1,1.22,1.22,0,0,1-1.29-1,1.1,1.1,0,0,1,1.21-1A1.21,1.21,0,0,1,24,124.52Z"/></g><g class="cls-18"><path class="cls-19" d="M33.5,109.45s1.29-3.08-2.83-3.44S20,106.9,16.6,109s-1.74.92-3.29,3.17c-3.91,8.64,5.12.54,8.66-.11a16.06,16.06,0,0,1,8.17.08c3,.75,3.36-2.65,3.36-2.65Z"/></g><g class="cls-20"><polygon class="cls-21" points="65.42 354.16 105.96 322.91 142.7 275.61 152.41 255.34 179.44 258.72 164.24 291.66 135.52 318.26 98.36 345.29 65.42 354.16"/></g><g class="cls-22"><path class="cls-23" d="M189.57,158.39s-5.91,37,14.36,42,27.24-4,27.24-4l23.38-10.61L272,173.44l25.56-14.33a338.57,338.57,0,0,1-41.21,2.66c-12.73,0-27-12.75-39.68-12.37-9.18.27-16.4,15.38-27.05,9Z"/></g></g><g class="cls-24"><path class="cls-25" d="M487.86,50s31.25,8,55.74,41.38,26.19,32.52,38,60,16,52.37,16.89,65.46S593.44,185.6,583.3,170s-11.82-31.67-32.94-53.63-43.07-49.41-59.12-55.75S487.86,50,487.86,50Z"/></g><g class="cls-26"><path class="cls-27" d="M312.44,145s44.79-46.58,51.36-65.7,28.05-10.55,21.51,6.67c-5.82,15.3-25.69,53.06-42.41,59a44.59,44.59,0,0,1-30.46,0Z"/></g><g class="cls-28"><path class="cls-29" d="M32.06,113.66s.42,10.35-3.17,15.2-10.56,15.63-10.56,15.63l-4,7.81s-1.48,5.7,0,4.22S19,152.09,19,152.09l.63,3.38,3,3.59h4.85L24,155.68l1.69-5.28,4.86-2.11,3.8.21v-3.17l5.07,4,4.43,2.12,2.75,3.8-2.75,1.05-5.49,1.27A10.42,10.42,0,0,0,35,161.17c-1.27,2.32-2.54,5.7-.22,7.39s12,.84,13.73-.21,6.12-3.59,6.12-3.59-1.26,7.39-4.22,8.87-8.87,2.32-10.14,1.69,7.18,1.69,7.61,2.53,2.74,3.59,5.91.21,1.69-7,7.39-10.35,8.87-5.06,8.87-5.06-7.6-9.08-12.25-10.56-8.66-2.32-12.88-8-2.32-15.83-2.32-15.83,1.26,3.17-2.75-.85-2.74-9.92-2.74-9.92Z"/></g><g class="cls-30"><path class="cls-31" d="M391,191.56,426.08,154s11,11.41,14.78,16.9S456.07,189,456.07,189l21.11,18.58s4.65,5.49,3.8,16.47-14.78,34.63-14.78,34.63l-11,23.65-9.29,8.44-12.25.42L431.57,287l6.76-11,16.89-22.8L462,233.79l-4.23-14.36s-16,.42-28.29-5.07-19-3-28.72-12.67S391,191.56,391,191.56Z"/></g><g class="cls-32"><path class="cls-27" d="M384.69,200.46s2.53-12.67,16.89-33.79,25.34-16,42.23-37.16a120.09,120.09,0,0,0,22-43.07l-15.2,24.49s-7.6,12.67-13.51,17.74-18.59,11-25.34,18.58-29.14,37.58-27,53.21Z"/></g></g></g></svg>