<svg id="Layer_1" data-name="Layer 1" xmlns="http://www.w3.org/2000/svg" viewBox="0 0 789.25 1000"><defs><style>.cls-1{fill:#63300f;}.cls-2,.cls-4{fill:none;}.cls-2{stroke:#63300f;stroke-miterlimit:10;stroke-width:2.67px;}.cls-3{fill:#be894a;}.cls-5{fill:#a0642f;}.cls-6{fill:#26120b;}.cls-7{fill:#fff;}.cls-8{fill:#c2000b;}</style></defs><title>monkey 14</title><path class="cls-1" d="M417.62,637.19c0,2.67,2.66,2.67,2.66,5.34l-2.66,2.66c-2.67,0-5.33,0-8-2.66C391,589.22,399,530.58,428.28,479.94c5.33-5.33,8-10.66,13.33-18.65,26.65-34.65,69.29-53.31,111.94-48C588.2,416,620.18,432,654.83,426.64c48-10.66,80-48,95.95-90.62l8-24c8-32,5.33-64,2.66-95.95,8,0,10.66,10.66,13.33,16,10.66,40,2.66,80-10.66,117.27-21.33,58.64-77.3,109.28-143.93,96-37.31-8-69.3-16-106.61-8a129.81,129.81,0,0,1-18.66,8c-69.3,34.65-88,119.94-77.29,191.9Z"/><path class="cls-2" d="M417.62,637.19c0,2.67,2.66,2.67,2.66,5.34l-2.66,2.66c-2.67,0-5.33,0-8-2.66C391,589.22,399,530.58,428.28,479.94c5.33-5.33,8-10.66,13.33-18.65,26.65-34.65,69.29-53.31,111.94-48C588.2,416,620.18,432,654.83,426.64c48-10.66,80-48,95.95-90.62l8-24c8-32,5.33-64,2.66-95.95,8,0,10.66,10.66,13.33,16,10.66,40,2.66,80-10.66,117.27-21.33,58.64-77.3,109.28-143.93,96-37.31-8-69.3-16-106.61-8a129.81,129.81,0,0,1-18.66,8c-69.3,34.65-88,119.94-77.29,191.9Z"/><path class="cls-3" d="M253.29,888.61c-29.11,3.68-61.29,12.92-88.5,20.6-39.74,12.54-51.8,32.86-1.62,32.61-12.76,26-1.4,30.7,31.5,35-9.68,20.48,21.56,18.87,39.06,12.42,20.11-8.18,32.17-28.49,43.51-43.08,14.66-22,34-63-19-59.11"/><path class="cls-3" d="M251.52,882.18c-24,3.26-47.42,9.2-70.73,15.61-16.52,4.55-34.06,8.81-48,19.28-6.84,5.12-11.67,12.39-7.65,20.8,5.53,11.57,28.1,10.53,38,10.61l-5.76-10c-4.49,9.62-9.33,21.32-2.58,31.08,7.72,11.17,26.09,12.08,38.08,13.7q-2.34-4.1-4.66-8.2c-8.66,21.47,14.6,26.78,31,24.47,27.92-3.92,43.83-23.08,59.72-44.63,10.44-14.14,21.38-31.68,20.78-50-.72-21.78-24.25-25.47-41.47-24.55-8.55.46-8.59,13.79,0,13.33,12.22-.65,28.74-.73,28.13,15.17-.44,11.34-7.84,22.87-13.73,32.14-9.21,14.48-20.91,29.84-35.51,39.11-6.51,4.13-42.3,14-36.05-1.54,1.24-3.06-1.32-7.75-4.65-8.2-8.66-1.17-17.33-2.35-25.63-5.19-9.87-3.38-5.11-13.12-1.9-20,2.1-4.49-.36-10-5.75-10-3.75,0-26.87-2.3-26.35-3.44,3.67-7.94,18.77-12.26,26-14.84,29.29-10.48,61.47-17.66,92.25-21.84,8.48-1.15,4.86-14-3.54-12.85Z"/><path class="cls-3" d="M505.6,862.8c29.25-2.28,62.63.26,90.83,2.27,41.47,4.24,57.38,21.69,8.2,31.6,17.76,22.92,7.58,29.79-23.78,40.64,13.63,18.1-17.28,22.85-35.73,20.08C523.77,953.45,507.85,936,493.79,924c-18.81-18.63-46.07-54.82,6.63-61.74"/><path class="cls-3" d="M505.6,869.47c30.3-2.09,60.6.1,90.83,2.26,10,.71,21.25,2.95,30,8.06,5.82,3.41-19.7,9.62-23.57,10.46s-6.5,6.4-4,9.79c3.27,4.4,10.9,12.75,6.27,18.35-5.76,7-18,9.66-26.06,12.5-3.84,1.35-6.5,6-4,9.79,8.6,13-25.37,10.93-32.15,9.39-17.54-4-33.7-20-46-32.36-7.61-7.64-15.1-16.44-19-26.61-6.34-16.39,11.82-20.5,24.3-22.4,8.47-1.3,4.86-14.14-3.54-12.85-17.39,2.65-38.8,11.16-35.14,32.64,3.08,18.06,17.8,33.27,30.94,45,20.28,18,39.75,33.13,68.2,31,16.91-1.26,36.34-11.78,24-30.5l-4,9.79c11-3.85,27.76-8.08,34.29-18.86,6.73-11.11.38-22.28-6.53-31.57l-4,9.78c10.91-2.35,29.57-5.46,34.45-17.57,3.65-9-4.43-15.8-11.7-19.38-15.54-7.68-34.23-7.88-51.13-9-24.11-1.63-48.28-2.64-72.42-1-8.52.59-8.58,13.92,0,13.33Z"/><path class="cls-3" d="M204.08,604.72c3.44,1.07,4.5,5.93,2.38,10.85h0c-2.13,4.91-6.64,8-10.07,6.95l-41-12.85c-3.43-1.08-4.5-5.94-2.37-10.85h0c2.12-4.92,6.63-8,10.06-7Z"/><path class="cls-1" d="M137.58,459.29c-4.15,8-.18,17.33,8.85,20.76l2.51,1c9,3.43,19.71-.3,23.86-8.33l65.47-126.75c4.15-8,.19-17.33-8.84-20.76l-2.51-.95c-9-3.44-19.72.29-23.87,8.32Z"/><path class="cls-1" d="M104.21,603.61c-1.8,8.63,4.67,16.72,14.44,18.07l2.72.37c9.78,1.35,19.16-4.55,21-13.18L170.7,472.69c1.79-8.63-4.67-16.72-14.45-18.07l-2.72-.38c-9.77-1.34-19.15,4.56-20.95,13.19Z"/><path class="cls-3" d="M70.59,675.13a11.81,11.81,0,0,1-14.94,2.73h0c-4.88-2.85-6.09-8.7-2.72-13.06l40.33-52.09A11.84,11.84,0,0,1,108.21,610h0c4.88,2.86,6.09,8.71,2.71,13.07Z"/><path class="cls-3" d="M142.6,696.35c-.53,5.21-5.76,9.15-11.67,8.82h0c-5.9-.33-10.26-4.82-9.72-10l6.4-62.11c.54-5.2,5.76-9.15,11.67-8.82h0c5.91.34,10.26,4.82,9.73,10Z"/><path class="cls-3" d="M105.41,693.8c-1.68,5-7.65,8-13.34,6.7h0C86.38,699.16,83.12,694,84.8,689l20-60.14c1.68-5,7.65-8,13.34-6.7h0c5.69,1.34,8.94,6.51,7.27,11.55Z"/><path class="cls-3" d="M191.46,680.93c1.61,5-1.71,10.27-7.41,11.83h0c-5.71,1.55-11.65-1.22-13.26-6.2l-19.28-59.41c-1.62-5,1.7-10.27,7.4-11.82h0c5.71-1.56,11.65,1.22,13.26,6.2Z"/><path class="cls-3" d="M169.62,616.79c-3.53,20.06-24.59,34.26-47,31.72S84.79,627.66,88.33,607.6s24.6-34.26,47-31.72S173.16,596.74,169.62,616.79Z"/><path class="cls-1" d="M220.45,769c-2.38,9.33,7.84,16.19,22.84,15.32l4.16-.25c15-.87,29.08-9.15,31.46-18.48l37.6-147.25c2.39-9.33-7.84-16.19-22.83-15.31l-4.16.24c-15,.87-29.08,9.15-31.47,18.48Z"/><path class="cls-1" d="M238.64,918.15c1.38,8.83,14.75,13.43,29.87,10.29l4.2-.88c15.12-3.14,26.26-12.85,24.87-21.68L275.79,766.56c-1.38-8.83-14.75-13.44-29.87-10.29l-4.2.87c-15.12,3.15-26.26,12.85-24.88,21.68Z"/><path class="cls-1" d="M512.27,738.8c4.06,8.67-4.12,17.41-18.27,19.51l-3.93.59c-14.16,2.1-28.93-3.22-33-11.89L392.91,610.16c-4.07-8.67,4.11-17.41,18.27-19.52l3.93-.58c14.16-2.11,28.93,3.22,33,11.89Z"/><path class="cls-1" d="M524.78,888.51c.46,8.92-11.1,16.08-25.82,16l-4.09,0c-14.72-.09-27-7.4-27.48-16.33l-7.21-140.81c-.46-8.93,11.1-16.09,25.82-16l4.09,0c14.72.1,27,7.41,27.48,16.33Z"/><path class="cls-3" d="M483.19,570.71c-3.22,1.64-3.52,6.61-.65,11.1h0c2.86,4.5,7.8,6.82,11,5.18L532,567.46c3.22-1.63,3.51-6.6.65-11.1h0c-2.87-4.5-7.8-6.82-11-5.18Z"/><path class="cls-1" d="M526.13,416.09c5.34,7.24,2.89,17.07-5.49,22l-2.33,1.36c-8.38,4.9-19.5,3-24.85-4.23L409.08,321c-5.35-7.24-2.89-17.07,5.49-22l2.32-1.36c8.38-4.89,19.51-3,24.86,4.24Z"/><path class="cls-1" d="M581.58,552.94c3.12,8.22-2,17.28-11.43,20.25l-2.62.82c-9.44,3-19.62-1.3-22.74-9.51L495.55,434.84c-3.12-8.22,2-17.29,11.43-20.25l2.62-.82c9.44-3,19.62,1.29,22.74,9.51Z"/><path class="cls-3" d="M625.91,617.91a11.81,11.81,0,0,0,15.18.21h0c4.37-3.63,4.65-9.61.64-13.35l-47.92-44.68a11.8,11.8,0,0,0-15.18-.2h0c-4.37,3.63-4.65,9.6-.64,13.35Z"/><path class="cls-3" d="M558.16,650.88c1.34,5,7.11,8.07,12.89,6.75h0c5.78-1.31,9.38-6.47,8-11.51l-16-60.23c-1.34-5-7.11-8.06-12.89-6.75h0c-5.78,1.31-9.38,6.47-8,11.51Z"/><path class="cls-3" d="M594.47,642.15c2.44,4.69,8.8,6.66,14.21,4.38h0c5.4-2.27,7.81-7.91,5.37-12.61l-29.14-56c-2.44-4.69-8.81-6.66-14.21-4.38h0c-5.41,2.27-7.81,7.91-5.37,12.61Z"/><path class="cls-3" d="M507.54,643.82c-.82,5.18,3.28,9.85,9.16,10.43h0c5.87.58,11.3-3.15,12.12-8.33l9.76-61.85c.82-5.18-3.29-9.85-9.16-10.43h0c-5.87-.58-11.3,3.15-12.12,8.33Z"/><path class="cls-3" d="M519.08,576.87c6.62,19.2,29.62,29.71,51.38,23.45s34-26.88,27.42-46.09-29.62-29.7-51.38-23.45S512.46,557.67,519.08,576.87Z"/><path class="cls-1" d="M479.2,438.85C523.35,591.78,433.31,628,353.68,636.17c-151.06,15.45-153.06-71.95-162.86-167.83C180.5,367.5,236.7,279.16,316.33,271S450.93,340.93,479.2,438.85Z"/><path class="cls-1" d="M479.55,170.23a152.5,152.5,0,0,1-7.91,66.36A156.55,156.55,0,0,1,463.28,256c-24,46.94-71.3,82.43-129.19,91.91q-5.62.92-11.37,1.51t-11.44.82c-57.36,2.38-109.83-21.68-143-61.24a158.18,158.18,0,0,1-14.27-20A152.7,152.7,0,0,1,137.39,150.2a158.1,158.1,0,0,1,18.25-41.86c27.28-44.06,76-75.93,134.05-81.87s112.2,15.42,147.84,53a158.08,158.08,0,0,1,26.34,37.3A151.8,151.8,0,0,1,479.55,170.23Z"/><path class="cls-4" d="M311.83,221.36a92.52,92.52,0,0,1-13.07,24.39A92.71,92.71,0,0,1,316.5,267a92.36,92.36,0,0,1,13.07-24.39A92.45,92.45,0,0,1,311.83,221.36Z"/><path class="cls-3" d="M455.65,161.38a106.66,106.66,0,0,0-5.17-23.72,97.13,97.13,0,0,0-24-38.48C410.32,83.57,389.21,75,367,77.28c-29.77,3-53.74,24.82-64.36,54.47-16.42-26.89-44.3-43.36-74.06-40.31-22.17,2.26-41.12,14.91-53.75,33.47a97.08,97.08,0,0,0-15.75,42.54,106.86,106.86,0,0,0-.26,24.28c2.73,26.72,15,49.78,32.27,65a93.64,93.64,0,0,0-15.3,31.51,166.78,166.78,0,0,0,136.72,61.88c3.62-.14,7.25-.4,10.91-.77s7.26-.86,10.84-1.46a166.7,166.7,0,0,0,122.85-91.26,93.12,93.12,0,0,0-19.94-25.06C451.08,213.16,458.38,188.1,455.65,161.38ZM316.49,267c-.56-.92-1.14-1.83-1.73-2.73a95.06,95.06,0,0,0-6.45-8.7q-2.79-3.31-5.82-6.33L301.26,248c-.82-.78-1.66-1.54-2.51-2.29.68-.9,1.35-1.82,2-2.75.32-.47.63-.95,1-1.42q2.35-3.56,4.41-7.38a95.74,95.74,0,0,0,5.71-12.84,92.67,92.67,0,0,0,17.73,21.24q-1.53,2-2.95,4.16c-.95,1.43-1.86,2.88-2.72,4.37-.29.49-.58,1-.86,1.49a90,90,0,0,0-4.6,9.41h0c-.23.52-.44,1-.66,1.56l-.66,1.71Z"/><ellipse class="cls-3" cx="303.16" cy="219.49" rx="59.02" ry="46.03" transform="translate(-20.75 31.97) rotate(-5.84)"/><ellipse class="cls-1" cx="121.37" cy="206.86" rx="38.8" ry="76.47" transform="translate(-20.41 13.42) rotate(-5.84)"/><ellipse class="cls-1" cx="241.61" cy="197.78" rx="38.8" ry="76.47" transform="translate(-18.86 25.6) rotate(-5.84)"/><ellipse class="cls-5" cx="254.45" cy="196.47" rx="25.9" ry="48.3" transform="translate(-18.66 26.9) rotate(-5.84)"/><ellipse class="cls-6" cx="259.64" cy="195.94" rx="18.12" ry="31.53" transform="translate(-18.58 27.42) rotate(-5.84)"/><ellipse class="cls-1" cx="369.34" cy="184.73" rx="38.8" ry="76.47" transform="translate(-16.87 38.52) rotate(-5.84)"/><ellipse class="cls-5" cx="356.18" cy="182.85" rx="25.9" ry="48.3" transform="translate(-16.75 37.17) rotate(-5.84)"/><ellipse class="cls-1" cx="494.67" cy="161.74" rx="38.8" ry="76.47" transform="translate(-13.88 51.15) rotate(-5.84)"/><ellipse class="cls-5" cx="494.67" cy="161.74" rx="27.09" ry="54.92" transform="translate(-13.88 51.15) rotate(-5.84)"/><ellipse class="cls-5" cx="121.37" cy="206.86" rx="27.09" ry="54.92" transform="translate(-20.41 13.42) rotate(-5.84)"/><ellipse class="cls-6" cx="350.98" cy="183.38" rx="18.12" ry="31.53" transform="translate(-16.83 36.65) rotate(-5.84)"/><ellipse class="cls-7" cx="257.79" cy="177.86" rx="6.59" ry="8.72" transform="translate(-16.75 27.14) rotate(-5.84)"/><ellipse class="cls-7" cx="349.26" cy="166.54" rx="6.59" ry="8.72" transform="translate(-15.13 36.38) rotate(-5.84)"/><path class="cls-1" d="M264.79,78.16c7.58-19.74,4.9-36.22-17.51-47.61-.54-1.16-1-2.31-1.37-3.41l-4.86-13.22,11.74,10.92c1,.92,2,1.87,3.18,2.82,24.8,8.86,47.23,19.92,39.86,39.74-1.72,2.89-16.76,6.16-25.71,9Z"/><path class="cls-1" d="M283.09,80.15c9.2-20,9.26-38.16-8-54.3-.29-1.33-.49-2.64-.68-3.91-1.3-8.83-2.23-15.07-2.23-15.07l8.38,13.79c.7,1.16,1.43,2.36,2.28,3.58,19.7,13.81,37.07,29.6,28,49.67-1.86,2.82-15,3.75-23,5.25Z"/><path class="cls-1" d="M264.63,68.21c30.78-17.73,44.82-35.57,28-54.84a43.53,43.53,0,0,1,1.84-4C299,.48,302.21-5.82,302.21-5.82s1.48,6.28,3.57,15.19a34.19,34.19,0,0,0,1.11,4c22.66,17.47,39.89,36.4,9.3,54.29-5.29,2.39-28.21.67-42.79.55Z"/><path class="cls-3" d="M404.29,258c10.11,20.73,24.38,33.16,47.54,30.65,1.23.67,2.38,1.42,3.48,2.13l13.2,8.51-15.91-2.86c-1.33-.24-2.72-.49-4.19-.65-22.78,5.94-45.7,8.74-56-11.94-1.09-3.36,6.15-14.24,9.79-21.46Z"/><path class="cls-3" d="M385.17,266.88c10.11,20.73,24.38,33.16,47.54,30.65,1.23.68,2.38,1.42,3.48,2.13l13.2,8.51-15.91-2.85c-1.33-.24-2.72-.49-4.19-.66-22.78,5.95-45.7,8.75-56-11.93-1.09-3.36,6.15-14.25,9.79-21.47Z"/><path class="cls-3" d="M402.69,265.09c-4.74,24.54,0,41.78,23.2,46.32a36.19,36.19,0,0,1,1.78,3.27l6.43,12.86-12.8-7.85c-1.07-.66-2.18-1.34-3.44-2-25.17-.86-48.33-5-43.8-29.57,1.28-3.81,15.41-12.84,23.71-19.18Z"/><path class="cls-3" d="M242.69,287.13c-7.77,21.85-20.57,36-43.84,36.38-1.15.82-2.21,1.71-3.23,2.55l-12.16,10.1,15.48-4.82c1.29-.41,2.64-.83,4.09-1.18,23.27,3.06,46.34,3,54.31-18.86.71-3.47-7.68-13.37-12.09-20.09Z"/><path class="cls-3" d="M262.65,293.55c-7.76,21.85-20.56,36-43.84,36.38-1.14.83-2.2,1.71-3.22,2.55l-12.16,10.1,15.47-4.82c1.3-.41,2.65-.83,4.1-1.18,23.27,3.06,46.34,3,54.3-18.85.71-3.48-7.68-13.38-12.09-20.1Z"/><path class="cls-3" d="M245.05,294c7.41,23.78,4.58,41.49-17.94,48.9a37.15,37.15,0,0,0-1.41,3.47l-5,13.57,11.85-9.39c1-.79,2-1.61,3.2-2.39,24.9-4,47.44-11,40.25-34.85-1.7-3.62-16.72-10.81-25.66-16.08Z"/><path class="cls-8" d="M378.47,281.65c1.43,14-5,27.34-16.41,37.38-10.26,9-24.55,15.35-40.77,17s-31.51-1.65-43.38-8.41c-13.2-7.52-22.2-19.31-23.63-33.28a37.48,37.48,0,0,1,.16-9.05c0-.25.07-.5.11-.75,15.74,11,38,16.67,62,14.22,24.8-2.54,46.06-13.23,59.16-27.9.3.73.58,1.45.83,2.2A37.45,37.45,0,0,1,378.47,281.65Z"/><path class="cls-7" d="M376.57,273.08c-1.47,10.6-7.34,20.46-16.25,28.29-10.26,9-24.55,15.36-40.78,17S288,316.74,276.17,310c-10.4-5.92-18.19-14.49-21.73-24.68,0-.25.07-.5.11-.74,15.74,11,38,16.67,62,14.21,24.8-2.53,46.06-13.23,59.16-27.89C376,271.6,376.32,272.33,376.57,273.08Z"/><path class="cls-3" d="M445.73,491.48c42.42,52.71-38.79,114.62-96.24,119.07S209.63,566.76,237.68,507.6c44.3-93.44,47.08-115.26,96.25-119.07S391.54,424.13,445.73,491.48Z"/></svg>