<svg id="publicdomainvectors.org" xmlns="http://www.w3.org/2000/svg" viewBox="0 0 660 660"><defs><style>.cls-1,.cls-2{fill:#702900;}.cls-1,.cls-10,.cls-11,.cls-3,.cls-4,.cls-5,.cls-6,.cls-7,.cls-8,.cls-9{fill-rule:evenodd;}.cls-3{fill:#f5bd9d;}.cls-4{fill:#8c3604;}.cls-5{fill:#d99066;}.cls-6{fill:#c97e53;}.cls-7{fill:#c36;}.cls-8{fill:#a6450d;}.cls-9{fill:#471a00;}.cls-10{fill:#ffede3;}.cls-11{fill:#572000;}.cls-12{fill:#e3a75f;}</style></defs><title>monkey 05</title><path class="cls-1" d="M322,374.33a11.24,11.24,0,0,1-15.21-16.54l33.1-30.5A81.35,81.35,0,0,1,432.27,314l25.35,12.51a32.17,32.17,0,0,0,37.94-6.59l8.05-8.34a32.41,32.41,0,0,0,2.68-42.27l-1.39-1.85a54.19,54.19,0,0,1-6.28-55.21l4.25-9.66a11.24,11.24,0,0,1,20.58,9.06l-4.25,9.66A31.6,31.6,0,0,0,522.93,254l1.39,1.86a54.89,54.89,0,0,1-4.53,71.29l-8,8.33a54.45,54.45,0,0,1-64.06,11.16l-25.35-12.5a58.92,58.92,0,0,0-67.27,9.71Z"/><rect class="cls-2" x="207.69" y="314.99" width="22.51" height="199.23"/><path class="cls-3" d="M220.6,546H206.7a18.59,18.59,0,0,1-18.53-18.54h0a18.59,18.59,0,0,1,18.53-18.53h13.9a18.59,18.59,0,0,1,18.54,18.53h0A18.6,18.6,0,0,1,220.6,546Z"/><rect class="cls-2" x="233.5" y="91.27" width="22.51" height="199.23"/><path class="cls-4" d="M471.09,396.36h0a18.5,18.5,0,0,0,15.64,20.89l57.39,8.25A18.5,18.5,0,0,0,565,409.86h0A18.5,18.5,0,0,0,549.37,389L492,380.73A18.49,18.49,0,0,0,471.09,396.36Z"/><path class="cls-3" d="M548.27,423.74a12.26,12.26,0,1,0,13.88-10.4A12.27,12.27,0,0,0,548.27,423.74Z"/><path class="cls-3" d="M555.36,410.53a6.89,6.89,0,1,0,7.79-5.83A6.89,6.89,0,0,0,555.36,410.53Z"/><path class="cls-3" d="M557,402.36a5.4,5.4,0,1,0,6.12-4.58A5.4,5.4,0,0,0,557,402.36Z"/><path class="cls-3" d="M555.66,395.36a4.29,4.29,0,1,0,4.85-3.63A4.29,4.29,0,0,0,555.66,395.36Z"/><path class="cls-3" d="M552,392.26a3.93,3.93,0,1,0,4.45-3.33A3.92,3.92,0,0,0,552,392.26Z"/><path class="cls-4" d="M403.73,502.61h0a18.49,18.49,0,0,1,26-1.68l43.56,38.27a18.51,18.51,0,0,1,1.68,26h0a18.51,18.51,0,0,1-26,1.68l-43.55-38.28A18.49,18.49,0,0,1,403.73,502.61Z"/><path class="cls-3" d="M474.68,543.5a12.26,12.26,0,1,1,1.11,17.3A12.27,12.27,0,0,1,474.68,543.5Z"/><path class="cls-3" d="M469.24,557.46a6.88,6.88,0,1,1,.63,9.72A6.89,6.89,0,0,1,469.24,557.46Z"/><path class="cls-3" d="M464.09,564a5.4,5.4,0,1,1,.49,7.62A5.41,5.41,0,0,1,464.09,564Z"/><path class="cls-3" d="M457.9,567.55a4.29,4.29,0,1,1,.39,6.05A4.3,4.3,0,0,1,457.9,567.55Z"/><path class="cls-3" d="M453.17,566.79a3.93,3.93,0,1,1,.36,5.55A3.93,3.93,0,0,1,453.17,566.79Z"/><path class="cls-1" d="M275.13,395a18.7,18.7,0,1,1,32.33-18.81l45.26,77.91,73.08,54.67a18.75,18.75,0,0,1-22.47,30l-76.05-56.9,0,0a18.62,18.62,0,0,1-4.95-5.57L275.13,395Zm30-28.29L391.78,403a18.92,18.92,0,0,0,3.51,1.08v0l88.17,17.89a18.74,18.74,0,1,0,7.49-36.73l-86.58-17.57-84.77-35.57a18.7,18.7,0,0,0-14.5,34.48Z"/><path class="cls-4" d="M134.56,282.93l60.22-68.53L340.09,342.09a45.73,45.73,0,0,1,4.15,64.37h0a45.76,45.76,0,0,1-64.38,4.15Z"/><path class="cls-1" d="M227.62,243.25l65.2,57.3a58.53,58.53,0,0,1-14.56,39.91l-5.68,6.47A58.64,58.64,0,0,1,230,366.82L170,314a58.67,58.67,0,0,1,14.26-44.76l5.68-6.47A58.59,58.59,0,0,1,227.62,243.25Z"/><path class="cls-5" d="M179.32,303.17,207,271.71l107.37,94.35a21,21,0,0,1,1.91,29.56h0a21,21,0,0,1-29.56,1.91Z"/><path class="cls-6" d="M179.32,303.17,207,271.71l74.19,65.19c-.91,1.22-1.88,2.4-2.9,3.56l-5.68,6.47A58.22,58.22,0,0,1,248,363.51Z"/><path class="cls-4" d="M157.76,156.28a31.56,31.56,0,1,1,2.88,44.54A31.56,31.56,0,0,1,157.76,156.28Z"/><path class="cls-7" d="M167.89,165.18a18.08,18.08,0,1,1,1.65,25.51A18.07,18.07,0,0,1,167.89,165.18Z"/><path class="cls-4" d="M58.34,269.43A31.56,31.56,0,1,1,61.21,314,31.56,31.56,0,0,1,58.34,269.43Z"/><path class="cls-7" d="M68.46,278.33a18.08,18.08,0,1,1,1.65,25.51A18.08,18.08,0,0,1,68.46,278.33Z"/><path class="cls-8" d="M92.67,199.72h0a83.72,83.72,0,0,1,117.82-7.61h0a83.73,83.73,0,0,1,7.61,117.83h0a83.74,83.74,0,0,1-117.83,7.61h0A83.73,83.73,0,0,1,92.67,199.72Z"/><path class="cls-5" d="M131.13,229h0a34.25,34.25,0,0,1,48.18-3.11l28,24.62a34.26,34.26,0,0,1,3.11,48.19h0a33.92,33.92,0,0,1-11.85,8.66,33.7,33.7,0,0,1-7.07,12.86h0a34.23,34.23,0,0,1-48.18,3.11l-28-24.62a34.23,34.23,0,0,1-3.11-48.18h0a33.82,33.82,0,0,1,11.84-8.67A33.74,33.74,0,0,1,131.13,229Z"/><path class="cls-3" d="M153.67,275.47l5.68-6.46a59,59,0,0,1,83-5.36h0a59,59,0,0,1,5.36,83L242,353.12a59,59,0,0,1-83,5.36h0A59,59,0,0,1,153.67,275.47Z"/><path class="cls-3" d="M145.53,271.33a11.29,11.29,0,1,1,1,15.93A11.28,11.28,0,0,1,145.53,271.33Z"/><path class="cls-3" d="M154.19,261.47a11.29,11.29,0,1,1,1,15.93A11.29,11.29,0,0,1,154.19,261.47Z"/><path class="cls-9" d="M149.86,275.13a5.52,5.52,0,1,1,.5,7.79A5.52,5.52,0,0,1,149.86,275.13Z"/><path class="cls-9" d="M158.52,265.28a5.52,5.52,0,1,1,.5,7.79A5.52,5.52,0,0,1,158.52,265.28Z"/><path class="cls-10" d="M119.6,261.28a11.29,11.29,0,1,1,1,15.93A11.3,11.3,0,0,1,119.6,261.28Z"/><path class="cls-9" d="M123.93,265.09a5.52,5.52,0,1,1,.51,7.79A5.53,5.53,0,0,1,123.93,265.09Z"/><path class="cls-10" d="M126.82,263.43a3.23,3.23,0,1,1,.3,4.55A3.24,3.24,0,0,1,126.82,263.43Z"/><path class="cls-10" d="M142.52,235.2a11.29,11.29,0,1,1,1,15.93A11.28,11.28,0,0,1,142.52,235.2Z"/><path class="cls-9" d="M146.85,239a5.52,5.52,0,1,1,.5,7.79A5.51,5.51,0,0,1,146.85,239Z"/><path class="cls-10" d="M149.74,237.35a3.23,3.23,0,1,1,.29,4.55A3.23,3.23,0,0,1,149.74,237.35Z"/><path class="cls-11" d="M222.57,330a22.93,22.93,0,0,1-24.29,27.64Z"/><rect class="cls-12" x="31.3" y="80.02" width="600.99" height="31.77"/><path class="cls-3" d="M243.11,59.5H257A18.59,18.59,0,0,1,275.54,78h0A18.58,18.58,0,0,1,257,96.56h-13.9A18.58,18.58,0,0,1,224.57,78h0A18.59,18.59,0,0,1,243.11,59.5Z"/></svg>