<svg id="svg2" xmlns="http://www.w3.org/2000/svg" xmlns:xlink="http://www.w3.org/1999/xlink" viewBox="0 0 1735.6 1909.5"><defs><style>.cls-1,.cls-10,.cls-2,.cls-29,.cls-40,.cls-57,.cls-7{stroke:#b81f3b;}.cls-1{stroke-width:1.04px;fill:url(#radial-gradient);}.cls-2{stroke-width:1.26px;fill:url(#radial-gradient-2);}.cls-3{fill:#dfa052;stroke:#66351a;stroke-width:2.65px;}.cls-4{fill:url(#radial-gradient-3);}.cls-5{fill:url(#radial-gradient-4);}.cls-6{fill:url(#radial-gradient-5);}.cls-7{stroke-width:0.85px;fill:url(#radial-gradient-6);}.cls-8,.cls-9{opacity:0.34;}.cls-12,.cls-14,.cls-21,.cls-26,.cls-27,.cls-31,.cls-32,.cls-34,.cls-35,.cls-44,.cls-48,.cls-50,.cls-61,.cls-63,.cls-66,.cls-67,.cls-69,.cls-71,.cls-8,.cls-9{isolation:isolate;}.cls-8{fill:url(#radial-gradient-7);}.cls-9{fill:url(#radial-gradient-8);}.cls-10,.cls-29,.cls-45,.cls-57{stroke-width:1.29px;}.cls-10{fill:url(#radial-gradient-9);}.cls-11{fill:url(#radial-gradient-10);}.cls-12{opacity:0.57;fill:url(#radial-gradient-11);}.cls-13{fill:url(#radial-gradient-12);}.cls-14{opacity:0.78;fill:url(#radial-gradient-13);}.cls-15{fill:url(#radial-gradient-14);}.cls-16{fill:url(#radial-gradient-15);}.cls-17,.cls-71{fill:#ccc;}.cls-17,.cls-22,.cls-25,.cls-65,.cls-68{stroke:#666;}.cls-17{stroke-width:2px;}.cls-18,.cls-22,.cls-25,.cls-65,.cls-70{fill:#f2f2f2;}.cls-19{fill:red;}.cls-19,.cls-20{stroke:#000;}.cls-20{fill:url(#linear-gradient);}.cls-21{fill:#474747;opacity:0.35;}.cls-22{stroke-width:1.5px;}.cls-23,.cls-24,.cls-58,.cls-59,.cls-60,.cls-62{stroke:#f60;}.cls-23,.cls-24{stroke-width:0.75px;}.cls-23{fill:url(#linear-gradient-2);}.cls-24{fill:url(#linear-gradient-3);}.cls-25{stroke-width:1.87px;}.cls-26,.cls-27,.cls-66,.cls-67,.cls-69{opacity:0.32;}.cls-26{fill:url(#radial-gradient-16);}.cls-27{fill:url(#radial-gradient-17);}.cls-28{fill:#bbb;fill-opacity:0.28;}.cls-29{fill:url(#radial-gradient-18);}.cls-30,.cls-33{stroke:#4e7c06;stroke-width:4px;}.cls-30{fill:url(#radial-gradient-19);}.cls-31{fill:#426a03;opacity:0.88;}.cls-32{opacity:0.1;fill:url(#radial-gradient-20);}.cls-33{fill:url(#radial-gradient-21);}.cls-34{fill:#76d52f;opacity:0.25;}.cls-35{fill:#4e7c06;opacity:0.22;}.cls-36{fill:url(#radial-gradient-22);}.cls-37{fill:url(#radial-gradient-23);}.cls-38{fill:url(#radial-gradient-24);}.cls-39{fill:url(#radial-gradient-25);}.cls-40{fill:url(#radial-gradient-26);}.cls-41{fill:#fff;}.cls-42{fill:#710101;}.cls-43,.cls-59{fill:#ffe000;}.cls-43{stroke:#ff4242;}.cls-43,.cls-44{stroke-width:1.33px;}.cls-44,.cls-58{fill:#f60;}.cls-44{stroke:#ca3b00;opacity:0.56;}.cls-45{stroke:#ba1f3a;fill:url(#radial-gradient-27);}.cls-46{stroke:#cb1f1f;stroke-width:1.8px;fill:url(#radial-gradient-28);}.cls-47,.cls-49{fill:#ffb3b3;}.cls-47{stroke:#b51f3c;stroke-width:1.02px;}.cls-48{fill:#ff2a2a;opacity:0.4;}.cls-50{opacity:0.55;filter:url(#filter4124);}.cls-51{fill:#ff4242;}.cls-52{fill:#cb1f1f;}.cls-53{fill:#ff682a;stroke:#ca3100;stroke-width:0.94px;}.cls-53,.cls-61{stroke-linecap:round;stroke-linejoin:round;}.cls-54{fill:url(#linear-gradient-4);}.cls-55{filter:url(#filter4006);}.cls-56{fill:url(#radial-gradient-29);}.cls-57{fill:url(#radial-gradient-30);}.cls-58,.cls-68{stroke-width:10px;}.cls-59{stroke-width:1.12px;}.cls-60,.cls-62{stroke-width:0.94px;}.cls-60{fill:url(#linear-gradient-5);}.cls-61,.cls-63{fill:none;stroke-width:16px;}.cls-61{opacity:0.31;stroke:url(#linear-gradient-6);}.cls-62{fill:url(#linear-gradient-7);}.cls-63{opacity:0.6;stroke:url(#linear-gradient-8);}.cls-64{fill:#ff8d00;fill-opacity:0.27;}.cls-65,.cls-70{stroke-width:3px;}.cls-66{fill:url(#radial-gradient-31);}.cls-67{fill:url(#radial-gradient-32);}.cls-68{fill:#666;}.cls-69{fill:url(#radial-gradient-33);}.cls-70{stroke:#ccc;}.cls-71{opacity:0.24;}</style><radialGradient id="radial-gradient" cx="-673.4" cy="1104.76" r="153.36" gradientTransform="matrix(0.6, 0.55, 1.38, -1.51, -242.57, 3307.2)" gradientUnits="userSpaceOnUse"><stop offset="0" stop-color="#ffbcbc"/><stop offset="0.1" stop-color="#f7acac"/><stop offset="0.21" stop-color="#e58686"/><stop offset="0.3" stop-color="#d96d6d"/><stop offset="0.54" stop-color="#b14343"/><stop offset="0.83" stop-color="#992a2a"/><stop offset="0.92" stop-color="#aa4343"/><stop offset="1" stop-color="#e09090"/></radialGradient><radialGradient id="radial-gradient-2" cx="893.5" cy="898.41" r="153.36" gradientTransform="matrix(-3.01, 0.01, 0, 2.13, 3358.13, -594.66)" xlink:href="#radial-gradient"/><radialGradient id="radial-gradient-3" cx="-844.69" cy="728.83" r="153.36" gradientTransform="matrix(-0.07, 0.52, 1.11, 0.14, 330.89, 838.1)" xlink:href="#radial-gradient"/><radialGradient id="radial-gradient-4" cx="-843.91" cy="662.15" r="153.36" gradientTransform="matrix(-0.07, 0.52, 1.01, 0.13, 428.85, 859.15)" xlink:href="#radial-gradient"/><radialGradient id="radial-gradient-5" cx="-805.7" cy="769.27" r="153.36" gradientTransform="matrix(-0.07, 0.54, 1.23, 0.16, 91.43, 810.66)" xlink:href="#radial-gradient"/><radialGradient id="radial-gradient-6" cx="155.66" cy="1315.92" r="153.36" gradientTransform="matrix(1.34, 1.2, 3.04, -2.83, -3034.21, 4043.89)" xlink:href="#radial-gradient"/><radialGradient id="radial-gradient-7" cx="1368.47" cy="2766.66" r="76.77" gradientTransform="matrix(0.35, -0.26, -0.31, -0.43, 1429.21, 2114.49)" gradientUnits="userSpaceOnUse"><stop offset="0" stop-color="#fff"/><stop offset="1" stop-color="#fff" stop-opacity="0"/></radialGradient><radialGradient id="radial-gradient-8" cx="1388.58" cy="3505.95" r="76.77" gradientTransform="matrix(0.55, -0.38, -0.21, -0.3, 1082.88, 2185.6)" xlink:href="#radial-gradient-7"/><radialGradient id="radial-gradient-9" cx="-1164.38" cy="1045.69" r="153.36" gradientTransform="matrix(0.82, 0.82, 1.57, -1.57, -487.75, 3830.56)" gradientUnits="userSpaceOnUse"><stop offset="0" stop-color="#ffbcbc"/><stop offset="0.07" stop-color="#f7acac"/><stop offset="0.16" stop-color="#e58686"/><stop offset="0.25" stop-color="#d96d6d"/><stop offset="0.39" stop-color="#b14343"/><stop offset="0.56" stop-color="#992a2a"/><stop offset="1" stop-color="#aa4343"/><stop offset="1" stop-color="#e09090"/></radialGradient><radialGradient id="radial-gradient-10" cx="-2756.39" cy="640.51" r="153.36" gradientTransform="matrix(0.21, 0.33, 0.35, -0.22, 382.93, 2283.78)" xlink:href="#radial-gradient-9"/><radialGradient id="radial-gradient-11" cx="-448.89" cy="1815.79" r="85.3" gradientTransform="matrix(0.71, -0.32, -0.25, -0.55, 846.92, 2128.38)" gradientUnits="userSpaceOnUse"><stop offset="0" stop-color="#fff"/><stop offset="0.24" stop-color="#9b2d2d"/><stop offset="0.8" stop-color="#5d1b1b"/><stop offset="0.9" stop-color="#972424"/><stop offset="1" stop-color="#d96d6d"/></radialGradient><radialGradient id="radial-gradient-12" cx="-1978.32" cy="714.05" r="153.36" gradientTransform="matrix(0.27, 0.47, 0.49, -0.28, 267.02, 2402.18)" gradientUnits="userSpaceOnUse"><stop offset="0" stop-color="#ffbcbc"/><stop offset="0.07" stop-color="#f7acac"/><stop offset="0.16" stop-color="#e58686"/><stop offset="0.32" stop-color="#d96d6d"/><stop offset="0.52" stop-color="#b14343"/><stop offset="0.74" stop-color="#992a2a"/><stop offset="1" stop-color="#aa4343"/><stop offset="1" stop-color="#e09090"/></radialGradient><radialGradient id="radial-gradient-13" cx="-868.87" cy="1453.74" r="85.3" gradientTransform="matrix(0.72, 0, 0, -0.61, 735.47, 2194.4)" xlink:href="#radial-gradient-11"/><radialGradient id="radial-gradient-14" cx="-1842.08" cy="729.38" r="153.37" gradientTransform="matrix(0.27, 0.47, 0.5, -0.29, 254.1, 2389.78)" gradientUnits="userSpaceOnUse"><stop offset="0" stop-color="#ffbcbc"/><stop offset="0.07" stop-color="#f7acac"/><stop offset="0.16" stop-color="#e58686"/><stop offset="0.25" stop-color="#d96d6d"/><stop offset="0.45" stop-color="#b14343"/><stop offset="0.56" stop-color="#992a2a"/><stop offset="1" stop-color="#aa4343"/><stop offset="1" stop-color="#e09090"/></radialGradient><radialGradient id="radial-gradient-15" cx="-2898.7" cy="704.99" r="153.36" gradientTransform="matrix(0.17, 0.29, 0.31, -0.18, 482.1, 2298.76)" gradientUnits="userSpaceOnUse"><stop offset="0" stop-color="#ffbcbc"/><stop offset="0.07" stop-color="#f7acac"/><stop offset="0.16" stop-color="#e58686"/><stop offset="0.25" stop-color="#d96d6d"/><stop offset="0.59" stop-color="#b14343"/><stop offset="0.78" stop-color="#992a2a"/><stop offset="1" stop-color="#aa4343"/><stop offset="1" stop-color="#e09090"/></radialGradient><linearGradient id="linear-gradient" x1="185.33" y1="387.48" x2="174.39" y2="153.88" gradientTransform="matrix(1, 0, 0, -1, 325.79, 1913.43)" gradientUnits="userSpaceOnUse"><stop offset="0" stop-color="#fe9600"/><stop offset="1" stop-color="#f3f802"/></linearGradient><linearGradient id="linear-gradient-2" x1="328.82" y1="545.79" x2="291.93" y2="369.29" gradientTransform="matrix(0.8, 0, 0, -0.8, 331.96, 2023.63)" xlink:href="#linear-gradient"/><linearGradient id="linear-gradient-3" x1="1750.51" y1="541.1" x2="1712.83" y2="361.1" gradientTransform="translate(1823.2 2011.38) rotate(180) scale(0.8)" xlink:href="#linear-gradient"/><radialGradient id="radial-gradient-16" cx="-757.24" cy="4967.61" r="222.05" gradientTransform="matrix(0.34, 0, 0, -0.13, 764.01, 2336.78)" gradientUnits="userSpaceOnUse"><stop offset="0" stop-color="#f2f2f2"/><stop offset="0.37" stop-color="#cecece" stop-opacity="0.4"/><stop offset="0.67" stop-color="#b4b4b4" stop-opacity="0.56"/><stop offset="1" stop-color="#999"/></radialGradient><radialGradient id="radial-gradient-17" cx="-1802.07" cy="8445.09" r="222.04" gradientTransform="matrix(0.21, 0, 0, -0.08, 882.68, 2344.94)" xlink:href="#radial-gradient-16"/><radialGradient id="radial-gradient-18" cx="-307.25" cy="1174.8" r="153.37" gradientTransform="matrix(0.97, 0.25, 0.64, -2.45, 40.97, 4559.97)" xlink:href="#radial-gradient"/><radialGradient id="radial-gradient-19" cx="682.1" cy="1116.8" r="390.66" gradientTransform="matrix(1.93, -0.52, -0.33, -1.25, -364.12, 2844.26)" gradientUnits="userSpaceOnUse"><stop offset="0" stop-color="#c6ff6b"/><stop offset="0.21" stop-color="#a5ff16"/><stop offset="0.57" stop-color="#71b700"/><stop offset="1" stop-color="#72b900"/></radialGradient><radialGradient id="radial-gradient-20" cx="109.87" cy="1905.13" r="384.83" gradientTransform="matrix(0.69, 0, 0, -0.46, 559.71, 1989.97)" gradientUnits="userSpaceOnUse"><stop offset="0" stop-color="#21410f" stop-opacity="0.35"/><stop offset="0.43" stop-color="#21410f" stop-opacity="0.42"/><stop offset="0.63" stop-color="#21410f" stop-opacity="0.6"/><stop offset="0.8" stop-color="#21410f" stop-opacity="0.71"/><stop offset="1" stop-color="#21410f"/></radialGradient><radialGradient id="radial-gradient-21" cx="637.48" cy="925.88" r="390.66" xlink:href="#radial-gradient-19"/><radialGradient id="radial-gradient-22" cx="1816.41" cy="1154.37" r="137.13" gradientTransform="matrix(-0.61, -0.51, 0.51, -0.61, 1263.66, 2210.19)" gradientUnits="userSpaceOnUse"><stop offset="0" stop-color="#5a0101"/><stop offset="0.59" stop-color="#720101"/><stop offset="0.73" stop-color="#c15757" stop-opacity="0.9"/><stop offset="0.82" stop-color="#d97272" stop-opacity="0.93"/><stop offset="0.88" stop-color="#b33f3f" stop-opacity="0.84"/><stop offset="0.94" stop-color="#a02424" stop-opacity="0.92"/><stop offset="0.99" stop-color="#500"/><stop offset="1" stop-color="#590303" stop-opacity="0.98"/></radialGradient><radialGradient id="radial-gradient-23" cx="582.79" cy="2508.71" r="137.64" gradientTransform="matrix(-0.64, 0.71, -0.41, -0.37, 2194.11, 1085.14)" gradientUnits="userSpaceOnUse"><stop offset="0" stop-color="#e6a3a3"/><stop offset="0.16" stop-color="#e69696"/><stop offset="0.65" stop-color="#e67c7c"/><stop offset="0.89" stop-color="#e65c5c"/><stop offset="1" stop-color="#e64a4a"/></radialGradient><radialGradient id="radial-gradient-24" cx="1307.44" cy="1917.52" r="137.14" gradientTransform="matrix(0.24, -0.76, -0.75, -0.24, 1483.24, 2152.89)" xlink:href="#radial-gradient-22"/><radialGradient id="radial-gradient-25" cx="-61.07" cy="1822.48" r="137.64" gradientTransform="matrix(0.92, 0.26, 0.15, -0.54, 93.26, 1706.27)" gradientUnits="userSpaceOnUse"><stop offset="0" stop-color="#ebb7b7"/><stop offset="0.16" stop-color="#eaaaaa"/><stop offset="0.65" stop-color="#ea9191"/><stop offset="0.89" stop-color="#e97272"/><stop offset="1" stop-color="#e96060"/></radialGradient><radialGradient id="radial-gradient-26" cx="1236.74" cy="718.22" r="153.35" gradientTransform="matrix(-1.21, 0.29, 0.73, 3.02, 1529.17, -1830.17)" gradientUnits="userSpaceOnUse"><stop offset="0" stop-color="#ffbcbc"/><stop offset="0.27" stop-color="#f7acac"/><stop offset="0.53" stop-color="#e58686"/><stop offset="0.6" stop-color="#d96d6d"/><stop offset="0.72" stop-color="#b14343"/><stop offset="0.83" stop-color="#992a2a"/><stop offset="0.92" stop-color="#aa4343"/><stop offset="1" stop-color="#e09090"/></radialGradient><radialGradient id="radial-gradient-27" cx="1344.69" cy="581.29" r="153.36" gradientTransform="matrix(-0.98, 0.2, 0.38, 1.92, 1669.69, -665.14)" gradientUnits="userSpaceOnUse"><stop offset="0" stop-color="#ffbcbc"/><stop offset="0.27" stop-color="#f7acac"/><stop offset="0.53" stop-color="#e58686"/><stop offset="0.6" stop-color="#d96d6d"/><stop offset="0.72" stop-color="#b14343"/><stop offset="0.83" stop-color="#992a2a"/><stop offset="0.92" stop-color="#aa4343"/><stop offset="1" stop-color="#b7203c"/></radialGradient><radialGradient id="radial-gradient-28" cx="714.64" cy="1851.18" r="79.95" gradientTransform="matrix(1.77, -0.47, -0.17, -0.64, -323.78, 2485.32)" gradientUnits="userSpaceOnUse"><stop offset="0" stop-color="#730000"/><stop offset="0.16" stop-color="#b80000"/><stop offset="0.31" stop-color="#ffcbcb"/><stop offset="0.48" stop-color="#f3a2a6"/><stop offset="0.55" stop-color="#f99"/><stop offset="1" stop-color="#ff8c8c"/></radialGradient><filter id="filter4124" x="-0.07" y="-0.13" width="1.15" height="1.27" name="filter4124"><feGaussianBlur result="feGaussianBlur4126" stdDeviation="10.35"/></filter><linearGradient id="linear-gradient-4" x1="517.33" y1="1734.8" x2="485.76" y2="1670.6" gradientTransform="matrix(0.96, -0.23, -0.23, -0.96, 475.32, 2491.59)" gradientUnits="userSpaceOnUse"><stop offset="0" stop-color="#f93b00"/><stop offset="1" stop-color="#ff1700"/></linearGradient><filter id="filter4006" x="-0.11" y="-0.21" width="1.22" height="1.42" name="filter4006"><feGaussianBlur result="feGaussianBlur4008" stdDeviation="4.6"/></filter><radialGradient id="radial-gradient-29" cx="1358.33" cy="-340.51" fx="1346.3408461965332" fy="-328.13313517326304" r="51" gradientTransform="matrix(-0.9, 0, 0, 0.6, 1778.42, 926.8)" gradientUnits="userSpaceOnUse"><stop offset="0" stop-color="#ff9771"/><stop offset="0.47" stop-color="#ff9771" stop-opacity="0.72"/><stop offset="0.64" stop-color="#ff9771" stop-opacity="0.61"/><stop offset="0.78" stop-color="#ff9771" stop-opacity="0.5"/><stop offset="0.95" stop-color="#ff9771" stop-opacity="0.24"/><stop offset="1" stop-color="#ff9771" stop-opacity="0"/></radialGradient><radialGradient id="radial-gradient-30" cx="382.4" cy="556.55" r="153.37" gradientTransform="matrix(-0.6, 0.55, 1.38, 1.51, 340.96, 204.13)" xlink:href="#radial-gradient"/><linearGradient id="linear-gradient-5" x1="742.68" y1="1016.46" x2="900.64" y2="869.26" gradientTransform="matrix(0.49, -0.45, -0.45, -0.49, 1028.8, 2374.35)" gradientUnits="userSpaceOnUse"><stop offset="0" stop-color="#ff8900"/><stop offset="1" stop-color="#f2ff02"/></linearGradient><linearGradient id="linear-gradient-6" x1="794.75" y1="1060.77" x2="902.31" y2="912.27" gradientTransform="matrix(0.49, -0.45, -0.45, -0.49, 1024.13, 2373.47)" gradientUnits="userSpaceOnUse"><stop offset="0" stop-color="#f60"/><stop offset="1" stop-color="#f60" stop-opacity="0"/></linearGradient><linearGradient id="linear-gradient-7" x1="1180.26" y1="1048.37" x2="1055.97" y2="882.67" gradientTransform="matrix(0.49, -0.45, -0.45, -0.49, 1028.8, 2374.35)" xlink:href="#linear-gradient"/><linearGradient id="linear-gradient-8" x1="1152.92" y1="1115.21" x2="1054.35" y2="922.81" gradientTransform="matrix(0.49, -0.45, -0.45, -0.49, 1028.8, 2374.35)" xlink:href="#linear-gradient-6"/><radialGradient id="radial-gradient-31" cx="984.48" cy="6224.84" r="222.03" gradientTransform="matrix(0.27, -0.24, -0.09, -0.1, 1368.49, 2327.98)" xlink:href="#radial-gradient-16"/><radialGradient id="radial-gradient-32" cx="1004.3" cy="10470.74" r="222.04" gradientTransform="matrix(0.17, -0.15, -0.06, -0.06, 1467.44, 2249.08)" xlink:href="#radial-gradient-16"/><radialGradient id="radial-gradient-33" cx="962.94" cy="2978.13" r="222.04" gradientTransform="matrix(0.49, -0.45, -0.17, -0.18, 1168.1, 2526.36)" xlink:href="#radial-gradient-16"/></defs><title>monkey 07</title><g id="layer1"><g id="g9839"><g id="g9730"><path id="rect6760-2" class="cls-1" d="M747.62,1436.76c37.76,30.15,67.68,25.12,97.44,19.36,69.47-32.21,121.51-107.25,152-174.85-2.21-94.12-56.49-97.23-131.78-91.47-57.08,32.19-124.63,83.63-145.06,149.3-.68,46.91-5.93,64.38,27.42,97.66Z"/><path id="rect7494" class="cls-2" d="M514,1104.25l316.3-16.3c56.65-2.91,71.53-53.57,63.43,103.12-2.9,56.66,4.7,112.9-51.95,115.82l-342,20.59c-136.75-8.42-111.52-196.4,14.22-223.22Z"/><g id="g9124"><g id="g9115"><path id="path3303" class="cls-3" d="M1683.9,175.28c-8.91,10.19-15.43,18.39-13.7,16.87,10.6-7.75,21-7.8,26.77-1s6.71,20.51-2.17,40.07c-3.2,7.05,5.19-.56,14.59-10.53,43.12-40.25,27.38-104.93-25.49-45.41Zm7.08,63.56c9-23.54,20.48-54.31-17-50.19-8.28,6-19.84,17.95-29,27.9s-15.89,18-14.12,16.49c10.79-7.45,21.23-7.24,26.78-.3s6.19,20.68-3.23,40c-3.39,7,5.21-.43,14.88-10.15s20.35-21.82,21.63-23.76Zm-41.44,40.53c8.68-19.28,11.59-33.05,9-41.4s-10.76-11.25-24.59-9.2c-6.6,4.55-15.28,12.64-23.27,20.58s-15.29,15.7-18.89,19.77c-2,2.26-2.86,3.38-2.07,2.76,1-.66,2-1.25,3-1.78,8.67-4.58,16.72-4.33,21.84.22s7.3,13.4,4,26a77.57,77.57,0,0,1-6.43,16c-3.43,6.56,4.45.35,13.82-8.45,10.27-9.64,22.25-22.43,23.63-24.43Zm-41.7,40.28c4.64-9.54,7.77-17.74,9.45-24.61h0c2.52-10.26,1.79-17.52-2.14-21.87s-11.06-5.8-21.45-4.56l-1.47,1c-8.71,6-20.49,16.93-29.77,25.93s-16,16.1-14.21,14.78c11.18-6.74,21.58-5.91,26.71,1.34s5,21-5.67,39.75c-3.84,6.76,5.24-.09,15.51-9.24s21.65-20.63,23-22.5Zm-41.78,38c9.94-18.74,13.65-32.34,11.53-40.82s-10.1-11.86-24-10.65c-8.73,5.27-21.22,16.05-31.2,25s-17.42,16.24-15.53,15c11.4-6.29,21.75-5.09,26.62,2.34s4.24,21.19-7.17,39.52c-4.11,6.6,5.25.11,15.88-8.67s22.43-19.89,23.88-21.72Zm-44.58,37.48c10.73-18.36,15-31.82,13.14-40.37s-9.66-12.2-23.57-11.55c-8.1,4.47-19.48,13.37-29.25,21.35s-17.92,15.08-19.12,16.46c-.23.26-.2.32.11.14l0,0c10.33-5.1,19.57-4.39,24.71,1.16s6.19,16-.48,30.09a83.06,83.06,0,0,1-6.69,11.46c-3.82,5.55,2.89,1.76,11.91-4.75,5.92-4.27,12.82-9.73,18.42-14.41s9.92-8.55,10.79-9.56h0Zm-44.07,35.71a142,142,0,0,0,10.06-17.92c5.43-11.83,6.51-20.54,3.44-26.2s-10.26-8.28-21.62-8.24c-1.84.92-3.86,2.05-6,3.33-9.45,5.69-21.21,14.36-30.27,21.22s-15.38,12-13.58,11c11.89-5.11,22.07-3,26.24,4.87,2.09,3.92,2.65,9.28,1,15.84s-5.4,14.31-12.09,22.9c-2.41,3.1-1.11,3.25,2.25,1.67a129.72,129.72,0,0,0,14.56-8.83c11.53-7.8,24.34-17.93,26-19.63Zm-48.36,33.39c12.78-17.25,18.22-30.32,17.21-39s-8.52-13-22.38-13.73c-9.28,4-23,12.83-34.09,20.09s-19.51,13.08-17.46,12.14c6.06-2.11,11.56-2.47,16-1.29a14.22,14.22,0,0,1,9.74,7.94c1.83,4.05,2.05,9.43,0,15.86s-6.38,13.93-13.73,22c-2.64,2.93-1.36,3.17,2.13,1.82a124.44,124.44,0,0,0,15.22-7.82c6-3.52,12.48-7.61,17.58-11s8.89-6.19,9.75-7Zm-50.75,30.29c14.15-16.3,20.44-29,20-37.74s-7.66-13.5-21.37-15.19c-6.22,2.19-14.48,6.32-22.7,10.64s-16.43,8.82-22.37,12.14c-6.19,3.43-9.89,5.63-8.44,5.12a32.69,32.69,0,0,1,10.52-1c6.19.49,11,3.17,13.55,7.64s2.78,10.75-.41,18.28c-2.61,6.19-7.55,13.25-15.59,20.62-3.29,3-1.3,3.11,3.37,1.56a162.81,162.81,0,0,0,19.21-8.4c11.37-5.68,22.59-12.35,24.22-13.66Zm-53.55,26.14c11.45-10.84,18.38-20.29,21.5-27.93,2.39-5.87,2.52-10.71.52-14.56s-6.15-6.71-12.35-8.77a59.63,59.63,0,0,0-6.28-1.68,154.88,154.88,0,0,0-17.31,6c-6.38,2.53-13.06,5.33-19,7.85-12,5-21.14,8.9-19,8.42,6.22-.8,11.59-.07,15.72,1.95a14.41,14.41,0,0,1,8.06,9.64c1.06,4.33.29,9.67-3,15.61s-9.13,12.5-18.28,18.88c-3.3,2.31-2.08,2.82,1.71,2.23a116.31,116.31,0,0,0,16.92-4.64c6.8-2.31,14-5.19,19.8-7.7a118.24,118.24,0,0,0,11-5.29Zm-55.3,19.73c9-6.45,15.54-12.6,20.07-18.17s7-10.56,7.59-14.9a12.76,12.76,0,0,0-3.74-11.15c-3-3.12-7.85-5.66-14.3-7.86a169.66,169.66,0,0,0-17.54,3.89c-6.5,1.7-13.33,3.57-19.46,5.2s-11.55,3-15.18,4-5.47,1.52-4.39,1.45c6.14.22,11.24,1.74,15,4.33a14.55,14.55,0,0,1,6.56,10.66c.44,4.41-1.06,9.58-5.21,15s-10.95,11-21.16,15.88c-3.68,1.76-2.56,2.47,1.33,2.48a113.25,113.25,0,0,0,17.68-2.05c7.16-1.3,14.84-3.14,21-4.87a113.69,113.69,0,0,0,11.8-3.82Zm-60.63,11.71q2.82-1.18,5.39-2.43c8.88-4.73,15.48-9.52,20.11-14.07s7.25-8.84,8.1-12.8a12.81,12.81,0,0,0-2.66-10.93c-2.57-3.35-6.77-6.43-12.44-9.49-5.19-.11-12,.43-19.14,1-4.23.37-8.67.59-13,.64s-8.42-.05-12-.18-6.46-.31-8.31-.38-2.65,0-1.92.17a27.7,27.7,0,0,1,12,8.11,15.65,15.65,0,0,1,3.75,11.41c-.38,4.15-2.61,8.56-7.35,12.5s-12.07,7.38-22.06,9.11c-1.78.31-3.66.57-5.61.77-2.7.28-3.27.8-2.28,1.52s3.52,1.63,7,2.53a113.81,113.81,0,0,0,13.36,2.53,149.88,149.88,0,0,0,15.76,1.21c5.18.13,10,0,13.83-.34a63.92,63.92,0,0,0,7.37-.88h0Zm-62.76-4.33a122.31,122.31,0,0,0,13.13-2.09c8.41-1.82,15-4.42,19.78-7.36s7.68-6.23,9-9.63,1-6.92-.63-10.61-4.54-7.56-8.52-11.83c-3.32-1.15-7.5-2.27-12.09-3.42-4.85-1.23-10.12-2.54-15.28-3.89s-10.21-2.74-14.56-4c-8.71-2.43-14.66-4.11-13.08-3.33,5.14,3.18,8.72,6.94,10.7,10.94a14.8,14.8,0,0,1,.78,12.18c-1.54,4-5,7.67-10.73,10.36s-13.69,4.38-23.88,4.15c-1.24,0-2.52-.09-3.82-.17-4.81-.31-2.91,1.47,2.32,4.08a180.14,180.14,0,0,0,26.47,9.88,154,154,0,0,0,20.43,4.7Zm-58-19.62q7,.33,13,.08c8.25-.34,15-1.49,20.16-3.29s8.75-4.24,10.86-7.19a13.26,13.26,0,0,0,2-10.42c-.69-4-2.7-8.49-5.88-13.62a128.22,128.22,0,0,0-11.67-6c-9.58-4.48-21-9.33-29.58-13s-14.47-6.06-13-5.08c5,3.92,8.24,8.3,9.67,12.67a14.36,14.36,0,0,1-1.33,12.47c-2.37,3.75-6.73,6.9-13.24,8.69s-15.18,2.23-26,.46c-3.88-.64-3.4.57-.38,2.77a121.65,121.65,0,0,0,14.87,8.53c6.28,3.17,13.28,6.33,19,8.71s10.24,4,11.4,4.28Zm-53.44-26c21.28,3,35.45,1.4,42.5-3.75s7-13.79,1.12-26.15a152.32,152.32,0,0,0-15.34-10c-6-3.48-12.36-7-18.17-10.19-11.61-6.31-20.83-11-19-9.61,9.58,8.68,11.82,18.79,6.43,25.86-2.7,3.54-7.32,6.29-13.94,7.57s-15.24,1.05-25.76-1.38c-3.79-.88-3.39.36-.58,2.74a126.83,126.83,0,0,0,14,9.49c5.93,3.6,12.54,7.3,18,10.14s9.67,4.87,10.8,5.24ZM984.3,472.23c20.79,4.21,35,3.79,42.45-.76s8.29-13.16,3.21-26.05c-7.27-6.57-20.5-15.11-31.77-22-11.84-7.28-21.45-12.65-19.63-11.17,9.26,9.13,11,19.38,5.28,26.16s-19.1,10.07-39.82,4.45c-5.36-1.46-2.32,1.76,4,6.54s16.05,11.07,23.88,15.82c6.14,3.73,11.13,6.53,12.36,7Zm-47.06-31c20.54,4.91,34.62,5.12,42.29,1s9-12.74,4.37-25.87c-7.23-7.12-20.72-16.52-31.92-23.94s-20.15-12.78-18.42-11.27c9,9.44,10.42,19.77,4.45,26.34s-19.42,9.39-39.91,3.21c-7.38-2.23,1.22,5.05,12.31,13s24.71,16.59,26.82,17.54Zm-47.16-33.35c20.33,5.44,34.37,6.15,42.18,2.25s9.41-12.41,5.24-25.72c-7-7.38-20.28-17.24-31.34-25s-19.93-13.33-18.22-11.78c8.85,9.68,10,20.06,3.86,26.48s-19.64,8.87-39.94,2.32c-7.32-2.36,1.11,5.06,12,13.27s24.18,17.15,26.26,18.16ZM844.4,375.71q30.26,8.67,42.08,3.12c7.91-3.71,9.74-12.17,5.82-25.6-6.38-7-18.11-16.23-28.53-23.88-12.09-8.87-22.41-15.58-20.6-13.88,8.76,9.81,9.76,20.22,3.52,26.55s-19.75,8.56-40,1.78c-10.84-3.63,13,14.78,27.65,25.19,5,3.56,9,6.2,10,6.72Zm-45.56-34.89c20.07,6,34,7.24,42,3.64s9.94-12,6.19-25.52c-6.81-7.67-19.86-18-30.78-26.11s-19.72-13.87-18-12.27c8.7,9.9,9.6,20.33,3.3,26.6s-19.83,8.35-40,1.46c-7.25-2.49,1,5.05,11.64,13.46s23.6,17.68,25.64,18.74ZM752,304.94c40,12.18,55.66,5.6,48.36-21.5-13.52-15.5-52.07-42-48.71-38.76,17.38,19.89,3.43,41.78-36.72,28C700.41,267.67,747.9,302.81,752,304.94ZM707,269.62c39.93,12.16,55.66,5.75,48.4-21.41-7-8.1-20.85-19.17-32.05-27.47-10.31-7.64-18.38-12.93-16.76-11.39,8.74,9.94,9.61,20.39,3.28,26.63s-19.85,8.26-39.93,1.44c-9.87-3.35,9.09,11.82,23.42,22.52,6.67,5,12.35,9,13.64,9.68Zm-43.66-34.14c20,6,33.88,7.42,41.89,3.93s10.12-11.88,6.45-25.46c-6.78-7.79-19.87-18.31-30.89-26.44s-19.93-13.9-18.23-12.31c8.85,9.9,9.79,20.36,3.5,26.64s-19.8,8.35-39.91,1.74c-7.25-2.39,1.07,5,11.67,13.31s23.49,17.54,25.52,18.59Zm-45-34.81c20,5.75,33.9,7.1,41.89,3.57s10.07-11.94,6.27-25.52c-6.86-7.76-20.1-18.19-31.25-26.22s-20.19-13.68-18.45-12.11c9,9.8,10.1,20.26,3.88,26.61s-19.68,8.58-39.86,2.31c-7.28-2.26,1.14,5,11.83,13.12s23.65,17.21,25.69,18.24Zm-44.93-32c20,5.4,34,6.58,41.91,3s9.93-12.06,5.92-25.61c-8.25-9.07-25.51-21.71-37.63-29.79-8.39-5.6-14.29-9.06-12.84-7.79,4.69,4.88,7.32,10,8,14.66,1.08,7.57-3,14-11.87,16.8-7.3,2.3-17.85,2.12-31.51-1.79-9-2.57,6,8.7,19.79,18.37,8.58,6,16.66,11.44,18.24,12.2Zm-46-33.17c19.11,4.64,32.66,5.73,40.72,2.58,5.53-2.17,8.49-6.31,8.86-12.54a38.89,38.89,0,0,0-2.22-13.73c-7.17-7.56-20.9-17.58-32.52-25.19S521.19,73.78,523,75.27c9.67,9.39,11.25,19.84,5.32,26.47s-19.27,9.4-39.65,4.42c-7.35-1.8,1.42,4.85,12.42,12.37s24.24,16,26.31,16.94ZM480.66,104c20.19,4,34.15,4.58,41.92.57S532,92,527.17,78.64c-7.49-7.38-21.72-17-33.78-24.11S471.52,42.63,473.45,44c10.25,8.94,12.32,19.34,6.71,26.23-2.81,3.45-7.52,6-14.09,7.25s-15,1.07-25.26-.82c-3.7-.69-3.28.52-.52,2.73a159,159,0,0,0,13.5,8.91c11.29,6.92,24.79,14.79,26.87,15.64Zm-47.92-29c20.3,2.78,34.24,2.69,41.82-1.67s8.84-12.93,3.27-26.12C472,41.93,462.31,35.68,452.55,30.2c-8.32-4.68-16.77-8.79-22.83-11.49s-9.69-4-8.38-3.2c5.6,4.11,9.1,8.79,10.55,13.3a13.67,13.67,0,0,1-1.74,12.5c-2.57,3.62-7.12,6.5-13.59,8.19-13.47,4.81-44-5.56-15.65,9.51,4.75,2.49,10.26,5.29,15.37,7.87s9.78,4.94,12.89,6.44c1.78.85,3,1.43,3.57,1.61Zm-22.43-24.8c6.92-.74,12.22-2.22,15.87-4.64a12.5,12.5,0,0,0,5.91-10.15c.27-4.37-1.18-9.77-4.53-16.2a113.92,113.92,0,0,0-16.33-9.88c-48.45-33.26-101.07,49-.92,40.87Z"/><path id="path7513" class="cls-4" d="M1254.67,508.78c-2.6,20.75-23.42,35.2-46.49,32.27s-39.67-22.13-37.07-42.89c0-.18.05-.36.07-.54,2.61-20.75,23.42-35.2,46.5-32.27s39.67,22.13,37.06,42.88C1254.72,508.42,1254.7,508.6,1254.67,508.78Z"/><path id="path7511" class="cls-5" d="M1211.74,511a38.19,38.19,0,0,1-75.77-9.58c0-.18,0-.36.07-.54a38.19,38.19,0,0,1,75.78,9.57C1211.79,510.64,1211.77,510.82,1211.74,511Z"/><path id="path7509" class="cls-6" d="M1169.18,506c-2.68,21.42-25.46,36.16-50.9,32.92s-43.88-23.24-41.2-44.66c0-.19.05-.38.07-.57,2.68-21.42,25.47-36.16,50.9-32.92s43.88,23.24,41.21,44.66C1169.23,505.64,1169.21,505.83,1169.18,506Z"/><path id="rect7462" class="cls-7" d="M1075.77,457.1c-9,0-17.83,2.75-23.56,8.63,0,0-4,16.73-7.91,24.28-11.14,21.38-34.44,22.27-43.52,57.78-1.52,22.73,10.14,51.29,6.31,66.62-23.17,92.64-133.75,136.85-199.66,205.44-23.64,24.6-21.12,61.43,5.65,82.57s67.37,18.34,91-6.25c62.89-65.44,149.24-127.34,188.66-196.31s46.44-41.92,83.72-64.79c46.53-33.16,60.89-84.75,44.8-85.88-18.9,13.87-147.71-13.49-138.63-30.25,11.45-4.57,28.06-38.43,18.24-53.8-6.74-5.21-16-8-25.09-8Z"/><path id="path7501" class="cls-8" d="M1096.82,581.42c.2,22.42-21.23,40.72-47.85,40.88s-48.35-17.87-48.54-40.29a5.81,5.81,0,0,1,0-.59c-.2-22.41,21.23-40.72,47.85-40.88s48.35,17.88,48.54,40.29A5.8,5.8,0,0,1,1096.82,581.42Z"/><path id="path7503" class="cls-9" d="M1165.06,593.83c6.63,13.54-5.43,32.91-27,43.25s-44.33,7.76-51-5.78l-.17-.36c-6.63-13.54,5.44-32.91,27-43.26s44.33-7.76,51,5.79C1165,593.59,1165,593.71,1165.06,593.83Z"/></g><g id="g7349"><path id="path6939" class="cls-10" d="M116.9,1190.41c-15.57,0-32.61,2.86-46.76-4.32C41.51,1175.58,3.21,1193.8,1,1226.22c-5.5,25.18,25.35,35.49,17.78,59.31,2.07,26.4,21.46,49.43,46.38,57.64,16.15,32.3,63.84,40.76,90.27,16.19,8.35-9.81,11.34-14.06,16.29.27,16.16,24.47,54.37,29.14,75.24,7.91,18-13.62,13.65-36.53,14.77-55.34,41.29-49.91,79-102.53,128-146.64-43.86-11.45-85-36.45-111.7-73.13-42.37,50.94-89,87.33-161.11,98Z"/><path id="path6911" class="cls-11" d="M52.07,1187.66c-25.89,0-46.89,19-46.89,42.42,0,14.34,7.88,27,19.93,34.68,7.13-26.37,32-45.84,61.56-45.84a66.11,66.11,0,0,1,10.88.88c-5.08-18.46-23.5-32.15-45.48-32.15Z"/><path id="path7271" class="cls-12" d="M77.55,1210.09c-29.92,0-55,19.93-61.81,46.78a45.7,45.7,0,0,0,9.36,7.89c7.14-26.37,32-45.83,61.57-45.83a66.11,66.11,0,0,1,10.88.88,39.67,39.67,0,0,0-2.92-7.5,66.2,66.2,0,0,0-17.08-2.22Z"/><path id="path6913" class="cls-13" d="M86.67,1218.93c-35.14,0-63.62,27.47-63.62,61.37,0,27.65,18.94,51,45,58.72a50,50,0,0,1-4.85-21.53c0-28.58,24-51.74,53.61-51.74A54.65,54.65,0,0,1,150.19,1277c-1.78-32.37-29.53-58.07-63.52-58.07Z"/><path id="path7278" class="cls-14" d="M105.75,1256.35c-29.61,0-53.61,23.17-53.61,51.74a50.31,50.31,0,0,0,8.74,28.34,66.37,66.37,0,0,0,7.17,2.59,50,50,0,0,1-4.86-21.53c0-28.58,24-51.75,53.61-51.75a54.81,54.81,0,0,1,29.59,8.6,54.33,54.33,0,0,0-40.64-18Z"/><path id="path6915" class="cls-15" d="M116.8,1265.74c-29.61,0-53.61,23.17-53.61,51.75s24,51.74,53.61,51.74c24.14,0,44.56-15.4,51.28-36.57a41.87,41.87,0,0,1,2.29-12.9c0-.75.06-1.51.06-2.27,0-28.58-24-51.75-53.63-51.75Z"/><path id="path6917" class="cls-16" d="M257.52,1333.42c.24,23.84-19.6,43.34-44.31,43.56s-44.91-18.92-45.14-42.75v-.81c-.23-23.83,19.61-43.34,44.31-43.56s44.91,18.92,45.14,42.76C257.53,1332.89,257.53,1333.16,257.52,1333.42Z"/></g></g><g id="g6878"><g id="g6745"><path id="path6533" class="cls-17" d="M528.21,1512.65c-53,3.71-97.88,40.84-115.87,86-44,91.66-45.7,161.15,8.34,249.59,19.22,32.62,54.77,57.7,95.71,59.82,58.32,5,114.65-30.32,137.28-79.34,23.28-44.82,23.91-66.86,29.51-116.12,5.83-65.78-4.91-121.62-60.28-165.69-26-20.8-59.72-35.74-94.69-34.23Z"/><path id="path6531" class="cls-18" d="M563,1518.55c16.55,7.84,30.89,19.76,43.84,32.25a68.53,68.53,0,0,0,19.75,1.66c-18.6-16-40.46-28.29-64.37-34.28l.78.37Zm49.28,38.66a145.92,145.92,0,0,1,27,45.5,69,69,0,0,0,27.75,1.68,144.77,144.77,0,0,0-36.72-48.31,70,70,0,0,1-19.34-.37l.65.76.63.74Zm29,51.15c7.88,24.16,9.6,49.84,8.66,75.13,8.92,8.75,19.42,16.4,31.84,19.47,2.07-32.07-.06-65.21-13-94.82-9.19,1.72-18.75,1-27.84-.9l.31,1,.06.17Zm8.28,83.94c-1.28,19.86-3.76,39.74-6.53,59.34,5.71,13.14,14.24,25.71,26.81,33,7.13-25.21,9.23-51.76,11.63-77.68-12.13-2.67-22.73-9.89-31.75-18.13-.06,1.16-.11,2.31-.16,3.47Zm-8,66.69c-4.19,20.92-12.43,40.71-21.78,59.68,5.11,10.65,11.89,20.6,21.37,27.79a251.17,251.17,0,0,0,27.5-57.91c-12.15-6.54-20.67-18.18-27-30.19Zm-25,65.9a132.27,132.27,0,0,1-37.94,42,67.27,67.27,0,0,0,15.16,21.94,141.06,141.06,0,0,0,45.06-39.15c-9.13-6.85-16.09-16.47-21.31-26.57l-.49.88-.48.87Zm-42.19,44.94a122.39,122.39,0,0,1-46.37,18.69c4.21,6.12,8.41,13.71,14.93,16.94A139.39,139.39,0,0,0,590,1890.83a71.31,71.31,0,0,1-14.84-21.59l-.83.56-.05,0Zm-90,18.44c2.11,5.11,2.21,13.5,9.06,13.94A129.31,129.31,0,0,0,536.4,1906c-5.12-4.94-9.18-11-12.85-16.84a108.05,108.05,0,0,1-39.47-1.63l.19.72Zm-61.87-41.16a122.1,122.1,0,0,0,61.34,52c-1.86-4-2.88-8.59-4.22-12.65-23.07-6.38-43.25-21.15-57.56-40.07l.44.75Z"/><path id="path6173" class="cls-19" d="M509.46,1508.55c-47,3.56-86.88,39.18-102.85,82.49-39.1,87.93-40.56,154.61,7.4,239.45,17.06,31.29,48.62,55.35,84.95,57.4,51.78,4.78,101.77-29.1,121.85-76.12,20.67-43,21.23-64.15,26.2-111.41,5.18-63.12-4.36-116.68-53.51-159-23-20-53-34.29-84.05-32.84Z"/><path id="path6529" class="cls-20" d="M512.37,1508.45l-2.91.09a105.34,105.34,0,0,0-26.25,5.47c17.11,32.38,22.73,88.26,16.66,149.62-3.64,36.75-21.88,70.33-52,95.44,33.77-1,67.45-1.69,101-1.69h3.72c-21.35-23-34.32-51.17-37.31-81.5-7.06-71.41,1.72-135.36,26-163.53a101,101,0,0,0-28.91-3.9Z"/><path id="path6592" class="cls-21" d="M536.15,1511.06c-24.19,28.24-32.93,92.11-25.88,163.41,3,29.84,15.54,57.62,36.28,80.44,2,.78,3.87,1.5,5.75,2.19-21.17-23-34-51-37-81.19-7-71.35,1.71-135.27,25.94-163.47l-.41-.13-1.09-.34c-1.18-.31-2.37-.63-3.56-.91Zm-47.94,2.25c-1.1.38-2.2.75-3.28,1.16l-.13.06-1.12.44c16.73,32.51,22.2,87.89,16.19,148.69-3.64,36.7-21.88,70.3-52,95.4l.9,0c1.55-.36,3-.68,4.32-.88,30-25.08,48.12-58.59,51.75-95.25,6.06-61.37.45-117.25-16.66-149.62Z"/><path id="path5439" class="cls-22" d="M384.74,1761.26c5.91,22.19,15.58,44.92,29.28,69.16,17.07,31.29,48.61,55.36,84.94,57.4,51.77,4.78,101.76-29.1,121.84-76.12,10-20.8,15.29-36.47,18.66-52.47-83.13-11.71-167.81-10.48-254.72,2Z"/><path id="path6200" class="cls-23" d="M541.28,1512.36c-24.28,28.17-33.06,92.12-26,163.53,3,29.84,15.54,57.59,36.28,80.42,29.53,11.86,52,13.39,88,2.65,3.25-15.56,4.7-31.44,6.86-52.47.2-2.07.42-4.11.63-6.13q.48-5.91.78-11.72c.3-5.8.47-11.52.47-17.15q0-5.64-.22-11.16c-.15-3.68-.4-7.31-.72-10.91-.16-1.8-.33-3.59-.53-5.37-.4-3.56-.88-7.08-1.47-10.56s-1.28-6.94-2.06-10.35-1.64-6.75-2.63-10.06a150.42,150.42,0,0,0-7.25-19.44q-2.14-4.73-4.65-9.34t-5.41-9.1c-1.93-3-4-5.94-6.19-8.84-1.1-1.45-2.23-2.88-3.4-4.31-.59-.72-1.18-1.45-1.78-2.16-2.41-2.84-5-5.62-7.66-8.37-1.34-1.37-2.71-2.75-4.13-4.1h0c-.7-.67-1.4-1.36-2.12-2h0c-.73-.66-1.45-1.34-2.19-2h0c-.75-.66-1.48-1.34-2.25-2q-1.41-1.22-2.85-2.4c-.51-.43-1-.84-1.56-1.25-.74-.6-1.52-1.2-2.28-1.79s-1.36-1.07-2.06-1.59l-.22-.16c-.93-.69-1.87-1.39-2.81-2.06l-1.88-1.31c-.4-.28-.81-.57-1.22-.84l-1.18-.79-2-1.28-.44-.28c-.91-.57-1.83-1.16-2.75-1.72-.73-.44-1.48-.85-2.22-1.28l-1.06-.59-1.47-.81c-.61-.34-1.23-.68-1.85-1l-.71-.38c-.89-.46-1.77-.9-2.66-1.34s-1.68-.83-2.53-1.22l-.88-.41c-1.08-.49-2.15-1-3.25-1.44l-.18-.09-1-.41-2.53-1-.16-.06c-1.12-.43-2.25-.85-3.38-1.25-.68-.24-1.37-.49-2.06-.72l-.56-.18c-.64-.21-1.29-.43-1.94-.63l-.25-.06c-.77-.24-1.56-.47-2.34-.69Z"/><path id="path6424" class="cls-24" d="M483.21,1514c-1.1.38-2.2.75-3.28,1.16a.75.75,0,0,0-.13.06c-1.34.51-2.67,1.06-4,1.63-2.65,1.12-5.25,2.36-7.81,3.68-1.28.67-2.56,1.36-3.81,2.07h0c-1.25.7-2.47,1.43-3.69,2.18s-2.46,1.55-3.66,2.35-2.39,1.62-3.56,2.47-2.05,1.47-3.06,2.25l-.57.43c-1,.75-1.9,1.51-2.84,2.28l-1,.82c-.87.72-1.74,1.47-2.59,2.22-.1.08-.18.19-.28.28-1,.91-2,1.83-3,2.78s-2,1.87-2.94,2.84l-.25.25c-1,1-2,2-2.94,3.1l0,0c-1,1.05-1.93,2.13-2.88,3.22-.47.54-.94,1.1-1.4,1.65s-.92,1.12-1.38,1.69c-.68.85-1.36,1.7-2,2.56l-1,1.25-.93,1.28c-.39.52-.79,1-1.16,1.57-.07.09-.12.18-.19.28-.69,1-1.36,2-2,3-.35.51-.69,1-1,1.56s-.76,1.16-1.13,1.75-.86,1.37-1.28,2.06l-.31.53c-.54.9-1,1.81-1.56,2.72-1.64,2.9-3.15,5.87-4.56,8.88-.29.61-.57,1.22-.85,1.84-.07.16-.15.31-.22.47-.47,1.05-.93,2.12-1.37,3.19-.15.35-.3.7-.44,1.06l-.16.37c-.43,1.08-.84,2.16-1.25,3.25-.87,2-1.73,3.93-2.56,5.91a338,338,0,0,0-26.25,119.19v.06a205.94,205.94,0,0,0,6.27,42.46c17.52,16.53,49.62,2.51,64.05.23,30-25.09,48.12-58.59,51.74-95.25,6.07-61.37.46-117.25-16.65-149.62h0Z"/><path id="path5421" class="cls-25" d="M436.69,1718c.06-18.09,31.37-33.45,70.06-33.45s73.78,13.1,70.06,33.45c-2.42,13.25-9.41,10.84-40.34,2.34-8.52-2.34-45.07,3.42-70.74,3-17.49-.3-29.11,12.77-29-5.32Z"/><path id="path5423" class="cls-26" d="M449,1702.25c-6.68,4.56-11.9,13.14-9.21,21.34,4.17,3.81,10.13-1.65,15.13-1.54,7.21-1.82,14.65-1.32,22-1.37,19.55-.53,39-4.13,58.6-3,11.28,1.92,22,7.28,33.61,7,5.56-1.34,6.12-8.83,4.86-13.35-5.15-2.18-11.14-2.91-16.54-4.81a50.42,50.42,0,0,0-20.83-1.76c-20.06,1.1-40.07,3.63-60.18,3.27-7.62.58-15,5.63-22.71,3.39-3.64-1.55-4-7.15-4.73-9.18Z"/><path id="path5427" class="cls-25" d="M455.63,1690.15c-4-8.68,10.46-16.23,19.22-21.33,15.71-9.07,24.83-7.68,42.4-4,11.33,1.06,49.21,6.12,42.71,25.38-8.12,12-27.44,5.62-43.16,5-26.22-1-53.62,11.26-61.17-5Z"/><path id="path5429" class="cls-27" d="M555.17,1679.65c-8.12,7.46-20.37,5.72-30.42,4.41-16.32-2.63-32.71,0-48.84,2a54.8,54.8,0,0,1-18-1c-1.78,5.55,4.47,10.26,9.54,10.51,15.47,2,30.67-3.7,46.21-3,11.56-.13,23.18,3.37,34.65,1.85,5.08-.61,11.62-4.63,9.65-10.54-.44-1.48-1.46-4-2.77-4.3Z"/><path id="path6716" class="cls-28" d="M497.93,1890.55l.19.72c1.84,4.47,2.17,11.47,6.81,13.44h0A136.1,136.1,0,0,0,536.4,1906a75.63,75.63,0,0,1-10.25-12.84,104.51,104.51,0,0,1-28.22-2.63Zm-38.81-12.31a120.82,120.82,0,0,0,23,16.65c-.95-2.83-1.71-5.76-2.6-8.46a101.39,101.39,0,0,1-20.4-8.19Zm120.66-.31a121.19,121.19,0,0,1-38,13.59c2.86,4.15,5.73,9,9.31,12.66A139.82,139.82,0,0,0,590,1890.83a63.88,63.88,0,0,1-10.22-12.9Zm45.53-42a132.84,132.84,0,0,1-32.94,34,73.65,73.65,0,0,0,8.59,14.62,140.21,140.21,0,0,0,37.78-34.84A66.83,66.83,0,0,1,625.31,1836Zm27-61.22c-4.55,16.27-11.29,31.86-18.72,46.93A87.21,87.21,0,0,0,645.15,1840a256.5,256.5,0,0,0,23.44-51.47,55.39,55.39,0,0,1-16.31-13.81Zm10.81-75.57c-1.34,18.57-3.66,37.15-6.25,55.47a81.29,81.29,0,0,0,14.75,23.25c5.72-23.17,7.66-47.31,9.84-70.93a58,58,0,0,1-18.34-7.79Zm-8.38-88.93.35.93,0,.19c7.88,24.16,9.6,49.84,8.66,75.13a86.5,86.5,0,0,0,18.15,14c1.72-29.87-.34-60.57-11.53-88.38a82.28,82.28,0,0,1-15.66-1.84Zm-29.9-51.53.65.75.63.75a145.85,145.85,0,0,1,26.75,44.72,63.41,63.41,0,0,0,14.19-.54,146.22,146.22,0,0,0-32.78-44.81,82.37,82.37,0,0,1-9.44-.87Zm-38.56-32.13c12.1,7.16,23,16.32,33,25.91q3.63.13,7.28,0a166.64,166.64,0,0,0-40.31-25.88Z"/></g><path id="path6841" class="cls-29" d="M481.19,1678.39c58.66,11.3,88.52-11.38,117.78-34.78,57.54-75.16,71.41-187.19,65.92-278.69-56.48-101.76-117.68-74-196.79-24.43-44,68-88.38,163.13-73,246.75,26.2,51.73,30.49,73.88,86.11,91.15Z"/></g></g><g id="g9149"><g id="g9106"><path id="path7402" class="cls-30" d="M248.36,1124.47C268,1037,406.63,1007.74,443.48,938.9c11.43-20,281.95-92.56,313.25-101.59S905.87,713.53,916.7,736c-5.43,14.42,81.61,75.7,109.44,75,21.75-.59-102.46,111.45-125.32,134.3-23,129.51,56.83,118.51-24.17,184.56s-403.4,179-482.77,120.26c3.9-15.6,11-32.93,13.22-47.19,2.35-15-46.36,10-54.55-.13-1.15-1.42,6.63-4.06,6.87-7.12,4.72-60.52-85.4-80.26-111-71.19Z"/><path id="path9015" class="cls-31" d="M403.21,1198c1.33-30,6.16-65.94,8.54-95.86,2.84-34.33,22.08-110.55,32.95-144.52,5.32,1.1,7,2.52,4.82,7.65-12.77,48.3-30.69,139-34.8,186.11-1.27,13.23-4.4,35.16-6.22,48.32,0,3-4.1.2-5.3-1.7Z"/><path id="path8581" class="cls-32" d="M885.66,747.46c-6.4-.12-21.87,10.75-45.78,30.94-33.38,26.11-68.16,54.58-83.15,58.91-31.3,9-301.82,81.59-313.25,101.59-9.33,17.43-25.2,32.33-44,46.28,3.4,2.49,6.92,4.79,10.53,6.93-8.57,56.21-10.74,113.2-16.16,169.78-10.4,1.11-20.5,4.37-30.65,6.54,3.31-25.61-13.19-49.79-34.57-62.25a121.72,121.72,0,0,0-60.33-19.34,102.09,102.09,0,0,0-17.16,34.62c31.18-4,63.63,5.94,88.31,25,14.37,12.14,25.16,31.61,21.5,50.75-.43,2.59-6.39,5.67-4.53,6.31,16.12.38,31-7.62,47-7.4,6.21-65.66,8.54-132,20.07-196.91,2.48,1.13,5,2.21,7.53,3.21-.05.36-.09.71-.13,1.07-11.26,62.81-12.5,126.89-19.87,190.22.22,4.3,3.31,7.87,1.75,12.37-3.47,14-8.2,27.86-10.47,42.28a89.07,89.07,0,0,0,9.37,4.25l.13.07.16.06a7.22,7.22,0,0,0,.87.34c1,.36,2.06.73,3.09,1.06a120.58,120.58,0,0,0,28.47,5.66c15.87,1.52,32.06.74,48.07-.72l.53,0,2.53-.16c5.64-.54,11.29-1.17,16.9-1.87l.44-.06,2.81-.32c1.22-.16,2.44-.35,3.66-.53,1.51-.2,3-.44,4.53-.65H524a730.26,730.26,0,0,0,79.1-16.13,1075.67,1075.67,0,0,0,111.59-35.47c2.89-1,5.8-2.09,8.68-3.15,25.53-9.73,50.91-20.11,75.54-32,20.27-9.61,40.12-20.17,58.65-32.69,2.4-1.56,4.82-3.14,7.19-4.75,10.23-7.55,20.45-15.49,28.91-24.94,4.57-4.84,8.7-10.07,11.43-16l.07-.09c.31-.57.63-1.13.93-1.72a35.08,35.08,0,0,0,1.13-3.84c.05-.19.11-.38.15-.57s.07-.5.1-.75a28.28,28.28,0,0,0,.5-5.28l-.28.13c-.33-15.25-9.57-29.19-12.06-44.28-7.15-30.17-6.64-62,.25-92.16,42-41.46,87.84-79.65,125-125.34-14.23-2-26.88-9.36-39.35-16.12l-.54.88-.34.56c-14.4,21.8-34.71,38.86-52.69,57.69-23.76,23.1-48.06,45.68-72,68.62-7.19,37.52-4.67,77.18,10.28,112.31,4.93,14.33,4.49,31.76-5.91,43.63a158,158,0,0,1-27,27.75h0a1084.75,1084.75,0,0,1-198.38,59c-42.13,7.7-86.07,13.08-128.44,4.15-10.85-2.66-21.33-7-30.34-13.62,7.1-26.14,9.19-47.73,11.09-73.31,2.44-24.16,4.33-48.36,6.35-72.57q10.31.65,20.5.53c20.75.29,41.41,4.76,59.87,14.35,53.23,17.43,116.06-4.2,147.78-50,17-18.19,41.17-26.14,60.72-40.94,32.23-21.49,59.38-54.06,64.63-93.56,1.61-11.34,32.88-63.84,40.28-85.85,2.81-8.36,2.22-12.39-1.63-12.46ZM413.07,1252.21c.25,0,.54,0,.82,0h-1.38C412.7,1252.23,412.85,1252.21,413.07,1252.21Z"/></g><g id="g9142"><path id="path7404" class="cls-33" d="M406.23,1253c-16.16,36.37,12.13,46.47,8.09,70.71s-68.69,139.4-92.94,147.48,276.7,169,383.86,78.8c15.32-21.06-62.37-80.81-12.73-115.45C756.84,1523,787.36,1518,879,1438.83c-100.13-6.56-106.32-108.42-48-157.82,109.27-92.51,76.8-132.3,72.22-138.16C846.66,1195.38,681,1293.36,592.1,1291.34s-145.46,0-185.87-38.38Z"/><path id="path8939" class="cls-34" d="M889.56,1177.3C820.09,1230,742,1271.84,659.1,1299c-36.08,10.53-74.15,12.27-111.51,9.33-42.23-.83-86.35-2.36-124.81-21.57,6.66,13.53,13.48,29,8.17,44.22-5.69,21.76-18.37,40.81-28,61-15.85,28.87-33.79,56.84-55.62,81.53,7.28,4.29,14.32,9,21.87,12.78,2.05-40.7,33.25-76.11,71.6-87.78,64.81-23.41,144-1.86,186.47,52.44,20.07,26.48,28.86,63.36,15.69,94.86-1.58,4.15-3.84,8.29-5.57,12.14,17.79-2.12,36.21-6.73,50.56-18.16-6.21-17.23-19-31.26-24.72-48.68-7.49-18.84-8.16-42.51,5.47-58.72,7.47-9.53,17.66-16.37,28.53-21.28,20.1,24.44,36.57,55.12,66.82,68.34,19.52,6.31,39-5,54.59-15.88,5.19-2.33,1.91-3.87-1.94-5.81-35.07-21.32-63.62-58.46-64.78-100.81-.37-42.65,30.43-82,70.37-95,17.41-8.79,28.88-25.19,42.34-38.65,11.94-13.92,22.72-29.57,27.2-47.64l-2.25,1.72Z"/><path id="path9104" class="cls-35" d="M869.2,1258.19c-82.86,6.43-113.58,54.28-114.29,71.43s0,32.15,0,32.15-14.28-30.72-9.28-50-8.57-25.72-8.57-25.72l-36.43-10.71s90-49.29,106.43-52.15,82.14-17.85,85-15.71-22.86,50.71-22.86,50.71Z"/></g></g><g id="g9767"><g id="g5017"><g id="g4983"><g id="g4365"><path id="path4367" class="cls-36" d="M697,493.68c-6.23,1.62-14.51,7.82-21.43,26.86a1.36,1.36,0,0,0,.09.23c-38.2,40.56-42.36,100.73-8.18,138.33,36.12,39.71,101.37,39.19,145.75-1.17s51.11-105.27,15-145c-15.9-17.48-37.46-27.14-60.4-29.06,4.09-1.88,1.92-4-4.33-2.52-6.6,1.59-6.42.81-3.3.05s2-3.77-11.62.62a89.48,89.48,0,0,0-8.54,3.24c-3.11.57-6.24,1.25-9.33,2.09h0c-2.38-.48-8.39.61-9.59.89-.73.18-3.86,2.47-7.64,5.38a118.72,118.72,0,0,0-21.77,12.9,6.65,6.65,0,0,1-.26-5.6c1.6-4.06,15-6.56,15-6.56a13.7,13.7,0,0,0-9.4-.7Z"/><path id="path4369" class="cls-37" d="M726.82,521a6.88,6.88,0,0,0-2.3,1.1s.88.89.83,1.44c0,0,0,0,0,0l-.92.41h0c-2,0-2.46.77-4.3.3s-11.21,3.88-11.66,3.9,7-1.17,9.67-1c-1.92,1.1-3.79,2.27-5.64,3.55-2.31.31-5.84,1.19-11.51,1.87-10.62,1.27-4.69,2.58,4.31,3.72-.48.41-1,.82-1.44,1.25-29.85,27.14-34.36,70.79-10.07,97.5s68.16,26.36,98-.79,34.39-70.8,10.1-97.51c-17.68-19.45-45.76-24.54-71.24-15.4l-1-.36a4.73,4.73,0,0,0-2.78-.07Z"/></g><g id="g4361"><path id="path2822" class="cls-38" d="M314.37,616.09c-38.53,9.35-68.9,38-75.39,76a88.74,88.74,0,0,0,4.91,47.32c-.45,4.4,2.42,12.86,3.74,8.45,1,2,2.13,4,3.3,6-.54,3.13,2.36,4.91,3.55,5.64l.1,0c.77,1.1,1.53,2.21,2.34,3.29a39.54,39.54,0,0,0,1.36,9.25c1.05,3.44,1.36-.75,2.59-4.32.77.9,1.55,1.77,2.35,2.65a55.83,55.83,0,0,0,1.51,7.9l4-.43s-.3-1.3-.5-2.2A116.65,116.65,0,0,0,329.7,806.2c59.14,10.09,114.39-24.62,123.43-77.54s-31.57-104-90.71-114.08a118.87,118.87,0,0,0-48.05,1.51Z"/><path id="path3670" class="cls-39" d="M324.74,647c-15.55,3.78-29.13,12.21-38.44,23.89a10.36,10.36,0,0,1,3.58.2c7.33-.76,5.87,1.61,2.8,1.87s-6.83,1.08-8.78,2.79-1.62,4.06-.82,3.15.39-2.57,4-2.86,7.05,1.54,3.29,2.45-4.86-1.77-9.48,3.63-4.6,6.12-2.78,4.85,3.59-1.12,2.38.3a13.09,13.09,0,0,1-4.07,2.68.47.47,0,0,1-.34,0,58.35,58.35,0,0,0-2.07,8.21c-5.06,29.63,13.06,58.4,42.21,71.12-1.74-3.76-1.65-5.21-1-5.25s1.33.79,1.87,2a24.07,24.07,0,0,0,2.64,4.67c.94.36,1.89.69,2.84,1a7.42,7.42,0,0,1-.79-1.42c-1.44-3.32-.79-7.14,1.29-3.88,1.78,2.81.41,4.62,4.19,6.74,2.32.63,4.71,1.16,7.14,1.59-1.21-1.18-1.35-2.39.14-1.8a11,11,0,0,1,3.23,2.34c38.74,5.3,74.37-17.77,80.3-52.55,6.08-35.59-21.24-70-61-76.75a79.94,79.94,0,0,0-32.31,1Z"/></g></g><g id="g4868"><path id="path2820" class="cls-40" d="M752.23,693.11c29.91,124.18-72.35,68.71-174.29,93.27S413,906.22,383.08,782s28.47-244.76,130.4-269.32S722.31,568.92,752.23,693.11Z"/><g id="g3797"><path id="path3648" d="M575.73,662.51c1.74,7.23-.37,13.94-4.72,15s-9.29-4-11-11.2.37-13.93,4.72-15S574,655.28,575.73,662.51ZM540,671.12c1.74,7.23-.37,13.94-4.73,15s-9.28-4-11-11.19.38-13.94,4.73-15S538.25,663.89,540,671.12Z"/><path id="path3658" class="cls-41" d="M571.4,660.89l-1.28-.71.84,1.2-1.16-.9.64,1.32-1-1.07.43,1.4-.82-1.21.19,1.45-.61-1.33,0,1.46-.4-1.4-.26,1.44-.18-1.46-.48,1.39.05-1.47-.69,1.29.28-1.43L566,662l.5-1.37-1,1,.71-1.28-1.21.83.91-1.15-1.32.64,1.07-1-1.4.42,1.21-.82-1.45.2,1.33-.62-1.47,0,1.41-.4-1.44-.26,1.45-.18-1.38-.48,1.46.05-1.29-.69,1.44.28-1.17-.89,1.38.5-1-1.06,1.28.71-.84-1.2,1.16.9-.64-1.32,1,1.07-.43-1.4.82,1.22-.19-1.45.61,1.32,0-1.46.41,1.41.26-1.44.18,1.45.48-1.38-.05,1.46.69-1.29-.28,1.44.89-1.17-.5,1.38,1-1-.71,1.28,1.2-.83-.9,1.15,1.32-.63-1.07,1,1.4-.42-1.21.82,1.45-.2-1.33.62,1.47,0-1.41.4,1.44.26-1.45.18,1.38.48-1.46-.05,1.29.7-1.44-.28,1.17.88-1.38-.5,1,1.06ZM567.5,672a1.37,1.37,0,1,1-1.7-1.31A1.53,1.53,0,0,1,567.5,672Zm-31.76-1.47-1.55-.85,1,1.45-1.4-1.09.77,1.6-1.21-1.3.52,1.7-1-1.47.24,1.75-.75-1.6,0,1.77-.49-1.7-.32,1.74-.21-1.76-.59,1.68.07-1.78-.84,1.57.33-1.74-1.07,1.41.61-1.67-1.28,1.23.86-1.55L528,671l1.09-1.4-1.59.77,1.29-1.21-1.69.52,1.46-1-1.75.24,1.6-.75-1.77,0,1.71-.49-1.75-.32,1.76-.21-1.67-.59,1.77.06-1.56-.83,1.74.33L527.18,665l1.66.61-1.22-1.28,1.55.86-1-1.46,1.4,1.09-.77-1.59L530,664.5l-.51-1.69,1,1.46-.24-1.75.75,1.6,0-1.77.49,1.71.31-1.75.22,1.76.58-1.67-.06,1.77.84-1.56-.34,1.74,1.07-1.41-.6,1.66,1.27-1.22-.85,1.55,1.45-1-1.09,1.4,1.6-.77-1.3,1.21,1.7-.51-1.47,1,1.75-.24-1.6.75,1.77,0-1.7.49,1.74.31-1.76.22,1.68.58-1.78-.06,1.57.84-1.74-.34,1.41,1.07-1.67-.6,1.23,1.27Zm-3.35,9.75a1.28,1.28,0,1,1-1.58-1.23A1.43,1.43,0,0,1,532.39,680.31Z"/><path id="path3668" class="cls-42" d="M568.93,645.53c11.42.8,20.39,12.41,16.41,23.48.13-11-9.53-19.1-16.41-23.48ZM523,656.6c-9.81,5.91-12.5,20.33-3.91,28.37-5.11-9.71-.22-21.34,3.91-28.37Z"/></g><g id="g4862"><path id="path3701" class="cls-43" d="M509.28,481.26l-3.12.78c-67.32,17.56-114.1,64.77-129,125.06-9.88,40.11-20.27,82.67-7.4,132.71,36.92-41.84,101.51-78.59,179.52-97.39,72.58-17.48,141.88-15.84,193,.92-20.7-60.46-46-86-82.38-121.24-34.47-33.36-84.89-56.86-150.67-40.84Zm10.19,43.61c16-4.06,29-4.62,39.27-1.49,26,10,47.35,56.26,59.82,79.93C570,593.38,497.63,617,458.65,644c-1-27.62-2.38-75.2,16-96.74,9.51-10.06,24-16.68,41.62-21.54,1.09-.3,2.16-.6,3.23-.87Z"/><path id="path4587" class="cls-44" d="M510.78,487.49l-3,.75c-65.32,17-110.07,62.37-124.36,120.39-9.06,36.78-18,74.48-9.84,117.8,39-39.28,100.79-72.53,174.24-90.23,68-16.38,133-16.13,184.06-2.4-19.46-50.91-42.6-74.38-76.39-107.08-33.3-32.25-81-54.75-144.68-39.25h0Zm1.36,5.52c61.76-15,107.12,6.57,139.4,37.81,31.39,30.38,52.82,51.57,71,94.66-50.35-11.29-112-10.26-176.06,5.19-69.6,16.77-128.93,47.25-169,84.15C372.72,677.18,380.67,643.66,389,610c13.79-56,56.73-99.67,120.24-116.24l2.94-.74Zm4.34,20.14c-1.27.32-2.42.64-3.47.93-18.68,5.16-35.27,12.26-47.18,24.87-.14.15-.29.32-.42.48-12.13,14.24-16.13,33.59-18.06,52.73s-1.31,38.44-.81,52.3a12.1,12.1,0,0,0,19,9.5c35.93-24.87,108.09-47.49,150.6-38.79a12.11,12.11,0,0,0,13.11-17.5c-6-11.48-14.67-29.4-25.36-46s-23-32.73-40.81-39.57l-.81-.29c-13.38-4.08-28.56-3-45.8,1.36Zm1.39,5.51h0c16.63-4.22,30.79-5,42.7-1.41l.42.15c15.53,6,27.65,21.12,38.08,37.34s19,34,25.13,45.6a6.41,6.41,0,0,1-7,9.27c-45.35-9.28-117.62,13.82-155,39.68a6.41,6.41,0,0,1-8.92-1.61,6.47,6.47,0,0,1-1.14-3.43c-.5-13.83-1.11-32.89.77-51.51s6-37,16.72-49.61l.23-.25c10.78-11.4,26.39-18.28,44.56-23.3,1.06-.3,2.19-.61,3.35-.91Z"/></g><path id="path3697" class="cls-45" d="M459.68,643.08c-4.92-69.08-11-179.45,67-217.25-50.16,46.05-50.19,135.52-38.4,108,5-34.29,23.87-71.13,59.29-75,5.55-1.34,16.59,4.82,16.59,4.82-21.65,5.14-52.74,30.68-52.68,61.91,13.68-24.33,31.83-39.39,56.86-44.55,0,0,13.56-1.38,13.29,1.73-15.93,10.3-35.16,3.85-42.06,33.33-3.16,5.17-1,5.91,13.08-2.63s32-7.71,19.48-3.83c-5.51,1.7-17.32,12.85-17.32,12.85,30.49,10.67,50.39,53.71,65,80.6.75,2.85-58-21.29-160.07,40Z"/></g><g id="g4903"><path id="path3748" class="cls-46" d="M612.92,913.81c-16,4.54-31.51,11.5-44.76,21.69-7.33,5.72-14,12.78-17.52,21.49-2.95,7.54-2,16.74,3.28,23,5.1,6.44,12.56,10.42,20,13.52a107.63,107.63,0,0,0,39.36,8.68c13.68.41,27.32-2.87,39.72-8.55a105.36,105.36,0,0,0,27.8-19,111.64,111.64,0,0,0,19.74-23.5,25.61,25.61,0,0,0,3.59-16.29c-.84-6.74-5.22-12.63-10.75-16.38-7.35-5-16.13-7.56-24.87-8.9-15.28-2.27-30.88-1-46,2-3.23.65-6.45,1.37-9.64,2.2Z"/><g id="g4899"><path id="path2818" class="cls-47" d="M811.73,805.23c19.78,82.12-67.31,132.3-184.66,160.57s-220.52,23.93-240.3-58.18S400.88,746.9,563.42,707.74,791.94,723.12,811.73,805.23Z"/><path id="path4012" class="cls-48" d="M566.06,718.69C417.3,754.53,386.27,826.46,404.38,901.61s112.53,79.13,219.93,53.25,187.11-71.79,169-147-78.49-125.06-227.25-89.22Zm2.85,11.81c133.89-32.25,188.24,12.69,204.53,80.33S718,919.79,621.35,943.07s-181.65,19.74-198-47.9S435,762.76,568.91,730.5Z"/></g><g id="g4894"><path id="path3708" class="cls-49" d="M430.43,881.9a70.27,70.27,0,0,0,.19,30.82c14.09,58.5,103.28,87.2,199.21,64.09S792.09,887.53,778,829c-7-28.92-32.31-50.52-67.71-62.22-1.51,1.53-3,3-4.6,4.77q-3.71,4.14-7.75,9.2a38.18,38.18,0,0,1-5.79,5.57c-2.49,2-5.52,4.17-9,6.44s-7.41,4.67-11.71,7.17-9,5.08-14,7.73c-10,5.29-21.09,10.83-32.78,16.42s-23.94,11.2-36.11,16.63-24.25,10.7-35.63,15.53-22.05,9.24-31.39,13-17.35,6.94-23.39,9.23-10.11,3.73-11.59,4.08a115.38,115.38,0,0,1-12,2.21c-2.47.33-5.14.62-8,.8s-5.92.28-9.11.24-6.52-.23-10-.59-7-.89-10.65-1.64c-2.12-.44-4.31-1.13-6.46-1.73Z"/><g class="cls-50"><path class="cls-51" d="M690.56,764a.37.37,0,0,0-.17.1c-1.75,1.95-3.56,4.11-5.43,6.39,2.83,2.08,9.2,11.21,10.28,10.11,30,9.93,51.55,28.26,57.47,52.8,12,49.65-44.32,105.79-125.73,125.41s-157.11-4.74-169.07-54.39a59.61,59.61,0,0,1-.15-26.15c1.21.33.52-7.17.45-12.19-1.26-.08-2.55-.17-3.85-.3a98.4,98.4,0,0,1-9.87-1.53c-2-.41.76,18.65-1.24,18.1a65.19,65.19,0,0,0,.16,28.59c13.08,54.3,95.85,80.91,184.87,59.47s150.58-82.84,137.5-137.13c-6.46-26.83-30-46.9-62.85-57.75-1.36,1.38-10.46-12.18-12.38-11.53Z"/></g><path id="path4089" class="cls-52" d="M715.41,758.76a3,3,0,0,0-.63.18.32.32,0,0,0-.13.1c-3.61,4.37-6.1,9.26-5.93,15.15a.26.26,0,0,0,.07.15,1.75,1.75,0,0,0,.84.82,1.44,1.44,0,0,0,1.18-.06.28.28,0,0,0,.16-.23v0a21.25,21.25,0,0,1,1.23-6.37c34,11.79,58.16,32.87,64.88,60.77,6.95,28.85-5.91,59.69-32.57,86.28s-67.09,48.85-114.9,60.37S535.67,986,499.83,974.47s-61.34-33.13-68.29-62a68.16,68.16,0,0,1-.61-27.88,27.32,27.32,0,0,0,8.8-1.22.41.41,0,0,0,.13-.08,1.72,1.72,0,0,0,.6-1.11,1.33,1.33,0,0,0-.55-1.12.29.29,0,0,0-.25-.07c-6.44.6-10.26,1.53-15.89-.48a.31.31,0,0,0-.31,0,1.48,1.48,0,0,0-.52,1.06,1.79,1.79,0,0,0,.43,1.12.4.4,0,0,0,.12.1,19.14,19.14,0,0,0,5.53,1.62,70.41,70.41,0,0,0,.69,28.48c7.15,29.65,33.3,51.65,69.55,63.31s82.68,13.06,130.79,1.47,88.81-34,115.77-60.87,40.23-58.39,33.08-88c-6.91-28.69-31.65-50.14-66.06-62.07a32.94,32.94,0,0,1,3.92-6.66.32.32,0,0,0,.06-.15.28.28,0,0,0,0-.13,1.51,1.51,0,0,0-.52-.83,1.19,1.19,0,0,0-.88-.21Z"/></g></g><g id="g4883"><path id="path3639" class="cls-53" d="M471.19,753.44c4.25,26.72,23.55,26.3,42.28,11.53,13.63,13.19,34.61,21.19,62.11,14.57,29.65-7.15,41.28-26.35,45.33-45.88,14.18,4.55,47.23,4.57,37.11-25.21-14-56-196.46-15.64-186.82,45Z"/><path id="path3887" class="cls-54" d="M567.31,686.83c2.72-.51,5.44-1,8.15-1.39C572.75,685.84,570,686.32,567.31,686.83Zm-29.37,7.65c-1.32.44-2.63.89-3.92,1.35C535.32,695.36,536.62,694.92,537.94,694.48ZM534,695.84c-1.3.46-2.59.95-3.87,1.44Q532.07,696.53,534,695.84Zm-3.87,1.44c-1.28.49-2.55,1-3.81,1.52C527.6,698.28,528.88,697.77,530.15,697.28Zm-3.81,1.52c-1.06.43-2.12.88-3.16,1.33C524.23,699.68,525.27,699.24,526.34,698.8Zm24.91-6.86c-40.52,10.21-77.35,32.38-73.22,58.62,3.75,23.87,21.31,23.43,38.41,10.15,12.35,11.74,31.41,18.8,56.45,12.77,27-6.51,37.66-23.74,41.43-41.21,12.88,4,42.94,3.92,33.86-22.67-6.46-25.8-53.78-28.52-96.93-17.65ZM519,702c-1.2.55-2.38,1.13-3.54,1.71C516.6,703.14,517.78,702.56,519,702Zm-10.71,5.5c-.91.52-1.83,1-2.72,1.57C506.44,708.55,507.36,708,508.27,707.51Zm-3,1.74c-.72.44-1.43.9-2.14,1.35C503.81,710.15,504.51,709.69,505.24,709.25Zm-3.54,2.25c-.81.53-1.6,1.08-2.39,1.62C500.09,712.58,500.89,712,501.7,711.5Zm116.88-27.24c1,.12,1.93.25,2.88.39Q620,684.44,618.58,684.26Zm2.88.39c1,.15,2,.32,3.06.5C623.51,685,622.5,684.8,621.46,684.65Zm-128.29,33.1c-.67.54-1.31,1.09-1.95,1.64C491.85,718.84,492.51,718.29,493.17,717.75Zm139-30.85c.84.23,1.66.51,2.47.77C633.81,687.41,633,687.14,632.16,686.9Zm3.18,1c.95.32,1.88.66,2.78,1C637.21,688.54,636.29,688.2,635.34,687.88Zm2.78,1c.71.28,1.39.57,2.07.87C639.52,689.46,638.82,689.17,638.12,688.89ZM483.8,727c-.4.49-.8,1-1.17,1.46C483,727.93,483.4,727.45,483.8,727Zm-2.95,3.95q-.8,1.2-1.5,2.43Q480.05,732.11,480.85,730.91Zm-1.5,2.43c-.24.4-.47.8-.69,1.21C478.88,734.14,479.11,733.75,479.35,733.34Zm40.6,35c.72.59,1.42,1.19,2.17,1.76C521.38,769.58,520.66,769,520,768.38Zm89.78-6.48c-.87,1-1.8,2-2.78,2.92C607.93,763.87,608.86,762.9,609.73,761.9Zm-11.12,9.54a59.67,59.67,0,0,1-6,3.36A59.67,59.67,0,0,0,598.61,771.44Zm-6,3.36c-1.43.69-2.94,1.36-4.5,2C589.64,776.16,591.15,775.49,592.58,774.8Zm-38.1,7.3c1.44.1,2.89.18,4.38.19C557.37,782.28,555.91,782.2,554.48,782.1Zm8.93,0c1.55-.09,3.1-.21,4.69-.4C566.51,781.93,565,782.05,563.41,782.14Zm7.11-.73c1.62-.24,3.25-.54,4.91-.89C573.77,780.87,572.14,781.17,570.52,781.41Z"/><g class="cls-55"><ellipse class="cls-56" cx="561.55" cy="722.78" rx="54.39" ry="30.57" transform="translate(-153.67 151.63) rotate(-13.55)"/></g></g></g><g id="g6845"><path id="rect6760" class="cls-57" d="M842.65,1209.5c-33.37,35-31,65.2-27.9,95.35,25.94,72.05,96.08,130.52,160.72,166.84,94,6.12,101.85-47.67,102.77-123.17-27-59.7-72.29-131.54-135.89-157.7-46.66-4.82-63.6-11.6-99.7,18.68Z"/><g id="g4669"><g id="g4642"><path id="path3257" class="cls-58" d="M942.78,1419.85c-9.94,9.41-14.86,29.87-11.36,66.35a41.26,41.26,0,0,0,3.67,23.49,36.69,36.69,0,0,0,2.68,4.59l.63.91c8.55,11.69,23.64,18.15,40.23,17.32l.45,0a60.49,60.49,0,0,0,12.12-2l.68.16c22.22,5.25,27.12,19.48,27.83,38,0,1.18.07,2.36.09,3.58.34,29.36-7.28,68.18,25.36,99.13a37.19,37.19,0,0,0,8.15,14.77c27.3,29.8,100.87,6.83,164.3-51.29s92.7-129.4,65.39-159.2a36.22,36.22,0,0,0-10.69-8l.6-1a64.18,64.18,0,0,0-14.1-11.54c-22.47-19.88-41-27.32-56.54-30.13-.93-.16-1.85-.32-2.76-.45-32.83-4.92-52.58,9.47-70.33-34.74a85.92,85.92,0,0,0,.86-25c-.06-.47-.12-.92-.19-1.38a46.05,46.05,0,0,0-4.36-14l-.2-.41c-.29-.54-.58-1.09-.89-1.61-6.26-10.59-16.45-15.56-26.68-16.91l0,0c-.91-.12-1.83-.21-2.74-.28l-.06,0c-54.78-5.12-77.06,11.2-77,37.6a147.49,147.49,0,0,0-17.73,13.86c-9.47,8.64-18.75,19.32-28.54,33.37-11.46-3.11-21.53-2.2-28.87,4.75Z"/><g id="g4623"><path id="path3435" class="cls-59" d="M1000.21,1381.75c-9.47,8.63-18.75,19.31-28.54,33.36,35.11,9.52,83.18,56.87,105.09,84.71q3.32,4.22,6.17,8.69,5.23-5.44,10.93-10.67,4-3.69,8.18-7.15-4.18-3.11-8.09-6.62c-45.09-40.38-75.9-85.21-76-116.18a147.49,147.49,0,0,0-17.73,13.86Z"/><g id="g4550"><g id="g4538"><path id="path3025" class="cls-60" d="M931.41,1486.18c-4,33.55,27.42,53,59.79,44.32,59.68,13.38-2.66,89.92,55.66,142.46l31.71-28.8c29.67-51.26,28.13-106.3-1.84-144.38-38.76-49.24-159.3-159.51-145.32-13.6Z"/><path id="path4228" class="cls-61" d="M947.43,1431.82c-9.21,11.39-7.83,27.11-7.07,40.79,1.4,10.26-.16,21.12,4,30.78,7.34,15.54,26.42,23.21,42.68,19.42,11-1.13,21.34,5.89,27.66,14.38,7.54,10.1,7.42,23.18,8.07,35.16.15,5,0,10.68.16,15.17,7.24-28.11,23-53.37,42.15-75a342,342,0,0,0-65.46-65c-12.13-8.59-25-17.93-40.19-19.5-4.35-.3-8.92.46-12,3.75Z"/></g><g id="g4530"><path id="path3029" class="cls-62" d="M1097.72,1330.53c-122.42-12.83-88,78.1-3.8,153.52,36.79,33,92.15,39.66,146.66,13l31.8-28.89c-82.05-85.23-115.11-8.4-143.2-78.37,6.83-41.33-12.22-56.71-31.46-59.25Z"/><path id="path4217" class="cls-63" d="M1039.74,1353.45c-8,9.17-5.41,22.87-1.28,33.18,12.74,32.21,37.3,57.86,61.75,81.74,3.13,2.88,6.29,5.68,9.57,8.34,27.48-21.86,61.12-37.36,96.54-38.65-14.21-6.16-29.78-7.36-45-7.69-12.48-1.21-24.43-8.1-30.69-19.13-3.56-5.67-7.43-11.72-8.28-18.4,1.83-14.57,0-31.84-12.43-41.38-12.09-8.45-27.58-7.07-41.67-7.53-10,.35-21.14,2-28.5,9.52Z"/></g><path id="path4288" class="cls-64" d="M1012.36,1371.79c-1.23,22.74,15.23,53.63,42.36,84.86-23.71-23.05-53-45.79-76.06-51.1-2.31,3-4.64,6.18-7,9.57,35.1,9.51,83.18,56.86,105.09,84.7a106.29,106.29,0,0,1,6.17,8.7q4.39-4.59,9.14-9-2.86-4.49-6.18-8.71c-2.67-3.39-5.73-7.09-9.11-11q5.58,5.39,11.49,10.69c2.31,2.06,4.68,4,7.14,5.91q3.28-3,6.63-5.77-4.18-3.11-8.09-6.62c-45.09-40.38-75.9-85.21-76-116.18q-2.82,1.89-5.58,3.91Z"/></g></g></g><g id="g4585"><g id="g4577"><g id="g4569"><path id="path3207" class="cls-65" d="M1015.56,1526.71c-12.95-14.24.56-48.79,30.91-76.61s67.3-42.75,79-24.12c7.62,12.14.4,15.28-30,30.84-8.37,4.29-32.9,35.08-53.35,53.18-13.93,12.34-13.65,30.94-26.6,16.7Z"/><path id="path4417" class="cls-66" d="M1014,1505.56c-2,8.38.11,18.86,8.13,23.37,6,0,6.76-8.58,10.75-12.09,4.35-6.61,10.54-11.57,16.27-16.89,15-14.47,27.64-31.29,43.81-44.46,10.24-6.6,22.48-10.08,31.4-18.67,3.4-5-1.54-11.33-5.78-14-5.61,2-10.83,5.71-16.43,8.1a53.81,53.81,0,0,0-17.61,13.6c-14.94,15.28-28.81,31.64-44.85,45.82-5.56,5.94-7.7,15.19-15.37,19-4,1.41-8.29-2.73-10.31-3.8Z"/></g><g id="g4573"><path id="path3205" class="cls-65" d="M1010.45,1491.3c-9.41-3.92-3.46-20.26-.26-30.56,5.81-18.4,14-23.86,30.34-33.64,9.66-7.31,43-30.57,51.76-10.8,2.24,15.25-17.49,24.13-30.27,35-21.3,18-34,47.38-51.57,40Z"/><path id="path4360" class="cls-67" d="M1081,1411.51c-1,11.7-11.87,19.13-20.69,25.33-14.7,9.67-25.66,23.51-36.84,36.71a58.24,58.24,0,0,1-14.83,12.19c2.59,5.63,10.88,4.85,15,1.4,13.59-9.53,21.4-25,34.08-35.58,9-8.42,20.6-14,28.51-23.46,3.54-4.13,5.79-12,0-15.21-1.41-.84-4-2.09-5.26-1.38Z"/></g></g><g id="g4520"><path id="path3074" class="cls-68" d="M1093.85,1497.83c-61,55.94-82.31,132.51-48.82,173.13a37.22,37.22,0,0,0,8.29,15.2c27.3,29.79,100.87,6.83,164.3-51.3s92.69-129.39,65.39-159.19a36.26,36.26,0,0,0-10.7-8c.21-.34.41-.69.61-1-36.56-39.9-116.74-25.94-179.07,31.18Z"/><g id="g4512"><g id="g4508"><path id="path3037" class="cls-18" d="M1272.89,1466.64c-36.57-39.89-116.73-25.94-179.06,31.18s-83.21,135.75-46.64,175.65h0c102.14-39.58,171.81-114.59,225.7-206.83Z"/><path id="path4309" class="cls-69" d="M1128.56,1478.1c28.61-6.87,78.16-7.73,81.06,20,2.4,22.9-77.57,112.36-135.23,148.14-9.45,5.82-19.17,11.23-29.17,16.09,1.74,1.81,2.87,6.64,6,3.89,74.57-29.81,137.44-84.8,183.39-150.16,11.18-15.72,22.35-32,31.3-48.88-17.41-16.23-42.91-20.12-65.74-17-26,3.46-50.63,13.86-72.53,28.17l.65-.17.25-.06Z"/></g><g id="g4504"><path id="path3181" class="cls-70" d="M1048.09,1673.39c3.19,12.67,14.3,22.46,27,25,13.13,3,26.7.85,39.57-2.42-11.31-11-20.8-24.17-26.6-38.88a355.35,355.35,0,0,1-36.37,16.68c-2.54-2.36-5.94-8.2-3.63-.34Zm224.43-201.84q-10.93,18.66-23.21,36.54c14.9,6.37,27.72,16.8,38.4,28.9,5.72-16.23,9.6-35.09,1.63-51.23a34,34,0,0,0-16.18-15.3l-.34.58-.3.51Zm-24.25,38.91c-7.59,11.13-15.6,22-24,32.59,16.93,7.3,31.23,19.76,42.68,34.16a176.83,176.83,0,0,0,19.87-39.43c-10.62-11.76-23.29-21.91-37.88-28.26l-.37.55-.26.39Zm-158.15,147.4a116.17,116.17,0,0,0,25.47,37.3c14.41-3.55,28.15-9.5,41.18-16.6-13.49-11.79-24.73-26.47-31.38-43.07a347.74,347.74,0,0,1-35.63,21.3l.21.63.15.44Zm132.59-112.74q-13.2,16.56-27.86,31.87c18.19,6.4,33.5,19.37,45.68,34.17a259.55,259.55,0,0,0,25.27-32.88c-11.39-14.26-25.71-26.52-42.45-34l-.41.52-.23.29Zm-95.6,90.57a120,120,0,0,0,30.81,42,267.49,267.49,0,0,0,34.71-22.36c-13.82-12.91-25.46-28.55-31.49-46.6a375.2,375.2,0,0,1-34.34,26l.21.63.1.33Zm65.91-56.76a400.63,400.63,0,0,1-30.33,28.52c6.17,17.87,17.78,33.51,31.5,46.37a296.93,296.93,0,0,0,44.86-41.27c-12.16-14.7-27.45-27.6-45.44-34.25l-.46.49-.13.14Z"/><path id="path4472" class="cls-71" d="M1200.71,1582.58q-11.3,11.22-23.44,21.51c5.06,14.65,13.76,27.8,24.3,39.15a292.24,292.24,0,0,0,32.87-31.81c-9.42-11.39-20.74-21.69-33.73-28.85Zm30.12-32.93q-10.27,12.35-21.39,24c14,4.92,26.28,13.76,36.75,24.3a233.51,233.51,0,0,0,15-20.77,122.28,122.28,0,0,0-30.37-27.51Zm-90.43,82.62.21.62.1.33a118.14,118.14,0,0,0,25,36.48c7.33-4.54,14.44-9.45,21.33-14.64-11.2-10.46-21-22.7-27.49-36.57q-9.37,7.18-19.16,13.78Zm116.75-117q-8.81,12.46-18.34,24.42a104.59,104.59,0,0,1,32,22.23,159.51,159.51,0,0,0,11.32-25.25,121.56,121.56,0,0,0-25-21.4Zm-153.79,139,.2.63.16.45a114.67,114.67,0,0,0,22.69,34.41,196.32,196.32,0,0,0,24.77-11.46,118.17,118.17,0,0,1-27.84-35.27q-9.79,6-20,11.24ZM1280.8,1478.7q-8.11,13.21-16.91,26a98.77,98.77,0,0,1,23.84,14.73c2.35-11.75,2.39-23.9-3-34.81a31,31,0,0,0-3.93-6Zm-188.32,217.35a60.27,60.27,0,0,0,13.63,1.4c2.26-.48,4.53-1,6.75-1.57a115.93,115.93,0,0,1-24-32.91c-6.5,3-13.08,5.86-19.78,8.46-13.14,4.36,16.25,22.35,23.41,24.62Z"/></g></g></g></g></g></g></g></g></g></svg>