<svg id="svg2" xmlns="http://www.w3.org/2000/svg" viewBox="0 0 251 251"><defs><style>.cls-1{fill:none;}.cls-2{fill:#d5b04f;}.cls-3{fill:#c89c31;}.cls-4{fill:#eed175;}.cls-5{fill:#ebc859;}.cls-12,.cls-6{fill:#d2aa48;}.cls-10,.cls-7,.cls-8{fill:#f7e587;}.cls-8{opacity:0.5;}.cls-10,.cls-11,.cls-13,.cls-8{isolation:isolate;}.cls-9{fill:#b58a32;}.cls-10,.cls-11,.cls-13{opacity:0.92;}.cls-11{fill:#864e01;fill-opacity:0.67;}.cls-12{stroke:#d2aa48;stroke-width:1.68px;}.cls-13{fill:#f7e485;}</style></defs><title>coin-08</title><g id="layer1"><g id="g9050"><rect id="rect9052" class="cls-1" x="0.04" width="251" height="251"/><g id="g9054"><path id="path9056" class="cls-2" d="M120.15,5.31a120.19,120.19,0,0,0,0,240.37q4.81,0,9.54-.37a120.2,120.2,0,0,1,0-239.64c-3.15-.24-6.33-.37-9.54-.37Z"/><path id="path9058" class="cls-3" d="M102.82,6.55A119.92,119.92,0,0,0,80.57,12c5.08.31,11.15.49,17.69.51a119.48,119.48,0,0,1,20.47-5.44C114.11,6.78,108.68,6.6,102.82,6.55ZM80.68,20.32c-7.37,0-14.16.21-19.73.56q-3.56,2-7,4.26c4.4.49,10.52.85,17.56,1,3.06-2.08,6.2-4,9.45-5.84Zm-21,13.81c-7,.06-13.29.31-18.36.68-1.55,1.35-3.07,2.73-4.54,4.15,4.54.49,10.85.85,18,1,2-2,4.17-4,6.36-5.84-.5,0-1,0-1.51,0ZM45.18,47.9c-6.49.05-12.44.27-17.33.61C26.64,50,25.48,51.45,24.34,53c4.87.43,11.27.74,18.44.85,1.5-2,3-4,4.67-5.91Zm-7.8,13.76c-7.27,0-14,.23-19.43.58-.93,1.51-1.84,3-2.71,4.6,5.06.4,11.5.68,18.64.76,1.11-2,2.28-4,3.5-5.94ZM26.27,75.45c-5.61,0-10.9.12-15.57.34-.78,1.7-1.5,3.44-2.2,5.19,5.18.28,11.25.43,17.77.43h1.12c.79-2,1.64-4,2.53-5.94l-3.65,0ZM17.51,89.24c-4.25,0-8.29.08-12,.2-.57,1.81-1.08,3.65-1.56,5.49,4.17.16,8.76.26,13.6.26,1.84,0,3.63,0,5.39,0,.52-2,1.09-3.93,1.7-5.87-2.29,0-4.66-.05-7.09-.05ZM7,103c-1.7,0-3.33,0-4.95.09-.35,1.9-.66,3.81-.93,5.75q4.47.1,9.35.11c3.37,0,6.63,0,9.71-.13.26-1.91.58-3.8.93-5.68-3.36-.09-6.92-.14-10.64-.14C9.3,103,8.16,103,7,103Zm3.47,13.76c-3.56,0-7,0-10.2.14-.13,1.88-.22,3.76-.26,5.67,3.3.09,6.8.15,10.45.15q4.49,0,8.62-.09.06-2.91.26-5.77-4.26-.11-8.87-.1Zm0,13.79c-3.63,0-7.11.06-10.39.15.08,1.9.21,3.8.37,5.68,3.17.08,6.53.13,10,.13q4.74,0,9.08-.12c-.17-1.9-.3-3.82-.39-5.74q-4.17-.1-8.69-.1Zm0,13.79c-3.13,0-6.14,0-9,.11q.47,2.91,1.06,5.77,3.83.08,8,.07c3.9,0,7.63-.06,11.12-.16-.39-1.87-.76-3.76-1.06-5.66-3.18-.09-6.56-.13-10.06-.13ZM7,158.16c-.87,0-1.68,0-2.53,0q.84,3,1.83,5.9c1.37,0,2.75,0,4.17,0,5.32,0,10.34-.11,14.82-.3-.6-1.79-1.17-3.58-1.69-5.41-4-.15-8.48-.24-13.13-.24Zm13.12,13.77c-3.78,0-7.4,0-10.79.14.81,1.93,1.66,3.84,2.57,5.72,2.64.05,5.38.09,8.22.09,3.79,0,7.42,0,10.83-.15-.91-1.87-1.76-3.78-2.57-5.71Q24.42,171.93,20.13,171.93Zm3.52,13.78q-3.87,0-7.48.08c1.15,2,2.38,3.94,3.65,5.86l3.83,0c5.41,0,10.51-.12,15.05-.32-1.17-1.79-2.31-3.6-3.39-5.45-3.64-.12-7.56-.19-11.66-.19Zm15.8,13.79c-4.92,0-9.57.1-13.79.26,1.5,1.91,3.07,3.77,4.69,5.58,2.9.07,5.94.11,9.1.11,3.46,0,6.8,0,9.95-.13-1.67-1.87-3.29-3.8-4.84-5.78-1.67,0-3.37,0-5.11,0Zm8.76,13.77c-3.48,0-6.83,0-10,.13q3.24,3,6.7,5.8l3.29,0c5.55,0,10.77-.11,15.41-.31-2.19-1.77-4.32-3.61-6.37-5.53-2.88-.07-5.9-.11-9-.11Zm21.95,13.79c-4.94,0-9.62.09-13.86.26,3.26,2,6.61,3.94,10.07,5.67l3.79,0c5.29,0,10.28-.11,14.74-.3-3.38-1.72-6.69-3.6-9.88-5.62-1.59,0-3.2,0-4.86,0Zm29.38,13.78c-4.42,0-8.62.09-12.5.23a120.66,120.66,0,0,0,33.12,4.61c2.69,0,5.35-.08,8-.26l1.06-.15a119.67,119.67,0,0,1-23.63-4.37c-2,0-4-.06-6-.06Z"/><path id="path9060" class="cls-4" d="M251,125.49A120.19,120.19,0,1,1,130.79,5.3,120.2,120.2,0,0,1,251,125.49Z"/><path id="path9062" class="cls-3" d="M248,126.38A117.12,117.12,0,1,1,130.83,9.26,117.12,117.12,0,0,1,248,126.38Z"/><path id="path9064" class="cls-5" d="M244.17,126.65A113.38,113.38,0,1,1,130.8,13.27,113.38,113.38,0,0,1,244.17,126.65Z"/><path id="path9066" class="cls-6" d="M48.4,47.78c-43,45.51-42.2,117,3.31,160,12.3,11.62,25.55,21.39,41.8,25.73-10-5.17-18.47-12.27-27.05-20.38C17.08,166.51,14.79,88.76,61.33,39.51c4.49-4.75,9.52-8.21,14.54-12.08C66,32.92,56.56,39.14,48.4,47.78Z"/><path id="path9068" class="cls-7" d="M199.57,217.12A113.38,113.38,0,0,0,184.34,26.8,123.18,123.18,0,0,1,208.74,51c41.1,54.08,30.68,131.16-23.27,172.15a123.11,123.11,0,0,1-16.21,10.43,113.21,113.21,0,0,0,30.31-16.47Z"/><path id="path9070" class="cls-8" d="M134.85,13.72c-21.41,0-40.88,2.1-60.06,14.55C44.88,47.69,27.73,85.66,27.73,124.69A113.66,113.66,0,0,0,31.05,152c20.75,26,46.27,29.35,74.63,29.35C165.11,181.35,212,132.22,212,71.2a109.27,109.27,0,0,0-3.65-26.76C189.17,26,163.22,13.72,134.85,13.72Z"/><path id="path9072" class="cls-9" d="M101.81,109.05V103.3s18.13-9.06,24.08-15.89c8.68-10,10.72-23.53,13.07-36.19,1.63-8.82,2.84-16.67,9.14-18.89,1.83-.64,6.14,4,6.14,4s-5.71-1.24-7.31,5.41c-1.46,6-3.51,14.69-4.73,21.06-1.68,8.86-4.43,18.69-10.47,25.84C123.84,97.94,101.81,109,101.81,109Z"/><path id="path9074" class="cls-9" d="M159.68,91.92s20.1-1.37,30.21,1.64c6.51,1.92,12.8,3.21,15,9.1C206.37,106.45,204,114,204,114s-.34-5.73-2.08-8.08c-3.11-4.18-8.79-6.1-13.83-7.41-9.43-2.45-28.78-1.33-28.78-1.33Z"/><path id="path9076" class="cls-9" d="M184.45,124s-2-3.82-.52-5.21c2.8-2.7,8.61-.91,12.54-2.08a24.56,24.56,0,0,0,7-3.86l-3.92,6.58Z"/><path id="path9078" class="cls-9" d="M187.13,146.85a3.23,3.23,0,0,1,.88-3.43c3.58-3.28,8.51-.41,14.34-2.1,2-.58,5.43-2,6.24-3.26,1.06-1.69.53,4.51-.88,5.92-4.92,4.87-20.58,2.87-20.58,2.87Z"/><path id="path9080" class="cls-9" d="M182.66,170.47s-1-2.4.34-3.87c3-3.24,8.09-.57,12.67-1.79a40.36,40.36,0,0,0,6.46-3l-3.36,7.09Z"/><path id="path9082" class="cls-9" d="M101.93,179.79l0-4.54s17.71-1.27,27.7,3.42c9.52,4.47,18.28,7.05,27.67,7.28,7.42.18,19.49-2,26.89-4.87a15.77,15.77,0,0,0,6.69-4.76l-2.28,7.23s-16.1,6-24.56,6.86a78.34,78.34,0,0,1-24.77-2c-7.63-1.73-14.23-6.93-21.91-8.41-5.07-1-15.48-.22-15.48-.22Z"/><path id="path9084" class="cls-10" d="M102.1,108.33l.57,5.13s14.47-5.42,20.93-10.3A56.46,56.46,0,0,0,142.13,80c5.45-12.64,5.37-28.83,7.72-40.92.32-1.61,1.94-6.6,8.25,4.66,4.47,8,5.79,13,5.73,20.73-.09,11.56-3.76,18.1-5.42,24.75-1.34,5.37-1.82,8.68-.83,10,1.7,2.21,7.21,1.94,13.6,1.76,7.85-.22,17.24.37,24.39,3.62,3.89,1.78,8.93,6.15,8.93,6.15l-1.73-5.46-13.5-6.63-30.08-2,.66-8.84L164.72,61s-4.54-15.42-9.3-23.24c-1.66-2.74-8.56-6.4-9.07-3.23-1.1,6.81-1.16,20.76-4.86,31.33-2.71,7.72-5.34,15.88-10.62,22.13-7.58,9-28.76,20.35-28.76,20.35Z"/><path id="path9086" class="cls-10" d="M184.51,123.82s-.6,2.86.85,4.05c3.08,2.52,9.73,1.27,14.74,2.82,5.31,1.66,10.07,8.84,10.07,8.84l-3.65-11.07-11.72-2.21Z"/><path id="path9088" class="cls-10" d="M187.78,148a3.8,3.8,0,0,0,.5,3.9c1.33,1.9,6.52,1.89,8.57,3a53.9,53.9,0,0,0,7,3.23l-7.58-7.7Z"/><path id="path9090" class="cls-11" d="M183.91,169.28s-2.17,1.39-1.81,3.49c.42,2.44,4.19,3,6.15,4.47a2.19,2.19,0,0,0,2.83.23l-4.51-4.8Z"/><path id="path9092" class="cls-10" d="M100.38,180.46l-.11,3.47s13.63-.39,20.24.77c8.46,1.49,15.66,7.57,24.12,9.07a81.52,81.52,0,0,0,23.45.44c8.62-.94,17.8-3.29,23.12-9.51,1.65-1.93,1.88-6,1.88-6l-8.19,6.19S170.46,189.39,163,190a72.11,72.11,0,0,1-21-1.55c-5.92-1.3-11.1-5.14-17-6.41-8-1.73-24.56-1.55-24.56-1.55Z"/><path id="path9094" class="cls-12" d="M150.33,32c-4.66-.91-7.33,10.45-8,16.32-1.69,15.28-4.11,32-15.91,43A75.64,75.64,0,0,1,101.79,107q-.56,37.22-1.1,74.44a61.89,61.89,0,0,1,33.12,5.45c15.18,7.24,34.26,5.84,49.77,0,5.71-2.17,16.14-12.07,4.68-14.78-2.82-.67,6.34-1.32,9.33-1.84,7.65-1.33,11.45-13.91,4.32-18.49-2.37-1.76-12.54-3.66-5.16-3.54,8.51.19,16.81-5.21,14.18-14.92-2-7.31-10-9.7-17.62-9.57-4.95.08,5.49-.17,8.36-3.06,5.58-5.59,5.15-15.5-.86-19.26-10.5-6.58-24-6.3-36.17-5.94-5.43.16-6.06-.91-3.65-5.4,4-12.33,7.28-26,2.23-38.55-2.79-6.9-7.78-18.49-11.86-19.29Zm0,2.68c6.62,4,8.57,12.75,11,19.8,4.7,13.58-.72,27.82-4.92,40.79-.15,3.25,3.95,2.83,6.18,2.83,12.28,0,25.83-.9,36.57,5.42,6.06,3.57,4.73,17-4.75,16.88-3.24,0-9.08-1.4-10.05,3-.21,3.35,4.06,3.11,6.29,3.2,7.58.3,17.33.54,17.83,9.48.45,8.18-7.25,8.76-13.15,9.07-2.57.14-7.55-1.18-7.93,2.62-.34,3.4,4.58,3.17,8,4.24,10.41,3.3,8.17,12.09.63,15.09-4.09,1.63-9-.33-12.47,2-2.42,1.64-.25,3.94,3.19,4.93,2.6.75,3.7,2,3.51,4.8s-5.67,5.16-9.41,6.29C166.21,189.53,149,191,135,184.44c-10-4.7-20.73-7-31.51-5.89q.51-34.89,1-69.78c17-6.78,32.63-20.09,37-38.5,3.36-10.77,2.35-22.4,5.92-33.07.5-1.23,1.74-3.25,2.92-2.54Z"/><path id="path9096" class="cls-10" d="M61,106.9V112l36.29-7.52v-6Z"/><path id="path9098" class="cls-9" d="M59.41,101.47l39.27-9.29-.22,7.52-38.6,8.85Z"/><path id="path9100" class="cls-13" d="M59.77,177.65v7.42l39,6.52v-8Z"/><path id="path9102" class="cls-9" d="M60.72,175l37.06,5.73v5.75L60.5,180.68Z"/><path id="path9104" class="cls-12" d="M98.83,96.64l-38.89,8.85v76.14l38.89,6.14V96.64ZM96,100.23v84.15l-33.12-5.21V107.76L96,100.22Z"/></g></g></g></svg>