<svg id="svg3049" xmlns="http://www.w3.org/2000/svg" viewBox="0 0 199.34 199.34"><defs><style>.cls-1{fill:#efd920;stroke:#000;stroke-width:1.38px;}</style></defs><title>coin-97</title><g id="layer1"><g id="g3922"><path id="path3148" class="cls-1" d="M198.74,99.68A99.07,99.07,0,1,1,99.68.61,99.06,99.06,0,0,1,198.74,99.68Z"/><path id="path3146" d="M87,192.87C48.93,186.78,19.3,160.3,9.39,123.52c-3.29-12.21-3.29-33.78,0-46A91.82,91.82,0,0,1,34.45,34.46,101.36,101.36,0,0,1,79,8.38c11.47-3.12,33.55-3.11,45,0,36.78,10,62.24,39.75,67.54,78.92a93.37,93.37,0,0,1-69,103.27c-8.36,2.17-28.26,3.47-35.5,2.31Zm9.5-1.28c0-1.11-5.46-8.2-5.71-7.43-.59,1.77-.26,2.86.88,2.86a2,2,0,0,1,1.63,1.39c.28.84,0,1.12-.66.7s-.9-.07-.49,1.11c.34,1-.58.24-2-1.67s-2.39-4.15-2.08-5,.27-1.19-.11-.81c-1.07,1.07-4.64-4.06-3.82-5.49.39-.69.37-.94-.06-.55-1.27,1.14-3.58-1.9-2.94-3.88.42-1.3.32-1.45-.34-.53s-1.58.34-3.52-2.5c-2.82-4.14-10.74-20.46-10.74-22.14a2.05,2.05,0,0,0-.88-1.58c-1.11-.69-.43,7.05,1.36,15.42a139.91,139.91,0,0,1,2.07,15c.37,4.68,1,9.21,1.5,10.08.71,1.34,9,3.68,18.45,5.24,2.79.45,7.5.3,7.5-.25ZM119.74,190c10.34-2.61,12.77-3.57,12.77-5s-6.95-1.4-17.25,0c-3.7.52-5.39-.94-2-1.73,1-.22-.39-.75-3-1.18s-5-1.23-5.38-1.78.16-.76,1.26-.42a49.71,49.71,0,0,0,17.29,2.06,39.52,39.52,0,0,0,6.76-.75c.18-.19-.14-1.71-.72-3.38l-1.06-3-13-.72c-10.68-.59-14-1.15-18.2-3.12-6.55-3.06-8.41-4.65-13.19-11.31C80,154,67.51,140.5,67.51,141.74c0,1.41,6.27,11.38,9,14.29,8.07,8.62,12,13.32,12,14.35,0,1.87-1.84,1.31-3-.92a64.3,64.3,0,0,0-5.78-7.41c-2.58-2.93-5.51-6.53-6.53-8s-2.09-2.42-2.39-2.12,1.77,3.89,4.6,8A72.36,72.36,0,0,1,80.51,168c0,.34,1.6,2,3.55,3.73,2.31,2,3.34,3.67,3,4.69s-.28,1.25.12.85,1.54,0,2.55.94c2,1.82,2.52,3.89.67,2.75-.72-.45-.88-.27-.43.46a1.26,1.26,0,0,0,1.63.61c.5-.31,2.23.92,3.85,2.73s2.51,3.55,2,3.87-.64,1.4-.26,2.39c.62,1.6,1.57,1.74,8.52,1.2A102.07,102.07,0,0,0,119.74,190ZM107,184c-3.29-1.38-7.5-5.46-5.65-5.46h1.91c.41,0,.75.55.75,1.22s1.35,1.9,3,2.75c4,2,3.9,2,3.42,2.39-.23.2-1.77-.21-3.43-.9Zm-14-5.46c-.34-.55-.14-1,.44-1a1,1,0,0,1,1.06,1c0,.55-.2,1-.44,1S93.35,179.07,93,178.52Zm-24.72,5.79c-1.4-2.14-1.83-5.29-3.7-26.79-.63-7.32-.76-6-.91,9.56l-.17,18.06,2.75,1c3.51,1.3,3.87,1,2-1.85Zm68.65-.36c.86-.86,1.57-1.31,1.57-1,0,.8,9.3-4.3,12.5-6.86,2.42-1.92,2.53-2.34,1.4-5.08a11.5,11.5,0,0,1-1-3.82c.1-.45-.21-.58-.7-.27s-1.74-.39-2.78-1.53a19.57,19.57,0,0,0-4.63-3.5c-1.51-.79-2.75-2.18-2.75-3.1,0-1.3.27-1.41,1.2-.48a4.55,4.55,0,0,0,2.75,1.21c2.41,0,12.3,9.91,11.63,11.64-.41,1.07.22.92,2.26-.54,4.11-2.92,5.28-4.63,4.52-6.6-.7-1.82-14.58-12.53-19.63-15.14-1.6-.83-2.69-1.74-2.42-2,1.41-1.41,17.42,10,21.78,15.47l2.11,2.67,3.51-4C185.78,141,194,114.09,190.55,88.3,185.25,49.13,159.76,19.35,123,9.39c-11.36-3.08-31.63-3.08-43,0C52.39,16.85,27.72,37.46,16,62.9c-5.83,12.63-7.86,22.33-7.86,37.62,0,10.83.44,15.15,2.23,21.8a98.82,98.82,0,0,0,9.72,23.88l2.45,4.18L28.13,147c3.09-1.86,6.11-3.54,6.71-3.75s1.11-3,1.13-6.79c0-5.45.34-6.56,2-7.31,1.1-.49,3.25-2.9,4.77-5.35,2.39-3.84,3.13-4.38,5.25-3.85s2.48.3,2.48-2.21a9.1,9.1,0,0,1,1.28-4.58c1.2-1.64,1.75-1.65,8.68-.2,4.07.85,7.62,1.32,7.9,1a6.77,6.77,0,0,0,.59-2.93c.08-1.81-.53-2.6-2.36-3.06a14.74,14.74,0,0,1-9.52-8.23,52.12,52.12,0,0,0-8.31-13.24A13,13,0,0,1,46,80.6a54,54,0,0,0-1.58-6.83,9.34,9.34,0,0,1,1.75-9.36c.88-1,1.52-4.43,1.7-9,.31-8.14,2.35-12.94,6.27-14.72A10.5,10.5,0,0,0,58,36.48c1.44-2.78,5.08-5.08,14-8.82.55-.23-.23.74-1.74,2.17-2.74,2.58-2.9,5.36-.3,5.36.75,0,1.85-1,2.43-2.33s1.75-2.34,2.59-2.34,1.52-.5,1.52-1.12.48-.72,1.52.14c.84.7,1.82,1,2.17.63s.09-.65-.58-.65-1-.43-.64-.95c.75-1.22,3.65-.24,5.28,1.78a4.71,4.71,0,0,1-.5,6.78c-1.65,1.25-1.65,1.33,0,1.36,2.59,0,5-4.23,4.23-7.61-.48-2.18-.37-2.5.44-1.36,1.35,1.9,1.41,5.69.1,6.5a2.25,2.25,0,0,0-1,1.68c0,.67.55.61,1.5-.18,1.72-1.43,2-6.24.48-9-1.29-2.39-5.57-4.93-4.75-2.81.4,1.06-.35,1.3-3.19,1-2.46-.24-4.26.18-5.32,1.24-.88.89-1.85,1.18-2.17.66-.72-1.16-.28-1.41,6-3.43,6.48-2.09,26.66-3.17,29.64-1.57a17.94,17.94,0,0,0,6.26,1.33c5.24.23,9.21,2.87,10.77,7.18.67,1.87,2.07,3.67,3.1,4,3.16,1,1.1,1.65-3,1-3.51-.59-3.9-1-3.9-3.63,0-3.14,1.14-2.79,2,.59.38,1.61.5,1.51.59-.56.09-1.82-.82-3.24-3.13-4.89-1.79-1.28-2.69-1.73-2-1a6.46,6.46,0,0,1,1.21,3.89c0,2.47-.08,2.45-1.4-.56a7.68,7.68,0,0,0-4.46-4.2c-4.36-1.52-4.11.64.41,3.57,2.92,1.89,3.49,2.85,3.49,5.85v3.58l4.87-.67c4.49-.62,5-.46,7,2.08,1.19,1.51,1.78,3,1.31,3.33s-.89,2.37-.94,4.56c-.08,3.66,0,3.82,1.32,2.06,1.7-2.33,1.8-3.55.29-3.55-.77,0-.72-.48.14-1.53,1-1.2,1-2.09.09-4.13-1.37-3-.76-4.42.71-1.67,1.6,3,1.28,12.09-.49,13.86-1.4,1.4-1.3,1.91,1,5.36a25.61,25.61,0,0,1,3.25,8.68c.64,4.26,1.64,5.82,8.08,12.59,4,4.24,7.36,8.35,7.36,9.12,0,1.81-2.93,4.41-5.5,4.88-1.64.3-2.16,1.53-2.87,6.83-.53,3.95-1.49,6.92-2.46,7.63-1.46,1.07-1.44,1.47.2,4.53a13.73,13.73,0,0,1,1.46,7.32c-.31,3.7-.7,4.16-5.72,6.66a41,41,0,0,1-9.8,3.35c-3.47.52-4.62,1.19-5.36,3.16a16.08,16.08,0,0,0-.95,3.18c0,.37,3.49,2.22,7.75,4.1,8.11,3.57,11.67,5.84,7.25,4.61a76.13,76.13,0,0,1-8.78-3.74q-8.92-4.34-6.8-.91c.35.56,5.09,3.24,10.54,6,12.66,6.31,16.4,9.07,22.47,16.57l4.94,6.09-7.94-7.72c-6.58-6.41-9.94-8.73-19.7-13.62-11.5-5.77-15.84-6.66-9.66-2a91.3,91.3,0,0,1,7.51,6.8c2.43,2.45,4.45,4,4.48,3.5s.48.07,1,1.35,1.32,2.07,1.79,1.78c1.72-1.06,11.21,9.5,11.1,12.36,0,1.21-.31,1.14-1.25-.35-2.89-4.6-7.3-10-8.49-10.38-.72-.23.52,2.55,2.75,6.19a66,66,0,0,1,4,7.16c0,1.46-2.49-1.39-6.9-7.9-5-7.38-18.93-21.68-21.11-21.68-1.6,0,2.9,5.86,9.24,12,2.78,2.71,4.79,5.48,4.5,6.21a4.19,4.19,0,0,0,.88,3.24c1.63,2.22,1.78,3.51.41,3.51s-4.51-6.1-4.16-7.85c.15-.74-.13-1.1-.62-.79-1,.58-8.24-7.56-8.24-9.19,0-.52-.68-1.21-1.5-1.53a2.62,2.62,0,0,1-1.5-2.31c0-1.29-.29-1.44-1.14-.59s-.56,2.23,1.11,5.45a27,27,0,0,0,2.93,4.81c2.24,1.65,9.57,14.15,11.75,20,1.42,3.82,3,7,3.39,7a5.33,5.33,0,0,0,2.39-1.57Zm.42-5.43c-1-2.34-1.27-4.18-.7-4.74s.51-2-.14-3.73c-1.45-3.8-.6-4.35.95-.62.68,1.64.94,3.45.58,4s-.18,1.06.4,1.06a1.27,1.27,0,0,1,1.06,1.4,2.37,2.37,0,0,0,1.5,2c2,.77,1.89,2.35-.26,3.5-1.45.78-2,.28-3.39-2.87ZM133.51,164c0-.82.18-1.5.39-1.5s.65.68,1,1.5.14,1.5-.39,1.5S133.51,164.85,133.51,164ZM165,148.52c-.34-.56.09-1.28.95-1.61a2.5,2.5,0,0,0,1.56-2.1c0-1.05-.52-1.27-1.75-.74-3.34,1.45-8.28,1.67-9.77.44-2.22-1.85-1.8-6.34.83-8.81,1.28-1.2,2.85-2.18,3.5-2.18,1.77,0,1.44,3.69-.39,4.4-3.36,1.29-.7,3.1,4.54,3.1,6,0,7.75,1.54,6.67,5.85-.49,2-1.3,2.65-3.09,2.65-1.33,0-2.7-.45-3.05-1Zm4.36-6.11c-.74-.47-3.4-.59-5.89-.27-3.59.46-4.85.22-6-1.15-1.28-1.55-1.2-1.9.79-3.23,1.23-.81,2.24-1.95,2.24-2.53s-1.13,0-2.5,1.29-2.5,3.18-2.5,4.2c0,2.72,4.34,4.42,7.55,3,3.73-1.7,5.22-1.43,6.07,1.09.69,2,.81,2.06,1.17.37a2.75,2.75,0,0,0-.94-2.73Zm-148.85-3.7c0-1.07,1.57-3.15,3.5-4.62s3.5-3.07,3.5-3.57-2.82-1-6.25-1.2c-4.76-.23-6.25-.65-6.25-1.8s1.36-1.52,5.83-1.6c13.43-.25,15.72,2.32,8.2,9.22-5.64,5.19-8.53,6.39-8.53,3.57Zm5.95-3.14c1.66-1.62,2.68-3.11,2.28-3.32s-2.31,1.13-4.23,2.95-3,3.31-2.29,3.32S24.8,137.2,26.46,135.57ZM32,129.44c0-1.57-8.24-3.15-9.11-1.74-.28.45.62.82,2,.82A5.79,5.79,0,0,1,28.72,130c1.53,1.74,3.29,1.45,3.29-.54Zm-10.5-1.92c0-.55-1.15-1-2.56-1s-2.29.44-1.94,1a3.33,3.33,0,0,0,2.56,1C20.63,128.52,21.51,128.07,21.51,127.52Zm150.69,9.79c-.88-1.26-3.63-4.48-6.11-7.16-6.25-6.72-5.36-8.25,5.14-8.86,5.38-.31,8.2-.07,9.14.79,2.43,2.22.18,3.44-6.32,3.44-6.06,0-6.33.11-6.19,2.41.08,1.32.43,2.23.78,2s1.77.5,3.16,1.6a9.32,9.32,0,0,0,3.68,2c1.47,0,.93,5.22-.58,5.71-.62.2-1.83-.66-2.7-1.92Zm.68-3.31c-3.87-3.1-4.29-2.27-.75,1.48,1.58,1.68,3,2.55,3.25,1.93s-.92-2.15-2.5-3.41Zm-3.55-9.58,2.68-.1-2.5-.8a23.27,23.27,0,0,0-3.78-.9c-1.95-.15-2.62,2.72-1.09,4.58,1.25,1.51,1.39,1.46,1.69-.51.23-1.57,1-2.19,3-2.27Zm10.18-1.5c0-1.06-.55-1.4-1.59-1a10,10,0,0,1-2.75.62c-1.55,0,1.46,1.95,3.09,2A1.45,1.45,0,0,0,179.51,122.92Zm-166-6c0-2.31.13-2.35,7.75-1.88,4.26.27,8.12.5,8.57.51s.68.77.5,1.68c-.27,1.36-1.8,1.69-8.57,1.85-8.06.19-8.25.14-8.25-2.16Zm4.41,1c.87-.34,1.59-1,1.59-1.57,0-1.39-4.27-.56-4.76.92s.7,1.6,3.17.65ZM164.49,112c-1.66-2,.3-2.71,8.53-3.1,5.91-.28,7.4,0,7.89,1.23a3.27,3.27,0,0,1,.1,2.37c-.86,1.4-15.31,1-16.52-.5Zm3.47-1.56c-.86-1.38-1.46-1.12-1.46.63,0,.86.46,1.28,1,.93a1.14,1.14,0,0,0,.44-1.56Zm11.4-.33a21.13,21.13,0,0,0-4.86.28L170,111l4.5.54c3.75.44,6.27-.26,4.86-1.37Zm-164.6-3.38c-.7-1.81-.56-1.87,6.91-2.53,5.2-.46,6.94-.27,7.89.88,1.88,2.27.51,2.82-7.21,2.88-4.94,0-7.25-.33-7.59-1.23Zm11.5-.94a42.7,42.7,0,0,0-7.5,0c-2.07.21-.38.39,3.75.39S28.32,106,26.26,105.8Zm139-1.89c-1.63-1.62-.69-5.16,1.52-5.76,3.35-.89,4.95-.75,4.25.37-.34.55-.14,1,.44,1a1,1,0,0,1,1.06,1c0,.55-1,1-2.14,1a4.51,4.51,0,0,0-3.27,1.56c-.63.86-1.47,1.23-1.86.83Zm4.27-4c0-.21-.9-.39-2-.39s-2,.41-2,.91.9.67,2,.38S169.5,100.12,169.5,99.91Zm5.21.31c-1.33-.61-2.07-1.61-1.76-2.42s.09-1.11-.46-.77-1,.14-1-.45-1.8-1.06-4-1.06c-3.25,0-4-.35-4-1.88s1-2,6.75-2.42c3.72-.29,7.65-.68,8.75-.86,1.71-.29,2.05.3,2.32,4,.43,6-1.78,8-6.61,5.81Zm5.52-2.37c.25-.74-.36-1-1.66-.63-2.6.68-3.81-2.08-1.93-4.4,1.2-1.47,1.14-1.59-.47-1a27.64,27.64,0,0,1-6.75.68c-2.7,0-4.92.45-4.92,1s2,1,4.53,1c3.94,0,4.65.34,5.5,2.57.71,1.86,1.58,2.48,3.15,2.25a3.3,3.3,0,0,0,2.55-1.49ZM178.5,95c0-.82-.45-1.5-1-1.5s-1,.68-1,1.5.45,1.5,1,1.5S178.5,95.85,178.5,95Zm1.19-3.71c-.72-.72-1.19-.78-1.19-.15,0,1.33,1.19,2.51,1.85,1.85C180.64,92.72,180.34,92,179.69,91.31ZM20,94.24c-3.32-2.85-4.6-10.52-2.11-12.59s3.8-.43,3.06,3.49c-1.1,5.86,4.23,9.69,7.83,5.63a9.14,9.14,0,0,0,1.91-3.67c.57-3.12,2.32-2.35,2.66,1.16C34,95.2,25.49,99,20,94.24Zm6.22-.53q-6.55-.76-6.85-7.66l-.17-4-.39,3.71C18.12,92,21.93,96.1,27,94.63c1.73-.5,1.61-.64-.78-.92Zm5.92-5.92c-.33-.33-.56.26-.52,1.32s.28,1.4.6.6a2,2,0,0,0-.08-1.92Zm130.4-4.21a5.21,5.21,0,0,1,2.24-3.51c3.13-2.19,1.25-5.17-3-4.75-1.93.19-3.2-.23-3.56-1.18-1-2.56,1.56-3.21,10.31-2.66,7.56.48,8.53.76,8.71,2.54.14,1.43-1.68,3.37-6.31,6.75-7.21,5.27-8.4,5.66-8.4,2.81Zm4.65-1.91a4.13,4.13,0,0,0,1.66-4.33c-.37-2,0-2.66,1.6-3.08,2.81-.74,3.86,1.23,1.56,2.92-1,.74-1.39,1.34-.83,1.34,1.49,0,5.5-4.53,4.71-5.32-.38-.37-4.32-.62-8.76-.56s-7.19.31-6.09.54l4.25.9c2.93.63,3,4,.08,7.13-2.56,2.72-1.28,3,1.82.46ZM23.77,76a9.17,9.17,0,0,1-2.87-5.18c-.57-3-.32-3.94,1.57-5.47C26.6,62,33.52,63.72,36.11,68.72c1.28,2.47,1.26,3.16-.1,5.8s-2.09,3-5.81,3A13.54,13.54,0,0,1,23.77,76Zm9.91-1.13c2.89-2.62,2.3-6.08-1.42-8.38s-7.45-1.91-9.5.78c-1.84,2.4-1.55,4,1.2,6.8s7.07,3.2,9.72.8ZM25.08,73a5.15,5.15,0,0,1-1.38-3.8c.45-3.11,6.69-3.52,9.32-.62,1.46,1.62,1.65,2.51.84,3.8C32.4,74.67,27.17,75,25.08,73Zm6.43-.41c2.3-1.47-.07-4.45-3.85-4.83-2.6-.26-3.15,0-3.15,1.7,0,3.2,4,5,7,3.13Zm125.5-8c-.86-2.68.13-4,3-4,1.31,0,2.64-.41,3-.92.64-1-2.5-2.3-4.6-1.86-1,.2-1.28-.69-1.07-3.2.23-2.77,0-3.23-.95-2.25-2,2-4.84,1.51-4.84-.77,0-1.1.59-2,1.31-2s3.48-1.37,6.13-3.06c5.88-3.73,7.32-2.87,5,3-.92,2.3-1.43,4.43-1.13,4.73s2.48.62,4.86.71c6.6.25,6.16,2.57-1.43,7.52-7.21,4.69-8.33,5-9.22,2.15ZM165.75,61c2.62-1.92,4.75-3.83,4.75-4.24s-1.81-.81-4-.87-4.34-.41-4.72-.78,0-2.69.92-5.13,1.37-4.45,1.1-4.45-10,4.89-11.17,5.72c-.23.15-.14.56.2.91s2.22-.32,4.17-1.47c2.72-1.6,3.54-1.76,3.54-.68a2.6,2.6,0,0,1-1,2,3.22,3.22,0,0,0-1,2.48c0,1.38,1,2,4,2.52,2.2.38,4,1,4,1.38,0,1.19-5.95,4.27-7,3.62-.55-.34-1,.09-1,.95,0,2.39,2.06,1.83,7.25-2ZM40,59.52a2.09,2.09,0,0,1,0-2c1.46-2.35-.8-3.06-3-1-1.7,1.6-3,2-4.88,1.56-4.15-1-4.71-8.06-.75-9.38.71-.23,1.18.65,1.18,2.19,0,3,1.12,3.22,5.06.89,2.71-1.6,3-1.59,4.9.16S45,56.08,43.9,58.94a2.19,2.19,0,0,1-3.9.58Zm2.69-5c-1-2.68-2.57-2.92-5.89-.87C33,56,31.53,55.46,31.44,51.72c-.06-2.67-.07-2.68-1-.37s.27,6.17,2,6.17a11.05,11.05,0,0,0,3.5-2.09c3-2.32,5.83-1.89,5.55.84-.3,3,.16,3.84,1,1.75a6,6,0,0,0,.25-3.5Zm99.08-10.65c-.68-.28-1.7-2.26-2.28-4.41-.84-3.1-.74-4.51.47-6.85,2.6-5,7.39-5.25,13-.6,2.35,1.93,2.72,2.72,1.76,3.67s-2.07.74-5.22-1c-2.21-1.24-4.46-2-5-1.63-1.78,1.1-1.07,5.35,1.15,6.9,1.81,1.27,2,1.77.88,3.06-1.3,1.56-2.53,1.79-4.77.89Zm2.19-3.8c-3.15-3.15-3.1-5,.23-8.14,2-1.87,2.21-2.31.75-1.76a8.52,8.52,0,0,0-3.15,2.29c-2.61,3.34-.8,10.06,2.7,10.06,1.75,0,1.7-.22-.53-2.45Zm7.27-7.55a9.71,9.71,0,0,0-3.38-2c-1.1,0,3.87,3.92,5,3.95.48,0-.26-.88-1.66-2Zm-89,133.75c0-10-.23-16.45-.44-14.25s-1.06,9.84-1.9,17c-1.44,12.21-1.43,13.05.21,14.25a12.12,12.12,0,0,0,2,1.27c.13,0,.2-8.21.16-18.25Zm-4.77,9.32a68.47,68.47,0,0,1,1.58-12.75c.87-3.74,1.37-8.15,1.12-9.81a11.39,11.39,0,0,1,1-5.85c2.68-5.24.68-3.72-4.88,3.73s-7.92,13.4-8.3,21.24c-.18,3.58.18,4.35,2.64,5.81l2.84,1.68v-4.06c0-2.23-.45-4.06-1-4.06-1.69,0-1.12-3,1.84-9.35l4-8.65c1.11-2.42,1.12-2.41.52.5a55.23,55.23,0,0,1-3.62,9.23c-2.32,4.81-2.74,6.53-1.85,7.6.63.76,1.43,3.47,1.78,6,.9,6.57,2.36,5.77,2.36-1.29Zm-10.84-5.82a52.3,52.3,0,0,0,0-7.75l-.34-3-1.4,3q-1.39,3-.82.69l.58-2.32-4.19,2.14c-2.3,1.17-4.4,1.91-4.68,1.64s2.28-1.87,5.68-3.56c8.11-4,10.67-6.12,15.73-12.85,3.18-4.23,4-5.93,3.14-6.91-.6-.72-1.45-1.08-1.9-.8a1,1,0,0,1-1.4-.44c-.32-.52.43-1.14,1.68-1.38s.66-.49-1.68-.57c-5.42-.19-15.56-2.36-15.56-3.34s1.41-1,8.22.76a32.74,32.74,0,0,0,8.64,1.24c1.84-.22.1-1-5.73-2.64-4.61-1.28-9.9-2.57-11.75-2.87-3.07-.5-3.38-.32-3.38,1.91a7.55,7.55,0,0,0,2.3,4.61c2,1.89,3.14,2.1,9.25,1.7,6.41-.42,6.6-.38,2.45.54-2.47.54-5.2,1.11-6,1.25a9.5,9.5,0,0,0-3.67,2.24,28.38,28.38,0,0,1-7.2,3.93c-2.79,1.09-5.08,2.35-5.08,2.81s-.38.6-.85.31-1.62,0-2.55.72c-2.29,1.68-1.05,5,1.6,4.35,1.58-.41,1.71-.24.71.95s.32,2.94,7.48,9.92c4.78,4.66,9.07,8.47,9.55,8.47s1-2.13,1.22-4.75ZM38.3,159c6.12-2.78,11.2-6.2,11.2-7.54,0-1.69-2-1-10,3.56a78.61,78.61,0,0,1-8.6,4.5c-1.2,0,4.4-4,7.8-5.58,1.81-.85,4.43-2.18,5.8-3a11.13,11.13,0,0,1,4-1.44c1.43,0,4.55-3.8,3.77-4.58-.2-.2-1.64.3-3.19,1.1-3.6,1.87-5,1.86-4.22,0,.31-.82.34-1.5.07-1.5-1.12,0-6.14,3.72-9.82,7.28-5.07,4.89-5.74,4.23-.87-.86,6.16-6.43,11.52-9.13,12.46-6.28.27.79,1.3.66,3.4-.43,1.9-1,3.54-1.24,4.43-.68s2,.31,3.2-.74c1-.88,2-1.42,2.18-1.2s-2.81,3.91-6.75,8.18c-5.58,6-8.33,8.2-12.43,9.75-7.26,2.74-8.88,2.39-2.44-.54Zm88.94,13.07c.13-.11-.67-1.17-1.79-2.37a7.41,7.41,0,0,0-5.74-2.19A30,30,0,0,1,107,163.88a59.76,59.76,0,0,0-7-2.76c-3.69-1.24-7.22-3.78-13.5-9.73-7.93-7.51-15-12.39-17-11.68-.46.17,1.83,3.24,5.1,6.81s7.81,9,10.11,12A63.81,63.81,0,0,0,91,165.76c3.57,3,12.78,6,21,6.74,6.63.6,14.21.39,15.24-.43Zm-49.88-6.59c-1.16-2.22-2.32-3.82-2.59-3.55-.49.49,3.53,7.59,4.3,7.59.22,0-.55-1.82-1.71-4Zm44-.86c.33-1-.14-1.24-1.67-.84-1.78.46-2.14.11-2.17-2.1a9,9,0,0,0-1.6-4.66c-1.54-2-1.56-1.94-.86.38.48,1.62.36,2.16-.4,1.69-.61-.38-1.11-.1-1.12.62a18.24,18.24,0,0,1-.6,3.48c-.45,1.71-.08,2.27,1.77,2.63,3.75.74,6.15.31,6.65-1.2Zm-8.86-4.85a31.62,31.62,0,0,0,1-7.25l0-3.5-2.63,5.25c-1.45,2.89-2.83,5-3.08,4.81-1.1-1.1,4.56-10.41,8.4-13.83,3.5-3.11,4.46-4.77,5.41-9.33,1.12-5.4.67-8.14-.92-5.58-.92,1.5-9.33,0-9.92-1.76a2.46,2.46,0,0,0-2.26-1.06,4.35,4.35,0,0,1-3.16-2c-.69-1.1-1.68-2-2.2-2-1.39,0-8.57-8.18-8.57-9.77,0-.74-.45-1.07-1-.73s-1,.12-1-.49c0-1.71-5.34-6-6.82-5.48a4.84,4.84,0,0,1-3.23-.55c-1.47-.79-1.78-.72-1.38.33s-.24,1.25-2.41.93c-1.6-.24-3.24.09-3.64.73-.51.84-1.25.68-2.62-.56-1.79-1.62-1.9-1.62-1.9,0,0,.94.45,1.43,1,1.09s1,.34,1,1.5-.4,1.88-.88,1.57-1.12.35-1.41,1.45c-.34,1.31-.13,1.77.64,1.34s.84-.31,0,.62a2.87,2.87,0,0,0-.64,2.65c.29.75,0,1.37-.58,1.37s-1.11.84-1.11,1.87a9.27,9.27,0,0,1-2,4.41,9.36,9.36,0,0,0-2,4.58c0,2.71,3.7,6.57,8,8.38a39.92,39.92,0,0,1,8.3,5.62c2.64,2.28,4.88,4.14,5,4.14.37,0-.12-9.18-.67-12.82L84.57,132,86,135a18.38,18.38,0,0,1,1.38,7c-.16,8,.08,8.71,4.35,12.62,2.34,2.14,4.93,3.9,5.75,3.91a22.54,22.54,0,0,1,6,2.43c6.4,3.4,7.72,3.22,9-1.21ZM105,155.46c-.36-.59-.44-1.28-.18-1.55s.74.22,1.07,1.07C106.52,156.74,106,157.05,105,155.46Zm-1.38-9.35c0-1.06.2-1.65.53-1.32a2,2,0,0,1,.08,1.92c-.32.8-.56.56-.61-.6Zm-.51-8.48c-.31-.49.09-1.15.89-1.45,1-.37,1.26-.07.89.89-.65,1.68-1,1.8-1.78.56ZM83.66,127.52c0-1.37.23-1.93.51-1.25a4,4,0,0,1,0,2.5C83.89,129.46,83.66,128.9,83.66,127.52Zm-15.16,19c-.59-1.1-1.23-2-1.44-2s-.13.9.15,2,.94,2,1.44,2S69.09,147.63,68.5,146.52Zm-29.81-7.21c-.72-.72-1.19-.78-1.19-.15,0,1.33,1.19,2.51,1.85,1.85.29-.29,0-1-.66-1.7Zm28.81-.66c0-2.4-2.52-4.52-4.48-3.77-1.54.59-2.07,3.75-.85,5a5.63,5.63,0,0,0,3,.66c1.62,0,2.33-.57,2.33-1.87Zm-6-4.69c0-1.35-2.46-5-4.17-6.25-1-.73-1.56-1.81-1.19-2.41s.21-.8-.49-.37a1.15,1.15,0,0,1-1.7-.68,2.47,2.47,0,0,0-1.74-1.52c-.66-.07-2.46-.43-4-.79s-2.72-.27-2.63.21A5,5,0,0,1,43.87,127c-.93.93-1.26,2-.75,2.46,1.15,1.08,10.58,3,11.6,2.41.43-.27.78,0,.78.5s.79,1.19,1.75,1.44c2.69.71,4.25.75,4.25.13Zm-.69-9.78c-3-7.47-2.44-9.15,2.19-7l3,1.39L62.5,118c-3-.45-3.17-.39-1.13.49s2.15,1.27,1.12,2.5-.94,1.49.37,1.49c1.85,0,5.09-4.46,4.24-5.83-.95-1.54-13.42-4.26-14.15-3.08s1.93,7,6.12,12.61c2.13,2.86,4,5.08,4.13,4.94s-.93-3.29-2.39-7Zm58.69,4.37c0-.53.68-.7,1.5-.39,1.94.75,1.9-.5-.2-5.26-1.51-3.45-1.74-3.62-2.08-1.55a4.05,4.05,0,0,0,1.45,3.78c1.76,1.39,1.76,1.44-.13,1.17a1.88,1.88,0,0,0-2.32,1.47c-.2,1,.12,1.75.71,1.75a1,1,0,0,0,1.07-1Zm9-.64c0-.21-1.12-.39-2.5-.39s-2.5.39-2.5.86,1.13.65,2.5.39S128.5,128.12,128.5,127.91Zm-12.5-.39c.34-.55-.27-1-1.35-1a2.65,2.65,0,0,1-2.43-1.25c-.24-.68-.77-.94-1.18-.56-.9.84,1.51,3.72,3.15,3.78a2.27,2.27,0,0,0,1.81-1Zm-51.19-2c.44-1.68.28-1.85-.87-.89-.78.64-1.17,1.57-.87,2.06.82,1.32,1.14,1.1,1.74-1.17Zm66.27-.08c.35-.55-.28-1.24-1.38-1.53-1.71-.44-1.88-1-1.13-3.56a6.93,6.93,0,0,0-.26-5.15c-1-1.92-1-2,.53-.75a6.2,6.2,0,0,1,1.66,4.25c0,1.58.48,2.87,1.06,2.87s.72.57.31,1.25c-.52.87-.24.84.92-.1,1.5-1.22,1.52-1.59.2-3.48-1.7-2.41-2-5.67-.49-5.67.55,0,1,1,1,2.28a5.11,5.11,0,0,0,1.93,3.67c1.87,1.35,1.86,1.44-.5,3.29-1.34,1-2.43,2.38-2.43,3s.57.58,1.49-.19a5,5,0,0,1,4-.6c1.52.38,2.51.21,2.51-.45s-.45-.8-1-.46-1-.61-1-2.32a6.12,6.12,0,0,0-1.42-4.11c-1.45-1.2-1.49-6.89-.08-10.32.74-1.81-.19-2.25-2.1-1a13.33,13.33,0,0,0-2.71,3.73c-1.33,2.49-1.61,2.65-1.65,1a7.58,7.58,0,0,1,1.43-4,8.72,8.72,0,0,0,1.5-4.39c0-2.28.12-2.32,1.37-.61s1.43,1.76,4.21-.06c1.69-1.11,2.53-1.33,2-.54-.6,1-.32,1.25,1,1,2.66-.52,2.89-8.84.24-8.84a3.06,3.06,0,0,0-2.37,1,3.33,3.33,0,0,1-2.56,1,1.76,1.76,0,0,0-1.94,2c0,1.1-.49,2-1.1,2s-.83-.72-.42-1.75a31.52,31.52,0,0,0,1.24-5c.3-1.78.89-3.25,1.32-3.25s.54.9.25,2c-.54,2.08,1.11,2.79,2.24,1,.68-1.11,4.69-.83,7.86.54a4,4,0,0,0,5.44-2.89c.2-1-2.69-4.77-7.29-9.5-6.11-6.29-7.73-8.6-8.21-11.72-.51-3.43-2.34-7.79-6.87-16.39a5.67,5.67,0,0,0-3.39-2.82,2.44,2.44,0,0,1-2.14-2c-.05-1.35-.23-1.29-.93.32-.47,1.1-.89,1.39-.93.64s-.8-1.18-2.07-.85c-2.79.73-2.5.24,1.25-2.17,3.53-2.26,2.7-2.85-1.07-.76a10.14,10.14,0,0,0-3.52,3.72A8.24,8.24,0,0,1,113,52c-2.42.82-3,1.57-3,4s-.66,3.34-3.49,4.75c-3,1.48-3.56,1.53-4,.28-.34-1-1-1.16-1.92-.58-1.91,1.18-4.09.21-4.09-1.83A8.54,8.54,0,0,0,95,54.76c-1.41-2-1.4-2.15.05-1.6.88.34,1.85,1.91,2.17,3.49s1.22,2.87,2,2.87c1,0,1.24-.64.75-2.25-1-3.25-3.21-5.47-6-6-2-.38-2.44-.06-2.44,1.77a5,5,0,0,0,1.44,3.43,8.49,8.49,0,0,1,2.06,4c.56,2.55,1,2.82,4.07,2.53,2.43-.22,3.43.09,3.43,1.08,0,1.79-6.34,1.91-7.76.15A13.72,13.72,0,0,1,93,59.79c-1.17-5.49-2.41-4.61-2.08,1.47a44.93,44.93,0,0,0,.56,6,3,3,0,0,1,.36,1.2c.31,2.39,2.25,3,6.15,1.92,4.45-1.22,5.4-2.24,5.53-5.87.08-2.29.15-2.33.94-.5,1.68,3.91,1.06,5.43-3.08,7.55-3.08,1.57-3.92,2.49-3.41,3.77,1.69,4.27,1.69,8.23,0,10.8a8.07,8.07,0,0,0-1.19,6c.3,1.84.13,3.6-.37,3.91-1.58,1-4.91-1.47-5.56-4.1-.35-1.38-1.14-2.34-1.77-2.14-1.6.54-1.63,5.47,0,5.33,2.5-.22,1.87,1.89-.66,2.18-1.94.23-2.86-.32-3.73-2.24-1.18-2.59-.7-5.56.9-5.56.49,0,.89-.67.89-1.5a1.48,1.48,0,0,0-1.45-1.5,3.45,3.45,0,0,1-2.47-1.75c-.89-1.53-1-1.44-1.12.75A38.18,38.18,0,0,1,81,90c-.46,2.46,2,7.24,4.54,8.83,1.09.67,2,1.58,2,2,0,1.83-5-2.68-6.49-5.9-2.3-4.83-1.26-13.37,1.62-13.37a3.52,3.52,0,0,1,2.84,2.25c.5,1.24,1,1.8,1.07,1.25s.52.13,1,1.5c.76,2.37.81,2.33.9-.75a7.19,7.19,0,0,0-1.9-5.25c-2.6-2.6-2.52-2.94.62-2.7a4.26,4.26,0,0,0,4.24-2.3c1.52-2.35,1.52-2.41-.11-1.13-2.18,1.72-6,.81-8.72-2.07-1.43-1.53-2-3.52-2-6.73s.28-4.16,1-3.07a10.6,10.6,0,0,1,1,4.64,6.26,6.26,0,0,0,7.73,5.9l2.54-.64-2.34-2.48a12.84,12.84,0,0,1-2.87-7.19c-.43-3.68-1-4.78-2.55-5.06s-1.76-.11-.75.94c1.6,1.66,1.73,12.31.14,11.32-.68-.42-.92-2.4-.62-5.06l.49-4.37-3.63-.11c-2-.07-2.9-.31-2-.55A5.5,5.5,0,0,0,81.34,57c.62-1.35,1.9-2.46,2.84-2.46,2.15,0,.61-1.61-2.18-2.28-1.69-.41-1.61-.52.5-.7l2.5-.21-2.5-.81-2.5-.8,2.51-.1c3.11-.12,5.69,3.36,4,5.39s.52,2.84,2.41,1c2.09-2.09,2-6.27-.17-8.84-1.66-2-1.66-2,0-.71,1.43,1.11,1.75,1.11,1.75.05,0-.8.58-.56,1.47.62,1.4,1.86,1.47,1.82,1.5-.89,0-2.25-.59-3.07-3-4-1.65-.62-3-1.61-3-2.19,0-1.34-8.11-.7-9.5.74-.66.7-.66.86,0,.48s1,1.13,1,3.85c0,2.43-.36,4.42-.78,4.42s-.76-1.46-.78-3.25c0-2.46-.25-2.86-1-1.67-1,1.77-.26,5.92,1.1,5.92a.9.9,0,0,1,.88.92c0,.5-1.21.78-2.69.61-3.43-.37-6.31-3.89-6.31-7.7a12.77,12.77,0,0,0-1.12-5.06c-1.13-2.1-1.13-2.1-2.47.32-3.11,5.62-.57,15.18,4.79,18,2.06,1.08,2,.91-.46-1.59-1.52-1.54-2.47-3.07-2.12-3.4s.86,0,1.11.68,1.78,2,3.4,2.79S75.33,58,75,58.48s0,1.05.63,1.26,1.5,3.22,1.91,6.68c.55,4.7,1.38,7,3.26,9L83.34,78l-2.42,1.8c-2.09,1.56-2.42,2.61-2.42,7.82,0,7.1.76,8.73,7,15.09s7.74,6.23,7.1-1.06c-.4-4.39,2.37-1.65,3,2.93.52,4.06,1.07,4,2.19,0,.27-1,.6-.72,1,.79a3.76,3.76,0,0,1-.67,3.44c-1.29,1.21-1,4.74.44,4.74,1,0,1.71-6.73,1.59-14.76-.08-5.31.1-6,1.18-4.53a3.74,3.74,0,0,1,.59,3.27c-.79,1.79-1.27,13.73-.66,16.27.24,1,.86,1.75,1.4,1.75s.62-.64,0-1.75-.48-2.73.45-4.75l1.39-3-.48,3.5-.47,3.5,1.12-2.91c.84-2.17.84-3.38,0-4.74-1.57-2.52-1.42-5.36.36-6.85s2-.29.56,2c-.59.93-.4,2.41.52,4.2,1.13,2.19,1.18,3.28.25,5.34s-.9,2.87.56,4.3c1.65,1.62,1.71,1.58,1.11-.86-.42-1.73-.11-3,.94-3.87,1.38-1.15,1.49-.9,1,2.07-.33,1.86-.76,3.93-1,4.61s.15,1.13.78,1,1.5,1.11,1.92,2.76c.59,2.34.64,2.12.25-1-.28-2.2-.64-5.35-.8-7a23,23,0,0,0-1.26-5.36c-1-2.51.46-9.38,1.85-8.52.4.25.23,1.57-.39,2.93a4.64,4.64,0,0,0,.13,4.82,10.12,10.12,0,0,1,1,4.74c-.38,4.55.12,5.38,1.43,2.39.72-1.65,1.13-3.33.9-3.75s.53-.75,1.7-.75c1.94,0,2.06.38,1.45,4.42-.57,3.83-.38,4.55,1.44,5.53s2.1.85,2.1-1c0-1.15-.4-1.85-.88-1.55s-.76-1.58-.6-4.19c.21-3.23.77-4.83,1.8-5,2.15-.44,4.74,3.72,4.05,6.49-.36,1.41-.14,2.31.56,2.31s1,1.66.57,5.29c-.52,4.79-.39,5.3,1.45,5.44a3.11,3.11,0,0,0,2.63-.86Zm12.38-39.92-2.26-3.18,2.21,1.18c2.24,1.2,3.77,3.72,2.83,4.65-.29.29-1.53-.91-2.78-2.65Zm-16.75-5.2c-.66-2.53-1.39-3.26-3.3-3.3a9,9,0,0,1-3.73-.84A3.52,3.52,0,0,0,117,75.9c-2.63,1-1.52-1.09,2-3.77a19.75,19.75,0,0,1,6.5-3.25c1.67-.33,3-1,3-1.48,0-2.19-4.09-.39-10.89,4.78-4.34,3.3-9.34,4.39-10.62,2.32-.35-.56-.26-1,.19-.88,3.48.6,7-.81,13.21-5.35,4-2.88,6.57-5.38,5.8-5.54-1.26-.27-9.24,3.46-12.08,5.64-1.31,1-4.61,2.24-4.61,1.74a57.48,57.48,0,0,1,6.93-4.47c7.73-4.6,10.64-5,14.31-2.14,2,1.57,2.53,2.91,2.6,6.61,0,2.55.68,5.15,1.39,5.78A49.5,49.5,0,0,1,138.51,80c2.37,2.81,2.28,2.79-1.7-.5-2.3-1.91-4.5-4.53-4.88-5.82-.52-1.77-.9-2-1.54-1s-.86,1-.87.09a1.23,1.23,0,0,0-1.15-1.25c-.79,0-1,1.86-.6,6,.61,6.67.22,7.67-1.06,2.75Zm-2.21-5.75c1-.64,1.09-1,.25-1a1.53,1.53,0,0,1-1.25-1.67c0-1.48-.21-1.46-2,.18-1.55,1.39-1.72,2-.75,2.63,1.62,1,2,1,3.77-.16Zm7-6c0-1.1-.17-2-.38-2s-.62.9-.91,2-.11,2,.39,2S131.5,69.62,131.5,68.52Zm-15,10c0-.55.2-1,.45-1s.71.45,1,1,.15,1-.44,1A1,1,0,0,1,116.5,78.52Zm-23.5-9c-.34-.55-.16-1,.39-1a2.18,2.18,0,0,1,1.61,1c.34.55.17,1-.38,1A2.19,2.19,0,0,1,93,69.52Zm.75-2C92.52,67,91.5,66,91.5,65.36c0-1,.27-1,1.2,0a4.8,4.8,0,0,0,3,1.2,3,3,0,0,1,2.35,1c.75,1.22-1.19,1.2-4.25,0Zm5.75.09a1,1,0,0,1,1-1.06c.55,0,1,.2,1,.44s-.45.72-1,1.06S99.5,68.17,99.5,67.58ZM77,57.52a2.16,2.16,0,0,1,1.56-1,1,1,0,0,1,.94,1c0,.55-.7,1-1.55,1s-1.29-.45-1-1Zm8-12c-.34-.55-.14-1,.45-1a1,1,0,0,1,1,1c0,.55-.19,1-.44,1S85.34,46.07,85,45.52ZM65.52,43.94a7.32,7.32,0,0,1,1-3.42c.74-1.09.83-.69.34,1.5-.82,3.68-1.39,4.48-1.37,1.92Zm51.29,77.83c-.77-5.11-2-6.09-2.79-2.3-.43,2-.24,3.68.52,4.59,2,2.47,2.87,1.64,2.27-2.29Zm-7.31,1.72c0-.57-.75-1.32-1.67-1.67-1.5-.58-1.48-.73.25-1.4s1.74-.76-.33-.83c-1.23,0-2.25-.54-2.25-1.13s.45-.78,1-.44,1,.14,1-.44c0-1.09-1.36-1.46-4-1.08-2.45.35-2.39.79.62,4.41,2.83,3.4,5.38,4.63,5.38,2.58Zm15.58-7.5c-.87-.66-1.18-2.08-.84-3.86s0-3.13-.85-3.7c-2.11-1.33-3.27-1.08-2,.45a7.09,7.09,0,0,1,1.18,3.75c.07,3,.59,10.06.84,11.39.11.55.84-.8,1.63-3,1.22-3.4,1.23-4.15,0-5Zm16.07,2.33a7.91,7.91,0,0,0-1.56-3.2c-.94-1.13-1-1.6-.16-1.6.64,0,1.81,1.47,2.58,3.25.9,2.07,1.43,2.58,1.45,1.41a8.59,8.59,0,0,0-1.9-4.31c-1.09-1.38-1.68-3.22-1.35-4.16.47-1.35.33-1.45-.72-.47-1.65,1.52-2.38,7.92-1,8.77a3.79,3.79,0,0,1,1.05,2.82c0,1.8.2,1.91.94.64a5.7,5.7,0,0,0,.68-3.15Zm-41.65-2.8a1,1,0,1,0-1,1A1,1,0,0,0,99.5,115.52Zm18-5.35c0-1.27-.46-.71-1.92,2.35-1.12,2.36-1.1,2.39.37.56a7.11,7.11,0,0,0,1.55-2.91Zm26-4.31c0-.74-.9-1.34-2-1.34-1.88,0-2.61,1.06-1.5,2.17s3.5.45,3.5-.83Zm-76.61-3.42c-1.66-1.66-4-3.09-5.2-3.18s-2.19-.59-2.19-1.12-.28-.67-.62-.33c-.83.83,6.17,7.37,7.44,6.94a1.6,1.6,0,0,1,1.69.79c.38.61,1,.85,1.29.52s-.76-2-2.41-3.62Zm9.61,2.08c0-.55-.67-1-1.5-1-1.37,0-2-1.22-1.59-3.32.08-.45-.32-.54-.88-.19s-1,.23-1-.27-1.12-1.41-2.5-2c-2.09-1-2.5-.89-2.5.44,0,2.14,6.18,7,9.25,7.3.42,0,.75-.38.75-.93Zm6.13-1.46c2.1.66,2,.39-.94-2.36s-3.61-2.93-5.22-1.92c-1.85,1.15-1.84,1.25.25,3.47,1.43,1.52,2.39,1.92,2.84,1.18s1.62-.83,3.07-.37ZM78,95.54c-.27-.43-2.33-.81-4.58-.84A14.54,14.54,0,0,1,67,93.08c-1.81-1.19-2.26-1.24-1.87-.21.29.74,2.19,2.25,4.22,3.34,2.86,1.52,4.34,1.76,6.45,1.05,1.51-.51,2.53-1.28,2.27-1.72ZM64.75,96.81c-.69-.25-1-.88-.68-1.4s.21-.84-.24-.71c-1.56.42-5.33-1.31-5.33-2.44,0-.81.35-.79,1.2.06a4.28,4.28,0,0,0,2.54,1.2c2.28,0-.38-3.69-3.16-4.39-1.37-.34-3.69-2.21-5.17-4.14-2.26-3-2.67-4.48-2.6-9.5.06-4.3-.29-6-1.23-6s-1.28,1.64-1.2,5.91c.07,3.25-.21,5.69-.63,5.44s-.75-.09-.75.37c0,1.06,5.91,6.28,7.11,6.28.49,0,.89.64.89,1.42a2.41,2.41,0,0,0,1.25,2c1,.47,1,.7,0,1.17a2.11,2.11,0,0,0-1.25,1.58c0,.55.57.8,1.25.55,1.52-.54,5,1.11,4.38,2.08-.24.39.76.76,2.22.83s2.09-.09,1.4-.34ZM95.3,92.57c-1-1.62-.85-2.69,1-6.24,1.4-2.74,1.83-4.63,1.22-5.24s-1-2.42-1-4.21c0-4.37-1.27-4.86-3.37-1.3-1.53,2.59-1.55,2.94-.18,2.94s2.17,3,.92,4.31C91.73,85,93.1,94.52,95.55,94.52c.54,0,.44-.85-.25-2Zm-18.25-.12c.88-1.42-1.29-2.89-4.27-2.91-3.43,0-5.66-4.21-4.87-9.16.63-3.93.56-4.08-1.62-3.41a22.54,22.54,0,0,1-3.44.79c-.64,0-.9.77-.58,1.59.37,1,.16,1.25-.6.78s-1.17.25-1.17,2.33.49,3.06,1.55,3.06A1.22,1.22,0,0,1,63.3,87c-.75,3.81,11.71,8.73,13.75,5.43Zm-2-6.15a9.4,9.4,0,0,1-1.56-4.56c0-1.3-.44-2.06-1-1.72-1.68,1-1.14,6.32.75,7.42C76.08,89.09,76.73,88.68,75.06,86.3Zm-15.8-5.94c.14-3.87-.24-5.47-1.52-6.41-2.3-1.68-3.24-.91-3.24,2.68,0,3.1,2.48,8.89,3.81,8.89.42,0,.84-2.32.95-5.16Zm16.46,1c-.62-.62-.76,0-.39,1.86.42,2.09.68,2.34,1,1A3.51,3.51,0,0,0,75.72,81.34Zm-4.92-2.2.1-3.59,2.12,2c2.25,2.11,6,2.64,7,1,.34-.55-.19-1-1.19-1-1.21,0-1.41-.27-.61-.78,1.57-1,.34-2.87-2.2-3.36C74.29,73,74,72.26,74.18,68c.16-4.64.11-4.74-.67-1.48-.84,3.5-.84,3.5-.7-.91.12-3.72-.28-4.73-2.59-6.45-2.12-1.58-3-1.76-3.92-.83C64,60.65,65.24,67.52,68,67.52c.35,0,.29-.56-.12-1.25s0-.66,1,.22,1.34,1.61.78,1.8-.72,1.41-.2,3.22a16.07,16.07,0,0,1-.06,6.69c-1.25,5.37-1.2,7,.16,5.63.6-.61,1.14-2.72,1.2-4.69ZM66.15,63.06a1.75,1.75,0,0,1,.4-2.06c.52-.33,1,.33,1,1.46,0,2.42-.55,2.66-1.35.6ZM93.47,80.44c0-.32-.55-.58-1.26-.58S90.82,81,90.7,82.39c-.2,2.44-.15,2.46,1.27.58A9.08,9.08,0,0,0,93.47,80.44ZM53.19,75.76c-.25-1-.44.06-.43,2.26s.21,3,.45,1.74a10.92,10.92,0,0,0,0-4Zm14.31-.71c0-.26-1.39-1.19-3.08-2.07-4-2.08-7.34-9.24-6.36-13.76a29.17,29.17,0,0,1,2.07-5.9c1.27-2.49,1.18-2.9-1.12-5.2-1.38-1.38-2.51-3.2-2.51-4,0-2.27-1.74-1.88-3.12.68a18,18,0,0,1-2.53,3.57C49.4,49.77,48.91,61,50.32,60.14c.45-.28.64.73.42,2.24-.48,3.25,2.32,6.48,3.32,3.85.33-.84.11-3.25-.48-5.37-1.59-5.73-1.31-8.71,1.05-11.25,1.69-1.8,2.31-2,3-.93.56.89.14,1.88-1.23,2.92-1.82,1.39-1.94,2-1,5.29A20.32,20.32,0,0,1,55.81,64c-.7,4.28,1.6,8.1,6,10,3.24,1.42,5.67,1.84,5.67,1Zm-19.65-2A1.75,1.75,0,0,0,47.46,71c-.53-.33-1,.33-1,1.46,0,2.42.56,2.66,1.35.6Zm17.11-3c-2.84-2.84-3-4.9-1-9.89,1.84-4.4,1.85-4.8.13-7.16-1.31-1.78-1.46-1.72-3,1.26-2.48,4.8-2.1,10.93.92,14.9,1.41,1.84,3.19,3.34,4,3.34s.56-.84-1.05-2.45ZM48.5,67.41c0-.55-.45-.73-1-.39a2.19,2.19,0,0,0-1,1.62c0,.55.45.72,1,.38A2.18,2.18,0,0,0,48.5,67.41Zm17,.11a1,1,0,0,0-1.06-1c-.58,0-.78.45-.44,1s.82,1,1.06,1S65.5,68.07,65.5,67.52Zm43-10.44c0-.2-.82-.16-1.82.11-2.29.6-3.76-1.2-4.62-5.67-.5-2.57-.4-3.1.37-2a6.72,6.72,0,0,1,1.06,3.13,4.35,4.35,0,0,0,1.44,2.82c1.15,1,1.67.75,2.62-1s.9-2.37-.43-3.11A3.18,3.18,0,0,1,105.5,49a6.72,6.72,0,0,0-2-3.47c-1.57-1.57-2.45-1.8-3.93-1a4.86,4.86,0,0,1-3.47.41c-.87-.33-1.58-.1-1.58.51a1.24,1.24,0,0,0,1,1.23l1.92.25a3.36,3.36,0,0,1,1.62.83c.39.39-.42.5-1.81.25-1.63-.3-2.71.07-3.09,1s0,1.5,1.38,1.5,2.93,1.54,4.42,3.9c1.35,2.15,3,4.11,3.76,4.37,1.2.43,4.8-.85,4.8-1.71ZM74.59,48.69C73.38,46.43,70.5,44,70.5,45.18a8.8,8.8,0,0,0,1.56,3.12c1.91,2.73,4,3.05,2.53.39Zm39.69.28c1.22-.86,2.17-2.32,2.11-3.25-.11-1.53-.16-1.53-.58.05-.49,1.88-3.79,2.4-4.81.75a2.27,2.27,0,0,0-1.71-1c-.6,0-.32.86.62,1.9,1.33,1.47,1.42,2,.4,2.42s-.89.55.22.6A7.74,7.74,0,0,0,114.28,49ZM65.17,37.81c1.38-2.91,1.43-3.61.27-4.33-.76-.46-1.62-.59-1.91-.27s.06.8.78,1c1,.34.83.82-.5,1.83-2.64,2-3.53,1.73-2.24-.69.62-1.16.69-1.85.15-1.51-1.26.78-4.23,7-4.17,8.78,0,.75.66,0,1.4-1.65l1.37-3-.54,3.74c-.34,2.4-.05,4.34.82,5.38,1.21,1.46,1.45,1.23,2.14-2.1a38.42,38.42,0,0,1,2.43-7.23Zm43.17,6.64a15.45,15.45,0,0,0-1-6.25c-.62-1.2-.78-1.86-.36-1.46s1.61.26,2.64-.29c2.7-1.45,2.55-8.24-.25-11.05-1.25-1.24-2.38-1.7-2.75-1.11s-2.52.71-5.64.23c-2.75-.43-5.18-.61-5.41-.39s.22.4,1,.41c1.22,0,1.22.14,0,.91-2.23,1.42,1.16,6.08,3.91,5.37,2.55-.67,3.67-2.3,1.57-2.3-.85,0-1.56-.41-1.56-.9,0-1.65,4.1.12,5.6,2.41,1.19,1.82,1.24,2.75.28,4.87-1.53,3.35-3.29,3.42-2.46.1.78-3.12-1.28-4.18-4.59-2.35L97,33.94l3,.67,3,.68-2.78.11c-1.53.07-3,.8-3.35,1.62a2.21,2.21,0,0,1-1.67,1.5c-.73,0-.7-.39.1-1.2,2.36-2.35,1.42-7.44-1.87-10.21-3.82-3.21-7.5-3.7-4.11-.55,2.6,2.42,3,8.41.7,11.63-1.37,2-1.32,2.12.75,2.11,3.47,0,10,1.27,12.41,2.43A6,6,0,0,1,106,46.15c.93,3.7,2.21,2.79,2.39-1.7ZM106,41.52c-.37-1.18-.45-2.37-.18-2.65s.81.47,1.18,1.65.46,2.38.19,2.65S106.38,42.71,106,41.52ZM93.09,35a29,29,0,0,1,1-5.41c.9-1,.24,7.56-.68,8.91-.73,1.07-.83,0-.36-3.5Zm15.41-3.94c0-1.34-.45-2.72-1-3.06-1.21-.75-1.32-2.5-.16-2.5,1,0,3.16,4.48,3.16,6.55,0,.8-.45,1.45-1,1.45S108.5,32.42,108.5,31.08Zm22,14.88c1.29-3.4,1.38-3.17-2-4.91-2.16-1.11-3.13-1.21-3.65-.37s-.28.88.4.47c1.69-1,4.79,4.17,3.34,5.62-.86.87-1.15.69-1.15-.71,0-1-.28-1.59-.62-1.25-.88.89.35,3.71,1.62,3.71.58,0,1.49-1.15,2-2.56Zm-54-7.35a4.71,4.71,0,0,0-1.2-2.89c-.93-.93-.81-1.2.53-1.2A2.62,2.62,0,0,1,78.14,36c.94,2.44,2.35,1.72,2.48-1.25.07-1.69.29-2.07.57-1a2.24,2.24,0,0,0,1.89,1.75c1.67,0,1.76-.51.5-2.85C82.12,29.94,74.7,31,73.26,34.16c-.82,1.79-.8,2.72.07,3.59,1.68,1.68,1.46,3.82-.33,3.13-.82-.31-1.5-.07-1.5.54a1.06,1.06,0,0,0,1,1.1c.55,0,1,.79,1,1.75q0,1.77,1.5-1.11a13.11,13.11,0,0,0,1.49-4.55Zm35.85,2.91a15,15,0,0,0-2.58-3c-.93,0,.41,3.64,1.73,4.72,2.7,2.19,3.11,1.35.85-1.72ZM98.69,42.84a2,2,0,0,0-1.92.08c-.33.33.26.57,1.32.52s1.4-.28.6-.6Zm22.23.08c.87-.34,1.58-1,1.58-1.56s-.41-.7-.91-.39c-1.42.88-4.09-2.32-4.09-4.9,0-3.11-2.78-5.5-4.06-3.48-1.39,2.2-1.11,6.25.62,8.71C115.61,43.52,117.93,44.06,120.92,42.92Z"/></g></g></svg>