<svg id="svg2" xmlns="http://www.w3.org/2000/svg" xmlns:xlink="http://www.w3.org/1999/xlink" viewBox="0 0 397.18 595.28"><defs><style>.cls-1{fill:#eed175;}.cls-2{fill:#c89c31;}.cls-3{fill:#ebc859;}.cls-4{fill:#d2aa48;}.cls-5{fill:#f7e587;}.cls-6{fill:#d5b04f;}.cls-7{opacity:0.6;isolation:isolate;filter:url(#filter5841);}.cls-8{fill:#fff;}</style><filter id="filter5841" x="-0.61" y="-0.28" width="2.21" height="1.56" name="filter5841"><feGaussianBlur result="feGaussianBlur5843" stdDeviation="21.54"/></filter></defs><title>coin-03</title><path id="path9060-8-8-9-4-5-9" class="cls-1" d="M397.18,298.18c0,156.22-77.62,282.87-173.36,282.87S50.46,454.4,50.46,298.18,128.08,15.31,223.82,15.31,397.18,142,397.18,298.18Z"/><path id="path9062-1-1-4-3-2-0" class="cls-2" d="M392.8,300.26c0,152.23-75.63,275.64-168.93,275.64S54.94,452.49,54.94,300.26,130.58,24.62,223.87,24.62,392.8,148,392.8,300.26Z"/><path id="path9064-0-6-95-3-3-8" class="cls-3" d="M387.36,300.9c0,147.37-73.22,266.83-163.54,266.83S60.29,448.27,60.29,300.9,133.51,34.06,223.82,34.06,387.36,153.53,387.36,300.9Z"/><path id="path9066-4-4-8-4-3-5" class="cls-4" d="M105,115.27C43,222.39,44.11,390.7,109.76,491.92c17.73,27.33,36.84,50.32,60.28,60.55-14.4-12.17-26.64-28.89-39-48-71.22-109.8-74.52-292.77-7.4-408.67,6.48-11.19,13.72-19.33,21-28.45C130.38,80.32,116.75,94.94,105,115.27Z"/><path id="path9068-5-4-4-2-1-4" class="cls-5" d="M323,513.82c71.91-89.17,85.92-256.57,31.27-373.9-14.76-31.69-33-56.45-53.24-74,13,15.84,24.89,34.84,35.19,57,59.28,127.29,44.25,308.7-33.56,405.18a198.8,198.8,0,0,1-23.39,24.54c15.32-9,30.08-21.84,43.73-38.77Z"/><g id="g4290-3-4"><g id="g7387-0-1-0-6"><path id="path9056-6-5-5-7-15-4-8" class="cls-6" d="M196,15.33C100.23,15.33,22.63,142,22.63,298.17S100.23,581.05,196,581.05a108.55,108.55,0,0,0,13.77-.88c-89.31-11.45-159.6-133.35-159.6-282s70.3-270.52,159.6-282A108.55,108.55,0,0,0,196,15.31Z"/><path id="path9058-2-1-7-2-0-9-9" class="cls-2" d="M171,18.26A121.37,121.37,0,0,0,138.88,31c7.34.71,16.1,1.14,25.53,1.19a122.86,122.86,0,0,1,29.52-12.79C187.27,18.79,179.44,18.37,171,18.26Zm-31.93,32.4c-10.62,0-20.42.5-28.45,1.32q-5.13,4.74-10,10a191.36,191.36,0,0,0,25.34,2.41,186.43,186.43,0,0,1,13.63-13.75Zm-30.33,32.5a258.22,258.22,0,0,0-26.49,1.62q-3.35,4.74-6.55,9.76a202.43,202.43,0,0,0,26,2.37q4.44-7.16,9.18-13.75Zm-20.88,32.4c-9.36.14-17.93.66-25,1.45-1.74,3.41-3.42,6.91-5.07,10.46a231.36,231.36,0,0,0,26.6,2c2.16-4.75,4.39-9.42,6.73-13.93-1.09,0-2.19,0-3.27,0ZM76.59,148c-10.48,0-20.14.52-28,1.35q-2,5.34-3.92,10.82a250.84,250.84,0,0,0,26.89,1.8q2.4-7.12,5-14Zm-16,32.44c-8.1,0-15.73.3-22.46.79-1.12,4-2.16,8.1-3.17,12.22,7.47.66,16.23,1,25.63,1h1.61q1.73-7.08,3.65-14c-1.72,0-3.48-.05-5.26-.05ZM47.93,212.86c-6.12,0-12,.19-17.36.48-.82,4.26-1.56,8.59-2.26,12.92,6,.38,12.64.62,19.62.62,2.66,0,5.24,0,7.79-.09.74-4.65,1.56-9.24,2.44-13.8-3.3-.1-6.72-.13-10.23-.13ZM32.8,245.31c-2.46,0-4.81.13-7.14.22-.52,4.48-1,9-1.34,13.53,4.28.18,8.79.26,13.47.26,4.87,0,9.56-.11,14-.3q.57-6.73,1.34-13.36c-4.84-.23-10-.35-15.35-.35-1.69,0-3.35,0-5,0Zm5,32.41c-5.13,0-10.06.09-14.71.3-.19,4.43-.31,8.87-.37,13.36,4.75.22,9.81.35,15.08.35,4.3,0,8.45-.07,12.42-.22.07-4.56.18-9.07.38-13.57-4.09-.16-8.36-.22-12.8-.22Zm0,32.44c-5.23,0-10.25.14-15,.35.12,4.49.29,8.94.54,13.36,4.57.2,9.41.31,14.44.31,4.54,0,8.92-.1,13.09-.27-.24-4.47-.44-9-.56-13.53q-6-.22-12.53-.22Zm0,32.45c-4.51,0-8.85.1-13,.27q.66,6.84,1.53,13.57c3.68.13,7.5.18,11.46.18,5.63,0,11-.15,16.05-.4-.57-4.4-1.1-8.84-1.53-13.31-4.59-.2-9.46-.31-14.52-.31Zm-5,32.45c-1.26,0-2.43.06-3.65.09.8,4.67,1.68,9.31,2.63,13.88,2,0,4,0,6,0,7.68,0,14.91-.25,21.39-.7-.87-4.21-1.7-8.44-2.44-12.74-5.84-.35-12.23-.57-19-.57-1.69,0-3.35,0-5,0Zm18.92,32.41c-5.45,0-10.67.11-15.57.35,1.17,4.53,2.4,9,3.7,13.44q5.71.21,11.87.22c5.47,0,10.7-.11,15.62-.35-1.31-4.42-2.54-8.91-3.71-13.44Q57.9,407.48,51.72,407.47Zm5.07,32.44c-3.71,0-7.31.07-10.79.18,1.67,4.68,3.44,9.29,5.26,13.79,1.82,0,3.66.05,5.53.05,7.8,0,15.16-.28,21.71-.75-1.69-4.2-3.33-8.47-4.88-12.83C68.36,440.08,62.71,439.91,56.79,439.91Zm22.78,32.45c-7.08,0-13.8.23-19.88.62q3.26,6.74,6.76,13.13c4.19.17,8.57.27,13.12.27,5,0,9.82-.11,14.36-.31q-3.62-6.63-7-13.62c-2.41-.05-4.86-.09-7.38-.09Zm12.64,32.41c-5,0-9.85.1-14.41.3q4.68,7.12,9.66,13.67c1.57,0,3.15,0,4.75,0,8,0,15.55-.26,22.23-.74q-4.72-6.25-9.18-13c-4.17-.16-8.52-.26-13.05-.26Zm31.67,32.45c-7.13,0-13.88.22-20,.61a175.41,175.41,0,0,0,14.52,13.36c1.8,0,3.62,0,5.47,0,7.63,0,14.82-.26,21.26-.7a177.41,177.41,0,0,1-14.25-13.23c-2.3,0-4.62-.08-7-.08Zm42.38,32.45c-6.38,0-12.45.2-18,.52A112.27,112.27,0,0,0,196,581.05a107.69,107.69,0,0,0,11.54-.61c.54-.12,1.05-.23,1.53-.35A115.14,115.14,0,0,1,175,569.8c-2.84-.08-5.74-.14-8.72-.14Z"/></g><g id="use7391-6-3-3-0"><path id="path7395-5-3-7-3" class="cls-6" d="M173.34,15.33C77.59,15.33,0,142,0,298.17S77.6,581.05,173.34,581.05a108.79,108.79,0,0,0,13.77-.88c-89.31-11.45-159.6-133.35-159.6-282s70.29-270.52,159.6-282a108.79,108.79,0,0,0-13.77-.88Z"/><path id="path7397-8-3-2-3" class="cls-2" d="M148.35,18.26A121.1,121.1,0,0,0,116.25,31c7.34.71,16.09,1.14,25.52,1.19a123.2,123.2,0,0,1,29.52-12.79C164.64,18.79,156.81,18.37,148.35,18.26Zm-31.94,32.4C105.79,50.66,96,51.16,88,52q-5.13,4.74-10,10a191.19,191.19,0,0,0,25.33,2.41A188.53,188.53,0,0,1,116.9,50.66ZM86.09,83.16A258.22,258.22,0,0,0,59.6,84.78q-3.35,4.74-6.55,9.76a202.26,202.26,0,0,0,26,2.37q4.44-7.16,9.18-13.75Zm-20.88,32.4c-9.36.14-17.94.66-25,1.45-1.75,3.41-3.42,6.91-5.07,10.46a231.17,231.17,0,0,0,26.59,2c2.17-4.75,4.4-9.42,6.74-13.93-1.1,0-2.2,0-3.27,0ZM54,148c-10.48,0-20.14.52-28,1.35q-2,5.34-3.92,10.82a251.24,251.24,0,0,0,26.9,1.8q2.4-7.12,5-14Zm-16,32.44c-8.1,0-15.73.3-22.46.79-1.12,4-2.16,8.1-3.17,12.22,7.47.66,16.22,1,25.63,1h1.61q1.71-7.08,3.65-14c-1.73,0-3.48-.05-5.26-.05ZM25.3,212.86c-6.12,0-12,.19-17.36.48-.82,4.26-1.56,8.59-2.26,12.92,6,.38,12.64.62,19.62.62q4,0,7.78-.09c.74-4.65,1.56-9.24,2.44-13.8-3.3-.1-6.71-.13-10.22-.13ZM10.16,245.31c-2.45,0-4.8.13-7.14.22-.51,4.48-1,9-1.34,13.53,4.29.18,8.79.26,13.47.26,4.88,0,9.57-.11,14-.3.38-4.49.84-8.94,1.35-13.36-4.84-.23-10-.35-15.36-.35-1.69,0-3.34,0-5,0Zm5,32.41c-5.12,0-10.06.09-14.7.3-.19,4.43-.31,8.87-.38,13.36,4.76.22,9.82.35,15.08.35q6.47,0,12.43-.22c.07-4.56.18-9.07.38-13.57-4.09-.16-8.37-.22-12.81-.22Zm0,32.44c-5.22,0-10.25.14-15,.35.12,4.49.29,8.94.54,13.36,4.56.2,9.41.31,14.43.31,4.55,0,8.92-.1,13.1-.27-.25-4.47-.45-9-.56-13.53q-6-.22-12.54-.22Zm0,32.45c-4.5,0-8.84.1-13,.27q.66,6.84,1.53,13.57c3.68.13,7.5.18,11.45.18,5.64,0,11-.15,16-.4-.56-4.4-1.09-8.84-1.53-13.31-4.59-.2-9.46-.31-14.51-.31Zm-5,32.45c-1.25,0-2.42.06-3.65.09.81,4.67,1.68,9.31,2.63,13.88,2,0,4,0,6,0,7.68,0,14.92-.25,21.39-.7-.86-4.21-1.69-8.44-2.44-12.74-5.83-.35-12.23-.57-19-.57-1.69,0-3.34,0-5,0Zm18.92,32.41c-5.45,0-10.67.11-15.56.35,1.17,4.53,2.39,9,3.7,13.44q5.72.21,11.86.22c5.47,0,10.71-.11,15.62-.35-1.31-4.42-2.53-8.91-3.7-13.44Q35.26,407.48,29.08,407.47Zm5.08,32.44c-3.72,0-7.32.07-10.79.18,1.66,4.68,3.43,9.29,5.26,13.79,1.81,0,3.66.05,5.53.05,7.8,0,15.16-.28,21.71-.75q-2.55-6.3-4.89-12.83C45.73,440.08,40.08,439.91,34.16,439.91Zm22.78,32.45c-7.09,0-13.8.23-19.89.62,2.17,4.49,4.44,8.86,6.77,13.13,4.18.17,8.57.27,13.12.27,5,0,9.81-.11,14.36-.31q-3.61-6.63-7-13.62c-2.41-.05-4.86-.09-7.38-.09Zm12.64,32.41c-5,0-9.85.1-14.41.3q4.68,7.12,9.66,13.67c1.56,0,3.15,0,4.75,0,8,0,15.54-.26,22.22-.74q-4.72-6.25-9.18-13c-4.16-.16-8.51-.26-13-.26Zm31.67,32.45c-7.13,0-13.88.22-20,.61a178.67,178.67,0,0,0,14.52,13.36c1.8,0,3.63,0,5.48,0,7.62,0,14.82-.26,21.25-.7a177.41,177.41,0,0,1-14.25-13.23c-2.29,0-4.62-.08-7-.08Zm42.38,32.45c-6.38,0-12.45.2-18,.52a112.27,112.27,0,0,0,47.77,10.86,108,108,0,0,0,11.54-.61c.53-.12,1-.23,1.53-.35a115.14,115.14,0,0,1-34.08-10.29c-2.84-.08-5.74-.14-8.72-.14Z"/></g></g><g class="cls-7"><path class="cls-8" d="M235.37,568.62c48-2.67,89.73-40.87,102-86.61,18.44-49,45.25-97,44.32-150.76,2.39-60.87-7.89-123.65-35-178C294,288.13,240.82,422.72,188.83,557.79a91.41,91.41,0,0,0,46.54,10.83Z"/></g></svg>