<svg id="svg2" xmlns="http://www.w3.org/2000/svg" xmlns:xlink="http://www.w3.org/1999/xlink" viewBox="0 0 500 500"><defs><style>.cls-1{stroke-width:9.32px;fill:url(#linear-gradient);stroke:url(#linear-gradient-2);}.cls-2{stroke:#bf962e;stroke-width:1.49px;fill:url(#linear-gradient-3);}.cls-3{fill:#765f23;}.cls-4{fill:#a59059;}.cls-5{fill:#8f7a42;}.cls-6{fill:#757575;}.cls-7{fill:#bf962e;}.cls-8{fill:url(#linear-gradient-4);}.cls-9{fill:none;}.cls-10{fill:#9f874a;}.cls-11{fill:#999;}.cls-12,.cls-13,.cls-14{isolation:isolate;}.cls-13,.cls-14{font-size:68.87px;font-family:Arial-BoldMT, Arial;font-weight:700;}.cls-13{fill:#5d5d5d;}.cls-14{fill:#878787;}</style><linearGradient id="linear-gradient" x1="145.89" y1="84.44" x2="346.32" y2="-14.18" gradientTransform="matrix(1.29, 0, 0, -1.29, -135.23, 261.61)" gradientUnits="userSpaceOnUse"><stop offset="0" stop-color="#e7c013"/><stop offset="0.5" stop-color="#d8c832"/><stop offset="1" stop-color="#d4b231"/></linearGradient><linearGradient id="linear-gradient-2" x1="142.09" y1="84.95" x2="429.79" y2="-54.11" gradientTransform="matrix(1.29, 0, 0, -1.29, -135.23, 261.61)" gradientUnits="userSpaceOnUse"><stop offset="0" stop-color="#bb9027"/><stop offset="0.5" stop-color="#dcb82a"/><stop offset="1" stop-color="#ca9a30"/></linearGradient><linearGradient id="linear-gradient-3" x1="179.16" y1="96.58" x2="367.46" y2="-16.85" gradientTransform="matrix(0.95, 0, 0, -0.95, -78.86, 246.26)" gradientUnits="userSpaceOnUse"><stop offset="0" stop-color="#b8b8b8"/><stop offset="0.5" stop-color="#d9dae0"/><stop offset="1" stop-color="#c4c4c4"/></linearGradient><linearGradient id="linear-gradient-4" x1="139.54" y1="320.13" x2="390.68" y2="189.64" gradientTransform="matrix(1, 0, 0, -1, 0, 501.28)" gradientUnits="userSpaceOnUse"><stop offset="0" stop-color="#8e8e8e"/><stop offset="0.5" stop-color="#afb1bc"/><stop offset="1" stop-color="#989898"/></linearGradient></defs><title>coin-12</title><g id="layer1"><path id="path4289" class="cls-1" d="M468.06,250c0,120.43-97.57,218.08-218,218.11S32,370.54,31.94,250.11V250c0-120.43,97.57-218.08,218-218.11s218.09,97.57,218.12,218Z"/><path id="path4283" class="cls-2" d="M411,250a161,161,0,1,1-321.9.08V250a161,161,0,0,1,321.9-.08Z"/><path id="path5774" class="cls-3" d="M334.35,67.3a2.71,2.71,0,0,0-1.84.78,2.45,2.45,0,0,0-.75,1.87V80.23a1.76,1.76,0,0,0,.88,1.53,7.31,7.31,0,0,0,3.54,0A1.82,1.82,0,0,0,337,80.2V70a2.75,2.75,0,0,0-.75-1.88,2.56,2.56,0,0,0-1.91-.8ZM351,78.4l-.06,0a2.74,2.74,0,0,0-2.33,2.6v9.59a1.77,1.77,0,0,0,.85,1.52,9.58,9.58,0,0,0,3.54,0,1.82,1.82,0,0,0,.86-1.54V81.06a2.69,2.69,0,0,0-.87-2A2.75,2.75,0,0,0,351,78.4Zm17,10.39a1.82,1.82,0,0,0-1,.32c-1.54.23.59-.26.67-.15a2.41,2.41,0,0,0-1.68.55,1.47,1.47,0,0,0-.46.9,7.36,7.36,0,0,0-.12.8,2,2,0,0,0,0,.23V100a1.77,1.77,0,0,0,.85,1.52,7.31,7.31,0,0,0,3.54.07,1.81,1.81,0,0,0,.89-1.56v-8.6A2.66,2.66,0,0,0,368,88.79ZM334.27,106a1.83,1.83,0,0,0-.93.35l-.86.63a1.78,1.78,0,0,0-.72,1.44v49.6a1.78,1.78,0,0,0,2.65,1.56A1.79,1.79,0,0,0,337,158v-49.6a1.82,1.82,0,0,0-.75-1.44l-.84-.6a1.74,1.74,0,0,0-1.18-.35Zm50.2-5.39a2.74,2.74,0,0,0-2.31,2.59v10.07a1.78,1.78,0,0,0,.94,1.54,7.48,7.48,0,0,0,3.58.05,2.19,2.19,0,0,0,.76-1.73v-9.9a2.88,2.88,0,0,0-.87-2,2.48,2.48,0,0,0-2.07-.63ZM351.09,114a1.73,1.73,0,0,0-.9.35l-.83.6a1.76,1.76,0,0,0-.75,1.44v12.17a1.77,1.77,0,0,0,2.59,1.58h0A1.78,1.78,0,0,0,353,130a1.8,1.8,0,0,0,.86-1.53V116.34a1.82,1.82,0,0,0-.75-1.44l-.84-.6A1.74,1.74,0,0,0,351.09,114Zm16.85,222.23a1.83,1.83,0,0,0-.93.35l-.83.6a1.76,1.76,0,0,0-.75,1.44v34.92a1.78,1.78,0,0,0,2.59,1.59,1.79,1.79,0,0,0,2.69-1.56V338.6a1.79,1.79,0,0,0-.73-1.44l-.86-.63a1.74,1.74,0,0,0-1.18-.35Zm33.43-218.4a2.74,2.74,0,0,0-2.3,2.6v12.15a1.79,1.79,0,0,0,.85,1.52,7.31,7.31,0,0,0,3.54.07,1.79,1.79,0,0,0,.88-1.56V120.41a2.92,2.92,0,0,0-.86-2,2.48,2.48,0,0,0-2.08-.64ZM384.73,335.61a1.73,1.73,0,0,0-.93.34l-.89.67a1.78,1.78,0,0,0-.72,1.44l.11,21a1.8,1.8,0,0,0,.82,1.48,1.76,1.76,0,0,0,1.69.13,1.78,1.78,0,0,0,2.77-1.47L387.47,338a1.82,1.82,0,0,0-.75-1.44l-.81-.58A1.78,1.78,0,0,0,384.73,335.61Zm33.49-197.78a2.78,2.78,0,0,0-2.34,2.63v14.41a1.81,1.81,0,0,0,1.79,1.79h1.71a1.76,1.76,0,0,0,1.26-.53,1.71,1.71,0,0,0,.52-1.26V140.49a2.65,2.65,0,0,0-.86-2A2.75,2.75,0,0,0,418.22,137.83Zm.17,208.92a1.73,1.73,0,0,0-.92.34l-.86.64a1.79,1.79,0,0,0-.73,1.44v14.59a2.64,2.64,0,0,0,5.28,0V349.14a1.76,1.76,0,0,0-.75-1.44l-.83-.61A1.79,1.79,0,0,0,418.39,346.75Zm-16.81,19.61a1.83,1.83,0,0,0-.93.35l-.86.63a1.77,1.77,0,0,0-.72,1.45V382.6a2.67,2.67,0,0,0,2.65,2.65,2.74,2.74,0,0,0,2.62-2.65V368.76a1.78,1.78,0,0,0-.75-1.45l-.83-.6A1.79,1.79,0,0,0,401.58,366.36ZM384.76,384a1.8,1.8,0,0,0-1,.37L383,385a1.81,1.81,0,0,0-.69,1.41v12.47a2.76,2.76,0,0,0,2.66,2.63,2.56,2.56,0,0,0,2.62-2.63V386.49a1.78,1.78,0,0,0-.75-1.45l-.95-.69A1.76,1.76,0,0,0,384.76,384Zm-16.82,13.51a1.73,1.73,0,0,0-.93.34l-.83.61a1.76,1.76,0,0,0-.75,1.44v12.87a2.67,2.67,0,0,0,2.65,2.65,2.75,2.75,0,0,0,2.63-2.65V399.94a1.79,1.79,0,0,0-.73-1.44l-.86-.64A1.78,1.78,0,0,0,367.94,397.52ZM351.09,411a1.8,1.8,0,0,0-.9.34l-.83.61a1.76,1.76,0,0,0-.75,1.44v7.9h0a2.65,2.65,0,0,0,1.21,2.39,2.9,2.9,0,0,0,2.77,0,2.69,2.69,0,0,0,1.21-2.39h0v-7.9a1.82,1.82,0,0,0-.75-1.44l-.84-.61A1.78,1.78,0,0,0,351.09,411Zm-16.82,7.26a1.73,1.73,0,0,0-.93.34l-.86.64a1.78,1.78,0,0,0-.72,1.44v9.12a2.56,2.56,0,0,0,2.62,2.62,2.75,2.75,0,0,0,2.66-2.62v-9.15a1.82,1.82,0,0,0-.75-1.44l-.84-.61A1.78,1.78,0,0,0,334.27,418.23Zm16.82-65.84a1.8,1.8,0,0,0-.9.34l-.83.61a1.76,1.76,0,0,0-.75,1.44v29.75a1.78,1.78,0,0,0,2.59,1.59h0a1.79,1.79,0,0,0,2.63-1.59V354.78a1.82,1.82,0,0,0-.75-1.44l-.84-.61A1.78,1.78,0,0,0,351.09,352.39Zm-16.82-16.21a1.83,1.83,0,0,0-.93.35l-.86.63a1.8,1.8,0,0,0-.72,1.45v54.62a1.78,1.78,0,0,0,2.65,1.56A1.79,1.79,0,0,0,337,393.2V338.58a1.8,1.8,0,0,0-.75-1.44l-.84-.61a1.79,1.79,0,0,0-1.18-.35Z"/><path id="path3364" class="cls-4" d="M333.83,67a2.69,2.69,0,0,0-1.84.78,2.42,2.42,0,0,0-.75,1.87V79.93a1.79,1.79,0,0,0,.88,1.54,7.27,7.27,0,0,0,3.53,0,1.8,1.8,0,0,0,.87-1.54V69.68a2.73,2.73,0,0,0-.75-1.87,2.53,2.53,0,0,0-1.91-.81Zm16.65,11.11-.06,0a2.76,2.76,0,0,0-2.34,2.6v9.59a1.81,1.81,0,0,0,.86,1.52,9.52,9.52,0,0,0,3.53,0,1.79,1.79,0,0,0,.87-1.54V80.76a2.62,2.62,0,0,0-2.86-2.65Zm17,10.38a1.82,1.82,0,0,0-1,.32c-1.55.23.59-.25.66-.15a2.4,2.4,0,0,0-1.67.55,1.41,1.41,0,0,0-.46.9,5.52,5.52,0,0,0-.12.8l0,.24v8.59a1.81,1.81,0,0,0,.86,1.52,7.27,7.27,0,0,0,3.53.07,1.77,1.77,0,0,0,.89-1.56v-8.6a2.66,2.66,0,0,0-2.68-2.68Zm-33.75,17.25a1.83,1.83,0,0,0-.93.35l-.86.63a1.76,1.76,0,0,0-.72,1.44v49.6a4.38,4.38,0,0,0,4.41,1.51,1.79,1.79,0,0,0,.87-1.54V108.14a1.84,1.84,0,0,0-.75-1.45l-.84-.6a1.74,1.74,0,0,0-1.18-.35Zm50.2-5.39a2.74,2.74,0,0,0-2.31,2.6V113a1.77,1.77,0,0,0,.94,1.54,7.48,7.48,0,0,0,3.58.06,2.23,2.23,0,0,0,.76-1.74V103a2.88,2.88,0,0,0-.87-2,2.49,2.49,0,0,0-2.08-.63Zm-33.38,13.3a1.73,1.73,0,0,0-.9.35l-.84.6a1.84,1.84,0,0,0-.75,1.45v12.16a1.82,1.82,0,0,0,.86,1.52,1.77,1.77,0,0,0,1.74.06h0a1.78,1.78,0,0,0,1.76,0,1.8,1.8,0,0,0,.87-1.54V116.05a1.84,1.84,0,0,0-.75-1.45l-.84-.6A1.79,1.79,0,0,0,350.57,113.65Zm16.84,222.23a1.83,1.83,0,0,0-.92.35l-.84.6a1.84,1.84,0,0,0-.75,1.45V373.2a1.82,1.82,0,0,0,.86,1.52,1.77,1.77,0,0,0,1.74.06,1.79,1.79,0,0,0,2.68-1.55V338.3a1.76,1.76,0,0,0-.72-1.44l-.86-.63a1.75,1.75,0,0,0-1.19-.35Zm33.44-218.39a2.75,2.75,0,0,0-2.31,2.59v12.15a1.78,1.78,0,0,0,.86,1.52,7.27,7.27,0,0,0,3.53.07,1.77,1.77,0,0,0,.89-1.56V120.11a2.92,2.92,0,0,0-.86-2,2.44,2.44,0,0,0-2.08-.63ZM384.2,335.31a1.83,1.83,0,0,0-.92.35l-.89.66a1.75,1.75,0,0,0-.72,1.44l.11,21a1.79,1.79,0,0,0,2.51,1.61,1.75,1.75,0,0,0,1.82.09,1.78,1.78,0,0,0,.95-1.56L387,337.68a1.84,1.84,0,0,0-.75-1.45l-.81-.57A1.75,1.75,0,0,0,384.2,335.31Zm33.5-197.77a2.77,2.77,0,0,0-2.34,2.62v14.41a1.79,1.79,0,0,0,1.79,1.79h1.7a1.82,1.82,0,0,0,1.27-.52,1.78,1.78,0,0,0,.52-1.27V140.19a2.62,2.62,0,0,0-2.94-2.65Zm.17,208.91a1.83,1.83,0,0,0-.92.35l-.87.63a1.8,1.8,0,0,0-.72,1.44v14.59a2.64,2.64,0,0,0,5.28,0V348.84a1.76,1.76,0,0,0-.75-1.44l-.83-.6A1.76,1.76,0,0,0,417.87,346.45Zm-16.82,19.61a1.83,1.83,0,0,0-.92.35l-.87.64a1.79,1.79,0,0,0-.72,1.44V382.3A2.68,2.68,0,0,0,401.2,385a2.75,2.75,0,0,0,2.62-2.66V368.46a1.76,1.76,0,0,0-.75-1.44l-.83-.61A1.86,1.86,0,0,0,401.05,366.06Zm-16.82,17.65a1.77,1.77,0,0,0-1,.37l-.75.58a1.81,1.81,0,0,0-.69,1.41v12.47a2.75,2.75,0,0,0,2.65,2.63,2.56,2.56,0,0,0,2.63-2.63V386.19a1.75,1.75,0,0,0-.75-1.44l-.95-.7A1.84,1.84,0,0,0,384.23,383.71Zm-16.82,13.51a1.73,1.73,0,0,0-.92.34l-.84.61a1.82,1.82,0,0,0-.75,1.44v12.87a2.68,2.68,0,0,0,2.66,2.65,2.74,2.74,0,0,0,2.62-2.65V399.64a1.75,1.75,0,0,0-.72-1.44l-.86-.64A1.79,1.79,0,0,0,367.41,397.22Zm-16.84,13.45a1.8,1.8,0,0,0-.9.34l-.84.61a1.82,1.82,0,0,0-.75,1.44V421h0a2.68,2.68,0,0,0,1.22,2.39,2.88,2.88,0,0,0,2.76,0,2.68,2.68,0,0,0,1.22-2.39h0v-7.9a1.82,1.82,0,0,0-.75-1.44l-.84-.61A1.78,1.78,0,0,0,350.57,410.67Zm-16.82,7.26a1.83,1.83,0,0,0-.93.35l-.86.63a1.75,1.75,0,0,0-.72,1.44v9.12a2.56,2.56,0,0,0,2.62,2.63,2.76,2.76,0,0,0,2.66-2.63v-9.15a1.82,1.82,0,0,0-.75-1.44l-.84-.6A1.74,1.74,0,0,0,333.75,417.93Zm16.82-65.84a1.8,1.8,0,0,0-.9.34l-.84.61a1.82,1.82,0,0,0-.75,1.44v29.75a1.79,1.79,0,0,0,2.6,1.59h0a1.79,1.79,0,0,0,2.63-1.59V354.48a1.82,1.82,0,0,0-.75-1.44l-.84-.61A1.78,1.78,0,0,0,350.57,352.09Zm-16.82-16.2a1.73,1.73,0,0,0-.93.34l-.86.64a1.74,1.74,0,0,0-.72,1.44v54.62a1.78,1.78,0,0,0,2.65,1.56,1.76,1.76,0,0,0,1.76-.05,1.79,1.79,0,0,0,.87-1.54V338.28a1.82,1.82,0,0,0-.75-1.44l-.84-.61a1.78,1.78,0,0,0-1.18-.34Z"/><path id="path5776" class="cls-5" d="M149.61,140.82s59-12.77,80.24-25.4l8.48,2-48.8,171.37s-19,39,37.72,38.63l-1,5.76H98.75l1.12-7.71s42,.71,50.64-32.49,30.86-111.44,30.86-111.44c4.2-13,12.55-35.58-6.51-35.88-15.63-.25-26.06-.57-26.06-.57Zm237.7,56.33c-4.24-.19-1.47,15.12-7.38,6.16-4.43-7.26-7,9.21-5.18,12a8.18,8.18,0,0,1,.48-.72,4.19,4.19,0,0,0,5.57,2.73c2.64-.11,1.51,2.56,2.37,4.15.15.07.4.21.56.3,0,.11,0,.22-.05.33-2.44-1-5.56-.77-9.29.72-5.94,1.66-8.22.06-11.55-1.74-3.41,3.05-11.28,3.94-13.82,7.07a10.63,10.63,0,0,1-3.36-2.93c-4-.47-5,4.2-8.53,3.15,3.71-4.4-4.58-1.34-3.28-3.76.09-1-1-1.7-2.21-2,.24-.55,1-2,.56-3.09,0-2.92,2.18,2.12,2.63,1.33,7.62-.93-4.77-4.48-1.14-3.48-1.31-3.52,6.23-3.52,1.95-5.17a5.41,5.41,0,0,0-2.63-3.14c1.55-.33,2.79-1,2.75-2.71-.16-.53-1-.9-.14-1.46-1.06.77-5.51,2.7-7.36,4.91a17.14,17.14,0,0,1,3.5-.55,2.55,2.55,0,0,0-.76,1.19c1.36,2.8-5.39-1.84-4.25,4,1.21,1.44-.64,6.69,3.41,8.12-1.38.16-2.25,1-.64,2.9-1.7.21-.42,1.72,1,3.2-2.09-.54-3.19,6.09-4.62,1.13,0-1-5.74.94-2.63,2.54a9.25,9.25,0,0,0-1.17,1.47c.08-.35.16-.71.28-1.08a3,3,0,0,0-3.11-1.55,5.7,5.7,0,0,0-4.2,2.16c-.06.07-.13.14-.19.22-2.25-.12-4.58,4.8-5.43,7.12-2.82,1.66-.14.26-2.82,3a4.75,4.75,0,0,0,.5.36,9.48,9.48,0,0,0-3.61,1.13c-3.61-.46-6.42,2.77-5.29,5-6.57.61-6.25,6.9-12.42,3.4,1.26-.64-6-4.75-2.24,1,.49,5.62-2.57,2.63-5.73,3.48-1-4.25-4-1.14-5.79-2.27-5.77.42.13,2.22-2.16,2.54-2,2.14.67,2.12,3.87,4.23,2.65.45,3.51,1.87,4.61,3.81.8,2.13.58,5.55,3.69,6.76a29.41,29.41,0,0,0,1.07,5.58c-1.46-1.1-4.24,3.75-1.74,4.22-1.32,2-3.67,5.68-4.19,8.37a5.53,5.53,0,0,0-3.33-.55c-3.78-2.62-9.72-1.58-14.38-4.31-3.84-1-8.62-1.94-11.42-3.15a6.12,6.12,0,0,0-1.39-.08c-3.54.18-8.76,2.64-4.42,5.33a2,2,0,0,0-.34,2.43,8,8,0,0,0-1.51,3c-.28,3.35.28,6.3-2,8.37-.33,3.62-6,5.4-5.54,9.91,4.67,3.89,2.44-.67,1.87,5.36-1.14,3.57-3.19,6,3.72,6.73l1.82-.71.76-.06.3-.16c.37.52,1.24,1,2.89,1.29,3.17,2,2.07,3.41,1.73,4.23,2.19,8.11,8.55-1.28,14.13,1.35,6.59,3.35,9.76-1,15.24-2.68,1.73-.66,2.06-5.25,5.79-5.93,2.37-1.48-4.1-7.67,2.94-9.75,2.88-5.54,9-4.64,15.16-8.28,2.28-3.09,1.23-3.64-.72-3.9,1.14-1.55,1.15-4.46,4.59-6,4.78-1.31,4.83,1.93,7.13-.39-1,1.92,3.28,3.18,5.26,3.12,2.21-1.62,4.77-2.78,6.6-5.08.52,2.91,4.65-4.17,7.69-2.18,5.36-.26,5.42,6.81,7.73,9.14,2.48,3.32,6.22,4.89,9.81,8.78,3.62,1,7.45,2.13,9,4.67,2.4-.5,4.11,3.73,7.5,4.53,4.95,5.25-.83,7.72.84,12,2.26-3,9.64-8.15,4.28-11.1-5.08-3.26,5.33-8.85,7-2.12,6.35-5.44-14.25-6.69-11.38-10.94-3.57-1-13-2.2-12.82-10-5.94-1.81-7.15-7-6.91-10.33-1.38-1.72,2-3.59,4.51-3.89a10.89,10.89,0,0,0,2,.55c.27.58.56,1,.9,1.13-4.32,1.66,1.95,5.74,2.82.64,2.08,3.15,5.83,6,3.75,7.34,3.41,3.21,9,4.62,12,5.49a12.14,12.14,0,0,0,1.4,1l.51.52c-3-1-6.46-1.08-1.26.25a3.09,3.09,0,0,1,2.21.66l.16.11a4.19,4.19,0,0,0,.82.53l.19.08a3.57,3.57,0,0,0,.87.39,1.7,1.7,0,0,0-.34-.53.41.41,0,0,0,.12-.11s.16.34.14.3c1.12.39,5.41,5.27,4.72,1.85a1.68,1.68,0,0,1,.2-1q0,.66,0,1.38c1.92,1.67.2,5.43,1.28,6.63-1.32,3.19.2,4.74,3.56,7a.82.82,0,0,0,1,.36c-.57,1.09-.32,2,2.47,3.31,2,2.81,3.53,5.88,7.19,3.92,3.85-1.26,3.2.14,6.85,0,.82,3.69-4.48-.87-7.33,1.27-4.47.55-1.68,3.93.81,5.71-.7,6.77,3.35-2.29,4.56,4.72.79-4.77,6.08,2.1,2.41-4.64-5.3-4.83,5.48-.3.33-4.52-2.51-4,6.78,1.91,4.25-1.55-.32-3.45-5.15-3.42-8-4.44,3.09.7-1.27-4.88,3.19-2.77-4.26-2.12-7.5-11.26-1.6-6.7,3.9,5.48-1.71-3.39,3.7,1.43-4-4.27,5.84.21-.14-3.17-4.19-.91,2.27-3.31,4.5-4.15,6.22.32,5.18.89,7.5-4.14-.85-1.14-1.41-1.87-1.85-2.34,1.16-2.78,4.37-1.85,6.66-2.93-2-2.07-1.6-3-1.4-7.51,3-2,2.45-3.3.78-4.09a4.79,4.79,0,0,1,1.51,0c-.38-2.11-.83-4.21.4-6-2.72-3.17,2.34,1.29,2.51-3.89-1-1.64-3.27-.35-5.17.11.29-3.51-.38-8.27.86-7.15,2.43-1.25,5.19-.77,1.4-3.78-1.89-1.61,26.11,3.23,10.29-3.31.89-8.51-.66-11.12-.47-15.12,5.19-.51.69-12.35-1-14.3,4.47-1.13,3.08-4.2.28-11.86-3.2-2.91-2.63-10.73-2.86-15.51-3.21-6.84-10.18-25.77-14.61-25.12-.51.48-17.24.53-17.92,1-.3-3.27.47,24.57-.48,22.07C393.24,200.09,389.23,197.09,387.31,197.15ZM298.64,315.06c4.79,4.82-7.79,3.85-2.18.63l2.18-.63Zm5.33.05C306.43,318.77,297.84,313.21,304,315.11Zm-9,4.53C292.11,321.45,297.77,320.52,294.94,319.64Zm-1.22-1.45C289.94,321.34,296.93,318.61,293.72,318.19Zm69.75,8.14c-5.1,3.58,2.36,11-5.33,9.55-1.91-3.85-14.53-2.58-10-8.13,2.55-.2,7,1.85,11.23-.83,2.41,1.27,1.72-1.26,4.14-.59ZM330,308.57c3.81,2,1.84,5.52,2.08,10.05-.25,4.81-3.47,1.26-5.4,4.93-2.46-1.46,0-5.07-1.15-7.47.06-4-3.26-5.2,2.64-6l1.64-1.31.19-.18m61.22,15.74C387.33,325.05,389.49,320.54,391.19,324.31Zm17.36-4.1c-4.93-.47-10.53-5.27-2.39-2.33,2.4-.72,6.83,6.08,2.74,2.8C408.86,320,407.85,321,408.55,320.21Zm-62.64-94.49c-.5-3.07,3.7-1.61,1,.64C346.43,226.34,346.24,226,345.91,225.72Zm26.77-110.21c-1.23.87-1.14,5.13-3.25,2.6,0,3.82-2.57,3.76-1.78,0-1.33-1.27-3.1,3-3.91,3.48,1.47,4.32-5-1-3.06,3.68-2.46-.34-2.16,6.13-3.65,2.07-.06,2.92-2.23-1.25-1.15,1.9-1.35,1-6.3-.73-4.67,2.37,3.36-1.94.13,5.76-2.25,2.09-3.29.47-1.55,4.64,1.13,2.08,4.74.8-5.22,2.74-1.16,3.16-3,0-.51,4.63-2.9,4,.27,2.94-4.47,4.44-4.32,8.28-.71,3.71-.44,7.12-4.07,9.11,1.37,2.31-3.67.54-3.65,3.9-1.48,3.23,1.46,3.16,3,1.41-.07,4.19-6.46,2.47-8.61,5.09-1.82,1.33-4.7-.44-2.66,2.32-1.12,1.36-2.76-1-2.37,1.7-1.7,1.45-6.44,2.5-1.39,3.35-2.56-.27-4.2,1-2.78,2.55-.78,4.48,10.4-.84,5.09,2.55-2.2-.43-8.56-.78-5.59,2.52-.19,2.11.3,3,1.59,4-.38,1.57-3,4.32.41,3.78-5.64,5,2.93,11.3,7.7,7.39,2.25-3.16,7-4.27,7-8.66,3.33,5.37,4.42,11.71,7.3,17.25,1.31,1.74.31,7.21.72,6.73,1.79-1,2.5,6.54,5.19,2,2.06-4.68,8.9-4.25,8.71-10.11.73-4.46-2.4-10.83,3.24-13,5.62-3.92-5.64-.73-3.92-3,3.64,1.3,10.49-3.26,4.33-5.45-5.58-2.83-5.2-10.94-2.6-15.74,2.43-3.79,7.09-6.31,7.73-11.1-3.16-4.92,3.11-12.47,8.45-9.56,4.46,3.93-1.33,9-3.12,12.82-2.48,3.84-4.92,8.19-1.72,12.18-.26,5.53,3,11.17,9.26,10.34,4.91-.68,8.12-5.15,12.64-7,2.65-4.71,25.08,2.26,24-3.55-1.59-3.56-10.9-18.69-12.53-22.35-2.27-3.74-5.24-10.23-7.67-13.88-1.41-4.86-9.85-8.41-11.8-12.62-1.22-2.18-2.16-4.86-3.58-4.19-3.53.19-2.79-2.57-.7-3.17.11-4.49-6.12-1.33-6-1.18C373.27,117,373.68,115.79,372.68,115.51Zm-25.05,78.63c.59,6.86-9.39,6.33-3.55,2.07C344.14,194.09,345.45,193.17,347.63,194.14Zm3.2,2.89c.05,5.62-4.75,7.36-.29.22l.29-.22Zm-8.58,21.18Zm16.91-12.56c.77,3.32-3.2,10.89-.49,2.24C359.23,207.2,358.63,206.34,359.16,205.65Zm6.85-1.3c-2.33,7.42-4.83-2.16-.25-3.13C366.88,202.14,363.76,203.63,366,204.35Zm1.73-52.28.24.15-.24-.15Zm-3.51,12.81,0-.14,0,.14Zm-22.69,51.74C341.18,216.38,341.35,214.54,341.54,216.62ZM338,159.15C337.32,159.21,337.86,159.17,338,159.15Zm-72,53.6a2.1,2.1,0,0,0-1.74.61c-2,1.18-1.15,1.57-.31,2.9-2.43,3.2-4.51-1.72-7.69.52,1,1.19,2.32,2.61-1.2,3.29-.07,2.68,6.16,2.78,2,4.63-7.55,2.73,7,1.75-1.23,2.07-1.57,1.69-6.46,1-1.85,2.38-7.47,1.25,3.9,1.81-2.32,2.73,5.4-.82-1.19,1.94,2.43,1.33,1.54,2.16,5.15-1.57,5.9-.17,2.18-3,6.43.63,7.78-2.15,3.55-3.3,1.95-7.47,3-10.13,2.27-.19,5.3-2.75,2-3.15,2.64-2.08-1.37-6-4.31-4l-.28.22C268.12,213.16,267,212.75,266,212.75Zm16.39-19.6c-.4,1.7-1.37,1-.48,2.56-2,.24-2.68,2-3.66,2.9,2.69,4.17-3.19,4.43-2.15,6,1.32.09-1.37.35-2,1.76,3.31,1.08,6.06-4.15,4.11.25-3.65,2.2-.48,2.69-3.33,6,.83,2.1,3.64-8.54,4.59-2.68-.43-.57-.43,4.67-3.11,6.52,3.57,1.24,2.28,1.27,6.19.77,3.61-1.09-2.77,3.83.22,5.41,2.53-1.31-.49,4.37-.36,4.5-.72.74-2.67-.17-4.57.31,1.1-.38-.33-1.46-.69-1.6-1.09-.09-.36,1.57.19,1.68a3.28,3.28,0,0,0-2.09,2c6.37,0-1.69,5.19-3.84,6,1.95,1.6,4.81.95,7.5,3.95,6.12-4,2.25,2.83-1.9.63-3.1,0-8.13,5.19-8.62,5.58,1.83-1,8,1.87,9-1.88,4,.93,6.81,2.17,8.81,0,2,1.66,2.26.36,6.44,2,4.41-.31,7.55-3.79,3.1-4.17-2.63.45,1.26-.87.56-2,3.8,1.48,6.44-10.07-.75-6.6-2.15-1.08-.08-5.66-.87-8.45-5.12-3.33-2.45-10.51-8-13.83-6.34.35,2.95-.35.22-2.48-3.88,2.17,12.22-8.54.7-7.82-7,.62-2.3-1.47.25-3.83C291.45,192,281.44,196,282.38,193.15Zm15-9.09c1.27-.6-2.29,6.18-.55,1.44C294.23,186.23,296.52,184.35,297.4,184.06Zm-6.75,8.66c-3.42-.25-1.62-2.49,0,0Zm-12.59,1c-1.81,2.63-4.54,4.42-3.92,1.7C274.39,194.74,277.15,192.68,278.06,193.73Zm.66,26C275.6,220.66,277.83,223.51,278.72,219.77ZM375.3,214C375.16,218.23,376,215.21,375.3,214Zm8.88-15.31c3.36-4.68,6.2,1.28,9.79-.45,3.32-.6,1-3.9,0-6.47-.18-4.7,2.29-6.85-4.75-5-3.45-.47-4.28,1.3-8.07,2.66-2.38.86-1.31,7,2.1,6.69C384.81,193.45,384.22,198.07,384.18,198.67ZM378.65,195c3.41-.35-4,6-2.26,3.65C373.72,196.41,375.71,196,378.65,195Zm-1.83-2.79c5.2,2-4,2.77-.2.57l.2-.57ZM331,297.54c.67,3,.53,8.68-1.72,10.08-2.5-1.6-2.25-3.39-2.05-5.5C325.76,299.17,331.09,300.46,331,297.54Zm.61-26.57C332.48,272.74,330.81,272.14,331.59,271Zm-50.46-96.9-.14,1.08.14-1.08Zm.76-4.72C283.25,170.74,281.19,171.35,281.89,169.35Zm59.3,45.54c4.62.1.27,4.9.91,6.69-1.85-.53-7.09-4.29-2.32-5.73C339.52,213.19,343.44,220.35,341.19,214.89Zm1,7.7c-4.43,3-4.17-1.78-1.73-.67A1.22,1.22,0,0,1,342.2,222.59Zm-1.78.15C339.24,222.57,341.61,223.63,340.42,222.74ZM248.71,347.22l-.35,4.51.44.18a3.17,3.17,0,0,0,1.33-.09c.16.06,1.56-1.28,1.78-1.39a2.81,2.81,0,0,0,.89-.69,1.74,1.74,0,0,0,.53-1.05c.16-.6-.61-.9-1.06-1.13a3.9,3.9,0,0,0-1.78-.26C249.94,347.3,249.3,347.22,248.71,347.22Zm7.73,2.52a5.29,5.29,0,0,1-1.78.17,1.86,1.86,0,0,0-1.15.17c-.4.2-.25,1.36-.18,1.65a1.35,1.35,0,0,0,1.16,1,4.14,4.14,0,0,0,2-.35c.42-.1.65.19,1.07.09s.62-1,.62-1.39a4.36,4.36,0,0,0-.18-1.22c-.09-.36-.64-.44-1-.52S256.65,349.62,256.44,349.74Zm7.11-.7c-.29-.07-1.64.44-2.31.44s-.85-.05-1.25.34-.17,1.35-.17,1.83a1.09,1.09,0,0,0,.71,1.13c.77.37,1.83-.37,2.39-.78.41-.3.82-1.06,1.25-1.48s1.35-.09,1.86-.09a2.56,2.56,0,0,0,2.14-1.3,6,6,0,0,0,1.24-3.56c0-.79-2.27-.17-2.49-.09-1.18.43-2.68,1-3.28,2.17A1.89,1.89,0,0,0,263.55,349Zm92.83-3.21c-.3.58-1.12-.71-1.69-1.05a5.71,5.71,0,0,0-2.49-.6,8.8,8.8,0,0,0-1.78,0,1.37,1.37,0,0,0-.8,1.65c.39,1.51,3.58,3,4.89,3.39a5,5,0,0,1,2.4,1.47c.51.5.51.8,1.15,1,.86.21.8-1.1.89-1.57a2.94,2.94,0,0,0-.26-1.82A6.19,6.19,0,0,0,358,347a7,7,0,0,1-.88-1.13c-.27-.52-.65.24-.8-.52"/><path id="path5768" class="cls-6" d="M229.84,115.51c-21.28,12.63-80.23,25.42-80.23,25.42l-.81,4.24s10.42.32,26,.57c19.06.31,10.73,22.86,6.52,35.87,0,0-22.24,78.24-30.87,111.44-6.16,23.71-29.28,30.09-42,31.83q2.2,4.28,4.64,8.39H226.26l1-5.77c-56.7.39-37.7-38.63-37.7-38.63L238.32,117.5Zm125.76,13c0,.19.16.46.29.84-1.36,1-6.3-.73-4.68,2.36,3.37-1.94.13,5.75-2.25,2.08-3.29.47-1.55,4.64,1.13,2.08,4.73.8-5.22,2.75-1.16,3.17-3,0-.52,4.65-2.91,4,.27,2.94-4.46,4.44-4.3,8.28-.72,3.71-.47,7.1-4.1,9.09,1.38,2.31-3.66.57-3.63,3.92-1.48,3.24,1.46,3.13,3,1.39-.07,4.19-6.47,2.49-8.63,5.1-1.81,1.34-4.7-.45-2.65,2.31-1.12,1.36-2.75-1-2.37,1.7-1.69,1.45-6.44,2.5-1.38,3.35-2.56-.27-4.19,1-2.77,2.57-.79,4.47,10.39-.86,5.08,2.54-2.2-.44-8.58-.8-5.6,2.51-.19,2.1.3,3,1.59,4.06-.39,1.57-3,4.32.43,3.78-5.65,5,2.93,11.3,7.7,7.39,2.25-3.16,7-4.27,7-8.66,3.34,5.37,4.43,11.72,7.3,17.26,1.12,1.48.54,5.65.61,6.55-.12-.72-.69-1.21-2.14-1.24,2.26,5.45-1.65-1.71-1.38.95-4.78,1.44.46,5.21,2.31,5.74-.43-1.21,1.39-3.79,1.21-5.37,0,.11.06.15.11.09,1.79-1,2.51,6.51,5.2,2,2.06-4.68,8.89-4.24,8.71-10.1.73-4.46-2.41-10.83,3.23-13,5.62-3.93-5.64-.72-3.92-3,3.64,1.3,10.48-3.27,4.32-5.45-5.57-2.84-5.19-11-2.59-15.76,2.43-3.78,7.09-6.31,7.73-11.1-3.16-4.92,3.11-12.47,8.45-9.55,4.46,3.93-1.33,9-3.11,12.84-2.48,3.83-4.94,8.18-1.73,12.17-.26,5.54,3,11.16,9.26,10.33,4.91-.68,8.11-5.15,12.63-7a4,4,0,0,1,2.95-1.53A161.81,161.81,0,0,0,355.6,128.52Zm12.14,23.66.23.14ZM338,159.25Zm26.23,5.59,0,.15Zm-82.31,4.62C281.18,171.46,283.25,170.85,281.89,169.46Zm-.75,4.7-.15,1.1Zm115.25,6.75c.06,6.85.24,20-.43,18.24-2.72,1-6.74-2-8.66-1.91-4.24-.19-1.47,15.14-7.38,6.18-4.43-7.26-7,9.2-5.17,12a8.15,8.15,0,0,1,.47-.72c0,.05,0,.09,0,.14,0-.23,0-.42,0-.72a2.7,2.7,0,0,1,.26,1.36,4.1,4.1,0,0,0,5.22,2c2.65-.12,1.53,2.54,2.4,4.12l.55.32c0,.11-.05.21-.06.32-2.44-.95-5.56-.77-9.29.72-5.95,1.66-8.21.07-11.54-1.73-3.41,3.05-11.27,3.93-13.82,7.07a17,17,0,0,1-2.6-2c-.18-.14-.32-.31-.52-.44,0-.07,0-.13,0-.2s-.18-.2-.26-.32c-4-.47-5,4.2-8.51,3.15,3.72-4.4-4.59-1.33-3.28-3.75.08-1-1-1.71-2.2-2,.23-.56,1-2,.55-3.12,0-2.92,2.17,2.12,2.63,1.33,7.61-.93-4.79-4.46-1.16-3.47-1.3-3.51,6.24-3.52,2-5.16a5.43,5.43,0,0,0-2.62-3.14c1.54-.33,2.79-1,2.74-2.72-.16-.53-1-.9-.15-1.47-1.05.78-5.5,2.72-7.35,4.94a16.15,16.15,0,0,1,3.49-.58,2.62,2.62,0,0,0-.75,1.21c1.36,2.8-5.38-1.86-4.24,4,1.21,1.44-.65,6.7,3.4,8.14-1.37.16-2.24,1-.63,2.88-1.7.21-.42,1.72,1,3.21-2.09-.55-3.19,6.08-4.62,1.12,0-1-5.74,1-2.62,2.57a8.83,8.83,0,0,0-1.19,1.44c.09-.35.17-.7.29-1.07a3,3,0,0,0-3.11-1.55,5.64,5.64,0,0,0-4.19,2.16c-.06.07-.14.15-.2.23-2.24-.11-4.58,4.81-5.42,7.13-2.83,1.65-.14.25-2.83,3a4.36,4.36,0,0,0,.49.34,9.48,9.48,0,0,0-3.61,1.16c-3.61-.47-6.41,2.76-5.27,5-6.58.6-6.27,6.88-12.44,3.37,1.26-.63-6-4.73-2.22,1,.49,5.62-2.58,2.62-5.74,3.47-1-4.26-4-1.13-5.8-2.25-5.77.41.15,2.21-2.14,2.53-2,2.14.64,2.11,3.84,4.22,2.66.44,3.52,1.9,4.62,3.83.8,2.14.57,5.54,3.69,6.75a29.17,29.17,0,0,0,1.07,5.57c-1.45-1.09-4.24,3.77-1.73,4.24-1.33,2-3.66,5.68-4.19,8.37a5.64,5.64,0,0,0-3.34-.55c-3.78-2.62-9.71-1.59-14.37-4.33-3.84-1-8.63-1.94-11.43-3.14a6.57,6.57,0,0,0-1.38-.09c-3.54.19-8.77,2.66-4.44,5.34a2,2,0,0,0-.32,2.42,8.12,8.12,0,0,0-1.53,3c-.28,3.35.3,6.3-2,8.37-.33,3.62-6,5.42-5.54,9.92,4.67,3.9,2.44-.65,1.88,5.37-1.15,3.57-3.2,6,3.72,6.72l1.82-.72.75-.06.29-.14c.36.52,1.23,1,2.88,1.3,3.18,2,2.07,3.39,1.73,4.21,2.2,8.12,8.56-1.27,14.14,1.36,6.59,3.35,9.77-1,15.26-2.69,1.72-.66,2-5.26,5.77-5.94,2.36-1.47-4.1-7.68,2.94-9.75,2.88-5.54,9-4.64,15.18-8.28,2.27-3.09,1.23-3.64-.72-3.9,1.14-1.55,1.15-4.44,4.58-5.94,4.79-1.31,4.83,1.91,7.13-.4-1,1.91,3.27,3.16,5.25,3.11,2.21-1.63,4.77-2.78,6.61-5.08.51,2.91,4.66-4.15,7.7-2.16,5.36-.26,5.39,6.82,7.7,9.15,2.49,3.31,6.25,4.88,9.84,8.77,3.62,1,7.44,2.13,9,4.67,2.4-.5,4.11,3.73,7.5,4.53,4.95,5.25-.83,7.72.84,12,2.26-3,9.63-8.17,4.27-11.11-5.08-3.26,5.35-8.86,7.07-2.13,6.35-5.44-14.26-6.69-11.4-10.94-3.57-1-12.95-2.19-12.81-10-5.94-1.81-7.17-7-6.92-10.32-1.38-1.73,2.05-3.6,4.5-3.9a11,11,0,0,0,2,.55c.27.58.55,1,.89,1.15-4.32,1.66,2,5.74,2.83.64,2.08,3.16,5.83,6,3.75,7.33,3.41,3.21,9,4.63,12,5.51a10.73,10.73,0,0,0,1.42,1c.18.19.32.35.49.52-3-1-6.47-1.07-1.27.25a3.16,3.16,0,0,1,2.22.67l.17.11a3.63,3.63,0,0,0,.81.52l.2.09a3.17,3.17,0,0,0,.87.37,1.66,1.66,0,0,0-.35-.51.68.68,0,0,0,.12-.12s.16.35.14.32c1.13.39,5.42,5.26,4.73,1.84a1.76,1.76,0,0,1,.21-1c0,.45,0,.9,0,1.39,1.93,1.67.19,5.44,1.27,6.63-1.32,3.2.2,4.75,3.55,7a.84.84,0,0,0,1,.34c-.58,1.09-.3,2,2.48,3.32,2,2.8,3.53,5.88,7.19,3.92l.34-.08q2.07-4.24,3.9-8.63c-2.5-3.27-3.3-7.7,1.18-4.24l.35.46a161.45,161.45,0,0,0-5.4-128.5ZM345.9,225.63c.18.24.34.44.52.64a1,1,0,0,0,.49.2C349.54,224.27,345.63,222.84,345.9,225.63Zm29.66-10.18a5.24,5.24,0,0,1-.29-.64C375.26,216.83,375.55,216.36,375.56,215.45Zm-78-31.33s-.09,0-.17,0c-.89.3-3.2,2.18-.58,1.45C295.2,190,298.24,184.35,297.58,184.12Zm95.32,2.07a15.79,15.79,0,0,0-3.69.7c-3.45-.48-4.29,1.29-8.08,2.65-2.38.86-1.31,7,2.11,6.69,1.57-2.67,1,1.94.95,2.54,3.35-4.68,6.19,1.27,9.78-.46,3.32-.6,1-3.89,0-6.46C393.81,188.32,395.19,186.23,392.9,186.19ZM289,191.67c-.62.07-.52,1,1.62,1.16C290.05,191.9,289.41,191.63,289,191.67Zm87.79.61-.23.58C372.76,195.05,382,194.32,376.83,192.28Zm-94.51,1.21c-.43,1.38-1.28.9-.43,2.34-2,.23-2.68,1.94-3.67,2.88,2.69,4.17-3.17,4.44-2.13,6,1.32.09-1.38.34-2,1.76,3.31,1.07,6-4.15,4.09.26-3.65,2.19-.46,2.66-3.31,6,.82,2.09,3.64-8.56,4.58-2.69-.43-.57-.44,4.67-3.11,6.52,3.56,1.24,2.3,1.28,6.2.78,3.61-1.09-2.76,3.85.23,5.43,2.53-1.31-.5,4.36-.37,4.5-.73.73-2.67-.19-4.56.28,1.09-.37-.33-1.44-.7-1.58-1.09-.08-.38,1.56.18,1.67a3.28,3.28,0,0,0-2.08,2c6.38,0-1.69,5.2-3.84,6,1.95,1.6,4.81.93,7.5,3.93,6.12-4,2.25,2.83-1.9.63-3.1,0-8.14,5.21-8.63,5.6,1.84-1,7.95,1.87,9-1.88,4,.93,6.82,2.17,8.82,0,2,1.66,2.26.36,6.44,2,4.41-.31,7.53-3.8,3.08-4.18-2.63.45,1.28-.88.58-2,3.8,1.48,6.45-10.05-.75-6.57-2.14-1.09-.08-5.67-.86-8.46-5.12-3.33-2.47-10.53-8-13.85-6.34.35,3-.34.23-2.48-3.89,2.18,12.2-8.54.69-7.82-7,.62-2.29-1.46.26-3.83C291.33,192.24,282.05,195.84,282.32,193.49Zm-5.22.06a5.14,5.14,0,0,0-3,2c-.62,2.71,2.11.92,3.92-1.7A1,1,0,0,0,277.1,193.55Zm69.06.32a4,4,0,0,1,1.48.37c.59,6.86-9.42,6.34-3.58,2.08C344.1,194.74,344.87,193.81,346.16,193.87Zm32.49,1.18c-2.94,1-4.94,1.46-2.28,3.66C374.65,201.11,382.06,194.7,378.65,195.05Zm-27.81,2.08c.05,5.62-4.76,7.37-.29.23Zm14.91,4.18c-4.58,1-2.06,10.57.26,3.14C363.76,203.73,366.86,202.23,365.75,201.31Zm-6.6,4.44c-.53.7.07,1.57-.49,2.25C356,216.66,359.92,209.07,359.15,205.75ZM266,212.85a2.07,2.07,0,0,0-1.73.61c-2,1.18-1.16,1.59-.32,2.91-2.43,3.2-4.52-1.72-7.7.52,1,1.19,2.34,2.61-1.18,3.29-.07,2.69,6.14,2.76,1.93,4.61-7.55,2.73,7,1.76-1.21,2.08-1.57,1.69-6.46,1-1.85,2.37-7.47,1.25,3.89,1.81-2.34,2.74,5.41-.82-1.16,1.93,2.46,1.32,1.53,2.17,5.13-1.57,5.88-.17,2.18-3,6.44.65,7.79-2.13,3.55-3.3,2-7.47,3-10.13,2.28-.19,5.28-2.77,2-3.17,2.64-2.08-1.36-5.93-4.3-3.93-.11.1-.18.12-.28.21C268.1,213.25,267,212.86,266,212.85Zm75.36,2.89a1.26,1.26,0,0,0,.2,1C341.47,215.93,341.39,215.7,341.35,215.74Zm-62.64,4.12C275.59,220.75,277.82,223.6,278.71,219.86Zm60.93,2c-1.62.13-1.33,3.47,2.54.84a1.22,1.22,0,0,0-1.73-.67A1.6,1.6,0,0,0,339.64,221.85Zm.49,1a.89.89,0,0,1,.29,0C341.46,223.61,339.78,222.91,340.13,222.83Zm-8.54,48.24C332.48,272.84,330.81,272.24,331.59,271.07Zm-.6,26.57c.11,2.92-5.23,1.65-3.78,4.59-.2,2.11-.45,3.91,2.05,5.51C331.51,306.34,331.66,300.61,331,297.64Zm-1,11-.17.2-1.65,1.3c-5.9.82-2.59,2-2.65,6,1.15,2.41-1.31,6,1.15,7.47,1.93-3.67,5.18-.12,5.43-4.93C331.82,314.19,333.76,310.71,330,308.66Zm-27.64,6.15c-2.5-.26,3.79,3.6,1.65.4A8.61,8.61,0,0,0,302.31,314.81Zm-3.66.34-2.19.64C290.84,319,303.43,320,298.65,315.15Zm-4.94,3.15C289.93,321.44,296.93,318.71,293.71,318.3Zm1.22,1.44C292.09,321.55,297.75,320.63,294.93,319.74Zm94.71,3.14c-.93.06-1.1,2.05,1.56,1.53C390.67,323.24,390.06,322.86,389.64,322.88Zm6.12.15a1.63,1.63,0,0,0-.23.11c-2.89.36-2.72,1.92-1.59,3.44C394.56,325.41,395.16,324.22,395.76,323Zm-33.06,3.29c-1.53,0-1.27,1.82-3.38.72-4.24,2.67-8.68.61-11.22.81-4.49,5.56,8.12,4.28,10,8.13,7.68,1.43.23-6,5.33-9.55A3,3,0,0,0,362.7,326.32Zm-11.89,17.91a2.32,2.32,0,0,0-.38.06,1.36,1.36,0,0,0-.8,1.65c.38,1.51,3.56,2.94,4.87,3.37a5.07,5.07,0,0,1,2.4,1.47c.51.5.5.83,1.15,1,.86.21.8-1.12.89-1.58a2.86,2.86,0,0,0-.26-1.82,5.67,5.67,0,0,0-.72-1.21,7.5,7.5,0,0,1-.89-1.13c-.24-.46-.54.05-.72-.32l0,.24c-.3.58-1.13-.71-1.71-1a5.51,5.51,0,0,0-2.48-.61C351.74,344.29,351.24,344.22,350.81,344.23Zm-82.14,1a7,7,0,0,0-1.76.32c-1.18.43-2.68,1-3.29,2.16a2,2,0,0,0-.08,1.39c-.29-.07-1.63.43-2.31.43s-.84,0-1.24.35-.17,1.37-.17,1.84a1.08,1.08,0,0,0,.69,1.13c.77.38,1.86-.37,2.42-.78.4-.3.82-1.08,1.24-1.5s1.34-.09,1.85-.09a2.52,2.52,0,0,0,2.13-1.3,6,6,0,0,0,1.24-3.54C269.39,345.38,269.08,345.27,268.67,345.27Zm-20,2.05-.35,4.53.43.17a3,3,0,0,0,1.33-.08c.16.06,1.57-1.31,1.79-1.42a2.85,2.85,0,0,0,.9-.69,1.67,1.67,0,0,0,.51-1c.16-.61-.6-.9-1.06-1.12a3.69,3.69,0,0,0-1.76-.26C250,347.41,249.29,347.32,248.71,347.32Zm8.34,2.16c-.24-.05-.4.23-.61.35a5.35,5.35,0,0,1-1.79.17,1.78,1.78,0,0,0-1.15.18c-.4.19-.25,1.38-.18,1.67a1.34,1.34,0,0,0,1.16,1,4.18,4.18,0,0,0,2-.35c.41-.1.65.19,1.06.09.57-.14.61-1,.61-1.41A4.38,4.38,0,0,0,258,350C257.94,349.65,257.38,349.57,257.05,349.48Z"/><path id="path2639" class="cls-7" d="M148,139.58s59-12.78,80.24-25.41l8.48,2-48.8,171.37s-19,39,37.71,38.63l-1,5.76H97.11l1.11-7.71s42,.71,50.65-32.49,30.85-111.44,30.85-111.44c4.21-13,12.56-35.58-6.5-35.88-15.64-.25-26.07-.58-26.07-.58Zm237.7,56.33c-4.25-.2-1.47,15.12-7.38,6.16-4.44-7.26-7,9.21-5.18,12a8.18,8.18,0,0,1,.48-.72,4.18,4.18,0,0,0,5.56,2.73c2.65-.11,1.51,2.56,2.38,4.15.15.07.4.21.56.3l-.06.33c-2.43-1-5.55-.77-9.28.72-5.95,1.66-8.23.06-11.56-1.74-3.4,3.05-11.27,3.93-13.82,7.07A10.49,10.49,0,0,1,344,224c-4-.47-5,4.2-8.54,3.15,3.71-4.4-4.57-1.34-3.27-3.76.09-1-1-1.7-2.21-2,.23-.55,1-2,.56-3.09,0-2.92,2.18,2.12,2.63,1.33,7.62-.93-4.78-4.48-1.15-3.48-1.3-3.52,6.23-3.52,2-5.17a5.44,5.44,0,0,0-2.63-3.14c1.54-.33,2.79-1,2.74-2.71-.15-.53-1-.9-.14-1.46-1.05.77-5.5,2.7-7.36,4.91a17.26,17.26,0,0,1,3.5-.55,2.54,2.54,0,0,0-.75,1.19c1.36,2.8-5.39-1.84-4.26,4,1.21,1.44-.63,6.68,3.42,8.12-1.38.16-2.26,1-.65,2.9-1.69.21-.42,1.72,1,3.2-2.08-.54-3.18,6.09-4.61,1.13,0-1-5.75.94-2.63,2.54a8.82,8.82,0,0,0-1.18,1.47c.09-.35.16-.71.28-1.08a3,3,0,0,0-3.1-1.55,5.68,5.68,0,0,0-4.2,2.16c-.06.07-.14.14-.2.22-2.24-.12-4.58,4.8-5.42,7.12-2.83,1.66-.14.26-2.83,3a4,4,0,0,0,.51.36,9.36,9.36,0,0,0-3.61,1.13c-3.61-.46-6.42,2.77-5.29,5-6.58.6-6.25,6.9-12.42,3.39,1.26-.63-6-4.74-2.24,1,.49,5.62-2.58,2.63-5.73,3.48-1-4.26-4-1.14-5.8-2.27-5.76.42.13,2.22-2.15,2.54-2,2.14.66,2.12,3.86,4.23,2.66.44,3.52,1.87,4.62,3.81.79,2.13.57,5.55,3.69,6.76a30.15,30.15,0,0,0,1.06,5.58c-1.45-1.1-4.24,3.75-1.73,4.22-1.32,2-3.67,5.68-4.2,8.37a5.52,5.52,0,0,0-3.33-.55c-3.78-2.63-9.71-1.58-14.38-4.31-3.84-1-8.61-1.94-11.41-3.15a6.21,6.21,0,0,0-1.4-.08c-3.54.18-8.75,2.64-4.42,5.33a2,2,0,0,0-.34,2.43,8.19,8.19,0,0,0-1.51,3c-.28,3.35.28,6.3-2,8.37-.33,3.62-6,5.4-5.54,9.91,4.67,3.89,2.44-.67,1.88,5.36-1.15,3.57-3.2,6,3.72,6.73l1.82-.71.75-.06.31-.17c.36.52,1.23,1,2.88,1.3,3.18,2,2.07,3.41,1.74,4.23,2.19,8.11,8.55-1.28,14.12,1.35,6.6,3.35,9.76-1,15.25-2.68,1.72-.66,2.06-5.25,5.79-5.93,2.36-1.48-4.1-7.67,2.94-9.75,2.88-5.54,9-4.64,15.16-8.28,2.28-3.09,1.23-3.64-.73-3.9,1.15-1.55,1.16-4.46,4.59-6,4.78-1.31,4.83,1.93,7.13-.39-1,1.92,3.28,3.18,5.26,3.12,2.21-1.62,4.77-2.78,6.61-5.08.51,2.91,4.65-4.17,7.69-2.18,5.36-.26,5.41,6.81,7.72,9.14,2.49,3.32,6.23,4.89,9.82,8.78,3.62,1,7.45,2.12,9,4.67,2.4-.5,4.1,3.73,7.5,4.52,4.94,5.26-.83,7.73.84,12,2.25-3,9.63-8.16,4.28-11.1-5.08-3.26,5.33-8.85,7.05-2.12,6.35-5.44-14.26-6.69-11.39-10.94-3.57-1-13-2.2-12.81-10.05-5.94-1.81-7.16-7-6.91-10.32-1.38-1.73,2.05-3.59,4.5-3.89a11,11,0,0,0,2,.55c.27.58.55,1,.89,1.13-4.32,1.66,2,5.74,2.83.64,2.07,3.15,5.82,6,3.75,7.34,3.4,3.21,9,4.62,12,5.49a10.13,10.13,0,0,0,1.4,1l.5.53c-3-1-6.46-1.08-1.26.25a3.08,3.08,0,0,1,2.21.66l.17.11a3.89,3.89,0,0,0,.81.53l.2.08a3.64,3.64,0,0,0,.86.38,1.74,1.74,0,0,0-.33-.52.57.57,0,0,0,.11-.11l.14.3c1.13.39,5.42,5.27,4.73,1.85a1.75,1.75,0,0,1,.19-1c0,.44,0,.9,0,1.38,1.93,1.67.21,5.43,1.29,6.63-1.32,3.19.2,4.74,3.55,7a.84.84,0,0,0,1,.36c-.58,1.09-.32,2,2.46,3.31,2,2.81,3.54,5.88,7.19,3.92,3.85-1.26,3.21.14,6.85,0,.83,3.69-4.47-.87-7.32,1.27-4.48.55-1.69,3.93.81,5.71-.71,6.77,3.35-2.29,4.56,4.72.79-4.77,6.07,2.1,2.4-4.64-5.29-4.83,5.48-.3.34-4.52-2.51-4,6.77,1.91,4.25-1.55-.32-3.45-5.15-3.42-8.06-4.45,3.09.7-1.26-4.87,3.19-2.76-4.25-2.12-7.49-11.26-1.59-6.71,3.9,5.49-1.71-3.38,3.69,1.44-4-4.27,5.85.21-.14-3.17-4.19-.91,2.28-3.31,4.5-4.15,6.22.32,5.19.89,7.5-4.14-.84-1.14-1.41-1.87-1.84-2.34,1.15-2.78,4.36-1.85,6.65-2.93-2-2.07-1.6-3-1.39-7.51,3-2,2.44-3.3.78-4.09a4.79,4.79,0,0,1,1.51,0c-.39-2.11-.84-4.21.39-6-2.71-3.17,2.34,1.29,2.52-3.89-1-1.64-3.28-.35-5.18.11.29-3.51-.37-8.27.87-7.15,2.43-1.25,5.19-.77,1.4-3.78-1.9-1.61,26.11,3.23,10.29-3.31.89-8.51-.66-11.12-.47-15.12,5.18-.51.68-12.35-1-14.3,4.47-1.13,3.07-4.2.28-11.86-3.21-2.91-2.63-10.74-2.87-15.51-3.21-6.84-10.17-25.77-14.6-25.12-.52.48-17.25.53-17.92.95-.3-3.27.46,24.57-.49,22.06C391.6,198.85,387.58,195.85,385.67,195.91ZM297,313.82c4.78,4.82-7.8,3.85-2.18.63l2.18-.63Zm5.33.05C304.79,317.53,296.2,312,302.33,313.87Zm-9,4.53C290.46,320.21,296.12,319.28,293.29,318.4ZM292.08,317C288.29,320.1,295.29,317.36,292.08,317Zm69.75,8.14c-5.11,3.58,2.35,11-5.33,9.55-1.91-3.85-14.53-2.58-10.05-8.14,2.55-.19,7,1.86,11.24-.82,2.41,1.26,1.72-1.26,4.14-.59Zm-33.51-17.77c3.82,2.05,1.84,5.53,2.08,10.06-.25,4.81-3.46,1.26-5.39,4.93-2.46-1.46,0-5.07-1.16-7.47.07-4-3.25-5.2,2.65-6l1.64-1.31.18-.19m61.23,15.75C385.68,323.81,387.84,319.3,389.55,323.07Zm17.36-4.1c-4.94-.47-10.54-5.27-2.39-2.33,2.39-.72,6.82,6.08,2.74,2.8C407.22,318.79,406.21,319.79,406.91,319Zm-62.65-94.49c-.5-3.07,3.71-1.61,1,.64C344.79,225.1,344.59,224.71,344.26,224.48ZM371,114.27c-1.24.87-1.15,5.13-3.26,2.6,0,3.82-2.56,3.76-1.77,0-1.34-1.27-3.1,3-3.92,3.48,1.48,4.32-5-1-3,3.68-2.46-.34-2.16,6.13-3.65,2.07-.07,2.92-2.23-1.25-1.16,1.89-1.35,1-6.29-.72-4.67,2.38,3.37-1.94.14,5.76-2.25,2.09-3.29.47-1.54,4.64,1.14,2.08,4.73.8-5.22,2.74-1.16,3.16-3,0-.51,4.63-2.9,4,.27,2.94-4.48,4.44-4.32,8.28-.72,3.71-.44,7.12-4.07,9.11,1.37,2.31-3.68.54-3.65,3.9-1.48,3.23,1.45,3.16,3,1.41-.07,4.19-6.45,2.47-8.61,5.09-1.81,1.33-4.7-.45-2.65,2.32-1.12,1.36-2.76-1-2.38,1.7-1.69,1.45-6.44,2.5-1.38,3.35-2.56-.27-4.2,1-2.78,2.55-.79,4.48,10.4-.84,5.08,2.55-2.19-.44-8.56-.78-5.58,2.52-.19,2.11.3,3,1.58,4-.38,1.57-3,4.32.42,3.78-5.65,5,2.93,11.3,7.7,7.39,2.24-3.16,7-4.27,7-8.66,3.33,5.37,4.42,11.71,7.29,17.25,1.31,1.74.32,7.21.72,6.73,1.79-1,2.51,6.54,5.19,2,2.07-4.68,8.9-4.25,8.72-10.11.73-4.46-2.4-10.83,3.24-13,5.62-3.92-5.65-.73-3.93-3,3.64,1.3,10.5-3.26,4.34-5.45-5.58-2.83-5.21-10.94-2.6-15.74,2.43-3.79,7.08-6.31,7.72-11.1-3.15-4.92,3.11-12.48,8.45-9.56,4.46,3.93-1.33,9-3.11,12.82-2.48,3.84-4.93,8.19-1.72,12.18-.26,5.53,3,11.17,9.25,10.34,4.92-.68,8.12-5.15,12.65-7,2.64-4.71,25.07,2.26,24-3.55-1.58-3.56-10.89-18.69-12.52-22.35-2.27-3.74-5.25-10.24-7.68-13.88-1.41-4.86-9.84-8.41-11.8-12.62-1.21-2.18-2.15-4.86-3.57-4.2-3.54.2-2.79-2.56-.71-3.16.12-4.49-6.11-1.33-6-1.18C371.63,115.8,372,114.55,371,114.27ZM346,192.9c.59,6.86-9.4,6.33-3.56,2.07C342.49,192.85,343.81,191.93,346,192.9Zm3.2,2.89c.05,5.62-4.76,7.36-.29.22l.29-.22ZM340.61,217Zm16.9-12.56c.77,3.32-3.19,10.89-.49,2.24C357.59,206,357,205.1,357.51,204.41Zm6.86-1.3c-2.33,7.42-4.84-2.16-.25-3.13C365.23,200.9,362.11,202.39,364.37,203.11Zm1.72-52.28.24.15-.24-.15Zm-3.5,12.81,0-.14,0,.14ZM339.9,215.38C339.53,215.14,339.7,213.3,339.9,215.38Zm-3.56-57.47C335.67,158,336.21,157.93,336.34,157.91Zm-72,53.6a2,2,0,0,0-1.73.61c-2,1.18-1.15,1.57-.31,2.9-2.43,3.19-4.51-1.72-7.69.52,1,1.19,2.31,2.61-1.21,3.29-.06,2.68,6.17,2.78,2,4.63-7.54,2.73,7,1.75-1.23,2.07-1.57,1.69-6.46,1-1.85,2.38-7.47,1.25,3.91,1.8-2.32,2.73,5.41-.82-1.18,1.94,2.44,1.33,1.53,2.16,5.15-1.57,5.9-.17,2.18-3.05,6.42.63,7.78-2.15,3.55-3.3,1.95-7.47,3-10.13,2.28-.2,5.31-2.75,2-3.15,2.63-2.08-1.38-6-4.31-4l-.28.22C266.47,211.91,265.38,211.51,264.34,211.51Zm16.4-19.6c-.4,1.7-1.37,1.05-.48,2.56-2,.24-2.68,2-3.67,2.9,2.7,4.17-3.18,4.43-2.15,6,1.33.09-1.37.35-2,1.76,3.32,1.08,6.07-4.15,4.12.25-3.66,2.2-.48,2.69-3.33,6,.82,2.1,3.64-8.55,4.59-2.68-.44-.57-.44,4.67-3.11,6.52,3.57,1.24,2.28,1.27,6.18.77,3.61-1.09-2.76,3.83.23,5.41,2.52-1.31-.49,4.37-.37,4.5-.72.74-2.67-.17-4.56.31,1.09-.38-.33-1.46-.7-1.6-1.09-.09-.35,1.57.2,1.68a3.31,3.31,0,0,0-2.1,2c6.38,0-1.69,5.18-3.83,6,1.94,1.59,4.8,1,7.5,4,6.11-4,2.24,2.83-1.91.63-3.09,0-8.12,5.19-8.61,5.58,1.83-1,7.95,1.87,9-1.88,4,.93,6.81,2.17,8.81,0,2,1.66,2.25.36,6.43,2,4.41-.32,7.56-3.79,3.11-4.17-2.63.45,1.26-.87.56-2,3.79,1.48,6.44-10.07-.76-6.6-2.14-1.08-.08-5.66-.87-8.45-5.11-3.33-2.44-10.51-8-13.83-6.33.35,3-.35.23-2.48-3.89,2.17,12.21-8.54.7-7.82-7,.62-2.3-1.47.25-3.84C289.8,190.76,279.8,194.74,280.74,191.91Zm15-9.1c1.27-.59-2.3,6.19-.56,1.45C292.59,185,294.88,183.11,295.76,182.81ZM289,191.48c-3.42-.25-1.63-2.49,0,0Zm-12.59,1c-1.81,2.63-4.54,4.42-3.93,1.7C272.75,193.5,275.51,191.44,276.42,192.49Zm.66,26C274,219.42,276.19,222.27,277.08,218.53Zm96.58-5.79C373.51,217,374.35,214,373.66,212.74Zm8.88-15.31c3.36-4.68,6.19,1.28,9.78-.45,3.32-.6,1-3.9,0-6.47-.18-4.7,2.29-6.85-4.75-5-3.44-.47-4.28,1.3-8.07,2.66-2.38.86-1.31,7,2.1,6.69C383.17,192.21,382.58,196.83,382.54,197.43ZM377,193.72c3.4-.35-4,6-2.27,3.65C372.08,195.17,374.06,194.76,377,193.72Zm-1.83-2.79c5.2,2-4.05,2.76-.21.57l.21-.57ZM329.34,296.3c.66,3,.52,8.68-1.73,10.08-2.5-1.6-2.25-3.39-2.05-5.51C324.12,297.93,329.45,299.22,329.34,296.3Zm.61-26.57C330.83,271.5,329.16,270.9,330,269.73Zm-50.46-96.9-.14,1.08.14-1.08Zm.76-4.72C281.61,169.5,279.55,170.11,280.25,168.11Zm59.29,45.54c4.62.1.27,4.9.91,6.69-1.85-.53-7.09-4.29-2.31-5.73C337.87,212,341.79,219.11,339.54,213.65Zm1,7.7c-4.43,3-4.17-1.79-1.74-.67A1.23,1.23,0,0,1,340.56,221.35Zm-1.78.15C337.6,221.33,340,222.38,338.78,221.5ZM247.07,346l-.36,4.51.45.18a3.19,3.19,0,0,0,1.33-.09c.16.06,1.55-1.28,1.78-1.39a2.81,2.81,0,0,0,.88-.69,1.7,1.7,0,0,0,.54-1.05c.15-.6-.61-.9-1.07-1.13a3.88,3.88,0,0,0-1.78-.26C248.29,346.06,247.65,346,247.07,346Zm7.73,2.52a5.32,5.32,0,0,1-1.78.17,1.9,1.9,0,0,0-1.16.17c-.4.2-.25,1.36-.17,1.65a1.35,1.35,0,0,0,1.15,1.05,4.12,4.12,0,0,0,2-.35c.42-.1.65.19,1.07.09s.62-1,.62-1.39a4,4,0,0,0-.18-1.22c-.09-.36-.64-.44-1-.52S255,348.38,254.8,348.5Zm7.1-.7c-.29-.07-1.63.44-2.31.44s-.84-.05-1.24.34-.18,1.35-.18,1.83a1.1,1.1,0,0,0,.71,1.13c.77.37,1.84-.37,2.4-.79.4-.29.82-1.06,1.24-1.47s1.36-.09,1.87-.09a2.55,2.55,0,0,0,2.13-1.3,6.06,6.06,0,0,0,1.25-3.56c0-.79-2.27-.17-2.49-.09-1.18.43-2.68,1-3.29,2.17A1.89,1.89,0,0,0,261.9,347.8Zm92.83-3.21c-.3.58-1.12-.71-1.69-1a5.67,5.67,0,0,0-2.48-.6,8.8,8.8,0,0,0-1.78,0,1.36,1.36,0,0,0-.8,1.65c.39,1.51,3.57,3,4.89,3.38a5,5,0,0,1,2.39,1.48c.51.5.51.8,1.16,1,.86.21.79-1.1.89-1.57A2.94,2.94,0,0,0,357,347a5.67,5.67,0,0,0-.71-1.22,7,7,0,0,1-.89-1.13c-.27-.52-.64.24-.8-.52"/><path id="path5770" class="cls-6" d="M331.73,111.67v46.71a1.79,1.79,0,0,0,.89,1.53,1.76,1.76,0,0,0,1.76,0,1.84,1.84,0,0,0,1.79-.05,1.76,1.76,0,0,0,.84-1.53V114.9Q334.4,113.24,331.73,111.67ZM348.58,123v5.79a1.81,1.81,0,0,0,2.59,1.59h0a1.81,1.81,0,0,0,1.79-.06,1.75,1.75,0,0,0,.84-1.53v-1.58C352.11,125.81,350.35,124.4,348.58,123ZM384.7,335.92a1.83,1.83,0,0,0-.93.35l-.89.66a1.78,1.78,0,0,0-.72,1.44l0,4.76c1.48-2.1,2.91-4.25,4.3-6.43l-.61-.43A1.74,1.74,0,0,0,384.7,335.92Zm-50.46.58a1.67,1.67,0,0,0-.92.34l-.87.64a1.78,1.78,0,0,0-.72,1.44v50.63c1.78-1,3.54-2.09,5.28-3.2V338.89a1.79,1.79,0,0,0-.75-1.44l-.84-.61A1.78,1.78,0,0,0,334.24,336.5Zm33.67,0a1.73,1.73,0,0,0-.93.34l-.83.61a1.76,1.76,0,0,0-.75,1.44v24.38c1.8-1.84,3.56-3.71,5.28-5.63V338.92a1.79,1.79,0,0,0-.73-1.44l-.86-.64A1.78,1.78,0,0,0,367.91,336.5Zm-16.85,16.21a1.73,1.73,0,0,0-.9.35l-.83.6a1.78,1.78,0,0,0-.75,1.45v23.1c1.78-1.37,3.53-2.8,5.25-4.24V355.11a1.84,1.84,0,0,0-.75-1.45l-.84-.6A1.79,1.79,0,0,0,351.06,352.71Z"/><path id="path4292" class="cls-8" d="M228.2,114.17C206.92,126.8,148,139.58,148,139.58l-.81,4.25s10.42.32,26.05.57c19.06.31,10.73,22.86,6.52,35.86,0,0-22.24,78.25-30.87,111.45-6.16,23.71-29.28,30.09-42,31.82,1.47,2.86,3,5.65,4.64,8.4H224.62l1-5.77c-56.7.39-37.7-38.63-37.7-38.63l48.78-171.37Zm125.76,13c0,.19.16.45.29.84-1.36,1-6.3-.73-4.68,2.36,3.37-1.94.13,5.75-2.25,2.08-3.29.47-1.55,4.64,1.13,2.08,4.73.8-5.22,2.75-1.16,3.17-3,0-.52,4.64-2.91,4,.27,2.94-4.46,4.43-4.3,8.28-.72,3.71-.47,7.1-4.1,9.09,1.38,2.31-3.66.56-3.63,3.92-1.48,3.24,1.46,3.13,3,1.38-.07,4.2-6.47,2.49-8.63,5.11-1.81,1.33-4.7-.45-2.65,2.31-1.12,1.36-2.75-1-2.37,1.7-1.69,1.45-6.44,2.5-1.38,3.35-2.56-.27-4.19,1-2.77,2.57-.79,4.47,10.39-.86,5.08,2.53-2.2-.43-8.58-.79-5.6,2.51-.19,2.11.3,3,1.59,4.07-.39,1.57-3,4.32.43,3.78-5.65,5,2.93,11.3,7.7,7.39,2.25-3.16,7-4.27,7-8.66,3.34,5.37,4.43,11.71,7.3,17.25,1.12,1.49.54,5.66.61,6.55-.12-.71-.69-1.21-2.14-1.24,2.26,5.46-1.65-1.7-1.38,1-4.78,1.44.46,5.21,2.31,5.74-.43-1.22,1.39-3.79,1.21-5.37,0,.11.06.15.11.09,1.79-1,2.51,6.51,5.2,2,2.06-4.68,8.89-4.24,8.71-10.1.73-4.46-2.41-10.83,3.23-13,5.62-3.93-5.64-.72-3.92-3,3.64,1.3,10.48-3.27,4.32-5.46-5.57-2.83-5.19-10.94-2.59-15.75,2.43-3.78,7.09-6.31,7.73-11.11-3.16-4.91,3.11-12.46,8.45-9.54,4.46,3.92-1.33,9-3.11,12.83-2.48,3.84-4.94,8.19-1.73,12.18-.26,5.54,3,11.16,9.26,10.33,4.91-.68,8.11-5.15,12.63-7a4,4,0,0,1,3-1.53A161.81,161.81,0,0,0,354,127.18Zm12.14,23.66.23.14Zm-29.77,7.06C335.66,158,336.2,157.92,336.33,157.9Zm26.23,5.6,0,.15Zm-82.31,4.62C279.54,170.11,281.61,169.51,280.25,168.12Zm-.75,4.7-.15,1.1Zm115.25,6.75c.06,6.85.24,20-.43,18.23-2.72,1-6.74-2-8.66-1.9-4.24-.19-1.47,15.14-7.38,6.17-4.43-7.26-7,9.21-5.17,12a8.15,8.15,0,0,1,.47-.72s0,.09.05.14c0-.23,0-.42,0-.72a2.68,2.68,0,0,1,.26,1.35,4.1,4.1,0,0,0,5.22,2c2.65-.12,1.53,2.54,2.4,4.12l.55.32a3,3,0,0,0-.06.32c-2.44-1-5.56-.77-9.29.72-5.95,1.66-8.21.07-11.54-1.73-3.41,3.05-11.27,3.93-13.82,7.07a16.48,16.48,0,0,1-2.6-2c-.18-.14-.32-.3-.52-.43,0-.07,0-.13,0-.2s-.18-.2-.26-.32c-4-.47-5,4.2-8.51,3.15,3.72-4.4-4.59-1.34-3.29-3.75.09-1-1-1.71-2.19-2,.23-.55,1-2,.55-3.11,0-2.93,2.17,2.12,2.63,1.33,7.61-.93-4.79-4.46-1.16-3.47-1.3-3.52,6.24-3.52,2-5.16a5.48,5.48,0,0,0-2.62-3.15c1.54-.32,2.79-1,2.74-2.71-.16-.53-1-.9-.15-1.47-1,.77-5.5,2.72-7.35,4.93a16.87,16.87,0,0,1,3.49-.57,2.62,2.62,0,0,0-.75,1.21c1.36,2.8-5.38-1.86-4.24,4,1.21,1.44-.65,6.7,3.4,8.14-1.37.16-2.24,1-.63,2.88-1.7.21-.42,1.72,1,3.2-2.09-.54-3.19,6.08-4.62,1.13,0-1-5.74,1-2.62,2.57a8.83,8.83,0,0,0-1.19,1.44c.09-.35.17-.7.29-1.07a3,3,0,0,0-3.11-1.56,5.68,5.68,0,0,0-4.19,2.17c-.06.07-.14.15-.2.23-2.24-.12-4.58,4.81-5.42,7.13-2.83,1.65-.14.25-2.83,3a4.36,4.36,0,0,0,.49.34,9.31,9.31,0,0,0-3.61,1.16c-3.61-.47-6.41,2.76-5.27,5-6.58.6-6.27,6.88-12.44,3.37,1.26-.63-6-4.73-2.22,1,.49,5.62-2.58,2.61-5.74,3.46-1-4.25-4-1.12-5.8-2.25-5.77.42.15,2.22-2.14,2.54-2,2.14.64,2.11,3.84,4.21,2.66.45,3.52,1.9,4.62,3.84.8,2.14.57,5.54,3.69,6.75a29.17,29.17,0,0,0,1.07,5.57c-1.45-1.09-4.24,3.77-1.73,4.24-1.33,2-3.66,5.68-4.19,8.37a5.64,5.64,0,0,0-3.34-.55c-3.78-2.62-9.71-1.59-14.37-4.33-3.84-1-8.63-1.94-11.43-3.14a6.57,6.57,0,0,0-1.38-.09c-3.54.18-8.77,2.65-4.44,5.34a2,2,0,0,0-.32,2.42,8.12,8.12,0,0,0-1.53,3c-.28,3.34.3,6.3-2,8.37-.33,3.62-6,5.41-5.54,9.92,4.67,3.89,2.44-.66,1.88,5.37-1.15,3.57-3.2,6,3.72,6.72l1.82-.72.75-.06.28-.14c.37.52,1.24,1,2.89,1.3,3.18,2,2.07,3.39,1.73,4.21,2.2,8.12,8.56-1.28,14.14,1.35,6.59,3.35,9.77-1,15.26-2.68,1.72-.66,2-5.26,5.77-5.94,2.36-1.48-4.1-7.68,2.94-9.75,2.88-5.54,9-4.65,15.18-8.28,2.27-3.09,1.23-3.65-.72-3.9,1.14-1.55,1.15-4.45,4.58-5.94,4.79-1.32,4.83,1.91,7.13-.41-1,1.92,3.27,3.17,5.25,3.12,2.21-1.63,4.77-2.78,6.61-5.08.51,2.91,4.66-4.15,7.7-2.16,5.36-.26,5.39,6.82,7.7,9.14,2.49,3.32,6.25,4.89,9.84,8.77,3.62,1,7.44,2.14,9,4.68,2.4-.5,4.11,3.73,7.5,4.53,5,5.25-.83,7.72.84,12,2.26-3,9.63-8.17,4.27-11.11-5.08-3.26,5.35-8.86,7.07-2.13,6.35-5.44-14.26-6.69-11.4-10.94-3.57-1-12.95-2.19-12.81-10-5.94-1.81-7.17-7-6.92-10.33-1.38-1.72,2.05-3.59,4.5-3.89a11,11,0,0,0,2,.55c.27.57.55,1,.89,1.15-4.32,1.66,2,5.74,2.83.64,2.08,3.15,5.83,6,3.75,7.32,3.41,3.22,9,4.64,12,5.51a9.12,9.12,0,0,0,1.42,1c.18.2.32.36.49.52-3-1-6.47-1.06-1.27.26a3.16,3.16,0,0,1,2.22.67l.17.11a3.63,3.63,0,0,0,.81.52l.2.09a3.51,3.51,0,0,0,.87.37,1.83,1.83,0,0,0-.35-.52.41.41,0,0,0,.12-.11s.16.35.14.32c1.13.38,5.42,5.26,4.73,1.84a1.76,1.76,0,0,1,.21-1c0,.45,0,.9,0,1.39,1.93,1.67.19,5.44,1.27,6.63-1.32,3.2.2,4.75,3.55,7a.83.83,0,0,0,1,.35c-.58,1.09-.3,2,2.48,3.32,2,2.8,3.53,5.88,7.19,3.92l.34-.08q2.07-4.25,3.9-8.63c-2.5-3.27-3.3-7.7,1.18-4.24l.35.46a161.45,161.45,0,0,0-5.4-128.5Zm-50.49,44.72c.18.23.34.44.52.63a1,1,0,0,0,.49.21C347.9,222.93,344,221.5,344.26,224.29Zm29.66-10.19a4.51,4.51,0,0,1-.29-.63C373.62,215.49,373.91,215,373.92,214.1Zm-78-31.33a.3.3,0,0,0-.17,0c-.89.3-3.2,2.18-.58,1.44C293.56,188.69,296.6,183,295.94,182.77Zm95.32,2.08a16.17,16.17,0,0,0-3.69.69c-3.45-.47-4.29,1.3-8.08,2.66-2.38.86-1.31,7,2.11,6.69,1.57-2.67,1,1.94.95,2.54,3.35-4.68,6.19,1.27,9.78-.46,3.32-.6,1-3.9,0-6.46C392.17,187,393.55,184.89,391.26,184.85ZM287.4,190.33c-.62.07-.52,1,1.62,1.16C288.41,190.55,287.77,190.29,287.4,190.33Zm87.79.61-.23.58C371.12,193.71,380.39,193,375.19,190.94Zm-94.51,1.21c-.43,1.38-1.28.9-.43,2.34-2,.23-2.68,1.93-3.67,2.88,2.69,4.17-3.17,4.43-2.13,6,1.32.1-1.38.35-2,1.76,3.31,1.08,6-4.14,4.09.26-3.65,2.2-.46,2.67-3.31,6,.82,2.1,3.64-8.55,4.58-2.68-.43-.57-.44,4.67-3.11,6.52,3.56,1.24,2.3,1.27,6.2.78,3.61-1.1-2.76,3.84.23,5.42,2.53-1.31-.5,4.37-.37,4.5-.73.74-2.67-.18-4.56.29,1.09-.37-.33-1.44-.7-1.58-1.09-.09-.38,1.56.18,1.67a3.28,3.28,0,0,0-2.08,2c6.38,0-1.69,5.2-3.84,6,2,1.6,4.81.93,7.5,3.92,6.12-4,2.25,2.84-1.9.64-3.1,0-8.14,5.21-8.63,5.6,1.84-1,7.95,1.87,9-1.88,4,.93,6.82,2.17,8.82,0,2,1.66,2.26.36,6.44,2,4.41-.31,7.53-3.8,3.08-4.18-2.63.45,1.28-.88.58-2.05,3.79,1.48,6.45-10.05-.75-6.58-2.14-1.08-.08-5.66-.86-8.45-5.12-3.33-2.47-10.53-8-13.85-6.34.35,3-.35.23-2.48-3.89,2.17,12.2-8.54.69-7.82-7,.62-2.3-1.47.26-3.83C289.69,190.9,280.41,194.5,280.68,192.15Zm-5.22.06a5.14,5.14,0,0,0-3,2c-.62,2.71,2.11.92,3.92-1.7A1,1,0,0,0,275.46,192.21Zm69.06.31a4.25,4.25,0,0,1,1.48.38c.59,6.86-9.42,6.34-3.58,2.08C342.46,193.39,343.23,192.47,344.52,192.52ZM377,193.71c-2.94,1-4.94,1.46-2.28,3.66C373,199.77,380.42,193.36,377,193.71Zm-27.81,2.07c.05,5.63-4.76,7.38-.29.24ZM364.11,200c-4.58,1-2.06,10.57.26,3.14C362.12,202.39,365.22,200.89,364.11,200Zm-6.6,4.44c-.53.7.07,1.57-.49,2.25C354.31,215.31,358.28,207.73,357.51,204.41Zm-93.16,7.1a2.07,2.07,0,0,0-1.73.6c-2,1.19-1.16,1.59-.32,2.92-2.43,3.2-4.52-1.72-7.7.52,1,1.19,2.34,2.61-1.18,3.29-.07,2.68,6.14,2.76,1.93,4.61-7.55,2.73,7,1.75-1.21,2.08-1.57,1.69-6.46,1-1.85,2.37-7.47,1.25,3.89,1.81-2.34,2.74,5.41-.82-1.16,1.93,2.46,1.32,1.53,2.17,5.13-1.57,5.88-.17,2.18-3,6.44.65,7.79-2.14,3.55-3.3,2-7.46,3-10.12,2.28-.19,5.28-2.77,2-3.17,2.64-2.08-1.36-5.93-4.3-3.93-.11.1-.18.12-.28.2C266.46,211.91,265.39,211.51,264.35,211.51Zm75.36,2.88c-.07.05,0,.83.2,1C339.83,214.59,339.74,214.36,339.71,214.39Zm-62.64,4.13C274,219.41,276.18,222.26,277.07,218.52Zm60.93,2c-1.62.13-1.33,3.47,2.54.84a1.22,1.22,0,0,0-1.73-.67A1.6,1.6,0,0,0,338,220.51Zm.49,1a.89.89,0,0,1,.29,0C339.82,222.27,338.14,221.57,338.49,221.49ZM330,269.73C330.84,271.5,329.17,270.9,330,269.73Zm-.6,26.57c.11,2.91-5.23,1.64-3.78,4.59-.2,2.11-.45,3.9,2.05,5.51C329.87,305,330,299.27,329.35,296.3Zm-1,11-.17.2-1.65,1.3c-5.9.81-2.59,2-2.65,6,1.15,2.4-1.31,6,1.15,7.47,1.93-3.67,5.18-.12,5.43-4.93C330.18,312.85,332.12,309.36,328.31,307.32Zm-27.64,6.14c-2.5-.25,3.79,3.61,1.65.41A9.75,9.75,0,0,0,300.67,313.46Zm-3.66.35-2.19.64C289.2,317.67,301.79,318.63,297,313.81ZM292.07,317C288.29,320.1,295.29,317.37,292.07,317Zm1.22,1.44C290.45,320.21,296.11,319.28,293.29,318.4ZM388,321.54c-.93.06-1.1,2,1.56,1.53C389,321.89,388.42,321.52,388,321.54Zm6.12.15a1.63,1.63,0,0,0-.23.11c-2.89.36-2.72,1.91-1.59,3.44C392.92,324.06,393.52,322.88,394.12,321.69ZM361.06,325c-1.53,0-1.27,1.82-3.38.72-4.24,2.67-8.68.61-11.22.8-4.49,5.56,8.12,4.29,10,8.14,7.68,1.43.23-6,5.33-9.55A2.63,2.63,0,0,0,361.06,325Zm-11.89,17.91a2.32,2.32,0,0,0-.38.06,1.35,1.35,0,0,0-.8,1.64c.38,1.52,3.56,3,4.87,3.38a5.07,5.07,0,0,1,2.4,1.47c.51.5.5.82,1.15,1,.86.21.8-1.12.89-1.59A2.84,2.84,0,0,0,357,347a5.67,5.67,0,0,0-.72-1.21,6.92,6.92,0,0,1-.89-1.13c-.24-.46-.54.05-.72-.32l0,.23c-.3.59-1.13-.7-1.71-1a5.51,5.51,0,0,0-2.48-.61C350.1,343,349.6,342.87,349.17,342.89Zm-82.14,1a7,7,0,0,0-1.76.32c-1.18.43-2.68,1-3.29,2.16a1.94,1.94,0,0,0-.08,1.39c-.29-.07-1.63.43-2.31.43s-.84,0-1.24.35-.17,1.37-.17,1.84a1.08,1.08,0,0,0,.69,1.13c.77.37,1.86-.37,2.42-.78.4-.3.82-1.09,1.24-1.5s1.34-.09,1.85-.09a2.52,2.52,0,0,0,2.13-1.3,6,6,0,0,0,1.24-3.55C267.75,344,267.44,343.93,267,343.93Zm-20,2.05-.35,4.53.43.17a3,3,0,0,0,1.33-.09c.16.07,1.57-1.3,1.79-1.41a2.85,2.85,0,0,0,.9-.69,1.72,1.72,0,0,0,.51-1c.16-.61-.6-.9-1.06-1.13a3.81,3.81,0,0,0-1.76-.25C248.31,346.07,247.65,346,247.07,346Zm8.34,2.16c-.24-.05-.4.23-.61.35a5.35,5.35,0,0,1-1.79.17,1.86,1.86,0,0,0-1.15.17c-.4.2-.25,1.38-.18,1.68a1.35,1.35,0,0,0,1.16,1,4.18,4.18,0,0,0,2-.35c.41-.1.65.19,1.06.09.57-.14.61-1,.61-1.42a4.36,4.36,0,0,0-.17-1.21C256.3,348.31,255.74,348.22,255.41,348.14Z"/><path id="path4296" class="cls-9" d="M148,139.58s59-12.78,80.24-25.41l8.48,2-48.8,171.37s-19,39,37.71,38.63l-1,5.76H97.11l1.11-7.71s42,.71,50.65-32.49,30.85-111.44,30.85-111.44c4.21-13,12.56-35.58-6.5-35.88-15.64-.25-26.07-.58-26.07-.58Zm237.7,56.33c-4.25-.2-1.47,15.12-7.38,6.16-4.44-7.26-7,9.21-5.18,12a8.18,8.18,0,0,1,.48-.72,4.18,4.18,0,0,0,5.56,2.73c2.65-.11,1.51,2.56,2.38,4.15.15.07.4.21.56.3l-.06.33c-2.43-1-5.55-.77-9.28.72-5.95,1.66-8.23.06-11.56-1.74-3.4,3.05-11.27,3.93-13.82,7.07A10.49,10.49,0,0,1,344,224c-4-.47-5,4.2-8.54,3.15,3.71-4.4-4.57-1.34-3.27-3.76.09-1-1-1.7-2.21-2,.23-.55,1-2,.56-3.09,0-2.92,2.18,2.12,2.63,1.33,7.62-.93-4.78-4.48-1.15-3.48-1.3-3.52,6.23-3.52,2-5.17a5.44,5.44,0,0,0-2.63-3.14c1.54-.33,2.79-1,2.74-2.71-.15-.53-1-.9-.14-1.46-1.05.77-5.5,2.7-7.36,4.91a17.26,17.26,0,0,1,3.5-.55,2.54,2.54,0,0,0-.75,1.19c1.36,2.8-5.39-1.84-4.26,4,1.21,1.44-.63,6.68,3.42,8.12-1.38.16-2.26,1-.65,2.9-1.69.21-.42,1.72,1,3.2-2.08-.54-3.18,6.09-4.61,1.13,0-1-5.75.94-2.63,2.54a8.82,8.82,0,0,0-1.18,1.47c.09-.35.16-.71.28-1.08a3,3,0,0,0-3.1-1.55,5.68,5.68,0,0,0-4.2,2.16c-.06.07-.14.14-.2.22-2.24-.12-4.58,4.8-5.42,7.12-2.83,1.66-.14.26-2.83,3a4,4,0,0,0,.51.36,9.36,9.36,0,0,0-3.61,1.13c-3.61-.46-6.42,2.77-5.29,5-6.58.6-6.25,6.9-12.42,3.39,1.26-.63-6-4.74-2.24,1,.49,5.62-2.58,2.63-5.73,3.48-1-4.26-4-1.14-5.8-2.27-5.76.42.13,2.22-2.15,2.54-2,2.14.66,2.12,3.86,4.23,2.66.44,3.52,1.87,4.62,3.81.79,2.13.57,5.55,3.69,6.76a30.15,30.15,0,0,0,1.06,5.58c-1.45-1.1-4.24,3.75-1.73,4.22-1.32,2-3.67,5.68-4.2,8.37a5.52,5.52,0,0,0-3.33-.55c-3.78-2.63-9.71-1.58-14.38-4.31-3.84-1-8.61-1.94-11.41-3.15a6.21,6.21,0,0,0-1.4-.08c-3.54.18-8.75,2.64-4.42,5.33a2,2,0,0,0-.34,2.43,8.19,8.19,0,0,0-1.51,3c-.28,3.35.28,6.3-2,8.37-.33,3.62-6,5.4-5.54,9.91,4.67,3.89,2.44-.67,1.88,5.36-1.15,3.57-3.2,6,3.72,6.73l1.82-.71.75-.06.31-.17c.36.52,1.23,1,2.88,1.3,3.18,2,2.07,3.41,1.74,4.23,2.19,8.11,8.55-1.28,14.12,1.35,6.6,3.35,9.76-1,15.25-2.68,1.72-.66,2.06-5.25,5.79-5.93,2.36-1.48-4.1-7.67,2.94-9.75,2.88-5.54,9-4.64,15.16-8.28,2.28-3.09,1.23-3.64-.73-3.9,1.15-1.55,1.16-4.46,4.59-6,4.78-1.31,4.83,1.93,7.13-.39-1,1.92,3.28,3.18,5.26,3.12,2.21-1.62,4.77-2.78,6.61-5.08.51,2.91,4.65-4.17,7.69-2.18,5.36-.26,5.41,6.81,7.72,9.14,2.49,3.32,6.23,4.89,9.82,8.78,3.62,1,7.45,2.12,9,4.67,2.4-.5,4.1,3.73,7.5,4.52,4.94,5.26-.83,7.73.84,12,2.25-3,9.63-8.16,4.28-11.1-5.08-3.26,5.33-8.85,7.05-2.12,6.35-5.44-14.26-6.69-11.39-10.94-3.57-1-13-2.2-12.81-10.05-5.94-1.81-7.16-7-6.91-10.32-1.38-1.73,2.05-3.59,4.5-3.89a11,11,0,0,0,2,.55c.27.58.55,1,.89,1.13-4.32,1.66,2,5.74,2.83.64,2.07,3.15,5.82,6,3.75,7.34,3.4,3.21,9,4.62,12,5.49a10.13,10.13,0,0,0,1.4,1l.5.53c-3-1-6.46-1.08-1.26.25a3.08,3.08,0,0,1,2.21.66l.17.11a3.89,3.89,0,0,0,.81.53l.2.08a3.64,3.64,0,0,0,.86.38,1.74,1.74,0,0,0-.33-.52.57.57,0,0,0,.11-.11l.14.3c1.13.39,5.42,5.27,4.73,1.85a1.75,1.75,0,0,1,.19-1c0,.44,0,.9,0,1.38,1.93,1.67.21,5.43,1.29,6.63-1.32,3.19.2,4.74,3.55,7a.84.84,0,0,0,1,.36c-.58,1.09-.32,2,2.46,3.31,2,2.81,3.54,5.88,7.19,3.92,3.85-1.26,3.21.14,6.85,0,.83,3.69-4.47-.87-7.32,1.27-4.48.55-1.69,3.93.81,5.71-.71,6.77,3.35-2.29,4.56,4.72.79-4.77,6.07,2.1,2.4-4.64-5.29-4.83,5.48-.3.34-4.52-2.51-4,6.77,1.91,4.25-1.55-.32-3.45-5.15-3.42-8.06-4.45,3.09.7-1.26-4.87,3.19-2.76-4.25-2.12-7.49-11.26-1.59-6.71,3.9,5.49-1.71-3.38,3.69,1.44-4-4.27,5.85.21-.14-3.17-4.19-.91,2.28-3.31,4.5-4.15,6.22.32,5.19.89,7.5-4.14-.84-1.14-1.41-1.87-1.84-2.34,1.15-2.78,4.36-1.85,6.65-2.93-2-2.07-1.6-3-1.39-7.51,3-2,2.44-3.3.78-4.09a4.79,4.79,0,0,1,1.51,0c-.39-2.11-.84-4.21.39-6-2.71-3.17,2.34,1.29,2.52-3.89-1-1.64-3.28-.35-5.18.11.29-3.51-.37-8.27.87-7.15,2.43-1.25,5.19-.77,1.4-3.78-1.9-1.61,26.11,3.23,10.29-3.31.89-8.51-.66-11.12-.47-15.12,5.18-.51.68-12.35-1-14.3,4.47-1.13,3.07-4.2.28-11.86-3.21-2.91-2.63-10.74-2.87-15.51-3.21-6.84-10.17-25.77-14.6-25.12-.52.48-17.25.53-17.92.95-.3-3.27.46,24.57-.49,22.06C391.6,198.85,387.58,195.85,385.67,195.91ZM297,313.82c4.78,4.82-7.8,3.85-2.18.63l2.18-.63Zm5.33.05C304.79,317.53,296.2,312,302.33,313.87Zm-9,4.53C290.46,320.21,296.12,319.28,293.29,318.4ZM292.08,317C288.29,320.1,295.29,317.36,292.08,317Zm69.75,8.14c-5.11,3.58,2.35,11-5.33,9.55-1.91-3.85-14.53-2.58-10.05-8.14,2.55-.19,7,1.86,11.24-.82,2.41,1.26,1.72-1.26,4.14-.59Zm-33.51-17.77c3.82,2.05,1.84,5.53,2.08,10.06-.25,4.81-3.46,1.26-5.39,4.93-2.46-1.46,0-5.07-1.16-7.47.07-4-3.25-5.2,2.65-6l1.64-1.31.18-.19m61.23,15.75C385.68,323.81,387.84,319.3,389.55,323.07Zm17.36-4.1c-4.94-.47-10.54-5.27-2.39-2.33,2.39-.72,6.82,6.08,2.74,2.8C407.22,318.79,406.21,319.79,406.91,319Zm-62.65-94.49c-.5-3.07,3.71-1.61,1,.64C344.79,225.1,344.59,224.71,344.26,224.48ZM371,114.27c-1.24.87-1.15,5.13-3.26,2.6,0,3.82-2.56,3.76-1.77,0-1.34-1.27-3.1,3-3.92,3.48,1.48,4.32-5-1-3,3.68-2.46-.34-2.16,6.13-3.65,2.07-.07,2.92-2.23-1.25-1.16,1.89-1.35,1-6.29-.72-4.67,2.38,3.37-1.94.14,5.76-2.25,2.09-3.29.47-1.54,4.64,1.14,2.08,4.73.8-5.22,2.74-1.16,3.16-3,0-.51,4.63-2.9,4,.27,2.94-4.48,4.44-4.32,8.28-.72,3.71-.44,7.12-4.07,9.11,1.37,2.31-3.68.54-3.65,3.9-1.48,3.23,1.45,3.16,3,1.41-.07,4.19-6.45,2.47-8.61,5.09-1.81,1.33-4.7-.45-2.65,2.32-1.12,1.36-2.76-1-2.38,1.7-1.69,1.45-6.44,2.5-1.38,3.35-2.56-.27-4.2,1-2.78,2.55-.79,4.48,10.4-.84,5.08,2.55-2.19-.44-8.56-.78-5.58,2.52-.19,2.11.3,3,1.58,4-.38,1.57-3,4.32.42,3.78-5.65,5,2.93,11.3,7.7,7.39,2.24-3.16,7-4.27,7-8.66,3.33,5.37,4.42,11.71,7.29,17.25,1.31,1.74.32,7.21.72,6.73,1.79-1,2.51,6.54,5.19,2,2.07-4.68,8.9-4.25,8.72-10.11.73-4.46-2.4-10.83,3.24-13,5.62-3.92-5.65-.73-3.93-3,3.64,1.3,10.5-3.26,4.34-5.45-5.58-2.83-5.21-10.94-2.6-15.74,2.43-3.79,7.08-6.31,7.72-11.1-3.15-4.92,3.11-12.48,8.45-9.56,4.46,3.93-1.33,9-3.11,12.82-2.48,3.84-4.93,8.19-1.72,12.18-.26,5.53,3,11.17,9.25,10.34,4.92-.68,8.12-5.15,12.65-7,2.64-4.71,25.07,2.26,24-3.55-1.58-3.56-10.89-18.69-12.52-22.35-2.27-3.74-5.25-10.24-7.68-13.88-1.41-4.86-9.84-8.41-11.8-12.62-1.21-2.18-2.15-4.86-3.57-4.2-3.54.2-2.79-2.56-.71-3.16.12-4.49-6.11-1.33-6-1.18C371.63,115.8,372,114.55,371,114.27ZM346,192.9c.59,6.86-9.4,6.33-3.56,2.07C342.49,192.85,343.81,191.93,346,192.9Zm3.2,2.89c.05,5.62-4.76,7.36-.29.22l.29-.22ZM340.61,217Zm16.9-12.56c.77,3.32-3.19,10.89-.49,2.24C357.59,206,357,205.1,357.51,204.41Zm6.86-1.3c-2.33,7.42-4.84-2.16-.25-3.13C365.23,200.9,362.11,202.39,364.37,203.11Zm1.72-52.28.24.15-.24-.15Zm-3.5,12.81,0-.14,0,.14ZM339.9,215.38C339.53,215.14,339.7,213.3,339.9,215.38Zm-3.56-57.47C335.67,158,336.21,157.93,336.34,157.91Zm-72,53.6a2,2,0,0,0-1.73.61c-2,1.18-1.15,1.57-.31,2.9-2.43,3.19-4.51-1.72-7.69.52,1,1.19,2.31,2.61-1.21,3.29-.06,2.68,6.17,2.78,2,4.63-7.54,2.73,7,1.75-1.23,2.07-1.57,1.69-6.46,1-1.85,2.38-7.47,1.25,3.91,1.8-2.32,2.73,5.41-.82-1.18,1.94,2.44,1.33,1.53,2.16,5.15-1.57,5.9-.17,2.18-3.05,6.42.63,7.78-2.15,3.55-3.3,1.95-7.47,3-10.13,2.28-.2,5.31-2.75,2-3.15,2.63-2.08-1.38-6-4.31-4l-.28.22C266.47,211.91,265.38,211.51,264.34,211.51Zm16.4-19.6c-.4,1.7-1.37,1.05-.48,2.56-2,.24-2.68,2-3.67,2.9,2.7,4.17-3.18,4.43-2.15,6,1.33.09-1.37.35-2,1.76,3.32,1.08,6.07-4.15,4.12.25-3.66,2.2-.48,2.69-3.33,6,.82,2.1,3.64-8.55,4.59-2.68-.44-.57-.44,4.67-3.11,6.52,3.57,1.24,2.28,1.27,6.18.77,3.61-1.09-2.76,3.83.23,5.41,2.52-1.31-.49,4.37-.37,4.5-.72.74-2.67-.17-4.56.31,1.09-.38-.33-1.46-.7-1.6-1.09-.09-.35,1.57.2,1.68a3.31,3.31,0,0,0-2.1,2c6.38,0-1.69,5.18-3.83,6,1.94,1.59,4.8,1,7.5,4,6.11-4,2.24,2.83-1.91.63-3.09,0-8.12,5.19-8.61,5.58,1.83-1,7.95,1.87,9-1.88,4,.93,6.81,2.17,8.81,0,2,1.66,2.25.36,6.43,2,4.41-.32,7.56-3.79,3.11-4.17-2.63.45,1.26-.87.56-2,3.79,1.48,6.44-10.07-.76-6.6-2.14-1.08-.08-5.66-.87-8.45-5.11-3.33-2.44-10.51-8-13.83-6.33.35,3-.35.23-2.48-3.89,2.17,12.21-8.54.7-7.82-7,.62-2.3-1.47.25-3.84C289.8,190.76,279.8,194.74,280.74,191.91Zm15-9.1c1.27-.59-2.3,6.19-.56,1.45C292.59,185,294.88,183.11,295.76,182.81ZM289,191.48c-3.42-.25-1.63-2.49,0,0Zm-12.59,1c-1.81,2.63-4.54,4.42-3.93,1.7C272.75,193.5,275.51,191.44,276.42,192.49Zm.66,26C274,219.42,276.19,222.27,277.08,218.53Zm96.58-5.79C373.51,217,374.35,214,373.66,212.74Zm8.88-15.31c3.36-4.68,6.19,1.28,9.78-.45,3.32-.6,1-3.9,0-6.47-.18-4.7,2.29-6.85-4.75-5-3.44-.47-4.28,1.3-8.07,2.66-2.38.86-1.31,7,2.1,6.69C383.17,192.21,382.58,196.83,382.54,197.43ZM377,193.72c3.4-.35-4,6-2.27,3.65C372.08,195.17,374.06,194.76,377,193.72Zm-1.83-2.79c5.2,2-4.05,2.76-.21.57l.21-.57ZM329.34,296.3c.66,3,.52,8.68-1.73,10.08-2.5-1.6-2.25-3.39-2.05-5.51C324.12,297.93,329.45,299.22,329.34,296.3Zm.61-26.57C330.83,271.5,329.16,270.9,330,269.73Zm-50.46-96.9-.14,1.08.14-1.08Zm.76-4.72C281.61,169.5,279.55,170.11,280.25,168.11Zm59.29,45.54c4.62.1.27,4.9.91,6.69-1.85-.53-7.09-4.29-2.31-5.73C337.87,212,341.79,219.11,339.54,213.65Zm1,7.7c-4.43,3-4.17-1.79-1.74-.67A1.23,1.23,0,0,1,340.56,221.35Zm-1.78.15C337.6,221.33,340,222.38,338.78,221.5ZM247.07,346l-.36,4.51.45.18a3.19,3.19,0,0,0,1.33-.09c.16.06,1.55-1.28,1.78-1.39a2.81,2.81,0,0,0,.88-.69,1.7,1.7,0,0,0,.54-1.05c.15-.6-.61-.9-1.07-1.13a3.88,3.88,0,0,0-1.78-.26C248.29,346.06,247.65,346,247.07,346Zm7.73,2.52a5.32,5.32,0,0,1-1.78.17,1.9,1.9,0,0,0-1.16.17c-.4.2-.25,1.36-.17,1.65a1.35,1.35,0,0,0,1.15,1.05,4.12,4.12,0,0,0,2-.35c.42-.1.65.19,1.07.09s.62-1,.62-1.39a4,4,0,0,0-.18-1.22c-.09-.36-.64-.44-1-.52S255,348.38,254.8,348.5Zm7.1-.7c-.29-.07-1.63.44-2.31.44s-.84-.05-1.24.34-.18,1.35-.18,1.83a1.1,1.1,0,0,0,.71,1.13c.77.37,1.84-.37,2.4-.79.4-.29.82-1.06,1.24-1.47s1.36-.09,1.87-.09a2.55,2.55,0,0,0,2.13-1.3,6.06,6.06,0,0,0,1.25-3.56c0-.79-2.27-.17-2.49-.09-1.18.43-2.68,1-3.29,2.17A1.89,1.89,0,0,0,261.9,347.8Zm92.83-3.21c-.3.58-1.12-.71-1.69-1a5.67,5.67,0,0,0-2.48-.6,8.8,8.8,0,0,0-1.78,0,1.36,1.36,0,0,0-.8,1.65c.39,1.51,3.57,3,4.89,3.38a5,5,0,0,1,2.39,1.48c.51.5.51.8,1.16,1,.86.21.79-1.1.89-1.57A2.94,2.94,0,0,0,357,347a5.67,5.67,0,0,0-.71-1.22,7,7,0,0,1-.89-1.13c-.27-.52-.64.24-.8-.52"/><path id="path5772" class="cls-3" d="M339.19,416.57l-5.08-3.64L329,416.57l1.89-5.95-5-3.7,6.24,0,2-5.93,2,5.93,6.24,0-5,3.71ZM356,405.64,350.94,402l-5.08,3.64,1.89-5.95-5-3.7,6.25,0,2-5.93,2,5.93,6.24,0-5,3.71Zm16.83-12.32-5.08-3.63-5.07,3.64,1.89-5.95-5-3.7,6.24,0,2-5.93,2,5.92,6.24,0-5,3.71Zm16.82-13.75-5.07-3.64-5.08,3.64,1.89-5.95-5-3.7,6.25,0,2-5.93,2,5.93,6.24,0-5,3.7ZM406.49,361l-5.08-3.64L396.34,361l1.89-6-5-3.7,6.24,0,2-5.92,2,5.92,6.25,0-5,3.7Zm16.82-18.22-5.08-3.63-5.07,3.64,1.89-5.95-5-3.7,6.24,0,2-5.93,2,5.92,6.24,0-5,3.7ZM339.19,98.72l-5.08-3.64L329,98.72l1.89-6-5-3.7,6.24,0,2-5.93,2,5.93,6.24,0-5,3.71ZM356,109.4l-5.07-3.64-5.08,3.64,1.89-6-5-3.7,6.25,0,2-5.93,2,5.93,6.24,0-5,3.71Zm16.83,12.06-5.08-3.64-5.07,3.64,1.89-5.95-5-3.7,6.24,0,2-5.93,2,5.93,6.24,0-5,3.71Zm16.82,12.12-5.07-3.64-5.08,3.64,1.89-6-5-3.7,6.25,0,2-5.93,2,5.93,6.24,0-5,3.71Zm16.83,18.9-5.08-3.63-5.07,3.64,1.89-6-5-3.7,6.24,0,2-5.93,2,5.92,6.25,0-5,3.71Zm16.82,21.61-5.08-3.63-5.07,3.64,1.89-5.95-5-3.7,6.24,0,2-5.92,2,5.92,6.24,0-5,3.7Z"/><path id="path2375" class="cls-10" d="M339,416.27l-5.08-3.64-5.07,3.64,1.88-5.95-5-3.7,6.24,0,2-5.93,2,5.93,6.25,0-5,3.71Zm16.82-10.93-5.08-3.64-5.07,3.64,1.89-5.95-5-3.7,6.24,0,2-5.93,2,5.93,6.24,0-5,3.71ZM372.61,393l-5.07-3.64L362.47,393l1.88-5.95-5-3.7,6.25,0,2-5.93,2,5.93,6.25,0-5,3.71Zm16.83-13.76-5.08-3.63-5.07,3.64,1.89-6-5-3.69,6.24-.05,2-5.92,2,5.92,6.24,0-5,3.7Zm16.82-18.53-5.07-3.63-5.08,3.64L398,354.8l-5-3.7,6.25-.05,2-5.92,2,5.92,6.24,0-5,3.7Zm16.83-18.21L418,338.89l-5.07,3.64,1.89-5.95-5-3.7,6.24,0,2-5.93,2,5.93,6.24,0-5,3.71ZM339,98.42l-5.08-3.64-5.07,3.64,1.88-6-5-3.7,6.24,0,2-5.93,2,5.93,6.25,0-5,3.7Zm16.82,10.68-5.08-3.64-5.07,3.64,1.89-5.95-5-3.7,6.24,0,2-5.93,2,5.93,6.24,0-5,3.71Zm16.82,12.06-5.07-3.64-5.07,3.64,1.88-6-5-3.7,6.25,0,2-5.93,2,5.93,6.25,0-5,3.71Zm16.83,12.12-5.08-3.63-5.07,3.63,1.89-6-5-3.7,6.24,0,2-5.92,2,5.92,6.24,0-5,3.7Zm16.82,18.91-5.07-3.64-5.08,3.64,1.89-5.95-5-3.7,6.25,0,2-5.93,2,5.93,6.24,0-5,3.71Zm16.83,21.6L418,170.16l-5.07,3.64,1.89-6-5-3.7,6.24,0,2-5.93,2,5.92,6.24,0-5,3.71Z"/><path id="path4303" class="cls-11" d="M331.22,111.05v46.71a1.78,1.78,0,0,0,.9,1.53,1.76,1.76,0,0,0,1.76,0,1.84,1.84,0,0,0,1.79-.06,1.72,1.72,0,0,0,.83-1.53V114.28C334.77,113.17,333,112.1,331.22,111.05Zm16.85,11.37v5.8a1.77,1.77,0,0,0,.87,1.5,1.75,1.75,0,0,0,1.73.08h0a1.84,1.84,0,0,0,1.79-.05,1.75,1.75,0,0,0,.83-1.53v-1.59C351.61,125.19,349.85,123.79,348.07,122.42ZM384.19,335.3a1.83,1.83,0,0,0-.92.35l-.89.66a1.8,1.8,0,0,0-.73,1.45l0,4.76q2.24-3.16,4.3-6.44l-.6-.43A1.86,1.86,0,0,0,384.19,335.3Zm-50.46.58a1.83,1.83,0,0,0-.92.35l-.86.63a1.8,1.8,0,0,0-.73,1.44v50.64c1.78-1.05,3.55-2.1,5.28-3.21V338.28a1.78,1.78,0,0,0-.75-1.45l-.83-.6A1.8,1.8,0,0,0,333.73,335.88Zm33.67,0a1.83,1.83,0,0,0-.92.35l-.84.6a1.84,1.84,0,0,0-.75,1.45v24.37c1.8-1.83,3.57-3.7,5.28-5.62V338.3a1.79,1.79,0,0,0-.72-1.44l-.87-.63A1.79,1.79,0,0,0,367.4,335.88Zm-16.85,16.21a1.92,1.92,0,0,0-.89.35l-.84.61a1.82,1.82,0,0,0-.75,1.44V377.6c1.78-1.37,3.53-2.8,5.25-4.24V354.49a1.76,1.76,0,0,0-.75-1.44l-.83-.61A1.86,1.86,0,0,0,350.55,352.09Z"/><g id="text5758" class="cls-12"><text class="cls-13" transform="matrix(0.9, 0, -0.16, 0.99, 277.3, 290.76)">EURO</text></g><g id="text4285" class="cls-12"><text class="cls-14" transform="matrix(0.9, 0, -0.16, 0.99, 276.7, 289.87)">EURO</text></g></g></svg>