<svg id="svg21256" xmlns="http://www.w3.org/2000/svg" xmlns:xlink="http://www.w3.org/1999/xlink" viewBox="0 0 497.75 417.71"><defs><style>.cls-1{fill:#500;}.cls-2{fill:#f55;}.cls-3,.cls-7{fill:#cd4a4a;}.cls-14,.cls-23,.cls-3{stroke:#ff8080;}.cls-3{stroke-width:1.84px;}.cls-4{opacity:0.46;fill:url(#linear-gradient);}.cls-11,.cls-12,.cls-15,.cls-16,.cls-18,.cls-19,.cls-20,.cls-21,.cls-24,.cls-25,.cls-4,.cls-8,.cls-9{isolation:isolate;}.cls-5{fill:url(#linear-gradient-2);}.cls-6{fill:#de6464;}.cls-11,.cls-15,.cls-20,.cls-8{opacity:0.28;}.cls-8{fill:url(#radial-gradient);}.cls-12,.cls-16,.cls-21,.cls-9{opacity:0.44;}.cls-9{fill:url(#linear-gradient-3);}.cls-10{fill:url(#linear-gradient-4);}.cls-11{fill:url(#radial-gradient-2);}.cls-12{fill:url(#linear-gradient-5);}.cls-13{fill:url(#linear-gradient-6);}.cls-14,.cls-23{fill:none;}.cls-14{stroke-width:1.28px;}.cls-15{fill:url(#radial-gradient-3);}.cls-16{fill:url(#linear-gradient-7);}.cls-17{fill:url(#linear-gradient-8);}.cls-18{opacity:0.53;fill:url(#linear-gradient-9);}.cls-19{opacity:0.42;fill:url(#linear-gradient-10);}.cls-20{fill:url(#radial-gradient-4);}.cls-21{fill:url(#linear-gradient-11);}.cls-22{fill:url(#linear-gradient-12);}.cls-23{stroke-width:1.23px;}.cls-24{opacity:0.86;fill:url(#linear-gradient-13);}.cls-25{opacity:0.73;fill:url(#linear-gradient-14);}</style><linearGradient id="linear-gradient" x1="-5868.72" y1="523.16" x2="-5878.42" y2="498.35" gradientTransform="matrix(6.13, 0, 0, -6.13, 36241.58, 3281.92)" gradientUnits="userSpaceOnUse"><stop offset="0" stop-color="#500"/><stop offset="1" stop-color="#cd4a4a"/></linearGradient><linearGradient id="linear-gradient-2" x1="-5861.1" y1="512.34" x2="-5875.4" y2="504.34" xlink:href="#linear-gradient"/><radialGradient id="radial-gradient" cx="-5875.08" cy="577.31" r="19.31" gradientTransform="matrix(1.72, -10.6, 3.25, 0.5, 8328.8, -62469.92)" gradientUnits="userSpaceOnUse"><stop offset="0" stop-color="#fff"/><stop offset="1" stop-color="#fff" stop-opacity="0"/></radialGradient><linearGradient id="linear-gradient-3" x1="-5926.82" y1="518.9" x2="-5905.82" y2="516.07" gradientTransform="matrix(-5.87, -0.74, 0.76, -5.75, -34916.5, -1300.08)" gradientUnits="userSpaceOnUse"><stop offset="0" stop-color="maroon"/><stop offset="1" stop-color="maroon" stop-opacity="0"/></linearGradient><linearGradient id="linear-gradient-4" x1="-5897.65" y1="484.26" x2="-5907.85" y2="502.38" gradientTransform="matrix(-5.77, -0.74, 1.51, -5.75, -34719.11, -1415.98)" gradientUnits="userSpaceOnUse"><stop offset="0" stop-color="#500"/><stop offset="1" stop-color="#500" stop-opacity="0"/></linearGradient><radialGradient id="radial-gradient-2" cx="-5876.47" cy="570.41" r="19.31" gradientTransform="matrix(0.33, -11.76, 3.55, 0.1, 13.38, -69007.29)" xlink:href="#radial-gradient"/><linearGradient id="linear-gradient-5" x1="-5922.74" y1="517.71" x2="-5901.74" y2="514.89" gradientTransform="translate(-37642.38 3391.03) rotate(180) scale(6.4 6.35)" xlink:href="#linear-gradient-3"/><linearGradient id="linear-gradient-6" x1="-5891.81" y1="481.54" x2="-5902.01" y2="499.66" gradientTransform="translate(-37642.38 3263.97) rotate(180) scale(6.4 6.35)" xlink:href="#linear-gradient-4"/><radialGradient id="radial-gradient-3" cx="-5880.31" cy="472.47" r="19.31" gradientTransform="matrix(-1.65, -10.24, -3.11, 0.48, -7827.63, -60313.59)" xlink:href="#radial-gradient"/><linearGradient id="linear-gradient-7" x1="-5868.32" y1="510.84" x2="-5847.32" y2="508.01" gradientTransform="matrix(5.62, -0.71, -0.73, -5.55, 33628.39, -1254.46)" xlink:href="#linear-gradient-3"/><linearGradient id="linear-gradient-8" x1="-5839.15" y1="476.25" x2="-5849.35" y2="494.37" gradientTransform="matrix(5.53, -0.71, -1.45, -5.55, 33438.95, -1366.37)" xlink:href="#linear-gradient-4"/><linearGradient id="linear-gradient-9" x1="-5864.75" y1="516.84" x2="-5857.95" y2="495.09" gradientTransform="matrix(6.13, 0, 0, -6.13, 36241.58, 3274.87)" gradientUnits="userSpaceOnUse"><stop offset="0" stop-color="#2b0000"/><stop offset="1" stop-color="#cd4a4a" stop-opacity="0"/></linearGradient><linearGradient id="linear-gradient-10" x1="-5867.56" y1="510.48" x2="-5853.56" y2="497.38" gradientTransform="matrix(6.13, 0, 0, -6.13, 36241.58, 3274.87)" gradientUnits="userSpaceOnUse"><stop offset="0" stop-color="#2b0000"/><stop offset="1" stop-color="#cd4a4a"/></linearGradient><radialGradient id="radial-gradient-4" cx="-5877.57" cy="472.19" r="19.31" gradientTransform="matrix(-0.32, -11.35, -3.41, 0.1, 143.76, -66626.14)" xlink:href="#radial-gradient"/><linearGradient id="linear-gradient-11" x1="-5868.14" y1="517.22" x2="-5847.14" y2="514.39" gradientTransform="matrix(6.13, 0, 0, -6.13, 36241.58, 3274.87)" xlink:href="#linear-gradient-3"/><linearGradient id="linear-gradient-12" x1="-5837.2" y1="481.05" x2="-5847.4" y2="499.17" gradientTransform="matrix(6.13, 0, 0, -6.13, 36241.58, 3152.2)" xlink:href="#linear-gradient-4"/><linearGradient id="linear-gradient-13" x1="-5868.42" y1="496.47" x2="-5867.62" y2="513.75" gradientTransform="matrix(6.13, 0, 0, -6.13, 36241.58, 3274.87)" xlink:href="#linear-gradient"/><linearGradient id="linear-gradient-14" x1="-5846.12" y1="526.91" x2="-5848.12" y2="509.89" gradientTransform="matrix(6.13, 0, 0, -6.13, 36118.58, 3274.87)" xlink:href="#linear-gradient-4"/></defs><title>ribbon</title><g id="layer1"><path id="path15923" class="cls-1" d="M456.89,20.54C461,27.08,467.32,35.17,467,42l-15.44,1,5.2-21.66"/><path id="path15925" class="cls-1" d="M35,18.1c-4.53,6.54-11.52,14.63-11.12,21.47l17.07,1L35.18,18.87"/><path id="path15927" class="cls-2" d="M226.44,149.45c-1.14,1.19-2.64,2.25-3.06,2.78-28,35,27.32,186.07-109.73,223.33,13.83-12,61.77-46.94,58.37-77.68-14.47,5-27.56,29.9-63.42,20.38,101-34.95,43.73-180.25,110.9-181,.48,0,5.28-3.27,8-3.16"/><path id="path15929" class="cls-3" d="M226.44,149.45c-1.14,1.19-2.64,2.25-3.06,2.78-28,35,17.75,180.32-104,220.26,13.82-12,57.16-46.55,53.77-77.3-16.4,2.71-26,29.52-63.82,23.06,101-34.95,43-180.25,110.13-181,.49,0,5.29-3.26,8-3.16"/><path id="path15931" class="cls-2" d="M209.8,159.55c-66.59,77.18-75.58,167.62-187.6,170.21,17.37-5.8,54.71-18.32,63.37-48-2.83,6.12-39.64,11.09-69.12-11.45,136.79,9.42,138.77-157.12,201.08-132"/><path id="path15933" class="cls-3" d="M225.08,148.51c-76.89,64.8-92.08,179-198,179.26,17.76-7.34,51.33-18.77,60-47.8-2.82,6.13-38,8.65-67.75-9.42,134.76,7.8,141.29-163.23,205.9-137.74"/><path id="path15935" class="cls-4" d="M226.44,149.45c-1.14,1.19-2.64,2.25-3.06,2.78-28,35,17.75,180.32-104,220.26,13.82-12,57.16-46.55,53.77-77.3-16.4,2.71-26,29.52-63.82,23.06,101-34.95,43-180.25,110.13-181,.49,0,5.29-3.26,8-3.16"/><path id="path15937" class="cls-5" d="M225.08,148.51c-76.89,64.8-92.08,179-198,179.26,17.76-7.34,51.33-18.77,60-47.8-2.82,6.13-38,8.65-67.75-9.42,134.76,7.8,141.29-163.23,205.9-137.74"/><path id="path15939" class="cls-6" d="M237,120c-86.44,11.19-214.36,76.5-220.72-16.82,16.11-27.37,19-36,15.78-64.84,9.59,70.69,136,38.17,213.39,63"/><path id="path15941" class="cls-7" d="M242.33,82.59c-195.3-189.2-350.85,4.33-5,15.6"/><path id="path15943" class="cls-7" d="M237,120c-86.8,9.64-216.29,68-220.72-16.82,16.11-27.37,18-35.09,14.83-63.95,9.59,70.7,137,37.28,214.34,62.11"/><path id="path15945" class="cls-8" d="M237,120c-86.8,9.64-216.29,68-220.72-16.82C32.42,75.77,37,68.9,33.81,40c9.6,70.7,134.3,36.43,211.67,61.26"/><path id="path15947" class="cls-9" d="M236.35,121.15c-86.79,9.64-216.29,68-220.72-16.82C31.74,77,36.62,69.27,33.44,40.41c9.59,70.69,134,37.25,211.37,62.08"/><path id="path15949" class="cls-10" d="M242.33,82.59c-195.3-189.2-350.85,4.33-5,15.6"/><path id="path15951" class="cls-6" d="M239.82,141C148.7,165,20.82,253.5.68,152.94,14.06,121,8.07,92.85.52,61.92c20.38,75.52,159.15,41.27,245.69,57.67"/><path id="path15953" class="cls-7" d="M242.12,100.53C-20.8-75-133,153.16,241.12,117.9"/><path id="path15955" class="cls-7" d="M239.82,141C148.1,163.38,17.54,244.54.68,152.94,14.06,121,7.87,93.25.36,62.32c20.38,75.52,159.35,40.87,245.89,57.27"/><path id="path15957" class="cls-11" d="M239.82,141C148.1,163.38,17.54,244.54.68,152.94,14.06,121,7.82,94.19.3,63.26c20.39,75.52,159.4,39.93,245.94,56.33"/><path id="path15959" class="cls-12" d="M239.27,142.42C147.55,164.77,17,245.93.13,154.33c13.37-32,7.63-56.31.11-87.24,20.38,75.52,158.9,37.49,245.44,53.89"/><path id="path15961" class="cls-13" d="M242.12,100.53C-20.8-75-133,153.16,241.12,117.9"/><path id="path15963" class="cls-14" d="M224.22,93.59C110.14,2.93-3.32,29.45.74,68c2.79,26.52,63.32,61,222.68,50.24"/><path id="path15965" class="cls-6" d="M264.22,119.65c82.88,10.8,205.5,73.86,211.59-16.24C460.37,77,457.64,68.67,460.69,40.81c-9.19,68.25-130.4,36.85-204.57,60.82"/><path id="path15967" class="cls-7" d="M259.14,83.57C446.36-99.1,595.48,87.75,264,98.64"/><path id="path15969" class="cls-7" d="M264.22,119.65c83.21,9.3,207.34,65.67,211.59-16.24C460.37,77,458.54,69.54,461.6,41.67c-9.2,68.26-131.29,36-205.47,60"/><path id="path15971" class="cls-15" d="M264.22,119.65c83.21,9.3,207.34,65.67,211.59-16.24C460.37,77,456,70.35,459,42.49c-9.19,68.26-128.74,35.17-202.91,59.14"/><path id="path15973" class="cls-16" d="M264.87,120.8c83.21,9.3,207.34,65.67,211.59-16.24C461,78.13,456.34,70.71,459.39,42.84c-9.19,68.26-128.44,36-202.62,59.94"/><path id="path15975" class="cls-17" d="M259.14,83.57C446.36-99.1,595.48,87.75,264,98.64"/><path id="path15977" class="cls-2" d="M272.53,142.94c1.39,1.19,3.31,2.16,3.72,2.78,28.54,42.64-7.57,330.55,119.86,261.28-16.75-7.14-48.57-6.82-44.46-37.57,17.55,5,27.24-2.75,36.8-10.73-96-56.81-42.26-221.55-106.17-229-1.12-.13-8.37-2.11-9.57-2.14"/><path id="path15979" class="cls-3" d="M272.53,142.94c1.39,1.19,3.2,2.25,3.72,2.78,33.91,35-7,321.67,119.86,261.28-18.91-5-52.22-7.68-47.91-41.5,14.68,1.37,23.5,5.69,38.62-7.28-96-56.81-40.63-221.08-104.54-228.52-1.12-.13-8.37-2.11-9.56-2.14"/><path id="path15981" class="cls-18" d="M272.53,142.94c1.39,1.19,3.2,2.25,3.72,2.78,33.91,35-7,321.67,119.86,261.28-18.91-5-52.22-7.68-47.91-41.5,14.68,1.37,23.5,5.69,38.62-7.28-96-56.81-40.63-221.08-104.54-228.52-1.12-.13-8.37-2.11-9.56-2.14"/><path id="path15983" class="cls-2" d="M297,142.72c8-11.51,15.39,9.94,18.39,19.48,8.23,36.51,32.44,247.43,182.32,219.71-11.48-6.14-62.62-2.49-77.7-39.82,22.85,12,46.92,4.85,54.27-5.2C356.1,303.57,366.63,124.21,302.9,132.41c-1.12.14-10.94-.85-12.11-.59"/><path id="path15985" class="cls-3" d="M275.15,141.5c74.71-25,29.26,256.58,221.06,240-11.48-6.14-60.54-10-79.69-43,22.85,12,49.23,7.43,56.57-2.62C340.66,292.35,377.65,106.3,276,126.12"/><path id="path15987" class="cls-19" d="M275.15,141.5c74.71-25,29.26,256.58,221.06,240-11.48-6.14-60.54-10-79.69-43,22.85,12,49.23,7.43,56.57-2.62C340.66,292.35,377.65,106.3,276,126.12"/><path id="path15989" class="cls-6" d="M261.55,140c87.35,23.16,209.93,108.59,229.24,11.5-12.81-30.85-7.07-58,.17-87.88-19.53,72.91-152.56,39.84-235.51,55.68"/><path id="path15991" class="cls-7" d="M259.34,100.9c252-169.48,359.58,50.81,1,16.77"/><path id="path15993" class="cls-7" d="M261.55,140c87.92,21.58,213.08,99.94,229.24,11.5-12.81-30.85-6.88-57.64.33-87.5-19.53,72.92-152.74,39.46-235.71,55.3"/><path id="path15995" class="cls-20" d="M261.55,140c87.92,21.58,213.08,99.94,229.24,11.5-12.81-30.85-6.83-56.73.38-86.59-19.53,72.92-152.8,38.55-235.76,54.39"/><path id="path15997" class="cls-21" d="M262.08,141.34c87.92,21.58,213.08,99.94,229.24,11.5C478.51,122,484,98.47,491.21,68.6c-19.52,72.92-152.33,36.2-235.28,52"/><path id="path15999" class="cls-22" d="M259.34,100.9c252-169.48,359.58,50.81,1,16.77"/><path id="path16001" class="cls-23" d="M276.5,94.19C385.86,6.66,494.62,32.27,490.73,69.45,488.06,95.06,430,128.36,277.27,118"/><path id="path16003" class="cls-3" d="M277.63,124.18c7.81-48.77-6.72-48.94-23.83-47.82s-24.43,2.24-27.9,37.76c-4.33,35.69,7.14,43.37,24.14,44.2,25.85,1.27,23.83-.52,27.59-34.14Z"/><path id="path16005" class="cls-24" d="M277.63,124.18c7.81-48.77-6.72-48.94-23.83-47.82s-24.43,2.24-27.9,37.76c-4.33,35.69,7.14,43.37,24.14,44.2,25.85,1.27,23.83-.52,27.59-34.14Z"/><path id="path16007" class="cls-25" d="M277.63,124.18c7.81-48.77-6.72-48.94-23.83-47.82s-24.43,2.24-27.9,37.76c-4.33,35.69,7.14,43.37,24.14,44.2,25.85,1.27,23.83-.52,27.59-34.14Z"/></g></svg>