<svg id="Layer_1" data-name="Layer 1" xmlns="http://www.w3.org/2000/svg" xmlns:xlink="http://www.w3.org/1999/xlink" viewBox="0 0 39 43"><defs><style>.cls-1{fill:url(#linear-gradient);}.cls-2{fill:url(#linear-gradient-2);}.cls-3{fill:url(#linear-gradient-3);}.cls-4{fill:url(#linear-gradient-4);}.cls-5{fill:url(#linear-gradient-5);}.cls-6{fill:url(#linear-gradient-6);}.cls-7{fill:url(#linear-gradient-7);}.cls-8{fill:url(#linear-gradient-8);}.cls-9{fill:url(#radial-gradient);}.cls-10{fill:url(#linear-gradient-9);}.cls-11{filter:url(#imagebot_21);}.cls-12,.cls-15{fill:#fff;}.cls-12{opacity:0.42;}.cls-13{filter:url(#imagebot_19);}.cls-14{filter:url(#imagebot_15);}.cls-15{opacity:0.39;}</style><linearGradient id="linear-gradient" x1="-311.55" y1="336.58" x2="-310.09" y2="337.33" gradientTransform="matrix(3.19, 4.1, 6.42, -5, -1153.21, 2975.36)" gradientUnits="userSpaceOnUse"><stop offset="0" stop-color="#ffd73b"/><stop offset="1" stop-color="#ee8400"/></linearGradient><linearGradient id="linear-gradient-2" x1="-367.93" y1="301.73" x2="-367.58" y2="301.38" gradientTransform="matrix(12.16, 0, 0, -16, 4492.8, 4859.41)" gradientUnits="userSpaceOnUse"><stop offset="0" stop-color="#a20000"/><stop offset="1" stop-color="#d40000"/></linearGradient><linearGradient id="linear-gradient-3" x1="-378.66" y1="304.07" x2="-377.92" y2="304.32" gradientTransform="matrix(18, 0, 0, -19, 6817, 5814.24)" xlink:href="#linear-gradient-2"/><linearGradient id="linear-gradient-4" x1="-371.5" y1="295.1" x2="-371.11" y2="294.6" gradientTransform="matrix(13.65, 0, 0, -11.41, 5075.51, 3372.31)" gradientUnits="userSpaceOnUse"><stop offset="0" stop-color="#fd0000"/><stop offset="1" stop-color="#ff3e3e"/></linearGradient><linearGradient id="linear-gradient-5" x1="-371.34" y1="294.66" x2="-370.97" y2="294.15" gradientTransform="matrix(13.61, 0, 0, -11.24, 5071.63, 3313.77)" xlink:href="#linear-gradient-4"/><linearGradient id="linear-gradient-6" x1="-375.93" y1="299.26" x2="-375.53" y2="298.64" gradientTransform="matrix(16.15, 0, 0, -13.83, 6094.47, 4150.7)" xlink:href="#linear-gradient-4"/><linearGradient id="linear-gradient-7" x1="-371.47" y1="302.24" x2="-371.2" y2="301.82" gradientTransform="matrix(13.69, 0, 0, -16.41, 5103.46, 4977.81)" xlink:href="#linear-gradient-4"/><linearGradient id="linear-gradient-8" x1="-367.2" y1="297.95" x2="-366.61" y2="297.3" gradientTransform="matrix(11.92, 0, 0, -13.03, 4379.67, 3898.94)" xlink:href="#linear-gradient-4"/><radialGradient id="radial-gradient" cx="-132.94" cy="197.5" r="9.15" gradientTransform="matrix(1.75, 0.31, 0.33, -1.86, 180.08, 420.83)" xlink:href="#linear-gradient"/><linearGradient id="linear-gradient-9" x1="-360.42" y1="289.68" x2="-361.22" y2="290.3" gradientTransform="matrix(10.1, 0, 0, -9.57, 3659.88, 2789.8)" xlink:href="#linear-gradient"/><filter id="imagebot_21" name="imagebot_21"><feGaussianBlur result="imagebot_55" stdDeviation="0.13"/></filter><filter id="imagebot_19" name="imagebot_19"><feGaussianBlur result="imagebot_56" stdDeviation="0.13"/></filter><filter id="imagebot_15" name="imagebot_15"><feGaussianBlur result="imagebot_52" stdDeviation="0.23"/></filter></defs><title>ribbon-05</title><g id="imagebot_22" data-name="imagebot 22"><path id="imagebot_23" data-name="imagebot 23" class="cls-1" d="M11.52,14.91l.51-.39L13,15.7l5.11-4-1.8-.7.63-.49,2.19.84,1,1.33L14.2,17.3l.92,1.19-.51.4-3.09-4"/></g><path id="imagebot_41" data-name="imagebot 41" class="cls-2" d="M16.84,27.94c1.39,4.18,1,9,.16,15.06,1.9-1.47,5.17-2.64,6-5,2.28.72,4.4,2.6,6,4-1.13-5.11-2.65-10.58-5-15Z"/><path id="imagebot_39" data-name="imagebot 39" class="cls-3" d="M14,24C9.76,28.56,6.64,33.32,0,34c2,1.1,5.87,2.53,8,2,.47,2.07-1.28,4.57-1,7,4.4-3.56,9.76-7.17,11-15C17.33,26.67,14.67,25.33,14,24Z"/><path id="imagebot_37" data-name="imagebot 37" class="cls-4" d="M10.23,16.68C10,16.05,5.53,17.83,4,14,2,9,5.17,7.41,8,6c4-2,9.4.56,9,2.05S11.45,15.74,10.23,16.68Z"/><path id="imagebot_35" data-name="imagebot 35" class="cls-5" d="M16,5c.86-3.43,7-5,10-3,4.16,2.77,4,5.05,2,8.05C24.78,15.61,14,10,16,5Z"/><path id="imagebot_33" data-name="imagebot 33" class="cls-6" d="M20.93,15C25,10,29.57,8.71,33,11c3,2,6,5,2,11C32,26.44,19.24,21.76,20.93,15Z"/><path id="imagebot_31" data-name="imagebot 31" class="cls-7" d="M23,17.05c3,5,8,10,1,14-6.59,3.77-11-2.95-10-7.95C15.18,18.89,19.7,13,23,17.05Z"/><path id="imagebot_29" data-name="imagebot 29" class="cls-8" d="M14.36,19.7c1,5-2.07,10.87-9.07,8.87C1.82,27.58,2.13,22.21,4,19,7.08,13.71,13.34,16.19,14.36,19.7Z"/><path id="imagebot_27" data-name="imagebot 27" class="cls-9" d="M26,11.05c1.53,3.55-1.13,8.12-5.95,10.2s-10,.88-11.49-2.67S9.69,10.47,14.5,8.39,24.47,7.5,26,11.05Z"/><path id="imagebot_25" data-name="imagebot 25" class="cls-10" d="M10.78,15,12,13.86,13,15l4.13-2.9-1.76-.9L16.89,10l2.65,1,1.34,1.83L15,17.44l1,1.19-1.69.95"/><g class="cls-11"><path class="cls-12" d="M8.41,16.47A16.16,16.16,0,0,1,17.18,8S9.55,8.84,8.41,16.47Z"/></g><g class="cls-13"><path class="cls-12" d="M18.11,21.47c2.78-1.79,5.63-3.27,7.48-8.21C25.59,13.26,26,19.75,18.11,21.47Z"/></g><g class="cls-14"><path class="cls-15" d="M1.42,34.23a14,14,0,0,0,7.84-4.49c-1.08,2-6.82,4.59-2,5.7C5.32,35.83,3.37,35,1.42,34.23Z"/></g></svg>