<svg id="Layer_1" data-name="Layer 1" xmlns="http://www.w3.org/2000/svg" viewBox="0 0 614.72 583.29"><defs><style>.cls-1{fill:#6e0000;}.cls-1,.cls-2,.cls-3,.cls-4,.cls-6,.cls-7,.cls-8,.cls-9{stroke:#000;stroke-linecap:round;stroke-linejoin:round;}.cls-2{fill:#c80000;}.cls-3{fill:#ff3c3c;}.cls-4{fill:#650000;}.cls-5{fill:#500;}.cls-6{fill:#fff6d5;}.cls-7{fill:#aca793;}.cls-8{fill:#f2f2f2;}.cls-9{fill:none;}</style></defs><title>brickhouse in construction</title><path class="cls-1" d="M379.23,488.93v17.72l30.69,17.71V506.65Z" transform="translate(-10.5 -10.07)"/><path class="cls-2" d="M409.92,524.37l61.37-35.43V471.22l-61.37,35.43Z" transform="translate(-10.5 -10.07)"/><path class="cls-3" d="M379.23,488.93l30.69,17.72,61.37-35.44L440.6,453.5Z" transform="translate(-10.5 -10.07)"/><path class="cls-2" d="M363.89,550.93v17.72L333.2,586.36V568.65Z" transform="translate(-10.5 -10.07)"/><path class="cls-1" d="M333.2,586.37l-61.37-35.43V533.22l61.37,35.43Z" transform="translate(-10.5 -10.07)"/><path class="cls-3" d="M363.89,550.93,333.2,568.65l-61.37-35.44,30.69-17.71Z" transform="translate(-10.5 -10.07)"/><path class="cls-3" d="M195.11,99.17l61.38-35.43,30.68,17.71L225.8,116.89Z" transform="translate(-10.5 -10.07)"/><path class="cls-2" d="M133.74,258.61v17.72l30.69-17.72V240.89Z" transform="translate(-10.5 -10.07)"/><path class="cls-3" d="M348.54,382.61l30.69,17.72,30.68-17.72-30.68-17.72Z" transform="translate(-10.5 -10.07)"/><path class="cls-4" d="M379.23,364.91V347.19l30.69,17.72v17.72Z" transform="translate(-10.5 -10.07)"/><path class="cls-4" d="M348.54,400.31V382.59l30.69,17.72V418Z" transform="translate(-10.5 -10.07)"/><path class="cls-4" d="M317.86,63.73V46l61.37,35.44V99.16Z" transform="translate(-10.5 -10.07)"/><path class="cls-4" d="M379.23,99.17V81.45l61.37,35.44V134.6Z" transform="translate(-10.5 -10.07)"/><path class="cls-4" d="M440.6,134.6V116.88L502,152.32V170Z" transform="translate(-10.5 -10.07)"/><path class="cls-4" d="M502,170V152.31l61.37,35.44v17.71Z" transform="translate(-10.5 -10.07)"/><path class="cls-4" d="M348.54,99.17V81.45l61.37,35.44V134.6Z" transform="translate(-10.5 -10.07)"/><path class="cls-4" d="M409.91,134.6V116.88l61.37,35.44V170Z" transform="translate(-10.5 -10.07)"/><path class="cls-4" d="M471.29,170V152.31l61.37,35.44v17.71Z" transform="translate(-10.5 -10.07)"/><path class="cls-4" d="M317.86,99.17V81.45l61.37,35.44V134.6Z" transform="translate(-10.5 -10.07)"/><path class="cls-4" d="M379.23,134.6V116.88l61.37,35.44V170Z" transform="translate(-10.5 -10.07)"/><path class="cls-4" d="M440.6,170V152.31L502,187.75v17.71Z" transform="translate(-10.5 -10.07)"/><path class="cls-4" d="M348.54,134.6V116.88l61.37,35.44V170Z" transform="translate(-10.5 -10.07)"/><path class="cls-4" d="M409.91,170V152.31l61.37,35.44v17.71Z" transform="translate(-10.5 -10.07)"/><path class="cls-4" d="M471.29,205.47V187.75l61.37,35.44V240.9Z" transform="translate(-10.5 -10.07)"/><path class="cls-4" d="M317.86,134.6V116.88l61.37,35.44V170Z" transform="translate(-10.5 -10.07)"/><path class="cls-4" d="M379.23,170V152.31l61.37,35.44v17.71Z" transform="translate(-10.5 -10.07)"/><path class="cls-4" d="M440.6,205.47V187.75L502,223.19V240.9Z" transform="translate(-10.5 -10.07)"/><path class="cls-4" d="M348.54,170V152.31l61.37,35.44v17.71Z" transform="translate(-10.5 -10.07)"/><path class="cls-4" d="M409.91,205.47V187.75l61.37,35.44V240.9Z" transform="translate(-10.5 -10.07)"/><path class="cls-4" d="M317.86,170V152.31l61.37,35.44v17.71Z" transform="translate(-10.5 -10.07)"/><path class="cls-4" d="M379.23,205.47V187.75l61.37,35.44V240.9Z" transform="translate(-10.5 -10.07)"/><path class="cls-4" d="M348.54,205.47V187.75l61.37,35.44V240.9Z" transform="translate(-10.5 -10.07)"/><path class="cls-4" d="M409.91,240.9V223.18l61.37,35.44v17.71Z" transform="translate(-10.5 -10.07)"/><path class="cls-4" d="M317.86,81.45V63.73l30.69,17.72V99.17Z" transform="translate(-10.5 -10.07)"/><path class="cls-4" d="M317.86,116.88V99.16l30.69,17.72V134.6Z" transform="translate(-10.5 -10.07)"/><path class="cls-4" d="M317.86,152.32V134.6l30.69,17.72V170Z" transform="translate(-10.5 -10.07)"/><path class="cls-4" d="M317.86,187.75V170l30.69,17.72v17.72Z" transform="translate(-10.5 -10.07)"/><path class="cls-4" d="M532.66,205.47V187.75l30.69,17.72v17.72Z" transform="translate(-10.5 -10.07)"/><path class="cls-4" d="M502,205.47V187.75l30.69,17.72v17.72Z" transform="translate(-10.5 -10.07)"/><path class="cls-4" d="M471.29,240.9V223.18L502,240.9v17.72Z" transform="translate(-10.5 -10.07)"/><path class="cls-4" d="M440.6,240.9V223.18l30.69,17.72v17.72Z" transform="translate(-10.5 -10.07)"/><path class="cls-2" d="M103.06,170v17.72l61.37-35.44V134.6Z" transform="translate(-10.5 -10.07)"/><path class="cls-2" d="M164.43,134.6v17.72l61.37-35.44V99.17Z" transform="translate(-10.5 -10.07)"/><path class="cls-2" d="M133.74,170v17.72l61.37-35.44V134.6Z" transform="translate(-10.5 -10.07)"/><path class="cls-2" d="M195.11,134.6v17.72l61.37-35.44V99.17Z" transform="translate(-10.5 -10.07)"/><path class="cls-2" d="M256.48,99.17v17.72l61.37-35.44V63.74Z" transform="translate(-10.5 -10.07)"/><path class="cls-2" d="M103.06,205.47v17.72l61.37-35.44V170Z" transform="translate(-10.5 -10.07)"/><path class="cls-2" d="M164.43,170v17.72l61.37-35.44V134.6Z" transform="translate(-10.5 -10.07)"/><path class="cls-2" d="M225.8,134.6v17.72l61.37-35.44V99.17Z" transform="translate(-10.5 -10.07)"/><path class="cls-2" d="M133.74,205.47v17.72l61.37-35.44V170Z" transform="translate(-10.5 -10.07)"/><path class="cls-2" d="M195.11,170v17.72l61.37-35.44V134.6Z" transform="translate(-10.5 -10.07)"/><path class="cls-2" d="M256.48,134.6v17.72l61.37-35.44V99.17Z" transform="translate(-10.5 -10.07)"/><path class="cls-2" d="M164.43,205.47v17.72l61.37-35.44V170Z" transform="translate(-10.5 -10.07)"/><path class="cls-2" d="M225.8,170v17.72l61.37-35.44V134.6Z" transform="translate(-10.5 -10.07)"/><path class="cls-2" d="M256.48,170v17.72l61.37-35.44V134.6Z" transform="translate(-10.5 -10.07)"/><path class="cls-2" d="M195.11,205.47v17.72l61.37-35.44V170Z" transform="translate(-10.5 -10.07)"/><path class="cls-2" d="M133.74,240.9v17.72l61.37-35.44V205.47Z" transform="translate(-10.5 -10.07)"/><path class="cls-2" d="M164.43,240.9v17.72l61.37-35.44V205.47Z" transform="translate(-10.5 -10.07)"/><path class="cls-2" d="M72.37,205.47v17.72l61.37-35.44V170Z" transform="translate(-10.5 -10.07)"/><path class="cls-2" d="M225.8,205.47v17.72l61.37-35.44V170Z" transform="translate(-10.5 -10.07)"/><path class="cls-2" d="M195.11,240.9v17.72l61.37-35.44V205.47Z" transform="translate(-10.5 -10.07)"/><path class="cls-2" d="M256.48,205.47v17.72l61.37-35.44V170Z" transform="translate(-10.5 -10.07)"/><path class="cls-2" d="M72.37,187.75v17.72l30.69-17.72V170Z" transform="translate(-10.5 -10.07)"/><path class="cls-2" d="M103.06,223.18V240.9l30.68-17.72V205.46Z" transform="translate(-10.5 -10.07)"/><path class="cls-2" d="M133.74,223.18V240.9l30.69-17.72V205.46Z" transform="translate(-10.5 -10.07)"/><path class="cls-2" d="M164.43,258.62v17.72l30.69-17.72V240.9Z" transform="translate(-10.5 -10.07)"/><path class="cls-2" d="M287.17,63.73V81.45l30.69-17.72V46Z" transform="translate(-10.5 -10.07)"/><path class="cls-2" d="M287.17,99.17v17.72l30.69-17.72V81.45Z" transform="translate(-10.5 -10.07)"/><path class="cls-2" d="M287.17,134.6v17.72l30.69-17.72V116.88Z" transform="translate(-10.5 -10.07)"/><path class="cls-2" d="M287.17,170v17.72L317.86,170V152.31Z" transform="translate(-10.5 -10.07)"/><path class="cls-5" d="M409.92,382.61l-46-8.86,15.34-8.86Z" transform="translate(-10.5 -10.07)"/><path class="cls-2" d="M379.23,364.91v17.72l61.37-35.44V329.48Z" transform="translate(-10.5 -10.07)"/><path class="cls-2" d="M317.86,453.5v17.72l30.69-17.72V435.78Z" transform="translate(-10.5 -10.07)"/><path class="cls-2" d="M317.86,488.93v17.72l30.69-17.72V471.21Z" transform="translate(-10.5 -10.07)"/><path class="cls-2" d="M317.86,471.21v17.72l61.37-35.44V435.78Z" transform="translate(-10.5 -10.07)"/><path class="cls-2" d="M348.54,435.78V453.5l61.37-35.44V400.35Z" transform="translate(-10.5 -10.07)"/><path class="cls-2" d="M348.54,471.21v17.72l61.37-35.44V435.78Z" transform="translate(-10.5 -10.07)"/><path class="cls-2" d="M379.23,435.78V453.5l61.37-35.44V400.35Z" transform="translate(-10.5 -10.07)"/><path class="cls-2" d="M379.23,400.35v17.72l61.37-35.44V364.92Z" transform="translate(-10.5 -10.07)"/><path class="cls-2" d="M409.91,329.48V347.2l61.37-35.44V294.05Z" transform="translate(-10.5 -10.07)"/><path class="cls-2" d="M440.6,329.48V347.2L502,311.76V294.05Z" transform="translate(-10.5 -10.07)"/><path class="cls-2" d="M409.91,364.91v17.72l61.37-35.44V329.48Z" transform="translate(-10.5 -10.07)"/><path class="cls-2" d="M409.91,400.35v17.72l61.37-35.44V364.92Z" transform="translate(-10.5 -10.07)"/><path class="cls-2" d="M409.91,435.78V453.5l61.37-35.44V400.35Z" transform="translate(-10.5 -10.07)"/><path class="cls-2" d="M440.6,400.35v17.72L502,382.63V364.92Z" transform="translate(-10.5 -10.07)"/><path class="cls-2" d="M440.6,364.91v17.72L502,347.19V329.48Z" transform="translate(-10.5 -10.07)"/><path class="cls-2" d="M471.29,294.05v17.72l61.37-35.44V258.62Z" transform="translate(-10.5 -10.07)"/><path class="cls-2" d="M502,294.05v17.72l61.37-35.44V258.62Z" transform="translate(-10.5 -10.07)"/><path class="cls-2" d="M471.29,329.48V347.2l61.37-35.44V294.05Z" transform="translate(-10.5 -10.07)"/><path class="cls-2" d="M471.29,364.91v17.72l61.37-35.44V329.48Z" transform="translate(-10.5 -10.07)"/><path class="cls-2" d="M471.29,400.35v17.72l61.37-35.44V364.92Z" transform="translate(-10.5 -10.07)"/><path class="cls-2" d="M502,364.91v17.72l61.37-35.44V329.48Z" transform="translate(-10.5 -10.07)"/><path class="cls-2" d="M502,329.48V347.2l61.37-35.44V294.05Z" transform="translate(-10.5 -10.07)"/><path class="cls-2" d="M532.66,258.62v17.72L594,240.9V223.19Z" transform="translate(-10.5 -10.07)"/><path class="cls-2" d="M563.34,258.62v17.72l61.37-35.44V223.19Z" transform="translate(-10.5 -10.07)"/><path class="cls-2" d="M532.66,294.05v17.72L594,276.33V258.62Z" transform="translate(-10.5 -10.07)"/><path class="cls-2" d="M532.66,329.48V347.2L594,311.76V294.05Z" transform="translate(-10.5 -10.07)"/><path class="cls-2" d="M532.66,364.91v17.72L594,347.19V329.48Z" transform="translate(-10.5 -10.07)"/><path class="cls-2" d="M563.34,329.48V347.2l61.37-35.44V294.05Z" transform="translate(-10.5 -10.07)"/><path class="cls-2" d="M563.34,294.05v17.72l61.37-35.44V258.62Z" transform="translate(-10.5 -10.07)"/><path class="cls-2" d="M440.6,294.05v17.72L502,276.33V258.62Z" transform="translate(-10.5 -10.07)"/><path class="cls-2" d="M502,258.62v17.72l61.37-35.44V223.19Z" transform="translate(-10.5 -10.07)"/><path class="cls-2" d="M563.34,223.18V240.9l61.37-35.44V187.75Z" transform="translate(-10.5 -10.07)"/><path class="cls-2" d="M594,223.18V240.9l30.69-17.72V205.46Z" transform="translate(-10.5 -10.07)"/><path class="cls-2" d="M594,258.62v17.72l30.69-17.72V240.9Z" transform="translate(-10.5 -10.07)"/><path class="cls-2" d="M594,294.05v17.72l30.69-17.72V276.33Z" transform="translate(-10.5 -10.07)"/><path class="cls-2" d="M594,329.48V347.2l30.69-17.72V311.76Z" transform="translate(-10.5 -10.07)"/><path class="cls-4" d="M11,311.72V294l30.69,17.72v17.72Z" transform="translate(-10.5 -10.07)"/><path class="cls-4" d="M41.68,329.44V311.72l61.37,35.44v17.71Z" transform="translate(-10.5 -10.07)"/><path class="cls-4" d="M11,294V276.28l61.37,35.44v17.71Z" transform="translate(-10.5 -10.07)"/><path class="cls-4" d="M72.37,329.44V311.72l61.37,35.44v17.71Z" transform="translate(-10.5 -10.07)"/><path class="cls-4" d="M11,276.29V258.57l30.69,17.72V294Z" transform="translate(-10.5 -10.07)"/><path class="cls-4" d="M11,240.85V223.13l30.69,17.72v17.72Z" transform="translate(-10.5 -10.07)"/><path class="cls-4" d="M11,205.42V187.7l30.69,17.72v17.72Z" transform="translate(-10.5 -10.07)"/><path class="cls-4" d="M11,258.57V240.85l61.37,35.44V294Z" transform="translate(-10.5 -10.07)"/><path class="cls-4" d="M11,223.14V205.42l61.37,35.44v17.71Z" transform="translate(-10.5 -10.07)"/><path class="cls-4" d="M41.68,294V276.28l61.37,35.44v17.71Z" transform="translate(-10.5 -10.07)"/><path class="cls-4" d="M41.68,258.57V240.85l61.37,35.44V294Z" transform="translate(-10.5 -10.07)"/><path class="cls-4" d="M41.68,223.14V205.42l61.37,35.44v17.71Z" transform="translate(-10.5 -10.07)"/><path class="cls-4" d="M72.37,258.57V240.85l61.37,35.44V294Z" transform="translate(-10.5 -10.07)"/><path class="cls-4" d="M72.37,294V276.28l61.37,35.44v17.71Z" transform="translate(-10.5 -10.07)"/><path class="cls-4" d="M103.05,364.87V347.15l61.37,35.44V400.3Z" transform="translate(-10.5 -10.07)"/><path class="cls-4" d="M133.74,364.87V347.15l61.37,35.44V400.3Z" transform="translate(-10.5 -10.07)"/><path class="cls-4" d="M103.05,329.44V311.72l61.37,35.44v17.71Z" transform="translate(-10.5 -10.07)"/><path class="cls-4" d="M103.05,294V276.28l61.37,35.44v17.71Z" transform="translate(-10.5 -10.07)"/><path class="cls-4" d="M133.74,329.44V311.72l61.37,35.44v17.71Z" transform="translate(-10.5 -10.07)"/><path class="cls-4" d="M164.43,400.3V382.58L225.8,418v17.71Z" transform="translate(-10.5 -10.07)"/><path class="cls-4" d="M195.11,400.3V382.58L256.48,418v17.71Z" transform="translate(-10.5 -10.07)"/><path class="cls-4" d="M164.43,364.87V347.15l61.37,35.44V400.3Z" transform="translate(-10.5 -10.07)"/><path class="cls-4" d="M164.43,329.44V311.72l61.37,35.44v17.71Z" transform="translate(-10.5 -10.07)"/><path class="cls-4" d="M195.11,364.87V347.15l61.37,35.44V400.3Z" transform="translate(-10.5 -10.07)"/><path class="cls-4" d="M225.8,435.73V418l61.37,35.44v17.71Z" transform="translate(-10.5 -10.07)"/><path class="cls-4" d="M256.48,435.73V418l61.37,35.44v17.71Z" transform="translate(-10.5 -10.07)"/><path class="cls-4" d="M225.8,400.3V382.58L287.17,418v17.71Z" transform="translate(-10.5 -10.07)"/><path class="cls-4" d="M11,329.44V311.72l61.37,35.44v17.71Z" transform="translate(-10.5 -10.07)"/><path class="cls-4" d="M72.37,364.87V347.15l61.37,35.44V400.3Z" transform="translate(-10.5 -10.07)"/><path class="cls-4" d="M133.74,400.3V382.58L195.11,418v17.71Z" transform="translate(-10.5 -10.07)"/><path class="cls-4" d="M195.11,435.73V418l61.37,35.44v17.71Z" transform="translate(-10.5 -10.07)"/><path class="cls-4" d="M256.48,471.17V453.45l61.37,35.44V506.6Z" transform="translate(-10.5 -10.07)"/><path class="cls-4" d="M287.17,471.17V453.45l30.69,17.72v17.72Z" transform="translate(-10.5 -10.07)"/><path class="cls-3" d="M409.91,276.33l61.37-35.43L502,258.61,440.6,294.05Z" transform="translate(-10.5 -10.07)"/><path class="cls-3" d="M471.29,240.9l61.37-35.43,30.69,17.71L502,258.62Z" transform="translate(-10.5 -10.07)"/><path class="cls-3" d="M532.66,205.47,594,170l30.69,17.71-61.37,35.44Z" transform="translate(-10.5 -10.07)"/><path class="cls-3" d="M133.74,223.18,72.37,187.75,41.68,205.47l61.38,35.43Z" transform="translate(-10.5 -10.07)"/><path class="cls-3" d="M11,187.75l61.37-35.43L103.06,170,41.68,205.47Z" transform="translate(-10.5 -10.07)"/><path class="cls-3" d="M72.37,152.32l61.37-35.43,30.69,17.71L103.06,170Z" transform="translate(-10.5 -10.07)"/><path class="cls-3" d="M133.74,116.88l61.37-35.43L225.8,99.16,164.43,134.6Z" transform="translate(-10.5 -10.07)"/><path class="cls-3" d="M256.48,46l61.37-35.43L348.54,28.3,287.17,63.74Z" transform="translate(-10.5 -10.07)"/><path class="cls-3" d="M409.91,63.73,348.54,28.3,317.85,46l61.38,35.44Z" transform="translate(-10.5 -10.07)"/><path class="cls-3" d="M471.29,99.17,409.92,63.74,379.23,81.45l61.38,35.44Z" transform="translate(-10.5 -10.07)"/><path class="cls-3" d="M532.66,134.6,471.29,99.17,440.6,116.88,502,152.32Z" transform="translate(-10.5 -10.07)"/><path class="cls-3" d="M594,170,532.66,134.6,502,152.31l61.38,35.44Z" transform="translate(-10.5 -10.07)"/><path class="cls-2" d="M103.06,240.9v17.72l30.68-17.72V223.18Z" transform="translate(-10.5 -10.07)"/><path class="cls-2" d="M133.74,276.33v17.72l30.69-17.72V258.61Z" transform="translate(-10.5 -10.07)"/><path class="cls-2" d="M287.17,418.11v17.72l30.69-17.72V400.39Z" transform="translate(-10.5 -10.07)"/><path class="cls-4" d="M409.92,294.05V276.33l30.69,17.72v17.72Z" transform="translate(-10.5 -10.07)"/><path class="cls-4" d="M379.23,329.51V311.79l30.69,17.72v17.72Z" transform="translate(-10.5 -10.07)"/><path class="cls-4" d="M348.54,364.91V347.19l30.69,17.72v17.72Z" transform="translate(-10.5 -10.07)"/><path class="cls-2" d="M225.8,347.21v17.72l30.69-17.72V329.49Z" transform="translate(-10.5 -10.07)"/><path class="cls-2" d="M256.49,382.61v17.72l30.69-17.72V364.89Z" transform="translate(-10.5 -10.07)"/><path class="cls-3" d="M256.49,329.51l-61.37-35.43-30.69,17.71,61.37,35.44Z" transform="translate(-10.5 -10.07)"/><path class="cls-3" d="M103.06,258.61l30.68,17.72,30.69-17.72L133.74,240.9Z" transform="translate(-10.5 -10.07)"/><path class="cls-3" d="M133.74,294.05l30.69,17.71,30.68-17.71-30.68-17.72Z" transform="translate(-10.5 -10.07)"/><path class="cls-3" d="M225.8,364.91l30.69,17.72,30.68-17.72-30.68-17.72Z" transform="translate(-10.5 -10.07)"/><path class="cls-3" d="M256.49,400.31,287.18,418l30.68-17.72-30.68-17.72Z" transform="translate(-10.5 -10.07)"/><path class="cls-3" d="M379.23,311.76l30.69,17.72,30.68-17.72L409.92,294Z" transform="translate(-10.5 -10.07)"/><path class="cls-3" d="M348.54,347.21l30.69,17.72,30.68-17.72-30.68-17.72Z" transform="translate(-10.5 -10.07)"/><path class="cls-3" d="M287.17,435.81l30.69,17.72,30.68-17.72-30.68-17.72Z" transform="translate(-10.5 -10.07)"/><path class="cls-3" d="M317.86,418.11l30.69,17.72,30.68-17.72-30.68-17.72Z" transform="translate(-10.5 -10.07)"/><path class="cls-5" d="M440.6,311.76l-46-8.86L409.91,294Z" transform="translate(-10.5 -10.07)"/><path class="cls-5" d="M409.92,347.21l-46-8.86,15.34-8.86Z" transform="translate(-10.5 -10.07)"/><path class="cls-5" d="M379.23,418.11l-46-8.86,15.34-8.86Z" transform="translate(-10.5 -10.07)"/><path class="cls-4" d="M256.49,63.73V46l30.69,17.72V81.45Z" transform="translate(-10.5 -10.07)"/><path class="cls-5" d="M287.17,81.45l-46-8.86,15.34-8.86Z" transform="translate(-10.5 -10.07)"/><path class="cls-1" d="M221.05,577.51l8.86,15.34h35.43l-8.86-15.34Z" transform="translate(-10.5 -10.07)"/><path class="cls-2" d="M265.34,592.86l35.44-61.37-8.86-15.35-35.43,61.38Z" transform="translate(-10.5 -10.07)"/><path class="cls-3" d="M221.05,577.51h35.43l35.44-61.37H256.48Z" transform="translate(-10.5 -10.07)"/><path class="cls-6" d="M578.69,356.05c1.14-10.84,15.34-44.28,6-56.61,9.33-5.39,30.55-32.51,40-30.2v-81.5L468.22,278.1c16.44,63.57-28.86,41.3-20.7,116.88-31.46,72.68-111.06,33.85-109.29,99.9Z" transform="translate(-10.5 -10.07)"/><path class="cls-7" d="M317.86,506.64,11,329.44V187.74L87.71,232c-5.11,26.58-37.77,13.15-15.34,79.72,27.71,4.62,35.45,15.74,46,26.58,18.27,18.71,42.27,33.11,65.17,46.82,36.31,21.76,81.33,35.78,90,60.42,17.53,27.56,6.94,21.73,13.15,43.07" transform="translate(-10.5 -10.07)"/><path class="cls-7" d="M317.86,187.74,440.6,258.61l122.75-70.87L317.86,46Z" transform="translate(-10.5 -10.07)"/><path class="cls-6" d="M317.86,187.74V46l-15.34,8.86c-5.65,3.26,5.6,67.19-27.62,69.09-12.56.72-43.56,19.23-58.3,19.49-27.37.48-36.83-17.72-36.83-17.72l-107.4,62,61.38,35.43v17.72l30.68,17.72v17.72Z" transform="translate(-10.5 -10.07)"/><path class="cls-8" d="M468.22,278.1c-9.07-8.55-34.89-5.38-39.89-12.4l135-78L317.86,46l-15.34,8.86c2.74-19.85-15.14-16.95-15.35-26.58l30.69-17.72L624.72,187.73Z" transform="translate(-10.5 -10.07)"/><path class="cls-8" d="M87.71,232c.7-3.5,7.89-2.47,9.21-5.31,3.53-7.64,11.09-11.83,8.82-19.71L72.37,187.74l107.4-62c6.14-16.22-12.27-17.71,0-35.43L11,187.74Z" transform="translate(-10.5 -10.07)"/><path class="cls-9" d="M584.7,299.44c-6.16-1.48-13.59-.36-18.79-5-7.34-6.52-13.32-12.57-22.36-15.58" transform="translate(-10.5 -10.07)"/><path class="cls-9" d="M587.75,314.8c-4.21,1.53-8.81-2.81-13.44,1.81-5.27,5.27-14.63,5.47-20.92,8.61-3.3,1.66-4.89,6.41-8.2,8.62-5.76,3.84-13.69,5.16-18.87,8.61" transform="translate(-10.5 -10.07)"/><path class="cls-9" d="M447.52,395c20.72-8.18,49.39,1,61.37-17.71" transform="translate(-10.5 -10.07)"/><path class="cls-9" d="M72.37,311.72c-7.38-.23-16.58.94-23.06-3.38-3.84-2.56-4.59-5.88-8.7-7.25-4.4-1.46-10.83.13-14.5-2.32" transform="translate(-10.5 -10.07)"/><path class="cls-9" d="M410,178.35c-6-7-8.62-24.73-5.52-34,8.85-15.3,7.72-25.79,8.22-43.54,9.81-.14,17.37-3.44,39.64-12.55" transform="translate(-10.5 -10.07)"/></svg>