<svg id="publicdomainvectors.org" xmlns="http://www.w3.org/2000/svg" viewBox="0 0 645.52 352.58"><defs><style>.cls-1{fill:#a7bf39;}.cls-1,.cls-10,.cls-12,.cls-13,.cls-15,.cls-19,.cls-2,.cls-20,.cls-21,.cls-3,.cls-4,.cls-5{fill-rule:evenodd;}.cls-2{fill:#82983b;}.cls-16,.cls-3{fill:#652a10;}.cls-18,.cls-4{fill:#391b0d;}.cls-14,.cls-5{fill:#be5b28;}.cls-6{fill:#d6cbc7;}.cls-7{fill:#b5a8a4;}.cls-13,.cls-8{fill:#4e4542;}.cls-9{fill:#87b8e3;}.cls-10,.cls-11{fill:#abd1ef;}.cls-12{fill:#c0dcf3;}.cls-15{fill:#82341a;}.cls-17,.cls-19{fill:#17100b;}.cls-20{fill:#f4a51d;}.cls-21{fill:#fcb022;}</style></defs><title>House2</title><path class="cls-1" d="M108.7,286.53A119.11,119.11,0,0,1,110,304.45c0,15.44-2.85,29.68-7.65,41.08H42.82c-4.8-11.4-7.65-25.64-7.65-41.08,0-27.53,9.06-51.23,22.07-61.85A98.72,98.72,0,0,1,53.67,216c0-39.2,22.07-71,49.29-71a35.53,35.53,0,0,1,13.42,2.66c1.61-25.3,13.33-44.93,27.55-44.93a18,18,0,0,1,11.64,4.68c6.9-24.92,23.93-42.55,43.85-42.55,26,0,47.11,30.09,47.11,67.21s-21.09,67.22-47.11,67.22c-12.44,0-23.75-6.87-32.17-18.1-3.63,10.33-9.25,18.09-15.86,21.46a101.88,101.88,0,0,1,.87,13.33c0,36.4-19,66.4-43.56,70.5Zm483.93-49c22.37,0,40.51,29.37,40.51,65.61,0,16.16-3.61,31-9.6,42.4H518.84a75.74,75.74,0,0,1-4.07-24.78c0-18.8,6.55-35.46,16.63-45.8-9.62-8-16.27-25-16.27-44.69,0-27.35,12.82-49.52,28.62-49.52s28.63,22.17,28.63,49.52a81.91,81.91,0,0,1-2,18C576.81,241.47,584.43,237.52,592.63,237.52Z"/><path class="cls-2" d="M322.76,352.58c177.77,0,322.76-3.17,322.76-7.05s-145-7-322.76-7S0,341.65,0,345.53,145,352.58,322.76,352.58Z"/><polygon class="cls-3" points="225.23 345.53 87.41 345.53 87.41 193.4 225.23 145.84 225.23 345.53"/><polygon class="cls-4" points="87.41 217.67 87.41 195.69 225.23 147.32 225.23 169.3 87.41 217.67"/><path class="cls-4" d="M119.77,177.22h97.34v2.64H119.77v-2.64ZM87.41,204.56h129.7v2.64H87.41v-2.64Zm0,82.45h129.7v2.64H87.41V287Zm0-27.48h129.7v2.64H87.41v-2.64Zm0-27.49h129.7v2.65H87.41V232Zm0,82.45h129.7v2.64H87.41Z"/><polygon class="cls-5" points="62.26 191.73 253.9 124.48 445.54 191.73 438.71 211.32 253.9 146.46 69.09 211.32 62.26 191.73"/><rect class="cls-6" x="217.11" y="199.34" width="333.77" height="146.19"/><rect class="cls-7" x="228.12" y="209.03" width="19.37" height="6.6"/><rect class="cls-7" x="249.36" y="209.03" width="19.37" height="6.6"/><rect class="cls-7" x="238.13" y="217.5" width="19.37" height="6.6"/><rect class="cls-7" x="411.95" y="317.35" width="19.37" height="6.6"/><rect class="cls-7" x="433.2" y="317.35" width="19.38" height="6.6"/><rect class="cls-7" x="421.97" y="325.83" width="19.37" height="6.6"/><rect class="cls-7" x="235.38" y="311.29" width="19.37" height="6.6"/><rect class="cls-7" x="256.63" y="311.29" width="19.37" height="6.6"/><rect class="cls-7" x="245.4" y="319.77" width="19.37" height="6.61"/><rect class="cls-7" x="355.15" y="229.39" width="19.37" height="6.6"/><rect class="cls-7" x="376.4" y="229.39" width="19.37" height="6.6"/><rect class="cls-7" x="365.17" y="237.87" width="19.37" height="6.6"/><rect class="cls-7" x="379.81" y="290.82" width="19.37" height="6.6"/><rect class="cls-7" x="401.06" y="290.82" width="19.38" height="6.6"/><rect class="cls-7" x="379.7" y="269.79" width="19.37" height="6.61"/><rect class="cls-7" x="496.17" y="324.4" width="19.37" height="6.6"/><rect class="cls-7" x="517.41" y="324.4" width="19.37" height="6.6"/><rect class="cls-7" x="506.19" y="332.87" width="19.37" height="6.6"/><rect class="cls-7" x="502.77" y="255.48" width="19.37" height="6.61"/><rect class="cls-7" x="524.02" y="255.48" width="19.38" height="6.61"/><rect class="cls-7" x="512.79" y="263.96" width="19.38" height="6.61"/><rect class="cls-7" x="512.68" y="211.45" width="19.37" height="6.61"/><rect class="cls-7" x="317.17" y="326.59" width="19.38" height="6.61"/><rect class="cls-7" x="324.77" y="208.15" width="19.38" height="6.6"/><rect class="cls-7" x="334.79" y="216.62" width="19.37" height="6.6"/><rect class="cls-7" x="447.29" y="218.16" width="19.37" height="6.61"/><rect class="cls-8" x="410.41" y="228.51" width="104.36" height="79.26"/><rect class="cls-8" x="253.22" y="228.51" width="104.36" height="79.26"/><rect class="cls-9" x="415.48" y="233.58" width="94.23" height="69.13"/><rect class="cls-9" x="258.28" y="233.58" width="94.23" height="69.13"/><path class="cls-10" d="M267.74,233.58h28.84v69.13H267.74V233.58Zm40.51,0H319v69.13H308.25Z"/><rect class="cls-11" x="431.33" y="249.43" width="62.53" height="37.43"/><rect class="cls-11" x="274.13" y="249.43" width="62.53" height="37.43"/><path class="cls-12" d="M274.13,249.43v37.43h22.45V249.43Zm34.12,37.43H319V249.43H308.25Z"/><path class="cls-13" d="M282.28,231.16h3.52v73.31h-3.52V231.16Zm42.71,0h3.52v73.31H325Z"/><path class="cls-10" d="M468.31,233.58H490.1v69.13H468.31V233.58Zm-44.48,0h24v69.13h-24Z"/><path class="cls-12" d="M490.1,249.43v37.43H468.31V249.43Zm-42.27,0v37.43h-16.5V249.43Z"/><path class="cls-13" d="M439.48,231.16H443v73.31h-3.52V231.16Zm42.71,0h3.52v73.31h-3.52Z"/><rect class="cls-14" x="209.18" y="180.74" width="349.62" height="18.6"/><rect class="cls-7" x="217.11" y="199.34" width="333.77" height="5.62"/><polygon class="cls-15" points="217.11 73.3 383.99 14.73 550.88 73.3 550.88 180.74 217.11 180.74 217.11 73.3"/><polygon class="cls-3" points="217.11 73.3 383.99 14.73 550.88 73.3 550.88 93.75 383.99 35.19 217.11 93.75 217.11 73.3"/><path class="cls-3" d="M257.82,47.91H510.16v2.65H257.82V47.91Zm-40.71,82.45H550.88V133H217.11v-2.64Zm0-27.48H550.88v2.64H217.11v-2.64Zm0-27.48H550.88V78H217.11V75.4Zm0,82.44H550.88v2.64H217.11Z"/><polygon class="cls-5" points="192.36 67.25 383.99 0 575.63 67.25 568.81 86.83 383.99 21.98 199.18 86.83 192.36 67.25"/><rect class="cls-16" x="319.41" y="62.8" width="132.67" height="100.76"/><rect class="cls-9" x="325.85" y="69.24" width="119.8" height="87.89"/><path class="cls-10" d="M337.87,69.24h36.67v87.89H337.87V69.24Zm51.5,0h13.72v87.89H389.37Z"/><rect class="cls-11" x="346" y="89.39" width="79.49" height="47.59"/><path class="cls-12" d="M346,89.39V137h28.54V89.39ZM389.37,137h13.72V89.39H389.37Z"/><path class="cls-3" d="M356.36,66.16h4.48v93.21h-4.48V66.16Zm54.3,0h4.48v93.21h-4.48Z"/><rect class="cls-17" x="122.63" y="214.87" width="63.85" height="130.66"/><rect class="cls-18" x="129.9" y="222.13" width="56.58" height="123.4"/><path class="cls-19" d="M180.15,285.1a5,5,0,1,0-5-5A5,5,0,0,0,180.15,285.1Z"/><path class="cls-20" d="M178.39,283.12a5,5,0,1,0-5-5A5,5,0,0,0,178.39,283.12Z"/><path class="cls-21" d="M178.39,278.44a2.45,2.45,0,1,0-2.92-2.41A2.7,2.7,0,0,0,178.39,278.44Z"/></svg>