<svg id="Layer_1" data-name="Layer 1" xmlns="http://www.w3.org/2000/svg" viewBox="0 0 280.48 254.87"><defs><style>.cls-1{fill:#939dac;}.cls-1,.cls-3,.cls-5{stroke:#010101;}.cls-1,.cls-3,.cls-5,.cls-6{stroke-linecap:round;stroke-linejoin:round;}.cls-1,.cls-3,.cls-6{stroke-width:4px;}.cls-2,.cls-4{fill:#010101;}.cls-2{fill-opacity:0.31;}.cls-3{fill:#fff;}.cls-5{stroke-width:4px;opacity:0.32;isolation:isolate;}.cls-6{fill:none;stroke:#687588;}</style></defs><title>elephant 16</title><path id="path2383" class="cls-1" d="M250.79,129.57A109.54,109.54,0,1,1,141.25,20,109.54,109.54,0,0,1,250.79,129.57Z"/><path id="path3353" class="cls-2" d="M144.75,18a86.19,86.19,0,0,0-33.25,6.63c0-.19.11-.37.16-.56A109.68,109.68,0,0,0,40.31,172.22c8.11-3.42,22.46-14,34.37-23.5,15.4,23.88,60.45,46.76,66.8,46.76s50.29-25.64,66-47.51c6.31,4.84,20,16.15,25.42,19.41A132.24,132.24,0,0,1,49.37,189.25a109.57,109.57,0,0,0,192.81-17c.08-.19.17-.39.25-.59l0-.09c.25-.6.48-1.19.72-1.79.07-.18.15-.37.22-.56.25-.64.51-1.29.75-1.94,0-.14.1-.29.16-.43.25-.7.48-1.4.71-2.1,0-.1.06-.21.1-.31.4-1.22.79-2.45,1.15-3.69s.72-2.42,1-3.65a.65.65,0,0,0,0-.13c.2-.79.4-1.57.59-2.37l.06-.25c.17-.75.31-1.5.47-2.25,0-.14.07-.27.09-.41.15-.71.28-1.43.41-2.16l.09-.53c.12-.67.24-1.35.35-2,.13-.85.26-1.7.37-2.56,0-.28.09-.56.13-.84l.09-.69c.08-.69.15-1.38.22-2.06,0-.53.11-1.07.16-1.6q.4-4.75.4-9.62A109.51,109.51,0,0,0,194.83,34a86.09,86.09,0,0,0-50.09-16Z"/><path id="path3245" class="cls-1" d="M56.25,229.37c0,20.84,16.89,23.5,37.73,23.5s37.74-2.66,37.73-23.5S114.11,197,94,191.63C62.66,183.24,56.25,208.53,56.25,229.37Z"/><path id="path3239" class="cls-3" d="M123.35,241.12c1.51,5.63-3,7.6-8.77,9.15s-10.67,2.09-12.18-3.54a10.85,10.85,0,0,1,20.95-5.61Z"/><path id="path3241" class="cls-3" d="M85.27,247.22c-1.51,5.63-6.39,5.09-12.18,3.54s-10.28-3.52-8.77-9.15a10.85,10.85,0,0,1,21,5.61Z"/><path id="path3243" class="cls-3" d="M103.9,246.3c0,5.83-4.85,6.57-10.84,6.57s-10.85-.74-10.85-6.57a10.85,10.85,0,0,1,21.69,0Z"/><path id="path3297" class="cls-2" d="M105.92,195.76a41.15,41.15,0,0,1,8.33,25.64c0,24.65-16.89,27.8-37.74,27.8-3.22,0-6.34-.09-9.33-.31,6.84,3.32,16.31,4,26.79,4,20.85,0,37.74-2.68,37.74-23.52C131.71,212.8,120.59,202.15,105.92,195.76Z"/><path id="path3220" class="cls-1" d="M226.25,229.37c0,20.84-16.89,23.5-37.73,23.5s-37.73-2.66-37.73-23.5,17.6-32.35,37.73-37.74C219.84,183.24,226.26,208.53,226.25,229.37Z"/><path id="path3235" class="cls-3" d="M218.81,241.12c1.51,5.63-3,7.6-8.77,9.15s-10.67,2.09-12.18-3.54a10.85,10.85,0,0,1,20.95-5.61Z"/><path id="path3237" class="cls-3" d="M180.73,247.22c-1.51,5.63-6.39,5.09-12.18,3.54s-10.28-3.52-8.77-9.15a10.85,10.85,0,0,1,20.95,5.61Z"/><path id="path3224" class="cls-3" d="M199.37,246.3c0,5.83-4.85,6.57-10.84,6.57s-10.85-.74-10.85-6.57a10.85,10.85,0,0,1,21.69,0Z"/><path id="path3358" class="cls-2" d="M205.54,190.54c9.7,7.49,12.27,22.67,12.26,36.07,0,21.56-17.47,24.32-39,24.32-4.68,0-9.14-.15-13.3-.57,6.37,2,14.36,2.5,23,2.5,20.84,0,37.74-2.65,37.73-23.49C226.25,213,222.31,194,205.54,190.54Z"/><path id="path2523" class="cls-1" d="M13.5,11.66c22-18.11,65.24-6.57,91.09.93-14,49.3-2.82,80.09-14.91,108-27.77,27.66-70.75,58.11-68.33,40.09C33,73.84-20.56,39.75,13.5,11.66Z"/><path id="path4380" class="cls-1" d="M267,11.66c-22-18.11-65.23-6.57-91.09.93,14.06,49.3,2.83,80.09,14.91,108,27.77,27.65,70.76,58.11,68.34,40.09C247.47,73.84,301,39.75,267,11.66Z"/><path id="path267" class="cls-1" d="M140.24,4C59.89,4,39.94,39.22,53.7,90.57c16.3,60.86,69.45,86.57,86.54,86.57s70.5-26.71,86.54-86.57C240.52,39.31,220.59,4,140.24,4Z"/><path id="path3159" class="cls-3" d="M190.28,58.1a22.67,22.67,0,1,1-22.66-22.67A22.67,22.67,0,0,1,190.28,58.1Z"/><path id="path3161" class="cls-4" d="M170.14,62.1a7.56,7.56,0,1,1-7.55-7.56A7.56,7.56,0,0,1,170.14,62.1Z"/><path id="path3157" class="cls-3" d="M137.55,58.1a22.67,22.67,0,1,1-22.66-22.67A22.67,22.67,0,0,1,137.55,58.1Z"/><path id="path3163" class="cls-4" d="M128.11,62.1a7.56,7.56,0,1,1-7.55-7.56A7.56,7.56,0,0,1,128.11,62.1Z"/><path id="path4388" class="cls-5" d="M113.25,104.14c38,131.36-10.59,127.42,32.31,128.16s4.45,7.11,22.52-123"/><path id="path4386" class="cls-1" d="M109.15,95.15c36.54,136.37-10.19,132.27,31.09,133s-3.3,4.27,31.08-133"/><path id="path4407" class="cls-6" d="M130.19,213.76H150.3"/><path id="path4425" class="cls-6" d="M132.19,197.76H148.3"/><path id="path4427" class="cls-6" d="M132.19,181.76H148.3"/><path id="path4429" class="cls-6" d="M130.19,165.76H150.3"/><path id="path4431" class="cls-6" d="M128.19,149.76H152.3"/><path id="path4433" class="cls-6" d="M126.19,133.76H154.3"/><path id="path4435" class="cls-6" d="M122.19,117.76H158.3"/></svg>