<svg id="Layer_1" data-name="Layer 1" xmlns="http://www.w3.org/2000/svg" viewBox="0 0 409.87 278.74"><defs><style>.cls-1{fill:#b3cccc;}</style></defs><title>elephant 13</title><path id="path3" class="cls-1" d="M147.64,1.06c-8.51,1.95-18.57-2.48-26.59,1C117.66,3.59,115.84,7,113,8.88c-3.83,2.55-8.63,5.77-11.21,9.65C99,22.75,97,27.32,94.34,31.68c-2.27,3.77-7.29,4.94-10.31,8-4.39,4.41-5.25,15.74-4.7,21.91.41,4.51,1.82,6.14,0,10.69a151.44,151.44,0,0,0-4.66,15c-3.13,11-5.91,22.12-9.94,32.7-3.55,9.35-6.64,19-13,27s-15.24,11.59-23.48,17.36C12.23,175.5-2.27,194.44.6,214.88c1.46,10.39,5.93,19.45,12,27.9,1.12,1.58,5.57,8.58,8.38,6C22.84,247,16.4,240,23,239.39c-.66-3.68-4.07-6.06-5.73-9.39a43.36,43.36,0,0,1-4.18-12.52c-1.22-8.85.69-20.57,6.26-27.64,6.51-8.26,18.42-11.94,27.11-17.73,8.92-6,17.9-11.6,26.23-18.27,8.09-6.47,13.17-15.88,19-24.24,4.41-6.31,9.72-19,18.63-19,2.61,0,2.92-3.38,5.47-4.69,3.64-1.85,9.72-.45,13.3.26s5.89-1.82,9.38-1.82c5.61,0,2.93,1.16,4.7,4.69a33.11,33.11,0,0,0,6,8.87c3.35,3.35,2.2,8,3.65,13,.94,3.26,4.19,6.69,4.7,9.91.64,4.1-1.19,8.17-.26,12.78,2.12,10.61,7.61,20.21,11.84,30.08,4.44,10.36,0,15.2-1.29,25.5-1.43,11.43.38,23.07-1,34.42-1.37,10.89-7.78,17.29-14.49,25.67-8,10,8,7.85,15.14,8.19,7.72.36,15.36-.65,21.9-4.18,2.45-1.32,8.5-2.67,9.39-5.73.43-1.48-3.23-5.69-1.56-6.52.67-.34,3.33-1,3.65-1.3,2.21-2.3,6.25-5.05,6.25-8.35,0-4.57-1.88-8.86-2.08-13.56-.44-10.07-4.87-20.47-4.17-30.25.83-11.71,9-20.31,11.73-31.29,2.31-9.26,7.6-12.62,16.42-10.43,4.78,1.2,9.25,3.66,14.08,4.7,5.48,1.18,11.36,1,16.92,1.95,1.84.31,3.28,8.94,4.34,10.72,3,4.94,4.37,9.34,5.85,15,2.68,10.15,4.7,18.27,4.7,28.58,0,4.45.52,8.86.52,13.14,0,4.73-6.39,7.94-6.26,12.51.23,8.14,11.6,2.26,4.69,11.48-.93,1.25-4.33,3.59-3.65,5.73,1,3.16,8.48,2.23,10.73,2,4.15-.42,9.71,1.61,13.52.34s7.27.36,11.47-1a74.69,74.69,0,0,0,8.08-3.13c3.22-1.61,3.76-3.71,2.09-7.56-2.09-4.83-4.69-4.5-4.69-10.17,0-5.37,2.9-11.32,4.43-16.43,3.13-10.44,3.76-21.7,7-31.81,3.17-9.8,9.1-18.58,14.6-27.12,6.53-10.14,10-22.26,13.05-33.84a172.28,172.28,0,0,0,4.57-20.16c.56-4-1.11-7.74-.94-11.71,6.53,8.6,11.27,17.52,13.56,28.16,2.2,10.21,4,20.77,10.43,29.21,5.28,6.94,12.8,13.65,18.25,19.29,2.43,2.51,4.21,5.78,6.78,8.34,2,2,6.9,1.49,4.69-1.82-1.59-2.38.3-6-1-9.39-2.29-5.71-7.82-7.5-13-9.65-8.6-3.53-17.47-9.68-18.9-19.72-2.5-17.51-6.87-46.13-23.07-56.94-5.95-4-10.54-20.56-13.76-27-4.2-8.4-12.79-17.81-20.66-23.06-4.1-2.74-6.67-7.68-10.68-10.69a38.14,38.14,0,0,0-12.09-6.25c-10.38-3-20.79-4.77-31.38-7.21-10.24-2.36-20.34-1.62-30.58-4a69,69,0,0,0-16.12-2.09c-5,0-10.15,1.38-14.9-.52-8.25-3.3-18.43-3.74-27.11-5.47-9.33-1.87-16.8-8.08-26.87-9.13"/><path id="path5" d="M273.3,243c3.86-5,.87-16.29,1-22.43.26-8.83-3-20.75-6.25-29.2-1.57-4-4.63-7-6.26-10.95-2.33-5.6,0-6.6-6.49-7.69a162.46,162.46,0,0,1-26.1-6.13c-7-2.34-11-.39-14.34,6-4.19,8-8,17.93-11.47,26.59-3.35,8.43-1.93,14.15,1.16,22.39,2.39,6.39-1.42,15.87,2,21.42-4.87-1.45-5-7.8-4.17-12-1.37,1.51-.77,4.29-2.09,6.25.15-1-.05-2.1,0-3.12.1.06-1.27-.83-1.56-1.05-1,.9-2.32,2.28-3.13,3.13.91-3.84,7.47-27.56,3.13-28.16,1-7,3.07-12.29,6-18.7,2.17-4.78,8.76-14,7.57-18.85a39.54,39.54,0,0,0-6.77,7.3c1.72-4.22,4-6.95,5.73-10.43h-1c3.25-3.92-6.07-2.63-1.57-8.34a10.31,10.31,0,0,1,0,2.08c.53-.81,2-2.25,2.61-3.12a11.14,11.14,0,0,0-1,4.69,13.19,13.19,0,0,0,2.08-7.3c1,1.81.51,4,0,6.26,2.31-2,1.13-6.69,3.13-8.35a28.85,28.85,0,0,1-.52,7.3c1.62-1.35,1.57-4.43,2.09-6.78,1,2,.4,4.59-.53,6.78a27.45,27.45,0,0,0,2.09-2.61c.32,3.09-4.72,6.81-7.3,9.39,1-.6,2.13-1,3.13-1.56a27.16,27.16,0,0,1-3.13,3.13c2.89,1.32,6.79-3.64,8.86-6.26,3.42-4.31,2.49-8,3.65-13,3.61,1.08,8.54,1.57,11.48,4,3.31,2.74,7.57,8,11.72,9.28,8.89,2.69,21.37,4,28.83,9.59,3.37,2.53,10.48,5.88,12.63,9.47,1.73,2.9,1.69,9.18,2.09,12.52.8,6.85,1.52,16.77-2.09,23l-.52-1.05a40.31,40.31,0,0,0-2.61,6.78c1.1-1.42,2.19-3.64,3.65-4.69.22,5.21-2.24,10.86-2.6,16.17-.08,1.14.39,8.34-.95,8.34h-12.1"/><path id="path7" d="M86.64,138.74c-5.58,6.24-9.27,12-15.91,17.83-7.56,6.62-16.29,11.31-24.76,16.59-12.41,7.73-22.61,11.43-30.36,24.36-3.22,5.36-2.36,17.52-.93,23.1.7,2.73,1.33,6.13,2.61,8.34,1.38,2.4,6.77,6,6.78,8.87,0,4.6-3.37,1-4.18,3.13-1,2.66,3.38,7.34,3.13,7.82-3.95,7.76-16.62-14.29-17.73-16.69-8.12-17.74-7.65-39.79,6.78-54.24a186.18,186.18,0,0,1,25-20.33c3.4-2.34,6.7-3.73,9.91-6.78,3-2.86,7.71-11.53,11-12-5.51,10.11-12.44,15.39-21.9,21.38-8.89,5.63-16.5,14.87-23.31,20.32C-6.77,196.07,2.39,223.2,12.07,241c1.36-2.3,1.34-2.23,3.65-2.61-1.27.58-2.34,1.81-3.65,2.61a16.68,16.68,0,0,0,7.82,7.3c-1.37-2.52-3-11.53,2.61-8.87.18-4.92-3.49-5.77-6.26-6.26l2.09-.52c-2.24-3.3-3.34-7.23-4.69-11l-.52,1c-1.53-2.55-3.94-1.26-6.26-.52.1-1.21.36-1.1,1-2.08,1.1,1.57,3,.12,5.22,1-2.95-10.46-.72-28.9,9.15-35.48,4.24-2.83,27.19-13.16,26.3-17.71,6,7.28,29.18-23.17,34.42-26.6-1.38-.61-1.18-1.19-3.13-1.56v-1c2,.4,2.41.23,3.13,2.61.18-1.43.59-1.23.52-2.61.34.5.49,0,.52,1a3,3,0,0,1,2.61-1"/><path id="path9" d="M200.3,260.25c-5.38,2,.06,3.35-.52,6.26-.74,3.7-3.7,4.2-7.59,6.14-3.3,1.65-5.53,4-9.1,4.81-3.83.87-8.27.25-12.22.91-3.61.6-18.16.81-21.15-1.95-3.95-3.66,6.95-15.86,10.43-16.17-1.31,2.15-6.25,6-3.12,7.56a28.43,28.43,0,0,0,5.21,2.35,11.3,11.3,0,0,1-1-2.09c.52.36,1.53.72,2.08,1.05a10.18,10.18,0,0,0-1-2.09c1.54.2,2,.52,3.13,2.09a11.61,11.61,0,0,1-2.09.52c0,.1-.76,4.46,0,4.69,2.65.82,1.47-2.77,3.13-3.65,3.2-1.7,8.94-.76,10.43,2.61a9.09,9.09,0,0,1-3.65-.52h2.08c-2.26-2-6.4-2.23-8.34-.52-2.24,2-1.54,6.77,2.09,4.95,6.13-3.07,14.74,1.36,19.81-4.43-2.84-.8-5.79-3.4-8.34-1,4.35-4.87,9.91,2.34,14.6-2.6-.8-.19-1.4-.31-2.09-.52,4.66-3.4,3.85-1.9,2.09-8.35a30.32,30.32,0,0,1,5.22,0"/><path id="path11" d="M317.1,260.25c1.89,9.41-3.22,5.31-7.3,9.39-4.5,4.5-10.43,1-15.12,3.39-2.82,1.41-19.52.11-22.42-1.31-3.7-1.8-4-2.54-1.05-6.25,1.72-2.14,4.8-5,6.78-5.22-.71,4.12-9.67,6.48-4.69,9.91,2.51,1.73,15-1,7.82-2.61a24.15,24.15,0,0,0-2.08,2.09c-.72-2.32.64-3.12,3.12-2.61-.39-2.24-2.4-3.26-4.69-3.65,2.54-.76,4.42.73,6.78,2.09-.19-1.81.57-1.33,0-3.13a5.62,5.62,0,0,1,2.08,1.56c-5.16,7.19,8,10.83,9.91,6,3-7.46-7.46-5-9.91-2.87,1.11-5.08,8.07-3.54,11.48-1.56l-1.05-2.09h1.05l-1.05-1a2.1,2.1,0,0,1,1.05,3.65c1.89-.26,5.91-2.09,7.3-2.09,3.73,0,2.89,4.31,6.78,3.65-.75-2.41,1.41-5.46,4.17-5.73L315,260.25h2.08"/><path id="path13" d="M273.3,243h12c-.52,3.62-4.09,17.21-8.34,17.21-3,0-9.86-5-12.51-6.78.93-4.38,6.28-7.23,8.86-10.43"/><path id="path15" d="M315,260.25c-3.51-2.82-8.55-18.06-1-17.21-.55,3.25-2.09,6.38-2.09,9.65,0,2.9,3.87,6,5.22,8.6a9.86,9.86,0,0,1-2.08-1"/><path id="path17" d="M174.76,243c.77,2.52-.17,4.22-.52,6.78-.11-1-.39-2.08-.52-3.13a9.78,9.78,0,0,0-1.57,3.65,13.17,13.17,0,0,0-.52-5.74,14.55,14.55,0,0,0-.52,4.7c-1.15-2-.86-4.28-2.09-6.26h5.73"/><path id="path19" d="M310.84,243h0"/><path id="path21" d="M165.89,243c0-5.24-2-35.24,3.13-34.94a38.13,38.13,0,0,0-1.57,8.86c.48-1.44,1.48-2.77,2.09-4.17-.09,2.42-1.44,6.67-2.09,9.91.41-1,1.08-2.06,1.57-3.13-.78,2.9-1.66,5.85-1.57,8.87a9.13,9.13,0,0,1,3.65-5.22c-.34,1.75-.3,3.45-.52,5.22.28-1.06.77-2.07,1-3.13.77,3.13-.24,6.35,1.56,9.39-2.73.85-1.07,5.85-1,8.34-2.39-.36-2.07.1-3.13-1-1.08,1.07-1.74.41-3.14,1"/><path id="path23" d="M172.67,243c1.1-2.66-.36-5.34.52-7.82.46,2.53.33,5.74,2.09,7.3a2.94,2.94,0,0,1-2.61.52"/><path id="path25" d="M193.53,243c0-2.61.52-5,2.61-6.26.15,2.7.69,6.49-2.61,6.26"/><path id="path27" d="M310.32,243c4.45-5.59,5.58-12.16,7.56-18.77,1.29-4.32.67-16.22,4.43-16.17a99.06,99.06,0,0,1-3.9,21c-1,3.34-2.92,14.36-6.52,14,.34-.35.69-.7,1-1a5.83,5.83,0,0,0-2.6,1"/><path id="path29" d="M166.94,208.1c.8-5.39,5.11-10.76,3.38-15.94s-3.44-9.74-5.79-15c-2.69-6.05-13.78-30.82-5.93-34.73.45.76.79,1.18,1,1.56-.94,2.61-2.29,5.16-1,7.83a23.72,23.72,0,0,1,3.12-8.87c-2.35-.67-4.77-1.68-6.25-4.17,5.3-1.4,17.59,17.35,19.29,6.78-1.36.55-2.86.54-4.17,1,1.24-1.09,3.45-2,4.17-3.13-2.08.88-4.41.87-5.74-.52h2.09l-2.09-1c2.89-1,5.1.88,6.26-1.57.86,1,1.47,1,2.09,1.57.11,1.52-.4-.62,0,1,.12-2.17.79-3.73,2.6-4.17-1.54,8.41-4.71,70.37-13,69.37"/><path id="path31" d="M320.23,208.1c3-12.82,10.28-22.13,16-33.67,3.12-6.23,6.34-12.15,9.1-18.58,1.5-3.51,3.48-16.66,6.66-17.11-2.28,12.53-7.5,26.82-14.36,37.62-3.07,4.82-6.36,9.56-9.1,14.53-2,3.56-5.25,17.48-8.35,17.22"/><path id="path33" d="M260.79,138.74,257.14,144c.09-2.45,1.37-4.65,3.65-5.22"/><path id="path35" d="M372.9,138.74a44.62,44.62,0,0,0,13.56,29.2c4.13,4.13,10.29,4.41,15.12,7.31,3.78,2.27,10,11.37,6.26,15.12,4.69,1.13.58,8.56-5.22,4.17-6.09-4.61-6.32-10.87-10.95-16.69,2.18,1.33,3.28,3.62,4.69,5.74V182c1.56,4.48,5.34,12.09,10.43,13-2.41-2.24-6.08-8.48-5.73-11.47,1.66,3.66,3.23,8.25,6.78,9.91-2-2.26-3.42-6.47-4.18-9.91,1.29,1.34,2.37,3.93,3.65,4.69-.31-2.61-.28-6.62-2.6-6.26,0-.34.52.63.52,1-2.11-.53-3.08-2.68-4.69-4.18a38.7,38.7,0,0,0-8.46-5.27,89.92,89.92,0,0,1-10.06-6.2c-2.39-1.59-2.68-5.61-4.95-3.65.41.14,1.2-.22,1.56,0-1.27,3.54,14.79,18.1,16.69,22.43-2.85-2.1-4.42-6.07-6.78-8.87-3.51-4.16-8-7.25-11.47-11.47-6.06-7.47-7.84-17.83-9.38-27.12a32.49,32.49,0,0,1,5.22,0"/><path id="path37" d="M56.39,138.74c6.34-12.33,9.12-26.21,14-39.15,1.92-5.14,3.92-10.83,5.33-16.13.25-.94,2.6-8,2.6-10.43,0-3.47,1.22-6.18,1-9.91-.21-4.4.38-8.74.52-12.51.12-3.48-.71-4.48,1-7.83,2.46-4.7,7.88-5.8,11.47-9.38,1.8-1.8,2.93-5.57,4.17-7.83,2.19-4,6.22-7.75,8.08-11.47C107.76,7.83,119.21,0,126.26,0c7.31,0,13.57-.17,20.34.52,14.13,1.43,24.52,9.16,37.54,12,1.63.35,4.56-.73,6.26-.53,3.89.47,7.65,2.19,11.47,3.13,7.17,1.77,12.78-.6,19.81-.52,3.53,0,14.68,2.17,17.21,4.7s14.42-.28,19.29.52c9.27,1.51,19.94,3.52,28.94,6.52,5.87,1.95,11.69,2.89,17.47,7,2.93,2.1,4.74,3.46,6.77,6.52,1.55,2.31,5,3.16,5.74,6,6.43-2.87,18.77,21.52,22.42,23,2.21,13.36,12.58,25.69,20.86,36.5,6.71,8.76,11.6,22.79,12.51,33.38-7.87,1.82-7.12-8.62-9.5-14.18-1.34-3.13-5.37-10.06-8.23-12.94-.18,5,2.69,26.53-4.69,27.12,1.21-4.59,4.17-10.89,4.17-15.65,0-5.74-1.71-10.83-2.6-16.68-1.55-10.07-6.85-17.23-9.91-26.6C337.85,66.7,323.88,49.05,311.89,43c-2.52-1.26-4.32-5.2-6.29-7.51-.86-1-6.65-3.13-8.84-4.22-9.83-4.92-21.71-5.3-32.32-7.82A103.39,103.39,0,0,0,242,20.88c-8.4-.2-17.13-3.65-26.22-3.65-15,0-33.6-1.81-47.3-8.34a79.69,79.69,0,0,0-45.08-6.4c-5.32.89-9.74,6.29-13.32,9.52-6.61,6-9.58,11.61-14.6,18.78-3.58,5.11-12,8.4-14.08,14.08-1,2.65-.21,7.54-.52,10.43-.37,3.4-1.87,7.47.52,9.91,1-3.5,4.23-7.15,5.21-9.91.31,4.05-4,9.55-5.73,13.56.85.13,1.58.72,3.12.52C78,68.84,73.51,91,74.12,95.45c1.3-1.73,2.46-1.69,3.13.52a17.66,17.66,0,0,0-2.09-1.56c.47.72.25,1.24.52,2.09-4.14-1-4.92,7-5.73,10.43,2.28-.23,2.92-.09,4.17.52a3.33,3.33,0,0,0-4.17,1c1.84-.32,2.84-.28,4.17.52-11.09-3.42-8.26,28.4-17.73,29.74"/><path id="path39" d="M79.86,138.74a4.83,4.83,0,0,0-4.7-2.61,4.48,4.48,0,0,1,5.22,1.57,17.08,17.08,0,0,0-3.65-4.18c2.56.32,4.47,2.79,5.21,5.22H79.86"/><path id="path41" d="M83.51,138.74a16.59,16.59,0,0,0-8.35-8.34c2.81.84,5.12,2.74,7.83,3.65-.75-1-1.27-2.2-2.09-3.13a9.91,9.91,0,0,1,3.13,2.6c-1.93,1.35-.69,3.91-.52,5.21"/><path id="path43" d="M85.07,138.74c-.28-.81-.22-2.5-1.56-3.65a29.77,29.77,0,0,1,2.6,3.13c1.22-5.73,8-12.41,11.07-17.58,3-5,3.5-12.92,10.31-12.15-3.36.23-5.65,3.25-6.78,6.26,1.59-3.21,11.48-4.78,11.48-6.26,0-5.07,11.1-7.94,11.47-15.12.38.35,1.29.76,1.56,1a37.78,37.78,0,0,0-.52-7.82c-.26-1.85-1.8-4.49-.52-6.78-.71,2.12,2.64,3.4,5.21,2.61.63,5-6.23,15.21,2.09,18.77a14.05,14.05,0,0,1-1-4.69,6.88,6.88,0,0,0,5.21,5.73A6.86,6.86,0,0,1,133,97.54a29.12,29.12,0,0,0,3.13,3.65c-.17-.69-.34-1.39-.52-2.08,1.7,1.35,3.79,2.87,6.26,2.6a20,20,0,0,1-2.61-2.6c12.08,12.53,26.56-11,28.16-21.39a7.58,7.58,0,0,0-2.09,4.18c-4.81-5,13.92-18,19.29-17.74-1.81,2.41-6.14,9.24-8.86,7.31C175.18,75.88,175,80,173.19,84c-.37-.6-1.18-.9-1.56-2.08-1.72,3.71-4.77,7-5.74,9.9,2.75-1.71,4.25-4.8,5.74-7.82A15.84,15.84,0,0,1,169,89.72c-1.15,1.44-5,3.13-5.47,4.43-1.42,4.25-5.24,7.48-6.52,11.21,5.94-3.5,7.73-11.66,13.56-15.64-3,4-7.45,8.14-8.87,13,.71-1.3,1.81-2.41,2.61-3.65-.65,7.68-6.21,7.88-11,11.47,2.35.47,4-.72,4.17.52,5.92-3.67,7.8-10.42,9.91-16.69-.14,2.17-.91,4.09-1,6.26.52-1.07,1.33-1.3,2.08-2.09-1.78,5.72-3.54,11.14-8.34,14.61,4.65.87,5.59-8.12,9.39-10.43-1.64,2.58-1.62,3.78-1.05,6.25a25.34,25.34,0,0,0,1.57-4.69c-.29,4.63-1.68,12.71-7.3,12.52a14.85,14.85,0,0,0,5.73-7.3c-2.55,4.55-9.45,12.67-15.12,8.34,3.18.45,6.11-.16,8.34-2.61-1.64,0-4.75,2.32-5.73,1.83-2.21-1.11-4.48-1.1-6.78-2.35,3.13.42,6.94,1.17,9.91,0-2.22.36-4.12.23-5.74-1,4-1.44,3.84.11,7.3-2.61,1.84-1.44,5.41-5.27,4.17-7.82-.31,4-4.71,7-7.82,8.34-6,2.66-5.66-.91-10.95-3.13-8.32-3.49,7.1,10.62,7.3,11.48-5.37-1.17-12.77-8.48-10.43-14.61-2.71-1-4.58.11-7.3.79-4.53,1.13-8,.6-12.51-.52-1-.26-8.87,1.81-8.87,1.82,0,3.7-3.21,3.65-5.73,3.65-5.65,0-10.42,10.42-12.52,14.6-1.46,2.91-8,12.85-11,13"/><path id="path45" d="M155.46,138.74c-1.55-4.11-6.66-14.16-2.61-17.21-.4,6.24,1.71,11.24,4.7,17.21h-2.08"/><path id="path47" d="M157.55,138.74c-.54-2.83-1.56-5.42-1.56-8.34,1.17,3,1.75,5.18,3.12,8.34h-1.56"/><path id="path49" d="M178.41,138.74c.42-4.13,2.1-11.61,5.74-14.08a29.8,29.8,0,0,1-1.05,3.13h2.09a12.54,12.54,0,0,0-5.22,6.26h1.57c-1,2.38-1.3,4.21-3.13,4.69"/><path id="path51" d="M251.93,138.74c5.25-3.32,8.42-8.75,12.51-12.52-1.43,3.88-8.37,13-12.51,12.52"/><path id="path53" d="M257.66,138.74a21.69,21.69,0,0,0,3.65-7.3c.41,2-.68,4.29-2.09,6.26,2.52-2.06,6.81-10.89,8.87-10.43-2.5,3.12-5.93,10.83-8.35,11.47a.82.82,0,0,0,.53-1c-.76,1.14-1.4,1-2.61,1"/><path id="path55" d="M265.48,138.74c.58-.83,1-1.74,1.57-2.61.34,1.81-.74,1.7-1.56,2.61"/><path id="path57" d="M289.47,138.74,292.6,133a5.41,5.41,0,0,1-3.13,5.74"/><path id="path59" d="M291.55,138.74c1.76-4.39,1.66-7.86,2.09-12.52-.9,3.57-3.9,7.21-6.26,10.43.71-6.27,7.46-10.43,8.34-16.68-1.73,1.56-2.65,4.23-3.65,5.73.48-1.68.78-3.26,2.09-4.69-1.34-1.42-.37-4,1-5.74a39.93,39.93,0,0,1-1,5.74c-.19.1,2.72-2.18,1.56-1,.94-2,1.63-3.89,1-5.74,2.69,4-3.22,9.52-2.08,13a33.21,33.21,0,0,1,2.08-5.22c-.39,1.56,0,2.35,0,3.65,1.65-2.7,1.58-5.93,2.09-8.86.27,4.42-.72,23.61-7.3,21.9"/><path id="path61" d="M300.94,138.74c.43-1.58,1.05-3.14,1.56-4.69.4,2.12-.08,3.94-1.56,4.69"/><path id="path63" d="M303.55,138.74c.31-.65,0-1.36.52-2.09,1.14,1.41-.15,1.3-.52,2.09"/><path id="path65" d="M305.11,138.74h0"/><path id="path67" d="M131,13.58c-.7.69-1.39,1.39-2.08,2.08.78-2.66,1.57-2,2.08-2.08"/><path id="path69" d="M173.71,17.75a8.9,8.9,0,0,1-.52-4.17c.61,1,.55,2.4.52,4.17"/><path id="path71" d="M176.32,17.23a13.84,13.84,0,0,1-2.09-3.13c1.57.73,1.58,1.77,2.09,3.13"/><path id="path73" d="M130.43,17.75c.43-.45,1.28-.41,1.56-1a11.38,11.38,0,0,0,1,2.6c-1.2,3.11,1.55,3.83,3.13,6.78-1.9-.62-3.15-2.15-4.18-4.17.29,1.54.19,3.17.53,4.69-1.52-2.39-.85-5.05-1.57-7.82a10.73,10.73,0,0,0-1,4.7c-1.37-1.68-.69-3.59,0-5.74a11.3,11.3,0,0,0-1,2.09c-.52-1.87.48-3.54,2.08-5.22-.18,1-.25,2.12-.53,3.13"/><path id="path75" d="M165.37,19.31c-5.35,3-9.36.72-11,7.3,0-1-.55-2.07-.52-3.12a11.09,11.09,0,0,1-2.61,2.08c1.64-4.11,13.57-9.63,14.08-6.26"/><path id="path77" d="M178.41,24c2.07.9,4.23,1.59,6.26,2.6,1.24.63,3.65.9,3.65,2.38s-.53,2.32,1,2.32c2.19,0,1.54,14.3,1,15.64-1.07-4.19-1.33-8.72-2.08-13-.48.77-1.18,1.11-1.57,1.56,1.26-5.86-.42-7.3-6.25-9.39-5.43-1.93-9.73-2.52-13.56-7.3,4.38.2,6.73,5.37,11.48,5.22"/><path id="path79" d="M119,20.36c-1,.69-1.31,1.44-2.61,1.56.44-1.87,1.34-1,2.61-1.56"/><path id="path81" d="M122.09,21.92a19.61,19.61,0,0,0-4.17,12,79.27,79.27,0,0,0,4.17-7.83,91.62,91.62,0,0,0-2.61,15.13,18.4,18.4,0,0,1,0-8.35c-1.92,2.19-1.79,5-1.56,7.83h-1c.17-2.44.34-4.87.52-7.31-2,1.88-1.73,4.72-1.57,7.31-3-.81-3.53-4.39-3.65-7.31.15.88.8,2.27,1,3.13,1.29-3,2-6.27,3.12-9.38-1.24,1.69-1.88,3.52-3.12,5.21.44-4.64,2.86-6.37,5.73-9.39-1.26,2.23-.89,2.71-.52,4.18-3,2.45-4.58,7.53-3.65,11,1.13-5.44,3.32-12.16,7.3-16.17"/><path id="path83" d="M118.44,22.44a26.56,26.56,0,0,1-3.65,3.13,4,4,0,0,1,3.65-3.13"/><path id="path85" d="M104.36,23a59.89,59.89,0,0,0-7.3,11c.06-2.85,1.89-5.11,3.65-7.31A32.71,32.71,0,0,0,98.1,28.7a16.47,16.47,0,0,1,3.65-5.21l-1,2.6A36.27,36.27,0,0,1,104.36,23"/><path id="path87" d="M212.3,27.66c.79-.4,1.1-.36-.52-3.13a8.35,8.35,0,0,0,5.74,4.69c-3.37.71-7.11-1.67-8.35-5.21a20.32,20.32,0,0,1,3.12,3.65"/><path id="path89" d="M139.82,26.09c-.92-.2-1.51.56-2.61-.52.18-.35.35-.69.52-1a8.73,8.73,0,0,0,2.09,1.56"/><path id="path91" d="M168.5,28.7c-.35.7-.7,1.39-1,2.09.59-.22,1.46.11,2.08,0-.18-.54-.68-.94-.52-1.57,4.88,1.87,10.21.8,14.86,2.35,2.61.87-.06,10.87,2.35,13.82l-1-.52c.26,1.12.28,2,.52,3.13-3.21-3.33,0-9.66-2.09-13.56-1.18-2.23-8.81-1.57-12.51-3.13-1.45.41-4.73,1.34-4.17,4.69a23.73,23.73,0,0,1,2.6-2.61c-1.49,2-.85,3.42,0,5.22-3.87-6.82-4.23,3.73-5.73,5.74-4.55-4.13.61-9.84-6.26-11,.59-2.95-1.21-5.09,1.57-7.3,3-2.38,7.08-.11,9.38,2.61"/><path id="path93" d="M219.08,28.18c-1.71-.51-3-.69-3.65-2.61a9.88,9.88,0,0,1,3.65,2.61"/><path id="path95" d="M240.45,26.09c2.87,1.59,5,2.1,7.82,5.22-1.2-.17-1.06-.43-2.08-1-1.18.17-2.92-1.38-4.18-3.13a9.93,9.93,0,0,0,1.05,1.56.82.82,0,0,0-.52,1,20.21,20.21,0,0,0-6.26-2.6l.52,1a36.83,36.83,0,0,0-3.65-1V26.09c3.19-.55,6.15,3,7.31,0"/><path id="path97" d="M192.48,28.18c-1.47-.69-2.49-.37-2.61-2.09a19,19,0,0,1,2.61,2.09"/><path id="path99" d="M223.77,27.14c-.5,0-.94,1-2.09-.52,1.25-.77,1.39.21,2.09.52"/><path id="path101" d="M103.32,27.14c-1.89,2.33-3.74,5.39-4.17,8.34-1.19-2.6,2.2-8.33,4.17-8.34"/><path id="path103" d="M196.13,31.31c-1.21-1-2.14-1.5-2.61-3.13a38.64,38.64,0,0,1,2.61,3.13"/><path id="path105" d="M214.38,31.31c-1.12.12-3.19-1.27-4.17-3.13,1.33,1.15,2.8,2.1,4.17,3.13"/><path id="path107" d="M263.4,32.35c-.54-1-1-2.08-1.56-3.13,2.34,1.74,3.66,4.67,6.25,6.26-.63-1.15-.91-2.51-1.56-3.65,2.07,1.46,4,3.28,6.26,4.69-.18.35-.35.7-.52,1-.85-1.17-2.38-1.91-3.13-3.13.31,1.05.21,2.05.52,3.13-1.89-.71-4.3-1.55-5.22-4.18a13.55,13.55,0,0,0,0,1.57,7,7,0,0,0-5.21-4.17c1.08.06.54.18,1,.52a6.74,6.74,0,0,0-2.08-3.13c1.74,1.38,3.53,2.7,5.2,4.17"/><path id="path109" d="M261.83,34.44a22.18,22.18,0,0,0-4.17-3.13l1,2.08a73.72,73.72,0,0,0-6.26-4.69c3.71.87,6.72,1,9.39,5.74"/><path id="path111" class="cls-1" d="M161.2,33.39a9,9,0,0,1,3.13-3.65,19.49,19.49,0,0,1-3.13,3.65"/><path id="path113" class="cls-1" d="M166.94,29.74l-2.09,2.09c-.09-1.93,1-1.41,2.09-2.09"/><path id="path115" d="M123.14,32.87c-.63.66-1.69,1.07-.52,3.65.35-.87.69-1.74,1-2.6.7,2.57.85,6.3,3.13,7.82-1.87,0-2.86-1.44-3.13-3.65a8.45,8.45,0,0,0,.52,3.65c-1.67-1.13-2.07-3.18-2.08-5.22a32.73,32.73,0,0,0-.52,5.22c-2.81-3.63.68-8,1-12a15.87,15.87,0,0,1,.53,3.13"/><path id="path117" d="M255.58,31.83c-1.89.44-3,.48-3.65-2.09a16.52,16.52,0,0,1,3.65,2.09"/><path id="path119" d="M196.13,37.57a8.92,8.92,0,0,0,0-5.22c1.82,2,1,5.1,1,7.82A20.81,20.81,0,0,0,198.74,37c-.13,6.21-1.71,10.47-3.65,16.69-1.12,0-.38-.19-1.57,0q1.57-3.9,3.13-7.82a26.51,26.51,0,0,0-3.13,2.61c3.47-7.83.66-11.46,0-18.25a10.19,10.19,0,0,1,2.61,7.3"/><path id="path121" d="M251.93,31.31c-1.26-.35-2.12.11-2.61-1,1.46-.31,1.51.52,2.61,1"/><path id="path123" d="M194.05,33.92c-.94-1.06-1.88-1.35-2.09-3.13a25.83,25.83,0,0,1,2.09,3.13"/><path id="path125" class="cls-1" d="M181.53,31.31a16.46,16.46,0,0,1-6.26.52,22.61,22.61,0,0,1,6.26-.52"/><path id="path127" d="M153.38,32.35A10.35,10.35,0,0,0,150.25,37c.13-1,0-2.1,0-3.12a4.86,4.86,0,0,0-1.56,3.65c-.8,0-.7-.43-1-1a9.16,9.16,0,0,0-.53,2.09c-1.44-1.43-1.08-5,1.57-4.17a4.3,4.3,0,0,1,4.69-2.09"/><path id="path129" d="M101.24,37a5.39,5.39,0,0,1,1.56-4.69A37.36,37.36,0,0,1,101.24,37"/><path id="path131" d="M111.14,32.87c-.06.69,0,1.4,0,2.09a2.8,2.8,0,0,1,0-2.09"/><path id="path133" d="M274.87,36.52c.86-.69,2.17.27,3.13,2.09-.9-.66-1.73-1.41-2.61-2.09l-.52,1c-1.77-1.13-2.88-2.68-2.61-4.18.59,1.51,1.78,2.06,2.61,3.13"/><path id="path135" d="M155.46,33.39c-.75.7-.53,1.73-2.09,1.57.3-1.43,1.14-1,2.09-1.57"/><path id="path137" d="M288.42,43.82c-1.15-4-5.51-6.23-5.73-10.43,1.49,3.63,5.48,6.35,5.74,10.43"/><path id="path139" d="M280.08,36.52l-1-1c3.53.45,5.89,4.53,7.82,7.3-3-.34-3.33-4.26-6.26-5.74.4.92.57,2.17,1,3.13-1.52-1.94-3.54-3.29-5.21-5.21a18.06,18.06,0,0,0,3.65,1.56"/><path id="path141" d="M251.93,38.61A19.46,19.46,0,0,1,254,36.52a7,7,0,0,0-2.6,5.74,33,33,0,0,1,2.08-2.61c-.28,1.1-.27,2-.52,3.13.53-1.05,1.48-2.12,2.09-3.13a18.22,18.22,0,0,1,0,2.09c2.41-.78,3.22-1.82,6.78-2.09-1.45,1.14-4.88,2.36-6.26,2.09-1.7,2.24-2.92,4.78-4.69,6.78,5-2.75,7.32-8.24,14.07-7.82-6.85,1.13-9.89,6.55-15.12,10.43a.84.84,0,0,1-.52-1.05c.22-.31,1-.6,1.57-1-2.77.28-2.62,4.7-3.65,7.3.64-3.44.15-8,3.65-9.39-.09-.15-1.39-.9-1.57-1,1.07-1,1-1.6,1.57-2.61l-1,1.05c.24.43-1.21-2.45,0-1.57-.62.46-2,1.08-2.6,1.57a16,16,0,0,0,3.65-5.22l-1,1A7.88,7.88,0,0,1,252.45,36c-.5.88-.27,1.64-.54,2.61"/><path id="path143" d="M203.43,43.3a8.34,8.34,0,0,1,.52-6.78,27.52,27.52,0,0,1-.52,6.78"/><path id="path145" d="M112.71,38.61c-.44-.45-1.56-.8-2.09-1.56,1.47.25,1.42.84,2.09,1.56"/><path id="path147" d="M218.55,37c-1,1-2.31,2.55-3.65,3.65,2.53-2.43,4.42-.92,6.78-2.6A33.72,33.72,0,0,0,218,41.22c2-.68,3.61-.69,4.17,1-3-1.47-5.85,1.15-7.82,3.65.35-.52.7-1,1-1.57a19.9,19.9,0,0,0-5.21,5.22c.58-.82,1-1.76,1.56-2.61-.83.74-1.8,1.33-2.6,2.09,1.82-3.84,6.58-6.83,9.9-9.39-4.52,2.15-8.73,4.58-11.47,8.87l-1-1.05c3-3.56,7.9-8.49,12-10.43"/><path id="path149" d="M291,37.57c-.33,3,1.11,5.79-.52,8.34a49.84,49.84,0,0,1-3.65-8.34l3.65,5.73c0-2-.06-4.56.52-5.73"/><path id="path151" d="M178.41,43.3V41.74h1c.35,2.44.66,5.69,1.57,7.3V42.78h1l-.52,1c2.61.37,3.21,5.44,1.56,7.83a5.88,5.88,0,0,0-2.6-.53c-.18-.86-.35-1.73-.53-2.6-.61,1.23-1.5,2.12-2.08,3.13.8-2.27,1.81-5.25,0-7.31-.31,2.75.13,5.2-2.09,6.78,1.36-2.27,1.4-5-.52-6.78a20.08,20.08,0,0,1-.52,4.18c.31-3.28-3.09-6.75-1.56-8.87a8.6,8.6,0,0,1,3.13,5.22,17,17,0,0,0,0-3.65l1,.52c-.36-1-.59-2.14-1-3.13a24.76,24.76,0,0,0,2.08,4.69"/><path id="path153" d="M128.35,42.26c-.71-1.18-1.47-1.72-1.56-3.13,1.17.95,1,1.81,1.56,3.13"/><path id="path157" d="M132.52,41.74c-1.07-.19-2,.37-2.61-1.57,1.28.23,1.65.91,2.61,1.57"/><path id="path159" d="M152.86,40.7c.7,3.43,0,6.58,2.61,8.86A3.57,3.57,0,0,1,156,48c.44,3.31,3,7.09,4.43,9.9,2,4,3.18,10.55,2.87,16.17-1.46-1.25-1.59-2.41-2.09-4.69a14.14,14.14,0,0,1-3.13,4.17c-.17-.35-.34-.7-.52-1-.89.92-2.31,2.11-3.13,3.13a20.3,20.3,0,0,0,4.18-7.31,12.27,12.27,0,0,0-4.18,5.74c-.22-.24-.88-.8-1-1,2.87-2.26,3.74-6.19,5.22-9.39a44.19,44.19,0,0,1-1,5.22c.63-.61,1.6-1.14,2.09-1.57v1c1.46-1.13,1.47-1.08,1.56-3.12l-1,.52c-1.07-6.92-5.11-9.29-6.78-14.08-.11,1.73-.76,3.31-.52,5.21-1.66-.81-2.8-.24-4.17,1l1-1.56c-2.24,1.63-4.11,1.7-3.65-1.56a17.82,17.82,0,0,1-2.6,1c3.15-3.08,5.16-3,6.77-6.78,1.07-2.53.34-6.95,2.61-8.34"/><path id="path161" d="M293.12,40.7c.15,1.7,0,3.5,0,5.21-1.32-1.73-1.46-3.92,0-5.21"/><path id="path163" d="M173.19,42.78a4.29,4.29,0,0,1-2.61-2.08,9.51,9.51,0,0,1,2.61,2.08"/><path id="path165" d="M268.61,41.74c-3,1-7.23,1-10.43,3.65,1-2.73,8.79-5.36,10.43-3.65"/><path id="path167" class="cls-1" d="M197.18,44.87c.18-1.22.35-2.44.52-3.65-.26,1.2-.36,2.44-.52,3.65"/><path id="path169" d="M136.69,43.3c-.11-.33-.3.46.52,1.05-.52-.18-.69,0-.52.52a11.88,11.88,0,0,1-3.13-2.61c1.7-1.31,2.19-.28,3.13,1"/><path id="path171" d="M296.77,47c-2-.93-3.4-3-2.61-5.21A22.1,22.1,0,0,0,296.77,47"/><path id="path173" d="M298.85,48.52c-1.48-2.23-3.28-4-3.13-6.78q1.57,3.39,3.13,6.78"/><path id="path175" d="M270.7,43.82c-2.56.25-6.73.08-9.91,2.61,1.09-2.64,7.71-4.89,9.91-2.61"/><path id="path177" class="cls-1" d="M250.88,46.43c.68-1,1.39-2.08,2.09-3.13a25.07,25.07,0,0,1-2.09,3.13"/><path id="path179" d="M299.9,45.39c.35.92.71,1.81,1,2.61a5.24,5.24,0,0,1-2.08-4.18c.61.39.5.73,1.05,1.57"/><path id="path181" d="M88.72,44.35c-1.48,2.1-3,3.7-3.13,6.25a22.9,22.9,0,0,1,2.61-3.13,18.78,18.78,0,0,0-2.61,5.22l1.57-1.56a9.06,9.06,0,0,1-2.09,3.65c-1.34-3.84-.69-8.43,3.65-10.43"/><path id="path183" class="cls-1" d="M183.1,50.6a11.89,11.89,0,0,1-1-6.25,12.09,12.09,0,0,1,1,6.25"/><path id="path185" d="M271.74,45.91a12.66,12.66,0,0,1-3.65,0c1.71-1.27,2.18-.51,3.65,0"/><path id="path187" d="M85.07,45.39a8.81,8.81,0,0,0-1.56,5.21,4.22,4.22,0,0,1,1.56-5.21"/><path id="path189" d="M306.67,50.6c-1.69-.5-2.55-2-2.61-4.17a12.24,12.24,0,0,1,2.61,4.17"/><path id="path191" d="M303,48.52c.81,1.55-1-2.1-1-2.09a19.28,19.28,0,0,1,1,2.09"/><path id="path193" d="M215.43,47a36.15,36.15,0,0,0-5.21,5.74c1.08-1.32,2.49-2.39,3.64-3.65C212,52.66,208,55.19,206,59l1.57-.52c-2,1.49-4.13,3.48-4.69,6.78l2.08-1v1c-2.3.13-3.4,2.62-4.17,4.69,2.19-2.42,4.73-5.15,7.82-6.26a21.18,21.18,0,0,0-10.43,15.13c1.73-2.14,2.53-3.74,4.17-5.22a61.3,61.3,0,0,0-4.69,7.82c-.85,1.72-.19,5.7-1,6.78-1.56,2,.72-9.43,1-11-4.1,2.68-2.6,9.84-5.73,13,.52-4.74,2.57-9.54,4.17-14.08h-1c-.57,3.1-3.19,5.44-3.13,8.86-3.18-2.77,6.23-13.51,7.82-17.21C197.16,69,193,75.42,193,76.68c0-1.48.55-1.81,1-3.13l-1,.52c2-4.15,3.8-9.6,7.82-11.47-3.7,3.35-5.31,6.79-6.78,10.95,4.48-5.67,8.58-10.53,12.52-16.69,2.11-3.28,4.27-8.29,8.88-9.91"/><path id="path195" d="M256.62,47a20.31,20.31,0,0,1-3.13,3.65c-.17-.34-.35-.69-.52-1A18.51,18.51,0,0,1,256.62,47"/><path id="path197" d="M309.28,49.56c-1.52-.33-2.89-.16-2.09-2.61.7.87,1.42,1.72,2.09,2.61"/><path id="path199" d="M193.53,51.13c-1.45,4.92-4.22,13.58-9.39,15.64,3.81-4.87,7.75-13.39,7.3-18.77a25.07,25.07,0,0,1,2.09,3.13"/><path id="path201" d="M165.37,52.17c-.68-.6-.91-1.21-.52-3.13h1c-.17,1-.41,2.08-.52,3.13"/><path id="path203" d="M123.14,52.69c.21-1.28,0-2.15,1-2.61a6.21,6.21,0,0,0,1.57,3.65c-.07-1,.12-2.1,0-3.13.27,1.07.77,2.07,1,3.13v-2.6h1a5,5,0,0,0,2.09,5.21,5,5,0,0,1-.52-5.21c0,2.53,1.52,4.2,1.56,6.77l-1.56-.52.52,1c-2,.23-13.11,1.93-6.26-1a15.84,15.84,0,0,0-3.65-1c-.65,7.49-5.38-.78.52-2.61L120,54.78a7.56,7.56,0,0,0,.52-3.65c.35.34.7.69,1,1V49.56a8.65,8.65,0,0,1,1.58,3.13"/><path id="path205" d="M165.89,55.3a36,36,0,0,0,1-5.74,6.74,6.74,0,0,1-1,5.74"/><path id="path207" d="M198.22,50.08c-1,2.44-2.09,4.87-3.13,7.3h1c.36-.59.61-1.42,1.05-2.08-.81,2.37-2,5.26-3.65,6.25.76-3.85,2.57-9.9,4.7-11.47"/><path id="path209" d="M244.62,50.08c-1.23,2.67-2.47,5.31-4.69,7.3,2-2,3.71-6.7,4.69-7.3"/><path id="path211" d="M114.27,51.65a24.7,24.7,0,0,1,3.65-1c-2.84,1.28-6.24,4.39-5.74,7.3a6.31,6.31,0,0,1,4.7-4.69c-2.14,1.23-5.07,3.94-2.61,5.22-.18.52-.35,1-.52,1.56-1.33-1.08-7.5,1.66-6.78,3.65.72-.49.39-.62,1.56-1v1a11.76,11.76,0,0,0-3.13,2.61,14.53,14.53,0,0,1,3.13-1c-2.14,3.33-2.76,2.57-3.65.52.15.34,1-3.47,1-3.65a14.09,14.09,0,0,1-1.56-3.65c.43,1,1.18,2.11,1.56,3.13-.15-2.33-.38-4.88,1-6.26a34.13,34.13,0,0,0,0,4.17c.82-2.52,1.11-5.14,2.6-7.3a12.67,12.67,0,0,0-1,7.3c.71-5,3-7,6.26-9.39-.16.52-.34,1.05-.51,1.57"/><path id="path213" class="cls-1" d="M149.21,54.78c-1,.94-.79,1.54-2.09,1.56a17.73,17.73,0,0,0,3.65-6.26,10.5,10.5,0,0,1-1.56,4.7"/><path id="path215" d="M313.45,54.25a34.1,34.1,0,0,1-3.13-3.12c2-.42,3.08.78,3.13,3.12"/><path id="path217" d="M243.58,56.34l2.61-5.21a6.66,6.66,0,0,1-2.61,5.21"/><path id="path219" d="M166.94,59.47a35.78,35.78,0,0,1,1.56-7.82c-.09,2.74-1,5.11-1.56,7.82"/><path id="path221" d="M132.52,55.3V53.21c.56,1.28,2,2.31,2.61,3.13v-1c1.65.19,4.85.36,6.25,2.08-1.08-.38-2-.56-3.12-1-.32,1,.05.87,0,1.57-1.44-1-2.59-.78-4.7,0a.84.84,0,0,1,.52-1c-2.42.62-3.64-1.84-3.12-4.69a12.56,12.56,0,0,0,1.56,3.13"/><path id="path223" class="cls-1" d="M110.1,57.9a9.79,9.79,0,0,1,2.61-5.73c-.54,1.83-1.14,4.23-2.61,5.73"/><path id="path225" d="M241,53.73A54,54,0,0,1,235.24,60c1.35-2.25,3.76-4.28,5.74-6.26"/><path id="path227" class="cls-1" d="M150.77,54.78h0"/><path id="path229" d="M83.51,56.86A8,8,0,0,1,84,54.25c-.18.87-.35,1.74-.52,2.61"/><path id="path231" class="cls-1" d="M128.35,56.86c-1.13,1.34-4.48-1.68-7.3-1.56a5.6,5.6,0,0,1,7.3,1.56"/><path id="path233" d="M116.36,59c-1.85-.54-1.76-2.2-.52-4.17-1.25,2.5-.16,2.78.52,4.17"/><path id="path235" d="M143,56.34a22.5,22.5,0,0,1-3.13-1c1.8-.44,2.21.47,3.13,1"/><path id="path237" d="M249.32,54.78c-1,2.52-1.67,5.07-3.13,7.3.87-2.43,1.69-5.7,3.13-7.3"/><path id="path239" d="M169,61c-2,.23.27-3.14,1.57-4.69-.47,1.43-.94,3.11-1.56,4.69"/><path id="path241" d="M243.06,66.77c-1.71-2.34-1.71-5.2-1-7.82.47,2.64.46,5.24,1,7.82"/><path id="path243" d="M129.39,62.08c.76,1.33.13,3-1.56,4.17.78.44.5,0,1,.52a14.15,14.15,0,0,1-3.65,1,9.48,9.48,0,0,1,2.09-1l-1.57-.52a6.52,6.52,0,0,0,2.09-2.09h-1a8.57,8.57,0,0,0-1-2.6c1.88-1.75,4.35-3.38,3.63.52"/><path id="path245" d="M248.28,65.21c-1.93-.93-.87-3.77.52-5.74a37.69,37.69,0,0,0-.52,5.74"/><path id="path247" d="M246.19,72c-2.61-3.45-2.09-7.88-2.09-12,.67,4,1.47,8,2.09,12"/><path id="path249" d="M124.18,62.6c-.94,1.16-.25,2.55-2.09,1.56,0,2.3.23.75-1.56,2.61a11.54,11.54,0,0,1-1,2.61,11,11,0,0,1-1-2.61,10.72,10.72,0,0,1,2.09-1c-.09-.52-1-1.21-1-1.57l1-.52A10.63,10.63,0,0,1,119,61.56a16.53,16.53,0,0,1,5.2,1"/><path id="path251" d="M104.88,63.12c.73.78-1.3-.7-1.56-1a.82.82,0,0,1,1-.52,2.47,2.47,0,0,0,.52,1.56"/><path id="path253" d="M137.73,65.73c-.55,1.49-1,3.29-1.56,4.69a25.64,25.64,0,0,0,2.6-2.61c-.78,1.67-1.45,4.1-2.08,5.22.17-.82.35-1.32.52-2.09-.38.74-1.54,2.4-2.09,3.65.18-.52,0-.69-.52-.52a12.39,12.39,0,0,0,.52-2.08A8.75,8.75,0,0,1,132,75.64c.28-.6.79-1.43,1-2.09-2.36,2.83-6,1.66-7.82,4.17l3.12-3.13c-.82-.38-.51-.07-1-.52a21.23,21.23,0,0,0,3.65-2.6c-.2.8-.28,1.33-.52,2.08A24.63,24.63,0,0,0,133,70.94c-.16.7-.3,1.37-.52,2.09.52-1,1.44-1.82,2.08-3.13l.52,1.56c.76-1.93,1.16-4.47,2.59-5.73"/><path id="path255" d="M143,67.81c1.07-1.28.64-2.24,2.61-2.08-.87.69-1.75,1.38-2.61,2.08"/><path id="path257" class="cls-1" d="M201.35,65.73c-.48.78-.34,1.4-1,2.08.17-.52,0-.69-.52-.52,1-.25,1.05-.74,1.56-1.56"/><path id="path259" d="M141.38,66.77l-1.56,2.09c0-1.41.89-1.43,1.56-2.09"/><path id="path261" d="M298.85,67.29a13.91,13.91,0,0,0-2.61,3.13c.43-2,1.5-2.3,2.61-3.13"/><path id="path263" d="M305.63,69.38a50.22,50.22,0,0,0-.52,5.21,23,23,0,0,0,1.56-3.65c1.35,1.34.81,3.22,0,5.22-.37.34-.95.16-.52,2.08a32.34,32.34,0,0,0,3.13-3.65l-2.61,5.22c.77-.65,2.28-1.4,3.13-2.09-4.09,3.58-4.1,10.12-4.69,15.13h-1c.05-2.19.82-4.52.52-6.26A18.18,18.18,0,0,0,303,90.76a38.33,38.33,0,0,0,.53-6.26c-.46,1.07-1.16,2-1.57,3.13a33.13,33.13,0,0,1,1.57-6.78A17.89,17.89,0,0,0,302,82.42c-.11-2.12,2.55-4.63,3.13-7.3-1.38,2.44-4.11,4.24-5.73,5.73a53,53,0,0,0,3.12-8.34c-1.31.89-1.24.35-3.12,1,2.24-1,2.42-3.78,2.6-5.21-.1,2,.41,2.44,1,3.65,0-1.21.13-2.46,0-3.65.78,1.85.53,4.06.53,6.25a7.77,7.77,0,0,0,.52-6.78h1c-.26,1,.36,1.23.52,1.57"/><path id="path265" d="M150.77,74.59c1.48-2.32,3.15-4.5,4.69-6.78a10.72,10.72,0,0,1-4.69,6.78"/><path id="path267" d="M296.25,67.81c-.56,1.46-1.53,2-1.56,3.65h-1.05a3.79,3.79,0,0,1,2.6-3.65"/><path id="path269" d="M300.94,71.46l-2.61,1.05c1.92-1.5,3.12-3.51,0-2.09a5.3,5.3,0,0,1,1.57-2.09A5.65,5.65,0,0,1,301,71.46"/><path id="path271" class="cls-1" d="M158.07,72c.83-1.08,1.74-2.09,2.61-3.13-.56,1.6-1.64,2.11-2.61,3.13"/><path id="path273" class="cls-1" d="M197.18,75.64c.4-2.62,1.32-5,3.65-6.26a36.82,36.82,0,0,1-3.65,6.26"/><path id="path275" d="M106.45,70.42c-.24,0-.94.9-1.56-.52,1.33-.89,1.07.42,1.56.52"/><path id="path277" d="M138.78,71.46V69.9h1l-1,1.56"/><path id="path279" d="M243.06,72c.45,1,1.23.83,1,2.08-1.35-1.24-1.53-1.54-1.56-3.65,1.87.3.36.87.52,1.57"/><path id="path281" d="M160.16,73.55c.34-1.19-.25-1.73,1-2.61-.27.89-.68,1.65-1,2.61"/><path id="path283" d="M121.05,70.94a14.56,14.56,0,0,0-4.69,3.13c2.11,1.14,1-.09,2.08,2.09l1.57-.52a32,32,0,0,0-4.17,4.69V78.76c-1.14.74-2.66,1.18-3.65,2.09,1-1.22,2.41-2.78,3.65-4.17-2,.78-3.33,2-5.22,1.56a7.91,7.91,0,0,1,4.17-4.17c-1.3.41-2.88.59-4.17,1,3-1.85,7.58-3.07,10.43-4.17"/><path id="path285" d="M219.6,70.94c-1.57,1.93-4.86,4.78-3.65,5.74a10.3,10.3,0,0,0-2.08,5.74c-.18-1.17-.83-1.55,0-3.66-2.47,1.15-4.84,6.61-4.18,8.87-1.56-.91-1.86-2.67-1-4.69-1.2,2.56-1.59,5.38,0,7.82-5.62-3,1.82-12.15,2.61-16.17-.25,3.28-2.1,6.6-1.57,9.39,1.44-3.58,3-7,4.7-10.43a25.72,25.72,0,0,0-1,4.17c1.63-2.21,4.35-4.14,6.25-6.78"/><path id="path287" d="M223.25,71.46a15,15,0,0,1-3.13,3.13c.43-1.91,1.63-2.45,3.13-3.13"/><path id="path289" d="M128.87,71.46c-.7.71-.38,1.42-1.56,1.57.15-1.19.86-.86,1.56-1.57"/><path id="path291" d="M151.29,71.46c-.89,1.11-.23,2.21-2.09,2.09.46-1.11,1.2-1.22,2.09-2.09"/><path id="path293" d="M113.75,72c-.58.52.25,1.14-1,1.56-1.31-1.72.32-.91,1-1.56"/><path id="path295" d="M248.8,77.2a27.16,27.16,0,0,1-.52-4.17,9.9,9.9,0,0,1,.52,4.17"/><path id="path297" d="M219.08,73.55a9.53,9.53,0,0,1-2.61,5.21,9.6,9.6,0,0,1,2.61-5.21"/><path id="path299" d="M80.38,74.59c1.11-.26,1.84-.75,3.13-.52l-3.13.52"/><path id="path301" d="M339.52,81.37c-1.47-2.16-2.23-4.88-3.13-7.3a18.27,18.27,0,0,1,3.13,7.3"/><path id="path303" d="M344.74,89.72c-2.2-5.13-4.56-10.17-5.73-15.65,1.85,5.21,4.73,10.18,5.73,15.65"/><path id="path305" d="M143.47,78.76c.09,1,.2,1.75-.52,2.09a11.6,11.6,0,0,1,0-1.56,17.15,17.15,0,0,1-2.61,4.17,10.29,10.29,0,0,0,0-1.57c-1,1.29-2.1,2-3.13,3.13,1.27-2.89,2.91-5.43,4.17-7.82l1.05,1c.39-1.22,1.35-2.39,1.56-3.65a19.11,19.11,0,0,1-.51,4.17"/><path id="path307" class="cls-1" d="M172.15,78.76c.31-1.39.7-2.78,1-4.17a10.9,10.9,0,0,1-1,4.17"/><path id="path309" class="cls-1" d="M115.84,75.11a18.25,18.25,0,0,1-4.17,2.61c1-1.36,2.32-1.85,4.17-2.61"/><path id="path311" d="M81.94,75.64l-2.6,1c.85-1,1.53-.74,2.6-1"/><path id="path313" class="cls-1" d="M302,77.72c.18-.69-.3-1.55,1-2.08-.34.69-.69,1.39-1,2.08"/><path id="path315" d="M164.33,76.68a2.32,2.32,0,0,1-2.09-.52c1.37-1,1.34.15,2.09.52"/><path id="path317" class="cls-1" d="M166.94,85.54c.93-3,2.94-6.26,1.56-9.38,1.37,3-.18,6.6-1.56,9.38"/><path id="path319" class="cls-1" d="M117.92,76.16c-.85,1.12-.52,2.38-2.09,1.56.56-.81,1.55-1.1,2.09-1.56"/><path id="path321" d="M108.54,78.76c-.84-.73-1.74-1.39-2.61-2.08a8.87,8.87,0,0,1,2.61,2.08"/><path id="path323" d="M101.24,79.81c-.76-1.19-1.46-1.77-1.56-3.13,1,1,1.13,2,1.56,3.13"/><path id="path325" d="M186.75,82.42a4.61,4.61,0,0,0-2.09.52c1-2.08,1.46-4.49,3.65-5.22-1.08,1.55-1.17,3-1.56,4.7"/><path id="path327" d="M207.08,77.72c-1.69,4.89-2.1,12.87-1,16.17l-1,1a68.58,68.58,0,0,1-.52-10.43c.18.7.35,1.39.52,2.09.95-2.89.56-6.31,2.08-8.87"/><path id="path329" d="M336.92,79.81c-.73-.82-2-.65-1-2.09.34.7.69,1.39,1,2.09"/><path id="path331" class="cls-1" d="M304.59,80.33c.3-1.07,0-1.76,1-2.61l-1,2.61"/><path id="path333" d="M103.32,80.33c-.63-.9-1.27-.22-1-1.57.85.21.55.88,1,1.57"/><path id="path335" d="M116.36,81.89c.55-1.15.71-2.24,2.08-3.12-.62.93-1.4,2.26-2.08,3.12"/><path id="path337" d="M311.37,79.81c-3.13,1.9-3.07,6.58-4.69,9.39-.6-2.86,1.59-9.71,4.69-9.39"/><path id="path339" d="M83.51,80.33c-1.57.23-3.14.2-4.7.52,1.63-1.24,2.94-1,4.7-.52"/><path id="path341" class="cls-1" d="M305.11,82.42a13.66,13.66,0,0,1,1.56-2.61c-.52.87-1.06,1.72-1.56,2.61"/><path id="path343" d="M82.46,80.85c-.62.24-1.94,1.4-3.13,1.57a11.53,11.53,0,0,1,1.57,1c-.59-.07-1.8-.4-2.61-.52a7.09,7.09,0,0,1,4.17-2.09"/><path id="path345" d="M138.26,81.37c-1.77,1.79-3.27,3.34-5.21,3.65,1.2-.86,3.93-2.23,5.21-3.65"/><path id="path347" d="M310.84,87.63c-1.11-2.07-.79-4.17.52-6.26a39.46,39.46,0,0,0-.52,6.26"/><path id="path349" d="M177.88,81.37c-4.61,4.72-2.44,13.82-5.73,19.3,1.54.91.47-.44.52,1a16,16,0,0,1,1.56-1c-1.65,4.62-3.4,9.14-5.33,13.65-1.5,3.5-5.84,4.69-8.75,7.21.82.63.84,1.32,1.57,2.08-2.71.24-5.67.18-7.83-1.56,2.62.29,4.76,1.59,7.3.52-4.9-1.6,3.1-4.93,5.22-6.52,4.59-3.44,3.68-10.18,6.78-14.34-3.86,1.79-1.2-.5-1.57-2.09,0,.09,0-5.36,0-4.69,0-3.84,1.43-10.31,4.17-13a18.42,18.42,0,0,0-1.56,6.26,54.64,54.64,0,0,1,3.68-6.79"/><path id="path351" d="M92.89,83.46c-.58-.19-1.53.68-1.56-1.57.93.4.86,1.08,1.56,1.57"/><path id="path353" d="M99.67,84.5a2.38,2.38,0,0,1-2.09-1.56c1,.25,1.24,1,2.09,1.56"/><path id="path355" d="M97.58,84.5c-.78-.21-2,.56-1.56-1.56.37.87.77,1.06,1.56,1.56"/><path id="path357" d="M243.06,89.19c-.58-1.89-.42-4.16-1-6.25a11.89,11.89,0,0,1,1,6.25"/><path id="path361" d="M312.93,86.07c-.46-1.29-1.16-1.73-.52-3.13.74,1.06.39,1.8.52,3.13"/><path id="path363" d="M316.06,85.54c-.42-1.21-1.66-1.1-.52-2.6.44.84.2,1.7.52,2.6"/><path id="path365" d="M183.1,84c-1.13,1.37-2,2.43-2.09,4.17.91-1.17,2.34-2.26,3.13-3.13a41.1,41.1,0,0,0-5.21,13c-1.85-1.42-.17-3.81,0-6.26-1.13,1.67-1,4.67-2.09,6.78-2.2-3,2.76-13.43,6.25-14.6"/><path id="path367" d="M101.76,85.54c.24.29-.94-.29-1-1.56,1.31.42.47.89,1,1.56"/><path id="path369" d="M200.3,84c-.24.94-.73,2.19-1,3.13l-1-.52A5.29,5.29,0,0,1,200.29,84"/><path id="path371" class="cls-1" d="M168,86.59c.35-.7.7-1.39,1-2.09a4.38,4.38,0,0,1-1,2.09"/><path id="path373" d="M109.58,86.59c-1.62-.61-2.1-1.54-3.65-1v-1a4,4,0,0,1,3.65,2.09"/><path id="path375" d="M319.71,88.15c-.9-1.12-1.93-1.23-1.56-3.13a7.34,7.34,0,0,1,1.56,3.13"/><path id="path377" d="M321.8,87.63a2.16,2.16,0,0,1-1-2.09c1.32.38.57,1.11,1,2.09"/><path id="path379" class="cls-1" d="M166.41,86.07c-.83,1.24-1.74,2.43-2.61,3.65.19-2.2,1.14-2.73,2.61-3.65"/><path id="path381" d="M109.58,88.15c-.25.63.5,1.12-.52,1a10.57,10.57,0,0,0-3.13-2.6c1.57,0,2.38.78,3.65,1.56"/><path id="path383" d="M85.07,88.15c-.32,0-1,.88-1.56-1.56,1,.41.86.93,1.56,1.56"/><path id="path385" d="M103.32,88.67l-2.09-2.08a8.42,8.42,0,0,1,2.09,2.08"/><path id="path387" d="M228.46,93.37q-1-3.14-2.09-6.26c1.77,1.85,1.88,3.83,2.09,6.26"/><path id="path389" d="M87.16,88.67c-.07,0-1.1.62-1-1.56a3.14,3.14,0,0,0,1,1.56"/><path id="path391" d="M156.51,93.89c1.74-2.07,4.64-3.93,5.73-6.78-1.14,2.86-2.66,5.72-5.73,6.78"/><path id="path393" d="M115.84,90.76c-.64-.74-1.4-1.4-2.09-2.09,1.78-.11,1.27.92,2.08,2.09"/><path id="path395" class="cls-1" d="M180.49,88.15l-1.56,3.65,1.56-3.65"/><path id="path397" d="M107,90.76a6.55,6.55,0,0,1,3.13,4.69c-.58-1-1.46-2.1-2.09-3.13l-1,1.05c1.64,1.09,1.29,2,2.09,3.65h-1c-.08-1.66-.62-1.69-1-2.61-.23,2.51.26,5-.52,7.3-.45-2.45-.59-2.52-2.09-3.13-.17-.87-.34-1.74-.52-2.6l2.09,1.56c0-3.1,1.39-5.8.52-8.87,1.55.91.5,1.19.51,2.09"/><path id="path399" d="M104.88,94.93c-.56-1.27-.52-3.68-.52-5.74a5.93,5.93,0,0,1,.52,5.74"/><path id="path401" d="M229.5,94.93c.38.38,1.54-.63,1.56,1.57a10.73,10.73,0,0,0,1.05-5.22c0,3.78-1.46,9.09,0,12.52.72-3.48,1.14-6,2.08-9.39-.48,6.2-.09,14.29-2.6,19.3.34-2.44.69-4.87,1-7.31-.7,1.5-1.48,2.56-2.09,3.65a13.59,13.59,0,0,0,.53-5.73c-.34.69-.74,1.28-1,2.08.42-4.26.81-7,0-11.47a10.85,10.85,0,0,0,0,6.26c-.44,0-1.06,0-1.56,0,.31-3.75,1.61-8.34.52-12a12.41,12.41,0,0,1,.53,5.73"/><path id="path403" d="M103.32,93.37c-.41-1.37-.7-2.79-1-4.17,1,1.46.94,2.54,1,4.17"/><path id="path405" d="M108.54,89.19c1.13,1.38,2,2.44,2.08,4.18a4.45,4.45,0,0,1-2.08-4.18"/><path id="path407" d="M333.79,94.41c0-.65.84-.68,0-1.56A11.59,11.59,0,0,1,339,99.63V97c1.64,2.9,1.24,6.18,1.05,9.38a20.79,20.79,0,0,1-1.57-5.21l-1,1.56a19.28,19.28,0,0,0,0-4.17,24.81,24.81,0,0,1-2.09,3.13c.26-1,.3-2.13.53-3.13-.54.45-1.13.74-1.57,1a6,6,0,0,0-1-5.22,25.59,25.59,0,0,1,.52,2.61c-1.35-2.64-2.92-5.12-4.17-7.82a28.54,28.54,0,0,1,4.17,5.21"/><path id="path409" d="M182.58,90.76A20.73,20.73,0,0,0,181,97.54c-1.14-2.38-.48-5.9,1.56-6.78"/><path id="path411" d="M330.66,94.41a18.1,18.1,0,0,1-2.61-3.65c2.24.29,2.25,1.66,2.61,3.65"/><path id="path413" d="M204,94.41c-1.06-1.1-2.08-1.5-1.56-3.65.51,1.21,1.15,2.4,1.56,3.65"/><path id="path415" d="M96.54,92.32a22.19,22.19,0,0,1-2.08-1.56c1.3.11,1.43.9,2.08,1.56"/><path id="path417" d="M99.15,94.41a8.18,8.18,0,0,1-2.09-3.65,6.7,6.7,0,0,1,2.09,3.65"/><path id="path419" d="M239.41,109c1.59-5.6,1.87-11.84,2.61-17.73.16,5.66.2,12.67-2.61,17.73"/><path id="path421" class="cls-1" d="M163.8,92.32c-.89,1.1-1.29,1.94-2.61,2.61a9.65,9.65,0,0,1,2.61-2.61"/><path id="path423" d="M100.71,96.5c.28-1.37,1.56-1.35.52-3.13a18.16,18.16,0,0,1,1,3.65,3.74,3.74,0,0,0,1-1c-.4,5.82-4.17-.61-4.18-3.65,1.57,1.21,1.53,2.35,1.58,4.18"/><path id="path425" d="M129.39,95.45c-.77-1-2.15-.91-1-2.6.35.86.69,1.73,1,2.6"/><path id="path427" d="M160.16,92.85a86.86,86.86,0,0,0-7.3,6.25c.94-2.35,4.8-5.35,7.3-6.25"/><path id="path429" d="M304.59,100.67c2,.78.7,4.85.52,7.3,1.15-3.69,1.86-7.67,3.13-11.47.16,2.44-5.44,21.42-1.56,20.86-2.67-1.29,1-11.92,1.56-15.65.19,3.67-1.23,8.9-.52,11.48a15.35,15.35,0,0,1,3.13-6.26c-.49,1.07-.63,2.58-1.05,3.65a.83.83,0,0,1,1.05-.52c-1.87,8.81-2.64,15-4.7,23.47a12.53,12.53,0,0,0,2.61-5.74c.47,2.92-.92,5.49-2.61,7.82a14.91,14.91,0,0,1-2.08-1,23.94,23.94,0,0,0,2.61-8.87c-1.28,2.62-1.84,5.46-3.65,7.83-.43-.37-1.44-1.4-1.57-1.57,1.32-2.73,2.28-5.29,2.09-8.34a64.07,64.07,0,0,1-3.13,6.26c.27-2.11,1-4,1-5.74a4.6,4.6,0,0,1-2.6,4.17c1-2.5,2.89-5.77,2.08-8.86a12.23,12.23,0,0,1-2.08,4.69c2.29-7.67,1.09-14.47,2.6-21.9-.27,5,.52,10.09.52,15.12,1.17-5.11,3.38-16.45,1-23.47a21.09,21.09,0,0,1,1.55,6.79"/><path id="path431" d="M227.94,98.06c-.84-1.53-1.57-2.67-1-4.17a21.56,21.56,0,0,1,1,4.17"/><path id="path433" d="M305.11,97c.22-1.33-.08-2.09,1-3.13-.29,1.09-.72,2.17-1,3.13"/><path id="path435" d="M302.5,100.15a9.27,9.27,0,0,1-1-5.74q.53,2.86,1,5.74"/><path id="path437" d="M202.39,96c-.74-.57-1.63.11-1.56-1.56.87.32,1.09,1.2,1.56,1.56"/><path id="path439" d="M249.84,100.67c-2.06.07-1-3.6,0-5.74v5.74"/><path id="path441" d="M95.5,97.54A4.14,4.14,0,0,1,95,94.93a6.54,6.54,0,0,1,.52,2.61"/><path id="path443" class="cls-1" d="M336.4,97.54c-.35-.69-1.26-1-1-2.61,1.29.88.7,1.42,1,2.61"/><path id="path445" d="M88.72,97.54s-.6,1.06-2.08-1a18.33,18.33,0,0,1,2.08,1"/><path id="path447" d="M120,96.5a22.46,22.46,0,0,0-1.56,4.17A11.09,11.09,0,0,1,120,96.49"/><path id="path449" class="cls-1" d="M128.35,101.19a11.51,11.51,0,0,1-2.08-4.69,11,11,0,0,1,2.09,4.69"/><path id="path451" d="M91.85,99.63c.17-.53.35-1,.52-1.57.35.87.7,1.74,1,2.61.85.1.59-1,.53-1a4.72,4.72,0,0,1,.52,2.6c-2.61-1.28-4-3.52-5.74-5.73,2.11.08,2.3,1.2,3.13,3.13"/><path id="path453" d="M98.63,99.1c-.15-.66-1-1.24,0-2.08a10.33,10.33,0,0,0,0,2.08"/><path id="path455" class="cls-1" d="M126.26,100.15a41,41,0,0,1,2.09,3.65c-2.5-1.33-3.31-4.1-3.65-6.78,1.25.79,1.11,1.52,1.57,3.13"/><path id="path457" d="M185.18,103.28c-.43.56.65,1.13-.52,1-.72-2.5,1.51-4.79,2.6-7.3-.51,2-1.61,4.13-2.09,6.26"/><path id="path459" class="cls-1" d="M373.42,146.56c-1.13.36-1.6.95-2.61,0A9,9,0,0,0,372.9,145l-2.61-.53a10.75,10.75,0,0,1,2.09-1.56c-3.53-.15-3-2.2-1.56-4.69-2.39,1.07-2-.06-1.05-1.57-.35-.69-.69-.69-1,0-1.37-1.87-.9-4.84-.52-6.26-1.49,1.35-.2.18-1.56.53,1.87-1.61.87-.93,1-2.61l-1,1c.17-.76-.11-2.83,0-3.65l-1,1.56a29,29,0,0,0,.52-5.21c-2.48,1.93-4.39-.49-3.13-2.61-1.83-1-1.58-1.24-1-3.65-.85.1-1.76-.14-2.6,0,.51-.81.66-1.37,1-2.08-.66-.16-1.3.55-1.57.52.3-.61.75-1.46,1.05-2.09a19,19,0,0,0-2.09.52c.44-.6.44-1.42,1-2.08a6.41,6.41,0,0,1-2.6.52,9.17,9.17,0,0,0,1.56-2.09,15.52,15.52,0,0,1-2.08,1c.7-1,1.06-1.79,1.56-2.6-.64.5-1.47,1-2.09,1.56a12.61,12.61,0,0,0,1.05-3.13c-3,2.66-3.82-6.3-4.18-8.86,13.4,12.25,17.49,32.71,21.38,49.55"/><path id="path461" class="cls-1" d="M124.7,101.19c-1.1-1.19-2.19-1.6-1-3.65a34.29,34.29,0,0,1,1,3.65"/><path id="path463" d="M188.83,98.06c-1.09,3-2.24,5.93-3.13,8.87,1.17-2,1.92-3.93,3.13-5.74-.23,2.68-2.24,4.46-2.09,7.3a11.37,11.37,0,0,1,2.61-4.69c-1.56,3.28-3,8.06-1,11.47l-1.05.52c.18-.52,0-.69-.52-.52-3.4-4.53-.51-13.49,2.08-17.21"/><path id="path465" d="M299.38,101.19c.22-1.14-.24-1.65.52-2.61.23,1.14-.36,1.76-.52,2.61"/><path id="path467" d="M100.19,98.58c-.22,1.33.08,2.09-1,3.13-.28-1.58.51-1.92,1-3.13"/><path id="path469" d="M151.81,98.58c-1.79,1.09-3.69,1.16-5.74,1.57,1.22.13,2.43.41,3.65.52-2.34.16-4.75.19-6.25-1,2.75.59,5.38-1,8.34-1"/><path id="path471" d="M101.24,102.75a3.93,3.93,0,0,1,0-3.65c.64,1.29.3,2.17,0,3.65"/><path id="path473" d="M105.41,99.63c-.83,1,.18,2.05-2.08,2.08.28.38.68.61,1,1a7.81,7.81,0,0,0-3.65,4.7c-.46-3.71,2.79-4,2.61-7.3,1.44,1.08.82-.26,2.09-.52"/><path id="path475" d="M343.7,102.75a2.86,2.86,0,0,1-1.56-3.13,5.12,5.12,0,0,1,1.56,3.13"/><path id="path477" d="M175.28,106.4a20.71,20.71,0,0,0,1,8.87c.16-3.58-1.62-8,1.05-10.43-1.38,3.81-.33,9.79,2.08,13a.83.83,0,0,1-1,.53,14.64,14.64,0,0,0-1-2.61c-.67,1-1.35,1.06-2.09,2.08.41-5.91-2.52-11.84,1-18.25-.23,2.29-.91,4.45-1,6.77"/><path id="path479" class="cls-1" d="M124.18,104.84c-1.26-1.08-2-3.17-2.09-5.21q1,2.63,2.09,5.21"/><path id="path481" d="M76.73,102.23c-1.45-.73-2.07-1.29-4.17-.52,1.43-1.56,3-1.4,4.17.52"/><path id="path483" class="cls-1" d="M303.55,106.93c.17-2.09.35-4.17.52-6.26,1,1.91.46,4.2-.52,6.26"/><path id="path485" class="cls-1" d="M165.37,102.75c.35-.69.7-1.39,1-2.09a3.35,3.35,0,0,1-1,2.09"/><path id="path487" d="M178.93,100.67c-2.17,5.78,1.4,12.3,2.61,17.73-2.92-1.82-5.75-15.79-2.61-17.73"/><path id="path489" class="cls-1" d="M135.13,104.32c-1.55-.92-2.8-1.88-4.69-2.08v-1a14.37,14.37,0,0,1,4.69,3.12"/><path id="path491" class="cls-1" d="M121.57,103.28c-.47-.81-1.8-.63-.52-2.09a4.1,4.1,0,0,0,.52,2.09"/><path id="path493" class="cls-1" d="M140.34,103.28c-1.63-.4-2.79-.42-3.65-2.09,1.21.69,2.49,1.32,3.65,2.09"/><path id="path495" d="M244.62,113.18c-1.35-3.43,1.25-8.23,2.61-11.47-.65,3.9-2.12,7.62-2.61,11.47"/><path id="path497" class="cls-1" d="M127.31,105.36c-1.76-.29-2.74-1.65-3.13-3.65,1,1.22,2.13,2.4,3.13,3.65"/><path id="path499" d="M97.58,102.23c2.08,1.41,2.63,4.84,1.57,7.82.48-2.93-2.3-7.19-1.57-7.82"/><path id="path501" class="cls-1" d="M131,104.32c-1-.72-1.91-.24-2.08-2.08.67.68,1.35,1.42,2.08,2.08"/><path id="path503" class="cls-1" d="M146.6,102.75c-1.41.22-1.93,1-3.13,0,1,0,2.09.08,3.13,0"/><path id="path505" class="cls-1" d="M152.34,102.75a11.2,11.2,0,0,1-2.61,1c.84-.83,1.59-.68,2.61-1"/><path id="path507" class="cls-1" d="M159.11,106.93a19.59,19.59,0,0,1-7.82,2.61c1.47-2.79,7.31-1.9,9.91-6.26,0,1.26-.94,2.48-2.09,3.65"/><path id="path509" d="M87.16,104.32c-.08,0-1,.59-1.57-1a5.05,5.05,0,0,1,1.57,1"/><path id="path511" d="M90.29,103.8c2,1.61,3.71,1.89,3.65,5.21a12.56,12.56,0,0,1-3.65-4.17l-.53,1c-.64-.62-1.12-1.6-1.56-2.09,1.67,1.46,1.81,0,2.09,0"/><path id="path513" d="M297.29,113.18c-1.12-3,.58-6.18.52-9.39.91,2.88.11,6.41-.52,9.39"/><path id="path515" class="cls-1" d="M151.29,106.4c-1,.07-2.1,0-3.13,0a12.8,12.8,0,0,0,5.22-2.09,21.57,21.57,0,0,0-2.09,2.09"/><path id="path517" d="M98.11,108.49a10.81,10.81,0,0,1-1-3.65c1.21,1.19.86,2.08,1,3.65"/><path id="path519" class="cls-1" d="M144.51,105.88a15.24,15.24,0,0,0,5.74,1.56c-2.14,2.89-5.31-.68-6.26-2.6h1.56c-.34.36-.69.71-1,1"/><path id="path521" d="M299.9,111.1a8.15,8.15,0,0,1,0-5.74,8.51,8.51,0,0,1,0,5.74"/><path id="path523" class="cls-1" d="M157,105.88a4.55,4.55,0,0,1-3.65.52,7,7,0,0,1,3.65-.52"/><path id="path525" d="M235.76,106.4c-.8,3.81-1.27,8.2-3.65,10.95,1.1-2.81,2-10.64,3.65-10.95"/><path id="path527" d="M96.54,108.49c.69,1.15,1.21,1,1,2.61a4.5,4.5,0,0,1-2.6-5.22c.33.84,1.16,1.79,1.56,2.61"/><path id="path529" d="M108,106.93a11.72,11.72,0,0,0-7.82,4.17c.87-3.2,4.83-5.51,7.82-4.17"/><path id="path531" d="M173.19,106.93c-1.52,3.95-2.15,7.51-4.69,10.95,1.34-3.36,2.49-8.6,4.69-10.95"/><path id="path533" class="cls-1" d="M165.89,110.58c.13-1.36-.42-2.35,1.56-3.13a9.88,9.88,0,0,1-1.56,3.13"/><path id="path535" d="M189.36,112.66a14.06,14.06,0,0,1,1.56,4.17c-3.61-.59-3.24-6.41-1.56-8.86a43.35,43.35,0,0,1,0,4.7"/><path id="path537" d="M147.64,111.1c-1-.71-2-.32-2.09-2.09l2.09,2.09"/><path id="path539" d="M97.06,113.7a8.85,8.85,0,0,1-1.56-3.13c1.35,1,1.14,1.84,1.56,3.13"/><path id="path541" d="M93.93,111.62c3.34,3.11,0,7.51,1.57,10.43a5,5,0,0,1-2.09,0,25.23,25.23,0,0,0,0-2.61,29.35,29.35,0,0,0-1,4.18c1.17-3.18-.69-6.51-.52-9.91.8,1.89,1.34,4,2.08,5.73,2.66-3.75-1.38-5.55-2.6-8.86a7.25,7.25,0,0,0,2.6,1"/><path id="path543" d="M88.72,111.62l-1.56-1a6,6,0,0,1,1.56,1"/><path id="path545" d="M91.33,113.18c-.93-.8-1.74-1.74-2.61-2.61,1.9.44,1.83,1.55,2.61,2.61"/><path id="path547" d="M193.53,115.79a4.37,4.37,0,0,1-2.61-4.17,7.35,7.35,0,0,1,2.61,4.17"/><path id="path549" d="M299.38,115.79a18.89,18.89,0,0,1-.52-4.17c1.19,1.51.58,2.28.52,4.17"/><path id="path551" class="cls-1" d="M307.72,118.4c-.38-2.13.49-4.3,1-6.78a58.48,58.48,0,0,1-1,6.78"/><path id="path553" class="cls-1" d="M303.55,115.79a27.44,27.44,0,0,1-1.56,8.34c.82-2.8.34-9.11,2.6-9.38-.7.31-.89.54-1,1"/><path id="path555" d="M183.1,115.27c-1.13-.1-2,1.33-2.09-1l2.09,1"/><path id="path557" d="M205,115.79c1.12-.23,1.16,3,1.56,5.22a15,15,0,0,0-3.12-6.26l1.57,1"/><path id="path559" d="M90.81,116.31a15.35,15.35,0,0,1,0,9.39c.58.22,1,.28,1.56.52-1.66-.56-.45.69-2.08-.52.07,1.38-.1,2.79,0,4.17-1.1-4.62-1.67-9.32-6.78-11,3.37,1.45,5.82,1.67,7.3,4.69.59-2.68-.38-5-1-7.82-2.16.76.26.6-2.6-.52a3.62,3.62,0,0,1,3.65,1"/><path id="path561" d="M232.63,120a6.55,6.55,0,0,1,3.13-4.69,18.57,18.57,0,0,1-3.13,4.69"/><path id="path563" d="M343.7,120c-.23-1.2-.35-2.44-.52-3.65,1.24,1,.55,1.91.52,3.65"/><path id="path565" d="M211.26,117.36c.18,3.11,1.77,5.86,2.61,8.87l-1.05-1.57a23.24,23.24,0,0,0,.52,4.69c-2.44-2.2-2.24-7.34-3.65-10.43l1.05.53a1.89,1.89,0,0,1,.52-2.08"/><path id="path567" d="M193,121c-.45-1.15-1.71-1.21.52-2.61A5.11,5.11,0,0,1,193,121"/><path id="path569" d="M210.21,123.61c-2-.68-2.09-2.81-2.09-5.21.7,1.73,1.4,3.48,2.09,5.21"/><path id="path571" d="M166.41,118.4a15.26,15.26,0,0,1-1,2.61L164.32,120a5.82,5.82,0,0,0,2.08-1.57"/><path id="path573" d="M89.24,128.31c-.79,1-1.29-2.06-2.34-4.17A7.83,7.83,0,0,0,81.42,120c4.38.14,7.07,4.27,7.82,8.34"/><path id="path575" d="M346.82,122.05a5.42,5.42,0,0,1-.52-2.61c.6.94.33,1.59.52,2.61"/><path id="path577" class="cls-1" d="M305.11,125.7c.17-1.91.35-3.82.52-5.74a13.71,13.71,0,0,1-.52,5.74"/><path id="path579" d="M215.43,123.61c.17,1.91.35,3.82.52,5.74-1.45-2.13-2-6.37-2.61-9.39a31.14,31.14,0,0,0,2.09,3.65"/><path id="path581" class="cls-1" d="M306.67,125.18c.14-1.74.35-3.48.52-5.21a12.64,12.64,0,0,1-.52,5.22"/><path id="path583" d="M235.76,120.48a4,4,0,0,1-1.57,2.09h1.05a15.38,15.38,0,0,1-2.61,2.08,4.61,4.61,0,0,1,3.13-4.18"/><path id="path585" d="M170.06,120.48c-1,1.17-1.52,2-3.13,2.61a21.45,21.45,0,0,1,3.13-2.61"/><path id="path587" d="M177.88,125.7a25.39,25.39,0,0,1-2.09-4.17c1.73.49,1.72,2.12,2.09,4.17"/><path id="path589" d="M194.57,121.53c-.6.87.05,1.83-1.56,2.09-.44-2,.75-1.34,1.56-2.09"/><path id="path591" d="M171.63,121.53c-1.48,2.3-3.73,4-5.21,6.26a16.77,16.77,0,0,0,2.6-2.61c0,2.55-2.34,4.19-4.69,4.69l1-1a13.1,13.1,0,0,1-6.78,0c2.54-.82,5.32.36,6.78-2.08a11.39,11.39,0,0,1-4.69,0,6,6,0,0,0,5.22-2.61,2.59,2.59,0,0,1-.53,1.56c2-1,4.75-1.36,6.25-4.16"/><path id="path593" d="M85.07,125.7c2.19.48,2.75,2.27,2.09,4.69-1.54-2-2.27-4.1-4.7-5.21l.53,1c-2-1.87-5-3-7.31-1,.38-.12,2.74-1.37,3.13-1.57-2.31-.4-2.29-.91-4.69-1.56,3.75,1,8,.8,10.95,3.64"/><path id="path595" d="M156.51,124.14c-.51,0-.93,1.24-1.56-.52a4.49,4.49,0,0,0,1.56.52"/><path id="path597" d="M176.84,127.26c.63-.69.26-.91,1-1q-.25,2.86-.52,5.73a15.48,15.48,0,0,1,2.61-5.21c-1,1.79-2.65,12.07-6.26,11-.7-.22,1.49-12.08,2.09-14.08.17,1.34.74,2.29,1,3.65"/><path id="path599" d="M180.49,123.61c-.18.2-.27,1.22-.52,1.57-1.36-1.57,0-1,.52-1.57"/><path id="path601" d="M218,123.61c.48,2.7,1.35,6.59-.52,8.34a8.7,8.7,0,0,0-.52-5.73c1.25-.75.8-1.48,1-2.6"/><path id="path603" d="M286.34,129.87c0,1.26-2,5.06-3.65,6.78.95,1.9-.85,4.31-2.08,6.78-.24-1.89,1.11-4.11,2.08-6.26l-1.56.52c3.64-2.93,3.06-11.42,7.82-13-.87,1.75-1.74,3.48-2.61,5.22"/><path id="path605" d="M160.16,125.18c-1.43.25-2.24,1-3.13,0,1,0,2.08,0,3.13,0"/><path id="path607" d="M345.78,126.22c.67.26.68.75,1.56.52-1.39.56-2.27,2-3.13,2.61l1.57.52c-2.59,1.34-3.54,3.95-3.13,6.78-3.95-4.38.25-10.17,4.69-11.47l-1.55,1"/><path id="path609" class="cls-1" d="M303,131.44l1.56-4.69q-.76,2.34-1.56,4.69"/><path id="path611" d="M84.55,129.35a24.9,24.9,0,0,1-4.69-1.56c2.13-.28,3,.45,4.69,1.56"/><path id="path613" d="M169,129.35c-1.61.76-3.14,1.74-4.69,2.61a24.86,24.86,0,0,0,4.69-.52,29.55,29.55,0,0,1-5.21,1.56c.94-2.23,4.4-3.61,6.25-5.21a5.27,5.27,0,0,0-1.05,1.57"/><path id="path615" d="M220.64,127.78a36.24,36.24,0,0,1-.52,5.74,7.71,7.71,0,0,0,2.09-5.22c1.39,2.64-1,6-3.13,7.83,2.11,0,3.36-1.76,4.17-3.65.29,2.21-2.29,4.73-4.69,5.21.25-.59.74-1,1-1.56h-1c.29-.72.72-1.38,1-2.09h-1c.44-2.19.37-5,2.08-6.25"/><path id="path617" d="M287.9,133.52c-.63-2,.36-3.81,1-5.74.51,1.86-.21,3.65-1,5.74"/><path id="path619" d="M172.67,131.44A7.58,7.58,0,0,1,169,133c2.33-.95,4.22-4.19,4.17-4.7a6.64,6.64,0,0,1-.52,3.13"/><path id="path621" d="M277,130.92c-1.74-.39-1.29-1.43.52-2.61a17.47,17.47,0,0,1-.52,2.61"/><path id="path623" class="cls-1" d="M293.64,137.17a18.09,18.09,0,0,1-3.65,7.3q3.75-8,7.3-16.17c-.12,3.14-2.26,6.08-3.65,8.87"/><path id="path625" d="M86.11,135.61c-1.86-1.43-3-5.76-7.3-6.78,4.33-.54,5.7,3.56,7.3,6.78"/><path id="path627" class="cls-1" d="M295.2,128.83l-1,2.61c.35-.87.7-1.74,1-2.61"/><path id="path629" d="M299.9,129.87c-1.32,3.29-2.16,6.74-3.65,9.91,2.31-2.31,2.39-6.31,4.69-8.34a70.71,70.71,0,0,1-5.21,12c.17-.52,0-.69-.52-.52,1-2.23,1.18-2,0-3.13,1.48-2.15,3.25-11.29,4.7-9.92"/><path id="path631" d="M162.24,130.39c-1.13-.11-1.7.2-2.61-.52l2.61.52"/><path id="path633" d="M86.64,132c-.44.13-.64.91-2.09-1.56,1.48-.17,1.3.66,2.09,1.56"/><path id="path635" d="M277.48,133.52c-.22-.78-1.88-.8.52-2.61-.2,1-.28,1.67-.52,2.61"/><path id="path637" d="M336.92,140.82a8.53,8.53,0,0,0,1.56-4.69,9.19,9.19,0,0,1,0,5.73c1.81-1.34,1.53-4.22,2.61-5.73-.35,2.26-.69,4.52-1,6.78a11.18,11.18,0,0,0,1-4.7c-.28,2.78.28,5.6.52,8.35a20.13,20.13,0,0,1-1.56-3.13,13.67,13.67,0,0,0-.52,5.73,10.88,10.88,0,0,1,0-6.77c-3,2.84-1.13,7.58-4.17,10.43.43-1.27.56-2.93,1-4.18-2.47,2.82-4,6.77-5.74,9.91a52.54,52.54,0,0,0,4.18-12c-1.42,2.44-2.25,5.44-3.65,7.82-1.56-5.46,5.26-18.24,7.82-23.47-.49,3.45-2.38,6.35-2.08,9.91"/><path id="path639" d="M230.55,131.44c-.85,3-1.89,7.39-4.69,8.87,2.1-2.67,3.14-5.83,4.69-8.87"/><path id="path641" d="M249.84,132a27.05,27.05,0,0,1-7.82,8.87c2.78-2.79,5.95-5.37,7.82-8.87"/><path id="path643" d="M287.9,138.74c.57-2.62,2.18-4.57,3.65-6.78a10.67,10.67,0,0,1-3.65,6.78"/><path id="path645" d="M76.21,133.52c-1-.13-1.33.24-2.09-.52l2.09.52"/><path id="path647" d="M301.46,133.52c-1,4-1.45,8.61-4.69,11.47.86-2.73,3.21-10.85,4.69-11.47"/><path id="path649" d="M225.86,134.56c-.62,2.34-1,4.48-2.61,6.26.41-1.88,1.91-8,2.61-6.26"/><path id="path651" d="M187.79,134a23.09,23.09,0,0,1-1.56,2.09c-.44-2,.78-1.33,1.56-2.09"/><path id="path653" d="M278,137.17a4.88,4.88,0,0,1,2.09-3.13,9.6,9.6,0,0,1-2.09,3.13"/><path id="path655" d="M286.86,134c-.6.78,0,1.4-1,1.56-.29-1.3.62-1,1-1.56"/><path id="path657" d="M168,135.61a10,10,0,0,1-4.17-1.56,13.1,13.1,0,0,1,4.17,1.56"/><path id="path659" class="cls-1" d="M237.33,135.61c-.5-.43-1.74.68-.52-1.56.79.57.08,1.18.52,1.56"/><path id="path661" d="M335.35,137.69c.36-1.21.7-2.43,1-3.65a27.34,27.34,0,0,0-1,3.65"/><path id="path663" d="M277,134.56a8.86,8.86,0,0,1-2.61,3.13.82.82,0,0,0-.52-1,9.35,9.35,0,0,1,3.13-2.09"/><path id="path665" d="M194.57,136.65a13,13,0,0,0-2.09,6.26l2.09-2.09c-1,3.56-1.06,10.65-1.56,15.65-2.25-2.44-.25-9.68.52-12.52-2.09,2.08-3.15,8.69-3.13,11.47-1.63-3.64,1-7.27,1-10.95-1.31,1.76-2.06,4.83-2.61,6.26-.16-4,3.57-12.25,5.74-14.07"/><path id="path667" d="M222.73,136.65a8.12,8.12,0,0,0,0,2.09,5.3,5.3,0,0,1-1.57-.53c.24-1,1.33-1.17,1.58-1.57"/><path id="path669" d="M285.3,138.22c-2.41,2.74-2.85,6.5-6.26,8.34,2.08-3,4.71-7.26,6.78-9.9-.8.58-.39.78-.52,1.57"/><path id="path671" class="cls-1" d="M237.85,136.65a6.33,6.33,0,0,1-4.17,4.17l4.17-4.17"/><path id="path673" d="M78.81,139.26c-.75.71-1,3,.53,4.69-4.19-4.65-2.85.49-2.09,2.61-3.2-5.09-5.5.83-4.17,4.69-2.18-2.42-1.76-6.25-5.22-7.3A8.46,8.46,0,0,1,71.51,146c1-1.74,1.65-1.41,0-3.65,1.26,1,2.37,1,3.65,1.56a4.57,4.57,0,0,0-3.65-3.65c1.62-.64,3.36.06,4.7,1.57.71-2.16-.77-2.84-3.13-2.61a13,13,0,0,1,5.21.52c-1.49-1.68-1.77-2.1-4.17-2.08,2-1,3.66-.42,4.69,1.58"/><path id="path675" d="M189.36,143.43c-.86-1.58.53-3.8,2.61-5.21a34.26,34.26,0,0,0-2.61,5.21"/><path id="path677" d="M277,138.22c-.48,2.89-2.55,4.91-4.69,6.78a26.75,26.75,0,0,1,4.69-6.78"/><path id="path679" d="M322.32,138.22c-.59,1.42-1.4,2.8-2.09,4.17,0-1.94.91-2.72,2.09-4.17"/><path id="path681" class="cls-1" d="M251.4,141.87c.43-1.73.74-3,2.61-3.65-.86,1.2-1.65,2.52-2.61,3.65"/><path id="path683" d="M273.82,146.56c-.83.74-1.74,1.39-2.61,2.09,1.38-3.61,5.31-6.78,7.3-10.43-.18,3.26-2.27,6.21-4.69,8.34"/><path id="path685" class="cls-1" d="M226.9,145c2.33-1.81,3.58-4.46,5.21-6.78-.63,2.89-3.1,4.66-5.21,6.78"/><path id="path687" d="M172.15,140.82a25.86,25.86,0,0,1-3.13-.52c1.81-.79,2.21.18,3.13.52"/><path id="path689" d="M322.32,144a14.72,14.72,0,0,1,1.56-3.65c0,1.67-.71,2.37-1.56,3.65"/><path id="path691" d="M271.22,140.82a16.8,16.8,0,0,1-5.74,6.78c1.94-1.83,3.82-5,5.74-6.78"/><path id="path693" class="cls-1" d="M238.89,140.82,236.28,144l2.61-3.13"/><path id="path695" class="cls-1" d="M334.31,145.52c.24-1.5,0-2.36,1-3.65a24.83,24.83,0,0,1-1,3.65"/><path id="path697" class="cls-1" d="M232.63,144a25.75,25.75,0,0,1-6.78,4.69c2.33-2.22,5.65-3.34,7.3-6.25-.17.53-.34,1.05-.52,1.57"/><path id="path699" class="cls-1" d="M336.4,146c.26-1.54-.16-2.3,1-3.65-.35,1.21-.61,2.47-1,3.65"/><path id="path701" d="M324.92,143.43a14.35,14.35,0,0,1-1,2.61,4.73,4.73,0,0,1,1-2.61"/><path id="path703" d="M324.92,147.6c-.81.87-.58,1.73-2.09,1.56,2.31-1.45,3.3-3.69,4.18-6.25,0,2.11-.92,3.15-2.08,4.7"/><path id="path705" class="cls-1" d="M163.28,144c-2.43,3.62-3.4,8.71-3.13,13-.72-2.85-.11-13.19,3.13-13"/><path id="path707" class="cls-1" d="M248.28,148.65c-1.27,2-2.59,4.4-4.17,5.74l3.65-4.18c-3.12.51-5,3.42-7.3,5.74,2.37-4.27,7-7.79,9.91-12-.7,1.55-1.31,3.17-2.09,4.69"/><path id="path709" class="cls-1" d="M230,148.12c1.06-1.2,2.42-2.75,3.65-4.17a11.66,11.66,0,0,1-3.65,4.17"/><path id="path711" class="cls-1" d="M165.37,145c-4.15,2.5-3,15.39-3.65,20.34-.07-3.06-1.12-23.07,3.65-20.34"/><path id="path713" class="cls-1" d="M177.36,147.6c-1,1.45-1.73,1.91-1,4.17,0-2.17-1.1-4.45-.52-7.3a5.08,5.08,0,0,1,1.56,3.13"/><path id="path715" d="M71,151.25c.1.27.78.56.52,1.57A28.24,28.24,0,0,0,66.3,145,7.73,7.73,0,0,1,71,151.24"/><path id="path717" class="cls-1" d="M166.41,148.12c-.43-.68-1.46-.48-1-2.09.6.67.62,1.43,1,2.09"/><path id="path719" d="M75.69,148.12c-.4-.75-1-.64-1-1.56,1.42.08.63.77,1,1.56"/><path id="path721" class="cls-1" d="M253,152.82a11.38,11.38,0,0,1-4.17,4.69c2.72-3.5,4.25-8.62,8.34-10.95-1.54,1.93-3.55,3.82-4.17,6.26"/><path id="path723" d="M327.53,146.56a8.29,8.29,0,0,1-4.69,5.74c1-1.84,3.12-3.7,4.69-5.74"/><path id="path725" d="M68.91,150.21a8.06,8.06,0,0,1,.52,4.17c-2,.27-2.54.09-2.61,2.09a23.4,23.4,0,0,1-4.17-.52c3-1.3.56-4.11-1.56-5.22a7.79,7.79,0,0,1,4.17,3.65c-.05-2.23-1.8-4.17-2.61-5.21,1.83.91,4.27,1.06,5.21,3.65,2.42-1.85-.83-4.47-2.08-5.74,1.78.48,2.2,1.59,3.13,3.15"/><path id="path727" d="M173.19,147.6c-1.59.27-2.46,1.25-3.65-.52,1.3.67,2.23.34,3.65.52"/><path id="path729" class="cls-1" d="M371.85,150.73c.74-.83,1.26-.38,1.56-1.56a14.37,14.37,0,0,0-2.08-.52,22.59,22.59,0,0,1,2.08-1.57c.76,2.45-.17,2.63-1.56,3.64"/><path id="path731" class="cls-1" d="M253,158.55c1.57-2.76,6.37-8.08,9.91-11-1.93,4.87-6.91,7-9.91,11"/><path id="path733" class="cls-1" d="M165.89,149.69c-1.53,7.4-1.56,14.37-1.56,21.9a46.78,46.78,0,0,1,.52-22.94l1,1"/><path id="path735" class="cls-1" d="M297.29,152.82a38.52,38.52,0,0,1,2.61-3.65c-.21,1.65-1.3,2.46-2.61,3.65"/><path id="path737" class="cls-1" d="M173.19,150.21a4.23,4.23,0,0,0-2.09,1c.18-.52,0-.69-.52-.52.72-1,1.66-.43,2.61-.52"/><path id="path739" class="cls-1" d="M255.05,151.77c-.09,1.12-.79.15,1-1.56-.71.43-.77,1-1,1.56"/><path id="path741" class="cls-1" d="M270.7,156.47l-2.08.52,6.77-6.78c-.85,2.33-2.93,4.26-4.7,6.26"/><path id="path743" d="M327.53,150.73c-.62.86-.82,1.79-2.08,2.09.29-1.55,1.07-1.36,2.09-2.09"/><path id="path745" class="cls-1" d="M227.42,154.9l6.26-4.17a27.66,27.66,0,0,1-6.26,4.17"/><path id="path747" class="cls-1" d="M174.23,151.77c-1.09.19-1.44,1.08-2.61,0a3.31,3.31,0,0,1,2.61,0"/><path id="path749" d="M328.58,157c-.22-1,.87-3.83,1.56-5.74a14.72,14.72,0,0,1-1.56,5.74"/><path id="path751" d="M195.09,152.3a14.55,14.55,0,0,1-.52,4.69c-1-2-.19-3,.52-4.69"/><path id="path753" class="cls-1" d="M166.41,176.81c-2-7.71-.71-16.18,0-24v24"/><path id="path755" class="cls-1" d="M174.23,153.86c.45.07.93.76,2.09,0V156a6,6,0,0,1-3.13-2.61,15.86,15.86,0,0,1,3.13-.52c-1.36-.23-1.47.68-2.09,1"/><path id="path757" class="cls-1" d="M292.08,154.9c.79-.9,1-1.72,2.08-2.09l-2.08,2.09"/><path id="path759" class="cls-1" d="M293.12,156.47a7.6,7.6,0,0,1,2.61-3.65,18.22,18.22,0,0,1-2.61,3.65"/><path id="path761" class="cls-1" d="M230.55,156.47l4.69-3.65a9.09,9.09,0,0,1-4.69,3.65"/><path id="path763" d="M336.92,157.51c.67-1.57,1.39-3.13,2.09-4.69a8.43,8.43,0,0,1-2.09,4.69"/><path id="path765" class="cls-1" d="M171.1,156.47a5.66,5.66,0,0,1-.52-3.13,8.21,8.21,0,0,1,.52,3.13"/><path id="path767" d="M340,156.47a32.79,32.79,0,0,1-1,3.13,12.83,12.83,0,0,0,2.6-3.13c-3.66,4.38-4.13,9.13-9.38,13a41,41,0,0,1,2.61-3.65c-1.76,1-3.48,2.07-5.22,3.13,5-4.85,8.05-8.73,10.43-15.65a13.72,13.72,0,0,0,0,3.13"/><path id="path769" d="M59,158.55c.77.19,1.83-.34,2.08,2.61l-1.56-2.09-.52,1c-1-2.93-3.44-6.33-6.78-6.25a7.53,7.53,0,0,1,6.78,4.7"/><path id="path771" d="M324.92,153.86c-.67,3.29-1.73,6.53-1.56,9.91h-1.05a17.38,17.38,0,0,1,2.6-9.91"/><path id="path773" d="M209.17,154.38c-1.56,2.14-3.82,3.32-5.74,5.21a9.36,9.36,0,0,0,4.18-2.08c-3,5-4.84,5-8.87,6.26a9.63,9.63,0,0,1,3.65-3.65,23.81,23.81,0,0,0-4.69,2.08c.82-1,1.46-2.77,2.09-3.65l-2.09,1a9.24,9.24,0,0,1,2.09-5.21c-.45,1.37-.49,2.79-1,4.17a4.86,4.86,0,0,0,3.65-4.17,3.57,3.57,0,0,0,1.56,0c-1,1.9-2.4,3.38-3.12,5.21a9.55,9.55,0,0,0,4.69-4.17A8.76,8.76,0,0,1,205,157a14,14,0,0,0,4.16-2.6"/><path id="path775" class="cls-1" d="M232.11,157c1.18-.91,2.44-1.74,3.65-2.61-1,1.52-2.26,1.78-3.65,2.61"/><path id="path777" d="M326.49,154.38c.43,1.91-.13,3.67-.52,5.74-1.5-1.27.19-3.41.52-5.74"/><path id="path779" d="M197.18,154.38c-.24,1.3.26,2.11-1,2.61a6.28,6.28,0,0,1,1-2.61"/><path id="path781" class="cls-1" d="M285.3,154.9l-1.56,1.57,1.56-1.56"/><path id="path783" class="cls-1" d="M257.14,157l1.56-1.56c-.3,1-.85,1-1.56,1.56"/><path id="path785" class="cls-1" d="M254.53,161.68c2.44-1.67,3.69-4,5.73-5.74-2.06,2.27-3.09,4.48-5.73,5.74"/><path id="path787" d="M56.92,159.6c-.34-.17-2.78-2.73-4.18-3.13a4.51,4.51,0,0,1,4.18,3.13"/><path id="path789" class="cls-1" d="M233.68,158.55c.6-.67.89-1.63,2.09-2.09-.7.7-1.39,1.41-2.09,2.09"/><path id="path791" class="cls-1" d="M336.4,161.68q1.56-2.61,3.13-5.21a31.79,31.79,0,0,1-3.13,5.22"/><path id="path793" d="M320.23,165.86c-.09.06.6,1.21,1-1-.21,2.33-1.42,4.73-.52,6.78a5.63,5.63,0,0,0-3.13,2.6c0-.94-2.44-3.46-1.82-4.69,1.39-2.78.91-5.66,2.34-8.34-.24,3.53-1.19,7.68,0,11,2.92-3.91.38-10.71,3.65-15.13.07,3.11-1.91,5.58-1.57,8.85"/><path id="path795" d="M64.74,158.55a10.26,10.26,0,0,0-2.09,1.56,12.61,12.61,0,0,1,.52-2.6c1,.08,1.17.78,1.57,1.05"/><path id="path797" class="cls-1" d="M168,172.11A69.74,69.74,0,0,1,168,158v14.08"/><path id="path799" class="cls-1" d="M267.57,158.55a18.42,18.42,0,0,0-4.69,4.17c1.24-1.95,3.06-4,4.69-4.17"/><path id="path801" class="cls-1" d="M266.52,161.68c-2.88,4.3-11,7.11-16.16,7.82,8.53-1.65,13.33-8.41,20.85-11.47-1.62,1.19-3.11,2.48-4.7,3.65"/><path id="path803" d="M52.22,163.25c.14,1.7.23,2.48-2.08,1.56v2.09c-3.25-.48-2.19-3.42-5.22-4.17H47c-1.5-1.14-1.82-1.73-3.65-2.09,3.83-.4,4.16,3.65,7.3,4.17-.49-2.86-2.8-4.36-5.22-5.73,2.72.58,4.31,2.83,6.78,4.18"/><path id="path805" class="cls-1" d="M235.76,160.64c.86-.54,1.74-1,2.61-1.56a9.76,9.76,0,0,1-2.61,1.56"/><path id="path807" class="cls-1" d="M241.5,159.08c-3,1.46-11.68,4.27-12.51,5.74,3.1-.59,6.18-1.68,9.38-1.57-2.38.88-4.62,1.36-6.78,2.61,3.65-.76,7.31-2.09,10.95-2.61-5.39,2.94-10.52,3-16.16,1.57,4.74-2.6,10.41-3.15,15.12-5.74"/><path id="path809" class="cls-1" d="M243.06,161.16a11.73,11.73,0,0,1,3.13-2.09c-1,.7-2.11,1.37-3.13,2.09"/><path id="path811" d="M207.6,160.64c-.42.84-.48,1.49-1.56,2.09a6.61,6.61,0,0,1,2.08-3.65c0,.68-.42.94-.52,1.56"/><path id="path813" class="cls-1" d="M228.46,159.08a12.58,12.58,0,0,1-3.13,1.57c1-1,2-1.15,3.13-1.56"/><path id="path815" d="M55.35,160.12a4,4,0,0,0-1,2.09l-1.05-.52c.32-.92.74-1.6,1.05-2.61.85.14.3.35,1,1"/><path id="path817" class="cls-1" d="M254.53,159.6c-1.94.9-2.32,3.11-4.69,3.65a30.39,30.39,0,0,1,4.69-3.65"/><path id="path819" class="cls-1" d="M230.55,160.64c-.8.11-1.17.64-2.09.52,1.77-2.46,1.47-.72,2.09-.52"/><path id="path821" d="M310.84,160.12c-.26,2.62-1.25,6.17.52,6.78a13.1,13.1,0,0,0,0,6.78c.19-1,.37-2.11.52-3.13-.19,4.18,1.44,6.24-1,10.95-1.37-1.41-.26-3.15.52-5.21h-1c-.23,2.07-1,2.31-2.09,3.65-1.27-1.86-.82-4.37-.52-6.78-.47,5.7-3.75,7.54-7.82,10.43,1.1-1.71,2.15-3.44,3.13-5.22a35.2,35.2,0,0,0-4.69,5.22c-1.36-2.46.39-5.05,2.08-4.7.53-1.52,1.82-2.61,2.61-3.65v1.57c.58-2,.18-4.39,1.56-6.26a9.36,9.36,0,0,0,.52,2.61c1.51-3.77,2.11-8.49,3.13-11.48-.17,1.92-.35,3.83-.52,5.74,2.07-.86,2.57-5.59,3.12-7.32"/><path id="path823" class="cls-1" d="M201.87,162.2a5.27,5.27,0,0,1,2.61-1.56,9.86,9.86,0,0,1-2.61,1.56"/><path id="path825" class="cls-1" d="M250.88,160.64l-2.61,2.09,2.61-2.09"/><path id="path827" class="cls-1" d="M275.91,165.33c-1,3.4-5.92,4.79-8.86,6.26,5.47-2.57,10-7.09,14.6-11a7.73,7.73,0,0,1-5.74,4.69"/><path id="path831" class="cls-1" d="M234.72,161.16c-2.87,1.37-7.21,1.13-8.86,3.65-.83-.09-2.62-.31-3.65-.52,2.63-1.9,9-3.5,12.51-3.13"/><path id="path833" class="cls-1" d="M224.29,162.73c.71-.5,1.37-1.5,3.13-1.56-1,.52-2.06,1.11-3.13,1.57"/><path id="path835" class="cls-1" d="M254.53,165.33l1,1a22.11,22.11,0,0,1-12,3.13c6.11-1,12.58-4.86,17.73-8.34a56.82,56.82,0,0,1-6.78,4.17"/><path id="path837" class="cls-1" d="M283.21,164.81a23.69,23.69,0,0,1,3.13-3.13c-.9,1.09-2.21,2.2-3.13,3.13"/><path id="path839" d="M54.83,164.81c-1-1.2-1.93-1.56-2.09-3.13a22.74,22.74,0,0,1,2.09,3.13"/><path id="path841" class="cls-1" d="M256.62,162.2c-1,.53-2.09,1-3.13,1.56a9.78,9.78,0,0,1,3.13-1.56"/><path id="path843" class="cls-1" d="M271.74,164.81c1-.71,2.09-1.39,3.13-2.08a16.22,16.22,0,0,1-3.13,2.09"/><path id="path845" class="cls-1" d="M49.09,165.86c-.54-.86-1-1.74-1.56-2.61a9.76,9.76,0,0,1,1.56,2.61"/><path id="path847" class="cls-1" d="M261.31,163.25a11.43,11.43,0,0,1-4.69,2.61,18.61,18.61,0,0,1,4.69-2.61"/><path id="path849" d="M306.15,163.77a14.59,14.59,0,0,1-1.56,6.26,12.28,12.28,0,0,1,1.56-6.26"/><path id="path851" class="cls-1" d="M171.1,186.72c-.5-6.5-3.84-16.26-1.56-22.42.68,7.47,1.56,14.9,1.56,22.42"/><path id="path853" class="cls-1" d="M245.67,164.29c-2.37,1.57-5,1.88-7.82,2.09a54.41,54.41,0,0,1,7.82-2.09"/><path id="path855" class="cls-1" d="M248.8,164.81a10.89,10.89,0,0,1-4.17,1.56,11.46,11.46,0,0,1,4.17-1.56"/><path id="path857" class="cls-1" d="M239.41,169c2-1.55,9.38-1.72,13-4.17-3.22,3.57-8.6,3.54-13,4.17"/><path id="path859" class="cls-1" d="M273.82,164.81c-3.27,4.23-7.66,6.24-13,6.78,5-1,8.92-4,13-6.78"/><path id="path861" class="cls-1" d="M277.48,170c-.42.36-1,.21,0,1a12,12,0,0,1-2.61,0c3.41-1.87,6.57-4.25,9.91-6.25a23.11,23.11,0,0,1-7.3,5.22"/><path id="path863" class="cls-1" d="M172.15,172.63v5.74c-1-4.18-.52-8.75-.52-13,1.13,2.25-.18,5,.52,7.3"/><path id="path865" d="M338.48,165.33c-1.24,2.92-5.78,6.9-8.34,6.78,2.94-2,5.53-4.62,8.34-6.78"/><path id="path867" d="M47.53,166.9a.57.57,0,0,1-1,0c.17.87.34,1.74.52,2.61a10.77,10.77,0,0,1-2.09-2.61h1.57c-.18-.52-.35-1-.52-1.56,1,.12,1.15.71,1.56,1.56"/><path id="path869" class="cls-1" d="M256.62,170.55c2.94-.33,8.27-3.63,10.95-5.21-2.6,3.4-7.07,3.71-10.95,5.21"/><path id="path871" class="cls-1" d="M283.21,169c.6-.27,2.75-1,3.65-1.56-2.38,2.79-5.55,2-8.34,3.65a80.59,80.59,0,0,0,8.34-5.74,43.27,43.27,0,0,0-3.65,3.65"/><path id="path873" class="cls-1" d="M262.35,170c2.7-1.25,5.19-2.82,7.82-4.17a14.92,14.92,0,0,1-7.82,4.17"/><path id="path875" class="cls-1" d="M280.6,165.86c-3.84,2.44-6.37,5.41-10.43,5.21,3.72-1.28,6.77-3.84,10.43-5.21"/><path id="path877" d="M42.84,172.63a10,10,0,0,1-2.09-6.26,13.18,13.18,0,0,1,2.09,6.26"/><path id="path879" d="M209.17,166.38c-.15,1.62.53,2.54-1,3.13.37-1.12.76-2.38,1-3.13"/><path id="path881" d="M40.75,171.59a13.54,13.54,0,0,1-3.65,3.13c-.37-1.42-.87-3.45-1-4.69.88.65,1.26.35,2.08,1.56a8.21,8.21,0,0,0-1-3.13,30.56,30.56,0,0,0,2.61,2.61,15.87,15.87,0,0,0-1.57-4.17,5.57,5.57,0,0,1,2.61,4.68"/><path id="path883" class="cls-1" d="M237.33,167.94c-1-.38-2.09-.7-3.13-1a5.55,5.55,0,0,1,3.13,1"/><path id="path887" d="M208.12,166.9c0,6.18-6.68,9.58-11,12.52,3.44-4.77,8.24-9.07,11-12.52"/><path id="path889" class="cls-1" d="M261.83,166.9A19.24,19.24,0,0,1,254,170c2.81-.91,5.16-2.83,7.82-3.13"/><path id="path891" d="M43.88,169c.32.29-.65.3-1-1,1.54-.38.5.55,1,1"/><path id="path893" class="cls-1" d="M308.76,173.68a11.61,11.61,0,0,1,1-5.74,9.36,9.36,0,0,1-1,5.74"/><path id="path895" class="cls-1" d="M306.15,175.24c-.46.82-1.77,1.12-.52,1.56a7.47,7.47,0,0,0-1.56,1.57c.49-3.49,2.19-6.74,3.64-9.91.31,2.89-2.1,4.25-1.57,6.79"/><path id="path897" d="M330.14,175.24c-.36-2,5.08-4.37,7.3-6.26-1.4,3.12-4.59,4.3-7.3,6.26"/><path id="path899" d="M36.06,174.2c-1.56,2.5-3.32,1.42-3.13-1.56.52.86,1.1,1.71,1.56,2.6,0-1.23.35-1.73,0-3.12,1.25.24,1.09,1,1.57,2.08"/><path id="path901" d="M334.31,175.24c-1.16.66-3,1.31-4.17,2.09,1.4-2.19,3.9-3.05,5.73-5.22-.17.52,0,.7.53.52a24.3,24.3,0,0,1-2.08,2.61"/><path id="path903" class="cls-1" d="M267.05,185.15a40.43,40.43,0,0,1,5.21-12.52c-1.92,4.05-3,8.59-5.21,12.52"/><path id="path905" class="cls-1" d="M266,183.06c-.41-3.38,1.49-7.45,3.65-9.91-1.78,3.16-2.12,6.69-3.65,9.91"/><path id="path907" class="cls-1" d="M168.5,180.46a24.1,24.1,0,0,1-.52-6.78q.26,3.39.52,6.78"/><path id="path909" d="M32.41,175.76c-.19,0-.64.39-1.57-.52.39.74.17,1,.53,1.56-2.49-1-1.55-.77-2.09,1-2.51-1.15-.43-2.74,1-4.17a3.82,3.82,0,0,1,2.09,2.09"/><path id="path911" d="M204,177.85c.91,3-2.18,5.8-3.13,7.82.69-.85,2.4-2.11,3.13-3.13-.63,4-5.09,5.37-5.73,8.87a24.16,24.16,0,0,1,3.65-4.17c-2.91,5.65-5.26,8.59-9.39,15.12,1.63-1.39,2.89-2.91,4.69-3.65a12.7,12.7,0,0,0-4.17,5.74,39.94,39.94,0,0,1,3.65-3.13c-2.32,2.81-2.39,6.16-3.65,8.86-1.09-2,1.38-4-1.56-5.21l1-1.57c-.53-2.31-.94-4-4.17-1.56,4.36-9.73,11.07-19.14,17.73-27.64-.69,1.21-1.32,2.48-2.08,3.65"/><path id="path913" class="cls-1" d="M270.18,187.24c.14-4.73,3-9,5.21-13q-2.61,6.51-5.21,13"/><path id="path915" class="cls-1" d="M264.44,181a11,11,0,0,1,2.08-5.74c-.78,1.88-1.48,3.79-2.07,5.74"/><path id="path917" class="cls-1" d="M309.28,175.76c-.17.7-.35,1.39-.52,2.09.18-.7.35-1.39.52-2.09"/><path id="path919" class="cls-1" d="M277,178.89c.35-.87.7-1.74,1-2.61a19.18,19.18,0,0,1-1,2.61"/><path id="path921" class="cls-1" d="M272.26,176.81l-1,2.61,1-2.61"/><path id="path923" d="M326,176.81c-.31,1.61-.05,2.72-1,4.17l1.56-1.56c-.38,3.29-2.48,6.41-4.69,8.86,3.36-1.84,5.76-7.29,6.26-10.95.6,2.09-.05,4.23-1.05,6.26l1.05-.52c-.9,2.09-2,7.4-3.6,8.73-2.52,2.1-5.53,3.82-6.83,6.91,1.38-1.06,2.18-1.11,3.13-2.6.59,3.29-5.8,9.37-3.13,10.95-.94,2.81-2.73,5.36-2.61,8.34-1.69-2.24-.39-5.14,0-7.82a45.27,45.27,0,0,1,2.09-8.87,7.9,7.9,0,0,1-4.7,3.13,16,16,0,0,1,4.7-4.17.82.82,0,0,0-.52-1c-1,1.2-2.69,1.89-3.65,3.13.8-2.94,4.36-4.13,4.69-7.3-1,.73-2.16,1.29-3.13,2.08,2.95-2.67,4.76-6,6.78-9.39v1.57c1.88-1.57,3.87-3.72,3.65-5.74a22.33,22.33,0,0,1-1.57,2.09,23.38,23.38,0,0,1,2.6-6.27"/><path id="path925" d="M27.72,178.89c.51.11-1.52.29-2.09,0,1.09-1.79,1-.23,2.09,0"/><path id="path927" class="cls-1" d="M278.52,184.11q1-2.87,2.09-5.74a27.39,27.39,0,0,1-2.09,5.74"/><path id="path929" d="M297.81,178.89a4.93,4.93,0,0,0-.52,2.09.82.82,0,0,1-1-.52,10.07,10.07,0,0,0,1.56-1.57"/><path id="path931" d="M25.63,180.46c-1.4.48-2.19,0-3.13,1-.3-2.1,1.89-2.58,3.13-1"/><path id="path933" class="cls-1" d="M199.26,185.15c.34-2.35,2.62-4,4.17-5.73a44.37,44.37,0,0,1-4.17,5.73"/><path id="path935" class="cls-1" d="M277,184.11c.55-1.38,1-2.78,1.56-4.17a12.81,12.81,0,0,0-1.56,4.17"/><path id="path937" d="M19.89,184.11c-.19,1.79-1.64,2.29-3.65,1.56l2.09-.52a25.33,25.33,0,0,0-3.65-2.6,28.22,28.22,0,0,0,3.65,1c-1.34-1.25-1.76-1.87-3.13-2.09,1.66-.24,3.45.82,4.69,2.62"/><path id="path939" class="cls-1" d="M271.22,189.84a11.94,11.94,0,0,1,2.61-8.34c-.8,2.83-2.11,5.4-2.61,8.34"/><path id="path941" class="cls-1" d="M271.74,192.45c1.45-3.63,2.83-7.28,4.17-10.95-1.44,3.69-2.22,7.66-4.17,10.95"/><path id="path943" class="cls-1" d="M285.3,184.11c.36-1.22.08-2.09,1-2.61-.35.87-.7,1.74-1,2.61"/><path id="path945" d="M196.66,182.54c-.64.9-1.39,1.74-2.09,2.61-.19-2.15,1-1.78,2.09-2.61"/><path id="path947" d="M197.18,185.67c-1.28,1.78-2.6,3.59-4.17,4.17,1.5-2.64,3.91-4.53,5.21-7.3-.44,1-.68,2.14-1,3.13"/><path id="path949" d="M320.75,183.59c-1.22,2-2.18,3.53-4.17,4.69a23.18,23.18,0,0,1,4.17-4.69"/><path id="path951" class="cls-1" d="M278.52,192.45c-.88-2.25.27-5.84,1.56-7.82-.35,2.56-.56,5.39-1.56,7.82"/><path id="path953" class="cls-1" d="M280.6,191.41c.17-2.11.66-4.14,1-6.26-.34,2.09-.69,4.17-1,6.26"/><path id="path955" d="M293.64,188.28c-.31-1.61-2.08-2.19.52-3.13-.17,1-.3,2.1-.52,3.13"/><path id="path957" class="cls-1" d="M275.39,188.28c.31-1,.13-1.73,1-2.61l-1,2.61"/><path id="path959" d="M16.24,188.28c.25.1-3-1.28-3.65-1.56,2-.3,3,.1,3.65,1.56"/><path id="path961" class="cls-1" d="M196.13,190.89a10,10,0,0,1,3.13-4.17,11,11,0,0,1-3.13,4.17"/><path id="path963" class="cls-1" d="M285.82,186.72c-.17,1-.35,2.09-.52,3.13.17-1,.34-2.09.52-3.13"/><path id="path965" class="cls-1" d="M269.65,190.37c.37.8,1.35.19,1,1.56-1.4-1.65-1.55-1.4-1-3.65a11.22,11.22,0,0,0,0,2.09"/><path id="path967" d="M15.72,189.84c-.54.16-2.37-1.58-5.21-.52v-1a5.65,5.65,0,0,1,5.21,1.56"/><path id="path969" class="cls-1" d="M282.69,196.62c-1.67-.87.25-4.53,1-6.78a56.41,56.41,0,0,0-1,6.78"/><path id="path971" class="cls-1" d="M274.87,189.84c-1.67,2.16-3.21,4.55-1.57,6.26.26-2.3.72-4.28,2.61-4.69-1.39,2.49-3.25,4.69-1,6.77-.19-2.27.24-3,1.56-4.69-.79,5.39-2.07,6.67-1,11.48.56,2.64,1.44,8.8,3.65,9.38,0-4.49-.23-9.28,2.61-13-.65,3.33-.92,7.12-1.84,10.34-.79,2.78-3.09,4.86-2.86,7.92a15.66,15.66,0,0,1,3.13-4.17c-1.37,2.75-3.07,5.16-2.6,8.34,1.84-3,2-6.37,4.69-8.87-1.59,5.69-5,10.6-5.74,15.65-1.62-7.08,1.29-14.38,0-21.38a7.54,7.54,0,0,0-1,3.13c-.94-2,0-4.13-.52-6.26-.33.61-1.05,2-1.05,1.56a17.27,17.27,0,0,1,.53-3.65c-2.59-1-3.31-7.76-3.13-10.95a5,5,0,0,0,1,1c.28-1.92,1.36-3,2.6-4.18"/><path id="path973" class="cls-1" d="M318.15,191.93l1.56-2.09c-.11,1.42-.83,1.31-1.56,2.09"/><path id="path975" class="cls-1" d="M318.15,194.54a23.84,23.84,0,0,0,4.17-4.69c-.57,2.12-2.38,3.23-4.17,4.69"/><path id="path977" d="M14.16,192.45c-.41-.14-1.75.19-2.09-1.56,1.58-.16,1.32,1,2.09,1.57"/><path id="path979" class="cls-1" d="M197.7,193.49l1-1.56c-.35.52-.7,1-1,1.56"/><path id="path981" class="cls-1" d="M190.92,198.19c1.32-2.1,2.78-4.17,4.17-6.26-.3,2.5-2.51,4.46-4.17,6.26"/><path id="path983" class="cls-1" d="M277,205.49c-.29-4.65.36-9.23,3.13-13a77.4,77.4,0,0,0-3.13,13"/><path id="path985" d="M192,192.45a30.23,30.23,0,0,1-3.65,7.3c0-2.06,2.42-5,3.65-7.3"/><path id="path987" d="M188.83,195.58c.49-.88,1-1.74,1.56-2.61a6.51,6.51,0,0,1-1.56,2.61"/><path id="path989" d="M13.11,196.1c.35,1.94,0,4.55-3.12,2.61l2.6-.52a4.31,4.31,0,0,0-5.21-1.57,18,18,0,0,1,4.69-.52,38.36,38.36,0,0,1-3.65-1.56c2.07-.39,3.75.12,4.69,1.55"/><path id="path991" class="cls-1" d="M193.53,197.67c.79-.93,1-1.65,2.09-2.09l-2.09,2.09"/><path id="path993" class="cls-1" d="M275.91,200.27c.36-1.37.7-2.8,1-4.17-.34,1.39-.69,2.78-1,4.17"/><path id="path995" class="cls-1" d="M278,209.66c-1.57-4.17,1.12-8.35,1.56-12.52,2.35,2.94-.76,9.14-1.56,12.52"/><path id="path997" class="cls-1" d="M282.17,198.19c-.17.87-.35,1.74-.52,2.61.17-.87.34-1.74.52-2.61"/><path id="path999" d="M11,204.44c-.81-.2-1.17-.64-2.09-.52l1.57-1c-.78-.48-1.7-1.34-2.09-1.57,2.21.38,3.41,1.28,2.61,3.12"/><path id="path1001" d="M11,206.53a9,9,0,0,1,0,1.56c-1.56-1.84-4.11-.83-6.26,0a6.36,6.36,0,0,1,5.74-1.56,8.75,8.75,0,0,0-4.69,0c1.91-1.47,4-1.49,5.21,0"/><path id="path1003" class="cls-1" d="M283.21,214.35a30.22,30.22,0,0,1,0-5.21l1.56.52c0-1.31.33-2.92,0-4.18,0,3.19.6,6.31-1.56,8.86"/><path id="path1005" class="cls-1" d="M282.69,206c-1.58,2.52-.95,5.59-1.56,8.35-1.09-2.56.27-7.27,1.56-8.35"/><path id="path1007" d="M10.51,209.14H7.38c1.25-1,1.78-.25,3.13,0"/><path id="path1009" class="cls-1" d="M286.86,210.7v-2.61c.65,1.08.1,1.42,0,2.61"/><path id="path1011" class="cls-1" d="M281.65,231c-2.6,3.11-2.49,8.16-3.13,12-.6-8.46,3.53-21.44,7.82-28.69-1.95,5.18-4.84,11-4.69,16.68"/><path id="path1013" class="cls-1" d="M203.43,234.69c-.7.57-1.53,1-1,3.65-1.18-4.23.63-9.06-.52-13.56l-1.05.52a17.62,17.62,0,0,1,.52,5.74,12.75,12.75,0,0,0-.52-5.22,11.17,11.17,0,0,0-1,5.74l-1.56-2.09c-.21,1.05-.18,1-.53,1.57a137.38,137.38,0,0,0,3.13-16.69c3,5.67,2.76,14,2.59,20.34"/><path id="path1015" class="cls-1" d="M281.65,221.66c.21,5-5.22,7.66-4.69,12.52-1.61-4.5,5.39-14.33,6.78-19.3.06,2.45-1.2,4.54-2.09,6.78"/><path id="path1017" d="M11,215.92c-.6.05-2.21.48-3.13-.52,1.28-.24,2.14.3,3.13.52"/><path id="path1019" d="M312.93,215.4a8.88,8.88,0,0,1-3.13,4.17,19.74,19.74,0,0,1,3.13-4.17"/><path id="path1021" d="M313.45,217.48c-.47.73-1.12,1.86-1.56,2.61,1.21-.43,1.26.06,2.6-1.05-2.7,2.67-4.82,6.72-7.3,9.91-1.23-2.71,2.54-6,4.17-8.34-1.58.87-3.55,2-4.69,2.08a67.09,67.09,0,0,0,6.77-5.23"/><path id="path1023" d="M7.9,218a5.42,5.42,0,0,0-2.08,1c.44-2,1.25-.82,2.08-1"/><path id="path1025" d="M11,219.05c-1-.09-1.16-.83-2.61,0,1.46-.59,3.17.08,2.61,0"/><path id="path1027" d="M195.09,219.05a47.45,47.45,0,0,0-.52,5.74c.54-1.4,1.71-3.39,2.08-4.18-.9,3.56-.91,7.24-3.12,10.43h1c-1.73,2.6-2.88,4-3.13,6.26H193a30.14,30.14,0,0,0-3.65,17.21c-2.92-2.85-1.29-16.53,1.05-18.77-1.63.39-1.52-.54-2.61,2.08.18-4.18,3.61-8.84,4.69-13a6.7,6.7,0,0,1-1,5.21c3.08-3.3,1.61-8.06,3.66-10.95"/><path id="path1029" class="cls-1" d="M283.21,231.56a17.36,17.36,0,0,1,1-7.82c.12,2.74-1,5.11-1,7.82"/><path id="path1031" d="M11,225.31a8.2,8.2,0,0,0-2.61,1c1.07.16,2.06.85,3.13,1.05A8.16,8.16,0,0,1,7.38,230c.8-.58,2-1.87,3.13-2.6a5.11,5.11,0,0,1-4.17-1.05c.93-.24,1.72-.72,2.6-1-1.21-.13-2.43-.49-3.65-.52a18.21,18.21,0,0,1,5.74.52"/><path id="path1033" d="M311.89,226.35,307.2,231a10.06,10.06,0,0,0,7.82-5.73c-.22.84-.21,3.59-.52,4.17-1.26,2.32-3.55,2.31-4.17,5.21-2.33-.79-6.71,2.16-8.87,4.18,3.25-1.32,7.16-1.16,9.39-4.18v1.05l2.08-1.05c-1.07,2.2-2.75,4.17-5.21,4.7a36.66,36.66,0,0,0,3.13-3.65c-4.89,3.59-11.25,5.59-16.17,9.38,1.5-2.33,4.25-2.84,5.74-5.21a30.34,30.34,0,0,0-4.69,1.56c2.28-1.22,4.7-2.47,6.25-4.17a8,8,0,0,0-5.21,1.57c3.76-1.28,7.23-4.4,9.91-7.31-2.69-.85-4.46,2.63-7.3,3.13,4.07-1.25,10.3-6.41,13-9.91-.2.54-.38,1.06-.55,1.58"/><path id="path1035" class="cls-1" d="M169,240.43c-1.73-5.1-.22-9.93.52-15.12,1.72,5.16-2.33,10.09-.52,15.12"/><path id="path1037" class="cls-1" d="M306.67,227.39l2.09-1.56a15.35,15.35,0,0,1-2.09,1.56"/><path id="path1039" class="cls-1" d="M313.45,229l-1.56,1.57,1.56-1.56"/><path id="path1041" class="cls-1" d="M277.48,238.86c-.28-3.34,1.23-6.24,2.09-9.39.17,3.34-1.81,6.09-2.09,9.39"/><path id="path1043" d="M176.32,234.69c-1.94.85-3.52-2.95-2.61-5.22a10.09,10.09,0,0,0,2.61,5.22"/><path id="path1045" d="M11,230c-.52.41-1,1.28-2.09,1.56.57-.82,1.51-1.1,2.09-1.56"/><path id="path1047" class="cls-1" d="M170.58,243.56c-.9-3.65-1.13-8.88,0-12.52,1,4.14.35,8.34,0,12.52"/><path id="path1049" class="cls-1" d="M310.32,232.08l-6.26,3.65c1.31-1.95,6.4-5.6,6.26-3.65"/><path id="path1051" d="M12.07,232.08c-1.18,1-1.88.7-2.08,2.09-1.15-2.08.47-1.47,2.08-2.09"/><path id="path1053" class="cls-1" d="M280.08,245.64c-.73-3.81-.36-10.42,2.61-13-3.23,3.8-1.27,8.68-2.61,13"/><path id="path1055" d="M12.07,233.13c-.37.52.29,1.81-1.56,1,.72-1.39.62-.49,1.56-1"/><path id="path1057" class="cls-1" d="M283.21,244.08a64.42,64.42,0,0,1,.52-9.91c0,3.24.54,6.88-.52,9.91"/><path id="path1059" d="M19.37,234.69c-.79.33-1.35.8-2.08,1,.37-.81,1.12-.64,2.08-1"/><path id="path1061" d="M313.45,236.26c-1,2.73-10.06,11.18-12,10.43,1.86-.74,3.8-2.15,4.17-4.17-2.21.89-4.07,2.19-6.26,1.56,2.86-1.35,6.07-2,8.87-3.39,2-1,4.69-4.12,5.21-4.43"/><path id="path1063" d="M12.59,236.78c-.58.72.12,1.63-1.56,1.56.25-1,1.18-1.08,1.56-1.56"/><path id="path1065" class="cls-1" d="M191.44,237.82c-.35.87-.7,1.74-1,2.61l1-2.61"/><path id="path1067" d="M176.84,245.64c.1,1.2,0,2.44,0,3.65-1.59-1.64-1.63-7.22-1-9.91,1.26,2,2.07,4.2,1,6.26"/><path id="path1069" d="M16.24,239.39c-.73.65-1.39,1.4-2.08,2.09a.82.82,0,0,1,.52,1,.82.82,0,0,1,1-.52c.18,1.17,0,1.35.52,2.08-2.67-1.19-3.68-3.74,0-4.7"/><path id="path1071" d="M201.87,244.6a5,5,0,0,1-1-5.21,39.51,39.51,0,0,1,1,5.22"/><path id="path1073" class="cls-1" d="M189.36,244.08a12.94,12.94,0,0,1,1-3.13c-.35,1-.73,2.08-1,3.13"/><path id="path1075" d="M199.78,244.08c-.52-.92-1.48-1.31-1-3.13a11.3,11.3,0,0,1,1,3.13"/><path id="path1077" d="M180.49,243c-.56-.19-1.58,1-1.56-1.56,1.23.31.65.89,1.56,1.56"/><path id="path1079" d="M192,241.47c.28,4.15-2.32,11.68.52,14.6-1.57,1.56-1.9,4.59-2.6,6.78-1.2-2.39,1.22-3.74.9-6.29A36.31,36.31,0,0,1,192,241.48"/><path id="path1081" d="M204.48,251.38c-.81-2.55-2.39-6.89-2.09-9.91a17.43,17.43,0,0,1,2.08,9.91"/><path id="path1083" class="cls-1" d="M277.48,244.6a4.14,4.14,0,0,1,1.56,3.65c.56.33,1.41.95,1.57,1a29.61,29.61,0,0,0-4.69-.52c.18-.83-.15-2.43.52-3.65l-1.57,1A13.58,13.58,0,0,1,277,243c-.24.9.29.88.52,1.56"/><path id="path1085" d="M304.59,248.25c1.22-1.74,2.43-3.48,3.65-5.21a7.38,7.38,0,0,1-3.65,5.21"/><path id="path1087" d="M202.39,249.82c-1.06-.24-.95-3-.52-4.17.09,1.44.41,2.74.52,4.17"/><path id="path1089" d="M303,251.38a23.19,23.19,0,0,0,5.74-5.74c-1.38,2.42-3.06,4.73-5.74,5.74"/><path id="path1091" class="cls-1" d="M281.65,250.34a15.44,15.44,0,0,0,1-3.65c.22,1.67-.46,2.22-1,3.65"/><path id="path1093" class="cls-1" d="M281.12,251.9c.2,4.45-6.25,5-9.39,3.39-2.07-1,4.25-8.51,9.39-3.39"/><path id="path1095" d="M307.72,250.86a7.63,7.63,0,0,1-3.65,2.09c.81-1.58,2-1.82,3.65-2.08"/><path id="path1097" d="M209.17,254.51c-3.5,2.42-3.8-1.3-1.56-3.65a3.47,3.47,0,0,1,1.56,3.65"/><path id="path1099" d="M280.08,252.94,278,251.38c2-.42,1.38.68,2.09,1.56"/><path id="path1101" d="M197.7,254.51V251.9c.77,1.11.13,1.44,0,2.61"/><path id="path1103" d="M279.56,254c-.25,0-1.86.06-2.61-1,1.3-.15,1.59.57,2.61,1"/><path id="path1105" d="M307.72,253.47a25.37,25.37,0,0,1-2.61.52c.93-.74,1.47-.38,2.61-.52"/><path id="path1107" d="M202.39,254a33.1,33.1,0,0,0-4.69,2.09c.76-2,2.46-2.62,4.69-2.09"/><path id="path1109" d="M308.24,255.55c-.47,0-.7,1.6-2.09-.52.94-.24,1.53.52,2.09.52"/><path id="path1111" class="cls-1" d="M278.52,257.12a9.81,9.81,0,0,1-3.13,0c1,0,2.09.06,3.13,0"/><path id="path1113" d="M193,259.2c-.29,1.61-1.26,2.41-1,4.17-1.83-1.45-.32-3.72,1-4.17"/><path id="path1115" d="M172.15,262.33c.3,0-1,.67-1.56.52.17-.52.34-1,.52-1.56.25,0,1.43,1.07,1,1"/><path id="path1117" class="cls-1" d="M314,267c-2-1,.55-3.44,2.09-5.21.5,2.4-.08,4.55-2.08,5.21"/><path id="path1119" d="M168,264.94c-.88-.45-1.23.34-2.09-.52.44-.47.79-.81,1.05-1,1.4.29.49,1,1.05,1.56"/><path id="path1121" d="M176.84,264.42c0,.13,0,1.95,0,.52,1.65,2.54.45,7.44-2.61,3.65a10.32,10.32,0,0,0,1.57-.52.82.82,0,0,1-.52-1h1.56c-.93-1.35-.79-2.92-1-3.65,1,0,.39.56,1,1"/><path id="path1123" d="M193,266.5c-.37-1.24-1-2.11,1-3.13-.34,1.05-.67,2.1-1,3.13"/><path id="path1125" d="M166.41,267c-.69.43,0,1.07-1,1a6.74,6.74,0,0,1,0-3.13c.79.37.69,1.12,1,2.09"/><path id="path1127" class="cls-1" d="M306.67,267c-.76-.24-1.07-.76-2.09-.52l.53,1.56c-1.59,0-1.23.4-2.09,2.09a5,5,0,0,0,4.17-2.61l1,1c-3.52,1-6.25,3.65-9.9,1.56,1.19-4.59,5.26-5.52,8.36-3.12"/><path id="path1129" d="M295.2,267.55a11.55,11.55,0,0,0-2.08-1c1.47-.94,1.24.36,2.08,1"/><path id="path1131" d="M190.4,269.11c-1.71,1.45-3.63.48-5.21-1,1.66,0,1.49-.31,3.65,1,.17-.87.34-1.74.52-2.61,1.19.82.88,1.41,1,2.61"/><path id="path1133" d="M294.68,269.11c-.39.23-.1,1.16-1,0-1.11,1.16-.46,1.22-1.57,0h1.57l-1.05-1a2.2,2.2,0,0,1,2.08,1"/><path id="path1135" class="cls-1" d="M155.46,269.63c2.54-1.88,6.08,3.4,7.3,5.22-2.72,1-7.6,2.19-9.39,1.3-5.29-2.64-.69-8.49,2.09-6.51"/><path id="path1137" d="M160.68,272.76a9.4,9.4,0,0,1-2.09-1.56c.95.24,1.32.88,2.09,1.56"/><path id="path1139" d="M159.63,273.28c.45.09-1.44.09-2.09,0,.53-1.73,1-.39,2.09,0"/><path id="path1141" d="M200.83,260.25c-6.47,0-6.38-1-7.16-7.26-.37-3-1.53-10.23,2-10-1.06,3.38-.44,8.32.13,11.76.91,5.49.43,5.69,5.6,3.11s4.25-10.74,3.13-14.87c1.14.19,6.29,9.54,5.73,11.48-.72,2.59-7.14,3-9.38,5.74"/><path id="path1143" d="M158.59,260.25c2.31-2.82,4.4-5.26,5.73-8.6C165,250,167,239.5,168,244.08s-5,15.86-9.38,16.16"/></svg>