<svg id="svg2" xmlns="http://www.w3.org/2000/svg" viewBox="0 0 800 625.16"><defs><style>.cls-1{fill:#2c2c2b;}.cls-2{fill:#999;}.cls-3{fill:#fff;}</style></defs><title>Elephant 08</title><g id="g4"><g id="g6"><g id="g8"><g id="g4189"><path id="path36" class="cls-1" d="M248,8.76S207.25-7.38,176.37,13s-38.09,54.83-40.6,63.59-2.09,35-2.09,35l3.76,4.18s0,23.77,1.67,25.43A8.24,8.24,0,0,1,141.2,145l-5.78,5.32S94.09,106.37,60.25,115s-49.5,35.72-49.5,35.72L.63,157.49,0,176.24s14.44-.68,21.82,3.36,32.23,11.77,40.29,8.75,9.73-14.47,17.46-10.43S98,197.43,98,201.13s27.38,63.77,27.38,63.77L94.82,301.4,67.06,330.73s1.79,5.14,5.61,5.3,12.58-.64,13.21-1.92,15.61,0,15.61,0,41-26.59,44.15-27.95S152,303,152,303s21.35,11.83,29.52,11.83,12.27,2.28,12.27,2.28-25,25.48-37.25,33.68-23.62,15-12.26,15,47.23.9,66.76-10.47,41.33-29.13,41.33-29.13,3.43-2.27,4,4.1.55,34.89,3.28,48.84,6.66,34.9,6.35,47,1.29,18.79-1.7,26.1-4.55,16.08-3.71,21.6,2.15,7.19,2,10.55a15.14,15.14,0,0,1-1.91,6.36,111.54,111.54,0,0,1,.72,11.39c0,5.4,1.07,10,3.35,12.24s.83,7.43.48,13-.24,9.36-.24,9.36-6.2,17.36-7.61,19.71S253.15,567,253.15,567s-10.06,9.61-13.34,15a34.92,34.92,0,0,0-4.68,15.47c-.24,4,14,11.49,20.13,11.49s11.7-2.57,16.6.94,10.3,1.18,15.21,5.16,13.11,4.45,13.11,4.45,20.31,5.16,34.4,5.6,43.6-3.53,43.6-3.53,28.19-9.24,30.82-22.45-6.16-73.1-3.08-80.6,21.15-89.83,29.51-98.2,18.49-32.15,28.18-33.91,37.44,7.92,45.36,7.49,16.3,6.6,18.06,18.94,10.57,37,18.06,44.92,8.8,13.65,8.36,16.28-1.76,66.07-1.76,66.07a101.52,101.52,0,0,1-9.83,10.09c-6.06,5.47-7.58,10.32-8.79,12.75a27,27,0,0,1-4.24,5.46C557.9,594.52,585,601,646.14,580.1c7.13-3.71,8.5,3.59,17.87,11,10.07,7.91,28.51,16.05,47.3,15,15.3-2.11,34.22-4.58,43.4-11.76,10.25-6.6,19.82-8.8,18.94-24.66S760,500.06,760,500.06s-9.24-50.65-7.92-82.35-.75-88.75-.75-88.75,19.52,10.1,29.4,2.07,15.69-17.46,17.23-29.18S791,250.91,796.88,243s2.09-23.77,0-32.53-9.78-29.81-18.25-40.1S768.46,161,768.46,161s-1,9.38-3.32,10-6.74,1-6.4,7.2.92,12.81-1.71,15.09-4.46,5.37-4.46,7.09.5,10.05,1.59,12.67-.65,3.92-1.74,5.45,3.27,10.87.32,14.3-8-.65-8-4.81-.18-6.21-1.67-7.79-1.66-7.13-1.66-8.53,3.89-30.89-19.41-67.18-44.37-54.3-44.37-54.3S635.47,44.55,593.35,33.3,520.07,21.76,519,21.76s-69.5,2.53-74.18.42S401,9.29,373,6.24,335.51.61,335.51.61s-10,.63-38.62-.28-37.7,0-40.43,3.19S248,8.76,248,8.76Zm-78.62,108.5s1.46,10.77,2.93,13,.49,27.64-1.72,32.77-2,10.28-3.66,13-2,8.81-2,8.81-9,16-10-.71.32-17,2.89-20.85,3.52-13.79,3.52-17.32,2.89-10.91,3.21-14.11-1.55-16.94,1.61-15.72Zm3.77-23.6s-4.59-1.33-5.12,4.24-1.23,13.36,2.12,12.55.88-7.42,2.39-8.39S175,99.4,175,96.67s-1.85-3-1.85-3ZM328,160.86s-2.23,3.67,0,4.31,2.72-3.2,2.56-4.15-2.56-.16-2.56-.16Zm128.1-79.77s-18.28-4.82-40.41,3.52-21.81,9.31-22.45,20.53-11.23,21.49-12.51,26.63-1.61,11.55,3.2,14.11,23.1,7.38,28.88,17,2.56,10.59-.64,9.63-6.1-7.39-23.1-7.07-26.31,3.21-27.26,14.44,9,17.23,8.71,34.61-1.78,27.39-6.15,32.33-6.7,1.91-6.7-2.06,3.28-20.13-.4-30.12-14.76-7.54-14.76-7.54-3,6.3-6.83,14.38-12.42,45.9-7.89,54.15,7.41,7.43,10.92,6.39,10.29-5.15,11.94.63,7.41,17.08,22.13,9.72,17.87-14,17.87-14,4.91,7,8.76,6,9.46-15.77,9.46-15.77,2.45,10.52,9.46,8.41,16.81-10.51,17.17-15.07,3.5-9.11,7-7.36a11.83,11.83,0,0,0,15.78-4.9c4.55-7.71-.36-12.27,2.45-17.52s8.41,5.25,15.77,2.1,19.27-15.07,16.46-28-7.9-32.35-12.8-49.12-12.61-25.53-18.78-33.52,3.59-8.25,8.75-5.16,16.47,23.72,19,35.33,15.19,44.87,18.54,27.85,1.28-23.21,6.42-24,9-7,8.5-16.51-11.21-27.72-6.76-32.41,9.38-4,7.41-12-6.27-31-30.74-41.86S439.7,31.51,421,26.7s-49-6.24-78.16-9.14-62.14-12-89.59,0S210.44,40,211.4,50.3s-1.6,18-10.27,27.9-19.56,35-18.92,40.74,8.67,6.73,9,3.21-.63-11.23,3.21-18,6.42-5.46,8.66,5.77,1.49,8.93-1.22,13-6.94,13.53-1.73,13.53,24.9-2.51,36.1,2.72,16.79,11.59,15.25,15.85-2.7-1.93-14.48-5.61-29.92-8.12-39.38-2.89-15,13-13.13,22.43,5.61,5.61,6.57,2.9,3.08-4.45,7.72-5.22,20.66-.19,27,3.68,9.45,6.57,7.52,10.44-6.76-4.26-17.37-5.42-25.48,0-28.57,8.7-3.77,12.86-3.13,16.6,5.21,2.67,13.2,4.16,19.05,2.92,21.88,9.92,1.48,7,1.48,7-3.09-3.37-10-4.44-11.57-3.63-13,.27,2.56,3.76,4,7.53,2,4.33,2,4.33a31.24,31.24,0,0,1-5.56-.18c-3.51-.37-6.1,0-6.66.93s3.34,6.48-.19,7.78-6.67-5.38-11.67-6.68-5.19,0-5.55,3.15-.93,3.71-2.6,3.53-.55-8.71-3.71-13.71-32.38-62.47-54.91-80S56.4,117.9,37.43,134.5s-18.08,30.83-18.08,30.83,18.08,2.07,24.3,6.81,14.23,5.93,16.6,2.66,4.15-6.82,2-9.09-5.6-4.94-3.46-8,5.07-10,9.61-9.34,5.2,4,5.2,4,2-3.6,3.6-3.74,7.2,2.67,7.47,5.21A17,17,0,0,0,86,158.63s7.87-1.06,9.61,1.08A6.15,6.15,0,0,1,97,164.24s-8.27,9.07-.8,10.54,12.67-.27,15.87,2.4l3.21,2.67s-10.28,5.33-8.14,9.33,7.33,7.61,11.07,8.54,1.06,2.94,4.67,3.6a32,32,0,0,1,3.86.81s.9,5.28-.82,7-5.25,2.73-2.47,4.82,3,1.59,3,3.43.5,3,1.63,3,5.07.06,5.07.06,2.33,4.53,4.56,6.06,2.13,2.56,1.19,3.08-2.56,1-2.65,2.22-.53,3.69,2.61,7.63,4.06,3.28,6.29,3.41,4.71-.39,4.58,3.28-.26,8.78-.26,8.78-.92,1.26,7.57,6.75,12.91,3.88,12.73,8.83-3.19,7.79,1.94,9.37,10.43,3.19,12.55.89,4.07-.89,4.6,1.06-4.6,1.77-.71,5.66,4.43,5.48,6.19,3.88,3-1.05,8.49-4.06-.36-3.71,5.66-2.83,2.29,4.06,6.53,4.6,12-6.74,15.9-10.86,11.29-11.84,21.2-15.42,21.47,8,25.87,4.4,15.69-40.18,16.52-54.5.27-23.11,3.58-25,7.42,8.26,7.42,9.36,5.78-4.68,5.78,4.41-3.3,31.09.83,29.72,14.31-17.89,14.31-26.42,1.38-11.84-1.65-11.84-14.31.82-11.56-2.48,9.55-7.69,12.09-11.11,2.29-8.76.74-10.06-2.11-.81-6.2,3.85-.44,6.58-6.45,5.34-11.1-1.86-12.46.31-6.46,7.09-7.26,7.15-2.8-3.48-4-4.17-.37-7.52-1.18-7.39-3.91-.62-3.16-3.05a15.14,15.14,0,0,1,3.28-5s-.51-16,.12-17.31a5,5,0,0,1,2.53-1.9s-1.77-3.93.77-4.18a5.89,5.89,0,0,1,3.66.51l11.2-13.71s10.69-1.52,11.37.34a4.66,4.66,0,0,0,4.41,3.07c1.69-.17,5.26.68,5.6,3.4s.17,4.59,2,4.59a40.46,40.46,0,0,1,5.44.68l4.07-4.76s-1.7-9.87.17-12.25,5.6,2.55,5.6,3.41-1.19,2.55,1.18,4.08,2.72,8.84,2.22,12.24-7.64,8.67-5.94,16.32,6.44,4.6,8.14,2.21,7.47-10,7.3-20.23,1.69-19.21,3.39-22.78,15.48-15.52,15.71-30,1.83-23.43-8-29.63-17.92-20-14-22.52S368.6,42.27,376,50.08s6.66,17.23,14.24,17.69,19.3-3.22,28-3.68,14.93-1.38,14.93-1.38,17.23-1.61,22.51-1.14,9,4.59,5.75,4.82-11.72,2.75-7.59,4.36,15.86,3.67,23,6,24.35,15.17,23.89,21.14S486.91,96,484.61,94.41s-13.33-8.5-19.3-10.1a53.92,53.92,0,0,1-9.16-3.22ZM759.22,258.54s13.82,5.32,15.14,13.82,0,26.57-3.18,26.57-10.9-5.85-10.9-10.89,1.06-7.18-1.33-11.43.27-18.07.27-18.07ZM645.74,452.44S636,468.65,634,484.87s1.62,38.92,2.43,43.38,5.68,36.09,13.38,36.09,24.33-6.89,23.11-16.22-2.84-13.79-4.87-24.73.81-35.68-4.46-47-7.29-17.43-12.56-20.68Z"/><path id="path38" class="cls-2" d="M490.55,38.91s17.23-8.27,58.9-1.79,63.2,9,96.24,41.73S708.9,140,717.51,167.38s8.62,34.53,10.42,48.21,4.31,35.63-.72,38.86-10.77.37-10.77.37,2.51-9.72-2.88-6.85.72,18.72.72,18.72,18.68,50.38,21.2,84.2-3.6,56.86-3.6,56.86,5.39,52.89,13.65,86,13.64,60.09,9,71.61-9.35,16.91-15.09,13.67-7.54,5.76-10.77,4.68-5.75-16.19-14-19.79-18.68,2.52-20.83,3.6-10.77,4.32-12.21-7.2,2.87-11.88,2.87-11.88l.72-22.31a12.44,12.44,0,0,1,11.49-7.55c8.63,0,15.81,0,14.73-3.6s-18-4-19.76-1.44-12.56,1.8-10.77-2.51,9-6.48,14.36-6.48,18.68.35,16.17-4-5-3.59-9.34-3.95-22.26,1.08-22.26-2.52,1.79-12.24,0-13.31-1.44-6.48,5.38-11.16,10.77-3.24,18,0,21.19,13.31,20.47,6.84-9.7-9-13.65-11.51-10.41-7.2-17.24-7.2-15.07,10.07-18,7.91S660.05,444.81,658.26,438s-2.6-15.72-10.18-24.64-12.31-12.05-12.31-8.65,8.38,11.8,2.62,13.11a8.2,8.2,0,0,1-9.95-7.34c0-3.67-22-22.56-25.12-24.13s-8.12-7.86-16-10.75-16.49-5.51-23.82-5.51-7.85,1.58-8.11,5.25.52,3.93-6.54,3.93-30.63-1.84-32.2,1.05-12.56,2.37-17.27,1.83S462,376.35,462,369.8s-1.57-17,3.93-19.41S502.8,357,512,360.1s29.84,5.24,43.45,2.09,19.63-3.41,28.79.27,31.8,10.85,36.7,14.36,12.61,6.66,7.71-.7-21-23.48-41.7-25.58-30.83,3.5-41.34,1.74-23.48,0-35-8.06-21.73-9.45-33.29-13-14-4.56-10.52-15.42,16.82-20.68,28-23.13,30.75-19.36,41-21.77,27.8-9.63,27.8-9.63-6.18-3.09-17.16-.34-50.1,18.56-50.79,20.63-6.18,6.19-12,6.19-1.37-6.19,2.74-9.29,7.55-17.19,7.22-19.6-3.1,2.76-8.24,7.92-6.87,12.71-12.36,12.71-3.43-6.53-4.12-8.93-6.17,3.1-7.89,6.54-8.58,23.72-9.26,35.06-3.1,24.42-3.1,34.39-4.43,33.75-16.68,48.66S413.83,420.82,413.83,416s-1.06-54.85-1.06-54.85-5.33,3.73-7.46,12.78,1.06,33,1.06,43.13-2.12,42.6-2.12,51.12-3.2,38.34-8,49-3.19,26.14-3.19,26.14,5.14,40.8,2.8,48.3S380,606.17,376.22,601s-.34-9.91-1.8-10.78-6.65,2.71-5.89,4.55a8.27,8.27,0,0,1-1.44,7.74c-2,2.61-3.38,4.15-5.8,2s-3.27-4.26-4.72-7.07-4.05-10.53-7.63-12.18-6.76-2.13-5.6-4.44,7.82-1.56,7.15-6.3-7.92-6.09-11.78-4.05.68,5.7.58,7.44a7.42,7.42,0,0,1-3.86,5.13c-1.74.67-7,1.44-8,4.06s-6.85,5.44-9.73,1.48-2.28-4.32-4.31-7.55-1.44-7.08,1.08-11.28,3-6,6.94-9.35,1.44-3.73,9.34-3.6,6,4.07,13.65,3.95,11.37-.72,10.41-3.11-3.59-5-6.47-4.56-3.81-.63-6.16-1.89-18,1.1-20.84-.94.32-4.38,3.45-4.38,22.56,2.18,23.82.46,1.72-2.5,5.17-2.5,6.89-4.39,3.76-5.33-24.44.79-28.68-.94-5.64-2.19-.47-3.29S358,535,355,530.56s-19.43-2.82-22.09-2.82-6,3.13-7.84-1.41A40.2,40.2,0,0,0,318.91,516c-2.22-2.78-3.15-3-2.22-4.82s.16-26.37,5.65-40.82,13.73-19.94,18.54-16.84,16.12,16.84,18.18,14.1-5.5-13.76-10-18.92-19.9-2.41-19.9-2.41-1.37-7.56,1-18.57,5.15-22.34,5.15-22.34,4.12-36.79,5.5-43,3.76-9.28,9.6-16.16,1.37-6.53-2.41-4.47-6.86,7.57-9.26,3.1,2.06-8.94,7.55-13.07,4.81-5.84,13.39-5.84,17.84,11.34,20.93,8.25-6.28-11.18-9.43-13.91-7.29-5.45-11.32-3.81-11.2,5.12-16,5.12-5.74-2.55-5.74-7.62-2.42-5.78-4-4.94-4.23,9.3-6.53,13.52-4.82,5.19-8.2,2.77-4.47-7.6-5.31-11.1-.85-11.83-4.1-11.46-3,17.74-3,20.27,4.35,7.48,3.62,10.26,2.65,7.12,6.16,10.38,5.55,10.13,3,11.82-7.61-8-9.06-4.46-2.27,7,.49,10.47.49,6.84,4.06,10.09,5.1-2,5.1,11.47-.49,26.65-.49,26.65-4.89,1.95-2.2,3.18,4.16,4.89,3.18,7.09-3.18.49-3.18,5.87,1,13,.24,13.94-2.69,7.58-5.38,7.58-4.64,1.46-4.89,3.91-2.41,9.64.31,13.41,4,6,2.46,7.28-5.7,13.79-6.19,19.66,2.93,12.72,2.2,19.32-5.62,6.85-2.69,12.47,5.63,20.54,2.69,22.75-2.54,10.29-6.6,10.45-15.28-1.47-15.6,3.43,11.86,5.86,8,10.41-14.79.49-16.58,4.07-3.74,7.34-6.18,4.74-4.39-2.94-4.39-7.34a23.65,23.65,0,0,1,5.53-14.33c3.42-3.75,7.31-5,7.15-11.08s4.88-6.67,2.6-10.43-3.08-5.86-2.92-7.81-.15-17-.15-17,13.94,1.91,10.09-2.41-10.33-.72-10.09-5-.48-12,4.8-14.43S298,486.59,292.71,482s-15.61,1.44-15.37-6.49,2.78-7,3.64-11.88a45.28,45.28,0,0,0,.32-10.4s-8.54-67.43-9.09-83.12-1.38-60.55.55-64.68,19.46-23.25,26.82-31.31,13-5.26,18.22,7,32.24,26.63,51.51,25.57a103,103,0,0,0,45.2-13.66c9.46-5.61,45.55-25.18,66.54-46s26.19-22,25.85-30.28,2-10.27,4-11.45,1.85,3.87,4,5.22,4.87,1.68,4.87-1.18-1-6.22.67-7.74,2.19,1.34,2-4.7.84-6.23,2.35-6.57S526,185,526,185s0-4.26,1.25-4.74,2.45.87,2.42-2.69-.16-5.13,1.16-5.84,1.68-5.18.72-7.39-3.25-3.6-3.25-4.42-.91-14.32,2.93-14.9,5.67-.39,5.19,6.15-.87,21.36,3.74,17.9,2.49-22.22,2.49-22.22-2.63-8.72-3.1-12.51-1.74-7-3.16-11.08,0-3.79-2.53-6-7.19-34.9-8.07-42-4-13.14-11.09-20.56-17.93-12-19.47-12.67a31.08,31.08,0,0,1-4.73-3.08ZM169.34,117.26s1.46,10.77,2.93,13,.49,27.64-1.72,32.77-2,10.28-3.66,13-2,8.81-2,8.81-9,16-10-.71.32-17,2.89-20.85,3.52-13.79,3.52-17.32,2.89-10.91,3.21-14.11-1.55-16.94,1.61-15.72l3.16,1.21Zm3.77-23.6s-4.59-1.33-5.12,4.24-1.23,13.36,2.12,12.55.88-7.42,2.39-8.39S175,99.4,175,96.67s-1.85-3-1.85-3ZM328,160.86s-2.23,3.67,0,4.31,2.72-3.2,2.56-4.15-2.56-.16-2.56-.16ZM614.61,417.57s-15.62-18.39-22-21.6-12.61-.21-8.55,3.42,15,15.82,13.05,21S586.8,419.28,586,418s-15.61-18.6-17.75-22.23a14.72,14.72,0,0,0-12.62-7.71c-6.62-.21-19.25.65-19,5.14s5.34,38.7,15.83,50.68,13.25,18,13.25,20.32S562.21,473,565,475.1s8.34,7.69,7,10.25-4.91,4.71-4.27,8.77-3.63,5.14-3.2,8.13-.22,24.16-.22,24.16,4.49,2.15,3.42,8.77-3.42,7.27-5.56,12.62-.85,8.55.43,9,3.2,1.71,5.13-.85a18,18,0,0,1,5.14-4.29l13-.21s9.83,12.84,12,12.84h8.13s2.57-6.85,5.13-4.92,7.27,11.76,10.27,11.33,8.12-11.76,8.12-11.76.86-11.76-.86-12.4-1.92-8.34-3.42-12.19-.64-21.61-3.63-24,.64-4.28,1.06-7.06,1.51-9.2-.42-10.69-1.92-7.49-3-9-3.42-5.77-3.42-5.77-9.4-21.18-4.91-26.31,4.91,4.27,8.55,6,5.77-2.57,4.49-4.92-3.2-7.7-3.2-11.55,1.91-2.14,4.48-.21,4.92,3.42,4.5-.22-5.35-10.47-7.28-12.82c1.93,2.35-7.9-10.27-7.9-10.27ZM770.8,187.46s-4.49,6.19-4.49,7.59v18.29c0,2.82-.29,4.22-1.41,4.22s-4.49-3.38-4.49,3.09,12.08,9,10.39,11.54-12.08,10.41-4.21,16,16.57,5.35,16.85,20.81,1.4,35.45-8.15,37.7-20.77-1.68-21.9-11-3.37-25.32-6.74-29.26S741,272.42,741,276.64s2.53,11.54,2.53,19.41,4.49,18.29,13.75,21.94,31.46.29,32.86-14.06,1.68-35.44-1.13-44.17-4.49-18.28-.84-22.22,3.08-20.26,2.53-25-6.75-4.22-6.75-4.22-4.22-16.34-7.49-19.92-5.7-.9-5.7-.9Zm-43.95,81.33a4.08,4.08,0,0,0-1,4.55c1.11,2.73,3.63,4.35,4.95,2.94s2.72-1.93,1.61-3.85a13.47,13.47,0,0,0-4-3.64ZM456.14,81.09s-18.28-4.82-40.41,3.52-21.82,9.31-22.45,20.53-11.23,21.49-12.51,26.63-1.61,11.55,3.2,14.11,23.1,7.38,28.88,17,2.56,10.59-.65,9.63-6.09-7.39-23.09-7.07-26.31,3.21-27.26,14.44,9,17.23,8.71,34.61-1.78,27.39-6.15,32.33-6.7,1.91-6.7-2.06,3.28-20.13-.4-30.12-14.76-7.54-14.76-7.54-3,6.3-6.84,14.38-12.41,45.9-7.88,54.15,7.41,7.43,10.92,6.39,10.29-5.15,11.93.63,7.42,17.08,22.14,9.72,17.87-14,17.87-14,4.91,7,8.76,6,9.46-15.77,9.46-15.77,2.45,10.52,9.46,8.41,16.81-10.51,17.17-15.07,3.5-9.11,7-7.36a11.82,11.82,0,0,0,15.77-4.9c4.56-7.71-.35-12.27,2.45-17.52s8.42,5.25,15.78,2.1,19.27-15.07,16.46-28-7.91-32.35-12.8-49.12-12.61-25.53-18.79-33.52,3.6-8.25,8.76-5.16,16.47,23.72,19,35.33,15.19,44.87,18.53,27.85,1.29-23.21,6.43-24,9-7,8.5-16.51-11.21-27.72-6.77-32.41,9.39-4,7.42-12-6.27-31-30.74-41.86S439.7,31.51,421,26.7s-49-6.24-78.15-9.14-62.14-12-89.59,0S210.44,40,211.4,50.3s-1.6,18-10.27,27.9-19.56,35-18.92,40.74,8.67,6.73,9,3.21-.63-11.23,3.21-18,6.42-5.46,8.66,5.77,1.49,8.93-1.22,13-6.94,13.53-1.73,13.53,24.9-2.51,36.1,2.72,16.79,11.59,15.25,15.85-2.7-1.93-14.48-5.61-29.92-8.12-39.38-2.89-15,13-13.13,22.43,5.6,5.61,6.57,2.9,3.08-4.45,7.72-5.22,20.66-.19,27,3.68,9.46,6.57,7.53,10.44-6.76-4.26-17.38-5.42-25.48,0-28.56,8.7-3.78,12.86-3.13,16.6,5.21,2.67,13.2,4.16,19.05,2.92,21.88,9.92,1.48,7,1.48,7-3.09-3.37-10-4.44-11.57-3.63-13,.27,2.56,3.76,4,7.53,2,4.33,2,4.33a31.24,31.24,0,0,1-5.56-.18c-3.51-.37-6.1,0-6.66.93s3.34,6.48-.19,7.78-6.67-5.38-11.67-6.68-5.19,0-5.55,3.15-.93,3.71-2.6,3.53-.55-8.71-3.71-13.71-32.38-62.47-54.91-80S56.4,117.9,37.42,134.5s-18.08,30.83-18.08,30.83,18.08,2.07,24.31,6.81,14.23,5.93,16.6,2.66,4.15-6.82,2-9.09-5.6-4.94-3.46-8,5.07-10,9.6-9.34,5.21,4,5.21,4,2-3.6,3.6-3.74,7.2,2.67,7.47,5.21A17,17,0,0,0,86,158.63s7.87-1.06,9.61,1.08A6.15,6.15,0,0,1,97,164.24s-8.27,9.07-.8,10.54,12.67-.27,15.87,2.4l3.21,2.67s-10.28,5.33-8.14,9.33,7.33,7.61,11.07,8.54,1.06,2.94,4.67,3.6a32,32,0,0,1,3.86.81s.89,5.28-.82,7-5.25,2.73-2.47,4.82,3,1.59,3,3.43.51,3,1.64,3,5.07.06,5.07.06,2.33,4.53,4.56,6.06,2.12,2.56,1.19,3.08-2.56,1-2.65,2.22-.53,3.69,2.61,7.63,4.06,3.28,6.29,3.41,4.7-.39,4.58,3.28-.26,8.78-.26,8.78-.92,1.26,7.56,6.75,12.91,3.88,12.74,8.83-3.19,7.79,1.94,9.37,10.43,3.19,12.55.89,4.07-.89,4.6,1.06-4.6,1.77-.71,5.66,4.43,5.48,6.19,3.88,3-1.05,8.48-4.06-.35-3.71,5.66-2.83,2.3,4.06,6.54,4.6,12-6.74,15.9-10.86,11.29-11.84,21.2-15.42,21.47,8,25.87,4.4S293.68,227,294.5,212.7s.28-23.11,3.59-25,7.42,8.26,7.42,9.36,5.78-4.68,5.78,4.41-3.3,31.09.83,29.72,14.31-17.89,14.31-26.42,1.38-11.84-1.65-11.84-14.31.82-11.56-2.48,9.54-7.69,12.09-11.11,2.29-8.76.74-10.06-2.11-.81-6.2,3.85-.44,6.58-6.45,5.34-11.11-1.86-12.47.31-6.45,7.09-7.25,7.15-2.8-3.48-4-4.17-.37-7.52-1.19-7.39-3.9-.62-3.16-3.05a15.27,15.27,0,0,1,3.29-5s-.51-16,.12-17.31a5,5,0,0,1,2.53-1.9s-1.77-3.93.76-4.18a5.92,5.92,0,0,1,3.67.51l11.19-13.71s10.7-1.52,11.38.34a4.66,4.66,0,0,0,4.41,3.07c1.69-.17,5.26.68,5.6,3.4s.17,4.59,2,4.59a40.46,40.46,0,0,1,5.44.68l4.07-4.76s-1.7-9.87.17-12.25,5.6,2.55,5.6,3.41-1.19,2.55,1.18,4.08,2.72,8.84,2.21,12.24-7.63,8.67-5.93,16.32,6.44,4.6,8.14,2.21,7.47-10,7.3-20.23,1.69-19.21,3.39-22.78,15.48-15.52,15.71-30,1.83-23.43-8-29.63-17.92-20-14-22.52S368.6,42.27,376,50.08s6.66,17.23,14.24,17.69,19.3-3.22,28-3.68,14.93-1.38,14.93-1.38,17.23-1.61,22.51-1.14,9,4.59,5.75,4.82-11.72,2.75-7.59,4.36,15.86,3.67,23,6,24.35,15.17,23.89,21.14S486.9,96,484.61,94.41s-13.33-8.5-19.3-10.1a54.31,54.31,0,0,1-9.17-3.22ZM170.53,75.25s-8.58,5-8.79,9.67.43,8.93-1.07,11.29-1.62,3.33-1.62,7.31-.31,5.9-1.6,7.09-2,1.18-2.15,3.65-.21,3-1.17,2.47-.75-4.62-1.4-5.15-2.89-1-3-3.34.75-9-1.29-11-2.89-3.76-2.79-8.28,2.68-4,3.76-5.69-.33-6.45,1-8.06,2-5.69,4.08-7.3,2.58-22.57,19.83-35,20.59-15.48,27.53-16.8,21.91-2.4,23.82,1.68-4.55,9.36-6.59,10.92-9.45,6.6-10.77,9.48-5.08,15-11.81,16.55-7.21-7.68-9.24-9.4-8.78-2.35-8.93,3,1.1,16.3-.16,18.8-7.6,8.14-7.6,8.14Z"/><path id="path40" class="cls-1" d="M591.3,521.71s-5.78-6.42-10.27-6-4.92,4.92-2.35,6,7.48,3.42,9.41,6.63,4.7,4.7,5.13,2.56a42.69,42.69,0,0,0,.43-6.2l-2.35-3Z"/><path id="path42" class="cls-1" d="M724.5,532.14s-2.88-4.46-12.3-4.46S703,536.86,707,537.91s9.43-.53,14.14-.53,3.4-5.24,3.4-5.24Z"/><path id="path44" class="cls-1" d="M715.34,550.76s-2.88-4.2-4.19-2.1-2.09,2.36-4.19,2.62-2.87.26-.78,2.88,5.76,2.63,6.81,1.06a42.57,42.57,0,0,0,2.35-4.46Z"/><path id="path46" class="cls-1" d="M728.43,458.18s-4.45-7.08-9.68-9.44-6.81,2.1-4.72,2.89,5.76,9.7,9.69,10.48,5.76-1.31,5.76-1.31Z"/><path id="path48" class="cls-1" d="M633.85,292.47s-14.11,16-40.09,23.42-63.2,17.64-57.1,19.24,24.38-2.24,43.62-1.28,49.08,1.93,61.91,37.53,14.43,39.77,18.6,39.77-1.92-41.06-14.75-59-31.43-22.45-21.81-34,16-21.49,14.11-26-4.49.32-4.49.32Z"/><path id="path50" class="cls-3" d="M710.44,572.53s-9.45-1.08-10.26,7.56,1.35,11.34,7.56,11.88,11.61-7,9.18-12.69-6.48-6.75-6.48-6.75ZM139.92,293.41A62.33,62.33,0,0,1,122,308.5c-11.31,6.29-18.54,12.26-22.63,12.26s-4.4.63-.63-5.66,27-29.24,29.56-30.18,7.85.94,7.85,2.52S139.92,293.41,139.92,293.41ZM249,275.8s-39.3,44.64-53.76,55.65S164.76,355.34,171,356.6s53.45-16,74.52-38.35,29.56-34.59,25.47-39.94-12.58-5-15.41-4.71a24.71,24.71,0,0,0-6.6,2.2Zm5,303.83s-7.68,5.76-4.19,7,11-.17,9.08-3.14a9.68,9.68,0,0,0-4.89-3.84Zm83.84,9.25s-7.68,1-8.38,10.31,5.41,15.89,11.18,14.15,10.82-9.61,8.91-13.1-3.85-8.39-6.29-10.13A7.89,7.89,0,0,0,337.89,588.88Zm-35.81-3s-6.81,4-5.94,11,12.93,6.64,14.15,5.94,1.75-5.07.87-8-4.19-6.11-5.58-7.16a14.6,14.6,0,0,0-3.5-1.75Zm-15.89-3.83s-11-.88-11.53,6.63,4.55,8.91,8.91,7.51,5.06-7.16,5.06-9.61.7-2.79-.87-3.66l-1.57-.87Zm266.2-24.46s3.49.52,1.58,5.59-1.75,9.43-5.07,8.56-5.06-5.94-4.37-9.44,4.19-5.94,5.24-5.94a6,6,0,0,1,2.62,1.23Zm29.35,1.92s-12.23,0-13.63,8.73,6.11,7.69,7.52,8.91,4.88,3.32,6.46,1.92,1.22-2.09,3.67-2.09,7-1.57,5.06-6.29-4.19-10.14-6.63-10.66l-2.45-.52Zm93.07,10.29s-14.58,4.59-9.45,11.87,9.18,11.07,12.14,7.84,3.79-5.67,3-10.8-5.67-8.91-5.67-8.91Z"/><path id="path52" class="cls-1" d="M675.55,214.63s-6.42,15-13,21-9.84,7.48-11.34,12.61-3.85,13.91-3.85,19.68,6.42,8.77,10,2.57,9.19-23.31,12-27.6,8-26.81,8-28.31S675.55,214.63,675.55,214.63Z"/><path id="path54" class="cls-1" d="M680.25,203.94s-3.63,1.07-2.14,3.63,2.78,1.08,2.78,1.08Z"/><path id="path56" class="cls-1" d="M574.82,50s-42.52-4.52-48.1-2.13S523.27,55,527,55s18.87,1.33,31.62,1.06,22-1.06,21.53-3.19S574.82,50,574.82,50Z"/><path id="path58" class="cls-1" d="M602.2,504.17s-8.55-13.68-14.54-18.18-10.91-6-10.91-.85,7.49,17.32,7.49,17.32,8.76,9.2,11.54,13.47,7.28,13.26,10.27,10.06,1.28-14.54-1.28-18.18l-2.57-3.64Z"/><path id="path60" class="cls-1" d="M314.38,46.63s8.5-12.86,14.94-10.33,3.67,10.33,2.06,12.4-7.35,6.89-3.21,17.69,7.11,21.36,2.53,22-12.41-4.36-17-11.48-5.74-19.76-2.53-25l3.22-5.29Zm50.76,22.5s-.73,9.53,1.36,11.73,4.2,3.57,4.2-.2.52-6.61-.95-8.49a12.14,12.14,0,0,0-4.61-3ZM276.79,48.46s-15-11.24-27-11.06-11.81,5.44-9.37,6.75,16.87,3.19,20.8,5.25,10.3,6.74,14.43,5.43,1.12-6.37,1.12-6.37Zm-11.24,42s-7.87.19-8.81,13.12S265,129,268.54,128.09s4.13-6.18,1.32-11.61-4.87-10.87-.94-15.74,4.88-7.31,3-9.37-6.37-.94-6.37-.94ZM237.24,110s-19.66-1.59-20,1.41,2.06,9.18,6,9.18,18.55,1.12,19.68-3.94-.57-5.8-1.88-6.18A21.77,21.77,0,0,0,237.24,110ZM223,194s-9.82-9.27-17.41-6.3-5.19,3-3.53,4.81,8.53.56,13,3.71,7.22,2.6,7.78,1.85S223,194,223,194Zm42.86,20s-5.87,14.67-4,22.14,3.19,3.6,4.4,3.2,1.73-8.41,3.19-11.08,5.07-9.86,2.94-13.34S265.81,214,265.81,214Z"/><path id="path62" class="cls-1" d="M446.94,188.69S419.5,210,415.81,221s-4.19,19.52-1.27,21.62,3.55-11.09,10-20.29,19-22.58,22.54-27.17,3.91-8.23,1.87-7.33l-2,.91Z"/><path id="path64" class="cls-1" d="M388.15,555.77s-2.82-4.8-5.69-5.28-3.47.48-4.55,1.2,3.83,1.44,3.59,2.52-2,1.68.6,2.64,3.83.48,3.35,3.6,2.51,4.8,3.47,3.47,3.35-3,2.16-4.67a37.24,37.24,0,0,0-2.93-3.48ZM363.3,502.51s-7.18-.6-5.86,2,7.66,8.51,10.29,11.27,5,2.89,6,1.8,2.27-3.11.83-4.31-11.25-10.8-11.25-10.8Zm19.34-29.93s-9.86-13.24-14.48-17.39-5.25,2.71-5.1,4.62,4.46,8.62,8.28,15.16,4.78,14.35,7.65,14.83,5.72-4.63,5.72-7-2.07-10.2-2.07-10.2Zm14.17-82.13s-.62-22.28-4.58-29.22-6.93-5.39-7.41-1.8,3.59,12.21,5.5,17.11,1.68,8.85,2.51,11,2.16,4.54,2.64,4.31A7.24,7.24,0,0,0,396.81,390.45Zm-44.93,106s-8.09-1.49-11.81-1,1.2,3.36,2,3.24,7.91.48,9.7,0S351.88,496.45,351.88,496.45Z"/></g></g></g></g></svg>