<svg id="svg10895" xmlns="http://www.w3.org/2000/svg" xmlns:xlink="http://www.w3.org/1999/xlink" viewBox="0 0 707.97 562.82"><defs><style>.cls-1{fill:none;}.cls-2{fill:#bfb2aa;stroke:#ff0;stroke-width:0.73px;}.cls-3{fill:#bc9872;}.cls-10,.cls-11,.cls-12,.cls-13,.cls-14,.cls-4,.cls-9{opacity:0.49;isolation:isolate;}.cls-4{fill:url(#pattern6584-6);}.cls-5{fill:#666;stroke:#f60;}.cls-5,.cls-6{stroke-width:0.6px;}.cls-6,.cls-7{fill:#fff9f5;stroke:red;}.cls-7{stroke-width:0.73px;}.cls-8{fill:#fff;stroke:#000;stroke-width:1.47px;}.cls-9{fill:url(#pattern6005-0);}.cls-10{fill:url(#pattern6676-6);}.cls-11{fill:url(#pattern6768-1);}.cls-12{fill:url(#pattern6300-3);}.cls-13{fill:url(#pattern6208-0);}.cls-14{fill:url(#pattern6116-4);}.cls-15{fill:url(#radial-gradient);}.cls-16{fill:url(#radial-gradient-2);}.cls-17{fill:url(#radial-gradient-3);}.cls-18{fill-opacity:0.3;}.cls-19{fill:url(#radial-gradient-4);}.cls-20,.cls-21{stroke:#9db68a;stroke-linecap:round;stroke-linejoin:bevel;}.cls-20{stroke-width:1.47px;}.cls-21{stroke-width:1.19px;}.cls-22{fill:#4f4b48;}</style><pattern id="pattern6584-6" data-name="pattern6584-6" width="845.52" height="562.82" patternTransform="matrix(0.35, 0.22, 1.48, -2.34, 1228.57, -1419.49)" patternUnits="userSpaceOnUse" viewBox="0 0 845.52 562.82"><rect class="cls-1" width="845.52" height="562.82"/></pattern><pattern id="pattern6005-0" data-name="pattern6005-0" width="845.52" height="562.82" patternTransform="matrix(6.19, 0, 0, -6.02, -846.52, -984.78)" patternUnits="userSpaceOnUse" viewBox="0 0 845.52 562.82"><rect class="cls-1" width="845.52" height="562.82"/></pattern><pattern id="pattern6676-6" data-name="pattern6676-6" width="8" height="8" patternTransform="matrix(3.01, 0, 0, -4.18, 555.43, 1247.82)" patternUnits="userSpaceOnUse" viewBox="0 0 8 8"><rect class="cls-1" width="8" height="8"/><circle id="circle5694-1" cx="2.05" cy="7.35" r="0.36"/><circle id="circle5696-3" cx="2.44" cy="6.14" r="0.36"/><circle id="circle5698-0" cx="3.53" cy="6.07" r="0.36"/><circle id="circle5700-0" cx="1.48" cy="5.58" r="0.36"/><circle id="circle5702-7" cx="4.86" cy="6.91" r="0.36"/><circle id="circle5704-3" cx="4.66" cy="4.47" r="0.36"/><circle id="circle5706-0" cx="3.44" cy="4.76" r="0.36"/><circle id="circle5708-9" cx="4.43" cy="5.56" r="0.36"/><circle id="circle5710-70" cx="3.83" cy="3.58" r="0.36"/><circle id="circle5712-9" cx="2.13" cy="3.85" r="0.36"/><circle id="circle5714-2" cx="6.37" cy="6.84" r="0.36"/><circle id="circle5716-34" cx="5.64" cy="3.96" r="0.36"/><circle id="circle5718-7" cx="3.47" cy="7.28" r="0.36"/><circle id="circle5720-4" cx="5.7" cy="7.73" r="0.36"/><circle id="circle5722-8" cx="7.64" cy="7.16" r="0.36"/><circle id="circle5724-5" cx="5.6" cy="5.85" r="0.36"/><circle id="circle5726-6" cx="7.13" cy="5.85" r="0.36"/><circle id="circle5728-3" cx="7.45" cy="4.47" r="0.36"/><circle id="circle5730-6" cx="6.26" cy="4.9" r="0.36"/><circle id="circle5732-5" cx="6.62" cy="3.24" r="0.36"/><circle id="circle5734-2" cx="6.38" cy="2.06" r="0.36"/><circle id="circle5736-3" cx="7.47" cy="1.54" r="0.36"/><circle id="circle5738-6" cx="6.56" cy="0.55" r="0.36"/><circle id="circle5740-5" cx="7.75" cy="0.42" r="0.36"/><circle id="circle5742-3" cx="7.75" cy="3.05" r="0.36"/><circle id="circle5744-1" cx="2.7" cy="2.96" r="0.36"/><circle id="circle5746-5" cx="2.3" cy="1.44" r="0.36"/><circle id="circle5748-9" cx="3.67" cy="1.02" r="0.36"/><circle id="circle5750-1" cx="2.54" cy="0.26" r="0.36"/><circle id="circle5752-9" cx="4.59" cy="2.15" r="0.36"/><circle id="circle5754-4" cx="5.37" cy="2.79" r="0.36"/><circle id="circle5756-1" cx="4.58" cy="0.26" r="0.36"/><circle id="circle5758-1" cx="5.23" cy="1.3" r="0.36"/><circle id="circle5760-1" cx="3.5" cy="2.28" r="0.36"/><circle id="circle5762-4" cx="0.5" cy="2.2" r="0.36"/><circle id="circle5764-2" cx="0.66" cy="3.46" r="0.36"/><circle id="circle5766-1" cx="1.01" cy="1.18" r="0.36"/><circle id="circle5768-3" cx="1.59" cy="2.5" r="0.36"/><circle id="circle5770-2" cx="0.3" cy="5.46" r="0.36"/><circle id="circle5772-2" cx="0.93" cy="6.67" r="0.36"/><circle id="circle5774-7" cx="0.92" cy="7.93" r="0.36"/><circle id="circle5776-5" cx="0.92" cy="-0.07" r="0.36"/><circle id="circle5778-6" cx="1.04" cy="4.44" r="0.36"/><circle id="circle5780-5" cx="2.44" cy="4.99" r="0.36"/></pattern><pattern id="pattern6768-1" data-name="pattern6768-1" width="8" height="8" patternTransform="matrix(2.08, 0, 0, -2.98, 948.49, 581.7)" patternUnits="userSpaceOnUse" viewBox="0 0 8 8"><rect class="cls-1" width="8" height="8"/><circle id="circle5694-1-2" data-name="circle5694-1" cx="2.05" cy="7.35" r="0.36"/><circle id="circle5696-3-2" data-name="circle5696-3" cx="2.44" cy="6.14" r="0.36"/><circle id="circle5698-0-2" data-name="circle5698-0" cx="3.53" cy="6.07" r="0.36"/><circle id="circle5700-0-2" data-name="circle5700-0" cx="1.48" cy="5.58" r="0.36"/><circle id="circle5702-7-2" data-name="circle5702-7" cx="4.86" cy="6.91" r="0.36"/><circle id="circle5704-3-2" data-name="circle5704-3" cx="4.66" cy="4.47" r="0.36"/><circle id="circle5706-0-2" data-name="circle5706-0" cx="3.44" cy="4.76" r="0.36"/><circle id="circle5708-9-2" data-name="circle5708-9" cx="4.43" cy="5.56" r="0.36"/><circle id="circle5710-70-2" data-name="circle5710-70" cx="3.83" cy="3.58" r="0.36"/><circle id="circle5712-9-2" data-name="circle5712-9" cx="2.13" cy="3.85" r="0.36"/><circle id="circle5714-2-2" data-name="circle5714-2" cx="6.37" cy="6.84" r="0.36"/><circle id="circle5716-34-2" data-name="circle5716-34" cx="5.64" cy="3.96" r="0.36"/><circle id="circle5718-7-2" data-name="circle5718-7" cx="3.47" cy="7.28" r="0.36"/><circle id="circle5720-4-2" data-name="circle5720-4" cx="5.7" cy="7.73" r="0.36"/><circle id="circle5722-8-2" data-name="circle5722-8" cx="7.64" cy="7.16" r="0.36"/><circle id="circle5724-5-2" data-name="circle5724-5" cx="5.6" cy="5.85" r="0.36"/><circle id="circle5726-6-2" data-name="circle5726-6" cx="7.13" cy="5.85" r="0.36"/><circle id="circle5728-3-2" data-name="circle5728-3" cx="7.45" cy="4.47" r="0.36"/><circle id="circle5730-6-2" data-name="circle5730-6" cx="6.26" cy="4.9" r="0.36"/><circle id="circle5732-5-2" data-name="circle5732-5" cx="6.62" cy="3.24" r="0.36"/><circle id="circle5734-2-2" data-name="circle5734-2" cx="6.38" cy="2.06" r="0.36"/><circle id="circle5736-3-2" data-name="circle5736-3" cx="7.47" cy="1.54" r="0.36"/><circle id="circle5738-6-2" data-name="circle5738-6" cx="6.56" cy="0.55" r="0.36"/><circle id="circle5740-5-2" data-name="circle5740-5" cx="7.75" cy="0.42" r="0.36"/><circle id="circle5742-3-2" data-name="circle5742-3" cx="7.75" cy="3.05" r="0.36"/><circle id="circle5744-1-2" data-name="circle5744-1" cx="2.7" cy="2.96" r="0.36"/><circle id="circle5746-5-2" data-name="circle5746-5" cx="2.3" cy="1.44" r="0.36"/><circle id="circle5748-9-2" data-name="circle5748-9" cx="3.67" cy="1.02" r="0.36"/><circle id="circle5750-1-2" data-name="circle5750-1" cx="2.54" cy="0.26" r="0.36"/><circle id="circle5752-9-2" data-name="circle5752-9" cx="4.59" cy="2.15" r="0.36"/><circle id="circle5754-4-2" data-name="circle5754-4" cx="5.37" cy="2.79" r="0.36"/><circle id="circle5756-1-2" data-name="circle5756-1" cx="4.58" cy="0.26" r="0.36"/><circle id="circle5758-1-2" data-name="circle5758-1" cx="5.23" cy="1.3" r="0.36"/><circle id="circle5760-1-2" data-name="circle5760-1" cx="3.5" cy="2.28" r="0.36"/><circle id="circle5762-4-2" data-name="circle5762-4" cx="0.5" cy="2.2" r="0.36"/><circle id="circle5764-2-2" data-name="circle5764-2" cx="0.66" cy="3.46" r="0.36"/><circle id="circle5766-1-2" data-name="circle5766-1" cx="1.01" cy="1.18" r="0.36"/><circle id="circle5768-3-2" data-name="circle5768-3" cx="1.59" cy="2.5" r="0.36"/><circle id="circle5770-2-2" data-name="circle5770-2" cx="0.3" cy="5.46" r="0.36"/><circle id="circle5772-2-2" data-name="circle5772-2" cx="0.93" cy="6.67" r="0.36"/><circle id="circle5774-7-2" data-name="circle5774-7" cx="0.92" cy="7.93" r="0.36"/><circle id="circle5776-5-2" data-name="circle5776-5" cx="0.92" cy="-0.07" r="0.36"/><circle id="circle5778-6-2" data-name="circle5778-6" cx="1.04" cy="4.44" r="0.36"/><circle id="circle5780-5-2" data-name="circle5780-5" cx="2.44" cy="4.99" r="0.36"/></pattern><pattern id="pattern6300-3" data-name="pattern6300-3" width="8" height="8" patternTransform="matrix(4.5, 0, 0, -5.44, 893.65, 1096.62)" patternUnits="userSpaceOnUse" viewBox="0 0 8 8"><rect class="cls-1" width="8" height="8"/><circle id="circle5694-1-3" data-name="circle5694-1" cx="2.05" cy="7.35" r="0.36"/><circle id="circle5696-3-3" data-name="circle5696-3" cx="2.44" cy="6.14" r="0.36"/><circle id="circle5698-0-3" data-name="circle5698-0" cx="3.53" cy="6.07" r="0.36"/><circle id="circle5700-0-3" data-name="circle5700-0" cx="1.48" cy="5.58" r="0.36"/><circle id="circle5702-7-3" data-name="circle5702-7" cx="4.86" cy="6.91" r="0.36"/><circle id="circle5704-3-3" data-name="circle5704-3" cx="4.66" cy="4.47" r="0.36"/><circle id="circle5706-0-3" data-name="circle5706-0" cx="3.44" cy="4.76" r="0.36"/><circle id="circle5708-9-3" data-name="circle5708-9" cx="4.43" cy="5.56" r="0.36"/><circle id="circle5710-70-3" data-name="circle5710-70" cx="3.83" cy="3.58" r="0.36"/><circle id="circle5712-9-3" data-name="circle5712-9" cx="2.13" cy="3.85" r="0.36"/><circle id="circle5714-2-3" data-name="circle5714-2" cx="6.37" cy="6.84" r="0.36"/><circle id="circle5716-34-3" data-name="circle5716-34" cx="5.64" cy="3.96" r="0.36"/><circle id="circle5718-7-3" data-name="circle5718-7" cx="3.47" cy="7.28" r="0.36"/><circle id="circle5720-4-3" data-name="circle5720-4" cx="5.7" cy="7.73" r="0.36"/><circle id="circle5722-8-3" data-name="circle5722-8" cx="7.64" cy="7.16" r="0.36"/><circle id="circle5724-5-3" data-name="circle5724-5" cx="5.6" cy="5.85" r="0.36"/><circle id="circle5726-6-3" data-name="circle5726-6" cx="7.13" cy="5.85" r="0.36"/><circle id="circle5728-3-3" data-name="circle5728-3" cx="7.45" cy="4.47" r="0.36"/><circle id="circle5730-6-3" data-name="circle5730-6" cx="6.26" cy="4.9" r="0.36"/><circle id="circle5732-5-3" data-name="circle5732-5" cx="6.62" cy="3.24" r="0.36"/><circle id="circle5734-2-3" data-name="circle5734-2" cx="6.38" cy="2.06" r="0.36"/><circle id="circle5736-3-3" data-name="circle5736-3" cx="7.47" cy="1.54" r="0.36"/><circle id="circle5738-6-3" data-name="circle5738-6" cx="6.56" cy="0.55" r="0.36"/><circle id="circle5740-5-3" data-name="circle5740-5" cx="7.75" cy="0.42" r="0.36"/><circle id="circle5742-3-3" data-name="circle5742-3" cx="7.75" cy="3.05" r="0.36"/><circle id="circle5744-1-3" data-name="circle5744-1" cx="2.7" cy="2.96" r="0.36"/><circle id="circle5746-5-3" data-name="circle5746-5" cx="2.3" cy="1.44" r="0.36"/><circle id="circle5748-9-3" data-name="circle5748-9" cx="3.67" cy="1.02" r="0.36"/><circle id="circle5750-1-3" data-name="circle5750-1" cx="2.54" cy="0.26" r="0.36"/><circle id="circle5752-9-3" data-name="circle5752-9" cx="4.59" cy="2.15" r="0.36"/><circle id="circle5754-4-3" data-name="circle5754-4" cx="5.37" cy="2.79" r="0.36"/><circle id="circle5756-1-3" data-name="circle5756-1" cx="4.58" cy="0.26" r="0.36"/><circle id="circle5758-1-3" data-name="circle5758-1" cx="5.23" cy="1.3" r="0.36"/><circle id="circle5760-1-3" data-name="circle5760-1" cx="3.5" cy="2.28" r="0.36"/><circle id="circle5762-4-3" data-name="circle5762-4" cx="0.5" cy="2.2" r="0.36"/><circle id="circle5764-2-3" data-name="circle5764-2" cx="0.66" cy="3.46" r="0.36"/><circle id="circle5766-1-3" data-name="circle5766-1" cx="1.01" cy="1.18" r="0.36"/><circle id="circle5768-3-3" data-name="circle5768-3" cx="1.59" cy="2.5" r="0.36"/><circle id="circle5770-2-3" data-name="circle5770-2" cx="0.3" cy="5.46" r="0.36"/><circle id="circle5772-2-3" data-name="circle5772-2" cx="0.93" cy="6.67" r="0.36"/><circle id="circle5774-7-3" data-name="circle5774-7" cx="0.92" cy="7.93" r="0.36"/><circle id="circle5776-5-3" data-name="circle5776-5" cx="0.92" cy="-0.07" r="0.36"/><circle id="circle5778-6-3" data-name="circle5778-6" cx="1.04" cy="4.44" r="0.36"/><circle id="circle5780-5-3" data-name="circle5780-5" cx="2.44" cy="4.99" r="0.36"/></pattern><pattern id="pattern6208-0" data-name="pattern6208-0" width="8" height="8" patternTransform="matrix(4.45, 0, 0, -4.93, 463.03, 1560.24)" patternUnits="userSpaceOnUse" viewBox="0 0 8 8"><rect class="cls-1" width="8" height="8"/><circle id="circle5694-1-4" data-name="circle5694-1" cx="2.05" cy="7.35" r="0.36"/><circle id="circle5696-3-4" data-name="circle5696-3" cx="2.44" cy="6.14" r="0.36"/><circle id="circle5698-0-4" data-name="circle5698-0" cx="3.53" cy="6.07" r="0.36"/><circle id="circle5700-0-4" data-name="circle5700-0" cx="1.48" cy="5.58" r="0.36"/><circle id="circle5702-7-4" data-name="circle5702-7" cx="4.86" cy="6.91" r="0.36"/><circle id="circle5704-3-4" data-name="circle5704-3" cx="4.66" cy="4.47" r="0.36"/><circle id="circle5706-0-4" data-name="circle5706-0" cx="3.44" cy="4.76" r="0.36"/><circle id="circle5708-9-4" data-name="circle5708-9" cx="4.43" cy="5.56" r="0.36"/><circle id="circle5710-70-4" data-name="circle5710-70" cx="3.83" cy="3.58" r="0.36"/><circle id="circle5712-9-4" data-name="circle5712-9" cx="2.13" cy="3.85" r="0.36"/><circle id="circle5714-2-4" data-name="circle5714-2" cx="6.37" cy="6.84" r="0.36"/><circle id="circle5716-34-4" data-name="circle5716-34" cx="5.64" cy="3.96" r="0.36"/><circle id="circle5718-7-4" data-name="circle5718-7" cx="3.47" cy="7.28" r="0.36"/><circle id="circle5720-4-4" data-name="circle5720-4" cx="5.7" cy="7.73" r="0.36"/><circle id="circle5722-8-4" data-name="circle5722-8" cx="7.64" cy="7.16" r="0.36"/><circle id="circle5724-5-4" data-name="circle5724-5" cx="5.6" cy="5.85" r="0.36"/><circle id="circle5726-6-4" data-name="circle5726-6" cx="7.13" cy="5.85" r="0.36"/><circle id="circle5728-3-4" data-name="circle5728-3" cx="7.45" cy="4.47" r="0.36"/><circle id="circle5730-6-4" data-name="circle5730-6" cx="6.26" cy="4.9" r="0.36"/><circle id="circle5732-5-4" data-name="circle5732-5" cx="6.62" cy="3.24" r="0.36"/><circle id="circle5734-2-4" data-name="circle5734-2" cx="6.38" cy="2.06" r="0.36"/><circle id="circle5736-3-4" data-name="circle5736-3" cx="7.47" cy="1.54" r="0.36"/><circle id="circle5738-6-4" data-name="circle5738-6" cx="6.56" cy="0.55" r="0.36"/><circle id="circle5740-5-4" data-name="circle5740-5" cx="7.75" cy="0.42" r="0.36"/><circle id="circle5742-3-4" data-name="circle5742-3" cx="7.75" cy="3.05" r="0.36"/><circle id="circle5744-1-4" data-name="circle5744-1" cx="2.7" cy="2.96" r="0.36"/><circle id="circle5746-5-4" data-name="circle5746-5" cx="2.3" cy="1.44" r="0.36"/><circle id="circle5748-9-4" data-name="circle5748-9" cx="3.67" cy="1.02" r="0.36"/><circle id="circle5750-1-4" data-name="circle5750-1" cx="2.54" cy="0.26" r="0.36"/><circle id="circle5752-9-4" data-name="circle5752-9" cx="4.59" cy="2.15" r="0.36"/><circle id="circle5754-4-4" data-name="circle5754-4" cx="5.37" cy="2.79" r="0.36"/><circle id="circle5756-1-4" data-name="circle5756-1" cx="4.58" cy="0.26" r="0.36"/><circle id="circle5758-1-4" data-name="circle5758-1" cx="5.23" cy="1.3" r="0.36"/><circle id="circle5760-1-4" data-name="circle5760-1" cx="3.5" cy="2.28" r="0.36"/><circle id="circle5762-4-4" data-name="circle5762-4" cx="0.5" cy="2.2" r="0.36"/><circle id="circle5764-2-4" data-name="circle5764-2" cx="0.66" cy="3.46" r="0.36"/><circle id="circle5766-1-4" data-name="circle5766-1" cx="1.01" cy="1.18" r="0.36"/><circle id="circle5768-3-4" data-name="circle5768-3" cx="1.59" cy="2.5" r="0.36"/><circle id="circle5770-2-4" data-name="circle5770-2" cx="0.3" cy="5.46" r="0.36"/><circle id="circle5772-2-4" data-name="circle5772-2" cx="0.93" cy="6.67" r="0.36"/><circle id="circle5774-7-4" data-name="circle5774-7" cx="0.92" cy="7.93" r="0.36"/><circle id="circle5776-5-4" data-name="circle5776-5" cx="0.92" cy="-0.07" r="0.36"/><circle id="circle5778-6-4" data-name="circle5778-6" cx="1.04" cy="4.44" r="0.36"/><circle id="circle5780-5-4" data-name="circle5780-5" cx="2.44" cy="4.99" r="0.36"/></pattern><pattern id="pattern6116-4" data-name="pattern6116-4" width="8" height="8" patternTransform="matrix(5.35, 0, 0, -5.35, 243.11, 1234.58)" patternUnits="userSpaceOnUse" viewBox="0 0 8 8"><rect class="cls-1" width="8" height="8"/><circle id="circle5694-1-5" data-name="circle5694-1" cx="2.05" cy="7.35" r="0.36"/><circle id="circle5696-3-5" data-name="circle5696-3" cx="2.44" cy="6.14" r="0.36"/><circle id="circle5698-0-5" data-name="circle5698-0" cx="3.53" cy="6.07" r="0.36"/><circle id="circle5700-0-5" data-name="circle5700-0" cx="1.48" cy="5.58" r="0.36"/><circle id="circle5702-7-5" data-name="circle5702-7" cx="4.86" cy="6.91" r="0.36"/><circle id="circle5704-3-5" data-name="circle5704-3" cx="4.66" cy="4.47" r="0.36"/><circle id="circle5706-0-5" data-name="circle5706-0" cx="3.44" cy="4.76" r="0.36"/><circle id="circle5708-9-5" data-name="circle5708-9" cx="4.43" cy="5.56" r="0.36"/><circle id="circle5710-70-5" data-name="circle5710-70" cx="3.83" cy="3.58" r="0.36"/><circle id="circle5712-9-5" data-name="circle5712-9" cx="2.13" cy="3.85" r="0.36"/><circle id="circle5714-2-5" data-name="circle5714-2" cx="6.37" cy="6.84" r="0.36"/><circle id="circle5716-34-5" data-name="circle5716-34" cx="5.64" cy="3.96" r="0.36"/><circle id="circle5718-7-5" data-name="circle5718-7" cx="3.47" cy="7.28" r="0.36"/><circle id="circle5720-4-5" data-name="circle5720-4" cx="5.7" cy="7.73" r="0.36"/><circle id="circle5722-8-5" data-name="circle5722-8" cx="7.64" cy="7.16" r="0.36"/><circle id="circle5724-5-5" data-name="circle5724-5" cx="5.6" cy="5.85" r="0.36"/><circle id="circle5726-6-5" data-name="circle5726-6" cx="7.13" cy="5.85" r="0.36"/><circle id="circle5728-3-5" data-name="circle5728-3" cx="7.45" cy="4.47" r="0.36"/><circle id="circle5730-6-5" data-name="circle5730-6" cx="6.26" cy="4.9" r="0.36"/><circle id="circle5732-5-5" data-name="circle5732-5" cx="6.62" cy="3.24" r="0.36"/><circle id="circle5734-2-5" data-name="circle5734-2" cx="6.38" cy="2.06" r="0.36"/><circle id="circle5736-3-5" data-name="circle5736-3" cx="7.47" cy="1.54" r="0.36"/><circle id="circle5738-6-5" data-name="circle5738-6" cx="6.56" cy="0.55" r="0.36"/><circle id="circle5740-5-5" data-name="circle5740-5" cx="7.75" cy="0.42" r="0.36"/><circle id="circle5742-3-5" data-name="circle5742-3" cx="7.75" cy="3.05" r="0.36"/><circle id="circle5744-1-5" data-name="circle5744-1" cx="2.7" cy="2.96" r="0.36"/><circle id="circle5746-5-5" data-name="circle5746-5" cx="2.3" cy="1.44" r="0.36"/><circle id="circle5748-9-5" data-name="circle5748-9" cx="3.67" cy="1.02" r="0.36"/><circle id="circle5750-1-5" data-name="circle5750-1" cx="2.54" cy="0.26" r="0.36"/><circle id="circle5752-9-5" data-name="circle5752-9" cx="4.59" cy="2.15" r="0.36"/><circle id="circle5754-4-5" data-name="circle5754-4" cx="5.37" cy="2.79" r="0.36"/><circle id="circle5756-1-5" data-name="circle5756-1" cx="4.58" cy="0.26" r="0.36"/><circle id="circle5758-1-5" data-name="circle5758-1" cx="5.23" cy="1.3" r="0.36"/><circle id="circle5760-1-5" data-name="circle5760-1" cx="3.5" cy="2.28" r="0.36"/><circle id="circle5762-4-5" data-name="circle5762-4" cx="0.5" cy="2.2" r="0.36"/><circle id="circle5764-2-5" data-name="circle5764-2" cx="0.66" cy="3.46" r="0.36"/><circle id="circle5766-1-5" data-name="circle5766-1" cx="1.01" cy="1.18" r="0.36"/><circle id="circle5768-3-5" data-name="circle5768-3" cx="1.59" cy="2.5" r="0.36"/><circle id="circle5770-2-5" data-name="circle5770-2" cx="0.3" cy="5.46" r="0.36"/><circle id="circle5772-2-5" data-name="circle5772-2" cx="0.93" cy="6.67" r="0.36"/><circle id="circle5774-7-5" data-name="circle5774-7" cx="0.92" cy="7.93" r="0.36"/><circle id="circle5776-5-5" data-name="circle5776-5" cx="0.92" cy="-0.07" r="0.36"/><circle id="circle5778-6-5" data-name="circle5778-6" cx="1.04" cy="4.44" r="0.36"/><circle id="circle5780-5-5" data-name="circle5780-5" cx="2.44" cy="4.99" r="0.36"/></pattern><radialGradient id="radial-gradient" cx="-1002.93" cy="-350.92" r="22.85" gradientTransform="matrix(2.9, 1.16, 2.15, -5.4, 3882.38, -616.24)" gradientUnits="userSpaceOnUse"><stop offset="0" stop-opacity="0.66"/><stop offset="1" stop-opacity="0"/></radialGradient><radialGradient id="radial-gradient-2" cx="-1727.23" cy="-439.82" r="19.97" gradientTransform="matrix(-4.48, 3.14, 9.59, 13.68, -3243.96, 11684.86)" xlink:href="#radial-gradient"/><radialGradient id="radial-gradient-3" cx="-1019.49" cy="-440.42" r="30.34" gradientTransform="matrix(3.78, 0.2, 0.2, -3.81, 4427.93, -1135.12)" xlink:href="#radial-gradient"/><radialGradient id="radial-gradient-4" cx="-1929.25" cy="-517.99" r="13.18" gradientTransform="matrix(-3.2, -0.48, -3.06, 20.35, -7602.34, 9835.82)" xlink:href="#radial-gradient"/></defs><title>elephant 03</title><g id="g6177"><path id="path6179" class="cls-2" d="M248.44,495.5l-.79-70.22c-21-26.89-20-63.54-30-95.3l-7.09-37.21,2.11-33.85H193.41c8.91-11,14.78-23.27,15.9-37.6-16.95,9.18-28.59,8.22-35.52-5.88-1.86,17.38-21.56,46.71-50.6,50.13l-13,109.08c-7.52,22.29-10.28,47.17-30.54,63.09-12.56,9-24.51,12.67-35.95,11.68-3.53,7.37-9.37,2-15-2.52-13,7.49-11.94-.73-15.88-3.35l3.36-16.72c-9.83-.38-5.61-7.78-5-13.37l15.05-6.68,16.71,8.37c9.75,4.09,14.29-9.25,17.57-19.22C61,356,61.58,318.43,62.17,275.56l8.37-35.11c-8.37,7.42-13.91,16.73-28.43,20.05-20.41,4.22-31.34-8-37.6-15.9,24.93-5.79,46.62-15.14,59.36-34.24-6.65-1.71-9-7.73-12.53-12.55,2-7.06,7-13.54,20.07-18.38-12-24.37-20.5-55.9-25-92C45.4,66,56.86,47.6,64,28.14c11.4-8,5.33-18.37,38.46-23.39,15.15.9,19.1,8.5,23.4,15.9C137,15.87,141.8,10,165.13,7.29L203.57,23.2c19.56-6.54,35.54-14.57,67.72-15.85C300.19,7,321.49,16.78,344,25c11.7,8.09,20.92,21.11,35.09,24.26C387.66,56,404,59.48,420.88,55.92l79-20c29.15-3.39,52,6.59,72.29,15.51,29,19,59.41,41.59,80.2,71.51l35.91,61A166.89,166.89,0,0,1,700,240.81c-3.28,14.55-7.38,26.61-9.63,42.2-7.46,18.58-1.74,36.09-1.28,43.89,1.65,23.75,1.69,47.1,7.48,71.89l9.18,36.78c1.28,8.75-4.45,6.27-8.37,6.68l4.17,18-13.37-4.61-15,13.37c-4.08-3.08-6-8.82-4.58-28.42l-6.27-3.35c7.78-11.88,16-22.57,18.42-48.47l-10.84-57.68c-2.55-14.13-3.73-30.33,2.54-57.68,9.7-19.32.32-29.13,0-43.46-13.5,50.28-43.47,95.61-67,142.89-4.49,12.27-1.47,21.54-.85,31.77,10.19,23,23.24,43.06,28.38,71.06-1.12,9.57,2,17.71-5,29.26-13.74,7.68-26.67,8.12-39.29,5.83l-12.55,15.87c-7,9.24-13.93,10-20.9,11.69-11.56,4.14-17.23.06-23.4-3.36-12.46,7.89-17.79,1.57-22.57-5.86-5.85,0-11.71,10.54-17.55-10.88,1.75-12.2,8.73-25.71,32.63-43.44,8.84-20.67,18.74-40.13,20.1-69.37-12.2-29.86-25.94-56.24-42.59-76.09-32.65,5.59-44.4-5.22-62.69-10.9l-3.36,41.79,9.17,38.46-.86,37.61c6.26,11.26,5.89,27.23,19.21,33.45,7.24,12.26,16.21,20.58,14.19,39.29.45,8.06-6.46,18.89-17.57,26.74-12.39,6.1-19.85,4.33-26.75,1.66-15.5,8.27-21.95,1.45-27.58-6.71-13.41,5.15-15.39-4.93-19.22-12.55l12.55-18.38c8.62-9.74,3.42-19.5-3.33-29.26-9.26-7.63-14.31-25.76-19.2-44.31-1.4-20.47-7.26-42.53-24.2-68.55L333,325.86l0-25.49c-9-6.29-18.37-12.29-26.75-9.21l-5.07,98.21,14.16,95.3L326.17,519c-.89,11.82-11.51,18.76-18.41,27.57l-14.63,6.26c-9.43,5.71-16.87-.08-22.15-4.61-8.36,3.06-16.72,4.52-25.07-6.7-10.95,2.51-20.45,2.31-22.56-11.71,1.45-9.27,3.06-17.89,6.7-18.39Z"/><path id="path6181" class="cls-3" d="M680.24,387.91c7.94,5,13.79,2.52,13.79,2.52l10.84,47.23c1.65,7.17-3.53,4.77-7.11,4.59-.6,2.14.48,7,5.42,18-5.15,2.1-10.3-.47-15.46-5l-15.05,12.53c-11.24-9.61-4.78-18.81-3.75-28.42l-6.68-.84,1.25-5C673.61,420.8,680.14,406.14,680.24,387.91Z"/><path id="path6183" class="cls-4" d="M680.24,387.91c7.94,5,13.79,2.52,13.79,2.52l10.84,47.23c1.65,7.17-3.53,4.77-7.11,4.59-.6,2.14.48,7,5.42,18-5.15,2.1-10.3-.47-15.46-5l-15.05,12.53c-11.24-9.61-4.78-18.81-3.75-28.42l-6.68-.84,1.25-5C673.61,420.8,680.14,406.14,680.24,387.91Z"/><path id="path6185" class="cls-5" d="M22.94,428.36c-11.24-.66-7.81,7.67-10,12.53l4.17,8.36,12.54-2.5,10.45,6.69,5.23-7.52c1.6-8.93-.24-10.15-.62-14.63-3.7-4.05-7.87-4.82-12.12-5-1,2.91-6.13,1.67-9.61,2.09Z"/><path id="path6187" class="cls-6" d="M492.86,510.89l.41,16.72c7.54,6,8.59,2.25,15,1.68,7.36,3.31.81,14.55,24.24,5.87,4.64,3.77,17.69,6.57,25.49,2.94.4-6.83-1.18-9.06-6.26-16.31-6.77-2-14.95-2.47-19.64,5.42-.55-8.05-5.06-6.86-8.78-7.52-4.84-1.23-6.57.52-12.54,3.75-.68-3.58,2.79-12.09-4.17-14.63C501.2,506.67,499.36,508.87,492.86,510.89Z"/><path id="path6189" class="cls-6" d="M224.75,520.83l-.43,15.89c7.54,6,14,5.59,20.48,5,7.51,3.22,9.39,12.06,23.82,8.37,8.82,2.52,16.85,5.33,24.65,1.69.4-6.83-4.52-13.66-7.09-20.48-6.35-4.89-11.6-5-14.63,4.59L263.62,525c-4.85-1.23-9.92.94-15.89,4.17-.69-3.58.28-8.34-6.68-10.87C235.6,516.19,231.25,518.8,224.75,520.83Z"/><path id="path6191" class="cls-6" d="M389.63,513.34l-2.1,12.12c7.54,6,11.51,8.1,18,7.53,7.09,7,12.31,11.65,26.74,4.62,8.83,2.52,16.44.72,24.25-2.92.39-6.82-2-4.87-4.6-11.7-6.35-4.88-16.2-2.06-19.23,7.51l-7.09-11.7c-4.85-1.23-8.67-1.15-14.63,2.08-1.94-2.75-2.62-4.88-7.52-8.78C398,510,396.13,511.31,389.63,513.34Z"/><path id="path6193" class="cls-7" d="M63.6,210.21c-13.32,19.87-38.17,25.64-61,33.82C11.32,255.57,21.12,258.8,31,261.6,43.79,261,56.61,253,69.43,242.4l2.95-34.27Z"/><path id="path6195" class="cls-7" d="M85.31,241.15c19.48,4.07,32,2,42.63-1.65,14.08-6.8,14.81-18.61,20.92-28.4-2.91-6,4.52-9,12.54-11.7,9.13,6.14,13.43,12.82,12.53,20.07-5.47,17.43-14.61,29.36-26.77,36.76-7.56,4.58-16.18,7.89-29.26,5.84C96,260.62,95.38,248.52,85.31,241.15Z"/><path id="path6197" class="cls-8" d="M177.18,128.5c-.15-6.48,3.27-11.18,7.53-15.45,9.28-6.16,14.83-2.39,20.9,0-3,2.85-3.37,6-9.62,12.11C189.7,132.41,182.46,128.37,177.18,128.5Z"/><path id="path6199" class="cls-8" d="M76.05,109.22c10.78-2.71,14.43,4.74,17.55,13-9.4,4.71-12.69,2.12-16.72.41Z"/><path id="path6201" class="cls-9" d="M414.18,192.5c23.63,21.29,30.08,56.31,70.89,63.87,38.49,6.39,46.26-9,70.95-41.33,20.72-14.41,36.75-20.14,49.66-20.07-22.08,34.27-55.34,57.36-66.25,102.81l-1.9,25.51c-47.55,12.51-69.16,4.51-101-6.66.16-16.3,2.28-30.65-2.75-52.14-4.9-25.4-13.86-38.61-20.83-57.81-4.07-10.09-5.79-17.36,1.19-14.18Z"/><path id="path6203" class="cls-10" d="M500.4,332c17.46,23.29,35,46.44,44.87,82.77l6.64-55.61c-5.26-19.45-9.66-32.61-16-35.42Z"/><path id="path6205" class="cls-11" d="M600.41,398.73c-6,38.18-10.56,70.18-14.69,109.91,10.07,3.87,17.61,6.57,41.79-5.82,4.39-7,4.39-18.35,4.62-32.6C621.89,446.26,615.59,420.72,600.41,398.73Z"/><path id="path6207" class="cls-12" d="M339.72,198.81c-17,15.88-34,19.93-51,26.3-25.19,16.39-52,23-78.18,33.39l5.4,58.52c25.74,62.43,65.27,74.43,89.8,118.33a150.43,150.43,0,0,1-2.89-74.4c3.83-20.56,3.85-46.47,2.13-74.81,7.43-1.22,3-8.62,26.33,2.11,8.21-1.58-13.71-29.13-14.6-42.64C327.26,230.59,339.81,216,339.72,198.81Z"/><path id="path6209" class="cls-13" d="M323.24,51.18c-24.35,6.35-55.19.32-65,34.25-14.12,29.42-22.46,61.15-47.33,86.27l-1.21,46.1c-4.57,5.93-21.69,21.94-34.28-2.39l5.94-46.69c1.54-7.61,1.07-16,10.06-20.68,7.43-1.93,14-6.42,20.69-10.62,8.6-3,27.63-17.79,3-46.7l.6-16.25c6.63,9.67,14.44,9.72,19.51-.28,3.69-7.6-4.48-26.28-2.94-32.51,32.71-22.71,83.07,1.44,91,9.5Z"/><path id="path6211" class="cls-14" d="M158,143.12C147.88,148.7,140,159.61,133.27,174c-2.34,25.31-14.36,47.38-22.78,70.66A71.63,71.63,0,0,0,128,242.42l.21-2.77c5,.07,11.58-9.87,18.82-24.23.14-12.4-3-25.92.44-37.2C146.88,166,154.51,155.38,158,143.12Zm-51,117c-3.21,22.58.41,39.48-.07,59.8,1,36.27-6.39,65.06-12.58,76.89-4.44,11-10.66,23.74-21.76,41.37,4,1.85,11.18,3,25.09-23,9.22-15.46,12.48-30.92,16.33-46.39l12.17-101.13.28-3.72a53.79,53.79,0,0,1-19.46-3.85Z"/><path id="path6213" class="cls-15" d="M323.24,51.18c-24.35,6.35-55.19.31-65,34.25-14.12,29.42-22.46,61.15-47.33,86.27l-1.21,46.1c-4.57,5.92-21.69,21.94-34.28-2.39l5.94-46.69c1.54-7.61,1.07-16,10.06-20.68,7.43-1.93,14-6.42,20.69-10.63,8.6-3,27.63-17.78,3-46.69l.6-16.25c6.63,9.67,14.44,9.72,19.51-.28,3.69-7.6-4.48-26.28-2.94-32.51,32.71-22.71,83.07,1.44,91,9.5Z"/><path id="path6215" class="cls-16" d="M339.72,198.81c-17,15.88-34,19.93-51,26.3-25.19,16.39-52,23-78.18,33.39l5.4,58.52c25.74,62.43,65.27,74.43,89.8,118.33a150.43,150.43,0,0,1-2.89-74.4c3.83-20.56,3.85-46.47,2.13-74.81,7.43-1.22,4.67-1.51,28,9.21,8.21-1.58-15.38-36.23-16.27-49.74C327.26,230.59,339.81,216,339.72,198.81Z"/><path id="path6217" class="cls-17" d="M414.18,192.5c23.63,21.29,30.08,56.31,70.89,63.87,38.49,6.39,46.26-9,70.95-41.33,20.72-14.41,36.75-20.14,49.66-20.07-22.08,34.27-55.34,57.36-66.25,102.81l-1.9,25.51c-47.55,12.51-69.16,4.51-101-6.66.16-16.3,2.28-30.65-2.75-52.14-4.9-25.4-13.86-38.61-20.83-57.81-4.07-10.09-5.79-17.36,1.19-14.18Z"/><path id="path6219" class="cls-18" d="M600.41,398.73c-6,38.18-10.56,70.18-14.69,109.91,10.07,3.87,17.61,6.57,41.79-5.82,4.39-7,4.39-18.35,4.62-32.6C621.89,446.26,615.59,420.72,600.41,398.73Z"/><path id="path6221" class="cls-18" d="M500.4,332c17.46,23.29,35,46.44,44.87,82.77l6.64-55.61c-5.26-19.45-9.66-32.61-16-35.42Z"/><path id="path6223" class="cls-19" d="M158,143.12C147.88,148.7,140,159.61,133.27,174c-2.34,25.31-14.36,47.38-22.78,70.66A71.63,71.63,0,0,0,128,242.42l.21-2.77c5,.07,11.58-9.87,18.82-24.23.14-12.4-3-25.92.44-37.2-.6-12.26,7-22.84,10.47-35.1Zm-51,117c-3.2,22.58.41,39.48-.07,59.8,1,36.27-6.39,65.06-12.58,76.89-4.44,11-10.67,23.74-21.76,41.37,4,1.84,11.18,3,25.09-23,9.22-15.46,12.48-30.92,16.33-46.39l12.17-101.13.28-3.72a54.17,54.17,0,0,1-19.46-3.85Z"/><ellipse id="ellipse6225" class="cls-20" cx="190.05" cy="120.04" rx="5.02" ry="5.32"/><path id="path6227" class="cls-21" d="M85.89,117.51c-.49,1.89-1.85,2.62-4.14,2.62s-2.67-1.45-2.67-3.81.4-3.58,2.68-3.57S86.48,115.22,85.89,117.51Z"/><path id="path6229" class="cls-22" d="M202.94,18.54A93.79,93.79,0,0,0,172.29,6.21c-15-3.15-34,1-43,9.38C121,6.61,118.46,2.68,109,1.48,86.3-1.4,68.63,12.08,57.23,31.27c-10.9,18.36-16.06,42-14.36,61.41,2.71,31,12.41,55.64,22.52,85-9,4.58-14.27,10.28-16,14.14-3.47,7.54,4.22,14,6.56,18.17a101.29,101.29,0,0,1-15.29,14.52c-12.07,8.94-29.08,12.59-44.46,18.11,10.09,15.51,27.75,24.41,43,22.78,12.62-1.36,20.6-8.29,26.56-14.83-3.34,10.35-6.78,22.21-8.1,33.45-3.45,29.17-.07,65.19-1.15,97.62-.43,13,1.13,22.55-9.86,28.15-4.92,2.52-12.32-5.9-19.65-7-5.86-.91-15.72,5.88-18.18,9-8,10.14.57,16.61,3.43,19.67-3.42,10.38-1.35,20.26,4.25,22.77,2.61,1.17,9.63-1.82,12.88-3,2.4,2.27,7.06,6.27,9.55,6.32a12.71,12.71,0,0,0,8.62-4C59.06,451.92,71,448,78.74,443.06c10.67-6.78,20.81-20.07,27.1-36.18,7.77-19.92,13.54-47.69,15.38-69.24,2-23.29,4.34-47.11,8.54-70.09,11.22-.76,20.39-7,29.19-15.93,7.36-7.47,13.86-19.51,15.44-29.26,3.57,5.28,8.07,8.56,15.16,9,7.46.44,9.47-.42,13.12-3-.84,8.73-14,26.75-12.8,34.2.77,4.64,12,1.8,16.42,3.51a65.27,65.27,0,0,1-1.14,25c3,17.85,6,35.77,9.75,53.5,6.41,30.32,12.83,61.76,26.71,89.75,5.1,19.88-2.08,39.3,3.18,59.5-14.89,13.18-28,12.44-23.2,44.5,6.07,4.86,15.59,11.56,22.66,6.06,4.11,10,21.95,14,27.45,7.74,6.48,9.92,18.22,6.23,26.17,3.63a43.92,43.92,0,0,0,23.78-17.88c21.32-16.68-2.91-36.59-2.1-55.9-9-44.56-17.26-90.51-8.55-135.78,1.91-18.23-.32-32.53-.13-50.85,9.41-.72,17.27,4.14,19.4,8.9,1,13.86-6.83,28.34,6.24,38.68,14.15,13.54,20.66,31.87,28,49.65,6.76,16.35,9.41,37.71,12.57,55.26,2.94,16.32,20.84,26.07,22.22,39.67.69,6.82-4,13.49-11.36,22.89-7.22,9.23-3.46,17.92,4.84,24.36,2.33,1.81,8.35,1.76,11.67-.17,1.67,4.15,1.42,7.3,4.17,8.18a60.86,60.86,0,0,0,12.48,2.61c4.44.43,8.07-1.62,12.87-4.88,2.88,1.85,7,4.32,10.11,3.68,9.46-1.93,17.94-5.56,23.9-10.39,10.22-6.9,15.37-15.09,15.1-24.42-.51-17.68-15.75-40.29-26.89-52.87-15.73-26.08-1.4-59.59-11.55-87.37-5.37-14.7-3.2-31.53-2.33-42.53,10.65,1.48,14.06,4,27.64,6.28,9.37,1.55,17.95,3.09,29,3.25,7.06,12,17.18,26.1,24.41,36.16,7,9.79,10.93,28.32,12.62,39.6,2.09,14-.92,19.18-4.94,34.19-2.87,10.71-9.27,17.73-12.19,27.23-16.28,7-28.57,26.26-31,45,1,11.29,9.06,21.7,20.35,15.05,1.89,9.38,15.21,11.78,24.18,5.85,9.39,6.2,19.21,2.53,26.47,2.76C572,537.56,575,535.87,589,517.55c13.22,2.55,29-.79,41.92-9.1,13.75-20,4-44.69-4.72-67-12.53-31.86-22.13-35.81-18.25-66.29,11.29-20.16,26.16-48.81,39.58-75.75,9.14-18.35,18.4-35.28,22.3-50.67,0,30.28-7.58,51.71-5.21,80.95,2,24.44,17.23,47.34,11.57,70.46.36,7.07-9.4,20.14-13.16,27.78-5.56,11.29-5.32,15.35,3.39,13.88-7.74,13.85-2.09,22.63,5.2,30.44,7.06-3.79,9.36-6.14,16-14.35,5.57,5.63,11.67,6.37,17.77,3.94-.81-5.23-2.85-9.64-4.13-16.2,14.8,3.83,1.1-32.94-3-49-2.17-13.21-2.75-27.43-4.6-41.75-3.79-29.17-6.82-59.38,4.37-86.86,13.25-32.53,1.75-70.64-13.73-101.4-23.63-46.94-60-86.41-103.68-114.92-37.46-24.9-85.08-25.61-126.65-11.47C426.45,54.37,395.5,59.29,374,43.67,352.77,21.21,311.1,5.13,281,3.43c-41-2.31-50.7,4.38-78,15.12Zm78.48-3.32c27.21-.69,52.49,6.15,73.09,24,12.15,10.49,18.08,22.44,23.4,31.23-12.28-3.7-32.55-1.44-37.67,7.13,29.35-14,64,15.28,60.42,42.05-8.39,17-20.7,45.73-43.77,54.91-4.31-11.27-27.53-30.32-37.53-29.84,11.73,10.24,30.05,25.17,29.37,37.61-3.72,4.66-4.68,6.92-13.5,14.25-10.32,8.58-18.2,12.43-26.32,16.42-9.77-8-23.22-25.92-29.4-36-.4,15.47,12.91,31.33,18.39,41-27.31,7.18-66.68,39.4-94.9,36.5,5.56-7.73,10.81-17.25,10.28-29-.6-13.54,2.87-42.06-3.26-55.3-3.61,21.86.64,35.83-6.64,45.19-5.11,6.24-9.38,6.37-14.35,6.76-5.19.41-13.07-5-12.2-16.67,3.37-.35,5.57-12.69,5.4-21.6-.23-12.39.29-23.27,6.52-30.13,9.56-4.46,14-7.41,28-15,5.43-3,9.62-5.91,11.76-10.71,2.21-5,2.64-11,1.61-17.61-1.6-10.22-4.71-13-15.17-17.68,9.59,11.6,11.36,22.67,5.38,32.26-7.49,12-23.29,18.94-35.09,20.73-7.56,9.08-6.79,22.85-8.11,34.2-1,8.26-2.22,18.41-4.55,25.17-.67,1.94-7.8-8.2-11.41-8.19-4.44,0-7.78-.09-11.08,4.36a68.64,68.64,0,0,1,1.07-31.36c2.71-10,11.68-27.6,10.23-30-1.9-3.13-10.87,11.15-15.29,25.16-10.09,32,9.2,51.26-17.66,70.74-13.84,9.23-36.75.36-47.87,3.26,7.61,14.26,22.51,22.8,38.26,28.33-5.64,28.8-6.13,66.3-11.34,99.43-3.44,21.89-9.46,42.52-21.59,59-5.74,7.77-13.78,12.8-23.29,16.06-2.45.84-10.57,3-14.45,3.78-.82-2.51.93-9.38-1.31-13.62-1.64-3.11-4.07-6.35-7.43-7.46-4.44-1.45-9.55-.94-12.6,1.88-1.78.86-12,.29-12.91-3.43-.5-1.95,2.13-8.17,6.88-9.7,2.79-.9,9.28-1,13.32,2,4.83,3.56,6.85,4.37,9.81,4.44,2.37.07,5.82-.14,8.24-1.36,6.7-3.38,9-12.58,11-22a201.43,201.43,0,0,0,3-26.51c1-23.54.08-44.71.33-68.38.24-22.88,5-39.5,6.3-62,2.07-35,4.38-73.43,18.66-106.08C73.64,119.17,68.68,85.9,87.73,67.55c22.71-11.73,34.69-27,43.15-44.43C142.36,15.34,156,12,170,15.33c13.34,3.17,27.09,12.75,35,16.59,18.5-17.15,52.3-16.09,76.44-16.7ZM101.61,12.9c8.54-1.65,17.52,5.22,19.5,8.88,2.13,4-10.94,15.7-20.34,20.56C101,37.71,97,30.43,91.24,28.11c-6.06-2.45-14,.25-21,2.48C77.82,18.5,91.29,14.9,101.61,12.9ZM83.38,35.46c8,2.93,9.64,9.79,2.23,19.28C75.91,67.16,63.25,81.3,68.11,97.5c3.5,27.51,20.4,44.28,5.08,72.34-8.82-4.46-15.39-51.25-18.06-72.73C54,83.66,54.81,61.88,61.25,47.27,65.8,36.92,72.39,31.42,83.38,35.46ZM264.29,30c-14.15-1.27-29.3,2.65-34.23,11.89-2.63,4.94-1.42,7,2.3,18.23,2.83,8.54-2.93,17.84-2.42,19.24,7.83-6,7.11-8.25,6.88-14.25-.26-6.94-4.79-19-.7-22.87,8-7.55,21.13-7.85,37.28-6.28C290.12,37.59,313.59,46.17,327,51.9c-4.21-7.51-17.35-11.16-31-16-4.92-1.74-27.24-5.55-31.68-5.94ZM513.61,42.36c63.06,4.55,115.09,51.74,147.44,102,8.37,13,12.1,27.1,19.76,38.55,8.13,12.17,12.4,24.36,14.67,43.09,3.71,30.71-15.42,55.44-12.5,85.69,2.93,30.41,7.93,57.43,8.91,87.38,3.63,4.15,4.82,14.77,6.46,23.09,1.84,9.33,6.5,20.85-3.67,15.08-.27,6.39-.18,12.61,3.23,17.31-4.66-.88-5.78,2.46-10.68-2-6.94,5.57-8.68,5.87-13.77,10.13-.87-1-4.07-13.76-.71-23.34-3.14-3.48-10-1.54-6.23-5.05,5.13-4.84,14.25-20.23,16.51-31.86.35-18.31-3-33.07-6.52-51-5.35-27.62-8.74-49.69.79-77.13,6.45-19.23-1.63-51.67-9.51-51.66-5.33,22.71-16.06,49.06-28.84,74.19-13.62,26.8-29.44,52.35-39.45,74.68,2.44,24.14-11.58,41.66-9.66,64.9.53,15.55-4.4,29.78-6.94,44.45-1.12,6.47-.59,13.4-1.51,20.07-.82,5.89-.11,13.61-4.25,18.59-6.62,8-10.7,9.49-16.38,11.15-2.68-5.49-7.35-11.08-14.18-12.58-6.15-1.34-9.62-.5-13.5,3.58-1.35-3.32-7.67-4.8-10.77-5.53s-5.35.12-8.51,2.07c-.13-8.07-4.21-10.18-8.55-11.81a49.79,49.79,0,0,1,21.66-25.46c12.12-20.57,21.45-43.11,26-74.16,2.8-27.59,9.72-60.93-8.06-85.59-12.62-35.05,18.19-62.27,35.13-88.44-19.19,12.44-30.49,30.66-39.49,50.27-6,13.17-8.16,27.88-8,34-3.55,3.84-29.41,7.37-35.69,7-19.25-1.16-40.09-3.46-56.19-12.59-2.95-12.6,1.56-36.18-10.16-60-6.07-12.32-6.66-22-15.7-31.68,4.28,13.39,12.1,30.69,15.61,48.67,2.64,13.54,1.56,27.72,1.83,39.47a196.78,196.78,0,0,1-1,25.37c-1.42,13.35.29,28,3.38,42.81,2.13,10.14,6.47,20,4.64,30.79-2.06,12.14-.21,23,3.48,34.06,3.6,10.83,8,23.86,17.1,32.73,9.9,5.85,13.55,23.1,12.79,34.88-.65,10-8.18,19.84-17.95,14.91-2.09-4.23-4.31-6.06-6.59-6.54-5.38-1.13-11.43,3.69-15.53,7.19-2.95-3.57-2.91-8.23-8.39-8.72-4.86-.44-9.16,2.33-12.35,1.74-5.12-5.94-9.49-6.39-9.78-10.4-.25-3.26,3.84-5.14,5.26-9.49,2.19-6.7,1.73-16.41-2.16-24-8.82-8.51-16.85-16.58-20.36-27.84-6.2-19.9-4.58-44.72-13.16-63.57-6.36-14-24.14-35.45-32.29-54.09-6-13.62-3-29.59-5-31.15-10.34-8.16-16.63-11.28-26.74-12.66-6,4-14,1.94-22.1-4.06-13.93-10.35-13.14-17-20.91-20.38,5.31,8.44,10.11,17.14,16.14,22.48,4.62,4.08,10.82,5.15,13.35,8.85,2.78,4.09,7.78,7.81,5.23,16.76,2.44,25.12-2.05,49.87-4.21,74.77-.54,40.52,9,80.4,16.3,119.86,20.28,22.12-9.32,34.67-18.72,37.66-2.64-1.71-.95-10.56-9.77-13.1-7.21-2.07-8.84.52-12.32,4.89-1.14-3.86-4.65-9.74-7.61-9.71a26,26,0,0,0-12.63,3.39c-1.34-3.64-.71-7.13-4.79-8.75-4.32-1.71-8.34-.58-12.88.58,8.37-8.52,28.09-12,22.61-25.12-1.89-27.62,5.68-64.1-11.07-88.71-8.84-21.47-14.7-44-19.14-66.76-3.37-17.27-5.92-34.72-8.34-52-1.19-8.56-3.45-15.24-.83-20.11,14.85-3.5,40.48-10.15,57.45-21,24.09-15.4,48.23-24.19,72.19-42.65,23.51-18.11,51.58-41.86,63.13-71.39,5.86-15-1.31-28.79-10.06-41.21-9.27-13.15-20.31-24.77-19.57-34.7,26.35,14.09,56.36,7,82.65-3.1,16.88-4.6,34.27-8.07,51.84-8ZM183,95c-6.63,4-9,9.85-8,20.44.85,2.31,0-11.55,11.62-14.86,17.55-5,13.52,5.87,20.3,5.37.88-4.86-4.93-9.92-11.55-10.7C191.26,94.75,187.12,92.45,183,95Zm172.48,15.09c16.55,5.67,12.79,6,28.49,17.82-7.28-13.18-12.74-21.66-28.84-24.87l-32.65-6.51c5,8.74,20.67,9.34,33,13.56Zm-240.73-6.28c4.61,1.76,15.94,1.35,26.16,7.63a33,33,0,0,1,13.75,17c3.81-7.7-1.25-16.25-13.43-21.8C130.88,101.93,118.82,101.92,114.74,103.79Zm4.42,29.94c-12.48-2-18.14,2-22,9.73,8.46-5.2,14.29-5.55,21.95-3.92,11.85,2.52,14.64,13.23,24.11,12.06-5.29-4.5-16.82-16.71-24.08-17.87Zm-9,28.33c-11.73-.59-18.59,3.28-27.09,12.47,9.81-3.43,14.24-4.6,26.25-5.29,11.6-.67,15.84,4.35,24.5,10C133.94,171.42,117.15,162.4,110.17,162.06ZM69.83,186c.39,3.23-.14,6.62-.56,10.34-.55,4.87-2,8.61-6,9-2.8.27-5.76-4.14-5.1-8.76.92-6.35,10.08-9.66,11.62-10.58Zm37.4,13.62c-9.81-2-16.65,1-26.77,9.22,4.54.56,14.27-6.41,24.93-3.69,13.13,3.35,16.69,10.27,25.43,11C124.7,207.09,114.58,201.08,107.23,199.61Zm53.64,4c5.21.42,9.94,7,10.32,11.19,1,11.33-13.66,29.37-22,35-6.3,4.28-15.63,10.62-24.69,10.84-14.63.36-25.4-6.23-32.91-15.88,11.29,3.46,22.19,4.42,34.84.44C137,242,148.7,223.56,150.87,210.45c3-3.44,4.92-7.21,10-6.81ZM67.7,211.9c2.63,8.94.5,22.77-1.94,25.41-7.31,7.9-19.24,18.84-32.3,19.46-8.1.38-15.38-5.24-21.89-8.82,10.55-3.46,25.18-9.67,35.89-17.22C54,226.13,64.13,220.36,67.7,211.9Zm6.78,64.48c6,.75,13.33-2.35,19.06-1,10.08,2.42,12.14,4.79,17.27,8.53-1.9-5.77-10.47-11.69-17.93-12.61-5.79-.71-11.89,1.1-18.4,5.06ZM73.72,306c7.47-1,13-3.74,19.47-1.44,12.62,4.48,10.56,10.07,16.65,12.53,0,0-4.32-16.65-18.3-18.29A19.91,19.91,0,0,0,73.72,306ZM72.24,338.5c4.58.86,6.7-7.12,16.48-6.31,11.07.92,11.62,7.57,18.21,11.73-1.72-7.27-9.82-17.43-17.78-17.77C80.48,325.78,75.76,330.82,72.24,338.5Zm464.81-7.56c3.77,4.38,5.67,12.79,7.75,23.3a91.49,91.49,0,0,1-.61,36.68c-3.22-6.68-7.52-19-12.31-26.52-8.67-13.55-15.52-24.18-15.51-29.11C526.15,335.15,527.66,333.75,537.05,330.94ZM70.42,368.7c8.73-1.08,10.06-4.47,13.63-3.69,6.47,1.43,10.82,6,16.85,13,0,0,.51-12.47-14-17C76.53,357.81,70.42,368.7,70.42,368.7Zm-1,20c3.08-.2,4.48-.77,10.57,1.44,9.14,3.32,8.6,7.43,12.53,13.14-.54-6.63-3-16.11-10-17.75C74.33,383.65,71.8,386.12,69.41,388.74Zm-6.54,19.57c5.23,1.16,6.86,1.08,12,3.81,7.78,4.1,5.89,4.92,8.7,9.42,1.35-7.56-3.34-13.59-7.32-15A16.68,16.68,0,0,0,62.87,408.31Zm538.69,0c11.43,22.1,24.32,46.72,22.16,63.83-1.23,9.67,5.56,11.27,3.49,22.51-13.17,13.51-28.28,13.91-34.8,9.77,5.06-25.37,7.91-73.7,9.15-96.11ZM36.16,429c2.19,0,6.72,4.54,7.39,8.39.62,3.62-.23,7.25-2.23,8.36-1.69.94-6,1.93-10-2.77-5.3,2.16-10.15,1.66-12.18.19-3.6-2.58.73-14,3.91-13.35h6.52c2,1.38,1.69,3.72.94,6.27-.85,3.35,5.95,5.69,5.68.55-3.61-5-2-7.78,0-7.64Zm464.07,81.1c3.68-.13,5.11,1.28,6.45,3.39,2,3.09,2.81,6.42,2.71,7.6-.29,3.26-3.73,7.28-6.22,7.27-4.17,0-5.78-3.91-6.28-8.72-.19-1.82-.44-6.66,3.34-9.54Zm-98.11,3.65c7.63,5.45,5.88,11.54,4.28,13s-5.66,3-8.43,1.34c-3.26-2-7.48-7.8-5.3-11.37,1.14-1.84,6.15-5.34,9.45-3Zm119.47,8.35c6,.28,7.8,3.94,8,5.94.23,2.78-5.43,6.78-8.86,6.29-6.81-1-7.31-5.56-7.68-8.06s4.13-4.38,8.58-4.17Zm-101.79-.4c5.93,2.49,10.57,5.47,11.08,8.16.74,3.93-5,7.24-8.93,7.47-5.54.33-16.87-5-10.77-12.28Zm125.93,1.84c4.37.18,9.12,6.26,9.14,7.75.09,5.88-9.74,5.85-12.63,5.78-3.12-.08-7.85-6.4-7.77-8.23.06-1.52,4.6-5.59,11.26-5.3Zm-99.53-1.88c2.79,2.87,7.48,7.12,7.18,8.72-.5,2.62-8.27,6.3-11.6,6.11-4.23-.24-8.84-7.46-5-10.81C438.3,524.41,442.09,523.26,446.2,521.68Zm-200,11.77c0,7.52-13.14,5.87-18.09-.09-1.51-2.92-2-7.87-1.08-10.58,1.8-2.15,10.64-4.89,14.54-1.81s3.52,7.89,4.63,12.48ZM260.6,528c4.63.92,9.33,8.75,9.51,11,.54,6.83-5.75,7.76-10.54,7.55-2.79-.12-11.52-5.29-10.37-11.06C250,531.37,252.59,526.36,260.6,528Zm19.16,4.4c4.24,1.12,9.33,8.65,9.49,10.48.38,4.28,1.81,7.92-5.74,8.08-7,.14-10.48-5-10.38-9.47C273.17,539.75,276.75,531.56,279.76,532.35Z"/></g></svg>