<svg id="Layer_1" data-name="Layer 1" xmlns="http://www.w3.org/2000/svg" viewBox="0 0 262.51 566.93"><defs><style>.cls-1{fill:#f0accc;}.cls-2{fill:#b479a3;}.cls-3{fill:#f7a27e;}.cls-4{fill:#f37a46;}.cls-5{fill:#f05a41;}.cls-6{fill:#e97b4e;}.cls-7{fill:#51b2c4;}.cls-8{fill:#20899c;}.cls-9{fill:#217a82;}.cls-10{fill:#fff100;}.cls-11{fill:#f6921e;}.cls-12{fill:#733863;}.cls-13{fill:#231f20;}.cls-14{fill:#dd3927;}.cls-15{fill:#e6d298;}.cls-15,.cls-16,.cls-17,.cls-18,.cls-20,.cls-21,.cls-22,.cls-23,.cls-24{fill-rule:evenodd;}.cls-16{fill:#f0e3b9;}.cls-17{fill:#f7eed5;}.cls-18{fill:#cbaf6e;}.cls-19,.cls-20{fill:none;}.cls-20{stroke:#2e3191;stroke-miterlimit:10;stroke-width:3.09px;}.cls-21{fill:#ede3c4;}.cls-22{fill:#f6f2dc;}.cls-23{fill:#854f20;}.cls-24{fill:#f8f6e9;}.cls-25{fill:#f8c21d;}.cls-26{fill:#e7ab23;}.cls-27{fill:#cd912b;}.cls-28{fill:#ae762b;}.cls-29{fill:#fbdf16;}</style></defs><title>11</title><path class="cls-1" d="M87.67,265.58s-54.55,33.77-64,101.4-2.7,66.38-2.7,66.38L33,423.93l12.53,9.35s67.55-116.67,60-139.49S97.69,261,87.67,265.58Z"/><path class="cls-1" d="M52.74,420.51C70,389.59,111.54,312,105.56,293.79,98,271,97.69,261,87.67,265.58c0,0-54.55,33.77-64,101.4C21,386.07,19.58,399.67,19,409.36,24.2,414,34.91,420.79,52.74,420.51Z"/><path class="cls-2" d="M20.94,433.36,33,423.93l12.53,9.35s2.81-4.85,7.22-12.77C34.91,420.79,24.2,414,19,409.36,17.44,434,20.94,433.36,20.94,433.36Z"/><path class="cls-3" d="M87.67,265.58s-54.55,33.77-64,101.4-2.7,66.38-2.7,66.38L33,423.93l12.53,9.35s67.55-116.67,60-139.49S97.69,261,87.67,265.58Z"/><path class="cls-4" d="M20.94,433.36,33,423.93l12.53,9.35s2.81-4.85,7.22-12.77C34.91,420.79,24.2,414,19,409.36,17.44,434,20.94,433.36,20.94,433.36Z"/><path class="cls-5" d="M52.74,420.51c-4.41,7.92-7.22,12.77-7.22,12.77L39.79,429c1.39-2.75,2.9-5.75,4.5-8.94A62.75,62.75,0,0,0,52.74,420.51Z"/><path class="cls-6" d="M105.56,293.79c6,18.17-35.61,95.8-52.82,126.72a62.75,62.75,0,0,1-8.45-.44c16.63-33.3,42.9-88.09,47.9-103.19,4.16-12.53,1.41-35.81-1.41-52.29C97.86,263.51,98.91,273.6,105.56,293.79Z"/><path class="cls-3" d="M135.28,435.36S151,534,174.83,563.06l18.7-9,18.06,12.9s31.57-134.48,24.06-180.15l-68.56,33.1Z"/><path class="cls-6" d="M235.65,386.78c7.51,45.67-24.06,180.15-24.06,180.15l-7.14-5.11c17.12-88.94,20.91-147.74,21.74-170.48Z"/><path class="cls-4" d="M193.53,554l-18.7,9A79.54,79.54,0,0,1,165,546.59c20.42,5.34,40.51,1.82,51.32-1-2.8,13.1-4.74,21.35-4.74,21.35Z"/><path class="cls-5" d="M216.33,545.58c-2.8,13.1-4.74,21.35-4.74,21.35l-7.14-5.11c.92-4.83,1.82-9.58,2.67-14.23C210.63,547,213.75,546.26,216.33,545.58Z"/><path class="cls-7" d="M144.46,494.69s46.5,14.19,85.84,0l10.32-68.36L135.28,448.26S137.39,480.48,144.46,494.69Z"/><path class="cls-8" d="M240.62,426.33,230.3,494.69a99.74,99.74,0,0,1-15,4.09c4.14-27.63,6.74-50.71,8.38-68.92Z"/><path class="cls-3" d="M128.63,431.49s-2.82,118.67-16,134.15l-14.41-8.1L82,565.64S42.85,455.42,53.64,388.07Z"/><path class="cls-6" d="M128.63,431.49s-2.82,118.67-16,134.15L106.14,562c8.81-26.58,12.09-102.69,13.13-135.94Z"/><path class="cls-7" d="M47.74,431.49s6.16,38.69,10.84,62.56,70.05,4.51,70.05,4.51l3.53-55.46Z"/><path class="cls-8" d="M132.16,443.1l-3.53,55.46s-5.56,1.65-13.55,3.39c1.77-21.06,2.91-43.26,3.6-60.71Z"/><path class="cls-5" d="M119,545.91c-1.81,8.85-3.94,15.5-6.45,18.44l-6.08-3.41a117.25,117.25,0,0,0,2.94-12.28A66.85,66.85,0,0,0,119,545.91Z"/><path class="cls-4" d="M109.45,548.66a117.25,117.25,0,0,1-2.94,12.28l-8.33-4.68L82,564.35s-2.41-6.78-5.87-18A60.29,60.29,0,0,0,109.45,548.66Z"/><path class="cls-3" d="M58.58,348.94c2.19-26.68,14.36-54.86,24-73.46,19,8.06,47.46,13.19,79.3,13.19a262.58,262.58,0,0,0,49.25-4.44c12.86,31.89,23.86,79.87,25.67,117,2.58,52.88-14.19,53.53-110.94,52.88S54.87,394.08,58.58,348.94Z"/><path class="cls-6" d="M82.53,275.48c6.65-12.88,12.06-21.18,12.06-21.18s80.89-18.88,99.59,0c5.59,5.65,11.42,16.33,16.9,29.93a262.58,262.58,0,0,1-49.25,4.44C130,288.67,101.52,283.54,82.53,275.48Z"/><path class="cls-6" d="M210.38,411.37c-2.62-58.62-23.7-141.23-42.77-165.25,11.58.66,21.43,3,26.57,8.18,18.7,18.89,40,94,42.57,146.88,1.58,32.5-4.15,45.27-31.25,50.13C210.15,442.38,211.19,429.61,210.38,411.37Z"/><path class="cls-7" d="M240.62,371.67s-24.57-18-32.68-41.07-139.2-16.33-149.36,3.67S43.83,427.8,51.76,455.62s187.57,23.76,188.86-27.84S240.62,371.67,240.62,371.67Z"/><path class="cls-8" d="M221.28,353a121.73,121.73,0,0,0,19.34,18.64s1.29,4.51,0,56.11c-.35,13.75-13.36,24.13-32.41,31.42C224.26,428.42,222.61,373.9,221.28,353Z"/><path class="cls-8" d="M176,364.29S114.79,377,85,361c0,0-2.93,44.21,1.72,56,3.9,9.89,51.87,39.26,84.27,4.42C181.55,410,176,364.29,176,364.29Z"/><path class="cls-9" d="M165.79,366.06c6.32-1,10.22-1.77,10.22-1.77s5.54,45.73-5,57.11a53,53,0,0,1-13.82,10.8c.92-1.15,1.84-2.35,2.75-3.62C167.45,417.94,166.79,384.36,165.79,366.06Z"/><path class="cls-8" d="M102.37,238S79.3,331.41,95.11,348.82s21-33.54,21-33.54c-1.94-23.86-6.45-65.58,0-73.42S102.37,238,102.37,238Z"/><path class="cls-9" d="M116.07,241.86c-6.45,7.84-1.94,49.56,0,73.42,0,0-4.09,40.4-16.15,37,6.87-12.62,12.68-41.32,7.61-67.47-4-20.8,1.67-38.38,5.87-47.71C116.72,237.32,118.82,238.51,116.07,241.86Z"/><path class="cls-10" d="M94.43,338.35c0,2.73,1.23,4.94,2.74,4.94s2.75-2.21,2.75-4.94-1.23-4.94-2.75-4.94S94.43,335.62,94.43,338.35Z"/><path class="cls-11" d="M99.92,338.35a7.85,7.85,0,0,0-.51-2.86,6.08,6.08,0,0,1,1.41,4.26c0,2.67-1.18,4.83-2.64,4.83-.77,0-1.46-.62-1.94-1.6a1.7,1.7,0,0,0,.93.31C98.69,343.29,99.92,341.08,99.92,338.35Z"/><path class="cls-8" d="M164.2,241.86s-23.52,93.29-7.8,110.78,21.12-33.44,21.12-33.44c-1.82-23.87-6.14-65.61.35-73.42S164.2,241.86,164.2,241.86Z"/><path class="cls-10" d="M157.74,341.36c0,3.56,1.63,6.45,3.64,6.45s3.63-2.89,3.63-6.45-1.63-6.45-3.63-6.45S157.74,337.8,157.74,341.36Z"/><path class="cls-9" d="M177.62,245.72c-6.45,7.84-1.94,49.56,0,73.42,0,0-4,39-15.5,37.1,6.65-13.05,12.08-41,7.12-66.55-4.18-21.56,2.11-39.67,6.34-48.72C178.52,241.34,180.2,242.58,177.62,245.72Z"/><path class="cls-11" d="M160,346.31c1.72,0,3.11-3.11,3.11-6.94a13.08,13.08,0,0,0-.62-4.12c1.46.85,2.52,3.24,2.52,6.11,0,3.56-1.63,6.45-3.63,6.45-1.09,0-2-.86-2.72-2.2A1.91,1.91,0,0,0,160,346.31Z"/><path class="cls-3" d="M152.26,50.67c27.73,4.52,41.92,1.29,58,17.42s26.45,24.5,36.76,49,18.71,67.72,14.19,97.39S238,278.34,172.9,275.76,33.58,262.86,37.45,196.43,59.71,57.16,110.33,54.54,152.26,50.67,152.26,50.67Z"/><path class="cls-6" d="M237.29,214.49c4.51-29.67-3.87-72.88-14.19-97.39s-20.64-32.89-36.76-49c-13.22-13.22-25.13-13.44-44.27-15.57,13.69-1.19,10.55-1.79,10.21-1.84,27.72,4.5,41.9,1.29,58,17.41s26.45,24.5,36.76,49,18.71,67.72,14.19,97.39S238,278.34,172.9,275.76l-6.19-.27C217.58,271.69,233.21,241.26,237.29,214.49Z"/><path class="cls-5" d="M184.5,195a31.28,31.28,0,1,0,31.28-31.73A31.5,31.5,0,0,0,184.5,195Z"/><ellipse class="cls-5" cx="58.58" cy="181.69" rx="26.6" ry="26.36"/><path class="cls-12" d="M37.31,247.39a.23.23,0,0,1,0,.14C37.3,247.26,37.31,247.2,37.31,247.39Z"/><path class="cls-13" d="M92.58,152.37a6.79,6.79,0,0,1,2.32-.71,3.24,3.24,0,0,1,3.16,2.41c.46,1.66-.48,2.92-1.57,4a3.22,3.22,0,0,1-4.56-4.56l.43-.44.17-.19a2.6,2.6,0,0,0-.68,1.18c.1.82.21,1.65.32,2.48l0,0L94.08,158l1.5,0c.53-.24.62-.27.26-.1a3.27,3.27,0,0,1-4.41-1.16,3.23,3.23,0,0,1,1.15-4.41Z"/><path class="cls-13" d="M173.54,155.8a3,3,0,0,0-.81-2l.06.06a2.38,2.38,0,0,0-1-.63c.55.2-.88,0-.15,0a3.23,3.23,0,1,1,0,6.45c-2.3-.07-4.41-1.39-4.51-3.87a3.23,3.23,0,1,1,6.45,0Z"/><path class="cls-4" d="M103.45,187.17c0,13.19,11.46,23.88,25.59,23.88s25.58-10.69,25.58-23.88S143.17,163.29,129,163.29,103.45,174,103.45,187.17Z"/><path class="cls-5" d="M129,211.05c14.13,0,25.58-10.69,25.58-23.88a22.53,22.53,0,0,0-3.87-12.58,22.94,22.94,0,0,1,7,16.36c0,13.19-11.46,23.88-25.58,23.88a26,26,0,0,1-21.72-11.29A26.38,26.38,0,0,0,129,211.05Z"/><path class="cls-14" d="M112.59,187.62c0,4.15,1.59,7.52,3.55,7.52s3.55-3.37,3.55-7.52-1.59-7.53-3.55-7.53S112.59,183.46,112.59,187.62Z"/><path class="cls-6" d="M116.14,180.09a1.92,1.92,0,0,1,1.13.4c-1.41,1-2.42,3.81-2.42,7.13s1,6.12,2.42,7.13a2,2,0,0,1-1.13.39c-2,0-3.55-3.37-3.55-7.52S114.18,180.09,116.14,180.09Z"/><path class="cls-14" d="M125.81,187.62c0,4.15,2.12,7.52,4.73,7.52s4.73-3.37,4.73-7.52-2.12-7.53-4.73-7.53S125.81,183.46,125.81,187.62Z"/><path class="cls-6" d="M130.54,180.09a3.26,3.26,0,0,1,1.62.46c-1.82,1-3.12,3.82-3.12,7.07s1.3,6,3.12,7.06a3.26,3.26,0,0,1-1.62.46c-2.61,0-4.73-3.37-4.73-7.52S127.93,180.09,130.54,180.09Z"/><path class="cls-6" d="M147.74,166.44s-11.93-10.5-31.6-3.15C116.14,163.29,135.17,149.67,147.74,166.44Z"/><path class="cls-5" d="M114.93,228.51s28.55,4.31,42.21-7.31C157.14,221.2,160.1,238.83,114.93,228.51Z"/><path class="cls-3" d="M248.74,345.78s-37.92,143.66-115.56,28.63l-11-23.18,16,2.2-.35-16.93s31.94,16.13,44.21,21.81-8.49-64.74,5.7-73.08,36.13-31,50.43,3.29S250.22,328.44,248.74,345.78Z"/><path class="cls-6" d="M137.9,372.37c-3.25-4.08-6.57-8.61-10-13.64l-3.39-7.18-2.32-.32,11,23.18c.83,1.24,1.66,2.43,2.48,3.61A43.85,43.85,0,0,1,137.9,372.37Z"/><path class="cls-6" d="M248.74,345.78c1.32-15.5,3.31-21.63-6.5-47.27,3.63,13.5,2.25,19.86,1.25,31.58,0,0-34.67,131.35-105.59,42.29a43.74,43.74,0,0,0-2.24,5.64C211.63,486.36,248.74,345.78,248.74,345.78Z"/><path class="cls-6" d="M135.64,378c-.82-1.16-1.64-2.34-2.46-3.57Q134.41,376.24,135.64,378Z"/><path class="cls-4" d="M137.9,372.38c4.46-9.47,12.42-19.48,18.64-26.54-10-5-18.64-9.34-18.64-9.34l.35,16.93-13.71-1.88,3.39,7.18Q133,366.28,137.9,372.38Z"/><path class="cls-4" d="M135.66,378h0l0,0Z"/><path class="cls-5" d="M137.9,372.38q-4.87-6.12-10-13.65l-3.39-7.18-2.32-.32,11,23.18c.82,1.23,1.64,2.41,2.46,3.57l0,0A43.74,43.74,0,0,1,137.9,372.38Z"/><path class="cls-15" d="M254,245.46,111.64,462C103,475.06,91,482.36,84.82,478.28s-4.25-18,4.36-31.08L231.55,230.69Z"/><path class="cls-16" d="M242.2,262.46c1.14-2.28-5.42,5.15-6.3,5s-11.22,8.68-12.87,2.09-5.5-2.24-8.19,1.5-7,16-8.89,21.22-3.4,12.91-22.43,38.93-42.06,57.67-50.89,70.22-36.32,50.58-41.51,64,3.7,13.9,12.31,4.42,8.85-9.77,26.09-36.05,81.82-124.21,92.68-140.93S241.34,264.19,242.2,262.46Z"/><path class="cls-17" d="M237.64,268.64c1.73-2.82-5.58,4.58-7.31,5.28s-4.31-.08-15.13,16.2S181,342.86,172.34,356s-62.22,93.51-65.4,102.89,5.84-2.12,18.54-20.38,40.37-60.69,48-72.36S231.83,278.12,237.64,268.64Z"/><path class="cls-18" d="M78.21,463.87,220.59,247.36l.29.18c-8,13-23.23,38.38-24.06,46.58C195.67,305.29,186,327.83,182,333,178.53,337.4,94.65,451.33,70.9,490.85,68.86,484.68,71.53,474,78.21,463.87Z"/><path class="cls-19" d="M74.05,471.31a0,0,0,0,1,0,0A0,0,0,0,0,74.05,471.31Z"/><path class="cls-19" d="M74.48,470.41a.67.67,0,0,1-.06.12A.67.67,0,0,0,74.48,470.41Z"/><path class="cls-19" d="M73.71,472.07l-.06.14Z"/><path class="cls-19" d="M73.34,472.93l0,0Z"/><path class="cls-19" d="M72.69,474.54a.14.14,0,0,0,0,.06A.14.14,0,0,1,72.69,474.54Z"/><path class="cls-20" d="M74,471.34l-.33.73Z"/><path class="cls-20" d="M74.42,470.53c-.12.26-.24.52-.37.78C74.18,471.05,74.3,470.79,74.42,470.53Z"/><path class="cls-20" d="M73.32,473c-.22.53-.43,1.06-.63,1.58C72.89,474,73.1,473.49,73.32,473Z"/><path class="cls-20" d="M73.65,472.21c-.11.24-.21.48-.31.72C73.44,472.69,73.54,472.45,73.65,472.21Z"/><path class="cls-21" d="M78.21,463.87,220.59,247.36h0c-10.28,16.69-27.54,45.85-28.43,54.71-1.28,12.65-8.86,27.89-10.92,30.67s-61.67,85.38-82.91,115.46C90,460.06,54.24,511.1,44.87,524.52,53.84,505.19,72.42,472.68,78.21,463.87Z"/><path class="cls-22" d="M200.36,278.55S88.33,449,80.59,460.84s-20.5,36.07-16.41,31,41.87-60.09,76.51-108,39.61-52.7,44.41-68.51C188.82,303.08,178.92,319.05,200.36,278.55Z"/><path class="cls-16" d="M231.57,230.67c-2.55,3.87.41,10.31,6.61,14.39s13.3,4.25,15.85.37-.42-10.31-6.63-14.39S234.11,226.79,231.57,230.67Z"/><path class="cls-23" d="M238.74,233.28c-.74,1.13.73,3.4,3.29,5.08s5.23,2.13,6,1-.73-3.4-3.29-5.08S239.48,232.16,238.74,233.28Z"/><path class="cls-24" d="M247.46,233.61c-.1-.1,1.38-1.32,4.66,3.79s1.89,7.28,1.45,7.73-3.5,2.21-8,1.11-5-1.27-5.94-1.87a24.77,24.77,0,0,1-4.15-3.34,19.2,19.2,0,0,1-3-4.5c-.32-1,.08-2.6.94-1.42s4.42,3.83,6.35,5,7.14,3.78,8.88.65S247.85,234.08,247.46,233.61Z"/><path class="cls-3" d="M182.11,358.32c-12.27-5.68-44.21-21.81-44.21-21.81s8.63,4.36,18.64,9.34c-6.22,7-14.18,17.07-18.64,26.54,31.87,40,56.42,35.53,73.79,18.46l-26.17-34.29C184.92,358.41,183.84,359.13,182.11,358.32Z"/><path class="cls-6" d="M137.9,372.39c-.05.12-.1.23-.16.35-.35.76-.68,1.52-1,2.27-.06.13-.11.25-.16.38-.35.89-.67,1.76-.93,2.63h0l.09.13,1.64,2.3.12.17,1.65,2.25.09.12,1.67,2.21.06.08c.56.74,1.12,1.46,1.68,2.17l0,0c34.44,43.62,60.36,35.3,78,15.09l-9-11.73C194.32,407.92,169.77,412.41,137.9,372.39Z"/><path class="cls-4" d="M127.93,358.74c2.79,4.13,5.52,7.9,8.21,11.39l1.76,2.26c4.46-9.47,12.42-19.49,18.64-26.54-10-5-18.64-9.34-18.64-9.34l.35,16.93-13.71-1.88Z"/><path class="cls-5" d="M135.66,378h0c.26-.87.58-1.74.93-2.63.05-.13.1-.25.16-.38.3-.75.63-1.51,1-2.27.06-.12.1-.24.16-.36-.58-.73-1.17-1.49-1.76-2.25-2.69-3.48-5.42-7.26-8.21-11.39l-3.39-7.18-2.32-.32,11,23.18c.82,1.22,1.63,2.39,2.44,3.54l0,0h0Z"/><path class="cls-25" d="M184.2,6.92S164.43-10.45,127,4.21,96.5,18.44,86.7,24.92s-17.5,12.62-20,19.34S53,66.75,49.71,78.79s-4,20.87-6.51,22.64-10,3.91-22,5.54S-.26,112.82,0,118.32,9.89,128.4,36,132.8s36.1,10.56,83.25,12.24,57.79-8.63,91.51-6.49,42.32-1,44.12-2.26,2.64-8.69,2.38-10.52-6.24-2.5-6.15-4.4,5.14-29.22-.36-43.73-1.2-14.9-5.29-21.74S230.83,33.2,218,28.59C218,28.59,211.36,15.56,184.2,6.92Z"/><path class="cls-26" d="M109.57,87.59C113,69.89,120.24,69.22,127.82,75S146,74.27,151.1,61.1s28.16-11.33,31.54-11,3.24,3.26,12.11,1.84,14.47-13.29,26.95-13.06c6.5.12,12.78,3.88,17.3,7.46a106.45,106.45,0,0,1,6.42,9.55c4.09,6.84-.22,7.22,5.29,21.74s.45,41.83.36,43.73,5.88,2.57,6.15,4.4-.57,9.23-2.38,10.52-10.4,4.39-44.12,2.26-44.36,8.17-91.51,6.49c-5.15-.18-9.85-.42-14.18-.7C103.59,129.26,107,101,109.57,87.59Z"/><path class="cls-27" d="M162.16,98.62c4.88-17.75,25.46-3.7,35.73-6.71s26.3-28.31,41.47-23.66,9.12,29.19,10.36,36.57c.61,3.64,1.75,5,2.75,5.52-.62,5.94-1.36,10.31-1.4,11-.09,1.9,5.88,2.57,6.15,4.4s-.57,9.23-2.38,10.52-10.4,4.39-44.12,2.26c-19.81-1.26-31.66,1.78-47.63,4.17C153.66,132.4,158.72,111.1,162.16,98.62Z"/><path class="cls-28" d="M200.67,108.32c-5.56-8.84,28.12-29.13,39.75-28.92,9.91.18,1.31,46.1-1.46,59.71-5.23.24-12.1.25-21.07-.17C211.36,131.23,205,115.15,200.67,108.32Z"/><path class="cls-27" d="M246,59.41c0-1.79-8.69-16.2-17.8-17.09s-12.15-1.08-16.1,1-13.34,10.18-18.3,11.07-4.61,1.87-9.23-.29-2.84,2.85-1.16,3.52,6.64,5.6,23.35-6,29.91-2.28,33.29,2S245.94,61.92,246,59.41Z"/><path class="cls-26" d="M59.08,84.3c-1.41,8.06-6.49,24.89-15.62,22.86s-25.87,1.6-32,4.25c-3.12,1.35-4.49.7-3.85-1A54.22,54.22,0,0,1,21.25,107c11.92-1.63,19.41-3.77,22-5.54s3.25-10.59,6.51-22.64c1.81-6.68,6.11-14.52,10-21.32C59.61,65.77,60.11,78.4,59.08,84.3Z"/><path class="cls-29" d="M199,31.73C187.71,36,178.37,48.69,177.82,47s8.38-13.42,10.84-15.73S186.38,21.63,182,20.8s-1.19-8.74,28.07-.84c6,4.84,8,8.63,8,8.63a32.25,32.25,0,0,1,8.48,4.77C219.46,31.43,206.81,28.76,199,31.73Z"/><path class="cls-29" d="M169.35,23c1.17-.73-23.36,13.25-29.73,35.27S156.43,31.12,169.35,23Z"/><path class="cls-29" d="M143.1,12.55c10.51-8.78,24.12-10.39,35.46-9.17a28.64,28.64,0,0,1,5.64,3.54,98,98,0,0,1,13.89,5.54c-10.24-.76-33.1-1-47.63,9.85C131.29,36.69,131.14,22.53,143.1,12.55Z"/><path class="cls-27" d="M118.36,121.48c-2.09-.37-.9-14.51,2-23s19.81-52.45,27-58.07-15.12,20.8-21.2,50.76S119.88,121.75,118.36,121.48Z"/><path class="cls-29" d="M50.19,129.29c6-.47,9.37-7.61-2.54-15.67S69.08,113,98.27,121s68.64,7.38,90.29,10.15,19.37.87,21.52-1.18,10.54-3.47,16.23-3.34,26.82.06,28.95-.59c.71-.22.76-.86.5-1.62.79.41,1.38.85,1.46,1.4.26,1.83-.57,9.23-2.38,10.52s-10.4,4.39-44.12,2.26-44.36,8.17-91.51,6.49c-46.76-1.66-57-7.74-82.63-12.13C37.46,129.21,45.92,129.63,50.19,129.29Z"/><path class="cls-28" d="M254.84,136.29c-1.8,1.29-10.4,4.39-44.12,2.26s-44.36,8.17-91.51,6.49S62,137.2,36,132.8.27,123.83,0,118.32a4.81,4.81,0,0,1,.43-2.2c3.91,6.3,24.32,9.8,33.56,12.41,10.48,2.95,69.72,12.07,96,11.43s35.53-1.9,40.95-3,32.19-3,36.24-3.3,5.57-3.55,8.28-5,33.06-.78,39.33-1.23a5.94,5.94,0,0,0,2.47-.61C257.23,129.52,256.4,135.18,254.84,136.29Z"/><path class="cls-27" d="M256.12,128.14s-4.47,1.93-15.38,1.37-24.76.28-26.43,1.87-9.72,6,6,6.12,30.8.46,33.46-3.1S256.12,128.14,256.12,128.14Z"/></svg>