<svg id="Layer_3" data-name="Layer 3" xmlns="http://www.w3.org/2000/svg" viewBox="0 0 2400 2400"><defs><style>.cls-1{fill:#855558;}.cls-2{fill:#ab2f50;}.cls-3{fill:#e79f94;}.cls-4{fill:#cc845b;}.cls-5{fill:#db9d6d;}.cls-6{fill:#864934;}.cls-7{fill:#d5c1ce;}.cls-8{fill:#ce496a;}.cls-9{fill:#f8aa9e;}.cls-10{fill:#d37376;}.cls-11{fill:#f9b5ab;}.cls-12{fill:#f48795;}.cls-13{fill:#8b0016;}.cls-14{fill:#3e0000;}.cls-15{fill:#c95e40;}.cls-16{fill:#522b10;}.cls-17{fill:#fcd3c9;}.cls-18{fill:#6c3d21;}.cls-19{fill:#fcd6d3;}.cls-20{fill:#fff;}.cls-21{fill:#eaa1ab;}.cls-22{fill:#d68c81;}</style></defs><title>licensed</title><path class="cls-1" d="M655.38,1749s-150.62,251.34-188.33,261.83-99.62-38.11-99.62-38.11l269.08-253.16Z"/><path class="cls-2" d="M1282.94,2098.5c289.73,46.22,313.9,247.59,313.9,247.59l158.32-120.17s28.47-177.84-123.29-319.41C1613.73,1892,1273.26,2091.86,1282.94,2098.5Z"/><path class="cls-3" d="M1678.51,1182.18c138-106.31,594.35-50.23,594.35-50.23l20.69,110.17s-450.1,182.27-572.3,137.64C1646.62,1352.46,1597,1245,1678.51,1182.18Z"/><path class="cls-1" d="M2264.62,1131.09s70-38.81,76.08-30.76-5.56,52.72-5.56,52.72,46.26,2.29,45.6,17.8-62.44,72.24-87.57,71.36C2268,1209.84,2264.62,1131.09,2264.62,1131.09Z"/><path class="cls-4" d="M859.72,278.13C1003.3,414.61,983.88,668.19,816.28,844.5s-419.84,208.64-563.45,72.16S128.67,526.59,296.26,350.29,716.1,141.65,859.72,278.13Z"/><path class="cls-5" d="M1220.21,147.42c-26.88-25.52-61.68-42.28-102.31-50.68l26.38-50.82-14.51-7.5L1101,93.88a323.25,323.25,0,0,0-34.58-3.14l7.31-84.32L1057.47,5l-7.4,85.34C871.65,90.92,621,212.68,412.89,431.6A1373.35,1373.35,0,0,0,299.36,567.75c-21.63-22.15-24.6-33.74-24.6-33.87l-5.87,1.18,5.87-1-11.7,2.11c.27,1.61,3.7,15.59,29.19,41.3-6.59,9.24-13,18.48-19.24,27.78-40.93-17.41-68.22-6.43-69.51-5.91l4.57,11c1.1-.45,23.46-9.07,58.14,5-171.86,259.22-212.58,526.33-96.12,637,144.57,137.42,476.33-18.06,766.31-323.17S1364.82,284.82,1220.21,147.42Z"/><path class="cls-6" d="M1126.55,324.31c68.41,66.74-48,297.05-260,514.45s-439.4,339.53-507.81,272.78S390.3,792.79,602.34,575.41,1058.1,257.58,1126.55,324.31Z"/><path class="cls-7" d="M1646,1887.4c37.67-168.84-3.86-410.32-5.73-413.81l-547-35.56c-108.62,68-210.82,175.8-234.31,274.5C1106.42,1814.86,1372.39,1890.74,1646,1887.4Z"/><path class="cls-8" d="M859,1712.53c-4.83,20.2-8,38.79-9.28,54.55-7.55,119.1,18.86,243.17,275.58,316.28,239.52,73.66,468.74-52.44,520.71-196C1372.39,1890.74,1106.42,1814.86,859,1712.53Z"/><path class="cls-9" d="M1031.3,548.77C986,361.41,646.17,451,646.17,451s.23,329.68,209.48,344.71Z"/><path class="cls-10" d="M987.92,594.24c-26.66-110.18-245.09-77.9-245.09-77.9s18.73,214.27,141.79,223.11Z"/><path class="cls-9" d="M1666.28,406.1c-77.68-157.36,202.08-290.89,202.08-290.89s202.2,228.3,64.76,360.92Z"/><path class="cls-10" d="M1732.37,407.8c-45.68-92.56,125.79-197.47,125.79-197.47S1970.1,371,1889.31,449Z"/><path class="cls-11" d="M2135.55,801.75c98.58,439.77-169.15,591.77-523.65,671.25s-661.52,56.29-760.1-383.47c-99.19-442.34,165.81-606.66,520.29-686.15S2036.37,359.41,2135.55,801.75Z"/><path class="cls-12" d="M1869.14,899c5.37,28.7-128.49,77.88-299,109.84s-313.1,34.61-318.48,5.9,128.48-77.88,299-109.85S1863.72,870.33,1869.14,899Z"/><path class="cls-13" d="M1894.59,1122.13c-110-13.76-192.5,110-275,137.45-110,41.24-219.94-68.73-329.91-27.49-88.24,25.2-164.58,142.8-145,247,131.81,47,293.8,46.59,467.17,7.73,170.2-38.18,320.26-106.93,419.54-202.36C2025.54,1196.85,1972.25,1135.06,1894.59,1122.13Z"/><path class="cls-14" d="M1516.42,1329.56c21.87,40.73,7.63,107.85-29.84,133.27-42.62,28.92-97.74,36.35-143.41,21.9-37.09-11.74-68.94-54.57-68.11-96.7,1-52.07,44.28-121,90.85-91.81,19.61,12.34-6,46.55-4,63.16,2.62,21.4,31.25,31.63,47.43,18.56,12.34-10,10.64-25.52,3.57-37.07-10.38-16.95-11.81-31.33.38-44C1445,1263.81,1500.32,1299.62,1516.42,1329.56Z"/><path class="cls-15" d="M1457.25,1452c-64.26-70-156.74-17.73-211.19,53,105.12,17.7,223.66,11.54,348.46-14.68C1557.33,1449.68,1507.91,1416.67,1457.25,1452Z"/><path class="cls-16" d="M1041.69,785.27l-30.44-11.74c14.4-37.38,65.94-103.07,157.92-84.16l-6.6,32C1074.44,703.23,1043,781.91,1041.69,785.27Z"/><path class="cls-16" d="M1887.21,606.06c-2.63-2.46-65.14-59.93-136.65-6.22L1731,573.7c75.11-56.39,149.76-19,178.74,8.69Z"/><path class="cls-17" d="M1725.88,1012.19c11.82,52.63-41.16,87-115.93,103.76s-143,9.59-154.84-43,42.78-102.69,117.58-119.45S1714.06,959.54,1725.88,1012.19Z"/><path class="cls-18" d="M1569.09,1033.87a38.88,38.88,0,1,1-46.44-29.41A38.89,38.89,0,0,1,1569.09,1033.87Z"/><path class="cls-18" d="M1688.84,1007a38.88,38.88,0,1,1-46.44-29.44A38.85,38.85,0,0,1,1688.84,1007Z"/><path class="cls-19" d="M1936.18,565.3a27.15,27.15,0,0,1-18.3-7c-4.35-4-8.84-7.8-13.32-11.49a27.22,27.22,0,0,1,34.55-42.07c5.14,4.26,10.29,8.68,15.36,13.27a27.2,27.2,0,0,1-18.29,47.34Z"/><path class="cls-19" d="M1853.07,508.12a26.83,26.83,0,0,1-12.26-2.95c-164.38-83.46-359.51-22.82-361.43-22.21a27.21,27.21,0,1,1-16.63-51.81c8.81-2.83,218-68.26,402.68,25.52a27.2,27.2,0,0,1-12.36,51.45Z"/><path class="cls-20" d="M1324.85,1007.64a134.86,134.86,0,1,1-161.1-102.1A134.91,134.91,0,0,1,1324.85,1007.64Z"/><path class="cls-16" d="M1190.72,1159.76c63-14.15,102.85-75.18,89.12-136.39S1204,924,1141,938.14a117.89,117.89,0,0,0-74,51.71,134.56,134.56,0,0,0,69,169.28A118.8,118.8,0,0,0,1190.72,1159.76Z"/><path class="cls-20" d="M2041.58,853.16a134.86,134.86,0,1,1-161.11-102.11A134.89,134.89,0,0,1,2041.58,853.16Z"/><path class="cls-16" d="M1907.45,1005.25c62.93-14.12,102.83-75.16,89.15-136.37s-75.91-99.36-138.86-85.23a118,118,0,0,0-74,51.72,134.55,134.55,0,0,0,69,169.28A118.84,118.84,0,0,0,1907.45,1005.25Z"/><path class="cls-20" d="M966.34,1027.76c-11.11,31.47-42.46,49.13-70,39.43s-41-43.11-29.83-74.58S981.07,872.72,981.07,872.72,977.44,996.26,966.34,1027.76Z"/><path class="cls-11" d="M1143.17,1474.51c163.71-75.66,611.63,85.74,611.63,85.74l-4.39,116s-496.33,80.71-609.47,7.58C1071.82,1639.13,1046.42,1519.19,1143.17,1474.51Z"/><path class="cls-1" d="M1746.67,1557.49s79.55-23.15,83.87-13.6-17.7,52-17.7,52,46.18,12.92,42,28.44-79.64,58.62-104.83,52C1732.08,1637.8,1746.67,1557.49,1746.67,1557.49Z"/><path class="cls-8" d="M863,1734.94c-113.31,128-213.33,11.82-213.33,11.82L526.1,1942.25s351.42,341.26,590,136Z"/><path class="cls-1" d="M1596.63,2345s170.86-207.36,210.74-213.2,97.05,49.82,97.05,49.82l-292.24,194.89Z"/><path class="cls-21" d="M746.65,2034.15A64,64,0,0,1,758.29,2010c8-10.26,17.43-16,27.32-16.71,8.89-.61,17.51,2.86,24.9,10.12,12.67,12.32,12.42,35.93-.53,52.62-5.93,7.63-14.1,12.36-22.35,12.91a22.26,22.26,0,0,1-17.39-6.27c-8.86-8.64-8.73-25.17.29-36.79,4.15-5.38,9.88-8.67,15.73-9.09a16.21,16.21,0,0,1,12.54,4.53c6.44,6.3,6.41,17.78-.11,26.12a16.14,16.14,0,0,1-11.35,6.52,12.09,12.09,0,0,1-9.24-3.32,3.36,3.36,0,0,1-.06-4.69,3.32,3.32,0,0,1,4.68,0,5.25,5.25,0,0,0,4.17,1.49,9.79,9.79,0,0,0,6.63-4c4.29-5.61,4.65-13.54.71-17.42a9.71,9.71,0,0,0-7.5-2.68c-4,.28-8,2.71-11,6.56-7,9.1-7.43,21.69-.86,28.06a15.49,15.49,0,0,0,12.29,4.43c6.46-.44,12.88-4.2,17.65-10.38,11-14.14,11.47-33.85,1.15-43.91-6-5.87-12.89-8.71-19.86-8.24-8,.54-15.8,5.46-22.54,14.15-9.52,12.26-13.78,28.38-11.28,42.18,1.72,9.31,6.5,16.75,13.42,21a3.29,3.29,0,1,1-3.42,5.62c-8.54-5.2-14.41-14.2-16.46-25.4A55.06,55.06,0,0,1,746.65,2034.15Z"/><path class="cls-21" d="M1635.13,2038.31a65.4,65.4,0,0,1,18.19-19.78c10.54-7.48,21.28-10.28,31-8,8.66,2,15.92,7.79,20.92,16.84,8.54,15.43,1.46,38-15.74,50.25-7.87,5.61-17.07,7.73-25.14,5.9a22.25,22.25,0,0,1-14.81-11c-6-10.83-1.07-26.58,10.87-35.14,5.52-3.93,12-5.44,17.74-4.14a16.29,16.29,0,0,1,10.68,7.92c4.36,7.89,1,18.89-7.67,25a16,16,0,0,1-12.75,2.94,11.75,11.75,0,0,1-7.85-5.88,3.25,3.25,0,0,1,1.27-4.44,3.3,3.3,0,0,1,4.48,1.29,5.08,5.08,0,0,0,3.57,2.59,9.42,9.42,0,0,0,7.47-1.86c5.77-4.13,8.39-11.62,5.72-16.45a9.39,9.39,0,0,0-6.41-4.72c-3.88-.89-8.42.25-12.41,3.1-9.35,6.65-13.39,18.6-9,26.6a15.59,15.59,0,0,0,10.51,7.79c6.28,1.44,13.54-.32,19.91-4.84,14.57-10.38,20.74-29.1,13.77-41.73-4.06-7.35-9.82-12.06-16.58-13.59-7.86-1.8-16.78.64-25.71,7-12.64,8.93-21.41,23.17-23,37.08-1,9.44,1.37,17.94,6.75,24a3.37,3.37,0,0,1-.16,4.65,3.32,3.32,0,0,1-4.7-.29c-6.68-7.4-9.71-17.76-8.46-29A56.37,56.37,0,0,1,1635.13,2038.31Z"/><path class="cls-22" d="M1026.1,1064.91s7.21,103.41,108.66,130.91C996,1191.24,1026.1,1064.91,1026.1,1064.91Z"/><path class="cls-22" d="M2057.5,779.5c103.43,100.45,6,194.91,6,194.91S2120.15,871,2057.5,779.5Z"/></svg>