<svg id="Layer_3" data-name="Layer 3" xmlns="http://www.w3.org/2000/svg" viewBox="0 0 2400 2355.36"><defs><style>.cls-1{fill:#00796c;}.cls-2{fill:#f9b5ab;}.cls-3{fill:#855558;}.cls-4{fill:#cee5b7;}.cls-5{fill:#d2e288;}.cls-6{fill:#d68c81;}.cls-7{fill:#7ec352;}.cls-8{fill:#006358;}.cls-9{fill:#f8aa9e;}.cls-10{fill:#d37376;}.cls-11{fill:#fff;}.cls-12{fill:#522b10;}.cls-13{fill:#fcd3c9;}.cls-14{fill:#6c3d21;}.cls-15{fill:#fcd6d3;}.cls-16{fill:#cf8158;}.cls-17{fill:#868383;}.cls-18{fill:#5f5c5c;}.cls-19{fill:#bbb5b4;}.cls-20{fill:#ffcc40;}</style></defs><title>licensed</title><path class="cls-1" d="M1476.29,1802c-1.47,23-4.14,43.83-8,61-31,129.19-138.48,237.39-478.23,237.39-312.56,0-419.38-177.7-426.62-261.73-5.78-36.57-6.33-65.4-3.37-104.17C857.46,1826.18,1172.59,1831.13,1476.29,1802Z"/><polygon class="cls-1" points="1434.65 1938.36 1489.58 2320.55 1243.53 2320.55 1055.8 2019.51 1434.65 1938.36"/><polygon class="cls-2" points="1181.94 2221.82 1243.53 2320.55 1489.58 2320.55 1468.39 2173.26 1181.94 2221.82"/><polygon class="cls-1" points="941.67 1938.36 979.38 2320.55 773.22 2321.2 573.36 1880.77 941.67 1938.36"/><polygon class="cls-2" points="724.22 2213.15 773.22 2321.2 979.38 2320.55 968.82 2213.15 724.22 2213.15"/><path class="cls-3" d="M1245.18,2314.37s252.31-91.49,290-71.2,52.89,112.17,52.89,112.17H1239.44Z"/><path class="cls-3" d="M979.57,2315.33S735.33,2226,700.11,2245.78s-49.52,109.56-49.52,109.56H984.94Z"/><path class="cls-4" d="M774.87,2166.73c-1.39,0-2.84,0-4.3-.11-15.66-.87-27.9-6.31-35.41-15.77-6.76-8.44-9.22-19.43-7.1-31.77,3.56-21.12,27.15-37.18,52.83-35.73,11.67.64,22,5.53,28.29,13.42a27.4,27.4,0,0,1,5.76,21.79c-2.57,14.86-19,26.14-37,25.17-8.26-.47-15.59-3.94-20.07-9.57a19.75,19.75,0,0,1-4.09-15.76c1.86-10.84,13.48-18.82,26.26-18.05a19.92,19.92,0,0,1,14.52,6.92,14.64,14.64,0,0,1,3,11.72,4.35,4.35,0,0,1-8.57-1.46,6,6,0,0,0-1.26-4.83,11,11,0,0,0-8.19-3.68c-8.54-.64-16.18,4.51-17.25,10.87a10.84,10.84,0,0,0,2.36,8.87c2.95,3.69,7.93,6,13.71,6.31,13.76.87,26.13-7.31,27.94-18a18.39,18.39,0,0,0-4-14.92c-4.76-6-12.81-9.66-22-10.19-21.68-1.25-40.92,11.64-43.77,28.53-1.69,9.86.14,18.47,5.33,24.92,6,7.47,16,11.78,29.14,12.5,18.53,1.09,37.26-5.71,49.06-17.54,8-8,12-17.68,11.47-27.3a4.28,4.28,0,0,1,4-4.58,4.09,4.09,0,0,1,4.59,4.07c.7,12.1-4.26,24.15-14,33.93C813.49,2159.33,794.59,2166.73,774.87,2166.73Z"/><path class="cls-4" d="M1331.14,2159.79c-1.48,0-3,0-4.45-.13-16.2-.86-28.87-6.49-36.67-16.23-7-8.73-9.48-20.09-7.32-32.86,3.71-21.82,28.16-38.34,54.62-36.93,12.08.67,22.76,5.73,29.27,13.87a28.12,28.12,0,0,1,5.91,22.47c-2.61,15.32-19.53,27-38.19,26-8.5-.47-16-4.07-20.64-9.87a20.35,20.35,0,0,1-4.27-16.2c1.91-11.18,14.19-19.22,27.09-18.59,6.14.33,11.58,2.94,14.9,7.12a15.07,15.07,0,0,1,3.18,12A4.34,4.34,0,1,1,1346,2109a6.08,6.08,0,0,0-1.42-5.14,11.48,11.48,0,0,0-8.59-3.89c-8.77-.44-16.89,4.75-18,11.4a11.37,11.37,0,0,0,2.49,9.33c3.07,3.87,8.28,6.28,14.38,6.63,14,.77,27.21-7.64,29.09-18.78a19.16,19.16,0,0,0-4.16-15.61c-4.94-6.22-13.31-10.09-22.92-10.61-22.32-1.27-42.64,12.1-45.62,29.71-1.78,10.27.17,19.25,5.58,26,6.12,7.75,16.66,12.26,30.36,13,19.08,1,38.71-6,51-18.27,8.29-8.32,12.56-18.41,11.92-28.42a4.41,4.41,0,0,1,4-4.61,4.17,4.17,0,0,1,4.61,4.09c.73,12.51-4.37,24.95-14.42,35C1371.13,2152.15,1351.49,2159.79,1331.14,2159.79Z"/><path class="cls-5" d="M560.11,1734.46c14.68-191.82,117.19-390.48,120.37-393.6L1394,1435.37c45.86,73.66,89.22,253.94,82.29,366.58C1159.2,1848,875.5,1855.55,560.11,1734.46Z"/><polygon class="cls-6" points="885.16 1405.34 1001.99 1529.41 1147.94 1418.12 885.16 1405.34"/><path class="cls-1" d="M905.82,1417.29l98.93,97.73,97.12-75.93s97.65-.72,153.4,7.11c-122.33,83.21-254.47,96.9-254.47,96.9S848.08,1504.92,780.58,1410C833.42,1395.31,905.82,1417.29,905.82,1417.29Z"/><path class="cls-1" d="M1013.88,1530c41.66,138.44,147.81,164.37,147.81,164.37s-20.65-113.73-113-164Z"/><path class="cls-7" d="M1389.25,1427.32C1603.66,1455.91,1711,1693.46,1602,1746c-180.36,86.83-325.12-171.46-325.12-171.46S1355,1468.51,1389.25,1427.32Z"/><path class="cls-7" d="M666.8,1363c-33.46,231.56,195.9,411.92,195.9,411.92l-106.83,69s-219.21-55.33-260.7-162.53C459.78,1577.46,562.16,1371.91,666.8,1363Z"/><path class="cls-8" d="M1649.6,516.66s456.22,291.62,255.75,366.48-662.25-129-662.25-129Z"/><path class="cls-1" d="M526.21,496.82,1683.2,697S1802.76,79.48,1214.54,11.15C604.58-59.7,526.21,496.82,526.21,496.82Z"/><path class="cls-9" d="M1497.36,398.68c21.71-202.54,390.11-155.41,390.11-155.41s45.06,345.5-172.12,390Z"/><path class="cls-10" d="M1549,440.38c12.83-119.11,246.15-115.31,246.15-115.31s9.75,227.11-118,253.28Z"/><path class="cls-9" d="M800,335.55C860,159.08,546.84,57.12,546.84,57.12S365.5,325.49,528.53,446.18Z"/><path class="cls-10" d="M730.54,346.48C765.85,242.7,570.75,155.87,570.75,155.87s-95.66,184.69.22,255.66Z"/><path class="cls-2" d="M360.36,817.08c-43,476.77,259.87,599.91,644.24,634.62s704.46-32.13,747.54-508.9c43.31-479.58-258.5-616-642.81-650.75S403.66,337.53,360.36,817.08Z"/><path class="cls-11" d="M1118.79,917.91a143.73,143.73,0,1,0,156.06-130.2A143.73,143.73,0,0,0,1118.79,917.91Z"/><path class="cls-12" d="M1154.35,923.57a111.79,111.79,0,1,0,121.41-101.3A111.8,111.8,0,0,0,1154.35,923.57Z"/><path class="cls-11" d="M650.66,883.11A143.74,143.74,0,1,0,806.78,752.9,143.77,143.77,0,0,0,650.66,883.11Z"/><path class="cls-12" d="M696.12,894.66a108.1,108.1,0,1,0,117.37-98A108.09,108.09,0,0,0,696.12,894.66Z"/><path class="cls-12" d="M1404.7,679.3c-.82-.77-84.33-76.64-178.19-44.12l-11.36-32.78C1329,563,1424.31,650.18,1428.32,653.92l-23.62,25.36,11.81-12.67Z"/><path class="cls-12" d="M737.4,593.92l-18.57-29.29c4.08-2.59,101.06-62.62,206-3.44l-17,30.21C820.76,542.29,738.22,593.42,737.4,593.92Z"/><path class="cls-13" d="M852.11,1077.81c-5.14,57.06,56.38,109.25,137.48,116.57s151-33,156.14-90.06-56.38-109.27-137.47-116.61S857.24,1020.73,852.11,1077.81Z"/><path class="cls-14" d="M1022.44,1095.83a41.3,41.3,0,1,0,44.87-37.4A41.36,41.36,0,0,0,1022.44,1095.83Z"/><path class="cls-14" d="M892.64,1084.1a41.31,41.31,0,1,0,44.85-37.41A41.29,41.29,0,0,0,892.64,1084.1Z"/><path class="cls-15" d="M1366.71,1140c-1.74,19.67,23.26,38,55.9,40.94s60.57-10.6,62.34-30.25-23.24-38-55.91-41S1368.48,1120.37,1366.71,1140Z"/><path class="cls-15" d="M545.63,1063.69c-1.8,19.66,23.23,38,55.89,41s60.54-10.59,62.35-30.27-23.26-38-55.89-40.92S547.37,1044,545.63,1063.69Z"/><path class="cls-12" d="M1029,1293.88c-61.51,0-106.4-37.24-107.12-37.84l14.94-17.62c4,3.33,98.24,80.78,196.51-15.16l16.18,16.54C1107.37,1280.91,1065.29,1293.88,1029,1293.88Z"/><polygon class="cls-16" points="534.93 2063.11 507.63 2020.36 1317.12 1502.99 1344.4 1545.75 534.93 2063.11"/><path class="cls-3" d="M755.87,1844c5,12.72,33.07,64.9,54.47,62.21s21.73-52.5,21.73-52.5,52.43,34.07,59.26,18c3.71-51.35-30.11-97.24-30.11-97.24S803.56,1795.15,755.87,1844Z"/><path class="cls-3" d="M1292.6,1600.1s-40.79-52.61-31.68-80.39c4.77-14.5,49-3.31,49-3.31s-13.42-38.47,5.11-40.79c34.51-4.28,75.72,44.1,75.72,44.1Z"/><polygon class="cls-17" points="671.15 1990.74 512.39 2093.17 467.5 2023.64 626.28 1921.22 671.15 1990.74"/><path class="cls-18" d="M134.71,2081.19c114-16.88,324-171.13,324-171.13l167.07,250.62S436.79,2321.39,274.4,2334Z"/><path class="cls-19" d="M598.16,1991.22a14.08,14.08,0,1,1-13.82-14.34A14.06,14.06,0,0,1,598.16,1991.22Z"/><path class="cls-1" d="M972.74,1529.32C892.33,1622.48,927,1706.81,927,1706.81s72.88-67.35,63.11-153.69Z"/><path class="cls-20" d="M1040.77,1529.9a37.68,37.68,0,1,1-37.64-37.67A37.69,37.69,0,0,1,1040.77,1529.9Z"/><path class="cls-17" d="M458.66,1910.06s-190,139.55-306.67,167.65c118.46-11.44,299.07-129,299.07-129l135,204.41s-157.25,152.25-311.78,180.69l.17.2c162.39-12.63,351.33-173.34,351.33-173.34Z"/></svg>