<svg id="Layer_1" data-name="Layer 1" xmlns="http://www.w3.org/2000/svg" viewBox="0 0 312 566.93"><defs><style>.cls-1{fill:#f7a27e;}.cls-2{fill:#f05a41;}.cls-3{fill:#f0accc;}.cls-4{fill:#b479a3;}.cls-5{fill:#f37a46;}.cls-6{fill:#e97b4e;}.cls-7{fill:#51b2c4;}.cls-8{fill:#20899c;}.cls-9{fill:#217a82;}.cls-10{fill:#fff100;}.cls-11{fill:#f6921e;}.cls-12{fill:#733863;}.cls-13{fill:#231f20;}.cls-14{fill:#dd3927;}</style></defs><title>11</title><path class="cls-1" d="M76.35,18.6C70.71,18,56.92,16.6,46,9.72S24-1.45,19.69,12.87s-.58,41.53,22.05,55Z"/><path class="cls-2" d="M69.31,28.63s-16.4-.58-29-6.88-16.9,3.44-11.17,16S40.67,60.84,47.08,60.27Z"/><path class="cls-3" d="M74.8,241S15.4,277.75,5.07,351.38s-2.93,72.28-2.93,72.28L15.26,413.4,28.9,423.57s73.55-127,65.37-151.88S85.7,236,74.8,241Z"/><path class="cls-3" d="M36.76,409.67c18.74-33.66,64-118.2,57.51-138C86.09,246.84,85.7,236,74.8,241c0,0-59.4,36.78-69.73,110.41C2.16,372.17.66,387,0,397.53,5.69,402.6,17.35,410,36.76,409.67Z"/><path class="cls-4" d="M2.14,423.66,15.26,413.4,28.9,423.57s3.06-5.28,7.86-13.9C17.35,410,5.69,402.6,0,397.53-1.67,424.36,2.14,423.66,2.14,423.66Z"/><path class="cls-1" d="M74.8,241S15.4,277.75,5.07,351.38s-2.93,72.28-2.93,72.28L15.26,413.4,28.9,423.57s73.55-127,65.37-151.88S85.7,236,74.8,241Z"/><path class="cls-5" d="M2.14,423.66,15.26,413.4,28.9,423.57s3.06-5.28,7.86-13.9C17.35,410,5.69,402.6,0,397.53-1.67,424.36,2.14,423.66,2.14,423.66Z"/><path class="cls-2" d="M36.76,409.67c-4.8,8.62-7.86,13.9-7.86,13.9l-6.23-4.65c1.51-3,3.15-6.25,4.89-9.73A67.07,67.07,0,0,0,36.76,409.67Z"/><path class="cls-6" d="M94.27,271.69c6.51,19.78-38.77,104.32-57.51,138a67.07,67.07,0,0,1-9.2-.48c18.11-36.26,46.71-95.92,52.16-112.36,4.52-13.64,1.53-39-1.54-56.93C85.89,238.73,87,249.71,94.27,271.69Z"/><path class="cls-1" d="M126.63,425.84s17.09,107.44,43.07,139l20.37-9.83,19.66,14.05s34.37-146.43,26.18-196.16l-74.64,36Z"/><path class="cls-6" d="M235.91,372.94c8.19,49.73-26.18,196.16-26.18,196.16l-7.79-5.56c18.65-96.85,22.78-160.87,23.69-185.63Z"/><path class="cls-5" d="M190.07,555.05l-20.37,9.83A86,86,0,0,1,159,547c22.23,5.82,44.1,2,55.87-1.09-3,14.25-5.15,23.24-5.15,23.24Z"/><path class="cls-2" d="M214.88,545.86c-3,14.25-5.15,23.24-5.15,23.24l-7.79-5.56c1-5.26,2-10.44,2.92-15.5C208.68,547.36,212.08,546.59,214.88,545.86Z"/><path class="cls-7" d="M136.64,490.45s50.62,15.45,93.45,0L241.33,416l-114.7,23.87S128.92,475,136.64,490.45Z"/><path class="cls-8" d="M241.33,416l-11.24,74.44a109.8,109.8,0,0,1-16.36,4.44c4.49-30.08,7.33-55.21,9.11-75Z"/><path class="cls-1" d="M119.4,421.63s-3.07,129.21-17.47,146.06l-15.69-8.81-17.57,8.81S26,447.69,37.74,374.35Z"/><path class="cls-6" d="M119.4,421.63s-3.07,129.21-17.47,146.06l-7-3.94c9.6-29,13.17-111.83,14.3-148Z"/><path class="cls-7" d="M31.32,421.63s6.71,42.13,11.8,68.11,76.28,4.92,76.28,4.92l3.83-60.39Z"/><path class="cls-8" d="M123.23,434.27l-3.83,60.39s-6.06,1.79-14.76,3.68c1.93-22.92,3.17-47.1,3.93-66.09Z"/><path class="cls-2" d="M109,546.21c-2,9.64-4.3,16.88-7,20.08l-6.62-3.72a126.16,126.16,0,0,0,3.2-13.36A72.33,72.33,0,0,0,109,546.21Z"/><path class="cls-5" d="M98.51,549.21a126.16,126.16,0,0,1-3.2,13.36l-9.07-5.09-17.57,8.81S66,558.91,62.28,546.7A65.68,65.68,0,0,0,98.51,549.21Z"/><path class="cls-3" d="M211.28,250.43s79.12,38.39,93.16,115.64,4.21,75.84,4.21,75.84l-17.48-10.72-18.1,10.72s-98.31-133.07-87.54-159.17S196.76,245.28,211.28,250.43Z"/><path class="cls-1" d="M262.56,427.35c-25.05-35.26-85.61-123.83-77-144.61,10.77-26.11,11.23-37.46,25.75-32.31,0,0,79.12,38.39,93.16,115.64,4,21.81,6,37.34,6.94,48.42C303.84,419.83,288.37,427.6,262.56,427.35Z"/><path class="cls-5" d="M308.65,441.91l-17.48-10.72-18.1,10.72s-4.09-5.53-10.51-14.56c25.81.25,41.28-7.52,48.82-12.86C313.72,442.64,308.65,441.91,308.65,441.91Z"/><path class="cls-2" d="M308.65,441.91l-7.22-4.43q-.65-8.58-1.66-16.66a61,61,0,0,0,11.61-6.33C313.72,442.64,308.65,441.91,308.65,441.91Z"/><path class="cls-6" d="M195.3,258.09c3.77-8,7.45-10.68,16-7.66,0,0,79.12,38.39,93.16,115.64,4,21.81,6,37.34,6.94,48.42a61,61,0,0,1-11.61,6.33C286.68,317.8,228,274.48,195.3,258.09Z"/><path class="cls-1" d="M43.12,331.74c2.38-29.05,15.64-59.73,26.08-80,20.68,8.77,51.68,14.35,86.35,14.35a286.89,286.89,0,0,0,53.62-4.82c14,34.72,26,87,28,127.33,2.8,57.58-15.45,58.29-120.79,57.58S39.08,380.89,43.12,331.74Z"/><path class="cls-6" d="M69.2,251.76c7.24-14,13.13-23.06,13.13-23.06s88.07-20.56,108.44,0c6.09,6.15,12.43,17.77,18.4,32.59a286.89,286.89,0,0,1-53.62,4.82C120.88,266.11,89.88,260.53,69.2,251.76Z"/><path class="cls-6" d="M208.4,399.72c-2.84-63.83-25.8-153.78-46.56-179.93,12.6.72,23.33,3.26,28.93,8.91,20.36,20.56,43.54,102.33,46.35,159.92,1.72,35.39-4.52,49.29-34,54.59C208.15,433.49,209.29,419.58,208.4,399.72Z"/><path class="cls-7" d="M241.33,356.49s-26.75-19.64-35.58-44.71S54.18,294,43.12,315.76,27.06,417.61,35.7,447.9s204.22,25.87,205.63-30.31S241.33,356.49,241.33,356.49Z"/><path class="cls-8" d="M220.27,336.2a133.56,133.56,0,0,0,21.06,20.29s1.41,4.92,0,61.1c-.37,15-14.54,26.26-35.28,34.21C223.52,418.28,221.72,358.91,220.27,336.2Z"/><path class="cls-8" d="M171,348.46s-66.67,13.85-99.14-3.61c0,0-3.19,48.14,1.88,61,4.24,10.77,56.48,42.75,91.76,4.81C177,398.25,171,348.46,171,348.46Z"/><path class="cls-9" d="M159.85,350.38c6.88-1,11.14-1.92,11.14-1.92s6,49.79-5.5,62.18a58.09,58.09,0,0,1-15.06,11.76c1-1.25,2-2.55,3-3.94C161.67,406.87,160.94,370.31,159.85,350.38Z"/><path class="cls-8" d="M90.81,211s-25.12,101.7-7.92,120.66,22.82-36.51,22.82-36.51c-2.1-26-7-71.41,0-80S90.81,211,90.81,211Z"/><path class="cls-9" d="M105.71,215.15c-7,8.54-2.1,54,0,80,0,0-4.45,44-17.57,40.23,7.48-13.73,13.8-45,8.28-73.46-4.4-22.64,1.82-41.78,6.39-52C106.42,210.21,108.72,211.5,105.71,215.15Z"/><path class="cls-10" d="M82.15,320.21c0,3,1.34,5.38,3,5.38s3-2.41,3-5.38-1.34-5.38-3-5.38S82.15,317.24,82.15,320.21Z"/><path class="cls-11" d="M88.14,320.21a8.59,8.59,0,0,0-.56-3.12,6.67,6.67,0,0,1,1.53,4.64c0,2.91-1.28,5.27-2.87,5.27-.84,0-1.59-.68-2.12-1.75a1.86,1.86,0,0,0,1,.34C86.8,325.59,88.14,323.18,88.14,320.21Z"/><path class="cls-8" d="M158.12,215.15s-25.6,101.58-8.49,120.62,23-36.41,23-36.41c-2-26-6.68-71.44.38-80S158.12,215.15,158.12,215.15Z"/><ellipse class="cls-10" cx="155.05" cy="323.49" rx="3.96" ry="7.02"/><path class="cls-9" d="M172.73,219.35c-7,8.54-2.1,54,0,79.94,0,0-4.29,42.42-16.87,40.4,7.24-14.21,13.15-44.66,7.75-72.46-4.55-23.48,2.3-43.2,6.9-53C173.71,214.58,175.54,215.93,172.73,219.35Z"/><path class="cls-11" d="M153.55,328.87c1.87,0,3.39-3.38,3.39-7.55a14.35,14.35,0,0,0-.68-4.48c1.59.92,2.75,3.53,2.75,6.65,0,3.88-1.78,7-4,7-1.18,0-2.23-.94-3-2.4A2,2,0,0,0,153.55,328.87Z"/><path class="cls-1" d="M145.12,7c30.19,4.91,45.65,1.4,63.2,19s28.79,26.68,40,53.37,20.37,73.73,15.45,106-25.28,69.52-96.21,66.71S15.9,238,20.12,165.69,44.35,14.05,99.47,11.19,145.12,7,145.12,7Z"/><path class="cls-6" d="M237.71,185.35c4.91-32.31-4.22-79.36-15.45-106s-22.47-35.82-40-53.37C167.84,11.55,154.86,11.31,134,9,148.93,7.7,145.51,7,145.15,7c30.18,4.91,45.62,1.41,63.17,19s28.79,26.68,40,53.37,20.37,73.73,15.45,106-25.28,69.52-96.21,66.71c-2.23-.09-4.48-.18-6.73-.29C216.24,247.63,233.27,214.5,237.71,185.35Z"/><path class="cls-2" d="M180.23,164.14c0,19.08,15.25,34.55,34.06,34.55s34.06-15.47,34.06-34.55a34.06,34.06,0,1,0-68.12,0Z"/><path class="cls-2" d="M14.15,149.63a29,29,0,1,0,29-28.7A28.84,28.84,0,0,0,14.15,149.63Z"/><path class="cls-12" d="M20,221.17a.27.27,0,0,1,0,.15C20,221,20,221,20,221.17Z"/><path class="cls-6" d="M199.6,24.88c6.91-.68,23.82-2.46,37.16-10.88s27-13.7,32.31,3.86.7,50.91-27,67.42Z"/><path class="cls-2" d="M208.24,37.18s20.1-.71,35.54-8.43S264.5,33,257.48,48.41,243.14,76.74,235.29,76Z"/><path class="cls-13" d="M80.14,117.71a7.52,7.52,0,0,1,2.52-.77,3.52,3.52,0,0,1,3.45,2.62c.5,1.81-.52,3.18-1.71,4.37a3.51,3.51,0,0,1-5-5l.47-.48.19-.2a2.92,2.92,0,0,0-.75,1.28c.12.9.24,1.8.35,2.7,0,0,0,0,0,0l2.1,1.62,1.63,0c.58-.26.67-.29.28-.11a3.57,3.57,0,0,1-4.81-1.26,3.52,3.52,0,0,1,1.26-4.8Z"/><path class="cls-13" d="M168.29,121.44a3.23,3.23,0,0,0-.88-2.16l.06.06a2.39,2.39,0,0,0-1.13-.68c.6.22-1,0-.15,0a3.52,3.52,0,0,1,0,7c-2.51-.08-4.81-1.52-4.92-4.22a3.51,3.51,0,0,1,7,0Z"/><path class="cls-5" d="M92,155.6c0,14.36,12.47,26,27.86,26s27.85-11.64,27.85-26-12.47-26-27.85-26S92,141.24,92,155.6Z"/><path class="cls-2" d="M119.84,181.6c15.38,0,27.85-11.64,27.85-26a24.55,24.55,0,0,0-4.21-13.7,25,25,0,0,1,7.61,17.82c0,14.36-12.47,26-27.86,26a28.27,28.27,0,0,1-23.64-12.3A28.69,28.69,0,0,0,119.84,181.6Z"/><path class="cls-14" d="M101.93,156.09c0,4.52,1.73,8.19,3.86,8.19s3.87-3.67,3.87-8.19-1.74-8.2-3.87-8.2S101.93,151.56,101.93,156.09Z"/><path class="cls-6" d="M105.79,147.89a2.16,2.16,0,0,1,1.23.43c-1.53,1.09-2.63,4.16-2.63,7.77s1.1,6.67,2.63,7.76a2.16,2.16,0,0,1-1.23.43c-2.13,0-3.86-3.67-3.86-8.19S103.66,147.89,105.79,147.89Z"/><path class="cls-14" d="M116.33,156.09c0,4.52,2.3,8.19,5.15,8.19s5.15-3.67,5.15-8.19-2.31-8.2-5.15-8.2S116.33,151.56,116.33,156.09Z"/><path class="cls-6" d="M121.48,147.89a3.57,3.57,0,0,1,1.75.5c-2,1.15-3.39,4.16-3.39,7.7s1.41,6.55,3.39,7.69a3.47,3.47,0,0,1-1.75.5c-2.85,0-5.15-3.67-5.15-8.19S118.63,147.89,121.48,147.89Z"/><path class="cls-6" d="M140.2,133s-13-11.43-34.41-3.43C105.79,129.6,126.51,114.77,140.2,133Z"/><path class="cls-2" d="M104.48,200.62s31.08,4.68,46-8C150.43,192.66,153.66,211.85,104.48,200.62Z"/></svg>