<svg id="Layer_3" data-name="Layer 3" xmlns="http://www.w3.org/2000/svg" viewBox="0 0 2400 2204.08"><defs><style>.cls-1{fill:#f9b5ab;}.cls-2{fill:#92c7ec;}.cls-3{fill:#b9e5fb;}.cls-4{fill:#855558;}.cls-5{fill:#3d71b8;}.cls-6{fill:#fff;}.cls-7{fill:#e19b91;}.cls-8{fill:#f8aa9e;}.cls-9{fill:#d37376;}.cls-10{fill:#522b10;}.cls-11{fill:#fcd3c9;}.cls-12{fill:#6c3d21;}.cls-13{fill:#fcd6d3;}.cls-14{fill:#e2e0df;}.cls-15{fill:#bbb5b4;}.cls-16{fill:#91aedb;}.cls-17{fill:#ffe17f;}.cls-18{fill:#94a4b2;}.cls-19{fill:#f15b4a;}</style></defs><title>licensed</title><path class="cls-1" d="M1419.8,1264.31l375.81-140.93,43.26,107.29S1619,1456,1472.39,1529.29Z"/><path class="cls-2" d="M1419.8,1264.31l52.59,265c59.6-29.79,131.32-84.71,195.44-139.42l-63.63-194.72Z"/><path class="cls-3" d="M1610.41,1183.71l-43.08,16.16,70.26,226.25c13.85-11.24,27.54-22.65,40.92-34.08Z"/><path class="cls-4" d="M1788.31,1125.58s39.13-28.09,76-30c16.42-.87-1.49,44.21-1.49,44.21s44.9.84,37.49,15.75c-17,41-65.8,78-65.8,78Z"/><path class="cls-1" d="M682.34,1314.68c-47,7.44-189.65,70.46-189.65,70.46l-50.43-89.86L334.42,1331s-.54,213.57,40,255.84,297-35.81,297-35.81S729.42,1307.23,682.34,1314.68Z"/><path class="cls-2" d="M682.34,1314.68c-47,7.44-189.65,70.46-189.65,70.46l-7.36-13.06L339.65,1447.7c5.05,57.38,15.06,118.58,34.79,139.15,40.57,42.32,297-35.81,297-35.81S729.42,1307.23,682.34,1314.68Z"/><path class="cls-5" d="M648.45,1714.83c-337.66,201.84-13,388-13,388l197.78,29.29s-131.62-181,184.24-190.33Z"/><path class="cls-5" d="M1515.12,1678.53c181.76,197.4,347,459.58,347,459.58H1604.51s-204.13-160.48-480.12-191.92Z"/><path class="cls-2" d="M1518.84,1577.74c-14.15-185-113-376.5-116-379.51l-688,91.11c-63.85,82.54-86,244.87-79.31,353.48C928.28,1670.94,1232.16,1666.18,1518.84,1577.74Z"/><polygon class="cls-6" points="897.3 1321.19 885.75 1410.66 1057.48 1358.7 1261.67 1391.9 1230.63 1310.37 897.3 1321.19"/><path class="cls-7" d="M1231.17,1307.68,1089,1420.09,882.55,1328.9s91.16-132.27,182.77-132.27S1231.17,1307.68,1231.17,1307.68Z"/><path class="cls-5" d="M635.51,1642.82c1.37,22.21,3.93,42.27,7.62,58.84,29.92,124.56,133.5,247.6,461.11,247.6,301.4,0,403.73-170.15,411.36-261.75,5.59-35.23,6.1-72.37,3.24-109.77C1232.16,1666.18,928.28,1670.94,635.51,1642.82Z"/><path class="cls-5" d="M1439.74,1623.35h-56.08c0-151.59-70.06-314.66-70.76-316.28l51.46-22.36C1367.43,1291.82,1439.74,1460.25,1439.74,1623.35Z"/><path class="cls-5" d="M729.46,1660.76c-10-167.49,28.53-377,30.14-385.85l55.12,10.26c-.35,2.09-38.84,211.71-29.28,372.24Z"/><path class="cls-4" d="M833,2132.1s-254.94-78-290.31-60.74-49.69,95.7-49.69,95.7H838.42Z"/><path class="cls-4" d="M1598.49,2128.48s269.27-86.17,304-67.07,48.81,105.65,48.81,105.65H1593.19Z"/><path class="cls-4" d="M335,1336.74s-.71-107.25,43.65-128.94c21.21-10.37,36.66,47.17,36.66,47.17s38.36-11.23,47,4.75c13.78,25.36-13,59.08-13,59.08Z"/><path class="cls-8" d="M566.09,365.64c-30-189.76-374.79-128.1-374.79-128.1S165.07,565.11,371.77,596.85Z"/><path class="cls-9" d="M519.36,407.35c-17.67-111.61-237.25-97.09-237.25-97.09s1.41,214.39,123,233Z"/><path class="cls-8" d="M1260.79,235.8C1228.88,57.43,1544.67,5.21,1544.67,5.21s135.11,284.42-39.25,376.59Z"/><path class="cls-9" d="M1325.89,256.46c-18.78-104.91,181.39-159.85,181.39-159.85s65,191.48-37.56,245.67Z"/><path class="cls-1" d="M1688.93,711.5c64.82,460.81-223.38,595-594.86,647.26s-685.53,2.85-750.38-458c-65.21-463.53,219.74-621,591.21-673.27S1623.7,248,1688.93,711.5Z"/><path class="cls-6" d="M863.34,882.7A151.41,151.41,0,1,1,692.29,753.86,151.44,151.44,0,0,1,863.34,882.7Z"/><path class="cls-10" d="M834.67,889A120.67,120.67,0,1,1,698.35,786.33,120.67,120.67,0,0,1,834.67,889Z"/><path class="cls-6" d="M1484.34,795.32a151.41,151.41,0,1,1-171-128.82A151.4,151.4,0,0,1,1484.34,795.32Z"/><path class="cls-10" d="M1451.35,808A113.89,113.89,0,1,1,1322.7,711.1,113.9,113.9,0,0,1,1451.35,808Z"/><path class="cls-11" d="M1190.38,969.67c7.27,51.58-44.32,95.26-117.56,105.57S932.21,1058.63,925,1007s55.53-76.79,128.82-87.07S1183.1,918.08,1190.38,969.67Z"/><path class="cls-12" d="M1041.53,999.3a39.53,39.53,0,1,1-44.65-33.61A39.54,39.54,0,0,1,1041.53,999.3Z"/><path class="cls-12" d="M1158.93,980.89a39.51,39.51,0,1,1-44.64-33.61A39.5,39.5,0,0,1,1158.93,980.89Z"/><path class="cls-13" d="M619.52,1108.36c2.69,19-20.74,38-52.29,42.44s-59.3-7.38-62-26.37,20.71-38,52.28-42.45S616.85,1089.33,619.52,1108.36Z"/><path class="cls-13" d="M1613.67,968.46c2.68,19-20.76,38-52.31,42.45s-59.32-7.38-62-26.38,20.76-38,52.32-42.44S1611,949.45,1613.67,968.46Z"/><polygon class="cls-10" points="836.76 732.64 607.02 691.61 616.79 636.75 846.54 677.78 836.76 732.64"/><rect class="cls-10" x="1141.48" y="584.88" width="214.05" height="55.74" transform="translate(-130.66 792.05) rotate(-33.55)"/><path class="cls-14" d="M343,746.09a47.22,47.22,0,0,1-34.51-84.87c22-16.08,547.22-392.21,1323.32-234A47.21,47.21,0,1,1,1613,519.74c-735.66-149.95-1243.68,214-1248.7,217.69A47.16,47.16,0,0,1,343,746.09Z"/><path class="cls-14" d="M705.12,419.16C679.49,375,617.41,332.54,595,340.1s-70.85,84.44-62.92,109.29,115.1,16.32,150.37,49.13Z"/><path class="cls-14" d="M812.47,386.94c10.95-49.82,57.16-109.19,80.89-108.8s93.16,58.88,93.14,85-104.66,50.53-128.3,92.55Z"/><path class="cls-6" d="M679,442c-13.46,37.18,15.68,112.13,38.16,137S858,588.08,873.5,557.39s-1-131.69-29.18-160.71S697.62,390.93,679,442Z"/><path class="cls-15" d="M405.19,601.22c-2.69,26.09-6.28,71.67-3.83,112,3.2-2,6.55-4,10.14-6.16-2-42.31,2.34-89.36,4.9-112C412.6,597.14,408.83,599.18,405.19,601.22Z"/><path class="cls-15" d="M330.36,646.18c-2.35,21.46-5.86,60.88-5.12,99a48.08,48.08,0,0,0,10.55,1.33c-1-43.89,3.86-90.07,6-107.67C337.58,641.48,333.77,643.94,330.36,646.18Z"/><path class="cls-15" d="M507,549.77c-2.59,24.86-6.14,68.31-4.21,107.88l10.28-5c-1.54-41.16,2.56-85.85,5-107.92C514.32,546.4,510.65,548.08,507,549.77Z"/><path class="cls-15" d="M618.69,503.11c-2.51,22.9-6.15,65.17-4.86,104.79,3.47-1.36,6.91-2.75,10.42-4.12-1.06-41.19,3.14-84.63,5.46-104.79C626,500.36,622.36,501.74,618.69,503.11Z"/><path class="cls-15" d="M931.11,417.07c8.53,15.26,26,49.9,35.34,91.13,3.48-.56,6.92-1.17,10.38-1.73-9-40.39-25.36-74.14-34.74-91.31C938.42,415.8,934.73,416.41,931.11,417.07Z"/><path class="cls-15" d="M1063.14,398.34c8.6,15.35,26.45,50.61,35.74,92.51,3.52-.34,7-.68,10.54-1-8.82-40.81-25.32-75.07-34.91-92.7C1070.71,397.53,1066.92,397.94,1063.14,398.34Z"/><path class="cls-15" d="M1201.75,389.19c8.74,15.61,27,51.71,36.19,94.5,3.58,0,7.1-.1,10.68-.1-8.52-41.37-25.14-76.38-35-94.69C1209.63,389,1205.72,389.09,1201.75,389.19Z"/><path class="cls-15" d="M1351.12,391.1c7.9,13.78,28.06,51.89,37.77,97.44,3.6.27,7.23.55,10.85.85-8.72-43.2-26.34-79.62-36.16-97.54C1359.4,391.59,1355.23,391.3,1351.12,391.1Z"/><path class="cls-15" d="M1497.89,404.77c5.8,10.25,27.85,51.38,37.5,101,3.64.58,7.27,1.12,10.93,1.73-8.17-45.47-26.34-83.72-35.49-100.92C1506.53,405.94,1502.18,405.34,1497.89,404.77Z"/><path class="cls-15" d="M1603.43,421.7c7.83,14.45,26.35,51.71,35.09,96a47.51,47.51,0,0,0,9.74-4.76c-8-38.39-22.48-70.89-31.58-88.65C1612.28,423.41,1607.86,422.53,1603.43,421.7Z"/><path class="cls-16" d="M581.84,1948.49c-1.5,0-3,0-4.49-.12-16.46-.92-29.33-6.62-37.22-16.52-7.06-8.84-9.62-20.37-7.43-33.33,3.76-22.13,28.68-39,55.49-37.46,12.27.7,23.08,5.82,29.65,14.08a28.52,28.52,0,0,1,6,22.72c-2.66,15.49-20,27.15-38.69,26.29-8.59-.48-16.21-4.11-20.89-9.94a20.28,20.28,0,0,1-4.32-16.35c1.92-11.31,13.87-19.46,27.4-18.79,6.16.35,11.64,2.93,15,7.19a15.13,15.13,0,0,1,3.2,12.06,4.19,4.19,0,0,1-8.27-1.41,6.73,6.73,0,0,0-1.47-5.44c-1.88-2.38-5.14-3.85-8.93-4.06-8.9-.54-17.55,4.92-18.72,11.84a12.08,12.08,0,0,0,2.61,9.74c3.17,4,8.58,6.46,14.83,6.79,14.54.81,28-7.87,30-19.34a19.89,19.89,0,0,0-4.26-16.1c-5.12-6.38-13.71-10.38-23.58-10.92-22.75-1.31-43.74,12.42-46.81,30.5-1.79,10.56.21,19.8,5.73,26.73,6.37,8,17.12,12.59,31.12,13.37,19.55,1,39.7-6.1,52.25-18.71,8.51-8.54,12.83-18.9,12.22-29.17a4.19,4.19,0,1,1,8.36-.51c.75,12.7-4.48,25.33-14.67,35.57C622.53,1940.7,602.57,1948.49,581.84,1948.49Z"/><path class="cls-16" d="M1570.7,1953.48c-1.5,0-3,0-4.52-.13-16.45-.9-29.33-6.6-37.21-16.5-7.07-8.85-9.65-20.35-7.43-33.33,3.73-22.13,28.61-38.93,55.5-37.46,12.22.68,23.06,5.8,29.62,14a28.33,28.33,0,0,1,6,22.74c-2.61,15.52-19.85,27.23-38.65,26.29-8.63-.49-16.24-4.11-20.91-10a20.34,20.34,0,0,1-4.28-16.31c1.92-11.28,13.82-19.56,27.38-18.8,6.19.34,11.66,3,15,7.2a15.11,15.11,0,0,1,3.18,12,4.18,4.18,0,1,1-8.24-1.39,6.81,6.81,0,0,0-1.47-5.43c-1.92-2.39-5.15-3.85-9-4-9-.58-17.51,4.91-18.7,11.82a12.06,12.06,0,0,0,2.58,9.71c3.21,4,8.59,6.5,14.82,6.84,14.7.87,28.07-7.87,30-19.34a20,20,0,0,0-4.27-16.11c-5.12-6.4-13.69-10.39-23.59-10.93-22.61-1.24-43.74,12.42-46.81,30.51-1.78,10.53.21,19.78,5.72,26.73,6.38,7.95,17.17,12.59,31.16,13.36,19.63,1.08,39.67-6.09,52.21-18.7,8.52-8.54,12.87-18.9,12.25-29.2a4.17,4.17,0,0,1,3.91-4.42,4.25,4.25,0,0,1,4.43,3.93c.76,12.69-4.46,25.33-14.66,35.6C1611.35,1945.68,1591.38,1953.48,1570.7,1953.48Z"/><polygon class="cls-3" points="487.62 1366.46 333.58 1439.78 338.35 1484.4 503.06 1399.39 487.62 1366.46"/><polygon class="cls-5" points="758.75 1664.42 762.76 1475.45 1386.4 1432.32 1423.79 1651.72 758.75 1664.42"/><path class="cls-17" d="M809.59,1490.2a46.33,46.33,0,1,1-46.32-46.31A46.32,46.32,0,0,1,809.59,1490.2Z"/><path class="cls-17" d="M1431.47,1446.48a46.32,46.32,0,1,1-46.34-46.32A46.32,46.32,0,0,1,1431.47,1446.48Z"/><path class="cls-18" d="M2310.09,876.29v-.44l-.16.19-62.82-88.27-348,189.4,109.69,215.12,9.7-10.09,48.44-1.38v-49.27l.2-.22,48.4-1.39,0-49.25.23-.21,48.35-1.39,0-49.24.29-.26,48.33-1.41,0-49.14.34-.32,48.27-1.4,0-49.12.34-.36,48.25-1.39,0-49.08.45-.48ZM2239.7,835.6A12.6,12.6,0,1,1,2252.31,823,12.59,12.59,0,0,1,2239.7,835.6Z"/><path class="cls-19" d="M1924.17,1269.62h0c-55.25,1.61-127.53-146.73-128.25-148.23-21.74-45.62-24.34-70-9-84.29,23.3-21.67,110.78-65.78,110.78-65.78l138.69,232.8-22.28,17.62c-4.5,3.56-45,35-80.43,46.28A33.47,33.47,0,0,1,1924.17,1269.62ZM1826,1065.48c3.59,31.85,69.94,139.61,97.1,157.76,14.44-5.73,31.26-16.19,43.83-24.85l-95.69-160.58C1855.87,1045.92,1837.31,1056.55,1826,1065.48Z"/><path class="cls-6" d="M1906,1016.12a10.29,10.29,0,1,1-10.28-10.29A10.31,10.31,0,0,1,1906,1016.12Z"/><path class="cls-6" d="M1987.74,1156.09a10.3,10.3,0,1,1-10.32-10.28A10.3,10.3,0,0,1,1987.74,1156.09Z"/><path class="cls-12" d="M1014,1209.07c-95.49,0-175-32.79-178.88-34.42l8.59-20.55c1.09.43,108.75,44.77,219.6,29.39l3.06,22.09A382.79,382.79,0,0,1,1014,1209.07Z"/></svg>