<svg id="Layer_3" data-name="Layer 3" xmlns="http://www.w3.org/2000/svg" viewBox="0 0 2400 2400"><defs><style>.cls-1{fill:#fcbc86;}.cls-2{fill:#985c47;}.cls-3{fill:#6f4130;}.cls-4{fill:#d9916e;}.cls-5{fill:#fdc692;}.cls-6{fill:#a86a53;}.cls-7{fill:#da9d7b;}.cls-8{fill:#fed09e;}.cls-9{fill:#8e533e;}.cls-10{fill:#ba7c5e;}.cls-11{fill:#9f604d;}.cls-12{fill:#85503f;}.cls-13{fill:#f9b5ab;}.cls-14{fill:#92c7ec;}.cls-15{fill:#b9e5fb;}.cls-16{fill:#855558;}.cls-17{fill:#3d71b8;}.cls-18{fill:#fff;}.cls-19{fill:#e19b91;}.cls-20{fill:#f8aa9e;}.cls-21{fill:#d37376;}.cls-22{fill:#522b10;}.cls-23{fill:#fcd3c9;}.cls-24{fill:#6c3d21;}.cls-25{fill:#fcd6d3;}.cls-26{fill:#e2e0df;}.cls-27{fill:#bbb5b4;}.cls-28{fill:#91aedb;}.cls-29{fill:#ffe17f;}.cls-30{fill:#94a4b2;}.cls-31{fill:#f15b4a;}.cls-32{fill:#8aaad9;}</style></defs><title>licensed</title><polygon class="cls-1" points="2137.27 1661.95 2144.85 1891.44 1990.66 1910.68 1952.29 1659.04 2137.27 1661.95"/><polygon class="cls-2" points="1952.29 1659.04 1273.12 1769.53 1301.43 1996.65 1992.27 1910.49 1952.29 1659.04"/><polygon class="cls-3" points="1957.54 1692.15 1956.04 1682.67 1725.69 1727.68 1275.74 1790.87 1276.95 1800.39 1727.27 1737.14 1957.54 1692.15"/><polygon class="cls-3" points="1967.29 1753.64 1965.82 1744.14 1547.71 1782.87 1280.05 1825.41 1281.25 1834.93 1548.9 1792.38 1967.29 1753.64"/><polygon class="cls-3" points="1972.75 1787.85 1283.69 1854.56 1284.9 1864.08 1974.29 1797.34 1972.75 1787.85"/><polygon class="cls-3" points="1982.67 1850.24 1981.17 1840.71 1628.07 1858.25 1287.1 1881.7 1288.28 1891.24 1628.63 1867.82 1982.67 1850.24"/><polygon class="cls-4" points="1972.8 1666.22 2113.56 1688.85 2133.34 1852.27 2051.26 1893.67 1972.62 1714.19 2085.72 1705.73 2105.96 1828.9 2067.16 1846.26 2018.06 1743.54 2070.15 1733.49 2074.93 1796.65 2066.37 1797.29 2062.33 1743.7 2030.56 1749.82 2071.32 1835.02 2096.45 1823.79 2078.58 1714.85 1985.31 1721.82 2055.47 1881.97 2124.11 1847.33 2105.84 1696.28 1978.01 1675.72 1961.17 1715.01 1958.8 1698.79 1972.8 1666.22"/><polygon class="cls-5" points="2256.22 1905.85 2238.33 2106.11 2082.76 2106.11 2075.44 1874.42 2256.22 1905.85"/><polygon class="cls-6" points="2075.44 1874.42 1340.04 1901.32 1352.03 2106.11 2084.43 2106.11 2075.44 1874.42"/><polygon class="cls-7" points="2101.92 2092.16 2103.53 1900.95 2235.98 1925.49 2217.98 2088.97 2209.68 2088.05 2226.81 1932.28 2111.82 1910.98 2110.37 2081.8 2187.84 2065.2 2199.33 1957.43 2136.41 1944.71 2139.2 2042.04 2172.04 2034.26 2158.61 1982.64 2166.69 1980.53 2182.29 2040.42 2131.13 2052.52 2127.78 1934.44 2208.45 1950.76 2195.49 2072.09 2101.92 2092.16"/><polygon class="cls-8" points="2377.89 2106.67 2355.91 2347.28 2192.44 2347.28 2185.11 2079.57 2377.89 2106.67"/><polygon class="cls-9" points="2185.11 2079.57 1461.7 2106.48 1461.7 2347.29 2194.11 2347.29 2185.11 2079.57"/><polygon class="cls-7" points="2205.61 2089.72 2349.6 2131.66 2348.97 2304.88 2257.89 2337.39 2199.19 2139.76 2318.4 2145.69 2323.45 2276.91 2280.7 2289.95 2242.79 2176.33 2298.45 2172.62 2295.25 2239.21 2286.25 2238.76 2288.96 2182.28 2255.03 2184.54 2286.42 2278.79 2314.18 2270.35 2309.68 2154.27 2211.44 2149.39 2263.83 2325.73 2339.98 2298.53 2340.57 2138.42 2209.78 2100.32 2187.11 2139.14 2186.77 2121.9 2205.61 2089.72"/><polygon class="cls-8" points="2163.54 2087 2169.65 2347.28 1978.09 2347.28 1970.77 2079.57 2163.54 2087"/><polygon class="cls-10" points="1970.77 2079.57 1247.35 2106.48 1247.35 2347.29 1979.77 2347.29 1970.77 2079.57"/><polygon class="cls-11" points="1971.74 2108.49 1971.4 2099.14 1592.39 2123.63 1247.35 2138.26 1247.35 2147.62 1592.88 2132.95 1971.74 2108.49"/><polygon class="cls-11" points="1973.71 2167.5 1973.4 2158.16 1603.95 2166.96 1247.35 2173.24 1247.35 2182.59 1604.16 2176.31 1973.71 2167.5"/><polygon class="cls-11" points="1975.53 2221.76 1247.35 2221.76 1247.35 2231.1 1975.84 2231.1 1975.53 2221.76"/><polygon class="cls-11" points="1806.85 2280.18 1977.5 2280.18 1977.2 2270.83 1806.8 2270.83 1404.47 2277.38 1247.35 2278.1 1247.35 2287.44 1404.55 2286.73 1806.85 2280.18"/><polygon class="cls-11" points="1978.93 2322.4 1978.63 2313.06 1614.49 2305.18 1247.35 2316.83 1247.35 2326.21 1614.56 2314.51 1978.93 2322.4"/><polygon class="cls-7" points="1996.02 2323.68 2005.58 2115.01 2108.87 2103.36 2119.36 2295.54 2031.83 2280.11 2041.59 2153.26 2096.91 2145.89 2082.32 2248.77 2073.42 2247.48 2086.36 2156.37 2050.03 2161.22 2041.45 2272.66 2109.73 2284.71 2100.37 2113.36 2014.21 2123.12 2005.46 2314.63 2140.99 2313.92 2122.58 2085.34 2131.67 2085.75 2150.76 2322.87 1996.02 2323.68"/><polygon class="cls-12" points="2076.49 1901.21 1342.7 1947.51 1343.33 1957.75 2076.9 1911.47 2076.49 1901.21"/><polygon class="cls-12" points="2079.29 1973.67 2078.89 1963.4 1746.73 1967.53 1345.78 1999.3 1346.38 2009.55 1747.21 1977.78 2079.29 1973.67"/><polygon class="cls-12" points="2080.53 2005.14 2080.12 1994.85 1699.83 2025.66 1347.83 2034.17 1348.4 2044.44 1700.48 2035.9 2080.53 2005.14"/><polygon class="cls-12" points="2082.07 2044.74 1349.56 2064.15 1350.17 2074.39 2082.45 2055.03 2082.07 2044.74"/><path class="cls-13" d="M1275.08,1442.67l375.81-140.93,43.26,107.3s-219.88,225.35-366.47,298.62Z"/><path class="cls-14" d="M1275.08,1442.67l52.6,265c59.6-29.79,131.32-84.72,195.43-139.43l-63.63-194.71Z"/><path class="cls-15" d="M1465.69,1362.08l-43.08,16.16,70.26,226.25c13.85-11.25,27.55-22.65,40.93-34.09Z"/><path class="cls-16" d="M1643.6,1303.94s39.13-28.09,76-30c16.42-.87-1.49,44.2-1.49,44.2s44.89.84,37.48,15.76c-17,41.05-65.8,78-65.8,78Z"/><path class="cls-13" d="M537.63,1493c-47,7.45-189.66,70.47-189.66,70.47l-50.43-89.87-107.83,35.73s-.54,213.57,40,255.85,297-35.81,297-35.81S584.71,1485.6,537.63,1493Z"/><path class="cls-14" d="M537.63,1493c-47,7.45-189.66,70.47-189.66,70.47l-7.36-13.06-145.68,75.62c5,57.38,15.06,118.57,34.8,139.15,40.57,42.31,297-35.81,297-35.81S584.71,1485.6,537.63,1493Z"/><path class="cls-17" d="M503.73,1893.19c-337.66,201.84-13,388-13,388l197.78,29.3s-131.61-181,184.25-190.34Z"/><path class="cls-17" d="M1370.41,1856.89c181.76,197.41,347,459.58,347,459.58H1459.79S1255.66,2156,979.67,2124.56Z"/><path class="cls-14" d="M1374.12,1756.11c-14.14-185-113-376.51-116-379.52l-688,91.12c-63.84,82.53-86,244.86-79.3,353.47C783.57,1849.31,1087.44,1844.54,1374.12,1756.11Z"/><polygon class="cls-18" points="752.59 1499.56 741.03 1589.03 912.76 1537.07 1116.95 1570.27 1085.92 1488.74 752.59 1499.56"/><path class="cls-19" d="M1086.45,1486.05l-142.2,112.4-206.41-91.19S829,1375,920.6,1375,1086.45,1486.05,1086.45,1486.05Z"/><path class="cls-17" d="M490.8,1821.18c1.36,22.21,3.93,42.27,7.61,58.85,29.93,124.56,133.51,247.59,461.11,247.59,301.4,0,403.74-170.15,411.36-261.75,5.59-35.23,6.1-72.36,3.24-109.76C1087.44,1844.54,783.57,1849.31,490.8,1821.18Z"/><path class="cls-17" d="M1295,1801.71H1239c0-151.58-70.07-314.65-70.77-316.27l51.46-22.36C1222.71,1470.18,1295,1638.61,1295,1801.71Z"/><path class="cls-17" d="M584.75,1839.12c-10-167.48,28.52-377,30.13-385.85L670,1463.53c-.35,2.09-38.85,211.71-29.29,372.25Z"/><path class="cls-16" d="M688.33,2310.47s-255-78.06-290.32-60.74-49.68,95.7-49.68,95.7H693.71Z"/><path class="cls-16" d="M1453.77,2306.84s269.27-86.17,304-67.06,48.81,105.65,48.81,105.65H1448.47Z"/><path class="cls-16" d="M190.27,1515.1s-.71-107.25,43.66-128.93c21.2-10.38,36.66,47.16,36.66,47.16s38.36-11.22,47,4.76c13.78,25.35-13,59.08-13,59.08Z"/><path class="cls-20" d="M421.38,544c-30-189.75-374.8-128.1-374.8-128.1S20.35,743.47,227.05,775.22Z"/><path class="cls-21" d="M374.64,585.71C357,474.1,137.4,488.63,137.4,488.63s1.4,214.38,123,233Z"/><path class="cls-20" d="M1116.07,414.17C1084.16,235.79,1400,183.58,1400,183.58S1535.06,468,1360.7,560.16Z"/><path class="cls-21" d="M1181.17,434.82C1162.39,329.91,1362.57,275,1362.57,275s65,191.49-37.56,245.68Z"/><path class="cls-13" d="M1544.21,889.87c64.82,460.8-223.38,595-594.86,647.25S263.82,1540,199,1079.15c-65.21-463.54,219.73-621,591.2-673.27S1479,426.33,1544.21,889.87Z"/><path class="cls-18" d="M718.62,1061.07a151.41,151.41,0,1,1-171-128.85A151.42,151.42,0,0,1,718.62,1061.07Z"/><path class="cls-22" d="M690,1067.37A120.67,120.67,0,1,1,553.64,964.69,120.68,120.68,0,0,1,690,1067.37Z"/><path class="cls-18" d="M1339.63,973.69a151.42,151.42,0,1,1-171-128.82A151.41,151.41,0,0,1,1339.63,973.69Z"/><path class="cls-22" d="M1306.64,986.39A113.9,113.9,0,1,1,1178,889.46,113.9,113.9,0,0,1,1306.64,986.39Z"/><path class="cls-23" d="M1045.67,1148c7.26,51.57-44.33,95.25-117.57,105.56s-140.61-16.6-147.87-68.22,55.54-76.78,128.83-87.06S1038.39,1096.44,1045.67,1148Z"/><path class="cls-24" d="M896.81,1177.67a39.53,39.53,0,1,1-44.65-33.62A39.54,39.54,0,0,1,896.81,1177.67Z"/><path class="cls-24" d="M1014.21,1159.26a39.51,39.51,0,1,1-44.63-33.62A39.5,39.5,0,0,1,1014.21,1159.26Z"/><path class="cls-25" d="M474.8,1286.72c2.69,19-20.74,38-52.29,42.44s-59.3-7.37-62-26.36,20.72-38,52.29-42.46S472.13,1267.7,474.8,1286.72Z"/><path class="cls-25" d="M1469,1146.82c2.68,19-20.75,38-52.31,42.45s-59.31-7.38-62-26.38,20.76-38,52.33-42.43S1466.29,1127.82,1469,1146.82Z"/><polygon class="cls-22" points="692.04 911.01 462.3 869.97 472.07 815.12 701.83 856.15 692.04 911.01"/><rect class="cls-22" x="996.76" y="763.25" width="214.05" height="55.74" transform="translate(-253.34 741.78) rotate(-33.55)"/><path class="cls-26" d="M198.25,924.46a47.23,47.23,0,0,1-34.51-84.87c22-16.09,547.22-392.22,1323.32-234a47.21,47.21,0,1,1-18.83,92.53c-735.66-150-1243.67,214-1248.69,217.7A47.35,47.35,0,0,1,198.25,924.46Z"/><path class="cls-26" d="M560.4,597.52c-25.62-44.11-87.7-86.61-110.13-79.06s-70.84,84.44-62.91,109.3,115.09,16.32,150.36,49.13Z"/><path class="cls-26" d="M667.75,565.31c11-49.83,57.16-109.19,80.89-108.81s93.17,58.88,93.14,85S737.12,592,713.49,634Z"/><path class="cls-18" d="M534.26,620.33c-13.45,37.19,15.68,112.13,38.17,137s140.85,9.15,156.35-21.54-1-131.68-29.18-160.71S552.91,569.29,534.26,620.33Z"/><path class="cls-27" d="M260.47,779.59c-2.69,26.08-6.27,71.67-3.83,112,3.21-2,6.56-4,10.14-6.16-2-42.32,2.34-89.36,4.9-112.05C267.88,775.51,264.11,777.55,260.47,779.59Z"/><path class="cls-27" d="M185.64,824.55c-2.35,21.46-5.85,60.87-5.11,99a47.38,47.38,0,0,0,10.54,1.32c-1-43.88,3.86-90.06,6-107.67Q190.77,821.17,185.64,824.55Z"/><path class="cls-27" d="M362.27,728.14c-2.6,24.86-6.15,68.31-4.22,107.88l10.28-5c-1.54-41.16,2.57-85.86,5-107.93C369.61,724.76,365.94,726.44,362.27,728.14Z"/><path class="cls-27" d="M474,681.48c-2.52,22.9-6.16,65.16-4.86,104.79,3.46-1.36,6.91-2.75,10.41-4.12-1.06-41.19,3.14-84.63,5.46-104.79C481.3,678.73,477.65,680.11,474,681.48Z"/><path class="cls-27" d="M786.39,595.43c8.53,15.26,26,49.91,35.35,91.13,3.48-.56,6.91-1.17,10.38-1.72-9-40.4-25.37-74.15-34.74-91.31C793.71,594.17,790,594.77,786.39,595.43Z"/><path class="cls-27" d="M918.42,576.71c8.6,15.34,26.45,50.6,35.74,92.51,3.52-.34,7-.68,10.54-1-8.82-40.81-25.31-75.08-34.9-92.71Q924.09,576.09,918.42,576.71Z"/><path class="cls-27" d="M1057,567.55c8.74,15.61,27,51.71,36.2,94.51,3.57,0,7.09-.1,10.67-.1-8.51-41.37-25.14-76.39-35-94.69C1064.91,567.35,1061,567.45,1057,567.55Z"/><path class="cls-27" d="M1206.4,569.46c7.9,13.78,28.06,51.89,37.77,97.44,3.6.27,7.23.56,10.86.86-8.73-43.2-26.35-79.62-36.17-97.54C1214.68,570,1210.51,569.67,1206.4,569.46Z"/><path class="cls-27" d="M1353.17,583.14c5.8,10.24,27.85,51.37,37.5,100.94,3.64.58,7.27,1.13,10.93,1.74-8.16-45.47-26.33-83.72-35.49-100.92C1361.82,584.3,1357.46,583.71,1353.17,583.14Z"/><path class="cls-27" d="M1458.71,600.06c7.84,14.45,26.35,51.72,35.09,96a47.77,47.77,0,0,0,9.74-4.76c-8-38.4-22.48-70.9-31.58-88.65C1467.56,601.77,1463.15,600.9,1458.71,600.06Z"/><path class="cls-28" d="M437.12,2126.85c-1.5,0-3,0-4.49-.12-16.46-.91-29.32-6.62-37.21-16.51-7.06-8.84-9.63-20.37-7.44-33.34,3.77-22.12,28.68-39,55.5-37.45,12.26.69,23.07,5.81,29.64,14.07a28.52,28.52,0,0,1,6,22.72c-2.65,15.5-20,27.16-38.69,26.29-8.59-.48-16.21-4.1-20.89-9.94a20.3,20.3,0,0,1-4.32-16.34c1.92-11.32,13.88-19.46,27.4-18.79,6.16.35,11.65,2.93,15,7.19a15.08,15.08,0,0,1,3.2,12,4.18,4.18,0,0,1-4.83,3.44,4.23,4.23,0,0,1-3.44-4.84,6.72,6.72,0,0,0-1.47-5.44,12,12,0,0,0-8.92-4.06c-8.91-.55-17.55,4.91-18.73,11.84a12.13,12.13,0,0,0,2.61,9.74c3.18,4,8.59,6.46,14.83,6.79,14.54.81,28-7.87,30-19.34a19.89,19.89,0,0,0-4.26-16.1c-5.12-6.39-13.7-10.38-23.58-10.92-22.75-1.31-43.73,12.42-46.8,30.49-1.8,10.56.2,19.8,5.72,26.73,6.37,8,17.12,12.6,31.12,13.37,19.55,1,39.7-6.09,52.26-18.71,8.5-8.53,12.82-18.89,12.22-29.17a4.18,4.18,0,1,1,8.35-.5c.75,12.69-4.47,25.32-14.66,35.56C477.81,2119.06,457.86,2126.85,437.12,2126.85Z"/><path class="cls-28" d="M1426,2131.85c-1.5,0-3,0-4.52-.14-16.45-.89-29.32-6.59-37.21-16.5-7.07-8.85-9.64-20.34-7.43-33.32,3.74-22.14,28.61-38.93,55.51-37.47,12.22.69,23.05,5.81,29.61,14.06a28.32,28.32,0,0,1,6,22.73c-2.62,15.53-19.86,27.23-38.66,26.3-8.63-.49-16.24-4.11-20.91-10a20.32,20.32,0,0,1-4.27-16.32c1.91-11.28,13.81-19.55,27.38-18.79a20.4,20.4,0,0,1,15,7.19,15.1,15.1,0,0,1,3.18,12,4.13,4.13,0,0,1-4.82,3.42,4.18,4.18,0,0,1-3.42-4.82,6.79,6.79,0,0,0-1.46-5.42,12.14,12.14,0,0,0-9-4.06c-9-.58-17.51,4.91-18.7,11.83a12,12,0,0,0,2.58,9.7c3.2,4,8.58,6.5,14.82,6.85,14.69.87,28.06-7.88,30-19.35a20,20,0,0,0-4.28-16.11c-5.12-6.4-13.69-10.38-23.58-10.92-22.61-1.24-43.74,12.42-46.81,30.5-1.78,10.54.21,19.78,5.72,26.73,6.37,8,17.16,12.6,31.15,13.37,19.63,1.07,39.68-6.1,52.21-18.71,8.52-8.53,12.87-18.9,12.25-29.19a4.16,4.16,0,0,1,3.92-4.42,4.25,4.25,0,0,1,4.43,3.93c.75,12.69-4.46,25.33-14.66,35.6C1466.63,2124.05,1446.66,2131.85,1426,2131.85Z"/><polygon class="cls-15" points="342.9 1544.83 188.86 1618.14 193.63 1662.77 358.35 1577.75 342.9 1544.83"/><polygon class="cls-17" points="614.03 1842.78 618.04 1653.81 1241.68 1610.68 1279.07 1830.09 614.03 1842.78"/><path class="cls-29" d="M664.87,1668.56a46.33,46.33,0,1,1-46.32-46.31A46.33,46.33,0,0,1,664.87,1668.56Z"/><path class="cls-29" d="M1286.75,1624.85a46.32,46.32,0,1,1-46.34-46.32A46.31,46.31,0,0,1,1286.75,1624.85Z"/><path class="cls-30" d="M2165.38,1054.65v-.43l-.17.19-62.82-88.27-348,189.39,109.68,215.13,9.7-10.09,48.44-1.38v-49.28l.2-.21,48.4-1.4,0-49.24.23-.22,48.35-1.38,0-49.24.29-.26,48.33-1.41,0-49.14.33-.33,48.27-1.4,0-49.11.35-.37,48.24-1.39,0-49.08.45-.47ZM2095,1014a12.6,12.6,0,1,1,12.61-12.58A12.58,12.58,0,0,1,2095,1014Z"/><path class="cls-31" d="M1779.45,1448h0c-55.25,1.61-127.53-146.73-128.25-148.23-21.74-45.62-24.34-70-9-84.28,23.3-21.68,110.78-65.79,110.78-65.79l138.69,232.8-22.29,17.62c-4.49,3.57-45,35.06-80.43,46.29A33.76,33.76,0,0,1,1779.45,1448Zm-98.18-204.13c3.58,31.84,69.94,139.61,97.1,157.75,14.43-5.73,31.26-16.19,43.82-24.85l-95.69-160.58C1711.15,1224.29,1692.59,1234.91,1681.27,1243.85Z"/><path class="cls-18" d="M1761.23,1194.49A10.29,10.29,0,1,1,1751,1184.2,10.29,10.29,0,0,1,1761.23,1194.49Z"/><path class="cls-18" d="M1843,1334.45a10.29,10.29,0,1,1-10.32-10.27A10.3,10.3,0,0,1,1843,1334.45Z"/><path class="cls-24" d="M869.25,1387.43c-95.5,0-175-32.79-178.89-34.42l8.59-20.55c1.1.43,108.76,44.77,219.6,29.39l3.07,22.09A383,383,0,0,1,869.25,1387.43Z"/><path class="cls-32" d="M950.73,1935.49,724,1869.17l-2.25-136.49,417.22-30,11.12,149.16ZM735,1860.76l215,62.91,188.3-79-9.7-130.1L733.08,1743Z"/><path class="cls-25" d="M1290.72,544.51a22,22,0,0,1-12.37-3.78q-8.08-5.4-16.35-10.32a22.3,22.3,0,0,1,22.83-38.31c6.17,3.7,12.27,7.53,18.32,11.59a22.3,22.3,0,0,1-12.43,40.82Z"/><path class="cls-25" d="M1209,502.43a21.91,21.91,0,0,1-8-1.49c-152.71-58.69-323.11-24.38-324.84-24A22.29,22.29,0,1,1,867,433.26c7.46-1.57,184.67-37.45,349.94,26.07a22.29,22.29,0,0,1-8,43.1Z"/></svg>