<svg id="Layer_1" data-name="Layer 1" xmlns="http://www.w3.org/2000/svg" viewBox="0 0 1151 2000"><defs><style>.cls-1,.cls-8{fill:#fff;}.cls-2{fill:#de886c;}.cls-10,.cls-11,.cls-12,.cls-13,.cls-14,.cls-15,.cls-16,.cls-17,.cls-18,.cls-19,.cls-2,.cls-3,.cls-4,.cls-5,.cls-6,.cls-7,.cls-8,.cls-9{fill-rule:evenodd;}.cls-3{fill:#00a651;}.cls-5{fill:#fff9ae;}.cls-6{fill:#89775f;}.cls-7{fill:#6da580;}.cls-9{fill:#f9aa8f;}.cls-10{fill:#84c299;}.cls-11{fill:#ca6c38;}.cls-12{fill:#fff685;}.cls-13{fill:#f48580;}.cls-14{fill:#d2ab67;}.cls-15{fill:#d6cc70;}.cls-16{fill:#f05b72;}.cls-17{fill:#e6e7e8;}.cls-18{fill:#9bd3ae;}.cls-19{fill:#fbc8b4;}</style></defs><title>licensed</title><ellipse class="cls-1" cx="456.83" cy="487.4" rx="139.22" ry="149.71"/><ellipse class="cls-1" cx="722.9" cy="487.4" rx="139.22" ry="149.71"/><path class="cls-2" d="M312.53,1934.74l7.35,11-7.35-11Zm421.9,15.7L721.54,1925c7,3.88,10.44,17.24,12.89,25.45Zm-421.9-15.7-17.28-3.82c4.46-2.09-6.83-5,8.06-1.28,18.48,4.65,2.13-.19,9.22,5.1Zm7.35,11c.68.62,1.76.63,2.07,1.82l8.44,5.9.76-28.57c30.07,7.89,41.85.54,67.34-6-16.37,13.52-40.33,13.5-65.51,10.65.69,13.44,2.86,16-2.45,27.87-8.29-3.67-4.95,1.71-10.65-11.69Zm414.55,4.72c4.48,9.19-2.65,3.61,7.17,7,5.58-8.24,3.9-5.48,6.27-15.78.9-3.92,1-6.72,2-9.6,8.68-24.79,58.25,8.52,87.74-16.68-57.11,13.75-62.88-4.71-89.46,8.76l-6,30.19c-3.26-2.47-5.52-1.54-7.66-3.91Zm103.15-35L856,1904l-18.42,11.42ZM477,1731.18,491.59,1750,477,1731.18Zm-10.65-15.43L477,1731.18l-10.65-15.43ZM459,1704.46l7.34,11.29Zm0,0L451.1,1692l7.89,12.51Zm-19.24-33.08c7.65,2.74,5.78,3.62,9.08,14.4-2.51-3.32-1-.65-5.21-7.47-2.21-3.61-1.65-3.69-3.87-6.93Zm1.45-152.07-10.38,15.46Zm0,0c1.95-5.29,1.87-6.25,4.52-10.44,4.86-7.72,5.66-5.89,7.35-6.57l-11.87,17Zm23.13-73.8c6.45,16.72,2.38,22.6-4.22,39.67l4.22-39.67Zm-30.51-3c23-17.17,26,1.79,26.5,2.32C444.21,1438.86,450.75,1440.26,433.82,1442.49Zm0,0c-.61.62-1.52,1.44-1.89,1.8l-10.4,11.58c-4.07,7.47-3.56,9.68-4.44,17.91l-7.59-12.28c-7-15.83-7.18-22.77-30.18-19.36-18.78,36.35,1.07,49.56,25.56,85.8,2.74,4,6.47,11.28,9.67,13.07,6.64,3.73,10.32.94,10.49.53.48-1.11,1.95-.6,2.93-.88-8.52,10-2.8,5.27-12.72,9.53-11-13.43-25.75-34.59-36.89-51.33-27.51-41.35.68-79.45,24.84-57.63l14.5,18.19c4.77-10.94,4.18-12.13,16.12-16.93ZM165.71,1338.77l64.87-22.94-64.87,22.94Zm64.87-22.94,37-9.91-37,9.91Zm-64.87,22.94c-16,11.26-60.37,22.86-85,23.25-23.58,134,33.92,308.66,81,408.37,33.15,70.13,68.21,138,114.38,192,18.46,21.62,116,27.32,144.24,6.87l3.87-57.69a12.13,12.13,0,0,0-1.88-.57l-10-2.66c10.49-4.12,5.07-.15,13.54-9.05,3.88-39.83,14.19-103.18,8.68-141.47-13.36-7.62-99.1-38.15-94.33-62.51,11.63-2.52,28.28,21.58,66,38.71,12.6,5.72,26.5,10,40.94,13.52l36.65,5.91c7.85-1,3.1-.51,7.77-3.55,20,10.63,62.05,5.39,89.18,4.27,65.06-2.7,51.9-14.12,69.73-17.54,9.3,26.26-6.47,127.55,42,235.3,32.22,6.76,77.63,13.13,109.71,5,18.65-4.73,23.06-16.62,32.65-30.41,34.7-49.91,25.81-38.71,21.09-42.57l3.34-4.06c.44-.47,1.27-1.4,1.76-1.92s1.31-1.31,1.84-1.84c21.48-21.7,12.78-14.2,30.93-47.63a690.47,690.47,0,0,0,30.59-63c59.71-141.3,96.51-299.23,101-460.19-17-4.4-11.87-2.74-20.07-9.47l-17.29-7.78c-21-1.31-44.42-8.44-64.48-11.33-23.31-3.35-47.65-2.38-71.24-4.07-47.15-3.37-96.78-6.22-143.3-7.46-9.22,17.29-24.12,36.52-31.38,54.45-50.47,1.72-316.68,12.63-343.61,7.66-8-14.56-14.88-31.94-13-51.8l-52.26,8.88c15.38-9,40.39-10.35,62.61-12.79-14.54-13.72-10.52-4.56-13.77-42.76-38.55,8.39-65.49,20.08-108.86,23.63-46.73,3.83-74.67-2.51-119.49-8.54l-9,95C116.61,1357.33,135.72,1342.87,165.71,1338.77Z"/><path class="cls-2" d="M433.62,654.67c4.22-13.11-6.22-4.8,15.46-11,21.94-6.26,31-18.94,53.11-17.36,15.67,1.12,59.32,35.54,59.66,36-20.38,16.71-36.24-22.07-59.69-24.31-26.39-2.53-43.9,26.35-68.54,16.62Zm279.9-150.51c-3,3.61,5.61,5.51-8.95,5.83l8.95-5.83ZM319.46,501l10.14,3.77c-2.54,1.23.66,2.29-4.43.83C318.36,503.65,321.91,503.26,319.46,501Zm0,0ZM420,478.32l-6.67,9.07Zm0,0,7.08-11.83L420,478.32Zm7.08-11.83,7-12.12-7,12.12Zm168.35,23.42c-11.08-22.22-17.11-24.24-18.91-55.57,45.48,6.84,107.14,34.46,146.78,51.5-3.16,10.81-1.46,5.77-7.3,15.58.77-.59,1.85-2.67,2.19-1.95.49,1.06,7.91-9.27,12.65-9,17.66,9.22,44.69,32.18,58.21,35-3.64-19.3-33.55-37.1-52.19-43.24,6.44-46.07,22.61-83,.48-130.5-27.79-59.65-133.54-108.06-160.12,18.58-7.18,34.21-10.11,79.05,9.18,108.88.61.94,2.41,3.65,3.08,4.51,6.71,8.58.43,1,6,6.22ZM552.15,351.54c-7.38-16.91-5.19-73.52,7.24-94-6.69,39.64-7.11,52-7.24,94ZM434.08,454.37l3.51-12.6c-42.73.7-95.26,25.2-128.33,41.56l26.42,58.46c-57.61,58.73-74.84,14.52-75.22-10.16.72-14.78,30.34-46.15,40-54l-2.09-59.88c-17.54,9.1-43.93,51.73-57.24,75.46C159,639.68,304.23,763.76,309,773.83c9.46,5.27,55.18,41.1,63,50-9.38,53.39-6.87,72.27,4.53,126l297.86-18.34c17.6-37.26,29-56.56,39.66-106.58,57.41-9,77.86-2.53,128.6-30.83,22.94-12.79,70.77-57.5,74.12-89.35,3.31-31.41-6.88-121.92-9.61-158.74-4.15-56.1-10.65-90.12-32.55-134.41-18.5-37.41-61.9-96.81-86.24-118.39-51.25-45.42-33.4-30.54-78.79-26.87-106.61,8.61-158-72.73-207.46-115.78-33.88,6.13-108.71,36.55-134.09,67.8-15,18.44-32.07,32.9-43.53,60.9-9.39,22.92-16.39,59.45-15.77,87.51,9.11-12,15.31-28.21,24.1-40.14,14.9-20.21,47.74-46.8,74.27-38.61,14.8,4.56,35.74,24.25,36,25l.07-33.1c.82,2.33,11.12,77.87,11.68,86.69,2.16,34.5-4.31,63.65-7.14,95.75C483.25,444.84,493,421.41,567,488.73c16.22,14.78,27,29.63,41.45,51.6s19.91,39.88,16.19,70.95c30.74,4.11,71.18,3.05,88.39,24.17,1.46,38.24-25.68,28.47-44.81,17.39-18.05-10.44-27.33-19.86-48.12-29.29-7.76,3.69-1.21.22-7.17,4.15-16,10.56-26.21,13-51.56,1.72-127.22-56.49-107.86,17.63-173-13.34-8.58,16.42-39.41,56.75-66.23,43.9-20.74-16.17,22-56.83,59.81-60.91-2.75-35.33,10.86-61.27,26.22-83.88,9.44-13.9,13.49-19.66,23.46-32.39,10.56-13.51,12.41-17.92,14.49-39.17Z"/><path class="cls-3" d="M749.14,991.43c4.33,21.1-9.23,40.8-18.19,79.41l21.6-3.66c17-1.32,16,3.52,7.35-17l-7.78,13.15c.48-19,4.45-22.29,10.86-32.41,7.53-10.87,7.77-25.7,3.26-36.75-5.09-12.49-15.64-20.62-17.54-21.42C736.65,967.6,745.75,974.86,749.14,991.43Z"/><path class="cls-4" d="M988.12,1308.09c-11.62-6.89-24.85-6.5-36.92-9.53l-13.56-5.81,89.59-22.82-1.3,51.45-20.52-5.51c8.2,6.73,3.05,5.07,20.07,9.47-4.51,161-41.31,318.89-101,460.19a690.47,690.47,0,0,1-30.59,63c-18.15,33.43-9.45,25.93-30.93,47.63-.53.53-1.35,1.32-1.84,1.84s-1.32,1.45-1.76,1.92L856,1904c4.72,3.86,13.61-7.34-21.09,42.57-9.59,13.79-14,25.68-32.65,30.41-32.08,8.15-77.49,1.78-109.71-5-48.52-107.75-32.75-209-42-235.3-17.83,3.42-4.67,14.84-69.73,17.54-27.13,1.12-69.21,6.36-89.18-4.27-4.67,3,.08,2.51-7.77,3.55l-36.65-5.91c-14.44-3.48-28.34-7.8-40.94-13.52-37.7-17.13-54.35-41.23-66-38.71-4.77,24.36,81,54.89,94.33,62.51,5.51,38.29-4.8,101.64-8.68,141.47-8.47,8.9-3,4.93-13.54,9.05l10,2.66a12.13,12.13,0,0,1,1.88.57l-3.87,57.69c-28.24,20.45-125.78,14.75-144.24-6.87-46.17-54.06-81.23-121.92-114.38-192C114.63,1670.68,57.13,1496,80.71,1362c24.63-.39,69-12,85-23.25-30,4.1-49.1,18.56-85.36,20.14l9-95c44.82,6,72.76,12.37,119.49,8.54,43.37-3.55,70.31-15.24,108.86-23.63,3.25,38.2-.77,29,13.77,42.76-22.22,2.44-47.23,3.82-62.61,12.79l52.26-8.88c-1.86,19.86,5.05,37.24,13,51.8,26.93,5,293.14-5.94,343.61-7.66,7.26-17.93,22.16-37.16,31.38-54.45,46.52,1.24,96.15,4.09,143.3,7.46,23.59,1.69,47.93.72,71.24,4.07,20.06,2.89,43.5,10,64.48,11.33Zm-264.43-45.61c-5.86,10.58-6.37,7.06-8.59,19.32l77.56,2-69-21.34ZM595.18,1289l7.94-11.16c-58-11-91-21.14-155.76-17.25.8.94.87,14.8,3.46,6.5.19-.64.78,1.89,1.5,2.52-19-7.4-11.42-9.48-36.19-4-12.78,2.85-22.49,5-32.84,11.76l4.33,7.73c-11.51-4.24-13.73-4.62-24.38.27l13.62,15.06c-22.28-7.54-25.42-4.14-46.48,4.61l9.29,32.52c35.08-.63,70.17-1.79,105.25-2.76l86-3c6.7-1.92,3.88-1.74,7.72-4.66,11.18-2.24,7.73-2.3,17.32-7.32l-7.16,9.15c-.32-.7-1.29,1.73-2,2.8l116.9-3.47c-5.88-27.17-3.55-31.59-26.22-39-26-8.44-20.5-10.92-42.37-.38Zm78.51,26.36c8.68-9.55,34.33-45.72,38.89-57.89l-28.68-11.18c-9.77,28.27-29.68,36.82-10.21,69.07Zm-339.58-36.84c17.67,7.26,29.94-11.62,73-22.71,111.29-28.66,222.46,25,248.3,24.34l-20.92-50c-35.74,7.33-111.33-1.74-157.61,3.13-49.33,5.2-96.9,13.26-146.87,14.64-.76,7.11-1.57,10.32-.49,18.06,1.92,13.84,2.44,8.67,4.57,12.58Zm300.17-55.9,22.86,52.77,16.78-32.57c-8.25-9.47-25.54-17.1-39.64-20.2ZM344.87,1088.9l-88.66-54.47c-65.73-33.28-156.77-54.38-218.19-2.37-32.34,27.38-32.85,56.49-21,113.46C38,1246,101.3,1264.35,187.56,1262.1c63.8-1.66,173.2-32.88,210.08-69.29a169.24,169.24,0,0,0-9.14-85.38c-11.27-29.47-26-30.42-56.16-36.43l12.53,17.9ZM683,1074.67c6.47-29.75,34.12-100.76,47.14-124,8.72,35.21,13.38,42.09,2.8,75.25-15,47-2.88,46-49.94,48.76ZM669.1,1076l-36.89,2.61c-17.59,53.69-17.28,88-5.27,141.22-36.59,5.23-97.44-3.06-142.17,1-40.18,3.61-94.29,15.28-132.73,13.48,18.52-12.17,40.26-18.86,56.09-33.83,3.67-33.71,2.14-60.77-7.45-90.83-16.52-51.75-18.81-26.67-50.57-48.85,6.93-26,18.24-82.79,32.74-99.86l336.82-19.87L669.1,1076Zm250.73-13.74c-17.22-9.06-14.78-5.28-36.22-.93C826,1073.05,764.84,1078.1,708.09,1087c-13.72,2.15-45.56-.72-68.56,3.39-12.45,45.42-11.75,68.1-6.29,115.8,25.2,10,53.42,28.74,83.42,40.36,123.92,48,279,54.78,385.68-34.94,72.33-60.86,11.68-230.36-24.73-292.23-16.21-.39-22.3,4.44-37.48,8.6,1.25-1.44-5.29-1.85,15.93-8.71,5.76-1.86,10.51-3.23,15.33-4.6-5.64-14.9-26.79-40.84-37-52.19C1018.64,845,937.78,735,923.9,725.56L898,761.35c-39.54,47.51-111.88,68.6-112,68.48-4.39-8.28-15.13,66.44-30.6,86.34,7.57-30.82,19.44-48.84,23-85.55l-56.2,4.32C717.07,872,699.19,901.21,687.77,931l50.36-.8c9.6,31.63-2.85,28.85,15,35.77l-3.66,4.09c-3.8,6.65-4.08-4.71.44,21.78,4,23.51-10,40-19,78.58l21.6-3.66c3.14-.25,7.4,1,14.26-.55l-6.92-16.5-7.77,13.15c.48-19,4.45-22.29,10.86-32.41l14.62,35.18c24.51-2.23,103.56-9.28,117.67-22.67,8.32,2.56,10.33.12,18.06-3.69,11.63,4.63,31.85-4.75,45-9.3a216.22,216.22,0,0,0,21.06-8.31c.88-.41,9.84-4.54,10-4.57,15.81-2.68,5.27,0,9.52,2.74-4.55,10.71-1.15,7.14-16.33,13.12l-66.7,20.77c2.25,3,2.09,6.54,3.93,8.57ZM330.39,993.17c2.24,3.48,4.29,8.92,5.62,11.29l-16.12,26.87,10.79-1.32c.45-18.49-.27-20.15,18.23-18.2.47,15.88-4.12,34.32-11.23,46-12.21-2.23-16.06-2.7-25.09-11.1-18.17-2.51-53-23.58-73.35-32.46-25.93-11.34-55.93-18.9-86.93-22.62,2.37-31.7,30.55-51.27,36.23-76.86-16.68,4.17-16,9.51-22.06,21L159.83,923c.5,22.05-10.65,49.68-22.32,66.17C43.76,992,58.67,1010.32,20,1031.07c10.51-61.8,61-145.76,89.44-183.63,38.94-51.75,74-101.63,157.87-117.05,7.11,13.86,27.44,35.12,41.68,43.44,10.61,21.44,22.81,5.88,17.59,31.53,4.65-3.52,3.74-11,21.48,3.38,7.95,6.42,11.5,8.21,19,15.06-.06,38.52-7.11,58.66.9,102.55,5.27,28.83,8.32,11.65-1.71,39.7-4.92,13.74-7.59,29.23-14.3,42.7l-15.55-10.64c-6.34-5.43-1.22-1.41-6-4.94ZM702.74,648.83c-17.49,4.68-38-9-48.5-22,44.28,3.59,46.16,6.12,48.5,22Zm-375.25,2c7-19.07,26.09-34.44,50.32-39.69-7.57,18.91-29.73,40.52-50.32,39.69ZM480.83,457.28C527.2,443.84,650.12,575.65,607.45,618c-17.72,17.58-55.2-6-73.91-12.54-26.19-9.19-61.43-15.48-87.78-3.65-6.36,2.85-63.22,35.24-53.33-26.74,4.66-29.21,53.15-107.57,88.4-117.79Zm-169.76,11c8.56-1.25,43.14-17.21,57.75-22.27,41.81-14.47,67.92-8.92,72.54-26.13,5.44-20.29,3.95-66.18-4.14-87.29-11.33-29.54-34.57-43.77-65.7-25.83-45.27,26.1-66,86.6-60.45,161.52Zm-2,305.57c9.46,5.27,55.18,41.1,63,50-9.38,53.39-6.87,72.27,4.53,126l297.86-18.34c17.6-37.26,29-56.56,39.66-106.58,57.41-9,77.86-2.53,128.6-30.83,22.94-12.79,70.77-57.5,74.12-89.35,3.31-31.41-6.88-121.92-9.61-158.74-4.15-56.1-10.65-90.12-32.55-134.41-18.5-37.41-61.9-96.81-86.24-118.39-51.25-45.42-33.4-30.54-78.79-26.87-106.61,8.61-158-72.73-207.46-115.78-33.88,6.13-108.71,36.55-134.09,67.8-15,18.44-32.07,32.9-43.53,60.9-9.39,22.92-16.39,59.45-15.77,87.51,9.11-12,15.31-28.21,24.1-40.14,14.9-20.21,47.74-46.8,74.27-38.61,14.8,4.56,35.74,24.25,36,25l.07-33.1c.82,2.33,11.12,77.87,11.68,86.69,2.16,34.5-4.31,63.65-7.14,95.75C483.25,444.84,493,421.41,567,488.73c16.22,14.78,27,29.63,41.45,51.6s19.91,39.88,16.19,70.95c30.74,4.11,71.18,3.05,88.39,24.17,1.46,38.24-25.68,28.47-44.81,17.39-18.05-10.44-27.33-19.86-48.12-29.29-7.76,3.69-1.21.22-7.17,4.15-16,10.56-26.21,13-51.56,1.72-127.22-56.49-107.86,17.63-173-13.34-8.58,16.42-39.41,56.75-66.23,43.9-20.74-16.17,22-56.83,59.81-60.91-2.75-35.33,10.86-61.27,26.22-83.88,9.44-13.9,13.49-19.66,23.46-32.39,10.56-13.51,12.41-17.92,14.49-39.17l-12,10.74,3.51-12.6c-42.73.7-91.85,24.05-124.92,40.41v10.65l-7.16-3.93c-7.65,6.31-8.92,10.84-20.29,10.86.72-14.78,5.58-14.28,15.28-22.09l-2.09-59.88c-17.54,9.1-43.93,51.73-57.24,75.46C159,639.68,304.23,763.76,309,773.83ZM320.7,262c-31.88-14.31-161-136.79-55.74-223.65,71.7-59.17,213.9,73.46,226.89,102.69-32.9,12.37-74.37,23.12-101.62,43.48-32.46,24.26-48.4,45.1-69.53,77.48Zm455.8-26.86c-138.31,75.81-228.9-61-291.92-122.8-5.2-5.1-26.76-26.64-30.69-28.64,11.74,1.53,309.54,141.53,322.61,151.44Zm125.26,100.2c-3.51,21,18,41.12,4.27,52.65-4.65-4.75-28.27-74-34.61-88.18L841.53,236c-7.79-16.14-7.7-7.71-13.13-19.48,11.75-8,9.51-4.08,19,6.21l32.52-44.62C852.09,126.24,785.23,71.6,709.1,51.57,643.89,34.42,515.09,40,462.72,73.36c51.88,20.54,230.49,108,293.74,138.58,13.26,6.42,31.77,10,39.33,23.75-9.85,9.47-19.36,13.38-33.14,18.26,2.93,4,.58,1.89,5.29,7.13l18.16,15.23c9.49,8.53,13.62,14.3,21.67,22.72,15.93,16.65,27.88,29.85,42.53,50.3,42.1,58.77,51.87,112.78,59.31,123.33l-.21-104c10.89-7.35,33.72-14,43-21.64,75.58-61.89,41.09-139.94,54.77-175.38,10.39-26.89,25-34,40.84-50.21-28.43,2.74-105.55,29.8-129.59,43-28.23,15.47-28.83,21.91-46.6,42.25-28,32-13.28,33.07-2.87,65.65l10.79-19.67c.3-.55,1-1.6,1.55-2.39-5.07,24.1-9.56,25.59,1.36,49.3,4.72,10.26,10.71,30,19.1,35.84Zm33,34.64c41.93-15.33,77.19-67,80.2-130.45,2.12-44.62-8.73-56.61,17.16-87.21,26.57-31.42,52.21-31.76,50.31-48.46-28.83-9.55-172.35,48.66-193.32,64.71-17.08-20.11-28.12-39.67-47.24-56-17.68-15.12-35.69-30-59.38-43.82C707.41,24.94,614.22,22,527.72,40.15,511.34,43.58,453,64.22,448,64.38c-35.42,1.13-85.52-69-159.33-50.16-66.88,17.1-114,121-29.36,205.73,9.48,9.48,16,19.42,26.18,29.42,9.41,9.24,16.65,12.86,27.68,24.76-11.38,50.42-14.47,74.8-19.5,130.4-38.34,33.88-71.37,82.79-83,140-10.22,50.22-1.11,97.09,20,140.57,5.92,12.21,13.4,22.64,18.34,34.89-10.06,6.54-26.3,10.77-38.59,16.81-57,28-95.19,81.19-131.19,135.8-43.15,65.44-89.14,164.1-76.83,250.81,7.57,53.35,33.85,114.75,78.18,134.63-7.26,59.72-16.06,122.13-16,184.6.14,155,102.1,400.62,192.41,513.33,10.51,13.12,12.45,23.56,31,28.17,40,10,109.49,16,142.89-7.2,7.19-66.06,15.44-150.66,15.9-215.86,59.75,4.89,136.4,14.85,194.2-5.93,6.25,71.55,7.16,152.16,39.92,217.76,13.16,26.37,100.28,21.21,124.57,15.12,21.64-5.42,24.26-14.52,35.69-30.87,44.21-63.25,88.63-149.37,116.26-224.72,58.41-159.26,72.51-285.29,80.91-470.44,97.73-35.55,121-94.36,102.1-198.06C1111.66,906,1050.37,874.55,971.81,764.51l-35.55-42.26c-10.43-13.17-9-42.67-10.59-63.67C910.71,454.81,915.41,555.47,934.81,370Z"/><path class="cls-2" d="M352,1100.52c4.95,7.44.12-9.58,4.83,9.48l1.83,36.69c10.57,6.09,9.17-.62,17.2,6.9l-15.62,13.54c2.51-7.41-.4-3,7.61-7.85l-5.34-4.18c-.67-.61-1.72-1.29-2.39-2-5.29-5.37-5.58-6.39-5.9-18-.37-13.63-.37-20.85-2.22-34.58Zm-7.14-11.62,7.14,11.62Zm0,0-88.66-54.47c-65.73-33.28-156.77-54.38-218.19-2.37-32.34,27.38-32.85,56.49-21,113.46C38,1246,101.3,1264.35,187.56,1262.1c63.8-1.66,173.2-32.88,210.08-69.29a169.24,169.24,0,0,0-9.14-85.38c-11.27-29.47-26-30.42-56.16-36.43Z"/><path class="cls-5" d="M901.76,335.36,913.31,328l-11.55,7.39ZM913.31,328,925,320.85,913.31,328Zm39.19-42.19L940.62,301Zm0,0,7.26-11.5-7.26,11.5Zm7.26-11.5L967.32,262l-7.56,12.25Zm-70.22-41c3.55-4.74,2.29-2.31,6.55-5.62-1.65,2.68-5,8.24-6.19,9.89-2.91,4-3.3,3.82-6,6.56,2.44-5.74,2.54-6.73,5.6-10.83Zm31.31-28.2-18.71,16.12C908.21,211.48,907,212.38,920.85,205.09Zm0,0,16.88-11.82-16.88,11.82Zm16.88-11.82Zm57.84-31.79-11.18,4.25,11.18-4.25ZM901.76,335.36c-3.51,21,18,41.12,4.27,52.65-4.65-4.75-28.27-74-34.61-88.18L841.53,236c-7.79-16.14-7.7-7.71-13.13-19.48,11.75-8,9.51-4.08,19,6.21l32.52-44.62C852.09,126.24,785.23,71.6,709.1,51.57,643.89,34.42,515.09,40,462.72,73.36c51.88,20.54,230.49,108,293.74,138.58,13.26,6.42,31.77,10,39.33,23.75-9.85,9.47-19.36,13.38-33.14,18.26,2.93,4,.58,1.89,5.29,7.13l18.16,15.23c9.49,8.53,13.62,14.3,21.67,22.72,15.93,16.65,27.88,29.85,42.53,50.3,42.1,58.77,51.87,112.78,59.31,123.33L925,363.6c10.89-7.36,18.12-9,27.41-16.61,75.58-61.89,41.09-139.94,54.77-175.38,10.39-26.89,25-34,40.84-50.21-28.43,2.74-105.55,29.8-129.59,43-28.23,15.47-28.83,21.91-46.6,42.25-28,32-13.28,33.07-2.87,65.65l10.79-19.67c.3-.55,1-1.6,1.55-2.39-5.07,24.1-9.56,25.59,1.36,49.3C887.38,309.78,893.37,329.49,901.76,335.36Z"/><path class="cls-6" d="M531.07,1172.88l5.37,13.9c3.67,9.62,9.56,2.55,15,6-16.25,9.55-21-3.52-20.42-19.93Zm-71.94-21.46c4.57-9.74,5.72-17.64,3.23-32.07,4.26,5.94,1.21-7.5,5.55,10,3.09,12.44-2.75,17.3-8.78,22.08Zm114.47-9.06-4.5-15.63c1.21.73,2,1,2.23,2.45l5.85,10.14c7.23-4.68,1.3,1,6.2-5.16.64-.81,3.48-6.12,3.61-6.35-1.15,13.58-.73,13.43-13.39,14.55Zm-135.17.89c-4.44-23.78-1-31,21.74-26.82-4.51-3.94.13-5.28-15.25-6.34-5.92,5.8-15,12.14-12.33,23.52,3.61,15.64,2.33,5,5.84,9.64Zm50.48-41.59c-.3.73-.78,2.09-1.08,2.82-.38.92-.26,11.6-2.22,5.53-.18-.55-.7,1.84-1.57,2.67l1.72-19,17-.26-.66,19.76c-8-21.93,5.41-10.33-10.74-17l-2.48,5.49Zm84.67-89.05-6.51,15.54,6.51-15.54Zm-64-.07-4.12,26,19.38.11c-1.29,1-1.28,13.16-21.87.12-.6-7.6-2-10,.21-17.88,3.52-12.38,4-6.32,6.4-8.38Zm13.36-4.13,5.06,26.91c.17-2.19,4.64-1.41,2.71-15-1.52-10.69-5.11-9.9-7.77-11.91Zm-94.68,37c-5.93-17.28-4.86-25.26,9.55-33.46,13.67,5.72,14.16,9.39,14.26,28.1l-2.07-5.91c-.27-.94-.48-2.19-.77-3.23-4.36-15.75,0-12.85-16.58-15.36l-3.24,23.51a31.34,31.34,0,0,0,2.8,1.43l-3.95,4.92Zm121.57-22.22c.92-13.88,3.82-16.16,16.61-17.62L550.88,1021c-.16-.54-.67,1.48-1.09,2.17Zm-40.25-10.65,13.36-4.13c-1.26-1.72,4.14-5.2-6-2.46-13.11,3.54-3.88,1.34-7.31,6.59Zm210.13-71.48L382.85,960.93c-14.5,17.07-25.81,73.91-32.74,99.86,31.76,22.18,34.05-2.9,50.57,48.85,9.59,30.06,11.12,57.12,7.45,90.83-15.83,15-37.57,21.66-56.09,33.83,38.44,1.8,92.55-9.87,132.73-13.48,44.73-4,105.58,4.28,142.17-1-12-53.22-12.32-87.53,5.27-141.22L669.1,1076Z"/><path class="cls-7" d="M330.39,993.17,324.07,980l6.32,13.14Zm-14.1-166c-17.17,100.47-12.68,31.79-3.43,127.68-13.34-24.17-11.55-70-6.27-99.58Zm0,0,8-15.55-8,15.55Zm-3.7,219.52c.76-3.06,1.07-6.3,2.53-9.14,3.68-7.14,1.61-2.77,4.77-6.22L336,1004.46c-1.33-2.37-3.38-7.81-5.62-11.29,4.82,3.53-.3-.49,6,4.94L352,1008.75c6.71-13.47,9.38-29,14.3-42.7,10-28,7-10.87,1.71-39.7-8-43.89-1-64-.9-102.55-7.49-6.85-11-8.64-19-15.06-17.74-14.33-16.83-6.9-21.48-3.38,5.22-25.65-7-10.09-17.59-31.53-14.24-8.32-34.57-29.58-41.68-43.44-83.87,15.42-118.93,65.3-157.87,117.05C81,885.31,30.55,969.27,20,1031.07,58.67,1010.32,43.76,992,137.51,989.2c11.67-16.49,22.82-44.12,22.32-66.17l6.65,12.75c6-11.52,5.38-16.86,22.06-21-5.68,25.59-33.86,45.16-36.23,76.86,31,3.72,61,11.28,86.93,22.62C259.54,1023.11,294.42,1044.18,312.59,1046.69Z"/><path class="cls-8" d="M320.7,262c21.13-32.38,37.07-53.22,69.53-77.48,27.25-20.36,68.72-31.11,101.62-43.48C478.86,111.83,336.66-20.8,265,38.37,159.72,125.23,288.82,247.71,320.7,262Z"/><path class="cls-8" d="M559.71,578c-13.13,9.42-27.39,1-35.84-12C539.44,576.53,536.22,579.46,559.71,578Zm0,0,5.78-3.47c-1.74-9.57-.22-6.93-6-15.85-6.33-9.71-3.83-6.35-11.72-11.77l14.86,22L559.71,578Zm-32.1-50.49c10.35,6.36,11.95,7.57,17.41,16.63-4.47-3.58-7-5.45-10.51-8.76-4.74-4.49-4.15-4.2-6.9-7.87Zm-68.29,16c-6.89,13.62-24.21,36.38-43.85,27.55-18.15-14.83,26.09-54.34,50.81-54.55,2.63,15,.84,17-7,27ZM523.87,566c-8-17.9-9.79-17.15-9.37-42.53l13.11,4.07a18,18,0,0,0-7.24-7.37c-8.52-5-4.28-2.89-15.73-4.39-7.92,22.92,5.24,43.63,19.23,50.22Zm-43-108.69c-35.25,10.22-83.74,88.58-88.4,117.79-9.89,62,47,29.59,53.33,26.74,26.35-11.83,61.59-5.54,87.78,3.65,18.71,6.57,56.19,30.12,73.91,12.54C650.12,575.65,527.2,443.84,480.83,457.28Z"/><path class="cls-9" d="M1121.82,1193.77l21-56.79-15.17-118.38-51.62-102.07-40.34,12.06-37.87,23-27.55,21.25,27.14,50.64-82,27.19-265.13,31.81c-26.44,3.17-25.19,32.42-23.52,127.46C984.56,1399.32,1125.06,1182.74,1121.82,1193.77Z"/><path class="cls-8" d="M776.5,235.16C763.43,225.25,465.63,85.25,453.89,83.72c3.93,2,25.49,23.54,30.69,28.64C547.6,174.2,638.19,311,776.5,235.16Z"/><path class="cls-10" d="M710,1283.47c8.56-1.24,153.5,11.31,168.11,6.25,41.81-14.47,152.15,46.85,153.65,30.9,5.44-20.29,7.46-38.92-.63-60C840.82,1328.52,705,1216.5,710,1283.47Z"/><path class="cls-8" d="M334.11,1278.48c17.67,7.26,29.94-11.62,73-22.71,111.29-28.66,222.46,25,248.3,24.34l-20.92-50c-35.74,7.33-111.33-1.74-157.61,3.13-49.33,5.2-96.9,13.26-146.87,14.64-.76,7.11-1.57,10.32-.49,18.06C331.46,1279.74,332,1274.57,334.11,1278.48Z"/><path class="cls-4" d="M727.18,474.17c-21.11-5.95-46.63-19.77-70.44-28-25.57-8.81-48.8-14.62-74.46-23.76-1.2-68.9,25.64-144.64,99.25-110.68,60.68,28,61.43,86.57,45.65,162.42ZM595.47,489.91c-11.08-22.22-17.11-24.24-18.91-55.57,45.48,6.84,107.14,34.46,146.78,51.5-3.16,10.81-1.46,5.77-7.3,15.58.77-.59,1.85-2.67,2.19-1.95.49,1.06,7.91-9.27,12.65-9,17.66,9.22,44.69,32.18,58.21,35-3.64-19.3-33.55-37.1-52.19-43.24,6.44-46.07,22.61-83,.48-130.5-27.79-59.65-133.54-108.06-160.12,18.58-7.18,34.21-10.11,79.05,9.18,108.88.61.94,2.41,3.65,3.08,4.51C596.23,492.27,590,484.68,595.47,489.91Z"/><path class="cls-11" d="M376.86,1300.44l36.82,34.22Zm0,0c-22.28-7.54-25.42-4.14-46.48,4.61l9.29,32.52c35.08-.63,70.17-1.79,105.25-2.76l86-3c6.7-1.92,3.88-1.74,7.72-4.66L527,1319.72c-2.68-2-205.51,3.82-12.37-3.86-1.44-1.32-4.17-6.95-5.1-7.71-23.9-1.57-80.82,2.85-102.66-8.9-18.93-10.17,12.87,13.49-8.09-6.56l-11.11-7.58c-11.51-4.24-13.73-4.62-24.38.27Z"/><path class="cls-12" d="M452.32,1269.57l28.5,19.34,28.66,19.24L527,1319.72l11.72,7.42c11.18-2.24,7.73-2.3,17.32-7.32l10-8,14.6-11.44L595.18,1289l7.94-11.16c-58-11-91-21.14-155.76-17.25.8.94.87,14.8,3.46,6.5C451,1266.41,451.6,1268.94,452.32,1269.57Z"/><path class="cls-8" d="M595.18,1289l-14.61,11.39L566,1311.79l-10,8-7.16,9.15c-.32-.7-1.29,1.73-2,2.8l116.9-3.47c-5.88-27.17-3.55-31.59-26.22-39C611.59,1280.9,617.05,1278.42,595.18,1289Z"/><path class="cls-8" d="M683,1074.67c47.06-2.77,34.94-1.78,49.94-48.76,10.58-33.16,5.92-40-2.8-75.25C717.14,973.91,689.49,1044.92,683,1074.67Z"/><path class="cls-8" d="M387.62,1285.11l11.11,7.58c37.72,13.28,54.54,11.67,97.28,11.57l-15.19-15.35-28.5-19.34c-19-7.4-11.42-9.48-36.19-4-12.78,2.85-22.49,5-32.84,11.76Z"/><path class="cls-8" d="M673.69,1315.32c8.68-9.55,34.33-45.72,38.89-57.89l-28.68-11.18C674.13,1274.52,654.22,1283.07,673.69,1315.32Z"/><path class="cls-4" d="M433.62,654.67c24.64,9.73,42.15-19.15,68.54-16.62,23.45,2.24,39.31,41,59.69,24.31-.34-.49-44-34.91-59.66-36-22.08-1.58-31.17,11.1-53.11,17.36C427.4,649.87,437.84,641.56,433.62,654.67Z"/><path class="cls-8" d="M319.89,1031.33,319,1042.9l-6.38,3.79c9,8.4,12.88,8.87,25.09,11.1,7.11-11.66,11.7-30.1,11.23-46-18.5-1.95-17.78-.29-18.23,18.2Z"/><path class="cls-4" d="M459.32,543.54c-11.23,11.63-17.54,24.46-40.82,27.12,5.18-21.39,26.79-40,46.13-46.27Zm0,0c7.8-10,9.59-12,7-27-24.72.21-69,39.72-50.81,54.55C435.11,579.92,452.43,557.16,459.32,543.54Z"/><path class="cls-8" d="M673.92,1242.78c-8.25-9.47-25.54-17.1-39.64-20.2l22.86,52.77Z"/><path class="cls-8" d="M459.32,543.54l5.31-19.15c-19.34,6.28-40.95,24.88-46.13,46.27C441.78,568,448.09,555.17,459.32,543.54Z"/><path class="cls-8" d="M327.49,650.83c20.59.83,42.75-20.78,50.32-39.69C353.58,616.39,334.47,631.76,327.49,650.83Z"/><path class="cls-4" d="M597.91,394c23,6.83,32.73-11.24,22.2-23.62C607.63,355.66,590.7,366.72,597.91,394Z"/><path class="cls-4" d="M388.38,373.12l5.05,20.28c19.17,1.17,23.81-3.82,22.4-23.48C405.58,362.71,398.15,359.7,388.38,373.12Z"/><path class="cls-8" d="M702.74,648.83c-2.34-15.83-4.22-18.36-48.5-22C664.7,639.86,685.25,653.51,702.74,648.83Z"/><path class="cls-4" d="M523.87,566c-8-17.9-9.79-17.15-9.37-42.53l13.11,4.07a18,18,0,0,0-7.24-7.37c-8.52-5-4.28-2.89-15.73-4.39C496.72,538.67,509.88,559.38,523.87,566Z"/><path class="cls-4" d="M734.43,1950.44c4.48,9.19-2.65,3.61,7.17,7,5.58-8.24,3.9-5.48,6.27-15.78.9-3.92,1-6.72,2-9.6,8.68-24.79,58.25,8.52,87.74-16.68-57.11,13.75-62.88-4.71-89.46,8.76l-6,30.19C738.83,1951.88,736.57,1952.81,734.43,1950.44Z"/><path class="cls-4" d="M316.29,827.17l-9.7,28.1c-5.28,29.58-7.07,75.41,6.27,99.58C303.61,859,299.12,927.64,316.29,827.17Z"/><path class="cls-4" d="M552.15,351.54c.13-42,.55-54.39,7.24-94C547,278,544.77,334.63,552.15,351.54Z"/><path class="cls-4" d="M319.88,1945.72c5.7,13.4,2.36,8,10.65,11.69,5.31-11.84,3.14-14.43,2.45-27.87,25.18,2.85,49.14,2.87,65.51-10.65-25.49,6.52-37.27,13.87-67.34,6l-.76,28.57-8.44-5.9C321.64,1946.35,320.56,1946.34,319.88,1945.72Z"/><path class="cls-4" d="M352,1100.52c1.85,13.73,1.85,21,2.22,34.58.32,11.64.61,12.66,5.9,18,.67.68,1.72,1.36,2.39,2l5.34,4.18c-8,4.81-5.1.44-7.61,7.85l15.62-13.54c-8-7.52-6.63-.81-17.2-6.9L356.84,1110C352.13,1090.94,357,1108,352,1100.52Z"/><path class="cls-4" d="M428.22,1045.41l3.95-4.92a31.34,31.34,0,0,1-2.8-1.43l3.24-23.51c16.54,2.51,12.22-.39,16.58,15.36.29,1,.5,2.29.77,3.23l2.07,5.91c-.1-18.71-.59-22.38-14.26-28.1C423.36,1020.15,422.29,1028.13,428.22,1045.41Z"/><path class="cls-4" d="M509.54,1012.54c-2.41,2.06-2.88-4-6.4,8.38-2.24,7.88-.81,10.28-.21,17.88,20.59,13,20.58.93,21.87-.12l-19.38-.11Z"/><path class="cls-4" d="M438.43,1143.25c-4.44-23.78-1-31,21.74-26.82-4.51-3.94.13-5.28-15.25-6.34-5.92,5.8-15,12.14-12.33,23.52C436.2,1149.25,434.92,1138.61,438.43,1143.25Z"/><path class="cls-4" d="M934.61,1104.35c15.25-18.9,10.44-32.47-14.78-42l18.43,13.82Z"/><path class="cls-4" d="M484,1112.68c.87-.83,1.39-3.22,1.57-2.67,2,6.07,1.84-4.61,2.22-5.53.3-.73.78-2.09,1.08-2.82l2.48-5.49c16.15,6.72,2.75-4.88,10.74,17l.66-19.76-17,.26Z"/><path class="cls-4" d="M666.53,1150.47c-7.09,12.53-5.95,12.68-22.74,14.72L657,1179.75c0-.39.1-1.43.07-1.16l-2.9-8.84C662.13,1163.19,664.76,1163.66,666.53,1150.47Z"/><path class="cls-4" d="M459.13,1151.42c6-4.78,11.87-9.64,8.78-22.08-4.34-17.49-1.29-4-5.55-10C464.85,1133.78,463.7,1141.68,459.13,1151.42Z"/><path class="cls-4" d="M522.9,1008.41l5.06,26.91c.17-2.19,4.64-1.41,2.71-15C529.15,1009.63,525.56,1010.42,522.9,1008.41Z"/><path class="cls-4" d="M551.49,1192.81c-5.49-3.48-11.38,3.59-15-6l-5.37-13.9C530.48,1189.29,535.24,1202.36,551.49,1192.81Z"/><path class="cls-4" d="M559.71,578c-23.49,1.46-20.27-1.47-35.84-12C532.32,579,546.58,587.42,559.71,578Z"/><path class="cls-4" d="M583.38,1134.16c-4.9,6.19,1,.48-6.2,5.16l-5.85-10.14c-.24-1.43-1-1.72-2.23-2.45l4.5,15.63c12.66-1.12,12.24-1,13.39-14.55C586.86,1128,584,1133.35,583.38,1134.16Z"/><path class="cls-4" d="M549.79,1023.19c.42-.69.93-2.71,1.09-2.17l15.52-15.45C553.61,1007,550.71,1009.31,549.79,1023.19Z"/><path class="cls-4" d="M998.76,950.59,1024.82,937c-6.78.42-7.72-1.94-20.26,8.06A34.16,34.16,0,0,0,998.76,950.59Z"/><path class="cls-4" d="M666.53,1150.47l10.75-33.79C670.73,1125.08,667.77,1135.29,666.53,1150.47Z"/><path class="cls-4" d="M677.28,1116.68l5.51-6.29c1.9-2.24,2.12-2.93,5.08-6l11.4-12.17C687.62,1100.09,683.05,1103.31,677.28,1116.68Z"/><path class="cls-4" d="M509.54,1012.54l13.36-4.13c-1.26-1.72,4.14-5.2-6-2.46C503.74,1009.49,513,1007.29,509.54,1012.54Z"/><path class="cls-4" d="M312.59,1046.69l6.38-3.79.92-11.57c-3.16,3.45-1.09-.92-4.77,6.22C313.66,1040.39,313.35,1043.63,312.59,1046.69Z"/><path class="cls-4" d="M312.53,1934.74c-7.09-5.29,9.26-.45-9.22-5.1-14.89-3.74-3.6-.81-8.06,1.28Z"/><path class="cls-4" d="M527.61,527.51c2.75,3.67,2.16,3.38,6.9,7.87,3.49,3.31,6,5.18,10.51,8.76C539.56,535.08,538,533.87,527.61,527.51Z"/><path class="cls-4" d="M734.43,1950.44c-2.45-8.21-5.89-21.57-12.89-25.45Z"/><path class="cls-4" d="M920.85,205.09c-13.83,7.29-12.64,6.39-18.71,16.12Z"/><path class="cls-4" d="M883.94,244.12c2.66-2.74,3-2.6,6-6.56,1.22-1.65,4.54-7.21,6.19-9.89-4.26,3.31-3,.88-6.55,5.62C886.48,237.39,886.38,238.38,883.94,244.12Z"/><path class="cls-4" d="M924.08,1024c5.67-4.91-1.52,3.28,5.74-5.59.12-.14,4.65-6.72,5.73-8.24C930.63,1013,931.28,1008.81,924.08,1024Z"/><path class="cls-4" d="M439.75,1671.38c2.22,3.24,1.66,3.32,3.87,6.93,4.19,6.82,2.7,4.15,5.21,7.47C445.53,1675,447.4,1674.12,439.75,1671.38Z"/><path class="cls-4" d="M977.49,966c-15.39,8.27-8.86,3.89-12.56,12.51Z"/><path class="cls-4" d="M704.57,510c14.56-.32,5.95-2.22,8.95-5.83Z"/><path class="cls-4" d="M319.46,501c2.45,2.26-1.1,2.65,5.71,4.6,5.09,1.46,1.89.4,4.43-.83Z"/><path class="cls-4" d="M934.61,1104.35c-1,1.33-2.87,2.52-4.33,6.53-2.79,7.63-1,3-.54,7.11Z"/><path class="cls-4" d="M765.78,993l6,7.67C770.35,988.65,770.1,996.21,765.78,993Z"/><path class="cls-4" d="M319.46,501c-3.19-7.77-2.65-5.47-6.79-8.17Z"/><path class="cls-4" d="M884.59,1027.6l-4.08-7C884.19,1033.16,880.23,1023,884.59,1027.6Z"/><path class="cls-4" d="M427.12,466.49l7-12.12Z"/><path class="cls-4" d="M420,478.32l7.08-11.83Z"/><path class="cls-4" d="M420,478.32l-6.67,9.07Z"/><path class="cls-4" d="M920.85,205.09l16.88-11.82Z"/><path class="cls-4" d="M984.39,165.73l11.18-4.25Z"/><path class="cls-4" d="M316.29,827.17l8-15.55Z"/><path class="cls-4" d="M744,935.47l9.49-12.35Z"/><path class="cls-4" d="M977.49,966l21.27-15.36Z"/><path class="cls-4" d="M330.39,993.17,324.07,980Z"/><path class="cls-4" d="M567.07,1028.15l6.51-15.54Z"/><path class="cls-4" d="M913.33,1039.28,924.08,1024Z"/><path class="cls-4" d="M895.27,1043l-10.68-15.37Z"/><path class="cls-4" d="M352,1100.52l-7.14-11.62Z"/><path class="cls-4" d="M913.31,328,925,320.85Z"/><path class="cls-4" d="M901.76,335.36,913.31,328Z"/><path class="cls-4" d="M480.82,1288.91l-28.5-19.34Z"/><path class="cls-4" d="M398.73,1292.69l-11.11-7.58Z"/><path class="cls-4" d="M580.57,1300.35,595.18,1289Z"/><path class="cls-4" d="M376.86,1300.44l11.67,8.64Z"/><path class="cls-4" d="M566,1311.79l14.6-11.44Z"/><path class="cls-4" d="M230.58,1315.83l37-9.91Z"/><path class="cls-4" d="M1005.41,1315.87l-17.29-7.78Z"/><path class="cls-4" d="M556,1319.82l10-8Z"/><path class="cls-4" d="M538.67,1327.14,527,1319.72Z"/><path class="cls-4" d="M165.71,1338.77l64.87-22.94Z"/><path class="cls-4" d="M952.5,285.78,940.62,301Z"/><path class="cls-4" d="M459,1704.46,451.1,1692Z"/><path class="cls-4" d="M466.33,1715.75,459,1704.46Z"/><path class="cls-4" d="M477,1731.18l-10.65-15.43Z"/><path class="cls-4" d="M491.59,1750,477,1731.18Z"/><path class="cls-4" d="M952.5,285.78l7.26-11.5Z"/><path class="cls-4" d="M837.58,1915.4,856,1904Z"/><path class="cls-4" d="M959.76,274.28,967.32,262Z"/><path class="cls-4" d="M319.88,1945.72l-7.35-11Z"/><path class="cls-13" d="M1073.36,106.23c-14.23-8.31-97.21,31.08-128.58,72.77-28.49,37.87-62.55,35.45-73.06,97.24C891,325,897.3,378.42,914.24,368.14c18.62-11.29,61.66-20.5,84.24-72.92,15.26-35.4,17.57-85,15.81-123.25C1012.94,142.59,1068.25,126.91,1073.36,106.23Z"/><path class="cls-8" d="M443.72,1536.31c-10.78-11.3-40.63-53.48-46.41-73.59-7.36-25.62,9.65-35.26,27.44-21.87,11.89,9,13.19,19,17.89,28.26,3,6,2.09,3.67,4.72,6.67,7.72-16.08,15.75-46,40.32-31.76C501.4,1477.57,456.82,1524.55,443.72,1536.31Z"/><path class="cls-4" d="M444.37,1534.23c12.88-11.2,56.67-55.94,43.19-87.9-24.13-13.53-32,14.94-39.61,30.25-2.58-2.85-1.66-.68-4.63-6.35-4.61-8.82-5.89-18.39-17.57-26.91-17.48-12.75-34.19-3.57-27,20.83,5.67,19.15,35,59.32,45.58,70.08Zm0,11.07c-12.25-13.23-42.22-58.07-49.44-76.66-16.3-42,29.27-52.07,50.66-7.64,10.21-12.83,20.85-27.82,44.58-21.5C508,1476.36,471.42,1516.62,444.37,1545.3Z"/><path class="cls-9" d="M312.53,1934.74l7.35,11-7.35-11Zm421.9,15.7L721.54,1925c7,3.88,10.44,17.24,12.89,25.45Zm-421.9-15.7-17.28-3.82c4.46-2.09-6.83-5,8.06-1.28,18.48,4.65,2.13-.19,9.22,5.1Zm7.35,11c.68.62,1.76.63,2.07,1.82l8.44,5.9.76-28.57c30.07,7.89,41.85.54,67.34-6-16.37,13.52-40.33,13.5-65.51,10.65.69,13.44,2.86,16-2.45,27.87-8.29-3.67-4.95,1.71-10.65-11.69Zm414.55,4.72c4.48,9.19-2.65,3.61,7.17,7,5.58-8.24,3.9-5.48,6.27-15.78.9-3.92,1-6.72,2-9.6,8.68-24.79,58.25,8.52,87.74-16.68-57.11,13.75-62.88-4.71-89.46,8.76l-6,30.19c-3.26-2.47-5.52-1.54-7.66-3.91Zm103.15-35L856,1904l-18.42,11.42ZM477,1731.18,491.59,1750,477,1731.18Zm-10.65-15.43L477,1731.18l-10.65-15.43ZM459,1704.46l7.34,11.29Zm0,0L451.1,1692l7.89,12.51Zm-19.24-33.08c7.65,2.74,5.78,3.62,9.08,14.4-2.51-3.32-1-.65-5.21-7.47-2.21-3.61-1.65-3.69-3.87-6.93Zm-274-332.61,64.87-22.94-64.87,22.94Zm64.87-22.94,37-11.58-37,11.58Zm-64.87,22.94c-16,11.26,16.07,1.06-8.57,1.44,31.55,348.13,33.67,413.36,133,583.08,1.53,2.61-43.73.21-42.18,2.86,7.76,13.29,18.44,24.91,28.16,36.29,18.46,21.62,116,27.32,144.24,6.87l3.87-57.69a12.13,12.13,0,0,0-1.88-.57l-10-2.66c10.49-4.12,5.07-.15,13.54-9.05-35.08-30.36-98.3-139.46-85.65-204,11.63-2.52,28.28,21.58,66,38.71,12.6,5.72,26.5,10,40.94,13.52l36.65,5.91c7.85-1,3.1-.51,7.77-3.55,20,10.63,62.05,5.39,89.18,4.27,65.06-2.7,51.9-14.12,69.73-17.54,9.3,26.26-6.47,127.55,42,235.3,32.22,6.76,77.63,13.13,109.71,5,18.65-4.73,23.06-16.62,32.65-30.41,34.7-49.91,25.81-38.71,21.09-42.57l3.34-4.06c.44-.47,1.27-1.4,1.76-1.92s1.31-1.31,1.84-1.84c21.48-21.7,12.78-14.2,30.93-47.63a690.47,690.47,0,0,0,30.59-63c59.71-141.3,96.51-299.23,101-460.19-17-4.4-11.87-2.74-20.07-9.47l-17.29-7.78c-21-1.31-44.42-8.44-64.48-11.33-23.31-3.35-47.65-2.38-71.24-4.07-47.15-3.37-96.78-6.22-143.3-7.46-9.22,17.29-24.12,36.52-31.38,54.45-50.47,1.72-329.94,34.43-356.87,29.47-8-14.57-21.9-17.69-16.92-55.16l-35.1-9.57c15.38-9,40.39-10.35,62.61-12.79-14.54-13.72-10.52-4.56-13.77-42.76-38.55,8.39-65.49,20.08-108.86,23.63-46.73,3.83-74.67-2.51-119.49-8.54l-9,95C116.61,1357.33,135.72,1342.87,165.71,1338.77Z"/><path class="cls-10" d="M331.54,1291.32c49.61,48.25,195.47-224.28,303.16-212,51.11,5.83,67.95-175.29,91.57-137.75,12.38,19.67,24.47,38,40,51.38,9.23,8-.44,24-2.92,38.63-2.51,14.8,2.16,28.09,11.79,32.33,45.83,20.17,135-13.35,135.75-16.73C1022.38,892.73,1100,930.72,1085.38,910.92,1014.83,815.44,931.08,733.47,927,725.09,924,717,830.89,757.27,723.85,831.8c-14.08,9.81-24,95.74-39,106.72C499,1075.18,256.47,1218.32,331.54,1291.32Z"/><path class="cls-9" d="M1044.2,115.5c-77.52,8-165.19,66.09-196.74,118.23,15.59,21.75,23.89,61.29,24.3,42.09C873.29,204.6,1061,123.24,1044.2,115.5Z"/><path class="cls-9" d="M433.62,654.67c4.22-13.11-6.22-4.8,15.46-11,21.94-6.26,31-18.94,53.11-17.36,15.67,1.12,59.32,35.54,59.66,36-20.38,16.71-39.75,36.64-63.2,34.4-26.39-2.53-40.39-32.36-65-42.09Zm279.9-150.51c-3,3.61,5.61,5.51-8.95,5.83l8.95-5.83Zm-118-14.25c-11.08-22.22-17.11-24.24-18.91-55.57,45.48,6.84,107.14,34.46,146.78,51.5-3.16,10.81-1.46,5.77-7.3,15.58.77-.59,1.85-2.67,2.19-1.95.49,1.06,7.91-9.27,12.65-9,17.66,9.22,44.69,32.18,58.21,35-3.64-19.3-33.55-37.1-52.19-43.24,6.44-46.07,22.61-83,.48-130.5-27.79-59.65-133.54-108.06-160.12,18.58-7.18,34.21-28.44,72.34-9.15,102.17.61.94,20.74,10.36,21.41,11.22,6.71,8.58.43,1,6,6.22ZM552.15,351.54c-51-37.88-5.19-73.52,7.24-94-6.69,39.64-7.11,52-7.24,94ZM320,665c3.94,11.9,44.33,25.93,46.5,28.35,2.65,2.95-29,53.22-26.35,56,42.5,44.76,86.06,71.08,105.91,93.72-9.38,53.39-26.36,49.63-15,103.36l243.26-15c17.6-37.26-4.53-54,6.12-104.06,57.41-9,111.4-5,162.14-33.35,22.94-12.79,70.77-57.5,74.12-89.35,3.31-31.41-6.88-121.92-9.61-158.74-4.15-56.1-10.65-90.12-32.55-134.41-18.5-37.41-61.9-96.81-86.24-118.39-51.25-45.42-33.4-30.54-78.79-26.87-106.61,8.61-158-72.73-207.46-115.78-33.88,6.13-55.68-3.71-81.06,27.54C381.56,226.68,375.46,236,377.28,294.7c4,4.54,15.75-6.12,29.81-6.73,14.8,4.56.64,6.64.89,7.36l35.16-15.49c.82,2.33,8.39,77.87,8.95,86.69-.45,8.46,6.25,42.74-8.77,54.32-2.3,1.78-1.28,3.53-3.91,5.24-47.71,31-148.92,51.45-184.22,86.73C239,529,272.28,570.79,272,574.32c-1.49,19.79,32.76,6.44,64.46-33.57C359.86,511.23,374.93,458,409,440.17c50.38-26.44,115.57,9.9,158,48.56,16.22,14.78,27,29.63,41.45,51.6s19.91,39.88,16.19,70.95c30.74,4.11,71.18,3.05,88.39,24.17,1.46,38.24-25.68,28.47-44.81,17.39-18.05-10.44-27.33-19.86-48.12-29.29-7.76,3.69-1.21.22-7.17,4.15-16,10.56-26.21,13-51.56,1.72C434.12,572.93,464.4,652.93,399.27,622c-8.59,16.42-50.33,50.88-77.15,38C323,654.79,310.19,635.34,320,665Z"/><path class="cls-11" d="M751.62,1067.38c23.58,9.34,19.91-18.44,12.81-20.78C750.08,1041.88,754.3,1055.44,751.62,1067.38Z"/><path class="cls-4" d="M988.12,1308.09c-11.62-6.89-24.85-6.5-36.92-9.53l-13.56-5.81,89.59-22.82-1.3,51.45-20.52-5.51c8.2,6.73,3.05,5.07,20.07,9.47-4.51,161-41.31,318.89-101,460.19a690.47,690.47,0,0,1-30.59,63c-18.15,33.43-9.45,25.93-30.93,47.63-.53.53-1.35,1.32-1.84,1.84s-1.32,1.45-1.76,1.92L856,1904c4.72,3.86,13.61-7.34-21.09,42.57-9.59,13.79-14,25.68-32.65,30.41-32.08,8.15-77.49,1.78-109.71-5-48.52-107.75-32.75-209-42-235.3-17.83,3.42-4.67,14.84-69.73,17.54-27.13,1.12-69.21,6.36-89.18-4.27-4.67,3,.08,2.51-7.77,3.55l-36.65-5.91c-14.44-3.48-28.34-7.8-40.94-13.52-37.7-17.13-54.35-41.23-66-38.71-4.77,24.36,81,54.89,94.33,62.51,5.51,38.29-4.8,101.64-8.68,141.47-8.47,8.9-3,4.93-13.54,9.05l10,2.66a12.13,12.13,0,0,1,1.88.57l-3.87,57.69c-28.24,20.45-125.78,14.75-144.24-6.87-8.34-9.77-16.46-20-24.16-30.58-5.32-7.34-10.45-14.85-15.32-22.53-27.34-43.09-51.88-90.24-74.9-138.94C114.63,1670.68,57.13,1496,80.71,1362c24.63-.39,69-12,85-23.25-30,4.1-49.1,18.56-85.36,20.14l9-95c44.82,6,72.76,12.37,119.49,8.54,43.37-3.55,70.31-15.24,108.86-23.63,3.25,38.2-.77,29,13.77,42.76-22.22,2.44-47.23,3.82-62.61,12.79l52.26-8.88c-1.86,19.86,5.05,37.24,13,51.8,26.93,5,293.14-5.94,343.61-7.66,7.26-17.93,22.16-37.16,31.38-54.45,46.52,1.24,96.15,4.09,143.3,7.46,23.59,1.69,47.93.72,71.24,4.07,20.06,2.89,43.5,10,64.48,11.33Zm-264.43-45.61c-5.86,10.58-6.37,7.06-8.59,19.32l77.56,2-69-21.34ZM595.18,1289l7.94-11.16c-58-11-91-21.14-155.76-17.25,14.58,17.2,15.52,12.1,35.57,29.78-19-7.4-42-30.24-66.8-24.71-12.78,2.85-22.49,5-32.84,11.76l15.54,15.23c-11.51-4.24-24.94-12.12-35.59-7.23l33.61,27.33c-22.29-7.54-45.41-16.41-66.47-7.66l9.29,32.52c35.08-.63,70.17-1.79,105.25-2.76l86-3c6.7-1.92,3.88-1.74,7.72-4.66,24-17.2,22.06-13.39,10.16,1.83-.32-.7-1.29,1.73-2,2.8l116.9-3.47c-5.88-27.17-3.55-31.59-26.22-39-26-8.44-20.5-10.92-42.37-.38Zm78.51,26.36c8.68-9.55,34.33-45.72,38.89-57.89l-28.68-11.18c-9.77,28.27-29.68,36.82-10.21,69.07Zm-339.58-36.84c17.67,7.26,29.94-11.62,73-22.71,111.29-28.66,222.46,25,248.3,24.34l-20.92-50c-35.74,7.33-111.33-1.74-157.61,3.13-49.33,5.2-96.9,13.26-146.87,14.64-.76,7.11-1.57,10.32-.49,18.06,1.92,13.84,2.44,8.67,4.57,12.58Zm300.17-55.9,22.86,52.77,16.78-32.57c-8.25-9.47-25.54-17.1-39.64-20.2ZM344.87,1088.9l-88.66-54.47c-65.73-33.28-156.77-54.38-218.19-2.37-32.34,27.38-32.85,56.49-21,113.46C38,1246,101.3,1264.35,187.56,1262.1c63.8-1.66,173.2-32.88,210.08-69.29a169.24,169.24,0,0,0-9.14-85.38c-11.27-29.47-26-30.42-56.16-36.43l12.53,17.9ZM683,1074.67c6.47-29.75,34.12-100.76,47.14-124,8.72,35.21,13.38,42.09,2.8,75.25-15,47-2.88,46-49.94,48.76ZM669.1,1076l-36.89,2.61c-17.59,53.69-17.28,88-5.27,141.22-36.59,5.23-97.44-3.06-142.17,1-40.18,3.61-94.29,15.28-132.73,13.48,18.52-12.17,40.26-18.86,56.09-33.83,3.67-33.71,2.14-60.77-7.45-90.83-16.52-51.75-18.81-26.67-50.57-48.85,6.93-26,18.24-82.79,32.74-99.86l336.82-19.87L669.1,1076Zm250.73-13.74c-17.22-9.06-14.78-5.28-36.22-.93C826,1073.05,764.84,1078.1,708.09,1087c-13.72,2.15-45.56-.72-68.56,3.39-12.45,45.42-11.75,68.1-6.29,115.8,25.2,10,53.42,28.74,83.42,40.36,123.92,48,279,54.78,385.68-34.94,72.33-60.86,11.68-230.36-24.73-292.23-16.21-.39-22.3,4.44-37.48,8.6,1.25-1.44-5.29-1.85,15.93-8.71,5.76-1.86,10.51-3.23,15.33-4.6-5.64-14.9-26.79-40.84-37-52.19C1018.64,845,937.78,735,923.9,725.56L898,761.35c-39.54,47.51-111.88,68.6-112,68.48-4.39-8.28-15.13,66.44-30.6,86.34,7.57-30.82,19.44-48.84,23-85.55l-56.2,4.32C717.07,872,699.19,901.21,687.77,931l50.36-.8c9.6,31.63-2.85,28.85,15,35.77l-3.66,4.09c-3.8,6.65-4.08-4.71.44,21.78,4,23.51-10,40-19,78.58l21.6-3.66c3.14-.25,7.4,1,14.26-.55l-6.92-16.5L751,1068.11c.48-19,5.62-27.53,12-37.65l14.62,35.18c24.51-2.23,103.56-9.28,117.67-22.67,8.32,2.56,10.33.12,18.06-3.69,11.63,4.63,31.85-4.75,45-9.3a216.22,216.22,0,0,0,21.06-8.31c.88-.41,9.84-4.54,10-4.57,15.81-2.68,5.27,0,9.52,2.74-4.55,10.71-1.15,7.14-16.33,13.12l-66.7,20.77c2.25,3,2.09,6.54,3.93,8.57ZM330.39,993.17c2.24,3.48,4.29,8.92,5.62,11.29l-16.12,26.87,10.79-1.32c.45-18.49-.27-20.15,18.23-18.2.47,15.88-4.12,34.32-11.23,46-12.21-2.23-16.06-2.7-25.09-11.1-18.17-2.51-53-23.58-73.35-32.46-25.93-11.34-55.93-18.9-86.93-22.62,2.37-31.7,30.55-51.27,36.23-76.86-16.68,4.17-16,9.51-22.06,21L159.83,923c.5,22.05-10.65,49.68-22.32,66.17C43.76,992,58.67,1010.32,20,1031.07c10.51-61.8,61-145.76,89.44-183.63,38.94-51.75,74-101.63,157.87-117.05,7.11,13.86,27.44,35.12,41.68,43.44,10.61,21.44,22.81,5.88,17.59,31.53,4.65-3.52,3.74-11,21.48,3.38,7.95,6.42,11.5,8.21,19,15.06-.06,38.52-7.11,58.66.9,102.55,5.27,28.83,8.32,11.65-1.71,39.7-4.92,13.74-7.59,29.23-14.3,42.7l-15.55-10.64c-6.34-5.43-1.22-1.41-6-4.94ZM702.74,648.83c-17.49,4.68-38-9-48.5-22,44.28,3.59,46.16,6.12,48.5,22Zm-375.25,2c7-19.07,26.09-34.44,50.32-39.69-7.57,18.91-29.73,40.52-50.32,39.69ZM480.83,457.28C527.2,443.84,650.12,575.65,607.45,618c-17.72,17.58-55.2-6-73.91-12.54-26.19-9.19-61.43-15.48-87.78-3.65-6.36,2.85-63.22,35.24-53.33-26.74,4.66-29.21,53.15-107.57,88.4-117.79Zm-169.76,11c8.56-1.25,43.14-17.21,57.75-22.27,41.81-14.47,67.92-8.92,72.54-26.13,5.44-20.29,3.95-66.18-4.14-87.29-11.33-29.54-34.57-43.77-65.7-25.83-45.27,26.1-66,86.6-60.45,161.52Zm-2,305.57c9.46,5.27,55.18,41.1,63,50-9.38,53.39-6.87,72.27,4.53,126l297.86-18.34c17.6-37.26,29-56.56,39.66-106.58,57.41-9,77.86-2.53,128.6-30.83,22.94-12.79,70.77-57.5,74.12-89.35,3.31-31.41-6.88-121.92-9.61-158.74-4.15-56.1-10.65-90.12-32.55-134.41-18.5-37.41-61.9-96.81-86.24-118.39-51.25-45.42-33.4-30.54-78.79-26.87-106.61,8.61-158-72.73-207.46-115.78-33.88,6.13-108.71,36.55-134.09,67.8-15,18.44-32.07,32.9-43.53,60.9-9.39,22.92-16.39,59.45-15.77,87.51,9.11-12,15.31-28.21,24.1-40.14,14.9-20.21,47.74-46.8,74.27-38.61,14.8,4.56,35.74,24.25,36,25l.07-33.1c.82,2.33,11.12,77.87,11.68,86.69,2.16,34.5-4.31,63.65-7.14,95.75C483.25,444.84,493,421.41,567,488.73c16.22,14.78,27,29.63,41.45,51.6s19.91,39.88,16.19,70.95c30.74,4.11,71.18,3.05,88.39,24.17,1.46,38.24-25.68,28.47-44.81,17.39-18.05-10.44-27.33-19.86-48.12-29.29-7.76,3.69-1.21.22-7.17,4.15-16,10.56-26.21,13-51.56,1.72-127.22-56.49-107.86,17.63-173-13.34-8.58,16.42-39.41,56.75-66.23,43.9-20.74-16.17,22-56.83,59.81-60.91-3.59-46.25,23.59-82.93,49.68-116.27,10.56-13.51,12.41-17.92,14.49-39.17l-7.73-2.28c-42.73.7-92.63,24.47-125.7,40.83v10.65l-7.16-3.93c-7.65,6.31-8.92,10.84-20.29,10.86.72-14.78,5.58-14.28,15.28-22.09l-2.09-59.88c-17.54,9.1-43.93,51.73-57.24,75.46C159,639.68,304.23,763.76,309,773.83ZM320.7,262c-31.88-14.31-161-136.79-55.74-223.65,71.7-59.17,213.9,73.46,226.89,102.69-32.9,12.37-74.37,23.12-101.62,43.48-32.46,24.26-48.4,45.1-69.53,77.48Zm455.8-26.86c-138.31,75.81-228.9-61-291.92-122.8-5.2-5.1-26.76-26.64-30.69-28.64,11.74,1.53,309.54,141.53,322.61,151.44Zm125.26,100.2c-3.51,21,18,41.12,4.27,52.65-4.65-4.75-28.27-74-34.61-88.18L841.53,236c-7.79-16.14-7.7-7.71-13.13-19.48,11.75-8,9.51-4.08,19,6.21l32.52-44.62C852.09,126.24,785.23,71.6,709.1,51.57,643.89,34.42,515.09,40,462.72,73.36c51.88,20.54,230.49,108,293.74,138.58,13.26,6.42,31.77,10,39.33,23.75-9.85,9.47-19.36,13.38-33.14,18.26,2.93,4,.58,1.89,5.29,7.13l18.16,15.23c9.49,8.53,13.62,14.3,21.67,22.72,15.93,16.65,27.88,29.85,42.53,50.3,42.1,58.77,51.87,112.78,59.31,123.33l-.21-104c10.89-7.35,33.72-14,43-21.64,75.58-61.89,41.09-139.94,54.77-175.38,10.39-26.89,25-34,40.84-50.21-28.43,2.74-105.55,29.8-129.59,43-28.23,15.47-28.83,21.91-46.6,42.25-28,32-13.28,33.07-2.87,65.65l10.79-19.67c.3-.55,1-1.6,1.55-2.39-5.07,24.1-9.56,25.59,1.36,49.3,4.72,10.26,10.71,30,19.1,35.84Zm33,34.64c41.93-15.33,77.19-67,80.2-130.45,2.12-44.62-8.73-56.61,17.16-87.21,26.57-31.42,52.21-31.76,50.31-48.46-28.83-9.55-172.35,48.66-193.32,64.71-17.08-20.11-28.12-39.67-47.24-56-17.68-15.12-35.69-30-59.38-43.82C707.41,24.94,614.22,22,527.72,40.15,511.34,43.58,453,64.22,448,64.38c-35.42,1.13-85.52-69-159.33-50.16-66.88,17.1-114,121-29.36,205.73,9.48,9.48,16,19.42,26.18,29.42,9.41,9.24,16.65,12.86,27.68,24.76-11.38,50.42-14.47,74.8-19.5,130.4-38.34,33.88-71.37,82.79-83,140-10.22,50.22-1.11,97.09,20,140.57,5.92,12.21,13.4,22.64,18.34,34.89-10.06,6.54-26.3,10.77-38.59,16.81-57,28-95.19,81.19-131.19,135.8-43.15,65.44-89.14,164.1-76.83,250.81,7.57,53.35,33.85,114.75,78.18,134.63-7.26,59.72-16.06,122.13-16,184.6.14,155,102.1,400.62,192.41,513.33,10.51,13.12,12.45,23.56,31,28.17,40,10,109.49,16,142.89-7.2,7.19-66.06,15.44-150.66,15.9-215.86,59.75,4.89,136.4,14.85,194.2-5.93,6.25,71.55,7.16,152.16,39.92,217.76,13.16,26.37,100.28,21.21,124.57,15.12,21.64-5.42,24.26-14.52,35.69-30.87,44.21-63.25,88.63-149.37,116.26-224.72,58.41-159.26,72.51-285.29,80.91-470.44,97.73-35.55,121-94.36,102.1-198.06C1111.66,906,1050.37,874.55,971.81,764.51l-35.55-42.26c-10.43-13.17-9-42.67-10.59-63.67C910.71,454.81,915.41,555.47,934.81,370Z"/><path class="cls-9" d="M352,1100.52c4.95,7.44.12-9.58,4.83,9.48l1.83,36.69c10.57,6.09,9.17-.62,17.2,6.9l-15.62,13.54c2.51-7.41-.4-3,7.61-7.85l-5.34-4.18c-.67-.61-1.72-1.29-2.39-2-5.29-5.37-5.58-6.39-5.9-18-.37-13.63-.37-20.85-2.22-34.58Zm-7.14-11.62,7.14,11.62Zm0,0-88.66-54.47c-65.73-33.28-156.77-54.38-218.19-2.37,10.58,101.6,2.93,184.07,149.54,230,63.8-1.66,173.2-32.88,210.08-69.29a169.24,169.24,0,0,0-9.14-85.38c-11.27-29.47-26-30.42-56.16-36.43Z"/><path class="cls-14" d="M531.07,1172.88l5.37,13.9c3.67,9.62,9.56,2.55,15,6-16.25,9.55-21-3.52-20.42-19.93Zm-71.94-21.46c4.57-9.74,5.72-17.64,3.23-32.07,4.26,5.94,1.21-7.5,5.55,10,3.09,12.44-2.75,17.3-8.78,22.08Zm114.47-9.06-4.5-15.63c1.21.73,2,1,2.23,2.45l5.85,10.14c7.23-4.68,1.3,1,6.2-5.16.64-.81,3.48-6.12,3.61-6.35-1.15,13.58-.73,13.43-13.39,14.55Zm-135.17.89c-4.44-23.78-1-31,21.74-26.82-4.51-3.94.13-5.28-15.25-6.34-5.92,5.8-15,12.14-12.33,23.52,3.61,15.64,2.33,5,5.84,9.64Zm50.48-41.59c-.3.73-.78,2.09-1.08,2.82-.38.92-.26,11.6-2.22,5.53-.18-.55-.7,1.84-1.57,2.67l1.72-19,17-.26-.66,19.76c-8-21.93,5.41-10.33-10.74-17l-2.48,5.49Zm84.67-89.05-6.51,15.54,6.51-15.54Zm-64-.07-4.12,26,19.38.11c-1.29,1-1.28,13.16-21.87.12-.6-7.6-2-10,.21-17.88,3.52-12.38,4-6.32,6.4-8.38Zm13.36-4.13,5.06,26.91c.17-2.19,4.64-1.41,2.71-15-1.52-10.69-5.11-9.9-7.77-11.91Zm-94.68,37c-5.93-17.28-4.86-25.26,9.55-33.46,13.67,5.72,14.16,9.39,14.26,28.1l-2.07-5.91c-.27-.94-.48-2.19-.77-3.23-4.36-15.75,0-12.85-16.58-15.36l-3.24,23.51a31.34,31.34,0,0,0,2.8,1.43l-3.95,4.92Zm121.57-22.22c.92-13.88,3.82-16.16,16.61-17.62L550.88,1021c-.16-.54-.67,1.48-1.09,2.17Zm-40.25-10.65,13.36-4.13c-1.26-1.72,4.14-5.2-6-2.46-13.11,3.54-3.88,1.34-7.31,6.59Zm210.13-71.48L382.85,960.93c-14.5,17.07-25.81,73.91-32.74,99.86,31.76,22.18,34.05-2.9,50.57,48.85,9.59,30.06,11.12,57.12,7.45,90.83-15.83,15-37.57,21.66-56.09,33.83,38.44,1.8,92.55-9.87,132.73-13.48,44.73-4,69.31,5.54,105.9.31-12-53.22,16.15-86.69,33.74-140.38L669.1,1076Z"/><path class="cls-15" d="M320.7,262c21.13-32.38,37.07-53.22,69.53-77.48,27.25-20.36,68.72-31.11,101.62-43.48C478.86,111.83,336.66-20.8,265,38.37,159.72,125.23,288.82,247.71,320.7,262Z"/><path class="cls-13" d="M459.32,543.54c-6.89,13.62-24.21,36.38-43.85,27.55-18.15-14.83,26.09-54.34,50.81-54.55,2.63,15,.84,17-7,27Zm21.51-86.26c-35.25,10.22-83.74,88.58-88.4,117.79-9.89,62,47,29.59,53.33,26.74,26.35-11.83,61.59-5.54,87.78,3.65,18.71,6.57,56.19,30.12,73.91,12.54C650.12,575.65,527.2,443.84,480.83,457.28Z"/><path class="cls-12" d="M776.5,235.16C763.43,225.25,465.63,85.25,453.89,83.72c3.93,2,25.49,23.54,30.69,28.64C547.6,174.2,638.19,311,776.5,235.16Z"/><path class="cls-11" d="M334.11,1278.48c17.67,7.26,29.94-11.62,73-22.71,111.29-28.66,222.46,25,248.3,24.34l-20.92-50c-35.74,7.33-111.33-1.74-157.61,3.13-49.33,5.2-96.9,13.26-146.87,14.64-.76,7.11-1.57,10.32-.49,18.06C331.46,1279.74,332,1274.57,334.11,1278.48Z"/><path class="cls-4" d="M727.18,474.17c-21.11-5.95-46.63-19.77-70.44-28-25.57-8.81-48.8-14.62-74.46-23.76-1.2-68.9,25.64-144.64,99.25-110.68,60.68,28,61.43,86.57,45.65,162.42ZM595.47,489.91c-11.08-22.22-17.11-24.24-18.91-55.57,45.48,6.84,107.14,34.46,146.78,51.5-3.16,10.81-1.46,5.77-7.3,15.58.77-.59,1.85-2.67,2.19-1.95.49,1.06,7.91-9.27,12.65-9,17.66,9.22,44.69,32.18,58.21,35-3.64-19.3-33.55-37.1-52.19-43.24,6.44-46.07,22.61-83,.48-130.5-27.79-59.65-133.54-108.06-160.12,18.58-7.18,34.21-10.11,79.05,9.18,108.88.61.94,2.41,3.65,3.08,4.51C596.23,492.27,590,484.68,595.47,489.91Z"/><path class="cls-16" d="M509.48,1308.15c-48.13-4.08-82.25-.71-110.75-15.46l-11.11-7.58c-11.51-4.24-13.73-4.62-24.38.27,16.07,34,91.58,37.93,129.8,34.63,14.66-1.27,23.83-2,22.08-4.84A20.53,20.53,0,0,0,509.48,1308.15Z"/><path class="cls-11" d="M595.18,1289l-14.61,11.39L566,1311.79l-10,8-7.16,9.15c-.32-.7-1.29,1.73-2,2.8l116.9-3.47c-5.88-27.17-3.55-31.59-26.22-39C611.59,1280.9,617.05,1278.42,595.18,1289Z"/><path class="cls-11" d="M683,1074.67c47.06-2.77,34.94-1.78,49.94-48.76,10.58-33.16,5.92-40-2.8-75.25C717.14,973.91,689.49,1044.92,683,1074.67Z"/><path class="cls-13" d="M387.62,1285.11l11.11,7.58c29.14,12.86,15.44,10.1,97.28,11.57l-15.19-15.35-28.5-19.34c-19-7.4-11.42-9.48-36.19-4-12.78,2.85-22.49,5-32.84,11.76Z"/><path class="cls-11" d="M673.69,1315.32c8.68-9.55,34.33-45.72,38.89-57.89l-28.68-11.18C674.13,1274.52,654.22,1283.07,673.69,1315.32Z"/><path class="cls-4" d="M433.62,654.67c24.64,9.73,42.15-19.15,68.54-16.62,23.45,2.24,39.31,41,59.69,24.31-.34-.49-44-34.91-59.66-36-22.08-1.58-31.17,11.1-53.11,17.36C427.4,649.87,437.84,641.56,433.62,654.67Z"/><path class="cls-3" d="M319.89,1031.33,319,1042.9l-6.38,3.79c9,8.4,12.88,8.87,25.09,11.1,7.11-11.66,11.7-30.1,11.23-46-18.5-1.95-17.78-.29-18.23,18.2Z"/><path class="cls-16" d="M414.65,563.35c2.44-5.18,5.94-11.94,8.24-16.9,4.28-9.21,9.82-10,16.58-15.73,5.19-4.37,5.92-4.06,19.15-9.49,2.78,1.66,4.54-4.53,5.69-2.08,6.06,12.9-3.58,23-18.44,41.31-2.69,3.31-9.26,7.87-12.52,9C424,572.75,416.06,576.53,414.65,563.35Z"/><path class="cls-4" d="M459.32,543.54c-11.23,11.63-17.54,24.46-40.82,27.12,5.18-21.39,26.79-40,46.13-46.27Zm0,0c7.8-10,9.59-12,7-27-24.72.21-69,39.72-50.81,54.55C435.11,579.92,452.43,557.16,459.32,543.54Z"/><path class="cls-17" d="M716.33,337.58c-4.12-4.91-11.11-14.79-31.4-26.08-18.06-10.06-56.69-13.68-73.33,7.55-14,14.74-32.77,44.8-28.68,102.74.5,7,27.54,5.94,72.22,24.21l72.4,29.61c7.28,3,21.55-52.9,9.19-70.52C685.27,484.44,668.59,355.93,716.33,337.58Z"/><path class="cls-11" d="M673.92,1242.78c-8.25-9.47-25.54-17.1-39.64-20.2l22.86,52.77Z"/><path class="cls-17" d="M440.53,342.19c-4.12-4.91-6.83-35.49-29-41.6-8.25-2.27-22.92-1.6-37.55,5.1-7.64,3.5-12.72,10.86-22.33,14.62C294.1,389.36,310.22,450,311.51,467.92c.34,4.63,1.77,1.64,8.48-.95,14.75-5.69,43.41-20,55.94-22.65,20.06-4.19,48.31-5.86,63.82-19.87,10.08-9.12,3.93-12.08,4.89-31.52C393.18,472.28,378,339.58,440.53,342.19Z"/><path class="cls-10" d="M76,1359.11c4.3-.33,14.67,1.69,33.05-4.3,42.13-13.72,102.4-28.66,145-46.06,34.11-13.94,99.17-14.34,74.41-24.28-2.94-1.18-7.33-1.22-6.75-2.79-3.76.81,3.18-39.23-2.52-39.08-28.29.76-80.33,22.17-128.26,28.33-35.11,4.52-62-7.16-93-7.82-2,0-5.72-2.93-7.06-1.19C75.57,1281.61,77.59,1354.67,76,1359.11Z"/><path class="cls-7" d="M254.64,1267.11l28.66,19.24,17.47,11.57,20.49-.08c-2.17-2.35,5.49-4.35,9.43-5.86l3.74-2.68-.8-3.1-12.79-4.37,1.31-38.84c-31.82-.53-67.56,16.19-82.64,17.56C253.3,1276.83,235.4,1254.07,254.64,1267.11Z"/><path class="cls-4" d="M597.91,394c23,6.83,32.73-11.24,22.2-23.62C607.63,355.66,590.7,366.72,597.91,394Z"/><path class="cls-4" d="M388.38,373.12l5.05,20.28c19.17,1.17,23.81-3.82,22.4-23.48C405.58,362.71,398.15,359.7,388.38,373.12Z"/><path class="cls-8" d="M702.74,648.83c-2.34-15.83-4.22-18.36-48.5-22C664.7,639.86,685.25,653.51,702.74,648.83Z"/><path class="cls-4" d="M527,1319.72l-17.47-11.57c.93.76,3.66,6.39,5.1,7.71-66,2.63-72.66,10.25-139.63-16.09C406,1331.1,486.91,1319.42,527,1319.72Z"/><path class="cls-4" d="M734.43,1950.44c4.48,9.19-2.65,3.61,7.17,7,5.58-8.24,3.9-5.48,6.27-15.78.9-3.92,1-6.72,2-9.6,8.68-24.79,58.25,8.52,87.74-16.68-57.11,13.75-62.88-4.71-89.46,8.76l-6,30.19C738.83,1951.88,736.57,1952.81,734.43,1950.44Z"/><path class="cls-4" d="M387.42,1285.15c12.62,21.24,62.76,19.09,122.06,23l-28.66-19.24L496,1304.26C454.83,1301.85,424,1310.17,387.42,1285.15Z"/><path class="cls-4" d="M316.29,827.17l-9.7,28.1c-5.28,29.58-7.07,75.41,6.27,99.58C303.61,859,299.12,927.64,316.29,827.17Z"/><path class="cls-4" d="M552.15,351.54c.13-42,.55-54.39,7.24-94C547,278,544.77,334.63,552.15,351.54Z"/><path class="cls-4" d="M319.88,1945.72c5.7,13.4,2.36,8,10.65,11.69,5.31-11.84,3.14-14.43,2.45-27.87,25.18,2.85,49.14,2.87,65.51-10.65-25.49,6.52-37.27,13.87-67.34,6l-.76,28.57-8.44-5.9C321.64,1946.35,320.56,1946.34,319.88,1945.72Z"/><path class="cls-4" d="M352,1100.52c1.85,13.73,1.85,21,2.22,34.58.32,11.64.61,12.66,5.9,18,.67.68,1.72,1.36,2.39,2l5.34,4.18c-8,4.81-5.1.44-7.61,7.85l15.62-13.54c-8-7.52-6.63-.81-17.2-6.9L356.84,1110C352.13,1090.94,357,1108,352,1100.52Z"/><path class="cls-4" d="M428.22,1045.41l3.95-4.92a31.34,31.34,0,0,1-2.8-1.43l3.24-23.51c16.54,2.51,12.22-.39,16.58,15.36.29,1,.5,2.29.77,3.23l2.07,5.91c-.1-18.71-.59-22.38-14.26-28.1C423.36,1020.15,422.29,1028.13,428.22,1045.41Z"/><path class="cls-4" d="M509.54,1012.54c-2.41,2.06-2.88-4-6.4,8.38-2.24,7.88-.81,10.28-.21,17.88,20.59,13,20.58.93,21.87-.12l-19.38-.11Z"/><path class="cls-4" d="M438.43,1143.25c-4.44-23.78-1-31,21.74-26.82-4.51-3.94.13-5.28-15.25-6.34-5.92,5.8-15,12.14-12.33,23.52C436.2,1149.25,434.92,1138.61,438.43,1143.25Z"/><path class="cls-4" d="M934.61,1104.35c15.25-18.9,10.44-32.47-14.78-42l18.43,13.82Z"/><path class="cls-4" d="M484,1112.68c.87-.83,1.39-3.22,1.57-2.67,2,6.07,1.84-4.61,2.22-5.53.3-.73.78-2.09,1.08-2.82l2.48-5.49c16.15,6.72,2.75-4.88,10.74,17l.66-19.76-17,.26Z"/><path class="cls-4" d="M666.53,1150.47c-7.09,12.53-5.95,12.68-22.74,14.72L657,1179.75c0-.39.1-1.43.07-1.16l-2.9-8.84C662.13,1163.19,664.76,1163.66,666.53,1150.47Z"/><path class="cls-4" d="M459.13,1151.42c6-4.78,11.87-9.64,8.78-22.08-4.34-17.49-1.29-4-5.55-10C464.85,1133.78,463.7,1141.68,459.13,1151.42Z"/><path class="cls-4" d="M522.9,1008.41l5.06,26.91c.17-2.19,4.64-1.41,2.71-15C529.15,1009.63,525.56,1010.42,522.9,1008.41Z"/><path class="cls-4" d="M551.49,1192.81c-5.49-3.48-11.38,3.59-15-6l-5.37-13.9C530.48,1189.29,535.24,1202.36,551.49,1192.81Z"/><path class="cls-4" d="M583.38,1134.16c-4.9,6.19,1,.48-6.2,5.16l-5.85-10.14c-.24-1.43-1-1.72-2.23-2.45l4.5,15.63c12.66-1.12,12.24-1,13.39-14.55C586.86,1128,584,1133.35,583.38,1134.16Z"/><path class="cls-4" d="M549.79,1023.19c.42-.69.93-2.71,1.09-2.17l15.52-15.45C553.61,1007,550.71,1009.31,549.79,1023.19Z"/><path class="cls-4" d="M765.78,993c-.92-2.14-2.69-8-3.85-10.21L746.82,970.9c5.24,15.39,14.32,10.32,8.64,22.89Z"/><path class="cls-4" d="M998.76,950.59,1024.82,937c-6.78.42-7.72-1.94-20.26,8.06A34.16,34.16,0,0,0,998.76,950.59Z"/><path class="cls-4" d="M666.53,1150.47l10.75-33.79C670.73,1125.08,667.77,1135.29,666.53,1150.47Z"/><path class="cls-4" d="M677.28,1116.68l5.51-6.29c1.9-2.24,2.12-2.93,5.08-6l11.4-12.17C687.62,1100.09,683.05,1103.31,677.28,1116.68Z"/><path class="cls-4" d="M509.54,1012.54l13.36-4.13c-1.26-1.72,4.14-5.2-6-2.46C503.74,1009.49,513,1007.29,509.54,1012.54Z"/><path class="cls-4" d="M312.59,1046.69l6.38-3.79.92-11.57c-3.16,3.45-1.09-.92-4.77,6.22C313.66,1040.39,313.35,1043.63,312.59,1046.69Z"/><path class="cls-4" d="M312.53,1934.74c-7.09-5.29,9.26-.45-9.22-5.1-14.89-3.74-3.6-.81-8.06,1.28Z"/><path class="cls-4" d="M527.61,527.51c2.75,3.67,2.16,3.38,6.9,7.87,3.49,3.31,6,5.18,10.51,8.76C539.56,535.08,538,533.87,527.61,527.51Z"/><path class="cls-4" d="M734.43,1950.44c-2.45-8.21-5.89-21.57-12.89-25.45Z"/><path class="cls-4" d="M920.85,205.09c-13.83,7.29-12.64,6.39-18.71,16.12Z"/><path class="cls-4" d="M883.94,244.12c2.66-2.74,3-2.6,6-6.56,1.22-1.65,4.54-7.21,6.19-9.89-4.26,3.31-3,.88-6.55,5.62C886.48,237.39,886.38,238.38,883.94,244.12Z"/><path class="cls-4" d="M924.08,1024c5.67-4.91-1.52,3.28,5.74-5.59.12-.14,4.65-6.72,5.73-8.24C930.63,1013,931.28,1008.81,924.08,1024Z"/><path class="cls-4" d="M439.75,1671.38c2.22,3.24,1.66,3.32,3.87,6.93,4.19,6.82,2.7,4.15,5.21,7.47C445.53,1675,447.4,1674.12,439.75,1671.38Z"/><path class="cls-4" d="M977.49,966c-15.39,8.27-8.86,3.89-12.56,12.51Z"/><path class="cls-4" d="M704.57,510c14.56-.32,5.95-2.22,8.95-5.83Z"/><path class="cls-4" d="M319.46,501c2.45,2.26-1.1,2.65,5.71,4.6,5.09,1.46,1.89.4,4.43-.83Z"/><path class="cls-4" d="M934.61,1104.35c-1,1.33-2.87,2.52-4.33,6.53-2.79,7.63-1,3-.54,7.11Z"/><path class="cls-4" d="M765.78,993,763,1030.73C771,1031.64,781.22,997.68,765.78,993Z"/><path class="cls-4" d="M319.46,501c-3.19-7.77-2.65-5.47-6.79-8.17Z"/><path class="cls-4" d="M884.59,1027.6l-4.08-7C884.19,1033.16,880.23,1023,884.59,1027.6Z"/><path class="cls-4" d="M427.12,466.49l7-12.12Z"/><path class="cls-4" d="M420,478.32l7.08-11.83Z"/><path class="cls-4" d="M420,478.32l-6.67,9.07Z"/><path class="cls-4" d="M920.85,205.09l16.88-11.82Z"/><path class="cls-4" d="M984.39,165.73l11.18-4.25Z"/><path class="cls-4" d="M316.29,827.17l8-15.55Z"/><path class="cls-4" d="M744,935.47l9.49-12.35Z"/><path class="cls-4" d="M977.49,966l21.27-15.36Z"/><path class="cls-4" d="M330.39,993.17,324.07,980Z"/><path class="cls-4" d="M567.07,1028.15l6.51-15.54Z"/><path class="cls-4" d="M913.33,1039.28,924.08,1024Z"/><path class="cls-4" d="M895.27,1043l-10.68-15.37Z"/><path class="cls-4" d="M352,1100.52l-7.14-11.62Z"/><path class="cls-4" d="M913.31,328,925,320.85Z"/><path class="cls-4" d="M901.76,335.36,913.31,328Z"/><path class="cls-4" d="M480.82,1288.91l-28.5-19.34Z"/><path class="cls-4" d="M398.73,1292.69l-11.11-7.58Z"/><path class="cls-4" d="M580.57,1300.35,595.18,1289Z"/><path class="cls-4" d="M376.86,1300.44l11.67,8.64Z"/><path class="cls-4" d="M566,1311.79l14.6-11.44Z"/><path class="cls-4" d="M230.58,1315.83l37-9.91Z"/><path class="cls-4" d="M1005.41,1315.87l-17.29-7.78Z"/><path class="cls-4" d="M556,1319.82l10-8Z"/><path class="cls-4" d="M538.67,1327.14,527,1319.72Z"/><path class="cls-4" d="M165.71,1338.77l64.87-22.94Z"/><path class="cls-4" d="M952.5,285.78,940.62,301Z"/><path class="cls-4" d="M459,1704.46,451.1,1692Z"/><path class="cls-4" d="M466.33,1715.75,459,1704.46Z"/><path class="cls-4" d="M477,1731.18l-10.65-15.43Z"/><path class="cls-4" d="M491.59,1750,477,1731.18Z"/><path class="cls-4" d="M952.5,285.78l7.26-11.5Z"/><path class="cls-4" d="M837.58,1915.4,856,1904Z"/><path class="cls-4" d="M959.76,274.28,967.32,262Z"/><path class="cls-4" d="M319.88,1945.72l-7.35-11Z"/><path class="cls-8" d="M443.72,1536.31c-10.78-11.3-40.63-53.48-46.41-73.59-7.36-25.62,9.65-35.26,27.44-21.87,11.89,9,13.19,19,17.89,28.26,3,6,2.09,3.67,4.72,6.67,7.72-16.08,15.75-46,40.32-31.76C501.4,1477.57,456.82,1524.55,443.72,1536.31Z"/><path class="cls-13" d="M401.57,1437.44c47.91-12.63,42,47.75,45.67,33.64,8.6-33,31.71-32.26,36.95-30.65,21.37,24.63-5.1,61.07-39.07,101.09-22.71-31.81-38.92-49.43-42.26-60.18C397.9,1465.43,388.54,1461.19,401.57,1437.44Z"/><path class="cls-4" d="M444.37,1534.23c12.88-11.2,56.67-55.94,43.19-87.9-24.13-13.53-32,14.94-39.61,30.25-2.58-2.85-1.66-.68-4.63-6.35-4.61-8.82-5.89-18.39-17.57-26.91-17.48-12.75-34.19-3.57-27,20.83,5.67,19.15,35,59.32,45.58,70.08Zm0,11.07c-12.25-13.23-42.22-58.07-49.44-76.66-16.3-42,29.27-52.07,50.66-7.64,10.21-12.83,20.85-27.82,44.58-21.5C508,1476.36,471.42,1516.62,444.37,1545.3Z"/><path class="cls-4" d="M496.59,542.1l1.65-17.21c6.06-4.07-6.8-1.56,7.63-3.85,7.82-1.24,10.93,2,18.25,5.32-1.68-1.8-1.84-3.36-7.08-6.29C503.36,512.41,486.74,521.41,496.59,542.1Z"/><path class="cls-4" d="M526.39,525.87c4.82,16,18.83,32.17,15.93,53.22.4-.53,16.52,4.87,15-18.76C556.54,552.06,530.4,530.69,526.39,525.87Z"/><path class="cls-4" d="M496.59,542.1c2.35,16.2,10.68,23.82,21.47,30.54l-12.53-13.59C501.91,554,499.57,547.14,496.59,542.1Z"/><path class="cls-4" d="M521.54,574.78c7,6.91,6.12,6.37,18.05,5Z"/><path class="cls-4" d="M536.53,542l-7.17-9.75Z"/><path class="cls-16" d="M525.23,527.39c-5.2-4.37-5.24-4.11-18.47-9.55-2.78,1.66-5.7,1.6-7.33,3.71-11.23,14.47,3.42,39.79,19.49,51.82C555.87,601,548.31,546.77,525.23,527.39Z"/><path class="cls-4" d="M496.59,542.1c1.57-16.39-2.24-19.23,9.28-21.06,7.82-1.24,10.93,2,18.25,5.32-1.68-1.8-1.84-3.36-7.08-6.29C503.36,512.41,486.74,521.41,496.59,542.1Z"/><path class="cls-4" d="M496.59,542.1c2.35,16.2,10.68,23.82,21.47,30.54l-12.53-13.59C501.91,554,499.57,547.14,496.59,542.1Z"/><path class="cls-4" d="M521.54,574.78c7,6.91,6.12,6.37,18.05,5Z"/><path class="cls-4" d="M536.53,542l-7.17-9.75Z"/><path class="cls-3" d="M749.14,991.43c4.33,21.1-9.23,40.8-18.19,79.41l21.6-3.66c17-1.32,16,3.52,7.35-17l-7.78,13.15c.48-19,4.45-22.29,10.86-32.41,7.53-10.87,7.77-25.7,3.26-36.75-5.09-12.49-15.64-20.62-17.54-21.42C736.65,967.6,745.75,974.86,749.14,991.43Z"/><path class="cls-18" d="M330.39,993.17,324.07,980l6.32,13.14Zm-14.1-166c-17.17,100.47-12.68,31.79-3.43,127.68-13.34-24.17-16.42-73.15-11.15-102.72Zm0,0,8-15.55-8,15.55Zm-14.42,198.64c3.68-7.14,5.5-6.12,8.66-9.57L336,1004.46c-1.33-2.37-3.38-7.81-5.62-11.29,4.82,3.53-.3-.49,6,4.94l-.83-4c6.71-13.47,6.26-18.89,11.18-32.63-20.37-60.54-27.69-42-16.74-102-34,6.69-78.26-43.37-62.69-129.06-83.87,15.42-118.93,65.3-157.87,117.05C81,885.31,30.55,969.27,20,1031.07c38.63-20.75-4.36-18.75,74.77-33.06,11.67-16.5,34.71-68.24,55.66-88.4l13.09-2.34c6-11.52,8.3,11.65,25,7.48-5.68,25.59-33.86,45.16-36.23,76.86,31,3.72,61,11.28,86.93,22.62C257.11,1022,290.92,1047,301.87,1025.81Z"/><path class="cls-8" d="M683,1074.67c47.06-2.77,34.94-1.78,49.94-48.76,10.58-33.16,5.92-40-2.8-75.25C717.14,973.91,689.49,1044.92,683,1074.67Z"/><path class="cls-4" d="M433.62,654.67c24.64,9.73,42.15-19.15,68.54-16.62,23.45,2.24,39.31,41,59.69,24.31-.34-.49-44-34.91-59.66-36-22.08-1.58-31.17,11.1-53.11,17.36C427.4,649.87,437.84,641.56,433.62,654.67Z"/><path class="cls-8" d="M319.89,1031.33,319,1042.9l-6.38,3.79c9,8.4,12.88,8.87,25.09,11.1,7.11-11.66,11.7-30.1,11.23-46-18.5-1.95-17.78-.29-18.23,18.2Z"/><path class="cls-8" d="M327.49,650.83c20.59.83,42.75-20.78,50.32-39.69C353.58,616.39,334.47,631.76,327.49,650.83Z"/><path class="cls-8" d="M702.74,648.83c-2.34-15.83-4.22-18.36-48.5-22C664.7,639.86,685.25,653.51,702.74,648.83Z"/><path class="cls-4" d="M316.29,827.17l-9.7,28.1c-5.28,29.58-7.07,75.41,6.27,99.58C303.61,859,299.12,927.64,316.29,827.17Z"/><path class="cls-4" d="M428.22,1045.41l3.95-4.92a31.34,31.34,0,0,1-2.8-1.43l3.24-23.51c16.54,2.51,12.22-.39,16.58,15.36.29,1,.5,2.29.77,3.23l2.07,5.91c-.1-18.71-.59-22.38-14.26-28.1C423.36,1020.15,422.29,1028.13,428.22,1045.41Z"/><path class="cls-4" d="M509.54,1012.54c-2.41,2.06-2.88-4-6.4,8.38-2.24,7.88-.81,10.28-.21,17.88,20.59,13,20.58.93,21.87-.12l-19.38-.11Z"/><path class="cls-4" d="M934.61,1104.35c15.25-18.9,10.44-32.47-14.78-42l18.43,13.82Z"/><path class="cls-4" d="M484,1112.68c.87-.83,1.39-3.22,1.57-2.67,2,6.07,1.84-4.61,2.22-5.53.3-.73.78-2.09,1.08-2.82l2.48-5.49c16.15,6.72,2.75-4.88,10.74,17l.66-19.76-17,.26Z"/><path class="cls-4" d="M522.9,1008.41l5.06,26.91c.17-2.19,4.64-1.41,2.71-15C529.15,1009.63,525.56,1010.42,522.9,1008.41Z"/><path class="cls-4" d="M559.71,578c-23.49,1.46-20.27-1.47-35.84-12C532.32,579,546.58,587.42,559.71,578Z"/><path class="cls-4" d="M549.79,1023.19c.42-.69.93-2.71,1.09-2.17l15.52-15.45C553.61,1007,550.71,1009.31,549.79,1023.19Z"/><path class="cls-4" d="M998.76,950.59,1024.82,937c-6.78.42-7.72-1.94-20.26,8.06A34.16,34.16,0,0,0,998.76,950.59Z"/><path class="cls-4" d="M677.28,1116.68l5.51-6.29c1.9-2.24,2.12-2.93,5.08-6l11.4-12.17C687.62,1100.09,683.05,1103.31,677.28,1116.68Z"/><path class="cls-4" d="M509.54,1012.54l13.36-4.13c-1.26-1.72,4.14-5.2-6-2.46C503.74,1009.49,513,1007.29,509.54,1012.54Z"/><path class="cls-4" d="M312.59,1046.69l6.38-3.79.92-11.57c-3.16,3.45-1.09-.92-4.77,6.22C313.66,1040.39,313.35,1043.63,312.59,1046.69Z"/><path class="cls-4" d="M924.08,1024c5.67-4.91-1.52,3.28,5.74-5.59.12-.14,4.65-6.72,5.73-8.24C930.63,1013,931.28,1008.81,924.08,1024Z"/><path class="cls-4" d="M977.49,966c-15.39,8.27-8.86,3.89-12.56,12.51Z"/><path class="cls-4" d="M934.61,1104.35c-1,1.33-2.87,2.52-4.33,6.53-2.79,7.63-1,3-.54,7.11Z"/><path class="cls-4" d="M765.78,993l6,7.67C770.35,988.65,770.1,996.21,765.78,993Z"/><path class="cls-4" d="M884.59,1027.6l-4.08-7C884.19,1033.16,880.23,1023,884.59,1027.6Z"/><path class="cls-4" d="M316.29,827.17l8-15.55Z"/><path class="cls-4" d="M744,935.47l9.49-12.35Z"/><path class="cls-4" d="M977.49,966l21.27-15.36Z"/><path class="cls-4" d="M330.39,993.17,324.07,980Z"/><path class="cls-4" d="M567.07,1028.15l6.51-15.54Z"/><path class="cls-4" d="M913.33,1039.28,924.08,1024Z"/><path class="cls-4" d="M895.27,1043l-10.68-15.37Z"/><path class="cls-4" d="M352,1100.52l-7.14-11.62Z"/><path class="cls-11" d="M751.62,1067.38c23.58,9.34,19.91-18.44,12.81-20.78C750.08,1041.88,754.3,1055.44,751.62,1067.38Z"/><path class="cls-11" d="M683,1074.67c47.06-2.77,34.94-1.78,49.94-48.76,10.58-33.16,5.92-40-2.8-75.25C717.14,973.91,689.49,1044.92,683,1074.67Z"/><path class="cls-4" d="M433.62,654.67c24.64,9.73,42.15-19.15,68.54-16.62,23.45,2.24,39.31,41,59.69,24.31-.34-.49-44-34.91-59.66-36-22.08-1.58-31.17,11.1-53.11,17.36C427.4,649.87,437.84,641.56,433.62,654.67Z"/><path class="cls-3" d="M319.89,1031.33,319,1042.9l-6.38,3.79c9,8.4,12.88,8.87,25.09,11.1,7.11-11.66,11.7-30.1,11.23-46-18.5-1.95-17.78-.29-18.23,18.2Z"/><path class="cls-8" d="M702.74,648.83c-2.34-15.83-4.22-18.36-48.5-22C664.7,639.86,685.25,653.51,702.74,648.83Z"/><path class="cls-4" d="M316.29,827.17l-9.7,28.1c-5.28,29.58-7.07,75.41,6.27,99.58C303.61,859,299.12,927.64,316.29,827.17Z"/><path class="cls-4" d="M428.22,1045.41l3.95-4.92a31.34,31.34,0,0,1-2.8-1.43l3.24-23.51c16.54,2.51,12.22-.39,16.58,15.36.29,1,.5,2.29.77,3.23l2.07,5.91c-.1-18.71-.59-22.38-14.26-28.1C423.36,1020.15,422.29,1028.13,428.22,1045.41Z"/><path class="cls-4" d="M509.54,1012.54c-2.41,2.06-2.88-4-6.4,8.38-2.24,7.88-.81,10.28-.21,17.88,20.59,13,20.58.93,21.87-.12l-19.38-.11Z"/><path class="cls-4" d="M934.61,1104.35c15.25-18.9,10.44-32.47-14.78-42l18.43,13.82Z"/><path class="cls-4" d="M484,1112.68c.87-.83,1.39-3.22,1.57-2.67,2,6.07,1.84-4.61,2.22-5.53.3-.73.78-2.09,1.08-2.82l2.48-5.49c16.15,6.72,2.75-4.88,10.74,17l.66-19.76-17,.26Z"/><path class="cls-4" d="M522.9,1008.41l5.06,26.91c.17-2.19,4.64-1.41,2.71-15C529.15,1009.63,525.56,1010.42,522.9,1008.41Z"/><path class="cls-4" d="M549.79,1023.19c.42-.69.93-2.71,1.09-2.17l15.52-15.45C553.61,1007,550.71,1009.31,549.79,1023.19Z"/><path class="cls-4" d="M765.78,993c-.92-2.14-2.69-8-3.85-10.21L746.82,970.9c5.24,15.39,14.32,10.32,8.64,22.89Z"/><path class="cls-4" d="M998.76,950.59,1024.82,937c-6.78.42-7.72-1.94-20.26,8.06A34.16,34.16,0,0,0,998.76,950.59Z"/><path class="cls-4" d="M677.28,1116.68l5.51-6.29c1.9-2.24,2.12-2.93,5.08-6l11.4-12.17C687.62,1100.09,683.05,1103.31,677.28,1116.68Z"/><path class="cls-4" d="M509.54,1012.54l13.36-4.13c-1.26-1.72,4.14-5.2-6-2.46C503.74,1009.49,513,1007.29,509.54,1012.54Z"/><path class="cls-4" d="M312.59,1046.69l6.38-3.79.92-11.57c-3.16,3.45-1.09-.92-4.77,6.22C313.66,1040.39,313.35,1043.63,312.59,1046.69Z"/><path class="cls-4" d="M924.08,1024c5.67-4.91-1.52,3.28,5.74-5.59.12-.14,4.65-6.72,5.73-8.24C930.63,1013,931.28,1008.81,924.08,1024Z"/><path class="cls-4" d="M977.49,966c-15.39,8.27-8.86,3.89-12.56,12.51Z"/><path class="cls-4" d="M934.61,1104.35c-1,1.33-2.87,2.52-4.33,6.53-2.79,7.63-1,3-.54,7.11Z"/><path class="cls-4" d="M765.78,993,763,1030.73C771,1031.64,781.22,997.68,765.78,993Z"/><path class="cls-4" d="M884.59,1027.6l-4.08-7C884.19,1033.16,880.23,1023,884.59,1027.6Z"/><path class="cls-4" d="M316.29,827.17l8-15.55Z"/><path class="cls-4" d="M744,935.47l9.49-12.35Z"/><path class="cls-4" d="M977.49,966l21.27-15.36Z"/><path class="cls-4" d="M330.39,993.17,324.07,980Z"/><path class="cls-4" d="M567.07,1028.15l6.51-15.54Z"/><path class="cls-4" d="M913.33,1039.28,924.08,1024Z"/><path class="cls-4" d="M895.27,1043l-10.68-15.37Z"/><path class="cls-4" d="M352,1100.52l-7.14-11.62Z"/><path class="cls-4" d="M521.54,574.78c7,6.91,6.12,6.37,18.05,5Z"/><path class="cls-4" d="M521.54,574.78c7,6.91,6.12,6.37,18.05,5Z"/><path class="cls-2" d="M915.82,1039.45c17,1,22.86,1.15,77.63-23.18-8.91-26.45-6.16-14.47-14.89-49.67C966.7,987.56,964.93,977.88,915.82,1039.45Z"/><path class="cls-19" d="M563.91,818.47c39.77,11.25,86.15,13.64,121.87-11.66,19.49-13.81,3.09-3.69,23.87-15.69h0l-9,11.69c-37,42.93-91.14,45.71-141.64,34.76-4.91-1.46-7.78-6.91-6.43-12.19S559,817,563.91,818.47Z"/><path class="cls-19" d="M498.88,327.49c-3.39,16.24-12.65,63.7-18.42,72.83l-4.79,5c-9.42-12.08-9.28-30.2-10.49-45.35-1.64-20.51-3.42-31,1.1-50.69C471.66,300,483,297.17,491.66,303,499.46,308.19,502.36,318.67,498.88,327.49Z"/><path class="cls-19" d="M865.46,553.65c15.52,54.68,14.32,99.54-20.69,145.43-9.55,12.53-27.91,30.7-41.31,37.28l-14.26,4.43c14.46-22.47,1.56-3.42,20-27.29,36.22-47,44.37-87.68,22.32-144.52-3.93-10.1.48-21.71,9.87-25.94S861.53,543.56,865.46,553.65Z"/><path class="cls-19" d="M826.34,396.93c-7.6,26.38-2.2,13.41-16.86,38.58-18.74-24.27-12.57-11.13-20-38.58,0-10.94,8.25-19.81,18.43-19.81S826.34,386,826.34,396.93Z"/><path class="cls-19" d="M1102.43,1051.11c-5.9,106.3-75.41,152.31-168.3,158-19.42,1.19-39.2,1.61-57.58-5.37,12-4.61,6.53-3.18,18.77-5.34,83.32-14.74,170.95-36.63,170.27-147.31,0-10.94,8.25-19.81,18.42-19.81S1102.43,1040.17,1102.43,1051.11Z"/><path class="cls-19" d="M971.41,1371.5c-5.86,130.22-91.73,323.31-137.44,450.16l-4.22,11.12c-2.47-21.16.82-31.22,5.7-51.22,29.51-121.06,98.34-288.93,99.11-410.06,0-11,8.25-19.82,18.42-19.82S971.41,1360.55,971.41,1371.5Z"/><path class="cls-19" d="M568.94,1692.94c65.39-17.25,80.63-34.36,110.27-99.88,10.6-23.46,3.59-10.35,18-33.7,0,23.07,1.3,17.75-3.32,39.21-16.8,78-47.13,107.2-114.91,132.51-9.8,3-20-3.17-22.73-13.7S559.15,1695.91,568.94,1692.94Z"/><path class="cls-19" d="M277,1833.17c-13.84-31-15.59-33.14-7.27-65.81,24.92,24.15,6.17,3.6,20.41,24,5,7.18,9.64,11.15,16,17.58,6.23,8.65,4.76,21.09-3.28,27.79S283.27,1841.82,277,1833.17Z"/><path class="cls-19" d="M303.31,1177.24c2.09,10.38,1,3.83,2.34,19.8h0c-1.34,16-.25,9.43-2.34,19.81-10.18,0-18.43-8.87-18.43-19.81S293.13,1177.24,303.31,1177.24Z"/></svg>