<svg id="Layer_3" data-name="Layer 3" xmlns="http://www.w3.org/2000/svg" viewBox="0 0 1971.97 2400"><defs><style>.cls-1{fill:#92c7ec;}.cls-2{fill:#f9b5ab;}.cls-3{fill:#fff;}.cls-4{fill:#e19b91;}.cls-5{fill:#3d71b8;}.cls-6{fill:#855558;}.cls-7{fill:#91aedb;}.cls-8{fill:#b9e5fb;}.cls-9{fill:#ffe17f;}.cls-10{fill:#8aaad9;}.cls-11{fill:#f8aa9e;}.cls-12{fill:#d37376;}.cls-13{fill:#f48795;}.cls-14{fill:#8b0016;}.cls-15{fill:#3e0000;}.cls-16{fill:#c95e40;}.cls-17{fill:#522b10;}.cls-18{fill:#fcd3c9;}.cls-19{fill:#6c3d21;}.cls-20{fill:#e2e0df;}.cls-21{fill:#bbb5b4;}.cls-22{fill:#fcd6d3;}.cls-23{fill:#d68c81;}</style></defs><title>licensed</title><path class="cls-1" d="M586.88,1314c-44.52-24.81-220.44-11.56-220.44-11.56l9.1-44.93L203,1227.63c-33.64,54.67-62.29,131-59.26,162.62,34.65,144.18,333.76,169.49,333.76,169.49S631.4,1338.81,586.88,1314Z"/><path class="cls-2" d="M1589.76,1369.35l124.73-16.85s38.44,46.26,55.68,118.6l-200-35.86Z"/><path class="cls-1" d="M1383.16,1437.36c52.45-9.59,186.32,38.75,186.32,38.75l1.86-47.62,194.59,25.41c32.62,71.27,13.48,179.82.26,208.87-81.16,126-435.13,18.9-435.13,18.9S1330.67,1447,1383.16,1437.36Z"/><path class="cls-1" d="M445.07,1722.12c15.84-207,126.49-421.44,129.9-424.8l770.06,102c71.41,92.38,96.28,274.06,88.74,395.64C1106.09,1826.44,766,1821.11,445.07,1722.12Z"/><polygon class="cls-3" points="1095.23 1457.43 1092.11 1552.73 934.71 1473.15 732.37 1477.88 775.31 1397.13 1095.23 1457.43"/><path class="cls-4" d="M775.24,1394.23l110.39,135.54,209.65-86.8s-53.94-127.07-142.34-140.53S775.24,1394.23,775.24,1394.23Z"/><path class="cls-5" d="M125.22,2325.51s85.45-246.89,325.9-475.75c-1.09-6-1.92-11.9-2.39-17.45-6.26-39.44-6.86-68.36-3.66-110.19,320.9,99,661,104.32,988.7,72.84-1.53,24.84-4.41,47.31-8.51,65.86-1.31,5.4-2.77,10.77-4.33,16.15,223.5,185.66,316.61,448.54,316.61,448.54l-297.27,33.93s-209.47-174.19-511.4-182.77-506.34,182.77-506.34,182.77Z"/><path class="cls-5" d="M533.64,1773.15h62.77c0-184,78.43-382,79.19-384.05L618,1362C614.57,1370.58,533.64,1575.12,533.64,1773.15Z"/><path class="cls-5" d="M1328.62,1815c11.21-187.47-31.91-422-33.74-431.87l-61.71,11.49c.42,2.34,43.5,236.95,32.81,416.65Z"/><path class="cls-6" d="M1440.46,2359.44s336-90.51,375.56-70.41,55.61,111,55.61,111H1434.45Z"/><path class="cls-7" d="M1493.85,2146.52c1.67,0,3.36,0,5.05-.13,18.4-1.08,32.8-7.68,41.63-19.16,7.92-10.25,10.78-23.61,8.34-38.65-4.24-25.68-32.13-45.26-62.12-43.45-13.74.79-25.84,6.73-33.2,16.32a34,34,0,0,0-6.71,26.36c3,18,22.4,31.49,43.29,30.48,9.66-.56,18.18-4.76,23.41-11.51a24.24,24.24,0,0,0,4.81-19c-2.13-13.13-15.52-22.57-30.68-21.79-6.88.39-13,3.41-16.77,8.34a17.84,17.84,0,0,0-3.57,14,4.66,4.66,0,0,0,5.41,4,4.86,4.86,0,0,0,3.81-5.61,8,8,0,0,1,1.65-6.31c2.12-2.76,5.79-4.44,10-4.71,10-.63,19.62,5.71,20.94,13.76a14.16,14.16,0,0,1-2.93,11.28c-3.55,4.62-9.61,7.49-16.61,7.87-16.27.95-31.36-9.12-33.51-22.43a23.58,23.58,0,0,1,4.77-18.67c5.71-7.41,15.33-12,26.41-12.66,25.42-1.53,48.9,14.4,52.34,35.37,2,12.21-.2,23-6.4,31-7.12,9.24-19.18,14.63-34.83,15.52-21.87,1.18-44.43-7.08-58.47-21.71-9.51-9.9-14.38-21.91-13.69-33.84a4.8,4.8,0,0,0-4.38-5.12,4.7,4.7,0,0,0-5,4.54c-.84,14.71,5,29.37,16.39,41.25C1448.31,2137.48,1470.65,2146.52,1493.85,2146.52Z"/><path class="cls-6" d="M422.3,2359.44S99,2268.93,59.41,2289,3.8,2400,3.8,2400H428.33Z"/><path class="cls-7" d="M387.6,2112.23c-1.66,0-3.36,0-5-.12-18.42-1.08-32.8-7.67-41.63-19.16-7.92-10.24-10.8-23.61-8.35-38.66,4.23-25.67,32.13-45.25,62.12-43.44,13.72.78,25.84,6.74,33.2,16.33a33.88,33.88,0,0,1,6.71,26.34c-3,18-22.4,31.5-43.31,30.51-9.65-.59-18.15-4.77-23.38-11.53a24.3,24.3,0,0,1-4.82-19c2.15-13.11,15.5-22.57,30.68-21.77,6.86.39,13,3.38,16.76,8.32a17.83,17.83,0,0,1,3.58,14,4.67,4.67,0,0,1-5.4,4,4.85,4.85,0,0,1-3.81-5.61,8.13,8.13,0,0,0-1.65-6.3c-2.13-2.77-5.81-4.46-10-4.73-10-.6-19.63,5.72-21,13.76a14.37,14.37,0,0,0,2.93,11.29c3.57,4.62,9.61,7.48,16.61,7.87,16.27.94,31.38-9.12,33.53-22.44a23.68,23.68,0,0,0-4.77-18.66c-5.72-7.4-15.33-12-26.4-12.66-25.46-1.53-48.93,14.41-52.36,35.36-2,12.22.19,23,6.38,31,7.13,9.24,19.19,14.6,34.86,15.51,21.87,1.17,44.42-7.08,58.47-21.71,9.49-9.89,14.37-21.9,13.68-33.85a4.79,4.79,0,0,1,4.4-5.11,4.69,4.69,0,0,1,4.95,4.54c.84,14.72-5,29.36-16.41,41.25C433.16,2103.19,410.79,2112.23,387.6,2112.23Z"/><polygon class="cls-8" points="1566.83 1423.4 1769.36 1443.28 1780.84 1492.17 1562.77 1463.89 1566.83 1423.4"/><polygon class="cls-5" points="1295.86 1819.14 1291.36 1607.62 593.34 1559.34 551.47 1804.9 1295.86 1819.14"/><path class="cls-9" d="M1239,1624.13a51.84,51.84,0,1,0,51.84-51.84A51.83,51.83,0,0,0,1239,1624.13Z"/><path class="cls-9" d="M542.91,1575.19a51.84,51.84,0,1,0,51.84-51.82A51.82,51.82,0,0,0,542.91,1575.19Z"/><path class="cls-10" d="M695.85,1829.31l12.49-166.94,466.92,33.51-2.5,152.79L919,1922.88Zm466.74-121.83-442.78-31.8L709,1821.3l210.78,88.36,240.69-70.41Z"/><path class="cls-11" d="M1545.93,382c43.87-210.49,426-122.7,426-122.7s11.43,367.64-221.4,391.83Z"/><path class="cls-12" d="M1595.88,431.19c25.85-123.81,270.54-95.55,270.54-95.55s-13.35,239.6-150.26,253.8Z"/><path class="cls-11" d="M787.76,273.33C833.21,75.68,483,0,483,0S316.42,310.56,506.28,423.14Z"/><path class="cls-12" d="M713.88,292.86c26.71-116.27-194.06-188.62-194.06-188.62s-83.13,210.49,28.54,276.7Z"/><path class="cls-2" d="M271.72,707.19C174,1218.78,488.86,1384.56,901.28,1463.33s766.21,40.72,863.93-470.9c98.29-514.62-211.62-706.24-624-785S370,192.54,271.72,707.19Z"/><path class="cls-13" d="M1352.76,914c-7,31.81-156.18,26.14-333.24-12.69s-314.92-96.14-307.95-128S867.73,747.14,1044.82,786,1359.73,882.12,1352.76,914Z"/><path class="cls-14" d="M935.38,1165c81.14,27.94,492.87-197.38,493.62,292.74-148.45,53.93-331.41,43-527.72,5.56-222.08-42.42-415.66-110.17-532-243.39C570.61,820.69,842.41,1145.73,935.38,1165Z"/><path class="cls-15" d="M827.91,1235.9c-27.69,42.3-16.72,114.77,23.56,144,45.79,33.24,107.29,44.23,159.79,31.31,42.64-10.49,81.75-54.49,84-99.55,2.79-55.68-40.75-131.71-95.35-103.07-23,12.08,3.26,50.06-.28,67.68-4.54,22.73-37.55,32.06-54.76,17.21-13.17-11.39-10.08-27.85-1.24-39.78,13-17.53,15.64-32.83,2.88-47C913.32,1169.61,848.28,1204.8,827.91,1235.9Z"/><path class="cls-16" d="M1164.79,1494.4c-83.55-2-172-13.6-263.51-31.07-67.28-12.85-131.86-28.07-192.53-46.67C852.57,1332.63,1079.14,1344,1164.79,1494.4Z"/><path class="cls-3" d="M1228.47,838.45c-17.54,91.92,42.73,180.72,134.68,198.27a169.47,169.47,0,1,0-134.68-198.27Z"/><path class="cls-17" d="M1311.79,856.93a82.5,82.5,0,1,0,96.51-65.57A82.53,82.53,0,0,0,1311.79,856.93Z"/><path class="cls-3" d="M535.68,691A169.49,169.49,0,0,0,670.37,889.22C762.28,906.8,851,846.47,868.61,754.53A169.47,169.47,0,0,0,535.68,691Z"/><path class="cls-17" d="M574.08,699.91A127.5,127.5,0,1,0,723.23,598.59,127.5,127.5,0,0,0,574.08,699.91Z"/><path class="cls-18" d="M854.76,902c-10.92,57.27,44.33,108.92,125.67,124.46s158.09-10.88,169-68.18-57.87-88.87-139.24-104.39S865.72,844.68,854.76,902Z"/><path class="cls-19" d="M1019.59,943.24a44.23,44.23,0,1,0,51.73-35.15A44.25,44.25,0,0,0,1019.59,943.24Z"/><path class="cls-19" d="M889.32,916.23a44.24,44.24,0,1,0,51.75-35.13A44.27,44.27,0,0,0,889.32,916.23Z"/><path class="cls-20" d="M1772.57,792.2a52.24,52.24,0,0,0,50.93-17.87,53.12,53.12,0,0,0-6.57-74.46C1793.71,680.34,1238.54,222.8,367,344.28c-28.7,4-48.76,30.68-44.84,59.59A52.51,52.51,0,0,0,381.26,449c826.1-115.14,1363.07,327.56,1368.4,332A51.75,51.75,0,0,0,1772.57,792.2Z"/><path class="cls-21" d="M1714,625.94c1.16,29.36,1.84,80.51-3.77,125.45-3.37-2.42-7-4.93-10.83-7.59,5.23-47.13,3.83-100,2.64-125.53C1706.09,620.89,1710.11,623.43,1714,625.94Z"/><path class="cls-21" d="M1793.71,681.52c1.1,24.12,2.14,68.39-1.4,110.91a52.25,52.25,0,0,1-11.78.72c4.29-48.92,2.2-100.86,1.1-120.68C1786.06,675.75,1790.1,678.76,1793.71,681.52Z"/><path class="cls-21" d="M1604.88,561.26c1.09,27.92,1.89,76.73-3.05,120.78-3.62-2.1-7.28-4.2-11-6.36,4.67-45.86,3.31-96.06,2.16-120.91C1597,556.94,1600.94,559.1,1604.88,561.26Z"/><path class="cls-21" d="M1484.41,501.17c1.14,25.77,2.15,73.25-2.16,117.42-3.7-1.81-7.41-3.56-11.18-5.35,4.09-46,2.54-94.76,1.43-117.45C1476.52,497.59,1480.47,499.37,1484.41,501.17Z"/><path class="cls-21" d="M1144.32,382.81c-10.56,16.46-32.43,53.92-45.76,99.29-3.75-.88-7.52-1.78-11.34-2.66,12.87-44.48,33.44-81,45.06-99.52C1136.28,380.9,1140.33,381.83,1144.32,382.81Z"/><path class="cls-21" d="M999.31,352.52c-10.61,16.53-32.92,54.65-46.2,100.78-3.89-.61-7.73-1.26-11.64-1.82,12.71-45,33.45-82.07,45.33-101.07C991,351.08,995.16,351.79,999.31,352.52Z"/><path class="cls-21" d="M846.34,332.43c-10.78,16.81-33.65,55.85-46.9,103-3.92-.28-7.84-.62-11.78-.86C800,388.92,821,351,833.24,331.26,837.62,331.64,842,332,846.34,332.43Z"/><path class="cls-21" d="M680.65,323.92c-9.72,14.84-34.81,56-48.84,106.17-4,0-8,.11-12.1.17,12.76-47.63,34.93-87.06,47.09-106.35C671.43,323.89,676.07,323.89,680.65,323.92Z"/><path class="cls-21" d="M517,328.75c-7.16,11-34.56,55.43-48.76,110.1-4.08.38-8.18.74-12.28,1.13,12.3-50.19,35.16-91.61,46.57-110.18C507.38,329.44,512.23,329.07,517,328.75Z"/><path class="cls-21" d="M398.82,340.16c-9.68,15.58-32.89,55.89-45.73,104.71a51,51,0,0,1-10.47-6c11.53-42.32,30-77.58,41.33-96.77C388.87,341.42,393.85,340.77,398.82,340.16Z"/><path class="cls-20" d="M865.5,259.87C888,207.53,950.94,152.22,976.71,157.71s89.13,84.7,83.64,113.34S935.57,304.1,901,345.18Z"/><path class="cls-20" d="M742.93,238C724.3,184,665.57,124,639.49,127.5S544.4,205.05,547.8,234.05s122.09,42.63,153.64,86.24Z"/><path class="cls-3" d="M897.34,281.83c19.69,39.6-2.67,126.69-24.2,157.2S719,467.47,697.84,435.36s-16.09-146.52,11.22-182.45S870.09,227.53,897.34,281.83Z"/><path class="cls-22" d="M1647.41,551.61a23.82,23.82,0,0,1-11.13-8.59c-4.11-5.73-8.29-11.33-12.63-16.77a24.21,24.21,0,1,1,37.91-30.12c4.85,6.12,9.56,12.37,14.15,18.81a24.2,24.2,0,0,1-28.3,36.67Z"/><path class="cls-22" d="M1580.55,477.47a24.17,24.17,0,0,1-7.52-4.59c-132.51-118.3-318.74-148.95-320.63-149.29a24.19,24.19,0,0,1,7.52-47.8c8.18,1.28,201.91,33,345.3,161a24.21,24.21,0,0,1-24.67,40.7Z"/><path class="cls-6" d="M1716.43,1354.33s-39-113.51-93.92-120c-26.22-3.09-21.23,63.4-21.23,63.4s-44.68,2.37-47.91,22.46c-5.14,31.89,35.69,57.56,35.69,57.56Z"/><path class="cls-2" d="M377.09,1195.76,269.4,1142.37s-37.74,36.71-75.61,100.35l180.76,21.59Z"/><polygon class="cls-8" points="381.2 1254.04 203.08 1216.48 177.63 1259.58 372.41 1293.76 381.2 1254.04"/><path class="cls-6" d="M267.07,1143.53s70.25-96.31,121.93-86c24.69,4.91-.29,66.67-.29,66.67s39.73,15.64,36.42,35.71c-5.15,31.88-50,44.06-50,44.06Z"/><path class="cls-17" d="M1563.24,698.62c-7.81-.38-191.38-11.11-228.76-160l55.65-14c27.13,108.16,174.44,116.64,175.93,116.71Z"/><path class="cls-17" d="M622,518.05l-35.14-45.36c132.58-102.72,250.61-43.43,294.5,2.25L840,514.69l20.68-19.87-20.57,20C836.3,511,746.19,421.79,622,518.05Z"/><path class="cls-3" d="M1620.56,951.62c-6.35,35.09,13.37,68.06,44.08,73.67s60.81-18.34,67.18-53.42S1689,799.94,1689,799.94,1627,916.53,1620.56,951.62Z"/><path class="cls-3" d="M310,833c-11.9,30.07-.21,62.93,26.09,73.37s57.38-5.5,69.28-35.59-7.5-160.57-7.5-160.57S322,802.87,310,833Z"/><path class="cls-23" d="M510.56,625.23c-49.05,98.39,0,209.07,0,209.07S412.46,720.09,510.56,625.23Z"/><path class="cls-23" d="M1439.57,1077.82s144.77,18.1,152.32-134.21C1555.69,1059.72,1439.57,1077.82,1439.57,1077.82Z"/></svg>