<svg id="Layer_3" data-name="Layer 3" xmlns="http://www.w3.org/2000/svg" viewBox="0 0 2400 2400"><defs><style>.cls-1{fill:#f9d687;}.cls-2{fill:#c9a476;}.cls-3{fill:#f9dd9f;}.cls-4{fill:#f9b5ab;}.cls-5{fill:#9f676a;}.cls-6{fill:#ce496a;}.cls-7{fill:#d5c1ce;}.cls-8{fill:#fff;}.cls-9{fill:#e19b91;}.cls-10{fill:#cc845b;}.cls-11{fill:#db9d6d;}.cls-12{fill:#f8aa9e;}.cls-13{fill:#d37376;}.cls-14{fill:#522b10;}.cls-15{fill:#fcd3c9;}.cls-16{fill:#6c3d21;}.cls-17{fill:#fcd6d3;}.cls-18{fill:#cf8158;}.cls-19{fill:#868383;}.cls-20{fill:#bbb5b4;}.cls-21{fill:#eaa1ab;}.cls-22{fill:#fae9bc;}</style></defs><title>licensed</title><path class="cls-1" d="M2354.26,2298.21c0-355.67-196.56-644-439-644s-439,288.32-439,644c0,31.7,1.65,62.84,4.64,93.31h868.73C2352.64,2361.05,2354.26,2329.91,2354.26,2298.21Z"/><polygon class="cls-2" points="1668.13 1995.16 1652.92 1988.51 1746.64 1774.5 1761.86 1781.15 1668.13 1995.16"/><polygon class="cls-2" points="1796.34 1909.14 1780.11 1905.57 1816.8 1738.04 1833.03 1741.58 1796.34 1909.14"/><polygon class="cls-2" points="1879.39 2031.62 1862.79 2030.87 1872.35 1818.28 1888.91 1819.03 1879.39 2031.62"/><polygon class="cls-2" points="1947.17 1975.06 1903.69 1744.16 1920.04 1741.09 1963.49 1972.01 1947.17 1975.06"/><polygon class="cls-2" points="2011.11 1980.97 1967.59 1785.26 1983.81 1781.66 2027.27 1977.34 2011.11 1980.97"/><polygon class="cls-2" points="2149.96 2080.51 2049.45 1800.35 2065.04 1794.74 2165.59 2074.91 2149.96 2080.51"/><polygon class="cls-2" points="2206.95 2123.99 2126.8 1884.65 2142.52 1879.39 2222.69 2118.72 2206.95 2123.99"/><polygon class="cls-2" points="2228.19 1970.92 2123.57 1804.78 2137.64 1795.94 2242.23 1962.06 2228.19 1970.92"/><polygon class="cls-2" points="1490.31 2068.91 1477.49 2058.35 1605.19 1903.47 1618.04 1914.04 1490.31 2068.91"/><polygon class="cls-2" points="1511.11 2355.1 1494.75 2352.22 1543.66 2073.47 1560.01 2076.32 1511.11 2355.1"/><polygon class="cls-2" points="1560.01 2362.12 1543.66 2359.31 1572.2 2193.17 1588.53 2195.97 1560.01 2362.12"/><polygon class="cls-2" points="1615.81 2375.61 1599.27 2373.94 1616.94 2200.76 1633.45 2202.45 1615.81 2375.61"/><rect class="cls-2" x="1663.09" y="2271.99" width="16.6" height="105.62" transform="translate(-59.11 43.66) rotate(-1.47)"/><polygon class="cls-2" points="2028.59 2310.72 2014.99 2151.63 2031.52 2150.22 2045.13 2309.31 2028.59 2310.72"/><polygon class="cls-2" points="2065.23 2355.47 2058.44 2213.27 2075.04 2212.47 2081.82 2354.67 2065.23 2355.47"/><polygon class="cls-2" points="2194.36 2349.17 2176.73 2222.47 2193.14 2220.17 2210.82 2346.91 2194.36 2349.17"/><polygon class="cls-2" points="2248.97 2298.18 2213.63 2172.89 2229.59 2168.38 2264.95 2293.69 2248.97 2298.18"/><polygon class="cls-2" points="2385.59 2300.04 2300 2149.39 2314.43 2141.22 2400 2291.83 2385.59 2300.04"/><polygon class="cls-2" points="2295.16 2253.2 2243.54 2077.23 2259.48 2072.54 2311.13 2248.54 2295.16 2253.2"/><polygon class="cls-2" points="1808.72 2278.31 1792.17 2276.97 1807.12 2093.93 1823.69 2095.27 1808.72 2278.31"/><polygon class="cls-2" points="1848.12 2327.5 1831.56 2326.3 1845.17 2143.27 1861.72 2144.49 1848.12 2327.5"/><polygon class="cls-2" points="1806.72 1700.23 1668.17 1691.77 1669.18 1675.21 1807.74 1683.65 1806.72 1700.23"/><polygon class="cls-2" points="1844.4 1683.93 1765.6 1645.92 1772.81 1630.97 1851.59 1668.98 1844.4 1683.93"/><polygon class="cls-2" points="1958.84 1691.64 1949.11 1678.17 2060.53 1597.92 2070.23 1611.4 1958.84 1691.64"/><polygon class="cls-2" points="2204.55 1759.11 1998.03 1704.17 2002.3 1688.15 2208.82 1743.07 2204.55 1759.11"/><polygon class="cls-2" points="1891.35 2223.22 1884.52 2109.18 1901.13 2108.2 1907.92 2222.23 1891.35 2223.22"/><polygon class="cls-1" points="1543.96 1888.33 1531.33 1868.24 1681.6 1773.74 1694.23 1793.85 1543.96 1888.33"/><rect class="cls-1" x="2311.62" y="1985.08" width="23.74" height="158.44" transform="translate(-782.9 1962.97) rotate(-39.75)"/><polygon class="cls-1" points="1902.17 1676.52 1850.94 1601.4 1870.54 1588.04 1921.76 1663.16 1902.17 1676.52"/><polygon class="cls-1" points="2317.86 1944.42 2179 1835.14 2193.66 1816.49 2332.54 1925.78 2317.86 1944.42"/><polygon class="cls-3" points="1450.76 2288.59 1430.63 2276 1487.54 2184.95 1507.68 2197.52 1450.76 2288.59"/><path class="cls-4" d="M1414.25,1412.89s213.54,97.26,244.41,206.17-91.42,185.52-91.42,185.52L1487.8,1797l-103-359.93Z"/><path class="cls-5" d="M1502.16,1790.5l65.15,8.31s62.14,22.75,47.76,44-106.84,47-106.84,47Z"/><path class="cls-6" d="M640.29,1902.62c-68,195.47-47.87,461.06-47.87,461.06H834.66s49.87-190.42,198.4-268.09Z"/><path class="cls-6" d="M1510.94,1902.62c68,195.47,47.85,461.06,47.85,461.06h-221s-51.57-190.42-200.14-268.09Z"/><path class="cls-4" d="M720,1514.36c-178.93,126.8-400.29,171.89-400.29,171.89l15.68,114.11s157.77,40.84,314.16,4.22Z"/><path class="cls-7" d="M1514.68,1801.5c-14.18-185.51-113.38-377.68-116.44-380.71l-690.16,91.42c-64,82.78-86.3,245.63-79.58,354.58C922.22,1895,1227.07,1890.23,1514.68,1801.5Z"/><path class="cls-8" d="M771.55,1490.12c-87.32,83.14-95,273.17-85.78,288.42,44.42,49.19,153.17,35.64,153.17,35.64S808.3,1595.31,891,1500.3Z"/><path class="cls-8" d="M1335.77,1423c98.18,83.26,113.55,282.65,104.1,299.14-46.61,53.79-165.58,44.65-165.58,44.65s25.27-231.5-68.34-327.5Z"/><path class="cls-6" d="M628.5,1866.79c1.38,22.3,4,42.41,7.66,59,30,125,134,248.4,462.59,248.4,302.33,0,405-170.68,412.66-262.57,5.62-35.36,6.11-72.61,3.27-110.15C1227.07,1890.23,922.22,1895,628.5,1866.79Z"/><path class="cls-9" d="M1184.77,1482.37c5.57,63.68-54.09,121-133.26,127.88s-147.87-39.12-153.45-102.8,54.09-121,133.26-127.92S1179.17,1418.65,1184.77,1482.37Z"/><path class="cls-10" d="M1404.07,364.78C1457.49,603.09,1263.6,849.41,971,915S397.93,840.61,344.5,602.32,485,117.68,777.57,52.1,1350.64,126.49,1404.07,364.78Z"/><path class="cls-11" d="M1862.94,478.29c53.79,239.88-320.7,492.32-827,605.8S83.27,1129.2,29.5,889.29,334.93,328.91,841.21,215.41,1809.18,238.41,1862.94,478.29Z"/><path class="cls-12" d="M538,558.87c-47-194.06-398.95-101.29-398.95-101.29s.25,341.52,217,357.09Z"/><path class="cls-13" d="M493.12,606C465.49,491.86,239.21,525.3,239.21,525.3s19.43,222,146.9,231.12Z"/><path class="cls-12" d="M1195.79,411.1c-80.44-163,209.38-301.33,209.38-301.33s209.42,236.48,67,373.87Z"/><path class="cls-13" d="M1264.26,412.86C1217,317,1394.59,208.31,1394.59,208.31s116,166.42,32.22,247.21Z"/><path class="cls-4" d="M1681.9,821c102.14,455.54-175.21,613-542.43,695.35s-685.26,58.3-787.38-397.25c-102.73-458.22,171.79-628.42,539-710.74S1579.18,362.74,1681.9,821Z"/><path class="cls-8" d="M795.6,1075A139.71,139.71,0,1,1,628.71,969.18,139.72,139.72,0,0,1,795.6,1075Z"/><path class="cls-14" d="M767.68,1084.41a110.37,110.37,0,1,1-131.87-83.55A110.37,110.37,0,0,1,767.68,1084.41Z"/><path class="cls-8" d="M1571.68,911A139.72,139.72,0,1,1,1404.79,805.2,139.71,139.71,0,0,1,1571.68,911Z"/><path class="cls-14" d="M1543.76,920.44a110.38,110.38,0,1,1-131.84-83.57A110.41,110.41,0,0,1,1543.76,920.44Z"/><path class="cls-14" d="M572.31,820.34l-31.57-12.16c14.91-38.73,68.32-106.8,163.6-87.2l-6.8,33.12C606.22,735.35,573.63,816.84,572.31,820.34Z"/><path class="cls-14" d="M1348.33,646.41c-2.73-2.56-67.5-62.07-141.55-6.47l-20.31-27c77.79-58.43,155.13-19.66,185.15,9Z"/><path class="cls-15" d="M1207.81,1053.38c12.24,54.51-42.62,90.12-120.09,107.49s-148.21,9.93-160.42-44.59,44.34-106.37,121.79-123.75S1195.58,998.84,1207.81,1053.38Z"/><path class="cls-16" d="M1045.4,1075.85a40.28,40.28,0,1,1-48.11-30.48A40.27,40.27,0,0,1,1045.4,1075.85Z"/><path class="cls-16" d="M1169.45,1048.05a40.29,40.29,0,1,1-48.11-30.5A40.26,40.26,0,0,1,1169.45,1048.05Z"/><path class="cls-17" d="M644.7,1304.3c4.21,18.77-17.67,39.68-48.86,46.67s-59.89-2.56-64.11-21.35,17.66-39.68,48.86-46.68S640.49,1285.52,644.7,1304.3Z"/><path class="cls-17" d="M1627.42,1084c4.24,18.76-17.63,39.65-48.83,46.65s-59.9-2.56-64.13-21.35,17.67-39.69,48.86-46.68S1623.23,1065.21,1627.42,1084Z"/><path class="cls-14" d="M872,1482.27a93.06,93.06,0,0,1-31.09-5.27c-32.6-11.39-53.32-39.1-61.82-61.22l21.06-8.09c6.37,16.62,22.84,39.15,48.22,48,23.45,8.21,50.34,3.57,79.94-13.75l11.39,19.45C916,1475.32,893.38,1482.27,872,1482.27Z"/><path class="cls-5" d="M836.06,2357.65s-257.77-78.31-293.52-60.94-50.24,96-50.24,96H841.51Z"/><path class="cls-5" d="M1331.68,2354s245.66-86.46,279.74-67.27,47.82,106,47.82,106H1326.5Z"/><polygon class="cls-18" points="371.48 2400 253.45 1210.76 302.57 1205.9 420.58 2395.14 371.48 2400"/><path class="cls-19" d="M201.18,1211l1-12.57c.17-1.91,13.82-192.15-73.73-332.43l19.1-11.93c79.33,127.05,79.55,287.6,77.8,333.56l224.59-7.55c1.44-43.29,1.72-215.43-75.73-324.66l18.38-13C486,974.14,472.6,1183,472,1191.79l-.71,10.14Z"/><path class="cls-19" d="M82,1218.58l0-11.73c0-2-1.8-202.19-81.91-323.09L18.78,871.3C92.13,982,102.69,1149.15,104.2,1195l229.07-10.22c1.43-43.13,1.79-215.48-75.74-324.82l18.4-13c93.43,131.77,80,340.61,79.39,349.45l-.69,10Z"/><polygon class="cls-19" points="345.4 1362.17 246.85 1371.62 230.7 1202.77 329.24 1193.33 345.4 1362.17"/><path class="cls-20" d="M301.36,1270.85a14.74,14.74,0,1,1-14.87-14.62A14.74,14.74,0,0,1,301.36,1270.85Z"/><path class="cls-5" d="M291.32,1669c28.69-27,118.81,18.12,113.27,33.07s-36.25,35.65-36.25,35.65,37.27,31,36.76,43.1-51.87,48.87-96.68,29.9S262.61,1696,291.32,1669Z"/><path class="cls-21" d="M1410.6,2191.94c-1.53,0-3.06-.05-4.59-.14-16.6-.92-29.64-6.67-37.61-16.68-7.15-8.95-9.75-20.61-7.51-33.72,3.81-22.37,29.06-39.35,56.12-37.88,12.39.68,23.31,5.87,30,14.22a28.79,28.79,0,0,1,6,23c-2.68,15.71-20.38,27.5-39.09,26.59-8.76-.49-16.46-4.15-21.21-10.07a20.64,20.64,0,0,1-4.31-16.52c2-11.43,14.28-19.77,27.71-19a20.77,20.77,0,0,1,15.21,7.28,15.31,15.31,0,0,1,3.17,12.2,4.14,4.14,0,0,1-4.86,3.44,4.21,4.21,0,0,1-3.46-4.86,6.87,6.87,0,0,0-1.47-5.5,12.26,12.26,0,0,0-9-4.12c-9-.45-17.73,5-18.93,12a12.34,12.34,0,0,0,2.61,9.84c3.25,4,8.71,6.55,15,6.88,14.9.75,28.35-8,30.34-19.56a20.07,20.07,0,0,0-4.36-16.29c-5.16-6.47-13.83-10.5-23.83-11.05-23.06-1.24-44.21,12.58-47.34,30.88-1.79,10.64.19,20,5.81,27,6.41,8.06,17.32,12.74,31.47,13.51,19.86,1,40.15-6.15,52.83-18.92,8.58-8.64,13-19.13,12.38-29.52a4.2,4.2,0,0,1,4-4.46,4.26,4.26,0,0,1,4.47,4c.77,12.84-4.49,25.61-14.8,36C1451.73,2184.06,1431.56,2191.94,1410.6,2191.94Z"/><path class="cls-21" d="M723.91,2208.23a82.92,82.92,0,0,1-33.77-7.29c-15.2-6.82-25.27-16.87-29.15-29.06-3.47-10.92-1.7-22.73,5.06-34.17,11.58-19.55,41.17-26.39,66-15.28,11.34,5.09,19.69,13.86,22.91,24.05a28.7,28.7,0,0,1-2.59,23.6c-8.1,13.69-28.78,18.54-46.05,10.81-8-3.56-13.83-9.75-16.15-16.95a20.78,20.78,0,0,1,1.87-17c5.9-10,20.26-13.39,32.68-7.8,5.69,2.55,9.93,7,11.58,12.22a15.32,15.32,0,0,1-1.37,12.55,4.23,4.23,0,1,1-7.27-4.33,6.78,6.78,0,0,0,.58-5.66,12.31,12.31,0,0,0-7-7.06c-8.31-3.74-18.32-1.72-21.94,4.39a12.16,12.16,0,0,0-1.08,10.13c1.56,4.92,5.77,9.22,11.53,11.81,13.5,6,29.33,2.71,35.33-7.42a20.06,20.06,0,0,0,1.79-16.71c-2.5-7.92-9.17-14.79-18.3-18.92-21-9.4-45.79-4.08-55.25,11.89-5.5,9.3-7,18.76-4.27,27.3,3.11,9.83,11.61,18.1,24.54,23.9,18.17,8.15,39.65,8.61,56.1,1.28,11.12-5,19-13.19,22.14-23.14a4.23,4.23,0,1,1,8.06,2.56c-3.9,12.26-13.4,22.3-26.76,28.3A71.67,71.67,0,0,1,723.91,2208.23Z"/><path class="cls-11" d="M578.29,326.24c-28.09-59.24-67.73-68-69.4-68.39l2.84-14.38c1.95.39,48.32,10.14,79.81,76.49Z"/><path class="cls-11" d="M619.94,293.39c-12.07-52.73-4.75-71.78-3.89-73.76l13.42,5.87-6.7-2.94,6.76,2.78c-.06.18-6.22,17.06,4.7,64.77Z"/><polygon class="cls-11" points="1732.14 332.39 1718.95 321.79 1782.04 243.24 1795.21 253.84 1732.14 332.39"/><polygon class="cls-11" points="1772.44 361.87 1764.31 347.05 1825.03 313.74 1833.18 328.55 1772.44 361.87"/><path class="cls-17" d="M1475.38,576a28.09,28.09,0,0,1-18.94-7.31q-6.82-6.18-13.79-11.89a28.19,28.19,0,0,1,35.75-43.59c5.39,4.4,10.68,9,15.93,13.74a28.18,28.18,0,0,1-18.95,49Z"/><path class="cls-17" d="M1389.31,516.79a28.09,28.09,0,0,1-12.74-3c-170.24-86.47-372.38-23.66-374.39-23A28.19,28.19,0,0,1,985,437c9.14-2.92,225.84-70.71,417.14,26.44a28.18,28.18,0,0,1-12.78,53.31Z"/><polygon class="cls-22" points="1761.35 1917.91 1744.97 1913.73 1793.35 1724.26 1809.71 1728.44 1761.35 1917.91"/><polygon class="cls-22" points="1854.43 1880.63 1837.68 1878.45 1857.58 1725.39 1874.36 1727.57 1854.43 1880.63"/><polygon class="cls-22" points="2041.38 1918.73 1990 1750.97 2006.19 1746.01 2057.55 1913.78 2041.38 1918.73"/><polygon class="cls-22" points="2101.54 1852.63 2060.65 1762.45 2076.04 1755.48 2116.91 1845.64 2101.54 1852.63"/><polygon class="cls-22" points="2100.85 2284.29 2075.69 2088.22 2092.45 2086.07 2117.59 2282.14 2100.85 2284.29"/><polygon class="cls-22" points="1933.03 2267.85 1924.63 2068.64 1941.53 2067.92 1949.91 2267.14 1933.03 2267.85"/><polygon class="cls-22" points="1691.83 2184.11 1675.22 2181 1702.49 2035.27 1719.13 2038.38 1691.83 2184.11"/><polygon class="cls-22" points="1726.51 2302.25 1709.78 2299.84 1740.21 2088.04 1756.91 2090.46 1726.51 2302.25"/><polygon class="cls-22" points="1666.63 2105.79 1628.91 2003.05 1644.78 1997.21 1682.51 2099.96 1666.63 2105.79"/></svg>