<svg id="Layer_3" data-name="Layer 3" xmlns="http://www.w3.org/2000/svg" viewBox="0 0 2400 2400"><defs><style>.cls-1{fill:#c75b51;}.cls-2{fill:#95423a;}.cls-3{fill:#682922;}.cls-4{fill:#a04840;}.cls-5{fill:#ac4e45;}.cls-6{fill:#b8544b;}.cls-7{fill:#7a332c;}.cls-8{fill:#813730;}.cls-9{fill:#00796c;}.cls-10{fill:#f9b5ab;}.cls-11{fill:#855558;}.cls-12{fill:#cee5b7;}.cls-13{fill:#d2e288;}.cls-14{fill:#d68c81;}.cls-15{fill:#7ec352;}.cls-16{fill:#006358;}.cls-17{fill:#f8aa9e;}.cls-18{fill:#d37376;}.cls-19{fill:#fff;}.cls-20{fill:#522b10;}.cls-21{fill:#fcd3c9;}.cls-22{fill:#6c3d21;}.cls-23{fill:#fcd6d3;}.cls-24{fill:#cf8158;}.cls-25{fill:#868383;}.cls-26{fill:#5f5c5c;}.cls-27{fill:#bbb5b4;}.cls-28{fill:#ffcc40;}</style></defs><title>licensed</title><polygon class="cls-1" points="544.1 1871.42 859.89 1875.83 868.04 2005.42 549.93 2025.5 544.1 1871.42"/><polygon class="cls-2" points="547.16 1871.23 427.82 1895.63 436.47 2032.67 558.36 2024.96 547.16 1871.23"/><polygon class="cls-3" points="437.95 1985.17 824.08 2012.95 824.08 2161.48 433.12 2161.48 437.95 1985.17"/><polygon class="cls-2" points="441.65 1985.17 293.72 2004.42 293.72 2161.48 443.47 2161.48 441.65 1985.17"/><polygon class="cls-3" points="334.5 2125.81 674.25 2136.91 674.25 2280.93 330.28 2280.93 334.5 2125.81"/><polygon class="cls-2" points="337.81 2125.81 207.68 2142.74 207.68 2280.93 339.43 2280.93 337.81 2125.81"/><polygon class="cls-3" points="239.02 2238.48 578.8 2249.57 578.8 2393.62 234.87 2393.62 239.02 2238.48"/><polygon class="cls-4" points="242.31 2238.48 112.18 2255.39 112.18 2393.62 243.92 2393.62 242.31 2238.48"/><polygon class="cls-5" points="653.11 1946.38 1039.21 1974.17 1039.21 2122.66 648.3 2122.66 653.11 1946.38"/><polygon class="cls-2" points="656.79 1946.38 508.95 1965.63 508.95 2122.66 658.59 2122.66 656.79 1946.38"/><polygon class="cls-1" points="803.74 2100.61 1165.12 2126.61 1165.12 2265.55 799.32 2265.55 803.74 2100.61"/><polygon class="cls-2" points="807.27 2100.61 668.9 2118.63 668.9 2265.55 808.96 2265.55 807.27 2100.61"/><polygon class="cls-6" points="513.5 2089.28 899.62 2101.88 899.62 2265.55 508.7 2265.55 513.5 2089.28"/><polygon class="cls-2" points="517.23 2089.28 369.35 2108.54 369.35 2265.55 519.06 2265.55 517.23 2089.28"/><polygon class="cls-5" points="822.7 2212.11 1208.79 2231.33 1208.79 2388.38 817.86 2388.38 822.7 2212.11"/><polygon class="cls-7" points="805.45 2217.34 657.58 2236.56 657.58 2393.62 807.29 2393.62 805.45 2217.34"/><polygon class="cls-1" points="405.04 2217.34 791.09 2229.92 791.09 2393.62 400.26 2393.62 405.04 2217.34"/><polygon class="cls-4" points="408.71 2217.34 260.85 2236.56 260.85 2393.62 410.59 2393.62 408.71 2217.34"/><path class="cls-4" d="M568.79,2267a18.54,18.54,0,1,0,18.48-18.52A18.53,18.53,0,0,0,568.79,2267Z"/><path class="cls-2" d="M835.47,2354.16A18.54,18.54,0,1,0,854,2335.63,18.54,18.54,0,0,0,835.47,2354.16Z"/><path class="cls-2" d="M1130.23,2325.77a15.06,15.06,0,1,0,15.08-15A15,15,0,0,0,1130.23,2325.77Z"/><path class="cls-2" d="M1059.71,2353a12.67,12.67,0,1,0,12.66-12.64A12.69,12.69,0,0,0,1059.71,2353Z"/><path class="cls-4" d="M534.55,2329.78a13.11,13.11,0,1,0,13.07-13.12A13.09,13.09,0,0,0,534.55,2329.78Z"/><path class="cls-4" d="M438.88,2266.88a9,9,0,1,0,9.05-9A9.06,9.06,0,0,0,438.88,2266.88Z"/><path class="cls-3" d="M366.05,2044.93a9,9,0,1,0,9-9A9,9,0,0,0,366.05,2044.93Z"/><path class="cls-3" d="M321.74,2088.58a7.14,7.14,0,1,0,7.14-7.12A7.15,7.15,0,0,0,321.74,2088.58Z"/><path class="cls-3" d="M401.81,2159.94A12.92,12.92,0,1,0,414.7,2147,12.89,12.89,0,0,0,401.81,2159.94Z"/><path class="cls-3" d="M475,2188.9a10.55,10.55,0,1,0,10.48-10.54A10.52,10.52,0,0,0,475,2188.9Z"/><path class="cls-3" d="M268.53,2191.14a8.32,8.32,0,1,0,8.3-8.31A8.29,8.29,0,0,0,268.53,2191.14Z"/><path class="cls-3" d="M147.07,2278.64a8.31,8.31,0,1,0,16.61,0,8.31,8.31,0,0,0-16.61,0Z"/><path class="cls-3" d="M186.2,2322.57a8.3,8.3,0,1,0,8.29-8.3A8.3,8.3,0,0,0,186.2,2322.57Z"/><path class="cls-3" d="M157.9,2363.57a5.55,5.55,0,1,0,5.52-5.57A5.53,5.53,0,0,0,157.9,2363.57Z"/><path class="cls-3" d="M276.64,2368.72a5.54,5.54,0,0,0,5.52,5.57,5.56,5.56,0,1,0,0-11.12A5.52,5.52,0,0,0,276.64,2368.72Z"/><path class="cls-3" d="M377.87,2275.08a7.59,7.59,0,1,0,7.57-7.6A7.58,7.58,0,0,0,377.87,2275.08Z"/><path class="cls-3" d="M315.78,2259.64a7.59,7.59,0,1,0,7.54-7.59A7.57,7.57,0,0,0,315.78,2259.64Z"/><path class="cls-3" d="M233.49,2218.71a8.32,8.32,0,1,0,8.31-8.29A8.31,8.31,0,0,0,233.49,2218.71Z"/><path class="cls-3" d="M243.22,2178.35a6.77,6.77,0,1,0,6.74-6.76A6.76,6.76,0,0,0,243.22,2178.35Z"/><path class="cls-2" d="M808.32,2171a11.75,11.75,0,1,0,11.75-11.74A11.78,11.78,0,0,0,808.32,2171Z"/><path class="cls-8" d="M953.5,2024.93a11.73,11.73,0,1,0,11.74-11.76A11.7,11.7,0,0,0,953.5,2024.93Z"/><path class="cls-8" d="M983.11,2075a8.42,8.42,0,1,0,8.43-8.43A8.42,8.42,0,0,0,983.11,2075Z"/><path class="cls-8" d="M831.14,2010.74a8.42,8.42,0,1,0,8.39-8.43A8.41,8.41,0,0,0,831.14,2010.74Z"/><path class="cls-8" d="M687.93,2042.39a11.85,11.85,0,1,0,11.85-11.83A11.84,11.84,0,0,0,687.93,2042.39Z"/><path class="cls-8" d="M708.52,1907a11.83,11.83,0,1,0,11.79-11.83A11.81,11.81,0,0,0,708.52,1907Z"/><path class="cls-8" d="M598.15,1917.45a9.35,9.35,0,1,0,9.35-9.37A9.33,9.33,0,0,0,598.15,1917.45Z"/><path class="cls-8" d="M944.59,2143.61a11.76,11.76,0,1,0,11.78-11.75A11.74,11.74,0,0,0,944.59,2143.61Z"/><path class="cls-8" d="M1017.9,2184.65a8.82,8.82,0,1,0,8.81-8.82A8.79,8.79,0,0,0,1017.9,2184.65Z"/><path class="cls-8" d="M948.56,2193.44a8.78,8.78,0,1,0,8.77-8.81A8.76,8.76,0,0,0,948.56,2193.44Z"/><path class="cls-2" d="M624.79,2163.82a11.73,11.73,0,1,0,11.7-11.77A11.7,11.7,0,0,0,624.79,2163.82Z"/><path class="cls-2" d="M587.65,2184.63a8.16,8.16,0,1,0,8.14-8.15A8.14,8.14,0,0,0,587.65,2184.63Z"/><path class="cls-9" d="M1818.18,1839c-1.47,23-4.15,43.84-8,61-31,129.19-138.49,237.39-478.23,237.39-312.56,0-419.38-177.71-426.62-261.73-5.78-36.57-6.34-65.4-3.37-104.17C1199.35,1863.2,1514.48,1868.15,1818.18,1839Z"/><polygon class="cls-9" points="1776.54 1975.38 1831.47 2357.57 1585.42 2357.57 1397.69 2056.53 1776.54 1975.38"/><polygon class="cls-10" points="1523.83 2258.84 1585.42 2357.57 1831.47 2357.57 1810.28 2210.28 1523.83 2258.84"/><polygon class="cls-9" points="1283.56 1975.38 1321.27 2357.57 1115.11 2358.22 915.24 1917.79 1283.56 1975.38"/><polygon class="cls-10" points="1066.1 2250.17 1115.11 2358.22 1321.27 2357.57 1310.7 2250.17 1066.1 2250.17"/><path class="cls-11" d="M1587.07,2351.39s252.31-91.5,290-71.21S1930,2392.36,1930,2392.36H1581.33Z"/><path class="cls-11" d="M1321.46,2352.35S1077.22,2263,1042,2282.8s-49.51,109.56-49.51,109.56h334.35Z"/><path class="cls-12" d="M1116.76,2203.75c-1.39,0-2.84,0-4.31-.12-15.65-.87-27.89-6.3-35.41-15.76-6.75-8.44-9.21-19.43-7.09-31.77,3.56-21.12,27.15-37.18,52.83-35.73,11.66.64,22,5.53,28.29,13.42a27.43,27.43,0,0,1,5.76,21.78c-2.57,14.87-19,26.15-37,25.17-8.25-.46-15.58-3.94-20.07-9.56a19.82,19.82,0,0,1-4.09-15.76c1.86-10.84,13.48-18.82,26.27-18.05a19.94,19.94,0,0,1,14.52,6.92,14.63,14.63,0,0,1,3,11.72,4.34,4.34,0,1,1-8.56-1.46,6,6,0,0,0-1.26-4.83,11.09,11.09,0,0,0-8.19-3.69c-8.54-.63-16.18,4.52-17.25,10.87a10.82,10.82,0,0,0,2.36,8.87c3,3.7,7.93,6,13.71,6.32,13.75.87,26.13-7.31,27.94-18a18.38,18.38,0,0,0-4-14.91c-4.77-6-12.82-9.66-22-10.19-21.68-1.25-40.92,11.64-43.77,28.53-1.69,9.85.14,18.47,5.33,24.92,6,7.47,16,11.78,29.14,12.5,18.52,1.09,37.26-5.71,49.06-17.54,8-8,12-17.68,11.47-27.31a4.27,4.27,0,0,1,4-4.57,4.1,4.1,0,0,1,4.6,4.07c.7,12.1-4.26,24.15-14,33.93C1155.38,2196.35,1136.48,2203.75,1116.76,2203.75Z"/><path class="cls-12" d="M1673,2196.81c-1.48,0-3,0-4.45-.13-16.21-.86-28.87-6.5-36.68-16.23-7-8.73-9.47-20.09-7.31-32.86,3.7-21.82,28.15-38.34,54.62-36.94,12.08.68,22.76,5.73,29.27,13.87a28.15,28.15,0,0,1,5.91,22.48c-2.61,15.32-19.53,27-38.2,26-8.49-.48-16-4.07-20.63-9.88a20.36,20.36,0,0,1-4.28-16.19c1.92-11.18,14.2-19.22,27.09-18.6,6.15.33,11.59,2.95,14.91,7.13a15.06,15.06,0,0,1,3.18,12,4.35,4.35,0,0,1-8.57-1.46,6,6,0,0,0-1.42-5.14c-1.77-2.27-4.9-3.71-8.58-3.9-8.77-.43-16.89,4.76-18,11.41a11.36,11.36,0,0,0,2.48,9.33c3.08,3.87,8.29,6.28,14.39,6.63,14,.77,27.2-7.65,29.09-18.78a19.21,19.21,0,0,0-4.16-15.62c-4.94-6.21-13.31-10.08-22.92-10.6-22.32-1.27-42.64,12.1-45.62,29.71-1.78,10.27.17,19.25,5.58,26,6.12,7.75,16.65,12.26,30.36,13,19.07,1,38.71-5.95,51-18.26,8.3-8.32,12.57-18.41,11.93-28.42a4.41,4.41,0,0,1,4-4.61,4.16,4.16,0,0,1,4.61,4.09c.73,12.51-4.37,24.94-14.43,35C1713,2189.17,1693.38,2196.81,1673,2196.81Z"/><path class="cls-13" d="M902,1771.48c14.68-191.82,117.19-390.49,120.37-393.6l713.52,94.51c45.85,73.65,89.22,253.94,82.29,366.57C1501.08,1885,1217.38,1892.57,902,1771.48Z"/><polygon class="cls-14" points="1227.05 1442.36 1343.87 1566.43 1489.83 1455.14 1227.05 1442.36"/><path class="cls-9" d="M1247.71,1454.31l98.93,97.73,97.12-75.94s97.65-.71,153.39,7.12c-122.32,83.21-254.46,96.9-254.46,96.9S1190,1541.94,1122.47,1447C1175.31,1432.32,1247.71,1454.31,1247.71,1454.31Z"/><path class="cls-9" d="M1355.77,1567c41.66,138.45,147.81,164.37,147.81,164.37s-20.65-113.72-113-164Z"/><path class="cls-15" d="M1731.14,1464.34c214.41,28.59,321.76,266.13,212.7,318.66-180.36,86.83-325.12-171.46-325.12-171.46S1696.86,1505.53,1731.14,1464.34Z"/><path class="cls-15" d="M1008.68,1400C975.23,1631.59,1204.59,1812,1204.59,1812l-106.83,69s-219.22-55.33-260.7-162.53C801.67,1614.48,904.05,1408.93,1008.68,1400Z"/><path class="cls-16" d="M1991.49,553.68s456.22,291.62,255.75,366.48-662.25-129-662.25-129Z"/><path class="cls-9" d="M868.1,533.84,2025.09,734S2144.65,116.5,1556.43,48.17C946.47-22.68,868.1,533.84,868.1,533.84Z"/><path class="cls-17" d="M1839.24,435.7c21.72-202.54,390.12-155.41,390.12-155.41s45.06,345.5-172.12,390Z"/><path class="cls-18" d="M1890.91,477.39c12.83-119.1,246.14-115.3,246.14-115.3s9.76,227.11-117.94,253.27Z"/><path class="cls-17" d="M1141.83,372.57c60-176.47-253.1-278.43-253.1-278.43S707.39,362.51,870.42,483.19Z"/><path class="cls-18" d="M1072.43,383.5c35.3-103.78-159.79-190.62-159.79-190.62s-95.66,184.7.22,255.66Z"/><path class="cls-10" d="M702.25,854.1c-43,476.77,259.87,599.91,644.23,634.62S2051,1456.59,2094,979.81c43.31-479.57-258.5-616-642.81-650.75S745.54,374.55,702.25,854.1Z"/><path class="cls-19" d="M1460.68,954.93a143.73,143.73,0,1,0,156.06-130.2A143.73,143.73,0,0,0,1460.68,954.93Z"/><path class="cls-20" d="M1496.24,960.59a111.79,111.79,0,1,0,121.4-101.3A111.79,111.79,0,0,0,1496.24,960.59Z"/><path class="cls-19" d="M992.55,920.13a143.74,143.74,0,1,0,156.12-130.21A143.78,143.78,0,0,0,992.55,920.13Z"/><path class="cls-20" d="M1038,931.67a108.1,108.1,0,1,0,117.38-98A108.09,108.09,0,0,0,1038,931.67Z"/><path class="cls-20" d="M1746.59,716.31c-.82-.76-84.34-76.63-178.2-44.11L1557,639.42C1670.9,600,1766.2,687.2,1770.21,690.94l-23.62,25.36,11.8-12.68Z"/><path class="cls-20" d="M1079.28,630.94l-18.57-29.29c4.09-2.59,101.07-62.62,206-3.44l-17,30.21C1162.65,579.31,1080.11,630.43,1079.28,630.94Z"/><path class="cls-21" d="M1194,1114.83c-5.13,57.06,56.39,109.25,137.49,116.57s151-33,156.13-90.06-56.37-109.27-137.47-116.61S1199.12,1057.75,1194,1114.83Z"/><path class="cls-22" d="M1364.33,1132.85a41.3,41.3,0,1,0,44.87-37.41A41.36,41.36,0,0,0,1364.33,1132.85Z"/><path class="cls-22" d="M1234.53,1121.12a41.31,41.31,0,1,0,44.85-37.41A41.28,41.28,0,0,0,1234.53,1121.12Z"/><path class="cls-23" d="M1708.6,1177.05c-1.75,19.67,23.26,38,55.9,40.94s60.57-10.61,62.34-30.26-23.24-38-55.91-40.94S1710.37,1157.39,1708.6,1177.05Z"/><path class="cls-23" d="M887.52,1100.71c-1.8,19.66,23.22,38,55.89,40.94s60.54-10.59,62.34-30.26-23.25-38-55.89-40.92S889.26,1081.05,887.52,1100.71Z"/><path class="cls-20" d="M1370.92,1330.89c-61.51,0-106.4-37.24-107.12-37.83l14.94-17.62c4,3.33,98.24,80.78,196.51-15.16l16.18,16.54C1449.26,1317.93,1407.18,1330.89,1370.92,1330.89Z"/><polygon class="cls-24" points="876.82 2100.13 849.52 2057.37 1659 1540.01 1686.29 1582.77 876.82 2100.13"/><path class="cls-11" d="M1097.76,1881c5,12.72,33.07,64.9,54.47,62.21s21.72-52.5,21.72-52.5,52.44,34.07,59.26,18c3.72-51.35-30.1-97.23-30.1-97.23S1145.45,1832.17,1097.76,1881Z"/><path class="cls-11" d="M1634.49,1637.12s-40.79-52.61-31.68-80.39c4.77-14.51,49-3.31,49-3.31s-13.42-38.47,5.11-40.79c34.51-4.28,75.72,44.1,75.72,44.1Z"/><polygon class="cls-25" points="1013.04 2027.76 854.28 2130.19 809.39 2060.66 968.17 1958.24 1013.04 2027.76"/><path class="cls-26" d="M476.59,2118.21c114-16.88,324-171.13,324-171.13L967.62,2197.7S778.68,2358.41,616.29,2371Z"/><path class="cls-27" d="M940,2028.24a14.07,14.07,0,1,1-13.81-14.34A14,14,0,0,1,940,2028.24Z"/><path class="cls-9" d="M1314.63,1566.34c-80.41,93.16-45.79,177.49-45.79,177.49s72.88-67.35,63.11-153.69Z"/><path class="cls-28" d="M1382.66,1566.91a37.68,37.68,0,1,1-37.65-37.66A37.69,37.69,0,0,1,1382.66,1566.91Z"/><path class="cls-25" d="M800.55,1947.08s-190,139.55-306.67,167.65c118.46-11.45,299.07-129,299.07-129l134.95,204.4s-157.25,152.26-311.79,180.7l.18.2c162.39-12.63,351.33-173.34,351.33-173.34Z"/><path class="cls-23" d="M972.63,504.44a28.9,28.9,0,0,1-14.21-54.07c70-39.49,188.42-85.9,355.17-82.44a28.9,28.9,0,0,1-1.23,57.79c-154.08-3.29-261.86,39-325.54,75A28.64,28.64,0,0,1,972.63,504.44Z"/><path class="cls-23" d="M887.13,567A28.91,28.91,0,0,1,866,518.36a240.53,240.53,0,0,1,18.29-16.95,28.91,28.91,0,0,1,37.48,44c-9,7.61-13.52,12.41-13.58,12.46A28.89,28.89,0,0,1,887.13,567Z"/></svg>