<svg id="Layer_1" data-name="Layer 1" xmlns="http://www.w3.org/2000/svg" viewBox="0 0 421.91 566.93"><defs><style>.cls-1{fill:#f0accc;}.cls-2{fill:#b479a3;}.cls-3{fill:#f7a27e;}.cls-4{fill:#f37a46;}.cls-5{fill:#f05a41;}.cls-6{fill:#e97b4e;}.cls-7{fill:#8bc53f;}.cls-8{fill:#37b34a;}.cls-9{fill:#009345;}.cls-10{fill:#faaf40;}.cls-11{fill:#cd842a;}.cls-12{fill:none;stroke:#231f20;stroke-miterlimit:10;stroke-width:3.33px;}.cls-13{fill:#231f20;}.cls-14{fill:#dd3927;}.cls-15{fill:#f1f1f2;}.cls-16{fill:#e6e7e8;}.cls-17{fill:#d0d2d3;}</style></defs><title>11</title><path class="cls-1" d="M141.3,279.63s-6.11-69-66.74-110.95-62.71-34.8-62.71-34.8l3.25,16.19L0,157.63S79.77,279.37,105.42,283.19,140.82,291.49,141.3,279.63Z"/><path class="cls-1" d="M8.82,170.78c21.46,31.6,76.18,109.37,96.6,112.41,25.65,3.82,35.4,8.3,35.88-3.56,0,0-6.11-69-66.74-110.95C57.45,156.83,45,148.91,36,143.62,28.92,146.41,17.2,153.45,8.82,170.78Z"/><path class="cls-2" d="M11.85,133.88l3.25,16.19L0,157.63s3.32,5.06,8.82,13.15c8.38-17.33,20.1-24.37,27.13-27.16C12.92,130.19,11.85,133.88,11.85,133.88Z"/><path class="cls-3" d="M141.3,279.63s-6.11-69-66.74-110.95-62.71-34.8-62.71-34.8l3.25,16.19L0,157.63S79.77,279.37,105.42,283.19,140.82,291.49,141.3,279.63Z"/><path class="cls-4" d="M11.85,133.88l3.25,16.19L0,157.63s3.32,5.06,8.82,13.15c8.38-17.33,20.1-24.37,27.13-27.16C12.92,130.19,11.85,133.88,11.85,133.88Z"/><path class="cls-5" d="M8.82,170.78C3.32,162.69,0,157.63,0,157.63l6.9-3.46c2,2.67,4.13,5.58,6.44,8.67A66.87,66.87,0,0,0,8.82,170.78Z"/><path class="cls-6" d="M105.42,283.19c-20.42-3-75.14-80.81-96.6-112.41a66.87,66.87,0,0,1,4.52-7.94C37.39,195,77.49,247,89.63,259.1c10.07,10.09,33.85,18.73,51.12,24C138.35,290.45,128.11,286.57,105.42,283.19Z"/><path class="cls-3" d="M194.19,423.47S211.13,530,236.89,561.33l20.2-9.75,19.49,13.93s34.08-145.18,26-194.49l-74,35.73Z"/><path class="cls-6" d="M302.55,371c8.11,49.31-26,194.49-26,194.49L268.87,560c18.48-96,22.58-159.5,23.47-184Z"/><path class="cls-4" d="M257.09,551.58l-20.2,9.75a86,86,0,0,1-10.6-17.78c22.05,5.77,43.74,2,55.4-1.09-3,14.14-5.11,23-5.11,23Z"/><path class="cls-5" d="M281.69,542.46c-3,14.14-5.11,23-5.11,23L268.87,560q1.5-7.83,2.88-15.37C275.55,544,278.91,543.19,281.69,542.46Z"/><path class="cls-7" d="M204.11,487.52s50.19,15.32,92.66,0l11.14-73.8L194.19,437.39S196.47,472.19,204.11,487.52Z"/><path class="cls-8" d="M307.91,413.72l-11.14,73.8a105.45,105.45,0,0,1-16.23,4.41c4.46-29.83,7.28-54.74,9-74.39Z"/><path class="cls-3" d="M187,419.29S184,547.41,169.7,564.12l-15.55-8.74-17.43,8.74s-42.31-119-30.66-191.71Z"/><path class="cls-6" d="M187,419.29S184,547.41,169.7,564.12l-7-3.92c9.51-28.69,13-110.87,14.17-146.76Z"/><path class="cls-7" d="M99.69,419.29s6.65,41.78,11.7,67.54S187,491.7,187,491.7l3.81-59.88Z"/><path class="cls-8" d="M190.83,431.82,187,491.7s-6,1.78-14.64,3.66c1.92-22.73,3.15-46.71,3.9-65.54Z"/><path class="cls-5" d="M176.67,542.82c-2,9.55-4.26,16.73-7,19.9L163.14,559a127.25,127.25,0,0,0,3.17-13.25A73.16,73.16,0,0,0,176.67,542.82Z"/><path class="cls-4" d="M166.31,545.79A127.25,127.25,0,0,1,163.14,559l-9-5.06-17.43,8.74s-2.6-7.31-6.33-19.42A65,65,0,0,0,166.31,545.79Z"/><path class="cls-3" d="M246.81,277.91s17.48-85.42,88.25-117.85,71.83-22.65,71.83-22.65l-6,19.43,14.74,14.75S311.87,298.68,284.16,294.73,245.42,293.12,246.81,277.91Z"/><path class="cls-4" d="M406.89,137.41l-6,19.43,14.74,14.75s-4.32,5.29-11.42,13.67c-6.09-24.85-17.35-37.81-24.33-43.75C406.35,132.37,406.89,137.41,406.89,137.41Z"/><path class="cls-5" d="M406.89,137.41l-2.49,8q-8.07,2.72-15.59,5.68a60.07,60.07,0,0,0-8.94-9.61C406.35,132.37,406.89,137.41,406.89,137.41Z"/><path class="cls-6" d="M258.08,291.38c-8.61-1.65-12.09-4.53-11.27-13.47,0,0,17.48-85.42,88.25-117.85,20-9.16,34.39-14.95,44.81-18.55a60.07,60.07,0,0,1,8.94,9.61C293,189,265.81,255.94,258.08,291.38Z"/><path class="cls-3" d="M111.82,330.38c2.36-28.79,15.51-59.21,25.86-79.3,20.5,8.71,51.24,14.24,85.62,14.24a283,283,0,0,0,53.16-4.79c13.88,34.43,25.76,86.23,27.71,126.25,2.79,57.1-15.32,57.79-119.76,57.1S107.82,379.12,111.82,330.38Z"/><path class="cls-6" d="M137.68,251.08c7.18-13.91,13-22.86,13-22.86s87.32-20.39,107.51,0c6,6.1,12.33,17.62,18.25,32.31a283,283,0,0,1-53.16,4.79C188.92,265.32,158.18,259.79,137.68,251.08Z"/><path class="cls-6" d="M275.7,397.78c-2.82-63.28-25.58-152.46-46.17-178.4,12.5.71,23.14,3.23,28.68,8.84,20.2,20.38,43.17,101.47,46,158.56,1.71,35.09-4.47,48.88-33.73,54.13C275.45,431.27,276.58,417.48,275.7,397.78Z"/><path class="cls-7" d="M308.35,354.93s-26.52-19.48-35.28-44.34-150.28-17.63-161.25,4-15.92,101-7.36,131S307,471.21,308.35,415.51,308.35,354.93,308.35,354.93Z"/><path class="cls-8" d="M287.47,334.81a132.12,132.12,0,0,0,20.88,20.12s1.39,4.88,0,60.58c-.37,14.84-14.42,26-35,33.92C290.7,416.2,288.91,357.33,287.47,334.81Z"/><path class="cls-8" d="M238.6,347s-66.09,13.74-98.29-3.58c0,0-3.16,47.74,1.86,60.47,4.2,10.67,56,42.38,91,4.77C244.58,396.33,238.6,347,238.6,347Z"/><path class="cls-9" d="M227.57,348.87c6.82-1,11-1.91,11-1.91s6,49.37-5.45,61.66a57.11,57.11,0,0,1-14.93,11.65q1.51-1.84,3-3.9C229.36,404.89,228.64,368.63,227.57,348.87Z"/><path class="cls-8" d="M157.54,210.67s-22.32,101.44-4.79,119.8,21.7-36.77,21.7-36.77c-2.75-25.7-8.77-70.6-2-79.24S157.54,210.67,157.54,210.67Z"/><path class="cls-9" d="M173.89,214.79c-7,8.46-2.09,53.5,0,79.27,0,0-4.42,43.6-17.44,39.89,7.42-13.62,13.69-44.62,8.22-72.84-4.36-22.45,1.8-41.43,6.34-51.51C174.58,209.89,176.86,211.17,173.89,214.79Z"/><path class="cls-10" d="M150.52,319c0,2.95,1.33,5.34,3,5.34s3-2.39,3-5.34-1.32-5.34-3-5.34S150.52,316,150.52,319Z"/><path class="cls-11" d="M156.45,319a8.34,8.34,0,0,0-.55-3.08,6.54,6.54,0,0,1,1.53,4.6c0,2.88-1.28,5.22-2.85,5.22-.84,0-1.58-.68-2.1-1.74a1.8,1.8,0,0,0,1,.34C155.13,324.29,156.45,321.9,156.45,319Z"/><path class="cls-8" d="M225.56,214.79s-24.91,100.83-7.85,119.63,22.63-36.2,22.63-36.2c-2.09-25.77-7-70.81,0-79.27S225.56,214.79,225.56,214.79Z"/><path class="cls-10" d="M218.87,322.2c0,3.85,1.76,7,3.93,7s3.92-3.12,3.92-7-1.75-7-3.92-7S218.87,318.36,218.87,322.2Z"/><path class="cls-9" d="M240.34,219c-7,8.46-2.09,53.5,0,79.27,0,0-4.26,42.06-16.74,40,7.18-14.09,13-44.28,7.69-71.85-4.52-23.28,2.28-42.83,6.85-52.59C241.31,214.22,243.12,215.56,240.34,219Z"/><path class="cls-11" d="M221.31,327.54c1.86,0,3.37-3.35,3.37-7.48a14.46,14.46,0,0,0-.67-4.45c1.57.91,2.71,3.5,2.71,6.59,0,3.85-1.75,7-3.92,7-1.17,0-2.21-.93-2.93-2.37A2,2,0,0,0,221.31,327.54Z"/><path class="cls-1" d="M323.89,362.41c0,.5,0,1,0,1.45C323.9,363.39,323.9,362.91,323.89,362.41Z"/><path class="cls-3" d="M128.38,29.44c-5.59-.55-19.27-2-30.06-8.81S76.45,9.56,72.19,23.76s-.56,41.18,21.87,54.52Z"/><path class="cls-5" d="M121.4,39.38s-16.26-.57-28.76-6.82S75.89,36,81.57,48.47s11.6,22.62,18,22Z"/><path class="cls-3" d="M209,8.16C243.29,13,260.81,9.55,280.72,27s32.65,26.46,45.39,52.92S349.21,153,343.63,185,315,254,234.52,251.17,62.28,257.93,67.28,165.52c3.87-71.77,27.47-150.35,90-153.18S209,8.16,209,8.16Z"/><path class="cls-6" d="M308.71,195.55c5.38-36.66-4.61-90-16.91-120.32S267.21,34.6,248,14.68c-.44-.45-.87-.88-1.31-1.31,13.33,1.76,23.91,4.9,35.25,14.82,19.92,17.41,32.66,26.46,45.4,52.91s23.1,73.12,17.52,105.15C340.58,210.84,326,238.31,283,248.47,299.06,233.72,306,213.93,308.71,195.55Z"/><path class="cls-12" d="M229.4,10.5h0Z"/><path class="cls-5" d="M228.36,160.07c0,22.23,17.77,40.25,39.69,40.25s39.69-18,39.69-40.25S290,119.81,268.05,119.81,228.36,137.84,228.36,160.07Z"/><path class="cls-5" d="M63.51,154.6c0,15.71,10.64,28.45,23.77,28.45S111,170.31,111,154.6s-10.64-28.45-23.76-28.45S63.51,138.88,63.51,154.6Z"/><path class="cls-6" d="M266.82,118.59s-72.06-2.62-68.35,68.86C198.47,187.45,183.38,108.2,266.82,118.59Z"/><path class="cls-6" d="M84.73,125.67s46.82-2.1,44.4,55.2C129.13,180.87,138.94,117.34,84.73,125.67Z"/><path class="cls-1" d="M216.33,17.23h0Z"/><path class="cls-13" d="M126,114.36a7.34,7.34,0,0,1,2.5-.77,3.5,3.5,0,0,1,3.42,2.6c.49,1.8-.52,3.15-1.7,4.33a3.48,3.48,0,1,1-4.93-4.92l.47-.48.18-.2a3,3,0,0,0-.74,1.27c.12.89.24,1.79.35,2.68l0,0,2.08,1.6,1.62,0c.58-.25.67-.29.28-.1a3.54,3.54,0,0,1-4.76-1.25,3.49,3.49,0,0,1,1.25-4.76Z"/><path class="cls-13" d="M213.4,118.06a3.23,3.23,0,0,0-.88-2.14l.06.06a2.44,2.44,0,0,0-1.12-.68c.6.21-1,0-.15,0a3.48,3.48,0,0,1,0,7c-2.48-.08-4.76-1.51-4.87-4.18a3.5,3.5,0,0,1,3.48-3.48,3.54,3.54,0,0,1,3.48,3.48Z"/><path class="cls-4" d="M132.36,153.66c0,14.24,12.37,25.79,27.62,25.79s27.62-11.55,27.62-25.79S175.24,127.88,160,127.88,132.36,139.43,132.36,153.66Z"/><path class="cls-5" d="M160,179.45c15.26,0,27.62-11.55,27.62-25.79a24.39,24.39,0,0,0-4.18-13.58A24.76,24.76,0,0,1,191,157.75c0,14.24-12.36,25.78-27.62,25.78a28,28,0,0,1-23.44-12.2A28.44,28.44,0,0,0,160,179.45Z"/><ellipse class="cls-14" cx="146.05" cy="154.15" rx="3.83" ry="8.12"/><path class="cls-6" d="M146.05,146a2.11,2.11,0,0,1,1.22.43c-1.51,1.09-2.61,4.12-2.61,7.7s1.1,6.61,2.61,7.7a2.09,2.09,0,0,1-1.22.42c-2.11,0-3.82-3.64-3.82-8.12S143.94,146,146.05,146Z"/><path class="cls-14" d="M156.5,154.15c0,4.48,2.29,8.12,5.11,8.12s5.1-3.64,5.1-8.12-2.28-8.13-5.1-8.13S156.5,149.66,156.5,154.15Z"/><path class="cls-6" d="M161.61,146a3.47,3.47,0,0,1,1.73.5c-2,1.13-3.36,4.12-3.36,7.63s1.4,6.49,3.36,7.63a3.46,3.46,0,0,1-1.73.49c-2.82,0-5.11-3.64-5.11-8.12S158.79,146,161.61,146Z"/><path class="cls-6" d="M180.17,131.29s-12.88-11.34-34.12-3.41C146.05,127.88,166.59,113.18,180.17,131.29Z"/><path class="cls-6" d="M275.63,25.63c6.86-.68,23.62-2.44,36.86-10.79s26.8-13.58,32,3.83.7,50.48-26.8,66.84Z"/><path class="cls-5" d="M283.83,37.28s20.3-.16,35.62-7.82S340,33.64,333,49,318.8,76.69,311,76Z"/><path class="cls-3" d="M122.05,222c-3.6,18.4,13.6,37.25,38.42,42.11s47.84-6.14,51.44-24.54-13.6-37.25-38.41-42.11S125.65,203.58,122.05,222Z"/><path class="cls-6" d="M160.76,258.17C185.57,263,208.6,252,212.2,233.63c.05-.24.08-.48.12-.71a25.54,25.54,0,0,1-.41,6.63c-3.6,18.4-26.63,29.39-51.44,24.54-24.5-4.79-41.56-23.22-38.54-41.4C123,238.79,138.93,253.9,160.76,258.17Z"/><path class="cls-14" d="M164.18,203.56c-16.78-2.65-20.85,15-15.41,27.2s48.28,8.84,36.72-5.44S172.79,204.92,164.18,203.56Z"/><path class="cls-15" d="M167.58,211.72c-2.2,1.2-11.5,2.5-16-5,2.89-2.63,7-4,12.58-3.12a13.42,13.42,0,0,1,4.43,1.43C168.81,208.14,168.68,211.12,167.58,211.72Z"/><path class="cls-16" d="M265.16,2.32s-15.32,32.79-13,43.93,23.21,20.89,30.64,1.86S265.16,2.32,265.16,2.32Z"/><path class="cls-17" d="M265.16,2.32s-.68,1.47-1.74,3.87c6.81,8.68,18.78,26.74,13.35,40.67-3.09,7.91-8.5,10.84-13.94,10.77,7.07,2.83,15.72,1.37,20-9.52C290.23,29.08,265.16,2.32,265.16,2.32Z"/><path class="cls-15" d="M279.74,42c2.12.53-1.16,12.76-3.49,10.91s-3.94-7-1.62-8.59S277.88,41.57,279.74,42Z"/></svg>