<svg id="Layer_1" data-name="Layer 1" xmlns="http://www.w3.org/2000/svg" viewBox="0 0 1303.33 1970.99"><defs><style>.cls-1{fill:#de886c;}.cls-1,.cls-10,.cls-11,.cls-12,.cls-2,.cls-3,.cls-4,.cls-5,.cls-6,.cls-7,.cls-8,.cls-9{fill-rule:evenodd;}.cls-2{fill:#854f79;}.cls-4{fill:#c7c4e2;}.cls-5{fill:#f48580;}.cls-6{fill:#fff;}.cls-7{fill:#f9aa8f;}.cls-8{fill:#a66898;}.cls-9{fill:#f05b72;}.cls-10{fill:#e6e7e8;}.cls-11{fill:#9b95c9;}.cls-12{fill:#fbc8b4;}</style></defs><title>licensed</title><path class="cls-1" d="M437.94,1922.12l12.82,19.62c16.32-14.5,1.83-13.22,10.46-22.63,4.7-5.13,21-3.91,29.18-4.55-9.79,5.79-13.94,5.45-28.1,5.5l-1.62,27.25c-14.88-5.51-18.05-9.49-22.74-25.19Zm52.46-7.56,33.17-15.12-33.17,15.12Zm33.17-15.12c1.89-1.23.6-2.28,9.93-5.16,5.22-1.61,3.14-.7,7.72.12l-17.65,5Zm146.88-427.57,7.85,7.21c3.36,3.49,3.28,4,7.12,7.78,6.59,6.51,7.45,7.11,15.18,11.26,16.23-6.88,13.64-9.08,23.94-21.21,3.27-3.87,3.3-3.49,6-5.77-10,19.34-15.94,20.51-29.94,32.26-10.65-10-21.77-17.06-30.15-31.53Zm-14.9-23.48c2.33,7.24,1.81,7.06,6,13.55.6.93,2.48,3.5,3.15,4.3,7.24,8.83.36.88,5.77,5.63l-9.55-16.72c-.47-.68-1.23-1.69-1.67-2.29l-3.68-4.47Zm75,22.75c10-11.27,16.14-25.39,15.47-40.83-.62-14.14,0-7.94-4.52-14.7,4.43,34.53-3,30.93-11,55.53Zm-78.78-47.71,3.79,25c-6.36-8.64-9.33-14.39-3.79-25Zm41.47-1.2c8.92,4.22,2.35-3,6.06,4.81,4.34,9.1-2.25,5.67-3.55,6.24l-2.51-11Zm-7.66-10.47,7.66,10.47c-2.94-9.65-1.35-6.1-7.66-10.47Zm-33.81,11.67,9.79-12,24,.32c-3.13-3.51,5.56-3.22-8.51-5.78-4.6-.83-6.66,0-10.55,1.47-9.89,3.65-11.19,6.72-14.75,16Zm55.88-11.15c.41-3.8,15.3-16.25,31.51-.16-16.78-6.18-14.47-5.74-31.51.16Zm-269.7,509.84c-22.13-5.51-43.52,1.08-67.76-1.37,4,11.51,12,23.51,18.63,31.67A298.05,298.05,0,0,1,408,1978c26.54,4,138.77-1.85,158.13-10.47,26.14-48-3.19-171.61,9.52-219.67,24.88-2,33,22.86,143.87,19.78,25.14-.7,51.68-2.26,76-5.37,15.65-2,63.57-14.43,63.7-14.42.85,1.87,1.76.76,3.08,9.05,10.66,67-41.2,161.91,55.94,169.18,29.65,2.23,45.74-6.86,69.38-5.8,1.8,6,2.4,10,3.71,14.39,6.11,20.54-.18,5.68,6.87,13,17.45-12.87,2.75-26.23,40.14-29.17-3.5,2.08-.44,1-7.51,3.46-43.14,15.24-5.87,19.81-38.89,30.24l-5.39-28.92c-67.53,6.52-83.38,18.18-128.15-24.12l-1.2,64.74c109.49,25.92,60.67,16.93,171.71,11.4,9.72-28.83,51.57-84.49,69.16-113.69,59-97.89,115.5-326.08,110.41-438.65l-74-47.31C1066.88,1332.89,908.6,1297.81,847,1302c-26.62,41.61-9.6,42.43-37.07,53.77A227.1,227.1,0,0,1,741.13,1372c-50.33,4.08-110.67-1.2-151.82-18.44l-15.7-43.88c-26.92,4.94-69.74,2.26-102.21,7-73.47,10.72-193,37.54-243.26,83.78-1.73,75.87,28.85,210.91,49.42,280.33,7.65,25.79,67.21,225.69,95.22,235.79C389.86,1920.78,432.62,1908.94,437.94,1922.12Z" transform="translate(-20.67 -19.69)"/><path class="cls-1" d="M664.9,704.31c-2.72-12.71-2.82-9.6,11.87-18.23,28.91-17,72.68-8,74.1,14-16.44,3.32-13.24-12.45-42.58-11.52-25.2.8-27.11,13.58-43.39,15.7Zm-181-110.16c4.76-4.63,7.56-8.14,13.77-12.25,11.55-7.65,5,.48,13.5-9.76-23.07-19.54-50.7,37.1-52.76,46.15,20.19,5.08,6.07-2.84,20.79-10.34,48.75,44.57,6.73,44.51,90.06,48.91,42.09,51.66,82-3.25,111-16,46.27-20.29,80.7,39.92,133.88,35,8.83-8.81,5.67-12,17.8-19.42,22.39.15,48.13,2.76,67.12-7.13,18-9.37,22.47-24.53,30.74-36.57l3.46-3.72c9.66,8.66,10.72,16.93,25.36,17.51-1.09-15.93-12-21.5-21.71-29.19-24.61-19.53-14.77-16.62-31.31-19.75,3.11,13,8.54,16,15.39,23.51-13.61,45.25-45.41,45.59-87.54,43.53,18.09-97.61-94.87-175-132.41-170.47-28.81,3.49-79.84,41.5-93.88,59.72-22.59,29.33-40.3,62.21-42.65,111-42.66,2.2-41.88,2.06-80.63-50.69Zm86.37-312.41c27.13-14.05,58.45,4,70.43,19,13.67,17.14,19.87,46.27,24.5,72.87,12.67,72.86-15.79,103-74.93,117C529.93,505,483.42,467.44,496,404c8.34-42.12,38.31-103.61,74.26-122.23Zm236.25-7.88c40.37-16.71,87.75,28.6,101.67,89.24,45.27,197.25-159.77,145.78-164.24,46.72-1.48-32.92,18.28-117.63,62.57-136Zm239.54-51.44c-2,4.14-2.52,5.94-5.36,9.46-3.69,4.59-2.53,2.47-7.19,5.42Zm0,0c4.18-3.6,1.07,4.28,6-6.56l-6,6.56Zm-64-46c-4.53,21.59-19.14,44-8.65,65.54,22.45,13.56,23.08-4.26,38.35-12.3-4.35,10.79-7.07,12.56-6.51,26.63l19-8.31c-3.68,4.26,2,6-20.87,10.59l-6.07-13.34c-13.32,8.46-16.14,6.73-28.82-1.93-2.47-15-2.43-22.92,1.37-37.61a153.12,153.12,0,0,1,5.28-16.77Zm0,0,15.08-29.07L982,176.37Zm15.08-29.07,7.33-11.86-7.33,11.86Zm7.33-11.86,7.67-10.84-7.67,10.84Zm7.67-10.84c8.46-16.29,8.64-14,17.3-18.87l-15.26,17.13c-.27-.61-1.35,1.17-2,1.74Zm-630.4-7.73L393,131.45l7.43,11.34,5.25,6.46c28.6,44,9.22,75.73,31,91.56-.05,55.67-21.57,11.24-7.16,131.68,2,16.35,6.21,32.9-6.62,42.35l-7.2-21.36c-20.6,50-66.86,56.65-73.15,166.31C336.78,660.29,378.73,751,432.94,823.7c44.67,59.88,211.33,67.53,282.7,65.41,81.91-2.44,127.35-11.53,193.59-41.79,49.32-22.54,107.1-60.88,128.59-104,20.41-40.92,38.63-144.68,35.64-198.58-4.86-87.71-56.67-83.09-66.48-169.24-4.39,12.39-3.08,24.47-9.91,33.46-5.92-3.68-10.29,3.33-3.46-32.63,2.07-11,5.32-23.14,7.28-34.3,5.78-33.13-.79-42.29-4.93-71.92,20.7,4.36,15.92,19.66,19.55,59.8,61.69-15.12,79.81-62.26,87.46-118.92,7.14-52.82,15.49-111,57.32-145.35-17.9,2.46-39.16,11.09-61.29,14.77-25.82,4.3-43.89,2.07-60.65,17.39l-3.75-8.69c-105.11,14.47-83.65,36-109.2,79.43-14.43-3.61-33.28-14-49.58-20.37-54.6-21.32-107.32-34.6-167.84-33.7-111.84,1.65-144.86,37.33-210,63.81-22.2-14.41-26.8-43.29-59.41-73.28-21.13-19.42-43.93-22.35-71.79-29.46s-21.22-.83-22.2-.32Z" transform="translate(-20.67 -19.69)"/><path class="cls-2" d="M175.21,1265.47c.36-18.09,4.54-36.81,11.95-49l-11.95,49Zm-41.33-60.16c-.93,17.12-6.16,32.93-7.35,48.9-1.23,16.61-.13,36,0,52.87C115.37,1283,123.15,1225.42,133.88,1205.31Zm0,0,8.52-26.19-8.52,26.19Zm67.64-30.39-8.64,19.35Zm0,0,8.44-18.13-8.44,18.13Zm-41.41-44.63-16.38,37.5,16.38-37.5ZM104,1145.66,115.25,1115,104,1145.66ZM115.25,1115l7.37-18.2-7.37,18.2Zm97.18,33.87c3.16-13,23.88-57.93,35.09-68.11l-35.09,68.11Zm-52.32-18.55L194,1062.85c-4.18,14.15-26.37,57.87-33.87,67.44Zm105.15-82.59-16.46,26.24,16.46-26.24ZM194,1062.85,209,1037,194,1062.85ZM209,1037l7.33-12.22L209,1037Zm-86.42,59.78c3.27-13.83,10.83-27.86,16.89-39.79,3.61-7.11,6.62-13.11,10.2-19.69l11-16.62c-4.64,13.56-12.16,24.74-19,38.39l-19.07,37.71Zm49.81-94.92-9.53,12.63,9.53-12.63Zm43.94,22.92,19.13-29.14-19.13,29.14Zm-33.82-41.44-8.46,12.3,8.46-12.3Zm52.95,12.3,18.43-27.31a83.5,83.5,0,0,1-8.33,14.61c-.53.8-4.59,6.59-4.6,6.6-4.59,6-3.18,3.73-5.5,6.1Zm-52.95-12.3,11.68-17.71-11.68,17.71ZM351.6,953.57l-9.5,30.73c-.62-13.43,3.28-21.55,9.5-30.73Zm-97.67,14.75,7.57-10.69-7.57,10.69Zm-59.7-2.7,7.39-11.16-7.39,11.16Zm67.27-8,11.25-15.1-11.25,15.1Zm90.1-4.06L359.11,935l-7.51,18.58Zm-78.85-11,8.9-10.49-8.9,10.49Zm-71.13,11.93,18.53-27.06c-3.09,7-4.37,8.76-8.17,14.32-1.11,1.63-3.89,5.62-4.66,6.62-6.89,8.86-1,1.61-5.7,6.12Zm18.53-27.06Zm139,7.59,8.21-21.39c.24-.36,1.46-.58,1.65-1.58s1.12-1,2-1.31L359.11,935Zm-63.74-22.31-12.64,14.67,12.64-14.67Zm135-18.49L404,973.41c2.88-22.26,16.15-64.47,26.33-79.22Zm-187.82,3-12.33,14.91,12.33-14.91Zm52.85,15.52,14.79-19.17-14.79,19.17Zm-52.85-15.52L254,882.38l-11.46,14.78Zm187.82-3,8.54-18.68-8.54,18.68Zm-120.18-.68,15.25-18.3-15.25,18.3Zm146.71-22.66,14.2,20.53-14.2-20.53Zm-77.29,22.61c.05-7.93.65-12.74,8.2-23.3l-8.2,23.3ZM254,882.38l16.21-18.61L254,882.38Zm71.43-7.17,19.48-22.93c-4.14,6-6.27,9-9.93,13.56l-7.37,7.77c-.28-.63-1.45,1.07-2.18,1.6Zm-36.43-34-17.69,18.18L289,841.19ZM415.41,823l-13.33,26.52c.93-12.18,2.24-14.39,13.33-26.52ZM347.09,849.2c9-12.94,13.48-20.2,24.07-27.1l-24.07,27.1Zm-32.2-38.14c-5.24,7.14-7.1,8.94-12.07,15-7,8.63-3.24,5.57-12.58,11.27l24.65-26.31ZM104,1145.66c-2.8,22.72-13.24,50-17.92,76A406.53,406.53,0,0,0,79.71,1308c39.82,11.2,40.32,19.07,48.74,1.77l5.47,12.12,41.2.55c-1.79-17.66-7.57-39.53.09-56.93l3.53,57,27-1.39c13.39-24.43,22.42-105.18,30.26-141.21,10.75-49.36,26-89.35,38.15-135-4.79,2-5.3-2.11-8.87,2.83,5.6-16.28,17.61-31.32,26.89-48.1,13.88-25.08,10.66-38.66,25.67-44.55,6.08,10.11-7.92,33.58-13.4,45.6-48.46,106.3-84,268.56-78,383.06l68.31-32.9c1.53-23.2-3.2-64.2-3.2-93,0-73.19,10.12-144.44,29.14-215,1.7-6.29,3.66-14,5.71-20.63l6.62-13.87c-3.61,23.36-13.81,52.24-19.25,76.87C293.1,1178.51,291,1249.39,298.87,1346l66.38-19.66c-1.56-61.59-1.25-128.88,7-187.64,6.38-45.59,9.66-78.67,20.5-125.31,3.75-16.13,4.36-25.62,11.68-38.29-3.51,26.16-12.17,54.44-17.26,82.33-17.5,95.9-20.57,166.16-18.12,267.15l71.72-13.62c-1.94-76.73-2-154.69,6.87-228.66,5.75-47.89,13.91-101,27.65-147.52,9.66-32.71,3.62-28.54,15.14-40.67l4.47-19.23-45.67-18.42,7.68,14.44L452.79,867c-10.88-6-6.57-2.46-11.5.6,2.33-22.1-13.46-33.5-25.88-44.53l-12.6-21.78c-4.25-4.51-1.93-1.85-6.5-4.88l.32-3.77-22.52-38.06c-18.21,11.51-28,30.53-46.67,41l45.72-43-10.35-27.69c-8.1,3.81-55.5,40-62.46,46.38-16,14.73-34.61,40.48-50.05,58.73-26.9,31.78-62.52,84.83-85.79,128.1-26.74,49.73-47.53,92.09-69.58,148.09-11.57,29.4-48,139.32-44,170.37,6.91,13.62,10.26,18.1,24.64,24.83C75.72,1259.38,85.42,1174.26,104,1145.66Z" transform="translate(-20.67 -19.69)"/><path class="cls-3" d="M437.94,1922.12c-5.32-13.18-48.08-1.34-65.16-5.58-28-10.1-87.57-210-95.22-235.79-20.57-69.42-51.15-204.46-49.42-280.33,50.22-46.24,169.79-73.06,243.26-83.78,32.47-4.73,75.29-2.05,102.21-7l15.7,43.88c41.15,17.24,101.49,22.52,151.82,18.44a227.1,227.1,0,0,0,68.76-16.22c27.47-11.34,10.45-12.16,37.07-53.77,61.64-4.17,219.92,30.91,287.46,73.65l74,47.31c5.09,112.57-51.46,340.76-110.41,438.65-17.59,29.2-59.44,84.86-69.16,113.69-111,5.53-62.22,14.52-171.71-11.4l1.2-64.74c44.77,42.3,60.62,30.64,128.15,24.12l5.39,28.92c33-10.43-4.25-15,38.89-30.24,7.07-2.49,4-1.38,7.51-3.46-37.39,2.94-22.69,16.3-40.14,29.17-7-7.29-.76,7.57-6.87-13-1.31-4.41-1.91-8.39-3.71-14.39-23.64-1.06-39.73,8-69.38,5.8-97.14-7.27-45.28-102.16-55.94-169.18-1.32-8.29-2.23-7.18-3.08-9.05-.13,0-48,12.42-63.7,14.42-24.3,3.11-50.84,4.67-76,5.37-110.9,3.08-119-21.74-143.87-19.78-12.71,48.06,16.62,171.62-9.52,219.67C546.74,1976.16,434.51,1982,408,1978a298.05,298.05,0,0,0-19.16-25.59c-6.66-8.16-14.63-20.16-18.63-31.67,24.24,2.45,45.63-4.14,67.76,1.37ZM43.76,1347.94c-1.55-1-3.89-5.87-5.76-7.57l6.3-49.06c42.7,42.78,74.91,42.76,153.14,42.06-14.45,29.75-44.63,67.21-63.78,89.51-21.47,25-86.58-14.74-101.27-30L35.61,1355c4.06-8.6-1.11-4.8,8.15-7Zm864.65-56.35c4.18-12.7-.24-14.22,3.84-29.36.22-.83,1.42-1.19,1.62-2.86s1.26-1.81.56-2.75l-.37,38.88,105.6,22.78c.91-8.22,2.76-19.49,3.51-27.71.78-8.65.18-20.08.16-29-.07-23,0-36-2.94-56.56l-45.84-2.9c-10.44,9.91-5.31,12.48-19.43,21.27-36.6,22.76-61.1,13.34-85-6.07l-17.86,72.42,53.21,3c.53-1.11,2-.7,2.92-1.09Zm206.21-94.87c7.8,59.31,10,101,12.64,163.19,24.85,9.95,39.2,28.85,82.55,47.27,1.29-52.4-2.93-192.63-25.72-227.61l-69.47,17.15Zm-90.58,9c4.22,58.38,3.2,55,.59,114.35a344.37,344.37,0,0,1,50.24,13.66c17,6.08,31.44,15.28,48.13,19.73-.15-43-.8-119.27-13.43-153.83l-85.53,6.09ZM527.31,1166c.33,46.2,8.81,90.61,15.09,133.44l26,.78L527.31,1166Zm411-63.36,1.17,70.51c-9.63,7.84-4.29,5.76-16.86,8.3-18.4-20.11-20.53-91.85,15.69-78.81Zm51.88,31.41,7.19-2.67c0-25.73.53-43.23,6.12-65.69,6.45-25.9,13.25-29.7,31.5-39.76-1.73,63.74-14.83,119.36,20.58,166.54-17.26,2-77.76.71-91.9-6.24-23.39-11.49-13-83.4-10.69-88.59,4.78-10.74,37.29-36.91,48.7-42-1.69,15.13-7.89,70.1-11.5,78.41Zm-113.73-53.74,4.15-145.15c-118.3-6.38-232.54-14.58-349.41,2.73-26.32,123.18,19.92,287.06,60.53,391.19,7.49,19.19,14.84,19.65,35.67,24.21,47.17,10.32,115.89,11.92,159.75-1.42,41.67-12.67,53.88-63.74,65.35-111,4.74-19.49,4.34-33.14,13.21-44,17.86,8.22,17,26.41,45,27.54,16.53.67,39.59-5.6,48.94-23-6-11.11-5.9-5.29-15.14-15.13-30.09,9.67-39.76,6.44-45-29.92-4.75-33.19,3.09-50.64,18.93-68.3l26.8,1.85c6.41-11.56,9.13-10.74,16.66-20.26-33.05-29.37-72.46,9.62-85.48,10.57Zm-103.38-163-2.6-20.53L839.8,887l13,34.47-79.72-4.15ZM625.76,899.92c22.51-2,49.2,1.35,72.36,1.58,21.37.22,47-4.26,70-2.71l.11,18.21c-52.49-1.89-91.53-.53-143.85,1.73l1.42-18.81Zm-5.17,16.48c-1.74.38-3.11,0-3.7,1.29l-67,6.64,8.19-33.25,64.35,7.22-1.87,18.1Zm-130.2-22.34c-.95,20.81.25,8.88-6.31,23.64-39.1,87.85-40.58,301.36-39.85,390.68l95-9.48c-14.61-76-11.22-128.51-18.64-183.82-18.56-138.19.74-125.15-1.53-182l-4.53-4.43c18.58-1.72,26.69-.24,31.91-9,3.94-6.66,6.68-22.66,7.43-30.19l-55.52-11.95-7.92,16.62Zm731.82,37c6.31-10.41,8-23.71,9.15-38.75,16.39,10.16,38.07,49.53,39.48,58.19,4.2,25.91-15.14,50.75-22.24,71.27.61-.69,1.62-2.62,1.86-2,2.79,6.64,24.57-57.25,24.88-58.25,38.1,56.58,3.53,142.72-30.43,168.77-36.11,27.69-109.11,63.69-172.79,60.16-12.38-9.54-12.71-13.79-21.74-29.24,4-4.61-.27-2.15,5.93-5.75l23.25-10.19c-15.39,2.47-17.79,7.92-31.61,5.67-4.51-20.35-9.28-47.34-2-62-7.67-13.39-1.67-42.35.75-59.92,3.87-28.08,50.93-53.8,73.87-68.08,13.56-8.44,32.1-20.47,41.71-29.66-12.73-20.56-3.25,10.43-13.85-16.51-7-17.83-3.74-19.94-18.21-49l-13-20.84c8.82,27.77,28.33,47.5,29.91,82.65-9.47,9.64-45.52,35-60,38.12-5,11-25.33,22.86-35.86,31-13.19,10.24-25.06,20.9-41.43,30.24l-5.19-24.25c2.12,38.63,8.23,26-30.5,59-31.78-12.69-24.44-16.06-67.13-10.32l-7.57-65.75c-4.25,9.34-6.32-8.43,1.17,31.39,2.5,13.27,2.86,18.71,2.49,34.37L889,1061.9c-2.37-42.09,12.91-105.34-.18-135L854.67,920,843.49,886.4l86.32-35c-.88,1.4-4.44,7.49-4.47,7.61-2.2,7.48-1.91,0,.43,4.09,8-10.84,15.68-17.25,28.08-22.28l2.47-3.29c13.72-14.64,31.79-20.21,47.1-38l12.33,8-4.61-11.15c8.42-12.17,21-21,26.68-34.65l12.26.48-5-13.11c23.75,7.05,114.07,61.56,139.21,88.66,54.33,58.54,44.68,24.79,37.89,93.29ZM415.41,823l-12.6-21.78c-4.25-4.51-1.93-1.85-6.5-4.88l.32-3.77-22.52-38.06c-18.21,11.51-28,30.53-46.67,41l45.72-43-10.35-27.69c-8.1,3.81-55.5,40-62.46,46.38-16,14.73-34.61,40.48-50.05,58.73-26.9,31.78-62.52,84.83-85.79,128.1-26.74,49.73-47.53,92.09-69.58,148.09-11.57,29.4-48,139.32-44,170.37,6.91,13.62,10.26,18.1,24.64,24.83.15-42,9.85-127.15,28.44-155.75-2.8,22.72-13.24,50-17.92,76A406.53,406.53,0,0,0,79.71,1308c39.82,11.2,40.32,19.07,48.74,1.77l5.47,12.12,41.2.55c-1.79-17.66-7.57-39.53.09-56.93l3.53,57,27-1.39c13.39-24.43,22.42-105.18,30.26-141.21,10.75-49.36,26-89.35,38.15-135-4.79,2-5.3-2.11-8.87,2.83,5.6-16.28,17.61-31.32,26.89-48.1,13.88-25.08,10.66-38.66,25.67-44.55,6.08,10.11-7.92,33.58-13.4,45.6-48.46,106.3-84,268.56-78,383.06l68.31-32.9c1.53-23.2-3.2-64.2-3.2-93,0-73.19,10.12-144.44,29.14-215,1.7-6.29,3.66-14,5.71-20.63l6.62-13.87c-3.61,23.36-13.81,52.24-19.25,76.87C293.1,1178.51,291,1249.39,298.87,1346l66.38-19.66c-1.56-61.59-1.25-128.88,7-187.64,6.38-45.59,9.66-78.67,20.5-125.31,3.75-16.13,4.36-25.62,11.68-38.29-3.51,26.16-12.17,54.44-17.26,82.33-17.5,95.9-20.57,166.16-18.12,267.15l71.72-13.62c-1.94-76.73-2-154.69,6.87-228.66,5.75-47.89,13.91-101,27.65-147.52,9.66-32.71,3.62-28.54,15.14-40.67l4.47-19.23-45.67-18.42,7.68,14.44L452.79,867c-10.88-6-6.57-2.46-11.5.6,2.33-22.1-13.46-33.5-25.88-44.53ZM381.72,116.87c-4.2-2.89-2.87-1.3-8.17-6.87-9.38-9.84-28-34.35-41.3-40.83-6.76-3.3-68.49-18.14-78.64-19.88,14.53,24.32,28.24,27.47,42.54,66.87,29.2,80.38,25.56,220.77,114.57,210.29.41-36.56,13.49-54.57,15.22-87-8.69,6.27-9.87,10.42-21.43,5.13l15.72-2.7c12.23-39.48-9.7-67.52-19.76-99.12l5.25,6.46c28.6,44,9.22,75.73,31,91.56-.05,55.67-21.57,11.24-7.16,131.68,2,16.35,6.21,32.9-6.62,42.35l-7.2-21.36c-20.6,50-66.86,56.65-73.15,166.31C336.78,660.29,378.73,751,432.94,823.7c44.67,59.88,211.33,67.53,282.7,65.41,81.91-2.44,127.35-11.53,193.59-41.79,49.32-22.54,107.1-60.88,128.59-104,20.41-40.92,38.63-144.68,35.64-198.58-4.86-87.71-56.67-83.09-66.48-169.24-4.39,12.39-3.08,24.47-9.91,33.46-5.92-3.68-10.29,3.33-3.46-32.63,2.07-11,5.32-23.14,7.28-34.3,5.78-33.13-.79-42.29-4.93-71.92,20.7,4.36,15.92,19.66,19.55,59.8,61.69-15.12,79.81-62.26,87.46-118.92,7.14-52.82,15.49-111,57.32-145.35-17.9,2.46-39.16,11.09-61.29,14.77-25.82,4.3-43.89,2.07-60.65,17.39l-3.75-8.69c-105.11,14.47-83.65,36-109.2,79.43-14.43-3.61-33.28-14-49.58-20.37-54.6-21.32-107.32-34.6-167.84-33.7-111.84,1.65-144.86,37.33-210,63.81-22.2-14.41-26.8-43.29-59.41-73.28-21.13-19.42-43.93-22.35-71.79-29.46s-21.22-.83-22.2-.32l37.17,41.63ZM290.39,47c-42.31-10.66-66-27.19-77.43-27.26,4.09,36.38,59.62,17.66,91.46,171,35.12,169.11,64.13,131.66,108,151.42,9.34,36.94-13.94,61.18-30.53,82.78-93.85,122.19-33.22,223.72-26.5,288.74-7.48,6.39-10,9.64-18.14,15.69l-36.57,27.31C193.39,861.31,98.37,1035.07,58.23,1182,45.59,1228.3,16.8,1349.47,21.1,1396.67c13.69,19.36,89.26,63,117.58,38.66,6.91-5.95,13.36-18.07,19.84-25.38,19.28-21.75,37.54-49.78,52.54-75.56,4.93,27.95,4.8,70.59,7.8,101.59,14,144.47,53.77,285.31,106.36,418.68,10.26,26,54.33,120.62,78.11,132.55,15.36,6.42,154.5-1.22,168.62-8.9,11.19-8.23,12.33-35,13.86-48.23,8.29-71.75-4.28-139.95-.33-168.2,52.22,15.11,74.17,18.73,133.88,17,39.85-1.13,96.65-4.13,130-16.5,10.05,50.39-8.79,149.64-2.6,209.08,83.8,25.21,97.05,20.38,189,14.34,21-49.33,62.38-90.53,94.71-163.07,55.63-124.81,87.77-279.32,90.65-418.61,1.22-59-4.53-182.64-25.1-228.92,20.32-18.29,75.92-33.78,98.89-99.57,20.22-57.91-2-112.28-27.37-155.84-47.29-81.28-130.2-140.5-213.65-180.58,2.27-24.55,18.1-67.7,23.54-98.74,36.34-207.3-58.11-152-60.54-297.44,35.45-18.19,59-24.62,75.78-55.36,43.39-79.58-7.23-139.62,94.24-232.23,8.18-7.47,25.54-20.66,26.48-34.73-13.07.15-23,13.91-32.88,20.2-36,22.82-84.68,29.43-127.52,34.46-90,10.58-102.9,12.14-134.29,78-31-9-62.21-25.62-98.77-35.63-79.14-21.66-154.43-19.15-231.85,6.78-48.66,16.3-71.12,33.57-90.9,40.72-39.18-54.08-36.43-78.38-118-98.42C349.09,59.51,319.2,54.21,290.39,47Z" transform="translate(-20.67 -19.69)"/><path class="cls-4" d="M574.51,968.85c1.23-11.25,114.37-28.56,128.12-26.7,115.19,15.54,110.9,12.77,143,20.37-4.4,11.67-10.07,9.63-26.6,12.44-30.22,5.16-83.11,14-110.9,13.94-27.34-.1-117.71-3.57-133.6-20Zm306.11-33.67c-118.3-6.38-201.43-18.68-318.29-1.37C536,1057,586.34,1249.53,627,1353.66c7.49,19.2-20.37-4.91.46-.35,47.17,10.32,115.89,11.92,159.75-1.42,41.67-12.67,53.88-63.74,65.35-111,4.74-19.49,4.34-33.14,13.21-44,17.86,8.22,17,26.41,45,27.54,16.53.67,39.59-5.6,48.94-23-6-11.11-5.9-5.29-15.14-15.13-30.09,9.67-64.32-7.48-69.53-43.84-4.76-33.19,15.36-44.09,31.2-61.75l39.09,9.22c6.41-11.56,9.13-10.74,16.66-20.26-33.05-29.37-72.46,9.62-85.48,10.57Z" transform="translate(-20.67 -19.69)"/><path class="cls-2" d="M1079.56,1145.27l19-7.46-19,7.46Zm19-7.46c7.07-5.46,48.75-26.75,59.44-30.18-13.23,11.64-37.73,25.44-59.44,30.18Zm59.44-30.18,11.62-7.44-11.62,7.44Zm11.62-7.44,11.05-8.72-11.05,8.72ZM1046,1089l11.49-7.5L1046,1089Zm139.36,1.56,14.46-14-14.46,14Zm-127.87-9.06,11.29-7.5-11.29,7.5Zm11.29-7.5,11-7.61-11,7.61Zm139.07-2.19,14.39-17.69-14.39,17.69Zm-128.07-5.42,10.84-7.57-10.84,7.57Zm10.84-7.57,15.83-11-15.83,11Zm15.83-11,10.51-7.77-10.51,7.77ZM1241.06,1033l-10.5,16.23,10.5-16.23Zm-124.14,7,15.09-11.25-15.09,11.25Zm124.14-7,7.54-11.22-7.54,11.22Zm-109-4.2,19-14.95-19,14.95Zm19-14.95,23.56-18.5-23.56,18.5ZM997.05,972.63l7.58,30.08-7.58-30.08Zm213.64-19.35-5.83,5.65c.45-.52,1.47-1.56,1.84-2l4-3.68Zm-134.87-18.19,11.29,30.6-11.29-30.6Zm134.87,18.19a30.37,30.37,0,0,0,7-7.91c2.83-4.93,3.31-7.55,4.57-14.27l-11.52,22.18ZM997.05,972.63l-17.17-60.71,17.17,60.71Zm63.86-79.29,14.91,41.75Zm0,0-6.17-19.23,6.17,19.23ZM908.22,879.13,868.17,912.2l40.05-33.07Zm140.39-11-9.08-24.86,9.08,24.86Zm53.76-46.23,14.82,23-14.82-23Zm-7.69-10.67,7.69,10.67-7.69-10.67Zm-78.93-3.63Zm78.93,3.63-4.07-3.6c-.46-.46-1.38-1.41-1.85-1.9l-6.21-7.69c8.23,4,3.39-3.27,12.13,13.19Zm-44.6-49c13.51,7.8,19.92,17.77,31.86,30.5Zm0,0-12.26-.48c-5.66,13.65-18.26,22.48-26.68,34.65l4.61,11.15-12.33-8c-15.31,17.79-33.38,23.36-47.1,38l-2.47,3.29c-12.4,5-20.12,11.44-28.08,22.28-2.34-4.09-2.63,3.39-.43-4.09,0-.12,3.59-6.21,4.47-7.61l-86.32,35L854.67,920l34.18,6.93c13.09,29.65-2.19,92.9.18,135l14.06-10.49c.37-15.66,0-21.1-2.49-34.37-7.49-39.82-5.42-22-1.17-31.39L907,1051.4c42.69-5.74,35.35-2.37,67.13,10.32,38.73-33,32.62-20.38,30.5-59l5.19,24.25c16.37-9.34,28.24-20,41.43-30.24,10.53-8.17,30.88-20,35.86-31,14.47-3.11,50.52-28.48,60-38.12-1.58-35.15-21.09-54.88-29.91-82.65l13,20.84c14.47,29.11,11.19,31.22,18.21,49,10.6,26.94,1.12-4,13.85,16.51-9.61,9.19-28.15,21.22-41.71,29.66-22.94,14.28-70,40-73.87,68.08-2.42,17.57-8.42,46.53-.75,59.92-7.29,14.62-2.52,41.61,2,62,13.82,2.25,16.22-3.2,31.61-5.67l-23.25,10.19c-6.2,3.6-1.94,1.14-5.93,5.75,9,15.45,9.36,19.7,21.74,29.24,63.68,3.53,136.68-32.47,172.79-60.16,34-26,68.53-112.19,30.43-168.77-.31,1-22.09,64.89-24.88,58.25-.24-.58-1.25,1.35-1.86,2,7.1-20.52,26.44-45.36,22.24-71.27-1.41-8.66-23.09-48-39.48-58.19-1.18,15-2.84,28.34-9.15,38.75,6.79-68.5,16.44-34.75-37.89-93.29-25.14-27.1-115.46-81.61-139.21-88.66Z" transform="translate(-20.67 -19.69)"/><path class="cls-5" d="M749.9,611.84,772,617.51c-14.58,1.57-13.58,2.19-22.07-5.67ZM625.61,582.91c-4.26,20.94-11.48,31.41,14.49,33.11-11.89,5.65-13.76.41-21.17-7.43-.79-14.86-.52-16.56,6.68-25.68Zm93.79-8.22c3.64,5.73,6.51,13.48,10.93,19.26l15.32,15.46c-13.2-7.64-23.38-16.31-26.25-34.72Zm48.83-.09c5.55,18.23,10.45,14.88,7.12,38.81.45-.61,9.81.28,3.82-19.43l-7.38-15.24c-.31-.47-1.51-.83-1.74-2.06S768.82,575.3,768.23,574.6Zm0,0-8.77-11.09,8.77,11.09Zm-89.88-22.83s7.7-.08,5,17.46c-1.07,6.93-3.9,12.73-7.4,18.31-7.16,11.38-15.1,18.13-28.77,25.13,14.81-16,36.85-20,31.18-60.9Zm41,22.92,2-19.57c7.4-4.62-8.32-1.76,9.33-4.37,9.56-1.41,13.35,2.28,22.3,6-2-2-2.25-3.81-8.65-7.14-16.72-8.72-37,1.52-25,25Zm-93.79,8.22c9.87-12.44,8.24-15.94,18.22-23.43,9.4-7.07,20-9.67,34.52-7.71-2.84-3.67,5.3-3.16-8.28-5.29-3.2-.51-5.1.2-8.09.95-5.51,1.36-10.14,3.91-15.17,7.16-10.13,6.54-16.94,13.67-21.2,28.32ZM810,665.14c15.94-31.67,24.41-51.54,4-91.13-14.46-28-35.24-47.07-56.73-63.44-27-20.54-38.79-36.7-80.6-16-29.91,14.82-49.42,32.26-66.06,54C546,633,580.84,695.09,642.83,652.15,739.87,584.94,736.13,666.88,810,665.14Z" transform="translate(-20.67 -19.69)"/><path class="cls-2" d="M490.39,894.06c-.95,20.81.25,8.88-6.31,23.64-39.1,87.85-40.58,301.36-39.85,390.68l95-9.48c-14.61-76-11.22-128.51-18.64-183.82-18.56-138.19.74-125.15-1.53-182l-4.53-4.43c18.58-1.72,26.69-.24,31.91-9,3.94-6.66,6.68-22.66,7.43-30.19l-55.52-11.95Z" transform="translate(-20.67 -19.69)"/><path class="cls-6" d="M404.51,244.61l-11-1.76,1.19,22.21c-22.89-2.88-34.44-35.25-48.35-52.82,8.45,3.39,14.9,17.41,20,25.14,10.08,15.27,8.82,18.93,28.42,23.6l-13.48-33Zm0,0,15.72-2.7c12.23-39.48-9.7-67.52-19.76-99.12L393,131.45l-11.32-14.58c-4.2-2.89-2.87-1.3-8.17-6.87-9.38-9.84-28-34.35-41.3-40.83-6.76-3.3-68.49-18.14-78.64-19.88,14.53,24.32,28.24,27.47,42.54,66.87,29.2,80.38,25.56,220.77,114.57,210.29.41-36.56,13.49-54.57,15.22-87C417.25,245.75,416.07,249.9,404.51,244.61Z" transform="translate(-20.67 -19.69)"/><path class="cls-6" d="M1114.62,1196.72c7.8,59.31,10,101,12.64,163.19,24.85,9.95,39.2,28.85,82.55,47.27,1.29-52.4-2.93-192.63-25.72-227.61Z" transform="translate(-20.67 -19.69)"/><path class="cls-6" d="M908.41,1291.59c4.18-12.7-.24-14.22,3.84-29.36.22-.83,1.42-1.19,1.62-2.86s1.26-1.81.56-2.75l-.37,38.88,105.6,22.78c.91-8.22,2.76-19.49,3.51-27.71.78-8.65.18-20.08.16-29-.07-23,0-36-2.94-56.56l-45.84-2.9c-10.44,9.91-5.31,12.48-19.43,21.27-36.6,22.76-61.1,13.34-85-6.07l-17.86,72.42,53.21,3C906,1291.57,907.45,1292,908.41,1291.59Z" transform="translate(-20.67 -19.69)"/><path class="cls-1" d="M43.76,1347.94l11.36,24.67,10.11-18.19c32.62,7.61,44.89,11.76,75.26-1.32-14.06,20.47-56,9-74.69,5.32l-9.08,24.86C39.45,1368.77,56,1366.82,43.76,1347.94Zm0,0c-9.26,2.23-4.09-1.57-8.15,7l-3.22,37.94c14.69,15.23,79.8,55,101.27,30,19.15-22.3,49.33-59.76,63.78-89.51-78.23.7-110.44.72-153.14-42.06L38,1340.37C39.87,1342.07,42.21,1346.94,43.76,1347.94Z" transform="translate(-20.67 -19.69)"/><path class="cls-6" d="M1024,1205.77c4.22,58.38,3.2,55,.59,114.35a344.37,344.37,0,0,1,50.24,13.66c17,6.08,31.44,15.28,48.13,19.73-.15-43-.8-119.27-13.43-153.83Z" transform="translate(-20.67 -19.69)"/><path class="cls-3" d="M810,665.14c-73.86,1.74-70.12-80.2-167.16-13-62,42.94-96.86-19.16-32.27-103.56,16.64-21.75,36.15-39.19,66.06-54,41.81-20.71,53.63-4.55,80.6,16C778.71,526.94,799.49,546,814,574c20.45,39.59,12,59.46-4,91.13Zm-326.1-71c4.76-4.63,7.56-8.14,13.77-12.25,11.55-7.65,5,.48,13.5-9.76-23.07-19.54-50.7,37.1-52.76,46.15,20.19,5.08,6.07-2.84,20.79-10.34,48.75,44.57,6.73,44.51,90.06,48.91,42.09,51.66,82-3.25,111-16,46.27-20.29,80.7,39.92,133.88,35,8.83-8.81,5.67-12,17.8-19.42,22.39.15,48.13,2.76,67.12-7.13,18-9.37,22.47-24.53,30.74-36.57l3.46-3.72c9.66,8.66,10.72,16.93,25.36,17.51-1.09-15.93-12-21.5-21.71-29.19-24.61-19.53-14.77-16.62-31.31-19.75,3.11,13,8.54,16,15.39,23.51-13.61,45.25-45.41,45.59-87.54,43.53,18.09-97.61-94.87-175-132.41-170.47-28.81,3.49-79.84,41.5-93.88,59.72-22.59,29.33-40.3,62.21-42.65,111C521.86,647,522.64,646.9,483.89,594.15Z" transform="translate(-20.67 -19.69)"/><path class="cls-6" d="M760.64,388.23c32.08,12.63,108,8.17,140.29.74-6-52-27.36-97.55-73.9-105.64C780.3,275.21,754.6,373.7,760.64,388.23Z" transform="translate(-20.67 -19.69)"/><path class="cls-6" d="M628.76,391.41c16.93,37.83-30.24,39-22.56,3.71L512.93,391c-60.31,105.39,156.72,137.92,143.24-4Z" transform="translate(-20.67 -19.69)"/><path class="cls-6" d="M985.39,1153.05c3.2,2.42,5.31-4.29,11.86,20.25Zm0,0c-2.32-3.92-1.71-2.87-4.29-7.26-.39-.67-2.53-4.43-3.1-5.31l12.2-6.41-18.36,6.29,13.55,12.69Zm4.81-19c3.61-8.31,9.81-63.28,11.5-78.41-11.41,5.09-43.92,31.26-48.7,42-2.32,5.19-12.7,77.1,10.69,88.59,14.14,7,74.64,8.25,91.9,6.24-35.41-47.18-22.31-102.8-20.58-166.54-18.25,10.06-25,13.86-31.5,39.76-5.59,22.46-6.15,40-6.12,65.69Z" transform="translate(-20.67 -19.69)"/><path class="cls-6" d="M518.1,386.1c51.29,9.6,86.16,6.72,136.76-3.12-4.55-44.17-16.85-100.36-70.72-94.54C559.27,291.13,511.65,362.36,518.1,386.1Z" transform="translate(-20.67 -19.69)"/><path class="cls-6" d="M902.25,393.77c-30.49.51-55.82,6.86-92.82,5.94L804.28,412c-2.48,5-2.3,4.66-6.11,9.15l-17.92-.21c-7.24-14.3-4.59-12.36-.83-26.19l-22.62-3.28c-8.37,53,29.13,81.56,72.56,92C893,498.9,905.13,448.72,902.25,393.77Z" transform="translate(-20.67 -19.69)"/><path class="cls-3" d="M902.25,393.77c2.88,55-9.22,105.13-72.89,89.75-43.43-10.49-80.93-39-72.56-92l22.62,3.28c-3.76,13.83-6.41,11.89.83,26.19l17.92.21c3.81-4.49,3.63-4.12,6.11-9.15l5.15-12.29c37,.92,62.33-5.43,92.82-5.94Zm-141.61-5.54c32.08,12.63,108,8.17,140.29.74-6-52-27.36-97.55-73.9-105.64-46.73-8.12-72.43,90.37-66.39,104.9Zm45.87-114.37c-44.29,18.33-64,103-62.57,136,4.47,99.06,209.51,150.53,164.24-46.72C894.26,302.46,846.88,257.15,806.51,273.86Z" transform="translate(-20.67 -19.69)"/><path class="cls-3" d="M656.17,386.92c13.48,142-203.55,109.42-143.24,4l93.27,4.17c-7.68,35.29,39.49,34.12,22.56-3.71l27.41-4.49ZM518.1,386.1c51.29,9.6,86.16,6.72,136.76-3.12-4.55-44.17-16.85-100.36-70.72-94.54-24.87,2.69-72.49,73.92-66,97.66Zm52.16-104.36c-36,18.62-65.92,80.11-74.26,122.23-12.58,63.47,33.93,101,94.26,86.68,59.14-14.07,87.6-44.18,74.93-117-4.63-26.6-10.83-55.73-24.5-72.87C628.71,285.72,597.39,267.69,570.26,281.74Z" transform="translate(-20.67 -19.69)"/><path class="cls-3" d="M574.51,968.85c15.89,16.48,106.26,19.95,133.6,20C735.9,989,788.79,980.12,819,975c16.53-2.81,22.2-.77,26.6-12.44-32.08-7.6-97.39,25.46-212.58,9.93C619.28,970.59,575.74,957.6,574.51,968.85Z" transform="translate(-20.67 -19.69)"/><path class="cls-6" d="M624.34,918.73c52.32-2.26,91.36-3.62,143.85-1.73l-.11-18.21c-23-1.55-48.59,2.93-70,2.71-23.16-.23-49.85-3.54-72.36-1.58Z" transform="translate(-20.67 -19.69)"/><polygon class="cls-6" points="832.15 901.78 819.13 867.31 749.82 877.1 752.42 897.64 832.15 901.78"/><path class="cls-6" d="M938.32,1102.66c-36.22-13-34.09,58.7-15.69,78.81,12.57-2.54,7.23-.46,16.86-8.3Z" transform="translate(-20.67 -19.69)"/><path class="cls-6" d="M527.31,1166c.33,46.2,8.81,90.61,15.09,133.44l26,.78Z" transform="translate(-20.67 -19.69)"/><path class="cls-6" d="M622.46,898.3l-64.35-7.22-8.19,33.25,67-6.64c.59-1.25,2-.91,3.7-1.29Z" transform="translate(-20.67 -19.69)"/><path class="cls-3" d="M664.9,704.31c16.28-2.12,18.19-14.9,43.39-15.7,29.34-.93,26.14,14.84,42.58,11.52-1.42-22-45.19-31-74.1-14C662.08,694.71,662.18,691.6,664.9,704.31Z" transform="translate(-20.67 -19.69)"/><path class="cls-3" d="M982,176.37l-6.89,12.5a153.12,153.12,0,0,0-5.28,16.77c-3.8,14.69-3.84,22.57-1.37,37.61,12.68,8.66,15.5,10.39,28.82,1.93l6.07,13.34c22.85-4.56,17.19-6.33,20.87-10.59l-19,8.31c-.56-14.07,2.16-15.84,6.51-26.63-15.27,8-15.9,25.86-38.35,12.3C962.9,220.34,977.51,198,982,176.37Z" transform="translate(-20.67 -19.69)"/><path class="cls-3" d="M43.76,1347.94c12.27,18.88-4.31,20.83,13,35.34l9.08-24.86c18.73,3.64,60.63,15.15,74.69-5.32-30.37,13.08-42.64,8.93-75.26,1.32l-10.11,18.19Z" transform="translate(-20.67 -19.69)"/><path class="cls-3" d="M133.88,1205.31c-10.73,20.11-18.51,77.73-7.39,101.77-.09-16.89-1.19-36.26,0-52.87C127.72,1238.24,133,1222.43,133.88,1205.31Z" transform="translate(-20.67 -19.69)"/><path class="cls-3" d="M404.51,244.61,381.26,228l13.48,33c-19.6-4.67-18.34-8.33-28.42-23.6-5.11-7.73-11.56-21.75-20-25.14,13.91,17.57,25.46,49.94,48.35,52.82l-1.19-22.21Z" transform="translate(-20.67 -19.69)"/><path class="cls-3" d="M437.94,1922.12c4.69,15.7,7.86,19.68,22.74,25.19l1.62-27.25c14.16,0,18.31.29,28.1-5.5-8.18.64-24.48-.58-29.18,4.55-8.63,9.41,5.86,8.13-10.46,22.63Z" transform="translate(-20.67 -19.69)"/><path class="cls-3" d="M1098.54,1137.81c21.71-4.74,46.21-18.54,59.44-30.18C1147.29,1111.06,1105.61,1132.35,1098.54,1137.81Z" transform="translate(-20.67 -19.69)"/><path class="cls-3" d="M678.35,551.77c5.67,40.86-16.37,44.9-31.18,60.9,13.67-7,21.61-13.75,28.77-25.13,3.5-5.58,6.33-11.38,7.4-18.31C686.05,551.69,678.36,551.78,678.35,551.77Z" transform="translate(-20.67 -19.69)"/><path class="cls-3" d="M430.34,894.19c-10.18,14.75-23.45,57-26.33,79.22Z" transform="translate(-20.67 -19.69)"/><path class="cls-3" d="M122.62,1096.77l19.07-37.71c6.84-13.65,14.36-24.83,19-38.39l-11,16.62c-3.58,6.58-6.59,12.58-10.2,19.69C133.45,1068.91,125.89,1082.94,122.62,1096.77Z" transform="translate(-20.67 -19.69)"/><path class="cls-3" d="M625.61,582.91c9.87-12.44,8.24-15.94,18.22-23.43,9.4-7.07,20-9.67,34.52-7.71-2.84-3.67,5.3-3.16-8.28-5.29-3.2-.51-5.1.2-8.09.95-5.51,1.36-10.14,3.91-15.17,7.16C636.68,561.13,629.87,568.26,625.61,582.91Z" transform="translate(-20.67 -19.69)"/><path class="cls-3" d="M719.4,574.69l2-19.57c7.4-4.62-8.32-1.76,9.33-4.37,9.56-1.41,13.35,2.28,22.3,6-2-2-2.25-3.81-8.65-7.14C727.68,540.93,707.37,551.17,719.4,574.69Z" transform="translate(-20.67 -19.69)"/><path class="cls-3" d="M212.43,1148.84l35.09-68.11C236.31,1090.91,215.59,1135.83,212.43,1148.84Z" transform="translate(-20.67 -19.69)"/><path class="cls-3" d="M625.61,582.91c-7.2,9.12-7.47,10.82-6.68,25.68,7.41,7.84,9.28,13.08,21.17,7.43C614.13,614.32,621.35,603.85,625.61,582.91Z" transform="translate(-20.67 -19.69)"/><path class="cls-3" d="M768.23,574.6c5.55,18.23,10.45,14.88,7.12,38.81.45-.61,9.81.28,3.82-19.43l-7.38-15.24c-.31-.47-1.51-.83-1.74-2.06S768.82,575.3,768.23,574.6Z" transform="translate(-20.67 -19.69)"/><path class="cls-3" d="M175.21,1265.47l11.95-49C179.75,1228.66,175.57,1247.38,175.21,1265.47Z" transform="translate(-20.67 -19.69)"/><path class="cls-3" d="M160.11,1130.29c7.5-9.57,29.69-53.29,33.87-67.44Z" transform="translate(-20.67 -19.69)"/><path class="cls-3" d="M719.4,574.69c2.87,18.41,13.05,27.08,26.25,34.72L730.33,594C725.91,588.17,723,580.42,719.4,574.69Z" transform="translate(-20.67 -19.69)"/><path class="cls-3" d="M1313.78,344.41c13.16-1,10.72.3,8.33-11.89C1314.42,335.42,1314.17,334.94,1313.78,344.41Z" transform="translate(-20.67 -19.69)"/><path class="cls-3" d="M415.41,823c-11.09,12.13-12.4,14.34-13.33,26.52Z" transform="translate(-20.67 -19.69)"/><path class="cls-3" d="M351.6,953.57c-6.22,9.18-10.12,17.3-9.5,30.73Z" transform="translate(-20.67 -19.69)"/><path class="cls-3" d="M985.39,1153.05c-2.32-3.92-1.71-2.87-4.29-7.26-.39-.67-2.53-4.43-3.1-5.31l12.2-6.41-18.36,6.29Z" transform="translate(-20.67 -19.69)"/><path class="cls-3" d="M749.9,611.84c8.49,7.86,7.49,7.24,22.07,5.67Z" transform="translate(-20.67 -19.69)"/><path class="cls-3" d="M1050.08,762.26l31.86,30.5C1070,780,1063.59,770.06,1050.08,762.26Z" transform="translate(-20.67 -19.69)"/><path class="cls-3" d="M1012.12,124.6c.69-.57,1.77-2.35,2-1.74l15.26-17.13C1020.76,110.57,1020.58,108.31,1012.12,124.6Z" transform="translate(-20.67 -19.69)"/><path class="cls-3" d="M985.39,1153.05l11.86,20.25C990.7,1148.76,988.59,1155.47,985.39,1153.05Z" transform="translate(-20.67 -19.69)"/><path class="cls-3" d="M347.09,849.2l24.07-27.1C360.57,829,356.09,836.26,347.09,849.2Z" transform="translate(-20.67 -19.69)"/><path class="cls-3" d="M1210.69,953.28a30.37,30.37,0,0,0,7-7.91c2.83-4.93,3.31-7.55,4.57-14.27Z" transform="translate(-20.67 -19.69)"/><path class="cls-3" d="M290.24,837.37c9.34-5.7,5.55-2.64,12.58-11.27,5-6.1,6.83-7.9,12.07-15Z" transform="translate(-20.67 -19.69)"/><path class="cls-3" d="M379.58,893.46l8.2-23.3C380.23,880.72,379.63,885.53,379.58,893.46Z" transform="translate(-20.67 -19.69)"/><path class="cls-3" d="M1094.68,811.21c-8.74-16.46-3.9-9.17-12.13-13.19l6.21,7.69c.47.49,1.39,1.44,1.85,1.9Z" transform="translate(-20.67 -19.69)"/><path class="cls-3" d="M201.62,954.46c4.67-4.51-1.19,2.74,5.7-6.12.77-1,3.55-5,4.66-6.62,3.8-5.56,5.08-7.36,8.17-14.32Z" transform="translate(-20.67 -19.69)"/><path class="cls-3" d="M235.5,995.63c2.32-2.37.91-.1,5.5-6.1,0,0,4.07-5.8,4.6-6.6a83.5,83.5,0,0,0,8.33-14.61Z" transform="translate(-20.67 -19.69)"/><path class="cls-3" d="M523.57,1899.44l17.65-5c-4.58-.82-2.5-1.73-7.72-.12C524.17,1897.16,525.46,1898.21,523.57,1899.44Z" transform="translate(-20.67 -19.69)"/><path class="cls-3" d="M359.11,935,371,910.71c-.91.34-1.85.33-2,1.31s-1.41,1.22-1.65,1.58Z" transform="translate(-20.67 -19.69)"/><path class="cls-3" d="M1046.05,222.42,1033.5,237.3c4.66-3,3.5-.83,7.19-5.42C1043.53,228.36,1044,226.56,1046.05,222.42Z" transform="translate(-20.67 -19.69)"/><path class="cls-3" d="M325.41,875.21c.73-.53,1.9-2.23,2.18-1.6l7.37-7.77c3.66-4.58,5.79-7.58,9.93-13.56Z" transform="translate(-20.67 -19.69)"/><path class="cls-3" d="M1046.05,222.42c4.18-3.6,1.07,4.28,6-6.56Z" transform="translate(-20.67 -19.69)"/><path class="cls-3" d="M1210.69,953.28l-4,3.68c-.37.41-1.39,1.45-1.84,2Z" transform="translate(-20.67 -19.69)"/><path class="cls-3" d="M490.4,1914.56l33.17-15.12Z" transform="translate(-20.67 -19.69)"/><path class="cls-3" d="M1241.06,1033l-10.5,16.23Z" transform="translate(-20.67 -19.69)"/><path class="cls-3" d="M1116.92,1040.08l15.09-11.25Z" transform="translate(-20.67 -19.69)"/><path class="cls-3" d="M209,1037l7.33-12.22Z" transform="translate(-20.67 -19.69)"/><path class="cls-3" d="M1241.06,1033l7.54-11.22Z" transform="translate(-20.67 -19.69)"/><path class="cls-3" d="M1132,1028.83l19-14.95Z" transform="translate(-20.67 -19.69)"/><path class="cls-3" d="M216.37,1024.77l19.13-29.14Z" transform="translate(-20.67 -19.69)"/><path class="cls-3" d="M162.9,1014.48l9.53-12.63Z" transform="translate(-20.67 -19.69)"/><path class="cls-3" d="M1151,1013.88l23.56-18.5Z" transform="translate(-20.67 -19.69)"/><path class="cls-3" d="M1004.63,1002.71l-7.58-30.08Z" transform="translate(-20.67 -19.69)"/><path class="cls-3" d="M182.55,983.33l-8.46,12.3Z" transform="translate(-20.67 -19.69)"/><path class="cls-3" d="M182.55,983.33l11.68-17.71Z" transform="translate(-20.67 -19.69)"/><path class="cls-3" d="M133.88,1205.31l8.52-26.19Z" transform="translate(-20.67 -19.69)"/><path class="cls-3" d="M997.05,972.63l-17.17-60.71Z" transform="translate(-20.67 -19.69)"/><path class="cls-3" d="M253.93,968.32l7.57-10.69Z" transform="translate(-20.67 -19.69)"/><path class="cls-3" d="M201.52,1174.92l-8.64,19.35Z" transform="translate(-20.67 -19.69)"/><path class="cls-3" d="M194.23,965.62l7.39-11.16Z" transform="translate(-20.67 -19.69)"/><path class="cls-3" d="M261.5,957.63l11.25-15.1Z" transform="translate(-20.67 -19.69)"/><path class="cls-3" d="M1087.11,965.69l-11.29-30.6Z" transform="translate(-20.67 -19.69)"/><path class="cls-3" d="M351.6,953.57,359.11,935Z" transform="translate(-20.67 -19.69)"/><path class="cls-3" d="M272.75,942.53l8.9-10.49Z" transform="translate(-20.67 -19.69)"/><path class="cls-3" d="M1075.82,935.09l-14.91-41.75Z" transform="translate(-20.67 -19.69)"/><path class="cls-3" d="M295.37,912.68l-12.64,14.67Z" transform="translate(-20.67 -19.69)"/><path class="cls-3" d="M220.15,927.4" transform="translate(-20.67 -19.69)"/><path class="cls-3" d="M242.52,897.16l-12.33,14.91Z" transform="translate(-20.67 -19.69)"/><path class="cls-3" d="M295.37,912.68l14.79-19.17Z" transform="translate(-20.67 -19.69)"/><path class="cls-3" d="M868.17,912.2l40.05-33.07Z" transform="translate(-20.67 -19.69)"/><path class="cls-3" d="M430.34,894.19l8.54-18.68Z" transform="translate(-20.67 -19.69)"/><path class="cls-3" d="M242.52,897.16,254,882.38Z" transform="translate(-20.67 -19.69)"/><path class="cls-3" d="M1060.91,893.34l-6.17-19.23Z" transform="translate(-20.67 -19.69)"/><path class="cls-3" d="M310.16,893.51l15.25-18.3Z" transform="translate(-20.67 -19.69)"/><path class="cls-3" d="M456.87,870.85l14.2,20.53Z" transform="translate(-20.67 -19.69)"/><path class="cls-3" d="M254,882.38l16.21-18.61Z" transform="translate(-20.67 -19.69)"/><path class="cls-3" d="M1048.61,868.11l-9.08-24.86Z" transform="translate(-20.67 -19.69)"/><path class="cls-3" d="M201.52,1174.92l8.44-18.13Z" transform="translate(-20.67 -19.69)"/><path class="cls-3" d="M271.29,859.37,289,841.19Z" transform="translate(-20.67 -19.69)"/><path class="cls-3" d="M1117.19,844.92l-14.82-23Z" transform="translate(-20.67 -19.69)"/><path class="cls-3" d="M1015.75,807.58" transform="translate(-20.67 -19.69)"/><path class="cls-3" d="M1102.37,821.88l-7.69-10.67Z" transform="translate(-20.67 -19.69)"/><path class="cls-3" d="M160.11,1130.29l-16.38,37.5Z" transform="translate(-20.67 -19.69)"/><path class="cls-3" d="M1079.56,1145.27l19-7.46Z" transform="translate(-20.67 -19.69)"/><path class="cls-3" d="M104,1145.66,115.25,1115Z" transform="translate(-20.67 -19.69)"/><path class="cls-3" d="M768.23,574.6l-8.77-11.09Z" transform="translate(-20.67 -19.69)"/><path class="cls-3" d="M115.25,1115l7.37-18.2Z" transform="translate(-20.67 -19.69)"/><path class="cls-3" d="M1158,1107.63l11.62-7.44Z" transform="translate(-20.67 -19.69)"/><path class="cls-3" d="M1169.6,1100.19l11.05-8.72Z" transform="translate(-20.67 -19.69)"/><path class="cls-3" d="M1199.78,1076.53l-14.46,14Z" transform="translate(-20.67 -19.69)"/><path class="cls-3" d="M1046,1089l11.49-7.5Z" transform="translate(-20.67 -19.69)"/><path class="cls-3" d="M1057.45,1081.48l11.29-7.5Z" transform="translate(-20.67 -19.69)"/><path class="cls-3" d="M1068.74,1074l11-7.61Z" transform="translate(-20.67 -19.69)"/><path class="cls-3" d="M1222.2,1054.1l-14.39,17.69Z" transform="translate(-20.67 -19.69)"/><path class="cls-3" d="M1079.74,1066.37l10.84-7.57Z" transform="translate(-20.67 -19.69)"/><path class="cls-3" d="M265.26,1047.7l-16.46,26.24Z" transform="translate(-20.67 -19.69)"/><path class="cls-3" d="M982,176.37l15.08-29.07Z" transform="translate(-20.67 -19.69)"/><path class="cls-3" d="M997.12,147.3l7.33-11.86Z" transform="translate(-20.67 -19.69)"/><path class="cls-3" d="M1090.58,1058.8l15.83-11Z" transform="translate(-20.67 -19.69)"/><path class="cls-3" d="M400.47,142.79,393,131.45Z" transform="translate(-20.67 -19.69)"/><path class="cls-3" d="M1004.45,135.44l7.67-10.84Z" transform="translate(-20.67 -19.69)"/><path class="cls-3" d="M393,131.45l-11.32-14.58Z" transform="translate(-20.67 -19.69)"/><path class="cls-3" d="M194,1062.85,209,1037Z" transform="translate(-20.67 -19.69)"/><path class="cls-3" d="M1106.41,1047.85l10.51-7.77Z" transform="translate(-20.67 -19.69)"/><path class="cls-3" d="M697.8,1497.08c-13.52-10.94-59.49-54.61-45.34-85.81,25.34-13.22,33.62,14.57,41.58,29.53,2.71-2.79,1.75-.67,4.86-6.21,4.85-8.6,6.19-17.95,18.45-26.27,18.36-12.45,35.9-3.48,28.31,20.34-6,18.69-36.75,57.91-47.86,68.42Zm0,10.8c12.86-12.91,44.33-56.69,51.9-74.84,17.12-41-30.72-50.83-53.18-7.45-10.71-12.53-21.89-27.16-46.81-21C631,1440.58,669.4,1479.88,697.8,1507.88Z" transform="translate(-20.67 -19.69)"/><path class="cls-7" d="M438.25,1923l12.51,18.7c16.32-14.5,1.83-13.22,10.46-22.63,4.7-5.13,21-3.91,29.18-4.55-9.79,5.79-13.94,5.45-28.1,5.5l-1.62,27.25c-14.88-5.51-17.74-8.57-22.43-24.27Zm52.15-8.48,33.17-15.12-33.17,15.12Zm33.17-15.12c1.89-1.23.6-2.28,9.93-5.16,5.22-1.61,3.14-.7,7.72.12l-17.65,5Zm-85.63,22.68c-22.13-5.51-43.52,1.08-67.76-1.37,4,11.51,12,23.51,18.63,31.67A298.05,298.05,0,0,1,408,1978c26.54,4,138.77-1.85,158.13-10.47,26.14-48-3.19-171.61,9.52-219.67,24.88-2,33,22.86,143.87,19.78,25.14-.7,51.68-2.26,76-5.37,15.65-2,63.57-14.43,63.7-14.42.85,1.87,42.7,27,44,35.25,40.71,70.78-43.15,132.14,15,143,29.65,2.23,45.74-6.86,69.38-5.8,1.8,6,2.4,10,3.71,14.39,6.11,20.54-.18,5.68,6.87,13,17.45-12.87,2.75-26.23,40.14-29.17-3.5,2.08-.44,1-7.51,3.46-43.14,15.24-5.87,19.81-38.89,30.24l-5.39-28.92c-67.53,6.52-83.38,18.18-128.15-24.12l-1.2,64.74c109.49,25.92,60.67,16.93,171.71,11.4,9.72-28.83,51.57-84.49,69.16-113.69,59-97.89,115.5-326.08,110.41-438.65l-74-47.31C1066.88,1332.89,908.6,1297.81,847,1302c-26.62,41.61-9.6,42.43-37.07,53.77A227.1,227.1,0,0,1,741.13,1372c-50.33,4.08-163.89-9.38-205-26.62l-10-40.61c-26.92,4.94-22.25,7.17-54.72,11.9C397.93,1327.36,342.23,1310,292,1356.2c29.36,245.67,65.56,370.18,145,563.53C437.3,1920.52,437.62,1921.32,437.94,1922.12Z" transform="translate(-20.67 -19.69)"/><path class="cls-7" d="M664.9,704.31c-2.72-12.71-2.82-9.6,11.87-18.23,28.91-17,72.68-8,74.1,14-16.44,3.32-12.42,17.85-41.76,18.78-25.2.79-27.93-16.72-44.21-14.6Zm-181-110.16c4.76-4.63,7.56-8.14,13.77-12.25,11.55-7.65,5,.48,13.5-9.76-23.07-19.54-74.44,17-52.76,46.15,20.19,5.08,6.07-2.84,20.79-10.34,48.75,44.57,6.73,44.51,90.06,48.91,42.09,51.66,82-3.25,111-16,46.27-20.29,80.7,39.92,133.88,35,8.83-8.81,5.67-12,17.8-19.42,22.39.15,48.13,2.76,67.12-7.13,18-9.37,22.47-24.53,30.74-36.57l3.46-3.72c9.66,8.66,10.72,16.93,25.36,17.51-1.09-15.93-12-21.5-21.71-29.19-24.61-19.53-14.77-16.62-31.31-19.75,3.11,13,8.54,16,15.39,23.51-13.61,45.25-45.41,45.59-87.54,43.53C851.55,547,738.59,470.41,701.05,475,562.4,487.1,528.63,573.79,564.52,644.84c-42.66,2.2-41.88,2.06-80.63-50.69Zm86.37-312.41c27.13-14.05,58.45,4,70.43,19,13.67,17.14,19.87,46.27,24.5,72.87,12.67,72.86-40.35,120.17-99.49,134.24C505.36,522.21,483.42,467.44,496,404c8.34-42.12,38.31-103.61,74.26-122.23Zm236.25-7.88c40.37-16.71,87.75,28.6,101.67,89.24,45.27,197.25-187.61,174.44-164.24,46.72-1.48-32.92,18.28-117.63,62.57-136Zm239.54-51.44c-2,4.14-2.52,5.94-5.36,9.46-3.69,4.59-2.53,2.47-7.19,5.42Zm0,0c4.18-3.6,1.07,4.28,6-6.56l-6,6.56Zm-64-46c-4.53,21.59-19.14,44-8.65,65.54,22.45,13.56,23.08-4.26,38.35-12.3-4.35,10.79-7.07,12.56-6.51,26.63l19-8.31c-3.68,4.26,2,6-20.87,10.59l-6.07-13.34c-13.32,8.46-16.14,6.73-28.82-1.93-2.47-15-2.43-22.92,1.37-37.61a153.12,153.12,0,0,1,5.28-16.77Zm0,0,15.08-29.07L982,176.37Zm15.08-29.07,7.33-11.86-7.33,11.86Zm7.33-11.86,7.67-10.84-7.67,10.84Zm7.67-10.84c8.46-16.29,8.64-14,17.3-18.87l-15.26,17.13c-.27-.61-1.35,1.17-2,1.74Zm-550,98.2c-.06,55.67-12.57,27.61,1.84,148.05,4.16,34.78-10.7,41.3-33.47,66.84-71.06,172.62-48.65,148.58,50,389.28,44.68,59.89,163.84,64.26,235.21,62.14,81.91-2.44,127.35-11.53,193.59-41.79,49.32-22.54,107.1-60.88,128.59-104,20.41-40.92,38.63-144.68,35.64-198.58-4.86-87.71-56.67-83.09-66.48-169.24-4.39,12.39-3.08,24.47-9.91,33.46-5.92-3.68-10.29,3.33-3.46-32.63,2.07-11,5.32-23.14,7.28-34.3,5.78-33.13-.79-42.29-4.93-71.92,20.7,4.36,15.92,19.66,19.55,59.8,61.69-15.12,79.81-62.26,87.46-118.92,7.14-52.82,15.49-111,57.32-145.35-17.9,2.46-39.16,11.09-61.29,14.77-25.82,4.3-43.89,2.07-60.65,17.39l-3.75-8.69c-105.11,14.47-83.65,36-109.2,79.43-14.43-3.61-33.28-14-49.58-20.37-54.6-21.32-107.32-34.6-167.84-33.7-111.84,1.65-144.86,37.33-210,63.81-22.2-14.41-26.8-43.29-59.41-73.28-21.13-19.42-43.93-22.35-71.79-29.46s-21.22-.83-22.2-.32C492.08,168,450.44,207.1,462.07,222.8Z" transform="translate(-20.67 -19.69)"/><path class="cls-5" d="M984.81,167.32c9.38-9.85,42.35-89.63,105.57-91.6,6.76-3.3,65.63-19.37,77.41-24.79-14.53,24.32-28.23,27.47-42.54,66.86-29.19,80.39-25.56,220.78-114.56,210.3-11.09-12.41,1.43-42.81-12.4-59.5-4.86-5.86-25.8-24.93-26.74-26.46C965.63,232.52,973.05,202.76,984.81,167.32Z" transform="translate(-20.67 -19.69)"/><path class="cls-8" d="M133.88,1205.31c-.93,17.12-6.16,32.93-7.35,48.9-1.23,16.61-.13,36,0,52.87C115.37,1283,123.15,1225.42,133.88,1205.31Zm0,0,8.52-26.19-8.52,26.19Zm26.23-75-16.38,37.5,16.38-37.5ZM104,1145.66,115.25,1115,104,1145.66ZM115.25,1115l7.37-18.2-7.37,18.2Zm97.18,33.87c3.16-13,23.88-57.93,35.09-68.11l-35.09,68.11Zm-52.32-18.55L194,1062.85c-4.18,14.15-26.37,57.87-33.87,67.44Zm105.15-82.59-16.46,26.24,16.46-26.24ZM194,1062.85,209,1037,194,1062.85ZM209,1037l7.33-12.22L209,1037Zm-86.42,59.78c3.27-13.83,10.83-27.86,16.89-39.79,3.61-7.11,6.62-13.11,10.2-19.69l11-16.62c-4.64,13.56-12.16,24.74-19,38.39l-19.07,37.71Zm49.81-94.92-9.53,12.63,9.53-12.63Zm43.94,22.92,19.13-29.14-19.13,29.14Zm-33.82-41.44-8.46,12.3,8.46-12.3Zm52.95,12.3,18.43-27.31a83.5,83.5,0,0,1-8.33,14.61c-.53.8-4.59,6.59-4.6,6.6-4.59,6-3.18,3.73-5.5,6.1Zm-52.95-12.3,11.68-17.71-11.68,17.71ZM351.6,953.57l-9.5,30.73c-.62-13.43,3.28-21.55,9.5-30.73Zm-97.67,14.75,7.57-10.69-7.57,10.69Zm-59.7-2.7,7.39-11.16-7.39,11.16Zm67.27-8,11.25-15.1-11.25,15.1Zm90.1-4.06L359.11,935l-7.51,18.58Zm-78.85-11,8.9-10.49-8.9,10.49Zm-71.13,11.93,18.53-27.06c-3.09,7-4.37,8.76-8.17,14.32-1.11,1.63-3.89,5.62-4.66,6.62-6.89,8.86-1,1.61-5.7,6.12Zm18.53-27.06Zm139,7.59,8.21-21.39c.24-.36,1.46-.58,1.65-1.58s1.12-1,2-1.31L359.11,935Zm-63.74-22.31-12.64,14.67,12.64-14.67Zm135-18.49L404,973.41c2.88-22.26,16.15-64.47,26.33-79.22Zm-187.82,3-12.33,14.91,12.33-14.91Zm52.85,15.52,14.79-19.17-14.79,19.17Zm-52.85-15.52L254,882.38l-11.46,14.78Zm187.82-3,8.54-18.68-8.54,18.68Zm-120.18-.68,15.25-18.3-15.25,18.3Zm69.42,0c.05-7.93.65-12.74,8.2-23.3l-8.2,23.3ZM254,882.38l16.21-18.61L254,882.38Zm71.43-7.17,19.48-22.93c-4.14,6-6.27,9-9.93,13.56l-7.37,7.77c-.28-.63-1.45,1.07-2.18,1.6Zm-36.43-34-17.69,18.18L289,841.19Zm58.11,8c9-12.94,13.48-20.2,24.07-27.1l-24.07,27.1Zm-32.2-38.14c-5.24,7.14-7.1,8.94-12.07,15-7,8.63-3.24,5.57-12.58,11.27l24.65-26.31ZM104,1145.66c-2.8,22.72-13.24,50-17.92,76A406.53,406.53,0,0,0,79.71,1308c39.82,11.2,40.32,19.07,48.74,1.77l5.47,12.12c73.41,1,20,24.21,48-104.29,4-18.3,53.4-175.16,76.64-217.14,13.88-25.08,64.7-95.16,79.71-101,6.08,10.11-28.39,89.26-33.87,101.28-48.46,106.3-84,268.56-78,383.06l68.31-32.9c1.53-23.2-3.2-64.2-3.2-93,0-73.19,10.12-144.44,29.14-215,1.7-6.29,3.66-14,5.71-20.63l6.62-13.87c-3.61,23.36-13.81,52.24-19.25,76.87C293.1,1178.51,291,1249.39,298.87,1346l66.38-19.66c-1.56-61.59-1.25-128.88,7-187.64,6.38-45.59,9.66-78.67,20.5-125.31,3.75-16.13,4.36-25.62,11.68-38.29-3.51,26.16-12.17,54.44-17.26,82.33-17.5,95.9-20.57,166.16-18.12,267.15l71.72-13.62c-1.94-76.73-2-154.69,6.87-228.66,5.75-47.89,13.91-101,27.65-147.52,19.21-65.07,44.47-38.15,124.42-40.25C209.28,902.85,410.05,641.26,250.3,830c-26.9,31.78-62.52,84.83-85.79,128.1-26.74,49.73-47.53,92.09-69.58,148.09-11.57,29.4-48,139.32-44,170.37,6.91,13.62,10.26,18.1,24.64,24.83C75.72,1259.38,85.42,1174.26,104,1145.66Z" transform="translate(-20.67 -19.69)"/><path class="cls-3" d="M437.94,1922.12c-5.32-13.18-48.08-1.34-65.16-5.58-28-10.1-87.57-210-95.22-235.79-20.57-69.42-51.15-204.46-49.42-280.33,50.22-46.24,169.79-73.06,243.26-83.78,32.47-4.73,75.29-2.05,102.21-7l15.7,43.88c41.15,17.24,101.49,22.52,151.82,18.44a227.1,227.1,0,0,0,68.76-16.22c27.47-11.34,10.45-12.16,37.07-53.77,61.64-4.17,219.92,30.91,287.46,73.65l74,47.31c5.09,112.57-51.46,340.76-110.41,438.65-17.59,29.2-59.44,84.86-69.16,113.69-111,5.53-62.22,14.52-171.71-11.4l1.2-64.74c44.77,42.3,60.62,30.64,128.15,24.12l5.39,28.92c33-10.43-4.25-15,38.89-30.24,7.07-2.49,4-1.38,7.51-3.46-37.39,2.94-22.69,16.3-40.14,29.17-7-7.29-.76,7.57-6.87-13-1.31-4.41-1.91-8.39-3.71-14.39-23.64-1.06-39.73,8-69.38,5.8-97.14-7.27-45.28-102.16-55.94-169.18-1.32-8.29-2.23-7.18-3.08-9.05-.13,0-48,12.42-63.7,14.42-24.3,3.11-50.84,4.67-76,5.37-110.9,3.08-119-21.74-143.87-19.78-12.71,48.06,16.62,171.62-9.52,219.67C546.74,1976.16,434.51,1982,408,1978a298.05,298.05,0,0,0-19.16-25.59c-6.66-8.16-14.63-20.16-18.63-31.67,24.24,2.45,45.63-4.14,67.76,1.37ZM43.76,1347.94c-1.55-1-3.89-5.87-5.76-7.57l6.3-49.06c42.7,42.78,74.91,42.76,153.14,42.06-4,8.5-10.85,19.26-17.88,29.63-14.46,21.33-32.29,43.66-45.9,59.88-21.47,25-86.58-14.74-101.27-30L35.61,1355c4.06-8.6-1.11-4.8,8.15-7Zm864.65-56.35c4.18-12.7-.24-14.22,3.84-29.36.22-.83,1.42-1.19,1.62-2.86s1.26-1.81.56-2.75l-.37,38.88,105.6,22.78c.91-8.22,2.76-19.49,3.51-27.71.78-8.65.18-20.08.16-29-.07-23,0-36-2.94-56.56l-45.84-2.9c-10.44,9.91-5.31,12.48-19.43,21.27-36.6,22.76-61.1,13.34-85-6.07l-17.86,72.42,53.21,3c.53-1.11,2-.7,2.92-1.09Zm206.21-94.87c7.8,59.31,10,101,12.64,163.19,24.85,9.95,39.2,28.85,82.55,47.27,1.29-52.4-2.93-192.63-25.72-227.61l-69.47,17.15Zm-90.58,9c4.22,58.38,3.2,55,.59,114.35a344.37,344.37,0,0,1,50.24,13.66c17,6.08,31.44,15.28,48.13,19.73-.15-43-.8-119.27-13.43-153.83l-85.53,6.09ZM527.31,1166c.33,46.2,8.81,90.61,15.09,133.44l26,.78L527.31,1166Zm411-63.36,1.17,70.51c-9.63,7.84-4.29,5.76-16.86,8.3-18.4-20.11-20.53-91.85,15.69-78.81Zm51.88,31.41,7.19-2.67c0-25.73.53-43.23,6.12-65.69,6.45-25.9,13.25-29.7,31.5-39.76-1.73,63.74-14.83,119.36,20.58,166.54-17.26,2-77.76.71-91.9-6.24-23.39-11.49-13-83.4-10.69-88.59,4.78-10.74,37.29-36.91,48.7-42-1.69,15.13-7.89,70.1-11.5,78.41Zm-113.73-53.74,4.15-145.15c-118.3-6.38-232.54-14.58-349.41,2.73-26.32,123.18,19.92,287.06,60.53,391.19,7.49,19.19,14.84,19.65,35.67,24.21,47.17,10.32,115.89,11.92,159.75-1.42,41.67-12.67,53.88-63.74,65.35-111,4.74-19.49,4.34-33.14,13.21-44,17.86,8.22,17,26.41,45,27.54,16.53.67,39.59-5.6,48.94-23-6-11.11-5.9-5.29-15.14-15.13-30.09,9.67-39.76,6.44-45-29.92-4.75-33.19,3.09-50.64,18.93-68.3l26.8,1.85c6.41-11.56,9.13-10.74,16.66-20.26-33.05-29.37-72.46,9.62-85.48,10.57Zm-103.38-163-2.6-20.53L839.8,887l13,34.47-79.72-4.15ZM625.76,899.92c22.51-2,49.2,1.35,72.36,1.58,21.37.22,47-4.26,70-2.71l.11,18.21c-52.49-1.89-91.53-.53-143.85,1.73l1.42-18.81Zm-5.17,16.48c-1.74.38-3.11,0-3.7,1.29l-67,6.64,8.19-33.25,64.35,7.22-1.87,18.1Zm-130.2-22.34c-.95,20.81.25,8.88-6.31,23.64-39.1,87.85-40.58,301.36-39.85,390.68l95-9.48c-14.61-76-11.22-128.51-18.64-183.82-18.56-138.19.74-125.15-1.53-182l-4.53-4.43c18.58-1.72,26.69-.24,31.91-9,3.94-6.66,6.68-22.66,7.43-30.19l-55.52-11.95-7.92,16.62Zm731.82,37c6.31-10.41,8-23.71,9.15-38.75,16.39,10.16,38.07,49.53,39.48,58.19,4.2,25.91-15.14,50.75-22.24,71.27.61-.69,1.62-2.62,1.86-2,2.79,6.64,24.57-57.25,24.88-58.25,38.1,56.58,3.53,142.72-30.43,168.77-36.11,27.69-109.11,63.69-172.79,60.16-12.38-9.54-12.71-13.79-21.74-29.24,4-4.61-.27-2.15,5.93-5.75l23.25-10.19c-15.39,2.47-17.79,7.92-31.61,5.67-4.51-20.35-9.28-47.34-2-62-7.67-13.39-1.67-42.35.75-59.92,3.87-28.08,50.93-53.8,73.87-68.08,13.56-8.44,32.1-20.47,41.71-29.66-12.73-20.56-3.25,10.43-13.85-16.51-7-17.83-3.74-19.94-18.21-49l-13-20.84c8.82,27.77,28.33,47.5,29.91,82.65-9.47,9.64-45.52,35-60,38.12-5,11-25.33,22.86-35.86,31-13.19,10.24-25.06,20.9-41.43,30.24l-5.19-24.25c2.12,38.63,8.23,26-30.5,59-31.78-12.69-24.44-16.06-67.13-10.32l-7.57-65.75c-4.25,9.34-6.32-8.43,1.17,31.39,2.5,13.27,2.86,18.71,2.49,34.37L889,1061.9c-2.37-42.09,12.91-105.34-.18-135L854.67,920,843.49,886.4l86.32-35c-.88,1.4-4.44,7.49-4.47,7.61-2.2,7.48-1.91,0,.43,4.09,8-10.84,15.68-17.25,28.08-22.28l2.47-3.29c13.72-14.64,31.79-20.21,47.1-38l12.33,8-4.61-11.15c8.42-12.17,21-21,26.68-34.65l12.26.48-5-13.11c23.75,7.05,114.07,61.56,139.21,88.66,54.33,58.54,44.68,24.79,37.89,93.29ZM415.41,823l-12.6-21.78c-4.25-4.51-1.93-1.85-6.5-4.88l.32-3.77-22.52-38.06c-18.21,11.51-28,30.53-46.67,41l45.72-43-10.35-27.69c-8.1,3.81-55.5,40-62.46,46.38-16,14.73-34.61,40.48-50.05,58.73-26.9,31.78-62.52,84.83-85.79,128.1-26.74,49.73-47.53,92.09-69.58,148.09-11.57,29.4-48,139.32-44,170.37,6.91,13.62,10.26,18.1,24.64,24.83.15-42,9.85-127.15,28.44-155.75-2.8,22.72-13.24,50-17.92,76A406.53,406.53,0,0,0,79.71,1308c39.82,11.2,40.32,19.07,48.74,1.77l5.47,12.12,41.2.55c-1.79-17.66-7.57-39.53.09-56.93l3.53,57c55-2.84,45.24-87.5,57.24-142.6,14-64.07,13-128.34,43.07-182.75,13.88-25.07,23.76-36.2,38.77-42.09,6.08,10.11-7.92,33.58-13.4,45.6-48.46,106.3-84,268.56-78,383.06l68.31-32.9c1.53-23.2-3.2-64.2-3.2-93,0-73.19,10.12-144.44,29.14-215,1.7-6.29,3.66-14,5.71-20.63l6.62-13.87c-3.61,23.36-13.81,52.24-19.25,76.87C293.1,1178.51,291,1249.39,298.87,1346l66.38-19.66c-1.56-61.59-1.25-128.88,7-187.64,6.38-45.59,9.66-78.67,20.5-125.31,3.75-16.13,4.36-25.62,11.68-38.29-3.51,26.16-12.17,54.44-17.26,82.33-17.5,95.9-20.57,166.16-18.12,267.15l71.72-13.62c-1.94-76.73-2-154.69,6.87-228.66,5.75-47.89,13.91-101,27.65-147.52,9.66-32.71,3.62-28.54,15.14-40.67l4.47-19.23-45.67-18.42,7.68,14.44L452.79,867c-10.88-6-6.57-2.46-11.5.6,2.33-22.1-13.46-33.5-25.88-44.53ZM381.72,116.87c-4.2-2.89-2.87-1.3-8.17-6.87-9.38-9.84-28-34.35-41.3-40.83-6.76-3.3-68.49-18.14-78.64-19.88,14.53,24.32,28.24,27.47,42.54,66.87,29.2,80.38,25.56,220.77,114.57,210.29.41-36.56,13.49-54.57,15.22-87-8.69,6.27-9.87,10.42-21.43,5.13l15.72-2.7c12.23-39.48-9.7-67.52-19.76-99.12l5.25,6.46c28.6,44,9.22,75.73,31,91.56-.05,55.67-21.57,11.24-7.16,131.68,2,16.35,6.21,32.9-6.62,42.35l-7.2-21.36c-20.6,50-66.86,56.65-73.15,166.31C336.78,660.29,378.73,751,432.94,823.7c44.67,59.88,211.33,67.53,282.7,65.41,81.91-2.44,127.35-11.53,193.59-41.79,49.32-22.54,107.1-60.88,128.59-104,20.41-40.92,38.63-144.68,35.64-198.58-4.86-87.71-56.67-83.09-66.48-169.24-4.39,12.39-3.08,24.47-9.91,33.46-5.92-3.68-10.29,3.33-3.46-32.63,2.07-11,5.32-23.14,7.28-34.3,5.78-33.13-.79-42.29-4.93-71.92,20.7,4.36,15.92,19.66,19.55,59.8,61.69-15.12,79.81-62.26,87.46-118.92,7.14-52.82,15.49-111,57.32-145.35-17.9,2.46-39.16,11.09-61.29,14.77-25.82,4.3-43.89,2.07-60.65,17.39l-3.75-8.69c-105.11,14.47-83.65,36-109.2,79.43-14.43-3.61-33.28-14-49.58-20.37-54.6-21.32-107.32-34.6-167.84-33.7-111.84,1.65-144.86,37.33-210,63.81-22.2-14.41-26.8-43.29-59.41-73.28-21.13-19.42-43.93-22.35-71.79-29.46s-21.22-.83-22.2-.32l37.17,41.63ZM290.39,47c-42.31-10.66-66-27.19-77.43-27.26,4.09,36.38,59.62,17.66,91.46,171,35.12,169.11,64.13,131.66,108,151.42,9.34,36.94-13.94,61.18-30.53,82.78-93.85,122.19-33.22,223.72-26.5,288.74-7.48,6.39-10,9.64-18.14,15.69l-36.57,27.31C193.39,861.31,98.37,1035.07,58.23,1182,45.59,1228.3,16.8,1349.47,21.1,1396.67c13.69,19.36,89.26,63,117.58,38.66,6.91-5.95,13.36-18.07,19.84-25.38,19.28-21.75,37.54-49.78,52.54-75.56,4.93,27.95,4.8,70.59,7.8,101.59,14,144.47,53.77,285.31,106.36,418.68,10.26,26,54.33,120.62,78.11,132.55,15.36,6.42,154.5-1.22,168.62-8.9,11.19-8.23,12.33-35,13.86-48.23,8.29-71.75-4.28-139.95-.33-168.2,52.22,15.11,74.17,18.73,133.88,17,39.85-1.13,96.65-4.13,130-16.5,10.05,50.39-8.79,149.64-2.6,209.08,83.8,25.21,97.05,20.38,189,14.34,21-49.33,62.38-90.53,94.71-163.07,55.63-124.81,87.77-279.32,90.65-418.61,1.22-59-4.53-182.64-25.1-228.92,20.32-18.29,75.92-33.78,98.89-99.57,20.22-57.91-2-112.28-27.37-155.84-47.29-81.28-130.2-140.5-213.65-180.58,2.27-24.55,18.1-67.7,23.54-98.74,36.34-207.3-58.11-152-60.54-297.44,35.45-18.19,59-24.62,75.78-55.36,43.39-79.58-7.23-139.62,94.24-232.23,8.18-7.47,25.54-20.66,26.48-34.73-13.07.15-23,13.91-32.88,20.2-36,22.82-84.68,29.43-127.52,34.46-90,10.58-102.9,12.14-134.29,78-31-9-62.21-25.62-98.77-35.63-79.14-21.66-154.43-19.15-231.85,6.78-48.66,16.3-71.12,33.57-90.9,40.72-39.18-54.08-36.43-78.38-118-98.42C349.09,59.51,319.2,54.21,290.39,47Z" transform="translate(-20.67 -19.69)"/><path class="cls-5" d="M742.81,1402.59c-50.3-12.34-44.09,46.61-47.94,32.84-9-32.27-33.3-31.5-38.8-29.92-22.43,24,5.35,59.62,41,98.68,23.84-31,40.85-48.25,44.37-58.75C746.66,1429.91,756.49,1425.77,742.81,1402.59Z" transform="translate(-20.67 -19.69)"/><path class="cls-8" d="M1079.56,1145.27l19-7.46-19,7.46Zm19-7.46c7.07-5.46,48.75-26.75,59.44-30.18-13.23,11.64-37.73,25.44-59.44,30.18Zm59.44-30.18,11.62-7.44-11.62,7.44Zm11.62-7.44,11.05-8.72-11.05,8.72ZM1046,1089l11.49-7.5L1046,1089Zm139.36,1.56,14.46-14-14.46,14Zm-127.87-9.06,11.29-7.5-11.29,7.5Zm11.29-7.5,11-7.61-11,7.61Zm139.07-2.19,14.39-17.69-14.39,17.69Zm-128.07-5.42,10.84-7.57-10.84,7.57Zm10.84-7.57,15.83-11-15.83,11Zm15.83-11,10.51-7.77-10.51,7.77ZM1241.06,1033l-10.5,16.23,10.5-16.23Zm-124.14,7,15.09-11.25-15.09,11.25Zm124.14-7,7.54-11.22-7.54,11.22Zm-109-4.2,19-14.95-19,14.95Zm19-14.95,23.56-18.5-23.56,18.5ZM997.05,972.63l7.58,30.08-7.58-30.08Zm213.64-19.35-5.83,5.65c.45-.52,1.47-1.56,1.84-2l4-3.68Zm-134.87-18.19,11.29,30.6-11.29-30.6Zm134.87,18.19a30.37,30.37,0,0,0,7-7.91c2.83-4.93,3.31-7.55,4.57-14.27l-11.52,22.18ZM997.05,972.63l-17.17-60.71,17.17,60.71Zm63.86-79.29,14.91,41.75Zm0,0-6.17-19.23,6.17,19.23ZM908.22,879.13,868.17,912.2l40.05-33.07Zm140.39-11-9.08-24.86,9.08,24.86Zm46.07-56.9,7.69,10.67-7.69-10.67Zm-78.93-3.63Zm78.93,3.63-4.07-3.6c-.46-.46-1.38-1.41-1.85-1.9l-6.21-7.69c8.23,4,3.39-3.27,12.13,13.19Zm-44.6-49c13.51,7.8,19.92,17.77,31.86,30.5Zm0,0-12.26-.48c-5.66,13.65-18.26,22.48-26.68,34.65l4.61,11.15-12.33-8c-15.31,17.79-33.38,23.36-47.1,38l-2.47,3.29c-12.4,5-20.12,11.44-28.08,22.28-2.34-4.09-2.63,3.39-.43-4.09,0-.12,3.59-6.21,4.47-7.61l-86.32,35L854.67,920l34.18,6.93c13.09,29.65-2.19,92.9.18,135l14.06-10.49c.37-15.66,0-21.1-2.49-34.37-7.49-39.82-5.42-22-1.17-31.39L907,1051.4c42.69-5.74,35.35-2.37,67.13,10.32,38.73-33,32.62-20.38,30.5-59l5.19,24.25c16.37-9.34,28.24-20,41.43-30.24,10.53-8.17,30.88-20,35.86-31,14.46-3.1,25.07-124.8,22.81-131.93l20.31,32c14.47,29.11,11.19,31.22,18.21,49,10.6,26.94,1.12-4,13.85,16.51-9.61,9.19-28.15,21.22-41.71,29.66-22.94,14.28-70,40-73.87,68.08-2.42,17.57-8.42,46.53-.75,59.92-7.29,14.62-2.52,41.61,2,62,13.82,2.25,16.22-3.2,31.61-5.67l-23.25,10.19c-6.2,3.6-1.94,1.14-5.93,5.75,9,15.45,9.36,19.7,21.74,29.24,63.68,3.53,136.68-32.47,172.79-60.16,34-26,68.53-112.19,30.43-168.77-.31,1-22.09,64.89-24.88,58.25-.24-.58-1.25,1.35-1.86,2,7.1-20.52,26.44-45.36,22.24-71.27-1.41-8.66-23.09-48-39.48-58.19-1.18,15-2.84,28.34-9.15,38.75,6.79-68.5,16.44-34.75-37.89-93.29-25.14-27.1-115.46-81.61-139.21-88.66Z" transform="translate(-20.67 -19.69)"/><path class="cls-9" d="M781,601.65c-8.87-17.18-14-33.9-26.58-43.68-6.36-5-6.4-4.68-22.58-10.86-3.39,1.89-7,1.82-9,4.21-13.73,16.46,4.18,45.24,23.83,58.92C762.62,621.32,778.67,621.83,781,601.65Z" transform="translate(-20.67 -19.69)"/><path class="cls-8" d="M490.39,894.06c-.95,20.81.25,8.88-6.31,23.64-39.1,87.85-40.58,301.36-39.85,390.68l42.55-3.75c-40.58-64.53-13.9-314.92,2.33-369.46,18.57-1.72,52.07-6.79,57.29-15.59,3.94-6.66,6.68-22.66,7.43-30.19l-55.52-11.95Z" transform="translate(-20.67 -19.69)"/><path class="cls-5" d="M404.51,244.61l-11-1.76,1.19,22.21c-22.89-2.88-34.44-35.25-48.35-52.82,8.45,3.39,14.9,17.41,20,25.14,10.08,15.27,8.82,18.93,28.42,23.6l-13.48-33Zm0,0,15.72-2.7c12.23-39.48-9.7-67.52-19.76-99.12L393,131.45l-11.32-14.58c-4.2-2.89-2.87-1.3-8.17-6.87-9.38-9.84-28-34.35-41.3-40.83-6.76-3.3-68.49-18.14-78.64-19.88,14.53,24.32,28.24,27.47,42.54,66.87,29.2,80.38,25.56,220.77,114.57,210.29.41-36.56,13.49-54.57,15.22-87C417.25,245.75,416.07,249.9,404.51,244.61Z" transform="translate(-20.67 -19.69)"/><path class="cls-8" d="M1114.62,1196.72c7.8,59.31,10,101,12.64,163.19,24.85,9.95,39.2,28.85,82.55,47.27,1.29-52.4-2.93-192.63-25.72-227.61Z" transform="translate(-20.67 -19.69)"/><path class="cls-8" d="M908.41,1291.59c4.18-12.7-.24-14.22,3.84-29.36.22-.83,1.42-1.19,1.62-2.86s1.26-1.81.56-2.75l-.37,38.88,105.6,22.78c.91-8.22,2.76-19.49,3.51-27.71.78-8.65.18-20.08.16-29-.07-23,0-36-2.94-56.56l-45.84-2.9c-10.44,9.91-5.31,12.48-19.43,21.27-36.6,22.76-61.1,13.34-85-6.07l-17.86,72.42,53.21,3C906,1291.57,907.45,1292,908.41,1291.59Z" transform="translate(-20.67 -19.69)"/><path class="cls-7" d="M43.76,1347.94l11.36,24.67,10.11-18.19c32.62,7.61,44.89,11.76,75.26-1.32-14.06,20.47-56,9-74.69,5.32l-9.08,24.86C39.45,1368.77,56,1366.82,43.76,1347.94Zm0,0c-9.26,2.23-4.09-1.57-8.15,7l-3.22,37.94c14.69,15.23,79.8,55,101.27,30,13.53-16,32.63-29.68,36.46-53.35,1.49-9.27-16.69-29.43-12.4-37.8-34,.71-70.72,2.36-113.42-40.42L38,1340.37C39.87,1342.07,42.21,1346.94,43.76,1347.94Z" transform="translate(-20.67 -19.69)"/><path class="cls-8" d="M1024,1205.77c4.22,58.38,3.2,55,.59,114.35a344.37,344.37,0,0,1,50.24,13.66c17,6.08,31.44,15.28,48.13,19.73-.15-43-.8-119.27-13.43-153.83Z" transform="translate(-20.67 -19.69)"/><path class="cls-3" d="M810,665.14c-73.86,1.74-70.12-80.2-167.16-13-62,42.94-96.86-19.16-32.27-103.56,16.64-21.75,36.15-39.19,66.06-54,41.81-20.71,53.63-4.55,80.6,16C778.71,526.94,799.49,546,814,574c20.45,39.59,12,59.46-4,91.13Zm-326.1-71c4.76-4.63,7.56-8.14,13.77-12.25,11.55-7.65,5,.48,13.5-9.76-23.07-19.54-50.7,37.1-52.76,46.15,20.19,5.08,6.07-2.84,20.79-10.34,48.75,44.57,6.73,44.51,90.06,48.91,42.09,51.66,82-3.25,111-16,46.27-20.29,80.7,39.92,133.88,35,8.83-8.81,5.67-12,17.8-19.42,22.39.15,48.13,2.76,67.12-7.13,18-9.37,22.47-24.53,30.74-36.57l3.46-3.72c9.66,8.66,10.72,16.93,25.36,17.51-1.09-15.93-12-21.5-21.71-29.19-24.61-19.53-14.77-16.62-31.31-19.75,3.11,13,8.54,16,15.39,23.51-13.61,45.25-45.41,45.59-87.54,43.53,18.09-97.61-94.87-175-132.41-170.47-28.81,3.49-79.84,41.5-93.88,59.72-22.59,29.33-40.3,62.21-42.65,111C521.86,647,522.64,646.9,483.89,594.15Z" transform="translate(-20.67 -19.69)"/><path class="cls-7" d="M760.64,388.23c32.08,12.63,108,8.17,140.29.74-6-52-27.36-97.55-73.9-105.64C780.3,275.21,754.6,373.7,760.64,388.23Z" transform="translate(-20.67 -19.69)"/><path class="cls-10" d="M660.08,421.71c-2.72,51.74-91.85,48.82-53.88-26.59L512.93,391c-60.31,105.39,156.72,137.92,143.24-4Z" transform="translate(-20.67 -19.69)"/><path class="cls-7" d="M985.39,1153.05c3.2,2.42,5.31-4.29,11.86,20.25Zm0,0c-2.32-3.92-1.71-2.87-4.29-7.26-.39-.67-2.53-4.43-3.1-5.31l12.2-6.41-18.36,6.29,13.55,12.69Zm4.81-19c3.61-8.31,9.81-63.28,11.5-78.41-11.41,5.09-43.92,31.26-48.7,42-2.32,5.19-12.7,77.1,10.69,88.59,14.14,7,74.64,8.25,91.9,6.24-35.41-47.18-22.31-102.8-20.58-166.54-18.25,10.06-25,13.86-31.5,39.76-5.59,22.46-6.15,40-6.12,65.69Z" transform="translate(-20.67 -19.69)"/><path class="cls-7" d="M518.1,386.1c51.29,9.6,86.16,6.72,136.76-3.12-4.55-44.17-16.85-100.36-70.72-94.54C559.27,291.13,511.65,362.36,518.1,386.1Z" transform="translate(-20.67 -19.69)"/><path class="cls-10" d="M904.3,388.45c26.25,71.95-64.59,115.21-64.81,9.83-12.71.94-31.57-4.34-35.38.15l-23.86,22.51c-7.24-14.3-4.59-12.36-.83-26.19l-22.62-3.28c-8.37,53,29.13,81.56,72.56,92C893,498.9,909.64,457.32,904.3,388.45Z" transform="translate(-20.67 -19.69)"/><path class="cls-3" d="M902.25,393.77c2.88,55-9.22,105.13-72.89,89.75-43.43-10.49-80.93-39-72.56-92l22.62,3.28c-3.76,13.83-6.41,11.89.83,26.19l17.92.21c3.81-4.49,3.63-4.12,6.11-9.15l5.15-12.29c37,.92,62.33-5.43,92.82-5.94Zm-141.61-5.54c32.08,12.63,108,8.17,140.29.74-6-52-27.36-97.55-73.9-105.64-46.73-8.12-72.43,90.37-66.39,104.9Zm45.87-114.37c-44.29,18.33-64,103-62.57,136,4.47,99.06,209.51,150.53,164.24-46.72C894.26,302.46,846.88,257.15,806.51,273.86Z" transform="translate(-20.67 -19.69)"/><path class="cls-3" d="M656.17,386.92c13.48,142-203.55,109.42-143.24,4l93.27,4.17c-7.68,35.29,39.49,34.12,22.56-3.71l27.41-4.49ZM518.1,386.1c51.29,9.6,86.16,6.72,136.76-3.12-4.55-44.17-16.85-100.36-70.72-94.54-24.87,2.69-72.49,73.92-66,97.66Zm52.16-104.36c-36,18.62-65.92,80.11-74.26,122.23-12.58,63.47,33.93,101,94.26,86.68,59.14-14.07,87.6-44.18,74.93-117-4.63-26.6-10.83-55.73-24.5-72.87C628.71,285.72,597.39,267.69,570.26,281.74Z" transform="translate(-20.67 -19.69)"/><path class="cls-3" d="M574.51,968.85c15.89,16.48,106.26,19.95,133.6,20C735.9,989,788.79,980.12,819,975c16.53-2.81,22.2-.77,26.6-12.44-32.08-7.6-97.39,25.46-212.58,9.93C619.28,970.59,575.74,957.6,574.51,968.85Z" transform="translate(-20.67 -19.69)"/><path class="cls-8" d="M624.34,918.73c52.32-2.26,91.36-3.62,143.85-1.73l-.11-18.21c-23-1.55-48.59,2.93-70,2.71-23.16-.23-49.85-3.54-72.36-1.58Z" transform="translate(-20.67 -19.69)"/><polygon class="cls-8" points="832.15 901.78 819.13 867.31 749.82 877.1 752.42 897.64 832.15 901.78"/><path class="cls-2" d="M938.32,1102.66c-36.22-13-34.09,58.7-15.69,78.81,12.57-2.54,7.23-.46,16.86-8.3Z" transform="translate(-20.67 -19.69)"/><path class="cls-2" d="M527.31,1166c.33,46.2,8.81,90.61,15.09,133.44l26,.78Z" transform="translate(-20.67 -19.69)"/><path class="cls-8" d="M622.46,898.3l-64.35-7.22-8.19,33.25,67-6.64c.59-1.25,2-.91,3.7-1.29Z" transform="translate(-20.67 -19.69)"/><path class="cls-3" d="M664.9,704.31c16.28-2.12,18.19-14.9,43.39-15.7,29.34-.93,26.14,14.84,42.58,11.52-1.42-22-45.19-31-74.1-14C662.08,694.71,662.18,691.6,664.9,704.31Z" transform="translate(-20.67 -19.69)"/><path class="cls-3" d="M982,176.37l-6.89,12.5a153.12,153.12,0,0,0-5.28,16.77c-3.8,14.69-3.84,22.57-1.37,37.61,12.68,8.66,15.5,10.39,28.82,1.93l6.07,13.34c22.85-4.56,17.19-6.33,20.87-10.59l-19,8.31c-.56-14.07,2.16-15.84,6.51-26.63-15.27,8-15.9,25.86-38.35,12.3C962.9,220.34,977.51,198,982,176.37Z" transform="translate(-20.67 -19.69)"/><path class="cls-3" d="M43.76,1347.94c12.27,18.88-4.31,20.83,13,35.34l9.08-24.86c18.73,3.64,60.63,15.15,74.69-5.32-30.37,13.08-42.64,8.93-75.26,1.32l-10.11,18.19Z" transform="translate(-20.67 -19.69)"/><path class="cls-3" d="M133.88,1205.31c-10.73,20.11-18.51,77.73-7.39,101.77-.09-16.89-1.19-36.26,0-52.87C127.72,1238.24,133,1222.43,133.88,1205.31Z" transform="translate(-20.67 -19.69)"/><path class="cls-3" d="M404.51,244.61,381.26,228l13.48,33c-19.6-4.67-18.34-8.33-28.42-23.6-5.11-7.73-11.56-21.75-20-25.14,13.91,17.57,25.46,49.94,48.35,52.82l-1.19-22.21Z" transform="translate(-20.67 -19.69)"/><path class="cls-9" d="M618.76,599.8c3-5.88,4.88-12.62,7.7-18.26,5.23-10.47,11.63-19.14,19.9-25.62,6.35-5,6.4-1.4,22.58-7.58,3.4,1.89,6.15-.22,8.14,2.17,13.73,16.45-3.36,44-23,57.68-4.11,2.86-8.7,5.85-12.69,7.15C629.92,619.07,620.48,614.78,618.76,599.8Z" transform="translate(-20.67 -19.69)"/><path class="cls-3" d="M437.94,1922.12c4.69,15.7,7.86,19.68,22.74,25.19l1.62-27.25c14.16,0,18.31.29,28.1-5.5-8.18.64-24.48-.58-29.18,4.55-8.63,9.41,5.86,8.13-10.46,22.63Z" transform="translate(-20.67 -19.69)"/><path class="cls-3" d="M1098.54,1137.81c21.71-4.74,46.21-18.54,59.44-30.18C1147.29,1111.06,1105.61,1132.35,1098.54,1137.81Z" transform="translate(-20.67 -19.69)"/><path class="cls-3" d="M678.35,551.77c5.67,40.86-16.37,44.9-31.18,60.9,13.67-7,21.61-13.75,28.77-25.13,3.5-5.58,6.33-11.38,7.4-18.31C686.05,551.69,678.36,551.78,678.35,551.77Z" transform="translate(-20.67 -19.69)"/><path class="cls-3" d="M430.34,894.19c-10.18,14.75-23.45,57-26.33,79.22Z" transform="translate(-20.67 -19.69)"/><path class="cls-3" d="M122.62,1096.77l19.07-37.71c6.84-13.65,14.36-24.83,19-38.39l-11,16.62c-3.58,6.58-6.59,12.58-10.2,19.69C133.45,1068.91,125.89,1082.94,122.62,1096.77Z" transform="translate(-20.67 -19.69)"/><path class="cls-3" d="M625.61,582.91c9.87-12.44,8.24-15.94,18.22-23.43,9.4-7.07,20-9.67,34.52-7.71-2.84-3.67,5.3-3.16-8.28-5.29-3.2-.51-5.1.2-8.09.95-5.51,1.36-10.14,3.91-15.17,7.16C636.68,561.13,629.87,568.26,625.61,582.91Z" transform="translate(-20.67 -19.69)"/><path class="cls-3" d="M719.4,574.69l2-19.57c7.4-4.62-8.32-1.76,9.33-4.37,9.56-1.41,13.35,2.28,22.3,6-2-2-2.25-3.81-8.65-7.14C727.68,540.93,707.37,551.17,719.4,574.69Z" transform="translate(-20.67 -19.69)"/><path class="cls-3" d="M212.43,1148.84l35.09-68.11C236.31,1090.91,215.59,1135.83,212.43,1148.84Z" transform="translate(-20.67 -19.69)"/><path class="cls-3" d="M625.61,582.91c-7.2,9.12-7.47,10.82-6.68,25.68,7.41,7.84,9.28,13.08,21.17,7.43C614.13,614.32,621.35,603.85,625.61,582.91Z" transform="translate(-20.67 -19.69)"/><path class="cls-3" d="M768.23,574.6c5.55,18.23,10.45,14.88,7.12,38.81.45-.61,9.81.28,3.82-19.43l-7.38-15.24c-.31-.47-1.51-.83-1.74-2.06S768.82,575.3,768.23,574.6Z" transform="translate(-20.67 -19.69)"/><path class="cls-3" d="M175.21,1265.47l11.95-49C179.75,1228.66,175.57,1247.38,175.21,1265.47Z" transform="translate(-20.67 -19.69)"/><path class="cls-3" d="M160.11,1130.29c7.5-9.57,29.69-53.29,33.87-67.44Z" transform="translate(-20.67 -19.69)"/><path class="cls-3" d="M719.4,574.69c2.87,18.41,13.05,27.08,26.25,34.72L730.33,594C725.91,588.17,723,580.42,719.4,574.69Z" transform="translate(-20.67 -19.69)"/><path class="cls-3" d="M1313.78,344.41c13.16-1,10.72.3,8.33-11.89C1314.42,335.42,1314.17,334.94,1313.78,344.41Z" transform="translate(-20.67 -19.69)"/><path class="cls-3" d="M415.41,823c-11.09,12.13-12.4,14.34-13.33,26.52Z" transform="translate(-20.67 -19.69)"/><path class="cls-3" d="M351.6,953.57c-6.22,9.18-10.12,17.3-9.5,30.73Z" transform="translate(-20.67 -19.69)"/><path class="cls-3" d="M985.39,1153.05c-2.32-3.92-1.71-2.87-4.29-7.26-.39-.67-2.53-4.43-3.1-5.31l12.2-6.41-18.36,6.29Z" transform="translate(-20.67 -19.69)"/><path class="cls-3" d="M749.9,611.84c8.49,7.86,7.49,7.24,22.07,5.67Z" transform="translate(-20.67 -19.69)"/><path class="cls-3" d="M1050.08,762.26l31.86,30.5C1070,780,1063.59,770.06,1050.08,762.26Z" transform="translate(-20.67 -19.69)"/><path class="cls-3" d="M1012.12,124.6c.69-.57,1.77-2.35,2-1.74l15.26-17.13C1020.76,110.57,1020.58,108.31,1012.12,124.6Z" transform="translate(-20.67 -19.69)"/><path class="cls-3" d="M985.39,1153.05l11.86,20.25C990.7,1148.76,988.59,1155.47,985.39,1153.05Z" transform="translate(-20.67 -19.69)"/><path class="cls-3" d="M347.09,849.2l24.07-27.1C360.57,829,356.09,836.26,347.09,849.2Z" transform="translate(-20.67 -19.69)"/><path class="cls-3" d="M1210.69,953.28a30.37,30.37,0,0,0,7-7.91c2.83-4.93,3.31-7.55,4.57-14.27Z" transform="translate(-20.67 -19.69)"/><path class="cls-3" d="M290.24,837.37c9.34-5.7,5.55-2.64,12.58-11.27,5-6.1,6.83-7.9,12.07-15Z" transform="translate(-20.67 -19.69)"/><path class="cls-3" d="M379.58,893.46l8.2-23.3C380.23,880.72,379.63,885.53,379.58,893.46Z" transform="translate(-20.67 -19.69)"/><path class="cls-3" d="M1094.68,811.21c-8.74-16.46-3.9-9.17-12.13-13.19l6.21,7.69c.47.49,1.39,1.44,1.85,1.9Z" transform="translate(-20.67 -19.69)"/><path class="cls-3" d="M201.62,954.46c4.67-4.51-1.19,2.74,5.7-6.12.77-1,3.55-5,4.66-6.62,3.8-5.56,5.08-7.36,8.17-14.32Z" transform="translate(-20.67 -19.69)"/><path class="cls-3" d="M235.5,995.63c2.32-2.37.91-.1,5.5-6.1,0,0,4.07-5.8,4.6-6.6a83.5,83.5,0,0,0,8.33-14.61Z" transform="translate(-20.67 -19.69)"/><path class="cls-3" d="M523.57,1899.44l17.65-5c-4.58-.82-2.5-1.73-7.72-.12C524.17,1897.16,525.46,1898.21,523.57,1899.44Z" transform="translate(-20.67 -19.69)"/><path class="cls-3" d="M359.11,935,371,910.71c-.91.34-1.85.33-2,1.31s-1.41,1.22-1.65,1.58Z" transform="translate(-20.67 -19.69)"/><path class="cls-3" d="M1046.05,222.42,1033.5,237.3c4.66-3,3.5-.83,7.19-5.42C1043.53,228.36,1044,226.56,1046.05,222.42Z" transform="translate(-20.67 -19.69)"/><path class="cls-3" d="M325.41,875.21c.73-.53,1.9-2.23,2.18-1.6l7.37-7.77c3.66-4.58,5.79-7.58,9.93-13.56Z" transform="translate(-20.67 -19.69)"/><path class="cls-3" d="M1046.05,222.42c4.18-3.6,1.07,4.28,6-6.56Z" transform="translate(-20.67 -19.69)"/><path class="cls-3" d="M1210.69,953.28l-4,3.68c-.37.41-1.39,1.45-1.84,2Z" transform="translate(-20.67 -19.69)"/><path class="cls-3" d="M490.4,1914.56l33.17-15.12Z" transform="translate(-20.67 -19.69)"/><path class="cls-3" d="M1241.06,1033l-10.5,16.23Z" transform="translate(-20.67 -19.69)"/><path class="cls-3" d="M1116.92,1040.08l15.09-11.25Z" transform="translate(-20.67 -19.69)"/><path class="cls-3" d="M209,1037l7.33-12.22Z" transform="translate(-20.67 -19.69)"/><path class="cls-3" d="M1241.06,1033l7.54-11.22Z" transform="translate(-20.67 -19.69)"/><path class="cls-3" d="M1132,1028.83l19-14.95Z" transform="translate(-20.67 -19.69)"/><path class="cls-3" d="M216.37,1024.77l19.13-29.14Z" transform="translate(-20.67 -19.69)"/><path class="cls-3" d="M162.9,1014.48l9.53-12.63Z" transform="translate(-20.67 -19.69)"/><path class="cls-3" d="M1151,1013.88l23.56-18.5Z" transform="translate(-20.67 -19.69)"/><path class="cls-3" d="M1004.63,1002.71l-7.58-30.08Z" transform="translate(-20.67 -19.69)"/><path class="cls-3" d="M182.55,983.33l-8.46,12.3Z" transform="translate(-20.67 -19.69)"/><path class="cls-3" d="M182.55,983.33l11.68-17.71Z" transform="translate(-20.67 -19.69)"/><path class="cls-3" d="M133.88,1205.31l8.52-26.19Z" transform="translate(-20.67 -19.69)"/><path class="cls-3" d="M997.05,972.63l-17.17-60.71Z" transform="translate(-20.67 -19.69)"/><path class="cls-3" d="M253.93,968.32l7.57-10.69Z" transform="translate(-20.67 -19.69)"/><path class="cls-3" d="M201.52,1174.92l-8.64,19.35Z" transform="translate(-20.67 -19.69)"/><path class="cls-3" d="M194.23,965.62l7.39-11.16Z" transform="translate(-20.67 -19.69)"/><path class="cls-3" d="M261.5,957.63l11.25-15.1Z" transform="translate(-20.67 -19.69)"/><path class="cls-3" d="M1087.11,965.69l-11.29-30.6Z" transform="translate(-20.67 -19.69)"/><path class="cls-3" d="M351.6,953.57,359.11,935Z" transform="translate(-20.67 -19.69)"/><path class="cls-3" d="M272.75,942.53l8.9-10.49Z" transform="translate(-20.67 -19.69)"/><path class="cls-3" d="M1075.82,935.09l-14.91-41.75Z" transform="translate(-20.67 -19.69)"/><path class="cls-3" d="M295.37,912.68l-12.64,14.67Z" transform="translate(-20.67 -19.69)"/><path class="cls-3" d="M220.15,927.4" transform="translate(-20.67 -19.69)"/><path class="cls-3" d="M242.52,897.16l-12.33,14.91Z" transform="translate(-20.67 -19.69)"/><path class="cls-3" d="M295.37,912.68l14.79-19.17Z" transform="translate(-20.67 -19.69)"/><path class="cls-3" d="M868.17,912.2l40.05-33.07Z" transform="translate(-20.67 -19.69)"/><path class="cls-3" d="M430.34,894.19l8.54-18.68Z" transform="translate(-20.67 -19.69)"/><path class="cls-3" d="M242.52,897.16,254,882.38Z" transform="translate(-20.67 -19.69)"/><path class="cls-3" d="M1060.91,893.34l-6.17-19.23Z" transform="translate(-20.67 -19.69)"/><path class="cls-3" d="M310.16,893.51l15.25-18.3Z" transform="translate(-20.67 -19.69)"/><path class="cls-3" d="M456.87,870.85l14.2,20.53Z" transform="translate(-20.67 -19.69)"/><path class="cls-3" d="M254,882.38l16.21-18.61Z" transform="translate(-20.67 -19.69)"/><path class="cls-3" d="M1048.61,868.11l-9.08-24.86Z" transform="translate(-20.67 -19.69)"/><path class="cls-3" d="M201.52,1174.92l8.44-18.13Z" transform="translate(-20.67 -19.69)"/><path class="cls-3" d="M271.29,859.37,289,841.19Z" transform="translate(-20.67 -19.69)"/><path class="cls-3" d="M1117.19,844.92l-14.82-23Z" transform="translate(-20.67 -19.69)"/><path class="cls-3" d="M1015.75,807.58" transform="translate(-20.67 -19.69)"/><path class="cls-3" d="M1102.37,821.88l-7.69-10.67Z" transform="translate(-20.67 -19.69)"/><path class="cls-3" d="M160.11,1130.29l-16.38,37.5Z" transform="translate(-20.67 -19.69)"/><path class="cls-3" d="M1079.56,1145.27l19-7.46Z" transform="translate(-20.67 -19.69)"/><path class="cls-3" d="M104,1145.66,115.25,1115Z" transform="translate(-20.67 -19.69)"/><path class="cls-3" d="M768.23,574.6l-8.77-11.09Z" transform="translate(-20.67 -19.69)"/><path class="cls-3" d="M115.25,1115l7.37-18.2Z" transform="translate(-20.67 -19.69)"/><path class="cls-3" d="M1158,1107.63l11.62-7.44Z" transform="translate(-20.67 -19.69)"/><path class="cls-3" d="M1169.6,1100.19l11.05-8.72Z" transform="translate(-20.67 -19.69)"/><path class="cls-3" d="M1199.78,1076.53l-14.46,14Z" transform="translate(-20.67 -19.69)"/><path class="cls-3" d="M1046,1089l11.49-7.5Z" transform="translate(-20.67 -19.69)"/><path class="cls-3" d="M1057.45,1081.48l11.29-7.5Z" transform="translate(-20.67 -19.69)"/><path class="cls-3" d="M1068.74,1074l11-7.61Z" transform="translate(-20.67 -19.69)"/><path class="cls-3" d="M1222.2,1054.1l-14.39,17.69Z" transform="translate(-20.67 -19.69)"/><path class="cls-3" d="M1079.74,1066.37l10.84-7.57Z" transform="translate(-20.67 -19.69)"/><path class="cls-3" d="M265.26,1047.7l-16.46,26.24Z" transform="translate(-20.67 -19.69)"/><path class="cls-3" d="M982,176.37l15.08-29.07Z" transform="translate(-20.67 -19.69)"/><path class="cls-3" d="M997.12,147.3l7.33-11.86Z" transform="translate(-20.67 -19.69)"/><path class="cls-3" d="M1090.58,1058.8l15.83-11Z" transform="translate(-20.67 -19.69)"/><path class="cls-3" d="M400.47,142.79,393,131.45Z" transform="translate(-20.67 -19.69)"/><path class="cls-3" d="M1004.45,135.44l7.67-10.84Z" transform="translate(-20.67 -19.69)"/><path class="cls-3" d="M393,131.45l-11.32-14.58Z" transform="translate(-20.67 -19.69)"/><path class="cls-3" d="M194,1062.85,209,1037Z" transform="translate(-20.67 -19.69)"/><path class="cls-3" d="M1106.41,1047.85l10.51-7.77Z" transform="translate(-20.67 -19.69)"/><path class="cls-3" d="M697.8,1497.08c-13.52-10.94-59.49-54.61-45.34-85.81,25.34-13.22,33.62,14.57,41.58,29.53,2.71-2.79,1.75-.67,4.86-6.21,4.85-8.6,6.19-17.95,18.45-26.27,18.36-12.45,35.9-3.48,28.31,20.34-6,18.69-36.75,57.91-47.86,68.42Zm0,10.8c12.86-12.91,44.33-56.69,51.9-74.84,17.12-41-30.72-50.83-53.18-7.45-10.71-12.53-21.89-27.16-46.81-21C631,1440.58,669.4,1479.88,697.8,1507.88Z" transform="translate(-20.67 -19.69)"/><path class="cls-11" d="M574.51,968.85c1.23-11.25,44.77,1.74,58.52,3.6,115.19,15.53,180.5-17.53,212.58-9.93-4.4,11.67-10.07,9.63-26.6,12.44-30.22,5.16-83.11,14-110.9,13.94-27.34-.1-117.71-3.57-133.6-20Zm306.11-33.67c-118.3-6.38-232.54-14.58-349.41,2.73-26.32,123.18,19.92,287.06,60.53,391.19,7.49,19.19,14.84,19.65,35.67,24.21,47.17,10.32,115.89,11.92,159.75-1.42,41.67-12.67,53.88-63.74,65.35-111,4.74-19.49,4.34-33.14,13.21-44,17.86,8.22,17,26.41,45,27.54,16.53.67,39.59-5.6,48.94-23-6-11.11-5.9-5.29-15.14-15.13-30.09,9.67-39.76,6.44-45-29.92-4.75-33.19,3.09-50.64,18.93-68.3l26.8,1.85c6.41-11.56,9.13-10.74,16.66-20.26-33.05-29.37-72.46,9.62-85.48,10.57Z" transform="translate(-20.67 -19.69)"/><path class="cls-4" d="M574.51,968.85c3.51-32.24,239-13.94,271.1-6.33-4.4,11.67-10.07,9.63-26.6,12.44-30.22,5.16-83.11,14-110.9,13.94-27.34-.1-117.71-3.57-133.6-20Zm306.11-33.67c-118.3-6.38-199.79-20.31-316.65-3-26.32,123.19,22.37,318.18,63,422.31,7.49,19.2-20.37-5.73.46-1.17,47.17,10.32,115.89,11.92,159.75-1.42,41.67-12.67,53.88-63.74,65.35-111,4.74-19.49,4.34-33.14,13.21-44,17.86,8.22,17,26.41,45,27.54,16.53.67,39.59-5.6,48.94-23-6-11.11-5.9-5.29-15.14-15.13-30.09,9.67-66.78-7.48-72-43.84-4.75-33.19,30.11-36.72,46-54.38l26.8,1.85c6.41-11.56,9.13-10.74,16.66-20.26-33.05-29.37-72.46,9.62-85.48,10.57Z" transform="translate(-20.67 -19.69)"/><path class="cls-10" d="M904.3,388.45c26.25,71.95-64.59,115.21-64.81,9.83-12.71.94-26.66-1.68-34.36-1.69,30.21,46.67-66.38,28.27-25.71-1.84l-22.62-3.28c-8.37,53,29.13,81.56,72.56,92C893,498.9,909.64,457.32,904.3,388.45Z" transform="translate(-20.67 -19.69)"/><path class="cls-12" d="M1136.5,1419.59c1.58,45.9,6.57,85.29,10,130.31,5.1,66.82-9,117.28-38,176.54-8.54,17.48-5.66,12-17.56,28.33,2.86-21.72.87-12.38,6.36-32.56,17.41-63.9,29.29-100.38,19-168.85-6.9-46.12-14.16-84.37-18.5-131.56a19.34,19.34,0,1,1,38.62-2.21Z" transform="translate(-20.67 -19.69)"/><path class="cls-12" d="M532.24,1761.32c-1.65,16-6.24,69.44-10.89,81.44l-6.81,11.91-7-11.76c-5.5-13.23-12.19-65.15-14-81.59a19.34,19.34,0,0,1,38.68,0Z" transform="translate(-20.67 -19.69)"/><path class="cls-12" d="M1025.17,484.07l.12-.7c5.51,36.45,10.72,67.83,9.38,104.88-1.51,41.54-.33,73.27-19,111.88-7-13.37-4.14-10.86-3.18-27.41,1.55-26.84-3.59-70.54-6.62-98.26-3.56-32.5-18-64.12-18.37-96.61a19.34,19.34,0,0,1,37.69,6.22Z" transform="translate(-20.67 -19.69)"/><path class="cls-12" d="M913.43,222.5l-3.92,2.9-2.46-1.22c-6.22,2.44-1.95.37-10.94,9.23-17.92-.83-14.05.79-20.6-18.57a19.34,19.34,0,0,1,37.92,7.66Z" transform="translate(-20.67 -19.69)"/><path class="cls-12" d="M784,798.26c3.77,18.37,3.45,9,.78,28h0c-13.77-12.26-7.39-5.29-18.88-21.16a9.67,9.67,0,0,1,18.1-6.81Z" transform="translate(-20.67 -19.69)"/><path class="cls-12" d="M719.05,386.85c-8.13,10.07-8.19,21.4-14.55,35.5-8.19-17.62-9.36-28.74-1.45-46.37a9.67,9.67,0,1,1,16,10.87Z" transform="translate(-20.67 -19.69)"/><path class="cls-12" d="M853.5,320.55c6.4,13.85,13.49,23.12,4.94,36.3l-3.87-4.62c-7.3-10.77-7.72-10.61-17.39-21.31a9.67,9.67,0,1,1,16.32-10.37Z" transform="translate(-20.67 -19.69)"/><path class="cls-12" d="M633.93,322.46c-4.15,8.4-1.2,4.36-9.67,11.46-8.47-7.1-5.52-3.06-9.67-11.46a9.67,9.67,0,0,1,19.34,0Z" transform="translate(-20.67 -19.69)"/><path class="cls-12" d="M798,1700.7c52-6.53,109.45-66.7,125.31-114.86l3.07-9.77c1.81,15,1.5,18.27-4,33.23-18.07,49.16-70.65,101.46-123.09,110.7a9.67,9.67,0,0,1-1.29-19.3Z" transform="translate(-20.67 -19.69)"/><path class="cls-12" d="M140.72,1398.33c.36-.48.51-.52.52-1.09-3.44,0-4,11.68-22.19,11,2.48-9.1,6-22.73,14.35-27.79a9.67,9.67,0,1,1,7.32,17.91Z" transform="translate(-20.67 -19.69)"/><path class="cls-12" d="M982.21,1100.38c-1.91-.66-16.14,8.9-19.78,10.6l-1.52-7.62c.6-8.27,8-16.76,14.49-21.09a9.67,9.67,0,1,1,6.81,18.11Z" transform="translate(-20.67 -19.69)"/></svg>