<svg id="svg1876" xmlns="http://www.w3.org/2000/svg" viewBox="0 0 454.91 354.33"><defs><style>.cls-1{opacity:0.8;isolation:isolate;}</style></defs><title>Smiling_pig</title><g id="layer1"><path id="path2159" class="cls-1" d="M292.46,352a9.06,9.06,0,0,0-1.79-2.82c-.45-.34-2.75-4.88-5.1-10.11a140.5,140.5,0,0,0-7.49-14.52c-1.77-2.76-6.88-15.62-11.35-28.59l-8.13-23.58-14.42.78c-9.84.54-16.66.22-21.5-1-3.89-1-7.57-1.45-8.18-1s-3.77,5.52-7,11.32a107.29,107.29,0,0,1-16.26,21.08c-5.68,5.79-11.52,13.05-13,16.13s-4.36,6.59-6.43,7.79c-3.57,2.06-13,9.55-14.27,11.36-1.17,1.63-11.21,7-13.32,7.12-1.2.07-1.88-.6-1.56-1.53,2.13-6.23,2.35-6-4.5-4.92-5,.77-6.53.59-6.61-.78-.05-1,4.72-7.33,10.6-14.12,11.1-12.8,25-35,31.83-50.66,3.85-8.91,6.49-19.68,4.84-19.78-.46,0-4.64-.1-9.29-.15-9.46-.1-29-2.72-30.11-4-1.59-1.93-9.49-4.6-13-4.4-5.77.33-28.85-4.52-36.37-7.65a54.25,54.25,0,0,1-11.33-6.59,33.92,33.92,0,0,0-10-5.36c-9.26-2.68-22.51-9.81-29-15.63-5-4.42-7.32-8-11.07-16.76-2.62-6.12-4.9-13.46-5.07-16.3-.26-4.5-.86-5.44-4.56-7.15a68,68,0,0,1-10.81-7.29c-6.39-5.19-6.57-5.52-7-12.84-.87-15.13,4-35.63,11.4-47.82,4.07-6.72,4.48-8.9,1.62-8.74-1.05.06-4.62-1-7.94-2.4C1.73,89.15.14,87.76,0,85.6c-.24-4.06,1.77-10,4-12,4.43-3.8,11.85-17.18,18.85-34C36.54,6.8,47.14-1.83,69.18,1.93c5.73,1,13.69,6.06,26.55,16.93l5.65,4.78L110,17.76C122.67,9,129.79,6.9,145.5,7.06c38.68.4,38.79.41,47.69,4.41l8.43,3.8L215.21,7.7C228.52.3,229,.14,238.66.07L248.52,0l9.88,9.15c5.44,5,13.1,11.49,17,14.36,7.42,5.4,12,11.8,14.12,19.59l1.22,4.55,16.86-.51c20.34-.63,32.37,1.53,50.54,9.07,10.63,4.41,14.4,6.85,23.73,15.33,12.68,11.53,23.94,25.77,28.43,35.94,2.11,4.79,3.79,12.52,5.34,24.63,2.19,17,2.42,17.79,6.34,21.48a47.24,47.24,0,0,1,7.14,9.17c2.54,4.41,3.71,5.31,6.77,5.13,10.48-.6,19.14,6.74,19,16.11-.08,5.21-.33,5.59-4.26,6.2-4.16.64-4.19.61-4.52-5.12s-.47-5.79-5.05-6.38c-2.59-.33-4.83-.41-5-.18s-.78,3.63-1.42,7.56c-1.79,11.11-6.38,18.25-13.57,21.11s-10.62,2.23-13.24-2.14l-1.9-3.17L404.19,205c-4.32,7.58-7.3,26.76-6.46,41.62.4,7-.29,10.22-4.51,21.06-4.87,12.49-6.46,20.47-7.22,36.31-.33,6.86-.94,8.41-5,12.63a39.91,39.91,0,0,0-6.45,9c-2.32,5.27-8.83,12.68-11.27,12.82-1.09.06-1.91-1.19-2-3.06-.26-4.56-2.6-5.18-6.67-1.79-4.32,3.59-7.5,4-7.64.91-.17-3.75,4.19-13.73,9.43-21.58,5.8-8.68,8.78-22.11,8-36-.57-10.12-2.86-15.51-8.63-20.34l-4.08-3.42-2.81,8.39a80.3,80.3,0,0,0-3.38,14.9c-.86,9.67-2,12.23-6.82,15.47a24.66,24.66,0,0,0-7,8.23c-2.61,5.34-8.75,10.72-12.49,10.94a3.56,3.56,0,0,1-3-2.43c-1.16-3-2.53-3.15-4.59-.35a3.94,3.94,0,0,1-4,1.43c-2.14-.55-2.35-.17-1.45,2.7,1.4,4.49,3.22,31.24,2.2,32.41-1.3,1.49-6.11-1.34-7.22-4.25-1.55-4.06-3.22-1.05-3.69,6.62-.41,6.89-3,9.33-5,4.74Zm-.34-21.7c-.18-3.28,4.1-3.83,6.63-.85,1.32,1.56,2.63,2.54,2.9,2.17S300.28,322,298,311c-5-24-8.58-55.11-6.74-58.85,1.1-2.26,1.41-1.89,2.47,2.88.66,3,1.57,5.42,2,5.39,2.13-.16,14.59-4.84,23.68-8.88,19.57-8.69,25.93-12.38,26.38-15.3.24-1.52.81-6,1.26-10,2.12-18.63,6.64-19.73,6.63-1.61,0,5.45,4.86,16.88,13.45,31.58,6.18,10.57,6.21,10.67,6.84,24,.73,15.44-1.53,23.42-9.45,33.27-4.73,5.9-4.91,8.17-.41,5.42,2.33-1.43,2.63-1.25,2.8,1.68.27,4.67,1.91,4,4.85-2,1.4-2.87,3.39-5.6,4.43-6.07,1.43-.64,1.77-3.05,1.38-9.76-.56-9.83,1.95-24.79,5.88-35,2-5.24,2.47-9.41,2.13-19.63-.24-7.13.31-16.53,1.22-20.87,1.84-8.79,8-25.18,13.86-36.83,2.24-4.47,5.15-14.13,7-23.16,2.82-14,3-16.77,1.65-29.05-2.69-24.8-9.52-38.24-27.81-54.74C365.17,68.79,361.71,66.61,347.4,62a125.63,125.63,0,0,0-45.94-6c-10.46.61-12.3,1-12.86,3C285,71.94,276,88.38,264.67,103c-6.09,7.84-10,11.38-17.68,16.06-9.18,5.58-10.44,6-18.15,5.95-9.91-.06-14.3-2.46-19.08-10.43-3-5-3.36-6.92-3.52-18-.17-11.88.11-13.12,6.84-30.81,8.11-21.3,10.59-32.1,9-39.28-1-4.34-.78-5,1.22-4.73,1.28.16,3.84,3,5.7,6.21l3.37,5.92-8,19.85C213.88,79.5,212.92,83.1,213.54,93.93c.88,15.17,7.62,22.65,19.78,21.94,13.17-.76,29.93-19.5,42.49-47.52C284.47,49,282.13,36,268.52,27.87a169,169,0,0,1-15.26-11c-10.4-8.45-13.6-9.71-20.87-8.19-5.76,1.2-21.36,12-26.51,18.27-3.75,4.59-8.89,5.17-9.14,1-.16-2.77-4.84-6.11-14.79-10.53-4.4-2-42.76-4.21-48.33-2.84-9.74,2.4-23.9,11.65-30.21,19.73-2,2.59-7.14,7.12-11.37,10.06l-7.7,5.35,8.11-.08c7.59-.08,8.26.16,10.41,3.8,3.79,6.39,1.61,23.39-3.85,30.19-1.86,2.3-1.72,2.72,2.19,6.42,4.4,4.16,6.68,9.16,4.79,10.49-.62.43-3.38-1.17-6.14-3.56-4.27-3.7-14.69-7.66-19.43-7.39-.65,0,2,3.15,5.84,6.92,6.38,6.23,8.41,9.16,6.41,9.28-.4,0-3.59-2.07-7.08-4.65Q74,92.56,67.41,92.94c-3.07.18-4.47,2.09-2.14,2.94,1.61.59,10.11,12.46,10.21,14.26a12.46,12.46,0,0,0,1,3.62c1.87,4.15-1.56,1.84-8.75-5.88C54,93.08,37,89.58,25.26,99.11c-6.4,5.18-13,16.78-14.07,24.74A117.48,117.48,0,0,0,11,140.13c.5,9.62.9,11.05,3.81,13.65,6.29,5.61,21.39,7,40.94,3.7,15.53-2.61,22.34-5.51,26.3-11.22,3.37-4.86,5-4.42,3.34.89-.64,2-1,3.78-.79,3.91,1.17.71,32.82-4.13,40.85-6.25,13.26-3.5,23.64-11,29.6-21.34,1.71-3,1.49-3.43-4.55-9.59s-8-9.67-5.24-9.83a1.24,1.24,0,0,1,1.36,1.06c.08,1.4,9.16,4.68,23.57,8.51,13.4,3.56,22.55,8.85,26.26,15.19,3.27,5.58,1.81,9.57-1.51,4.13-2.39-3.9-9.23-7.12-19.55-9.18-12.65-2.53-13.1-2.32-13.68,6.3-.7,10.52-4.87,27.95-8.91,37.26-4.76,11-10,17.19-18.1,21.48-9.35,4.95-17.65,4.59-31.34-1.34-9.21-4-10.53-5.07-15.73-12.71A114.17,114.17,0,0,0,79,163.33l-3-3.07-7.77,2.92c-6,2.24-28.76,6.77-36.33,7.21-1.61.1-.67,6.82,1.77,12.73,8.07,19.49,19.28,29.42,36.21,32.08,5.45.86,8.77,2.41,13.61,6.38,10.87,8.9,31.36,15.2,44.71,13.74,9.57-1,21.75-4.06,25.61-6.35l6.91-4.07c1.38-.81,5-3,8-4.85s5.83-3.07,6.24-2.71c1.39,1.25-6.21,14.06-8.42,14.19-.42,0-3.25,1.94-6.29,4.26s-6.81,4.29-8.36,4.38-2.58.81-2.2,1.75c1.36,3.42,26.42,3.52,45.15.19,16.4-2.91,22.47-3.45,18.74-1.67a17.29,17.29,0,0,0-4.84,4.1,8.68,8.68,0,0,1-5.27,3.06c-1.62.09-3.26.73-3.64,1.42-.77,1.43,6.56,2.19,18.9,1.95l8.44-.17-7.95,3c-4.36,1.67-7.92,3.41-7.89,3.86s3.18,2,7,3.36c5.56,2,10.15,2.5,22.79,2.27,15.65-.28,15.81-.31,14.94-3-1.12-3.44-.19-3.48,4.81-.21,3.58,2.34,4,3.35,4.41,9.72.28,4.91,2.52,12.5,7.26,24.6,3.77,9.63,6.91,18.48,7,19.67s1.67,3.79,3.55,5.78a28,28,0,0,1,5.11,8.71c1.54,4.65,4.2,5.78,4,1.68ZM110.53,208c-9.64-2.39-19.34-8.48-14-8.79a83.07,83.07,0,0,1,10.4,1.88,116.58,116.58,0,0,0,19,2.22c5.6.14,11.65.48,13.44.75,3.09.47,3.13.58.82,2.06C136.23,208.57,117.78,209.74,110.53,208Zm109.68-11.72c3.19-2.42,15.21-18.78,18-24.52,4-8.19,8.89-23.06,10.4-31.69,1.61-9.21,4.69-9.61,5.2-.69.73,12.55-3.38,30.59-9.16,40.24-3.2,5.34-19.55,17.4-23.86,17.61C219.55,197.23,219.34,196.9,220.21,196.23ZM59,126.27c-.45-.4-1-3-1.1-5.7-.21-3.55-.84-4.93-2.23-4.85-1.07.06-1.91.69-1.87,1.41s-1.09,1.36-2.51,1.44c-3.5.2-3.91-6.31-.61-9.67,5.41-5.5,11.74.06,12.37,10.87C63.35,125,61.29,128.31,59,126.27Zm-40.19-.19c-1.34-1.2-1.49-7.49-.26-11.39,1.94-6.15,8.9-4,9.3,2.89.16,2.82-.4,3.67-2.51,3.79a3.43,3.43,0,0,0-3.23,2.78c-.55,2.7-1.69,3.37-3.3,1.93Zm162.32-42.3c-8.91-5.19-20.27-7.1-40-6.72l-18.81.37,5-3.11c3.72-2.3,6.33-5.66,10-12.93,7.78-15.2,11-18.62,17.87-19,5.85-.33,16.81,2.84,18.6,5.38a3.12,3.12,0,0,1-.4,3.29c-1,1.32-.91,3.8.23,8.5.88,3.65,1.39,7.68,1.13,9-.32,1.61,1,3.14,4.34,4.93,5.46,3,8.94,6.86,9.14,10.23.17,3-2.14,3-7.14.12ZM168.38,68.21c.54-1.68-.11-1.85-3.74-.95s-5,.55-8-2.15-3.6-4.18-3.44-8.42S153,51.61,151.41,52c-2.47.61-9.7,12.73-9.52,15.93.12,2.07.94,2.25,6.25,1.38a46.49,46.49,0,0,1,12-.12c3.25.48,6.28.92,6.74,1S168,69.34,168.38,68.21Zm-2.33-9.4a4.82,4.82,0,0,0-1.94-2.52c-1.44-1.06-2-.94-2.48.51a2.87,2.87,0,0,0,.21,2.62c1.26,1.11,4.28.68,4.21-.61Zm-1.81-26.76c-.41-.36-4.79-1.16-9.74-1.79-10.05-1.26-12.05-3.78-4.82-6.11,8.12-2.61,18.32.9,18.64,6.42C168.43,32.44,165.76,33.41,164.24,32.05Zm-4.83,296.86c2.2-2.55,5.61-5.06,7.56-5.57,2.34-.61,4.44-2.63,6.12-5.91,4.38-8.51,21-31.87,28.81-40.46,4.09-4.51,7.41-8.57,7.39-9s-2.55-2.38-5.62-4.27c-16.09-9.91-16.52-9.9-18.16.1-1.85,11.27-12.56,30.6-30.26,54.62-8.7,11.8-9.94,14.73-4.93,11.67,3.48-2.13,3.84-2,3.23,1-.78,3.88,1.33,3.1,5.86-2.15Zm152.4-37.27c5.32-8.79,7.13-14.53,6.73-21.4-.28-4.81-.76-5.85-2.69-5.74-3,.18-15.87,4.74-17.12,6.07-.88.93,4.06,30.81,5.77,34.89.52,1.24,1.26.27,2.13-2.79a56.81,56.81,0,0,1,5.18-11ZM333,287.32c1.09-.69,2.86-5.39,3.93-10.43s3-12.68,4.23-17,2.21-8.91,2.13-10.26c-.13-2.24-.62-2.13-6.08,1.43-9.17,6-10,7.09-10.49,15.09-.3,4.54-2.25,11.46-5,17.91-4.24,9.81-4.86,14.07-1.51,10.3,2.83-3.17,4.78-2.05,4.23,2.44-.51,4.14-.43,4.09,3.05-2,2-3.44,4.47-6.82,5.55-7.51Zm88.34-88.7c2.31-2.28,4.46-5.41,4.77-7,.51-2.58.3-2.52-2.8.82-3.42,3.67-8.17,5-9.79,2.65-1.84-2.63.39-9.09,4-11.49,4.64-3.12,5.81-6.28,2-5.49-4.49.94-10.2,10.11-9.87,15.85.3,5.17,2.81,9,5.76,8.85,1-.05,3.63-2,5.94-4.24Zm-.16-12.42c-.46-.41-1.46.65-2.22,2.37-1.31,3-1.27,3,.84.74,1.21-1.3,1.83-2.7,1.38-3.11Zm18.86-12.15c3.09-.26,3.17-.39.79-1.26-4.46-1.62-8.5-1-8.37,1.28.08,1.36.81,1.77,2.13,1.17A20.94,20.94,0,0,1,440.08,174.05Zm-23.24-1.32c0-.72-.64-.91-1.33-.42a2.85,2.85,0,0,0-1.17,2.17c0,.71.64.9,1.32.42A2.84,2.84,0,0,0,416.84,172.73Zm6-7.22c-1.73-3.19-3.95-5.75-4.94-5.69-2.63.15-2,3.71.9,5.05,1.37.64,3.37,3,4.45,5.21s2.14,3.43,2.35,2.65S424.57,168.7,422.84,165.51Zm-295.5,14.82c3.3-1,6.95-3,8.11-4.51,3-3.91,2.31-9.77-1.67-13.31-3.48-3.1-6-2.87-10,.89-1.69,1.63-2.74,1.71-6.46.5a24.5,24.5,0,0,0-9.15-.78c-4.21.6-4.76,1.13-5.27,5.11-.85,6.61.85,10.37,5.59,12.4C113.65,182.82,119.32,182.73,127.34,180.33ZM98.65,164.68c1.21-2.64,1.86-5.09,1.45-5.46s-3.77-.32-7.45.11l-6.7.78,4.35,5.33c2.4,2.92,4.76,5,5.25,4.68a24.45,24.45,0,0,0,3.1-5.44Zm48.92-4.55c2-6,3.2-16.11,1.93-16-1.43.08-26.41,9.42-29.21,10.93-2,1.05-1.69,1.14,1.32.39,2.11-.53,5.14-1.37,6.72-1.87,4.79-1.5,10.49,1.36,13.33,6.71,1.43,2.68,3,4.87,3.43,4.86s1.57-2.25,2.48-5ZM60.66,88.43c2.79-2.19,4.31-27.86,1.64-27.7-.68,0-2.86,2.76-4.86,6.06a48.51,48.51,0,0,1-9.2,10.5c-3.06,2.48-5.52,4.85-5.46,5.26.14.91,13.46,7,15.27,6.93a5.25,5.25,0,0,0,2.61-1ZM26.37,80.89c5.23-2.31,9.14-5.49,15.05-12.24C52.36,56.16,64.78,35,67.81,23.6c.72-2.68,1.83-4.89,2.47-4.93,2.82-.16,3.21,7.15.9,16.74-1.33,5.5-2.59,11.76-2.8,13.92L68,53.25l4.13-4.35a79.34,79.34,0,0,1,12.59-9.62Q93.19,34,93,31.66c-.19-3.29-11.84-12.23-21.22-16.27-9-3.87-20.28-4.57-25.24-1.57C41.38,17,34.84,28.3,30.52,41.65c-5.14,15.85-7.43,20.48-14,28.22-6.41,7.55-8.49,13-5.19,13.71,4.69,1,8.21.32,15-2.69Zm48.16-3a31.41,31.41,0,0,0,2.41-7.37,32.4,32.4,0,0,1,5.5-10.94c4.16-5.17,4.18-5.27,1.28-6-2.29-.58-3.55.1-5.61,3-2.36,3.33-7.25,18.48-7,21.85.1,1.78,2.12,1.46,3.47-.55Zm17.82-2c.4-.74-.21-1.64-1.35-2S88.43,71,87.79,68l-1.14-5.18-2.08,4.53c-2.82,6.12-2.64,7.08,1.6,8.48,4.85,1.6,5.32,1.6,6.18,0Zm3.24-14.82c-.41-.86-.62.19-.47,2.32s.48,2.84.74,1.56A7.52,7.52,0,0,0,95.59,61.06Z"/></g></svg>