<svg id="svg2" xmlns="http://www.w3.org/2000/svg" viewBox="0 0 709.45 905"><defs><style>.cls-1{fill:#8a0;}.cls-2{fill:#ffd5d5;}.cls-3{fill:#fff;}.cls-4{fill:#333;}.cls-5{fill:#faa;}.cls-6{fill:#ff8080;}</style></defs><title>squarepig</title><g id="layer1"><g id="g3016"><rect id="rect3037" class="cls-1" x="90.24" y="779.25" width="616.17" height="101.64" transform="translate(-64.15 33.96) rotate(-4.52)"/><rect id="rect2985" class="cls-2" x="74.37" y="55.03" width="355.72" height="343.02" transform="translate(-32.28 42.17) rotate(-8.99)"/><rect id="rect2987" class="cls-3" x="128.36" y="124.96" width="111.16" height="123.87" transform="translate(-34.91 42.44) rotate(-12.03)"/><rect id="rect2989" class="cls-4" x="207.77" y="204.15" width="28.59" height="28.59" transform="translate(-69.58 109.02) rotate(-23.96)"/><rect id="rect2991" class="cls-3" x="273" y="102.95" width="111.16" height="123.87" transform="translate(-27.15 72.1) rotate(-12.03)"/><polygon id="rect2993" class="cls-4" points="282.71 192.71 303.33 182.56 312.5 205.39 291.87 215.53 282.71 192.71"/><rect id="rect2995" class="cls-5" x="223.64" y="220.26" width="161.99" height="127.04" transform="translate(-59.38 81.73) rotate(-13.94)"/><rect id="rect2997" class="cls-6" x="255.41" y="264.71" width="25.41" height="50.82" transform="translate(-87.29 117.65) rotate(-21.37)"/><rect id="rect2999" class="cls-6" x="312" y="252.14" width="25.41" height="50.82" transform="translate(-78.81 137.41) rotate(-21.37)"/><polygon id="rect3001" class="cls-5" points="36.5 63.52 107.53 86.33 80.48 192.76 9.44 169.96 36.5 63.52"/><polygon id="rect3003" class="cls-5" points="439.37 -0.01 368.34 22.8 395.4 129.24 466.43 106.43 439.37 -0.01"/><polygon id="rect3005" class="cls-2" points="119.7 412.15 438 365.99 486.53 647.51 168.24 693.66 119.7 412.15"/><polygon id="rect3011" class="cls-2" points="229.83 675.18 239.75 811.58 179.26 832.37 169.34 695.97 229.83 675.18"/><polygon id="rect3015" class="cls-2" points="456.38 588.74 592.77 578.83 613.57 639.31 477.17 649.23 456.38 588.74"/><rect id="rect3017" class="cls-5" x="179.14" y="785.6" width="66.7" height="50.82"/><rect id="rect3019" class="cls-5" x="595.24" y="579.15" width="50.82" height="57.17"/><rect id="rect3031" class="cls-2" x="58.47" y="391.76" width="60.35" height="130.22" transform="translate(-365.52 355.27) rotate(-66.41)"/><polygon id="rect3021" class="cls-5" points="59.81 406.07 32.51 469.83 0 456.87 27.29 393.1 59.81 406.07"/><rect id="rect3033" class="cls-2" x="423.73" y="375.89" width="130.22" height="60.35" transform="translate(-121.65 229.57) rotate(-23.59)"/><polygon id="rect3035" class="cls-5" points="514.52 352.07 541.81 415.83 574.33 402.87 547.03 339.1 514.52 352.07"/><g id="g3010"><rect id="rect3002" class="cls-2" x="109.65" y="638.25" width="63.52" height="22.31" transform="translate(-341.09 192.33) rotate(-34.27)"/><rect id="rect3004" class="cls-2" x="99.7" y="605.97" width="25.41" height="69.41" transform="translate(-341.21 174.48) rotate(-34.27)"/><rect id="rect3006" class="cls-2" x="76.64" y="592.65" width="60.35" height="17.35" transform="translate(-320.02 164.5) rotate(-34.27)"/><polygon id="rect3008" class="cls-2" points="120.41 623.87 130.57 589.16 144.01 591.52 133.85 626.22 120.41 623.87"/></g></g></g></svg>